<?xml version="1.0" encoding="UTF-8" standalone="no"?>
<svg xmlns="http://www.w3.org/2000/svg" viewBox="0 0 64 64" version="1.1">
 <path d="m0 9.0578v42.823h64v-21.412l-3.048-18.353-23.952-.118-3-6h-30.952c-1.524 0-3.048 1.529-3.048 3.059z" fill="#6f657e"/>
 <path d="m5 13.997786h31.570999v11.882h-31.570999z" fill="#d8afb5"/>
 <path d="m3.0625 6c-1.523809 0-3.0625 1.53308-3.0625 3.0625v2c0-1.52942 1.538691-3.0625 3.0625-3.0625h29.9375l3 6 24.9375.125 3.0625 18.34375v-2l-3.0625-18.34375-23.9375-.125-3-6z" opacity=".03"/>
 <path d="m64 15.1778v42.824h-64v-40h30l3-6 27.952.118c1.524 0 3.048 1.529 3.048 3.059z" fill="#867db2"/>
 <path d="m0 55.9978v2h64v-2z" opacity=".15"/>
 <path d="m33 12l-3 6h-30v2h31l3-6 26.938.125c1.524 0 3.063 1.533 3.063 3.063v-2c0-1.529-1.539-3.063-3.063-3.063z" opacity=".03"/>
 <path d="m55.89427 29.708328h-9.061161v-9.816258h-9.816259v9.816258h-9.816258v9.816259h9.816258v9.061161h9.816259v-9.061161h9.061161z" fill="#ffffff" style="fill:#ebebeb;fill-opacity:1"/>
</svg>
