<svg height="512" viewBox="0 0 512 512" width="512" xmlns="http://www.w3.org/2000/svg">
 <text x="729.64" y="231.36">
  
 </text>
 <text x="1310.91" y="151.36">
  
 </text>
 <text x="239.33" y="-29.9">
  
 </text>
 <text x="1337.38" y="-246.37">
  
 </text>
 <text x="1918.65" y="-326.38">
  
 </text>
 <text x="1529.53" y="-798.78">
  
 </text>
 <text x="2110.79" y="-878.78">
  
 </text>
 <text x="277.99" y="535.94">
  
 </text>
 <g fill="#d44e2b" transform="matrix(11.920103 0 0 11.920103 29.512277 29.526174)">
  <path d="m5.594 4.172c-.551 0-.992.438-.992.984v27.699c0 .547.441.985.992.985h5.613c.555 0 .996-.438.996-.985v-27.699c0-.547-.441-.984-.996-.984zm.937 2.781h3.742v11.125h-3.742zm1.871 16.688c1.031 0 1.871.832 1.871 1.855 0 1.024-.839 1.856-1.871 1.856-1.035 0-1.871-.832-1.871-1.856 0-1.023.836-1.855 1.871-1.855"/>
  <path d="m14.949 4.172c-.551 0-.992.438-.992.984v27.699c0 .547.441.985.992.985h3.742c.555 0 .997-.438.997-.985v-27.699c0-.547-.442-.984-.997-.984zm0 2.781h3.742v11.125h-3.742zm1.871 16.688c1.035 0 1.871.832 1.871 1.855 0 1.024-.836 1.856-1.871 1.856-1.031 0-1.871-.832-1.871-1.856 0-1.023.84-1.855 1.871-1.855"/>
  <path d="m21.297 5.148c-.531.145-.844.68-.703 1.207l7.234 26.758c.145.527.688.835 1.219.695l3.613-.957c.535-.145.848-.68.703-1.207l-7.234-26.758c-.141-.528-.684-.836-1.215-.696zm.726 2.688l3.618-.957 2.902 10.746-3.613.961zm6.168 15.641c.997-.266 2.024.324 2.289 1.312.27.988-.324 2.01-1.32 2.27-1 .265-2.023-.321-2.293-1.309-.265-.988.324-2.01 1.324-2.273"/>
 </g>
</svg>
