<svg height="512" viewBox="0 0 512 512" width="512" xmlns="http://www.w3.org/2000/svg">
 <path d="m91.247203 168.90362h323.585597c10.23035 0 18.515 8.29414 18.515 18.51517v131.26045c0 10.22955-8.28465 18.51514-18.515 18.51514h-323.585597c-10.230361 0-18.515005-8.2856-18.515005-18.51514v-131.26047c0-10.22102 8.284644-18.51515 18.515005-18.51515z" fill="none" stroke="#d44e2b" stroke-linecap="round" stroke-linejoin="round" stroke-width="24.041"/>
 <path d="m179.39629 191.95122c-3.38389 0-6.10567 2.72957-6.10567 6.11255v109.97069c0 3.38275 2.72178 6.11232 6.10567 6.11232h147.28056c3.39075 0 6.11253-2.72957 6.11253-6.11232v-109.97069c0-3.38298-2.72178-6.11255-6.11253-6.11255zm42.76944 85.53866v-48.88176h12.2159v48.88176zm24.4387 0v-48.88176h12.2182v48.88176zm24.4341 0v-48.88176h12.2228v48.88176z" fill="#d44e2b"/>
</svg>
