<svg height="512" viewBox="0 0 512 512" width="512" xmlns="http://www.w3.org/2000/svg">
 <path d="m171.29833 98.682973c-59.37621 0-107.655951 48.320977-107.655951 107.695857 0 26.14276 4.226259 65.1277 40.906041 101.81019 32.81362 32.87341 138.63882 104.5471 143.15604 107.57496 3.40519 2.30378 7.35245 3.44505 11.25851 3.44505 3.90607 0 7.81214-1.14127 11.21865-3.44505 4.46674-3.02521 110.27334-74.70686 143.15605-107.57496 36.67983-36.67983 40.94595-75.66212 40.94595-101.81019 0-59.37621-48.32098-107.695857-107.69586-107.695857-36.09791 0-68.05061 17.848337-87.62213 45.198777-19.57152-27.3438-51.56408-45.198777-87.66199-45.198777" fill="#d44e2b"/>
</svg>
