<svg height="512" viewBox="0 0 512 512" width="512" xmlns="http://www.w3.org/2000/svg">
 <text x="-1100.21" y="537.03">
  
 </text>
 <text x="-606.24" y="336.71">
  
 </text>
 <g fill="#d44e2b" transform="matrix(1.112653 0 0 1.112653 -28.89982 -28.910112)">
  <path d="m231.64 166.58c-13.904 3.726-26.1 10.734-36.19 19.842l16.668 19.14c7.309-6.56 16.04-11.546 26.14-14.252 34.944-9.363 70.62 11.931 80.19 47.669 9.576 35.737-10.721 71.821-45.665 81.18-34.944 9.363-70.75-11.688-80.33-47.42-2.239-8.354-2.819-16.657-1.971-24.732l-24.689-3.737c-1.321 11.393-.669 23.19 2.481 34.948 13.157 49.1 63.12 78.54 111.13 65.67 48.01-12.865 76.37-63.29 63.22-112.39-13.157-49.1-62.984-78.78-111-65.918"/>
  <path d="m242.62 207.53c-7.53 2.02-14.16 5.72-19.621 10.641l29 33.433 5.797 6.522-8.436-1.26-42.42-6.44c-.579 5.904-.233 11.977 1.396 18.05 7.13 26.61 34.14 42.614 60.16 35.642 26.02-6.972 41.41-34.34 34.28-60.949-7.13-26.61-34.14-42.614-60.16-35.642"/>
  <path d="m214.34 123.77c-68.04 19.15-122.99 77.54-138.53 160.4-.003.011-.014.019-.017.029-.059.314-.135.614-.192.929-1.328 5.369-2.48 10.827-3.401 16.409l-1.254 7.583 5.464 5.382c2.464 2.429 4.925 4.764 7.398 7.02.021.019.044.039.065.058 62.21 64.57 138.89 86.67 205.91 68.76 67.02-17.913 123.17-75.44 146.33-163.32.073-.219.082-.246.027-.082.024-.071.041-.147.064-.218.058-.223.135-.43.193-.654 1.168-3.529 2.294-7.112 3.341-10.776l2.393-8.365-6.137-6.155c-3.085-3.094-6.221-6.05-9.379-8.922-.234-.242-.488-.443-.723-.684-63.851-65.61-141.81-85.66-208.31-68.27-1.086.284-2.169.566-3.249.871m15.931 54.24c58.22-15.779 125.14-6.02 178.13 37.635-51.781 128.12-205.8 167.9-305.42 83.52 16.1-60.34 65.56-103.5 124.53-120.39.92-.263 1.838-.515 2.762-.765"/>
 </g>
</svg>
