<svg height="512" viewBox="0 0 512 512" width="512" xmlns="http://www.w3.org/2000/svg">
 <g fill="#d44e2b" transform="matrix(-2.2147207 0 0 2.2583845 601.07728 -110.44904)">
  <g transform="translate(8.0788735 11.082169)">
   <path d="m233.12619 150.36574c-5.17964 0-9.34962 4.07451-9.34962 9.13556v21.62815c-7.86837 1.93752-15.29995 4.9822-22.08744 8.95002l-15.64653-15.28832c-3.66357-3.57969-9.55852-3.57969-13.21417 0l-15.36009 15.00845c-3.66357 3.57968-3.66357 9.33966 0 12.91162l15.64652 15.2883c-4.06078 6.63055-7.17521 13.89354-9.15972 21.58178h-22.13491c-5.17965 0-9.34962 4.0745-9.34962 9.13556v21.25548c0 5.06105 4.16997 9.13556 9.34962 9.13556h22.13491c1.98293 7.68823 5.09894 14.94968 9.15972 21.58178l-15.64652 15.2883c-3.66357 3.5797-3.66357 9.33967 0 12.91165l15.36009 15.00842c3.66357 3.5797 9.55851 3.5797 13.21417 0l15.64653-15.28831c6.78591 3.96783 14.21907 7.01095 22.08744 8.95v21.62816c0 5.06106 4.16998 9.13557 9.34962 9.13557h21.75353c5.17965 0 9.34963-4.07451 9.34963-9.13557v-21.62816c7.86835-1.93751 15.29994-4.98217 22.08744-8.95l15.64653 15.28831c3.66356 3.5797 9.55851 3.5797 13.21417 0l15.36009-15.00842c3.66357-3.5797 3.66357-9.33969 0-12.91165l-15.64652-15.2883c4.06078-6.63055 7.17521-13.89355 9.1597-21.58178h22.13493c5.17963 0 9.34962-4.07451 9.34962-9.13556v-21.25548c0-5.06106-4.16999-9.13556-9.34962-9.13556h-22.13493c-1.98291-7.68824-5.09892-14.94968-9.1597-21.58178l15.64652-15.2883c3.66357-3.57969 3.66357-9.33967 0-12.91162l-15.36009-15.00845c-3.66357-3.57969-9.55851-3.57969-13.21417 0l-15.64653 15.28832c-6.7859-3.96782-14.21909-7.01095-22.08744-8.95002v-21.62815c0-5.06105-4.16998-9.13556-9.34963-9.13556zm10.87677 71.73304c21.06038 0 38.12329 16.6645 38.12329 37.25046 0 20.57822-17.055 37.25046-38.12329 37.25046-21.06038 0-38.12329-16.66453-38.12329-37.25046 0-20.57822 17.05499-37.25046 38.12329-37.25046z" transform="matrix(-.6091353 0 0 .59735822 312.36112 11.223221)"/>
   <path d="m159.97 180.33c-1.79-.821-16.16-13.948-31.932-29.17-28.352-27.365-28.74-27.688-34.17-28.403-13.23-1.742-22.334-9.712-24.951-21.842-.83-3.846.233-11.21 1.617-11.21.495 0 4.585 3.417 9.09 7.593 4.504 4.176 8.831 7.593 9.616 7.593 3.554 0 12.696-8.984 12.696-12.476 0-1.01-3.697-5.808-8.216-10.672-7.734-8.325-8.07-8.886-5.695-9.553 9.07-2.553 20.323.938 26.801 8.315 4.715 5.37 6.636 10.08 6.636 16.285v4.985l29.422 28.948 29.422 28.948.547 5.697c.456 4.748.124 6.314-1.991 9.4-4.413 6.441-12.06 8.694-18.892 5.563zm9.626-5.964c6.364-2.42 6.373-11.08.014-13.732-3.228-1.349-4.102-1.341-6.815.063-6.786 3.509-4.409 13.916 3.342 14.634.409.038 1.965-.396 3.459-.964z"/>
  </g>
  <path d="m70.68 179.42l-2.311-2.46 6.45-9.725c5.346-8.06 7.194-10 10.793-11.352 2.389-.895 8.183-5.131 12.877-9.413l8.534-7.786 2.88 2.88 2.88 2.88-8.338 8.387c-4.598 4.625-8.856 9.974-9.492 11.923-1.111 3.404-6.666 7.952-18.07 14.789l-3.896 2.337-2.311-2.46z"/>
  <path d="m146.56 118.63c-.942-1.135 2.137-4.765 14.228-16.771 12.359-12.273 15.16-15.593 14.07-16.681-1.088-1.088-3.03.254-9.751 6.742-24.893 24.03-22.703 22.289-25.22 20.02-2.252-2.038-2.238-2.057 12.979-17.301 8.378-8.393 15.233-15.656 15.233-16.14 0-2.35-4.32.96-17.82 13.652-8.09 7.607-15.392 13.831-16.227 13.831-.835 0-1.805-.75-2.157-1.667-.44-1.147 3.959-6.138 14.1-16 8.108-7.883 15.788-14.926 17.07-15.651 4.962-2.813 12.841-.759 16.36 4.265.931 1.329 1.693 4.589 1.693 7.244 0 4.757-.224 5.05-15.409 20.369-8.475 8.548-15.981 15.542-16.681 15.542-.699 0-1.813-.652-2.474-1.449z"/>
 </g>
</svg>
