<?xml version="1.0" encoding="UTF-8" standalone="no"?>
<svg xmlns="http://www.w3.org/2000/svg" height="16" style="enable-background:new" version="1.1" width="16">
 <title>
  Paper Symbolic Icon Theme
 </title>
 <g transform="translate(-305.00043,-180.99664)">
  <g transform="matrix(0.11428571,0,0,0.11428571,301.3533,164.18285)">
   <path style="opacity:1;fill:#4d4d4d;fill-opacity:1;fill-rule:evenodd;" d="m 101.91239,149.30817 a 67.8125,67.8125 0 0 0 -67.812499,67.8125 67.8125,67.8125 0 0 0 67.812499,67.8125 67.8125,67.8125 0 0 0 67.8125,-67.8125 67.8125,67.8125 0 0 0 -67.8125,-67.8125 z m -23.089801,33.90625 c 7.870942,7.4344 15.397692,15.22944 23.089801,22.84699 7.69204,-7.61794 15.21894,-15.41189 23.08981,-22.84699 l 10.81644,10.81645 c -7.43471,7.87125 -15.22928,15.39754 -22.84698,23.0898 7.61793,7.69204 15.41189,15.21894 22.84698,23.08981 l -10.81644,10.81644 c -7.87126,-7.43471 -15.39754,-15.22928 -23.08981,-22.84698 -7.692029,7.61793 -15.218929,15.41188 -23.089801,22.84698 L 68.006142,240.21048 c 7.434713,-7.87126 15.229285,-15.39754 22.846989,-23.08981 -7.617935,-7.69203 -15.411892,-15.21893 -22.846989,-23.0898 l 10.816447,-10.81645 z"/>
   <path d="m 78.822589,183.21442 c 7.870942,7.4344 15.397692,15.22944 23.089801,22.84699 7.69204,-7.61794 15.21894,-15.41189 23.08981,-22.84699 l 10.81644,10.81645 c -7.43471,7.87125 -15.22928,15.39754 -22.84698,23.0898 7.61793,7.69204 15.41189,15.21894 22.84698,23.08981 l -10.81644,10.81644 c -7.87126,-7.43471 -15.39754,-15.22928 -23.08981,-22.84698 -7.692029,7.61793 -15.218929,15.41188 -23.089801,22.84698 L 68.006142,240.21048 c 7.434713,-7.87126 15.229285,-15.39754 22.846989,-23.08981 -7.617935,-7.69203 -15.411892,-15.21893 -22.846989,-23.0898 z" style="opacity:1;fill:#ffffff;fill-opacity:1;fill-rule:evenodd;"/>
  </g>
 </g>
</svg>
