<?xml version="1.0" encoding="UTF-8" standalone="no"?>
<svg xmlns="http://www.w3.org/2000/svg" width="16" height="16" version="1.1" viewBox="0 0 16 16">
 <g transform="translate(0,-32)">
  <path style="opacity:1;fill:#4d4d4d;fill-opacity:1;fill-rule:evenodd;enable-background:new" d="m 7.999999,32.250001 c -4.280206,1e-6 -7.749999,3.469794 -7.749999,7.75 10e-7,4.280206 3.469793,7.749999 7.749999,7.749999 4.280207,0 7.75,-3.469793 7.75,-7.749999 0,-4.280207 -3.469793,-7.75 -7.75,-7.75 z"/>
  <path d="M 8,42.500001 A 0.99999992,0.99999992 0 0 0 9.000002,41.499999 C 9.000002,40.945001 8.550003,40.500001 8,40.500001 A 0.99999992,0.99999992 0 0 0 7.000002,41.499999 0.99999992,0.99999992 0 0 0 8,42.500001 m 3.000002,-4.500003 A 0.99999992,0.99999992 0 0 1 12,39 l 0,4.999998 A 0.99999992,0.99999992 0 0 1 11.000002,45 l -6,0 A 0.99999992,0.99999992 0 0 1 4,43.999998 L 4,39 c 0,-0.555002 0.449999,-1.000002 1.000002,-1.000002 l 0.499999,0 0,-0.999998 A 2.4999998,2.4999998 0 0 1 8,34.500001 2.4999998,2.4999998 0 0 1 10.499999,37 l 0,0.999998 0.500003,0 M 8,35.499999 A 1.4999999,1.4999999 0 0 0 6.499999,37 l 0,0.999998 3.000002,0 0,-0.999998 A 1.4999999,1.4999999 0 0 0 8,35.499999 Z" style="opacity:1;fill:#ffffff;fill-opacity:1;"/>
 </g>
</svg>
