<svg height="512" viewBox="0 0 512 512" width="512" xmlns="http://www.w3.org/2000/svg">
 <path d="m471.95 253.05c0 120.9-98.01 218.9-218.9 218.9-120.9 0-218.9-98.01-218.9-218.9 0-120.9 98.01-218.9 218.9-218.9 120.9 0 218.9 98.01 218.9 218.9" fill="#6997c7" fill-rule="evenodd"/>
 <text x="729.64" y="231.36">
  
 </text>
 <text x="1310.91" y="151.36">
  
 </text>
 <text x="239.33" y="-29.9">
  
 </text>
 <text x="1337.38" y="-246.37">
  
 </text>
 <text x="1918.65" y="-326.38">
  
 </text>
 <text x="1529.53" y="-798.78">
  
 </text>
 <text x="2110.79" y="-878.78">
  
 </text>
 <text x="277.99" y="535.94">
  
 </text>
 <g fill="#ffffff">
  <path d="m161.75 95.38c-16.628 0-29.969 13.403-29.969 30.03v261.19c0 16.628 13.341 30.03 29.969 30.03h188.47c16.628 0 30-13.403 30-30.03v-261.19c0-16.628-13.372-30.03-30-30.03zm7.906 22.22h172.69c8.935 0 16.13 7.159 16.13 16.09v244.56c0 8.935-7.19 16.13-16.12 16.13h-172.69c-8.935 0-16.16-7.19-16.16-16.12v-244.56c0-8.935 7.222-16.09 16.16-16.09"/>
  <g fill-rule="evenodd" transform="matrix(.71643 0 0 .71643 118.45 118.45)">
   <path d="m192 52.36c8.926 0 57.863 84.8 62.32 92.53 4.461 7.73 53.43 92.51 48.969 100.24s-102.37 7.711-111.29 7.711c-8.926 0-106.83.02-111.29-7.711-4.461-7.73 44.508-92.51 48.969-100.24s53.4-92.53 62.32-92.53"/>
   <path d="m80.42 305.15c0-14.629 13.715-26.488 30.637-26.488h161.88c16.922 0 30.637 11.859 30.637 26.488s-13.715 26.488-30.637 26.488h-161.88c-16.922 0-30.637-11.859-30.637-26.488"/>
  </g>
 </g>
<circle cx="256" stroke="#fefefe" cy="256" r="181.13" stroke-width="18.771" fill="none" /></svg>
