<svg width="512" height="512" version="1.1" viewBox="0 0 512 512" xmlns="http://www.w3.org/2000/svg">
 <g fill-rule="evenodd">
  <path d="m471.95 253.05c0 120.9-98.01 218.9-218.9 218.9-120.9 0-218.9-98.01-218.9-218.9 0-120.9 98.01-218.9 218.9-218.9 120.9 0 218.9 98.01 218.9 218.9" fill="#CF0808"/>
  <path d="m256 1c-140.83 0-255 114.17-255 255s114.17 255 255 255 255-114.17 255-255-114.17-255-255-255m8.827 44.931c120.9 0 218.9 98 218.9 218.9s-98 218.9-218.9 218.9-218.93-98-218.93-218.9 98.03-218.9 218.93-218.9" fill-opacity=".067"/>
  <g fill-opacity=".129">
   <path d="m256 4.433c-138.94 0-251.57 112.63-251.57 251.57s112.63 251.57 251.57 251.57 251.57-112.63 251.57-251.57-112.63-251.57-251.57-251.57m5.885 38.556c120.9 0 218.9 98 218.9 218.9s-98 218.9-218.9 218.9-218.93-98-218.93-218.9 98.03-218.9 218.93-218.9"/>
   <path d="m256 8.356c-136.77 0-247.64 110.87-247.64 247.64s110.87 247.64 247.64 247.64 247.64-110.87 247.64-247.64-110.87-247.64-247.64-247.64m2.942 31.691c120.9 0 218.9 98 218.9 218.9s-98 218.9-218.9 218.9-218.93-98-218.93-218.9 98.03-218.9 218.93-218.9"/>
  </g>
 </g>
 <path d="m353.89 130.82c-24.179 6.4928-34.228 6.7831-63.43 14.894l-2.7936 6.5085c-12.511 4.2207-4.9767-3.3681-21.262 12.12l-17.617 8.5668-38.672-29.182-67.867-12.908 84.657 52.91 36.013 22.969-23.812-4.1192-22.783-18.85-95.239-52.91 2.1916 55.72 4.6687 40.435 5.4555 49.863-12.316 33.877 206.55 149.04c148.75-31.574 136.12-116.31 146.52-207.17l-0.21645-37.371-98.888-84.389-4.4581 10.46" opacity=".25"/>
 <g fill="#ffffff">
  <path d="m253.04 7.859c-135.42 0-245.19 109.78-245.19 245.19 0 135.42 109.78 245.19 245.19 245.19 135.42 0 245.19-109.78 245.19-245.19 0-135.42-109.78-245.19-245.19-245.19zm0 26.297c120.9 0 218.9 98 218.9 218.9s-98 218.9-218.9 218.9-218.93-98-218.93-218.9 98.03-218.9 218.93-218.9z" fill-rule="evenodd" stroke="#000000" stroke-opacity=".31" stroke-width="4.904"/>
 </g>
 <g transform="matrix(10.582 0 0 10.582 -5.9033 -6.7504)" fill="#ffffff">
  <g fill="#ffffff">
   <g fill="#ffffff">
    <path d="m12 13v17l9 6v-18m-7-5 8 5h4l8-5c-4 0-6 0.52-10 4-4-3.395-6-4-10-4m22 0-9 5v6.563c0.234-0.402 0.527-0.777 0.875-1.125 2.18-2.176 5.695-2.176 7.875 0 0.086 0.086 0.172 0.164 0.25 0.25m-14-4.688v18h4v-18m1 11.188v5.813l4.594-3.063c-1.352-0.051-2.688-0.59-3.719-1.625-0.348-0.344-0.641-0.723-0.875-1.125"/>
    <path d="m36.902 33.426 1.063-1.063 2.344 2.344-1.063 1.063"/>
    <path d="m34.652 30.859 0.746-0.746 2.344 2.344-0.746 0.746"/>
    <path d="m28.696 24.16c-1.77 1.767-1.77 4.649 0 6.416 1.767 1.771 4.649 1.77 6.416 0 1.77-1.767 1.77-4.648 0-6.415-1.767-1.77-4.648-1.77-6.415 0zm0.669 0.669c1.405-1.408 3.671-1.408 5.076 0l0.335-0.335-0.334 0.336c1.408 1.405 1.409 3.671 0 5.076-1.405 1.408-3.671 1.408-5.076 0-1.408-1.405-1.409-3.671 0-5.076z" solid-color="#000000" style="isolation:auto;mix-blend-mode:normal;white-space:normal" isolation="auto" mix-blend-mode="normal"/>
   </g>
  </g>
 </g>
</svg>
