<svg width="512" height="512" version="1.1" viewBox="0 0 512 512" xmlns="http://www.w3.org/2000/svg">
 <g fill-rule="evenodd">
  <path d="m471.95 253.05c0 120.9-98.01 218.9-218.9 218.9-120.9 0-218.9-98.01-218.9-218.9 0-120.9 98.01-218.9 218.9-218.9 120.9 0 218.9 98.01 218.9 218.9" fill="#CF0808"/>
  <path d="m256 1c-140.83 0-255 114.17-255 255s114.17 255 255 255 255-114.17 255-255-114.17-255-255-255m8.827 44.931c120.9 0 218.9 98 218.9 218.9s-98 218.9-218.9 218.9-218.93-98-218.93-218.9 98.03-218.9 218.93-218.9" fill-opacity=".067"/>
  <g fill-opacity=".129">
   <path d="m256 4.433c-138.94 0-251.57 112.63-251.57 251.57s112.63 251.57 251.57 251.57 251.57-112.63 251.57-251.57-112.63-251.57-251.57-251.57m5.885 38.556c120.9 0 218.9 98 218.9 218.9s-98 218.9-218.9 218.9-218.93-98-218.93-218.9 98.03-218.9 218.93-218.9"/>
   <path d="m256 8.356c-136.77 0-247.64 110.87-247.64 247.64s110.87 247.64 247.64 247.64 247.64-110.87 247.64-247.64-110.87-247.64-247.64-247.64m2.942 31.691c120.9 0 218.9 98 218.9 218.9s-98 218.9-218.9 218.9-218.93-98-218.93-218.9 98.03-218.9 218.93-218.9"/>
  </g>
 </g>
 <path d="m302.56 114.93-2.236 0.568 11.867 11.867-46.14-12.02-6.4041-7.6703-83.555 30.304-33.712 69.104 42.212 28.885-44.772 21.272 43.113 30.641-30.901 20.646 43.905 30.665-29.561 21.93 42.316 25.104-17.342 12.974 106.37 73.593c145.5-56.006 188.32-148.4 172.51-261.58l-151.44-102.57" opacity=".25"/>
 <path d="m253.04 7.859c-135.42 0-245.19 109.78-245.19 245.19 0 135.42 109.78 245.19 245.19 245.19 135.42 0 245.19-109.78 245.19-245.19 0-135.42-109.78-245.19-245.19-245.19zm0 26.297c120.9 0 218.9 98 218.9 218.9s-98 218.9-218.9 218.9-218.93-98-218.93-218.9 98.03-218.9 218.93-218.9z" fill="#ffffff" fill-rule="evenodd" stroke="#000000" stroke-opacity=".31" stroke-width="4.904"/>
 <path d="m251.71 92.191c-29.08 0-57.589 10.708-79.363 28.852-21.773 18.144-36.956 44.384-36.956 74.542a12.926 12.926 0 1 0 25.849 0c0-21.541 10.667-40.534 27.666-54.701 16.999-14.166 40.187-22.845 62.804-22.845 23.719 0 46.896 6.0947 63.334 18.427 16.438 12.332 27.136 30.252 27.136 59.118 0 12.924 0.74056 31.94 16.711 47.91a12.926 12.926 0 1 0 18.276-18.276c-9.878-9.878-9.1378-16.711-9.1378-29.635 0-35.754-15.137-63.07-37.46-79.818-22.323-16.747-50.835-23.576-78.859-23.576zm0 51.697c-39.203 0-64.621 32.311-64.621 64.621 0 8.6162-3.4641 13.702-10.4 18.327-6.9358 4.6239-17.603 7.5223-28.373 7.5223a12.926 12.926 0 1 0 0 25.848c15.079 0 30.26-3.5637 42.711-11.864 12.451-8.3003 21.91-22.601 21.91-39.833 0-19.386 13.355-38.773 38.773-38.773 25.418 0 38.773 19.386 38.773 38.773 0 28.003 6.969 50.228 18.73 65.909 11.761 15.681 28.658 24.561 45.891 24.561a12.926 12.926 0 1 0 0-25.848c-8.6162 0-17.567-4.0445-25.192-14.212-7.6253-10.167-13.581-26.716-13.581-50.41 0-32.311-25.418-64.621-64.621-64.621zm-0.55575 51.899a12.926 12.926 0 0 0-12.369 12.722c0 28.864-10.886 47.146-25.949 59.472-15.063 12.325-35.082 18.073-51.596 18.073a12.926 12.926 0 1 0 0 25.848c22.258 0 47.476-7.1754 67.953-23.931 7.5836-6.2047 13.216-15.225 18.806-24.157 7.1598 21.205 17.617 38.844 29.761 51.999 21.44 23.227 45.033 34.861 64.42 34.861a12.926 12.926 0 1 0 0-25.848c-6.4621 0-28.104-7.7531-45.437-26.53-17.333-18.776-32.109-47.631-32.109-89.789a12.926 12.926 0 0 0-13.48-12.722zm-12.571 116.12a12.926 12.926 0 0 0-8.936 3.7864c-9.878 9.878-33.943 22.062-55.484 22.062a12.926 12.926 0 1 0 0 25.848c24.609 0 45.866-9.9601 62.148-21.987 10.55 12.967 26.508 35.013 63.006 47.179a12.932 12.932 0 1 0 8.1786-24.535c-34.686-11.562-43.603-32.596-59.573-48.567a12.926 12.926 0 0 0-9.3398-3.7864zm-20.295 59.446c-7.8949 0.51696-16.053 2.5361-24.056 6.5378a12.926 12.926 0 1 0 11.561 23.123c9.8417-4.9208 19.01-4.8892 27.817-2.3728 8.8078 2.5165 16.946 7.9347 21.886 12.874a12.926 12.926 0 1 0 18.276-18.276c-7.9852-7.9852-19.233-15.491-33.042-19.437-6.9049-1.9728-14.546-2.9659-22.44-2.4485z" fill="#ffffff" stroke-width="12.924"/>
</svg>
