<svg width="512" height="512" version="1.1" viewBox="0 0 512 512" xmlns="http://www.w3.org/2000/svg">
 <g fill-rule="evenodd">
  <path d="m471.95 253.05c0 120.9-98.01 218.9-218.9 218.9-120.9 0-218.9-98.01-218.9-218.9 0-120.9 98.01-218.9 218.9-218.9 120.9 0 218.9 98.01 218.9 218.9" fill="#CF0808"/>
  <path d="m256 1c-140.83 0-255 114.17-255 255s114.17 255 255 255 255-114.17 255-255-114.17-255-255-255m8.827 44.931c120.9 0 218.9 98 218.9 218.9s-98 218.9-218.9 218.9-218.93-98-218.93-218.9 98.03-218.9 218.93-218.9" fill-opacity=".067"/>
  <g fill-opacity=".129">
   <path d="m256 4.433c-138.94 0-251.57 112.63-251.57 251.57s112.63 251.57 251.57 251.57 251.57-112.63 251.57-251.57-112.63-251.57-251.57-251.57m5.885 38.556c120.9 0 218.9 98 218.9 218.9s-98 218.9-218.9 218.9-218.93-98-218.93-218.9 98.03-218.9 218.93-218.9"/>
   <path d="m256 8.356c-136.77 0-247.64 110.87-247.64 247.64s110.87 247.64 247.64 247.64 247.64-110.87 247.64-247.64-110.87-247.64-247.64-247.64m2.942 31.691c120.9 0 218.9 98 218.9 218.9s-98 218.9-218.9 218.9-218.93-98-218.93-218.9 98.03-218.9 218.93-218.9"/>
  </g>
 </g>
 <path d="m365.1 193.18-70.033-71.651-25.765-0.2208-16.353 0.54237-27.77 6.1535-1.113 0.934-4.193-4.193-46.6-3.9526-13.634 3.4062-33.978 7.1414-3.7402 122.01 35.847 36.003-16.337-12.269v22.511l163.19 166.3c50.491-1.4515 100.65-5.1201 136.99-99.954 28.299-16.711 35.159-69.15 38.401-102.07l-69.038-74.487c-16.711 7.4458-28.862 15.61-45.875 3.8075z" opacity=".25"/>
 <path d="m253.04 7.859c-135.42 0-245.19 109.78-245.19 245.19 0 135.42 109.78 245.19 245.19 245.19 135.42 0 245.19-109.78 245.19-245.19 0-135.42-109.78-245.19-245.19-245.19zm0 26.297c120.9 0 218.9 98 218.9 218.9s-98 218.9-218.9 218.9-218.93-98-218.93-218.9 98.03-218.9 218.93-218.9z" fill="#ffffff" fill-rule="evenodd" stroke="#000000" stroke-opacity=".31" stroke-width="4.904"/>
 <g transform="matrix(11.255 0 0 11.255 -4.8874 -26.823)" fill="#ffffff">
  <g fill="#ffffff">
   <g fill="#ffffff">
    <path d="m11.531 13c-0.293 0.031-0.535 0.301-0.531 0.594v10.813c0 0.316 0.281 0.594 0.594 0.594h5.406v2h-4v2h7.281v-3.969l-2.313-2.031h-4.531c-0.211 0-0.406-0.195-0.406-0.406v-7.188c-4e-3 -0.188 0.129-0.371 0.313-0.406 0.023-4e-3 0.07-4e-3 0.094 0h11.125c0.211 0 0.406 0.199 0.406 0.406v2.875h2.031v-4.688c0-0.313-0.281-0.594-0.594-0.594"/>
    <path d="m25.13 19 2.469 2h6.969c0.211 0 0.406 0.195 0.406 0.406v7.188c0 0.211-0.195 0.406-0.406 0.406h-11.125c-0.207 0-0.406-0.195-0.406-0.406v-1.125l-2.02-1.781v4.719c0 0.316 0.27 0.594 0.594 0.594h5.406v2h-4v2h12v-2h-4v-2h5.395c0.316 0 0.605-0.277 0.605-0.594v-10.813c0-0.313-0.281-0.594-0.605-0.594"/>
    <path d="m15 19 9 8v-5l7 3-10-8v3.75l-5.996-1.75" fill-rule="evenodd"/>
   </g>
  </g>
 </g>
</svg>
