<svg width="512" height="512" version="1.1" viewBox="0 0 512 512" xmlns="http://www.w3.org/2000/svg">
 <g fill-rule="evenodd">
  <path d="m471.95 253.05c0 120.9-98.01 218.9-218.9 218.9-120.9 0-218.9-98.01-218.9-218.9 0-120.9 98.01-218.9 218.9-218.9 120.9 0 218.9 98.01 218.9 218.9" fill="#CF0808"/>
  <path d="m256 1c-140.83 0-255 114.17-255 255s114.17 255 255 255 255-114.17 255-255-114.17-255-255-255m8.827 44.931c120.9 0 218.9 98 218.9 218.9s-98 218.9-218.9 218.9-218.93-98-218.93-218.9 98.03-218.9 218.93-218.9" fill-opacity=".067"/>
  <g fill-opacity=".129">
   <path d="m256 4.433c-138.94 0-251.57 112.63-251.57 251.57s112.63 251.57 251.57 251.57 251.57-112.63 251.57-251.57-112.63-251.57-251.57-251.57m5.885 38.556c120.9 0 218.9 98 218.9 218.9s-98 218.9-218.9 218.9-218.93-98-218.93-218.9 98.03-218.9 218.93-218.9"/>
   <path d="m256 8.356c-136.77 0-247.64 110.87-247.64 247.64s110.87 247.64 247.64 247.64 247.64-110.87 247.64-247.64-110.87-247.64-247.64-247.64m2.942 31.691c120.9 0 218.9 98 218.9 218.9s-98 218.9-218.9 218.9-218.93-98-218.93-218.9 98.03-218.9 218.93-218.9"/>
  </g>
 </g>
 <path d="m266.05 115.34-13.287-8.7073c-59.51 24.852-82.518 37.637-135.06 56.398l1.5408 23.761-2.1483 35.301 16.303 54.744-16.457 39.49 187.69 149.56c118.17-30.851 171.99-118.21 170.77-226.99l-89.012-77.845" opacity=".25"/>
 <path d="m253.04 7.859c-135.42 0-245.19 109.78-245.19 245.19 0 135.42 109.78 245.19 245.19 245.19 135.42 0 245.19-109.78 245.19-245.19 0-135.42-109.78-245.19-245.19-245.19zm0 26.297c120.9 0 218.9 98 218.9 218.9s-98 218.9-218.9 218.9-218.93-98-218.93-218.9 98.03-218.9 218.93-218.9z" fill="#ffffff" fill-rule="evenodd" stroke="#000000" stroke-opacity=".31" stroke-width="4.904"/>
 <path d="m182.74 348.09-65.808-31.761 0.38063-76.648 0.38062-76.648 17.447-7.6285c76.288-33.356 114.81-49.306 118.98-49.263 2.6917 0.0251 33.551 12.393 68.576 27.479l63.682 27.429v156.87l-63.682 30.938c-38.724 18.813-65.734 30.949-68.917 30.966-3.2555 0.0188-30.111-11.979-71.042-31.734zm101.29-50.072c15.029-7.672 30.329-15.775 34-18.007l6.6746-4.0581-7.6325-4.049-7.6325-4.0491-27.875 13.333c-33.365 15.958-25.339 15.924-57.73 0.24729-30.95-14.98-27.213-13.96-36.766-10.032-9.9943 4.1088-11.799 2.646 27.891 22.602 42.475 21.356 35.852 20.971 69.071 4.0138zm10.75-47.545c15.477-8.4049 15.911-9.316 6.4116-13.46-4.486-1.957-11.689-5.1006-16.008-6.9856l-7.8513-3.4274v31.516l3.9256-1.2159c2.1591-0.66872 8.2438-3.561 13.522-6.4271zm-28.821-24.372c14.167-6.9858 14.404-6.1461-4.3287-15.328-18.976-9.3012-18.883-8.1004-1.3086-16.9l14.394-7.207-22.439-10.324-25.42 11.176c-35.374 15.552-35.189 13.327-2.4843 29.966 32.542 16.556 27.575 15.527 41.586 8.6173zm-47.951-47.287 35.763-16.221 19.196 8.5834c10.558 4.7208 25.869 11.747 34.026 15.613 8.1566 3.8665 17.186 7.0427 20.064 7.0583 5.857 0.0313 57.544-24.92 55.412-26.75-2.238-1.9212-126.36-54.611-128.65-54.611-1.7019 0-68.199 28.618-114.62 49.328-12.743 5.6851-11.917 6.819 14.934 20.514 29.898 15.25 21.48 15.713 63.873-3.5155z" fill="#ffffff" stroke-width="6.2603"/>
</svg>
