<svg viewBox="0 0 512 512" xmlns="http://www.w3.org/2000/svg" xmlns:xlink="http://www.w3.org/1999/xlink">
 <path id="a" d="m9.639 9v14.1c.216.319.431.517.756.629h12.11l-3.428-3.447h-6l-.004-7.863h7.797v6.152l3.492 3.492v-12.11c-.116-.653-.502-.865-.959-.961h-13.764m18.355 5.04c-.457.097-.845.307-.961.961l-.006 6.875 3.369-3.369v-1.109h3l-.004 2.986h-1.111l-3.654 3.301h7.359c.34-.066.562-.196.756-.582v-9.06h-8.75m-15.518 12.221c-.34.066-.563.196-.758.582v12.16h11.684c.457-.096.843-.307.959-.961l.008-9.918-3.369 3.367v4.086h-5.984l.004-5.955h4.221l3.428-3.361h-10.191m16.15 0l3.428 3.361h2.932l.004 4.658h-4.596v-2.789l-3.369-3.367.006 8.553c.116.653.504.865.961.961h10.367v-10.795c-.194-.386-.418-.516-.758-.582z"/>
 <text x="-109.95" y="148.92">
  
 </text>
 <text x="471.32" y="68.92">
  
 </text>
 <text x="-600.26" y="-112.34">
  
 </text>
 <text x="497.79" y="-328.81">
  
 </text>
 <text x="1079.06" y="-408.82">
  
 </text>
 <text x="689.94" y="-881.22">
  
 </text>
 <text x="1271.2" y="-961.22">
  
 </text>
 <text x="-561.6" y="453.5">
  
 </text>
 <path d="m49.400391-2.5175781c-5.399 0-9.71875 4.351-9.71875 9.75v471.4999981c0 5.399 4.31975 9.75 9.71875 9.75h421.878909c5.399 0 9.71875-4.351 9.71875-9.75v-315.43945l-165.8086-165.8105481h-265.781247zm304.439449 205.0585981c.167-.001.332 0 .5 0 49.59 0 89.81055 40.158 89.81055 89.75 0 .178.001.35325 0 .53125h-90.31055v-90.2793zm-12 12v90.27929h90.31055c-.28 49.346-40.40055 89.28125-89.81055 89.28125-49.59 0-89.81054-40.21854-89.81054-89.81054 0-49.42 39.95054-89.48 89.31054-89.75zm-229.46679 8.67968v.00586h29.34179c15.71 0 23.57655 1.45875 30.31055 5.46875 10.26 6.249 16.0293 17.46085 16.0293 31.08985 0 13.629-5.9425 25.66175-15.5625 31.59375-6.57 4.008-14.25485 5.28125-31.08985 5.28125h-7.06054v45.06054h-21.96875v-118.49414h-.00196zm21.96289 21.00586v31.4375h6.43945c19.725 0 25.1582-5.3005 25.1582-15.5625 0-12.506-7.38375-15.875-24.21875-15.875h-7.375zm-60.994143 108.1836h142.941403v32.31054h-142.941403zm0 64.58984l.011719.00195h343.619144v32.3086h-343.630863z" fill="#ffedb5"/>
 <text x="-990.51" y="-43.58">
  
 </text>
 <text x="-1638.27" y="-811.53">
  
 </text>
 <text x="-931.93" y="-967.16">
  
 </text>
 <text x="-34.02" y="244.38">
  
 </text>
 <text x="547.25" y="164.38">
  
 </text>
 <text x="-524.33" y="-16.88">
  
 </text>
 <text x="573.72" y="-233.35">
  
 </text>
 <text x="1154.99" y="-313.36">
  
 </text>
 <text x="765.87" y="-785.76">
  
 </text>
 <text x="1347.13" y="-865.76">
  
 </text>
 <text x="-485.67" y="548.96">
  
 </text>
 <text x="-394.98" y="-513.27">
  
 </text>
 <text x="-1042.75" y="-1281.22">
  
 </text>
 <text x="-336.41" y="-1436.85">
  
 </text>
 <text x="-583.55" y="-261.22">
  
 </text>
 <text x="-1231.31" y="-1029.18">
  
 </text>
 <text x="-524.97" y="-1184.81">
  
 </text>
 <use fill="#fff8eb" transform="matrix(2.88355 0 0 2.88355 -457.38 -639.69)" xlink:href="#a"/>
 <g transform="translate(137.94 -816.43)">
  <text x="729.64" y="231.36">
   
  </text>
  <text x="1310.91" y="151.36">
   
  </text>
  <text x="239.33" y="-29.9">
   
  </text>
  <text x="1337.38" y="-246.37">
   
  </text>
  <text x="1918.65" y="-326.37">
   
  </text>
  <text x="1529.53" y="-798.77">
   
  </text>
  <text x="2110.79" y="-878.78">
   
  </text>
  <text x="277.99" y="535.94">
   
  </text>
 </g>
 <text x="976.2" y="-314.49">
  
 </text>
 <text x="1557.47" y="-394.49">
  
 </text>
 <text x="485.89" y="-575.75">
  
 </text>
 <text x="1583.94" y="-792.22">
  
 </text>
 <text x="2165.21" y="-872.23">
  
 </text>
 <text x="1776.09" y="-1344.63">
  
 </text>
 <text x="2357.35" y="-1424.63">
  
 </text>
 <text x="524.55" y="-9.91">
  
 </text>
 <text x="95.64" y="-506.98">
  
 </text>
 <text x="-552.12" y="-1274.93">
  
 </text>
 <text x="154.22" y="-1430.57">
  
 </text>
 <text x="1052.13" y="-219.03">
  
 </text>
 <text x="1633.4" y="-299.03">
  
 </text>
 <text x="561.82" y="-480.29">
  
 </text>
 <text x="1659.87" y="-696.76">
  
 </text>
 <text x="2241.14" y="-776.77">
  
 </text>
 <text x="1852.02" y="-1249.17">
  
 </text>
 <text x="2433.28" y="-1329.17">
  
 </text>
 <text x="600.48" y="85.55">
  
 </text>
 <text x="691.17" y="-976.68">
  
 </text>
 <text x="43.4" y="-1744.63">
  
 </text>
 <text x="749.74" y="-1900.26">
  
 </text>
 <text x="2095.2" y="-769.29">
  
 </text>
 <text x="2676.47" y="-849.29">
  
 </text>
 <text x="1604.89" y="-1030.55">
  
 </text>
 <text x="2702.94" y="-1247.02">
  
 </text>
 <text x="3284.21" y="-1327.03">
  
 </text>
 <text x="2895.09" y="-1799.43">
  
 </text>
 <text x="3476.36" y="-1879.43">
  
 </text>
 <text x="1643.55" y="-464.71">
  
 </text>
 <text x="1214.65" y="-961.79">
  
 </text>
 <text x="566.88" y="-1729.74">
  
 </text>
 <text x="1273.22" y="-1885.37">
  
 </text>
 <text x="1745.92" y="-600.07">
  
 </text>
 <text x="2327.19" y="-680.07">
  
 </text>
 <text x="1255.61" y="-861.33">
  
 </text>
 <text x="2353.66" y="-1077.8">
  
 </text>
 <text x="2934.93" y="-1157.81">
  
 </text>
 <text x="2545.81" y="-1630.21">
  
 </text>
 <text x="3127.07" y="-1710.21">
  
 </text>
 <text x="1294.27" y="-295.49">
  
 </text>
 <path d="m84.19 449.28c129.58 129.64 259.32 259.38 388.91 388.91z" fill="#79c943" fill-rule="evenodd"/>
</svg>
