<?xml version="1.0" encoding="UTF-8" standalone="no"?>
<svg
   xmlns:dc="http://purl.org/dc/elements/1.1/"
   xmlns:cc="http://creativecommons.org/ns#"
   xmlns:rdf="http://www.w3.org/1999/02/22-rdf-syntax-ns#"
   xmlns:svg="http://www.w3.org/2000/svg"
   xmlns="http://www.w3.org/2000/svg"
   xmlns:sodipodi="http://sodipodi.sourceforge.net/DTD/sodipodi-0.dtd"
   xmlns:inkscape="http://www.inkscape.org/namespaces/inkscape"
   viewBox="0 0 64 64"
   id="svg2"
   version="1.1"
   inkscape:version="0.91 r13725"
   sodipodi:docname="folder-remote.svg">
  <metadata
     id="metadata33">
    <rdf:RDF>
      <cc:Work
         rdf:about="">
        <dc:format>image/svg+xml</dc:format>
        <dc:type
           rdf:resource="http://purl.org/dc/dcmitype/StillImage" />
      </cc:Work>
    </rdf:RDF>
  </metadata>
  <sodipodi:namedview
     pagecolor="#ffffff"
     bordercolor="#666666"
     borderopacity="1"
     objecttolerance="10"
     gridtolerance="10"
     guidetolerance="10"
     inkscape:pageopacity="0"
     inkscape:pageshadow="2"
     inkscape:window-width="1920"
     inkscape:window-height="1020"
     id="namedview31"
     showgrid="false"
     inkscape:zoom="4.3135067"
     inkscape:cx="80.572619"
     inkscape:cy="26.517237"
     inkscape:window-x="0"
     inkscape:window-y="0"
     inkscape:window-maximized="1"
     inkscape:current-layer="svg2" />
  <defs
     id="defs4">
    <radialGradient
       id="radialGradient3964"
       cx="32.5"
       cy="56.5"
       r="33.5"
       gradientTransform="matrix(1.1343284,0,0,0.11940298,-4.8656716,49.253728)"
       gradientUnits="userSpaceOnUse">
      <stop
         style="stop-color:#000;stop-opacity:1"
         id="stop7" />
      <stop
         offset="1"
         style="stop-color:#000;stop-opacity:0"
         id="stop9" />
    </radialGradient>
  </defs>
  <path
     inkscape:connector-curvature="0"
     id="path13"
     style="opacity:0.6;fill:url(#radialGradient3964);fill-opacity:1;stroke:none"
     d="m 70.000003,55.999996 c 0,2.209143 -17.012658,4 -38.000002,4 -20.987344,0 -38.000001,-1.790857 -38.000001,-4 0,-2.209143 17.012657,-4 38.000001,-4 20.987344,0 38.000002,1.790857 38.000002,4 z" />
  <path
     inkscape:connector-curvature="0"
     id="path15"
     style="fill:#757575;fill-opacity:1;stroke:none"
     d="m 0,9.0578 0,42.823 64,0 0,-21.412 -3.048,-18.353 -23.952,-0.118 -3,-6 -30.952,0 C 1.524,5.9978 0,7.5268 0,9.0568 Z" />
  <rect
     id="rect17"
     style="fill:#fffdf0;fill-opacity:1;stroke:none"
     y="13.997786"
     x="5"
     height="11.882"
     width="31.570999" />
  <path
     inkscape:connector-curvature="0"
     id="path19"
     style="opacity:0.02999998;fill:#000000;fill-opacity:1;stroke:none"
     d="M 3.0625,6 C 1.538691,6 0,7.53308 0,9.0625 l 0,2 C 0,9.53308 1.538691,8 3.0625,8 L 33,8 36,14 60.9375,14.125 64,32.46875 l 0,-2 L 60.9375,12.125 37,12 34,6 Z" />
  <path
     inkscape:connector-curvature="0"
     id="path21"
     style="fill:#bdbdbd;fill-opacity:1;stroke:none"
     d="m 64,15.1778 0,42.824 -64,0 0,-40 30,0 3,-6 27.952,0.118 c 1.524,0 3.048,1.529 3.048,3.059 z" />
  <path
     inkscape:connector-curvature="0"
     id="path23"
     style="opacity:0.15;fill:#000000;fill-opacity:1;stroke:none"
     d="m 0,55.9978 0,2 64,0 0,-2 z" />
  <path
     inkscape:connector-curvature="0"
     id="path25"
     style="opacity:0.02999998;fill:#000000;fill-opacity:1;stroke:none"
     d="m 33,12 -3,6 -30,0 0,2 31,0 3,-6 26.938,0.125 c 1.524,0 3.063,1.533 3.063,3.063 l 0,-2 c 0,-1.529 -1.539,-3.063 -3.063,-3.063 z" />
  <path
     inkscape:connector-curvature="0"
     id="path27"
     style="opacity:1;fill:#7f7f7f;fill-opacity:1;fill-rule:nonzero;stroke:none"
     d="m 20,25.9978 0,5 c 10.147,1.12 19.04,8.915 19,19 l 5,0 c 0,-14.406 -12.938,-23.544 -24,-24 z m 0,8 0,5 c 5.499,0.452 10.939,4.584 11,11 l 5,0 c -0.239,-9.783 -9.17,-15.305 -16,-16 z" />
  <path
     inkscape:connector-curvature="0"
     id="path29"
     style="opacity:1;fill:#7f7f7f;fill-opacity:1;fill-rule:evenodd;stroke:none"
     d="m 27,46.500003 a 3.5,3.5 0 0 1 -7,0 3.5,3.5 0 1 1 7,0 z" />
</svg>
