<?xml version="1.0" encoding="UTF-8" standalone="no"?>
<svg xmlns="http://www.w3.org/2000/svg" height="512" width="512" version="1.1" viewBox="0 0 512 512">
 <path fill="#f38725" d="m471.95 253.05c0 120.9-98.01 218.9-218.9 218.9-120.9 0-218.9-98.01-218.9-218.9 0-120.9 98.01-218.9 218.9-218.9 120.9 0 218.9 98.01 218.9 218.9" fill-rule="evenodd" style="fill:#708090;fill-opacity:1"/>
 <text font-size="129.23" line-height="125%" y="231.36" x="729.64" font-family="Gentium Book Basic" word-spacing="0" letter-spacing="0">
  
 </text>
 <text font-size="129.23" line-height="125%" y="151.36" x="1310.91" font-family="Gentium Book Basic" word-spacing="0" letter-spacing="0">
  
 </text>
 <text font-size="129.23" line-height="125%" y="-29.9" x="239.33" font-family="Gentium Book Basic" word-spacing="0" letter-spacing="0">
  
 </text>
 <text font-size="129.23" line-height="125%" y="-246.37" x="1337.38" font-family="Gentium Book Basic" word-spacing="0" letter-spacing="0">
  
 </text>
 <text font-size="129.23" line-height="125%" y="-326.38" x="1918.65" font-family="Gentium Book Basic" word-spacing="0" letter-spacing="0">
  
 </text>
 <text font-size="129.23" line-height="125%" y="-798.78" x="1529.53" font-family="Gentium Book Basic" word-spacing="0" letter-spacing="0">
  
 </text>
 <text font-size="129.23" line-height="125%" y="-878.78" x="2110.79" font-family="Gentium Book Basic" word-spacing="0" letter-spacing="0">
  
 </text>
 <text font-size="208.33" line-height="125%" y="535.94" x="277.99" font-family="Gentium Book Basic" word-spacing="0" letter-spacing="0">
  
 </text>
 <path d="m161.75 95.38c-16.628 0-29.982 13.398-29.982 30.03v261.19c0 16.628 13.354 30.03 29.982 30.03h188.45c16.628 0 30.03-13.398 30.03-30.03v-261.19c0-16.628-13.398-30.03-30.03-30.03h-188.45m7.908 22.2h172.68c8.935 0 16.12 7.186 16.12 16.12v244.55c0 8.935-7.186 16.12-16.12 16.12h-172.68c-8.935 0-16.16-7.186-16.16-16.12v-244.55c0-8.935 7.23-16.12 16.16-16.12m138.22 20.901c-6.163 0-11.124 5.441-11.124 12.21v35.588c0 6.769 4.961 12.21 11.124 12.21s11.124-5.441 11.124-12.21v-35.588c0-6.769-4.961-12.21-11.124-12.21m-30.33 0.348c-6.163 0-11.124 5.441-11.124 12.21v35.588c0 6.769 4.961 12.21 11.124 12.21s11.124-5.441 11.124-12.21v-35.588c0-6.769-4.961-12.21-11.124-12.21m-74.826 0.13c-6.769 0-12.21 4.961-12.21 11.124s5.441 11.124 12.21 11.124h35.588c6.769 0 12.21-4.961 12.21-11.124s-5.441-11.124-12.21-11.124h-35.588m0 30.808c-6.769 0-12.21 4.961-12.21 11.124s5.441 11.124 12.21 11.124h35.588c6.769 0 12.21-4.961 12.21-11.124s-5.441-11.124-12.21-11.124h-35.588m54.19 41.975c-45.854 0-83.04 37.18-83.04 83.04 0 45.854 37.18 83.04 83.04 83.04 45.854 0 83.04-37.18 83.04-83.04 0-45.854-37.18-83.04-83.04-83.04m0 51.01c17.693 0 32.02 14.331 32.02 32.02 0 17.693-14.331 32.02-32.02 32.02-17.693 0-32.02-14.331-32.02-32.02 0-17.693 14.331-32.02 32.02-32.02m0 14.426c-9.728 0-17.598 7.87-17.598 17.598s7.87 17.598 17.598 17.598 17.598-7.87 17.598-17.598-7.87-17.598-17.598-17.598" fill="#fff"/>
</svg>
