<svg height="512" viewBox="0 0 512 512" width="512" xmlns="http://www.w3.org/2000/svg">
 <text x="729.64" y="231.36">
  
 </text>
 <text x="1310.91" y="151.36">
  
 </text>
 <text x="239.33" y="-29.9">
  
 </text>
 <text x="1337.38" y="-246.37">
  
 </text>
 <text x="1918.65" y="-326.38">
  
 </text>
 <text x="1529.53" y="-798.78">
  
 </text>
 <text x="2110.79" y="-878.78">
  
 </text>
 <text x="277.99" y="535.94">
  
 </text>
 <g fill="#d44e2b" transform="matrix(1.2971444 0 0 1.2971444 -76.069106 -76.070443)">
  <path d="m161.75 95.38c-16.628 0-29.969 13.403-29.969 30.03v261.19c0 16.628 13.341 30.03 29.969 30.03h188.47c16.628 0 30-13.403 30-30.03v-261.19c0-16.628-13.372-30.03-30-30.03zm7.906 22.22h172.69c8.935 0 16.13 7.159 16.13 16.09v244.56c0 8.935-7.19 16.13-16.12 16.13h-172.69c-8.935 0-16.16-7.19-16.16-16.12v-244.56c0-8.935 7.222-16.09 16.16-16.09"/>
  <path d="m307.88 138.48c-6.163 0-11.124 5.441-11.124 12.21v35.588c0 6.769 4.961 12.21 11.124 12.21 6.163 0 11.124-5.441 11.124-12.21v-35.59c0-6.769-4.961-12.21-11.124-12.21"/>
  <path d="m277.55 138.83c-6.163 0-11.124 5.441-11.124 12.21v35.588c0 6.769 4.961 12.21 11.124 12.21 6.163 0 11.124-5.441 11.124-12.21v-35.59c0-6.769-4.961-12.21-11.124-12.21"/>
  <path d="m202.73 138.96c-6.769 0-12.21 4.961-12.21 11.124 0 6.163 5.441 11.124 12.21 11.124h35.588c6.769 0 12.21-4.961 12.21-11.124 0-6.163-5.441-11.124-12.21-11.124h-35.59"/>
  <path d="m202.73 169.77c-6.769 0-12.21 4.961-12.21 11.124 0 6.163 5.441 11.124 12.21 11.124h35.588c6.769 0 12.21-4.961 12.21-11.124 0-6.163-5.441-11.124-12.21-11.124h-35.59"/>
  <path d="m256.41 211.21l-7.418 7.418-68.57 68.57-7.418 7.583 7.418 7.418 68.57 68.57 7.583 7.583 7.418-7.583 54.892-54.892h-29.836l-32.474 32.638-53.738-53.738 53.57-53.738 32.638 32.639h29.836l-55.06-55.06-7.418-7.418m0 73.02v21.1h84.4v-21.1z"/>
 </g>
</svg>
