<svg height="512" viewBox="0 0 512 512" width="512" xmlns="http://www.w3.org/2000/svg">
 <text x="729.64" y="231.36">
  
 </text>
 <text x="1310.91" y="151.36">
  
 </text>
 <text x="239.33" y="-29.9">
  
 </text>
 <text x="1337.38" y="-246.37">
  
 </text>
 <text x="1918.65" y="-326.38">
  
 </text>
 <text x="1529.53" y="-798.78">
  
 </text>
 <text x="2110.79" y="-878.78">
  
 </text>
 <text x="277.99" y="535.94">
  
 </text>
 <text x="-307.18" y="-11.34">
  
 </text>
 <text x="438.2" y="41.8">
  
 </text>
 <text x="1337.81" y="-82.02">
  
 </text>
 <text x="465.66" y="-134.65">
  
 </text>
 <text x="1365.27" y="-258.47">
  
 </text>
 <text x="-2544.32" y="317.23">
  
 </text>
 <text x="-616.04" y="81.8">
  
 </text>
 <text x="129.34" y="134.94">
  
 </text>
 <text x="1028.95" y="11.13">
  
 </text>
 <text x="156.8" y="-41.51">
  
 </text>
 <text x="1056.42" y="-165.33">
  
 </text>
 <text x="-2853.18" y="410.37">
  
 </text>
 <text x="-1330.61" y="-35.06">
  
 </text>
 <text x="-585.23" y="18.09">
  
 </text>
 <text x="314.38" y="-105.73">
  
 </text>
 <text x="-557.77" y="-158.37">
  
 </text>
 <text x="341.85" y="-282.18">
  
 </text>
 <text x="-3567.75" y="293.52">
  
 </text>
 <text x="729.64" y="231.36">
  
 </text>
 <text x="1310.91" y="151.36">
  
 </text>
 <text x="239.33" y="-29.9">
  
 </text>
 <text x="1337.38" y="-246.37">
  
 </text>
 <text x="1918.65" y="-326.38">
  
 </text>
 <text x="1529.53" y="-798.78">
  
 </text>
 <text x="2110.79" y="-878.78">
  
 </text>
 <text x="277.99" y="535.94">
  
 </text>
 <text x="104.96" y="227.12">
  
 </text>
 <text x="686.23" y="147.11">
  
 </text>
 <text x="-385.35" y="-34.14">
  
 </text>
 <text x="712.7" y="-250.62">
  
 </text>
 <text x="1293.97" y="-330.62">
  
 </text>
 <text x="904.85" y="-803.02">
  
 </text>
 <text x="1486.12" y="-883.02">
  
 </text>
 <text x="-346.69" y="531.69">
  
 </text>
 <text x="-931.86" y="-15.58">
  
 </text>
 <text x="-186.48" y="37.56">
  
 </text>
 <text x="713.13" y="-86.26">
  
 </text>
 <text x="-159.02" y="-138.9">
  
 </text>
 <text x="740.6" y="-262.71">
  
 </text>
 <text x="-3169" y="312.99">
  
 </text>
 <text x="-1240.72" y="77.56">
  
 </text>
 <text x="-495.34" y="130.7">
  
 </text>
 <text x="404.27" y="6.88">
  
 </text>
 <text x="-467.88" y="-45.75">
  
 </text>
 <text x="431.74" y="-169.57">
  
 </text>
 <text x="-3477.86" y="406.13">
  
 </text>
 <text x="-1955.29" y="-39.3">
  
 </text>
 <text x="-1209.91" y="13.84">
  
 </text>
 <text x="-310.3" y="-109.97">
  
 </text>
 <text x="-1182.45" y="-162.61">
  
 </text>
 <text x="-282.83" y="-286.43">
  
 </text>
 <text x="-4192.43" y="289.27">
  
 </text>
 <path d="m256 71.008136c-102.17144 0-184.991864 82.820424-184.991864 184.991864 0 102.17144 82.820424 184.99186 184.991864 184.99186 102.17144 0 184.99186-82.82042 184.99186-184.99186 0-102.17144-82.82042-184.991864-184.99186-184.991864m63.75621 22.033333c21.85731 8.540551 42.33468 21.622191 59.99064 39.278151 14.85795 14.85794 26.51411 31.74578 34.91679 49.74395l-108.09247 62.40214c-2.11236-9.18559-6.75193-17.91694-13.90762-25.07263-7.44744-7.44744-16.59856-12.15471-26.19652-14.13905l53.28918-112.216254m-63.75252 119.688304c23.90197 0 43.26899 19.37319 43.26899 43.269 0 23.90196-19.37318 43.26899-43.26899 43.26899-23.90196 0-43.26899-19.37319-43.26899-43.26899 0-23.90197 19.37318-43.269 43.26899-43.269m0 9.5795c-18.61243 0-33.69565 15.08691-33.69565 33.69565 0 18.61244 15.08691 33.69565 33.69565 33.69565 18.61244 0 33.69565-15.08691 33.69565-33.69565 0-18.61244-15.0869-33.69565-33.69565-33.69565m0 9.9094c13.1358 0 23.78502 10.64922 23.78502 23.78502 0 13.1358-10.64922 23.78502-23.78502 23.78502-13.1358 0-23.78502-10.64922-23.78502-23.78502 0-13.1358 10.64922-23.78502 23.78502-23.78502m-51.03771 35.24792c.39637 1.72214.88138 3.4369 1.45379 5.12088.1908.56133.38406 1.09557.59456 1.65198 1.68521 4.45369 3.98469 8.70303 6.93781 12.65202.36807.49239.73613.97125 1.12266 1.45379 1.1682 1.45256 2.41764 2.84726 3.76557 4.19518 2.32778 2.32779 4.81067 4.38599 7.43513 6.17953.52439.35822 1.05125.72012 1.5855 1.05741 2.14437 1.35285 4.3589 2.52598 6.63991 3.53415 1.1362.50347 2.27362.93678 3.43567 1.35408 1.74307.62657 3.53046 1.18297 5.31907 1.61874.5958.14526 1.1842.27205 1.78369.39638l-53.28918 112.21625c-1.375-.53794-2.73154-1.07834-4.0967-1.65198-1.35531-.56871-2.68723-1.14604-4.03023-1.75045-2.69955-1.21621-5.34739-2.50505-7.994-3.86528-1.30853-.67089-2.60352-1.37501-3.89851-2.08159-.0111-.004-.0246.004-.0332 0-1.30361-.71151-2.57644-1.43287-3.86528-2.18007-2.58506-1.49934-5.14181-3.04914-7.66409-4.69127-1.25683-.8186-2.49274-1.6569-3.72987-2.5112-4.97317-3.4209-9.79738-7.10769-14.46896-11.10345-1.15958-.99094-2.29578-2.01266-3.43567-3.0393-.006-.006-.0271.006-.0332 0-1.14605-1.03156-2.27732-2.07051-3.40244-3.13777-1.12511-1.06726-2.233-2.16653-3.33596-3.27072-5.58003-5.58003-10.69107-11.44074-15.36141-17.54148-.77675-1.01556-1.52765-2.01019-2.27978-3.03929-6.77163-9.25698-12.51662-19.04205-17.246045-29.16933l108.092395-62.40214" fill="#d44e2b" fill-rule="evenodd"/>
</svg>
