<?xml version="1.0" encoding="UTF-8" standalone="no"?>
<svg
   xmlns:dc="http://purl.org/dc/elements/1.1/"
   xmlns:cc="http://creativecommons.org/ns#"
   xmlns:rdf="http://www.w3.org/1999/02/22-rdf-syntax-ns#"
   xmlns:svg="http://www.w3.org/2000/svg"
   xmlns="http://www.w3.org/2000/svg"
   xmlns:sodipodi="http://sodipodi.sourceforge.net/DTD/sodipodi-0.dtd"
   xmlns:inkscape="http://www.inkscape.org/namespaces/inkscape"
   height="512"
   viewBox="0 0 512 512"
   width="512"
   id="svg2"
   version="1.1"
   inkscape:version="0.91 r13725"
   sodipodi:docname="edittrash.svg">
  <metadata
     id="metadata37">
    <rdf:RDF>
      <cc:Work
         rdf:about="">
        <dc:format>image/svg+xml</dc:format>
        <dc:type
           rdf:resource="http://purl.org/dc/dcmitype/StillImage" />
      </cc:Work>
    </rdf:RDF>
  </metadata>
  <defs
     id="defs35" />
  <sodipodi:namedview
     pagecolor="#ffffff"
     bordercolor="#666666"
     borderopacity="1"
     objecttolerance="10"
     gridtolerance="10"
     guidetolerance="10"
     inkscape:pageopacity="0"
     inkscape:pageshadow="2"
     inkscape:window-width="1920"
     inkscape:window-height="1022"
     id="namedview33"
     showgrid="false"
     inkscape:zoom="0.4609375"
     inkscape:cx="256"
     inkscape:cy="256"
     inkscape:window-x="0"
     inkscape:window-y="0"
     inkscape:window-maximized="1"
     inkscape:current-layer="svg2" />
  <linearGradient
     id="a"
     gradientUnits="userSpaceOnUse"
     x2="0"
     y1="33.753"
     y2="471.66">
    <stop
       offset="0"
       stop-color="#6a6a6a"
       id="stop5" />
    <stop
       offset=".47"
       id="stop7" />
    <stop
       offset=".494"
       stop-color="#ffffff"
       id="stop9" />
    <stop
       offset=".901"
       stop-color="#ffffff"
       id="stop11" />
    <stop
       offset=".955"
       id="stop13" />
    <stop
       offset="1"
       id="stop15" />
  </linearGradient>
  <path
     d="m471.95 253.05c0 120.9-98.01 218.91-218.91 218.91-120.9 0-218.91-98.01-218.91-218.91 0-120.9 98.01-218.91 218.91-218.91 120.9 0 218.91 98.01 218.91 218.91"
     fill="#d23638"
     fill-rule="evenodd"
     id="path17" />
  <path
     d="m256 1c-140.83 0-255 114.17-255 255 0 140.83 114.17 255 255 255 140.83 0 255-114.17 255-255 0-140.83-114.17-255-255-255m8.827 44.931c120.9 0 218.9 98 218.9 218.9 0 120.9-98 218.9-218.9 218.9-120.9 0-218.93-98-218.93-218.9 0-120.9 98.03-218.9 218.93-218.9"
     fill-opacity=".067"
     fill-rule="evenodd"
     id="path21" />
  <path
     d="m256 4.43c-138.94 0-251.57 112.63-251.57 251.57 0 138.94 112.63 251.57 251.57 251.57 138.94 0 251.57-112.63 251.57-251.57 0-138.94-112.63-251.57-251.57-251.57m5.885 38.556c120.9 0 218.9 98 218.9 218.9 0 120.9-98 218.9-218.9 218.9-120.9 0-218.93-98-218.93-218.9 0-120.9 98.03-218.9 218.93-218.9"
     fill-opacity=".129"
     fill-rule="evenodd"
     id="path23" />
  <path
     d="m256 8.36c-136.77 0-247.64 110.87-247.64 247.64 0 136.77 110.87 247.64 247.64 247.64 136.77 0 247.64-110.87 247.64-247.64 0-136.77-110.87-247.64-247.64-247.64m2.942 31.691c120.9 0 218.9 98 218.9 218.9 0 120.9-98 218.9-218.9 218.9-120.9 0-218.93-98-218.93-218.9 0-120.9 98.03-218.9 218.93-218.9"
     fill-opacity=".129"
     fill-rule="evenodd"
     id="path25" />
  <path
     d="m253.04 7.86c-135.42 0-245.19 109.78-245.19 245.19 0 135.42 109.78 245.19 245.19 245.19 135.42 0 245.19-109.78 245.19-245.19 0-135.42-109.78-245.19-245.19-245.19zm0 26.297c120.9 0 218.9 98 218.9 218.9 0 120.9-98 218.9-218.9 218.9-120.9 0-218.93-98-218.93-218.9 0-120.9 98.03-218.9 218.93-218.9z"
     fill="#ffffff"
     fill-rule="evenodd"
     stroke="#000000"
     stroke-opacity=".31"
     stroke-width="4.904"
     id="path27" />
  <path
     d="m229.02999 86.19c-6.111 0-11.219 6.642-12.781 15.75v4.531l11.875 11.875h-55.03c-18.793 0-34.544 13.09-39.34 31.06v8.938l18.281 18.281v58.656 4.813 149.38c0 9.546 3.831 18.18 10.06 24.406l55.16 55.16c11.644 1.914 23.596 2.938 35.781 2.938 120.90001 0 218.91001-98.01 218.91001-218.91 0-6.399-.274-12.74-.813-19l-103.91-103.91c-7.331-7.331-17.308-11.813-28.313-11.813h-20l-28.969-28.969c-2.02-2.02-4.41201-3.188-6.969-3.188h-53.938"
     opacity=".25"
     id="path29" />
  <path
     d="m229.02999 86.19c-6.111 0-11.219 6.642-12.781 15.75v4.531h79.5v-4.531c-1.56199-9.108-6.671-15.75-12.781-15.75zm-55.938 32.16c-18.793 0-34.544 13.09-39.34 31.06v8.938h244.50001v-8.938c-4.804-17.978-20.555-31.06-39.34-31.06h-165.81001m-21.06 55.41v61.53 4.813 149.38c0 19.09 15.375 34.469 34.469 34.469h138.97001c19.09 0 34.469-15.375 34.469-34.469v-149.37-4.813-61.53h-207.91001"
     fill="#ffffff"
     id="path31" />
</svg>
