<?xml version="1.0" encoding="UTF-8" standalone="no"?>
<svg xmlns="http://www.w3.org/2000/svg" height="512" width="512" version="1.1" viewBox="0 0 512 512">
 <text font-size="129.23" line-height="125%" y="369.84" x="1296.56" font-family="Gentium Book Basic" word-spacing="0" letter-spacing="0">
  
 </text>
 <text font-size="129.23" line-height="125%" y="289.84" x="1877.82" font-family="Gentium Book Basic" word-spacing="0" letter-spacing="0">
  
 </text>
 <text font-size="129.23" line-height="125%" y="108.58" x="806.25" font-family="Gentium Book Basic" word-spacing="0" letter-spacing="0">
  
 </text>
 <text font-size="129.23" line-height="125%" y="-107.89" x="1904.3" font-family="Gentium Book Basic" word-spacing="0" letter-spacing="0">
  
 </text>
 <text font-size="129.23" line-height="125%" y="-187.9" x="2485.56" font-family="Gentium Book Basic" word-spacing="0" letter-spacing="0">
  
 </text>
 <text font-size="129.23" line-height="125%" y="-660.3" x="2096.44" font-family="Gentium Book Basic" word-spacing="0" letter-spacing="0">
  
 </text>
 <text font-size="129.23" line-height="125%" y="-740.3" x="2677.71" font-family="Gentium Book Basic" word-spacing="0" letter-spacing="0">
  
 </text>
 <text font-size="208.33" line-height="125%" y="674.42" x="844.9" font-family="Gentium Book Basic" word-spacing="0" letter-spacing="0">
  
 </text>
 <path fill="#889FA7" d="m471.95 253.05c0 120.9-98.01 218.9-218.9 218.9-120.9 0-218.9-98.01-218.9-218.9 0-120.9 98.01-218.9 218.9-218.9 120.9 0 218.9 98.01 218.9 218.9" fill-rule="evenodd"/>
 <path d="m331.54 122.13c-8.987 0.103-18.14 0.972-26.793 0.265h-140.13c-21.06-1.067-37.27 19.32-33.69 39.526v139.44c4.765 2.928 7.389 7.997 12.136 10.943 1.684 4.366-18.535-3.082-12.136 10.05 0.306 20.363-3.654 44.777 14.69 59.02 33.696 33.575 67.3 67.24 100.91 100.91 1.104 0.015 2.209 0.033 3.316 0.033 128.28 0 232.25-103.96 232.25-232.25 0-0.543-0.029-1.083-0.033-1.625-39.34-39.37-78.66-78.74-118.11-117.98-9.553-7.321-20.842-8.455-32.397-8.323" fill-opacity=".235"/>
 <g fill-rule="evenodd">
  <path d="m256 1c-140.83 0-255 114.17-255 255s114.17 255 255 255 255-114.17 255-255-114.17-255-255-255m8.827 44.931c120.9 0 218.9 98 218.9 218.9s-98 218.9-218.9 218.9-218.93-98-218.93-218.9 98.03-218.9 218.93-218.9" fill-opacity=".067"/>
  <g fill-opacity=".129">
   <path d="m256 4.433c-138.94 0-251.57 112.63-251.57 251.57s112.63 251.57 251.57 251.57 251.57-112.63 251.57-251.57-112.63-251.57-251.57-251.57m5.885 38.556c120.9 0 218.9 98 218.9 218.9s-98 218.9-218.9 218.9-218.93-98-218.93-218.9 98.03-218.9 218.93-218.9"/>
   <path d="m256 8.356c-136.77 0-247.64 110.87-247.64 247.64s110.87 247.64 247.64 247.64 247.64-110.87 247.64-247.64-110.87-247.64-247.64-247.64m2.942 31.691c120.9 0 218.9 98 218.9 218.9s-98 218.9-218.9 218.9-218.93-98-218.93-218.9 98.03-218.9 218.93-218.9"/>
  </g>
  <path d="m253.04 7.859c-135.42 0-245.19 109.78-245.19 245.19 0 135.42 109.78 245.19 245.19 245.19 135.42 0 245.19-109.78 245.19-245.19 0-135.42-109.78-245.19-245.19-245.19zm0 26.297c120.9 0 218.9 98 218.9 218.9s-98 218.9-218.9 218.9-218.93-98-218.93-218.9 98.03-218.9 218.93-218.9z" stroke-opacity=".31" stroke="#000" stroke-width="4.904" fill="#fff"/>
 </g>
 <text font-size="129.23" line-height="125%" y="231.36" x="729.64" font-family="Gentium Book Basic" word-spacing="0" letter-spacing="0">
  
 </text>
 <text font-size="129.23" line-height="125%" y="151.36" x="1310.91" font-family="Gentium Book Basic" word-spacing="0" letter-spacing="0">
  
 </text>
 <text font-size="129.23" line-height="125%" y="-29.9" x="239.33" font-family="Gentium Book Basic" word-spacing="0" letter-spacing="0">
  
 </text>
 <text font-size="129.23" line-height="125%" y="-246.37" x="1337.38" font-family="Gentium Book Basic" word-spacing="0" letter-spacing="0">
  
 </text>
 <text font-size="129.23" line-height="125%" y="-326.38" x="1918.65" font-family="Gentium Book Basic" word-spacing="0" letter-spacing="0">
  
 </text>
 <text font-size="129.23" line-height="125%" y="-798.78" x="1529.53" font-family="Gentium Book Basic" word-spacing="0" letter-spacing="0">
  
 </text>
 <text font-size="129.23" line-height="125%" y="-878.78" x="2110.79" font-family="Gentium Book Basic" word-spacing="0" letter-spacing="0">
  
 </text>
 <g font-family="Gentium Book Basic" line-height="125%" word-spacing="0" letter-spacing="0">
  <text y="535.94" x="277.99" font-size="208.33">
   
  </text>
  <text y="1125.07" x="-27646.87" font-size="4848.2">
   
  </text>
 </g>
 <text font-size="4848.2" line-height="125%" y="2037.09" x="-27781.61" font-family="Gentium Book Basic" word-spacing="0" letter-spacing="0">
  
 </text>
 <g fill="#889FA7" transform="matrix(23.272 0 0 23.272 -520.02 -260.06)">
  <text transform="scale(1.0508 .95163)" line-height="125%" font-size="127.88" y="-204.06" x="-549.96" font-family="Gentium Book Basic" word-spacing="0" letter-spacing="0">
   
  </text>
  <text transform="scale(1.0508 .95163)" line-height="125%" font-size="68.46" y="-239.51" x="-145.93" font-family="Gentium Book Basic" word-spacing="0" letter-spacing="0">
   
  </text>
  <text font-size="200" line-height="125%" y="-74.27" x="-1695.66" font-family="Gentium Book Basic" word-spacing="0" letter-spacing="0">
   
  </text>
 </g>
 <g transform="matrix(23.272 0 0 23.272 -520.02 -260.06)">
  <g>
   <text font-size="208.33" line-height="125%" stroke="#cd1d31" y="-599.63" x="-1086.23" font-family="Gentium Book Basic" word-spacing="0" letter-spacing="0">
    
   </text>
   <text font-size="208.33" line-height="125%" stroke="#cd1d31" y="-560.44" x="-1092.03" font-family="Gentium Book Basic" word-spacing="0" letter-spacing="0">
    
   </text>
  </g>
  <g fill="#889FA7">
   <g stroke="#cd1d31">
    <text transform="scale(1.0508 .95163)" line-height="125%" font-size="127.88" y="-896.71" x="-474.37" font-family="Gentium Book Basic" word-spacing="0" letter-spacing="0">
     
    </text>
    <text transform="scale(1.0508 .95163)" line-height="125%" font-size="68.46" y="-932.16" x="-70.35" font-family="Gentium Book Basic" word-spacing="0" letter-spacing="0">
     
    </text>
    <text font-size="200" line-height="125%" y="-733.42" x="-1616.23" font-family="Gentium Book Basic" word-spacing="0" letter-spacing="0">
     
    </text>
   </g>
  </g>
  <g>
   <text font-size="200" line-height="125%" stroke="#cd1d31" y="-887.07" x="-356.8" font-family="Gentium Book Basic" word-spacing="0" letter-spacing="0">
    
   </text>
   <text font-size="200" line-height="125%" stroke="#cd1d31" y="-1010.89" x="542.82" font-family="Gentium Book Basic" word-spacing="0" letter-spacing="0">
    
   </text>
  </g>
 </g>
 <text font-size="129.23" line-height="125%" y="33.97" x="188.67" font-family="Gentium Book Basic" word-spacing="0" letter-spacing="0">
  
 </text>
 <text font-size="129.23" line-height="125%" y="-46.03" x="769.94" font-family="Gentium Book Basic" word-spacing="0" letter-spacing="0">
  
 </text>
 <text font-size="129.23" line-height="125%" y="-227.29" x="-301.64" font-family="Gentium Book Basic" word-spacing="0" letter-spacing="0">
  
 </text>
 <text font-size="129.23" line-height="125%" y="-443.76" x="796.41" font-family="Gentium Book Basic" word-spacing="0" letter-spacing="0">
  
 </text>
 <text font-size="129.23" line-height="125%" y="-523.77" x="1377.68" font-family="Gentium Book Basic" word-spacing="0" letter-spacing="0">
  
 </text>
 <text font-size="129.23" line-height="125%" y="-996.17" x="988.56" font-family="Gentium Book Basic" word-spacing="0" letter-spacing="0">
  
 </text>
 <text font-size="129.23" line-height="125%" y="-1076.17" x="1569.82" font-family="Gentium Book Basic" word-spacing="0" letter-spacing="0">
  
 </text>
 <g transform="translate(-540.97,-197.39)" font-size="208.33" font-family="Gentium Book Basic" line-height="125%" word-spacing="0" letter-spacing="0">
  <text y="535.94" x="277.99">
   
  </text>
  <text y="11.55" x="-860.84">
   
  </text>
  <text y="289.67" x="-3219.67">
   
  </text>
  <text y="62.38" x="-2931.46">
   
  </text>
  <text y="-194.52" x="1263.14">
   
  </text>
  <text y="-49.48" x="-864.79">
   
  </text>
  <text y="228.64" x="-3223.62">
   
  </text>
  <text y="1.35" x="-2935.41">
   
  </text>
 </g>
 <path d="m164.61 122.39c-18.656 0-33.69 13.874-33.69 31.1v147.86h244.06v-147.86c0-17.229-15.03-31.1-33.69-31.1h-176.68m-33.69 191.53v36.811h0.033c0.676 18.569 11.897 33.23 25.732 33.23h89.86v-70.03h-115.62m128.43 0v70.03h89.86c13.835 0 25.06-14.657 25.732-33.23h0.033v-36.81h-115.62" fill="#fff"/>
</svg>
