<?xml version="1.0" encoding="UTF-8" standalone="no"?>
<svg xmlns="http://www.w3.org/2000/svg" height="512" viewBox="0 0 512 512" width="512" version="1.1">
 <path d="m471.95 253.05c0 120.9-98.01 218.91-218.91 218.91-120.9 0-218.91-98.01-218.91-218.91 0-120.9 98.01-218.91 218.91-218.91 120.9 0 218.91 98.01 218.91 218.91" fill="#1793d1" fill-rule="evenodd"/>
 <path d="m256 1c-140.83 0-255 114.17-255 255 0 140.83 114.17 255 255 255 140.83 0 255-114.17 255-255 0-140.83-114.17-255-255-255m8.827 44.931c120.9 0 218.9 98 218.9 218.9 0 120.9-98 218.9-218.9 218.9-120.9 0-218.93-98-218.93-218.9 0-120.9 98.03-218.9 218.93-218.9" fill-opacity=".067" fill-rule="evenodd"/>
 <path d="m256 4.43c-138.94 0-251.57 112.63-251.57 251.57 0 138.94 112.63 251.57 251.57 251.57 138.94 0 251.57-112.63 251.57-251.57 0-138.94-112.63-251.57-251.57-251.57m5.885 38.556c120.9 0 218.9 98 218.9 218.9 0 120.9-98 218.9-218.9 218.9-120.9 0-218.93-98-218.93-218.9 0-120.9 98.03-218.9 218.93-218.9" fill-opacity=".129" fill-rule="evenodd"/>
 <path d="m256 8.36c-136.77 0-247.64 110.87-247.64 247.64 0 136.77 110.87 247.64 247.64 247.64 136.77 0 247.64-110.87 247.64-247.64 0-136.77-110.87-247.64-247.64-247.64m2.942 31.691c120.9 0 218.9 98 218.9 218.9 0 120.9-98 218.9-218.9 218.9-120.9 0-218.93-98-218.93-218.9 0-120.9 98.03-218.9 218.93-218.9" fill-opacity=".129" fill-rule="evenodd"/>
 <path d="m253.04 7.86c-135.42 0-245.19 109.78-245.19 245.19 0 135.42 109.78 245.19 245.19 245.19 135.42 0 245.19-109.78 245.19-245.19 0-135.42-109.78-245.19-245.19-245.19zm0 26.297c120.9 0 218.9 98 218.9 218.9 0 120.9-98 218.9-218.9 218.9-120.9 0-218.93-98-218.93-218.9 0-120.9 98.03-218.9 218.93-218.9z" fill="#ffffff" fill-rule="evenodd" stroke="#000000" stroke-opacity=".31" stroke-width="4.904"/>
 <path d="m156.81 123.38c-7.43 0-13.469 6-13.469 13.438v188.38c0 3.923 1.696 7.421 4.375 9.875.342.386.71.749 1.094 1.094.313.346.652.688 1 1 .319.352.646.683 1 1 .339.375.684.728 1.063 1.063.271.295.548.574.844.844.307.345.628.657.969.969.342.386.71.749 1.094 1.094.313.346.652.688 1 1 .313.346.652.688 1 1 .339.375.684.728 1.063 1.063.271.295.548.574.844.844.307.345.628.657.969.969.313.353.652.681 1 1 .342.386.71.749 1.094 1.094.313.346.652.688 1 1 .319.352.646.683 1 1 .314.347.621.688.969 1 .284.314.594.589.906.875.313.353.652.681 1 1 .342.386.71.749 1.094 1.094.313.346.652.688 1 1 .319.352.646.683 1 1 .339.375.684.728 1.063 1.063.291.317.586.618.906.906.181.201.338.404.531.594.149.151.312.294.469.438.208.23.433.441.656.656.09.09.188.162.281.25.331.37.693.731 1.063 1.063.313.346.652.688 1 1 .339.375.684.728 1.063 1.063.271.295.548.574.844.844.307.345.628.657.969.969.342.386.71.749 1.094 1.094.313.346.652.688 1 1 .313.346.652.688 1 1 .319.352.646.683 1 1 .314.347.621.688.969 1 .284.314.594.589.906.875.313.353.652.681 1 1 .342.386.71.749 1.094 1.094.313.346.652.688 1 1 .319.352.646.683 1 1 .339.375.684.728 1.063 1.063.271.295.548.574.844.844.307.345.628.657.969.969.342.386.71.749 1.094 1.094.313.346.652.688 1 1 .319.352.646.683 1 1 .339.375.684.728 1.063 1.063.321.35.644.686 1 1 .172.188.317.385.5.563.149.153.313.292.469.438.229.25.471.487.719.719.069.069.148.12.219.188.274.303.574.598.875.875.309.35.657.683 1 1 .373.423.765.814 1.188 1.188.271.295.548.574.844.844.307.345.628.657.969.969.342.386.71.749 1.094 1.094.313.346.652.688 1 1 .313.346.652.688 1 1 .319.352.646.683 1 1 .314.347.621.688.969 1 .284.314.594.589.906.875.313.353.652.681 1 1 .342.386.71.749 1.094 1.094.313.346.652.688 1 1 .319.352.646.683 1 1 .339.375.684.728 1.063 1.063.271.295.548.574.844.844.307.345.628.657.969.969.342.386.71.749 1.094 1.094.313.346.652.688 1 1 .313.346.652.688 1 1 .339.375.684.728 1.063 1.063.271.295.548.574.844.844.307.345.628.657.969.969.342.386.71.749 1.094 1.094.313.346.652.688 1 1 .313.346.652.688 1 1 .319.352.646.683 1 1 .314.347.621.688.969 1 .284.314.594.589.906.875.313.353.652.681 1 1 .342.386.71.749 1.094 1.094.313.346.652.688 1 1 .319.352.646.683 1 1 .314.347.621.688.969 1 .314.347.652.656 1 .969.289.321.588.615.906.906.342.386.71.749 1.094 1.094.313.346.652.688 1 1 .319.352.646.683 1 1 .339.375.684.728 1.063 1.063.271.295.548.574.844.844.307.345.628.657.969.969.342.386.71.749 1.094 1.094.313.346.652.688 1 1 .313.346.652.688 1 1 .339.375.684.728 1.063 1.063.271.295.548.574.844.844.307.345.628.657.969.969.342.386.71.749 1.094 1.094.313.346.652.688 1 1 .313.346.652.688 1 1 .319.352.646.683 1 1 .314.347.621.688.969 1 .284.314.594.589.906.875.313.353.652.681 1 1 .342.386.71.749 1.094 1.094.313.346.652.688 1 1 .319.352.646.683 1 1 .339.375.684.728 1.063 1.063.271.295.548.574.844.844.307.345.628.657.969.969.342.386.71.749 1.094 1.094.313.346.652.688 1 1 .346.382.706.753 1.094 1.094.313.339.623.663.969.969.271.295.548.574.844.844.307.345.628.657.969.969.342.386.71.749 1.094 1.094.313.346.652.688 1 1 .313.346.652.688 1 1 .319.352.646.683 1 1 .314.347.621.688.969 1 .284.314.594.589.906.875.313.353.652.681 1 1 .342.386.71.749 1.094 1.094.313.346.652.688 1 1 .319.352.646.683 1 1 .314.347.621.688.969 1 .284.314.594.589.906.875.313.353.652.681 1 1 .342.386.71.749 1.094 1.094.313.346.652.688 1 1 .319.352.646.683 1 1 .15.165.315.312.469.469 86.02-11.618 156.18-73.19 180.31-154.56h-.094-.031l-.063-.063c-.002-.002-.246-.245-.313-.313-.043-.043-.116-.115-.156-.156-.027-.028-.132-.163-.156-.188l-.031-.031v-.094-.031h-.094-.031v-.125h-.125l-.688-.688c-.008-.008-.024-.024-.031-.031v-.125h-.125v-.125h-.125c-.063-.064-.159-.127-.219-.188-.097-.098-.398-.428-.469-.5l-.031-.031c-.008-.008-.024-.024-.031-.031v-.125h-.125v-.125h-.125l-.719-.719-.031-.031v-.094-.031h-.094-.031v-.125h-.125l-.719-.688c-.004-.004.004-.027 0-.031l-.031-.031v-.094-.031h-.094-.031v-.125h-.125l-.656-.625c-.007-.007-.024-.024-.031-.031-.002-.002.002-.029 0-.031-.008-.008-.024-.024-.031-.031l-.031-.031v-.094-.031h-.094-.031v-.125h-.125l-.719-.719-.031-.031v-.094-.031h-.094-.031v-.125h-.125c-.034-.034-.092-.061-.125-.094-.162-.164-.22-.218-.375-.375-.001-.001-.115-.115-.125-.125-.012-.012-.019-.05-.031-.063-.005-.005-.027-.027-.031-.031-.008-.008-.024-.024-.031-.031v-.125h-.125v-.125h-.125c-.062-.063-.717-.717-.719-.719-.008-.008-.024-.024-.031-.031v-.094-.031h-.094-.031v-.125h-.125c-.122-.123-.262-.229-.375-.344-.001-.001-.088-.088-.094-.094-.016-.016-.079-.079-.094-.094-.001-.001.001-.031 0-.031l-.031-.031c-.057-.057-.071-.071-.125-.125l-.031-.031v-.094-.031h-.094c-.004-.004-.027.004-.031 0v-.125h-.125c-.192-.194-.57-.568-.719-.719l-.031-.031v-.094-.031h-.094c-.003-.003-.028.003-.031 0v-.125h-.125c-.037-.037-.186-.154-.219-.188-.001-.001-.088-.088-.094-.094-.027-.027-.1-.131-.125-.156-.002-.002-.03-.03-.031-.031-.01-.01-.055-.055-.063-.063-.085-.086-.109-.108-.188-.188l-.031-.031v-.094-.031h-.094c-.002-.002-.03.002-.031 0v-.125h-.125c-.059-.06-.717-.717-.719-.719l-.031-.031v-.094-.031h-.094-.031v-.125h-.125c-.004-.004-.059-.028-.063-.031-.166-.168-.285-.283-.438-.438-.029-.03-.066-.096-.094-.125-.019-.019-.108-.107-.125-.125l-.031-.031v-.094-.031h-.094v-.094h-.125l-.719-.719c-.008-.008-.024-.024-.031-.031v-.094-.031h-.094-.031v-.125h-.125-.031c-.048-.048-.176-.175-.219-.219-.006-.007-.057-.088-.063-.094-.086-.087-.399-.399-.406-.406l-.031-.031v-.094-.031h-.094c-.003-.003-.028.003-.031 0v-.125h-.125c-.123-.124-.644-.643-.719-.719l-.031-.031v-.094-.031h-.094-.031v-.125h-.125l-.125-.125-.063-.063c-.047-.048-.154-.154-.188-.188l-.344-.344-.031-.031v-.094-.031h-.094c-.003-.003-.028.003-.031 0v-.125h-.125c-.12-.121-.646-.645-.719-.719l-.031-.031v-.094-.031h-.094c-.001-.001-.03.001-.031 0v-.125h-.125c-.054-.054-.718-.718-.719-.719l-.031-.031v-.094-.031h-.094c-.001-.001-.03.001-.031 0v-.125h-.125c-.049-.049-.686-.686-.688-.688-.008-.008-.024-.024-.031-.031v-.094-.031h-.094c-.005-.005-.026.005-.031 0v-.125h-.125c-.216-.218-.708-.708-.719-.719-.008-.008-.024-.024-.031-.031v-.094-.031h-.094-.031v-.125h-.125l-.719-.719-.031-.031v-.094-.031h-.094-.031v-.125h-.125l-.719-.719-.031-.031v-.094-.031h-.094c-.005-.005-.026.005-.031 0v-.125h-.125c-.204-.207-.709-.708-.719-.719l-.031-.031v-.094-.031h-.094c-.005-.005-.026.005-.031 0v-.125h-.125c-.202-.205-.709-.709-.719-.719l-.031-.031v-.063-.063h-.063-.063v-.125h-.125c-.185-.188-.678-.678-.688-.688-.008-.008-.024-.024-.031-.031v-.094-.031h-.094c-.001-.001-.03.001-.031 0v-.125h-.125c-.049-.05-.718-.718-.719-.719-.008-.008-.024-.024-.031-.031v-.094-.031h-.094c-.001-.001-.03.001-.031 0v-.125h-.125c-.048-.049-.718-.718-.719-.719l-.031-.031v-.094-.031h-.094c-.001-.001-.03.001-.031 0v-.125h-.125c-.048-.048-.718-.718-.719-.719l-.031-.031v-.094-.031h-.094c-.001-.001-.03.001-.031 0v-.125h-.125c-.047-.048-.718-.718-.719-.719l-.031-.031v-.094-.031h-.094-.031v-.125h-.125l-.719-.719-.031-.031v-.063-.063h-.063-.063v-.125h-.125l-.719-.719v-.094-.031h-.094-.031v-.125h-.125l-.719-.719c-.008-.008-.024-.024-.031-.031v-.094-.031h-.094-.031v-.125h-.125l-.719-.719-.031-.031v-.094-.031h-.094c-.005-.005-.026.005-.031 0v-.125h-.125c-.229-.231-.518-.515-.719-.719l-.031-.031v-.094-.031h-.094c-.004-.004-.027.004-.031 0v-.125h-.125c-.19-.192-.56-.559-.719-.719l-.031-.031v-.063-.063h-.063-.063v-.125h-.125c-.145-.147-.608-.607-.719-.719l-.031-.031v-.063-.063h-.063-.063v-.125h-.125c-.096-.097-.661-.661-.719-.719l-.031-.031v-.063-.063h-.063-.063v-.125h-.125c-.04-.04-.687-.687-.688-.688-.008-.008-.024-.024-.031-.031v-.094-.031h-.094-.031v-.125h-.125l-.719-.719-.031-.031v-.094-.031h-.094-.031v-.125h-.125l-.719-.719-.031-.031v-.094-.031h-.094-.031v-.125h-.125l-.719-.719-.031-.031v-.063-.063h-.063-.063v-.125h-.125c-.246-.249-.496-.493-.719-.719l-.031-.031v-.063-.063h-.063-.063v-.125h-.125c-.213-.216-.532-.53-.719-.719l-.031-.031v-.063-.063h-.063-.063v-.125h-.125c-.168-.17-.546-.544-.688-.688l-.031-.031v-.094-.031h-.094c-.003-.003-.028.003-.031 0v-.125h-.125c-.136-.137-.616-.614-.719-.719l-.031-.031v-.094-.031h-.094c-.002-.002-.029.002-.031 0v-.125h-.125c-.09-.091-.665-.664-.719-.719l-.031-.031v-.063-.063h-.063-.063v-.125h-.125c-.04-.04-.718-.718-.719-.719l-.031-.031v-.063-.063h-.063-.063v-.125h-.125c-.039-.04-.718-.718-.719-.719l-.031-.031v-.063-.063h-.063-.063v-.125h-.125l-.719-.719-.031-.031v-.063-.063h-.063-.063v-.125h-.125l-.688-.688c-.008-.008-.024-.024-.031-.031v-.094-.031h-.094-.031v-.125h-.125l-.719-.719c-.008-.008-.024-.024-.031-.031v-.094-.031h-.094-.031v-.125h-.125l-.719-.719-.031-.031v-.063-.063h-.063-.063v-.125h-.125l-.719-.719-.031-.031v-.063-.063h-.063-.063v-.125h-.125l-.719-.719-.031-.031v-.063-.063h-.063-.063v-.125h-.125c-.273-.277-.534-.532-.719-.719l-.031-.031v-.063-.063h-.063-.063v-.125h-.125c-.269-.272-.54-.538-.719-.719l-.031-.031v-.063-.063h-.063-.031v-.094h-.125l-.719-.719-.031-.031v-.094-.031h-.094-.031v-.125h-.125l-.719-.719-.031-.031v-.063-.063h-.063-.063v-.125h-.125l-.719-.719-.031-.031v-.063-.063h-.063-.063v-.125h-.125l-.719-.719-.031-.031v-.063-.063h-.063-.063v-.125h-.125l-.719-.719-.031-.031v-.063-.063h-.063-.063v-.125h-.125l-.719-.719-.031-.031v-.063-.063h-.063-.063v-.125h-.125l-.688-.688c-.008-.008-.024-.024-.031-.031v-.063-.063h-.063-.063v-.125h-.125c-.132-.133-.713-.713-.719-.719-.008-.008-.024-.024-.031-.031v-.063-.063h-.063-.063v-.125h-.125c-.13-.131-.713-.713-.719-.719l-.031-.031v-.063-.063h-.063-.063v-.125h-.125c-.129-.131-.713-.713-.719-.719l-.031-.031v-.063-.063h-.063-.063v-.125h-.125l-.719-.719-.031-.031v-.063-.063h-.063-.063v-.125h-.125l-.719-.719-.031-.031v-.063-.063h-.063-.063v-.125h-.125l-.688-.688-.031-.031v-.063-.063h-.063-.063v-.125h-.125l-.719-.719-.031-.031v-.063-.063h-.063-.063v-.125h-.125l-.719-.719-.031-.031v-.063-.063h-.063-.063v-.125h-.125l-.719-.719-.031-.031v-.063-.063h-.063-.063v-.125h-.125l-.719-.719-.031-.031v-.063-.063h-.063-.063v-.125h-.125l-.719-.719-.031-.031v-.031-.094h-.031-.094v-.125h-.125l-.719-.719v-.063-.063h-.063-.063v-.125h-.125l-.719-.719c-.008-.008-.024-.024-.031-.031v-.063-.063h-.063-.063v-.125h-.125l-.719-.719-.031-.031v-.063-.063h-.063-.063v-.125h-.125l-.719-.719-.031-.031v-.063-.063h-.063-.063v-.125h-.125l-.719-.719-.031-.031v-.063-.063h-.063-.063v-.125h-.125l-.719-.719-.031-.031v-.031-.094h-.031-.094v-.125h-.125l-.719-.719-.031-.031v-.031-.094h-.031-.094v-.125h-.125l-.688-.688c-.008-.008-.024-.024-.031-.031v-.063-.063h-.063-.063v-.125h-.125l-.719-.719-.031-.031v-.063-.063h-.063-.063v-.125h-.125l-.719-.719-.031-.031v-.063-.063h-.063-.063v-.125h-.125l-.719-.719-.031-.031v-.063-.063h-.063-.063v-.125h-.125l-.719-.719-.031-.031v-.031-.094h-.031-.094v-.125h-.125l-.719-.719-.031-.031v-.031-.094h-.031-.094v-.125h-.125l-.688-.688c-.008-.008-.024-.024-.031-.031v-.063-.063h-.063-.063v-.125h-.125l-.719-.719c-.008-.008-.024-.024-.031-.031v-.063-.063h-.063-.063v-.125h-.125l-.719-.719-.031-.031v-.063-.063h-.063-.063v-.125h-.125l-.719-.719-.031-.031v-.031-.094h-.031-.063-.031v-.125h-.125l-.75-.75v-.031-.094h-.031-.063-.031v-.125h-.125l-.75-.75v-.031-.094h-.031-.063-.031v-.125h-.125l-.719-.719v-.031-.031-.063h-.063-.063v-.125h-.125l-.719-.75h-.031v-.031-.031-.063h-.063-.063v-.125h-.125l-.75-.75v-.031-.031-.063h-.063-.063v-.125h-.125l-.75-.75v-.031-.094h-.031-.063-.031v-.125h-.125l-.719-.75h-.031v-.031-.094h-.031-.063-.031v-.125h-.125l-.719-.75h-.031v-.031-.094h-.031-.063-.031v-.125h-.125l-.75-.75v-.031-.094h-.031-.063v-.094h-.125l-.75-.75v-.031-.031-.063h-.063-.063v-.125h-.125l-.75-.75v-.031-.094h-.031-.063-.031v-.125h-.125l-.719-.75h-.031v-.031-.094h-.031-.063-.031v-.125h-.125l-.719-.75h-.031v-.031-.094h-.031-.063-.031v-.125h-.125l-.719-.75h-.031v-.031-.094h-.031-.063-.031v-.125h-.125l-.719-.75h-.031v-.031-.094h-.031-.063-.031v-.125h-.125l-.688-.719h-.031v-.031-.031-.063h-.063-.063v-.125h-.125l-.719-.75h-.031v-.031-.094h-.031-.063-.031v-.125h-.125l-.719-.75h-.031v-.031-.094h-.031-.063-.031v-.125h-.125l-.75-.75v-.031-.094h-.031-.063-.031v-.125h-.125l-.75-.75v-.031-.094h-.031-.063-.031v-.125h-.125l-.719-.75h-.031v-.031-.094h-.031-.063-.031v-.125h-.125l-.719-.719v-.031-.031-.063h-.063-.063v-.125h-.125l-.75-.75v-.031-.094h-.031-.063-.031v-.125h-.125l-.75-.75v-.031-.094h-.031-.063-.031v-.125h-.125l-.719-.75h-.031v-.031-.094h-.031-.063-.031v-.125h-.125l-.719-.75h-.031v-.031-.094h-.031-.063-.031v-.125h-.125l-.75-.75v-.031-.094h-.031-.063-.031v-.125h-.125l-.719-.719v-.031-.094h-.031-.063-.031v-.125h-.125l-.75-.75v-.031-.094h-.031-.063-.031v-.125h-.125l-.75-.75v-.031-.094h-.031-.063-.031v-.125h-.125l-.75-.75v-.031-.094h-.031-.063-.031v-.125h-.125l-.75-.75v-.031-.094h-.031-.063-.031v-.125h-.125l-.75-.75v-.031-.094h-.031-.063-.031v-.125h-.125l-.719-.75h-.031v-.125h-.094-.031v-.125h-.125l-.688-.719h-.031v-.031-.094h-.031-.063-.031v-.125h-.125l-.719-.75h-.031v-.031-.094h-.031-.063-.031v-.125h-.125l-.719-.75h-.031v-.031-.094h-.031-.063-.031v-.125h-.125l-.719-.75h-.031v-.031-.094h-.031-.063-.031v-.125h-.125l-.719-.75h-.031v-.125h-.094-.031v-.125h-.125l-.75-.75v-.125h-.094-.031v-.125h-.125l-.688-.719h-.031v-.031-.094h-.031-.063-.031v-.125h-.125l-.75-.75v-.031-.094h-.031-.063-.031v-.125h-.125l-.719-.75h-.031v-.031-.094h-.031-.063-.031v-.125h-.125l-.75-.75v-.031-.094h-.031-.063-.031v-.125h-.125l-.75-.75v-.125h-.094-.031v-.125h-.125l-.75-.75v-.125h-.094-.031v-.125h-.125l-.688-.719h-.031v-.031-.094h-.031-.063-.031v-.125h-.125l-.75-.75v-.031-.094h-.031-.063-.031v-.125h-.125l-.719-.75h-.031v-.031-.094h-.031-.063-.031v-.125h-.125l-.719-.719-.031-.031v-.125h-.125v-.125h-.125l-.75-.75v-.125h-.125v-.125h-.125l-.75-.75v-.125h-.125v-.125h-.125l-.75-.75v-.125h-.094v-.094h-.125l-.75-.75v-.031-.094h-.031-.094v-.125h-.125l-.75-.75v-.031-.094h-.031-.094v-.125h-.125l-.75-.75v-.125h-.125v-.125h-.125l-.75-.75v-.125h-.125v-.125h-.125l-.75-.75v-.125h-.125v-.125h-.125l-.75-.75v-.125h-.125v-.125h-.125l-.719-.719v-.031-.094h-.031-.094v-.125h-.125l-.75-.75v-.031-.094h-.031-.094v-.125h-.125l-.75-.75v-.125h-.125v-.125h-.125l-.156-.125-.563-.594-.031-.031v-.125h-.125v-.125h-.125l-.75-.75v-.125h-.125v-.125h-.125l-.75-.75v-.125h-.125v-.125h-.125l-.719-.719v-.031-.094h-.031-.094v-.125h-.125l-.75-.75v-.125h-.125v-.125h-.125l-.75-.75v-.125h-.125v-.125h-.125l-.75-.75v-.125h-.125v-.125h-.125l-.75-.75v-.125h-.125v-.125h-.125l-.75-.75v-.125h-.125v-.125h-.125l-.719-.719v-.031-.094h-.031-.094v-.125h-.125l-.75-.75v-.125h-.125v-.125h-.125l-.75-.75v-.125h-.125v-.125h-.125l-.75-.75v-.125h-.125v-.125h-.125l-.875-.875v-.125h-.125l-.875-.875v-.125h-.125l-.875-.875v-.125h-.125l-.844-.844v-.125h-.125l-.875-.875v-.125h-.125l-.875-.875v-.125h-.125l-.875-.875v-.125h-.125l-.875-.875v-.125h-.125l-.875-.875v-.125h-.125l-.844-.844v-.125h-.125l-.875-.875v-.125h-.125l-.875-.875v-.125h-.125l-.875-.875v-.125h-.125l-.875-.875v-.125h-.125l-.875-.875v-.125h-.125l-.844-.844v-.125h-.125l-.875-.875v-.125h-.125l-.875-.875v-.125h-.125l-.875-.875v-.125h-.125l-.875-.875v-.125h-.125l-.875-.875v-.125h-.125l-.844-.844v-.125h-.125l-.875-.875v-.125h-.125l-.875-.875v-.125h-.125l-.875-.875v-.125h-.125-13.656-65.875-34.469" fill-opacity=".235"/>
 <path d="m181.82 148.37c-7.43 0-13.469 6-13.469 13.438v188.38c0 7.437 6.04 13.438 13.469 13.438h1.531v-186.81c0-7.437 6.04-13.438 13.469-13.438h34.469 65.875 13.469l-14.688-14.875v-.125h-.125-13.656-65.875-34.469" fill="#ffffff"/>
 <path d="m320.83405 221.76253v-48.39157l47.81849 48.39157z" fill="#ffffff"/>
 <path d="m368.65254 375.1761c0 7.43656-6.01734 13.4539-13.4539 13.4539h-148.39406c-7.42982 0-13.4539-6.01734-13.4539-13.4539v-188.35798c0-7.43656 6.02408-13.4539 13.4539-13.4539h100.3396v56.84113c0 3.71828 3.00867 6.72695 6.72695 6.72695h54.77972v138.24717m-155.06876-20.26007h67.4212v-15.16977h-67.4212zm0-42.13825h67.4212v-15.16977h-67.4212zm67.4212-99.44627h-67.4212v15.16977h67.4212zm64.05014 42.13825h-131.47134v15.16977h131.47134zm0 42.13825h-42.13825v57.30802h42.13825z" fill="#ffffff"/>
 <path d="m156.82 123.37c-7.43 0-13.469 6-13.469 13.438v188.38c0 7.437 6.04 13.438 13.469 13.438h1.531v-186.81c0-7.437 6.04-13.438 13.469-13.438h34.469 65.875 13.469l-14.688-14.875v-.125h-.125-13.656-65.875-34.469" fill="#ffffff"/>
</svg>
