<svg height="512" viewBox="0 0 512 512" width="512" xmlns="http://www.w3.org/2000/svg">
 <path d="m108.62333 57.3655c-7.963 0-15.223 2.323-20.688 6.25-4.545 3.266-7.749 7.867-8.75 13.13h-11.906c-16.447 0-29.875 13.02-29.875 29.19v66.75c0 .505.005 1 .031 1.5-.001.011.001.021 0 .031-.026.499-.031 1.026-.031 1.531v66.72c0 16.17 13.428 29.22 29.875 29.22h377.47c16.447 0 29.875-13.05 29.875-29.22v-66.72c0-.505-.005-1.032-.031-1.531.001-.011-.001-.021 0-.031.026-.499.031-.995.031-1.5v-66.75c0-16.17-13.428-29.19-29.875-29.19h-262.91c-1-5.255-4.205-9.857-8.75-13.12-5.465-3.927-12.756-6.25-20.719-6.25h-43.75" fill="#cccccc" fill-rule="evenodd"/>
 <path d="m108.54333 57.3055c-7.963 0-15.11 2.403-20.572 6.33-4.545 3.266-7.702 7.931-8.703 13.187h-12.13c-17.677 0-29.802 12.771-29.802 30.661v3.956c0-16.17 13.355-29.27 29.802-29.27h14.286c1-5.256 2-9.657 6.549-12.923 5.465-3.927 12.609-6.33 20.572-6.33h43.78c7.963 0 15.371 2.403 20.835 6.33 4.545 3.266 5.766 7.668 6.769 12.923h264.88c16.447 0 29.802 11.455 29.802 27.625v-3.956c0-16.17-13.355-29.01-29.802-29.01h-262.95c-1-5.256-4.159-9.921-8.703-13.187-5.465-3.927-12.872-6.33-20.835-6.33z" fill="#ffffff" fill-rule="evenodd" opacity=".764"/>
 <path d="m37.35333 213.7155c-19.928 0-38.06 11.337-36.23 25.697l24.26 190.23c1.733 13.594 16.271 25.05 36.2 25.05h383.41c19.933 0 34.1-11.5 36.2-24.98l29.632-190.23c1.123-7.206-3.137-13.807-9.971-18.394-6.833-4.587-16.258-7.371-26.22-7.371h-437.27" fill="#1793d1" fill-rule="evenodd"/>
 <path d="m37.34333 213.7055c-19.928 0-38.05 11.353-36.22 25.713l.406 3.136c3-11.423 18.732-19.755 35.812-19.755h437.28c9.966 0 19.386 2.782 26.22 7.369 4.736 3.178 8.234 7.317 9.563 11.96l.406-2.643c1.123-7.206-3.134-13.825-9.969-18.411-6.833-4.587-16.252-7.369-26.22-7.369h-437.28" fill="#ffffff" fill-rule="evenodd" opacity=".4"/>
</svg>
