<svg height="512" viewBox="0 0 512 512" width="512" xmlns="http://www.w3.org/2000/svg">
 <text x="729.64" y="233.72">
  
 </text>
 <text x="1310.91" y="153.72">
  
 </text>
 <text x="239.33" y="-27.54">
  
 </text>
 <text x="1337.38" y="-244.01">
  
 </text>
 <text x="1918.65" y="-324.02">
  
 </text>
 <text x="1529.53" y="-796.42">
  
 </text>
 <text x="2110.8" y="-876.42">
  
 </text>
 <text x="277.99" y="538.3">
  
 </text>
 <text x="3833.78" y="-509.16">
  
 </text>
 <text x="4415.05" y="-589.16">
  
 </text>
 <text x="3343.47" y="-770.41">
  
 </text>
 <text x="4441.52" y="-986.89">
  
 </text>
 <text x="5022.79" y="-1066.89">
  
 </text>
 <text x="4633.67" y="-1539.29">
  
 </text>
 <text x="5214.93" y="-1619.29">
  
 </text>
 <text x="3382.13" y="-204.58">
  
 </text>
 <path d="m108.6312 57.3705c-7.963 0-15.228 2.293-20.693 6.22-4.545 3.266-7.751 7.872-8.752 13.13h-11.909c-16.447 0-29.883 13.03-29.883 29.2v66.736c0 16.17 13.436 29.19 29.883 29.19h377.47c16.447 0 29.883-13.03 29.883-29.19v-66.736c0-16.17-13.436-29.2-29.883-29.2h-262.91c-1-5.256-4.208-9.862-8.753-13.13-5.465-3.927-12.73-6.22-20.693-6.22h-43.761" fill="#cccccc" fill-rule="evenodd"/>
 <path d="m37.3612 118.4605c-19.928 0-38.06 15.818-36.23 35.853l24.26 265.41c1.733 18.966 16.271 34.947 36.2 34.947h383.41c19.933 0 34.1-16.05 36.2-34.853l29.632-265.41c1.123-10.05-3.137-19.263-9.971-25.663-6.833-6.399-16.258-10.284-26.22-10.284h-437.27" fill="#1793d1" fill-rule="evenodd"/>
 <path d="m108.5512 57.2905c-7.963 0-15.11 2.403-20.572 6.33-4.545 3.266-7.702 7.931-8.703 13.187h-12.13c-17.677 0-29.802 12.771-29.802 30.661v3.956c0-16.17 13.355-29.27 29.802-29.27h14.286c1-5.256 2-9.657 6.549-12.923 5.465-3.927 12.609-6.33 20.572-6.33h43.78c7.963 0 15.371 2.403 20.835 6.33 4.545 3.266 5.766 7.668 6.769 12.923h264.88c16.447 0 29.802 11.455 29.802 27.625v-3.956c0-16.17-13.355-29.01-29.802-29.01h-262.95c-1-5.256-4.159-9.921-8.703-13.187-5.465-3.927-12.872-6.33-20.835-6.33z" fill="#ffffff" fill-rule="evenodd" opacity=".764"/>
 <path d="m37.3512 118.4505c-19.928 0-38.05 15.84-36.22 35.875l.406 4.375c3-15.936 18.732-27.563 35.813-27.563h437.28c9.966 0 19.386 3.882 26.22 10.281 4.736 4.435 8.234 10.208 9.563 16.688l.406-3.688c1.123-10.05-3.134-19.288-9.969-25.688-6.833-6.399-16.252-10.281-26.22-10.281h-437.28" fill="#ffffff" fill-rule="evenodd" opacity=".4"/>
 <text x="90.12" y="140.64">
  
 </text>
 <text x="671.39" y="60.64">
  
 </text>
 <text x="-400.19" y="-120.62">
  
 </text>
 <text x="697.86" y="-337.09">
  
 </text>
 <text x="1279.13" y="-417.1">
  
 </text>
 <text x="890.01" y="-889.5">
  
 </text>
 <text x="1471.27" y="-969.5">
  
 </text>
 <text x="-361.53" y="445.22">
  
 </text>
 <text x="-2585.36" y="426.26">
  
 </text>
 <text x="-1879.02" y="270.63">
  
 </text>
 <text x="-1845.65" y="262.51">
  
 </text>
 <text x="-695.23" y="108.1">
  
 </text>
 <text x="-113.97" y="28.1">
  
 </text>
 <text x="-1185.55" y="-153.16">
  
 </text>
 <text x="-87.5" y="-369.63">
  
 </text>
 <text x="493.77" y="-449.63">
  
 </text>
 <text x="104.65" y="-922.03">
  
 </text>
 <text x="685.91" y="-1002.04">
  
 </text>
 <text x="-1146.89" y="412.68">
  
 </text>
 <text x="-745.68" y="-630.91">
  
 </text>
 <text x="-164.41" y="-710.91">
  
 </text>
 <text x="-1235.99" y="-892.17">
  
 </text>
 <text x="-137.94" y="-1108.64">
  
 </text>
 <text x="443.32" y="-1188.65">
  
 </text>
 <text x="54.2" y="-1661.05">
  
 </text>
 <text x="635.47" y="-1741.05">
  
 </text>
 <text x="-1197.34" y="-326.33">
  
 </text>
 <text x="2358.46" y="-1373.79">
  
 </text>
 <text x="2939.72" y="-1453.79">
  
 </text>
 <text x="1868.14" y="-1635.04">
  
 </text>
 <text x="2966.19" y="-1851.52">
  
 </text>
 <text x="3547.46" y="-1931.52">
  
 </text>
 <text x="3158.34" y="-2403.92">
  
 </text>
 <text x="3739.61" y="-2483.92">
  
 </text>
 <text x="1906.8" y="-1069.21">
  
 </text>
 <text x="-2635.81" y="-315.13">
  
 </text>
 <text x="-2635.81" y="-315.13">
  
 </text>
 <text x="-2969.36" y="317.78">
  
 </text>
 <text x="-2263.02" y="162.15">
  
 </text>
 <path d="m256.0048 161.5828c-69.03298 0-125.0013 55.96429-125.0013 125.0013 0 69.03298 55.96429 125.0013 125.0013 125.0013 69.03298 0 125.0013-55.96429 125.0013-125.0013 0-69.03298-55.96429-125.0013-125.0013-125.0013m0 225.8088c-55.58526 0-100.8075-45.22224-100.8075-100.8075 0-55.58526 45.22224-100.8075 100.8075-100.8075 55.58526 0 100.8075 45.22224 100.8075 100.8075 0 55.58526-45.22224 100.8075-100.8075 100.8075" fill="#ffffff"/>
 <path d="m173.53217 276.50335h28.21803v20.1615h-28.21803zm50.48843 93.38807l-6.96782-4.07262 10.72592-18.41955 6.97185 4.07262-10.72995 18.41552m-35.73828-32.66567l-4.0323-6.98394 18.4881-10.68156 4.0323 6.97991zm14.4558-83.6299l-18.4881-10.68156 4.0323-6.98394 18.49213 10.68559-4.0323 6.97991m25.04461-27.85109l-10.72591-18.41552 6.97184-4.07262 10.72592 18.41551zm84.00088 50.27068c-.81856 2.52019-1.23389 6.39926-1.23389 11.63722 0 5.00005.41533 8.82267 1.23389 11.46786.81856 2.65325 2.50002 3.97585 5.04037 3.97585 2.54035 0 4.20569-1.3226 4.99602-3.97585.7863-2.64519 1.1855-6.46781 1.1855-11.46786 0-5.23796-.3992-9.11703-1.1855-11.63722-.79033-2.52019-2.45567-3.77827-4.99602-3.77827-2.54438-.004-4.22181 1.25808-5.04037 3.77827" fill="#ffffff"/>
 <path d="m254.29107 196.15977v90.42433 90.42433c49.94004 0 90.42433-40.48429 90.42433-90.42433 0-49.94004-40.48429-90.42433-90.42433-90.42433m39.30686 109.71889c-2.54841 2.78631-6.31861 4.18552-11.31463 4.18552-6.15329 0-10.42753-2.00808-12.82675-6.02829-.72984-1.24598-1.27017-2.7097-1.62501-4.40327-.45565-2.18147 1.33872-3.99601 3.56052-3.99601h.33871c2.22583 0 3.99198 1.00001 4.20569 2.20567.14113.79033.36291 1.49598.6613 2.11293 1.04033 2.10083 2.92745 3.14922 5.66135 3.14922 1.66937 0 3.13309-.58065 4.37907-1.72985 1.25002-1.14921 1.87502-2.79842 1.87502-4.96376 0-2.85891-1.15727-4.77022-3.46778-5.72587-.76613-.31452-1.7863-.54033-3.06858-.66936-1.73388-.18146-3.15325-1.51212-3.15325-3.20165 0-1.68953 1.31856-3.04439 2.93551-3.21777 1.25808-.13307 2.20567-.35081 2.86697-.6492 1.89114-.83872 2.8347-2.54035 2.8347-5.10086 0-1.66131-.47984-3.0081-1.44759-4.0323-.96776-1.04034-2.33067-1.5605-4.08876-1.5605-2.01615 0-3.496.64113-4.44359 1.91937-.5121.68952-.88307 1.50405-1.10082 2.44357-.34678 1.45163-2.04437 2.68552-4.25004 2.68552-2.20567 0-3.96375-1.41131-3.66133-3.11294.18549-1.04033.44355-2.05244.77823-3.03229.70162-1.70163 1.79841-3.27019 3.29439-4.70973 1.12098-1.02017 2.44761-1.7984 3.98391-2.33873 1.54438-.54033 3.42746-.81049 5.66539-.81049 4.15327 0 7.50007 1.07662 10.05252 3.22584 2.54841 2.14921 3.81859 5.03231 3.81859 8.65331 0 2.56051-.75807 4.7178-2.27825 6.47991-.44759.5121-.90324.94759-1.36292 1.30647-.82662.64113-.72984 1.07662.18145 1.69759.45969.31856.97179.73388 1.54034 1.25405 2.18148 2.02018 3.2702 4.77827 3.2702 8.27831.004 3.68149-1.27421 6.9154-3.81456 9.70171m34.8794-34.83503c2.22986 3.89923 3.33874 9.43961 3.33874 16.6171 0 7.1775-1.10888 12.70578-3.33874 16.58485-2.2339 3.87908-6.117 5.81861-11.65738 5.81861-5.54038 0-9.42349-1.93953-11.65738-5.81861-2.22986-3.87907-3.33875-9.40735-3.33875-16.58485 0-7.17749 1.10889-12.71787 3.33875-16.61711 2.23389-3.89923 6.117-5.84683 11.65738-5.84683 5.54038-.004 9.42348 1.9476 11.65738 5.84683" fill="#ffffff"/>
</svg>
