<?xml version="1.0" encoding="UTF-8" standalone="no"?>
<svg xmlns="http://www.w3.org/2000/svg" viewBox="0 0 512 512" version="1.1">
 <path d="m108.63121 71.7275c-7.963 0-15.228 2.293-20.693 6.22-4.545 3.266-7.751 7.872-8.752 13.13h-11.909c-16.447 0-29.883 13.03-29.883 29.2v66.736c0 16.17 13.436 29.19 29.883 29.19h377.47c16.447 0 29.883-13.03 29.883-29.19v-66.736c0-16.17-13.436-29.2-29.883-29.2h-262.91c-1-5.256-4.208-9.862-8.753-13.13-5.465-3.927-12.73-6.22-20.693-6.22h-43.761" fill="#cccccc" fill-rule="evenodd"/>
 <path d="m37.36121 132.8175c-19.928 0-38.06 15.818-36.23 35.853l24.26 265.41c1.733 18.966 16.271 34.947 36.2 34.947h383.41c19.933 0 34.1-16.05 36.2-34.853l29.632-265.41c1.123-10.05-3.137-19.263-9.971-25.663-6.833-6.399-16.258-10.284-26.22-10.284h-437.27" fill="#1793d1" fill-rule="evenodd"/>
 <path d="m108.55121 71.6475c-7.963 0-15.11 2.403-20.572 6.33-4.545 3.266-7.702 7.931-8.703 13.187h-12.13c-17.677 0-29.802 12.771-29.802 30.661v3.956c0-16.17 13.355-29.27 29.802-29.27h14.286c1-5.256 2-9.657 6.549-12.923 5.465-3.927 12.609-6.33 20.572-6.33h43.78c7.963 0 15.371 2.403 20.835 6.33 4.545 3.266 5.766 7.668 6.769 12.923h264.88c16.447 0 29.802 11.455 29.802 27.625v-3.956c0-16.17-13.355-29.01-29.802-29.01h-262.95c-1-5.256-4.159-9.921-8.703-13.187-5.465-3.927-12.872-6.33-20.835-6.33z" fill="#ffffff" fill-rule="evenodd" opacity=".764"/>
 <path d="m37.35121 132.8075c-19.928 0-38.05 15.84-36.22 35.875l.406 4.375c3-15.936 18.732-27.563 35.813-27.563h437.28c9.966 0 19.386 3.882 26.22 10.281 4.736 4.435 8.234 10.208 9.563 16.688l.406-3.688c1.123-10.05-3.134-19.288-9.969-25.688-6.833-6.399-16.252-10.281-26.22-10.281h-437.28" fill="#ffffff" fill-rule="evenodd" opacity=".4"/>
 <path d="m216.08121 185.9375c-21.583.765-35.575 1.879-46.552 6.097-10.977 4.218-18.09 12.1-23.934 23.24a6.417492 6.417492 0 0 0 -.0269.0268l-17.783 34.384a6.417492 6.417492 0 0 0 5.18435 9.34793l6.071.457a6.417492 6.417492 0 0 0 6.12451-3.30401c6.243-11.45 12.311-19.498 19.02-24.552 6.665-5.02 14.03-7.463 24.445-7.495h.188l15.419.403c-8.777 50.79-7.04 90.1-44.4 155.61a6.417492 6.417492 0 0 0 -.37607.80587c-3.02 7.591-3.33 14.781-1.155 20.733 2.17 5.956 6.791 10.352 12.169 12.545 10.755 4.383 24.702.305 32.26-12.141a6.417492 6.417492 0 0 0 .29548-.5641c15.704-32.924 23.966-95.43 29.06-176.91h52.33l-8.542 133.75a6.417492 6.417492 0 0 0 0 .26861c-.424 19.827 4.411 34.772 13.243 44.515 8.831 9.733 21.492 13.57 34.06 11.978 25.14-3.18 50.858-26.18 60.843-63.07a6.417492 6.417492 0 0 0 -6.20509-8.11229h-6.04a6.417492 6.417492 0 0 0 -5.69471 3.43833c-8.853 16.81-17.435 26.511-24.2 30.811-6.771 4.298-10.975 3.959-15.365 1.263-4.39-2.697-8.926-9.02-11.873-18.11-2.946-9.07-4.34-20.679-3.492-33.09.001-.009-.001-.017 0-.027l7.495-103.23 59.953-.859a6.417492 6.417492 0 0 0 6.33941-6.41999v-25.358a6.417492 6.417492 0 0 0 -6.42003-6.41998h-162.2a6.417492 6.417492 0 0 0 -.24175 0" fill="#ffffff"/>
</svg>
