<svg viewBox="0 0 512 512" xmlns="http://www.w3.org/2000/svg">
 <path d="m108.6312 57.388c-7.963 0-15.228 2.293-20.693 6.22-4.545 3.266-7.751 7.872-8.752 13.13h-11.909c-16.447 0-29.883 13.03-29.883 29.2v66.736c0 16.17 13.436 29.19 29.883 29.19h377.47c16.447 0 29.883-13.03 29.883-29.19v-66.736c0-16.17-13.436-29.2-29.883-29.2h-262.91c-1-5.256-4.208-9.862-8.753-13.13-5.465-3.927-12.73-6.22-20.693-6.22h-43.761" fill="#cccccc" fill-rule="evenodd"/>
 <path d="m37.3612 118.478c-19.928 0-38.06 15.818-36.23 35.853l24.26 265.41c1.733 18.966 16.271 34.947 36.2 34.947h383.41c19.933 0 34.1-16.05 36.2-34.853l29.632-265.41c1.123-10.05-3.137-19.263-9.971-25.663-6.833-6.399-16.258-10.284-26.22-10.284h-437.27" fill="#1793d1" fill-rule="evenodd"/>
 <path d="m108.5512 57.308c-7.963 0-15.11 2.403-20.572 6.33-4.545 3.266-7.702 7.931-8.703 13.187h-12.13c-17.677 0-29.802 12.771-29.802 30.661v3.956c0-16.17 13.355-29.27 29.802-29.27h14.286c1-5.256 2-9.657 6.549-12.923 5.465-3.927 12.609-6.33 20.572-6.33h43.78c7.963 0 15.371 2.403 20.835 6.33 4.545 3.266 5.766 7.668 6.769 12.923h264.88c16.447 0 29.802 11.455 29.802 27.625v-3.956c0-16.17-13.355-29.01-29.802-29.01h-262.95c-1-5.256-4.159-9.921-8.703-13.187-5.465-3.927-12.872-6.33-20.835-6.33z" fill="#ffffff" fill-rule="evenodd" opacity=".764"/>
 <path d="m37.3512 118.468c-19.928 0-38.05 15.84-36.22 35.875l.406 4.375c3-15.936 18.732-27.563 35.813-27.563h437.28c9.966 0 19.386 3.882 26.22 10.281 4.736 4.435 8.234 10.208 9.563 16.688l.406-3.688c1.123-10.05-3.134-19.288-9.969-25.688-6.833-6.399-16.252-10.281-26.22-10.281h-437.28" fill="#ffffff" fill-rule="evenodd" opacity=".4"/>
 <path d="m179.8312 185.818c-11.853-.16-23.989 5.612-36.622 17.475-30.465 28.61-49.745 75.67-49.964 121.87-.051 10.672.658 15.664 3.434 24.13 6.25 19.06 19.323 34.67 31.395 37.503 8.367 1.964 19.402-1.113 29.328-8.175 2.354-1.675 9.668-8.312 16.26-14.74 22.02-21.468 29.392-27.04 44.07-33.28 11.489-4.888 23.794-7.203 38.2-7.203 14.409 0 26.744 2.315 38.23 7.203 14.676 6.243 22.05 11.811 44.07 33.28 6.592 6.428 13.906 13.07 16.26 14.74 8.624 6.136 18.468 9.381 26.17 8.631 15.611-1.521 31.504-21.74 36.987-47.05 2.598-11.994.452-38.915-4.65-58.29-8.544-32.449-23.623-59.17-44.34-78.62-12.633-11.863-24.738-17.636-36.592-17.475-12.904.175-21.52 4.349-36.592 17.779-13.07 11.651-18.931 15.543-27.23 18.14-6.914 2.167-17.703 2.167-24.617 0-8.3-2.601-14.13-6.493-27.2-18.14-15.07-13.431-23.687-17.604-36.592-17.779m152.75 46.13c3.543.001 7.147 1.197 10.151 3.769 8.676 7.427 7.438 20.933-2.401 26.26-3.092 1.674-7.794 2.594-10.212 2.01-10.357-2.518-15.78-10.992-13.04-20.362 2.148-7.34 8.736-11.672 15.5-11.67m-166.03 3.313h12.947 12.947v12.643 12.613h12.643 12.643v12.977 12.947h-12.643-12.643v12.643 12.613h-12.947-12.947v-12.613-12.643h-12.643-12.643v-12.947-12.977h12.643 12.643v-12.613zm140.87 22.03c3.187.008 8.415 2.371 10.941 4.923 8.302 8.389 5.04 22.568-6.109 26.502-10.386 3.665-21.28-4.104-21.305-15.226-.02-8.88 7.45-16.22 16.472-16.199m50.54.274c2.662-.004 5.323.489 7.142 1.459 5.698 3.038 8.874 8.226 8.874 14.466 0 6.563-3.349 11.73-9.513 14.649-2.063.977-4.41 1.52-6.473 1.52-5.992 0-12.575-4.364-14.862-9.847-1.244-2.983-1.312-9.551-.122-12.4 1.276-3.054 4.701-6.732 7.78-8.358 1.846-.974 4.51-1.486 7.172-1.489m-25.499 25.499c13.914 0 21.18 16.05 12 26.471-1.453 1.651-3.819 3.54-5.258 4.194-3.148 1.43-10.08 1.572-13.07.274-6.088-2.649-10.372-9.86-9.725-16.32.848-8.474 7.597-14.618 16.05-14.618" fill="#ffffff"/>
</svg>
