<?xml version="1.0" encoding="UTF-8" standalone="no"?>
<svg xmlns="http://www.w3.org/2000/svg" height="512" viewBox="0 0 512 512" width="512" version="1.1">
 <path d="m471.95 253.05c0 120.9-98.01 218.91-218.91 218.91-120.9 0-218.91-98.01-218.91-218.91 0-120.9 98.01-218.91 218.91-218.91 120.9 0 218.91 98.01 218.91 218.91" fill="#1793d1" fill-rule="evenodd"/>
 <path d="m256 1c-140.83 0-255 114.17-255 255 0 140.83 114.17 255 255 255 140.83 0 255-114.17 255-255 0-140.83-114.17-255-255-255m8.827 44.931c120.9 0 218.9 98 218.9 218.9 0 120.9-98 218.9-218.9 218.9-120.9 0-218.93-98-218.93-218.9 0-120.9 98.03-218.9 218.93-218.9" fill-opacity=".067" fill-rule="evenodd"/>
 <path d="m256 4.43c-138.94 0-251.57 112.63-251.57 251.57 0 138.94 112.63 251.57 251.57 251.57 138.94 0 251.57-112.63 251.57-251.57 0-138.94-112.63-251.57-251.57-251.57m5.885 38.556c120.9 0 218.9 98 218.9 218.9 0 120.9-98 218.9-218.9 218.9-120.9 0-218.93-98-218.93-218.9 0-120.9 98.03-218.9 218.93-218.9" fill-opacity=".129" fill-rule="evenodd"/>
 <path d="m256 8.36c-136.77 0-247.64 110.87-247.64 247.64 0 136.77 110.87 247.64 247.64 247.64 136.77 0 247.64-110.87 247.64-247.64 0-136.77-110.87-247.64-247.64-247.64m2.942 31.691c120.9 0 218.9 98 218.9 218.9 0 120.9-98 218.9-218.9 218.9-120.9 0-218.93-98-218.93-218.9 0-120.9 98.03-218.9 218.93-218.9" fill-opacity=".129" fill-rule="evenodd"/>
 <path d="m253.04 7.86c-135.42 0-245.19 109.78-245.19 245.19 0 135.42 109.78 245.19 245.19 245.19 135.42 0 245.19-109.78 245.19-245.19 0-135.42-109.78-245.19-245.19-245.19zm0 26.297c120.9 0 218.9 98 218.9 218.9 0 120.9-98 218.9-218.9 218.9-120.9 0-218.93-98-218.93-218.9 0-120.9 98.03-218.9 218.93-218.9z" fill="#ffffff" fill-rule="evenodd" stroke="#000000" stroke-opacity=".31" stroke-width="4.904"/>
 <path d="m256 111.63c-62.2 0-112.62 16.664-112.62 37.22 0 4.496 2.392 8.791 6.813 12.781.159.159.304.342.469.5.384.411.793.814 1.219 1.219.313.332.629.641.969.969l-9.219-2.938c-2.01 3.61-3.188 7.385-3.188 11.25v35.16c0 13.02 11.94 24.875 31.375 33.688.788.377 1.592.758 2.406 1.125.769.366 1.58.707 2.375 1.063.107.05.205.106.313.156.34.151.686.288 1.031.438.879.425 1.774.839 2.688 1.25.763.363 1.556.71 2.344 1.063.128.061.246.127.375.188.354.157.704.314 1.063.469.945.456 1.922.903 2.906 1.344.107.051.205.106.313.156.522.232 1.03.46 1.563.688.084.038.165.087.25.125.116.055.227.102.344.156.451.2.885.429 1.344.625.231.204.484.388.719.563.495.503.989.968 1.5 1.344.389.386.789.718 1.188 1.031.492.504.993.948 1.5 1.344.443.444.888.826 1.344 1.188.507.509 1.01.968 1.531 1.375.41.4.83.787 1.25 1.125.469.463.924.895 1.406 1.281.382.373.766.737 1.156 1.063.448.445.915.836 1.375 1.219.484.478.97.934 1.469 1.344.465.45.897.891 1.375 1.281-20.24-4.06-37.24-10.579-48.969-18.625-.089-.148-.196-.289-.281-.438-.035.06-.059.127-.094.188-.123-.085-.254-.164-.375-.25-.23-.362-.477-.729-.688-1.094-.071.12-.119.254-.188.375-.326-.497-.647-.996-.938-1.5-.075.127-.146.248-.219.375-.332-.505-.643-1.02-.938-1.531-.071.12-.119.254-.188.375-.327-.498-.678-.995-.969-1.5-.067.114-.122.229-.188.344-.326-.497-.647-.996-.938-1.5-.075.127-.146.248-.219.375-.332-.505-.643-1.02-.938-1.531-.071.12-.119.254-.188.375-.326-.497-.647-.996-.938-1.5-.074.126-.147.249-.219.375-.332-.505-.643-1.02-.938-1.531-.066.112-.123.231-.188.344-.326-.497-.679-.966-.969-1.469-.067.114-.122.229-.188.344-.326-.497-.647-.996-.938-1.5-.075.127-.146.248-.219.375-.332-.505-.643-1.02-.938-1.531-.071.12-.119.254-.188.375-.327-.498-.678-.995-.969-1.5-2.209 3.758-3.5 7.758-3.5 11.813v35.13c0 7.22 3.657 14.08 10.219 20.25.371.373.733.757 1.125 1.125.381.384.754.777 1.156 1.156.38.384.754.778 1.156 1.156.371.373.733.757 1.125 1.125.381.384.754.777 1.156 1.156.371.373.765.788 1.156 1.156.371.373.733.757 1.125 1.125.381.384.754.777 1.156 1.156.371.373.733.757 1.125 1.125.381.384.754.777 1.156 1.156.38.384.754.778 1.156 1.156.371.373.733.757 1.125 1.125.381.384.754.777 1.156 1.156.371.373.733.757 1.125 1.125.381.384.753.777 1.156 1.156.38.384.754.778 1.156 1.156.371.373.733.757 1.125 1.125.149.151.285.319.438.469.588.62 1.23 1.237 1.875 1.844.371.373.733.757 1.125 1.125.381.384.754.777 1.156 1.156.371.373.733.757 1.125 1.125.381.384.754.777 1.156 1.156.38.384.754.778 1.156 1.156.371.373.733.757 1.125 1.125.381.384.754.777 1.156 1.156.371.373.733.788 1.125 1.156.165.166.331.335.5.5-9.432-3.36-17.579-7.374-24.09-11.844-.076-.128-.176-.247-.25-.375-.031.053-.063.103-.094.156-.134-.093-.273-.188-.406-.281-.216-.342-.457-.686-.656-1.031-.067.114-.122.229-.188.344-.325-.495-.648-.968-.938-1.469-.075.127-.146.248-.219.375-.332-.504-.643-1.021-.938-1.531-.067.114-.122.229-.188.344-.327-.498-.678-.996-.969-1.5-.071.12-.119.254-.188.375-.326-.497-.647-.997-.938-1.5-.075.127-.146.248-.219.375-.332-.504-.643-1.021-.938-1.531-.067.114-.122.229-.188.344-.326-.497-.647-.997-.938-1.5-.073.123-.148.251-.219.375-.326-.497-.647-.997-.938-1.5-.067.114-.122.229-.188.344-.327-.498-.678-.996-.969-1.5-.066.112-.123.231-.188.344-.325-.495-.648-.968-.938-1.469-.075.127-.146.248-.219.375-.332-.504-.643-1.021-.938-1.531-.067.114-.122.229-.188.344-.327-.498-.678-.996-.969-1.5-2.209 3.758-3.5 7.669-3.5 11.75v35.22c0 7.213 3.657 14.05 10.219 20.22.371.373.733.757 1.125 1.125.381.384.753.778 1.156 1.156.38.383.754.778 1.156 1.156.371.373.733.757 1.125 1.125.149.15.285.319.438.469.588.619 1.23 1.238 1.875 1.844.371.373.733.757 1.125 1.125.381.383.754.778 1.156 1.156.371.373.733.757 1.125 1.125.381.384.753.778 1.156 1.156.38.383.754.778 1.156 1.156.371.373.733.757 1.125 1.125.381.383.754.778 1.156 1.156.371.373.733.788 1.125 1.156.376.378.759.752 1.156 1.125.38.383.754.778 1.156 1.156.371.373.733.757 1.125 1.125.149.15.285.319.438.469.588.619 1.23 1.238 1.875 1.844.371.373.733.757 1.125 1.125.381.383.754.778 1.156 1.156.371.373.733.757 1.125 1.125.381.384.753.778 1.156 1.156.38.383.754.778 1.156 1.156.371.373.733.757 1.125 1.125.381.383.754.778 1.156 1.156.371.373.733.788 1.125 1.156.376.378.759.752 1.156 1.125.381.383.754.778 1.156 1.156.371.373.733.757 1.125 1.125.149.15.285.319.438.469.588.619 1.23 1.238 1.875 1.844.371.373.733.757 1.125 1.125.381.383.754.778 1.156 1.156.371.373.733.757 1.125 1.125.381.384.753.778 1.156 1.156.38.383.754.778 1.156 1.156.371.373.733.757 1.125 1.125.149.15.285.319.438.469.588.619 1.23 1.238 1.875 1.844.371.373.733.757 1.125 1.125.381.383.754.778 1.156 1.156.371.373.733.757 1.125 1.125.381.383.754.778 1.156 1.156.38.383.754.778 1.156 1.156.371.373.733.757 1.125 1.125.381.383.754.778 1.156 1.156.371.373.733.757 1.125 1.125.381.384.753.778 1.156 1.156.38.383.754.778 1.156 1.156.371.373.733.757 1.125 1.125.149.15.285.319.438.469.588.619 1.23 1.238 1.875 1.844.371.373.733.757 1.125 1.125.381.383.754.778 1.156 1.156.371.373.733.757 1.125 1.125.381.384.753.778 1.156 1.156.38.383.754.778 1.156 1.156.371.373.733.757 1.125 1.125.381.383.754.778 1.156 1.156.371.373.733.757 1.125 1.125.381.384.753.778 1.156 1.156.38.383.754.778 1.156 1.156.371.373.733.757 1.125 1.125.149.15.285.319.438.469.588.619 1.23 1.238 1.875 1.844.371.373.733.757 1.125 1.125.381.383.754.778 1.156 1.156.371.373.733.757 1.125 1.125.381.384.753.778 1.156 1.156.38.383.754.778 1.156 1.156.371.373.733.757 1.125 1.125.381.383.754.778 1.156 1.156.371.373.733.788 1.125 1.156.376.378.759.752 1.156 1.125.381.383.754.778 1.156 1.156.371.373.733.757 1.125 1.125.149.15.285.319.438.469.588.619 1.23 1.238 1.875 1.844.371.373.733.757 1.125 1.125.381.383.754.778 1.156 1.156.371.373.733.757 1.125 1.125.381.384.753.778 1.156 1.156.38.383.754.778 1.156 1.156.371.373.733.757 1.125 1.125.381.383.754.778 1.156 1.156.371.373.765.788 1.156 1.156.288.29.579.584.875.875.649.006 1.287.031 1.938.031 120.9 0 218.91-98.01 218.91-218.91 0-2.351-.051-4.698-.125-7.03-.237-.24-.468-.481-.719-.719-.361-.383-.728-.747-1.125-1.125-.361-.383-.759-.778-1.156-1.156-.433-.46-.89-.923-1.375-1.375-.292-.303-.592-.607-.906-.906-.366-.388-.754-.773-1.156-1.156-.361-.383-.728-.747-1.125-1.125-.361-.383-.759-.778-1.156-1.156-.433-.46-.89-.923-1.375-1.375-.292-.303-.592-.607-.906-.906-.362-.385-.758-.777-1.156-1.156-.356-.378-.734-.752-1.125-1.125-.361-.383-.759-.778-1.156-1.156-.366-.388-.754-.773-1.156-1.156-.361-.383-.728-.747-1.125-1.125-.361-.383-.759-.778-1.156-1.156-.433-.46-.89-.923-1.375-1.375-.292-.303-.592-.607-.906-.906-.274-.291-.58-.587-.875-.875-.044-.048-.111-.077-.156-.125-.048-.046-.077-.11-.125-.156-.361-.383-.728-.747-1.125-1.125-.361-.383-.759-.778-1.156-1.156-.366-.388-.754-.773-1.156-1.156-.361-.383-.728-.747-1.125-1.125-.362-.385-.758-.777-1.156-1.156-.356-.378-.734-.752-1.125-1.125-.361-.383-.759-.778-1.156-1.156-.366-.388-.754-.773-1.156-1.156-.361-.383-.728-.747-1.125-1.125-.361-.383-.759-.778-1.156-1.156-.433-.46-.89-.923-1.375-1.375-.292-.303-.592-.607-.906-.906-.362-.385-.758-.777-1.156-1.156-.358-.38-.732-.75-1.125-1.125-.054-.057-.133-.099-.188-.156-.153-.143-.28-.295-.438-.438-.179-.179-.344-.385-.531-.563-.366-.388-.754-.773-1.156-1.156-.361-.383-.728-.747-1.125-1.125-.362-.385-.758-.777-1.156-1.156-.433-.46-.89-.923-1.375-1.375-.292-.303-.592-.607-.906-.906-.366-.388-.754-.773-1.156-1.156-.361-.383-.728-.747-1.125-1.125-.361-.383-.759-.778-1.156-1.156-.433-.46-.89-.923-1.375-1.375-.292-.303-.592-.607-.906-.906-.362-.385-.758-.777-1.156-1.156-.358-.38-.732-.75-1.125-1.125-.054-.057-.133-.099-.188-.156-.153-.143-.28-.295-.438-.438-.179-.179-.344-.385-.531-.563-.366-.388-.754-.773-1.156-1.156-.361-.383-.728-.747-1.125-1.125-.361-.383-.759-.778-1.156-1.156-.433-.46-.89-.923-1.375-1.375-.292-.303-.592-.607-.906-.906-.366-.388-.754-.773-1.156-1.156-.361-.383-.728-.747-1.125-1.125-.361-.383-.759-.778-1.156-1.156-.433-.46-.89-.923-1.375-1.375-.292-.303-.592-.607-.906-.906-.362-.385-.758-.777-1.156-1.156-.356-.378-.734-.752-1.125-1.125-.361-.383-.759-.778-1.156-1.156-.366-.388-.754-.773-1.156-1.156-.361-.383-.728-.747-1.125-1.125-.361-.383-.759-.778-1.156-1.156-.433-.46-.89-.923-1.375-1.375-.292-.303-.592-.607-.906-.906-.274-.291-.58-.587-.875-.875-.044-.048-.111-.077-.156-.125-.048-.046-.077-.11-.125-.156-.361-.383-.728-.747-1.125-1.125-.361-.383-.759-.778-1.156-1.156-.366-.388-.754-.773-1.156-1.156-.361-.383-.728-.747-1.125-1.125-.362-.385-.758-.777-1.156-1.156-.356-.378-.734-.752-1.125-1.125-.361-.383-.759-.778-1.156-1.156-.366-.388-.754-.773-1.156-1.156-.361-.383-.728-.747-1.125-1.125-.361-.383-.759-.778-1.156-1.156-.433-.46-.89-.923-1.375-1.375-.292-.303-.592-.607-.906-.906-.362-.385-.758-.777-1.156-1.156-.358-.38-.732-.75-1.125-1.125-.054-.057-.102-.13-.156-.188-.153-.143-.311-.264-.469-.406-.179-.179-.344-.385-.531-.563-.366-.388-.754-.773-1.156-1.156-.361-.383-.728-.747-1.125-1.125-.362-.385-.758-.777-1.156-1.156-.433-.46-.89-.923-1.375-1.375-.292-.303-.592-.607-.906-.906-.366-.388-.754-.773-1.156-1.156-.361-.383-.728-.747-1.125-1.125-.361-.383-.759-.778-1.156-1.156-.433-.46-.89-.923-1.375-1.375-.292-.303-.592-.607-.906-.906-.362-.385-.758-.777-1.156-1.156-.358-.38-.732-.75-1.125-1.125-.054-.057-.102-.13-.156-.188-.153-.143-.311-.264-.469-.406-.179-.179-.344-.385-.531-.563-.366-.388-.754-.773-1.156-1.156-14.258-15.15-56.991-26.12-107.53-26.12" fill-opacity=".235"/>
 <path d="m255.99 111.61c-62.2 0-112.62 16.662-112.62 37.22 0 20.555 50.41 37.22 112.62 37.22 62.2 0 112.62-16.662 112.62-37.22 0-20.555-50.42-37.22-112.62-37.22m-112.36 49.76c-2.01 3.61-3.194 7.387-3.194 11.253v35.17c0 27.16 51.783 49.23 115.55 49.23 63.82 0 115.58-22.09 115.58-49.23v-35.17c0-3.866-1.185-7.643-3.165-11.253-2.209 19.895-51.638 35.811-112.41 35.811-60.776 0-110.12-15.916-112.36-35.811m.322 70.3c-2.209 3.758-3.517 7.755-3.517 11.81v35.14c0 27.18 51.783 49.17 115.55 49.17 63.82 0 115.58-22 115.58-49.17v-35.14c0-4.054-1.334-8.05-3.517-11.81-12.406 21.498-57.779 37.422-112.06 37.422-54.24 0-99.64-15.938-112.03-37.422m0 72.65c-2.209 3.758-3.517 7.67-3.517 11.751v35.2c0 27.16 51.783 49.12 115.55 49.12 63.82 0 115.58-21.973 115.58-49.12v-35.2c0-4.081-1.334-7.993-3.517-11.751-12.406 21.458-57.779 37.36-112.06 37.36-54.24 0-99.64-15.906-112.03-37.36" fill="#ffffff"/>
</svg>
