<svg height="512" viewBox="0 0 512 512" width="512" xmlns="http://www.w3.org/2000/svg">
  <text x="729.64" y="233.72">
    <tspan x="729.64" y="233.72"/>
  </text>
  <text transform="scale(4.0128205 .24920128)" x="378.91" y="588.73"/>
  <text x="1310.91" y="153.72">
    <tspan x="1310.91" y="153.72"/>
  </text>
  <text transform="scale(4.0128205 .24920128)" x="523.76" y="267.69"/>
  <text x="239.33" y="-27.54">
    <tspan x="239.33" y="-27.54"/>
  </text>
  <text transform="scale(4.0128205 .24920128)" x="256.72" y="-459.66"/>
  <text x="1337.38" y="-244.01">
    <tspan x="1337.38" y="-244.01"/>
  </text>
  <text transform="scale(4.0128205 .24920128)" x="530.36" y="-1328.33"/>
  <text x="1918.65" y="-324.02">
    <tspan x="1918.65" y="-324.02"/>
  </text>
  <text transform="scale(4.0128205 .24920128)" x="675.21" y="-1649.36"/>
  <text x="1529.53" y="-796.42">
    <tspan x="1529.53" y="-796.42"/>
  </text>
  <text transform="scale(4.0128205 .24920128)" x="578.24" y="-3545.01"/>
  <text x="2110.8" y="-876.42">
    <tspan x="2110.8" y="-876.42"/>
  </text>
  <text transform="scale(4.0128205 .24920128)" x="723.09" y="-3866.05"/>
  <g transform="translate(.0012 -.0195)">
    <text x="277.99" y="538.32">
      <tspan x="277.99" y="538.32"/>
    </text>
    <text x="3833.78" y="-509.14">
      <tspan x="3833.78" y="-509.14"/>
    </text>
  </g>
  <text transform="scale(4.0128205 .24920128)" x="1152.45" y="-2392.3"/>
  <text x="4415.05" y="-589.16">
    <tspan x="4415.05" y="-589.16"/>
  </text>
  <text transform="scale(4.0128205 .24920128)" x="1297.3" y="-2713.32"/>
  <text x="3343.47" y="-770.41">
    <tspan x="3343.47" y="-770.41"/>
  </text>
  <text transform="scale(4.0128205 .24920128)" x="1030.27" y="-3440.68"/>
  <text x="4441.52" y="-986.89">
    <tspan x="4441.52" y="-986.89"/>
  </text>
  <text transform="scale(4.0128205 .24920128)" x="1303.9" y="-4309.35"/>
  <text x="5022.79" y="-1066.89">
    <tspan x="5022.79" y="-1066.89"/>
  </text>
  <text transform="scale(4.0128205 .24920128)" x="1448.75" y="-4630.37"/>
  <text x="4633.67" y="-1539.29">
    <tspan x="4633.67" y="-1539.29"/>
  </text>
  <text transform="scale(4.0128205 .24920128)" x="1351.78" y="-6526.04"/>
  <text x="5214.93" y="-1619.29">
    <tspan x="5214.93" y="-1619.29"/>
  </text>
  <text transform="scale(4.0128205 .24920128)" x="1496.63" y="-6847.06"/>
  <text x="3382.13" y="-204.58">
    <tspan x="3382.13" y="-204.58"/>
  </text>
  <g fill-rule="evenodd" transform="translate(.0012 -.0195)">
    <path d="m108.63 57.39c-7.963 0-15.228 2.293-20.693 6.22-4.545 3.266-7.751 7.872-8.752 13.13h-11.909c-16.447 0-29.883 13.03-29.883 29.2v66.736c0 16.17 13.436 29.19 29.883 29.19h377.47c16.447 0 29.883-13.03 29.883-29.19v-66.736c0-16.17-13.436-29.2-29.883-29.2h-262.91c-1-5.256-4.208-9.862-8.753-13.13-5.465-3.927-12.73-6.22-20.693-6.22h-43.761" fill="#cccccc"/>
    <path d="m37.36 118.48c-19.928 0-38.06 15.818-36.23 35.853l24.26 265.41c1.733 18.966 16.271 34.947 36.2 34.947h383.41c19.933 0 34.1-16.05 36.2-34.853l29.632-265.41c1.123-10.05-3.137-19.263-9.971-25.663-6.833-6.399-16.258-10.284-26.22-10.284h-437.27" fill="#645EC6"/>
  </g>
  <g fill="#ffffff" fill-rule="evenodd" transform="translate(.0012 -.0195)">
    <path d="m108.55 57.31c-7.963 0-15.11 2.403-20.572 6.33-4.545 3.266-7.702 7.931-8.703 13.187h-12.13c-17.677 0-29.802 12.771-29.802 30.661v3.956c0-16.17 13.355-29.27 29.802-29.27h14.286c1-5.256 2-9.657 6.549-12.923 5.465-3.927 12.609-6.33 20.572-6.33h43.78c7.963 0 15.371 2.403 20.835 6.33 4.545 3.266 5.766 7.668 6.769 12.923h264.88c16.447 0 29.802 11.455 29.802 27.625v-3.956c0-16.17-13.355-29.01-29.802-29.01h-262.95c-1-5.256-4.159-9.921-8.703-13.187-5.465-3.927-12.872-6.33-20.835-6.33z" opacity=".764"/>
    <path d="m37.35 118.47c-19.928 0-38.05 15.84-36.22 35.875l.406 4.375c3-15.936 18.732-27.563 35.813-27.563h437.28c9.966 0 19.386 3.882 26.22 10.281 4.736 4.435 8.234 10.208 9.563 16.688l.406-3.688c1.123-10.05-3.134-19.288-9.969-25.688-6.833-6.399-16.252-10.281-26.22-10.281h-437.28" opacity=".4"/>
  </g>
  <text x="90.12" y="140.64">
    <tspan x="90.12" y="140.64"/>
  </text>
  <text transform="scale(4.0128205 .24920128)" x="219.54" y="215.21"/>
  <text x="671.39" y="60.64">
    <tspan x="671.39" y="60.64"/>
  </text>
  <text transform="scale(4.0128205 .24920128)" x="364.39" y="-105.82"/>
  <text x="-400.19" y="-120.62">
    <tspan x="-400.19" y="-120.62"/>
  </text>
  <text transform="scale(4.0128205 .24920128)" x="97.35" y="-833.16"/>
  <text x="697.86" y="-337.09">
    <tspan x="697.86" y="-337.09"/>
  </text>
  <text transform="scale(4.0128205 .24920128)" x="370.99" y="-1701.83"/>
  <text x="1279.13" y="-417.1">
    <tspan x="1279.13" y="-417.1"/>
  </text>
  <text transform="scale(4.0128205 .24920128)" x="515.84" y="-2022.87"/>
  <text x="890.01" y="-889.5">
    <tspan x="890.01" y="-889.5"/>
  </text>
  <text transform="scale(4.0128205 .24920128)" x="418.87" y="-3918.51"/>
  <text x="1471.27" y="-969.5">
    <tspan x="1471.27" y="-969.5"/>
  </text>
  <text transform="scale(4.0128205 .24920128)" x="563.72" y="-4239.54"/>
  <g transform="translate(.0012 -.0195)">
    <text x="-361.53" y="445.24">
      <tspan x="-361.53" y="445.24"/>
    </text>
    <text x="-2585.36" y="426.28">
      <tspan x="-2585.36" y="426.28"/>
    </text>
  </g>
  <text transform="scale(4.0128205 .24920128)" x="-326.55" y="1147.62"/>
  <text x="-1879.02" y="270.63">
    <tspan x="-1879.02" y="270.63"/>
  </text>
  <text transform="scale(4.0128205 .24920128)" x="-150.53" y="523.09"/>
  <text x="-1845.65" y="262.51">
    <tspan x="-1845.65" y="262.51"/>
  </text>
  <text transform="scale(4.0128205 .24920128)" x="-142.21" y="490.49"/>
  <text x="-695.23" y="108.1">
    <tspan x="-695.23" y="108.1"/>
  </text>
  <text transform="scale(4.0128205 .24920128)" x="23.831" y="84.63"/>
  <text x="-113.97" y="28.1">
    <tspan x="-113.97" y="28.1"/>
  </text>
  <text transform="scale(4.0128205 .24920128)" x="168.68" y="-236.41"/>
  <text x="-1185.55" y="-153.16">
    <tspan x="-1185.55" y="-153.16"/>
  </text>
  <text transform="scale(4.0128205 .24920128)" x="-98.36" y="-963.73"/>
  <text x="-87.5" y="-369.63">
    <tspan x="-87.5" y="-369.63"/>
  </text>
  <text transform="scale(4.0128205 .24920128)" x="175.28" y="-1832.41"/>
  <text x="493.77" y="-449.63">
    <tspan x="493.77" y="-449.63"/>
  </text>
  <text transform="scale(4.0128205 .24920128)" x="320.12" y="-2153.44"/>
  <text x="104.65" y="-922.03">
    <tspan x="104.65" y="-922.03"/>
  </text>
  <text transform="scale(4.0128205 .24920128)" x="223.16" y="-4049.07"/>
  <text x="685.91" y="-1002.04">
    <tspan x="685.91" y="-1002.04"/>
  </text>
  <text transform="scale(4.0128205 .24920128)" x="368" y="-4370.1"/>
  <g transform="translate(.0012 -.0195)">
    <text x="-1146.89" y="412.7">
      <tspan x="-1146.89" y="412.7"/>
    </text>
    <text x="-745.68" y="-630.89">
      <tspan x="-745.68" y="-630.89"/>
    </text>
  </g>
  <text transform="scale(4.0128205 .24920128)" x="11.261" y="-2880.85"/>
  <text x="-164.41" y="-710.91">
    <tspan x="-164.41" y="-710.91"/>
  </text>
  <text transform="scale(4.0128205 .24920128)" x="156.11" y="-3201.88"/>
  <text x="-1235.99" y="-892.17">
    <tspan x="-1235.99" y="-892.17"/>
  </text>
  <text transform="scale(4.0128205 .24920128)" x="-110.93" y="-3929.24"/>
  <text x="-137.94" y="-1108.64">
    <tspan x="-137.94" y="-1108.64"/>
  </text>
  <text transform="scale(4.0128205 .24920128)" x="162.71" y="-4797.88"/>
  <text x="443.32" y="-1188.65">
    <tspan x="443.32" y="-1188.65"/>
  </text>
  <text transform="scale(4.0128205 .24920128)" x="307.55" y="-5118.92"/>
  <text x="54.2" y="-1661.05">
    <tspan x="54.2" y="-1661.05"/>
  </text>
  <text transform="scale(4.0128205 .24920128)" x="210.59" y="-7014.55"/>
  <text x="635.47" y="-1741.05">
    <tspan x="635.47" y="-1741.05"/>
  </text>
  <text transform="scale(4.0128205 .24920128)" x="355.43" y="-7335.58"/>
  <g transform="translate(.0012 -.0195)">
    <text x="-1197.34" y="-326.31">
      <tspan x="-1197.34" y="-326.31"/>
    </text>
    <text x="2358.46" y="-1373.77">
      <tspan x="2358.46" y="-1373.77"/>
    </text>
  </g>
  <text transform="scale(4.0128205 .24920128)" x="784.8" y="-5861.85"/>
  <text x="2939.72" y="-1453.79">
    <tspan x="2939.72" y="-1453.79"/>
  </text>
  <text transform="scale(4.0128205 .24920128)" x="929.65" y="-6182.89"/>
  <text x="1868.14" y="-1635.04">
    <tspan x="1868.14" y="-1635.04"/>
  </text>
  <text transform="scale(4.0128205 .24920128)" x="662.61" y="-6910.21"/>
  <text x="2966.19" y="-1851.52">
    <tspan x="2966.19" y="-1851.52"/>
  </text>
  <text transform="scale(4.0128205 .24920128)" x="936.25" y="-7778.88"/>
  <text x="3547.46" y="-1931.52">
    <tspan x="3547.46" y="-1931.52"/>
  </text>
  <text transform="scale(4.0128205 .24920128)" x="1081.09" y="-8099.92"/>
  <text x="3158.34" y="-2403.92">
    <tspan x="3158.34" y="-2403.92"/>
  </text>
  <text transform="scale(4.0128205 .24920128)" x="984.13" y="-9995.55"/>
  <text x="3739.61" y="-2483.92">
    <tspan x="3739.61" y="-2483.92"/>
  </text>
  <text transform="scale(4.0128205 .24920128)" x="1128.97" y="-10316.57"/>
  <g transform="translate(.0012 -.0195)">
    <text x="1906.8" y="-1069.19">
      <tspan x="1906.8" y="-1069.19"/>
    </text>
    <text x="-2635.81" y="-315.11">
      <tspan x="-2635.81" y="-315.11"/>
    </text>
  </g>
  <text transform="scale(4.0128205 .24920128)" x="-339.12" y="-1827.44"/>
  <text x="-2635.81" y="-315.13">
    <tspan x="-2635.81" y="-315.13"/>
  </text>
  <text transform="scale(4.0128205 .24920128)" x="-339.12" y="-1827.44"/>
  <text x="-2969.36" y="317.78">
    <tspan x="-2969.36" y="317.78"/>
  </text>
  <text transform="scale(4.0128205 .24920128)" x="-422.24" y="712.32"/>
  <text x="-2263.02" y="162.15">
    <tspan x="-2263.02" y="162.15"/>
  </text>
  <text transform="scale(4.0128205 .24920128)" x="-246.22" y="87.8"/>
  <g fill="#ffffff" fill-rule="evenodd" transform="matrix(1.78319 0 0 1.78319 -982.9588 -237.6795)">
    <rect height="49.52" rx="6.436" width="81.977" x="653.81" y="223.91"/>
    <path d="m686.81 282.31v10.906h-84.12v10.156 4.656 13.156h15.531v-13.156h68.59v14.09h15.531v-14.09h68.34v14.375h15.531v-14.375-3.406-11.406h-83.87v-10.906h-15.531"/>
    <rect height="32.791" rx="6.436" width="53.871" x="750.85" y="331.32"/>
    <rect height="32.791" rx="6.436" width="53.871" x="584.88" y="331.32"/>
    <rect height="32.791" rx="6.436" width="53.871" x="667.09" y="331.32"/>
  </g>
</svg>
