<svg viewBox="0 0 512 512" xmlns="http://www.w3.org/2000/svg">
 <path d="m233.29885 56c-8.47747 0-14.4441 6.17502-15.31609 13.7069l-4.88506 42.29885c-9.86144 2.93515-19.2938 6.87474-28.18965 11.66666l-33.36207-26.46551c-5.93991-4.70633-14.52055-4.84888-20.51724 1.14942l-31.89655 31.86782c-5.9943 5.99431-5.68455 14.44853-1.14942 20.51724l25.63217 34.25287c-9.47424 21.75165-11.63399 27.87775-11.60919 27.78736l-42.29885 4.88506c-7.52787.87199-13.70689 6.86416-13.70689 15.34482v45.05748c0 8.47746 6.20302 14.20417 13.70689 15.28735l42.47126 6.17816c2.94075 9.73825 6.85487 19.02344 11.6092 27.81609l-26.20689 33.10345c-4.70633 5.9399-4.87362 14.52054 1.12069 20.51724l31.86781 31.86782c5.9943 5.9943 14.41339 5.68455 20.4885 1.14943l34.1092-25.48851c8.82386 4.72873 18.16559 8.64457 27.93103 11.55172l4.88506 42.24138c.87199 7.52788 6.83542 13.7069 15.31609 13.7069h45.11494c8.47747 0 14.17544-6.18228 15.25862-13.67816l6.14943-42.52874c9.49424-2.88955 18.59285-6.73464 27.18391-11.35057l34.45402 25.77586c6.0711 4.53593 14.54927 4.84888 20.54598-1.14942l31.86781-31.86782c5.99431-5.99431 5.82782-14.57813 1.12069-20.51724l-26.60919-33.59196c4.69112-8.71746 8.5823-17.91442 11.49425-27.55747l42.41379-6.17816c7.49988-1.08558 13.7069-6.83543 13.7069-15.31609v-45.08621c0-8.47747-6.18302-14.38663-13.7069-15.25862l-42.38505-4.94253c-2.87916-9.58545-6.65958-18.77066-11.29311-27.44253l25.91954-34.77011c4.53593-6.0711 4.84889-14.52054-1.14942-20.51724l-31.86782-31.89655c-5.99431-5.99431-14.5494-5.82782-20.4885-1.12069l-33.76437 26.75287c-8.67586-4.68393-17.84749-8.54477-27.44253-11.46552l-6.14943-42.5862c-1.08558-7.49988-6.78435-13.67816-15.25862-13.67816h-45.0862l-.0287-.0287zm-61.26437 144.39655c15.46375 0 27.98851 12.52476 27.98851 27.98851 0 15.46376-12.52476 28.01724-27.98851 28.01724-15.46375 0-28.01724-12.55348-28.01724-28.01724 0-15.46375 12.55349-27.98851 28.01724-27.98851zm83.99426 0c15.46375 0 27.9885 12.52476 27.9885 27.98851 0 15.46376-12.52475 28.01724-27.9885 28.01724-15.46376 0-28.01725-12.55348-28.01725-28.01724 0-15.46375 12.55349-27.98851 28.01725-27.98851zm83.99425 0c15.46375 0 27.9885 12.52476 27.9885 27.98851 0 15.46376-12.52475 28.01724-27.9885 28.01724-15.46375 0-28.01724-12.55348-28.01724-28.01724 0-15.46375 12.55349-27.98851 28.01724-27.98851zm-183.90805 80.83334h199.79885c7.05189 0 12.72989 5.13343 12.72989 11.55172 0 6.4159-5.6788 11.60919-12.72989 11.60919h-199.79885c-7.05189 0-12.70115-5.19089-12.70115-11.60919 0-6.41589 5.65006-11.55172 12.70115-11.55172z" fill="#d44e2b"/>
</svg>
