<svg viewBox="0 0 512 512" xmlns="http://www.w3.org/2000/svg">
 <path d="m233.30208 56c-8.4774 0-14.44767 6.16466-15.31965 13.6957l-4.88709 42.31027c-9.86139 2.93513-19.27958 6.87505-28.17538 11.66694l-33.37287-26.46342c-5.93987-4.70629-14.51968-4.84789-20.51714 1.14478l-31.87611 31.8761c-5.99426 5.99426-5.68067 14.44768-1.14478 20.51714l25.62344 34.25365c-9.47418 21.75153-11.64774 27.87219-11.62293 27.78179l-42.31028 4.88709c-7.52783.87198-13.6957 6.84465-13.6957 15.31966v45.08702c0 8.47741 6.19267 14.19169 13.6957 15.27966l42.48706 6.16386c2.94074 9.73819 6.86865 19.03238 11.62295 27.82579l-26.24023 33.11127c-4.70629 5.93987-4.84788 14.51968 1.14479 20.51715l31.87609 31.8761c5.99427 5.99427 14.39969 5.68068 20.47315 1.14477l34.12164-25.49223c8.82382 4.72869 18.1476 8.62861 27.9138 11.53494l4.88708 42.26627c.87199 7.52783 6.84386 13.6957 15.31966 13.6957h45.08702c8.47742 0 14.19169-6.19266 15.27966-13.6957l6.16386-42.52707c9.4942-2.88953 18.5676-6.69904 27.16501-11.31174l34.47125 25.75943c6.07106 4.5359 14.51968 4.8479 20.51715-1.14478l31.87609-31.87609c5.99426-5.99427 5.85108-14.57727 1.14478-20.51715l-26.63941-33.59287c4.6911-8.7174 8.57901-17.91879 11.49094-27.56098l42.43907-6.16387c7.49983-1.08557 13.6957-6.84385 13.6957-15.31967v-45.08701c0-8.47741-6.16467-14.40767-13.6957-15.27966l-42.39826-4.93109c-2.87913-9.58538-6.67825-18.75479-11.31176-27.4314l25.93223-34.78163c4.53591-6.07108 4.8479-14.51968-1.14477-20.51714l-31.87609-31.87611c-5.99427-5.99426-14.53569-5.85106-20.47316-1.14477l-33.76725 26.76901c-8.67582-4.68389-17.83321-8.571-27.4314-11.49095l-6.16386-42.57506c-1.08559-7.49984-6.79987-13.6957-15.27968-13.6957zm22.71791 136.97299c34.81844 0 63.04662 28.23138 63.04662 63.04661 0 34.81844-28.23138 63.04661-63.04662 63.04661-34.81843 0-63.04662-28.23137-63.04662-63.04661 0-34.81843 28.23139-63.04661 63.04662-63.04661" fill="#d44e2b"/>
</svg>
