<svg viewBox="0 0 512 512" xmlns="http://www.w3.org/2000/svg">
 <path d="m120.8122 56v73.5937c6.7-4.7081 15.0868-5.6562 25.4688-5.6562 10.3518 0 19.7062.9481 26.4062 5.6562v-73.5937zm209.9688.3437c-22.4689 0-40.875 18.3749-40.875 40.8438v6.75c0 22.4689 18.4061 40.875 40.875 40.875h66.1562c22.4689 0 40.875-18.4061 40.875-40.875v-6.75c0-22.4689-18.4061-40.8438-40.875-40.8438zm0 19.5625h66.1562c11.9525 0 21.2813 9.3288 21.2813 21.2813v6.75c0 11.9525-9.3288 21.25-21.2813 21.25h-66.1562c-11.9525 0-21.2813-9.2975-21.2813-21.25v-6.75c0-11.9525 9.3288-21.2813 21.2813-21.2813zm-184.4375 55.1563c-40.3208 0-72.625 33.2417-72.625 73.5625 0 40.3208 32.3042 72.625 72.625 72.625 40.3208 0 73.5937-32.3042 73.5937-72.625 0-40.3208-33.2428-73.5625-73.5937-73.5625zm184.4375 28.9687c-22.4689 0-40.875 18.4062-40.875 40.875v6.75c0 22.4689 18.4061 40.875 40.875 40.875h66.1562c22.4689 0 40.875-18.4061 40.875-40.875v-6.75c0-22.4688-18.4061-40.875-40.875-40.875zm-184.4375 5.9375c21.1261 0 38.6562 17.5603 38.6562 38.6563 0 21.1261-17.5603 37.7187-38.6562 37.7187-21.1262 0-37.7188-16.5926-37.7188-37.7187 0-21.096 16.5926-38.6563 37.7188-38.6563zm184.4062 97.3438c-22.7577 0-41.1875 18.3673-41.1875 41.125v7.0625c0 22.7578 18.4298 41.125 41.1875 41.125h66.375c22.7578 0 41.1563-18.3672 41.1563-41.125v-7.0625c0-22.7577-18.3985-41.125-41.1563-41.125zm-158.125 14.25c-6.8509 5.1608-15.4196 7.5625-26.375 7.5625-9.7784 0-18.9498-1.4321-25.4687-5.6875v176.375h51.8437zm158.1563 89.9375c-22.4689 0-40.875 18.4061-40.875 40.875v6.75c0 22.4689 18.4061 40.875 40.875 40.875h66.1562c22.4689 0 40.875-18.4061 40.875-40.875v-6.75c0-22.4689-18.4061-40.875-40.875-40.875z" fill="#d44e2b"/>
</svg>
