<svg viewBox="0 0 512 512" xmlns="http://www.w3.org/2000/svg">
 <path d="m92.45947 63.49969v106.81694l-47.46357 35.60565v204.70856l129.79964-124.60383-58.62022-45.99727v-152.8142h166.13844v71.21129h71.21128v71.21129c4.22459-.45093 8.27156-.76502 12.59108-.76502 21.47894 0 41.17599 6.26565 58.62022 16.35246v-39.30328l-47.49544-35.60565v-35.60565l-71.17943-71.21129zm0 136.46175v.0319 21.48452l-14.08925-11.12477 14.08925-10.39162zm284.78143 0l14.12113 10.39162-14.12113 11.12477v-21.48452-.0319zm-11.12478 46.79417c-55.60791 0-100.8561 45.24819-100.8561 100.8561 0 55.60791 45.24819 100.88798 100.8561 100.88798 55.60791 0 100.88798-45.28007 100.88798-100.88798 0-55.60791-45.28007-100.8561-100.88798-100.8561zm-131.26594 14.79053l-189.85428 181.69399h251.43898c-29.42971-21.64508-48.99362-56.53911-48.99362-95.62842 0-21.47894 6.26566-41.17599 16.35245-58.62022l-28.94353-27.41348v-.0319zm105.31876 8.22404h51.92623v51.92623h51.92623v51.92623h-51.92623v51.92623h-51.92623v-51.92623h-51.92623v-51.92623h51.92623z" fill="#d44e2b"/>
</svg>
