<svg viewBox="0 0 512 512" xmlns="http://www.w3.org/2000/svg">
 <path d="m273.25794 130.44281c13.67879.35376 89.6519 50.64995 96.88318 55.42799 7.59063 5.01872 90.85889 60.08947 90.85889 70.13543 0 10.04596-83.27199 65.10959-90.85889 70.13543-7.58567 5.01871-90.82631 60.1132-98.42562 55.09448-7.59062-5.0187-7.56672-115.18252-7.56672-125.22991 0-10.04596-.0252-120.20694 7.56672-125.22993.3558-.2355.86972-.35089 1.54244-.33349zm-213.14878 0c13.67879.35376 89.6519 50.64995 96.88318 55.42799 7.58565 5.01872 90.85888 60.08947 90.85888 70.13543 0 10.04596-83.27199 65.10959-90.85888 70.13543-7.59064 5.01871-90.83873 60.1132-98.42562 55.09448-7.58567-5.0187-7.56673-115.18252-7.56673-125.22991 0-10.04596-.0252-120.20694 7.56673-125.22993.3558-.2355.86971-.35089 1.54244-.33349z" fill="#d44e2b" fill-rule="evenodd"/>
</svg>
