<svg viewBox="0 0 512 512" xmlns="http://www.w3.org/2000/svg">
 <path d="m124.38578 80.48982c-40.51234 0-73.38579 32.844-73.38579 73.35634v146.03507c0 40.51234 32.87345 73.35634 73.38579 73.35634h44.54408c-.30419-2.26885-.67759-4.49236-.67759-6.86427v-52.08595h-14.40612c-24.30992 0-43.8665-19.58604-43.8665-43.89595v-87.76245c0-24.30993 19.55658-43.8665 43.8665-43.8665h204.33715c24.30992 0 43.86649 19.55657 43.86649 43.8665v87.76245c0 24.30991-19.55657 43.89595-43.86649 43.89595h-14.40612v-58.27261l-117.25229 87.73299 117.25229 87.76245v-58.27261h43.86649c40.51234 0 73.35634-32.844 73.35634-73.35634v-146.03507c0-40.51234-32.844-73.35634-73.35634-73.35634zm85.28778 78.2173c-1.21299.20614-2.63736.59305-3.44687.79544-18.57433 4.23726-21.58015 4.84556-30.2558 5.45016-13.9273.81074-13.94631.82489-14.55343.82489-.81075 0-1.79708-.00008-3.21117-.20623v15.73185l2.8282.20622c22.61048 1.21299 23.00855 1.43311 23.00855 14.55343v68.024c0 12.11347-2.01722 13.73732-20.59281 15.14263l-5.24394.41244v16.55673h86.99648v-16.55673l-4.62528-.41244c-.40224 0-2.43107-.21133-4.44852-.41244-14.13595-1.00684-16.76295-3.22509-16.76295-14.73019v-105.37976z" fill="#d44e2b"/>
</svg>
