<svg viewBox="0 0 512 512" xmlns="http://www.w3.org/2000/svg">
 <path d="m120.8041 56v73.5968c6.7-4.7081 15.09-5.6716 25.4719-5.6716 10.3519 0 19.7117.9635 26.4117 5.6716v-73.5968zm209.9841.3356c-22.4689 0-40.8759 18.3735-40.8759 40.8424v6.7455c0 22.4689 18.407 40.8759 40.8759 40.8759h66.1465c22.4689 0 40.8759-18.407 40.8759-40.8759v-6.7455c0-22.4689-18.407-40.8424-40.8759-40.8424zm0 19.5654h66.1465c11.9524 0 21.2769 9.3245 21.2769 21.277v6.7455c0 11.9525-9.3245 21.2769-21.2769 21.2769h-66.1465c-11.9525 0-21.277-9.3244-21.277-21.2769v-6.7455c0-11.9525 9.3245-21.277 21.277-21.277zm-184.445 55.1724c-40.3208 0-72.6236 33.2424-72.6236 73.5632 0 40.3208 32.3028 72.6236 72.6236 72.6236 40.3208 0 73.5967-32.3028 73.5967-72.6236 0-40.3208-33.2458-73.5632-73.5967-73.5632zm184.445 28.9622c-22.4689 0-40.8759 18.407-40.8759 40.8759v6.7455c0 22.4689 18.407 40.8759 40.8759 40.8759h66.1465c22.4689 0 40.8759-18.407 40.8759-40.8759v-6.7455c0-22.4689-18.407-40.8759-40.8759-40.8759zm-184.445 5.9401c21.1261 0 38.6609 17.5649 38.6609 38.6609 0 21.1262-17.565 37.7213-38.6609 37.7213-21.1262 0-37.7213-16.5951-37.7213-37.7213 0-21.096 16.5951-38.6609 37.7213-38.6609zm184.445 13.6588h66.1465c11.9524 0 21.2769 9.3245 21.2769 21.277v6.7455c0 11.9525-9.3245 21.277-21.2769 21.277h-66.1465c-11.9525 0-21.277-9.3245-21.277-21.277v-6.7455c0-11.9525 9.3245-21.277 21.277-21.277zm-.034 83.6648c-22.7578 0-41.178 18.3866-41.178 41.1444v7.0475c0 22.7578 18.4202 41.1444 41.178 41.1444h66.3814c22.7577 0 41.1444-18.3866 41.1444-41.1444v-7.0475c0-22.7578-18.3867-41.1444-41.1444-41.1444zm-158.1341 14.2629c-6.8509 5.1608-15.4226 7.551-26.3781 7.551-9.7784 0-18.953-1.4162-25.4719-5.6716v176.357h51.85zm158.1676 89.9404c-22.4689 0-40.8759 18.4071-40.8759 40.876v6.7455c0 22.4689 18.407 40.8759 40.8759 40.8759h66.1465c22.4689 0 40.8759-18.407 40.8759-40.8759v-6.7455c0-22.4689-18.407-40.876-40.8759-40.876z" fill="#d44e2b"/>
</svg>
