<svg viewBox="0 0 512 512" xmlns="http://www.w3.org/2000/svg">
 <path d="m145.35059 67.58846c-25.95209 0-47.13118 21.17908-47.13118 46.89568v.20607h23.55087v-23.55088h23.58031v23.55088h23.52144v-23.55088h23.55087v23.55088h23.31537v-.20607c0-25.905-20.93772-46.89568-47.10175-46.89568zm70.38768 47.10175v23.55087h.2355v-23.55087zm0 23.55087h-23.31537v23.55087h23.31537zm0 23.55087v23.55087h.2355v-23.55087zm0 23.55087h-23.31537v23.55088h-23.55087v-23.55088h-23.52144v23.55088h-23.58031v-23.55088h-23.55087v94.46844c0 25.90498 20.96715 46.92512 47.13118 46.92512h23.28593c25.95208 0 47.10175-21.20854 47.10175-46.92512zm-93.96799 0h23.58031v-23.55087h-23.58031zm0-23.55087v-23.55087h-23.55087v23.55087zm0-23.55087h23.58031v-23.55087h-23.58031zm23.58031 0v23.55087h23.52144v-23.55087zm23.52144 0h23.55087v-23.55087h-23.55087zm0 23.55087v23.55087h23.55087v-23.55087zm-117.87212 47.10175v70.65262c0 47.09997 47.10351 94.20349 94.20349 94.20349v47.10174h-70.65262v23.55088h164.88555v-23.55088h-70.65262v-47.10174c47.09999 0 94.17406-47.10352 94.17406-94.20349v-70.65262h-23.52144v70.65262c0 35.32498-35.32763 70.65262-70.65262 70.65262h-23.58031c-35.32498 0-70.65262-35.32764-70.65262-70.65262v-70.65262zm311.19535 97.4123c-3.63562 0-7.28476 1.36797-10.068 4.1214l-26.28866 26.3181-57.78796 58.34729c-2.76337 2.76336-3.97421 6.11639-3.97421 9.71473h-.11775c0 3.59834 1.26017 6.95138 4.00365 9.71474l25.75876 25.75876c5.50686 5.50685 14.51064 5.50685 20.07712 0l48.63256-48.63255 48.60311 48.63255c5.50685 5.50685 14.51063 5.50685 20.07712 0l25.75877-25.75876c5.50685-5.50684 5.50685-13.92262 0-19.42947l-58.90662-58.90662-25.75877-25.75877c-2.75342-2.75342-6.37351-4.1214-10.00912-4.1214z" fill="#d44e2b"/>
</svg>
