<svg viewBox="0 0 512 512" xmlns="http://www.w3.org/2000/svg">
 <path d="m120.90677 56.01287l140.53623 10.92598c.26337-.0172.51961-.0172.78298 0 1.28111.3965 2.38187 1.22386 3.12048 2.34323.42512.71571.69282 1.51587.78299 2.34322.0172.26338.0172.51961 0 .78299.0172.25765.0172.5196 0 .78298.0172.25765.0172.5196 0 .77726.0172.26338.0172.5196 0 .78298l-64.02286 125.70679c-.58688 1.41422-1.71054 2.53789-3.1262 3.1262-.25765.0172-.5196.0172-.77726 0-.26338.0172-.52532.0172-.78298 0-.26338.0172-.5196.0172-.78298 0-.25766.0172-.5196.0172-.77726 0-.26338.0172-.51961.0172-.783 0-1.41422-.58688-2.53789-1.71055-3.1262-3.1262l-21.85769-39.81623c-15.51079 13.11748-27.81236 29.71329-35.91418 48.40471-26.89484 62.16629 6.5473 147.99388 68.70787 174.89015 62.16631 26.90056 148.78117-7.32456 175.67744-69.49085h-.78298c6.81066-15.88871 10.6855-32.68778 10.9317-49.97067.2462-12.70379 10.71271-22.8239 23.42223-22.63924h14.83374c12.70952.24621 22.8239 10.7127 22.63924 23.42222-.32493 25.37896-5.60828 50.06657-15.611 73.38859-20.27454 46.85591-58.7166 85.04031-106.18228 103.8491-47.4657 18.79446-101.49011 17.93131-148.35174-2.34324-45.97702-19.89379-83.16516-58.31867-102.27453-104.62204-19.84942-48.06974-19.87233-102.95588.78297-150.68494 13.24632-30.3603 34.49708-57.28519 60.89665-77.29637-.10013-.2233.1288-.5926 0-.78298-.0172-.26338-.0172-.5196 0-.78298l-23.42222-41.37645c-.54824-.95046-.82163-2.02974-.78299-3.12621-.0172-.26338-.0172-.5196 0-.78298.18466-.55396.44804-1.07929.78299-1.56024.53677-.98911 1.34696-1.80645 2.34321-2.34323.71571-.42513 1.51587-.6928 2.34324-.77726.25766-.0229.5196-.0229.78298 0m135.06822 187.38641c19.48012 0 35.1312 15.65108 35.1312 35.13692 0 19.48582-15.65108 35.13692-35.1312 35.13692-19.48584 0-35.13692-15.6511-35.13692-35.13692 0-19.48584 15.65108-35.13692 35.13692-35.13692" fill="#d44e2b"/>
</svg>
