<svg viewBox="0 0 512 512" xmlns="http://www.w3.org/2000/svg">
 <path d="m183.45999 65.80152v.0312c-4.72394.0233-10.50556 1.48945-18.90625 4.375-22.59576 7.74912-24.34906 10.45135-24 29.8125.3258 17.63912-2.54436 22.71251-19.625 37.09375-15.49823 13.07808-20.15789 14.81572-31.28123 10.90625-13.49696-4.7472-26.36594 2.54971-34.90625 20.375-9.63404 20.08253-8.65918 25.52298 5.09375 38.53125 12.33342 11.65857 13.83571 17.98336 11.625 40.71875-1.67549 17.22025-3.71312 21.30079-16 30.5625-13.96237 10.54158-15.35352 16.357-8 37.8125 7.35351 21.43223 11.72853 24.5844 28.34375 23.28125 17.45295-1.37297 21.69124.84555 36.37499 17.4375 16.01017 18.10453 15.02785 16.73718 12.375 33.46875-3.25788 20.52468-.60244 24.22504 21.0625 34.90625 21.64166 10.65794 25.76102 9.86926 39.28125-5.09375 11.05354-12.24034 14.03784-12.86632 35.65625-11.65625 19.26808 1.09372 28.57389 4.60262 31.25 12.375 2.02454 5.93401 7.36925 11.62513 15.28125 16 5.1428 2.83902 7.03308 2.42536 24.71875-3.625.88428-.30252 1.34975-.4395 2.1875-.71875-1.23335-5.49187-.69812-10.20292 0-14.53125.0931-.5585-.0466-.37767 0-.75-.67485-1.00064-.69818-1.94951-2.1875-3.625-2.01806-2.28799-3.24202-3.26946-3.78125-3.65625-.48724-.0247-1.13922-.0366-2.03125.0312-5.74784.44214-14.64515.21458-21.8125-5.8125-7.16734-6.02709-8.69554-11.74154-10.90625-18.1875-2.23397-6.53904-4.77587-12.9464-2.9375-21.8125 1.83838-8.86611 8.28472-14.55728 13.125-18.1875.60527-.45524 1.00623-.79415 1.3125-1.09375-.11686.39791.0894.41067.34375-.34375.42387-.49186.34303-.66402.125-.46875.14183-.55586.29802-1.35462.40625-2.46875.38446-3.97826.10834-5.91985 0-6.46875-.23901-.29648-.61756-.72692-1.46875-1.53125-4.49122-4.23525-9.74272-10.34003-10.90625-19.625-.25598-2.07108-.0698-4.09846 0-5.84375-38.79211 17.40642-87.79584-10.6842-86.5625-58.15625.90755-34.95245 28.52018-59.67688 59.65625-60.375 9.54095-.20943 19.64588 1.76078 29.09375 6.53125 30.18198 15.26552 41.11937 47.98486 30.53125 76.375 2.69076.0219 5.63127.16302 8.21875.625.40085-.45803 1.841-1.58759 4.15625-3.53125 2.94595-2.47132 4.0513-3.60256 4.34375-3.8125.0261-.44281.0482-1.09999.0312-2.03125-.11635-5.81766-.47057-14.1332 5.8125-21.8125 6.28306-7.65603 12.41375-9.39102 18.90625-11.625 3.07172-1.04718 6.76672-1.51265 10.1875-2.1875l2.90625-.75h2.9375c6.4925-.0465 14.01408 3.30996 18.15625 7.3125 2.67612 2.58304 4.64633 5.30061 6.53125 8 1.93146.25598 4.30267.39296 9.46875.71875.0698-.0931-.79384.1602.71875-1.46875 3.86292-4.11889 9.36523-8.18623 16.71875-10.1875.46541-.11636.98007-.62567 1.46875-.71875 2.35034-1.72203 5.2747-3.25537 8.71875-5.09375 11.89128-6.3296 12.47587-11.52457 5.84375-33.46875-7.91201-26.17944-11.19872-29.1662-31.28125-28.375-18.08127.72139-20.91797-.72921-35.625-17.4375-13.86928-15.77748-16.31308-21.76093-13.125-32 4.84029-15.45169-.54832-26.64518-16-34.90625-22.73534-12.14721-28.59477-11.6172-42.9062 3.62505-10.70448 11.4026-15.20647 13.13495-27.65625 12.34375-25.78384-1.65221-32.90234-2.48216-35.625-6.53125-11.26299-16.75484-16.43179-23.28125-25.43751-23.28125zm119.25 199.875c-.009.15276-.0203.17541-.0312.28125.0172-.0424.0401-.0828.0625-.125.11737-.22784.0921-.24481-.0312-.15625zm-.0312.28125c-.18664.46118-.0807.78061 0 0zm-8.4688 7.0625c-.25184.28776-.12851.30925.5.0937-.16176-.0321-.33506-.0643-.5-.0937zm-28.5625 62c .0281.0348.0405.0647.0625.0937-.0226-.0494-.046-.0994-.0625-.15625.002.0101-.002.0511 0 .0625zm.0625.0937c.15675.3429.30467.40239 0 0zm22.3125 74.71875c.0281.001.0669-.002.0937 0-.49534-.25053-.50104-.29215-.0937 0zm .0937 0c .0361.0183.0215.0114.0625.0312 1.02971.47934 1.52458.0644-.0625-.0312zm55.375-165.34375c-2.55976.0233-5.71223.97212-10.25 2.53125-12.24035 4.21198-13.27991 5.44245-13.09375 15.9375.18617 9.56422-1.32406 12.39184-10.5625 20.1875-8.40069 7.07426-11.19167 8.05513-17.21875 5.9375-7.30697-2.58304-13.99415 1.39722-18.625 11.03125-5.21261 10.89065-4.8841 13.7615 2.5625 20.8125 6.67867 6.30633 7.67881 9.68985 6.46875 22-.90756 9.33152-2.09461 11.5673-8.75 16.59375-7.56295 5.7013-8.19802 8.88796-4.21875 20.5 3.97928 11.61203 6.08801 13.40889 15.09375 12.6875 9.44785-.74466 11.72097.2988 19.65625 9.28125 8.67993 9.8202 8.44276 9.19773 7 18.25-1.76858 11.12335-.63464 13.04937 11.09375 18.84375 11.72838 5.77112 14.00551 5.44193 21.3125-2.65625 5.98054-6.63212 7.58411-7.15157 19.3125-6.5 10.44851.58177 15.77596 2.75677 17.21875 6.96875 1.09372 3.21134 3.81196 6.00139 8.09375 8.375 2.79248 1.53586 4.06078 1.34365 13.625-1.9375 12.44977-4.2818 14.28255-6.21433 13.375-14.3125-1.18681-10.77429-.41929-12.58068 8.65625-20.5625 9.91327-8.70321 10.79606-9.04982 17.21875-7.28125 9.93655 2.74593 14.51211.5875 19.46875-9 5.81765-11.28624 5.80239-16.75079.0312-21.21875-8.49377-6.58558-9.48668-8.93651-8.71875-20.78125.74466-11.54222 2.41382-14.39242 11.09375-19 6.44596-3.44405 6.95868-6.22574 3.375-18.09375-4.28179-14.1718-6.25762-15.9109-17.125-15.46875-9.79692.3956-11.26818-.35398-19.25-9.40625-7.51641-8.54031-8.84702-11.78207-7.125-17.34375 2.62957-8.37741-.0521-14.34454-8.40625-18.8125-12.31016-6.58558-15.77416-6.32356-23.5 1.9375-5.7944 6.16671-8.09528 7.23137-14.84375 6.8125-13.96238-.88428-17.88568-1.66429-19.375-3.875-6.0969-9.07554-8.82394-12.42952-13.6875-12.40625l.0937-.0312zm23.0625 66.84375c5.16606-.11636 10.50546 1.04196 15.625 3.625 21.19952 10.72775 25.44898 37.7671 8.53125 54.3125-21.31588 20.85047-57.41621 4.89475-56.625-25.03125.48867-18.94228 15.59755-32.53392 32.46875-32.90625z" fill="#d44e2b" fill-opacity=".969"/>
</svg>
