<svg viewBox="0 0 512 512" xmlns="http://www.w3.org/2000/svg">
 <path d="m161.63995 50.96639c-3.56213-.0513-7.17105 1.19715-10.22062 3.88796-5.56116 4.86908-5.52058 4.72017-5.80249 32.5764-.15373 16.14484.0292 26.57907.61854 29.21862 1.10192 5.15097 4.11087 9.10538 8.365 11.10425 7.50862 3.51088 16.98168.34592 20.44125-6.80393 1.69139-3.48524 1.76245-4.25155 1.53163-31.92841l-.26509-28.39389-2.26798-3.00434c-3.30585-4.33091-7.80929-6.57595-12.37079-6.6272l-.0294-.0295z" fill="#d44e2b"/>
 <path d="m350.4417 50.99584c-4.56156.0513-9.03549 2.29629-12.34133 6.62721l-2.32689 3.00433v29.39535 29.33643l2.12071 3.23997c1.25571 1.89637 3.60125 3.8938 5.62576 4.91886 6.58607 3.25459 15.17812 1.50014 19.3809-4.03523 3.43398-4.5103 3.84586-8.78136 3.56396-36.02256-.28189-27.85624-.24148-27.70732-5.80248-32.5764-3.04959-2.69081-6.65852-3.93921-10.22063-3.88796z" fill="#d44e2b"/>
 <path d="m110.40625 82.78125c-14.607424 0-20.142404.33306-23.781254 1.28125-15.478606 4.02339-28.144036 15.9302-33.499996 31.5625l-1.78125 5.1875-.25 148.03125c-.23045 165.01044-.53347 154.03481 5.4375 166.15625 6.04797 12.24956 18.434606 21.77168 32.093746 24.71875 7.99534 1.717 326.231334 1.74849 334.406254.0312 14.01781-2.92144 26.37522-12.31542 32.5-24.71875 5.97103-12.12144 5.60563-1.14581 5.375-166.15625l-.1875-148.03125-1.78125-5.1875c-5.35598-15.63229-17.99022-27.57036-33.46875-31.59375-3.639-.94819-9.23652-1.21875-23.84375-1.21875h-19.09375v15.40625c0 8.48244-.31434 17.47421-.75 20.0625-2.02451 12.40334-10.46485 22.26163-22.125 25.875-5.20222 1.58886-13.4803 1.51511-18.375-.125-9.81503-3.28021-17.35603-10.75871-20.6875-20.625-1.07632-3.22896-1.28125-7.24712-1.28125-22.1875v-18.3125h-63.34375-63.25v18.3125c0 14.94038-.27299 18.95854-1.375 22.1875-7.79054 23.08968-36.75827 29.65119-53.03125 11.96875-4.12585-4.48468-7.09999-10.67021-8.125-17-.4101-2.56267-.78706-11.61131-.8125-20.09375v-15.40625h-19l .0312-.125zm-28.218754 109.84375h173.781254 173.84375v111.1875c0 78.95593-.23433 112.06298-.875 114.34375-1.1532 4.17715-6.51034 9.5968-10.6875 10.75-2.30641.64067-48.2586.90063-162.65625.875-135.36033-.0256-159.908614-.24493-162.625004-1.21875-4.04914-1.43509-8.84119-6.4766-9.96875-10.5-.58946-2.15265-.8125-37.34421-.8125-114.25z" fill="#d44e2b"/>
 <path d="m161.01308 413.82958c-6.99795-3.19004-9.38791-7.29386-10.02085-17.20684-.23574-3.69207-1.07428-10.63987-1.86345-15.43957-1.90599-11.59223-1.90448-24.41156.004-36.24943.7739-4.79969 1.59311-11.44542 1.82046-14.76828.54325-7.93987 1.73832-11.10397 5.41696-14.34203 3.70196-3.25859 7.68497-4.35496 13.6591-3.75981 11.35166 1.13086 21.17012 5.04186 39.1853 15.6087 7.20599 4.2267 9.84462 6.10906 9.59704 6.84644-.18781.55934-.97667 2.79357-1.75304 4.96496-1.32967 3.71891-1.39964 5.04801-1.20597 22.90685l.20561 18.95887 2.51452 4.89838c1.383 2.69408 2.44027 4.94629 2.3495 5.00488-.0907.0586-4.09204 2.8348-8.89173 6.16935-4.79969 3.33457-10.85863 7.31297-13.4643 8.84089-12.12651 7.11078-30.45301 10.80338-37.55342 7.56664zm175.20556.5767c-5.75004-.87255-11.88316-2.70668-17.09634-5.11275-5.87754-2.7127-8.80159-4.51627-20.32309-12.53557l-8.55415-5.95392 1.61609-2.79658c3.33745-5.77527 3.74604-8.76271 3.72737-27.25252-.0164-16.29646-.0981-17.40101-1.61662-21.85871-.87961-2.58223-1.47144-4.90182-1.31517-5.15465.63494-1.02737 23.85681-14.12589 28.97688-16.3447 7.76623-3.36552 14.90227-5.06116 21.96916-5.22017 5.07218-.11415 6.47243.0959 8.72673 1.30909 5.52033 2.97089 8.34647 8.02598 8.38682 15.00144.0139 2.39985.62467 8.58375 1.35732 13.74202 1.68569 11.86832 1.68517 22.16025-.002 38.2862-.73369 7.01296-1.34449 14.86541-1.35733 17.44985-.0156 3.1276-.44061 5.59694-1.27113 7.38414-1.55259 3.341-5.64583 7.32235-8.93826 8.69394-2.6317 1.09635-8.47485 1.24476-14.28638.36289zm-95.87816-23.75034c-6.57014-1.82588-12.32048-7.56344-14.25719-14.22547-.85045-2.92546-1.01871-6.30559-.84153-16.90536.20401-12.20636.34569-13.52417 1.80068-16.74872 1.96614-4.35737 6.80065-8.96073 11.1874-10.65251 2.91777-1.12527 5.15263-1.28715 17.77016-1.28715 14.42336 0 14.43509.002 18.23248 1.86605 4.37581 2.14887 8.1456 6.01678 10.20497 10.47059 1.32799 2.87202 1.43477 4.20202 1.43477 17.87123v14.76828l-1.86604 3.79984c-2.15166 4.38149-6.02459 8.15297-10.47058 10.1963-2.78825 1.28146-4.4646 1.4424-16.52867 1.58682-9.60886.11502-14.34704-.0953-16.66645-.7399zm131.59895-35.48509c-.21588-4.15358-.88561-10.80752-1.48829-14.78654l-1.09577-7.23458 4.24148-4.59001c5.21819-5.64697 8.87247-11.70225 10.7337-17.78615 1.36437-4.45975 1.37439-4.75083.28277-8.21389-5.4514-17.29385-30.92879-34.43659-64.77872-43.58709-33.22264-8.98094-74.38366-10.46326-110.02233-3.96222-29.79581 5.43521-55.18476 16.30416-70.42057 30.14688-4.98038 4.52501-10.44094 12.44061-12.00502 17.40243-1.09162 3.46306-1.0816 3.75414.28277 8.21389 1.80878 5.91245 5.46591 12.05774 10.35209 17.39519 4.4951 4.91028 4.42793 4.4518 2.52172 17.208-.736 4.92524-1.34015 10.52306-1.34257 12.43962-.003 1.91654-.31439 3.67621-.69329 3.91038-1.11205.68728-9.30891-5.82335-15.81746-12.56355-7.1193-7.37272-11.75705-14.52246-14.63355-22.55965-3.37327-10.68012-3.03291-32.61893-.57331-41.94356 6.54017-22.56392 24.12598-41.00182 52.59511-55.1435 19.20984-9.54224 39.87626-15.50769 65.71396-18.96858 12.94268-1.73364 47.47302-1.73364 60.4157 0 26.01161 3.48419 45.42813 9.09148 65.45036 18.90141 28.51465 13.9708 46.28534 32.53221 52.85871 55.21067 4.75545 17.74758 4.51404 27.72904-.57331 41.94356-2.8362 7.92461-7.49134 15.15427-14.33681 22.26579-5.1813 5.3827-15.41991 13.85346-16.74466 13.85346-.29161 0-.70683-3.39838-.92271-7.55196z" fill="#d44e2b"/>
</svg>
