<svg viewBox="0 0 512 512" xmlns="http://www.w3.org/2000/svg">
 <path d="m161.63994 50.91942c-3.56212-.0513-7.17105 1.19743-10.22061 3.88885-5.56116 4.8702-5.52058 4.72125-5.8025 32.58387-.15372 16.14853.0292 26.58515.61854 29.22531 1.10192 5.15215 4.11087 9.10746 8.36501 11.10679 7.50862 3.51168 16.98167.346 20.44126-6.80549 1.69138-3.48604 1.76243-4.25252 1.53162-31.93572l-.26509-28.4004-2.26797-3.00502c-3.30586-4.33191-7.80929-6.57746-12.37078-6.62873l-.0294-.0295zm188.80175.0295c-4.56157.0513-9.03549 2.29682-12.34134 6.62873l-2.32688 3.00502v29.40208 29.34315l2.1207 3.24071c1.25572 1.89681 3.60126 3.89469 5.62577 4.91999 6.58607 3.25533 15.17812 1.50048 19.3809-4.03616 3.43397-4.51133 3.84585-8.78337 3.56396-36.0308-.28189-27.86263-.24149-27.71367-5.80249-32.58387-3.04958-2.69142-6.65851-3.94011-10.22062-3.88885zm-240.02268 31.78842c-14.60742 0-20.16019.34788-23.79904 1.29629-15.4786 4.02431-28.13352 15.91684-33.48948 31.55272l-1.79671 5.18514-.23563 148.07098c-.23045 165.04824-.55139 154.06528 5.41958 166.18949 6.04797 12.25237 18.446 21.7995 32.10513 24.74724 7.99535 1.71739 326.21921 1.74704 334.39411.0294 14.01781-2.92211 26.39272-12.34106 32.51749-24.74724 5.97103-12.12421 5.5913-1.14124 5.36069-166.18949l-.17672-148.07098-1.76727-5.18513c-5.35597-15.63587-18.01094-27.55788-33.48948-31.58219-3.63901-.94841-9.22125-1.23736-23.82849-1.23736h-19.08637v15.4081c0 8.48438-.33015 17.47406-.7658 20.06294-2.02452 12.40618-10.45999 22.28202-22.12014 25.89621-5.20222 1.58923-13.48475 1.52264-18.37945-.11784-9.81503-3.28096-17.34542-10.78361-20.67688-20.65216-1.07632-3.2297-1.296-7.24032-1.296-22.18413v-18.32474h-63.32662-63.26774v18.32474c0 14.94381-.28233 18.95443-1.38436 22.18413-7.79052 23.09497-36.74467 29.67712-53.01765 11.99063-4.12585-4.48571-7.10436-10.66775-8.12937-16.999-.4101-2.56326-.76981-11.63748-.79527-20.12186v-15.4081h-19.02743l.0589-.11785zm-28.24663 109.86006h173.80954 173.839v111.21527c0 78.97401-.24296 112.08631-.88363 114.3676-1.15321 4.17811-6.51474 9.59981-10.6919 10.75326-2.3064.64082-48.24873.90948-162.64637.88383-135.36035-.0256-159.90054-.23385-162.61693-1.2079-4.04913-1.43541-8.85743-6.49326-9.98499-10.51757-.58946-2.15314-.82472-37.35581-.82472-114.27922zm173.80954 14.99565c-7.61536.0002-14.10398 2.67649-19.46926 8.04285-6.57689 6.57857-9.83774 15.15964-9.83772 25.71946-.00002 11.25263 2.67565 24.41689 8.04101 39.47773l6.47993 18.44259c1.2115 3.11618 2.25675 6.74591 3.12215 10.90057 1.03843 4.15485 1.99166 8.83009 2.85707 14.02343.34613 2.07747.59269 4.23101.76581 6.48142.34611 2.25057.71416 4.58819 1.06036 7.01172h13.99076c2.07684-16.27271 4.68997-29.06883 7.80538-38.41714l6.47992-18.44259c5.36527-15.06084 8.04093-28.2251 8.04102-39.47773-.00009-11.07918-2.83031-19.66025-8.54172-25.71946-5.36541-5.36636-12.31408-8.04265-20.7947-8.04285zm-.50074 157.61634c-6.92304.00006-12.79703 2.42969-17.64309 7.27687-4.84612 4.84725-7.27521 10.75203-7.2752 17.6766-.00002 6.92462 2.42907 12.79992 7.2752 17.64714 4.84606 4.6741 10.72005 7.01172 17.64309 7.01172 7.26911 0 13.23509-2.33762 17.90819-7.01172 4.84605-4.84722 7.27513-10.72252 7.27521-17.64714-.00009-6.92457-2.42917-12.82935-7.27521-17.6766-4.67309-4.84718-10.63907-7.27681-17.90817-7.27687z" fill="#d44e2b"/>
</svg>
