<svg viewBox="0 0 512 512" xmlns="http://www.w3.org/2000/svg">
 <path d="m117.89001 51v383.90375h7.06896 43.17961 80.88074v-50.98493h-80.88074v-97.64008h80.88074v-51.01436h-80.88074v-76.96338h80.88074v-50.98491h-80.88074v-56.31609zm223.43824 31.42744c-27.82667 0-50.39585 22.53421-50.39585 50.36639 0 27.82666 22.56918 50.39582 50.39585 50.39582 27.83216 0 50.36637-22.56916 50.36637-50.39582 0-27.83218-22.53421-50.36639-50.36637-50.36639zm1.17816 126.77012c-28.49205 0-51.57401 23.0806-51.57401 51.57399 0 28.49202 23.0806 51.60346 51.57401 51.60346 28.492 0 51.60345-23.11006 51.60345-51.60346 0-28.49203-23.11005-51.57399-51.60345-51.57399zm0 148.62501c-28.49205 0-51.57401 23.11005-51.57401 51.60346 0 28.492 23.0806 51.57399 51.57401 51.57399 28.492 0 51.60345-23.08061 51.60345-51.57399 0-28.49205-23.11005-51.60346-51.60345-51.60346z" fill="#d44e2b"/>
</svg>
