<svg viewBox="0 0 512 512" xmlns="http://www.w3.org/2000/svg">
 <path d="m282.26849 35.99961c-106.48542-.00004-192.33551 86.59473-192.33551 193.08011 0 9.20018.15895 17.92053 1.40328 26.7769.0793.1284-.11176.53022-.0286.65868 6.05159 46.80067 21.28646 92.24866-4.78261 125.00664l-40.43743 40.46605-1.17418 1.17418c-10.40963 11.62566-10.00064 29.4058 1.17418 40.58061l3.5798 3.5798c11.17481 11.17482 28.9263 11.55518 40.55198 1.14554l.0286.0287 1.17417-1.17417 40.43743-40.43742c34.09297-26.12324 79.16996-9.87761 129.13055-5.49857 6.94706.76196 14.12978.0287 21.27834.0287 3.60574 0 6.75192.15765 10.30982-.0287 101.49801-5.57424 182.02568-90.1108 182.02568-192.9942 0-53.24884-21.40787-100.45869-56.3031-135.34509-34.8901-34.89531-82.78721-56.99044-136.0324-56.99044v-.0573zm0 42.55667c2.45105 3.0562 4.90913 6.10799 7.36006 9.16428 36.2192 1.8176 68.93343 17.01319 92.96026 41.03883 25.64088 25.63584 41.18202 61.18962 41.18202 100.32033 0 73.10207-55.20255 133.12194-126.26672 140.70047-5.07602 6.33027-10.1591 12.65739-15.23562 18.98725-5.08179-6.33644-10.15435-12.67904-15.23563-19.01589-71.06383-7.65793-126.26673-68.25852-126.26673-141.35915 0-75.79386 59.33446-136.91217 134.17093-140.67184 1.81403-2.26226 3.6272-4.52509 5.44129-6.7873zm0 23.36894l-62.80402 78.35465h34.10834v13.34551 93.41846h-34.10834l62.80402 78.35467 62.804-78.35467h-34.10832v-93.41846-13.34551h34.10832z" fill="#d44e2b"/>
</svg>
