<svg viewBox="0 0 512 512" xmlns="http://www.w3.org/2000/svg">
 <path d="m293.72563 27.322025c-113.35457-.000031-204.742681 88.729575-204.742681 197.840175.000011 9.42699.169203 18.36233 1.493802 27.43704.08442.13156-.118969.54329-.03044.67491 6.44198 47.95447 22.659629 94.5229-5.091126 128.08847l-43.045952 41.46367-1.249924 1.20313c-11.081133 11.91227-10.64576 30.13075 1.249924 41.58106l3.810725 3.66805c11.895684 11.45032 30.792274 11.84006 43.167891 1.17378l.03045.0294 1.249924-1.20312 43.045967-41.43433c36.29224-26.76727 84.27706-10.12113 137.4605-5.63413 7.39519.78074 15.04125.0294 22.65095.0294 3.83835 0 7.18747.16165 10.97489-.0294 108.04542-5.71166 193.76776-92.33233 193.76776-197.75215 0-54.56171-22.78884-102.93533-59.93508-138.681779-37.14081-35.755636-88.12765-58.395484-144.80758-58.395484v-.05871zm0 52.819987c41.65495 0 79.49552 15.953626 106.79178 42.226638 27.29492 26.26784 43.83857 62.69814 43.83857 102.79355 0 80.17789-67.3339 144.99084-150.63035 144.99084-83.29647 0-150.63037-65.51853-150.63037-145.69511 0-80.1779 67.3339-144.315918 150.63037-144.315918zm-35.30257 43.664508v67.2281l-69.81248-.0294-.42681 67.63892 70.23929.0587v67.25744l70.81853.5282-.15243-67.6976 70.17832.0586-.39631-67.78564-69.93443-.0294-.15244-67.16941-70.36124-.0587z" fill="#d44e2b"/>
</svg>
