<?xml version="1.0" encoding="UTF-8"?>
<svg width="512" height="512" version="1.1" viewBox="0 0 512 512" xmlns="http://www.w3.org/2000/svg">
 <g fill-rule="evenodd">
  <path d="m471.95 253.05c0 120.9-98.01 218.9-218.9 218.9-120.9 0-218.9-98.01-218.9-218.9 0-120.9 98.01-218.9 218.9-218.9 120.9 0 218.9 98.01 218.9 218.9" fill="#efa369"/>
  <path d="m256 1c-140.83 0-255 114.17-255 255s114.17 255 255 255 255-114.17 255-255-114.17-255-255-255m8.827 44.931c120.9 0 218.9 98 218.9 218.9s-98 218.9-218.9 218.9-218.93-98-218.93-218.9 98.03-218.9 218.93-218.9" fill-opacity=".067"/>
  <g fill-opacity=".129">
   <path d="m256 4.433c-138.94 0-251.57 112.63-251.57 251.57s112.63 251.57 251.57 251.57 251.57-112.63 251.57-251.57-112.63-251.57-251.57-251.57m5.885 38.556c120.9 0 218.9 98 218.9 218.9s-98 218.9-218.9 218.9-218.93-98-218.93-218.9 98.03-218.9 218.93-218.9"/>
   <path d="m256 8.356c-136.77 0-247.64 110.87-247.64 247.64s110.87 247.64 247.64 247.64 247.64-110.87 247.64-247.64-110.87-247.64-247.64-247.64m2.942 31.691c120.9 0 218.9 98 218.9 218.9s-98 218.9-218.9 218.9-218.93-98-218.93-218.9 98.03-218.9 218.93-218.9"/>
  </g>
 </g>
 <path d="m321.97 495.55c54.595-71.533 132.11-45.044 151.91-227.42l-159.45-159.96-10.554 3.1386-65.765-2.6884c-17.137 5.4794-18.965 1.6947-43.118 6.9333-83.391 4.3516-73.921 23.44-71.247 58.663l-1.0389 29.667-8.4592 82.299" color="#000000" fill="#000000" opacity=".25" style="-inkscape-stroke:none"/>
 <path d="m253.04 7.859c-135.42 0-245.19 109.78-245.19 245.19 0 135.42 109.78 245.19 245.19 245.19 135.42 0 245.19-109.78 245.19-245.19 0-135.42-109.78-245.19-245.19-245.19zm0 26.297c120.9 0 218.9 98 218.9 218.9s-98 218.9-218.9 218.9-218.93-98-218.93-218.9 98.03-218.9 218.93-218.9z" fill="#ffffff" fill-rule="evenodd" stroke="#000000" stroke-opacity=".31" stroke-width="4.904"/>
 <path d="m133.88 104.33c-13.256 0-23.927 10.674-23.927 23.93v143.57c0 13.256 10.671 23.927 23.927 23.927h167.5c13.256 0 23.927-10.671 23.927-23.927v-143.57c0-13.256-10.671-23.93-23.927-23.93zm0 23.93h167.5v143.57h-167.5zm203.39 11.962v143.57c0 13.256-10.671 23.927-23.927 23.927h-167.49c0 13.256 10.671 23.927 23.927 23.927h167.49c13.256 0 23.93-10.671 23.93-23.927v-143.57c0-13.256-10.674-23.93-23.93-23.93zm35.892 35.892v143.57c0 13.256-10.671 23.93-23.927 23.93h-167.49c0 13.256 10.671 23.927 23.927 23.927h167.49c13.256 0 23.93-10.671 23.93-23.927v-143.57c0-13.256-10.674-23.927-23.93-23.927z" fill="#ffffff" stroke-width="11.964" style="paint-order:normal"/>
</svg>
