<svg height="512" viewBox="0 0 512 512" width="512" xmlns="http://www.w3.org/2000/svg">
 <path d="m259.20024 87.856356c-10.34264 0-20.5433 3.730061-27.88941 11.225676l-123.50717 126.529508c-46.773128 46.74407 30.27716 42.8602 58.16657 60.56508 12.89496 8.38834-41.377 19.15582-30.27716 30.25566 10.78792 11.09445 65.03943 21.30372 75.82736 32.09056 10.78792 11.09446-21.87485 22.78048-11.08693 33.87278 10.49429 11.08155 35.68726.59264 40.19387 25.76625 3.29231 18.59222 46.13423 9.323 65.32554-6.57386 11.99363-10.18883-20.65085-10.21464-9.86078-21.31663 26.99669-27.26881 50.97104-12.27435 60.86624-37.46732 5.38858-13.48328-40.80372-23.06227-28.52507-31.75069 29.38337-20.68527 137.31743-31.20215 87.54027-80.9578l-128.0353-131.014614c-7.93445-7.494539-18.40293-11.225675-28.74771-11.225675m.47325 15.850609c6.78143.0559 13.56503 2.61685 18.49649 7.55047l44.84785 45.65774c4.12694 4.12695 4.11942 12.67769 1.64346 15.15472l-22.28463-18.162-4.40122 26.68586-18.41368-9.88875-30.00074 18.94178-9.91671-39.86045-15.96139 34.65471-39.86045-.27857c-7.7032 0-6.6115-7.98715 1.36489-15.96139 15.67959-17.32736 46.22349-46.75913 55.85733-56.9415 4.64107-4.77121 10.92129-7.25899 17.29509-7.52143.45174-.0183.88519-.0312 1.33586-.028m-58.05257 189.34253c2.69537 0 92.33729 11.99363 57.85681 21.27683-13.19073 3.58594-73.74076-21.27683-57.85681-21.27683m199.03337 45.7126c-10.89548.008-22.18999 5.61768-29.55546 21.50485 20.95416 11.66881 48.02937 13.32948 60.86624-2.14467-2.22534-8.88633-16.38086-19.37094-31.30971-19.36018m-236.77495 26.74178c-6.97934.23555-21.03698 2.88682-23.09239 9.80593-3.3407 13.6016 22.59763 17.64035 31.00317.94865 2.75022-5.02935 2.47596-3.82686 3.06429-5.9339-2.04357-2.20275-4.49586-4.36464-8.469-4.76367-.65179-.0592-1.5101-.0882-2.50715-.0559m168.11087 23.98833c-1.04975.0108-2.23072.0968-3.5655.27857-4.67226-.0151-7.29879 6.29421-7.29879 6.29421-.88626 3.95378-1.64454 8.73682.94865 13.45532 3.46225 6.15331 11.39669 9.00141 21.9781 5.57143 6.20279-7.3203 5.48108-10.11246-.0828-17.15957-3.63756-4.60557-4.63353-8.51202-11.98072-8.44104" fill="#ffffff"/>
</svg>
