<svg width="512" height="512" version="1.1" viewBox="0 0 512 512" xmlns="http://www.w3.org/2000/svg">
 <g fill-rule="evenodd">
  <path d="m471.95 253.05c0 120.9-98.01 218.9-218.9 218.9-120.9 0-218.9-98.01-218.9-218.9 0-120.9 98.01-218.9 218.9-218.9 120.9 0 218.9 98.01 218.9 218.9" fill="#efa369"/>
  <path d="m256 1c-140.83 0-255 114.17-255 255s114.17 255 255 255 255-114.17 255-255-114.17-255-255-255m8.827 44.931c120.9 0 218.9 98 218.9 218.9s-98 218.9-218.9 218.9-218.93-98-218.93-218.9 98.03-218.9 218.93-218.9" fill-opacity=".067"/>
  <g fill-opacity=".129">
   <path d="m256 4.433c-138.94 0-251.57 112.63-251.57 251.57s112.63 251.57 251.57 251.57 251.57-112.63 251.57-251.57-112.63-251.57-251.57-251.57m5.885 38.556c120.9 0 218.9 98 218.9 218.9s-98 218.9-218.9 218.9-218.93-98-218.93-218.9 98.03-218.9 218.93-218.9"/>
   <path d="m256 8.356c-136.77 0-247.64 110.87-247.64 247.64s110.87 247.64 247.64 247.64 247.64-110.87 247.64-247.64-110.87-247.64-247.64-247.64m2.942 31.691c120.9 0 218.9 98 218.9 218.9s-98 218.9-218.9 218.9-218.93-98-218.93-218.9 98.03-218.9 218.93-218.9"/>
  </g>
 </g>
 <path d="m199.42 124.83-23.266 59.634 8.7285 66.376 5.4555 90.541-39.098 42.71 149.04 93.728c82.203-27.918 158.84-84.421 173.87-225.24l-3.92-41.37-110.24-95.598" opacity=".25"/>
 <path d="m253.04 7.859c-135.42 0-245.19 109.78-245.19 245.19 0 135.42 109.78 245.19 245.19 245.19 135.42 0 245.19-109.78 245.19-245.19 0-135.42-109.78-245.19-245.19-245.19zm0 26.297c120.9 0 218.9 98 218.9 218.9s-98 218.9-218.9 218.9-218.93-98-218.93-218.9 98.03-218.9 218.93-218.9z" fill="#ffffff" fill-rule="evenodd" stroke="#000000" stroke-opacity=".31" stroke-width="4.904"/>
 <path d="m159.58 112.93c-11.616 0-20.965 9.3517-20.965 20.968v7e-3h15.428c3.0893 0 5.5761 2.4868 5.5761 5.5761v9.8153c0 3.0893-2.4868 5.5761-5.5761 5.5761h-15.428v21.004h15.428c3.0893 0 5.5761 2.4891 5.5761 5.5784v9.813c0 3.0893-2.4868 5.5762-5.5761 5.5762h-15.428v21.006h15.428c3.0893 0 5.5761 2.4868 5.5761 5.5761v9.813c0 3.0893-2.4868 5.5784-5.5761 5.5784h-15.428v21.004h15.428c3.0893 0 5.5761 2.4868 5.5761 5.5761v9.8153c0 3.0893-2.4868 5.5761-5.5761 5.5761h-15.428v20.968h15.428c3.0893 0 5.5761 2.4868 5.5761 5.5762v9.813c0 3.0893-2.4868 5.5784-5.5761 5.5784h-15.428v21.004h15.428c3.0893 0 5.5761 2.4868 5.5761 5.5761v9.8153c0 3.0893-2.4868 5.5762-5.5761 5.5762h-15.428v0.0654c0 11.616 9.3494 20.968 20.965 20.968h188.89c11.616 0 20.968-9.3517 20.968-20.968v-230.86c0-11.616-9.3517-20.968-20.968-20.968zm104.17 21.078a52.455 52.455 0 0 1 37.845 15.391 52.455 52.455 0 0 1 6.6534 65.988l15.615 15.613-14.834 14.834-15.651-15.651a52.455 52.455 0 0 1-65.952-6.6173 52.455 52.455 0 0 1 0-74.166 52.455 52.455 0 0 1 36.323-15.391zm1.2264 20.968v0.0361a31.488 31.488 0 0 0-22.716 9.2213 31.488 31.488 0 0 0 0 44.498 31.488 31.488 0 0 0 35.801 6.134l-13.533-13.533 14.834-14.831 13.533 13.53a31.488 31.488 0 0 0-6.134-35.799 31.488 31.488 0 0 0-21.785-9.2574zm-1.2264 104.95a52.455 52.455 0 0 1 37.845 15.353 52.455 52.455 0 0 1 6.6534 66.024l15.615 15.577-14.834 14.872-15.651-15.69a52.455 52.455 0 0 1-65.952-6.6173 52.455 52.455 0 0 1 0-74.166 52.455 52.455 0 0 1 36.323-15.353zm1.2264 21.004a31.488 31.488 0 0 0-22.716 9.219 31.488 31.488 0 0 0 0 44.501 31.488 31.488 0 0 0 35.801 6.134l-13.533-13.569 14.834-14.834 13.533 13.569a31.488 31.488 0 0 0-6.134-35.801 31.488 31.488 0 0 0-21.785-9.219z" fill="#ffffff"/>
</svg>
