<svg xmlns="http://www.w3.org/2000/svg" height="512" width="512">
 <path d="M471.95 253.05c0 120.9-98.01 218.9-218.9 218.9-120.9 0-218.9-98.01-218.9-218.9 0-120.9 98.01-218.9 218.9-218.9 120.9 0 218.9 98.01 218.9 218.9" fill="#efa369" fill-rule="evenodd"/>
 <path d="M294.16 119.88c-11.26.1-22.86 1.4-33.54.37H153.88c-31.78-.75-39.7 32.83-36.72 58.09.58 59.94-1.17 120.02.9 179.85 14.73 30.98 46.63 50.44 68.88 76.28 11.83 11.75 23.76 23.6 35.62 35.37 9.97 1.39 20.16 2.1 30.5 2.1 120.89 0 218.88-97.98 218.88-218.88 0-1.08-.02-2.17-.03-3.25-22.25-22.04-44.49-44.07-66.75-66.09-30.13-7.43-50.17-26.13-71.97-50.78-10.66-11.36-24.56-13.2-39.03-13.06z" opacity=".25"/>
 <path d="M256 1C115.17 1 1 115.17 1 256s114.17 255 255 255 255-114.17 255-255S396.83 1 256 1m8.827 44.93c120.9 0 218.9 98 218.9 218.9s-98 218.9-218.9 218.9-218.93-98-218.93-218.9 98.03-218.9 218.93-218.9" fill-opacity=".067" fill-rule="evenodd"/>
 <path d="M256 4.433c-138.94 0-251.57 112.63-251.57 251.57S117.06 507.573 256 507.573s251.57-112.63 251.57-251.57S394.94 4.433 256 4.433m5.885 38.556c120.9 0 218.9 98 218.9 218.9s-98 218.9-218.9 218.9-218.93-98-218.93-218.9 98.03-218.9 218.93-218.9" fill-opacity=".129" fill-rule="evenodd"/>
 <path d="M256 8.356c-136.77 0-247.64 110.87-247.64 247.64S119.23 503.636 256 503.636s247.64-110.87 247.64-247.64S392.77 8.356 256 8.356m2.942 31.69c120.9 0 218.9 98 218.9 218.9s-98 218.9-218.9 218.9-218.93-98-218.93-218.9 98.03-218.9 218.93-218.9" fill-opacity=".129" fill-rule="evenodd"/>
 <path d="M253.04 7.86C117.62 7.86 7.85 117.64 7.85 253.05c0 135.42 109.78 245.19 245.19 245.19 135.42 0 245.19-109.78 245.19-245.19 0-135.42-109.78-245.19-245.19-245.19zm0 26.296c120.9 0 218.9 98 218.9 218.9s-98 218.9-218.9 218.9-218.93-98-218.93-218.9 98.03-218.9 218.93-218.9z" fill="#fff" fill-rule="evenodd" stroke="#000" stroke-opacity=".31" stroke-width="4.904"/>
 <path d="M153.87 120.24c-20.336 0-36.72 16.35-36.72 36.688v193.12c0 20.336 16.383 36.688 36.72 36.688h53.938c-.09-.45-.17-.91-.22-1.375 3.91-25.22 15.266-48.868 21.44-73.593 37.133-38.206 75.612-75.578 113.06-113.56v-41.28c0-20.337-16.383-36.69-36.72-36.69h-151.5zm2.47 32.844c10.133 0 18.343 8.24 18.343 18.375s-8.21 18.343-18.344 18.343-18.345-8.21-18.345-18.344 8.21-18.376 18.344-18.376zm48.905 4.625h102.25c7.615 0 13.75 6.133 13.75 13.75s-6.135 13.718-13.75 13.718h-102.25c-7.616 0-13.75-6.103-13.75-13.72 0-7.615 6.134-13.75 13.75-13.75zm176.97 15.81c-2.728.142-5.126 1.025-6.875 2.72l-.094.093-12.906 12.97-.28.28.28.282 55.25 55.25.313.25.25-.25 12.78-12.78.157-.19c.063-.062.086-.108.094-.124 3.108-3.24 3.445-8.52 1.562-14.405-1.89-5.91-6.016-12.512-11.938-18.438l-12.53-12.56c-8.19-8.19-17.617-12.935-24.845-13.095-.393-.01-.818-.02-1.22 0zm-26.75 22.657l-.28.28-13.657 13.69-.282.28.282.282 55.25 55.25.25.28.312-.28 13.656-13.69.28-.28-.28-.282-55.25-55.25zm-199.12 11.625c10.134 0 18.344 8.21 18.344 18.344s-8.21 18.344-18.345 18.344S138 236.28 138 226.146s8.21-18.344 18.345-18.344zm48.906 4.594H307.5c2.675 0 5.143.782 7.25 2.094-8.504 8.474-17.02 16.936-25.53 25.406h-83.97c-7.615 0-13.75-6.135-13.75-13.75s6.135-13.75 13.75-13.75zm128.09 5.906l-.312.25-83.344 83.438-10.312 10.28-2.594 2.595-.093.062v.094l-20.844 65.25-.03.032c-.75 3.515.387 7.395 2.875 9.75l.03.03c2.307 1.726 5.377 2.172 8 1.126h.032l66.125-20.906.062-.03.063-.063 2.156-2.19 9.97-9.936 83.718-83.688.282-.313-.28-.28-55.25-55.22-.25-.28zm-177 44.188c10.135 0 18.345 8.21 18.345 18.344s-8.21 18.344-18.344 18.344-18.343-8.21-18.343-18.344 8.21-18.344 18.344-18.344zm48.907 4.594h56.72c-9.114 9.128-18.204 18.307-27.25 27.5h-29.47c-7.616 0-13.75-6.135-13.75-13.75s6.134-13.75 13.75-13.75zm-48.906 50.094c10.135 0 18.345 8.21 18.345 18.344s-8.21 18.375-18.344 18.375-18.343-8.242-18.343-18.375 8.21-18.344 18.344-18.344zm48.907 4.625h12.78c-2.864 9.216-6.326 18.307-9.437 27.47h-3.344c-7.615 0-13.75-6.136-13.75-13.75s6.135-13.72 13.75-13.72zm46.312 2.5h.06c.08-.003.142-.003.22 0h.062c.724.01 1.398.327 1.907.844l4.75 4.718 17.905-.937h.03c.71-.032 1.436.25 1.97.72.628.553.98 1.38.937 2.217l-.906 19.53 3.47 3.5c.687.694.973 1.715.717 2.658-.255.942-1.024 1.687-1.968 1.937l-31.156 8.375h-.033c-.935.257-1.96-.01-2.656-.687h-.03l-6.063-6.063c-.708-.7-.96-1.73-.687-2.687l9.125-32.062c.286-1.086 1.228-1.937 2.344-2.063zm90.53 8.062c-14.502 14.483-28.993 28.972-43.438 43.47-10.038 4.246-20.414 7.677-30.875 10.905h37.594c20.337 0 36.72-16.35 36.72-36.688v-17.688z" fill="#fff"/>
</svg>
