<?xml version="1.0" encoding="UTF-8"?>
<svg width="512" height="512" version="1.1" viewBox="0 0 512 512" xmlns="http://www.w3.org/2000/svg" xmlns:cc="http://creativecommons.org/ns#" xmlns:dc="http://purl.org/dc/elements/1.1/" xmlns:rdf="http://www.w3.org/1999/02/22-rdf-syntax-ns#">
 <style/>
 <metadata>
  <rdf:RDF>
   <cc:Work rdf:about="">
    <dc:format>image/svg+xml</dc:format>
    <dc:type rdf:resource="http://purl.org/dc/dcmitype/StillImage"/>
    <dc:title/>
   </cc:Work>
  </rdf:RDF>
 </metadata>
 <g fill-rule="evenodd">
  <path d="m471.95 253.05c0 120.9-98.01 218.9-218.9 218.9-120.9 0-218.9-98.01-218.9-218.9 0-120.9 98.01-218.9 218.9-218.9 120.9 0 218.9 98.01 218.9 218.9" fill="#efa369"/>
  <path d="m256 1c-140.83 0-255 114.17-255 255s114.17 255 255 255 255-114.17 255-255-114.17-255-255-255m8.827 44.931c120.9 0 218.9 98 218.9 218.9s-98 218.9-218.9 218.9-218.93-98-218.93-218.9 98.03-218.9 218.93-218.9" fill-opacity=".067"/>
  <g fill-opacity=".129">
   <path d="m256 4.433c-138.94 0-251.57 112.63-251.57 251.57s112.63 251.57 251.57 251.57 251.57-112.63 251.57-251.57-112.63-251.57-251.57-251.57m5.885 38.556c120.9 0 218.9 98 218.9 218.9s-98 218.9-218.9 218.9-218.93-98-218.93-218.9 98.03-218.9 218.93-218.9"/>
   <path d="m256 8.356c-136.77 0-247.64 110.87-247.64 247.64s110.87 247.64 247.64 247.64 247.64-110.87 247.64-247.64-110.87-247.64-247.64-247.64m2.942 31.691c120.9 0 218.9 98 218.9 218.9s-98 218.9-218.9 218.9-218.93-98-218.93-218.9 98.03-218.9 218.93-218.9"/>
  </g>
 </g>
 <path d="m302.56 114.93-2.236 0.568 11.867 11.867-46.14-12.02h-3.336l-37.533 12.662-1.113 0.934-4.193-4.193c-85.206 29.124-59.533 41.968-102.78 97.35l16.303 54.744 21.091 96.961 150.14 92.087c105.8-25.415 177.9-129.91 168.03-234.05l-144.39-115.7" opacity=".25"/>
 <path d="m253.04 7.859c-135.42 0-245.19 109.78-245.19 245.19 0 135.42 109.78 245.19 245.19 245.19 135.42 0 245.19-109.78 245.19-245.19 0-135.42-109.78-245.19-245.19-245.19zm0 26.297c120.9 0 218.9 98 218.9 218.9s-98 218.9-218.9 218.9-218.93-98-218.93-218.9 98.03-218.9 218.93-218.9z" fill="#fff" fill-rule="evenodd" stroke="#000" stroke-opacity=".31" stroke-width="4.904"/>
 <path d="m256.54 98.769a155.46 155.46 0 0 0-155.46 155.46 155.46 155.46 0 0 0 106.42 147.38c-14.385-39.902-25.423-101.54-32.108-131.15-3.3269-13.121-1.3474-26.18 0.91203-39.332 4.5602-13.66 6.063-27.89 12.302-41.042 9.5247-8.1981 9.7527-23.122 18.987-30.284 1.3784 0.81877 2.3008 1.1504 2.9434 1.4613l0.96386 0.10367h0.10367c1.3266-1.3888-12.934-15.878 0.27983-10.157 0.51822-7.6073 12.458-1.793 12.634-8.4572v-0.0208c5.8039 4.809 4.7157 2.7983 12.541 1.907 8.8614-5.6381 12.997 13.37 16.686 2.7672 10.903 1.3784 22.48 4.8193 32.782 8.281 10.375 2.2179 20.158 8.0426 27.102 16.044h-0.20728l5.0888 6.6331c0.63221 1.1401 1.2541 2.3319 1.7723 3.5238 2.0521 17.09 21.557 16.852 34.616 23.029 11.173 3.8555 24.636 9.7216 26.014 22.853-2.8191-0.60111-13.722-13.028-22.304-14.271-5.1614-0.31093-10.737-1.7308-15.94-3.6171l-30.139-5.3997v-0.10367c-1.4717-0.20728-3.0263-0.41456-4.4877-0.7255v0.10367l-42.649-5.1095c0.6944 0.4664 1.4613 1.0986 2.135 1.7205l43.737 8.281v-0.0829l3.0263 0.74622 12.23 2.674c2.4252 0.21764 4.8504 0.60112 6.8611 0.99495 12.468 3.2958 27.216 2.6947 37.477 11.193-2.705 4.9852-17.619 2.1557-25.071 1.5132-0.91205-0.16582-1.907-0.26947-2.8087-0.47675-0.20728 0-0.31093-0.10367-0.51821-0.10367-10.157-1.5546-20.521-1.6583-30.315 1.2748-0.0208 0-0.0726-0.0102-0.10367 0-3.3684 1.0157-6.6331 2.4667-9.7734 4.27-14.116 7.9804-31.507 10.893-43.239 22.387-11.401 11.971-10.779 28.533-8.7784 43.892h0.47676v3.9177c0.18655 1.3473 0.4042 2.674 0.59075 3.9902 5.949 31.072 21.848 59.584 26.781 90.946 0.31093 3.7518 0.82913 7.97 1.2437 12.085a155.46 155.46 0 0 0 132.66-153.64 155.46 155.46 0 0 0-155.46-155.46zm24.003 74.933c-4.7053 0.12437-8.3535 1.8345-9.3899 4.7572-1.6583 4.6742 3.9902 10.717 12.634 13.587 8.6437 2.9538 17.008 1.5546 18.687-3.1196 1.6583-4.6742-3.9591-10.789-12.665-13.701-3.2129-1.0882-6.4362-1.5857-9.2656-1.5235z" fill="#fff" stroke-width="10.364"/>
</svg>
