<svg version="1.1" viewBox="0 0 512 512" xmlns="http://www.w3.org/2000/svg">
 <g transform="matrix(1.314 0 0 1.314 -82.289 -79.608)" fill="#d44e2b">
  <path d="m173.23 320.06v19.174h-21.4v-18.822c-12.484-1.4073-22.292-5.629-29.426-12.665-7.1335-7.1534-10.891-16.535-11.273-28.145l34.585 0.1759c0.12736 4.2218 1.7833 7.5639 4.968 10.027 3.1845 2.4626 7.1334 3.694 11.847 3.694 4.0762 6e-5 7.643-0.93809 10.7-2.8144 3.5667-1.9936 5.35-4.7494 5.3501-8.2675-1.1e-4 -5.1598-5.7323-9.6746-17.197-13.545-17.069-5.7462-27.706-9.9679-31.91-12.665-11.465-7.0361-17.197-17.063-17.197-30.08 0-10.671 3.7578-19.643 11.273-26.913 7.2608-6.9188 16.687-11.082 28.279-12.489v-18.822h21.4v18.822c24.84 4.1046 37.387 17.649 37.642 40.634h-33.82c-6e-5 -4.4562-1.4012-8.0915-4.2037-10.906-2.8025-2.9316-6.624-4.3975-11.465-4.3976-3.8215 1.2e-4 -7.1335 0.99692-9.9359 2.9904-3.1846 2.1109-4.7769 4.9254-4.7769 8.4434-6e-5 4.4563 5.7959 8.7366 17.388 12.841 16.942 5.7463 27.769 10.144 32.483 13.193 11.592 7.1535 17.388 17.004 17.388 29.552-1.1e-4 11.141-3.8216 20.405-11.465 27.793-7.261 6.9189-17.006 11.317-29.235 13.193"/>
  <path d="m249.87 163.53c-9.3373 0-16.868 7.5304-16.868 16.868v67.43h84.298c-0.052-28.093 6e-3 -56.196 0.0209-84.298h-67.451m78.9 0v84.298c28.099-0.0864 56.196-7e-3 84.298 0.0209v-67.451c0-9.3373-7.5304-16.868-16.868-16.868h-67.43m-57.181 23.214h17.563v15.371h15.371v17.563h-15.371v15.371h-17.563v-15.37h-15.37v-17.563h15.371v-15.371m69.96 15.371h48.302v17.563h-48.302zm-108.54 57.161v67.451c0 9.3373 7.5304 16.868 16.868 16.868h67.43v-84.298c-28.099 0.0864-56.196 7e-3 -84.298-0.0209m95.768 0.0209c0.0864 28.099 7e-3 56.196-0.0209 84.298h67.451c9.3373 0 16.868-7.5304 16.868-16.868v-67.43h-84.298m-59.266 13.643 10.856 10.883 10.883-10.876 12.419 12.419-10.856 10.856 10.856 10.883-12.419 12.419-10.876-10.856-10.856 10.856-12.419-12.419 10.883-10.876-10.876-10.856 12.419-12.419m72.045 2.0876h48.302v17.563h-48.302zm0 24.838h48.302v17.563h-48.302z"/>
 </g>
</svg>
