<svg height="512" viewBox="0 0 512 512" width="512" xmlns="http://www.w3.org/2000/svg">
 <path d="m225.22733 417.0495c9.92866-2.75686 28.41553-14.14383 41.08333-25.29003l23.03042-20.27077 4.63924 12.19613c6.06136 15.94774 28.61808 33.44999 43.10497 33.44999 28.57883 0 61.94147-23.28612 61.94147-43.23155 0-9.83638-2.53647-11.5866-16.83133-11.5866-32.41069 0-37.89581-24.27479-20.75687-91.83557 9.6608-38.08696 11.19658-50.93958 6.72886-56.32216-8.72872-10.52098-31.87648-21.26956-45.79245-21.26956-11.38938 0-13.01846 3.04663-20.64421 38.62243-14.14763 65.99613-17.19591 75.07893-30.49919 90.89374-24.11528 28.65732-57.86782 37.96037-80.4172 22.16581-41.75172-29.23836-32.46132-125.09061 15.99838-165.03463 23.26207-19.1707 47.80016-26.51036 88.64804-26.51036 38.95536 0 60.05149 6.4077 84.93011 25.80019 15.60974 12.17892 19.23653 13.31594 21.72654 6.82406 4.67077-12.17044-2.24316-39.8782-14.4236-57.79947-19.36312-28.490213-43.36953-37.119814-103.27925-37.119814-47.04949 0-55.14868 1.388686-80.35137 13.765334-74.33457 36.50206-119.389014 129.32376-104.981871 216.26537 12.493361 75.39286 62.880761 113.84947 126.146361 96.27885z" fill="#d44e2b"/>
</svg>
