<svg height="512" viewBox="0 0 512 512" width="512" xmlns="http://www.w3.org/2000/svg">
 <path d="m142.96 137.45c-8.05 0-14.441 6.338-14.441 14.325v208.45c0 7.987 6.389 14.325 14.441 14.325h226.07c8.05 0 14.441-6.338 14.441-14.325v-208.45c0-7.987-6.389-14.325-14.441-14.325zm113.04 15.8c34.644 0 95.61.095 103.57 8.645 7.967 7.257 7.948 57.31 7.967 86.2.016 29.31 0 79.13-7.967 87.68s-68.963 7.162-103.57 7.162c-34.611 0-95.61.094-103.57-7.162-7.967-8.55-7.986-58.37-7.967-87.68.02-28.884 0-78.94 7.967-86.2 7.967-8.55 68.93-8.645 103.57-8.645m79.67 197.59c4.4 0 7.967 3.538 7.967 7.904 0 4.365-3.567 7.903-7.967 7.903s-7.967-3.538-7.967-7.903 3.567-7.904 7.967-7.904m23.902 0c4.4 0 7.967 3.538 7.967 7.904 0 4.365-3.567 7.903-7.967 7.903s-7.967-3.538-7.967-7.903 3.567-7.904 7.967-7.904" fill="#d44e2b"/>
</svg>
