<svg height="512" viewBox="0 0 512 512" width="512" xmlns="http://www.w3.org/2000/svg">
 <path d="m176.73 139.06l-82.219 233.88h53.219l16.875-55.438h84.938l16.875 55.438h53.219l-82.531-233.88h-60.375zm79.656.46875c15.446 43.817 30.916 87.625 46.375 131.44h22c27.615.0001 41.437 9.6697 41.438 29-.00015 10.727-3.24 18.702-9.7188 23.906-6.479 5.2044-16.53 7.8125-30.125 7.8125h-2.1875c4.7794 13.542 9.564 27.083 14.344 40.625 23.238-.92629 41.882-6.8044 55.875-17.688 15.4-11.896 23.094-28.477 23.094-49.719-.0002-14.976-3.2901-26.972-9.875-36-6.479-9.0278-17.081-15.176-31.844-18.469v-1.5938c10.833-1.8055 19.458-7.1719 25.938-16.094 6.5849-8.9216 9.9061-20.336 9.9062-34.25-.00018-20.498-7.4932-35.434-22.469-44.781-14.87-9.4525-38.844-14.187-71.875-14.188h-60.875zm-49.219 35.688c.84957 3.8238 2.2131 9.0401 4.125 15.625 2.0179 6.5852 10.824 34.981 26.438 85.219h-60.688c16.569-53.636 26.62-87.249 30.125-100.84zm87 4.7812h25.969c14.126.00019 24.427 1.9766 30.906 5.9062 6.5849 3.8238 9.8748 10.203 9.875 19.125-.00015 9.5591-3.0086 16.389-9.0625 20.531-5.9479 4.1424-15.618 6.2189-29 6.2188h-28.688v-51.781z" fill="#d44e2b"/>
</svg>
