<svg viewBox="0 0 512 512" xmlns="http://www.w3.org/2000/svg">
 <path d="m174.52 88.51v82.17c.01 48.602.351 85.23.813 89.66 2.031 19.478 8.605 33.801 22.44 48.871 19.16 20.87 37.03 49.28 47.24 75.15 3.876 9.818 8.745 27.473 9.607 34.806.338 2.874.862 4.335 1.576 4.335.591 0 1.084-.734 1.084-1.626 0-3.617 3.509-18.301 6.675-27.933 9.355-28.454 28.2-59.92 51.24-85.52 13.403-14.897 19.498-27.939 21.75-46.51 1.44-11.872-.021-26.05-3.843-37.05-6.318-18.19-20.371-34.512-38.427-44.609-18.931-10.587-47.24-12.03-68.55-3.522-3.459 1.381-7.08 3-8.03 3.621-1.178.765-1.889.867-2.242.296-.286-.462-.247-21.394.074-46.51l.566-45.644h-41.974m80.47 133.33c16.76 0 30.347 13.587 30.347 30.347s-13.587 30.347-30.347 30.347-30.347-13.587-30.347-30.347 13.587-30.347 30.347-30.347" fill="#d44e2b"/>
</svg>
