<svg height="512" viewBox="0 0 512 512" width="512" xmlns="http://www.w3.org/2000/svg">
 <path d="m231.93245 102.51662v47.2l1.345.331c.739.183 5.511.256 10.604.161l9.26-.171.156-23.748.156-23.746h28.06v23.914c0 18.618.166 23.963.748 24.13.41.119 4.046.651 8.08 1.183 18.01 2.376 33.962 7.943 44.672 15.586 8.656 6.177 15.62 15.937 17.905 25.09 1.405 5.648 1.444 17.593.061 23.265-2.738 11.276-10.781 22.67-20.836 29.522-1.561 1.063-2.836 2.168-2.836 2.454.001.286 1.41.983 3.135 1.549 4.914 1.611 12.259 5.489 16.857 8.902 8.867 6.581 15.214 15.658 17.981 25.714 1.331 4.847 1.818 19.15.888 26.19-2.515 19.04-9.448 31.981-22.325 41.685-12.736 9.597-28.19 14.01-51.783 14.768l-12.248.394-.154 24.05-.156 24.05h-28.06l-.156-24.05-.156-24.05h-20.91l-.156 24.05-.154 24.05h-28.06v-48.4h-56.754v-5.58c0-3.069.176-9.654.392-14.636l.392-9.06h11.638c12.922 0 15.363-.433 18.365-3.265 4.02-3.793 3.865-.647 3.851-77.34-.01-67.13-.041-69.12-1.176-71.61-.971-2.138-1.737-2.829-4.617-4.159-3.367-1.555-3.801-1.599-17.344-1.836l-13.891-.244v-28.524l29.423-.156 29.423-.154.298-23.599.298-23.596 13.891-.161zm0 78.883v28.626c0 15.745.163 29.05.363 29.572.322.837 2.75.946 21.18.946 20.302 0 20.912-.03 24.649-1.392 10.79-3.917 16.809-10.405 19.534-21.06 2.889-11.296.161-22.01-7.02-27.559-9.05-6.993-19.22-9.132-43.4-9.132zm.298 88.72l-.154 31.365c-.081 17.25-.02 31.728.154 32.17.461 1.201 43.628.603 49.586-.688 12.29-2.662 21.22-7.906 25.885-15.202 2.819-4.41 4.945-11.525 5.305-17.747.856-14.822-7.103-23.61-25.811-28.496-5.227-1.365-6.069-1.404-30.17-1.404z" fill="#d44e2b"/>
</svg>
