<svg height="512" viewBox="0 0 512 512" width="512" xmlns="http://www.w3.org/2000/svg">
 <g transform="matrix(1.214838 0 0 1.214838 -54.9984 -54.998841)">
  <path d="m215.06 285.44l31.783-27.21 50.1-42.899-36.39-33.718v148.79l32.648-32.11-74.929-66.37" fill="none" stroke="#d44e2b" stroke-linecap="round" stroke-linejoin="round" stroke-width="13.11"/>
  <g fill="#d44e2b">
   <path d="m167.84 167.66c-48.639 48.737-48.786 128.01-.212 176.68l23.13-23.17c-36.08-36.15-35.914-94.13.212-130.33l-23.13-23.17m153.2 22.962c36.08 36.15 36.34 94.56.212 130.76l23.13 23.17c48.639-48.737 48.36-128.44-.212-177.11l-23.13 23.17"/>
   <path d="m384.5 126.94l-24.844 24.875c25.04 26.366 40.44 62.02 40.44 101.25 0 40.652-16.492 77.45-43.16 104.06l27.844 27.938c70.885-71.03 70.51-187.19-.281-258.12m-257 .313c-70.885 71.03-71.07 186.57-.281 257.5l24.781-24.875c-28.323-26.802-46-64.741-46-106.81 0-40.653 16.491-77.48 43.16-104.09l-21.656-21.719"/>
  </g>
 </g>
</svg>
