<svg height="512" viewBox="0 0 512 512" width="512" xmlns="http://www.w3.org/2000/svg">
 <path d="m228.05333 35.035323c-2.57811.04834-5.04073.239012-7.42682.545162-18.93296 2.434429-22.67659 2.344464-40.82806 12.756249-8.51715 4.884972-12.27285 12.111724-10.78239 21.819901 58.28935 125.910895-.1007-.04834 58.28935 126.098885 1.79662 2.1068 2.97019 4.61642 5.70674 4.19613l19.80576-3.06284c2.73655-.42028 3.12192-3.15415 4.19613-5.70674 16.96313-138.291175.12085-.50488 17.49621-137.673504-1.48913-9.705492-10.05193-14.101699-19.67954-16.029907-10.3245-2.066512-19.03904-3.082984-26.77201-2.937965m113.63804 19.176c-6.45332-.01477-11.92373 2.874856-16.27429 8.812554-47.81982 130.248022-.008-.147704-47.92053 130.328592-.21887 2.76072-1.18297 5.36836 1.0487 7.00788l16.15344 11.83377c2.23302 1.63817 4.44321-.003 7.00788-1.0487 109.78432-85.79182.44714-.26452 109.73061-84.97005 5.81013-7.91559 2.88559-17.08935-2.55931-25.2614-7.78534-11.682041-14.87782-20.009858-22.49128-25.889818-15.10609-11.66324-17.73656-14.374279-37.93306-19.847381-2.36998-.641841-4.60434-.960076-6.7541-.965447m-224.69798 42.041913c-5.33614-.07788-10.8361 2.345807-15.94531 5.748373-11.682043 7.78534-19.966891 14.87781-25.848193 22.49128-11.663241 15.10608-14.37428 17.69359-19.847382 37.89277-2.568706 9.47991-.11145 17.22631 7.805482 23.04182 130.248023 47.81982-.106078.0497 130.368873 47.96216 2.76072.21887 5.32674 1.14134 6.96625-1.09167l11.8754-16.15344c1.63817-2.23302-.0456-4.40158-1.09167-6.96626-85.79182-109.78431-.26452-.49011-84.97005-109.770882-2.96885-2.179305-6.1136-3.10044-9.31609-3.147437m329.01725 73.684129c-1.13598.0242-2.31089.14904-3.52475.33569-125.9109 58.28935.0483-.10071-126.09889 58.28935-2.10679 1.79661-4.57345 2.97019-4.15451 5.70674l3.02122 19.80575c.42029 2.73656 3.15415 3.0803 5.70674 4.15451 138.29118 16.96313.50488.16382 137.67351 17.53649 9.70549-1.48912 14.14332-10.05192 16.07153-19.67954 2.75535-13.766 3.57712-24.65447 2.34983-34.19883-2.43442-18.93296-2.34446-22.71955-12.75625-40.87102-4.27535-7.45234-10.34061-11.2443-18.29514-11.0778m-189.54445 50.01793c-19.46469 0-35.24753 15.78283-35.24753 35.24753 0 19.46469 15.78284 35.24753 35.24753 35.24753 19.4647 0 35.24754-15.78284 35.24754-35.24753 0-19.4647-15.78284-35.24753-35.24754-35.24753m-203.092917 14.30848c-9.705492 1.48912-14.143324 10.05193-16.071532 19.67954-2.75535 13.766-3.577121 24.65447-2.349836 34.19883 2.43443 18.93296 2.344465 22.67658 12.75625 40.82806 4.884972 8.51714 12.111723 12.27285 21.819901 10.78238 125.910894-58.28934-.04834.10071 126.098884-58.28934 2.1068-1.79662 4.57479-2.9702 4.15451-5.70675l-3.02122-19.80575c-.42028-2.73655-3.15415-3.12193-5.70674-4.19614-138.291175-16.96312-.50488-.12085-137.673504-17.4962m262.134214 41.03887c-1.20043.0174-2.24375.3518-3.06284 1.46898l-11.8754 16.15344c-1.63817 2.23302.0457 4.44321 1.09167 7.00788 85.79182 109.78432.26452.44714 84.97005 109.73061 7.91559 5.81013 17.08935 2.88559 25.2614-2.55931 11.68204-7.78534 19.96689-14.87782 25.84819-22.49128 11.66324-15.10609 14.37563-17.73656 19.84738-37.93306 2.56871-9.47991.11145-17.22631-7.80548-23.04182-130.24802-47.81982.10608-.008-130.36887-47.92053-1.38036-.1101-2.69895-.4364-3.90207-.42028m-99.70016 23.87567c-1.41527.17993-2.88694 1.06615-4.4902 1.72008-109.78431 85.79182-.49011.26452-109.77089 84.97005-5.810131 7.91559-2.843968 17.08934 2.60228 25.2614 7.78534 11.68204 14.87781 20.00986 22.49128 25.88982 15.10609 11.66324 17.69359 14.37428 37.89278 19.84738 9.4799 2.5687 17.26927.0685 23.07941-7.84711 47.81982-130.24802.008.14771 47.92053-130.32859.21887-2.76072 1.14135-5.36836-1.09167-7.00788l-16.11315-11.83377c-.83655-.61499-1.66772-.7788-2.51768-.67138m62.64795 12.37893l-19.76413 3.06284c-2.73655.42029-3.12327 3.15416-4.19613 5.70675-16.96313 138.29117-.12085.50488-17.49621 137.6735 1.48913 9.70549 10.0103 14.1017 19.63791 16.02991 13.76601 2.75535 24.65448 3.62009 34.19884 2.39146 18.93296-2.43443 22.71955-2.34447 40.87102-12.75625 8.51715-4.88497 12.23123-12.11172 10.74211-21.8199-58.28935-125.9109.14233.0483-58.23564-126.09889-1.79662-2.10679-3.01182-4.61642-5.74837-4.19613" fill="#d44e2b"/>
</svg>
