<svg height="512" viewBox="0 0 512 512" width="512" xmlns="http://www.w3.org/2000/svg">
 <path d="m251.40625 89.544922a166.89 166.89 0 0 0 -79.49609 22.304688 166.89 166.89 0 0 0 166.89062 289.05078 166.89 166.89 0 0 0 63.44922-223.70117 166.89 166.89 0 0 0 -150.84375-87.654298zm3.97266 26.832028c24.1825-.00912 48.36453 6.23283 70.01953 18.73633l-.00391.00586c.00203.00117.00383.00273.00586.00391l-48.59961 84.04687c-12.877-7.395-29.1817-8.03031-42.9707-.07031l-48.46875-83.94336h.00195l-.00586-.00977c21.655-12.5 45.83899-18.7604 70.02149-18.76953zm.55664 113.08203c.37947.00842.75668.03615 1.13476.06055.06255.00405.125.00724.1875.01172.36581.02617.72981.0625 1.09375.10352.09773.01102.1954.02306.29297.03515.38217.04731.76315.10052 1.14258.16406.0019.00032.00395-.00032.00586 0 .00718.00121.01431.0027.02148.00391 1.20736.20347 2.3985.49067 3.56641.85547.09713.03035.19423.06035.29102.0918.35864.11648.71469.23962 1.06835.37109.01044.00388.02082.00783.03125.01172.02707.0101.05305.02302.08008.0332 1.13268.42681 2.23695.92989 3.30664 1.50781.06898.03728.13836.07344.20703.11133.33857.18676.67296.38034 1.00391.58203.05167.0315.10282.06385.1543.09571 1.02746.63576 2.01329 1.34342 2.95508 2.12109.05823.04808.11791.09396.17578.14258.2954.24817.58541.50363.87109.76562.05903.05413.11718.10935.17578.16407.90124.84155 1.75002 1.75258 2.54102 2.73047.03672.04539.07486.08908.11133.13476.23295.29187.4594.59094.68164.89453.08005.10933.15966.21924.23828.33008.21983.30998.43617.62361.64453.94531.00256.00396.00525.00776.00781.01172.01487.02299.02816.04727.04297.07031.23321.36287.4675.72405.68555 1.10157 3.94878 6.83931 4.56257 14.69525 2.33984 21.67187-.00106.00333-.00285.00644-.00391.00977-.12984.407-.26891.8103-.41796 1.21093-.00123.00329-.00269.00648-.00391.00977-.14921.40058-.30834.79796-.47656 1.19141-.00138.00322-.00253.00654-.00391.00976-.16838.3934-.34601.78441-.5332 1.16992-.00127.00262-.00264.0052-.00391.00782-.18758.38598-.3836.76721-.58984 1.14453-.02278.04171-.04926.08144-.07227.12304-2.2839 4.1299-5.68128 7.71057-10.0664 10.24219-12.874 7.433-29.36679 3.01163-36.80079-9.85937-3.71838-6.44026-4.46535-13.77754-2.67187-20.4336.11097-.41247.23095-.82359.36133-1.23047.00107-.00333.00283-.00643.0039-.00976.36815-1.1458.81691-2.2656 1.33594-3.35547.03669-.07712.06999-.15562.10742-.23242.00153-.00314.00238-.00663.00391-.00977.11083-.22715.2323-.44962.34961-.67383.08341-.15925.16139-.32081.24805-.47851.01921-.03501.04116-.06859.06054-.10352 2.2922-4.13193 5.69726-7.71632 10.08594-10.25.20805-.12012.421-.22199.63086-.33593.23906-.12974.47749-.26104.71875-.38282.27253-.13763.54714-.26701.82226-.39453.21681-.10044.43406-.19681.65235-.29101.27539-.11891.55057-.23864.82812-.34766.28992-.1138.58298-.21722.875-.32031.42074-.1486.8431-.28559 1.26758-.41211.21602-.06437.4316-.12881.64844-.1875.30412-.08236.60856-.15922.91406-.23047.18328-.04272.36709-.0804.55078-.11914.63173-.13333 1.26529-.24333 1.90039-.33008.11268-.01538.22515-.03491.33789-.04883.33263-.04112.66512-.07108.99805-.09961.16283-.01393.32544-.02617.48828-.03711.34342-.0231.68612-.04287 1.0293-.05273.11069-.00316.22139-.00212.33203-.00391.34518-.00564.69073-.01935 1.03516-.01172zm-43.53125 26.8711c-.00001.0013 0 .0026 0 .0039h.0039l.00196.00586c-.01063 4.58625.65549 9.20863 2.11718 13.69336.29115.89221.61175 1.77823.9668 2.65821.00186.00462.004.00905.00586.01367.177.43822.36149.87589.55469 1.31054.00177.004.00408.00773.00586.01172.19312.43415.394.8666.60351 1.29688.00218.00447.00368.0092.00586.01367.20971.43028.42992.85714.65625 1.2832.22867.43046.46506.85935.71094 1.28516 3.933 6.813 9.52858 12.04917 15.89258 15.70117l-.00391.00781c.00329.00189.00648.00398.00977.00586l-48.65821 84.03125c-43.31-25-69.99023-71.2205-69.99023-121.23046h.00586v-.00391zm182.98047.00781l.00585.00195v.01368c-.00015 1.55822-.02636 3.11367-.07812 4.66406-.00015.00454.00015.00913 0 .01367-.05191 1.55035-.12951 3.09526-.23242 4.63672-3.09204 46.38504-29.13119 88.50552-69.73828 111.94531l-48.45118-83.91016c.00204-.00117.00383-.00272.00586-.0039l-.00586-.00977c12.92438-7.46156 20.41423-20.61685 21.32813-34.4707.06063-.91905.0933-1.84188.0957-2.76563.00001-.00456-.00001-.00911 0-.01367z" fill="#d44e2b"/>
</svg>
