<svg height="512" viewBox="0 0 512 512" width="512" xmlns="http://www.w3.org/2000/svg">
 <path d="m257.68974 28.931889c-92.92369 0-227.43809 199.935481-227.43809 311.021691 0 133.30371 159.19938 133.29515 227.43809 133.29515 68.23875 0 227.4753.008 227.4753-133.29515 0-111.08621-134.55156-311.021691-227.4753-311.021691zm3.19762 110.019561h12.67882c-46.41447 117.51419-116.34232 147.80197-148.09317 173.48799-8.6074-28.73818-4.62427-74.94667 8.44015-97.30353 43.78405-13.89803 88.51588-39.20788 126.9742-76.18446zm38.07366 4.23856c29.56595 66.13872 33.21919 162.68364-12.67884 270.82884-41.30357 5.36134-77.15407 1.61242-101.57934-21.15621 64.52971-59.42785 91.38438-152.75421 114.25818-249.67263zm38.07365 16.91765c88.78761 74.34189 61.4693 138.20018 42.34952 198.88275-2.44472-64.88857-7.96894-133.99438-42.34952-198.88275z" fill="#d44e2b"/>
</svg>
