<svg height="512" viewBox="0 0 512 512" width="512" xmlns="http://www.w3.org/2000/svg">
 <path d="m228.12 121.17c-57.937 2.735-103.29 55.29-100.98 83.87 2.249 27.805 72.71 52.23 71.885 53.06-14.417 12.173-23.925 20.394-35.942 31.378-28.941 26.451-48.933 46.07-38.795 73.6 11.695 31.749 37.26 30.433 67.32 24.532 77.49-15.283 205.03-113.3 198.54-149.47-5.253-29.27-76.53-87.12-118.67-107.83-13.163-6.469-28.14-9.844-43.36-9.128m11.981 50.21c7.248-.679 15.691 1.155 25.1 5.705 20.555 9.938 41.847 36.32 0 51.35-11.379 4.085-47.887-9.829-46.782-29.1 1.01-17.789 9.599-26.824 21.68-27.955" fill="#d44e2b" fill-rule="evenodd"/>
</svg>
