<svg height="512" viewBox="0 0 512 512" width="512" xmlns="http://www.w3.org/2000/svg">
 <g fill="#d44e2b" transform="matrix(1.0327508 0 0 1.0327508 -.69084759 6.7768381)">
  <path d="m373.04966 243.90548l-124.46321-101.94194-124.53488 101.98612v145.73232c0 3.76367 3.28841 6.78287 7.3579 6.78287h77.83132v-111.75494c0-3.76371 2.3603-6.83421 6.42971-6.80497l66.66457.88627c4.0691.0542 7.39516 2.59866 7.33401 6.36184l-1.80865 111.3118h77.85521c4.06949 0 7.33404-3.01915 7.33402-6.78287z"/>
  <path d="m247.8642 86.174649l-176.626734 144.642511 18.605604 19.41262 158.74369-130.00784 158.70754 130.00784 18.56947-19.41262-176.59059-144.642511-.68642.735086z"/>
  <path d="m375.92249 109.6352h-44.77536l.39016 24.52693 44.3852 37.08389z"/>
 </g>
</svg>
