<svg height="512" viewBox="0 0 512 512" width="512" xmlns="http://www.w3.org/2000/svg">
 <path d="m12.759 275.147c-7.18 7.177-7.858 18.139-1.517 24.482 6.34 6.338 17.303 5.659 24.482-1.518l112.357-118.33 131.061-61.335c4.557 1.931 10.937 1.76 17.146-.948 9.683-4.233 15.213-12.976 12.35-19.534-2.863-6.561-13.038-8.445-22.722-4.215-6.38 2.788-10.895 7.539-12.453 12.326l-90.043 36.498 99.234-104.505c4.949.138 10.822-2.356 15.611-7.143 7.473-7.472 9.43-17.629 4.37-22.693-5.059-5.064-15.218-3.107-22.695 4.367-4.925 4.927-7.39 10.993-7.094 16.024l-143.217 135.749-129.629 52.537.197 32.073 79.313-37.117z" fill="#d44e2b" transform="matrix(1.0287418 0 0 1.0287418 97.08404 84.929029)"/>
</svg>
