<svg viewBox="0 0 512 512" xmlns="http://www.w3.org/2000/svg">
 <path d="m233.17 108.46c.519 11.558-1.558 24.915-3.539 36.35-2.403 13.164-7.596 32.414-5.664 45.38 3.164 21.412 17.922 30.19 29.769 45.38-12.08-.99-20.808-3.345-31.798-8.587-8.07-3.865-16.04-8.345-22.547-14.528-29.576-28.21-21.702-68.826-12.971-104.07 2.355-9.674 8.345-34.15 7.79-43.26-.942-14.251-8.309-24.625-15.422-36.35 37.37 4.01 53.11 46.798 54.44 79.54" fill="#d44e2b"/>
 <path d="m343.55 113.03c-10 15.664-24.721 28.11-39.866 38.585-15.941 10.99-33.876 21.509-40.759 40.904-4.203 12.403-2.355 25.989 0 38.586-11.98-6.835-17.693-21.279-21.13-34.06-1.884-6.932-4.106-20.14-3.732-27.27 2.693-58.5 62.884-71 92.8-100.1 12.318-12.03 16.847-23.876 18.26-40.711 19.999 22.692 9.01 61.28-5.567 84.07" fill="#d44e2b"/>
 <g fill="#d44e2b">
  <path d="m135.59 142.37c43.875 37.788 41.28 111.24 106.86 100.1-13.961 21.702-66.1 20.241-86.42 8.02-35.989-21.702-43.682-78.13-64.49-103.32-9.77-11.751-19.673-15.241-33.16-20.519 23.16-14.999 58.4-.374 77.09 15.712"/>
  <path d="m445.07 169.41c-30.808 33.36-70.903 29.818-111.81 29.914-18.538.048-29.2 1.981-42.74 16.09-6.836 7.174-10.519 16.847-18.586 22.499 0-14.347.326-22.27 4.625-36.35 2.548-8.345 5.712-15.567 10.809-22.692 29.528-41.52 80.15-27.17 123.08-27.27 25.712-.048 31.605-4.807 50.01-22.837 4.625 13.961-6.183 30.566-15.374 40.518"/>
 </g>
 <path d="m294.64 230.87c8.816-5.193 17.17-8.816 27.27-11.04 41.895-9.203 66.05 18.49 93.08 45.34 10.76 10.712 26.18 25.808 40.904 30.385 9.903 3.116 17.17 2.548 27.22 1.413-8.261 14.299-27.644 18.441-43.21 19.721-35.615 2.826-65.855-21.18-90.82-43.21-9.529-8.345-17.499-17.27-29.528-22.12-18.828-7.548-32.27-.145-50.01 4.577 6.606-12.27 12.971-18.26 24.999-25.24" fill="#d44e2b"/>
 <g fill="#d44e2b">
  <path d="m65.26 254.37c32.366-10.289 62.932-2.778 93.12 10.519 12.403 5.471 24.673 12.644 38.585 13.49 18.635 1.039 31.557-13.731 47.691-19.999-4.384 12.644-8.587 21.18-17.08 31.798-5.664 7.125-11.606 12.318-19.25 17.27-33.924 21.932-72.27 5.05-104.44-11.04-11.28-5.567-30.856-15.76-43.21-16.702-10.05-.797-22.547 4.529-31.798 8.212 4.251-17.318 19.903-28.356 36.35-33.537"/>
  <path d="m290.1 258.38c11.04.145 19.11 1.558 29.528 5.616 6.703 2.645 14.77 6.703 20.422 11.183 40.566 32.22 19.903 88.74 30.711 130.86 4.154 16.461 14.48 23.357 23.828 36.35-52.643-1.184-76.99-56.13-77.27-102.18-.048-13.635-.374-30.385-5.616-43.21-4.154-10.1-12.838-19.48-21.605-25.808-6.884-4.903-12.971-5.761-18.212-12.789h18.212"/>
 </g>
 <path d="m260.57 303.8c-.145 9.625-.942 15.809-4.01 24.999-18.16 55.01-85.02 48.26-120.89 65.63-17.837 8.78-20.241 19.673-31.798 32.03-2.741-46.33 18.26-74.73 61.33-92.09 34.479-13.913 67.981-9.299 83.03-51 2.596-7.27 2.874-10.664 3.297-18.212 10.289 11.135 9.203 24.274 9.06 38.586" fill="#d44e2b"/>
 <path d="m291.66 285.65c5.423 6.413 10.942 14.903 14.154 22.692 22.318 54.59-29.951 91.19-47.559 136.29-6.316 15.941-2.874 22.741 0 38.586-38.02-18.212-29.914-80.06-15.1-111.34l13.345-22.692c7.222-11.606 16.883-24.915 18.912-38.586 2.307-16.412-7.5-31.653-14.77-45.43 13.78 2.826 22.08 9.818 30.953 20.47" fill="#d44e2b"/>
 <path d="m326.87831 247.31662c0 5.30732-50.43061 34.41348-55.02739 37.0653-4.59631 2.65273-55.01815 31.77784-59.61493 29.12372-4.59631-2.65459-4.58523-60.88078-4.58523-66.19364 0-5.30732-.0129-63.53258 4.58523-66.19364 4.59632-2.65458 55.01815 26.47192 59.61493 29.12373 4.59632 2.65458 55.02739 31.75705 55.02739 37.06529" fill="#d44e2b" fill-rule="evenodd"/>
</svg>
