<svg height="512" viewBox="0 0 512 512" width="512" xmlns="http://www.w3.org/2000/svg">
 <path d="m452.22702 197.18877c-36.77921-153.872828-178.03721-152.583312-263.32743-112.412109-89.747459 44.894769-154.741839 159.969999-119.294183 256.319209 54.790373 145.35081 257.903073 143.78096 332.694963 4.96183 20.98264-48.30076 12.47464-86.56572-17.61871-127.60595l-6.50364 50.55741-26.67336-44.30606c0 0-14.80137 52.70193-33.30312 71.28778-25.74825 25.86038-65.12054 6.74192-62.72371 15.69844 6.88209 25.74827 65.9475 44.30606 65.9475 44.30606-140.15071 62.40133-148.33633-48.511-146.79451-74.049 4.42921-73.50239 69.46564-127.8863 148.12607-123.79349 25.08949 1.90624 68.75079 31.15862 68.75079 31.15862-18.05321-40.88605-48.66518-58.65893-63.77495-66.31192 59.23363-19.38479 97.61072 38.93776 124.50831 74.17516z" fill="#d44e2b" fill-rule="evenodd"/>
</svg>
