<svg height="512" viewBox="0 0 512 512" width="512" xmlns="http://www.w3.org/2000/svg">
 <path d="m101.14921 296.20903c0 30.50854 19.4663 56.42967 46.67744 66.06102v97.55417h46.75697v-97.55417c27.21591-9.6393 46.75697-35.55089 46.75697-66.06102 0-11.75486-2.95701-22.78597-8.06933-32.51594l92.32095-92.32096c9.7252 5.10597 20.77381 7.98504 32.51594 7.98504 38.71468 0 70.09966-31.38181 70.09966-70.09967 0-38.71468-31.3818-70.09967-70.09966-70.09967-38.71468 0-70.09967 31.381809-70.09967 70.09967 0 11.76122 2.95065 22.86073 8.06934 32.59547l-92.24938 92.24938c-2.95064-1.55247-6.07626-2.82976-9.25595-3.95593v-54.74837c27.21591-9.6393 46.75697-35.62882 46.75697-66.14055 0-38.71468-31.38181-70.09967-70.09967-70.09967-38.71468 0-70.09967 31.381809-70.09967 70.09967 0 30.50855 19.4663 56.50921 46.67744 66.14055v54.74837c-27.21591 9.6393-46.67744 35.55088-46.67744 66.06102" fill="#d44e2b"/>
</svg>
