<svg viewBox="0 0 512 512" xmlns="http://www.w3.org/2000/svg">
 <path d="m256 1c-140.83 0-255 114.17-255 255 0 140.83 114.17 255 255 255 140.83 0 255-114.17 255-255 0-140.83-114.17-255-255-255m8.827 44.931c120.9 0 218.9 98 218.9 218.9 0 120.9-98 218.9-218.9 218.9-120.9 0-218.93-98-218.93-218.9 0-120.9 98.03-218.9 218.93-218.9" fill-opacity=".067" fill-rule="evenodd"/>
 <path d="m85.991617 52.14678c-18.748703 0-33.839837 15.091134-33.839837 33.839837v111.854113c0 18.7487 15.091134 33.83983 33.839837 33.83983h111.854113c18.7487 0 33.83983-15.09113 33.83983-33.83983v-111.854113c0-18.748703-15.09113-33.839837-33.83983-33.839837zm228.162653 0c-18.7487 0-33.83983 15.091134-33.83983 33.839837v111.854113c0 18.7487 15.09113 33.83983 33.83983 33.83983h111.85411c18.74871 0 33.83984-15.09113 33.83984-33.83983v-111.854113c0-18.748703-15.09113-33.839837-33.83984-33.839837zm-228.162653 228.16266c-18.748703 0-33.839837 15.09113-33.839837 33.83983v111.85411c0 18.74871 15.091134 33.83984 33.839837 33.83984h111.854113c18.7487 0 33.83983-15.09113 33.83983-33.83984v-111.85411c0-18.7487-15.09113-33.83983-33.83983-33.83983zm228.162653 0c-18.7487 0-33.83983 15.09113-33.83983 33.83983v111.85411c0 18.74871 15.09113 33.83984 33.83983 33.83984h111.85411c18.74871 0 33.83984-15.09113 33.83984-33.83984v-111.85411c0-18.7487-15.09113-33.83983-33.83984-33.83983z" fill="#d44e2b"/>
</svg>
