<?xml version="1.0" encoding="UTF-8" standalone="no"?>
<svg xmlns="http://www.w3.org/2000/svg" height="512" viewBox="0 0 512 512" width="512" version="1.1">
 id=&quot;defs22&quot; /&gt;
 <g transform="matrix(13.273304,0,0,13.273304,-58.686455,-76.151918)" style="fill:#d44e2b;fill-opacity:1">
  <path d="m 22.537,10.01 a 14,14 0 0 0 -8.904,3.588 14,14 0 0 0 -3.422,16.1 14,14 0 0 0 14.252,8.23 14,14 0 0 0 12.23,-11.01 L 23,24 30,11.88 a 14,14 0 0 0 -7.463,-1.867 z m -0.426,2.539 a 3,3 0 0 1 3,3 3,3 0 0 1 -3,3 3,3 0 0 1 -3,-3 3,3 0 0 1 3,-3 z m -7.426,6.686 a 3,3 0 0 1 3,3 3,3 0 0 1 -3,3 3,3 0 0 1 -3,-3 3,3 0 0 1 3,-3 z m 14.003,8.081 a 3,3 0 0 1 3,3 3,3 0 0 1 -3,3 3,3 0 0 1 -3,-3 3,3 0 0 1 3,-3 z m -9.938,1.045 a 3,3 0 0 1 3,3 3,3 0 0 1 -3,3 3,3 0 0 1 -3,-3 3,3 0 0 1 3,-3 z" style="fill:#d44e2b;fill-opacity:1;fill-rule:evenodd"/>
  <path d="m 32,10.964 -7,12.13 13.693,2.91 A 14,14 0 0 0 32,10.964 m 0.766,5.668 a 3,3 0 0 1 3,3 3,3 0 0 1 -3,3 3,3 0 0 1 -3,-3 3,3 0 0 1 3,-3 z" style="fill:#d44e2b;fill-opacity:1;fill-rule:evenodd"/>
 </g>
</svg>
