<svg viewBox="0 0 512 512" xmlns="http://www.w3.org/2000/svg">
 <path d="m148.19 147.36c-13.556 0-24.531 11.01-24.531 24.563 0 13.556 10.975 24.531 24.531 24.531s24.563-10.975 24.563-24.531-11.01-24.563-24.563-24.563m45.09 7.688v33.75h195.06v-33.75zm-45.09 76.41c-13.556 0-24.531 11.01-24.531 24.563 0 13.556 10.975 24.531 24.531 24.531s24.563-10.975 24.563-24.531-11.01-24.563-24.563-24.563m45.09 7.688v33.75h195.06v-33.75zm-45.09 76.41c-13.556 0-24.531 11.01-24.531 24.563 0 13.556 10.975 24.531 24.531 24.531s24.563-10.975 24.563-24.531-11.01-24.563-24.563-24.563m45.09 7.688v33.75h195.06v-33.75z" fill="#d44e2b"/>
</svg>
