<svg height="1814.17" viewBox="0 0 512 512" width="1814.17" xmlns="http://www.w3.org/2000/svg">
 <path d="m125.05999-90.470011v49.130001h261.88002v-49.120001h-261.87001m66.19 11.905999c6.976 0 12.65599 5.618003 12.65599 12.594002 0 6.975998-5.67999 12.656-12.65599 12.656-6.97601 0-12.656-5.680002-12.656-12.656 0-6.975999 5.67999-12.594002 12.656-12.594002m129.46999 0c6.976 0 12.62501 5.618003 12.62501 12.594002 0 6.975998-5.64901 12.656-12.62501 12.656-6.97599 0-12.625-5.680002-12.625-12.656 0-6.975999 5.64901-12.594002 12.625-12.594002m-185.36999 50.380001v200.660011h42.81299c29.329-16.36301 58.64201-32.75001 87.96901-49.12001v-21.406c5.32 2.66 10.56 4.652 15.78099 6.03 2.991.755 5.97301 1.265 8.90601 1.594 9.95799-5.555 19.946-11.080001 29.906-16.625002-.472-4.083001-2.532-7.243997-6.12501-9.468998-4.08899-2.610999-10.158-3.906001-18.18999-3.906001h-11.37501v-18.344001h11.96901c7.14299 0 12.47099-1.095999 15.969-3.312998 3.497-2.266 5.21899-5.669 5.21899-10.250002 0-4.236-1.632-7.496999-5.03-9.812999-3.399-2.314998-8.23099-3.500001-14.43799-3.500001-4.581 0-9.22701.497-13.906 1.531-4.68 1.035-9.37 2.574001-14.00001 4.594v-20.874999c5.616-1.575998 11.20201-2.712 16.71901-3.500001 5.51699-.787997 10.99199-1.186998 16.31299-1.188 14.33401 0 25.00001 2.365002 32.09001 7.094003 7.142 4.68 10.74999 11.760997 10.74999 21.219998 0 6.452999-1.69499 11.737001-5.09399 15.875001-3.39901 4.088999-8.47501 6.949999-15.12 8.624999 7.438 1.921002 13.12999 5.316 16.969 10.09 1.984 2.410999 3.43999 5.168001 4.406 8.249998 7.91399 14.177003 15.831 28.357003 23.74999 42.531003l5.06301-1.375v-155.410001h-241.31m65.09 43.089999c13.201 0 23.428 2.875003 30.719 8.688003 7.33999 5.813 11.03 13.949997 11.03 24.343996 0 6.010001-1.584 11.654003-4.68801 16.875001-3.10299 5.171999-9.61199 12.059999-19.563 20.781002l-23.56299 20.719h48.563v20.906h-80.16v-20.906l40.25-35.531002c3.59599-3.250999 6.245-6.458997 7.96899-9.562998 1.72401-3.103 2.594-6.275002 2.594-9.625001 0-5.172-1.75299-9.379-5.24999-12.531001-3.448-3.151997-8.05-4.719001-13.81301-4.719001-4.433 0-9.29199.954002-14.56299 2.875004-5.271 1.872-10.89701 4.693999-16.906 8.437999v-24.220002c6.404-2.117998 12.744-3.759998 19-4.843997 6.256-1.133 12.365-1.687003 18.37499-1.688001m141.66001 72.749999l-151.97 84.810011h17.594l158.08999-42.34001-23.71899-42.469" fill="#d44e2b" transform="translate(0 215.00001)"/>
</svg>
