<svg height="512" viewBox="0 0 512 512" width="512" xmlns="http://www.w3.org/2000/svg">
 <path d="m176.56935 32.631296c-7.57179 0-13.69043 6.119683-13.69043 13.690432v59.833142c0 7.57179 6.11968 13.61548 13.69043 13.61548 7.57178 0 13.69042-6.04057 13.69042-13.61548v-59.833142c0-7.571793-6.11968-13.690432-13.69042-13.690432m75.99892 0c-7.57179 0-13.61548 6.119683-13.61548 13.690432v59.833142c0 7.57179 6.04057 13.61548 13.61548 13.61548 7.5718 0 13.69044-6.04057 13.69044-13.61548v-59.833142c0-7.571793-6.11969-13.690432-13.69044-13.690432m76.03017 0c-7.5718 0-13.69044 6.119683-13.69044 13.690432v59.833142c0 7.57179 6.11969 13.61548 13.69044 13.61548 7.57179 0 13.61548-6.04057 13.61548-13.61548v-59.833142c0-7.571793-6.04057-13.690432-13.61548-13.690432m-153.30945 106.821124c-20.81877 0-37.55706 16.82156-37.55706 37.64033v155.43296c0 20.81878 16.7487 37.59871 37.55706 37.59871h154.5898c20.81878 0 37.55707-16.77993 37.55707-37.59871v-155.43296c0-20.81877-16.7487-37.64033-37.55707-37.64033zm102.85932 22.47178a3.4094905 3.4094905 0 0 1 3.19317 2.15537c.5184 1.29492 1.05968 2.35876 1.63636 3.51212a3.4094905 3.4094905 0 0 1 .0798.19957c2.28382 5.4233 2.46807 5.45348 4.23142 8.97913.71616 1.09092 2.0444 3.25086 3.75259 6.66617a3.4094905 3.4094905 0 0 1 -.99787 4.19103c-9.59433 7.33863-10.25636 7.99857-18.16124 15.08842a3.4094905 3.4094905 0 0 1 -.79829.71844 3.4094905 3.4094905 0 0 1 -.11973.0798 3.4094905 3.4094905 0 0 1 -.19957.0799 3.4094905 3.4094905 0 0 1 -.11972.0799 3.4094905 3.4094905 0 0 1 -.15966.0398 3.4094905 3.4094905 0 0 1 -.35923.11972 3.4094905 3.4094905 0 0 1 -.99785.11973 3.4094905 3.4094905 0 0 1 -.11973 0 3.4094905 3.4094905 0 0 1 -.23947-.0398 3.4094905 3.4094905 0 0 1 -.39914-.0799 3.4094905 3.4094905 0 0 1 -.0398 0 3.4094905 3.4094905 0 0 1 -.19957-.0798 3.4094905 3.4094905 0 0 1 -.11972-.0398 3.4094905 3.4094905 0 0 1 -.59872-.27939 3.4094905 3.4094905 0 0 1 -.15965-.11973 3.4094905 3.4094905 0 0 1 -.11972-.11972 3.4094905 3.4094905 0 0 1 -.27939-.19957 3.4094905 3.4094905 0 0 1 -.11972-.11972 3.4094905 3.4094905 0 0 1 -.0798-.15966 3.4094905 3.4094905 0 0 1 -.51888-.71847 3.4094905 3.4094905 0 0 1 -.0398-.11972c-.0437-.0635-.0375-.0967-.0802-.15927-5.9906-8.76991-8.87296-13.83095-10.93715-20.316a3.4094905 3.4094905 0 0 1 1.67643-4.11119c.74636-.37265 1.80084-1.13046 2.9542-1.99652a3.4094905 3.4094905 0 0 1 .15965-.0798c2.54509-1.69777 4.47707-3.14363 5.78762-4.19498 2.92607-2.34106 5.35562-4.19498 6.10615-4.94967 1.40006-1.40006 3.04266-2.37854 4.31053-3.39242a3.4094905 3.4094905 0 0 1 1.75627-.71845 3.4094905 3.4094905 0 0 1 .31931-.0398m-232.25405 3.15392c-7.571793 0-13.690432 6.04057-13.690432 13.61548 0 7.57179 6.119683 13.69042 13.690432 13.69042h59.83315c7.5718 0 13.61548-6.11967 13.61548-13.69042 0-7.57179-6.04057-13.61548-13.61548-13.61548zm360.46665 0c-7.57179 0-13.69043 6.04057-13.69043 13.61548 0 7.57179 6.11968 13.69042 13.69043 13.69042h59.8332c7.57179 0 13.61548-6.11967 13.61548-13.69042 0-7.57179-6.04057-13.61548-13.61548-13.61548zm-137.38308 55.91922c1.65821 0 3.33412.49653 4.66965 1.59681 1.33552 1.09922 2.23489 2.89797 2.23489 4.71024 0 1.28972-.28626 2.37959-.7984 4.78936-.51214 2.40978-1.35218 5.99684-2.63461 11.37538-2.56697 10.75809-6.9389 28.76738-14.29001 59.03475a3.4094905 3.4094905 0 0 1 -.0398.0798c-1.67486 6.13946-2.47535 11.61063-2.47535 13.81117 0 1.98196.4653 3.38722.87856 4.03052.41221.64226.46842.63914.91811.63914 1.78729 0 1.69464.18632 5.5482-1.63635 3.77027-1.78417 10.90487-5.60859 24.02486-12.65262a3.4094905 3.4094905 0 0 1 .31932-.23948 3.4094905 3.4094905 0 0 1 .87812-.35924 3.4094905 3.4094905 0 0 1 .15965-.0398 3.4094905 3.4094905 0 0 1 .19957-.0398 3.4094905 3.4094905 0 0 1 .67854-.0799 3.4094905 3.4094905 0 0 1 .15966 0 3.4094905 3.4094905 0 0 1 .15966 0 3.4094905 3.4094905 0 0 1 .35922.11972 3.4094905 3.4094905 0 0 1 .31931.0798 3.4094905 3.4094905 0 0 1 .0398 0 3.4094905 3.4094905 0 0 1 .2794.11972 3.4094905 3.4094905 0 0 1 .47898.23948 3.4094905 3.4094905 0 0 1 1.47678 2.35492 3.4094905 3.4094905 0 0 1 .0398.15966 3.4094905 3.4094905 0 0 1 0 .19958 3.4094905 3.4094905 0 0 1 -.0398.83819 3.4094905 3.4094905 0 0 1 -.0398.27939l-.0395.11972-1.07841 7.46458a3.4094905 3.4094905 0 0 1 -1.5966 2.47472c-2.69602 1.61866-5.24633 3.29561-7.90385 4.78936-.0979.0562-.18008.1051-.28001.15927-5.44619 3.71719-10.86324 7.17831-16.24488 10.57698-15.39133 9.87225-23.14007 14.04954-29.7771 14.04954-3.31747 0-6.23834-2.04753-7.90384-4.78936-1.66446-2.74183-2.47535-6.16548-2.47535-10.09813 0-3.6027.0739-6.08117 1.79561-13.41147 1.72068-7.3282 5.13495-19.92356 11.89481-45.10386.006-.0188-.006-.0209 0-.0395 4.30324-16.35522 5.06938-20.09115 5.06938-23.30974 0-1.1492-.21861-1.55412-.28003-1.7165-.88166-.004-1.01178-.0988-3.47256 1.03885-2.61588 1.20749-7.23141 3.65578-15.72859 8.26298a3.4094905 3.4094905 0 0 1 -5.02919-3.23305l.59854-8.06311a3.4094905 3.4094905 0 0 1 1.47678-2.59445c11.87087-7.96214 22.10538-14.32643 30.05502-18.75771 3.9743-2.21615 7.35944-3.97639 10.17831-5.18907 2.82406-1.21374 4.89657-2.03608 7.22411-2.03608m-223.08365 20.07749c-7.571793 0-13.690418 6.11968-13.690418 13.69043 0 7.57178 6.11967 13.61547 13.690418 13.61547h59.83315c7.5718 0 13.61548-6.04056 13.61548-13.61548 0-7.57179-6.04057-13.69042-13.61548-13.69042zm360.46665 0c-7.57179 0-13.69043 6.11968-13.69043 13.69042 0 7.57179 6.11968 13.61548 13.69043 13.61548h59.83316c7.57177 0 13.61548-6.04056 13.61548-13.61548 0-7.57179-6.04057-13.69042-13.61548-13.69042zm-360.46665 75.99894c-7.571793 0-13.690418 6.11967-13.690418 13.69042 0 7.57179 6.11967 13.69043 13.690418 13.69043h59.83315c7.5718 0 13.61548-6.1197 13.61548-13.69043 0-7.57178-6.04057-13.69042-13.61548-13.69042zm360.46665 0c-7.57179 0-13.69043 6.11967-13.69043 13.69042 0 7.57179 6.11968 13.69043 13.69043 13.69043h59.83316c7.57177 0 13.61548-6.1197 13.61548-13.69043 0-7.57178-6.04057-13.69042-13.61548-13.69042zm-229.78721 75.15576c-7.57178 0-13.69042 6.11968-13.69042 13.69043v59.83316c0 7.57178 6.11968 13.61546 13.69042 13.61546 7.57179 0 13.69043-6.04055 13.69043-13.61546v-59.83316c0-7.57179-6.11969-13.69043-13.69043-13.69043m75.99893 0c-7.57179 0-13.61548 6.11968-13.61548 13.69043v59.83316c0 7.57178 6.04057 13.61546 13.61548 13.61546 7.5718 0 13.69043-6.04055 13.69043-13.61546v-59.83316c0-7.57179-6.11968-13.69043-13.69043-13.69043m76.03016 0c-7.57179 0-13.69043 6.11968-13.69043 13.69043v59.83316c0 7.57178 6.11969 13.61546 13.69043 13.61546 7.57178 0 13.61549-6.04055 13.61549-13.61546v-59.83316c0-7.57179-6.04057-13.69043-13.61549-13.69043" fill="#d44e2b" fill-rule="evenodd"/>
</svg>
