<svg viewBox="0 0 512 512" xmlns="http://www.w3.org/2000/svg">
 <path d="m259.86357 30.369767c-18.39927.07464-36.00442 1.686774-51.50482 4.369192-45.60858 8.008444-53.96185 24.629883-53.96185 55.409773v40.691558h107.83412v13.49419h-148.30176c-31.362045 0-58.783316 18.68885-67.366457 54.1111-9.889271 40.60199-10.41023 65.96331 0 108.29685 7.635264 31.57103 25.910637 54.03647 57.245817 54.03647h31.73075v-53.96183c0-35.14162 30.85154-65.99316 67.44111-65.99316h112.89442c29.9589 0 58.32058-24.44628 58.32058-54.18574v-96.26553c0-28.884136-29.01251-50.609185-58.32058-55.409773-18.4739-3.054105-37.72103-4.443828-56.10388-4.369192l.0761-.229879m-58.32058 32.650268c11.13718 0 20.23382 9.178737 20.23382 20.463701 0 11.211822-9.09664 20.233825-20.23382 20.233825-11.21182 0-20.30996-9.016033-20.30996-20.233825 0-11.267052 9.03096-20.463701 20.30996-20.463701m188.0081 81.323396v47.36551c0 36.66867-31.49639 63.23162-67.36646 63.23162h-118.26822c-29.46182 0-53.96184 29.37375-53.96184 58.55941v101.54976c0 28.88413 25.42102 45.82352 53.96184 54.1111 34.11762 9.88928 71.23112 11.78802 112.05851 0 27.13765-7.78453 53.96183-23.41928 53.96183-54.1111v-40.69155h-107.68483v-13.49419h161.64667c31.28741 0 43.04407-21.74297 53.96183-54.11111 11.26705-33.39066 10.68937-65.53937 0-108.29685-7.78454-30.91423-22.59978-54.03647-53.96183-54.03647l-34.33257-.0761m-66.67981 257.21061c11.13719 0 20.23382 8.94588 20.23382 20.1577 0 11.21182-9.01603 20.4637-20.23382 20.4637-11.21182 0-20.30995-9.25337-20.30995-20.4637 0-11.21033 9.09962-20.1577 20.30995-20.1577" fill="#d44e2b"/>
</svg>
