<svg version="1.1" viewBox="0 0 512 512" xmlns="http://www.w3.org/2000/svg">
 <path d="m253.04 34.141c-120.9 0-218.91 98.01-218.91 218.91s98.008 218.91 218.91 218.91 218.91-98.01 218.91-218.91-98.01-218.91-218.91-218.91zm-103.84 112.94h96.311c-0.021 32.8-0.041 65.611 0 98.41h-98.41v-96.311c0-1.174 0.92075-2.0938 2.0938-2.0938l0.00586-0.00586zm117.31 0 0.00586 0.00586h96.311c1.174 0 2.0938 0.92075 2.0938 2.0938v96.279c-32.8-0.017-65.611-0.01975-98.41 0.03125v-98.41zm-21 119.41 0.00586 0.00391c-0.00195 0-0.00391-1e-5 -0.00586 0v98.406h-96.311c-1.174 0-2.0938-0.92075-2.0938-2.0938v-96.281c32.798 0.017 65.607 0.01974 98.404-0.03125v-0.00391zm21 0v0.00586h98.404v96.311c0 1.174-0.92075 2.0938-2.0938 2.0938h-96.311c0.025-32.808 0.05399-65.604 0-98.404h-0.00586l0.00586-0.00586z" fill="#d44e2b"/>
</svg>
