<svg height="512" viewBox="0 0 512 512" width="512" xmlns="http://www.w3.org/2000/svg">
 <path d="m84.462304 364.16492c.0067-68.35216.734783-78.81069 6.692123-96.18106 10.467543-30.5236 32.121393-55.34047 60.783293-69.6559 6.34331-3.17072 11.89651-5.21498 26.80379-9.86813.36596-.15725.33308-.22873 2.59247-.45747-.40742 3.12786-.84629 6.9676-1.01497 10.46999-.17012 3.50094 0 10.51284 0 10.51284l-9.3991 3.42948c-12.07807 4.40585-30.06986 16.26963-38.26185 25.23572-8.25891 9.03328-16.96225 23.04137-21.0243 33.83585-6.22136 16.52836-6.99646 25.7289-6.99646 83.06215v52.81588h52.81203c58.10977 0 66.98679-.78625 84.122-7.44077 12.05878-4.68175 28.91451-15.97371 36.91509-24.7268 20.02146-21.90632 30.37822-52.58287 26.83108-79.46971-3.98284-30.18479-19.6825-55.99233-43.84406-72.07039-12.59899-8.38284-25.60683-13.7036-39.15489-16.01231l-9.83483-1.67828c0 0-.0286-6.6631.34023-9.96535.37168-3.2808.68332-5.28073 1.88857-9.71803l7.99587.84343c9.92301 1.01498 26.1579 5.99122 36.44518 11.17045 29.68259 14.93585 51.5902 40.65476 61.55411 72.25909 19.62533 62.24801-14.40164 128.9319-76.69039 150.29354-17.37095 5.95691-27.82433 6.68456-96.17893 6.69313h-63.383344l.0067-63.38592zm198.112896-40.15871c-42.35706-8.31137-78.05175-40.59187-91.28288-82.56039-19.62533-62.24943 14.40164-128.93474 76.69054-150.294963 17.37094-5.95691 27.82433-6.684554 96.17878-6.69313h63.38334l-.008 63.387363c-.008 68.35644-.73478 78.81068-6.69212 96.18106-10.46769 30.52646-32.12139 55.34045-60.7833 69.65875-6.34346 3.16787-14.09801 6.03268-28.68677 10.42423.29163-2.77474.80626-6.61592.93349-9.93818.14439-3.74825-.19157-11.24764-.19157-11.24764l8.96395-3.3337c12.05105-4.47589 30.06986-16.27105 38.26186-25.23428 8.25904-9.03472 16.96224-23.04138 21.02428-33.83585 6.22166-16.5298 6.99662-25.73034 6.99662-83.06501v-52.81302h-52.81203c-58.10976 0-66.98666.80054-84.12202 7.43791-12.05876 4.68175-28.9145 15.97371-36.91508 24.72822-20.13453 22.02926-30.5985 53.43775-26.76732 80.34173 4.25531 29.88173 19.8835 55.29616 43.78031 71.19695 12.59899 8.38284 25.60683 13.70646 39.15504 16.01231l9.83467 1.67972c0 0 .29878 6.61878-.0715 9.89671-.35737 3.20219-1.87713 8.75596-2.06597 9.44929-2.58833 0-11.73426-.78625-14.8085-1.37236z" fill="#d44e2b"/>
</svg>
