<svg viewBox="0 0 512 512" xmlns="http://www.w3.org/2000/svg">
 <path d="m148.03 110.06c-2.307 0-4.156 1.849-4.156 4.156v283.56c0 2.307 1.849 4.156 4.156 4.156h215.94c2.307 0 4.156-1.849 4.156-4.156v-196.91h-64.62c-8.419-.098-20.268 2.339-24.938-6.875-2.405-27.821-.986-55.932-1.031-83.938h-129.5m137.31 0v78.63c0 2.307 1.849 4.188 4.156 4.188h78.63l-82.78-82.81m-50 90.03c1.389-.028 2.62 0 3.375 0 19.06 0 26.969 8.51 26.969 28.906v32.688c0 12.488 4.745 18.949 15.313 20.406v16.844c-10.567 1.457-15.313 7.919-15.313 20.406v32.688c0 20.396-7.91 28.938-26.969 28.938-1.51 0-4.888-.011-7.719-.219v-16.656c13.398-1.249 14.875-3.528 14.875-21.22v-25.594c0-16.234 4.357-23.13 17-26.875-12.454-3.33-17-10.422-17-26.656v-25.563c0-17.691-1.477-20-14.875-21.25v-16.656c1.415-.105 2.954-.159 4.344-.188" fill="#d44e2b"/>
</svg>
