<svg height="512" viewBox="0 0 512 512" width="512" xmlns="http://www.w3.org/2000/svg">
 <path d="m202.59068 106.32468c31.12 0 61.731 27.705 78.59 70.779-15.358 8.164-29.575 18.502-41.18 30.16-42.816 43.09-53.22 103.55-25.659 143.26-3.916.659-7.842 1.103-11.747 1.103-49.802 0-90.33-51.27-90.33-114.29 0-60.58 39.458-131.02 90.33-131.02m23.746 248.7c-29.51-36.806-19.236-96.41 22.782-138.68 11.785-11.86 26.366-22.386 42.18-30.421l1.42-.723-.337-.67c20.897-10.381 43.41-16.12 63.57-16.12 20.87 0 38.22 6.267 50.14 18.13 16.627 16.526 22.348 43.07 16.09 74.74-6 30.389-22.17 60.64-44.38 82.976-25.01 25.16-57.27 39.581-88.5 39.581-22.841 0-42.634-7.676-57.25-22.21-1.5-1.473-2.952-3.182-4.419-4.939l-1.296-1.671" fill="#d44e2b"/>
</svg>
