<svg height="512" viewBox="0 0 512 512" width="512" xmlns="http://www.w3.org/2000/svg">
 <path d="m264.3305 43.468935c-28.01251 0-55.08523 5.297594-81.22513 15.88025-25.98953 10.582657-48.78519 25.516162-68.38838 44.817225-19.603182 19.45421-34.709329 42.01876-45.291986 67.69921-10.582657 25.67905-15.88025 52.68912-15.88025 81.01628 0 29.4187 5.191781 56.94391 15.619895 82.6174 10.426722 25.52312 25.633113 48.0278 45.553731 67.4834 19.92063 19.45421 42.61048 34.21926 68.13499 44.3355 25.52313 10.27079 52.70027 15.39852 81.48966 15.39852 23.65469 0 46.90981-4.04594 69.79458-12.13921 23.03235-7.93734 44.28537-19.45004 63.73958-34.54644l-24.97457-37.81409c-13.85171 12.44969-30.59934 22.31811-50.20531 29.62893-19.60318 7.31499-39.22029 10.96414-58.82348 10.96414-22.8778 0-44.42181-4.04594-64.65709-12.13922-20.07656-7.93734-37.91156-19.50572-53.47715-34.76363-15.71875-15.56281-27.75215-33.45629-36.1559-53.69017-8.24782-20.38703-12.399575-42.15798-12.399575-65.35044 0-28.16844 6.382175-54.32644 19.143735-78.44059 12.9175-24.27843 30.92235-44.05008 53.95053-59.30241 14.00625-9.18204 29.23074-16.128078 45.72776-20.797757 16.49703-4.824221 33.76259-7.221713 51.82035-7.223105 25.8336 0 49.81966 5.13052 71.91919 15.398522 22.25407 10.27218 40.77963 24.91331 55.55999 43.89972 9.18203 11.36093 16.02226 23.89138 20.536 37.59133 4.51236 13.53984 6.78733 28.08212 6.78733 43.63936 0 24.43437-5.52732 44.497-16.57639 60.21575-11.05046 15.56281-26.2123 24.84509-45.51057 27.80227v-161.76804h-48.81305v30.58682c-4.66967-11.04907-12.19769-19.70065-22.62441-25.93106-10.27218-6.22485-22.34596-9.35467-36.19906-9.35467-26.60631 0-48.32436 9.74033-65.13186 29.19454-16.80472 19.45421-25.18619 44.74761-25.18619 75.8788 0 31.12563 8.3216 56.42599 24.97456 75.87881 16.80472 19.29827 38.58124 28.93279 65.35045 28.93279 13.85032 0 25.92688-3.02401 36.19906-9.09292 10.42672-6.22485 17.95474-14.88199 22.62442-25.93106v35.9387h9.09292c46.22342 0 82.01176-11.6366 107.38591-34.97386 25.36719-23.34422 38.06888-56.10854 38.07028-98.28045 0-19.60319-3.02402-38.29722-9.09293-56.03893-5.91437-17.89766-14.69403-34.47822-26.36684-49.73055-19.14234-25.055324-42.96132-44.201843-71.43746-57.431208-28.4803-13.383907-60.16005-20.057065-95.02253-20.057065m-3.26349 149.154063c14.00625 0 25.11658 5.52731 33.37136 16.57638 8.40932 10.89453 12.61398 25.76538 12.61398 44.59446 0 18.98641-4.15175 34.08699-12.39957 45.29199-8.24921 11.04907-19.25929 16.57638-33.10961 16.57638-14.00625 0-25.17227-5.52731-33.41452-16.57638-8.09328-11.04907-12.13922-26.14965-12.13922-45.29199 0-18.83047 4.04594-33.70689 12.13922-44.59446 8.24782-11.04907 19.2398-16.57638 32.93558-16.57638" fill="#d44e2b"/>
</svg>
