<svg height="512" viewBox="0 0 512 512" width="512" xmlns="http://www.w3.org/2000/svg">
 <path d="m236.39 116.38204l-120.72 22.625 26.625 27.13-.063.063-.031.031c-32.04 34.19-38.36 82.6-27.687 124.47 10.681 41.858 38.47 77.64 75.62 86.06.01.002.021-.002.031 0l5.188 1.188 1.375.313-.875-1.125-3.313-4.25c-42.19-54.09-46.915-124.61-8.469-164.28l28.28 28.813 24.03-121.03m78.875 0l .875 1.125 3.313 4.219c42.19 54.09 46.915 124.61 8.469 164.28l-28.28-28.813-24.03 121.06 120.72-22.656-26.625-27.12.063-.063h.031c32.04-34.19 38.36-82.6 27.688-124.47-10.681-41.858-38.47-77.64-75.62-86.06-.01-.002-.022.002-.031 0l-5.188-1.188-1.375-.313" fill="#d44e2b"/>
</svg>
