<svg xmlns="http://www.w3.org/2000/svg" version="1.1" viewBox="0 0 512 512">
 <g fill="#d44e2b" transform="matrix(9.8074 0 0 9.8074 20.622 20.642)">
  <g fill="#d44e2b">
   <g fill="#d44e2b">
    <path d="m39.625 15-12.219 18h5.406l12.188-18m-5.375 0"/>
    <path d="m15.188 15-12.188 18l5.406-0.004 12.188-18m-5.406 0.004"/>
    <path d="m20.602 33h-5.391l12.191-18h5.387m-12.188 18"/>
    <path opacity=".1" d="m11.959 19.768-2.703 3.992 2.701 3.99 2.705-3.992m9.502-3.975-2.695 3.979 2.693 3.979 2.695-3.98zm12.213 0.004-2.701 3.977 2.699 3.975 2.693-3.977zm-18.311 8.998-2.705 3.992 0.152 0.223h5.088l0.158-0.234zm12.197 0.004-2.697 3.977 0.158 0.234h5.088l0.152-0.225"/>
    <path d="m3 15 12.188 17.996h5.406l-12.188-18m-5.406 0.004"/>
    <path d="m32.793 33-12.191-18h-5.391l12.191 18m5.391 0"/>
    <path d="m27.406 15 12.219 18h5.375l-12.188-18m-5.406 0"/>
   </g>
  </g>
 </g>
</svg>
