<svg viewBox="0 0 512 512" xmlns="http://www.w3.org/2000/svg">
 <path d="m276.89 123.09l-157.99 27.879v210.39l157.99 27.542v-265.81m6.607 30.576c-.332 0-.59.258-.59.59v15.659c0-.094.076-.169.169-.169h41.11c.092 0 .169.075.169.169v27.492c0 .094-.079.169-.169.169h-41.11c-.093 0-.169-.075-.169-.169v8.512c0-.093.076-.169.169-.169h41.11c.092 0 .169.075.169.169v27.492c0 .094-.079.169-.169.169h-41.11c-.093 0-.169-.075-.169-.169v8.512c0-.094.076-.169.169-.169h41.11c.092 0 .169.075.169.169v27.492c0 .094-.079.169-.169.169h-41.11c-.093 0-.169-.075-.169-.169v8.512c0-.094.076-.169.169-.169h41.11c.092 0 .169.075.169.169v27.475c0 .094-.079.169-.169.169h-41.11c-.093 0-.169-.076-.169-.169v8.529c0-.094.076-.169.169-.169h41.11c.092 0 .169.076.169.169v27.475c0 .094-.079.169-.169.169h-41.11c-.093 0-.169-.075-.169-.169v15.659c0 .331.257.607.59.607h108.99c.332 0 .607-.274.607-.607v-202.81c0-.332-.274-.59-.607-.59h-108.99m48.12 16.08h44.4c.095 0 .169.075.169.169v27.492c0 .094-.073.169-.169.169h-44.4c-.092 0-.169-.075-.169-.169v-27.492c0-.094.076-.169.169-.169m0 36h44.4c.095 0 .169.075.169.169v27.492c0 .094-.073.169-.169.169h-44.4c-.092 0-.169-.075-.169-.169v-27.492c0-.094.076-.169.169-.169m-167.76 4.871h13.05l18.524 31.891c1.223 2.109 2.308 4.229 3.236 6.338h.253c1.35-2.784 2.527-4.988 3.54-6.591l19.3-31.638h12.22l-28.537 44.988 28.907 45.763h-12.962l-20.884-34.739c-.633-1.055-1.331-2.56-2.09-4.5h-.253c-.422.97-1.145 2.476-2.158 4.5l-21.508 34.739h-13.03l30.357-45.628-27.964-45.12m167.76 31.13h44.4c.095 0 .169.075.169.169v27.492c0 .094-.073.169-.169.169h-44.4c-.092 0-.169-.075-.169-.169v-27.492c0-.094.076-.169.169-.169m0 36h44.4c.095 0 .169.075.169.169v27.475c0 .094-.073.169-.169.169h-44.4c-.092 0-.169-.076-.169-.169v-27.475c0-.094.076-.169.169-.169m0 36h44.4c.095 0 .169.075.169.169v27.475c0 .094-.073.169-.169.169h-44.4c-.092 0-.169-.076-.169-.169v-27.475c0-.094.076-.169.169-.169" fill="#d44e2b" fill-rule="evenodd"/>
</svg>
