<svg viewBox="0 0 512 512" xmlns="http://www.w3.org/2000/svg">
 <path d="m276.62 124.82l-155.94 27.517v207.66l155.94 27.18zm5.939 30.18v28.748c7.821-6.733 17.796-10.44 28.12-10.448v43.16h43.14c0 17.451-10.513 33.18-26.635 39.862-15.04 6.204-32.29 3.419-44.62-7.204v39.396h89.37v8.485h-89.37v20.28h89.37v8.485h-89.37v30.596h108.16c.328 0 .599-.272.599-.599v-200.17c0-.327-.272-.582-.599-.582h-107.57zm34.787 18.883c18.83 2.97 33.479 17.944 36.04 36.834h-36.04zm-149.84 31.407h27.991c10.89 0 19.31 2.653 25.276 7.956 6.01 5.303 9.03 12.785 9.03 22.445 0 9.659-3.341 17.567-10.02 23.722-6.629 6.155-15.6 9.233-26.916 9.233h-13.429v38.502h-11.934zm11.934 10.801v41.768h12.5c8.239 0 14.521-1.878 18.83-5.618 4.356-3.788 6.533-9.119 6.533-15.984 0-13.447-7.958-20.17-23.867-20.17z" fill="#d44e2b" fill-rule="evenodd"/>
</svg>
