<svg viewBox="0 0 512 512" xmlns="http://www.w3.org/2000/svg">
 <path d="m131.82 122.06c-8.137-.163-12.725 3.174-14.293 10.311-2.131 9.701.608 16.431 13.17 32.466 9.684 12.361 13.03 18.17 16.488 28.586 5.191 15.646 8.853 23.16 14.446 29.811l4.186 5-3.267 13.629c-8.34 34.788 1.864 76.52 18.734 76.52 5.681 0 12.03-7.177 13.272-14.957.549-3.43 1.909-7.477 3.01-8.984 1.765-2.413 2.475-1.795 5.819 4.9 2.089 4.182 7.258 11.49 11.486 16.233 8.458 9.489 25.784 24.804 26.851 23.737.372-.372-3.541-6.345-8.729-13.272-5.188-6.928-14.83-22.604-21.44-34.814-6.609-12.21-13.04-22.559-14.242-23.02-5.21-1.999-12.305 10.152-14.344 24.553-2.067 14.597-8.817 11.807-13.221-5.411-3.552-13.886-2.442-29.688 3.267-46.5 4.973-14.647 5.081-13.954-5.615-31.904-3.48-5.84-8.461-16.518-11.08-23.737-4.837-13.346-8.958-20.528-19.14-33.18-7.24-8.994-7.691-14.957-1.072-14.957 7.084 0 15.339 2.348 25.17 10.01 8.624 6.72 9.974 7.543 21.235 6.33 10.755-1.159 12.873.566 22.563 6.228 22.792 13.319 44.12 30.79 54.926 45.02 4.168 5.492 13 21.399 19.653 35.32 6.65 13.926 14.728 30.7 17.968 37.26 7.491 15.176 17.84 24.775 30.985 28.841 12.13 3.752 20.915 8.178 28.944 14.497 6.333 4.985 6.349 5 2.348 6.075-2.214.592-8.933 1.606-14.906 2.246-12.177 1.304-19.14 5.438-19.14 11.383 0 2.405 3.314 6.857 9.393 12.609 11.826 11.19 16.569 14.535 38.796 27.16 20.523 11.655 22.75 12.275 20.266 5.717-2.562-6.764-7.02-11.02-28.23-26.8-11.12-8.277-18.434-14.745-17.15-15.16 1.229-.399 7.797-1.162 14.599-1.736 13.355-1.126 20.01-3.531 20.776-7.504.275-1.426-6.513-9.339-15.722-18.275-13.829-13.419-18.492-16.803-31.751-23.12-19.713-9.398-25.682-15.923-31.343-34.3-8.137-26.421-23.1-50.562-46.3-74.73-28.438-29.629-55.806-47.886-78.2-45.43-5.467.599-8.911-1.031-13.885-4.952-7.692-6.06-25.26-11.489-35.27-11.69m45.942 43.849c-.865.098-1.721.363-2.603.817-3.75 1.929-3.676 5.778.153 6.993 1.668.53 4.211 3.879 5.615 7.453s2.921 6.534 3.369 6.534c6.933 0 8.486-11.878 2.297-17.509-3.579-3.256-6.237-4.581-8.831-4.288" fill="#d44e2b"/>
</svg>
