<svg viewBox="0 0 512 512" xmlns="http://www.w3.org/2000/svg">
 <path d="m359.44 187.6c0 14.08-2.777 26.576-8.329 37.485-5.426 10.782-12.998 19.725-22.714 26.829-9.59 7.104-20.13 12.305-31.61 15.603-11.484 3.299-23.661 4.948-36.532 4.948h-30.1v81.82c0 4.439.698 8.372 2.082 11.797 1.514 3.298 4.542 5.835 9.09 7.611 2.271.887 6.246 1.712 11.925 2.473 5.804.764 11.1 1.205 15.899 1.332v13.51h-115.27v-13.51c3.03-.255 7.382-.701 13.06-1.332 5.805-.632 9.843-1.459 12.11-2.473 3.785-1.649 6.499-4.06 8.139-7.231 1.766-3.172 2.65-7.231 2.65-12.178v-194.84c0-4.44-.629-8.436-1.893-11.988-1.262-3.552-4.227-6.216-8.896-7.991-4.795-1.649-9.59-2.791-14.385-3.425-4.669-.764-8.707-1.268-12.11-1.523v-13.509h122.65c24.985 0 45.24 6.089 60.76 18.267 15.647 12.05 23.471 28.16 23.471 48.33m-57.54 46.05c4.29-6.089 7.13-12.368 8.518-18.838 1.388-6.596 2.082-12.494 2.082-17.695 0-7.23-.883-14.588-2.65-22.07-1.641-7.484-4.543-14.02-8.707-19.598-4.416-5.962-10.222-10.592-17.414-13.891-7.193-3.298-16.15-4.947-26.878-4.947h-26.689v119.3h19.306c13.628 0 24.67-2.092 33.12-6.279 8.581-4.313 15.02-9.641 19.306-15.983" fill="#d44e2b"/>
</svg>
