<svg viewBox="0 0 512 512" xmlns="http://www.w3.org/2000/svg">
 <path d="m265.41263 71.200503c-56.35404.157356-112.78159-.01618-169.062082.630895-17.4121 3.761837-30.91236 15.103231-30.47558 41.544912.40442 42.64788-1.38827 94.51652 1.75297 136.85557 8.48693 98.50777 103.663752 177.40047 201.400932 173.1945 94.91359-.19412 185.26826-78.36915 192.94488-174.06216 2.74417-49.55684 1.3309-99.25191 1.01619-148.82639-3.52507-24.197522-29.88439-31.932965-50.9142-28.827023-48.88329-.410302-97.76658-.523539-146.64988-.502951m-92.63855 101.103404c10.46197.11324 12.487 3.3133 50.10391 38.41251 15.46501 14.07674 26.36816 27.02405 42.26846 40.40813 25.80785-23.37104 52.33336-51.47158 78.56033-74.26614 16.71209-11.97228 41.86846 1.25003 42.1317 22.04455.65736 15.62677-16.85621 26.75051-37.41249 47.66562-22.95632 21.72247-44.68468 42.75082-68.67779 63.92769-19.45037 14.3841-37.66248-6.31188-50.73627-19.11066-26.54463-25.01518-53.32456-49.92154-78.82064-75.93969-10.87226-12.062-8.04427-41.42727 22.59161-43.16406" fill="#d44e2b"/>
</svg>
