<svg xmlns="http://www.w3.org/2000/svg" height="512" viewBox="0 0 512 512" width="512">
 <path d="M209.066 124.212C67.754 167.258 38.274 222.562 92.083 399.205c8.597 28.224 88.155-65.46 103.503-116.465l113.048-34.436c41.175 33.786 159.335 66.813 150.857 38.98-53.807-176.64-109.112-206.118-250.426-163.07zm-71.874 68.22l14.13-4.305 8.61 28.263 28.26-8.61 4.306 14.132-28.26 8.61 8.608 28.262-14.13 4.304-8.61-28.263-28.263 8.61-4.304-14.13 28.26-8.61-8.61-28.26zm141.31-43.046a14.772 14.772 0 0 1 18.437 9.825 14.772 14.772 0 0 1-9.83 18.44 14.772 14.772 0 0 1-18.434-9.827 14.772 14.772 0 0 1 9.826-18.435zm42.395-12.915a14.772 14.772 0 0 1 18.434 9.827 14.772 14.772 0 0 1-9.824 18.438 14.772 14.772 0 0 1-18.435-9.826 14.772 14.772 0 0 1 9.827-18.436zm-29.48 55.31a14.772 14.772 0 0 1 18.436 9.827 14.772 14.772 0 0 1-9.828 18.436 14.772 14.772 0 0 1-18.435-9.826 14.772 14.772 0 0 1 9.826-18.438zm42.393-12.915a14.772 14.772 0 0 1 18.436 9.828 14.772 14.772 0 0 1-9.826 18.435 14.772 14.772 0 0 1-18.435-9.826 14.772 14.772 0 0 1 9.825-18.437z" fill="#d44e2b"/>
</svg>
