<svg height="512" viewBox="0 0 512 512" width="512" xmlns="http://www.w3.org/2000/svg">
 <g fill="#d44e2b" transform="matrix(53.182279 0 0 53.182279 -109.04119 -118.53661)">
  <g transform="matrix(.28222223 0 0 -.28222223 .00000004 13.828889)">
   <path d="m23.826 11c-3.319 0-6.01 2.539-6.01 5.67 0 .154.009.309.023.463-.467-.109-.946-.165-1.428-.166-2.922.033-5.412 2.539-5.412 5.67 0 2.342 1.525 4.443 3.84 5.289-.694.946-1.066 2.068-1.068 3.219 0 3.131 2.69 5.669 6.01 5.67 1.382-.002 2.722-.452 3.793-1.275 1.102.938 2.531 1.458 4.02 1.461 3.321 0 6.01-2.541 6.01-5.674-.002-1.059-.319-2.096-.914-2.994 2.557-.71 4.312-2.925 4.313-5.439 0-3.132-2-5.627-6.613-5.67-.196 0-.393.011-.588.029.024-.193.04-.387.043-.582 0-3.133-2.695-5.671-6.02-5.67m.174 8.756c.256 0 .511.099.707.295 0 0 .536.778.949.949.414.171 1.344 0 1.344 0 .554 0 1 .446 1 1 0 0-.171.93 0 1.344.171.413.949.949.949.949.392.392.392 1.022 0 1.414 0 0-.778.536-.949.949-.171.414 0 1.344 0 1.344 0 .554-.446 1-1 1 0 0-.93-.171-1.344 0-.413.171-.949.949-.949.949-.392.392-1.022.392-1.414 0 0 0-.536-.778-.949-.949-.414-.171-1.344 0-1.344 0-.554 0-1-.446-1-1 0 0 .171-.93 0-1.344-.171-.413-.949-.949-.949-.949-.392-.392-.392-1.022 0-1.414 0 0 .778-.536.949-.949.171-.414 0-1.344 0-1.344 0-.554.446-1 1-1 0 0 .93.171 1.344 0 .413-.171.949-.949.949-.949.196-.196.451-.295.707-.295" transform="matrix(1 0 0 -1 0 49)"/>
   <path d="m33.462 18.836c-.116 1.383.321 2.16 1.439 2.984l-3.318-.602" fill-rule="evenodd"/>
   <path d="m21.508 12.424c1.696.722 2.182.629 4.058-.077l-2.047 2.132z" fill-rule="evenodd"/>
   <path d="m13.867 18.898c.597 1.87.043 2.627-.817 3.219l3.905-.612z" fill-rule="evenodd"/>
   <path d="m15.825 32c1.472.113 1.969.706 2.158 1.594l.66-2.75z" fill-rule="evenodd"/>
   <path d="m29.659 33.664c.409-1.448.627-1.636 2.612-2.18l-3.943-1.427z" fill-rule="evenodd"/>
  </g>
  <circle cx="6.773" cy="7.06" r=".847"/>
 </g>
</svg>
