<?xml version="1.0" encoding="UTF-8" standalone="no"?>
<svg
   xmlns:dc="http://purl.org/dc/elements/1.1/"
   xmlns:cc="http://creativecommons.org/ns#"
   xmlns:rdf="http://www.w3.org/1999/02/22-rdf-syntax-ns#"
   xmlns:svg="http://www.w3.org/2000/svg"
   xmlns="http://www.w3.org/2000/svg"
   xmlns:sodipodi="http://sodipodi.sourceforge.net/DTD/sodipodi-0.dtd"
   xmlns:inkscape="http://www.inkscape.org/namespaces/inkscape"
   height="512"
   viewBox="0 0 512 512"
   width="512"
   version="1.1"
   id="svg79"
   sodipodi:docname="rstudio.svg"
   inkscape:version="0.92.1 r">
  <metadata
     id="metadata85">
    <rdf:RDF>
      <cc:Work
         rdf:about="">
        <dc:format>image/svg+xml</dc:format>
        <dc:type
           rdf:resource="http://purl.org/dc/dcmitype/StillImage" />
        <dc:title></dc:title>
      </cc:Work>
    </rdf:RDF>
  </metadata>
  <defs
     id="defs83" />
  <sodipodi:namedview
     pagecolor="#ffffff"
     bordercolor="#666666"
     borderopacity="1"
     objecttolerance="10"
     gridtolerance="10"
     guidetolerance="10"
     inkscape:pageopacity="0"
     inkscape:pageshadow="2"
     inkscape:window-width="1920"
     inkscape:window-height="1018"
     id="namedview81"
     showgrid="false"
     inkscape:zoom="0.65186406"
     inkscape:cx="-381.55588"
     inkscape:cy="134.83738"
     inkscape:window-x="0"
     inkscape:window-y="30"
     inkscape:window-maximized="1"
     inkscape:current-layer="svg79" />
  <g
     transform="matrix(15.01483,0,0,15.01483,-86.844903,-111.19782)"
     id="g39"
     style="fill:#d44e2b;fill-opacity:1">
    <g
       id="g37"
       style="fill:#d44e2b;fill-opacity:1">
      <!-- color: #569dcb -->
      <g
         id="g35"
         style="fill:#d44e2b;fill-opacity:1">
        <path
           inkscape:connector-curvature="0"
           d="m 19.2,12.871 c 1.262,-0.301 2.375,-0.449 3.637,-0.449 3.855,0 6.01,1.797 6.01,4.977 0,3.441 -2.707,5.609 -7.01,5.609 -0.258,0 -0.594,0 -1.074,-0.035 -0.074,0.148 -0.148,0.297 -0.223,0.449 3.426,4.527 7.04,9.05 10.469,13.578 1.742,-0.113 1.922,-0.113 2.328,-0.113 0.336,0 0.336,0 2.672,0.113 0,-0.375 0,-0.625 0,-1 -1.188,-0.113 -1.781,-0.457 -2.262,-1.094 -2.809,-3.691 -5.613,-7.383 -8.422,-11.07 2.078,-0.523 3.039,-0.934 4.266,-1.797 1.93,-1.383 2.969,-3.254 2.969,-5.422 0,-3.594 -2.598,-5.613 -7.199,-5.613 -4.82,0 -5.414,0.113 -6.676,0.113 -1.227,0 -1.484,0 -6.68,-0.113 0,0.375 0,0.625 0,1 0.508,0.039 1.551,0.199 2.055,0.234 1.707,0.113 1.945,0.449 1.945,3.367 0,5.598 0,11.199 0,16.797 0,2.957 -0.512,3.434 -2.219,3.547 -0.594,0.039 -1.188,0.074 -1.777,0.113 0,0.371 0,0.57 0,0.941 2.188,-0.074 3.484,-0.109 5.414,-0.109 1.93,0 3.395,0.035 5.586,0.109 0,-0.371 -0.133,-0.57 -0.133,-0.941 -0.594,-0.039 -1.188,-0.074 -1.781,-0.113 -1.707,-0.113 -2.086,-0.59 -2.086,-3.547 0,-6.508 0.195,-13.02 0.195,-19.527"
           style="fill:#d44e2b;fill-opacity:1;fill-rule:nonzero;stroke:none"
           id="path33" />
      </g>
    </g>
  </g>
</svg>
