<svg viewBox="0 0 512 512" xmlns="http://www.w3.org/2000/svg">
 <path d="m157.17 137.42v130.68c0 15.837 1.858 30.16 5.289 43.25 3.48 12.822 9.114 24.13 16.954 33.631 7.839 9.54 17.883 16.756 30.734 22.12 12.901 5.061 28.886 7.533 47.727 7.533 21.659 0 40.897-.85 57.23-3.509 16.647-2.699 29.657-5.674 39.74-8.04v-225.71h-39.542v195.66c-1.542.623-8.65 1.779-12.396 2.392-3.48.306-7.216.89-11.665 1.503-4.399.267-8.768.692-13.751 1.01-5.02.267-10.113.504-14.868.504-22.282 0-38.27-6.376-47.688-18.614-9.421-12.199-18.268-31.663-18.268-59.906v-122.56" fill="#d44e2b"/>
</svg>
