<svg xmlns="http://www.w3.org/2000/svg" version="1.1" viewBox="0 0 512 512">
 <path d="m417.07 229.96c-11.39-69.05-63.19-125.72-128.91-140.47l-11.009 55.88c43.864 9.7547 78.791 47.338 86.384 93.413 7.3255 44.449-10.908 87.89-46.345 112.47l-20.981-36.031-37.87 106.85 106.74 11.562-19.622-33.442c54.609-36.499 82.733-102.72 71.608-170.22zm-164.85-138.76-104.61-12.846 19.7 33.892c-54.4 35.94-83.517 103.73-72.455 170.85 11.425 69.33 61.045 124.03 126.86 139.39l11.538-55.501c-43.958-10.326-77.24-46.511-84.858-92.732-7.2652-44.083 11.461-88.734 46.724-113l19.999 35.726 37.099-105.78z" fill="#d44e2b"/>
</svg>
