<svg viewBox="0 0 512 512" xmlns="http://www.w3.org/2000/svg">
 <path d="m300.83 120.52c-86.42 1.212-148.25 104.08-199.03 166.8 17.763 9.794 49.946 20.467 86.15 20.467 23.671 0 49.01-4.542 73.47-16.648 29.851-14.771 44.76-41.832 44.755-66.29-.006-14.03-4.849-27.21-14.511-36.81-9.673-9.585-24.22-15.886-44.45-15.886-6.743 0-14.175.757-22.15 2.291l-1.375-7.03c8.376-1.617 16.278-2.444 23.523-2.444 21.707 0 38.34 6.943 49.49 18.02 11.151 11.08 16.655 26.18 16.649 41.852-.006 27.336-16.552 56.784-48.726 72.71-25.608 12.674-52.11 17.413-76.68 17.413-37.945 0-71.23-11.05-90.12-21.537l2.291-4.125c-2.958 3.618-5.974 7.236-8.859 10.54 32.753 20.486 64.63 33.988 94.55 41.39 12.921 3.197 25.443 5.247 37.576 6.263l7.943 43.992 7.03-1.222-7.637-42.31c6.173.308 12.254.238 18.18 0l7.943 43.532 7.03-1.222-7.637-42.616c78.5-6.175 132.48-59.933 135.49-134.72.386-9.562-.073-19.452-1.375-29.632l30.396-15.733-33.451-2.139 28.563-23.06-38.645 2.749c-27.49-17.672-52.811-24.923-76.37-24.593m28.26 31.924c2.207 0 4.182.625 6.263 1.68 2.08 1.062 4.241 2.622 6.415 4.431 4.342 3.62 8.917 8.638 13.442 14.664l-5.652 4.277c-6.351-8.503-13.04-14.76-17.413-16.955-1.435-.739-2.531-.927-3.055-.927h-.458l-.305.308c-.331.449-.933 2.032-.916 4.582-.011 3.829 1.01 9.785 3.513 18.02l-6.721 2.137c-2.615-8.646-3.961-15.15-3.971-20.16.006-2.505.324-4.659 1.069-6.568.723-1.893 2.134-3.635 3.971-4.582 1.214-.642 2.538-.909 3.818-.909m-62.47 29.48l-1.833 16.04c-46.44 17.06-77.16 57.21-87.68 92.56l-15.886 2.749 2.138-6.874c11.693-39.33 43.917-82.61 96.38-101.88l6.874-2.597" fill="#d44e2b"/>
</svg>
