<svg height="512" viewBox="0 0 512 512" width="512" xmlns="http://www.w3.org/2000/svg">
 <path d="m254.75 109.38c-38.38 0-77.25 25.62-77.25 64.5v70.75h-28.438v158h213.88v-158c-50.635-.013-103.95-.001-150.31 0l .063-.031v-63.22c0-23.843 23.723-36.469 41.5-36.563 20.665-.108 43.19 14.299 43.19 36.28v10.219h33.5c.931 0 1.849.07 2.75.188v-19.57c0-29.22-30.21-62.56-78.875-62.56m.406 169.91c11.824 0 21.406 9.582 21.406 21.406 0 7.05-3.427 13.287-8.688 17.188l8.5 47.625h-42.06l8.438-47.37c-5.441-3.882-9-10.244-9-17.438 0-11.824 9.582-21.406 21.406-21.406" fill="#d44e2b" fill-rule="evenodd"/>
</svg>
