<svg height="512" viewBox="0 0 512 512" width="512" xmlns="http://www.w3.org/2000/svg">
 <g fill="#d44e2b" transform="matrix(15.6195 0 0 15.6195 -112.08031 -113.42504)">
  <path d="m11.531 13c-.297.031-.531.297-.531.594v10.816c0 .316.277.594.594.594h5.406v2h-4v2h7.281v-6h-6.84c-.211 0-.41-.195-.41-.41v-7.184c-.004-.188.129-.371.313-.406.023-.004.066-.004.094 0h11.125c.207 0 .406.191.406.406v2.875h2.031v-4.691c0-.313-.281-.594-.594-.594m-14.875 0"/>
  <path d="m21.535 19c-.293.031-.539.305-.539.598v10.809c0 .313.289.598.602.598h5.398v2.992h4v-2.992h5.402c.313 0 .598-.285.598-.598v-10.809c0-.316-.289-.598-.598-.598m-13.05 2c .023-.004.047-.004.074 0h11.145c.211 0 .402.191.402.402v7.203c0 .207-.191.398-.402.398h-11.145c-.211 0-.402-.191-.402-.398v-7.203c-.004-.188.145-.367.328-.402m-.352 12v2h12v-2m-12 0"/>
 </g>
</svg>
