<svg viewBox="0 0 512 512" xmlns="http://www.w3.org/2000/svg">
 <path d="m241.8 351.84h19.256c0 0 5.789-.677 8.764-4.03 2.728-3.104 2.642-8.892 2.642-8.892 0 0-.376-27.18 11.62-31.17 11.835-3.941 27.02 26.26 43.07 37.879 12.168 8.764 21.35 6.841 21.35 6.841l42.959-.634c0 0 22.607-1.471 11.867-20.05-.838-1.514-6.208-13.758-32-38.931-26.978-26.344-23.37-22.07 9.182-67.63 19.761-27.73 27.687-44.677 25.22-51.937-2.352-6.927-16.904-5.08-16.904-5.08l-48.46.29c0 0-3.566-.505-6.25 1.171-2.599 1.632-4.242 5.456-4.242 5.456 0 0-7.722 21.479-17.871 39.726-21.587 38.513-30.24 40.564-33.776 38.18-8.227-5.585-6.122-22.403-6.122-34.36 0-37.34 5.37-52.904-10.525-56.931-5.241-1.342-9.15-2.223-22.575-2.352-17.28-.215-31.972.043-40.19 4.317-5.542 2.857-9.773 9.15-7.174 9.526 3.19.462 10.45 2.051 14.305 7.55 4.951 7.131 4.736 23.07 4.736 23.07 0 0 2.9 43.925-6.669 49.38-6.465 3.78-15.444-3.899-34.657-38.845-9.859-17.871-17.323-37.675-17.323-37.675 0 0-1.428-3.694-3.984-5.703-3.104-2.395-7.421-3.147-7.421-3.147l-46.02.333c0 0-6.927.215-9.483 3.362-2.223 2.814-.172 8.645-.172 8.645 0 0 36.03 88.65 76.853 133.37 37.417 40.95 79.914 38.27 79.914 38.27" fill="#d44e2b" fill-rule="evenodd"/>
</svg>
