<svg height="512" viewBox="0 0 512 512" width="512" xmlns="http://www.w3.org/2000/svg">
 <path d="m257.62 162.65c-31.497 0-77.8 1.814-91.73 2.269-15.13 1.332-20.886 2.09-29.17 9.08-12.626 11.06-15.559 32.883-15.559 66.12v31.766c0 37.942 5.188 57.13 13.614 64.18 9.726 8.216 16.213 8.739 22.69 9.724 2.514.367 20.223 3.566 99.19 3.566 49.24 0 91.57-2.36 95.94-2.917 7.03-.881 17-2.02 24.634-10.372 11.296-12.641 13.614-33.775 13.614-64.18v-36.628c0-19.68-1.184-47.672-13.614-59.32-9.416-7.849-12.929-10.06-32.414-11.02-5.51-.249-53.605-2.269-87.19-2.269m-32.738 31.12h62.23v72.61h25.607l-56.71 58.34-56.72-58.34h25.607v-72.61" fill="#d44e2b"/>
</svg>
