<svg height="512" viewBox="0 0 512 512" width="512" xmlns="http://www.w3.org/2000/svg">
 <path d="m471.95 253.05c0 120.9-98.01 218.9-218.9 218.9-120.9 0-218.9-98.01-218.9-218.9 0-120.9 98.01-218.9 218.9-218.9 120.9 0 218.9 98.01 218.9 218.9" fill="#0580b6" fill-rule="evenodd"/>
 <g fill="#fff8eb" transform="matrix(.96248 0 0 .96248 -.905 -521.62)">
  <g transform="translate(.357 -4.286)">
   <rect height="70" rx="22.625" ry="22.748" width="70" x="85.64" y="766.36"/>
   <rect height="70" rx="22.625" ry="22.748" width="70" x="175.64" y="766.36"/>
   <rect height="70" rx="22.625" ry="22.748" width="70" x="265.64" y="766.36"/>
   <rect height="70" rx="22.625" ry="22.748" width="70" x="355.64" y="766.36"/>
  </g>
  <g transform="translate(5.204)">
   <rect height="70" rx="22.625" ry="22.748" width="70" x="125.8" y="672.08"/>
   <rect height="70" rx="22.625" ry="22.748" width="70" x="215.8" y="672.08"/>
   <rect height="70" rx="22.625" ry="22.748" width="70" x="305.8" y="672.08"/>
  </g>
  <rect height="70" rx="22.625" ry="22.748" width="325" x="93.5" y="852.08"/>
 </g>
<circle cx="256" stroke="#fefefe" cy="256" r="181.13" stroke-width="18.771" fill="none" /></svg>
