<?xml version="1.0" encoding="UTF-8" standalone="no"?>
<svg
   xmlns:dc="http://purl.org/dc/elements/1.1/"
   xmlns:cc="http://creativecommons.org/ns#"
   xmlns:rdf="http://www.w3.org/1999/02/22-rdf-syntax-ns#"
   xmlns:svg="http://www.w3.org/2000/svg"
   xmlns="http://www.w3.org/2000/svg"
   xmlns:sodipodi="http://sodipodi.sourceforge.net/DTD/sodipodi-0.dtd"
   xmlns:inkscape="http://www.inkscape.org/namespaces/inkscape"
   viewBox="0 0 22 22"
   id="svg2"
   version="1.1"
   inkscape:version="0.91 r13725"
   sodipodi:docname="bluetooth-paired.svg"
   width="22"
   height="22">
  <metadata
     id="metadata12">
    <rdf:RDF>
      <cc:Work
         rdf:about="">
        <dc:format>image/svg+xml</dc:format>
        <dc:type
           rdf:resource="http://purl.org/dc/dcmitype/StillImage" />
        <dc:title></dc:title>
      </cc:Work>
    </rdf:RDF>
  </metadata>
  <defs
     id="defs10" />
  <sodipodi:namedview
     pagecolor="#ffffff"
     bordercolor="#666666"
     borderopacity="1"
     objecttolerance="10"
     gridtolerance="10"
     guidetolerance="10"
     inkscape:pageopacity="0"
     inkscape:pageshadow="2"
     inkscape:window-width="1920"
     inkscape:window-height="1022"
     id="namedview8"
     showgrid="false"
     inkscape:zoom="9.8333333"
     inkscape:cx="-24.247797"
     inkscape:cy="12"
     inkscape:window-x="0"
     inkscape:window-y="0"
     inkscape:window-maximized="1"
     inkscape:current-layer="svg2" />
  <g
     transform="matrix(0.07681397,0,0,0.07681397,0.16523437,16.250151)"
     style="fill:#aaaaaa;fill-opacity:1"
     id="g4">
    <path
       d="m 118.5,-180 0,79.72 -43.819,-33.33 -14.849,11.822 54.51,41.79 -55.35,41.789 17.341,13.05 42.16,-33.909 0,79.06 78.5,-58.21 -52.02,-41.13 50.36,-40.559 -76.84,-60.1 m 21.494,38.588 25.648,22.17 -25.648,19.622 0,-41.789 z m -0.831,83.01 27.309,19.54 -25.648,17.652 -1.661,-37.19 z"
       style="fill:#aaaaaa;fill-opacity:1;fill-rule:evenodd"
       id="path6"
       inkscape:connector-curvature="0" />
  </g>
  <path
     inkscape:connector-curvature="0"
     d="m 15.503864,14.045099 c -0.687912,0 -1.241826,0.565009 -1.241826,1.260602 l 0,0.60171 c -0.343956,0 -0.620486,0.27653 -0.620486,0.620486 l 0,1.862312 c 0,0.343956 0.27653,0.620486 0.620486,0.620486 l 2.482798,0 c 0.343956,0 0.620487,-0.27653 0.620487,-0.620486 l 0,-1.862312 c 0,-0.343956 -0.276531,-0.620486 -0.620487,-0.620486 l 0,-0.60171 c 0,-0.695593 -0.553914,-1.260602 -1.241825,-1.260602 z m 0,0.620486 c 0.343956,0 0.620486,0.274823 0.620486,0.620486 l 0,0.620486 -1.241826,0 0,-0.620486 c 0,-0.346516 0.276531,-0.620486 0.620487,-0.620486 z"
     style="fill:#aaaaaa;fill-opacity:1"
     id="path8" />
</svg>
