<svg viewBox="0 0 24 24" xmlns="http://www.w3.org/2000/svg">
 <path d="m4 2c-1.108 0-2 .892-2 2v16c0 1.108.892 2 2 2h16c1.108 0 2-.892 2-2v-16c0-1.108-.892-2-2-2zm10.713 4.551v7.486c0 .183.012.338.037.463.033.125.087.233.162.324.075.083.176.151.301.201.133.042.3.075.5.1l-.213 1.25c-.45-.008-.825-.059-1.125-.15-.292-.092-.524-.22-.699-.387-.175-.175-.3-.389-.375-.639-.067-.258-.102-.55-.102-.875v-7.523zm-6.752.949c1.258 0 2.222.229 2.889.688.675.458 1.012 1.175 1.012 2.15 0 .508-.092.946-.275 1.313-.175.358-.432.653-.773.887-.342.225-.758.392-1.25.5-.492.108-1.054.162-1.688.162h-.789v3.051h-1.574v-8.537c.367-.083.771-.137 1.213-.162.45-.033.861-.051 1.236-.051zm.113 1.363c-.4 0-.73.012-.988.037v2.949h.764c.758 0 1.342-.104 1.75-.313.408-.217.611-.621.611-1.213 0-.283-.054-.519-.162-.711-.108-.192-.258-.343-.449-.451-.192-.108-.421-.183-.688-.225-.258-.05-.538-.074-.838-.074zm9.674 5.455c.246 0 .454.037.625.107.175.071.317.161.426.273.113.113.194.238.244.375.05.137.074.271.074.4 0 .229-.063.434-.188.613-.125.175-.269.314-.432.418.246.133.428.288.545.463.121.175.18.382.18.619 0 .179-.031.346-.094.5-.063.154-.156.288-.281.4-.125.113-.281.199-.469.262-.183.063-.395.094-.637.094-.283 0-.52-.04-.707-.119-.188-.079-.337-.178-.449-.299-.113-.121-.194-.251-.244-.389-.046-.142-.068-.275-.068-.4 0-.125.017-.24.051-.344.038-.108.086-.205.148-.293.063-.092.134-.175.213-.25.079-.075.163-.141.25-.199-.192-.133-.336-.277-.432-.432-.092-.158-.137-.351-.137-.576 0-.162.031-.315.094-.461.067-.15.16-.282.281-.395.121-.113.267-.203.438-.27.171-.067.36-.1.568-.1zm0 .619c-.113 0-.21.019-.293.057-.079.033-.143.078-.193.137-.05.054-.088.115-.113.182-.025.063-.037.125-.037.188 0 .158.057.308.174.449.121.142.322.255.602.338.154-.096.274-.203.361-.324.087-.125.131-.283.131-.475 0-.054-.012-.113-.037-.176-.021-.067-.057-.127-.111-.182-.05-.054-.116-.099-.195-.137-.079-.037-.175-.057-.287-.057zm-.23 1.855c-.15.096-.272.214-.363.352-.092.133-.137.293-.137.48 0 .063.012.128.037.199.025.071.067.137.125.195.058.058.133.107.225.148.092.038.206.057.344.057.125 0 .235-.015.326-.049.092-.033.166-.079.225-.133.058-.058.102-.123.131-.193.029-.075.043-.15.043-.225 0-.117-.023-.219-.068-.307-.046-.087-.112-.162-.199-.225-.083-.067-.184-.122-.301-.168-.117-.05-.245-.095-.387-.133z" fill="#ffedb5"/>
</svg>
