<svg viewBox="0 0 24 24" xmlns="http://www.w3.org/2000/svg">
 <path d="m4 2c-1.108 0-2 .892-2 2v16c0 1.108.892 2 2 2h16c1.108 0 2-.892 2-2v-16c0-1.108-.892-2-2-2zm4.68 5.387c.358 0 .683.03.975.088.292.05.547.109.764.176.217.067.395.138.537.213.142.075.242.129.301.162l-.463 1.287c-.2-.125-.488-.241-.863-.35-.367-.117-.766-.176-1.199-.176-.375 0-.726.068-1.051.201-.325.125-.608.316-.85.574-.233.258-.417.583-.551.975-.133.392-.199.847-.199 1.363 0 .458.05.878.15 1.262.108.383.27.717.486 1 .217.275.493.492.826.65.333.15.733.225 1.199.225.558 0 1.013-.054 1.363-.162.35-.117.621-.224.813-.324l.424 1.287c-.1.067-.237.133-.412.199-.167.067-.366.135-.6.201-.233.058-.495.103-.787.137-.292.042-.604.063-.938.063-.65 0-1.233-.101-1.75-.301-.517-.2-.954-.492-1.313-.875-.358-.392-.635-.865-.826-1.424-.192-.558-.287-1.201-.287-1.926 0-.725.11-1.365.326-1.924.225-.558.529-1.031.912-1.414.383-.392.833-.687 1.35-.887.517-.2 1.07-.301 1.662-.301zm6.533 2.188c.1 0 .216.009.35.025.133.008.267.026.4.051.133.017.264.041.389.074.125.025.224.051.299.076l-.262 1.273c-.125-.042-.3-.083-.525-.125-.217-.05-.47-.074-.762-.074-.167 0-.347.017-.539.051-.183.033-.312.061-.387.086v5.238h-1.512v-6.225c.292-.108.653-.209 1.086-.301.442-.1.93-.15 1.463-.15zm3.455 4.844h.531v4.332h-.756v-3.318c-.113.088-.255.173-.426.256-.171.083-.336.153-.494.207l-.23-.576c.242-.096.483-.219.725-.369.246-.15.463-.327.65-.531z" fill="#ffedb5"/>
</svg>
