<svg viewBox="0 0 24 24" xmlns="http://www.w3.org/2000/svg">
 <path d="m4 2c-1.108 0-2 .892-2 2v16c0 1.108.892 2 2 2h16c1.108 0 2-.892 2-2v-16c0-1.108-.892-2-2-2zm-.881 5.588h1.574v3.463h3.764v-3.463h1.574v8.662h-1.574v-3.838h-3.764v3.838h-1.574zm8.834 2.125h1.514v3.424c0 .7.099 1.2.299 1.5.208.3.568.451 1.076.451.183 0 .374-.009.574-.025.208-.017.363-.037.463-.063v-5.287h1.512v6.338c-.292.075-.67.15-1.137.225-.467.083-.979.125-1.537.125-.525 0-.968-.075-1.326-.225-.35-.15-.633-.358-.85-.625-.208-.267-.358-.585-.449-.951-.092-.375-.139-.783-.139-1.225zm6.744 4.705h2.895v.576c-.137.154-.289.364-.451.631-.163.267-.317.569-.463.906-.146.333-.273.691-.381 1.074-.104.383-.168.765-.193 1.145h-.775c.025-.317.082-.65.17-1 .087-.35.193-.69.318-1.02.129-.333.268-.642.418-.93.154-.292.307-.537.457-.732h-1.994v-.65z" fill="#ffedb5"/>
</svg>
