<svg viewBox="0 0 24 24" xmlns="http://www.w3.org/2000/svg">
 <path d="m4 2c-1.108 0-2 .892-2 2v16c0 1.108.892 2 2 2h16c1.108 0 2-.892 2-2v-16c0-1.108-.892-2-2-2zm8.736 4.551v3.236c.167-.058.358-.109.574-.15.225-.042.445-.063.662-.063.525 0 .959.077 1.301.227.35.142.63.345.838.611.208.258.354.571.438.938.092.367.137.775.137 1.225v3.676h-1.512v-3.438c0-.35-.026-.645-.076-.887-.042-.25-.116-.452-.225-.602-.1-.158-.237-.269-.412-.336-.175-.075-.392-.113-.65-.113-.2 0-.405.021-.613.063-.208.042-.361.08-.461.113v5.199h-1.514v-9.449l1.514-.25zm-9.236 1.037h6.199v1.162c-.275.3-.608.692-1 1.176-.392.475-.796.996-1.213 1.562-.417.558-.828 1.136-1.236 1.736-.4.592-.754 1.154-1.063 1.688h4.648v1.338h-6.549v-.988c.167-.308.358-.642.574-1 .225-.367.463-.742.713-1.125.25-.383.509-.77.775-1.162.275-.392.546-.767.813-1.125.267-.367.525-.712.775-1.037.258-.333.5-.628.725-.887h-4.162v-1.338zm16.16 6.83h.719v2.676h.488v.619h-.488v1.037h-.736v-1.037h-1.9v-.537c.083-.183.195-.395.332-.633.142-.238.298-.48.469-.73.171-.25.351-.497.543-.738.192-.242.383-.46.574-.656zm-.018.932c-.1.121-.204.251-.313.389-.104.137-.207.28-.307.43-.1.15-.195.305-.287.463-.092.154-.175.309-.25.463h1.156v-1.744z" fill="#ffedb5"/>
</svg>
