<svg viewBox="0 0 24 24" xmlns="http://www.w3.org/2000/svg">
 <path d="m4 2c-1.108 0-2 .892-2 2v16c0 1.108.892 2 2 2h16c1.108 0 2-.892 2-2v-16c0-1.108-.892-2-2-2zm1.768 5.588h1.576v8.662h-1.576zm6.275 1.986c.533 0 .98.077 1.338.227.358.142.641.345.85.611.217.258.366.576.449.951.092.367.139.769.139 1.211v3.676h-1.514v-3.438c0-.35-.024-.645-.074-.887-.042-.25-.116-.452-.225-.602-.1-.158-.242-.269-.426-.336-.175-.075-.392-.113-.65-.113-.192 0-.391.012-.6.037-.208.025-.363.046-.463.063v5.275h-1.512v-6.324c.292-.083.67-.163 1.137-.238.467-.075.984-.113 1.551-.113zm5.611 4.844h.531v4.332h-.756v-3.318c-.113.088-.255.173-.426.256-.171.083-.334.153-.492.207l-.232-.576c.242-.096.483-.219.725-.369.246-.15.463-.327.65-.531z" fill="#ffedb5"/>
</svg>
