<svg viewBox="0 0 24 24" xmlns="http://www.w3.org/2000/svg">
 <path d="m4 2c-1.108 0-2 .892-2 2v16c0 1.108.892 2 2 2h16c1.108 0 2-.892 2-2v-16c0-1.108-.892-2-2-2zm2.574 5.588h1.574v8.662h-1.574zm5.688 1.963c.383 0 .75.036 1.1.111.35.067.612.135.787.201l-.275 1.225c-.167-.075-.378-.143-.637-.201-.258-.067-.559-.1-.9-.1-.308 0-.558.054-.75.162-.192.1-.287.26-.287.477 0 .108.015.204.049.287.042.083.11.161.201.236.092.067.211.138.361.213.15.067.334.138.551.213.358.133.662.267.912.4.25.125.455.271.613.438.167.158.286.34.361.549.075.208.113.458.113.75 0 .625-.233 1.101-.699 1.426-.458.317-1.118.475-1.977.475-.575 0-1.037-.05-1.387-.15-.35-.092-.597-.166-.738-.225l.264-1.262c.225.092.49.178.799.262.317.083.676.125 1.076.125.4 0 .692-.045.875-.137.183-.1.275-.267.275-.5 0-.217-.101-.395-.301-.537-.192-.142-.513-.296-.963-.463-.275-.1-.528-.204-.762-.313-.225-.117-.421-.25-.588-.4-.167-.15-.3-.329-.4-.537-.092-.217-.137-.479-.137-.787 0-.6.22-1.072.662-1.414.442-.35 1.042-.523 1.801-.523zm3.443 4.867h2.213v.639h-1.568c-.004.071-.011.152-.02.244-.004.088-.011.176-.02.268-.004.092-.009.18-.018.264-.008.083-.017.153-.025.211.617.033 1.072.176 1.363.426.296.246.443.583.443 1.012 0 .196-.033.378-.1.545-.067.167-.169.311-.307.432-.137.121-.311.216-.52.287-.208.067-.451.1-.73.1-.113 0-.227-.009-.344-.025-.117-.017-.23-.038-.338-.063-.104-.021-.198-.043-.281-.068-.083-.025-.146-.048-.188-.068l.145-.639c.088.042.213.089.375.139.167.046.368.068.605.068.163 0 .301-.017.418-.051.117-.038.21-.086.281-.148.075-.063.131-.134.164-.213.033-.083.049-.172.049-.264 0-.137-.026-.259-.08-.367-.054-.108-.152-.2-.289-.275-.133-.075-.314-.132-.543-.17-.225-.038-.51-.055-.855-.055.046-.4.08-.78.105-1.139.025-.363.046-.725.063-1.088z" fill="#ffedb5"/>
</svg>
