<svg viewBox="0 0 24 24" xmlns="http://www.w3.org/2000/svg">
 <path d="m4 2c-1.108 0-2 .892-2 2v16c0 1.108.892 2 2 2h16c1.108 0 2-.892 2-2v-16c0-1.108-.892-2-2-2zm9.598 4.863c.25 0 .465.083.648.25.183.167.275.396.275.688 0 .283-.092.507-.275.674-.183.167-.398.25-.648.25-.258 0-.481-.083-.664-.25-.183-.167-.273-.39-.273-.674 0-.292.09-.521.273-.688.183-.167.406-.25.664-.25zm-4.889.523c.542 0 1.021.063 1.437.188.425.117.758.247 1 .389l-.488 1.275c-.283-.158-.596-.28-.937-.363-.333-.083-.679-.125-1.037-.125-.425 0-.758.087-1 .262-.233.175-.35.422-.35.738 0 .192.036.358.111.5.083.133.196.255.338.363.15.108.322.207.514.299.2.092.415.18.648.264.408.15.771.303 1.088.461.325.15.596.334.813.551.225.208.397.458.514.75.117.283.174.629.174 1.037 0 .783-.28 1.393-.838 1.826-.55.425-1.357.637-2.424.637-.358 0-.688-.024-.988-.074-.292-.042-.554-.097-.787-.164-.225-.067-.421-.133-.588-.199-.167-.075-.3-.141-.4-.199l.463-1.289c.225.125.529.25.912.375.383.125.847.188 1.389.188.567 0 .978-.095 1.236-.287.258-.192.389-.463.389-.813 0-.208-.047-.387-.139-.537-.083-.15-.208-.284-.375-.4-.158-.125-.353-.238-.586-.338-.233-.108-.501-.213-.801-.313-.3-.108-.592-.225-.875-.35-.275-.133-.522-.295-.738-.486-.208-.192-.378-.421-.512-.688-.125-.267-.188-.588-.188-.963 0-.783.271-1.396.813-1.838.542-.45 1.28-.676 2.213-.676zm4.139 2.326h1.512v6.537h-1.512zm4.404 4.705h.531v4.332h-.756v-3.318c-.113.088-.255.173-.426.256-.171.083-.336.153-.494.207l-.23-.576c.242-.096.483-.219.725-.369.246-.15.463-.327.65-.531z" fill="#ffedb5"/>
</svg>
