<svg viewBox="0 0 24 24" xmlns="http://www.w3.org/2000/svg">
 <path d="m4 2c-1.108 0-2 .892-2 2v16c0 1.108.892 2 2 2h16c1.108 0 2-.892 2-2v-16c0-1.108-.892-2-2-2zm-.809 5.588h1.287c.333.35.693.767 1.076 1.25.383.475.765.97 1.148 1.486.392.517.767 1.037 1.125 1.563.367.517.693 1 .977 1.451v-5.75h1.563v8.662h-1.338c-.283-.475-.601-.984-.951-1.525-.35-.55-.711-1.1-1.086-1.65-.375-.558-.759-1.095-1.15-1.611-.383-.525-.75-.995-1.1-1.412v6.199h-1.551v-8.662zm11.252 1.963c.458 0 .88.083 1.264.25.392.158.725.387 1 .688.275.3.487.661.637 1.086.158.417.238.884.238 1.4 0 .517-.075.987-.225 1.412-.15.425-.364.788-.639 1.088-.275.3-.608.535-1 .701-.383.167-.809.25-1.275.25-.467 0-.89-.083-1.273-.25-.383-.167-.713-.401-.988-.701-.275-.3-.492-.663-.65-1.088-.15-.425-.225-.895-.225-1.412 0-.517.075-.984.225-1.4.158-.425.375-.786.65-1.086.283-.3.617-.529 1-.688.383-.167.803-.25 1.262-.25zm0 1.313c-.5 0-.89.191-1.174.574-.275.375-.412.887-.412 1.537 0 .658.137 1.179.412 1.563.283.383.674.576 1.174.576.5 0 .889-.193 1.164-.576.283-.383.424-.904.424-1.563 0-.65-.14-1.162-.424-1.537-.275-.383-.664-.574-1.164-.574zm5.158 3.555h.719v2.676h.488v.619h-.488v1.037h-.736v-1.037h-1.9v-.537c.083-.183.195-.395.332-.633.142-.238.298-.48.469-.73.171-.25.351-.497.543-.738.192-.242.383-.46.574-.656zm-.018.932c-.1.121-.204.251-.313.389-.104.137-.207.28-.307.43-.1.15-.195.305-.287.463-.092.154-.175.309-.25.463h1.156v-1.744z" fill="#ffedb5"/>
</svg>
