<svg viewBox="0 0 24 24" xmlns="http://www.w3.org/2000/svg">
 <path d="m4 2c-1.108 0-2 .892-2 2v16c0 1.108.892 2 2 2h16c1.108 0 2-.892 2-2v-16c0-1.108-.892-2-2-2zm6.139 5.637c.4 0 .754.03 1.063.088.317.05.588.109.813.176.225.067.407.138.549.213.15.075.254.129.313.162l-.475 1.287c-.25-.15-.563-.275-.938-.375-.367-.108-.754-.162-1.162-.162-.892 0-1.576.28-2.051.838-.467.55-.699 1.315-.699 2.299 0 .467.054.895.162 1.287.117.383.283.713.5.988.225.275.499.492.824.65.333.15.722.225 1.164.225.275 0 .511-.009.711-.025.2-.025.36-.055.477-.088v-3.111h1.574v4.162c-.217.083-.583.175-1.1.275-.517.1-1.112.15-1.787.15-.625 0-1.196-.101-1.713-.301-.517-.2-.96-.492-1.326-.875-.358-.383-.636-.854-.836-1.412-.2-.558-.301-1.201-.301-1.926 0-.725.108-1.365.324-1.924.225-.558.531-1.031.914-1.414.383-.392.833-.687 1.35-.887.517-.2 1.067-.301 1.65-.301zm7.131 2.188c.1 0 .218.009.352.025.133.008.265.026.398.051.133.017.264.041.389.074.125.025.224.051.299.076l-.262 1.273c-.125-.042-.3-.083-.525-.125-.217-.05-.47-.074-.762-.074-.167 0-.345.017-.537.051-.183.033-.314.061-.389.086v5.238h-1.512v-6.225c.292-.108.655-.209 1.088-.301.442-.1.928-.15 1.461-.15z" fill="#ffedb5"/>
</svg>
