<svg viewBox="0 0 24 24" xmlns="http://www.w3.org/2000/svg">
 <path d="m4 2c-1.108 0-2 .892-2 2v16c0 1.108.892 2 2 2h16c1.108 0 2-.892 2-2v-16c0-1.108-.892-2-2-2zm12.563 4.801v5.711c.192-.2.397-.412.613-.637.217-.233.428-.463.637-.688.208-.233.405-.454.588-.662.192-.217.353-.404.486-.563h1.789c-.417.467-.86.949-1.326 1.449-.458.5-.92.988-1.387 1.463.25.208.512.462.787.762.275.292.542.604.801.938.258.333.5.667.725 1 .225.333.413.642.563.926h-1.75c-.15-.258-.325-.529-.525-.813-.192-.283-.4-.558-.625-.824-.225-.267-.454-.517-.688-.75-.233-.242-.463-.447-.688-.613v3h-1.512v-9.449zm-12.07 1.037h1.463c.183.317.386.704.611 1.162.225.458.454.941.688 1.449.233.5.463 1.014.688 1.539.233.517.447.996.639 1.438.192-.442.4-.921.625-1.438.225-.525.454-1.039.688-1.539.233-.508.463-.991.688-1.449.225-.458.428-.845.611-1.162h1.426c.075.633.146 1.309.213 2.025.067.708.124 1.437.174 2.187.058.742.109 1.492.15 2.25.05.75.092 1.483.125 2.199h-1.549c-.033-1.01-.075-2.047-.125-3.113-.042-1.067-.11-2.1-.201-3.1-.092.192-.199.421-.324.688-.125.267-.259.558-.4.875-.142.308-.287.63-.438.963-.142.333-.284.658-.426.975-.133.308-.258.6-.375.875-.117.267-.215.496-.299.688h-1.176c-.083-.192-.182-.424-.299-.699-.117-.275-.247-.567-.389-.875-.133-.317-.274-.641-.424-.975-.142-.333-.284-.655-.426-.963-.142-.308-.275-.597-.4-.863-.125-.275-.233-.504-.324-.688-.092 1-.163 2.033-.213 3.1-.042 1.067-.08 2.105-.113 3.113h-1.549c.033-.717.07-1.458.111-2.225.05-.767.1-1.525.15-2.275.058-.758.121-1.491.188-2.199.067-.708.138-1.363.213-1.963z" fill="#ffedb5"/>
</svg>
