<svg viewBox="0 0 22 22" xmlns="http://www.w3.org/2000/svg">
 <path d="m3 1c-1.108 0-2 .892-2 2v16c0 1.108.892 2 2 2h16c1.108 0 2-.892 2-2v-16c0-1.108-.892-2-2-2zm2.441 5.387c.358 0 .683.03.975.088.292.05.547.109.764.176.217.067.395.138.537.213.142.075.24.129.299.162l-.461 1.287c-.2-.125-.488-.241-.863-.35-.367-.117-.766-.176-1.199-.176-.375 0-.726.068-1.051.201-.325.125-.608.316-.85.574-.233.258-.417.583-.551.975-.133.392-.199.847-.199 1.363 0 .458.05.878.15 1.262.108.383.27.717.486 1 .217.275.493.492.826.65.333.15.733.225 1.199.225.558 0 1.013-.054 1.363-.162.35-.117.621-.224.813-.324l.424 1.287c-.1.067-.237.133-.412.199-.167.067-.366.135-.6.201-.233.058-.495.103-.787.137-.292.042-.604.063-.938.063-.65 0-1.233-.101-1.75-.301-.517-.2-.954-.492-1.313-.875-.358-.392-.635-.865-.826-1.424-.192-.558-.287-1.201-.287-1.926 0-.725.108-1.365.324-1.924.225-.558.531-1.031.914-1.414.383-.392.833-.687 1.35-.887.517-.2 1.07-.301 1.662-.301zm5.721 2.188c.45 0 .816.059 1.1.176.292.117.533.271.725.463.092-.067.21-.138.352-.213.142-.075.3-.141.475-.199.175-.067.357-.122.549-.164.2-.042.402-.063.602-.063.508 0 .925.077 1.25.227.333.142.59.345.773.611.192.258.322.576.389.951.075.367.111.769.111 1.211v3.676h-1.512v-3.438c0-.683-.083-1.175-.25-1.475-.167-.308-.488-.463-.963-.463-.242 0-.471.042-.688.125-.217.075-.378.15-.486.225.067.208.112.429.137.662.025.233.037.483.037.75v3.613h-1.512v-3.438c0-.683-.089-1.175-.264-1.475-.167-.308-.483-.463-.949-.463-.167 0-.351.012-.551.037-.2.025-.349.046-.449.063v5.275h-1.512v-6.324c.292-.083.67-.163 1.137-.238.475-.075.975-.113 1.5-.113zm8.441 4.844h.719v2.676h.486v.619h-.486v1.037h-.738v-1.037h-1.9v-.537c.083-.183.195-.395.332-.633.142-.237.298-.48.469-.73.171-.25.351-.497.543-.738.192-.242.385-.46.576-.656zm-.02.932c-.1.121-.204.251-.313.389-.104.137-.207.28-.307.43-.1.15-.195.305-.287.463-.092.154-.175.309-.25.463h1.156v-1.744z" fill="#ffedb5"/>
</svg>
