<?xml version='1.0' encoding='UTF-8' standalone='no'?>
<svg height="16" style="enable-background:new" version="1.1" width="16" xmlns="http://www.w3.org/2000/svg">
 <title>
  Paper Symbolic Icon Theme
 </title>
 <g transform="translate(-444.00021,-206)">
  <path d="m 454.65625,213.9375 c -1.4956,0 -2.71875,1.22315 -2.71875,2.71875 0,1.4956 1.22315,2.71875 2.71875,2.71875 0.4871,0 0.94729,-0.14835 1.34375,-0.375 a 0.750075,0.750075 0 0 0 0.15625,0.21875 L 458,221.03125 a 0.75130096,0.75130096 0 1 0 1.0625,-1.0625 l -1.84375,-1.8125 A 0.750075,0.750075 0 0 0 457,218 c 0.22665,-0.39646 0.375,-0.85664 0.375,-1.34375 0,-1.4956 -1.22315,-2.71875 -2.71875,-2.71875 z m 0,1 c 0.95516,0 1.71875,0.76359 1.71875,1.71875 0,0.95516 -0.76359,1.71875 -1.71875,1.71875 -0.95516,0 -1.71875,-0.76359 -1.71875,-1.71875 0,-0.95516 0.76359,-1.71875 1.71875,-1.71875 z" style="fill:#fefefe;fill-opacity:1;enable-background:new;"/>
  <path d="M 445.84375,207 C 445.5625,207.04687 445,207.25 445,208 l 0,11 c 0,0 0,1 1,1 l 7.0625,0 c -1.24352,-0.6043 -2.125,-1.87826 -2.125,-3.34375 0,-2.04082 1.67793,-3.71875 3.71875,-3.71875 2.04082,0 3.71875,1.67793 3.71875,3.71875 0,0.36437 -0.18255,0.64558 -0.28125,0.96875 L 459,218.5 459,210 c 0,-1 -1,-1 -1,-1 l -5,0 -2,-2 -5,0 c 0,0 -0.0625,-0.0156 -0.15625,0 z" style="fill:#fefefe;fill-opacity:1;"/>
 </g>
</svg>
