<?xml version='1.0' encoding='UTF-8' standalone='no'?>
<svg height="16" style="enable-background:new" version="1.1" width="16" xmlns="http://www.w3.org/2000/svg">
 <title>
  Paper Symbolic Icon Theme
 </title>
 <g transform="translate(-524.00018,-206)">
  <path d="m 526,207 c -1.0312,0.0625 -1,1 -1,1 l 0,8 0,4 c 0,0 -0.0312,0.9375 1,1 l 12,0 c 1,0 1,-1 1,-1 l 0,-4 0,-8 c 0,0 0,-1 -1,-1 l -5.53125,0 0.3125,0.375 1.3125,1.625 2.90625,0 0,7 -1,0 -0.15625,0 -0.84375,0 -1,0 c 0,1.108 -0.892,2 -2,2 -1.108,0 -2,-0.892 -2,-2 l -1,0 -0.84375,0 -1.15625,0 0,-7 2.90625,0 1.3125,-1.625 L 531.53125,207 526,207 z" style="fill:#fefefe;fill-opacity:1;fill-rule:evenodd;"/>
  <path d="m 530,215 0,-2 -2,0 4,-5 4,5 -2,0 0,2 z" style="fill:#fefefe;fill-opacity:1;"/>
 </g>
</svg>
