<svg height="16" width="16" xmlns="http://www.w3.org/2000/svg" xmlns:xlink="http://www.w3.org/1999/xlink">
  <linearGradient id="a" gradientTransform="matrix(.32432434 0 0 .26086956 .378379 2.826087)" gradientUnits="userSpaceOnUse" x2="0" y1="16" y2="39">
    <stop offset="0" stop-color="#f1f2f3"/>
    <stop offset="1" stop-color="#e4e5e7"/>
  </linearGradient>
  <linearGradient id="b" gradientTransform="matrix(.35897435 0 0 .32 -1.5128201 -2.6399993)" gradientUnits="userSpaceOnUse" x2="0" y1="27" y2="52">
    <stop offset="0" stop-color="#ffffff"/>
    <stop offset="1" stop-color="#e4e5e7"/>
  </linearGradient>
  <linearGradient id="c" gradientTransform="matrix(.35555554 0 0 .32258063 -.35555489 1.7741938)" gradientUnits="userSpaceOnUse" x2="0" y1="13.1" y2="16.2">
    <stop offset="0" stop-opacity=".51"/>
    <stop offset="1" stop-opacity=".392"/>
  </linearGradient>
  <linearGradient id="d" gradientTransform="matrix(.34999999 0 0 .5 -.3999993 -.4999995)" gradientUnits="userSpaceOnUse" x2="0" y1="11" y2="9">
    <stop offset="0"/>
    <stop offset="1" stop-opacity="0"/>
  </linearGradient>
  <path d="m3 1c-.554 0-1 .446-1 1-.554 0-1 .446-1 1v7c0 .554.446 1 1 1h12c .554 0 1-.446 1-1v-7c0-.554-.446-1-1-1h-7c0-.554-.446-1-1-1z" fill-opacity=".659"/>
  <path d="m2 3h12v7h-12z" fill="#8b8b8d"/>
  <path d="m6 3h8v1h-8z" fill="#ffffff" opacity=".15"/>
  <path d="m2 3h1v1h-1z" fill="#ffffff" opacity=".15"/>
  <path d="m6 2v1l0 0h-3l0 0v-1z" fill="#8b8b8d"/>
  <path d="m1 4h14v1h-14z" fill="url(#d)" opacity=".173"/>
  <path d="m3 2h3v1h-3z" fill="#ffffff" opacity=".15"/>
  <rect height="11" opacity=".08" rx="2" width="16" y="5"/>
  <rect fill="url(#c)" height="10" rx="2" width="16" y="5"/>
  <rect fill="url(#b)" height="8" rx="1" width="14" x="1" y="6"/>
  <path d="m2 7h12v6h-12z" fill="url(#a)"/>
</svg>
