<?xml version="1.0" encoding="UTF-8" standalone="no"?>
<svg xmlns="http://www.w3.org/2000/svg" height="512" width="512" version="1.1" viewBox="0 0 512 512">
 <path style="fill:#0ABF91;fill-rule:evenodd" d="m 471.95,253.05 c 0,120.9 -98.01,218.9 -218.9,218.9 -120.9,0 -218.9,-98.01 -218.9,-218.9 0,-120.9 98.01,-218.9 218.9,-218.9 120.9,0 218.9,98.01 218.9,218.9"/>
 <path style="fill-opacity:0.23500001;fill-rule:evenodd" d="M 253.03,34.16 C 239.76,33.603 248.082,53.016 246,62.33 l 0,114.99 c -15.15,2.085 -26.345,17.405 -23.09,32.45 l 0,79.74 c 7.739,11.639 17.15,22.613 17.843,36.581 0,8.04 -0.05,3.777 -0.05,16.312 0,11.953 1.814,21.232 1.814,29.23 0,10.477 4.163,19.58 0.687,31.25 21.05,21.05 38.24,39.08 59.2,60.05 3.981,2.029 8.388,2.43 13.563,-0.102 80.946,-23.673 145.79,-98.05 153.36,-182.72 l 6.957,-49.8 c -22.463,-22.593 -44.819,-45.07 -67.33,-67.58 -21.842,-21.606 -43.42,-43.43 -65.26,-65.09 -18.587,-18.846 -37.548,-37.39 -56.13,-56.31 -8.534,-10.714 -22.908,-5.136 -34.53,-7.158"/>
 <path style="fill:#ffffff;fill-rule:evenodd" d="m 246,19.344 0,157.97 c -13.416,3.133 -23.09,12.414 -23.09,23.438 l 0,88.752 c 0,4.433 3.252,8 7.281,8 l 51.626,0 c 4.03,0 7.281,-3.567 7.281,-8 l 0,-88.752 c 0,-11.02 -9.686,-20.298 -23.09,-23.438 l 0,-157.97 -20,0 m 9.875,281.03 c -19.08,0.081 -19.7,0.14 -20.344,2.25 -1.208,3.961 -0.585,7.872 1.344,8.469 1.49,0.461 1.788,1.639 1.781,7.313 -0.008,6.608 0.04,6.775 2.656,7.531 1.471,0.425 9.407,0.683 17.625,0.594 17.14,-0.187 16.713,0.085 16.656,-9.75 -0.026,-4.584 0.188,-5.567 1.125,-5.281 1.402,0.428 2.196,-2 2.219,-6.656 0.013,-2.593 -0.404,-3.631 -1.688,-4.03 -0.948,-0.296 -10.564,-0.483 -21.375,-0.438 m -0.594,30.531 c -13.242,0.003 -15.632,0.245 -16.06,1.625 -0.278,0.892 -0.499,8.441 -0.469,16.781 0.047,13.217 0.294,15.234 1.781,15.688 0.939,0.285 8.808,0.516 17.5,0.5 15.396,-0.029 15.834,-0.117 16.813,-2.344 0.552,-1.257 0.987,-8.679 0.969,-16.5 -0.032,-14.211 -0.03,-14.196 -2.5,-14.969 -1.36,-0.425 -9.474,-0.783 -18.03,-0.781 m -12.375,40.16 c -2.42,0 -4.375,2.645 -4.375,5.906 l 0,0.656 c 0,3.147 1.855,5.7 4.156,5.875 l 0,17.376 c 0,4.913 3.323,8.875 7.438,8.875 l 14.344,0 c 4.114,0 7.406,-3.962 7.406,-8.875 l 0,-17.376 c 2.308,-0.166 4.156,-2.721 4.156,-5.875 l 0,-0.656 c 0,-3.261 -1.955,-5.906 -4.375,-5.906 l -28.75,0"/>
 <path style="fill-opacity:0.06700003;fill-rule:evenodd" d="M 256,1 C 115.17,1 1,115.17 1,256 1,396.83 115.17,511 256,511 396.83,511 511,396.83 511,256 511,115.17 396.83,1 256,1 m 8.827,44.931 c 120.9,0 218.9,98 218.9,218.9 0,120.9 -98,218.9 -218.9,218.9 -120.9,0 -218.93,-98 -218.93,-218.9 0,-120.9 98.03,-218.9 218.93,-218.9"/>
 <g style="fill-opacity:0.12900002;fill-rule:evenodd">
  <path d="m 256,4.433 c -138.94,0 -251.57,112.63 -251.57,251.57 0,138.94 112.63,251.57 251.57,251.57 138.94,0 251.57,-112.63 251.57,-251.57 C 507.57,117.063 394.94,4.433 256,4.433 m 5.885,38.556 c 120.9,0 218.9,98 218.9,218.9 0,120.9 -98,218.9 -218.9,218.9 -120.9,0 -218.93,-98 -218.93,-218.9 0,-120.9 98.03,-218.9 218.93,-218.9"/>
  <path d="m 256,8.356 c -136.77,0 -247.64,110.87 -247.64,247.64 0,136.77 110.87,247.64 247.64,247.64 136.77,0 247.64,-110.87 247.64,-247.64 C 503.64,119.226 392.77,8.356 256,8.356 m 2.942,31.691 c 120.9,0 218.9,98 218.9,218.9 0,120.9 -98,218.9 -218.9,218.9 -120.9,0 -218.93,-98 -218.93,-218.9 0,-120.9 98.03,-218.9 218.93,-218.9"/>
 </g>
 <path style="fill:#ffffff;fill-rule:evenodd;stroke:#000000;stroke-width:4.90399981;stroke-opacity:0.31000001" d="m 253.04,7.859 c -135.42,0 -245.19,109.78 -245.19,245.19 0,135.42 109.78,245.19 245.19,245.19 135.42,0 245.19,-109.78 245.19,-245.19 0,-135.42 -109.78,-245.19 -245.19,-245.19 z m 0,26.297 c 120.9,0 218.9,98 218.9,218.9 0,120.9 -98,218.9 -218.9,218.9 -120.9,0 -218.93,-98 -218.93,-218.9 0,-120.9 98.03,-218.9 218.93,-218.9 z"/>
 <text font-size="129.23" line-height="125%" y="231.36" x="729.64" font-family="Gentium Book Basic" word-spacing="0" letter-spacing="0">
  
 </text>
 <text font-size="129.23" line-height="125%" y="151.36" x="1310.91" font-family="Gentium Book Basic" word-spacing="0" letter-spacing="0">
  
 </text>
 <text font-size="129.23" line-height="125%" y="-29.9" x="239.33" font-family="Gentium Book Basic" word-spacing="0" letter-spacing="0">
  
 </text>
 <text font-size="129.23" line-height="125%" y="-246.37" x="1337.38" font-family="Gentium Book Basic" word-spacing="0" letter-spacing="0">
  
 </text>
 <text font-size="129.23" line-height="125%" y="-326.38" x="1918.65" font-family="Gentium Book Basic" word-spacing="0" letter-spacing="0">
  
 </text>
 <text font-size="129.23" line-height="125%" y="-798.78" x="1529.53" font-family="Gentium Book Basic" word-spacing="0" letter-spacing="0">
  
 </text>
 <text font-size="129.23" line-height="125%" y="-878.78" x="2110.79" font-family="Gentium Book Basic" word-spacing="0" letter-spacing="0">
  
 </text>
 <text font-size="208.33" line-height="125%" y="535.94" x="277.99" font-family="Gentium Book Basic" word-spacing="0" letter-spacing="0">
  
 </text>
</svg>
