<svg viewBox="0 0 512 512" xmlns="http://www.w3.org/2000/svg">
 <path d="m50.402576 12.669487c-4.57342.004-8.24805 3.12179-8.24805 7v477.000003c0 3.881 3.67981 7 8.25781 7h428.529304c4.578 0 8.25781-3.119 8.25781-7v-477.000003c0-3.881-3.67981-7-8.25781-7h-428.529304-.01zm157.875004 147.962893l9.125 8.21875 9.08984 8.21875 13.21875 12.31445c0 0 13.95-4.04345 14.625-4.06445.675-.021 7.00825-2.01175 8.15625-2.21875 3.988-.552 5.5765-.947 12.3125-.75l7.40625-.0937 8.71875 1.03125 14.65625 2.9375 8.53125 3.09375 6.96875 3.25 8.1875 5.18945 5.53125 3.9375 6 5.59375c3.99 3.98 7.86255 7.33714 10.06055 13.11914l10.5-3.02929 15.625-8.21875 29.6875-23.3125c11.061-6.975.0545.02 10.9375-7-3.62 19.93.1265-.0713-3.5625 19.96875l-1.65625 6.90625-4.5625 17.71875-7.9375 21.34375-7.5 19.84375-12.15625 24.34375-6.625 11.28125-8 11.34375-9.34375 11.375-10.08984 10.46875-12.65625 9.5-13.59375 7.78125-13.47071 5.4375-16.25 2.5957-17.1875-.7207-14.15625-1.25-14.4375-4.5-16.84375-8.5293-15.02929-8.28125-11.0918-7.625-11.125-9.18945-13.7793-13.0586-18.16015-20.625-9.21875-13.625.1875-.25c-14.03 3.333-29.12086-6.20925-35.13086-23.03125-6.61-18.511.25375-38.84815 15.34375-45.41015 15.08-6.565 32.70054 3.118 39.31054 21.625 2.405 6.735 3.00375 13.7284 2.09375 20.1914l.625.25 8.28125.15625 8.125-1.43945 7.875-5.15625 4.625-5.4043 4-7.53125c0 0 2.40175-7.234 2.46875-7.75.068-.516 2.09375-11.65625 2.09375-11.65625l.65625-7.8125.21875-10.09179-.46875-12.0586-.375-8.09375-.84375-7.25.01-.008z" fill="#b7b7b7"/>
 <text x="-511.65" y="430.79">
  
 </text>
 <text x="300.18" y="304.85">
  
 </text>
</svg>
