<svg viewBox="0 0 512 512" xmlns="http://www.w3.org/2000/svg">
 <path d="m52.572063 10.500004c-4.57341.004-8.24804 3.12179-8.24804 7v476.999996c0 3.881 3.67981 7 8.25781 7h428.529287c4.578 0 8.25781-3.119 8.25781-7v-476.999996c0-3.881-3.67981-7-8.25781-7h-428.529287-.01zm267.669927 165.652336c14.397 0 27.7721 6.064 36.12109 16.5 6.262 7.723 8.96776 15.65575 9.59376 27.34375h-29.625c-.835-10.436-6.68026-16.28125-16.28126-16.28125-9.392 0-15.875 6.47225-15.875 15.65625.00001 5.636 2.92751 10.42075 8.5625 13.96875 2.08 1.252 2.5111 1.47925 17.1211 6.90625 15.03 5.636 20.00859 8.33375 26.05859 13.96875 8.975 8.353 13.78125 19.42816 13.78125 32.16016 0 27.97-21.49 49.4707-49.25 49.4707-16.281 0-31.5035-6.88425-40.6875-18.78125-6.26-8.14-8.98529-15.85875-10.02929-27.96875h29.84375c1.252 12.943 8.143 19.18946 20.875 19.18946 12.315 0 20.875-7.72125 20.875-18.78125 0-6.47-2.50175-11.89925-7.09375-15.65625-4.801-3.548-6.05771-4.18325-26.72071-11.90625-20.667-7.728-32.1582-22.5265-32.1582-41.9375 0-24.421 20.037-43.84375 44.875-43.84375l.0137-.008zm-156.21876 2.71875v.006h38.18751c20.455 0 30.6715 1.87575 39.4375 7.09375 13.358 8.14 20.875 22.759 20.875 40.5 0 17.736-7.727 33.39614-20.25 41.11914-8.558 5.218-18.55275 6.875-40.46875 6.875h-9.1875v58.65625h-28.59376v-154.24414h-.002zm28.59181 27.34961l.004.002v40.90625h8.34375c11.062 0 18.992-1.23525 23.375-3.53125 6.053-3.34 9.40625-9.20475 9.40625-16.71875 0-9.604-5.026-16.89346-13.375-19.18946-4.596-1.044-8.76815-1.46875-18.16015-1.46875h-9.59375z" fill="#b7b7b7"/>
</svg>
