<svg viewBox="0 0 512 512" xmlns="http://www.w3.org/2000/svg">
 <path d="m93.880859 17.007812c-31.05724 0-56.060547 25.003307-56.060547 56.060547v378.880861c0 31.05724 25.003307 56.05859 56.060547 56.05859h332.919921c31.05724 0 56.0586-25.00135 56.0586-56.05859v-378.880861c0-31.05724-25.00136-56.060547-56.0586-56.060547zm195.894531 96.308598c-3.359.775-7.98086.22018-11.13086 1.36718l-1.85547-.29687c4.296-.545 8.62733-.71731 12.98633-1.07031zm-19.04101 2.04492l.00195.00586c-.00511.0003-.01051.00164-.01563.00195-2.22928 1.25229-4.44561 2.24409-6.53125 3.70703 8.521-2.015 8.10592.85213 16.79493-.29687-3.05001.437-6.73735 1.60778-6.15235 2.05078 9.728 1.127 11.21594-2.99 20.21094 0l-.58594-2.63477c12.508 4.514 15.12103 3.73355 28.70703 10.93555 4.771.228 5.20335-2.931 12.40235 0 1.272 2.222-.25721 2.6492 8.59179 7.9082.987-.404-1.74529-2.89581-3.90429-4.88281 17.793 9.51 37.06989 29.77294 42.96289 51.46094-5.515-10.18-.53541 5.17658-2.44141 4.39258 2.465 6.636 4.51577 13.52651 5.75977 20.60351-1.634-5.813-5.18683-19.8543-11.42383-28.9043-.513 5.834-8.01825-4.06493-3.90625 8.78907 3.137 4.539.62119-4.57638 4.49219 3.51562.059 3.844 1.50475 7.68336 2.34375 12.69336-1.328-.222-2.94225-5.57856-3.90625-4.10156 1.341 6.312 3.56353 9.59255 4.39453 10.06055-.428 1.05-1.58516-.96369-1.66016 3.32031.512 9.849 2.74459 5.68239 3.80859 6.15039-1.087 4.853-5.35965 10.59836-3.22265 18.94336-.622-2.525-1.83138-5.12658-2.73438-7.51758-.3258 2.77105-.1802 4.65931-.05664 6.45703.02997.26258.05047.54756.05664.86524-.01657-.28626-.03684-.57723-.05664-.86524-.18843-1.65093-.83424-2.15622-1.79883-.69726.987 11.082-8.76289 19.54859-7.71289 26.55859l-2.83203-3.9043c-7.308 10.613-.97081 6.65931-4.88281 13.57032.755-1.90301-1.20048-.82161.97852-4.09961-1.659.101-7.34671 7.04386-12.59571 11.13085-20.65 16.537-45.28086 18.76033-69.13086 9.86133-.925.757 4.19177 4.77233 8.00977 6.73633 9.092 3.342 19.45516 3.50766 27.53516 3.22266-17.48801 7.31-50.89565-7.49483-61.80665-27.04883 2.466.538 10.94725 13.77901 17.28125 15.91601-3.747-3.002-6.68904-6.82318-9.37304-10.74218 5.052 5.824 11.25479 10.53387 17.96679 13.67187-.425-1.633 1.80782-1.96451-1.36718-4.10351-20.219-15.493-32.17049-28.57736-28.02149-59.06836 3.075-2.33 3.8775-15.0893 10.9375-19.5293 4.321-9.532 17.24483-18.33278 31.04883-18.55078 14.101-.77 26.06325 7.50608 32.03125 15.33008-10.869-10.142-28.75445-13.17107-43.93945-5.66406-15.536 7-24.68289 24.07937-23.33789 41.10937.574-.843 1.09818-.34045 1.36718-2.43945-.47 33.12 35.69094 57.45293 61.71094 45.21093l.29102.6836c10.544-2.884 9.21337-5.3226 16.10937-10.0586-.538 1.097-4.68909 3.895-2.24609 4 3.356-.902 13.88901-10.65442 19.04101-15.23242 2.354-5.102-1.24621-2.76973 2.05079-9.17773l4-1.95313c2.226-6.418 4.62057-10.07551 4.39257-17.47851l-2.24609 4.78515c3.456-10.499 1.48012-21.86037 1.95312-31.73437l-.8789-.29688c-.856-24.854-22.38805-51.314-41.49805-60.25-14.418-6.642-35.59734-8.46746-48.52734-4.98046 1.123-.372 1.86817-.82654 1.07617-1.26954-18.357 1.819-14.25641 6.36899-28.31641 9.95899-3.855 3.709 11.255-2.96653 3.125 1.85547-7.543 2.088-11.08171-1.30605-22.26171 10.25195 1 1.555 7.13882-4.72189 2.04882 1.66211-10.507-1.295-33.27108 24.02001-38.08008 32.41602l2.53907.38671c-4.125 10.374-9.51796 17.04024-10.25196 23.24024-1.073 15.26-6.42243 43.01754.97657 51.56055l-.68164 7.12695c1.02 2.02 1.77029 4.14383 3.02929 6.04883l-1.66015.10742c7.787 24.567 8.37339.4757 18.65039 25.9707-1.487-.497-3.01678-1.073-5.17578-4-.256 2.234 3.16456 8.9212 7.22656 14.1582l-1.75781 2.05079c2.256 4.111 4.39503 5.01831 5.95703 6.44531-8.458-4.611 7.81339 15.15787 9.27539 17.67187l1.36719-2.24609c-.184 3.332 2.3079 7.61922 7.1289 13.57422l4.09961-.19336c1.663 3.28 7.65313 9.18765 11.32813 9.47266l-2.44141 3.22265c9.227 2.917 4.47936 3.9082 15.81836 7.9082l-2.24609-4.10156c5.783 5.015 7.56375 9.4343 15.71875 13.2793 11.331 3.956 12.7921 2.34606 24.4121 5.66406-9.854-.269-21.42221-.14569-29.19921-2.92969-53.12-14.38-101.66786-76.71039-98.13086-140.90039-.806-12.998 1.28114-29.19697-.88086-32.41797 3.027-9.887 6.50226-21.97931 13.57226-36.32031-.515-.963 1.19516 2.80669 4.78516-3.32031 2.171-4.787 3.99233-10.09514 6.73633-14.74414l1.36718-.29688c1.398-8.222 19.22082-20.80567 24.50782-27.13867l.29101 2.43945c11.536-10.825 32.07649-18.07823 43.64649-23.24023-3.03481 3.36357 6.85533-.35579 13.94726-.78125.00467-.00262.00901-.00519.01368-.00781zm7.03124 1.56445c8.3068.23988 7.60531.76457 4.88672 1.36719l-.10156.19531-1.5625.19336 1.66016-.38867c.416-.593-2.39281-.93619-4.88282-1.36719zm-9.27539 26.07031c-1.572.46-3.01987 1.03611-4.29687 1.66211.806-.716 2.73387-1.19411 4.29687-1.66211zm-100.66992 30.66211c-.047 2.783 4.67253-2.78518 1.26953 4.88282-6.319 4.44-.54653 1.84018-1.26953-4.88282zm-5.17578 21.38477c-.563 2.598-.78409 5.28267-2.24609 9.76367.425-3.514-1.79391-4.60267 2.24609-9.76367zm166.38086 31.15039c.57-.017.96459 1.46311.68359 5.66211-.841 3.381-1.49175-2.08206-2.34375-2.53906.371-1.598 1.08616-3.12305 1.66016-3.12305zm45.70117 12.69336c.152 2.522.05119 5.11833-1.75781 9.86133 1.19-3.893 1.82381-7.55333 1.75781-9.86133zm5.36914 1.4668c-1.24728 9.5787-4.19967 19.08671-8.78906 27.72656 4.165-8.2 6.85952-17.04766 8.10352-25.97266zm-54.08984 3.21875c-.706 4.347-2.68775 8.46968-5.46875 12.30468.342-3.311-7.8115 1.46244 1.5625-10.35156-.819 3.331-8.727 12.13263 0 6.64063 1.588-2.818 3.28325-5.50575 3.90625-8.59375zm-19.04102 17.96679v.00586c-1.353 1.294-2.90284 2.59025-4.58984 3.90625-6.091-.938-11.59364-3.21531-6.93164-3.32031 3.893.342 7.73748.3422 11.52148-.5918zm-58.87695.69141c1.0871 2.14065 1.98732 4.25202 3.61133 6.04492l1.46484 4.19922c-1.96496-3.30325-4.05258-6.4638-5.07617-10.24414zm-3.61328 6.33789c3.855 7.444 5.98211 9.73842 8.78711 15.23242-3.918-3.259-6.41066-7.84776-9.47266-12.00976l.6836-3.22071z" fill="#b7b7b7"/>
</svg>
