<svg viewBox="0 0 512 512" xmlns="http://www.w3.org/2000/svg">
 <path d="m74.380855 12.669492c-3.881 0-7 3.119-7 7v476.999998c0 3.881 3.119 7 7 7h363.250005c3.881 0 7-3.119 7-7v-344.7207l-139.25-139.279298zm180.289065 163.712888c20.13 0 21.78233 1.45534 27.98633 24.65234.986 3.686 5.9485 6.57836 24.5625 14.31836 8.989 3.738 12.61916 3.37788 23.41016-2.32812 14.425-7.627 19.27061-6.40474 32.97461 8.32226 9.307 10 10.15696 19.42347 2.66796 29.60547-4.965 6.75-4.66992 11.78432 1.58008 26.94532 6.622 16.06 8.32147 17.76245 21.85547 21.81445 15.02 4.496 16.83478 7.78737 16.05078 29.10937-.656 17.864-2.66778 21.42185-13.05078 23.08985-13.975 2.246-17.5648 5.35261-23.9668 20.72461-6.579 15.798-6.33584 19.45867 2.16016 32.38867 5.783 8.802 3.21167 16.24444-9.98633 28.89844-11.239 10.776-18.46856 11.51557-30.72656 3.14257-7.942-5.425-9.29005-5.32956-26.87305 1.89844-16.11 6.624-17.99934 8.73589-21.40234 23.96289-2.56 11.454-5.94497 13.25391-24.91797 13.25391-14.583 0-16.41619-.35305-19.49219-3.74805l-.002.006c-4.746-5.237-7.12305-10.31212-7.12305-15.20312 0-6.422-6.22664-11.82186-20.18164-17.50586-15.658-6.377-18.12995-6.39025-29.37695-.15625-13.758 7.623-16.98477 6.9407-30.25977-6.4043-13.297-13.366-13.94479-16.51398-6.34179-30.83398 6.192-11.665 6.22823-10.68138-1.00977-28.10938-6.632-15.973-9.21122-18.49048-22.44922-21.89648-12.598-3.241-14.65429-6.6548-14.65429-24.3418 0-17.697 2.36565-21.69731 15.34765-25.94531 11.401-3.73 14.07016-6.24339 19.66016-18.52539 7.381-16.218 7.60498-21.28677 1.45898-33.00977-6.862-13.09-6.00954-17.17145 6.18946-29.56445 10.82-10.991 21.81826-13.27647 30.57226-6.35547 7.219 5.708 11.48024 5.70437 26.24024-.0156 16.241-6.296 19.59817-9.47707 23.82617-22.58007 4.644-14.391 6.61848-15.60938 25.27148-15.60938zm2.43164 101.04883c-19.46191-.50527-38.86445 10.95469-46.64258 31.83594-15.05 40.39 26.719 79.02031 65.5 60.57031v.006c30.776-14.635 37.62124-53.5093 13.74024-78.0293-9.22163-9.46875-20.92051-14.07965-32.59766-14.38281z" fill="#b7b7b7"/>
 <text x="-210.55" y="39.41">
  
 </text>
 <text x="370.72" y="-40.59">
  
 </text>
 <text x="-700.86" y="-221.85">
  
 </text>
 <text x="397.19" y="-438.32">
  
 </text>
 <text x="978.46" y="-518.33">
  
 </text>
 <text x="589.34" y="-990.73">
  
 </text>
 <text x="1170.6" y="-1070.73">
  
 </text>
 <text x="-662.2" y="343.99">
  
 </text>
 <text x="91.81" y="209.67">
  
 </text>
 <text x="673.08" y="129.67">
  
 </text>
 <text x="-398.5" y="-51.6">
  
 </text>
 <text x="699.55" y="-268.06">
  
 </text>
 <text x="1280.82" y="-348.07">
  
 </text>
 <text x="891.7" y="-820.47">
  
 </text>
 <text x="1472.96" y="-900.47">
  
 </text>
 <text x="-359.84" y="514.25">
  
 </text>
 <text x="78.79" y="179.29">
  
 </text>
 <text x="660.06" y="99.29">
  
 </text>
 <text x="-411.52" y="-81.97">
  
 </text>
 <text x="686.53" y="-298.44">
  
 </text>
 <text x="1267.8" y="-378.45">
  
 </text>
 <text x="878.68" y="-850.85">
  
 </text>
 <text x="1459.94" y="-930.85">
  
 </text>
 <text x="-372.86" y="483.87">
  
 </text>
 <text x="39.5" y="244.98">
  
 </text>
 <text x="620.77" y="164.98">
  
 </text>
 <text x="-450.81" y="-16.28">
  
 </text>
 <text x="647.24" y="-232.75">
  
 </text>
 <text x="1228.51" y="-312.76">
  
 </text>
 <text x="839.39" y="-785.16">
  
 </text>
 <text x="1420.65" y="-865.16">
  
 </text>
 <g transform="translate(-690.14 13.618)">
  <text x="277.99" y="535.94">
   
  </text>
  <text x="148.44" y="135.65">
   
  </text>
 </g>
 <text x="39.57" y="69.27">
  
 </text>
 <text x="-1032.01" y="-111.99">
  
 </text>
 <text x="66.04" y="-328.46">
  
 </text>
 <text x="647.31" y="-408.47">
  
 </text>
 <text x="258.19" y="-880.87">
  
 </text>
 <text x="839.45" y="-960.87">
  
 </text>
 <text x="-993.35" y="453.85">
  
 </text>
</svg>
