<svg viewBox="0 0 512 512" xmlns="http://www.w3.org/2000/svg">
 <path d="m91.735696 6.1605866c-3.881 0-7 3.1189999-7 6.9999994v477.000004c0 3.881 3.119 7 7 7h363.250004c3.881 0 7-3.119 7-7v-344.71875l-139.25-139.2812534zm175.111334 137.6777334c79.36 0 143.67969 64.33164 143.67969 143.68164 0 79.36-64.32969 143.67969-143.67969 143.67969-79.36 0-143.67969-64.32969-143.67969-143.67969 0-79.36 64.32969-143.68164 143.67969-143.68164zm-36.17774 36.05078v113.29102h-47.72656l83.90039 101.94922 83.90039-101.94922h-47.72656v-113.29102z" fill="#ffedb5"/>
</svg>
