<?xml version='1.0' encoding='UTF-8' standalone='no'?>
<svg height="16" style="enable-background:new" version="1.1" width="16" xmlns="http://www.w3.org/2000/svg">
 <title>
  Paper Symbolic Icon Theme
 </title>
 <g transform="translate(-525.00033,-20.996641)">
  <path class="error" d="m 527.96892,35.99328 c -0.53403,0 -0.96875,-0.42699 -0.96875,-0.96875 l 0,-0.0625 c 0.0171,-6.61281 5.38317,-11.96875 12,-11.96875 l 0.0312,0 c 0.54483,0 0.9688,0.446 0.9688,1 l 0,1 0,2 c 0,0.554 -0.446,1 -1,1 l -2,0 c -0.554,0 -1,-0.446 -1,-1 l 0,-0.46875 c -2.55686,0.90388 -4.56487,2.91189 -5.46875,5.46875 l 0.46875,0 c 0.55401,0 1,0.44599 1,1 l 0,2 c 0,0.55401 -0.44599,1 -1,1 l -1,0 -1,0 -0.96875,0 -0.0312,0 -0.0312,0 z" style="fill:#e74c3c;fill-opacity:1;"/>
 </g>
</svg>
