<?xml version='1.0' encoding='UTF-8' standalone='no'?>
<svg height="16" style="enable-background:new" version="1.1" width="16" xmlns="http://www.w3.org/2000/svg">
 <title>
  Paper Symbolic Icon Theme
 </title>
 <g transform="translate(-325.0029,20.019037)">
  <path d="m 330.99239,-19 0.01,6 -2.3418,0 3.33981,4.86133 0,-1.98633 c 0,-1.0106 0.90116,-1.84375 1.875,-1.84375 l 2.7832,0 0.7168,-1.03125 -2.375,0 -0.01,-6 -3.99805,0 z" style="fill:#fefefe;fill-opacity:1;"/>
  <path d="m 325.99825,-5.98828 0,1.96875 6.25781,0 c -0.15641,-0.26492 -0.25586,-0.56446 -0.25586,-0.88672 l 0,-1.08203 -6.00195,0 z m 13.00195,0 0,0.92578 1,0 -0.002,-0.92578 -0.99805,0 z" style="fill:#fefefe;fill-opacity:1;"/>
  <path d="m 340.1252,-10.96875 c 0.49245,0 0.875,0.35559 0.875,0.84375 l 0,5.21875 c 0,0.48816 -0.38255,0.84375 -0.875,0.84375 l -6.25,0 c -0.49245,0 -0.875,-0.35559 -0.875,-0.84375 l 0,-5.21875 c 0,-0.48816 0.38255,-0.84375 0.875,-0.84375 z M 338.0002,-6 l -1,0 0,-3 1,0 0,-1 -3,0 0,1 1,0 0,3 -1,0 0,1 3,0 z" style="fill:#fefefe;fill-opacity:1;enable-background:new"/>
 </g>
</svg>
