<?xml version='1.0' encoding='UTF-8' standalone='no'?>
<svg height="16" style="enable-background:new" version="1.1" width="16" xmlns="http://www.w3.org/2000/svg">
 <title>
  Paper Symbolic Icon Theme
 </title>
 <g transform="translate(-565.00018,-81)">
  <path d="m 568.0002,82 c -1.108,0 -2,0.892 -2,2 l 0,10 c 0,1.108 0.892,1.99998 2,2 l 10,0 c 1.108,2e-5 2,-0.892 2,-2 l 0,-4 -2,-0.006 0,4.00586 -10,0 0,-10 4,0 0,-2 -4,0 z m 5,0 0,2 3.58594,0 -4.49414,4.49414 -0.70703,0.70703 0.006,0.006 A 1,1 0 0 0 571.0002,90 a 1,1 0 0 0 1,1 1,1 0 0 0 0.79297,-0.39062 l 0.006,0.006 0.70703,-0.70703 4.494,-4.49429 0,3.58594 2,0.006 0,-7.00586 -7,0 z" style="opacity:1;fill:#fefefe;fill-opacity:1;"/>
 </g>
</svg>
