<?xml version='1.0' encoding='UTF-8' standalone='no'?>
<svg height="16" style="enable-background:new" version="1.1" width="16" xmlns="http://www.w3.org/2000/svg">
 <title>
  Paper Symbolic Icon Theme
 </title>
 <g transform="translate(-445.03185,37.93752)">
  <path d="m 450.2502,-36.9375 -0.3125,0.28125 -3.625,3.625 -0.28125,0.3125 0,0.40625 0,4.75 0,0.40625 0.28125,0.3125 3.625,3.625 0.3125,0.28125 0.40625,0 4.75,0 0.40625,0 0.3125,-0.28125 3.625,-3.625 0.28125,-0.3125 0,-0.40625 0,-4.75 0,-0.40625 -0.28125,-0.3125 -3.625,-3.625 -0.3125,-0.28125 -0.40625,0 -4.75,0 -0.40625,0 z m 0.78125,2 4,0 3,3 0,4 -3,3 -4,0 -3,-3 0,-4 3,-3 z m 0.4375,1 -2.4375,2.4375 0,3.125 2.4375,2.4375 3.125,0 2.4375,-2.4375 0,-3.125 -2.4375,-2.4375 -3.125,0 z" style="fill:#fefefe;fill-opacity:1;"/>
 </g>
</svg>
