<?xml version='1.0' encoding='UTF-8' standalone='no'?>
<svg height="16" style="enable-background:new" version="1.1" width="16.001" xmlns="http://www.w3.org/2000/svg">
 <title>
  Paper Symbolic Icon Theme
 </title>
 <g transform="translate(-545.00606,-61)">
  <path d="m 553.00606,61.39258 -2.11719,5.49414 -5.88281,0.3164 4.57226,3.71485 -1.51562,5.69141 4.94336,-3.20118 0.99414,0.64453 0,-2.05273 2,0 0,-1 0,-1 1.56445,0 3.44141,-2.79688 -5.88086,-0.3164 -2.11914,-5.49414 z M 557.0002,71 l 0,2 -2,0 0,2 2,0 0,2 2,0 0,-2 2,0 0,-2 -2,0 0,-2 -2,0 z" style="fill:#fefefe;fill-opacity:1;"/>
 </g>
</svg>
