<?xml version='1.0' encoding='UTF-8' standalone='no'?>
<svg height="16" style="enable-background:new" version="1.1" width="16" xmlns="http://www.w3.org/2000/svg">
 <title>
  Paper Symbolic Icon Theme
 </title>
 <g transform="translate(-305.00021,-80.996674)">
  <path d="m 306.2502,84 c -0.1385,0 -0.25,0.1115 -0.25,0.25 l 0,0.25 0,1 0,0.25 c 0,0.1385 0.1115,0.25 0.25,0.25 l 0.25,0 1,0 0.25,0 c 0.1385,0 0.25,-0.1115 0.25,-0.25 l 0,-0.25 0,-1 0,-0.25 c 0,-0.1385 -0.1115,-0.25 -0.25,-0.25 l -0.25,0 -1,0 -0.25,0 z m 4,0 c -0.1385,0 -0.25,0.1115 -0.25,0.25 l 0,0.25 0,1 0,0.25 c 0,0.1385 0.1115,0.25 0.25,0.25 l 0.25,0 1,0 0.25,0 c 0.1385,0 0.25,-0.1115 0.25,-0.25 l 0,-0.25 0,-1 0,-0.25 c 0,-0.1385 -0.1115,-0.25 -0.25,-0.25 l -0.25,0 -1,0 -0.25,0 z m 4,0 c -0.1385,0 -0.25,0.1115 -0.25,0.25 l 0,0.25 0,1 0,0.25 c 0,0.1385 0.1115,0.25 0.25,0.25 l 0.25,0 1,0 0.25,0 c 0.1385,0 0.25,-0.1115 0.25,-0.25 l 0,-0.25 0,-1 0,-0.25 c 0,-0.1385 -0.1115,-0.25 -0.25,-0.25 l -0.25,0 -1,0 -0.25,0 z m 4,0 c -0.1385,0 -0.25,0.1115 -0.25,0.25 l 0,0.25 0,1 0,0.25 c 0,0.1385 0.1115,0.25 0.25,0.25 l 0.25,0 1,0 0.25,0 c 0.1385,0 0.25,-0.1115 0.25,-0.25 l 0,-0.25 0,-1 0,-0.25 c 0,-0.1385 -0.1115,-0.25 -0.25,-0.25 l -0.25,0 -1,0 -0.25,0 z m -12,4 c -0.1385,0 -0.25,0.1115 -0.25,0.25 l 0,0.25 0,1 0,0.25 c 0,0.1385 0.1115,0.25 0.25,0.25 l 0.25,0 1,0 0.25,0 c 0.1385,0 0.25,-0.1115 0.25,-0.25 l 0,-0.25 0,-1 0,-0.25 c 0,-0.1385 -0.1115,-0.25 -0.25,-0.25 l -0.25,0 -1,0 -0.25,0 z m 4,0 c -0.1385,0 -0.25,0.1115 -0.25,0.25 l 0,0.25 0,1 0,0.25 c 0,0.1385 0.1115,0.25 0.25,0.25 l 0.25,0 1,0 0.25,0 c 0.1385,0 0.25,-0.1115 0.25,-0.25 l 0,-0.25 0,-1 0,-0.25 c 0,-0.1385 -0.1115,-0.25 -0.25,-0.25 l -0.25,0 -1,0 -0.25,0 z m 4,0 c -0.1385,0 -0.25,0.1115 -0.25,0.25 l 0,0.25 0,1 0,0.25 c 0,0.1385 0.1115,0.25 0.25,0.25 l 0.25,0 1,0 0.25,0 c 0.1385,0 0.25,-0.1115 0.25,-0.25 l 0,-0.25 0,-1 0,-0.25 c 0,-0.1385 -0.1115,-0.25 -0.25,-0.25 l -0.25,0 -1,0 -0.25,0 z m 4,0 c -0.1385,0 -0.25,0.1115 -0.25,0.25 l 0,0.25 0,1 0,0.25 c 0,0.1385 0.1115,0.25 0.25,0.25 l 0.25,0 1,0 0.25,0 c 0.1385,0 0.25,-0.1115 0.25,-0.25 l 0,-0.25 0,-1 0,-0.25 c 0,-0.1385 -0.1115,-0.25 -0.25,-0.25 l -0.25,0 -1,0 -0.25,0 z m -12,4 c -0.1385,0 -0.25,0.1115 -0.25,0.25 l 0,0.25 0,1 0,0.25 c 0,0.1385 0.1115,0.25 0.25,0.25 l 0.25,0 1,0 0.25,0 c 0.1385,0 0.25,-0.1115 0.25,-0.25 l 0,-0.25 0,-1 0,-0.25 c 0,-0.1385 -0.1115,-0.25 -0.25,-0.25 l -0.25,0 -1,0 -0.25,0 z m 4,0 c -0.1385,0 -0.25,0.1115 -0.25,0.25 l 0,0.25 0,1 0,0.25 c 0,0.1385 0.1115,0.25 0.25,0.25 l 0.25,0 1,0 0.25,0 c 0.1385,0 0.25,-0.1115 0.25,-0.25 l 0,-0.25 0,-1 0,-0.25 c 0,-0.1385 -0.1115,-0.25 -0.25,-0.25 l -0.25,0 -1,0 -0.25,0 z m 4,0 c -0.1385,0 -0.25,0.1115 -0.25,0.25 l 0,0.25 0,1 0,0.25 c 0,0.1385 0.1115,0.25 0.25,0.25 l 0.25,0 1,0 0.25,0 c 0.1385,0 0.25,-0.1115 0.25,-0.25 l 0,-0.25 0,-1 0,-0.25 c 0,-0.1385 -0.1115,-0.25 -0.25,-0.25 l -0.25,0 -1,0 -0.25,0 z m 4,0 c -0.1385,0 -0.25,0.1115 -0.25,0.25 l 0,0.25 0,1 0,0.25 c 0,0.1385 0.1115,0.25 0.25,0.25 l 0.25,0 1,0 0.25,0 c 0.1385,0 0.25,-0.1115 0.25,-0.25 l 0,-0.25 0,-1 0,-0.25 c 0,-0.1385 -0.1115,-0.25 -0.25,-0.25 l -0.25,0 -1,0 -0.25,0 z" style="opacity:1;fill:#fefefe;fill-opacity:1;"/>
 </g>
</svg>
