<svg height="513" width="512" xmlns="http://www.w3.org/2000/svg">
 <path d="m33.692795 71.733047h183.68008v44.56144h-183.68008z" fill="#e4e4e4" fill-rule="evenodd"/>
 <path d="m8.6949148 115.20763h493.43646v326.0593h-493.43646z" fill="#a2a2a2" fill-rule="evenodd"/>
 <path d="m278.77361 356.49046c-14.95902-.60506-25.08306-1.75033-32.9075-3.72371-8.95738-2.25906-15.34803-5.68116-17.98569-9.63115-1.82326-2.73029-2.12911-4.14217-2.01417-9.29913.0968-4.34249.10414-4.38567 1.13523-6.52982 2.52013-5.24167 7.17427-9.6852 15.7981-15.08325 4.26401-2.66905 13.02406-6.97829 19.28208-9.48535 6.22514-2.49381 7.61411-3.48474 8.98251-6.40898.68979-1.47488.83439-2.15978.83439-3.96149 0-3.44265-.63084-5.18385-2.73888-7.55803-8.87496-9.99629-14.56062-24.81331-14.56062-37.94567 0-14.53016 6.23187-25.88722 17.19893-31.34376 4.63314-2.30528 8.70413-3.30846 14.31438-3.52746 15.36773-.59953 28.03851 7.99143 32.36349 21.94368 2.28173 7.36048 2.33716 17.20916.14554 25.88299-2.12809 8.42352-6.93527 18.00879-11.88614 23.70044-2.58662 2.97372-2.83169 3.40609-3.36196 5.93295-.63452 3.02454-.46691 6.07754.43929 8.00644 1.0098 2.14836 2.33365 3.111 6.20084 4.50908 20.28506 7.33348 34.61344 17.03583 38.17037 25.84697.60782 1.50591.66584 2.08941.66676 6.68626.00027 4.8888-.0189 5.08568-.78833 6.71979-3.28423 7.01072-13.58987 11.52109-31.63698 13.84635-7.95079 1.02446-28.39557 1.79702-37.65179 1.42285z" fill="#e4e4e4"/>
 <path d="m210.99148 354.49702c-12.69252-.51338-21.28262-1.48513-27.92155-3.15944-7.6003-1.91685-13.02259-4.82038-15.26068-8.17189-1.54702-2.31669-1.80644-3.51466-1.70892-7.89027.0821-3.68454.0883-3.72111.96323-5.54044 2.1383-4.44742 6.08727-8.21776 13.40446-12.79794 3.61796-2.26465 11.05073-5.92098 16.36058-8.04811 5.28195-2.11596 6.46038-2.95682 7.62147-5.43801.58605-1.25141.70795-1.83254.70795-3.36127 0-2.92103-.53526-4.39842-2.32389-6.41288-7.53028-8.48171-12.35449-21.05374-12.35449-32.19636 0-12.32855 5.28766-21.96494 14.59297-26.59474 3.93123-1.95592 7.38541-2.8071 12.14554-2.99292 13.03931-.50869 23.79037 6.78061 27.46006 18.61883 1.936 6.24534 1.98304 14.6018.12346 21.96142-1.80573 7.14724-5.88449 15.28021-10.08522 20.1095-2.19472 2.52307-2.40265 2.89001-2.85258 5.03402-.53839 2.5662-.39617 5.15662.37273 6.79334.8568 1.82285 1.98007 2.63965 5.26124 3.82582 17.21168 6.22237 29.36903 14.45474 32.38711 21.93079.51572 1.27774.56495 1.77284.56573 5.6732.00024 4.14807-.0234 4.31513-.66888 5.70172-2.78663 5.94842-11.53081 9.77548-26.84353 11.74844-6.74615.86915-24.09324 1.52467-31.94702 1.20719z" fill="#e4e4e4"/>
</svg>
