<svg height="48" viewBox="0 0 512 512" width="48" xmlns="http://www.w3.org/2000/svg">
 <path d="m471.95 253.05c0 120.9-98.01 218.9-218.9 218.9-120.9 0-218.9-98.01-218.9-218.9 0-120.9 98.01-218.9 218.9-218.9 120.9 0 218.9 98.01 218.9 218.9" fill="#b3af49" fill-rule="evenodd"/>
 <path d="m300.82 113.26c-3.137.045-6.165.221-9.236.666-8.191 1.186-16.255 4.918-24.06 13.174l-.029.029-.029.029c-5.72 6.169-9.285 13.544-12.306 23.395h-9.96c-6.555 0-11.864 5.252-11.958 11.784h-104.15c-13.08 0-23.598 10.542-23.598 23.627v158.82c0 13.08 10.513 23.598 23.598 23.598h253.79c13.08 0 23.627-10.513 23.627-23.598v-158.82c0-13.08-10.542-23.627-23.627-23.627h-95.09c-.094-6.532-5.403-11.784-11.958-11.784h-8.281c2.356-6.862 4.871-11.438 8.513-15.375.011-.011.019-.018.029-.029 6.406-6.766 11.02-8.694 17.17-9.584 6.157-.892 14.15-.206 24.988-.55a5.884135 5.884135 0 1 0 -.37645-11.75551c-5.04.16-9.579.021-13.869 0-1.073-.006-2.139-.015-3.185 0m-130.58 87.88h22.01c4.12 0 7.412 3.321 7.412 7.441v21.803c0 4.12-3.292 7.441-7.412 7.441h-22.01c-4.121 0-7.441-3.321-7.441-7.441v-21.803c0-4.12 3.321-7.441 7.441-7.441m49.831 0h22.01c4.12 0 7.441 3.321 7.441 7.441v21.803c0 4.12-3.321 7.441-7.441 7.441h-22.01c-4.12 0-7.441-3.321-7.441-7.441v-21.803c0-4.12 3.321-7.441 7.441-7.441m49.86 0h21.976c4.121 0 7.441 3.321 7.441 7.441v21.803c0 4.12-3.321 7.441-7.441 7.441h-21.976c-4.12 0-7.441-3.321-7.441-7.441v-21.803c0-4.12 3.321-7.441 7.441-7.441m49.831 0h21.976c4.12 0 7.441 3.321 7.441 7.441v21.803c0 4.12-3.321 7.441-7.441 7.441h-21.976c-4.121 0-7.441-3.321-7.441-7.441v-21.803c0-4.12 3.321-7.441 7.441-7.441m-174.45 57.1h22.01c4.12 0 7.441 3.321 7.441 7.441v21.803c0 4.12-3.321 7.441-7.441 7.441h-22.01c-4.12 0-7.441-3.321-7.441-7.441v-21.803c0-4.12 3.321-7.441 7.441-7.441m49.86 0h21.976c4.12 0 7.441 3.321 7.441 7.441v21.803c0 4.12-3.321 7.441-7.441 7.441h-21.976c-4.12 0-7.441-3.321-7.441-7.441v-21.803c0-4.12 3.321-7.441 7.441-7.441m49.831 0h21.976c4.12 0 7.441 3.321 7.441 7.441v21.803c0 4.12-3.321 7.441-7.441 7.441h-21.976c-4.12 0-7.441-3.321-7.441-7.441v-21.803c0-4.12 3.321-7.441 7.441-7.441m49.831 0h22.01c4.12 0 7.441 3.321 7.441 7.441v21.803c0 4.12-3.321 7.441-7.441 7.441h-22.01c-4.12 0-7.441-3.321-7.441-7.441v-21.803c0-4.12 3.321-7.441 7.441-7.441m49.831 0h22.01c4.12 0 7.441 3.321 7.441 7.441v21.803c0 4.12-3.321 7.441-7.441 7.441h-22.01c-4.121 0-7.412-3.321-7.412-7.441v-21.803c0-4.12 3.292-7.441 7.412-7.441m-146.39 52.726h115.47c6.626 0 11.958 5.332 11.958 11.958v12.769c0 6.626-5.332 11.958-11.958 11.958h-115.47c-6.626 0-11.958-5.332-11.958-11.958v-12.769c0-6.626 5.332-11.958 11.958-11.958" fill="#ffffff"/>
</svg>
