<svg height="512" viewBox="0 0 512 512" width="512" xmlns="http://www.w3.org/2000/svg">
 <path d="m471.95 253.05c0 120.9-98.01 218.9-218.9 218.9-120.9 0-218.9-98.01-218.9-218.9 0-120.9 98.01-218.9 218.9-218.9 120.9 0 218.9 98.01 218.9 218.9" fill="#c0801c" fill-rule="evenodd"/>
 <g fill="#ffffff" transform="matrix(1.1096533 0 0 1.1096533 -26.539468 20.096602)">
  <circle cx="254.131" cy="208.472" r="33.963"/>
  <path d="m254.13126 90.533453c-65.27091 0-118.47447 49.230277-121.02649 116.271057h72.41745c2.44922-26.81631 23.31232-43.99216 48.60904-43.99216 25.29225 0 46.15981 17.17585 48.60456 43.99216h72.42639c-2.55202-67.04078-55.76452-116.271057-121.03095-116.271057zm-.004 42.222287c-6.56553 0-11.88857-5.32751-11.88857-11.89751 0-6.56999 5.32304-11.8975 11.88857-11.8975 6.57893 0 11.90197 5.32751 11.90197 11.8975 0 6.57-5.32751 11.89751-11.90197 11.89751z"/>
  <path d="m254.13126 257.32644c-25.29672 0-46.15982-19.33009-48.60904-43.99216h-72.41745c.38464 9.72597 1.91559 19.15723 4.46152 28.16232 14.37599 50.84867 61.11417 88.10874 116.56497 88.10874 65.26643 0 118.47893-51.62587 121.03095-116.27106h-72.43086c-2.44475 24.66207-23.30784 43.99216-48.60009 43.99216z"/>
 </g>
 <circle cx="256" stroke="#fefefe" cy="256" r="181.13" stroke-width="18.771" fill="none"/>
</svg>
