<svg height="512" viewBox="0 0 512 512" width="512" xmlns="http://www.w3.org/2000/svg">
 <path d="m471.95 253.05c0 120.9-98.01 218.9-218.9 218.9-120.9 0-218.9-98.01-218.9-218.9 0-120.9 98.01-218.9 218.9-218.9 120.9 0 218.9 98.01 218.9 218.9" fill="#484043" fill-rule="evenodd"/>
 <path d="m256 92.68c-49.29 0-93.47 21.846-123.41 56.37l78.07 92.4 52.02-148.62c-2.215-.089-4.439-.143-6.676-.143m33.34 3.43l-39.32 112.43 152.03-25.683c-22.03-43.907-63.28-76.49-112.71-86.75m-170.65 71.43c-16.457 25.493-26.01 55.86-26.01 88.46 0 17.501 2.764 34.36 7.86 50.16l118.37-19.966-100.22-118.65m293.15 39.443l-118.25 19.987 99.06 118.51c16.866-25.702 26.683-56.44 26.683-89.48 0-17.08-2.63-33.544-7.493-49.02m-155.83 23.804c-13.927 0-25.21 11.286-25.21 25.21 0 13.927 11.286 25.21 25.21 25.21 13.927 0 25.21-11.286 25.21-25.21 0-13.927-11.286-25.21-25.21-25.21m45.1 38.953l-.184.51.347.143-10.04 26.561c-4.537 12.624 10.657-27.447 10.289-26.479l-56.43 148.48c3.608.238 7.254.367 10.922.367 49.17 0 93.27-21.74 123.21-56.12l-78.11-93.46m-36.12 33.726l-154.81 26.13c22.06 43.627 63.12 76.01 112.31 86.28l42.505-112.41" fill="#ffffff"/>
 <circle cx="256" stroke="#fefefe" cy="256" r="181.13" stroke-width="18.771" fill="none"/>
</svg>
