<svg height="512" viewBox="0 0 512 512" width="512" xmlns="http://www.w3.org/2000/svg">
 <path d="m471.95 253.05c0 120.9-98.01 218.9-218.9 218.9-120.9 0-218.9-98.01-218.9-218.9 0-120.9 98.01-218.9 218.9-218.9 120.9 0 218.9 98.01 218.9 218.9" fill="#62c0dc" fill-rule="evenodd"/>
 <path d="m130.62656 319.10411c25.92316 54.20205 101.54 72.02232 168.89148 39.80368 67.36164-32.21864 100.95107-102.25078 75.02791-156.46299-25.92316-54.20205-101.54-72.02232-168.89148-39.80368-67.36164 32.21865-100.95107 102.25078-75.02791 156.46299z" style="fill:none;stroke:#ffffff;stroke-width:25.38500023;stroke-linecap:square;stroke-linejoin:round;stroke-miterlimit:10"/>
 <g fill="#ffffff" stroke="#ffffff" stroke-linecap="square" stroke-miterlimit="10" transform="matrix(10.154 0 0 10.154 83.38 98.61)">
  <path d="m19 5c0 1.657-1.343 3-3 3-1.657 0-3-1.343-3-3 0-1.657 1.343-3 3-3 1.657 0 3 1.343 3 3z"/>
  <path d="m8 13c0 1.657-1.343 3-3 3-1.657 0-3-1.343-3-3 0-1.657 1.343-3 3-3 1.657 0 3 1.343 3 3z"/>
  <path d="m12 26c0 1.657-1.343 3-3 3-1.657 0-3-1.343-3-3 0-1.657 1.343-3 3-3 1.657 0 3 1.343 3 3z"/>
  <path d="m27 24c0 1.657-1.343 3-3 3-1.657 0-3-1.343-3-3 0-1.657 1.343-3 3-3 1.657 0 3 1.343 3 3z"/>
  <path d="m32 11c0 1.657-1.343 3-3 3-1.657 0-3-1.343-3-3 0-1.657 1.343-3 3-3 1.657 0 3 1.343 3 3z"/>
 </g>
 <circle cx="256" stroke="#fefefe" cy="256" r="181.13" stroke-width="18.771" fill="none"/>
</svg>
