<svg xmlns="http://www.w3.org/2000/svg" height="512" width="512" version="1.1" viewBox="0 0 144.5 144.5">
 <path fill-rule="evenodd" d="m133.19 71.42c0 34.12-27.66 61.779-61.779 61.779-34.12 0-61.779-27.66-61.779-61.779 0-34.12 27.66-61.779 61.779-61.779 34.12 0 61.779 27.66 61.779 61.779" fill="#d70d0d"/>
 <g fill="#ffffff">
  <rect rx="2.693" transform="matrix(-.74940 -.66211 .66211 -.74940 0 0)" height="5.386" width="44.31" y="-8.98" x="-99.13"/>
  <rect rx="2.943" transform="rotate(-45)" height="5.887" width="54.02" y="96.82" x="-2.23"/>
  <rect rx="1.409" transform="matrix(.4772 -.87879 .85224 .52315 0 0)" height="2.818" width="46.48" y="96.3" x="-74.2"/>
  <path d="m77.306 71.418a5.8915 5.8915 0 0 1 -11.783 0 5.8915 5.8915 0 1 1 11.783 0"/>
 </g>
 <circle stroke-width="5.318" stroke="#fefefe" cy="72.25" cx="72.25" r="51.316" fill="none"/>
</svg>
