<?xml version="1.0" encoding="UTF-8"?>
<svg width="512" height="512" version="1.1" viewBox="0 0 512 512" xmlns="http://www.w3.org/2000/svg">
 <path d="m471.95 253.05c0 120.9-98.01 218.9-218.9 218.9-120.9 0-218.9-98.01-218.9-218.9 0-120.9 98.01-218.9 218.9-218.9 120.9 0 218.9 98.01 218.9 218.9" fill="#0078ad" fill-rule="evenodd"/>
 <g transform="matrix(9.9756 0 0 9.9756 18.627 14.698)" fill="#ffffff">
  <g fill="#ffffff">
   <!-- color: #3b5d80 -->
   <g fill="#ffffff">
    <path d="m26 9h-4v15h4"/>
    <path d="m20 9.5c-6.359 1.766-11 7.617-11 14.469 0 8.23 6.715 15.03 15 15.03s15-6.801 15-15.03c0-6.852-4.641-12.703-11-14.469v3.875c4.184 1.645 7.25 5.75 7.25 10.594 0 6.313-5.04 11.375-11.25 11.375-6.203 0-11.25-5.063-11.25-11.375 0-4.895 3.01-9.05 7.25-10.656"/>
    <path d="m23.25 16v16h1.5v-16"/>
    <path d="m26.5 28.5c0 0.828-1.117 1.5-2.5 1.5s-2.5-0.672-2.5-1.5 1.117-1.5 2.5-1.5 2.5 0.672 2.5 1.5"/>
    <path d="m19.25 31v-14h-1.5v14"/>
    <path d="m21 21.5c0 0.828-1.117 1.5-2.5 1.5s-2.5-0.672-2.5-1.5 1.117-1.5 2.5-1.5 2.5 0.672 2.5 1.5"/>
    <path d="m30.25 31v-14h-1.5v14"/>
    <path d="m32 21.5c0 0.828-1.117 1.5-2.5 1.5s-2.5-0.672-2.5-1.5 1.117-1.5 2.5-1.5 2.5 0.672 2.5 1.5"/>
   </g>
  </g>
 </g>
 <circle cx="256" cy="256" r="181.13" fill="none" stroke="#fefefe" stroke-width="18.771"/>
</svg>
