<?xml version="1.0" encoding="UTF-8"?>
<svg width="512" height="512" version="1.1" viewBox="0 0 512 512" xmlns="http://www.w3.org/2000/svg">
 <path d="m471.95 253.05c0 120.9-98.01 218.9-218.9 218.9-120.9 0-218.9-98.01-218.9-218.9 0-120.9 98.01-218.9 218.9-218.9 120.9 0 218.9 98.01 218.9 218.9" fill="#1793d1" fill-rule="evenodd" style="fill:#4db95e"/>
 <path d="m174.83 121.41-10.506 31.518v10.504h-10.506c-17.46 0-31.516 14.057-31.516 31.518v126.07c0 17.46 14.055 31.518 31.516 31.518h10.506v10.506l10.506 31.516h21.012l10.506-31.516v-10.506h31.518v10.506l10.506 31.516h21.01l10.506-31.516v-10.506h31.518v10.506l10.506 31.516h21.012l10.506-31.516v-10.506h10.506c17.46 0 31.516-14.057 31.516-31.518v-126.07c0-17.46-14.055-31.518-31.516-31.518h-10.506v-10.504l-10.506-31.518h-21.012l-10.506 31.518v10.504h-31.518v-10.504l-10.506-31.518h-21.01l-10.506 31.518v10.504h-31.518v-10.504l-10.506-31.518zm84.744 64.418c6.8389 0 12.383 5.5439 12.383 12.383s-5.5439 12.383-12.383 12.383-12.383-5.5439-12.383-12.383 5.5439-12.383 12.383-12.383zm-12.383 37.148h24.766c6.8602 0 12.383 5.5226 12.383 12.383s-5.5226 12.385-12.383 12.385v49.531h12.383c6.8602 0 12.383 5.5226 12.383 12.383 0 6.8602-5.5226 12.383-12.383 12.383h-49.531c-6.8602 0-12.385-5.5226-12.385-12.383 0-6.8602 5.5245-12.383 12.385-12.383h12.383v-49.531c-6.8602 0-12.383-5.5245-12.383-12.385s5.5226-12.383 12.383-12.383z" style="fill:#ffffff;stroke-width:10.506"/>
 <circle cx="256" cy="256" r="181.13" fill="none" stroke="#fefefe" stroke-width="18.771"/>
</svg>
