<svg viewBox="0 0 512 512" xmlns="http://www.w3.org/2000/svg">
 <path d="m471.95 253.05c0 120.9-98.01 218.91-218.91 218.91-120.9 0-218.91-98.01-218.91-218.91 0-120.9 98.01-218.91 218.91-218.91 120.9 0 218.91 98.01 218.91 218.91" fill="#c86a79" fill-rule="evenodd"/>
 <path d="m170.04 128.43l-16.774 9.49-5.297 35.31-1.104 11.918-18.76-32.665-15.01 8.828 41.05 71.07 15.01-8.608-14.567-25.381 3.752-8.387 35.975 19.2 16.995-9.711-47.894-25.381zm61.58 22.07l-23.837 84.75c-13.09 46.614-25.935 84.75-28.471 84.75s-7.849-16.01-13.02-35.31c-10.924-40.771-13.1-43.3-32.665-32-13.325 7.693-12.521 10.655-1.766 19.2 6.413 5.096 17 28.339 23.395 51.646 6.392 23.307 13.205 47.14 15.229 52.97 3.27 9.417 4.351 9.417 9.27 0 3.044-5.827 17.782-54.29 32.665-107.71l26.926-97.11h79.896c48.13 0 66.62-.006 76.2-.006 0-5.568.225-14.945.225-21.05-7.847 0-20.965-.131-80.18-.131zm34.872 44.583l-64.888 184.51h41.935l13.243-43.7h67.1l13.243 43.7h42.16l-65.33-184.51zm23.837 28.471c.67 3.02 1.802 7.162 3.311 12.36 1.593 5.198 8.644 27.665 20.967 67.32h-47.894c13.08-42.33 20.849-68.946 23.616-79.68" fill="#ffffff"/>
 <circle cx="256" stroke="#fefefe" cy="256" r="181.13" stroke-width="18.771" fill="none"/>
</svg>
