<svg width="512" height="512" version="1.1" viewBox="0 0 512 512" xmlns="http://www.w3.org/2000/svg">
 <path d="m471.95 253.05c0 120.9-98.01 218.9-218.9 218.9-120.9 0-218.9-98.01-218.9-218.9 0-120.9 98.01-218.9 218.9-218.9 120.9 0 218.9 98.01 218.9 218.9" fill="#a74f41" fill-rule="evenodd"/>
 <g transform="matrix(.83664 0 0 .83664 31.558 49.965)" fill="#ffffff">
  <path d="m144.59 367.79c31.541 31.065 235.1-110.07 235.1-110.07l-125.13-125.12s-141.49 204.14-109.96 235.21z" fill-opacity=".45455" stroke-width="11.067"/>
  <circle transform="matrix(-.70695 -.70726 -.70695 .70726 0 0)" cx="-362.34" cy="-86.339" r="88.533" stroke-width="12.648"/>
 </g>
 <circle cx="256" cy="256" r="181.13" fill="none" stroke="#fefefe" stroke-width="18.771"/>
</svg>
