<svg height="512" viewBox="0 0 512 512" width="512" xmlns="http://www.w3.org/2000/svg">
 <path d="m471.95 253.05c0 120.9-98.01 218.9-218.9 218.9-120.9 0-218.9-98.01-218.9-218.9 0-120.9 98.01-218.9 218.9-218.9 120.9 0 218.9 98.01 218.9 218.9" fill="#b93d48" fill-rule="evenodd"/>
 <rect fill="#ffffff" height="67.374" rx="21.776" ry="21.894" width="67.374" x="81.86" y="211.86"/>
 <rect fill="#ffffff" height="67.374" rx="21.776" ry="21.894" width="67.374" x="168.49" y="211.86"/>
 <rect fill="#ffffff" height="67.374" rx="21.776" ry="21.894" width="67.374" x="255.11" y="211.86"/>
 <rect fill="#ffffff" height="67.374" rx="21.776" ry="21.894" width="67.374" x="341.74" y="211.86"/>
 <rect fill="#ffffff" height="67.374" rx="21.776" ry="21.894" width="67.374" x="125.18" y="125.24"/>
 <rect fill="#ffffff" height="67.374" rx="21.776" ry="21.894" width="67.374" x="211.81" y="125.24"/>
 <rect fill="#ffffff" height="67.374" rx="21.776" ry="21.894" width="67.374" x="298.43" y="125.24"/>
 <rect fill="#ffffff" height="67.374" rx="21.776" ry="21.894" width="312.806" x="89.09" y="298.49"/>
 <circle cx="256" stroke="#fefefe" cy="256" r="181.13" stroke-width="18.771" fill="none"/>
</svg>
