<svg viewBox="0 0 512 512" xmlns="http://www.w3.org/2000/svg">
 <path d="m471.95 253.05c0 120.9-98.01 218.91-218.91 218.91-120.9 0-218.91-98.01-218.91-218.91 0-120.9 98.01-218.91 218.91-218.91 120.9 0 218.91 98.01 218.91 218.91" fill="#68af4c" fill-rule="evenodd"/>
 <path d="m253.03 478.84c-120.9 0-218.91-98.01-218.91-218.91 0-1.154.013-2.287.031-3.438h222.34v222.31c-1.154.018-2.31.031-3.469.031" fill="#55405f"/>
 <path d="m253.03 34.16c-120.9 0-218.91 98.01-218.91 218.91 0 1.154.013 2.287.031 3.438h222.34v-222.31c-1.154-.018-2.31-.031-3.469-.031" fill="#0078ad"/>
 <path d="m255.5 478.81v-222.31h216.41c.018 1.15.031 2.283.031 3.438 0 120.08-96.68 217.55-216.44 218.88" fill="#cd1d31"/>
 <path d="m254.71 94.56c-13.325.675-23.928 11.724-23.928 25.22 0 11.163 7.261 20.608 17.31 23.928v95.71c-7.563 2.497-13.559 8.493-16.06 16.06h-95.71c-3.319-10.05-12.765-17.31-23.928-17.31-13.928 0-25.22 11.288-25.22 25.22 0 13.928 11.288 25.22 25.22 25.22 11.163 0 20.608-7.261 23.928-17.31h95.71c3.319 10.05 12.799 17.31 23.963 17.31 11.164 0 20.644-7.258 23.963-17.31h95.71c3.319 10.05 12.765 17.31 23.928 17.31 13.928 0 25.22-11.288 25.22-25.22 0-13.928-11.288-25.22-25.22-25.22-11.163 0-20.608 7.261-23.928 17.31h-95.71c-2.497-7.563-8.493-13.559-16.06-16.06v-95.71c10.05-3.319 17.31-12.765 17.31-23.928 0-13.928-11.288-25.22-25.22-25.22-.435 0-.859-.022-1.289 0" fill="#ffffff"/>
 <circle cx="256" stroke="#fefefe" cy="256" r="181.13" stroke-width="18.771" fill="none"/>
</svg>
