<svg viewBox="0 0 512 512" xmlns="http://www.w3.org/2000/svg">
 <path d="m471.95 253.05c0 120.9-98.01 218.91-218.91 218.91-120.9 0-218.91-98.01-218.91-218.91 0-120.9 98.01-218.91 218.91-218.91 120.9 0 218.91 98.01 218.91 218.91" fill="#336699" fill-rule="evenodd"/>
 <path d="m264.92 113.43c-4.212 0-7.908.259-11.166.602-11.268 1.177-22.912 3.838-26.52 6.18-1.017.667 6.231 2.486 18.743 4.787 11.233 2.064 19.373 3.947 18.15 4.186-1.228.241-18.737-1.577-39.08-4.186-35.717-4.583-37.19-4.845-39.68-2.593-5.187 4.695-12.621 17.661-14.157 24.526-1.487 6.647-1.315 7.393 1.994 14.157 5.641 11.53 16.01 19.832 39.88 31.905 11.286 5.707 20.274 10.632 19.94 10.966-.334.333-9.898-3.246-21.336-7.975l-20.737-8.574-30.508 8.574c-16.783 4.697-31.93 8.574-32.618 8.574l-.485 194.01h27.12c0-2 66.982-83.45 68.39-83.15.807.167 30.653 12.96 66.4 28.316 61.05 26.22 65.15 27.735 66.798 25.522 2.497-3.346 11.204-21.31 15.752-32.701l3.789-9.572-6.58-3.589c-9.213-5.04-22.645-16.284-31.11-25.921-7.721-8.795-21.734-30.13-21.734-33.1 0-.983 4.561 3.523 9.97 9.971 15.193 18.11 50.24 46.5 52.44 42.471 2.609-4.784 4.271-18.925 4.187-35.29-.102-19.982-2.892-35.554-9.771-57.03l-3.789-11.963-18.943-5.983-23.33-7.377c-8.233-2.588-3.279-2.491 8.774.204 14.411 3.219 29.22 6.04 38.28 7.178 7.981 1.01 9.715-.685 10.568-9.572 1.088-11.323-6.186-42.651-13.559-58.22-2.943-6.215-4.278-7.472-10.169-10.17-17.16-7.858-66.43-15.246-95.91-15.16z" fill="#ffffff"/>
 <circle cx="256" stroke="#fefefe" cy="256" r="181.13" stroke-width="18.771" fill="none"/>
</svg>
