<?xml version="1.0" encoding="UTF-8"?>
<svg width="512" height="512" version="1.1" viewBox="0 0 512 512" xmlns="http://www.w3.org/2000/svg" xmlns:cc="http://creativecommons.org/ns#" xmlns:dc="http://purl.org/dc/elements/1.1/" xmlns:rdf="http://www.w3.org/1999/02/22-rdf-syntax-ns#">
 <metadata>
  <rdf:RDF>
   <cc:Work rdf:about="">
    <dc:format>image/svg+xml</dc:format>
    <dc:type rdf:resource="http://purl.org/dc/dcmitype/StillImage"/>
    <dc:title/>
   </cc:Work>
  </rdf:RDF>
 </metadata>
 <path d="m471.95 253.89c0 120.9-98.01 218.9-218.9 218.9-120.9 0-218.9-98.01-218.9-218.9 0-120.9 98.01-218.9 218.9-218.9 120.9 0 218.9 98.01 218.9 218.9" fill="#2c87c6" fill-rule="evenodd"/>
 <path d="m198.96 367.18c-44.456-15.507-80.973-28.334-81.149-28.504-0.17626-0.1709-0.21818-0.40845-0.0967-0.52775 0.12359-0.12035 36.744 4.0426 81.379 9.2498 61.536 7.179 75.664 9.3295 75.949 8.8955 0.49656-0.75775 0.48796-211.04-9e-3 -211.8-0.53955-0.82438-105.97 23.321-106.86 24.47-0.48475 0.62016-0.61372 15.804-0.61372 72.197 0 56.567-0.12796 71.507-0.61372 71.87-0.92971 0.6954-51.897 23.917-52.603 23.912-0.49014-3e-3 -0.58901-18.431-0.49014-91.356l0.1236-91.352 63.529-22.76c34.941-12.518 72.505-25.969 83.475-29.893l19.945-7.1331 44.811 13.909c24.646 7.6503 45.086 14.08 45.424 14.288 0.48797 0.30202 0.61373 25.471 0.61373 123.25 0 116.54-0.043 122.89-0.85879 123.31-1.5009 0.77816-88.994 26.216-90.082 26.19-0.57288-0.0114-37.415-12.712-81.872-28.219z" fill="#ffffff" stroke-width="10.748"/>
</svg>
