<svg height="512" viewBox="0 0 512 512" width="512" xmlns="http://www.w3.org/2000/svg">
 <path d="m471.95 253.05c0 120.9-98.01 218.9-218.9 218.9-120.9 0-218.9-98.01-218.9-218.9 0-120.9 98.01-218.9 218.9-218.9 120.9 0 218.9 98.01 218.9 218.9" fill="#c82828" fill-rule="evenodd"/>
 <path d="m224.91 109.37c-29.609-1.208-56.39 25.703-54.755 55.37.169 26.596 22.604 50.33 49.07 52.34 17.47 3.046 24.292 29.08 9.684 39.668-11.79 11.21-18.3 26.723-20.803 42.554-4.123 14.244-23.388 19.11-34.37 9.551-20.702-12.98-51.05-.441-56.662 23.3-7.182 22.98 11.839 48.916 35.917 48.978 16.978.993 32.688-10.646 38.603-26.25 7.443-12.403 27.17-12.897 35.31-.887 22.997 25.888 65.717 29.742 92.98 8.407 27.813-19.926 36.598-61.29 18.796-90.65-7.71-8.868-6.902-22.473 1.148-30.774 6.491-10.964 22.2-7.837 29.12-18.473 12.637-14.197 4.313-39.505-14.422-43.23-18.201-5.314-37.36 12.875-32.972 31.32 1.153 11.765-7.739 23.893-18.77 27.459-11.664.003-25.1.185-35.33-6.165-10.901-8.863-11.533-26.918-.488-35.985 18.957-23.596 12.331-62.05-13.518-77.851-8.447-5.498-18.456-8.549-28.534-8.676m-1.758 17.596c23.351-1.316 42.578 23.747 35.506 45.937-5.353 22.2-33.77 33.742-53.09 21.563-20.227-10.842-24.297-41.569-7.184-57.1 6.539-6.448 15.584-10.258 24.77-10.397m124.81 62.711c13.03-.761 21.14 16.804 11.859 26.1-8.849 11.01-28.578 2.967-27.331-11.03.131-8.134 7.354-15.13 15.472-15.08m-69.871 67.38c28.25-.87 52.868 26.369 49.12 54.39-2.045 28.16-31.575 49.9-59.08 43.38-27.783-4.895-46.43-36.397-37.24-63.1 6.05-20.252 26.05-34.97 47.2-34.662m-124.59 61.55c17.353-1.452 30.903 19.05 22.498 34.379-7.274 16.694-33.368 17.681-41.927 1.628-9.431-14.823 1.89-35.712 19.43-36.01" fill="#ffffff" fill-rule="evenodd"/>
 <circle cx="256" stroke="#fefefe" cy="256" r="181.13" stroke-width="18.771" fill="none"/>
</svg>
