<svg height="512" viewBox="0 0 512 512" width="512" xmlns="http://www.w3.org/2000/svg">
 <path d="m471.95 253.05c0 120.9-98.01 218.9-218.9 218.9-120.9 0-218.9-98.01-218.9-218.9 0-120.9 98.01-218.9 218.9-218.9 120.9 0 218.9 98.01 218.9 218.9" fill="#68af4c" fill-rule="evenodd"/>
 <path d="m274.3 111.29c-26.806.974-27.04 44.718-27.04 44.718l8.736 100 90.98-42.43s57.25-33.414 7.404-62.19c-15.381-8.88-26.697-9.02-35.03-5.075-.75-9.185-6.541-18.908-21.922-27.788-9.345-5.395-16.943-7.463-23.13-7.238m-18.303 144.72l42.43 90.93s33.414 57.25 62.19 7.404c8.881-15.382 9.02-26.697 5.075-35.03 9.185-.751 18.907-6.541 27.788-21.922 28.775-49.84-37.48-50.13-37.48-50.13l-100 8.736-90.93 42.43s-57.25 33.372-7.404 62.15c15.381 8.88 26.696 9.06 35.03 5.117.75 9.185 6.541 18.908 21.922 27.788 49.841 28.776 50.13-37.522 50.13-37.522l-8.736-99.96-42.39-90.98s-33.414-57.25-62.19-7.405c-8.881 15.382-9.06 26.697-5.117 35.03-9.185.751-18.907 6.541-27.788 21.922-28.775 49.841 37.522 50.17 37.522 50.17l99.96-8.736" fill="#ffffff"/>
 <circle cx="256" stroke="#fefefe" cy="256" r="181.13" stroke-width="18.771" fill="none"/>
</svg>
