<?xml version="1.0" encoding="UTF-8" standalone="no"?>
<svg
   xmlns:dc="http://purl.org/dc/elements/1.1/"
   xmlns:cc="http://creativecommons.org/ns#"
   xmlns:rdf="http://www.w3.org/1999/02/22-rdf-syntax-ns#"
   xmlns:svg="http://www.w3.org/2000/svg"
   xmlns="http://www.w3.org/2000/svg"
   xmlns:sodipodi="http://sodipodi.sourceforge.net/DTD/sodipodi-0.dtd"
   xmlns:inkscape="http://www.inkscape.org/namespaces/inkscape"
   width="512"
   height="512"
   version="1.1"
   viewBox="0 0 512 512"
   id="svg12"
   sodipodi:docname="remmina.svg"
   inkscape:version="0.92.4 5da689c313, 2019-01-14">
  <metadata
     id="metadata18">
    <rdf:RDF>
      <cc:Work
         rdf:about="">
        <dc:format>image/svg+xml</dc:format>
        <dc:type
           rdf:resource="http://purl.org/dc/dcmitype/StillImage" />
        <dc:title></dc:title>
      </cc:Work>
    </rdf:RDF>
  </metadata>
  <defs
     id="defs16" />
  <sodipodi:namedview
     pagecolor="#ffffff"
     bordercolor="#666666"
     borderopacity="1"
     objecttolerance="10"
     gridtolerance="10"
     guidetolerance="10"
     inkscape:pageopacity="0"
     inkscape:pageshadow="2"
     inkscape:window-width="1920"
     inkscape:window-height="1021"
     id="namedview14"
     showgrid="false"
     inkscape:zoom="0.4609375"
     inkscape:cx="256"
     inkscape:cy="256"
     inkscape:window-x="0"
     inkscape:window-y="0"
     inkscape:window-maximized="1"
     inkscape:current-layer="svg12" />
  <path
     d="m471.95 253.05c0 120.9-98.01 218.9-218.9 218.9-120.9 0-218.9-98.01-218.9-218.9 0-120.9 98.01-218.9 218.9-218.9 120.9 0 218.9 98.01 218.9 218.9"
     fill="#6ac5cf"
     fill-rule="evenodd"
     id="path2" />
  <g
     transform="matrix(0.87986167,0,0,0.87986167,33.094053,30.325273)"
     id="g8"
     style="fill:#ffffff;stroke-width:10.83500004">
    <path
       d="m 256,91.306 c -89.76,-0.03251 -162.58,72.765 -162.53,162.53 0.02163,30.024 8.4589,59.44 24.23,84.988 l 25.522,-17.036 c -12.69,-20.435 -19.459,-43.953 -19.469,-67.952 -0.0325,-71.803 58.702,-130.05 131.13,-130.02 41.717,0.0216 80.917,19.798 105.58,53.159 l 27.214,-18.157 C 357.169,116.482 308.189,91.333 256.007,91.31 Z m 75.845,119.19 -97.515,65.01 97.515,65.01 v -43.34 l -32.505,-21.67 32.505,-21.67 z"
       style="paint-order:normal"
       id="path4"
       inkscape:connector-curvature="0" />
    <path
       d="m 180.16,167.15 v 43.34 l 32.505,21.67 -32.505,21.67 v 43.34 l 97.515,-65.01 z m 214.14,1.693 -27.13,18.093 c 12.287,20.19 18.843,43.313 18.855,66.893 0.0434,71.81 -58.715,130.05 -131.15,130.02 -41.275,-0.0216 -80.115,-19.373 -104.84,-52.143 l -25.711,17.141 c 30.508,42.336 79.488,67.485 131.67,67.508 89.76,0.0325 162.58,-72.765 162.53,-162.53 -0.0216,-30.024 -8.4589,-59.44 -24.23,-84.988 z"
       style="paint-order:normal"
       id="path6"
       inkscape:connector-curvature="0" />
  </g>
  <circle
     cx="256"
     cy="256"
     r="181.13"
     id="circle10"
     stroke-width="18.771"
     stroke="#fefefe"
     fill="none" />
</svg>
