<svg height="512" viewBox="0 0 512 512" width="512" xmlns="http://www.w3.org/2000/svg">
 <path d="m471.95 253.05c0 120.9-98.006 218.91-218.91 218.91s-218.91-98.006-218.91-218.91 98.006-218.91 218.91-218.91 218.91 98.006 218.91 218.91" fill="#4e7db5" fill-rule="evenodd"/>
 <path d="m328.38458 76.116525l-1.3438 2.1562c-1.912 3.0361-3.521 6.2005-4.7812 9-23.081 51.270005-58.43 91.284005-81.312 137.910005-12.072 24.595-19.335 47.679-21.812 65.344-2.5118 3.1711-3.6407 7.0733-3.0938 10.906-5.5587 9.7112-21.607 37.761-30.312 55.719-10.55 21.72-23.55 72.84-23.55 72.84l3.9375 1.9062c20.31-27.06 67.15-62.41 67.15-62.41l1.5625-1.1875-.96875-1.6875c0 0-.46106-.7376-.96875-3.0938-.50769-2.3562-.95659-6.1515-.5625-11.656.85075-11.883 7.8776-26.699 12.938-35.781 1.9911-1.5817 3.8906-3.3454 5.9375-5.3125l.375-.15625.28125-.28125c.62141-.60233.82946-.98555.8125-.96875 13.106-12.982 28.226-34.024 40.5-59.031 22.27-45.35 35.1-95.05 60.73-147.34l.65625-1.3125.0848-6.548729c-7.18-8.153005-16.02475-10.333276-24.30475-17.355276l-1.97-1.656z" fill="#ffffff"/>
 <circle cx="256" stroke="#fefefe" cy="256" r="181.13" stroke-width="18.771" fill="none"/>
</svg>
