<?xml version="1.0" encoding="UTF-8"?>
<svg width="512" height="512" version="1.1" viewBox="0 0 512 512" xmlns="http://www.w3.org/2000/svg">
 <path d="m471.95 253.05c0 120.9-98.01 218.9-218.9 218.9-120.9 0-218.9-98.01-218.9-218.9 0-120.9 98.01-218.9 218.9-218.9 120.9 0 218.9 98.01 218.9 218.9" fill="#1793d1" fill-rule="evenodd" style="fill:#49839f"/>
 <path d="m286.62 105.26c-120.16 72.095-72.095 132.17-60.079 144.19-6.9082-27.175 1.5716-65.383 36.047-84.111 10.559-5.7355 24.032-48.063 24.032-60.079zm-112.51 16.733c-33.986 135.95 42.476 144.44 59.469 144.44-24.1-14.33-45.118-47.335-33.982-84.955 3.4104-11.522-16.99-50.996-25.487-59.493zm140.1 42.407c-75.021 1.186-80.637 54.251-80.637 68.059 14.33-24.1 47.335-45.118 84.955-33.982 11.522 3.4104 50.996-16.99 59.493-25.487-25.489-6.3723-46.498-8.8632-63.81-8.5894zm-14.081 41.492c-25.534-1.502-43.557 13.518-49.565 19.526 27.175-6.9082 65.383 1.5716 84.111 36.047 5.7355 10.559 48.063 24.032 60.079 24.032-36.047-60.079-69.091-78.103-94.624-79.605zm-193.75 7.5099c72.095 120.16 132.17 72.095 144.19 60.079-27.175 6.9082-65.383-1.5716-84.111-36.047-5.7355-10.559-48.063-24.032-60.079-24.032zm161.18 19.056c24.1 14.33 45.118 47.335 33.982 84.955-3.4104 11.522 16.99 50.996 25.487 59.493 33.986-135.95-42.476-144.44-59.469-144.44zm7.0405 16.992c6.9082 27.175-1.5716 65.383-36.047 84.111-10.559 5.7355-24.032 48.063-24.032 60.079 120.16-72.095 72.095-132.17 60.079-144.19zm-7.0405 16.992c-14.33 24.1-47.335 45.118-84.955 33.982-11.522-3.4104-50.996 16.99-59.493 25.487 135.95 33.986 144.44-42.476 144.44-59.469z" style="fill:#ffffff;stroke-width:12.016"/>
<circle cx="256" stroke="#fefefe" cy="256" r="181.13" stroke-width="18.771" fill="none" /></svg>
