<?xml version="1.0" encoding="UTF-8" standalone="no"?>
<svg xmlns="http://www.w3.org/2000/svg" height="512" viewBox="0 0 512 512" width="512" version="1.1">
 <path d="m471.95 253.05c0 120.9-98.01 218.9-218.9 218.9-120.9 0-218.9-98.01-218.9-218.9 0-120.9 98.01-218.9 218.9-218.9 120.9 0 218.9 98.01 218.9 218.9" fill="#cd1d31" fill-rule="evenodd"/>
 <g>
  <path style="fill:#ffffff" d="m 258.97977,191.8438 c 0,7.82189 -2.91047,14.29509 -8.73142,19.43173 -5.76377,5.13577 -14.00664,8.36067 -24.739,9.67298 l 0,19.51749 -11.21745,0 0,-18.74483 c -6.50611,-0.11434 -12.75497,-0.65659 -18.74655,-1.62674 -5.93529,-1.02733 -10.84324,-2.4254 -14.72387,-4.1942 l 0,-14.38085 c 4.27995,1.99749 9.50148,3.73771 15.66111,5.22326 6.22027,1.42665 12.15295,2.19671 17.80498,2.31105 l 0,-36.64076 c -11.69905,-3.70911 -19.97484,-8.04624 -24.82476,-13.0105 -4.85079,-5.02229 -7.27618,-11.44179 -7.27618,-19.26455 0,-7.53257 2.88189,-13.72426 8.64566,-18.57591 5.76377,-4.85078 13.5822,-7.82189 23.45701,-8.90292 l 0,-15.411643 11.21398,0 0,15.236663 c 10.84237,0.28585 21.14337,2.45398 30.90211,6.50612 l -4.79362,12.06979 c -8.84575,-3.48217 -17.54858,-5.53509 -26.10762,-6.16309 l 0,36.12363 c 9.13074,3.08198 15.92184,5.99245 20.3733,8.73141 4.50863,2.73896 7.82189,5.87811 9.92938,9.41659 2.11183,3.48217 3.16688,7.70409 3.16688,12.66921 m -15.57969,1.11309 c 0,-4.10845 -1.3409,-7.36194 -4.02355,-9.75875 -2.68266,-2.45397 -7.30477,-4.8222 -13.86805,-7.10467 l 0,32.10181 c 11.92687,-1.82597 17.89073,-6.90544 17.89073,-15.23666 m -45.54021,-52.98618 c 0,4.16562 1.22655,7.53345 3.68053,10.1009 2.45398,2.56832 6.70534,4.93654 12.75497,7.10467 l 0,-31.92943 c -5.36445,0.91298 -9.44518,2.65407 -12.23957,5.22325 -2.79614,2.56832 -4.1942,5.73519 -4.1942,9.50148"/>
  <path style="fill:#ffffff;fill-opacity:0.43500001;fill-rule:evenodd" d="m 264.40225,97.25347 66.77627,0 0,143.21079 -66.77627,0 z"/>
  <path style="fill:#ffffff" d="m 258.97977,357.64539 c 0,7.8219 -2.91047,14.2951 -8.73142,19.43173 -5.76377,5.13577 -14.00664,8.36068 -24.739,9.67299 l 0,19.51748 -11.21745,0 0,-18.74482 c -6.50611,-0.11434 -12.75497,-0.65659 -18.74655,-1.62675 -5.93529,-1.02732 -10.84324,-2.42539 -14.72387,-4.19419 l 0,-14.38085 c 4.27995,1.99748 9.50148,3.7377 15.66111,5.22326 6.22027,1.42665 12.15295,2.19671 17.80498,2.31105 l 0,-36.64076 c -11.69905,-3.70912 -19.97484,-8.04624 -24.82476,-13.0105 -4.85079,-5.0223 -7.27618,-11.44179 -7.27618,-19.26455 0,-7.53258 2.88189,-13.72426 8.64566,-18.57591 5.76377,-4.85079 13.5822,-7.82189 23.45701,-8.90293 l 0,-15.40817 11.21398,0 0,15.23666 c 10.84237,0.28585 21.14337,2.45398 30.90211,6.50612 l -4.79362,12.0698 c -8.84575,-3.48218 -17.54858,-5.5351 -26.10762,-6.1631 l 0,36.12363 c 9.13074,3.08198 15.92184,5.99245 20.3733,8.73141 4.50863,2.73896 7.82189,5.87812 9.92938,9.41659 2.11183,3.48217 3.16688,7.70409 3.16688,12.66921 m -15.57969,1.11309 c 0,-4.10845 -1.3409,-7.36194 -4.02355,-9.75874 -2.68266,-2.45398 -7.30477,-4.82221 -13.86805,-7.10467 l 0,32.1018 c 11.92687,-1.82597 17.89073,-6.90544 17.89073,-15.23666 m -45.54021,-52.98618 c 0,4.16562 1.22655,7.53345 3.68053,10.1009 2.45398,2.56832 6.70534,4.93654 12.75497,7.10467 l 0,-31.92943 c -5.36445,0.91298 -9.44518,2.65407 -12.23957,5.22325 -2.79614,2.56832 -4.1942,5.73519 -4.1942,9.50148"/>
  <path style="fill:#ffffff;fill-opacity:0.43500001;fill-rule:evenodd" d="m 264.40225,263.05507 66.77627,0 0,143.21079 -66.77627,0 z"/>
 </g>
 <circle cx="256" stroke="#fefefe" cy="256" r="181.13" stroke-width="18.771" fill="none"/>
</svg>
