<svg height="512" viewBox="0 0 512 512" width="512" xmlns="http://www.w3.org/2000/svg">
 <path d="m471.95 253.05c0 120.9-98.01 218.9-218.9 218.9-120.9 0-218.9-98.01-218.9-218.9 0-120.9 98.01-218.9 218.9-218.9 120.9 0 218.9 98.01 218.9 218.9" fill="#0078ad" fill-rule="evenodd"/>
 <g fill="#ffffff" transform="matrix(9.4959 0 0 9.4959 105.14 104.24)">
  <path d="m17.268 4.883l-16.591 16.592c-.902.902-.902 2.367 0 3.272l6.543 6.54c.904.904 2.369.9 3.268 0l16.591-16.59z"/>
  <path d="m31.774 6.312l-6.31-6.312-5.111 5.115 6.309 6.311zm-2.731-.366l-1.054 1.049-1.283-1.283 1.051-1.053zm-4.292-2.192l1.051-1.049 1.283 1.283-1.053 1.049z"/>
 </g>
 <circle cx="256" stroke="#fefefe" cy="256" r="181.13" stroke-width="18.771" fill="none"/>
</svg>
