<svg height="512" viewBox="0 0 512 512" width="512" xmlns="http://www.w3.org/2000/svg">
 <path d="m471.95 253.05c0 120.9-98.01 218.9-218.9 218.9-120.9 0-218.9-98.01-218.9-218.9 0-120.9 98.01-218.9 218.9-218.9 120.9 0 218.9 98.01 218.9 218.9" fill="#f64747" fill-opacity=".996" fill-rule="evenodd"/>
 <path d="m112.16588 179.45868l117.98694 208.4545c0 0 6.38621 11.15894 22.46457 11.15894 16.06707 0 22.46456-11.15894 22.46456-11.15894 0 0 82.00527-125.60301 115.45953-192.60181 3.36236-6.72469 6.98421-13.52838 8.50743-20.9075 1.03804-5.00968 1.53449-10.38042.33849-15.35624-1.45551-6.07029-4.265-12.27597-8.84592-16.50711-5.29175-4.88557-12.63703-7.88686-19.79049-8.63154-7.69503-.81238-15.89782 1.03804-22.79177 4.63733-4.84043 2.54998-9.13928 6.62316-11.84722 11.39589-2.68536 4.7276-3.37362 10.4594-3.67826 15.88654-.2031 3.7347.53029 7.49196 1.29755 11.14767.25951 1.25242.68826 2.47099 1.11702 3.66699 1.09445 3.05772 2.58382 5.95746 3.70084 9.00388.92521 2.50484 2.21148 4.96455 2.50484 7.62735.47388 4.28756.36106 8.86848-1.21857 12.87396-7.70633 19.49713-20.95264 38.24957-38.46395 49.70188-7.255 4.73888-16.54095 5.9236-25.19506 6.29594-9.87268.41748-21.246-.36106-29.25698-4.71632-8.01097-4.35526-11.77951-11.91491-16.80047-18.58319-23.04-30.57709-60.70285-97.55332-60.70285-97.55332 0 0-16.37171-28.94105-45.83178-11.39589-29.448783 17.55644-11.4523 45.58355-11.4523 45.58355z" fill="#ffffff" fill-rule="evenodd"/>
 <circle cx="256" stroke="#fefefe" cy="256" r="181.13" stroke-width="18.771" fill="none"/>
</svg>
