<svg width="512" height="512" version="1.1" viewBox="0 0 512 512" xmlns="http://www.w3.org/2000/svg">
 <path d="m471.95 253.05c0 120.9-98.01 218.9-218.9 218.9-120.9 0-218.9-98.01-218.9-218.9 0-120.9 98.01-218.9 218.9-218.9 120.9 0 218.9 98.01 218.9 218.9" fill="#ff8646" fill-rule="evenodd"/>
 <path d="m183.27 143.72a22.879 22.879 0 1 0 0 45.756h127.88s9.9012 0.32228 18.605 3.9487c8.7035 3.6264 13.326 5.1612 13.326 18.846 0 13.685-4.622 15.219-13.326 18.845-8.7035 3.6264-18.605 3.95-18.605 3.95h-127.88a22.879 22.879 0 0 0-22.878 22.876v91.343a22.879 22.879 0 1 0 45.756 0v-68.468h105s17.503 0.32383 36.203-7.4679c18.7-7.7916 41.481-29.095 41.481-61.081 0-31.987-22.781-53.29-41.481-61.081-18.7-7.7917-36.203-7.4692-36.203-7.4692z" color="#000000" color-rendering="auto" dominant-baseline="auto" fill="#ffffff" image-rendering="auto" shape-rendering="auto" solid-color="#000000" stroke-width=".80217" style="font-feature-settings:normal;font-variant-alternates:normal;font-variant-caps:normal;font-variant-ligatures:normal;font-variant-numeric:normal;font-variant-position:normal;isolation:auto;mix-blend-mode:normal;shape-padding:0;text-decoration-color:#000000;text-decoration-line:none;text-decoration-style:solid;text-indent:0;text-orientation:mixed;text-transform:none;white-space:normal"/>
 <circle cx="256" cy="256" r="181.13" fill="none" stroke="#fefefe" stroke-width="18.771"/>
</svg>
