<?xml version="1.0" encoding="UTF-8"?>
<svg width="512" height="512" version="1.1" viewBox="0 0 512 512" xmlns="http://www.w3.org/2000/svg" xmlns:cc="http://creativecommons.org/ns#" xmlns:dc="http://purl.org/dc/elements/1.1/" xmlns:rdf="http://www.w3.org/1999/02/22-rdf-syntax-ns#">
 <metadata>
  <rdf:RDF>
   <cc:Work rdf:about="">
    <dc:format>image/svg+xml</dc:format>
    <dc:type rdf:resource="http://purl.org/dc/dcmitype/StillImage"/>
    <dc:title/>
   </cc:Work>
  </rdf:RDF>
 </metadata>
 <path d="m471.95 253.05c0 120.9-98.01 218.9-218.9 218.9-120.9 0-218.9-98.01-218.9-218.9 0-120.9 98.01-218.9 218.9-218.9 120.9 0 218.9 98.01 218.9 218.9" fill="#c12727" fill-rule="evenodd"/>
 <path d="m252.2 100.6c-3.9602 4.0506-11.36 12.947-15.721 19.152-22.298 31.718-35.425 61.113-40.413 90.408-3.1584 18.527-2.8924 33.851 0.88838 52.651 0.96065 4.7784 1.8236 9.1684 1.9254 9.7459 0.0986 0.58102-2.4458 3.7977-5.6374 7.167-6.4946 6.8539-6.6461 7.2838-8.908 24.201-2.5664 19.227-0.80746 44.119 4.6729 65.89 3.4887 13.85 5.8824 13.598 15.722-1.7018 3.1759-4.9386 6.6953-10.421 7.8288-12.189 7.6268-11.887 12.083-18.235 12.801-18.23 0.45823 3e-3 1.9367 2.3146 3.2652 5.1456 1.7826 3.7999 3.0925 5.4806 5.0459 6.3784 1.4556 0.66975 10.809 1.2876 20.787 1.3846l18.156 0.19637 3.3401-4.1921c1.8348-2.3073 4.1277-5.4166 5.0721-6.8879 1.3259-2.0663 1.8286-2.3496 2.3351-1.2339 2.2619 4.982 26.063 41.51 27.453 42.137 0.93657 0.42306 2.2709 0.18655 2.9666-0.50147 0.69562-0.68801 2.7606-8.3278 4.586-16.982 5.8818-27.887 6.6013-47.367 2.5481-68.907-1.6928-8.9794-1.8277-9.2327-7.539-15.049l-5.8246-5.9366 2.7476-12.028c6.3479-27.699 3.4949-54.848-9.3006-88.211-6.22-16.224-12.931-29.097-25.093-48.124-5.0769-7.9427-19.821-26.427-21.096-26.438-0.31999-0.0017-1.2792 0.79936-2.5993 2.1496m-10.847 77.917c5.6112-5.5397 11.113-7.1338 17.88-5.1926 10.86 3.1098 15.612 14.63 10.817 26.122-1.6512 3.9589-2.6504 5.1586-6.7006 7.8902-1.1877 0.80179-5.7915 1.4268-10.217 1.4024-7.7053-0.0423-8.212-0.20831-12.021-4.0647-4.6882-4.74-6.0772-9.354-5.0601-16.611 0.59281-4.2246 1.3932-5.6896 5.2979-9.544m-9.2635 183.45c-2.7384 2.655-6.0108 10.951-6.0451 17.068-0.0403 7.3341 3.2537 13.407 13.296 24.654 11.256 12.607 14.54 13.612 20.666 6.2767 1.3194-1.5799 5.3707-6.1471 8.9938-10.112 9.0526-9.907 11.237-17.368 8.0549-27.477-1.6059-5.1013-8.4542-14.012-10.417-13.559-2.3838 0.54882-3.4444 5.1293-2.6013 11.135 0.98852 7.0448-0.86963 12.095-7.2828 19.742l-4.4991 5.3384-4.6262-5.7649c-3.4174-4.2312-5.6382-8.541-8.4281-16.32-2.082-5.8156-4.2002-10.964-4.6884-11.457-0.65365-0.66087-1.5127-0.40447-2.4257 0.48075" fill="#ffffff" fill-rule="evenodd" stroke-width=".90508"/>
 <circle cx="256" cy="256" r="181.13" fill="none" stroke="#fefefe" stroke-width="18.771"/>
</svg>
