<svg xmlns="http://www.w3.org/2000/svg" height="512" width="512">
 <path d="M471.95 253.05c0 120.9-98.01 218.9-218.9 218.9-120.9 0-218.9-98.01-218.9-218.9 0-120.9 98.01-218.9 218.9-218.9 120.9 0 218.9 98.01 218.9 218.9" fill="#149cdf" fill-rule="evenodd"/>
 <path d="M122.077 293.852c-5.55-13.827-3.56-44.832-3.604-67.085-.042-22.472.136-67.42.136-67.42l89.386-1.303c96.06-1.4 112.725-.75 121.2 28.31l5.376 18.428s17.503-11.725 31.346-22.442c72.584-56.192 70.258 164.434 3.122 117.48l-34.297-22.464-1.62 22.455-1.624 22.456-90.936 1.44s-76.116 1.613-89.867-2.837c-13.75-4.45-24.376-17.06-28.62-27.017zm201.54-40.145c0-57.415-.695-61.37-12.9-73.577-12.624-12.625-14.703-12.9-97.227-12.9h-84.326v60.677c0 57.415.694 61.37 12.9 73.576 12.623 12.623 14.7 12.9 97.225 12.9h84.325zm69.946-67.554c-3.735-5.146-11.565-5.316-21.515 1.95-11.718 8.56-35.14 25.7-35.14 25.7-.136 20.93.054 35.03.568 54.007 0 0 23.86 17.353 33.062 23.62 7.18 4.894 8.498 7.866 22.136 4.966 13.637-2.9 16.308-90.197.89-110.243z" fill="#fff"/>
 <circle cx="256" stroke="#fefefe" cy="256" r="181.13" stroke-width="18.771" fill="none"/>
</svg>
