<?xml version="1.0" encoding="UTF-8" standalone="no"?>
<svg
   xmlns:dc="http://purl.org/dc/elements/1.1/"
   xmlns:cc="http://creativecommons.org/ns#"
   xmlns:rdf="http://www.w3.org/1999/02/22-rdf-syntax-ns#"
   xmlns:svg="http://www.w3.org/2000/svg"
   xmlns="http://www.w3.org/2000/svg"
   xmlns:sodipodi="http://sodipodi.sourceforge.net/DTD/sodipodi-0.dtd"
   xmlns:inkscape="http://www.inkscape.org/namespaces/inkscape"
   height="512"
   viewBox="0 0 512 512"
   width="512"
   id="svg2"
   version="1.1"
   inkscape:version="0.91 r13725"
   sodipodi:docname="favorites.svg">
  <metadata
     id="metadata37">
    <rdf:RDF>
      <cc:Work
         rdf:about="">
        <dc:format>image/svg+xml</dc:format>
        <dc:type
           rdf:resource="http://purl.org/dc/dcmitype/StillImage" />
      </cc:Work>
    </rdf:RDF>
  </metadata>
  <defs
     id="defs35" />
  <sodipodi:namedview
     pagecolor="#ffffff"
     bordercolor="#666666"
     borderopacity="1"
     objecttolerance="10"
     gridtolerance="10"
     guidetolerance="10"
     inkscape:pageopacity="0"
     inkscape:pageshadow="2"
     inkscape:window-width="1920"
     inkscape:window-height="1022"
     id="namedview33"
     showgrid="false"
     inkscape:zoom="0.4609375"
     inkscape:cx="-397.01695"
     inkscape:cy="256"
     inkscape:window-x="0"
     inkscape:window-y="0"
     inkscape:window-maximized="1"
     inkscape:current-layer="svg2" />
  <linearGradient
     id="a"
     gradientTransform="translate(2.96002 2.94999)"
     gradientUnits="userSpaceOnUse"
     x2="0"
     y1="33.753"
     y2="471.66">
    <stop
       offset="0"
       stop-color="#6a6a6a"
       id="stop5" />
    <stop
       offset=".47"
       id="stop7" />
    <stop
       offset=".494"
       stop-color="#ffffff"
       id="stop9" />
    <stop
       offset=".901"
       stop-color="#ffffff"
       id="stop11" />
    <stop
       offset=".955"
       id="stop13" />
    <stop
       offset="1"
       id="stop15" />
  </linearGradient>
  <path
     d="m484.67269 256c0 126.29177-102.38094 228.67271-228.67271 228.67271-126.29173 0-228.67267-102.38094-228.67267-228.67271 0-126.29177 102.38094-228.67272 228.67267-228.67272 126.29177 0 228.67271 102.38095 228.67271 228.67272"
     fill="#336699"
     fill-rule="evenodd"
     id="path17"
     style="fill:#e23c2c;fill-opacity:1" />
  <path
     d="m192.97998 138.32c-44.691 0-81.02996 36.37-81.02996 81.06 0 19.677 3.181 49.02 30.78896 76.63 24.698 24.743 104.35 78.69 107.75 80.969 2.563 1.734 5.534 2.593 8.474 2.593 2.94 0 5.88-.859 8.444-2.593 3.362-2.277 83-56.23 107.75-80.969 27.608-27.608 30.819-56.949 30.819-76.63 0-44.691-36.37-81.06-81.06-81.06-27.17 0-51.22 13.434-65.951 34.02-14.731-20.581-38.811-34.02-65.981-34.02"
     fill="#ffffff"
     id="path23" />
</svg>
