<svg viewBox="0 0 64 64" xmlns="http://www.w3.org/2000/svg">
 <radialGradient id="a" cx="32.5" cy="56.5" gradientTransform="matrix(1.1343284 0 0 .11940298 45.134328 1064.6159)" gradientUnits="userSpaceOnUse" r="33.5">
  <stop offset="0"/>
  <stop offset="1" stop-opacity="0"/>
 </radialGradient>
 <g transform="translate(0 -988.3622)">
  <g transform="translate(-50 -24.999983)">
   <rect fill="#eae7d1" height="38" rx="2" width="50" x="57" y="1013.36"/>
   <ellipse cx="82" cy="1071.36" fill="url(#a)" opacity=".6" rx="38" ry="4"/>
   <path d="m62 1036.36h40v2h-40z" fill="#7a7a68"/>
   <path d="m114 1038.54v34.823h-64v-32h30l3-6 27.952.118c1.524 0 3.048 1.53 3.048 3.059z" fill="#ffa726"/>
   <path d="m50 1071.36v2h64v-2z" opacity=".15"/>
   <path d="m83 1035.36l-3 6h-30v2h31l3-6 26.938.125c1.524 0 3.063 1.533 3.063 3.063v-2c0 0-1.539-3.063-3.063-3.063z" opacity=".03"/>
   <path d="m62 1031.36h40v2h-40z" fill="#7a7a68"/>
   <path d="m62 1016.36h40v2h-40z" fill="#7a7a68"/>
   <path d="m62 1021.36h40v2h-40z" fill="#7a7a68"/>
   <path d="m62 1026.36h40v2h-40z" fill="#7a7a68"/>
  </g>
  <path d="m59.998 1028.36c.088 4.257-2.18 8.23-5.927 10.386-3.75 2.153-8.394 2.153-12.141 0-3.747-2.156-6.01-6.129-5.927-10.386-.088-4.257 2.18-8.23 5.927-10.383 3.747-2.156 8.391-2.156 12.141 0 3.747 2.153 6.01 6.126 5.927 10.383z" fill="#4caf50" fill-rule="evenodd"/>
  <path d="m54.56 1020.82c-.255.091-.469.261-.615.486l-6.539 6.331-4.081-3.897c-.164-.542-.677-.899-1.245-.87-.568.029-1.043.442-1.146.999-.1.554.196 1.105.718 1.33l4.916 4.872c.472.431 1.201.431 1.673 0l7.377-7.307c.287-.378.328-.891.1-1.307-.229-.419-.68-.668-1.157-.639z" fill="#ffffff"/>
 </g>
</svg>
