<svg viewBox="0 0 512 512" xmlns="http://www.w3.org/2000/svg">
 <path d="m140.40855 91.46528l.0276.0552c-6.0662 0-11.25579 1.49912-15.4096 4.50138-3.45464 2.48817-5.65306 13.968-6.43447 17.97786h-9.66552c-12.52311 0-22.47923 10.18936-22.47923 22.50685v42.41782h-8.36758c-15.17579 0-28.35835 10.22819-26.9806 23.14202l37.91645 115.65483-11.57101 80.33427c1.31606 12.21467 12.43997 22.47924 27.61577 22.47924h213.35942v-.63516-39.84956h-39.84955-20.57375v-20.54613-61.05846-20.57375h20.57375 39.84955v-39.84955-20.57375h20.54613 61.05847 20.57374v20.57375 39.84955h9.00274l23.77718-75.8329c.86366-6.47748-1.86709-12.57429-7.06964-16.70754-5.20253-4.13325-12.35069-6.43447-19.93858-6.43447h-7.06964v-42.44544c0-12.29692-9.98374-22.47924-22.50685-22.47924h-200.49048c-.76084-4.00986-2.95925-15.5173-6.43447-18.00548-4.1538-2.98169-9.99913-4.50137-16.04476-4.50137h-33.41508zm-19.93858 48.21713h264.75236c0 9.45917-.0617 23.2707 0 39.18678h-264.75236c-.0206-15.66932 0-34.18987 0-39.18678zm218.71688 98.56068v60.39569h-60.39569l-.359 60.80992 60.75469-.0276v60.45092l61.307.41424-.13807-60.86516 60.64422.11047-.33139-60.92039h-60.50614l-.11047-60.36807h-60.86515z" fill="#ffedb5" fill-rule="evenodd"/>
</svg>
