<svg viewBox="0 0 512 512" xmlns="http://www.w3.org/2000/svg">
 <path d="m256.71141 98.249147c-.93034.01-1.85823.0275-2.78791.0593-59.48798 2.036093-117.83665 49.900273-139.42493 134.590583-.0595.21765.0544.48909 0 .71181-6.04497 4.15695-10.35084 10.70651-10.35084 18.62558v138.74278c0 12.79352 9.98552 22.77777 22.77778 22.77777 12.79351 0 23.45993-9.98552 23.45993-22.77777v-138.74278c0-7.2813-3.75145-13.71689-8.98655-17.94343 21.07704-55.56512 68.7533-94.62981 120.1172-93.18722 48.26357 1.28568 86.24077 43.87483 102.85591 87.64106l3.44038 7.5926c-3.79124 4.11265-5.51649 9.83684-5.51649 15.89699v138.74278c0 12.79352 9.98552 22.77777 22.77779 22.77777 12.79351 0 23.45992-9.98552 23.45992-22.77777v-138.74278c0-6.6043-3.17876-12.3817-7.59259-16.57914-.0595-.21765.0595-.46449 0-.68216-26.04177-93.6487-85.61935-137.327133-144.2296-136.725973zm-157.39803 131.209493c-26.83982.69219-48.31381 41.72906-48.31381 92.47541 0 50.75648 21.47779 91.12187 48.31381 91.82292zm313.37242 0v184.29833c26.83981-.69725 48.3138-41.06769 48.3138-91.82292 0-50.74383-21.47777-91.77942-48.3138-92.47541z" fill="#ffedb5"/>
</svg>
