<svg viewBox="0 0 512 512" xmlns="http://www.w3.org/2000/svg">
 <path d="m187.22573 47.23438v.0312c-4.72394.0233-10.50556 1.48945-18.90625 4.375-22.59576 7.74912-24.34906 10.45135-24 29.8125.32579 17.63912-2.54437 22.71251-19.625 37.09375-15.49823 13.07807-20.1579 14.81571-31.28125 10.90624-13.49696-4.74719-26.36594 2.54971-34.90625 20.375-9.63403 20.08253-8.65918 25.52298 5.09375 38.53125 12.33342 11.65857 13.83571 17.98336 11.625 40.71875-1.67548 17.22026-3.71312 21.30079-16 30.5625-13.96237 10.54158-15.35351 16.357-8 37.8125 7.35351 21.43223 11.72853 24.58441 28.34375 23.28125 17.45295-1.37297 21.69124.84555 36.375 17.4375 16.01018 18.10453 15.02785 16.73719 12.375 33.46875-3.25788 20.52468-.60244 24.22504 21.0625 34.90625 21.64166 10.65794 25.76102 9.86926 39.28125-5.09375 11.05354-12.24034 14.03785-12.86631 35.65625-11.65625 19.26807 1.09373 28.57388 4.60262 31.25 12.375 2.02454 5.93401 7.36924 11.62514 15.28125 16 3.35097 1.83838 7.22956 1.5824 13.09375 0-2.00127-1.74529-3.73877-3.30191-6.53125-5.09375l-18.1875-10.90625 14.5625-16c8.49377-8.8661 14.24943-15.13923 17.4375-24.75v-2.1875l1.46875-.71875c12.5894-22.71212 31.0307-45.36797 58.1875-55.28125.41887-1.67548 1.18686-3.37173 2.1875-5.09375 5.11953-8.88938 13.85653-9.27461 18.90625-9.4375 5.02645-.16289 8.71888.25869 13.09375 1.46875 2.81575-6.37615 5.07325-12.79142 8.75-19.65625-5.28243-6.58558-6.04785-13.54363-5.09375-28.34375 1.37297-21.29261 4.33357-26.36593 20.34375-34.90625 11.89129-6.3296 12.44462-11.52457 5.8125-33.46875-7.91201-26.17944-11.19872-29.1662-31.28125-28.375-18.08127.7214-20.91797-.72921-35.625-17.43749-13.86928-15.77748-16.28182-21.76094-13.09375-31.99999 4.84029-15.4517-.54832-26.64519-16-34.90625-22.73539-12.14726-28.59482-11.61725-42.90625 3.625-10.70448 11.40259-15.20647 13.13495-27.65625 12.34375-25.78384-1.65222-32.90234-2.48217-35.625-6.53125-11.26298-16.75484-16.46303-23.28125-25.46875-23.28125zm44.71875 123.62499c9.00566.0622 18.42387 2.09018 27.28125 6.5625 39.14116 19.80329 46.5104 69.8207 15.28125 100.375-39.32734 38.46632-105.44278 8.63539-104-46.5625.90755-34.95245 28.48893-59.64562 59.625-60.34375.59631-.0131 1.21212-.0354 1.8125-.0312zm228.15625 45c-9.15175.69992-28.79651 23.20558-46.59375 54.03125-8.82781 15.29019-15.6286 29.94081-19.78125 41.84375-13.04806-6.03005-23.67602-8.08387-25.78125-4.4375-1.10448 1.91301.32739 5.10172 3.625 8.875-1.09943-.36318-3.9375-1.3125-3.9375-1.3125l-.28125.1875c-28.4457 4.63696-45.8316 26.43048-59.71875 51.46875-4.30466 12.9538-11.80999 22.35017-20.96875 31.90625 9.47555 6.08353 16.98844 11.94395 19.6875 17.21875l8.90625-12.75-.53125 19.15625c8.65797-.35782 10.6512 5.19365 15.53125 8.1875l11.78125-19.71875-2.59375 25.40625c9.03569 2.55394 17.67917 6.07522 24.375 14.46875l12.78125-21.46875-4.375 25.15625c13.45783 3.63018 23.31817 2.36395 34.71875 10.6875-.332-9.45866-.28508-23.62295 7.5-35.65625 17.118-26.46672 25.26199-62.28026 10.75-83.4375 3.11396.22654 5.2938-.34158 6.125-1.78125 2.11255-3.65902-5.02424-11.90447-16.84375-20.21875 8.22674-9.54592 17.49218-22.75403 26.3125-38.03125 19.63833-34.01454 29.36864-64.9187 21.8125-69.28125-.70839-.40899-1.55327-.57241-2.5-.5z" fill="#ffedb5" fill-opacity=".969"/>
</svg>
