<svg viewBox="0 0 512 512" xmlns="http://www.w3.org/2000/svg">
 <path d="m293.02684 27.321686c-114.91753-.000043-207.565718 92.145334-207.565718 205.456274 0 9.78991.17154 19.06922 1.514403 28.49326.0856.13677-.120624.5642-.03087.7009 6.53079 49.80052 22.972045 98.16168-5.161333 133.01938l-43.639491 43.05989-1.267142 1.24943c-11.233926 12.37087-10.792554 31.29067 1.267142 43.18178l3.863276 3.80926c12.059697 11.8911 31.216843 12.29583 43.763106 1.21896l.03087.0305 1.267152-1.24945 43.639485-43.02941c36.79265-27.7977 85.4391-10.51075 139.35584-5.85102 7.49716.8108 15.24867.0303 22.96328.0303 3.89128 0 7.28656.16781 11.12622-.0303 109.53517-5.93157 196.43949-95.88681 196.4395-205.36488-.00001-56.66205-23.10308-106.89794-60.76149-144.020507-37.65291-37.132029-89.34277-60.643426-146.80423-60.643426v-.06097zm0 54.853347c42.2293 0 80.59162 16.567781 108.26425 43.852197 27.67127 27.27906 44.44306 65.11179 44.44306 106.75073 0 83.26445-68.26233 150.57245-152.70731 150.57245-84.445-.00001-152.7073-68.04075-152.7073-151.30383-.00002-83.26444 68.2623-149.871547 152.7073-149.871547zm11.89888 49.459437c-1.80734.29701-3.92555.89148-5.13044 1.18849-27.71261 6.23728-32.23215 7.12364-45.18478 8.01469-20.78446 1.18806-20.76155 1.18849-21.66521 1.18849-1.20492 0-2.7128-.007-4.82137-.30475v23.16031l4.20323.30474c33.73711 1.78206 34.33674 2.08697 34.33674 21.39282v100.07688c0 17.82077-3.00811 20.19746-30.72072 22.27655l-7.81925.60949v24.34878h129.80584v-24.34878l-6.92297-.60949c-.60245 0-3.60169-.282-6.61393-.57901-21.08568-1.48506-25.00307-4.7678-25.00307-21.69754v-155.02167z" fill="#ffedb5"/>
</svg>
