<svg height="512" viewBox="0 0 135.47 135.47" width="512" xmlns="http://www.w3.org/2000/svg">
 <g transform="translate(0 -161.53335)">
  <path d="m124.88333 228.48775c0 31.98812-25.931809 57.91994-57.919935 57.91994-31.988126 0-57.9199391-25.93182-57.9199391-57.91994 0-31.98813 25.9318131-57.91994 57.9199391-57.91994 31.988126 0 57.919935 25.93181 57.919935 57.91994" fill="#C93648" fill-rule="evenodd"/>
  <path d="m67.733332 161.79793c-37.261271 0-67.46875133 30.20748-67.46875133 67.46875 0 37.26127 30.20748033 67.46875 67.46875133 67.46875 37.261268 0 67.468748-30.20748 67.468748-67.46875 0-37.26127-30.20748-67.46875-67.468748-67.46875m2.335478 11.88799c31.98813 0 57.91729 25.92917 57.91729 57.9173 0 31.98812-25.92916 57.91729-57.91729 57.91729-31.988126 0-57.925231-25.92917-57.925231-57.91729 0-31.98813 25.937105-57.9173 57.925231-57.9173" fill-opacity=".067" fill-rule="evenodd"/>
  <g fill-opacity=".129" fill-rule="evenodd" transform="matrix(.26458334 0 0 .26458334 -753.77148 173.35387)">
   <path d="m3104.9-40.25c-138.94 0-251.57 112.63-251.57 251.57 0 138.94 112.63 251.57 251.57 251.57 138.94 0 251.57-112.63 251.57-251.57 0-138.94-112.63-251.57-251.57-251.57m5.885 38.556c120.9 0 218.9 98 218.9 218.9 0 120.9-98 218.9-218.9 218.9-120.9 0-218.93-98-218.93-218.9 0-120.9 98.03-218.9 218.93-218.9"/>
   <path d="m3104.9-36.32c-136.77 0-247.64 110.87-247.64 247.64 0 136.77 110.87 247.64 247.64 247.64 136.77 0 247.64-110.87 247.64-247.64 0-136.77-110.87-247.64-247.64-247.64m2.942 31.691c120.9 0 218.9 98 218.9 218.9 0 120.9-98 218.9-218.9 218.9-120.9 0-218.93-98-218.93-218.9 0-120.9 98.03-218.9 218.93-218.9"/>
  </g>
  <path d="m66.966041 163.61297c-35.829876 0-64.8731895 29.04596-64.8731895 64.87319 0 35.82987 29.0459595 64.87319 64.8731895 64.87319 35.829879 0 64.873189-29.04596 64.873189-64.87319 0-35.82988-29.04596-64.87319-64.873189-64.87319zm0 6.95775c31.988125 0 57.917289 25.92917 57.917289 57.91729 0 31.98813-25.929164 57.91729-57.917289 57.91729-31.988126 0-57.9252309-25.92916-57.9252309-57.91729 0-31.98812 25.9371049-57.91729 57.9252309-57.91729z" fill="#ffffff" fill-rule="evenodd" stroke="#000000" stroke-opacity=".31" stroke-width="1.298"/>
  <path d="m39.131873 193.54687c-7.818702 0-14.239346 7.68615-14.239346 17.04446v37.35123l17.047105 17.0471h-.0026l-17.044459-17.04445c0 5.23187 2.006865 9.94092 5.142706 13.0757l24.087668 24.08767c4.132262.93345 8.430683 1.42875 12.845256 1.42875 32.056918 0 58.044293-25.98208 58.044293-58.04165 0-4.41669-.49556-8.71749-1.42981-12.85187l-18.1266-18.1266c.007.007.0127.0135.019.0201l-.0201-.0201c-2.47333-2.47333-5.648326-3.96769-9.095582-3.96822v-.00053h-57.224085" opacity=".25"/>
  <path d="m147.90039 120.99609c-29.551 0-53.820312 29.04993-53.820312 64.41993v141.16992c0 35.36999 24.269312 64.41992 53.820312 64.41992h216.2793c29.551 0 53.81836-29.04993 53.81836-64.41992v-141.16992c0-35.37-24.26736-64.41993-53.81836-64.41993zm78.36328 25.49805c46.07852-.01532 92.16758.15039 138.23633.04102l-.00781.0039c15.43699-.648 26.33526 14.28945 28.40625 28.18946 1.27101 50.65999.21465 101.41813.55859 152.11914 1.17003 15.855-6.93484 34.76844-23.58984 38.56445-73.22001 1.06798-146.56984.17193-219.83985.46484-16.095 1.737-28.55699-13.52732-30.5-28.40429-1.22999-50.96002-.26725-102.00699-.53125-153-1.12599-15.705 7.57075-34.44528 24.34375-37.65625 27.63376-.23939 55.27672-.31307 82.92383-.32227z" fill="#ffffff" transform="matrix(.26458333 0 0 .26458333 0 161.53335)"/>
  <path d="m43.867915 204.31806c-4.659313.29607-7.599892 5.26441-7.329223 9.59114.237596 12.97517-.221985 25.32592.11086 36.57601 15.499292-14.91986 33.686751-32.37707 47.52446-46.17774-13.434219.002-26.871084-.006-40.306626.008" fill="#ffffff"/>
 </g>
</svg>
