<svg viewBox="0 0 512 512" xmlns="http://www.w3.org/2000/svg">
 <text x="729.64" y="231.36">
  
 </text>
 <text x="1310.91" y="151.36">
  
 </text>
 <text x="239.33" y="-29.9">
  
 </text>
 <text x="1337.38" y="-246.37">
  
 </text>
 <text x="1918.65" y="-326.37">
  
 </text>
 <text x="1529.53" y="-798.77">
  
 </text>
 <text x="2110.79" y="-878.78">
  
 </text>
 <text x="277.99" y="535.94">
  
 </text>
 <path d="m319.41674 413.06245c.0595.0198.11574.0396.17521.0595-.57853.50582-8.7145 5.14076-9.14096 5.14076-.47606 0-.95212 0-1.42818 0 .28101-3.35555 2.28442-8.45333 2.28442-10.85345 0-3.97377-2.51914-17.81911-4.57215-18.56296 0-2.12573-3.14065-6.98878-4.14897-8.99219-.85955-1.71249-3.75556-7.57395-5.56392-7.57395-.0959 0-.19175 0-.28763 0-.65788 0-.85623.19835-.85623.85623 0 .0959 0 .19175 0 .28433 0 2.76708 7.70618 9.17402 7.74916 14.23875 1.40173 1.04468 1.87448 4.4994 2.31417 6.26149.29092 1.16368.79342 4.84321.79342 6.34743 0 .0959 0 .19174 0 .28431 0 9.91787-3.02494 20.34816-7.92768 25.2013-1.24965 1.23643-2.86295 2.99521-4.24815 4.03327-1.84803 1.3819-3.25636 1.94391-5.14077 3.14397-2.84312 1.81166-8.17893 3.8878-12.67834 3.8878-.003.17192-.003.34052-.003.51243-2.6646.20827-5.32921.41986-7.9938.62813-16.56284 1.46455-26.97661-11.68987-34.82827-19.44234-2.24803-2.21829-3.79192-5.14406-6.91274-6.50942-2.66791-1.167-5.99701-3.76217-8.03678-5.67302-2.69767-2.52905-4.18535-3.9969-6.45324-6.97227-2.26457-2.97205-3.08776-6.09287-4.90274-8.80707 0-1.34221.10576-2.18192-.85623-2.57203 0-1.80835 0-3.61672 0-5.42507 0-4.66802.42316-4.18864 1.81828-8.17563.50912-1.45463 3.33901-6.81689 3.33901-7.53098 0-.66779 0-1.33229 0-2.0001 0-2.77039-2.97866-8.64508-4.17542-10.67494-.36696-.62151-2.95553-3.33901-3.53738-3.8878-.72731-.70748-2.41004-4.3341-2.35715-5.43499.10576-1.15048.21159-2.30094.31739-3.45142.20495-.27439.40992-.54879.61158-.82319 0-1.92737 1.83813-4.92587 2.78032-6.07304.79673-.97195 3.63986-3.92086 4.93248-3.92086.38019 0 .76037 0 1.14387 0 2.07283-5.13747 23.13839-5.72592 27.71053-9.14098 2.85635-.28431 5.71269-.56862 8.56903-.85293 2.65139-.83971 2.28773-5.48789 3.14397-6.28132.58847-.76367 2.38691-.59177 2.57203-.57855 1.72572.17853 3.45143.35705 5.17714.53557.27439.20497.54879.40994.82318.6116 1.74224 0 9.984 1.17361 9.984 2.00011 0 2.23152-5.97387 4.60851-7.94422 5.47797-1.45793.64466-8.46656 3.92086-9.48148 3.94401-.18183.68763-2.19846 2.28441-2.57204 2.28441-1.02484 0-3.09438 2.03317-3.98369 2.87288-1.0579.99509-2.03315 2.07945-3.09437 3.19025-.94881.9951-4.92257 6.02014-4.92257 7.35906 0 5.64988 4.06964-1.93399 5.64327-3.49771.97196-.96864 5.38541-4.87298 5.49781-5.92758.91906-.0991 3.944-3.0018 5.33581-3.80515 1.90754-1.10419 3.91095-2.41334 5.80526-3.33902 1.34222-.65127 1.48108-1.06121 3.03156-1.53727.80335-.24794 2.37037-1.07113 3.07785-1.49098 1.167-.69095 9.098-4.68123 10.74436-4.68123.19175 0 .38018 0 .57193 0 .92568 0 5.27631 2.00009 5.42838 2.00009 2.37698 0 4.29445-1.42817 6.85655-1.42817.38019 0 .76037 0 1.14387 0 3.663 0 9.91787 1.59016 12.73785 2.68774 7.59379 2.95884 12.44032 6.44662 19.60763 9.52777 2.3869 1.02485 6.1623 5.09779 7.64669 5.4912-1.23643-5.30276-13.9809-12.21552-18.12988-14.14619-1.3852-.64466-1.84472-.91245-3.058-1.51083-2.47286-1.22319-3.87458-1.41164-6.4896-2.36375-.96534-.35374-15.03549-5.96395-11.17413-5.96395.043 0 3.1671-.86286 4.11261-1.02815 1.6695-.29094 3.58365-.11907 5.31928-.10908 3.22993.0165 6.86316-.57525 10.28153-.57525 1.82159-.55869 21.57136-4.48287 23.42601-11.42207-1.65299.38348-4.23493 2.69766-5.74906 3.3919-4.44321 2.03647-9.29304 4.42999-14.22884 5.32921-.99179.45292-3.7192.98849-4.87629.98849-1.52404 0-3.04809 0-4.57213 0-.7703 0-.78682-.13556-1.42818-.28431.053-2.44312 2.97537-2.76049 4.62504-3.53408 1.81166-.56862 3.62003-1.13394 5.43169-1.70257-.16199-.74714-5.68626.24794-6.64497.34713-.84634.1686-7.58387 1.8315-8.56575 2.03316-1.32568 1.28271-4.06633.19836-5.71269 1.42818-1.72571 0-9.67323 2.58525-10.7113 3.28612-2.70757 1.82489-9.90464.39671-13.35607.93558-1.53726.24133-11.6006-.33059-13.25688-.62482-1.76868-.31407-5.20689-.30085-6.44662-.69426-1.53396-.48928-4.11921-1.46783-5.37879-1.76207.10908-4.93909 18.59601-8.93269 19.14148-10.28153 1.78853 0 7.3194-1.96043 9.49472-2.50261 4.40685-1.10418 8.46656-2.18192 12.53619-2.88279.2744-.20497.54878-.40994.82318-.6116 2.72742 0 4.30436-.47606 6.74746-.96534 1.07444-.21488 6.07635-1.31908 6.67803-1.31908 4.31428 0 8.2649-1.67612 13.13457-1.7224 2.69766-.0265 8.70458-.18183 9.4352-1.99019 1.65959 0 8.37729-2.04969 10.27492-2.57865 1.37527-.38348 9.70629-1.70256 11.15099-1.70256 1.3356-.0363 2.67122-.0694 4.00682-.10243 3.23653.22481 6.46976.44962 9.70629.67442 0 .28431 0 .57192 0 .85625 0 1.34221-5.62344 2.67782-6.00031 3.71259-3.80185 0-6.24166 2.28441-9.14098 2.28441-.38019 0-.76037 0-1.14386 0-.84963 2.09928-7.14418-.0136-7.42517 2.73402 3.15387-.0396 6.30777-.0793 9.45833-.12225.28762-.13888.57855-.28099.86617-.41985 3.03156-.63474 6.06643-1.27279 9.098-1.90754 3.71588-2.48607 13.99742-3.38861 13.99742-9.70958 0-.58516-.48599-1.26619-.57194-2.28443-1.4447-.11907-2.00009-.85624-2.57203-.85624-.95212 0-1.90424 0-2.85634 0-1.20669 0-4.46966 1.40173-5.70609 1.72241-1.62323.41986-5.04158.56201-7.15078.56201-.28762 0-.57193 0-.85624 0 0 .19175 0 .38019 0 .57194-3.44482 0-7.89463.47274-11.16092.83639-2.39682.26448-3.09437.22151-5.23664.76368-.89921.22811-4.67462 1.25627-5.02835 1.25627-.28763 0-.57194 0-.85625 0 0 .19173 0 .38018 0 .57192-.38018 0-.76037 0-1.14385 0-.0926 0-3.61012 1.73893-4.28123 2.00341-2.13564.83972-3.79192.2744-5.78211.79013-2.30756.59507-9.03188.91906-11.97088.87938-.27438.20497-.54879.40994-.82317.6116-7.7128 0-32.88436 4.08948-40.85171 9.42529-2.23483 0-14.6421 5.56392-17.34306 6.64497-2.14557.86286-4.88289 3.7688-6.84663 5.15068-3.55721 2.50923-5.15729.47606-9.80548.47606-.99179-.6645-6.02675-2.1687-7.81527-3.03817-1.90424-.92567-5.13086-3.17372-6.53919-4.59859-3.06792-3.1043-7.35576-9.02196-7.35576-14.9231 0-1.28932-.64466-7.70948.57194-7.70948 0-3.64647 1.52074-4.57545 1.71249-5.14077.68764-.71739.1686-.21818.85624-1.14055.46613-2.32408 8.68474-10.9923 10.62204-12.51304 2.23483-1.75216 4.19857-3.46465 6.73093-4.97878.43308-.25786 8.06984-4.57544 8.06984-1.92737 0 .28431 0 .57193 0 .85624 0 1.84804-.85625 2.95222-.85625 3.42828 0 .84964.003 1.69596.003 2.54559.66451.10242 1.32901.20827 1.9935.31076.17851-2.14887 7.42518-8.18225 9.31288-9.8253 1.39511-1.2133 3.25307-2.31748 4.37379-3.33903.62812-.57192 3.96053-2.82328 4.62833-3.08445.58185-.22812 5.00521-2.30094 5.17052-2.53897.42646-.61492.52895-1.5505 1.28271-2.42988.56862-.6612 1.37197-1.21991 2.08275-1.62984 1.43149-.8298 3.89442-1.39181 6.14578-1.52735 3.98037-.23473 9.56083.95212 14.16933.91243.27439.19507.54879.39011.82649.58516 1.14055.10576 2.28441.20829 3.42496.31407 2.47617.0232 4.95563.043 7.4351.0661 1.42487-.11907 2.85305-.23472 4.27791-.35374.29424-.72731 3.22001-1.87117 3.97707-2.59517 1.34882-1.29263 2.19185-1.934 4.11592-2.73733 1.99019-.8298 1.90092-1.40503 4.71099-2.14557 1.04136-.2744 4.50272-.9389 4.90935-1.94721 2.08604 0 2.09266-.57193 3.71258-.57193 2.76047 0 5.52426 0 8.28472 0 1.78192 0 2.97207.87277 5.71271.85954 2.28772-.0136 4.14566.0363 6.22511.34713 1.92076.28762 3.92747.81326 5.51764 1.05129 2.90263.43309 2.62824 1.69266 4.8267 1.74225.37687.71409 3.97706 3.12412 4.8862 3.96714 1.61 1.48768 3.66962 2.30426 5.56723 3.57375 3.00182 2.00341 7.97067 5.52756 9.98399 8.28142.75707 1.02814 1.14056 1.25956 1.96044 2.32409.57192.74384 1.47115 2.14557 1.93399 2.63484 1.46783 1.5472 2.03977 4.39693 3.12412 6.01354 1.73893 3.87127 5.6631 9.8815 5.6631 14.04371 0 2.04969 1.52406 3.80846 2.28443 5.71268.57192 1.90424 1.14385 3.80847 1.71579 5.7127.28431 1.04798.57193 2.09266.85624 3.14066.0106.66449.0165 1.3323.0265 1.9968.75376 7.23674 1.50751 14.47017 2.25796 21.70691.19175 0 .38018 0 .57193 0 0 .57193 0 1.14055 0 1.71249 0 5.47797 1.66951 16.81409 2.50922 22.33504.57525 3.78863 1.15378 7.47807 1.48107 11.08488.29424 3.25967 1.72242 7.97066 1.72242 10.84354 0 6.24495-.50582 11.15429-1.42818 17.7067 0 .47606 0 .95212 0 1.42818-.59507.24133-2.6018 5.6664-3.05802 6.64497-1.20006 2.60179-2.3869 4.0531-3.79854 6.19867-2.51914 3.82169-6.40033 7.14748-10.23194 9.76249-1.04468.71409-5.12753 3.52745-6.16891 3.8283-1.83811.53556-1.93069.57193-3.41506 1.44139-1.11411.65128-2.68444.81327-3.85474 1.28602-2.99189 1.20998-12.32462 3.58366-16.32481 3.67292-.31739-.78682-3.37209-1.60669-4.22171-2.34723-1.31908-1.15048-2.50923-1.66621-4.91596-1.65298-5.01845.0265-8.23184-.85293-12.57255-.85293-1.33231 0-2.66791 0-4.00022 0-.77028 0-.78681.13556-1.42818.28431 0 .38018 0 .76037 0 1.14055 0 .80665.90916 1.27279 1.40835 1.69596 2.04308.24464 4.75397 1.64637 5.22342 3.40514-.053-.10575-.10576-.2149-.15539-.32068-2.50261 1.23973-5.00521 2.48277-7.51113 3.72581m-97.23817-309.23934c0 1.42155 10.56253 32.97692 11.34274 34.27616.12224 1.42487.24464 2.84974.37027 4.2779 4.52254 3.02826 7.58385 11.94773 9.31288 18.10343.86947 3.09106 6.96895 19.24066 6.96895 20.44735 0 .66779 0 1.33229 0 2.0001 0 3.07785-11.14108 1.17361-11.14108 3.71258 0 .28431 0 .57194 0 .85625 1.20669.28101 2.42988.42647 2.5522 1.58686-1.42155.23141-2.84312.46283-4.26467.69755 0 .47606 0 .95212 0 1.42818 1.17361.0993.63805.28431 1.71579.28431 4.54238 0 6.4367-.5521 9.40214 2.02324 1.20998 1.0513 2.0001 1.61992 3.09437 2.90594 1.01163 1.19015 1.57695 3.11421 2.36045 3.63986 0 1.67942 1.57034 5.89453 1.71579 8.56573.20167 3.73904.8265 5.18044.11574 9.25668-.66118 3.78533-.72069 5.26309-2.06622 8.2153-.43639.95212-1.20667 2.61833-1.82819 3.30596-.7736.86286-2.76708 1.4943-3.07454 2.35054-1.048 0-2.09598 0-3.14397 0-2.75717 0-7.18054-3.07785-9.08807-4.33741-1.42487-.94551-2.36706-2.08607-3.55721-3.29605-4.26138-4.32088-10.2088-16.20249-10.2088-21.2077 0-.67442 2.83981-3.64647 3.49771-4.21511 1.18684-1.02153 3.8878-1.93067 3.93077-3.782-.33389-.0893-.78021-.28433-.85623-.28433-3.09769 0-5.20027 3.14067-6.28464 3.14067-3.95723 0-7.15409-5.84493-8.91286-8.50954-1.40833-2.13564-5.36887-9.27982-5.63996-12.26178-1.2265-4.47628-2.45632-8.95255-3.68282-13.4288-.39673-1.54719-.79343-3.09108-1.19015-4.63495 1.73562-2.59189 8.07315-4.42338 11.432-5.70609 2.08936-.79673 3.85805-1.63645 6.44-2.12903 2.07284-.39673 5.83832-.91907 5.83832-3.01835 0-2.49268-2.44972-2.0001-4.0002-2.0001-.66781 0-1.33231 0-2.00011 0-.78021-2.92246-8.03678-1.71249-11.42869-1.71249-.41986 1.04138-3.7159 1.90093-4.96556 2.17862-2.2844.50912-3.62993 1.53397-5.6069 1.53397-.58184 0-1.74555-1.63644-2.28441-2.0001 0-2.90594-2.31748-13.35606-3.71259-14.27843 0-1.92076-6.19205-15.68016-7.08467-18.62245-1.58686-5.22672-5.48458-14.390828-5.48458-20.503549 0-7.12433 6.84003-13.709798 13.71311-13.709798.95212 0 1.90424 0 2.85634 0 3.01504 0 7.47477 1.712475 9.42859 2.85303 5.03828 2.938995 3.09769 2.175327 6.49952 6.069739.92897 1.064516 4.11922 6.112722 4.79364 7.487994.64796 1.319081 3.3919 8.135964 4.13244 8.436804m76.56596-27.988236c1.772 2.644775 2.85635 22.920206 2.75717 28.404786-.63143.52565-1.26619 1.05461-1.89762 1.58025-.28431 0-.57192 0-.85623 0-.64137 0-.62814.2248-1.14387.5521-1.71249.10242-3.42828.20497-5.14077.30745 0 4.02996 4.89613 2.69436 6.00033 7.42518 1.7786.14872 6.37388 3.57043 6.86977 5.12753 1.06452 3.35886 1.99018 5.4846 1.98688 10.01706-.003 8.21199 1.22321 14.85696 1.1108 23.13177.006 2.90594 1.51744 11.73285-.17522 15.96778-.56532 1.41164-1.48437 2.31087-2.93569 2.31087-.47605 0-.95211 0-1.42817 0 0 .28431 0 .57192 0 .85624 0 1.39842 4.9358 3.72911 6.09949 6.18214.85955 1.80835 2.46956 7.38219 2.46956 9.81207.0694 2.86297.14221 5.72922.21157 8.59219-.4496 3.60679-.90253 7.21691-1.35544 10.82701-1.26949 1.89761-1.8315 3.35224-3.86467 4.70438-1.35544.89921-4.30104 2.15218-6.42016 2.15218-.66781 0-1.33231 0-2.0001 0-8.84675 0-16.85378-16.12647-16.85378-25.4162-.1719 0-.34712-.003-.51903-.003-.11241-1.61661-.22481-3.23321-.3372-4.84983 0-.28431 0-.57193 0-.85624 0-4.89613.35703-7.38882 5.44821-7.97728.77029-.0893 4.06964.17521 5.1011.28762 2.94229.31737 6.09287 1.40833 9.44511 1.40833.46615 0 .85624-.1719.85624-.57193 0-1.99017-4.30765-3.80515-6.05652-4.225-5.20027-1.24966-8.30786-2.34393-13.65359-2.34393-.19506.48267-1.5009 1.14055-2.00011 1.14055-3.50762 0-.52895-3.14065 1.42818-3.14065 2.57203-.0136 5.14406-.0231 7.71941-.0331 2.18853.29753 4.37708.59506 6.56563.8893.65457.0992.77028-.20829 1.71579-.28433 0-.38018 0-.76037 0-1.14054-1.59678-.42648-3.79855-3.14067-7.14086-3.14067-4.94241 0-11.42871 2.56542-11.42871-3.14065 0-.70417-3.46794-8.48971-3.8878-10.67824-.69094-3.59358-2.68113-8.61864-2.64146-12.20559-.20497-.27441-.40994-.54879-.6116-.82319 0-4.22502-1.06122-7.59048-.12558-11.83532 1.40504-6.36397 4.78041-6.52928 5.273-7.81529 1.14056-.11241 2.28111-.22812 3.42167-.34051 5.41846-.62813 12.53288 1.42818 17.38271 1.41825.10909-.56862.2182-1.13724.33061-1.70256-3.02496-1.60008-4.56553-2.00012-9.14098-2.00012-1.65297 0-9.98398 1.30586-9.98398.28433 0-1.93069 8.67812-2.67452 10.85675-2.85636 0-.28431 0-.57192 0-.85623 0-1.39512-4.88289-1.42818-6.00031-1.42818-1.80174 0-3.76878.46284-4.85644 1.14056-2.0497 1.27939-1.90424 1.09427-4.56884 1.71579-1.02484-1.93729-3.33901-4.51595-3.97706-6.87639-.70087-2.55881-2.02986-4.83331-2.7671-8.083065-1.27278-5.613514-2.68113-12.691578-2.68113-19.310104 0-.380185 0-.76037 0-1.143853 0-3.831611.73063-9.283135 1.43809-12.556034.80006-3.692754 5.70939-6.955728 5.98709-8.007021 1.86126-.04297 3.78202-2.284409 6.00032-2.284409 2.28441 0 4.57214 0 6.85656 0 1.02153 0 4.98537 2.185236 5.76889 2.800138 1.13395.886004 3.06462 3.646473 3.80846 5.044893 1.36205 2.552198 3.56051 10.162512 3.56051 13.858564m-170.5477 46.263501c.47605 0 .95211 0 1.42817 0 4.66802 0 10.58236 3.95062 13.12465 6.30116 1.32899 1.22982 7.07475 9.26991 8.20538 11.21712.71078 1.22319 3.08115 4.8267 3.98038 5.72922.57853.58516 2.94229 5.04819 3.60018 6.10941 1.21659 1.9505 5.94412 11.35596 5.94412 13.766 1.41494.94551 5.81517 8.36737 6.00031 10.56583-.68764.0165-6.72433 1.51083-7.6004 1.8249-.0661.0231-3.09106 1.42817-3.30596 1.54719-1.23312.66449-2.17531 1.8877-2.80014 2.05299 0 .28431 0 .57193 0 .85624 4.31097.35706 5.89121-2.00009 9.14096-2.00009-.58845 2.51914-3.71258 3.47785-3.71258 5.42507 0 .28431 0 .57192 0 .85623.47606 0 .95212 0 1.42818 0 3.25967 0 8.2153-4.2845 10.85676-4.2845 1.08104 0 9.95093 13.40565 11.33943 15.22392 1.85464 2.43649 9.85505 13.98089 10.06995 16.72815-1.23313.58184-2.46294 1.16369-3.69607 1.74555 0 .57192 0 1.14055 0 1.71247.9984.23142.96205.57193 2.00011.57193.28431 0 .57192 0 .85623 0 4.47628 0 5.0449-2.777 5.14077 2.85635 4.65149.38679 10.76089 11.99401 12.86018 15.41567 1.70586 2.77701 4.85314 7.11113 4.85314 11.42871 0 .38018 0 .76037 0 1.14385 0 4.53909-4.63165 9.42529-9.14098 9.42529-.6711.0298-1.34221.0595-2.01332.0893-1.6133-.22151-3.22991-.43969-4.84323-.6612-.40663-1.00501-1.41494-.64795-2.57864-1.42155-.95211-.63475-1.54058-1.04469-2.45963-1.8249-.89922-.76367-4.28452-3.19354-4.39032-4.17872-1.69595-.14222-4.7771-3.28612-6.00692-4.27791-.1289-.10576-2.09268-2.28441-2.45301-2.68774-.60169-.67111-1.25297-2.71751-1.25297-3.88781 0-.38018 0-.76037 0-1.14055 0-1.27941.81658-1.59347.85625-3.42828 1.70256-.45291 1.51742-3.10098 2.81006-4.00351.10908-1.23643.22149-2.47286.33059-3.70598.85956-1.28272 4.57215-4.20518 4.57215-5.42507 0-.65789-.19836-.85625-.85625-.85625-.57193 0-1.14387 0-1.71579 0-3.23323 0-4.99861 3.30596-7.48469 4.22832-3.17041 1.167-5.59037 5.19696-6.80035 5.19696-1.68273 0-5.63005-3.86136-6.85985-4.84983-2.23815-1.79515-3.51093-4.31097-5.31598-6.67803-1.61332-2.11583-8.10621-12.80729-8.10621-15.60082 0-.70747 3.92086-5.04159 4.00021-8.56573-3.39522.281-4.26469 5.42506-5.7127 5.42506-.5521 0-1.14386-.50911-1.14386-.85623 0-3.95063 5.01514-6.51935 5.71269-9.13766-.34713-.19506-.30414-.28433-.85624-.28433-1.12402 0-6.25157 3.49771-6.57225 4.28453-.28431 0-.57192 0-.85624 0-.63474 0-1.18023.85624-3.42828.85624-.17851-.48928-1.43809-1.54387-2.03977-2.52905-.79013-1.28932-1.38851-1.67612-1.38851-3.46795-1.34882-2.01663-1.6166-5.09117-2.61831-6.80697-.45953-.79012-1.20006-2.45301-1.58686-2.98528-.84302-1.15378-.73392-2.2249-1.46453-3.38861-1.86787-2.98196-3.97046-10.23855-6.48299-12.36758-1.74886-1.48107-3.13735-.19505-5.72592-3.69937-1.19013-1.61-2.61502-4.01012-3.63655-5.78872-1.2232-2.13235-2.25796-3.8878-3.29273-6.13256-.76698-1.66289-1.90754-6.03668-2.5522-7.10449-.21158-1.52074-.42647-3.03819-.63805-4.55893 0-.0959 0-.19173 0-.28431 0-3.38861 1.25295-7.34913 2.92246-9.07485 1.63645-1.68934 4.30767-4.63494 7.36237-4.63494.28431 0 .57194 0 .85625 0 0-.19175 0-.38019 0-.57194 1.04798 0 2.09597 0 3.14397 0 0 .19175 0 .38019 0 .57194m-2.57205 225.5985c1.24965.0265 8.35085 4.57544 9.17074 5.39532.28099.28101.84961 1.33891 1.6133 2.10258.68433.68765 1.25626 1.11081 2.01993 1.69266 6.08957 4.62504 2.29104-.62152 6.04991-.62152 1.75877 0 3.75557 3.12412 4.68785 4.45313.74052 1.0579 4.48948 3.21999 6.16891 3.25636-.043-1.94721-.57193-.89262-.57193-2.0001 0-.19175 0-.38018 0-.57193 0-.5521.50912-1.14056.85624-1.14056 3.93409 0 6.29124 8.29133 8.25498 7.80536 4.08946-.60499 8.17893-1.21328 12.26841-1.81827.0136.0991.0298.19836.043.29753.20167-.0926.40002-.18843.60169-.28101 4.84653.56864 9.69306 1.14056 14.5396 1.70919 3.34892 2.24143 9.14096 8.40043 9.14096 13.7098 1.00501 1.50091 1.14387 3.24975 1.14387 5.7127 0 2.22159-.85625 3.59688-.85625 5.997-1.67943 1.12403-.22149 1.83481-1.76538 2.51914-.73392.32398-2.49269 1.25956-3.10098 1.26619-1.14056-.11907-2.28111-.23803-3.41837-.35705-3.65308-2.44642-8.0533-4.00351-13.323-4.96886-2.49931-.45952-5.65318-.89921-7.88801-1.25295-1.61992-.25786-7.045-1.48768-7.6533-1.48768-.57192 0-1.62653.281-1.80835-.30746-4.79034-1.81166-3.70598-1.87448-6.36066-5.80526-1.048-1.55049-1.01494-3.46134-2.68444-3.60018-.14873.64135-.28432.65789-.28432 1.42816.0136.0926.0298.18514.043.2777.46284 3.71591.92566 7.42849 1.3852 11.1444.13223.90252-.20497 1.01823-.30746 1.9472-.2777.11241-.55871.22481-.83641.3372-1.90754-.4463-4.08616-1.57363-6.85324-1.38188-6.19206.27109-12.38081.53886-18.57287.80995-3.46794 0-6.02016.57193-9.984.57193-3.74894 0-8.76739-2.2844-12.31799-2.24474-.2744-.20497-.54878-.40994-.82319-.6116-3.8845 0-12.238646-4.85646-14.622243-6.80366-3.68944-3.00843-7.375583-7.75247-7.375583-14.33133 0-8.67151 4.208483-14.52967 9.663305-17.75629 3.428278-2.02986 4.615114-3.36877 9.177331-4.53246 3.49771-.89262 6.67805-2.55551 11.44193-2.55551 1.3356-.0232 2.67452-.0496 4.01012-.0728 3.0448.69094 6.08626 1.38188 9.13106 2.07282m257.39519-240.17777v5.42508c0 5.47466-4.11922 6.28132-8.56904 6.28132-1.90754 0-5.71269-1.08766-5.71269 1.14386.90914 1.30254.32068.95873 2.73402 1.5505 1.94721.47604 3.56053.73392 5.55071.73392.65458 0 3.14396-1.58356 3.14396 0 0 1.73231-.42977 4.56882-2.28441 4.56882-1.14717 0-3.33902-2.28441-4.28452-2.28441-1.01824 0-1.14386.24464-1.14386 1.14385 0 1.22652 1.44139 1.36537 2.40673 1.8778 4.34734 2.29763 3.75887 11.11463 4.44983 15.54129v3.7126c0 5.07464-1.68275 12.31799-3.65309 15.4818-2.15218 3.44811-4.53247 9.65008-9.77241 9.65008-2.84642 0-5.1044-1.42817-6.28463-1.42817-5.93088 0-.24132 3.71259 2.0001 3.71259 1.8249 0 5.14077 1.93398 5.14077 3.9969 0 2.39352-3.05139 21.73006-3.66961 23.17476-.34051.80004-1.28932 4.16881-1.48768 5.08126-.49259 2.23483-.97195 3.21008-1.76208 5.09117-.68102 1.61992-1.21658 2.74395-2.97867 3.59027-1.64306.79012-2.93568 1.6133-5.24323 1.6133h-1.14387c-1.90754 0-6.80367-3.68944-7.48468-5.08125-1.30586-2.6646-2.51585-6.47307-2.51914-10.33111-.003-4.46635-.46284-8.33101-.0136-12.30808.24794-2.18194.22149-3.59358.64796-5.63335.8893-4.24816 1.91085-7.72602 2.80015-12.05021h.57192c0-2.94892 1.60009-4.38701 2.53236-6.03668 1.47446-2.61832-.24464-4.79033-.24464-7.1012 0-2.46955.79345-8.58888 1.26619-11.01215.724-3.70927 1.61662-6.32099 2.62163-9.65669.92566-3.07454 2.27119-5.8813 3.42167-8.85997.6149-1.59346 1.18352-2.95883 1.75215-4.24485.82979-1.8877.35043-3.23984.76367-5.51764.65459-3.58697.20827-8.46656.45953-11.82211.31407-4.19524.55541-7.930979.84633-11.431984.52895-6.38051 5.75236-12.271723 12.57917-12.271723 9.95093 0 12.56924 13.508138 12.56924 23.703707m-134.84007 206.49007v.28433c0 1.10748-.52895.053-.57192 2.0001-1.39181.37026-1.75216 1.98687-4.35395 2.78691-1.94721.59838-4.4399.17523-6.79044.35044-4.7209.35043-6.90614 2.85635-11.7097 2.85635h-8.00041c-1.39842 0-2.12573-.39672-2.79354-1.20337-.23142-.2777-1.20667-2.56872-1.20667-2.79353v-1.14387c0-.99179.57193-.43637.57193-1.42816v-.85625c1.15047-.26779 1.33231-.85624 2.0001-.85624 2.04308 0 3.83822 1.14055 4.28452 1.14055h2.28443c3.2233 0 5.60359-2.23813 8.00372-2.0563l4.03657.29423 1.09757.90583c1.96374 0 2.20177.57193 3.42828.57193 1.29925 0 5.1011-1.18683 5.42839-2.00011h3.14395c.66781 0 1.14387.47276 1.14387 1.14055m12.85687-27.98823l-.003.82319-2.56542.32068h-1.14385c-4.84324 0-5.92759-4.22502-8.60541-4.27791l.32067 2.56542.0728 1.14717-.36035 4.56222c-1.12403 1.67612-3.26629 7.99711-5.42839 7.99711h-.85624c-.65789 0-.85623-.19836-.85623-.85624v-.85625c0-5.23663 7.3293-9.74264 4.57213-15.13466 0-4.79034-2.78031-7.08798-2.85635-10.56585.29093.2149 2.71751 3.91095 3.34893 4.64819 1.28272 1.49759 2.6084 2.68113 4.05971 3.93739 2.11913 1.8315 6.64499 5.6102 10.30137 5.69286m33.70755-12.85026l-.87939 6.55571-1.40504 2.86957c-.8926.0761-1.01492.28432-2.00009.28432-1.16701 0-1.71581-1.89763-1.71581-3.14067v-3.71259c0-1.1141 1.40835-2.87617 1.43811-5.41515.0298-2.37037-.18514-4.6052.27438-6.57885 2.4398.20165 4.73414 6.10609 4.28453 9.13766m32.28266-11.13776l.0661 4.57544-.35044 3.70598c-1.48437.99508-.31075 1.08765-2.57203 2.28441-1.70918-.39671-2.28441-.76037-2.28441-2.85635v-2.00009c0-1.36868.97525-4.07626 1.08766-5.4846.11574-1.4447-.80335-3.46134-.80335-5.64987-1.53728-.62153-.13223-3.02496 2.79684.34381.61822.71078 2.0596 3.7688 2.0596 5.08127" fill="#ffedb5" fill-rule="evenodd"/>
</svg>
