<svg height="512" viewBox="0 0 512 512" width="512" xmlns="http://www.w3.org/2000/svg">
 <path d="m471.95 253.05c0 120.9-98.01 218.9-218.9 218.9-120.9 0-218.9-98.01-218.9-218.9 0-120.9 98.01-218.9 218.9-218.9 120.9 0 218.9 98.01 218.9 218.9" fill="#38c9ad" fill-rule="evenodd"/>
 <path d="m275.31 106.31l-26.09 192.19c1.963 1.825 4.098 3.461 5.531 5.906 4.307 2.815 6.98 7.498 11.281 10.313 2.945 4.422 7.541 7.02 10.469 11.438 4.317 2.809 6.964 7.503 11.281 10.313 2.932 4.42 7.504 6.979 10.469 11.438 4.305 2.8 6.944 7.504 11.281 10.281 2.909 4.485 7.54 6.992 10.438 11.469 4.342 2.767 6.989 7.501 11.281 10.281 2.967 4.43 7.508 7.02 10.469 11.438 4.279 2.803 6.973 7.477 11.281 10.313 2.95 4.431 7.519 7.01 10.469 11.438 4.312 2.825 6.987 7.502 11.281 10.313 2.973 4.439 7.504 6.998 10.469 11.438 1.187.768 2.243 1.704 3.25 2.688 43.76-31.984 75.53-79.41 87.28-134.25-64.02-63.895-127.76-128.11-192.03-191.78-2.565-2.134-5.399-3.855-8.406-5.219m-21.406 229.69c-3.486-.054-6.832.485-9.969 1.469l-9.125 67.22c19.751 20.671 40.599 40.36 60.59 60.875 3.269 3.253 6.515 6.525 9.781 9.781 26.714-5.966 51.621-16.707 73.813-31.25-32.428-32.423-64.843-64.851-97.22-97.25-8.854-3.594-17.709-7.186-26.563-10.781-.445-.025-.872-.056-1.313-.063" fill-opacity=".235"/>
 <g fill-rule="evenodd" transform="translate(0 -540.36)">
  <path d="m256 541.36c-140.83 0-255 114.17-255 255s114.17 255 255 255 255-114.17 255-255-114.17-255-255-255m8.827 44.931c120.9 0 218.9 98 218.9 218.9s-98 218.9-218.9 218.9-218.93-98-218.93-218.9 98.03-218.9 218.93-218.9" fill-opacity=".067"/>
  <g fill-opacity=".129">
   <path d="m256 544.79c-138.94 0-251.57 112.63-251.57 251.57s112.63 251.54 251.57 251.54 251.57-112.6 251.57-251.54-112.63-251.57-251.57-251.57m5.885 38.556c120.9 0 218.9 98 218.9 218.9s-98 218.9-218.9 218.9-218.93-98-218.93-218.9 98.03-218.9 218.93-218.9"/>
   <path d="m256 548.72c-136.77 0-247.64 110.87-247.64 247.64s110.87 247.64 247.64 247.64 247.64-110.87 247.64-247.64-110.87-247.64-247.64-247.64m2.942 31.691c120.9 0 218.9 98 218.9 218.9s-98 218.9-218.9 218.9-218.93-98-218.93-218.9 98.03-218.9 218.93-218.9"/>
  </g>
  <path d="m253.04 548.22c-135.42 0-245.19 109.78-245.19 245.19 0 135.42 109.78 245.19 245.19 245.19 135.42 0 245.19-109.78 245.19-245.19 0-135.42-109.78-245.19-245.19-245.19zm0 26.297c120.9 0 218.9 98 218.9 218.9s-98 218.9-218.9 218.9-218.93-98-218.93-218.9 98.03-218.9 218.93-218.9z" fill="#ffffff" stroke="#000000" stroke-opacity=".31" stroke-width="4.904"/>
 </g>
 <text x="729.64" y="231.36">
  
 </text>
 <text x="1310.91" y="151.36">
  
 </text>
 <text x="239.33" y="-29.9">
  
 </text>
 <text x="1337.38" y="-246.37">
  
 </text>
 <text x="1918.65" y="-326.37">
  
 </text>
 <text x="1529.53" y="-798.77">
  
 </text>
 <text x="2110.79" y="-878.78">
  
 </text>
 <text x="277.99" y="535.94">
  
 </text>
 <path d="m266.39 295.27c3.08-24.12 6.929-43.12 11.549-56.975l9.624-27.333c7.956-22.328 11.934-41.833 11.934-58.52 0-16.425-4.235-29.13-12.704-38.11-7.956-7.956-18.222-11.934-30.797-11.934-11.292 0-20.917 3.978-28.873 11.934-9.753 9.753-14.629 22.457-14.629 38.11 0 16.682 3.978 36.19 11.934 58.52l9.624 27.333c1.796 4.62 3.336 10.01 4.62 16.17 1.54 6.16 2.951 13.09 4.235 20.788.513 3.08.898 6.288 1.155 9.624.513 3.337 1.027 6.801 1.54 10.394h20.788m-11.164 40.807c-10.266 0-18.992 3.593-26.18 10.779-7.186 7.186-10.779 15.912-10.779 26.18 0 10.266 3.593 18.992 10.779 26.18 7.186 6.929 15.912 10.394 26.18 10.394 10.779 0 19.633-3.465 26.563-10.394 7.186-7.186 10.779-15.912 10.779-26.18 0-10.266-3.593-18.992-10.779-26.18-6.93-7.186-15.784-10.779-26.563-10.779" fill="#ffffff"/>
</svg>
