<svg height="512" viewBox="0 0 512 512" width="512" xmlns="http://www.w3.org/2000/svg">
 <text x="729.64" y="231.36">
  
 </text>
 <text x="1310.91" y="151.36">
  
 </text>
 <text x="239.33" y="-29.9">
  
 </text>
 <text x="1337.38" y="-246.37">
  
 </text>
 <text x="1918.65" y="-326.38">
  
 </text>
 <text x="1529.53" y="-798.78">
  
 </text>
 <text x="2110.79" y="-878.78">
  
 </text>
 <text x="277.99" y="535.94">
  
 </text>
 <text x="-307.18" y="-11.34">
  
 </text>
 <text x="438.2" y="41.8">
  
 </text>
 <text x="1337.81" y="-82.02">
  
 </text>
 <text x="465.66" y="-134.65">
  
 </text>
 <text x="1365.27" y="-258.47">
  
 </text>
 <text x="-2544.32" y="317.23">
  
 </text>
 <text x="-616.04" y="81.8">
  
 </text>
 <text x="129.34" y="134.94">
  
 </text>
 <text x="1028.95" y="11.13">
  
 </text>
 <text x="156.8" y="-41.51">
  
 </text>
 <text x="1056.42" y="-165.33">
  
 </text>
 <text x="-2853.18" y="410.37">
  
 </text>
 <text x="-1330.61" y="-35.06">
  
 </text>
 <text x="-585.23" y="18.09">
  
 </text>
 <text x="314.38" y="-105.73">
  
 </text>
 <text x="-557.77" y="-158.37">
  
 </text>
 <text x="341.85" y="-282.18">
  
 </text>
 <text x="-3567.75" y="293.52">
  
 </text>
 <path d="m295.05169 59.150451c-2.81995-1.560798-5.86458-2.382972-8.90538-2.473786-6.68925-.199792-13.3134 3.017462-16.93504 8.902239l-38.69297 62.878726-40.87591-22.60312c-2.85442-1.58743-6.98158-.54488-8.64496 2.16986l-36.87257 59.90122c-31.32458 50.90454-19.9452 114.13562 23.8413 152.51987-18.46437 30.24001-39.07083 63.08578-56.62883 91.98173l-1.93529 3.17851c-7.61221 12.50697-2.80336 28.56902 10.78578 36.01096 13.58913 7.44195 30.66331 3.36135 38.27297-9.14562 19.3401-31.71241 38.86658-63.34006 58.32413-94.99193 56.76926 17.28623 120.40649-4.41721 151.73362-55.32417l36.893-59.92544c1.67486-2.70748.57446-6.62219-2.28762-8.19994l-40.91421-22.62128 38.72743-62.94411c5.26715-8.56078 2.24167-19.43429-6.78244-24.42304-9.02538-4.996-20.51454-2.14443-25.7868 6.41514l-38.74275 62.89325-66.49676-36.81013 38.70574-62.911414c5.26714-8.560777 2.22634-19.48273-6.79776-24.471471" fill="#ffedb5" stroke-width=".519"/>
</svg>
