<svg height="512" viewBox="0 0 512 512" width="512" xmlns="http://www.w3.org/2000/svg">
 <text x="729.64" y="231.36">
  
 </text>
 <text x="1310.91" y="151.36">
  
 </text>
 <text x="239.33" y="-29.9">
  
 </text>
 <text x="1337.38" y="-246.37">
  
 </text>
 <text x="1918.65" y="-326.38">
  
 </text>
 <text x="1529.53" y="-798.78">
  
 </text>
 <text x="2110.79" y="-878.78">
  
 </text>
 <text x="277.99" y="535.94">
  
 </text>
 <text x="-307.18" y="-11.34">
  
 </text>
 <text x="438.2" y="41.8">
  
 </text>
 <text x="1337.81" y="-82.02">
  
 </text>
 <text x="465.66" y="-134.65">
  
 </text>
 <text x="1365.27" y="-258.47">
  
 </text>
 <text x="-2544.32" y="317.23">
  
 </text>
 <text x="-616.04" y="81.8">
  
 </text>
 <text x="129.34" y="134.94">
  
 </text>
 <text x="1028.95" y="11.13">
  
 </text>
 <text x="156.8" y="-41.51">
  
 </text>
 <text x="1056.42" y="-165.33">
  
 </text>
 <text x="-2853.18" y="410.37">
  
 </text>
 <text x="-1330.61" y="-35.06">
  
 </text>
 <text x="-585.23" y="18.09">
  
 </text>
 <text x="314.38" y="-105.73">
  
 </text>
 <text x="-557.77" y="-158.37">
  
 </text>
 <text x="341.85" y="-282.18">
  
 </text>
 <text x="-3567.75" y="293.52">
  
 </text>
 <text x="729.64" y="231.36">
  
 </text>
 <text x="1310.91" y="151.36">
  
 </text>
 <text x="239.33" y="-29.9">
  
 </text>
 <text x="1337.38" y="-246.37">
  
 </text>
 <text x="1918.65" y="-326.38">
  
 </text>
 <text x="1529.53" y="-798.78">
  
 </text>
 <text x="2110.79" y="-878.78">
  
 </text>
 <text x="277.99" y="535.94">
  
 </text>
 <text x="104.96" y="227.12">
  
 </text>
 <text x="686.23" y="147.11">
  
 </text>
 <text x="-385.35" y="-34.14">
  
 </text>
 <text x="712.7" y="-250.62">
  
 </text>
 <text x="1293.97" y="-330.62">
  
 </text>
 <text x="904.85" y="-803.02">
  
 </text>
 <text x="1486.12" y="-883.02">
  
 </text>
 <text x="-346.69" y="531.69">
  
 </text>
 <text x="-931.86" y="-15.58">
  
 </text>
 <text x="-186.48" y="37.56">
  
 </text>
 <text x="713.13" y="-86.26">
  
 </text>
 <text x="-159.02" y="-138.9">
  
 </text>
 <text x="740.6" y="-262.71">
  
 </text>
 <text x="-3169" y="312.99">
  
 </text>
 <text x="-1240.72" y="77.56">
  
 </text>
 <text x="-495.34" y="130.7">
  
 </text>
 <text x="404.27" y="6.88">
  
 </text>
 <text x="-467.88" y="-45.75">
  
 </text>
 <text x="431.74" y="-169.57">
  
 </text>
 <text x="-3477.86" y="406.13">
  
 </text>
 <text x="-1955.29" y="-39.3">
  
 </text>
 <text x="-1209.91" y="13.84">
  
 </text>
 <text x="-310.3" y="-109.97">
  
 </text>
 <text x="-1182.45" y="-162.61">
  
 </text>
 <text x="-282.83" y="-286.43">
  
 </text>
 <text x="-4192.43" y="289.27">
  
 </text>
 <text x="729.64" y="231.36">
  
 </text>
 <text x="1310.91" y="151.36">
  
 </text>
 <text x="239.33" y="-29.9">
  
 </text>
 <text x="1337.38" y="-246.37">
  
 </text>
 <text x="1918.65" y="-326.38">
  
 </text>
 <text x="1529.53" y="-798.78">
  
 </text>
 <text x="2110.79" y="-878.78">
  
 </text>
 <text x="277.99" y="535.94">
  
 </text>
 <text x="-307.18" y="-11.34">
  
 </text>
 <text x="438.2" y="41.8">
  
 </text>
 <text x="1337.81" y="-82.02">
  
 </text>
 <text x="465.66" y="-134.65">
  
 </text>
 <text x="1365.27" y="-258.47">
  
 </text>
 <text x="-2544.32" y="317.23">
  
 </text>
 <text x="-616.04" y="81.8">
  
 </text>
 <text x="129.34" y="134.94">
  
 </text>
 <text x="1028.95" y="11.13">
  
 </text>
 <text x="156.8" y="-41.51">
  
 </text>
 <text x="1056.42" y="-165.33">
  
 </text>
 <text x="-2853.18" y="410.37">
  
 </text>
 <text x="-1330.61" y="-35.06">
  
 </text>
 <text x="-585.23" y="18.09">
  
 </text>
 <text x="314.38" y="-105.73">
  
 </text>
 <text x="-557.77" y="-158.37">
  
 </text>
 <text x="341.85" y="-282.18">
  
 </text>
 <text x="-3567.75" y="293.52">
  
 </text>
 <text x="729.64" y="231.36">
  
 </text>
 <text x="1310.91" y="151.36">
  
 </text>
 <text x="239.33" y="-29.9">
  
 </text>
 <text x="1337.38" y="-246.37">
  
 </text>
 <text x="1918.65" y="-326.38">
  
 </text>
 <text x="1529.53" y="-798.78">
  
 </text>
 <text x="2110.79" y="-878.78">
  
 </text>
 <text x="277.99" y="535.94">
  
 </text>
 <text x="104.96" y="227.12">
  
 </text>
 <text x="686.23" y="147.11">
  
 </text>
 <text x="-385.35" y="-34.14">
  
 </text>
 <text x="712.7" y="-250.62">
  
 </text>
 <text x="1293.97" y="-330.62">
  
 </text>
 <text x="904.85" y="-803.02">
  
 </text>
 <text x="1486.12" y="-883.02">
  
 </text>
 <text x="-346.69" y="531.69">
  
 </text>
 <text x="-931.86" y="-15.58">
  
 </text>
 <text x="-186.48" y="37.56">
  
 </text>
 <text x="713.13" y="-86.26">
  
 </text>
 <text x="-159.02" y="-138.9">
  
 </text>
 <text x="740.6" y="-262.71">
  
 </text>
 <text x="-3169" y="312.99">
  
 </text>
 <text x="-1240.72" y="77.56">
  
 </text>
 <text x="-495.34" y="130.7">
  
 </text>
 <text x="404.27" y="6.88">
  
 </text>
 <text x="-467.88" y="-45.75">
  
 </text>
 <text x="431.74" y="-169.57">
  
 </text>
 <text x="-3477.86" y="406.13">
  
 </text>
 <text x="-1955.29" y="-39.3">
  
 </text>
 <text x="-1209.91" y="13.84">
  
 </text>
 <text x="-310.3" y="-109.97">
  
 </text>
 <text x="-1182.45" y="-162.61">
  
 </text>
 <text x="-282.83" y="-286.43">
  
 </text>
 <text x="-4192.43" y="289.27">
  
 </text>
 <path d="m253.9161 82.638783c-59.71305 2.043765-118.28333 50.089677-139.94796 135.100187-.0602.21893.0541.47155 0 .69529-6.06273 4.17294-10.39565 10.75773-10.39565 18.70664v139.2623c0 12.8424 10.02274 22.86755 22.86755 22.86755 12.84239 0 23.55923-10.02275 23.55923-22.86755v-139.2623c0-7.30895-3.75553-13.77466-9.01109-18.01616 21.15699-55.7795 68.99961-94.98635 120.55686-93.53923 48.44167 1.29074 86.55265 44.05582 103.23478 87.99376l3.46441 7.62171c-3.80604 4.12843-5.54186 9.85434-5.54186 15.93752v139.26229c0 12.8424 10.02275 22.86755 22.86755 22.86755 12.8424 0 23.55923-10.02274 23.55923-22.86755v-139.26229c0-6.62931-3.19135-12.41416-7.62171-16.62679-.0601-.21894.0601-.47636 0-.69529-26.56053-95.49999-87.84941-139.226213-147.5745-137.181246m-155.188983 131.647806c-26.941848.69528-48.501821 41.90138-48.501821 92.84153 0 50.94375 21.558771 91.44614 48.501821 92.15586m314.540083-184.99739v184.99739c26.94185-.7001 48.50182-41.21211 48.50182-92.15586 0-50.93173-21.55877-92.14384-48.50182-92.84153" fill="#ffedb5"/>
</svg>
