<svg height="512" viewBox="0 0 512 512" width="512" xmlns="http://www.w3.org/2000/svg">
 <text x="729.64" y="231.36">
  
 </text>
 <text x="1310.91" y="151.36">
  
 </text>
 <text x="239.33" y="-29.9">
  
 </text>
 <text x="1337.38" y="-246.37">
  
 </text>
 <text x="1918.65" y="-326.38">
  
 </text>
 <text x="1529.53" y="-798.78">
  
 </text>
 <text x="2110.79" y="-878.78">
  
 </text>
 <text x="277.99" y="535.94">
  
 </text>
 <path d="m176.86938 33.489482c-7.54275 0-13.63879 6.095787-13.63879 13.638795v59.604043c0 7.54276 6.09578 13.55864 13.63879 13.55864 7.54276 0 13.6388-6.01741 13.6388-13.55864v-59.604043c0-7.542754-6.09579-13.638795-13.6388-13.638795zm75.70747 0c-7.54275 0-13.55863 6.095787-13.55863 13.638795v59.604043c0 7.54276 6.0174 13.55864 13.55863 13.55864 7.54275 0 13.6388-6.01741 13.6388-13.55864v-59.604043c0-7.542754-6.09579-13.638795-13.6388-13.638795zm75.74691 0c-7.54275 0-13.63879 6.095787-13.63879 13.638795v59.604043c0 7.54276 6.09578 13.55864 13.63879 13.55864 7.54276 0 13.55864-6.01741 13.55864-13.55864v-59.604043c0-7.542754-6.01741-13.638795-13.55864-13.638795zm-152.7255 106.403978c-20.7413 0-37.41603 16.75489-37.41603 37.4962v154.83767c0 20.7413 16.68109 37.45675 37.41603 37.45675h153.9979c20.7413 0 37.41603-16.71926 37.41603-37.45675v-154.83767c0-20.74131-16.68109-37.4962-37.41603-37.4962zm-128.906278 25.52424c-7.542754 0-13.638796 6.0174-13.638796 13.55863 0 7.54276 6.095788 13.6388 13.638796 13.6388h59.604048c7.54275 0 13.55863-6.09579 13.55863-13.6388 0-7.54275-6.01741-13.55863-13.55863-13.55863zm359.095148 0c-7.54275 0-13.63879 6.0174-13.63879 13.55863 0 7.54276 6.09579 13.6388 13.63879 13.6388h59.60405c7.54275 0 13.55863-6.09579 13.55863-13.6388 0-7.54275-6.0174-13.55863-13.55863-13.55863zm-359.095148 75.70746c-7.542754 0-13.638796 6.09579-13.638796 13.6388 0 7.54275 6.095788 13.55864 13.638796 13.55864h59.604048c7.54275 0 13.55863-6.01741 13.55863-13.55864 0-7.54275-6.01741-13.6388-13.55863-13.6388zm359.095148 0c-7.54275 0-13.63879 6.09579-13.63879 13.6388 0 7.54275 6.09579 13.55864 13.63879 13.55864h59.60405c7.54275 0 13.55863-6.01741 13.55863-13.55864 0-7.54275-6.0174-13.6388-13.55863-13.6388zm-359.095148 75.70747c-7.542754 0-13.638796 6.09579-13.638796 13.6388 0 7.54275 6.095788 13.63879 13.638796 13.63879h59.604048c7.54275 0 13.55863-6.09578 13.55863-13.63879 0-7.54276-6.01741-13.6388-13.55863-13.6388zm359.095148 0c-7.54275 0-13.63879 6.09579-13.63879 13.6388 0 7.54275 6.09579 13.63879 13.63879 13.63879h59.60405c7.54275 0 13.55863-6.09578 13.55863-13.63879 0-7.54276-6.0174-13.6388-13.55863-13.6388zm-228.91647 74.88041c-7.54276 0-13.6388 6.09579-13.6388 13.6388v59.60404c0 7.54276 6.09579 13.55864 13.6388 13.55864 7.54275 0 13.63879-6.01741 13.63879-13.55864v-59.60404c0-7.54275-6.09579-13.6388-13.63879-13.6388zm75.70746 0c-7.54275 0-13.55863 6.09579-13.55863 13.6388v59.60404c0 7.54276 6.01741 13.55864 13.55863 13.55864 7.54276 0 13.6388-6.01741 13.6388-13.55864v-59.60404c0-7.54275-6.09579-13.6388-13.6388-13.6388zm75.74691 0c-7.54275 0-13.63879 6.09579-13.63879 13.6388v59.60404c0 7.54276 6.09579 13.55864 13.63879 13.55864 7.54276 0 13.55864-6.01741 13.55864-13.55864v-59.60404c0-7.54275-6.01741-13.6388-13.55864-13.6388z" fill="#ffedb5"/>
</svg>
