<svg height="32" width="32" xmlns="http://www.w3.org/2000/svg" xmlns:xlink="http://www.w3.org/1999/xlink">
  <linearGradient id="a" gradientTransform="matrix(.70270274 0 0 .56521735 -.513513 3.9565216)" gradientUnits="userSpaceOnUse" x2="0" y1="16" y2="39">
    <stop offset="0" stop-color="#f1f2f3"/>
    <stop offset="1" stop-color="#e4e5e7"/>
  </linearGradient>
  <linearGradient id="b" gradientTransform="matrix(.71794137 0 0 .6 -3.0253029 -4.1999992)" gradientUnits="userSpaceOnUse" x2="0" y1="27" y2="52">
    <stop offset="0" stop-color="#ffffff"/>
    <stop offset="1" stop-color="#e4e5e7"/>
  </linearGradient>
  <linearGradient id="c" gradientTransform="matrix(.66666665 0 0 .54838714 .3333342 5.5161288)" gradientUnits="userSpaceOnUse" x2="0" y1="11.03" y2="13.1">
    <stop offset="0" stop-opacity=".51"/>
    <stop offset="1" stop-opacity=".392"/>
  </linearGradient>
  <linearGradient id="d" gradientTransform="matrix(-1 0 0 1 33 11)" gradientUnits="userSpaceOnUse" x1="18" x2="20" xlink:href="#e"/>
  <linearGradient id="e">
    <stop offset="0" stop-color="#ffffff"/>
    <stop offset="1" stop-color="#ffffff" stop-opacity="0"/>
  </linearGradient>
  <linearGradient id="f" gradientTransform="translate(-1 11)" gradientUnits="userSpaceOnUse" x1="5" x2="7" xlink:href="#e"/>
  <linearGradient id="g" gradientTransform="matrix(.65 0 0 1 .39999976 .000001)" gradientUnits="userSpaceOnUse" x2="0" y1="11" y2="9">
    <stop offset="0"/>
    <stop offset="1" stop-opacity="0"/>
  </linearGradient>
  <path d="m7 3c-1.108 0-2 .892-2 2-1.108 0-2 .892-2 2v5c0 1.108.892 2 2 2h22c1.108 0 2-.892 2-2v-5c0-1.108-.892-2-2-2h-13c0-1.108-.892-2-2-2z" fill-opacity=".659"/>
  <rect fill="#8b8b8d" height="7" rx="1" width="24" x="4" y="6"/>
  <path d="m7 4h5c .526969 0 1 .468145 1 1v1l0 0h-7l0 0v-1c0-.536986.460318-1 1-1z" fill="#8b8b8d"/>
  <path d="m3 9h26v2h-26z" fill="url(#g)" opacity=".173"/>
  <path d="m7 4c-.554 0-1 .446-1 1v1c0-.554.446-1 1-1h5c .554 0 1 .446 1 1v-1c0-.554-.446-1-1-1z" fill="#ffffff" opacity=".15"/>
  <path d="m5 6c-.554 0-1 .446-1 1v1c0-.554.446-1 1-1h1v-1z" fill="url(#f)" opacity=".15"/>
  <path d="m27 6c .554 0 1 .446 1 1v1c0-.554-.446-1-1-1h-14v-1z" fill="url(#d)" opacity=".15"/>
  <rect height="30" opacity=".18" rx="2.077" ry="1.474" transform="matrix(.62131645 0 0 .5607322 1.0014209 5.1882348)" width="46" x="1.14" y="11.86"/>
  <path d="m2 11h28c1.108 0 2.08498.895264 2 2l-1 13.000002c-.08498 1.104736-.892 2-2 2h-26c-1.108 0-1.9150203-.895264-2-2l-1-13.000002c-.08497971-1.104736.892-2 2-2z" fill="url(#c)"/>
  <path d="m2 12h28c .554 0 1.04249.447632 1 1l-1 13c-.04249.552368-.446 1-1 1h-25.9997139c-.554 0-.9574981-.447633-1-1l-1.0002861-13c-.042502-.552367.446-1 1-1z" fill="url(#b)"/>
  <path d="m2 13h28l-1 13h-26z" fill="url(#a)"/>
</svg>
