<svg height="32" width="32" xmlns="http://www.w3.org/2000/svg" xmlns:xlink="http://www.w3.org/1999/xlink">
  <linearGradient id="a">
    <stop offset="0" stop-color="#ffffff"/>
    <stop offset="1" stop-color="#ffffff" stop-opacity="0"/>
  </linearGradient>
  <linearGradient id="b" gradientTransform="matrix(.75675638 0 0 .99999943 -1.7837718 -9.9999875)" gradientUnits="userSpaceOnUse" x1="25" x2="25" y1="16" y2="39">
    <stop offset="0" stop-color="#53585d"/>
    <stop offset="1" stop-color="#414247"/>
  </linearGradient>
  <linearGradient id="c" gradientTransform="matrix(.45762704 0 0 .47826085 1.3559375 10.565217)" gradientUnits="userSpaceOnUse" x1="30" x2="30" y1="-8" y2="-5">
    <stop offset="0" stop-color="#ffffff" stop-opacity=".66666669"/>
    <stop offset="1" stop-opacity=".17484662"/>
  </linearGradient>
  <radialGradient id="d" cx="-31.125002" cy="-17.499994" gradientTransform="matrix(.68444485 0 0 .47304984 37.303347 14.27837)" gradientUnits="userSpaceOnUse" r="29.999994" xlink:href="#a"/>
  <linearGradient id="e" gradientTransform="matrix(1.6216214 0 0 .99999974 -38.108095 -9.9999935)" gradientUnits="userSpaceOnUse" x1="25" x2="25" xlink:href="#a" y1="16" y2="39"/>
  <linearGradient id="f" gradientTransform="matrix(.4838708 0 0 .51020395 .51613468 7.5918374)" gradientUnits="userSpaceOnUse" x1="32" x2="32" y1="39.000195" y2="33.000195">
    <stop offset="0" stop-color="#0f0f10" stop-opacity=".91411042"/>
    <stop offset="1" stop-color="#161618" stop-opacity=".87116563"/>
  </linearGradient>
  <rect fill="url(#f)" height="24.99999" rx="1" width="29.99999" x="1.000005" y="3.000005"/>
  <g transform="translate(0 -1.9999998)">
    <rect height="25.99999" opacity=".1" ry="2" width="29.99999" x="1.000005" y="5.0000048"/>
    <path d="m2.00001 6.0000048h27.999985v22.99999h-27.999985z" fill="url(#b)"/>
    <path d="m16 6.0000021h13.000005c.55399 0 .99999.3860347.99999.6571401v21.8534968c0 .271105-.446.489359-.99999.489359h-6.000005c-1-8.808508-2-13.702125-7-22.9999959z" fill="url(#e)" opacity=".1"/>
    <path d="m2 6h28v23h-28z" fill="url(#d)" opacity=".2"/>
    <rect fill-opacity=".49079757" height="4.000001" rx=".99999207" ry=".99999505" width="27.999994" x="2.000005" y="5.999999"/>
    <path d="m2.500005 6.4999995h26.999996v21.999998h-26.999996z" fill="none" opacity=".3" stroke="url(#c)" stroke-width=".99999988"/>
    <circle cx="6.0000048" cy="8.5" fill="#ffffff" r="1"/>
  </g>
</svg>
