<?xml version="1.0" encoding="UTF-8" standalone="no"?>
<svg xmlns="http://www.w3.org/2000/svg" height="16.003" style="enable-background:new" version="1.1" width="16">
 <title>
  Paper Symbolic Icon Theme
 </title>
 <g transform="translate(-425.0004,19.003361)">
  <g transform="matrix(0.77777778,0,0,0.77777778,170.88929,-435.17127)">
   <path d="m 339.12295,536.36271 -4.24277,0 c -0.004,1.92514 0,6.98956 0,6.98956 0,0 -4.60306,0 -6.88018,0.005 l 0,4.01512 c 2.27712,-0.004 6.88018,-0.004 6.88018,-0.004 0,0 0,5.05864 -0.004,6.99251 l 4.24277,0 c 0.004,-1.93387 0.004,-6.99251 0.004,-6.99251 0,0 4.59994,0 6.87705,0 l 0,-4.01794 c -2.27711,0 -6.87705,0 -6.87705,0 0,0 -0.005,-5.06427 0,-6.98955 z" style="fill:#4d4d4d;fill-opacity:1"/>
  </g>
 </g>
</svg>
