<?xml version="1.0" encoding="UTF-8" standalone="no"?>
<svg xmlns="http://www.w3.org/2000/svg" height="16" style="enable-background:new" version="1.1" width="16">
 <title>
  Paper Symbolic Icon Theme
 </title>
 <g transform="translate(-325.0029,20.019037)">
  <g transform="matrix(0.87500002,0,0,0.87500002,38.127893,-489.21097)">
   <g transform="matrix(0.66666667,0,0,0.66666667,70.95238,189.83024)">
    <g transform="matrix(1.090909,0,0,1.090909,30.344185,-60.551687)">
     <g transform="matrix(0.05404131,0,0,0.05404131,327,533.3622)" style="fill:#4d4d4d;fill-opacity:1">
      <g style="fill:#4d4d4d;fill-opacity:1">
       <path d="M 402.115,84.008 323.088,4.981 C 319.899,1.792 315.574,0 311.063,0 L 17.005,0 C 7.613,0 0,7.614 0,17.005 l 0,373.086 c 0,9.392 7.613,17.005 17.005,17.005 l 373.086,0 c 9.392,0 17.005,-7.613 17.005,-17.005 l 0,-294.059 c 0,-4.509 -1.791,-8.835 -4.981,-12.024 z m -101.451,79.559 -233.535,0 0,-124.705 233.535,0 0,124.705 z" style="fill:#4d4d4d;fill-opacity:1"/>
       <path d="m 214.051,148.16 43.08,0 c 3.131,0 5.668,-2.538 5.668,-5.669 l 0,-82.907 c 0,-3.13 -2.537,-5.668 -5.668,-5.668 l -43.08,0 c -3.131,0 -5.668,2.538 -5.668,5.668 l 0,82.907 c 0,3.131 2.537,5.669 5.668,5.669 z" style="fill:#4d4d4d;fill-opacity:1"/>
      </g>
     </g>
    </g>
   </g>
  </g>
 </g>
</svg>
