<?xml version="1.0" encoding="UTF-8" standalone="no"?>
<svg xmlns="http://www.w3.org/2000/svg" height="16" style="enable-background:new" version="1.1" width="16">
 <title>
  Paper Symbolic Icon Theme
 </title>
 <g transform="translate(-446.00043,-19.989926)">
  <g transform="matrix(0.70822573,0,0,0.70822573,215.32836,-358.24985)">
   <g transform="translate(-1,1.0000003)">
    <g transform="matrix(0.8,0,0,0.8,17.542856,118.92379)">
     <g transform="translate(27.682101,0.12839698)">
      <g transform="matrix(0.97603016,0,0,-0.97603016,8.9380976,1042.0695)">
       <g transform="translate(0,2.1929912e-5)">
        <g transform="matrix(0.4355426,0,0,-0.4355426,149.60401,752.16898)">
         <g transform="translate(547.69352,-328.43725)">
          <g transform="matrix(0.12613922,0,0,0.12613922,-162.53176,751.54587)">
           <g transform="translate(673.22783,402.74069)">
            <g style="fill:#4d4d4d;fill-opacity:1" transform="matrix(35.175854,0,0,35.175854,56.182667,-36312.669)">
             <g transform="matrix(0.90537551,0,0,0.90537551,-365.91682,562.06022)" style="fill:#4d4d4d;fill-opacity:1;">
              <g transform="matrix(0.05349368,0,0,0.05349368,440.48894,510.84577)" style="fill:#4d4d4d;fill-opacity:1;">
               <g transform="matrix(2.6108213,0,0,2.6108213,-768.22476,390.2786)" style="fill:#4d4d4d;fill-opacity:1;">
                <path transform="matrix(5.2409858,0,0,5.2409858,39.736038,-52.428275)" d="m 0.79101562,3.0019531 c -0.21141061,0 -0.38085937,0.1694488 -0.38085937,0.3808594 l 0,15.5722655 L 21.589844,19 l 0,-13.3632812 c 0,-0.2114107 -0.171402,-0.3828125 -0.382813,-0.3828126 l -11.4804685,0 C 9.3376046,5.2883045 9.2879074,5.2370253 9.0957031,4.9804688 8.8231388,4.6156946 8.4109099,3.6331659 8.1425781,3.2773438 7.9272003,2.9658117 7.8923532,3.0019531 7.5351562,3.0019531 l -6.74414058,0 z m 9.46875038,6.0585938 1.482422,0 c -0.0021,0.7107198 0,2.5820311 0,2.5820311 l 2.404296,0 0,1.482422 -2.404296,0 c 0,0 -8.65e-4,1.868145 -0.002,2.582031 l -1.482422,0 c 0.0011,-0.713886 0.002,-2.582031 0.002,-2.582031 0,0 -1.6101967,-0.0011 -2.4062504,0 l 0,-1.480469 c 0.7960537,-0.0021 2.4062504,-0.002 2.4062504,-0.002 0,0 -0.0011,-1.8713608 0,-2.5820311 z" style="fill:#4d4d4d;fill-opacity:1;"/>
               </g>
              </g>
             </g>
            </g>
           </g>
          </g>
         </g>
        </g>
       </g>
      </g>
     </g>
    </g>
   </g>
  </g>
 </g>
</svg>
