<?xml version="1.0" encoding="UTF-8" standalone="no"?>
<svg xmlns="http://www.w3.org/2000/svg" height="16" version="1.1" width="16">
 <g transform="translate(-301.00022,-29)">
  <g style="enable-background:new" transform="matrix(0,-1,1,0,301.00022,45)">
   <g transform="translate(-361.0002,-29.000017)">
    <g transform="matrix(0.9375,0,0,-0.9375,53.062699,548.2771)">
     <g transform="matrix(-1.082475,0,0,-1.082475,348.79191,1673.0369)">
      <g style="fill:#4d4d4d;fill-opacity:1" transform="matrix(1.1827033e-4,0.03271224,-0.03271224,1.1827033e-4,18.268695,1034.3501)">
       <path style="fill:#4d4d4d;fill-opacity:1" d="M 321.4673,243.88824 166.0377,399.31305 c -9.8872,9.892 -25.9176,9.892 -35.8,0 -9.8832,-9.8832 -9.8832,-25.9128 0,-35.79521 L 267.7689,225.99064 130.2417,88.468244 c -9.8832,-9.8872 -9.8832,-25.9152 0,-35.7984 9.8832,-9.8872 25.9128,-9.8872 35.8,0 L 321.4713,208.09704 c 4.9416,4.944 7.4096,11.4168 7.4096,17.8928 0,6.4792 -2.4728,12.9568 -7.4136,17.8984 z"/>
      </g>
     </g>
    </g>
   </g>
  </g>
 </g>
</svg>
