<?xml version="1.0" encoding="UTF-8" standalone="no"?>
<svg xmlns="http://www.w3.org/2000/svg" style="enable-background:new" height="16.012" width="16" version="1.1">
 <title>
  Paper Symbolic Icon Theme
 </title>
 <g transform="translate(-265 -100.99)" style="fill:#4d4d4d;fill-opacity:1">
  <path style="enable-background:new;fill:#4d4d4d;fill-opacity:1" d="m270 100.99c-2.77 0-5 2.23-5 5s2.23 5 5 5h2v-2h-2c-1.662 0-3-1.338-3-3s1.338-3 3-3h2v-2h-2zm4 0v2h2c1.662 0 3 1.338 3 3s-1.338 3-3 3h-2v2h2c2.77 0 5-2.23 5-5s-2.23-5-5-5h-2zm-4 4v2h6v-2h-6z"/>
  <path style="enable-background:new;fill:#4d4d4d;fill-opacity:1" d="m270 113 3.0002 4 2.9998-4z"/>
 </g>
</svg>
