<?xml version="1.0" encoding="UTF-8" standalone="no"?>
<svg xmlns="http://www.w3.org/2000/svg" height="16" version="1.1" width="16">
 <g transform="translate(-301.00062,-129.00002)">
  <g transform="matrix(0.875,0,0,0.875,14.12562,-340.1919)">
   <g style="fill:#da4453;fill-opacity:1" transform="matrix(0.9999916,0,0,0.9999916,-0.99716032,1.0045739)">
    <g style="fill:#da4453;fill-opacity:1" transform="matrix(0.66666664,0,0,0.66666664,70.952398,189.83021)">
     <g style="fill:#da4453;fill-opacity:1" transform="matrix(-1.3457064,0,0,1.3457064,1157.1236,-300.80954)">
      <path d="m 562.19713,609.79679 c -4.9171,0 -8.91732,4.00026 -8.91732,8.91733 0,4.91706 4.00017,8.91732 8.91728,8.91732 4.91705,0 8.91722,-4.00026 8.91722,-8.91732 0,-4.91707 -4.00017,-8.91733 -8.91718,-8.91733 z m 0,3.0143 c 1.08168,0 2.09614,0.29272 2.96891,0.80269 l -8.06925,8.06925 c -0.51002,-0.87274 -0.80274,-1.88724 -0.80274,-2.96891 0,-3.25497 2.64816,-5.90303 5.90308,-5.90303 z m 0,11.80606 c -1.08171,0 -2.09613,-0.29272 -2.96891,-0.80269 l 8.06925,-8.06925 c 0.50997,0.87277 0.80269,1.88723 0.80269,2.96891 0,3.25496 -2.64816,5.90303 -5.90303,5.90303 z" style="fill:#da4453;fill-opacity:1"/>
     </g>
    </g>
   </g>
  </g>
 </g>
</svg>
