<?xml version="1.0" encoding="UTF-8" standalone="no"?>
<svg xmlns="http://www.w3.org/2000/svg" style="enable-background:new" height="16" width="16" version="1.1">
 <title>
  Paper Symbolic Icon Theme
 </title>
 <g transform="translate(-345 -100.97)" style="fill:#4d4d4d;fill-opacity:1">
  <path style="fill:#4d4d4d;fill-opacity:1" d="m347 104c-0.554 0-1 0.446-1 1v8c0 0.554 0.446 1 1 1h12c0.554 0 1-0.446 1-1v-8c0-0.554-0.446-1-1-1zm1 5h2v1h-2zm3 0h4v1h-4zm5 0h2v1h-2zm-8 2h1v1h-1zm2 0h4v1h-4zm5 0h3v1h-3z"/>
 </g>
</svg>
