<?xml version="1.0" encoding="UTF-8" standalone="no"?>
<svg style="enable-background:new" xmlns="http://www.w3.org/2000/svg" height="16" width="16" version="1.1">
 <title>
  Paper Symbolic Icon Theme
 </title>
 <g transform="translate(-465 19.003)">
  <path style="enable-background:new;fill:#555" d="m471.49-18.006c3.0288 0 5.5312 2.4746 5.5312 5.5 0 1.1499-0.38921 2.2078-1 3.0938l3.6875 3.6875a1.0055 1.0055 0 1 1 -1.4062 1.4375l-3.6875-3.6875c-0.88729 0.61091-1.973 0.96875-3.125 0.96875-3.0289 0-5.5-2.4746-5.5-5.5s2.4711-5.5 5.5-5.5zm0 2c-1.9474 0-3.5 1.5548-3.5 3.5 0 1.9451 1.5526 3.5 3.5 3.5s3.5-1.5549 3.5-3.5c0-1.9452-1.5526-3.5-3.5-3.5z"/>
 </g>
</svg>
