<?xml version="1.0" encoding="UTF-8" standalone="no"?>
<svg xmlns="http://www.w3.org/2000/svg" version="1.1" width="16" height="16" viewBox="0 0 16 16">
 <title>
  Gnome Symbolic Icon Theme
 </title>
 <g transform="matrix(0.75,0,0,0.75,-244.75,-401.02165)">
  <g transform="matrix(0.67322778,0,0,0.67322778,67.324185,187.34101)">
   <g transform="matrix(1.4861058,0,0,1.4861058,-242.47995,-265.98878)" style="fill:#4d4d4d;fill-opacity:1">
    <g style="fill:#4d4d4d;fill-opacity:1" transform="translate(-14.826669,-2.8964678)">
     <g transform="matrix(0.05593646,0,0,0.05593646,439.43695,531.71068)" style="fill:#4d4d4d;fill-opacity:1">
      <path d="M 117.18,31.592 C 111.585,22.006 103.995,14.416 94.409,8.821 84.821,3.226 74.354,0.429 63.001,0.429 51.649,0.429 41.179,3.226 31.593,8.821 22.006,14.415 14.416,22.005 8.821,31.592 3.225,41.179 0.428,51.649 0.428,63 c 0,11.352 2.798,21.82 8.392,31.408 5.595,9.585 13.185,17.176 22.772,22.771 9.587,5.595 20.056,8.392 31.408,8.392 11.352,0 21.822,-2.797 31.408,-8.392 9.586,-5.594 17.176,-13.185 22.771,-22.771 5.594,-9.587 8.391,-20.057 8.391,-31.408 0,-11.352 -2.797,-21.822 -8.39,-31.408 z" style="fill:#4d4d4d;fill-opacity:1"/>
     </g>
     <g transform="matrix(0.05593646,0,0,0.05593646,439.51194,540.69898)" style="fill:#4d4d4d;fill-opacity:1">
      <path d="M 117.18,31.592 C 111.585,22.006 103.995,14.416 94.409,8.821 84.821,3.226 74.354,0.429 63.001,0.429 51.649,0.429 41.179,3.226 31.593,8.821 22.006,14.415 14.416,22.005 8.821,31.592 3.225,41.179 0.428,51.649 0.428,63 c 0,11.352 2.798,21.82 8.392,31.408 5.595,9.585 13.185,17.176 22.772,22.771 9.587,5.595 20.056,8.392 31.408,8.392 11.352,0 21.822,-2.797 31.408,-8.392 9.586,-5.594 17.176,-13.185 22.771,-22.771 5.594,-9.587 8.391,-20.057 8.391,-31.408 0,-11.352 -2.797,-21.822 -8.39,-31.408 l 0,0 z" style="fill:#4d4d4d;fill-opacity:1"/>
     </g>
     <g transform="matrix(0.05593646,0,0,0.05593646,448.58654,531.70678)" style="fill:#4d4d4d;fill-opacity:1">
      <path d="M 117.18,31.592 C 111.585,22.006 103.995,14.416 94.409,8.821 84.821,3.226 74.354,0.429 63.001,0.429 51.649,0.429 41.179,3.226 31.593,8.821 22.006,14.415 14.416,22.005 8.821,31.592 3.225,41.179 0.428,51.649 0.428,63 c 0,11.352 2.798,21.82 8.392,31.408 5.595,9.585 13.185,17.176 22.772,22.771 9.587,5.595 20.056,8.392 31.408,8.392 11.352,0 21.822,-2.797 31.408,-8.392 9.586,-5.594 17.176,-13.185 22.771,-22.771 5.594,-9.587 8.391,-20.057 8.391,-31.408 0,-11.352 -2.797,-21.822 -8.39,-31.408 l 0,0 z" style="fill:#4d4d4d;fill-opacity:1"/>
     </g>
     <g transform="matrix(0.05593646,0,0,0.05593646,448.4929,540.65041)" style="fill:#4d4d4d;fill-opacity:1">
      <path d="M 117.18,31.592 C 111.585,22.006 103.995,14.416 94.409,8.821 84.821,3.226 74.354,0.429 63.001,0.429 51.649,0.429 41.179,3.226 31.593,8.821 22.006,14.415 14.416,22.005 8.821,31.592 3.225,41.179 0.428,51.649 0.428,63 c 0,11.352 2.798,21.82 8.392,31.408 5.595,9.585 13.185,17.176 22.772,22.771 9.587,5.595 20.056,8.392 31.408,8.392 11.352,0 21.822,-2.797 31.408,-8.392 9.586,-5.594 17.176,-13.185 22.771,-22.771 5.594,-9.587 8.391,-20.057 8.391,-31.408 0,-11.352 -2.797,-21.822 -8.39,-31.408 z" style="fill:#4d4d4d;fill-opacity:1"/>
     </g>
    </g>
   </g>
  </g>
 </g>
</svg>
