<svg xmlns="http://www.w3.org/2000/svg" height="641.25" width="641.25" version="1.1" viewBox="0 0 641.25 641.25">
 <path d="m295.18 606.82c-62.74-4.3-113.82-21.43-135.89-45.58-7.86-8.6-9.98-13.2-12.31-26.66-6.43-37.13-69.572-376.87-71.224-383.2-11.305-43.3 34.824-82.525 122.33-104.01 20.04-4.924 50.5-9.797 74.66-11.95 21.696-1.9333 72.054-1.9333 93.75 0 105.87 9.4335 185.11 45.925 197.05 90.738 2.3058 8.6533 2.1093 15.267-0.80915 27.233-3.15 12.94-71.24 382-71.24 386.17 0 1.6919-1.7246 6.5273-3.8324 10.745-10.697 21.406-46.563 40.376-95.001 50.247-26.96 5.4942-69.197 8.2114-97.491 6.2717z" fill="#98999b"/>
 <path d="m291.39 212.24c-76.347-3.8062-146.9-24.951-177.36-53.157-7.7315-7.158-13.895-17.368-13.873-22.983 0.0363-9.5022 11.721-23.701 28.113-34.163 70.152-44.773 215.32-56.696 321.74-26.425 36.759 10.456 64.534 24.704 79.878 40.974 10.374 11 12.33 17.98 7.8213 27.91-10.593 23.331-57.761 47.086-117.11 58.979-23.889 4.787-46.631 7.5048-74.808 8.9399-24.664 1.2561-27.788 1.2518-54.399-0.0747z" fill="#323232"/>
 <g fill="#ffffff">
  <path d="m180.88 193.41c-29.794-9.471-30.324-10.844-30.681-23.854-0.15851-5.7876-0.37466-11.49-0.48033-12.671-0.24581-2.7487 60.214-45.644 64.527-45.782 1.7805-0.0567 5.5534 0.77762 8.3844 1.8539l5.1471 1.957-5.001 6.2087c-20.386 25.309-31.942 41.635-31.942 45.128 0 2.2538 3.0374 10.763 6.7498 18.909 3.7124 8.1463 6.5158 15.045 6.2297 15.332-0.28604 0.28604-10.979-3.2809-22.935-7.0812z"/>
  <path d="m468.46 184.47c0-3.8418-3.9167-9.7955-14.22-21.615-15.979-18.33-16.219-17.29 4.6677-20.163 9.1374-1.2567 10.313-0.94685 15.656 4.1277 10.385 9.8622 26.251 29.445 23.771 30.906-2.2469 1.8027-31.027 14.02-33.718 14.02-1.0886 0 3.8418-4.3604 3.8418-7.2767z"/>
  <path d="m270.12 211.54c-21.708-2.4976-60.559-9.7074-66.197-10.952-5.2341-1.1557-6.5404-5.3787-11.725-18.256-3.4381-8.5397-6.2511-16.33-6.2511-17.313 0-1.7585 25.92-35.044 46.98-60.33 5.9215-7.1097 12.16-12.945 13.864-12.968 4.4048-0.05887 82.108 9.3357 87.58 10.589 3.0417 0.6965 5.843 3.9172 8.4625 9.7296 2.1536 4.7786 5.1466 9.152 6.6509 9.7187 1.5044 0.56661 13.643-1.214 26.974-3.9568 13.331-2.7429 25.999-4.987 28.151-4.987 4.8754 0 67.135 64.105 67.135 69.125 0 4.0788-0.30297 7.7962-5.5705 9.5387-4.9933 1.6518-13.336 4.9211-24.771 7.6906-40.574 9.8272-60.555 13.517-114.85 14.127-27.454 0.30887-52.66-1.3215-56.428-1.7551z"/>
 </g>
</svg>
