<svg height="512" viewBox="0 0 512 512" width="512" xmlns="http://www.w3.org/2000/svg">
 <path d="m471.95 253.05c0 120.9-98.01 218.9-218.9 218.9-120.9 0-218.9-98.01-218.9-218.9 0-120.9 98.01-218.9 218.9-218.9 120.9 0 218.9 98.01 218.9 218.9" fill="#c50e0e" fill-rule="evenodd"/>
 <path d="m286.8 129.63c-20.959 1.597-36.14 15.05-44.807 40.28-12.518 36.458-33.692 58.13-70.893 72.27-21.982 8.352-29.674 13.949-36.521 27.06-5.52 10.573-6.664 26.08-3.069 39.05 2.393 8.632 14.849 22.891 24.552 27.984 9.188 4.823 26.411 5.415 51.865 1.538 14.918-2.272 18.515-2.399 32.22.308 19.299 3.81 37.517 12.999 53.09 26.446 14.41 12.441 20.19 15.466 31.3 17.221 10.786 1.703 19.1.618 30.08-3.998 9.766-4.108 20.497-15.07 24.859-25.22 1.621-3.77 3.05-12.03 3.069-18.758.041-14.525-4.4-24.467-15.959-37.824-11.278-13.03-19.319-26.06-23.938-38.747-5.492-15.09-6.661-45.33-2.455-64.27 4.72-21.258.75-35.931-13.196-49.2-9.804-9.33-17.801-13.08-30.996-14.15-3.237-.26-6.213-.228-9.207 0m-20.255 95.94c10.762-.234 21.912 3.786 30.69 12.301 21.836 21.18 16.646 55.21-10.434 68.883-8.571 4.328-22.51 5.255-32.22 2.153-9.154-2.924-20.13-12.161-25.17-21.526-2.124-3.952-3.036-10.429-3.069-19.07-.042-10.916.801-13.998 5.217-21.526 7.937-13.53 21.15-20.918 34.986-21.22" fill="#f9f9f9"/>
 <circle cx="256" stroke="#fefefe" cy="256" r="181.13" stroke-width="18.771" fill="none"/>
</svg>
