<svg viewBox="0 0 512 512" xmlns="http://www.w3.org/2000/svg">
 <path d="m471.95 253.05c0 120.9-98.01 218.91-218.91 218.91-120.9 0-218.91-98.01-218.91-218.91 0-120.9 98.01-218.91 218.91-218.91 120.9 0 218.91 98.01 218.91 218.91" fill="#ef6a47" fill-rule="evenodd"/>
 <path d="m130.22 71.844c-57.98 39.38-96.09 105.85-96.09 181.22 0 75.37 38.11 141.81 96.09 181.19zm251.56 4.156v354.09c54.637-39.803 90.16-104.26 90.16-177.03 0-72.77-35.519-137.26-90.16-177.06" fill="#282629" fill-rule="evenodd"/>
 <path d="m81.41 117.19c-9.698 12.234-18.1 25.534-25.03 39.688h22.813c6.754 0 12.188-5.538 12.188-12.406v-15.09c0-6.097-4.282-11.131-9.969-12.188m344.72 1.844c-3.315 2.215-5.531 6-5.531 10.344v15.09c0 6.868 5.465 12.406 12.219 12.406h16.906c-6.587-13.444-14.504-26.12-23.594-37.844m-369.69 72.844c-6.754 0-12.25 5.507-12.25 12.375v15.09c0 6.868 5.496 12.406 12.25 12.406h22.75c6.754 0 12.188-5.538 12.188-12.406v-15.09c0-6.868-5.434-12.375-12.188-12.375zm376.38 0c-6.754 0-12.219 5.507-12.219 12.375v15.09c0 6.868 5.465 12.406 12.219 12.406h22.781c6.754 0 12.188-5.538 12.188-12.406v-8.938c-.99-5.01-2.143-9.962-3.469-14.844-2.207-2.273-5.31-3.688-8.719-3.688h-22.781m-376.37 74.875c-6.754 0-12.25 5.538-12.25 12.406v15.09c0 6.868 5.496 12.375 12.25 12.375h22.75c6.754 0 12.188-5.507 12.188-12.375v-15.09c0-6.868-5.434-12.406-12.188-12.406zm376.38 0c-6.754 0-12.219 5.538-12.219 12.406v15.09c0 6.868 5.465 12.375 12.219 12.375h22.781c5.909 0 10.836-4.22 11.969-9.875.162-.808.219-1.642.219-2.5v-15.09c0-6.868-5.434-12.406-12.188-12.406zm-376.37 74.875c-1.178 0-2.329.185-3.406.5 6.232 13.973 13.891 27.16 22.781 39.41h3.375c6.754 0 12.188-5.538 12.188-12.406v-15.09c0-6.868-5.434-12.406-12.188-12.406h-22.75m376.38 0c-6.754 0-12.219 5.538-12.219 12.406v15.09c0 6.04 4.259 11.04 9.875 12.156 8.912-12.31 16.555-25.604 22.781-39.656h-20.438" fill="#b7b7b7" fill-rule="evenodd"/>
 <path d="m256 1c-140.83 0-255 114.17-255 255 0 140.83 114.17 255 255 255 140.83 0 255-114.17 255-255 0-140.83-114.17-255-255-255m8.827 44.931c120.9 0 218.9 98 218.9 218.9 0 120.9-98 218.9-218.9 218.9-120.9 0-218.93-98-218.93-218.9 0-120.9 98.03-218.9 218.93-218.9" fill-opacity=".067" fill-rule="evenodd"/>
 <rect fill="#282629" fill-rule="evenodd" height="35.28" rx="17.642" ry="17.64" width="311.41" x="100.29" y="238.36"/>
 <path d="m288.52 373.25l112.22-36.873-34.35-19.696c3.437-9.671 5.27-19.84 5.27-30.69 0-51.02-41.27-92.52-92.3-92.52-9.981 0-19.623 1.881-28.627 4.809 37.02 12.04 63.893 46.676 63.893 87.71 0 .266.002.419 0 .685l-50.15-28.855 24.05 115.43m-55.884-54.735c9.981 0 19.623-1.881 28.627-4.81-37.02-12.04-63.893-46.676-63.893-87.71 0-.266-.002-.419 0-.685l50.15 28.855-24.05-115.42-112.22 36.873 34.35 19.695c-3.437 9.67-5.27 19.84-5.27 30.69 0 51.02 41.27 92.52 92.3 92.52" fill="#ffffff"/>
 <circle cx="256" stroke="#fefefe" cy="256" r="181.13" stroke-width="18.771" fill="none"/>
</svg>
