<svg height="512" viewBox="0 0 512 512" width="512" xmlns="http://www.w3.org/2000/svg">
 <path d="m471.95 253.05c0 120.9-98.01 218.9-218.9 218.9-120.9 0-218.9-98.01-218.9-218.9 0-120.9 98.01-218.9 218.9-218.9 120.9 0 218.9 98.01 218.9 218.9" fill="#924565" fill-rule="evenodd"/>
 <path d="m256 1c-140.83 0-255 114.17-255 255 0 140.83 114.17 255 255 255 140.83 0 255-114.17 255-255 0-140.83-114.17-255-255-255m8.827 44.931c120.9 0 218.9 98 218.9 218.9 0 120.9-98 218.9-218.9 218.9-120.9 0-218.93-98-218.93-218.9 0-120.9 98.03-218.9 218.93-218.9" fill-opacity=".067" fill-rule="evenodd"/>
 <path d="m249.43 108.98c-45.892.918-80.893 24.352-96.62 45.33l99.21 72.966 30.826-115.04c-11.65-2.497-22.823-3.464-33.414-3.252m40.515 28.835l-29.399 113.81-110.36 63.58c20.432 41.27 62.985 69.65 112.15 69.65 69.07 0 125.06-55.993 125.06-125.06 0-59.58-41.675-109.4-97.45-121.98m-145.9 33.679c-43.36 52.54-32.04 110.99-12.344 141.59l111.62-68.72-99.28-72.867" fill="#ffffff" fill-rule="evenodd"/>
 <circle cx="256" stroke="#fefefe" cy="256" r="181.13" stroke-width="18.771" fill="none"/>
</svg>
