<?xml version="1.0" encoding="UTF-8" standalone="no"?>
<svg
   xmlns:dc="http://purl.org/dc/elements/1.1/"
   xmlns:cc="http://creativecommons.org/ns#"
   xmlns:rdf="http://www.w3.org/1999/02/22-rdf-syntax-ns#"
   xmlns:svg="http://www.w3.org/2000/svg"
   xmlns="http://www.w3.org/2000/svg"
   xmlns:sodipodi="http://sodipodi.sourceforge.net/DTD/sodipodi-0.dtd"
   xmlns:inkscape="http://www.inkscape.org/namespaces/inkscape"
   viewBox="0 0 512 512"
   id="svg2"
   version="1.1"
   inkscape:version="0.91 r13725"
   sodipodi:docname="calligraplanwork.svg">
  <metadata
     id="metadata18">
    <rdf:RDF>
      <cc:Work
         rdf:about="">
        <dc:format>image/svg+xml</dc:format>
        <dc:type
           rdf:resource="http://purl.org/dc/dcmitype/StillImage" />
        <dc:title></dc:title>
      </cc:Work>
    </rdf:RDF>
  </metadata>
  <defs
     id="defs16" />
  <sodipodi:namedview
     pagecolor="#ffffff"
     bordercolor="#666666"
     borderopacity="1"
     objecttolerance="10"
     gridtolerance="10"
     guidetolerance="10"
     inkscape:pageopacity="0"
     inkscape:pageshadow="2"
     inkscape:window-width="640"
     inkscape:window-height="480"
     id="namedview14"
     showgrid="false"
     inkscape:zoom="0.4609375"
     inkscape:cx="256"
     inkscape:cy="256"
     inkscape:current-layer="svg2" />
  <path
     d="m471.95 253.05c0 120.9-98.01 218.91-218.91 218.91-120.9 0-218.91-98.01-218.91-218.91 0-120.9 98.01-218.91 218.91-218.91 120.9 0 218.91 98.01 218.91 218.91"
     fill="#e24a4a"
     fill-rule="evenodd"
     id="path4" />
  <path
     d="m37.625 213.91c-2.294 12.704-3.5 25.791-3.5 39.16 0 25.55 4.392 50.05 12.438 72.844h412.94c8.04-22.796 12.438-47.3 12.438-72.844 0-13.365-1.175-26.452-3.469-39.16h-430.84z"
     fill="#34e364"
     id="path6" />
  <path
     d="m253.03 34.16c-120.9 0-218.91 98.01-218.91 218.91 0 1.438.035 2.85.063 4.281h437.69c.028-1.431.063-2.843.063-4.281 0-120.9-98.01-218.91-218.91-218.91z"
     fill="#499de7"
     id="path8" />
  <path
     d="m 351.26487,153.29492 -126.69978,126.69977 -62.17475,-62.17475 -1.17017,-1.17017 -39.5972,39.59719 1.17183,1.17018 101.7736,101.7736 1.17183,1.17017 1.17017,1.17017 166.29863,-166.29862 -1.17017,-1.17017 -1.17018,-1.17018 -38.42371,-38.42371 -1.17017,-1.17017 z"
     id="path10"
     inkscape:connector-curvature="0"
     style="fill:#ffffff" />
  <circle
     cx="256"
     stroke="#fefefe"
     cy="256"
     r="181.13"
     stroke-width="18.771"
     fill="none"
     id="circle12" />
</svg>
