<svg height="512" viewBox="0 0 512 512" width="512" xmlns="http://www.w3.org/2000/svg" xmlns:xlink="http://www.w3.org/1999/xlink">
 <defs>
  <path id="a" d="m261.63 150.37l-21.929 5.586-7.83 21.23-12.09-19.13-22.612-.886 14.457-17.409-6.145-21.779 21.02 8.37 18.814-12.574-1.464 22.582z" fill="#ffffff" fill-rule="evenodd" stroke="#ffffff"/>
 </defs>
 <path d="m471.95 253.05c0 120.9-98.01 218.9-218.9 218.9-120.9 0-218.9-98.01-218.9-218.9 0-120.9 98.01-218.9 218.9-218.9 120.9 0 218.9 98.01 218.9 218.9" fill="#55405f" fill-rule="evenodd"/>
 <path d="m34.188 257.06c2.144 119.04 99.322 214.88 218.87 214.88 72.18 0 136.19-34.93 176.06-88.82-30.37-17.85-54.07-32.73-57.24-37.5-9.79-14.67-61.16-41.58-95.41-51.37s-154.14-4.88-183.5-12.22c-8.696-2.17-31.265-12.17-58.782-24.97z" fill="#19171c"/>
 <path d="m198.33 189.04c-47.881 8.2085-84.31 49.91-84.31 100.13 0 56.115 45.479 101.6 101.6 101.6 50.223 0 91.923-36.429 100.13-84.31-13.366 33.105-45.784 56.477-83.68 56.477-49.822 0-90.213-40.389-90.213-90.213 0-37.893 23.37-70.314 56.477-83.68z" fill="#ffffff" fill-rule="evenodd" stroke="#ffffff" stroke-width=".886"/>
 <use height="1" transform="matrix(.88635 0 0 .88635 -9.5055 20.186)" width="1" xlink:href="#a"/>
 <use height="1" transform="matrix(.88635 0 0 .88635 143.6 51.527)" width="1" xlink:href="#a"/>
 <use height="1" transform="matrix(.88635 0 0 .88635 79.138 -4.88)" width="1" xlink:href="#a"/>
 <use height="1" transform="matrix(.88635 0 0 .88635 171.35 135.69)" width="1" xlink:href="#a"/>
 <use height="1" transform="matrix(.88635 0 0 .88635 54.959 85.545)" width="1" xlink:href="#a"/>
 <circle cx="256" stroke="#fefefe" cy="256" r="181.13" stroke-width="18.771" fill="none"/>
</svg>
