<svg height="512" viewBox="0 0 512 512" width="512" xmlns="http://www.w3.org/2000/svg">
 <path d="m471.95 253.05c0 120.9-98.01 218.91-218.91 218.91-120.9 0-218.91-98.01-218.91-218.91 0-120.9 98.01-218.91 218.91-218.91 120.9 0 218.91 98.01 218.91 218.91" fill="#2d83be" fill-rule="evenodd"/>
 <path d="m293.39 121.17l129.04 42.4-39.501 22.648c3.952 11.12 6.06 22.814 6.06 35.29 0 58.664-47.46 106.39-106.13 106.39-11.477 0-22.564-2.163-32.918-5.53 42.572-13.846 73.47-53.672 73.47-100.86 0-.306.002-.482 0-.788l-57.67 33.18 27.65-132.73m-64.26 62.939c11.477 0 22.564 2.163 32.918 5.531-42.572 13.847-73.47 53.672-73.47 100.86 0 .306-.002.482 0 .788l57.672-33.18-27.651 132.72-129.04-42.4 39.501-22.647c-3.952-11.12-6.06-22.814-6.06-35.29 0-58.663 47.46-106.39 106.13-106.39" fill="#ffffff"/>
 <circle cx="256" stroke="#fefefe" cy="256" r="181.13" stroke-width="18.771" fill="none"/>
</svg>
