<svg width="512" height="512" version="1.1" viewBox="0 0 512 512" xmlns="http://www.w3.org/2000/svg">
 <path d="m471.95 253.05c0 120.9-98.01 218.9-218.9 218.9-120.9 0-218.9-98.01-218.9-218.9 0-120.9 98.01-218.9 218.9-218.9 120.9 0 218.9 98.01 218.9 218.9" fill="#0096bb" fill-rule="evenodd"/>
 <text x="729.64" y="231.36"/>
 <text x="1310.91" y="151.36"/>
 <text x="239.33" y="-29.9"/>
 <text x="1337.38" y="-246.37"/>
 <text x="1918.65" y="-326.38"/>
 <text x="1529.53" y="-798.78"/>
 <text x="2110.79" y="-878.78"/>
 <text x="277.99" y="535.94"/>
 <path d="m210.01 126.68c-4.3836 0-7.9265 3.5427-7.9265 7.9265v34.64c0 4.3836 3.5427 7.8799 7.9265 7.8799 4.3836 0 7.9265-3.4971 7.9265-7.8799v-34.64c0-4.3836-3.5427-7.9265-7.9265-7.9265zm43.999 0c-4.3836 0-7.8799 3.5427-7.8799 7.9265v34.64c0 4.3836 3.4971 7.8799 7.8799 7.8799 4.3836 0 7.9265-3.4971 7.9265-7.8799v-34.64c0-4.3836-3.5427-7.9265-7.9265-7.9265zm44.022 0c-4.3836 0-7.9265 3.5427-7.9265 7.9265v34.64c0 4.3836 3.5427 7.8799 7.9265 7.8799 4.3836 0 7.8799-3.4971 7.8799-7.8799v-34.64c0-4.3836-3.4971-7.9265-7.8799-7.9265zm-88.76 61.839c-12.054 0-21.745 9.7374-21.745 21.792v89.987c0 12.054 9.6946 21.769 21.745 21.769h89.499c12.054 0 21.745-9.7167 21.745-21.769v-89.987c0-12.054-9.6946-21.792-21.745-21.792zm-74.917 14.834c-4.3836 0-7.9265 3.4971-7.9265 7.8799 0 4.3836 3.5427 7.9265 7.9265 7.9265h34.64c4.3836 0 7.8799-3.5427 7.8799-7.9265 0-4.3836-3.4971-7.8799-7.8799-7.8799zm208.7 0c-4.3836 0-7.9265 3.4971-7.9265 7.8799 0 4.3836 3.5427 7.9265 7.9265 7.9265h34.64c4.3836 0 7.8799-3.5427 7.8799-7.9265 0-4.3836-3.4971-7.8799-7.8799-7.8799zm-208.7 43.999c-4.3836 0-7.9265 3.5427-7.9265 7.9265 0 4.3836 3.5427 7.8799 7.9265 7.8799h34.64c4.3836 0 7.8799-3.4971 7.8799-7.8799 0-4.3836-3.4971-7.9265-7.8799-7.9265zm208.7 0c-4.3836 0-7.9265 3.5427-7.9265 7.9265 0 4.3836 3.5427 7.8799 7.9265 7.8799h34.64c4.3836 0 7.8799-3.4971 7.8799-7.8799 0-4.3836-3.4971-7.9265-7.8799-7.9265zm-208.7 43.999c-4.3836 0-7.9265 3.5427-7.9265 7.9265 0 4.3836 3.5427 7.9265 7.9265 7.9265h34.64c4.3836 0 7.8799-3.5427 7.8799-7.9265 0-4.3836-3.4971-7.9265-7.8799-7.9265zm208.7 0c-4.3836 0-7.9265 3.5427-7.9265 7.9265 0 4.3836 3.5427 7.9265 7.9265 7.9265h34.64c4.3836 0 7.8799-3.5427 7.8799-7.9265 0-4.3836-3.4971-7.9265-7.8799-7.9265zm-133.04 43.518c-4.3836 0-7.9265 3.5427-7.9265 7.9265v34.64c0 4.3836 3.5427 7.8799 7.9265 7.8799 4.3836 0 7.9265-3.4971 7.9265-7.8799v-34.64c0-4.3836-3.5427-7.9265-7.9265-7.9265zm43.999 0c-4.3836 0-7.8799 3.5427-7.8799 7.9265v34.64c0 4.3836 3.4971 7.8799 7.8799 7.8799 4.3836 0 7.9265-3.4971 7.9265-7.8799v-34.64c0-4.3836-3.5427-7.9265-7.9265-7.9265zm44.022 0c-4.3836 0-7.9265 3.5427-7.9265 7.9265v34.64c0 4.3836 3.5427 7.8799 7.9265 7.8799 4.3836 0 7.8799-3.4971 7.8799-7.8799v-34.64c0-4.3836-3.4971-7.9265-7.8799-7.9265z" fill="#ffffff" stroke-width=".73948"/>
 <circle cx="256" cy="256" r="181.13" fill="none" stroke="#fefefe" stroke-width="18.771"/>
</svg>
