<?xml version="1.0" encoding="UTF-8"?>
<svg width="512" height="512" version="1.1" viewBox="0 0 512 512" xmlns="http://www.w3.org/2000/svg">
 <path d="m471.95 253.05c0 120.9-98.01 218.9-218.9 218.9-120.9 0-218.9-98.01-218.9-218.9 0-120.9 98.01-218.9 218.9-218.9 120.9 0 218.9 98.01 218.9 218.9" fill="#6a81d8" fill-rule="evenodd" style="fill:#f4af3f"/>
 <path d="m215.73 135.64s-35.075-0.78199-71.943 26.875c0 0-36.857 66.814-36.857 149.25 0 0 21.494 37.111 78.073 38.905 0 0 9.4987-11.5 17.17-21.229-32.51-9.7294-44.804-30.199-44.804-30.199s2.553 1.794 7.153 4.347c0.253 0.25299 0.506 0.50599 1.0235 0.759 0.77049 0.51749 1.5409 0.77049 2.3115 1.288 6.4055 3.588 12.799 6.4055 18.687 8.7055 10.5 4.094 23 8.1995 37.617 11.017 19.205 3.588 41.722 4.8414 66.297 0.23 12.029-2.047 24.323-5.635 37.122-11.017 8.9585-3.3235 18.941-8.1879 29.439-15.099 0 0-12.788 20.988-46.345 30.463 7.6819 9.7294 16.882 20.735 16.882 20.735 56.638-1.8285 78.372-38.905 78.372-38.905 0-82.432-36.857-149.25-36.857-149.25-36.869-27.645-71.943-26.875-71.943-26.875l-3.565 4.094c43.516 13.317 63.732 32.51 63.732 32.51-26.623-14.593-52.727-21.746-77.05-24.564-18.434-2.047-36.109-1.5525-51.727 0.4945-1.541 0-2.8175 0.26449-4.347 0.52899-8.9585 0.7705-30.705 4.094-58.075 16.123-9.4763 4.347-15.099 7.4174-15.099 7.4174s21.241-20.217 67.32-33.534l-2.576-3.0705m-7.153 95.482c14.593 0 26.37 12.799 26.117 28.416 0 15.617-11.5 28.416-26.117 28.416-14.34 0-26.117-12.799-26.117-28.416 0-15.617 11.5-28.416 26.117-28.416m93.437 0c14.593 0 26.117 12.799 26.117 28.416 0 15.617-11.5 28.416-26.117 28.416-14.34 0-26.117-12.799-26.117-28.416 0-15.617 11.5-28.416 26.117-28.416" fill="#ffffff" style="stroke-width:.9339"/>
 <circle cx="256" cy="256" r="181.13" fill="none" stroke="#fefefe" stroke-width="18.771"/>
</svg>
