<?xml version="1.0" encoding="UTF-8" standalone="no"?>
<svg xmlns="http://www.w3.org/2000/svg" height="512" viewBox="0 0 512 512" width="512" version="1.1">
 <path d="m471.95 253.05c0 120.9-98.01 218.9-218.9 218.9-120.9 0-218.9-98.01-218.9-218.9 0-120.9 98.01-218.9 218.9-218.9 120.9 0 218.9 98.01 218.9 218.9" fill="#8d8d8d" fill-rule="evenodd" style="fill:#57a1cf;fill-opacity:1"/>
 <path d="m232.52282 102.79392c-8 0-6.629 5.307-6.629 5.307v109.11h-34.941c-10.235 0-.802 8.903-.802 8.903l62.02 74.951c0 0 5.069 5.955 10.376.628 7.364-7.342 60.13-77.4 60.13-77.4 0 0 9.363-9.336-3.054-9.336h-32.28v-107.68c0 0 .135-4.484-5.632-4.484h-49.19m-86.5 213.59c-17.988 0-31.995 14.575-31.995 32.558v4.852c0 17.988 14.01 32.02 31.995 32.02h220.2c17.988 0 32.02-14.03 32.02-32.02v-4.852c0-17.98-14.03-32.558-32.02-32.558zm204.49 12.412c12.247 0 22.29 10.04 22.29 22.29 0 12.247-10.04 22.29-22.29 22.29-12.247 0-22.247-10.04-22.247-22.29 0-12.247 9.999-22.29 22.247-22.29" fill="#ffffff"/>
 <circle cx="256" stroke="#fefefe" cy="256" r="181.13" stroke-width="18.771" fill="none"/>
</svg>
