<svg height="512" viewBox="0 0 512 512" width="512" xmlns="http://www.w3.org/2000/svg">
 <linearGradient id="a" gradientUnits="userSpaceOnUse" x2="0" y1="38.27" y2="472.59">
  <stop offset="0" stop-color="#4b4b4b"/>
  <stop offset=".686" stop-color="#5e5e5e"/>
  <stop offset=".722" stop-color="#2c2c2c"/>
  <stop offset="1" stop-color="#2c2c2c"/>
 </linearGradient>
 <path d="m471.95 253.05c0 120.9-98.01 218.9-218.9 218.9-120.9 0-218.9-98.01-218.9-218.9 0-120.9 98.01-218.9 218.9-218.9 120.9 0 218.9 98.01 218.9 218.9" fill="url(#a)" fill-rule="evenodd"/>
 <path d="m256 1c-140.83 0-255 114.17-255 255s114.17 255 255 255 255-114.17 255-255-114.17-255-255-255m8.827 44.931c120.9 0 218.9 98 218.9 218.9s-98 218.9-218.9 218.9-218.93-98-218.93-218.9 98.03-218.9 218.93-218.9" fill-opacity=".067" fill-rule="evenodd"/>
 <path d="m114.5 142.84v9.4375c28.983 1.9624 29.625 2.6214 29.625 20.938v121.25c10.891-.10134 21.764-.20621 32.656-.25v-32.031h46.094c27.995 0 29.317 7.8486 32.281 28.781h9.875v-70.031h-9.875c-2.9641 20.933-4.2866 28.875-32.281 28.875h-46.094v-83.781c0-10.793 1.319-11.75 12.188-11.75h32.562c38.204 0 45.795 7.5136 50.406 40.875h9.875v-52.312h-167.31zm191.09 0v9.4375c28.983 1.9624 29.625 2.6214 29.625 20.938v121.06c10.86-.0136 21.734-.004 32.594-.0625v-121c0-18.316.97169-18.975 29.625-20.938v-9.4375h-91.844zm-161.47 199.6c-.21958 14.72-2.7321 15.429-29.625 17.25v9.4688h97.156v-9.4688c-31.22-1.8061-34.486-2.5325-34.812-16.906-8.918.006-17.833.0262-26.75.0625-1.9698-.22917-3.9706-.3638-5.9688-.40625zm223.72.15625c-10.883.12331-21.772.22513-32.656.28125-.26633 14.281-2.9799 15.01-29.594 16.812v9.4688h91.844v-9.4688c-26.489-1.8142-29.317-2.5316-29.594-17.094z" fill="#ffffff"/>
 <path d="m113.09 308.26c-5.7102 0-10.275 4.6089-10.275 10.319 0 5.7102 4.5644 10.275 10.275 10.275h285.78c5.7102 0 10.319-4.5644 10.319-10.275 0-5.7102-4.6089-10.319-10.319-10.319z" fill="#ececec"/>
 <circle cx="256" stroke="#fefefe" cy="256" r="181.13" stroke-width="18.771" fill="none"/>
</svg>
