<?xml version="1.0" encoding="UTF-8"?>
<svg width="512" height="512" version="1.1" viewBox="0 0 512 512" xmlns="http://www.w3.org/2000/svg">
 <path d="m471.95 253.05c0 120.9-98.01 218.9-218.9 218.9-120.9 0-218.9-98.01-218.9-218.9 0-120.9 98.01-218.9 218.9-218.9 120.9 0 218.9 98.01 218.9 218.9" fill="#1793d1" fill-rule="evenodd" style="fill:#c23636"/>
 <path d="m299.35 362.22c2.1959-6.1981 2.4716-17.082 0.59-23.298-2.6598-8.788-5.3684-13.141-13.525-21.737-8.8883-9.3663-14.181-16.44-17.89-23.909-2.9161-5.873-5.8251-14.618-6.5589-19.717-0.38923-2.7046-0.73532-3.3757-1.7409-3.3757-1.0345 0-1.5194 1.0775-2.7592 6.1318-3.8669 15.764-9.1722 24.762-23.143 39.252-7.0338 7.2947-8.4599 9.1633-11.098 14.541-1.665 3.3938-3.4752 7.9431-4.0226 10.11-1.8452 7.3028-1.0064 17.994 1.9596 24.977 0.81065 1.9087-0.50932 1.3647-7.0135-2.8901-7.4944-4.9026-19.406-16.589-24.169-23.713-9.5688-14.31-14.079-29.325-14.066-46.833 0.0147-21.271 6.4963-38.507 20.789-55.283 32.924-38.643 47.962-83.83 41.967-126.1-0.36145-2.5485-0.54021-4.7507-0.39725-4.8936 0.35802-0.35803 8.2114 13.324 11.942 20.805 9.6917 19.436 18.328 47.217 21.105 67.889 0.69903 5.2036 0.96189 5.9485 2.0991 5.9485 0.89287 0 1.3623-0.51745 1.4992-1.6524 0.51807-4.2972 3.1316-13.13 6.7928-22.462 2.2128-5.64 4.7881-12.337 5.6068-14.881 1.33-4.1339 2.1441-11.602 2.2542-11.124 1.8e-4 6.6e-4 9e-3 -0.0958 5.3e-4 3e-3 1.1881 20.198 6.73 40.914 14.626 57.446 4.3422 8.9477 12.654 21.854 17.645 27.398 18.489 21.918 26.612 51.549 19.816 77.45-0.98771 3.5338-2.7632 8.8732-3.9455 11.865-4.4342 11.221-14.548 24.647-24.613 32.675-5.1655 4.1198-13.937 10.039-15.018 10.134-0.23622 0.0208 0.33449-2.1185 1.2682-4.754z" style="fill:#ffffff"/>
<circle cx="256" stroke="#fefefe" cy="256" r="181.13" stroke-width="18.771" fill="none" /></svg>
