<svg viewBox="0 0 512 512" xmlns="http://www.w3.org/2000/svg">
 <path d="m252.06 33.19c-120.89 0-218.87 97.97-218.87 218.88v1c0 120.9 97.99 218.88 218.88 218.88h1c120.89 0 218.88-97.98 218.88-218.87v-1c0-120.9-97.99-218.87-218.87-218.87h-1" fill="#66aabe"/>
 <path d="m274.92 116.99c-.596.032-1.194.131-1.764.268-.209.05-.421.093-.625.156-3.071.953-5.602 3.418-6.499 6.767l-.849 3.194c13.419.047 26.834.06 40.25-.045 8.966-1.676 20.03 1.638 23.54 10.742 1.329 8.525.534 17.406.983 26.06.282 54.629.145 109.26.022 163.88-.743 9.56 1.994 19.528-1.362 28.743-.883 2.679-2.469 4.781-4.489 6.387l23.852 6.432c5.195 1.392 10.489-1.661 11.881-6.856l53.36-199.13c1.392-5.195-1.661-10.489-6.856-11.881l-128.42-34.416c-1.015-.272-2.02-.366-3.01-.313m38.26 17.51l-132.91.022c-1.01 0-2.01.142-2.926.424-3.957 1.226-6.812 4.898-6.812 9.268v7.817c19.989-5.266 39.973-10.506 59.832-16.214 7.588-2.477 16.958.367 20.882 7.549 18.591 65.03 35.24 130.63 53.02 195.89 3.109 6.305 3.475 14.761-.179 20.815l9.09-.022c5.379 0 9.715-4.314 9.715-9.693l.022-206.14c0-5.379-4.359-9.715-9.737-9.715m-76.2 7.593c-.955-.036-1.929.074-2.903.335l-128.4 34.416c-5.195 1.392-8.271 6.664-6.879 11.859l53.35 199.13c1.392 5.195 6.708 8.249 11.904 6.856l128.4-34.394c5.196-1.392 8.271-6.708 6.879-11.904l-53.35-199.1c-1.131-4.221-4.861-7.04-9-7.191m-22.602 78.7c24.462-.911 51 36.417-4.243 89.04-78.986-19.13-68.929-69.62-43.752-76.78 7.708-2.192 16.839-.321 25.26 7.75 3.909-13.44 13.164-19.654 22.736-20.01" fill="#ffffff" fill-rule="evenodd"/>
 <circle cx="256" stroke="#fefefe" cy="256" r="181.13" stroke-width="18.771" fill="none"/>
</svg>
