<svg viewBox="0 0 512 512" xmlns="http://www.w3.org/2000/svg" xmlns:xlink="http://www.w3.org/1999/xlink">
 <defs>
  <path id="a" d="m159.54 226.66a55.226 55.226 0 1 1 -110.45 0 55.226 55.226 0 1 1 110.45 0"/>
 </defs>
 <path d="m471.95 253.05c0 120.9-98.01 218.91-218.91 218.91-120.9 0-218.91-98.01-218.91-218.91 0-120.9 98.01-218.91 218.91-218.91 120.9 0 218.91 98.01 218.91 218.91" fill="#68af4c" fill-rule="evenodd"/>
 <use fill="#ffffff" height="512" transform="matrix(1.1317 0 0 1.1317 215.44 76.982)" width="512" xlink:href="#a"/>
 <use fill="#ffffff" height="512" transform="matrix(1.1317 0 0 1.1317 60.44 -78.02)" width="512" xlink:href="#a"/>
 <use fill="#969699" height="512" transform="matrix(1.1317 0 0 1.1317 215.44 -78.02)" width="512" xlink:href="#a"/>
 <use fill="#969699" height="512" transform="matrix(1.1317 0 0 1.1317 60.44 76.982)" width="512" xlink:href="#a"/>
 <circle cx="256" stroke="#fefefe" cy="256" r="181.13" stroke-width="18.771" fill="none"/>
</svg>
