<svg height="512" viewBox="0 0 512 512" width="512" xmlns="http://www.w3.org/2000/svg">
 <path d="m471.95 253.05c0 120.9-98.01 218.9-218.9 218.9-120.9 0-218.9-98.01-218.9-218.9 0-120.9 98.01-218.9 218.9-218.9 120.9 0 218.9 98.01 218.9 218.9" fill="#4c86dd" fill-rule="evenodd"/>
 <path d="m273.52 113.82c-.99.129-1.958.45-2.879 1.01l-77.73 47.37h60.933l12.474-7.559 4.318 7.559h35.02l-24.469-44.35c-1.595-2.901-4.708-4.422-7.677-4.03m-106.5 64l-42.22 25.7c-3.683 2.233-5.01 7.218-2.879 11.09l45.1 81.64v-63.999l-7.197-13.1 7.197-4.535v-36.787m23.03.505c-4.253 0-7.677 3.596-7.677 8.06v177.38c0 4.467 3.424 8.06 7.677 8.06h168.88c4.253 0 7.677-3.596 7.677-8.06v-177.38c0-4.467-3.424-8.06-7.677-8.06zm23.03 32.25h122.82v112.88h-122.82z" fill="#ffffff"/>
 <circle cx="256" stroke="#fefefe" cy="256" r="181.13" stroke-width="18.771" fill="none"/>
</svg>
