<svg xmlns="http://www.w3.org/2000/svg" height="512" viewBox="0 0 512 512" width="512">
 <path d="M471.95 253.05c0 120.9-98.01 218.9-218.9 218.9-120.9 0-218.9-98.01-218.9-218.9 0-120.9 98.01-218.9 218.9-218.9 120.9 0 218.9 98.01 218.9 218.9" fill="#7ca345" fill-rule="evenodd"/>
 <path d="M253.83 111.66c-24.418 0-85.463 0-109.88 24.42-48.837 48.835-24.42 109.88 0 158.717 24.417 48.836 73.253 109.88 109.88 109.88 36.628 0 85.464-61.044 109.882-109.88 24.418-48.837 48.836-109.882 0-158.718-24.418-24.42-85.463-24.42-109.88-24.42z" fill="#ffffff" fill-rule="evenodd"/>
 <circle cx="256" stroke="#fefefe" cy="256" r="181.13" stroke-width="18.771" fill="none"/>
</svg>
