<svg viewBox="0 0 512 512" xmlns="http://www.w3.org/2000/svg">
 <path d="m471.95 253.05c0 120.9-98.01 218.9-218.9 218.9-120.9 0-218.9-98.01-218.9-218.9 0-120.9 98.01-218.9 218.9-218.9 120.9 0 218.9 98.01 218.9 218.9" fill="#104599" fill-rule="evenodd"/>
 <path d="m208.49 113.47l-11.877 71.26h-75.35l-7.791 47.51h74.981l-7.791 47.51h-59.39l-7.791 47.51h59.39l-11.877 71.26h47.51l11.877-71.26h47.51l-11.877 71.26h47.51l11.877-71.26h75.35l7.791-47.51h-74.981l7.791-47.51h59.39l7.791-47.51h-59.39l11.877-71.26h-47.51l-11.877 71.26h-47.51l11.877-71.26m-20.05 118.77h47.865l-7.791 47.51h-47.865" fill="#ffffff"/>
 <circle cx="256" stroke="#fefefe" cy="256" r="181.13" stroke-width="18.771" fill="none"/>
</svg>
