<svg viewBox="0 0 512 512" xmlns="http://www.w3.org/2000/svg">
 <path d="m471.95 253.05c0 120.9-98.01 218.91-218.91 218.91s-218.91-98.01-218.91-218.91 98.01-218.91 218.91-218.91 218.91 98.01 218.91 218.91" fill="#d23638" fill-rule="evenodd"/>
 <path d="m34.16 255.5c1.315 119.77 98.8 216.47 218.88 216.47 1.159 0 2.314-.045 3.469-.063v-216.41h-222.34" fill="#68af4c"/>
 <path d="m118.06 117.82v118.17h118.38v-118.17zm157.5 0v118.17h118.38v-118.17zm-129.13 28.327h61.64v61.52h-61.64zm157.5 0h61.64v61.52h-61.64zm-185.87 129.91v118.13h118.38v-118.13zm157.5 0v118.13h118.38v-118.13zm-129.13 28.327h61.64v61.48h-61.64zm157.5 0h61.64v61.48h-61.64z" fill="#ffffff"/>
 <circle cx="256" stroke="#fefefe" cy="256" r="181.13" stroke-width="18.771" fill="none"/>
</svg>
