<svg height="512" viewBox="0 0 512 512" width="512" xmlns="http://www.w3.org/2000/svg">
 <path d="m471.95 253.05c0 120.9-98.01 218.9-218.9 218.9-120.9 0-218.9-98.01-218.9-218.9 0-120.9 98.01-218.9 218.9-218.9 120.9 0 218.9 98.01 218.9 218.9" fill="#6ea6c1" fill-rule="evenodd"/>
 <path d="m253.03 101.16c-83.89 0-151.91 68.01-151.91 151.91 0 37.808 13.833 72.38 36.688 98.97l-29.813 51.47h124.03c6.867.95 13.872 1.469 21 1.469 83.89 0 151.91-68.01 151.91-151.91 0-83.89-68.01-151.91-151.91-151.91m-89.47 123.03c17.574 0 31.813 14.239 31.813 31.813 0 17.574-14.239 31.813-31.813 31.813-17.574 0-31.813-14.239-31.813-31.813 0-17.574 14.239-31.813 31.813-31.813m92.44 0c17.574 0 31.813 14.239 31.813 31.813 0 17.574-14.239 31.813-31.813 31.813-17.574 0-31.813-14.239-31.813-31.813 0-17.574 14.239-31.813 31.813-31.813m92.44 0c17.574 0 31.813 14.239 31.813 31.813 0 17.574-14.239 31.813-31.813 31.813-17.574 0-31.813-14.239-31.813-31.813 0-17.574 14.239-31.813 31.813-31.813" fill="#ffffff" fill-rule="evenodd"/>
 <circle cx="256" stroke="#fefefe" cy="256" r="181.13" stroke-width="18.771" fill="none"/>
</svg>
