<svg viewBox="0 0 512 512" xmlns="http://www.w3.org/2000/svg">
 <path d="m471.95 253.05c0 120.9-98.01 218.9-218.9 218.9-120.9 0-218.9-98.01-218.9-218.9 0-120.9 98.01-218.9 218.9-218.9 120.9 0 218.9 98.01 218.9 218.9" fill="#e02b2b" fill-rule="evenodd"/>
 <path d="m248.99 121.31c-39.3 1.411-81.28 10.23-110.27 36.881-13.317 12.643-19.382 33.23-9.284 49.26 13.333 22.999 40.689 34.685 66.26 41.691 48.2 12.475 101.55 10.298 147.22-9.367 20.09-8.904 40.41-23.942 44.27-45.672 3.047-21.605-14.693-40.11-33.24-50.09-31.29-17.995-68.827-23.266-104.97-22.694m138.07 100.4c-13.165 24.624-41.534 37.31-68.3 44.886-49.769 13.196-105.05 11.02-152.23-9.531-17.327-7.92-33.922-19.371-42.17-36.3.756 14.281-1.552 28.836 1.199 42.956 6.154 21.997 27.943 35.532 48.51 44.41 41.26 16.218 88.37 18.203 131.95 9.68 26.783-6.284 54.9-16.453 72.11-37.863 9.529-11.264 10.274-25.98 9.328-39.819.167-6.46.014-12.928.067-19.394l-.44.922-.028.058m-262.71 101.31c.704 21.764 19.833 38.22 38.717 47.951 37.41 18.374 81.29 22.603 122.9 18.09 30.926-4.227 63.21-13.229 86.05-34.35 12.21-10.932 17.401-27.24 15.412-42.988.185-7.704.07-15.415.101-23.12-12.38 24.587-40.38 37.562-66.6 45.27-50.08 13.827-105.89 11.906-153.57-8.545-17.575-7.973-34.761-19.509-43-36.752v34.447" fill="#ffffff"/>
 <circle cx="256" stroke="#fefefe" cy="256" r="181.13" stroke-width="18.771" fill="none"/>
</svg>
