<svg viewBox="0 0 512 512" xmlns="http://www.w3.org/2000/svg">
 <path d="m471.95 253.05c0 120.9-98.01 218.91-218.91 218.91-120.9 0-218.91-98.01-218.91-218.91 0-120.9 98.01-218.91 218.91-218.91 120.9 0 218.91 98.01 218.91 218.91" fill="#346da6" fill-rule="evenodd"/>
 <path d="m177.95 389.86v-177.05h-54.722v177.05zm0-239.81c-.326-15.844-10.885-27.908-28.04-27.908-17.16 0-28.373 12.06-28.373 27.908 0 15.501 10.885 27.913 27.714 27.913h.326c17.485 0 28.373-12.413 28.373-27.913m89.27 239.81v-100.88c0-5.398.39-10.798 1.977-14.645 4.341-10.792 14.219-21.964 30.805-21.964 21.728 0 35.36 12.332 35.36 36.61v100.88h55.1v-103.57c0-55.48-29.618-81.3-69.12-81.3-32.391 0-46.61 18.11-54.51 30.436l.395-23.68h-54.999c.791 16.948 0 178.12 0 178.12h54.999" fill="#ffffff"/>
 <circle cx="256" stroke="#fefefe" cy="256" r="181.13" stroke-width="18.771" fill="none"/>
</svg>
