<svg viewBox="0 0 512 512" xmlns="http://www.w3.org/2000/svg">
 <path d="m470.41 253.05c0 120.9-98.01 218.91-218.91 218.91-120.9 0-218.91-98.01-218.91-218.91 0-120.9 98.01-218.91 218.91-218.91 120.9 0 218.91 98.01 218.91 218.91" fill="#cf0000" fill-rule="evenodd"/>
 <path d="m124.18 256v-91.37h50.16l40.828 40.808 40.828 40.808 40.828-40.808 40.828-40.808h50.16v182.74h-52.38l-.393-52.962-.393-52.962-32.954 31.959-32.954 31.959-12.732-.015-12.732-.015-32.954-31.968-32.954-31.969-.393 52.987-.393 52.987h-52.38v-91.37" fill="#ffffff"/>
 <circle cx="256" stroke="#fefefe" cy="256" r="181.13" stroke-width="18.771" fill="none"/>
</svg>
