<svg height="512" viewBox="0 0 512 512" width="512" xmlns="http://www.w3.org/2000/svg">
 <path d="m471.95 253.05c0 120.9-98.01 218.9-218.9 218.9-120.9 0-218.9-98.01-218.9-218.9 0-120.9 98.01-218.9 218.9-218.9 120.9 0 218.9 98.01 218.9 218.9" fill="#c51818" fill-rule="evenodd" opacity=".75"/>
 <path d="m251.81088 98.082142c54.09103 76.293788 91.44967 163.977408 78.10169 280.406788-10.82294 6.15506-25.59125 10.995-40.67797 15.72881 19.887-105.9435 7.69795-185.45912-37.42372-296.135598z" fill="#ececec"/>
 <path d="m244.49209 98.624509c-54.09103 76.293801-91.44967 163.977421-78.10169 280.406801 10.82294 6.15506 25.59125 10.995 40.67797 15.72881-19.887-105.9435-7.69795-185.45912 37.42372-296.135611z" fill="#ececec"/>
 <path d="m86.852784 230.42728c91.498936 19.35276 205.790996 17.19915 307.350116-41.27918-8.88653-19.12346-8.51839-17.16227-24.4947-37.61315-89.3389 60.31649-163.36129 76.36158-282.855416 78.89233z" fill="#ececec"/>
 <path d="m96.510239 304.84733c91.498941 19.35276 209.587601 17.74152 311.146721-40.73681 1.35193-12.37711 2.64227-28.3955-2.25741-45.20636-89.3389 60.31649-189.39519 83.41242-308.889311 85.94317z" fill="#ececec"/>
 <circle cx="256" stroke="#fefefe" cy="256" r="181.13" stroke-width="18.771" fill="none"/>
</svg>
