<?xml version="1.0" encoding="UTF-8" standalone="no"?>
<svg
   xmlns:dc="http://purl.org/dc/elements/1.1/"
   xmlns:cc="http://creativecommons.org/ns#"
   xmlns:rdf="http://www.w3.org/1999/02/22-rdf-syntax-ns#"
   xmlns:svg="http://www.w3.org/2000/svg"
   xmlns="http://www.w3.org/2000/svg"
   xmlns:sodipodi="http://sodipodi.sourceforge.net/DTD/sodipodi-0.dtd"
   xmlns:inkscape="http://www.inkscape.org/namespaces/inkscape"
   height="512"
   viewBox="0 0 512 512"
   width="512"
   id="svg2"
   version="1.1"
   inkscape:version="0.91 r13725"
   sodipodi:docname="nitrogen.svg">
  <metadata
     id="metadata25">
    <rdf:RDF>
      <cc:Work
         rdf:about="">
        <dc:format>image/svg+xml</dc:format>
        <dc:type
           rdf:resource="http://purl.org/dc/dcmitype/StillImage" />
        <dc:title />
      </cc:Work>
    </rdf:RDF>
  </metadata>
  <defs
     id="defs23" />
  <sodipodi:namedview
     pagecolor="#ffffff"
     bordercolor="#666666"
     borderopacity="1"
     objecttolerance="10"
     gridtolerance="10"
     guidetolerance="10"
     inkscape:pageopacity="0"
     inkscape:pageshadow="2"
     inkscape:window-width="640"
     inkscape:window-height="480"
     id="namedview21"
     showgrid="false"
     inkscape:zoom="0.40686275"
     inkscape:cx="61.517595"
     inkscape:cy="309.15705"
     inkscape:current-layer="svg2" />
  <path
     d="m471.95 253.05c0 120.9-98.01 218.9-218.9 218.9-120.9 0-218.9-98.01-218.9-218.9 0-120.9 98.01-218.9 218.9-218.9 120.9 0 218.9 98.01 218.9 218.9"
     fill="#1793d1"
     fill-rule="evenodd"
     id="path5"
     style="fill:#ed5a42;fill-opacity:1" />
  <path
     inkscape:connector-curvature="0"
     id="path3879"
     d="m 360.58251,128.09151 -13.64025,8.80016 -15.34852,-5.33186 -4.78833,15.5297 -15.16733,5.77187 6.28952,14.96027 -7.89426,14.20967 14.44262,7.40249 3.05417,15.94383 15.84029,-3.59772 12.60494,10.2496 9.80959,-12.94141 16.22854,-0.25883 -0.80237,-16.20265 12.29434,-10.63784 -11.05196,-11.9061 2.58828,-16.02148 -16.125,-2.04474 -8.33427,-13.92496 z m -81.73798,64.70707 c -1.49673,-0.0116 -2.98617,0.6462 -3.98595,1.76003 l -47.59853,53.29275 c -2.77745,2.59035 -2.07186,2.75451 0.25883,5.38363 l 15.86618,17.91091 c 1.47917,1.55786 1.34748,4.34555 -0.25883,5.77188 -1.60639,1.42641 -4.37408,1.21309 -5.74599,-0.44001 l -21.74158,-24.53692 -21.63804,-24.25222 c -1.05354,-1.1781 -2.66646,-1.84409 -4.24478,-1.76003 -1.57823,0.0841 -3.0895,0.91659 -4.01183,2.20004 l -75.70728,105.29135 c -1.13976,1.57301 -1.32367,3.78316 -0.44001,5.51304 0.88358,1.72997 2.79406,2.90029 4.73656,2.89888 l 252.0211,0 c 1.88327,0 3.72418,-1.09404 4.63302,-2.74358 0.90884,-1.64954 0.84863,-3.79016 -0.15529,-5.38363 L 283.2705,195.25745 c -0.94338,-1.4853 -2.66651,-2.44255 -4.42597,-2.45887 z"
     style="color:#000000;display:inline;overflow:visible;visibility:visible;fill:#ffffff;fill-opacity:1;fill-rule:evenodd;stroke:none;stroke-width:9.69999981;marker:none;enable-background:accumulate" />
  <circle
     cx="256"
     stroke="#fefefe"
     cy="256"
     r="181.13"
     stroke-width="18.771"
     fill="none"
     id="circle8" />
</svg>
