<svg height="512" viewBox="0 0 512 512" width="512" xmlns="http://www.w3.org/2000/svg">
 <path d="m471.95 253.05c0 120.9-98.01 218.9-218.9 218.9-120.9 0-218.9-98.01-218.9-218.9 0-120.9 98.01-218.9 218.9-218.9 120.9 0 218.9 98.01 218.9 218.9" fill="#cd1d31" fill-rule="evenodd"/>
 <path d="m256 1c-140.83 0-255 114.17-255 255 0 140.83 114.17 255 255 255 140.83 0 255-114.17 255-255 0-140.83-114.17-255-255-255m8.827 44.931c120.9 0 218.9 98 218.9 218.9 0 120.9-98 218.9-218.9 218.9-120.9 0-218.93-98-218.93-218.9 0-120.9 98.03-218.9 218.93-218.9" fill-opacity=".067" fill-rule="evenodd"/>
 <path d="m256.2 112.29c-17.236 0-33.36 3.452-48.32 10.368-14.959 6.945-28.406 17.22-40.43 30.682-12.999 14.325-22.648 29.872-28.772 46.581-6.127 16.684-9.103 35.437-9.103 56.25 0 20.817 2.976 39.622 9.103 56.3 6.125 16.723 15.773 32.23 28.772 46.556 11.898 13.35 25.299 23.535 40.23 30.409 14.945 6.86 31.16 10.269 48.52 10.269 17.358 0 33.53-3.411 48.49-10.269 14.959-6.874 28.344-17.06 40.26-30.409 12.871-14.226 22.42-29.653 28.475-46.31 6.067-16.597 9-35.497 9-56.55 0-21.06-2.935-39.94-9-56.55-6.05-16.639-15.614-32.07-28.499-46.28-11.995-13.464-25.46-23.739-40.41-30.682-14.935-6.916-31.09-10.368-48.32-10.368m0 18.95c19.504 0 31.917 7.452 38.917 21.877 7.507 15.453 11.757 49.26 11.757 103.06 0 53.828-4.248 87.63-11.757 103.06-7 14.453-19.415 21.902-38.917 21.902-19.619 0-32.15-7.527-39.24-22.08-7.579-15.571-11.831-49.32-11.831-102.89 0-53.55 4.253-87.27 11.831-102.84 7.087-14.565 19.622-22.1 39.24-22.1" fill="#ffffff" fill-rule="evenodd"/>
 <circle cx="256" stroke="#fefefe" cy="256" r="181.13" stroke-width="18.771" fill="none"/>
</svg>
