<svg height="512" viewBox="0 0 512 512" width="512" xmlns="http://www.w3.org/2000/svg">
 <path d="m471.95 253.05c0 120.9-98.01 218.9-218.9 218.9-120.9 0-218.9-98.01-218.9-218.9 0-120.9 98.01-218.9 218.9-218.9 120.9 0 218.9 98.01 218.9 218.9" fill="#2a7fff" fill-rule="evenodd"/>
 <path d="m256 122.8c-73.57 0-133.2 57.666-133.2 128.69 0 42.827 21.812 80.34 55.15 103.72-1.22 4.923-2.762 10.22-5.203 15.61-8.325 18.374-16.651 18.385-16.651 18.385s24.976-.181 41.626-9.366c3.518-1.935 6.592-4.877 9.366-8.672 15.166 5.796 31.609 8.672 48.911 8.672 73.57 0 133.2-57.32 133.2-128.35s-59.64-128.69-133.2-128.69m76.31 114.82c7.02 0 12.428 1.858 16.304 5.203 3.997 3.25 5.897 7.819 5.897 14.222 0 6.212-1.901 11.224-5.897 14.569-3.997 3.345-9.4 4.856-16.304 4.856-6.177 0-11.492-1.547-15.61-4.51-3.997-3.058-5.897-8.03-5.897-14.916 0-6.404 1.917-10.973 5.55-14.222 3.754-3.345 9.05-5.203 15.957-5.203m-152.98.347c7.02 0 12.428 1.511 16.304 4.856 3.997 3.25 5.897 8.166 5.897 14.569 0 6.212-1.9 10.877-5.897 14.222s-9.4 5.203-16.304 5.203c-6.177 0-11.492-1.547-15.61-4.51-3.997-3.058-5.897-8.03-5.897-14.916 0-6.404 1.917-11.32 5.55-14.569 3.754-3.345 9.05-4.856 15.957-4.856m76.31 0c7.02 0 12.428 1.511 16.304 4.856 3.997 3.25 5.897 8.166 5.897 14.569 0 6.212-1.901 10.877-5.897 14.222-3.997 3.345-9.4 5.203-16.304 5.203-6.177 0-11.145-1.547-15.263-4.51-3.997-3.058-6.244-8.03-6.244-14.916 0-6.404 1.917-11.32 5.55-14.569 3.754-3.345 9.05-4.856 15.957-4.856" fill="#f9f9f9"/>
 <circle cx="256" stroke="#fefefe" cy="256" r="181.13" stroke-width="18.771" fill="none"/>
</svg>
