<svg viewBox="0 0 512 512" xmlns="http://www.w3.org/2000/svg">
 <path d="m471.95 253.05c0 120.9-98.01 218.9-218.9 218.9-120.9 0-218.9-98.01-218.9-218.9 0-120.9 98.01-218.9 218.9-218.9 120.9 0 218.9 98.01 218.9 218.9" fill="#0078ad" fill-rule="evenodd"/>
 <path d="m255.82 101.07c-43.743 0-79.31 36.883-79.31 82.79 0 45.902 35.572 83.24 79.31 83.24 43.743 0 79.31-37.34 79.31-83.24 0-45.902-35.572-82.79-79.31-82.79m-73.952 187.27c-31.956 7.963-58.45 48.733-57.24 98.73h262.76c1.144-50-25.59-90.79-57.62-98.73-20.669 16.14-46.26 25.69-73.952 25.69-27.687 0-53.28-9.555-73.952-25.69" fill="#ffffff" fill-rule="evenodd"/>
 <circle cx="256" stroke="#fefefe" cy="256" r="181.13" stroke-width="18.771" fill="none"/>
</svg>
