<svg height="512" viewBox="0 0 512 512" width="512" xmlns="http://www.w3.org/2000/svg">
 <path d="m471.95 253.05c0 120.9-98.01 218.9-218.9 218.9-120.9 0-218.9-98.01-218.9-218.9 0-120.9 98.01-218.9 218.9-218.9 120.9 0 218.9 98.01 218.9 218.9" fill="#cd1d31" fill-rule="evenodd"/>
 <path d="m231 106v151.41h50v-151.41zm-25 5.906c-58.28 20.771-100 76.8-100 142.72 0 83.6 67.16 151.38 150 151.38s150-67.775 150-151.37c0-65.921-41.724-121.95-100-142.72v55.969c29.846 17.457 50 49.43 50 86.75 0 55.733-44.775 100.91-100 100.91-55.22 0-100-45.17-100-100.91 0-37.32 20.15-69.29 50-86.75v-55.969" fill="#ffffff"/>
 <circle cx="256" stroke="#fefefe" cy="256" r="181.13" stroke-width="18.771" fill="none"/>
</svg>
