<svg width="512" height="512" version="1.1" viewBox="0 0 512 512" xmlns="http://www.w3.org/2000/svg">
 <path d="m471.95 253.05c0 120.9-98.01 218.9-218.9 218.9-120.9 0-218.9-98.01-218.9-218.9 0-120.9 98.01-218.9 218.9-218.9 120.9 0 218.9 98.01 218.9 218.9" fill="#239e51" fill-rule="evenodd"/>
 <path d="m191.65 162.72a87.864 87.864 0 0 0-87.864 87.864 87.864 87.864 0 0 0 87.864 87.864 87.864 87.864 0 0 0 60.016-23.845l139.98 1.4678c10.314 0.10826 18.66-8.9158 18.779-20.231l0.85626-81.695c0.11847-11.315-8.0682-20.511-18.352-20.618l-135.82-1.4238a87.864 87.864 0 0 0-65.457-29.385zm91.981 50.09 10.212 0.10602c2.8287 0.0306 5.0825 2.3316 5.0527 5.1604l-0.10764 10.212c-0.0307 2.8287-2.33 5.0825-5.1587 5.0527l-10.212-0.10764c-2.8287-0.0306-5.0823-2.33-5.0527-5.1587l0.10601-10.213c0.0307-2.8287 2.3316-5.0807 5.1604-5.0511zm30.636 0.31967 10.212 0.10764c2.8287 0.0307 5.0824 2.3316 5.0527 5.1604l-0.10764 10.212c-0.0306 2.8287-2.33 5.0825-5.1587 5.0527l-10.213-0.10765c-2.8287-0.0306-5.0807-2.33-5.0511-5.1587l0.10601-10.213c0.0306-2.8287 2.3317-5.0823 5.1604-5.0527zm30.636 0.3213 10.212 0.10764c2.8287 0.0307 5.0825 2.33 5.0527 5.1587l-0.10764 10.213c-0.0306 2.8287-2.33 5.0823-5.1587 5.0527l-10.212-0.10763c-2.8287-0.0306-5.0823-2.3317-5.0527-5.1604l0.10601-10.212c0.0306-2.8286 2.3316-5.0823 5.1604-5.0527zm30.636 0.3213 10.213 0.10764c2.8287 0.0306 5.0807 2.33 5.0511 5.1587l-0.31968 30.636-0.10764 10.213c-0.0306 2.8287-2.3317 5.0807-5.1604 5.0511l-10.212-0.10601-20.425-0.21529c-2.8286-0.0306-5.0807-2.33-5.0511-5.1587l0.10601-10.213c0.0307-2.8287 2.3317-5.0808 5.1604-5.0511l15.318 0.15983 0.26747-25.529c0.0307-2.8286 2.33-5.0823 5.1587-5.0527zm-82.018 29.78 10.213 0.10764c2.8286 0.0306 5.0823 2.33 5.0527 5.1587l-0.10765 10.213c-0.0306 2.8287-2.3317 5.0823-5.1604 5.0527l-10.212-0.10765c-2.8286-0.0307-5.0823-2.3317-5.0527-5.1604l0.10764-10.212c0.0306-2.8287 2.33-5.0823 5.1587-5.0527zm30.636 0.32129 10.213 0.10765c2.8287 0.0306 5.0808 2.33 5.0511 5.1587l-0.10602 10.213c-0.0307 2.8286-2.3316 5.0807-5.1604 5.0511l-10.212-0.10601c-2.8287-0.0306-5.0823-2.3317-5.0527-5.1604l0.10763-10.212c0.0306-2.8287 2.33-5.0823 5.1587-5.0527zm-46.006 30.156 76.32 0.8008c2.8287 0.0306 5.0823 2.33 5.0527 5.1587l-0.10764 10.213c-0.0306 2.8286-2.33 5.0823-5.1587 5.0527l-76.107-0.79754v-20.428zm96.749 1.0144 10.212 0.10763c2.8287 0.0307 5.0825 2.33 5.0527 5.1587l-0.10601 10.213c-0.0306 2.8287-2.3317 5.0807-5.1604 5.0511l-10.212-0.10601c-2.8286-0.0307-5.0823-2.3317-5.0527-5.1604l0.10764-10.212c0.0307-2.8286 2.33-5.0823 5.1587-5.0527z" fill="#ffffff" stroke-width="10.213"/>
 <circle cx="256" cy="256" r="181.13" fill="none" stroke="#fefefe" stroke-width="18.771"/>
</svg>
