<?xml version="1.0" encoding="UTF-8"?>
<svg width="512" height="512" version="1.1" viewBox="0 0 512 512" xmlns="http://www.w3.org/2000/svg" xmlns:cc="http://creativecommons.org/ns#" xmlns:dc="http://purl.org/dc/elements/1.1/" xmlns:rdf="http://www.w3.org/1999/02/22-rdf-syntax-ns#">
 <style/>
 <metadata>
  <rdf:RDF>
   <cc:Work rdf:about="">
    <dc:format>image/svg+xml</dc:format>
    <dc:type rdf:resource="http://purl.org/dc/dcmitype/StillImage"/>
    <dc:title/>
   </cc:Work>
  </rdf:RDF>
 </metadata>
 <path d="m471.95 253.05c0 120.9-98.01 218.9-218.9 218.9-120.9 0-218.9-98.01-218.9-218.9 0-120.9 98.01-218.9 218.9-218.9 120.9 0 218.9 98.01 218.9 218.9" fill="#56a8d6" fill-rule="evenodd"/>
 <path d="m255.82 98.39c-39.43 0-71.5 31.689-71.5 71.12 0 39.43 32.07 71.5 71.5 71.5s71.5-32.07 71.5-71.5-32.07-71.12-71.5-71.12m-60.36 160.69c-35.837 3.414-66.5 53.01-55.742 110.33l8.07 44.21h216.04l8.457-44.21c14.338-76.43-45.517-139.18-92.26-96.88-23.13 20.934-25.306 20.934-48.44 0-11.686-10.576-24.19-14.593-36.14-13.455" fill="#ffffff" fill-rule="evenodd"/>
 <circle cx="256" cy="256" r="181.13" fill="none" stroke="#fefefe" stroke-width="18.771"/>
</svg>
