<svg xmlns="http://www.w3.org/2000/svg" height="512" width="512" version="1.1" viewBox="0 0 512 512">
 <path fill-rule="evenodd" d="m471.95 253.05c0 120.9-98.01 218.9-218.9 218.9-120.9 0-218.9-98.01-218.9-218.9 0-120.9 98.01-218.9 218.9-218.9 120.9 0 218.9 98.01 218.9 218.9" fill="#68af4c"/>
 <path fill-rule="evenodd" d="m159.54 138.93c-17.762 0-32.02 14.1-32.02 31.672v104.05c0 17.569 14.257 31.672 32.02 31.672h154.93c0.914-0.709 2.056-1.178 3.308-1.178s2.261 0.469 3.175 1.178h31.49c17.762 0 32.02-14.1 32.02-31.672v-104.05c0-17.569-14.257-31.672-32.02-31.672h-192.91" fill="#68af4c"/>
 <g fill="#ffffff">
  <g transform="matrix(.82453 0 0 .82453 44.921 44.921)">
   <path d="m156.72 120c-27.13 0-49.41 22.28-49.41 49.41v108.28c0 27.13 22.28 49.41 49.41 49.41h198.56c27.13 0 49.41-22.28 49.41-49.41v-108.28c0-27.13-22.28-49.41-49.41-49.41zm3.938 24.19h190.69c15.53 0 27.938 12.309 27.938 27.813v103.09c0 15.504-12.433 27.938-27.938 27.938h-190.69c-15.503 0-27.938-12.434-27.938-27.938v-103.09c0-15.504 12.409-27.813 27.938-27.813m157.5 161.81c5.155 0 9.313 4.157 9.313 9.313 0 5.155-4.157 9.344-9.313 9.344-5.155 0-9.344-4.189-9.344-9.344s4.189-9.313 9.344-9.313"/>
   <g fill-rule="evenodd">
    <rect rx="11.08" height="46.17" width="50.17" y="340.16" x="229.14"/>
    <rect rx="8" height="16" width="160.02" y="376" x="173.8"/>
   </g>
  </g>
  <path d="m230.3 180.12c-9.9933 0.50626-17.945 8.782-17.945 18.903 0 10.448 8.4555 18.934 18.903 18.934s18.934-8.4852 18.934-18.934c0-10.448-8.4852-18.903-18.934-18.903-0.32651 0-0.63653-0.0165-0.95892 0zm54.13 39.008c-3.0862 0.00082-6.4593 0.48812-10.185 1.5278-10.59 4.3386-32.118 37.293-40.806 29.508-26.955-36.111-44.986-0.49967-49.909 28.224h144.94c-13.33-27.12-18.91-59.27-44.04-59.26z" stroke="#ffffff" stroke-width="1.756"/>
  <path fill-opacity=".079" d="m176.46 159.48c-14.645 0-26.385 11.618-26.385 26.101v85.8c0 14.486 11.75 26.665 26.385 26.101l35.817-1.3745c52.561-29.699 35.974-78.074 77.398-136.63z"/>
 </g>
 <circle r="181.13" cy="256" stroke="#fefefe" cx="256" stroke-width="18.771" fill="none"/>
</svg>
