<svg width="512" height="512" version="1.1" viewBox="0 0 512 512" xmlns="http://www.w3.org/2000/svg">
 <path d="m471.95 253.05c0 120.9-98.01 218.9-218.9 218.9-120.9 0-218.9-98.01-218.9-218.9 0-120.9 98.01-218.9 218.9-218.9 120.9 0 218.9 98.01 218.9 218.9" fill="#dcbf11" fill-rule="evenodd"/>
 <path d="m144.45 143.46c-0.76952 0.16108-1.3655 0.50751-1.9119 1.0428l-9.3852 9.2115c-2.1855 2.1408-1.3507 6.4231 1.9118 9.7329l30.416 30.763c0.0346 0.95122 0.13106 2.2666 0.17379 3.3023l-14.947 14.599-1.9119 2.0856 1.3904 2.2594 17.902 27.46 2.7808 4.345c3.3222 19.679 8.6052 40.781 17.032 59.267 1.7546 3.8488 3.6113 7.5118 5.5617 11.123l-23.984 24.332-0.52137 0.34758-0.17378 0.52137-11.819 27.808-3.1284 7.2996 7.1258-3.1284 28.156-12.166 0.52136-0.34759 0.34759-0.34756 19.292-19.64c22.486 30.35 47.1 47.448 47.1 47.448s27.511-17.78 50.402-49.013l21.03 21.204 0.52136 0.34756 0.52137 0.34759 27.982 12.166 7.2996 3.1284-3.1284-7.2996-11.819-27.808-0.34758-0.52137-0.34758-0.34758-26.244-26.592c1.5588-3.1144 2.9739-6.2777 4.345-9.5591 8.4712-20.272 13.61-43.325 16.858-64.132l0.34758 0.69515 2.4332 5.9093 3.476-5.3878 17.901-27.46 1.5642-2.2594-2.0856-2.0856-16.338-15.99 31.979-32.675c3.2625-3.3099 4.271-7.5922 2.0856-9.7329l-9.3852-9.2115c-2.1855-2.1408-6.6442-1.2242-9.9063 2.0856l-32.153 32.675-16.164-15.816-1.9119-1.9119-2.2594 1.5642-19.988 13.209c-13.112-2.9097-26.507-7.1856-37.541-13.556-10.078 5.8192-21.406 9.7889-32.501 12.514l-18.075-12.166-2.4332-1.5642-1.9118 1.9119-16.164 15.816-31.979-32.675c-2.4469-2.4824-5.6864-3.6117-7.9948-3.1284zm59.093 26.766 10.254 6.9521c-7.2728 1.3807-14.013 2.2212-20.334 2.7807zm110.89 0 11.471 10.949c-6.9305-0.60988-14.889-1.4789-23.29-2.9546zm-58.397 20.334c14.546 8.3993 34.806 12.732 48.839 14.947 0.16166 0.0231 0.36144-0.0231 0.52136 0 0.58389 0.093 1.0058 0.25576 1.5643 0.34756 2.2096 0.33084 3.9531 0.64672 5.7354 0.869 2.5766 0.32159 3.2854 0.38742 4.6926 0.52137 1.2067 0.11316 2.9328 0.31235 3.3023 0.34757l0.34758 0.34758c-1.2e-4 0.0174 2.2e-4 0.48499 0 0.52137-0.0462 0.72696-0.16455 1.7069-0.17379 2.2594-0.0346 2.0134-0.15879 4.9338-0.52137 11.123-0.17437 2.9376-0.38741 6.1258-0.69521 9.7329-1.6077 18.978-5.1466 45.768-13.73 68.13-0.11144 0.28983-0.23442 0.58077-0.34759 0.869-0.72598 1.8534-1.6303 3.6056-2.4332 5.3878-2.3917 5.3043-4.9394 10.479-7.821 15.121l-0.17379-0.17379c-1.162 1.8734-2.2685 3.801-3.476 5.5617-15.98 23.235-35.108 36.498-35.108 36.498s-16.805-12.595-32.327-34.76c-1.1899-1.6971-2.3096-3.4038-3.476-5.2141-2.9687-4.6125-5.8861-9.4532-8.5163-14.773-0.95092-1.9224-1.8984-3.898-2.7808-5.9092-0.17899-0.40763-0.34584-0.80561-0.52136-1.2167-10.314-24.139-14.045-54.374-15.295-74.04-0.0174-0.265 0.0115-0.4359 0-0.6952-0.20612-3.3398-0.25577-6.2531-0.34758-8.8639-0.052-1.5028 0.0289-1.9122 0-3.1284-0.0289-1.4467 0.0289-1.578 0-2.7808l5.2141-5.2141c0.9042-0.0578 0.91558-0.0809 2.0856-0.1738 0.26731-0.0231 0.58971 0.0231 0.86905 0 1.0099-0.0866 1.9696-0.052 3.1284-0.17378 0.64169-0.0682 1.2287-0.26676 1.9118-0.34759 1.8727-0.27424 3.7662-0.53348 5.9093-0.86899 12.498-1.9333 29.046-5.8341 43.624-14.252zm91.941 12.34 12.514 12.166-13.035 19.814-2.2594-5.2141c1.2746-10.204 2.276-19.222 2.7808-26.766zm-181.79 3.8236c0.47517 7.4226 1.2739 16.242 2.4332 25.549l-11.123-17.206zm152.95 115.41 24.506 24.853 8.5163 19.988-20.161-8.69-21.551-21.899c3.0545-4.4805 5.9523-9.2888 8.69-14.252zm-122.53 2.0856c2.8879 4.9493 5.9344 9.6326 9.0376 14.078l-19.466 19.814-20.508 8.8639 8.69-20.16 0.1738-0.34758z" fill="#ffffff" stroke-width="5.7737"/>
 <circle cx="256" cy="256" r="181.13" fill="none" stroke="#fefefe" stroke-width="18.771"/>
</svg>
