<svg viewBox="0 0 512 512" xmlns="http://www.w3.org/2000/svg">
 <path d="m471.95 253.05c0 120.9-98.01 218.91-218.91 218.91-120.9 0-218.91-98.01-218.91-218.91 0-120.9 98.01-218.91 218.91-218.91 120.9 0 218.91 98.01 218.91 218.91" fill="#999999" fill-rule="evenodd"/>
 <path d="m345.13 118.94c-6.782.216-13.878 2.376-21.313 6.469-8.497 4.678-14.713 10.988-18.656 18.875-3.985 8.524-11.194 19.643-21.594 33.375-10.387 13.52-18.389 22.776-24 27.813-3.222-3.355-10.01-12.635-20.406-27.844-24.334-36.979-41.26-55.708-50.75-56.19-19.504-.985-31.11 4.494-34.781 16.438-1.631 4.812 2.453 11.715 12.188 20.719 8.985 8.328 21.12 23.24 36.406 44.656 15.285 21.414 23.07 33.83 23.375 37.25-54.42 77.48-84.78 126.23-91.09 146.34-3.289 10.05-3.997 17.477-2.188 22.25s6.624 7.382 14.531 7.781c15.02.759 24.388-4.837 28.06-16.781 2.639-8.166 7.41-14.548 14.313-19.09 2.231-1.803 7.579-4.94 16.06-9.406 11.782-6.427 18.15-10.769 19.09-13.06.288-.957.481-1.899.594-2.813-2.13 1.145-4.266 2.243-6.438 3.313-5.04 4.02-11.382-2-8.969-7.313 1.379-2.28 2.818-4.496 4.281-6.719-4.329.891-9.385 3.02-15.188 6.469 4.715-11.679 13.155-27.533 25.281-47.563 12.403-20.228 21.703-33.568 27.938-40.06 1.497 1.351 6.531 7.25 15.09 17.656.174-.191.357-.403.531-.594 7.253-6.06 11.55-15.222 19.406-20.406 4.02-3.553 8.02-7.117 12.03-10.688-3.534-3.558-7.154-7.232-10.938-11-4.25-3.832-6.889-6.261-7.875-7.375.886-1.445 6.429-7.449 16.625-18 39.09-40.585 60.48-66.868 64.16-78.81 3.275-9.836-1.046-15.06-12.906-15.656-.955-.048-1.906-.062-2.875-.031m92.38 16.187c-12.07 9.46-26.05 21.07-42.28 35.406-.061-.058-.531-.469-.531-.469l-2.906 2.594c.411.365.813.727 1.219 1.094-46.95 39.497-97.34 85.73-104.44 92.25-.021-.033-.156-.249-.156-.25l-.094-.188-.156.156-.063.031c-.005-.006-.094-.156-.094-.156l-3.875 3.625c.036.051.089.105.125.156l-.031.031.063.156s.15.226.188.281c-44.3 46.25-71.69 81.17-70.5 85.19 1.532 5.16 82.85-52.857 93.25-60.781.312.255.479.378.594.469.029.026.313.281.313.281h.031l.063.094 4.219-3.938-.188-.156c-.001-.001-.357-.269-.5-.375 8.683-6.822 56.746-44.816 107.03-89 .848 1.093 1.688 2.156 1.688 2.156l2.906-2.469c-.126-.184-.275-.375-.406-.563 2.689-2.16 17.01-13.765 33.594-28.406-5.188-13.07-11.571-25.525-19.06-37.22m-107.25 146.88c-6.238 4.768-12.432 9.613-17.375 15.688-7.256 3.443-13.805 8.351-20.438 13.156 26.604 30.18 42.01 45.585 45.906 45.781 6.325.32 13.424-1.224 21.313-4.656 7.902-3.644 12.685-8.107 14.344-13.344 1.67-5.152-12.971-24.09-43.75-56.625" fill="#ffffff"/>
 <circle cx="256" stroke="#fefefe" cy="256" r="181.13" stroke-width="18.771" fill="none"/>
</svg>
