<?xml version="1.0" encoding="UTF-8" standalone="no"?>
<svg
   width="512"
   height="512"
   version="1.1"
   viewBox="0 0 512 512"
   id="svg14"
   sodipodi:docname="archlinux-kernel-manager-tux.svg"
   inkscape:version="1.3.2 (091e20ef0f, 2023-11-25, custom)"
   xmlns:inkscape="http://www.inkscape.org/namespaces/inkscape"
   xmlns:sodipodi="http://sodipodi.sourceforge.net/DTD/sodipodi-0.dtd"
   xmlns="http://www.w3.org/2000/svg"
   xmlns:svg="http://www.w3.org/2000/svg">
  <defs
     id="defs14" />
  <sodipodi:namedview
     id="namedview14"
     pagecolor="#ffffff"
     bordercolor="#000000"
     borderopacity="0.25"
     inkscape:showpageshadow="2"
     inkscape:pageopacity="0.0"
     inkscape:pagecheckerboard="0"
     inkscape:deskcolor="#d1d1d1"
     inkscape:zoom="1.3447266"
     inkscape:cx="164.34568"
     inkscape:cy="283.32898"
     inkscape:window-width="1920"
     inkscape:window-height="1056"
     inkscape:window-x="1920"
     inkscape:window-y="0"
     inkscape:window-maximized="1"
     inkscape:current-layer="g14" />
  <g
     fill-rule="evenodd"
     id="g5">
    <g
       fill-opacity=".129"
       id="g4" />
  </g>
  <g
     transform="matrix(1.2468471,0,0,1.2468471,-72.229629,-66.349737)"
     fill="#b7b7b7"
     stroke-width="13.468"
     id="g14">
    <path
       d="m 258.63,87.32 c -6.5183,-0.10774 -12.943,0.73939 -19.098,2.0996 l -0.26954,0.22852 c -43.19,9.6832 -76.28,53.763 -77.223,107.53 -0.10774,7.6226 0.30859,15.098 1.4668,22.303 0,0.0539 0.0547,0.10711 0.0547,0.21485 -7.0435,15.838 -11.421,33.359 -11.73,52.24 -1.1582,67.068 46.302,122.29 105.75,123.26 59.446,1.0505 108.55,-52.402 109.89,-119.58 0.41749,-24.942 -5.6285,-48.349 -16.672,-67.877 0.16161,-2.5319 0.30941,-4.7806 0.36328,-7.3125 0.99659,-61.493 -40.402,-112.16 -92.535,-113.1 z m -30.029,35.635 c 0.43832,-0.003 0.88033,0.007 1.3281,0.0273 14.828,0.37709 26.936,11.998 31.191,27.729 6.1547,-6.6395 16,-10.841 27.205,-10.949 18.935,-0.20201 34.45,11.529 34.611,26.465 0.0943,13.656 -12.74,25.116 -29.467,27.068 29.615,16.457 49.817,52.604 48.713,94.111 -1.4814,56.079 -40.982,100.43 -88.227,99.27 -47.298,-1.1986 -84.482,-47.499 -83.014,-103.58 0.88886,-35.824 17.413,-66.867 41.561,-84.334 -10.841,-6.9358 -17.885,-20.62 -17.521,-36.242 0.47137,-18.047 10.95,-33.035 24.889,-37.775 l -0.041,-0.13476 c 2.8518,-1.0606 5.7032,-1.6371 8.7715,-1.6562 z m 30.877,57.506 c -0.41749,1.0505 -0.99626,1.9526 -1.5215,2.9492 0.41749,0.0538 0.84845,0.10742 1.1582,0.10742 1.1582,0.0539 2.2625,0.16179 3.4746,0.26953 -1.1043,-1.1043 -2.1549,-2.1004 -3.0977,-3.3125 z"
       id="path7"
       style="stroke-width:13.46837154;stroke-dasharray:none" />
    <path
       d="m 256.26,168.76 c 0.63297,6.9492 -2.7878,12.942 -7.6226,13.36 -4.8887,0.41749 -9.3061,-4.8887 -9.939,-11.892 -0.5791,-7.0435 2.8416,-12.996 7.6765,-13.414 4.8348,-0.36363 9.3061,4.9426 9.8852,11.946"
       id="path8" />
    <path
       d="m 279.88,168.35 c 0.63297,4.7406 -0.57911,9.3599 -3.1514,12.053 -2.5723,2.68 -6.1008,3.0033 -9.1041,0.79459 -3.0033,-2.2087 -5.0503,-6.5183 -5.2658,-11.259 -0.63297,-4.6867 0.57911,-9.3061 3.1514,-12 2.5723,-2.68 6.1008,-3.0033 9.1041,-0.84845 3.0571,2.2087 5.0503,6.5722 5.2658,11.259"
       id="path9" />
    <path
       d="m 224.11,196.5 c 0,0 20.996,-11.73 35.931,-10.262 14.882,1.4141 27.784,12.673 27.784,12.673 0,0 -12.202,39.083 -34.935,35.77 -22.733,-3.3669 -28.834,-38.194 -28.834,-38.194"
       id="path10" />
    <path
       d="m 166.54,222.76 c 0,0 8.9424,21.198 20.727,38.611 11.784,17.467 25.521,46.867 4.4174,36.093 -20.996,-10.734 -35.622,-27.514 -32.672,-46.867 3.0571,-19.366 7.6226,-27.878 7.6226,-27.878"
       id="path11" />
    <path
       d="m 342.83,203.18 c 0,0 -11.73,27.622 -27.245,50.288 -15.42,22.733 -33.305,60.968 -5.8988,47.029 27.353,-13.885 46.665,-35.716 42.719,-60.914 -3.946,-25.252 -9.7909,-36.403 -9.7909,-36.403"
       id="path12" />
    <path
       d="m 178.14,374.41 c -6.2624,14.936 3.5285,30.666 21.831,35.137 18.302,4.4174 38.248,-4.0537 44.51,-19.043 6.2624,-14.936 -3.5285,-30.666 -21.831,-35.137 -18.302,-4.4174 -38.248,4.1076 -44.51,19.043"
       id="path13" />
    <path
       d="m 340.38,374.54 c 5.993,13.468 -3.3669,27.73 -20.996,31.77 -17.575,3.9999 -36.726,-3.6766 -42.719,-17.198 -5.993,-13.468 3.4208,-27.784 20.996,-31.77 17.575,-4.0537 36.726,3.6766 42.719,17.198"
       id="path14" />
  </g>
</svg>
