<svg height="512" viewBox="0 0 512 512" width="512" xmlns="http://www.w3.org/2000/svg">
 <g transform="matrix(2.1675978 0 0 2.1675978 803.51386 -130.25829)">
  <path d="m-243.21 87.2c-32.437 0-60.892 17.387-76.886 43.26l-12.744-15.368c-.129-.075-.288-.082-.425-.138-1.819-1.932-5.723-.761-6.23 1.85l-13.03 75.986c-.461 2.134 1.508 4.442 3.682 4.412l16.283-4.127c7.08 43.11 44.491 76.13 89.35 76.13 49.881 0 90.62-40.799 90.62-90.93 0-50.13-40.74-91.07-90.62-91.07zm11.04 27.595c4.759.063 9.756.977 15.01 2.561 27.508 10.529 47.01 29.514 47.01 60.912 0 40.644-32.62 73.42-73.06 73.42-36.925 0-67.2-27.347-72.21-63.04l40.496-10.388c2.635-.082 4.408-3.711 2.832-5.834l-16.425-12.38c.353-1.381-5.11-5.173 16.834-28.633 10.352-11.07 24.23-16.795 39.521-16.627" fill="#b7b7b7"/>
  <g fill="none" stroke="#b7b7b7" stroke-linecap="round" stroke-linejoin="round" stroke-width="9.08">
   <path d="m-243.21 118.73v9.277"/>
   <path d="m-243.21 228.11v10.374"/>
   <path d="m-183.59 178.27h-9.06"/>
  </g>
  <path d="m-193.85 137.96c-.286.063-.57.075-.85.144-1.062.138-2.09.534-2.974 1.139l-48.09 32.475c-4.184 1.573-5.624 7.842-2.549 11.1v.138c.138.101.28.195.425.283.044.063.094.094.141.144.138.101.28.195.425.283.044.063.094.094.142.144.138.101.28.195.425.283.044.063.094.094.142.144l.142.138c.093.063.188.094.283.144h.142l31.15 17.929c3.114 1.788 7.566.565 9.345-2.561 1.779-3.129.565-7.603-2.549-9.391l-22.09-12.664 40.16-27.21c2.557-1.559 3.847-4.947 2.979-7.823-.868-2.876-3.814-4.973-6.802-4.841z" fill="#b7b7b7"/>
  <path d="m-238.68 178.27l-27.19 50.09" fill="none" stroke="#b7b7b7" stroke-linecap="round" stroke-width="4.542"/>
 </g>
</svg>
