<svg height="1814.17" viewBox="0 0 512 512" width="1814.17" xmlns="http://www.w3.org/2000/svg">
 <path d="m195.78001-127.59001v108.409993h-108.339999v12.0599997h108.339999v96.3100003h-108.339999v12.029997h108.339999v108.37999h12.03001v-108.37999h96.34v108.37999h12.03001v-108.37999h108.37998v-12.029997h-108.37998v-96.3100003h108.37998v-12.0599997h-108.37998v-108.409993h-12.03001v108.409993h-96.34v-108.409993zm26.19001 20.08999l25.16001 39.250002-26.87501 41.781001h18.406l18.82998-30.650002 18.84401 30.656h19.59401l-27.37999-40.849997 25.44-40.190004h-18.49999l-17.12002 29.160005-17.46901-29.160005h-18.938zm148.47 0c-22.37899 0-40.53101 18.120004-40.53101 40.500001 0 22.380003 18.15001 40.531002 40.53101 40.531002 22.38099 0 40.531-18.150001 40.531-40.531002 0-22.380995-18.15001-40.500001-40.531-40.500001m0 11.938005c15.789 0 28.594 12.773 28.594 28.561996 0 15.789003-12.805 28.594-28.594 28.594-15.78901 0-28.59401-12.804997-28.59401-28.594 0-15.788996 12.805-28.561996 28.59401-28.561996m-162.61998 88.4399983h96.33996v96.3099967h-96.33996zm-62.44003 8.6879997c-22.37899 0-40.531 18.119999-40.531 40.499998 0 22.379999 18.15 40.531002 40.531 40.531002 22.38101 0 40.53101-18.150001 40.53101-40.531002 0-22.381-18.15-40.499998-40.53101-40.499998m0 11.938c15.78902 0 28.59402 12.773 28.59402 28.561998 0 15.789002-12.805 28.594-28.59402 28.594-15.78897 0-28.59397-12.804998-28.59397-28.594 0-15.788998 12.805-28.561998 28.59397-28.561998m76.59001 96.469997l25.16001 39.25-26.88 41.77002h18.41001l18.83999-30.66002 18.84 30.66002h19.59398l-27.375-40.84402 25.43799-40.19h-18.49999l-17.11997 29.16-17.46902-29.16h-18.938z" fill="#b7b7b7" transform="translate(0 215.00001)"/>
</svg>
