<svg height="512" viewBox="0 0 512 512" width="512" xmlns="http://www.w3.org/2000/svg">
 <g fill="#b7b7b7" fill-opacity=".832" fill-rule="evenodd" transform="matrix(14.503503 0 0 14.503503 -88.26574 -124.94218)">
  <g transform="translate(0 3)">
   <path d="m11 12v10h8v-3h-5v-4h5v-3z"/>
   <path d="m20 15v10h3v-4h1l2 4h3l-2.5-5h1.5v-5zm3 2h2v2h-2z" transform="translate(0 -3)"/>
   <path d="m29 12v3h3v7h3v-7h3v-3z"/>
  </g>
  <path d="m11 27v10h8v-10z"/>
 </g>
 <g fill="#b7b7b7" transform="matrix(1.8527809 0 0 1.8527809 -5.8014292 -1131.3384)">
  <path d="m41.599211 660.60092h62.623709v7.82796h-62.623709z"/>
  <path d="m112.05089 660.60092h62.62372v7.82796h-62.62372z"/>
  <path d="m182.5025 660.60071h70.451675v7.8279643h-70.451675z"/>
  <path d="m41.599211 684.08481h23.48389v7.82797h-23.48389z"/>
  <path d="m112.05089 684.08481h23.48389v7.82797h-23.48389z"/>
  <path d="m151.19071 684.08481h23.4839v7.82797h-23.4839z"/>
  <path d="m205.98646 684.08481h23.48389v7.82797h-23.48389z"/>
  <path d="m41.599211 707.5687h23.48389v7.82797h-23.48389z"/>
  <path d="m112.05089 707.5687h23.48389v7.82797h-23.48389z"/>
  <path d="m143.36275 707.5687h23.48389l3.91398 7.82797h-23.48389z"/>
  <path d="m205.98646 707.5687h23.48389v7.82797h-23.48389z"/>
  <path d="m41.599211 731.0526h62.623709v7.82796h-62.623709z"/>
  <path d="m112.05089 731.0526h23.48389v7.82796h-23.48389z"/>
  <path d="m155.10469 731.0526h23.4839l3.91398 7.82796h-23.4839z"/>
  <path d="m205.98646 731.0526h23.48389v7.82796h-23.48389z"/>
  <path d="m41.599211 754.53649h62.623709v7.82796h-62.623709z"/>
  <path d="m41.599211 778.02038h62.623709v7.82797h-62.623709z"/>
  <path d="m41.599211 801.50427h62.623709v7.82797h-62.623709z"/>
  <path d="m41.599211 824.98817h62.623709v7.82796h-62.623709z"/>
 </g>
</svg>
