<svg height="512" viewBox="0 0 512 512" width="512" xmlns="http://www.w3.org/2000/svg">
 <path d="m320.11 118.46c-24.139 0-45.694 11.553-59.098 29.37 9.4975 13.076 15.043 29.216 15.043 46.562 0 9.2423-1.7355 17.894-4.6562 26.146 17.212 13.275 32.373 30.337 47.636 46.92 39.139-1.6403 74.499-36.713 74.499-75.932 0-40.268-32.821-73.066-73.425-73.066zm-128.13 1.0297c-40.604 0-73.514 32.642-73.514 72.91s32.91 72.91 73.514 72.91c15.01 0 28.973-4.4747 40.607-12.133l84.931 140.36c11.373-4.9702 28.92-74.5 7.7006-102.12-21.488-34.012-43.092-51.631-64.672-72.843 3.1569-8.1297 4.9696-16.936 4.9696-26.169 0-40.268-32.933-72.91-73.537-72.91zm130.28 43.383c15.731 0 28.295 12.564 28.295 28.295s-12.564 28.654-28.295 28.654-28.654-12.922-28.654-28.654c0-15.731 12.922-28.295 28.654-28.295zm-128.81 1.567c15.829 0 28.609 12.687 28.609 28.385s-12.78 28.363-28.609 28.363-28.833-12.664-28.833-28.363c0-15.698 13.003-28.385 28.833-28.385zm30.489 103.15c-56.324 31.483-33.968 103.62-20.057 125.94l46.786-79.536-26.728-46.405z" fill="#b7b7b7"/>
</svg>
