<svg height="512" viewBox="0 0 512 512" width="512" xmlns="http://www.w3.org/2000/svg">
 <g fill="#b7b7b7" fill-rule="evenodd" transform="matrix(1.4689467 0 0 1.4689467 -85.248832 -120.05034)">
  <path d="m139.71 135.72c-61.43 0-61.698 66.15-61.698 66.15v75.22c0 14.15 9.712 33.01 19.16 42.44 16.706 16.673 28.26 14.28 28.26 14.28 0 0 .157 4.649 4.882 18.796 4.725 14.15 18.626 23.678 32.802 23.678 14.176 0 19.16-4.882 19.16-4.882v-18.796c0 0-4.83.169-14.28-4.546-9.452-4.716-9.429-14.25-9.429-14.25 0 0 14.08-4.649 28.26-18.796 14.176-14.15 14.311-37.928 14.311-37.928v-70.7c0 0 .006-70.67-61.42-70.67m93.58 9.734l-14.311 37.592h-9.429v18.827h9.429v99.2c0 0 .083 23.343 23.709 23.343 23.626 0 28.29-9.398 28.29-9.398v-18.16c-.443 1.326-2.341 4.211-9.429 4.211-9.451 0-13.975-9.398-13.975-9.398v-89.8h23.404v-18.81h-23.404v-37.592h-14.28m-90.65 13.945c23.631 0 23.709 23.343 23.709 23.343v94.35c0 0-.083 33.05-23.709 33.05-23.631 0-23.709-33.05-23.709-33.05v-89.5c0 0 .083-28.19 23.709-28.19"/>
  <g transform="matrix(.53304 -.36035 .36035 .53304 -157.52 -91.73)">
   <path d="m373.71 816.11l-89.45 89.45-10.993 10.993-2.798 2.798-22.315 69.941a9.1038 10.143 45 0 0 2.929 10.074 9.1038 10.143 45 0 0 8.1696 1.1033l70.926-22.381 2.312-2.312 10.678-10.678 89.76-89.76-59.22-59.22m-59.105 119.08a2.5406 2.5406 0 0 1 .86687 2.0227l-.985 21.19 3.875 3.875a2.5406 2.5406 0 0 1 -1.1427 4.2424l-33.453 8.945a2.5406 2.5406 0 0 1 -2.4561-.64359l-6.488-6.488a2.5406 2.5406 0 0 1 -.65672-2.4955l9.759-34.37a2.5406 2.5406 0 0 1 4.2424-1.1164l5.214 5.214 19.426-.985a2.5406 2.5406 0 0 1 1.7994.61732"/>
   <path d="m424.88 228.19c-2.372.112-4.319.85-5.75 2.219l-.031-.031-.094.125-13.875 13.844 59.22 59.25 13.875-13.875c.031-.031.063-.062.094-.094 6.409-6.66-1.515-25.08-17.844-41.41-12.818-12.818-26.903-20.442-35.594-20.03" transform="translate(0 540.36)"/>
   <path d="m397.44 792.4l59.23 59.23-14.668 14.668-59.23-59.23z"/>
  </g>
 </g>
</svg>
