<svg height="512" viewBox="0 0 512 512" width="512" xmlns="http://www.w3.org/2000/svg">
 <path d="m323.28 130.81c-10.01 2.509-24.06 8.779-32.543 12.589-7.132-5.686-131.95 73.58-183.33 107.01 30.668-11.717 98.7-37.25 104.36-30.632 6.298 7.364-40.26 55.13-79.17 120.95 32.11-34.574 93.08-113.7 104.32-107.93.734 2.183-11.323 20.15-27.27 46.29-19.02 31.17-33.25 59.13-47.26 85.962 1.468-1.115-2.347 7.454-4.285 10.811 17.355-19.487 60.64-81.1 78.4-106.45 16.238-23.18 37.839-61.14 53.796-61.35 26.612-.356 59.61 53.49 94.02 134.05 5.868 13.74 5.083 15.979 8.26 24.952 2.472 1.939 3.247-3.424 4.02-4.306-.367-7.931-4.728-24.692-12.157-51.26-16.34-58.45-33.33-122.16-73.73-151.16l2.6-16.488c2.886-3.746 7.375-9 9.965-13.02z" fill="#b7b7b7" fill-rule="evenodd"/>
</svg>
