<svg height="512" viewBox="0 0 512 512" width="512" xmlns="http://www.w3.org/2000/svg">
 <path d="m273.52426 48.022813c-2.67114-.004-5.45734.107052-8.36284.338871-73.43316 5.913978-53.95824 83.492366-55.04809 109.470886-1.34109 18.99789-5.19295 33.96956-18.25893 52.54231-15.35065 18.25461-36.96253 47.7999-47.20063 78.55551-4.83198 14.51532-7.13128 29.31038-5.00781 43.31288-.66542.59532-1.2984 1.21977-1.90059 1.86269-4.50689 4.81149-7.83706 10.64137-11.54761 14.56655-3.46665 3.45809-8.40581 4.77345-13.83351 6.72071-5.42978 1.94821-11.39127 4.82044-15.009926 11.76434 0 0 0 .001-.0013.001-.004.008-.01572.0231-.01572.0386l0 0c-3.27579 6.11839-2.301926 13.16425-1.30148 19.6922 1.000432 6.52779 2.013256 12.69622.668496 16.88134-4.297267 11.74569-4.845989 19.8704-1.82082 25.76373 3.031643 5.90565 9.26485 8.51227 16.30982 9.98365 14.08982 2.94277 33.17119 2.21158 48.20954 10.18204l1.29256-2.43894-1.27916 2.44618c16.09924 8.41722 32.42076 11.4068 45.44236 8.43253 9.441-2.15636 17.10476-7.7779 21.04057-16.42794 10.18506-.0462 21.36136-4.36379 39.2644-5.34953 12.14539-.97832 27.31723 4.31291 44.76848 3.34397.45593 1.89327 1.11633 3.7143 2.02004 5.44485.008.0231.0157.0386.0308.0539 6.76507 13.52784 19.33498 19.71539 32.73065 18.65819 13.41332-1.05859 27.67441-8.96765 39.20231-22.68664l-2.11332-1.77598 2.12949 1.75657c10.98784-13.32322 29.22583-18.84778 41.31909-26.14174 6.04659-3.64701 10.95297-8.2135 11.33211-14.84618.37893-6.62945-3.51315-14.05871-12.46278-23.99323 0 0-.001-.001-.001-.001-.001-.004-.008-.008-.008-.0157-2.94055-3.32307-4.34332-9.48194-5.85088-16.04061-1.50652-6.55467-3.18808-13.62534-8.56941-18.20755l0 0c-.0157-.008-.0231-.0157-.0308-.0308 0 0 0 0 0 0-2.14166-1.86617-4.36726-3.13277-6.60859-3.98379 7.4818-22.18889 4.54625-44.28358-3.00607-64.24958-9.26887-24.50383-25.45081-45.85509-37.80932-60.46123-13.8333-17.44856-27.36345-34.0145-27.09688-58.48199.41202-37.3427 4.10755-106.593433-61.60422-106.683157zm8.89611 57.529927c3.7288 0 6.91341 1.093 10.18472 3.46741 3.32324 2.41199 5.71744 5.43147 7.64707 9.64809 1.89389 4.10949 2.80508 8.12948 2.8945 12.90001 0 .12564 0 .23182.0386.35735.0308 4.89552-.80405 9.05853-2.66222 13.31088-1.06027 2.42647-2.27788 4.46291-3.73532 6.22612-.49445-.23721-1.00861-.46594-1.54156-.68544l0 0c-3.69414-1.58222-6.52802-2.58912-8.88995-3.40864.85619-1.02918 1.56905-2.24971 2.19595-3.77556.94699-2.30478 1.41156-4.55611 1.50089-7.2361 0-.10701.0308-.19716.0308-.32116.0539-2.57278-.28573-4.77043-1.03633-7.02168-.78617-2.35847-1.78669-4.05575-3.23388-5.46728-1.4472-1.41155-2.8945-2.05471-4.62758-2.10832-.081-.004-.16245-.004-.2426-.004-1.63019.004-3.04575.56376-4.51029 1.79001-1.53662 1.28648-2.68007 2.93014-3.62707 5.21713-.94691 2.28699-1.41145 4.55603-1.50073 7.25404-.0157.10701-.0157.19718-.0157.30423-.0308 1.48294.0617 2.8415.29189 4.1607-3.3357-1.66208-6.4791-2.7953-9.42928-3.49744-.16872-1.27569-.26494-2.5922-.29652-3.96864l0-.37506c-.0539-4.87772.75015-9.05852 2.62649-13.31089 1.87603-4.25235 4.19875-7.30766 7.46837-9.79111 3.26963-2.48354 6.48567-3.62697 10.29141-3.66272.0616 0 .11929 0 .17793 0zm-51.03588 4.04072c2.47361.004 4.68704.83232 6.9765 2.66059 2.48351 1.98316 4.35955 4.52021 5.93183 8.09367 1.57227 3.57338 2.41205 7.14677 2.64427 11.36346l0 .0386c.11243 1.77089.0986 3.4379-.0386 5.05231-.48903.13932-.96863.28956-1.43827.45131-2.66713.91803-5.01773 2.16923-7.06636 3.52209.20023-1.41518.23028-2.85096.077-4.45184-.0231-.0893-.0231-.16087-.0231-.25029-.21487-2.12611-.66079-3.9128-1.41154-5.71734-.80396-1.87603-1.69734-3.19818-2.87654-4.21671-1.06867-.92287-2.07843-1.34669-3.18929-1.3383-.11481 0-.23106.004-.34812.0157-1.25066.10702-2.28699.71471-3.26964 1.9117-.98271 1.19706-1.62587 2.68008-2.09043 4.64538-.46441 1.96535-.58996 3.89507-.39278 6.11058 0 .0893.0157.16089.0157.24954.21487 2.14405.64308 3.93071 1.41148 5.73536.78617 1.85817 1.69733 3.1803 2.87654 4.19869.19792.17106.39278.32423.58762.46053-1.22655.94399-1.81226 1.3792-2.8174 2.11779-.64461.47287-1.41246 1.03626-2.30478 1.69405-1.9461-1.82305-3.46431-4.11427-4.79175-7.13113-1.57229-3.57339-2.41207-7.14686-2.66223-11.36339l0-.0384c-.23179-4.21662.17871-7.84369 1.34009-11.59567 1.16133-3.75206 2.71582-6.46787 4.96699-8.70133 2.25123-2.23331 4.52037-3.35889 7.25403-3.50183.21335-.008.42514-.0157.63462-.0157zm23.2109 29.25333c5.74923-.0231 12.66764 1.86262 21.04334 7.2478 5.14475 3.34565 9.14796 3.62523 18.36612 7.57337l.0157.004.008.004c4.43526 1.81973 7.03855 4.19173 8.31039 6.68942 1.27191 2.4978 1.30296 5.20644.23797 8.0558-2.12901 5.69886-8.92498 11.69633-18.46161 14.67438l-.008.004-.008.004c-4.64999 1.51083-8.70482 4.84707-13.48509 7.5806-4.78016 2.73344-10.18928 4.93803-17.54423 4.51259 0-.00008 0 0 0 0-6.26139-.36506-10.00421-2.49063-13.38851-5.21052-3.38431-2.71989-6.33355-6.13692-10.65207-8.67274l-.008-.008-.008-.008c-6.95615-3.93167-10.75381-8.47914-11.94569-12.42143-1.19199-3.94228-.077-7.30733 3.3779-9.89382 3.8803-2.90799 6.5757-4.88605 8.37125-6.20373 1.78368-1.30888 2.52573-1.79963 3.0938-2.34506.001-.004.004-.004.008-.008 0 0 .001-.004.001-.004 2.9155-2.7597 7.56309-7.7877 14.56876-10.19921 2.4113-.83 5.10185-1.36551 8.11332-1.37744zm40.20289 23.77702c-2.48098.14873-5.07934 1.42527-8.10491 3.11437-3.02549 1.68912-6.42783 3.84988-10.11495 5.97768-7.3742 4.25558-15.86297 8.32539-24.29906 8.32539-8.44918 0-15.19969-3.90215-20.26278-7.91445-2.5316-2.00619-4.62106-4.02691-6.29037-5.59012-.83461-.7817-1.5584-1.44782-2.23391-1.96821-.67543-.52063-1.22503-1.03626-2.35508-1.03626l-.0539 2.37464c-.081.79458-.16402.77016-.13092.79174.0539.0384.31497.12484.62073.36118.49675.38201 1.18581 1.00614 2.00388 1.77214 1.63613 1.53224 3.8102 3.63876 6.4868 5.75994 5.35332 4.2422 12.79822 8.5945 22.21594 8.5945 9.43083 0 18.35349-4.40799 25.87139-8.74637 3.75885-2.16931 7.1728-4.33461 10.07585-5.95533 2.90287-1.62072 5.34528-2.63702 6.75928-2.72136l-.18713-3.13902zm8.38295 11.28575c6.26378 24.6916 20.83256 60.35565 30.1963 77.7604 4.97716 9.23412 14.87916 28.85329 19.15732 52.49093 2.71081-.0832 5.69571.31036 8.89218 1.12835 11.18547-28.99794-9.48521-60.23264-18.93737-68.93129-3.81612-3.70292-3.9995-5.36199-2.10769-5.28358 10.2552 9.06901 23.71804 27.30968 28.61617 47.89855 2.23345 9.38817 2.70966 19.25775.31269 28.9981 1.17242.48674 2.36322 1.01667 3.56999 1.58792 17.95487 8.74306 24.59509 16.34592 21.40239 26.72226-1.05149-.0386-2.08588-.0308-3.09487-.008-.0939.001-.18714.004-.28187.008 2.60004-8.22507-3.15989-14.29144-18.50847-21.23596-15.91947-7.00383-28.60508-6.30701-30.74904 7.8972-.13717.74396-.24799 1.50251-.33117 2.27134-1.18935.41282-2.38518.9403-3.58402 1.59631-7.47523 4.09026-11.55528 11.51188-13.82456 20.61454-2.26744 9.09534-2.91753 20.09104-3.54328 32.45147 0 .001 0 .004 0 .008-.38277 6.21527-2.93761 14.62154-5.52929 23.52534-26.07849 18.6022-62.2731 26.66169-93.00357 5.68941-2.08267-3.29451-4.4717-6.55868-6.93081-9.77808-1.57028-2.0561-3.18346-4.09933-4.78716-6.11407 3.15464 0 5.8361-.51446 8.00326-1.49681 2.69501-1.222 4.58854-3.18476 5.52536-5.70463 1.87355-5.03962-.008-12.14888-6.00609-20.26734-5.99754-8.11787-16.15523-17.27959-31.0813-26.43355 0 0-.001 0-.001-.001-10.96559-6.82213-17.09813-15.1839-19.9686-24.26276-2.87068-9.07972-2.4682-18.8977-.25569-28.59107 4.24666-18.60611 15.15789-36.70206 22.11988-48.05828 1.87435-1.37913.67004 2.55999-7.04795 16.89156-6.91671 13.10303-19.84753 43.34201-2.14296 66.94645.47287-16.79809 4.48477-33.93005 11.21935-49.95497 9.80944-22.23579 30.32716-60.79549 31.95675-91.52805.84024.60999 3.72742 2.55824 5.01397 3.28982.001.004.004.004.008.004 3.76398 2.21662 6.59093 5.45666 10.25226 8.3992 3.66859 2.94832 8.25165 5.49487 15.17576 5.89834l0 0c8.08181.46749 14.24138-2.03552 19.28794-4.9213 5.03898-2.88133 9.06445-6.07009 12.8782-7.31483.004-.004.008-.004.0157-.004 8.05878-2.52012 14.46634-6.98058 18.11267-12.18308zm51.1855 141.35893c3.26418-.0157 7.21825 1.07315 11.54654 3.00949 11.64927 5.37793 15.29413 9.98763 12.11383 16.75919-2.67999 5.11001-14.15067 13.23949-22.01213 11.09552-8.02222-2.07267-11.93516-13.63258-10.63082-22.36941.69854-5.933 4.05435-8.47168 8.98258-8.49471zm-13.18026 15.96587c.65851 10.6841 5.94456 21.58061 15.29305 23.93892 10.23017 2.69546 24.97994-6.08218 31.20745-13.24159 1.2418-.0462 2.45581-.11097 3.63483-.13932 5.46267-.13248 10.04442.1795 14.72575 4.27406l.0157.0157.0157.0157c3.59742 3.04782 5.30739 8.80768 6.79057 15.26007 1.48302 6.45248 2.66898 13.47995 7.11664 18.4862l.008.008.004.008c8.55067 9.48858 11.29916 15.9023 11.06526 19.99578-.23413 4.09385-3.19801 7.13274-8.67107 10.43389-10.94149 6.59925-30.32817 12.33785-42.71099 27.33692-10.75219 12.79582-23.8633 19.82343-35.41013 20.73469-11.54676.91124-21.50892-3.88123-27.38223-15.66935l-.0157-.0308-.0157-.0308c-3.64364-6.9311-2.12579-17.86952.94359-29.40735 3.06939-11.53781 7.4794-23.38471 8.06973-33.01369l0-.0157 0-.0157c.62461-12.33731 1.31505-23.11144 3.38746-31.42453 2.07243-8.31318 5.33566-13.94335 11.1177-17.10716.2688-.14717.53682-.28573.80235-.41741zm-187.76507.80619c.86305.001 1.7763.077 2.74932.22336 6.54497.99148 12.25245 5.5677 17.7514 13.02616 5.49892 7.45859 10.61554 17.64001 15.87534 28.93393l.008.0157.004.0157c4.22677 8.82186 13.14598 18.52216 20.70448 28.41785 7.55841 9.89575 13.40824 19.8288 12.64647 27.43142l-.001.0386-.001.0386c-.98542 12.96652-8.29977 20.02542-19.52806 22.59005-11.22501 2.56378-26.44203.0157-41.64117-7.93518-.004 0-.008 0-.0157 0-16.81581-8.90633-36.82013-8.02182-49.65237-10.70181-6.41789-1.34046-10.60556-3.35574-12.527564-7.10008-1.922071-3.74413-1.965048-10.2764 2.119504-21.41443l.0157-.0462.0157-.0462c2.01989-6.23067.52524-13.0481-.45594-19.44705-.98072-6.39894-1.46031-12.21926.72471-16.27616l.008-.0157.008-.0231c2.79752-5.39257 6.90093-7.3202 11.99375-9.14732 5.09276-1.82721 11.13173-3.26215 15.90047-8.0413l.0231-.0231.0231-.0231c4.40852-4.65068 7.71998-10.48031 11.59566-14.61793 3.27-3.49112 6.54247-5.80491 11.47503-5.83918.0539 0 .11481 0 .17245 0z" fill="#b7b7b7" overflow="visible"/>
</svg>
