<svg height="512" viewBox="0 0 512 512" width="512" xmlns="http://www.w3.org/2000/svg">
 <path d="m156.19847 416.16947c-.34824-.67941-2.74044-4.86703-5.31603-9.30584-4.09985-7.0658-4.64419-8.17308-4.37222-8.89407.17085-.45293 8.277-14.5263 18.01368-31.27413 9.73668-16.74782 17.64109-30.68187 17.56537-30.96454-.0757-.28268-5.79945-10.36166-12.71936-22.39775-6.91992-12.03609-12.53786-22.13171-12.48432-22.43472.18063-1.02219 21.15026-37.22025 21.49597-37.10662.26488.0871 50.9551 87.65765 90.0847 155.62709l4.6001 7.99052-21.91082-.0847-21.91082-.0847-12.28514-21.41167c-6.75683-11.77641-12.47382-21.41165-12.70442-21.41165-.38306 0-24.54259 41.08258-24.94105 42.41155-.16017.53428-.98946.57647-11.32765.57647h-11.15484l-.63315-1.23529zm173.3508.7385c.11927-.31079-6.67701-12.49724-17.63856-31.62779l-17.83261-31.12216-10.4067-.0472c-5.72367-.0259-17.4251-.13715-26.00314-.24706l-15.59646-.19985-10.33832-17.78814c-5.68608-9.78349-10.34115-17.89934-10.3446-18.0352-.003-.13589 42.01823-.24706 93.3815-.24706 51.36328 0 93.38776.0685 93.38776.1524 0 .0838-4.62144 8.33183-10.26987 18.32895l-10.26986 18.17655-25.07606-.24193c-22.47798-.21685-25.12011-.18883-25.50132.27052-.34861.42004-.34175.67798.0381 1.43052.25484.50495 5.85194 10.31431 12.438 21.79858 6.58606 11.4843 11.97136 21.04542 11.96737 21.24697-.003.20154-2.20237 4.14642-4.88529 8.76639-2.68292 4.61997-4.90306 8.69643-4.93366 9.05879-.0543.64284-.3253.66092-11.18293.74557-9.89107.0772-11.10576.0305-10.93329-.41884zm-212.35758-69.38148c-1.25448-1.98496-20.080739-34.03937-20.387453-34.71255-.308369-.67681 1.056602-3.17903 12.225643-22.41168 6.91501-11.90739 12.52674-21.88934 12.47047-22.1821-.0928-.48271-2.45635-.54927-25.370313-.71455-13.897397-.10022-25.333926-.24846-25.414473-.32939-.173121-.17397-9.290033-15.90555-9.925334-17.12655-.412654-.79309-.15542-1.32581 4.771967-9.88231l5.208137-9.04401 36.307336-.16471 36.30733-.16471 12.89306-22.30186 12.89305-22.30187 21.01148-.0156 21.01149-.0156-.39104.74117c-.35311.66928-90.59003 157.10486-92.36933 160.13236l-.74894 1.27434-.49308-.78022zm179.29644-35.54595c0-.32076 91.67782-159.41945 93.45104-162.17599.4501-.69966.94192-1.14436 1.09294-.98823.15104.15614 5.10614 8.47679 11.01131 18.49033l10.73665 18.20639-.54975 1.06409c-.30236.58524-5.88557 10.24916-12.40717 21.47537-6.5216 11.22621-11.92669 20.67617-12.01135 20.99989-.14458.55288.35326.59146 8.20212.63564 4.59579.0259 15.98078.13705 25.29991.24706l16.94394.20002 5.23134 9.05878c2.87722 4.98232 5.25827 9.14487 5.29123 9.25007.033.10523-2.38462 4.44108-5.37241 9.63525l-5.43239 9.44395h-36.15095-36.15099l-.79557 1.23528c-.43756.67941-6.24375 10.64818-12.90266 22.15283-6.6589 11.50466-12.26946 21.02645-12.46787 21.15957-.59159.39685-43.01937.30779-43.01937-.0903zm-12.95853-149.67739c-25.66559-44.478-46.66471-80.949408-46.66471-81.047587 0-.09824 4.18762-.212253 9.30583-.253494l9.30585-.07493-9.88231-.179472-9.8823-.179484 10.73441-.07493c5.90392-.04125 15.67559-.173564 21.71483-.294071 9.68769-.193304 10.95809-.160885 10.79068.275344-.29169.760154 24.52816 43.894824 25.32698 44.016044.51973.0788 2.88937-3.7914 13.26378-21.66323l12.631-21.759243 10.5511.08682 10.5511.08682 5.07125 8.72937c2.78919 4.801159 5.14438 8.892109 5.23375 9.091007.0894.198898-7.92349 14.268542-17.80636 31.265882-9.88287 16.99733-17.96885 31.20126-17.96885 31.56427 0 .36301 5.53738 10.30736 12.30528 22.09856 6.76792 11.79118 12.47851 21.76897 12.69022 22.17286.34618.66041-.64741 2.53394-9.87028 18.61168-5.64037 9.83253-10.36352 17.99422-10.49586 18.13709-.13238.14288-21.2398-36.13131-46.90539-80.6093zm-184.153463 17.99103c-.181349-.29345 20.420513-36.96562 21.004833-37.38944.20176-.14637 11.55856-.22048 25.23733-.16471l24.87045.10138-.0193-.67774c-.0105-.37277-5.28908-9.85977-11.72987-21.08224-6.44077-11.22249-11.94424-20.8604-12.22992-21.417606l-.51941-1.013112 5.33164-9.273753 5.33168-9.273753 11.06588-.007 11.0659-.007 17.55968 30.717488c9.65782 16.89463 17.79693 30.96789 18.0869 31.27392.48184.50851 2.75143.57941 26.36277.82352l25.83556.26711 10.63283 18.28226c5.84806 10.05525 10.63904 18.46756 10.64662 18.69403.0105.32848-19.03684.41175-94.17807.41175-51.80551 0-94.265477-.11911-94.355463-.2647zm235.735333-99.79305c3.03467-.0543 8.00054-.0543 11.03523 0 3.03468.0543.55176.09882-5.51762.09882-6.06938 0-8.55231-.04452-5.51761-.09882z" fill="#b7b7b7"/>
</svg>
