<svg viewBox="0 0 512 512" xmlns="http://www.w3.org/2000/svg">
 <path d="m137.25 381.87c-6.792-3.686-9.324-8.502-9.324-17.734 0-7.115 3.24-10.611 95.15-102.64l95.15-95.28h-19.366l-72.34 72.25c-71.51 71.42-72.43 72.25-80.32 72.25-6.01 0-9.239-1.267-13.12-5.148l-5.148-5.148.01-44.16.01-44.16 22.35-22.456 22.35-22.456-17.678-1.013c-16.321-.935-18.04-1.431-22.359-6.455-5.074-5.898-6.227-16.26-2.571-23.09 4.228-7.899 12.966-9.47 52.695-9.47 29.677 0 38.666.621 43.727 3.02 7.15 3.393 10.817 9.806 10.817 18.919 0 5.352-4.623 10.784-36.12 42.44l-36.12 36.31v19.31l59.07-58.882c49.926-49.769 60.15-59.08 66.07-60.16 3.849-.702 23.913-.986 44.587-.632l37.589.645 5.694 6.377c12.145 13.6 16.312 8.289-89.986 114.67-52.624 52.664-95.68 96.4-95.68 97.19 0 .791 4.159 1.438 9.241 1.438h9.241l73.32-73.22c68.48-68.39 73.77-73.22 80.15-73.22 3.756 0 8.66 1.283 10.899 2.851 7.838 5.49 8.772 11.845 8.138 55.4l-.6 41.28-21.967 22.03c-12.08 12.11-21.967 22.671-21.967 23.46 0 .788 7.087 1.434 15.75 1.434 17.873 0 21.989 1.557 26.336 9.964 3.86 7.464 2.295 15.357-4.268 21.522-4.893 4.597-5.329 4.639-48.51 4.639-40.826 0-43.846-.246-47.907-3.905-6.282-5.66-8.268-12.166-5.902-19.336 1.247-3.779 15.311-19.37 37.16-41.19l35.15-35.11v-19.543l-58.09 57.988c-31.95 31.893-60.57 58.908-63.59 60.03-3.172 1.18-21.754 2.01-43.935 1.966-30.11-.06-39.591-.704-43.759-2.966z" fill="#b7b7b7"/>
</svg>
