<svg height="512" viewBox="0 0 512 512" width="512" xmlns="http://www.w3.org/2000/svg">
 <path d="m263.59 101.06c-84.453 0-152.88 65.078-152.88 145.34 0 30.957 10.174 59.644 27.531 83.219l-33.719 65.656-.875 1.6875 1.7188-.90625 63.688-35.469c26.02 19.483 58.836 31.156 94.531 31.156 84.453 0 152.94-65.078 152.94-145.34 0-80.266-68.485-145.34-152.94-145.34zm117.75 99.812c.59583.065-.41697 1.2919-2.3438 3.5-9.2846 10.651-93.991 99.906-94.812 99.906-.46745 0-11.327-10.685-24.125-23.75l-23.281-23.75-30.25 16.969c-16.651 9.3267-36.896 20.52-44.969 24.906l-14.688 7.9688 7.5-8.0625c33.762-36.341 91.198-97.031 91.812-97.031.41839 0 11.274 10.71 24.125 23.812l23.375 23.812 30.938-17.375c17.03-9.5635 37.275-20.832 44.969-25.031 7.5551-4.1196 10.984-5.9586 11.75-5.875z" fill="#b7b7b7"/>
</svg>
