<svg viewBox="0 0 512 512" xmlns="http://www.w3.org/2000/svg">
 <path d="m240.01 92.02c7.302 62.28-51.726 67.44-78.69 125.87-16.399 35.532 11.187 58.07 35.31 70.28 16.18-28.909 32.38-57.811 48.563-86.72l2.406-4.313c18.315 32.717 36.656 65.41 54.969 98.13 40.24-10.781 61.46-39.34 61.875-60.5.635-32.707-36.938-68.875-36.938-68.875 6.997 42.933-19.06 49.41-19.06 49.41 9.118-71.37-68.44-123.28-68.44-123.28m7.625 127.78l-52.844 94.56h-47.25l100.09 105.63 100.09-105.62h-47.28l-52.813-94.56" fill="#b7b7b7"/>
</svg>
