<svg xmlns="http://www.w3.org/2000/svg" height="512" width="512" version="1.1" viewBox="0 0 512 512">
 <path fill="#b7b7b7" d="m224.82 208.76c-5.7467 0-10.368 4.6214-10.368 10.368v165.99c0 5.7474 4.6214 10.368 10.368 10.368h141.78c5.7467 0 10.368-4.6206 10.368-10.368v-103.05h-71.45c-7.7898 0-14.061-6.2678-14.061-14.061v-59.251h-66.637m79.525 0v51.864c0 5.7467 4.6457 10.368 10.392 10.368h62.232l-72.624-62.232m-116.33 34.943c-5.7467 0-10.368 4.6457-10.368 10.392v165.96c0 5.7467 4.6214 10.392 10.368 10.392h141.78c5.7467 0 10.368-4.6457 10.368-10.392v-6.3069h-133.63c-5.7467 0-10.344-4.6206-10.344-10.368v-159.68h-8.1677"/>
 <g fill-rule="evenodd" transform="matrix(.78250 0 0 .78250 81.79 82.07)" fill="#b7b7b7">
  <path d="m148.48 26.979-92.488 92.481-11.367 11.37-2.893 2.89-23.072 72.32a9.4134 10.488 45 0 0 3.0285 10.416 9.4134 10.488 45 0 0 8.4472 1.1408l73.336-23.146 2.3898-2.3898 11.045-11.045 92.813-92.813-61.235-61.235m-61.109 123.11a2.627 2.627 0 0 1 0.89633 2.0915l-1.0183 21.906 4.0063 4.0063a2.627 2.627 0 0 1 -1.1815 4.3866l-34.591 9.2474a2.627 2.627 0 0 1 -2.5396 -0.66546l-6.7089-6.7089a2.627 2.627 0 0 1 -0.67903 -2.5804l10.09-35.541a2.627 2.627 0 0 1 4.3866 -1.1544l5.3916 5.3916 20.086-1.0183a2.627 2.627 0 0 1 1.8606 0.6383"/>
  <path d="m204-22.845c-3.498-0.07706-6.486 0.8541-8.6052 2.9045l-0.10825 0.10825-14.333 14.36 61.242 61.242 14.144-14.17 0.21742-0.1899c0.0321-0.0321 0.0495-0.0761 0.0817-0.10825 6.6566-6.8566 1.5697-22.78-11.483-35.834l-13.9-13.898c-9.01-9.018-19.43-14.243-27.25-14.415"/>
  <path d="m173.01 2.4572 61.243 61.243-15.166 15.166-61.243-61.243z"/>
 </g>
</svg>
