<svg height="512" viewBox="0 0 512 512" width="512" xmlns="http://www.w3.org/2000/svg">
 <path d="m171.86442 132.2682l2.35901 9.76364 1.8811 10.99325c1.18929 6.23611 2.15001 12.70568 2.84182 19.16302 1.13673 10.61801 1.54375 21.20547 1.04261 30.67942-.20534 3.63508-.39479 7.07949-.39724 7.40706-2.01922 11.43206-5.48807 23.48015-13.65173 31.18789-8.70513 7.67352-20.73488 10.73902-30.15139 11.72174l-.8886-.26279c.16379-8.96915-1.82121-18.38321-6.22022-27.17146-12.10187-24.17195-37.713677-34.45628-57.221381-22.98756-19.507708 11.4675-25.518918 40.35994-13.415827 64.53678 11.000587 21.97184 33.172878 32.44563 51.763868 25.56415l-.20901.39602c12.84379 16.41899 30.18194 31.38834 44.58904 42.90229 16.03642 12.76924 32.8722 24.21229 49.28264 32.20605 22.87144 10.82703 47.70588 19.10436 70.07374 23.32125 21.5636-.055 38.32727-1.85788 53.61809-6.54168 15.69294-4.80604 29.83481-12.64701 46.02279-24.74766 15.39471-15.20403 26.70209-29.44491 36.12959-44.80173 15.55361-27.45135 24.27952-49.61876 31.70492-75.56425 6.56124-23.13668 10.91992-41.00775 14.36432-61.80619 3.96266-21.23603 4.31101-44.96674 9.60351-64.57101-19.39036 19.28281-20.7031 24.56798-43.47921 47.20963-13.32782 13.17993-27.29979 24.03751-45.00096 29.32024-3.96265-7.52929-9.79052-11.44673-15.91418-16.22343-11.96619-9.38716-27.07367-16.27964-40.50661-19.89028-12.42577-3.20117-25.20968-4.47357-36.52684-4.36846-14.49021.61237-27.7887 2.28324-40.64106 6.88026-7.69063 2.80882-15.26759 6.27523-23.38236 9.70619l-20.05284-14.60512-13.8033-9.71229-13.8314-9.70863" fill="#b7b7b7"/>
</svg>
