<svg height="512" viewBox="0 0 512 512" width="512" xmlns="http://www.w3.org/2000/svg">
 <path d="m253.05078 34.150391c-120.89 0-218.900389 98.000389-218.900389 218.900389 0 120.89 98.000389 218.89844 218.900389 218.89844 120.89 0 218.89844-97.99844 218.89844-218.89844 0-120.89-97.99844-218.900389-218.89844-218.900389zm-55.80273 89.617189c24.341 0 44.07031 19.73131 44.07031 44.07031 0 19.182-12.28453 35.52203-29.39453 41.58203v34.41797c1.999.708 3.96336 1.51033 5.81836 2.48633l57.99414-57.99414c-3.218-6.12-5.07227-13.09819-5.07227-20.49219 0-24.341 19.73132-44.07031 44.07032-44.07031 24.34099 0 44.07031 19.73131 44.07031 44.07031 0 24.341-19.73132 44.07031-44.07031 44.07031-7.382 0-14.32741-1.80953-20.44141-5.01953l-58.04102 58.03906c3.214 6.117 5.07227 13.05141 5.07227 20.44141 0 19.181-12.28453 35.47125-29.39453 41.53125v61.33008h-29.39453v-61.33008c-17.107-6.055-29.34571-22.35125-29.34571-41.53125h-.01172c0-19.181 12.23571-35.47125 29.34571-41.53125v-34.41797c-17.107-6.055-29.34571-22.40203-29.34571-41.58203 0-24.341 19.73132-44.07031 44.07032-44.07031z" fill="#b7b7b7" fill-rule="evenodd"/>
</svg>
