<svg height="512" viewBox="0 0 512 512" width="512" xmlns="http://www.w3.org/2000/svg">
 <g fill="#b7b7b7" transform="matrix(59.739771 0 0 59.739771 -165.52728 -148.64201)">
  <path d="m6.493 3.387l.057 1.521c.235-.157.496-.26.766-.302l-.824-1.219m2.763.346l-1.036.953c.18.062.354.154.516.274.056.042.109.086.16.132zm-1.663 1.307c-.484.005-.958.25-1.255.704-.025.038-.047.076-.069.115.414.075.775.318 1.038.651.101-.03.206-.048.317-.048.647 0 1.181.563 1.19 1.248.021-.028.042-.057.062-.088.488-.745.316-1.769-.385-2.288-.274-.203-.588-.298-.898-.295m-3.077.427l.723.564c.171-.094.357-.157.555-.183.042-.104.093-.207.153-.305l-1.431-.077m4.956.53c.079.244.116.503.108.761l1.145-.512zm-.25 1.897c-.035.053-.072.104-.111.152.19.231.327.512.394.82l.287.166z"/>
  <path d="m5.739 6.209c.53 0 .984.3 1.225.732.136-.102.309-.168.5-.168.433 0 .784.316.784.706 0 .087-.017.17-.049.247.492.198.833.646.833 1.164 0 .704-.629 1.27-1.411 1.27h-2.822c-.782 0-1.411-.566-1.411-1.27 0-.557.398-1.028.95-1.199 0-.024-.01-.046-.01-.071 0-.779.632-1.411 1.411-1.411" fill-rule="evenodd"/>
 </g>
</svg>
