<svg height="512" viewBox="0 0 512 512" width="512" xmlns="http://www.w3.org/2000/svg">
 <path d="m304.13345 62.401086c-105.29405-28.21344-213.522623 34.26797-241.735811 139.561074-28.21254 105.29053 34.273166 213.52388 139.567181 241.73734 105.29404 28.21345 213.52491-34.27652 241.73743-139.5671 28.2132-105.29306-34.27479-213.517854-139.5688-241.731314zm109.52919 127.779914c2.87264.67628 4.98735 2.55693 5.70189 6.67459l-22.75627 28.67587-8.80833-6.98834 22.76242-28.67425c1.10108-.003 2.14279.0867 3.10029.31201zm-33.98206 23.84949l23.17053 18.38614-122.5678 154.46311-23.17048-18.38627zm-111.56458-17.21056c31.02415 8.31292 49.47424 40.26896 41.16128 71.29341-8.31254 31.02282-40.26927 49.47418-71.29343 41.16129-31.02411-8.3129-49.47378-40.27065-41.16125-71.29343 8.31296-31.02444 40.26927-49.47416 71.2934-41.16127zm135.64845 36.6225l4.87693 3.87357-4.70036 5.92897-4.88302-3.87523zm6.05976 4.60412l4.45048 3.52953-47.04956 59.29013-4.45046-3.52956zm-37.9604 46.65943l-9.3413 11.70971-.42713-9.99438zm-115.49599 84.73033l23.16449 18.38433-32.43764 32.34458-14.26062-11.31144zm-21.61032 42.47994l8.31493 6.60015-20.44465 18.62768c0 0 9.48107-19.08012 12.12972-25.22783z" fill="#b7b7b7"/>
</svg>
