<svg height="512" viewBox="0 0 512 512" width="512" xmlns="http://www.w3.org/2000/svg">
 <g fill="#b7b7b7" fill-rule="evenodd" transform="matrix(10.043 0 0 10.043 -8470.6 -9500.46)">
  <path d="m859.53 418.06c-1.604 0-2.906 1.302-2.906 2.906 0 1.582 1.27 2.871 2.844 2.906-1.575 2.056-2.531 4.613-2.531 7.406 0 2.675.857 5.146 2.313 7.156-1.465.149-2.625 1.371-2.625 2.875 0 1.604 1.302 2.906 2.906 2.906 1.551 0 2.792-1.22 2.875-2.75 1.914 1.262 4.219 2 6.688 2 2.143 0 4.156-.559 5.906-1.531.282 1.309 1.451 2.281 2.844 2.281 1.604 0 2.906-1.302 2.906-2.906 0-1.263-.811-2.318-1.938-2.719 1.537-2.04 2.469-4.563 2.469-7.313 0-2.847-.988-5.456-2.625-7.531 1.208-.353 2.094-1.46 2.094-2.781 0-1.604-1.302-2.906-2.906-2.906-1.478 0-2.692 1.103-2.875 2.531-1.741-.959-3.747-1.5-5.875-1.5-2.459 0-4.747.747-6.656 2 .002-.041 0-.083 0-.125 0-1.604-1.302-2.906-2.906-2.906m0 1.75c.628 0 1.156.529 1.156 1.156 0 .628-.529 1.125-1.156 1.125-.628 0-1.125-.497-1.125-1.125 0-.628.497-1.156 1.125-1.156m18.313 0c .628 0 1.156.529 1.156 1.156 0 .628-.529 1.125-1.156 1.125-.628 0-1.125-.497-1.125-1.125 0-.628.497-1.156 1.125-1.156m-8.75 1.188c5.684 0 10.313 4.598 10.313 10.281 0 5.684-4.629 10.281-10.313 10.281-5.684 0-10.281-4.598-10.281-10.281 0-5.684 4.598-10.281 10.281-10.281m-9.563 19.16c.628 0 1.156.529 1.156 1.156 0 .628-.529 1.125-1.156 1.125-.628 0-1.125-.497-1.125-1.125 0-.628.497-1.156 1.125-1.156m18.313 0c .628 0 1.156.529 1.156 1.156 0 .628-.529 1.125-1.156 1.125-.628 0-1.125-.497-1.125-1.125 0-.628.497-1.156 1.125-1.156" transform="translate(0 540.36)"/>
  <path d="m871 422.98c0 5.858-4.749 10.607-10.607 10.607-5.858 0-10.607-4.749-10.607-10.607 0-5.858 4.749-10.607 10.607-10.607 5.858 0 10.607 4.749 10.607 10.607" transform="matrix(.29762 0 0 .29762 613.04 845.76)"/>
  <path d="m869.09 422.69c-4.742 0-8.563 3.852-8.563 8.594 0 4.742 3.82 8.594 8.563 8.594 4.742 0 8.594-3.852 8.594-8.594 0-4.742-3.852-8.594-8.594-8.594m0 3.813c2.65 0 4.813 2.131 4.813 4.781 0 2.65-2.163 4.813-4.813 4.813-2.65 0-4.781-2.163-4.781-4.813 0-2.65 2.131-4.781 4.781-4.781" transform="translate(0 540.36)"/>
 </g>
</svg>
