<svg height="512" viewBox="0 0 512 512" width="512" xmlns="http://www.w3.org/2000/svg">
 <g fill="#b7b7b7" transform="translate(-1.896 -4.641)">
  <path d="m107.74 145.28v36.03h42.06c2.853-4.458 7.384-7.344 12.531-7.344h20.688c5.147 0 9.678 2.886 12.531 7.344h42.06v-36.03zm0 56.688v174.03h129.88v-174.03h-41.28c-2.758 5.205-7.672 8.656-13.313 8.656h-20.688c-5.64 0-10.554-3.451-13.313-8.656h-41.28"/>
  <path d="m278.21 145.28v36.03h42.06c2.853-4.458 7.384-7.344 12.531-7.344h20.656c5.147 0 9.678 2.886 12.531 7.344h42.06v-36.03h-129.84m0 56.688v174.03h129.84v-174.03h-41.28c-2.758 5.205-7.672 8.656-13.313 8.656h-20.656c-5.64 0-10.554-3.451-13.313-8.656h-41.28"/>
 </g>
</svg>
