<svg height="512" viewBox="0 0 135.47 135.47" width="512" xmlns="http://www.w3.org/2000/svg">
 <path d="m67.733481 187.13444c-13.191861 0-23.883938 10.69181-23.883938 23.88393 0 11.92213 8.728869 21.79373 20.145375 23.58761v7.3877h-15.836371v7.46389h15.836371v21.94322h7.47448v-21.94322h15.836372v-7.46389h-15.836371v-7.3877c11.416771-1.79229 20.145376-11.66548 20.145376-23.58761 0-13.19186-10.691813-23.88393-23.883939-23.88393m0 5.46682c10.168732 0 18.417647 8.24706 18.417647 18.41764 0 10.16874-8.247063 18.41765-18.417647 18.41765-10.168731 0-18.417647-8.24706-18.417647-18.41765 0-10.16873 8.247063-18.41764 18.417647-18.41764" fill="#b7b7b7" transform="translate(0 -161.53332)"/>
</svg>
