<svg height="512" viewBox="0 0 512 512" width="512" xmlns="http://www.w3.org/2000/svg">
 <g fill="#b7b7b7" transform="matrix(1.2546 0 0 1.2546 527.17 96.57)">
  <path d="m-151.56 127.08a64.58 64.58 0 0 1 -129.16 0 64.58 64.58 0 1 1 129.16 0"/>
  <path d="m-216.14 12.268c-63.41 0-114.81 51.4-114.81 114.81s51.4 114.81 114.81 114.81 114.81-51.4 114.81-114.81-51.4-114.81-114.81-114.81m0 28.702c47.555 0 86.11 38.551 86.11 86.11 0 47.555-38.551 86.11-86.11 86.11-47.555 0-86.11-38.551-86.11-86.11 0-47.555 38.551-86.11 86.11-86.11"/>
 </g>
</svg>
