<svg height="512" viewBox="0 0 512 512" width="512" xmlns="http://www.w3.org/2000/svg">
 <path d="m161.97697 372.83529h56.4663c.17123 0 .2854.0572.2854.0572v28.42578c0 0-.11417.0572-.2854.0572h-56.4663c-.17124 0-.32821-.0572-.32821-.0572v-28.42578c0 0 .17123-.0572.32821-.0572m0 0" fill="#b7b7b7"/>
 <path d="m161.97697 329.79705h56.4663c.17123 0 .2854.057.2854.057v28.4258c0 0-.11417.0572-.2854.0572h-56.4663c-.17124 0-.32821-.0572-.32821-.0572v-28.4258c0 0 .17123-.057.32821-.057m0 0" fill="#b7b7b7"/>
 <path d="m161.97697 287.50084h56.4663c.17123 0 .2854 0 .2854.057v28.04051c0 .0572-.11417.0572-.2854.0572h-56.4663c-.17124 0-.32821 0-.32821-.0572v-28.04051c0-.057.17123-.057.32821-.057m0 0" fill="#b7b7b7"/>
 <path d="m161.97697 244.4055h56.4663c.17123 0 .2854.057.2854.057v27.86926c0 0-.11417.0572-.2854.0572h-56.4663c-.17124 0-.32821-.0572-.32821-.0572v-27.86926c0 0 .17123-.057.32821-.057m0 0" fill="#b7b7b7"/>
 <path d="m161.97697 201.59557h56.4663c.17123 0 .2854 0 .2854.0572v27.69802c0 0-.11417.0572-.2854.0572h-56.4663c-.17124 0-.32821-.0572-.32821-.0572v-27.69802c0-.0572.17123-.0572.32821-.0572m0 0" fill="#b7b7b7"/>
 <path d="m304.67674 372.97799h56.52337c.17124 0 .2854 0 .2854.0572v28.21173c0 0-.11416.0572-.2854.0572h-56.52337c-.17125 0-.2854-.0572-.2854-.0572v-28.21173c0-.0572.11416-.0572.2854-.0572m0 0" fill="#b7b7b7"/>
 <path d="m304.67674 330.31077h56.52337c.17124 0 .2854.057.2854.057v28.04051c0 .0571-.11416.0571-.2854.0571h-56.52337c-.17125 0-.2854 0-.2854-.0571v-28.04051c0 0 .11416-.057.2854-.057m0 0" fill="#b7b7b7"/>
 <path d="m304.67674 287.92893h56.52337c.17124 0 .2854.0572.2854.0572v27.92635c0 0-.11416.0572-.2854.0572h-56.52337c-.17125 0-.2854-.0572-.2854-.0572v-27.92635c0 0 .11416-.0572.2854-.0572m0 0" fill="#b7b7b7"/>
 <path d="m304.67674 245.119h56.52337c.17124 0 .2854 0 .2854.0572v27.69803c0 0-.11416.057-.2854.057h-56.52337c-.17125 0-.2854-.057-.2854-.057v-27.69803c0-.0572.11416-.0572.2854-.0572m0 0" fill="#b7b7b7"/>
 <path d="m304.67674 202.45177h56.52337c.17124 0 .2854.0572.2854.0572v27.48397c0 .0572-.11416.0572-.2854.0572h-56.52337c-.17125 0-.2854 0-.2854-.0572v-27.48397c0 0 .11416-.0572.2854-.0572m0 0" fill="#b7b7b7"/>
 <path d="m304.67674 158.78564h56.52337c.17124 0 .2854.0572.2854.0572v28.42579c0 .0572-.11416.0572-.2854.0572h-56.52337c-.17125 0-.2854 0-.2854-.0572v-28.42579c0 0 .11416-.0572.2854-.0572m0 0" fill="#b7b7b7"/>
 <path d="m376.02661 372.83529h56.52338c.17124 0 .2854.0572.2854.0572v28.42578c0 0-.11417.0572-.2854.0572h-56.52338c-.17123 0-.2854-.0572-.2854-.0572v-28.42578c0 0 .11417-.0572.2854-.0572m0 0" fill="#b7b7b7"/>
 <path d="m376.02661 330.02537h56.52338c.17124 0 .2854 0 .2854.057v28.25456c0 0-.11417.0572-.2854.0572h-56.52338c-.17123 0-.2854-.0572-.2854-.0572v-28.25456c0-.057.11417-.057.2854-.057m0 0" fill="#b7b7b7"/>
 <path d="m376.02661 287.50084h56.52338c.17124 0 .2854 0 .2854.057v28.04051c0 .0572-.11417.0572-.2854.0572h-56.52338c-.17123 0-.2854 0-.2854-.0572v-28.04051c0-.057.11417-.057.2854-.057m0 0" fill="#b7b7b7"/>
 <path d="m376.02661 244.4055h56.52338c.17124 0 .2854.057.2854.057v27.86926c0 0-.11417.0572-.2854.0572h-56.52338c-.17123 0-.2854-.0572-.2854-.0572v-27.86926c0 0 .11417-.057.2854-.057m0 0" fill="#b7b7b7"/>
 <path d="m376.02661 201.59557h56.52338c.17124 0 .2854 0 .2854.0572v27.69802c0 0-.11417.0572-.2854.0572h-56.52338c-.17123 0-.2854-.0572-.2854-.0572v-27.69802c0-.0572.11417-.0572.2854-.0572m0 0" fill="#b7b7b7"/>
 <path d="m233.32685 372.83529h56.46629c.17125 0 .2854.0572.2854.0572v28.42578c0 0-.11417.0572-.2854.0572h-56.46629c-.17124 0-.3282-.0572-.3282-.0572v-28.42578c0 0 .17123-.0572.3282-.0572m0 0" fill="#b7b7b7"/>
 <path d="m233.32685 330.02537h56.46629c.17125 0 .2854 0 .2854.057v28.25456c0 0-.11417.0572-.2854.0572h-56.46629c-.17124 0-.3282-.0572-.3282-.0572v-28.25456c0-.057.17123-.057.3282-.057m0 0" fill="#b7b7b7"/>
 <path d="m233.32685 287.50084h56.46629c.17125 0 .2854 0 .2854.057v28.04051c0 .0572-.11417.0572-.2854.0572h-56.46629c-.17124 0-.3282 0-.3282-.0572v-28.04051c0-.057.17123-.057.3282-.057m0 0" fill="#b7b7b7"/>
 <path d="m90.627094 372.83529h56.466286c.17125 0 .2854.0572.2854.0572v28.42578c0 0-.11417.0572-.2854.0572h-56.466286c-.17124 0-.32821-.0572-.32821-.0572v-28.42578c0 0 .17124-.0572.32821-.0572m0 0" fill="#b7b7b7"/>
 <path d="m90.627094 330.31077h56.466286c.17125 0 .2854.057.2854.057v28.09759c0 0-.11417 0-.2854 0h-56.466286c-.17124 0-.32821 0-.32821 0v-28.09759c0 0 .17124-.057.32821-.057m0 0" fill="#b7b7b7"/>
 <path d="m90.627094 287.78624h56.466286c.17125 0 .2854 0 .2854 0v27.92633c0 .057-.11417.057-.2854.057h-56.466286c-.17124 0-.32821 0-.32821-.057v-27.92633c0 0 .17124 0 .32821 0m0 0" fill="#b7b7b7"/>
 <path d="m90.627094 245.119h56.466286c.17125 0 .2854 0 .2854.0572v27.69803c0 0-.11417.057-.2854.057h-56.466286c-.17124 0-.32821-.057-.32821-.057v-27.69803c0-.0572.17124-.0572.32821-.0572m0 0" fill="#b7b7b7"/>
 <path d="m90.627094 202.45177h56.466286c.17125 0 .2854.0572.2854.0572v27.54106c0 0-.11417 0-.2854 0h-56.466286c-.17124 0-.32821 0-.32821 0v-27.54106c0 0 .17124-.0572.32821-.0572m0 0" fill="#b7b7b7"/>
 <path d="m90.627094 158.78564h56.466286c.17125 0 .2854 0 .2854.0572v28.36871c0 .0571-.11417.0571-.2854.0571h-56.466286c-.17124 0-.32821 0-.32821-.0571v-28.36871c0-.0572.17124-.0572.32821-.0572m0 0" fill="#b7b7b7"/>
 <path d="m90.627094 115.97572h56.466286c.17125 0 .2854.0571.2854.0571v28.4258c0 0-.11417.0572-.2854.0572h-56.466286c-.17124 0-.32821-.0572-.32821-.0572v-28.4258c0 0 .17124-.0571.32821-.0571m0 0" fill="#b7b7b7"/>
</svg>
