<svg viewBox="0 0 512 512" xmlns="http://www.w3.org/2000/svg">
 <path d="m277.45 119.57l-162.17 28.617v215.96l162.17 28.27v-272.85m6.177 31.386v28.199c0-.215.166-.381.381-.381h93.64c.215 0 .398.166.398.381v11.263c0 .215-.183.381-.398.381h-93.64c-.215 0-.381-.166-.381-.381v24.17c0-.215.166-.381.381-.381h93.64c.215 0 .398.166.398.381v11.263c0 .215-.183.381-.398.381h-93.64c-.215 0-.381-.166-.381-.381v24.171c0-.215.166-.381.381-.381h93.64c.215 0 .398.166.398.381v11.264c0 .215-.183.381-.398.381h-93.64c-.215 0-.381-.166-.381-.381v24.17c0-.215.166-.381.381-.381h93.64c.215 0 .398.166.398.381v11.264c0 .215-.183.381-.398.381h-93.64c-.215 0-.381-.166-.381-.381v24.171c0-.215.166-.381.381-.381h93.64c.215 0 .398.166.398.381v11.264c0 .215-.183.381-.398.381h-93.64c-.215 0-.381-.166-.381-.381v28.199h112.48c.341 0 .623-.283.623-.623v-208.18c0-.34-.283-.606-.623-.606h-112.49m-139.47 64.83h10.381l17.09 61.681c.71 2.58 1.163 5.276 1.35 8.08h.277c.187-1.981.775-4.678 1.747-8.08l17.769-61.681h9.03l17.04 62.13c.598 2.131 1.05 4.648 1.35 7.526h.225c.15-1.944.646-4.536 1.505-7.751l16.437-61.906h10.208l-22.717 80.42h-11.04l-16.541-58.774c-.71-2.505-1.148-5.23-1.298-8.184h-.225c-.224 2.766-.706 5.463-1.453 8.08l-16.662 58.878h-10.935l-23.548-80.42" fill="#b7b7b7" fill-rule="evenodd"/>
</svg>
