<svg height="512" viewBox="0 0 512 512" width="512" xmlns="http://www.w3.org/2000/svg">
 <path d="m227.22 109.78c-5.799 0-10.5 4.701-10.5 10.5s4.701 10.5 10.5 10.5 10.5-4.701 10.5-10.5-4.701-10.5-10.5-10.5m15.219 9.563l-1.656 8.5 126.34 24.344 1.625-8.5-126.31-24.344m-29.19 6.406l-74.16 41.906 4.281 7.531 74.16-41.938-4.281-7.5m19.625 10.844l-8.625.719 5.719 68.906-85.91-26.03-2.531 8.313 89.19 27 1.594 19.06 8.625-.719-1.281-15.625 13.656 4.125 2.5-8.281-16.938-5.125-6-72.34m150.25 3.125c-5.799 0-10.5 4.701-10.5 10.5s4.701 10.5 10.5 10.5 10.5-4.701 10.5-10.5-4.701-10.5-10.5-10.5m-13.781 18.281l-86.94 57.47 4.75 7.219 86.969-57.47-4.781-7.219m8.75 7.906v131.63h8.688v-131.62h-8.688m-249.22 4.75c-5.799 0-10.5 4.701-10.5 10.5s4.701 10.5 10.5 10.5 10.5-4.701 10.5-10.5-4.701-10.5-10.5-10.5m7.656 26.406l-8.594 1.156 15.281 112.41 8.594-1.188-15.281-112.37m133 17.188c-5.799 0-10.5 4.701-10.5 10.5s4.701 10.5 10.5 10.5 10.5-4.701 10.5-10.5-4.701-10.5-10.5-10.5m-28.813 25.75c-5.799 0-10.5 4.701-10.5 10.5s4.701 10.5 10.5 10.5 10.5-4.701 10.5-10.5-4.701-10.5-10.5-10.5m36.781.844l-8.625.563 1.063 16.688-13.563-6.06-3.563 7.906 17.75 7.938 6.531 103.16 8.656-.563-6.281-98.59 86.34 38.594 3.531-7.906-90.5-40.469-1.344-21.25m-50.813 15.938l-72 54.906 5.25 6.875 72-54.906zm153.44 47.44c-5.799 0-10.5 4.701-10.5 10.5s4.701 10.5 10.5 10.5 10.5-4.701 10.5-10.5-4.701-10.5-10.5-10.5m-233.03 10.875c-5.799 0-10.5 4.701-10.5 10.5s4.701 10.5 10.5 10.5 10.5-4.701 10.5-10.5-4.701-10.5-10.5-10.5m218.09 7.656l-70.47 58.75 5.531 6.656 70.47-58.719-5.531-6.688m-200.78 3.844l-4.063 7.656 105.75 55.59 4.03-7.656-105.72-55.59m118.66 54.625c-5.799 0-10.5 4.701-10.5 10.5s4.701 10.5 10.5 10.5 10.5-4.701 10.5-10.5-4.701-10.5-10.5-10.5" fill="#b7b7b7"/>
</svg>
