<svg xmlns="http://www.w3.org/2000/svg" height="512" width="512">
 <path d="M77.975 428.96c0-4.522 17.43-61.6 21.45-70.237 8.39-18.035 22.003-28.674 45.923-35.895 6.784-2.048 11.823-2.843 12.667-2 2.033 2.034-20.578 70.368-26.65 80.54-5.965 9.996-14.686 16.243-31.99 22.915-15.393 5.937-21.4 7.25-21.4 4.678zM141 420.33c0-4.923 17.373-70.925 22.306-84.743 9.77-27.372 21.6-43.514 37.13-50.666 12.548-5.778 26.58-7.987 61.234-9.64 17.754-.848 39.37-1.892 48.037-2.322 15.01-.745 15.756-.635 15.756 2.304 0 3.332-12.82 52.654-19.08 73.395-8.05 26.683-15.935 38.46-29.56 44.153-3.117 1.302-18.87 4.806-35.005 7.787-35.765 6.607-58.862 11.7-80.122 17.67-18.573 5.215-20.696 5.427-20.696 2.063zm205.36-24.102c-2.858-14.29.26-26.06 8.53-32.195 8.352-6.194 44.93-21.115 46.91-19.135 1.47 1.47-7.927 35.395-12.207 44.077-1.876 3.804-5.14 7.706-7.253 8.67-2.114.964-10.87 2.066-19.455 2.45l-15.613.695zm-13.21-49.282c0-8.53 4.154-19.61 9.37-24.99 3.322-3.43 10.223-7.182 21.218-11.54 18.8-7.45 25.233-11.168 37.31-21.55 4.796-4.123 9.12-7.495 9.61-7.495 2.272 0 .356 7.298-5.538 21.088-14.946 34.97-24.393 42.777-58.136 48.042-14.02 2.187-13.835 2.235-13.835-3.554zm-4.594-41.365c.046-4.653 7.807-32.647 9.968-35.946 1.314-2.005 4.977-5.28 8.14-7.276 5.42-3.422 66.646-25.566 70.688-25.566 3.865 0 1.512 5.85-8.963 22.29-13.81 21.67-22.68 31.888-31.307 36.063-6.69 3.24-40.425 12.322-45.855 12.346-1.48.007-2.682-.85-2.672-1.91zM157.7 270.655c-17.626-1.778-28.003-5.597-36.873-13.572-11.692-10.512-18.453-26.13-24.522-56.646-5.124-25.764-18.23-119.574-16.896-120.93 1.222-1.243 123.333 18.24 162.276 25.888 42.634 8.375 57.135 16.44 66.132 36.785 5.11 11.552 7.78 26.524 12.563 70.4 2.374 21.77 4.755 39.583 5.293 39.583.54 0 1.446-3.118 2.018-6.93.573-3.812 2.64-11.635 4.595-17.384 9.17-26.958 15.433-32.64 52.31-47.45 9.328-3.745 21.223-9.19 26.433-12.102 10.01-5.592 14.353-6.587 14.353-3.29 0 5.01-11.27 47.24-14.485 54.27-1.974 4.318-5.92 9.627-8.77 11.798-4.244 3.234-59.805 23.548-73.203 26.765-1.992.48-3.46 2-3.46 3.588 0 3.307-2.206 3.508-75.32 6.86-77.745 3.565-79.987 3.623-92.44 2.366zm188.516-98.22c-15.4-7.02-23.786-19.966-23.812-36.762-.023-16.913 10.683-31.53 22.44-35.887 11.76-4.358 4.31-3.964 20.194-4.084 19.785-.15 37.275 16.04 38.505 38.868.512 9.51.07 11.74-3.844 19.187-4.935 9.397-14.335 17.49-23.164 19.942-8.978 2.493-23.397 1.892-30.32-1.263z" fill="#b7b7b7"/>
</svg>
