<svg version="1.1" viewBox="0 0 512 512" xmlns="http://www.w3.org/2000/svg">
 <path d="m258.31 64.915c-58.555 0-106.4 47.849-106.4 106.4v63.177c-23.312 5.1056-40.64 25.728-40.64 50.616v121.18c0 28.747 23.162 51.909 51.909 51.909h190.27c28.747 0 51.724-23.162 51.724-51.909v-121.18c0-24.826-17.232-45.445-40.456-50.616v-63.177c0-58.555-47.849-106.4-106.4-106.4zm0 35.468c39.387 0 70.936 31.549 70.936 70.936v62.069h-141.87v-62.069c0-39.387 31.549-70.936 70.936-70.936z" fill="#b7b7b7" stroke-width="8.938"/>
</svg>
