<svg height="512" viewBox="0 0 512 512" width="512" xmlns="http://www.w3.org/2000/svg">
 <g fill="#b7b7b7" fill-rule="evenodd">
  <path d="m386.35 125.65c-141.76 4.727-256.29 118.62-260.7 260.7 141.76-4.727 256.29-118.62 260.7-260.7m-58.777 20.972c.626-.025 1.263-.007 1.897 0 20.287.209 36.566 16.828 36.36 37.12-.209 20.287-16.828 36.531-37.12 36.32-20.287-.209-36.566-16.794-36.36-37.08.203-19.653 15.8-35.573 35.22-36.36m-71.02 56.88c28.401.293 51.17 23.546 50.878 51.947-.293 28.401-23.546 51.21-51.947 50.913-28.401-.293-51.21-23.546-50.913-51.947.293-28.401 23.581-51.21 51.982-50.913m-75.71 86.86c.626-.025 1.263-.007 1.897 0 20.287.209 36.566 16.828 36.36 37.12-.209 20.287-16.828 36.531-37.12 36.32-20.287-.209-36.566-16.794-36.36-37.08.203-19.653 15.8-35.573 35.22-36.36"/>
  <path d="m329.22 169.78c-7.49-.077-13.61 5.916-13.688 13.406-.077 7.49 5.916 13.641 13.406 13.719 7.49.077 13.641-5.947 13.719-13.438.077-7.49-5.947-13.61-13.438-13.688m-74.34 57.47c-14.639.591-26.41 12.591-26.563 27.406-.158 15.293 12.11 27.811 27.406 27.969 15.293.158 27.811-12.11 27.969-27.406.158-15.293-12.11-27.811-27.406-27.969-.478-.005-.934-.019-1.406 0m-72.37 86.25c-7.49-.077-13.641 5.947-13.719 13.438-.077 7.49 5.947 13.61 13.438 13.688 7.49.077 13.61-5.916 13.688-13.406.077-7.49-5.916-13.641-13.406-13.719"/>
 </g>
</svg>
