<svg height="512" viewBox="0 0 512 512" width="512" xmlns="http://www.w3.org/2000/svg">
 <path d="m186.6 187.79c-35.593 35.598-35.593 93.63 0 129.23 35.598 35.593 93.63 35.593 129.23 0 35.593-35.598 35.593-93.63 0-129.23-35.598-35.593-93.63-35.593-129.23 0m-67.912 101.87c-26.22 26.22-26.69 69.53-.474 95.75 26.22 26.22 69.53 25.743 95.75-.474 5.881-5.876 9.966-12.635 13.209-19.803-21.11-4.494-41.14-14.733-57.54-31.13-16.397-16.397-26.634-36.434-31.13-57.54-7.172 3.241-13.932 7.326-19.803 13.209m169.8-169.8c-5.881 5.876-10 12.673-13.209 19.803 21.11 4.494 41.14 14.733 57.54 31.13 16.397 16.397 26.634 36.434 31.13 57.54 7.134-3.207 13.932-7.326 19.803-13.209 26.22-26.22 26.69-69.53.474-95.75-26.22-26.22-69.53-25.743-95.75.474" fill="#b7b7b7" fill-rule="evenodd"/>
</svg>
