<?xml version="1.0" encoding="UTF-8"?>
<svg width="512" height="512" version="1.1" viewBox="0 0 512 512" xmlns="http://www.w3.org/2000/svg">
 <g transform="translate(0 -540.36)">
  <path d="m425.35 611.66-104.95 88.021-8.5178 21.261a13.542 13.542 0 0 0-5.024-0.97907 13.542 13.542 0 0 0-13.542 13.542 13.542 13.542 0 0 0 13.542 13.542 13.542 13.542 0 0 0 13.542-13.542 13.542 13.542 0 0 0-0.97907-5.024l21.261-8.5178 88.021-104.95zm-241.04 13.542c-54.167 0-94.792 40.625-94.792 94.792 0.0025 22.344 5.2813 45.23 14.49 67.573-9.2626 22.344-14.49 45.365-14.49 67.844 0 19.094 5.1459 36.427 14.083 50.917l9.0188-10.766c-6.1073-11.632-9.5199-25.188-9.5199-40.219 0-16.386 3.2365-33.448 9.0459-50.511 9.1136 17.74 20.583 34.938 33.99 50.782l8.8834-10.549c-14.761-18.146-27.084-37.646-36.021-57.688 12.431-27.896 31.417-54.98 54.709-78.271 23.292-23.292 50.375-42.25 78.407-54.709 20.042 8.8834 39.542 21.125 57.688 35.886l10.576-8.8563c-15.844-13.298-33.042-24.781-50.782-33.854 16.927-5.7688 33.99-8.9646 50.375-8.9646 15.031 0 28.573 3.399 40.219 9.5199l10.766-9.0188c-14.49-8.9105-31.959-14.083-51.052-14.083-22.344 0-45.365 5.2813-67.709 14.49-22.344-9.2355-45.365-14.49-67.709-14.49zm0 13.542c16.386 0 33.313 3.2229 50.24 8.9917-50.782 26-96.553 71.636-122.55 122.42-5.8094-16.927-9.0459-33.99-9.0459-50.24-7e-3 -47.396 33.854-81.251 81.251-81.251zm216.67 30.198-9.0188 10.739c6.1344 11.632 9.5199 25.323 9.5199 40.219-1e-3 7.1094-0.68114 14.354-1.8552 21.667 3.6427 5.85 7.0824 11.808 10.238 17.875 3.3448-13.244 5.1594-26.542 5.1594-39.542 2e-3 -19.094-5.1323-36.427-14.083-51.052zm-148.96 23.969a94.792 94.792 0 0 0-94.792 94.792 94.792 94.792 0 0 0 14.354 50.105l1.0048-0.39677c1.9636-10.021 8.7344-18.552 18.146-21.396a67.709 67.709 0 0 1-6.4594-28.302 67.709 67.709 0 0 1 67.709-67.709 67.709 67.709 0 0 1 28.302 6.2428c2.9792-9.2626 11.375-15.979 21.261-17.875l0.44958-1.1104a94.792 94.792 0 0 0-50.105-14.354zm106.03 26.542-8.8563 10.549c14.761 18.011 26.948 37.511 35.75 57.417-12.418 27.896-31.417 55.115-54.573 78.407-42.115 42.115-97.094 70.823-146.25 70.823-15.031 0-28.573-3.399-40.219-9.5198l-10.766 9.0189c14.49 8.9104 31.959 14.083 51.052 14.083 80.032 0 167.92-67.032 207.19-144.9 5.823 17.063 9.0459 34.125 9.0459 50.511 0 47.396-33.854 81.251-81.251 81.251-10.387 0-20.99-1.3014-31.823-3.724-5.7553 3.3583-11.619 6.4865-17.469 9.3574 16.386 5.0781 33.042 7.9083 49.292 7.9083 54.167 0 94.792-40.625 94.792-94.792 0-46.313-22.344-95.199-56.469-135.42zm-25.594 18.146-1.0576 0.42251c-1.95 9.9532-8.599 18.417-17.875 21.396a67.709 67.709 0 0 1 6.2157 28.302 67.709 67.709 0 0 1-67.709 67.709 67.709 67.709 0 0 1-28.302-6.4594c-2.925 9.3844-11.402 16.115-21.396 18.146l-0.39677 1.0048a94.792 94.792 0 0 0 50.105 14.354 94.792 94.792 0 0 0 94.792-94.792 94.792 94.792 0 0 0-14.354-50.105zm-80.438 9.4657a40.625 40.625 0 0 0-40.625 40.625 40.625 40.625 0 0 0 40.625 40.625 40.625 40.625 0 0 0 40.625-40.625 40.625 40.625 0 0 0-40.625-40.625zm-54.167 81.251a13.542 13.542 0 0 0-13.542 13.542 13.542 13.542 0 0 0 0.97907 5.024l-21.261 8.5178-88.021 104.95 3.3855 3.3854 104.95-88.022 8.5178-21.261a13.542 13.542 0 0 0 5.024 0.97907 13.542 13.542 0 0 0 13.542-13.542 13.542 13.542 0 0 0-13.542-13.542zm-3.3042 56.469-10.576 8.8563c10.901 9.1272 22.344 17.333 34.261 24.646 5.8094-1.5437 11.659-3.426 17.469-5.6604-14.219-7.773-28.167-17.198-41.167-27.896z" fill="#fff" stroke-width="13.542"/>
 </g>
</svg>
