<svg height="512" viewBox="0 0 512 512" width="512" xmlns="http://www.w3.org/2000/svg">
 <g fill="#b7b7b7" transform="matrix(1.3170588 0 0 1.3170588 -81.167049 -108.5413)">
  <path d="m175.62337 343.1372h43.49257v60.06908h-43.49257m0-60.06908"/>
  <path d="m294.28427 337.88529h43.49257v65.04906h-43.49257m0-65.04906"/>
  <path d="m153.28711 157.23633c-9.82436 0-17.79883 7.86047-17.79883 17.49219v162.54296c0 9.67024 7.97447 17.49219 17.79883 17.49219h205.42578c9.82436 0 17.79883-7.82195 17.79883-17.49219v-162.54296c0-9.63172-7.97447-17.49219-17.79883-17.49219zm21.09766 20.28711h163.23046c7.80628 0 14.14258 6.24515 14.14258 13.89844v129.15624c0 7.6839-6.3363 13.89844-14.14258 13.89844h-163.23046c-7.80639 0-14.14258-6.21454-14.14258-13.89844v-129.15624c0-7.65328 6.33619-13.89844 14.14258-13.89844z"/>
 </g>
</svg>
