<svg height="512" viewBox="0 0 512 512" width="512" xmlns="http://www.w3.org/2000/svg" xmlns:xlink="http://www.w3.org/1999/xlink">
 <path id="a" d="m21.812 1023h22.625l-8.813-8.813z" fill="#b7b7b7"/>
 <path d="m289.37489 254.92235c0 18.705-15.40039 33.8726-34.39246 33.8726-18.99208 0-34.39247-15.1676-34.39247-33.8726 0-18.705 15.40039-33.8726 34.39247-33.8726 18.99207 0 34.39246 15.1676 34.39246 33.8726" fill="#b7b7b7"/>
 <use fill="#b7b7b7" height="1" transform="matrix(9.3030433 0 0 9.1622785 22.579445 -9169.9387)" width="1" xlink:href="#a"/>
 <use fill="#b7b7b7" height="1" transform="matrix(4.6515793 -7.9348232 8.0566811 4.5811393 -8149.1921 -4257.8119)" width="1" xlink:href="#a"/>
 <use fill="#b7b7b7" height="1" transform="matrix(-4.6515793 -7.9348232 8.0566811 -4.5811393 -7915.737 5168.0115)" width="1" xlink:href="#a"/>
 <use fill="#b7b7b7" height="1" transform="matrix(-9.3030433 0 0 -9.1622785 489.42056 9681.9387)" width="1" xlink:href="#a"/>
 <use fill="#b7b7b7" height="1" transform="matrix(-4.6515793 7.9348232 -8.0566811 -4.5811393 8661.1921 4769.8119)" width="1" xlink:href="#a"/>
 <use fill="#b7b7b7" height="1" transform="matrix(4.6515793 7.9348232 -8.0566811 4.5811393 8427.737 -4656.0115)" width="1" xlink:href="#a"/>
</svg>
