<svg viewBox="0 0 512 512" xmlns="http://www.w3.org/2000/svg">
 <path d="m280.09839 92.311768c-16.79072-.03118-30.81541 3.206999-44.31599 10.263882-12.50581 6.53723-27.79399 19.39047-35.35865 29.69444-12.78346 17.44846-12.11385 16.88723-18.16112 14.36617-19.0668-7.93435-41.10899-9.32702-58.63465-3.68953-32.448599 10.42275-55.678561 42.92332-57.069746 79.78006-.244979 5.93443-.907165 11.63428-1.527779 12.68695-.620614 1.01258-4.59076 2.81503-8.801432 3.91669-19.947241 5.22622-35.826344 18.52043-44.124456 36.9384-3.9374829 8.73908-4.3650828 11.58232-4.3650828 29.1837 0 18.50112.2835819 20.02593 5.2232518 30.48431 8.713834 18.44322 27.290677 34.58661 44.838607 38.92942 6.348672 1.56044 52.247367 2.04446 53.672707.5731.5731-.58795-.38158-3.95678-2.16473-7.53496-4.65015-9.49332-8.01156-26.08806-8.01601-39.63169-.0134-37.20714 21.51214-66.29136 58.40896-78.88328 11.92232-4.06666 14.69578-5.85426 14.69578-9.43987 0-5.05696 8.79995-25.38875 15.70391-36.30739 9.68336-15.31046 22.49354-27.07985 38.45727-35.26512 39.92863-20.48174 86.91563-13.97866 115.69845 15.97264l10.22231 10.59646 11.18887-3.02141c6.1512-1.65398 13.20512-3.07634 15.66679-3.13425 5.63303-.0772 5.85574-4.28639 1.07197-19.18112-14.95115-46.61137-55.39498-77.165462-102.31369-77.279786zm-3.24857 83.886802c-19.89231-.0772-28.2023 1.80245-44.6456 10.37672-15.71133 8.19269-30.43828 28.22456-38.38006 52.24737-1.75198 5.28709-3.17137 11.2438-3.17137 13.24372 0 6.3843-3.68063 9.14589-15.7039 11.71446-24.15049 5.16238-42.52096 19.17964-49.4561 37.76687-2.83285 7.58248-3.6346 13.24521-3.62272 25.03836.046 36.87604 16.80112 61.74365 46.85338 69.55329 6.24474 1.61092 42.3903 2.02516 156.08883 1.79354l147.9674-.27319 6.63819-3.73111c14.16425-7.88684 23.10525-23.75555 24.57661-43.65676 2.25529-30.42344-10.15105-51.11453-36.58801-60.97754l-9.28842-3.46683-.98289-13.17245c-3.77713-48.16438-50.64387-76.96948-97.64868-60.04216l-9.73533 3.50246-10.8162-11.86442c-19.71265-21.54628-33.81306-27.90832-62.06583-28.06124" fill="#b7b7b7"/>
</svg>
