<svg height="512" viewBox="0 0 512 512" width="512" xmlns="http://www.w3.org/2000/svg">
 <path d="m422.95 78.53v4h4.156c-1.37-1.351-2.755-2.681-4.156-4m0 29.03v28.594h40.781v-7.531c-4.477-7.285-9.335-14.312-14.531-21.06h-26.25m0 53.625v28.656h40.781v-28.656zm0 53.688v28.594h40.781v-28.594zm0 53.625v28.625h40.781v-28.625zm0 53.656v28.625h40.781v-28.625zm0 53.656v28.625h26.25c5.196-6.751 10.05-13.778 14.531-21.06v-7.563h-40.781m0 53.656v4c1.402-1.319 2.786-2.649 4.156-4z" fill="#b7b7b7"/>
 <path d="m89.09 78.53c-1.402 1.319-2.786 2.649-4.156 4h4.156zm-26.25 29.03c-5.196 6.751-10.05 13.778-14.531 21.06v7.531h40.781v-28.594h-26.25m-14.531 53.625v28.656h40.781v-28.656zm0 53.688v28.594h40.78v-28.59h-40.781m0 53.625v28.625h40.781v-28.625zm0 53.656v28.625h40.781v-28.625zm0 53.656v7.563c4.477 7.285 9.335 14.312 14.531 21.06h26.25v-28.625h-40.781m36.625 53.656c1.37 1.351 2.755 2.681 4.156 4v-4z" fill="#b7b7b7"/>
 <path d="m256 144.07c-61.819 0-111.93 50.11-111.93 111.93 0 61.819 50.11 111.93 111.93 111.93 61.819 0 111.93-50.11 111.93-111.93 0-61.819-50.11-111.93-111.93-111.93m-34.441 41.975l45.42 33.15 45.42 33.15-45.42 33.15-45.42 33.365v-132.81" fill="#b7b7b7" fill-rule="evenodd"/>
</svg>
