<?xml version="1.0" encoding="UTF-8" standalone="no"?>
<svg xmlns="http://www.w3.org/2000/svg" height="512" viewBox="0 0 512 512" width="512" version="1.1">
 <g transform="matrix(15.118494,0,0,15.118494,13.463256,-12.038506)" style="fill:#b7b7b7;fill-opacity:1;fill-rule:evenodd;">
  <g style="fill:#b7b7b7;fill-opacity:1">
   <path d="m 16,27 c -1.656854,0 -3,-1.343146 -3,-3 0,-1.155192 0.652924,-2.157885 1.609862,-2.659171 L 16,13 17.390138,21.340829 C 18.347076,21.842115 19,22.844808 19,24 c 0,1.656854 -1.343146,3 -3,3 z M 28,19 C 28,12.372583 22.627417,7 16,7 9.3725827,7 4,12.372583 4,19 4,20.745131 4.3725208,22.403255 5.0423809,23.89919 4.3883003,24.16824 3.7859763,24.461098 3.2426403,24.774601 2.4444494,23.014013 2,21.05891 2,19 2,11.268013 8.2680131,5 16,5 c 7.731987,0 14,6.268013 14,14 0,2.05891 -0.444449,4.014013 -1.24264,5.774601 C 28.214024,24.461098 27.6117,24.16824 26.957619,23.89919 27.627479,22.403255 28,20.745131 28,19 Z m 0,0" style="fill:#b7b7b7;fill-opacity:1"/>
   <path d="m 5.2105538,16.565534 3.8042261,1.236068 0.618034,-1.902113 -3.8042261,-1.236068 -0.618034,1.902113 z m 0,0" style="fill:#b7b7b7;fill-opacity:1"/>
   <path d="m 8.7137216,10.692375 2.3511414,3.236068 1.618034,-1.17557 -2.351141,-3.2360684 -1.6180344,1.1755704 z m 0,0" style="fill:#b7b7b7;fill-opacity:1"/>
   <path d="m 15,8 0,4 2,0 0,-4 -2,0 z m 0,0" style="fill:#b7b7b7;fill-opacity:1"/>
   <path d="m 21.668244,9.5168046 -2.35114,3.2360684 1.618033,1.17557 2.351142,-3.236068 -1.618035,-1.1755704 z m 0,0" style="fill:#b7b7b7;fill-opacity:1"/>
   <path d="m 26.171412,14.663421 -3.804226,1.236068 0.618034,1.902113 3.804226,-1.236068 -0.618034,-1.902113 z m 0,0" style="fill:#b7b7b7;fill-opacity:1"/>
   <path d="m 26.789446,21.474017 -3.804226,-1.236068 -0.618034,1.902113 3.804226,1.236068 0.618034,-1.902113 z m 0,0" style="fill:#b7b7b7;fill-opacity:1"/>
   <path d="m 5.8285878,23.37613 3.8042261,-1.236068 -0.618034,-1.902113 -3.8042261,1.236068 0.618034,1.902113 z m 0,0" style="fill:#b7b7b7;fill-opacity:1"/>
  </g>
 </g>
</svg>
