<svg viewBox="0 0 512 512" xmlns="http://www.w3.org/2000/svg">
 <path d="m166.05 374.41c-15.13-.733-29.11-5.969-40.775-15.277-13.943-11.123-23.15-27.15-25.711-44.751-.697-4.791-.667-3.531-.713-29.625l-.043-24.1h53.796v22.13c0 18.661.029 22.318.178 23.301 1.015 6.686 5.895 12.04 12.495 13.705 1.689.427 4.964.547 6.695.246 3.01-.523 6.04-1.963 8.204-3.9 2.825-2.527 4.478-5.37 5.417-9.315.208-.875.223-3.605.288-54.22.064-49.741.083-53.41.284-55.08.877-7.266 2.325-13.1 4.757-19.18 1.563-3.905 4.405-9.262 6.829-12.868 11.04-16.426 28.661-27.545 48.06-30.32 3.806-.545 5.661-.668 10.131-.672 4.472-.004 6.553.132 10.254.671 30.343 4.415 54.46 28.359 59.12 58.689.725 4.72.723 4.69.775 18.321l.048 12.611-.468.127c-.257.07-7.462 2.216-16.01 4.769l-15.544 4.642-10.735-4.999-10.735-4.999-.067-11.03c-.074-12.06-.022-11.191-.813-13.609-1.829-5.591-6.668-9.829-12.628-11.06-1.498-.31-4.706-.316-6.231-.012-5.516 1.099-10.05 4.787-12.25 9.959-.48 1.131-.731 1.971-1.081 3.632-.175.829-.202 6.198-.269 53.725-.081 57.666-.025 53.34-.747 58.39-1.845 12.911-7.19 24.823-15.786 35.19-1.695 2.044-6.397 6.746-8.457 8.46-10.1 8.402-21.602 13.648-34.32 15.661-4.293.679-9.751.986-13.938.783m172.88-.037c-9.821-.616-18.737-2.989-27.303-7.267-3.1-1.548-4.838-2.547-7.552-4.339-15.334-10.128-26.323-26.341-29.964-44.21-.839-4.119-1.225-7.339-1.41-11.77-.123-2.952-.175-45.546-.056-45.666.037-.037.355.071.706.241 2.295 1.11 20.678 9.642 20.777 9.643.068 0 7.196-2.109 15.841-4.688s15.815-4.718 15.933-4.753c.204-.061.215 1.071.215 22.554 0 24.622-.022 23.772.686 26.25.168.587.63 1.732 1.026 2.546 2.329 4.772 6.631 8.06 11.896 9.104 1.469.29 4.602.288 6.081-.003 5.957-1.175 10.84-5.437 12.725-11.11.86-2.586.789-.337.832-26.58l.038-23.67h53.79l-.043 24.04c-.047 26-.018 24.797-.711 29.625-1.742 12.13-6.796 23.87-14.389 33.435-2.488 3.134-6.265 7.094-9.06 9.497-11.55 9.937-25.15 15.666-40.34 16.992-2.02.176-7.751.252-9.721.128" fill="#b7b7b7"/>
</svg>
