<svg height="512" viewBox="0 0 512 512" width="512" xmlns="http://www.w3.org/2000/svg">
 <path d="m118.34 341.29c10.02 37.413 48.48 59.61 85.89 49.589 36.59-9.804 58.63-46.795 50.2-83.42l-9.735-49.28 44.24-15.15c.129-.034.258-.069.387-.104 3.318-.889 6.522-2.01 9.589-3.327l.404-.133-.052-.011c31.29-13.628 48.75-48.45 39.648-82.42-10.02-37.413-48.48-59.64-85.9-49.612-36.59 9.804-58.62 46.818-50.2 83.44l8.978 48.19-43.27 16.188c-.197.053-.395.106-.593.159-37.413 10.02-59.61 48.48-49.589 85.89m27.306-7.316c-5.337-19.916 4.64-40.32 22.705-48.737 49.619-17.432 0-.265 49.754-17.533l.145.45c9.272 49.659-.137-.225 9.436 50.53 2.18 20.16-10.575 39.477-30.772 44.889-22.324 5.982-45.29-7.276-51.27-29.6m93.72-102.72l-2.979-15.13-.029-.017c-3.405-18.342 1.3 6.534-6.681-35.782-2.18-20.16 10.581-39.454 30.778-44.866 22.324-5.982 45.28 7.253 51.26 29.577 5.337 19.916-4.64 40.32-22.705 48.737-42.815 15.04-15.13 5.496-37.753 13.365-.744.259-1.846.639-2.481.86-3.282 1.141-4.077 1.403-9.412 3.255" fill="#b7b7b7" fill-rule="evenodd"/>
</svg>
