<?xml version="1.0" encoding="UTF-8" standalone="no"?>
<svg xmlns="http://www.w3.org/2000/svg" height="512" viewBox="0 0 512 512" width="512" version="1.1">
 id=&quot;defs24&quot; /&gt;
 <path d="m245.51 125.36a4.5565 4.5565 0 0 0 -4.1665 4.6473v72.834h-40.04a4.5565 4.5565 0 0 0 -3.4187 7.7188l98.09 111.48a4.5565 4.5565 0 0 0 6.8907-.16025l96.36-111.48a4.5565 4.5565 0 0 0 -3.4454-7.5585h-40.2v-72.834a4.5565 4.5565 0 0 0 -4.6474-4.6473h-104.94a4.5565 4.5565 0 0 0 -.48075 0m-133.86 162.33v22.01l44.04 16.987-44.04 16.693v21.287l65.68-27.03.294-21.13-65.97-28.819m65.97 76.974v21.981h65.943v-21.981z" fill="#b7b7b7"/>
</svg>
