<svg height="512" viewBox="0 0 512 512" width="512" xmlns="http://www.w3.org/2000/svg">
 <g fill="#b7b7b7" transform="matrix(1.5493357 .06419803 -.06419803 1.5493357 -123.14147 -156.9794)">
  <rect height="292.58" ry="31.737" transform="matrix(.91555532 -.40219207 .40219207 .91555532 0 0)" width="63.475" x="63.1" y="174.04"/>
  <path d="m329.56489 118.19909c-13.03676-.006-25.05963 8.47103-29.13418 21.74274l-65.34414 212.84137c-5.01484 16.33441 3.9635 33.56499 20.13106 38.63159 16.16755 5.06658 33.22025-4.0063 38.23509-20.34072l11.25203-36.64825a20.290408 20.258639 0 0 1 -11.28024-18.12559 20.290408 20.258639 0 0 1 5.74636-14.09621 20.290408 20.258639 0 0 1 -2.40498-9.53869 20.290408 20.258639 0 0 1 9.42998-17.10543 20.290408 20.258639 0 0 1 20.17054-18.1066 20.290408 20.258639 0 0 1 1.93865.0988l30.4918-99.31939c5.01483-16.33442-3.9635-33.56311-20.13106-38.62969-3.03142-.94999-6.09242-1.40269-9.10091-1.40392z"/>
 </g>
</svg>
