<svg viewBox="0 0 512 512" xmlns="http://www.w3.org/2000/svg">
 <path d="m189.02 97.28c-18.13 0-32.76 14.63-32.76 32.76v141.83c0 18.13 14.63 32.633 32.76 32.633h1.524v72.38c0 20.959 16.879 37.839 37.839 37.839h55.23c20.959 0 37.839-16.879 37.839-37.839v-72.38h1.524c18.13 0 32.76-14.503 32.76-32.633v-141.83c0-18.13-14.63-32.76-32.76-32.76h-133.96m66.916 27.554c45.34 0 82.15 36.816 82.15 82.15 0 45.34-36.816 82.03-82.15 82.03-45.34 0-82.03-36.689-82.03-82.03 0-45.34 36.689-82.15 82.03-82.15m43.17 29.712l-25.395 5.079c-13.974 2.773-26.544 5.186-27.935 5.46l-2.54.508-.127 19.554v19.554h1.143c.605 0 13.163-.215 27.935-.381 14.772-.164 26.904-.237 26.919-.254.016 0 .008-11.163 0-24.76zm-60.948 12.06c-.129.032-7.911 1.55-17.396 3.428l-17.269 3.428v31.617h1.905c1.049-.002 8.358-.032 16.253-.127 7.894-.092 14.946-.251 15.618-.254h1.143v-38.1h-.254m-34.664 42.28v31.617h.127c.151.037 34.462 6.824 34.664 6.857.028.008.097-8.574.127-19.05.029-10.472.008-19.04 0-19.05-.02 0-33.23-.385-34.28-.381h-.635m39.617.508v19.427c0 10.723-.016 19.553 0 19.554.012 0 12.537 2.426 27.808 5.46 15.27 3.034 27.86 5.582 27.935 5.587.122.003.202-1.314.254-13.332.033-7.29 0-18.325 0-24.633v-11.555h-.254c-.153 0-12.205-.09-26.792-.254-14.587-.164-27.03-.254-27.681-.254zm-28.823 125.2h30.855v32.25h-30.855zm52.57 0h30.855v32.25h-30.855z" fill="#b7b7b7" fill-rule="evenodd"/>
</svg>
