<svg viewBox="0 0 512 512" xmlns="http://www.w3.org/2000/svg">
 <path d="m385.26 357.41v-9.233l-7.446-.894c-15.488-2.085-19.36-8.34-19.36-32.763v-117.05c0-24.423 3.872-30.678 19.36-32.763l7.446-.894v-9.233h-67.908l-62.25 153.39-57.19-153.39h-69.4v9.233l7.446.894c15.488 2.085 19.36 8.34 19.36 32.763v117.05c0 24.13-4.17 31.27-19.36 32.763l-9.233.894v9.233h75.35v-9.233l-10.424-.894c-15.19-1.489-19.36-8.637-19.36-32.763v-142.37l68.21 185.26h13.403l74.76-181.68v138.79c0 24.423-3.872 30.678-19.36 32.763l-7.446.894v9.233h83.4" fill="#b7b7b7"/>
</svg>
