<svg height="512" viewBox="0 0 512 512" width="512" xmlns="http://www.w3.org/2000/svg">
 <path d="m128.23 135.64c-12.779 14.513-22.921 31.391-29.687 49.906 8.553.418 23.15.688 49.16.688 14.12 0 21.11 6.414 40.22 36.875l10.06 16.03-14.781 23.06c-17.343 27.06-18.73 28.25-32.594 28.344h-53.12c6.463 18.875 16.422 36.1 29.09 50.969 8.505.265 19.848.344 35.563.344 18.496 0 35.639-14.258 56-46.31 12.804-20.16 20.709-29.965 28.28-30.31 7.58.328 15.526 10.136 28.344 30.31 20.361 32.05 32.07 41.75 55.938 46.31 15.594 0 26.89-.083 35.38-.344 12.671-14.867 22.63-32.09 29.09-50.969h-52.938c-13.864-.096-15.25-1.284-32.594-28.344l-14.781-23.06 10.06-16.03c19.1-30.461 26.13-36.875 40.25-36.875 25.783 0 40.35-.277 48.938-.688-6.77-18.52-16.91-35.4-29.69-49.91h-26.032v.031c-27.09.674-41.22 12.01-68.5 53.688-9.484 14.487-16.475 22.08-23.469 22.5-6.986-.431-13.964-8.03-23.438-22.5-27.842-42.528-42.02-53.47-70.22-53.719-24.422.068-7.694.01-24.531 0" fill="#b7b7b7"/>
</svg>
