<svg height="512" viewBox="0 0 512 512" width="512" xmlns="http://www.w3.org/2000/svg">
 <path d="m471.95 253.05c0 120.9-98.01 218.9-218.9 218.9-120.9 0-218.9-98.01-218.9-218.9 0-120.9 98.01-218.9 218.9-218.9 120.9 0 218.9 98.01 218.9 218.9" fill="#f48c2c" fill-rule="evenodd"/>
 <g fill="#ffffff" fill-rule="evenodd" transform="matrix(.68458 .39524 -.39524 .68458 417.78 -381.02)">
  <g transform="matrix(.80662 0 0 .80662 49.51 154)">
   <path d="m256 104.56c-83.63 0-151.44 67.806-151.44 151.44 0 83.63 67.806 151.44 151.44 151.44 83.63 0 151.44-67.806 151.44-151.44 0-83.63-67.806-151.44-151.44-151.44m0 74.75c42.35 0 76.69 34.34 76.69 76.69s-34.34 76.69-76.69 76.69-76.69-34.34-76.69-76.69 34.34-76.69 76.69-76.69" transform="translate(0 540.36)"/>
   <path d="m562.86-316.57c0 198.82-161.18 360-360 360s-360-161.18-360-360 161.18-360 360-360 360 161.18 360 360" transform="matrix(.14004 0 0 .14004 227.59 840.69)"/>
  </g>
  <g transform="translate(0 540.36)">
   <path d="m86.81 133.84c-13.151 0-23.75 8.402-23.75 18.844s10.599 18.844 23.75 18.844h170.95c13.151 0 23.75-8.402 23.75-18.844s-10.599-18.844-23.75-18.844h-170.94"/>
   <path d="m148.63 232.09c-9.601.248-17.979 9.514-19.219 21.781l-2.75 27.16c-.03.238-.069.478-.094.719l-13.219 130.88c-1.322 13.08 5.955 24.45 16.344 25.5s19.834-8.634 21.16-21.719l2.75-27.09c.032-.252.068-.496.094-.75l13.219-130.91c1.322-13.08-5.955-24.45-16.344-25.5-.649-.066-1.297-.079-1.938-.063"/>
   <path d="m211.06 139.25c-6.03.114-12.582 2.894-17.813 8.125l-93.03 93.03c-.235.235-.432.479-.656.719l-46.19 46.19c-9.299 9.299-10.821 22.741-3.438 30.13 7.384 7.384 20.794 5.831 30.09-3.469l93.03-93.03c.285-.285.542-.582.813-.875l46.03-46.03c9.299-9.299 10.852-22.71 3.469-30.09-3.23-3.23-7.62-4.776-12.313-4.688"/>
  </g>
 </g>
 <circle cx="256" stroke="#fefefe" cy="256" r="181.13" stroke-width="18.771" fill="none"/>
</svg>
