<svg height="512" viewBox="0 0 512 512" width="512" xmlns="http://www.w3.org/2000/svg">
 <path d="m471.95 253.05c0 120.9-98.01 218.91-218.91 218.91s-218.91-98.01-218.91-218.91 98.01-218.91 218.91-218.91 218.91 98.01 218.91 218.91" fill="#e49e0e" fill-rule="evenodd"/>
 <g fill="#c50000">
  <path d="m325.4 135.11l-48.603 84.05c-12.877-7.395-29.18-8.03-42.969-.07l-48.47-83.944c43.31-25 96.73-25.04 140.04-.033"/>
  <path d="m395.39 256.34c0 50.01-26.74 96.26-70.05 121.26l-48.45-83.91c13.786-7.959 21.39-22.397 21.424-37.25l97.07-.102"/>
  <path d="m278.65 242.92c7.433 12.874 3.048 29.349-9.827 36.782-12.874 7.433-29.368 3.01-36.802-9.861-7.433-12.874-2.994-29.334 9.881-36.767 12.874-7.433 29.31-3.03 36.747 9.846"/>
  <path d="m212.41 256.34c-.017 7.338 1.699 14.767 5.633 21.58 3.933 6.813 9.528 12.05 15.892 15.702l-48.657 84.03c-43.31-25-69.99-71.22-69.99-121.23l97.12-.088"/>
 </g>
 <path d="m402.25 177.2a166.89 166.89 0 0 0 -230.34-65.35 166.89 166.89 0 0 0 166.89 289.05 166.89 166.89 0 0 0 63.45-223.7m-76.847-42.08l-48.603 84.05c-12.877-7.395-29.18-8.03-42.969-.07l-48.47-83.944c43.31-25 96.73-25.04 140.04-.033m69.99 121.23c0 50.01-26.74 96.26-70.05 121.26l-48.45-83.91c13.786-7.959 21.39-22.397 21.424-37.25l97.07-.102m-116.73-13.44c7.433 12.874 3.048 29.349-9.827 36.782-12.874 7.433-29.368 3.01-36.802-9.861-7.433-12.874-2.994-29.334 9.881-36.767 12.874-7.433 29.31-3.03 36.747 9.846m-66.25 13.415c-.017 7.338 1.699 14.767 5.633 21.58 3.933 6.813 9.528 12.05 15.892 15.702l-48.657 84.03c-43.29-25-69.98-71.22-69.98-121.22l97.12-.088" fill="#ffffff"/>
 <circle cx="256" stroke="#fefefe" cy="256" r="181.13" stroke-width="18.771" fill="none"/>
</svg>
