<svg height="512" viewBox="0 0 512 512" width="512" xmlns="http://www.w3.org/2000/svg">
 <path d="m471.94 253.04342c0 120.8954-98.00438 218.90438-218.90438 218.90438-120.8954 0-218.904376-98.00438-218.904376-218.90438 0-120.89541 98.004376-218.904381 218.904376-218.904381 120.89541 0 218.90438 98.004371 218.90438 218.904381" fill="#cd1d31" fill-rule="evenodd"/>
 <path d="m255.72 80.63l-30.906 49.969 18.313-.125v138.41l-.219.219.219.219v20.16l-34.19-34.19v-32.594c8.294-4.478 13.938-13.226 13.938-23.313 0-14.636-11.864-26.5-26.5-26.5-14.636 0-26.5 11.864-26.5 26.5 0 10.09 5.612 18.835 13.906 23.313v43.03l59.34 59.34v10.438c-13.726 5.107-23.5 18.34-23.5 33.844 0 19.921 16.14 36.06 36.06 36.06 19.921 0 36.09-16.14 36.09-36.06 0-15.493-9.78-28.73-23.5-33.844v-56.16l57.813-57.813v-45.09h9.344v-41.656h-43.875v41.656h9.375v34.625l-32.656 32.656v-113.37l19-.125-31.563-49.594" fill="#ffffff" fill-rule="evenodd"/>
 <circle cx="256" stroke="#fefefe" cy="256" r="181.13" stroke-width="18.771" fill="none"/>
</svg>
