<svg height="512" viewBox="0 0 512 512" width="512" xmlns="http://www.w3.org/2000/svg">
 <path d="m471.95 253.05c0 120.9-98.01 218.9-218.9 218.9-120.9 0-218.9-98.01-218.9-218.9 0-120.9 98.01-218.9 218.9-218.9 120.9 0 218.9 98.01 218.9 218.9" fill="#b93d48" fill-rule="evenodd"/>
 <path d="m193.38 124.09v31.5h55.16v-31.5zm0 46.47v31.5h55.16v-31.5zm-70.09 46.47v31.5h55.16v-31.5zm70.09 0v31.5h55.16v-31.5zm140.19 0v31.5h55.16v-31.5zm-210.28 46.44v31.5h55.16v-31.5zm70.09 0v31.5h55.16v-31.5zm70.09 0v31.5h55.16v-31.5zm70.09 0v31.5h55.16v-31.5zm-210.28 46.47v31.5h55.16v-31.5zm70.09 0v31.5h55.16v-31.5zm70.09 0v31.5h55.16v-31.5zm70.09 0v31.5h55.16v-31.5zm-210.28 46.47v31.5h55.16v-31.5zm70.09 0v31.5h55.16v-31.5zm70.09 0v31.5h55.16v-31.5zm70.09 0v31.5h55.16v-31.5z" fill="#ffffff"/>
 <circle cx="256" stroke="#fefefe" cy="256" r="181.13" stroke-width="18.771" fill="none"/>
</svg>
