<svg height="1814.17" viewBox="0 0 512 512" width="1814.17" xmlns="http://www.w3.org/2000/svg">
 <g transform="translate(0 215.00001)">
  <path d="m471.95 38.049988c0 120.900012-98.01002 218.910012-218.91002 218.910012-120.90001 0-218.909993-98.01-218.909993-218.910012 0-120.900008 98.009983-218.910008 218.909993-218.910008 120.9 0 218.91002 98.01 218.91002 218.910008" fill="#70b455" fill-rule="evenodd"/>
  <path d="m316.15998-72.83002v55.744003l26.557 159.710017-56.26 111.80001c105.03999-16.09002 185.49-106.84003 185.49-216.370023 0-40.4600016-10.98898-78.350004-30.12998-110.870004h-125.66002l-.006-.01398" fill="#ffd459"/>
  <path d="m253.03998-180.86002c-80.30001 0-150.49001 43.25-188.590018 107.710002l61.100008 104.660003 63.47001-104.230002h252.86002c-38.04-64.700003-108.36002-108.140003-188.84002-108.140003" fill="#cd1d31"/>
  <path d="m390 40.999991c0 74.001629-59.99428 133.999989-134.00001 133.999989-74.00163 0-134-59.99428-134-133.999989 0-74.001628 59.99428-134.000003 134-134.000003 74.00163 0 134.00001 59.994279 134.00001 134.000003" fill="#62c0dc"/>
  <path d="m255.99998-57.180017c-54.22001 0-98.18 43.960003-98.18 98.180002l.004.0042c.001 27.109999 10.99 51.65 28.75601 69.420017l.168.16819c-.055-.0548-.11301-.10885-.168-.16403l135.43999 135.439778c65.42001-21.70299 117.14001-73.42998 138.84002-138.85002l-135.43002-135.430138c-17.763-17.767-42.31-28.755999-69.42-28.755999" opacity=".25"/>
  <path d="m354.17998 40.999985c0 54.220003-43.957 98.179995-98.18 98.179995-54.22001 0-98.18-43.957006-98.18-98.179995 0-54.219999 43.957-98.180002 98.18-98.180002 54.22 0 98.18 43.957002 98.18 98.180002" fill="#ffffff"/>
  <path d="m190.97964 256.65l275.88115-161.090005c3.39885-15.409006 5.19023-31.430008 5.19023-47.875008 0-23.272003-3.60645-45.6790002-10.25681-66.720005l-366.309239 213.940008c25.541699 28.414 58.367469 50.00999 95.489729 61.75" fill="#cd1d31"/>
  <g fill="#ffffff" transform="rotate(-30)">
   <path d="m96.152795 268.77781v22.06162h13.067575q6.57412 0 9.72002-2.70225 3.18623-2.74258 3.18623-8.34873 0-5.64648-3.18623-8.3084-3.1459-2.70224-9.72002-2.70224zm0-24.76387v18.14942h12.059275q5.96914 0 8.87305-2.21827 2.94424-2.25859 2.94424-6.85644 0-4.55752-2.94424-6.81611-2.90391-2.2586-8.87305-2.2586zm-8.14707-6.69512h20.811325q9.3167 0 14.35821 3.87188 5.0415 3.87187 5.0415 11.01064 0 5.52549-2.58125 8.79239-2.58125 3.26689-7.58242 4.07353 6.00947 1.29063 9.3167 5.40449 3.34756 4.07354 3.34756 10.20401 0 8.0664-5.48516 12.46259-5.48516 4.3962-15.6085 4.3962h-21.617965z"/>
   <path d="m144.6319 237.31882h38.07343v6.85645h-29.92636v17.82676h28.67607v6.85644h-28.67607v21.81963h30.65234v6.85645h-38.79941z"/>
   <path d="m188.55348 237.31882h50.93935v6.85645h-21.37597v53.35928h-8.1874v-53.35928h-21.37598z"/>
   <path d="m261.07046 245.3449l-11.05097 29.9667h22.14228zm-4.59785-8.02608h9.23604l22.94892 60.21573h-8.46972l-5.48516-15.44717h-27.14346l-5.48515 15.44717h-8.59072z"/>
  </g>
 </g>
 <circle cx="256" stroke="#fefefe" cy="256" r="181.13" stroke-width="18.771" fill="none"/>
</svg>
