<svg height="512" viewBox="0 0 512 512" width="512" xmlns="http://www.w3.org/2000/svg">
 <path d="m471.95 253.05c0 120.9-98.01 218.9-218.9 218.9-120.9 0-218.9-98.01-218.9-218.9 0-120.9 98.01-218.9 218.9-218.9 120.9 0 218.9 98.01 218.9 218.9" fill="#9a3034" fill-rule="evenodd"/>
 <path d="m472.8023 253.50052c0 120.9-98.01 218.91-218.91 218.91-120.90001 0-218.910006-98.01-218.910006-218.91 0-120.9 98.009996-218.910001 218.910006-218.910001 120.9 0 218.91 98.010001 218.91 218.910001" fill="#ffffff" fill-rule="evenodd"/>
 <path d="m253.8823 34.610519c-120.90001 0-218.910006 98.010001-218.910006 218.910001 0 120.9 98.009996 218.91 218.910006 218.91 120.9 0 218.91-98.01 218.91-218.91 0-120.9-98.01-218.910001-218.91-218.910001" fill="#51b0cd"/>
 <path d="m276.9423 248.54052l-160.25001 175.53c37.53501 30.23 85.24001 48.34 137.19001 48.34 65.32 0 123.95-28.625 164.06-74z" fill="#bd446f"/>
 <path d="m411.5723 101.67052l-134.62 146.84 140.91 150.03c34.19-38.62 54.938-89.4 54.938-145.03 0-58.967-23.306-112.48-61.22-151.84" fill="#f6bd7b"/>
 <path d="m253.8823 34.610519c-55.38 0-105.95 20.559-144.50001 54.47 68.57001 73.700001 81.76001 96.650001 156.56001 171.380001 46.33-49.84 113.45-89.12 167.44-132.28-39.577-56.570001-105.22-93.560001-179.5-93.560001" fill="#71c67a"/>
 <path d="m145.4323 387.14052c-1.075-.846-2.675-2.886-3.556-4.533l-1.60201-2.995v-255.94l1.83301-3.563c1.1-2.138 2.806-4.134 4.265-4.983l2.431-1.42 2.944 3.242c1.619 1.783 29.22 32.07 61.33 67.31 32.11 35.24 58.949 64.778 59.63 65.64 1.232 1.564.637 2.246-61.06 69.966-34.27 37.614-62.748 68.48-63.29 68.6-.54.114-1.861-.484-2.936-1.33m39.926-20.9c8.144-8.901 33.24-36.402 55.767-61.12 22.528-24.714 41.23-44.662 41.545-44.33 2.829 2.913 36.634 40.22 36.522 40.31-.08.061-27.881 15.283-61.78 33.827-33.9 18.545-64.07 35.08-67.04 36.742-2.973 1.663-8.65 4.764-12.615 6.891l-7.208 3.867 14.805-16.183m124.42-93.01l-19.899-21.76 7.01-7.66c3.858-4.213 12.833-14.05 19.947-21.867l12.933-14.207 2.205 1.334c1.212.733 13.558 7.565 27.434 15.18 37.739 20.711 38.567 21.298 38.567 27.363 0 3.627-1.229 5.619-5.231 8.482-2.734 1.955-59.52 33.535-62.04 34.499-.675.259-7.82-7.04-20.926-21.367m-80.17-88c-28.519-31.399-53.3-58.696-55.06-60.66l-3.211-3.566 2.851 1.458c5.837 2.986 143.43 78.85 143.98 79.37.518.51-34.671 39.811-36.06 40.27-.349.116-23.967-25.477-52.49-56.883" fill="#ffffff"/>
 <circle cx="256" stroke="#fefefe" cy="256" r="181.13" stroke-width="18.771" fill="none"/>
</svg>
