<svg xmlns="http://www.w3.org/2000/svg" height="512" width="512" version="1.1" viewBox="0 0 512 512">
 <path fill-rule="evenodd" d="m471.95 253.05c0 120.9-98.01 218.9-218.9 218.9-120.9 0-218.9-98.01-218.9-218.9 0-120.9 98.01-218.9 218.9-218.9 120.9 0 218.9 98.01 218.9 218.9" fill="#ef6a47"/>
 <path fill-rule="evenodd" fill="#ffffff" d="m257.39 116.99c46.253 0.92521 81.529 24.543 97.38 45.686l-99.99 73.53-31.06-115.94c11.742-2.5166 23.002-3.4912 33.677-3.2776m-40.834 29.062 29.63 114.7 111.23 64.08c-20.593 41.595-63.48 70.198-113.03 70.198-69.613 0-126.04-56.433-126.04-126.04 0-60.048 42.003-110.26 98.216-122.94m147.05 33.944c43.701 52.953 32.292 111.86 12.441 142.7l-112.52-69.25 100.06-73.44"/>
 <circle r="181.13" cy="256" stroke="#fefefe" cx="256" stroke-width="18.771" fill="none"/>
</svg>
