<svg viewBox="0 0 512 512" xmlns="http://www.w3.org/2000/svg">
 <path d="m471.95 253.05c0 120.9-98.01 218.91-218.91 218.91-120.9 0-218.91-98.01-218.91-218.91 0-120.9 98.01-218.91 218.91-218.91 120.9 0 218.91 98.01 218.91 218.91" fill="#0078ad" fill-rule="evenodd"/>
 <path d="m223.65 410.8c-59.5-4.361-102.85-19.813-112.33-40.05-10.19-21.743 14.264-41.567 64.31-52.13 7.06-1.49 13-2.539 13.213-2.33.209.209-3.489 1.415-8.217 2.681-29.603 7.923-43.23 24.483-32.686 39.706 9.66 13.939 43.06 24.287 86.53 26.81l12.381.719-.766-4.595c-1.196-7.177-6.225-23.98-11-36.77-6.569-17.578-17.1-38.34-32.36-63.835-16.524-27.595-29.42-53.31-32.453-64.7-3.345-12.569-3.144-33.926.447-47.556 4.335-16.451 11.7-29.543 23.655-42.05 22.23-23.26 54.43-32.03 84.91-23.15 15.849 4.621 27.19 11.466 38.36 23.15 15.465 16.179 23.527 33.466 26.16 56.08 1.468 12.629.286 25.966-3.341 37.71-3.541 11.466-14.297 32.873-28.432 56.59-20.16 33.831-28.1 49.5-36.33 71.76-2.771 7.494-10.289 34.08-10.298 36.413 0 1.306 20.649-.088 37.566-2.536 33.17-4.8 54.951-14.03 61.23-25.954 8.03-15.24-4.075-28.878-33.58-37.829-11.879-3.603-10.211-3.684 5.886-.286 34.498 7.284 57.664 19.304 64.18 33.3 11.596 24.902-21.727 46.845-84.68 55.761-28.768 4.075-63.21 5.228-92.36 3.092m43.16-227.41c10.879-4.07 18.15-12.97 20.613-25.22.925-4.605.825-6.921-.526-12.195-4.104-16.02-17.736-26.17-33.453-24.909-12.259.984-21.242 6.964-26.616 17.718-2.715 5.434-3.18 7.533-3.18 14.378 0 6.858.463 8.941 3.202 14.423 7.467 14.943 24.383 21.634 39.96 15.806" fill="#ffffff"/>
 <circle cx="256" stroke="#fefefe" cy="256" r="181.13" stroke-width="18.771" fill="none"/>
</svg>
