<?xml version="1.0" encoding="UTF-8"?>
<svg width="512" height="512" version="1.1" viewBox="0 0 512 512" xmlns="http://www.w3.org/2000/svg">
 <path d="m471.95 253.05c0 120.9-98.01 218.9-218.9 218.9-120.9 0-218.9-98.01-218.9-218.9 0-120.9 98.01-218.9 218.9-218.9 120.9 0 218.9 98.01 218.9 218.9" fill="#1793d1" fill-rule="evenodd" style="fill:#5ebeea"/>
 <path d="m226.62 116.85a19.518 19.518 0 0 0-19.518 19.518 19.518 19.518 0 0 0 19.518 19.518 19.518 19.518 0 0 0 19.518-19.518 19.518 19.518 0 0 0-19.518-19.518zm58.555 0a19.518 19.518 0 0 0-19.518 19.518 19.518 19.518 0 0 0 19.518 19.518 19.518 19.518 0 0 0 19.518-19.518 19.518 19.518 0 0 0-19.518-19.518zm-29.278 58.555a107.35 107.35 0 0 0-107.35 107.35 107.35 107.35 0 0 0 107.35 107.35 107.35 107.35 0 0 0 107.35-107.35 107.35 107.35 0 0 0-107.35-107.35zm0 39.037a68.315 68.315 0 0 1 68.315 68.315 68.315 68.315 0 0 1-68.315 68.315 68.315 68.315 0 0 1-68.315-68.315 68.315 68.315 0 0 1 68.315-68.315z" style="fill:#ffffff;stroke-width:.87272"/>
 <circle cx="256" cy="256" r="181.13" fill="none" stroke="#fefefe" stroke-width="18.771"/>
</svg>
