<svg height="512" viewBox="0 0 512 512" width="512" xmlns="http://www.w3.org/2000/svg">
 <path d="m471.95 253.05c0 120.9-98.01 218.9-218.9 218.9-120.9 0-218.9-98.01-218.9-218.9 0-120.9 98.01-218.9 218.9-218.9 120.9 0 218.9 98.01 218.9 218.9" fill="#71ba60" fill-rule="evenodd"/>
 <path d="m127.43067 127.43067v85.71289h85.71289v-85.71289zm85.71289 85.71289v42.85547h-42.85547v128.57031h42.85547v-42.85742h85.71288v42.85742h42.85548v-128.57031h-42.85548v-42.85547zm85.71288 0h85.7129v-85.71289h-85.7129zm43.46094-75.03125l13.25587 7.30664v43.95703l-13.25587 7.32618-13.36719-7.32618v-43.95703zm-173.9121.58594l13.25586 7.30859v43.95508l-13.25586 7.32617-13.36719-7.32617v-43.95508z" fill="#ffffff"/>
 <path d="m223.21211 349.31047v-105.59244m0 105.59244" fill="#ffffff"/>
 <circle cx="256" stroke="#fefefe" cy="256" r="181.13" stroke-width="18.771" fill="none"/>
</svg>
