<svg height="512" viewBox="0 0 512 512" width="512" xmlns="http://www.w3.org/2000/svg">
 <path d="m471.95 253.05c0 120.9-98.01 218.91-218.91 218.91-120.9 0-218.91-98.01-218.91-218.91 0-120.9 98.01-218.91 218.91-218.91 120.9 0 218.91 98.01 218.91 218.91" fill="#23689b" fill-rule="evenodd"/>
 <path d="m163.45 132.65c-17.09 0-30.806 13.772-30.806 30.86v185.05c0 17.09 13.718 30.806 30.806 30.806h185.05c17.09 0 30.86-13.718 30.86-30.806v-185.05c0-17.09-13.772-30.86-30.86-30.86zm27.893 32.91l148.1 90.48-148.1 90.48v-180.95" fill="#ffffff" fill-rule="evenodd"/>
 <circle cx="256" stroke="#fefefe" cy="256" r="181.13" stroke-width="18.771" fill="none"/>
</svg>
