<svg height="512" viewBox="0 0 512 512" width="512" xmlns="http://www.w3.org/2000/svg">
 <path d="m484.79876 256.38476c0 126.68612-102.70228 229.3884-229.3884 229.3884-126.68611 0-229.388397-102.70228-229.388397-229.3884 0-126.68611 102.702287-229.388398 229.388397-229.388398 126.68612 0 229.3884 102.702288 229.3884 229.388398" fill="#6b296b" fill-rule="evenodd"/>
 <path d="m259.25424 111.12813c-79.41054 0-143.78712 62.91832-143.78712 140.53288 0 77.61329 64.37527 140.53289 143.78712 140.53289 79.41053 0 143.78711-62.91832 143.78711-140.53289 0-77.61329-64.37528-140.53288-143.78711-140.53288m-52.57575 70.27921l125.09583 69.20758-124.65205 67.4535-.44901-136.65471" fill="#ffffff" fill-rule="evenodd"/>
 <circle cx="256" stroke="#fefefe" cy="256" r="181.13" stroke-width="18.771" fill="none"/>
</svg>
