<svg viewBox="0 0 512 512" xmlns="http://www.w3.org/2000/svg">
 <path d="m471.95 253.05c0 120.9-98.01 218.91-218.91 218.91-120.9 0-218.91-98.01-218.91-218.91 0-120.9 98.01-218.91 218.91-218.91 120.9 0 218.91 98.01 218.91 218.91" fill="#ffcc67" fill-rule="evenodd"/>
 <path d="m242.66 125.75l.281.281c-23.76.892-42.23 8.444-56.37 20.75-14.872 12.942-25.03 30.946-32.06 51.47-14.06 41.04-15.738 92.31-17.438 134.5v.031c-.16 8.508-1.106 20.04 2 30.406 3.092 10.321 10.535 19.447 26.16 22.594v.031c.031.006.063-.006.094 0 .032.01.062.022.094.031 2.026.61 4.127.233 6.03-.75 1.963-1.013 3.823-2.633 5.656-4.625 3.666-3.984 7.282-9.54 10.906-15.188 3.625-5.648 7.232-11.382 10.688-15.625s6.74-6.719 9.125-6.719c4.956 0 8.145 1.993 10.781 5.25s4.552 7.813 6.344 12.563c1.792 4.749 3.471 9.688 5.875 13.688 2.404 3.999 5.734 7.165 10.563 7.75h.219c6.186 0 11.314.368 15.594.375s7.772-.292 10.594-1.906l.125-.094.125-.094c8.622-7.493 10.812-17.908 13.75-26.12 1.469-4.109 3.111-7.669 5.625-10.188 2.482-2.487 5.832-4.092 11.219-4.375 6.717 1.249 10.43 3.961 13.03 7.5 2.629 3.576 4.102 8.127 5.906 12.813 1.804 4.685 3.979 9.517 8.281 13.375 4.303 3.858 10.652 6.593 20.406 7.375l.125.031.125-.031c4.516-.401 11.548-2.256 17.469-9.344s10.678-19.213 11.219-39.969v-.126c-2.745-51.736-14.788-102.52-36.16-140.72-21.368-38.2-52.27-63.919-92.41-64.844h-.031l-3.938-.094m-6.094 38.37c7.766 0 14.768 4.282 19.719 10.969s7.938 15.802 7.938 25.875c0 10.07-2.987 19.22-7.938 25.906s-11.953 10.938-19.719 10.938-14.717-4.281-19.625-10.969-7.844-15.806-7.844-25.875c0-10.07 2.935-19.19 7.844-25.875 4.908-6.688 11.859-10.969 19.625-10.969m64.34 0c7.766 0 14.717 4.281 19.625 10.969s7.875 15.806 7.875 25.875c0 10.07-2.967 19.19-7.875 25.875-4.908 6.688-11.859 10.969-19.625 10.969s-14.737-4.251-19.688-10.938-7.969-15.833-7.969-25.906c0-10.07 3.02-19.22 7.969-25.906 4.951-6.686 11.921-10.938 19.688-10.938" fill="#ffffff"/>
 <circle cx="256" stroke="#fefefe" cy="256" r="181.13" stroke-width="18.771" fill="none"/>
</svg>
