<svg xmlns="http://www.w3.org/2000/svg" height="512" width="512" version="1.1" viewBox="0 0 135.47 135.47">
 <g transform="translate(0 -161.53)">
  <path fill-rule="evenodd" d="m66.955 170.44c-32.057 0-58.052 25.993-58.052 58.052 0 32.057 25.993 58.044 58.052 58.044 32.057 0 58.044-25.982 58.044-58.042 0-32.057-25.982-58.052-58.042-58.052" fill="#924565"/>
  <path d="m100.98 181.46v94.059c14.552-10.546 24.019-27.681 24.019-47.03 0-19.346-9.4684-36.481-24.019-47.03" fill="#924565"/>
  <path d="m77.962 171.49v113.99c8.472-1.6256 16.29-5.0866 23.019-9.9632v-94.059c-6.7305-4.8794-14.544-8.345-23.019-9.9716" fill="#d23638"/>
  <path d="m31.925 182.21c-13.984 10.599-23.019 27.387-23.019 46.286s9.0329 35.687 23.019 46.286v-92.57" fill="#79c943"/>
  <path d="m54.943 171.69c-8.509 1.7907-16.329 5.4464-23.019 10.517v92.572c6.6887 5.0694 14.512 8.7191 23.019 10.509v-113.6" fill="#6ea6c1"/>
  <path d="m66.955 170.44c-4.119 0-8.1373 0.4326-12.015 1.2486v113.6c3.8761 0.81545 7.8952 1.2486 12.015 1.2486 3.7626 0 7.4427-0.36644 11.005-1.0501v-113.99c-3.5631-0.68394-7.2422-1.0501-11.005-1.0501" fill="#f3f284"/>
  <path d="m89.363 191.94c-17.389 0.12752-34.79-0.1651-52.173 0.14896-7.8176 1.2184-13.338 8.8572-13.75 16.478-0.43286 8.1304 0.0648 16.277-0.14261 24.416 0.0267 6.4339-0.28258 12.914 0.40719 19.315 1.3308 6.7082 6.4267 13.076 13.469 14.131 14.213 0.35639 28.432-0.0206 42.648 0.15637 6.4582-0.0553 12.956 0.16854 19.389-0.32174 7.9428-1.8285 13.06-10.054 12.892-17.975 0.21034-10.933-0.0611-21.868 0.10451-32.8-0.0849-4.7472 0.22701-9.7629-2.0817-14.065-2.5598-5.4049-8.0759-9.7806-14.319-9.4337-2.1463-0.0765-4.2939-0.0627-6.441-0.05" fill="#ffffff"/>
  <path d="m38.873 199.24h57.804c4.7075 0 8.4693 4.6617 8.4693 10.533v39.042c0 5.8711-3.7687 10.581-8.4693 10.581h-57.804c-4.6993 0-8.4693-4.7091-8.4693-10.581v-39.042c0-5.8711 3.7613-10.533 8.4693-10.533" fill="#4ba077"/>
  <path d="m77.962 199.24v60.15h18.711c1.574 0 3.0491-0.52388 4.3077-1.447v-57.266c-1.2586-0.91599-2.7313-1.4388-4.3077-1.4388h-18.711" fill="#d23638"/>
  <path d="m38.87 199.24c-2.8919 0-5.4202 1.7629-6.9453 4.4815v51.165c1.5266 2.7321 4.0584 4.5058 6.9453 4.5058h16.073v-60.15h-16.073" fill="#6ea6c1"/>
  <path d="m31.925 203.73c-0.95753 1.7066-1.5214 3.7878-1.5214 6.0524v39.042c0 2.2646 0.56303 4.3537 1.5214 6.069v-51.162" fill="#79c943"/>
  <path d="m54.943 199.24v60.15h23.019v-60.15z" fill="#f3f284"/>
  <path d="m100.98 200.68v57.266c2.4992-1.8333 4.159-5.2229 4.159-9.1281v-39.042c0-3.9052-1.6595-7.2758-4.159-9.095" fill="#924565"/>
  <path fill-opacity=".33" d="m38.873 199.24c-4.7072 0-8.472 4.6622-8.472 10.534v39.042c0 5.8711 3.773 10.582 8.472 10.582h13.656c17.854-13.343 12.89-34.549 26.53-60.158h-40.185" fill="#ffffff"/>
 </g>
 <circle stroke-width="5.254" stroke="#fefefe" cy="67.735" cx="67.735" r="50.697" fill="none"/>
</svg>
