<svg height="512" viewBox="0 0 512 512" width="512" xmlns="http://www.w3.org/2000/svg">
 <path d="m471.95 253.05c0 120.9-98.01 218.9-218.9 218.9-120.9 0-218.9-98.01-218.9-218.9 0-120.9 98.01-218.9 218.9-218.9 120.9 0 218.9 98.01 218.9 218.9" fill="#ef6a47" fill-rule="evenodd"/>
 <path d="m136.72 136.71c-8.982 0-16.287 7.272-16.287 16.254v24.889h271.13v-24.889c0-8.985-7.27-16.254-16.254-16.254h-238.58m168.07 10.825c5.978 0 10.858 4.877 10.858 10.858s-4.88 10.825-10.858 10.825-10.825-4.845-10.825-10.825c0-5.981 4.847-10.858 10.825-10.858m29.827 0c5.978 0 10.858 4.877 10.858 10.858s-4.88 10.825-10.858 10.825-10.825-4.845-10.825-10.825c0-5.981 4.847-10.858 10.825-10.858m29.827 0c5.978 0 10.825 4.877 10.825 10.858s-4.847 10.825-10.825 10.825-10.858-4.845-10.858-10.825c0-5.981 4.88-10.858 10.858-10.858m-244.01 44.708v166.76c0 8.982 7.305 16.287 16.287 16.287h238.58c8.985 0 16.254-7.308 16.254-16.287v-166.76h-271.13m121.27 55.6h28.617c5.281 0 9.419 4.287 9.419 9.55v17.334c8.692 2.258 17.07 5.747 24.66 10.237l12.363-12.297c3.725-3.728 9.779-3.728 13.507 0l20.245 20.277c3.727 3.728 3.727 9.779 0 13.507l-12.297 12.297c4.487 7.597 7.978 15.976 10.237 24.66h17.334c5.273 0 9.517 4.151 9.517 9.419v6.149h-72.31c-3.882-22.455-23.402-39.541-46.965-39.541s-43.12 17.09-46.997 39.541h-72.31v-6.116c0-5.279 4.279-9.452 9.55-9.452h17.334c2.256-8.687 5.747-17.03 10.237-24.627l-12.297-12.363c-3.73-3.728-3.727-9.779 0-13.507l20.244-20.245c3.725-3.728 9.78-3.728 13.507 0l12.33 12.297c7.594-4.484 15.973-7.978 24.66-10.237v-17.334c0-5.271 4.148-9.55 9.419-9.55" fill="#ffffff"/>
 <circle cx="256" stroke="#fefefe" cy="256" r="181.13" stroke-width="18.771" fill="none"/>
</svg>
