<svg height="512" viewBox="0 0 512 512" width="512" xmlns="http://www.w3.org/2000/svg">
 <path d="m471.95 253.05c0 120.9-98.01 218.9-218.9 218.9-120.9 0-218.9-98.01-218.9-218.9 0-120.9 98.01-218.9 218.9-218.9 120.9 0 218.9 98.01 218.9 218.9" fill="#8db173" fill-rule="evenodd"/>
 <path d="m152.514 216.2306v43.27855c55.25173 0 100.12591 44.9904 100.12591 100.3866h43.39586c0-79.34691-64.37907-143.66081-143.5196-143.66081" fill="#ffffff"/>
 <path d="m152.60089 121.52482v47.83625c104.9052 0 190.085 85.34273 190.085 190.4543h47.97746c0-131.5714-106.74088-238.29055-238.06246-238.29055" fill="#ffffff"/>
 <path d="m201.84866 390.32643c-2.82009 2.03675-27.2656-16.26559-30.74407-16.27541-3.47871-.01-28.02904 18.15285-30.83735 16.10111-2.80855-2.05271 7.0431-30.95763 5.97772-34.26917-1.06564-3.31154-25.92527-21.04756-24.84025-24.35174 1.08429-3.3054 31.61798-2.86795 34.43856-4.90471 2.82009-2.03676 12.00501-31.16138 15.4825-31.15157 3.47871.01 12.49843 29.18526 15.30575 31.23749 2.80855 2.05271 33.34617 1.78833 34.41156 5.09987 1.06563 3.31154-23.89514 20.90518-24.97771 24.21181-1.0843 3.3054 8.60411 32.26605 5.78329 34.30354" fill="#ffffff" fill-rule="evenodd"/>
 <circle cx="256" stroke="#fefefe" cy="256" r="181.13" stroke-width="18.771" fill="none"/>
</svg>
