<svg height="512" viewBox="0 0 512 512" width="512" xmlns="http://www.w3.org/2000/svg">
 <path d="m471.95 253.05c0 120.9-98.01 218.9-218.9 218.9-120.9 0-218.9-98.01-218.9-218.9 0-120.9 98.01-218.9 218.9-218.9 120.9 0 218.9 98.01 218.9 218.9" fill="#62a630" fill-rule="evenodd"/>
 <path d="m241.25383 112.99352c50.97799 0 102.91924 58.1804 128.05541 98.84241l12.80709-55.00734c.20274-.11787.45262-.12887.66793-.21688 2.85874-3.03633 8.99427-1.19599 9.79107 2.90746l20.47795 119.41959c.7245 3.3538-2.36997 6.98105-5.78663 6.9339l-32.15525-7.79897c-11.12693 67.75168-63.35717 120.95889-133.85757 120.95889-78.39298 0-142.418404-64.11971-142.418404-142.90559 0-78.78431 64.026994-143.12561 142.418404-143.12561zm-17.35047 43.3683c-7.47924.099-15.50061 1.03411-23.58971 4.02487-43.41769 16.0527-73.88092 46.3842-73.88092 95.7293 0 63.87611 52.60019 115.38687 116.1557 115.38687 58.03133 0 124.58372-37.37505 132.45743-93.47017l-82.61571-21.92927c-4.14117-.12888-6.92761-5.83221-4.45077-9.16872l48.13416-7.63961c-.55478-2.17038-32.75114-40.719-50.11155-56.81642-19.3308-17.92446-37.42338-24.42556-62.1112-26.13099" fill="#ffffff"/>
 <circle cx="256" stroke="#fefefe" cy="256" r="181.13" stroke-width="18.771" fill="none"/>
</svg>
