<svg viewBox="0 0 512 512" xmlns="http://www.w3.org/2000/svg">
 <path d="m239.59 414.99c-24.667-3.595-43.01-9.03-56.736-16.814-21.949-12.449-43.47-33.532-49.39-48.38-1.25-3.136-1.483-4.933-1.495-11.526-.012-7.322.112-8.103 1.996-12.451 3.242-7.478 13.149-19.617 30.361-37.2 8.146-8.319 9.799-10.892 9.72-15.12-.074-3.98-2.386-8.218-8.305-15.231-11.519-13.647-17.989-26.758-21.957-44.488-2.073-9.264-2.04-28.731.062-38.496 4.695-21.782 12.373-35.698 27.18-49.27 17.289-15.841 32.559-22.799 60.778-27.69 10.773-1.868 29.824-2.01 40.85-.31 24.467 3.773 44.512 10.497 61.26 20.548 16.268 9.765 32.55 23.11 37.497 30.731 5.801 8.939 7.06 18.19 3.799 27.943-2.28 6.82-4.204 9.908-15.973 25.634-11.853 15.84-12.99 17.82-12.971 22.594.025 4.734 1.413 7.365 8.711 16.463 13.76 17.15 18.256 26.302 22.719 46.25 5.768 25.774.575 57.32-12.548 76.22-13.265 19.1-31.02 33.15-51.846 41.02-6.192 2.34-19.282 5.78-29.622 7.785-8.188 1.588-10.698 1.775-25.612 1.915-9.09.124-17.41 0-18.48-.124z" fill="#050504" opacity=".5"/>
 <path d="m471.95 253.05c0 120.9-98.01 218.91-218.91 218.91-120.9 0-218.91-98.01-218.91-218.91 0-120.9 98.01-218.91 218.91-218.91 120.9 0 218.91 98.01 218.91 218.91" fill="#46b546" fill-rule="evenodd"/>
 <path d="m270.25 387.38c31.603-3.456 57.56-17.201 71.13-37.66 4.835-7.291 7.61-13.507 9.892-22.16 2.239-8.488 2.794-25.379 1.161-35.34-2.683-16.355-9.985-31.02-21.708-43.592-11.749-12.6-23.637-20.864-52.23-36.31-19.975-10.79-27.571-16.592-29.534-22.563-1.06-3.227-.481-8.992 1.121-11.162 3.157-4.274 9.42-5.977 17.221-4.68 14.643 2.431 33.519 11.485 50.1 24.03 3.21 2.429 6.349 4.596 6.976 4.816 2.703.941 4.193-.796 14.968-17.511 13.279-20.6 13.04-19.485 5.776-26.544-21.758-21.15-47.01-33.521-76.01-37.22-11.525-1.473-30.342-1.023-39.86.941-21.419 4.434-38.4 14.478-49.5 29.27-6.06 8.08-9.857 16.798-12.226 28.07-1.403 6.675-1.579 22.404-.316 28.315 4.473 20.958 15.187 37.09 35.34 53.21 8.474 6.779 15.09 11.199 34.12 22.807 22.786 13.896 29.687 19.431 32.906 26.396 1.312 2.839 1.557 4.218 1.344 7.571-.34 5.342-2.239 8.246-6.906 10.558-3.081 1.527-4.171 1.705-10.05 1.654-10.714-.124-20.342-2.684-33.496-9-9.248-4.447-18.18-10.366-25.747-17.07-7.595-6.729-8.303-7.101-10.49-5.506-1.698 1.238-13.959 16.284-23.13 28.38-5.98 7.889-6.18 9.281-2.112 14.716 4.104 5.484 15.701 17.208 21.916 22.16 6.762 5.385 11.249 8.266 18.817 12.08 12.847 6.477 23.462 9.296 43.754 11.618 4.609.527 20.987.372 26.772-.269z" fill="#ffffff"/>
 <circle cx="256" stroke="#fefefe" cy="256" r="181.13" stroke-width="18.771" fill="none"/>
</svg>
