<svg xmlns="http://www.w3.org/2000/svg" height="512" width="512" version="1.1" viewBox="0 0 512 512">
 <path fill-rule="evenodd" d="m471.95 253.05c0 120.9-98.01 218.9-218.9 218.9-120.9 0-218.9-98.01-218.9-218.9 0-120.9 98.01-218.9 218.9-218.9 120.9 0 218.9 98.01 218.9 218.9" fill="#427188"/>
 <g fill="#ffffff" transform="matrix(.89488 0 0 .89488 26.878 26.891)">
  <path d="m240.76 420.31c-32.695-3.3838-67.483-17.688-88.666-36.459l-4.8116-4.2631 6.0145-0.0553c15.877-0.14414 39.804-6.1117 57.727-14.395 28.918-13.365 60.941-39.7 85.995-70.711 10.453-12.938 9.1974-13.819 13.397 9.385 3.5834 19.801 3.5702 45.47-0.0337 62.432-3.0205 14.216-7.9247 26.906-14.954 38.691-7.3052 12.245-9.0699 13.741-17.227 14.596-14.331 1.5039-27.751 1.7838-37.446 0.78078"/>
  <path d="m317.02 401.42c20.022-40.506 17.885-97.513-6.0037-160.08-2.9002-7.5976-4.8934-13.966-4.4279-14.153 1.8464-0.73994 24.214 7.5159 36.699 13.548 30.952 14.951 52.94 34.112 67.311 58.653l3.3934 5.7958-4.3846 11.063c-8.0233 20.243-20.278 39.039-35.774 54.871-16.18 16.531-31.643 27.015-55.466 37.61l-6.3489 2.8228 5.0077-10.13"/>
  <path d="m130.69 360.49c-6.9058-1.7105-24.033-30.258-31.408-52.354-7.2896-21.838-10.433-51.832-7.5482-72.03l1.0056-7.0402 5.478 8.1537c7.6107 11.329 24.497 27.664 37.748 36.514 25.945 17.33 60.71 29.947 97.904 35.53 7.2776 1.0919 15.214 2.3387 17.638 2.7688l4.4062 0.78318-9.2178 7.9267c-19.403 16.689-43.521 30.369-64.551 36.621-9.3189 2.7712-13.421 3.2697-29.471 3.5868-10.255 0.2018-20.149-0.005-21.987-0.46006"/>
  <path d="m192.4 281.52c-26.704-8.77-53.914-25.139-69.203-41.624-10.258-11.062-23.43-32.354-23.414-37.853 0.01203-4.1489 10.701-25.759 18.612-37.622 15.958-23.936 37.932-43.363 63.946-56.54 7.6793-3.8895 14.393-7.0715 14.92-7.0715 0.52687 0-0.6219 3.1592-2.555 7.021-21.395 42.754-18.338 103.65 8.4444 168.22 2.0245 4.8805 3.6809 9.0703 3.6809 9.3093 0 0.8012-1.7334 0.34114-14.435-3.8306"/>
  <path d="m414.94 274.29c-6.8625-9.5423-22.355-24.072-34.956-32.769-28.503-19.695-67.916-34.401-108.26-40.392-7.6083-1.1303-14.645-2.3159-15.638-2.6354-1.9114-0.61502 2.1833-4.6318 18.645-18.289 28.954-24.022 64.115-38.559 93.273-38.559h8.1557l8.3192 10.51c16.877 21.315 27.519 43.447 33.432 69.488 2.1845 9.6216 3.6749 46.842 2.152 53.749l-1.0176 4.6186-4.1139-5.7201"/>
  <path d="m205.27 227.41c-1.6648-2.7399-5.8569-27.724-6.824-40.671-1.8332-24.554 1.4278-46.374 9.9155-66.33 4.0754-9.5808 10.625-20.529 15.078-25.212 3.1708-3.3309 13.328-4.6498 34.447-4.4769 25.273 0.20781 46.31 4.9826 68.505 15.55 10.015 4.7688 29.531 16.547 29.531 17.822 0 0.28348-3.9251 1.1652-8.721 1.9568-35.299 5.8318-70.514 25.846-104.12 59.171-12.197 12.096-26.294 28.378-35.487 40.997-0.91541 1.2564-1.9607 1.797-2.3228 1.2012"/>
 </g>
 <circle r="181.13" cy="256" stroke="#fefefe" cx="256" stroke-width="18.771" fill="none"/>
</svg>
