<svg viewBox="0 0 512 512" xmlns="http://www.w3.org/2000/svg">
 <path d="m471.95 253.05c0 120.9-98.01 218.91-218.91 218.91-120.9 0-218.91-98.01-218.91-218.91 0-120.9 98.01-218.91 218.91-218.91 120.9 0 218.91 98.01 218.91 218.91" fill="#e59c00" fill-rule="evenodd"/>
 <path d="m125.59 125.59v68.938h26.625v-42.31h42.31v-26.625h-68.938m191.88 0v26.625h42.31v42.31h26.625v-68.938h-68.938m-61.47 64.75c-36.27 0-65.66 29.389-65.66 65.66 0 36.27 29.389 65.66 65.66 65.66 36.27 0 65.66-29.389 65.66-65.66 0-36.27-29.389-65.66-65.66-65.66m-130.41 127.13v68.938h68.938v-26.625h-42.31v-42.31h-26.625m234.19 0v42.31h-42.31v26.625h68.938v-68.938h-26.625" fill="#ffffff"/>
 <circle cx="256" stroke="#fefefe" cy="256" r="181.13" stroke-width="18.771" fill="none"/>
</svg>
