<svg viewBox="0 0 512 512" xmlns="http://www.w3.org/2000/svg">
 <path d="m471.95 253.05c0 120.9-98.01 218.91-218.91 218.91-120.9 0-218.91-98.01-218.91-218.91 0-120.9 98.01-218.91 218.91-218.91 120.9 0 218.91 98.01 218.91 218.91" fill="#4071bc" fill-rule="evenodd"/>
 <path d="m277.76 90.21v171.62c-11.914-5.659-28.309-5.721-43.39 1.102-22.63 10.239-33.609 32.06-24.656 48.622 8.954 16.562 34.533 21.672 57.16 11.432 18.1-8.191 28.708-23.784 27.686-38.15.031.095.11.181.138.275v-145.59c15.913 11.35 53.44 54.39 38.43 105.78 8.868-26.02 9.636-52.968 5.923-67.906-4.778-19.225-20.916-39.04-37.603-56.887-17.53-18.749-23.691-30.3-23.691-30.3m-24.1 78.51c-9.968.013-19.899 1.253-29.614 3.857-61.14 16.381-97.51 79.22-81.13 140.36l-21.21 5.785 49.724 32.23 26.859-52.755-21.21 5.647c-11.341-42.32 13.736-85.77 56.06-97.11 6.726-1.802 13.621-2.749 20.523-2.755v-35.26m96.97 70.52l-39.669 44.08h22.04c0 43.817-35.521 79.34-79.34 79.34-13.927 0-27.608-3.643-39.669-10.606l-17.631 30.578c17.421 10.06 37.18 15.289 57.3 15.289 63.29 0 114.6-51.31 114.6-114.6h22.04l-39.669-44.08" fill="#ffffff"/>
 <circle cx="256" stroke="#fefefe" cy="256" r="181.13" stroke-width="18.771" fill="none"/>
</svg>
