<svg height="512" viewBox="0 0 512 512" width="512" xmlns="http://www.w3.org/2000/svg">
 <path d="m471.95 253.05c0 120.9-98.01 218.9-218.9 218.9-120.9 0-218.9-98.01-218.9-218.9 0-120.9 98.01-218.9 218.9-218.9 120.9 0 218.9 98.01 218.9 218.9" fill="#4ac026" fill-rule="evenodd"/>
 <path d="m251.0172 125.66388l-45.988 156.64-36.448-46.02-.504-.672-.403.739-19.954 38.867-84.080002.37v.571l-.034.605h.034l87.210002 10.414.37.034.168-.302 17.334-27.613 43.1 62.45.638.941.336-1.075 33.16-103.43 34.399 169.84.336 1.612.705-1.444 49.28-105.68 47.43.134c3.44 8.588 11.85 14.646 21.667 14.646 12.88 0 23.313-10.433 23.313-23.313 0-12.88-10.433-23.313-23.313-23.313-10.565 0-19.472 7.03-22.339 16.662l-54.22.638h-.302l-.202.302-31.745 59.09-38.9-201.62-1.041-.067" fill="#ffffff"/>
 <circle cx="256" stroke="#fefefe" cy="256" r="181.13" stroke-width="18.771" fill="none"/>
</svg>
