<svg height="512" viewBox="0 0 512 512" width="512" xmlns="http://www.w3.org/2000/svg">
 <path d="m471.95 253.05c0 120.9-98.01 218.9-218.9 218.9-120.9 0-218.9-98.01-218.9-218.9 0-120.9 98.01-218.9 218.9-218.9 120.9 0 218.9 98.01 218.9 218.9" fill="#ee3a32" fill-rule="evenodd"/>
 <path d="m129.08 146.61a11.76 11.76 0 0 0 -11.391 14.699l50.23 195.27a11.76 11.76 0 0 0 11.391 8.8191h34.1a11.76 11.76 0 0 0 11.391-8.8926l31.31-124.13 30.94 124.09a11.76 11.76 0 0 0 11.391 8.9294h34.1a11.76 11.76 0 0 0 11.391-8.8191l50.38-195.27a11.76 11.76 0 0 0 -11.391-14.699h-27.523a11.76 11.76 0 0 0 -11.391 8.8559l-30.69 120.41-30.75-120.42a11.76 11.76 0 0 0 -11.391-8.8559h-30.499a11.76 11.76 0 0 0 -11.39 8.86l-30.69 120.42-30.75-120.42a11.76 11.76 0 0 0 -11.391-8.8559h-27.376" fill="#ffffff"/>
 <circle cx="256" stroke="#fefefe" cy="256" r="181.13" stroke-width="18.771" fill="none"/>
</svg>
