<?xml version="1.0" encoding="UTF-8" standalone="no"?>
<svg xmlns="http://www.w3.org/2000/svg" height="512" viewBox="0 0 512 512" width="512" version="1.1">
 <path d="m471.95 253.05c0 120.9-98.01 218.9-218.9 218.9-120.9 0-218.9-98.01-218.9-218.9 0-120.9 98.01-218.9 218.9-218.9 120.9 0 218.9 98.01 218.9 218.9" fill-rule="evenodd" fill="#ff2a2a"/>
 <path stroke-linejoin="round" d="m172.36 120.17v269.36l83.64-45.771 81.33 48.08 2.305-269.36-167.28-2.305zm84.63 57.3 17.781 35.23 39.514 5.269-28.319 27.66 6.915 38.526-35.563-18.11-35.23 18.44 6.586-38.856-28.648-27 39.514-5.927 17.452-35.23z" stroke-opacity=".962" stroke="#fff" stroke-width="10.537" fill="#fff"/>
 <circle cx="256" stroke="#fefefe" cy="256" r="181.13" stroke-width="18.771" fill="none"/>
</svg>
