<svg height="512" viewBox="0 0 512 512" width="512" xmlns="http://www.w3.org/2000/svg">
 <path d="m471.95 253.05c0 120.9-98.01 218.9-218.9 218.9-120.9 0-218.9-98.01-218.9-218.9 0-120.9 98.01-218.9 218.9-218.9 120.9 0 218.9 98.01 218.9 218.9" fill="#535f92" fill-rule="evenodd"/>
 <path d="m36 0h-32c-2.209 0-4 1.79-4 4v26c0 2.209 1.791 4 4 4h10l-1.367 4.103c-.35 1.047.263 1.897 1.367 1.897h12c1.104 0 1.717-.85 1.367-1.897l-1.367-4.103h10c2.209 0 4-1.791 4-4v-26c0-2.21-1.791-4-4-4m0 26h-32v-22h32z" fill="#ffffff" transform="matrix(7.1761 0 0 7.1761 112.48 112.48)"/>
 <circle cx="256" stroke="#fefefe" cy="256" r="181.13" stroke-width="18.771" fill="none"/>
</svg>
