<svg height="512" viewBox="0 0 512 512" width="512" xmlns="http://www.w3.org/2000/svg">
 <path d="m471.95 253.05c0 120.9-98.01 218.9-218.9 218.9-120.9 0-218.9-98.01-218.9-218.9 0-120.9 98.01-218.9 218.9-218.9 120.9 0 218.9 98.01 218.9 218.9" fill="#248ab8" fill-rule="evenodd"/>
 <path d="m210.81 107.19c-2.159.072-4.569.619-7.188 1.656-20.636 7.681-3.772 53.42-2.438 59.34 1.231 5.449-9.195 4.892-11.156 2.5-4.378-5.346-18.827-53.08-35.875-44.563-23.91 13.183-1.387 54.35-6.156 55.688-8.859 4.951-8.337 17.05-15.438 26.906-8.285 11.874-54.41 3.03-90.81-3.781-4.135 15.729-9.35 31.973-9.35 49 0 48.897 13.14 95.53 43.08 129.57 44.32-.311 87.44-8.29 88.58-8.722-.182-.402 71.69 33.773 77.938 29.688 15.756-17.06-29.887-41.11-22.281-50.719 3.335-5.03 55.58 18.871 58.16 12.344 3.744-11.3-24.26-35-28.469-42.03-3.662-6.481-4.424-16.951 4.969-23.5 9.396-6.549 105.47-43.31 101.44-71.75-6.965-51.672-121.86-55.03-123.72-59.37-.804-1.883 4.194-63.1-21.281-62.25zm119.63 34.28c-1.912.825-9.606 40.561-5.875 42.38 3.306 2.474 9.08-40.11 6.06-42.31-.049-.057-.126-.089-.188-.063zm28.406 5.438c-4.337-.08-27.515 36.868-22.19 40.813 3.306 2.474 23.948-39.29 22.531-40.688-.099-.082-.204-.122-.344-.125z" fill="#ffffff" fill-rule="evenodd" stroke="#ffffff" stroke-width="4.449"/>
 <circle cx="256" stroke="#fefefe" cy="256" r="181.13" stroke-width="18.771" fill="none"/>
</svg>
