<svg height="512" viewBox="0 0 512 512" width="512" xmlns="http://www.w3.org/2000/svg">
 <text x="729.64" y="231.36">
  
 </text>
 <text x="1310.91" y="151.36">
  
 </text>
 <text x="239.33" y="-29.9">
  
 </text>
 <text x="1337.38" y="-246.37">
  
 </text>
 <text x="1918.65" y="-326.38">
  
 </text>
 <text x="1529.53" y="-798.78">
  
 </text>
 <text x="2110.79" y="-878.78">
  
 </text>
 <text x="277.99" y="535.94">
  
 </text>
 <text x="729.64" y="231.36">
  
 </text>
 <text x="1310.91" y="151.36">
  
 </text>
 <text x="239.33" y="-29.9">
  
 </text>
 <text x="1337.38" y="-246.37">
  
 </text>
 <text x="1918.65" y="-326.37">
  
 </text>
 <text x="1529.53" y="-798.77">
  
 </text>
 <text x="2110.79" y="-878.78">
  
 </text>
 <text x="277.99" y="535.94">
  
 </text>
 <path d="m471.95 253.05c0 120.9-98.01 218.9-218.9 218.9-120.9 0-218.9-98.01-218.9-218.9 0-120.9 98.01-218.9 218.9-218.9 120.9 0 218.9 98.01 218.9 218.9" fill="#ffda71" fill-rule="evenodd"/>
 <text x="729.64" y="231.36">
  
 </text>
 <text x="1310.91" y="151.36">
  
 </text>
 <text x="239.33" y="-29.9">
  
 </text>
 <text x="1337.38" y="-246.37">
  
 </text>
 <text x="1918.65" y="-326.38">
  
 </text>
 <text x="1529.53" y="-798.78">
  
 </text>
 <text x="2110.79" y="-878.78">
  
 </text>
 <text x="277.99" y="535.94">
  
 </text>
 <g fill="#ffffff">
  <path d="m136.72 136.72c-8.982 0-16.281 7.268-16.281 16.25v24.875h271.13v-24.875c0-8.985-7.265-16.25-16.25-16.25h-238.59m168.06 10.813c5.978 0 10.875 4.894 10.875 10.875 0 5.981-4.897 10.813-10.875 10.813-5.978 0-10.813-4.832-10.813-10.813 0-5.981 4.834-10.875 10.813-10.875m29.844 0c5.978 0 10.844 4.894 10.844 10.875 0 5.981-4.866 10.813-10.844 10.813-5.978 0-10.813-4.832-10.813-10.813 0-5.981 4.834-10.875 10.813-10.875m29.813 0c5.978 0 10.844 4.894 10.844 10.875 0 5.981-4.866 10.813-10.844 10.813-5.978 0-10.844-4.832-10.844-10.813 0-5.981 4.866-10.875 10.844-10.875"/>
  <path d="m120.44 192.24v166.76c0 8.982 7.305 16.287 16.287 16.287h238.58c8.985 0 16.254-7.308 16.254-16.287v-166.76h-271.13"/>
 </g>
 <g fill="#c3a756" stroke="#c3a756" stroke-width="9.8">
  <path d="m208.79 311.33l-52.38-24.1v-7.868l52.38-27.29v13.205l-35.38 17.442 35.38 15.461z"/>
  <path d="m271.59 225.39l-30.812 112.47h-14.416l30.812-112.47z"/>
  <path d="m303.21 298.18l35.38-15.461-35.38-17.442v-13.205l52.38 27.29v7.868l-52.38 24.1z"/>
 </g>
<circle cx="256" stroke="#fefefe" cy="256" r="181.13" stroke-width="18.771" fill="none" /></svg>
