<svg height="128" width="128" xmlns="http://www.w3.org/2000/svg" xmlns:xlink="http://www.w3.org/1999/xlink">
  <linearGradient id="a">
    <stop offset="0" stop-color="#ffffff"/>
    <stop offset="1" stop-color="#ffffff" stop-opacity="0"/>
  </linearGradient>
  <linearGradient id="b" gradientTransform="matrix(3.297297 0 0 4.1739127 -14.48648 -74.782601)" gradientUnits="userSpaceOnUse" x1="25" x2="25" y1="16" y2="39">
    <stop offset="0" stop-color="#53585d"/>
    <stop offset="1" stop-color="#414247"/>
  </linearGradient>
  <linearGradient id="c" gradientTransform="matrix(2.0508473 0 0 2.0652173 -2.6271185 10.054347)" gradientUnits="userSpaceOnUse" x1="30" x2="30" y1="-8" y2="-5">
    <stop offset="0" stop-color="#ffffff" stop-opacity=".66666669"/>
    <stop offset="1" stop-opacity=".17484662"/>
  </linearGradient>
  <radialGradient id="d" cx="-31.125002" cy="-17.499994" gradientTransform="matrix(2.9822237 0 0 1.9744691 155.82171 26.553198)" gradientUnits="userSpaceOnUse" r="29.999994" xlink:href="#a"/>
  <linearGradient id="e" gradientTransform="matrix(1.6216214 0 0 4.1739122 55.891906 -74.782589)" gradientUnits="userSpaceOnUse" x1="25" x2="25" xlink:href="#a" y1="16" y2="39"/>
  <linearGradient id="f" gradientTransform="matrix(1.9999999 0 0 2.0000001 -.00000086 31.999996)" gradientUnits="userSpaceOnUse" x1="32" x2="32" y1="39.000195" y2="33.000195">
    <stop offset="0" stop-color="#0f0f10" stop-opacity=".91411042"/>
    <stop offset="1" stop-color="#161618" stop-opacity=".87116563"/>
  </linearGradient>
  <radialGradient id="g" cx="31" cy="52.599998" gradientTransform="matrix(4.2258064 0 0 .12903193 -66.999996 104.41293)" gradientUnits="userSpaceOnUse" r="31">
    <stop offset="0" stop-opacity=".19018404"/>
    <stop offset=".72671854" stop-opacity=".05882353"/>
    <stop offset="1" stop-opacity="0"/>
  </radialGradient>
  <ellipse cx="64" cy="111.2" fill="url(#g)" rx="62" ry="3.9999993"/>
  <rect fill="url(#f)" height="97.999992" rx="1" width="123.99999" x="2.000005" y="14.000005"/>
  <g transform="translate(1.000005 22.999999)">
    <path d="m2.000005-7.9999952h121.99998v95.999992h-121.99998z" fill="url(#b)"/>
    <path d="m69.000001-7.9999919h53.999999c.55399 0 .99999.9109747.99999 2.0425451v91.9148938c0 1.131569-.446 2.042544-.99999 2.042544h-46c-1-36.765946-3-57.19148-7.999999-95.9999829z" fill="url(#e)" opacity=".1"/>
    <rect fill="url(#d)" height="96.000008" opacity=".2" rx=".99999237" ry=".99999529" width="121.99999" x="2" y="-8"/>
    <rect fill-opacity=".49079757" height="7.9999962" rx=".99999201" ry=".99999505" width="121.99999" x="2" y="-8"/>
    <path d="m2.5-7.5h120.99999v95h-120.99999z" fill="none" opacity=".3" stroke="url(#c)"/>
    <ellipse cx="8.4999981" cy="-3.5000019" fill="#ffffff" rx="1.5" ry="1.499998"/>
  </g>
</svg>
