<?xml version="1.0" encoding="UTF-8" standalone="no"?>
<svg xmlns="http://www.w3.org/2000/svg" height="512" width="512" version="1.1" viewBox="0 0 512 512">
 <text font-size="129.23" line-height="125%" y="231.36" x="729.64" font-family="Gentium Book Basic" word-spacing="0" letter-spacing="0">
  
 </text>
 <text font-size="129.23" line-height="125%" y="151.36" x="1310.91" font-family="Gentium Book Basic" word-spacing="0" letter-spacing="0">
  
 </text>
 <text font-size="129.23" line-height="125%" y="-29.9" x="239.33" font-family="Gentium Book Basic" word-spacing="0" letter-spacing="0">
  
 </text>
 <text font-size="129.23" line-height="125%" y="-246.37" x="1337.38" font-family="Gentium Book Basic" word-spacing="0" letter-spacing="0">
  
 </text>
 <text font-size="129.23" line-height="125%" y="-326.38" x="1918.65" font-family="Gentium Book Basic" word-spacing="0" letter-spacing="0">
  
 </text>
 <text font-size="129.23" line-height="125%" y="-798.78" x="1529.53" font-family="Gentium Book Basic" word-spacing="0" letter-spacing="0">
  
 </text>
 <text font-size="129.23" line-height="125%" y="-878.78" x="2110.79" font-family="Gentium Book Basic" word-spacing="0" letter-spacing="0">
  
 </text>
 <g font-family="Gentium Book Basic" line-height="125%" word-spacing="0" letter-spacing="0">
  <text y="535.94" x="277.99" font-size="208.33">
   
  </text>
  <text y="-11.34" x="-307.18" font-size="200">
   
  </text>
 </g>
 <text font-size="200" line-height="125%" y="41.8" x="438.2" font-family="Gentium Book Basic" word-spacing="0" letter-spacing="0">
  
 </text>
 <text font-size="200" line-height="125%" y="-82.02" x="1337.81" font-family="Gentium Book Basic" word-spacing="0" letter-spacing="0">
  
 </text>
 <text font-size="200" line-height="125%" y="-134.65" x="465.66" font-family="Gentium Book Basic" word-spacing="0" letter-spacing="0">
  
 </text>
 <text font-size="200" line-height="125%" y="-258.47" x="1365.27" font-family="Gentium Book Basic" word-spacing="0" letter-spacing="0">
  
 </text>
 <text font-size="200" line-height="125%" y="317.23" x="-2544.32" font-family="Gentium Book Basic" word-spacing="0" letter-spacing="0">
  
 </text>
 <text font-size="200" line-height="125%" y="81.8" x="-616.04" font-family="Gentium Book Basic" word-spacing="0" letter-spacing="0">
  
 </text>
 <text font-size="200" line-height="125%" y="134.94" x="129.34" font-family="Gentium Book Basic" word-spacing="0" letter-spacing="0">
  
 </text>
 <text font-size="200" line-height="125%" y="11.13" x="1028.95" font-family="Gentium Book Basic" word-spacing="0" letter-spacing="0">
  
 </text>
 <text font-size="200" line-height="125%" y="-41.51" x="156.8" font-family="Gentium Book Basic" word-spacing="0" letter-spacing="0">
  
 </text>
 <text font-size="200" line-height="125%" y="-165.33" x="1056.42" font-family="Gentium Book Basic" word-spacing="0" letter-spacing="0">
  
 </text>
 <text font-size="200" line-height="125%" y="410.37" x="-2853.18" font-family="Gentium Book Basic" word-spacing="0" letter-spacing="0">
  
 </text>
 <text font-size="200" line-height="125%" y="-35.06" x="-1330.61" font-family="Gentium Book Basic" word-spacing="0" letter-spacing="0">
  
 </text>
 <text font-size="200" line-height="125%" y="18.09" x="-585.23" font-family="Gentium Book Basic" word-spacing="0" letter-spacing="0">
  
 </text>
 <text font-size="200" line-height="125%" y="-105.73" x="314.38" font-family="Gentium Book Basic" word-spacing="0" letter-spacing="0">
  
 </text>
 <text font-size="200" line-height="125%" y="-158.37" x="-557.77" font-family="Gentium Book Basic" word-spacing="0" letter-spacing="0">
  
 </text>
 <text font-size="200" line-height="125%" y="-282.18" x="341.85" font-family="Gentium Book Basic" word-spacing="0" letter-spacing="0">
  
 </text>
 <text font-size="200" line-height="125%" y="293.52" x="-3567.75" font-family="Gentium Book Basic" word-spacing="0" letter-spacing="0">
  
 </text>
 <path fill="#35B1C9" d="m471.95 253.05c0 120.9-98.01 218.9-218.9 218.9-120.9 0-218.9-98.01-218.9-218.9 0-120.9 98.01-218.9 218.9-218.9 120.9 0 218.9 98.01 218.9 218.9" fill-rule="evenodd"/>
 <path d="m297.16 123.94c-14.06-0.086-28.22 0.658-42.22 0.188h-59.25c-18.11 1.125-14.04 21.733-14.406 34.34 1.148 9.97 1.089 18.736-11.406 15.06-7.497 1.28-22.14-4.575-18.406 7.938l-38.16 1.781c1.182 7.122-2.989 19.313 3.438 21.469 2.749 4.435 7.522 6.949 10.281 11.375 4.488 2.827 6.97 7.559 11.469 10.375 2.745 4.44 7.527 6.945 10.281 11.375 8.793 5.938-4.349 8.803-11.563 7.469-7.2 2.055-21.396-2.562-23.906 3.969 0.441 7.613-2.137 18.09 4.563 19.781 2.795 4.398 7.534 6.96 10.313 11.375 4.471 2.836 6.984 7.523 11.438 10.375 2.791 4.403 7.539 6.955 10.313 11.375 7.23 8.521-6.657 9.485-14.156 8.781-6.8 2.436-22.512-3.623-22.469 5.344-0.454 8.339-0.644 16.426 4.563 19.406 46.874 46.874 91.87 91.27 137.09 136.19 118.87-1.021 215.12-96.76 216.94-215.44-4.481-2.816-6.948-7.538-11.438-10.344-2.746-4.438-7.525-6.948-10.281-11.375-4.475-2.831-6.979-7.527-11.438-10.375-2.792-4.402-7.538-6.957-10.313-11.375-4.471-2.836-6.984-7.523-11.438-10.375-2.791-4.403-7.538-6.958-10.313-11.375-5.177-2.659-5.839-9.654-15.12-8.313-10.682 2.432-16.647-5.864-23.25-12.719-15.475-14.765-29.626-31.17-46.03-44.781-8.294-1.079-16.692-1.448-25.12-1.5" fill-opacity=".235"/>
 <g fill-rule="evenodd">
  <path d="m256 1c-140.83 0-255 114.17-255 255s114.17 255 255 255 255-114.17 255-255-114.17-255-255-255m8.827 44.931c120.9 0 218.9 98 218.9 218.9s-98 218.9-218.9 218.9-218.93-98-218.93-218.9 98.03-218.9 218.93-218.9" fill-opacity=".067"/>
  <g fill-opacity=".129">
   <path d="m256 4.433c-138.94 0-251.57 112.63-251.57 251.57s112.63 251.57 251.57 251.57 251.57-112.63 251.57-251.57-112.63-251.57-251.57-251.57m5.885 38.556c120.9 0 218.9 98 218.9 218.9s-98 218.9-218.9 218.9-218.93-98-218.93-218.9 98.03-218.9 218.93-218.9"/>
   <path d="m256 8.356c-136.77 0-247.64 110.87-247.64 247.64s110.87 247.64 247.64 247.64 247.64-110.87 247.64-247.64-110.87-247.64-247.64-247.64m2.942 31.691c120.9 0 218.9 98 218.9 218.9s-98 218.9-218.9 218.9-218.93-98-218.93-218.9 98.03-218.9 218.93-218.9"/>
  </g>
  <path d="m253.04 7.859c-135.42 0-245.19 109.78-245.19 245.19 0 135.42 109.78 245.19 245.19 245.19 135.42 0 245.19-109.78 245.19-245.19 0-135.42-109.78-245.19-245.19-245.19zm0 26.297c120.9 0 218.9 98 218.9 218.9s-98 218.9-218.9 218.9-218.93-98-218.93-218.9 98.03-218.9 218.93-218.9z" stroke-opacity=".31" stroke="#000" stroke-width="4.904" fill="#fff"/>
 </g>
 <text font-size="129.23" line-height="125%" y="231.36" x="729.64" font-family="Gentium Book Basic" word-spacing="0" letter-spacing="0">
  
 </text>
 <text font-size="129.23" line-height="125%" y="151.36" x="1310.91" font-family="Gentium Book Basic" word-spacing="0" letter-spacing="0">
  
 </text>
 <text font-size="129.23" line-height="125%" y="-29.9" x="239.33" font-family="Gentium Book Basic" word-spacing="0" letter-spacing="0">
  
 </text>
 <text font-size="129.23" line-height="125%" y="-246.37" x="1337.38" font-family="Gentium Book Basic" word-spacing="0" letter-spacing="0">
  
 </text>
 <text font-size="129.23" line-height="125%" y="-326.38" x="1918.65" font-family="Gentium Book Basic" word-spacing="0" letter-spacing="0">
  
 </text>
 <text font-size="129.23" line-height="125%" y="-798.78" x="1529.53" font-family="Gentium Book Basic" word-spacing="0" letter-spacing="0">
  
 </text>
 <text font-size="129.23" line-height="125%" y="-878.78" x="2110.79" font-family="Gentium Book Basic" word-spacing="0" letter-spacing="0">
  
 </text>
 <g font-family="Gentium Book Basic" line-height="125%" word-spacing="0" letter-spacing="0">
  <text y="535.94" x="277.99" font-size="208.33">
   
  </text>
  <text y="227.12" x="104.96" font-size="129.23">
   
  </text>
 </g>
 <text font-size="129.23" line-height="125%" y="147.11" x="686.23" font-family="Gentium Book Basic" word-spacing="0" letter-spacing="0">
  
 </text>
 <text font-size="129.23" line-height="125%" y="-34.14" x="-385.35" font-family="Gentium Book Basic" word-spacing="0" letter-spacing="0">
  
 </text>
 <text font-size="129.23" line-height="125%" y="-250.62" x="712.7" font-family="Gentium Book Basic" word-spacing="0" letter-spacing="0">
  
 </text>
 <text font-size="129.23" line-height="125%" y="-330.62" x="1293.97" font-family="Gentium Book Basic" word-spacing="0" letter-spacing="0">
  
 </text>
 <text font-size="129.23" line-height="125%" y="-803.02" x="904.85" font-family="Gentium Book Basic" word-spacing="0" letter-spacing="0">
  
 </text>
 <text font-size="129.23" line-height="125%" y="-883.02" x="1486.12" font-family="Gentium Book Basic" word-spacing="0" letter-spacing="0">
  
 </text>
 <g font-family="Gentium Book Basic" line-height="125%" word-spacing="0" letter-spacing="0">
  <text y="531.69" x="-346.69" font-size="208.33">
   
  </text>
  <text y="-15.58" x="-931.86" font-size="200">
   
  </text>
 </g>
 <text font-size="200" line-height="125%" y="37.56" x="-186.48" font-family="Gentium Book Basic" word-spacing="0" letter-spacing="0">
  
 </text>
 <text font-size="200" line-height="125%" y="-86.26" x="713.13" font-family="Gentium Book Basic" word-spacing="0" letter-spacing="0">
  
 </text>
 <text font-size="200" line-height="125%" y="-138.9" x="-159.02" font-family="Gentium Book Basic" word-spacing="0" letter-spacing="0">
  
 </text>
 <text font-size="200" line-height="125%" y="-262.71" x="740.6" font-family="Gentium Book Basic" word-spacing="0" letter-spacing="0">
  
 </text>
 <text font-size="200" line-height="125%" y="312.99" x="-3169" font-family="Gentium Book Basic" word-spacing="0" letter-spacing="0">
  
 </text>
 <text font-size="200" line-height="125%" y="77.56" x="-1240.72" font-family="Gentium Book Basic" word-spacing="0" letter-spacing="0">
  
 </text>
 <text font-size="200" line-height="125%" y="130.7" x="-495.34" font-family="Gentium Book Basic" word-spacing="0" letter-spacing="0">
  
 </text>
 <text font-size="200" line-height="125%" y="6.88" x="404.27" font-family="Gentium Book Basic" word-spacing="0" letter-spacing="0">
  
 </text>
 <text font-size="200" line-height="125%" y="-45.75" x="-467.88" font-family="Gentium Book Basic" word-spacing="0" letter-spacing="0">
  
 </text>
 <text font-size="200" line-height="125%" y="-169.57" x="431.74" font-family="Gentium Book Basic" word-spacing="0" letter-spacing="0">
  
 </text>
 <text font-size="200" line-height="125%" y="406.13" x="-3477.86" font-family="Gentium Book Basic" word-spacing="0" letter-spacing="0">
  
 </text>
 <text font-size="200" line-height="125%" y="-39.3" x="-1955.29" font-family="Gentium Book Basic" word-spacing="0" letter-spacing="0">
  
 </text>
 <text font-size="200" line-height="125%" y="13.84" x="-1209.91" font-family="Gentium Book Basic" word-spacing="0" letter-spacing="0">
  
 </text>
 <text font-size="200" line-height="125%" y="-109.97" x="-310.3" font-family="Gentium Book Basic" word-spacing="0" letter-spacing="0">
  
 </text>
 <text font-size="200" line-height="125%" y="-162.61" x="-1182.45" font-family="Gentium Book Basic" word-spacing="0" letter-spacing="0">
  
 </text>
 <text font-size="200" line-height="125%" y="-286.43" x="-282.83" font-family="Gentium Book Basic" word-spacing="0" letter-spacing="0">
  
 </text>
 <text font-size="200" line-height="125%" y="289.27" x="-4192.43" font-family="Gentium Book Basic" word-spacing="0" letter-spacing="0">
  
 </text>
 <path d="m195.66 124.09c-7.9348 0-14.375 6.4666-14.375 14.406v35.031h-29.844v7.9375l-38.125 1.7812v19.125l38.125 1.7812v10.312h29.844v22.25h-29.844v7.9375l-38.125 1.7812v19.125l38.125 1.7812v10.312h29.844v24.625h-29.844v7.9688l-38.125 1.75v19.156l38.125 1.75v10.344h29.844v30.25c0 7.9445 6.4402 14.375 14.375 14.375h120.66c7.93 0 14.375-6.4305 14.375-14.375v-30.25h29.844v-10.344l38.156-1.75v-19.156l-38.156-1.75v-7.9688h-29.844v-24.625h29.844v-10.312l38.156-1.7812v-19.125l-38.156-1.7812v-7.9375h-29.844v-22.25h29.844v-10.312l38.156-1.7812v-19.125l-38.156-1.7812v-7.9375h-29.844v-35.031c0-7.9348-6.445-14.406-14.375-14.406h-120.66zm12.062 18.812c5.1543 0 9.3438 4.1846 9.3438 9.3438 0 5.1543-4.1943 9.3438-9.3438 9.3438-5.1494 0-9.3438-4.1895-9.3438-9.3438 0-5.1591 4.1895-9.3438 9.3438-9.3438z" fill="#fff"/>
</svg>
