<?xml version="1.0" encoding="UTF-8" standalone="no"?>
<svg xmlns="http://www.w3.org/2000/svg" height="512" width="512" version="1.1" viewBox="0 0 512 512">
 <text font-size="129.23" line-height="125%" y="231.36" x="729.64" font-family="Gentium Book Basic" word-spacing="0" letter-spacing="0">
  
 </text>
 <text font-size="129.23" line-height="125%" y="151.36" x="1310.91" font-family="Gentium Book Basic" word-spacing="0" letter-spacing="0">
  
 </text>
 <text font-size="129.23" line-height="125%" y="-29.9" x="239.33" font-family="Gentium Book Basic" word-spacing="0" letter-spacing="0">
  
 </text>
 <text font-size="129.23" line-height="125%" y="-246.37" x="1337.38" font-family="Gentium Book Basic" word-spacing="0" letter-spacing="0">
  
 </text>
 <text font-size="129.23" line-height="125%" y="-326.38" x="1918.65" font-family="Gentium Book Basic" word-spacing="0" letter-spacing="0">
  
 </text>
 <text font-size="129.23" line-height="125%" y="-798.78" x="1529.53" font-family="Gentium Book Basic" word-spacing="0" letter-spacing="0">
  
 </text>
 <text font-size="129.23" line-height="125%" y="-878.78" x="2110.79" font-family="Gentium Book Basic" word-spacing="0" letter-spacing="0">
  
 </text>
 <g font-family="Gentium Book Basic" line-height="125%" word-spacing="0" letter-spacing="0">
  <text y="535.94" x="277.99" font-size="208.33">
   
  </text>
  <text y="-11.34" x="-307.18" font-size="200">
   
  </text>
 </g>
 <text font-size="200" line-height="125%" y="41.8" x="438.2" font-family="Gentium Book Basic" word-spacing="0" letter-spacing="0">
  
 </text>
 <text font-size="200" line-height="125%" y="-82.02" x="1337.81" font-family="Gentium Book Basic" word-spacing="0" letter-spacing="0">
  
 </text>
 <text font-size="200" line-height="125%" y="-134.65" x="465.66" font-family="Gentium Book Basic" word-spacing="0" letter-spacing="0">
  
 </text>
 <text font-size="200" line-height="125%" y="-258.47" x="1365.27" font-family="Gentium Book Basic" word-spacing="0" letter-spacing="0">
  
 </text>
 <text font-size="200" line-height="125%" y="317.23" x="-2544.32" font-family="Gentium Book Basic" word-spacing="0" letter-spacing="0">
  
 </text>
 <text font-size="200" line-height="125%" y="81.8" x="-616.04" font-family="Gentium Book Basic" word-spacing="0" letter-spacing="0">
  
 </text>
 <text font-size="200" line-height="125%" y="134.94" x="129.34" font-family="Gentium Book Basic" word-spacing="0" letter-spacing="0">
  
 </text>
 <text font-size="200" line-height="125%" y="11.13" x="1028.95" font-family="Gentium Book Basic" word-spacing="0" letter-spacing="0">
  
 </text>
 <text font-size="200" line-height="125%" y="-41.51" x="156.8" font-family="Gentium Book Basic" word-spacing="0" letter-spacing="0">
  
 </text>
 <text font-size="200" line-height="125%" y="-165.33" x="1056.42" font-family="Gentium Book Basic" word-spacing="0" letter-spacing="0">
  
 </text>
 <text font-size="200" line-height="125%" y="410.37" x="-2853.18" font-family="Gentium Book Basic" word-spacing="0" letter-spacing="0">
  
 </text>
 <text font-size="200" line-height="125%" y="-35.06" x="-1330.61" font-family="Gentium Book Basic" word-spacing="0" letter-spacing="0">
  
 </text>
 <text font-size="200" line-height="125%" y="18.09" x="-585.23" font-family="Gentium Book Basic" word-spacing="0" letter-spacing="0">
  
 </text>
 <text font-size="200" line-height="125%" y="-105.73" x="314.38" font-family="Gentium Book Basic" word-spacing="0" letter-spacing="0">
  
 </text>
 <text font-size="200" line-height="125%" y="-158.37" x="-557.77" font-family="Gentium Book Basic" word-spacing="0" letter-spacing="0">
  
 </text>
 <text font-size="200" line-height="125%" y="-282.18" x="341.85" font-family="Gentium Book Basic" word-spacing="0" letter-spacing="0">
  
 </text>
 <text font-size="200" line-height="125%" y="293.52" x="-3567.75" font-family="Gentium Book Basic" word-spacing="0" letter-spacing="0">
  
 </text>
 <text font-size="129.23" line-height="125%" y="231.36" x="729.64" font-family="Gentium Book Basic" word-spacing="0" letter-spacing="0">
  
 </text>
 <text font-size="129.23" line-height="125%" y="151.36" x="1310.91" font-family="Gentium Book Basic" word-spacing="0" letter-spacing="0">
  
 </text>
 <text font-size="129.23" line-height="125%" y="-29.9" x="239.33" font-family="Gentium Book Basic" word-spacing="0" letter-spacing="0">
  
 </text>
 <text font-size="129.23" line-height="125%" y="-246.37" x="1337.38" font-family="Gentium Book Basic" word-spacing="0" letter-spacing="0">
  
 </text>
 <text font-size="129.23" line-height="125%" y="-326.38" x="1918.65" font-family="Gentium Book Basic" word-spacing="0" letter-spacing="0">
  
 </text>
 <text font-size="129.23" line-height="125%" y="-798.78" x="1529.53" font-family="Gentium Book Basic" word-spacing="0" letter-spacing="0">
  
 </text>
 <text font-size="129.23" line-height="125%" y="-878.78" x="2110.79" font-family="Gentium Book Basic" word-spacing="0" letter-spacing="0">
  
 </text>
 <g font-family="Gentium Book Basic" line-height="125%" word-spacing="0" letter-spacing="0">
  <text y="535.94" x="277.99" font-size="208.33">
   
  </text>
  <text y="227.12" x="104.96" font-size="129.23">
   
  </text>
 </g>
 <text font-size="129.23" line-height="125%" y="147.11" x="686.23" font-family="Gentium Book Basic" word-spacing="0" letter-spacing="0">
  
 </text>
 <text font-size="129.23" line-height="125%" y="-34.14" x="-385.35" font-family="Gentium Book Basic" word-spacing="0" letter-spacing="0">
  
 </text>
 <text font-size="129.23" line-height="125%" y="-250.62" x="712.7" font-family="Gentium Book Basic" word-spacing="0" letter-spacing="0">
  
 </text>
 <text font-size="129.23" line-height="125%" y="-330.62" x="1293.97" font-family="Gentium Book Basic" word-spacing="0" letter-spacing="0">
  
 </text>
 <text font-size="129.23" line-height="125%" y="-803.02" x="904.85" font-family="Gentium Book Basic" word-spacing="0" letter-spacing="0">
  
 </text>
 <text font-size="129.23" line-height="125%" y="-883.02" x="1486.12" font-family="Gentium Book Basic" word-spacing="0" letter-spacing="0">
  
 </text>
 <g font-family="Gentium Book Basic" line-height="125%" word-spacing="0" letter-spacing="0">
  <text y="531.69" x="-346.69" font-size="208.33">
   
  </text>
  <text y="-15.58" x="-931.86" font-size="200">
   
  </text>
 </g>
 <text font-size="200" line-height="125%" y="37.56" x="-186.48" font-family="Gentium Book Basic" word-spacing="0" letter-spacing="0">
  
 </text>
 <text font-size="200" line-height="125%" y="-86.26" x="713.13" font-family="Gentium Book Basic" word-spacing="0" letter-spacing="0">
  
 </text>
 <text font-size="200" line-height="125%" y="-138.9" x="-159.02" font-family="Gentium Book Basic" word-spacing="0" letter-spacing="0">
  
 </text>
 <text font-size="200" line-height="125%" y="-262.71" x="740.6" font-family="Gentium Book Basic" word-spacing="0" letter-spacing="0">
  
 </text>
 <text font-size="200" line-height="125%" y="312.99" x="-3169" font-family="Gentium Book Basic" word-spacing="0" letter-spacing="0">
  
 </text>
 <text font-size="200" line-height="125%" y="77.56" x="-1240.72" font-family="Gentium Book Basic" word-spacing="0" letter-spacing="0">
  
 </text>
 <text font-size="200" line-height="125%" y="130.7" x="-495.34" font-family="Gentium Book Basic" word-spacing="0" letter-spacing="0">
  
 </text>
 <text font-size="200" line-height="125%" y="6.88" x="404.27" font-family="Gentium Book Basic" word-spacing="0" letter-spacing="0">
  
 </text>
 <text font-size="200" line-height="125%" y="-45.75" x="-467.88" font-family="Gentium Book Basic" word-spacing="0" letter-spacing="0">
  
 </text>
 <text font-size="200" line-height="125%" y="-169.57" x="431.74" font-family="Gentium Book Basic" word-spacing="0" letter-spacing="0">
  
 </text>
 <text font-size="200" line-height="125%" y="406.13" x="-3477.86" font-family="Gentium Book Basic" word-spacing="0" letter-spacing="0">
  
 </text>
 <text font-size="200" line-height="125%" y="-39.3" x="-1955.29" font-family="Gentium Book Basic" word-spacing="0" letter-spacing="0">
  
 </text>
 <text font-size="200" line-height="125%" y="13.84" x="-1209.91" font-family="Gentium Book Basic" word-spacing="0" letter-spacing="0">
  
 </text>
 <text font-size="200" line-height="125%" y="-109.97" x="-310.3" font-family="Gentium Book Basic" word-spacing="0" letter-spacing="0">
  
 </text>
 <text font-size="200" line-height="125%" y="-162.61" x="-1182.45" font-family="Gentium Book Basic" word-spacing="0" letter-spacing="0">
  
 </text>
 <text font-size="200" line-height="125%" y="-286.43" x="-282.83" font-family="Gentium Book Basic" word-spacing="0" letter-spacing="0">
  
 </text>
 <text font-size="200" line-height="125%" y="289.27" x="-4192.43" font-family="Gentium Book Basic" word-spacing="0" letter-spacing="0">
  
 </text>
 <text font-size="129.23" line-height="125%" y="231.36" x="729.64" font-family="Gentium Book Basic" word-spacing="0" letter-spacing="0">
  
 </text>
 <text font-size="129.23" line-height="125%" y="151.36" x="1310.91" font-family="Gentium Book Basic" word-spacing="0" letter-spacing="0">
  
 </text>
 <text font-size="129.23" line-height="125%" y="-29.9" x="239.33" font-family="Gentium Book Basic" word-spacing="0" letter-spacing="0">
  
 </text>
 <text font-size="129.23" line-height="125%" y="-246.37" x="1337.38" font-family="Gentium Book Basic" word-spacing="0" letter-spacing="0">
  
 </text>
 <text font-size="129.23" line-height="125%" y="-326.38" x="1918.65" font-family="Gentium Book Basic" word-spacing="0" letter-spacing="0">
  
 </text>
 <text font-size="129.23" line-height="125%" y="-798.78" x="1529.53" font-family="Gentium Book Basic" word-spacing="0" letter-spacing="0">
  
 </text>
 <text font-size="129.23" line-height="125%" y="-878.78" x="2110.79" font-family="Gentium Book Basic" word-spacing="0" letter-spacing="0">
  
 </text>
 <g font-family="Gentium Book Basic" line-height="125%" word-spacing="0" letter-spacing="0">
  <text y="535.94" x="277.99" font-size="208.33">
   
  </text>
  <text y="-11.34" x="-307.18" font-size="200">
   
  </text>
 </g>
 <text font-size="200" line-height="125%" y="41.8" x="438.2" font-family="Gentium Book Basic" word-spacing="0" letter-spacing="0">
  
 </text>
 <text font-size="200" line-height="125%" y="-82.02" x="1337.81" font-family="Gentium Book Basic" word-spacing="0" letter-spacing="0">
  
 </text>
 <text font-size="200" line-height="125%" y="-134.65" x="465.66" font-family="Gentium Book Basic" word-spacing="0" letter-spacing="0">
  
 </text>
 <text font-size="200" line-height="125%" y="-258.47" x="1365.27" font-family="Gentium Book Basic" word-spacing="0" letter-spacing="0">
  
 </text>
 <text font-size="200" line-height="125%" y="317.23" x="-2544.32" font-family="Gentium Book Basic" word-spacing="0" letter-spacing="0">
  
 </text>
 <text font-size="200" line-height="125%" y="81.8" x="-616.04" font-family="Gentium Book Basic" word-spacing="0" letter-spacing="0">
  
 </text>
 <text font-size="200" line-height="125%" y="134.94" x="129.34" font-family="Gentium Book Basic" word-spacing="0" letter-spacing="0">
  
 </text>
 <text font-size="200" line-height="125%" y="11.13" x="1028.95" font-family="Gentium Book Basic" word-spacing="0" letter-spacing="0">
  
 </text>
 <text font-size="200" line-height="125%" y="-41.51" x="156.8" font-family="Gentium Book Basic" word-spacing="0" letter-spacing="0">
  
 </text>
 <text font-size="200" line-height="125%" y="-165.33" x="1056.42" font-family="Gentium Book Basic" word-spacing="0" letter-spacing="0">
  
 </text>
 <text font-size="200" line-height="125%" y="410.37" x="-2853.18" font-family="Gentium Book Basic" word-spacing="0" letter-spacing="0">
  
 </text>
 <text font-size="200" line-height="125%" y="-35.06" x="-1330.61" font-family="Gentium Book Basic" word-spacing="0" letter-spacing="0">
  
 </text>
 <text font-size="200" line-height="125%" y="18.09" x="-585.23" font-family="Gentium Book Basic" word-spacing="0" letter-spacing="0">
  
 </text>
 <text font-size="200" line-height="125%" y="-105.73" x="314.38" font-family="Gentium Book Basic" word-spacing="0" letter-spacing="0">
  
 </text>
 <text font-size="200" line-height="125%" y="-158.37" x="-557.77" font-family="Gentium Book Basic" word-spacing="0" letter-spacing="0">
  
 </text>
 <text font-size="200" line-height="125%" y="-282.18" x="341.85" font-family="Gentium Book Basic" word-spacing="0" letter-spacing="0">
  
 </text>
 <text font-size="200" line-height="125%" y="293.52" x="-3567.75" font-family="Gentium Book Basic" word-spacing="0" letter-spacing="0">
  
 </text>
 <path fill="#35B1C9" d="m471.95 253.05c0 120.9-98.01 218.9-218.9 218.9-120.9 0-218.9-98.01-218.9-218.9 0-120.9 98.01-218.9 218.9-218.9 120.9 0 218.9 98.01 218.9 218.9" fill-rule="evenodd"/>
 <path d="m371.88 134.88c-4.715 0.05-10.284 0.95-14.281 0.281h-224.62v83.5c1.656 2.138 13.6 9.175 5.125 8.781-9.977-1.563-3.107 13.698-5.125 20.09v63.41c4.491 2.759 6.963 7.537 11.438 10.313 2.772 4.478 7.556 6.944 10.313 11.438 4.503 2.737 6.924 7.555 11.438 10.281 3.901 4.675 1.148 15.996 1.969 23.75-1.501 9.07 2.059 13.09 6.875 15.844 2.726 4.513 7.544 6.935 10.281 11.438 4.496 2.754 6.959 7.541 11.438 10.313 2.776 4.474 7.553 6.947 10.313 11.438 4.491 2.759 6.963 7.537 11.438 10.313 2.772 4.478 7.556 6.944 10.313 11.438 4.503 2.737 6.924 7.555 11.438 10.281 2.729 4.511 7.543 6.937 10.281 11.438 4.512 2.748 6.947 7.574 11.469 10.313 0.47 0.779 1.021 1.481 1.594 2.156 116.01-5.488 208.38-101.25 208.38-218.62 0-8.8-0.522-17.502-1.531-26.03-0.996-0.963-2.04-1.876-3.25-2.625-2.776-4.474-7.553-6.947-10.313-11.438-4.494-2.756-6.96-7.54-11.438-10.313-2.771-4.479-7.558-6.942-10.313-11.438-4.503-2.737-6.924-7.555-11.438-10.281-2.729-4.511-7.542-6.937-10.281-11.438-4.512-2.748-6.947-7.574-11.469-10.313-2.726-4.513-7.544-6.935-10.281-11.438-4.496-2.754-6.959-7.541-11.438-10.313-1.504-2.125-4.645-2.601-8.313-2.563" fill-opacity=".235"/>
 <g fill-rule="evenodd">
  <path d="m256 1c-140.83 0-255 114.17-255 255s114.17 255 255 255 255-114.17 255-255-114.17-255-255-255m8.827 44.931c120.9 0 218.9 98 218.9 218.9s-98 218.9-218.9 218.9-218.93-98-218.93-218.9 98.03-218.9 218.93-218.9" fill-opacity=".067"/>
  <g fill-opacity=".129">
   <path d="m256 4.433c-138.94 0-251.57 112.63-251.57 251.57s112.63 251.57 251.57 251.57 251.57-112.63 251.57-251.57-112.63-251.57-251.57-251.57m5.885 38.556c120.9 0 218.9 98 218.9 218.9s-98 218.9-218.9 218.9-218.93-98-218.93-218.9 98.03-218.9 218.93-218.9"/>
   <path d="m256 8.356c-136.77 0-247.64 110.87-247.64 247.64s110.87 247.64 247.64 247.64 247.64-110.87 247.64-247.64-110.87-247.64-247.64-247.64m2.942 31.691c120.9 0 218.9 98 218.9 218.9s-98 218.9-218.9 218.9-218.93-98-218.93-218.9 98.03-218.9 218.93-218.9"/>
  </g>
  <path d="m253.04 7.859c-135.42 0-245.19 109.78-245.19 245.19 0 135.42 109.78 245.19 245.19 245.19 135.42 0 245.19-109.78 245.19-245.19 0-135.42-109.78-245.19-245.19-245.19zm0 26.297c120.9 0 218.9 98 218.9 218.9s-98 218.9-218.9 218.9-218.93-98-218.93-218.9 98.03-218.9 218.93-218.9z" stroke-opacity=".31" stroke="#000" stroke-width="4.904" fill="#fff"/>
 </g>
 <text font-size="129.23" line-height="125%" y="231.36" x="729.64" font-family="Gentium Book Basic" word-spacing="0" letter-spacing="0">
  
 </text>
 <text font-size="129.23" line-height="125%" y="151.36" x="1310.91" font-family="Gentium Book Basic" word-spacing="0" letter-spacing="0">
  
 </text>
 <text font-size="129.23" line-height="125%" y="-29.9" x="239.33" font-family="Gentium Book Basic" word-spacing="0" letter-spacing="0">
  
 </text>
 <text font-size="129.23" line-height="125%" y="-246.37" x="1337.38" font-family="Gentium Book Basic" word-spacing="0" letter-spacing="0">
  
 </text>
 <text font-size="129.23" line-height="125%" y="-326.38" x="1918.65" font-family="Gentium Book Basic" word-spacing="0" letter-spacing="0">
  
 </text>
 <text font-size="129.23" line-height="125%" y="-798.78" x="1529.53" font-family="Gentium Book Basic" word-spacing="0" letter-spacing="0">
  
 </text>
 <text font-size="129.23" line-height="125%" y="-878.78" x="2110.79" font-family="Gentium Book Basic" word-spacing="0" letter-spacing="0">
  
 </text>
 <g font-family="Gentium Book Basic" line-height="125%" word-spacing="0" letter-spacing="0">
  <text y="535.94" x="277.99" font-size="208.33">
   
  </text>
  <text y="227.12" x="104.96" font-size="129.23">
   
  </text>
 </g>
 <text font-size="129.23" line-height="125%" y="147.11" x="686.23" font-family="Gentium Book Basic" word-spacing="0" letter-spacing="0">
  
 </text>
 <text font-size="129.23" line-height="125%" y="-34.14" x="-385.35" font-family="Gentium Book Basic" word-spacing="0" letter-spacing="0">
  
 </text>
 <text font-size="129.23" line-height="125%" y="-250.62" x="712.7" font-family="Gentium Book Basic" word-spacing="0" letter-spacing="0">
  
 </text>
 <text font-size="129.23" line-height="125%" y="-330.62" x="1293.97" font-family="Gentium Book Basic" word-spacing="0" letter-spacing="0">
  
 </text>
 <text font-size="129.23" line-height="125%" y="-803.02" x="904.85" font-family="Gentium Book Basic" word-spacing="0" letter-spacing="0">
  
 </text>
 <text font-size="129.23" line-height="125%" y="-883.02" x="1486.12" font-family="Gentium Book Basic" word-spacing="0" letter-spacing="0">
  
 </text>
 <g font-family="Gentium Book Basic" line-height="125%" word-spacing="0" letter-spacing="0">
  <text y="531.69" x="-346.69" font-size="208.33">
   
  </text>
  <text y="-15.58" x="-931.86" font-size="200">
   
  </text>
 </g>
 <text font-size="200" line-height="125%" y="37.56" x="-186.48" font-family="Gentium Book Basic" word-spacing="0" letter-spacing="0">
  
 </text>
 <text font-size="200" line-height="125%" y="-86.26" x="713.13" font-family="Gentium Book Basic" word-spacing="0" letter-spacing="0">
  
 </text>
 <text font-size="200" line-height="125%" y="-138.9" x="-159.02" font-family="Gentium Book Basic" word-spacing="0" letter-spacing="0">
  
 </text>
 <text font-size="200" line-height="125%" y="-262.71" x="740.6" font-family="Gentium Book Basic" word-spacing="0" letter-spacing="0">
  
 </text>
 <text font-size="200" line-height="125%" y="312.99" x="-3169" font-family="Gentium Book Basic" word-spacing="0" letter-spacing="0">
  
 </text>
 <text font-size="200" line-height="125%" y="77.56" x="-1240.72" font-family="Gentium Book Basic" word-spacing="0" letter-spacing="0">
  
 </text>
 <text font-size="200" line-height="125%" y="130.7" x="-495.34" font-family="Gentium Book Basic" word-spacing="0" letter-spacing="0">
  
 </text>
 <text font-size="200" line-height="125%" y="6.88" x="404.27" font-family="Gentium Book Basic" word-spacing="0" letter-spacing="0">
  
 </text>
 <text font-size="200" line-height="125%" y="-45.75" x="-467.88" font-family="Gentium Book Basic" word-spacing="0" letter-spacing="0">
  
 </text>
 <text font-size="200" line-height="125%" y="-169.57" x="431.74" font-family="Gentium Book Basic" word-spacing="0" letter-spacing="0">
  
 </text>
 <text font-size="200" line-height="125%" y="406.13" x="-3477.86" font-family="Gentium Book Basic" word-spacing="0" letter-spacing="0">
  
 </text>
 <text font-size="200" line-height="125%" y="-39.3" x="-1955.29" font-family="Gentium Book Basic" word-spacing="0" letter-spacing="0">
  
 </text>
 <text font-size="200" line-height="125%" y="13.84" x="-1209.91" font-family="Gentium Book Basic" word-spacing="0" letter-spacing="0">
  
 </text>
 <text font-size="200" line-height="125%" y="-109.97" x="-310.3" font-family="Gentium Book Basic" word-spacing="0" letter-spacing="0">
  
 </text>
 <text font-size="200" line-height="125%" y="-162.61" x="-1182.45" font-family="Gentium Book Basic" word-spacing="0" letter-spacing="0">
  
 </text>
 <text font-size="200" line-height="125%" y="-286.43" x="-282.83" font-family="Gentium Book Basic" word-spacing="0" letter-spacing="0">
  
 </text>
 <text font-size="200" line-height="125%" y="289.27" x="-4192.43" font-family="Gentium Book Basic" word-spacing="0" letter-spacing="0">
  
 </text>
 <g fill="#fff" transform="matrix(4.3943,0,0,4.3943,115.38,113.19)">
  <path d="m20 39h23v3h-23z"/>
  <path d="m43 35v-3h-23v3z"/>
  <path d="m20 46h23v3h-23z"/>
  <path d="m4 24h8v2h-8v19h8v15h39v-15h9v-19h-9v-2h9v-19h-56v19m8 10h-3v-2h3v2m36-8v31h-33v-33h33v2m8 6v2h-5v-2h5m-47-23h47v2h-47v-2"/>
 </g>
</svg>
