<svg height="512" viewBox="0 0 512 512" width="512" xmlns="http://www.w3.org/2000/svg">
 <path d="m471.95 253.05c0 120.9-98.01 218.9-218.9 218.9-120.9 0-218.9-98.01-218.9-218.9 0-120.9 98.01-218.9 218.9-218.9 120.9 0 218.9 98.01 218.9 218.9" fill="#6b5278" fill-rule="evenodd"/>
 <text x="729.64" y="231.36">
  
 </text>
 <text x="1310.91" y="151.36">
  
 </text>
 <text x="239.33" y="-29.9">
  
 </text>
 <text x="1337.38" y="-246.37">
  
 </text>
 <text x="1918.65" y="-326.37">
  
 </text>
 <text x="1529.53" y="-798.77">
  
 </text>
 <text x="2110.79" y="-878.78">
  
 </text>
 <text x="277.99" y="535.94">
  
 </text>
 <path d="m255.72 102.85c-6.968 0-12.581 6.409-12.581 14.371v6.706c0 1.594.235 3.125.651 4.555-16.16 5.241-27.838 20.429-27.838 38.34 0 11.153 4.521 21.251 11.84 28.543l-37.02 88.01h-23.698v-5.712h-23.01-2.151v.163c-5.936.957-10.43 5.816-10.43 11.696 0 5.879 4.494 10.738 10.43 11.696v.163h2.151 23.01v-4.085h17.842l-21.818 51.898h.018l-3.308 7.881c-2.827 6.722.182 14.361 6.724 17.426l-3.67 34.653 19.613-38.05c.896-1.044 1.66-2.24 2.223-3.579l29.537-70.23h34.24v12.06c0 4.13 3.225 7.448 7.231 7.448 4.01 0 7.231-3.317 7.231-7.448v-12.06h33.32l29.537 70.23c.563 1.339 1.328 2.536 2.223 3.579l19.613 38.05-3.67-34.653c6.542-3.065 9.552-10.704 6.724-17.426l-3.308-7.881h.018l-21.836-51.898h19.378v4.085h23.01 2.151v-.163c5.936-.957 10.43-5.816 10.43-11.696 0-5.879-4.494-10.738-10.43-11.696v-.163h-2.151-23.01v5.712h-25.23l-36.46-86.68c8.159-7.369 13.286-18.02 13.286-29.881 0-18.249-12.138-33.656-28.778-38.612.366-1.352.56-2.791.56-4.284v-6.706c0-7.962-5.613-14.371-12.581-14.371m.506 44.12c10.956 0 19.848 8.892 19.848 19.848 0 10.956-8.892 19.83-19.848 19.83-10.956 0-19.83-8.874-19.83-19.83 0-10.956 8.874-19.848 19.83-19.848m-3.995 59.924c1.314.129 2.647.199 3.995.199.695 0 1.392-.019 2.079-.054h.018l10.394 24.729c.016.046.037.081.054.127.079.217.144.435.235.651l21.385 50.831h-27.458v-14.371c0-4.13-3.225-7.448-7.231-7.448-4.01 0-7.231 3.317-7.231 7.448v14.371h-28.38l21.366-50.831c.091-.215.174-.434.253-.651.017-.046.038-.081.054-.127l10.466-24.873" fill="#ffffff" fill-rule="evenodd"/>
<circle cx="256" stroke="#fefefe" cy="256" r="181.13" stroke-width="18.771" fill="none" /></svg>
