<?xml version="1.0" encoding="UTF-8" standalone="no"?>
<!-- Created with Inkscape (http://www.inkscape.org/) -->

<svg
   xmlns:dc="http://purl.org/dc/elements/1.1/"
   xmlns:cc="http://creativecommons.org/ns#"
   xmlns:rdf="http://www.w3.org/1999/02/22-rdf-syntax-ns#"
   xmlns:svg="http://www.w3.org/2000/svg"
   xmlns="http://www.w3.org/2000/svg"
   xmlns:sodipodi="http://sodipodi.sourceforge.net/DTD/sodipodi-0.dtd"
   xmlns:inkscape="http://www.inkscape.org/namespaces/inkscape"
   id="svg7384"
   style="enable-background:new"
   height="22"
   width="22"
   version="1.1"
   inkscape:version="0.91 r13725"
   sodipodi:docname="mic-ready.svg">
  <sodipodi:namedview
     pagecolor="#c886c8"
     bordercolor="#666666"
     borderopacity="1"
     objecttolerance="10"
     gridtolerance="10"
     guidetolerance="10"
     inkscape:pageopacity="0"
     inkscape:pageshadow="2"
     inkscape:window-width="1600"
     inkscape:window-height="849"
     id="namedview10"
     showgrid="false"
     inkscape:zoom="15.07"
     inkscape:cx="-22.684105"
     inkscape:cy="10.012072"
     inkscape:window-x="0"
     inkscape:window-y="0"
     inkscape:window-maximized="1"
     inkscape:current-layer="svg7384">
    <inkscape:grid
       type="xygrid"
       id="grid4192" />
  </sodipodi:namedview>
  <metadata
     id="metadata90">
    <rdf:RDF>
      <cc:Work
         rdf:about="">
        <dc:format>image/svg+xml</dc:format>
        <dc:type
           rdf:resource="http://purl.org/dc/dcmitype/StillImage" />
        <dc:title>Paper Symbolic Icon Theme</dc:title>
      </cc:Work>
    </rdf:RDF>
  </metadata>
  <title
     id="title8473">Paper Symbolic Icon Theme</title>
  <defs
     id="defs7386" />
  <path
     style="color:#bebebe;opacity:0.3;fill:#ffffff;fill-opacity:1"
     d="M 11 3 C 9.3378999 3 8 4.3381 8 6 L 8 11.001953 C 8 12.663853 9.3378999 14 11 14 C 12.6621 14 14 12.663753 14 11.001953 L 14 6 C 14 4.3381 12.6621 3 11 3 z M 5 10 L 5 10.998047 C 5.00001 13.964549 7 17 10 17 L 10 19 L 12 19 L 12 17 C 15 17 17 13.964449 17 10.998047 L 17 10 L 15 10 L 15 10.998047 C 15 13.232128 13.2334 15 11 15 C 8.7666 15 7 13.232128 7 10.998047 L 7 10 L 5 10 z "
     id="path4186" />
</svg>
