<svg height="22" viewBox="0 0 6.21 6.21" width="22" xmlns="http://www.w3.org/2000/svg">
 <path d="m4.9442284 1.341775c-.03683-.00449-.078152.00269-.118575.021559l-3.593183 1.394155c-.24523472.0988126-.24343812.2371502-.0449147.2982343l.9216514.2892512 2.1343507-1.35463c.1006091-.061084.1931335-.028745.1176767.039525l-1.7292193 1.5693227-.0494063.4087246-.2506245-.8030764-.221879.1410324c.1086938.3449456.2146927.6907894.3242847 1.0348367.035034.092524.1230666.1176767.2012183.1194733.1176767.00359.3153018-.1607949.3153018-.1607949l.3170984-.2676921.8677537.6449763c.1715745.095219.2955393.045813.3377592-.1607949l.6117394-2.900597c.0467113-.1895404-.0305421-.3018274-.1410325-.3135052m-2.077758 2.4316866l.1922353.142829-.2335569.1967268.041322-.3395558" fill="#fefefe"/>
</svg>
