<svg height="512" viewBox="0 0 512 512" width="512" xmlns="http://www.w3.org/2000/svg">
 <text x="729.64" y="231.36">
  
 </text>
 <text x="1310.91" y="151.36">
  
 </text>
 <text x="239.33" y="-29.9">
  
 </text>
 <text x="1337.38" y="-246.37">
  
 </text>
 <text x="1918.65" y="-326.38">
  
 </text>
 <text x="1529.53" y="-798.78">
  
 </text>
 <text x="2110.79" y="-878.78">
  
 </text>
 <text x="277.99" y="535.94">
  
 </text>
 <text x="-307.18" y="-11.34">
  
 </text>
 <text x="438.2" y="41.8">
  
 </text>
 <text x="1337.81" y="-82.02">
  
 </text>
 <text x="465.66" y="-134.65">
  
 </text>
 <text x="1365.27" y="-258.47">
  
 </text>
 <text x="-2544.32" y="317.23">
  
 </text>
 <text x="-616.04" y="81.8">
  
 </text>
 <text x="129.34" y="134.94">
  
 </text>
 <text x="1028.95" y="11.13">
  
 </text>
 <text x="156.8" y="-41.51">
  
 </text>
 <text x="1056.42" y="-165.33">
  
 </text>
 <text x="-2853.18" y="410.37">
  
 </text>
 <text x="-1330.61" y="-35.06">
  
 </text>
 <text x="-585.23" y="18.09">
  
 </text>
 <text x="314.38" y="-105.73">
  
 </text>
 <text x="-557.77" y="-158.37">
  
 </text>
 <text x="341.85" y="-282.18">
  
 </text>
 <text x="-3567.75" y="293.52">
  
 </text>
 <text x="729.64" y="231.36">
  
 </text>
 <text x="1310.91" y="151.36">
  
 </text>
 <text x="239.33" y="-29.9">
  
 </text>
 <text x="1337.38" y="-246.37">
  
 </text>
 <text x="1918.65" y="-326.38">
  
 </text>
 <text x="1529.53" y="-798.78">
  
 </text>
 <text x="2110.79" y="-878.78">
  
 </text>
 <text x="277.99" y="535.94">
  
 </text>
 <text x="104.96" y="227.12">
  
 </text>
 <text x="686.23" y="147.11">
  
 </text>
 <text x="-385.35" y="-34.14">
  
 </text>
 <text x="712.7" y="-250.62">
  
 </text>
 <text x="1293.97" y="-330.62">
  
 </text>
 <text x="904.85" y="-803.02">
  
 </text>
 <text x="1486.12" y="-883.02">
  
 </text>
 <text x="-346.69" y="531.69">
  
 </text>
 <text x="-931.86" y="-15.58">
  
 </text>
 <text x="-186.48" y="37.56">
  
 </text>
 <text x="713.13" y="-86.26">
  
 </text>
 <text x="-159.02" y="-138.9">
  
 </text>
 <text x="740.6" y="-262.71">
  
 </text>
 <text x="-3169" y="312.99">
  
 </text>
 <text x="-1240.72" y="77.56">
  
 </text>
 <text x="-495.34" y="130.7">
  
 </text>
 <text x="404.27" y="6.88">
  
 </text>
 <text x="-467.88" y="-45.75">
  
 </text>
 <text x="431.74" y="-169.57">
  
 </text>
 <text x="-3477.86" y="406.13">
  
 </text>
 <text x="-1955.29" y="-39.3">
  
 </text>
 <text x="-1209.91" y="13.84">
  
 </text>
 <text x="-310.3" y="-109.97">
  
 </text>
 <text x="-1182.45" y="-162.61">
  
 </text>
 <text x="-282.83" y="-286.43">
  
 </text>
 <text x="-4192.43" y="289.27">
  
 </text>
 <path d="m29 0h-26c-1.654 0-3 1.346-3 3v13c0 1.654 1.346 3 3 3h26c1.654 0 3-1.346 3-3v-13c0-1.654-1.346-3-3-3m1 16c0 .551-.448 1-1 1h-26c-.552 0-1-.449-1-1v-13c0-.551.448-1 1-1h26c .552 0 1 .449 1 1zm .5 5h-10.5c0 .552-.447 1-1 1h-6c-.553 0-1-.448-1-1h-10.5c-.828 0-1.5.672-1.5 1.5 0 .828.672 1.5 1.5 1.5h29c .828 0 1.5-.672 1.5-1.5 0-.828-.672-1.5-1.5-1.5" fill="#b7b7b7" transform="matrix(12.60692789 0 0 12.60692789 54.28954362 104.71965501)"/>
</svg>
