<svg height="512" viewBox="0 0 512 512" width="512" xmlns="http://www.w3.org/2000/svg">
 <text x="729.64" y="231.36">
  
 </text>
 <text x="1310.91" y="151.36">
  
 </text>
 <text x="239.33" y="-29.9">
  
 </text>
 <text x="1337.38" y="-246.37">
  
 </text>
 <text x="1918.65" y="-326.38">
  
 </text>
 <text x="1529.53" y="-798.78">
  
 </text>
 <text x="2110.79" y="-878.78">
  
 </text>
 <text x="277.99" y="535.94">
  
 </text>
 <text x="-307.18" y="-11.34">
  
 </text>
 <text x="438.2" y="41.8">
  
 </text>
 <text x="1337.81" y="-82.02">
  
 </text>
 <text x="465.66" y="-134.65">
  
 </text>
 <text x="1365.27" y="-258.47">
  
 </text>
 <text x="-2544.32" y="317.23">
  
 </text>
 <text x="-616.04" y="81.8">
  
 </text>
 <text x="129.34" y="134.94">
  
 </text>
 <text x="1028.95" y="11.13">
  
 </text>
 <text x="156.8" y="-41.51">
  
 </text>
 <text x="1056.42" y="-165.33">
  
 </text>
 <text x="-2853.18" y="410.37">
  
 </text>
 <text x="-1330.61" y="-35.06">
  
 </text>
 <text x="-585.23" y="18.09">
  
 </text>
 <text x="314.38" y="-105.73">
  
 </text>
 <text x="-557.77" y="-158.37">
  
 </text>
 <text x="341.85" y="-282.18">
  
 </text>
 <text x="-3567.75" y="293.52">
  
 </text>
 <text x="729.64" y="231.36">
  
 </text>
 <text x="1310.91" y="151.36">
  
 </text>
 <text x="239.33" y="-29.9">
  
 </text>
 <text x="1337.38" y="-246.37">
  
 </text>
 <text x="1918.65" y="-326.38">
  
 </text>
 <text x="1529.53" y="-798.78">
  
 </text>
 <text x="2110.79" y="-878.78">
  
 </text>
 <text x="277.99" y="535.94">
  
 </text>
 <text x="104.96" y="227.12">
  
 </text>
 <text x="686.23" y="147.11">
  
 </text>
 <text x="-385.35" y="-34.14">
  
 </text>
 <text x="712.7" y="-250.62">
  
 </text>
 <text x="1293.97" y="-330.62">
  
 </text>
 <text x="904.85" y="-803.02">
  
 </text>
 <text x="1486.12" y="-883.02">
  
 </text>
 <text x="-346.69" y="531.69">
  
 </text>
 <text x="-931.86" y="-15.58">
  
 </text>
 <text x="-186.48" y="37.56">
  
 </text>
 <text x="713.13" y="-86.26">
  
 </text>
 <text x="-159.02" y="-138.9">
  
 </text>
 <text x="740.6" y="-262.71">
  
 </text>
 <text x="-3169" y="312.99">
  
 </text>
 <text x="-1240.72" y="77.56">
  
 </text>
 <text x="-495.34" y="130.7">
  
 </text>
 <text x="404.27" y="6.88">
  
 </text>
 <text x="-467.88" y="-45.75">
  
 </text>
 <text x="431.74" y="-169.57">
  
 </text>
 <text x="-3477.86" y="406.13">
  
 </text>
 <text x="-1955.29" y="-39.3">
  
 </text>
 <text x="-1209.91" y="13.84">
  
 </text>
 <text x="-310.3" y="-109.97">
  
 </text>
 <text x="-1182.45" y="-162.61">
  
 </text>
 <text x="-282.83" y="-286.43">
  
 </text>
 <text x="-4192.43" y="289.27">
  
 </text>
 <text x="729.64" y="231.36">
  
 </text>
 <text x="1310.91" y="151.36">
  
 </text>
 <text x="239.33" y="-29.9">
  
 </text>
 <text x="1337.38" y="-246.37">
  
 </text>
 <text x="1918.65" y="-326.38">
  
 </text>
 <text x="1529.53" y="-798.78">
  
 </text>
 <text x="2110.79" y="-878.78">
  
 </text>
 <text x="277.99" y="535.94">
  
 </text>
 <text x="-307.18" y="-11.34">
  
 </text>
 <text x="438.2" y="41.8">
  
 </text>
 <text x="1337.81" y="-82.02">
  
 </text>
 <text x="465.66" y="-134.65">
  
 </text>
 <text x="1365.27" y="-258.47">
  
 </text>
 <text x="-2544.32" y="317.23">
  
 </text>
 <text x="-616.04" y="81.8">
  
 </text>
 <text x="129.34" y="134.94">
  
 </text>
 <text x="1028.95" y="11.13">
  
 </text>
 <text x="156.8" y="-41.51">
  
 </text>
 <text x="1056.42" y="-165.33">
  
 </text>
 <text x="-2853.18" y="410.37">
  
 </text>
 <text x="-1330.61" y="-35.06">
  
 </text>
 <text x="-585.23" y="18.09">
  
 </text>
 <text x="314.38" y="-105.73">
  
 </text>
 <text x="-557.77" y="-158.37">
  
 </text>
 <text x="341.85" y="-282.18">
  
 </text>
 <text x="-3567.75" y="293.52">
  
 </text>
 <text x="729.64" y="231.36">
  
 </text>
 <text x="1310.91" y="151.36">
  
 </text>
 <text x="239.33" y="-29.9">
  
 </text>
 <text x="1337.38" y="-246.37">
  
 </text>
 <text x="1918.65" y="-326.38">
  
 </text>
 <text x="1529.53" y="-798.78">
  
 </text>
 <text x="2110.79" y="-878.78">
  
 </text>
 <text x="277.99" y="535.94">
  
 </text>
 <text x="104.96" y="227.12">
  
 </text>
 <text x="686.23" y="147.11">
  
 </text>
 <text x="-385.35" y="-34.14">
  
 </text>
 <text x="712.7" y="-250.62">
  
 </text>
 <text x="1293.97" y="-330.62">
  
 </text>
 <text x="904.85" y="-803.02">
  
 </text>
 <text x="1486.12" y="-883.02">
  
 </text>
 <text x="-346.69" y="531.69">
  
 </text>
 <text x="-931.86" y="-15.58">
  
 </text>
 <text x="-186.48" y="37.56">
  
 </text>
 <text x="713.13" y="-86.26">
  
 </text>
 <text x="-159.02" y="-138.9">
  
 </text>
 <text x="740.6" y="-262.71">
  
 </text>
 <text x="-3169" y="312.99">
  
 </text>
 <text x="-1240.72" y="77.56">
  
 </text>
 <text x="-495.34" y="130.7">
  
 </text>
 <text x="404.27" y="6.88">
  
 </text>
 <text x="-467.88" y="-45.75">
  
 </text>
 <text x="431.74" y="-169.57">
  
 </text>
 <text x="-3477.86" y="406.13">
  
 </text>
 <text x="-1955.29" y="-39.3">
  
 </text>
 <text x="-1209.91" y="13.84">
  
 </text>
 <text x="-310.3" y="-109.97">
  
 </text>
 <text x="-1182.45" y="-162.61">
  
 </text>
 <text x="-282.83" y="-286.43">
  
 </text>
 <text x="-4192.43" y="289.27">
  
 </text>
 <path d="m252.90551 64.324228c-104.05449 0-188.405849 84.348852-188.405849 188.405852 0 104.05449 84.348849 188.40585 188.405849 188.40585 1.35023 0 2.69169-.0501 4.03566-.079-.17803-1.47059-.31343-2.94744-.31343-4.46693 0-15.27005 9.32501-28.21198 21.78302-36.5077 12.458-8.302 28.51537-12.88928 46.03456-12.88928 8.58909 0 16.7444 1.20731 24.32928 3.32982v-169.24933h30.99018v.0389c.11158.001 24.70539.28709 49.24529 18.6099 4.11464 3.07282 8.22677 6.67219 12.26242 10.81315-1.07442-103.12928-84.97946-186.412485-188.36823-186.412485m64.91777 22.448729c22.26068 8.698162 43.13601 22.018716 61.11782 40.000516 15.13214 15.13214 27.01595 32.32662 35.5737 50.66196l-110.08729 63.54749c-2.15135-9.3551-6.89534-18.25637-14.18309-25.54412-7.58488-7.58487-16.90488-12.3577-26.67997-14.37867l54.26008-114.287176m-64.91652 121.846986c24.34307 0 44.08005 19.73823 44.08005 44.08004 0 24.34307-19.73823 44.08005-44.08005 44.08005-24.34307 0-44.08004-19.73823-44.08004-44.08005 0-24.34306 19.73823-44.08004 44.08004-44.08004m0 9.75503c-18.95592 0-34.32 15.36784-34.32 34.32 0 18.95592 15.36784 34.32 34.32 34.32 18.95593 0 34.32001-15.36784 34.32001-34.32 0-18.95593-15.36784-34.32-34.32001-34.32m0 10.10481c13.37822 0 24.21269 10.83446 24.21269 24.21268 0 13.37822-10.83447 24.21269-24.21269 24.21269-13.37822 0-24.21268-10.83447-24.21268-24.21269 0-13.37822 10.83446-24.21268 24.21268-24.21268m-51.98963 35.88712c.40369 1.75393.90517 3.49532 1.48939 5.21038.19433.57168.37361 1.1183.58799 1.68497 1.71631 4.53588 4.0833 8.86365 7.09092 12.88927.37485.50148.74219.99795 1.13585 1.4894 1.18976 1.47936 2.46728 2.8973 3.84008 4.2701 2.37074 2.37074 4.88817 4.44185 7.5598 6.26849.53408.36483 1.06189.75347 1.60599 1.09699 2.18394 1.37781 4.45439 2.5776 6.7775 3.60438 1.15716.51276 2.30304.94654 3.48653 1.37155 1.77524.63813 3.62445 1.20229 5.44607 1.6461.60679.14794 1.19227.26579 1.80282.39241l-54.26008 114.28718c-1.40039-.54787-2.80202-1.06063-4.19237-1.64611-1.38032-.57921-2.7456-1.18725-4.11339-1.80282-2.74936-1.23865-5.41472-2.53247-8.11018-3.9178-1.33268-.68327-2.6779-1.43549-3.99679-2.15511-.0113-.004-.0301.004-.0389 0-1.32767-.72464-2.60519-1.43298-3.91781-2.19397-2.63277-1.52701-5.22792-3.10667-7.79675-4.78036-1.28003-.83371-2.54-1.67619-3.79871-2.54626-5.06494-3.48403-9.97317-7.25265-14.73096-11.3209-1.18098-1.00923-2.36573-2.0498-3.52665-3.09538-.006-.006-.0326.006-.0389 0-1.16719-1.0506-2.30179-2.12502-3.44767-3.21323-1.14588-1.08696-2.28549-2.20526-3.40881-3.32983-5.68301-5.68301-10.87583-11.65187-15.63237-17.8652-.79108-1.0343-1.54581-2.04729-2.31182-3.09539-6.89652-9.42781-12.773865-19.38343-17.589321-29.69761l110.087291-63.54748m191.3395 36.78853v78.31856c15.10707-16.59395 27.28425-35.88336 35.73041-57.08215-.31342-.34101-.62434-.68327-.94027-1.01926-10.75548-11.42747-21.7266-19.0136-34.79014-20.20963" fill="#b7b7b7"/>
 <text x="-27704.54" y="1209.21">
  
 </text>
 <text x="-27839.26" y="2121.1">
  
 </text>
 <g fill="#555753">
  <text transform="scale(1.0508 .95163)" x="-13349.95" y="-4932.81">
   
  </text>
  <text transform="scale(1.0508 .95163)" x="-3948.82" y="-5757.68">
   
  </text>
  <text x="-40036.84" y="-1903.88">
   
  </text>
 </g>
 <text stroke="#cd1d31" stroke-width="23.268" x="-25856.32" y="-14128.22">
  
 </text>
 <text stroke="#cd1d31" stroke-width="23.268" x="-25991.28" y="-13216.33">
  
 </text>
 <g fill="#555753" stroke="#cd1d31" transform="matrix(23.268 0 0 23.268 -581.38 -175.73)">
  <text transform="scale(1.0508 .95163)" x="-474.37" y="-896.71">
   
  </text>
  <text transform="scale(1.0508 .95163)" x="-70.35" y="-932.16">
   
  </text>
  <text x="-1616.23" y="-733.42">
   
  </text>
 </g>
 <text stroke="#cd1d31" stroke-width="23.268" x="-8883.58" y="-20816.52">
  
 </text>
 <text stroke="#cd1d31" stroke-width="23.268" x="12049.23" y="-23697.62">
  
 </text>
 <path d="m379.75475 233.8243h-18.43564v175.4426c-9.7939-5.88611-22.6418-9.55444-36.87128-9.55444-30.5213 0-55.28812 16.48865-55.28812 36.87129 0 20.38263 24.77058 36.87128 55.28812 36.87128 30.52129 0 55.28811-16.48865 55.28811-36.87128v-147.46005c46.08221-7.48834 73.72752 46.0822 92.1594 73.72751-11.51648-129.01813-92.1594-129.01813-92.1594-129.01813" fill="#b7b7b7"/>
</svg>
