<svg height="512" viewBox="0 0 512 512" width="512" xmlns="http://www.w3.org/2000/svg">
 <text x="729.64" y="231.36">
  
 </text>
 <text x="1310.91" y="151.36">
  
 </text>
 <text x="239.33" y="-29.9">
  
 </text>
 <text x="1337.38" y="-246.37">
  
 </text>
 <text x="1918.65" y="-326.38">
  
 </text>
 <text x="1529.53" y="-798.78">
  
 </text>
 <text x="2110.79" y="-878.78">
  
 </text>
 <text x="277.99" y="535.94">
  
 </text>
 <text x="-307.18" y="-11.34">
  
 </text>
 <text x="438.2" y="41.8">
  
 </text>
 <text x="1337.81" y="-82.02">
  
 </text>
 <text x="465.66" y="-134.65">
  
 </text>
 <text x="1365.27" y="-258.47">
  
 </text>
 <text x="-2544.32" y="317.23">
  
 </text>
 <text x="-616.04" y="81.8">
  
 </text>
 <text x="129.34" y="134.94">
  
 </text>
 <text x="1028.95" y="11.13">
  
 </text>
 <text x="156.8" y="-41.51">
  
 </text>
 <text x="1056.42" y="-165.33">
  
 </text>
 <text x="-2853.18" y="410.37">
  
 </text>
 <text x="-1330.61" y="-35.06">
  
 </text>
 <text x="-585.23" y="18.09">
  
 </text>
 <text x="314.38" y="-105.73">
  
 </text>
 <text x="-557.77" y="-158.37">
  
 </text>
 <text x="341.85" y="-282.18">
  
 </text>
 <text x="-3567.75" y="293.52">
  
 </text>
 <text x="729.64" y="231.36">
  
 </text>
 <text x="1310.91" y="151.36">
  
 </text>
 <text x="239.33" y="-29.9">
  
 </text>
 <text x="1337.38" y="-246.37">
  
 </text>
 <text x="1918.65" y="-326.38">
  
 </text>
 <text x="1529.53" y="-798.78">
  
 </text>
 <text x="2110.79" y="-878.78">
  
 </text>
 <text x="277.99" y="535.94">
  
 </text>
 <text x="104.96" y="227.12">
  
 </text>
 <text x="686.23" y="147.11">
  
 </text>
 <text x="-385.35" y="-34.14">
  
 </text>
 <text x="712.7" y="-250.62">
  
 </text>
 <text x="1293.97" y="-330.62">
  
 </text>
 <text x="904.85" y="-803.02">
  
 </text>
 <text x="1486.12" y="-883.02">
  
 </text>
 <text x="-346.69" y="531.69">
  
 </text>
 <text x="-931.86" y="-15.58">
  
 </text>
 <text x="-186.48" y="37.56">
  
 </text>
 <text x="713.13" y="-86.26">
  
 </text>
 <text x="-159.02" y="-138.9">
  
 </text>
 <text x="740.6" y="-262.71">
  
 </text>
 <text x="-3169" y="312.99">
  
 </text>
 <text x="-1240.72" y="77.56">
  
 </text>
 <text x="-495.34" y="130.7">
  
 </text>
 <text x="404.27" y="6.88">
  
 </text>
 <text x="-467.88" y="-45.75">
  
 </text>
 <text x="431.74" y="-169.57">
  
 </text>
 <text x="-3477.86" y="406.13">
  
 </text>
 <text x="-1955.29" y="-39.3">
  
 </text>
 <text x="-1209.91" y="13.84">
  
 </text>
 <text x="-310.3" y="-109.97">
  
 </text>
 <text x="-1182.45" y="-162.61">
  
 </text>
 <text x="-282.83" y="-286.43">
  
 </text>
 <text x="-4192.43" y="289.27">
  
 </text>
 <path d="m115.62 352.16v-159.33l42.11-42.11h42.11v8.774h21.06v-8.774h166.35c5.04 0 9.125 4.085 9.125 9.125v32.989c-3.877 0-7.02 3.142-7.02 7.02v98.26c0 3.877 3.142 7.02 7.02 7.02v47.03c0 5.04-4.085 9.125-9.125 9.125h-138.28v-12.283h-63.17v12.283h-61.06c-5.04 0-9.125-4.085-9.125-9.125" fill="#b7b7b7" stroke-linejoin="round"/>
</svg>
