<?xml version="1.0" encoding="UTF-8" standalone="no"?>
<svg xmlns="http://www.w3.org/2000/svg" xmlns:xlink="http://www.w3.org/1999/xlink" height="512" viewBox="0 0 512 512" width="512" version="1.1">
 <path style="fill:#cd1d31;fill-rule:evenodd" d="m 471.95,253.05 c 0,120.9 -98.01,218.9 -218.9,218.9 -120.9,0 -218.9,-98.01 -218.9,-218.9 0,-120.9 98.01,-218.9 218.9,-218.9 120.9,0 218.9,98.01 218.9,218.9"/>
 <text x="729.64" y="231.36">
  
 </text>
 <text x="1310.91" y="151.36">
  
 </text>
 <text x="239.33" y="-29.9">
  
 </text>
 <text x="1337.38" y="-246.37">
  
 </text>
 <text x="1918.65" y="-326.38">
  
 </text>
 <text x="1529.53" y="-798.78">
  
 </text>
 <text x="2110.79" y="-878.78">
  
 </text>
 <text x="277.99" y="535.94">
  
 </text>
 <path d="m159.54 138.93c-17.762 0-32.02 14.1-32.02 31.672v104.05c0 17.569 14.257 31.672 32.02 31.672h154.93c.914-.709 2.056-1.178 3.308-1.178s2.261.469 3.175 1.178h31.49c17.762 0 32.02-14.1 32.02-31.672v-104.05c0-17.569-14.257-31.672-32.02-31.672h-192.91" fill="#cd1d31" fill-rule="evenodd"/>
 <path id="a" d="m237.01 183.71a19.943 19.943 0 1 1 -39.886 0 19.943 19.943 0 1 1 39.886 0" fill="#ffffff" transform="matrix(1.0816 0 0 1.0816 -17.711 -14.989)"/>
 <path d="m183.36 255.55c31.627-9.712 53.828-19.987 87.21-18.339 27.582 1.454 48.02 9.688 76.25 20.799" fill="none" stroke="#ffffff" stroke-linecap="round" stroke-linejoin="round" stroke-width="15"/>
 <use height="1" transform="translate(100.88)" width="1" xlink:href="#a"/>
 <g fill="#ffffff">
  <path d="m159.53 138.94c-17.762 0-32 14.09-32 31.656v104.06c0 17.569 14.251 32.34 32 31.656l43.44-1.667c63.747-36.02 43.63-94.69 93.87-165.71z" fill-opacity=".079"/>
  <path d="m156.72 120c-27.13 0-49.41 22.28-49.41 49.41v108.28c0 27.13 22.28 49.41 49.41 49.41h198.56c27.13 0 49.41-22.28 49.41-49.41v-108.28c0-27.13-22.28-49.41-49.41-49.41zm3.938 24.19h190.69c15.53 0 27.938 12.309 27.938 27.813v103.09c0 15.504-12.433 27.938-27.938 27.938h-190.69c-15.503 0-27.938-12.434-27.938-27.938v-103.09c0-15.504 12.409-27.813 27.938-27.813m157.5 161.81c5.155 0 9.313 4.157 9.313 9.313 0 5.155-4.157 9.344-9.313 9.344-5.155 0-9.344-4.189-9.344-9.344s4.189-9.313 9.344-9.313"/>
  <g fill-rule="evenodd">
   <rect height="46.17" rx="11.08" width="50.17" x="229.14" y="340.16"/>
   <rect height="16" rx="8" width="160.02" x="173.8" y="376"/>
  </g>
 </g>
<circle cx="256" stroke="#fefefe" cy="256" r="181.13" stroke-width="18.771" fill="none" /></svg>
