<svg height="512" viewBox="0 0 512 512" width="512" xmlns="http://www.w3.org/2000/svg">
 <path d="m471.95 253.05c0 120.9-98.01 218.91-218.91 218.91s-218.91-98.01-218.91-218.91 98.01-218.91 218.91-218.91 218.91 98.01 218.91 218.91" fill="#9e9f9f" fill-rule="evenodd"/>
 <text x="729.64" y="231.36">
  
 </text>
 <text x="1310.91" y="151.36">
  
 </text>
 <text x="239.33" y="-29.9">
  
 </text>
 <text x="1337.38" y="-246.37">
  
 </text>
 <text x="1918.65" y="-326.37">
  
 </text>
 <text x="1529.53" y="-798.77">
  
 </text>
 <text x="2110.79" y="-878.78">
  
 </text>
 <text x="277.99" y="535.94">
  
 </text>
 <path d="m229.72959 215.50986l104.0019-39.80559v142.82492l-104.0019 10.97585z" fill="#e9e9ff" fill-rule="evenodd"/>
 <path d="m142.56847 186.85253v134.75064l87.16112 7.90187v-113.99518z" fill="#353564" fill-rule="evenodd"/>
 <path d="m142.56847 186.85253l101.55742-58.305 89.6056 47.15674-104.0019 39.80559z" fill="#4d4d9f" fill-rule="evenodd"/>
 <path d="m142.56847 321.60317l101.55742-16.0768 89.6056 13.00282-104.0019 10.97585z" fill="#393939" fill-rule="evenodd"/>
 <path d="m244.12589 128.54753v176.97884l89.6056 13.00282v-142.82492z" fill="#ffffff" fill-rule="evenodd"/>
 <path d="m142.56847 186.85253l101.55742-58.305v176.97884l-101.55742 16.0768z" fill="#eef4f6" fill-rule="evenodd"/>
<circle cx="256" stroke="#fefefe" cy="256" r="181.13" stroke-width="18.771" fill="none" /></svg>
