<svg viewBox="0 0 512 512" xmlns="http://www.w3.org/2000/svg" xmlns:xlink="http://www.w3.org/1999/xlink">
  <text x="-109.95" y="148.92">
    <tspan x="-109.95" y="148.92"/>
  </text>
  <text transform="scale(4.0128 .2492)" x="169.68" y="248.43"/>
  <text x="471.32" y="68.919">
    <tspan x="471.32" y="68.919"/>
  </text>
  <text transform="scale(4.0128 .2492)" x="314.53" y="-72.6"/>
  <text x="-600.26" y="-112.34">
    <tspan x="-600.26" y="-112.34"/>
  </text>
  <text transform="scale(4.0128 .2492)" x="47.49" y="-799.96"/>
  <text x="497.79" y="-328.81">
    <tspan x="497.79" y="-328.81"/>
  </text>
  <text transform="scale(4.0128 .2492)" x="321.13" y="-1668.62"/>
  <text x="1079.06" y="-408.82">
    <tspan x="1079.06" y="-408.82"/>
  </text>
  <text transform="scale(4.0128 .2492)" x="465.98" y="-1989.66"/>
  <text x="689.94" y="-881.22">
    <tspan x="689.94" y="-881.22"/>
  </text>
  <text transform="scale(4.0128 .2492)" x="369.01" y="-3885.31"/>
  <text x="1271.2" y="-961.22">
    <tspan x="1271.2" y="-961.22"/>
  </text>
  <text transform="scale(4.0128 .2492)" x="513.86" y="-4206.34"/>
  <text x="-561.6" y="453.5">
    <tspan x="-561.6" y="453.5"/>
  </text>
  <path d="m36.06 0c-5.63 0-10.156 4.527-10.156 10.156v491.69c0 5.63 4.527 10.156 10.156 10.156h439.88c5.63 0 10.156-4.527 10.156-10.156v-334.09l-167.75-167.75h-282.28" opacity=".1"/>
  <path d="m39.06 3.5c-5.553 0-10.03 4.479-10.03 10.03v484.94c0 5.553 4.479 10.03 10.03 10.03h433.88c5.553 0 10.03-4.479 10.03-10.03v-327.84l-167.12-167.12h-276.78" opacity=".1"/>
  <path d="m42.06 7c-5.476 0-9.875 4.399-9.875 9.875v478.25c0 5.476 4.399 9.875 9.875 9.875h427.88c5.476 0 9.875-4.399 9.875-9.875v-321.66l-166.47-166.47h-271.28" opacity=".1"/>
  <path d="m45.06 10.5c-5.399 0-9.719 4.351-9.719 9.75v471.5c0 5.399 4.32 9.75 9.719 9.75h421.88c5.399 0 9.719-4.351 9.719-9.75v-315.44l-165.81-165.81h-265.78" fill="#9bbe22"/>
  <path id="a" d="m476.66 176.31l-165.81-165.81v156.06c0 5.399 4.32 9.75 9.719 9.75h156.09" fill="#ffffff" fill-opacity=".196"/>
  <use xlink:href="#a"/>
  <path d="m316.59 175.47c6.521 6.555 13.236 13.294 19.844 19.938h-248.87v275.38l30.719 30.719h348.66c5.399 0 9.719-4.351 9.719-9.75v-315.44h-156.09c-1.422 0-2.756-.3-3.969-.844" opacity=".25"/>
  <text x="-990.51" y="-43.575">
    <tspan x="-990.51" y="-43.575"/>
  </text>
  <text transform="scale(4.0128 .2492)" x="70.891" y="-737.75"/>
  <text x="-1638.27" y="-811.53">
    <tspan x="-1638.27" y="-811.53"/>
  </text>
  <text transform="scale(4.0128 .2492)" x="-90.53" y="-3819.41"/>
  <text x="-931.93" y="-967.16">
    <tspan x="-931.93" y="-967.16"/>
  </text>
  <text transform="scale(4.0128 .2492)" x="85.49" y="-4443.94"/>
  <g fill="#ffffff">
    <path d="m72.27 108.77c37.2-14.404 65.56-13.86 87.44 1.383 19.34-22.85 61.09-31.632 74.49-30.1-40.04-14.88-71.46.077-78.25 10.08-22.23-9.765-72.03-.918-83.67 18.636"/>
    <path d="m134.75 56.812c26.617-7.348 50.23-7.979 66.97 1.488 15.649-12.541 47.967-17.08 58.19-16.11-36.725-7.588-52.912-.63-60.811 4.174-23.597-5.201-46.2-4.787-64.34 10.45"/>
  </g>
  <text x="-34.02" y="244.38">
    <tspan x="-34.02" y="244.38"/>
  </text>
  <text transform="scale(4.0128 .2492)" x="188.6" y="631.48"/>
  <text x="547.25" y="164.38">
    <tspan x="547.25" y="164.38"/>
  </text>
  <text transform="scale(4.0128 .2492)" x="333.45" y="310.45"/>
  <text x="-524.33" y="-16.884">
    <tspan x="-524.33" y="-16.884"/>
  </text>
  <text transform="scale(4.0128 .2492)" x="66.41" y="-416.9"/>
  <text x="573.72" y="-233.35">
    <tspan x="573.72" y="-233.35"/>
  </text>
  <text transform="scale(4.0128 .2492)" x="340.05" y="-1285.57"/>
  <text x="1154.99" y="-313.36">
    <tspan x="1154.99" y="-313.36"/>
  </text>
  <text transform="scale(4.0128 .2492)" x="484.9" y="-1606.61"/>
  <text x="765.87" y="-785.76">
    <tspan x="765.87" y="-785.76"/>
  </text>
  <text transform="scale(4.0128 .2492)" x="387.93" y="-3502.26"/>
  <text x="1347.13" y="-865.76">
    <tspan x="1347.13" y="-865.76"/>
  </text>
  <text transform="scale(4.0128 .2492)" x="532.78" y="-3823.29"/>
  <text x="-485.67" y="548.96">
    <tspan x="-485.67" y="548.96"/>
  </text>
  <text x="171.37" y="747.08">
    <tspan x="171.37" y="747.08"/>
  </text>
  <text transform="scale(4.0128 .2492)" x="239.79" y="2648.72"/>
  <text x="752.64" y="667.08">
    <tspan x="752.64" y="667.08"/>
  </text>
  <text transform="scale(4.0128 .2492)" x="384.64" y="2327.69"/>
  <text x="-318.94" y="485.81">
    <tspan x="-318.94" y="485.81"/>
  </text>
  <text transform="scale(4.0128 .2492)" x="117.6" y="1600.34"/>
  <text x="779.11" y="269.35">
    <tspan x="779.11" y="269.35"/>
  </text>
  <text transform="scale(4.0128 .2492)" x="391.24" y="731.67"/>
  <text x="1360.38" y="189.34">
    <tspan x="1360.38" y="189.34"/>
  </text>
  <text transform="scale(4.0128 .2492)" x="536.09" y="410.63"/>
  <text x="971.26" y="-283.06">
    <tspan x="971.26" y="-283.06"/>
  </text>
  <text transform="scale(4.0128 .2492)" x="439.12" y="-1485.02"/>
  <text x="1552.52" y="-363.06">
    <tspan x="1552.52" y="-363.06"/>
  </text>
  <text transform="scale(4.0128 .2492)" x="583.97" y="-1806.05"/>
  <text x="-280.28" y="1051.66">
    <tspan x="-280.28" y="1051.66"/>
  </text>
  <text x="-772.36" y="668.97">
    <tspan x="-772.36" y="668.97"/>
  </text>
  <text transform="scale(4.0128 .2492)" x="4.609" y="2335.31"/>
  <text x="-191.09" y="588.97">
    <tspan x="-191.09" y="588.97"/>
  </text>
  <text transform="scale(4.0128 .2492)" x="149.46" y="2014.29"/>
  <text x="-1262.67" y="407.71">
    <tspan x="-1262.67" y="407.71"/>
  </text>
  <text transform="scale(4.0128 .2492)" x="-117.58" y="1286.93"/>
  <text x="-164.62" y="191.24">
    <tspan x="-164.62" y="191.24"/>
  </text>
  <text transform="scale(4.0128 .2492)" x="156.06" y="418.26"/>
  <text x="416.65" y="111.23">
    <tspan x="416.65" y="111.23"/>
  </text>
  <text transform="scale(4.0128 .2492)" x="300.91" y="97.23"/>
  <text x="27.535" y="-361.17">
    <tspan x="27.535" y="-361.17"/>
  </text>
  <text transform="scale(4.0128 .2492)" x="203.94" y="-1798.42"/>
  <text x="608.79" y="-441.17">
    <tspan x="608.79" y="-441.17"/>
  </text>
  <text transform="scale(4.0128 .2492)" x="348.79" y="-2119.45"/>
  <text x="-1224.01" y="973.55">
    <tspan x="-1224.01" y="973.55"/>
  </text>
  <text x="-524.9" y="743.82">
    <tspan x="-524.9" y="743.82"/>
  </text>
  <text transform="scale(4.0128 .2492)" x="66.27" y="2635.65"/>
  <text x="56.37" y="663.82">
    <tspan x="56.37" y="663.82"/>
  </text>
  <text transform="scale(4.0128 .2492)" x="211.12" y="2314.63"/>
  <text x="-1015.21" y="482.56">
    <tspan x="-1015.21" y="482.56"/>
  </text>
  <text transform="scale(4.0128 .2492)" x="-55.915" y="1587.27"/>
  <text x="82.84" y="266.09">
    <tspan x="82.84" y="266.09"/>
  </text>
  <text transform="scale(4.0128 .2492)" x="217.72" y="718.6"/>
  <text x="664.11" y="186.08">
    <tspan x="664.11" y="186.08"/>
  </text>
  <text transform="scale(4.0128 .2492)" x="362.57" y="397.57"/>
  <text x="274.99" y="-286.32">
    <tspan x="274.99" y="-286.32"/>
  </text>
  <text transform="scale(4.0128 .2492)" x="265.6" y="-1498.08"/>
  <text x="856.25" y="-366.32">
    <tspan x="856.25" y="-366.32"/>
  </text>
  <text transform="scale(4.0128 .2492)" x="410.45" y="-1819.11"/>
  <text x="-976.55" y="1048.4">
    <tspan x="-976.55" y="1048.4"/>
  </text>
  <text x="-1390.94" y="61.56">
    <tspan x="-1390.94" y="61.56"/>
  </text>
  <text transform="scale(4.0128 .2492)" x="-149.54" y="-102.12"/>
  <text x="-809.67" y="-18.437">
    <tspan x="-809.67" y="-18.437"/>
  </text>
  <text transform="scale(4.0128 .2492)" x="-4.695" y="-423.15"/>
  <text x="-1881.25" y="-199.7">
    <tspan x="-1881.25" y="-199.7"/>
  </text>
  <text transform="scale(4.0128 .2492)" x="-271.73" y="-1150.5"/>
  <text x="-783.2" y="-416.17">
    <tspan x="-783.2" y="-416.17"/>
  </text>
  <text transform="scale(4.0128 .2492)" x="1.905" y="-2019.17"/>
  <text x="-201.93" y="-496.18">
    <tspan x="-201.93" y="-496.18"/>
  </text>
  <text transform="scale(4.0128 .2492)" x="146.75" y="-2340.21"/>
  <text x="-591.05" y="-968.58">
    <tspan x="-591.05" y="-968.58"/>
  </text>
  <text transform="scale(4.0128 .2492)" x="49.785" y="-4235.86"/>
  <text x="-9.793" y="-1048.58">
    <tspan x="-9.793" y="-1048.58"/>
  </text>
  <text transform="scale(4.0128 .2492)" x="194.63" y="-4556.89"/>
  <text x="-1842.59" y="366.14">
    <tspan x="-1842.59" y="366.14"/>
  </text>
  <text x="-2271.5" y="-130.93">
    <tspan x="-2271.5" y="-130.93"/>
  </text>
  <text transform="scale(4.0128 .2492)" x="-248.33" y="-1088.29"/>
  <text x="-2919.26" y="-898.88">
    <tspan x="-2919.26" y="-898.88"/>
  </text>
  <text transform="scale(4.0128 .2492)" x="-409.76" y="-4169.96"/>
  <text x="-2212.92" y="-1054.51">
    <tspan x="-2212.92" y="-1054.51"/>
  </text>
  <text transform="scale(4.0128 .2492)" x="-233.74" y="-4794.48"/>
  <text x="-1740.23" y="230.78">
    <tspan x="-1740.23" y="230.78"/>
  </text>
  <text transform="scale(4.0128 .2492)" x="-236.59" y="576.93"/>
  <text x="-1158.96" y="150.78">
    <tspan x="-1158.96" y="150.78"/>
  </text>
  <text transform="scale(4.0128 .2492)" x="-91.74" y="255.9"/>
  <text x="-2230.54" y="-30.478">
    <tspan x="-2230.54" y="-30.478"/>
  </text>
  <text transform="scale(4.0128 .2492)" x="-358.78" y="-471.45"/>
  <text x="-1132.49" y="-246.95">
    <tspan x="-1132.49" y="-246.95"/>
  </text>
  <text transform="scale(4.0128 .2492)" x="-85.14" y="-1340.12"/>
  <text x="-551.22" y="-326.96">
    <tspan x="-551.22" y="-326.96"/>
  </text>
  <text transform="scale(4.0128 .2492)" x="59.711" y="-1661.16"/>
  <text x="-940.34" y="-799.36">
    <tspan x="-940.34" y="-799.36"/>
  </text>
  <text transform="scale(4.0128 .2492)" x="-37.26" y="-3556.81"/>
  <text x="-359.08" y="-879.36">
    <tspan x="-359.08" y="-879.36"/>
  </text>
  <text transform="scale(4.0128 .2492)" x="107.59" y="-3877.83"/>
  <text x="-2191.88" y="535.36">
    <tspan x="-2191.88" y="535.36"/>
  </text>
  <path d="m87.57 195.41v275.36h315.39v-275.36zm30.522 30.523h70.69v91.9h-70.69zm101.21 0h153.13v91.9h-153.13zm-101.21 122.42h70.69v91.9h-70.69zm101.21 0h153.13v91.9h-153.13z" fill="#f9f9f9"/>
</svg>
