<svg viewBox="0 0 512 512" xmlns="http://www.w3.org/2000/svg">
  <text x="-210.55" y="39.41">
    <tspan x="-210.55" y="39.41"/>
  </text>
  <text transform="scale(4.0128 .2492)" x="144.61" y="-191"/>
  <text x="370.72" y="-40.586">
    <tspan x="370.72" y="-40.586"/>
  </text>
  <text transform="scale(4.0128 .2492)" x="289.46" y="-512.03"/>
  <text x="-700.86" y="-221.85">
    <tspan x="-700.86" y="-221.85"/>
  </text>
  <text transform="scale(4.0128 .2492)" x="22.422" y="-1239.38"/>
  <text x="397.19" y="-438.32">
    <tspan x="397.19" y="-438.32"/>
  </text>
  <text transform="scale(4.0128 .2492)" x="296.06" y="-2108.05"/>
  <text x="978.46" y="-518.33">
    <tspan x="978.46" y="-518.33"/>
  </text>
  <text transform="scale(4.0128 .2492)" x="440.91" y="-2429.09"/>
  <text x="589.34" y="-990.73">
    <tspan x="589.34" y="-990.73"/>
  </text>
  <text transform="scale(4.0128 .2492)" x="343.94" y="-4324.74"/>
  <text x="1170.6" y="-1070.73">
    <tspan x="1170.6" y="-1070.73"/>
  </text>
  <text transform="scale(4.0128 .2492)" x="488.79" y="-4645.77"/>
  <text x="-662.2" y="343.99">
    <tspan x="-662.2" y="343.99"/>
  </text>
  <text x="91.81" y="209.67">
    <tspan x="91.81" y="209.67"/>
  </text>
  <text transform="scale(4.0128 .2492)" x="219.96" y="492.19"/>
  <text x="673.08" y="129.67">
    <tspan x="673.08" y="129.67"/>
  </text>
  <text transform="scale(4.0128 .2492)" x="364.81" y="171.16"/>
  <text x="-398.5" y="-51.596">
    <tspan x="-398.5" y="-51.596"/>
  </text>
  <text transform="scale(4.0128 .2492)" x="97.77" y="-556.2"/>
  <text x="699.55" y="-268.06">
    <tspan x="699.55" y="-268.06"/>
  </text>
  <text transform="scale(4.0128 .2492)" x="371.41" y="-1424.86"/>
  <text x="1280.82" y="-348.07">
    <tspan x="1280.82" y="-348.07"/>
  </text>
  <text transform="scale(4.0128 .2492)" x="516.26" y="-1745.9"/>
  <text x="891.7" y="-820.47">
    <tspan x="891.7" y="-820.47"/>
  </text>
  <text transform="scale(4.0128 .2492)" x="419.29" y="-3641.55"/>
  <text x="1472.96" y="-900.47">
    <tspan x="1472.96" y="-900.47"/>
  </text>
  <text transform="scale(4.0128 .2492)" x="564.14" y="-3962.58"/>
  <text x="-359.84" y="514.25">
    <tspan x="-359.84" y="514.25"/>
  </text>
  <text x="78.79" y="179.29">
    <tspan x="78.79" y="179.29"/>
  </text>
  <text transform="scale(4.0128 .2492)" x="216.72" y="370.31"/>
  <text x="660.06" y="99.29">
    <tspan x="660.06" y="99.29"/>
  </text>
  <text transform="scale(4.0128 .2492)" x="361.57" y="49.28"/>
  <text x="-411.52" y="-81.969">
    <tspan x="-411.52" y="-81.969"/>
  </text>
  <text transform="scale(4.0128 .2492)" x="94.53" y="-678.08"/>
  <text x="686.53" y="-298.44">
    <tspan x="686.53" y="-298.44"/>
  </text>
  <text transform="scale(4.0128 .2492)" x="368.17" y="-1546.74"/>
  <text x="1267.8" y="-378.45">
    <tspan x="1267.8" y="-378.45"/>
  </text>
  <text transform="scale(4.0128 .2492)" x="513.01" y="-1867.78"/>
  <text x="878.68" y="-850.85">
    <tspan x="878.68" y="-850.85"/>
  </text>
  <text transform="scale(4.0128 .2492)" x="416.05" y="-3763.43"/>
  <text x="1459.94" y="-930.85">
    <tspan x="1459.94" y="-930.85"/>
  </text>
  <text transform="scale(4.0128 .2492)" x="560.89" y="-4084.46"/>
  <text x="-372.86" y="483.87">
    <tspan x="-372.86" y="483.87"/>
  </text>
  <text x="39.5" y="244.98">
    <tspan x="39.5" y="244.98"/>
  </text>
  <text transform="scale(4.0128 .2492)" x="206.92" y="633.89"/>
  <text x="620.77" y="164.98">
    <tspan x="620.77" y="164.98"/>
  </text>
  <text transform="scale(4.0128 .2492)" x="351.77" y="312.87"/>
  <text x="-450.81" y="-16.283">
    <tspan x="-450.81" y="-16.283"/>
  </text>
  <text transform="scale(4.0128 .2492)" x="84.74" y="-414.49"/>
  <text x="647.24" y="-232.75">
    <tspan x="647.24" y="-232.75"/>
  </text>
  <text transform="scale(4.0128 .2492)" x="358.37" y="-1283.16"/>
  <text x="1228.51" y="-312.76">
    <tspan x="1228.51" y="-312.76"/>
  </text>
  <text transform="scale(4.0128 .2492)" x="503.22" y="-1604.19"/>
  <text x="839.39" y="-785.16">
    <tspan x="839.39" y="-785.16"/>
  </text>
  <text transform="scale(4.0128 .2492)" x="406.25" y="-3499.84"/>
  <text x="1420.65" y="-865.16">
    <tspan x="1420.65" y="-865.16"/>
  </text>
  <text transform="scale(4.0128 .2492)" x="551.1" y="-3820.87"/>
  <g transform="translate(-690.14 13.618)">
    <text x="277.99" y="535.94">
      <tspan x="277.99" y="535.94"/>
    </text>
    <text x="148.44" y="135.65">
      <tspan x="148.44" y="135.65"/>
    </text>
  </g>
  <text transform="scale(4.0128 .2492)" x="62.09" y="249.85"/>
  <text x="39.57" y="69.27">
    <tspan x="39.57" y="69.27"/>
  </text>
  <text transform="scale(4.0128 .2492)" x="206.93" y="-71.18"/>
  <text x="-1032.01" y="-111.99">
    <tspan x="-1032.01" y="-111.99"/>
  </text>
  <text transform="scale(4.0128 .2492)" x="-60.1" y="-798.54"/>
  <text x="66.04" y="-328.46">
    <tspan x="66.04" y="-328.46"/>
  </text>
  <text transform="scale(4.0128 .2492)" x="213.53" y="-1667.19"/>
  <text x="647.31" y="-408.47">
    <tspan x="647.31" y="-408.47"/>
  </text>
  <text transform="scale(4.0128 .2492)" x="358.38" y="-1988.23"/>
  <text x="258.19" y="-880.87">
    <tspan x="258.19" y="-880.87"/>
  </text>
  <text transform="scale(4.0128 .2492)" x="261.41" y="-3883.87"/>
  <text x="839.45" y="-960.87">
    <tspan x="839.45" y="-960.87"/>
  </text>
  <text transform="scale(4.0128 .2492)" x="406.26" y="-4204.9"/>
  <text x="-993.35" y="453.85">
    <tspan x="-993.35" y="453.85"/>
  </text>
  <text fill="#555753" stroke="#555753" x="-575.74" y="116.28">
    <tspan x="-575.74" y="116.28"/>
  </text>
  <g fill="#555753">
    <text transform="scale(4.0128 .2492)" x="161.54" y="-73.74"/>
    <text stroke="#555753" x="169.64" y="169.43">
      <tspan x="169.64" y="169.43"/>
    </text>
    <text transform="scale(4.0128 .2492)" x="347.29" y="139.51"/>
    <text stroke="#555753" x="1069.25" y="45.61">
      <tspan x="1069.25" y="45.61"/>
    </text>
    <text transform="scale(4.0128 .2492)" x="571.47" y="-357.35"/>
    <text stroke="#555753" x="197.1" y="-7.03">
      <tspan x="197.1" y="-7.03"/>
    </text>
    <text transform="scale(4.0128 .2492)" x="354.13" y="-568.58"/>
    <text stroke="#555753" x="1096.72" y="-130.85">
      <tspan x="1096.72" y="-130.85"/>
    </text>
    <text transform="scale(4.0128 .2492)" x="578.32" y="-1065.43"/>
    <text stroke="#555753" x="-2812.88" y="444.86">
      <tspan x="-2812.88" y="444.86"/>
    </text>
    <text transform="scale(4.0128 .2492)" x="-395.95" y="1244.76"/>
  </g>
  <text x="-957.33" y="478.97">
    <tspan x="-957.33" y="478.97"/>
  </text>
  <text transform="scale(4.0128 .2492)" x="79.16" y="1359.15"/>
  <g fill="#654641" transform="translate(.001 -.003)">
    <text transform="scale(1.05082 .95163)" x="681.22" y="221.3">
      <tspan x="681.22" y="221.3"/>
    </text>
    <text transform="scale(4.21679 .23715)" x="299.04" y="659.01"/>
    <text transform="scale(1.05082 .95163)" x="949.03" y="197.8">
      <tspan x="949.03" y="197.8"/>
    </text>
    <text transform="scale(4.21679 .23715)" x="305.7" y="671.14"/>
    <text x="-25.07" y="290.09">
      <tspan x="-25.07" y="290.09"/>
    </text>
    <text transform="scale(4.0128 .2492)" x="195.94" y="805.88"/>
  </g>
  <g transform="translate(.001 -.003)">
    <text x="237.18" y="270.21">
      <tspan x="237.18" y="270.21"/>
    </text>
    <text x="-55.893" y="112.37">
      <tspan x="-55.893" y="112.37"/>
    </text>
    <g fill-opacity=".078">
      <path d="m32.554 0c-4.774 0-8.59 3.266-8.59 7.313v497.38c0 4.047 3.816 7.313 8.59 7.313h446.89c4.774 0 8.59-3.266 8.59-7.313v-497.38c0-4.047-3.816-7.313-8.59-7.313z"/>
      <path d="m35.614 3.5c-4.709 0-8.479 3.196-8.479 7.188v490.62c0 3.991 3.771 7.188 8.479 7.188h440.77c4.709 0 8.479-3.196 8.479-7.188v-490.62c0-3.991-3.771-7.188-8.479-7.188h-440.78"/>
      <path d="m38.674 7c-4.643 0-8.369 3.158-8.369 7.094v483.82c0 3.936 3.725 7.094 8.369 7.094h434.65c4.643 0 8.369-3.158 8.369-7.094v-483.81c0-3.936-3.725-7.094-8.369-7.094h-434.65"/>
    </g>
  </g>
  <path d="m41.735 10.497c-4.578 0-8.258 3.119-8.258 7v477c0 3.881 3.68 7 8.258 7h428.53c4.578 0 8.258-3.119 8.258-7v-477c0-3.881-3.68-7-8.258-7h-428.54" fill="#cccccc"/>
  <path d="m33.47 255.75v238.75c0 3.881 3.672 7 8.25 7h214.34v-245.75z" fill="#808080"/>
  <path d="m256.06 10.497v245.25h222.47v-238.25c0-3.881-3.672-7-8.25-7z" fill-opacity=".75974023"/>
  <path d="m41.72 10.497c-4.578 0-8.25 3.119-8.25 7v238.25h222.59v-245.25z" fill="#4d4d4d"/>
  <g fill="#654641" transform="translate(.001 -.003)">
    <text transform="scale(1.05082 .95163)" x="119.84" y="185.78">
      <tspan x="119.84" y="185.78"/>
    </text>
    <text transform="scale(4.21679 .23715)" x="159.14" y="516.46"/>
    <text transform="scale(1.05082 .95163)" x="387.65" y="162.28">
      <tspan x="387.65" y="162.28"/>
    </text>
    <text transform="scale(4.21679 .23715)" x="165.81" y="528.59"/>
    <text x="-614.98" y="256.28">
      <tspan x="-614.98" y="256.28"/>
    </text>
    <text transform="scale(4.0128 .2492)" x="48.929" y="670.22"/>
  </g>
  <g transform="translate(.001 -.003)">
    <text x="-352.73" y="236.4">
      <tspan x="-352.73" y="236.4"/>
    </text>
    <text x="-645.81" y="78.57">
      <tspan x="-645.81" y="78.57"/>
    </text>
    <text fill="#654641" transform="scale(1.05082 .95163)" x="89.53" y="181.15">
      <tspan x="89.53" y="181.15"/>
    </text>
    <g fill="#654641">
      <text transform="scale(4.21679 .23715)" x="151.59" y="497.89"/>
      <text transform="scale(1.05082 .95163)" x="357.34" y="157.65">
        <tspan x="357.34" y="157.65"/>
      </text>
      <text transform="scale(4.21679 .23715)" x="158.26" y="510.03"/>
      <text x="-646.83" y="251.88">
        <tspan x="-646.83" y="251.88"/>
      </text>
      <text transform="scale(4.0128 .2492)" x="40.993" y="652.56"/>
    </g>
  </g>
  <path d="m69.59 81.45v14.688l10.938 10.937v61.16l80.25 80.25v6.086l-40.971-40.971c-5.05-5.05-12.292-7.896-21.09-7.896-17.85 0-29.12 11.524-29.12 29.844v29.469c0 9.712 2.977 17.325 8.172 22.52l57.672 57.672v11.715l10.906 10.906v24.594l-50.19-50.19h-26.563v14.688l10.938 10.938v61.16l72.48 72.48h317.25c4.578 0 8.258-3.119 8.258-7v-101.89l-44.01-44.01c-5.05-5.05-12.298-7.895-21.11-7.895-11.368 0-20.06 4.68-24.881 12.807l-146.28-146.28h-20.313l-125.78-125.78h-26.563" opacity=".25"/>
  <path d="m69.59 81.45v14.688h10.938v72.09h15.625v-86.78h-26.563m29.13 124.25c-17.85 0-29.12 11.524-29.12 29.844v29.469c0 19.494 11.994 30.531 29.844 30.531 17.03 0 28.28-11.04 28.28-30.531v-30.28c0-17.615-11.385-29.03-29-29.03m51.16 1.531v14.688h10.906v72.09h15.625v-86.78h-26.531m65.813 0v14.688h10.938v72.09h15.625v-86.78h-26.563m-116.84 12.813c8.455 0 13.281 5.518 13.281 15.5v29.344c0 11.156-4.819 16.344-13.156 16.344-8.925 0-13.75-5.884-13.75-16.688v-29c0-9.629 5.17-15.5 13.625-15.5m117.09 120.66c-17.85 0-29.12 11.524-29.12 29.844v29.469c0 19.494 11.994 30.531 29.844 30.531 17.03 0 28.28-11.04 28.28-30.531v-30.31c0-17.615-11.385-29-29-29m197.47 0c-17.85 0-29.12 11.524-29.12 29.844v29.469c0 19.494 11.994 30.531 29.844 30.531 17.03 0 28.28-11.04 28.28-30.531v-30.31c0-17.615-11.385-29-29-29m-343.81 1.531v14.688h10.938v72.09h15.625v-86.78h-26.563m65.844 0v14.688h10.906v72.09h15.625v-86.78h-26.531m131.66 0v14.688h10.906v72.09h15.625v-86.78h-26.531m65.813 0v14.688h10.938v72.09h15.594v-86.78h-26.531m-116.84 12.813c8.455 0 13.25 5.518 13.25 15.5v29.344c0 11.156-4.787 16.344-13.12 16.344-8.925 0-13.75-5.884-13.75-16.688v-29c0-9.629 5.17-15.5 13.625-15.5m197.47 0c8.455 0 13.281 5.518 13.281 15.5v29.344c0 11.156-4.819 16.344-13.156 16.344-8.925 0-13.75-5.884-13.75-16.688v-29c0-9.629 5.17-15.5 13.625-15.5" fill="#ffffff"/>
</svg>
