<svg viewBox="0 0 512 512" xmlns="http://www.w3.org/2000/svg" xmlns:xlink="http://www.w3.org/1999/xlink">
  <text x="-477.49" y="456.61">
    <tspan x="-477.49" y="456.61"/>
  </text>
  <text transform="scale(4.0128 .2492)" x="198.74" y="1269.4"/>
  <text x="228.86" y="300.98">
    <tspan x="228.86" y="300.98"/>
  </text>
  <text transform="scale(4.0128 .2492)" x="374.76" y="644.88"/>
  <text x="262.23" y="292.85">
    <tspan x="262.23" y="292.85"/>
  </text>
  <text transform="scale(4.0128 .2492)" x="383.07" y="612.28"/>
  <g fill-opacity=".078">
    <path d="m32.563 0c-4.774 0-8.594 3.266-8.594 7.313v497.38c0 4.047 3.82 7.313 8.594 7.313h446.87c4.774 0 8.594-3.266 8.594-7.313v-360.03l-144.66-144.66h-310.81"/>
    <path d="m35.625 3.5c-4.709 0-8.5 3.196-8.5 7.188v490.62c0 3.991 3.791 7.188 8.5 7.188h440.75c4.709 0 8.5-3.196 8.5-7.188v-356.28l-141.53-141.53h-307.72"/>
    <path d="m38.688 7c-4.643 0-8.375 3.158-8.375 7.094v483.82c0 3.936 3.732 7.094 8.375 7.094h434.62c4.643 0 8.375-3.158 8.375-7.094v-352.62l-138.28-138.28h-304.72"/>
  </g>
  <path d="m41.719 10.5c-4.578 0-8.25 3.119-8.25 7v477c0 3.881 3.672 7 8.25 7h428.56c4.578 0 8.25-3.119 8.25-7v-348.06l-135.97-135.94z" fill="#68af4c"/>
  <path id="a" d="m478.53 146.44l-135.97-135.94v128.94c0 3.881 3.672 7 8.25 7z" fill="#ffffff" fill-opacity=".196"/>
  <use height="1" width="1" xlink:href="#a"/>
  <path d="m345.03 144.56l133.5 129.38v-127.5h-127.72c-2.185 0-4.154-.71-5.625-1.875h-.156" fill-opacity=".196"/>
  <text x="1462.93" y="190.14">
    <tspan x="1462.93" y="190.14"/>
  </text>
  <text transform="scale(4.0128 .2492)" x="561.64" y="413.84"/>
  <text x="2044.2" y="110.14">
    <tspan x="2044.2" y="110.14"/>
  </text>
  <text transform="scale(4.0128 .2492)" x="706.49" y="92.81"/>
  <text x="972.62" y="-71.12">
    <tspan x="972.62" y="-71.12"/>
  </text>
  <text transform="scale(4.0128 .2492)" x="439.46" y="-634.55"/>
  <text x="2070.67" y="-287.59">
    <tspan x="2070.67" y="-287.59"/>
  </text>
  <text transform="scale(4.0128 .2492)" x="713.09" y="-1503.21"/>
  <text x="2651.94" y="-367.6">
    <tspan x="2651.94" y="-367.6"/>
  </text>
  <text transform="scale(4.0128 .2492)" x="857.94" y="-1824.25"/>
  <text x="2262.82" y="-840">
    <tspan x="2262.82" y="-840"/>
  </text>
  <text transform="scale(4.0128 .2492)" x="760.97" y="-3719.9"/>
  <text x="2844.08" y="-920">
    <tspan x="2844.08" y="-920"/>
  </text>
  <text transform="scale(4.0128 .2492)" x="905.82" y="-4040.93"/>
  <text x="1011.28" y="494.72">
    <tspan x="1011.28" y="494.72"/>
  </text>
  <text x="1486.79" y="203.16">
    <tspan x="1486.79" y="203.16"/>
  </text>
  <text transform="scale(4.0128 .2492)" x="567.59" y="466.07"/>
  <text x="2068.06" y="123.16">
    <tspan x="2068.06" y="123.16"/>
  </text>
  <text transform="scale(4.0128 .2492)" x="712.44" y="145.04"/>
  <text x="996.48" y="-58.1">
    <tspan x="996.48" y="-58.1"/>
  </text>
  <text transform="scale(4.0128 .2492)" x="445.4" y="-582.31"/>
  <text x="2094.53" y="-274.57">
    <tspan x="2094.53" y="-274.57"/>
  </text>
  <text transform="scale(4.0128 .2492)" x="719.04" y="-1450.98"/>
  <text x="2675.8" y="-354.58">
    <tspan x="2675.8" y="-354.58"/>
  </text>
  <text transform="scale(4.0128 .2492)" x="863.89" y="-1772.02"/>
  <text x="2286.68" y="-826.98">
    <tspan x="2286.68" y="-826.98"/>
  </text>
  <text transform="scale(4.0128 .2492)" x="766.92" y="-3667.67"/>
  <text x="2867.94" y="-906.98">
    <tspan x="2867.94" y="-906.98"/>
  </text>
  <text transform="scale(4.0128 .2492)" x="911.77" y="-3988.7"/>
  <g transform="translate(757.15 -28.2)">
    <text x="277.99" y="535.94">
      <tspan x="277.99" y="535.94"/>
    </text>
    <text x="-307.18" y="-11.341">
      <tspan x="-307.18" y="-11.341"/>
    </text>
  </g>
  <text transform="scale(4.0128 .2492)" x="417.15" y="-699.05"/>
  <text x="1195.35" y="13.599">
    <tspan x="1195.35" y="13.599"/>
  </text>
  <text transform="scale(4.0128 .2492)" x="602.9" y="-485.8"/>
  <text x="2094.96" y="-110.22">
    <tspan x="2094.96" y="-110.22"/>
  </text>
  <text transform="scale(4.0128 .2492)" x="827.08" y="-982.66"/>
  <text x="1222.81" y="-162.85">
    <tspan x="1222.81" y="-162.85"/>
  </text>
  <text transform="scale(4.0128 .2492)" x="609.74" y="-1193.88"/>
  <text x="2122.42" y="-286.67">
    <tspan x="2122.42" y="-286.67"/>
  </text>
  <text transform="scale(4.0128 .2492)" x="833.92" y="-1690.74"/>
  <text x="-1787.17" y="289.03">
    <tspan x="-1787.17" y="289.03"/>
  </text>
  <text transform="scale(4.0128 .2492)" x="-140.34" y="619.44"/>
  <text x="141.11" y="53.597">
    <tspan x="141.11" y="53.597"/>
  </text>
  <text transform="scale(4.0128 .2492)" x="340.18" y="-325.29"/>
  <text x="886.49" y="106.74">
    <tspan x="886.49" y="106.74"/>
  </text>
  <text transform="scale(4.0128 .2492)" x="525.93" y="-112.04"/>
  <text x="1786.1" y="-17.08">
    <tspan x="1786.1" y="-17.08"/>
  </text>
  <text transform="scale(4.0128 .2492)" x="750.11" y="-608.89"/>
  <text x="913.95" y="-69.71">
    <tspan x="913.95" y="-69.71"/>
  </text>
  <text transform="scale(4.0128 .2492)" x="532.77" y="-820.12"/>
  <text x="1813.57" y="-193.53">
    <tspan x="1813.57" y="-193.53"/>
  </text>
  <text transform="scale(4.0128 .2492)" x="756.96" y="-1316.98"/>
  <text x="-2096.03" y="382.17">
    <tspan x="-2096.03" y="382.17"/>
  </text>
  <text transform="scale(4.0128 .2492)" x="-217.31" y="993.21"/>
  <text x="-573.46" y="-63.26">
    <tspan x="-573.46" y="-63.26"/>
  </text>
  <text transform="scale(4.0128 .2492)" x="162.11" y="-794.21"/>
  <text x="171.92" y="-10.113">
    <tspan x="171.92" y="-10.113"/>
  </text>
  <text transform="scale(4.0128 .2492)" x="347.86" y="-580.96"/>
  <text x="1071.53" y="-133.93">
    <tspan x="1071.53" y="-133.93"/>
  </text>
  <text transform="scale(4.0128 .2492)" x="572.04" y="-1077.82"/>
  <text x="199.38" y="-186.57">
    <tspan x="199.38" y="-186.57"/>
  </text>
  <text transform="scale(4.0128 .2492)" x="354.7" y="-1289.05"/>
  <text x="1099" y="-310.38">
    <tspan x="1099" y="-310.38"/>
  </text>
  <text transform="scale(4.0128 .2492)" x="578.88" y="-1785.9"/>
  <text x="-2810.6" y="265.32">
    <tspan x="-2810.6" y="265.32"/>
  </text>
  <text transform="scale(4.0128 .2492)" x="-395.38" y="524.28"/>
  <text x="1486.79" y="203.16">
    <tspan x="1486.79" y="203.16"/>
  </text>
  <text transform="scale(4.0128 .2492)" x="567.59" y="466.07"/>
  <text x="2068.06" y="123.16">
    <tspan x="2068.06" y="123.16"/>
  </text>
  <text transform="scale(4.0128 .2492)" x="712.44" y="145.04"/>
  <text x="996.48" y="-58.1">
    <tspan x="996.48" y="-58.1"/>
  </text>
  <text transform="scale(4.0128 .2492)" x="445.4" y="-582.31"/>
  <text x="2094.53" y="-274.57">
    <tspan x="2094.53" y="-274.57"/>
  </text>
  <text transform="scale(4.0128 .2492)" x="719.04" y="-1450.97"/>
  <text x="2675.8" y="-354.58">
    <tspan x="2675.8" y="-354.58"/>
  </text>
  <text transform="scale(4.0128 .2492)" x="863.89" y="-1772.01"/>
  <text x="2286.68" y="-826.98">
    <tspan x="2286.68" y="-826.98"/>
  </text>
  <text transform="scale(4.0128 .2492)" x="766.92" y="-3667.65"/>
  <text x="2867.94" y="-906.98">
    <tspan x="2867.94" y="-906.98"/>
  </text>
  <text transform="scale(4.0128 .2492)" x="911.77" y="-3988.68"/>
  <g transform="translate(757.15 -28.2)">
    <text x="277.99" y="535.94">
      <tspan x="277.99" y="535.94"/>
    </text>
    <text x="104.96" y="227.12">
      <tspan x="104.96" y="227.12"/>
    </text>
  </g>
  <text transform="scale(4.0128 .2492)" x="411.92" y="449.05"/>
  <text x="1443.38" y="118.91">
    <tspan x="1443.38" y="118.91"/>
  </text>
  <text transform="scale(4.0128 .2492)" x="556.77" y="128.01"/>
  <text x="371.8" y="-62.34">
    <tspan x="371.8" y="-62.34"/>
  </text>
  <text transform="scale(4.0128 .2492)" x="289.73" y="-599.33"/>
  <text x="1469.85" y="-278.82">
    <tspan x="1469.85" y="-278.82"/>
  </text>
  <text transform="scale(4.0128 .2492)" x="563.37" y="-1468.01"/>
  <text x="2051.12" y="-358.82">
    <tspan x="2051.12" y="-358.82"/>
  </text>
  <text transform="scale(4.0128 .2492)" x="708.22" y="-1789.04"/>
  <text x="1662" y="-831.22">
    <tspan x="1662" y="-831.22"/>
  </text>
  <text transform="scale(4.0128 .2492)" x="611.25" y="-3684.69"/>
  <text x="2243.27" y="-911.22">
    <tspan x="2243.27" y="-911.22"/>
  </text>
  <text transform="scale(4.0128 .2492)" x="756.1" y="-4005.73"/>
  <g transform="translate(757.15 -28.2)">
    <text x="-346.69" y="531.69">
      <tspan x="-346.69" y="531.69"/>
    </text>
    <text x="-931.86" y="-15.584">
      <tspan x="-931.86" y="-15.584"/>
    </text>
  </g>
  <text transform="scale(4.0128 .2492)" x="261.48" y="-716.08"/>
  <text x="570.67" y="9.356">
    <tspan x="570.67" y="9.356"/>
  </text>
  <text transform="scale(4.0128 .2492)" x="447.23" y="-502.83"/>
  <text x="1470.28" y="-114.46">
    <tspan x="1470.28" y="-114.46"/>
  </text>
  <text transform="scale(4.0128 .2492)" x="671.41" y="-999.68"/>
  <text x="598.13" y="-167.1">
    <tspan x="598.13" y="-167.1"/>
  </text>
  <text transform="scale(4.0128 .2492)" x="454.07" y="-1210.91"/>
  <text x="1497.75" y="-290.91">
    <tspan x="1497.75" y="-290.91"/>
  </text>
  <text transform="scale(4.0128 .2492)" x="678.25" y="-1707.77"/>
  <text x="-2411.85" y="284.79">
    <tspan x="-2411.85" y="284.79"/>
  </text>
  <text transform="scale(4.0128 .2492)" x="-296.01" y="602.41"/>
  <text x="-483.57" y="49.36">
    <tspan x="-483.57" y="49.36"/>
  </text>
  <text transform="scale(4.0128 .2492)" x="184.51" y="-342.31"/>
  <text x="261.81" y="102.5">
    <tspan x="261.81" y="102.5"/>
  </text>
  <text transform="scale(4.0128 .2492)" x="370.26" y="-129.06"/>
  <text x="1161.42" y="-21.319">
    <tspan x="1161.42" y="-21.319"/>
  </text>
  <text transform="scale(4.0128 .2492)" x="594.44" y="-625.92"/>
  <text x="289.27" y="-73.957">
    <tspan x="289.27" y="-73.957"/>
  </text>
  <text transform="scale(4.0128 .2492)" x="377.1" y="-837.14"/>
  <text x="1188.89" y="-197.77">
    <tspan x="1188.89" y="-197.77"/>
  </text>
  <text transform="scale(4.0128 .2492)" x="601.29" y="-1334"/>
  <text x="-2720.71" y="377.93">
    <tspan x="-2720.71" y="377.93"/>
  </text>
  <text transform="scale(4.0128 .2492)" x="-372.98" y="976.18"/>
  <text x="-1198.14" y="-67.5">
    <tspan x="-1198.14" y="-67.5"/>
  </text>
  <text transform="scale(4.0128 .2492)" x="6.444" y="-811.24"/>
  <text x="-452.76" y="-14.359">
    <tspan x="-452.76" y="-14.359"/>
  </text>
  <text transform="scale(4.0128 .2492)" x="192.19" y="-597.99"/>
  <text x="446.85" y="-138.17">
    <tspan x="446.85" y="-138.17"/>
  </text>
  <text transform="scale(4.0128 .2492)" x="416.37" y="-1094.85"/>
  <text x="-425.3" y="-190.81">
    <tspan x="-425.3" y="-190.81"/>
  </text>
  <text transform="scale(4.0128 .2492)" x="199.03" y="-1306.07"/>
  <text x="474.32" y="-314.63">
    <tspan x="474.32" y="-314.63"/>
  </text>
  <text transform="scale(4.0128 .2492)" x="423.22" y="-1802.93"/>
  <text x="-3435.28" y="261.07">
    <tspan x="-3435.28" y="261.07"/>
  </text>
  <text transform="scale(4.0128 .2492)" x="-551.05" y="507.25"/>
  <text x="-26947.39" y="1181.01">
    <tspan x="-26947.39" y="1181.01"/>
  </text>
  <text transform="scale(4.0128 .2492)" x="677.63" y="-8358.42"/>
  <text x="-27082.11" y="2092.9">
    <tspan x="-27082.11" y="2092.9"/>
  </text>
  <text transform="scale(4.0128 .2492)" x="644.1" y="-4699.25"/>
  <g fill="#555753" transform="translate(757.15 -28.2)">
    <text transform="scale(1.05082 .95163)" x="-13349.95" y="-4932.81">
      <tspan x="-13349.95" y="-4932.81"/>
    </text>
    <text transform="scale(4.21677 .23715)" x="1211.27" y="-27834.31"/>
    <text transform="scale(1.05082 .95163)" x="-3948.82" y="-5757.68">
      <tspan x="-3948.82" y="-5757.68"/>
    </text>
    <text transform="scale(4.21677 .23715)" x="1445.33" y="-27408.26"/>
    <text x="-40036.84" y="-1903.88">
      <tspan x="-40036.84" y="-1903.88"/>
    </text>
    <text transform="scale(4.0128 .2492)" x="-2879.85" y="-20213.15"/>
  </g>
  <g transform="translate(757.15 -28.2)">
    <text stroke="#cd1d31" stroke-width="23.268" x="-25856.32" y="-14128.22">
      <tspan x="-25856.32" y="-14128.22"/>
    </text>
    <text transform="scale(4.0128 .2492)" x="949.66" y="-69791.79"/>
    <text stroke="#cd1d31" stroke-width="23.268" x="-25991.28" y="-13216.33">
      <tspan x="-25991.28" y="-13216.33"/>
    </text>
    <text transform="scale(4.0128 .2492)" x="916" y="-66132.37"/>
  </g>
  <g fill="#555753" stroke="#cd1d31" transform="matrix(23.268 0 0 23.268 175.77 -203.93)">
    <text transform="scale(1.05082 .95163)" x="-474.37" y="-896.71">
      <tspan x="-474.37" y="-896.71"/>
    </text>
    <text transform="scale(4.21679 .23715)" x="76.82" y="-3943.87"/>
    <text transform="scale(1.05082 .95163)" x="-70.35" y="-932.16">
      <tspan x="-70.35" y="-932.16"/>
    </text>
    <text transform="scale(4.21679 .23715)" x="86.87" y="-3925.56"/>
    <text x="-1616.23" y="-733.42">
      <tspan x="-1616.23" y="-733.42"/>
    </text>
  </g>
  <text fill="#555753" transform="scale(4.0128 .2492)" x="-2230.66" y="-81872.4"/>
  <g transform="translate(757.15 -28.2)">
    <text stroke="#cd1d31" stroke-width="23.268" x="-8883.58" y="-20816.52">
      <tspan x="-8883.58" y="-20816.52"/>
    </text>
    <text transform="scale(4.0128 .2492)" x="4883.42" y="-96106.23"/>
    <text stroke="#cd1d31" stroke-width="23.268" x="12049.23" y="-23697.62">
      <tspan x="12049.23" y="-23697.62"/>
    </text>
    <text transform="scale(4.0128 .2492)" x="10099.96" y="-107667.36"/>
  </g>
  <path d="m244.27 150.79v.031c-79.86 0-144.61 64.709-144.61 144.57 0 39.932 16.185 76.08 42.35 102.25l103.85 103.85h224.41c4.578 0 8.25-3.119 8.25-7v-169.32l-132.04-132.04c-26.16-26.16-62.29-42.34-102.21-42.34" opacity=".25"/>
  <path d="m244.27 150.8v.03c-79.86 0-144.61 64.71-144.61 144.58 0 79.86 64.74 144.61 144.61 144.61 1.036 0 2.066-.038 3.097-.06-.137-1.129-.241-2.262-.241-3.428 0-11.72 7.157-21.628 16.719-27.995 9.562-6.372 21.886-9.893 35.33-9.893 6.592 0 12.852.927 18.673 2.556v-129.9h23.785v.03c.086.001 18.963.22 37.798 14.283 3.158 2.358 6.314 5.121 9.412 8.299-.825-79.15-65.22-143.1-144.58-143.1m49.826 17.23c17.09 6.676 33.11 16.9 46.909 30.701 11.614 11.614 20.735 24.838 27.303 38.91l-84.5 48.773c-1.651-7.18-5.292-14.01-10.885-19.605-5.822-5.822-12.975-9.484-20.478-11.04l41.647-87.74m-49.826 93.58c18.684 0 33.828 15.15 33.828 33.828 0 18.684-15.15 33.828-33.828 33.828-18.684 0-33.828-15.15-33.828-33.828 0-18.684 15.15-33.828 33.828-33.828m0 7.487c-14.549 0-26.341 11.795-26.341 26.341 0 14.549 11.795 26.341 26.341 26.341 14.549 0 26.341-11.795 26.341-26.341 0-14.549-11.795-26.341-26.341-26.341m0 7.728c10.268 0 18.583 8.315 18.583 18.583s-8.315 18.583-18.583 18.583-18.583-8.315-18.583-18.583 8.315-18.583 18.583-18.583m83.2 4.089v134.65c-7.517-4.518-17.374-7.337-28.3-7.337-23.426 0-42.43 12.652-42.43 28.3 0 15.644 19.01 28.3 42.43 28.3 23.426 0 42.43-12.652 42.43-28.3v-113.18c35.37-5.747 56.58 35.37 70.72 56.59-8.815-98.75-70.36-99.02-70.69-99.02h-14.163m-123.11 23.484c.309 1.337.697 2.662 1.143 3.969.149.439.287.858.451 1.293 1.317 3.481 3.134 6.803 5.443 9.893.288.385.57.765.872 1.143.913 1.135 1.893 2.224 2.947 3.278 1.82 1.82 3.753 3.409 5.803 4.811.41.28.815.578 1.233.842 1.676 1.057 3.419 1.978 5.202 2.766.888.394 1.768.726 2.676 1.052 1.363.49 2.782.922 4.18 1.263.466.114.915.204 1.383.301l-41.647 87.74c-1.075-.421-2.15-.814-3.217-1.263-1.059-.445-2.108-.911-3.157-1.383-2.11-.951-4.156-1.944-6.224-3.01-1.023-.524-2.055-1.102-3.067-1.654-.009-.003-.023.003-.03 0-1.019-.556-2-1.1-3.01-1.684-2.02-1.172-4.01-2.384-5.984-3.669-.982-.64-1.951-1.287-2.917-1.955-3.887-2.674-7.655-5.568-11.306-8.69-.906-.775-1.815-1.573-2.706-2.376-.005-.005-.025.005-.03 0-.896-.806-1.767-1.63-2.646-2.466-.879-.834-1.754-1.693-2.616-2.556-4.362-4.362-8.347-8.943-11.998-13.712-.607-.794-1.186-1.571-1.774-2.375-5.293-7.236-9.805-14.877-13.501-22.793l84.5-48.773m146.86 28.24v60.11c11.595-12.736 20.941-27.541 27.424-43.812-.241-.262-.479-.524-.722-.782-8.255-8.771-16.675-14.598-26.702-15.516" fill="#ffffff"/>
</svg>
