<?xml version="1.0" encoding="UTF-8" standalone="no"?>
<svg xmlns="http://www.w3.org/2000/svg" xmlns:xlink="http://www.w3.org/1999/xlink" width="48" height="48" version="1.1">
 <defs>
  <linearGradient id="linearGradient4143">
   <stop offset="0" style="stop-color:#197cf1;stop-opacity:1"/>
   <stop offset="1" style="stop-color:#20bcfa;stop-opacity:1"/>
  </linearGradient>
  <linearGradient y2="517.798" x2="400.571" y1="545.798" x1="400.571" gradientTransform="matrix(1.4285729,0,0,1.4285729,-163.67403,-235.91408)" gradientUnits="userSpaceOnUse" id="linearGradient4224" xlink:href="#linearGradient4191"/>
  <linearGradient gradientTransform="matrix(0.57451715,0,0,0.57451715,157.61022,217.52294)" gradientUnits="userSpaceOnUse" y2="509.331" x2="441.045" y1="542.054" x1="442.28" id="linearGradient4278" xlink:href="#linearGradient4143"/>
  <linearGradient id="linearGradient4191">
   <stop style="stop-color:#2e3e46;stop-opacity:1" offset="0"/>
   <stop style="stop-color:#47606a;stop-opacity:1" offset="1"/>
  </linearGradient>
 </defs>
 <g transform="translate(-384.57143,-499.798)">
  <g>
   <g transform="matrix(1.15,0,0,1.15,-61.285728,-78.569705)">
    <rect ry="20" y="503.8" x="388.57" height="40" width="40" style="opacity:1;fill:url(#linearGradient4224);fill-opacity:1;"/>
    <path d="m 410.71832,523.81718 c -0.0552,-0.45802 -0.22926,-0.87572 -0.4968,-1.22452 l 1.8368,-11.39934 c 0.0684,-0.42414 -0.20372,-0.82852 -0.62224,-0.9252 l -0.0206,-0.004 c -0.41852,-0.0968 -0.84028,0.1476 -0.96482,0.55874 l -3.34617,11.05067 c -0.82462,0.41464 -1.39706,1.25987 -1.39706,2.24427 0,1.38994 1.13028,2.5209 2.52016,2.5209 0.259,0 0.50392,-0.0506 0.73918,-0.1234 l 6.99053,3.63279 c 0.38461,0.1998 0.85803,0.075 1.09405,-0.2885 l 0.01,-0.016 c 0.23608,-0.3634 0.1576,-0.84673 -0.1816,-1.11673 z m -3.73547,0.29996 c 0,-0.6863 0.5586,-1.24488 1.24488,-1.24488 0.6869,0 1.24549,0.55858 1.24549,1.24488 0,0.6868 -0.55859,1.24548 -1.24549,1.24548 -0.68628,0 -1.24488,-0.5586 -1.24488,-1.24548 z" style="fill:url(#linearGradient4278);fill-opacity:1"/>
   </g>
  </g>
 </g>
</svg>
