<?xml version="1.0" encoding="UTF-8" standalone="no"?>
<svg xmlns="http://www.w3.org/2000/svg" xmlns:xlink="http://www.w3.org/1999/xlink" version="1.1" viewBox="0 0 48 48" height="48" width="48">
 <defs>
  <linearGradient id="linearGradient4157">
   <stop offset="0" style="stop-color:#0055d4;stop-opacity:1;"/>
   <stop offset="1" style="stop-color:#3771c8;stop-opacity:1"/>
  </linearGradient>
  <linearGradient gradientTransform="matrix(1.0693111,0,0,1.0693111,-51.496891,-49.30761)" gradientUnits="userSpaceOnUse" y2="696.115" x2="727.202" y1="726.432" x1="757.6" id="linearGradient4163" xlink:href="#linearGradient4157"/>
  <clipPath clipPathUnits="userSpaceOnUse" id="clipPath6043">
   <rect style="opacity:1;fill:url(#linearGradient6047);fill-opacity:1;" width="33.737" height="33.737" x="726.11" y="694.53" rx="1.936" ry="2.079" transform="matrix(0.70825126,0.70596045,-0.70596045,0.70825126,0,0)"/>
  </clipPath>
  <linearGradient xlink:href="#linearGradient4157" id="linearGradient6047" gradientUnits="userSpaceOnUse" gradientTransform="matrix(1.0693111,0,0,1.0693111,-51.496891,-49.30761)" x1="757.6" y1="726.432" x2="727.202" y2="696.115"/>
 </defs>
 <g transform="translate(0,-1004.3622)">
  <rect transform="matrix(0.70825126,0.70596045,-0.70596045,0.70825126,0,0)" ry="2.079" rx="1.936" y="694.53" x="726.11" height="33.737" width="33.737" style="opacity:1;fill:url(#linearGradient4163);fill-opacity:1;"/>
  <g clip-path="url(#clipPath6043)">
   <path d="m 21.620327,1020.5182 1.981374,-2.0419 106.066019,106.066 -1.98137,2.0419 z" style="line-height:125%;font-family:Roboto;letter-spacing:0px;word-spacing:0px;fill:#000000;fill-opacity:0.07843137;"/>
   <path d="m 20.916864,1023.0939 -2.798124,0 106.06602,106.066 2.79812,0 z" style="line-height:125%;font-family:Roboto;letter-spacing:0px;word-spacing:0px;fill:#000000;fill-opacity:0.07843137;"/>
   <path d="m 20.54812,1019.4449 -1.648625,1.6335 106.066015,106.066 1.64863,-1.6335 z" style="line-height:125%;font-family:Roboto;letter-spacing:0px;word-spacing:0px;fill:#000000;fill-opacity:0.07843137;"/>
   <path d="m 25.182112,1033.757 -2.798124,0 106.066022,106.066 2.79812,0 z" style="line-height:125%;font-family:Roboto;letter-spacing:0px;word-spacing:0px;fill:#000000;fill-opacity:0.07843137;"/>
   <path d="m 25.462684,1020.3637 1.981374,-2.0419 106.066012,106.066 -1.98137,2.0419 z" style="line-height:125%;font-family:Roboto;letter-spacing:0px;word-spacing:0px;fill:#000000;fill-opacity:0.07843137;"/>
   <path d="m 22.7479,1031.3346 1.777319,-1.8316 95.142611,95.1426 -1.77732,1.8316 z" style="line-height:125%;font-family:Roboto;letter-spacing:0px;word-spacing:0px;fill:#000000;fill-opacity:0.07843137;"/>
   <path d="m 25.330881,1037.5926 -2.798124,0 106.066013,106.0659 2.79812,0 z" style="line-height:125%;font-family:Roboto;letter-spacing:0px;word-spacing:0px;fill:#000000;fill-opacity:0.07843137;"/>
   <path d="m 24.311784,1039.3776 -1.866671,0 70.758248,70.7582 1.86667,0 z" style="line-height:125%;font-family:Roboto;letter-spacing:0px;word-spacing:0px;fill:#000000;fill-opacity:0.07843137;"/>
  </g>
  <path style="line-height:125%;font-family:Roboto;letter-spacing:0px;word-spacing:0px;fill:#ffffff;fill-opacity:1;" d="m 22.383988,1033.757 q 0.03025,-1.7999 0.408375,-2.8435 0.378125,-1.0436 1.542749,-2.3141 l 1.981374,-2.0419 q 1.2705,-1.4369 1.2705,-3.0855 0,-1.5881 -0.831875,-2.4805 -0.831874,-0.9075 -2.419999,-0.9075 -1.542749,0 -2.480499,0.8168 -0.937749,0.8167 -0.937749,2.1931 l -2.798124,0 q 0.03025,-2.4503 1.739374,-3.9476 1.724249,-1.5125 4.476998,-1.5125 2.858624,0 4.446748,1.5427 1.60325,1.5276 1.60325,4.2048 0,2.6468 -2.450249,5.2181 l -1.648625,1.6335 q -1.104124,1.2251 -1.104124,3.5241 l -2.798124,0 z m -0.121,4.7946 q 0,-0.6806 0.408375,-1.1343 0.4235,-0.4689 1.240249,-0.4689 0.81675,0 1.24025,0.4689 0.4235,0.4537 0.4235,1.1343 0,0.6807 -0.4235,1.1344 -0.4235,0.4386 -1.24025,0.4386 -0.816749,0 -1.240249,-0.4386 -0.408375,-0.4537 -0.408375,-1.1344 z"/>
  <rect style="opacity:1;fill-opacity:1;stroke:#ffffff;stroke-width:1.9604038;fill:none" width="33.737" height="33.737" x="726.11" y="694.53" rx="1.936" ry="2.079" transform="matrix(0.70825126,0.70596045,-0.70596045,0.70825126,0,0)"/>
 </g>
</svg>
