<?xml version="1.0" encoding="UTF-8" standalone="no"?>
<svg xmlns="http://www.w3.org/2000/svg" xmlns:xlink="http://www.w3.org/1999/xlink" width="64" height="64" version="1.1">
 <defs>
  <linearGradient id="linearGradient5404">
   <stop offset="0" style="stop-color:#cbcbcb;stop-opacity:1"/>
   <stop offset="1" style="stop-color:#f3f3f3;stop-opacity:1"/>
  </linearGradient>
  <linearGradient id="linearGradient5354">
   <stop style="stop-color:#f4f4f4;stop-opacity:1" offset="0"/>
   <stop style="stop-color:#b0b0b0;stop-opacity:1" offset="1"/>
  </linearGradient>
  <linearGradient id="linearGradient5334">
   <stop offset="0" style="stop-color:#1f1f1f;stop-opacity:1"/>
   <stop offset="1" style="stop-color:#444444;stop-opacity:1"/>
  </linearGradient>
  <linearGradient id="linearGradient5278">
   <stop style="stop-color:#060606;stop-opacity:1" offset="0"/>
   <stop style="stop-color:#343434;stop-opacity:1" offset="1"/>
  </linearGradient>
  <linearGradient id="linearGradient5246">
   <stop style="stop-color:#333333;stop-opacity:1;" offset="0"/>
   <stop offset=".643" style="stop-color:#4e4e4e;stop-opacity:1"/>
   <stop style="stop-color:#333333;stop-opacity:1;" offset="1"/>
  </linearGradient>
  <linearGradient id="linearGradient5206">
   <stop style="stop-color:#cbcbcb;stop-opacity:1" offset="0"/>
   <stop offset=".6" style="stop-color:#e9e9e9;stop-opacity:1"/>
   <stop style="stop-color:#bebebe;stop-opacity:1" offset="1"/>
  </linearGradient>
  <linearGradient id="linearGradient5184">
   <stop style="stop-color:#a8a8a8;stop-opacity:1" offset="0"/>
   <stop style="stop-color:#cccccc;stop-opacity:1" offset="1"/>
  </linearGradient>
  <linearGradient id="linearGradient5002">
   <stop style="stop-color:#2e5d89;stop-opacity:1" offset="0"/>
   <stop style="stop-color:#1b92f4;stop-opacity:1" offset="1"/>
  </linearGradient>
  <linearGradient y2="527.798" x2="415.571" y1="512.798" x1="400.571" gradientUnits="userSpaceOnUse" id="linearGradient4352" xlink:href="#linearGradient5002"/>
  <linearGradient xlink:href="#linearGradient5184" id="linearGradient5190" x1="747.803" y1="503.036" x2="746.388" y2="421.012" gradientUnits="userSpaceOnUse" gradientTransform="translate(0,-3.199701)"/>
  <linearGradient xlink:href="#linearGradient5206" id="linearGradient5212" x1="744.571" y1="408.869" x2="744.571" y2="301.798" gradientUnits="userSpaceOnUse" gradientTransform="matrix(0.99806114,0,0,1,1.4832004,0)"/>
  <linearGradient xlink:href="#linearGradient5246" id="linearGradient5238" x1="744.571" y1="381.798" x2="744.571" y2="311.798" gradientUnits="userSpaceOnUse" gradientTransform="translate(0,-0.79999)"/>
  <linearGradient xlink:href="#linearGradient5278" id="linearGradient5284" x1="735.781" y1="464.592" x2="736.697" y2="504.092" gradientUnits="userSpaceOnUse" gradientTransform="translate(0,0.167954)"/>
  <linearGradient xlink:href="#linearGradient5278" id="linearGradient5306" x1="745.906" y1="499.568" x2="742.228" y2="438.568" gradientUnits="userSpaceOnUse"/>
  <linearGradient xlink:href="#linearGradient5334" id="linearGradient5332" x1="736.454" y1="501.815" x2="736.63" y2="571.815" gradientUnits="userSpaceOnUse" gradientTransform="matrix(0.99867048,0,0,1,0.18536705,0)"/>
  <linearGradient xlink:href="#linearGradient5354" id="linearGradient5360" x1="743.781" y1="547.504" x2="748.197" y2="463.918" gradientUnits="userSpaceOnUse"/>
  <linearGradient xlink:href="#linearGradient5334" id="linearGradient5381" x1="754.571" y1="302.798" x2="752.571" y2="258.798" gradientUnits="userSpaceOnUse"/>
  <linearGradient xlink:href="#linearGradient5404" id="linearGradient5402" x1="736.817" y1="307.466" x2="738.938" y2="233.22" gradientUnits="userSpaceOnUse"/>
 </defs>
 <g transform="translate(-376.57144,-491.79797)">
  <g transform="translate(290.99999,-113.00002)">
   <path cx="408.571" cy="519.798" r="10" style="opacity:1;fill:url(#linearGradient4352);fill-opacity:1;"/>
   <g>
    <path d="m 94.55645,662.31116 46.311,0 0.3,0.50383 0,0.82199 -46.911003,0 0,-0.8494 z" style="opacity:1;fill:#2a2a2a;fill-opacity:1;fill-rule:evenodd;"/>
    <g transform="matrix(0.15590772,0,0,0.15590772,2.306184,574.43716)">
     <path style="opacity:1;fill:url(#linearGradient5212);fill-opacity:1;fill-rule:evenodd;" d="m 588.94957,310.33196 298.63015,0 31.84975,30.50885 0,75.55717 -360.339,0 0,-75.91072 z"/>
     <path style="opacity:1;fill:url(#linearGradient5190);fill-opacity:1;fill-rule:evenodd;" d="m 919.62949,416.34827 0,74.73071 c 0,7.6452 -6.1548,13.8 -13.8,13.8 l -333.02448,0 c -7.64521,0 -13.80001,-6.1548 -13.80001,-13.8 l 0,-75.48071 z"/>
     <path style="opacity:1;fill:url(#linearGradient5238);fill-opacity:1;fill-rule:evenodd;" d="m 629.20947,309.62056 220.41632,0 10,21.37742 0,38.72667 c 0,0 0.0574,15.55634 -15.55638,15.55634 l -209.30362,0 c 0,0 -15.05632,-0.61359 -15.55632,-14.84924 l 0,-39.68377 z"/>
     <path style="opacity:1;fill:url(#linearGradient5306);fill-opacity:1;fill-rule:evenodd;" d="m 621.58398,443.13195 235.4665,0 c 9.79345,0 17.6777,7.88426 17.6777,17.6777 l 0,44.19433 -270.8219,0 0,-44.19433 c 0,-9.79344 7.88426,-17.6777 17.6777,-17.6777 z"/>
     <path style="opacity:1;fill:url(#linearGradient5284);fill-opacity:1;fill-rule:evenodd;" d="m 638.45834,461.5169 205.06099,0 c 9.79343,0 17.67767,7.88424 17.67767,17.67767 l 0,25.80941 -240.41632,0 0,-25.80941 c 0,-9.79343 7.88424,-17.67767 17.67766,-17.67767 z"/>
     <path style="opacity:1;fill:url(#linearGradient5332);fill-opacity:1;fill-rule:evenodd;" d="m 603.83585,504.87898 270.81488,0 15.97874,61.87185 -300.775,0 z"/>
     <path style="opacity:1;fill:url(#linearGradient5360);fill-opacity:1;fill-rule:evenodd;" d="m 636.33246,461.51691 210.36427,0 10,89.80256 -230.36427,0 z"/>
     <rect style="opacity:1;fill:url(#linearGradient5381);fill-opacity:1;fill-rule:evenodd;" width="243" height="61" x="616.57" y="249"/>
     <rect style="opacity:1;fill:url(#linearGradient5402);fill-opacity:1;fill-rule:evenodd;" width="211.071" height="77.075" x="633.93" y="233.22"/>
     <path style="opacity:1;fill:#3b3b3b;fill-opacity:1;fill-rule:evenodd;" d="m 897.29645,369.54797 22.12492,0 0,14.75 -22.12492,0 c -4.08575,0 -7.375,-3.28925 -7.375,-7.375 0,-4.08575 3.28925,-7.375 7.375,-7.375 z"/>
     <rect style="opacity:1;fill:#d5d5d5;fill-opacity:1;fill-rule:evenodd;" width="19.982" height="8.958" x="895.29" y="372.54" ry="4.479"/>
    </g>
   </g>
   <g>
    <path style="opacity:1;fill:#2a2a2a;fill-opacity:1;fill-rule:evenodd;" d="m 94.55645,662.31116 46.311,0 0.3,0.50383 0,0.82199 -46.911003,0 0,-0.8494 z"/>
    <g transform="matrix(0.15590772,0,0,0.15590772,2.306184,574.43716)">
     <path d="m 588.94957,310.33196 298.63015,0 31.84975,30.50885 c 0,25.18572 0,-0.94743 0,75.55717 l -360.339,0 0,-75.91072 z" style="opacity:1;fill:url(#linearGradient5212);fill-opacity:1;fill-rule:evenodd;"/>
     <path d="m 919.62949,416.34827 0,74.73071 c 0,7.6452 -6.1548,13.8 -13.8,13.8 l -333.02448,0 c -7.64521,0 -13.80001,-6.1548 -13.80001,-13.8 l 0,-75.48071 z" style="opacity:1;fill:url(#linearGradient5190);fill-opacity:1;fill-rule:evenodd;"/>
     <path d="m 629.20947,309.62056 220.41632,0 10,21.37742 0,38.72667 c 0,0 0.0574,15.55634 -15.55638,15.55634 l -209.30362,0 c 0,0 -15.05632,-0.61359 -15.55632,-14.84924 l 0,-39.68377 z" style="opacity:1;fill:url(#linearGradient5238);fill-opacity:1;fill-rule:evenodd;"/>
     <path d="m 621.58398,443.13195 235.4665,0 c 9.79345,0 17.6777,7.88426 17.6777,17.6777 l 0,44.19433 -270.8219,0 0,-44.19433 c 0,-9.79344 7.88426,-17.6777 17.6777,-17.6777 z" style="opacity:1;fill:url(#linearGradient5306);fill-opacity:1;fill-rule:evenodd;"/>
     <path d="m 638.45834,461.5169 205.06099,0 c 9.79343,0 17.67767,7.88424 17.67767,17.67767 l 0,25.80941 -240.41632,0 0,-25.80941 c 0,-9.79343 7.88424,-17.67767 17.67766,-17.67767 z" style="opacity:1;fill:url(#linearGradient5284);fill-opacity:1;fill-rule:evenodd;"/>
     <path d="m 603.83585,504.87898 270.81488,0 15.97874,61.87185 -300.775,0 z" style="opacity:1;fill:url(#linearGradient5332);fill-opacity:1;fill-rule:evenodd;"/>
     <path d="m 636.33246,461.51691 210.36427,0 10,89.80256 -230.36427,0 z" style="opacity:1;fill:url(#linearGradient5360);fill-opacity:1;fill-rule:evenodd;"/>
     <rect y="249" x="616.57" height="61" width="243" style="opacity:1;fill:url(#linearGradient5381);fill-opacity:1;fill-rule:evenodd;"/>
     <rect y="233.22" x="633.93" height="77.075" width="211.071" style="opacity:1;fill:url(#linearGradient5402);fill-opacity:1;fill-rule:evenodd;"/>
     <path d="m 897.29645,369.54797 22.12492,0 0,14.75 -22.12492,0 c -4.08575,0 -7.375,-3.28925 -7.375,-7.375 0,-4.08575 3.28925,-7.375 7.375,-7.375 z" style="opacity:1;fill:#3b3b3b;fill-opacity:1;fill-rule:evenodd;"/>
     <rect ry="4.479" y="372.54" x="895.29" height="8.958" width="19.982" style="opacity:1;fill:#d5d5d5;fill-opacity:1;fill-rule:evenodd;"/>
    </g>
   </g>
   <g transform="matrix(0.98627071,0,0,0.98627071,-398.94364,56.440415)">
    <g style="fill:#da4453;fill-opacity:1" transform="matrix(0.14324114,0,0,0.14324114,536.15337,581.15537)">
     <path style="fill:#da4453;fill-opacity:1" d="M 117.18,31.592 C 111.585,22.006 103.995,14.416 94.409,8.821 84.821,3.226 74.354,0.429 63.001,0.429 51.649,0.429 41.179,3.226 31.593,8.821 22.006,14.415 14.416,22.005 8.821,31.592 3.225,41.179 0.428,51.649 0.428,63 c 0,11.352 2.798,21.82 8.392,31.408 5.595,9.585 13.185,17.176 22.772,22.771 9.587,5.595 20.056,8.392 31.408,8.392 11.352,0 21.822,-2.797 31.408,-8.392 9.586,-5.594 17.176,-13.185 22.771,-22.771 5.594,-9.587 8.391,-20.057 8.391,-31.408 0,-11.352 -2.797,-21.822 -8.39,-31.408 l 0,0 z M 92.493,77.746 c 1.032,1.031 1.549,2.255 1.549,3.667 0,1.466 -0.517,2.716 -1.549,3.747 l -7.332,7.333 c -1.032,1.032 -2.281,1.548 -3.748,1.548 -1.412,0 -2.636,-0.516 -3.666,-1.548 L 63,77.746 48.253,92.493 c -1.032,1.032 -2.254,1.548 -3.666,1.548 -1.467,0 -2.716,-0.516 -3.748,-1.548 L 33.506,85.16 c -1.032,-1.031 -1.548,-2.281 -1.548,-3.747 0,-1.412 0.516,-2.636 1.548,-3.667 L 48.253,63 33.506,48.253 c -1.032,-1.031 -1.548,-2.254 -1.548,-3.666 0,-1.467 0.516,-2.716 1.548,-3.748 l 7.333,-7.332 c 1.032,-1.032 2.281,-1.548 3.748,-1.548 1.412,0 2.634,0.516 3.666,1.548 L 63,48.253 77.747,33.507 c 1.03,-1.032 2.254,-1.548 3.666,-1.548 1.467,0 2.716,0.516 3.748,1.548 l 7.332,7.332 c 1.032,1.032 1.549,2.281 1.549,3.748 0,1.412 -0.517,2.635 -1.549,3.666 L 77.747,63 l 14.746,14.746 0,0 z"/>
    </g>
   </g>
  </g>
 </g>
</svg>
