<?xml version="1.0" encoding="UTF-8" standalone="no"?>
<svg
   xmlns:dc="http://purl.org/dc/elements/1.1/"
   xmlns:cc="http://creativecommons.org/ns#"
   xmlns:rdf="http://www.w3.org/1999/02/22-rdf-syntax-ns#"
   xmlns:svg="http://www.w3.org/2000/svg"
   xmlns="http://www.w3.org/2000/svg"
   xmlns:sodipodi="http://sodipodi.sourceforge.net/DTD/sodipodi-0.dtd"
   xmlns:inkscape="http://www.inkscape.org/namespaces/inkscape"
   height="512"
   viewBox="0 0 512 512"
   width="512"
   id="svg2"
   version="1.1"
   inkscape:version="0.91 r13725"
   sodipodi:docname="nitrogen.svg">
  <metadata
     id="metadata25">
    <rdf:RDF>
      <cc:Work
         rdf:about="">
        <dc:format>image/svg+xml</dc:format>
        <dc:type
           rdf:resource="http://purl.org/dc/dcmitype/StillImage" />
        <dc:title></dc:title>
      </cc:Work>
    </rdf:RDF>
  </metadata>
  <defs
     id="defs23" />
  <sodipodi:namedview
     pagecolor="#ffffff"
     bordercolor="#666666"
     borderopacity="1"
     objecttolerance="10"
     gridtolerance="10"
     guidetolerance="10"
     inkscape:pageopacity="0"
     inkscape:pageshadow="2"
     inkscape:window-width="640"
     inkscape:window-height="480"
     id="namedview21"
     showgrid="false"
     inkscape:zoom="0.40686275"
     inkscape:cx="61.517595"
     inkscape:cy="309.15705"
     inkscape:current-layer="svg2" />
  <path
     inkscape:connector-curvature="0"
     id="path3879"
     d="m 421.97713,93.727175 -20.7115,13.362265 -23.30535,-8.095959 -7.27064,23.580449 -23.03024,8.76407 9.55008,22.71584 -11.98673,21.57611 21.92983,11.24002 4.63748,24.20927 24.05207,-5.46281 19.13947,15.5631 14.89498,-19.65038 24.64158,-0.39301 -1.21833,-24.60227 18.66786,-16.15261 -16.78142,-18.07835 3.93008,-24.32716 -24.48438,-3.10476 -12.65484,-21.143815 z M 297.86534,191.97907 c -2.27265,-0.0176 -4.53424,0.9812 -6.05232,2.67245 l -72.27409,80.92026 c -4.21731,3.93322 -3.14594,4.18248 0.39301,8.17455 l 24.09136,27.19613 c 2.246,2.36546 2.04603,6.59831 -0.393,8.76407 -2.43916,2.16588 -6.64164,1.84198 -8.72477,-0.66812 L 201.89289,281.7813 169.03746,244.95649 c -1.5997,-1.78885 -4.04878,-2.8001 -6.44531,-2.67245 -2.3964,0.12777 -4.69113,1.39175 -6.09162,3.34056 L 41.545817,405.50008 c -1.730618,2.38848 -2.009873,5.74439 -0.668114,8.37106 1.341632,2.6268 4.242534,4.40382 7.19204,4.40168 l 382.671457,0 c 2.85959,0 5.65484,-1.66119 7.03484,-4.16588 1.37999,-2.50468 1.28856,-5.75501 -0.23581,-8.17455 L 304.58577,195.71264 c -1.43243,-2.2553 -4.04886,-3.7088 -6.72043,-3.73357 z"
     style="color:#000000;display:inline;overflow:visible;visibility:visible;fill:#df62a9;fill-opacity:1;fill-rule:evenodd;stroke:none;stroke-width:9.69999981;marker:none;enable-background:accumulate" />
</svg>
