<svg height="512" viewBox="0 0 512 512" width="512" xmlns="http://www.w3.org/2000/svg">
 <path d="m471.95 253.05c0 120.9-98.01 218.9-218.9 218.9-120.9 0-218.9-98.01-218.9-218.9 0-120.9 98.01-218.9 218.9-218.9 120.9 0 218.9 98.01 218.9 218.9" fill="#737373" fill-rule="evenodd"/>
 <path d="m269.47 126.25c-.715.024-1.45.082-2.188.156-35.34 0-70.66.001-106 0-20.01-.664-33.13 19.798-30.03 38.25.118 51.753-.229 103.51.188 155.25 1.236 6.967 4.469 12.779 8.688 18 43.792 43.4 89.31 89.07 133.25 133.09 102.83-9.471 185.03-90.04 197.03-192.12-31.671-31.662-65.825-65.794-97.09-97.06-3.284-2.966-6.691-5.786-10.313-8.344-14.596-4.756-29.628-8.11-44.41-12.281-15.365-12.464-26.953-35.672-49.12-34.938" fill-opacity=".235"/>
 <g fill-rule="evenodd">
  <path d="m256 1c-140.83 0-255 114.17-255 255 0 140.83 114.17 255 255 255 140.83 0 255-114.17 255-255 0-140.83-114.17-255-255-255m8.827 44.931c120.9 0 218.9 98 218.9 218.9 0 120.9-98 218.9-218.9 218.9-120.9 0-218.93-98-218.93-218.9 0-120.9 98.03-218.9 218.93-218.9" fill-opacity=".067"/>
  <g fill-opacity=".129">
   <path d="m256 4.433c-138.94 0-251.57 112.63-251.57 251.57 0 138.94 112.63 251.57 251.57 251.57 138.94 0 251.57-112.63 251.57-251.57 0-138.94-112.63-251.57-251.57-251.57m5.885 38.556c120.9 0 218.9 98 218.9 218.9 0 120.9-98 218.9-218.9 218.9-120.9 0-218.93-98-218.93-218.9 0-120.9 98.03-218.9 218.93-218.9"/>
   <path d="m256 8.356c-136.77 0-247.64 110.87-247.64 247.64 0 136.77 110.87 247.64 247.64 247.64 136.77 0 247.64-110.87 247.64-247.64 0-136.77-110.87-247.64-247.64-247.64m2.942 31.691c120.9 0 218.9 98 218.9 218.9 0 120.9-98 218.9-218.9 218.9-120.9 0-218.93-98-218.93-218.9 0-120.9 98.03-218.9 218.93-218.9"/>
  </g>
  <path d="m253.04 7.859c-135.42 0-245.19 109.78-245.19 245.19 0 135.42 109.78 245.19 245.19 245.19 135.42 0 245.19-109.78 245.19-245.19 0-135.42-109.78-245.19-245.19-245.19zm0 26.297c120.9 0 218.9 98 218.9 218.9 0 120.9-98 218.9-218.9 218.9-120.9 0-218.93-98-218.93-218.9 0-120.9 98.03-218.9 218.93-218.9z" fill="#ffffff" stroke="#000000" stroke-opacity=".31" stroke-width="4.904"/>
 </g>
 <text x="729.64" y="231.36">
  
 </text>
 <text x="1310.91" y="151.36">
  
 </text>
 <text x="239.33" y="-29.9">
  
 </text>
 <text x="1337.38" y="-246.37">
  
 </text>
 <text x="1918.65" y="-326.38">
  
 </text>
 <text x="1529.53" y="-798.78">
  
 </text>
 <text x="2110.79" y="-878.78">
  
 </text>
 <text x="277.99" y="535.94">
  
 </text>
 <path d="m161.28 126.39c-16.579 0-30.03 13.452-30.03 30.03v160.19c0 16.579 13.452 30.03 30.03 30.03h110.13c16.579 0 30.06-13.452 30.06-30.03v-160.19c0-16.579-13.483-30.03-30.06-30.03h-110.12m92.13 30.03h5.688c.621 0 1.019.135 1.219.375.2.24.361.579.531 1l9.09 27.594c.11.37.091.611.031.781-.06.17-.263.281-.594.281h-5.594c-.511 0-.861-.113-1.031-.344-.18-.21-.35-.561-.5-1.031l-1.5-5.406h-8.969l-1.625 5.531c-.15.491-.363.789-.594.969-.25.17-.559.281-1 .281h-5c-.33 0-.567-.047-.688-.188-.12-.14-.108-.448.063-.969l8.688-27.563c.15-.421.352-.758.563-.969.2-.22.608-.344 1.219-.344m57.719 2.75c-.163 132.94-.096.294 0 132.13v25.313c0 21.811-17.92 39.688-39.719 39.688h-75.5l105.56 28.28c16.01 4.291 32.521-5.204 36.813-21.22l41.44-154.72c4.291-16.01-5.236-32.49-21.25-36.781l-47.34-12.688m-54.969 4.531l-1.5 5.469-1.344 5.063h5.875l-1.375-5-1.438-5.531h-.219m-40.03 23.469h.25c0 0 43.866 30.31 43.906 53.5 0 13.866-9.276 22.657-22.531 22.688-6.858 0-13.784-4.624-17.719-8.469 0 0 3.688 17.04 10.406 29.938.871 1.672-28.635 1.723-27.844.031 6.538-13.976 10.188-29.969 10.188-29.969-3.945 3.664-11.506 8.521-17.844 8.531-13.226.01-22.574-8.779-22.594-22.625-.02-23.21 43.781-53.625 43.781-53.625m116.41 8.906c.212-.004.486.046.781.125l5.469 1.469c.6.161.963.404 1.094.688.131.284.194.644.25 1.094l1.656 29c .011.386-.085.601-.188.75-.102.149-.306.211-.625.125l-5.406-1.438c-.493-.132-.801-.327-.906-.594-.12-.25-.195-.632-.219-1.125l-.063-5.625-8.656-2.313-3 4.906c-.272.435-.575.667-.844.781-.286.1-.606.145-1.031.031l-4.813-1.313c-.319-.085-.545-.177-.625-.344-.08-.166.013-.447.313-.906l15.531-24.375c.254-.367.524-.664.781-.813.125-.081.288-.121.5-.125m1.531 7.875l-2.844 4.875-2.625 4.563 5.688 1.5-.031-5.188.031-5.719zm-170.59 82.62h5c .441 0 .76.111 1 .281.24.18.444.478.594.969l1.594 5.531h9l1.5-5.375c.15-.471.32-.842.5-1.063.17-.22.511-.344 1.031-.344h5.594c.33 0 .534.111.594.281.06.17.048.442-.063.813l-9.06 27.594c-.17.42-.331.77-.531 1-.2.24-.588.344-1.219.344h-5.688c-.601 0-1.019-.102-1.219-.313-.21-.22-.381-.548-.531-.969l-8.719-27.563c-.17-.521-.173-.829-.063-.969.11-.14.357-.219.688-.219m9.75 12.25l1.344 5.03 1.5 5.5h.219l1.469-5.531 1.344-5h-5.875" fill="#ffffff"/>
</svg>
