<svg height="512" viewBox="0 0 512 512" width="512" xmlns="http://www.w3.org/2000/svg">
 <path d="m471.95 253.05c0 120.9-98.01 218.9-218.9 218.9-120.9 0-218.9-98.01-218.9-218.9 0-120.9 98.01-218.9 218.9-218.9 120.9 0 218.9 98.01 218.9 218.9" fill="#8b8b8b" fill-rule="evenodd"/>
 <path d="m255.59 152.84l-120.56 22.16c-1.38.253-2.562 1.167-3.156 2.438l-29.19 62.44c-.941 2.01-.198 4.159 1.375 5.313.273.39.613.716 1 1 .283.404.626.742 1.031 1.031.276.381.614.724 1 1 .276.381.614.724 1 1 .265.366.571.699.938.969.263.371.602.695.969.969.279.401.633.742 1.031 1.031.283.399.63.746 1.031 1.031.273.373.621.698 1 .969.276.381.614.724 1 1 .278.383.612.723 1 1 .258.357.551.672.906.938.275.396.64.713 1.031 1 .286.408.622.772 1.031 1.063.273.373.621.698 1 .969.276.381.614.724 1 1 .276.381.614.724 1 1 .265.366.571.699.938.969.274.386.614.719 1 1 .274.386.614.719 1 1 .281.395.634.716 1.031 1 .276.381.614.724 1 1 .276.381.614.724 1 1 .265.366.571.699.938.969.274.386.614.719 1 1 .44 16.893 1.563 61.03 1.563 61.03.036 1.386.74 2.603 1.813 3.375.291.409.646.775 1.063 1.063.272.37.592.701.969.969.275.383.613.725 1 1 .272.378.617.696 1 .969.283.4.626.749 1.031 1.031.27.375.59.699.969.969.275.396.605.718 1 1 .282.406.623.747 1.031 1.031.28.396.629.722 1.031 1 .278.391.602.725 1 1 .274.385.61.728 1 1 .265.374.593.701.969.969.269.392.61.722 1 1 .276.401.629.751 1.031 1.031.274.391.635.727 1.031 1 .271.386.609.73 1 1 .264.375.591.703.969.969.275.4.628.754 1.031 1.031.269.389.608.697 1 .969.271.4.6.723 1 1 .277.409.619.752 1.031 1.031.271.394.602.729 1 1 .27.394.602.729 1 1 .264.385.582.733.969 1 .278.413.644.754 1.063 1.031.272.393.598.733 1 1 .276.397.623.733 1.031 1 .27.386.604.738 1 1 .268.386.605.738 1 1 .258.372.591.712.969.969.269.401.626.73 1.031 1 .267.399.597.732 1 1 .261.389.577.736.969 1 .261.396.603.732 1 1 .271.411.646.76 1.063 1.031.258.382.582.711.969.969.261.401.599.732 1 1 .268.41.617.762 1.031 1.031.264.397.597.738 1 1 .283.425.652.795 1.094 1.063.274.388.589.751 1 1 .272.385.592.753 1 1 .272.391.588.75 1 1 .253.364.561.664.938.906.277.429.621.795 1.063 1.063.25.369.561.692.938.938.255.4.599.739 1 1 .26.409.617.769 1.031 1.031.255.399.598.711 1 .969.254.406.594.739 1 1 .253.403.596.741 1 1 .266.424.629.8 1.063 1.063.261.395.59.752 1 1 .259.394.592.753 1 1 .258.398.59.752 1 1 .257.401.588.751 1 1 .256.398.591.752 1 1 .254.397.593.722 1 .969.254.403.588.751 1 1 .252.406.587.75 1 1 .252.412.582.747 1 1 .25.409.585.749 1 1 .249.413.614.748 1.031 1 .246.404.591.753 1 1 .245.401.594.754 1 1 .243.403.593.753 1 1 .242.41.588.751 1 1 .241.407.591.753 1 1 .246.416.61.784 1.031 1.031.243.403.589.759 1 1 .247.41.611.76 1.031 1 .239.391.568.735.969.969.239.419.579.754 1 1 .238.417.581.755 1 1 .245.429.626.756 1.063 1 .243.42.571.761 1 1 .241.419.572.762 1 1 .235.407.555.764.969 1 .24.431.594.791 1.031 1.031.232.406.588.735 1 .969.23.415.582.763 1 1 .235.424.6.796 1.031 1.031.233.41.581.771 1 1 .229.402.59.742 1 .969.222.412.557.735.969.969.226.438.593.792 1.031 1.031.225.422.575.768 1 1 .227.426.599.77 1.031 1 .225.422.572.773 1 1 .223.422.573.773 1 1 .221.425.571.772 1 1 .226.442.581.804 1.031 1.031.224.423.567.749 1 .969.221.432.561.777 1 1 .219.428.565.779 1 1 .222.441.58.812 1.031 1.031.221.432.557.785 1 1 .214.42.572.755 1 .969.216.437.585.785 1.031 1 .214.438.554.785 1 1 .209.428.536.787.969 1 .21.438.586.788 1.031 1 .206.445.551.786 1 1 .204.44.555.788 1 1 .206.444.579.792 1.031 1 .204.437.554.795 1 1 .2.442.552.794 1 1 .2.441.551.829 1 1.031.198.431.561.769 1 .969.193.44.556.798 1 1 .193.452.574.8 1.031 1 .191.446.547.803 1 1 .189.441.552.805 1 1 .195.457.56.845 1.031 1.031.193.45.535.816 1 1 .191.445.541.818 1 1 .026.017.036.046.063.063.196.404.51.737.938.906.012.008.019.023.031.031.184.444.513.788.969.969.017.012.014.051.031.063.146.338.402.621.719.813.109.094.22.175.344.25.147.305.365.573.656.75.11.094.219.174.344.25.145.301.368.576.656.75.111.095.218.205.344.281.143.295.374.548.656.719.134.117.25.224.406.313.007.012.024.019.031.031.071.128.149.238.25.344.005.007-.005.025 0 .031.098.1.191.208.313.281.117.102.24.2.375.281.002.005.029-.005.031 0 .016.029.014.065.031.094.067.117.157.215.25.313.005.007-.006.025 0 .031.097.099.192.209.313.281.129.112.257.257.406.344.007.012.024.019.031.031.063.109.133.221.219.313.213.263.483.486.781.656.035.061.054.13.094.188.032.044.058.084.094.125.222.288.492.536.813.719.039.066.081.125.125.188.024.031.037.065.063.094.223.289.492.535.813.719.235.398.569.727.969.969.238.418.585.78 1 1.031.24.415.586.749 1 1 .241.418.583.779 1 1.031.242.411.588.751 1 1 .244.414.585.78 1 1.031.245.407.62.751 1.031 1 .239.392.576.723.969.969.25.433.599.801 1.031 1.063.098.16.221.3.344.438 107.87-8.07 193.97-94.31 201.78-202.25-.093-.144-.16-.245-.188-.25-.015-.032-.19-.083-.438-.156-.269-.476-.477-.834-.531-.844-.016-.034-.202-.078-.469-.156-.262-.463-.447-.803-.5-.813-.016-.034-.203-.109-.469-.188-.256-.453-.48-.803-.531-.813-.016-.034-.185-.08-.438-.156-.264-.471-.479-.803-.531-.813-.017-.035-.197-.107-.469-.188-.259-.461-.45-.772-.5-.781-.017-.036-.2-.107-.469-.188-.26-.465-.481-.803-.531-.813-.017-.035-.182-.11-.438-.188-.259-.464-.482-.772-.531-.781-.017-.036-.205-.107-.469-.188-.259-.465-.452-.804-.5-.813-.018-.038-.216-.102-.5-.188-.25-.45-.453-.773-.5-.781-.018-.038-.192-.103-.469-.188-.256-.463-.453-.804-.5-.813-.019-.04-.208-.099-.5-.188-.25-.451-.423-.773-.469-.781-.019-.041-.209-.13-.5-.219-.249-.451-.455-.773-.5-.781-.019-.041-.183-.099-.469-.188-.25-.454-.456-.773-.5-.781-.021-.044-.206-.12-.531-.219-.241-.437-.395-.773-.438-.781-.019-.041-.22-.1-.5-.188-.25-.458-.457-.773-.5-.781-.02-.043-.202-.126-.5-.219-.241-.441-.428-.742-.469-.75-.021-.045-.217-.122-.531-.219-.241-.442-.397-.774-.438-.781-.021-.045-.223-.123-.531-.219-.242-.444-.429-.743-.469-.75-.021-.046-.196-.123-.5-.219-.243-.447-.429-.774-.469-.781-.023-.048-.203-.116-.531-.219-.237-.436-.399-.743-.438-.75-.023-.049-.207-.148-.531-.25-.236-.436-.431-.743-.469-.75-.022-.047-.207-.093-.5-.188-.244-.453-.431-.774-.469-.781-.024-.051-.224-.143-.563-.25-.229-.423-.371-.743-.406-.75-.023-.05-.218-.118-.531-.219-.239-.446-.433-.743-.469-.75-.024-.052-.201-.144-.531-.25-.231-.429-.403-.744-.438-.75-.025-.054-.223-.11-.563-.219-.231-.431-.372-.744-.406-.75-.025-.054-.228-.142-.563-.25-.231-.433-.404-.713-.438-.719-.025-.054-.201-.142-.531-.25-.232-.436-.404-.744-.438-.75-.026-.055-.236-.142-.563-.25-.231-.435-.374-.713-.406-.719-.026-.055-.24-.143-.563-.25-.232-.438-.406-.744-.438-.75-.026-.056-.213-.112-.531-.219-.233-.441-.406-.744-.438-.75-.027-.058-.232-.171-.563-.281-.227-.43-.376-.713-.406-.719-.027-.058-.236-.14-.563-.25-.228-.433-.408-.713-.438-.719-.028-.06-.227-.168-.563-.281-.219-.417-.378-.713-.406-.719-.028-.06-.231-.137-.563-.25-.228-.435-.377-.713-.406-.719-.029-.061-.266-.168-.594-.281-.22-.42-.379-.682-.406-.688v-.031c-.029-.062-.239-.137-.563-.25-.221-.423-.379-.714-.406-.719-.03-.063-.261-.165-.594-.281-.221-.423-.348-.683-.375-.688-.03-.064-.266-.166-.594-.281-.222-.426-.38-.714-.406-.719-.03-.064-.239-.135-.563-.25-.223-.429-.381-.714-.406-.719-.031-.067-.257-.193-.594-.313-.217-.418-.35-.683-.375-.688-.032-.067-.261-.162-.594-.281-.218-.421-.382-.683-.406-.688-.032-.068-.264-.193-.594-.313-.209-.405-.352-.683-.375-.688-.032-.069-.267-.162-.594-.281-.218-.424-.352-.683-.375-.688-.033-.071-.29-.19-.625-.313-.088-.163-.361-.685-.375-.688-.034-.073-.279-.155-.625-.281-.086-.16-.33-.685-.344-.688-.035-.074-.284-.186-.625-.313-.081-.15-.331-.654-.344-.656v-.031c-.036-.077-.303-.182-.656-.313-.079-.145-.332-.654-.344-.656-.036-.078-.274-.213-.625-.344-.074-.136-.332-.623-.344-.625-.036-.077-.292-.217-.625-.344-.078-.145-.332-.654-.344-.656-.037-.08-.312-.181-.656-.313-.077-.144-.333-.654-.344-.656-.038-.08-.286-.213-.625-.344-.076-.142-.333-.654-.344-.656-.039-.083-.306-.177-.656-.313-.073-.138-.302-.654-.313-.656-.039-.084-.312-.209-.656-.344-.074-.139-.334-.654-.344-.656-.041-.088-.293-.202-.656-.344-.067-.126-.303-.623-.313-.625-.041-.088-.301-.235-.656-.375-.066-.124-.304-.623-.313-.625-.042-.09-.334-.203-.688-.344-.065-.123-.304-.623-.313-.625-.043-.091-.305-.233-.656-.375-.061-.115-.304-.592-.313-.594-.043-.092-.313-.234-.656-.375-.065-.123-.304-.624-.313-.625-.046-.099-.342-.223-.719-.375-.057-.109-.274-.592-.281-.594-.047-.1-.317-.254-.688-.406-.056-.107-.274-.592-.281-.594-.049-.104-.334-.217-.719-.375-.056-.106-.274-.593-.281-.594-.048-.102-.293-.253-.656-.406-.057-.109-.306-.593-.313-.594-.05-.107-.313-.248-.688-.406-.051-.098-.275-.561-.281-.563-.052-.111-.334-.274-.719-.438-.05-.095-.275-.561-.281-.563-.053-.113-.3-.272-.688-.438-.047-.089-.276-.53-.281-.531-.053-.114-.314-.274-.688-.438-.05-.096-.276-.562-.281-.563-.055-.117-.34-.239-.719-.406-.049-.096-.276-.562-.281-.563-.058-.124-.316-.292-.719-.469-.04-.077-.246-.499-.25-.5-.058-.125-.329-.293-.719-.469-.014-.026-.248-.531-.25-.531-.062-.132-.337-.284-.75-.469-.013-.023-.248-.5-.25-.5-.062-.133-.32-.317-.719-.5-.013-.023-.248-.5-.25-.5-.067-.142-.323-.305-.75-.5-.011-.02-.217-.468-.219-.469-.068-.145-.358-.335-.781-.531-.011-.02-.217-.468-.219-.469-.07-.15-.327-.332-.75-.531-.01-.018-.217-.437-.219-.438-.071-.151-.343-.334-.75-.531-.01-.019-.217-.468-.219-.469-.074-.159-.391-.357-.813-.563-.008-.015-.186-.406-.188-.406-.075-.16-.346-.359-.75-.563-.009-.017-.217-.437-.219-.438-.076-.161-.362-.329-.75-.531-.009-.017-.218-.437-.219-.438-.081-.173-.4-.379-.813-.594-.007-.013-.187-.375-.188-.375-.082-.176-.384-.38-.781-.594-.007-.014-.187-.406-.188-.406-.088-.187-.401-.401-.813-.625-.002-.004-.156-.344-.156-.344-.091-.195-.432-.427-.844-.656-.002-.004-.156-.344-.156-.344-.096-.204-.401-.421-.813-.656-.002-.003-.156-.312-.156-.313-.098-.209-.418-.452-.813-.688-.002-.003-.156-.312-.156-.313-.107-.229-.456-.466-.875-.719-.001-.002-.125-.25-.125-.25-.112-.239-.434-.492-.844-.75-.001-.002-.125-.25-.125-.25-.122-.262-.449-.538-.875-.813 0-.001-.094-.156-.094-.156-.141-.301-.497-.602-.969-.906 0 0-.031-.094-.031-.094-.153-.327-.499-.651-.969-.969-.172-.368-.548-.723-1.031-1.063-.207-.382-.584-.762-1.031-1.094-.252-.442-.632-.839-1.094-1.188-.641-1.059-1.708-1.805-2.938-2.031l-120.56-22.16.906 2.031-1.281.219.563-1.25-1.563.281.563-1.281m1.844 2.313l.344.813-.75.125zm.719 1.594l.125.281-.281.063z" fill-opacity=".235"/>
 <g fill-rule="evenodd">
  <path d="m256 1c-140.83 0-255 114.17-255 255 0 140.83 114.17 255 255 255 140.83 0 255-114.17 255-255 0-140.83-114.17-255-255-255m8.827 44.931c120.9 0 218.9 98 218.9 218.9 0 120.9-98 218.9-218.9 218.9-120.9 0-218.93-98-218.93-218.9 0-120.9 98.03-218.9 218.93-218.9" fill-opacity=".067"/>
  <g fill-opacity=".129">
   <path d="m256 4.433c-138.94 0-251.57 112.63-251.57 251.57 0 138.94 112.63 251.57 251.57 251.57 138.94 0 251.57-112.63 251.57-251.57 0-138.94-112.63-251.57-251.57-251.57m5.885 38.556c120.9 0 218.9 98 218.9 218.9 0 120.9-98 218.9-218.9 218.9-120.9 0-218.93-98-218.93-218.9 0-120.9 98.03-218.9 218.93-218.9"/>
   <path d="m256 8.356c-136.77 0-247.64 110.87-247.64 247.64 0 136.77 110.87 247.64 247.64 247.64 136.77 0 247.64-110.87 247.64-247.64 0-136.77-110.87-247.64-247.64-247.64m2.942 31.691c120.9 0 218.9 98 218.9 218.9 0 120.9-98 218.9-218.9 218.9-120.9 0-218.93-98-218.93-218.9 0-120.9 98.03-218.9 218.93-218.9"/>
  </g>
  <path d="m253.04 7.859c-135.42 0-245.19 109.78-245.19 245.19 0 135.42 109.78 245.19 245.19 245.19 135.42 0 245.19-109.78 245.19-245.19 0-135.42-109.78-245.19-245.19-245.19zm0 26.297c120.9 0 218.9 98 218.9 218.9 0 120.9-98 218.9-218.9 218.9-120.9 0-218.93-98-218.93-218.9 0-120.9 98.03-218.9 218.93-218.9z" fill="#ffffff" stroke="#000000" stroke-opacity=".31" stroke-width="4.904"/>
 </g>
 <text x="729.64" y="231.36">
  
 </text>
 <text x="1310.91" y="151.36">
  
 </text>
 <text x="239.33" y="-29.9">
  
 </text>
 <text x="1337.38" y="-246.37">
  
 </text>
 <text x="1918.65" y="-326.38">
  
 </text>
 <text x="1529.53" y="-798.78">
  
 </text>
 <text x="2110.79" y="-878.78">
  
 </text>
 <text x="277.99" y="535.94">
  
 </text>
 <path d="m247.48 198.57l-18.2 44.2c-.617 1.499-2.02 2.529-3.633 2.671l-93.09 8.18c-2.284.201-4.02 2.143-3.958 4.435l1.893 73.07c.052 2.01 1.477 3.72 3.445 4.134l109.59 23.05c2.679.563 5.403.843 8.126.836l.002-21.672v-138.08c0-6.03-1.88-6.404-4.176-.826m-12.744 136.27l-41.14-6.625v-21.565h41.14zm-17.99-99.91l-109.71 11.09c-3.352.339-5.794-3.105-4.366-6.156l29.21-62.44c.594-1.271 1.767-2.176 3.146-2.429l120.55-22.14-35.3 79.53c-.632 1.424-1.979 2.4-3.53 2.556m162.69 18.685l-93.09-8.18c-1.615-.142-3.02-1.172-3.633-2.671l-18.201-44.2c-2.297-5.578-4.176-5.206-4.176.826v138.08l.002 21.672c2.723.007 5.446-.273 8.126-.836l109.59-23.05c1.967-.414 3.392-2.125 3.445-4.134l1.893-73.07c.059-2.291-1.675-4.234-3.958-4.434m-38.31 39.03l-5.142.143-.104 32.36c-.005 1.425-1.452 2.788-3.253 3.047l-8.427 1.212c-1.925.277-3.5-.71-3.497-2.206l.079-33.99-5.881.163c-2.86.079-4.669-2.214-3.213-4.111l13.986-18.226c1.325-1.727 4.577-1.568 5.854.252l12.276 17.498c1.164 1.659-.307 3.794-2.68 3.86m63.831-46.631l-109.71-11.09c-1.551-.156-2.898-1.132-3.53-2.556l-35.3-79.53 120.55 22.14c1.38.253 2.552 1.158 3.146 2.429l29.21 62.44c1.428 3.051-1.015 6.495-4.367 6.156" fill="#ffffff"/>
</svg>
