<svg height="512" viewBox="0 0 512 512" width="512" xmlns="http://www.w3.org/2000/svg">
 <path d="m471.95 253.05c0 120.9-98.01 218.9-218.9 218.9-120.9 0-218.9-98.01-218.9-218.9 0-120.9 98.01-218.9 218.9-218.9 120.9 0 218.9 98.01 218.9 218.9" fill="#8b8b8b" fill-rule="evenodd"/>
 <path d="m224.7329 93.765794c-76.872 0-139.279996 62.380006-139.279996 139.250006 0 38.38 15.558996 73.1 40.706996 98.25l139.43 139.43c114.72-6.847 205.66-102.04 205.66-218.49 0-5.306-.197-10.566-.568-15.777l-103.23-103.23h-2.313-23.12-2.281v2.281 15.813l-18-18c-25.06-24.43601-59.2-39.531006-96.97-39.531006h-.031" opacity=".25"/>
 <g fill-rule="evenodd">
  <path d="m256 1c-140.83 0-255 114.17-255 255 0 140.83 114.17 255 255 255 140.83 0 255-114.17 255-255 0-140.83-114.17-255-255-255m8.827 44.931c120.9 0 218.9 98 218.9 218.9 0 120.9-98 218.9-218.9 218.9-120.9 0-218.93-98-218.93-218.9 0-120.9 98.03-218.9 218.93-218.9" fill-opacity=".067"/>
  <g fill-opacity=".129">
   <path d="m256 4.433c-138.94 0-251.57 112.63-251.57 251.57 0 138.94 112.63 251.57 251.57 251.57 138.94 0 251.57-112.63 251.57-251.57 0-138.94-112.63-251.57-251.57-251.57m5.885 38.556c120.9 0 218.9 98 218.9 218.9 0 120.9-98 218.9-218.9 218.9-120.9 0-218.93-98-218.93-218.9 0-120.9 98.03-218.9 218.93-218.9"/>
   <path d="m256 8.356c-136.77 0-247.64 110.87-247.64 247.64 0 136.77 110.87 247.64 247.64 247.64 136.77 0 247.64-110.87 247.64-247.64 0-136.77-110.87-247.64-247.64-247.64m2.942 31.691c120.9 0 218.9 98 218.9 218.9 0 120.9-98 218.9-218.9 218.9-120.9 0-218.93-98-218.93-218.9 0-120.9 98.03-218.9 218.93-218.9"/>
  </g>
  <path d="m253.04 7.859c-135.42 0-245.19 109.78-245.19 245.19 0 135.42 109.78 245.19 245.19 245.19 135.42 0 245.19-109.78 245.19-245.19 0-135.42-109.78-245.19-245.19-245.19zm0 26.297c120.9 0 218.9 98 218.9 218.9 0 120.9-98 218.9-218.9 218.9-120.9 0-218.93-98-218.93-218.9 0-120.9 98.03-218.9 218.93-218.9z" fill="#ffffff" stroke="#000000" stroke-opacity=".31" stroke-width="4.904"/>
 </g>
 <text x="729.64" y="231.36">
  
 </text>
 <text x="1310.91" y="151.36">
  
 </text>
 <text x="239.33" y="-29.9">
  
 </text>
 <text x="1337.38" y="-246.37">
  
 </text>
 <text x="1918.65" y="-326.38">
  
 </text>
 <text x="1529.53" y="-798.78">
  
 </text>
 <text x="2110.79" y="-878.78">
  
 </text>
 <text x="277.99" y="535.94">
  
 </text>
 <path d="m224.7329 93.765794c-76.872 0-139.279996 62.380006-139.279996 139.250006 0 76.871 62.409996 139.06 139.279996 139.06 3.735 0 7.434-.176 11.09-.469 6.998-39.3 46.812-67.3 85.91-66.12v-172.19c-25.06-24.43601-59.2-39.531006-96.97-39.531006h-.031m-.063 16.089996c6.944.003 13.884.624 20.719 1.781l-5.906 72.93801c-2.709-.826-5.452-1.331-8.25-1.688l-9.563-73.00001c.991-.025 2.01-.031 3-.031m40.781 7.406c20.491 7.225 38.459 19.80001 52.31001 35.96901l-51.16001 52.31c-5.05-7.707-12.253-13.948-20.656-17.906l19.5-70.37001m74.28 15.93801v2.281 191.13c-12.91399-4.229-28.473-4.402-44.06 1.438-15.04 5.637-27.04 15.369-34.375 26.594-7.336 11.225-9.93 24.08-5.781 35.813 4.15 11.74 14.19 19.969 26.844 23.719 12.654 3.75 27.901 3.168 42.93801-2.469 25.48699-9.552 42.49699-30.752 42.15999-51.44-.001-.047 0-.109 0-.156v-155.28c17.321 3.972 26.797 16.861 31.5 31.344 4.958 15.263 4.43 31.981 2.313 38.438-.547 1.666-.798 3.289-.594 4.781.204 1.492.884 3.197 2.625 3.875 1.74.678 3.572-.001 5.03-1.156 1.464-1.156 2.86-2.923 4.469-5.5 11.08-17.76 13.938-33.364 11.594-47.22-2.344-13.85-9.678-25.907-18.219-36.719-8.541-10.812-18.445-20.48-26-29.875-7.556-9.395-12.719-18.256-12.719-27.313v-2.281h-2.313-23.12-2.281m-115 76.81c12.668 0 22.844 10.332 22.844 23 0 12.668-10.175 22.813-22.844 22.813-12.668 0-22.969-10.143-22.969-22.813 0-12.668 10.301-23 22.969-23m-31.625 61.688c7.207 5.86 15.865 9.596 25 10.813l-25 68.906c-20.573-5.488-39.677-16.284-55.06-31.625l55.06-48.09" fill="#ffffff"/>
</svg>
