<svg height="512" viewBox="0 0 512 512" width="512" xmlns="http://www.w3.org/2000/svg">
 <path d="m471.95 253.05c0 120.9-98.01 218.9-218.9 218.9-120.9 0-218.9-98.01-218.9-218.9 0-120.9 98.01-218.9 218.9-218.9 120.9 0 218.9 98.01 218.9 218.9" fill="#b9bbc0" fill-rule="evenodd"/>
 <path d="m256 1c-140.83 0-255 114.17-255 255 0 140.83 114.17 255 255 255 140.83 0 255-114.17 255-255 0-140.83-114.17-255-255-255m8.827 44.931c120.9 0 218.9 98 218.9 218.9 0 120.9-98 218.9-218.9 218.9-120.9 0-218.93-98-218.93-218.9 0-120.9 98.03-218.9 218.93-218.9" fill-opacity=".067" fill-rule="evenodd"/>
 <path d="m385.12176 124.83773l-50.12659 2.69448-34.17299.42647-161.92509 2.9976-4.89014 33.68289 1.71544 19.82012c-1.68175 12.95727 5.88054 17.54539 2.04265 21.41011.91679 70.06656-7.19691 124.9274-10.99309 177.8974l161.34861 92.08858c99.69764 4.21204 228.60412-148.32093 183.9777-285.88174" opacity=".25"/>
 <g fill-opacity=".129" fill-rule="evenodd">
  <path d="m256 4.433c-138.94 0-251.57 112.63-251.57 251.57 0 138.94 112.63 251.57 251.57 251.57 138.94 0 251.57-112.63 251.57-251.57 0-138.94-112.63-251.57-251.57-251.57m5.885 38.556c120.9 0 218.9 98 218.9 218.9 0 120.9-98 218.9-218.9 218.9-120.9 0-218.93-98-218.93-218.9 0-120.9 98.03-218.9 218.93-218.9"/>
  <path d="m256 8.356c-136.77 0-247.64 110.87-247.64 247.64 0 136.77 110.87 247.64 247.64 247.64 136.77 0 247.64-110.87 247.64-247.64 0-136.77-110.87-247.64-247.64-247.64m2.942 31.691c120.9 0 218.9 98 218.9 218.9 0 120.9-98 218.9-218.9 218.9-120.9 0-218.93-98-218.93-218.9 0-120.9 98.03-218.9 218.93-218.9"/>
 </g>
 <path d="m253.04 7.859c-135.42 0-245.19 109.78-245.19 245.19 0 135.42 109.78 245.19 245.19 245.19 135.42 0 245.19-109.78 245.19-245.19 0-135.42-109.78-245.19-245.19-245.19zm0 26.297c120.9 0 218.9 98 218.9 218.9 0 120.9-98 218.9-218.9 218.9-120.9 0-218.93-98-218.93-218.9 0-120.9 98.03-218.9 218.93-218.9z" fill="#ffffff" fill-rule="evenodd" stroke="#000000" stroke-opacity=".31" stroke-width="4.904"/>
 <g fill="#ffffff" fill-rule="evenodd" stroke="#ffffff" stroke-linejoin="round" stroke-width="5.258" transform="matrix(8.8659051 0 0 8.8678534 89.743183 92.537342)">
  <path d="m30.711 148.18c21.702029-.29813 36.229411-28.18097 47.331005-26.62689 8.485516 1.18786 15.183671 32.20264 20.278764 30.62962 11.763001-3.658 27.150231-24.37073 27.150231-24.37073l44 89.84h-138.76z" transform="scale(.14844)"/>
  <path d="m157.29 182.08c0 0-19.763 10.974-25.447 13.737-7.868 3.816-21.421 14.11-45.16 21.474h-55.632v-43.895c32.13-1 55.29-2 69.68-8.03 14.368-6.03 41.474-20.08 41.474-20.08z" transform="scale(.14844)"/>
  <path d="m132.53 142.18c20.842-20.895 14.789-27.16 35.947-28.974 3.10111-.26614 20.2845-64.925302 22.43813-62.057277 14.07155 18.739342 34.37787 76.137277 34.37787 76.137277v90.32h-55.816z" transform="scale(.14844)"/>
 </g>
 <path d="m34.395 32.03h187.21c1.316 0 2.368 1.053 2.368 2.368v187.21c0 1.316-1.053 2.368-2.368 2.368h-187.21c-1.316 0-2.368-1.053-2.368-2.368v-187.21c0-1.316 1.053-2.368 2.368-2.368z" fill="none" stroke="#ffffff" stroke-linecap="round" stroke-width="10.664" transform="matrix(1.29803722 0 0 1.29802766 92.049453 88.325451)"/>
</svg>
