<svg height="512" viewBox="0 0 512 512" width="512" xmlns="http://www.w3.org/2000/svg">
 <path d="m471.95 253.05c0 120.9-98.01 218.9-218.9 218.9-120.9 0-218.9-98.01-218.9-218.9 0-120.9 98.01-218.9 218.9-218.9 120.9 0 218.9 98.01 218.9 218.9" fill="#8e8e8e" fill-rule="evenodd"/>
 <path d="m145.5 139.19v28.563h-.375v-1h-1v-1h-1v-1h-1v-1h-1v-1h-.969v-.969h-1v-1h-1v-.188-.813h-1v-1h-6.875v30.31h-.125v-1h-1v-1h-1v-1h-1v-1h-1v-1h-.969v-.969h-1v-1h-1v-.188-.813h-1v-1h-7.594v170.19c.33.025.669.038 1 .063v.094.844c.33.025.669.038 1 .063v.938c.331.025.669.038 1 .063v.938c.32.024.648.039.969.063v.906c.33.025.669.038 1 .063v.938c.329.025.67.038 1 .063v.938c.33.025.669.038 1 .063v.938c.33.025.669.038 1 .063v.938c.331.025.668.038 1 .063v.938c.32.024.648.039.969.063v.906c.33.025.669.038 1 .063v.938c.329.025.67.038 1 .063v.938c.33.025.669.038 1 .063v.938c.33.025.669.038 1 .063v.938c.331.025.668.038 1 .063v.938c.32.024.648.039.969.063v.906c.33.025.669.038 1 .063v.938c.33.025.67.038 1 .063v.938c.33.025.669.038 1 .063v.938c.33.025.669.038 1 .063v.938c.33.025.669.038 1 .063v.938c.32.024.648.039.969.063v.906c.329.025.67.038 1 .063v.938c.33.025.669.038 1 .063v.938c.329.025.67.038 1 .063v.938c.33.025.669.038 1 .063v.938c.33.025.669.038 1 .063v.938c.331.025.668.038 1 .063v.938c.32.024.648.039.969.063v.906c.33.025.669.038 1 .063v.938c.329.025.67.038 1 .063v.938c.33.025.669.038 1 .063v.938c.33.025.669.038 1 .063v.938c.331.025.668.038 1 .063v.938c.32.024.648.039.969.063v.906c.33.025.669.038 1 .063v.938c.329.025.67.038 1 .063v.938c.33.025.669.038 1 .063v.938c.33.025.669.038 1 .063v.938c.331.025.668.038 1 .063v.938c.32.024.647.039.969.063v.906c.33.025.669.038 1 .063v.938c.329.025.669.038 1 .063v.938c.329.025.67.038 1 .063v.938c.33.025.669.038 1 .063v.938c.33.025.669.038 1 .063v.938c.331.025.668.038 1 .063v.938c.32.024.648.039.969.063v.906c.33.025.669.038 1 .063v.938c.329.025.67.038 1 .063v.938c.33.025.669.038 1 .063v.938c.33.025.669.038 1 .063v.938c.331.025.668.038 1 .063v.938c.32.024.648.039.969.063v.906c.33.025.669.038 1 .063v.938c.329.025.67.038 1 .063v.938c.33.025.668.038 1 .063v.938c.33.025.669.038 1 .063v.938c.331.025.668.038 1 .063v.938c.32.024.647.039.969.063v.906c.33.025.669.038 1 .063v.938c.329.025.669.038 1 .063v.938c.331.025.668.038 1 .063v.938c.33.025.669.038 1 .063v.938c.329.025.669.038 1 .063v.938c.32.025.647.039.969.063v.906c.328.025.671.038 1 .063v.938c.329.025.669.038 1 .063v.938c.329.025.67.038 1 .063v.938c.33.025.669.038 1 .063v.938c.33.025.669.038 1 .063v.938c.331.025.668.038 1 .063v.938c.32.024.647.039.969.063v.906c.33.025.669.038 1 .063v.938c.329.025.67.038 1 .063v.938c.33.025.668.038 1 .063v.938c.33.025.669.038 1 .063v.938c.331.025.668.038 1 .063v.938c.32.024.647.039.969.063v.906c.33.025.669.038 1 .063v.938c.329.025.67.038 1 .063v.938c.331.025.668.038 1 .063v.938c.33.025.669.038 1 .063v.938c.331.025.667.038 1 .063v.938c.32.025.647.039.969.063v.906c.33.025.669.038 1 .063v.938c.329.025.669.038 1 .063v.938c.329.025.67.038 1 .063v.938c.33.025.668.038 1 .063v.938c.329.025.669.038 1 .063v.938c.331.025.668.038 1 .063v.938c.32.024.647.039.969.063v.906c.329.025.669.038 1 .063v.938c.329.025.67.038 1 .063v.938c.33.025.668.038 1 .063v.938c.33.025.669.038 1 .063v.938c.331.025.667.038 1 .063v.938c.32.024.647.039.969.063v.906c.329.025.669.038 1 .063v.938c.329.025.67.038 1 .063v.938c.331.025.668.038 1 .063v.938c.33.025.669.038 1 .063v.938c.331.025.667.038 1 .063v.938c.32.025.647.039.969.063v.906c.33.025.669.038 1 .063v.938c.329.025.669.039 1 .063v.938c.331.025.668.038 1 .063v.938c.33.025.668.039 1 .063v.938c.332.025.666.038 1 .063v.938c.321.025.646.039.969.063v.906c.327.025.671.039 1 .063v.938c.329.025.669.039 1 .063v.938c.328.025.67.039 1 .063v.938c.33.025.668.039 1 .063v.938c.329.025.669.039 1 .063v.938c.331.025.667.039 1 .063v.938c.32.024.647.039.969.063v.906c.329.025.669.039 1 .063v.938c.328.025.67.039 1 .063v.938c.328.025.671.039 1 .063v.938c.328.025.67.039 1 .063v.938c.329.025.669.039 1 .063v.5c5.621.433 11.3.688 17.03.688 120.9 0 218.91-98.01 218.91-218.91 0-2.812-.051-5.62-.156-8.406-.271.017-.542.042-.813.063v-1.063c-.334.025-.667.069-1 .094v-1.094c-.323.025-.646.038-.969.063v-1.031c-.333.025-.667.038-1 .063v-1.063c-.333.025-.667.038-1 .063v-1.063c-.334.025-.666.038-1 .063v-1.063c-.334.025-.666.038-1 .063v-1.063c-.334.025-.666.038-1 .063v-1.063c-.324.025-.645.038-.969.063v-1.031c-.333.025-.667.038-1 .063v-1.063c-.333.025-.667.038-1 .063v-1.063c-.333.025-.667.038-1 .063v-1.063c-.333.025-.667.038-1 .063v-1.063c-.334.025-.666.038-1 .063v-1.063c-.323.025-.646.038-.969.063v-1.031c-.333.025-.668.038-1 .063v-1.063c-.333.025-.667.038-1 .063v-1.063c-.333.025-.667.038-1 .063v-1.063c-.333.025-.667.038-1 .063v-1.063c-.333.025-.667.038-1 .063v-1.063c-.333.025-.667.038-1 .063v-1.063c-.323.025-.646.038-.969.063v-1.031c-.332.025-.668.038-1 .063v-1.063c-.332.025-.668.038-1 .063v-1.063c-.333.025-.667.038-1 .063v-1.063c-.333.025-.667.038-1 .063v-1.063c-.333.025-.667.038-1 .063v-1.063c-.323.025-.646.038-.969.063v-1.031c-.332.025-.668.038-1 .063v-1.063c-.332.025-.668.038-1 .063v-1.063c-.332.025-.668.038-1 .063v-1.063c-.334.025-.666.037-1 .063v-1.063c-.334.025-.666.037-1 .063v-1.063c-.324.025-.645.038-.969.063v-1.031c-.333.025-.667.038-1 .063v-1.063c-.333.025-.667.038-1 .063v-1.063c-.333.025-.667.037-1 .063v-1.063c-.333.025-.667.037-1 .063v-1.063c-.334.025-.666.037-1 .063v-1.063c-.334.025-.666.037-1 .063v-1.063c-.323.025-.645.038-.969.063v-1.031c-.333.025-.667.038-1 .063v-1.063c-.333.025-.667.038-1 .063v-1.063c-.333.025-.667.037-1 .063v-1.063c-.333.025-.667.037-1 .063v-1.063c-.333.025-.667.037-1 .063v-1.063c-.323.025-.646.038-.969.063v-1.031c-.333.025-.667.038-1 .063v-1.063c-.333.025-.667.038-1 .063v-1.063c-.333.025-.667.037-1 .063v-1.063c-.333.025-.667.037-1 .063v-1.063c-.333.025-.667.037-1 .063v-1.063c-.323.025-.646.038-.969.063v-1.031c-.332.025-.668.038-1 .063v-1.063c-.332.025-.668.038-1 .063v-1.063c-.333.025-.667.037-1 .063v-1.063c-.333.025-.667.037-1 .063v-1.063c-.333.025-.667.037-1 .063v-1.063c-.323.025-.646.038-.969.063v-1.031c-.333.025-.667.037-1 .063v-1.063c-.333.025-.667.037-1 .063v-1.063c-.333.025-.667.037-1 .063v-1.063c-.333.025-.667.037-1 .063v-1.063c-.334.025-.666.037-1 .063v-1.063c-.334.025-.666.037-1 .063v-1.063c-.323.025-.645.038-.969.063v-1.031c-.333.025-.667.037-1 .063v-1.063c-.333.025-.667.037-1 .063v-1.063c-.333.025-.667.037-1 .063v-1.063c-.333.025-.667.037-1 .063v-1.063c-.333.025-.667.037-1 .063v-1.063c-.323.025-.646.038-.969.063v-1.031c-.333.025-.667.037-1 .063v-1.063c-.333.025-.667.037-1 .063v-1.063c-.333.025-.667.037-1 .063v-1.063c-.333.025-.667.037-1 .063v-1.063c-.333.025-.667.037-1 .063v-1.063c-.323.025-.646.038-.969.063v-1.031c-.333.025-.668.037-1 .063v-1.063c-.333.025-.667.037-1 .063v-1.063c-.333.025-.667.037-1 .063v-1.063c-.333.025-.667.037-1 .063v-1.063c-.333.025-.667.037-1 .063v-1.063c-.333.025-.667.037-1 .063v-1.063c-.323.025-.646.038-.969.063v-1.031c-.332.025-.668.037-1 .063v-1.063c-.332.025-.668.037-1 .063v-1.063c-.333.025-.667.037-1 .063v-1.063c-.334.025-.666.037-1 .063v-1.063c-.334.025-.666.037-1 .063v-1.063c-.323.025-.645.038-.969.063v-1.031c-.333.025-.667.037-1 .063v-1.063c-.333.025-.667.037-1 .063v-1.063c-.333.025-.667.037-1 .063v-1.063c-.333.025-.667.037-1 .063v-1.063c-.333.025-.667.037-1 .063v-1.063c-.323.025-.646.038-.969.063v-1.031c-.333.025-.667.037-1 .063v-1.063c-.333.025-.667.037-1 .063v-1.063c-.333.025-.667.037-1 .063v-1.063c-.333.025-.667.037-1 .063v-1.063c-.333.025-.667.037-1 .063v-1.063c-.323.025-.646.038-.969.063v-1.031c-.333.025-.667.037-1 .063v-1.063c-.333.025-.667.037-1 .063v-.188-.875c-.333.025-.667.037-1 .063v-1.063c-35.573 2.71-70.984 3.571-109.09 38v2.844c-.27-.243-.543-.479-.813-.719v-.125c-.334-.302-.666-.578-1-.875v-.125c-.334-.302-.666-.578-1-.875v-.125c-38.11-34.429-73.52-35.29-109.09-38" fill-opacity=".235"/>
 <g fill-rule="evenodd">
  <path d="m256 1c-140.83 0-255 114.17-255 255 0 140.83 114.17 255 255 255 140.83 0 255-114.17 255-255 0-140.83-114.17-255-255-255m8.827 44.931c120.9 0 218.9 98 218.9 218.9 0 120.9-98 218.9-218.9 218.9-120.9 0-218.93-98-218.93-218.9 0-120.9 98.03-218.9 218.93-218.9" fill-opacity=".067"/>
  <g fill-opacity=".129">
   <path d="m256 4.433c-138.94 0-251.57 112.63-251.57 251.57 0 138.94 112.63 251.57 251.57 251.57 138.94 0 251.57-112.63 251.57-251.57 0-138.94-112.63-251.57-251.57-251.57m5.885 38.556c120.9 0 218.9 98 218.9 218.9 0 120.9-98 218.9-218.9 218.9-120.9 0-218.93-98-218.93-218.9 0-120.9 98.03-218.9 218.93-218.9"/>
   <path d="m256 8.356c-136.77 0-247.64 110.87-247.64 247.64 0 136.77 110.87 247.64 247.64 247.64 136.77 0 247.64-110.87 247.64-247.64 0-136.77-110.87-247.64-247.64-247.64m2.942 31.691c120.9 0 218.9 98 218.9 218.9 0 120.9-98 218.9-218.9 218.9-120.9 0-218.93-98-218.93-218.9 0-120.9 98.03-218.9 218.93-218.9"/>
  </g>
  <path d="m253.04 7.859c-135.42 0-245.19 109.78-245.19 245.19 0 135.42 109.78 245.19 245.19 245.19 135.42 0 245.19-109.78 245.19-245.19 0-135.42-109.78-245.19-245.19-245.19zm0 26.297c120.9 0 218.9 98 218.9 218.9 0 120.9-98 218.9-218.9 218.9-120.9 0-218.93-98-218.93-218.9 0-120.9 98.03-218.9 218.93-218.9z" fill="#ffffff" stroke="#000000" stroke-opacity=".31" stroke-width="4.904"/>
 </g>
 <text x="729.64" y="231.36">
  
 </text>
 <text x="1310.91" y="151.36">
  
 </text>
 <text x="239.33" y="-29.9">
  
 </text>
 <text x="1337.38" y="-246.37">
  
 </text>
 <text x="1918.65" y="-326.38">
  
 </text>
 <text x="1529.53" y="-798.78">
  
 </text>
 <text x="2110.79" y="-878.78">
  
 </text>
 <text x="277.99" y="535.94">
  
 </text>
 <g fill="#ffffff" transform="matrix(.97883 0 0 .97883 -662.8 58.03)">
  <path d="m1051.56 82.906c-36.34 2.769-72.53 3.671-111.47 38.844l.75 181.34c31.707-28.788 69.69-38.783 110.72-39.594zm-241.31 20.03v177.13c60.5.89 100.76 12.895 127.75 32.19.551.176.923.031 1.344 0 26.995-19.292 67.25-31.3 127.75-32.19v-177.12h-7.03v169.59c-33.04 2.945-58.965-2.711-121.41 35.875-62.43-38.571-88.37-32.93-121.41-35.875v-169.59zm-16.03 21.813v173.84c44.703 3.426 97.01.922 125.13 17.25 8.126 4.692 11.06 5.968 18.875 5.688.01 0 .021 0 .031 0 8.519.41 11.311-.815 19.75-5.688 28.12-16.328 80.42-13.824 125.13-17.25v-173.84h-7.781v165.81c-40.454 1.766-80.88 3.619-118.72 17.781-7.284 6.859-10.02 7-17.594 7.156-8.394-.173-10.71.003-18.313-7.156-37.844-14.162-78.3-16.01-118.75-17.781v-165.81z"/>
  <path d="m936.5 303.09c-31.707-28.788-69.68-38.766-110.72-39.577v-180.6c36.34 2.769 72.53 3.653 111.47 38.826z"/>
 </g>
</svg>
