<svg height="512" viewBox="0 0 512 512" width="512" xmlns="http://www.w3.org/2000/svg">
 <path d="m490.30678 256.00699c0 129.40454-104.90024 234.30479-234.30478 234.30479-129.40454 0-234.304785-104.90025-234.304785-234.30479 0-129.40453 104.900245-234.304784 234.304785-234.304784 129.40454 0 234.30478 104.900254 234.30478 234.304784" fill="#909390" fill-rule="evenodd"/>
 <path d="m345.56133 96.932984l130.48709 114.749966c-4.32541 33.64191-5.97511 94.83892-21.63856 125.24139-8.66821 30.45606-28.41628 49.83227-45.24427 72.12855l-73.43998 47.86713-80.65283 18.35999-102.94711-87.20997-20.98285-72.78427-47.867131-51.14569 5.901427-48.52285 19.671424-15.73713 22.94999-15.73714 8.52428-26.22857 5.24572-33.44141 30.81856-28.851424 41.9657 1.311428 19.67142 13.114286 10.49143 5.24571 26.88428-11.80286 21.63856-3.93428 12.45857-3.934284z" fill-rule="evenodd" opacity=".25"/>
 <g fill-rule="evenodd" transform="translate(0 -540.36)">
  <path d="m256 541.36c-140.83 0-255 114.17-255 255 0 140.83 114.17 255 255 255 140.83 0 255-114.17 255-255 0-140.83-114.17-255-255-255m8.827 44.931c120.9 0 218.9 98 218.9 218.9 0 120.9-98 218.9-218.9 218.9-120.9 0-218.93-98-218.93-218.9 0-120.9 98.03-218.9 218.93-218.9" fill-opacity=".067"/>
  <g fill-opacity=".129">
   <path d="m256 544.79c-138.94 0-251.57 112.63-251.57 251.57 0 138.94 112.63 251.54 251.57 251.54 138.94 0 251.57-112.6 251.57-251.54 0-138.94-112.63-251.57-251.57-251.57m5.885 38.556c120.9 0 218.9 98 218.9 218.9 0 120.9-98 218.9-218.9 218.9-120.9 0-218.93-98-218.93-218.9 0-120.9 98.03-218.9 218.93-218.9"/>
   <path d="m256 548.72c-136.77 0-247.64 110.87-247.64 247.64 0 136.77 110.87 247.64 247.64 247.64 136.77 0 247.64-110.87 247.64-247.64 0-136.77-110.87-247.64-247.64-247.64m2.942 31.691c120.9 0 218.9 98 218.9 218.9 0 120.9-98 218.9-218.9 218.9-120.9 0-218.93-98-218.93-218.9 0-120.9 98.03-218.9 218.93-218.9"/>
  </g>
  <path d="m253.04 548.22c-135.42 0-245.19 109.78-245.19 245.19 0 135.42 109.78 245.19 245.19 245.19 135.42 0 245.19-109.78 245.19-245.19 0-135.42-109.78-245.19-245.19-245.19zm0 26.297c120.9 0 218.9 98 218.9 218.9 0 120.9-98 218.9-218.9 218.9-120.9 0-218.93-98-218.93-218.9 0-120.9 98.03-218.9 218.93-218.9z" fill="#ffffff" stroke="#000000" stroke-opacity=".31" stroke-width="4.904"/>
 </g>
 <g fill="#ffffff" transform="matrix(11.686475 0 0 11.687966 -28.814374 -35.382013)">
  <path d="m24 16c-4.03 0-7.684.66-10.352 2.04-1.334.69-2.423 1.519-3.207 2.478-.784.959-1.441 2.099-1.441 3.482 0 1.383.657 2.523 1.441 3.482.784.959 1.873 1.788 3.207 2.478 2.668 1.38 6.322 2.04 10.352 2.04 4.03 0 7.684-.66 10.352-2.04 1.334-.69 2.423-1.519 3.207-2.478.784-.959 1.441-2.099 1.441-3.482 0-1.383-.657-2.523-1.441-3.482-.784-.959-1.873-1.788-3.207-2.478-2.668-1.38-6.322-2.04-10.352-2.04m0 1.3c3.978 0 7.564.745 10.143 2.079 1.29.667 2.123 1.441 2.807 2.277.684.836.85 1.656.85 2.344 0 .688-.166 1.508-.85 2.344-.684.836-1.517 1.61-2.807 2.277-2.58 1.334-6.165 2.079-10.143 2.079-3.978 0-7.563-.745-10.143-2.079-1.29-.667-2.124-1.441-2.807-2.277-.684-.836-.85-1.656-.85-2.344 0-.688.166-1.508.85-2.344.684-.836 1.517-1.61 2.807-2.277 2.58-1.334 6.165-2.079 10.143-2.079"/>
  <path d="m17.07 20c-2.02 3.49-3.27 6.984-3.409 9.985-.069 1.501.104 2.858.542 4.02.438 1.158 1.097 2.297 2.295 2.989 1.198.692 2.514.693 3.736.493 1.222-.2 2.484-.728 3.749-1.538 2.53-1.621 4.928-4.455 6.943-7.945 2.02-3.49 3.27-6.984 3.409-9.985.069-1.501-.104-2.858-.542-4.02-.438-1.158-1.097-2.297-2.295-2.989-1.198-.692-2.514-.693-3.736-.493-1.222.2-2.484.728-3.749 1.538-2.53 1.621-4.928 4.455-6.943 7.945m1.126.65c1.989-3.445 4.427-6.178 6.872-7.744 1.223-.783 2.31-1.119 3.375-1.293 1.066-.174 1.859.092 2.455.436.596.344 1.223.898 1.605 1.908.382 1.01.635 2.119.568 3.569-.134 2.901-1.282 6.379-3.271 9.824-1.989 3.445-4.427 6.177-6.872 7.744-1.223.783-2.31 1.119-3.375 1.293-1.066.174-1.859-.092-2.455-.436-.596-.344-1.223-.898-1.605-1.908-.382-1.01-.635-2.119-.568-3.569.134-2.901 1.282-6.379 3.271-9.824"/>
  <path d="m30.928 20.03c2.02 3.465 3.27 6.934 3.409 9.913.069 1.49-.104 2.837-.542 3.987-.438 1.15-1.097 2.281-2.295 2.968-1.198.687-2.514.688-3.736.489-1.222-.198-2.484-.723-3.749-1.527-2.53-1.609-4.928-4.423-6.943-7.888-2.02-3.465-3.27-6.934-3.409-9.913-.069-1.49.104-2.837.542-3.987.438-1.15 1.097-2.281 2.295-2.968 1.198-.687 2.514-.688 3.736-.489 1.222.198 2.484.723 3.749 1.527 2.53 1.609 4.928 4.423 6.943 7.888zm-1.126.645c-1.989-3.42-4.427-6.133-6.872-7.688-1.223-.778-2.31-1.11-3.375-1.283-1.066-.173-1.859.091-2.455.433-.596.341-1.223.892-1.605 1.894-.382 1-.635 2.103-.568 3.544.134 2.88 1.282 6.333 3.271 9.753 1.989 3.42 4.427 6.133 6.872 7.688 1.223.778 2.31 1.111 3.375 1.283 1.066.173 1.859-.091 2.455-.433.596-.341 1.223-.892 1.605-1.894.382-1 .635-2.103.568-3.544-.134-2.88-1.282-6.333-3.271-9.753z"/>
 </g>
</svg>
