<svg xmlns="http://www.w3.org/2000/svg" height="512" width="512"><g fill-rule="evenodd"><path d="M471.95 253.05c0 120.9-98.01 218.9-218.9 218.9-120.9 0-218.9-98.01-218.9-218.9 0-120.9 98.01-218.9 218.9-218.9 120.9 0 218.9 98.01 218.9 218.9" fill="#878787"/><path d="M219.71 131.74c-29.7-1.392-50.935 34.94-35.35 60.15 5.964 9.61 15.09 16.603 22.712 24.828-15.635-8.69-30.882 8.235-36.596 15.597-20.705-20.875-43.13-40.15-60.937-63.697-18.645-16.13-15.713 22.766-13.967 33.25 6.19 50.35 20.23 99.66 39.33 146.59 3.114 2.078 5.208 5.446 8.223 7.577 3.074 4.02 7.07 6.76 10.16 10.805 3.765 2.79 6.643 6.967 10.398 9.752 3.052 3.99 7.04 6.78 10.16 10.805 3.746 2.81 6.63 6.928 10.364 9.752 3.123 4.02 7.088 6.768 10.194 10.804 3.735 2.827 6.64 6.917 10.364 9.752 3.122 4.02 7.088 6.77 10.194 10.805 3.75 2.82 6.634 6.96 10.398 9.753 3.07 4.054 7.08 6.756 10.16 10.805 3.757 2.805 6.622 6.938 10.364 9.752 3.123 4.02 7.088 6.77 10.194 10.805 3.757 2.805 6.622 6.938 10.364 9.752 4.13 9.55 17.08 3.918 26.587 2.915 88.62-15.335 164.45-85.55 186.75-172.64 2.257-12.93 8.606-28.663 5.455-40.64-33.434-37.792-55.47-59.2-106.59-110.33-5.592-4.71-14.17-8.388-21-12.673l-32.755 74.21c-26.548-26.355-52.76-53.06-79.48-79.24-7.136-5.963-16.386-9.286-25.682-9.246" fill-opacity=".235"/><path d="M256 1C115.17 1 1 115.17 1 256c0 140.83 114.17 255 255 255 140.83 0 255-114.17 255-255C511 115.17 396.83 1 256 1m8.827 44.93c120.9 0 218.9 98 218.9 218.9s-98 218.9-218.9 218.9-218.93-98-218.93-218.9 98.03-218.9 218.93-218.9" fill-opacity=".067"/><g fill-opacity=".129"><path d="M256 4.433c-138.94 0-251.57 112.63-251.57 251.57S117.06 507.573 256 507.573s251.57-112.63 251.57-251.57S394.94 4.433 256 4.433m5.885 38.556c120.9 0 218.9 98 218.9 218.9s-98 218.9-218.9 218.9-218.93-98-218.93-218.9 98.03-218.9 218.93-218.9"/><path d="M256 8.356c-136.77 0-247.64 110.87-247.64 247.64 0 136.77 110.87 247.64 247.64 247.64 136.77 0 247.64-110.87 247.64-247.64 0-136.77-110.87-247.64-247.64-247.64m2.942 31.69c120.9 0 218.9 98 218.9 218.9s-98 218.9-218.9 218.9-218.93-98-218.93-218.9 98.03-218.9 218.93-218.9"/></g><path d="M253.04 7.86C117.62 7.86 7.85 117.64 7.85 253.05c0 135.42 109.78 245.19 245.19 245.19 135.42 0 245.19-109.78 245.19-245.19 0-135.42-109.78-245.19-245.19-245.19zm0 26.296c120.9 0 218.9 98 218.9 218.9s-98 218.9-218.9 218.9-218.93-98-218.93-218.9 98.03-218.9 218.93-218.9z" fill="#fff" stroke="#000" stroke-opacity=".31" stroke-width="4.904"/></g><path d="M219.72 131.74c-22.352 0-40.487 18.13-40.487 40.487 0 22.352 18.13 40.32 40.487 40.32 22.352 0 40.32-17.967 40.32-40.32 0-22.352-17.967-40.487-40.32-40.487m137.92 14.28l-46.535 105.5 18.48 7.728 20.16-42.67v52.75h-7.06v10.248h-6.05V268.32h-21v-2.02l-28.22-12.768-50.4-2.688c-2-4.396-4.43-8.76-7.727-12.936-3.173-4.128-6.316-8.01-8.568-11.928-4.864-5.34-10.83-9.234-19.488-10.752-1.565-.17-3.134-.213-4.704-.168-4.71.136-9.346 1.31-13.272 3.36-6.06 4.393-10.394 12-13.272 20.327-2.66 8.162-4.088 16.954-5.376 25.2-1.375 12.365-.81 24.323 2.52 37.3 3.883 16.17 10.03 32.19 15.12 47.21h72.24c-.92-10.247-2.828-30.06-3.528-34.607-.9-5.846-4.422-26.14-4.872-29.735-.642-3.185-1.224-6.214-1.848-9.24h69.05v4.704h-45.863v16.13h26.375v52.75h17.304v-52.75h90.05v-16.13h-20.83v-10.25h-17.977v-79.46l15.287-32.422-19.992-11.424m-257.2 17.47c-.686.202-1.433.74-2.02 1.345-9.334 9.675-1.44 68.27 17.64 131.04 6.074 19.98 12.492 37.644 18.816 52.582h34.776c-3.07-24.04-9.836-55.22-19.656-87.53-17.888-58.84-39.27-100.45-49.56-97.44" fill="#fff" fill-rule="evenodd"/></svg>