<svg height="512" viewBox="0 0 512 512" width="512" xmlns="http://www.w3.org/2000/svg">
 <path d="m471.95 253.05c0 120.9-98.01 218.9-218.9 218.9-120.9 0-218.9-98.01-218.9-218.9 0-120.9 98.01-218.9 218.9-218.9 120.9 0 218.9 98.01 218.9 218.9" fill="#a8a7aa" fill-rule="evenodd"/>
 <path d="m256 1c-140.83 0-255 114.17-255 255 0 140.83 114.17 255 255 255 140.83 0 255-114.17 255-255 0-140.83-114.17-255-255-255m8.827 44.931c120.9 0 218.9 98 218.9 218.9 0 120.9-98 218.9-218.9 218.9-120.9 0-218.93-98-218.93-218.9 0-120.9 98.03-218.9 218.93-218.9" fill-opacity=".067" fill-rule="evenodd"/>
 <g fill-opacity=".129" fill-rule="evenodd">
  <path d="m256 4.433c-138.94 0-251.57 112.63-251.57 251.57 0 138.94 112.63 251.57 251.57 251.57 138.94 0 251.57-112.63 251.57-251.57 0-138.94-112.63-251.57-251.57-251.57m5.885 38.556c120.9 0 218.9 98 218.9 218.9 0 120.9-98 218.9-218.9 218.9-120.9 0-218.93-98-218.93-218.9 0-120.9 98.03-218.9 218.93-218.9"/>
  <path d="m256 8.356c-136.77 0-247.64 110.87-247.64 247.64 0 136.77 110.87 247.64 247.64 247.64 136.77 0 247.64-110.87 247.64-247.64 0-136.77-110.87-247.64-247.64-247.64m2.942 31.691c120.9 0 218.9 98 218.9 218.9 0 120.9-98 218.9-218.9 218.9-120.9 0-218.93-98-218.93-218.9 0-120.9 98.03-218.9 218.93-218.9"/>
 </g>
 <path d="m377.14607 121.00413l-50.12659 2.69448-34.17299.42647-161.92509 2.9976-4.89014 33.68289 1.71544 19.82012c-1.68175 12.95727 5.88054 17.54539 2.04265 21.41011.91679 70.06657-7.19691 124.92741-10.99309 177.89741l161.34861 92.08858c99.69764 4.21204 228.60412-148.32093 183.9777-285.88175" opacity=".25"/>
 <path d="m34.395 32.03h187.21c1.316 0 2.368 1.053 2.368 2.368v187.21c0 1.316-1.053 2.368-2.368 2.368h-187.21c-1.316 0-2.368-1.053-2.368-2.368v-187.21c0-1.316 1.053-2.368 2.368-2.368z" fill="none" stroke="#ffffff" stroke-linecap="round" stroke-width="10.664" transform="matrix(1.29803722 0 0 1.29802766 84.07377 84.491854)"/>
 <g fill="#ffffff" transform="translate(-7.9756856 -1.8335932)">
  <path d="m169.37029 287.32989l58.81489 8.57717v-31.85806l-58.81489-3.67594v-24.50619l58.81489-3.67594v-31.85805l-58.81489 8.57717v-25.73152l88.22232-23.28089v176.44465l-88.22232-23.28089" fill-rule="evenodd"/>
  <path d="m273.21263 160.47918v88.22232 88.22233c9.80248 0 25.34432-3.72004 39.25894-9.43979 11.67965-4.79342 23.16816-10.09165 31.92667-20.39897 12.12077-14.27241 12.12077-48.58109 12.12077-58.38357 0-9.80248.005-44.11116-12.12077-58.38357-8.75361-10.30731-20.24211-15.60555-31.92667-20.39896-13.92932-5.71975-29.45646-9.43979-39.25894-9.43979m29.40744 39.20992c9.80248.20095 18.73744 6.86664 23.63378 13.50782 5.77366 7.82238 5.77366 30.60334 5.77366 35.50458 0 4.90124 0 27.68221-5.77366 35.50459-4.90124 6.64118-13.8313 13.30687-23.63378 13.50781v-49.0124z"/>
 </g>
 <path d="m253.04 7.859c-135.42 0-245.19 109.78-245.19 245.19 0 135.42 109.78 245.19 245.19 245.19 135.42 0 245.19-109.78 245.19-245.19 0-135.42-109.78-245.19-245.19-245.19zm0 26.297c120.9 0 218.9 98 218.9 218.9 0 120.9-98 218.9-218.9 218.9-120.9 0-218.93-98-218.93-218.9 0-120.9 98.03-218.9 218.93-218.9z" fill="#ffffff" fill-rule="evenodd" stroke="#000000" stroke-opacity=".31" stroke-width="4.904"/>
</svg>
