<svg xmlns="http://www.w3.org/2000/svg" height="512" width="512"><path d="M471.95 253.05c0 120.9-98.01 218.9-218.9 218.9-120.9 0-218.9-98.01-218.9-218.9 0-120.9 98.01-218.9 218.9-218.9 120.9 0 218.9 98.01 218.9 218.9" fill="#929292" fill-rule="evenodd"/><path d="M136.71 136.71c-8.983 0-16.273 7.29-16.273 16.273v206.06c0 4.777 2.075 9.05 5.355 12.03.356.39.72.757 1.112 1.113.35.385.693.762 1.078 1.112.328.36.686.713 1.043 1.043.39.436.816.86 1.252 1.253.366.397.744.788 1.147 1.147.32.345.66.657 1.01.973.356.39.72.757 1.112 1.113.316.35.628.69.973 1.01.358.404.75.782 1.146 1.147.39.435.816.86 1.252 1.252.366.397.744.788 1.147 1.147.32.345.66.657 1.01.973.356.39.72.757 1.112 1.113.316.35.628.69.973 1.01.36.404.75.782 1.147 1.147.39.435.816.86 1.252 1.252.323.353.688.686 1.042 1.01.39.43.783.866 1.217 1.252.32.344.658.656 1.01.972.315.35.627.69.972 1.01.387.434.82.826 1.252 1.217.322.354.656.717 1.01 1.042.39.435.816.86 1.252 1.252.366.397.744.788 1.147 1.147.32.346.66.658 1.01.974.356.39.72.757 1.112 1.112.316.35.628.69.973 1.01.36.404.75.782 1.147 1.147.39.435.816.86 1.252 1.252.366.397.744.788 1.147 1.147.32.345.66.657 1.01.973.356.39.72.757 1.113 1.113.316.35.628.69.973 1.01.36.403.75.782 1.147 1.147.39.435.816.86 1.252 1.252.33.358.68.716 1.042 1.043.35.385.727.728 1.113 1.078.356.39.72.757 1.113 1.112.316.35.628.69.973 1.01.36.404.75.782 1.148 1.147.39.435.816.86 1.252 1.252.324.352.69.684 1.043 1.01.39.43.783.865 1.217 1.25.32.346.66.658 1.01.974.356.39.72.757 1.112 1.112.356.39.72.757 1.113 1.113.322.354.656.717 1.01 1.042.39.435.816.86 1.252 1.252.366.397.744.788 1.147 1.147.32.346.66.658 1.01.974.356.39.72.757 1.113 1.113.316.35.628.69.973 1.01.36.404.75.782 1.147 1.147.39.435.816.86 1.252 1.252.365.397.743.788 1.146 1.147.32.345.66.657 1.01.973.356.39.72.757 1.112 1.112.316.35.628.69.973 1.01.36.404.75.782 1.148 1.147.39.435.816.86 1.252 1.252.33.358.682.716 1.043 1.043.386.424.79.836 1.217 1.217.32.345.66.657 1.01.973.316.35.628.69.973 1.01.38.428.793.83 1.217 1.217.328.36.685.713 1.043 1.043.39.435.816.86 1.252 1.252.366.397.744.788 1.147 1.147.32.344.66.656 1.01.972.356.39.72.757 1.113 1.113.316.35.628.69.973 1.01.36.404.75.782 1.147 1.147.39.435.816.86 1.252 1.252.366.397.744.788 1.147 1.147.32.346.66.658 1.01.974.356.39.72.757 1.112 1.112.316.35.628.69.973 1.01.358.404.75.782 1.146 1.147.39.435.816.86 1.252 1.252.324.353.69.685 1.043 1.01.357.39.722.757 1.114 1.113.356.39.72.757 1.112 1.112.316.35.628.69.973 1.01.358.403.75.782 1.146 1.147.39.435.816.86 1.252 1.252.33.357.682.715 1.043 1.042.387.424.79.836 1.218 1.217.32.344.66.656 1.01.972.356.39.72.757 1.113 1.112.35.385.694.762 1.08 1.113.327.36.684.713 1.042 1.043.39.435.816.86 1.252 1.252.366.397.744.788 1.147 1.147.32.344.66.656 1.01.972.357.39.722.757 1.113 1.113.316.35.628.69.973 1.01.36.403.75.782 1.147 1.147.39.435.816.86 1.252 1.252.366.397.744.788 1.147 1.147.32.346.66.658 1.01.974.356.39.72.757 1.113 1.113.316.35.628.69.973 1.01.36.403.75.782 1.147 1.147.39.435.816.86 1.252 1.252.324.353.69.686 1.043 1.01.39.43.783.865 1.217 1.252.32.345.66.657 1.01.973.316.35.628.69.973 1.01.387.435.82.827 1.252 1.218.322.355.656.718 1.01 1.043.39.436.816.86 1.252 1.253.366.397.744.788 1.147 1.147.32.345.66.657 1.01.973.035.037.072.068.106.105.57.004 1.13.035 1.704.035 134.52 0 243.58-109.05 243.58-243.58 0-.592-.03-1.182-.035-1.773-.098-.098-.175-.218-.278-.313-.36-.403-.75-.782-1.147-1.147-.37-.41-.773-.81-1.183-1.183-.408-.45-.83-.885-1.286-1.286-.335-.357-.676-.716-1.042-1.042-.32-.345-.66-.657-1.01-.973-.316-.35-.628-.69-.973-1.01-.36-.403-.75-.782-1.147-1.147-.37-.41-.773-.81-1.183-1.183-.372-.41-.77-.813-1.183-1.183-.366-.397-.744-.788-1.147-1.147-.32-.345-.66-.657-1.01-.973-.316-.35-.628-.69-.973-1.01-.35-.39-.728-.757-1.113-1.112-.36-.403-.75-.782-1.148-1.147-.39-.435-.816-.86-1.252-1.252-.366-.396-.744-.787-1.147-1.146-.32-.345-.66-.657-1.01-.973-.356-.39-.72-.756-1.113-1.112-.316-.35-.628-.69-.973-1.01-.36-.403-.75-.782-1.147-1.147-.39-.434-.816-.86-1.252-1.25-.366-.398-.744-.79-1.147-1.148-.355-.384-.72-.765-1.112-1.112-.32-.345-.66-.657-1.01-.973-.316-.35-.628-.69-.973-1.01-.36-.403-.75-.782-1.147-1.147-.37-.41-.773-.81-1.183-1.183-.372-.41-.77-.813-1.183-1.183-.366-.397-.744-.788-1.147-1.147-.32-.345-.66-.657-1.01-.973-.316-.35-.628-.69-.973-1.01-.35-.39-.728-.757-1.113-1.112-.36-.403-.75-.782-1.148-1.147-.39-.435-.816-.86-1.252-1.252-.366-.397-.744-.788-1.147-1.147-.32-.345-.66-.657-1.01-.973-.356-.39-.72-.757-1.112-1.113-.315-.35-.627-.69-.972-1.01-.36-.403-.75-.782-1.147-1.147-.39-.435-.815-.86-1.25-1.252-.367-.396-.745-.787-1.148-1.146-.32-.345-.66-.657-1.01-.973-.356-.39-.72-.756-1.113-1.112-.317-.35-.63-.69-.974-1.01-.36-.403-.75-.782-1.147-1.147-.392-.434-.817-.86-1.253-1.25-.366-.398-.744-.79-1.147-1.148-.356-.384-.72-.765-1.112-1.113-.32-.346-.66-.658-1.01-.974-.316-.35-.628-.69-.973-1.01-.36-.403-.75-.782-1.147-1.147-.37-.412-.773-.81-1.183-1.184-.372-.41-.77-.813-1.183-1.183-.366-.397-.744-.788-1.147-1.147-.32-.345-.66-.657-1.01-.973-.316-.35-.628-.69-.973-1.01-.35-.39-.728-.757-1.113-1.113-.36-.403-.75-.782-1.148-1.147-.39-.435-.816-.86-1.252-1.252-.366-.396-.744-.787-1.147-1.146-.32-.345-.66-.657-1.01-.973-.356-.39-.72-.756-1.113-1.112-.316-.35-.628-.69-.973-1.01-.36-.403-.75-.782-1.147-1.147-.39-.434-.816-.86-1.252-1.25-.366-.398-.744-.79-1.147-1.148-.32-.345-.658-.657-1.01-.973-.355-.392-.72-.758-1.11-1.113-.317-.35-.63-.69-.974-1.01-.36-.403-.75-.782-1.147-1.147-.37-.41-.774-.81-1.184-1.183-.372-.41-.77-.813-1.183-1.183-.366-.397-.744-.788-1.147-1.147-.32-.345-.66-.657-1.01-.973-.316-.35-.628-.69-.973-1.01-.36-.403-.75-.782-1.147-1.147-.37-.41-.773-.81-1.183-1.183-.372-.41-.77-.813-1.183-1.183-.366-.396-.744-.787-1.147-1.146-.32-.345-.66-.657-1.01-.973-.356-.39-.72-.756-1.113-1.112-.316-.35-.628-.69-.973-1.01-.36-.403-.75-.782-1.147-1.147-.39-.434-.816-.86-1.252-1.25-.366-.398-.744-.79-1.147-1.148-.32-.345-.658-.657-1.01-.973-.355-.392-.72-.758-1.11-1.114-.317-.35-.63-.69-.974-1.01-.36-.403-.75-.782-1.147-1.147-.392-.436-.817-.86-1.253-1.253-.366-.397-.744-.788-1.147-1.147-.356-.384-.72-.765-1.113-1.112-.32-.345-.66-.657-1.01-.973-.316-.35-.628-.69-.973-1.01-.36-.403-.75-.782-1.147-1.147-.37-.41-.773-.81-1.183-1.183-.372-.41-.77-.813-1.183-1.183-.365-.397-.743-.788-1.146-1.147-2.97-3.205-7.21-5.216-11.927-5.216h-238.61" fill-opacity=".235"/><g fill-rule="evenodd"><path d="M256 1C115.17 1 1 115.17 1 256c0 140.83 114.17 255 255 255 140.83 0 255-114.17 255-255C511 115.17 396.83 1 256 1m8.827 44.93c120.9 0 218.9 98 218.9 218.9s-98 218.9-218.9 218.9-218.93-98-218.93-218.9 98.03-218.9 218.93-218.9" fill-opacity=".067"/><g fill-opacity=".129"><path d="M256 4.433c-138.94 0-251.57 112.63-251.57 251.57S117.06 507.573 256 507.573s251.57-112.63 251.57-251.57S394.94 4.433 256 4.433m5.885 38.556c120.9 0 218.9 98 218.9 218.9s-98 218.9-218.9 218.9-218.93-98-218.93-218.9 98.03-218.9 218.93-218.9"/><path d="M256 8.356c-136.77 0-247.64 110.87-247.64 247.64 0 136.77 110.87 247.64 247.64 247.64 136.77 0 247.64-110.87 247.64-247.64 0-136.77-110.87-247.64-247.64-247.64m2.942 31.69c120.9 0 218.9 98 218.9 218.9s-98 218.9-218.9 218.9-218.93-98-218.93-218.9 98.03-218.9 218.93-218.9"/></g><path d="M253.04 7.86C117.62 7.86 7.85 117.64 7.85 253.05c0 135.42 109.78 245.19 245.19 245.19 135.42 0 245.19-109.78 245.19-245.19 0-135.42-109.78-245.19-245.19-245.19zm0 26.296c120.9 0 218.9 98 218.9 218.9s-98 218.9-218.9 218.9-218.93-98-218.93-218.9 98.03-218.9 218.93-218.9z" fill="#fff" stroke="#000" stroke-opacity=".31" stroke-width="4.904"/></g><g fill="#fff"><path d="M136.72 136.72c-8.982 0-16.28 7.268-16.28 16.25v24.875h271.13V152.97c0-8.985-7.266-16.25-16.25-16.25H136.73m168.06 10.813c5.977 0 10.874 4.894 10.874 10.875 0 5.98-4.897 10.813-10.875 10.813-5.98 0-10.814-4.83-10.814-10.812 0-5.98 4.834-10.875 10.813-10.875m29.843 0c5.978 0 10.844 4.894 10.844 10.875 0 5.98-4.866 10.813-10.844 10.813s-10.813-4.83-10.813-10.812c0-5.98 4.834-10.875 10.813-10.875m29.813 0c5.978 0 10.844 4.894 10.844 10.875 0 5.98-4.866 10.813-10.844 10.813s-10.844-4.83-10.844-10.812c0-5.98 4.866-10.875 10.844-10.875M120.44 192.24V359c0 8.982 7.305 16.287 16.287 16.287h238.58c8.985 0 16.254-7.308 16.254-16.287V192.24H120.43"/></g><g fill="#a6a6a6" stroke="#a6a6a6" stroke-width="9.8"><path d="M208.79 311.33l-52.38-24.1v-7.868l52.38-27.29v13.205l-35.38 17.442 35.38 15.46zM271.59 225.39l-30.812 112.47h-14.416l30.812-112.47zM303.21 298.18l35.38-15.46-35.38-17.443v-13.205l52.38 27.29v7.868l-52.38 24.1z"/></g></svg>