<svg height="512" viewBox="0 0 512 512" width="512" xmlns="http://www.w3.org/2000/svg">
 <path d="m471.95 253.05c0 120.9-98.01 218.9-218.9 218.9-120.9 0-218.9-98.01-218.9-218.9 0-120.9 98.01-218.9 218.9-218.9 120.9 0 218.9 98.01 218.9 218.9" fill="#a2a2a2" fill-rule="evenodd"/>
 <path d="m327.57779 117.39619l147.98598 103.14175c12.97116 74.82122-17.35845 122.21862-48.20757 169.28699-31.24003 42.41381-68.41602 59.89654-107.0656 71.19025l-146.86488-83.52241c-64.3988-61.40089-66.32348-112.38944-59.97917-161.99981 8.07512-31.06755 21.64491-52.06153 38.67817-66.7058 27.20256-26.78058 56.13468-39.72466 86.32514-42.60203 5.27364-14.52312 90.37041 19.90848 89.12793 11.21106z" fill-rule="evenodd" opacity=".25"/>
 <path d="m256 1c-140.83 0-255 114.17-255 255 0 140.83 114.17 255 255 255 140.83 0 255-114.17 255-255 0-140.83-114.17-255-255-255m8.827 44.931c120.9 0 218.9 98 218.9 218.9 0 120.9-98 218.9-218.9 218.9-120.9 0-218.93-98-218.93-218.9 0-120.9 98.03-218.9 218.93-218.9" fill-opacity=".067" fill-rule="evenodd"/>
 <g fill-opacity=".129" fill-rule="evenodd">
  <path d="m256 4.433c-138.94 0-251.57 112.63-251.57 251.57 0 138.94 112.63 251.57 251.57 251.57 138.94 0 251.57-112.63 251.57-251.57 0-138.94-112.63-251.57-251.57-251.57m5.885 38.556c120.9 0 218.9 98 218.9 218.9 0 120.9-98 218.9-218.9 218.9-120.9 0-218.93-98-218.93-218.9 0-120.9 98.03-218.9 218.93-218.9"/>
  <path d="m256 8.356c-136.77 0-247.64 110.87-247.64 247.64 0 136.77 110.87 247.64 247.64 247.64 136.77 0 247.64-110.87 247.64-247.64 0-136.77-110.87-247.64-247.64-247.64m2.942 31.691c120.9 0 218.9 98 218.9 218.9 0 120.9-98 218.9-218.9 218.9-120.9 0-218.93-98-218.93-218.9 0-120.9 98.03-218.9 218.93-218.9"/>
 </g>
 <path d="m253.04 7.859c-135.42 0-245.19 109.78-245.19 245.19 0 135.42 109.78 245.19 245.19 245.19 135.42 0 245.19-109.78 245.19-245.19 0-135.42-109.78-245.19-245.19-245.19zm0 26.297c120.9 0 218.9 98 218.9 218.9 0 120.9-98 218.9-218.9 218.9-120.9 0-218.93-98-218.93-218.9 0-120.9 98.03-218.9 218.93-218.9z" fill="#ffffff" fill-rule="evenodd" stroke="#000000" stroke-opacity=".31" stroke-width="4.904"/>
 <circle cx="253.853" cy="250.528" fill="none" r="146.024" stroke="#ffffff" stroke-linecap="square" stroke-linejoin="round" stroke-width="10"/>
 <path d="m253.82227 106.13281c-80.21398 0-145.24805 65.0255-145.24805 145.2461 0 80.21398 65.02744 145.24804 145.24805 145.24804 80.21398 0 145.24609-65.02744 145.24609-145.24804 0-80.21398-65.02549-145.2461-145.24609-145.2461zm-44.53321 53.86524a18.498247 29.709305 0 0 1 18.49805 29.70898 18.498247 29.709305 0 0 1 -18.49805 29.70899 18.498247 29.709305 0 0 1 -18.49804-29.70899 18.498247 29.709305 0 0 1 18.49804-29.70898zm98.09766 0a18.498247 29.709305 0 0 1 18.49805 29.70898 18.498247 29.709305 0 0 1 -18.49805 29.70899 18.498247 29.709305 0 0 1 -18.5-29.70899 18.498247 29.709305 0 0 1 18.5-29.70898zm28.91601 131.96679l3.82618 5.13086c-23.72478 17.68841-46.28144 34.88421-73.29493 39.21875-27.01348 4.33455-57.88288-4.62656-97.1621-37.65234l4.11914-4.89844c38.46271 32.33927 67.10169 40.23196 92.02734 36.23242 24.92564-3.99953 46.73915-20.32759 70.48437-38.03125z" fill="#ffffff" fill-rule="evenodd"/>
</svg>
