<svg height="512" viewBox="0 0 512 512" width="512" xmlns="http://www.w3.org/2000/svg">
 <path d="m471.95 253.05c0 120.9-98.01 218.9-218.9 218.9-120.9 0-218.9-98.01-218.9-218.9 0-120.9 98.01-218.9 218.9-218.9 120.9 0 218.9 98.01 218.9 218.9" fill="#939599" fill-rule="evenodd"/>
 <path d="m326.44466 117.39619l147.98598 103.14175c12.97116 74.82122-17.35845 122.21862-48.20757 169.28699-31.24003 42.41381-68.41602 59.89654-107.0656 71.19025l-146.86488-83.52241c-64.3988-61.40089-66.32348-112.38944-59.97917-161.99981 8.07512-31.06755 21.64491-52.06153 38.67817-66.7058 27.20256-26.78058 56.13468-39.72466 86.32514-42.60203 5.27364-14.52312 90.37041 19.90848 89.12793 11.21106z" fill-rule="evenodd" opacity=".25"/>
 <path d="m256 1c-140.83 0-255 114.17-255 255 0 140.83 114.17 255 255 255 140.83 0 255-114.17 255-255 0-140.83-114.17-255-255-255m8.827 44.931c120.9 0 218.9 98 218.9 218.9 0 120.9-98 218.9-218.9 218.9-120.9 0-218.93-98-218.93-218.9 0-120.9 98.03-218.9 218.93-218.9" fill-opacity=".067" fill-rule="evenodd"/>
 <g fill-opacity=".129" fill-rule="evenodd">
  <path d="m256 4.433c-138.94 0-251.57 112.63-251.57 251.57 0 138.94 112.63 251.57 251.57 251.57 138.94 0 251.57-112.63 251.57-251.57 0-138.94-112.63-251.57-251.57-251.57m5.885 38.556c120.9 0 218.9 98 218.9 218.9 0 120.9-98 218.9-218.9 218.9-120.9 0-218.93-98-218.93-218.9 0-120.9 98.03-218.9 218.93-218.9"/>
  <path d="m256 8.356c-136.77 0-247.64 110.87-247.64 247.64 0 136.77 110.87 247.64 247.64 247.64 136.77 0 247.64-110.87 247.64-247.64 0-136.77-110.87-247.64-247.64-247.64m2.942 31.691c120.9 0 218.9 98 218.9 218.9 0 120.9-98 218.9-218.9 218.9-120.9 0-218.93-98-218.93-218.9 0-120.9 98.03-218.9 218.93-218.9"/>
 </g>
 <path d="m253.04 7.859c-135.42 0-245.19 109.78-245.19 245.19 0 135.42 109.78 245.19 245.19 245.19 135.42 0 245.19-109.78 245.19-245.19 0-135.42-109.78-245.19-245.19-245.19zm0 26.297c120.9 0 218.9 98 218.9 218.9 0 120.9-98 218.9-218.9 218.9-120.9 0-218.93-98-218.93-218.9 0-120.9 98.03-218.9 218.93-218.9z" fill="#ffffff" fill-rule="evenodd" stroke="#000000" stroke-opacity=".31" stroke-width="4.904"/>
 <circle cx="253.853" cy="250.528" fill="none" r="146.024" stroke="#ffffff" stroke-linecap="square" stroke-linejoin="round" stroke-width="10"/>
 <ellipse cx="307.386" cy="202.599" rx="18.498" ry="29.709" style="fill:#ffffff;fill-rule:evenodd;stroke:#ffffff;stroke-width:10;stroke-linecap:square;stroke-linejoin:round"/>
 <path d="m171.73204 296.21259c77.74194 65.36504 119.01423 33.71039 166.48423-1.68167" fill="none" stroke="#ffffff" stroke-width="6.4"/>
 <path d="m232.38844 205.4137c-11.7579-19.68038-31.99308-28.71498-63.96411-23.01166" fill="none" stroke="#ffffff" stroke-linecap="round" stroke-miterlimit="4.3" stroke-width="8.2"/>
 <path d="m232.43128 205.87772c-19.62594-11.84855-41.7334-10.31654-67.27622 9.73937" fill="none" stroke="#ffffff" stroke-linecap="round" stroke-miterlimit="4.3" stroke-width="8.2"/>
</svg>
