<svg height="512" viewBox="0 0 135.47 135.47" width="512" xmlns="http://www.w3.org/2000/svg">
 <g transform="matrix(.26458334 0 0 .26458334 -753.771481 11.820522)">
  <g fill-rule="evenodd">
   <path d="m3320.9 208.38c0 120.9-98.01 218.91-218.91 218.91-120.9 0-218.91-98.01-218.91-218.91 0-120.9 98.01-218.91 218.91-218.91 120.9 0 218.91 98.01 218.91 218.91" fill="#636363"/>
   <path d="m3104.9-43.676c-140.83 0-255 114.17-255 255 0 140.83 114.17 255 255 255 140.83 0 255-114.17 255-255 0-140.83-114.17-255-255-255m8.827 44.931c120.9 0 218.9 98 218.9 218.9 0 120.9-98 218.9-218.9 218.9-120.9 0-218.93-98-218.93-218.9 0-120.9 98.03-218.9 218.93-218.9" fill-opacity=".067"/>
   <g fill-opacity=".129">
    <path d="m3104.9-40.25c-138.94 0-251.57 112.63-251.57 251.57 0 138.94 112.63 251.57 251.57 251.57 138.94 0 251.57-112.63 251.57-251.57 0-138.94-112.63-251.57-251.57-251.57m5.885 38.556c120.9 0 218.9 98 218.9 218.9 0 120.9-98 218.9-218.9 218.9-120.9 0-218.93-98-218.93-218.9 0-120.9 98.03-218.9 218.93-218.9"/>
    <path d="m3104.9-36.32c-136.77 0-247.64 110.87-247.64 247.64 0 136.77 110.87 247.64 247.64 247.64 136.77 0 247.64-110.87 247.64-247.64 0-136.77-110.87-247.64-247.64-247.64m2.942 31.691c120.9 0 218.9 98 218.9 218.9 0 120.9-98 218.9-218.9 218.9-120.9 0-218.93-98-218.93-218.9 0-120.9 98.03-218.9 218.93-218.9"/>
   </g>
   <path d="m3102-36.816c-135.42 0-245.19 109.78-245.19 245.19 0 135.42 109.78 245.19 245.19 245.19 135.42 0 245.19-109.78 245.19-245.19 0-135.42-109.78-245.19-245.19-245.19zm0 26.297c120.9 0 218.9 98 218.9 218.9 0 120.9-98 218.9-218.9 218.9-120.9 0-218.93-98-218.93-218.9 0-120.9 98.03-218.9 218.93-218.9z" fill="#ffffff" stroke="#000000" stroke-opacity=".31" stroke-width="4.904"/>
  </g>
  <path d="m2996.8 76.32c-29.551 0-53.818 29.05-53.818 64.42v141.17l64.43 64.43h-.01l-64.42-64.42c0 19.774 7.585 37.572 19.437 49.42l91.04 91.04c15.618 3.528 31.864 5.4 48.549 5.4 121.16 0 219.38-98.2 219.38-219.37 0-16.693-1.873-32.948-5.404-48.574l-68.51-68.51c.025.025.048.051.072.076l-.076-.076c-9.348-9.348-21.348-14.996-34.377-14.998v-.002h-216.28" opacity=".25"/>
  <path d="m2996.8 76.32c-29.551 0-53.819 29.05-53.819 64.42v141.17c0 35.37 24.268 64.42 53.819 64.42h216.28c29.551 0 53.819-29.05 53.819-64.42v-141.17c0-35.37-24.268-64.42-53.819-64.42z" fill="#ffffff"/>
  <path d="m3213.4 101.86c-73.71.175-147.47-.357-221.16.281-16.773 3.211-25.47 21.951-24.344 37.656.264 50.993-.699 102.04.531 153 1.943 14.877 14.405 30.14 30.5 28.403 73.27-.293 146.62.603 219.84-.465 16.655-3.796 24.76-22.708 23.59-38.563-.344-50.701.712-101.46-.559-152.12-2.071-13.9-12.969-28.838-28.406-28.19" fill="#4b4b4b"/>
  <path d="m3014.7 117.03c-17.61 1.119-28.724 19.897-27.701 36.25.898 49.04-.839 95.72.419 138.24 58.58-56.39 127.32-122.37 179.62-174.53-50.775.008-101.56-.023-152.34.029" fill="#ffffff"/>
 </g>
</svg>
