<svg height="512" viewBox="0 0 512 512" width="512" xmlns="http://www.w3.org/2000/svg">
 <path d="m186.3 134.03h139.4v34.851h17.425v-34.851c0-9.6144-7.794-17.425-17.425-17.425h-139.4c-9.6144 0-17.425 7.8109-17.425 17.425v34.851h17.425z" fill="#ffedb5"/>
 <path d="m377.98 186.3h-243.95c-9.6144 0-17.425 7.8109-17.425 17.425v87.126c0 9.6318 7.8109 17.425 17.425 17.425h34.851v69.701c0 9.6318 7.8109 17.425 17.425 17.425h139.4c9.6318 0 17.425-7.794 17.425-17.425v-69.701h34.851c9.6318 0 17.425-7.794 17.425-17.425v-87.126c0-9.6144-7.7935-17.425-17.425-17.425m-52.28 191.68h-139.4v-121.98h139.4zm34.851-139.4c-9.6318 0-17.425-7.794-17.425-17.425 0-9.6144 7.794-17.425 17.425-17.425 9.6313 0 17.425 7.8109 17.425 17.425 0 9.6318-7.7935 17.425-17.425 17.425" fill="#ffedb5"/>
 <path d="m203.73 273.43h69.701v17.42h-69.7z" fill="#ffedb5"/>
 <path d="m203.73 308.28h104.55v17.425h-104.55z" fill="#ffedb5"/>
 <path d="m203.73 343.13h104.55v17.425h-104.55z" fill="#ffedb5"/>
</svg>
