<svg height="512" viewBox="0 0 512 512" width="512" xmlns="http://www.w3.org/2000/svg">
 <path d="m255.99554 25.425763c-70.24165 0-133.20119 31.132056-175.867752 80.331127l111.255132 131.67636 74.13208-211.793726c-3.15653-.126832-6.32588-.203785-9.51376-.203785m47.51179 4.887986l-56.0337 160.220485 216.65321-36.60004c-31.39427-62.570501-90.17836-109.003511-160.61951-123.62472m-243.187992 101.79266c-23.45236 36.32928-37.06604 79.60435-37.06604 126.06159 0 24.94013 3.93889 48.96537 11.20104 71.48145l168.685392-28.45292-142.820392-169.08442m417.758922 56.20899l-168.51439 28.48285 141.16732 168.88491c24.03521-36.62712 38.02511-80.43088 38.02511-127.51516 0-24.34017-3.74793-47.80251-10.67804-69.85687m-222.06847 33.92234c-19.84694 0-35.92599 16.08332-35.92599 35.92598 0 19.84694 16.08333 35.92599 35.92599 35.92599 19.84693 0 35.92598-16.08333 35.92598-35.92599 0-19.84693-16.08332-35.92598-35.92598-35.92598m64.2706 55.5107l-.26221.72679.4945.20378-14.30769 37.85126c-6.46554 17.99007 15.18696-39.11387 14.66253-37.7344l-80.41663 211.59422c5.14164.33916 10.33745.523 15.5646.523 70.07063 0 132.91617-30.981 175.58273-79.97486l-111.31213-133.18694m-51.47348 48.06187l-220.614912 37.23705c31.43702 62.17148 89.950352 108.31948 160.049482 122.95494l60.57255-160.19199" fill="#ffedb5"/>
</svg>
