<svg height="512" viewBox="0 0 512 512" width="512" xmlns="http://www.w3.org/2000/svg">
 <path d="m206.28199 37.773023v146.266067h-58.1668c-17.03585 0-1.32668 14.8004-1.32668 14.8004l103.22869 124.74738.0411.0411c0 0 8.41643 9.86118 17.24679.995 12.2439-12.23195 100.08447-128.80701 100.08447-128.80701 0 0 15.52874-15.54732-5.14087-15.54732h-53.68927v-142.485033h-102.27348m-82.29371 319.649433c-23.62545 0-42.66591 18.99402-42.66591 42.62611 0 23.62545 19.03515 42.66591 42.66591 42.66591h265.25568c23.62545 0 42.66591-19.03515 42.66591-42.66591 0-23.62545-19.03515-42.61285-42.66591-42.61285h-265.25568m-1.28555 19.69319c.39137-.0199.84775 0 1.24443 0 12.68169 0 22.92629 10.24459 22.92629 22.92629 0 12.6817-10.2446 23.00988-22.92629 23.00988-12.6817 0-22.9263-10.32685-22.9263-23.00988 0-12.28635 9.54942-22.31204 21.6832-22.92629" fill="#ffedb5"/>
</svg>
