<svg height="512" viewBox="0 0 512 512" width="512" xmlns="http://www.w3.org/2000/svg">
 <path d="m170.31629 295.877c16.56463 34.63455 64.88301 46.02152 107.91991 25.43414 43.04339-20.58738 64.50669-65.33719 47.94206-99.97823-16.56463-34.63455-64.88301-46.02152-107.91991-25.43414-43.04339 20.58738-64.50669 65.33719-47.94206 99.97823z" fill="#ffedb5"/>
 <g fill="#ffedb5" stroke-linecap="square" stroke-miterlimit="10" transform="matrix(10.154 0 0 10.154 74.702034 102.94898)">
  <path d="m19 5c0 1.657-1.343 3-3 3-1.657 0-3-1.343-3-3 0-1.657 1.343-3 3-3 1.657 0 3 1.343 3 3z"/>
  <path d="m8 13c0 1.657-1.343 3-3 3-1.657 0-3-1.343-3-3 0-1.657 1.343-3 3-3 1.657 0 3 1.343 3 3z"/>
  <path d="m12 26c0 1.657-1.343 3-3 3-1.657 0-3-1.343-3-3 0-1.657 1.343-3 3-3 1.657 0 3 1.343 3 3z"/>
  <path d="m27 24c0 1.657-1.343 3-3 3-1.657 0-3-1.343-3-3 0-1.657 1.343-3 3-3 1.657 0 3 1.343 3 3z"/>
  <path d="m32 11c0 1.657-1.343 3-3 3-1.657 0-3-1.343-3-3 0-1.657 1.343-3 3-3 1.657 0 3 1.343 3 3z"/>
 </g>
</svg>
