<svg height="512" viewBox="0 0 512 512" width="512" xmlns="http://www.w3.org/2000/svg">
 <path d="m135.83297 163.81551c-8.07 0-14.562 6.489-14.562 14.562v164.91c0 8.07 6.489 14.594 14.562 14.594 8.07 0 14.562-6.52 14.562-14.594v-164.91c0-8.07-6.489-14.562-14.562-14.562m235.09 0c-8.07 0-14.562 6.489-14.562 14.562v164.91c0 8.07 6.489 14.594 14.562 14.594 8.07 0 14.594-6.52 14.594-14.594v-164.91c0-8.07-6.52-14.562-14.594-14.562" fill="#ffedb5"/>
 <path d="m135.55726 162.35168c-8.07 0-14.562 6.489-14.562 14.562v14.438l13.656 9.844 15.469 11.188 84.03 60.63c10.514 7.588 27.454 7.588 37.969 0l83.969-60.59 8.813-6.375 20.344-14.688v-14.438c0-8.07-6.52-14.562-14.594-14.562-2.043 0-3.989.408-5.75 1.156v-.406l-2.156 1.563c-.019.013-.043.019-.062.031l-.188.125c-.387.261-.766.548-1.125.844l-89.25 64.41c-10.514 7.588-27.454 7.588-37.969 0l-89.19-64.34v.063c-.404-.342-.81-.672-1.25-.969-2.323-1.566-5.129-2.469-8.156-2.469" fill="#ffedb5"/>
</svg>
