<svg height="512" viewBox="0 0 512 512" width="512" xmlns="http://www.w3.org/2000/svg">
 <g fill="#ffedb5" transform="matrix(2.8809347 0 0 2.8809347 -110.40602 -2411.4562)">
  <path d="m128.00001 853.70593c-21.09623 0-40.018466 9.2427-52.963474 23.89675l23.130828 40.0194c3.084946-13.62809 15.293686-23.85846 29.832646-23.85846l0-.0766 63.64807 0c-11.41838-23.65741-35.61318-39.9811-63.64807-39.9811z" overflow="visible"/>
  <path d="m69.789974 884.30449c-7.845597 11.38289-12.446224 25.18343-12.446224 40.0577 0 34.23197 24.325879 62.7784 56.63989 69.27759l23.09254-40.05769c-2.87148.89625-5.91584 1.37866-9.07617 1.37866-12.62892 0-23.52281-7.69129-28.185914-18.65019-.0049-.011.0049-.0275 0-.0382l-30.024122-51.96787z" overflow="visible"/>
  <path d="m128.00001 901.23136c-12.77439 0-23.13083 10.35644-23.13083 23.13083 0 12.77438 10.35644 23.13082 23.13083 23.13082 12.77438 0 23.13082-10.35644 23.13082-23.13082 0-12.77439-10.35644-23.13083-23.13082-23.13083z" overflow="visible"/>
  <path d="m148.37352 901.57602c6.26927 5.60968 10.22505 13.74383 10.22505 22.78617 0 6.95446-2.34799 13.3871-6.28056 18.5353l.0382.0382-29.94753 51.85288c1.84397.14422 3.71015.22978 5.59122.22978 39.03049 0 70.65626-31.62577 70.65626-70.65626 0-7.97962-1.35449-15.63251-3.79131-22.78616l-46.49143 0z" overflow="visible"/>
 </g>
</svg>
