<svg viewBox="0 0 512 512" xmlns="http://www.w3.org/2000/svg">
 <path d="m282.67 94.84c-77.81.277-141.38 60.976-146.25 137.63h82.03c4.563-31.487 31.523-55.708 64.22-55.969v-81.66m9.781 26.313v56.09c23.21 4.43 41.452 24.709 41.563 49.06.266 2.01.108 4.049 0 6.156h70.03c-4.606-59.22-52.39-106.52-111.59-111.31m-184.5 121.09c.169 96.47 78.28 174.62 174.72 174.91v-109.78c-35.8-.285-64.738-29.3-64.906-65.12h-109.81zm224.78 0c-4.885 17.931-20.99 31.14-40.28 31.656v37.906c1.592.109 3.192.188 4.813.188 40.23 0 73.26-30.575 77.25-69.75h-41.781" fill="#ffedb5"/>
</svg>
