<svg height="512" viewBox="0 0 512 512" width="512" xmlns="http://www.w3.org/2000/svg">
 <path d="m250.70625 7.9171853c-10.12491 22.5747637-20.68135 45.2057527-23.93824 67.0200587 1.04861 14.524597 7.15336 24.350101 20.39881 27.466426 16.86782-2.3882 23.53623-12.286796 23.89327-26.861996-2.75789-25.707961-12.44986-45.961993-20.35946-67.6258943m-63.16576 45.9380973c-2.43319.130725-4.91135 3.453685-4.3772 4.498085l31.68338 66.135908h.20101a35.394305 9.4724044 0 0 0 69.87072.56217h.24037l31.64262-66.135902c.65644-1.284766-3.19224-6.024623-5.98386-4.015947l-53.96296 59.149819a35.394305 9.4724044 0 0 0 -13.2113 0l-54.45072-59.712079c-.5229-.376715-1.08516-.511657-1.64602-.482139m-30.71911 48.185738c-2.94624-.0689-4.5037 5.08424-3.49304 5.98385l53.40773 50.19441 35.18346-10.35965c1.80907-.73515 3.09805-1.94401 1.7669-2.93078l-86.20861-42.80631c-.20803-.0534-.44559-.0759-.64238-.0801m185.71468 0c-.19679.006-.39359.0267-.60303.0801l-86.2086 42.80631c-1.33116.98817-.0422 2.19563 1.7669 2.93078l35.13707 10.35965 53.44287-50.19441c1.01066-.89961-.58756-6.05273-3.53381-5.98385m-72.08181 56.33851l-37.1837.7225c1.47594 2.2139 15.21899 16.22263 15.21899 16.22263l21.96471-16.95216m16.98027.12089l-25.34389 25.29891 37.62648 37.66584 36.38107-36.42184c-14.48805-12.40487-30.95245-21.54301-48.66928-26.54291m-66.29052.96427c-17.39494 5.47783-33.52479 14.97863-47.66565 27.62668l29.39358 29.39358 37.62648-37.7066-19.35582-19.31506m30.11749 29.2741l-37.62648 37.7066 37.62648 37.62648 37.7066-37.62648zm-85.37084 5.66477c-12.19262 12.54544-22.61693 27.58872-30.83999 44.49309l21.04119 21.00184 37.62648-37.62648zm181.30093 1.20465l-36.61722 36.70156 37.58572 37.58571 29.51446-29.51446c-8.07828-16.99433-18.41403-32.09384-30.47874-44.77422m-144.31824 29.91648l-37.7066 37.66584 37.7066 37.58571 37.62648-37.58571zm96.85642 4.97882l-37.62648 37.7066 37.62648 37.58572 37.62648-37.58572zm-168.77658 17.46803c-5.67883 13.41835-10.01105 27.86001-12.7352 43.04667l27.9078-27.82768-15.17963-15.21899m250.29031.44137l-24.81678 24.77602 37.66584 37.62648 2.12816-2.12816c-2.01571-21.54864-7.23489-41.84343-14.97863-60.27434m-225.15726 20.56047l-37.66583 37.62648 37.66583 37.66584 37.62648-37.66584zm95.16261 4.17619l-37.62648 37.62648 37.62648 37.66584 37.7066-37.66584zm96.89578 5.82221l-37.58572 37.62648 37.58572 37.66584 37.62648-37.66584zm-145.28814 36.74373l-37.70661 37.62648 37.70661 37.7066 37.62648-37.7066zm96.85641 5.01958l-37.62648 37.62648 37.62648 37.66584 37.62648-37.66584zm-184.71666 1.48577c-.0717 2.27013-.16025 4.5754-.16025 6.86661 0 17.26702 2.02274 34.00271 5.78286 49.75304l25.49851-25.49852zm279.07805 3.53381l-37.66584 37.62648 30.67975 30.67975c6.48427-20.08816 10.03917-42.01352 10.03917-64.96921v-.28113l-3.05167-3.05167m-238.00492 33.37017l-32.00387 32.04463c1.83156 5.98246 3.81353 11.82013 6.1441 17.46803l25.85977 25.82042 37.62648-37.62648zm95.16261 4.17619l-37.62648 37.7066 37.62648 37.62648 37.7066-37.62648zm96.89577 5.86297l-37.58571 37.66584 37.58571 37.58571 31.96452-31.92375c1.15966-2.64544 2.28137-5.30493 3.3328-8.03049l-35.29591-35.29591m-145.28814 34.25292l-37.7066 37.62648 37.7066 37.66584 37.62648-37.66584zm96.85642 5.01958l-37.62648 37.62648 37.62648 37.66584 37.62648-37.66584zm-143.64353 38.38834l-2.6103 2.56954c11.21429 14.675 24.47661 26.97445 39.19238 36.1407l1.0444-1.0444zm95.16261 4.1762l-37.62648 37.66583 11.08356 11.08357c10.06868 2.82535 20.56328 4.33643 31.32213 4.33643 6.49552 0 12.85187-.55242 19.11405-1.60666l13.81334-13.81334zm96.89577 5.8222l-28.18331 28.30983c11.092-6.99874 21.31811-15.75174 30.47874-25.98066l-2.2884-2.32917" fill="#ffedb5" fill-rule="evenodd"/>
</svg>
