<svg viewBox="0 0 48 48" xmlns="http://www.w3.org/2000/svg">
 <path d="m6.3444271 15.055379h34.863129v1.4515581h-34.863129z" fill="#5e5e5e"/>
 <path d="m6.3444271 23.769876h34.863129v1.4515581h-34.863129z" fill="#5e5e5e"/>
 <path d="m6.3444271 32.489517h34.863129v1.4515581h-34.863129z" fill="#5e5e5e"/>
 <path d="m-41.204014-15.058921h34.863129v1.4515581h-34.863129z" fill="#5e5e5e" transform="matrix(0 -1 -1 0 0 0)"/>
 <path d="m-41.204014-23.773418h34.863129v1.4515581h-34.863129z" fill="#5e5e5e" transform="matrix(0 -1 -1 0 0 0)"/>
 <path d="m-41.204014-32.493061h34.863129v1.4515581h-34.863129z" fill="#5e5e5e" transform="matrix(0 -1 -1 0 0 0)"/>
 <path d="m23.773418 6.3408852h7.262938v8.7144957h-7.262938z" fill="#ffedb5"/>
 <path d="m32.493061 25.247171h8.7144957v7.262938h-8.7144957z" fill="#ffedb5"/>
 <path d="m15.058921 25.247171h7.262938v7.262938h-7.262938z" fill="#ffedb5"/>
 <path d="m6.3444271 6.3408852h7.262938v8.7144957h-7.262938z" fill="#ffedb5"/>
</svg>
