<svg height="512" viewBox="0 0 512 512" width="512" xmlns="http://www.w3.org/2000/svg">
 <path d="m350.55 123.47c-2.81.143-5.662.939-8.313 2.469l-63.25 36.531c-8.481 4.897-11.588 15.28-6.969 23.281 4.62 8 15.175 10.49 23.656 5.594l63.25-36.5c8.481-4.897 11.588-15.28 6.969-23.281-3.176-5.501-9.162-8.409-15.344-8.094m-144.03 14.09c-2.193.039-5.247.887-8.219 5.344l-40.781 61.16-26.406 15.844c-10.439 6.625-10.531 13.635-10.531 13.719v51.844c-.014.395.467 7.456 10.5 11.469l26.438 10.563 40.906 61.38c3.201 5.364 6.07 5.125 8.625 5.125h22.563c5.058 0 9.156-5.993 9.156-9.875v-218.37c0-1.233-.56-8.156-7.563-8.156h-23.781c-.274-.019-.593-.037-.906-.031m94.19 101.22c-9.793 0-17.688 7.448-17.688 16.688 0 9.239 7.894 16.688 17.688 16.688h73.03c9.793 0 17.688-7.448 17.688-16.688 0-9.239-7.894-16.688-17.688-16.688zm-15.03 79.38c-5.567.24-10.769 3.093-13.656 8.094-4.62 8-1.513 18.385 6.969 23.281l63.25 36.531c8.481 4.897 19.04 2.376 23.656-5.625 4.62-8 1.513-18.385-6.969-23.281l-63.25-36.5c-3.181-1.836-6.66-2.644-10-2.5" fill="#ffedb5"/>
</svg>
