<svg height="512" viewBox="0 0 512 512" width="512" xmlns="http://www.w3.org/2000/svg">
 <path d="m229.59918 42.345006c-5.05251 0-12.47197 8.071888-22.22804 24.215663-14.61133-8.739487-37.05178-17.099657-56.51839-17.008621 1.68418 13.731312 2.51868 23.017017 2.51868 27.826775 0 5.841492-.16691 10.302275-.50071 13.397514-17.00862 61.146063-51.79967 95.117783-63.088171 156.112123-1.031746 5.5684 4.56699 9.27053 6.584962 12.35059 6.053919 9.27054 16.295489 15.80999 30.755099 19.588 6.73669 1.7145 10.10504 2.57936 10.10504 2.57936 4.36974 0 8.25396-2.2304 11.62229-6.69117 0 10.65125 4.21803 15.97687 12.62372 15.97687 3.36835 0 5.87185-1.36554 7.55602-4.11181 17.2969-27.09848 32.16616-52.14865 66.62342-66.47169-8.69398 43.80365-52.8466 71.26627-54.7887 125.70599h-22.91081c-4.20285 0-7.58636 3.38352-7.58636 7.58637v7.58635l-30.34545 75.86362h333.79987l-30.34543-75.86362v-7.58635c0-4.20285-3.38352-7.58637-7.58637-7.58637h-22.60735c0-121.38177-30.33028-242.76354-134.90067-261.729444-5.08286-15.749283-10.30228-31.741326-28.76748-41.724978m23.1991 64.393032c76.47051 3.56559 114.59956 107.55942 115.57061 183.89338v19.05694c-.6676 8.93673-3.68697 13.39751-9.07328 13.39751-6.38772 0-9.60434-7.55601-9.60434-22.66804-.3338-77.95745-21.49975-156.90112-95.95229-179.55399-7.04014-1.5021-7.49532-7.13118-7.49532-8.5119 0-3.77801 2.1697-5.65942 6.55462-5.65942zm-71.1449 20.61973c8.07189 0 12.12301 2.23038 12.12301 6.69117 0 3.77801-2.53385 8.23878-7.58637 13.39751-9.42225 9.9533-18.34382 14.92995-26.76467 14.92995-4.36975 0-6.55463-3.09523-6.55463-9.27053.10615-10.81815 11.25817-24.36738 28.76749-25.7481zm-61.14607 103.03795l-.091.0152c2.6097 8.14774-4.23319 19.17832-15.55203 20.95353-2.35179-9.27053 1.03173-18.20728 15.64306-21.10525z" fill="#ffedb5"/>
</svg>
