<svg height="512" viewBox="0 0 512 512" width="512" xmlns="http://www.w3.org/2000/svg">
 <path d="m276.55605 56.58674c-71.08367 0-133.44101 38.102529-168.49087 94.8016l-27.927679-33.67802c-.282701-.16435-.631133-.17969-.931361-.30241-3.986225-4.23386-12.541603-1.66769-13.65266 4.05416l-28.554436 166.51857c-1.010253 4.67654 3.304684 9.73437 8.068872 9.66862l35.683176-9.04405c15.515382 94.47288 97.499258 166.83415 195.804958 166.83415 109.3111 0 198.58809-89.40847 198.58809-199.26743 0-109.85678-89.27918-199.57423-198.58809-199.57423zm24.19348 60.47272c10.42905.13805 21.37967 2.14104 32.89347 5.61228 60.28208 23.07365 103.01949 64.67808 103.01949 133.48485 0 89.06879-71.48469 160.89535-160.10644 160.89535-80.91884 0-147.26461-59.92924-158.24371-138.14822l88.74446-22.76466c5.77444-.17971 9.65985-8.13243 6.20615-12.78485l-35.99437-27.13c.77359-3.02638-11.19823-11.3363 36.89067-62.74744 22.68576-24.25921 53.09854-36.80519 86.60781-36.43703" fill="#ffedb5"/>
</svg>
