<svg viewBox="0 0 512 512" xmlns="http://www.w3.org/2000/svg">
 <path d="m251.23058 89.47012c-7.095.073-14.373.477-21.813 1.25 226.04 41.723 199.07 312.63-2.688 331.81 296.15-11.654 244.45-335.34 24.5-333.06m-4.313 70.75c-3.02.035-6.089.204-9.219.469 113.4 22.656 99.82 181.63-1.469 194.47 166.75-3.403 136.55-196.4 10.688-194.94m-11.594 44.03c-28.582 0-51.75 23.17-51.75 51.75 0 28.582 23.17 51.75 51.75 51.75 28.582 0 51.75-23.17 51.75-51.75 0-28.582-23.17-51.75-51.75-51.75m-.031 13.688c18.512 0 29.469 7.644 29.469 20.344 0 8.933-4.935 15.723-14.406 19.813-7.534 3.336-8.844 4.855-8.844 10.344v.844h-10.75c-.215-1.292-.219-1.917-.219-3.531 0-7.857 1.411-10.445 9.375-16.688 3.552-2.906 5.25-6.132 5.25-10.438 0-6.888-4.522-11.313-11.625-11.313-5.812 0-10.969 2.705-10.969 5.719 0 .753.014.736.875 2.781.323.861.75 2.799.75 3.875 0 4.736-3.771 8.188-8.938 8.188-5.812 0-9.375-3.758-9.375-10 0-11.301 12.724-19.938 29.406-19.938m1.281 56.19c5.597 0 10 4.417 10 9.906 0 5.489-4.511 10-10 10-5.489 0-9.906-4.514-9.906-10.219 0-5.274 4.525-9.688 9.906-9.688" fill="#ffedb5" fill-rule="evenodd"/>
</svg>
