<svg height="512" viewBox="0 0 135.47 135.47" width="512" xmlns="http://www.w3.org/2000/svg">
 <path d="m46.349852 253.31731l-3.703108-3.79227-3.38455 3.30491c-1.862667 1.81769-3.821113 3.30491-4.354513 3.30491-.534458 0-2.680229-1.90341-4.770438-4.22989-3.66157-4.07485-3.735917-4.28758-2.057135-5.80787 1.553633-1.406 1.743869-3.18029 1.743869-16.27188v-14.69231l6.809581-6.85535 6.809582-6.85536 3.566848 3.48298 3.566848 3.48297 3.114939-3.01916c1.713178-1.66052 3.601244-3.01916 4.195763-3.01916.594519 0 3.652838 2.38125 6.796352 5.2914l5.71553 5.29141v15.1712c0 14.31661.116416 15.2953 2.069306 17.37519l2.069306 2.20266-4.628621 4.69926-4.628621 4.69927-3.834871-3.76344-3.83487-3.76343-3.779044 3.77904-3.779044 3.77905zm-1.428221-21.68551c0-10.80691-.188383-12.17613-1.887273-13.71309-1.879335-1.70074-1.887273-1.64809-1.887273 12.43515 0 7.77875.2794 14.42244.620978 14.76402.341577.34157 1.190625.1479 1.887273-.42995.937947-.77841 1.266295-4.16428 1.266295-13.05719m15.097126.49001c0-11.06276-.0926-11.60225-2.359025-13.73135l-2.359025-2.21615v13.65806c0 14.00281.727604 17.1159 3.468687 14.84048.91149-.75645 1.249098-4.14867 1.249098-12.55184m24.561272 20.73805c-3.929063-4.00315-4.060031-4.30954-2.55561-5.97191 1.351756-1.49384 1.585648-4.07326 1.585648-17.48367v-15.73213h-11.736918l5.603876-5.66182 5.603875-5.66181h25.365605l-5.10382 5.55519c-2.80696 3.05541-5.847285 5.60387-6.75507 5.66155-1.500981.0968-1.651265 1.51077-1.651265 15.52999 0 14.30602.138906 15.54929 1.917171 17.15823 1.909234 1.72772 1.89865 1.75365-2.559579 6.27962-2.461948 2.49978-4.722548 4.54554-5.023115 4.54554-.300567 0-2.410354-1.89892-4.687888-4.21958" fill="#ffedb5" transform="translate(0 -161.53332)"/>
</svg>
