<svg height="512" viewBox="0 0 512 512" width="512" xmlns="http://www.w3.org/2000/svg">
 <g fill="#ffedb5" transform="translate(696.46422 -66.56686)">
  <ellipse cx="-643.254" cy="-42.305" rx="107.39" ry="105.22" transform="translate(201.76271 412.20339)"/>
  <ellipse cx="-643.254" cy="-42.305" rx="107.39" ry="105.22" transform="matrix(.95070335 0 0 .9581343 170.09662 410.73774)"/>
  <path d="m-540.27752 360.41549c0 0 32.29686 13.60557 50.82661 15.04499 20.18605 1.56808 41.85803-9.5096 60.27775-7.48419 27.09717 2.97957 82.21989 33.02886 82.21989 33.02886 0 0-12.52701 40.97757-48.13519 56.38924-13.89669 6.01467-14.57574 7.74606-36.64072 10.136-17.20141 1.86316-35.34973-.29711-55.91648-10.05822-20.10745-9.54313-34.58115-27.95432-44.9934-49.44452-11.37836-23.48419-7.63846-47.61216-7.63846-47.61216z"/>
 </g>
 <g fill="#ffedb5" transform="translate(693.07769 -170.84699)">
  <ellipse cx="-643.254" cy="-42.305" rx="107.39" ry="105.22" transform="translate(201.76271 412.20339)"/>
  <ellipse cx="-643.254" cy="-42.305" rx="107.39" ry="105.22" transform="matrix(.95070335 0 0 .9581343 170.09662 410.73774)"/>
  <path d="m-540.27752 360.41549c0 0 32.29686 13.60557 50.82661 15.04499 20.18605 1.56808 41.85803-9.5096 60.27775-7.48419 27.09717 2.97957 82.21989 33.02886 82.21989 33.02886 0 0-12.52701 40.97757-48.13519 56.38924-13.89669 6.01467-14.57574 7.74606-36.64072 10.136-17.20141 1.86316-35.34973-.29711-55.91648-10.05822-20.10745-9.54313-34.58115-27.95432-44.9934-49.44452-11.37836-23.48419-7.63846-47.61216-7.63846-47.61216z"/>
 </g>
 <g fill="#ffedb5" transform="translate(615.30646 -123.29106)">
  <ellipse cx="-643.254" cy="-42.305" rx="107.39" ry="105.22" transform="translate(201.76271 412.20339)"/>
  <ellipse cx="-643.254" cy="-42.305" rx="107.39" ry="105.22" transform="matrix(.95070335 0 0 .9581343 170.09662 410.73774)"/>
  <path d="m-540.27752 360.41549c0 0 32.29686 13.60557 50.82661 15.04499 20.18605 1.56808 41.85803-9.5096 60.27775-7.48419 27.09717 2.97957 82.21989 33.02886 82.21989 33.02886 0 0-12.52701 40.97757-48.13519 56.38924-13.89669 6.01467-14.57574 7.74606-36.64072 10.136-17.20141 1.86316-35.34973-.29711-55.91648-10.05822-20.10745-9.54313-34.58115-27.95432-44.9934-49.44452-11.37836-23.48419-7.63846-47.61216-7.63846-47.61216z"/>
 </g>
 <g fill="#ffedb5" transform="translate(775.91705 -117.62075)">
  <ellipse cx="-643.254" cy="-42.305" rx="107.39" ry="105.22" transform="translate(201.76271 412.20339)"/>
  <ellipse cx="-643.254" cy="-42.305" rx="107.39" ry="105.22" transform="matrix(.95070335 0 0 .9581343 170.09662 410.73774)"/>
  <path d="m-540.27752 360.41549c0 0 32.29686 13.60557 50.82661 15.04499 20.18605 1.56808 41.85803-9.5096 60.27775-7.48419 27.09717 2.97957 82.21989 33.02886 82.21989 33.02886 0 0-12.52701 40.97757-48.13519 56.38924-13.89669 6.01467-14.57574 7.74606-36.64072 10.136-17.20141 1.86316-35.34973-.29711-55.91648-10.05822-20.10745-9.54313-34.58115-27.95432-44.9934-49.44452-11.37836-23.48419-7.63846-47.61216-7.63846-47.61216z"/>
 </g>
 <g fill="#ffedb5" transform="translate(699.21394 -114.08669)">
  <ellipse cx="-643.254" cy="-42.305" rx="107.39" ry="105.22" transform="translate(201.76271 412.20339)"/>
  <ellipse cx="-643.254" cy="-42.305" rx="107.39" ry="105.22" transform="matrix(.95070335 0 0 .9581343 170.09662 410.73774)"/>
  <path d="m-540.27752 360.41549c0 0 32.29686 13.60557 50.82661 15.04499 20.18605 1.56808 41.85803-9.5096 60.27775-7.48419 27.09717 2.97957 82.21989 33.02886 82.21989 33.02886 0 0-12.52701 40.97757-48.13519 56.38924-13.89669 6.01467-14.57574 7.74606-36.64072 10.136-17.20141 1.86316-35.34973-.29711-55.91648-10.05822-20.10745-9.54313-34.58115-27.95432-44.9934-49.44452-11.37836-23.48419-7.63846-47.61216-7.63846-47.61216z"/>
 </g>
</svg>
