<svg viewBox="0 0 512 512" xmlns="http://www.w3.org/2000/svg">
 <path d="m322.63 94.01c-5.496.286-10.662 3.498-13.204 8.835l-36.972 77.64h34.33l30.634-64.29c3.698-7.763.464-16.949-7.298-20.646-2.426-1.156-4.992-1.667-7.49-1.536m-15.845 86.47l-30.442 63.956c-3.698 7.763-12.884 10.996-20.646 7.298-7.763-3.698-11.04-12.884-7.346-20.646l24.1-50.608h-111.87c-12.546-.519-21.471 8.5-14.12 20.742l95.36 93.05v97.85h-49.46c-7.164 0-12.916 5.752-12.916 12.916 0 7.164 5.752 12.964 12.916 12.964h127.34c7.164 0 12.964-5.8 12.964-12.964 0-7.164-5.8-12.916-12.964-12.916h-49.41v-97.9l90.99-88.3c5.256-4.085 8.268-10.984 6.338-16.901-1.827-5.28-7.301-8.687-14.597-8.643-.486.003-.986.062-1.488.096h-44.75" fill="#ffedb5" fill-rule="evenodd"/>
</svg>
