<svg viewBox="0 0 512 512" xmlns="http://www.w3.org/2000/svg">
 <path d="m369.19 148.97l-209.53 214.06h49.25l186.25-188.09-25.969-25.969m-211.87 30.75c-22.371 0-40.469 18.13-40.469 40.5 0 22.371 18.1 40.469 40.469 40.469.921 0 1.767-.301 2.688-.344l-.344.344c1.21.417 3.386-.142 5.688-.688 4.56-1.124 9.957-2.621 12.719.344l28.09 26.406 20.06-20.06-27.75-26.09c-2.89-2.59-2.093-7.28-1.344-12.375.375-2.505.645-5.172.688-7.688v-.344c0-22.371-18.1-40.469-40.469-40.469h-.031m.687 24.75c8.863 0 16.06 7.2 16.06 16.06 0 8.863-7.2 16.06-16.06 16.06-8.863 0-16.06-7.2-16.06-16.06 0-8.863 7.2-16.06 16.06-16.06m200.84 30.13l-124.25 128.44h47.25l102.59-100.75-25.594-27.688m9.313 71.19l-58.62 57.25h50.16l31.28-32.09-22.813-25.16" fill="#ffedb5" fill-opacity=".914"/>
</svg>
