<svg viewBox="0 0 512 512" xmlns="http://www.w3.org/2000/svg">
 <path d="m202.63 145.59c-13.14.084-26.347 3.203-38.28 9.406-15.559 8.144-29.14 22.653-35.34 37.781-5.087 12.635-4.827 7.735-5.125 91.88l-.313 81.63 54.34.125v-78.59c0-72.45-.016-72.7 1.75-77.09 3.796-9.435 13.744-15.276 25-14.625 14.05.695 22.906 10.393 23.469 17.688v152.5h54.22l.25-79.06.219-73.31 2.031-3.844c2.715-5.131 8.705-10.573 13.406-12.25l3.906-1.375v-50.813l-5.063.656c-12.282 1.556-26.716 7.07-36.625 13.969l-5.094 3.531-5.188-3.656c-13.891-9.745-30.667-14.64-47.563-14.531m111.03.656v50.28l3.969 1.656c5.562 2.372 9.782 6.44 12.75 12.344 2.196 4.359 2.531 5.894 2.531 11.5.044 5.606-.264 7.149-2.25 10.813-3.101 5.904-8.508 10.752-19.16 17.219-10.307 6.213-14.412 10.218-16.906 16.375-3.321 8.144-1.931 20.823 3.156 29.19 1.203 1.854 10.11 14.09 19.938 27.16 9.832 13.07 19.249 25.806 20.938 28.344 5.297 7.669 10.01 11.747 16.09 13.469 3.619.993 12.04.716 16.344-.531l-.063-.031c6.599-1.942 11.73-6.067 14.875-11.75 2.582-4.657 2.723-5.407 2.469-11.531-.342-8.662-2.635-13.09-15.656-30.03-16.464-21.595-22-29.05-22-29.656 0-.298 2.746-2.688 6.156-5.281 12.502-9.567 22.891-24.899 27.25-40.28 1.898-6.555 2.188-9.291 2.188-19.16.044-13.573-1.591-21.17-6.844-31.594-8.497-16.938-24.282-29.25-44.719-35.03-6.555-1.81-15.498-3.425-19.25-3.469h-1.813" fill="#ffedb5"/>
</svg>
