<svg height="512" viewBox="0 0 512 512" width="512" xmlns="http://www.w3.org/2000/svg">
 <path d="m236.67481 81.143547l-155.936033 29.225093 34.391953 35.04427-.0814.0814-.04.04c-41.3866 44.16379-49.550249 106.69579-35.763757 160.77996 13.796825 54.06868 49.692337 100.28888 97.679607 111.16514.0129.003.0271-.003.0401 0l6.70142 1.53456 1.77611.4043-1.13025-1.45318-4.27946-5.48979c-54.49759-69.86894-60.60095-160.96079-10.93961-212.20319l36.52974 37.21823 31.03995-156.336459m101.88415 0l1.13025 1.453181 4.27946 5.449752c54.49752 69.868956 60.60088 160.960806 10.93955 212.203206l-36.52975-37.21823-31.03995 156.37521 155.93603-29.26513-34.39196-35.03135.0814-.0814h.0401c41.38653-44.16377 49.55018-106.69577 35.76498-160.77995-13.79683-54.06867-49.69234-100.288877-97.67961-111.165131-.0129-.0026-.0284.0026-.0401 0l-6.70142-1.534559-1.77611-.404308" fill="#ffedb5"/>
</svg>
