<svg height="512" viewBox="0 0 512 512" width="512" xmlns="http://www.w3.org/2000/svg">
 <g fill="#ffedb5" transform="matrix(1.4920553 0 0 1.4920553 -122.96016 -121.80928)">
  <path d="m285.88958 143.5365c-45.62369.26894-91.2494-.0506-136.87296.12103-12.39713.0996-14.98838.44491-16.93061.75953-11.71216 1.89721-16.55221 4.1647-23.82131 11.19592-8.393724 8.11902-14.129329 16.85152-19.212578 29.23057-1.638388 3.98989-4.401496 12.00724-5.672295 16.44505l-.548927 1.92126 6.358447-.0113 2.321525-3.76244c5.50895-8.95529 12.097408-16.51689 17.371378-19.94448 6.58116-4.27713 15.36885-6.28058 27.65239-6.28984h4.15128c-.95109 10.90686-1.68053 21.83329-2.47018 32.75287-2.45292 34.1225-2.4896 34.55528-3.86539 43.36555-4.00877 25.67122-7.53694 35.40019-18.22907 50.27292-9.63513 13.40244-11.28904 16.53519-12.08792 22.90641-1.10952 8.84858 3.54366 16.23931 12.08792 19.21258 3.98457 1.30989 8.61883 1.33551 12.45386-.44599v.0113c4.41136-2.17168 9.55177-8.17647 12.7512-14.88978 5.84977-12.27436 12.36822-46.23459 16.83389-87.68025.37842-3.51218 4.76883-63.80609 4.76883-65.4303l51.32504-.0755c-3.37003 23.48951-5.41684 47.17116-7.43344 70.81208-.62744 8.22112-.85747 35.39664-.36596 42.8738 1.37301 20.88686 4.75332 33.89857 10.94431 42.0847 5.3723 7.1035 11.78872 11.46293 19.32695 13.14002 3.38111.75222 10.41645.55716 13.84907-.38882 5.78427-1.59406 12.00023-5.43716 17.2227-10.64696 6.78352-6.76715 11.15601-15.28058 14.44375-28.14416 1.26768-4.95988 3.28215-15.66981 3.28215-17.4171l-6.36988.12578c-1.09198 5.30384-1.52134 6.95576-2.36727 9.03449-2.41679 5.93873-7.10087 10.35671-13.22009 12.49959-7.58668 2.26511-15.65257 1.12015-22.3918-2.85898-6.54971-4.27847-10.55953-11.46248-12.22515-21.91149-1.74516-36.4628 2.4774-73.03888 7.53637-109.11147l49.40377-.0915v-29.66514z"/>
  <path d="m311.06223 149.07386a59.208656 114.20357 0 0 1 25.35743 93.64313 59.208656 114.20357 0 0 1 -24.63282 92.53626 38.393112 95.752419 0 0 0 29.20313-92.86987 38.393112 95.752419 0 0 0 -29.92774-93.30952z"/>
  <path d="m350.38975 126.16949a59.208656 147.50911 0 0 1 25.35743 120.95256 59.208656 147.50911 0 0 1 -24.63282 119.52289 38.393112 123.67699 0 0 0 29.20313-119.95379 38.393112 123.67699 0 0 0 -29.92774-120.52166z"/>
  <path d="m387.02325 101.31105a59.208656 179.4102 0 0 1 25.35743 147.11038 59.208656 179.4102 0 0 1 -24.63282 145.37153 38.393112 150.42402 0 0 0 29.20313-145.89562 38.393112 150.42402 0 0 0 -29.92774-146.58629z"/>
 </g>
</svg>
