<svg height="512" width="512" xmlns="http://www.w3.org/2000/svg">
 <g fill="#ffedb5" transform="matrix(.96195 0 0 .96195 584.17 55.545)">
  <path d="m-516.39 145.8h350.49v12.517h-350.49z"/>
  <path d="m-516.39 258.45h350.49v12.517h-350.49z"/>
  <path d="m33.14 391.22h350.49v12.517h-350.49z" transform="rotate(90)"/>
  <path d="m33.14 278.56h350.49v12.517h-350.49z" transform="rotate(90)"/>
  <path d="m12.848 1016.5h3.7383v1.1054h-2.5391v.9024c.11458-.031.22916-.055.34375-.07.11718-.018.23828-.027.36328-.027.71093 0 1.2643.1784 1.6602.5352.39583.3541.59374.8489.59375 1.4843-.000005.6302-.21615 1.1237-.64844 1.4805-.42969.3568-1.0273.5352-1.793.5352-.33073 0-.65886-.033-.98438-.098-.32292-.063-.64453-.1588-.96484-.2891v-1.1835c.31771.1822.61849.319.90234.4101.28646.091.55599.1367.80859.1367.36458 0 .65104-.088.85938-.2656.21093-.1797.3164-.4219.31641-.7266-.000003-.3073-.10547-.5494-.31641-.7265-.20834-.1771-.49479-.2656-.85938-.2656-.21615 0-.44662.029-.69141.086-.24479.055-.50781.1406-.78906.2578v-3.2812" transform="matrix(12.517 0 0 12.517 -641.56 -12664)"/>
  <path d="m23.863 1021.3h2.5664v1.1055h-4.2383v-1.1055l2.1289-1.8789c.1901-.1719.33073-.3398.42188-.5039.09114-.1641.13672-.3346.13672-.5117-.000003-.2735-.09245-.4935-.27734-.6602-.1823-.1666-.42578-.25-.73047-.25-.23438 0-.49089.051-.76953.1524-.27865.099-.57682.2474-.89453.4453v-1.2813c.33854-.1119.67318-.1966 1.0039-.2539.33073-.06.65494-.09.97266-.09.69791 0 1.2396.1536 1.625.4609.38802.3073.58203.7357.58203 1.2852-.000005.3177-.08204.6146-.24609.8906-.16407.2734-.50912.6406-1.0352 1.1016l-1.2461 1.0937" transform="matrix(12.517 0 0 12.517 -644.88 -12664)"/>
  <path d="m25.169 1028.2c.39322.1015.6914.2786.89453.5312.20572.25.30859.569.30859.957-.000005.5782-.22136 1.0183-.66406 1.3203-.44271.2995-1.0885.4493-1.9375.4493-.29948 0-.60026-.025-.90234-.074-.29948-.047-.59636-.1184-.89062-.2148v-1.1602c.28125.1407.5599.2474.83594.3204.27864.07.55208.1054.82031.1054.39844 0 .70312-.069.91406-.207.21354-.138.32031-.3359.32031-.5938-.000003-.2656-.10938-.4661-.32812-.6015-.21615-.138-.53646-.207-.96094-.207h-.60156v-.9688h.63281c.3776 0 .65885-.059.84375-.1758.18489-.1198.27734-.3008.27734-.5429-.000004-.224-.08985-.3972-.26953-.5196-.17969-.1224-.4336-.1836-.76172-.1836-.24219 0-.48698.027-.73438.082s-.49349.1354-.73828.2421v-1.1015c.29687-.083.59114-.1458.88281-.1875.29166-.042.57812-.063.85938-.063.75781 0 1.3242.125 1.6992.375.3776.2474.5664.6211.56641 1.1211-.000005.3411-.08985.6211-.26953.8398-.17969.2162-.44532.3685-.79688.4571" transform="matrix(12.517 0 0 12.517 -641.56 -12664)"/>
  <path d="m31.154 1040.2v-1.0781c.23958.1119.46875.1966.6875.2539.21875.055.43489.082.64844.082.44791 0 .79687-.1237 1.0469-.3711.25-.25.39713-.6198.44141-1.1094-.17709.1302-.36589.2279-.56641.293-.20052.065-.41797.098-.65234.098-.59636 0-1.0781-.1731-1.4453-.5195-.36458-.3489-.54688-.8073-.54688-1.375 0-.6276.20312-1.1302.60938-1.5078.40885-.3776.95573-.5664 1.6406-.5664.76041 0 1.349.2565 1.7656.7695.41666.5131.625 1.2383.625 2.1758-.000005.9636-.24349 1.7214-.73047 2.2734-.48698.5495-1.155.8243-2.0039.8243-.27344 0-.53516-.021-.78516-.063-.25-.039-.49479-.099-.73438-.1797m1.8555-2.8086c.26302 0 .46093-.085.59375-.2539.13281-.1719.19922-.4284.19922-.7696-.000004-.3385-.06641-.5937-.19922-.7656-.13282-.1718-.33073-.2578-.59375-.2578s-.46094.086-.59375.2578c-.13282.1719-.19922.4271-.19922.7656-.000002.3412.0664.5977.19922.7696.13281.1693.33073.2539.59375.2539" transform="matrix(12.517 0 0 12.517 -641.56 -12664)"/>
 </g>
</svg>
