<svg height="512" viewBox="0 0 512 512" width="512" xmlns="http://www.w3.org/2000/svg">
 <path d="m250.63737 45.061757c-31.13062.703795-65.09282 10.360507-102.29572 32.227221l73.14552 121.216272c24.17453-13.81397 46.1558-11.1952 67.51516 0l71.607-121.216272c-34.14224-19.558943-69.93753-33.176539-109.97196-32.227221m4.0918 170.841963c-21.42481 0-38.87236 17.90584-38.87236 39.90352 0 21.99767 17.44755 39.90351 38.87236 39.90351 21.42481 0 38.87236-17.90584 38.87236-39.90351 0-21.99768-17.44755-39.90352-38.87236-39.90352m-205.098734 30.18135c-.83476 83.30958 31.327006 145.89816 96.665294 187.71669l74.1603-120.70895c-22.70144-16.30183-30.11584-37.26835-29.67393-61.88479m268.01472-3.58444l-139.12215 5.12296c-.37637 28.44639-13.17569 46.41768-33.24201 59.83889l71.09959 125.30813c86.19028-55.56703 101.59192-121.85461 101.28094-190.26998m0 0" fill="#ffedb5"/>
</svg>
