<svg height="512" viewBox="0 0 512 512" width="512" xmlns="http://www.w3.org/2000/svg">
 <g fill="#ffedb5" transform="matrix(10.427 0 0 10.427 293.87 -1562.4)">
  <path d="m-.869 182.54c-.672.168-1.563.346-2.676.535-1.091.189-2.361.283-3.809.283-1.259 0-2.319-.178-3.179-.535-.86-.378-1.553-.902-2.077-1.574-.525-.672-.902-1.458-1.133-2.361-.231-.923-.346-1.941-.346-3.053v-9.191h3v8.562c0 1.994.242 3.421.872 4.281s1.689 1.291 3.179 1.291c.315 0 .64-.011.976-.031.336-.021.651-.042.944-.063.294-.042.556-.073.787-.094.252-.042.137-.084.242-.126v-13.818h3v15.896"/>
  <path d="m3.911 161.08h2v26h-2z"/>
 </g>
</svg>
