<svg viewBox="0 0 512 512" xmlns="http://www.w3.org/2000/svg">
 <path d="m327.5 129.25c-32.745 0-60.695 21.459-71.53 51.56-10.141-28.423-38.12-48.853-71.16-48.853-41.51 0-75.24 32.34-75.24 72.32 0 16.497 5.732 31.737 15.399 43.914-10.529 13.854-16.833 31.487-16.833 50.658 0 44.637 34.12 80.82 76.2 80.82 32.32 0 59.893-21.328 70.996-51.4 10.01 31.698 37.631 54.48 70.15 54.48 40.929 0 74.13-36.16 74.13-80.77 0-16.425-4.493-31.691-12.213-44.45 10.269-13.492 16.461-30.493 16.461-49.01 0-43.781-34.24-79.28-76.36-79.28m-137.64 49.915c15.22 0 27.506 12.09 27.506 27.03v27.03c0 0-19.542.053-27.506.053-15.22 0-27.559-12.136-27.559-27.08 0-14.935 12.381-27.03 27.559-27.03m138.7 2.071l.106.053c6.274-.084 12.312 2.35 16.727 6.85 4.415 4.489 6.881 10.634 6.797 16.992 0 18.796-2.789 36.815-12.532 50.552 2.08 1.1 3.997 2.531 5.682 4.248 4.415 4.447 6.881 10.581 6.797 16.939l.053 27.612c0 12.992-10.361 23.577-23.15 23.577-12.759 0-23.1-10.585-23.1-23.577v-26.763c-11.6 2.963-24.515 3.452-38.976 3.452-24.589 0-43.579.492-50.18 3.133-3.306 1.278-3.724 1.606-5.04 4.04-1.278 2.44-3.133 8.334-3.133 19.435 0 12.992-10.35 23.524-23.1 23.524-12.791 0-23.15-10.532-23.15-23.524 0-16.05 2.393-29.951 8.868-42 6.475-12.08 17.52-20.967 28.621-25.382 22.2-8.872 43.893-6.319 67.12-6.319 22.403 0 32.508-3.694 34.409-5.257 1.901-1.606 4.514-5.432 4.514-23.789-.169-12.96 9.967-23.578 22.674-23.789" fill="#ffedb5" fill-rule="evenodd"/>
</svg>
