<svg viewBox="0 0 512 512" xmlns="http://www.w3.org/2000/svg">
 <path d="m179.38118 100.56161c-7.9054 0-14.3004 6.35473-14.3004 14.26163v81.26074c0 7.90541 6.39351 14.3004 14.3004 14.3004h153.21751c7.9054 0 14.26163-6.3935 14.26163-14.3004v-81.26074c0-7.9054-6.35474-14.26163-14.26163-14.26163zm58.87155 129.48042v24.20974h-186.526961v22.49953 10.33577 29.14353h34.472448v-29.14353h152.099243v31.24289h34.42771v-31.24289h151.51775v31.86465h34.47244v-31.86465-7.57738-25.25792h-185.97528v-24.20974h-34.42771-.0388m-211.740123 108.68811c-7.905403 0-14.261633 6.35474-14.261633 14.26163v44.18199c0 7.9054 6.354739 14.26163 14.261633 14.26163h90.930023c7.90541 0 14.26164-6.35473 14.26164-14.26163v-44.18199c0-7.9054-6.35474-14.26163-14.26164-14.26163zm182.292453 0c-7.9054 0-14.26163 6.35474-14.26163 14.26163v44.18199c0 7.9054 6.35474 14.26163 14.26163 14.26163h90.93003c7.9054 0 14.26163-6.35473 14.26163-14.26163v-44.18199c0-7.9054-6.35474-14.26163-14.26163-14.26163zm185.75163 0c-7.90541 0-14.26164 6.35474-14.26164 14.26163v44.18199c0 7.9054 6.35474 14.26163 14.26164 14.26163h90.89126c7.9054 0 14.3004-6.35473 14.3004-14.26163v-44.18199c0-7.9054-6.39351-14.26163-14.3004-14.26163z" fill="#d44e2b" fill-rule="evenodd"/>
</svg>
