<svg height="512" viewBox="0 0 512 512" width="512" xmlns="http://www.w3.org/2000/svg">
 <text x="729.64" y="231.36">
  
 </text>
 <text x="1310.91" y="151.36">
  
 </text>
 <text x="239.33" y="-29.9">
  
 </text>
 <text x="1337.38" y="-246.37">
  
 </text>
 <text x="1918.65" y="-326.38">
  
 </text>
 <text x="1529.53" y="-798.78">
  
 </text>
 <text x="2110.79" y="-878.78">
  
 </text>
 <text x="277.99" y="535.94">
  
 </text>
 <text x="-307.18" y="-11.34">
  
 </text>
 <text x="438.2" y="41.8">
  
 </text>
 <text x="1337.81" y="-82.02">
  
 </text>
 <text x="465.66" y="-134.65">
  
 </text>
 <text x="1365.27" y="-258.47">
  
 </text>
 <text x="-2544.32" y="317.23">
  
 </text>
 <text x="-616.04" y="81.8">
  
 </text>
 <text x="129.34" y="134.94">
  
 </text>
 <text x="1028.95" y="11.13">
  
 </text>
 <text x="156.8" y="-41.51">
  
 </text>
 <text x="1056.42" y="-165.33">
  
 </text>
 <text x="-2853.18" y="410.37">
  
 </text>
 <text x="-1330.61" y="-35.06">
  
 </text>
 <text x="-585.23" y="18.09">
  
 </text>
 <text x="314.38" y="-105.73">
  
 </text>
 <text x="-557.77" y="-158.37">
  
 </text>
 <text x="341.85" y="-282.18">
  
 </text>
 <text x="-3567.75" y="293.52">
  
 </text>
 <text x="729.64" y="231.36">
  
 </text>
 <text x="1310.91" y="151.36">
  
 </text>
 <text x="239.33" y="-29.9">
  
 </text>
 <text x="1337.38" y="-246.37">
  
 </text>
 <text x="1918.65" y="-326.38">
  
 </text>
 <text x="1529.53" y="-798.78">
  
 </text>
 <text x="2110.79" y="-878.78">
  
 </text>
 <text x="277.99" y="535.94">
  
 </text>
 <text x="104.96" y="227.12">
  
 </text>
 <text x="686.23" y="147.11">
  
 </text>
 <text x="-385.35" y="-34.14">
  
 </text>
 <text x="712.7" y="-250.62">
  
 </text>
 <text x="1293.97" y="-330.62">
  
 </text>
 <text x="904.85" y="-803.02">
  
 </text>
 <text x="1486.12" y="-883.02">
  
 </text>
 <text x="-346.69" y="531.69">
  
 </text>
 <text x="-931.86" y="-15.58">
  
 </text>
 <text x="-186.48" y="37.56">
  
 </text>
 <text x="713.13" y="-86.26">
  
 </text>
 <text x="-159.02" y="-138.9">
  
 </text>
 <text x="740.6" y="-262.71">
  
 </text>
 <text x="-3169" y="312.99">
  
 </text>
 <text x="-1240.72" y="77.56">
  
 </text>
 <text x="-495.34" y="130.7">
  
 </text>
 <text x="404.27" y="6.88">
  
 </text>
 <text x="-467.88" y="-45.75">
  
 </text>
 <text x="431.74" y="-169.57">
  
 </text>
 <text x="-3477.86" y="406.13">
  
 </text>
 <text x="-1955.29" y="-39.3">
  
 </text>
 <text x="-1209.91" y="13.84">
  
 </text>
 <text x="-310.3" y="-109.97">
  
 </text>
 <text x="-1182.45" y="-162.61">
  
 </text>
 <text x="-282.83" y="-286.43">
  
 </text>
 <text x="-4192.43" y="289.27">
  
 </text>
 <text x="729.64" y="231.36">
  
 </text>
 <text x="1310.91" y="151.36">
  
 </text>
 <text x="239.33" y="-29.9">
  
 </text>
 <text x="1337.38" y="-246.37">
  
 </text>
 <text x="1918.65" y="-326.38">
  
 </text>
 <text x="1529.53" y="-798.78">
  
 </text>
 <text x="2110.79" y="-878.78">
  
 </text>
 <text x="277.99" y="535.94">
  
 </text>
 <text x="-307.18" y="-11.34">
  
 </text>
 <text x="438.2" y="41.8">
  
 </text>
 <text x="1337.81" y="-82.02">
  
 </text>
 <text x="465.66" y="-134.65">
  
 </text>
 <text x="1365.27" y="-258.47">
  
 </text>
 <text x="-2544.32" y="317.23">
  
 </text>
 <text x="-616.04" y="81.8">
  
 </text>
 <text x="129.34" y="134.94">
  
 </text>
 <text x="1028.95" y="11.13">
  
 </text>
 <text x="156.8" y="-41.51">
  
 </text>
 <text x="1056.42" y="-165.33">
  
 </text>
 <text x="-2853.18" y="410.37">
  
 </text>
 <text x="-1330.61" y="-35.06">
  
 </text>
 <text x="-585.23" y="18.09">
  
 </text>
 <text x="314.38" y="-105.73">
  
 </text>
 <text x="-557.77" y="-158.37">
  
 </text>
 <text x="341.85" y="-282.18">
  
 </text>
 <text x="-3567.75" y="293.52">
  
 </text>
 <path d="m471.95 253.05c0 120.9-98.01 218.9-218.9 218.9-120.9 0-218.9-98.01-218.9-218.9 0-120.9 98.01-218.9 218.9-218.9 120.9 0 218.9 98.01 218.9 218.9" fill="#4a4a4a" fill-rule="evenodd"/>
 <path d="m256.59 109.28c-59.95.785-104.23 54.47-117.78 109.09-3.489 13.398-10.899 5.193-13.563.375-27.946 4.459-36.4 37.712-39.5 61.75-3.499 33.601 3.035 74.11 33.656 93.5 27.08 27.08 60.82 61.07 93.75 94.31 12.94 2.384 26.28 3.625 39.906 3.625 111.79 0 204-83.78 217.25-192-48.4-48.48-96.61-97.17-145.59-145.03-18.826-16.08-43.2-26.01-68.12-25.625" fill-opacity=".235"/>
 <g fill-rule="evenodd">
  <path d="m256 1c-140.83 0-255 114.17-255 255s114.17 255 255 255 255-114.17 255-255-114.17-255-255-255m8.827 44.931c120.9 0 218.9 98 218.9 218.9s-98 218.9-218.9 218.9-218.93-98-218.93-218.9 98.03-218.9 218.93-218.9" fill-opacity=".067"/>
  <g fill-opacity=".129">
   <path d="m256 4.433c-138.94 0-251.57 112.63-251.57 251.57s112.63 251.57 251.57 251.57 251.57-112.63 251.57-251.57-112.63-251.57-251.57-251.57m5.885 38.556c120.9 0 218.9 98 218.9 218.9s-98 218.9-218.9 218.9-218.93-98-218.93-218.9 98.03-218.9 218.93-218.9"/>
   <path d="m256 8.356c-136.77 0-247.64 110.87-247.64 247.64s110.87 247.64 247.64 247.64 247.64-110.87 247.64-247.64-110.87-247.64-247.64-247.64m2.942 31.691c120.9 0 218.9 98 218.9 218.9s-98 218.9-218.9 218.9-218.93-98-218.93-218.9 98.03-218.9 218.93-218.9"/>
  </g>
  <path d="m253.04 7.859c-135.42 0-245.19 109.78-245.19 245.19 0 135.42 109.78 245.19 245.19 245.19 135.42 0 245.19-109.78 245.19-245.19 0-135.42-109.78-245.19-245.19-245.19zm0 26.297c120.9 0 218.9 98 218.9 218.9s-98 218.9-218.9 218.9-218.93-98-218.93-218.9 98.03-218.9 218.93-218.9z" fill="#ffffff" stroke="#000000" stroke-opacity=".31" stroke-width="4.904"/>
 </g>
 <text x="729.64" y="231.36">
  
 </text>
 <text x="1310.91" y="151.36">
  
 </text>
 <text x="239.33" y="-29.9">
  
 </text>
 <text x="1337.38" y="-246.37">
  
 </text>
 <text x="1918.65" y="-326.38">
  
 </text>
 <text x="1529.53" y="-798.78">
  
 </text>
 <text x="2110.79" y="-878.78">
  
 </text>
 <text x="277.99" y="535.94">
  
 </text>
 <text x="104.96" y="227.12">
  
 </text>
 <text x="686.23" y="147.11">
  
 </text>
 <text x="-385.35" y="-34.14">
  
 </text>
 <text x="712.7" y="-250.62">
  
 </text>
 <text x="1293.97" y="-330.62">
  
 </text>
 <text x="904.85" y="-803.02">
  
 </text>
 <text x="1486.12" y="-883.02">
  
 </text>
 <text x="-346.69" y="531.69">
  
 </text>
 <text x="-931.86" y="-15.58">
  
 </text>
 <text x="-186.48" y="37.56">
  
 </text>
 <text x="713.13" y="-86.26">
  
 </text>
 <text x="-159.02" y="-138.9">
  
 </text>
 <text x="740.6" y="-262.71">
  
 </text>
 <text x="-3169" y="312.99">
  
 </text>
 <text x="-1240.72" y="77.56">
  
 </text>
 <text x="-495.34" y="130.7">
  
 </text>
 <text x="404.27" y="6.88">
  
 </text>
 <text x="-467.88" y="-45.75">
  
 </text>
 <text x="431.74" y="-169.57">
  
 </text>
 <text x="-3477.86" y="406.13">
  
 </text>
 <text x="-1955.29" y="-39.3">
  
 </text>
 <text x="-1209.91" y="13.84">
  
 </text>
 <text x="-310.3" y="-109.97">
  
 </text>
 <text x="-1182.45" y="-162.61">
  
 </text>
 <text x="-282.83" y="-286.43">
  
 </text>
 <text x="-4192.43" y="289.27">
  
 </text>
 <path d="m254.27 109.34c-49.64 1.699-98.33 41.64-116.34 112.31-.05.182.045.392 0 .578-5.04 3.469-8.642 8.943-8.642 15.551v115.77c0 10.676 8.332 19.01 19.01 19.01 10.676 0 19.585-8.332 19.585-19.01v-115.77c0-6.076-3.122-11.451-7.491-14.977 17.588-46.37 57.36-78.963 100.22-77.76 40.27 1.073 71.952 36.624 85.82 73.15l2.88 6.336c-3.164 3.432-4.607 8.192-4.607 13.249v115.77c0 10.676 8.332 19.01 19.01 19.01 10.676 0 19.585-8.332 19.585-19.01v-115.77c0-5.511-2.653-10.32-6.336-13.822-.05-.182.05-.396 0-.578-22.08-79.39-73.03-115.74-122.68-114.04m-129.01 109.44c-22.397.578-40.32 34.833-40.32 77.18 0 42.35 17.922 76.02 40.32 76.61m261.48-153.79v153.79c22.397-.582 40.32-34.26 40.32-76.61 0-42.34-17.922-76.6-40.32-77.18" fill="#ffffff"/>
</svg>
