<svg height="512" viewBox="0 0 512 512" width="512" xmlns="http://www.w3.org/2000/svg">
 <path d="m471.95 253.05c0 120.9-98.01 218.9-218.9 218.9-120.9 0-218.9-98.01-218.9-218.9 0-120.9 98.01-218.9 218.9-218.9 120.9 0 218.9 98.01 218.9 218.9" fill="#828282" fill-rule="evenodd"/>
 <path d="m341.5 95.09c-9.265.004-18.766 1.054-27.781.281-50.658-.001-101.31.003-151.97 0-21.16-.691-33.1 21.346-29.969 40.25.115 84.74-.216 169.51.188 254.25 3.242 19.338 22.438 29.365 34.13 43.531 10.538 10.473 21.05 20.965 31.563 31.469 17.694 4.614 36.24 7.094 55.38 7.094 120.9 0 218.91-98.01 218.91-218.91 0-19.18-2.458-37.8-7.094-55.53-32.21-32.25-64.46-64.48-96.94-96.44-8.097-4.976-17.14-6-26.406-6" fill-opacity=".235"/>
 <g fill-rule="evenodd">
  <path d="m256 1c-140.83 0-255 114.17-255 255s114.17 255 255 255 255-114.17 255-255-114.17-255-255-255m8.827 44.931c120.9 0 218.9 98 218.9 218.9s-98 218.9-218.9 218.9-218.93-98-218.93-218.9 98.03-218.9 218.93-218.9" fill-opacity=".067"/>
  <g fill-opacity=".129">
   <path d="m256 4.433c-138.94 0-251.57 112.63-251.57 251.57s112.63 251.57 251.57 251.57 251.57-112.63 251.57-251.57-112.63-251.57-251.57-251.57m5.885 38.556c120.9 0 218.9 98 218.9 218.9s-98 218.9-218.9 218.9-218.93-98-218.93-218.9 98.03-218.9 218.93-218.9"/>
   <path d="m256 8.356c-136.77 0-247.64 110.87-247.64 247.64s110.87 247.64 247.64 247.64 247.64-110.87 247.64-247.64-110.87-247.64-247.64-247.64m2.942 31.691c120.9 0 218.9 98 218.9 218.9s-98 218.9-218.9 218.9-218.93-98-218.93-218.9 98.03-218.9 218.93-218.9"/>
  </g>
  <path d="m253.04 7.859c-135.42 0-245.19 109.78-245.19 245.19 0 135.42 109.78 245.19 245.19 245.19 135.42 0 245.19-109.78 245.19-245.19 0-135.42-109.78-245.19-245.19-245.19zm0 26.297c120.9 0 218.9 98 218.9 218.9s-98 218.9-218.9 218.9-218.93-98-218.93-218.9 98.03-218.9 218.93-218.9z" fill="#ffffff" stroke="#000000" stroke-opacity=".31" stroke-width="4.904"/>
 </g>
 <text x="729.64" y="231.36">
  
 </text>
 <text x="1310.91" y="151.36">
  
 </text>
 <text x="239.33" y="-29.9">
  
 </text>
 <text x="1337.38" y="-246.37">
  
 </text>
 <text x="1918.65" y="-326.38">
  
 </text>
 <text x="1529.53" y="-798.78">
  
 </text>
 <text x="2110.79" y="-878.78">
  
 </text>
 <text x="277.99" y="535.94">
  
 </text>
 <path d="m161.75 95.38c-16.628 0-29.969 13.403-29.969 30.03v261.19c0 16.628 13.341 30.03 29.969 30.03h188.47c16.628 0 30-13.403 30-30.03v-261.19c0-16.628-13.372-30.03-30-30.03zm7.906 22.22h172.69c8.935 0 16.13 7.159 16.13 16.09v244.56c0 8.935-7.19 16.13-16.12 16.13h-172.69c-8.935 0-16.16-7.19-16.16-16.12v-244.56c0-8.935 7.222-16.09 16.16-16.09" fill="#ffffff"/>
 <text x="-307.18" y="-11.34">
  
 </text>
 <text x="438.2" y="41.8">
  
 </text>
 <text x="1337.81" y="-82.02">
  
 </text>
 <text x="465.66" y="-134.65">
  
 </text>
 <text x="1365.27" y="-258.47">
  
 </text>
 <text x="-2544.32" y="317.23">
  
 </text>
 <text x="-616.04" y="81.8">
  
 </text>
 <text x="129.34" y="134.94">
  
 </text>
 <text x="1028.95" y="11.13">
  
 </text>
 <text x="156.8" y="-41.51">
  
 </text>
 <text x="1056.42" y="-165.33">
  
 </text>
 <text x="-2853.18" y="410.37">
  
 </text>
 <text x="-1330.61" y="-35.06">
  
 </text>
 <text x="-585.23" y="18.09">
  
 </text>
 <text x="314.38" y="-105.73">
  
 </text>
 <text x="-557.77" y="-158.37">
  
 </text>
 <text x="341.85" y="-282.18">
  
 </text>
 <text x="-3567.75" y="293.52">
  
 </text>
 <path d="m256 169.84c-47.586 0-86.16 38.576-86.16 86.16 0 47.586 38.576 86.16 86.16 86.16 47.586 0 86.16-38.576 86.16-86.16 0-47.586-38.576-86.16-86.16-86.16m29.695 10.263c10.18 3.978 19.718 10.07 27.941 18.294 6.923 6.923 12.349 14.786 16.263 23.17l-50.34 29.06c-.984-4.278-3.145-8.345-6.478-11.678-3.469-3.469-7.731-5.661-12.201-6.585l24.818-52.27m-29.695 55.744c11.133 0 20.16 9.02 20.16 20.16 0 11.133-9.02 20.16-20.16 20.16-11.133 0-20.16-9.02-20.16-20.16 0-11.133 9.02-20.16 20.16-20.16m0 4.462c-8.667 0-15.694 7.03-15.694 15.694 0 8.667 7.03 15.694 15.694 15.694 8.667 0 15.694-7.03 15.694-15.694 0-8.667-7.03-15.694-15.694-15.694m0 4.616c6.118 0 11.08 4.96 11.08 11.08 0 6.118-4.96 11.08-11.08 11.08-6.118 0-11.08-4.96-11.08-11.08 0-6.118 4.96-11.08 11.08-11.08m-23.772 16.417c.184.802.411 1.601.677 2.385.089.261.179.511.277.769.785 2.075 1.856 4.056 3.231 5.893.171.229.343.453.523.677.544.676 1.126 1.326 1.754 1.954 1.084 1.084 2.24 2.043 3.462 2.877.244.167.49.335.739.492.999.63 2.03 1.176 3.093 1.646.529.234 1.059.436 1.6.631.812.292 1.644.551 2.477.754.278.068.551.127.831.185l-24.818 52.27c-.641-.25-1.273-.502-1.908-.769-.631-.265-1.252-.534-1.877-.815-1.257-.566-2.49-1.167-3.723-1.8-.61-.313-1.212-.64-1.816-.969-.005-.002-.011.002-.015 0-.607-.331-1.2-.668-1.8-1.015-1.204-.698-2.395-1.42-3.57-2.185-.586-.381-1.161-.772-1.739-1.169-2.314-1.593-4.563-3.31-6.739-5.17-.54-.462-1.069-.938-1.6-1.416-.003-.003-.013.003-.015 0-.534-.481-1.061-.964-1.585-1.462-.524-.497-1.04-1.01-1.554-1.523-2.599-2.599-4.98-5.328-7.155-8.17-.362-.473-.711-.936-1.062-1.416-3.154-4.311-5.83-8.869-8.03-13.586l50.34-29.06" fill="#ffffff" fill-rule="evenodd"/>
</svg>
