<svg height="512" viewBox="0 0 512 512" width="512" xmlns="http://www.w3.org/2000/svg">
 <path d="m471.95 253.05c0 120.9-98.01 218.9-218.9 218.9-120.9 0-218.9-98.01-218.9-218.9 0-120.9 98.01-218.9 218.9-218.9 120.9 0 218.9 98.01 218.9 218.9" fill="#5a5a5a" fill-rule="evenodd"/>
 <path d="m341.5 95.09c-9.265.004-18.766 1.054-27.781.281-50.658-.001-101.31.003-151.97 0-21.16-.691-33.1 21.346-29.969 40.25.115 84.74-.216 169.51.188 254.25 3.242 19.338 22.438 29.365 34.13 43.531 10.538 10.473 21.05 20.965 31.563 31.469 17.694 4.614 36.24 7.094 55.38 7.094 120.9 0 218.91-98.01 218.91-218.91 0-19.18-2.458-37.8-7.094-55.53-32.21-32.25-64.46-64.48-96.94-96.44-8.097-4.976-17.14-6-26.406-6" fill-opacity=".235"/>
 <g fill-rule="evenodd">
  <path d="m256 1c-140.83 0-255 114.17-255 255s114.17 255 255 255 255-114.17 255-255-114.17-255-255-255m8.827 44.931c120.9 0 218.9 98 218.9 218.9s-98 218.9-218.9 218.9-218.93-98-218.93-218.9 98.03-218.9 218.93-218.9" fill-opacity=".067"/>
  <g fill-opacity=".129">
   <path d="m256 4.433c-138.94 0-251.57 112.63-251.57 251.57s112.63 251.57 251.57 251.57 251.57-112.63 251.57-251.57-112.63-251.57-251.57-251.57m5.885 38.556c120.9 0 218.9 98 218.9 218.9s-98 218.9-218.9 218.9-218.93-98-218.93-218.9 98.03-218.9 218.93-218.9"/>
   <path d="m256 8.356c-136.77 0-247.64 110.87-247.64 247.64s110.87 247.64 247.64 247.64 247.64-110.87 247.64-247.64-110.87-247.64-247.64-247.64m2.942 31.691c120.9 0 218.9 98 218.9 218.9s-98 218.9-218.9 218.9-218.93-98-218.93-218.9 98.03-218.9 218.93-218.9"/>
  </g>
  <path d="m253.04 7.859c-135.42 0-245.19 109.78-245.19 245.19 0 135.42 109.78 245.19 245.19 245.19 135.42 0 245.19-109.78 245.19-245.19 0-135.42-109.78-245.19-245.19-245.19zm0 26.297c120.9 0 218.9 98 218.9 218.9s-98 218.9-218.9 218.9-218.93-98-218.93-218.9 98.03-218.9 218.93-218.9z" fill="#ffffff" stroke="#000000" stroke-opacity=".31" stroke-width="4.904"/>
 </g>
 <text x="729.64" y="231.36">
  
 </text>
 <text x="1310.91" y="151.36">
  
 </text>
 <text x="239.33" y="-29.9">
  
 </text>
 <text x="1337.38" y="-246.37">
  
 </text>
 <text x="1918.65" y="-326.38">
  
 </text>
 <text x="1529.53" y="-798.78">
  
 </text>
 <text x="2110.79" y="-878.78">
  
 </text>
 <text x="277.99" y="535.94">
  
 </text>
 <path d="m161.75 95.38c-16.628 0-29.982 13.398-29.982 30.03v261.19c0 16.628 13.354 30.03 29.982 30.03h188.45c16.628 0 30.03-13.398 30.03-30.03v-261.19c0-16.628-13.398-30.03-30.03-30.03zm7.908 22.2h172.68c8.935 0 16.12 7.186 16.12 16.12v244.55c0 8.935-7.186 16.12-16.12 16.12h-172.68c-8.935 0-16.16-7.186-16.16-16.12v-244.55c0-8.935 7.23-16.12 16.16-16.12m138.22 20.901c-6.163 0-11.124 5.441-11.124 12.21v35.588c0 6.769 4.961 12.21 11.124 12.21s11.124-5.441 11.124-12.21v-35.588c0-6.769-4.961-12.21-11.124-12.21m-30.33.348c-6.163 0-11.124 5.441-11.124 12.21v35.588c0 6.769 4.961 12.21 11.124 12.21s11.124-5.441 11.124-12.21v-35.588c0-6.769-4.961-12.21-11.124-12.21m-74.826.13c-6.769 0-12.21 4.961-12.21 11.124s5.441 11.124 12.21 11.124h35.588c6.769 0 12.21-4.961 12.21-11.124s-5.441-11.124-12.21-11.124zm0 30.808c-6.769 0-12.21 4.961-12.21 11.124s5.441 11.124 12.21 11.124h35.588c6.769 0 12.21-4.961 12.21-11.124s-5.441-11.124-12.21-11.124zm54.19 41.975c-45.854 0-83.04 37.18-83.04 83.04 0 45.854 37.18 83.04 83.04 83.04 45.854 0 83.04-37.18 83.04-83.04 0-45.854-37.18-83.04-83.04-83.04m0 51.01c17.693 0 32.02 14.331 32.02 32.02 0 17.693-14.331 32.02-32.02 32.02-17.693 0-32.02-14.331-32.02-32.02 0-17.693 14.331-32.02 32.02-32.02m0 14.426c-9.728 0-17.598 7.87-17.598 17.598s7.87 17.598 17.598 17.598 17.598-7.87 17.598-17.598-7.87-17.598-17.598-17.598" fill="#ffffff"/>
</svg>
