<svg height="512" viewBox="0 0 512 512" width="512" xmlns="http://www.w3.org/2000/svg">
 <text x="1296.56" y="369.84">
  
 </text>
 <text x="1877.82" y="289.84">
  
 </text>
 <text x="806.25" y="108.58">
  
 </text>
 <text x="1904.3" y="-107.89">
  
 </text>
 <text x="2485.56" y="-187.9">
  
 </text>
 <text x="2096.44" y="-660.3">
  
 </text>
 <text x="2677.71" y="-740.3">
  
 </text>
 <text x="844.9" y="674.42">
  
 </text>
 <g fill-rule="evenodd">
  <path d="m471.95 253.05c0 120.9-98.01 218.9-218.9 218.9-120.9 0-218.9-98.01-218.9-218.9 0-120.9 98.01-218.9 218.9-218.9 120.9 0 218.9 98.01 218.9 218.9" fill="#545454"/>
  <path d="m252.47 117.13c-27.382.332-55.42 22.936-51.41 52.13v42.594c-6.408 2.084-22.09-5.112-19.938 5.531v105.09c4.491 2.759 6.963 7.537 11.438 10.313 3.069 3.796 6.242 7.487 10.313 10.281 2.726 4.513 7.544 6.935 10.281 11.438 4.494 2.756 6.959 7.541 11.438 10.313-8.534 6.299-18.495 11.374-31.03 9.09-17.14.314-34.35-.644-51.44.5-16.03 6.478 5.572 17.476 10.406 24.719l70.813 70.813c9.713 1.318 19.644 2 29.719 2 104 0 191.04-72.51 213.34-169.75-57.27-57.33-114.46-114.76-172.03-171.78-10.889-9.07-25.21-13.307-39.25-13.25-.881-.036-1.773-.042-2.656-.031" fill-opacity=".235"/>
  <path d="m256 1c-140.83 0-255 114.17-255 255s114.17 255 255 255 255-114.17 255-255-114.17-255-255-255m8.827 44.931c120.9 0 218.9 98 218.9 218.9s-98 218.9-218.9 218.9-218.93-98-218.93-218.9 98.03-218.9 218.93-218.9" fill-opacity=".067"/>
  <g fill-opacity=".129">
   <path d="m256 4.433c-138.94 0-251.57 112.63-251.57 251.57s112.63 251.57 251.57 251.57 251.57-112.63 251.57-251.57-112.63-251.57-251.57-251.57m5.885 38.556c120.9 0 218.9 98 218.9 218.9s-98 218.9-218.9 218.9-218.93-98-218.93-218.9 98.03-218.9 218.93-218.9"/>
   <path d="m256 8.356c-136.77 0-247.64 110.87-247.64 247.64s110.87 247.64 247.64 247.64 247.64-110.87 247.64-247.64-110.87-247.64-247.64-247.64m2.942 31.691c120.9 0 218.9 98 218.9 218.9s-98 218.9-218.9 218.9-218.93-98-218.93-218.9 98.03-218.9 218.93-218.9"/>
  </g>
  <path d="m253.04 7.859c-135.42 0-245.19 109.78-245.19 245.19 0 135.42 109.78 245.19 245.19 245.19 135.42 0 245.19-109.78 245.19-245.19 0-135.42-109.78-245.19-245.19-245.19zm0 26.297c120.9 0 218.9 98 218.9 218.9s-98 218.9-218.9 218.9-218.93-98-218.93-218.9 98.03-218.9 218.93-218.9z" fill="#ffffff" stroke="#000000" stroke-opacity=".31" stroke-width="4.904"/>
 </g>
 <text x="729.64" y="231.36">
  
 </text>
 <text x="1310.91" y="151.36">
  
 </text>
 <text x="239.33" y="-29.9">
  
 </text>
 <text x="1337.38" y="-246.37">
  
 </text>
 <text x="1918.65" y="-326.38">
  
 </text>
 <text x="1529.53" y="-798.78">
  
 </text>
 <text x="2110.79" y="-878.78">
  
 </text>
 <text x="277.99" y="535.94">
  
 </text>
 <text x="-27646.87" y="1125.07">
  
 </text>
 <text x="-27781.61" y="2037.09">
  
 </text>
 <g fill="#565656" transform="matrix(23.272 0 0 23.272 -520.02 -260.06)">
  <text transform="scale(1.0508 .95163)" x="-549.96" y="-204.06">
   
  </text>
  <text transform="scale(1.0508 .95163)" x="-145.93" y="-239.51">
   
  </text>
  <text x="-1695.66" y="-74.27">
   
  </text>
 </g>
 <g transform="matrix(23.272 0 0 23.272 -520.02 -260.06)">
  <text stroke="#545454" x="-1086.23" y="-599.63">
   
  </text>
  <text stroke="#545454" x="-1092.03" y="-560.44">
   
  </text>
  <g fill="#565656">
   <g stroke="#545454">
    <text transform="scale(1.0508 .95163)" x="-474.37" y="-896.71">
     
    </text>
    <text transform="scale(1.0508 .95163)" x="-70.35" y="-932.16">
     
    </text>
    <text x="-1616.23" y="-733.42">
     
    </text>
   </g>
  </g>
  <text stroke="#545454" x="-356.8" y="-887.07">
   
  </text>
  <text stroke="#545454" x="542.82" y="-1010.89">
   
  </text>
 </g>
 <text x="188.67" y="33.97">
  
 </text>
 <text x="769.94" y="-46.03">
  
 </text>
 <text x="-301.64" y="-227.29">
  
 </text>
 <text x="796.41" y="-443.76">
  
 </text>
 <text x="1377.68" y="-523.77">
  
 </text>
 <text x="988.56" y="-996.17">
  
 </text>
 <text x="1569.82" y="-1076.17">
  
 </text>
 <g transform="translate(-540.97 -197.39)">
  <text x="277.99" y="535.94">
   
  </text>
  <text x="-860.84" y="11.55">
   
  </text>
  <text x="-3219.67" y="289.67">
   
  </text>
  <text x="-2931.46" y="62.38">
   
  </text>
  <text x="1263.14" y="-194.52">
   
  </text>
  <text x="-864.79" y="-49.48">
   
  </text>
  <text x="-3223.62" y="228.64">
   
  </text>
  <text x="-2935.41" y="1.35">
   
  </text>
 </g>
 <path d="m255.13 117.16c-26.871 0-54.06 17.933-54.06 45.16v49.53h-19.938v110.63h60.63c-.136.623-.219 1.317-.219 2.156v41.28h-17.03c-5.679 0-10.57 3.259-12.938 8h-65.25c-5.965 0-10.781 2.858-10.781 6.406v.125c0 3.548 4.816 6.406 10.781 6.406h65.25c2.366 4.746 7.255 8 12.938 8h63c5.682 0 10.571-3.254 12.938-8h65.25c5.965 0 10.781-2.858 10.781-6.406v-.125c0-3.548-4.816-6.406-10.781-6.406h-65.25c-2.368-4.741-7.259-8-12.938-8h-17.03v-41.28c0-.84-.082-1.533-.219-2.156h60.63v-110.63h-20.531v-50.906c0-20.458-21.15-43.781-55.22-43.781m-.406 24.813h.031c14.468-.076 30.22 10.01 30.22 25.406v44.47h-59.34l.031-.031v-44.25c0-16.693 16.616-25.529 29.06-25.594m.688 94.12c8.278 0 15 6.722 15 15 0 4.936-2.411 9.298-6.094 12.03l5.938 33.375h-29.438l5.906-33.19c-3.809-2.718-6.313-7.183-6.313-12.219 0-8.278 6.722-14.969 15-14.969v-.031" fill="#ffffff" fill-rule="evenodd"/>
</svg>
