<svg height="512" viewBox="0 0 512 512" width="512" xmlns="http://www.w3.org/2000/svg">
 <text x="1296.56" y="369.84">
  
 </text>
 <text x="1877.82" y="289.84">
  
 </text>
 <text x="806.25" y="108.58">
  
 </text>
 <text x="1904.3" y="-107.89">
  
 </text>
 <text x="2485.56" y="-187.9">
  
 </text>
 <text x="2096.44" y="-660.3">
  
 </text>
 <text x="2677.71" y="-740.3">
  
 </text>
 <text x="844.9" y="674.42">
  
 </text>
 <path d="m471.95 253.05c0 120.9-98.01 218.9-218.9 218.9-120.9 0-218.9-98.01-218.9-218.9 0-120.9 98.01-218.9 218.9-218.9 120.9 0 218.9 98.01 218.9 218.9" fill="#5a5a5a" fill-rule="evenodd"/>
 <path d="m231.81 111.53c-1.341.053-2.773.27-4.313.719-23.07-.136-46.15-.038-69.22-.063-7.165 6.494 5.575 28.14-7.688 26.25-22.08-4.771-35.569 6.06-29.25 29.625.297 75.82-1.296 151.7.906 227.47 12.05 15.339 28.06 28.509 41.625 43.03 7.79 7.75 15.565 15.511 23.344 23.281 20.783 6.547 42.898 10.09 65.844 10.09 120.89 0 218.88-97.98 218.88-218.87 0-1.033-.017-2.064-.031-3.094-30.884-30.921-61.796-61.865-92.91-92.91-22.467-9.04-13.588 25.23-17.09 31.469-10.481-10.504-20.799-21.92-32.09-31.938-23.04-12.245-8.02 35.05-20.438 18.75-12.12-12.298-24.371-24.337-36.5-36.594-10.389 2.231-13.844-8.789-20.75-13.344-6.01-5.751-10.928-14.245-20.313-13.875" fill-opacity=".235"/>
 <g fill-rule="evenodd">
  <path d="m256 1c-140.83 0-255 114.17-255 255s114.17 255 255 255 255-114.17 255-255-114.17-255-255-255m8.827 44.931c120.9 0 218.9 98 218.9 218.9s-98 218.9-218.9 218.9-218.93-98-218.93-218.9 98.03-218.9 218.93-218.9" fill-opacity=".067"/>
  <g fill-opacity=".129">
   <path d="m256 4.433c-138.94 0-251.57 112.63-251.57 251.57s112.63 251.57 251.57 251.57 251.57-112.63 251.57-251.57-112.63-251.57-251.57-251.57m5.885 38.556c120.9 0 218.9 98 218.9 218.9s-98 218.9-218.9 218.9-218.93-98-218.93-218.9 98.03-218.9 218.93-218.9"/>
   <path d="m256 8.356c-136.77 0-247.64 110.87-247.64 247.64s110.87 247.64 247.64 247.64 247.64-110.87 247.64-247.64-110.87-247.64-247.64-247.64m2.942 31.691c120.9 0 218.9 98 218.9 218.9s-98 218.9-218.9 218.9-218.93-98-218.93-218.9 98.03-218.9 218.93-218.9"/>
  </g>
  <path d="m253.04 7.859c-135.42 0-245.19 109.78-245.19 245.19 0 135.42 109.78 245.19 245.19 245.19 135.42 0 245.19-109.78 245.19-245.19 0-135.42-109.78-245.19-245.19-245.19zm0 26.297c120.9 0 218.9 98 218.9 218.9s-98 218.9-218.9 218.9-218.93-98-218.93-218.9 98.03-218.9 218.93-218.9z" fill="#ffffff" stroke="#000000" stroke-opacity=".31" stroke-width="4.904"/>
 </g>
 <text x="729.64" y="231.36">
  
 </text>
 <text x="1310.91" y="151.36">
  
 </text>
 <text x="239.33" y="-29.9">
  
 </text>
 <text x="1337.38" y="-246.37">
  
 </text>
 <text x="1918.65" y="-326.38">
  
 </text>
 <text x="1529.53" y="-798.78">
  
 </text>
 <text x="2110.79" y="-878.78">
  
 </text>
 <text x="277.99" y="535.94">
  
 </text>
 <text x="-27646.87" y="1125.07">
  
 </text>
 <text x="-27781.61" y="2037.09">
  
 </text>
 <g fill="#565656" transform="matrix(23.272 0 0 23.272 -520.02 -260.06)">
  <text transform="scale(1.0508 .95163)" x="-549.96" y="-204.06">
   
  </text>
  <text transform="scale(1.0508 .95163)" x="-145.93" y="-239.51">
   
  </text>
  <text x="-1695.66" y="-74.27">
   
  </text>
 </g>
 <g transform="matrix(23.272 0 0 23.272 -520.02 -260.06)">
  <text stroke="#545454" x="-1086.23" y="-599.63">
   
  </text>
  <text stroke="#545454" x="-1092.03" y="-560.44">
   
  </text>
  <g fill="#565656">
   <g stroke="#545454">
    <text transform="scale(1.0508 .95163)" x="-474.37" y="-896.71">
     
    </text>
    <text transform="scale(1.0508 .95163)" x="-70.35" y="-932.16">
     
    </text>
    <text x="-1616.23" y="-733.42">
     
    </text>
   </g>
  </g>
  <text stroke="#545454" x="-356.8" y="-887.07">
   
  </text>
  <text stroke="#545454" x="542.82" y="-1010.89">
   
  </text>
 </g>
 <text x="188.67" y="33.97">
  
 </text>
 <text x="769.94" y="-46.03">
  
 </text>
 <text x="-301.64" y="-227.29">
  
 </text>
 <text x="796.41" y="-443.76">
  
 </text>
 <text x="1377.68" y="-523.77">
  
 </text>
 <text x="988.56" y="-996.17">
  
 </text>
 <text x="1569.82" y="-1076.17">
  
 </text>
 <g transform="translate(-540.97 -197.39)">
  <text x="277.99" y="535.94">
   
  </text>
  <text x="-860.84" y="11.55">
   
  </text>
  <text x="-3219.67" y="289.67">
   
  </text>
  <text x="-2931.46" y="62.38">
   
  </text>
  <text x="1263.14" y="-194.52">
   
  </text>
  <text x="-864.79" y="-49.48">
   
  </text>
  <text x="-3223.62" y="228.64">
   
  </text>
  <text x="-2935.41" y="1.35">
   
  </text>
 </g>
 <path d="m158.29 112.18l-.932 1.324c-.765 1.092-.932 3.412-.932 13.13v11.804h-14.937c-16.441 0-17.628.219-19.357 3.562-.801 1.548-.914 16.226-.914 127.13 0 137.38-.244 127.75 3.45 129.76 1.419.77 11.214.893 74.63.914l73.03.019 2.01-2.033 2.033-2.033v-77.69h62.808l2.275 2.35c4.846 4.993 12.263 4.589 16.448-.895l1.716-2.256.186-16.895c.134-12.917.332-16.914.895-16.914 1.162 0 9.12-3.962 12.215-6.079 14.279-9.771 24.575-29.792 25.623-49.866l.354-6.713h-99.246v3.058c0 8.837 3.549 23.2 7.814 31.646 6.383 12.649 16.16 22.23 27.25 26.723l4.03 1.641.168 9.04.168 9.04h-62.696v-159.32l-1.734-1.939-1.753-1.958-15.851-.168-15.87-.186v-12.159c0-10.261-.141-12.319-.932-13.11-.834-.834-5.412-.932-41.44-.932h-40.504m167.07 43.581c-4.245.012-7.587 1.808-9.436 5.072-1.316 2.323-1.333 2.777-1.343 21.02l-.019 18.648h-8.261c-7.617 0-8.425.106-10.294 1.361-1.304.876-2.345 2.261-2.909 3.879-.771 2.214-.771 2.821 0 5.04.564 1.618 1.605 3 2.909 3.879l2.033 1.361h103.2l2.312-2.312c2.101-2.101 2.312-2.612 2.312-5.445s-.211-3.344-2.312-5.445l-2.312-2.312h-17.454v-19c0-18.782-.021-19.05-1.361-21.04-.746-1.107-2.29-2.638-3.431-3.413-1.768-1.201-2.65-1.375-5.967-1.194-4.608.252-7.147 1.742-8.951 5.277-1.1 2.157-1.175 3.574-1.175 20.849v18.518h-27.45v-19c0-18.782-.021-19.05-1.361-21.04-2.217-3.29-4.879-4.711-8.727-4.699" fill="#ffffff"/>
</svg>
