<svg height="512" viewBox="0 0 512 512" width="512" xmlns="http://www.w3.org/2000/svg">
 <path d="m471.95 253.05c0 120.9-98.01 218.9-218.9 218.9-120.9 0-218.9-98.01-218.9-218.9 0-120.9 98.01-218.9 218.9-218.9 120.9 0 218.9 98.01 218.9 218.9" fill="#cd6e72" fill-rule="evenodd"/>
 <text x="729.64" y="231.36">
  
 </text>
 <text x="1310.91" y="151.36">
  
 </text>
 <text x="239.33" y="-29.9">
  
 </text>
 <text x="1337.38" y="-246.37">
  
 </text>
 <text x="1918.65" y="-326.38">
  
 </text>
 <text x="1529.53" y="-798.78">
  
 </text>
 <text x="2110.79" y="-878.78">
  
 </text>
 <text x="277.99" y="535.94">
  
 </text>
 <path d="m247.48 198.57l-18.2 44.2c-.617 1.499-2.02 2.529-3.633 2.671l-93.09 8.18c-2.284.201-4.02 2.143-3.958 4.435l1.893 73.07c.052 2.01 1.477 3.72 3.445 4.134l109.59 23.05c2.679.563 5.403.843 8.126.836l.002-21.672v-138.08c0-6.03-1.88-6.404-4.176-.826m-12.744 136.27l-41.14-6.625v-21.565h41.14zm-17.99-99.91l-109.71 11.09c-3.352.339-5.794-3.105-4.366-6.156l29.21-62.44c.594-1.271 1.767-2.176 3.146-2.429l120.55-22.14-35.3 79.53c-.632 1.424-1.979 2.4-3.53 2.556m162.69 18.685l-93.09-8.18c-1.615-.142-3.02-1.172-3.633-2.671l-18.201-44.2c-2.297-5.578-4.176-5.206-4.176.826v138.08l.002 21.672c2.723.007 5.446-.273 8.126-.836l109.59-23.05c1.967-.414 3.392-2.125 3.445-4.134l1.893-73.07c.059-2.291-1.675-4.234-3.958-4.434m-38.31 39.03l-5.142.143-.104 32.36c-.005 1.425-1.452 2.788-3.253 3.047l-8.427 1.212c-1.925.277-3.5-.71-3.497-2.206l.079-33.99-5.881.163c-2.86.079-4.669-2.214-3.213-4.111l13.986-18.226c1.325-1.727 4.577-1.568 5.854.252l12.276 17.498c1.164 1.659-.307 3.794-2.68 3.86m63.831-46.631l-109.71-11.09c-1.551-.156-2.898-1.132-3.53-2.556l-35.3-79.53 120.55 22.14c1.38.253 2.552 1.158 3.146 2.429l29.21 62.44c1.428 3.051-1.015 6.495-4.367 6.156" fill="#ffffff"/>
<circle cx="256" stroke="#fefefe" cy="256" r="181.13" stroke-width="18.771" fill="none" /></svg>
