<svg width="512" height="512" version="1.1" viewBox="0 0 512 512" xmlns="http://www.w3.org/2000/svg">
 <path d="m471.95 253.05c0 120.9-98.01 218.9-218.9 218.9-120.9 0-218.9-98.01-218.9-218.9 0-120.9 98.01-218.9 218.9-218.9 120.9 0 218.9 98.01 218.9 218.9" fill="#f5931c" fill-rule="evenodd"/>
 <text x="729.64" y="231.36"/>
 <text x="1310.91" y="151.36"/>
 <text x="239.33" y="-29.9"/>
 <text x="1337.38" y="-246.37"/>
 <text x="1918.65" y="-326.38"/>
 <text x="1529.53" y="-798.78"/>
 <text x="2110.79" y="-878.78"/>
 <text x="277.99" y="535.94"/>
 <path d="m219.72 131.74c-22.352 0-40.487 18.13-40.487 40.487 0 22.352 18.13 40.32 40.487 40.32 22.352 0 40.32-17.967 40.32-40.32 0-22.352-17.967-40.487-40.32-40.487m137.92 14.28l-46.535 105.5 18.48 7.728 20.16-42.671v52.751h-7.06v10.248h-6.05v-11.256h-20.999v-2.02l-28.22-12.768-50.4-2.688c-2-4.396-4.432-8.759-7.728-12.936-3.173-4.128-6.316-8.01-8.568-11.928-4.864-5.339-10.829-9.234-19.488-10.752-1.565-.169-3.134-.213-4.704-.168-4.709.136-9.346 1.31-13.272 3.36-6.06 4.393-10.394 12-13.272 20.327-2.659 8.162-4.088 16.954-5.376 25.2-1.375 12.365-.811 24.323 2.52 37.3 3.883 16.17 10.03 32.19 15.12 47.21h72.24c-.921-10.247-2.828-30.06-3.528-34.607-.899-5.846-4.422-26.14-4.872-29.735-.642-3.185-1.224-6.214-1.848-9.24h69.05v4.704h-45.863v16.13h26.375v52.751h17.304v-52.751h90.05v-16.13h-20.831v-10.248h-17.976v-79.46l15.288-32.423-19.992-11.424m-257.2 17.471c-.686.201-1.433.739-2.02 1.344-9.334 9.676-1.441 68.27 17.64 131.04 6.074 19.982 12.492 37.645 18.816 52.583h34.775c-3.07-24.04-9.836-55.22-19.656-87.53-17.888-58.841-39.27-100.45-49.559-97.44" fill="#ffffff" fill-rule="evenodd"/>
 <circle cx="256" cy="256" r="181.13" fill="none" stroke="#fefefe" stroke-width="18.771"/>
</svg>
