<svg height="512" viewBox="0 0 512 512" width="512" xmlns="http://www.w3.org/2000/svg">
 <path d="m471.95 253.05c0 120.9-98.01 218.9-218.9 218.9-120.9 0-218.9-98.01-218.9-218.9 0-120.9 98.01-218.9 218.9-218.9 120.9 0 218.9 98.01 218.9 218.9" fill="#a4603e" fill-rule="evenodd"/>
 <g fill="#ffffff" fill-rule="evenodd" stroke="#ffffff" stroke-linejoin="round" stroke-width="5.258" transform="matrix(8.8659051 0 0 8.8678534 89.743183 92.537342)">
  <path d="m30.711 148.18c21.702029-.29813 36.229411-28.18097 47.331005-26.62689 8.485516 1.18786 15.183671 32.20264 20.278764 30.62962 11.763001-3.658 27.150231-24.37073 27.150231-24.37073l44 89.84h-138.76z" transform="scale(.14844)"/>
  <path d="m157.29 182.08c0 0-19.763 10.974-25.447 13.737-7.868 3.816-21.421 14.11-45.16 21.474h-55.632v-43.895c32.13-1 55.29-2 69.68-8.03 14.368-6.03 41.474-20.08 41.474-20.08z" transform="scale(.14844)"/>
  <path d="m132.53 142.18c20.842-20.895 14.789-27.16 35.947-28.974 3.10111-.26614 20.2845-64.925302 22.43813-62.057277 14.07155 18.739342 34.37787 76.137277 34.37787 76.137277v90.32h-55.816z" transform="scale(.14844)"/>
 </g>
 <path d="m34.395 32.03h187.21c1.316 0 2.368 1.053 2.368 2.368v187.21c0 1.316-1.053 2.368-2.368 2.368h-187.21c-1.316 0-2.368-1.053-2.368-2.368v-187.21c0-1.316 1.053-2.368 2.368-2.368z" fill="none" stroke="#ffffff" stroke-linecap="round" stroke-width="10.664" transform="matrix(1.29803722 0 0 1.29802766 92.049453 88.325451)"/>
<circle cx="256" stroke="#fefefe" cy="256" r="181.13" stroke-width="18.771" fill="none" /></svg>
