<?xml version="1.0" encoding="UTF-8"?>
<svg version="1.1" viewBox="0 0 512 512" xmlns="http://www.w3.org/2000/svg">
 <g fill-rule="evenodd">
  <path d="m471.95 253.05c0 120.9-98.01 218.9-218.9 218.9-120.9 0-218.9-98.01-218.9-218.9 0-120.9 98.01-218.9 218.9-218.9 120.9 0 218.9 98.01 218.9 218.9" fill="#f68516"/>
  <path d="m256 1c-140.83 0-255 114.17-255 255s114.17 255 255 255 255-114.17 255-255-114.17-255-255-255m8.827 44.931c120.9 0 218.9 98 218.9 218.9s-98 218.9-218.9 218.9-218.93-98-218.93-218.9 98.03-218.9 218.93-218.9" fill-opacity=".067"/>
  <g fill-opacity=".129">
   <path d="m256 4.433c-138.94 0-251.57 112.63-251.57 251.57s112.63 251.57 251.57 251.57 251.57-112.63 251.57-251.57-112.63-251.57-251.57-251.57m5.885 38.556c120.9 0 218.9 98 218.9 218.9s-98 218.9-218.9 218.9-218.93-98-218.93-218.9 98.03-218.9 218.93-218.9"/>
   <path d="m256 8.356c-136.77 0-247.64 110.87-247.64 247.64s110.87 247.64 247.64 247.64 247.64-110.87 247.64-247.64-110.87-247.64-247.64-247.64m2.942 31.691c120.9 0 218.9 98 218.9 218.9s-98 218.9-218.9 218.9-218.93-98-218.93-218.9 98.03-218.9 218.93-218.9"/>
  </g>
 </g>
 <path d="m368.38 161.69-18.568-7.5169-13.274 17.578 18.874 19-23.026-12.072-9.3172 27.217-112.74-128.1 16.176 99.229-26.102 2.5015-30.379 25.247-2.9654 32.201 18.25 8.1814-23.042-28.558-0.13551 32.285-12.909 33.443-87.118 76.76 86.251 121.36c154.05 22.596 344.41-36.485 321.9-269.23-13.103-40.318-7.1359-46.847-39.589-96.712l-32.826 38.965" opacity=".25"/>
 <g fill="#ffffff">
  <path d="m62.101 359.08c0-0.967 140.27-267.8 144.98-275.78l3.2486-5.5117 3.5482 6.2257c1.9515 3.4241 16.253 30.647 31.781 60.495 15.528 29.848 46.84 89.86 69.582 133.36 31.912 61.039 40.909 79.369 39.421 80.311-1.0604 0.67191-13.839 1.2316-28.398 1.2437l-26.47 0.0215-7.806-7.9153c-19.584-19.858-53.813-37.861-92.067-48.424l-17.138-4.732 21.422-1.0745c20.124-1.0094 42.826-0.32889 55.238 1.6559 4.1486 0.66347 5.4578 0.39162 5.4578-1.1331 0-3.7669-52.513-99.758-54.574-99.758-1.5019 0-12.103 18.479-53.256 92.83-20.216 36.525-36.868 66.544-37.005 66.71-0.60922 0.73925-57.962 2.197-57.962 1.4731z" stroke-width="1.4282"/>
  <g transform="matrix(6.9424 0 0 6.9424 227.33 39.839)">
   <g fill="#ffffff">
    <g fill="#ffffff">
     <path d="m16.15 18.379c0.238-0.34 0.773-1.027 1.191-1.523l0.301-0.387h5.063l2.563-3.43c0.988-1.598 1.922-3.059 2.082-3.242 0.637-0.738 1.949-0.094 1.938 0.957l-3.605 5.621 2.375 0.055c1.309 0.027 2.375 0.094 2.375 0.145 0 0.055 0.559-0.094 0.305 0.309-0.258 0.406-0.598 1.047-0.754 1.426l-0.289 0.691h-13.965"/>
     <path d="m12.84 36.457c-0.207-0.297-0.422-1.016-0.488-1.602-0.063-0.582-0.145-1.371-0.184-1.754-0.133-1.277 0.828-6.5 1.234-8.145 0.219-0.891 0.699-2.371 1.066-3.289l0.664-1.668h10.125v1.383c-4e-3 1.949-0.434 3.348 1.293 5.324l1.297 1.488c-1.93-2.035-1.363-4.527-1.324-6.93-4e-3 -0.406-0.016-1.273 1.266-1.273 1.211 0 2.02 0.035 1.902 0.332-0.34 0.891-0.523 2.332-0.438 3.414 0.125 1.547 0.773 2.668 2.406 4.168 2.242 2.063 2.281 4.273 2.387 5.078 0.148 1.105-0.297 2.336-1.133 3.172-0.586 0.582-0.969 0.711-2.355 0.793l-2.473 0.109-0.891-1.852c-1.047-2.191-1.516-3.48-1.844-5.098-0.133-0.648-0.277-1.133-0.32-1.066-0.07 0.098 0.578 5.766 0.84 7.344l0.102 0.625-5.973-0.02c-6.473-0.016-6.809-0.02-7.16-0.535"/>
    </g>
   </g>
  </g>
  <path d="m253.04 7.859c-135.42 0-245.19 109.78-245.19 245.19 0 135.42 109.78 245.19 245.19 245.19 135.42 0 245.19-109.78 245.19-245.19 0-135.42-109.78-245.19-245.19-245.19zm0 26.297c120.9 0 224.06 100.89 218.9 218.9-5.2816 120.78-98 218.9-218.9 218.9s-218.93-98-218.93-218.9 98.03-218.9 218.93-218.9z" fill-rule="evenodd" stroke="#000000" stroke-opacity=".31" stroke-width="4.904"/>
 </g>
</svg>
