<?xml version="1.0" encoding="UTF-8" standalone="no"?>
<svg xmlns="http://www.w3.org/2000/svg" height="512" viewBox="0 0 512 512" width="512" version="1.1">
 <path style="fill:#f68516;fill-rule:evenodd" d="m 471.94,253.04342 c 0,120.8954 -98.00438,218.90438 -218.90438,218.90438 -120.8954,0 -218.904376,-98.00438 -218.904376,-218.90438 0,-120.89541 98.004376,-218.904381 218.904376,-218.904381 120.89541,0 218.90438,98.004371 218.90438,218.904381"/>
 <path style="opacity:0.25;fill:#000000;fill-opacity:1;fill-rule:evenodd;" d="m 283.87951,470.21687 -94.97213,-76.4232 40.45406,-55.32379 -62.34744,-45.18063 21.96053,-22.34681 135.49328,112.23866 27.14796,-6.65041 45.32398,40.22835 12.28916,-11.06024 -220.22308,-196.24745 74.25095,-61.47921 66.87575,62.19654 21.46063,-18.11829 125.39479,112.58817 C 421.60029,473.39895 327.44564,449.27603 283.87951,470.21687 Z"/>
 <g transform="matrix(13.184716,0,0,13.184716,-17.577826,-71.695978)">
  <g>
   <g>
    <path d="m 28,22 0,-1.996 -6,0 0,1.996 m 6,0" style="fill:#ffffff;fill-opacity:1;"/>
    <path d="M 15.667272,21.323262 14,19.633 17.754,16.664 14,13.695 l 1.668,-1.699 5.633,4.664 -5.633,4.664" style="fill:#ffffff;fill-opacity:1;"/>
    <path d="m 28,36 0,-2 -6,0 0,2 m 6,0" style="fill:#ffffff;fill-opacity:1;"/>
    <path d="M 15.668,35.32 14,33.621 17.754,30.652 14,27.683 l 1.668,-1.695 5.633,4.66 -5.633,4.664 m 0,0.008" style="fill:#ffffff;fill-opacity:1;"/>
   </g>
  </g>
 </g>
 <g style="fill-rule:evenodd" transform="translate(0,-540.36)">
  <path style="fill-opacity:0.06700003" d="m 256,541.36 c -140.83,0 -255,114.17 -255,255 0,140.83 114.17,255 255,255 140.83,0 255,-114.17 255,-255 0,-140.83 -114.17,-255 -255,-255 m 8.827,44.931 c 120.9,0 218.9,98 218.9,218.9 0,120.9 -98,218.9 -218.9,218.9 -120.9,0 -218.93,-98 -218.93,-218.9 0,-120.9 98.03,-218.9 218.93,-218.9"/>
  <g style="fill-opacity:0.12900002">
   <path d="M 256,544.79 C 117.06,544.79 4.43,657.42 4.43,796.36 4.43,935.3 117.06,1047.9 256,1047.9 394.94,1047.9 507.57,935.3 507.57,796.36 507.57,657.42 394.94,544.79 256,544.79 m 5.885,38.556 c 120.9,0 218.9,98 218.9,218.9 0,120.9 -98,218.9 -218.9,218.9 -120.9,0 -218.93,-98 -218.93,-218.9 0,-120.9 98.03,-218.9 218.93,-218.9"/>
   <path d="M 256,548.72 C 119.23,548.72 8.36,659.59 8.36,796.36 8.36,933.13 119.23,1044 256,1044 392.77,1044 503.64,933.13 503.64,796.36 503.64,659.59 392.77,548.72 256,548.72 m 2.942,31.691 c 120.9,0 218.9,98 218.9,218.9 0,120.9 -98,218.9 -218.9,218.9 -120.9,0 -218.93,-98 -218.93,-218.9 0,-120.9 98.03,-218.9 218.93,-218.9"/>
  </g>
  <path style="fill:#ffffff;stroke:#000000;stroke-width:4.90399981;stroke-opacity:0.31000001" d="M 253.04,548.22 C 117.62,548.22 7.85,658 7.85,793.41 c 0,135.42 109.78,245.19 245.19,245.19 135.42,0 245.19,-109.78 245.19,-245.19 0,-135.42 -109.78,-245.19 -245.19,-245.19 z m 0,26.297 c 120.9,0 218.9,98 218.9,218.9 0,120.9 -98,218.9 -218.9,218.9 -120.9,0 -218.93,-98 -218.93,-218.9 0,-120.9 98.03,-218.9 218.93,-218.9 z"/>
 </g>
</svg>
