<svg height="512" viewBox="0 0 512 512" width="512" xmlns="http://www.w3.org/2000/svg">
 <path d="m197.78341 120.73007c-36.59027 0-66.72994 30.1397-66.72994 66.72993v111.21655c0 12.28943 9.95389 22.24331 22.24331 22.24331 12.28943 0 22.24331-9.95388 22.24331-22.24331v-111.21655c0-12.54522 9.69807-22.24329 22.24332-22.24329h211.31142c4.00379 0 7.64057 2.09086 9.64247 5.56083 2.00191 3.46994 2.00191 7.6517 0 11.12163-2.0019 3.46997-5.63868 5.56083-9.64247 5.56083-30.45109 0-55.60827 25.1572-55.60827 55.60827v55.60828c0 12.28943 9.95386 22.24331 22.2433 22.24331 12.28944 0 22.24332-9.95388 22.24332-22.24331v-55.60828c0-6.40608 4.71558-11.12165 11.12165-11.12165 19.82992 0 38.25848-10.6323 48.179-27.80413 9.92051-17.17184 9.92051-38.43642 0-55.60828-9.92052-17.17182-28.34908-27.80414-48.179-27.80414zm-111.216536 66.72993c-12.289432 0-22.243318 9.95388-22.243318 22.24331v111.21655c0 36.59023 30.139681 66.72993 66.729914 66.72993 46.34393 0 92.67676 0 139.02067 0 21.82068 0 42.05097-11.68886 52.96132-30.58455 10.91034-18.8957 10.91034-42.2734 0-61.1691-10.91035-18.89569-31.14064-30.58455-52.96132-30.58455h-11.12164c-5.99458 0-11.46643-3.14744-14.46927-8.34125-3.00286-5.1938-3.00286-11.48867 0-16.68249 3.00284-5.1938 8.47469-8.34123 14.46927-8.34123h50.04745c12.28942 0 22.24328-9.95388 22.24328-22.24331 0-12.28943-9.95386-22.24331-22.24328-22.24331h-50.04745c-21.82071 0-42.09547 11.68887-53.00579 30.58455-10.91037 18.89569-10.91037 42.2734 0 61.16909 10.91032 18.8957 31.18508 30.58455 53.00579 30.58455h11.12164c5.99458 0 11.46643 3.14744 14.46927 8.34125 3.00285 5.1938 3.00285 11.48867 0 16.68247-3.00284 5.19382-8.47469 8.34124-14.46927 8.34124-46.34391 0-92.67674 0-139.02067 0-12.54522 0-22.24329-9.69807-22.24329-22.24329v-111.21655c0-12.28943-9.953887-22.24331-22.243306-22.24331z" fill="#b7b7b7"/>
</svg>
