<svg viewBox="0 0 24 24" xmlns="http://www.w3.org/2000/svg">
 <path d="m11 4c-1.211 0-2.311.35-3.133.955-.822.605-1.369 1.49-1.369 2.492v9.06c0 1 .545 1.896 1.365 2.512.82.616 1.923.98 3.137.98h1.996c1.214 0 2.316-.364 3.137-.98.82-.616 1.365-1.509 1.365-2.512v-9.06c0-1-.548-1.888-1.369-2.492-.822-.605-1.922-.955-3.133-.955m-1.258 1.762h.52c.376 0 .656.259.656.607v3.322c0 .349-.302.65-.656.65h-.52c-.354 0-.656-.301-.656-.65v-3.322c0-.349.28-.607.656-.607z" fill="#ececec" opacity=".4"/>
 <path d="m6.52 16.801c.095.883.606 1.664 1.346 2.219.82.616 1.923.98 3.137.98h1.996c1.214 0 2.316-.364 3.137-.98.74-.555 1.251-1.336 1.346-2.219h-10.961z" fill="#ff8000"/>
</svg>
