<svg viewBox="0 0 24 24" xmlns="http://www.w3.org/2000/svg">
 <g fill="#d44e2b" transform="translate(0 -1028.8622)">
  <path d="m10 1045.86l-2 2c-1 1-1 1 0 1h8c1 0 1 0 0-1l-2-2v-1h-4z"/>
  <path d="m6 1032.86c-1.108 0-2 .892-2 2v9c0 1.108.892 2 2 2h12c1.108 0 2-.892 2-2v-9c0-1.108-.892-2-2-2zm0 2h12v9h-12z"/>
  <g transform="translate(-.29480005)">
   <path d="m7.316 1041.42h1.453v-4.123l-1.491.308v-1.119l1.483-.308h1.564v5.242h1.453v1.136h-4.46v-1.136z"/>
   <path d="m14.846 1037.53l-1.803 2.67h1.803zm-.273-1.354h1.829v4.02h.91v1.192h-.91v1.162h-1.555v-1.162h-2.828v-1.41l2.555-3.807z"/>
  </g>
 </g>
</svg>
