<svg viewBox="0 0 24 24" xmlns="http://www.w3.org/2000/svg">
 <path d="m4 2c-1.108 0-2 .892-2 2v16c0 1.108.892 2 2 2h16c1.108 0 2-.892 2-2v-16c0-1.108-.892-2-2-2zm8.674 4.551v3.236c.167-.058.36-.109.576-.15.225-.042.445-.063.662-.063.525 0 .959.077 1.301.227.35.142.628.345.836.611.208.258.354.571.438.938.092.367.139.775.139 1.225v3.676h-1.514v-3.438c0-.35-.024-.645-.074-.887-.042-.25-.116-.452-.225-.602-.1-.158-.237-.269-.412-.336-.175-.075-.392-.113-.65-.113-.2 0-.405.021-.613.063-.208.042-.363.08-.463.113v5.199h-1.512v-9.449l1.512-.25zm-9.539 1.037h6.914v1.361h-2.664v7.301h-1.586v-7.301h-2.664zm16.277 6.83h.531v4.332h-.756v-3.318c-.113.088-.255.173-.426.256-.171.083-.334.153-.492.207l-.232-.576c.242-.096.483-.219.725-.369.246-.15.463-.327.65-.531z" fill="#d44e2b"/>
</svg>
