<svg viewBox="0 0 24 24" xmlns="http://www.w3.org/2000/svg">
 <path d="m4 2c-1.108 0-2 .892-2 2v16c0 1.108.892 2 2 2h16c1.108 0 2-.892 2-2v-16c0-1.108-.892-2-2-2zm1.973 5.5c.525 0 1.013.042 1.463.125.45.075.837.203 1.162.387.333.183.592.427.775.727.183.3.275.67.275 1.111 0 .408-.101.759-.301 1.051-.192.292-.462.524-.813.699.525.175.912.434 1.162.775.25.342.375.776.375 1.301 0 .892-.325 1.562-.975 2.01-.65.442-1.647.662-2.988.662-.458 0-.92-.015-1.387-.049-.467-.025-.875-.084-1.225-.176v-8.412c.183-.033.38-.063.588-.088.208-.033.42-.058.637-.074.217-.017.428-.031.637-.039.217-.008.422-.012.613-.012zm.199 1.287c-.242 0-.457.005-.648.014-.183.008-.343.02-.477.037v2.275h1.113c.6 0 1.07-.083 1.412-.25.342-.175.514-.484.514-.926 0-.417-.181-.712-.539-.887-.35-.175-.808-.264-1.375-.264zm8.141.787c.533 0 .98.077 1.338.227.358.142.641.345.85.611.217.258.368.576.451.951.092.367.137.769.137 1.211v3.676h-1.512v-3.438c0-.35-.026-.645-.076-.887-.042-.25-.116-.452-.225-.602-.1-.158-.24-.269-.424-.336-.175-.075-.392-.113-.65-.113-.192 0-.391.012-.6.037-.208.025-.363.046-.463.063v5.275h-1.514v-6.324c.292-.083.672-.163 1.139-.238.467-.075.982-.113 1.549-.113zm-9.266 2.775v2.639c.175.017.362.029.563.037.2.008.384.012.551.012.325 0 .625-.021.9-.063.283-.042.525-.113.725-.213.208-.108.372-.249.488-.424.125-.175.188-.401.188-.676 0-.492-.181-.834-.539-1.025-.358-.192-.853-.287-1.486-.287h-1.389zm14.879 2.068h.531v4.332h-.758v-3.318c-.113.088-.253.173-.424.256-.171.083-.336.153-.494.207l-.23-.576c.242-.096.483-.219.725-.369.246-.15.463-.327.65-.531z" fill="#d44e2b"/>
</svg>
