<svg viewBox="0 0 24 24" xmlns="http://www.w3.org/2000/svg">
 <path d="m4 2c-1.108 0-2 .892-2 2v16c0 1.108.892 2 2 2h16c1.108 0 2-.892 2-2v-16c0-1.108-.892-2-2-2zm-.393 5.588h1.574v3.574c.275-.275.563-.567.863-.875.3-.317.595-.633.887-.949.3-.325.585-.637.852-.938.267-.3.508-.571.725-.813h1.887c-.275.317-.567.645-.875.986-.308.342-.624.689-.949 1.039-.325.342-.655.682-.988 1.023-.325.342-.646.668-.963.977.35.267.704.579 1.063.938.367.35.726.728 1.076 1.137.35.4.683.82 1 1.262.325.433.62.867.887 1.301h-1.861c-.217-.333-.467-.684-.75-1.051-.283-.367-.584-.721-.9-1.063-.308-.342-.63-.666-.963-.975-.333-.308-.663-.574-.988-.799v3.887h-1.574v-8.662zm10.537 1.963c.458 0 .878.083 1.262.25.392.158.725.387 1 .687.275.3.489.661.639 1.086.158.417.236.884.236 1.4 0 .517-.075.987-.225 1.412-.15.425-.362.788-.637 1.088-.275.3-.608.535-1 .701-.383.167-.809.25-1.275.25-.467 0-.892-.083-1.275-.25-.383-.167-.711-.401-.986-.701-.275-.3-.492-.663-.65-1.088-.15-.425-.225-.895-.225-1.412 0-.517.075-.984.225-1.4.158-.425.375-.786.65-1.086.283-.3.617-.529 1-.687.383-.167.803-.25 1.262-.25zm0 1.312c-.5 0-.892.191-1.176.574-.275.375-.412.887-.412 1.537 0 .658.137 1.179.412 1.563.283.383.676.576 1.176.576.5 0 .887-.193 1.162-.576.283-.383.426-.904.426-1.563 0-.65-.142-1.162-.426-1.537-.275-.383-.662-.574-1.162-.574zm5.389 3.455c.462 0 .803.111 1.02.332.221.217.332.513.332.893 0 .15-.031.299-.094.445-.063.142-.144.28-.244.418-.096.133-.207.265-.332.395-.125.125-.25.246-.375.367-.067.063-.141.139-.225.227-.083.087-.163.174-.238.262-.075.087-.139.173-.193.256-.054.079-.084.147-.088.201h1.926v.637h-2.756c-.004-.033-.006-.073-.006-.119v-.111c0-.2.031-.384.094-.551.067-.171.152-.329.256-.475.104-.146.22-.283.35-.412.129-.129.258-.258.387-.383.1-.096.197-.19.289-.281.092-.092.17-.18.236-.268.071-.092.128-.184.17-.275.042-.096.063-.193.063-.293 0-.217-.063-.371-.188-.463-.125-.092-.278-.139-.457-.139-.117 0-.224.017-.324.051-.1.033-.19.073-.27.119-.075.046-.141.093-.199.143-.058.046-.104.084-.133.113l-.375-.531c.175-.167.38-.3.613-.4.238-.104.491-.156.762-.156z" fill="#d44e2b"/>
</svg>
