<svg viewBox="0 0 24 24" xmlns="http://www.w3.org/2000/svg">
 <path d="m4 2c-1.108 0-2 .892-2 2v16c0 1.108.892 2 2 2h16c1.108 0 2-.892 2-2v-16c0-1.108-.892-2-2-2zm-.063 5.588h5.563v1.338h-3.988v2.137h3.551v1.313h-3.551v2.537h4.287v1.338h-5.861v-8.662zm9.936 1.986c.533 0 .98.077 1.338.227.358.142.641.345.85.611.217.258.368.576.451.951.092.367.137.769.137 1.211v3.676h-1.512v-3.438c0-.35-.026-.645-.076-.887-.042-.25-.116-.452-.225-.602-.1-.158-.24-.269-.424-.336-.175-.075-.392-.113-.65-.113-.192 0-.391.012-.6.037-.208.025-.363.046-.463.063v5.275h-1.514v-6.324c.292-.083.672-.163 1.139-.238.467-.075.982-.113 1.549-.113zm6.625 4.82l.043.625c-.225.004-.435.028-.631.074-.196.042-.371.108-.525.199-.154.092-.286.212-.398.357-.108.146-.192.325-.25.537.204-.096.426-.145.668-.145.258 0 .477.038.656.113.183.071.331.168.443.293.113.125.194.271.244.438.054.163.082.335.082.514 0 .163-.03.329-.088.5-.054.171-.143.327-.264.469-.117.137-.264.252-.443.344-.179.087-.391.131-.637.131-.496 0-.876-.163-1.139-.488-.258-.329-.387-.78-.387-1.355 0-.417.061-.785.182-1.105.125-.325.3-.599.525-.82.229-.221.503-.387.824-.5.325-.117.69-.176 1.094-.18zm-1.188 2.25c-.121 0-.237.01-.35.031-.113.021-.215.052-.307.094-.004.033-.008.07-.012.111v.113c0 .167.01.325.031.475.025.146.063.274.117.387.058.108.137.197.232.264.1.063.223.094.369.094.121 0 .221-.026.305-.076.087-.05.159-.114.213-.193.054-.079.094-.164.119-.256.025-.096.037-.188.037-.275 0-.25-.061-.439-.182-.568-.121-.133-.312-.199-.574-.199z" fill="#d44e2b"/>
</svg>
