<svg viewBox="0 0 24 24" xmlns="http://www.w3.org/2000/svg">
 <path d="m4 2c-1.108 0-2 .892-2 2v16c0 1.108.892 2 2 2h16c1.108 0 2-.892 2-2v-16c0-1.108-.892-2-2-2zm4.98 5.75c1.258 0 2.222.229 2.889.688.675.458 1.012 1.175 1.012 2.15 0 .508-.092.946-.275 1.313-.175.358-.432.653-.773.887-.342.225-.758.392-1.25.5-.492.108-1.054.162-1.687.162h-.789v3.051h-1.574v-8.537c.367-.083.771-.137 1.213-.162.45-.033.861-.051 1.236-.051zm6.701.238v1.975h2.324v1.262h-2.324v2.662c0 .525.083.9.25 1.125.167.225.45.338.85.338.275 0 .516-.03.725-.088.217-.058.389-.112.514-.162l.25 1.201c-.175.075-.404.15-.688.225-.283.083-.617.125-1 .125-.467 0-.859-.063-1.176-.188-.308-.125-.553-.304-.736-.537-.183-.242-.314-.53-.389-.863-.075-.342-.111-.729-.111-1.162v-5.662l1.512-.25zm-6.588 1.125c-.4 0-.73.012-.988.037v2.949h.764c.758 0 1.342-.104 1.75-.313.408-.217.611-.621.611-1.213 0-.283-.054-.519-.162-.711-.108-.192-.258-.343-.449-.451-.192-.108-.421-.183-.688-.225-.258-.05-.538-.074-.838-.074z" fill="#d44e2b"/>
</svg>
