<svg viewBox="0 0 24 24" xmlns="http://www.w3.org/2000/svg">
 <path d="m4 2c-1.108 0-2 .892-2 2v16c0 1.108.892 2 2 2h16c1.108 0 2-.892 2-2v-16c0-1.108-.892-2-2-2zm1.463 5.588h5.475v1.338h-3.9v2.211h3.463v1.338h-3.463v3.775h-1.574v-8.662zm9.04 1.986c.1 0 .216.009.35.025.133.008.267.026.4.051.133.017.262.041.387.074.125.025.226.051.301.076l-.264 1.273c-.125-.042-.298-.083-.523-.125-.217-.05-.472-.074-.764-.074-.167 0-.345.017-.537.051-.183.033-.312.061-.387.086v5.238h-1.514v-6.225c.292-.108.655-.209 1.088-.301.442-.1.93-.15 1.463-.15zm3.086 4.744c.242 0 .45.03.625.088.175.058.317.142.43.25.117.104.204.229.258.375.058.142.086.298.086.469 0 .2-.055.379-.168.537-.108.158-.251.28-.426.363.225.079.411.209.557.393.15.183.225.42.225.707 0 .192-.033.37-.1.537-.067.163-.169.305-.307.426-.137.117-.311.21-.523.281-.208.067-.458.1-.75.1-.113 0-.231-.009-.352-.025-.117-.012-.228-.032-.336-.057-.104-.021-.202-.043-.289-.068-.087-.029-.153-.055-.199-.08l.15-.645c.087.042.214.09.381.145.167.05.373.074.619.074.329 0 .567-.063.713-.188.146-.129.219-.299.219-.512 0-.137-.03-.252-.088-.344-.054-.092-.132-.165-.232-.219-.096-.058-.207-.098-.336-.119-.125-.025-.259-.037-.4-.037h-.256v-.613h.313c.096 0 .191-.009.287-.025.1-.021.188-.054.268-.1.079-.05.145-.114.195-.193.05-.079.074-.182.074-.307 0-.1-.019-.185-.057-.256-.038-.071-.088-.13-.15-.176-.058-.046-.126-.079-.205-.1-.079-.021-.163-.031-.25-.031-.188 0-.354.03-.5.088-.146.054-.276.117-.389.188l-.273-.563c.058-.037.128-.077.211-.119.083-.042.175-.082.275-.119.104-.037.215-.067.332-.088.117-.025.24-.037.369-.037z" fill="#d44e2b"/>
</svg>
