<svg viewBox="0 0 24 24" xmlns="http://www.w3.org/2000/svg">
 <path d="m4 2c-1.108 0-2 .892-2 2v16c0 1.108.892 2 2 2h16c1.108 0 2-.892 2-2v-16c0-1.108-.892-2-2-2zm10.188 4.551v7.486c0 .183.012.338.037.463.033.125.087.233.162.324.075.083.176.151.301.201.133.042.3.075.5.1l-.213 1.25c-.45-.008-.825-.059-1.125-.15-.292-.092-.524-.22-.699-.387-.175-.175-.3-.389-.375-.639-.067-.258-.1-.55-.1-.875v-7.523zm-5.613.836c.542 0 1.021.063 1.438.188.425.117.758.247 1 .389l-.488 1.275c-.283-.158-.596-.28-.938-.363-.333-.083-.679-.125-1.037-.125-.425 0-.758.087-1 .262-.233.175-.35.422-.35.738 0 .192.038.358.113.5.083.133.194.255.336.363.15.108.322.207.514.299.2.092.417.18.65.264.408.15.769.303 1.086.461.325.15.596.334.813.551.225.208.397.458.514.75.117.283.174.629.174 1.037 0 .783-.278 1.393-.836 1.826-.55.425-1.359.637-2.426.637-.358 0-.688-.024-.988-.074-.292-.042-.554-.097-.787-.164-.225-.067-.421-.133-.588-.199-.167-.075-.298-.141-.398-.199l.461-1.289c.225.125.531.25.914.375.383.125.845.188 1.387.188.567 0 .98-.095 1.238-.287.258-.192.387-.463.387-.813 0-.208-.045-.387-.137-.537-.083-.15-.208-.284-.375-.4-.158-.125-.355-.238-.588-.338-.233-.108-.501-.213-.801-.313-.3-.108-.592-.225-.875-.35-.275-.133-.52-.295-.736-.486-.208-.192-.38-.421-.514-.688-.125-.267-.188-.588-.188-.963 0-.783.271-1.396.813-1.838.542-.45 1.28-.676 2.213-.676zm8.813 7.03h.531v4.332h-.758v-3.318c-.113.088-.253.173-.424.256-.171.083-.336.153-.494.207l-.23-.576c.242-.096.483-.219.725-.369.246-.15.463-.327.65-.531z" fill="#d44e2b"/>
</svg>
