<svg viewBox="0 0 24 24" xmlns="http://www.w3.org/2000/svg">
 <path d="m4 2c-1.108 0-2 .892-2 2v16c0 1.108.892 2 2 2h16c1.108 0 2-.892 2-2v-16c0-1.108-.892-2-2-2zm-.479 5.588h1.576v3.463h3.762v-3.463h1.576v8.662h-1.576v-3.838h-3.762v3.838h-1.576zm8.06 2.125h1.611c.083.35.184.728.301 1.137.125.408.259.825.4 1.25.142.417.291.833.449 1.25.158.417.316.804.475 1.162.267-.742.517-1.528.75-2.361.233-.842.447-1.654.639-2.438h1.563c-.675 2.483-1.458 4.733-2.35 6.75-.167.375-.339.696-.514.963-.175.267-.371.487-.588.662-.217.175-.458.3-.725.375-.267.083-.574.125-.924.125-.233 0-.468-.026-.701-.076-.225-.05-.395-.104-.512-.162l.275-1.213c.3.117.595.176.887.176.392 0 .695-.095.912-.287.225-.183.421-.472.588-.863-.475-.917-.933-1.917-1.375-3-.433-1.083-.82-2.233-1.162-3.449zm7.949 4.605c.242 0 .45.03.625.088.175.058.319.142.432.25.117.104.202.229.256.375.058.142.088.298.088.469 0 .2-.055.379-.168.537-.108.158-.251.28-.426.363.225.079.411.209.557.393.15.183.225.42.225.707 0 .192-.033.37-.1.537-.067.163-.169.305-.307.426-.137.117-.313.21-.525.281-.208.067-.458.1-.75.1-.113 0-.229-.009-.35-.025-.117-.012-.23-.032-.338-.057-.104-.021-.2-.043-.287-.068-.087-.029-.153-.055-.199-.08l.15-.645c.087.042.214.09.381.145.167.05.373.074.619.074.329 0 .565-.063.711-.188.146-.129.219-.299.219-.512 0-.137-.028-.252-.086-.344-.054-.092-.132-.165-.232-.219-.096-.058-.209-.098-.338-.119-.125-.025-.257-.037-.398-.037h-.258v-.613h.313c.096 0 .193-.009.289-.025.1-.021.188-.054.268-.1.079-.05.143-.114.193-.193.05-.079.076-.182.076-.307 0-.1-.019-.185-.057-.256-.038-.071-.088-.13-.15-.176-.058-.046-.126-.079-.205-.1-.079-.021-.162-.031-.25-.031-.188 0-.354.03-.5.088-.146.054-.276.117-.389.188l-.275-.563c.058-.037.13-.077.213-.119.083-.042.175-.082.275-.119.104-.037.215-.067.332-.088.117-.025.238-.037.367-.037z" fill="#d44e2b"/>
</svg>
