<svg viewBox="0 0 24 24" xmlns="http://www.w3.org/2000/svg">
 <path d="m4 2c-1.108 0-2 .892-2 2v16c0 1.108.892 2 2 2h16c1.108 0 2-.892 2-2v-16c0-1.108-.892-2-2-2zm2.07 5.5c.525 0 1.013.042 1.463.125.45.075.837.203 1.162.387.333.183.592.427.775.727.183.3.275.67.275 1.111 0 .408-.101.759-.301 1.051-.192.292-.463.524-.813.699.525.175.912.434 1.162.775.25.342.375.776.375 1.301 0 .892-.325 1.562-.975 2.01-.65.442-1.647.662-2.988.662-.458 0-.92-.015-1.387-.049-.467-.025-.875-.084-1.225-.176v-8.412c.183-.033.38-.063.588-.088.208-.033.42-.058.637-.074.217-.017.428-.031.637-.039.217-.008.422-.012.613-.012zm.199 1.287c-.242 0-.457.005-.648.014-.183.008-.343.02-.477.037v2.275h1.113c.6 0 1.07-.083 1.412-.25.342-.175.514-.484.514-.926 0-.417-.181-.712-.539-.887-.35-.175-.808-.264-1.375-.264zm8.129.764c.9 0 1.6.278 2.1.836.508.558.764 1.392.764 2.5 0 .083-.005.181-.014.289 0 .1-.003.19-.012.273h-4.313c.042.525.224.935.549 1.227.333.283.813.424 1.438.424.367 0 .7-.033 1-.1.308-.067.552-.138.727-.213l.199 1.238c-.083.042-.2.087-.35.137-.142.042-.308.08-.5.113-.183.042-.383.075-.6.1-.217.025-.439.037-.664.037-.575 0-1.075-.083-1.5-.25-.425-.175-.774-.413-1.049-.713-.275-.308-.48-.666-.613-1.074-.133-.417-.199-.872-.199-1.363 0-.575.083-1.078.25-1.512.175-.433.404-.791.688-1.074.283-.292.608-.509.975-.65.367-.15.742-.225 1.125-.225zm.012 1.262c-.233 0-.436.045-.611.137-.175.083-.326.196-.451.338-.117.142-.207.305-.273.488-.067.183-.114.371-.139.563h2.813c0-.208-.03-.405-.088-.588-.058-.192-.145-.355-.262-.488-.108-.142-.245-.249-.412-.324-.158-.083-.351-.125-.576-.125zm-9.266 1.537v2.639c.175.017.362.029.563.037.2.008.384.012.551.012.325 0 .625-.021.9-.063.283-.042.525-.113.725-.213.208-.108.372-.249.488-.424.125-.175.188-.401.188-.676 0-.492-.181-.834-.539-1.025-.358-.192-.853-.287-1.486-.287h-1.389zm14.314 1.969c.242 0 .45.03.625.088.175.058.319.142.432.25.117.104.202.229.256.375.058.142.088.298.088.469 0 .2-.057.379-.17.537-.108.158-.249.28-.424.363.225.079.409.209.555.393.15.183.227.42.227.707 0 .192-.035.37-.102.537-.067.163-.167.305-.305.426-.137.117-.313.21-.525.281-.208.067-.458.1-.75.1-.113 0-.229-.009-.35-.025-.117-.012-.23-.032-.338-.057-.104-.021-.2-.043-.287-.068-.087-.029-.155-.055-.201-.08l.15-.645c.087.042.214.09.381.145.167.05.373.074.619.074.329 0 .567-.063.713-.188.146-.129.219-.299.219-.512 0-.137-.03-.252-.088-.344-.054-.092-.13-.165-.23-.219-.096-.058-.209-.098-.338-.119-.125-.025-.259-.037-.4-.037h-.256v-.613h.313c.096 0 .191-.009.287-.025.1-.021.19-.054.27-.1.079-.05.143-.114.193-.193.05-.079.074-.182.074-.307 0-.1-.019-.185-.057-.256-.038-.071-.086-.13-.148-.176-.058-.046-.128-.079-.207-.1-.079-.021-.163-.031-.25-.031-.188 0-.354.03-.5.088-.146.054-.274.117-.387.188l-.275-.563c.058-.037.13-.077.213-.119.083-.042.173-.082.273-.119.104-.037.215-.067.332-.088.117-.025.24-.037.369-.037z" fill="#d44e2b"/>
</svg>
