<svg viewBox="0 0 24 24" xmlns="http://www.w3.org/2000/svg">
 <path d="m4 2c-1.108 0-2 .892-2 2v16c0 1.108.892 2 2 2h16c1.108 0 2-.892 2-2v-16c0-1.108-.892-2-2-2zm10.721 4.863c.25 0 .465.083.648.25.183.167.275.396.275.688 0 .283-.092.507-.275.674-.183.167-.398.25-.648.25-.258 0-.481-.083-.664-.25-.183-.167-.273-.39-.273-.674 0-.292.09-.521.273-.688.183-.167.406-.25.664-.25zm-9.672.725h1.574v3.463h3.762v-3.463h1.576v8.662h-1.576v-3.838h-3.762v3.838h-1.574zm8.922 2.125h1.512v6.537h-1.512zm4.404 4.705h.531v4.332h-.756v-3.318c-.113.088-.255.173-.426.256-.171.083-.336.153-.494.207l-.23-.576c.242-.096.483-.219.725-.369.246-.15.463-.327.65-.531z" fill="#d44e2b"/>
</svg>
