<svg viewBox="0 0 24 24" xmlns="http://www.w3.org/2000/svg">
 <path d="m4 2c-1.108 0-2 .892-2 2v16c0 1.108.892 2 2 2h16c1.108 0 2-.892 2-2v-16c0-1.108-.892-2-2-2zm3.916 5.387c.542 0 1.021.063 1.438.188.425.117.758.247 1 .389l-.488 1.275c-.283-.158-.596-.28-.938-.363-.333-.083-.679-.125-1.037-.125-.425 0-.758.087-1 .262-.233.175-.35.422-.35.738 0 .192.036.358.111.5.083.133.196.255.338.363.15.108.32.207.512.299.2.092.417.18.65.264.408.15.771.303 1.088.461.325.15.596.334.812.551.225.208.395.458.512.75.117.283.176.629.176 1.037 0 .783-.28 1.393-.838 1.826-.55.425-1.357.637-2.424.637-.358 0-.688-.024-.988-.074-.292-.042-.554-.097-.787-.164-.225-.067-.421-.133-.588-.199-.167-.075-.3-.141-.4-.199l.463-1.289c.225.125.529.25.912.375.383.125.847.188 1.389.188.567 0 .978-.095 1.236-.287.258-.192.389-.463.389-.813 0-.208-.047-.387-.139-.537-.083-.15-.208-.284-.375-.4-.158-.125-.355-.238-.588-.338-.233-.108-.499-.213-.799-.313-.3-.108-.592-.225-.875-.35-.275-.133-.522-.295-.738-.486-.208-.192-.378-.421-.512-.688-.125-.267-.188-.588-.188-.963 0-.783.271-1.396.813-1.838.542-.45 1.28-.676 2.213-.676zm6.676 2.188c.1 0 .216.009.35.025.133.008.267.026.4.051.133.017.262.041.387.074.125.025.226.051.301.076l-.264 1.273c-.125-.042-.3-.083-.525-.125-.217-.05-.47-.074-.762-.074-.167 0-.345.017-.537.051-.183.033-.314.061-.389.086v5.238h-1.512v-6.225c.292-.108.655-.209 1.088-.301.442-.1.93-.15 1.463-.15zm3.291 4.744c.246 0 .454.037.625.107.175.071.317.161.426.273.113.113.192.238.242.375.05.137.076.271.076.4 0 .229-.063.434-.188.613-.125.175-.269.314-.432.418.246.133.426.288.543.463.121.175.182.382.182.619 0 .179-.031.346-.094.5-.063.154-.156.288-.281.4-.125.113-.281.199-.469.262-.183.063-.395.094-.637.094-.283 0-.52-.04-.707-.119-.188-.079-.337-.178-.449-.299-.113-.121-.194-.251-.244-.389-.046-.142-.068-.275-.068-.4 0-.125.015-.24.049-.344.037-.108.088-.205.15-.293.063-.092.134-.175.213-.25.079-.075.163-.141.25-.199-.192-.133-.336-.277-.432-.432-.092-.158-.137-.351-.137-.576 0-.162.031-.315.094-.461.067-.15.16-.282.281-.395.121-.113.267-.203.438-.27.171-.067.36-.1.568-.1zm0 .619c-.113 0-.21.019-.293.057-.079.033-.145.078-.195.137-.05.054-.086.115-.111.182-.025.063-.037.125-.037.188 0 .158.057.308.174.449.121.142.32.255.6.338.154-.096.276-.203.363-.324.087-.125.131-.283.131-.475 0-.054-.012-.113-.037-.176-.021-.067-.059-.127-.113-.182-.05-.054-.114-.099-.193-.137-.079-.037-.175-.057-.287-.057zm-.23 1.855c-.15.096-.272.214-.363.352-.092.133-.137.293-.137.48 0 .063.012.128.037.199.025.071.067.137.125.195.058.058.133.107.225.148.092.038.206.057.344.057.125 0 .233-.015.324-.049.092-.033.168-.079.227-.133.058-.058.102-.123.131-.193.029-.075.043-.15.043-.225 0-.117-.023-.219-.068-.307-.046-.087-.112-.162-.199-.225-.083-.067-.184-.122-.301-.168-.117-.05-.245-.095-.387-.133z" fill="#d44e2b"/>
</svg>
