<svg viewBox="0 0 24 24" xmlns="http://www.w3.org/2000/svg">
 <path d="m4 2c-1.108 0-2 .892-2 2v16c0 1.108.892 2 2 2h16c1.108 0 2-.892 2-2v-16c0-1.108-.892-2-2-2zm1.418 5.838h1.463c.183.317.386.704.611 1.162.225.458.454.941.688 1.449.233.5.463 1.014.688 1.539.233.517.447.996.639 1.438.192-.442.4-.921.625-1.438.225-.525.454-1.039.688-1.539.233-.508.463-.991.688-1.449.225-.458.428-.845.611-1.162h1.426c.075.633.146 1.309.213 2.025.067.708.124 1.437.174 2.187.058.742.109 1.492.15 2.25.05.75.092 1.483.125 2.199h-1.549c-.033-1.01-.075-2.047-.125-3.113-.042-1.067-.11-2.1-.201-3.1-.092.192-.199.421-.324.688-.125.267-.259.558-.4.875-.142.308-.287.63-.438.963-.142.333-.284.658-.426.975-.133.308-.258.6-.375.875-.117.267-.215.496-.299.688h-1.176c-.083-.192-.182-.424-.299-.699-.117-.275-.247-.567-.389-.875-.133-.317-.274-.641-.424-.975-.142-.333-.284-.655-.426-.963-.142-.308-.275-.597-.4-.863-.125-.275-.233-.504-.324-.688-.092 1-.163 2.033-.213 3.1-.042 1.067-.08 2.105-.113 3.113h-1.549c.033-.717.07-1.458.111-2.225.05-.767.1-1.525.15-2.275.058-.758.121-1.491.188-2.199.067-.708.138-1.363.213-1.963zm13.11 1.986c.1 0 .216.009.35.025.133.008.267.026.4.051.133.017.264.041.389.074.125.025.224.051.299.076l-.262 1.273c-.125-.042-.3-.083-.525-.125-.217-.05-.47-.074-.762-.074-.167 0-.347.017-.539.051-.183.033-.312.061-.387.086v5.238h-1.512v-6.225c.292-.108.653-.209 1.086-.301.442-.1.93-.15 1.463-.15z" fill="#d44e2b"/>
</svg>
