<svg viewBox="0 0 24 24" xmlns="http://www.w3.org/2000/svg">
 <path d="m4 2c-1.108 0-2 .892-2 2v16c0 1.108.892 2 2 2h16c1.108 0 2-.892 2-2v-16c0-1.108-.892-2-2-2zm13.533 5.113c.25 0 .467.083.65.25.183.167.275.396.275.687 0 .283-.092.507-.275.674-.183.167-.4.25-.65.25-.258 0-.479-.083-.662-.25-.183-.167-.275-.39-.275-.674 0-.292.092-.521.275-.688.183-.167.404-.25.662-.25zm-11.322.725h1.463c.183.317.388.704.613 1.162.225.458.454.941.688 1.449.233.5.463 1.014.688 1.539.233.517.445.996.637 1.438.192-.442.4-.921.625-1.438.225-.525.454-1.039.688-1.539.233-.508.463-.991.688-1.449.225-.458.43-.845.613-1.162h1.424c.075.633.146 1.309.213 2.025.067.708.126 1.437.176 2.187.058.742.109 1.492.15 2.25.05.75.092 1.483.125 2.199h-1.551c-.033-1.01-.075-2.047-.125-3.113-.042-1.067-.108-2.1-.199-3.1-.092.192-.201.421-.326.688-.125.267-.259.558-.4.875-.142.308-.288.63-.438.963-.142.333-.282.658-.424.975-.133.308-.258.6-.375.875-.117.267-.217.496-.301.688h-1.174c-.083-.192-.184-.424-.301-.699-.117-.275-.245-.567-.387-.875-.133-.317-.276-.641-.426-.975-.142-.333-.284-.655-.426-.963-.142-.308-.273-.597-.398-.863-.125-.275-.235-.504-.326-.688-.092 1-.163 2.033-.213 3.1-.042 1.067-.078 2.105-.111 3.113h-1.551c.033-.717.072-1.458.113-2.225.05-.767.1-1.525.15-2.275.058-.758.121-1.491.188-2.199.067-.708.136-1.363.211-1.963zm10.572 2.125h1.514v6.537h-1.514z" fill="#d44e2b"/>
</svg>
