<svg viewBox="0 0 24 24" xmlns="http://www.w3.org/2000/svg">
 <path d="m4 2c-1.108 0-2 .892-2 2v16c0 1.108.892 2 2 2h16c1.108 0 2-.892 2-2v-16c0-1.108-.892-2-2-2zm4.361 5.387c.4 0 .754.03 1.063.088.317.05.587.109.812.176.225.067.409.138.551.213.15.075.254.129.313.162l-.475 1.287c-.25-.15-.563-.275-.938-.375-.367-.108-.756-.162-1.164-.162-.892 0-1.574.28-2.049.838-.467.55-.701 1.315-.701 2.299 0 .467.056.895.164 1.287.117.383.283.713.5.988.225.275.499.492.824.65.333.15.72.225 1.162.225.275 0 .513-.009.713-.025.2-.025.358-.055.475-.088v-3.111h1.576v4.162c-.217.083-.585.175-1.102.275-.517.1-1.112.15-1.787.15-.625 0-1.196-.101-1.713-.301-.517-.2-.958-.492-1.324-.875-.358-.383-.638-.854-.838-1.412-.2-.558-.299-1.201-.299-1.926 0-.725.108-1.365.324-1.924.225-.558.529-1.031.912-1.414.383-.392.833-.687 1.35-.887.517-.2 1.067-.301 1.65-.301zm7.133 2.188c.1 0 .216.009.35.025.133.008.267.026.4.051.133.017.262.041.387.074.125.025.226.051.301.076l-.262 1.273c-.125-.042-.3-.083-.525-.125-.217-.05-.472-.074-.764-.074-.167 0-.345.017-.537.051-.183.033-.312.061-.387.086v5.238h-1.514v-6.225c.292-.108.655-.209 1.088-.301.442-.1.93-.15 1.463-.15zm3.643 4.844h.719v2.676h.486v.619h-.486v1.037h-.738v-1.037h-1.9v-.537c.083-.183.195-.395.332-.633.142-.238.298-.48.469-.73.171-.25.351-.497.543-.738.192-.242.385-.46.576-.656zm-.02.932c-.1.121-.204.251-.313.389-.104.137-.207.28-.307.43-.1.15-.195.305-.287.463-.092.154-.175.309-.25.463h1.156v-1.744z" fill="#d44e2b"/>
</svg>
