<svg viewBox="0 0 24 24" xmlns="http://www.w3.org/2000/svg">
 <path d="m4 2c-1.108 0-2 .892-2 2v16c0 1.108.892 2 2 2h16c1.108 0 2-.892 2-2v-16c0-1.108-.892-2-2-2zm3.943 5.75c.725 0 1.388.087 1.988.262.6.167 1.112.434 1.537.801.433.358.767.817 1 1.375.233.55.35 1.208.35 1.975 0 .75-.116 1.405-.35 1.963-.233.55-.567 1.012-1 1.387-.425.367-.94.643-1.549.826-.6.175-1.267.262-2 .262-.35 0-.746-.015-1.188-.049-.442-.025-.864-.084-1.264-.176v-8.412c.4-.092.825-.151 1.275-.176.45-.025.849-.037 1.199-.037zm.102 1.363c-.467 0-.8.012-1 .037v6.05c.092.008.211.017.361.025h.613c1.058 0 1.845-.265 2.361-.799.525-.542.789-1.297.789-2.264 0-.983-.255-1.737-.764-2.262-.508-.525-1.295-.787-2.361-.787zm6.04.85h4.963v1.063c-.167.175-.387.42-.662.736-.267.317-.555.671-.863 1.063-.308.383-.621.788-.938 1.213-.308.417-.586.818-.836 1.201h3.375v1.262h-5.201v-.938c.183-.333.412-.696.688-1.088.275-.392.558-.782.85-1.174.292-.4.58-.78.863-1.139.292-.358.55-.671.775-.938h-3.01v-1.262z" fill="#d44e2b"/>
</svg>
