<svg viewBox="0 0 24 24" xmlns="http://www.w3.org/2000/svg">
 <path d="m4 2c-1.108 0-2 .892-2 2v16c0 1.108.892 2 2 2h16c1.108 0 2-.892 2-2v-16c0-1.108-.892-2-2-2zm8.736 4.551v3.236c.167-.058.358-.109.574-.15.225-.042.445-.063.662-.063.525 0 .959.077 1.301.227.35.142.63.345.838.611.208.258.354.571.438.938.092.367.137.775.137 1.225v3.676h-1.512v-3.438c0-.35-.026-.645-.076-.887-.042-.25-.116-.452-.225-.602-.1-.158-.237-.269-.412-.336-.175-.075-.392-.113-.65-.113-.2 0-.405.021-.613.063-.208.042-.361.08-.461.113v5.199h-1.514v-9.449l1.514-.25zm-9.236 1.037h6.199v1.162c-.275.3-.608.692-1 1.176-.392.475-.796.996-1.213 1.562-.417.558-.828 1.136-1.236 1.736-.4.592-.754 1.154-1.063 1.688h4.648v1.338h-6.549v-.988c.167-.308.358-.642.574-1 .225-.367.463-.742.713-1.125.25-.383.509-.77.775-1.162.275-.392.546-.767.813-1.125.267-.367.525-.712.775-1.037.258-.333.5-.628.725-.887h-4.162v-1.338zm14.83 6.83h2.213v.639h-1.57c-.004.071-.009.152-.018.244-.004.088-.011.176-.02.268-.004.092-.009.18-.018.264-.008.083-.017.153-.025.211.617.033 1.07.176 1.361.426.296.246.445.583.445 1.012 0 .196-.035.378-.102.545-.067.167-.167.311-.305.432-.137.121-.311.216-.52.287-.208.067-.451.1-.73.1-.113 0-.227-.009-.344-.025-.117-.017-.23-.038-.338-.063-.104-.021-.198-.043-.281-.068-.083-.025-.146-.048-.188-.068l.143-.639c.087.042.212.089.375.139.167.046.37.068.607.068.163 0 .301-.017.418-.051.117-.038.21-.086.281-.148.075-.063.129-.134.162-.213.033-.083.051-.172.051-.264 0-.137-.028-.259-.082-.367-.054-.108-.15-.2-.287-.275-.133-.075-.314-.132-.543-.17-.225-.038-.512-.055-.857-.055.046-.4.082-.78.107-1.139.025-.363.046-.725.063-1.088z" fill="#d44e2b"/>
</svg>
