<svg viewBox="0 0 24 24" xmlns="http://www.w3.org/2000/svg">
 <path d="m4 2c-1.108 0-2 .892-2 2v16c0 1.108.892 2 2 2h16c1.108 0 2-.892 2-2v-16c0-1.108-.892-2-2-2zm10.828 4.801v3.236c.167-.058.36-.109.576-.15.225-.042.445-.063.662-.063.525 0 .959.077 1.301.227.35.142.628.345.836.611.208.258.354.571.438.938.092.367.139.775.139 1.225v3.676h-1.514v-3.438c0-.35-.024-.645-.074-.887-.042-.25-.116-.452-.225-.602-.1-.158-.237-.269-.412-.336-.175-.075-.392-.113-.65-.113-.2 0-.405.021-.613.063-.208.042-.363.08-.463.113v5.199h-1.512v-9.449l1.512-.25zm-5.494.836c.358 0 .683.03.975.088.292.05.545.109.762.176.217.067.395.138.537.213.142.075.242.129.301.162l-.463 1.287c-.2-.125-.486-.241-.861-.35-.367-.117-.768-.176-1.201-.176-.375 0-.724.068-1.049.201-.325.125-.61.316-.852.574-.233.258-.415.583-.549.975-.133.392-.201.847-.201 1.363 0 .458.05.878.15 1.262.108.383.272.717.488 1 .217.275.491.492.824.65.333.15.735.225 1.201.225.558 0 1.01-.054 1.361-.162.35-.117.621-.224.812-.324l.426 1.287c-.1.067-.237.133-.412.199-.167.067-.368.135-.602.201-.233.058-.495.103-.787.137-.292.042-.604.063-.937.063-.65 0-1.233-.101-1.75-.301-.517-.2-.954-.492-1.313-.875-.358-.392-.633-.865-.824-1.424-.192-.558-.287-1.201-.287-1.926 0-.725.108-1.365.324-1.924.225-.558.529-1.031.912-1.414.383-.392.833-.687 1.35-.887.517-.2 1.072-.301 1.664-.301z" fill="#d44e2b"/>
</svg>
