<svg viewBox="0 0 24 24" xmlns="http://www.w3.org/2000/svg">
 <path d="m4 2c-1.108 0-2 .892-2 2v16c0 1.108.892 2 2 2h16c1.108 0 2-.892 2-2v-16c0-1.108-.892-2-2-2zm .479 5.588h6.912v1.361h-2.662v7.301h-1.588v-7.301h-2.662zm10.137 1.986c.1 0 .216.009.35.025.133.008.267.026.4.051.133.017.262.041.387.074.125.025.226.051.301.076l-.262 1.273c-.125-.042-.3-.083-.525-.125-.217-.05-.472-.074-.764-.074-.167 0-.345.017-.537.051-.183.033-.312.061-.387.086v5.238h-1.514v-6.225c.292-.108.655-.209 1.088-.301.442-.1.93-.15 1.463-.15zm3.174 4.744c.462 0 .801.111 1.018.332.221.217.332.513.332.893 0 .15-.031.299-.094.445-.063.142-.144.28-.244.418-.096.133-.207.265-.332.395-.125.125-.25.246-.375.367-.067.063-.141.139-.225.227-.083.087-.161.174-.236.262-.075.087-.141.173-.195.256-.054.079-.082.147-.086.201h1.924v.637h-2.756c-.004-.033-.006-.073-.006-.119v-.111c0-.2.031-.384.094-.551.067-.171.152-.329.256-.475.104-.146.22-.283.35-.412.129-.129.26-.258.389-.383.1-.096.195-.19.287-.281.092-.092.17-.18.236-.268.071-.092.128-.184.17-.275.042-.096.063-.193.063-.293 0-.217-.063-.371-.188-.463-.125-.092-.278-.139-.457-.139-.117 0-.224.017-.324.051-.1.033-.19.073-.27.119-.075.046-.141.093-.199.143-.058.046-.102.084-.131.113l-.375-.531c.175-.167.378-.3.611-.4.238-.104.493-.156.764-.156z" fill="#d44e2b"/>
</svg>
