<svg viewBox="0 0 24 24" xmlns="http://www.w3.org/2000/svg">
 <path d="m4 2c-1.108 0-2 .892-2 2v16c0 1.108.892 2 2 2h16c1.108 0 2-.892 2-2v-16c0-1.108-.892-2-2-2zm .686 5.838h1.463c.183.317.386.704.611 1.162.225.458.454.941.688 1.449.233.5.463 1.014.688 1.539.233.517.447.996.639 1.438.192-.442.4-.921.625-1.438.225-.525.454-1.039.688-1.539.233-.508.463-.991.688-1.449.225-.458.428-.845.611-1.162h1.426c.075.633.146 1.309.213 2.025.067.708.124 1.437.174 2.187.058.742.109 1.492.15 2.25.05.75.092 1.483.125 2.199h-1.549c-.033-1.01-.075-2.047-.125-3.113-.042-1.067-.11-2.1-.201-3.1-.092.192-.199.421-.324.688-.125.267-.259.558-.4.875-.142.308-.287.63-.438.963-.142.333-.284.658-.426.975-.133.308-.258.6-.375.875-.117.267-.215.496-.299.688h-1.176c-.083-.192-.182-.424-.299-.699-.117-.275-.247-.567-.389-.875-.133-.317-.274-.641-.424-.975-.142-.333-.284-.655-.426-.963-.142-.308-.275-.597-.4-.863-.125-.275-.233-.504-.324-.688-.092 1-.163 2.033-.213 3.1-.042 1.067-.08 2.105-.113 3.113h-1.549c.033-.717.07-1.458.111-2.225.05-.767.1-1.525.15-2.275.058-.758.121-1.491.188-2.199.067-.708.138-1.363.213-1.963zm9.709 2.125h1.613c.083.35.184.728.301 1.137.125.408.257.825.398 1.25.142.417.293.833.451 1.25.158.417.316.804.475 1.162.267-.742.517-1.528.75-2.361.233-.842.445-1.654.637-2.438h1.563c-.675 2.483-1.458 4.733-2.35 6.75-.167.375-.337.696-.512.963-.175.267-.371.487-.588.662-.217.175-.458.3-.725.375-.267.083-.576.125-.926.125-.233 0-.466-.026-.699-.076-.225-.05-.397-.104-.514-.162l.275-1.213c.3.117.597.176.889.176.392 0 .695-.095.912-.287.225-.183.421-.472.588-.863-.475-.917-.933-1.917-1.375-3-.433-1.083-.822-2.233-1.164-3.449z" fill="#d44e2b"/>
</svg>
