<svg viewBox="0 0 24 24" xmlns="http://www.w3.org/2000/svg">
 <path d="m4 2c-1.108 0-2 .892-2 2v16c0 1.108.892 2 2 2h16c1.108 0 2-.892 2-2v-16c0-1.108-.892-2-2-2zm2.389 5.5c.525 0 1.01.042 1.461.125.45.075.839.203 1.164.387.333.183.59.427.773.727.183.3.275.67.275 1.111 0 .408-.099.759-.299 1.051-.192.292-.463.524-.813.699.525.175.912.434 1.162.775.25.342.375.776.375 1.301 0 .892-.325 1.562-.975 2.01-.65.442-1.647.662-2.988.662-.458 0-.92-.015-1.387-.049-.467-.025-.877-.084-1.227-.176v-8.412c.183-.033.38-.063.588-.088.208-.033.422-.058.639-.074.217-.017.428-.031.637-.039.217-.008.422-.012.613-.012zm.199 1.287c-.242 0-.459.005-.65.014-.183.008-.341.02-.475.037v2.275h1.113c.6 0 1.07-.083 1.412-.25.342-.175.512-.484.512-.926 0-.417-.179-.712-.537-.887-.35-.175-.808-.264-1.375-.264zm4.604.926h1.611c.083.35.184.728.301 1.137.125.408.259.825.4 1.25.142.417.291.833.449 1.25.158.417.316.804.475 1.162.267-.742.517-1.528.75-2.361.233-.842.447-1.654.639-2.438h1.563c-.675 2.483-1.458 4.733-2.35 6.75-.167.375-.339.696-.514.963-.175.267-.371.487-.588.662-.217.175-.458.3-.725.375-.267.083-.574.125-.924.125-.233 0-.468-.026-.701-.076-.225-.05-.395-.104-.512-.162l.275-1.213c.3.117.595.176.887.176.392 0 .695-.095.912-.287.225-.183.421-.472.588-.863-.475-.917-.933-1.917-1.375-3-.433-1.083-.82-2.233-1.162-3.449zm-5.729 2.637v2.639c.175.017.362.029.563.037.2.008.384.012.551.012.325 0 .623-.021.898-.063.283-.042.527-.113.727-.213.208-.108.37-.249.486-.424.125-.175.188-.401.188-.676 0-.492-.179-.834-.537-1.025-.358-.192-.855-.287-1.488-.287h-1.387zm13.678 1.969c.242 0 .45.03.625.088.175.058.319.142.432.25.117.104.202.229.256.375.058.142.088.298.088.469 0 .2-.055.379-.168.537-.108.158-.251.28-.426.363.225.079.411.209.557.393.15.183.225.42.225.707 0 .192-.033.37-.1.537-.067.163-.169.305-.307.426-.137.117-.313.21-.525.281-.208.067-.458.1-.75.1-.113 0-.229-.009-.35-.025-.117-.012-.23-.032-.338-.057-.104-.021-.2-.043-.287-.068-.087-.029-.153-.055-.199-.08l.15-.645c.087.042.214.09.381.145.167.05.373.074.619.074.329 0 .565-.063.711-.188.146-.129.219-.299.219-.512 0-.137-.028-.252-.086-.344-.054-.092-.132-.165-.232-.219-.096-.058-.209-.098-.338-.119-.125-.025-.257-.037-.398-.037h-.258v-.613h.313c.096 0 .193-.009.289-.025.1-.021.188-.054.268-.1.079-.05.143-.114.193-.193.05-.079.076-.182.076-.307 0-.1-.019-.185-.057-.256-.038-.071-.088-.13-.15-.176-.058-.046-.126-.079-.205-.1-.079-.021-.163-.031-.25-.031-.188 0-.354.03-.5.088-.146.054-.276.117-.389.188l-.275-.563c.058-.037.13-.077.213-.119.083-.042.175-.082.275-.119.104-.037.215-.067.332-.088.117-.025.238-.037.367-.037z" fill="#d44e2b"/>
</svg>
