<svg viewBox="0 0 24 24" xmlns="http://www.w3.org/2000/svg">
 <path d="m4 2c-1.108 0-2 .892-2 2v16c0 1.108.892 2 2 2h16c1.108 0 2-.892 2-2v-16c0-1.108-.892-2-2-2zm-.344 5.588h1.574v3.574c.275-.275.563-.567.863-.875.3-.317.595-.633.887-.949.3-.325.585-.637.852-.938.267-.3.508-.571.725-.813h1.887c-.275.317-.567.645-.875.986-.308.342-.624.689-.949 1.039-.325.342-.655.682-.988 1.023-.325.342-.646.668-.963.977.35.267.704.579 1.063.938.367.35.726.728 1.076 1.137.35.4.683.82 1 1.262.325.433.62.867.887 1.301h-1.861c-.217-.333-.467-.684-.75-1.051-.283-.367-.584-.721-.9-1.063-.308-.342-.63-.666-.963-.975-.333-.308-.663-.574-.988-.799v3.887h-1.574v-8.662zm7.76 2.125h1.514v3.424c0 .7.099 1.2.299 1.5.208.3.568.451 1.076.451.183 0 .374-.009.574-.025.208-.017.363-.038.463-.063v-5.287h1.512v6.338c-.292.075-.67.15-1.137.225-.467.083-.979.125-1.537.125-.525 0-.968-.075-1.326-.225-.35-.15-.633-.358-.85-.625-.208-.267-.358-.585-.449-.951-.092-.375-.139-.783-.139-1.225zm8.1 4.605c.508 0 .892.165 1.15.494.262.325.395.785.395 1.381 0 .842-.217 1.479-.65 1.912-.433.433-1.098.652-1.994.656l-.031-.631c.25 0 .476-.021.676-.063.204-.042.381-.108.531-.199.154-.092.283-.212.387-.357.104-.15.184-.332.238-.549-.1.046-.211.08-.332.105-.121.025-.237.037-.35.037-.258 0-.479-.033-.662-.1-.179-.071-.327-.166-.443-.287-.113-.125-.196-.269-.25-.432-.054-.163-.082-.338-.082-.525 0-.162.028-.326.082-.492.054-.171.139-.327.256-.469.117-.142.264-.256.443-.344.179-.092.391-.139.637-.139zm.02.625c-.121 0-.225.026-.313.076-.083.05-.153.114-.207.193-.054.079-.092.164-.117.256-.025.092-.039.182-.039.27 0 .254.061.445.182.574.125.129.32.193.582.193.121 0 .239-.01.355-.031.117-.025.217-.06.301-.105.004-.046.006-.086.006-.119v-.088c0-.167-.012-.323-.037-.469-.021-.15-.061-.278-.119-.387-.054-.113-.13-.201-.23-.264-.096-.067-.217-.1-.363-.1z" fill="#d44e2b"/>
</svg>
