<svg viewBox="0 0 24 24" xmlns="http://www.w3.org/2000/svg">
 <path d="m4 2c-1.108 0-2 .892-2 2v16c0 1.108.892 2 2 2h16c1.108 0 2-.892 2-2v-16c0-1.108-.892-2-2-2zm14.13 4.801v9.5c-.3.092-.678.175-1.137.25-.45.075-.926.111-1.426.111-.517 0-.978-.078-1.387-.236-.408-.158-.759-.384-1.051-.676-.283-.3-.504-.658-.662-1.074-.15-.425-.225-.901-.225-1.426 0-.517.063-.984.188-1.4.133-.425.324-.788.574-1.088.25-.3.556-.529.914-.688.358-.167.77-.25 1.236-.25.317 0 .596.038.838.113.242.075.45.158.625.25v-3.137l1.512-.25zm-9.65.836c.542 0 1.021.063 1.438.188.425.117.758.247 1 .389l-.486 1.275c-.283-.158-.596-.28-.938-.363-.333-.083-.681-.125-1.039-.125-.425 0-.758.087-1 .262-.233.175-.35.422-.35.738 0 .192.038.358.113.5.083.133.196.255.338.363.15.108.32.207.512.299.2.092.417.18.65.264.408.15.771.303 1.088.461.325.15.596.334.813.551.225.208.395.458.512.75.117.283.176.629.176 1.037 0 .783-.28 1.393-.838 1.826-.55.425-1.359.637-2.426.637-.358 0-.686-.024-.986-.074-.292-.042-.556-.097-.789-.164-.225-.067-.419-.133-.586-.199-.167-.075-.3-.141-.4-.199l.463-1.289c.225.125.529.25.912.375.383.125.845.188 1.387.188.567 0 .98-.095 1.238-.287.258-.192.387-.463.387-.813 0-.208-.045-.387-.137-.537-.083-.15-.208-.284-.375-.4-.158-.125-.355-.238-.588-.338-.233-.108-.501-.213-.801-.313-.3-.108-.592-.225-.875-.35-.275-.133-.52-.295-.736-.486-.208-.192-.38-.421-.514-.688-.125-.267-.188-.588-.188-.963 0-.783.271-1.396.813-1.838.542-.45 1.28-.676 2.213-.676zm6.9 3.488c-.55 0-.953.188-1.211.563-.25.375-.375.884-.375 1.525 0 .667.158 1.191.475 1.574.317.375.754.563 1.313.563.242 0 .445-.009.611-.025.175-.025.317-.049.426-.074v-3.75c-.133-.092-.312-.175-.537-.25-.217-.083-.451-.125-.701-.125z" fill="#d44e2b"/>
</svg>
