<svg viewBox="0 0 24 24" xmlns="http://www.w3.org/2000/svg">
 <path d="m4 2c-1.108 0-2 .892-2 2v16c0 1.108.892 2 2 2h16c1.108 0 2-.892 2-2v-16c0-1.108-.892-2-2-2zm .156 5.588h5.477v1.338h-3.9v2.211h3.463v1.338h-3.463v3.775h-1.576v-8.662zm9.439 1.963c.458 0 .878.083 1.262.25.392.158.725.387 1 .687.275.3.489.661.639 1.086.158.417.236.884.236 1.4 0 .517-.075.987-.225 1.412-.15.425-.362.788-.637 1.088-.275.3-.608.535-1 .701-.383.167-.809.25-1.275.25-.467 0-.892-.083-1.275-.25-.383-.167-.713-.401-.988-.701-.275-.3-.49-.663-.648-1.088-.15-.425-.227-.895-.227-1.412 0-.517.077-.984.227-1.4.158-.425.373-.786.648-1.086.283-.3.617-.529 1-.687.383-.167.805-.25 1.264-.25zm0 1.312c-.5 0-.892.191-1.176.574-.275.375-.412.887-.412 1.537 0 .658.137 1.179.412 1.563.283.383.676.576 1.176.576.5 0 .887-.193 1.162-.576.283-.383.426-.904.426-1.563 0-.65-.142-1.162-.426-1.537-.275-.383-.662-.574-1.162-.574zm5.389 3.455c.462 0 .803.111 1.02.332.221.217.33.513.33.893 0 .15-.031.299-.094.445-.063.142-.142.28-.242.418-.096.133-.207.265-.332.395-.125.125-.25.246-.375.367-.067.063-.141.139-.225.227-.083.087-.163.174-.238.262-.075.087-.139.173-.193.256-.054.079-.084.147-.088.201h1.926v.637h-2.756c-.004-.033-.008-.073-.008-.119v-.111c0-.2.031-.384.094-.551.067-.171.154-.329.258-.475.104-.146.22-.283.35-.412.129-.129.258-.258.387-.383.1-.096.195-.19.287-.281.092-.092.172-.18.238-.268.071-.092.126-.184.168-.275.042-.096.063-.193.063-.293 0-.217-.063-.371-.188-.463-.125-.092-.276-.139-.455-.139-.117 0-.226.017-.326.051-.1.033-.188.073-.268.119-.075.046-.143.093-.201.143-.058.046-.102.084-.131.113l-.375-.531c.175-.167.38-.3.613-.4.238-.104.491-.156.762-.156z" fill="#d44e2b"/>
</svg>
