<svg viewBox="0 0 24 24" xmlns="http://www.w3.org/2000/svg">
 <path d="m4 2c-1.108 0-2 .892-2 2v16c0 1.108.892 2 2 2h16c1.108 0 2-.892 2-2v-16c0-1.108-.892-2-2-2zm-.455 5.588h1.461c.183.317.388.704.613 1.162.225.458.454.941.688 1.449.233.5.463 1.014.688 1.539.233.517.445.996.637 1.438.192-.442.4-.921.625-1.438.225-.525.454-1.039.688-1.539.233-.508.463-.991.688-1.449.225-.458.43-.845.613-1.162h1.426c.075.633.144 1.309.211 2.025.067.708.126 1.437.176 2.187.058.742.109 1.492.15 2.25.05.75.092 1.483.125 2.199h-1.551c-.033-1.01-.075-2.047-.125-3.113-.042-1.067-.108-2.1-.199-3.1-.092.192-.201.421-.326.688-.125.267-.257.558-.398.875-.142.308-.287.63-.438.963-.142.333-.284.658-.426.975-.133.308-.258.6-.375.875-.117.267-.217.496-.301.688h-1.174c-.083-.192-.184-.424-.301-.699-.117-.275-.245-.567-.387-.875-.133-.317-.276-.641-.426-.975-.142-.333-.282-.655-.424-.963-.142-.308-.275-.597-.4-.863-.125-.275-.235-.504-.326-.688-.092 1-.161 2.033-.211 3.1-.042 1.067-.08 2.105-.113 3.113h-1.551c.033-.717.072-1.458.113-2.225.05-.767.1-1.525.15-2.275.058-.758.121-1.491.188-2.199.067-.708.138-1.363.213-1.963zm11.996.15v1.975h2.326v1.262h-2.326v2.662c0 .525.083.9.25 1.125.167.225.45.338.85.338.275 0 .518-.03.727-.088.217-.058.387-.112.512-.162l.25 1.201c-.175.075-.404.15-.688.225-.283.083-.617.125-1 .125-.467 0-.859-.063-1.176-.188-.308-.125-.553-.304-.736-.537-.183-.242-.314-.53-.389-.863-.075-.342-.111-.729-.111-1.162v-5.662l1.512-.25zm4.762 6.68h.531v4.332h-.756v-3.318c-.113.088-.253.173-.424.256-.171.083-.336.153-.494.207l-.232-.576c.242-.096.485-.219.727-.369.246-.15.461-.327.648-.531z" fill="#d44e2b"/>
</svg>
