<svg viewBox="0 0 24 24" xmlns="http://www.w3.org/2000/svg">
 <path d="m4 2c-1.108 0-2 .892-2 2v16c0 1.108.892 2 2 2h16c1.108 0 2-.892 2-2v-16c0-1.108-.892-2-2-2zm2.693 5.387c.358 0 .683.03.975.088.292.05.545.109.762.176.217.067.395.138.537.213.142.075.242.129.301.162l-.463 1.287c-.2-.125-.486-.241-.861-.35-.367-.117-.768-.176-1.201-.176-.375 0-.724.068-1.049.201-.325.125-.61.316-.852.574-.233.258-.415.583-.549.975-.133.392-.201.847-.201 1.363 0 .458.05.878.15 1.262.108.383.272.717.488 1 .217.275.491.492.824.65.333.15.735.225 1.201.225.558 0 1.011-.054 1.361-.162.35-.117.621-.224.813-.324l.426 1.287c-.1.067-.237.133-.412.199-.167.067-.368.135-.602.201-.233.058-.495.103-.787.137-.292.042-.604.063-.938.063-.65 0-1.233-.101-1.75-.301-.517-.2-.954-.492-1.313-.875-.358-.392-.633-.865-.824-1.424-.192-.558-.287-1.201-.287-1.926 0-.725.108-1.365.324-1.924.225-.558.529-1.031.912-1.414.383-.392.833-.687 1.35-.887.517-.2 1.072-.301 1.664-.301zm5.9 2.188c.45 0 .816.059 1.1.176.292.117.533.271.725.463.092-.067.208-.138.35-.213.142-.075.302-.141.477-.199.175-.067.357-.122.549-.164.2-.042.4-.063.6-.063.508 0 .925.077 1.25.227.333.142.592.345.775.611.192.258.322.576.389.951.075.367.111.769.111 1.211v3.676h-1.512v-3.438c0-.683-.083-1.175-.25-1.475-.167-.308-.488-.463-.963-.463-.242 0-.471.042-.688.125-.217.075-.38.15-.488.225.067.208.114.429.139.662.025.233.037.483.037.75v3.613h-1.512v-3.438c0-.683-.089-1.175-.264-1.475-.167-.308-.483-.463-.949-.463-.167 0-.351.012-.551.037-.2.025-.349.046-.449.063v5.275h-1.514v-6.324c.292-.083.672-.163 1.139-.238.475-.075.975-.113 1.5-.113zm8.432 4.844h.531v4.332h-.756v-3.318c-.113.088-.253.173-.424.256-.171.083-.336.153-.494.207l-.232-.576c.242-.096.485-.219.727-.369.246-.15.461-.327.648-.531z" fill="#d44e2b"/>
</svg>
