<svg height="512" viewBox="0 0 512 512" width="512" xmlns="http://www.w3.org/2000/svg">
 <path d="m256 98.84l-77.28 133.84-77.28 133.88h309.12l-77.28-133.87-77.28-133.84m0 77.19c6.548 0 11.888 2.076 16.03 6.219 4.41 4.677 6.625 11.291 6.625 19.844 0 8.687-2.076 18.811-6.219 30.438l-5 14.25c-2.406 7.216-4.428 17.13-6.03 29.688h-10.813c-.267-1.871-.545-3.7-.813-5.438-.134-1.737-.327-3.396-.594-5-.668-4.01-1.417-7.636-2.219-10.844-.668-3.207-1.471-6-2.406-8.406l-5-14.25c-4.143-11.626-6.219-21.751-6.219-30.438 0-8.152 2.547-14.765 7.625-19.844 4.143-4.143 9.151-6.219 15.03-6.219m-.406 121.66c5.613 0 10.236 1.883 13.844 5.625 3.742 3.742 5.625 8.28 5.625 13.625s-1.883 9.883-5.625 13.625c-3.608 3.608-8.231 5.406-13.844 5.406-5.346 0-9.883-1.798-13.625-5.406-3.742-3.742-5.625-8.28-5.625-13.625s1.883-9.883 5.625-13.625 8.279-5.625 13.625-5.625" fill="#d44e2b"/>
 <text x="729.64" y="231.36">
  
 </text>
 <text x="1310.91" y="151.36">
  
 </text>
 <text x="239.33" y="-29.9">
  
 </text>
 <text x="1337.38" y="-246.37">
  
 </text>
 <text x="1918.65" y="-326.37">
  
 </text>
 <text x="1529.53" y="-798.77">
  
 </text>
 <text x="2110.79" y="-878.78">
  
 </text>
 <text x="277.99" y="535.94">
  
 </text>
</svg>
