<svg viewBox="0 0 512 512" xmlns="http://www.w3.org/2000/svg">
 <filter id="a" color-interpolation-filters="sRGB">
  <feColorMatrix values="0.21 0.72 0.072 0 0 0.21 0.72 0.072 0 0 0.21 0.72 0.072 0 0 0 0 0 1 0"/>
 </filter>
 <filter id="b" color-interpolation-filters="sRGB">
  <feColorMatrix values="0.21 0.72 0.072 0 0 0.21 0.72 0.072 0 0 0.21 0.72 0.072 0 0 0 0 0 1 0"/>
 </filter>
 <filter id="c" color-interpolation-filters="sRGB">
  <feColorMatrix values="0.21 0.72 0.072 0 0 0.21 0.72 0.072 0 0 0.21 0.72 0.072 0 0 0 0 0 1 0"/>
 </filter>
 <filter id="d" color-interpolation-filters="sRGB">
  <feColorMatrix values="0.21 0.72 0.072 0 0 0.21 0.72 0.072 0 0 0.21 0.72 0.072 0 0 0 0 0 1 0"/>
 </filter>
 <filter id="e" color-interpolation-filters="sRGB">
  <feColorMatrix values="0.21 0.72 0.072 0 0 0.21 0.72 0.072 0 0 0.21 0.72 0.072 0 0 0 0 0 1 0"/>
 </filter>
 <g fill-opacity=".078" filter="url(#a)">
  <path d="m66.61 0c-4.047 0-7.299 3.253-7.299 7.299v497.4c0 4.047 3.253 7.299 7.299 7.299h378.79c4.047 0 7.299-3.253 7.299-7.299v-359.46l-145.21-145.24h-240.88"/>
  <path d="m69.2 3.5c-3.991 0-7.2 3.208-7.2 7.2v490.6c0 3.991 3.208 7.2 7.2 7.2h373.61c3.991 0 7.2-3.208 7.2-7.2v-354.55l-143.22-143.25z"/>
  <path d="m71.786 7c-3.936 0-7.1 3.164-7.1 7.1v483.8c0 3.936 3.164 7.1 7.1 7.1h368.43c3.936 0 7.1-3.164 7.1-7.1v-349.63l-141.24-141.27z"/>
 </g>
 <path d="m74.37 10.5c-3.881 0-7 3.119-7 7v477c0 3.881 3.119 7 7 7h363.25c3.881 0 7-3.119 7-7v-344.72l-139.25-139.28z" fill="#f59640" filter="url(#b)"/>
 <path d="m308.78 148.78c4.487 5.957 11.24 10.578 16.06 16.313 39.915 39.949 79.85 79.881 119.78 119.81v-135.12h-132.25c-1.321 0-2.542-.37-3.594-1" fill-opacity=".235" filter="url(#c)"/>
 <path d="m444.62 149.78l-139.25-139.28v132.28c0 3.881 3.119 7 7 7z" fill="#ffffff" fill-opacity=".196" filter="url(#d)"/>
 <g fill-rule="evenodd" filter="url(#e)">
  <path d="m111.75 160.84v54.09l66.906 66.906c-20.686-8.27-43.27-12.813-66.906-12.813v54.09l178.38 178.38h147.5c3.881 0 7-3.119 7-7v-120.28l-128.87-128.87c-52.21-52.21-124.33-84.5-204-84.5m36.06 216.38c-19.917 0-36.06 16.14-36.06 36.06 0 6.641-.004 18.667.031 36.06l52.16 52.16h123.09l-113.72-113.72c-6.526-6.526-15.541-10.563-25.5-10.563m226.69 3.375c6.194 1.01 12.32 2.195 18.375 3.594 1.397 6.05 2.584 12.185 3.594 18.375z" opacity=".25"/>
  <path d="m111.75 160.84v54.09c129.46 0 234.41 104.95 234.41 234.41h54.09c0-159.34-129.16-288.5-288.5-288.5m0 108.19v54.09c69.71 0 126.22 56.51 126.22 126.22h54.09c0-99.58-80.73-180.31-180.31-180.31m36.06 108.19c-19.917 0-36.06 16.14-36.06 36.06 0 6.641-.004 18.667.031 36.06 17.373.008 29.392 0 36.03 0 19.917 0 36.06-16.14 36.06-36.06 0-19.918-16.15-36.06-36.06-36.06" fill="#ffffff"/>
 </g>
</svg>
