<svg height="48" viewBox="0 0 48 48" width="48" xmlns="http://www.w3.org/2000/svg">
 <path d="m8 1c-1.0285715 0-2 .9714285-2 2v42c0 .971429 1.0285714 2 2 2h32c .971429 0 2-1.028571 2-2v-31l-13-13z" fill="#c1c1c1"/>
 <path d="m29 12l .0625.0625.15625-.0625zm2 2l11 11v-11z" fill-opacity=".196"/>
 <path d="m29 1l13 13h-11c-.971429 0-2-1.028571-2-2z" fill="#ffffff" fill-opacity=".392"/>
 <g fill="#ffffff" transform="matrix(.16031 0 0 .16031 3.48 35.61875)">
  <path d="m128-109.90253c-27.56062 0-49.902534 6.98168-49.902534 15.594542v12.475633c0 8.61267 22.341324 15.594541 49.902534 15.594541 27.56043 0 49.90253-6.981871 49.90253-15.594541v-12.475633c0-8.612862-22.3421-15.594542-49.90253-15.594542z"/>
  <path d="m127.84269-59.999997c-22.34444 0-41.179922-4.589279-47.538596-10.916179-1.484406 1.476998-2.206628 3.048538-2.206628 4.678362v12.475634c0 8.612865 22.341324 15.594541 49.902534 15.594541 27.56043 0 49.90253-6.981676 49.90253-15.594541v-12.475634c0-1.629824-.88031-3.201364-2.36472-4.678362-6.35847 6.3269-25.35068 10.916179-47.69512 10.916179z"/>
  <path d="m127.84269-31.929822c-22.34444 0-41.179922-4.589474-47.538596-10.916179-1.484406 1.476803-2.206628 3.048538-2.206628 4.678362v12.475634c0 8.61267 22.341324 15.594541 49.902534 15.594541 27.56043 0 49.90253-6.981871 49.90253-15.594541v-12.475634c0-1.629824-.88031-3.201559-2.36472-4.678362-6.35847 6.326705-25.35068 10.916179-47.69512 10.916179z"/>
 </g>
</svg>
