<svg viewBox="0 0 48 48" xmlns="http://www.w3.org/2000/svg">
 <path d="m8.06 6c-1.029 0-2.057 1.029-2.057 2.057v31.943c0 .971 1.029 2 2 2h32c .971 0 2-1.029 2-2v-32c0-.971-1.029-2-2-2z" fill="#c1c1c1"/>
 <g fill="#ffffff">
  <path d="m8.06 6c-1.029 0-2.057 1.029-2.057 2.057v9.943c4 0 32 0 36 0v-10c0-.971-1.029-2-2-2z" fill-opacity=".196"/>
  <path d="m21 10v16h6v-16z" fill-opacity=".392"/>
 </g>
 <g fill="#ffffff" transform="scale(1.035999 .96525192)">
  <path d="m18.429 39.37l-.406-1.811h-2.332l-.392 1.811h-1.784c.72-2.879 1.61-5.651 2.467-8.288h1.878c.938 2.807 1.771 5.646 2.411 8.288zm-1.552-6.703c-.356 1.108-.665 2.504-.878 3.593h1.741c-.198-1.175-.554-2.5-.864-3.593z"/>
  <path d="m23.629 30.957c-.75.013-1.445.037-2.249.2v8.211h1.665v-2.809h.547c1.059 0 1.875-.218 2.449-.658.583-.447.873-1.171.873-2.165 0-.985-.288-1.69-.86-2.123-.576-.436-1.383-.676-2.424-.658zm.187 1.439c.433.002.772.109 1.031.31.262.202.398.536.398 1.02 0 .51-.131.876-.398 1.089-.262.209-.657.31-1.178.31h-.624v-2.689c.284-.015.486-.04.771-.038z"/>
  <path d="m30.386 30.957c-.75.013-1.445.037-2.249.2v8.211h1.665v-2.809h.547c1.059 0 1.875-.218 2.449-.658.583-.447.873-1.171.873-2.165 0-.985-.288-1.69-.86-2.123-.576-.436-1.383-.676-2.424-.658zm.187 1.439c.433.002.772.109 1.031.31.262.202.398.536.398 1.02 0 .51-.131.876-.398 1.089-.262.209-.657.31-1.178.31h-.624v-2.689c.284-.015.486-.04.771-.038z"/>
 </g>
</svg>
