<svg viewBox="0 0 48 48" xmlns="http://www.w3.org/2000/svg">
 <path d="m8 1c-1.029 0-2 .971-2 2v42c0 .971 1.029 2 2 2h32c .971 0 2-1.029 2-2v-31l-13-13z" fill="#c1c1c1"/>
 <path d="m29 12l .063.063.156-.063zm2 2l11 11v-11z" fill-opacity=".196"/>
 <path d="m29 1l13 13h-11c-.971 0-2-1.029-2-2z" fill="#ffffff" fill-opacity=".392"/>
 <rect fill="#c1c1c1" height="7" rx=".579" ry=".601" width="8" x="15" y="17"/>
 <path d="m25.5 17.5h6" fill="#c1c1c1" stroke="#888888" stroke-dashoffset=".774" stroke-linecap="round" stroke-linejoin="round"/>
 <path d="m15.5 26.5h16" fill="#c1c1c1" stroke="#888888" stroke-dashoffset=".774" stroke-linecap="round" stroke-linejoin="round"/>
 <path d="m15.5 29.5h16" fill="#c1c1c1" stroke="#888888" stroke-dashoffset=".774" stroke-linecap="round" stroke-linejoin="round"/>
 <path d="m15.5 32.5h16" fill="#c1c1c1" stroke="#888888" stroke-dashoffset=".774" stroke-linecap="round" stroke-linejoin="round"/>
 <path d="m15.5 35.5h16" fill="#c1c1c1" stroke="#888888" stroke-dashoffset=".774" stroke-linecap="round" stroke-linejoin="round"/>
 <path d="m25.5 20.5h6" fill="#c1c1c1" stroke="#888888" stroke-dashoffset=".774" stroke-linecap="round" stroke-linejoin="round"/>
 <path d="m25.5 23.5h6" fill="#c1c1c1" stroke="#888888" stroke-dashoffset=".774" stroke-linecap="round" stroke-linejoin="round"/>
</svg>
