<svg height="48" viewBox="0 0 48 48" width="48" xmlns="http://www.w3.org/2000/svg">
 <path d="m8 1c-1.0285715 0-2 .9714285-2 2v42c0 .971429 1.0285714 2 2 2h32c .971429 0 2-1.028571 2-2v-31l-13-13z" fill="#c1c1c1"/>
 <path d="m29 12l .0625.0625.15625-.0625zm2 2l11 11v-11z" fill-opacity=".196"/>
 <path d="m29 1l13 13h-11c-.971429 0-2-1.028571-2-2z" fill="#ffffff" fill-opacity=".392"/>
 <path d="m6 35v10c0 .971429 1.0285714 2 2 2h32c .971429 0 2-1.028571 2-2v-10z" fill-opacity=".196"/>
 <g fill="#ffffff">
  <path d="m18 1v4h4v-4zm0 4h-4v4h4zm0 4v4h4v-4zm0 4h-4v4h4zm0 4v4h4v-4zm-4 6v8h8v-8h-4z"/>
  <g transform="scale(1.0476 .95456)">
   <path d="m18.7056 40.006448c-.383793.589075-.736341 1.142441-1.057646 1.660101-.321314.517672-.620311 1.013024-.89699 1.486059-.276687.464118-.539983.914845-.789887 1.35218-.240986.428416-.473043.852366-.696172 1.271852h3.561186v1.365568h-5.46227v-.950542c.196355-.383786.406099-.785423.629232-1.204913.22313-.428411.473038-.883599.749723-1.365567.276682-.481962.575678-1.00409.896991-1.566387.330232-.562287.691705-1.173668 1.084421-1.834145h-3.186325v-1.365567h5.167737z"/>
   <path d="m20.164883 47.142208v-1.365568h1.807369v-5.555986h-1.807369v-1.365567h5.261452v1.365567h-1.793981v5.555986h1.793981v1.365568z"/>
   <path d="m29.134789 38.761371c1.053178.000009 1.869841.218678 2.449989.656008.580137.428421.870208 1.133517.870214 2.115291-.000006.990711-.29454 1.709195-.883602 2.155455-.580148.437342-1.405736.656011-2.476765.656008h-.589069v2.798075h-1.646714v-8.180018c.160655-.03569.33916-.06693.535517-.09372.20528-.02677.410561-.04462.615844-.05355.20528-.01784.406098-.03123.602457-.04016.196353-.0089.370396-.01338.522129-.01339m.18743 1.432507c-.09818.000007-.236522.0045-.415025.01339-.169583.000007-.303462.0089-.401638.02678v2.677584h.669396c.526588.000004.923763-.102637 1.191525-.307922.267754-.214202.401633-.575676.401638-1.084422-.000005-.481959-.133884-.821119-.401638-1.017481-.258837-.205275-.606923-.307916-1.044258-.307923"/>
  </g>
 </g>
</svg>
