<svg height="48" viewBox="0 0 48 48" width="48" xmlns="http://www.w3.org/2000/svg">
 <path d="m8 1c-1.0285715 0-2 .9714285-2 2v42c0 .971429 1.0285714 2 2 2h32c .971429 0 2-1.028571 2-2v-31l-13-13z" fill="#c1c1c1"/>
 <path d="m29 12l .0625.0625.15625-.0625zm2 2l11 11v-11z" fill-opacity=".196"/>
 <path d="m29 1l13 13h-11c-.971429 0-2-1.028571-2-2z" fill="#ffffff" fill-opacity=".392"/>
 <path d="m6 35v10c0 .971429 1.0285714 2 2 2h32c .971429 0 2-1.028571 2-2v-10z" fill-opacity=".196"/>
 <g fill="#ffffff">
  <path d="m18 1v4h4v-4zm0 4h-4v4h4zm0 4v4h4v-4zm0 4h-4v4h4zm0 4v4h4v-4zm-4 6v8h8v-8h-4z"/>
  <g transform="scale(1.05829 .94492)">
   <path d="m16.754361 47.622935c-1.14457 0-2.018284-.36696-2.621145-1.100881-.602865-.733919-.904296-1.778008-.904296-3.132269 0-.672756.09174-1.27125.275221-1.795484.183479-.524223.436856-.965449.760132-1.323679.33201-.366952.720813-.642172 1.166409-.82566.454329-.192209.947978-.288318 1.480947-.288326.288322.000008.546068.02622.773238.07863.235898.04369.441221.09612.615969.157269.174738.06117.318901.126696.432489.196586.122315.0699.214055.122328.275221.157268l-.419384 1.284362c-.20096-.131051-.4456-.240265-.73392-.327644-.279594-.0961-.602868-.144156-.969824-.144163-.253381.000007-.50239.04806-.747026.144163-.235906.08738-.449966.240279-.642181.458701-.183483.209698-.336383.493655-.4587.851872-.113585.358228-.170377.803823-.170375 1.336784-.000002.926141.157267 1.638218.471806 2.136233.323272.489282.847501.733922 1.572687.733921.419379.000001.764496-.04805 1.035353-.144163.279583-.09611.50238-.192216.668392-.288326l.406277 1.271256c-.227171.139794-.53734.270851-.930506.393171-.38444.113583-.830034.170375-1.336784.170375"/>
   <path d="m24.132885 47.45256l-.380066-1.874118h-2.162445l-.366961 1.874118h-1.677533c.384435-1.598897.773237-3.053631 1.16641-4.364206.39317-1.319305.773236-2.568716 1.140198-3.748238h1.756168c.38443 1.188259.764495 2.450776 1.140198 3.787555.384429 1.32805.755757 2.769678 1.113987 4.324889zm-1.44163-6.539757c-.08738.305807-.170378.598501-.249009.878084-.0699.270857-.139797.541708-.209692.812555-.06116.262119-.122322.528602-.18348.799449-.05242.270855-.104848.550444-.157269.838766h1.585793c-.05243-.288322-.104849-.567911-.157268-.838766-.05243-.270847-.113587-.53733-.183481-.799449-.06116-.270847-.13106-.541698-.209691-.812555-.0699-.279583-.148535-.572277-.235903-.878084"/>
   <path d="m32.127378 45.00179c-.000006.489282-.08301.899928-.249009 1.231938-.166012.323275-.393177.58539-.681498.786343-.279594.192218-.615974.332012-1.009141.419384-.384438.07863-.799453.117951-1.245044.117951-.358226 0-.729554-.02184-1.113987-.06553-.384436-.03495-.764501-.09174-1.140198-.170375v-7.876541c.3058-.05241.642179-.0961 1.009141-.131058.366958-.04368.72955-.06552 1.087775-.06553.611598.000008 1.109615.06554 1.494053.196586.38443.122328.685862.288333.904295.498017.218424.200962.366955.428128.445595.681498.07863.253384.117946.506761.117952.760132-.000006.38444-.09612.725189-.288326 1.022247-.183486.297068-.432494.532971-.747027.707709.550435.200959.921764.47181 1.113987.812555.200948.340752.301426.698975.301432 1.07467m-3.826872-1.100881v2.201762c.11358.01747.2359.03058.36696.03932.139792.0087.275217.01311.406277.01311.183477.000001.362589-.0131.537335-.03932.174739-.03495.327639-.09174.458701-.170374.13979-.08737.253373-.205321.340749-.353855.08737-.157266.131052-.353852.131057-.589757-.000005-.393169-.126693-.672758-.380066-.838767-.244644-.174739-.576656-.262111-.996035-.262114h-.864978m.629074-1.336784c.410643.000004.720812-.08737.930507-.262115.209688-.183475.314533-.432483.314537-.747026-.000004-.192212-.03058-.345112-.09174-.458701-.06116-.122313-.144167-.214053-.249008-.27522-.10485-.06989-.22717-.113576-.366961-.131057-.139798-.0262-.28396-.03931-.432489-.03932-.122323.000006-.249011.0044-.380066.01311-.13106.0087-.249011.02185-.353854.03932v1.861014h.629074"/>
  </g>
 </g>
</svg>
