<svg viewBox="0 0 512 512" xmlns="http://www.w3.org/2000/svg">
 <filter id="a" color-interpolation-filters="sRGB">
  <feColorMatrix values="0.21 0.72 0.072 0 0 0.21 0.72 0.072 0 0 0.21 0.72 0.072 0 0 0 0 0 1 0"/>
 </filter>
 <filter id="b" color-interpolation-filters="sRGB">
  <feColorMatrix values="0.21 0.72 0.072 0 0 0.21 0.72 0.072 0 0 0.21 0.72 0.072 0 0 0 0 0 1 0"/>
 </filter>
 <filter id="c" color-interpolation-filters="sRGB">
  <feColorMatrix values="0.21 0.72 0.072 0 0 0.21 0.72 0.072 0 0 0.21 0.72 0.072 0 0 0 0 0 1 0"/>
 </filter>
 <filter id="d" color-interpolation-filters="sRGB">
  <feColorMatrix values="0.21 0.72 0.072 0 0 0.21 0.72 0.072 0 0 0.21 0.72 0.072 0 0 0 0 0 1 0"/>
 </filter>
 <filter id="e" color-interpolation-filters="sRGB">
  <feColorMatrix values="0.21 0.72 0.072 0 0 0.21 0.72 0.072 0 0 0.21 0.72 0.072 0 0 0 0 0 1 0"/>
 </filter>
 <g fill-opacity=".078" filter="url(#a)">
  <path d="m66.61 0c-4.047 0-7.299 3.253-7.299 7.299v497.4c0 4.047 3.253 7.299 7.299 7.299h378.79c4.047 0 7.299-3.253 7.299-7.299v-359.46l-145.21-145.24h-240.88"/>
  <path d="m69.2 3.5c-3.991 0-7.2 3.208-7.2 7.2v490.6c0 3.991 3.208 7.2 7.2 7.2h373.61c3.991 0 7.2-3.208 7.2-7.2v-354.55l-143.22-143.25z"/>
  <path d="m71.786 7c-3.936 0-7.1 3.164-7.1 7.1v483.8c0 3.936 3.164 7.1 7.1 7.1h368.43c3.936 0 7.1-3.164 7.1-7.1v-349.63l-141.24-141.27z"/>
 </g>
 <path d="m74.38 10.5c-3.881 0-7 3.119-7 7v477c0 3.881 3.119 7 7 7h363.25c3.881 0 7-3.119 7-7v-344.72l-139.25-139.28z" fill="#336699" filter="url(#b)"/>
 <path d="m252.28 182.84c-77.978.093-146.09 73.15-139.78 151.22.565 46.39 29.32 84.57 62.19 114.38 17.71 17.677 35.397 35.37 53.09 53.06h209.84c3.881 0 7-3.119 7-7v-182.5c-32.02-31.906-64.11-63.777-96.28-95.53-25.57-21.617-58.86-33.701-92.34-33.563-1.242-.036-2.481-.064-3.719-.063" filter="url(#c)" opacity=".25"/>
 <path d="m308.78 148.78c4.487 5.957 11.24 10.578 16.06 16.313 39.915 39.949 79.85 79.881 119.78 119.81v-135.12h-132.25c-1.321 0-2.542-.37-3.594-1" fill-opacity=".235" filter="url(#d)"/>
 <g fill="#ffffff" filter="url(#e)">
  <path d="m444.62 149.78l-139.25-139.28v132.28c0 3.881 3.119 7 7 7z" fill-opacity=".196"/>
  <path d="m256 182.89c-79.35 0-143.68 64.32-143.68 143.68 0 79.35 64.32 143.68 143.68 143.68 79.35 0 143.68-64.32 143.68-143.68 0-79.35-64.32-143.68-143.68-143.68m-36.18 36.05h72.35v113.29h47.726l-83.9 101.95-83.9-101.95h47.726v-113.29"/>
 </g>
</svg>
