<svg height="48" viewBox="0 0 48 48" width="48" xmlns="http://www.w3.org/2000/svg">
 <path d="m8 1c-1.0285715 0-2 .9714285-2 2v42c0 .971429 1.0285714 2 2 2h32c .971429 0 2-1.028571 2-2v-31l-13-13z" fill="#c1c1c1"/>
 <path d="m29 12l .0625.0625.15625-.0625zm2 2l11 11v-11z" fill-opacity=".196"/>
 <path d="m29 1l13 13h-11c-.971429 0-2-1.028571-2-2z" fill="#ffffff" fill-opacity=".392"/>
 <path d="m15 33v-15h18v15h-10v-8h5v3h-2v2h4v-9h-12v12z" fill="#ffffff"/>
 <path d="m6 35v10c0 .971429 1.028571 2 2 2h32c .971429 0 2-1.028571 2-2v-10z" fill-opacity=".196"/>
 <g fill="#ffffff" transform="matrix(.99413 0 0 .88456 -2.24824 8.90171)">
  <path d="m18.094101 36.287117c-.000002.420004.014.81667.042 1.19.03733.364003.102664.681336.196.952.102664.270669.242664.485335.42.644.17733.158668.41533.238001.714.238.289329.000001.522662-.07933.7-.238.186662-.158665.326662-.373331.42-.644.102662-.279997.167995-.601997.196-.966.03733-.363996.05599-.755996.056-1.176-.000005-.419995-.01867-.811995-.056-1.176-.02801-.373327-.09334-.695327-.196-.966-.09334-.27066-.228671-.485326-.406-.644-.177338-.158659-.415337-.237992-.714-.238-.29867.000008-.53667.07934-.714.238-.177336.158674-.317336.378007-.42.658-.09334.270673-.158669.588006-.196.952-.028.364005-.042.756005-.042 1.176m-1.75 0c-.000001-1.493327.275332-2.617993.826-3.374.550665-.765325 1.315997-1.147991 2.296-1.148 1.017329.000009 1.791994.382675 2.324 1.148.531993.756007.797993 1.880673.798 3.374-.000007 1.493336-.270673 2.622669-.812 3.388-.541339.756-1.306671 1.134-2.296 1.134-1.017336 0-1.796669-.378-2.338-1.134-.532001-.765331-.798001-1.894664-.798-3.388"/>
  <path d="m25.444101 39.227117c.04666.0093.098.014.154.014.056.000002.10733.000002.154 0 .391997.000002.718663-.07467.98-.224.270662-.149331.485329-.354665.644-.616.167995-.261331.284662-.56933.35-.924.07466-.363996.111995-.760663.112-1.19-.000005-.373328-.02801-.737328-.084-1.092-.056-.354661-.154005-.667327-.294-.938-.140005-.27066-.331338-.485326-.574-.644-.242671-.167993-.555337-.251993-.938-.252-.07467.000007-.15867.0047-.252.014-.09334.000007-.177336.0093-.252.028zm4.144-2.94c-.000007.80267-.102673 1.48867-.308 2.058-.196006.560002-.471339 1.017335-.826 1.372-.354672.354667-.779338.616-1.274.784-.485337.158667-1.022003.238-1.61.238-.308003 0-.611336-.01867-.91-.056-.289335-.028-.602001-.07933-.938-.154v-8.456c.391999-.08399.760665-.139991 1.106-.168.345331-.02799.66733-.04199.966-.042.56933.000009 1.087329.08401 1.554.252.475995.168009.877328.434008 1.204.798.32666.354674.57866.812007.756 1.372.18666.550673.279993 1.218005.28 2.002"/>
  <path d="m34.334101 33.263117c-.410671.000008-.756004.07467-1.036.224-.280003.14934-.513336.35934-.7.63-.177336.26134-.308003.578673-.392.952-.07467.364005-.112002.770005-.112 1.218-.000002 1.036003.163331 1.801336.49 2.296.326663.485335.80733.728001 1.442.728.102662.000001.214662-.0047.336-.014.121329-.0093.233328-.02333.336-.042v-3.164h1.722v4.326c-.20534.07467-.52734.158667-.966.252-.429339.09333-.952005.14-1.568.14-.541337 0-1.031337-.09333-1.47-.28-.429336-.196-.798002-.480666-1.106-.854-.308001-.382665-.546001-.853998-.714-1.414-.168001-.56933-.252001-1.22733-.252-1.974-.000001-.737328.098-1.385994.294-1.946.195999-.569326.461999-1.045326.798-1.428.335998-.382658.732664-.667325 1.19-.854.45733-.195991.947329-.293991 1.47-.294.335995.000009.634662.02801.896.084.270661.04668.503994.102675.7.168.195994.06534.35466.135342.476.21.13066.07467.22866.130675.294.168l-.448 1.372c-.205339-.13066-.457339-.247326-.756-.35-.298672-.102659-.606672-.153992-.924-.154"/>
 </g>
</svg>
