<svg viewBox="0 0 512 512" xmlns="http://www.w3.org/2000/svg" xmlns:xlink="http://www.w3.org/1999/xlink">
 <filter id="a" color-interpolation-filters="sRGB">
  <feColorMatrix values="0.21 0.72 0.072 0 0 0.21 0.72 0.072 0 0 0.21 0.72 0.072 0 0 0 0 0 1 0"/>
 </filter>
 <filter id="c" color-interpolation-filters="sRGB">
  <feColorMatrix values="0.21 0.72 0.072 0 0 0.21 0.72 0.072 0 0 0.21 0.72 0.072 0 0 0 0 0 1 0"/>
 </filter>
 <filter id="e" color-interpolation-filters="sRGB">
  <feColorMatrix values="0.21 0.72 0.072 0 0 0.21 0.72 0.072 0 0 0.21 0.72 0.072 0 0 0 0 0 1 0"/>
 </filter>
 <filter id="g" color-interpolation-filters="sRGB">
  <feColorMatrix values="0.21 0.72 0.072 0 0 0.21 0.72 0.072 0 0 0.21 0.72 0.072 0 0 0 0 0 1 0"/>
 </filter>
 <filter id="i" color-interpolation-filters="sRGB">
  <feColorMatrix values="0.21 0.72 0.072 0 0 0.21 0.72 0.072 0 0 0.21 0.72 0.072 0 0 0 0 0 1 0"/>
 </filter>
 <filter id="k" color-interpolation-filters="sRGB">
  <feColorMatrix values="0.21 0.72 0.072 0 0 0.21 0.72 0.072 0 0 0.21 0.72 0.072 0 0 0 0 0 1 0"/>
 </filter>
 <filter id="m" color-interpolation-filters="sRGB">
  <feColorMatrix values="0.21 0.72 0.072 0 0 0.21 0.72 0.072 0 0 0.21 0.72 0.072 0 0 0 0 0 1 0"/>
 </filter>
 <filter id="o" color-interpolation-filters="sRGB">
  <feColorMatrix values="0.21 0.72 0.072 0 0 0.21 0.72 0.072 0 0 0.21 0.72 0.072 0 0 0 0 0 1 0"/>
 </filter>
 <filter id="p" color-interpolation-filters="sRGB">
  <feColorMatrix values="0.21 0.72 0.072 0 0 0.21 0.72 0.072 0 0 0.21 0.72 0.072 0 0 0 0 0 1 0"/>
 </filter>
 <filter id="q" color-interpolation-filters="sRGB">
  <feColorMatrix values="0.21 0.72 0.072 0 0 0.21 0.72 0.072 0 0 0.21 0.72 0.072 0 0 0 0 0 1 0"/>
 </filter>
 <filter id="r" color-interpolation-filters="sRGB">
  <feColorMatrix values="0.21 0.72 0.072 0 0 0.21 0.72 0.072 0 0 0.21 0.72 0.072 0 0 0 0 0 1 0"/>
 </filter>
 <filter id="s" color-interpolation-filters="sRGB">
  <feColorMatrix values="0.21 0.72 0.072 0 0 0.21 0.72 0.072 0 0 0.21 0.72 0.072 0 0 0 0 0 1 0"/>
 </filter>
 <filter id="t" color-interpolation-filters="sRGB">
  <feColorMatrix values="0.21 0.72 0.072 0 0 0.21 0.72 0.072 0 0 0.21 0.72 0.072 0 0 0 0 0 1 0"/>
 </filter>
 <filter id="u" color-interpolation-filters="sRGB">
  <feColorMatrix values="0.21 0.72 0.072 0 0 0.21 0.72 0.072 0 0 0.21 0.72 0.072 0 0 0 0 0 1 0"/>
 </filter>
 <filter id="v" color-interpolation-filters="sRGB">
  <feColorMatrix values="0.21 0.72 0.072 0 0 0.21 0.72 0.072 0 0 0.21 0.72 0.072 0 0 0 0 0 1 0"/>
 </filter>
 <filter id="w" color-interpolation-filters="sRGB">
  <feColorMatrix values="0.21 0.72 0.072 0 0 0.21 0.72 0.072 0 0 0.21 0.72 0.072 0 0 0 0 0 1 0"/>
 </filter>
 <filter id="y" color-interpolation-filters="sRGB">
  <feColorMatrix values="0.21 0.72 0.072 0 0 0.21 0.72 0.072 0 0 0.21 0.72 0.072 0 0 0 0 0 1 0"/>
 </filter>
 <filter id="A" color-interpolation-filters="sRGB">
  <feColorMatrix values="0.21 0.72 0.072 0 0 0.21 0.72 0.072 0 0 0.21 0.72 0.072 0 0 0 0 0 1 0"/>
 </filter>
 <filter id="C" color-interpolation-filters="sRGB">
  <feColorMatrix values="0.21 0.72 0.072 0 0 0.21 0.72 0.072 0 0 0.21 0.72 0.072 0 0 0 0 0 1 0"/>
 </filter>
 <filter id="D" color-interpolation-filters="sRGB">
  <feColorMatrix values="0.21 0.72 0.072 0 0 0.21 0.72 0.072 0 0 0.21 0.72 0.072 0 0 0 0 0 1 0"/>
 </filter>
 <filter id="F" color-interpolation-filters="sRGB">
  <feColorMatrix values="0.21 0.72 0.072 0 0 0.21 0.72 0.072 0 0 0.21 0.72 0.072 0 0 0 0 0 1 0"/>
 </filter>
 <filter id="H" color-interpolation-filters="sRGB">
  <feColorMatrix values="0.21 0.72 0.072 0 0 0.21 0.72 0.072 0 0 0.21 0.72 0.072 0 0 0 0 0 1 0"/>
 </filter>
 <filter id="J" color-interpolation-filters="sRGB">
  <feColorMatrix values="0.21 0.72 0.072 0 0 0.21 0.72 0.072 0 0 0.21 0.72 0.072 0 0 0 0 0 1 0"/>
 </filter>
 <filter id="L" color-interpolation-filters="sRGB">
  <feColorMatrix values="0.21 0.72 0.072 0 0 0.21 0.72 0.072 0 0 0.21 0.72 0.072 0 0 0 0 0 1 0"/>
 </filter>
 <filter id="N" color-interpolation-filters="sRGB">
  <feColorMatrix values="0.21 0.72 0.072 0 0 0.21 0.72 0.072 0 0 0.21 0.72 0.072 0 0 0 0 0 1 0"/>
 </filter>
 <filter id="P" color-interpolation-filters="sRGB">
  <feColorMatrix values="0.21 0.72 0.072 0 0 0.21 0.72 0.072 0 0 0.21 0.72 0.072 0 0 0 0 0 1 0"/>
 </filter>
 <filter id="R" color-interpolation-filters="sRGB">
  <feColorMatrix values="0.21 0.72 0.072 0 0 0.21 0.72 0.072 0 0 0.21 0.72 0.072 0 0 0 0 0 1 0"/>
 </filter>
 <filter id="T" color-interpolation-filters="sRGB">
  <feColorMatrix values="0.21 0.72 0.072 0 0 0.21 0.72 0.072 0 0 0.21 0.72 0.072 0 0 0 0 0 1 0"/>
 </filter>
 <filter id="V" color-interpolation-filters="sRGB">
  <feColorMatrix values="0.21 0.72 0.072 0 0 0.21 0.72 0.072 0 0 0.21 0.72 0.072 0 0 0 0 0 1 0"/>
 </filter>
 <filter id="X" color-interpolation-filters="sRGB">
  <feColorMatrix values="0.21 0.72 0.072 0 0 0.21 0.72 0.072 0 0 0.21 0.72 0.072 0 0 0 0 0 1 0"/>
 </filter>
 <filter id="Z" color-interpolation-filters="sRGB">
  <feColorMatrix values="0.21 0.72 0.072 0 0 0.21 0.72 0.072 0 0 0.21 0.72 0.072 0 0 0 0 0 1 0"/>
 </filter>
 <filter id="ab" color-interpolation-filters="sRGB">
  <feColorMatrix values="0.21 0.72 0.072 0 0 0.21 0.72 0.072 0 0 0.21 0.72 0.072 0 0 0 0 0 1 0"/>
 </filter>
 <filter id="ad" color-interpolation-filters="sRGB">
  <feColorMatrix values="0.21 0.72 0.072 0 0 0.21 0.72 0.072 0 0 0.21 0.72 0.072 0 0 0 0 0 1 0"/>
 </filter>
 <filter id="af" color-interpolation-filters="sRGB">
  <feColorMatrix values="0.21 0.72 0.072 0 0 0.21 0.72 0.072 0 0 0.21 0.72 0.072 0 0 0 0 0 1 0"/>
 </filter>
 <filter id="ah" color-interpolation-filters="sRGB">
  <feColorMatrix values="0.21 0.72 0.072 0 0 0.21 0.72 0.072 0 0 0.21 0.72 0.072 0 0 0 0 0 1 0"/>
 </filter>
 <filter id="aj" color-interpolation-filters="sRGB">
  <feColorMatrix values="0.21 0.72 0.072 0 0 0.21 0.72 0.072 0 0 0.21 0.72 0.072 0 0 0 0 0 1 0"/>
 </filter>
 <filter id="al" color-interpolation-filters="sRGB">
  <feColorMatrix values="0.21 0.72 0.072 0 0 0.21 0.72 0.072 0 0 0.21 0.72 0.072 0 0 0 0 0 1 0"/>
 </filter>
 <filter id="an" color-interpolation-filters="sRGB">
  <feColorMatrix values="0.21 0.72 0.072 0 0 0.21 0.72 0.072 0 0 0.21 0.72 0.072 0 0 0 0 0 1 0"/>
 </filter>
 <filter id="ap" color-interpolation-filters="sRGB">
  <feColorMatrix values="0.21 0.72 0.072 0 0 0.21 0.72 0.072 0 0 0.21 0.72 0.072 0 0 0 0 0 1 0"/>
 </filter>
 <filter id="ar" color-interpolation-filters="sRGB">
  <feColorMatrix values="0.21 0.72 0.072 0 0 0.21 0.72 0.072 0 0 0.21 0.72 0.072 0 0 0 0 0 1 0"/>
 </filter>
 <filter id="at" color-interpolation-filters="sRGB">
  <feColorMatrix values="0.21 0.72 0.072 0 0 0.21 0.72 0.072 0 0 0.21 0.72 0.072 0 0 0 0 0 1 0"/>
 </filter>
 <filter id="au" color-interpolation-filters="sRGB">
  <feColorMatrix values="0.21 0.72 0.072 0 0 0.21 0.72 0.072 0 0 0.21 0.72 0.072 0 0 0 0 0 1 0"/>
 </filter>
 <text filter="url(#a)" x="-109.95" y="148.92">
  
 </text>
 <text filter="url(#c)" x="471.32" y="68.92">
  
 </text>
 <text filter="url(#e)" x="-600.26" y="-112.34">
  
 </text>
 <text filter="url(#g)" x="497.79" y="-328.81">
  
 </text>
 <text filter="url(#i)" x="1079.06" y="-408.82">
  
 </text>
 <text filter="url(#k)" x="689.94" y="-881.22">
  
 </text>
 <text filter="url(#m)" x="1271.2" y="-961.22">
  
 </text>
 <text filter="url(#o)" x="-561.6" y="453.5">
  
 </text>
 <path d="m36.06 0c-5.63 0-10.156 4.527-10.156 10.156v491.69c0 5.63 4.527 10.156 10.156 10.156h439.88c5.63 0 10.156-4.527 10.156-10.156v-334.09l-167.75-167.75h-282.28" filter="url(#p)" opacity=".1"/>
 <path d="m39.06 3.5c-5.553 0-10.03 4.479-10.03 10.03v484.94c0 5.553 4.479 10.03 10.03 10.03h433.88c5.553 0 10.03-4.479 10.03-10.03v-327.84l-167.12-167.12h-276.78" filter="url(#q)" opacity=".1"/>
 <path d="m42.06 7c-5.476 0-9.875 4.399-9.875 9.875v478.25c0 5.476 4.399 9.875 9.875 9.875h427.88c5.476 0 9.875-4.399 9.875-9.875v-321.66l-166.47-166.47h-271.28" filter="url(#r)" opacity=".1"/>
 <path d="m45.06 10.5c-5.399 0-9.719 4.351-9.719 9.75v471.5c0 5.399 4.32 9.75 9.719 9.75h421.88c5.399 0 9.719-4.351 9.719-9.75v-315.44l-165.81-165.81h-265.78" fill="#e02b2b" filter="url(#s)"/>
 <path id="av" d="m476.66 176.31l-165.81-165.81v156.06c0 5.399 4.32 9.75 9.719 9.75h156.09" fill="#ffffff" fill-opacity=".196" filter="url(#t)"/>
 <use filter="url(#u)" xlink:href="#av"/>
 <path d="m316.59 175.47c8.98 9.03 18.18 18.292 27.313 27.469-27.443-11.623-58.09-15.815-88.16-15.969-2.426-.012-4.834-.007-7.25.031-42.04 1.509-86.956 10.926-117.97 39.438-14.247 13.526-20.741 35.575-9.938 52.719 3 5.176 6.673 9.798 10.844 13.969l45.563 45.563c-5.661-1.927-11.243-4.083-16.719-6.469-4.459-2.038-8.87-4.277-13.12-6.781l-32-32.03c.809 15.278-1.662 30.832 1.281 45.938 2.607 9.318 7.861 17.236 14.594 23.969l49 49c-6.393-2.07-12.709-4.418-18.875-7.06-4.674-2.12-9.3-4.467-13.781-7.094l-32.22-32.22v36.875c.419 12.947 6.919 24.14 16.09 33.31l65.38 65.38h270.31c5.399 0 9.719-4.351 9.719-9.75v-315.44h-156.09c-1.422 0-2.756-.3-3.969-.844" filter="url(#v)" opacity=".25"/>
 <text filter="url(#w)" x="-990.51" y="-43.58">
  
 </text>
 <text filter="url(#y)" x="-1638.27" y="-811.53">
  
 </text>
 <text filter="url(#A)" x="-931.93" y="-967.16">
  
 </text>
 <g fill="#ffffff" filter="url(#C)">
  <path d="m72.27 108.77c37.2-14.404 65.56-13.86 87.44 1.383 19.34-22.85 61.09-31.632 74.49-30.1-40.04-14.88-71.46.077-78.25 10.08-22.23-9.765-72.03-.918-83.67 18.636"/>
  <path d="m134.75 56.812c26.617-7.348 50.23-7.979 66.97 1.488 15.649-12.541 47.967-17.08 58.19-16.11-36.725-7.588-52.912-.63-60.811 4.174-23.597-5.201-46.2-4.787-64.34 10.45"/>
 </g>
 <text filter="url(#D)" x="-34.02" y="244.38">
  
 </text>
 <text filter="url(#F)" x="547.25" y="164.38">
  
 </text>
 <text filter="url(#H)" x="-524.33" y="-16.88">
  
 </text>
 <text filter="url(#J)" x="573.72" y="-233.35">
  
 </text>
 <text filter="url(#L)" x="1154.99" y="-313.36">
  
 </text>
 <text filter="url(#N)" x="765.87" y="-785.76">
  
 </text>
 <text filter="url(#P)" x="1347.13" y="-865.76">
  
 </text>
 <g filter="url(#R)">
  <text x="-485.67" y="548.96">
   
  </text>
  <text x="-38.25" y="217.75">
   
  </text>
 </g>
 <text filter="url(#T)" x="543.02" y="137.75">
  
 </text>
 <text filter="url(#V)" x="-528.56" y="-43.51">
  
 </text>
 <text filter="url(#X)" x="569.49" y="-259.98">
  
 </text>
 <text filter="url(#Z)" x="1150.76" y="-339.99">
  
 </text>
 <text filter="url(#ab)" x="761.64" y="-812.39">
  
 </text>
 <text filter="url(#ad)" x="1342.9" y="-892.39">
  
 </text>
 <g filter="url(#af)">
  <text x="-489.9" y="522.33">
   
  </text>
  <text x="-90.43" y="-78.88">
   
  </text>
 </g>
 <text filter="url(#ah)" x="490.84" y="-158.88">
  
 </text>
 <text filter="url(#aj)" x="-580.74" y="-340.14">
  
 </text>
 <text filter="url(#al)" x="517.31" y="-556.61">
  
 </text>
 <text filter="url(#an)" x="1098.58" y="-636.62">
  
 </text>
 <text filter="url(#ap)" x="709.46" y="-1109.02">
  
 </text>
 <text filter="url(#ar)" x="1290.72" y="-1189.02">
  
 </text>
 <text filter="url(#at)" x="-542.08" y="225.7">
  
 </text>
 <path d="m248.5 187c-42.04 1.509-86.951 10.944-117.96 39.456-14.247 13.526-20.736 35.55-9.932 52.694 14.264 24.605 43.529 37.11 70.888 44.601 51.563 13.346 108.64 11.02 157.5-10.02 21.488-9.526 43.23-25.613 47.36-48.86 3.26-23.11-15.719-42.915-35.565-53.592-33.469-19.252-73.63-24.89-112.3-24.278m147.71 107.41c-14.08 26.343-44.43 39.91-73.07 48.02-53.24 14.12-112.39 11.792-162.86-10.197-18.536-8.473-36.29-20.723-45.11-38.838.809 15.278-1.661 30.85 1.282 45.955 6.584 23.532 29.894 38.01 51.895 47.51 44.14 17.35 94.53 19.474 141.16 10.356 28.653-6.723 58.733-17.602 77.15-40.506 10.195-12.05 10.991-27.793 9.979-42.599.178-6.911.015-13.831.072-20.748l-.471.986-.029.062m-281.05 108.39c.753 23.283 21.22 40.886 41.42 51.3 40.02 19.657 86.97 24.18 131.48 19.357 33.08-4.522 67.62-14.15 92.06-36.751 13.06-11.695 18.616-29.14 16.488-45.989.197-8.242.074-16.491.108-24.737-13.244 26.303-43.19 40.18-71.25 48.43-53.57 14.793-113.28 12.737-164.29-9.141-18.802-8.53-37.19-20.871-46.01-39.32v36.852" fill="#ffffff" filter="url(#au)"/>
</svg>
