<svg viewBox="0 0 48 48" xmlns="http://www.w3.org/2000/svg">
 <path d="m8 1c-1.029 0-2 .971-2 2v42c0 .971 1.029 2 2 2h32c .971 0 2-1.029 2-2v-31l-13-13z" fill="#c1c1c1"/>
 <path d="m29 12l .063.063.156-.063zm2 2l11 11v-11z" fill-opacity=".196"/>
 <path d="m29 1l13 13h-11c-.971 0-2-1.029-2-2z" fill="#ffffff" fill-opacity=".392"/>
 <path d="m6 35v10c0 .971 1.029 2 2 2h32c .971 0 2-1.029 2-2v-10z" fill-opacity=".196"/>
 <g fill="#ffffff">
  <path d="m18 1v4h4v-4zm0 4h-4v4h4zm0 4v4h4v-4zm0 4h-4v4h4zm0 4v4h4v-4zm-4 6v8h8v-8h-4z"/>
  <path d="m28.21 41.696c-1.313 2-2.518 4.04-3.634 6.094h3.761v1.442h-5.769v-1c1.114-2.199 2.36-4.301 3.549-6.306h-3.365v-1.442h5.458v1.216" transform="scale(1.09406 .91403)"/>
 </g>
 <path d="m22.05 45c-.467-1.08-1.01-2.092-1.523-3.063-.583 1.043-1.082 2.039-1.582 3.063h-1.948c.724-1.479 1.653-2.852 2.519-4.226l-2.372-3.774h1.948l1.435 2.559 1.508-2.559h1.816l-2.314 3.735c.967 1.37 1.761 2.767 2.46 4.265h-1.948" fill="#ffffff"/>
</svg>
