<svg height="48" viewBox="0 0 48 48" width="48" xmlns="http://www.w3.org/2000/svg">
 <path d="m8 1c-1.0285715 0-2 .9714285-2 2v42c0 .971429 1.0285714 2 2 2h32c .971429 0 2-1.028571 2-2v-31l-13-13z" fill="#c1c1c1"/>
 <path d="m29 12l .0625.0625.15625-.0625zm2 2l11 11v-11z" fill-opacity=".196"/>
 <g fill="#ffffff">
  <path d="m29 1l13 13h-11c-.971429 0-2-1.028571-2-2z" fill-opacity=".392"/>
  <path d="m23.999809 32.284779l-6.284716-6.285225 6.284716-6.284333 2.095075 2.094693-4.19015 4.18964 2.094948 2.095075 6.284714-6.284333-5.474721-5.474721c-.447051-.447433-1.172171-.447433-1.619605 0l-8.854751 8.85475c-.447051.447051-.447051 1.172171 0 1.619605l8.854879 8.854495c.447433.447433 1.172553.447433 1.619605 0l8.854877-8.854495c.447051-.447434.447051-1.172554 0-1.619605l-1.285464-1.285081z"/>
 </g>
</svg>
