<svg viewBox="0 0 48 48" xmlns="http://www.w3.org/2000/svg">
 <path d="m8 1c-1.029 0-2 .971-2 2v42c0 .971 1.029 2 2 2h32c .971 0 2-1.029 2-2v-31l-13-13z" fill="#c1c1c1"/>
 <path d="m29 12l .063.063.156-.063zm2 2l11 11v-11z" fill-opacity=".196"/>
 <path d="m29 1l13 13h-11c-.971 0-2-1.029-2-2z" fill="#ffffff" fill-opacity=".392"/>
 <path d="m15.578 17c-.321 0-.578.269-.578.602v5.797c0 .333.257.602.578.602h6.844c.321 0 .578-.269.578-.602v-5.797c0-.333-.257-.602-.578-.602zm9.928 0a .499.5 0 1 0 0 1h5.988a.499.5 0 1 0 0-1zm0 3a .499.5 0 1 0 0 1h5.988a.499.5 0 1 0 0-1zm0 3a .499.5 0 1 0 0 1h5.988a.499.5 0 1 0 0-1zm-10 3a .5.5 0 1 0 0 1h15.988a.5.5 0 1 0 0-1zm0 3a .5.5 0 1 0 0 1h15.988a.5.5 0 1 0 0-1zm0 3a .5.5 0 1 0 0 1h15.988a.5.5 0 1 0 0-1zm0 3a .5.5 0 1 0 0 1h15.988a.5.5 0 1 0 0-1z" fill="#ffffff"/>
</svg>
