<svg viewBox="0 0 48 48" xmlns="http://www.w3.org/2000/svg">
 <path d="m8 1c-1.029 0-2 .971-2 2v42c0 .971 1.029 2 2 2h32c .971 0 2-1.029 2-2v-31l-13-13z" fill="#c1c1c1"/>
 <path d="m29 12l .063.063.156-.063zm2 2l11 11v-11z" fill-opacity=".196"/>
 <path d="m29 1l13 13h-11c-.971 0-2-1.029-2-2z" fill="#ffffff" fill-opacity=".392"/>
 <path d="m6 35v10c0 .971 1.029 2 2 2h32c .971 0 2-1.029 2-2v-10z" fill-opacity=".196"/>
 <g fill="#ffffff">
  <path d="m17.04 16c-.563.054-1.045.648-1.035 1.281v13.469c.006.663.538 1.26 1.129 1.25h13.772c.583-.01 1.092-.597 1.098-1.25v-13.469c.008-.663-.506-1.274-1.098-1.281-4.622 0-9.244 0-13.866 0zm .973 2h11.984v8.594l-3.357-4.125-2.384 2.219-3.137-3.938-3.106 3.188z"/>
  <g transform="scale(1.05725 .94585)">
   <path d="m18.778 44.975c0 .498-.084.916-.253 1.254-.169.329-.4.596-.694.8-.285.196-.627.338-1.027.427-.391.08-.814.12-1.267.12-.365 0-.743-.022-1.134-.067-.391-.036-.778-.093-1.161-.173v-8.02c.311-.053.654-.098 1.027-.133.374-.044.743-.067 1.107-.067.623 0 1.13.067 1.521.2.391.125.698.294.921.507.222.205.374.436.454.694.08.258.12.516.12.774 0 .391-.098.738-.293 1.041-.187.302-.44.543-.76.72.56.205.938.48 1.134.827.205.347.307.712.307 1.094m-3.895-1.121v2.241c.116.018.24.031.374.04.142.009.28.013.414.013.187 0 .369-.013.547-.04.178-.036.334-.093.467-.173.142-.089.258-.209.347-.36.089-.16.133-.36.133-.6 0-.4-.129-.685-.387-.854-.249-.178-.587-.267-1.014-.267h-.88m.64-1.361c.418 0 .734-.089.947-.267.213-.187.32-.44.32-.76 0-.196-.031-.351-.093-.467-.062-.125-.147-.218-.253-.28-.107-.071-.231-.116-.374-.133-.142-.027-.289-.04-.44-.04-.125 0-.253.005-.387.013-.133.009-.253.022-.36.04v1.894z"/>
   <path d="m21.34 39.21c.062.187.138.427.227.72.098.294.2.609.307.947.107.338.213.68.32 1.027.107.347.209.667.307.961.107-.329.218-.667.334-1.014.116-.356.227-.694.334-1.014.107-.329.205-.636.293-.921.089-.285.169-.52.24-.707h1.361c.062.72.12 1.423.173 2.108.062.685.111 1.365.147 2.041.044.667.08 1.343.107 2.028.027.676.049 1.37.067 2.081h-1.507l.08-6.417-1.014 3.495h-1.201l-.974-3.495.067 6.417h-1.507c.027-.676.053-1.379.08-2.108.036-.729.071-1.454.107-2.175.036-.72.076-1.419.12-2.094.053-.676.111-1.303.173-1.881h1.361"/>
   <path d="m28.851 39.12c1.049 0 1.863.218 2.441.654.578.427.867 1.13.867 2.108 0 .987-.294 1.703-.88 2.148-.578.436-1.401.654-2.468.654h-.587v2.788h-1.641v-8.151c.16-.036.338-.067.534-.093.205-.027.409-.044.614-.053.205-.018.405-.031.6-.04.196-.009.369-.013.52-.013m.187 1.427c-.098 0-.236.005-.414.013-.169 0-.302.009-.4.027v2.668h.667c.525 0 .921-.102 1.187-.307.267-.213.4-.574.4-1.081 0-.48-.133-.818-.4-1.014-.258-.205-.605-.307-1.041-.307"/>
  </g>
 </g>
</svg>
