<svg viewBox="0 0 48 48" xmlns="http://www.w3.org/2000/svg">
 <path d="m8 1c-1.029 0-2 .971-2 2v42c0 .971 1.029 2 2 2h32c .971 0 2-1.029 2-2v-31l-13-13z" fill="#c1c1c1"/>
 <path d="m29 12l .063.063.156-.063zm2 2l11 11v-11z" fill-opacity=".196"/>
 <path d="m29 1l13 13h-11c-.971 0-2-1.029-2-2z" fill="#ffffff" fill-opacity=".392"/>
 <path d="m6 35v10c0 .971 1.029 2 2 2h32c .971 0 2-1.029 2-2v-10z" fill-opacity=".196"/>
 <g fill="#ffffff">
  <path d="m17.04 16c-.563.054-1.045.648-1.035 1.281 0 4.49 0 8.979 0 13.469.006.663.538 1.26 1.129 1.25h13.772c.583-.01 1.092-.597 1.098-1.25v-13.469c.008-.663-.506-1.274-1.098-1.281-4.622 0-9.244 0-13.866 0zm .973 2h11.984v8.594l-3.357-4.125-2.384 2.219-3.137-3.938-3.106 3.188z"/>
  <g transform="matrix(1.02442 0 0 .97617 0 .1)">
   <path d="m16.696 37.801v1.35h-2.158v6.845h-1.642v-6.845h-2.158v-1.35z"/>
   <path d="m17.742 45.996v-1.35h1.787v-5.494h-1.787v-1.35h5.203v1.35h-1.774v5.494h1.774v1.35z"/>
   <path d="m24.481 45.996v-8.195h5.02v1.35h-3.389v1.986h2.966v1.35h-2.966v3.508h-1.628"/>
   <path d="m31.1 45.996v-8.195h5.02v1.35h-3.389v1.986h2.966v1.35h-2.966v3.508h-1.628"/>
  </g>
 </g>
</svg>
