<svg height="48" viewBox="0 0 48 48" width="48" xmlns="http://www.w3.org/2000/svg">
 <path d="m8 1c-1.0285715 0-2 .9714285-2 2v42c0 .971429 1.0285714 2 2 2h32c .971429 0 2-1.028571 2-2v-31l-13-13z" fill="#c1c1c1"/>
 <path d="m29 12l .0625.0625.15625-.0625zm2 2l11 11v-11z" fill-opacity=".196"/>
 <path d="m29 1l13 13h-11c-.971429 0-2-1.028571-2-2z" fill="#ffffff" fill-opacity=".392"/>
 <path d="m23.3253 14.106843c-2.0044.640655-.2463 3.623889-3.1146 5.085151-3.2781 1.670015-4.9078-2.544354-6.8766.464265-1.9688 3.008618 2.7173 2.542048 2.5852 6.083115-.1321 3.541063-4.7693 2.78897-3.0292 5.913657 1.7402 3.124687 3.6725-.976192 6.8185.894859 3.1461 1.871052.1385 5.333325 3.8474 5.449394 3.709.116084.9553-3.518244 4.2333-5.188258 3.2781-1.670015 4.9077 2.544355 6.8766-.464265 1.9688-3.008618-2.7173-2.542049-2.5852-6.083115.1321-3.541063 4.7693-2.78897 3.0292-5.913656-1.7402-3.124687-3.6725.976192-6.8186-.894859-3.146-1.871052-.1384-5.333326-3.8473-5.449395-.4636-.01445-.8323.01158-1.1187.103107zm.038 9.015829c1.6544-.337834 3.2806.676749 3.6322 2.266135.3517 1.589386-.7044 3.151707-2.3588 3.489542-1.6544.337834-3.2806-.676749-3.6323-2.266135-.3516-1.589386.7045-3.151707 2.3589-3.489542z" fill="#c1c1c1"/>
</svg>
