<svg height="48" viewBox="0 0 48 48" width="48" xmlns="http://www.w3.org/2000/svg">
 <path d="m8 1c-1.0285715 0-2 .9714285-2 2v42c0 .971429 1.0285714 2 2 2h32c .971429 0 2-1.028571 2-2v-31l-13-13z" fill="#c1c1c1"/>
 <path d="m29 12l .0625.0625.15625-.0625zm2 2l11 11v-11z" fill-opacity=".196"/>
 <path d="m29 1l13 13h-11c-.971429 0-2-1.028571-2-2z" fill="#ffffff" fill-opacity=".392"/>
 <path d="m6 35v10c0 .971429 1.0285714 2 2 2h32c .971429 0 2-1.028571 2-2v-10z" fill-opacity=".196"/>
 <g fill="#ffffff">
  <path d="m18 1v4h4v-4zm0 4h-4v4h4zm0 4v4h4v-4zm0 4h-4v4h4zm0 4v4h4v-4zm-4 6v8h8v-8h-4z"/>
  <g transform="matrix(1.07186 0 0 .95792 1.1215 .16099)">
   <path d="m17.263431 46.808762h-5.248318v-8.351437h1.672986v6.975271h3.575332z"/>
   <path d="m23.941881 38.457325v8.351437h-1.659494v-3.683267h-2.212658v3.683267h-1.659494v-8.351437h1.659494v3.292004h2.212658v-3.292004z"/>
   <path d="m30.552873 39.617622c-.386771.593647-.742056 1.151308-1.065854 1.672985-.323808.521689-.625125 1.020886-.903952 1.497592-.278835.46772-.544173.921945-.796017 1.362674-.242856.431741-.476714.858981-.701575 1.281723h3.588824v1.376166h-5.504662v-.95792c.197879-.386764.409251-.791518.634115-1.214263.224863-.431736.47671-.890457.755542-1.376166.278829-.485701.580146-1.011882.903952-1.578543.332795-.56665.697074-1.182776 1.092837-1.848379h-3.211053v-1.376166h5.207843z"/>
  </g>
 </g>
</svg>
