<svg viewBox="0 0 48 48" xmlns="http://www.w3.org/2000/svg">
 <path d="m8 1c-1.029 0-2 .971-2 2v42c0 .971 1.029 2 2 2h32c .971 0 2-1.029 2-2v-31l-13-13z" fill="#c1c1c1"/>
 <path d="m29 12l .063.063.156-.063zm2 2l11 11v-11z" fill-opacity=".196"/>
 <path d="m29 1l13 13h-11c-.971 0-2-1.029-2-2z" fill="#ffffff" fill-opacity=".392"/>
 <g fill="#c1c1c1" transform="translate(6 9)">
  <path d="m9 9c0 6.667 0 13.333 0 20h8v-4h-4v-12h4v-4c-2.667 0-5.333 0-8 0"/>
  <path d="m19 9h8v4h-4v4h4v12h-8v-4h4v-4h-4z"/>
 </g>
</svg>
