<svg viewBox="0 0 48 48" xmlns="http://www.w3.org/2000/svg">
 <path d="m8 1c-1.029 0-2 .971-2 2v42c0 .971 1.029 2 2 2h32c .971 0 2-1.029 2-2v-31l-13-13z" fill="#c1c1c1"/>
 <path d="m29 12l .063.063.156-.063zm2 2l11 11v-11z" fill-opacity=".196"/>
 <path d="m29 1l13 13h-11c-.971 0-2-1.029-2-2z" fill="#ffffff" fill-opacity=".392"/>
 <g fill="#ffffff" fill-rule="evenodd" transform="matrix(1 0 0 1.0058823 0 -1.2235292)">
  <path d="m24 19.11c-5.391 0-10 4.02-10 9.444 0 4.722 3.329 8.264 6.889 9.444-2.365-1.627-4.536-4.722-4.536-8.264 0-4.079 2.941-7.083 6.363-7.083 3.195 0 5.389 3.054 5.401 5.903 0 2-1.634 3.644-2.941 4.722 2.353 0 5.294-1.955 5.294-5.903 0-3.542-2.941-8.264-6.471-8.264z"/>
  <path d="m24 38c5.391 0 10-4.02 10-9.444 0-4.722-3.329-8.264-6.889-9.444 2.365 1.627 4.536 4.722 4.536 8.264 0 4.079-2.941 7.083-6.363 7.083-3.195 0-5.389-3.054-5.401-5.903 0-2 1.634-3.644 2.941-4.722-2.353 0-5.294 1.955-5.294 5.903 0 3.542 2.941 8.264 6.471 8.264"/>
 </g>
</svg>
