<svg viewBox="0 0 48 48" xmlns="http://www.w3.org/2000/svg">
 <path d="m8 1c-1.029 0-2 .971-2 2v42c0 .971 1.029 2 2 2h32c .971 0 2-1.029 2-2v-31l-13-13z" fill="#c1c1c1"/>
 <path d="m29 12l .063.063.156-.063zm2 2l11 11v-11z" fill-opacity=".196"/>
 <path d="m29 1l13 13h-11c-.971 0-2-1.029-2-2z" fill="#ffffff" fill-opacity=".392"/>
 <path d="m28.615 22.27a.769.794 0 0 1 -.769.794.769.794 0 0 1 -.769-.794.769.794 0 0 1 .769-.794.769.794 0 0 1 .769.794zm1.538 1.587a.769.794 0 0 1 -.769.794.769.794 0 0 1 -.769-.794.769.794 0 0 1 .769-.794.769.794 0 0 1 .769.794zm1.538-1.587a.769.794 0 0 1 -.769.794.769.794 0 0 1 -.769-.794.769.794 0 0 1 .769-.794.769.794 0 0 1 .769.794zm-1.538-1.587a.769.794 0 0 1 -.769.794.769.794 0 0 1 -.769-.794.769.794 0 0 1 .769-.794.769.794 0 0 1 .769.794zm-10 1.587a1.538 1.587 0 0 1 -1.538 1.587 1.538 1.587 0 0 1 -1.538-1.587 1.538 1.587 0 0 1 1.538-1.587 1.538 1.587 0 0 1 1.538 1.587zm-1.36-5.553c-.553.023-1.01.268-1.322.513-1.853 1.45-3.471 7.501-3.471 10.703 0 3.202.714 3.066 1.333 3.066.619 0 1.397-.439 2.078-1.057 1.878-1.706 2.743-3.704 4.611-3.704h3.957c1.868 0 2.733 1.998 4.611 3.704.68.618 1.459 1.057 2.078 1.057.619 0 1.333.136 1.333-3.066 0-3.202-1.618-9.253-3.472-10.704-.502-.393-1.365-.783-2.416-.268-.705.346-1.335.547-2.255.547h-3.714c-.921 0-1.55-.201-2.255-.547-.394-.193-.762-.259-1.094-.245z" fill="#ffffff"/>
 <path d="m6 35v10c0 .971 1.029 2 2 2h32c .971 0 2-1.029 2-2v-10z" fill-opacity=".196"/>
 <g fill="#ffffff" transform="translate(3)">
  <path d="m17.913 38.33q-.604 0-1.016.198-.412.198-.686.557-.261.347-.384.842-.11.483-.11 1.077 0 1.375.481 2.031.481.644 1.414.644.151 0 .33-.012.178-.012.33-.037v-2.799h1.689v3.827q-.302.099-.947.223-.632.124-1.538.124-.796 0-1.442-.248-.632-.26-1.085-.755-.453-.508-.7-1.251-.247-.755-.247-1.746 0-.978.288-1.721.288-.755.783-1.263.494-.508 1.167-.755.673-.26 1.442-.26.494 0 .879.074.398.062.686.149.288.087.467.186.192.099.288.149l-.439 1.214q-.302-.173-.741-.31-.439-.136-.906-.136z"/>
  <path d="m27 42.539q0 .707-.275 1.186-.275.467-.752.757-.463.278-1.113.404-.636.114-1.373.114-.593 0-1.229-.063-.636-.05-1.258-.164v-7.584q.506-.076 1.113-.126.607-.063 1.2-.063 1.012 0 1.648.189.636.177.998.479.361.29.492.656.13.366.13.732 0 .555-.318.984-.304.429-.824.681.911.29 1.229.782.333.492.333 1.035m-4.222-1.06v2.12q.188.025.405.038.231.013.448.013.304 0 .593-.038.289-.05.506-.164.231-.126.376-.341.145-.227.145-.568 0-.568-.419-.808-.405-.252-1.099-.252h-.954zm.694-1.287q.68 0 1.027-.252.347-.265.347-.719 0-.278-.101-.442-.101-.177-.275-.265-.173-.101-.405-.126-.231-.038-.477-.038-.202 0-.419.013-.217.013-.39.038v1.792h.694z"/>
 </g>
</svg>
