<svg viewBox="0 0 48 48" xmlns="http://www.w3.org/2000/svg">
 <path d="m8 1c-1.029 0-2 .971-2 2v42c0 .971 1.029 2 2 2h32c .971 0 2-1.029 2-2v-31l-13-13z" fill="#c1c1c1"/>
 <path d="m29 12l .063.063.156-.063zm2 2l11 11v-11z" fill-opacity=".196"/>
 <path d="m29 1l13 13h-11c-.971 0-2-1.029-2-2z" fill="#ffffff" fill-opacity=".392"/>
 <path d="m19.9 14l-1.4 14.848 3.579-3.047 1.625 5.199 2.75-.867-1.625-5.199 4.671.447" fill="#c1c1c1"/>
 <path d="m6 35v10c0 .971 1.029 2 2 2h32c .971 0 2-1.029 2-2v-10z" fill-opacity=".196"/>
 <path d="m18.08 45l-.421-1.848h-2.396l-.407 1.848h-1.859q.639-2.365 1.293-4.304.654-1.952 1.263-3.696h1.946q.639 1.758 1.263 3.735.639 1.964 1.234 4.265h-1.917zm-1.598-6.449q-.145.452-.276.866-.116.401-.232.801-.102.388-.203.788-.087.401-.174.827h1.757q-.087-.426-.174-.827-.087-.401-.203-.788-.102-.401-.232-.801-.116-.414-.261-.866z" fill="#ffffff"/>
 <path d="m25.544 45q-.618-1.331-1.353-2.649-.721-1.331-1.559-2.662v5.312h-1.632v-8h1.456q.412.569.824 1.241.412.659.794 1.318.397.659.721 1.279.338.62.574 1.086v-4.924h1.632v8h-1.456z" fill="#ffffff"/>
 <path d="m28 45v-1.318h2.061v-5.363h-2.061v-1.318h6v1.318h-2.046v5.363h2.046v1.318z" fill="#ffffff"/>
</svg>
