<svg viewBox="0 0 48 48" xmlns="http://www.w3.org/2000/svg">
 <path d="m8 1c-1.029 0-2 .971-2 2v42c0 .971 1.029 2 2 2h32c .971 0 2-1.029 2-2v-31l-13-13z" fill="#c1c1c1"/>
 <path d="m29 12l .063.063.156-.063zm2 2l11 11v-11z" fill-opacity=".196"/>
 <path d="m29 1l13 13h-11c-.971 0-2-1.029-2-2z" fill="#ffffff" fill-opacity=".392"/>
 <path d="m6 35v10c0 .971 1.029 2 2 2h32c .971 0 2-1.029 2-2v-10z" fill-opacity=".196"/>
 <g fill="#ffffff">
  <path d="m17.04 16c-.563.054-1.045.648-1.035 1.281 0 4.49 0 8.979 0 13.469.006.663.538 1.26 1.129 1.25h13.772c.583-.01 1.092-.597 1.098-1.25v-13.469c.008-.663-.506-1.274-1.098-1.281-4.622 0-9.244 0-13.866 0zm .973 2h11.984v8.594l-3.357-4.125-2.384 2.219-3.137-3.938-3.106 3.188z"/>
  <g transform="scale(1.04959 .95275)">
   <path d="m19.19 39.02v1.326h-2.119v6.72h-1.612v-6.72h-2.119v-1.326h5.849"/>
   <path d="m23.568 40.23c-.381 0-.702.069-.962.208-.26.139-.477.334-.65.585-.165.243-.286.537-.364.884-.069.338-.104.715-.104 1.131 0 .962.152 1.672.455 2.132.303.451.75.676 1.339.676.095 0 .199-.004.312-.013.113-.009.217-.022.312-.039v-2.938h1.599v4.02c-.191.069-.49.147-.897.234-.399.087-.884.13-1.456.13-.503 0-.958-.087-1.365-.26-.399-.182-.741-.446-1.027-.793-.286-.355-.507-.793-.663-1.313-.156-.529-.234-1.139-.234-1.833 0-.685.091-1.287.273-1.807.182-.529.429-.971.741-1.326.312-.355.68-.62 1.105-.793.425-.182.88-.273 1.365-.273.312 0 .589.026.832.078.251.043.468.095.65.156.182.061.329.126.442.195.121.069.212.121.273.156l-.416 1.274c-.191-.121-.425-.23-.702-.325-.277-.095-.563-.143-.858-.143"/>
   <path d="m30.678 47.06l-.377-1.859h-2.145l-.364 1.859h-1.664c.381-1.586.767-3.03 1.157-4.328.39-1.308.767-2.548 1.131-3.717h1.742c.381 1.178.758 2.431 1.131 3.756.381 1.317.75 2.747 1.105 4.289zm-1.43-6.486c-.087.303-.169.594-.247.871-.069.269-.139.537-.208.806-.061.26-.121.524-.182.793-.052.269-.104.546-.156.832h1.573c-.052-.286-.104-.563-.156-.832-.052-.269-.113-.533-.182-.793-.061-.269-.13-.537-.208-.806-.069-.277-.147-.568-.234-.871"/>
  </g>
 </g>
</svg>
