<svg height="48" viewBox="0 0 48 48" width="48" xmlns="http://www.w3.org/2000/svg">
 <path d="m8 1c-1.0285715 0-2 .9714285-2 2v42c0 .971429 1.0285714 2 2 2h32c .971429 0 2-1.028571 2-2v-31l-13-13z" fill="#c1c1c1"/>
 <path d="m29 12l .0625.0625.15625-.0625zm2 2l11 11v-11z" fill-opacity=".196"/>
 <path d="m29 1l13 13h-11c-.971429 0-2-1.028571-2-2z" fill="#ffffff" fill-opacity=".392"/>
 <g fill="#c1c1c1" transform="scale(.90794 1.10139)">
  <path d="m15.441105 28.889999l-.36683-1.808852h-2.087138l-.354181 1.808852h-1.619113c.371047-1.543215.746309-2.947288 1.12579-4.212223.379478-1.273359.746308-2.47926 1.100491-3.617705h1.695009c.371042 1.146878.737872 2.365428 1.10049 3.655653.371042 1.281801.729439 2.673224 1.075193 4.174275zm-1.391425-6.31201c-.08433.295157-.164444.577658-.240337.847504-.06747.261425-.134929.522844-.202389.784258-.05903.252991-.118063.510194-.17709.771609-.0506.261423-.101197.531274-.151792.809556h1.530567c-.0506-.278282-.101198-.548133-.151791-.809556-.0506-.261415-.109632-.518618-.177091-.771609-.05903-.261414-.126497-.522833-.202389-.784258-.06747-.269846-.143362-.552347-.227688-.847504"/>
  <path d="m20.159302 27.751561c.261416.000001.476454-.0253.645115-.0759.177087-.05903.316229-.134925.417427-.227688.101191-.101193.168654-.21082.20239-.328882.04216-.126492.06324-.252985.06325-.37948-.000004-.160222-.04639-.303581-.139142-.430077-.09277-.12649-.210826-.236118-.354181-.328882-.143363-.101192-.303587-.189737-.480674-.265636-.177094-.08432-.354184-.160221-.531272-.227688-.236123-.08432-.480676-.181303-.73366-.290934-.252989-.109624-.484893-.248766-.695713-.417427-.20239-.168654-.371048-.375259-.505973-.619817-.134927-.252982-.20239-.564998-.202389-.93605-.000001-.733654.23612-1.307089.708362-1.720307.480672-.413204 1.138436-.619809 1.973294-.619817.48067.000008.898097.05482 1.252283.164441.362608.109635.666192.231912.910751.36683l-.455376 1.201686c-.210827-.118054-.446947-.219249-.708362-.303584-.25299-.08432-.548141-.126486-.885452-.126493-.826425.000007-1.239636.299374-1.239634.898102-.000002.151797.04216.286723.126494.404778.08433.109633.189737.210827.316233.303584.134923.08433.282498.160229.442726.227687.168654.06747.333095.130715.493323.18974.24455.09277.497536.198177.758959.316233.269848.109632.514401.261423.733661.455376.227682.185527.413206.421647.55657.708362.143353.278287.215033.632468.215038 1.062542-.000005.733662-.240342 1.302881-.721011 1.707659-.472246.396345-1.193256.594517-2.163033.594518-.649334-.000001-1.167956-.06746-1.555867-.20239-.387913-.143358-.678847-.274068-.872803-.392128l.455376-1.264932c.227686.134927.497538.26142.809556.379479.320448.118062.70836.177092 1.163738.177091"/>
  <path d="m27.293518 29.054441c-1.10471-.000001-1.947997-.354181-2.529864-1.062543-.581869-.708361-.872803-1.716089-.872803-3.023188 0-.649327.08854-1.226979.265636-1.732956.177089-.505967.421643-.931827.73366-1.277582.320448-.354173.695711-.619809 1.12579-.796907.438506-.185515.914964-.278277 1.429373-.278285.278281.000008.52705.02531.74631.0759.227682.04217.425855.09277.594518.151792.168652.05904.307794.122284.417427.18974.118055.06747.2066.118067.265636.151791l-.404778 1.239634c-.193962-.126487-.430082-.231898-.708362-.316233-.269857-.09276-.581873-.139136-.93605-.139143-.244557.000007-.484894.04639-.721011.139143-.227691.08434-.434296.23191-.619817.442726-.177093.202395-.324668.476463-.442726.822206-.109629.345753-.164443.775829-.164441 1.29023-.000002.893889.15179 1.581168.455375 2.061839.312014.472243.817987.708364 1.517919.708362.404774.000002.737872-.04638.999296-.139142.269847-.09276.484885-.185522.645115-.278285l.392129 1.226984c-.21926.134926-.518627.261419-.898102.379479-.371051.109628-.801127.164441-1.29023.164442"/>
  <path d="m30.557043 28.889999v-1.29023h1.707658v-5.249468h-1.707658v-1.29023h4.971182v1.29023h-1.695008v5.249468h1.695008v1.29023z"/>
  <path d="m36.881702 28.889999v-1.29023h1.707658v-5.249468h-1.707658v-1.29023h4.971183v1.29023h-1.695009v5.249468h1.695009v1.29023z"/>
 </g>
</svg>
