<svg height="48" viewBox="0 0 48 48" width="48" xmlns="http://www.w3.org/2000/svg">
 <path d="m8 1c-1.0285715 0-2 .9714285-2 2v11 31c0 .971429 1.0285714 2 2 2h32c .971429 0 2-1.028571 2-2v-31-11c0-1.0285715-.971429-2-2-2h-11-10z" fill="#c1c1c1"/>
 <path d="m76.026806-105.45497c0 30.716158 0 60.642554 0 87.275562 35.103874 0 69.641104 0 100.000004 0 0-30.716158 0-60.642554 0-87.275562-34.71345 0-70.24444 0-100.000004 0zm9.999998 8.727556h45.000006v17.455111h-45.000006zm55.000006 0h25v17.455111h-25zm-55.000006 26.182667h45.000006v17.455112h-45.000006zm55.000006 0h25v17.455112h-25zm-55.000006 26.182668h45.000006v17.455111h-45.000006zm55.000006 0h25v17.455111h-25z" fill="#ffffff" transform="matrix(-.2 0 0 .22916 49.20536 38.16603)"/>
</svg>
