<svg height="48" viewBox="0 0 48 48" width="48" xmlns="http://www.w3.org/2000/svg">
 <path d="m8 1c-1.0285715 0-2 .9714285-2 2v42c0 .971429 1.0285714 2 2 2h32c .971429 0 2-1.028571 2-2v-31l-13-13z" fill="#c1c1c1"/>
 <path d="m29 12l .0625.0625.15625-.0625zm2 2l11 11v-11z" fill-opacity=".196"/>
 <path d="m29 1l13 13h-11c-.971429 0-2-1.028571-2-2z" fill="#ffffff" fill-opacity=".392"/>
 <path d="m6 35v10c0 .971429 1.0285714 2 2 2h32c .971429 0 2-1.028571 2-2v-10z" fill-opacity=".196"/>
 <g fill="#ffffff">
  <path d="m18 1v4h4v-4zm0 4h-4v4h4zm0 4v4h4v-4zm0 4h-4v4h4zm0 4v4h4v-4zm-4 6v8h8v-8h-4z"/>
  <g transform="scale(1.04064 .96095)">
   <path d="m19.505468 38.503568v1.371825h-2.19223v6.95327h-1.667709v-6.95327h-2.19223v-1.371825z"/>
   <path d="m26.028362 46.828663h-5.231764v-8.325095h1.667709v6.95327h3.564055z"/>
   <path d="m32.551256 39.660204c-.385551.591775-.739715 1.147677-1.062492 1.667709-.322787.520044-.623154 1.017666-.901101 1.492869-.277955.466245-.542457.919036-.793506 1.358376-.24209.430378-.475211.856271-.699362 1.27768h3.577504v1.371825h-5.4873v-.954898c.197255-.385544.40796-.789022.632116-1.210434.224152-.430374.475205-.887648.753158-1.371825.27795-.484169.578316-1.00869.901101-1.573564.331745-.564863.694875-1.179046 1.089391-1.842549h-3.200926v-1.371825h5.191417z"/>
  </g>
 </g>
</svg>
