<svg height="48" viewBox="0 0 48 48" width="48" xmlns="http://www.w3.org/2000/svg">
 <path d="m8 1c-1.0285715 0-2 .9714285-2 2v42c0 .971429 1.0285714 2 2 2h32c .971429 0 2-1.028571 2-2v-31l-13-13z" fill="#c1c1c1"/>
 <path d="m29 12l .0625.0625.15625-.0625zm2 2l11 11v-11z" fill-opacity=".196"/>
 <path d="m29 1l13 13h-11c-.971429 0-2-1.028571-2-2z" fill="#ffffff" fill-opacity=".392"/>
 <path d="m6 35v10c0 .971429 1.0285714 2 2 2h32c .971429 0 2-1.028571 2-2v-10z" fill-opacity=".196"/>
 <g fill="#ffffff">
  <path d="m18 1v4h4v-4zm0 4h-4v4h4zm0 4v4h4v-4zm0 4h-4v4h4zm0 4v4h4v-4zm-4 6v8h8v-8h-4z"/>
  <g transform="scale(1.02742 .97331)">
   <path d="m19.601661 38.014574v1.354403h-2.164389v6.864963h-1.646529v-6.864963h-2.164389v-1.354403z"/>
   <path d="m25.975321 38.014574v8.219366h-1.63325v-3.625019h-2.177667v3.625019h-1.633251v-8.219366h1.633251v3.239944h2.177667v-3.239944z"/>
   <path d="m31.339819 46.23394l-.385075-1.89882h-2.190946l-.371797 1.89882h-1.699643c.389501-1.61997.783428-3.093878 1.181783-4.421727.398352-1.336692.783427-2.602571 1.155226-3.797639h1.779314c.389497 1.20392.774572 2.483077 1.155226 3.837474.389495 1.345554.765718 2.806183 1.128669 4.381892zm-1.46063-6.625951c-.08853.309837-.172624.606389-.252291.889657-.07082.274427-.14164.548848-.212456.823264-.06197.265574-.123935.535569-.185898.809986-.05312.274425-.10623.557699-.159341.849822h1.606693c-.05312-.292123-.106232-.575397-.159341-.849822-.05312-.274417-.115084-.544412-.185899-.809986-.06197-.274416-.132788-.548837-.212455-.823264-.07082-.283268-.150493-.57982-.239012-.889657"/>
  </g>
 </g>
</svg>
