<svg viewBox="0 0 48 48" xmlns="http://www.w3.org/2000/svg">
 <path d="m8 1c-1.029 0-2 .971-2 2v42c0 .971 1.029 2 2 2h32c .971 0 2-1.029 2-2v-31l-13-13z" fill="#c1c1c1"/>
 <path d="m29 12l .063.063.156-.063zm2 2l11 11v-11z" fill-opacity=".196"/>
 <path d="m29 1l13 13h-11c-.971 0-2-1.029-2-2z" fill="#ffffff" fill-opacity=".392"/>
 <g fill="#c1c1c1" transform="translate(0 1)">
  <path d="m15 32l4-4v7h-4m5-6l3 3v3h-3zm4 6v-3l3-3v6zm4-7l4-4v11h-4zm-9-1l-5 5v-2l5-5 4.5 4.5 7.5-7.5-2-2h5v5l-2-2-8.5 8.5"/>
  <path d="m29.565 33.683h-2.262v-1.212h3.393c1.131 0 1.131-1.212 1.131-1.212 0 0 0-1.212-1.131-1.212h-2.262c-1.131 0-1.131-1.212-1.131-1.212v-2.424c0 0 0-1.212 1.131-1.212h1.131v-1.212h1.131v1.208l2.262.004v1.212h-3.393c-1.131 0-1.131 1.212-1.131 1.212 0 0-.018 1.217 1.131 1.212h2.262c0 0 1.131 0 1.131 1.212 0 1.068 0 1.356 0 2.424 0 1.212-1.131 1.212-1.131 1.212h-1.131v1.212h-1.131z" transform="matrix(.88426256 0 0 .82508313 -3.1428571 -4.7916046)"/>
 </g>
</svg>
