<svg viewBox="0 0 512 512" xmlns="http://www.w3.org/2000/svg" xmlns:xlink="http://www.w3.org/1999/xlink">
 <filter id="a" color-interpolation-filters="sRGB">
  <feColorMatrix values="0.21 0.72 0.072 0 0 0.21 0.72 0.072 0 0 0.21 0.72 0.072 0 0 0 0 0 1 0"/>
 </filter>
 <filter id="c" color-interpolation-filters="sRGB">
  <feColorMatrix values="0.21 0.72 0.072 0 0 0.21 0.72 0.072 0 0 0.21 0.72 0.072 0 0 0 0 0 1 0"/>
 </filter>
 <filter id="e" color-interpolation-filters="sRGB">
  <feColorMatrix values="0.21 0.72 0.072 0 0 0.21 0.72 0.072 0 0 0.21 0.72 0.072 0 0 0 0 0 1 0"/>
 </filter>
 <filter id="g" color-interpolation-filters="sRGB">
  <feColorMatrix values="0.21 0.72 0.072 0 0 0.21 0.72 0.072 0 0 0.21 0.72 0.072 0 0 0 0 0 1 0"/>
 </filter>
 <filter id="h" color-interpolation-filters="sRGB">
  <feColorMatrix values="0.21 0.72 0.072 0 0 0.21 0.72 0.072 0 0 0.21 0.72 0.072 0 0 0 0 0 1 0"/>
 </filter>
 <filter id="i" color-interpolation-filters="sRGB">
  <feColorMatrix values="0.21 0.72 0.072 0 0 0.21 0.72 0.072 0 0 0.21 0.72 0.072 0 0 0 0 0 1 0"/>
 </filter>
 <filter id="j" color-interpolation-filters="sRGB">
  <feColorMatrix values="0.21 0.72 0.072 0 0 0.21 0.72 0.072 0 0 0.21 0.72 0.072 0 0 0 0 0 1 0"/>
 </filter>
 <filter id="k" color-interpolation-filters="sRGB">
  <feColorMatrix values="0.21 0.72 0.072 0 0 0.21 0.72 0.072 0 0 0.21 0.72 0.072 0 0 0 0 0 1 0"/>
 </filter>
 <filter id="l" color-interpolation-filters="sRGB">
  <feColorMatrix values="0.21 0.72 0.072 0 0 0.21 0.72 0.072 0 0 0.21 0.72 0.072 0 0 0 0 0 1 0"/>
 </filter>
 <text filter="url(#a)" x="-477.49" y="456.61">
  
 </text>
 <text filter="url(#c)" x="228.86" y="300.98">
  
 </text>
 <text filter="url(#e)" x="262.23" y="292.85">
  
 </text>
 <g fill-opacity=".078" filter="url(#g)">
  <path d="m32.563 0c-4.774 0-8.594 3.266-8.594 7.313v497.38c0 4.047 3.82 7.313 8.594 7.313h446.87c4.774 0 8.594-3.266 8.594-7.313v-360.03l-144.66-144.66h-310.81"/>
  <path d="m35.625 3.5c-4.709 0-8.5 3.196-8.5 7.188v490.62c0 3.991 3.791 7.188 8.5 7.188h440.75c4.709 0 8.5-3.196 8.5-7.188v-356.28l-141.53-141.53h-307.72"/>
  <path d="m38.688 7c-4.643 0-8.375 3.158-8.375 7.094v483.82c0 3.936 3.732 7.094 8.375 7.094h434.62c4.643 0 8.375-3.158 8.375-7.094v-352.62l-138.28-138.28h-304.72"/>
 </g>
 <path d="m41.719 10.5c-4.578 0-8.25 3.119-8.25 7v477c0 3.881 3.672 7 8.25 7h428.56c4.578 0 8.25-3.119 8.25-7v-348.06l-135.97-135.94z" fill="#2489b5" filter="url(#h)"/>
 <path id="m" d="m478.53 146.44l-135.97-135.94v128.94c0 3.881 3.672 7 8.25 7z" fill="#ffffff" fill-opacity=".196" filter="url(#i)"/>
 <use filter="url(#j)" height="1" width="1" xlink:href="#m"/>
 <path d="m345.03 144.56l133.5 129.38v-127.5h-127.72c-2.185 0-4.154-.71-5.625-1.875h-.156" fill-opacity=".196" filter="url(#k)"/>
 <g fill-rule="evenodd" filter="url(#l)">
  <path d="m248.22 111.44l-16.719 22.75-24.656-13.719-8.875 26.781-27.688-5.406-.156 28.19-28.03 3.438 8.594 26.875-25.563 11.906 16.406 22.875-20.656 19.25 20.594 20.594-11.563 20.75 23.844 23.844-2.5 12.75 48.47 48.47-24.16 78.69 42.03 42.03h252.69c4.578 0 8.25-3.119 8.25-7v-215.84l-117.78-117.81-3.531-.031-28.12-28.12-16.5 5.25-22.25-22.25-22.06 15.813-20.06-20.06" opacity=".25"/>
  <path d="m248.22 111.45l-16.726 22.725-24.669-13.709-8.849 26.781-27.686-5.396-.168 28.19-28.02 3.419 8.581 26.881-25.574 11.899 16.424 22.893-20.647 19.239 22.725 16.692-13.709 24.669 26.781 8.882-5.43 27.686 28.22.168 3.419 27.988 25.507-8.111-32.848 107.12 40.09-34.524 9.318 49.24 30.971-100.96 7.843 8.447 10.122-13.709.235 3.02 31.641 103.2 9.318-49.24 40.09 34.524-31.809-103.77-3.05-8.547 21.385 4.156.168-28.22 28.02-3.385-8.581-26.881 25.574-11.899-16.424-22.926 20.647-19.21-22.725-16.726 13.709-24.636-26.781-8.882 5.43-27.686-28.22-.168-3.419-27.988-26.848 8.547-11.899-25.574-22.926 16.424-19.21-20.647m4.961 42.07c.703-.009 1.407-.01 2.112 0 31.729-.647 62.66 16.79 79.44 43.47 22.368 34.06 17.751 82.64-9.955 112.29-25.508 28.953-70.27 38.427-105.62 22.826-37.433-15.491-61.21-57.43-55.51-97.6 4.918-44.06 45.26-80.46 89.53-80.98m2.782 12.368c-44.592 0-80.61 36.09-80.61 80.68 0 44.592 36.02 80.64 80.61 80.64 44.592 0 80.68-36.05 80.68-80.64 0-44.592-36.09-80.68-80.68-80.68" fill="#ffffff"/>
 </g>
</svg>
