<svg viewBox="0 0 512 512" xmlns="http://www.w3.org/2000/svg">
 <filter id="a" color-interpolation-filters="sRGB">
  <feColorMatrix values="0.21 0.72 0.072 0 0 0.21 0.72 0.072 0 0 0.21 0.72 0.072 0 0 0 0 0 1 0"/>
 </filter>
 <filter id="b" color-interpolation-filters="sRGB">
  <feColorMatrix values="0.21 0.72 0.072 0 0 0.21 0.72 0.072 0 0 0.21 0.72 0.072 0 0 0 0 0 1 0"/>
 </filter>
 <filter id="c" color-interpolation-filters="sRGB">
  <feColorMatrix values="0.21 0.72 0.072 0 0 0.21 0.72 0.072 0 0 0.21 0.72 0.072 0 0 0 0 0 1 0"/>
 </filter>
 <filter id="d" color-interpolation-filters="sRGB">
  <feColorMatrix values="0.21 0.72 0.072 0 0 0.21 0.72 0.072 0 0 0.21 0.72 0.072 0 0 0 0 0 1 0"/>
 </filter>
 <filter id="e" color-interpolation-filters="sRGB">
  <feColorMatrix values="0.21 0.72 0.072 0 0 0.21 0.72 0.072 0 0 0.21 0.72 0.072 0 0 0 0 0 1 0"/>
 </filter>
 <filter id="f" color-interpolation-filters="sRGB">
  <feColorMatrix values="0.21 0.72 0.072 0 0 0.21 0.72 0.072 0 0 0.21 0.72 0.072 0 0 0 0 0 1 0"/>
 </filter>
 <filter id="g" color-interpolation-filters="sRGB">
  <feColorMatrix values="0.21 0.72 0.072 0 0 0.21 0.72 0.072 0 0 0.21 0.72 0.072 0 0 0 0 0 1 0"/>
 </filter>
 <g fill-opacity=".078" filter="url(#a)">
  <rect height="512" rx="58.46" width="464.07" x="23.96"/>
  <rect height="505" rx="57.661" width="457.73" x="27.14" y="3.5"/>
  <rect height="498" rx="56.862" width="451.38" x="30.31" y="7"/>
 </g>
 <rect fill="#ba9f74" filter="url(#b)" height="491" rx="56.06" width="445.04" x="33.48" y="10.5"/>
 <path d="m33.469 334.16v111.28c0 31.06 25 56.06 56.06 56.06h332.94c31.06 0 56.06-25 56.06-56.06v-111.28z" fill="#282629" fill-opacity=".235" filter="url(#c)"/>
 <rect fill="#ffffff" filter="url(#d)" height="58.46" rx="10.523" width="147.32" x="89.46" y="387.54"/>
 <path d="m101.8 392.78v47.969h10.458v-47.969zm20.376 0v47.969h2.185v-47.969zm14.411 0v47.969h5.843v-47.969zm13.944 0v47.969h10.409v-47.969zm17.946 0v47.969h6.948v-47.969zm14.19 0v47.969h11.05v-47.969zm19.15 0v47.969h5.205v-47.969zm15.05 0v47.969h7.586v-47.969z" fill="#282629" filter="url(#e)"/>
 <path d="m351.44 10.5c.883 1.346 1.375 2.867 1.375 4.5v6.813c0 5.376-5.422 9.719-12.12 9.719h-7.875c.02.247.031.467.031.719 0 1.308-.269 2.57-.75 3.719 4.604.938 7.969 4.377 7.969 8.531v6.188c0 4.879-4.677 8.781-10.5 8.781h-4.813c.127.655.219 1.337.219 2.031 0 1.296-.231 2.516-.656 3.656 4.206.894 7.313 4.397 7.313 8.594v6.156c0 4.879-4.232 8.813-9.469 8.813h-4.875c.021.289 0 .579 0 .875 0 1.639-.349 3.159-.938 4.531 3.57.991 6.188 4.401 6.188 8.5v6.188c0 4.879-3.704 8.781-8.313 8.781h-8.469c.141.707.219 1.456.219 2.219 0 1.651-.354 3.2-.969 4.531 3.711.187 6.656 3.73 6.656 8.156v5.75c0 4.547-3.115 8.219-6.969 8.219h-7c .109.559.188 1.149.188 1.75 0 1.16-.209 2.241-.594 3.219 2.357 1.032 4.094 4.278 4.094 8.156v5.969c0 4.713-2.546 8.5-5.688 8.5h-8.438c.083.564.125 1.143.125 1.75 0 2.037-.504 3.876-1.313 5.219 2.14.38 3.781 3.506 3.781 7.375v5.219c0 4.126-1.873 7.438-4.219 7.438h-15.313v19.844c5.306.78 8.906 2.294 8.906 4.03v64.22c0 .342-.143.68-.406 1-.157 11.483-10.481 20.781-23.16 20.781-6.387 0-12.162-2.382-16.344-6.188l195.38 195.41c25.13-5.555 43.844-27.867 43.844-54.719v-307.84l-127.09-127.09m-191.47 1.031c-.341.715-.568 1.495-.688 2.281.12-.789.346-1.564.688-2.281m-.781 10.281c0 .341.02.668.063 1-.041-.327-.063-.664-.063-1m .313 2.156c.069.243.159.483.25.719-.094-.242-.18-.469-.25-.719m.25.719c.119.308.251.613.406.906-.153-.291-.288-.602-.406-.906m.906 1.75c.115.169.217.337.344.5-.124-.16-.231-.334-.344-.5m1.313 1.563l11.656 11.656c1.429-1.827 3.659-3.153 6.281-3.688-.481-1.149-.75-2.411-.75-3.719 0-.252.012-.472.031-.719h-7.875c-3.77 0-7.123-1.373-9.344-3.531m10.313 14.25c-.057.188-.114.37-.156.563.044-.193.098-.375.156-.563m2.719 14.656l9.531 9.563c.948-.598 2-1.067 3.156-1.313-.425-1.14-.656-2.36-.656-3.656 0-.694.092-1.376.219-2.031h-4.813c-2.912 0-5.54-.975-7.438-2.563m5.5 15.406c-.031.176-.043.352-.063.531.019-.172.033-.362.063-.531m-.125 7.594c0 .494.073.967.156 1.438-.083-.472-.156-.943-.156-1.438m.281 2.125c.045.169.101.335.156.5-.055-.164-.112-.332-.156-.5m.531 1.406c.106.226.218.441.344.656-.126-.217-.237-.429-.344-.656m.344.656c.146.25.298.484.469.719-.17-.234-.323-.469-.469-.719m1.625 2.031l9.531 9.563c.869-.709 1.875-1.259 2.969-1.563-.588-1.372-.938-2.892-.938-4.531 0-.296-.021-.586 0-.875h-4.875c-2.618 0-4.978-1-6.688-2.594m9.313 29.469l10.5 10.5c1.112-1.035 2.512-1.673 4.03-1.75-.615-1.331-.969-2.88-.969-4.531 0-.762.078-1.512.219-2.219h-8.469c-2.02 0-3.876-.749-5.313-2m10.938 29.5l8.75 8.781c.69-1.114 1.562-2 2.563-2.438-.385-.977-.594-2.058-.594-3.219 0-.601.078-1.191.188-1.75h-7c-1.445 0-2.796-.49-3.906-1.375m7.469 12.09c-.065.319-.117.665-.156 1 .039-.343.091-.672.156-1m-.156 1c-.053.457-.094.923-.094 1.406 0-.485.042-.945.094-1.406m-.063 8.25c.019.279.057.542.094.813-.036-.268-.075-.536-.094-.813m2.938 6.594l9.906 9.938c.65-1.059 1.498-1.771 2.438-1.938-.809-1.343-1.313-3.181-1.313-5.219 0-.607.042-1.186.125-1.75h-8.438c-.982 0-1.914-.378-2.719-1.031m11.125 27.469l17.469 17.5 1-16.938h-16.813c-.586 0-1.15-.188-1.656-.563m17.281 20.406c-1.283.194-2.442.441-3.469.719 1.027-.276 2.186-.525 3.469-.719m-1.875 68.03c.591 8.445 7.478 15.13 15.875 15.13 8.343 0 15.208-6.569 15.875-14.938h-28.594c-1.107 0-2.196-.082-3.156-.188" filter="url(#f)" opacity=".25"/>
 <path d="m160.57 10.5c-.883 1.346-1.378 2.881-1.378 4.514v6.794c0 5.376 5.413 9.716 12.12 9.716h7.887c-.019.247-.024.485-.024.736 0 1.308.255 2.557.736 3.706-4.604.938-7.982 4.375-7.982 8.529v6.177c0 4.879 4.677 8.79 10.5 8.79h4.823c-.127.655-.214 1.349-.214 2.043 0 1.296.24 2.518.665 3.659-4.206.894-7.317 4.379-7.317 8.576v6.153c0 4.879 4.218 8.814 9.455 8.814h4.894c-.021.289-.024.583-.024.879 0 1.639.362 3.165.95 4.538-3.57.991-6.2 4.406-6.2 8.505v6.177c0 4.879 3.707 8.79 8.315 8.79h8.481c-.141.707-.214 1.447-.214 2.209 0 1.651.335 3.206.95 4.537-3.711.187-6.652 3.746-6.652 8.172v5.749c0 4.547 3.107 8.22 6.961 8.22h7.01c-.109.559-.19 1.134-.19 1.734 0 1.16.209 2.254.594 3.231-2.357 1.032-4.086 4.27-4.086 8.148v5.963c0 4.713 2.536 8.505 5.678 8.505h8.434c-.083.564-.119 1.128-.119 1.734 0 2.037.498 3.883 1.307 5.226-2.14.38-3.777 3.52-3.777 7.388v5.226c0 4.126 1.883 7.436 4.229 7.436h16.82l-1.188 19.837c-5.132.774-8.388 2.264-8.41 4.01l-.76 61.696c-.184 1.067-.285 2.165-.285 3.278 0 11.606 10.341 21.02 23.12 21.02 12.676 0 22.982-9.28 23.14-20.763.263-.32.404-.656.404-.998v-64.24c0-1.737-3.602-3.235-8.909-4.01v-19.837h15.323c2.346 0 4.229-3.309 4.229-7.436v-5.226c0-3.869-1.637-7.01-3.777-7.388.809-1.343 1.307-3.189 1.307-5.226 0-.607-.036-1.17-.119-1.734h8.434c3.142 0 5.678-3.792 5.678-8.505v-5.963c0-3.878-1.729-7.117-4.086-8.148.385-.977.594-2.071.594-3.231 0-.601-.081-1.175-.19-1.734h7.01c3.854 0 6.961-3.673 6.961-8.22v-5.749c0-4.426-2.941-7.985-6.652-8.172.615-1.331.95-2.886.95-4.537 0-.762-.073-1.503-.214-2.209h8.481c4.608 0 8.315-3.911 8.315-8.79v-6.177c0-4.099-2.63-7.514-6.2-8.505.588-1.372.95-2.898.95-4.538 0-.296-.003-.59-.024-.879h4.894c5.237 0 9.455-3.935 9.455-8.814v-6.153c0-4.197-3.111-7.682-7.317-8.576.425-1.14.665-2.362.665-3.659 0-.694-.087-1.388-.214-2.043h4.823c5.823 0 10.5-3.911 10.5-8.79v-6.177c0-4.154-3.378-7.591-7.982-8.529.481-1.149.736-2.398.736-3.706 0-.252-.004-.489-.024-.736h7.887c6.703 0 12.12-4.34 12.12-9.716v-6.794c0-1.633-.495-3.168-1.378-4.514h-190.86m79.56 278.45c.96.106 2.029.166 3.136.166h28.603c-.667 8.368-7.526 14.943-15.869 14.943-8.397 0-15.279-6.664-15.869-15.11" fill="#fdf6ea" fill-opacity=".44" filter="url(#g)"/>
</svg>
