<svg height="48" viewBox="0 0 48 48" width="48" xmlns="http://www.w3.org/2000/svg">
 <path d="m8 1c-1.0285715 0-2 .9714285-2 2v11 31c0 .971429 1.0285714 2 2 2h32c .971429 0 2-1.028571 2-2v-31-11c0-1.0285715-.971429-2-2-2h-11-10z" fill="#c1c1c1"/>
 <path d="m15 32v-15h18v15h-10v-8h5v3h-2v2h4v-9h-12v12z" fill="#ffffff"/>
 <path d="m6 35v10c0 .971429 1.028571 2 2 2h32c .971429 0 2-1.028571 2-2v-10z" fill-opacity=".196"/>
 <g fill="#ffffff" transform="matrix(1.06645 0 0 .93769 .00005 -.00014)">
  <path d="m14.778476 43.724611c-.000002.396209.01321.770403.03962 1.122583.03522.343381.09685.642736.184896.898066.09685.255335.228916.457839.396205.607516.167284.149679.391801.224517.67355.224516.272938.000001.493052-.07484.660343-.224516.176087-.149677.308156-.352181.396206-.607516.09685-.264135.158478-.567892.184896-.911273.03521-.343375.05282-.713167.05283-1.109376-.000004-.396202-.01761-.765993-.05283-1.109377-.02642-.352177-.08805-.655934-.184896-.911273-.08805-.255326-.215716-.457831-.382999-.607516-.167291-.14967-.391807-.224509-.67355-.224516-.281749.000007-.506266.07485-.67355.224516-.167289.149685-.299357.356592-.396205.620723-.08805.255338-.14968.554694-.184896.898066-.02642.343384-.03962.713175-.03962 1.109377m-1.650858 0c0-1.408727.259735-2.469677.779205-3.182854.519468-.721967 1.241443-1.082954 2.165925-1.082962.959694.000008 1.690473.360995 2.192339 1.082962.501855.713177.752785 1.774127.752791 3.182854-.000006 1.408734-.255339 2.474086-.765998 3.19606-.51067.71317-1.232644 1.069755-2.165925 1.069755-.959701 0-1.694882-.356585-2.205546-1.069755-.501861-.721974-.752791-1.787326-.752791-3.19606"/>
  <path d="m25.647721 39.643691v1.3471h-2.152718v6.827946h-1.63765v-6.827946h-2.152718v-1.3471z"/>
  <path d="m26.691063 47.818737v-1.3471h1.782926v-5.480846h-1.782926v-1.3471h5.190296v1.3471h-1.769719v5.480846h1.769719v1.3471z"/>
 </g>
</svg>
