<svg viewBox="0 0 512 512" xmlns="http://www.w3.org/2000/svg" xmlns:xlink="http://www.w3.org/1999/xlink">
 <text x="-109.95" y="148.92">
  
 </text>
 <text x="471.32" y="68.92">
  
 </text>
 <text x="-600.26" y="-112.34">
  
 </text>
 <text x="497.79" y="-328.81">
  
 </text>
 <text x="1079.06" y="-408.82">
  
 </text>
 <text x="689.94" y="-881.22">
  
 </text>
 <text x="1271.2" y="-961.22">
  
 </text>
 <text x="-561.6" y="453.5">
  
 </text>
 <text x="-990.51" y="-43.58">
  
 </text>
 <text x="-1638.27" y="-811.53">
  
 </text>
 <text x="-931.93" y="-967.16">
  
 </text>
 <text x="-459.24" y="318.14">
  
 </text>
 <text x="122.03" y="238.14">
  
 </text>
 <text x="-949.55" y="56.88">
  
 </text>
 <text x="148.5" y="-159.59">
  
 </text>
 <text x="729.77" y="-239.6">
  
 </text>
 <text x="340.65" y="-712">
  
 </text>
 <text x="921.91" y="-792">
  
 </text>
 <text x="-910.89" y="622.72">
  
 </text>
 <path d="m36.06 512c-5.63 0-10.156-4.527-10.156-10.156v-491.69c0-5.63 4.527-10.156 10.156-10.156h439.88c5.63 0 10.156 4.527 10.156 10.156v334.09l-167.75 167.75h-282.28" opacity=".1"/>
 <path d="m39.06 508.5c-5.553 0-10.03-4.479-10.03-10.03v-484.94c0-5.553 4.479-10.03 10.03-10.03h433.88c5.553 0 10.03 4.479 10.03 10.03v327.84l-167.12 167.13h-276.78" opacity=".1"/>
 <path d="m42.06 505c-5.476 0-9.875-4.399-9.875-9.875v-478.25c0-5.476 4.399-9.875 9.875-9.875h427.88c5.476 0 9.875 4.399 9.875 9.875v321.66l-166.47 166.47h-271.28" opacity=".1"/>
 <path d="m45.06 501.5c-5.399 0-9.719-4.351-9.719-9.75v-471.5c0-5.399 4.32-9.75 9.719-9.75h421.88c5.399 0 9.719 4.351 9.719 9.75v315.44l-165.81 165.81h-265.78" fill="#3c3c3c"/>
 <path d="m375.28 56.41c-10.303.088-20.805.972-30.906.281h-130.37c-28.495.395-65.14 1.687-77.969 32.469-12.664 21.703-30.935 47.47-1.281 63.16 15.984 16.07 32.16 31.996 48.03 48.16-6.498 29.955-26.458 54.972-34.16 84 1.03 22.649 24.928 33.777 37.781 50.09 48.621 48.5 97.16 97.09 145.69 145.69l144.56-144.56v-198.84c-26-26.02-52.02-52.02-78-78.06-7.48-2.036-15.361-2.444-23.375-2.375" opacity=".25"/>
 <path id="a" d="m476.66 335.69l-165.81 165.81v-156.06c0-5.399 4.32-9.75 9.719-9.75h156.09" fill="#ffffff" fill-opacity=".196"/>
 <use xlink:href="#a"/>
 <path d="m230.04 394.61c-17.246-.088-26.601 4.26-32.03 7.563-23.597-5.201-46.2-4.799-64.34 10.438 26.617-7.348 50.23-7.967 66.969 1.5 15.649-12.541 47.969-17.09 58.19-16.12-11.476-2.371-20.942-3.335-28.781-3.375m-31.438 34.969c-22.75.255-39.08 9.467-43.75 16.344-22.23-9.765-72.01-.897-83.66 18.656 37.2-14.404 65.56-13.868 87.44 1.375 19.34-22.85 61.07-31.628 74.47-30.09-12.513-4.65-24.16-6.397-34.5-6.281" fill="#ffffff"/>
 <text x="-798.56" y="99.64">
  
 </text>
 <text x="-217.29" y="19.64">
  
 </text>
 <text x="-1288.87" y="-161.62">
  
 </text>
 <text x="-190.82" y="-378.09">
  
 </text>
 <text x="390.45" y="-458.1">
  
 </text>
 <text x="1.33" y="-930.5">
  
 </text>
 <text x="582.59" y="-1010.5">
  
 </text>
 <text x="-1250.21" y="404.22">
  
 </text>
 <text x="-1679.11" y="-92.85">
  
 </text>
 <text x="-2326.88" y="-860.8">
  
 </text>
 <text x="-1620.54" y="-1016.44">
  
 </text>
 <text x="-722.63" y="195.1">
  
 </text>
 <text x="-141.36" y="115.1">
  
 </text>
 <text x="-1212.94" y="-66.16">
  
 </text>
 <text x="-114.89" y="-282.63">
  
 </text>
 <text x="466.38" y="-362.64">
  
 </text>
 <text x="77.26" y="-835.04">
  
 </text>
 <text x="658.52" y="-915.04">
  
 </text>
 <text x="-1174.28" y="499.68">
  
 </text>
 <text x="-726.85" y="168.47">
  
 </text>
 <text x="-145.58" y="88.47">
  
 </text>
 <text x="-1217.16" y="-92.79">
  
 </text>
 <text x="-119.11" y="-309.26">
  
 </text>
 <text x="462.16" y="-389.27">
  
 </text>
 <text x="73.04" y="-861.67">
  
 </text>
 <text x="654.3" y="-941.67">
  
 </text>
 <text x="-1178.5" y="473.05">
  
 </text>
 <text x="-779.03" y="-128.16">
  
 </text>
 <text x="-197.76" y="-208.16">
  
 </text>
 <text x="-1269.34" y="-389.42">
  
 </text>
 <text x="-171.29" y="-605.89">
  
 </text>
 <text x="409.98" y="-685.9">
  
 </text>
 <text x="20.86" y="-1158.3">
  
 </text>
 <text x="602.12" y="-1238.3">
  
 </text>
 <text x="-1230.68" y="176.42">
  
 </text>
 <text x="-547.98" y="190.76">
  
 </text>
 <text x="33.29" y="110.76">
  
 </text>
 <text x="-1038.29" y="-70.5">
  
 </text>
 <text x="59.76" y="-286.97">
  
 </text>
 <text x="641.03" y="-366.98">
  
 </text>
 <text x="251.91" y="-839.38">
  
 </text>
 <text x="833.17" y="-919.38">
  
 </text>
 <text x="-999.63" y="495.34">
  
 </text>
 <path d="m214.02 56.677c-23.865.846-39.34 2.078-51.48 6.742-12.138 4.664-20.01 13.381-26.465 25.694a7.0963 7.0963 0 0 0 -.0297.0296l-19.664 38.02a7.0963 7.0963 0 0 0 5.7327 10.337l6.713.505a7.0963 7.0963 0 0 0 6.7723-3.6535c6.903-12.662 13.613-21.561 21.03-27.15 7.37-5.553 15.518-8.253 27.03-8.287h.208l17.05.445c-9.705 56.16-7.786 99.63-49.1 172.07a7.0963 7.0963 0 0 0 -.41584.8911c-3.335 8.394-3.682 16.345-1.278 22.926 2.399 6.586 7.509 11.447 13.456 13.872 11.893 4.847 27.315.337 35.674-13.426a7.0963 7.0963 0 0 0 .32674-.62376c17.365-36.407 26.501-105.53 32.14-195.62h57.861l-9.445 147.9a7.0963 7.0963 0 0 0 0 .29703c-.469 21.924 4.878 38.45 14.643 49.22 9.765 10.762 23.766 15.01 37.664 13.245 27.797-3.516 56.24-28.948 67.28-69.74a7.0963 7.0963 0 0 0 -6.8614-8.9704h-6.683a7.0963 7.0963 0 0 0 -6.2971 3.802c-9.789 18.588-19.279 29.32-26.763 34.07-7.487 4.753-12.136 4.378-16.99 1.396s-9.87-9.979-13.13-20.02c-3.257-10.03-4.799-22.866-3.862-36.594.001-.01-.001-.019 0-.03l8.287-114.15 66.29-.95a7.0963 7.0963 0 0 0 7.01-7.099v-28.04a7.0963 7.0963 0 0 0 -7.0991-7.0991h-179.35a7.0963 7.0963 0 0 0 -.26734 0" fill="#ffffff"/>
</svg>
