<svg viewBox="0 0 48 48" xmlns="http://www.w3.org/2000/svg">
 <path d="m8 1c-1.029 0-2 .971-2 2v42c0 .971 1.029 2 2 2h32c .971 0 2-1.029 2-2v-31l-13-13z" fill="#c1c1c1"/>
 <path d="m29 12l .063.063.156-.063zm2 2l11 11v-11z" fill-opacity=".196"/>
 <path d="m29 1l13 13h-11c-.971 0-2-1.029-2-2z" fill="#ffffff" fill-opacity=".392"/>
 <path d="m33 32c-.683 0-1 .348-1 1v3c0 .687.463 1 1 1h1c .759 0 1-.447 1-1v-3c0-.614-.296-1-1-1zm0 1h1v3h-1zm-6-1c-.674 0-1 .339-1 1v3c0 .641.382 1 1 1h1c .686 0 1-.389 1-1v-3c0-.583-.384-1-1-1zm0 1h1v3h-1zm-7-1c-.65 0-1 .331-1 1v3c0 .647.334 1 1 1h1c .682 0 1-.349 1-1v-3c0-.662-.357-1-1-1zm0 1h1v3h-1zm-6-1c-.634 0-1 .284-1 1v3c0 .725.319 1 1 1h1c .745 0 1-.423 1-1v-3c0-.677-.332-1-1-1zm0 1h1v3h-1zm3-9c-.718 0-1 .366-1 1v3c0 .579.328 1 1 1h1c .659 0 1-.388 1-1v-3c0-.625-.323-1-1-1zm0 1h1v3h-1zm6-8c-.583 0-1 .35-1 1v3c0 .592.457 1 1 1h2c .612 0 1-.399 1-1v-3c0-.562-.378-1-1-1zm0 1h2v3h-2zm11 8v6h-1v-5h-1v-1m-2-2c-.619 0-1 .417-1 1v3c0 .616.389 1 1 1h1c .651 0 1-.352 1-1v-3c0-.583-.363-1-1-1zm0 1h1v3h-1zm-3 1v6h1v-5h1v-1m2-7v5h-1v-4h-4v-1m-12 7v6h1v-5h1v-1m5 0v6h-1v-5h-1v-1m-2-7v5h1v-4h4v-1" fill="#c1c1c1"/>
</svg>
