<svg viewBox="0 0 48 48" xmlns="http://www.w3.org/2000/svg">
 <path d="m8 1c-1.029 0-2 .971-2 2v42c0 .971 1.029 2 2 2h32c .971 0 2-1.029 2-2v-31l-13-13z" fill="#c1c1c1"/>
 <path d="m29 12l .063.063.156-.063zm2 2l11 11v-11z" fill-opacity=".196"/>
 <path d="m29 1l13 13h-11c-.971 0-2-1.029-2-2z" fill="#ffffff" fill-opacity=".392"/>
 <g transform="matrix(.92307692 0 0 .92300592 1.8461539 6.852473)">
  <path d="m24.844 10.996c-2.43 7.797-3.57 5.668-8.77 1.945 3.09 7.727 2.609 6.449-3.5 5.996 5.285 3.996 4.344 5.355-1.574 8.324 6.094.043 8.219-.418 5.508 5.305 5.551-2.824 4.898-2.852 6.566 4.43 2.699-7.316 2.602-6.566 8.262-3.055-2.156-5.926-2.262-6.086 4.875-4.582-6.05-5.105-4.762-5.469.789-9.01-7.855.285-6.914-.273-4.684-6.605-6.426 4.941-5.93 3.363-7.473-2.75m0 0" fill="#c1c1c1"/>
  <path d="m17.445 17.996c2.727 5.324.902 6.469-3.449 9.34 6.285-.059 7.109.363 7.887 6.66 2.664-5.305 3.465-6.68 9.113-5.168-3.582-3.816-4.379-5.379-2.613-10.371-4.438 2.875-6.438 2.102-10.938-.461m0 0" fill="#c1c1c1"/>
  <path d="m23.605 19.996c1.594 2.543 1.672 2.574 4.398 3.586-2.727 1.18-2.289 1.16-2.098 4.219-2.215-1.844-2.922-1.563-5.344.195 1.168-3.137.969-3.297-1.559-5.242 3.03-.098 3.445-.055 4.602-2.758m0 0" fill="#c1c1c1"/>
 </g>
</svg>
