<svg viewBox="0 0 512 512" xmlns="http://www.w3.org/2000/svg" xmlns:xlink="http://www.w3.org/1999/xlink">
 <linearGradient id="a" gradientUnits="userSpaceOnUse" x2="0" y1="269.09" y2="438.13">
  <stop offset="0" stop-color="#ffffff" stop-opacity=".745"/>
  <stop offset="1" stop-color="#ffffff" stop-opacity="0"/>
 </linearGradient>
 <filter id="b" color-interpolation-filters="sRGB">
  <feColorMatrix values="0.21 0.72 0.072 0 0 0.21 0.72 0.072 0 0 0.21 0.72 0.072 0 0 0 0 0 1 0"/>
 </filter>
 <filter id="c" color-interpolation-filters="sRGB">
  <feColorMatrix values="0.21 0.72 0.072 0 0 0.21 0.72 0.072 0 0 0.21 0.72 0.072 0 0 0 0 0 1 0"/>
 </filter>
 <filter id="d" color-interpolation-filters="sRGB">
  <feColorMatrix values="0.21 0.72 0.072 0 0 0.21 0.72 0.072 0 0 0.21 0.72 0.072 0 0 0 0 0 1 0"/>
 </filter>
 <filter id="e" color-interpolation-filters="sRGB">
  <feColorMatrix values="0.21 0.72 0.072 0 0 0.21 0.72 0.072 0 0 0.21 0.72 0.072 0 0 0 0 0 1 0"/>
 </filter>
 <filter id="f" color-interpolation-filters="sRGB">
  <feColorMatrix values="0.21 0.72 0.072 0 0 0.21 0.72 0.072 0 0 0.21 0.72 0.072 0 0 0 0 0 1 0"/>
 </filter>
 <filter id="g" color-interpolation-filters="sRGB">
  <feColorMatrix values="0.21 0.72 0.072 0 0 0.21 0.72 0.072 0 0 0.21 0.72 0.072 0 0 0 0 0 1 0"/>
 </filter>
 <filter id="h" color-interpolation-filters="sRGB">
  <feColorMatrix values="0.21 0.72 0.072 0 0 0.21 0.72 0.072 0 0 0.21 0.72 0.072 0 0 0 0 0 1 0"/>
 </filter>
 <filter id="i" color-interpolation-filters="sRGB">
  <feColorMatrix values="0.21 0.72 0.072 0 0 0.21 0.72 0.072 0 0 0.21 0.72 0.072 0 0 0 0 0 1 0"/>
 </filter>
 <g fill-opacity=".078" filter="url(#b)">
  <path d="m32.563 0c-4.774 0-8.594 3.266-8.594 7.313v497.38c0 4.047 3.82 7.313 8.594 7.313h446.88c4.774 0 8.594-3.266 8.594-7.313v-360.03l-144.66-144.66h-310.81"/>
  <path d="m35.625 3.5c-4.709 0-8.5 3.196-8.5 7.188v490.62c0 3.991 3.791 7.188 8.5 7.188h440.75c4.709 0 8.5-3.196 8.5-7.188v-356.28l-141.53-141.53h-307.72"/>
  <path d="m38.688 7c-4.643 0-8.375 3.158-8.375 7.094v483.82c0 3.936 3.732 7.094 8.375 7.094h434.63c4.643 0 8.375-3.158 8.375-7.094v-352.62l-138.28-138.28h-304.72"/>
 </g>
 <path d="m41.719 10.5c-4.578 0-8.25 3.119-8.25 7v477c0 3.881 3.672 7 8.25 7h428.56c4.578 0 8.25-3.119 8.25-7v-348.06l-135.97-135.94z" fill="#924565" filter="url(#c)"/>
 <path id="j" d="m478.53 146.44l-135.97-135.94v128.94c0 3.881 3.672 7 8.25 7z" fill="#ffffff" fill-opacity=".196" filter="url(#d)"/>
 <use filter="url(#e)" height="1" width="1" xlink:href="#j"/>
 <path d="m345.03 144.56l133.5 129.38v-127.5h-127.72c-2.185 0-4.154-.71-5.625-1.875h-.156" fill-opacity=".196" filter="url(#f)"/>
 <path d="m81.13 174.38v20.571h34.654v-20.571zm0 31v20.571h34.654v-20.571zm45.09 0v20.571h34.654v-20.571zm252.03 0c .328 6.862.591 13.704.75 20.571h8.541v-20.571zm-297.12 31v20.571h34.654v-20.571zm45.09 0v20.571h34.654v-20.571zm45.09 0v20.571h30.742c-1.076-6.727-.568-13.961 1.597-20.571h-32.34m207.89 0c .09 6.847.108 13.721.098 20.571h8.248v-20.571zm17.02 0v20.571h34.654v-20.571zm-315.08 31v20.571h34.654v-20.571zm45.09 0v20.571h34.654v-20.571zm45.09 0v20.571h30.807v-20.571zm149.96 0l-14.67 3.521v17.05h34.426v-20.571zm57.996 0c-.043 6.86-.12 13.71-.196 20.571h8.476v-20.571zm16.952 0v20.571h34.654v-20.571zm-100.05 6.03l-34.654 8.346v6.194h34.654zm-215.03 24.972v20.571h34.654v-20.571zm45.09 0v20.571h34.654v-20.571zm45.09 0v20.571h30.807v-20.571zm68.982 0l-.098 20.571h10.888v-20.571h-10.791m21.22 0v20.571h34.654v-20.571zm45.09 0v20.571h34.426v-20.571zm72.37 0c-.075 6.858-.124 13.714-.163 20.571h8.737v-20.571zm17.245 0v20.571h34.654v-20.571z" fill="#ffffff" filter="url(#g)" opacity=".69"/>
 <path d="m81.17 327.34v20.571h34.654v-20.571zm45.09 0v20.571h34.654v-20.571zm45.09 0v20.571h30.775v-20.571zm68.819 0l-.098 20.571h10.986v-20.571zm21.32 0v20.571h34.654v-20.571zm45.09 0v16.496c11.03-3.916 23.21-4.936 34.458-2.706v-13.79zm72.21 0c-.007 3.859-.021 7.715 0 11.573-.272 2.986-.376 5.987-.359 8.998h9.128v-20.571zm17.408 0v20.571h34.654v-20.571zm-315.02 31v20.571h34.654v-20.571zm45.09 0v20.571h32.633c.659-.353 1.348-.681 2.02-1.01v-19.56h-34.654m45.09 0v15.55c10.01-2.91 20.733-3.499 30.775-1.467v-14.08h-30.775m90.14 0v20.571h10.595c.172-.991.378-1.978.652-2.967 2.348-6.768 6.129-12.651 10.888-17.604h-22.14m117.26 0c .322 6.897.659 13.781.033 20.571h8.769v-20.571zm17.441 0v20.571h34.654v-20.571zm-315.02 31v20.571h34.654v-20.571zm45.09 0v20.571h6.976c.192-1.043.411-2.089.717-3.13 2.41-6.697 6.21-12.532 10.986-17.441h-18.68m250.66 0c-.103.361-.214.716-.326 1.076-3.277 7.815-8.443 14.347-14.8 19.495h25.754v-20.571zm19.267 0v20.571h34.654v-20.571zm-269.93 31v20.571h17.311c-5.498-5.672-9.339-12.885-10.497-20.571h-6.813m226.64 0v20.571h34.654v-20.571z" fill="url(#a)" filter="url(#h)"/>
 <g filter="url(#i)">
  <path d="m357.97 194.22l-128.06 29.813c-9.621 2.32-17.375 11.537-17.375 20.5v142.13c-9.756-4.597-22.292-6.475-35.28-3.438-23.44 5.48-38.12 23.2-33.09 39.563 1.183 3.853 3.357 7.294 6.313 10.25l.938.906 67.56 67.56h251.31c4.578 0 8.25-3.119 8.25-7v-183.34l-113.34-113.34c-1.882-1.882-4.394-3.165-7.219-3.594" opacity=".25"/>
  <path d="m357.97 194.23l-128.07 29.789c-9.621 2.32-17.366 11.548-17.366 20.51v142.11c-9.756-4.597-22.285-6.456-35.27-3.418-23.44 5.48-38.13 23.19-33.1 39.556 5.02 16.363 28.12 25.503 51.55 20.02 18.7-4.372 31.59-16.744 33.646-29.789l.542-134.29 121.56-29.3v105.97c-9.756-4.597-22.285-6.455-35.27-3.418-23.44 5.481-38.13 23.19-33.1 39.556 5.02 16.363 28.12 25.503 51.55 20.02 18.7-4.372 31.591-16.743 33.646-29.789l.542-174.83c0-6.722-4.616-11.751-10.854-12.697" fill="#ffffff"/>
 </g>
</svg>
