<svg viewBox="0 0 48 48" xmlns="http://www.w3.org/2000/svg">
 <path d="m8 1c-1.029 0-2 .971-2 2v42c0 .971 1.029 2 2 2h32c .971 0 2-1.029 2-2v-31l-13-13z" fill="#c1c1c1"/>
 <path d="m29 12l .063.063.156-.063zm2 2l11 11v-11z" fill-opacity=".196"/>
 <path d="m29 1l13 13h-11c-.971 0-2-1.029-2-2z" fill="#ffffff" fill-opacity=".392"/>
 <path d="m28.643 17c-2.959 0-5.357 2.398-5.357 5.357 0 .925.235 1.797.647 2.556.002.002-.002.009 0 .011l-9.933 9.933v2.143h2.143l.714-.714v-1.429h1.429l.714-.714h1.429l.714-.714v-1.429l.714-.714h1.429v-1.429l2.79-2.79c.003.002.008-.002.011 0 .759.412 1.631.647 2.556.647 2.959 0 5.357-2.398 5.357-5.357v-.022c-.01-2.952-2.405-5.335-5.357-5.335zm1.071 2.857c.787 0 1.426.641 1.429 1.429 0 .789-.64 1.429-1.429 1.429-.789 0-1.429-.64-1.429-1.429 0-.789.64-1.429 1.429-1.429z" fill="#c1c1c1"/>
</svg>
