<svg viewBox="0 0 48 48" xmlns="http://www.w3.org/2000/svg">
 <path d="m8 1c-1.029 0-2 .971-2 2v42c0 .971 1.029 2 2 2h32c .971 0 2-1.029 2-2v-31l-13-13z" fill="#c1c1c1"/>
 <path d="m29 12l .063.063.156-.063zm2 2l11 11v-11z" fill-opacity=".196"/>
 <path d="m29 1l13 13h-11c-.971 0-2-1.029-2-2z" fill="#ffffff" fill-opacity=".392"/>
 <g fill="#ffffff" transform="matrix(.53367457 0 0 .5335119 11.192071 11.191446)">
  <path d="m27.08 9.641l-3.609 10.152 14.234-2.363c-2.102-3.992-5.984-6.93-10.625-7.789m0 0"/>
  <path d="m38.15 19.449l-10.738 1.988 9.199 10.98c2.457-3.797 3.09-8.586 1.527-12.969m.012 0"/>
  <path d="m35.07 33.809l-7.121-8.164-5.05 13.344c4.566.195 9.09-1.656 12.156-5.18m.012 0"/>
  <path d="m20.922 38.36l3.617-10.152-14.242 2.363c2.109 3.996 5.996 6.934 10.625 7.789m0 0"/>
  <path d="m9.852 28.559l10.734-1.988-9.199-10.98c-2.453 3.801-3.09 8.586-1.527 12.969m-.008 0"/>
  <path d="m12.926 14.207l7.121 8.164 5.05-13.344c-4.563-.195-9.09 1.656-12.152 5.18m-.016 0"/>
 </g>
 <path d="m6 35v10c0 .971 1.029 2 2 2h32c .971 0 2-1.029 2-2v-10z" fill-opacity=".196"/>
 <path d="m16.468 43.637q.06.013.131.013.072 0 .131 0 .501 0 .835-.202.346-.202.549-.555.215-.353.298-.833.095-.492.095-1.073 0-.505-.072-.984-.072-.479-.251-.845-.179-.366-.489-.58-.31-.227-.8-.227-.095 0-.215.013-.119 0-.215.025v5.249zm3.532-2.65q0 1.085-.263 1.855-.251.757-.704 1.237-.453.479-1.086.707-.621.215-1.372.215-.394 0-.776-.05-.37-.038-.8-.139v-7.621q.501-.114.943-.151.442-.038.823-.038.728 0 1.325.227.609.227 1.026.719.418.479.644 1.237.239.744.239 1.804" fill="#ffffff"/>
 <path d="m24.04 45q-1.482 0-2.262-1.04-.781-1.04-.781-2.96 0-.954.238-1.697.238-.743.656-1.251.43-.52 1.01-.78.588-.272 1.278-.272.373 0 .667.074.305.062.532.149.226.087.373.186.158.099.238.149l-.362 1.214q-.26-.186-.633-.31-.362-.136-.837-.136-.328 0-.645.136-.305.124-.554.433-.238.297-.396.805-.147.508-.147 1.263 0 1.313.407 2.02.419.693 1.357.693.543 0 .894-.136.362-.136.577-.272l.351 1.201q-.294.198-.803.372-.498.161-1.154.161z" fill="#ffffff"/>
 <path d="m28.839 37q .609 0 1.103.153.494.153.851.473.356.319.54.818.195.486.195 1.15 0 .69-.253 1.252-.253.562-.839.856.195.332.414.741.218.396.425.843.207.435.391.882.195.435.333.831h-1.483q-.264-.767-.621-1.47-.345-.716-.747-1.444h-.736v2.914h-1.414v-7.796q.207-.051.448-.089.253-.051.506-.064.253-.026.483-.038.23-.013.402-.013zm1.253 2.581q0-.626-.345-.92-.345-.294-.908-.294-.08 0-.195.013-.115 0-.23.026v2.377h.31q.724 0 1.046-.307.322-.319.322-.895z" fill="#ffffff"/>
</svg>
