<svg viewBox="0 0 48 48" xmlns="http://www.w3.org/2000/svg">
 <path d="m8 1c-1.029 0-2 .971-2 2v42c0 .971 1.029 2 2 2h32c .971 0 2-1.029 2-2v-31l-13-13z" fill="#c1c1c1"/>
 <path d="m29 12l .063.063.156-.063zm2 2l11 11v-11z" fill-opacity=".196"/>
 <path d="m29 1l13 13h-11c-.971 0-2-1.029-2-2z" fill="#ffffff" fill-opacity=".392"/>
 <g fill="#ffffff" transform="matrix(.53367457 0 0 .5335119 11.192071 11.191446)">
  <path d="m27.08 9.641l-3.609 10.152 14.234-2.363c-2.102-3.992-5.984-6.93-10.625-7.789m0 0"/>
  <path d="m38.15 19.449l-10.738 1.988 9.199 10.98c2.457-3.797 3.09-8.586 1.527-12.969m.012 0"/>
  <path d="m35.07 33.809l-7.121-8.164-5.05 13.344c4.566.195 9.09-1.656 12.156-5.18m.012 0"/>
  <path d="m20.922 38.36l3.617-10.152-14.242 2.363c2.109 3.996 5.996 6.934 10.625 7.789m0 0"/>
  <path d="m9.852 28.559l10.734-1.988-9.199-10.98c-2.453 3.801-3.09 8.586-1.527 12.969m-.008 0"/>
  <path d="m12.926 14.207l7.121 8.164 5.05-13.344c-4.563-.195-9.09 1.656-12.152 5.18m-.016 0"/>
 </g>
 <path d="m6 35v10c0 .971 1.029 2 2 2h32c .971 0 2-1.029 2-2v-10z" fill-opacity=".196"/>
 <path d="m16.839 37q .609 0 1.103.153.494.153.851.473.356.319.54.818.195.486.195 1.15 0 .69-.253 1.252-.253.562-.839.856.195.332.414.741.218.396.425.843.207.435.391.882.195.435.333.831h-1.483q-.264-.767-.621-1.47-.345-.716-.747-1.444h-.736v2.914h-1.414v-7.796q.207-.051.448-.089.253-.051.506-.064.253-.026.483-.038.23-.013.402-.013zm1.253 2.581q0-.626-.345-.92-.345-.294-.908-.294-.08 0-.195.013-.115 0-.23.026v2.377h.31q.724 0 1.046-.307.322-.319.322-.895z" fill="#ffffff"/>
 <path d="m24.01 39.83q.044.246.132.607.088.362.187.801.11.439.231.943.132.504.253 1.034 0-.672-.011-1.435-.011-.775-.022-1.577-.011-.801-.022-1.616-.011-.827-.011-1.59h1.256q-.033.982-.066 2.029-.033 1.034-.077 2.068-.044 1.021-.11 2.02-.055.995-.132 1.887h-1.123q-.242-.814-.485-1.745-.242-.943-.485-1.796-.242.814-.507 1.771-.264.956-.485 1.771h-1.123q-.088-.892-.154-1.887-.066-1.01-.121-2.029-.044-1.034-.077-2.068-.033-1.047-.055-2.02h1.256q-.011.763-.022 1.577-.011.814-.022 1.628-.011.801-.022 1.577-.011.763-.011 1.435.099-.414.22-.905.132-.491.242-.969.121-.478.22-.879.099-.401.154-.633h.991z" fill="#ffffff"/>
 <path d="m31.666 39.24q0 .404-.143.784-.143.367-.382.72-.239.354-.537.682-.298.329-.609.632-.155.152-.358.367-.203.202-.382.43-.179.215-.31.442-.119.227-.119.417h3.174v1.289h-4.821q-.036-.126-.036-.316.012-.19.012-.265 0-.632.215-1.163.227-.531.561-.973.346-.455.728-.834.394-.392.728-.746.346-.354.561-.682.227-.329.227-.67 0-.48-.274-.733-.274-.265-.692-.265-.346 0-.728.177-.382.177-.752.594l-.728-1.087q.477-.531 1.098-.784.632-.253 1.253-.253.453 0 .871.139.418.139.74.417.322.278.513.708.191.417.191.973z" fill="#ffffff"/>
</svg>
