<svg viewBox="0 0 48 48" xmlns="http://www.w3.org/2000/svg">
 <path d="m8 1c-1.029 0-2 .971-2 2v42c0 .971 1.029 2 2 2h32c .971 0 2-1.029 2-2v-31l-13-13z" fill="#c1c1c1"/>
 <path d="m29 12l .063.063.156-.063zm2 2l11 11v-11z" fill-opacity=".196"/>
 <path d="m29 1l13 13h-11c-.971 0-2-1.029-2-2z" fill="#ffffff" fill-opacity=".392"/>
 <g fill="#ffffff" transform="matrix(.53367457 0 0 .5335119 11.192071 11.191446)">
  <path d="m27.08 9.641l-3.609 10.152 14.234-2.363c-2.102-3.992-5.984-6.93-10.625-7.789m0 0"/>
  <path d="m38.15 19.449l-10.738 1.988 9.199 10.98c2.457-3.797 3.09-8.586 1.527-12.969m.012 0"/>
  <path d="m35.07 33.809l-7.121-8.164-5.05 13.344c4.566.195 9.09-1.656 12.156-5.18m.012 0"/>
  <path d="m20.922 38.36l3.617-10.152-14.242 2.363c2.109 3.996 5.996 6.934 10.625 7.789m0 0"/>
  <path d="m9.852 28.559l10.734-1.988-9.199-10.98c-2.453 3.801-3.09 8.586-1.527 12.969m-.008 0"/>
  <path d="m12.926 14.207l7.121 8.164 5.05-13.344c-4.563-.195-9.09 1.656-12.152 5.18m-.016 0"/>
 </g>
 <path d="m6 35v10c0 .971 1.029 2 2 2h32c .971 0 2-1.029 2-2v-10z" fill-opacity=".196"/>
 <path d="m19.331 45q-.238-.659-.59-1.46-.339-.801-.715-1.603-.364.763-.728 1.59-.364.814-.628 1.473h-1.669q.126-.349.364-.84.251-.491.54-1.06.301-.569.628-1.163.326-.607.628-1.163l-2.033-3.774h1.669l1.23 2.559 1.293-2.559h1.556l-1.983 3.735q.339.556.665 1.163.326.607.603 1.189.289.569.502 1.073.213.491.339.84h-1.669z" fill="#ffffff"/>
 <path d="m24.1 45q-.28 0-.598-.05-.305-.037-.598-.099-.28-.062-.524-.136-.244-.074-.378-.136l.293-1.276q.28.124.72.26.451.136 1.073.136.768 0 1.073-.334.317-.334.317-.83 0-.607-.476-.842-.476-.248-1.207-.248h-.463v-1.263h.561q.232 0 .463-.05.232-.05.415-.161.183-.111.293-.297.122-.186.122-.471 0-.421-.256-.656-.244-.248-.683-.248-.427 0-.854.149-.415.136-.72.347l-.537-1.115q.329-.223.866-.446.549-.235 1.232-.235.634 0 1.098.161.476.161.78.458.305.285.451.681.146.396.146.854 0 .458-.256.879-.256.421-.683.644.585.248.902.731.329.483.329 1.152 0 .533-.171.978-.171.446-.524.78-.354.322-.902.508-.549.173-1.305.173z" fill="#ffffff"/>
 <path d="m28 45v-8h5v1.318h-3.377v1.682h2.955v1.375h-2.955v3.625z" fill="#ffffff"/>
</svg>
