<svg height="48" viewBox="0 0 48 48" width="48" xmlns="http://www.w3.org/2000/svg">
 <path d="m8 1c-1.0285715 0-2 .9714285-2 2v42c0 .971429 1.0285714 2 2 2h32c .971429 0 2-1.028571 2-2v-31l-13-13z" fill="#c1c1c1"/>
 <path d="m29 12l .0625.0625.15625-.0625zm2 2l11 11v-11z" fill-opacity=".196"/>
 <path d="m29 1l13 13h-11c-.971429 0-2-1.028571-2-2z" fill="#ffffff" fill-opacity=".392"/>
 <g fill="#ffffff">
  <path d="m36.943886 6.7968089c-.157078.077222-.296498.3277294-.432188.7348984-.361839 1.085785-2.90791 8.5865417-17.33072 8.9484697-6.882345.171188-9.8106568-5.879187-9.8106568-5.879187l-.1728749 7.781278c0 0 .7397713 1.734074-.7347189 3.544803-.080149-.125279-.1280644-.267042-.2160937-.389063-.5306959-.735619-1.1528177-1.354607-1.8151876-1.815632-.761065-.529719-1.5526984-.879464-2.3338127-.994274-.9005432-.132364-1.7715733.0627-2.4634688.561981-.69210616.499428-1.09501379 1.264576-1.25334389 2.161466-.13725792.777524-.0896357 1.618044.17287499 2.5073.22849391.774024.5932276 1.55551 1.1236876 2.291155.5603944.777156 1.258548 1.465348 1.9880627 1.945319.8227411.541308 1.6949827.858408 2.5499063.907816.2645554.01529.5348545-.04961.7779375-.08646 5.5372972 4.390835 16.5282672 8.488388 23.8135332 3.804181.157588.05364.316997.118164.475406.172917.0039.075-.01968.149333 0 .216147l.34575-.129688c.06152.01956.110043.06801.172875.08646.01346.004.02968-.0039.04322 0l .129657.129687 3.284625 1.167192c-.13475 1.140796.429353 2.435897 1.858407 2.982823 2.573572.984956 4.970156 2.247925 4.970156 2.247925-1.227624-4.168174-1.675536-7.513794-4.883719-7.219297-.596913.0548-1.047941.299617-1.383.64844l-2.895657-1.85886h-.129656l-.04322-.04323c3.899384-3.8385 6.1796-11.05294 4.797282-23.603209-.08-.627178-.343267-.9500602-.605062-.8213571z" transform="matrix(.47869 0 0 .48595 13.85359 19.7107)"/>
  <path d="m18 1v4h4v-4zm0 4h-4v4h4zm0 4v4h4v-4zm-4 6v8h8v-8h-4z"/>
 </g>
</svg>
