<svg viewBox="0 0 48 48" xmlns="http://www.w3.org/2000/svg">
 <path d="m8 1c-1.029 0-2 .971-2 2v42c0 .971 1.029 2 2 2h32c .971 0 2-1.029 2-2v-31l-13-13z" fill="#c1c1c1"/>
 <path d="m29 12l .063.063.156-.063zm2 2l11 11v-11z" fill-opacity=".196"/>
 <path d="m29 1l13 13h-11c-.971 0-2-1.029-2-2z" fill="#ffffff" fill-opacity=".392"/>
 <path d="m13 22.285l1 13.01 9.996 6.256 9.996-6.256 1-13.01-11-3.593m0 2.105l7.152 2.334-7.152 3.166-7.15-3.164m-1.666 1.451l7.816 3.459v10.521l-7.08-4.432m16.896-9.549l-.736 9.549-7.08 4.432v-10.521" fill="#c1c1c1"/>
</svg>
