<svg height="16" width="16" xmlns="http://www.w3.org/2000/svg">
 <g fill="#c1c1c1" transform="matrix(.84377011 0 0 .84377011 -387.437 -163.76233)">
  <path d="m464.5 203.01c-1.9212 0-3.5034 1.5501-3.5034 3.4712 0 1.9212 1.5822 3.5034 3.5034 3.5034 1.9212 0 3.5034-1.5822 3.5034-3.5034 0-1.9212-1.5822-3.4712-3.5034-3.4712z"/>
  <path d="m472.5 203.01c-1.9212 0-3.5034 1.5501-3.5034 3.4712 0 1.9212 1.5822 3.5034 3.5034 3.5034 1.9212 0 3.5034-1.5822 3.5034-3.5034 0-1.9212-1.5822-3.4712-3.5034-3.4712zm0 1.9928c.84027 0 1.5106.63823 1.5106 1.4785 0 .84027-.67037 1.5106-1.5106 1.5106-.84027 0-1.5106-.67036-1.5106-1.5106 0-.84027.67037-1.4785 1.5106-1.4785z"/>
  <path d="m466 197h2v9.5157003h-2z"/>
  <path d="m474 197h2v9.5627003h-2z"/>
  <path d="m466 197h10v2h-10z"/>
 </g>
</svg>
