<svg viewBox="0 0 512 512" xmlns="http://www.w3.org/2000/svg">
 <filter id="a" color-interpolation-filters="sRGB">
  <feColorMatrix values="0.21 0.72 0.072 0 0 0.21 0.72 0.072 0 0 0.21 0.72 0.072 0 0 0 0 0 1 0"/>
 </filter>
 <filter id="b" color-interpolation-filters="sRGB">
  <feColorMatrix values="0.21 0.72 0.072 0 0 0.21 0.72 0.072 0 0 0.21 0.72 0.072 0 0 0 0 0 1 0"/>
 </filter>
 <filter id="c" color-interpolation-filters="sRGB">
  <feColorMatrix values="0.21 0.72 0.072 0 0 0.21 0.72 0.072 0 0 0.21 0.72 0.072 0 0 0 0 0 1 0"/>
 </filter>
 <filter id="d" color-interpolation-filters="sRGB">
  <feColorMatrix values="0.21 0.72 0.072 0 0 0.21 0.72 0.072 0 0 0.21 0.72 0.072 0 0 0 0 0 1 0"/>
 </filter>
 <filter id="e" color-interpolation-filters="sRGB">
  <feColorMatrix values="0.21 0.72 0.072 0 0 0.21 0.72 0.072 0 0 0.21 0.72 0.072 0 0 0 0 0 1 0"/>
 </filter>
 <filter id="f" color-interpolation-filters="sRGB">
  <feColorMatrix values="0.21 0.72 0.072 0 0 0.21 0.72 0.072 0 0 0.21 0.72 0.072 0 0 0 0 0 1 0"/>
 </filter>
 <g fill-opacity=".078" filter="url(#a)">
  <path d="m66.61 0c-4.047 0-7.299 3.253-7.299 7.299v497.4c0 4.047 3.253 7.299 7.299 7.299h378.79c4.047 0 7.299-3.253 7.299-7.299v-359.46l-145.21-145.24h-240.88"/>
  <path d="m69.2 3.5c-3.991 0-7.2 3.208-7.2 7.2v490.6c0 3.991 3.208 7.2 7.2 7.2h373.61c3.991 0 7.2-3.208 7.2-7.2v-354.55l-143.22-143.25z"/>
  <path d="m71.786 7c-3.936 0-7.1 3.164-7.1 7.1v483.8c0 3.936 3.164 7.1 7.1 7.1h368.43c3.936 0 7.1-3.164 7.1-7.1v-349.63l-141.24-141.27z"/>
 </g>
 <path d="m74.38 10.5c-3.881 0-7 3.119-7 7v477c0 3.881 3.119 7 7 7h363.25c3.881 0 7-3.119 7-7v-344.72l-139.25-139.28z" fill="#79c943" filter="url(#b)"/>
 <path d="m308.78 148.78c4.487 5.957 11.24 10.578 16.06 16.313 39.915 39.949 79.85 79.881 119.78 119.81v-135.12h-132.25c-1.321 0-2.542-.37-3.594-1" fill-opacity=".235" filter="url(#c)"/>
 <path d="m444.62 149.78l-139.25-139.28v132.28c0 3.881 3.119 7 7 7z" fill="#ffffff" fill-opacity=".196" filter="url(#d)"/>
 <path d="m224.38 178.56v132.63h-36.813c28.675 28.721 57.41 57.38 86.06 86.13-47.24.993-86.73 2.848-133.72 6.5-19.222 8.685-25.707 21.92-16.5 36.5 20.559 19.936 41.35 40.535 62.03 61.19h252.19c3.881 0 7-3.119 7-7v-158.94c-53.781-53.768-106-105.94-157.03-156.97-19.773 1.263-42.13 1.648-63.22-.031" fill-opacity=".235" filter="url(#e)"/>
 <g filter="url(#f)" transform="translate(0 77.983)">
  <path d="m187.58 233.22l68.41 68.44 68.44-68.44h-136.84" fill="#fff8eb"/>
  <g fill="#ffffff">
   <path d="m224.38 100.59h63.25v150.34h-63.25z"/>
   <path d="m141 319.34c-13.85 0-25 11.15-25 25s11.15 25 25 25h230c13.85 0 25-11.15 25-25s-11.15-25-25-25zm3.781 11.125h222.44c7.678 0 13.844 6.197 13.844 13.875s-6.165 13.844-13.844 13.844h-222.44c-7.678 0-13.844-6.165-13.844-13.844 0-7.678 6.165-13.875 13.844-13.875"/>
   <path d="m129.43 324.34h135.99v37.966h-135.99z"/>
  </g>
 </g>
</svg>
