<svg viewBox="0 0 48 48" xmlns="http://www.w3.org/2000/svg">
 <path d="m8 1c-1.029 0-2 .971-2 2v42c0 .971 1.029 2 2 2h32c .971 0 2-1.029 2-2v-31l-13-13z" fill="#c1c1c1"/>
 <path d="m29 12l .063.063.156-.063zm2 2l11 11v-11z" fill-opacity=".196"/>
 <path d="m29 1l13 13h-11c-.971 0-2-1.029-2-2z" fill="#ffffff" fill-opacity=".392"/>
 <g fill="#ffffff" transform="matrix(.83329861 0 0 .83329861 4.0004167 8.0035656)">
  <path d="m15.988 14.492c-3.766 4.04-2.852 11.574 2.031 16.828 4.887 5.25 11.898 6.227 15.66 2.184 3.762-4.04 2.852-11.578-2.035-16.824-4.887-5.254-11.898-6.23-15.66-2.187m3.414 1.68c2.957-3.18 8.03-2.488 11.781 1.543 3.75 4.03 4.635 9.875 1.674 13.05-2.953 3.18-8.275 2.488-12.02-1.539-3.75-4.03-4.391-9.871-1.438-13.05"/>
  <path d="m30.637 15.596h2.327c.351 0 .637.285.637.637v2.327c0 .351-.285.637-.637.637h-2.327c-.351 0-.637-.285-.637-.637v-2.327c0-.351.285-.637.637-.637m0 0"/>
  <path d="m13.277 20.402h4.647c.707 0 1.277.571 1.277 1.273v4.65c0 .703-.571 1.273-1.277 1.273h-4.647c-.707 0-1.277-.571-1.277-1.273v-4.65c0-.703.571-1.273 1.277-1.273m0 0"/>
  <path d="m32.05 28.802h3.097c.468 0 .851.379.851.848v3.1c0 .468-.382.848-.851.848h-3.097c-.468 0-.851-.379-.851-.848v-3.1c0-.468.382-.848.851-.848m0 0"/>
 </g>
</svg>
