<svg viewBox="0 0 48 48" xmlns="http://www.w3.org/2000/svg">
 <path d="m8 1c-1.029 0-2 .971-2 2v42c0 .971 1.029 2 2 2h32c .971 0 2-1.029 2-2v-31l-13-13z" fill="#c1c1c1"/>
 <path d="m29 12l .063.063.156-.063zm2 2l11 11v-11z" fill-opacity=".196"/>
 <path d="m29 1l13 13h-11c-.971 0-2-1.029-2-2z" fill="#ffffff" fill-opacity=".392"/>
 <path d="m6 35v10c0 .971 1.029 2 2 2h32c .971 0 2-1.029 2-2v-10z" fill-opacity=".196"/>
 <path d="m19.507 36.9c-.849 0-1.678.073-2.507.192v7.908h1.813v-2.814h.651c1.18 0 2.09-.207 2.73-.622.649-.422.974-1.103.974-2.041 0-.929-.318-1.597-.958-2-.639-.414-1.542-.621-2.702-.622zm.207 1.358c.482 0 .866.097 1.151.292.295.186.444.506.444.963 0 .482-.149.823-.444 1.026-.295.194-.732.292-1.313.292h-.739v-2.536c.314-.034.583-.027.901-.036z" fill="#ffffff"/>
 <path d="m18 14v19h2v-8h12l-5.5-4.5 5.5-4.5h-12v-2" fill="#ffffff"/>
 <path d="m27.505 36.9c-1.13 0-2.01.349-2.646 1.043-.635.685-.953 1.705-.953 3.059 0 1.354.305 2.376.918 3.07.624.685 1.525 1.029 2.698 1.029 1.141 0 2.024-.343 2.648-1.029.624-.694.936-1.716.936-3.07 0-1.354-.307-2.373-.921-3.059-.613-.694-1.507-1.043-2.68-1.043m0 1.36c.344 0 .689.07.894.214.204.144.36.339.468.585.118.245.194.536.226.875.043.33.065.687.065 1.068 0 .381-.022.736-.065 1.066-.032.33-.108.621-.226.875-.108.245-.27.441-.485.585-.204.144-.543.216-.876.216-.344 0-.689-.072-.894-.216-.204-.144-.364-.339-.483-.585-.108-.245-.183-.531-.226-.861-.032-.338-.05-.699-.05-1.079 0-.381.017-.738.05-1.068.043-.33.119-.618.226-.863.118-.254.278-.452.483-.596.204-.144.549-.214.894-.214z" fill="#ffffff"/>
</svg>
