<svg viewBox="0 0 512 512" xmlns="http://www.w3.org/2000/svg">
 <filter id="a" color-interpolation-filters="sRGB">
  <feColorMatrix values="0.21 0.72 0.072 0 0 0.21 0.72 0.072 0 0 0.21 0.72 0.072 0 0 0 0 0 1 0"/>
 </filter>
 <filter id="b" color-interpolation-filters="sRGB">
  <feColorMatrix values="0.21 0.72 0.072 0 0 0.21 0.72 0.072 0 0 0.21 0.72 0.072 0 0 0 0 0 1 0"/>
 </filter>
 <filter id="c" color-interpolation-filters="sRGB">
  <feColorMatrix values="0.21 0.72 0.072 0 0 0.21 0.72 0.072 0 0 0.21 0.72 0.072 0 0 0 0 0 1 0"/>
 </filter>
 <filter id="d" color-interpolation-filters="sRGB">
  <feColorMatrix values="0.21 0.72 0.072 0 0 0.21 0.72 0.072 0 0 0.21 0.72 0.072 0 0 0 0 0 1 0"/>
 </filter>
 <filter id="e" color-interpolation-filters="sRGB">
  <feColorMatrix values="0.21 0.72 0.072 0 0 0.21 0.72 0.072 0 0 0.21 0.72 0.072 0 0 0 0 0 1 0"/>
 </filter>
 <g fill-opacity=".078" filter="url(#a)">
  <path d="m66.61 0c-4.047 0-7.299 3.253-7.299 7.299v497.4c0 4.047 3.253 7.299 7.299 7.299h378.79c4.047 0 7.299-3.253 7.299-7.299v-359.46l-145.21-145.24h-240.88"/>
  <path d="m69.2 3.5c-3.991 0-7.2 3.208-7.2 7.2v490.6c0 3.991 3.208 7.2 7.2 7.2h373.61c3.991 0 7.2-3.208 7.2-7.2v-354.55l-143.22-143.25z"/>
  <path d="m71.786 7c-3.936 0-7.1 3.164-7.1 7.1v483.8c0 3.936 3.164 7.1 7.1 7.1h368.43c3.936 0 7.1-3.164 7.1-7.1v-349.63l-141.24-141.27z"/>
 </g>
 <path d="m74.37 10.5c-3.881 0-7 3.119-7 7v477c0 3.881 3.119 7 7 7h363.25c3.881 0 7-3.119 7-7v-344.72l-139.25-139.28z" fill="#f29643" filter="url(#b)"/>
 <path d="m444.62 149.78l-139.25-139.28v132.28c0 3.881 3.119 7 7 7z" fill="#ffffff" fill-opacity=".196" filter="url(#c)"/>
 <g fill-rule="evenodd" filter="url(#d)">
  <path d="m301.29 185.72c-.667.006-1.343.022-2.031.045l-.004-.004c-1.84.062-3.714.113-5.797.223l-.004-.002c-6.172 1.288-11.919 4.155-17.838 6.242l107.81 107.81c0 .003.001.006.002.01l-107.81-107.81c-9.157 3.592-17.96 9.731-21.738 19.06h-.002c-.947 2.068-5.096 8.776-7.246 11.818l.006.006c-4.03 4.698-9.136 8.551-14.27 11.926-1.694 1.01-3.301 2.111-4.871 3.33l-35.898-35.898c.043.043.082.091.125.135l-.135-.135c-4.01-4.01-9.127-6.693-15.637-7.121h-.002c-4.44.015-5.706.719-10.695 5.24l39.38 39.38v.006l-39.38-39.38c-3.343 3.03-5.569 4.059-11.04 5.463-6.528 1.601-13.488.491-19.609 3.342l62.36 62.36c-.001.004-.001.008-.002.012l-62.37-62.37c-2.93 1.717-6.467 6.95-7.246 10.703l.004.004c-.486 2.354.277 4.691 2 6.42v.002c.004.004.009.008.014.012l17.932 17.936c-2.475 5.918-5.482 11.146-5.236 17.875l.002.002c-.411 10.09.873 18.437 1.561 28.314l48.754 48.754h-.004l-48.752-48.752c.908 12.11 9.654 18.532 15.719 28.652l.018.018c1.554 1.983 3.314 3.979 5.24 5.904l46.4 46.4c.507 3.939.862 8.654.861 11.557l16.633 16.633v.006l-16.639-16.639c-.001 2.919.578 6.57 1.338 9.588l.002.002c.495 1.968.582 4.03.781 10.703.135 4.505.371 8.907.557 9.809l.002.002c.631 3.054.493 5.542-.891 15.05l.002.002c-.586 4.02-2.62 11.377-4.01 14.492l8.545 8.545c-.005 0-.009.002-.014.002l-8.541-8.541c-.753 1.682-2.692 5.612-4.348 8.807l.004.004c-.136.263-.226.448-.33.658l.002.002h-.008l49.18 49.18h183.51c3.881 0 7-3.119 7-7v-179l-121.46-121.46c.031.031.061.064.092.096l-.092-.092c-2.324-2.324-4.889-4.36-8.08-5.602v.002c-4.862-2.278-9.111-2.76-13.795-2.721" opacity=".25"/>
  <path d="m299.25 185.76c-1.84.062-3.714.113-5.797.223-6.172 1.288-11.919 4.156-17.838 6.243-9.157 3.592-17.961 9.732-21.739 19.06-.947 2.068-5.097 8.775-7.247 11.817-4.03 4.699-9.135 8.553-14.27 11.929-6.376 3.792-11.578 8.798-17.838 17.17-6.326 8.697-6.877 16.254-10.03 26.09-4.865 5.145-8.707-1.952-7.469-6.912 2.977-12 8.327-22.828 7.581-35.564-1.843-16.771-8.753-39.16-28.652-40.469-4.447.014-5.71.716-10.703 5.24-3.343 3.03-5.568 4.059-11.04 5.463-6.531 1.605-13.496.493-19.621 3.345-2.93 1.717-6.467 6.95-7.246 10.703-.65 3.131.909 6.232 4.01 7.915 6.26 2.942 16.932.749 18.284 9.476-2.128 9.244-7.918 15.633-7.581 24.861-.412 10.09.873 18.438 1.561 28.317.908 12.11 9.654 18.532 15.719 28.652 9.13 11.652 25.335 23.822 40.915 19.06 5.408-1.748 7.573-1.439 9.588 1.449 1.375 1.971 1.566 3.786.78 8.138-.959 5.31-.949 15.4 0 21.07.703 4.201 1.227 10.589 1.226 14.159-.001 2.919.578 6.57 1.338 9.588.495 1.968.581 4.03.78 10.703.135 4.506.371 8.909.557 9.811.631 3.055.492 5.543-.892 15.05-.586 4.02-2.618 11.377-4.01 14.493-.753 1.682-2.692 5.612-4.348 8.807-.139.269-.228.456-.334.669.712-.043 1.53-.068 2.23-.111 5.521-.344 10.766-.809 15.942-1.226-1.638.11-3.266.209-4.905.334.812-3.998 1.615-8.275 1.784-11.26.159-2.807.543-6.03 1-8.25.417-2.01.834-5.369 1-7.469.399-4.935.784-6.368 3.122-11.371 1.063-2.276 2.267-5.28 2.676-6.689.714-2.463.734-2.941.669-10.145-.059-6.551.091-7.896.669-11.371 1.148-6.902 1.678-8.958 3.902-13.49 3.02-6.16 3.278-7.102 3.568-12.709.337-6.539 1.409-9.927 3.679-12.263 1.277-1.314 2.382-2.01 4.459-2.23.693-.074 1.519.002 2.453 0 3.934-.011 5.696.524 6.912 2.118 1.14 1.495 1.265 3.335.334 7.358-.417 1.802-.939 5.069-1.115 7.247-.385 4.771-1.217 7.484-3.345 11.26-2.712 4.813-2.784 5.237-2.787 13.267-.003 6.449.052 7.109.669 9.03.368 1.147 1.102 2.685 1.672 3.456 1.264 1.71 5.03 4.94 9.03 7.804 3.871 2.774 8.271 7.04 10.925 10.591 2.818 3.737 6.852 7.429 7.358 12.263.009 3.532-2.05 7.993-5.02 10.926-1.522 1.504-2.565 2.209-5.574 3.679-4.142 2.023-5.705 3.337-6.02 5.02-.121.644.104 1.142.334 1.672 7.371-.007 14.344.117 20.959.334 1.286-.951 2.298-2.176 3.122-3.902 1.13-2.367 2-3.552 3.121-3.456 1.122.096 2.406 1.515 4.125 4.125 1.153 1.751 2.245 2.981 3.344 3.902 2.505.148 5.077.267 7.47.446 1.375-1.292 2.302-3.486 2.787-6.801.289-1.976.278-2.871-.111-5.128-.894-5.179-2.123-7.192-5.797-10.257-1.241-1.035-2.594-2.382-3.01-3.01-1.106-1.67-1.453-3.882-1-6.02.548-2.605 3.093-7.224 6.02-11.148 2.622-3.516 4-5.711 6.132-9.811.799-1.536 1.986-3.043 3.79-4.905 1.446-1.492 3.03-3.58 3.567-4.571l.892-1.784v-10.145c-.036-7.232.382-14.244 1.338-21.405.792-8.588 3.837-15.365 8.03-22.743 2.396-4.949 3.521-6.355 5.574-6.355 2.754 0 4.429 3.049 5.24 9.476.928 6.308 3.997 11.706 5.909 17.726 1.166 4.288 1.998 6.216 4.682 11.594 2.547 5.103 4.692 10.795 5.351 14.27.349 1.839.444 4.389.446 9.699 0 7.822.262 10.939 1.226 14.939.733 3.04 1.092 11.753.78 17.615-.182 3.428-.25 3.874-2.118 9.365-2.74 8.05-3.369 10.406-3.902 14.493-.514 3.937-.861 4.89-2.676 8.807-.26.56-.379 1.044-.557 1.561 6.601 1.281 12.487 2.668 18.06 4.125.153-.298.357-.575.446-.892.699-3.119-.293-6.327-.111-9.476.439-.711-.599-5.769-2.341-11.148-2.771-8.556-2.983-9.921-1.561-15.719.247-1.01.631-4.356.78-7.469.287-5.98.556-7.485 2.118-11.371 1.401-3.485 1.813-5.02 2.01-8.584.225-4.141-.263-6.572-1.784-10.145-1.504-3.535-1.7-5.149-1-8.919.755-4.082.752-13.665 0-16.723-.748-3.041-1.13-14.07-1-28.21l1.561-17.28c2.404-9.35 3.869-12.709 5.797-12.709 1.767 0 3.428 2.889 4.571 8.138.699 4.868.346 9.866 1.226 14.716 1.14 6.696-.685 13.396-4.125 19.18-2.042 3.581-2.746 6.157-2.23 8.03.412 1.492 1.934 3.158 3.122 3.456.516.13 1.161-.077 1.895-.446.91-.457 1.834-1.596 5.02-6.355 2.158-3.226 4.213-6.634 4.571-7.581 2.968-13.02 3.089-22.627 1.449-35.452 0-8.33-1.153-11.45-6.912-17.726-10.776-13.422-16.999-25.2-23.19-41.03-2.134-3.546-5.244-7.849-7.581-10.48-3.641-4.097-5.814-8.156-7.804-14.27-2.869-7.281-5.326-15.883-9.588-22.19-4.01-4.494-7.754-9.431-13.601-11.706-5.556-2.604-10.312-2.862-15.831-2.676m-6.02 154.52c.439.029.853.288 1.338.669 1.369 1.077 1.696 2.29 2.453 10.48.395 4.275.907 9.635 1.226 11.929 1.408 10.124 1.631 13.295 1.226 16.723-.208 1.765-.421 5.404-.557 8.03-.385 7.389-1.431 10.664-5.463 17.615-1.23 2.121-2.739 4.859-3.345 6.132-1.205 2.533-2.498 4.237-3.79 4.905-1.268.656-2.927.537-4.571-.334-2.265-1.2-6.38-4.391-8.361-6.466-2.121-2.221-3.02-3.421-5.463-7.804-2.776-4.983-3.12-6.03-3.122-8.25 0-2.905 1.06-5.059 3.902-7.804 1.241-1.199 3.927-3.86 5.909-5.909 4.102-4.24 4.212-4.454 5.24-10.48.932-5.461.952-5.553 4.794-11.148 1.376-2 2.029-3.824 3.679-10.03 1.524-5.739 2.212-7.161 3.456-7.804.596-.308 1.01-.474 1.449-.446" fill="#ffffff"/>
 </g>
 <path d="m312.38 149.78l132.25 132.25v-132.25z" fill-opacity=".196" filter="url(#e)"/>
</svg>
