<svg height="48" viewBox="0 0 48 48" width="48" xmlns="http://www.w3.org/2000/svg">
 <path d="m8 1c-1.0285715 0-2 .9714285-2 2v42c0 .971429 1.0285714 2 2 2h32c .971429 0 2-1.028571 2-2v-31l-13-13z" fill="#c1c1c1"/>
 <path d="m29 12l .0625.0625.15625-.0625zm2 2l11 11v-11z" fill-opacity=".196"/>
 <path d="m29 1l13 13h-11c-.971429 0-2-1.028571-2-2z" fill="#ffffff" fill-opacity=".392"/>
 <path d="m1094.86 1079.59l156.43-625.629v312.812zm0 0l156.43 625.64v-312.81zm-938.454 0l-156.406 625.64v-312.81zm0 0l-156.406-625.629v312.812zm469.239-469.219l-625.645-156.41h312.812zm0 0l625.645-156.41h-312.833zm0 938.449l625.645 156.41h-312.833zm0 0l-625.645 156.41h312.812zm-625.645-1094.859l156.406 625.629 469.239-469.219zm1251.29 0l-625.645 156.41 469.215 469.219zm0 1251.269l-156.43-625.64-469.215 469.23zm-1251.29 0l625.645-156.41-469.239-469.23zm625.645-156.41l-469.239-469.23 469.239-469.219 469.215 469.219z" fill="#ffffff" transform="matrix(.01438515 0 0 -.01438515 15 42.530297)"/>
</svg>
