<svg viewBox="0 0 48 48" xmlns="http://www.w3.org/2000/svg">
 <path d="m8 1c-1.029 0-2 .971-2 2v42c0 .971 1.029 2 2 2h32c .971 0 2-1.029 2-2v-31l-13-13z" fill="#c1c1c1"/>
 <path d="m29 12l .063.063.156-.063zm2 2l11 11v-11z" fill-opacity=".196"/>
 <path d="m29 1l13 13h-11c-.971 0-2-1.029-2-2z" fill="#ffffff" fill-opacity=".392"/>
 <g fill="#ffffff" transform="translate(1)">
  <path d="m23 19c-6.629 0-12 3.582-12 8 0 3.482 3.342 6.436 8 7.535v-2.65c-2.417-1.088-4-2.868-4-4.885 0-3.313 4.254-6 9.5-6 5.246 0 9.5 2.688 9.5 6 0 2.592-2.61 4.794-6.256 5.633.293.483.586.965.877 1.434 3.794-1.344 6.379-4 6.379-7.07 0-4.418-5.371-8-12-8z"/>
  <path d="m20 23.004v14.996h3v-5h1l3 5h3l-3-5-.219-.344c1.875-.719 3.215-2.523 3.215-4.656 0-2.758-2.238-4.996-5-4.996m-1.996 3h1.996c1.105 0 2 .895 2 1.996 0 1.109-.898 2-2 2h-1.996v-4m0 .004"/>
 </g>
</svg>
