<svg viewBox="0 0 512 512" xmlns="http://www.w3.org/2000/svg">
 <filter id="a" color-interpolation-filters="sRGB">
  <feColorMatrix values="0.21 0.72 0.072 0 0 0.21 0.72 0.072 0 0 0.21 0.72 0.072 0 0 0 0 0 1 0"/>
 </filter>
 <filter id="b" color-interpolation-filters="sRGB">
  <feColorMatrix values="0.21 0.72 0.072 0 0 0.21 0.72 0.072 0 0 0.21 0.72 0.072 0 0 0 0 0 1 0"/>
 </filter>
 <filter id="c" color-interpolation-filters="sRGB">
  <feColorMatrix values="0.21 0.72 0.072 0 0 0.21 0.72 0.072 0 0 0.21 0.72 0.072 0 0 0 0 0 1 0"/>
 </filter>
 <filter id="d" color-interpolation-filters="sRGB">
  <feColorMatrix values="0.21 0.72 0.072 0 0 0.21 0.72 0.072 0 0 0.21 0.72 0.072 0 0 0 0 0 1 0"/>
 </filter>
 <g fill-opacity=".078" filter="url(#a)">
  <path d="m66.61 0c-4.047 0-7.299 3.253-7.299 7.299v497.4c0 4.047 3.253 7.299 7.299 7.299h378.79c4.047 0 7.299-3.253 7.299-7.299v-359.46l-145.21-145.24h-240.88"/>
  <path d="m69.2 3.5c-3.991 0-7.2 3.208-7.2 7.2v490.6c0 3.991 3.208 7.2 7.2 7.2h373.61c3.991 0 7.2-3.208 7.2-7.2v-354.55l-143.22-143.25z"/>
  <path d="m71.786 7c-3.936 0-7.1 3.164-7.1 7.1v483.8c0 3.936 3.164 7.1 7.1 7.1h368.43c3.936 0 7.1-3.164 7.1-7.1v-349.63l-141.24-141.27z"/>
 </g>
 <path d="m74.37 10.5c-3.881 0-7 3.119-7 7v477c0 3.881 3.119 7 7 7h363.25c3.881 0 7-3.119 7-7v-344.72l-139.25-139.28z" fill="#f37257" filter="url(#b)"/>
 <path d="m239.13 140.56v46.688l-41.31-41.31h-23.12l-31.5 89.59 36.25 36.25h-73.44v26.16l29.344 29.344h-29.344v26.19l29.344 29.344h-29.344v26.16l29.344 29.344h-29.344v26.16l37.03 37.03h294.59c3.881 0 7-3.119 7-7v-344.72h-132.25c-.364 0-.714-.041-1.063-.094-.12-.018-.226-.038-.344-.063-.209-.042-.424-.096-.625-.156-.239-.072-.46-.154-.688-.25-.137-.059-.273-.12-.406-.188-.153-.076-.293-.167-.438-.25l21.03 21.03c-2.69 1.409-5.069 3.22-7.125 5.406-4.333 4.577-7.04 10.704-8.125 18.375l-21.22-21.22c-2.634-2.634-5.712-4.434-9.25-5.438l-26.375-26.375h-18.625" fill-opacity=".235" filter="url(#c)"/>
 <g fill="#ffffff" filter="url(#d)">
  <path d="m444.62 149.78l-139.25-139.28v132.28c0 3.881 3.119 7 7 7z" fill-opacity=".196"/>
  <path d="m239.13 140.56v94.97h14.219l3.125-7.531h1.281c4.557 5.818 10.829 8.75 18.844 8.75 8.096 0 14.478-3.097 19.16-9.281 4.719-6.184 7.094-14.918 7.094-26.19 0-10.944-2.287-19.547-6.844-25.813-4.557-6.306-10.851-9.469-18.906-9.469-8.544 0-14.991 3.403-19.344 10.156h-.75c.488-6.184.75-10.693.75-13.5v-22.09h-18.625m-64.44 5.375l-31.5 89.59h20.375l6.469-21.25h32.531l6.469 21.25h20.406l-31.625-89.59h-23.12m11.656 13.844c.325 1.465.861 3.478 1.594 6 .773 2.522 4.144 13.382 10.125 32.625h-23.25c6.347-20.545 10.189-33.417 11.531-38.625m161.22 6.219c-10.781 0-19.07 3.076-24.844 9.219-5.777 6.103-8.656 14.968-8.656 26.563 0 23.312 10.607 34.969 31.844 34.969 4.679 0 8.574-.361 11.625-1.094 3.092-.732 6.114-2.057 9.125-3.969v-15.938c-3.051 2.034-6.074 3.524-9.125 4.5-3.051.936-6.389 1.406-9.969 1.406-9.683 0-14.531-6.656-14.531-20 0-13.751 4.848-20.625 14.531-20.625 2.522 0 5.04.383 7.563 1.156 2.522.732 5.258 1.695 8.188 2.875l5.5-14.406c-6.265-3.092-13.357-4.656-21.25-4.656m-76.47 14.906c3.946 0 7.07 1.686 9.344 5.063 2.278 3.336 3.406 8.35 3.406 15.06 0 6.713-1.128 11.836-3.406 15.375-2.238 3.499-5.269 5.25-9.09 5.25-4.719 0-8.178-1.577-10.375-4.75-2.156-3.173-3.219-8.427-3.219-15.75v-2c .081-6.509 1.166-11.161 3.281-13.969 2.116-2.848 5.465-4.281 10.06-4.281m-165.09 90.88v26.16h300v-26.16zm0 55.5v26.19h300v-26.19zm0 55.53v26.16h300v-26.16zm0 55.5v26.16h213.22v-26.16z"/>
 </g>
</svg>
