<svg viewBox="0 0 512 512" xmlns="http://www.w3.org/2000/svg" xmlns:xlink="http://www.w3.org/1999/xlink">
 <filter id="a" color-interpolation-filters="sRGB">
  <feColorMatrix values="0.21 0.72 0.072 0 0 0.21 0.72 0.072 0 0 0.21 0.72 0.072 0 0 0 0 0 1 0"/>
 </filter>
 <filter id="b" color-interpolation-filters="sRGB">
  <feColorMatrix values="0.21 0.72 0.072 0 0 0.21 0.72 0.072 0 0 0.21 0.72 0.072 0 0 0 0 0 1 0"/>
 </filter>
 <filter id="c" color-interpolation-filters="sRGB">
  <feColorMatrix values="0.21 0.72 0.072 0 0 0.21 0.72 0.072 0 0 0.21 0.72 0.072 0 0 0 0 0 1 0"/>
 </filter>
 <filter id="d" color-interpolation-filters="sRGB">
  <feColorMatrix values="0.21 0.72 0.072 0 0 0.21 0.72 0.072 0 0 0.21 0.72 0.072 0 0 0 0 0 1 0"/>
 </filter>
 <filter id="e" color-interpolation-filters="sRGB">
  <feColorMatrix values="0.21 0.72 0.072 0 0 0.21 0.72 0.072 0 0 0.21 0.72 0.072 0 0 0 0 0 1 0"/>
 </filter>
 <filter id="f" color-interpolation-filters="sRGB">
  <feColorMatrix values="0.21 0.72 0.072 0 0 0.21 0.72 0.072 0 0 0.21 0.72 0.072 0 0 0 0 0 1 0"/>
 </filter>
 <filter id="g" color-interpolation-filters="sRGB">
  <feColorMatrix values="0.21 0.72 0.072 0 0 0.21 0.72 0.072 0 0 0.21 0.72 0.072 0 0 0 0 0 1 0"/>
 </filter>
 <filter id="h" color-interpolation-filters="sRGB">
  <feColorMatrix values="0.21 0.72 0.072 0 0 0.21 0.72 0.072 0 0 0.21 0.72 0.072 0 0 0 0 0 1 0"/>
 </filter>
 <filter id="i" color-interpolation-filters="sRGB">
  <feColorMatrix values="0.21 0.72 0.072 0 0 0.21 0.72 0.072 0 0 0.21 0.72 0.072 0 0 0 0 0 1 0"/>
 </filter>
 <filter id="j" color-interpolation-filters="sRGB">
  <feColorMatrix values="0.21 0.72 0.072 0 0 0.21 0.72 0.072 0 0 0.21 0.72 0.072 0 0 0 0 0 1 0"/>
 </filter>
 <g fill-opacity=".078" filter="url(#a)">
  <path d="m32.563 0c-4.774 0-8.594 3.266-8.594 7.313v497.38c0 4.047 3.82 7.313 8.594 7.313h446.88c4.774 0 8.594-3.266 8.594-7.313v-360.03l-144.66-144.66h-310.81"/>
  <path d="m35.625 3.5c-4.709 0-8.5 3.196-8.5 7.188v490.62c0 3.991 3.791 7.188 8.5 7.188h440.75c4.709 0 8.5-3.196 8.5-7.188v-356.28l-141.53-141.53h-307.72"/>
  <path d="m38.688 7c-4.643 0-8.375 3.158-8.375 7.094v483.82c0 3.936 3.732 7.094 8.375 7.094h434.63c4.643 0 8.375-3.158 8.375-7.094v-352.62l-138.28-138.28h-304.72"/>
 </g>
 <path d="m41.719 10.5c-4.578 0-8.25 3.119-8.25 7v477c0 3.881 3.672 7 8.25 7h428.56c4.578 0 8.25-3.119 8.25-7v-348.06l-135.97-135.94z" fill="#b93d48" filter="url(#b)"/>
 <path d="m63.47 24.03v16.16h44.531v-16.16zm0 47.22v35.688h44.531v-35.688zm0 66.72v35.75h44.531v-35.75zm340.53 8.469v27.28h44.531v-27.28zm-340.53 58.28v35.75h44.531v-35.75zm340.53 0v35.75h44.531v-35.75zm-340.53 66.781v35.688h44.531v-35.688zm340.53 0v35.688h44.531v-35.688zm-340.53 66.781v35.656h44.531v-35.656zm340.53 0v35.656h44.531v-35.656zm-340.53 66.72v35.719h44.531v-35.719zm340.53 0v35.719h44.531v-35.719zm-340.53 66.75v16.219h44.531v-16.219zm340.53 0v16.219h44.531v-16.219z" fill="#ffffff" filter="url(#c)"/>
 <path d="m174.63 194.59c-22.467 0-40.563 18.06-40.563 40.531v108.41c0 7.971 9.776 17.931 16.16 32.25l136.72 125.72h183.34c4.578 0 8.25-3.119 8.25-7v-175.62l-112.44-112.44c-7.33-7.33-17.485-11.844-28.719-11.844h-162.75" filter="url(#d)" opacity=".25"/>
 <path d="m174.62 194.58h162.77c22.467 0 40.554 18.09 40.554 40.554v108.4c0 22.467-18.09 40.554-40.554 40.554h-162.77c-22.467 0-40.554-18.09-40.554-40.554v-108.4c0-22.467 18.09-40.554 40.554-40.554" fill="#ffffff" filter="url(#e)"/>
 <path d="m220.44 235.74a11.806 11.806 0 0 0 -11.094 11.812v83.56a11.806 11.806 0 0 0 17.875 10.125l69.72-41.781a11.806 11.806 0 0 0 0-20.25l-69.72-41.781a11.806 11.806 0 0 0 -5.5938-1.6875 11.806 11.806 0 0 0 -1.1875 0" fill="#b93d48" filter="url(#f)"/>
 <path id="k" d="m478.53 146.44l-135.97-135.94v128.94c0 3.881 3.672 7 8.25 7z" fill="#ffffff" fill-opacity=".196" filter="url(#g)"/>
 <path d="m478.53 146.44l-135.97-135.94 215.95 215.95 135.97 135.94z" fill-opacity=".196" filter="url(#h)"/>
 <use filter="url(#i)" height="1" width="1" xlink:href="#k"/>
 <path d="m345.03 144.56l133.5 129.38v-127.5h-127.72c-2.185 0-4.154-.71-5.625-1.875h-.156" fill-opacity=".196" filter="url(#j)"/>
</svg>
