<svg viewBox="0 0 48 48" xmlns="http://www.w3.org/2000/svg">
 <path d="m8 1c-1.029 0-2 .971-2 2v42c0 .971 1.029 2 2 2h32c .971 0 2-1.029 2-2v-31l-13-13z" fill="#c1c1c1"/>
 <path d="m29 12l .063.063.156-.063zm2 2l11 11v-11z" fill-opacity=".196"/>
 <path d="m29 1l13 13h-11c-.971 0-2-1.029-2-2z" fill="#ffffff" fill-opacity=".392"/>
 <path d="m6 35v10c0 .971 1.029 2 2 2h32c .971 0 2-1.029 2-2v-10z" fill-opacity=".196"/>
 <path d="m23.941 14.343c-1.149 4.391-2.342 8.773-3.512 13.156-1.828-5.05-.027-.024-1.827-5.05h-3.601v1.801h2.701l2.701 8.08.343.009c.918-4.25 2.159-8.429 3.284-12.625v-.016c.696 2.532 1.378 5.068 2.053 7.604.633-2.385 1.275-4.77 1.911-7.155 1.407 3.212-.027-.014 1.408 3.213h3.6l-.002-1.81h-2.701c-2.303-6.86 0 0-2.307-7.01-.636 2.368-1.277 4.734-1.913 7.098-.644-2.434-1.301-4.868-1.969-7.295l.002.002z" fill="#ffffff"/>
 <path d="m14.962 41q0 .557.047 1.053.063.483.22.842.173.359.471.57.298.211.8.211.487 0 .785-.211.314-.211.471-.57.173-.372.22-.854.063-.483.063-1.04 0-.557-.063-1.04-.047-.495-.22-.854-.157-.359-.455-.57-.298-.211-.8-.211-.502 0-.8.211-.298.211-.471.582-.157.359-.22.842-.047.483-.047 1.04m-1.962 0q0-1.981.926-2.985.926-1.015 2.574-1.015 1.711 0 2.605 1.015.895 1 .895 2.985 0 1.981-.91 2.997-.91 1-2.574 1-1.711 0-2.621-1-.895-1.015-.895-2.997" fill="#ffffff"/>
 <path d="m23.549 45q-.354-.892-.752-2.02-.398-1.124-.752-2.236-.354-1.124-.634-2.12-.28-.995-.413-1.628h1.916q.088.62.265 1.447.177.814.383 1.693.221.866.457 1.719.251.84.486 1.512.236-.659.472-1.499.236-.853.442-1.719.206-.879.383-1.706.177-.827.295-1.447h1.901q-.177.775-.442 1.732-.251.956-.589 2.02-.324 1.047-.722 2.145-.398 1.086-.825 2.107h-1.872z" fill="#ffffff"/>
 <path d="m29 45v-8h6v1.318h-4.053v1.523h3.546v1.318h-3.546v3.841z" fill="#ffffff"/>
</svg>
