<svg viewBox="0 0 48 48" xmlns="http://www.w3.org/2000/svg">
 <path d="m8 1c-1.029 0-2 .971-2 2v42c0 .971 1.029 2 2 2h32c .971 0 2-1.029 2-2v-31l-13-13z" fill="#c1c1c1"/>
 <path d="m29 12l .063.063.156-.063zm2 2l11 11v-11z" fill-opacity=".196"/>
 <path d="m29 1l13 13h-11c-.971 0-2-1.029-2-2z" fill="#ffffff" fill-opacity=".392"/>
 <path d="m6 35v10c0 .971 1.029 2 2 2h32c .971 0 2-1.029 2-2v-10z" fill-opacity=".196"/>
 <path d="m23.941 14.343c-1.149 4.391-2.342 8.773-3.512 13.156-1.828-5.05-.027-.024-1.827-5.05h-3.601v1.801h2.701l2.701 8.08.343.009c.918-4.25 2.159-8.429 3.284-12.625v-.016c.696 2.532 1.378 5.068 2.053 7.604.633-2.385 1.275-4.77 1.911-7.155 1.407 3.212-.027-.014 1.408 3.213h3.6l-.002-1.81h-2.701c-2.303-6.86 0 0-2.307-7.01-.636 2.368-1.277 4.734-1.913 7.098-.644-2.434-1.301-4.868-1.969-7.295l.002.002z" fill="#ffffff"/>
 <g fill="#ffffff" transform="translate(-1)">
  <path d="m14 45v-8h6v1.318h-4.141v1.682h3.31v1.233h-3.31v2.449h4.141v1.318z"/>
  <path d="m26.05 45q-.278-.659-.688-1.46-.395-.801-.835-1.603-.425.763-.849 1.59-.425.814-.732 1.473h-1.948q.146-.349.425-.84.293-.491.63-1.06.351-.569.732-1.163.381-.607.732-1.163l-2.372-3.774h1.948l1.435 2.559 1.508-2.559h1.816l-2.314 3.735q.395.556.776 1.163.381.607.703 1.189.337.569.586 1.073.249.491.395.84z"/>
  <path d="m36 37v1.318h-2.536v6.682h-1.929v-6.682h-2.536v-1.318h7z"/>
 </g>
</svg>
