<svg viewBox="0 0 48 48" xmlns="http://www.w3.org/2000/svg">
 <path d="m8 1c-1.029 0-2 .971-2 2v11 31c0 .971 1.029 2 2 2h32c .971 0 2-1.029 2-2v-31-11c0-1.029-.971-2-2-2h-11-10z" fill="#c1c1c1"/>
 <path d="m6 35v10c0 .971 1.029 2 2 2h32c .971 0 2-1.029 2-2v-10z" fill-opacity=".196"/>
 <g fill="#ffffff" transform="scale(1.05613 .94685)">
  <path d="m14.895 46.09c.044.009.093.013.147.013.053 0 .102 0 .147 0 .373 0 .684-.071.933-.213.258-.142.462-.338.613-.586.16-.249.271-.542.333-.88.071-.346.107-.724.107-1.133 0-.355-.027-.702-.08-1.039-.053-.338-.147-.635-.28-.893-.133-.258-.315-.462-.546-.613-.231-.16-.529-.24-.893-.24-.071 0-.151.004-.24.013-.089 0-.169.009-.24.027v5.544m3.945-2.799c0 .764-.098 1.417-.293 1.959-.187.533-.449.968-.786 1.306-.338.338-.742.586-1.213.746-.462.151-.973.227-1.533.227-.293 0-.582-.018-.866-.053-.275-.027-.573-.076-.893-.147v-8.05c.373-.08.724-.133 1.053-.16.329-.027.635-.04.92-.04.542 0 1.035.08 1.479.24.453.16.835.413 1.146.76.311.338.551.773.72 1.306.178.524.267 1.159.267 1.906"/>
  <path d="m22.18 39.08c1.048 0 1.861.218 2.439.653.577.426.866 1.128.866 2.106 0 .986-.293 1.701-.88 2.146-.577.435-1.399.653-2.465.653h-.586v2.785h-1.639v-8.143c.16-.036.338-.067.533-.093.204-.027.409-.044.613-.053.204-.018.404-.031.6-.04.195-.009.369-.013.52-.013m.187 1.426c-.098 0-.235.004-.413.013-.169 0-.302.009-.4.027v2.665h.666c.524 0 .92-.102 1.186-.307.267-.213.4-.573.4-1.079 0-.48-.133-.817-.4-1.013-.258-.204-.604-.306-1.039-.306"/>
  <path d="m32.19 39.17v1.359h-2.172v6.89h-1.652v-6.89h-2.172v-1.359h5.997"/>
 </g>
 <path d="m12 16h7v5h-7z" fill="#ffffff"/>
 <path d="m12 24h7v5h-7z" fill="#ffffff"/>
 <path d="m30 16v6h6c0-3.314-2.686-6-6-6z" fill="#ffffff"/>
 <path d="m29 17c-4 0-7 2.91-7 6.5 0 3.59 2.91 6.5 6.5 6.5 3.59 0 6.5-3 6.5-7h-6z" fill="#ffffff"/>
</svg>
