<svg viewBox="0 0 48 48" xmlns="http://www.w3.org/2000/svg">
 <path d="m8 1c-1.029 0-2 .971-2 2v42c0 .971 1.029 2 2 2h32c .971 0 2-1.029 2-2v-31l-13-13z" fill="#c1c1c1"/>
 <path d="m29 12l .063.063.156-.063zm2 2l11 11v-11z" fill-opacity=".196"/>
 <path d="m29 1l13 13h-11c-.971 0-2-1.029-2-2z" fill="#ffffff" fill-opacity=".392"/>
 <path d="m6 35v10c0 .971 1.029 2 2 2h32c .971 0 2-1.029 2-2v-10z" fill-opacity=".196"/>
 <g fill="#ffffff" transform="scale(1.06013 .94328)">
  <path d="m16.603 42.41c0 0 .699 2.196 1.024 3.318-.014-2.134-.068-4.3-.08-6.382h1.555c-.073 2.116-.194 4.253-.337 6.277-.045.674-.098 1.313-.161 1.917h-1.365c-.196-.551-.392-1.142-.589-1.772-.196-.639-.392-1.247-.589-1.825-.196.551-.401 1.151-.615 1.799-.214.648-.41 1.247-.589 1.799h-1.365c-.316-2.733-.441-5.512-.523-8.194h1.553c-.031 2.14-.08 4.293-.094 6.382.341-1.166 1.068-3.318 1.068-3.318"/>
  <path d="m22.332 39.32c.997 0 1.771.214 2.32.643.549.42.824 1.112.824 2.074 0 .972-.279 1.676-.837 2.114-.549.429-1.331.643-2.345.643h-.558v2.744h-1.521v-8.02c.152-.035.321-.066.507-.092.194-.026.35-.044.545-.053.194-.017.385-.031.571-.039.186-.009.351-.013.494-.013m.177 1.405c-.093 0-.224.004-.393.013-.161 0-.287.009-.38.026v2.626h.634c.499 0 .875-.101 1.128-.302.254-.21.38-.565.38-1.063 0-.473-.127-.805-.38-.998-.245-.201-.575-.302-.989-.302"/>
  <path d="m29.08 46.35c.271 0 .495-.026.67-.079.184-.061.328-.14.433-.236.105-.105.175-.219.21-.341.044-.131.066-.263.066-.394 0-.166-.048-.315-.144-.446-.096-.131-.219-.245-.368-.341-.149-.105-.315-.197-.499-.276-.184-.088-.368-.166-.551-.236-.245-.088-.499-.188-.761-.302-.263-.114-.503-.258-.722-.433-.21-.175-.385-.389-.525-.643-.14-.263-.21-.586-.21-.972 0-.761.245-1.357.735-1.785.499-.429 1.182-.643 2.048-.643.499 0 .932.057 1.3.171.376.114.691.241.945.381l-.473 1.247c-.219-.123-.464-.228-.735-.315-.263-.088-.569-.131-.919-.131-.858 0-1.287.311-1.287.932 0 .158.044.298.131.42.088.114.197.219.328.315.14.088.293.166.459.236.175.07.346.136.512.197.254.096.516.206.788.328.28.114.534.271.761.473.236.193.429.438.578.735.149.289.223.656.223 1.103 0 .761-.249 1.352-.748 1.772-.49.411-1.238.617-2.245.617-.674 0-1.212-.07-1.615-.21-.403-.149-.705-.284-.906-.407l.473-1.313c.236.14.516.271.84.394.333.123.735.184 1.208.184"/>
 </g>
 <rect fill="#c1c1c1" height="7" rx=".579" ry=".601" width="8" x="15" y="16"/>
 <path d="m25.5 16.5h6" fill="#c1c1c1" stroke="#f9f9f9" stroke-dashoffset=".774" stroke-linecap="round" stroke-linejoin="round"/>
 <path d="m15.5 25.5h16" fill="#c1c1c1" stroke="#f9f9f9" stroke-dashoffset=".774" stroke-linecap="round" stroke-linejoin="round"/>
 <path d="m15.5 28.5h16" fill="#c1c1c1" stroke="#f9f9f9" stroke-dashoffset=".774" stroke-linecap="round" stroke-linejoin="round"/>
 <path d="m15.5 31.5h16" fill="#c1c1c1" stroke="#f9f9f9" stroke-dashoffset=".774" stroke-linecap="round" stroke-linejoin="round"/>
 <path d="m25.5 19.5h6" fill="#c1c1c1" stroke="#f9f9f9" stroke-dashoffset=".774" stroke-linecap="round" stroke-linejoin="round"/>
 <path d="m25.5 22.5h6" fill="#c1c1c1" stroke="#f9f9f9" stroke-dashoffset=".774" stroke-linecap="round" stroke-linejoin="round"/>
</svg>
