<svg viewBox="0 0 48 48" xmlns="http://www.w3.org/2000/svg">
 <path d="m8 1c-1.029 0-2 .971-2 2v11 31c0 .971 1.029 2 2 2h32c .971 0 2-1.029 2-2v-31-11c0-1.029-.971-2-2-2h-11-10z" fill="#c1c1c1"/>
 <path d="m6 35v10c0 .971 1.029 2 2 2h32c .971 0 2-1.029 2-2v-10z" fill-opacity=".196"/>
 <path d="m12 16h7v5h-7z" fill="#ffffff"/>
 <path d="m12 24h7v5h-7z" fill="#ffffff"/>
 <path d="m30 16v6h6c0-3.314-2.686-6-6-6z" fill="#ffffff"/>
 <path d="m29 17c-4 0-7 2.91-7 6.5 0 3.59 2.91 6.5 6.5 6.5 3.59 0 6.5-3 6.5-7h-6z" fill="#ffffff"/>
 <path d="m16.393 36.901c-.8.022-1.594.04-2.393.193v7.906h1.73v-2.705h.619c1.126 0 1.996-.21 2.605-.633.619-.431.928-1.126.928-2.084 0-.949-.304-1.631-.914-2.045-.61-.423-1.469-.633-2.576-.633zm7.646 0c-1.032 0-1.84.347-2.42 1.041-.58.685-.869 1.705-.869 3.059 0 1.354.279 2.378.84 3.072.57.685 1.391 1.027 2.463 1.027 1.042 0 1.85-.342 2.42-1.027.57-.694.854-1.718.854-3.072 0-1.354-.279-2.373-.84-3.059-.56-.694-1.376-1.041-2.447-1.041zm3.826.1v1.318h2.295v6.682h1.746v-6.682h2.293v-1.318zm-3.826 1.258c.315 0 .616.073.803.217.187.144.329.339.428.584.108.245.178.537.207.875.039.33.059.686.059 1.066 0 .381-.019.736-.059 1.066-.029.33-.099.621-.207.875-.098.245-.245.44-.441.584-.187.144-.484.217-.789.217-.315 0-.618-.073-.805-.217-.187-.144-.333-.339-.441-.584-.098-.245-.168-.533-.207-.863-.029-.338-.045-.697-.045-1.078 0-.381.015-.736.045-1.066.039-.33.109-.618.207-.863.108-.254.255-.452.441-.596.187-.144.49-.217.805-.217zm-7.449.027c.46 0 .826.098 1.098.297.281.19.422.519.422.984 0 .492-.14.84-.422 1.047-.281.198-.698.299-1.252.299h-.705v-2.588c.302-.015.557-.042.859-.039z" fill="#ffffff"/>
</svg>
