<?xml version="1.0" encoding="UTF-8" standalone="no"?>
<svg
   xmlns:dc="http://purl.org/dc/elements/1.1/"
   xmlns:cc="http://creativecommons.org/ns#"
   xmlns:rdf="http://www.w3.org/1999/02/22-rdf-syntax-ns#"
   xmlns:svg="http://www.w3.org/2000/svg"
   xmlns="http://www.w3.org/2000/svg"
   xmlns:sodipodi="http://sodipodi.sourceforge.net/DTD/sodipodi-0.dtd"
   xmlns:inkscape="http://www.inkscape.org/namespaces/inkscape"
   sodipodi:docname="ibus-setup-hangul.svg"
   inkscape:version="0.91 r13725"
   id="svg2"
   version="1.1"
   width="512"
   viewBox="0 0 512 512"
   height="512">
  <defs
     id="defs17" />
  <sodipodi:namedview
     inkscape:current-layer="svg2"
     inkscape:window-maximized="1"
     inkscape:window-y="0"
     inkscape:window-x="0"
     inkscape:cy="258.97035"
     inkscape:cx="2.5235107"
     inkscape:zoom="1.0011653"
     showgrid="false"
     id="namedview15"
     inkscape:window-height="1022"
     inkscape:window-width="1920"
     inkscape:pageshadow="2"
     inkscape:pageopacity="0"
     guidetolerance="10"
     gridtolerance="10"
     objecttolerance="10"
     borderopacity="1"
     bordercolor="#666666"
     pagecolor="#ffffff" />
  <metadata
     id="metadata28">
    <rdf:RDF>
      <cc:Work
         rdf:about="">
        <dc:format>image/svg+xml</dc:format>
        <dc:type
           rdf:resource="http://purl.org/dc/dcmitype/StillImage" />
        <dc:title></dc:title>
      </cc:Work>
    </rdf:RDF>
  </metadata>
  <path
     style="fill:#b41916;fill-opacity:1;fill-rule:evenodd"
     inkscape:connector-curvature="0"
     d="M 474.9,256 C 474.9,376.9 376.89,474.9 256,474.9 135.1,474.9 37.1,376.89 37.1,256 37.1,135.1 135.11,37.1 256,37.1 c 120.9,0 218.9,98.01 218.9,218.9"
     id="path6" />
  <path
     style="fill-opacity:0.06700003;fill-rule:evenodd"
     inkscape:connector-curvature="0"
     d="M 256,1 C 115.17,1 1,115.17 1,256 1,396.83 115.17,511 256,511 396.83,511 511,396.83 511,256 511,115.17 396.83,1 256,1 m 8.827,44.931 c 120.9,0 218.9,98 218.9,218.9 0,120.9 -98,218.9 -218.9,218.9 -120.9,0 -218.93,-98 -218.93,-218.9 0,-120.9 98.03,-218.9 218.93,-218.9"
     id="path8" />
  <g
     style="fill-opacity:0.12900002;fill-rule:evenodd"
     id="g10">
    <path
       inkscape:connector-curvature="0"
       d="m 256,4.433 c -138.94,0 -251.57,112.63 -251.57,251.57 0,138.94 112.63,251.57 251.57,251.57 138.94,0 251.57,-112.63 251.57,-251.57 C 507.57,117.063 394.94,4.433 256,4.433 m 5.885,38.556 c 120.9,0 218.9,98 218.9,218.9 0,120.9 -98,218.9 -218.9,218.9 -120.9,0 -218.93,-98 -218.93,-218.9 0,-120.9 98.03,-218.9 218.93,-218.9"
       id="path12" />
    <path
       inkscape:connector-curvature="0"
       d="m 256,8.356 c -136.77,0 -247.64,110.87 -247.64,247.64 0,136.77 110.87,247.64 247.64,247.64 136.77,0 247.64,-110.87 247.64,-247.64 C 503.64,119.226 392.77,8.356 256,8.356 m 2.942,31.691 c 120.9,0 218.9,98 218.9,218.9 0,120.9 -98,218.9 -218.9,218.9 -120.9,0 -218.93,-98 -218.93,-218.9 0,-120.9 98.03,-218.9 218.93,-218.9"
       id="path14" />
  </g>
  <path
     inkscape:connector-curvature="0"
     style="opacity:0.25"
     id="path4190"
     d="m 359.20206,187.00077 c -19.61641,-20.93999 -77.36367,-77.10719 -77.36367,-77.10719 l -55.25241,6.38103 -8.49754,9.07114 6.69318,10.69697 -0.498,16.38252 c -22.12401,17.633 2.08479,20.83946 -22.89445,29.09101 l -27.86878,14.07479 -19.82966,28.42251 -9.51653,19.06688 -34.5575,45.00622 57.87508,58.12534 -9.5966,24.89964 107.80188,109.51703 C 412.19234,467.82019 492.56694,322.80238 479.81904,259.71818 440.88895,220.24942 351.64645,137.73684 351.64645,137.73684"
     sodipodi:nodetypes="cccccccccccccccc" />
  <path
     style="fill:#ffffff;fill-rule:evenodd;stroke:#000000;stroke-width:4.90399981;stroke-opacity:0.31000001"
     inkscape:connector-curvature="0"
     d="M 256,10.81 C 120.58,10.81 10.81,120.59 10.81,256 10.81,391.42 120.59,501.19 256,501.19 391.42,501.19 501.19,391.41 501.19,256 501.19,120.58 391.41,10.81 256,10.81 Z m 0,26.297 c 120.9,0 218.9,98 218.9,218.9 0,120.9 -98,218.9 -218.9,218.9 -120.9,0 -218.93,-98 -218.93,-218.9 0,-120.9 98.03,-218.9 218.93,-218.9 z"
     id="path16" />
  <path
     style="color:#000000;fill:#ffffff"
     d="m 242.45955,106.18916 c -13.86298,0 -25.77467,11.44499 -25.77467,25.50963 l 0,16.69032 c -3.62942,1.27394 -7.15432,2.70289 -10.60897,4.30875 l -12.35482,-12.07277 a 14.135687,14.135687 0 0 0 -0.002,-0.002 c -9.9825,-9.75393 -26.23941,-9.75937 -36.2183,0.0124 l -19.11216,18.67691 c -9.97386,9.74827 -9.98435,26.54016 0,36.28881 l 0.0124,0.0105 c 0,0 0,0.002 0,0.002 l 12.02656,11.7518 c -1.56282,3.25157 -3.14184,6.48525 -4.39385,9.89649 l -17.24716,0 c -13.85939,0 -25.77468,11.44259 -25.77467,25.50722 l 0,26.4628 c 0,14.06463 11.91525,25.50722 25.77467,25.50722 l 17.24473,0 c 1.2525,3.41238 2.83046,6.64688 4.39384,9.89893 l -12.03628,11.76152 c -9.97646,9.75085 -9.98619,26.5436 0.002,36.29367 l 19.1219,18.68421 c 9.97915,9.75069 26.22882,9.75935 36.20856,-0.002 l 0.0104,-0.0104 12.34509,-12.06303 c 3.4548,1.60611 6.9795,3.03449 10.60896,4.30875 l 0,16.69031 c 0,14.06463 11.91174,25.50964 25.77467,25.50964 l 27.08043,0 c 13.86294,0 25.7747,-11.44502 25.7747,-25.50964 l 0,-16.68789 c 3.62983,-1.27449 7.15434,-2.70489 10.60894,-4.31117 l 12.35483,12.07276 a 14.135687,14.135687 0 0 0 0.002,0.002 c 9.98249,9.75397 26.23941,9.75938 36.21829,-0.0124 l 19.10974,-18.67204 c 9.98184,-9.75332 9.98839,-26.55374 -0.0104,-36.3034 l -12.02656,-11.75423 c 1.56282,-3.25157 3.14184,-6.48523 4.39386,-9.89649 l 17.24714,0 c 13.85943,0 25.77468,-11.44255 25.77468,-25.50722 l 0,-26.4628 c 0,-14.06465 -11.91529,-25.50722 -25.77468,-25.50722 l -17.24472,0 c -1.25251,-3.41238 -2.83045,-6.64687 -4.39385,-9.89894 l 12.03385,-11.75908 c 9.97634,-9.74792 9.98763,-26.54177 0.002,-36.29123 l -0.0124,-0.0105 -19.10974,-18.67693 a 14.135687,14.135687 0 0 0 -0.002,-0.002 c -9.98248,-9.75393 -26.23941,-9.75936 -36.21829,0.0124 l -12.34511,12.06303 c -3.45514,-1.60584 -6.97962,-3.03497 -10.60895,-4.30875 l 0,-16.69031 c 0,-14.06463 -11.91172,-25.50963 -25.77468,-25.50963 l -27.08043,0 z m 14.26848,35.59824 c 2.71298,-0.095 5.39466,0.20272 7.92449,0.92885 2.64978,0.75885 2.27508,1.39787 -6.35369,10.86913 -5.04182,5.53373 -9.16703,10.99178 -9.16703,12.14085 0,3.97281 10.20116,14.19309 14.16633,14.19309 0.87583,0 5.70302,-3.88838 10.72812,-8.63937 5.0262,-4.75101 9.58981,-8.63695 10.14208,-8.63695 1.54412,0 2.72783,8.37804 1.8018,12.7536 -2.91976,13.80018 -13.07603,22.86638 -27.83666,24.84825 -6.05821,0.81344 -6.49005,1.18028 -38.1222,32.31317 -17.59672,17.31792 -33.63034,32.25451 -35.62742,33.18856 -7.62242,3.56212 -16.1533,0.99848 -21.07687,-6.32939 -2.35968,-3.51091 -2.73122,-5.29231 -2.22246,-10.69405 l 0.61032,-6.48015 32.82625,-32.93567 32.82623,-32.93322 0,-5.67043 c 0,-7.05937 2.14366,-12.41919 7.40414,-18.5286 5.42061,-6.29454 13.83762,-10.10258 21.97657,-10.38767 z m -0.72947,81.97805 c 18.76361,0 33.32957,14.42246 33.32957,32.24025 0,17.80885 -14.55677,32.24023 -33.32957,32.24023 -18.7636,0 -33.32715,-14.42159 -33.32715,-32.24023 0,-17.80972 14.55432,-32.24024 33.32715,-32.24025 z m -78.3526,18.43377 c -1.07231,-0.0105 -2.21623,0.3706 -4.01696,1.13799 -7.09474,3.01714 -7.08568,12.86963 0.0145,15.62284 l 0,0.002 c 1.66684,0.64622 3.40259,1.13984 3.85891,1.09665 8.64773,-0.81686 11.30114,-12.65685 3.73003,-16.649 -1.51343,-0.79868 -2.51424,-1.20081 -3.58657,-1.21092 z"
     id="path4171"
     inkscape:connector-curvature="0" />
</svg>
