<?xml version="1.0" encoding="UTF-8" standalone="no"?>
<svg xmlns="http://www.w3.org/2000/svg" height="512" viewBox="0 0 512 512" width="512" version="1.1">
 <path d="m471.95 253.05c0 120.9-98.01 218.9-218.9 218.9-120.9 0-218.9-98.01-218.9-218.9 0-120.9 98.01-218.9 218.9-218.9 120.9 0 218.9 98.01 218.9 218.9" fill="#ecc671" fill-rule="evenodd"/>
 <path d="m256 1c-140.83 0-255 114.17-255 255 0 140.83 114.17 255 255 255 140.83 0 255-114.17 255-255 0-140.83-114.17-255-255-255m8.827 44.931c120.9 0 218.9 98 218.9 218.9 0 120.9-98 218.9-218.9 218.9-120.9 0-218.93-98-218.93-218.9 0-120.9 98.03-218.9 218.93-218.9" fill-opacity=".067" fill-rule="evenodd"/>
 <g fill-opacity=".129" fill-rule="evenodd">
  <path d="m256 4.433c-138.94 0-251.57 112.63-251.57 251.57 0 138.94 112.63 251.57 251.57 251.57 138.94 0 251.57-112.63 251.57-251.57 0-138.94-112.63-251.57-251.57-251.57m5.885 38.556c120.9 0 218.9 98 218.9 218.9 0 120.9-98 218.9-218.9 218.9-120.9 0-218.93-98-218.93-218.9 0-120.9 98.03-218.9 218.93-218.9"/>
  <path d="m256 8.356c-136.77 0-247.64 110.87-247.64 247.64 0 136.77 110.87 247.64 247.64 247.64 136.77 0 247.64-110.87 247.64-247.64 0-136.77-110.87-247.64-247.64-247.64m2.942 31.691c120.9 0 218.9 98 218.9 218.9 0 120.9-98 218.9-218.9 218.9-120.9 0-218.93-98-218.93-218.9 0-120.9 98.03-218.9 218.93-218.9"/>
 </g>
 <path d="m 258.16949,86.796614 c 0,0 -31.68499,97.364696 -41.63308,114.348156 -3.11816,5.32334 -47.90911,-29.31755 -47.90911,-29.31755 0,0 1.06237,86.81954 -31.46113,130.02425 -13.72165,18.22806 -26.79932,45.36717 -30.84414,41.91777 0,0 111.78965,81.22819 176.05743,125.95373 106.29293,-18.78299 170.40667,-97.36686 206.34909,-203.05104" style="opacity:0.25"/>
 <path d="m253.04 7.859c-135.42 0-245.19 109.78-245.19 245.19 0 135.42 109.78 245.19 245.19 245.19 135.42 0 245.19-109.78 245.19-245.19 0-135.42-109.78-245.19-245.19-245.19zm0 26.297c120.9 0 218.9 98 218.9 218.9 0 120.9-98 218.9-218.9 218.9-120.9 0-218.93-98-218.93-218.9 0-120.9 98.03-218.9 218.93-218.9z" fill="#ffffff" fill-rule="evenodd" stroke="#000000" stroke-opacity=".31" stroke-width="4.904"/>
 <g transform="matrix(11.680574,0,0,11.680574,-22.164281,-41.6897)" style="fill:#ffffff;fill-opacity:1">
  <g style="fill:#ffffff;fill-opacity:1">
   <g style="fill:#ffffff;fill-opacity:1">
    <path d="M 24,11 11,33 H 37 M 24,20 c 1.66,0 3,0.992 3,2.219 v 5.563 c 0,1.227 -1.34,2.219 -3,2.219 -1.66,0 -3,-0.992 -3,-2.219 V 22.219 C 21,20.992 22.34,20 24,20 m 0,0" style="fill:#ffffff;fill-opacity:1;"/>
    <path d="m 18,29 h 0.004 c 1.102,0 2,0.793 2,1.77 v 4.457 c 0,0.98 -0.898,1.773 -2,1.773 H 18 c -1.105,0 -2,-0.793 -2,-1.773 V 30.77 C 16,29.793 16.895,29 18,29 m 0,0" style="fill:#ffffff;fill-opacity:1;"/>
    <path d="M 29.996,29 H 30 c 1.105,0 2,0.793 2,1.77 v 4.457 C 32,36.207 31.105,37 30,37 H 29.996 C 28.894,37 28,36.207 28,35.227 V 30.77 C 28,29.793 28.895,29 29.996,29 m 0,0" style="fill:#ffffff;fill-opacity:1;"/>
    <path d="m 24,21 h 0.004 C 25.106,21 26,21.793 26,22.773 v 4.457 c 0,0.977 -0.895,1.773 -1.996,1.773 H 24 c -1.105,0 -2,-0.797 -2,-1.773 V 22.773 C 22,21.793 22.895,21 24,21 m 0,0" style="fill:#ffffff;fill-opacity:1;"/>
    <path d="m 15.5,18 h 0.004 C 16.328,18 17,18.793 17,19.773 V 28.23 C 17,29.207 16.328,30 15.504,30 H 15.5 C 14.672,30 14,29.207 14,28.23 V 19.773 C 14,18.793 14.672,18 15.5,18 m 0,0" style="fill:#ffffff;fill-opacity:1;"/>
    <path d="m 32.5,18 h 0.004 C 33.332,18 34,18.793 34,19.773 V 28.23 C 34,29.207 33.332,30 32.504,30 H 32.5 C 31.672,30 31,29.207 31,28.23 V 19.773 C 31,18.793 31.672,18 32.5,18 m 0,0" style="fill:#ffffff;fill-opacity:1;"/>
   </g>
  </g>
 </g>
</svg>
