<svg xmlns="http://www.w3.org/2000/svg" version="1.1" viewBox="0 0 512 512">
 <g fill-rule="evenodd">
  <path d="m471.95 253.05c0 120.9-98.01 218.9-218.9 218.9-120.9 0-218.9-98.01-218.9-218.9 0-120.9 98.01-218.9 218.9-218.9 120.9 0 218.9 98.01 218.9 218.9" fill="#ecc671"/>
  <path d="m256 1c-140.83 0-255 114.17-255 255s114.17 255 255 255 255-114.17 255-255-114.17-255-255-255m8.827 44.93c120.9 0 218.9 98 218.9 218.9s-98 218.9-218.9 218.9-218.93-98-218.93-218.9 98.03-218.9 218.93-218.9" fill-opacity=".067"/>
  <g fill-opacity=".129">
   <path d="m256 4.433c-138.94 0-251.57 112.63-251.57 251.57s112.63 251.57 251.57 251.57 251.57-112.63 251.57-251.57-112.63-251.57-251.57-251.57m5.885 38.556c120.9 0 218.9 98 218.9 218.9s-98 218.9-218.9 218.9-218.93-98-218.93-218.9 98.03-218.9 218.93-218.9"/>
   <path d="m256 8.356c-136.77 0-247.64 110.87-247.64 247.64s110.87 247.64 247.64 247.64 247.64-110.87 247.64-247.64-110.87-247.64-247.64-247.64m2.942 31.69c120.9 0 218.9 98 218.9 218.9s-98 218.9-218.9 218.9-218.93-98-218.93-218.9 98.03-218.9 218.93-218.9"/>
  </g>
  <path opacity=".25" d="m241.76 123.99l51.802 59.35 64.463-60.67 116.65 139.46c-17.98 124.22-102.11 192.2-189.09 212.06l-90.328-101.03c13.78-83.397 14.836-169.34 46.5-249.16z"/>
 </g>
 <path d="m164.04 270.18c0 19.18 12.238 35.476 29.345 41.53v61.33h29.395v-61.33c17.11-6.06 29.395-22.35 29.395-41.53 0-7.39-1.86-14.325-5.073-20.442l58.04-58.04c6.113 3.21 13.06 5.02 20.44 5.02 24.34 0 44.07-19.73 44.07-44.07s-19.728-44.07-44.07-44.07c-24.338 0-44.07 19.73-44.07 44.07 0 7.394 1.856 14.372 5.074 20.492l-57.99 58c-1.856-0.977-3.82-1.78-5.82-2.488v-34.42c17.11-6.06 29.395-22.398 29.395-41.58 0-24.34-19.73-44.07-44.07-44.07s-44.07 19.73-44.07 44.07c0 19.18 12.238 35.526 29.345 41.58v34.42c-17.11 6.06-29.345 22.35-29.345 41.53" fill="#f9f9f9"/>
 <path d="m253.04 7.86c-135.42 0-245.19 109.78-245.19 245.19 0 135.42 109.78 245.19 245.19 245.19 135.42 0 245.19-109.78 245.19-245.19 0-135.42-109.78-245.19-245.19-245.19zm0 26.296c120.9 0 218.9 98 218.9 218.9s-98 218.9-218.9 218.9-218.93-98-218.93-218.9 98.03-218.9 218.93-218.9z" stroke-opacity=".31" fill-rule="evenodd" stroke="#000" stroke-width="4.904" fill="#fff"/>
</svg>
