<svg version="1.1" viewBox="0 0 512 512" xmlns="http://www.w3.org/2000/svg">
 <path d="m471.95 253.05c0 120.9-98.01 218.9-218.9 218.9-120.9 0-218.9-98.01-218.9-218.9 0-120.9 98.01-218.9 218.9-218.9 120.9 0 218.9 98.01 218.9 218.9" fill="#ecc671" fill-rule="evenodd"/>
 <path d="m298.78 126.97c-11.198 0.1 8.968-2.086 2.236-0.568-0.85 0.192-1.49 0.38-2.236 0.568l11.867 11.867c-12.395-6.97-27.615-11.738-46.14-12.02-1.13-0.018-2.246-0.024-3.336 0-16.355 0.358-28.393 5.332-37.532 12.662-0.38 0.304-0.744 0.62-1.113 0.934l-4.193-4.194c-8.754-2.926-9.884 15.693-30.678 15.71 19.642 29.15-22.075-9.153-23.907-9.052-14.657 0.81-8.047 21.073-18.15 31.385-10.1 10.312-20.382 7.106-18.964 34.266 0.286 5.357-15.042 8.04-11.083 25.04 3.958 17 17.98 33.962 24.74 51.676 6.536 17.12 71.07 110.36 78.95 118.24l94.69 73.88c97.12-22.39 158.68-109.4 158.68-213.31 0-14.14 1.898 2.403-0.665-10.996l-116.01-110.78s-24.956-3.61-45.296-3.433" opacity=".25"/>
 <path d="m256 1c-140.83 0-255 114.17-255 255s114.17 255 255 255 255-114.17 255-255-114.17-255-255-255m8.827 44.931c120.9 0 218.9 98 218.9 218.9s-98 218.9-218.9 218.9-218.93-98-218.93-218.9 98.03-218.9 218.93-218.9" fill-opacity=".067" fill-rule="evenodd"/>
 <g fill-opacity=".129" fill-rule="evenodd">
  <path d="m256 4.433c-138.94 0-251.57 112.63-251.57 251.57s112.63 251.57 251.57 251.57 251.57-112.63 251.57-251.57-112.63-251.57-251.57-251.57m5.885 38.556c120.9 0 218.9 98 218.9 218.9s-98 218.9-218.9 218.9-218.93-98-218.93-218.9 98.03-218.9 218.93-218.9"/>
  <path d="m256 8.356c-136.77 0-247.64 110.87-247.64 247.64s110.87 247.64 247.64 247.64 247.64-110.87 247.64-247.64-110.87-247.64-247.64-247.64m2.942 31.691c120.9 0 218.9 98 218.9 218.9s-98 218.9-218.9 218.9-218.93-98-218.93-218.9 98.03-218.9 218.93-218.9"/>
 </g>
 <path d="m253.04 7.859c-135.42 0-245.19 109.78-245.19 245.19 0 135.42 109.78 245.19 245.19 245.19 135.42 0 245.19-109.78 245.19-245.19 0-135.42-109.78-245.19-245.19-245.19zm0 26.297c120.9 0 218.9 98 218.9 218.9s-98 218.9-218.9 218.9-218.93-98-218.93-218.9 98.03-218.9 218.93-218.9z" fill="#ffffff" fill-rule="evenodd" stroke="#000000" stroke-opacity=".31" stroke-width="4.904"/>
 <path d="m252.29 123.13c-24.418 0-85.463 0-109.88 24.42-48.837 48.835-24.42 109.88 0 158.72 24.417 48.836 73.253 109.88 109.88 109.88 36.628 0 85.464-61.044 109.88-109.88 24.418-48.837 48.836-109.88 0-158.72-24.418-24.42-85.463-24.42-109.88-24.42z" fill="#ffffff" fill-rule="evenodd"/>
</svg>
