<?xml version="1.0" encoding="UTF-8" standalone="no"?>
<svg
   xmlns:dc="http://purl.org/dc/elements/1.1/"
   xmlns:cc="http://creativecommons.org/ns#"
   xmlns:rdf="http://www.w3.org/1999/02/22-rdf-syntax-ns#"
   xmlns:svg="http://www.w3.org/2000/svg"
   xmlns="http://www.w3.org/2000/svg"
   xmlns:sodipodi="http://sodipodi.sourceforge.net/DTD/sodipodi-0.dtd"
   xmlns:inkscape="http://www.inkscape.org/namespaces/inkscape"
   height="512"
   viewBox="0 0 512 512"
   width="512"
   version="1.1"
   id="svg18"
   sodipodi:docname="vivaldi-snapshot.svg"
   inkscape:version="0.92.2 2405546, 2018-03-11">
  <metadata
     id="metadata24">
    <rdf:RDF>
      <cc:Work
         rdf:about="">
        <dc:format>image/svg+xml</dc:format>
        <dc:type
           rdf:resource="http://purl.org/dc/dcmitype/StillImage" />
        <dc:title></dc:title>
      </cc:Work>
    </rdf:RDF>
  </metadata>
  <defs
     id="defs22" />
  <sodipodi:namedview
     pagecolor="#ffffff"
     bordercolor="#666666"
     borderopacity="1"
     objecttolerance="10"
     gridtolerance="10"
     guidetolerance="10"
     inkscape:pageopacity="0"
     inkscape:pageshadow="2"
     inkscape:window-width="1920"
     inkscape:window-height="1021"
     id="namedview20"
     showgrid="false"
     inkscape:zoom="1.84375"
     inkscape:cx="62.557261"
     inkscape:cy="205.47242"
     inkscape:window-x="0"
     inkscape:window-y="0"
     inkscape:window-maximized="1"
     inkscape:current-layer="svg18" />
  <path
     d="m471.95 253.05c0 120.9-98.01 218.9-218.9 218.9-120.9 0-218.9-98.01-218.9-218.9 0-120.9 98.01-218.9 218.9-218.9 120.9 0 218.9 98.01 218.9 218.9"
     fill="#ecc671"
     fill-rule="evenodd"
     id="path2" />
  <path
     d="m 348.54026,255.30128 -189.86381,-125.71712 -1.58603,23.55912 -21.57405,6.35747 c 24.30588,24.79598 8.31067,3.02666 7.11399,44.82434 l 20.15599,30.56833 37.0126,45.57742 26.40119,44.30433 43.95469,26.57831 -35.99268,41.55238 99.58139,62.95803 C 380.86897,431.87308 493.33433,377.83936 468.01885,193.32053 L 383.8691,137.69421"
     id="path4"
     inkscape:connector-curvature="0"
     style="opacity:0.25"
     sodipodi:nodetypes="ccccccccccccc" />
  <path
     d="m256 1c-140.83 0-255 114.17-255 255 0 140.83 114.17 255 255 255 140.83 0 255-114.17 255-255 0-140.83-114.17-255-255-255m8.827 44.931c120.9 0 218.9 98 218.9 218.9 0 120.9-98 218.9-218.9 218.9-120.9 0-218.93-98-218.93-218.9 0-120.9 98.03-218.9 218.93-218.9"
     fill-opacity=".067"
     fill-rule="evenodd"
     id="path6" />
  <g
     fill-opacity=".129"
     fill-rule="evenodd"
     id="g12">
    <path
       d="m256 4.433c-138.94 0-251.57 112.63-251.57 251.57 0 138.94 112.63 251.57 251.57 251.57 138.94 0 251.57-112.63 251.57-251.57 0-138.94-112.63-251.57-251.57-251.57m5.885 38.556c120.9 0 218.9 98 218.9 218.9 0 120.9-98 218.9-218.9 218.9-120.9 0-218.93-98-218.93-218.9 0-120.9 98.03-218.9 218.93-218.9"
       id="path8" />
    <path
       d="m256 8.356c-136.77 0-247.64 110.87-247.64 247.64 0 136.77 110.87 247.64 247.64 247.64 136.77 0 247.64-110.87 247.64-247.64 0-136.77-110.87-247.64-247.64-247.64m2.942 31.691c120.9 0 218.9 98 218.9 218.9 0 120.9-98 218.9-218.9 218.9-120.9 0-218.93-98-218.93-218.9 0-120.9 98.03-218.9 218.93-218.9"
       id="path10" />
  </g>
  <path
     d="m253.04 7.859c-135.42 0-245.19 109.78-245.19 245.19 0 135.42 109.78 245.19 245.19 245.19 135.42 0 245.19-109.78 245.19-245.19 0-135.42-109.78-245.19-245.19-245.19zm0 26.297c120.9 0 218.9 98 218.9 218.9 0 120.9-98 218.9-218.9 218.9-120.9 0-218.93-98-218.93-218.9 0-120.9 98.03-218.9 218.93-218.9z"
     fill="#ffffff"
     fill-rule="evenodd"
     stroke="#000000"
     stroke-opacity=".31"
     stroke-width="4.904"
     id="path14" />
  <path
     d="m 112.16588,179.45868 117.98694,208.4545 c 0,0 6.38621,11.15894 22.46457,11.15894 16.06707,0 22.46456,-11.15894 22.46456,-11.15894 0,0 82.00527,-125.60301 115.45953,-192.60181 3.36236,-6.72469 6.98421,-13.52838 8.50743,-20.9075 1.03804,-5.00968 1.53449,-10.38042 0.33849,-15.35624 -1.45551,-6.07029 -4.265,-12.27597 -8.84592,-16.50711 -5.29175,-4.88557 -12.63703,-7.88686 -19.79049,-8.63154 -7.69503,-0.81238 -15.89782,1.03804 -22.79177,4.63733 -4.84043,2.54998 -9.13928,6.62316 -11.84722,11.39589 -2.68536,4.7276 -3.37362,10.4594 -3.67826,15.88654 -0.2031,3.7347 0.53029,7.49196 1.29755,11.14767 0.25951,1.25242 0.68826,2.47099 1.11702,3.66699 1.09445,3.05772 2.58382,5.95746 3.70084,9.00388 0.92521,2.50484 2.21148,4.96455 2.50484,7.62735 0.47388,4.28756 0.36106,8.86848 -1.21857,12.87396 -7.70633,19.49713 -28.0021,53.82532 -38.46395,71.94578 -6.66477,11.54372 -30.98091,51.83391 -40.15217,52.70132 -9.17126,0.86741 -23.90144,-12.85701 -29.25698,-20.82397 -7.17548,-10.67431 -9.27568,-14.28399 -16.80047,-26.63702 -9.19999,-15.10311 -43.82422,-71.27574 -54.43646,-108.21096 -5.01597,-17.45775 10.73791,-22.72622 8.69072,-33.83016 -2.04719,-11.10394 -16.37171,-28.94105 -45.83178,-11.39589 -29.448783,17.55644 -11.4523,45.58355 -11.4523,45.58355 z"
     id="path16"
     inkscape:connector-curvature="0"
     style="fill:#ffffff;fill-rule:evenodd"
     sodipodi:nodetypes="ccsccccccccccccccscssszccc" />
</svg>
