<svg height="512" viewBox="0 0 512 512" width="512" xmlns="http://www.w3.org/2000/svg">
 <path d="m108.63121 57.3885c-7.963 0-15.228 2.293-20.693 6.22-4.545 3.266-7.751 7.872-8.752 13.13h-11.909c-16.447 0-29.883 13.03-29.883 29.2v66.736c0 16.17 13.436 29.19 29.883 29.19h377.47c16.447 0 29.883-13.03 29.883-29.19v-66.736c0-16.17-13.436-29.2-29.883-29.2h-262.91c-1-5.256-4.208-9.862-8.753-13.13-5.465-3.927-12.73-6.22-20.693-6.22h-43.761" fill="#cccccc" fill-rule="evenodd"/>
 <path d="m37.36121 118.4785c-19.928 0-38.06 15.818-36.23 35.853l24.26 265.41c1.733 18.966 16.271 34.947 36.2 34.947h383.41c19.933 0 34.1-16.05 36.2-34.853l29.632-265.41c1.123-10.05-3.137-19.263-9.971-25.663-6.833-6.399-16.258-10.284-26.22-10.284h-437.27" fill="#645eC6" fill-rule="evenodd"/>
 <path d="m108.5512 57.3085c-7.96299 0-15.10999 2.403-20.57199 6.33-4.545 3.266-7.702 7.931-8.703 13.187h-12.13c-17.677 0-29.802 12.771-29.802 30.661v3.956c0-16.17 13.355-29.27 29.802-29.27h14.286c1-5.256 2-9.657 6.549-12.923 5.465-3.927 12.609-6.33 20.57199-6.33h43.78c7.963 0 15.371 2.403 20.835 6.33 4.545 3.266 5.766 7.668 6.769 12.923h264.88c16.447 0 29.802 11.455 29.802 27.625v-3.956c0-16.17-13.355-29.01-29.802-29.01h-262.95c-1-5.256-4.159-9.921-8.703-13.187-5.465-3.927-12.872-6.33-20.835-6.33z" fill="#ffffff" fill-rule="evenodd" opacity=".764"/>
 <path d="m37.35121 118.4685c-19.928 0-38.05 15.84-36.22 35.875l.406 4.375c3-15.936 18.732-27.563 35.813-27.563h437.27999c9.966 0 19.386 3.882 26.22 10.281 4.736 4.435 8.234 10.208 9.563 16.688l.406-3.688c1.123-10.05-3.134-19.288-9.969-25.688-6.833-6.399-16.252-10.281-26.22-10.281h-437.27999" fill="#ffffff" fill-rule="evenodd" opacity=".4"/>
</svg>
