<svg xmlns="http://www.w3.org/2000/svg" height="48" viewBox="0 0 512 512" width="48"><path d="M471.95 253.05c0 120.9-98.01 218.9-218.9 218.9-120.9 0-218.9-98.01-218.9-218.9 0-120.9 98.01-218.9 218.9-218.9 120.9 0 218.9 98.01 218.9 218.9" fill="#c74a6c" fill-rule="evenodd"/><g fill="#ffffff"><path d="M230.318 101.483L129.24 358.06h38.295l36.498-92.653H309.35l36.5 92.653h38.293L283.066 101.483H230.31zm26.377 30.22l38.63 98.068h-77.26z" fill-rule="evenodd"/><path d="M370.73 172.754l7.127 35.636h-78.4v42.763h78.4l-7.128 35.636 35.635-57.02z"/></g><circle cx="256" stroke="#fefefe" cy="256" r="181.13" stroke-width="18.771" fill="none"/></svg>