<svg height="512" viewBox="0 0 512 512" width="512" xmlns="http://www.w3.org/2000/svg">
 <path d="m490.30678 256.00699c0 129.40454-104.90024 234.30479-234.30478 234.30479-129.40454 0-234.304785-104.90025-234.304785-234.30479 0-129.40453 104.900245-234.304784 234.304785-234.304784 129.40454 0 234.30478 104.900254 234.30478 234.304784" fill="#939393" fill-rule="evenodd"/>
 <path d="m359.59 143.84c-138.91-118.38-340.32 53.04-217.66 213.36l113.04 114.74c118.82-1.031 215.05-96.73 216.94-215.34-.187-.14-.374-.267-.563-.406z" fill-opacity=".235"/>
 <g fill-rule="evenodd" transform="translate(0 -540.36)">
  <path d="m256 541.36c-140.83 0-255 114.17-255 255 0 140.83 114.17 255 255 255 140.83 0 255-114.17 255-255 0-140.83-114.17-255-255-255m8.827 44.931c120.9 0 218.9 98 218.9 218.9 0 120.9-98 218.9-218.9 218.9-120.9 0-218.93-98-218.93-218.9 0-120.9 98.03-218.9 218.93-218.9" fill-opacity=".067"/>
  <g fill-opacity=".129">
   <path d="m256 544.79c-138.94 0-251.57 112.63-251.57 251.57 0 138.94 112.63 251.54 251.57 251.54 138.94 0 251.57-112.6 251.57-251.54 0-138.94-112.63-251.57-251.57-251.57m5.885 38.556c120.9 0 218.9 98 218.9 218.9 0 120.9-98 218.9-218.9 218.9-120.9 0-218.93-98-218.93-218.9 0-120.9 98.03-218.9 218.93-218.9"/>
   <path d="m256 548.72c-136.77 0-247.64 110.87-247.64 247.64 0 136.77 110.87 247.64 247.64 247.64 136.77 0 247.64-110.87 247.64-247.64 0-136.77-110.87-247.64-247.64-247.64m2.942 31.691c120.9 0 218.9 98 218.9 218.9 0 120.9-98 218.9-218.9 218.9-120.9 0-218.93-98-218.93-218.9 0-120.9 98.03-218.9 218.93-218.9"/>
  </g>
  <path d="m253.04 548.22c-135.42 0-245.19 109.78-245.19 245.19 0 135.42 109.78 245.19 245.19 245.19 135.42 0 245.19-109.78 245.19-245.19 0-135.42-109.78-245.19-245.19-245.19zm0 26.297c120.9 0 218.9 98 218.9 218.9 0 120.9-98 218.9-218.9 218.9-120.9 0-218.93-98-218.93-218.9 0-120.9 98.03-218.9 218.93-218.9z" fill="#ffffff" stroke="#000000" stroke-opacity=".31" stroke-width="4.904"/>
 </g>
 <path d="m256 103.5c-84.01 0-152.44 68.43-152.44 152.44 0 84.01 68.43 152.56 152.44 152.56 84.01 0 152.44-68.55 152.44-152.56 0-84.01-68.43-152.44-152.44-152.44m-16.14 33.539v102.89h-103.01c7.112-53.648 49.35-95.77 103.01-102.89m32.28 0c53.622 7.146 95.78 49.26 102.89 102.89h-102.89zm-135.29 135.16h103.01v102.89c-53.602-7.125-95.83-49.3-103.01-102.89m135.29 0h102.89c-7.176 53.56-49.32 95.73-102.89 102.89z" fill="#ffffff"/>
</svg>
