<svg height="512" viewBox="0 0 512 512" width="512" xmlns="http://www.w3.org/2000/svg">
 <path d="m471.95 253.05c0 120.9-98.006 218.91-218.91 218.91s-218.91-98.006-218.91-218.91 98.006-218.91 218.91-218.91 218.91 98.006 218.91 218.91" fill="#939393" fill-rule="evenodd"/>
 <path d="m271.47 138.21c-36.591-.14384-50.013 39.573-75.451 53.886-29.737 9.0387-38.826 43.713-73.58 41.34-40.729 21.689-42.618 85.064-4.1875 110.16 47.968 42.642 95.899 85.388 143.81 128.16 108.19-4.3868 196.14-87.273 208.41-193.25-47.671-42.435-95.413-84.805-143.28-127-13.932-9.998-31.004-15.491-48.156-15.438-2.6044-.37809-5.1231 2.159-7.5625 2.1494z" opacity=".25"/>
 <path d="m256 1c-140.83 0-255 114.17-255 255s114.17 255 255 255 255-114.17 255-255-114.17-255-255-255m8.827 44.931c120.9 0 218.9 98 218.9 218.9s-98 218.9-218.9 218.9-218.93-98-218.93-218.9 98.03-218.9 218.93-218.9" fill-opacity=".067" fill-rule="evenodd"/>
 <path d="m256 4.43c-138.94 0-251.57 112.63-251.57 251.57s112.63 251.57 251.57 251.57 251.57-112.63 251.57-251.57-112.63-251.57-251.57-251.57m5.885 38.556c120.9 0 218.9 98 218.9 218.9s-98 218.9-218.9 218.9-218.93-98-218.93-218.9 98.03-218.9 218.93-218.9" fill-opacity=".129" fill-rule="evenodd"/>
 <path d="m256 8.36c-136.77 0-247.64 110.87-247.64 247.64s110.87 247.64 247.64 247.64 247.64-110.87 247.64-247.64-110.87-247.64-247.64-247.64m2.942 31.691c120.9 0 218.9 98 218.9 218.9s-98 218.9-218.9 218.9-218.93-98-218.93-218.9 98.03-218.9 218.93-218.9" fill-opacity=".129" fill-rule="evenodd"/>
 <path d="m253.04 7.86c-135.42 0-245.19 109.78-245.19 245.19 0 135.42 109.78 245.19 245.19 245.19 135.42 0 245.19-109.78 245.19-245.19 0-135.42-109.78-245.19-245.19-245.19zm0 26.297c120.9 0 218.9 98 218.9 218.9s-98 218.9-218.9 218.9-218.93-98-218.93-218.9 98.03-218.9 218.93-218.9z" fill="#ffffff" fill-rule="evenodd" stroke="#000000" stroke-opacity=".31" stroke-width="4.904"/>
 <path d="m279.02 136.06c-33.164 0-62.745 19.534-76.023 49.936-22.773 2.9144-42.088 17.451-51.078 38.75-34.221 1.4183-61.732 30.179-61.732 64.76 0 35.7 28.69 64.745 64.228 64.745h198.83c35.541 0 64.228-29.045 64.228-64.745 0-32.599-23.542-59.686-55.385-64.076.14417-1.9645.22833-3.9662.22833-5.9206-.00007-46.08-37.442-83.45-83.298-83.45zm-25.189 77.926c25.903 0 46.755 20.853 46.755 46.755s-20.853 46.755-46.755 46.755c-25.903 0-46.755-20.853-46.755-46.755 0-25.903 20.853-46.755 46.755-46.755zm0 9.345c-20.722 0-37.41 16.688-37.41 37.41s16.688 37.41 37.41 37.41 37.41-16.688 37.41-37.41-16.688-37.41-37.41-37.41zm-10.913 9.3602h21.825v28.05h15.585l-13.256 14.033-13.241 14.018-13.241-14.018-13.256-14.033h15.585v-28.05z" fill="#ffffff"/>
</svg>
