<svg height="512" viewBox="0 0 512 512" width="512" xmlns="http://www.w3.org/2000/svg">
 <path d="m471.95 253.05c0 120.9-98.01 218.9-218.9 218.9-120.9 0-218.9-98.01-218.9-218.9 0-120.9 98.01-218.9 218.9-218.9 120.9 0 218.9 98.01 218.9 218.9" fill="#939393" fill-rule="evenodd"/>
 <path d="m291.31 129.44c-1.523.004-3 .073-4.5.188-20.959 1.597-36.15 15.05-44.813 40.28-12.518 36.458-33.705 58.15-70.906 72.28-21.982 8.352-29.654 13.95-36.5 27.06-5.52 10.573-6.689 26.06-3.094 39.03 1.527 5.508 7.17 13.315 13.563 19.563.33.335.665.673 1 1 .438.445.866.882 1.313 1.313.204.205.419.392.625.594.296.301.575.611.875.906.383.391.767.776 1.156 1.156.33.335.665.673 1 1 .33.335.665.673 1 1 .438.445.866.882 1.313 1.313.204.205.419.392.625.594.169.179.329.354.5.531l.188.188c.446.459.889.899 1.344 1.344.33.335.665.673 1 1 .33.335.665.673 1 1 .438.445.866.882 1.313 1.313.204.205.419.392.625.594.031.032.063.062.094.094.302.306.6.607.906.906.177.187.353.378.531.563l.156.156c.441.454.894.904 1.344 1.344.33.335.665.673 1 1 .33.335.665.673 1 1 .438.445.866.882 1.313 1.313.204.205.419.392.625.594.177.187.353.378.531.563l.156.156c.441.454.894.904 1.344 1.344.33.335.665.673 1 1 .33.335.665.673 1 1 .438.445.866.882 1.313 1.313.204.205.419.392.625.594.164.174.334.328.5.5.068.068.119.151.188.219.446.459.889.899 1.344 1.344.33.335.665.673 1 1 .33.335.665.673 1 1 .438.445.866.882 1.313 1.313.204.205.419.392.625.594.169.179.329.354.5.531l.188.188c.446.459.889.899 1.344 1.344.33.335.665.673 1 1 .33.335.665.673 1 1 .438.445.866.882 1.313 1.313.204.205.419.392.625.594.031.032.063.062.094.094.302.306.6.607.906.906.177.187.353.378.531.563l.156.156c.441.454.894.904 1.344 1.344.33.335.665.673 1 1 .33.335.665.673 1 1 .438.445.866.882 1.313 1.313.204.205.419.392.625.594.296.301.575.611.875.906.383.391.767.776 1.156 1.156.33.335.665.673 1 1 .33.335.665.673 1 1 .438.445.866.882 1.313 1.313.204.205.419.392.625.594.164.174.334.328.5.5.068.068.119.151.188.219.446.459.889.899 1.344 1.344.33.335.665.673 1 1 .33.335.665.673 1 1 .438.445.866.882 1.313 1.313.204.205.419.392.625.594.031.032.063.062.094.094.302.306.6.607.906.906.177.187.353.378.531.563l.156.156c.441.454.894.904 1.344 1.344.33.335.665.673 1 1 .33.335.665.673 1 1 .438.445.866.882 1.313 1.313.204.205.419.392.625.594.177.187.353.378.531.563l.156.156c.441.454.894.904 1.344 1.344.33.335.665.673 1 1 .33.335.665.673 1 1 .438.445.866.882 1.313 1.313.204.205.419.392.625.594.169.179.329.354.5.531l.188.188c.446.459.889.899 1.344 1.344.33.335.665.673 1 1 .33.335.665.673 1 1 .438.445.866.882 1.313 1.313.204.205.419.392.625.594.164.174.334.328.5.5.068.068.119.151.188.219.446.459.889.899 1.344 1.344.33.335.665.673 1 1 .33.335.665.673 1 1 .438.445.866.882 1.313 1.313.204.205.419.392.625.594.031.032.063.062.094.094.302.306.6.607.906.906.177.187.353.378.531.563l.156.156c.441.454.894.904 1.344 1.344.33.335.665.673 1 1 .33.335.665.673 1 1 .438.445.866.882 1.313 1.313.204.205.419.392.625.594.296.301.575.611.875.906.383.391.767.776 1.156 1.156.33.335.665.673 1 1 .33.335.665.673 1 1 .438.445.866.882 1.313 1.313.204.205.419.392.625.594.169.179.329.354.5.531l.188.188c.446.459.889.899 1.344 1.344.33.335.665.673 1 1 .33.335.665.673 1 1 .438.445.866.882 1.313 1.313.204.205.419.392.625.594.031.032.063.062.094.094.302.306.6.607.906.906.177.187.353.378.531.563l.156.156c.441.454.894.904 1.344 1.344.33.335.665.673 1 1 .368.374.72.761 1.094 1.125.45.455.917.873 1.375 1.313.021.021.042.041.063.063.137.137.268.271.406.406.177.187.353.378.531.563l.156.156c.441.454.894.904 1.344 1.344.33.335.665.673 1 1 .33.335.665.673 1 1 .438.445.866.882 1.313 1.313.204.205.419.392.625.594.164.174.334.328.5.5.068.068.119.151.188.219.446.459.889.899 1.344 1.344.33.335.665.673 1 1 .33.335.665.673 1 1 .438.445.866.882 1.313 1.313.204.205.419.392.625.594.169.179.329.354.5.531l.188.188c.446.459.889.899 1.344 1.344.33.335.665.673 1 1 .33.335.665.673 1 1 .438.445.866.882 1.313 1.313.204.205.419.392.625.594.031.032.063.062.094.094.302.306.6.607.906.906.177.187.353.378.531.563l.156.156c.441.454.894.904 1.344 1.344.33.335.665.673 1 1 .33.335.665.673 1 1 .438.445.866.882 1.313 1.313.204.205.419.392.625.594.296.301.575.611.875.906.383.391.767.776 1.156 1.156.33.335.665.673 1 1 .33.335.665.673 1 1 .438.445.866.882 1.313 1.313.204.205.419.392.625.594.164.174.334.328.5.5.068.068.119.151.188.219.208.214.417.417.625.625 94.13-14.494 168.51-88.975 182.84-183.16-.22-.219-.441-.438-.656-.656-.164-.174-.333-.358-.5-.531-.168-.16-.333-.312-.5-.469-.164-.174-.333-.358-.5-.531-.17-.161-.331-.311-.5-.469-.318-.337-.67-.665-1-1-.318-.337-.67-.665-1-1-.31-.328-.647-.643-.969-.969-.316-.335-.672-.667-1-1-.163-.173-.334-.359-.5-.531-.168-.16-.333-.312-.5-.469-.164-.174-.333-.358-.5-.531-.168-.16-.333-.312-.5-.469-.164-.174-.333-.358-.5-.531-.171-.163-.33-.309-.5-.469-.318-.337-.67-.665-1-1-.159-.168-.338-.332-.5-.5-.066-.062-.122-.126-.188-.188-.097-.1-.183-.213-.281-.313-.313-.331-.675-.639-1-.969-.316-.335-.672-.667-1-1-.164-.174-.333-.358-.5-.531-.168-.16-.333-.312-.5-.469-.164-.174-.333-.358-.5-.531-.171-.163-.33-.309-.5-.469-.318-.337-.67-.665-1-1-.159-.168-.338-.332-.5-.5-.066-.062-.122-.126-.188-.188-.097-.1-.183-.213-.281-.313-.313-.331-.675-.639-1-.969-.316-.335-.672-.667-1-1-.164-.174-.333-.358-.5-.531-.168-.16-.333-.312-.5-.469-.164-.174-.333-.358-.5-.531-.17-.161-.331-.311-.5-.469-.318-.337-.67-.665-1-1-.318-.337-.67-.665-1-1-.31-.328-.647-.643-.969-.969-.316-.335-.672-.667-1-1-.164-.174-.333-.358-.5-.531-.168-.16-.333-.312-.5-.469-.164-.174-.333-.358-.5-.531-.168-.16-.333-.312-.5-.469-.318-.337-.67-.665-1-1-.318-.337-.67-.665-1-1-.308-.326-.649-.645-.969-.969-.316-.335-.672-.667-1-1-.316-.335-.672-.667-1-1-.164-.174-.333-.358-.5-.531-.168-.16-.333-.312-.5-.469-.164-.174-.333-.358-.5-.531-.171-.163-.33-.309-.5-.469-.318-.337-.67-.665-1-1-.159-.168-.338-.332-.5-.5-.066-.062-.122-.126-.188-.188-.097-.1-.183-.213-.281-.313-.313-.331-.675-.639-1-.969-.316-.335-.672-.667-1-1-.164-.174-.333-.358-.5-.531-.168-.16-.333-.312-.5-.469-.164-.174-.333-.358-.5-.531-.171-.163-.33-.309-.5-.469-.318-.337-.67-.665-1-1-.159-.168-.338-.332-.5-.5-.066-.062-.122-.126-.188-.188-.097-.1-.183-.213-.281-.313-.313-.331-.675-.639-1-.969-.316-.335-.672-.667-1-1-.164-.174-.333-.358-.5-.531-.168-.16-.333-.312-.5-.469-.164-.174-.333-.358-.5-.531-.17-.161-.331-.311-.5-.469-.318-.337-.67-.665-1-1-.318-.337-.67-.665-1-1-.31-.328-.647-.643-.969-.969-.316-.335-.672-.667-1-1-.163-.173-.334-.359-.5-.531-.168-.16-.333-.312-.5-.469-.164-.174-.333-.358-.5-.531-.168-.16-.333-.312-.5-.469-.164-.174-.333-.358-.5-.531-.171-.163-.33-.309-.5-.469-.318-.337-.67-.665-1-1-.159-.168-.338-.332-.5-.5-.066-.062-.122-.126-.188-.188-.097-.1-.183-.213-.281-.313-.313-.331-.675-.639-1-.969-.316-.335-.672-.667-1-1-.164-.174-.333-.358-.5-.531-.168-.16-.333-.312-.5-.469-.164-.174-.333-.358-.5-.531-.171-.163-.33-.309-.5-.469-.318-.337-.67-.665-1-1-.159-.168-.338-.332-.5-.5-.066-.062-.122-.126-.188-.188-.097-.1-.183-.213-.281-.313-.313-.331-.675-.639-1-.969-.316-.335-.672-.667-1-1-.164-.174-.333-.358-.5-.531-.168-.16-.333-.312-.5-.469-.164-.174-.333-.358-.5-.531-.17-.161-.331-.311-.5-.469-.318-.337-.67-.665-1-1-.318-.337-.67-.665-1-1-.31-.328-.647-.643-.969-.969-.316-.335-.672-.667-1-1-.164-.174-.333-.358-.5-.531-.168-.16-.333-.312-.5-.469-.164-.174-.333-.358-.5-.531-.168-.16-.333-.312-.5-.469-.318-.337-.67-.665-1-1-.318-.337-.67-.665-1-1-.308-.326-.649-.645-.969-.969-.316-.335-.672-.667-1-1-.316-.335-.672-.667-1-1-.164-.174-.333-.358-.5-.531-.168-.16-.333-.312-.5-.469-.164-.174-.333-.358-.5-.531-.171-.163-.33-.309-.5-.469-.318-.337-.67-.665-1-1-.159-.168-.338-.332-.5-.5-.066-.062-.122-.126-.188-.188-.097-.1-.183-.213-.281-.313-.313-.331-.675-.639-1-.969-.316-.335-.672-.667-1-1-.164-.174-.333-.358-.5-.531-.168-.16-.333-.312-.5-.469-.164-.174-.333-.358-.5-.531-.171-.163-.33-.309-.5-.469-.318-.337-.67-.665-1-1-.159-.168-.338-.332-.5-.5-.066-.062-.122-.126-.188-.188-.097-.1-.183-.213-.281-.313-.313-.331-.675-.639-1-.969-.316-.335-.672-.667-1-1-.164-.174-.333-.358-.5-.531-.168-.16-.333-.312-.5-.469-.164-.174-.333-.358-.5-.531-.17-.161-.331-.311-.5-.469-.318-.337-.67-.665-1-1-.318-.337-.67-.665-1-1-.31-.328-.647-.643-.969-.969-.316-.335-.672-.667-1-1-.164-.174-.333-.358-.5-.531-.168-.16-.333-.312-.5-.469-.164-.174-.333-.358-.5-.531-.168-.16-.333-.312-.5-.469-.318-.337-.67-.665-1-1-.318-.337-.67-.665-1-1-.159-.168-.338-.332-.5-.5-.066-.062-.122-.126-.188-.188-.097-.1-.183-.213-.281-.313-.313-.331-.675-.639-1-.969-.316-.335-.672-.667-1-1-.164-.174-.333-.358-.5-.531-.168-.16-.333-.312-.5-.469-.164-.174-.333-.358-.5-.531-.171-.163-.33-.309-.5-.469-.318-.337-.67-.665-1-1-.159-.168-.338-.332-.5-.5-.066-.062-.122-.126-.188-.188-.097-.1-.183-.213-.281-.313-.313-.331-.675-.639-1-.969-.316-.335-.672-.667-1-1-.164-.174-.333-.358-.5-.531-.168-.16-.333-.312-.5-.469-.164-.174-.333-.358-.5-.531-.171-.163-.33-.309-.5-.469-.318-.337-.67-.665-1-1-.318-.337-.67-.665-1-1-.31-.328-.647-.643-.969-.969-.316-.335-.672-.667-1-1-.164-.174-.333-.358-.5-.531-.168-.16-.333-.312-.5-.469-.164-.174-.333-.358-.5-.531-.168-.16-.333-.312-.5-.469-.318-.337-.67-.665-1-1-.318-.337-.67-.665-1-1-.308-.326-.649-.645-.969-.969-.316-.335-.672-.667-1-1-.316-.335-.672-.667-1-1-.164-.174-.333-.358-.5-.531-.168-.16-.333-.312-.5-.469-.164-.174-.333-.358-.5-.531-.171-.163-.33-.309-.5-.469-.318-.337-.67-.665-1-1-.159-.168-.338-.332-.5-.5-.066-.062-.122-.126-.188-.188-.097-.1-.183-.213-.281-.313-.313-.331-.675-.639-1-.969-.316-.335-.672-.667-1-1-.164-.174-.333-.358-.5-.531-.168-.16-.333-.312-.5-.469-.164-.174-.333-.358-.5-.531-.171-.163-.33-.309-.5-.469-.318-.337-.67-.665-1-1-.159-.168-.338-.332-.5-.5-.066-.062-.122-.126-.188-.188-.097-.1-.183-.213-.281-.313-.313-.331-.675-.639-1-.969-.316-.335-.672-.667-1-1-.164-.174-.333-.358-.5-.531-.168-.16-.333-.312-.5-.469-.164-.174-.333-.358-.5-.531-.17-.161-.331-.311-.5-.469-.318-.337-.67-.665-1-1-.318-.337-.67-.665-1-1-.31-.328-.647-.643-.969-.969-.316-.335-.672-.667-1-1-.164-.174-.333-.358-.5-.531-.168-.16-.333-.312-.5-.469-.164-.174-.333-.358-.5-.531-.168-.16-.333-.312-.5-.469-.794-.842-1.628-1.671-2.5-2.5-9.804-9.33-17.805-13.09-31-14.156-1.618-.13-3.165-.192-4.688-.188" fill-opacity=".235"/>
 <g fill-rule="evenodd">
  <path d="m256 1c-140.83 0-255 114.17-255 255s114.17 255 255 255 255-114.17 255-255-114.17-255-255-255m8.827 44.931c120.9 0 218.9 98 218.9 218.9s-98 218.9-218.9 218.9-218.93-98-218.93-218.9 98.03-218.9 218.93-218.9" fill-opacity=".067"/>
  <g fill-opacity=".129">
   <path d="m256 4.433c-138.94 0-251.57 112.63-251.57 251.57s112.63 251.57 251.57 251.57 251.57-112.63 251.57-251.57-112.63-251.57-251.57-251.57m5.885 38.556c120.9 0 218.9 98 218.9 218.9s-98 218.9-218.9 218.9-218.93-98-218.93-218.9 98.03-218.9 218.93-218.9"/>
   <path d="m256 8.356c-136.77 0-247.64 110.87-247.64 247.64s110.87 247.64 247.64 247.64 247.64-110.87 247.64-247.64-110.87-247.64-247.64-247.64m2.942 31.691c120.9 0 218.9 98 218.9 218.9s-98 218.9-218.9 218.9-218.93-98-218.93-218.9 98.03-218.9 218.93-218.9"/>
  </g>
  <path d="m253.04 7.859c-135.42 0-245.19 109.78-245.19 245.19 0 135.42 109.78 245.19 245.19 245.19 135.42 0 245.19-109.78 245.19-245.19 0-135.42-109.78-245.19-245.19-245.19zm0 26.297c120.9 0 218.9 98 218.9 218.9s-98 218.9-218.9 218.9-218.93-98-218.93-218.9 98.03-218.9 218.93-218.9z" fill="#ffffff" stroke="#000000" stroke-opacity=".31" stroke-width="4.904"/>
 </g>
 <path d="m286.8 129.63c-20.959 1.597-36.14 15.05-44.807 40.28-12.518 36.458-33.692 58.13-70.893 72.27-21.982 8.352-29.674 13.949-36.521 27.06-5.52 10.573-6.664 26.08-3.069 39.05 2.393 8.632 14.849 22.891 24.552 27.984 9.188 4.823 26.411 5.415 51.865 1.538 14.918-2.272 18.515-2.399 32.22.308 19.299 3.81 37.517 12.999 53.09 26.446 14.41 12.441 20.19 15.466 31.3 17.221 10.786 1.703 19.1.618 30.08-3.998 9.766-4.108 20.497-15.07 24.859-25.22 1.621-3.77 3.05-12.03 3.069-18.758.041-14.525-4.4-24.467-15.959-37.824-11.278-13.03-19.319-26.06-23.938-38.747-5.492-15.09-6.661-45.33-2.455-64.27 4.72-21.258.75-35.931-13.196-49.2-9.804-9.33-17.801-13.08-30.996-14.15-3.237-.26-6.213-.228-9.207 0m-20.255 95.94c10.762-.234 21.912 3.786 30.69 12.301 21.836 21.18 16.646 55.21-10.434 68.883-8.571 4.328-22.51 5.255-32.22 2.153-9.154-2.924-20.13-12.161-25.17-21.526-2.124-3.952-3.036-10.429-3.069-19.07-.042-10.916.801-13.998 5.217-21.526 7.937-13.53 21.15-20.918 34.986-21.22" fill="#ffffff"/>
</svg>
