<svg height="512" viewBox="0 0 512 512" width="512" xmlns="http://www.w3.org/2000/svg">
 <path d="m471.95 253.05c0 120.9-98.006 218.91-218.91 218.91s-218.91-98.006-218.91-218.91 98.006-218.91 218.91-218.91 218.91 98.006 218.91 218.91" fill="#939393" fill-rule="evenodd"/>
 <path d="m253.03 34.156c-33.367 0-64.981 7.4611-93.281 20.812l99.156 186.62 94.188-183.28c-29.99-15.437-64-24.152-100.06-24.152zm-126.28 40.063c-51.239 36.251-86.199 93.971-91.812 160.06l177.94-.59-86.13-159.47zm256.41 2.781l-86.13 157.16 174.16.59c-5.35-64.62-38.78-121.28-88.03-157.75zm-124.04 193.41l-96.656 182c27.598 12.557 58.265 19.562 90.562 19.562 35.172 0 68.397-8.3228 97.844-23.062zm211.47 6.84l-173.31.59 83.72 152.82c48.92-35.31 82.66-90.32 89.59-153.41zm-435.09.47c7.2527 64.676 42.703 120.81 93.75 155.88l83.84-155.29z" fill="#939393" fill-rule="evenodd"/>
 <path d="m164.34 52.875c-3.0586 1.3572-6.0796 2.7899-9.0625 4.2812l99.22 186.78 4.5 8.4375 4.375-8.5 94.156-183.22c-2.9291-1.5943-5.8982-3.1312-8.9062-4.5938l-89.781 174.72-94.5-177.91zm-33.438 18.5c-2.7912 1.8803-5.5522 3.809-8.25 5.8125l81.875 151.53-169.12.5625c-.35691 3.3067-.63579 6.6508-.84375 10l178.34-.59375 8.3438-.0312-3.9688-7.3438-86.375-159.94zm248.16 2.6875l-86.406 157.69-4.0312 7.375 8.4062.0312 174.5.59375c-.20142-3.3592-.46126-6.7145-.8125-10.031l-165.25-.53125 81.719-149.12c-2.6562-2.0627-5.3733-4.0589-8.125-6zm-119.84 185.56l-4.5 8.4375-96.781 182.22c3.0053 1.4517 6.0764 2.8086 9.1562 4.125l91.969-173.19 87.312 169.88c3.0294-1.4304 6.0175-2.9367 8.9688-4.5l-91.75-178.47-4.375-8.5zm211.88 12.625l-173.81.59375-8.4062.0312 4.0312 7.375 84 153.28c2.7746-1.9079 5.5072-3.8445 8.1875-5.875l-79.38-144.83 164.28-.53c.44346-3.323.80113-6.6628 1.0938-10.031zm-436.06.46875c.29898 3.3581.64484 6.6873 1.0938 10l168.62.5625-79.625 147.44c2.7177 1.96 5.5032 3.8512 8.3125 5.6875l84.06-155.71 3.9688-7.3438-8.3438-.0312-178.09-.59375z" fill="#939393" fill-rule="evenodd"/>
 <path d="m256 1c-140.83 0-255 114.17-255 255s114.17 255 255 255 255-114.17 255-255-114.17-255-255-255m8.827 44.931c120.9 0 218.9 98 218.9 218.9s-98 218.9-218.9 218.9-218.93-98-218.93-218.9 98.03-218.9 218.93-218.9" fill-opacity=".067" fill-rule="evenodd"/>
 <path d="m256 4.43c-138.94 0-251.57 112.63-251.57 251.57s112.63 251.57 251.57 251.57 251.57-112.63 251.57-251.57-112.63-251.57-251.57-251.57m5.885 38.556c120.9 0 218.9 98 218.9 218.9s-98 218.9-218.9 218.9-218.93-98-218.93-218.9 98.03-218.9 218.93-218.9" fill-opacity=".129" fill-rule="evenodd"/>
 <path d="m256 8.36c-136.77 0-247.64 110.87-247.64 247.64s110.87 247.64 247.64 247.64 247.64-110.87 247.64-247.64-110.87-247.64-247.64-247.64m2.942 31.691c120.9 0 218.9 98 218.9 218.9s-98 218.9-218.9 218.9-218.93-98-218.93-218.9 98.03-218.9 218.93-218.9" fill-opacity=".129" fill-rule="evenodd"/>
 <path d="m261.41 131.31c-13.73.12-27.21 1.92-40.19 5.31-.97.26-1.91.51-2.88.79-60.73 17.09-109.78 69.23-123.65 143.18-.055.28-.139.57-.19.85-1.185 4.79-2.209 9.67-3.031 14.65l-1.125 6.75 169.02 169.02c115.09-3.26 207.92-95.35 212.4-210.13l-55.77-55.77c-2.67-2.67-5.39-5.24-8.12-7.72l-3.25-3.25c-43.96-43.96-95.13-64.1-143.21-63.68z" opacity=".25"/>
 <path d="m261.41 131.31c-13.724.12133-27.204 1.9172-40.188 5.3125-.9693.25348-1.911.50903-2.875.78125-60.729 17.092-109.79 69.231-123.66 143.19-.05266.28025-.13662.5626-.1875.84375-1.1853 4.7921-2.2092 9.6741-3.0312 14.656l-1.125 6.75 4.875 4.8125c2.1992 2.168 4.4177 4.2364 6.625 6.25.0187.017.0126.0455.0312.0625 55.525 57.632 123.99 77.36 183.81 61.375 59.818-15.988 109.92-67.344 130.59-145.78.0652-.19546.0804-.20886.0312-.0625.0214-.0634.042-.12413.0625-.1875.0518-.19904.10448-.39382.15625-.59375 1.0425-3.1498 2.0343-6.3547 2.9688-9.625l2.1562-7.4688-5.4688-5.4688c-2.7535-2.7615-5.5563-5.4054-8.375-7.9688-.20886-.216-.4465-.40989-.65625-.625-44.523-45.75-96.737-66.683-145.75-66.25z" fill="#ffffff"/>
 <path d="m253.04 7.86c-135.42 0-245.19 109.78-245.19 245.19 0 135.42 109.78 245.19 245.19 245.19 135.42 0 245.19-109.78 245.19-245.19 0-135.42-109.78-245.19-245.19-245.19zm0 26.297c120.9 0 218.9 98 218.9 218.9s-98 218.9-218.9 218.9-218.93-98-218.93-218.9 98.03-218.9 218.93-218.9z" fill="#ffffff" fill-rule="evenodd" stroke="#000000" stroke-opacity=".31" stroke-width="4.904"/>
 <path d="m-26.034 124.75a66.169 66.169 0 1 1 -132.34 0 66.169 66.169 0 1 1 132.34 0z" fill="#939393" transform="matrix(1.2434 0 0 1.2434 370.65 100.89)"/>
 <path d="m-26.034 124.75a66.169 66.169 0 1 1 -132.34 0 66.169 66.169 0 1 1 132.34 0z" fill="#939393" transform="matrix(.66383 0 0 .66383 317.21 173.19)"/>
</svg>
