<svg height="512" viewBox="0 0 512 512" width="512" xmlns="http://www.w3.org/2000/svg">
 <g fill-rule="evenodd">
  <path d="m471.95 253.05c0 120.9-98.01 218.9-218.9 218.9-120.9 0-218.9-98.01-218.9-218.9 0-120.9 98.01-218.9 218.9-218.9 120.9 0 218.9 98.01 218.9 218.9" fill="#939393"/>
  <path d="m256 106.38c-49.42 0-92.62 26.566-116.19 66.16-5.539 9.305-9.96 19.339-13.156 29.906l1.219.344c-.068.221-.152.435-.219.656 0 0 1.196.337 1.219.344-.068.221-.152.435-.219.656 0 0 1.166.337 1.188.344-.064.208-.124.416-.188.625 0 0 1.166.337 1.188.344-.068.22-.152.436-.219.656 0 0 1.196.337 1.219.344-.068.221-.152.435-.219.656 0 0 1.196.337 1.219.344-.068.221-.152.435-.219.656 0 0 1.196.337 1.219.344-.068.221-.152.435-.219.656 0 0 1.196.337 1.219.344-.068.221-.152.435-.219.656 0 0 1.166.337 1.188.344-.064.208-.124.416-.188.625 0 0 1.166.337 1.188.344-.068.22-.152.436-.219.656 0 0 1.196.337 1.219.344-.068.221-.152.435-.219.656 0 0 1.196.337 1.219.344-.068.221-.152.435-.219.656 0 0 1.196.337 1.219.344-.068.221-.152.435-.219.656 0 0 1.196.337 1.219.344-.068.221-.152.435-.219.656 0 0 1.166.337 1.188.344-.065.21-.124.415-.188.625 0 0 1.166.337 1.188.344-.068.22-.152.436-.219.656 0 0 1.196.337 1.219.344-.068.221-.152.435-.219.656 0 0 1.196.337 1.219.344-.068.221-.152.435-.219.656 0 0 1.196.337 1.219.344-.068.221-.152.435-.219.656 0 0 1.196.337 1.219.344-.068.221-.152.435-.219.656 0 0 1.196.337 1.219.344-.068.221-.152.435-.219.656 0 0 1.136.338 1.156.344-.064.208-.125.417-.188.625 0 0 1.196.337 1.219.344-.068.22-.152.436-.219.656 0 0 1.196.337 1.219.344-.068.221-.152.435-.219.656 0 0 1.196.337 1.219.344-.068.221-.152.435-.219.656 0 0 1.196.337 1.219.344-.068.221-.152.435-.219.656 0 0 1.196.337 1.219.344-.068.221-.152.435-.219.656 0 0 1.166.337 1.188.344-.064.208-.124.416-.188.625 0 0 1.166.337 1.188.344-.068.22-.152.436-.219.656l1.219.344c-.068.221-.152.435-.219.656 0 0 1.196.337 1.219.344-.068.221-.152.435-.219.656 0 0 1.196.337 1.219.344-.068.221-.152.435-.219.656 0 0 1.196.337 1.219.344-.068.221-.152.435-.219.656l1.188.344c-.065.21-.124.415-.188.625l1.188.344c-.068.22-.152.436-.219.656 0 0 1.196.337 1.219.344-.068.221-.152.435-.219.656 0 0 1.196.337 1.219.344-.068.221-.152.435-.219.656l1.219.344c-.068.221-.152.435-.219.656 0 0 1.196.337 1.219.344-.029.095-.065.187-.094.281h-73.53v.031c-.001.258 0 .523 0 .781 0 46.06 18.981 87.69 49.563 117.47.145.146.292.292.438.438.323.313.643.628.969.938.005.005-.005.026 0 .031.14.14.297.267.438.406.051.053.105.103.156.156.151.152.286.318.438.469.491.499.972 1.01 1.469 1.5.166.167.333.333.5.5.163.16.336.309.5.469.478.482.954.961 1.438 1.438l.063.063c.269.265.541.518.813.781.01.011.021.021.031.031.031.032.063.062.094.094.157.157.312.313.469.469.051.053.105.103.156.156.151.152.286.318.438.469.491.499.972 1.01 1.469 1.5.166.167.333.333.5.5.131.129.274.246.406.375.508.513 1.017 1.025 1.531 1.531l.063.063c.268.263.543.52.813.781.01.011.021.021.031.031.057.057.099.13.156.188.131.129.275.246.406.375.191.184.37.38.563.563.01.011.021.021.031.031.006.006-.006.025 0 .031l.031.031c.45.458.888.922 1.344 1.375.363.366.728.731 1.094 1.094.166.167.333.333.5.5.31.305.625.604.938.906l.063.063c.27.261.541.522.813.781.01.011.021.021.031.031.057.057.099.13.156.188.131.129.275.246.406.375.191.184.37.38.563.563.01.011.021.021.031.031.006.006-.006.025 0 .031l.031.031c.45.458.888.922 1.344 1.375.363.366.728.731 1.094 1.094.166.167.333.333.5.5.31.305.625.604.938.906l.063.063c.27.261.541.522.813.781.01.011.021.021.031.031.057.057.099.13.156.188.131.129.275.246.406.375.191.184.37.38.563.563.005.005-.005.026 0 .031.14.14.297.267.438.406.051.053.105.103.156.156.151.152.286.318.438.469.491.499.972 1.01 1.469 1.5.166.167.333.333.5.5.163.16.336.309.5.469.478.482.954.961 1.438 1.438l.063.063c.269.265.541.518.813.781.01.011.021.021.031.031.031.032.063.062.094.094.157.157.312.313.469.469.051.053.105.103.156.156.151.152.286.318.438.469.491.499.972 1.01 1.469 1.5.166.167.333.333.5.5.131.129.274.246.406.375.508.513 1.017 1.025 1.531 1.531l.063.063c.268.263.543.52.813.781.01.011.021.021.031.031.057.057.099.13.156.188.131.129.275.246.406.375.191.184.37.38.563.563.01.011.021.021.031.031.006.006-.006.025 0 .031l.031.031c.45.458.888.922 1.344 1.375.363.366.728.731 1.094 1.094.166.167.333.333.5.5.31.305.625.604.938.906l.063.063c.27.261.541.522.813.781.01.011.021.021.031.031.057.057.099.13.156.188.131.129.275.246.406.375.191.184.37.38.563.563.005.005-.005.026 0 .031.14.14.297.267.438.406.051.053.105.103.156.156.151.152.286.318.438.469.491.499.972 1.01 1.469 1.5.166.167.333.333.5.5.163.16.336.309.5.469.478.482.954.961 1.438 1.438l.063.063c.269.265.541.518.813.781.01.011.021.021.031.031.031.032.063.062.094.094.157.157.312.313.469.469.051.053.105.103.156.156.151.152.286.318.438.469.491.499.972 1.01 1.469 1.5.166.167.333.333.5.5.131.129.274.246.406.375.51.515 1.015 1.023 1.531 1.531l.063.063c.269.265.541.518.813.781.01.011.021.021.031.031.187.188.374.375.563.563.031.032.063.062.094.094.129.133.245.274.375.406l.156.156c.45.458.888.922 1.344 1.375.363.366.728.731 1.094 1.094.166.167.333.333.5.5.31.305.625.604.938.906l.063.063c.27.261.541.522.813.781.01.011.021.021.031.031.057.057.099.13.156.188.131.129.275.246.406.375.191.184.37.38.563.563.01.011.021.021.031.031.006.006-.006.025 0 .031l.031.031c.45.458.888.922 1.344 1.375.363.366.728.731 1.094 1.094.166.167.333.333.5.5.31.305.625.604.938.906l.063.063c.27.261.541.522.813.781.01.011.021.021.031.031.057.057.099.13.156.188.131.129.275.246.406.375.191.184.37.38.563.563.005.005-.005.026 0 .031.14.14.297.267.438.406.051.053.105.103.156.156.151.152.286.318.438.469.491.499.972 1.01 1.469 1.5.166.167.333.333.5.5.163.16.336.309.5.469.478.482.954.961 1.438 1.438l.063.063c.269.265.541.518.813.781.01.011.021.021.031.031.031.032.063.062.094.094.157.157.312.313.469.469.051.053.105.103.156.156.151.152.286.318.438.469.491.499.972 1.01 1.469 1.5.166.167.333.333.5.5.131.129.274.246.406.375.508.513 1.017 1.025 1.531 1.531l.063.063c.268.263.543.52.813.781.01.011.021.021.031.031.057.057.099.13.156.188.131.129.275.246.406.375.191.184.37.38.563.563.01.011.021.021.031.031.006.006-.006.025 0 .031l.031.031c.45.458.888.922 1.344 1.375.363.366.728.731 1.094 1.094.166.167.333.333.5.5.31.305.625.604.938.906l.063.063c.27.261.541.522.813.781.01.011.021.021.031.031.057.057.099.13.156.188.131.129.275.246.406.375.191.184.37.38.563.563.005.005-.005.026 0 .031.14.14.297.267.438.406.051.053.105.103.156.156.151.152.286.318.438.469.491.499.972 1.01 1.469 1.5.166.167.333.333.5.5.163.16.336.309.5.469.478.482.954.961 1.438 1.438l.063.063c.269.265.541.518.813.781.01.011.021.021.031.031.031.032.063.062.094.094.157.157.312.313.469.469.051.053.105.103.156.156.151.152.286.318.438.469.491.499.972 1.01 1.469 1.5.166.167.333.333.5.5.163.16.336.309.5.469.478.482.954.961 1.438 1.438l.063.063c.269.265.541.518.813.781.01.011.021.021.031.031.187.188.374.375.563.563.031.032.063.062.094.094.129.133.245.274.375.406l.156.156c.482.49.949.985 1.438 1.469.166.167.333.333.5.5.131.129.274.246.406.375.508.513 1.017 1.025 1.531 1.531l.063.063c.268.263.543.52.813.781.01.011.021.021.031.031.057.057.099.13.156.188.131.129.275.246.406.375.191.184.37.38.563.563.01.011.021.021.031.031.006.006-.006.025 0 .031l.031.031c.45.458.888.922 1.344 1.375.363.366.728.731 1.094 1.094.166.167.333.333.5.5.31.305.625.604.938.906l.063.063c.27.261.541.522.813.781.01.011.021.021.031.031.031.031.067.059.094.094 115.9-.73 210.43-91.52 217.13-205.91l-.125-.125c-.332-.336-.665-.668-1-1-.332-.336-.665-.668-1-1-.329-.332-.668-.671-1-1-.65-.658-1.305-1.325-1.969-1.969-.166-.168-.333-.333-.5-.5-.168-.164-.331-.336-.5-.5-.847-.875-1.724-1.711-2.594-2.563-.786-.802-1.569-1.624-2.375-2.406-.166-.168-.333-.333-.5-.5-.168-.164-.331-.336-.5-.5-.332-.336-.665-.668-1-1-.332-.336-.665-.668-1-1-.332-.336-.665-.668-1-1-.65-.658-1.305-1.325-1.969-1.969-.166-.168-.333-.333-.5-.5-.168-.164-.331-.336-.5-.5-.332-.336-.665-.668-1-1-.332-.336-.665-.668-1-1-.332-.336-.665-.668-1-1-.329-.332-.668-.671-1-1-.322-.325-.644-.647-.969-.969-.332-.336-.665-.668-1-1-.332-.336-.665-.668-1-1-.332-.336-.665-.668-1-1-.332-.336-.665-.668-1-1-.329-.332-.668-.671-1-1-.65-.658-1.305-1.325-1.969-1.969-.166-.168-.333-.333-.5-.5-.168-.164-.331-.336-.5-.5-.847-.875-1.724-1.711-2.594-2.563-.786-.802-1.569-1.624-2.375-2.406-.166-.168-.333-.333-.5-.5-.168-.164-.331-.336-.5-.5-.332-.336-.665-.668-1-1-.332-.336-.665-.668-1-1-.332-.336-.665-.668-1-1-.329-.332-.668-.671-1-1-.322-.325-.644-.647-.969-.969-.332-.336-.665-.668-1-1-.332-.336-.665-.668-1-1-.332-.336-.665-.668-1-1-.332-.336-.665-.668-1-1-.329-.332-.668-.671-1-1-.322-.325-.644-.647-.969-.969-.332-.336-.665-.668-1-1-.166-.168-.333-.333-.5-.5-.168-.164-.331-.336-.5-.5-.847-.875-1.724-1.711-2.594-2.563-.786-.802-1.569-1.624-2.375-2.406-.166-.168-.333-.333-.5-.5-.168-.164-.331-.336-.5-.5-.332-.336-.665-.668-1-1-.332-.336-.665-.668-1-1-.332-.336-.665-.668-1-1-.65-.658-1.305-1.325-1.969-1.969-.166-.168-.333-.333-.5-.5-.168-.164-.331-.336-.5-.5-.332-.336-.665-.668-1-1-.332-.336-.665-.668-1-1-.332-.336-.665-.668-1-1-.329-.332-.668-.671-1-1-.322-.325-.644-.647-.969-.969-.332-.336-.665-.668-1-1-.332-.336-.665-.668-1-1-.332-.336-.665-.668-1-1-.332-.336-.665-.668-1-1-.329-.332-.668-.671-1-1-.65-.658-1.305-1.325-1.969-1.969-.166-.168-.333-.333-.5-.5-.168-.164-.331-.336-.5-.5-.847-.875-1.724-1.711-2.594-2.563-.786-.802-1.569-1.624-2.375-2.406-.166-.168-.333-.333-.5-.5-.168-.164-.331-.336-.5-.5-.332-.336-.665-.668-1-1-.332-.336-.665-.668-1-1-.332-.336-.665-.668-1-1-.329-.332-.668-.671-1-1-.322-.325-.644-.647-.969-.969-.332-.336-.665-.668-1-1-.332-.336-.665-.668-1-1-.332-.336-.665-.668-1-1-.332-.336-.665-.668-1-1-.329-.332-.668-.671-1-1-.322-.325-.644-.647-.969-.969-.332-.336-.665-.668-1-1-.166-.168-.333-.333-.5-.5-.168-.164-.331-.336-.5-.5-.847-.875-1.724-1.711-2.594-2.563-.786-.802-1.569-1.624-2.375-2.406-.166-.168-.333-.333-.5-.5-.168-.164-.331-.336-.5-.5-.332-.336-.665-.668-1-1-.332-.336-.665-.668-1-1-.332-.336-.665-.668-1-1-.65-.658-1.305-1.325-1.969-1.969-.166-.168-.333-.333-.5-.5-.168-.164-.331-.336-.5-.5-.332-.336-.665-.668-1-1-.332-.336-.665-.668-1-1-.332-.336-.665-.668-1-1-.329-.332-.668-.671-1-1-.322-.325-.644-.647-.969-.969-.332-.336-.665-.668-1-1-.332-.336-.665-.668-1-1-.332-.336-.665-.668-1-1-.332-.336-.665-.668-1-1-.329-.332-.668-.671-1-1-.65-.658-1.305-1.325-1.969-1.969-.166-.168-.333-.333-.5-.5-.168-.164-.331-.336-.5-.5-24.558-25.361-58.949-41.12-97.03-41.12" fill-opacity=".235"/>
  <path d="m256 1c-140.83 0-255 114.17-255 255s114.17 255 255 255 255-114.17 255-255-114.17-255-255-255m8.827 44.931c120.9 0 218.9 98 218.9 218.9s-98 218.9-218.9 218.9-218.93-98-218.93-218.9 98.03-218.9 218.93-218.9" fill-opacity=".067"/>
  <g fill-opacity=".129">
   <path d="m256 4.433c-138.94 0-251.57 112.63-251.57 251.57s112.63 251.57 251.57 251.57 251.57-112.63 251.57-251.57-112.63-251.57-251.57-251.57m5.885 38.556c120.9 0 218.9 98 218.9 218.9s-98 218.9-218.9 218.9-218.93-98-218.93-218.9 98.03-218.9 218.93-218.9"/>
   <path d="m256 8.356c-136.77 0-247.64 110.87-247.64 247.64s110.87 247.64 247.64 247.64 247.64-110.87 247.64-247.64-110.87-247.64-247.64-247.64m2.942 31.691c120.9 0 218.9 98 218.9 218.9s-98 218.9-218.9 218.9-218.93-98-218.93-218.9 98.03-218.9 218.93-218.9"/>
  </g>
  <path d="m253.04 7.859c-135.42 0-245.19 109.78-245.19 245.19 0 135.42 109.78 245.19 245.19 245.19 135.42 0 245.19-109.78 245.19-245.19 0-135.42-109.78-245.19-245.19-245.19zm0 26.297c120.9 0 218.9 98 218.9 218.9s-98 218.9-218.9 218.9-218.93-98-218.93-218.9 98.03-218.9 218.93-218.9z" fill="#ffffff" stroke="#000000" stroke-opacity=".31" stroke-width="4.904"/>
 </g>
 <path d="m256 106.37c-49.42 0-92.62 26.587-116.19 66.18-5.539 9.305-9.962 19.321-13.159 29.888l129.96 38.456h-164.56c-.001.258 0 .532 0 .791 0 90.55 73.4 163.95 163.95 163.95s163.95-73.4 163.95-163.95c0-.258.001-.532 0-.791h-28.817c-.116-24.979-7.02-48.31-18.948-68.34-23.567-39.59-66.767-66.18-116.19-66.18" fill="#ffffff" fill-rule="evenodd"/>
</svg>
