<svg height="512" viewBox="0 0 512 512" width="512" xmlns="http://www.w3.org/2000/svg">
 <path d="m471.95 253.05c0 120.9-98.01 218.9-218.9 218.9-120.9 0-218.9-98.01-218.9-218.9 0-120.9 98.01-218.9 218.9-218.9 120.9 0 218.9 98.01 218.9 218.9" fill="#939393" fill-rule="evenodd"/>
 <path d="m142.97 137.44c-8.05 0-14.438 6.357-14.438 14.344v208.44c0 4.2 1.779 7.925 4.625 10.531.314.351.653.682 1 1 .32.358.645.707 1 1.031.341.379.714.722 1.094 1.063.294.322.584.644.906.938.356.395.727.772 1.125 1.125.266.288.554.547.844.813.314.351.653.682 1 1 .343.383.711.75 1.094 1.094.319.35.647.684 1 1 .294.322.584.644.906.938.356.395.727.772 1.125 1.125.266.288.554.547.844.813.314.351.653.682 1 1 .343.383.711.75 1.094 1.094.292.319.587.646.906.938.341.379.714.722 1.094 1.063.314.344.622.688.969 1 .285.312.595.59.906.875.314.351.653.682 1 1 .314.351.653.682 1 1 .32.358.645.707 1 1.031.341.379.714.722 1.094 1.063.314.344.622.688.969 1 .314.344.653.657 1 .969.29.318.589.616.906.906.314.351.653.682 1 1 .32.358.645.707 1 1.031.341.379.714.722 1.094 1.063.294.322.584.644.906.938.356.395.727.772 1.125 1.125.266.288.554.547.844.813.314.351.653.682 1 1 .343.383.711.75 1.094 1.094.292.319.587.646.906.938.316.351.651.682 1 1 .356.395.727.772 1.125 1.125.266.288.554.547.844.813.314.351.653.682 1 1 .343.383.711.75 1.094 1.094.292.319.587.646.906.938.341.379.714.722 1.094 1.063.314.344.622.688.969 1 .314.344.653.657 1 .969.29.318.589.616.906.906.314.351.653.682 1 1 .32.358.645.707 1 1.031.341.379.714.722 1.094 1.063.294.322.584.644.906.938.356.395.727.772 1.125 1.125.266.288.554.547.844.813.314.351.653.682 1 1 .343.383.711.75 1.094 1.094.319.35.647.684 1 1 .294.322.584.644.906.938.356.395.727.772 1.125 1.125.266.288.554.547.844.813.314.351.653.682 1 1 .343.383.711.75 1.094 1.094.292.319.587.646.906.938.316.351.651.682 1 1 .356.395.727.772 1.125 1.125.266.288.554.547.844.813.314.351.653.682 1 1 .314.351.653.682 1 1 .32.358.645.707 1 1.031.341.379.714.722 1.094 1.063.314.344.622.688.969 1 .314.344.653.657 1 .969.29.318.589.616.906.906.314.351.653.682 1 1 .32.358.645.707 1 1.031.341.379.714.722 1.094 1.063.294.322.584.644.906.938.356.395.727.772 1.125 1.125.266.288.554.547.844.813.314.351.653.682 1 1 .343.383.711.75 1.094 1.094.292.319.587.646.906.938.316.351.651.682 1 1 .356.395.727.772 1.125 1.125.266.288.554.547.844.813.314.351.653.682 1 1 .343.383.711.75 1.094 1.094.292.319.587.646.906.938.341.379.714.722 1.094 1.063.314.344.622.688.969 1 .314.344.653.657 1 .969.29.318.589.616.906.906.314.351.653.682 1 1 .32.358.645.707 1 1.031.341.379.714.722 1.094 1.063.294.322.584.644.906.938.356.395.727.772 1.125 1.125.266.288.554.547.844.813.314.351.653.682 1 1 .32.358.645.707 1 1.031.341.379.714.722 1.094 1.063.294.322.584.644.906.938.356.395.727.772 1.125 1.125.266.288.554.547.844.813.255.285.533.55.813.813 6.447.571 12.967.906 19.563.906 120.9 0 218.91-98.01 218.91-218.91 0-6.601-.303-13.14-.875-19.594-.225-.243-.442-.494-.688-.719-.341-.379-.714-.722-1.094-1.063-.314-.344-.622-.688-.969-1-.314-.344-.653-.657-1-.969-.29-.318-.589-.616-.906-.906-.314-.351-.653-.682-1-1-.32-.358-.645-.707-1-1.031-.341-.379-.714-.722-1.094-1.063-.294-.322-.584-.644-.906-.938-.356-.395-.727-.772-1.125-1.125-.266-.288-.554-.547-.844-.813-.314-.351-.653-.682-1-1-.343-.383-.711-.75-1.094-1.094-.292-.319-.587-.646-.906-.938-.316-.351-.651-.682-1-1-.356-.395-.727-.772-1.125-1.125-.266-.288-.554-.547-.844-.813-.314-.351-.653-.682-1-1-.343-.383-.711-.75-1.094-1.094-.292-.319-.587-.646-.906-.938-.341-.379-.714-.722-1.094-1.063-.314-.344-.622-.688-.969-1-.285-.312-.595-.59-.906-.875-.314-.351-.653-.682-1-1-.314-.351-.653-.682-1-1-.32-.358-.645-.707-1-1.031-.341-.379-.714-.722-1.094-1.063-.294-.322-.584-.644-.906-.938-.356-.395-.727-.772-1.125-1.125-.266-.288-.554-.547-.844-.813-.314-.351-.653-.682-1-1-.32-.358-.645-.707-1-1.031-.341-.379-.714-.722-1.094-1.063-.294-.322-.584-.644-.906-.938-.356-.395-.727-.772-1.125-1.125-.266-.288-.554-.547-.844-.813-.314-.351-.653-.682-1-1-.343-.383-.711-.75-1.094-1.094-.292-.319-.587-.646-.906-.938-.316-.351-.651-.682-1-1-.356-.395-.727-.772-1.125-1.125-.266-.288-.554-.547-.844-.813-.314-.351-.653-.682-1-1-.314-.351-.653-.682-1-1-.32-.358-.645-.707-1-1.031-.341-.379-.714-.722-1.094-1.063-.314-.344-.622-.688-.969-1-.314-.344-.653-.657-1-.969-.29-.318-.589-.616-.906-.906-.314-.351-.653-.682-1-1-.32-.358-.645-.707-1-1.031-.341-.379-.714-.722-1.094-1.063-.294-.322-.584-.644-.906-.938-.356-.395-.727-.772-1.125-1.125-.266-.288-.554-.547-.844-.813-.314-.351-.653-.682-1-1-.343-.383-.711-.75-1.094-1.094-.319-.35-.647-.684-1-1-.294-.322-.584-.644-.906-.938-.356-.395-.727-.772-1.125-1.125-.266-.288-.554-.547-.844-.813-.314-.351-.653-.682-1-1-.343-.383-.711-.75-1.094-1.094-.292-.319-.587-.646-.906-.938-.341-.379-.714-.722-1.094-1.063-.314-.344-.622-.688-.969-1-.285-.312-.595-.59-.906-.875-.314-.351-.653-.682-1-1-.314-.351-.653-.682-1-1-.32-.358-.645-.707-1-1.031-.341-.379-.714-.722-1.094-1.063-.294-.322-.584-.644-.906-.938-.356-.395-.727-.772-1.125-1.125-.266-.288-.554-.547-.844-.813-.314-.351-.653-.682-1-1-.32-.358-.645-.707-1-1.031-.341-.379-.714-.722-1.094-1.063-.294-.322-.584-.644-.906-.938-.356-.395-.727-.772-1.125-1.125-.266-.288-.554-.547-.844-.813-.314-.351-.653-.682-1-1-.343-.383-.711-.75-1.094-1.094-.292-.319-.587-.646-.906-.938-.316-.351-.651-.682-1-1-.356-.395-.727-.772-1.125-1.125-.266-.288-.554-.547-.844-.813-.314-.351-.653-.682-1-1-.314-.351-.653-.682-1-1-.32-.358-.645-.707-1-1.031-.341-.379-.714-.722-1.094-1.063-.314-.344-.622-.688-.969-1-.314-.344-.653-.657-1-.969-2.631-2.889-6.429-4.719-10.719-4.719h-226.06" fill-opacity=".235"/>
 <g fill-rule="evenodd">
  <path d="m256 1c-140.83 0-255 114.17-255 255s114.17 255 255 255 255-114.17 255-255-114.17-255-255-255m8.827 44.931c120.9 0 218.9 98 218.9 218.9s-98 218.9-218.9 218.9-218.93-98-218.93-218.9 98.03-218.9 218.93-218.9" fill-opacity=".067"/>
  <g fill-opacity=".129">
   <path d="m256 4.433c-138.94 0-251.57 112.63-251.57 251.57s112.63 251.57 251.57 251.57 251.57-112.63 251.57-251.57-112.63-251.57-251.57-251.57m5.885 38.556c120.9 0 218.9 98 218.9 218.9s-98 218.9-218.9 218.9-218.93-98-218.93-218.9 98.03-218.9 218.93-218.9"/>
   <path d="m256 8.356c-136.77 0-247.64 110.87-247.64 247.64s110.87 247.64 247.64 247.64 247.64-110.87 247.64-247.64-110.87-247.64-247.64-247.64m2.942 31.691c120.9 0 218.9 98 218.9 218.9s-98 218.9-218.9 218.9-218.93-98-218.93-218.9 98.03-218.9 218.93-218.9"/>
  </g>
  <path d="m253.04 7.859c-135.42 0-245.19 109.78-245.19 245.19 0 135.42 109.78 245.19 245.19 245.19 135.42 0 245.19-109.78 245.19-245.19 0-135.42-109.78-245.19-245.19-245.19zm0 26.297c120.9 0 218.9 98 218.9 218.9s-98 218.9-218.9 218.9-218.93-98-218.93-218.9 98.03-218.9 218.93-218.9z" fill="#ffffff" stroke="#000000" stroke-opacity=".31" stroke-width="4.904"/>
 </g>
 <path d="m142.96 137.45c-8.05 0-14.441 6.338-14.441 14.325v208.45c0 7.987 6.389 14.325 14.441 14.325h226.07c8.05 0 14.441-6.338 14.441-14.325v-208.45c0-7.987-6.389-14.325-14.441-14.325zm113.04 15.8c34.644 0 95.61.095 103.57 8.645 7.967 7.257 7.948 57.31 7.967 86.2.016 29.31 0 79.13-7.967 87.68s-68.963 7.162-103.57 7.162c-34.611 0-95.61.094-103.57-7.162-7.967-8.55-7.986-58.37-7.967-87.68.02-28.884 0-78.94 7.967-86.2 7.967-8.55 68.93-8.645 103.57-8.645m79.67 197.59c4.4 0 7.967 3.538 7.967 7.904 0 4.365-3.567 7.903-7.967 7.903s-7.967-3.538-7.967-7.903 3.567-7.904 7.967-7.904m23.902 0c4.4 0 7.967 3.538 7.967 7.904 0 4.365-3.567 7.903-7.967 7.903s-7.967-3.538-7.967-7.903 3.567-7.904 7.967-7.904" fill="#ffffff"/>
</svg>
