<svg height="512" viewBox="0 0 512 512" width="512" xmlns="http://www.w3.org/2000/svg">
 <path d="m471.95 253.05c0 120.9-98.006 218.91-218.91 218.91s-218.91-98.006-218.91-218.91 98.006-218.91 218.91-218.91 218.91 98.006 218.91 218.91" fill="#a4a4a4" fill-rule="evenodd"/>
 <path d="m343.53 139.38c-7.84 36.17-16.09 72.22-23.94 108.4-6.74-6.72-.03.07-14.06-14.22-13.22.95-37.51-.58-44.75-1.47-18.96-17.16.34.14-57.22-52.18-7.96 6.35-15.03 6.1-21.84 9.87l-74.75 182.97c91.31 81.7 95.55 86.23 106.47 95.63 12.84 2.34 26.07 3.59 39.59 3.59 120.9 0 218.91-98.01 218.91-218.91 0-7.29-.37-14.51-1.06-21.62-30.17-27.62.23.87-98.54-90.82-8.47-.4-20.34-.84-28.81-1.24z" opacity=".25"/>
 <path d="m256 1c-140.83 0-255 114.17-255 255s114.17 255 255 255 255-114.17 255-255-114.17-255-255-255m8.827 44.931c120.9 0 218.9 98 218.9 218.9s-98 218.9-218.9 218.9-218.93-98-218.93-218.9 98.03-218.9 218.93-218.9" fill-opacity=".067" fill-rule="evenodd"/>
 <path d="m256 4.43c-138.94 0-251.57 112.63-251.57 251.57s112.63 251.57 251.57 251.57 251.57-112.63 251.57-251.57-112.63-251.57-251.57-251.57m5.885 38.556c120.9 0 218.9 98 218.9 218.9s-98 218.9-218.9 218.9-218.93-98-218.93-218.9 98.03-218.9 218.93-218.9" fill-opacity=".129" fill-rule="evenodd"/>
 <path d="m256 8.36c-136.77 0-247.64 110.87-247.64 247.64s110.87 247.64 247.64 247.64 247.64-110.87 247.64-247.64-110.87-247.64-247.64-247.64m2.942 31.691c120.9 0 218.9 98 218.9 218.9s-98 218.9-218.9 218.9-218.93-98-218.93-218.9 98.03-218.9 218.93-218.9" fill-opacity=".129" fill-rule="evenodd"/>
 <path d="m253.04 7.86c-135.42 0-245.19 109.78-245.19 245.19 0 135.42 109.78 245.19 245.19 245.19 135.42 0 245.19-109.78 245.19-245.19 0-135.42-109.78-245.19-245.19-245.19zm0 26.297c120.9 0 218.9 98 218.9 218.9s-98 218.9-218.9 218.9-218.93-98-218.93-218.9 98.03-218.9 218.93-218.9z" fill="#ffffff" fill-rule="evenodd" stroke="#000000" stroke-opacity=".31" stroke-width="4.904"/>
 <path d="m343.12 139.25l-41.25 190.44-1.6875 8.0312 7.9375-1.0625 17.688-2.8125 3.7812-.28125 1.0938-3.875 6.1562-27.625 6.9688 24.531 1.4062 4.875 4.75-.6875 18.41-2.79 6.5625-.6875-17.312-56.469 47.406-51.281-16.188 2.7812-16.312 2.7812h-1.6875l-1.375 1.4062-20.09 21.85 22.87-107.72-29.13-1.41zm-139.56 40.56l-19.03 3.1-77.56 189.84 10.03-2.06 16.281-2.7812 3.0938-.6875 1.0625-2.7812 12.438-31.844 24.25-3.4688v24.938l-.34375 6.5625 6.5625-1.0312 19.062-3.125 4.8438-.6875-.34375-4.8438-.34375-171.09v-.0312zm77.281 48.938c-1.182.0258-2.4597.10053-3.8438.1875-19.401.69573-37.065 12.457-40.156 26.312-2.4251 11.082.68686 18.692 12.812 32.219 12.811 13.487 15.917 19.383 14.188 27.344-1.0337 5.1782-9.7116 11.765-19.75 13.156-5.1981.67586-8.6604.67586-11.781 0l-3.4375-1.0312-2.0938 2.7812-8.3125 10.031-5.875 6.9375 9 2.0625c5.546 1.3815 13.829 1.3856 22.844-.34375 20.077-3.1109 44.002-17.657 48.156-35.656 3.8166-16.638-3.1367-27.022-17.688-41.562-11.42-11.43-10.727-14.204-10.031-16.281.34728-2.4012 4.847-5.861 11.062-6.2188h.0312c5.5223.001 8.2923.337 10.375 1.0312l3.0938.6875 2.4375-2.4375 7.63-7.97 6.2188-6.5625-9-2.4375c-3.9396-1.2088-7.6008-2.4309-15.875-2.25zm-103.59 18.97l-3.8125 56.094-15.938 2.0938 19.75-58.188z" fill="#ffffff"/>
</svg>
