<svg viewBox="0 0 512 512" xmlns="http://www.w3.org/2000/svg">
 <path d="m471.95 253.05c0 120.9-98.01 218.91-218.91 218.91s-218.91-98.01-218.91-218.91 98.01-218.91 218.91-218.91 218.91 98.01 218.91 218.91" fill="#8f8f8f" fill-rule="evenodd"/>
 <path d="m200.34 120.62c-43.25 4.68-15.27 66.22-26.03 84.79-28.63 5.03-82.44 23.85-61.09 59.81 68.82 79.58 62.01 44.84 45.9 85.69 1.24 27.02 28.51 39.88 44.26 58.37 21.35 20.7 42.77 41.45 64.18 62.19 111.28-7.29 199.84-97.73 204.19-209.78-44.89-43.42-89.77-86.81-134.63-130.22-33.19-20.34-52.34 47.47-87.18 15.94-12.91-13.78-29.74-27.07-49.6-26.79" opacity=".25"/>
 <g fill-rule="evenodd">
  <path d="m256 1c-140.83 0-255 114.17-255 255s114.17 255 255 255 255-114.17 255-255-114.17-255-255-255m8.827 44.931c120.9 0 218.9 98 218.9 218.9s-98 218.9-218.9 218.9-218.93-98-218.93-218.9 98.03-218.9 218.93-218.9" fill-opacity=".067"/>
  <g fill-opacity=".129">
   <path d="m256 4.43c-138.94 0-251.57 112.63-251.57 251.57s112.63 251.57 251.57 251.57 251.57-112.63 251.57-251.57-112.63-251.57-251.57-251.57m5.885 38.556c120.9 0 218.9 98 218.9 218.9s-98 218.9-218.9 218.9-218.93-98-218.93-218.9 98.03-218.9 218.93-218.9"/>
   <path d="m256 8.36c-136.77 0-247.64 110.87-247.64 247.64s110.87 247.64 247.64 247.64 247.64-110.87 247.64-247.64-110.87-247.64-247.64-247.64m2.942 31.691c120.9 0 218.9 98 218.9 218.9s-98 218.9-218.9 218.9-218.93-98-218.93-218.9 98.03-218.9 218.93-218.9"/>
  </g>
  <path d="m253.04 7.86c-135.42 0-245.19 109.78-245.19 245.19 0 135.42 109.78 245.19 245.19 245.19 135.42 0 245.19-109.78 245.19-245.19 0-135.42-109.78-245.19-245.19-245.19zm0 26.297c120.9 0 218.9 98 218.9 218.9s-98 218.9-218.9 218.9-218.93-98-218.93-218.9 98.03-218.9 218.93-218.9z" fill="#ffffff" stroke="#000000" stroke-opacity=".31" stroke-width="4.904"/>
 </g>
 <path d="m306.5 390.9c-22.528-3.741-51.784-29.529-78.5-69.19-11.206-16.639-22.672-37.19-30.16-54.05-1.501-3.382-2.05-4.195-2.504-3.71-.908.971-7.429 15.15-10.865 23.623-5.779 14.254-9.852 27.844-12.186 40.661-1.495 8.21-1.624 24.12-.235 29.05 3.228 11.452 10.227 16.212 21.15 14.382 7.872-1.32 17.401-5.631 27.512-12.448 4.49-3.03 5.671-3.604 7.408-3.614 2.656-.016 4.638 1.429 5.566 4.057.616 1.742.613 2.248-.018 3.913-.606 1.598-1.656 2.544-6.396 5.757-6.546 4.439-17.745 10.16-23.474 11.993-15.01 4.801-26.689 3.042-34.922-5.264-7.552-7.618-10.806-19.943-9.803-37.13 1.305-22.371 11.14-52.912 26.679-82.85l3.897-7.507-2.943-7.964c-2.817-7.621-8.388-25.291-8.388-26.603 0-.967-1.704-.768-9.177 1.07-17.12 4.212-29.844 9.572-38.967 16.42-17.933 13.459-13.183 28.641 13.691 43.758 4.28 2.407 5.268 3.704 5.268 6.909 0 1.675-.309 2.363-1.682 3.735-2.939 2.939-5.675 2.326-14.748-3.301-13.12-8.139-21.419-17.4-24.341-27.17-1.067-3.568-1.071-10.756-.008-14.345 1.551-5.233 4.16-9.388 8.871-14.13 10.556-10.617 28.06-18.77 52.07-24.25 4.89-1.116 6.02-1.534 5.835-2.157-.125-.427-.684-3.221-1.242-6.214-3.262-17.512-3.361-37.59-.241-48.725 3.598-12.839 10.113-20.48 20.501-24.05 4.241-1.456 12.731-1.225 18.55.506 5.852 1.74 13.12 5.317 19.539 9.621 7.652 5.129 9.909 7.281 10.232 9.759.744 5.695-5.139 8.766-9.942 5.189-15.06-11.213-25.809-15.48-34.422-13.663-6.259 1.321-11.04 7.756-13.458 18.1-.96 4.114-1.092 6.067-1.096 16.299 0 11.614.161 13.481 2.282 25.658l1.066 6.119 2.512-.306c11.529-1.394 21.465-2.363 27.592-2.691l7.272-.39 1.134-1.458c12.283-15.793 30.15-34.24 43.682-45.1 25.921-20.8 48.15-28.02 63.44-20.615 8.639 4.185 14.1 12.737 16.216 25.4 1.382 8.267.292 27.835-1.861 33.35-.743 1.904-3.127 3.276-5.695 3.279-1.617.001-2.463-.327-3.71-1.441-1.478-1.321-1.615-1.688-1.604-4.328.013-1.587.423-6.113.925-10.06 1.461-11.47.456-22.07-2.673-28.21-1.519-2.977-4.627-6.156-7.314-7.481-2.02-.994-3.055-1.145-7.768-1.13-4.954.016-5.923.179-10.812 1.849-15.12 5.158-32.456 17.558-51.06 36.531-3.558 3.628-8.893 9.38-11.857 12.78l-5.388 6.183 4.684.112c65.56 1.554 120.82 16.61 146.87 40.02 5.861 5.267 10.912 13.11 12.379 19.233.745 3.102.759 9.126.029 12.351-2.69 11.9-15.774 23.6-34.848 31.16-3.01 1.195-3.652 1.292-5.281.804-2.668-.799-4.399-3.054-4.399-5.731 0-3.146 1.515-4.657 6.962-6.941 11.848-4.969 21.04-11.934 24.524-18.593 1.212-2.314 1.395-3.214 1.394-6.867-.001-3.8-.162-4.514-1.659-7.42-2.115-4.099-9.101-11.1-14.898-14.939-28.476-18.833-82.14-31.06-136.31-31.06h-8.937l-3.368 4.576c-5.04 6.845-15.971 23.483-20.321 30.926l-3.836 6.564 2.636 6.05c26.445 60.692 67.5 111.94 97.78 122.05 6.583 2.198 11.565 2.305 15.592.335 7.535-3.685 11.482-13.255 12.09-29.31 1.01-26.794-8.639-63.825-26.634-102.2-1.866-3.979-2.986-7.02-2.986-8.095 0-3.246 2.665-5.798 6.01-5.752 2.967.04 4.268 1.229 6.531 5.962 14.593 30.523 24.321 61.1 27.954 87.87 1.222 9 1.229 27.319.014 33.865-1.944 10.47-5.402 18.01-10.694 23.326-6.447 6.471-14.813 8.943-24.71 7.299zm-104.69-162.93c1.847-2.993 5.444-8.491 7.991-12.218 2.548-3.727 4.632-6.928 4.632-7.113 0-.636-23.373 1.729-24.08 2.437-.424.427.976 5.633 4.088 15.203 2.263 6.96 2.876 8.374 3.387 7.815.344-.375 2.135-3.131 3.982-6.124m49.872 44.37c-7.432-2.654-11.774-8.854-11.675-16.669.051-4.092.985-6.898 3.377-10.157 6.06-8.259 18.443-9.198 25.896-1.964 8.561 8.308 6.03 23.13-4.802 28.09-3.726 1.706-9.149 2-12.796.701" fill="#ffffff"/>
</svg>
