<svg height="512" viewBox="0 0 512 512" width="512" xmlns="http://www.w3.org/2000/svg">
 <path d="m471.95 253.05c0 120.9-98.01 218.9-218.9 218.9-120.9 0-218.9-98.01-218.9-218.9 0-120.9 98.01-218.9 218.9-218.9 120.9 0 218.9 98.01 218.9 218.9" fill="#8f8f8f" fill-rule="evenodd"/>
 <path d="m266.72 125.19l-129.06 247.34h1.531c-.004.008-.531 1-.531 1h1.531c-.004.008-.531 1-.531 1h1.5c-.004.008-.5.969-.5.969h1.531c-.004.008-.531 1-.531 1h1.5c-.004.008-.531 1-.531 1h1.531c-.004.008-.531 1-.531 1h1.531c-.004.008-.531 1-.531 1h1.531c-.004.008-.531 1-.531 1h1.5c-.004.008-.5.969-.5.969h1.531c-.004.008-.531 1-.531 1h1.5c-.004.008-.531 1-.531 1h1.531c-.004.008-.531 1-.531 1h1.531c-.004.008-.531 1-.531 1h1.531c-.004.008-.531 1-.531 1h1.5c-.004.008-.5.969-.5.969h1.531c-.004.008-.531 1-.531 1h1.5l-.531 1h1.531c-.004.008-.531 1-.531 1h1.531l-.531 1h1.531c-.004.008-.531 1-.531 1h1.531l-.531 1h1.5c-.004.008-.5.969-.5.969h1.531l-.531 1h1.5c-.004.008-.531 1-.531 1h1.531l-.531 1h1.531c-.004.008-.531 1-.531 1h1.531c-.004.008-.531 1-.531 1h1.5c-.004.008-.5.968-.5.969h1.531c-.004.008-.531 1-.531 1h1.5c-.004.008-.531 1-.531 1h1.531c-.004.008-.531 1-.531 1h1.531c-.004.008-.531 1-.531 1h1.531c-.004.008-.531 1-.531 1h1.5c-.004.008-.5.968-.5.969h1.531c-.004.008-.531 1-.531 1h1.5c-.004.008-.531 1-.531 1h1.531c-.004.008-.531 1-.531 1h1.531c-.004.008-.531 1-.531 1h1.531c-.004.008-.531 1-.531 1h1.5l-.5.969h1.531l-.531 1h1.531c-.004.009-.531 1-.531 1h1.5c-.004.009-.531 1-.531 1h1.531c-.004.009-.531 1-.531 1h1.531c-.004.009-.531 1-.531 1h1.531c-.004.009-.531 1-.531 1h1.5c-.004.008-.5.968-.5.969h1.531c-.004.009-.531 1-.531 1h1.5c-.004.009-.531 1-.531 1h1.531c-.004.009-.531 1-.531 1h1.531c-.004.009-.531 1-.531 1h1.531l-.531 1h1.5c-.004.008-.5.968-.5.969h1.531c-.005.009-.531.999-.531 1h1.5c-.005.009-.531.999-.531 1h1.531l-.531 1h1.531c-.005.009-.531.999-.531 1h1.531l-.531 1h1.5c-.004.008-.5.968-.5.969h1.531l-.531 1h1.5c-.005.009-.531.999-.531 1h1.531l-.531 1h1.531c-.005.009-.531.999-.531 1h1.531l-.531 1h1.531c-.005.009-.531.999-.531 1h1.5l-.5.969h1.531c-.005.009-.531.999-.531 1h1.5l-.531 1h1.531c-.005.009-.531.999-.531 1h1.531c-.005.009-.531.999-.531 1h1.531c-.005.009-.531.999-.531 1h1.5c-.004.008-.5.968-.5.969h1.531c-.005.009-.531.999-.531 1h1.5c-.005.009-.531.999-.531 1h1.531c-.005.009-.531.999-.531 1h1.531c-.005.009-.531.999-.531 1h1.531c-.005.009-.531.999-.531 1h1.5c-.004.008-.5.968-.5.969h1.531c-.005.009-.531.999-.531 1h1.5l-.531 1h1.531l-.531 1h1.531l-.531 1h1.531l-.531 1h1.5l-.5.969h1.531l-.531 1h1.531l-.531 1h1.5l-.531 1h1.531l-.531 1h1.531c-.005.009-.531.999-.531 1h1.531l-.531 1h1.5l-.5.969h1.531l-.531 1h1.5l-.531 1h1.531l-.531 1h1.531c-.005.009-.531.999-.531 1h1.531c-.005.009-.531.999-.531 1h1.5c-.004.008-.5.968-.5.969h1.531c-.005.009-.531.999-.531 1h1.5l-.531 1h1.531c-.002.003-.096.203-.188.375 5.132.36 10.308.563 15.531.563 116.05 0 211.01-90.32 218.44-204.5h-.5l-.094-1h-.906c-.001-.009-.094-.967-.094-.969h-.906c-.001-.009-.094-.999-.094-1h-.906c-.001-.009-.094-.999-.094-1h-.906c-.001-.009-.094-.999-.094-1h-.906l-.094-1h-.875c-.001-.009-.094-.999-.094-1h-.906c-.001-.009-.094-.967-.094-.969h-.906c-.001-.009-.094-.999-.094-1h-.906c-.001-.009-.094-.999-.094-1h-.906l-.094-1h-.906c-.001-.009-.094-.999-.094-1h-.875c-.001-.009-.094-.999-.094-1h-.906c-.001-.009-.094-.999-.094-1h-.906c-.001-.009-.094-.968-.094-.969h-.906l-.094-1h-.906c-.001-.009-.094-.999-.094-1h-.906c-.001-.009-.094-.999-.094-1h-.906c-.001-.009-.094-.999-.094-1h-.875c-.001-.009-.094-.999-.094-1h-.906l-.094-.969h-.906c-.001-.009-.094-.999-.094-1h-.906c-.001-.009-.094-.999-.094-1h-.906c-.001-.009-.094-.999-.094-1h-.906c-.001-.009-.094-.999-.094-1h-.875l-.094-1h-.906c-.001-.009-.094-.968-.094-.969h-.906c-.001-.009-.094-.999-.094-1h-.906c-.001-.009-.094-.999-.094-1h-.906c-.001-.009-.094-.999-.094-1h-.906l-.094-1h-.875c-.001-.009-.094-.999-.094-1h-.906c-.001-.009-.094-.999-.094-1h-.906c-.001-.009-.094-.968-.094-.969h-.906c-.001-.009-.094-.999-.094-1h-.906l-.094-1h-.906c-.001-.009-.094-.999-.094-1h-.875c-.001-.009-.094-.999-.094-1h-.906c-.001-.009-.094-.999-.094-1h-.906c-.001-.009-.094-.968-.094-.969h-.906l-.094-1h-.906c-.001-.009-.094-.999-.094-1h-.906c-.001-.009-.094-.999-.094-1h-.906c-.001-.009-.094-.999-.094-1h-.875c-.001-.009-.094-.999-.094-1h-.906l-.094-.969h-.906c-.001-.009-.094-.999-.094-1h-.906c-.001-.009-.094-.999-.094-1h-.906c-.001-.009-.094-.999-.094-1h-.906c-.001-.009-.094-.999-.094-1h-.875l-.094-1h-.906c-.001-.008-.094-.968-.094-.969h-.906c-.001-.009-.094-.999-.094-1h-.906c-.001-.009-.094-.999-.094-1h-.906c-.001-.009-.094-.999-.094-1h-.906l-.094-1h-.875c-.001-.009-.094-.999-.094-1h-.906c-.001-.009-.094-.999-.094-1h-.906c-.001-.008-.094-.968-.094-.969h-.906c-.001-.009-.094-.999-.094-1h-.906l-.094-1h-.906c-.001-.009-.094-.999-.094-1h-.906c-.001-.009-.094-.999-.094-1h-.875c-.001-.009-.094-.999-.094-1h-.906c-.001-.008-.094-.968-.094-.969h-.906l-.094-1h-.906c-.001-.009-.094-.999-.094-1h-.906c-.001-.009-.094-.999-.094-1h-.906c-.001-.009-.094-.999-.094-1h-.875c-.001-.009-.094-.999-.094-1h-.906l-.094-.969h-.906c-.001-.009-.094-.999-.094-1h-.906c-.001-.009-.094-.999-.094-1h-.906c-.001-.009-.094-.999-.094-1h-.906c-.001-.009-.094-.999-.094-1h-.875l-.094-1h-.906c-.001-.009-.094-.999-.094-1h-.906c-.001-.008-.094-.968-.094-.969h-.906c-.001-.009-.094-.999-.094-1h-.906c-.001-.009-.094-.999-.094-1h-.906l-.094-1h-.875c-.001-.009-.094-.999-.094-1h-.906c-.001-.009-.094-.999-.094-1h-.906c-.001-.008-.094-.968-.094-.969h-.906c-.001-.009-.094-.999-.094-1h-.906l-.094-1h-.906c-.001-.009-.094-.999-.094-1h-.906c-.001-.009-.094-.999-.094-1h-.875c-.001-.009-.094-.999-.094-1h-.906c-.001-.008-.094-.968-.094-.969h-.906l-.094-1h-.906c-.001-.009-.094-1-.094-1h-.906c-.001-.009-.094-1-.094-1h-.906c-.001-.009-.094-1-.094-1h-.875c-.001-.008-.094-1-.094-1h-.906c-.001-.008-.094-.968-.094-.969h-.906c-.001-.008-.094-1-.094-1h-.906l-.094-1h-.906c-.001-.008-.094-1-.094-1h-.906c-.001-.008-.094-1-.094-1h-.875c-.001-.008-.094-1-.094-1h-.906c-.001-.008-.094-1-.094-1h-.906c-.15-.01-.24-.97-.24-.97h-.906c-.001-.008-.094-1-.094-1h-.906c-.001-.008-.094-1-.094-1h-.906c-.001-.008-.094-1-.094-1h-.875c-.001-.008-.094-1-.094-1h-.906c-.001-.008-.094-1-.094-1h-.906c-.001-.008-.094-.968-.094-.969h-.906c-.001-.008-.094-1-.094-1h-.906c-.001-.008-.094-1-.094-1h-.906c-.001-.008-.094-1-.094-1h-.906c-.001-.008-.094-1-.094-1h-.875c-.001-.008-.094-1-.094-1h-.906c-.001-.008-.094-.968-.094-.969h-.906c-.001-.008-.094-1-.094-1h-.906c-.001-.008-.094-1-.094-1h-.906l-.094-1h-.906c-.001-.008-.094-1-.094-1h-.875c-.001-.008-.094-1-.094-1h-.906c-.001-.008-.094-1-.094-1h-.906c-.001-.008-.094-.969-.094-.969h-.906c-.001-.008-.094-1-.094-1h-.906c-.001-.008-.094-1-.094-1h-.906c-.001-.008-.094-1-.094-1h-.875c-.001-.008-.094-1-.094-1h-.906c-.001-.008-.094-1-.094-1h-.906c-.001-.008-.094-.969-.094-.969h-.906c-.001-.008-.094-1-.094-1h-.906c-.001-.008-.094-1-.094-1h-.906c-.001-.008-.094-1-.094-1h-.906c-.001-.008-.094-1-.094-1h-.875c-.001-.008-.094-1-.094-1h-.906c-.001-.008-.094-.969-.094-.969h-.906c-.001-.008-.094-1-.094-1h-.906c-.001-.008-.094-1-.094-1h-.906c-.001-.008-.094-1-.094-1h-.906c-.001-.008-.094-1-.094-1h-.875c-.001-.008-.094-1-.094-1h-.906c-.001-.008-.094-.969-.094-.969h-.906c-.001-.008-.094-1-.094-1h-.906c-.001-.008-.094-1-.094-1h-.906l-.094-1h-62.844" fill-opacity=".235"/>
 <g fill-rule="evenodd" transform="translate(0 -540.36)">
  <path d="m256 541.36c-140.83 0-255 114.17-255 255s114.17 255 255 255 255-114.17 255-255-114.17-255-255-255m8.827 44.931c120.9 0 218.9 98 218.9 218.9s-98 218.9-218.9 218.9-218.93-98-218.93-218.9 98.03-218.9 218.93-218.9" fill-opacity=".067"/>
  <g fill-opacity=".129">
   <path d="m256 544.79c-138.94 0-251.57 112.63-251.57 251.57s112.63 251.54 251.57 251.54 251.57-112.6 251.57-251.54-112.63-251.57-251.57-251.57m5.885 38.556c120.9 0 218.9 98 218.9 218.9s-98 218.9-218.9 218.9-218.93-98-218.93-218.9 98.03-218.9 218.93-218.9"/>
   <path d="m256 548.72c-136.77 0-247.64 110.87-247.64 247.64s110.87 247.64 247.64 247.64 247.64-110.87 247.64-247.64-110.87-247.64-247.64-247.64m2.942 31.691c120.9 0 218.9 98 218.9 218.9s-98 218.9-218.9 218.9-218.93-98-218.93-218.9 98.03-218.9 218.93-218.9"/>
  </g>
  <path d="m253.04 548.22c-135.42 0-245.19 109.78-245.19 245.19 0 135.42 109.78 245.19 245.19 245.19 135.42 0 245.19-109.78 245.19-245.19 0-135.42-109.78-245.19-245.19-245.19zm0 26.297c120.9 0 218.9 98 218.9 218.9s-98 218.9-218.9 218.9-218.93-98-218.93-218.9 98.03-218.9 218.93-218.9z" fill="#ffffff" stroke="#000000" stroke-opacity=".31" stroke-width="4.904"/>
 </g>
 <path d="m300.25 313.9h-79.69l-28.98 58.63h-53.916l129.06-247.34h62.846l24.768 247.34h-50.04l-4.04-58.63m-2.527-43.807l-4.381-58.971-.842-22.409-.505-26.28h-.842c-6.07 16.512-12.02 30.777-17.86 42.796l-31.676 64.868h56.11" fill="#ffffff"/>
</svg>
