<svg height="512" viewBox="0 0 512 512" width="512" xmlns="http://www.w3.org/2000/svg">
 <g fill-rule="evenodd">
  <path d="m471.95 253.05c0 120.9-98.01 218.9-218.9 218.9-120.9 0-218.9-98.01-218.9-218.9 0-120.9 98.01-218.9 218.9-218.9 120.9 0 218.9 98.01 218.9 218.9" fill="#8f8f8f"/>
  <path d="m360.03 139.25l-223.72 41.75 1.531 5.563.844.469.156.531.844.469.156.531.844.469.156.531.813.469.156.5.844.469.156.531.844.469.156.531.844.469.156.531.844.469.156.531.844.469.156.531.813.469.156.5.844.469.156.531.844.469.156.531.844.469.156.531.844.469.156.531.844.469.156.531.813.469.156.5.844.469.156.531.844.469.156.531.844.469.156.531.844.469.156.531.844.469.156.531.813.469.156.5.844.469.156.531.844.469.156.531.844.469.156.531.844.469.125.438-26.688-21.09 1.375 28.344 1.281 26.813.906-.844.094 1.844.906-.844.094 1.844.906-.844.094 1.844.875-.844.063 1.188-2.469 2.281 4.594 120.72.969-.031.031 1.031.969-.031.031 1.031.969-.031.031 1.031.938-.031.031 1 .969-.031.031 1.031.969-.031.031 1.031.969-.031.031 1.031.969-.031.031 1.031.969-.031.031 1.031.938-.031.031 1 .969-.031.031 1.031.969-.031.031 1.031.969-.031.031 1.031.969-.031.031 1.031.969-.031.031 1.031.938-.031.031 1 .969-.031.031 1.031.969-.031.031 1.031.969-.031.031 1.031.969-.031.031 1.031.969-.031.031 1.031.938-.031.031 1 .969-.031.031 1.031.969-.031.031 1.031.969-.031.031 1.031.969-.031.031 1.031.969-.031.031 1.031.969-.031.031 1.031.938-.031.031 1 .969-.031.031 1.031.969-.031.031 1.031.969-.031.031 1.031.969-.031.031 1.031.969-.031.031 1.031.938-.031.031 1 .969-.031.031 1.031.969-.031.031 1.031.969-.031.031 1.031.969-.031.031 1.031.969-.031.031 1.031.938-.031.031 1 .969-.031.031 1.031.969-.031.031 1.031.969-.031.031 1.031.969-.031.031 1.031.969-.031.031 1.031.969-.031.031 1.031.938-.031.031 1 .969-.031.031 1.031.969-.031.031 1.031.969-.031.031 1.031.969-.031.031 1.031.969-.031.031 1.031.938-.031.031 1 .969-.031.031 1.031.969-.031.031 1.031.969-.031.031 1.031.969-.031.031 1.031.969-.031.031 1.031.938-.031.031 1 .969-.031.031 1.031.969-.031.031 1.031.969-.031.031 1.031.969-.031.031 1.031.969-.031.031 1.031.938-.031.031 1 .969-.031.031 1.031.969-.031.031 1.031.969-.031.031 1.031.969-.031.031 1.031.969-.031.031 1.031.969-.031.031 1.031.938-.031.031 1 .969-.031.031 1.031.969-.031.031 1.031.969-.031.031 1.031.969-.031.031 1.031.969-.031.031 1.031.938-.031.031 1 .969-.031.031 1.031.969-.031.031 1.031.969-.031.031 1.031.969-.031.031 1.031.969-.031.031 1.031.938-.031.031 1 .969-.031.031 1.031.969-.031.031 1.031.969-.031.031 1.031.969-.031.031 1.031.969-.031.031 1.031.969-.031.031 1.031.938-.031.031 1 .969-.031.031 1.031.969-.031.031 1.031.969-.031.031 1.031.969-.031.031 1.031.969-.031.031 1.031.938-.031.031 1 .969-.031.031 1.031.969-.031.031.563c2.601.092 5.189.188 7.813.188 120.9 0 218.91-98.01 218.91-218.91 0-.428.002-.854 0-1.281l-.156.031-.313-1.125-.688.125-.313-1.125-.688.125-.313-1.125-.656.125-.313-1.094-.688.125-.313-1.125-.688.125-.313-1.125-.688.125-.313-1.125-.688.125-.313-1.125-.688.125-.313-1.125-.656.125-.313-1.094-.688.125-.313-1.125-.688.125-.313-1.125-.688.125-.313-1.125-.688.125-.313-1.125-.688.125-.313-1.125-.656.125-.313-1.094-.688.125-.313-1.125-.688.125-.313-1.125-.688.125-.313-1.125-.688.125-.313-1.125-.688.125-.313-1.125-.656.125-.313-1.094-.688.125-.313-1.125-.688.125-.313-1.125-.688.125-.313-1.125-.688.125-.313-1.125-.688.125-.313-1.125-.688.125-.313-1.125-.656.125-.313-1.094-.688.125-.313-1.125-.688.125-.313-1.125-.688.125-.313-1.125-.688.125-.313-1.125-.688.125-.313-1.125-.656.125-.313-1.094-.688.125-.313-1.125-.688.125-.313-1.125-.688.125-.313-1.125-.688.125-.313-1.125-.688.125-.313-1.125-.656.125-.313-1.094-.688.125-.313-1.125-.688.125-.313-1.125-.688.125-.313-1.125-.688.125-.313-1.125-.688.125-.313-1.125-.688.125-.313-1.125-.656.125-.313-1.094-.688.125-.313-1.125-.688.125-.313-1.125-.688.125-.313-1.125-.688.125-.313-1.125-.688.125-.313-1.125-.656.125-.313-1.094-.688.125-.313-1.125-.688.125-.313-1.125-.688.125-.313-1.125-.688.125-.313-1.125-.688.125-.313-1.125-.656.125-.313-1.094-.688.125-.313-1.125-.688.125-.313-1.125-.688.125-.313-1.125-.688.125-.313-1.125-.688.125-.313-1.125-.656.125-.313-1.094-.688.125-.313-1.125-.688.125-.313-1.125-.688.125-.313-1.125-.688.125-.313-1.125-.688.125-.313-1.125-.688.125-.313-1.125-.656.125-.313-1.094-.688.125-.313-1.125-.688.125-.313-1.125-.688.125-.313-1.125-.688.125-.313-1.125-.688.125-.313-1.125-.656.125-.313-1.094-.688.125-.313-1.125-.688.125-.313-1.125-.688.125-.313-1.125-.688.125-.313-1.125-.688.125-.313-1.125-.656.125-.313-1.094-.688.125-.313-1.125-.688.125-.313-1.125-.688.125-.313-1.125-.688.125-.313-1.125-.688.125-.313-1.125-.688.125-.313-1.125-.656.125-.313-1.094-.688.125-.313-1.125-.688.125-.313-1.125-.688.125-.313-1.125-.688.125-.313-1.125-.688.125-.313-1.125-.656.125-.313-1.094-.688.125-.313-1.125-.688.125-.313-1.125-.688.125-.313-1.125-.688.125-.313-1.125-.688.125-.313-1.125-.656.125-.313-1.094-.688.125-.313-1.125-.688.125-.313-1.125-.688.125-.313-1.125-.688.125-.313-1.125-.688.125-.313-1.125-.656.125-.313-1.094-.688.125-.313-1.125-.688.125-.313-1.125-.688.125-.313-1.125m-196 73.38l.531.313.063.156z" fill-opacity=".235"/>
  <path d="m256 1c-140.83 0-255 114.17-255 255s114.17 255 255 255 255-114.17 255-255-114.17-255-255-255m8.827 44.931c120.9 0 218.9 98 218.9 218.9s-98 218.9-218.9 218.9-218.93-98-218.93-218.9 98.03-218.9 218.93-218.9" fill-opacity=".067"/>
  <g fill-opacity=".129">
   <path d="m256 4.433c-138.94 0-251.57 112.63-251.57 251.57s112.63 251.57 251.57 251.57 251.57-112.63 251.57-251.57-112.63-251.57-251.57-251.57m5.885 38.556c120.9 0 218.9 98 218.9 218.9s-98 218.9-218.9 218.9-218.93-98-218.93-218.9 98.03-218.9 218.93-218.9"/>
   <path d="m256 8.356c-136.77 0-247.64 110.87-247.64 247.64s110.87 247.64 247.64 247.64 247.64-110.87 247.64-247.64-110.87-247.64-247.64-247.64m2.942 31.691c120.9 0 218.9 98 218.9 218.9s-98 218.9-218.9 218.9-218.93-98-218.93-218.9 98.03-218.9 218.93-218.9"/>
  </g>
  <path d="m253.04 7.859c-135.42 0-245.19 109.78-245.19 245.19 0 135.42 109.78 245.19 245.19 245.19 135.42 0 245.19-109.78 245.19-245.19 0-135.42-109.78-245.19-245.19-245.19zm0 26.297c120.9 0 218.9 98 218.9 218.9s-98 218.9-218.9 218.9-218.93-98-218.93-218.9 98.03-218.9 218.93-218.9z" fill="#ffffff" stroke="#000000" stroke-opacity=".31" stroke-width="4.904"/>
 </g>
 <g fill="#ffffff" fill-rule="evenodd" transform="matrix(1.1291 0 0 1.1291 -28.496 -655.83)">
  <path d="m176.91 779.51l-26.682 24.532 4.046 106.91 203.67-5.719-4.945-130.66-176.09 4.944m13.11 49.2l126.03-3.539.281 7.424-126.03 3.539zm1 26.498l126.03-3.539.281 7.424-126.03 3.539z"/>
  <path d="m146.56 750.19l1.214 25.12 1.148 23.746 26.423-24.81.762-.716-29.547-23.338"/>
  <path d="m145.97 741.14l1.349 4.92 34.16 18.774-.59.815 171.3-31.982-8.092-29.519-198.13 36.991m42.01-4.552l21.928-4.094 14.1 22.755-21.929 4.094-14.1-22.755m53.4-9.97l21.928-4.094 14.1 22.755-21.928 4.094zm51.34-9.585l21.928-4.094 14.1 22.755-21.929 4.094-14.1-22.755"/>
 </g>
</svg>
