<svg xmlns:rdf="http://www.w3.org/1999/02/22-rdf-syntax-ns#" xmlns="http://www.w3.org/2000/svg" height="512" width="512" version="1.1" xmlns:cc="http://creativecommons.org/ns#" xmlns:dc="http://purl.org/dc/elements/1.1/" viewBox="0 0 512 512">
 <g fill-rule="evenodd">
  <path d="m471.94 253.04c0 120.9-98.004 218.9-218.9 218.9s-218.9-98.004-218.9-218.9 98.004-218.9 218.9-218.9 218.9 98.004 218.9 218.9" fill="#b0b0b0"/>
  <path opacity=".25" d="m230.66 97.252 238.25 192.3c-20.79 100.28-71.28 156.35-174.49 178.54l-123.96-90.43-18.98-116.61 34.37-51.14-67.46-51.91z" fill="#000000"/>
  <g transform="translate(0,-540.36)">
   <path d="m256 541.36c-140.83 0-255 114.17-255 255s114.17 255 255 255 255-114.17 255-255-114.17-255-255-255m8.827 44.931c120.9 0 218.9 98 218.9 218.9s-98 218.9-218.9 218.9-218.93-98-218.93-218.9 98.03-218.9 218.93-218.9" fill-opacity="0.067"/>
   <g fill-opacity="0.129">
    <path d="m256 544.79c-138.94 0-251.57 112.63-251.57 251.57s112.63 251.54 251.57 251.54 251.57-112.6 251.57-251.54-112.63-251.57-251.57-251.57m5.885 38.556c120.9 0 218.9 98 218.9 218.9s-98 218.9-218.9 218.9-218.93-98-218.93-218.9 98.03-218.9 218.93-218.9"/>
    <path d="m256 548.72c-136.77 0-247.64 110.87-247.64 247.64s110.87 247.64 247.64 247.64 247.64-110.87 247.64-247.64-110.87-247.64-247.64-247.64m2.942 31.691c120.9 0 218.9 98 218.9 218.9s-98 218.9-218.9 218.9-218.93-98-218.93-218.9 98.03-218.9 218.93-218.9"/>
   </g>
   <path d="m253.04 548.22c-135.42 0-245.19 109.78-245.19 245.19 0 135.42 109.78 245.19 245.19 245.19 135.42 0 245.19-109.78 245.19-245.19 0-135.42-109.78-245.19-245.19-245.19zm0 26.297c120.9 0 218.9 98 218.9 218.9s-98 218.9-218.9 218.9-218.93-98-218.93-218.9 98.03-218.9 218.93-218.9z" stroke-opacity="0.31" stroke="#000000" stroke-width="4.904" fill="#ffffff"/>
  </g>
 </g>
 <path d="m380.45 293.25a116.22 107.97 0 0 1 -232.43 0 116.22 107.97 0 1 1 232.43 0z" stroke="#ffffff" stroke-width="28.18" fill="none"/>
 <path d="m231.15 96.76c-79.51 2.935-68.91 33.808-113.69 61.956 44.673 1.274 50.866-26.26 80.1-25.09v204.97c44.24 4.134 152.73 5.477 140.46-65.982-9.401-54.745-106.87-15.798-106.87-15.798v-160.05m45.17 169.55c12.207 0 22.609 2.699 24.495 14.87 5.728 36.969-70.28 37.17-70.28 37.17v-42.955s25.441-9.198 45.785-9.09" fill-rule="evenodd" fill="#ffffff"/>
</svg>
