<svg xmlns="http://www.w3.org/2000/svg" height="512" width="512"><path d="M471.94 253.043c0 120.896-98.004 218.905-218.904 218.905-120.896 0-218.905-98.005-218.905-218.905 0-120.895 98.006-218.904 218.906-218.904 120.895 0 218.904 98.003 218.904 218.903" fill="#8b8b8b" fill-rule="evenodd"/><path d="M406.305 177.773l69.674 84.017c-20.827 146.663-116.247 201.18-215.64 208.99L105.43 297.642l122.367-15.608L258.17 173.56l65.084-39.052 39.05 34.712z" opacity=".25" fill-rule="evenodd"/><path d="M308.61 129.53c-33.534-.508-69.115 27.315-84.965 66.083-30.593 74.76-118.22 102.032-118.22 102.032 62.36 74.04 118.61 87.41 156.13 84.46 37.535-2.97 138.84-32.426 117.75-163.88-1.097-6.835-2.427-13.2-3.95-19.16l.004.005 31.21-21.265-44.515-13.01c-13.943-24.458-33.325-34.96-53.446-35.266zm15.003 23.343c4.334.113 8.19 4.503 8.856 10.316.694 6.2-2.505 11.665-7.165 12.206-4.677.52-9.042-4.09-9.733-10.28-.71-6.203 2.49-11.667 7.168-12.208.293-.03.584-.043.873-.035z" fill="#fff"/><g fill-rule="evenodd"><path d="M256 1C115.17 1 1 115.17 1 256c0 140.83 114.17 255 255 255 140.83 0 255-114.17 255-255C511 115.17 396.83 1 256 1m8.827 44.93c120.9 0 218.9 98 218.9 218.9s-98 218.9-218.9 218.9-218.93-98-218.93-218.9 98.03-218.9 218.93-218.9" fill-opacity=".067"/><g fill-opacity=".129"><path d="M256 4.43C117.06 4.43 4.43 117.06 4.43 256S117.06 507.54 256 507.54 507.57 394.94 507.57 256 394.94 4.43 256 4.43m5.885 38.556c120.9 0 218.9 98 218.9 218.9s-98 218.9-218.9 218.9-218.93-98-218.93-218.9 98.03-218.9 218.93-218.9"/><path d="M256 8.36C119.23 8.36 8.36 119.23 8.36 256c0 136.77 110.87 247.64 247.64 247.64 136.77 0 247.64-110.87 247.64-247.64C503.64 119.23 392.77 8.36 256 8.36m2.942 31.69c120.9 0 218.9 98 218.9 218.9s-98 218.9-218.9 218.9-218.93-98-218.93-218.9 98.03-218.9 218.93-218.9"/></g><path d="M253.04 7.86C117.62 7.86 7.85 117.64 7.85 253.05c0 135.42 109.78 245.19 245.19 245.19 135.42 0 245.19-109.78 245.19-245.19 0-135.42-109.78-245.19-245.19-245.19zm0 26.297c120.9 0 218.9 98 218.9 218.9s-98 218.9-218.9 218.9-218.93-98-218.93-218.9 98.03-218.9 218.93-218.9z" fill="#fff" stroke="#000" stroke-width="4.904" stroke-opacity=".31"/></g></svg>