<svg xmlns="http://www.w3.org/2000/svg" height="512" width="512"><g fill-rule="evenodd"><path d="M471.95 253.05c0 120.9-98.01 218.9-218.9 218.9-120.9 0-218.9-98.01-218.9-218.9 0-120.9 98.01-218.9 218.9-218.9 120.9 0 218.9 98.01 218.9 218.9" fill="#848484"/><path d="M256 1C115.17 1 1 115.17 1 256s114.17 255 255 255 255-114.17 255-255S396.83 1 256 1m8.827 44.93c120.9 0 218.9 98 218.9 218.9s-98 218.9-218.9 218.9-218.93-98-218.93-218.9 98.03-218.9 218.93-218.9" fill-opacity=".067"/><g fill-opacity=".129"><path d="M256 4.433c-138.94 0-251.57 112.63-251.57 251.57S117.06 507.573 256 507.573s251.57-112.63 251.57-251.57S394.94 4.433 256 4.433m5.885 38.556c120.9 0 218.9 98 218.9 218.9s-98 218.9-218.9 218.9-218.93-98-218.93-218.9 98.03-218.9 218.93-218.9"/><path d="M256 8.356c-136.77 0-247.64 110.87-247.64 247.64S119.23 503.636 256 503.636s247.64-110.87 247.64-247.64S392.77 8.356 256 8.356m2.942 31.69c120.9 0 218.9 98 218.9 218.9s-98 218.9-218.9 218.9-218.93-98-218.93-218.9 98.03-218.9 218.93-218.9"/></g><path d="M253.04 7.86C117.62 7.86 7.85 117.64 7.85 253.05c0 135.42 109.78 245.19 245.19 245.19 135.42 0 245.19-109.78 245.19-245.19 0-135.42-109.78-245.19-245.19-245.19zm0 26.296c120.9 0 218.9 98 218.9 218.9s-98 218.9-218.9 218.9-218.93-98-218.93-218.9 98.03-218.9 218.93-218.9z" fill="#fff" stroke="#000" stroke-opacity=".31" stroke-width="4.904"/></g><path d="M209.28 114.057l261.77 150.855c-11.955 77.92-32.59 149.997-150.322 197.183l-203.34-122.367 51.192-66.905-50.133-39.482 138.38-45.11 4.26-23.736z" opacity=".25" fill-rule="evenodd"/><g fill="#fff" fill-rule="evenodd"><path d="M326.563 181.71c-46.18-26.66-105.242-10.837-131.905 35.345-26.662 46.18-10.838 105.242 35.344 131.905 46.18 26.662 105.242 10.838 131.905-35.344 26.662-46.18 10.838-105.242-35.344-131.905m-23.83 41.277c23.384 13.502 31.4 43.412 17.897 66.798s-43.412 31.4-66.797 17.898-31.4-43.412-17.898-66.797 43.41-31.4 66.797-17.9"/><path d="M306.12 281.406c-8.875 15.375-28.535 20.643-43.91 11.766s-20.643-28.536-11.766-43.91 28.536-20.644 43.91-11.767 20.644 28.536 11.767 43.91"/><g><path d="M210.738 114.835c-9.003-5.198-19.58-3.635-23.707 3.513s-.19 17.09 8.812 22.287l117.03 67.566c9.002 5.2 19.578 3.636 23.705-3.512s.192-17.09-8.81-22.287l-117.023-67.56M214.226 206.528c-6.67-3.625-16.068-.593-21.766 7.315l-12.617 17.506c-.115.15-.236.3-.35.454l-60.777 84.374c-6.075 8.43-5.587 19.09 1.11 23.916s16.99 1.93 23.07-6.505l12.59-17.46c.12-.16.242-.312.36-.476l60.79-84.393c6.076-8.43 5.588-19.09-1.11-23.916-.418-.302-.856-.567-1.3-.81"/><path d="M293.658 167.647c-4.173-2.305-9.757-2.992-15.405-1.478l-100.456 26.916c-.254.068-.485.157-.733.233l-49.877 13.363c-10.04 2.69-16.396 11.292-14.262 19.268 2.136 7.974 11.93 12.21 21.97 9.52L235.35 208.55c.308-.083.602-.185.903-.278l49.704-13.318c10.04-2.69 16.405-11.258 14.268-19.228-.935-3.488-3.33-6.282-6.577-8.076"/></g></g></svg>