<svg height="1814.17" viewBox="0 0 512 512" width="1814.17" xmlns="http://www.w3.org/2000/svg">
 <g transform="matrix(3.7795276 0 0 3.7795276 -372.57144 62.05173)">
  <path d="m223.4463 50.534958c0 31.988126-25.93182 57.919942-57.91994 57.919942-31.98813 0-57.91994-25.931816-57.91994-57.919942 0-31.988127 25.93181-57.9199397 57.91994-57.9199397 31.98812 0 57.91994 25.9318127 57.91994 57.9199397" fill="#9f9f9f" fill-rule="evenodd"/>
  <path d="m128.6064 17.895956v3.117057l3.11705 3.117056v3.108854h-3.11705v3.117057l5.67187 5.672137h-5.67187v12.45923l5.66367 5.663671h-5.66367v12.45923l5.66367 5.663671h-5.66367v3.117056l3.11705 3.117056v3.108855h-3.11705v3.11706l21.69583 21.695834c4.85008 1.31736 9.95468 2.02565 15.22148 2.02565 31.98813 0 57.91994-25.931817 57.91994-57.919943 0-3.821113-.36883-7.555971-1.075-11.170709l-21.47358-21.473584h-6.22592v3.117056l3.10886 3.108855v.752475l-6.97839-6.978386h-9.34244v6.986588l-6.98658-6.986588h-6.23412v3.117056l3.11706 3.117057v3.108854h-.75248l-9.34243-9.342438h-6.22591v3.117056l3.10885 3.108855v.752475l-6.97839-6.978386h-9.34243v6.978386l-6.97839-6.978386h-6.23411z" opacity=".25"/>
  <g fill-rule="evenodd" transform="matrix(.26458334 0 0 .26458334 98.576187 -16.417857)">
   <path d="m256 1c-140.83 0-255 114.17-255 255 0 140.83 114.17 255 255 255 140.83 0 255-114.17 255-255 0-140.83-114.17-255-255-255m8.827 44.931c120.9 0 218.9 98 218.9 218.9 0 120.9-98 218.9-218.9 218.9-120.9 0-218.93-98-218.93-218.9 0-120.9 98.03-218.9 218.93-218.9" fill-opacity=".067"/>
   <g fill-opacity=".129">
    <path d="m256 4.43c-138.94 0-251.57 112.63-251.57 251.57 0 138.94 112.63 251.57 251.57 251.57 138.94 0 251.57-112.63 251.57-251.57 0-138.94-112.63-251.57-251.57-251.57m5.885 38.556c120.9 0 218.9 98 218.9 218.9 0 120.9-98 218.9-218.9 218.9-120.9 0-218.93-98-218.93-218.9 0-120.9 98.03-218.9 218.93-218.9"/>
    <path d="m256 8.36c-136.77 0-247.64 110.87-247.64 247.64 0 136.77 110.87 247.64 247.64 247.64 136.77 0 247.64-110.87 247.64-247.64 0-136.77-110.87-247.64-247.64-247.64m2.942 31.691c120.9 0 218.9 98 218.9 218.9 0 120.9-98 218.9-218.9 218.9-120.9 0-218.93-98-218.93-218.9 0-120.9 98.03-218.9 218.93-218.9"/>
   </g>
   <path d="m253.04 7.86c-135.42 0-245.19 109.78-245.19 245.19 0 135.42 109.78 245.19 245.19 245.19 135.42 0 245.19-109.78 245.19-245.19 0-135.42-109.78-245.19-245.19-245.19zm0 26.297c120.9 0 218.9 98 218.9 218.9 0 120.9-98 218.9-218.9 218.9-120.9 0-218.93-98-218.93-218.9 0-120.9 98.03-218.9 218.93-218.9z" fill="#ffffff" stroke="#000000" stroke-opacity=".31" stroke-width="4.904"/>
  </g>
  <g fill="#ffffff" transform="matrix(.31945793 0 0 .31945793 91.133457 -39.526566)">
   <path d="m117.31 179.76v9.748h9.748v19.496h-9.748v9.748h29.24v-9.748h-9.748v-29.24h-19.496"/>
   <path d="m158.66 179.75v39h29.25v-39zm9.75 9.75h9.75v19.5h-9.75z"/>
   <path d="m200.02 179.76v9.748h9.748v19.496h-9.748v9.748h29.24v-9.748h-9.748v-29.24h-19.496"/>
   <path d="m241.37 179.76v9.748h9.748v19.496h-9.748v9.748h29.24v-9.748h-9.748v-29.24h-19.496"/>
   <path d="m282.75 179.75v39h29.25v-39zm9.75 9.75h9.75v19.5h-9.75z"/>
   <path d="m324.09 179.76v9.748h9.748v19.496h-9.748v9.748h29.24v-9.748h-9.748v-29.24h-19.496"/>
   <path d="m117.31 236.5v39h29.25v-39zm9.75 9.75h9.75v19.5h-9.75z"/>
   <path d="m158.66 236.5v39h29.25v-39zm9.75 9.75h9.75v19.5h-9.75z"/>
   <path d="m200.02 236.49v9.748h9.748v19.496h-9.748v9.748h29.24v-9.748h-9.748v-29.24h-19.496"/>
   <path d="m241.38 236.5v39h29.25v-39zm9.75 9.75h9.75v19.5h-9.75z"/>
   <path d="m282.75 236.5v39h29.25v-39zm9.75 9.75h9.75v19.5h-9.75z"/>
   <path d="m324.09 236.49v9.748h9.748v19.496h-9.748v9.748h29.24v-9.748h-9.748v-29.24h-19.496"/>
   <path d="m117.31 293.25v39h29.25v-39zm9.75 9.75h9.75v19.5h-9.75z"/>
   <path d="m158.66 293.25v9.748h9.748v19.496h-9.748v9.748h29.24v-9.748h-9.748v-29.24h-19.496"/>
   <path d="m200 293.25v39h29.25v-39zm9.75 9.75h9.75v19.5h-9.75z"/>
   <path d="m241.38 293.25v39h29.25v-39zm9.75 9.75h9.75v19.5h-9.75z"/>
   <path d="m282.74 293.25v9.748h9.748v19.496h-9.748v9.748h29.24v-9.748h-9.748v-29.24h-19.496"/>
   <path d="m324.09 293.25v39h29.25v-39zm9.75 9.75h9.75v19.5h-9.75z"/>
   <path d="m117.31 349.99v9.748h9.748v19.496h-9.748v9.748h29.24v-9.748h-9.748v-29.24h-19.496"/>
   <path d="m158.66 350v38.969h29.25v-38.969zm9.75 9.75h9.75v19.469h-9.75z"/>
   <path d="m200.02 349.99v9.748h9.748v19.496h-9.748v9.748h29.24v-9.748h-9.748v-29.24h-19.496"/>
   <path d="m241.37 349.99v9.748h9.748v19.496h-9.748v9.748h29.24v-9.748h-9.748v-29.24h-19.496"/>
   <path d="m282.75 350v38.969h29.25v-38.969zm9.75 9.75h9.75v19.469h-9.75z"/>
   <path d="m324.09 349.99v9.748h9.748v19.496h-9.748v9.748h29.24v-9.748h-9.748v-29.24h-19.496"/>
  </g>
 </g>
</svg>
