<svg height="512" viewBox="0 0 512 512" width="512" xmlns="http://www.w3.org/2000/svg">
 <path d="m471.95 253.05c0 120.9-98.01 218.9-218.9 218.9-120.9 0-218.9-98.01-218.9-218.9 0-120.9 98.01-218.9 218.9-218.9 120.9 0 218.9 98.01 218.9 218.9" fill="#7c7c7c" fill-rule="evenodd"/>
 <g fill-rule="evenodd">
  <path d="m256 1c-140.83 0-255 114.17-255 255s114.17 255 255 255 255-114.17 255-255-114.17-255-255-255m8.827 44.931c120.9 0 218.9 98 218.9 218.9s-98 218.9-218.9 218.9-218.93-98-218.93-218.9 98.03-218.9 218.93-218.9" fill-opacity=".067"/>
  <g fill-opacity=".129">
   <path d="m256 4.433c-138.94 0-251.57 112.63-251.57 251.57s112.63 251.57 251.57 251.57 251.57-112.63 251.57-251.57-112.63-251.57-251.57-251.57m5.885 38.556c120.9 0 218.9 98 218.9 218.9s-98 218.9-218.9 218.9-218.93-98-218.93-218.9 98.03-218.9 218.93-218.9"/>
   <path d="m256 8.356c-136.77 0-247.64 110.87-247.64 247.64s110.87 247.64 247.64 247.64 247.64-110.87 247.64-247.64-110.87-247.64-247.64-247.64m2.942 31.691c120.9 0 218.9 98 218.9 218.9s-98 218.9-218.9 218.9-218.93-98-218.93-218.9 98.03-218.9 218.93-218.9"/>
  </g>
  <path d="m253.04 7.859c-135.42 0-245.19 109.78-245.19 245.19 0 135.42 109.78 245.19 245.19 245.19 135.42 0 245.19-109.78 245.19-245.19 0-135.42-109.78-245.19-245.19-245.19zm0 26.297c120.9 0 218.9 98 218.9 218.9s-98 218.9-218.9 218.9-218.93-98-218.93-218.9 98.03-218.9 218.93-218.9z" fill="#ffffff" stroke="#000000" stroke-opacity=".31" stroke-width="4.904"/>
 </g>
 <path d="m215.06 285.44l31.783-27.21 50.1-42.899-36.39-33.718v148.79l32.648-32.11-74.929-66.37" fill="none" stroke="#ffffff" stroke-linecap="round" stroke-linejoin="round" stroke-width="13.11"/>
 <g fill="#ffffff">
  <path d="m167.84 167.66c-48.639 48.737-48.786 128.01-.212 176.68l23.13-23.17c-36.08-36.15-35.914-94.13.212-130.33l-23.13-23.17m153.2 22.962c36.08 36.15 36.34 94.56.212 130.76l23.13 23.17c48.639-48.737 48.36-128.44-.212-177.11l-23.13 23.17"/>
  <path d="m384.5 126.94l-24.844 24.875c25.04 26.366 40.44 62.02 40.44 101.25 0 40.652-16.492 77.45-43.16 104.06l27.844 27.938c70.885-71.03 70.51-187.19-.281-258.12m-257 .313c-70.885 71.03-71.07 186.57-.281 257.5l24.781-24.875c-28.323-26.802-46-64.741-46-106.81 0-40.653 16.491-77.48 43.16-104.09l-21.656-21.719"/>
 </g>
</svg>
