<svg height="512" viewBox="0 0 512 512" width="512" xmlns="http://www.w3.org/2000/svg">
 <path d="m471.95 253.05c0 120.9-98.01 218.9-218.9 218.9-120.9 0-218.9-98.01-218.9-218.9 0-120.9 98.01-218.9 218.9-218.9 120.9 0 218.9 98.01 218.9 218.9" fill="#777777" fill-rule="evenodd"/>
 <path d="m256 1c-140.83 0-255 114.17-255 255 0 140.83 114.17 255 255 255 140.83 0 255-114.17 255-255 0-140.83-114.17-255-255-255m8.827 44.931c120.9 0 218.9 98 218.9 218.9 0 120.9-98 218.9-218.9 218.9-120.9 0-218.93-98-218.93-218.9 0-120.9 98.03-218.9 218.93-218.9" fill-opacity=".067" fill-rule="evenodd"/>
 <g fill-opacity=".129" fill-rule="evenodd">
  <path d="m256 4.433c-138.94 0-251.57 112.63-251.57 251.57 0 138.94 112.63 251.57 251.57 251.57 138.94 0 251.57-112.63 251.57-251.57 0-138.94-112.63-251.57-251.57-251.57m5.885 38.556c120.9 0 218.9 98 218.9 218.9 0 120.9-98 218.9-218.9 218.9-120.9 0-218.93-98-218.93-218.9 0-120.9 98.03-218.9 218.93-218.9"/>
  <path d="m256 8.356c-136.77 0-247.64 110.87-247.64 247.64 0 136.77 110.87 247.64 247.64 247.64 136.77 0 247.64-110.87 247.64-247.64 0-136.77-110.87-247.64-247.64-247.64m2.942 31.691c120.9 0 218.9 98 218.9 218.9 0 120.9-98 218.9-218.9 218.9-120.9 0-218.93-98-218.93-218.9 0-120.9 98.03-218.9 218.93-218.9"/>
 </g>
 <g transform="translate(92.317817 -21.980433)">
  <path d="m169.76507 137.99761c-24.21 0-48.4 6.442-70.090004 19.531l54.190004 98.19c.113-.062.23-.126.344-.188l.656 1.188c.115-.063.228-.125.344-.188.016.028.656 1.188.656 1.188.115-.063.228-.125.344-.188.016.028.656 1.188.656 1.188.115-.063.228-.125.344-.188.015.027.625 1.156.625 1.156.114-.063.229-.126.344-.188.016.028.656 1.188.656 1.188.114-.063.229-.126.344-.188.016.028.656 1.188.656 1.188.113-.062.23-.126.344-.188.016.028.656 1.188.656 1.188.113-.062.23-.126.344-.188.016.028.656 1.188.656 1.188.115-.063.228-.125.344-.188.016.028.656 1.188.656 1.188.115-.063.228-.125.344-.188.015.027.625 1.156.625 1.156.114-.063.229-.126.344-.188.016.028.656 1.188.656 1.188.114-.063.229-.126.344-.188.016.028.656 1.188.656 1.188.114-.063.229-.126.344-.188.016.028.656 1.188.656 1.188.113-.062.23-.126.344-.188.016.028.656 1.188.656 1.188.115-.063.228-.125.344-.188.016.028.656 1.188.656 1.188.115-.063.228-.125.344-.188.015.027.625 1.156.625 1.156.114-.063.229-.126.344-.188.016.028.656 1.188.656 1.188.114-.063.229-.126.344-.188.016.028.656 1.188.656 1.188.114-.063.229-.126.344-.188l.656 1.188c.113-.062.23-.126.344-.188.016.028.656 1.188.656 1.188.115-.063.228-.125.344-.188.016.028.656 1.188.656 1.188.115-.063.228-.125.344-.188.015.027.625 1.156.625 1.156h.031c.103-.057.209-.1.313-.156.015.027.656 1.156.656 1.156.114-.063.229-.126.344-.188.016.028.656 1.188.656 1.188.114-.063.229-.126.344-.188.016.028.656 1.188.656 1.188.113-.062.23-.126.344-.188.016.028.656 1.188.656 1.188.113-.062.23-.126.344-.188.016.028.656 1.188.656 1.188.115-.063.228-.125.344-.188.016.028.656 1.188.656 1.188.115-.063.228-.125.344-.188.015.027.625 1.156.625 1.156.114-.063.229-.126.344-.188.016.028.656 1.188.656 1.188.114-.063.229-.126.344-.188.016.028.656 1.188.656 1.188.113-.062.23-.126.344-.188.016.028.656 1.188.656 1.188.113-.062.23-.126.344-.188.016.028.656 1.188.656 1.188.115-.063.228-.125.344-.188.016.028.656 1.188.656 1.188.115-.063.228-.125.344-.188.015.027.625 1.156.625 1.156.114-.063.229-.126.344-.188.016.028.656 1.188.656 1.188.114-.063.229-.126.344-.188.016.028.656 1.188.656 1.188.114-.063.229-.126.344-.188.016.028.656 1.188.656 1.188.113-.062.23-.126.344-.188.016.028.656 1.188.656 1.188.115-.063.228-.125.344-.188.016.028.656 1.188.656 1.188.115-.063.228-.125.344-.188.015.027.625 1.156.625 1.156.114-.063.229-.126.344-.188.016.028.656 1.188.656 1.188.114-.063.229-.126.344-.188.016.028.656 1.188.656 1.188.114-.063.229-.126.344-.188.016.028.656 1.188.656 1.188.113-.062.23-.126.344-.188.016.028.656 1.188.656 1.188-3 5.449-7.491 9.956-12.938 12.969l24.688 44.719h-.938c-.025-.317-.031-.645-.031-.969v-.031h-.969c-.025-.314 0-.617 0-.938v-.031h-.969c-.027-.322-.031-.64-.031-.969v-.031h-.969c-.026-.318-.031-.644-.031-.969v-.031h-.969c-.028-.323-.031-.638-.031-.969v-.031h-.938c-.027-.319-.063-.642-.063-.969v-.031h-.938c-.027-.317-.063-.645-.063-.969v-.031h-.938c-.027-.312-.063-.649-.063-.969v-.031h-.938c-.027-.31-.031-.62-.031-.938v-.031h-.938c-.03-.326-.063-.635-.063-.969v-.031h-.938c-.03-.321-.063-.64-.063-.969v-.031h-.938c-.031-.322-.063-.639-.063-.969v-.031h-.938c-.03-.317-.063-.644-.063-.969v-.031h-.938c-.031-.319-.063-.642-.063-.969v-.031h-.906c-.03-.31-.063-.619-.063-.938v-.031h-.938c-.033-.322-.063-.638-.063-.969v-.031h-.938c-.034-.324-.063-.636-.063-.969v-.031h-.938c-.033-.318-.063-.642-.063-.969v-.031h-.938c-.034-.32-.063-.639-.063-.969v-.031h-.938c-.034-.314-.063-.645-.063-.969v-.031h-.906c-.034-.315-.063-.614-.063-.938v-.031h-.938c-.036-.319-.063-.641-.063-.969v-.031h-.938c-.037-.321-.063-.638-.063-.969v-.031h-.906c-.039-.323-.094-.635-.094-.969v-.031h-.906c-.038-.316-.094-.642-.094-.969v-.031h-.906c-.039-.318-.094-.64-.094-.969v-.031h-.906c-.038-.31-.063-.617-.063-.938v-.031h-.938c-.042-.323-.063-.635-.063-.969v-.031h-.938c-.041-.316-.063-.642-.063-.969v-.031h-.938c-.043-.318-.063-.639-.063-.969v-.031h-.938c-.042-.311-.063-.647-.063-.969v-.031h-.938c-.043-.313-.063-.644-.063-.969v-.031h-.906c-.045-.315-.094-.641-.094-.969v-.031h-.906c-.044-.308-.063-.618-.063-.938v-.031h-.906c-.05-.322-.094-.633-.094-.969v-.031h-.906c-.049-.315-.094-.64-.094-.969v-.031h-.906c-.051-.316-.094-.638-.094-.969v-.031h-.906c-.05-.309-.094-.645-.094-.969v-.031h-.906c-.052-.312-.094-.642-.094-.969v-.031h-.906c-.054-.312-.063-.609-.063-.938v-.031h-.906c-.058-.317-.094-.635-.094-.969v-.031h-.906c-.059-.316-.094-.636-.094-.969v-.031h-.875c-.061-.314-.125-.637-.125-.969v-.031h-.875c-.063-.313-.125-.637-.125-.969v-.031h-.875c-.062-.307-.125-.643-.125-.969v-.031h-.875c-.064-.306-.094-.613-.094-.938v-.031h-.875c-.073-.319-.125-.627-.125-.969v-.031h-.875c-.073-.313-.125-.633-.125-.969v-.031h-.875c-.075-.31-.125-.636-.125-.969v-.031h-.875c-.079-.311-.125-.633-.125-.969v-.031h-.844c-.082-.309-.156-.634-.156-.969v-.031h-.844c-.083-.303-.156-.639-.156-.969h-.844c-.089-.306-.125-.634-.125-.969v-.031h-.844c-.097-.311-.156-.626-.156-.969v-.031h-.844c-.1-.305-.156-.63-.156-.969v-.031h-.813c-.104-.302-.188-.631-.188-.969v-.031h-.813c-.107-.297-.188-.635-.188-.969v-.031h-.781c-.119-.299-.219-.627-.219-.969v-.031h-.75c-.126-.296-.219-.595-.219-.938v-.031h-.781c-.138-.295-.219-.621-.219-.969v-.031h-.75c-.153-.294-.25-.615-.25-.969v-.031h-.75c-.158-.283-.25-.621-.25-.969v-.031h-.719c-.177-.279-.281-.613-.281-.969v-.031h-.656c-.203-.273-.344-.603-.344-.969v-.031h-.625c-.217-.257-.344-.574-.344-.938v-.031h-.563c-.267-.24-.438-.581-.438-.969v-.031h-.438c-.334-.201-.563-.551-.563-.969v-.031h-.5v-.094c-.303-.168-.5-.504-.5-.875v-.031h-.563c-.001-.084 0-.166 0-.25-.253-.14-.438-.409-.438-.719v-.031h-.625c-.001-.127-.031-.248-.031-.375-.202-.112-.344-.346-.344-.594v-.031h-.719c-.003-.177 0-.353 0-.531-.152-.084-.25-.221-.25-.406v-.031h-.813c-.005-.231-.031-.456-.031-.688-.101-.056-.156-.158-.156-.281v-.031h-.875c-.007-.28-.031-.562-.031-.844-.05-.028-.094-.063-.094-.125v-.031h-.969c-.009-.323-.031-.643-.031-.969v-.031h-107.250004c0 52.36 26.743 100.82 70.13 127l .031-.031c.212.129.413004.278.625004.406 0 .26.128.495.344.625l.188-.344c.032.019.062.043.094.063 0 .521.287 1.021.719 1.281l.094-.156c.168.468.48.899.906 1.156l.031-.031c.211.356.469.67.813.906.233.354.531.686.875.938.239.333.519.622.844.875.251.337.546.642.875.906.266.339.569.666.906.938.277.338.564.662.906.938.221.259.463.493.719.719.254.311.514.606.813.875.257.313.544.601.844.875.315.38.658.737 1.031 1.063.253.287.527.556.813.813.217.248.448.491.688.719.247.292.506.578.781.844.33.393.684.745 1.063 1.094.293.33.58.67.906.969.274.303.574.598.875.875.283.312.564.62.875.906.285.312.564.619.875.906.287.311.563.619.875.906.19.204.394.399.594.594.379.426.767.832 1.188 1.219.292.31.561.649.875.938.288.304.567.622.875.906.137.144.265.298.406.438.299.335.616.654.938.969.269.297.557.562.844.844.344.381.691.739 1.063 1.094.055.059.101.129.156.188.038.035.087.059.125.094.072.075.146.145.219.219.35.393.717.788 1.094 1.156.084.091.164.191.25.281.069.065.149.123.219.188.041.042.084.083.125.125.308.344.641.674.969 1 .31.342.639.676.969 1 .095.103.185.211.281.313.1.095.211.188.313.281.339.378.671.766 1.031 1.125.275.299.556.588.844.875.286.312.606.608.906.906.274.297.557.59.844.875.334.362.679.718 1.031 1.063.045.048.079.108.125.156.163.158.333.315.5.469.283.308.579.61.875.906.279.302.553.615.844.906.276.298.557.587.844.875.492.532 1 1.064 1.531 1.563.326.358.659.718 1 1.063.29.313.605.604.906.906.272.293.531.591.813.875.26.28.543.54.813.813.33.357.656.719 1 1.063.251.268.523.521.781.781.095.102.185.211.281.313.157.155.309.317.469.469.275.297.56.587.844.875.29.313.606.602.906.906.281.302.554.613.844.906.277.298.558.585.844.875.235.253.477.503.719.75.309.335.649.643.969.969.291.313.575.633.875.938.351.377.729.729 1.094 1.094.036.038.058.088.094.125.146.145.289.294.438.438.275.297.561.586.844.875.305.329.622.648.938.969.029.033.064.061.094.094.176.188.352.377.531.563.409.444.824.884 1.25 1.313.041.043.084.082.125.125.083.083.166.168.25.25.146.151.29.32.438.469.06.064.127.124.188.188.082.082.167.169.25.25.072.075.146.144.219.219.352.378.699.758 1.063 1.125.05.053.106.103.156.156.095.095.186.187.281.281.138.143.267.296.406.438.05.053.106.103.156.156.104.104.208.209.313.313.051.053.105.104.156.156.582.624 1.169 1.248 1.781 1.844.101.107.211.206.313.313.116.116.227.229.344.344.062.063.126.124.188.188.107.115.204.23.313.344.125.125.249.251.375.375.041.042.084.083.125.125.116.124.227.252.344.375.134.134.271.273.406.406.021.021.042.041.063.063.127.137.246.271.375.406.135.136.269.272.406.406.295.317.604.627.906.938.135.144.27.295.406.438.144.145.292.294.438.438.047.048.078.108.125.156.09.096.191.186.281.281.148.149.288.29.438.438.041.042.084.083.125.125.096.103.184.211.281.313.156.158.31.313.469.469.015.016.016.047.031.063.11.117.233.227.344.344.162.163.336.308.5.469.637.681 1.269 1.38 1.938 2.031.04.043.085.083.125.125.178.179.351.354.531.531.107.114.205.231.313.344.186.188.374.377.563.563.162.173.305.361.469.531.198.198.393.398.594.594.02.022.042.041.063.063.093.094.188.188.281.281.171.184.356.353.531.531 106.61-4.443 193.52-85.1 207.63-188.94-.251-.144-.5-.29-.75-.438.001-.002.188-.313.188-.313-.393-.237-.793-.455-1.188-.688.001-.002.188-.313.188-.313-.393-.237-.793-.455-1.188-.688.001-.002.188-.313.188-.313-.373-.225-.75-.435-1.125-.656l.156-.313c-.39-.235-.796-.457-1.188-.688.001-.002.188-.313.188-.313-.393-.237-.793-.455-1.188-.688.001-.002.188-.313.188-.313-.393-.237-.793-.455-1.188-.688.001-.002.188-.313.188-.313-.393-.237-.793-.455-1.188-.688l.188-.313c-.393-.237-.793-.455-1.188-.688.001-.002.188-.313.188-.313-.373-.225-.75-.435-1.125-.656.001-.002.156-.313.156-.313h-.031c-.384-.232-.771-.46-1.156-.688.001-.002.188-.313.188-.313-.393-.237-.793-.455-1.188-.688l.188-.313c-.393-.237-.793-.455-1.188-.688.001-.002.188-.313.188-.313-.393-.237-.793-.455-1.188-.688.001-.002.188-.313.188-.313-.393-.237-.793-.455-1.188-.688.001-.002.188-.313.188-.313-.393-.237-.793-.455-1.188-.688l.188-.313c-.373-.225-.75-.435-1.125-.656.001-.002.156-.313.156-.313-.393-.237-.793-.455-1.188-.688.001-.002.188-.313.188-.313-.393-.237-.793-.455-1.188-.688.001-.002.188-.313.188-.313-.393-.237-.793-.455-1.188-.688.001-.002.188-.313.188-.313-.393-.237-.793-.455-1.188-.688.001-.002.188-.313.188-.313-.393-.237-.793-.455-1.188-.688.001-.002.188-.313.188-.313-.373-.225-.75-.435-1.125-.656.001-.002.156-.313.156-.313-.393-.237-.793-.455-1.188-.688.001-.002.188-.313.188-.313-.393-.237-.793-.455-1.188-.688.001-.002.188-.313.188-.313-.393-.237-.793-.455-1.188-.688.001-.002.188-.313.188-.313-.393-.237-.793-.455-1.188-.688l.188-.313c-.393-.237-.793-.455-1.188-.688.001-.002.188-.313.188-.313-.373-.225-.75-.435-1.125-.656.001-.002.156-.313.156-.313-.39-.235-.796-.457-1.188-.688.001-.002.188-.313.188-.313-.393-.237-.793-.455-1.188-.688.001-.002.188-.313.188-.313-.393-.237-.793-.455-1.188-.688.001-.002.188-.313.188-.313-.393-.237-.793-.455-1.188-.688.001-.002.188-.313.188-.313-.393-.237-.793-.455-1.188-.688.001-.002.188-.313.188-.313-.393-.237-.793-.455-1.188-.688l.188-.313c-.373-.225-.75-.435-1.125-.656.001-.002.156-.313.156-.313-.393-.237-.793-.455-1.188-.688.001-.002.188-.313.188-.313-.393-.237-.793-.455-1.188-.688.001-.002.188-.313.188-.313-.393-.237-.793-.455-1.188-.688l.188-.313c-.393-.237-.793-.455-1.188-.688.001-.002.188-.313.188-.313-.393-.237-.793-.455-1.188-.688.001-.002.188-.313.188-.313-.373-.225-.75-.435-1.125-.656.001-.002.156-.313.156-.313-.393-.237-.793-.455-1.188-.688.001-.002.188-.313.188-.313-.393-.237-.793-.455-1.188-.688l.188-.313c-.393-.237-.793-.455-1.188-.688.001-.002.188-.313.188-.313-.393-.237-.793-.455-1.188-.688.001-.002.188-.313.188-.313-.393-.237-.793-.455-1.188-.688l.188-.313c-.373-.225-.75-.435-1.125-.656l.156-.313c-.391-.236-.795-.456-1.188-.688.001-.002.188-.313.188-.313-.393-.237-.793-.455-1.188-.688.001-.002.188-.313.188-.313-.393-.237-.793-.455-1.188-.688l.188-.313c-.393-.237-.793-.455-1.188-.688.001-.002.188-.313.188-.313-.393-.237-.793-.455-1.188-.688.001-.002.188-.313.188-.313-.373-.225-.75-.435-1.125-.656.001-.002.156-.313.156-.313-.39-.235-.796-.457-1.188-.688l.188-.313c-.393-.237-.793-.455-1.188-.688l.188-.313c-.393-.237-.793-.455-1.188-.688.001-.002.188-.313.188-.313-.393-.237-.793-.455-1.188-.688l.188-.313c-.393-.237-.793-.455-1.188-.688l.188-.313c-.393-.237-.793-.455-1.188-.688.001-.002.188-.313.188-.313-.373-.225-.75-.435-1.125-.656.001-.002.156-.313.156-.313-.393-.237-.793-.455-1.188-.688l.188-.313c-.393-.237-.793-.455-1.188-.688l.188-.313c-.393-.237-.793-.455-1.188-.688.001-.002.188-.313.188-.313-.393-.237-.793-.455-1.188-.688.001-.002.188-.313.188-.313-.393-.237-.793-.455-1.188-.688l.188-.313c-.373-.225-.75-.435-1.125-.656l.156-.313c-.393-.237-.793-.455-1.188-.688.001-.002.188-.313.188-.313-.393-.237-.793-.455-1.188-.688.001-.002.188-.313.188-.313-.393-.237-.793-.455-1.188-.688l.188-.313c-.393-.237-.793-.455-1.188-.688l.188-.313c-.393-.237-.793-.455-1.188-.688.001-.002.188-.313.188-.313-.373-.225-.75-.435-1.125-.656.001-.002.156-.313.156-.313-.39-.235-.796-.457-1.188-.688l.188-.313c-.393-.237-.793-.455-1.188-.688.001-.002.188-.313.188-.313-.393-.237-.793-.455-1.188-.688.001-.002.188-.313.188-.313-.393-.237-.793-.455-1.188-.688.001-.002.188-.313.188-.313-.393-.237-.793-.455-1.188-.688l.188-.313c-.393-.237-.793-.455-1.188-.688.001-.002.188-.313.188-.313-.373-.225-.75-.435-1.125-.656.001-.002.156-.313.156-.313-.393-.237-.793-.455-1.188-.688l.188-.313c-.393-.237-.793-.455-1.188-.688.001-.002.188-.313.188-.313-.393-.237-.793-.455-1.188-.688.001-.002.188-.313.188-.313-.393-.237-.793-.455-1.188-.688.001-.002.188-.313.188-.313-.393-.237-.793-.455-1.188-.688.001-.002.188-.313.188-.313-.373-.225-.75-.435-1.125-.656.001-.002.156-.313.156-.313-.393-.237-.793-.455-1.188-.688.001-.002.188-.313.188-.313-.393-.237-.793-.455-1.188-.688.001-.002.188-.313.188-.313-.393-.237-.793-.455-1.188-.688.001-.002.188-.313.188-.313-.393-.237-.793-.455-1.188-.688.001-.002.188-.313.188-.313-.393-.237-.793-.455-1.188-.688.001-.002.188-.313.188-.313-.373-.225-.75-.435-1.125-.656.001-.002.156-.313.156-.313-.391-.236-.795-.456-1.188-.688.001-.002.188-.313.188-.313-.393-.237-.793-.455-1.188-.688.001-.002.188-.313.188-.313-.393-.237-.793-.455-1.188-.688.001-.002.188-.313.188-.313-.393-.237-.793-.455-1.188-.688.001-.002.188-.313.188-.313-.393-.237-.793-.455-1.188-.688.001-.002.188-.313.188-.313-.373-.225-.75-.435-1.125-.656.001-.002.156-.313.156-.313-.39-.235-.796-.457-1.188-.688.001-.002.188-.313.188-.313-.393-.237-.793-.455-1.188-.688.001-.002.188-.313.188-.313-.393-.237-.793-.455-1.188-.688.001-.002.188-.313.188-.313-.393-.237-.793-.455-1.188-.688.001-.002.188-.313.188-.313-.393-.237-.793-.455-1.188-.688.001-.002.188-.313.188-.313-.393-.237-.793-.455-1.188-.688.001-.002.188-.313.188-.313-.373-.225-.75-.435-1.125-.656.001-.002.156-.313.156-.313-.393-.237-.793-.455-1.188-.688.001-.002.188-.313.188-.313-.393-.237-.793-.455-1.188-.688.001-.002.188-.313.188-.313-.393-.237-.793-.455-1.188-.688.001-.002.188-.313.188-.313-.393-.237-.793-.455-1.188-.688.001-.002.188-.313.188-.313-.393-.237-.793-.455-1.188-.688.001-.002.188-.313.188-.313-.373-.225-.75-.435-1.125-.656.001-.002.156-.313.156-.313-.393-.237-.793-.455-1.188-.688.001-.002.188-.313.188-.313-.393-.237-.793-.455-1.188-.688.001-.002.188-.313.188-.313-.393-.237-.793-.455-1.188-.688.001-.002.188-.313.188-.313-.393-.237-.793-.455-1.188-.688.001-.002.188-.313.188-.313-.393-.237-.793-.455-1.188-.688.001-.002.188-.313.188-.313-.373-.225-.75-.435-1.125-.656.001-.002.156-.313.156-.313-.39-.235-.796-.457-1.188-.688.001-.002.188-.313.188-.313-.393-.237-.793-.455-1.188-.688.001-.002.188-.313.188-.313-.393-.237-.793-.455-1.188-.688.001-.002.188-.313.188-.313-.393-.237-.793-.455-1.188-.688.001-.002.188-.313.188-.313-.393-.237-.793-.455-1.188-.688.001-.002.188-.313.188-.313-.393-.237-.793-.455-1.188-.688.001-.002.188-.313.188-.313-.373-.225-.75-.435-1.125-.656.001-.002.156-.313.156-.313-.393-.237-.793-.455-1.188-.688.001-.002.188-.313.188-.313-.393-.237-.793-.455-1.188-.688l.13-.35c-.393-.237-.793-.455-1.188-.688.001-.002.188-.313.188-.313-.393-.237-.793-.455-1.188-.688.001-.002.188-.313.188-.313-.393-.237-.793-.455-1.188-.688.001-.002.188-.313.188-.313-.373-.225-.75-.435-1.125-.656.001-.002.156-.313.156-.313-.393-.237-.793-.455-1.188-.688.001-.002.188-.313.188-.313-.393-.237-.793-.455-1.188-.688.001-.002.188-.313.188-.313-.393-.237-.793-.455-1.188-.688.001-.002.188-.313.188-.313-.393-.237-.793-.455-1.188-.688.001-.002.188-.313.188-.313-.393-.237-.793-.455-1.188-.688.001-.002.188-.313.188-.313-.373-.225-.75-.435-1.125-.656.001-.002.156-.313.156-.313-.393-.237-.793-.455-1.188-.688.001-.002.188-.313.188-.313-.393-.237-.793-.455-1.188-.688.001-.002.188-.313.188-.313-.393-.237-.793-.455-1.188-.688.001-.002.188-.313.188-.313-.393-.237-.793-.455-1.188-.688.001-.002.188-.313.188-.313-.393-.237-.793-.455-1.188-.688.001-.002.188-.313.188-.313-.373-.225-.75-.435-1.125-.656.001-.002.156-.313.156-.313-.39-.235-.796-.457-1.188-.688.001-.002.188-.313.188-.313-.393-.237-.793-.455-1.188-.688l.188-.313c-.393-.237-.793-.455-1.188-.688l.188-.313c-21.691-13.09-45.886-19.531-70.09-19.531m40.656 220.22l.531.969h-.5c-.025-.321-.031-.641-.031-.969m1.031 1.875l.063.094h-.063c-.002-.031.002-.062 0-.094" fill-opacity=".235"/>
  <path d="m169.73471 138.68425c-24.21 0-48.4 6.442-70.090004 19.531l54.190004 98.19c4.72-2.606 10.134-4.094 15.906-4.094 5.773 0 11.187 1.488 15.906 4.094l54.19-98.19c-21.691-13.09-45.886-19.531-70.09-19.531m-140.220004 146.56c0 52.36 26.743 100.82 70.13 127l54.160004-98.09c-10.159-5.621-17.03-16.442-17.03-28.875v-.031h-107.250004m173.190004 0v .031c0 12.433-6.872 23.254-17.03 28.875l54.16 98.09c43.38-26.18 70.13-74.64 70.13-127h-107.25" fill="#ffffff"/>
 </g>
 <path d="m253.04 7.859c-135.42 0-245.19 109.78-245.19 245.19 0 135.42 109.78 245.19 245.19 245.19 135.42 0 245.19-109.78 245.19-245.19 0-135.42-109.78-245.19-245.19-245.19zm0 26.297c120.9 0 218.9 98 218.9 218.9 0 120.9-98 218.9-218.9 218.9-120.9 0-218.93-98-218.93-218.9 0-120.9 98.03-218.9 218.93-218.9z" fill="#ffffff" fill-rule="evenodd" stroke="#000000" stroke-opacity=".31" stroke-width="4.904"/>
</svg>
