<svg height="512" viewBox="0 0 512 512" width="512" xmlns="http://www.w3.org/2000/svg">
 <path d="m471.95 253.05c0 120.9-98.01 218.9-218.9 218.9-120.9 0-218.9-98.01-218.9-218.9 0-120.9 98.01-218.9 218.9-218.9 120.9 0 218.9 98.01 218.9 218.9" fill="#b0b0b0" fill-rule="evenodd"/>
 <path d="m256 1c-140.83 0-255 114.17-255 255 0 140.83 114.17 255 255 255 140.83 0 255-114.17 255-255 0-140.83-114.17-255-255-255m8.827 44.931c120.9 0 218.9 98 218.9 218.9 0 120.9-98 218.9-218.9 218.9-120.9 0-218.93-98-218.93-218.9 0-120.9 98.03-218.9 218.93-218.9" fill-opacity=".067" fill-rule="evenodd"/>
 <g fill-opacity=".129" fill-rule="evenodd">
  <path d="m256 4.433c-138.94 0-251.57 112.63-251.57 251.57 0 138.94 112.63 251.57 251.57 251.57 138.94 0 251.57-112.63 251.57-251.57 0-138.94-112.63-251.57-251.57-251.57m5.885 38.556c120.9 0 218.9 98 218.9 218.9 0 120.9-98 218.9-218.9 218.9-120.9 0-218.93-98-218.93-218.9 0-120.9 98.03-218.9 218.93-218.9"/>
  <path d="m256 8.356c-136.77 0-247.64 110.87-247.64 247.64 0 136.77 110.87 247.64 247.64 247.64 136.77 0 247.64-110.87 247.64-247.64 0-136.77-110.87-247.64-247.64-247.64m2.942 31.691c120.9 0 218.9 98 218.9 218.9 0 120.9-98 218.9-218.9 218.9-120.9 0-218.93-98-218.93-218.9 0-120.9 98.03-218.9 218.93-218.9"/>
 </g>
 <path d="m351.29075 137.34996l2.5559 7.10862.0954 19.99614-82.1652-66.622685-5.72947 17.510775h-3.336c-21.29594 45.24858-10.78333 52.20217-78.01108 119.96414l-9.34215 77.28064-24.43753 64.08889 123.39486 103.97672c133.53427-30.79489 212.76851-124.50013 200.58063-253.12575l-115.1634-94.95814-1.45283 5.55777" opacity=".25"/>
 <path d="m253.04 7.859c-135.42 0-245.19 109.78-245.19 245.19 0 135.42 109.78 245.19 245.19 245.19 135.42 0 245.19-109.78 245.19-245.19 0-135.42-109.78-245.19-245.19-245.19zm0 26.297c120.9 0 218.9 98 218.9 218.9 0 120.9-98 218.9-218.9 218.9-120.9 0-218.93-98-218.93-218.9 0-120.9 98.03-218.9 218.93-218.9z" fill="#ffffff" fill-rule="evenodd" stroke="#000000" stroke-opacity=".31" stroke-width="4.904"/>
 <g fill="#ffffff" transform="matrix(17.81021708 0 0 17.81021708 60.06089702 60.07871025)">
  <path d="m10.438 2c-.311 0-.563.251-.563.563v2.662c.363-.069.743-.125 1.125-.125.393 0 .752.052 1.125.125v-2.662c0-.311-.251-.563-.563-.563m-6.125 2.063c-.144 0-.296.077-.406.188l-.781.781c-.22.22-.22.592 0 .813l1.881 1.881c.427-.623.968-1.169 1.594-1.594-.594-.594-1.288-1.288-1.881-1.881-.11-.11-.263-.188-.406-.188m11.125.031c-.148 0-.296.046-.406.156l-1.881 1.881c.625.427 1.167.971 1.594 1.594.594-.594 1.288-1.288 1.881-1.881.11-.11.188-.263.188-.406 0-.144-.077-.296-.188-.406l-.781-.781c-.11-.11-.258-.156-.406-.156m-14 5.781c-.311 0-.563.251-.563.563v1.125c0 .311.251.563.563.563h2.662c-.068-.36-.125-.746-.125-1.125 0-.39.053-.755.125-1.125zm14.213 0c .073.37.125.735.125 1.125 0 .379-.056.765-.125 1.125h2.662c.311 0 .563-.251.563-.563v-1.125c0-.311-.251-.563-.563-.563m-13.307 4.4l-1.881 1.881c-.22.22-.22.592 0 .813l.781.781c.22.22.561.22.781 0 .605-.594 1.312-1.285 1.912-1.881-.626-.423-1.166-.973-1.594-1.594m9.707 0c-.425.614-.943 1.173-1.563 1.594l1.881 1.881c.22.22.592.22.813 0l .781-.781c.22-.22.22-.561 0-.781-.6-.61-1.31-1.307-1.912-1.912zm-5.963 2.501v2.662c0 .311.251.563.563.563h1.125c.311 0 .563-.251.563-.563v-2.662c-.373.072-.732.125-1.125.125-.382 0-.762-.057-1.125-.125z"/>
  <path d="m10.988 5.01c-3.315 0-6 2.714-6 6 0 3.286 2.685 5.977 6 5.977 3.315 0 6.02-2.69 6.02-5.977 0-3.286-2.709-6-6.02-6zm0 2.224c2.07 0 3.741 1.678 3.741 3.776 0 2.098-1.671 3.753-3.741 3.753-2.07 0-3.741-1.654-3.741-3.753 0-2.098 1.671-3.776 3.741-3.776z" stroke-width="3.01"/>
 </g>
</svg>
