<svg height="1814.17" viewBox="0 0 512 512" width="1814.17" xmlns="http://www.w3.org/2000/svg" xmlns:xlink="http://www.w3.org/1999/xlink">
 <g transform="matrix(3.7795274 0 0 3.7795274 236.00002 -537.94826)">
  <g fill-rule="evenodd" transform="matrix(.26458334 0 0 .26458334 -62.441676 142.33215)">
   <path d="m471.95 253.05c0 120.9-98.01 218.91-218.91 218.91-120.9 0-218.91-98.01-218.91-218.91 0-120.9 98.01-218.91 218.91-218.91 120.9 0 218.91 98.01 218.91 218.91" fill="#9e9e9e"/>
   <path d="m159.56 125.34c-31.53 0-57.09 25.564-57.09 57.09 0 31.53 25.564 57.09 57.09 57.09l45.563 45.563c5.883 45.41 48.589 70.924 53.719 101.56l71.31 71.31c43.483-16.372 80.38-46.18 105.63-84.37l-126.94-126.94c-16.257-6.432-29.29-10.183-40.03-12.06l-52.16-52.16c0-31.53-25.564-57.09-57.09-57.09m192.88 2.875c-31.53 0-57.09 25.564-57.09 57.09 0 15.757 6.396 30.02 16.719 40.34l132.84 132.84c17.226-31.28 27.03-67.21 27.03-105.44 0-10.574-.738-20.983-2.188-31.16l-77.84-77.84c-10.254-9.816-24.15-15.844-39.469-15.844" opacity=".25"/>
   <path d="m159.56 125.34c-31.53 0-57.09 25.564-57.09 57.09 0 31.53 25.564 57.09 57.09 57.09 31.53 0 57.09-25.564 57.09-57.09 0-31.53-25.564-57.09-57.09-57.09m192.88 2.875c-31.53 0-57.09 25.564-57.09 57.09 0 31.53 25.564 57.06 57.09 57.06 31.53 0 57.09-25.533 57.09-57.06 0-31.53-25.564-57.09-57.09-57.09m-100.66 104.84c-19.533.213-29.775 8.117-42.938 13.594-21.719 71.35 43.58 101.66 50 140 9.39-36.28 62.58-78.46 50-140-25.986-10.28-43.698-13.74-57.06-13.594" fill="#ffffff"/>
   <path d="m256 1c-140.83 0-255 114.17-255 255 0 140.83 114.17 255 255 255 140.83 0 255-114.17 255-255 0-140.83-114.17-255-255-255m8.827 44.931c120.9 0 218.9 98 218.9 218.9 0 120.9-98 218.9-218.9 218.9-120.9 0-218.93-98-218.93-218.9 0-120.9 98.03-218.9 218.93-218.9" fill-opacity=".067"/>
   <g fill-opacity=".129">
    <path d="m256 4.43c-138.94 0-251.57 112.63-251.57 251.57 0 138.94 112.63 251.57 251.57 251.57 138.94 0 251.57-112.63 251.57-251.57 0-138.94-112.63-251.57-251.57-251.57m5.885 38.556c120.9 0 218.9 98 218.9 218.9 0 120.9-98 218.9-218.9 218.9-120.9 0-218.93-98-218.93-218.9 0-120.9 98.03-218.9 218.93-218.9"/>
    <path d="m256 8.36c-136.77 0-247.64 110.87-247.64 247.64 0 136.77 110.87 247.64 247.64 247.64 136.77 0 247.64-110.87 247.64-247.64 0-136.77-110.87-247.64-247.64-247.64m2.942 31.691c120.9 0 218.9 98 218.9 218.9 0 120.9-98 218.9-218.9 218.9-120.9 0-218.93-98-218.93-218.9 0-120.9 98.03-218.9 218.93-218.9"/>
   </g>
   <path d="m253.04 7.86c-135.42 0-245.19 109.78-245.19 245.19 0 135.42 109.78 245.19 245.19 245.19 135.42 0 245.19-109.78 245.19-245.19 0-135.42-109.78-245.19-245.19-245.19zm0 26.297c120.9 0 218.9 98 218.9 218.9 0 120.9-98 218.9-218.9 218.9-120.9 0-218.93-98-218.93-218.9 0-120.9 98.03-218.9 218.93-218.9z" fill="#ffffff" stroke="#000000" stroke-opacity=".31" stroke-width="4.904"/>
  </g>
  <path id="a" d="m30.102436 187.20217a5.721549 5.721549 0 0 1 -11.443098 0 5.721549 5.721549 0 1 1 11.443098 0" fill="#9e9e9e" fill-rule="evenodd"/>
  <use height="512" transform="translate(-38.176731 -.7559181)" width="512" xlink:href="#a"/>
 </g>
</svg>
