<svg height="1814.17" viewBox="0 0 512 512" width="1814.17" xmlns="http://www.w3.org/2000/svg">
 <g transform="matrix(3.7795274 0 0 3.7795274 61.714309 -546.5197)">
  <path d="m108.54153 211.55282c0 31.98813-25.931814 57.91994-57.91994 57.91994-31.988127 0-57.9199399-25.93181-57.9199399-57.91994 0-31.98813 25.9318129-57.91994 57.9199399-57.91994 31.988126 0 57.91994 25.93181 57.91994 57.91994" fill="#9f9f9f" fill-rule="evenodd"/>
  <path d="m30.685235 189.11615c-11.231563.1958-18.994438 11.938-17.999605 23.10078-1.725083 6.67279 4.050771 18.4732 3.463396 17.5551-3.278188 1.27794-7.033948 1.27529-10.252605 3.25702 15.47548 12.47775 31.006522 24.54804 45.839064 36.43048 30.424439-.57679 55.110065-24.6089 56.718725-54.76875-9.022288-7.2046-18.052518-14.39069-27.093328-21.56354-8.501062-4.90273-18.629313-2.87338-27.947938-3.30729.762 4.22804 3.33375 11.17864-.02381 9.51706-3.405187-2.5744-.264583-.0106-7.71525-6.72306-2.532062-1.24355-8.776229-3.55865-13.311188-3.43959-.568854-.0476-1.124479-.0688-1.677458-.0582" opacity=".25"/>
  <g fill-rule="evenodd" transform="matrix(.26458334 0 0 .26458334 -16.328579 144.60001)">
   <path d="m256 1c-140.83 0-255 114.17-255 255 0 140.83 114.17 255 255 255 140.83 0 255-114.17 255-255 0-140.83-114.17-255-255-255m8.827 44.931c120.9 0 218.9 98 218.9 218.9 0 120.9-98 218.9-218.9 218.9-120.9 0-218.93-98-218.93-218.9 0-120.9 98.03-218.9 218.93-218.9" fill-opacity=".067"/>
   <g fill-opacity=".129">
    <path d="m256 4.43c-138.94 0-251.57 112.63-251.57 251.57 0 138.94 112.63 251.57 251.57 251.57 138.94 0 251.57-112.63 251.57-251.57 0-138.94-112.63-251.57-251.57-251.57m5.885 38.556c120.9 0 218.9 98 218.9 218.9 0 120.9-98 218.9-218.9 218.9-120.9 0-218.93-98-218.93-218.9 0-120.9 98.03-218.9 218.93-218.9"/>
    <path d="m256 8.36c-136.77 0-247.64 110.87-247.64 247.64 0 136.77 110.87 247.64 247.64 247.64 136.77 0 247.64-110.87 247.64-247.64 0-136.77-110.87-247.64-247.64-247.64m2.942 31.691c120.9 0 218.9 98 218.9 218.9 0 120.9-98 218.9-218.9 218.9-120.9 0-218.93-98-218.93-218.9 0-120.9 98.03-218.9 218.93-218.9"/>
   </g>
   <path d="m253.04 7.86c-135.42 0-245.19 109.78-245.19 245.19 0 135.42 109.78 245.19 245.19 245.19 135.42 0 245.19-109.78 245.19-245.19 0-135.42-109.78-245.19-245.19-245.19zm0 26.297c120.9 0 218.9 98 218.9 218.9 0 120.9-98 218.9-218.9 218.9-120.9 0-218.93-98-218.93-218.9 0-120.9 98.03-218.9 218.93-218.9z" fill="#ffffff" stroke="#000000" stroke-opacity=".31" stroke-width="4.904"/>
  </g>
  <g fill="#ffffff" transform="matrix(.26458334 0 0 .26458334 -16.328579 144.60001)">
   <path d="m271.12 279.59c-4.895-.029-10.185.941-14.719 2.688l-.063.063h-.031c-33.08 12.172-50.997 48.44-143.09 51.875h315.38v-1.281c-16.678-1.131-38.39-.819-60.62-3.938v-.031c-22.32-3.28-37.39-12.8-49.98-22.54-12.59-9.73-22.88-19.4-36.38-24.71l-.156-.063-.188-.094c-2.78-1.318-6.349-1.947-10.156-1.969z" fill-rule="evenodd" opacity=".2"/>
   <path d="m184.03 168.47c-16.232 0-30.385 3.543-42.5 10.688-12.04 7.07-21.304 17.298-27.75 30.656-6.446 13.281-9.656 28.762-9.656 46.47 0 24.18 4.887 43.503 14.594 58.03 14.672-.732 29.23-2.471 43.31-6.06-13.828-8.03-20.75-25.27-20.75-51.719 0-18.251 3.732-32.482 11.188-42.656 7.456-10.251 17.971-15.375 31.562-15.375 6.213 0 12.554 1.123 19 3.375 6.446 2.252 12.85 4.909 19.219 7.938l11.656-29.344c-16.698-7.999-33.33-12-49.875-12m79.56 2.437v89.38c1.276-.181 2.568-.333 3.875-.438 12.01-.634 22.502 3.068 32.25 8.688v-68.03h19.219c32.31 0 48.47 18.265 48.47 54.844 0 22.558-6.345 38.31-19.03 47.25 12.283 5.803 25.76 7.867 39.469 8.75 11.378-14.305 17.06-33.26 17.06-56.906 0-26.328-7.685-46.853-23.06-61.53-15.375-14.677-36.947-22-64.75-22h-53.5zm7.688 96.81c-.719-.009-1.437.003-2.156.031-5.842.228-11.65 1.603-16.844 3.594-.03.011-.064-.011-.094 0v .063c-42.22 15.597-52.92 55.29-168.78 51.13v11.688c118.5 4.046 136.53-38.491 172.91-51.875h.031l.063-.063c8.06-3.105 18.521-3.73 24.875-.719l.188.094.156.063c13.496 5.309 23.785 14.987 36.38 24.719 12.59 9.731 27.662 19.26 49.969 22.531v.031c22.23 3.118 43.947 2.806 60.63 3.938v-11.781c-17.435-1.191-38.21-.879-58.938-3.781-.018-.003-.014.003-.031 0-19.842-2.921-32.488-10.989-44.47-20.25-11.88-9.2-22.99-19.8-38.83-26.13-.034-.016-.06-.046-.094-.063-.087-.035-.162-.059-.25-.094v.031c-4.637-2.13-9.654-3.093-14.688-3.156zm-1.344 20.19c-2.114.03-4.242.278-6.344.688v52.625h48.25c16.606 0 31.03-2.283 43.31-6.813-1.774-.459-3.553-.957-5.313-1.5-14.518-3.982-26.617-12.464-38.41-21.5h-11.719v-9.03c-3.913-2.973-7.866-5.865-11.938-8.531-5.207-4.276-11.48-6.03-17.844-5.938zm-42.44 20.65c-6.317 4.207-12.74 8.235-19.625 11.469-18.03 9.657-37.612 15.464-57.719 18.75 8.934 3.173 19.09 4.75 30.5 4.75 17.241 0 32.864-2.894 46.844-8.719z"/>
  </g>
 </g>
</svg>
