<svg height="512" viewBox="0 0 512 512" width="512" xmlns="http://www.w3.org/2000/svg">
 <path d="m471.95 253.05c0 120.9-98.01 218.9-218.9 218.9-120.9 0-218.9-98.01-218.9-218.9 0-120.9 98.01-218.9 218.9-218.9 120.9 0 218.9 98.01 218.9 218.9" fill="#777777" fill-rule="evenodd"/>
 <path d="m256.03 114.78c-7.03 0-14.06.336-18.656 1-41.794 6.04-77.09 28.17-100.06 62.719-13.973 21.01-22.01 45.496-23.563 71.72-.356 6.02-.306 6.343 1.031 8.625.826 1.409 2.184 3.02 3.781 4.563.042.044.083.081.125.125.102.097.209.185.313.281.168.17.325.362.5.531.063.066.124.121.188.188.096.092.183.19.281.281.346.351.692.719 1.063 1.063.166.167.328.334.5.5.052.054.104.102.156.156.092.088.188.163.281.25.144.146.289.292.438.438.097.103.182.209.281.313.092.088.188.163.281.25.031.031.063.062.094.094.456.502.954 1 1.469 1.5.042.044.083.081.125.125.102.097.209.185.313.281.168.17.325.362.5.531.063.066.124.121.188.188.096.092.183.19.281.281.346.351.692.719 1.063 1.063.166.167.328.334.5.5.052.054.104.102.156.156.092.088.188.163.281.25.144.146.289.292.438.438.097.103.182.209.281.313.092.088.188.163.281.25.144.146.289.292.438.438.097.103.182.209.281.313.092.088.188.163.281.25.103.104.207.208.313.313.128.138.242.269.375.406.103.098.208.184.313.281.015.015.016.047.031.063l29.781 55.38c19.981 37.14 33.745 62.18 34.844 63.31.221.227.509.438.781.656.087.126.174.266.219.313.222.227.508.468.781.688.087.126.174.266.219.313.25.256.531.506.844.75.057.078.123.216.156.25.25.256.531.506.844.75.057.078.123.216.156.25.221.226.478.438.75.656.092.133.203.296.25.344.221.226.478.438.75.656.092.133.203.296.25.344.221.226.478.438.75.656.087.126.174.266.219.313.222.227.508.468.781.688.087.126.174.266.219.313.25.256.562.537.875.781.045.061.097.19.125.219.25.256.531.506.844.75.057.078.123.216.156.25.221.226.478.438.75.656.092.133.203.296.25.344.221.226.478.438.75.656.092.133.203.296.25.344.221.226.478.438.75.656.087.126.174.266.219.313.222.227.508.468.781.688.087.126.174.266.219.313.222.227.508.468.781.688.087.126.174.266.219.313.25.256.531.506.844.75.057.078.123.216.156.25.221.226.478.438.75.656.092.133.203.296.25.344.221.226.478.438.75.656.092.133.203.296.25.344.215.221.454.443.719.656.096.14.202.294.25.344.221.227.509.438.781.656.087.126.174.266.219.313.222.227.508.468.781.688.087.126.174.266.219.313.25.256.531.506.844.75.057.078.123.216.156.25.221.226.478.438.75.656.092.133.203.296.25.344.221.226.478.438.75.656.092.133.203.296.25.344.215.221.454.443.719.656.096.14.202.294.25.344.221.227.509.438.781.656.087.126.174.266.219.313.222.227.508.468.781.688.087.126.174.266.219.313.25.256.562.537.875.781.045.061.097.19.125.219.25.256.531.506.844.75.057.078.123.216.156.25.221.226.478.438.75.656.092.133.203.296.25.344.221.226.478.438.75.656.092.133.203.296.25.344.221.226.478.438.75.656.087.126.174.266.219.313.222.227.508.468.781.688.087.126.174.266.219.313.222.227.508.468.781.688.087.126.174.266.219.313.25.256.531.506.844.75.057.078.123.216.156.25.221.226.478.438.75.656.092.133.203.296.25.344.221.226.478.438.75.656.092.133.203.296.25.344.215.221.454.443.719.656.096.14.202.294.25.344.221.227.509.438.781.656.087.126.174.266.219.313.222.227.508.468.781.688.087.126.174.266.219.313.25.256.531.506.844.75.057.078.123.216.156.25.221.226.478.438.75.656.092.133.203.296.25.344.221.226.478.438.75.656.092.133.203.296.25.344.215.221.454.443.719.656.096.14.202.294.25.344.221.227.509.438.781.656.087.126.174.266.219.313.222.227.508.468.781.688.087.126.174.266.219.313.25.256.531.506.844.75.057.078.123.216.156.25.25.256.531.506.844.75.057.078.123.216.156.25.221.226.478.438.75.656.092.133.203.296.25.344.215.221.454.443.719.656.096.14.202.294.25.344h.031c.221.226.478.438.75.656.087.126.174.266.219.313.222.227.508.468.781.688.087.126.174.266.219.313.25.256.562.537.875.781.045.061.097.19.125.219.25.256.531.506.844.75.057.078.123.216.156.25.221.226.478.438.75.656.092.133.203.296.25.344.221.226.478.438.75.656.092.133.203.296.25.344.221.226.478.438.75.656.087.126.174.266.219.313.222.227.508.468.781.688.087.126.174.266.219.313.222.227.508.468.781.688.087.126.174.266.219.313.25.256.531.506.844.75.057.078.123.216.156.25.221.226.478.438.75.656.092.133.203.296.25.344.221.226.478.438.75.656.092.133.203.296.25.344.215.221.454.443.719.656.096.14.202.294.25.344.221.227.509.438.781.656.087.126.174.266.219.313.222.227.508.468.781.688.087.126.174.266.219.313.25.256.531.506.844.75.057.078.123.216.156.25.221.226.478.438.75.656.092.133.203.296.25.344.221.226.478.438.75.656.092.133.203.296.25.344.215.221.454.443.719.656.096.14.202.294.25.344.221.227.509.438.781.656.087.126.174.266.219.313.222.227.508.468.781.688.087.126.174.266.219.313.25.256.531.506.844.75.057.078.123.216.156.25.25.256.531.506.844.75.057.078.123.216.156.25.221.226.478.438.75.656.092.133.203.296.25.344.221.226.478.438.75.656.092.133.203.296.25.344.221.226.478.438.75.656.087.126.174.266.219.313.222.227.508.468.781.688.087.126.174.266.219.313 106.03-9.204 190.42-93.95 199-200.16-.278-.274-.565-.54-.844-.813-.016-.016-.016-.046-.031-.063-.011-.01-.021-.021-.031-.031-.302-.313-.633-.597-.938-.906-.016-.015-.015-.047-.031-.063-.011-.01-.021-.021-.031-.031-.3-.298-.604-.58-.906-.875-.037-.036-.057-.09-.094-.125-.337-.334-.66-.669-1-1-.326-.324-.64-.648-.969-.969-.332-.33-.665-.674-1-1-.332-.33-.665-.674-1-1-.308-.306-.627-.603-.938-.906-.016-.016-.016-.046-.031-.063-.011-.01-.021-.021-.031-.031-.3-.298-.604-.58-.906-.875-.037-.036-.057-.09-.094-.125-.337-.334-.66-.669-1-1-.326-.324-.64-.648-.969-.969-.332-.33-.665-.674-1-1-.332-.33-.665-.674-1-1-.308-.306-.627-.603-.938-.906-.016-.016-.015-.046-.031-.063-.011-.01-.021-.021-.031-.031-.137-.136-.269-.271-.406-.406-.062-.063-.125-.125-.188-.188-.103-.105-.209-.207-.313-.313-.031-.032-.063-.062-.094-.094-.337-.334-.66-.669-1-1-.626-.635-1.269-1.253-1.906-1.875-.016-.016-.016-.046-.031-.063-.011-.01-.021-.021-.031-.031-.332-.33-.665-.674-1-1-.308-.306-.627-.603-.938-.906-.016-.016-.016-.046-.031-.063-.011-.01-.021-.021-.031-.031-.308-.306-.627-.603-.938-.906-.016-.015-.015-.047-.031-.063-.011-.01-.021-.021-.031-.031-.3-.298-.604-.58-.906-.875-.037-.036-.057-.09-.094-.125-.303-.295-.601-.583-.906-.875-.037-.036-.057-.089-.094-.125-.326-.324-.64-.648-.969-.969-.332-.33-.665-.674-1-1-.332-.33-.665-.674-1-1-.308-.306-.627-.603-.938-.906-.016-.016-.016-.046-.031-.063-.011-.01-.021-.021-.031-.031-.3-.298-.604-.58-.906-.875-.037-.036-.057-.09-.094-.125-.337-.334-.66-.669-1-1-.326-.324-.64-.648-.969-.969-.332-.33-.665-.674-1-1-.332-.33-.665-.674-1-1-.308-.306-.627-.603-.938-.906-.016-.016-.016-.046-.031-.063-.011-.01-.021-.021-.031-.031-.3-.298-.604-.58-.906-.875-.005-.005.005-.026 0-.031-.031-.032-.063-.062-.094-.094-.084-.084-.166-.167-.25-.25-.212-.218-.443-.408-.656-.625-.037-.036-.057-.089-.094-.125-.326-.324-.64-.648-.969-.969-.332-.33-.665-.674-1-1-.332-.33-.665-.674-1-1-.308-.306-.627-.603-.938-.906-.016-.016-.015-.046-.031-.063-.011-.01-.021-.021-.031-.031-.12-.119-.255-.225-.375-.344-.016-.015-.015-.047-.031-.063-.062-.063-.125-.125-.188-.188-.103-.105-.209-.208-.313-.313-.021-.02-.041-.042-.063-.063-.011-.01-.021-.021-.031-.031-.3-.298-.604-.58-.906-.875-.037-.036-.057-.09-.094-.125-.095-.094-.186-.187-.281-.281-.536-.54-1.081-1.063-1.625-1.594-.016-.016-.016-.046-.031-.063-.011-.01-.021-.021-.031-.031-.332-.33-.665-.674-1-1-.308-.306-.627-.603-.938-.906-.016-.016-.016-.046-.031-.063-.011-.01-.021-.021-.031-.031-.308-.306-.627-.603-.938-.906-.016-.015-.015-.047-.031-.063-.011-.01-.021-.021-.031-.031-.3-.298-.604-.58-.906-.875-.037-.036-.057-.09-.094-.125-.337-.334-.66-.669-1-1-.326-.324-.64-.648-.969-.969-.332-.33-.665-.674-1-1-.332-.33-.665-.674-1-1-.308-.306-.627-.603-.938-.906-.016-.016-.016-.046-.031-.063-.011-.01-.021-.021-.031-.031-.3-.298-.604-.58-.906-.875-.037-.036-.057-.09-.094-.125-.337-.334-.66-.669-1-1-.326-.324-.64-.648-.969-.969-.332-.33-.665-.674-1-1-.332-.33-.665-.674-1-1-.308-.306-.627-.603-.938-.906-.016-.016-.015-.046-.031-.063-.011-.01-.021-.021-.031-.031-.137-.136-.269-.271-.406-.406-.062-.063-.125-.125-.188-.188-.106-.104-.206-.209-.313-.313-.031-.032-.063-.062-.094-.094-.337-.334-.66-.669-1-1-.626-.635-1.269-1.253-1.906-1.875-.016-.016-.016-.046-.031-.063-.011-.01-.021-.021-.031-.031-.332-.33-.665-.674-1-1-.308-.306-.627-.603-.938-.906-.016-.016-.016-.046-.031-.063-.011-.01-.021-.021-.031-.031-.308-.306-.627-.603-.938-.906-.016-.015-.015-.047-.031-.063-.011-.01-.021-.021-.031-.031-.3-.298-.604-.58-.906-.875-.037-.036-.057-.09-.094-.125-.303-.295-.601-.583-.906-.875-.037-.036-.057-.089-.094-.125-.326-.324-.64-.648-.969-.969-.332-.33-.665-.674-1-1-.332-.33-.665-.674-1-1-.308-.306-.627-.603-.938-.906-.016-.016-.016-.046-.031-.063-.011-.01-.021-.021-.031-.031-.3-.298-.604-.58-.906-.875-.037-.036-.057-.09-.094-.125-.337-.334-.66-.669-1-1-.326-.324-.64-.648-.969-.969-.332-.33-.665-.674-1-1-.332-.33-.665-.674-1-1-.308-.306-.627-.603-.938-.906-.016-.016-.016-.046-.031-.063-.011-.01-.021-.021-.031-.031-.3-.298-.604-.58-.906-.875-.005-.005.005-.026 0-.031-.031-.032-.063-.062-.094-.094-.084-.084-.166-.167-.25-.25-.212-.218-.443-.408-.656-.625-.037-.036-.057-.089-.094-.125-.326-.324-.64-.648-.969-.969-.332-.33-.665-.674-1-1-.332-.33-.665-.674-1-1-.308-.306-.627-.603-.938-.906-.016-.016-.015-.046-.031-.063-.011-.01-.021-.021-.031-.031-.12-.119-.255-.225-.375-.344-.016-.015-.015-.047-.031-.063-.062-.063-.125-.125-.188-.188-.103-.105-.209-.208-.313-.313-.031-.032-.063-.062-.094-.094-.337-.334-.66-.669-1-1-.626-.635-1.269-1.253-1.906-1.875-.016-.016-.016-.046-.031-.063-.011-.01-.021-.021-.031-.031-.332-.33-.665-.674-1-1-.308-.306-.627-.603-.938-.906-.016-.016-.016-.046-.031-.063-.011-.01-.021-.021-.031-.031-.308-.306-.627-.603-.938-.906-.016-.015-.015-.047-.031-.063-.011-.01-.021-.021-.031-.031-.3-.298-.604-.58-.906-.875-.037-.036-.057-.09-.094-.125-.337-.334-.66-.669-1-1-.326-.324-.64-.648-.969-.969-.332-.33-.665-.674-1-1-.637-.633-1.288-1.286-1.938-1.906-.016-.016-.016-.046-.031-.063-.011-.01-.021-.021-.031-.031-.3-.298-.604-.58-.906-.875-.037-.036-.057-.09-.094-.125-.337-.334-.66-.669-1-1-.326-.324-.64-.648-.969-.969-.332-.33-.665-.674-1-1-.332-.33-.665-.674-1-1-.308-.306-.627-.603-.938-.906-.016-.016-.015-.046-.031-.063-.011-.01-.021-.021-.031-.031-.137-.136-.269-.271-.406-.406-.062-.063-.125-.125-.188-.188-.103-.105-.209-.208-.313-.313-.031-.032-.063-.062-.094-.094-.337-.334-.66-.669-1-1-.626-.635-1.269-1.253-1.906-1.875-.016-.016-.016-.046-.031-.063-.011-.01-.021-.021-.031-.031-.332-.33-.665-.674-1-1-.308-.306-.627-.603-.938-.906-.016-.016-.016-.046-.031-.063-.011-.01-.021-.021-.031-.031-.308-.306-.627-.603-.938-.906-.016-.015-.015-.047-.031-.063-.011-.01-.021-.021-.031-.031-.3-.298-.604-.58-.906-.875-.037-.036-.057-.09-.094-.125-.095-.094-.186-.187-.281-.281-.536-.54-1.081-1.063-1.625-1.594-.016-.016-.016-.046-.031-.063-.011-.01-.021-.021-.031-.031-.332-.33-.665-.674-1-1-.332-.33-.665-.674-1-1-.334-.332-.663-.672-1-1-.174-.173-.357-.328-.531-.5-.164-.158-.304-.343-.469-.5-21.524-21.392-49.787-35.27-81.19-39.813-4.593-.664-11.626-1-18.656-1" fill-opacity=".235"/>
 <g fill-rule="evenodd">
  <path d="m256 1c-140.83 0-255 114.17-255 255s114.17 255 255 255 255-114.17 255-255-114.17-255-255-255m8.827 44.931c120.9 0 218.9 98 218.9 218.9s-98 218.9-218.9 218.9-218.93-98-218.93-218.9 98.03-218.9 218.93-218.9" fill-opacity=".067"/>
  <g fill-opacity=".129">
   <path d="m256 4.433c-138.94 0-251.57 112.63-251.57 251.57s112.63 251.57 251.57 251.57 251.57-112.63 251.57-251.57-112.63-251.57-251.57-251.57m5.885 38.556c120.9 0 218.9 98 218.9 218.9s-98 218.9-218.9 218.9-218.93-98-218.93-218.9 98.03-218.9 218.93-218.9"/>
   <path d="m256 8.356c-136.77 0-247.64 110.87-247.64 247.64s110.87 247.64 247.64 247.64 247.64-110.87 247.64-247.64-110.87-247.64-247.64-247.64m2.942 31.691c120.9 0 218.9 98 218.9 218.9s-98 218.9-218.9 218.9-218.93-98-218.93-218.9 98.03-218.9 218.93-218.9"/>
  </g>
  <path d="m253.04 7.859c-135.42 0-245.19 109.78-245.19 245.19 0 135.42 109.78 245.19 245.19 245.19 135.42 0 245.19-109.78 245.19-245.19 0-135.42-109.78-245.19-245.19-245.19zm0 26.297c120.9 0 218.9 98 218.9 218.9s-98 218.9-218.9 218.9-218.93-98-218.93-218.9 98.03-218.9 218.93-218.9z" fill="#ffffff" stroke="#000000" stroke-opacity=".31" stroke-width="4.904"/>
 </g>
 <path d="m199.3 396.78c-1.037-.245-2.703-1.284-3.702-2.31-1.099-1.128-14.877-26.14-34.858-63.28l-33.04-61.41-3.01-1.697c-3.805-2.147-8.116-6.162-9.916-9.234-1.337-2.282-1.378-2.628-1.022-8.651 1.548-26.22 9.589-50.692 23.562-71.71 22.975-34.55 58.27-56.672 100.06-62.715 9.187-1.328 28.12-1.328 37.31 0 32.414 4.687 61.5 19.323 83.26 41.903 24.346 25.26 37.625 55.28 40.1 90.67.584 8.354.563 8.775-.528 10.54-1.538 2.488-6.335 6.949-10.07 9.362l-3.063 1.98-32.855 61.19c-23.18 43.16-33.451 61.779-34.879 63.19-3.497 3.464-8.144 3.419-11.675-.112-2.586-2.586-3.258-5.346-2.093-8.587.445-1.238 13.763-26.334 29.594-55.769s28.925-53.885 29.1-54.33c.246-.641-.419-.892-3.1-1.172-1.877-.196-5.144-.958-7.258-1.694l-3.845-1.337-1.106 1.789c-2.625 4.248-9.959 10-15.321 12.03l-2.247.847-15.889 52.89c-10.96 36.484-16.298 53.44-17.209 54.674-3.224 4.357-9.885 4.379-13.36.045-2.961-3.693-3.167-2.791 12.75-55.844 7.994-26.646 14.638-48.745 14.764-49.11.145-.421-.93-.887-2.943-1.277-6.34-1.228-14.437-4.538-17.527-7.164-.905-.77-1.191-.647-3.341 1.43-10.798 10.433-31.12 14.227-46.841 8.746-5.145-1.793-8.33-3.727-12.187-7.397l-3.218-3.063-2.072 1.251c-5.175 3.125-13.347 6.17-16.631 6.197-2.804.023-3.03-.891 12.355 50.38 16.656 55.51 16.01 52.47 11.994 56.49-2.862 2.862-5.88 3.372-9.445 1.596-1.551-.773-2.985-2.025-3.651-3.189-.603-1.054-8.129-25.352-16.725-53.996l-15.627-52.08-4.619-2.348c-5.292-2.69-9.719-6.263-12.563-10.137l-1.972-2.686-3.802 1.275c-2.091.701-5.341 1.475-7.222 1.718l-3.419.443 29.574 54.851c28.36 52.599 29.583 54.988 29.785 58.19.264 4.183-1.034 6.542-4.455 8.095-2.553 1.159-3.068 1.206-5.91.535m4.56-131.2c5.361-1.016 11.08-3.118 14.03-5.155l2.227-1.539-.278-6.091c-.153-3.35-.249-13.734-.214-23.08.052-13.695.294-18.818 1.25-26.451 2.259-18.05 6.173-34.12 11.814-48.49 2.676-6.821 7.826-17.538 10.35-21.536.761-1.205 1.27-2.303 1.133-2.44-.448-.448-9.993 4.827-16.365 9.05-26.963 17.851-46.01 46.01-55.51 82.08-1.879 7.133-4.196 19.287-4.61 24.18l-.338 3.995 2.643 3.312c4.442 5.567 9.153 9.122 15.06 11.362 6.073 2.304 10 2.472 18.81.802m123.46-.69c7.298-2.342 15.01-9.201 16.962-15.08.787-2.374.752-3.109-.509-10.664-8.304-49.757-33.365-87.12-71.41-106.47-3.732-1.898-6.933-3.304-7.112-3.125s.702 2.555 1.958 5.279c10.237 22.21 17.344 50.16 20.307 79.85 1.035 10.373 2.028 29.988 1.854 36.609-.119 4.519.011 5.343 1.063 6.767 2.335 3.158 10.283 6.676 17.673 7.823 5.427.842 15.05.345 19.218-.994" fill="#ffffff"/>
</svg>
