<svg height="512" viewBox="0 0 512 512" width="512" xmlns="http://www.w3.org/2000/svg">
 <path d="m471.95 253.05c0 120.9-98.01 218.91-218.91 218.91s-218.91-98.01-218.91-218.91 98.01-218.91 218.91-218.91 218.91 98.01 218.91 218.91" fill="#9f9f9f" fill-rule="evenodd"/>
 <path d="m331.66 118.41c-.706-.002-1.419.016-2.125.031-28.404.604-56.02 14.969-69.41 43.22l-.594 1.281-21.688-21.688c-5.582-5.582-12.04-10.587-18.438-13.969-12.402-6.573-16.854-8.936-37.938-8.813-20.15.109-26.1 2.718-38.16 8.625-17.04 8.341-30.384 21.988-39.438 40.34-5.333 10.821-6.609 17.91-6.625 36.25-.042 34 10.734 59.891 35.781 84.938l176.09 176.06c93.72-24.772 162.81-110.12 162.81-211.62 0-11.05-.794-21.92-2.375-32.531l-77.53-77.5c-16.313-16.313-38.478-24.563-60.37-24.625" opacity=".25"/>
 <g fill-rule="evenodd">
  <path d="m256 1c-140.83 0-255 114.17-255 255s114.17 255 255 255 255-114.17 255-255-114.17-255-255-255m8.827 44.931c120.9 0 218.9 98 218.9 218.9s-98 218.9-218.9 218.9-218.93-98-218.93-218.9 98.03-218.9 218.93-218.9" fill-opacity=".067"/>
  <g fill-opacity=".129">
   <path d="m256 4.43c-138.94 0-251.57 112.63-251.57 251.57s112.63 251.57 251.57 251.57 251.57-112.63 251.57-251.57-112.63-251.57-251.57-251.57m5.885 38.556c120.9 0 218.9 98 218.9 218.9s-98 218.9-218.9 218.9-218.93-98-218.93-218.9 98.03-218.9 218.93-218.9"/>
   <path d="m256 8.36c-136.77 0-247.64 110.87-247.64 247.64s110.87 247.64 247.64 247.64 247.64-110.87 247.64-247.64-110.87-247.64-247.64-247.64m2.942 31.691c120.9 0 218.9 98 218.9 218.9s-98 218.9-218.9 218.9-218.93-98-218.93-218.9 98.03-218.9 218.93-218.9"/>
  </g>
  <path d="m253.04 7.86c-135.42 0-245.19 109.78-245.19 245.19 0 135.42 109.78 245.19 245.19 245.19 135.42 0 245.19-109.78 245.19-245.19 0-135.42-109.78-245.19-245.19-245.19zm0 26.297c120.9 0 218.9 98 218.9 218.9s-98 218.9-218.9 218.9-218.93-98-218.93-218.9 98.03-218.9 218.93-218.9z" fill="#ffffff" stroke="#000000" stroke-opacity=".31" stroke-width="4.904"/>
 </g>
 <g fill="#ffffff">
  <path d="m340.37 221.9c-43.826 0-79.35 35.528-79.35 79.35 0 43.826 35.528 79.35 79.35 79.35 43.826 0 79.35-35.528 79.35-79.35 0-43.826-35.528-79.35-79.35-79.35m0 9.116c3.963.002 7.934.354 11.835 1.014l-3.382 41.636c-1.546-.471-3.109-.768-4.706-.972l-5.453-41.664c.566-.014 1.139-.014 1.705-.014m23.291 4.227c11.695 4.124 21.935 11.301 29.842 20.529l-29.19 29.842c-2.882-4.399-6.983-7.942-11.779-10.201l11.131-40.17m-23.23 52.936c7.23 0 13.02 5.887 13.02 13.12 0 7.23-5.788 13.03-13.02 13.03-7.23 0-13.13-5.802-13.13-13.03 0-7.23 5.902-13.12 13.13-13.12m-18.06 35.21c4.113 3.345 9.05 5.477 14.259 6.171l-14.259 39.32c-11.742-3.132-22.639-9.307-31.42-18.06l31.42-27.433"/>
  <path d="m329.53 118.44c-28.404.604-56.02 14.969-69.41 43.22l-4.906 10.344-1.969-7.5c-3.209-12.139-18.744-29.23-33.844-37.22-12.402-6.573-16.854-8.936-37.938-8.813-20.15.109-26.1 2.718-38.16 8.625-17.04 8.341-30.384 21.988-39.438 40.34-5.333 10.821-6.609 17.91-6.625 36.25-.047 37.61 13.151 65.31 44.25 92.91 16.867 14.976 22.515 19.348 64.06 49.594 14.03 10.201 31.12 24.574 37.938 31.969 12.976 13.999 10.148 18.691 13.09 13.156 1.299-2.455 11.565-12.667 25.563-25.03-18-16.483-29.479-40.33-29.28-65-1.164-45.694 39.46-87.26 85.16-87.44 1.305-.036 2.602-.056 3.906-.031 19.557.37 38.793 7.572 53.875 19.969 4.623 3.567 8.756 7.64 12.406 12.09.228-.568.467-1.146.688-1.719 8.635-22.479 7.579-62.35-2.156-81.03-15.835-30.368-46.982-45.33-77.22-44.688"/>
 </g>
</svg>
