<svg height="512" viewBox="0 0 512 512" width="512" xmlns="http://www.w3.org/2000/svg">
 <path d="m471.95 253.05c0 120.9-98.01 218.9-218.9 218.9-120.9 0-218.9-98.01-218.9-218.9 0-120.9 98.01-218.9 218.9-218.9 120.9 0 218.9 98.01 218.9 218.9" fill="#7c7c7c" fill-rule="evenodd"/>
 <path d="m256 1c-140.83 0-255 114.17-255 255 0 140.83 114.17 255 255 255 140.83 0 255-114.17 255-255 0-140.83-114.17-255-255-255m8.827 44.931c120.9 0 218.9 98 218.9 218.9 0 120.9-98 218.9-218.9 218.9-120.9 0-218.93-98-218.93-218.9 0-120.9 98.03-218.9 218.93-218.9" fill-opacity=".067" fill-rule="evenodd"/>
 <g fill-opacity=".129" fill-rule="evenodd">
  <path d="m256 4.433c-138.94 0-251.57 112.63-251.57 251.57 0 138.94 112.63 251.57 251.57 251.57 138.94 0 251.57-112.63 251.57-251.57 0-138.94-112.63-251.57-251.57-251.57m5.885 38.556c120.9 0 218.9 98 218.9 218.9 0 120.9-98 218.9-218.9 218.9-120.9 0-218.93-98-218.93-218.9 0-120.9 98.03-218.9 218.93-218.9"/>
  <path d="m256 8.356c-136.77 0-247.64 110.87-247.64 247.64 0 136.77 110.87 247.64 247.64 247.64 136.77 0 247.64-110.87 247.64-247.64 0-136.77-110.87-247.64-247.64-247.64m2.942 31.691c120.9 0 218.9 98 218.9 218.9 0 120.9-98 218.9-218.9 218.9-120.9 0-218.93-98-218.93-218.9 0-120.9 98.03-218.9 218.93-218.9"/>
 </g>
 <path d="m253.04 7.859c-135.42 0-245.19 109.78-245.19 245.19 0 135.42 109.78 245.19 245.19 245.19 135.42 0 245.19-109.78 245.19-245.19 0-135.42-109.78-245.19-245.19-245.19zm0 26.297c120.9 0 218.9 98 218.9 218.9 0 120.9-98 218.9-218.9 218.9-120.9 0-218.93-98-218.93-218.9 0-120.9 98.03-218.9 218.93-218.9z" fill="#ffffff" fill-rule="evenodd" stroke="#000000" stroke-opacity=".31" stroke-width="4.904"/>
 <path d="m401.08383 172.56944l-36.26335 7.96001-111.9212-75.65909-26.40925 48.10845c-42.94187 46.21487-56.07735 102.67569-83.32313 154.28609l35.69492 28.42949-15.95858 36.66817 150.59945 92.34085 90.67874-38.90183 58.36008-88.84221 9.32444-116.19597" opacity=".25"/>
 <path d="m231.87292 105.16997l-10.19528 30.58582c-10.29036 2.77861-20.16869 6.89899-29.38142 12.25548l-28.92712-14.46357-29.8991 29.89906 14.44243 28.88485c-5.31423 9.2233-9.39233 19.10163-12.12868 29.38142l-30.63866 10.23753v42.26021l30.58584 10.19529c2.77861 10.29036 6.89898 20.16869 12.25546 29.38142l-14.46356 28.92712 29.8991 29.89909 28.88486-14.44243c9.22329 5.31421 19.05935 9.39232 29.33915 12.12867l10.2798 30.63867h21.10898v-73.91312c-40.8445 0-73.95538-33.11088-73.95538-73.95538 0-40.84449 33.11088-73.95537 73.95538-73.95537v-73.95534zm145.29061 42.26021l-103.00927 110.93302-39.61895-39.61895-23.77137 23.77137 63.39032 63.39031 126.78065-134.70443z" fill="#f9f9f9" fill-opacity=".983"/>
</svg>
