<svg height="1814.17" viewBox="0 0 512 512" width="1814.17" xmlns="http://www.w3.org/2000/svg">
 <g transform="matrix(3.7795276 0 0 3.7795276 561.71432 284.908881)">
  <g fill-rule="evenodd" transform="matrix(.26458334 0 0 .26458334 -148.62025 -75.382145)">
   <path d="m471.95 253.05c0 120.9-98.01 218.91-218.91 218.91-120.9 0-218.91-98.01-218.91-218.91 0-120.9 98.01-218.91 218.91-218.91 120.9 0 218.91 98.01 218.91 218.91" fill="#b0b0b0"/>
   <path d="m256 1c-140.83 0-255 114.17-255 255 0 140.83 114.17 255 255 255 140.83 0 255-114.17 255-255 0-140.83-114.17-255-255-255m8.827 44.931c120.9 0 218.9 98 218.9 218.9 0 120.9-98 218.9-218.9 218.9-120.9 0-218.93-98-218.93-218.9 0-120.9 98.03-218.9 218.93-218.9" fill-opacity=".067"/>
   <g fill-opacity=".129">
    <path d="m256 4.43c-138.94 0-251.57 112.63-251.57 251.57 0 138.94 112.63 251.57 251.57 251.57 138.94 0 251.57-112.63 251.57-251.57 0-138.94-112.63-251.57-251.57-251.57m5.885 38.556c120.9 0 218.9 98 218.9 218.9 0 120.9-98 218.9-218.9 218.9-120.9 0-218.93-98-218.93-218.9 0-120.9 98.03-218.9 218.93-218.9"/>
    <path d="m256 8.36c-136.77 0-247.64 110.87-247.64 247.64 0 136.77 110.87 247.64 247.64 247.64 136.77 0 247.64-110.87 247.64-247.64 0-136.77-110.87-247.64-247.64-247.64m2.942 31.691c120.9 0 218.9 98 218.9 218.9 0 120.9-98 218.9-218.9 218.9-120.9 0-218.93-98-218.93-218.9 0-120.9 98.03-218.9 218.93-218.9"/>
   </g>
   <path d="m253.04 7.86c-135.42 0-245.19 109.78-245.19 245.19 0 135.42 109.78 245.19 245.19 245.19 135.42 0 245.19-109.78 245.19-245.19 0-135.42-109.78-245.19-245.19-245.19zm0 26.297c120.9 0 218.9 98 218.9 218.9 0 120.9-98 218.9-218.9 218.9-120.9 0-218.93-98-218.93-218.9 0-120.9 98.03-218.9 218.93-218.9z" fill="#ffffff" stroke="#000000" stroke-opacity=".31" stroke-width="4.904"/>
  </g>
  <path d="m-80.886915-54.736706c-2.591329 0-4.67995 1.916112-4.67995 4.299479v9.260417c-14.951605 2.067454-26.781125 13.895917-28.847525 28.847522h-9.26041c-2.3839 0-4.29948 2.088621-4.29948 4.6799495 0 1.367632.53551 2.59424 1.38906 3.447521l53.107168 53.1071665c25.431753-3.60203 45.545373-23.7146 49.146353-49.14635349l-53.107166-53.10716851c-.853545-.853546-2.080154-1.389062-3.447521-1.389062" opacity=".25"/>
  <path d="m-80.886915-54.731414c-2.591329 0-4.676775 1.912937-4.676775 4.296304v9.2583c-14.95161 2.067454-26.78642 13.901209-28.85281 28.852814h-9.2583c-2.3839 0-4.29631 2.085446-4.29631 4.6767745 0 2.591329 1.91294 4.676775 4.29631 4.676775h9.2583c2.06745 14.9516055 13.9012 26.7864185 28.85281 28.8528155v9.2583c0 2.38389 2.085446 4.2963 4.676775 4.2963 2.59133 0 4.676775-1.91293 4.676775-4.2963v-9.2583c14.951605-2.067456 26.786418-13.90121 28.852811-28.8528155h9.2583c2.3839 0 4.29631-2.085446 4.29631-4.676775 0-2.5913285-1.91294-4.6767745-4.29631-4.6767745h-9.2583c-2.067451-14.951605-13.901206-26.786418-28.852811-28.852814v-9.2583c0-2.383896-2.085445-4.296304-4.676775-4.296304m-4.676775 21.433896v8.933128c0 2.383895 2.085446 4.296304 4.676775 4.296304 2.59133 0 4.676775-1.912938 4.676775-4.296304v-8.933128c10.646834 1.929342 19.04418 10.326688 20.973522 20.973522h-8.933127c-2.383896 0-4.296305 2.085446-4.296305 4.6767745 0 2.591329 1.912938 4.676775 4.296305 4.676775h8.933127c-1.929342 10.646834-10.326688 19.0441805-20.973522 20.9735225v-8.9331285c0-2.383896-2.085445-4.296304-4.676775-4.296304-2.591329 0-4.676775 1.912937-4.676775 4.296304v8.9331285c-10.646834-1.929342-19.04418-10.3266885-20.97352-20.9735225h8.933126c2.383896 0 4.296304-2.085446 4.296304-4.676775 0-2.5913285-1.912937-4.6767745-4.296304-4.6767745h-8.933126c1.92934-10.646834 10.326686-19.04418 20.97352-20.973522" fill="#ffffff"/>
 </g>
</svg>
