<svg xmlns="http://www.w3.org/2000/svg" height="512" width="512"><g fill-rule="evenodd"><path d="M471.95 253.05c0 120.9-98.01 218.9-218.9 218.9-120.9 0-218.9-98.01-218.9-218.9 0-120.9 98.01-218.9 218.9-218.9 120.9 0 218.9 98.01 218.9 218.9" fill="#777"/><path d="M256 1C115.17 1 1 115.17 1 256s114.17 255 255 255 255-114.17 255-255S396.83 1 256 1m8.827 44.93c120.9 0 218.9 98 218.9 218.9s-98 218.9-218.9 218.9-218.93-98-218.93-218.9 98.03-218.9 218.93-218.9" fill-opacity=".067"/><g fill-opacity=".129"><path d="M256 4.433c-138.94 0-251.57 112.63-251.57 251.57S117.06 507.573 256 507.573s251.57-112.63 251.57-251.57S394.94 4.433 256 4.433m5.885 38.556c120.9 0 218.9 98 218.9 218.9s-98 218.9-218.9 218.9-218.93-98-218.93-218.9 98.03-218.9 218.93-218.9"/><path d="M256 8.356c-136.77 0-247.64 110.87-247.64 247.64S119.23 503.636 256 503.636s247.64-110.87 247.64-247.64S392.77 8.356 256 8.356m2.942 31.69c120.9 0 218.9 98 218.9 218.9s-98 218.9-218.9 218.9-218.93-98-218.93-218.9 98.03-218.9 218.93-218.9"/></g><path d="M253.04 7.86C117.62 7.86 7.85 117.64 7.85 253.05c0 135.42 109.78 245.19 245.19 245.19 135.42 0 245.19-109.78 245.19-245.19 0-135.42-109.78-245.19-245.19-245.19zm0 26.296c120.9 0 218.9 98 218.9 218.9s-98 218.9-218.9 218.9-218.93-98-218.93-218.9 98.03-218.9 218.93-218.9z" fill="#fff" stroke="#000" stroke-opacity=".31" stroke-width="4.904"/></g><path d="M235.795 91.77c-1.92.037-3.754.18-5.53.407-14.1 1.813-16.89 1.746-30.407 9.5-6.343 3.638-9.14 9.02-8.03 16.25 43.41 93.77-.075-.036 43.41 93.91.796.933 1.44 1.97 2.25 2.594.345.425.696.817 1.094 1.095.318.382.635.745 1 1 .318.382.635.745 1 1 .282.338.56.632.875.875.35.433.72.81 1.125 1.094.318.382.635.745 1 1 .318.382.604.745.97 1 .317.382.634.745 1 1 .317.382.634.745 1 1 .28.338.558.632.874.875.35.432.72.81 1.125 1.093.32.382.636.745 1 1 .282.338.56.664.876.906.345.423.696.815 1.094 1.093.318.382.635.745 1 1 .108.13.202.257.313.375-.762.12-1.51.253-2.25.438-.14-.103-.295-.195-.438-.28-.308-.4-.243-.307-.563-.72-.153-.112-.313-.19-.47-.28-.3-.39-.217-.316-.53-.72-.144-.106-.29-.193-.438-.28-.308-.4-.243-.307-.563-.72-.14-.104-.292-.194-.437-.28-.308-.4-.243-.307-.563-.72-.143-.105-.292-.163-.438-.25-.317-.408-.234-.326-.563-.75-.143-.104-.295-.164-.44-.25-.315-.408-.233-.327-.562-.75-.15-.11-.286-.19-.438-.28-.295-.38-.227-.295-.53-.69-.14-.1-.298-.165-.44-.25-.316-.408-.233-.325-.562-.75-.146-.106-.29-.193-.438-.28-.31-.4-.243-.306-.563-.72-.144-.105-.29-.194-.438-.28-.31-.4-.244-.306-.564-.72-.133-.097-.27-.168-.406-.25-.323-.416-.26-.317-.594-.75-.148-.108-.286-.192-.438-.28-.31-.4-.243-.306-.563-.72-.142-.103-.293-.164-.438-.25-.303-.39-.218-.313-.53-.718-.146-.106-.29-.195-.44-.28-.308-.4-.242-.307-.562-.72-.143-.105-.292-.196-.438-.28-.31-.4-.243-.307-.563-.72-.158-.116-.307-.22-.47-.313-.294-.38-.226-.295-.53-.688-.143-.105-.292-.166-.438-.25-.318-.41-.234-.326-.563-.75-.14-.103-.294-.167-.438-.25-.318-.41-.234-.326-.563-.75-.15-.11-.286-.195-.438-.28-.295-.382-.227-.296-.53-.69-.138-.1-.3-.168-.44-.25-.317-.41-.233-.325-.562-.75-.145-.105-.29-.196-.438-.28-.31-.4-.243-.306-.563-.72-.142-.104-.29-.197-.437-.28-.31-.4-.243-.306-.563-.72-.145-.105-.29-.165-.438-.25-.318-.41-.234-.325-.563-.75-.144-.104-.293-.167-.44-.25-.317-.41-.233-.325-.562-.75-.14-.102-.294-.168-.438-.25-.318-.41-.234-.326-.563-.75-.14-.102-.263-.168-.406-.25-.31-.4-.242-.305-.562-.718-.137-.1-.298-.172-.438-.25-.318-.412-.234-.327-.563-.75-.152-.113-.313-.198-.47-.282-.303-.392-.217-.315-.53-.72-.15-.11-.316-.197-.47-.28-.303-.392-.217-.315-.53-.72-.15-.11-.283-.197-.438-.28-.31-.4-.244-.306-.564-.72-.148-.108-.286-.198-.438-.28-.31-.4-.243-.306-.563-.72-.146-.106-.288-.2-.438-.28-.296-.382-.227-.295-.53-.688-.144-.105-.292-.202-.44-.28-.31-.402-.24-.307-.562-.72-.14-.103-.293-.203-.438-.28-.31-.402-.243-.307-.563-.72-.157-.115-.308-.23-.47-.313l-.53-.688c-.154-.114-.31-.2-.47-.282-.303-.393-.217-.315-.53-.72-.15-.11-.282-.2-.438-.28-.31-.4-.243-.306-.563-.72-.15-.108-.285-.2-.438-.28-.297-.383-.227-.295-.53-.688-.147-.107-.32-.204-.47-.28-.305-.395-.218-.315-.53-.72-.144-.105-.292-.205-.44-.28-.31-.403-.242-.307-.562-.72-.14-.103-.293-.207-.438-.28-.31-.402-.243-.307-.563-.72-.146-.107-.287-.174-.438-.25-.32-.412-.234-.326-.563-.75-.142-.105-.29-.176-.437-.25-.32-.412-.234-.327-.563-.75-.152-.11-.28-.205-.438-.28-.297-.384-.227-.296-.53-.69-.138-.1-.297-.178-.44-.25-.32-.412-.233-.325-.562-.75-.136-.098-.298-.18-.438-.25-.32-.412-.234-.325-.563-.75-.145-.104-.29-.21-.44-.28-.31-.402-.242-.306-.562-.72-.13-.094-.273-.15-.406-.218-.334-.43-.25-.338-.594-.78-.14-.103-.263-.182-.406-.25-.326-.422-.26-.32-.594-.75-.146-.108-.287-.18-.438-.25-.32-.414-.234-.327-.563-.75-.12-.09-.25-.126-.375-.19-.335-.43-.25-.336-.594-.78-.14-.102-.294-.183-.438-.25-.32-.413-.234-.326-.563-.75-.13-.095-.273-.187-.406-.25-.325-.42-.258-.318-.593-.75-.132-.097-.27-.156-.406-.22-.334-.43-.25-.337-.593-.78-.132-.097-.27-.156-.406-.22-.334-.43-.25-.337-.593-.78-.14-.103-.26-.187-.406-.25-.325-.42-.258-.318-.593-.75-.125-.09-.246-.13-.375-.188-.335-.432-.25-.337-.594-.78-.123-.092-.28-.162-.406-.22-.335-.432-.25-.338-.594-.78-.132-.098-.27-.192-.406-.25-.327-.423-.258-.318-.594-.75-.123-.09-.247-.164-.375-.22-.34-.44-.275-.33-.625-.78-.123-.09-.247-.165-.375-.22-.34-.44-.275-.33-.625-.78-.124-.092-.246-.135-.375-.19-.266-.342-.354-.46-.625-.812-.126-.092-.244-.135-.375-.188-.255-.33-.333-.445-.594-.78-.117-.086-.256-.138-.376-.19-.267-.343-.353-.46-.625-.812-.122-.09-.25-.17-.376-.22-.26-.335-.36-.438-.625-.78-.124-.09-.248-.14-.376-.188-.266-.344-.353-.462-.625-.813-.12-.086-.253-.14-.376-.187-.266-.344-.353-.462-.625-.813-.125-.09-.246-.173-.376-.22-.26-.335-.36-.438-.625-.78-.128-.093-.243-.144-.376-.188-.266-.344-.353-.462-.625-.813-.13-.097-.24-.147-.376-.19-.255-.328-.334-.445-.594-.78-.116-.085-.254-.148-.375-.188-.266-.344-.353-.462-.625-.813-.12-.09-.25-.15-.375-.19-.266-.343-.353-.46-.625-.812-.114-.084-.224-.12-.344-.156l-.656-.844c-.11-.08-.23-.123-.344-.156-.278-.358-.373-.478-.656-.844-.112-.082-.225-.126-.344-.156-.278-.358-.373-.478-.656-.844-.118-.087-.218-.13-.344-.156-.267-.344-.353-.462-.625-.813-.102-.077-.234-.13-.343-.157-.278-.36-.373-.478-.656-.844-.105-.078-.23-.103-.343-.126-.284-.367-.366-.5-.656-.875-.112-.084-.222-.14-.343-.157-.278-.36-.373-.478-.656-.844-.103-.078-.2-.11-.312-.126-.29-.373-.393-.495-.688-.875-.102-.076-.204-.114-.313-.126-.29-.373-.393-.495-.688-.875-.093-.07-.183-.084-.282-.095-.29-.373-.392-.494-.688-.875-.1-.073-.205-.123-.313-.125-.007-.005-.024.005-.03 0-.285-.367-.367-.5-.657-.875-.088-.065-.186-.092-.28-.094-.013-.01-.02-.023-.032-.03-.29-.374-.392-.495-.688-.876-.077-.057-.167-.092-.25-.094-.03-.023-.063-.04-.094-.063-.278-.36-.373-.478-.656-.844-.066-.05-.147-.062-.22-.064l-.124-.094c-.278-.36-.373-.478-.656-.844-.055-.04-.097-.06-.156-.063-.082-.06-.168-.1-.25-.156-.256-.33-.334-.447-.594-.782-.044-.032-.077-.03-.125-.03-.086-.064-.164-.13-.25-.19-.25-.32-.34-.422-.594-.75-.032-.023-.088-.06-.124-.062-.102-.075-.21-.117-.313-.188-.245-.316-.314-.43-.563-.75-.022-.016-.07-.03-.094-.03-.113-.084-.23-.142-.344-.22-.245-.315-.314-.43-.563-.75-.012-.008-.02-.03-.032-.03-.146-.108-.29-.215-.438-.314-.22-.284-.308-.368-.53-.656-2.21-1.622-4.554-2.31-6.94-2.344-3.973-.058-8.07 1.747-11.874 4.28-8.7 5.8-14.87 11.08-19.25 16.75-8.685 11.25-10.706 13.18-14.78 28.22-1.705 6.29-.438 11.554 4.03 15.69.274.3.568.584.874.874.304.34.657.644 1 .97.363.406.767.8 1.188 1.187.262.284.522.57.813.844.313.35.646.663 1 1 .388.433.83.838 1.282 1.25.327.35.66.695 1.03 1.03.237.253.492.506.75.75.357.398.746.778 1.157 1.156.314.344.64.67 1 1 .313.342.643.673 1 1 .268.294.542.592.843.875.36.407.767.773 1.188 1.157.268.29.547.564.845.844.347.39.723.787 1.125 1.157.312.342.675.674 1.03 1 .315.345.642.67 1 1 .314.343.644.673 1 1 .373.408.784.8 1.22 1.188.224.238.44.49.688.72.31.346.645.668 1 1 .308.345.647.67 1 1 .357.4.768.775 1.188 1.155.297.323.6.66.938.97.31.342.643.672 1 1 .33.364.71.715 1.094 1.062.312.34.642.676 1 1 .267.29.543.596.844.875.358.403.765.776 1.188 1.156.315.343.638.674 1 1 .44.48.904.96 1.438 1.406.108.107.2.236.313.343.375.43.803.845 1.25 1.25.312.34.643.676 1 1 .31.338.645.678 1 1 .317.347.666.702 1.032 1.03.287.316.577.607.906.907.283.316.613.605.938.906.33.375.706.74 1.094 1.094.284.317.58.635.906.938.31.355.667.664 1.03 1 .318.36.66.722 1.032 1.063.335.378.73.74 1.125 1.095.285.314.58.64.906.938.028.033.063.06.093.094-2.605-.387-12.32-1.684-49.844-6.438-7.23 1.108-10.534 7.485-11.97 14.655-2.052 10.25-2.664 18.36-1.75 25.47 1.813 14.1 1.746 16.888 9.5 30.405 1.146 1.997 2.474 3.655 3.97 4.938.355.368.714.71 1.093 1.03.344.356.666.69 1.03 1 .348.36.694.717 1.064 1.032.346.358.695.686 1.063 1 .255.264.515.51.78.75.425.46.856.89 1.314 1.28.32.333.66.645 1 .94.343.36.698.684 1.063 1 .36.376.742.734 1.125 1.062.322.334.66.674 1 .97.36.377.71.734 1.094 1.062.344.358.697.72 1.063 1.03.33.347.678.667 1.03.97.33.346.68.666 1.03.97.365.384.737.76 1.126 1.093.34.354.67.692 1.03 1 .353.37.718.68 1.095 1 .342.356.67.722 1.032 1.03.35.368.72.684 1.094 1 .09.116.18.227.28.314.247.244.493.5.75.72.118.145.237.276.376.375.2.196.385.382.594.563.198.266.393.493.656.625.027.026.066.037.094.063.013.022.018.04.03.063.26.45.58.76.97.937.013.022.018.04.03.063.254.442.562.75.94.938.007.014.022.018.03.03.263.46.61.806 1 1 .272.474.628.83 1.03 1.032.278.47.626.828 1.032 1.03.28.465.592.828 1 1.032.287.466.618.824 1.03 1.03.27.426.567.727.94.94.282.463.63.805 1.03 1.03.283.454.607.805 1 1.03.284.45.64.772 1.03 1 .287.45.61.8 1 1.032.287.446.612.795 1 1.03.287.44.616.763 1 1 .106.16.227.305.345.44-.498.385-.677.51-1.188.905-4.326 5.894-2.118 12.727 1.938 18.812 4.405 6.61 8.512 11.79 12.72 15.813.39.393.794.784 1.187 1.156.228.228.46.47.688.69.45.455.892.914 1.344 1.343.23.228.458.466.688.688.482.49.953.98 1.438 1.44.197.195.396.402.594.593l.03.03c.418.423.832.853 1.25 1.25.303.303.604.617.907.907.338.34.69.675 1.03 1 .02.022.042.04.063.063.317.318.62.664.938.97.342.342.69.672 1.032 1l.063.062c.313.315.623.637.938.938.332.335.666.68 1 1 .29.307.585.58.875.875.04.042.086.083.125.125.4.402.787.808 1.188 1.188.25.25.5.51.75.75.408.414.81.83 1.22 1.22.258.272.523.52.78.78.05.054.108.105.157.157.386.39.768.79 1.156 1.156.292.292.582.595.875.875.34.342.69.675 1.03 1l.032.03c.328.33.64.687.97 1 .33.334.668.653 1 .97.376.38.745.765 1.124 1.125l.03.03c.305.306.603.616.907.907.02.02.044.04.064.063.316.318.62.666.938.97.404.407.813.804 1.22 1.187.288.29.584.568.874.844.02.02.043.04.063.063.305.307.6.645.905.938.34.343.69.675 1.03 1 .036.037.06.088.095.125.248.25.502.51.75.75.445.453.897.89 1.344 1.313.227.227.46.47.688.688.48.492.954.984 1.438 1.44.197.195.396.403.594.593.43.438.85.873 1.28 1.28.693.737 1.398 1.437 2.095 2.095l.03.03c.216.218.44.448.656.657.392.4.793.78 1.188 1.156.07.075.15.146.22.22.264.265.515.56.78.813.35.355.71.697 1.063 1.03.065.07.123.15.188.22.207.207.418.425.625.625.4.41.816.804 1.22 1.188.068.074.148.145.218.22.264.263.516.56.78.812.37.375.754.742 1.126 1.094.05.053.107.104.156.156.187.186.375.382.563.563.44.453.87.895 1.313 1.314.05.053.107.104.156.156.188.188.374.38.563.563.437.448.873.898 1.313 1.313.06.063.13.125.188.188.175.175.356.362.53.53.335.344.666.678 1 1 .413.425.837.826 1.25 1.22.1.107.215.208.314.313.23.23.455.467.688.688l.094.094c.074.08.144.17.22.25.164.164.333.34.5.5.33.34.666.678 1 1 .392.404.79.81 1.187 1.187.38.388.772.764 1.155 1.125.238.24.48.488.72.72.46.475.91.938 1.374 1.374.26.265.517.53.78.78.415.426.833.828 1.25 1.22.084.09.166.192.25.28.134.134.272.278.406.407.334.345.665.677 1 1 .412.427.835.825 1.25 1.22.335.34.663.68 1 1 .345.35.685.702 1.03 1.03l.314.313c.044.047.08.11.125.156.115.114.228.232.344.344.408.424.837.828 1.25 1.22.375.382.746.77 1.124 1.124.228.23.46.467.688.688.45.468.89.917 1.344 1.344.28.283.564.546.844.813.382.393.74.794 1.125 1.156.247.253.502.512.75.75.417.434.83.855 1.25 1.25.345.354.684.705 1.03 1.032.336.342.664.682 1 1 .346.353.685.704 1.032 1.03.252.26.497.507.75.75.41.43.838.83 1.25 1.22.365.375.726.748 1.094 1.094.24.244.48.488.72.72.105.11.21.205.313.312 4.285.25 8.59.406 12.938.406 120.9 0 218.91-98.01 218.91-218.91 0-4.616-.155-9.204-.437-13.75-.135-.126-.27-.253-.406-.375-.056-.06-.1-.13-.156-.19-.102-.098-.21-.184-.312-.28-.18-.183-.352-.387-.53-.563-.34-.36-.692-.7-1.032-1.03-.336-.357-.694-.703-1.03-1.032-.053-.055-.105-.102-.157-.156l-.095-.095c-.254-.264-.526-.5-.78-.75-.047-.05-.08-.108-.126-.156-.126-.12-.25-.228-.376-.345-.175-.178-.356-.36-.53-.53-.34-.362-.69-.7-1.032-1.032-.036-.038-.057-.087-.094-.125-.092-.09-.19-.163-.28-.25-.214-.22-.413-.45-.626-.656-.334-.354-.696-.674-1.03-1-.037-.038-.06-.088-.095-.125-.093-.09-.188-.163-.28-.25-.215-.22-.443-.448-.657-.656-.337-.357-.692-.7-1.03-1.03-.027-.027-.038-.067-.064-.094-.125-.12-.25-.227-.375-.344-.194-.2-.397-.404-.593-.594-.02-.022-.042-.04-.063-.063-.334-.322-.632-.643-.97-.938-.014-.016-.015-.046-.03-.063-.123-.118-.252-.23-.375-.344-.206-.21-.42-.426-.626-.625-.016-.017-.016-.046-.03-.063-.083-.08-.17-.142-.25-.22-.246-.253-.474-.51-.72-.75-.336-.355-.694-.704-1.03-1.03-.338-.358-.693-.673-1.032-1-.005-.005.005-.026 0-.03-.115-.112-.23-.206-.344-.314-.226-.233-.46-.47-.688-.688-.34-.362-.688-.7-1.03-1.03-.344-.365-.688-.7-1.032-1.032-.334-.355-.664-.677-1-1-.336-.357-.693-.707-1.03-1.03-.34-.36-.692-.706-1.032-1.032-.34-.36-.69-.704-1.03-1.03-.343-.364-.688-.672-1.032-1-.34-.36-.69-.706-1.03-1.032-.34-.36-.66-.705-1-1.03-.338-.36-.693-.71-1.032-1.032-.34-.36-.69-.675-1.03-1-.11-.114-.206-.233-.314-.344-.152-.14-.316-.273-.47-.406-.088-.087-.16-.196-.25-.28-.342-.365-.685-.705-1.03-1.032-.345-.366-.684-.703-1.03-1.03-.338-.358-.662-.68-1-1-.34-.36-.69-.71-1.032-1.032-.34-.36-.69-.708-1.03-1.03-.342-.363-.69-.71-1.032-1.032-.343-.363-.686-.676-1.03-1-.342-.362-.69-.71-1.032-1.03-.342-.364-.656-.71-1-1.032-.34-.36-.688-.71-1.03-1.03-.346-.367-.685-.708-1.032-1.032-.34-.36-.69-.682-1.03-1-.346-.366-.684-.708-1.032-1.03-.35-.373-.708-.705-1.063-1.032-.48-.507-.95-1.015-1.438-1.438-.205-.205-.388-.435-.594-.625-.397-.42-.817-.828-1.22-1.188-.312-.324-.62-.653-.937-.94-.338-.35-.69-.69-1.03-1-.34-.354-.658-.72-1-1.03-.334-.348-.664-.696-1-1-.308-.322-.63-.623-.94-.906-.336-.357-.66-.72-1-1.03-.338-.363-.688-.688-1.03-1-.367-.392-.723-.76-1.094-1.095-.27-.285-.54-.56-.813-.814-.405-.44-.81-.852-1.22-1.22-.29-.307-.58-.604-.875-.874-.372-.402-.75-.786-1.125-1.125-.39-.416-.793-.78-1.188-1.125-.116-.12-.227-.26-.344-.375-.046-.053-.08-.104-.125-.156-.05-.047-.106-.077-.156-.124-.438-.486-.87-.92-1.313-1.313-.152-.16-.316-.32-.47-.47-.034-.04-.057-.084-.093-.124-.048-.05-.106-.08-.155-.126-.4-.445-.784-.855-1.188-1.22-.315-.34-.65-.646-.97-.937-.386-.425-.763-.81-1.155-1.156-.312-.335-.622-.653-.938-.937-.332-.362-.664-.698-1-1-.34-.37-.688-.724-1.03-1.03-.234-.256-.485-.496-.72-.72-.428-.495-.88-.894-1.313-1.28-.34-.378-.653-.724-1-1.032-.337-.373-.688-.694-1.03-1-.354-.393-.703-.746-1.063-1.062-.256-.282-.523-.54-.78-.78-.406-.47-.81-.89-1.22-1.25-.366-.407-.753-.746-1.125-1.064-.088-.09-.162-.192-.25-.28-.18-.187-.35-.368-.53-.532-.052-.06-.106-.1-.157-.156-.045-.04-.08-.087-.125-.125-.124-.126-.25-.25-.375-.374-.047-.05-.078-.107-.125-.156-.083-.08-.166-.143-.25-.22-.103-.12-.21-.2-.313-.312-.033-.03-.06-.063-.094-.094l-.22-.22c-.015-.015-.015-.046-.03-.062-.03-.033-.063-.06-.094-.094-.093-.09-.19-.167-.282-.25-.06-.07-.127-.12-.188-.188-.15-.154-.288-.32-.438-.47l-.063-.062c-.022-.022-.043-.04-.064-.063-.094-.09-.187-.166-.28-.25-.13-.148-.248-.272-.376-.406-.11-.113-.203-.235-.313-.345-.353-.375-.708-.707-1.063-1.063-.347-.368-.683-.713-1.03-1.063-.25-.264-.503-.498-.75-.75-.11-.105-.206-.21-.314-.314-.25-.265-.5-.495-.75-.75l-.03-.03c-.09-.09-.162-.193-.25-.282-.35-.37-.713-.71-1.064-1.063-.35-.37-.68-.71-1.03-1.062-.26-.276-.522-.516-.782-.78-.096-.094-.185-.19-.28-.282-.26-.275-.523-.517-.782-.78-.043-.042-.082-.085-.125-.126-.047-.047-.078-.11-.125-.156-.27-.285-.544-.538-.813-.813-.088-.083-.164-.167-.25-.25-.35-.368-.684-.71-1.032-1.062-.35-.37-.713-.71-1.063-1.063-.35-.37-.682-.71-1.03-1.063-.28-.297-.564-.558-.845-.844-.075-.072-.144-.147-.22-.22-.28-.296-.563-.558-.843-.843-.02-.02-.04-.042-.063-.063-.047-.047-.078-.11-.125-.156-.29-.307-.586-.58-.876-.875-.065-.062-.123-.125-.188-.187-.348-.37-.683-.71-1.03-1.063-.35-.37-.714-.71-1.064-1.063-.346-.367-.685-.713-1.03-1.063-.354-.374-.71-.706-1.064-1.063-.347-.367-.684-.71-1.03-1.062-.31-.33-.628-.622-.94-.938-.042-.042-.08-.084-.124-.125-.348-.37-.683-.71-1.03-1.063-.35-.37-.714-.71-1.064-1.063-.32-.34-.648-.644-.97-.97-.032-.03-.06-.062-.093-.094-.35-.372-.68-.708-1.03-1.063-.322-.34-.648-.643-.97-.97-.032-.03-.062-.062-.094-.093-.328-.348-.64-.667-.97-1l-.062-.063c-.33-.352-.666-.663-1-1l-.062-.063c-2.065-2.19-4.123-4.076-6.25-5.72-11.25-8.684-13.21-10.705-28.25-14.78-1.764-.478-3.43-.715-5.03-.72-4.806-.01-8.88 2.142-12.12 6.564-7.477 20.364-4.983 13.497-7.5 20.344-.162-.16-.33-.316-.5-.47-.37-.408-.766-.793-1.188-1.155-.318-.337-.614-.696-.97-1-.317-.338-.643-.695-1-1-.262-.28-.523-.556-.812-.813-.315-.35-.647-.685-1-1-.315-.35-.647-.685-1-1-.29-.322-.614-.614-.938-.906-.305-.344-.626-.69-.97-1-.387-.437-.802-.866-1.25-1.25-.242-.258-.484-.51-.75-.75-.333-.376-.683-.726-1.062-1.063-.315-.35-.647-.685-1-1-.29-.322-.614-.614-.938-.906-.388-.438-.802-.867-1.25-1.25-.318-.338-.614-.697-.97-1-.242-.26-.484-.512-.75-.75-.333-.377-.683-.727-1.062-1.064-.315-.35-.647-.685-1-1-.315-.35-.647-.685-1-1-.37-.41-.766-.794-1.188-1.156-.318-.337-.614-.696-.97-1-.317-.338-.643-.695-1-1-.262-.28-.523-.556-.812-.813-.315-.35-.647-.685-1-1-.315-.35-.647-.685-1-1-.29-.322-.614-.614-.938-.906-.388-.436-.77-.865-1.22-1.25-.317-.337-.643-.694-1-1-.262-.278-.523-.555-.812-.812-.315-.35-.647-.685-1-1-.315-.35-.647-.685-1-1-.29-.322-.614-.614-.938-.906-.305-.344-.626-.69-.97-1-2.758-3.107-7.12-4.842-11.812-5.78-7.69-1.54-14.18-2.297-19.938-2.19" fill-opacity=".235" fill-rule="evenodd"/><path d="M235.19 91.44c-1.92.036-3.754.178-5.53.406-14.1 1.813-16.89 1.746-30.407 9.5-6.343 3.638-9.14 9.02-8.03 16.25 43.41 93.77-.075-.036 43.41 93.91 1.338 1.57 2.212 3.438 4.25 3.125l14.75-2.28c2.038-.313 2.325-2.35 3.125-4.25 12.633-102.99.09-.376 13.03-102.53-1.11-7.228-7.486-10.502-14.656-11.938-7.69-1.54-14.18-2.296-19.938-2.188m84.63 14.28c-4.806-.01-8.88 2.142-12.12 6.564-35.613 97-.006-.11-35.688 97.06-.163 2.056-.88 3.998.78 5.22l12.03 8.812c1.664 1.22 3.31-.002 5.22-.78 81.76-63.893.333-.198 81.72-63.28 4.327-5.896 2.15-12.728-1.906-18.814-5.798-8.7-11.08-14.902-16.75-19.28-11.25-8.687-13.21-10.706-28.25-14.782-1.765-.478-3.43-.715-5.03-.72m-167.34 31.31c-3.974-.057-8.07 1.748-11.875 4.282-8.7 5.798-14.87 11.08-19.25 16.75-8.686 11.25-10.705 13.177-14.78 28.22-1.914 7.06-.084 12.83 5.812 17.16 97 35.613-.08.037 97.09 35.72 2.056.162 3.967.85 5.188-.814l8.844-12.03c1.22-1.663-.035-3.278-.814-5.188-63.892-81.76-.197-.365-63.28-81.75-2.21-1.623-4.553-2.31-6.938-2.344m245.03 54.875c-.846.018-1.72.11-2.625.25-93.77 43.41.036-.075-93.91 43.41-1.57 1.338-3.406 2.212-3.094 4.25l2.25 14.75c.312 2.038 2.348 2.294 4.25 3.094 102.99 12.632.375.12 102.53 13.06 7.227-1.11 10.532-7.487 11.968-14.657 2.052-10.252 2.664-18.36 1.75-25.47-1.813-14.1-1.746-16.92-9.5-30.437-3.184-5.55-7.7-8.374-13.625-8.25m-141.16 37.25c-14.496 0-26.25 11.754-26.25 26.25s11.754 26.25 26.25 26.25 26.25-11.754 26.25-26.25-11.754-26.25-26.25-26.25m-151.25 10.656c-7.228 1.11-10.533 7.486-11.97 14.656-2.05 10.252-2.663 18.36-1.75 25.47 1.814 14.1 1.747 16.887 9.5 30.405 3.64 6.343 9.02 9.14 16.25 8.03 93.77-43.41-.035.075 93.91-43.41 1.57-1.338 3.408-2.212 3.095-4.25l-2.25-14.75c-.313-2.038-2.35-2.325-4.25-3.125-102.99-12.633-.376-.09-102.53-13.03m195.22 30.563c-.894.014-1.67.263-2.28 1.095l-8.845 12.03c-1.22 1.663.034 3.31.813 5.22 63.892 81.76.197.332 63.28 81.72 5.895 4.326 12.727 2.148 18.813-1.907 8.7-5.798 14.87-11.08 19.25-16.75 8.685-11.25 10.705-13.21 14.78-28.25 1.913-7.06.083-12.83-5.813-17.16-97-35.613.08-.006-97.09-35.688-1.028-.082-2.01-.325-2.906-.313m-74.25 17.78c-1.053.135-2.15.795-3.343 1.282-81.76 63.89-.365.196-81.75 63.28-4.327 5.894-2.118 12.726 1.938 18.812 5.798 8.7 11.08 14.902 16.75 19.28 11.25 8.687 13.177 10.706 28.22 14.782 7.06 1.913 12.86.05 17.188-5.844 35.613-97 .006.11 35.688-97.06.164-2.056.85-3.998-.812-5.22l-12-8.812c-.623-.458-1.242-.58-1.875-.5m46.656 9.22l-14.72 2.28c-2.038.313-2.326 2.35-3.125 4.25-12.633 102.99-.09.376-13.03 102.53 1.11 7.228 7.455 10.502 14.625 11.938 10.252 2.052 18.36 2.696 25.47 1.78 14.1-1.812 16.92-1.745 30.437-9.5 6.343-3.637 9.11-9.02 8-16.25-43.41-93.77.106.037-43.37-93.91-1.338-1.568-2.243-3.437-4.28-3.124" fill="#fff" fill-rule="evenodd"/></svg>