<?xml version="1.0" encoding="UTF-8" standalone="no"?>
<svg xmlns="http://www.w3.org/2000/svg" height="512" viewBox="0 0 512 512" width="512" version="1.1">
 <linearGradient id="a" gradientUnits="userSpaceOnUse" x1="143.14" x2="356.04" y1="436.43" y2="61.02">
  <stop offset="0" stop-color="#aeaeae"/>
  <stop offset=".084" stop-color="#828282"/>
  <stop offset=".501" stop-color="#aeaeae"/>
  <stop offset=".866" stop-color="#929292"/>
  <stop offset="1" stop-color="#808080"/>
 </linearGradient>
 <path d="m471.95 253.05c0 120.9-98.01 218.9-218.9 218.9-120.9 0-218.9-98.01-218.9-218.9 0-120.9 98.01-218.9 218.9-218.9 120.9 0 218.9 98.01 218.9 218.9" fill="url(#a)" fill-rule="evenodd" stroke="#828282" style="fill:#989898;fill-opacity:1"/>
 <path d="m78.81 120.56c-5.407 7.099-10.385 14.539-14.906 22.281 12.11 15.653 24.795 30.08 38 43.28l258 258c65.58-36.756 110.31-106.29 111.99-186.42l-.016-.016c-79.981 19.376-156.12 17.575-224.72-7.25-28.57-10.339-55.91-24.68-81.74-43.27l-86.6-86.6" opacity=".25"/>
 <path d="m78.81 120.56c-5.407 7.099-10.385 14.539-14.906 22.281 49.686 64.22 108.99 107.73 174.59 131.47 71.52 25.882 150.06 28.23 231.22 9.938 1.242-8.7 1.969-17.564 2.156-26.563-79.981 19.376-156.12 17.575-224.72-7.25-63.13-22.847-120.27-65.22-168.34-129.87" fill="#ffffff"/>
 <g fill-rule="evenodd">
  <path d="m256 1c-140.83 0-255 114.17-255 255s114.17 255 255 255 255-114.17 255-255-114.17-255-255-255m8.827 44.931c120.9 0 218.9 98 218.9 218.9s-98 218.9-218.9 218.9-218.93-98-218.93-218.9 98.03-218.9 218.93-218.9" fill-opacity=".067"/>
  <g fill-opacity=".129">
   <path d="m256 4.43c-138.94 0-251.57 112.63-251.57 251.57s112.63 251.57 251.57 251.57 251.57-112.63 251.57-251.57-112.63-251.57-251.57-251.57m5.885 38.556c120.9 0 218.9 98 218.9 218.9s-98 218.9-218.9 218.9-218.93-98-218.93-218.9 98.03-218.9 218.93-218.9"/>
   <path d="m256 8.36c-136.77 0-247.64 110.87-247.64 247.64s110.87 247.64 247.64 247.64 247.64-110.87 247.64-247.64-110.87-247.64-247.64-247.64m2.942 31.691c120.9 0 218.9 98 218.9 218.9s-98 218.9-218.9 218.9-218.93-98-218.93-218.9 98.03-218.9 218.93-218.9"/>
  </g>
  <path d="m253.04 7.86c-135.42 0-245.19 109.78-245.19 245.19 0 135.42 109.78 245.19 245.19 245.19 135.42 0 245.19-109.78 245.19-245.19 0-135.42-109.78-245.19-245.19-245.19m0 26.297c120.9 0 218.9 98 218.9 218.9s-98 218.9-218.9 218.9-218.93-98-218.93-218.9 98.03-218.9 218.93-218.9z" fill="#ffffff" stroke="#000000" stroke-opacity=".31" stroke-width="4.904"/>
 </g>
</svg>
