<svg height="512" viewBox="0 0 512 512" width="512" xmlns="http://www.w3.org/2000/svg">
 <path d="m471.95 253.05c0 120.9-98.01 218.9-218.9 218.9-120.9 0-218.9-98.01-218.9-218.9 0-120.9 98.01-218.9 218.9-218.9 120.9 0 218.9 98.01 218.9 218.9" fill="#777777" fill-rule="evenodd"/>
 <path d="m255.97 115.72l-115 229.69h1.125l-.094.156c-.001.001-.281.594-.281.594h1.125l-.375.75h1.094c-.177.354-.344.719-.344.719h1.125l-.375.75h1.125l-.375.75h1.125c-.128.255-.375.75-.375.75h1.125l-.375.75h1.125c-.103.207-.375.75-.375.75h1.125l-.375.75h1.094c-.085.171-.375.75-.375.75h1.125l-.375.75h1.125c-.073.145-.375.75-.375.75h1.125c-.068.135-.375.75-.375.75h1.125l-.375.75h1.125c-.06.119-.375.75-.375.75h1.125l-.375.75h1.125l-.375.75h1.125c-.051.101-.375.75-.375.75h1.125l-.375.75h1.125c-.043.086-.375.719-.375.719h1.125l-.375.75h1.125l-.375.75h1.125c-.04.081-.375.75-.375.75h1.125c-.039.077-.375.75-.375.75h1.125l-.375.75h1.094l-.375.75h1.125c-.035.069-.375.75-.375.75h1.125c-.033.067-.375.75-.375.75h1.125l-.375.75h1.125l-.375.75h1.125c-.03.061-.375.75-.375.75h1.125c-.029.059-.375.75-.375.75h1.125c-.029.057-.375.75-.375.75h1.125c-.028.055-.375.75-.375.75h1.125l-.375.75h1.125l-.375.75h1.094c-.023.046-.344.719-.344.719h1.125l-.375.75h1.125c-.024.049-.375.75-.375.75h1.125c-.024.047-.375.75-.375.75h1.125l-.375.75h1.125c-.023.045-.375.75-.375.75h1.094l-.375.75h1.125c-.022.043-.375.75-.375.75h1.125l-.375.75h1.125c-.021.041-.375.75-.375.75h1.125l-.375.75h1.125l-.375.75h1.125c-.019.039-.375.75-.375.75h1.125l-.375.75h1.125c-.019.037-.375.75-.375.75h1.125l-.375.75h1.125c-.017.034-.375.719-.375.719h1.125l-.375.75h1.125c-.017.035-.375.75-.375.75h1.125l-.375.75h1.125l-.375.75h1.125c-.017.033-.375.75-.375.75h1.125l-.375.75h1.094l-.375.75h1.125l-.375.75h1.125c-.016.031-.375.75-.375.75h1.125l-.375.75h1.125l-.375.75h1.125c-.015.029-.375.75-.375.75h1.125l-.375.75h1.125c-.014.029-.375.75-.375.75h1.125l-.375.75h1.125l-.375.75h1.125l-.375.719h1.125l-.375.75h1.125c-.013.027-.375.75-.375.75h1.125l-.375.75h1.125l-.375.75h1.125l-.375.75h1.125l-.375.75h1.094c-.013.025-.375.75-.375.75h1.125l-.375.75h1.125l-.375.75h1.125l-.375.75h1.125l-.375.75h1.125l-.375.75h1.125c-.012.023-.375.75-.375.75h1.125c-.011.023-.375.75-.375.75h1.125c-.011.023-.375.75-.375.75h1.125l-.375.75h1.125c-.01.021-.375.719-.375.719h1.125l-.375.75h1.125l-.375.75h1.125l-.375.75h1.125l-.375.75h1.125l-.375.75h1.094l-.375.75h1.125c-.01.021-.375.75-.375.75h1.125l-.375.75h1.125l-.375.75h1.125l-.375.75h1.125l-.375.75h1.125l-.375.75h1.125l-.375.75h1.125c-.01.019-.375.75-.375.75h1.125c-.009.019-.375.75-.375.75h1.125l-.375.75h1.125c-.009.017-.375.719-.375.719h1.125l-.375.75h1.125l-.375.75h1.125l-.375.75h1.125l-.375.75h1.125l-.375.75h1.094l-.375.75h1.125c-.009.017-.375.75-.375.75h1.125l-.375.75h1.125l-.375.75h1.125l-.375.75h1.125l-.375.75h1.125l-.375.75h1.125l-.375.75h1.125l-.375.75h1.125l-.375.75h1.125c-.008.015-.375.719-.375.719h1.125l-.375.75h1.125l-.375.75h1.125l-.375.75h1.125l-.375.75h1.125l-.375.75h1.125c-.008.015-.375.75-.375.75h1.094l-.375.75h1.125l-.375.75h1.125l-.375.75h1.125l-.375.75h1.125l-.375.75h1.125c-.007.015-.375.75-.375.75h1.125l-.375.75h1.125l-.375.75h1.125l-.375.75h1.125l-.375.75h1.125c-.007.013-.375.719-.375.719h1.125l-.375.75h1.125l-.375.75h1.125l-.375.75h1.125l-.375.75h1.125l-.375.75h1.094l-.375.75h1.125l-.375.75h1.125l-.375.75h1.125l-.375.75h1.125l-.375.75h1.125l-.375.75h1.125l-.375.75h1.125l-.375.75h1.125l-.375.75h1.125l-.375.75h1.125l-.375.75h1.125c-.006.012-.375.719-.375.719h1.125l-.375.75h1.125l-.375.75h1.125l-.375.75h1.125l-.375.75h1.125l-.375.75h1.094l-.375.75h1.125l-.375.75h1.125l-.375.75h1.125l-.375.75h1.125l-.375.75h1.125l-.375.75h1.125l-.375.75h1.125l-.375.75h1.125l-.375.75h1.125l-.188.344c90.73-5.958 166.35-67.16 193.53-150.31l-.188-.406-.156.344-.563-1.094-.188.375-.563-1.125-.188.375-.563-1.125-.188.375-.563-1.125-.188.375-.563-1.125-.188.375-.563-1.125-.188.375-.563-1.125-.188.375-.563-1.125-.188.375-.563-1.125-.188.375-.563-1.125-.188.375-.563-1.125-.188.375-.563-1.125-.188.375-.563-1.125-.188.375-.563-1.094-.188.375-.563-1.125-.188.375-.563-1.125-.188.375-.563-1.125-.156.344c-.008-.016-.563-1.094-.563-1.094l-.188.375-.563-1.125-.188.375-.563-1.125-.188.375-.563-1.125-.188.375-.563-1.125-.188.375-.563-1.125-.188.375-.563-1.125-.188.375c-.009-.018-.563-1.125-.563-1.125l-.188.375-.563-1.125-.188.375-.563-1.125-.188.375-.563-1.125-.188.375-.563-1.125-.188.375-.563-1.125-.188.375-.563-1.094-.188.375-.563-1.125-.188.375-.563-1.125-.188.375-.563-1.125-.156.344c-.009-.017-.563-1.094-.563-1.094l-.188.375-.563-1.125-.188.375-.563-1.125-.188.375-.563-1.125-.188.375-.563-1.125-.188.375-.563-1.125-.188.375-.563-1.125-.188.375-.563-1.125-.188.375-.563-1.125-.188.375-.563-1.125-.188.375-.563-1.125-.188.375-.563-1.125-.188.375-.563-1.125-.188.375-.563-1.094-.188.375-.563-1.125-.188.375-.563-1.125-.156.344-.563-1.094-.188.375-.563-1.125-.188.375-.563-1.125-.188.375-.563-1.125-.188.375-.563-1.125-.188.375-.563-1.125-.188.375-.563-1.125-.188.375-.563-1.125-.188.375-.563-1.125-.188.375-.563-1.125-.188.375-.563-1.125-.188.375-.563-1.125-.188.375-.563-1.125-.188.375-.563-1.125-.188.375-.563-1.094-.188.375-.563-1.125-.188.375-.563-1.125-.156.344-.563-1.094-.188.375-.563-1.125-.188.375-.563-1.125-.188.375-.563-1.125-.188.375-.563-1.125-.188.375-.563-1.125-.188.375-.563-1.125-.188.375-.563-1.125-.188.375-.563-1.125-.188.375-.563-1.125-.188.375-.563-1.125-.188.375-.563-1.125-.188.375-.563-1.125-.188.375-.563-1.094-.188.375-.563-1.125-.188.375-.563-1.125-.188.375-.563-1.125-.156.344-.563-1.094-.188.375-.563-1.125-.188.375-.563-1.125-.188.375-.563-1.125-.188.375-.563-1.125-.188.375-.563-1.125-.188.375-.563-1.125-.188.375-.563-1.125-.188.375-.563-1.125-.188.375-.563-1.125-.188.375-.563-1.125-.188.375c-.012-.024-.563-1.125-.563-1.125l-.188.375-.563-1.125-.188.375c-.012-.024-.563-1.094-.563-1.094l-.188.375c-.012-.025-.563-1.125-.563-1.125l-.188.375c-.013-.025-.563-1.125-.563-1.125l-.188.375c-.013-.025-.563-1.125-.563-1.125l-.156.344-.563-1.094-.188.375c-.013-.025-.563-1.125-.563-1.125l-.188.375c-.013-.026-.563-1.125-.563-1.125l-.188.375c-.013-.026-.563-1.125-.563-1.125l-.188.375c-.013-.026-.563-1.125-.563-1.125l-.188.375-.563-1.125-.188.375c-.013-.026-.563-1.125-.563-1.125l-.188.375-.563-1.125-.188.375c-.013-.027-.563-1.125-.563-1.125l-.188.375c-.013-.027-.563-1.125-.563-1.125l-.188.375c-.013-.027-.563-1.125-.563-1.125l-.188.375c-.014-.027-.563-1.125-.563-1.125l-.188.375-.563-1.125-.188.375c-.013-.026-.563-1.094-.563-1.094l-.188.375c-.014-.028-.563-1.125-.563-1.125l-.188.375c-.014-.028-.563-1.125-.563-1.125l-.156.344c-.013-.027-.563-1.094-.563-1.094l-.188.375-.563-1.125-.188.375c-.014-.028-.563-1.125-.563-1.125l-.188.375c-.014-.028-.563-1.125-.563-1.125l-.188.375c-.014-.029-.563-1.125-.563-1.125l-.188.375c-.014-.029-.563-1.125-.563-1.125l-.188.375-.563-1.125-.188.375c-.015-.029-.563-1.125-.563-1.125l-.188.375c-.015-.029-.563-1.125-.563-1.125l-.188.375c-.015-.03-.563-1.125-.563-1.125l-.188.375c-.015-.03-.563-1.125-.563-1.125l-.188.375-.563-1.125-.188.375c-.015-.03-.563-1.125-.563-1.125l-.188.375c-.015-.029-.563-1.094-.563-1.094l-.188.375c-.015-.031-.563-1.125-.563-1.125l-.188.375c-.015-.031-.563-1.125-.563-1.125l-.188.375c-.016-.031-.563-1.125-.563-1.125l-.156.344c-.015-.03-.563-1.094-.563-1.094l-.188.375-.563-1.125-.188.375c-.016-.032-.563-1.125-.563-1.125l-.188.375c-.016-.032-.563-1.125-.563-1.125l-.188.375c-.016-.032-.563-1.125-.563-1.125l-.188.375c-.016-.032-.563-1.125-.563-1.125l-.188.375-.563-1.125-.188.375c-.016-.033-.563-1.125-.563-1.125l-.188.375c-.017-.033-.563-1.125-.563-1.125l-.188.375c-.017-.033-.563-1.125-.563-1.125l-.188.375c-.017-.034-.563-1.125-.563-1.125l-.188.375-.563-1.125-.188.375c-.017-.034-.563-1.125-.563-1.125l-.188.375c-.017-.033-.563-1.094-.563-1.094l-.188.375c-.017-.035-.563-1.125-.563-1.125l-.188.375c-.018-.035-.563-1.125-.563-1.125l-.188.375-.563-1.125-.156.344c-.017-.034-.563-1.094-.563-1.094l-.188.375c-.018-.036-.563-1.125-.563-1.125l-.188.375c-.018-.036-.563-1.125-.563-1.125l-.188.375c-.018-.036-.563-1.125-.563-1.125l-.188.375c-.018-.037-.563-1.125-.563-1.125l-.188.375c-.019-.037-.563-1.125-.563-1.125l-.188.375c-.019-.037-.563-1.125-.563-1.125l-.188.375c-.019-.038-.563-1.125-.563-1.125l-.188.375c-.019-.038-.563-1.125-.563-1.125l-.188.375-.563-1.125-.188.375c-.019-.039-.563-1.125-.563-1.125l-.188.375-.563-1.125-.188.375c-.02-.039-.563-1.125-.563-1.125l-.188.375c-.019-.038-.563-1.094-.563-1.094l-.188.375-.563-1.125-.188.375c-.02-.04-.563-1.125-.563-1.125l-.156.344c-.02-.039-.563-1.094-.563-1.094l-.188.375c-.021-.041-.563-1.125-.563-1.125l-.188.375c-.021-.042-.563-1.125-.563-1.125l-.188.375c-.021-.042-.563-1.125-.563-1.125l-.188.375c-.021-.042-.563-1.125-.563-1.125l-.188.375-.563-1.125-.188.375c-.022-.043-.563-1.125-.563-1.125l-.188.375c-.022-.044-.563-1.125-.563-1.125l-.188.375c-.022-.044-.563-1.125-.563-1.125l-.188.375c-.022-.045-.563-1.125-.563-1.125l-.188.375-.563-1.125-.188.375c-.023-.045-.563-1.125-.563-1.125l-.188.375c-.023-.046-.563-1.125-.563-1.125l-.188.375c-.022-.044-.563-1.094-.563-1.094l-.188.375c-.023-.047-.563-1.125-.563-1.125l-.188.375-.563-1.125-.188.375c-.024-.048-.563-1.125-.563-1.125l-.156.344-.563-1.094-.188.375c-.025-.049-.563-1.125-.563-1.125l-.188.375c-.025-.05-.563-1.125-.563-1.125l-.188.375-.563-1.125-.188.375c-.025-.051-.563-1.125-.563-1.125l-.188.375c-.026-.051-.563-1.125-.563-1.125l-.188.375c-.026-.052-.563-1.125-.563-1.125l-.188.375c-.026-.052-.563-1.125-.563-1.125l-.188.375c-.027-.053-.563-1.125-.563-1.125l-.188.375c-.027-.054-.563-1.125-.563-1.125l-.188.375c-.027-.054-.563-1.125-.563-1.125l-.188.375c-.028-.055-.563-1.125-.563-1.125l-.188.375c-.028-.056-.563-1.125-.563-1.125l-.188.375c-.027-.054-.563-1.094-.563-1.094l-.188.375c-.029-.057-.563-1.125-.563-1.125l-.188.375c-.029-.058-.563-1.125-.563-1.125l-.188.375c-.029-.059-.563-1.125-.563-1.125l-.156.344c-.029-.057-.563-1.094-.563-1.094l-.188.375c-.03-.06-.563-1.125-.563-1.125l-.188.375c-.031-.061-.563-1.125-.563-1.125l-.188.375c-.031-.062-.563-1.125-.563-1.125l-.188.375c-.032-.063-.563-1.125-.563-1.125l-.188.375c-.032-.064-.563-1.125-.563-1.125l-.188.375c-.032-.065-.563-1.125-.563-1.125l-.188.375c-.033-.066-.563-1.125-.563-1.125l-.188.375c-.033-.067-.563-1.125-.563-1.125l-.188.375c-.034-.068-.563-1.125-.563-1.125l-.188.375c-.034-.069-.563-1.125-.563-1.125l-.188.375c-.035-.07-.563-1.125-.563-1.125l-.188.375c-.036-.071-.563-1.125-.563-1.125l-.188.375c-.035-.069-.563-1.094-.563-1.094l-.188.375c-.037-.073-.563-1.125-.563-1.125l-.188.375c-.037-.075-.563-1.125-.563-1.125l-.188.375-.563-1.125-.156.344c-.037-.074-.563-1.094-.563-1.094l-.188.375-.563-1.125-.188.375c-.04-.08-.563-1.125-.563-1.125l-.188.375-.563-1.125-.188.375-.563-1.125-.188.375c-.042-.085-.563-1.125-.563-1.125l-.188.375-.563-1.125-.188.375c-.044-.088-.563-1.125-.563-1.125l-.188.375-.563-1.125-.188.375c-.046-.092-.563-1.125-.563-1.125l-.188.375c-.047-.094-.563-1.125-.563-1.125l-.188.375-.563-1.125-.188.375c-.047-.094-.563-1.094-.563-1.094l-.188.375-.563-1.125-.188.375c-.051-.102-.563-1.125-.563-1.125l-.188.375-.563-1.125-.156.344-.563-1.094-.188.375c-.055-.11-.563-1.125-.563-1.125l-.188.375c-.057-.113-.563-1.125-.563-1.125l-.188.375c-.058-.116-.563-1.125-.563-1.125l-.188.375c-.06-.119-.563-1.125-.563-1.125l-.188.375c-.061-.122-.563-1.125-.563-1.125l-.188.375c-.063-.126-.563-1.125-.563-1.125l-.188.375c-.065-.129-.563-1.125-.563-1.125l-.188.375c-.067-.133-.563-1.125-.563-1.125l-.188.375c-.069-.137-.563-1.125-.563-1.125l-.188.375c-.071-.142-.563-1.125-.563-1.125l-.188.375c-.073-.146-.563-1.125-.563-1.125l-.188.375c-.076-.151-.563-1.125-.563-1.125l-.188.375c-.075-.15-.563-1.094-.563-1.094l-.188.375c-.081-.162-.563-1.125-.563-1.125l-.188.375c-.084-.168-.563-1.125-.563-1.125l-.188.375c-.088-.175-.563-1.125-.563-1.125l-.156.344c-.088-.175-.563-1.094-.563-1.094l-.188.375c-.095-.191-.563-1.125-.563-1.125l-.188.375c-.1-.2-.563-1.125-.563-1.125l-.188.375c-.104-.208-.563-1.125-.563-1.125l-.188.375c-.109-.218-.563-1.125-.563-1.125l-.188.375c-.115-.229-.563-1.125-.563-1.125l-.188.375c-.121-.242-.563-1.125-.563-1.125l-.188.375c-.128-.255-.563-1.125-.563-1.125l-.188.375c-.135-.27-.563-1.125-.563-1.125l-.188.375c-.144-.287-.563-1.125-.563-1.125l-.188.375c-.154-.307-.563-1.125-.563-1.125l-.188.375c-.164-.328-.563-1.125-.563-1.125l-.188.375c-.176-.352-.563-1.125-.563-1.125l-.188.375c-.186-.371-.563-1.094-.563-1.094l-.188.375c-.209-.417-.563-1.125-.563-1.125l-.188.375-.563-1.125-.188.375c-.246-.492-.563-1.125-.563-1.125l-.188.344-.531-1.094-.188.375-.563-1.125-.188.375c-.255-.509-.563-1.125-.563-1.125l-.188.375-.563-1.125-.188.375-.281-.563c-.001-.001-.281-.563-.281-.563l-.188.375-.563-1.125" fill-opacity=".235"/>
 <g fill-rule="evenodd">
  <path d="m256 1c-140.83 0-255 114.17-255 255s114.17 255 255 255 255-114.17 255-255-114.17-255-255-255m8.827 44.931c120.9 0 218.9 98 218.9 218.9s-98 218.9-218.9 218.9-218.93-98-218.93-218.9 98.03-218.9 218.93-218.9" fill-opacity=".067"/>
  <g fill-opacity=".129">
   <path d="m256 4.433c-138.94 0-251.57 112.63-251.57 251.57s112.63 251.57 251.57 251.57 251.57-112.63 251.57-251.57-112.63-251.57-251.57-251.57m5.885 38.556c120.9 0 218.9 98 218.9 218.9s-98 218.9-218.9 218.9-218.93-98-218.93-218.9 98.03-218.9 218.93-218.9"/>
   <path d="m256 8.356c-136.77 0-247.64 110.87-247.64 247.64s110.87 247.64 247.64 247.64 247.64-110.87 247.64-247.64-110.87-247.64-247.64-247.64m2.942 31.691c120.9 0 218.9 98 218.9 218.9s-98 218.9-218.9 218.9-218.93-98-218.93-218.9 98.03-218.9 218.93-218.9"/>
  </g>
  <path d="m253.04 7.859c-135.42 0-245.19 109.78-245.19 245.19 0 135.42 109.78 245.19 245.19 245.19 135.42 0 245.19-109.78 245.19-245.19 0-135.42-109.78-245.19-245.19-245.19zm0 26.297c120.9 0 218.9 98 218.9 218.9s-98 218.9-218.9 218.9-218.93-98-218.93-218.9 98.03-218.9 218.93-218.9z" fill="#ffffff" stroke="#000000" stroke-opacity=".31" stroke-width="4.904"/>
 </g>
 <path d="m255.97 115.72l9.563 110.97 7.75-7.06 8.125 96.31-78.62-32.12 62.688-57.06-9.5-111.03-115 229.69h230.06l-115.05-229.69" fill="#ffffff"/>
</svg>
