<svg height="1814.17" viewBox="0 0 512 512" width="1814.17" xmlns="http://www.w3.org/2000/svg">
 <g transform="matrix(3.7795272 0 0 3.7795272 336.00002 -200.80538)">
  <path d="m35.970099 120.08258c1.778 38.48894-42.6799425 69.62511-78.232006 54.59148-32.554334-11.79512-49.178106-55.55456-29.252334-84.894209 16.041688-26.656772 54.819023-36.811481 80.7693565-18.529036 16.1872135 10.512161 27.2467935 29.318475 26.7149835 48.831505z" fill="#8f8f8f" fill-rule="evenodd"/>
  <path d="m-37.843365 99.646164c-8.057621.256117-17.327563-.03572-22.862646 6.961986-8.617744 9.36572-5.891213 25.8445 5.042958 32.21302 15.755938 12.48569 31.580668 25.019 47.4027515 37.54702 25.3788305-6.15156 44.2277505-29.01156 44.2277505-56.28217 0-3.76634-.36354-7.44802-1.05013-11.01328-2.65377-2.15344-6.08806-4.94268-11.44323-9.310688-.55536 1.144588-4.34314-.42545-4.96094.959118-1.35493-.943243.008.008-1.38086-.942714-1.07156.495304-2.65906.630764-4.93606-.01667-.0318 3.835404.0712 7.913684-.0661 11.559114-4.3611285-3.04694-.12912.1143-11.89804945-9.69856-1.83462105-1.52983-4.30397705-1.921673-6.88710405-1.65365-5.7192335.69427-3.5517665 9.68719-5.3990875 10.52539-4.306887-3.2602-.02143.0744-11.435292-8.78152-2.971535-2.023799-6.171142-3.07102-9.682163-.39688-.170391.73475-.664368 1.43907-1.058333 1.13268-3.625586-2.818866.0254.008-3.61315-2.802991" opacity=".25"/>
  <path d="m-21.166677 53.39435c-37.261272 0-67.468753 30.20748-67.468753 67.46875 0 37.26127 30.207481 67.46875 67.468753 67.46875 37.261276 0 67.468756-30.20748 67.468756-67.46875 0-37.26127-30.20748-67.46875-67.468756-67.46875m2.335477 11.887994c31.988129 0 57.917299 25.929168 57.917299 57.917296 0 31.98812-25.92917 57.91729-57.917299 57.91729-31.988126 0-57.925231-25.92917-57.925231-57.91729 0-31.988128 25.937105-57.917296 57.925231-57.917296" fill-opacity=".067" fill-rule="evenodd"/>
  <path d="m-21.166677 54.30187c-36.761209 0-66.561232 29.800023-66.561232 66.56123 0 36.76121 29.800023 66.56123 66.561232 66.56123 36.761206 0 66.561236-29.80002 66.561236-66.56123 0-36.761207-29.80003-66.56123-66.561236-66.56123m1.557073 10.201276c31.988123 0 57.917293 25.929168 57.917293 57.917294 0 31.98813-25.92917 57.91729-57.917293 57.91729-31.988126 0-57.925231-25.92916-57.925231-57.91729 0-31.988126 25.937105-57.917294 57.925231-57.917294" fill-opacity=".129" fill-rule="evenodd"/>
  <path d="m-21.166677 55.341683c-36.187063 0-65.521419 29.334356-65.521419 65.521417 0 36.18707 29.334356 65.52142 65.521419 65.52142 36.187066 0 65.521416-29.33435 65.521416-65.52142 0-36.187061-29.33435-65.521417-65.521416-65.521417m.778404 8.384911c31.988122 0 57.917292 25.929168 57.917292 57.917296 0 31.98812-25.92917 57.91729-57.917292 57.91729-31.988126 0-57.925231-25.92917-57.925231-57.91729 0-31.988128 25.937105-57.917296 57.925231-57.917296" fill-opacity=".129" fill-rule="evenodd"/>
  <path d="m-21.949843 55.209391c-35.829877 0-64.873191 29.04596-64.873191 64.873189 0 35.82988 29.04596 64.87319 64.873191 64.87319 35.829872 0 64.873192-29.04596 64.873192-64.87319 0-35.829875-29.04596-64.873189-64.873192-64.873189zm0 6.957748c31.988126 0 57.917292 25.929168 57.917292 57.917291 0 31.98813-25.929166 57.9173-57.917292 57.9173-31.988127 0-57.925232-25.92917-57.925232-57.9173 0-31.988123 25.937105-57.917291 57.925232-57.917291z" fill="#ffffff" fill-rule="evenodd" stroke="#000000" stroke-opacity=".31" stroke-width="1.298"/>
  <path d="m-37.840719 99.64881l-5.974292.235479c-8.202083.322791-11.646959 1.587501-16.113125 5.921371-8.630974 8.37142-7.612063 24.13265 2.021416 31.27111 4.976813 3.68829 10.255251 4.80483 21.505334 4.55348 7.559147-.16669 8.929688-.5715 10.911417-3.22792.854605-1.143.963084-1.98437 1.09273-8.45344.07937-3.95023.283104-7.17814.449791-7.1755.169334.003 2.505605 3.65655 5.191126 8.12007 4.878916 8.10683 6.479646 9.99331 9.1783955 10.80293l.0026-.005c2.12725.63765 3.468687.50536 5.535083-.55562 3.22262505-1.65365 3.62479205-2.89719 3.62479205-11.26596 0-3.91054.150812-7.10142.338667-7.09083.185208.008 2.46591595 3.57981 5.07206195 7.93485 2.6035 4.3524 5.3922095 8.49577 6.1938965 9.2075 3.725329 3.29406 9.625539 2.52413 11.538479-1.50548.66675-1.40229.75406-3.74121.75406-20.11891v-18.531421h-4.96093v17.388421c0 11.12572-.16669 17.70327-.46567 18.26154-.59267 1.1086-2.75167 1.15623-3.69623.0847-.381-.43392-4.4820425-6.87652-9.1122515-14.31661-4.63020795-7.44008-8.691562-13.80331-9.024937-14.14198-1.44198-1.46579-1.595438-.13229-1.595438 13.85888 0 14.33248-.06879 14.89869-1.865313 15.51781-.407458.14023-1.143-.0291-1.63777-.37571-.497417-.3466-4.7095835-6.77333-9.3636045-14.28221-4.656667-7.50887-8.818563-14.03085-9.252479-14.49387-1.643063-1.76213-1.780646-.70644-1.780646 13.64985 0 13.08894-.04762 13.92502-.859896 14.66057-.769938.69585-1.860021.76464-10.257896.63235-9.215438-.14287-9.445626-.16933-11.940647-1.39435-2.971271-1.45786-5.926667-4.48205-7.299854-7.4639-.788458-1.71185-.973667-2.95804-.976313-6.62517-.0026-4.19893.100542-4.7281 1.484313-7.54062 1.656292-3.36021 3.987271-5.57213 7.567084-7.18344 1.807104-.81227 3.283479-1.03187 7.966604-1.18798l5.749396-.19314v-4.971525zm50.051228.111125v9.694335c0 5.33135-.17727 9.69433-.39423 9.69433-.21695 0-2.2965805-3.29671-4.6222675-7.32631-5.945188-10.29758-7.69937495-12.062355-11.985626-12.059709-2.656416.0026-4.585229 1.098019-6.0219155 3.421059-.957792 1.55046-1.079501 2.3839-1.304396 8.93763l-.248709 7.22842-4.423833-7.65176c-4.992688-8.636-5.376334-9.16516-7.747-10.77647-1.28323-.87048-2.278063-1.156233-4.011084-1.156233-2.812521.0026-4.693708 1.053043-6.183313 3.447523-1.058333 1.70127-1.082146 1.98173-1.232958 13.90914-.105833 8.60955-.304271 12.26873-.674688 12.50421-.288395.18256-2.365375.33867-4.614333.34131-5.389563.008-8.47725-.91016-10.623021-3.16177-4.34975-4.56406-2.632605-12.13908 3.312583-14.62087 1.135063-.47361 3.135313-.6985 6.199188-.6985h4.524375v-4.96094h-5.167313c-4.101041 0-5.675312.1905-7.630583.9234-5.114396 1.91293-8.498417 6.97177-8.564563 12.79525-.07937 7.14375 3.598333 12.21846 10.12825 13.97529v-.005c1.653646.44185 4.884209.6641 9.980084.68527 7.006167.0265 7.569729-.0317 8.003646-.84137.291042-.54505.468313-5.84994.468313-14.11817 0-13.60488.111125-14.52827 1.801812-14.82725 1.775354-.31486 2.820459 1.05039 11.419417 14.93044 4.918605 7.93485 9.1492915 14.55737 9.4059375 14.71612.256646.15875.645583.008.859896-.33337.216958-.34132.396875-6.82096.402167-14.39598.0053-10.10709.150812-13.91973.547687-14.31661.870479-.87048 2.831042-.62706 3.820584.47361.500062.55827 4.714875 7.15168 9.36625 14.65527 4.6513735 7.50093 8.6598135 13.76627 8.9111635 13.92237.25136.15346.635 0 .84932-.34131.21695-.34131.39687-8.28146.40216-17.64242l.005-17.020643h-4.95829z" fill="#ffffff"/>
 </g>
</svg>
