<svg height="512" viewBox="0 0 512 512" width="512" xmlns="http://www.w3.org/2000/svg">
 <path d="m471.95 253.05c0 120.9-98.01 218.9-218.9 218.9-120.9 0-218.9-98.01-218.9-218.9 0-120.9 98.01-218.9 218.9-218.9 120.9 0 218.9 98.01 218.9 218.9" fill="#8c8c8c" fill-rule="evenodd"/>
 <path d="m256 1c-140.83 0-255 114.17-255 255 0 140.83 114.17 255 255 255 140.83 0 255-114.17 255-255 0-140.83-114.17-255-255-255m8.827 44.931c120.9 0 218.9 98 218.9 218.9 0 120.9-98 218.9-218.9 218.9-120.9 0-218.93-98-218.93-218.9 0-120.9 98.03-218.9 218.93-218.9" fill-opacity=".067" fill-rule="evenodd"/>
 <g fill-opacity=".129" fill-rule="evenodd">
  <path d="m256 4.433c-138.94 0-251.57 112.63-251.57 251.57 0 138.94 112.63 251.57 251.57 251.57 138.94 0 251.57-112.63 251.57-251.57 0-138.94-112.63-251.57-251.57-251.57m5.885 38.556c120.9 0 218.9 98 218.9 218.9 0 120.9-98 218.9-218.9 218.9-120.9 0-218.93-98-218.93-218.9 0-120.9 98.03-218.9 218.93-218.9"/>
  <path d="m256 8.356c-136.77 0-247.64 110.87-247.64 247.64 0 136.77 110.87 247.64 247.64 247.64 136.77 0 247.64-110.87 247.64-247.64 0-136.77-110.87-247.64-247.64-247.64m2.942 31.691c120.9 0 218.9 98 218.9 218.9 0 120.9-98 218.9-218.9 218.9-120.9 0-218.93-98-218.93-218.9 0-120.9 98.03-218.9 218.93-218.9"/>
 </g>
 <path d="m314.42166 112.30343c-89.54947-2.26565-45.82201.64756-120.49408 3.50862.286 5.357-10.41504 106.64445-6.45604 123.64445 1.46959 42.49062-5.19044 145.91023.20046 152.6278l116.95136 73.80351c97.12-22.39 168.75219-113.72043 168.75219-217.63043" opacity=".25"/>
 <path d="m253.04 7.859c-135.42 0-245.19 109.78-245.19 245.19 0 135.42 109.78 245.19 245.19 245.19 135.42 0 245.19-109.78 245.19-245.19 0-135.42-109.78-245.19-245.19-245.19zm0 26.297c120.9 0 218.9 98 218.9 218.9 0 120.9-98 218.9-218.9 218.9-120.9 0-218.93-98-218.93-218.9 0-120.9 98.03-218.9 218.93-218.9z" fill="#ffffff" fill-rule="evenodd" stroke="#000000" stroke-opacity=".31" stroke-width="4.904"/>
 <path d="m315.85419 131.08937l.96768 243.41599c.0306 7.69574-6.18386 13.95265-13.87259 13.98321l-98.74016.39254c-7.69514.0306-13.95272-6.17674-13.98331-13.87248l-.96768-243.41599c-.0306-7.69575 6.17744-13.95262 13.87257-13.98321l98.74017-.39254c7.68873-.0306 13.95273 6.17673 13.98332 13.87248z" fill="none" stroke="#ffffff" stroke-linecap="round" stroke-linejoin="round" stroke-width="18.085"/>
 <path d="m299.02499 257.27544c.0299-2.50402-1.9659-4.5422-4.46924-4.57208l-81.37639-.97143c-2.50317-.0299-4.54705 1.96007-4.57695 4.46409l-1.301 108.98504c-.03 2.5091 1.96584 4.54728 4.46901 4.57716l81.37639.97143c2.50334.0299 4.54722-1.96007 4.57718-4.46917zm-63.67491 30.89303l36.17164.4318-.10791 9.03955-36.17164-.4318zm-.21588 18.08421l36.17164.4318-.10793 9.04125-36.17164-.43179zm-.21584 18.08081l36.17164.4318-.10797 9.04466-36.17164-.4318z" fill="#ffffff"/>
</svg>
