<svg height="512" viewBox="0 0 512 512" width="512" xmlns="http://www.w3.org/2000/svg">
 <path d="m471.95 253.05c0 120.9-98.01 218.9-218.9 218.9-120.9 0-218.9-98.01-218.9-218.9 0-120.9 98.01-218.9 218.9-218.9 120.9 0 218.9 98.01 218.9 218.9" fill="#9f9f9f" fill-rule="evenodd"/>
 <path d="m256 1c-140.83 0-255 114.17-255 255 0 140.83 114.17 255 255 255 140.83 0 255-114.17 255-255 0-140.83-114.17-255-255-255m8.827 44.931c120.9 0 218.9 98 218.9 218.9 0 120.9-98 218.9-218.9 218.9-120.9 0-218.93-98-218.93-218.9 0-120.9 98.03-218.9 218.93-218.9" fill-opacity=".067" fill-rule="evenodd"/>
 <g fill-opacity=".129" fill-rule="evenodd">
  <path d="m256 4.433c-138.94 0-251.57 112.63-251.57 251.57 0 138.94 112.63 251.57 251.57 251.57 138.94 0 251.57-112.63 251.57-251.57 0-138.94-112.63-251.57-251.57-251.57m5.885 38.556c120.9 0 218.9 98 218.9 218.9 0 120.9-98 218.9-218.9 218.9-120.9 0-218.93-98-218.93-218.9 0-120.9 98.03-218.9 218.93-218.9"/>
  <path d="m256 8.356c-136.77 0-247.64 110.87-247.64 247.64 0 136.77 110.87 247.64 247.64 247.64 136.77 0 247.64-110.87 247.64-247.64 0-136.77-110.87-247.64-247.64-247.64m2.942 31.691c120.9 0 218.9 98 218.9 218.9 0 120.9-98 218.9-218.9 218.9-120.9 0-218.93-98-218.93-218.9 0-120.9 98.03-218.9 218.93-218.9"/>
 </g>
 <path d="m470.98313 225.45354l-96.13465-56.81017-92.53732-23.86057-65.17472-33.96546c0 0-6.78048 51.74373-30.77934 70.87844-30.68743 24.46763-74.76186 32.15737-74.76186 32.15737 0 0 37.71008 20.83518 51.82559 40.51019 3.7142 5.17707-.34278 14.36552.14071 18.2123 3.63584 28.92764-38.74416 50.05318-35.45373 54.15337l62.78335 31.32307 25.06064 36.79839 123.84025 56.75006c97.12-22.39 135.46033-79.72642 135.46033-183.63642" opacity=".25"/>
 <path d="m196.47213 386.82061c-13.50477-5.92132-17.37324-8.24449-17.7116-10.63569-.23894-1.68134 1.54355-10.95137 3.95917-20.59814 5.87945-23.47768 5.80445-24.73869-1.92378-31.9175l-6.31548-5.86899-22.1225 5.62306c-20.81091 5.2847-22.26028 5.47656-24.45264 3.14466-3.16036-3.35744-15.99016-35.98481-15.39367-39.14518.2686-1.41971 8.02124-7.12473 17.74126-13.05302 23.19688-14.14835 21.75972-12.52631 20.88417-23.56663l-.73951-9.31363c-11.88655-9.12652-38.158-26.7863-38.158-26.7863 0 0 14.86693-38.21207 17.08546-39.07017 1.1895-.46046 11.88972 1.59238 23.77942 4.56263l21.61671 5.39807 6.86488-6.95557 6.86487-6.95558-5.06319-20.1778c-2.78363-11.09788-4.86786-21.87483-4.62891-23.95034.38545-3.34872 2.45398-4.62543 18.43367-11.3874 9.89966-4.1894 19.22027-7.45441 20.71498-7.25732 1.77379.23371 6.64164 6.88232 14.04023 19.16969 6.22653 10.34616 12.13214 19.22028 13.1228 19.70166.99066.4901 5.1103.62265 9.15666.29476l7.35673-.59649.91567-11.84786c.50405-6.51605.91915-15.56632.92439-20.10803.003-4.54344.6244-8.64389 1.37611-9.11132 1.29066-.80404 106.60101 58.53115 110.71715 62.38043 1.59936 1.4982 1.39355 2.31096-1.20694 4.75449-4.25218 3.99404-105.53709 61.27116-108.34513 61.27116-3.41325 0-3.97836-3.14118-3.97836-22.08239v-17.49359l-10.44033.73429c-21.53299 1.5139-38.35858 12.60829-47.47512 31.30881-4.41962 9.05724-4.71438 10.61649-4.71438 24.92356 0 13.78907.39068 16.06515 4.04288 23.56141 5.56551 11.42401 14.97681 20.72021 26.5927 26.26653 8.87586 4.23822 10.88335 4.62367 24.0829 4.62367 12.60829 0 15.42331-.48312 22.63352-3.8894 16.9442-8.00554 29.84202-25.26366 32.18961-43.04677.55986-4.25741 1.86795-8.07007 2.90397-8.47122 1.03775-.40115 10.82753 1.36565 21.75797 3.92603 19.20283 4.4981 20.56674 5.07541 40.55791 17.13779 11.37695 6.86488 20.98185 13.2815 21.36032 14.25647.3715.97496-2.78188 10.46476-7.01139 21.08649-6.89627 17.34184-8.06484 19.3598-11.42227 19.75571-2.05808.2407-12.74957-1.85923-23.7585-4.66553l-20.01734-5.10332-6.9765 6.99395-6.97651 6.99395 5.32134 22.00913c2.92664 12.10424 4.98819 22.88294 4.58355 23.94511-.88252 2.31969-34.57032 16.87268-39.05796 16.87268-2.49585 0-5.49225-3.95393-14.57392-19.23771l-11.43275-19.23772-9.49328-.42382c-11.1938-.50056-9.64851-1.89238-23.51606 21.19811-8.30901 13.83616-10.85196 17.02267-13.78906 17.28429-1.97958.17617-11.3752-3.09059-20.87894-7.25731z" fill="#ffffff"/>
 <path d="m253.04 7.859c-135.42 0-245.19 109.78-245.19 245.19 0 135.42 109.78 245.19 245.19 245.19 135.42 0 245.19-109.78 245.19-245.19 0-135.42-109.78-245.19-245.19-245.19zm0 26.297c120.9 0 218.9 98 218.9 218.9 0 120.9-98 218.9-218.9 218.9-120.9 0-218.93-98-218.93-218.9 0-120.9 98.03-218.9 218.93-218.9z" fill="#ffffff" fill-rule="evenodd" stroke="#000000" stroke-opacity=".31" stroke-width="4.904"/>
</svg>
