<svg height="512" viewBox="0 0 512 512" width="512" xmlns="http://www.w3.org/2000/svg">
 <path d="m471.95 253.05c0 120.9-98.01 218.9-218.9 218.9-120.9 0-218.9-98.01-218.9-218.9 0-120.9 98.01-218.9 218.9-218.9 120.9 0 218.9 98.01 218.9 218.9" fill="#878787" fill-rule="evenodd"/>
 <path d="m271.84 74.22c11.794 20.429 16.339 20.442 28.08 64.25-52.5-.986-122.33-3.641-161.76 37.38-25.24 33.36-8.484 78.49 8.219 112.94 1.036 16.11 27.331 42.4 25.06 55.59 15 15-3.932 10.768-13.406 13.969-13.05 3.496-9.798 2.25-51 2.25 32.74 32.556 71.34 70.67 109.41 108.28 11.905 2 24.12 3.094 36.594 3.094 120.9 0 218.91-98.01 218.91-218.91 0-12.196-.989-24.16-2.906-35.813-22.268-22.582-45.42-46.71-64.16-66-31.491 0-36.885-1.059-60.53-9.688-28.1-28.1-47.19-42.03-72.5-67.34" fill-opacity=".235"/>
 <g fill-rule="evenodd">
  <path d="m256 1c-140.83 0-255 114.17-255 255s114.17 255 255 255 255-114.17 255-255-114.17-255-255-255m8.827 44.931c120.9 0 218.9 98 218.9 218.9s-98 218.9-218.9 218.9-218.93-98-218.93-218.9 98.03-218.9 218.93-218.9" fill-opacity=".067"/>
  <g fill-opacity=".129">
   <path d="m256 4.433c-138.94 0-251.57 112.63-251.57 251.57s112.63 251.57 251.57 251.57 251.57-112.63 251.57-251.57-112.63-251.57-251.57-251.57m5.885 38.556c120.9 0 218.9 98 218.9 218.9s-98 218.9-218.9 218.9-218.93-98-218.93-218.9 98.03-218.9 218.93-218.9"/>
   <path d="m256 8.356c-136.77 0-247.64 110.87-247.64 247.64s110.87 247.64 247.64 247.64 247.64-110.87 247.64-247.64-110.87-247.64-247.64-247.64m2.942 31.691c120.9 0 218.9 98 218.9 218.9s-98 218.9-218.9 218.9-218.93-98-218.93-218.9 98.03-218.9 218.93-218.9"/>
  </g>
  <path d="m253.04 7.859c-135.42 0-245.19 109.78-245.19 245.19 0 135.42 109.78 245.19 245.19 245.19 135.42 0 245.19-109.78 245.19-245.19 0-135.42-109.78-245.19-245.19-245.19zm0 26.297c120.9 0 218.9 98 218.9 218.9s-98 218.9-218.9 218.9-218.93-98-218.93-218.9 98.03-218.9 218.93-218.9z" fill="#ffffff" stroke="#000000" stroke-opacity=".31" stroke-width="4.904"/>
 </g>
 <path d="m271.84 74.22c10.154 19.1 18.652 37.21 25.5 54.41 5.755.305 11.631.69 17.656 1.156-12.741-17.586-27.13-36.08-43.16-55.56m-6.156 63.53c-2.57.002-5.125.02-7.625.063-1.972.033-3.915.067-5.844.125-.269.008-.545.023-.813.031-4.286.137-8.461.332-12.531.594-.706.045-1.394.107-2.094.156-.551.039-1.11.084-1.656.125-3.141.235-6.21.501-9.219.813-1.405.145-2.781.307-4.156.469-.508.06-1.027.125-1.531.188-3.502.431-6.937.928-10.25 1.469-.164.027-.336.035-.5.063-1.376.228-2.719.472-4.063.719-1.285.236-2.558.465-3.813.719-.363.073-.733.144-1.094.219-1.149.238-2.283.497-3.406.75-.631.142-1.252.291-1.875.438-.659.155-1.319.308-1.969.469-.855.211-1.692.436-2.531.656-.679.178-1.363.347-2.031.531-.237.065-.483.121-.719.188-1.139.319-2.266.664-3.375 1-1.43.434-2.838.881-4.219 1.344-.08.027-.17.035-.25.063-1.312.442-2.609.907-3.875 1.375-.581.215-1.147.436-1.719.656-.828.319-1.66.638-2.469.969-.124.051-.251.105-.375.156-.878.363-1.74.749-2.594 1.125-.865.382-1.722.761-2.563 1.156-.554.261-1.113.514-1.656.781-.593.291-1.17.608-1.75.906-.224.115-.465.227-.688.344-.714.374-1.431.771-2.125 1.156-1 .557-1.975 1.107-2.938 1.688-.26.156-.525.311-.781.469-.928.572-1.829 1.187-2.719 1.781-.112.075-.232.143-.344.219-1.01.682-2.01 1.382-2.969 2.094-.257.191-.496.401-.75.594-.645.49-1.285.965-1.906 1.469-.392.318-.774.646-1.156.969-.625.527-1.244 1.052-1.844 1.594-.104.094-.209.187-.313.281-1.504 1.375-2.936 2.815-4.281 4.281-.436.475-.862.953-1.281 1.438-.082.095-.168.186-.25.281-.528.618-1.03 1.242-1.531 1.875-.645.814-1.275 1.629-1.875 2.469-.025.036-.068.058-.094.094-.656.921-1.272 1.86-1.875 2.813-.287.453-.538.915-.813 1.375-.241.404-.487.81-.719 1.219-.251.443-.479.895-.719 1.344-.357.668-.729 1.318-1.063 2-.084.171-.137.359-.219.531-.398.834-.794 1.676-1.156 2.531-.109.257-.207.522-.313.781-.265.65-.536 1.307-.781 1.969-.172.465-.338.935-.5 1.406-.055.159-.134.309-.188.469-.264.785-.514 1.574-.75 2.375-1.01 3.42-1.746 6.976-2.25 10.688-.007.051.007.105 0 .156-.129.968-.249 1.95-.344 2.938-.062.641-.14 1.288-.188 1.938-.044.6-.062 1.206-.094 1.813-.023.437-.046.872-.063 1.313-.187 5.04.04 10.321.688 15.844.018.155.044.313.063.469.148 1.223.311 2.441.5 3.688.052.341.101.688.156 1.031.167 1.043.336 2.097.531 3.156.067.364.149.728.219 1.094.235 1.224.478 2.473.75 3.719.05.228.105.458.156.688.3 1.343.626 2.695.969 4.063.013.052.018.104.031.156.633 2.516 1.346 5.056 2.125 7.656.441 1.475.918 2.967 1.406 4.469.229.705.448 1.414.688 2.125.029.085.065.165.094.25.499 1.474 1.02 2.938 1.563 4.438.343.947.702 1.918 1.063 2.875.216.574.434 1.141.656 1.719.267.693.536 1.395.813 2.094 1.115 2.819 2.299 5.689 3.563 8.594.2.459.39.914.594 1.375 1.588 3.602 3.279 7.267 5.094 11 7.147 14.707 16.06 30.417 26.719 47.16 10.04-1.637 19.515-3.579 28.406-5.813-3.658-14.764-5.796-28.66-6.438-41.688-.069-1.397-.122-2.779-.156-4.156-.025-1-.056-2.01-.063-3-.003-.416-.001-.836 0-1.25.002-1.331.027-2.626.063-3.938.001-.021-.001-.042 0-.063.037-1.349.084-2.702.156-4.03.098-1.814.242-3.599.406-5.375.68-7.354 1.94-14.391 3.75-21.09.507-1.878 1.029-3.736 1.625-5.563.601-1.844 1.246-3.645 1.938-5.438.04-.105.084-.208.125-.313.254-.651.516-1.293.781-1.938.167-.405.328-.816.5-1.219.466-1.091.968-2.179 1.469-3.25.819-1.753 1.681-3.488 2.594-5.188.804-1.497 1.655-2.983 2.531-4.438.169-.28.329-.565.5-.844 1.096-1.781 2.263-3.533 3.469-5.25 1.214-1.729 2.488-3.429 3.813-5.094.051-.064.105-.124.156-.188.543-.679 1.094-1.363 1.656-2.031 2.756-3.279 5.735-6.447 8.938-9.469.021-.02.041-.042.063-.063.789-.743 1.59-1.46 2.406-2.188.82-.732 1.652-1.44 2.5-2.156.971-.82 1.962-1.638 2.969-2.438.579-.459 1.159-.922 1.75-1.375.402-.308.811-.601 1.219-.906.558-.418 1.119-.838 1.688-1.25.84-.608 1.7-1.217 2.563-1.813.188-.13.374-.277.563-.406 4.247-2.9 8.777-5.63 13.563-8.219 1.643-.889 3.325-1.773 5.03-2.625.465-.232.936-.458 1.406-.688.652-.318 1.308-.625 1.969-.938 1.111-.526 2.207-1.051 3.344-1.563.03-.013.064-.018.094-.031 3.868-1.738 7.898-3.403 12.06-4.969.407-.153.809-.317 1.219-.469 2.733-1.01 5.547-1.97 8.406-2.906 1.584-.519 3.19-1.035 4.813-1.531 1.357-.415 2.741-.819 4.125-1.219 6.192-1.788 12.641-3.432 19.375-4.906.003.01-.003.022 0 .031 1.604-.351 3.24-.698 4.875-1.031 6.911-1.409 14.1-2.69 21.563-3.781.833-.122 1.692-.226 2.531-.344 9.927-1.393 20.335-2.537 31.22-3.375 1.44-.111 2.887-.211 4.344-.313 1.976-.137 3.962-.256 5.969-.375 3.01-.179 6.077-.33 9.156-.469 2.244-.101 4.501-.201 6.781-.281-6.235-1.037-12.345-2.02-18.375-2.938-.557-.085-1.101-.166-1.656-.25-5.466-.824-10.829-1.588-16.12-2.313-1.072-.147-2.122-.295-3.188-.438-1.842-.247-3.648-.484-5.469-.719-1.314-.169-2.603-.337-3.906-.5-1.543-.193-3.066-.378-4.594-.563-5.615-.677-11.12-1.286-16.531-1.844-15.989-1.65-31.09-2.764-45.28-3.375-.684-.029-1.351-.066-2.031-.094-5.707-.228-11.245-.379-16.656-.438-2.01-.024-3.998-.033-5.969-.031m74.938 29.594c-10.142 1.656-19.706 3.613-28.688 5.875 4.149 16.702 6.367 32.28 6.656 46.75.026 1.285.036 2.577.031 3.844v.281c-.006 1.1-.033 2.194-.063 3.281-.03 1.106-.072 2.189-.125 3.281-.004.073.004.146 0 .219-.003.052.003.104 0 .156-.057 1.111-.137 2.215-.219 3.313-.067.898-.135 1.799-.219 2.688-.059.629-.12 1.251-.188 1.875-.039.364-.083.731-.125 1.094-.045.385-.108.773-.156 1.156-.111.89-.215 1.776-.344 2.656-.033.227-.059.461-.094.688-.059.389-.125.77-.188 1.156-.467 2.903-1.03 5.738-1.688 8.531-.185.784-.394 1.568-.594 2.344-.069.268-.117.546-.188.813-.101.383-.207.775-.313 1.156-.179.648-.373 1.295-.563 1.938-.154.523-.307 1.043-.469 1.563-.154.493-.309.979-.469 1.469-.044.134-.081.272-.125.406-.288.871-.598 1.734-.906 2.594-.356.992-.741 1.992-1.125 2.969-.767 1.954-1.593 3.859-2.469 5.75-.438.945-.879 1.883-1.344 2.813s-.946 1.867-1.438 2.781c-.412.766-.819 1.526-1.25 2.281-.083.146-.166.292-.25.438-.267.463-.538.916-.813 1.375-.258.431-.517.854-.781 1.281-.099.16-.213.31-.313.469-.451.721-.905 1.445-1.375 2.156-.461.699-.927 1.405-1.406 2.094-.115.166-.227.335-.344.5-.57.809-1.156 1.611-1.75 2.406-.031.042-.062.083-.094.125-.04.053-.085.103-.125.156-1.218 1.617-2.493 3.192-3.813 4.75-.681.805-1.385 1.617-2.094 2.406-.708.789-1.421 1.57-2.156 2.344-1.471 1.547-2.983 3.047-4.563 4.531-.641.603-1.279 1.22-1.938 1.813-.154.138-.314.269-.469.406-1.633 1.453-3.321 2.859-5.063 4.25-.086.069-.163.15-.25.219-.787.625-1.597 1.231-2.406 1.844-.898.68-1.825 1.367-2.75 2.031-4.625 3.321-9.573 6.445-14.875 9.375-1.06.586-2.131 1.148-3.219 1.719-1.087.57-2.198 1.164-3.313 1.719-1.114.555-2.233 1.086-3.375 1.625-.439.207-.869.42-1.313.625-.713.33-1.433.645-2.156.969-1.169.523-2.367 1.055-3.563 1.563-.793.337-1.57.67-2.375 1-.416.171-.83.331-1.25.5-3.668 1.477-7.463 2.883-11.375 4.219-.117.04-.227.085-.344.125-1.191.405-2.38.796-3.594 1.188-1.331.43-2.673.836-4.03 1.25-1.358.414-2.74.82-4.125 1.219v.031c-13.814 3.974-28.962 7.175-45.47 9.594-.008-.012-.023-.019-.031-.031-4.606.675-9.311 1.29-14.12 1.844-7.22.83-14.684 1.536-22.375 2.094-7.691.557-15.615.964-23.781 1.25.053.009.103.022.156.031-.052.002-.104-.002-.156 0 6.248 1.039 12.366 1.987 18.406 2.906 2.901.442 5.772.867 8.625 1.281.208.03.417.064.625.094 11.763 1.701 23.15 3.176 34.09 4.406.351.039.713.086 1.063.125 2.395.266 4.769.506 7.125.75 15.881 1.643 30.868 2.791 44.969 3.406.221.01.436.022.656.031 5.138.219 10.162.356 15.06.438 1.915.032 3.809.051 5.688.063 1.057.006 2.111.032 3.156.031 2.052-.001 4.085-.036 6.094-.063 1.487-.019 2.943-.029 4.406-.063.402-.009.787-.021 1.188-.031 1.099-.028 2.196-.058 3.281-.094 1.791-.059 3.559-.138 5.313-.219 2.292-.106 4.553-.232 6.781-.375 2.224-.143 4.434-.289 6.594-.469 1.882-.157 3.729-.315 5.563-.5.286-.029.559-.064.844-.094 1.955-.202 3.882-.422 5.781-.656.148-.018.29-.044.438-.063.846-.106 1.666-.232 2.5-.344 3.186-.428 6.319-.885 9.344-1.406.117-.02.227-.042.344-.063 5.609-.976 10.918-2.109 15.969-3.406 1.72-.442 3.407-.896 5.063-1.375 1.37-.397 2.706-.828 4.03-1.25.279-.089.566-.16.844-.25.606-.197 1.185-.392 1.781-.594.33-.112.641-.23.969-.344 1.067-.37 2.12-.737 3.156-1.125.252-.094.5-.186.75-.281.836-.318 1.653-.639 2.469-.969.211-.085.416-.164.625-.25 2.696-1.107 5.277-2.296 7.75-3.531.135-.067.272-.12.406-.188 1.192-.602 2.36-1.212 3.5-1.844.211-.117.416-.226.625-.344 1.045-.59 2.062-1.197 3.063-1.813 1.204-.741 2.361-1.503 3.5-2.281.334-.228.671-.456 1-.688.232-.164.458-.335.688-.5.547-.394 1.094-.784 1.625-1.188.541-.41 1.069-.83 1.594-1.25.409-.328.819-.635 1.219-.969.108-.09.205-.191.313-.281.43-.363.863-.724 1.281-1.094.073-.065.146-.123.219-.188.082-.073.168-.145.25-.219.893-.803 1.724-1.634 2.563-2.469.901-.897 1.787-1.817 2.625-2.75.049-.055.107-.102.156-.156.375-.42.732-.854 1.094-1.281.071-.084.148-.166.219-.25.34-.406.672-.807 1-1.219.387-.486.754-.974 1.125-1.469.11-.146.235-.29.344-.438.265-.36.524-.729.781-1.094.126-.179.251-.351.375-.531.226-.329.437-.668.656-1 .146-.22.295-.434.438-.656.191-.297.377-.606.563-.906.162-.262.342-.517.5-.781.161-.269.312-.541.469-.813.173-.299.332-.605.5-.906.133-.24.276-.477.406-.719.184-.341.354-.687.531-1.031.107-.207.208-.417.313-.625.191-.381.379-.77.563-1.156.085-.178.167-.352.25-.531.266-.574.532-1.136.781-1.719.198-.462.406-.907.594-1.375.045-.113.08-.23.125-.344.077-.195.144-.398.219-.594.151-.394.294-.789.438-1.188.199-.553.409-1.096.594-1.656.013-.041.018-.084.031-.125.198-.602.381-1.201.563-1.813.365-1.23.7-2.483 1-3.75.018-.075.045-.144.063-.219.127-.547.228-1.102.344-1.656.134-.642.258-1.286.375-1.938.03-.165.065-.334.094-.5.084-.486.175-.977.25-1.469.032-.206.064-.418.094-.625.161-1.111.291-2.238.406-3.375.103-1.012.183-2.06.25-3.094.066-1.031.126-2.073.156-3.125.002-.072-.002-.147 0-.219.035-1.329.023-2.7 0-4.063-.024-1.452-.067-2.916-.156-4.406-.165-2.763-.455-5.576-.844-8.469-.029-.219-.032-.437-.063-.656-.009-.062-.022-.125-.031-.188-.21-1.485-.45-3.01-.719-4.531-.031-.174-.062-.356-.094-.531-.257-1.422-.536-2.861-.844-4.313-.059-.278-.127-.564-.188-.844-.293-1.344-.632-2.724-.969-4.094-.325-1.321-.666-2.656-1.031-4-.096-.355-.182-.706-.281-1.063-.051-.184-.104-.378-.156-.563-.363-1.288-.757-2.597-1.156-3.906-.073-.239-.145-.479-.219-.719-.029-.093-.065-.188-.094-.281-.393-1.262-.824-2.531-1.25-3.813-.131-.393-.241-.793-.375-1.188-.258-.762-.542-1.544-.813-2.313-.026-.073-.068-.145-.094-.219-.622-1.762-1.254-3.546-1.938-5.344-.032-.083-.062-.167-.094-.25-.028-.073-.066-.145-.094-.219-.687-1.796-1.408-3.606-2.156-5.438-.034-.082-.06-.168-.094-.25-.042-.102-.083-.21-.125-.313-.779-1.895-1.592-3.817-2.438-5.75-.892-2.041-1.816-4.105-2.781-6.188-7.536-16.26-17.288-33.791-29.28-52.625m-143.44 214.72c12.699 17.621 26.92 36.21 42.969 55.719-10.179-19.15-18.79-37.33-25.688-54.56-5.637-.302-11.387-.699-17.281-1.156" fill="#ffffff"/>
</svg>
