<svg height="512" viewBox="0 0 512 512" width="512" xmlns="http://www.w3.org/2000/svg">
 <path d="m471.95 253.05c0 120.9-98.006 218.91-218.91 218.91s-218.91-98.006-218.91-218.91 98.006-218.91 218.91-218.91 218.91 98.006 218.91 218.91" fill="#b0b0b0" fill-rule="evenodd"/>
 <path d="m222.16 36.312c-24.243 3.4227-47.208 10.814-68.219 21.5v390.47c21.011 10.685 43.977 18.077 68.219 21.5z" fill="#b0b0b0" fill-rule="evenodd"/>
 <path d="m253.03 34.156c-10.481 0-20.787.73192-30.875 2.1562v433.47c10.088 1.4243 20.394 2.1875 30.875 2.1875 12.744 0 25.228-1.1288 37.375-3.2188v-431.41c-12.147-2.0898-24.632-3.1875-37.375-3.1875z" fill="#b0b0b0" fill-rule="evenodd"/>
 <path d="m290.41 37.344v431.41c24.351-4.1897 47.328-12.38 68.219-23.906v-383.59c-20.89-11.525-43.87-19.717-68.22-23.906z" fill="#b0b0b0" fill-rule="evenodd"/>
 <path d="m153.94 57.812c-71.102 36.16-119.82 110.02-119.82 195.25 0 85.233 48.713 159.06 119.81 195.22v-390.47z" fill="#b0b0b0" fill-rule="evenodd"/>
 <path d="m256 1c-140.83 0-255 114.17-255 255s114.17 255 255 255 255-114.17 255-255-114.17-255-255-255m8.827 44.931c120.9 0 218.9 98 218.9 218.9s-98 218.9-218.9 218.9-218.93-98-218.93-218.9 98.03-218.9 218.93-218.9" fill-opacity=".067" fill-rule="evenodd"/>
 <path d="m256 4.43c-138.94 0-251.57 112.63-251.57 251.57s112.63 251.57 251.57 251.57 251.57-112.63 251.57-251.57-112.63-251.57-251.57-251.57m5.885 38.556c120.9 0 218.9 98 218.9 218.9s-98 218.9-218.9 218.9-218.93-98-218.93-218.9 98.03-218.9 218.93-218.9" fill-opacity=".129" fill-rule="evenodd"/>
 <path d="m256 8.36c-136.77 0-247.64 110.87-247.64 247.64s110.87 247.64 247.64 247.64 247.64-110.87 247.64-247.64-110.87-247.64-247.64-247.64m2.942 31.691c120.9 0 218.9 98 218.9 218.9s-98 218.9-218.9 218.9-218.93-98-218.93-218.9 98.03-218.9 218.93-218.9" fill-opacity=".129" fill-rule="evenodd"/>
 <path d="m253.04 7.86c-135.42 0-245.19 109.78-245.19 245.19 0 135.42 109.78 245.19 245.19 245.19 135.42 0 245.19-109.78 245.19-245.19 0-135.42-109.78-245.19-245.19-245.19zm0 26.297c120.9 0 218.9 98 218.9 218.9s-98 218.9-218.9 218.9-218.93-98-218.93-218.9 98.03-218.9 218.93-218.9z" fill="#ffffff" fill-rule="evenodd" stroke="#000000" stroke-opacity=".31" stroke-width="4.904"/>
 <path d="m253.03 34.156c-120.9 0-218.91 98.009-218.91 218.91 0 4.19.14269 8.3368.375 12.469h437.09c.23224-4.1313.34375-8.2794.34375-12.469 0-120.9-98.009-218.91-218.91-218.91z" fill="#ffffff" opacity=".2"/>
 <path d="m225.06 171.41v17.31l8 8h-8v17.31l8 8h-8v17.31l8 8h-8v17.32l8 8h-8v6.75l-6.75-6.75h-16.72l-50.62-50.63h-60.595v17.31l8 8h-8v17.32l8 8h-8v17.31l8 8h-8v17.31l8 8h-8v17.31l128.74 128.75c11.05 1.72 22.38 2.63 33.91 2.63 120.9 0 218.91-98.01 218.91-218.91 0-11.53-.88-22.85-2.6-33.9l-47.75-47.75h-60.56v17.31l8 8h-8v17.31l8 8h-8v8.03l-8.03-8.03h-16.69l-50.62-50.62h-60.63z" fill-rule="evenodd" opacity=".25"/>
 <path d="m225.06 171.41v17.312h60.625v-17.312zm135.97 0v17.312h60.562v-17.312zm-135.97 25.312v17.312h60.625v-17.312zm135.97 0v17.312h60.562v-17.312zm-270.66 25.312v17.312h60.594v-17.312zm134.69 0v17.312h60.625v-17.312zm67.375 0v17.312h60.562v-17.312zm68.594 0v17.312h60.562v-17.312zm-270.66 25.312v17.312h60.594v-17.312zm134.69 0v17.312h60.625v-17.312zm67.375 0v17.312h60.562v-17.312zm68.594 0v17.312h60.562v-17.312zm-270.66 25.312v17.312h60.594v-17.312zm67.375 0v17.312h60.562v-17.312zm67.312 0v17.312h60.625v-17.312zm67.375 0v17.312h60.562v-17.312zm68.594 0v17.312h60.562v-17.312zm-270.66 25.312v17.312h60.594v-17.312zm67.375 0v17.312h60.562v-17.312zm67.312 0v17.312h60.625v-17.312zm67.375 0v17.312h60.562v-17.312zm68.594 0v17.312h60.562v-17.312zm-270.66 25.312v17.312h60.594v-17.312zm67.375 0v17.312h60.562v-17.312zm67.312 0v17.312h60.625v-17.312zm67.375 0v17.312h60.562v-17.312zm68.594 0v17.312h60.562v-17.312z" fill="#ffffff" fill-rule="evenodd"/>
</svg>
