<svg height="512" viewBox="0 0 512 512" width="512" xmlns="http://www.w3.org/2000/svg">
 <path d="m471.95 253.05c0 120.9-98.01 218.91-218.91 218.91s-218.91-98.01-218.91-218.91 98.01-218.91 218.91-218.91 218.91 98.01 218.91 218.91" fill="#a4a4a4" fill-rule="evenodd"/>
 <path d="m252.22 89.25c-79.6.401-152.45 65.36-161.34 144.66-8.421 56.46 16.06 114.13 58.56 151.22 28.808 28.585 57.42 57.37 86.06 86.13 5.784.458 11.629.719 17.531.719 120.9 0 218.91-98.01 218.91-218.91 0-5.869-.234-11.685-.688-17.438-36.16-36.37-72.2-72.895-109.28-108.28-29.501-24.474-67.64-38.17-105.97-38.06-1.267-.026-2.518-.038-3.781-.031" opacity=".25"/>
 <g fill-rule="evenodd">
  <path d="m256 1c-140.83 0-255 114.17-255 255s114.17 255 255 255 255-114.17 255-255-114.17-255-255-255m8.827 44.931c120.9 0 218.9 98 218.9 218.9s-98 218.9-218.9 218.9-218.93-98-218.93-218.9 98.03-218.9 218.93-218.9" fill-opacity=".067"/>
  <g fill-opacity=".129">
   <path d="m256 4.43c-138.94 0-251.57 112.63-251.57 251.57s112.63 251.57 251.57 251.57 251.57-112.63 251.57-251.57-112.63-251.57-251.57-251.57m5.885 38.556c120.9 0 218.9 98 218.9 218.9s-98 218.9-218.9 218.9-218.93-98-218.93-218.9 98.03-218.9 218.93-218.9"/>
   <path d="m256 8.36c-136.77 0-247.64 110.87-247.64 247.64s110.87 247.64 247.64 247.64 247.64-110.87 247.64-247.64-110.87-247.64-247.64-247.64m2.942 31.691c120.9 0 218.9 98 218.9 218.9s-98 218.9-218.9 218.9-218.93-98-218.93-218.9 98.03-218.9 218.93-218.9"/>
  </g>
  <path d="m253.04 7.86c-135.42 0-245.19 109.78-245.19 245.19 0 135.42 109.78 245.19 245.19 245.19 135.42 0 245.19-109.78 245.19-245.19 0-135.42-109.78-245.19-245.19-245.19zm0 26.297c120.9 0 218.9 98 218.9 218.9s-98 218.9-218.9 218.9-218.93-98-218.93-218.9 98.03-218.9 218.93-218.9z" fill="#ffffff" stroke="#000000" stroke-opacity=".31" stroke-width="4.904"/>
 </g>
 <g fill="#a4a4a4" fill-opacity=".468">
  <path d="m325.4 135.11l-48.603 84.05c-12.877-7.395-29.18-8.03-42.969-.07l-48.47-83.944c43.31-25 96.73-25.04 140.04-.033"/>
  <path d="m395.39 256.34c0 50.01-26.74 96.26-70.05 121.26l-48.45-83.91c13.786-7.959 21.39-22.397 21.424-37.25l97.07-.102"/>
  <path d="m278.65 242.92c7.433 12.874 3.048 29.349-9.827 36.782-12.874 7.433-29.368 3.01-36.802-9.861-7.433-12.874-2.994-29.334 9.881-36.767 12.874-7.433 29.31-3.03 36.747 9.846"/>
  <path d="m212.41 256.34c-.017 7.338 1.699 14.767 5.633 21.58 3.933 6.813 9.528 12.05 15.892 15.702l-48.657 84.03c-43.31-25-69.99-71.22-69.99-121.23l97.12-.088"/>
 </g>
 <path d="m402.25 177.2a166.89 166.89 0 0 0 -230.34-65.35 166.89 166.89 0 0 0 166.89 289.05 166.89 166.89 0 0 0 63.45-223.7m-76.847-42.08l-48.603 84.05c-12.877-7.395-29.18-8.03-42.969-.07l-48.47-83.944c43.31-25 96.73-25.04 140.04-.033m69.99 121.23c0 50.01-26.74 96.26-70.05 121.26l-48.45-83.91c13.786-7.959 21.39-22.397 21.424-37.25l97.07-.102m-116.73-13.44c7.433 12.874 3.048 29.349-9.827 36.782-12.874 7.433-29.368 3.01-36.802-9.861-7.433-12.874-2.994-29.334 9.881-36.767 12.874-7.433 29.31-3.03 36.747 9.846m-66.25 13.415c-.017 7.338 1.699 14.767 5.633 21.58 3.933 6.813 9.528 12.05 15.892 15.702l-48.657 84.03c-43.29-25-69.98-71.22-69.98-121.22l97.12-.088" fill="#ffffff"/>
</svg>
