<svg height="512" viewBox="0 0 512 512" width="512" xmlns="http://www.w3.org/2000/svg">
 <g fill-rule="evenodd" transform="translate(0 -540.36)">
  <path d="m280 423.79c0 78.898-63.959 142.86-142.86 142.86-78.898 0-142.86-63.959-142.86-142.86 0-78.898 63.959-142.86 142.86-142.86 78.898 0 142.86 63.959 142.86 142.86" fill="#777777" transform="matrix(1.5323 0 0 1.5323 42.896 144.03)"/>
  <path d="m256 541.36c-140.83 0-255 114.17-255 255s114.17 255 255 255 255-114.17 255-255-114.17-255-255-255m8.827 44.931c120.9 0 218.9 98 218.9 218.9s-98 218.9-218.9 218.9-218.93-98-218.93-218.9 98.03-218.9 218.93-218.9" fill-opacity=".067"/>
  <g fill-opacity=".129">
   <path d="m256 544.79c-138.94 0-251.57 112.63-251.57 251.57s112.63 251.54 251.57 251.54 251.57-112.6 251.57-251.54-112.63-251.57-251.57-251.57m5.885 38.556c120.9 0 218.9 98 218.9 218.9s-98 218.9-218.9 218.9-218.93-98-218.93-218.9 98.03-218.9 218.93-218.9"/>
   <path d="m256 548.72c-136.77 0-247.64 110.87-247.64 247.64s110.87 247.64 247.64 247.64 247.64-110.87 247.64-247.64-110.87-247.64-247.64-247.64m2.942 31.691c120.9 0 218.9 98 218.9 218.9s-98 218.9-218.9 218.9-218.93-98-218.93-218.9 98.03-218.9 218.93-218.9"/>
  </g>
  <path d="m253.04 548.22c-135.42 0-245.19 109.78-245.19 245.19 0 135.42 109.78 245.19 245.19 245.19 135.42 0 245.19-109.78 245.19-245.19 0-135.42-109.78-245.19-245.19-245.19zm0 26.297c120.9 0 218.9 98 218.9 218.9s-98 218.9-218.9 218.9-218.93-98-218.93-218.9 98.03-218.9 218.93-218.9z" fill="#ffffff" stroke="#000000" stroke-opacity=".31" stroke-width="4.904"/>
  <path d="m254 102.91c-36.464 47.855-160.36 182.81-107.59 260.81 2.758 4.077 5.971 7.878 9.563 11.406.258.263.519.521.781.781.134.137.271.27.406.406.185.18.376.352.563.531.328.337.665.668 1 1 .246.253.5.5.75.75.428.444.841.909 1.281 1.344.328.336.665.669 1 1 .345.353.71.684 1.063 1.031.299.305.602.605.906.906.134.137.271.27.406.406.185.18.376.352.563.531.246.253.5.5.75.75.428.444.841.909 1.281 1.344.328.336.665.669 1 1 .36.369.757.7 1.125 1.063.284.29.555.589.844.875.134.137.271.27.406.406.185.18.376.352.563.531.246.253.5.5.75.75.428.444.841.909 1.281 1.344.328.336.665.669 1 1 .36.369.757.7 1.125 1.063.284.29.555.589.844.875.134.137.271.27.406.406.185.18.376.352.563.531.328.337.665.668 1 1 .246.253.5.5.75.75.428.444.841.909 1.281 1.344.425.435.876.854 1.313 1.281.021.021.042.041.063.063.163.159.336.311.5.469.39.401.788.793 1.188 1.188.108.11.204.234.313.344.185.18.376.352.563.531.246.253.5.5.75.75.428.444.841.909 1.281 1.344.328.336.665.669 1 1 .36.369.757.7 1.125 1.063.284.29.555.589.844.875.134.137.271.27.406.406.185.18.376.352.563.531.246.253.5.5.75.75.428.444.841.909 1.281 1.344.328.336.665.669 1 1 .36.369.757.7 1.125 1.063.284.29.555.589.844.875.134.137.271.27.406.406.185.18.376.352.563.531.328.337.665.668 1 1 .246.253.5.5.75.75.428.444.841.909 1.281 1.344.36.369.757.7 1.125 1.063.284.29.555.589.844.875.134.137.271.27.406.406.185.18.376.352.563.531.328.337.665.668 1 1 .246.253.5.5.75.75.428.444.841.909 1.281 1.344.328.336.665.669 1 1 .345.353.71.684 1.063 1.031.299.305.602.605.906.906.134.137.271.27.406.406.185.18.376.352.563.531.246.253.5.5.75.75.428.444.841.909 1.281 1.344.328.336.665.669 1 1 .36.369.757.7 1.125 1.063.284.29.555.589.844.875.134.137.271.27.406.406.185.18.376.352.563.531.246.253.5.5.75.75.428.444.841.909 1.281 1.344.328.336.665.669 1 1 .36.369.757.7 1.125 1.063.284.29.555.589.844.875.134.137.271.27.406.406.185.18.376.352.563.531.328.337.665.668 1 1 .246.253.5.5.75.75.428.444.841.909 1.281 1.344.425.435.876.854 1.313 1.281.021.021.042.041.063.063.163.159.336.311.5.469.39.401.788.793 1.188 1.188.108.11.204.234.313.344.185.18.376.352.563.531.246.253.5.5.75.75.428.444.841.909 1.281 1.344.328.336.665.669 1 1 .36.369.757.7 1.125 1.063.284.29.555.589.844.875.134.137.271.27.406.406.185.18.376.352.563.531.246.253.5.5.75.75.428.444.841.909 1.281 1.344.328.336.665.669 1 1 .36.369.757.7 1.125 1.063.284.29.555.589.844.875.134.137.271.27.406.406.185.18.376.352.563.531.328.337.665.668 1 1 .246.253.5.5.75.75.428.444.841.909 1.281 1.344.36.369.757.7 1.125 1.063.284.29.555.589.844.875.134.137.271.27.406.406.185.18.376.352.563.531.328.337.665.668 1 1 .246.253.5.5.75.75.428.444.841.909 1.281 1.344.328.336.665.669 1 1 .345.353.71.684 1.063 1.031.299.305.602.605.906.906.134.137.271.27.406.406.185.18.376.352.563.531.195.2.395.396.594.594h.188c99.21 0 183-66.02 209.88-156.5-3.471-4.635-6.519-8.883-8.906-12.563-.059.078-.128.172-.188.25-.275-.414-.552-.848-.813-1.25-.059.078-.128.172-.188.25-.275-.414-.552-.848-.813-1.25-.059.078-.128.172-.188.25-.275-.414-.552-.848-.813-1.25-.051.067-.105.151-.156.219-.268-.403-.559-.796-.813-1.188-.055.072-.132.146-.188.219-.27-.407-.556-.824-.813-1.219-.055.072-.132.146-.188.219-.27-.407-.556-.824-.813-1.219-.059.078-.128.172-.188.25-.275-.414-.552-.848-.813-1.25-.059.078-.128.172-.188.25-.275-.414-.552-.848-.813-1.25-.059.078-.128.172-.188.25-.275-.414-.552-.848-.813-1.25-.051.067-.105.151-.156.219-.268-.403-.559-.796-.813-1.188-.055.072-.132.146-.188.219-.27-.407-.556-.824-.813-1.219-.055.072-.132.146-.188.219-.27-.407-.556-.824-.813-1.219-.059.078-.128.172-.188.25-.275-.414-.552-.848-.813-1.25-.059.078-.128.172-.188.25-.275-.414-.552-.848-.813-1.25-.059.078-.128.172-.188.25-.275-.414-.552-.848-.813-1.25-.055.072-.132.147-.188.219-.266-.401-.529-.798-.781-1.188-.055.072-.132.146-.188.219-.273-.411-.554-.82-.813-1.219-.055.072-.132.146-.188.219-.27-.407-.556-.824-.813-1.219-.06.078-.127.171-.188.25-.275-.414-.552-.848-.813-1.25-.059.078-.128.172-.188.25-.275-.414-.552-.848-.813-1.25-.059.078-.128.172-.188.25-.275-.414-.552-.848-.813-1.25-.055.072-.132.147-.188.219-.266-.401-.529-.798-.781-1.188-.055.072-.132.146-.188.219-.273-.411-.554-.82-.813-1.219-.055.072-.132.146-.188.219-.27-.407-.556-.824-.813-1.219-.055.072-.132.146-.188.219-.27-.407-.556-.824-.813-1.219-.059.078-.128.172-.188.25-.275-.414-.552-.848-.813-1.25-.059.078-.128.172-.188.25-.275-.414-.552-.848-.813-1.25-.059.078-.128.172-.188.25-.275-.414-.552-.848-.813-1.25-.051.067-.105.151-.156.219-.268-.403-.559-.796-.813-1.188-.055.072-.132.146-.188.219-.27-.407-.556-.824-.813-1.219-.055.072-.132.146-.188.219-.27-.407-.556-.824-.813-1.219-.059.078-.128.172-.188.25-.275-.414-.552-.848-.813-1.25-.059.078-.128.172-.188.25-.275-.414-.552-.848-.813-1.25-.059.078-.128.172-.188.25-.275-.414-.552-.848-.813-1.25-.051.067-.105.151-.156.219-.268-.403-.559-.796-.813-1.188-.055.072-.132.146-.188.219-.27-.407-.556-.824-.813-1.219-.055.072-.132.146-.188.219-.27-.407-.556-.824-.813-1.219-.06.078-.127.171-.188.25-.275-.414-.552-.848-.813-1.25-.059.078-.128.172-.188.25-.275-.414-.552-.848-.813-1.25-.059.078-.128.172-.188.25-.275-.414-.552-.848-.813-1.25-.055.072-.132.147-.188.219-.266-.401-.529-.798-.781-1.188-.055.072-.132.146-.188.219-.273-.411-.554-.82-.813-1.219-.055.072-.132.146-.188.219-.27-.407-.556-.824-.813-1.219-.06.078-.127.171-.188.25-.275-.414-.552-.848-.813-1.25-.059.078-.128.172-.188.25-.275-.414-.552-.848-.813-1.25-.059.078-.128.172-.188.25-.275-.414-.552-.848-.813-1.25-.059.078-.128.172-.188.25-.275-.414-.552-.848-.813-1.25-.051.067-.105.151-.156.219-.268-.403-.559-.796-.813-1.188-.055.072-.132.146-.188.219-.27-.407-.556-.824-.813-1.219-.055.072-.132.146-.188.219-.27-.407-.556-.824-.813-1.219-.059.078-.128.172-.188.25-.275-.414-.552-.848-.813-1.25-.059.078-.128.172-.188.25-.275-.414-.552-.848-.813-1.25-.059.078-.128.172-.188.25-.275-.414-.552-.848-.813-1.25-.051.067-.105.151-.156.219-.268-.403-.559-.796-.813-1.188-.055.072-.132.146-.188.219-.27-.407-.556-.824-.813-1.219-.055.072-.132.146-.188.219-.27-.407-.556-.824-.813-1.219-.059.078-.128.172-.188.25-.275-.414-.552-.848-.813-1.25-.059.078-.128.172-.188.25-.275-.414-.552-.848-.813-1.25-.059.078-.128.172-.188.25-.275-.414-.552-.848-.813-1.25-.055.072-.132.147-.188.219-.266-.401-.529-.798-.781-1.188-.055.072-.132.146-.188.219-.273-.411-.554-.82-.813-1.219-.055.072-.132.146-.188.219-.27-.407-.556-.824-.813-1.219-.06.078-.127.171-.188.25-.275-.414-.552-.848-.813-1.25-.059.078-.128.172-.188.25-.275-.414-.552-.848-.813-1.25-.059.078-.128.172-.188.25-.275-.414-.552-.848-.813-1.25-.055.072-.132.147-.188.219-.266-.401-.529-.798-.781-1.188-.055.072-.132.146-.188.219-.273-.411-.554-.82-.813-1.219-.055.072-.132.146-.188.219-.27-.407-.556-.824-.813-1.219-.055.072-.132.146-.188.219-.27-.407-.556-.824-.813-1.219-.059.078-.128.172-.188.25-.275-.414-.552-.848-.813-1.25-.059.078-.128.172-.188.25-.275-.414-.552-.848-.813-1.25-.059.078-.128.172-.188.25-.275-.414-.552-.848-.813-1.25-.051.067-.105.151-.156.219-.268-.403-.559-.796-.813-1.188-.055.072-.132.146-.188.219-.27-.407-.556-.824-.813-1.219-.055.072-.132.146-.188.219-.27-.407-.556-.824-.813-1.219-.059.078-.128.172-.188.25-.275-.414-.552-.848-.813-1.25-.059.078-.128.172-.188.25-.275-.414-.552-.848-.813-1.25-.059.078-.128.172-.188.25-.275-.414-.552-.848-.813-1.25-.051.067-.105.151-.156.219-.268-.403-.559-.796-.813-1.188-.055.072-.132.146-.188.219-.27-.407-.556-.824-.813-1.219-.055.072-.132.146-.188.219-.27-.407-.556-.824-.813-1.219-.06.078-.127.171-.188.25-.275-.414-.552-.848-.813-1.25-.059.078-.128.172-.188.25-.275-.414-.552-.848-.813-1.25-.059.078-.128.172-.188.25-.275-.414-.552-.848-.813-1.25-.055.072-.132.147-.188.219-.266-.401-.529-.798-.781-1.188-.055.072-.132.146-.188.219-.273-.411-.554-.82-.813-1.219-.055.072-.132.146-.188.219-.27-.407-.556-.824-.813-1.219-.06.078-.127.171-.188.25-.275-.414-.552-.848-.813-1.25-.059.078-.128.172-.188.25-.275-.414-.552-.848-.813-1.25-.059.078-.128.172-.188.25-.275-.414-.552-.848-.813-1.25-.059.078-.128.172-.188.25-.275-.414-.552-.848-.813-1.25-.051.067-.105.151-.156.219-.268-.403-.559-.796-.813-1.188-.055.072-.132.146-.188.219-.27-.407-.556-.824-.813-1.219-.055.072-.132.146-.188.219-.27-.407-.556-.824-.813-1.219-.059.078-.128.172-.188.25-.275-.414-.552-.848-.813-1.25-.059.078-.128.172-.188.25-.275-.414-.552-.848-.813-1.25-.059.078-.128.172-.188.25-.275-.414-.552-.848-.813-1.25-.051.067-.105.151-.156.219-.268-.403-.559-.796-.813-1.188-.055.072-.132.146-.188.219-.27-.407-.556-.824-.813-1.219-.055.072-.132.146-.188.219-.27-.407-.556-.824-.813-1.219-.059.078-.128.172-.188.25-.275-.414-.552-.848-.813-1.25-.059.078-.128.172-.188.25-.275-.414-.552-.848-.813-1.25-.059.078-.128.172-.188.25-.275-.414-.552-.848-.813-1.25-.055.072-.132.147-.188.219-.266-.401-.529-.798-.781-1.188-.055.072-.132.146-.188.219-.27-.407-.556-.824-.813-1.219-.055.072-.132.146-.188.219-.27-.407-.556-.824-.813-1.219-.06.078-.127.171-.188.25-.275-.414-.552-.848-.813-1.25-.059.078-.128.172-.188.25-.275-.414-.552-.848-.813-1.25-.059.078-.128.172-.188.25-.275-.414-.552-.848-.813-1.25-.055.072-.132.147-.188.219-.266-.401-.529-.798-.781-1.188-.055.072-.132.146-.188.219-.273-.411-.554-.82-.813-1.219-.055.072-.132.146-.188.219-.27-.407-.556-.824-.813-1.219-.055.072-.132.146-.188.219-.27-.407-.556-.824-.813-1.219-.059.078-.128.172-.188.25-.275-.414-.552-.848-.813-1.25-.059.078-.128.172-.188.25-.275-.414-.552-.848-.813-1.25-.059.078-.128.172-.188.25-.275-.414-.552-.848-.813-1.25-.051.067-.105.151-.156.219-.268-.403-.559-.796-.813-1.188-.055.072-.132.146-.188.219-.27-.407-.556-.824-.813-1.219-.055.072-.132.146-.188.219-.27-.407-.556-.824-.813-1.219-.059.078-.128.172-.188.25-.275-.414-.552-.848-.813-1.25-.059.078-.128.172-.188.25-.275-.414-.552-.848-.813-1.25-.059.078-.128.172-.188.25-.275-.414-.552-.848-.813-1.25-.051.067-.105.151-.156.219-.268-.403-.559-.796-.813-1.188-.055.072-.132.146-.188.219-.27-.407-.556-.824-.813-1.219-.055.072-.132.146-.188.219-.27-.407-.556-.824-.813-1.219-.06.078-.127.171-.188.25-.275-.414-.552-.848-.813-1.25-.059.078-.128.172-.188.25-.275-.414-.552-.848-.813-1.25-.059.078-.128.172-.188.25-.275-.414-.552-.848-.813-1.25-.055.072-.132.147-.188.219-.266-.401-.529-.798-.781-1.188-.055.072-.132.146-.188.219-.273-.411-.554-.82-.813-1.219-.055.072-.132.146-.188.219-.27-.407-.556-.824-.813-1.219-.06.078-.127.171-.188.25-.275-.414-.552-.848-.813-1.25-.059.078-.128.172-.188.25-.275-.414-.552-.848-.813-1.25-.059.078-.128.172-.188.25-.275-.414-.552-.848-.813-1.25-.059.078-.128.172-.188.25-.275-.414-.552-.848-.813-1.25-.051.067-.105.151-.156.219-.268-.403-.559-.796-.813-1.188-.055.072-.132.146-.188.219-.27-.407-.556-.824-.813-1.219-.055.072-.132.146-.188.219-.27-.407-.556-.824-.813-1.219-.059.078-.128.172-.188.25-.275-.414-.552-.848-.813-1.25-.059.078-.128.172-.188.25-.275-.414-.552-.848-.813-1.25-.059.078-.128.172-.188.25-.275-.414-.552-.848-.813-1.25-.051.067-.105.151-.156.219-.268-.403-.559-.796-.813-1.188-.055.072-.132.146-.188.219-.27-.407-.556-.824-.813-1.219-.055.072-.132.146-.188.219-.27-.407-.556-.824-.813-1.219-.059.078-.128.172-.188.25-.275-.414-.552-.848-.813-1.25-.059.078-.128.172-.188.25-.275-.414-.552-.848-.813-1.25-.059.078-.128.172-.188.25-.275-.414-.552-.848-.813-1.25-.055.072-.132.147-.188.219-.266-.401-.529-.798-.781-1.188-.055.072-.132.146-.188.219-.27-.407-.556-.824-.813-1.219-.055.072-.132.146-.188.219-.27-.407-.556-.824-.813-1.219-.06.078-.127.171-.188.25-.275-.414-.552-.848-.813-1.25-.059.078-.128.172-.188.25-.275-.414-.552-.848-.813-1.25-.059.078-.128.172-.188.25-.275-.414-.552-.848-.813-1.25-.055.072-.132.147-.188.219-.266-.401-.529-.798-.781-1.188-.055.072-.132.146-.188.219-.273-.411-.554-.82-.813-1.219-.055.072-.132.146-.188.219-.27-.407-.556-.824-.813-1.219-.06.078-.127.171-.188.25-.275-.414-.552-.848-.813-1.25-.059.078-.128.172-.188.25-.275-.414-.552-.848-.813-1.25-.059.078-.128.172-.188.25-.275-.414-.552-.848-.813-1.25-.059.078-.128.172-.188.25-.275-.414-.552-.848-.813-1.25-.051.067-.105.151-.156.219-.268-.403-.559-.796-.813-1.188-.055.072-.132.146-.188.219-.27-.407-.556-.824-.813-1.219-.055.072-.132.146-.188.219-.27-.407-.556-.824-.813-1.219-.059.078-.128.172-.188.25-.275-.414-.552-.848-.813-1.25-.059.078-.128.172-.188.25-.275-.414-.552-.848-.813-1.25-.059.078-.128.172-.188.25-.275-.414-.552-.848-.813-1.25-.051.067-.105.151-.156.219-.268-.403-.559-.796-.813-1.188-.055.072-.132.146-.188.219-.27-.407-.556-.824-.813-1.219-.055.072-.132.146-.188.219-.27-.407-.556-.824-.813-1.219-.06.078-.127.171-.188.25-.275-.414-.552-.848-.813-1.25-.059.078-.128.172-.188.25-.275-.414-.552-.848-.813-1.25-.059.078-.128.172-.188.25-.275-.414-.552-.848-.813-1.25-.055.072-.132.147-.188.219-.266-.401-.529-.798-.781-1.188-.055.072-.132.146-.188.219-.273-.411-.554-.82-.813-1.219-.055.072-.132.146-.188.219-.27-.407-.556-.824-.813-1.219-.06.078-.127.171-.188.25-.275-.414-.552-.848-.813-1.25-.059.078-.128.172-.188.25-.275-.414-.552-.848-.813-1.25-.059.078-.128.172-.188.25-.275-.414-.552-.848-.813-1.25-.059.078-.128.172-.188.25-.275-.414-.552-.848-.813-1.25-.051.067-.105.151-.156.219-.268-.403-.559-.796-.813-1.188-.055.072-.132.146-.188.219-.27-.407-.556-.824-.813-1.219-.055.072-.132.146-.188.219-.27-.407-.556-.824-.813-1.219-.059.078-.128.172-.188.25-.275-.414-.552-.848-.813-1.25-.059.078-.128.172-.188.25-.275-.414-.552-.848-.813-1.25-.059.078-.128.172-.188.25-.275-.414-.552-.848-.813-1.25-.051.067-.105.151-.156.219-.268-.403-.559-.796-.813-1.188-.055.072-.132.146-.188.219-.27-.407-.556-.824-.813-1.219-.055.072-.132.146-.188.219-.27-.407-.556-.824-.813-1.219-.059.078-.128.172-.188.25-.275-.414-.552-.848-.813-1.25-.059.078-.128.172-.188.25-.275-.414-.552-.848-.813-1.25-.059.078-.128.172-.188.25-.275-.414-.552-.848-.813-1.25-.051.067-.105.151-.156.219-.268-.403-.559-.796-.813-1.188-.055.072-.132.146-.188.219-.27-.407-.556-.824-.813-1.219-.055.072-.132.146-.188.219-.27-.407-.556-.824-.813-1.219-.06.078-.127.171-.188.25-.275-.414-.552-.848-.813-1.25-.059.078-.128.172-.188.25-.275-.414-.552-.848-.813-1.25-.059.078-.128.172-.188.25-.275-.414-.552-.848-.813-1.25-.055.072-.132.147-.188.219-.266-.401-.529-.798-.781-1.188-.055.072-.132.146-.188.219-.273-.411-.554-.82-.813-1.219-.055.072-.132.146-.188.219-.27-.407-.556-.824-.813-1.219-.06.078-.127.171-.188.25-.275-.414-.552-.848-.813-1.25" fill-opacity=".235" transform="translate(0 540.36)"/>
 </g>
 <path d="m254 102.9c-36.464 47.855-160.35 182.81-107.58 260.81 40.833 60.36 179.63 60.668 219.99 0 52.5-78.91-81.37-212.96-112.41-260.81m-32.25 104.38c1.975-.103 3.786-.065 5.726 0 3.143.105 6.328.299 9.342.897 48.22 9.571 57.861 47.855 57.861 47.855s-48.22-38.28-77.15 0 28.93 95.71 67.5 105.28c17.14 4.254 30.25 14.212 39.779 23.928-54.05 25.932-141.25 16.558-171.47-28.11-28.11-41.544-6.148-89.987 26.22-138.18 13.654-6.213 28.368-10.942 42.19-11.665" fill="#ffffff" fill-opacity=".996"/>
</svg>
