<?xml version="1.0" encoding="UTF-8" standalone="no"?>
<svg xmlns="http://www.w3.org/2000/svg" viewBox="0 0 512 512" version="1.1">
 <linearGradient id="a" gradientUnits="userSpaceOnUse" x1="490.74" x2="134.94" y1="425.07" y2="141.65">
  <stop offset="0" stop-color="#74c23f"/>
  <stop offset="1" stop-color="#f5a0b6"/>
 </linearGradient>
 <g fill-rule="evenodd">
  <path d="m470.41 253.05c0 120.9-98.01 218.91-218.91 218.91s-218.91-98.01-218.91-218.91 98.01-218.91 218.91-218.91 218.91 98.01 218.91 218.91" fill="url(#a)" style="fill:#9f9f9f;fill-opacity:1"/>
  <path d="m252.09 105.66c-81.62.101-152.84 76.62-146.16 158.31.731 50.969 33.782 92.4 70.16 124.59 27.76 27.677 55.53 55.46 83.31 83.25 115.68-4.103 208.49-97.97 210.94-214.06-39.03-38.943-78.1-77.79-117.34-116.5-26.791-22.834-61.793-35.68-97-35.531-1.3-.037-2.611-.064-3.906-.063" opacity=".25"/>
  <path d="m256 1c-140.83 0-255 114.17-255 255s114.17 255 255 255 255-114.17 255-255-114.17-255-255-255m8.827 44.931c120.9 0 218.9 98 218.9 218.9s-98 218.9-218.9 218.9-218.93-98-218.93-218.9 98.03-218.9 218.93-218.9" fill-opacity=".067"/>
  <g fill-opacity=".129">
   <path d="m256 4.43c-138.94 0-251.57 112.63-251.57 251.57s112.63 251.57 251.57 251.57 251.57-112.63 251.57-251.57-112.63-251.57-251.57-251.57m5.885 38.556c120.9 0 218.9 98 218.9 218.9s-98 218.9-218.9 218.9-218.93-98-218.93-218.9 98.03-218.9 218.93-218.9"/>
   <path d="m256 8.36c-136.77 0-247.64 110.87-247.64 247.64s110.87 247.64 247.64 247.64 247.64-110.87 247.64-247.64-110.87-247.64-247.64-247.64m2.942 31.691c120.9 0 218.9 98 218.9 218.9s-98 218.9-218.9 218.9-218.93-98-218.93-218.9 98.03-218.9 218.93-218.9"/>
  </g>
  <path d="m253.04 7.86c-135.42 0-245.19 109.78-245.19 245.19 0 135.42 109.78 245.19 245.19 245.19 135.42 0 245.19-109.78 245.19-245.19 0-135.42-109.78-245.19-245.19-245.19zm0 26.297c120.9 0 218.9 98 218.9 218.9s-98 218.9-218.9 218.9-218.93-98-218.93-218.9 98.03-218.9 218.93-218.9z" fill="#ffffff" stroke="#000000" stroke-opacity=".31" stroke-width="4.904"/>
 </g>
 <path d="m256 105.72c-82.998 0-150.28 67.28-150.28 150.28 0 82.998 67.28 150.28 150.28 150.28 82.998 0 150.28-67.28 150.28-150.28 0-82.998-67.28-150.28-150.28-150.28m51.793 17.899c17.756 6.938 34.391 17.565 48.734 31.908 12.07 12.07 21.539 25.789 28.365 40.41l-87.81 50.693c-1.716-7.462-5.485-14.555-11.298-20.368-6.05-6.05-13.484-9.874-21.281-11.486l43.29-91.16m-51.793 97.23c19.417 0 35.15 15.738 35.15 35.15 0 19.417-15.738 35.15-35.15 35.15-19.417 0-35.15-15.738-35.15-35.15 0-19.417 15.738-35.15 35.15-35.15m0 7.782c-15.12 0-27.373 12.256-27.373 27.373 0 15.12 12.256 27.373 27.373 27.373 15.12 0 27.373-12.256 27.373-27.373 0-15.12-12.256-27.373-27.373-27.373m0 8.05c10.671 0 19.322 8.651 19.322 19.322s-8.651 19.322-19.322 19.322-19.322-8.651-19.322-19.322 8.651-19.322 19.322-19.322m-41.461 28.634c.322 1.399.716 2.792 1.181 4.16.155.456.312.89.483 1.342 1.369 3.618 3.237 7.07 5.636 10.278.299.4.598.789.912 1.181.949 1.18 1.964 2.313 3.059 3.408 1.891 1.891 3.908 3.563 6.04 5.02.426.291.854.585 1.288.859 1.742 1.099 3.541 2.052 5.394 2.871.923.409 1.847.761 2.791 1.1 1.416.509 2.868.961 4.321 1.315.484.118.962.221 1.449.322l-43.29 91.16c-1.117-.437-2.219-.876-3.328-1.342-1.101-.462-2.183-.931-3.274-1.422-2.193-.988-4.344-2.035-6.494-3.14-1.063-.545-2.115-1.117-3.167-1.691-.009-.003-.02.003-.027 0-1.059-.578-2.093-1.164-3.14-1.771-2.1-1.218-4.177-2.477-6.226-3.811-1.021-.665-2.025-1.346-3.03-2.04-4.04-2.779-7.959-5.774-11.754-9.02-.942-.805-1.865-1.635-2.791-2.469-.005-.005-.022.005-.027 0-.931-.838-1.85-1.682-2.764-2.549s-1.814-1.76-2.71-2.657c-4.533-4.533-8.685-9.294-12.479-14.25-.631-.825-1.241-1.633-1.852-2.469-5.501-7.52-10.168-15.469-14.01-23.696l87.81-50.693" fill="#ffffff" fill-rule="evenodd"/>
</svg>
