<svg height="512" viewBox="0 0 512 512" width="512" xmlns="http://www.w3.org/2000/svg">
 <path d="m471.95 253.05c0 120.9-98.01 218.9-218.9 218.9-120.9 0-218.9-98.01-218.9-218.9 0-120.9 98.01-218.9 218.9-218.9 120.9 0 218.9 98.01 218.9 218.9" fill="#777777" fill-rule="evenodd"/>
 <path d="m168.25 112.06v21.719h1.063v1.031h1.094v1.063h1.063v1.063h1.031v1.094h1.063v1.063h.094v12.469c-.168-.003-21.719-.469-21.719-.469v25.469c.008 0 .987.028 1.094.031v1.063c.008 0 .931.028 1.031.031v1.031h.031c.008 0 .931.029 1.031.031v1.031c.008 0 .956.028 1.063.031v1.031c.008 0 .956.028 1.063.031v1.031c.008 0 .987.028 1.094.031v1c .008 0 .956.06 1.063.063v1.031c.008 0 .956.028 1.063.031v1.031c.008 0 .931.028 1.031.031v1.031c.008 0 .956.028 1.063.031v1.031c.008 0 .988.028 1.094.031v1.063c.008 0 .956.028 1.063.031v1c .008 0 .956.028 1.063.031v1.031c.008 0 .956.028 1.063.031v1.031c.007 0 .931.029 1.031.031v1.031l1.094.031v1.063c.008 0 .956.028 1.063.031v1.031c.008 0 .956.028 1.063.031v1c .008 0 .956.028 1.063.031v1.031c.008 0 .956.028 1.063.031v1.031c.003 0 .418-.001.438 0v131.19l-21.719-.344v25.5l1.094.063v1.031l1.031.031v1.031s.963.029 1.063.031v1.031l1.063.031v1.031l1.063.031v1.063l1.094.031v1l1.063.031v1.031s.962.029 1.063.031v1.031l1.031.031v1.031l1.063.031v1.031l1.094.063v1.031l1.063.031v1.031l1.063.031v1l1.063.031v1.031l1.031.031v1.031l1.094.063v.906h-6.188l16.344 23.03.156-.188.875 1.219.156-.219.906 1.281.156-.219c.097.137.906 1.313.906 1.313s.153-.245.156-.25c.097.137.906 1.313.906 1.313s.184-.245.188-.25c.097.137.906 1.313.906 1.313s.153-.214.156-.219c.097.137.906 1.281.906 1.281s.153-.214.156-.219c.097.137.906 1.281.906 1.281s.154-.184.156-.188c.089.125.875 1.25.875 1.25s.153-.245.156-.25c.097.137.906 1.313.906 1.313s.184-.245.188-.25c.097.137.875 1.313.875 1.313s.184-.214.188-.219c.097.137.906 1.281.906 1.281s.153-.214.156-.219c.097.137.906 1.281.906 1.281s.153-.214.156-.219c.097.137.906 1.313.906 1.313s.153-.215.156-.219c.089.125.875 1.25.875 1.25s.184-.245.188-.25c.097.137.875 1.313.875 1.313s.184-.245.188-.25c.097.137.906 1.313.906 1.313s.153-.214.156-.219c.097.137.906 1.281.906 1.281s.153-.214.156-.219c.097.137.906 1.313.906 1.313s.153-.245.156-.25c.097.137.906 1.313.906 1.313s.185-.215.188-.219c.089.125.844 1.25.844 1.25s.184-.245.188-.25c.097.137.906 1.313.906 1.313s.153-.214.156-.219c.097.137.906 1.281.906 1.281s.153-.214.156-.219c.097.137.906 1.313.906 1.313s.153-.245.156-.25c.097.137.906 1.313.906 1.313s.184-.245.188-.25c.097.137.906 1.313.906 1.313s.153-.184.156-.188c.089.125.875 1.219.875 1.219s.153-.214.156-.219l.906 1.281s.153-.214.156-.219c.097.137.906 1.313.906 1.313s.153-.245.156-.25c.097.137.906 1.313.906 1.313s.184-.245.188-.25c.097.137.875 1.313.875 1.313s.184-.214.188-.219c.097.137.906 1.281.906 1.281s.153-.214.156-.219c.097.137.906 1.281.906 1.281s.153-.183.156-.188c.089.125.875 1.25.875 1.25s.153-.245.156-.25c.097.137.906 1.313.906 1.313s.184-.245.188-.25c.097.137.875 1.313.875 1.313s.184-.245.188-.25c.097.137.906 1.313.906 1.313l.156-.219.906 1.281s.153-.214.156-.219l.906 1.313s.153-.215.156-.219c.089.125.875 1.25.875 1.25s.184-.245.188-.25c.097.137.875 1.313.875 1.313l.188-.25c.097.137.906 1.313.906 1.313s.153-.214.156-.219l.906 1.281s.153-.214.156-.219c.097.137.906 1.313.906 1.313s.153-.245.156-.25c.097.137.906 1.313.906 1.313s.185-.215.188-.219c.089.125.844 1.25.844 1.25s.184-.245.188-.25l.906 1.313s.153-.214.156-.219l.906 1.281s.153-.214.156-.219c.097.137.906 1.313.906 1.313s.153-.245.156-.25c.097.137.906 1.313.906 1.313s.184-.245.188-.25c.097.137.875 1.313.875 1.313l.188-.25.906 1.313s.153-.183.156-.188c.089.125.875 1.219.875 1.219s.153-.214.156-.219c.097.137.906 1.313.906 1.313s.153-.245.156-.25c.097.137.906 1.313.906 1.313l.188-.25c.097.137.875 1.313.875 1.313s.184-.245.188-.25l.906 1.313s.153-.214.156-.219c.097.137.906 1.281.906 1.281s.153-.183.156-.188c.089.125.875 1.25.875 1.25l.156-.25c.097.137.906 1.313.906 1.313s.184-.245.188-.25c.097.137.875 1.313.875 1.313s.184-.245.188-.25l.906 1.313s.153-.214.156-.219c.097.137.906 1.281.906 1.281s.153-.214.156-.219c.097.137.906 1.313.906 1.313s.153-.215.156-.219c.089.125.875 1.25.875 1.25s.184-.245.188-.25l.875 1.313s.184-.245.188-.25c.097.137.906 1.313.906 1.313s.153-.214.156-.219c.097.137.906 1.281.906 1.281s.153-.214.156-.219c.097.137.906 1.313.906 1.313l.156-.25.906 1.313s.185-.215.188-.219l.844 1.25s.184-.245.188-.25c.097.137.906 1.313.906 1.313s.153-.214.156-.219c.097.137.906 1.281.906 1.281l.156-.219c.097.137.906 1.313.906 1.313s.153-.245.156-.25c.025.035.127.211.219.344 99.98-1.833 183.6-70.69 207.78-163.53-.118-.119-.224-.229-.344-.344-.122-.12-.253-.256-.375-.375-.231-.238-.485-.452-.719-.688-.124-.122-.219-.254-.344-.375-.231-.238-.485-.452-.719-.688-.119-.116-.256-.228-.375-.344-.174-.18-.356-.353-.531-.531-.057-.055-.099-.133-.156-.188-.006-.006.006-.025 0-.031-.113-.111-.23-.202-.344-.313-.24-.247-.477-.505-.719-.75-.113-.111-.23-.233-.344-.344-.236-.244-.449-.477-.688-.719-.117-.115-.257-.229-.375-.344-.077-.079-.173-.14-.25-.219-.158-.152-.31-.317-.469-.469-.122-.12-.221-.256-.344-.375-.356-.356-.732-.711-1.094-1.063-.231-.238-.454-.483-.688-.719-.124-.122-.25-.223-.375-.344-.231-.238-.454-.483-.688-.719-.119-.116-.256-.197-.375-.313-.174-.18-.356-.384-.531-.563-.057-.055-.099-.102-.156-.156-.006-.006.006-.025 0-.031-.113-.111-.23-.233-.344-.344-.24-.247-.508-.474-.75-.719-.113-.111-.199-.233-.313-.344-.236-.244-.48-.477-.719-.719-.117-.115-.257-.229-.375-.344-.077-.079-.142-.171-.219-.25-.158-.152-.31-.317-.469-.469-.123-.121-.252-.224-.375-.344-.231-.238-.454-.483-.688-.719-.124-.122-.25-.254-.375-.375-.231-.238-.454-.452-.688-.688-.119-.116-.256-.228-.375-.344-.174-.18-.356-.353-.531-.531-.057-.055-.13-.102-.188-.156-.006-.006.006-.025 0-.031-.113-.111-.199-.233-.313-.344-.24-.247-.508-.474-.75-.719-.113-.111-.23-.233-.344-.344-.236-.244-.449-.509-.688-.75-.117-.115-.257-.198-.375-.313-.077-.079-.142-.171-.219-.25-.158-.152-.31-.317-.469-.469-.122-.12-.253-.256-.375-.375-.231-.238-.454-.452-.688-.688-.124-.122-.25-.254-.375-.375-.231-.238-.485-.452-.719-.688-.119-.116-.225-.228-.344-.344-.174-.18-.387-.353-.563-.531-.057-.055-.099-.102-.156-.156-.006-.006.006-.025 0-.031-.113-.111-.23-.233-.344-.344-.24-.247-.477-.505-.719-.75-.113-.111-.23-.202-.344-.313-.236-.244-.449-.509-.688-.75-.117-.115-.257-.198-.375-.313-.077-.079-.142-.171-.219-.25-.158-.152-.31-.317-.469-.469-.122-.12-.253-.256-.375-.375-.231-.238-.485-.452-.719-.688-.124-.122-.219-.254-.344-.375-.231-.238-.485-.452-.719-.688-.119-.116-.256-.228-.375-.344-.174-.18-.356-.353-.531-.531-.057-.055-.099-.133-.156-.188-.083-.084-.167-.167-.25-.25-.034-.033-.06-.061-.094-.094-.24-.247-.477-.505-.719-.75-.113-.111-.23-.202-.344-.313-.236-.244-.449-.509-.688-.75-.117-.115-.257-.229-.375-.344-.077-.079-.173-.14-.25-.219-.158-.152-.31-.317-.469-.469-.122-.12-.221-.256-.344-.375-.231-.238-.485-.452-.719-.688-.123-.121-.252-.255-.375-.375-.231-.238-.454-.483-.688-.719-.124-.122-.25-.223-.375-.344-.231-.238-.454-.483-.688-.719-.119-.116-.256-.197-.375-.313-.174-.18-.356-.384-.531-.563-.057-.055-.099-.102-.156-.156-.006-.006.006-.025 0-.031-.113-.111-.23-.233-.344-.344-.24-.247-.508-.474-.75-.719-.113-.111-.199-.233-.313-.344-.236-.244-.48-.477-.719-.719-.117-.115-.257-.229-.375-.344-.077-.079-.142-.171-.219-.25-.158-.152-.31-.317-.469-.469-.123-.121-.252-.224-.375-.344-.231-.238-.454-.483-.688-.719-.124-.122-.25-.254-.375-.375-.231-.238-.454-.452-.688-.688-.119-.116-.256-.228-.375-.344-.174-.18-.356-.353-.531-.531-.057-.055-.13-.102-.188-.156-.006-.006.006-.025 0-.031-.113-.111-.199-.233-.313-.344-.24-.247-.508-.474-.75-.719-.113-.111-.23-.233-.344-.344-.236-.244-.449-.509-.688-.75-.117-.115-.257-.198-.375-.313-.077-.079-.142-.171-.219-.25-.158-.152-.31-.317-.469-.469-.122-.12-.253-.225-.375-.344-.231-.238-.454-.483-.688-.719-.124-.122-.25-.254-.375-.375-.231-.238-.485-.452-.719-.688-.119-.116-.225-.228-.344-.344-.174-.18-.356-.353-.531-.531-.057-.055-.13-.102-.188-.156-.006-.006.006-.025 0-.031-.113-.111-.23-.233-.344-.344-.24-.247-.477-.505-.719-.75-.113-.111-.23-.202-.344-.313-.236-.244-.449-.509-.688-.75-.117-.115-.257-.198-.375-.313-.077-.079-.142-.171-.219-.25-.158-.152-.31-.317-.469-.469-.122-.12-.253-.256-.375-.375-.231-.238-.485-.452-.719-.688-.123-.121-.22-.255-.344-.375-.231-.238-.485-.452-.719-.688-.124-.122-.25-.254-.375-.375-.231-.238-.454-.483-.688-.719-.113-.111-.23-.202-.344-.313-.237-.245-.479-.508-.719-.75-.113-.111-.23-.202-.344-.313-.24-.247-.477-.505-.719-.75-.113-.111-.23-.233-.344-.344-.236-.244-.48-.477-.719-.719-.117-.115-.226-.229-.344-.344-.077-.079-.173-.14-.25-.219-.158-.152-.31-.317-.469-.469-.123-.121-.252-.255-.375-.375-.231-.238-.454-.483-.688-.719-.124-.122-.25-.223-.375-.344-.231-.238-.454-.483-.688-.719-.119-.116-.256-.197-.375-.313-.174-.18-.356-.384-.531-.563-.057-.055-.099-.102-.156-.156-.006-.006.006-.025 0-.031-.113-.111-.23-.233-.344-.344-.24-.247-.508-.474-.75-.719-.113-.111-.199-.233-.313-.344-.236-.244-.48-.477-.719-.719-.117-.115-.257-.229-.375-.344-.077-.079-.142-.171-.219-.25-.158-.152-.31-.317-.469-.469-.122-.12-.253-.225-.375-.344-.231-.238-.454-.483-.688-.719-.124-.122-.25-.223-.375-.344-.231-.238-.454-.483-.688-.719-.119-.116-.256-.228-.375-.344-.174-.18-.356-.353-.531-.531-.057-.055-.13-.102-.188-.156-.006-.006.006-.025 0-.031-.113-.111-.199-.233-.313-.344-.355-.355-.733-.712-1.094-1.063-.236-.244-.449-.509-.688-.75-.117-.115-.257-.198-.375-.313-.077-.079-.142-.171-.219-.25-.158-.152-.31-.317-.469-.469-.122-.12-.253-.225-.375-.344-.231-.238-.454-.483-.688-.719-.124-.122-.25-.254-.375-.375-.231-.238-.485-.452-.719-.688-.119-.116-.225-.228-.344-.344-.174-.18-.356-.353-.531-.531-.057-.055-.13-.102-.188-.156-.006-.006.006-.025 0-.031-.113-.111-.23-.233-.344-.344-.24-.247-.477-.505-.719-.75-.113-.111-.23-.202-.344-.313-.236-.244-.449-.509-.688-.75-.117-.115-.257-.198-.375-.313-.077-.079-.142-.171-.219-.25-.158-.152-.31-.317-.469-.469-.122-.12-.253-.256-.375-.375-.231-.238-.485-.452-.719-.688-.123-.121-.22-.255-.344-.375-.231-.238-.485-.452-.719-.688-.124-.122-.25-.254-.375-.375-.231-.238-.454-.483-.688-.719-.119-.116-.256-.197-.375-.313-.174-.18-.356-.353-.531-.531-.057-.055-.099-.133-.156-.188-.006-.006.006-.025 0-.031-.113-.111-.23-.202-.344-.313-.24-.247-.477-.505-.719-.75-.113-.111-.23-.233-.344-.344-.236-.244-.48-.477-.719-.719-.117-.115-.226-.229-.344-.344-.077-.079-.173-.14-.25-.219-.158-.152-.31-.317-.469-.469-.123-.121-.252-.255-.375-.375-.231-.238-.454-.452-.688-.688-.124-.122-.25-.254-.375-.375-.231-.238-.454-.483-.688-.719-.119-.116-.256-.197-.375-.313-.174-.18-.356-.353-.531-.531-.057-.055-.099-.133-.156-.188-.006-.006.006-.025 0-.031-.113-.111-.23-.233-.344-.344-.24-.247-.508-.474-.75-.719-.113-.111-.199-.233-.313-.344-.236-.244-.48-.477-.719-.719-.117-.115-.257-.229-.375-.344-.077-.079-.142-.14-.219-.219-.158-.152-.31-.317-.469-.469-.122-.12-.253-.256-.375-.375-.231-.238-.454-.483-.688-.719-.124-.122-.25-.223-.375-.344-.231-.238-.454-.483-.688-.719-.119-.116-.256-.228-.375-.344-.174-.18-.356-.353-.531-.531-.057-.055-.13-.102-.188-.156-.006-.006.006-.025 0-.031-.113-.111-.199-.233-.313-.344-.24-.247-.508-.474-.75-.719-.113-.111-.199-.233-.313-.344-.236-.244-.48-.509-.719-.75-.117-.115-.257-.198-.375-.313-.077-.079-.142-.171-.219-.25-.158-.152-.31-.317-.469-.469-.122-.12-.253-.225-.375-.344-.231-.238-.454-.483-.688-.719-.123-.121-.252-.255-.375-.375-.231-.238-.485-.452-.719-.688-.119-.116-.225-.228-.344-.344-.174-.18-.356-.353-.531-.531-.057-.055-.13-.102-.188-.156-.006-.006.006-.025 0-.031-.113-.111-.199-.233-.313-.344-.237-.245-.51-.476-.75-.719-.113-.111-.23-.233-.344-.344-.24-.247-.477-.505-.719-.75-.113-.111-.23-.202-.344-.313-.236-.244-.449-.509-.688-.75-.117-.115-.257-.229-.375-.344-.077-.079-.173-.14-.25-.219-.158-.152-.31-.317-.469-.469-.123-.121-.22-.255-.344-.375-.231-.238-.485-.452-.719-.688-.124-.122-.25-.254-.375-.375-.231-.238-.454-.452-.688-.688-.119-.116-.256-.228-.375-.344-.174-.18-.356-.353-.531-.531-.057-.055-.099-.133-.156-.188-.006-.006.006-.025 0-.031-.113-.111-.23-.202-.344-.313-.24-.247-.477-.505-.719-.75-.113-.111-.23-.233-.344-.344-.236-.244-.48-.477-.719-.719-.117-.115-.226-.229-.344-.344-.077-.079-.173-.14-.25-.219-.158-.152-.31-.317-.469-.469-.122-.12-.221-.256-.344-.375-.231-.238-.485-.452-.719-.688-.124-.122-.25-.254-.375-.375-.231-.238-.454-.483-.688-.719-.119-.116-.256-.197-.375-.313-.174-.18-.356-.353-.531-.531-.057-.055-.099-.133-.156-.188-.006-.006.006-.025 0-.031-.113-.111-.23-.233-.344-.344-.24-.247-.508-.474-.75-.719-.113-.111-.199-.233-.313-.344-.236-.244-.48-.477-.719-.719-.117-.115-.226-.229-.344-.344-.077-.079-.173-.14-.25-.219-.158-.152-.31-.317-.469-.469-.122-.12-.253-.256-.375-.375-.231-.238-.454-.483-.688-.719-.124-.122-.25-.223-.375-.344-.231-.238-.454-.483-.688-.719-.119-.116-.256-.228-.375-.344-.174-.18-.356-.353-.531-.531-.057-.055-.13-.102-.188-.156-.006-.006.006-.025 0-.031-.113-.111-.199-.233-.313-.344-19.817-20.416-48.45-33.19-80.37-33.19l-31.16.375v-.063h-1.063v-1.031h-1.031v-1.063h-1.063v-1.063h-1.094v-1.063h-1.063v-1.094h-1.063v-1.063h-1.063v-1.031h-1.031v-1.063h-1.21v-1.063h-1.094v-1.094h-1.063v-1.063h-1.063v-1.063h-1.063v-1.031h-1.031v-1.063h-1.094v-1.094h-1.063v-1.063h-1.063v-1.063h-1.063v-1.063h-1.094v-1.031h-1.031v-1.094h-1.063v-1.063h-1.063v-1.063h-1.063v-1.063h-1.094v-1.063h-1.063v-1.094h-1.063v-1.031h-1.031v-1.063h-1.063v-1.063h-1.063v-1.063h-1.094v-1.094h-1.063v-1.063h-1.063v-1.031h-1.031v-1.063h-1.063v-1.063h-1.094v-1.094h-1.063v-1.063h-1.063v-1.063h-21.77" fill-opacity=".235"/>
 <g fill-rule="evenodd">
  <path d="m256 1c-140.83 0-255 114.17-255 255s114.17 255 255 255 255-114.17 255-255-114.17-255-255-255m8.827 44.931c120.9 0 218.9 98 218.9 218.9s-98 218.9-218.9 218.9-218.93-98-218.93-218.9 98.03-218.9 218.93-218.9" fill-opacity=".067"/>
  <g fill-opacity=".129">
   <path d="m256 4.433c-138.94 0-251.57 112.63-251.57 251.57s112.63 251.57 251.57 251.57 251.57-112.63 251.57-251.57-112.63-251.57-251.57-251.57m5.885 38.556c120.9 0 218.9 98 218.9 218.9s-98 218.9-218.9 218.9-218.93-98-218.93-218.9 98.03-218.9 218.93-218.9"/>
   <path d="m256 8.356c-136.77 0-247.64 110.87-247.64 247.64s110.87 247.64 247.64 247.64 247.64-110.87 247.64-247.64-110.87-247.64-247.64-247.64m2.942 31.691c120.9 0 218.9 98 218.9 218.9s-98 218.9-218.9 218.9-218.93-98-218.93-218.9 98.03-218.9 218.93-218.9"/>
  </g>
  <path d="m253.04 7.859c-135.42 0-245.19 109.78-245.19 245.19 0 135.42 109.78 245.19 245.19 245.19 135.42 0 245.19-109.78 245.19-245.19 0-135.42-109.78-245.19-245.19-245.19zm0 26.297c120.9 0 218.9 98 218.9 218.9s-98 218.9-218.9 218.9-218.93-98-218.93-218.9 98.03-218.9 218.93-218.9z" fill="#ffffff" stroke="#000000" stroke-opacity=".31" stroke-width="4.904"/>
 </g>
 <path d="m168.25 112.07v21.687h5.422v17.782l-21.733-.459v25.501l21.733.597v151.86l-21.733-.368v25.547l21.733.459v16.449h-10.89l16.311 23.02 16.265-23.02h-10.844v-16.449l75.905-.459c60.09-.376 108.48-45.33 108.48-101.59s-48.39-101.54-108.48-101.54l-75.905.459v-17.782h5.422v-21.687h-21.687m92.17 64.51c45.47-.347 81.24 33.473 81.24 76.04 0 42.57-35.767 76.04-81.24 76.04l-75.905.368v-151.86l75.905-.597m-10.844 22.284l-43.37 86.79h86.75l-43.37-86.79m0 29.774l21.687 43.37h-43.37l21.687-43.37" fill="#ffffff"/>
</svg>
