<svg viewBox="0 0 512 512" xmlns="http://www.w3.org/2000/svg">
 <g fill-rule="evenodd">
  <path d="m471.95 253.05c0 120.9-98.01 218.91-218.91 218.91s-218.91-98.01-218.91-218.91 98.01-218.91 218.91-218.91 218.91 98.01 218.91 218.91" fill="#9f9f9f"/>
  <path d="m256 1c-140.83 0-255 114.17-255 255s114.17 255 255 255 255-114.17 255-255-114.17-255-255-255m8.827 44.931c120.9 0 218.9 98 218.9 218.9s-98 218.9-218.9 218.9-218.93-98-218.93-218.9 98.03-218.9 218.93-218.9" fill-opacity=".067"/>
  <g fill-opacity=".129">
   <path d="m256 4.43c-138.94 0-251.57 112.63-251.57 251.57s112.63 251.57 251.57 251.57 251.57-112.63 251.57-251.57-112.63-251.57-251.57-251.57m5.885 38.556c120.9 0 218.9 98 218.9 218.9s-98 218.9-218.9 218.9-218.93-98-218.93-218.9 98.03-218.9 218.93-218.9"/>
   <path d="m256 8.36c-136.77 0-247.64 110.87-247.64 247.64s110.87 247.64 247.64 247.64 247.64-110.87 247.64-247.64-110.87-247.64-247.64-247.64m2.942 31.691c120.9 0 218.9 98 218.9 218.9s-98 218.9-218.9 218.9-218.93-98-218.93-218.9 98.03-218.9 218.93-218.9"/>
  </g>
  <path d="m253.04 7.86c-135.42 0-245.19 109.78-245.19 245.19 0 135.42 109.78 245.19 245.19 245.19 135.42 0 245.19-109.78 245.19-245.19 0-135.42-109.78-245.19-245.19-245.19zm0 26.297c120.9 0 218.9 98 218.9 218.9s-98 218.9-218.9 218.9-218.93-98-218.93-218.9 98.03-218.9 218.93-218.9z" fill="#ffffff" stroke="#000000" stroke-opacity=".31" stroke-width="4.904"/>
 </g>
 <path d="m139.59 113.97c-19.781 0-36 16.251-36 36.03v78.906c0 9.898 4.052 18.927 10.594 25.469l46.22 46.22h-2.5c-3.231 0-5.813 2.612-5.813 5.844 0 1.616.637 3.074 1.688 4.125l154.41 154.38c84.964-22.05 149.87-93.84 161.78-182.44l-70.938-70.938-1.219-1.25c-2.533-2.533-5.442-4.678-8.625-6.375l-79.37-79.37c-6.532-6.532-15.516-10.594-25.406-10.594h-144.81" opacity=".25"/>
 <path d="m139.6 113.97c-19.781 0-36.02 16.239-36.02 36.02v78.93c0 19.781 16.239 36.05 36.02 36.05h39.725c.094-5.726.133-11.439-.065-17.13-.027-.141-.039-.282-.065-.423h-36.702c-11.303 0-20.383-9.08-20.383-20.383v-75.16c0-11.304 9.06-20.285 20.383-20.285h139.01c11.323 0 20.383 8.981 20.383 20.285v35.3c6.175.05 12.355.119 18.53.163v-37.35c0-19.781-16.239-36.02-36.02-36.02h-144.79m88.03 85.76c-19.781 0-36.02 16.239-36.02 36.02v78.93c0 19.781 16.239 36.05 36.02 36.05h144.76c19.781 0 36.02-16.271 36.02-36.05v-78.93c0-19.781-16.239-36.02-36.02-36.02zm2.861 17.62h139.04c11.323 0 20.35 8.981 20.35 20.285v75.16c0 11.304-9.05 20.383-20.35 20.383h-139.04c-11.303 0-20.383-9.08-20.383-20.383v-75.16c0-11.304 9.06-20.285 20.383-20.285m-72.59 83.25c-3.231 0-5.819 2.62-5.819 5.851s2.588 5.819 5.819 5.819h21.521c-.297-3.877-.47-7.774-.553-11.67zm187.44 34.719c3.759 0 6.762 3.035 6.762 6.794s-3 6.827-6.762 6.827c-3.759 0-6.827-3.068-6.827-6.827s3.068-6.794 6.827-6.794m-56.825 24.934c-4.475 0-8.095 3.587-8.095 8.06v17.489c0 .181.021.374.033.553h-34.524c-3.231 0-5.852 2.62-5.852 5.852 0 3.231 2.62 5.819 5.852 5.819h104.97c3.231 0 5.851-2.588 5.851-5.819s-2.62-5.852-5.851-5.852h-33.906c.012-.178 0-.371 0-.553v-17.489c0-4.476-3.587-8.06-8.06-8.06h-20.415" fill="#ffffff"/>
</svg>
