<svg height="512" viewBox="0 0 512 512" width="512" xmlns="http://www.w3.org/2000/svg">
 <path d="m471.95 253.05c0 120.9-98.01 218.9-218.9 218.9-120.9 0-218.9-98.01-218.9-218.9 0-120.9 98.01-218.9 218.9-218.9 120.9 0 218.9 98.01 218.9 218.9" fill="#979797" fill-rule="evenodd"/>
 <path d="m256 1c-140.83 0-255 114.17-255 255 0 140.83 114.17 255 255 255 140.83 0 255-114.17 255-255 0-140.83-114.17-255-255-255m8.827 44.931c120.9 0 218.9 98 218.9 218.9 0 120.9-98 218.9-218.9 218.9-120.9 0-218.93-98-218.93-218.9 0-120.9 98.03-218.9 218.93-218.9" fill-opacity=".067" fill-rule="evenodd"/>
 <g fill-opacity=".129" fill-rule="evenodd">
  <path d="m256 4.433c-138.94 0-251.57 112.63-251.57 251.57 0 138.94 112.63 251.57 251.57 251.57 138.94 0 251.57-112.63 251.57-251.57 0-138.94-112.63-251.57-251.57-251.57m5.885 38.556c120.9 0 218.9 98 218.9 218.9 0 120.9-98 218.9-218.9 218.9-120.9 0-218.93-98-218.93-218.9 0-120.9 98.03-218.9 218.93-218.9"/>
  <path d="m256 8.356c-136.77 0-247.64 110.87-247.64 247.64 0 136.77 110.87 247.64 247.64 247.64 136.77 0 247.64-110.87 247.64-247.64 0-136.77-110.87-247.64-247.64-247.64m2.942 31.691c120.9 0 218.9 98 218.9 218.9 0 120.9-98 218.9-218.9 218.9-120.9 0-218.93-98-218.93-218.9 0-120.9 98.03-218.9 218.93-218.9"/>
 </g>
 <path d="m299.53575 127.64062l-8.51912 1.02496-6.63208-2.17955-10.11344-2.42028-8.22375-8.72294h-3.336l-37.533 12.662-1.113.934-4.193-4.193-30.62113 9.84937-19.78528 15.5383-27.86879 16.37602-20.07559 47.06636-4.43122 8.51995 2.01572 54.19449 41.01074 77.63949 144.50655 111.95802c88.29498-16.63347 149.56614-71.8724 166.15951-190.93675l-134.9844-126.5664" opacity=".25"/>
 <path d="m253.04 7.859c-135.42 0-245.19 109.78-245.19 245.19 0 135.42 109.78 245.19 245.19 245.19 135.42 0 245.19-109.78 245.19-245.19 0-135.42-109.78-245.19-245.19-245.19zm0 26.297c120.9 0 218.9 98 218.9 218.9 0 120.9-98 218.9-218.9 218.9-120.9 0-218.93-98-218.93-218.9 0-120.9 98.03-218.9 218.93-218.9z" fill="#ffffff" fill-rule="evenodd" stroke="#000000" stroke-opacity=".31" stroke-width="4.904"/>
 <path d="m80.493215 145.72837c-7.960711-1.60763-17.130006-6.54423-22.932003-12.34623-22.223827-22.22382-16.060172-59.302672 12.177865-73.258667 11.336579-5.403214 22.748133-5.83041 33.190013-2.300207 13.11515 4.430409 23.01842 13.831888 28.22981 26.799426 2.17382 5.409129 2.31825 7.247663 2.61951 33.345868.29029 25.14791.16807 27.67896-1.36501 28.26725-3.9935 1.53245-4.30062-.37534-4.62207-28.71243-.30728-27.08741-.31701-27.194546-2.98834-32.893987-7.51053-16.024197-25.465789-25.747508-42.006936-22.748026-14.937373 2.708662-25.839889 12.265731-30.856985 27.049015-6.539842 19.270178 4.095266 41.761858 23.16867 48.998288 12.880499 4.88685 27.870611 2.51012 38.234191-6.06216 5.40563-4.47129 5.88537-4.6346 7.58807-2.58297 1.8773 2.26201-.31197 5.19713-7.19452 9.64553-9.87585 6.38308-22.508509 8.96693-33.242265 6.7993z" fill="#ffffff" transform="matrix(2.9911818 0 0 2.9911818 -22.247806 -54.114528)"/>
</svg>
