<svg height="512" viewBox="0 0 512 512" width="512" xmlns="http://www.w3.org/2000/svg">
 <path d="m471.95 253.05c0 120.9-98.01 218.9-218.9 218.9-120.9 0-218.9-98.01-218.9-218.9 0-120.9 98.01-218.9 218.9-218.9 120.9 0 218.9 98.01 218.9 218.9" fill="#b0b0b0" fill-rule="evenodd"/>
 <path d="m256 1c-140.83 0-255 114.17-255 255 0 140.83 114.17 255 255 255 140.83 0 255-114.17 255-255 0-140.83-114.17-255-255-255m8.827 44.931c120.9 0 218.9 98 218.9 218.9 0 120.9-98 218.9-218.9 218.9-120.9 0-218.93-98-218.93-218.9 0-120.9 98.03-218.9 218.93-218.9" fill-opacity=".067" fill-rule="evenodd"/>
 <g fill-opacity=".129" fill-rule="evenodd">
  <path d="m256 4.433c-138.94 0-251.57 112.63-251.57 251.57 0 138.94 112.63 251.57 251.57 251.57 138.94 0 251.57-112.63 251.57-251.57 0-138.94-112.63-251.57-251.57-251.57m5.885 38.556c120.9 0 218.9 98 218.9 218.9 0 120.9-98 218.9-218.9 218.9-120.9 0-218.93-98-218.93-218.9 0-120.9 98.03-218.9 218.93-218.9"/>
  <path d="m256 8.356c-136.77 0-247.64 110.87-247.64 247.64 0 136.77 110.87 247.64 247.64 247.64 136.77 0 247.64-110.87 247.64-247.64 0-136.77-110.87-247.64-247.64-247.64m2.942 31.691c120.9 0 218.9 98 218.9 218.9 0 120.9-98 218.9-218.9 218.9-120.9 0-218.93-98-218.93-218.9 0-120.9 98.03-218.9 218.93-218.9"/>
 </g>
 <path d="m313.2116 131.13295l-9.87811-3.77113-22.44127-8.75751 31.29514 8.7585-46.14-12.02h-3.336l-37.533 12.662-1.113.934-4.193-4.193c-60.65469 5.23505-95.51935 67.21562-86.47901 152.094l33.06976 72.63728 138.16025 116.41072c93.99539-23.1569 163.41649-62.76377 168.75287-199.32174l-129.69245-123.18569-17.26605-6.80755" opacity=".25"/>
 <path d="m253.04 7.859c-135.42 0-245.19 109.78-245.19 245.19 0 135.42 109.78 245.19 245.19 245.19 135.42 0 245.19-109.78 245.19-245.19 0-135.42-109.78-245.19-245.19-245.19zm0 26.297c120.9 0 218.9 98 218.9 218.9 0 120.9-98 218.9-218.9 218.9-120.9 0-218.93-98-218.93-218.9 0-120.9 98.03-218.9 218.93-218.9z" fill="#ffffff" fill-rule="evenodd" stroke="#000000" stroke-opacity=".31" stroke-width="4.904"/>
 <path d="m400 100c-165.69 0-300 134.31-300 300 0 165.69 134.31 300 300 300 165.69 0 300-134.31 300-300 0-165.69-134.31-300-300-300zm0 25c125.97 0 232.15 84.7 264.72 200.25-28.05 57.852-67.959 109.94-116.56 152.03-23.349 20.22-48.841 38.25-77 50.938-28.16 12.692-59.13 19.893-89.97 18.13-23.17-1.329-46.05-7.782-66.34-19.03 53.77-29.14 102.29-67.983 142-114.5 26.07-30.533 48.875-65.23 57.656-104.41 4.391-19.587 5.135-40.1 1.031-59.75-4.104-19.649-13.189-38.37-26.938-53-13.432-14.288-31.06-24.41-49.969-29.625-18.904-5.215-39.02-5.619-58.31-2.094-38.582 7.05-73.03 29.474-100.66 57.31-48.698 49.07-78.8 118.31-73.28 187.22 2.761 34.456 14.308 68.31 34.09 96.66 4.417 6.327 9.272 12.353 14.469 18.06-28.824 10.09-58.669 17.268-88.94 21.313-25.988-41.993-41-91.49-41-144.5 0-151.88 123.12-275 275-275zm1.75 55.56c19.331.026 38.794 5.879 54.22 17.531 13.897 10.499 24.19 25.434 30.03 41.844 5.837 16.409 7.335 34.23 5.344 51.53-3.983 34.605-21.44 66.34-42.531 94.06-37.34 49.09-86.982 88.37-142.19 115.88-5.651 2.815-11.391 5.491-17.16 8.06-12.01-10.512-22.308-22.98-30.16-36.875-16.399-29.03-21.807-63.53-18.625-96.72 3.182-33.19 14.573-65.19 29.875-94.81 17.742-34.35 41.926-66.89 75.78-85.56 16.927-9.336 36.07-14.964 55.41-14.938zm270.78 182.63c1.611 12.04 2.469 24.329 2.469 36.813 0 151.88-123.12 275-275 275-85.3 0-161.53-38.83-211.97-99.78 31.13-7.07 61.56-17.228 90.75-30.16 12.764 9.72 26.86 17.693 41.844 23.438 43.15 16.543 92.14 14.15 135.81-.969 43.671-15.12 82.4-42.25 116.16-73.813 40.22-37.595 74.12-81.907 99.94-130.53z" fill="#ffffff" transform="matrix(.45297459 0 0 .45297459 75.981229 67.04496702)"/>
</svg>
