<svg height="512" viewBox="0 0 512 512" width="512" xmlns="http://www.w3.org/2000/svg">
 <path d="m471.95 253.05c0 120.9-98.01 218.9-218.9 218.9-120.9 0-218.9-98.01-218.9-218.9 0-120.9 98.01-218.9 218.9-218.9 120.9 0 218.9 98.01 218.9 218.9" fill="#828282" fill-rule="evenodd"/>
 <path d="m315.47624 109.14265c-35.25893 7.97154-47.05373 8.36362-71.98546-14.345978l-17.64964 15.975898c-26.75024 27.03313 5.32422 7.90194-28.40917 56.29195-59.66301-5.18766-55.58472 52.35671-84.97127 99.79073l12.5598 108.45714 173.72539 94.25196c36.87117-7.06619 70.32447-27.80385 102.96573-51.78965 84.70473-37.00974 93.23418-274.12946 74.14911-176.47924" opacity=".25"/>
 <path d="m256 1c-140.83 0-255 114.17-255 255 0 140.83 114.17 255 255 255 140.83 0 255-114.17 255-255 0-140.83-114.17-255-255-255m8.827 44.931c120.9 0 218.9 98 218.9 218.9 0 120.9-98 218.9-218.9 218.9-120.9 0-218.93-98-218.93-218.9 0-120.9 98.03-218.9 218.93-218.9" fill-opacity=".067" fill-rule="evenodd"/>
 <g fill-opacity=".129" fill-rule="evenodd">
  <path d="m256 4.433c-138.94 0-251.57 112.63-251.57 251.57 0 138.94 112.63 251.57 251.57 251.57 138.94 0 251.57-112.63 251.57-251.57 0-138.94-112.63-251.57-251.57-251.57m5.885 38.556c120.9 0 218.9 98 218.9 218.9 0 120.9-98 218.9-218.9 218.9-120.9 0-218.93-98-218.93-218.9 0-120.9 98.03-218.9 218.93-218.9"/>
  <path d="m256 8.356c-136.77 0-247.64 110.87-247.64 247.64 0 136.77 110.87 247.64 247.64 247.64 136.77 0 247.64-110.87 247.64-247.64 0-136.77-110.87-247.64-247.64-247.64m2.942 31.691c120.9 0 218.9 98 218.9 218.9 0 120.9-98 218.9-218.9 218.9-120.9 0-218.93-98-218.93-218.9 0-120.9 98.03-218.9 218.93-218.9"/>
 </g>
 <path d="m253.04 7.859c-135.42 0-245.19 109.78-245.19 245.19 0 135.42 109.78 245.19 245.19 245.19 135.42 0 245.19-109.78 245.19-245.19 0-135.42-109.78-245.19-245.19-245.19zm0 26.297c120.9 0 218.9 98 218.9 218.9 0 120.9-98 218.9-218.9 218.9-120.9 0-218.93-98-218.93-218.9 0-120.9 98.03-218.9 218.93-218.9z" fill="#ffffff" fill-rule="evenodd" stroke="#000000" stroke-opacity=".31" stroke-width="4.904"/>
 <path d="m257.69497 83.354769c-66.81225 0-163.528265 143.753861-163.528265 223.624981 0 95.84553 114.464545 95.83937 163.528265 95.83937 49.06374 0 163.55502.006 163.55502-95.83937 0-79.87112-96.74274-223.624981-163.55502-223.624981zm2.29909 79.104201h9.11609c-33.37206 84.49285-83.65027 106.2698-106.47917 124.73808-6.18873-20.66279-3.32486-53.88675 6.06848-69.96136 31.48078-9.9927 63.64302-28.19051 91.2946-54.77672zm27.37501 3.04753c21.25795 47.55382 23.88464 116.96974-9.1161 194.72627-29.69732 3.85481-55.47387 1.15933-73.03567-15.21134 46.39694-42.7287 65.70548-109.83047 82.15177-179.51493zm27.375 12.16381c63.8384 53.45191 44.1965 99.3661 30.44936 142.99694-1.75776-46.65496-5.72968-96.34212-30.44936-142.99694z" fill="#ffffff"/>
</svg>
