<svg height="512" viewBox="0 0 512 512" width="512" xmlns="http://www.w3.org/2000/svg">
 <path d="m471.95 253.05c0 120.9-98.01 218.9-218.9 218.9-120.9 0-218.9-98.01-218.9-218.9 0-120.9 98.01-218.9 218.9-218.9 120.9 0 218.9 98.01 218.9 218.9" fill="#828282" fill-rule="evenodd"/>
 <path d="m256 1c-140.83 0-255 114.17-255 255 0 140.83 114.17 255 255 255 140.83 0 255-114.17 255-255 0-140.83-114.17-255-255-255m8.827 44.931c120.9 0 218.9 98 218.9 218.9 0 120.9-98 218.9-218.9 218.9-120.9 0-218.93-98-218.93-218.9 0-120.9 98.03-218.9 218.93-218.9" fill-opacity=".067" fill-rule="evenodd"/>
 <g fill-opacity=".129" fill-rule="evenodd">
  <path d="m256 4.433c-138.94 0-251.57 112.63-251.57 251.57 0 138.94 112.63 251.57 251.57 251.57 138.94 0 251.57-112.63 251.57-251.57 0-138.94-112.63-251.57-251.57-251.57m5.885 38.556c120.9 0 218.9 98 218.9 218.9 0 120.9-98 218.9-218.9 218.9-120.9 0-218.93-98-218.93-218.9 0-120.9 98.03-218.9 218.93-218.9"/>
  <path d="m256 8.356c-136.77 0-247.64 110.87-247.64 247.64 0 136.77 110.87 247.64 247.64 247.64 136.77 0 247.64-110.87 247.64-247.64 0-136.77-110.87-247.64-247.64-247.64m2.942 31.691c120.9 0 218.9 98 218.9 218.9 0 120.9-98 218.9-218.9 218.9-120.9 0-218.93-98-218.93-218.9 0-120.9 98.03-218.9 218.93-218.9"/>
 </g>
 <path d="m341.81383 140.85199l18.26986 30.83612-101.95004-58.49339 37.17903 44.0823-28.49829-22.75843-11.00631-4.60219-14.52207 4.99169-8.78331 7.07025-7.26112 5.7784-8.43433 8.80772-22.37269 15.49262-25.81947 22.94731-30.47062 25.82985-27.9574 43.44828 89.17095 47.07369-56.04717 83.71877 155.94329 79.25017c106.99434-30.92192 168.12915-111.05508 174.89922-221.74734l10.65359-51.34141-112.34749-66.32562-15.31001 10.5434" opacity=".25"/>
 <path d="m253.04 7.859c-135.42 0-245.19 109.78-245.19 245.19 0 135.42 109.78 245.19 245.19 245.19 135.42 0 245.19-109.78 245.19-245.19 0-135.42-109.78-245.19-245.19-245.19zm0 26.297c120.9 0 218.9 98 218.9 218.9 0 120.9-98 218.9-218.9 218.9-120.9 0-218.93-98-218.93-218.9 0-120.9 98.03-218.9 218.93-218.9z" fill="#ffffff" fill-rule="evenodd" stroke="#000000" stroke-opacity=".31" stroke-width="4.904"/>
 <g fill="#ffffff" transform="matrix(.91595269 0 0 .91595269 28.339393 34.962527)">
  <path d="m373.04966 243.90548l-124.46321-101.94194-124.53488 101.98612v145.73232c0 3.76367 3.28841 6.78287 7.3579 6.78287h77.83132v-111.75494c0-3.76371 2.3603-6.83421 6.42971-6.80497l66.66457.88627c4.0691.0542 7.39516 2.59866 7.33401 6.36184l-1.80865 111.3118h77.85521c4.06949 0 7.33404-3.01915 7.33402-6.78287z"/>
  <path d="m247.8642 86.174649l-176.626734 144.642511 18.605604 19.41262 158.74369-130.00784 158.70754 130.00784 18.56947-19.41262-176.59059-144.642511-.68642.735086z"/>
  <path d="m375.92249 109.6352h-44.77536l.39016 24.52693 44.3852 37.08389z"/>
 </g>
</svg>
