<svg height="512" viewBox="0 0 512 512" width="512" xmlns="http://www.w3.org/2000/svg" xmlns:xlink="http://www.w3.org/1999/xlink">
 <path d="m471.95 253.05c0 120.9-98.01 218.9-218.9 218.9-120.9 0-218.9-98.01-218.9-218.9 0-120.9 98.01-218.9 218.9-218.9 120.9 0 218.9 98.01 218.9 218.9" fill="#777777" fill-rule="evenodd"/>
 <path id="a" d="m193.53 236.81c-44.902 0-81.72 36.848-81.72 81.75s36.817 81.72 81.72 81.72c44.902 0 81.72-36.817 81.72-81.72v-81.74h-81.71m0 38.25h43.5v43.5c0 24.22-19.28 43.5-43.5 43.5s-43.5-19.28-43.5-43.5 19.28-43.5 43.5-43.5" fill="#ffffff" fill-opacity=".314"/>
 <g fill-rule="evenodd">
  <path d="m256 1c-140.83 0-255 114.17-255 255s114.17 255 255 255 255-114.17 255-255-114.17-255-255-255m8.827 44.931c120.9 0 218.9 98 218.9 218.9s-98 218.9-218.9 218.9-218.93-98-218.93-218.9 98.03-218.9 218.93-218.9" fill-opacity=".067"/>
  <g fill-opacity=".129">
   <path d="m256 4.433c-138.94 0-251.57 112.63-251.57 251.57s112.63 251.57 251.57 251.57 251.57-112.63 251.57-251.57-112.63-251.57-251.57-251.57m5.885 38.556c120.9 0 218.9 98 218.9 218.9s-98 218.9-218.9 218.9-218.93-98-218.93-218.9 98.03-218.9 218.93-218.9"/>
   <path d="m256 8.356c-136.77 0-247.64 110.87-247.64 247.64s110.87 247.64 247.64 247.64 247.64-110.87 247.64-247.64-110.87-247.64-247.64-247.64m2.942 31.691c120.9 0 218.9 98 218.9 218.9s-98 218.9-218.9 218.9-218.93-98-218.93-218.9 98.03-218.9 218.93-218.9"/>
  </g>
  <path d="m253.04 7.859c-135.42 0-245.19 109.78-245.19 245.19 0 135.42 109.78 245.19 245.19 245.19 135.42 0 245.19-109.78 245.19-245.19 0-135.42-109.78-245.19-245.19-245.19zm0 26.297c120.9 0 218.9 98 218.9 218.9s-98 218.9-218.9 218.9-218.93-98-218.93-218.9 98.03-218.9 218.93-218.9z" fill="#ffffff" stroke="#000000" stroke-opacity=".31" stroke-width="4.904"/>
 </g>
 <use height="1" stroke="#ffffff" transform="matrix(-1 0 0 -1 512 512)" width="1" xlink:href="#a"/>
 <path d="m318.19 112.03c-45.15 0-81.75 36.629-81.75 81.78v43.06h-34c-10.677 0-19.286 8.404-19.281 19.06 0 5.514 2.325 10.423 6.03 13.875.29.313.596.613.906.906.348.382.715.742 1.094 1.094.371.4.753.789 1.156 1.156.314.331.631.661.969.969.275.291.551.571.844.844.32.346.655.679 1 1 .29.313.596.613.906.906.348.382.715.742 1.094 1.094.341.368.694.723 1.063 1.063.35.374.714.749 1.094 1.094.266.279.53.55.813.813.32.346.655.679 1 1 .32.346.655.679 1 1 .29.313.596.613.906.906.348.382.715.742 1.094 1.094.371.4.753.789 1.156 1.156.266.279.53.55.813.813.32.346.655.679 1 1 .32.346.655.679 1 1 .29.313.596.613.906.906.348.382.715.742 1.094 1.094.371.4.753.789 1.156 1.156.314.331.631.661.969.969.275.291.551.571.844.844.32.346.655.679 1 1 .29.313.596.613.906.906.348.382.715.742 1.094 1.094.371.4.753.789 1.156 1.156.314.331.631.661.969.969.275.291.551.571.844.844.32.346.655.679 1 1 .29.313.596.613.906.906.348.382.715.742 1.094 1.094.341.368.694.723 1.063 1.063.35.374.714.749 1.094 1.094.266.279.53.55.813.813.32.346.655.679 1 1 .32.346.655.679 1 1 .29.313.596.613.906.906.348.382.715.742 1.094 1.094.371.4.753.789 1.156 1.156.266.279.53.55.813.813.32.346.655.679 1 1 .32.346.655.679 1 1 .29.313.596.613.906.906.348.382.715.742 1.094 1.094.376.406.778.785 1.188 1.156.184.193.34.409.531.594v1.188c-.042 23.806-19.35 43.09-43.16 43.09-8.06 0-10.06-1.063-15.563-1.063-11.566 0-19.281 7.747-19.281 18.406.002 4.786 2.242 9.197 5.75 12.625.055.061.101.127.156.188.07.067.148.121.219.188.321.339.655.679 1 1 .361.381.734.767 1.125 1.125.334.347.672.703 1.031 1.031.268.277.529.548.813.813.325.344.651.675 1 1 .203.215.412.417.625.625.055.061.101.127.156.188.07.067.148.121.219.188.2.212.415.42.625.625.055.061.101.127.156.188.069.066.149.122.219.188.365.385.73.763 1.125 1.125.319.331.627.686.969 1 .35.364.716.72 1.094 1.063.258.266.508.527.781.781.325.344.651.675 1 1 .203.215.412.417.625.625.055.061.101.127.156.188.07.067.148.121.219.188.321.339.655.679 1 1 .361.381.734.767 1.125 1.125.334.347.672.703 1.031 1.031.268.277.529.548.813.813.325.344.651.675 1 1 .203.215.412.417.625.625.055.061.101.127.156.188.07.067.148.121.219.188.321.339.655.679 1 1 .361.381.734.767 1.125 1.125.334.347.672.703 1.031 1.031.268.277.529.548.813.813.325.344.651.675 1 1 .203.215.412.417.625.625.055.061.101.127.156.188.07.067.148.121.219.188.321.339.655.679 1 1 .361.381.734.767 1.125 1.125.319.331.627.686.969 1 .35.364.716.72 1.094 1.063.258.266.508.527.781.781.203.215.412.417.625.625.055.061.101.127.156.188.07.067.148.121.219.188.2.212.415.42.625.625.055.061.101.127.156.188.069.066.149.122.219.188.365.385.73.763 1.125 1.125.319.331.627.686.969 1 .339.353.698.698 1.063 1.031.268.277.529.548.813.813.325.344.651.675 1 1 .203.215.412.417.625.625.055.061.101.127.156.188.07.067.148.121.219.188.321.339.655.679 1 1 .361.381.734.767 1.125 1.125.334.347.672.703 1.031 1.031.268.277.529.548.813.813.325.344.651.675 1 1 .203.215.412.417.625.625.055.061.101.127.156.188.07.067.148.121.219.188.321.339.655.679 1 1 .361.381.734.767 1.125 1.125.334.347.672.703 1.031 1.031.268.277.529.548.813.813.325.344.651.675 1 1 .203.215.412.417.625.625.055.061.101.127.156.188.07.067.148.121.219.188.2.212.415.42.625.625.055.061.101.127.156.188.069.066.149.122.219.188.365.385.73.763 1.125 1.125.319.331.627.686.969 1 .35.364.716.72 1.094 1.063.258.266.508.527.781.781.325.344.651.675 1 1 .203.215.412.417.625.625.055.061.101.127.156.188.07.067.148.121.219.188.321.339.655.679 1 1 .361.381.734.767 1.125 1.125.334.347.672.703 1.031 1.031.268.277.529.548.813.813.325.344.651.675 1 1 .203.215.412.417.625.625.055.061.101.127.156.188.07.067.148.121.219.188.321.339.655.679 1 1 .361.381.734.767 1.125 1.125.334.347.672.703 1.031 1.031.268.277.529.548.813.813.325.344.651.675 1 1 .203.215.412.417.625.625.055.061.101.127.156.188.07.067.148.121.219.188.321.339.655.679 1 1 .361.381.734.767 1.125 1.125.319.331.627.686.969 1 .35.364.716.72 1.094 1.063.258.266.508.527.781.781.203.215.412.417.625.625.055.061.101.127.156.188.07.067.148.121.219.188.2.212.415.42.625.625.055.061.101.127.156.188.069.066.149.122.219.188.365.385.73.763 1.125 1.125.319.331.627.686.969 1 .339.353.698.698 1.063 1.031.268.277.529.548.813.813.071.075.147.145.219.219 2.797.106 5.583.188 8.406.188 120.9 0 218.91-98.01 218.91-218.91 0-2.655-.063-5.305-.156-7.938-.095-.092-.184-.189-.281-.281-.06-.065-.126-.123-.188-.188-.016-.015-.046-.016-.063-.031-.245-.257-.491-.503-.75-.75-.064-.07-.122-.15-.188-.219-.069-.064-.149-.124-.219-.188-.194-.199-.392-.401-.594-.594-.064-.07-.122-.15-.188-.219-.043-.04-.081-.085-.125-.125-.213-.221-.433-.443-.656-.656-.069-.075-.148-.145-.219-.219-.022-.02-.041-.042-.063-.063-.232-.243-.474-.485-.719-.719-.321-.347-.655-.671-1-1-.321-.347-.655-.671-1-1-.06-.065-.126-.123-.188-.188-.016-.015-.046-.016-.063-.031-.245-.257-.491-.503-.75-.75-.064-.07-.122-.15-.188-.219-.069-.064-.149-.124-.219-.188-.194-.199-.392-.401-.594-.594-.064-.07-.122-.15-.188-.219-.054-.05-.102-.107-.156-.156-.203-.21-.412-.422-.625-.625-.069-.075-.148-.145-.219-.219-.022-.02-.041-.042-.063-.063-.232-.243-.474-.485-.719-.719-.321-.347-.655-.671-1-1-.321-.347-.655-.671-1-1-.06-.065-.126-.123-.188-.188-.016-.015-.046-.016-.063-.031-.245-.257-.491-.503-.75-.75-.064-.07-.122-.15-.188-.219-.069-.064-.149-.124-.219-.188-.194-.199-.392-.401-.594-.594-.064-.07-.122-.15-.188-.219-.054-.05-.102-.107-.156-.156-.203-.21-.412-.422-.625-.625-.069-.075-.148-.145-.219-.219-.022-.02-.041-.042-.063-.063-.232-.243-.474-.485-.719-.719-.317-.343-.659-.675-1-1-.321-.347-.655-.671-1-1-.321-.347-.655-.671-1-1-.06-.065-.126-.123-.188-.188-.016-.015-.046-.016-.063-.031-.245-.257-.491-.503-.75-.75-.064-.07-.122-.15-.188-.219-.054-.05-.102-.107-.156-.156-.203-.21-.412-.422-.625-.625-.313-.338-.664-.679-1-1-.069-.075-.148-.145-.219-.219-.022-.02-.041-.042-.063-.063-.232-.243-.474-.485-.719-.719-.321-.347-.655-.671-1-1-.321-.347-.655-.671-1-1-.06-.065-.126-.123-.188-.188-.016-.015-.046-.016-.063-.031-.245-.257-.491-.503-.75-.75-.064-.07-.122-.15-.188-.219-.069-.064-.149-.124-.219-.188-.194-.199-.392-.401-.594-.594-.064-.07-.122-.15-.188-.219-.054-.05-.102-.107-.156-.156-.203-.21-.412-.422-.625-.625-.069-.075-.148-.145-.219-.219-.022-.02-.041-.042-.063-.063-.232-.243-.474-.485-.719-.719-.321-.347-.655-.671-1-1-.321-.347-.655-.671-1-1-.06-.065-.126-.123-.188-.188-.016-.015-.046-.016-.063-.031-.245-.257-.491-.503-.75-.75-.064-.07-.122-.15-.188-.219-.069-.064-.149-.124-.219-.188-.194-.199-.392-.401-.594-.594-.064-.07-.122-.15-.188-.219-.054-.05-.102-.107-.156-.156-.203-.21-.412-.422-.625-.625-.069-.075-.148-.145-.219-.219-.022-.02-.041-.042-.063-.063-.232-.243-.474-.485-.719-.719-.321-.347-.655-.671-1-1-.321-.347-.655-.671-1-1-.06-.065-.126-.123-.188-.188-.016-.015-.046-.016-.063-.031-.245-.257-.491-.503-.75-.75-.064-.07-.122-.15-.188-.219-.069-.064-.149-.124-.219-.188-.194-.199-.392-.401-.594-.594-.064-.07-.122-.15-.188-.219-.054-.05-.102-.107-.156-.156-.203-.21-.412-.422-.625-.625-.313-.338-.664-.679-1-1-.069-.075-.148-.145-.219-.219-.022-.02-.041-.042-.063-.063-.232-.243-.474-.485-.719-.719-.321-.347-.655-.671-1-1-.321-.347-.655-.671-1-1-.06-.065-.126-.123-.188-.188-.016-.015-.046-.016-.063-.031-.245-.257-.491-.503-.75-.75-.064-.07-.122-.15-.188-.219-.048-.045-.108-.081-.156-.125-.208-.216-.407-.448-.625-.656-.313-.338-.664-.679-1-1-.069-.075-.148-.145-.219-.219-.022-.02-.041-.042-.063-.063-.232-.243-.474-.485-.719-.719-.321-.347-.655-.671-1-1-.321-.347-.655-.671-1-1-.06-.065-.126-.123-.188-.188-.016-.015-.046-.016-.063-.031-.245-.257-.491-.503-.75-.75-.064-.07-.122-.15-.188-.219-.069-.064-.149-.124-.219-.188-.194-.199-.392-.401-.594-.594-.064-.07-.122-.15-.188-.219-.054-.05-.102-.107-.156-.156-.203-.21-.412-.422-.625-.625-.069-.075-.148-.145-.219-.219-.022-.02-.041-.042-.063-.063-.232-.243-.474-.485-.719-.719-.321-.347-.655-.671-1-1-.321-.347-.655-.671-1-1-.06-.065-.126-.123-.188-.188-.016-.015-.046-.016-.063-.031-.245-.257-.491-.503-.75-.75-.064-.07-.122-.15-.188-.219-.069-.064-.149-.124-.219-.188-.194-.199-.392-.401-.594-.594-.064-.07-.122-.15-.188-.219-.054-.05-.102-.107-.156-.156-.203-.21-.412-.422-.625-.625-.069-.075-.148-.145-.219-.219-.022-.02-.041-.042-.063-.063-.232-.243-.474-.485-.719-.719-.317-.343-.659-.675-1-1-.321-.347-.655-.671-1-1-.06-.065-.126-.123-.188-.188-.016-.015-.046-.016-.063-.031-.245-.257-.491-.503-.75-.75-.064-.07-.122-.15-.188-.219-.069-.064-.149-.124-.219-.188-.194-.199-.392-.401-.594-.594-.064-.07-.122-.15-.188-.219-.054-.05-.102-.107-.156-.156-.203-.21-.412-.422-.625-.625-.313-.338-.664-.679-1-1-.069-.075-.148-.145-.219-.219-.022-.02-.041-.042-.063-.063-.232-.243-.474-.485-.719-.719-.321-.347-.655-.671-1-1-.321-.347-.655-.671-1-1-.06-.065-.126-.123-.188-.188-.016-.015-.046-.016-.063-.031-.245-.257-.491-.503-.75-.75-.064-.07-.122-.15-.188-.219-.069-.064-.149-.124-.219-.188-.194-.199-.392-.401-.594-.594-.064-.07-.122-.15-.188-.219-.043-.04-.081-.085-.125-.125-.213-.221-.433-.443-.656-.656-.069-.075-.148-.145-.219-.219-.022-.02-.041-.042-.063-.063-.232-.243-.474-.485-.719-.719-.321-.347-.655-.671-1-1-.321-.347-.655-.671-1-1-.06-.065-.126-.123-.188-.188-.016-.015-.046-.016-.063-.031-.245-.257-.491-.503-.75-.75-.064-.07-.122-.15-.188-.219-.069-.064-.149-.124-.219-.188-.194-.199-.392-.401-.594-.594-.064-.07-.122-.15-.188-.219-.054-.05-.102-.107-.156-.156-.203-.21-.412-.422-.625-.625-.069-.075-.148-.145-.219-.219-.022-.02-.041-.042-.063-.063-.232-.243-.474-.485-.719-.719-.321-.347-.655-.671-1-1-.321-.347-.655-.671-1-1-.06-.065-.126-.123-.188-.188-.016-.015-.046-.016-.063-.031-.245-.257-.491-.503-.75-.75-.064-.07-.122-.15-.188-.219-.069-.064-.149-.124-.219-.188-.194-.199-.392-.401-.594-.594-.064-.07-.122-.15-.188-.219-.054-.05-.102-.107-.156-.156-.203-.21-.412-.422-.625-.625-.313-.338-.664-.679-1-1-.069-.075-.148-.145-.219-.219-.022-.02-.041-.042-.063-.063-.232-.243-.474-.485-.719-.719-.321-.347-.655-.671-1-1-.321-.347-.655-.671-1-1-.06-.065-.126-.123-.188-.188-.016-.015-.046-.016-.063-.031-.245-.257-.491-.503-.75-.75-.064-.07-.122-.15-.188-.219-.054-.05-.102-.107-.156-.156-.203-.21-.412-.422-.625-.625-.313-.338-.664-.679-1-1-.069-.075-.148-.145-.219-.219-.022-.02-.041-.042-.063-.063-.232-.243-.474-.485-.719-.719-.321-.347-.655-.671-1-1-.321-.347-.655-.671-1-1-.06-.065-.126-.123-.188-.188-.016-.015-.046-.016-.063-.031-.245-.257-.491-.503-.75-.75-.064-.07-.122-.15-.188-.219-.069-.064-.149-.124-.219-.188-.194-.199-.392-.401-.594-.594-.064-.07-.122-.15-.188-.219-.054-.05-.102-.107-.156-.156-.203-.21-.412-.422-.625-.625-.069-.075-.148-.145-.219-.219-.022-.02-.041-.042-.063-.063-.232-.243-.474-.485-.719-.719-.321-.347-.655-.671-1-1-.321-.347-.655-.671-1-1-.06-.065-.126-.123-.188-.188-.016-.015-.046-.016-.063-.031-.245-.257-.491-.503-.75-.75-.064-.07-.122-.15-.188-.219-.069-.064-.149-.124-.219-.188-.194-.199-.392-.401-.594-.594-.064-.07-.122-.15-.188-.219-.054-.05-.102-.107-.156-.156-.203-.21-.412-.422-.625-.625-.069-.075-.148-.145-.219-.219-.022-.02-.041-.042-.063-.063-.232-.243-.474-.485-.719-.719-.317-.343-.659-.675-1-1-.321-.347-.655-.671-1-1-.06-.065-.126-.123-.188-.188-.016-.015-.046-.016-.063-.031-.245-.257-.491-.503-.75-.75-.064-.07-.122-.15-.188-.219-.069-.064-.149-.124-.219-.188-.194-.199-.392-.401-.594-.594-.064-.07-.122-.15-.188-.219-.054-.05-.102-.107-.156-.156-.203-.21-.412-.422-.625-.625-.313-.338-.664-.679-1-1-.069-.075-.148-.145-.219-.219-.022-.02-.041-.042-.063-.063-.232-.243-.474-.485-.719-.719-.321-.347-.655-.671-1-1-.321-.347-.655-.671-1-1-.06-.065-.126-.123-.188-.188-.016-.015-.046-.016-.063-.031-.245-.257-.491-.503-.75-.75-.064-.07-.122-.15-.188-.219-.069-.064-.149-.124-.219-.188-.194-.199-.392-.401-.594-.594-.064-.07-.122-.15-.188-.219-.043-.04-.081-.085-.125-.125-.213-.221-.433-.443-.656-.656-.069-.075-.148-.145-.219-.219-.022-.02-.041-.042-.063-.063-.232-.243-.474-.485-.719-.719-.321-.347-.655-.671-1-1-.321-.347-.655-.671-1-1-.06-.065-.126-.123-.188-.188-.016-.015-.046-.016-.063-.031-.245-.257-.491-.503-.75-.75-.064-.07-.122-.15-.188-.219-.069-.064-.149-.124-.219-.188-.194-.199-.392-.401-.594-.594-.064-.07-.122-.15-.188-.219-.054-.05-.102-.107-.156-.156-.203-.21-.412-.422-.625-.625-.069-.075-.148-.145-.219-.219-.022-.02-.041-.042-.063-.063-.232-.243-.474-.485-.719-.719-.321-.347-.655-.671-1-1-3.047-3.298-7.252-5.79-11.875-7-6.341-1.658-11.212-2.438-18.06-2.438" fill-opacity=".235"/>
 <path d="m318.44 111.66c-45.15 0-81.75 36.597-81.75 81.75v43.47h-34.25c-10.677 0-19.286 8.404-19.281 19.06 0 10.592 8.53 19 19.09 19h28.344c3.366 0 6.094 2.734 6.094 6.094v37.5c-.042 23.806-19.35 43.09-43.16 43.09-8.06 0-10.06-1.063-15.563-1.063-11.566 0-19.281 7.747-19.281 18.406.003 8.818 7.535 16.393 16.781 18.813 6.341 1.658 11.212 2.438 18.06 2.438 45.15 0 81.78-36.597 81.78-81.75v-43.47h34.22c10.677 0 19.317-8.404 19.313-19.06 0-10.592-8.53-19-19.09-19h-28.375c-3.366 0-6.094-2.734-6.094-6.094v-37.5c.042-23.806 19.35-43.09 43.16-43.09 8.06 0 10.06 1.063 15.563 1.063 11.566 0 19.313-7.747 19.313-18.406-.003-8.818-7.566-16.424-16.813-18.844-6.341-1.658-11.212-2.406-18.06-2.406" fill="#ffffff"/>
</svg>
