<svg height="512" viewBox="0 0 512 512" width="512" xmlns="http://www.w3.org/2000/svg">
 <path d="m471.95 253.05c0 120.9-98.01 218.9-218.9 218.9-120.9 0-218.9-98.01-218.9-218.9 0-120.9 98.01-218.9 218.9-218.9 120.9 0 218.9 98.01 218.9 218.9" fill="#878787" fill-rule="evenodd"/>
 <path d="m256 1c-140.83 0-255 114.17-255 255 0 140.83 114.17 255 255 255 140.83 0 255-114.17 255-255 0-140.83-114.17-255-255-255m8.827 44.931c120.9 0 218.9 98 218.9 218.9 0 120.9-98 218.9-218.9 218.9-120.9 0-218.93-98-218.93-218.9 0-120.9 98.03-218.9 218.93-218.9" fill-opacity=".067" fill-rule="evenodd"/>
 <g fill-opacity=".129" fill-rule="evenodd">
  <path d="m256 4.433c-138.94 0-251.57 112.63-251.57 251.57 0 138.94 112.63 251.57 251.57 251.57 138.94 0 251.57-112.63 251.57-251.57 0-138.94-112.63-251.57-251.57-251.57m5.885 38.556c120.9 0 218.9 98 218.9 218.9 0 120.9-98 218.9-218.9 218.9-120.9 0-218.93-98-218.93-218.9 0-120.9 98.03-218.9 218.93-218.9"/>
  <path d="m256 8.356c-136.77 0-247.64 110.87-247.64 247.64 0 136.77 110.87 247.64 247.64 247.64 136.77 0 247.64-110.87 247.64-247.64 0-136.77-110.87-247.64-247.64-247.64m2.942 31.691c120.9 0 218.9 98 218.9 218.9 0 120.9-98 218.9-218.9 218.9-120.9 0-218.93-98-218.93-218.9 0-120.9 98.03-218.9 218.93-218.9"/>
 </g>
 <path d="m282.9037 121.80744l-.55261-3.77113-3.79025-6.42613-8.33826-4.45264-4.17522 8.18527h-3.336l-37.533 12.662-1.113.934-4.193-4.193-4.0036 20.69677-.83524 50.66517-41.96751 106.2007-19.01562 20.7936-13.64627 10.12273-12.45065 15.88772.43048 40.77512 176.23941 76.00019c80.73339-26.72052 172.01889-70.11258 169.53-213.31l-3.92-52.36022-187.43609-99.51043 7.87268 24.20879" opacity=".25"/>
 <path d="m253.04 7.859c-135.42 0-245.19 109.78-245.19 245.19 0 135.42 109.78 245.19 245.19 245.19 135.42 0 245.19-109.78 245.19-245.19 0-135.42-109.78-245.19-245.19-245.19zm0 26.297c120.9 0 218.9 98 218.9 218.9 0 120.9-98 218.9-218.9 218.9-120.9 0-218.93-98-218.93-218.9 0-120.9 98.03-218.9 218.93-218.9z" fill="#ffffff" fill-rule="evenodd" stroke="#000000" stroke-opacity=".31" stroke-width="4.904"/>
 <path d="m262.60952 98.577295c-2.02185-.003-4.13079.08103-6.33003.256499-55.58324 4.476426-40.84223 63.197286-41.66716 82.861026-1.0151 14.37994-3.93066 25.71234-13.8206 39.77048-11.61926 13.81733-27.97779 36.18084-35.72724 59.46047-3.65744 10.98698-5.39783 22.1857-3.79053 32.78451-.50367.45061-.98279.92327-1.4386 1.40991-3.41137 3.64193-5.93205 8.0547-8.74065 11.02576-2.62399 2.61751-6.36255 3.61313-10.4709 5.08706-4.10993 1.47464-8.62232 3.6487-11.36136 8.9047 0 0 0 .001-.001.001-.003.006-.0119.0175-.0119.0292l0 0c-2.47952 4.63115-1.74238 9.96432-.98512 14.90548.75725 4.94103 1.52388 9.61006.506 12.77787-3.2527 8.89058-3.66804 15.04036-1.37822 19.50116 2.29472 4.47012 7.01278 6.44313 12.34527 7.55685 10.66491 2.22745 25.10804 1.674 36.49091 7.70702l.97837-1.84609-.96823 1.85157c12.18589 6.37119 24.54002 8.63407 34.39637 6.38278 7.14611-1.6322 12.94698-5.88727 15.92609-12.43469 7.7093-.035 16.1689-3.30305 29.72012-4.04918 9.19313-.74051 20.67704 3.26454 33.88629 2.53113.34511 1.43306.84498 2.81144 1.52902 4.12133.006.0175.0119.0292.0233.0408 5.12064 10.23953 14.63509 14.92303 24.77458 14.12281 10.15285-.80127 20.9474-6.78782 29.67313-17.17204l-1.59962-1.34428 1.61186 1.32959c8.31695-10.08465 22.1217-14.26632 31.27537-19.78728 4.5768-2.76051 8.29055-6.21699 8.57753-11.23742.28682-5.01798-2.65918-10.64136-9.43336-18.16102 0 0-.001-.001-.001-.001-.001-.003-.006-.006-.006-.0119-2.22577-2.51531-3.28756-7.1771-4.42867-12.14151-1.14032-4.96138-2.41313-10.31333-6.48638-13.78171l0 0c-.0119-.006-.0175-.0119-.0233-.0233 0 0 0 0 0 0-1.62107-1.41254-3.30568-2.37126-5.00219-3.01542 5.66314-16.79528 3.44116-33.51926-2.27537-48.63198-7.01582-18.54751-19.2643-34.70877-28.61874-45.76449-10.47074-13.20722-20.71202-25.74636-20.51025-44.26636.31187-28.26555 3.1091-80.683018-46.62965-80.750932zm6.73367 43.545725c2.82241 0 5.23292.82731 7.70905 2.62456 2.51543 1.82569 4.32766 4.1112 5.78824 7.30286 1.43353 3.11057 2.12323 6.15339 2.19091 9.76431 0 .0951 0 .17547.0292.27049.0233 3.70553-.60861 6.85661-2.0151 10.07531-.80254 1.83665-1.72418 3.37808-2.82735 4.71269-.37426-.17955-.76344-.35268-1.16684-.51882l0 0c-2.79618-1.19762-4.94121-1.95977-6.72901-2.58008.64807-.77901 1.18765-1.70286 1.66217-2.85781.7168-1.74454 1.06844-3.44862 1.13606-5.47717 0-.081.0233-.14923.0233-.24309.0408-1.9474-.21627-3.61085-.78442-5.31487-.59507-1.78518-1.35239-3.06989-2.4478-4.13831-1.09542-1.06844-2.19091-1.55526-3.50272-1.59584-.0613-.003-.12296-.003-.18363-.003-1.23393.003-2.3054.42672-3.41394 1.3549-1.1631.97376-2.02861 2.21789-2.74541 3.94896-.71674 1.73108-1.06836 3.44857-1.13594 5.49075-.0119.081-.0119.14925-.0119.23028-.0233 1.12247.0467 2.1508.22094 3.14933-2.52487-1.25807-4.90418-2.11583-7.13724-2.64729-.12771-.9656-.20054-1.9621-.22444-3.00396l0-.28389c-.0408-3.69206.5678-6.8566 1.98805-10.07532 1.42001-3.2187 3.17813-5.53133 5.65298-7.41111 2.47486-1.87985 4.90915-2.74534 7.7898-2.7724.0466 0 .0903 0 .13468 0zm-38.63023 3.05851c1.87233.003 3.54773.63 5.28067 2.01386 1.87983 1.5011 3.29985 3.42145 4.48994 6.12629 1.19009 2.70477 1.82574 5.40955 2.00151 8.60126l0 .0292c.0851 1.34043.0746 2.60223-.0292 3.82421-.37016.10546-.73318.21918-1.08866.34161-2.01881.69488-3.79804 1.64194-5.34869 2.66595.15156-1.07118.1743-2.15796.0583-3.3697-.0175-.0676-.0175-.12177-.0175-.18945-.16264-1.6093-.50017-2.96169-1.06843-4.32759-.60854-1.42001-1.28476-2.42077-2.17732-3.19172-.8089-.69854-1.57321-1.01934-2.41405-1.01299-.0869 0-.17489.003-.2635.0119-.94665.081-1.73107.54098-2.47486 1.44701-.74384.90608-1.23066 2.02861-1.5823 3.51619-.35152 1.48762-.44655 2.94827-.2973 4.62524 0 .0676.0119.12178.0119.18888.16264 1.62288.48676 2.97525 1.06838 4.34123.59507 1.40649 1.28475 2.40724 2.17732 3.17808.14981.12948.2973.24542.44478.34859-.9284.71453-1.37174 1.04395-2.13255 1.603-.48792.35793-1.06913.78437-1.74454 1.28227-1.47305-1.37991-2.62222-3.11419-3.62699-5.39772-1.1901-2.70478-1.82575-5.40962-2.0151-8.60121l0-.0291c-.17545-3.19166.13527-5.93707 1.01434-8.77703.87904-2.84002 2.05567-4.89568 3.75963-6.58624 1.70401-1.69044 3.42157-2.54242 5.49074-2.65061.16149-.006.3218-.0119.48036-.0119zm17.56886 22.14252c4.35173-.0175 9.58843 1.40986 15.92819 5.48602 3.89418 2.5324 6.9243 2.74402 13.90174 5.73246l.0119.003.006.003c3.35715 1.3774 5.32764 3.17282 6.29032 5.06338.96274 1.89064.98624 3.94087.18013 6.09762-1.6115 4.3136-6.75552 8.85322-13.97402 11.10737l-.006.003-.006.003c-3.51969 1.14358-6.58888 3.66886-10.20718 5.73793-3.61821 2.069-7.7125 3.73771-13.27963 3.41568 0-.00006 0 0 0 0-4.73939-.27632-7.57241-1.88521-10.13407-3.94396-2.56166-2.05875-4.79401-4.64518-8.06279-6.5646l-.006-.006-.006-.006c-5.26527-2.97597-8.13981-6.41806-9.04197-9.40207-.90224-2.984-.0583-5.53108 2.55681-7.48886 2.93709-2.20112 4.9773-3.69836 6.33639-4.69574 1.35011-.99072 1.91179-1.36218 2.34177-1.77503.001-.003.003-.003.006-.006 0 0 .001-.003.001-.003 2.20681-2.08888 5.72468-5.89469 11.02743-7.72002 1.82517-.62824 3.86171-1.03358 6.14116-1.04261zm30.43049 17.99737c-1.87791.11258-3.84467 1.07882-6.13479 2.35734-2.29006 1.27853-4.86537 2.91406-7.65624 4.52464-5.5817 3.22115-12.00704 6.30168-18.39251 6.30168-6.39538 0-11.505-2.95363-15.33737-5.99063-1.91622-1.51853-3.49778-3.04806-4.76132-4.23129-.63174-.59169-1.17959-1.09589-1.6909-1.48978-.51125-.39408-.92725-.78437-1.78261-.78437l-.0408 1.79742c-.0613.60143-.12415.58295-.0991.59928.0408.0291.23841.0945.46985.27339.376.28915.89756.76157 1.51678 1.34137 1.23842 1.15979 2.88403 2.75426 4.91001 4.35983 4.05205 3.21102 9.68726 6.50538 16.81575 6.50538 7.13841 0 13.89218-3.33651 19.58265-6.62033 2.84516-1.642 5.42926-3.28097 7.62664-4.50773 2.19725-1.22676 4.04597-1.99602 5.11626-2.05986l-.14165-2.37599zm6.34525 8.54244c4.7412 18.68964 15.76864 45.68458 22.85627 58.85863 3.76733 6.98952 11.26238 21.83972 14.50062 39.73159 2.05187-.063 4.31121.23492 6.73069.85408 8.46654-21.94921-7.17957-45.59147-14.33413-52.17568-2.88851-2.80282-3.02731-4.05861-1.59536-3.99926 7.7624 6.86454 17.95273 20.67132 21.66024 36.25551 1.69055 7.10612 2.051 14.57663.23668 21.94933.88743.36842 1.78878.76954 2.70221 1.20193 13.59045 6.61782 18.61659 12.3726 16.19996 20.22669-.7959-.0292-1.57885-.0233-2.34258-.006-.0711.001-.14165.003-.21335.006 1.96803-6.22574-2.3918-10.81752-14.00949-16.07398-12.04981-5.30136-21.65184-4.77392-23.27465 5.97757-.10383.56312-.18771 1.13728-.25067 1.71923-.90025.31247-1.8054.71173-2.71283 1.20828-5.65817 3.09601-8.74646 8.71361-10.46413 15.60362-1.71627 6.88447-2.20834 15.20737-2.68199 24.56326 0 .001 0 .003 0 .006-.28972 4.70448-2.22354 11.06738-4.18524 17.80687-19.73941 14.08043-47.13594 20.18084-70.39654 4.30644-1.57642-2.49369-3.38473-4.96441-5.24609-7.40125-1.18858-1.55631-2.40963-3.10288-3.62351-4.62788 2.38782 0 4.41748-.38941 6.05785-1.13297 2.03992-.92496 3.47317-2.41062 4.18227-4.31797 1.41814-3.8146-.006-9.19576-4.54614-15.34081-4.53968-6.1446-12.22827-13.07932-23.52615-20.00816 0 0-.001 0-.001-.001-8.30011-5.16383-12.94197-11.49304-15.11469-18.36504-2.17289-6.87265-1.86824-14.3041-.19354-21.64124 3.21439-14.08339 11.47335-27.78063 16.74304-36.37641 1.41874-1.0439.50717 1.93771-5.33475 12.78561-5.23542 9.91798-15.02305 32.80656-1.62206 50.6733.35793-12.71486 3.39463-25.68243 8.49219-37.81206 7.42499-16.83078 22.95532-46.0175 24.18879-69.27968.636.46171 2.82137 1.93639 3.79519 2.49014.001.003.003.003.006.003 2.84904 1.67781 4.98882 4.13027 7.76017 6.35755 2.77684 2.23165 6.24586 4.15919 11.48688 4.46459l0 0c6.11731.35385 10.77963-1.54073 14.59948-3.72505 3.81412-2.18094 6.86109-4.59459 9.74781-5.53676.003-.003.006-.003.0119-.003 6.09987-1.90753 10.9499-5.28376 13.70989-9.22165zm38.74348 106.99782c2.47073-.0119 5.46366.81229 8.73984 2.27795 8.8176 4.07068 11.57648 7.55987 9.16924 12.68542-2.02855 3.86788-10.71097 10.02127-16.66149 8.39845-6.0722-1.56885-9.034-10.31881-8.04671-16.93192.52874-4.49082 3.06883-6.41241 6.79912-6.42984zm-9.97644 12.08493c.49844 8.08704 4.49957 16.33486 11.57566 18.11992 7.74345 2.04026 18.90789-4.60374 23.62163-10.02286.93995-.035 1.85886-.084 2.75129-.10546 4.13482-.10027 7.60285.13587 11.14626 3.23514l.0119.0119.0119.0119c2.72297 2.30697 4.01729 6.66674 5.13994 11.5507 1.12253 4.88403 2.02021 10.20328 5.38675 13.99263l.006.006.003.006c6.4722 7.18213 8.55259 12.03682 8.37555 15.13527-.17722 3.09873-2.42065 5.39893-6.56333 7.89765-8.28187 4.99512-22.95609 9.3388-32.32893 20.69194-8.13858 9.68545-18.06268 15.00481-26.80274 15.69456-8.74001.68974-16.2806-2.93779-20.72624-11.86049l-.0119-.0233-.0119-.0233c-2.75795-5.24631-1.60906-13.52585.71423-22.2591 2.32329-8.73323 5.66133-17.70042 6.10816-24.98882l0-.0119 0-.0119c.47278-9.3384.99539-17.49358 2.56405-23.78595 1.56867-6.29244 4.03868-10.55404 8.41524-12.9488.20346-.1114.40633-.21628.60732-.31595zm-142.12369.61023c.65326.001 1.34452.0583 2.08102.16906 4.95404.75048 9.27416 4.21432 13.43644 9.8598 4.16226 5.64558 8.03515 13.35213 12.01641 21.90076l.006.0119.003.0119c3.19934 6.67747 9.9505 14.01985 15.6717 21.51013 5.72113 7.49032 10.149 15.00887 9.5724 20.76347l-.001.0292-.001.0292c-.74588 9.81466-6.28228 15.1577-14.78123 17.09893-8.49647 1.94058-20.01458.0119-31.51916-6.00632-.003 0-.006 0-.0119 0-12.72827-6.74141-27.87-6.0719-37.58302-8.10045-4.85785-1.01462-8.02759-2.54003-9.4824-5.37421-1.45486-2.83402-1.48739-7.77844 1.6043-16.20907l.0119-.035.0119-.035c1.5289-4.71614.39757-9.87641-.34511-14.71992-.74233-4.84351-1.10534-9.24904.54855-12.3198l.006-.0119.006-.0175c2.11751-4.08176 5.22347-5.54083 9.07834-6.92382 3.85483-1.38305 8.42586-2.46919 12.03543-6.08664l.0175-.0175.0175-.0175c3.33691-3.52021 5.84343-7.93279 8.77702-11.06465 2.47514-2.64251 4.95215-4.39387 8.68572-4.41981.0408 0 .0869 0 .13053 0z" fill="#ffffff" overflow="visible"/>
</svg>
