<svg height="512" viewBox="0 0 512 512" width="512" xmlns="http://www.w3.org/2000/svg">
 <g fill-rule="evenodd">
  <path d="m471.95 253.05c0 120.9-98.01 218.9-218.9 218.9-120.9 0-218.9-98.01-218.9-218.9 0-120.9 98.01-218.9 218.9-218.9 120.9 0 218.9 98.01 218.9 218.9" fill="#777777"/>
  <path d="m323.06 126.97c-.242.009-.483.04-.719.094-10.155 2.547-23.15 8.341-31.719 12.188-1.212-.2-2.303.063-3.344.281-1.708.358-3.597.983-5.813 1.875-4.431 1.783-10.153 4.609-16.969 8.219-13.632 7.22-31.552 17.651-50.844 29.31-38.583 23.323-82.62 51.52-108.34 68.25-1.612 1.088-2.164 3.205-1.281 4.938.305.599.757 1.083 1.281 1.438.276.396.614.74 1 1 .276.396.614.74 1 1 .277.397.612.74 1 1 .262.374.576.685.938.938.281.42.628.759 1.031 1.031.275.394.616.74 1 1 .276.396.614.74 1 1 .276.396.614.74 1 1 .277.397.612.74 1 1 .262.374.576.685.938.938.273.407.612.731 1 1 .28.416.631.761 1.031 1.031.276.396.614.74 1 1 .276.396.614.74 1 1 .277.397.612.74 1 1 .262.376.574.683.938.938.281.42.628.759 1.031 1.031.278.405.608.735 1 1 .275.394.616.74 1 1 .276.396.614.74 1 1 .277.397.612.74 1 1 .262.376.574.683.938.938.269.402.618.733 1 1 .281.42.628.759 1.031 1.031.275.394.616.74 1 1 .276.396.614.74 1 1 .276.396.614.74 1 1 .277.397.612.739 1 1 .262.374.576.685.938.938.273.407.612.731 1 1 .28.416.631.761 1.031 1.031.276.396.614.74 1 1 .276.396.614.74 1 1 .277.397.612.739 1 1 .262.376.574.683.938.938.273.407.612.731 1 1 .28.416.631.761 1.031 1.031.275.394.616.74 1 1 .276.396.614.74 1 1 .277.397.612.739 1 1 .262.376.574.683.938.938.281.42.628.759 1.031 1.031.278.405.608.735 1 1 .275.394.616.74 1 1 .276.396.614.74 1 1 .277.397.612.739 1 1 .268.385.596.712.969.969.265.387.598.709.969.969.04.06.082.131.125.188-7.93 11.574-16.05 24.05-23.875 37.28-.998 1.69-.571 3.853 1 5.03.03.023.063.041.094.063.237.359.545.666.906.938.049.037.106.06.156.094.23.33.506.653.844.906.049.037.106.06.156.094.23.33.506.653.844.906.044.033.081.063.125.094.231.335.534.65.875.906.044.033.081.063.125.094.231.335.502.619.844.875.037.027.088.037.125.063.236.352.519.67.875.938.03.023.063.041.094.063.237.359.545.666.906.938.038.028.087.036.125.063.235.351.52.671.875.938.049.037.106.06.156.094.23.33.506.653.844.906.044.033.081.063.125.094.231.335.534.65.875.906.044.033.081.063.125.094.231.335.502.65.844.906.061.045.125.084.188.125.226.32.484.597.813.844.03.023.063.041.094.063.237.359.545.666.906.938.03.023.063.041.094.063.237.359.545.666.906.938.049.037.106.06.156.094.23.33.506.653.844.906.049.037.106.06.156.094.23.33.506.653.844.906.044.033.081.063.125.094.231.335.502.65.844.906.061.045.125.084.188.125.226.32.484.597.813.844.03.023.063.041.094.063.237.359.545.666.906.938.03.023.063.041.094.063.237.359.545.666.906.938.049.037.106.06.156.094.23.33.506.653.844.906.049.037.106.06.156.094.23.33.506.653.844.906.044.033.081.063.125.094.231.335.534.65.875.906.044.033.081.063.125.094.231.335.502.619.844.875.037.027.088.037.125.063.236.352.519.67.875.938.03.023.063.041.094.063.237.359.545.666.906.938.049.037.106.06.156.094.104.15.217.302.344.438-.705 1.488-1.421 2.91-1.906 3.75-.968 1.711-.503 3.884 1.094 5.03.031.023.062.041.094.063.245.353.54.674.906.938.031.023.062.041.094.063.245.353.54.643.906.906.012.008.019.023.031.031.249.369.589.696.969.969.012.008.019.023.031.031.249.369.589.696.969.969.012.008.019.023.031.031.249.369.589.696.969.969.012.008.019.023.031.031.249.369.558.696.938.969.038.027.086.037.125.063.243.346.514.678.875.938.031.023.062.041.094.063.245.353.54.674.906.938.027.02.066.013.094.031.243.348.544.677.906.938.012.008.019.023.031.031.249.369.589.696.969.969.012.008.019.023.031.031.249.369.589.696.969.969.012.008.019.023.031.031.249.369.558.696.938.969.031.022.062.041.094.063.245.354.539.673.906.938.031.023.062.041.094.063.245.353.54.674.906.938.039.028.085.036.125.063.24.339.521.652.875.906.012.008.019.023.031.031.249.369.589.696.969.969.012.008.019.023.031.031.249.369.589.696.969.969.012.008.019.023.031.031.249.369.558.696.938.969.031.022.062.041.094.063.245.354.539.673.906.938.031.023.062.041.094.063.245.353.54.674.906.938.031.023.062.041.094.063.245.353.54.643.906.906.012.008.019.023.031.031.249.369.589.696.969.969.012.008.019.023.031.031.249.369.589.696.969.969.012.008.019.023.031.031.249.369.589.696.969.969.012.008.019.023.031.031.249.369.558.696.938.969.038.027.086.037.125.063.243.346.514.678.875.938.031.023.062.041.094.063.245.353.54.643.906.906.012.008.019.023.031.031.249.369.589.696.969.969.012.008.019.023.031.031.249.369.589.696.969.969.012.008.019.023.031.031.249.369.589.696.969.969.012.008.019.023.031.031.249.369.558.696.938.969.038.027.086.037.125.063.243.346.514.678.875.938.031.023.062.041.094.063.245.353.54.674.906.938.027.02.066.013.094.031.243.348.544.677.906.938.012.008.019.023.031.031.249.369.589.696.969.969.012.008.019.023.031.031.249.369.589.696.969.969.012.008.019.023.031.031.249.369.558.696.938.969.031.022.062.041.094.063.245.354.539.673.906.938.031.023.062.041.094.063.245.353.54.674.906.938.031.023.062.041.094.063.245.353.54.643.906.906.012.008.019.023.031.031.249.369.589.696.969.969.012.008.019.023.031.031.249.369.589.696.969.969.012.008.019.023.031.031.249.369.558.696.938.969h.031c.02.014.043.017.063.031.247.362.532.7.906.969.031.023.062.041.094.063.245.353.54.674.906.938.031.023.062.041.094.063.245.353.54.643.906.906.012.008.019.023.031.031.249.369.589.696.969.969.012.008.019.023.031.031.249.369.589.696.969.969.012.008.019.023.031.031.249.369.589.696.969.969.012.008.019.023.031.031.249.369.558.696.938.969.038.027.086.037.125.063.243.346.514.678.875.938.031.023.062.041.094.063.245.353.54.674.906.938.027.02.066.013.094.031.243.348.544.677.906.938.012.008.019.023.031.031.249.369.589.696.969.969.012.008.019.023.031.031.249.369.589.696.969.969.012.008.019.023.031.031.249.369.558.696.938.969.031.022.062.041.094.063.245.354.539.673.906.938.031.023.062.041.094.063.245.353.54.674.906.938.039.028.085.036.125.063.24.339.521.652.875.906.012.008.019.023.031.031.249.369.589.696.969.969.012.008.019.023.031.031.249.369.589.696.969.969.012.008.019.023.031.031.249.369.558.696.938.969.031.022.062.041.094.063.245.354.539.673.906.938.031.023.062.041.094.063.245.353.54.674.906.938.031.023.062.041.094.063.245.353.54.643.906.906.012.008.019.023.031.031.249.369.589.696.969.969.012.008.019.023.031.031.249.369.589.696.969.969.012.008.019.023.031.031.249.369.589.696.969.969.012.008.019.023.031.031.249.369.558.696.938.969.031.023.062.041.094.063.245.353.54.674.906.938.031.023.062.041.094.063.245.353.54.643.906.906.012.008.019.023.031.031.249.369.589.696.969.969.012.008.019.023.031.031.249.369.589.696.969.969.012.008.019.023.031.031.249.369.589.696.969.969.012.008.019.023.031.031.249.369.558.696.938.969.038.027.086.037.125.063.243.346.514.678.875.938.031.023.062.041.094.063.245.353.54.674.906.938.027.02.066.013.094.031.243.348.544.677.906.938.012.008.019.023.031.031.249.369.589.696.969.969.012.008.019.023.031.031.249.369.589.696.969.969.012.008.019.023.031.031.249.369.558.696.938.969.031.022.062.041.094.063.245.354.539.673.906.938.031.023.062.041.094.063.245.353.54.674.906.938.039.028.085.036.125.063.241.34.52.651.875.906.012.008.019.023.031.031.249.369.589.696.969.969.012.008.019.023.031.031.249.369.589.696.969.969.012.008.019.023.031.031.249.369.558.696.938.969h.031c.02.014.043.017.063.031.247.362.532.7.906.969.031.023.062.041.094.063.245.353.54.674.906.938.031.023.062.041.094.063.245.353.54.643.906.906.012.008.019.023.031.031.249.369.589.696.969.969.012.008.019.023.031.031.249.369.589.696.969.969.012.008.019.023.031.031.249.369.589.696.969.969.012.008.019.023.031.031.087.129.179.257.281.375 1.441.028 2.864.063 4.313.063 114.12 0 207.85-87.34 218-198.81-.114-.101-.219-.197-.344-.281-.258-.366-.58-.654-.938-.906-.276-.416-.631-.756-1.031-1.031-.27-.394-.586-.736-.969-1-.28-.411-.629-.761-1.031-1.031-.275-.391-.613-.74-1-1-.275-.391-.613-.74-1-1-.258-.366-.58-.654-.938-.906-.276-.416-.631-.756-1.031-1.031-.27-.394-.586-.736-.969-1-.28-.411-.629-.761-1.031-1.031-.275-.391-.613-.74-1-1-.275-.391-.613-.74-1-1-.267-.38-.596-.712-.969-.969-.261-.378-.603-.679-.969-.938-.276-.416-.631-.756-1.031-1.031-.279-.408-.6-.763-1-1.031-.275-.391-.613-.74-1-1-.275-.391-.613-.74-1-1-.275-.391-.613-.74-1-1-.258-.366-.58-.654-.938-.906-.276-.416-.631-.756-1.031-1.031-.27-.394-.586-.736-.969-1-.28-.411-.629-.761-1.031-1.031-.275-.391-.613-.74-1-1-.275-.391-.613-.74-1-1-.258-.366-.58-.654-.938-.906-.276-.416-.631-.756-1.031-1.031-.27-.394-.586-.736-.969-1-.28-.411-.629-.761-1.031-1.031-.275-.391-.613-.74-1-1-.275-.391-.613-.74-1-1-.258-.366-.58-.654-.938-.906-.268-.404-.615-.728-1-1-.28-.422-.624-.754-1.031-1.031-.279-.408-.6-.763-1-1.031-.275-.391-.613-.74-1-1-.275-.391-.613-.74-1-1-.267-.379-.596-.712-.969-.969-.261-.378-.603-.679-.969-.938-.276-.416-.631-.756-1.031-1.031-.279-.408-.6-.763-1-1.031-.275-.391-.613-.74-1-1-.275-.391-.613-.74-1-1-.275-.391-.613-.74-1-1-.258-.366-.58-.654-.938-.906-.276-.416-.631-.756-1.031-1.031-.27-.394-.586-.736-.969-1-.28-.411-.629-.761-1.031-1.031-.275-.391-.613-.74-1-1-.275-.391-.613-.74-1-1-.258-.366-.58-.654-.938-.906-.276-.416-.631-.756-1.031-1.031-.27-.394-.586-.736-.969-1-.28-.411-.629-.761-1.031-1.031-.275-.391-.613-.74-1-1-.275-.391-.613-.74-1-1-.267-.379-.596-.712-.969-.969-.261-.378-.603-.679-.969-.938-.28-.422-.624-.754-1.031-1.031-.279-.408-.6-.763-1-1.031-.275-.391-.613-.74-1-1-.275-.391-.613-.74-1-1-.275-.391-.613-.74-1-1-.258-.366-.58-.654-.938-.906-.276-.416-.631-.756-1.031-1.031-.27-.394-.586-.736-.969-1-.28-.411-.629-.761-1.031-1.031-.275-.391-.613-.74-1-1-.275-.391-.613-.74-1-1-.258-.366-.58-.654-.938-.906-.276-.416-.631-.756-1.031-1.031-.27-.394-.586-.736-.969-1-.28-.411-.629-.761-1.031-1.031-.275-.391-.613-.74-1-1-.275-.391-.613-.74-1-1-.258-.366-.58-.654-.938-.906-.268-.404-.615-.728-1-1-.28-.422-.624-.754-1.031-1.031-.279-.408-.6-.763-1-1.031-.275-.391-.613-.74-1-1-.275-.391-.613-.74-1-1-.267-.379-.596-.712-.969-.969-.261-.378-.603-.679-.969-.938-.276-.416-.631-.756-1.031-1.031-.279-.408-.6-.763-1-1.031-.275-.391-.613-.74-1-1-.275-.391-.613-.74-1-1-.275-.391-.613-.74-1-1-.258-.366-.58-.654-.938-.906-.276-.416-.631-.756-1.031-1.031-.27-.394-.586-.736-.969-1-.28-.411-.629-.761-1.031-1.031-.275-.391-.613-.74-1-1-.275-.391-.613-.74-1-1-.258-.366-.58-.654-.938-.906-.276-.416-.631-.756-1.031-1.031-.27-.394-.586-.736-.969-1-.28-.411-.629-.761-1.031-1.031-.275-.391-.613-.74-1-1-.275-.391-.613-.74-1-1-.267-.379-.596-.712-.969-.969-.261-.378-.603-.679-.969-.938-.28-.422-.624-.754-1.031-1.031-.279-.408-.6-.763-1-1.031-.275-.391-.613-.74-1-1-.275-.391-.613-.74-1-1-.272-.387-.617-.71-1-.969-.26-.375-.573-.681-.938-.938-.276-.416-.631-.756-1.031-1.031-.27-.394-.586-.736-.969-1-.28-.411-.629-.761-1.031-1.031-.275-.391-.613-.74-1-1-.275-.391-.613-.74-1-1-.258-.366-.58-.654-.938-.906-.276-.416-.631-.756-1.031-1.031-.27-.394-.586-.736-.969-1-.28-.411-.629-.761-1.031-1.031-.275-.391-.613-.74-1-1-.275-.391-.613-.74-1-1-.258-.366-.58-.654-.938-.906-.268-.404-.615-.728-1-1-.275-.414-.602-.756-1-1.031-.28-.411-.629-.761-1.031-1.031-.275-.391-.613-.74-1-1-.275-.391-.613-.74-1-1-.267-.379-.596-.712-.969-.969-.261-.378-.603-.679-.969-.938-.276-.416-.631-.756-1.031-1.031-.279-.408-.6-.763-1-1.031-.275-.391-.613-.74-1-1-.275-.391-.613-.74-1-1-.275-.391-.613-.74-1-1-.258-.366-.58-.654-.938-.906-.276-.416-.631-.756-1.031-1.031-.27-.394-.586-.736-.969-1-.28-.411-.629-.761-1.031-1.031-.275-.391-.613-.74-1-1-.275-.391-.613-.74-1-1-.258-.366-.58-.654-.938-.906-.276-.416-.631-.756-1.031-1.031-.27-.394-.586-.736-.969-1-.28-.411-.629-.761-1.031-1.031-.275-.391-.613-.74-1-1-.275-.391-.613-.74-1-1-.267-.379-.596-.712-.969-.969-.756-1.095-2.032-1.727-3.375-1.656" fill-opacity=".235"/>
  <path d="m256 1c-140.83 0-255 114.17-255 255s114.17 255 255 255 255-114.17 255-255-114.17-255-255-255m8.827 44.931c120.9 0 218.9 98 218.9 218.9s-98 218.9-218.9 218.9-218.93-98-218.93-218.9 98.03-218.9 218.93-218.9" fill-opacity=".067"/>
  <g fill-opacity=".129">
   <path d="m256 4.433c-138.94 0-251.57 112.63-251.57 251.57s112.63 251.57 251.57 251.57 251.57-112.63 251.57-251.57-112.63-251.57-251.57-251.57m5.885 38.556c120.9 0 218.9 98 218.9 218.9s-98 218.9-218.9 218.9-218.93-98-218.93-218.9 98.03-218.9 218.93-218.9"/>
   <path d="m256 8.356c-136.77 0-247.64 110.87-247.64 247.64s110.87 247.64 247.64 247.64 247.64-110.87 247.64-247.64-110.87-247.64-247.64-247.64m2.942 31.691c120.9 0 218.9 98 218.9 218.9s-98 218.9-218.9 218.9-218.93-98-218.93-218.9 98.03-218.9 218.93-218.9"/>
  </g>
  <path d="m253.04 7.859c-135.42 0-245.19 109.78-245.19 245.19 0 135.42 109.78 245.19 245.19 245.19 135.42 0 245.19-109.78 245.19-245.19 0-135.42-109.78-245.19-245.19-245.19zm0 26.297c120.9 0 218.9 98 218.9 218.9s-98 218.9-218.9 218.9-218.93-98-218.93-218.9 98.03-218.9 218.93-218.9z" fill="#ffffff" stroke="#000000" stroke-opacity=".31" stroke-width="4.904"/>
 </g>
 <path d="m323.28 130.81c-10.01 2.509-24.06 8.779-32.543 12.589-7.132-5.686-131.95 73.58-183.33 107.01 30.668-11.717 98.7-37.25 104.36-30.632 6.298 7.364-40.26 55.13-79.17 120.95 32.11-34.574 93.08-113.7 104.32-107.93.734 2.183-11.323 20.15-27.27 46.29-19.02 31.17-33.25 59.13-47.26 85.962 1.468-1.115-2.347 7.454-4.285 10.811 17.355-19.487 60.64-81.1 78.4-106.45 16.238-23.18 37.839-61.14 53.796-61.35 26.612-.356 59.61 53.49 94.02 134.05 5.868 13.74 5.083 15.979 8.26 24.952 2.472 1.939 3.247-3.424 4.02-4.306-.367-7.931-4.728-24.692-12.157-51.26-16.34-58.45-33.33-122.16-73.73-151.16l2.6-16.488c2.886-3.746 7.375-9 9.965-13.02z" style="stroke-linejoin:round;fill-rule:evenodd;stroke:#ffffff;stroke-linecap:round;stroke-width:7.702;fill:#ffffff"/>
</svg>
