<svg height="512" viewBox="0 0 512 512" width="512" xmlns="http://www.w3.org/2000/svg">
 <g fill-rule="evenodd">
  <path d="m471.95 253.05c0 120.9-98.01 218.9-218.9 218.9-120.9 0-218.9-98.01-218.9-218.9 0-120.9 98.01-218.9 218.9-218.9 120.9 0 218.9 98.01 218.9 218.9" fill="#b0b0b0"/>
  <path d="m157.44 127.81v75.906h.031v34h1v1h1v1h1v1h .969v.969h1v1h1v1h1v1h1v1h1v1h .969v.969h1v1h1v .625h-9.406v134.91h1v1h1v1h1.001v1h .969v.969h1v1h1v1h1v1h1v1h1v1h .969v.969h1v1h1v1h1v1h1v1h1v1h .969v.969h1v1h1v1h1v1h1v1h1v1h .969v.969h1v1h1v1h1v1h1v1h1v1h1v1h .969v.969h1v1h1v1h1v1h1v1h1v1h .969v.969h1v1h1v1h1v1h1v1h1v1h .969v.969h1v1h1v1h1v1h1v1h1v1h1v1h .969v.969h1v1h1v1h1v1h1v1h1v1h .969v.969h1v1h1v1h1v1h1v1h1v1h .969v.969h1v1h1v1h1v1h1v1h1v1h .969v.969h1v1h1v1h1v1h1v1h1v1h1v1h .969v.969h1v1h1v1h1v1h1v1h1v1h .969v.969h1v1h1v1h1v1h1v1h1v1h .969v.969h1v1h1v1h1v1h1v .156c1.493.03 2.968.063 4.469.063 120.9 0 218.91-98.01 218.91-218.91 0-2.613-.065-5.221-.156-7.813h-.813v-1h-.969v-.969h-1v-1h-1v-1h-1v-1h-1v-1h-1v-1h-1v-1h-.969v-.969h-1v-1h-1v-1h-1v-1h-1v-1h-1v-1h-.969v-.969h-1v-1h-1v-1h-1v-1h-1v-1h-1v-1h-.969v-.969h-1v-1h-1v-1h-1v-1h-1v-1h-1v-1h-.969v-.969h-1v-1h-1v-1h-1v-1h-1v-1h-1v-1h-1v-1h-.969v-.969h-1v-1h-1v-1h-1v-1h-1v-1h-1v-1h-.969v-.969h-1v-1h-1v-1h-1v-1h-1v-1h-1v-1h-.969v-.969h-1v-1h-1v-1h-1v-1h-1v-1h-1v-1h-1v-1h-.969v-.969h-1v-1h-1v-1h-1v-1h-1v-1h-1v-1h-.969v-.969h-1v-1h-1v-1h-1v-1h-1v-1h-1v-1h-.969v-.969h-1v-1h-1v-1h-1v-1h-1v-1h-1v-1h-.969v-.969h-1v-1h-1v-1h-1v-1h-1v-1h-1v-1h-1v-1h-.969v-.969h-1v-1h-1v-1h-1v-1h-1v-1h-1v-1h-.969v-.969h-1v-1h-1v-1h-1v-1h-1v-1h-1v-1h-.969v-.969h-1v-1h-1v-1h-1v-1h-1v-1h-1v-1h-1v-1h-.969v-.969h-1v-1h-1v-1h-1v-1h-1v-1h-1v-1h-.969v-.969h-1v-1h-1v-1h-1v-1h-1v-1h-1v-1h-.969v-.969h-1v-1h-1v-1h-1v-1h-1v-1h-1v-1h-.969v-.969h-1v-1h-1.001v-1h-1v-1h-56.37v12.906h-.219v-1h-1v-1h-1v-1h-.969v-.969h-1v-1h-1v-1h-1v-1h-1v-1h-1v-1h-.969v-.969h-1v-1h-1v-1h-1v-1h-128.59" fill-opacity=".235"/>
  <path d="m256 1c-140.83 0-255 114.17-255 255s114.17 255 255 255 255-114.17 255-255-114.17-255-255-255m8.827 44.931c120.9 0 218.9 98 218.9 218.9s-98 218.9-218.9 218.9-218.93-98-218.93-218.9 98.03-218.9 218.93-218.9" fill-opacity=".067"/>
  <g fill-opacity=".129">
   <path d="m256 4.433c-138.94 0-251.57 112.63-251.57 251.57s112.63 251.57 251.57 251.57 251.57-112.63 251.57-251.57-112.63-251.57-251.57-251.57m5.885 38.556c120.9 0 218.9 98 218.9 218.9s-98 218.9-218.9 218.9-218.93-98-218.93-218.9 98.03-218.9 218.93-218.9"/>
   <path d="m256 8.356c-136.77 0-247.64 110.87-247.64 247.64s110.87 247.64 247.64 247.64 247.64-110.87 247.64-247.64-110.87-247.64-247.64-247.64m2.942 31.691c120.9 0 218.9 98 218.9 218.9s-98 218.9-218.9 218.9-218.93-98-218.93-218.9 98.03-218.9 218.93-218.9"/>
  </g>
  <path d="m253.04 7.859c-135.42 0-245.19 109.78-245.19 245.19 0 135.42 109.78 245.19 245.19 245.19 135.42 0 245.19-109.78 245.19-245.19 0-135.42-109.78-245.19-245.19-245.19zm0 26.297c120.9 0 218.9 98 218.9 218.9s-98 218.9-218.9 218.9-218.93-98-218.93-218.9 98.03-218.9 218.93-218.9z" fill="#ffffff" stroke="#000000" stroke-opacity=".31" stroke-width="4.904"/>
 </g>
 <path d="m157.42 127.81v75.897h.045v33.997h58.932v-33.997h69.62v-75.9h-128.6m140.77.022v256.35h56.39v-256.35zm-68.932 89.47v166.88h56.41v-166.88zm-69.27 31.966v134.92h56.41v-134.92z" fill="#ffffff" fill-rule="evenodd"/>
</svg>
