<svg height="512" viewBox="0 0 512 512" width="512" xmlns="http://www.w3.org/2000/svg">
 <path d="m471.95 253.05c0 120.9-98.01 218.9-218.9 218.9-120.9 0-218.9-98.01-218.9-218.9 0-120.9 98.01-218.9 218.9-218.9 120.9 0 218.9 98.01 218.9 218.9" fill="#777777" fill-rule="evenodd"/>
 <path d="m252.28 104.97c-5.194.316-11.741 2.263-14.406 2.344.099-.156.194-.331.375-.531-.346.155-.764.342-1.125.5-.627-.137-.652-.604.156-1.5-12.261 5.473-33.859 13.12-46.44 24.438l-.125-.969c-.211.253-.473.542-.719.813l-.281-1.781c-5.708 6.852-24.878 20.461-26.406 29.344l-1.531.344c-2.966 5.03-4.895 10.735-7.25 15.906-3.883 6.623-5.709 2.555-5.156 3.594-7.641 15.492-11.443 28.507-14.719 39.19 2.335 3.492.029 21 .938 35.03-2.395 43.32 17.21 85.84 46.25 115.44.329.342.668.662 1 1 .467.468.934.945 1.406 1.406.193.199.4.396.594.594.317.312.618.628.938.938.016.016.016.047.031.063.068.067.15.12.219.188l.063.063c.241.248.477.503.719.75.068.067.15.12.219.188l.063.063c.241.248.477.503.719.75.068.067.151.121.219.188.258.266.522.517.781.781.068.067.119.151.188.219.387.386.766.774 1.156 1.156.529.526 1.059 1.045 1.594 1.563.016.016.016.047.031.063.068.067.15.12.219.188l.063.063c.241.248.477.503.719.75.068.067.15.12.219.188l.063.063c.241.248.477.503.719.75.068.067.151.121.219.188.258.266.522.517.781.781.068.067.119.151.188.219.387.386.766.774 1.156 1.156.464.462.938.92 1.406 1.375.077.079.141.171.219.25.068.067.15.12.219.188l.063.063c.241.248.477.503.719.75.068.067.15.12.219.188l.063.063c.241.248.477.503.719.75.068.067.151.121.219.188.258.266.522.517.781.781.073.072.146.147.219.219.062.063.126.125.188.188.195.2.398.394.594.594.152.15.285.32.438.469.302.3.602.609.906.906.205.211.419.415.625.625.322.317.644.623.969.938.016.016.016.047.031.063.068.067.15.12.219.188l.063.063c.241.248.477.503.719.75.068.067.151.121.219.188.258.266.522.517.781.781.073.072.146.147.219.219.062.063.126.125.188.188.196.202.397.393.594.594.152.15.285.32.438.469.302.3.602.609.906.906.529.526 1.059 1.045 1.594 1.563.016.016.016.047.031.063.068.067.15.12.219.188l.063.063c.241.248.477.503.719.75.068.067.15.12.219.188l.063.063c.241.248.477.503.719.75.068.067.151.121.219.188.258.266.522.517.781.781.068.067.119.151.188.219.387.386.766.774 1.156 1.156.529.526 1.059 1.045 1.594 1.563.016.016.016.047.031.063.068.067.15.12.219.188l.063.063c.241.248.477.503.719.75.068.067.15.12.219.188l.063.063c.241.248.477.503.719.75.068.067.151.121.219.188.258.266.522.517.781.781.073.072.146.147.219.219.062.063.126.125.188.188.195.2.398.394.594.594.121.119.222.256.344.375.349.347.711.688 1.063 1.031.241.248.476.504.719.75.27.265.541.518.813.781.016.016.016.047.031.063.068.067.15.12.219.188l.063.063c.241.248.477.503.719.75.068.067.151.121.219.188.258.266.522.517.781.781.073.072.146.147.219.219.062.063.126.125.188.188.196.202.397.393.594.594.152.15.285.32.438.469.302.3.602.609.906.906.529.526 1.059 1.045 1.594 1.563.016.016.016.047.031.063.068.067.15.12.219.188l.063.063c.241.248.477.503.719.75.068.067.15.12.219.188l.063.063c.241.248.477.503.719.75.068.067.151.121.219.188.258.266.522.517.781.781.068.067.119.151.188.219.387.386.766.774 1.156 1.156.529.526 1.059 1.045 1.594 1.563.016.016.016.047.031.063.068.067.15.12.219.188l.063.063c.241.248.477.503.719.75.068.067.15.12.219.188l.063.063c.241.248.477.503.719.75.068.067.151.121.219.188.258.266.522.517.781.781.068.067.119.151.188.219.387.386.766.774 1.156 1.156.464.462.938.92 1.406 1.375.077.079.141.171.219.25.068.067.15.12.219.188l.063.063c.241.248.477.503.719.75.068.067.15.12.219.188l.063.063c.241.248.477.503.719.75.068.067.151.121.219.188.258.266.522.517.781.781.073.072.146.147.219.219.062.063.126.125.188.188.195.2.398.394.594.594.152.15.285.32.438.469.302.3.602.609.906.906.205.211.419.415.625.625.322.317.644.623.969.938.016.016.016.047.031.063.068.067.15.12.219.188l.063.063c.241.248.477.503.719.75.068.067.151.121.219.188.258.266.522.517.781.781.073.072.146.147.219.219.062.063.126.125.188.188.196.202.397.393.594.594.152.15.285.32.438.469.302.3.602.609.906.906.529.526 1.059 1.045 1.594 1.563.016.016.016.047.031.063.068.067.15.12.219.188l.063.063c.241.248.477.503.719.75.068.067.15.12.219.188l.063.063c.241.248.477.503.719.75.068.067.151.121.219.188.258.266.522.517.781.781.068.067.119.151.188.219.387.386.766.774 1.156 1.156.529.526 1.059 1.045 1.594 1.563.016.016.016.047.031.063.068.067.15.12.219.188l.063.063c.241.248.477.503.719.75.068.067.15.12.219.188l.063.063c.241.248.477.503.719.75.068.067.151.121.219.188.258.266.522.517.781.781.073.072.146.147.219.219.062.063.126.125.188.188.195.2.398.394.594.594.121.119.222.256.344.375.349.347.711.688 1.063 1.031.241.248.476.504.719.75.27.265.541.518.813.781.016.016.016.047.031.063.068.067.15.12.219.188l.063.063c.241.248.477.503.719.75.068.067.151.121.219.188.258.266.522.517.781.781.073.072.146.147.219.219.062.063.126.125.188.188.195.2.398.394.594.594.152.15.285.32.438.469.302.3.602.609.906.906.205.211.419.415.625.625.322.317.644.623.969.938.016.016.016.047.031.063.068.067.15.12.219.188l.063.063c.241.248.477.503.719.75.068.067.151.121.219.188l.063.063c.241.248.477.503.719.75.068.067.151.121.219.188.258.266.522.517.781.781.068.067.119.151.188.219.387.386.766.774 1.156 1.156.529.526 1.059 1.045 1.594 1.563.016.016.016.047.031.063.068.067.15.12.219.188l.063.063c.241.248.477.503.719.75.068.067.15.12.219.188l.063.063c.241.248.477.503.719.75.068.067.151.121.219.188.258.266.522.517.781.781.068.067.119.151.188.219.387.386.766.774 1.156 1.156.24.239.476.482.719.719.157-.022.312-.04.469-.063 1.773-.258 3.553-.542 5.313-.844.167-.029.333-.065.5-.094.366-.064.728-.122 1.094-.188 1.702-.304 3.405-.626 5.094-.969.094-.019.187-.043.281-.063.596-.122 1.187-.248 1.781-.375 1.177-.252 2.361-.51 3.531-.781.187-.043.376-.081.563-.125.388-.091.77-.188 1.156-.281 1.646-.396 3.275-.817 4.906-1.25 4.03-1.069 8-2.243 11.938-3.531 3.933-1.288 7.825-2.689 11.656-4.188v.031c31.866-12.453 60.12-32.13 82.69-57.06v-.094c3.121-3.448 6.132-6.983 9.03-10.625.966-1.214 1.934-2.453 2.875-3.688 5.645-7.409 10.822-15.174 15.5-23.281.049-.085.107-.165.156-.25 2.285-3.972 4.431-8.03 6.469-12.156.694-1.404 1.367-2.829 2.031-4.25.384-.822.782-1.641 1.156-2.469.272-.602.546-1.207.813-1.813.087-.196.164-.397.25-.594.544-1.243 1.072-2.495 1.594-3.75.506-1.216 1.016-2.429 1.5-3.656.094-.239.188-.479.281-.719.117-.301.228-.605.344-.906 1.018-2.643 1.989-5.309 2.906-8 .05-.146.107-.291.156-.438.46-1.361.878-2.721 1.313-4.094.479-1.514.959-3.035 1.406-4.563s.867-3.052 1.281-4.594c.829-3.083 1.585-6.178 2.281-9.313.348-1.567.686-3.17 1-4.75s.626-3.158.906-4.75c.56-3.184 1.048-6.395 1.469-9.625.21-1.615.388-3.218.563-4.844s.33-3.27.469-4.906c.133-1.563.244-3.115.344-4.688.005-.073.027-.146.031-.219.006-.093-.006-.188 0-.281.093-1.513.188-3.042.25-4.563.002-.041-.002-.083 0-.125-.281-.283-.559-.564-.844-.844-.225-.227-.461-.432-.688-.656-.106-.103-.206-.21-.313-.313-.338-.332-.659-.673-1-1-.186-.188-.375-.376-.563-.563-.042-.041-.083-.084-.125-.125-.099-.098-.182-.215-.281-.313-.166-.167-.334-.334-.5-.5-.498-.508-.995-1-1.5-1.5-.335-.337-.662-.668-1-1-.225-.227-.461-.432-.688-.656-.106-.103-.206-.21-.313-.313-.338-.332-.659-.673-1-1-.326-.329-.639-.676-.969-1-.328-.331-.668-.674-1-1-.335-.337-.662-.668-1-1-.335-.337-.662-.668-1-1-.225-.227-.461-.432-.688-.656-.106-.103-.206-.21-.313-.313-.338-.332-.659-.673-1-1-.098-.099-.214-.182-.313-.281-.127-.134-.247-.273-.375-.406-.106-.103-.206-.21-.313-.313-.186-.188-.375-.376-.563-.563-.042-.041-.083-.084-.125-.125-.099-.098-.182-.215-.281-.313-.166-.167-.334-.334-.5-.5-.498-.508-.995-1-1.5-1.5-.225-.227-.461-.432-.688-.656-.106-.103-.206-.21-.313-.313-.338-.332-.659-.673-1-1-.098-.099-.214-.182-.313-.281-.127-.134-.247-.273-.375-.406-.106-.103-.206-.21-.313-.313-.326-.329-.639-.676-.969-1-.166-.167-.334-.334-.5-.5-.498-.508-.995-1-1.5-1.5-.335-.337-.662-.668-1-1-.225-.227-.461-.432-.688-.656-.106-.103-.206-.21-.313-.313-.338-.332-.659-.673-1-1-.186-.188-.375-.376-.563-.563-.042-.041-.083-.084-.125-.125-.099-.098-.182-.215-.281-.313-.166-.167-.334-.334-.5-.5-.498-.508-.995-1-1.5-1.5-.335-.337-.662-.668-1-1-.225-.227-.461-.432-.688-.656-.106-.103-.206-.21-.313-.313-.338-.332-.659-.673-1-1-.098-.099-.214-.182-.313-.281-.127-.134-.247-.273-.375-.406-.106-.103-.206-.21-.313-.313-.326-.329-.639-.676-.969-1-.335-.337-.662-.668-1-1-.335-.337-.662-.668-1-1-.225-.227-.461-.432-.688-.656-.106-.103-.206-.21-.313-.313-.338-.332-.659-.673-1-1-.098-.099-.214-.182-.313-.281-.127-.134-.247-.273-.375-.406-.106-.103-.206-.21-.313-.313-.186-.188-.375-.376-.563-.563-.042-.041-.083-.084-.125-.125-.099-.098-.182-.215-.281-.313-.166-.167-.334-.334-.5-.5-.498-.508-.995-1-1.5-1.5-.225-.227-.461-.432-.688-.656-.106-.103-.206-.21-.313-.313-.338-.332-.659-.673-1-1-.098-.099-.214-.182-.313-.281-.127-.134-.247-.273-.375-.406-.106-.103-.206-.21-.313-.313-.326-.329-.639-.676-.969-1-.166-.167-.334-.334-.5-.5-.498-.508-.995-1-1.5-1.5-.335-.337-.662-.668-1-1-.225-.227-.461-.432-.688-.656-.106-.103-.206-.21-.313-.313-.338-.332-.659-.673-1-1-.186-.188-.375-.376-.563-.563-.042-.041-.083-.084-.125-.125-.099-.098-.182-.215-.281-.313-.166-.167-.334-.334-.5-.5-.498-.508-.995-1-1.5-1.5-.335-.337-.662-.668-1-1-.225-.227-.461-.432-.688-.656-.106-.103-.206-.21-.313-.313-.338-.332-.659-.673-1-1-.098-.099-.214-.182-.313-.281-.127-.134-.247-.273-.375-.406-.106-.103-.206-.21-.313-.313-.326-.329-.639-.676-.969-1-.166-.167-.334-.334-.5-.5-.498-.508-.995-1-1.5-1.5-.225-.227-.461-.432-.688-.656-.106-.103-.206-.21-.313-.313-.338-.332-.659-.673-1-1-.098-.099-.214-.182-.313-.281-.127-.134-.247-.273-.375-.406-.106-.103-.206-.21-.313-.313-.186-.188-.375-.376-.563-.563-.042-.041-.083-.084-.125-.125-.099-.098-.182-.215-.281-.313-.166-.167-.334-.334-.5-.5-.498-.508-.995-1-1.5-1.5-.335-.337-.662-.668-1-1-.225-.227-.461-.432-.688-.656-.106-.103-.206-.21-.313-.313-.338-.332-.659-.673-1-1-.326-.329-.639-.676-.969-1-.166-.167-.334-.334-.5-.5-.498-.508-.995-1-1.5-1.5-.335-.337-.662-.668-1-1-.225-.227-.461-.432-.688-.656-.106-.103-.206-.21-.313-.313-.338-.332-.659-.673-1-1-.098-.099-.214-.182-.313-.281-.127-.134-.247-.273-.375-.406-.106-.103-.206-.21-.313-.313-.186-.188-.375-.376-.563-.563-.042-.041-.083-.084-.125-.125-.099-.098-.182-.215-.281-.313-.335-.337-.662-.668-1-1-.335-.337-.662-.668-1-1-.225-.227-.461-.432-.688-.656-.106-.103-.206-.21-.313-.313-.232-.228-.454-.462-.688-.688-.045-.047-.111-.078-.156-.125-.058-.056-.098-.132-.156-.188-.098-.099-.214-.182-.313-.281-.127-.134-.247-.273-.375-.406-.106-.103-.206-.21-.313-.313-.326-.329-.639-.676-.969-1-.166-.167-.334-.334-.5-.5-.825-.843-1.655-1.659-2.5-2.469-.338-.332-.659-.673-1-1-.098-.099-.214-.182-.313-.281-.127-.134-.247-.273-.375-.406-.106-.103-.206-.21-.313-.313-.186-.188-.375-.376-.563-.563-.042-.041-.083-.084-.125-.125-.099-.098-.182-.215-.281-.313-.166-.167-.334-.334-.5-.5-.498-.508-.995-1-1.5-1.5-.335-.337-.662-.668-1-1-.225-.227-.461-.432-.688-.656-.106-.103-.206-.21-.313-.313-.338-.332-.659-.673-1-1-.326-.329-.639-.676-.969-1-.166-.167-.334-.334-.5-.5-.498-.508-.995-1-1.5-1.5-.335-.337-.662-.668-1-1-.225-.227-.461-.432-.688-.656-.106-.103-.206-.21-.313-.313-.338-.332-.659-.673-1-1-.098-.099-.214-.182-.313-.281-.127-.134-.247-.273-.375-.406-.106-.103-.206-.21-.313-.313-.186-.188-.375-.376-.563-.563-.042-.041-.083-.084-.125-.125-.099-.098-.182-.215-.281-.313-.166-.167-.334-.334-.5-.5-.498-.508-.995-1-1.5-1.5-.225-.227-.461-.432-.688-.656-.106-.103-.206-.21-.313-.313-.338-.332-.659-.673-1-1-.098-.099-.214-.182-.313-.281-.127-.134-.247-.273-.375-.406-.106-.103-.206-.21-.313-.313-.326-.329-.639-.676-.969-1-.166-.167-.334-.334-.5-.5-.498-.508-.995-1-1.5-1.5-.335-.337-.662-.668-1-1-.225-.227-.461-.432-.688-.656-.106-.103-.206-.21-.313-.313-.338-.332-.659-.673-1-1-.186-.188-.375-.376-.563-.563-.042-.041-.083-.084-.125-.125-.099-.098-.182-.215-.281-.313-.166-.167-.334-.334-.5-.5-.498-.508-.995-1-1.5-1.5-.335-.337-.662-.668-1-1-.225-.227-.461-.432-.688-.656-.106-.103-.206-.21-.313-.313-.228-.23-.458-.46-.688-.688-.106-.103-.206-.21-.313-.313-7.271-7.333-15.351-13.422-23.16-17.594.396.363.81.744 1.219 1.125-.074-.04-.145-.086-.219-.125.364.334.748.681 1.125 1.031-.041-.022-.084-.041-.125-.063.382.35.792.727 1.188 1.094-.061-.033-.127-.061-.188-.094.225.206.455.442.688.656.693.824 1.027 1.438.563 1.625-.846-.503-1.477-.918-2.156-1.344-.04-.076-.079-.138-.125-.219-.22-.09-.416-.139-.625-.219-.099-.237-.217-.503-.375-.781-.22-.09-.416-.139-.625-.219-.099-.236-.186-.473-.344-.75-.232-.094-.437-.167-.656-.25-.099-.236-.186-.473-.344-.75-.222-.09-.415-.17-.625-.25-.099-.236-.217-.473-.375-.75-.222-.09-.415-.17-.625-.25-.099-.236-.217-.473-.375-.75-.222-.09-.415-.17-.625-.25-.097-.23-.222-.481-.375-.75-.22-.09-.416-.139-.625-.219-.099-.237-.217-.503-.375-.781-7.776-3.168-8.292.28-13.438.031-14.675-7.786-17.495-6.972-31-11.844l.625 2.875c-6.231-2.076-9.142-1.01-13.188-.281-2.654.35-4.476.312-6 .188 1.348-.475 3.254-.936 5-1.188-2.672.353-4.502.346-6.03.219 1.35-.48 3.299-.965 5.063-1.219-4.611.609-6.856.186-9.03-.156.315-.168.622-.324.938-.5-.841.051-1.735.16-2.625.281-.214-.021-.432-.049-.656-.063.761-.396 1.513-.79 2.281-1.219-1.192.073-2.446.236-3.719.438.902-.471 1.806-.927 2.719-1.438-1.192.073-2.446.236-3.719.438.902-.471 1.806-.927 2.719-1.438" fill-opacity=".235"/>
 <g fill-rule="evenodd">
  <path d="m256 1c-140.83 0-255 114.17-255 255s114.17 255 255 255 255-114.17 255-255-114.17-255-255-255m8.827 44.931c120.9 0 218.9 98 218.9 218.9s-98 218.9-218.9 218.9-218.93-98-218.93-218.9 98.03-218.9 218.93-218.9" fill-opacity=".067"/>
  <g fill-opacity=".129">
   <path d="m256 4.433c-138.94 0-251.57 112.63-251.57 251.57s112.63 251.57 251.57 251.57 251.57-112.63 251.57-251.57-112.63-251.57-251.57-251.57m5.885 38.556c120.9 0 218.9 98 218.9 218.9s-98 218.9-218.9 218.9-218.93-98-218.93-218.9 98.03-218.9 218.93-218.9"/>
   <path d="m256 8.356c-136.77 0-247.64 110.87-247.64 247.64s110.87 247.64 247.64 247.64 247.64-110.87 247.64-247.64-110.87-247.64-247.64-247.64m2.942 31.691c120.9 0 218.9 98 218.9 218.9s-98 218.9-218.9 218.9-218.93-98-218.93-218.9 98.03-218.9 218.93-218.9"/>
  </g>
  <path d="m253.04 7.859c-135.42 0-245.19 109.78-245.19 245.19 0 135.42 109.78 245.19 245.19 245.19 135.42 0 245.19-109.78 245.19-245.19 0-135.42-109.78-245.19-245.19-245.19zm0 26.297c120.9 0 218.9 98 218.9 218.9s-98 218.9-218.9 218.9-218.93-98-218.93-218.9 98.03-218.9 218.93-218.9z" fill="#ffffff" stroke="#000000" stroke-opacity=".31" stroke-width="4.904"/>
 </g>
 <path d="m349.14 234.25c.303 8.151-2.378 12.11-4.804 19.12l-4.362 2.169c-3.566 6.929.359 4.399-2.2 9.908-5.573 4.949-16.888 15.481-20.511 16.447-2.648-.029 1.791-3.124 2.371-4.322-7.452 5.114-5.981 7.678-17.381 10.792l-.331-.743c-28.1 13.225-67.14-12.978-66.63-48.725-.299 2.267-.849 1.701-1.475 2.611-1.45-18.389 8.495-36.86 25.27-44.41 16.406-8.117 35.639-4.791 47.38 6.17-6.45-8.454-19.301-17.418-34.519-16.588-14.915.242-28.872 9.719-33.527 20.01-7.638 4.807-8.528 18.541-11.855 21.06-4.484 32.927 8.424 47.15 30.26 63.883 3.428 2.314.966 2.669 1.422 4.43-7.253-3.394-13.893-8.522-19.358-14.8 2.901 4.241 6.03 8.363 10.07 11.602-6.845-2.311-15.984-16.575-18.646-17.15 11.791 21.11 47.831 37.03 66.71 29.13-8.738.321-19.833.179-29.644-3.448-4.132-2.122-9.729-6.511-8.728-7.331 25.761 9.618 52.37 7.28 74.65-10.583 5.674-4.419 11.868-11.932 13.66-12.03-2.696 4.055.465 1.95-1.61 5.529 5.641-9.112-2.459-3.711 5.836-15.734l3.063 4.217c-1.147-7.57 9.395-16.753 8.323-28.716 2.419-3.657 2.696 3.94.133 12.354 3.559-9.335.939-10.836 1.852-18.541.982 2.591 2.287 5.341 2.952 8.08-2.321-9.02 2.372-15.191 3.539-20.437-1.151-.505-3.58 3.988-4.139-6.666.11-4.629 1.294-2.426 1.754-3.566-.905-.525-3.289-4.072-4.737-10.876 1.043-1.603 2.807 4.146 4.237 4.379-.921-5.408-2.503-9.534-2.571-13.687-4.183-8.738-1.48 1.166-4.868-3.751-4.453-13.879 3.691-3.222 4.244-9.524 6.74 9.767 10.583 24.914 12.354 31.19-1.348-7.648-3.526-15.06-6.187-22.23 2.055.864-3.303-15.731 2.669-4.74-6.373-23.43-27.25-45.32-46.47-55.59 2.345 2.149 5.31 4.848 4.251 5.273-9.561-5.685-7.881-6.133-9.251-8.536-7.776-3.168-8.296.258-13.441.009-14.675-7.786-17.502-6.96-31.01-11.831l.616 2.874c-9.719-3.239-11.326 1.221-21.827.009-.636-.497 3.367-1.808 6.666-2.284-9.399 1.241-8.96-1.855-18.16.336 2.264-1.588 4.666-2.645 7.081-3.995-7.661.467-18.299 4.46-15.02.82-12.499 5.58-34.701 13.41-47.16 25.09l-.391-2.618c-5.708 6.852-24.894 20.465-26.422 29.347l-1.528.351c-2.966 5.03-4.892 10.728-7.247 15.9-3.883 6.623-5.695 2.551-5.142 3.59-7.641 15.492-11.443 28.507-14.719 39.19 2.335 3.492.029 21.02.938 35.06-3.833 69.31 48.641 136.59 106 152.13 8.407 3.01 20.907 2.905 31.54 3.202-12.543-3.59-14.163-1.9-26.389-6.16-8.815-4.156-10.745-8.896-16.993-14.318l2.473 4.369c-12.246-4.336-7.121-5.364-17.09-8.519l2.641-3.444c-3.97-.303-10.515-6.687-12.303-10.232l-4.345.179c-5.216-6.43-7.999-11.08-7.793-14.675l-1.404 2.503c-1.588-2.729-19.2-24.15-10.06-19.16-1.697-1.546-3.954-2.52-6.4-6.97l1.859-2.123c-4.389-5.658-8.09-12.907-7.807-15.322 2.345 3.164 3.971 3.758 5.583 4.301-11.1-27.543-11.727-1.515-20.13-28.04l1.775-.146c-1.359-2.061-2.193-4.284-3.286-6.474l.774-7.709c-7.989-9.23-2.233-39.29-1.075-55.766.789-6.7 6.67-13.835 11.133-25.03l-2.719-.467c5.202-9.07 29.695-36.432 41.04-35.03 5.496-6.902-1.091-.009-2.169-1.761 12.07-12.492 15.87-8.825 24.02-11.08 8.781-5.212-7.54 2.038-3.377-1.987 15.192-3.876 10.762-8.819 30.575-10.785 2.091 1.189-4.848 1.835-6.589 3.377 12.651-6.194 40.04-4.78 57.84 3.434 20.636 9.652 43.837 38.17 44.755 65l1.043.283c-.527 10.667 1.633 23-2.115 34.33l2.534-5.367" fill="#ffffff"/>
</svg>
