<svg height="512" viewBox="0 0 512 512" width="512" xmlns="http://www.w3.org/2000/svg">
 <path d="m471.95 253.05c0 120.9-98.01 218.9-218.9 218.9-120.9 0-218.9-98.01-218.9-218.9 0-120.9 98.01-218.9 218.9-218.9 120.9 0 218.9 98.01 218.9 218.9" fill="#b0b0b0" fill-rule="evenodd"/>
 <g fill-rule="evenodd">
  <path d="m256 1c-140.83 0-255 114.17-255 255s114.17 255 255 255 255-114.17 255-255-114.17-255-255-255m8.827 44.931c120.9 0 218.9 98 218.9 218.9s-98 218.9-218.9 218.9-218.93-98-218.93-218.9 98.03-218.9 218.93-218.9" fill-opacity=".067"/>
  <g fill-opacity=".129">
   <path d="m256 4.433c-138.94 0-251.57 112.63-251.57 251.57s112.63 251.57 251.57 251.57 251.57-112.63 251.57-251.57-112.63-251.57-251.57-251.57m5.885 38.556c120.9 0 218.9 98 218.9 218.9s-98 218.9-218.9 218.9-218.93-98-218.93-218.9 98.03-218.9 218.93-218.9"/>
   <path d="m256 8.356c-136.77 0-247.64 110.87-247.64 247.64s110.87 247.64 247.64 247.64 247.64-110.87 247.64-247.64-110.87-247.64-247.64-247.64m2.942 31.691c120.9 0 218.9 98 218.9 218.9s-98 218.9-218.9 218.9-218.93-98-218.93-218.9 98.03-218.9 218.93-218.9"/>
  </g>
  <path d="m253.04 7.859c-135.42 0-245.19 109.78-245.19 245.19 0 135.42 109.78 245.19 245.19 245.19 135.42 0 245.19-109.78 245.19-245.19 0-135.42-109.78-245.19-245.19-245.19zm0 26.297c120.9 0 218.9 98 218.9 218.9s-98 218.9-218.9 218.9-218.93-98-218.93-218.9 98.03-218.9 218.93-218.9z" fill="#ffffff" stroke="#000000" stroke-opacity=".31" stroke-width="4.904"/>
 </g>
 <path d="m256 106.73c-18.377 0-33.23 14.861-33.23 33.17-.004 13.817 8.7 25.22 20.768 30.19v11.273h-49.843c-2.207 0-4.154 1.805-4.154 4.147v12.44c0 2.342 1.804 4.146 4.154 4.146h49.843v153.42c0 4.26-7.121 4.349-11.163 4.794-5.921 0-9.521-1.546-15.187-3.11-12.794-3.735-25.01-8.911-36.733-15.16-4.937-2.733-9.756-5.397-14.15-8.942-1.893-1.612-4.095-3.943-3.894-6.608.256-2.02 1.279-4.167 3.505-4.536 2.01-.311 3.808.762 5.581 1.425 1.529.655 2.581-1.192 2.336-2.461-.246-3.343-1.381-6.437-3.115-9.33-3.609-5.926-9.163-10.334-14.927-14.12-6.154-3.924-12.715-8.239-16.614-14.513-.775-1.16-1.637-3.079-3.375-2.462-2.416.784-3.749 3.146-4.932 5.183-3.329 6.324-4.989 13.147-6.49 20.08-1.234 5.52-1.469 11.35-1.038 16.975.446 5.628.832 11.331 3.115 16.586 1.438 3.454 3.969 6.239 6.49 8.942 1.608-1.698 3.287-3.52 4.932-5.183 2.133-2.138 4.797-3.525 7.918-3.11 4.248.547 8.08 3.116 11.422 5.573 4.702 3.649 9.1 7.469 13.889 11.01 7.581 5.783 15.942 10.02 24.532 14.12 7.156 3.318 14.51 6.632 21.936 9.33 1.33.58 2.799.547 4.154 1.03 13.366 5.55 24.626 12.01 33.878 23.584.011.161-.011.494 0 .644.108-.14.283-.258.39-.386.108.14.284.258.39.386.075-.322-.065-.719 0-1.041 9.223-11.441 20.593-17.678 33.878-23.2 1.354-.483 2.824-.462 4.154-1.03 7.427-2.698 14.78-6.01 21.936-9.33 8.59-4.106 16.951-8.341 24.532-14.12 4.791-3.545 9.187-7.365 13.889-11.01 3.338-2.457 7.175-5.03 11.422-5.573 3.121-.419 5.785.977 7.918 3.11 1.645 1.663 3.324 3.485 4.932 5.183 2.521-2.703 5.05-5.488 6.49-8.942 2.283-5.255 2.669-10.957 3.115-16.586.431-5.625.195-11.455-1.038-16.975-1.501-6.938-3.161-13.761-6.49-20.08-1.183-2.037-2.517-4.401-4.932-5.183-1.738-.612-2.599 1.302-3.375 2.462-3.899 6.275-10.46 10.589-16.614 14.513-5.764 3.79-11.318 8.198-14.927 14.12-1.735 2.894-2.869 5.987-3.115 9.33-.245 1.269.807 3.12 2.336 2.461 1.774-.665 3.576-1.742 5.581-1.425 2.226.376 3.249 2.519 3.505 4.536.201 2.665-2 4.996-3.894 6.608-4.392 3.545-9.212 6.209-14.15 8.942-11.725 6.25-23.939 11.425-36.734 15.16-5.665 1.565-9.265 3.074-15.187 3.11-5.087.902-11.163-1.853-11.163-4.794v-153.43h49.84c1.92 0 4.154-1.663 4.154-4.146v-12.44c0-2.414-1.947-4.147-4.154-4.147h-49.843v-11.273c12.07-4.968 20.772-16.376 20.768-30.19.006-18.311-14.852-33.17-33.23-33.17zm-.649 16.197c8.921 0 16.228 7.05 16.225 15.939.003 8.889-7.304 16.197-16.225 16.197s-16.358-7.308-16.355-16.197c-.003-8.889 7.434-15.939 16.355-15.939" fill="#ffffff"/>
</svg>
