<svg height="512" viewBox="0 0 512 512" width="512" xmlns="http://www.w3.org/2000/svg">
 <path d="m471.95 253.05c0 120.9-98.01 218.9-218.9 218.9-120.9 0-218.9-98.01-218.9-218.9 0-120.9 98.01-218.9 218.9-218.9 120.9 0 218.9 98.01 218.9 218.9" fill="#8c8c8c" fill-rule="evenodd"/>
 <path d="m256 1c-140.83 0-255 114.17-255 255 0 140.83 114.17 255 255 255 140.83 0 255-114.17 255-255 0-140.83-114.17-255-255-255m8.827 44.931c120.9 0 218.9 98 218.9 218.9 0 120.9-98 218.9-218.9 218.9-120.9 0-218.93-98-218.93-218.9 0-120.9 98.03-218.9 218.93-218.9" fill-opacity=".067" fill-rule="evenodd"/>
 <g fill-opacity=".129" fill-rule="evenodd">
  <path d="m256 4.433c-138.94 0-251.57 112.63-251.57 251.57 0 138.94 112.63 251.57 251.57 251.57 138.94 0 251.57-112.63 251.57-251.57 0-138.94-112.63-251.57-251.57-251.57m5.885 38.556c120.9 0 218.9 98 218.9 218.9 0 120.9-98 218.9-218.9 218.9-120.9 0-218.93-98-218.93-218.9 0-120.9 98.03-218.9 218.93-218.9"/>
  <path d="m256 8.356c-136.77 0-247.64 110.87-247.64 247.64 0 136.77 110.87 247.64 247.64 247.64 136.77 0 247.64-110.87 247.64-247.64 0-136.77-110.87-247.64-247.64-247.64m2.942 31.691c120.9 0 218.9 98 218.9 218.9 0 120.9-98 218.9-218.9 218.9-120.9 0-218.93-98-218.93-218.9 0-120.9 98.03-218.9 218.93-218.9"/>
 </g>
 <path d="m361.75664 175.36839l-7.04217.15488-9.13928 5.17018-11.14393-5.77471-10.85657 5.62171-5.63709 7.67031-15.2891 7.29279-17.22065 20.10977.91301 31.29913-71.4691-53.49457c-43.81308-13.0129-83.58594-14.48228-114.78202 8.55341-4.004305 15.63901-9.436469 28.70787-12.012914 46.91703l.173192 14.42362 16.353012 64.8532 200.02033 137.72267c105.4035-26.87052 178.86296-131.61158 168.99584-235.74485l-68.1774-47.67625-27.58251-8.63238" opacity=".25"/>
 <path d="m253.04 7.859c-135.42 0-245.19 109.78-245.19 245.19 0 135.42 109.78 245.19 245.19 245.19 135.42 0 245.19-109.78 245.19-245.19 0-135.42-109.78-245.19-245.19-245.19zm0 26.297c120.9 0 218.9 98 218.9 218.9 0 120.9-98 218.9-218.9 218.9-120.9 0-218.93-98-218.93-218.9 0-120.9 98.03-218.9 218.93-218.9z" fill="#ffffff" fill-rule="evenodd" stroke="#000000" stroke-opacity=".31" stroke-width="4.904"/>
 <g fill="#ffffff" transform="matrix(7.3029947 0 0 7.3029947 80.728127 80.728127)">
  <path d="m38 12c-6.629 0-12 5.371-12 12 0 6.629 5.371 12 12 12 2.518 0 4.842-.784 6.768-2.105 1.431-2.997 2.232-6.352 2.232-9.895 0 4.973-4.03 9-9 9-4.973 0-9-4.03-9-9 0-4.973 4.03-9 9-9 4.973 0 9 4.03 9 9 0-3.543-.802-6.897-2.232-9.895-1.925-1.322-4.25-2.105-6.768-2.105z"/>
  <path d="m10 12c-2.518 0-4.842.784-6.768 2.105-1.431 2.997-2.232 6.352-2.232 9.895 0 3.543.802 6.897 2.232 9.895 1.925 1.322 4.25 2.105 6.768 2.105 6.629 0 12-5.371 12-12 0-6.629-5.371-12-12-12zm .063 2.906c5 0 9.03 4.03 9.03 9.03 0 4.996-4.03 9.06-9.03 9.06-5 0-9.06-4.064-9.06-9.06 0-5 4.062-9.03 9.06-9.03z"/>
 </g>
</svg>
