<svg height="512" viewBox="0 0 512 512" width="512" xmlns="http://www.w3.org/2000/svg">
 <path d="m471.95 253.05c0 120.9-98.01 218.9-218.9 218.9-120.9 0-218.9-98.01-218.9-218.9 0-120.9 98.01-218.9 218.9-218.9 120.9 0 218.9 98.01 218.9 218.9" fill="#787878" fill-rule="evenodd"/>
 <path d="m256 1c-140.83 0-255 114.17-255 255 0 140.83 114.17 255 255 255 140.83 0 255-114.17 255-255 0-140.83-114.17-255-255-255m8.827 44.931c120.9 0 218.9 98 218.9 218.9 0 120.9-98 218.9-218.9 218.9-120.9 0-218.93-98-218.93-218.9 0-120.9 98.03-218.9 218.93-218.9" fill-opacity=".067" fill-rule="evenodd"/>
 <g fill-opacity=".129" fill-rule="evenodd">
  <path d="m256 4.433c-138.94 0-251.57 112.63-251.57 251.57 0 138.94 112.63 251.57 251.57 251.57 138.94 0 251.57-112.63 251.57-251.57 0-138.94-112.63-251.57-251.57-251.57m5.885 38.556c120.9 0 218.9 98 218.9 218.9 0 120.9-98 218.9-218.9 218.9-120.9 0-218.93-98-218.93-218.9 0-120.9 98.03-218.9 218.93-218.9"/>
  <path d="m256 8.356c-136.77 0-247.64 110.87-247.64 247.64 0 136.77 110.87 247.64 247.64 247.64 136.77 0 247.64-110.87 247.64-247.64 0-136.77-110.87-247.64-247.64-247.64m2.942 31.691c120.9 0 218.9 98 218.9 218.9 0 120.9-98 218.9-218.9 218.9-120.9 0-218.93-98-218.93-218.9 0-120.9 98.03-218.9 218.93-218.9"/>
 </g>
 <g fill-rule="evenodd" transform="translate(-1.7935546 -1.9389258)">
  <path d="m317.41 117.25l-61.906 51.31-.594-.594-63.37-50.22-95.37 62.66 56.41 56.41-55.06 45.656 63 63v5.75l119.13 119.13c108.35-13.13 192.31-105.39 192.31-217.28 0-6.368-.28-12.676-.813-18.906l-58-58-95.72-58.906" opacity=".25"/>
  <path d="m317.39 117.26l-61.978 51.38 97.88 58.927 59.82-51.41-95.73-58.896m-125.87.493l-95.35 62.65 63.12 48.941 95.63-61.39-63.4-50.2m161.86 111.51l-96.53 60.869 62.2 50.11 96.78-59.57-62.44-51.41m-193.91 1.819l-61.978 51.38 97.85 58.927 59.852-51.41-95.73-58.896m100.99 72.09v91.57l90.39-44.2v-20.556c-10.793 6.644-21.595 13.284-32.422 19.879-19.332-15.554-38.644-31.13-57.971-46.691m-9.58 1.048c-18.225 15.633-36.441 31.28-54.676 46.909-11.912-7.158-23.812-14.313-35.72-21.481v21.574l90.39 43.33v-90.33" fill="#ffffff"/>
 </g>
 <path d="m253.04 7.859c-135.42 0-245.19 109.78-245.19 245.19 0 135.42 109.78 245.19 245.19 245.19 135.42 0 245.19-109.78 245.19-245.19 0-135.42-109.78-245.19-245.19-245.19zm0 26.297c120.9 0 218.9 98 218.9 218.9 0 120.9-98 218.9-218.9 218.9-120.9 0-218.93-98-218.93-218.9 0-120.9 98.03-218.9 218.93-218.9z" fill="#ffffff" fill-rule="evenodd" stroke="#000000" stroke-opacity=".31" stroke-width="4.904"/>
</svg>
