<svg height="512" viewBox="0 0 512 512" width="512" xmlns="http://www.w3.org/2000/svg">
 <path d="m471.95 253.05c0 120.9-98.01 218.9-218.9 218.9-120.9 0-218.9-98.01-218.9-218.9 0-120.9 98.01-218.9 218.9-218.9 120.9 0 218.9 98.01 218.9 218.9" fill="#7c7c7c" fill-rule="evenodd"/>
 <path d="m327.40795 165.71504c-48.89209 50.0775-67.42321 74.04703-75.19475 73.37119l-27.64608 25.40858c-76.55109 17.60919-11.27023-4.52487-52.28904 15.57391l-48.53812 35.9532 18.96318 15.3347-9.96595 28.34179 133.69517 116.08059c139.18337-21.57093 204.53718-122.15301 209.09478-223.20119l-3.92-41.37-91.84964-101.95227-34.86922 40.52843" opacity=".25"/>
 <path d="m256 1c-140.83 0-255 114.17-255 255 0 140.83 114.17 255 255 255 140.83 0 255-114.17 255-255 0-140.83-114.17-255-255-255m8.827 44.931c120.9 0 218.9 98 218.9 218.9 0 120.9-98 218.9-218.9 218.9-120.9 0-218.93-98-218.93-218.9 0-120.9 98.03-218.9 218.93-218.9" fill-opacity=".067" fill-rule="evenodd"/>
 <g fill-opacity=".129" fill-rule="evenodd">
  <path d="m256 4.433c-138.94 0-251.57 112.63-251.57 251.57 0 138.94 112.63 251.57 251.57 251.57 138.94 0 251.57-112.63 251.57-251.57 0-138.94-112.63-251.57-251.57-251.57m5.885 38.556c120.9 0 218.9 98 218.9 218.9 0 120.9-98 218.9-218.9 218.9-120.9 0-218.93-98-218.93-218.9 0-120.9 98.03-218.9 218.93-218.9"/>
  <path d="m256 8.356c-136.77 0-247.64 110.87-247.64 247.64 0 136.77 110.87 247.64 247.64 247.64 136.77 0 247.64-110.87 247.64-247.64 0-136.77-110.87-247.64-247.64-247.64m2.942 31.691c120.9 0 218.9 98 218.9 218.9 0 120.9-98 218.9-218.9 218.9-120.9 0-218.93-98-218.93-218.9 0-120.9 98.03-218.9 218.93-218.9"/>
 </g>
 <path d="m253.04 7.859c-135.42 0-245.19 109.78-245.19 245.19 0 135.42 109.78 245.19 245.19 245.19 135.42 0 245.19-109.78 245.19-245.19 0-135.42-109.78-245.19-245.19-245.19zm0 26.297c120.9 0 218.9 98 218.9 218.9 0 120.9-98 218.9-218.9 218.9-120.9 0-218.93-98-218.93-218.9 0-120.9 98.03-218.9 218.93-218.9z" fill="#ffffff" fill-rule="evenodd" stroke="#000000" stroke-opacity=".31" stroke-width="4.904"/>
 <path d="m12.759 275.147c-7.18 7.177-7.858 18.139-1.517 24.482 6.34 6.338 17.303 5.659 24.482-1.518l112.357-118.33 131.061-61.335c4.557 1.931 10.937 1.76 17.146-.948 9.683-4.233 15.213-12.976 12.35-19.534-2.863-6.561-13.038-8.445-22.722-4.215-6.38 2.788-10.895 7.539-12.453 12.326l-90.043 36.498 99.234-104.505c4.949.138 10.822-2.356 15.611-7.143 7.473-7.472 9.43-17.629 4.37-22.693-5.059-5.064-15.218-3.107-22.695 4.367-4.925 4.927-7.39 10.993-7.094 16.024l-143.217 135.749-129.629 52.537.197 32.073 79.313-37.117z" fill="#ffffff" transform="matrix(.84902798 0 0 .84902798 123.54378 104.68165)"/>
</svg>
