<svg height="512" viewBox="0 0 512 512" width="512" xmlns="http://www.w3.org/2000/svg">
 <path d="m471.95 253.05c0 120.9-98.01 218.9-218.9 218.9-120.9 0-218.9-98.01-218.9-218.9 0-120.9 98.01-218.9 218.9-218.9 120.9 0 218.9 98.01 218.9 218.9" fill="#9f9f9f" fill-rule="evenodd"/>
 <path d="m232.56 101.88c-61.24.363-118.44 45.84-132.12 105.63-14.06 52.853 8.06 111.02 50.34 144.69 28.921 25.654 58.49 50.61 86.969 76.66 14.314 13.608 28.407 27.403 42.25 41.44 103.14-12.661 184.08-97.02 191.41-201.72-41.72-41.689-83.17-83.69-125.34-124.91-22.2-19.568-48.844-36.729-79-39.438 7.471 1.101 9.264 1.811.688.594 7.638 1.15 8.945 1.775.469.594 7.614 1.121 9.236 1.794.625.594 7.614 1.121 9.205 1.825.594.625 7.614 1.121 9.205 1.794.594.594 7.697 1.156 9.289 1.837.594.594 7.697 1.156 9.32 1.869.625.625 7.697 1.156 9.289 1.837.594.594 7.07 1.028 8.664 1.662.594.594 7.07 1.028 8.695 1.694.625.625 7.07 1.028 8.664 1.662.594.594 7.07 1.028 8.664 1.662.594.594 7.07 1.028 8.695 1.694.625.625 7.07 1.028 8.664 1.662.594.594 7.488 1.089 9.08 1.749.594.594 7.488 1.089 9.111 1.78.625.625 7.488 1.089 9.08 1.749.594.594 7.488 1.089 9.08 1.749.594.594 7.488 1.089 9.111 1.749.625.594 7.405 1.055 8.995 1.735.594.625 7.405 1.055 8.995 1.704.594.594 7.698 1.119 9.287 1.792.594.594 7.698 1.119 9.318 1.823.625.625 7.657 1.082 9.244 1.747.594.594 7.662 1.09 9.24 1.752.594.563 7.471 1.101 9.264 1.811.688.594 7.638 1.15 8.976 1.806.5.625 7.614 1.121 9.205 1.794.594.594 7.614 1.121 9.205 1.794.594.594 7.614 1.121 9.236 1.825.625.625 7.614 1.121 9.205 1.794.594.594 7.697 1.156 9.289 1.837.594.594 7.697 1.156 9.32 1.869.625.625 7.07 1.028 8.664 1.662.594.594 7.07 1.028 8.664 1.662.594.594 7.07 1.028 8.695 1.662.625.594 7.07 1.028 8.664 1.694.594.625 7.07 1.028 8.664 1.662.594.594 7.07 1.028 8.664 1.662.594.594 7.488 1.089 9.111 1.78.625.625 7.488 1.089 9.08 1.749.594.594 7.488 1.089 9.08 1.749.594.594 7.488 1.089 9.111 1.78.625.625 7.488 1.089 9.08 1.749.594.594 7.488 1.089 9.08 1.749.594.594 7.405 1.055 9.03 1.735.625.625 7.698 1.119 9.287 1.792.594.594 7.698 1.119 9.287 1.792.594.594 7.657 1.082 9.275 1.778.625.625 7.662 1.09 9.24 1.752.594.563 7.471 1.101 9.264 1.811.688.594 7.638 1.15 8.945 1.775.469.594 7.613 1.121 9.236 1.826.625.625 7.613 1.121 9.205 1.794.594.594 7.613 1.121 9.205 1.794.594.594 7.613 1.121 9.236 1.794.625.594 7.697 1.156 9.289 1.869.594.625 7.697 1.156 9.289 1.837.594.594 7.07 1.028 8.664 1.662.594.594 7.07 1.028 8.695 1.694.625.625 7.07 1.028 8.664 1.662.594.594 7.07 1.028 8.664 1.662.594.594 7.07 1.028 8.695 1.694.625.625 7.07 1.028 8.664 1.662.594.594 7.488 1.089 9.08 1.749.594.594 7.488 1.089 9.111 1.78.625.625 7.488 1.089 9.08 1.749.594.594 7.488 1.089 9.08 1.749.594.594 7.488 1.089 9.111 1.749.625.594 7.488 1.089 9.08 1.78.594.625 7.405 1.055 8.995 1.704.594.594 7.698 1.119 9.287 1.792.594.594 7.698 1.119 9.318 1.823.625.625 7.657 1.082 9.244 1.747.594.594 7.662 1.09 9.24 1.752.594.563 7.471 1.101 9.264 1.811.688.594 7.638 1.15 8.976 1.806.5.625 7.613 1.121 9.205 1.794.594.594 7.613 1.121 9.205 1.794.594.594 7.613 1.121 9.236 1.825.625.625 7.613 1.121 9.205 1.794.594.594 7.697 1.156 9.289 1.837.594.594 7.697 1.156 9.32 1.869.625.625 7.07 1.028 8.664 1.662.594.594 7.07 1.028 8.664 1.662.594.594 7.07 1.028 8.695 1.694.625.625 7.07 1.028 8.664 1.662.594.594 7.07 1.028 8.664 1.662.594.594 16.06 2.494-7.46-.583 6.938 1.688-13.444-1.59 8.316 1.714-5.125.125 3.46.562 4.64.804 4.75.875-.537.066-6.892-.682.938.781-14.659-2 9.778 1.742-3.875.156 13 2.051-7.571-.741 4.375 1.5-5.65-.773-2.567-.061-.563.406.411 1.694 4.899 9.964 2.344 13.719-17.397-18.444-33.993-37.678-51.34-56.12-12.4-11.412-29.02-18.13-45.875-18.438m95.53 61c .681.161.998.264.125.125-.054-.056-.077-.077-.125-.125" fill-opacity=".235"/>
 <g fill-rule="evenodd">
  <path d="m256 1c-140.83 0-255 114.17-255 255s114.17 255 255 255 255-114.17 255-255-114.17-255-255-255m8.827 44.931c120.9 0 218.9 98 218.9 218.9s-98 218.9-218.9 218.9-218.93-98-218.93-218.9 98.03-218.9 218.93-218.9" fill-opacity=".067"/>
  <g fill-opacity=".129">
   <path d="m256 4.433c-138.94 0-251.57 112.63-251.57 251.57s112.63 251.57 251.57 251.57 251.57-112.63 251.57-251.57-112.63-251.57-251.57-251.57m5.885 38.556c120.9 0 218.9 98 218.9 218.9s-98 218.9-218.9 218.9-218.93-98-218.93-218.9 98.03-218.9 218.93-218.9"/>
   <path d="m256 8.356c-136.77 0-247.64 110.87-247.64 247.64s110.87 247.64 247.64 247.64 247.64-110.87 247.64-247.64-110.87-247.64-247.64-247.64m2.942 31.691c120.9 0 218.9 98 218.9 218.9s-98 218.9-218.9 218.9-218.93-98-218.93-218.9 98.03-218.9 218.93-218.9"/>
  </g>
  <path d="m253.04 7.859c-135.42 0-245.19 109.78-245.19 245.19 0 135.42 109.78 245.19 245.19 245.19 135.42 0 245.19-109.78 245.19-245.19 0-135.42-109.78-245.19-245.19-245.19zm0 26.297c120.9 0 218.9 98 218.9 218.9s-98 218.9-218.9 218.9-218.93-98-218.93-218.9 98.03-218.9 218.93-218.9z" fill="#ffffff" stroke="#000000" stroke-opacity=".31" stroke-width="4.904"/>
 </g>
 <path d="m232.59 101.88c-35.28.676-70.11 15.383-95.17 40.23-25.06 24.846-40.09 59.53-41.07 94.81-.977 35.28 12.12 70.771 35.763 96.97 23.645 26.2 59.946 52.791 95.14 55.42-34.75-3.827-64.13-43.26-64.13-79.03 0-38.37 31.11-69.48 69.48-69.48 17.975-.325 35.686-7.965 48.28-20.792 12.596-12.827 19.913-30.707 19.913-48.685 0-17.977-7.317-35.858-19.913-48.685s-30.31-20.43-48.28-20.755m34.445 2.343c34.75 3.827 64.17 43.26 64.17 79.03 0 38.37-31.11 69.48-69.48 69.48-17.975.325-35.722 7.965-48.32 20.792-12.596 12.827-19.913 30.707-19.913 48.685s7.317 35.858 19.913 48.685 30.344 20.43 48.32 20.755c35.28-.676 70.08-15.383 95.14-40.23 25.06-24.846 40.09-59.53 41.07-94.81.977-35.28-12.08-70.771-35.727-96.97-23.645-26.2-59.982-52.791-95.17-55.42m-34.445 48.685c10.186 0 18.449 8.263 18.449 18.449s-8.263 18.412-18.449 18.412-18.449-8.226-18.449-18.412 8.263-18.449 18.449-18.449m29.14 150.85c10.186 0 18.449 8.226 18.449 18.412s-8.263 18.449-18.449 18.449-18.449-8.263-18.449-18.449 8.263-18.412 18.449-18.412" fill="#ffffff"/>
</svg>
