<svg height="512" viewBox="0 0 512 512" width="512" xmlns="http://www.w3.org/2000/svg">
 <path d="m471.95 253.05c0 120.9-98.01 218.9-218.9 218.9-120.9 0-218.9-98.01-218.9-218.9 0-120.9 98.01-218.9 218.9-218.9 120.9 0 218.9 98.01 218.9 218.9" fill="#8f8f8f" fill-rule="evenodd"/>
 <path d="m153.94 162.47v75.72h1.969v1.969h2v2h2v2h1.969v1.969h2v2h2v2h1.969v1.969h2v2h2v2h1.969v2h2v1.969h2v2h2v2h1.969v1.969h2v2h2v2h1.969v1.969h2v2h2v2h1.969v1.969h2v2h2v2h1.969v1.969h2v2h2v2h1.969v1.969h2v2h2v2h1.969v1.969h2v2h2v2h1.969v1.969h2v2h2v2h2v2h1.969v1.969h2v2h2v .5c-30.02-4.755-61.908-17.862-96-42.19-.608-.441-1.343-.7-2.094-.719-.123-.017-.251-.026-.375-.031-.022.011-.041.02-.063.031h-.031c-1.061.111-2.01.693-2.625 1.563-.618.87-.838 1.961-.594 3 3.55 15.765 12.511 29.42 24.938 40.625.668.639 1.341 1.283 2.031 1.906.807.773 1.629 1.531 2.469 2.281.726.689 1.467 1.361 2.219 2.031.692.655 1.378 1.299 2.094 1.938.642.608 1.275 1.219 1.938 1.813.784.745 1.561 1.495 2.375 2.219.656.619 1.323 1.24 2 1.844.457.432.908.856 1.375 1.281.132.128.273.248.406.375.204.184.388.38.594.563.349.328.708.645 1.063.969.105.102.206.211.313.313.302.273.6.543.906.813.242.226.474.463.719.688.552.536 1.151 1.037 1.719 1.563.787.773 1.588 1.53 2.406 2.281.736.717 1.517 1.396 2.281 2.094.678.657 1.393 1.297 2.094 1.938.816.791 1.65 1.576 2.5 2.344.699.67 1.401 1.347 2.125 2 .707.677 1.424 1.341 2.156 2 .75.717 1.503 1.428 2.281 2.125.641.609 1.276 1.217 1.938 1.813.341.326.684.647 1.031.969.063.062.125.126.188.188.283.261.557.523.844.781.835.798 1.661 1.601 2.531 2.375.177.167.353.334.531.5.736.727 1.517 1.418 2.281 2.125.644.633 1.334 1.226 2 1.844.803.792 1.631 1.575 2.469 2.344.507.494 1.01.984 1.531 1.469.768.761 1.575 1.48 2.375 2.219.929.912 1.9 1.807 2.875 2.688.577.553 1.156 1.115 1.75 1.656.727.705 1.464 1.408 2.219 2.094.566.546 1.136 1.09 1.719 1.625.901.88 1.806 1.744 2.75 2.594.637.61 1.279 1.217 1.938 1.813.793.763 1.581 1.541 2.406 2.281.235.224.481.434.719.656.764.758 1.548 1.514 2.344 2.25.585.576 1.209 1.124 1.813 1.688.755.749 1.527 1.491 2.313 2.219.548.54 1.123 1.065 1.688 1.594.828.825 1.697 1.638 2.563 2.438.754.74 1.528 1.468 2.313 2.188.699.681 1.4 1.368 2.125 2.031.711.692 1.449 1.357 2.188 2.031.634.615 1.251 1.243 1.906 1.844.769.75 1.543 1.491 2.344 2.219.342.331.683.673 1.031 1 .12.12.254.224.375.344.221.205.432.421.656.625.746.721 1.475 1.455 2.25 2.156.366.352.721.715 1.094 1.063.1.099.212.183.313.281.272.251.537.502.813.75.909.928 1.856 1.823 2.813 2.719.69.688 1.408 1.361 2.125 2.031.724.72 1.466 1.424 2.219 2.125.54.534 1.101 1.07 1.656 1.594.727.729 1.494 1.416 2.25 2.125.796.794 1.606 1.574 2.438 2.344.783.772 1.59 1.532 2.406 2.281.184.179.377.353.563.531.328.335.666.669 1 1 .011.01.02.021.031.031.748.74 1.503 1.469 2.281 2.188.373.366.745.733 1.125 1.094.124.125.25.25.375.375.259.243.519.478.781.719.249.243.498.478.75.719.247.251.5.502.75.75.261.243.517.478.781.719.258.25.52.503.781.75.237.239.478.482.719.719.27.25.539.502.813.75.679.697 1.387 1.384 2.094 2.063.817.836 1.676 1.628 2.531 2.438.701.707 1.427 1.406 2.156 2.094.712.715 1.447 1.398 2.188 2.094.575.575 1.157 1.125 1.75 1.688.882.891 1.792 1.764 2.719 2.625.62.613 1.234 1.245 1.875 1.844.4.397.81.796 1.219 1.188.261.266.548.518.813.781.022.02.041.042.063.063.743.737 1.507 1.471 2.281 2.188.299.295.602.584.906.875.647.661 1.328 1.293 2 1.938.529.542 1.079 1.063 1.625 1.594.849.88 1.732 1.742 2.625 2.594.674.685 1.393 1.333 2.094 2 .654.664 1.321 1.321 2 1.969 82.07-22.306 144.97-91.17 158.59-176.47h-1.126v-1.969h-2v-2h-2v-2h-1.969v-1.969h-2v-2h-2.001v-2h-1.969v-1.969h-2v-2h-2v-2h-1.969v-2h-2v-1.969h-2v-2h-1.969v-2h-2.001v-1.969h-2v-2h-2v-2h-1.969v-1.969h-2v-2h-2.001v-2h-1.969v-1.969h-1.376l.625-.625-1.25-1.25v-.125h-.125l-1.875-1.875v-.125h-.125l-1.844-1.844v-.125h-.125l-1.875-1.875v-.125h-.125l-1.875-1.875v-.125h-.125l-1.844-1.844v-.125h-.125l-1.875-1.875v-.125h-.125l-1.875-1.875v-.125h-.125l-1.844-1.844v-.125h-.125l-1.875-1.875v-.125h-.125l-1.875-1.875v-.125h-.125l-3.844-3.844v-.125h-.125l-1.875-1.875v-.125h-.125l-1.844-1.844v-.156h-.156l-1.844-1.844v-.125h-.125l-1.875-1.875v-.125h-.125l-1.875-1.875v-.125h-.125l-1.844-1.844v-.125h-.125l-1.875-1.875v-.125h-.125l-1.875-1.875v-.125h-.125l-1.844-1.844v-.125h-.125l-1.875-1.875v-.125h-.125l-1.875-1.875v-.125h-.125l-1.844-1.844v-.125h-.125l-1.875-1.875v-.125h-.125l-1.875-1.875v-.125h-.125l-1.844-1.844v-.125h-.125l-1.875-1.875v-.125h-.125l-1.875-1.875v-.125h-.125l-1.844-1.844v-.125h-.125l-1.875-1.875v-.125h-.125l-1.875-1.875v-.125h-.125l-3.844-3.844v-.125h-.156l-1.844-1.875v-.125h-.125l-1.844-1.844v-.156h-.156l-1.844-1.844v-.125h-.125l-1.875-1.875v-.125h-.126l-1.875-1.875v-.125h-.125l-1.844-1.844v-.125h-.125l-1.875-1.875v-.125h-.125l-1.813-1.813-.063.094v-.281h-44.094v75.72h.469l1.531 1.531v.438h.437l1.563 1.563v.438h.437l1.563 1.563v.438h.437l1.531 1.531v.438h.438l1.563 1.563v.438h.438l1.563 1.563v.438h.438l1.531 1.531v.438h.438l1.563 1.563v.438h.437l3.531 3.531v.469h.469l1.531 1.531v.438h.438l1.563 1.563v.438h.438l1.531 1.531v.469h.469l1.531 1.531v.438h.438l1.563 1.563v.438h.437l1.531 1.531v.469h.469l1.531 1.531v.438h.438l1.563 1.563v.438h.438l1.531 1.531v.469h.469l1.531 1.531v.438h.438l1.563 1.563v.438h.438l1.531 1.531v.469h.469l1.531 1.531v.438h.438l1.563 1.563v.438h.438l1.563 1.563v.438c-6.237 3.469-12.574 6.655-19 9.531v-1.656h-1.969v-2h-2v-1.969h-2v-2h-1.969v-2h-2v-1.969h-2v-2h-1.969v-2h-2v-1.969h-2v-2h-2v-2h-1.969v-1.969h-2v-2h-2v-2h-1.969v-2h-2v-1.969h-2v-2h-1.969v-2h-2v-1.969h-2v-2h-1.969v-2h-2v-1.969h-2v-2h-1.969v-2h-2v-1.969h-2v-2h-1.969v-2h-2v-1.969h-2v-2h-1.969v-2h-2v-1.969h-2v-2h-2v-2h-1.969v-1.969h-2v-2h-2v-2h-1.969v-2h-2v-1.969h-2v-2h-1.969v-2h-2v-1.969h-2v-2h-1.969v-2h-2v-1.969h-2v-2h-1.969v-2h-2v-1.969h-2v-2h-1.969v-2h-2v-1.969h-2v-2h-1.969v-2h-2v-1.969h-2v-2h-2v-2h-1.969v-1.969h-2v-2h-2v-2h-1.969v-2h-2v-1.969h-2v-2h-1.969v-2h-2v-1.969h-2v-2h-1.969v-2h-2v-1.969h-2v-2h-1.969v-2h-44.094m208.34 136.97l.438.438h-.438z" fill-opacity=".235" fill-rule="evenodd"/>
 <path d="m256 1c-140.83 0-255 114.17-255 255 0 140.83 114.17 255 255 255 140.83 0 255-114.17 255-255 0-140.83-114.17-255-255-255m8.827 44.931c120.9 0 218.9 98 218.9 218.9 0 120.9-98 218.9-218.9 218.9-120.9 0-218.93-98-218.93-218.9 0-120.9 98.03-218.9 218.93-218.9" fill-opacity=".067" fill-rule="evenodd"/>
 <g fill-opacity=".129" fill-rule="evenodd">
  <path d="m256 4.433c-138.94 0-251.57 112.63-251.57 251.57 0 138.94 112.63 251.57 251.57 251.57 138.94 0 251.57-112.63 251.57-251.57 0-138.94-112.63-251.57-251.57-251.57m5.885 38.556c120.9 0 218.9 98 218.9 218.9 0 120.9-98 218.9-218.9 218.9-120.9 0-218.93-98-218.93-218.9 0-120.9 98.03-218.9 218.93-218.9"/>
  <path d="m256 8.356c-136.77 0-247.64 110.87-247.64 247.64 0 136.77 110.87 247.64 247.64 247.64 136.77 0 247.64-110.87 247.64-247.64 0-136.77-110.87-247.64-247.64-247.64m2.942 31.691c120.9 0 218.9 98 218.9 218.9 0 120.9-98 218.9-218.9 218.9-120.9 0-218.93-98-218.93-218.9 0-120.9 98.03-218.9 218.93-218.9"/>
 </g>
 <path d="m253.04 7.859c-135.42 0-245.19 109.78-245.19 245.19 0 135.42 109.78 245.19 245.19 245.19 135.42 0 245.19-109.78 245.19-245.19 0-135.42-109.78-245.19-245.19-245.19zm0 26.297c120.9 0 218.9 98 218.9 218.9 0 120.9-98 218.9-218.9 218.9-120.9 0-218.93-98-218.93-218.9 0-120.9 98.03-218.9 218.93-218.9z" fill="#ffffff" fill-rule="evenodd" stroke="#000000" stroke-opacity=".31" stroke-width="4.904"/>
 <path d="m153.93 162.48v75.702h44.092v-75.702zm146.65 0v75.702h44.092v-75.702h-44.09m-169.47 106.9a3.7141 3.7141 0 0 0 -.0673.0336 3.7141 3.7141 0 0 0 -.0336 0 3.7141 3.7141 0 0 0 -3.2312 4.5439c5 22.22 20.718 40.31 41.804 53.15 21.09 12.833 47.665 20.525 75.16 22.11 54.99 3.178 114.31-18.428 139.28-74.59a3.7141 3.7141 0 0 0 -5.5536-4.5102c-34.17 24.26-71.31 41.4-111.81 43.958-40.507 2.563-84.58-9.35-133.09-43.958a3.7141 3.7141 0 0 0 -2.0868-.70683 3.7141 3.7141 0 0 0 -.37024-.0336" fill="#ffffff" fill-rule="evenodd"/>
</svg>
