<svg height="512" viewBox="0 0 512 512" width="512" xmlns="http://www.w3.org/2000/svg" xmlns:xlink="http://www.w3.org/1999/xlink">
 <defs>
  <path id="a" d="m21.812 1023h22.625l-8.813-8.813z" fill="#ffffff"/>
 </defs>
 <path d="m471.95 253.05c0 120.9-98.01 218.9-218.9 218.9-120.9 0-218.9-98.01-218.9-218.9 0-120.9 98.01-218.9 218.9-218.9 120.9 0 218.9 98.01 218.9 218.9" fill="#8f8f8f" fill-rule="evenodd"/>
 <path d="m293.44 100.84l-96.53 25.469 3.906 83.28-.844-1.438-.125.469-.875-1.469-.125.469-.875-1.469-.125.469-.844-1.438-.125.469-.875-1.469-.125.469-.875-1.469-.125.469-.875-1.469-.125.469-.875-1.469-.125.469-.875-1.469-.125.469-.844-1.438-.125.469-.875-1.469-.125.469-.875-1.469-.125.469-.875-1.469-.125.469-.875-1.469-.125.469-.875-1.469-.125.469-.844-1.438-.125.469-.875-1.469-.125.469-.875-1.469-.125.469-.875-1.469-.125.469-.875-1.469-.125.469-.875-1.469-.125.469-.875-1.469-.125.469-.844-1.438-.125.469-.875-1.469-.125.469-.875-1.469-.125.469-.875-1.469-.125.469-.875-1.469-.125.469-.875-1.469-.125.469-.844-1.438-.125.469-.875-1.469-.125.469-.875-1.469-.125.469-.875-1.469-.125.469-.875-1.469-.125.469-.875-1.469-.125.469-.844-1.438-.125.469-.875-1.469-.125.469-.875-1.469-.125.469-.875-1.469-.125.469-.875-1.469-.125.469-.875-1.469-.125.469-.875-1.469-.125.469-.844-1.438-.125.469-.875-1.469-.125.469-.875-1.469-.125.469-.875-1.469-.125.469-.875-1.469-.125.469-.875-1.469-.125.469-.844-1.438-.125.469-.875-1.469-.125.469-.875-1.469-.125.469-.875-1.469-.125.469-.875-1.469-.125.469-.875-1.469-.125.469-.844-1.438-.125.469-.875-1.469-.125.469-.875-1.469-.125.469-.875-1.469-.125.469-.875-1.469-.125.469-.875-1.469-.125.469-.844-1.438-.125.469-.875-1.469-.125.469-.875-1.469-.125.469-.875-1.469-25.875 95.09 1.125.563-.125.438 1.125.563-.125.438 1.125.563-.125.438 1.094.563-.125.406 1.125.563-.125.438 1.125.563-.125.438 1.125.563-.125.438 1.125.563-.125.438 1.125.563-.125.438 1.094.563-.125.406 1.125.563-.125.438 1.125.563-.125.438 1.125.563-.125.438 1.125.563-.125.438 1.125.563-.125.438 1.094.563-.125.406 1.125.563-.125.438 1.125.563-.125.438 1.125.563-.125.438 1.125.563-.125.438 1.125.563-.125.438 1.094.563-.125.406 1.125.563-.125.438 1.125.563-.125.438 1.125.563-.125.438 1.125.563-.125.438 1.125.563-.125.438 1.125.563-.125.438 1.094.563-.125.406 1.125.563-.125.438 1.125.563-.125.438 1.125.563-.125.438 1.125.563-.125.438 1.125.563-.125.438 1.094.563-.125.406 1.125.563-.125.438 1.125.563-.125.438 1.125.563-.125.438 1.125.563-.125.438 1.125.563-.125.438 1.094.563-.125.406 1.125.563-.125.438 1.125.563-.125.438 1.125.563-.125.438 1.125.563-.125.438 1.125.563-.125.438 1.125.563-.125.438 1.094.563-.125.406 1.125.563-.125.438 1.125.563-.125.438 1.125.563-.125.438 1.125.563-.125.438 1.125.563-.125.438 1.094.563-.125.406 1.125.563-.125.438 1.125.563-.125.438 1.125.563-.125.438 1.125.563-.125.438 1.125.563-.125.438 1.094.563-.125.406.781.406h-72.03l3 3 1 .969 1 1 1 1 1 1 1 1 1 1 .969.969 1 1 1 1 1 1 1 1 1 1 .969.969 1 1 1 1 1 1 1 1 1 1 .969.969 1 1 1 1 1 1 1 1 1 1 1 1 .969.969 1 1 1 1 1 1 1 1 1 1 .969.969 1 1 1 1 1 1 1 1 1 1 .969.969 1 1 1 1 1 1 1 1 1 1 1 1 .969.969 1 1 1 1 1 1 1 1 1 1 .969.969 1 1 1 1 1 1 1 1 1 1 .969.969 1 1 1 1 1 1 1 1 1 1 .969.969 1 1 1 1 1 1 1 1 1 1 1 1 .969.969 1 1 1 1 1 1 1 1 1 1 .969.969 1 1 1 1 1 1 1 1 1 1 .969.969 1 1 1 1 1 1 1 1 1 1 1 1 .969.969 1 1 1 1 1 1 1 1 1 1 .969.969 1 1 1 1 1 1 1 1 1 1 .969.969 1 1 1 1 1 1 1 1 1 1 .969.969 1 1 1 1 1 1 1 1 1 1 1 1 .969.969 1 1 1 1 1 1 1 1 1 1 .969.969 1 1 1 1 1 1 1 1 1 1 .969.969 1 1 1 1 1 1 1 1 1 1 1 1 .969.969 1 1 1 1 1 1 1 1 1 1 .969.969 1 1 1 1 1 1 1 1 1 1 .969.969 1 1 1 1 1 1 1 1 1 1 .969.969 1 1 1 1 1 1 1 1 1 1 1 1 .969.969 1 1 1 1 1 1 1 1 1 1 .969.969 1 1 1 1 1 1 .438.438c107.01-8.433 192.38-93.79 200.78-200.81l-.406-.406-.969-.969-1-1-1-1-1-1-1-1-1-1-.969-.969-1-1-1-1-1-1-1-1-1-1-.969-.969-1-1-1-1-1-1-1-1-1-1-1-1-.969-.969-1-1-1-1-1-1-1-1-1-1-.969-.969-1-1-1-1-1-1-1-1-1-1-.969-.969-1-1-1-1-1-1-1-1-1-1-1-1-.969-.969-1-1-1-1-1-1-1-1-1-1-.969-.969-1-1-1-1-1-1-1-1-1-1-.969-.969-1-1-1-1-1-1-1-1-1-1-.969-.969-1-1-1-1-1-1-69.66-68.59-1-1-4.813 3-1.344.375.875-1.5-1.875.5.875-1.5-1.813.469.844-1.438-1.875.5.875-1.5-1.875.5.875-1.5-1.875.5.875-1.5-1.875.5.875-1.5-1.875.5.875-1.5-1.813.469.844-1.438-1.875.5.875-1.5-1.875.5.875-1.5-1.875.5.875-1.5-1.875.5.875-1.5-1.875.5.875-1.5-1.813.469.844-1.438-1.875.5.875-1.5-1.875.5.875-1.5-1.875.5.875-1.5-1.875.5.875-1.5-1.875.5.875-1.5-1.875.5.875-1.5-1.813.469.844-1.438-1.875.5.875-1.5-1.875.5.875-1.5-1.875.5.875-1.5-1.875.5.875-1.5-1.875.5.875-1.5-1.813.469.844-1.438-1.875.5.875-1.5-1.875.5.875-1.5-1.875.5.875-1.5-1.875.5.875-1.5-1.875.5.875-1.5-1.813.469.844-1.438-1.875.5.875-1.5-1.875.5.875-1.5-1.875.5.875-1.5-1.875.5.875-1.5-1.875.5.875-1.5-1.813.469.844-1.438-1.875.5.875-1.5-1.875.5.875-1.5-1.875.5.875-1.5" fill-opacity=".235"/>
 <g fill-rule="evenodd">
  <path d="m256 1c-140.83 0-255 114.17-255 255s114.17 255 255 255 255-114.17 255-255-114.17-255-255-255m8.827 44.931c120.9 0 218.9 98 218.9 218.9s-98 218.9-218.9 218.9-218.93-98-218.93-218.9 98.03-218.9 218.93-218.9" fill-opacity=".067"/>
  <g fill-opacity=".129">
   <path d="m256 4.433c-138.94 0-251.57 112.63-251.57 251.57s112.63 251.57 251.57 251.57 251.57-112.63 251.57-251.57-112.63-251.57-251.57-251.57m5.885 38.556c120.9 0 218.9 98 218.9 218.9s-98 218.9-218.9 218.9-218.93-98-218.93-218.9 98.03-218.9 218.93-218.9"/>
   <path d="m256 8.356c-136.77 0-247.64 110.87-247.64 247.64s110.87 247.64 247.64 247.64 247.64-110.87 247.64-247.64-110.87-247.64-247.64-247.64m2.942 31.691c120.9 0 218.9 98 218.9 218.9s-98 218.9-218.9 218.9-218.93-98-218.93-218.9 98.03-218.9 218.93-218.9"/>
  </g>
  <path d="m253.04 7.859c-135.42 0-245.19 109.78-245.19 245.19 0 135.42 109.78 245.19 245.19 245.19 135.42 0 245.19-109.78 245.19-245.19 0-135.42-109.78-245.19-245.19-245.19zm0 26.297c120.9 0 218.9 98 218.9 218.9s-98 218.9-218.9 218.9-218.93-98-218.93-218.9 98.03-218.9 218.93-218.9z" fill="#ffffff" stroke="#000000" stroke-opacity=".31" stroke-width="4.904"/>
 </g>
 <path d="m28.875 24.625c0 2.554-2.071 4.625-4.625 4.625s-4.625-2.071-4.625-4.625 2.071-4.625 4.625-4.625 4.625 2.071 4.625 4.625" fill="#ffffff" transform="matrix(6.4109 0 0 6.314 99.66 99.58)"/>
 <use height="1" transform="matrix(8.0204 0 0 7.899 54.764 -7870.2)" width="1" xlink:href="#a"/>
 <use height="1" transform="matrix(4.0102 -6.8408 6.9458 3.9495 -6990.2 -3635.5)" width="1" xlink:href="#a"/>
 <use height="1" transform="matrix(-4.0102 -6.8408 6.9458 -3.9495 -6789 4490.8)" width="1" xlink:href="#a"/>
 <use height="1" transform="matrix(-8.0204 0 0 -7.899 457.24 8382.2)" width="1" xlink:href="#a"/>
 <use height="1" transform="matrix(-4.0102 6.8408 -6.9458 -3.9495 7502.2 4147.5)" width="1" xlink:href="#a"/>
 <use height="1" transform="matrix(4.0102 6.8408 -6.9458 3.9495 7301 -3978.8)" width="1" xlink:href="#a"/>
</svg>
