<svg height="512" viewBox="0 0 512 512" width="512" xmlns="http://www.w3.org/2000/svg">
 <path d="m471.95 253.05c0 120.9-98.01 218.9-218.9 218.9-120.9 0-218.9-98.01-218.9-218.9 0-120.9 98.01-218.9 218.9-218.9 120.9 0 218.9 98.01 218.9 218.9" fill="#9f9f9f" fill-rule="evenodd"/>
 <path d="m256 1c-140.83 0-255 114.17-255 255s114.17 255 255 255 255-114.17 255-255-114.17-255-255-255m8.827 44.931c120.9 0 218.9 98 218.9 218.9s-98 218.9-218.9 218.9-218.93-98-218.93-218.9 98.03-218.9 218.93-218.9" fill-opacity=".067" fill-rule="evenodd"/>
 <path d="m256 4.433c-138.94 0-251.57 112.63-251.57 251.57s112.63 251.57 251.57 251.57 251.57-112.63 251.57-251.57-112.63-251.57-251.57-251.57m5.885 38.556c120.9 0 218.9 98 218.9 218.9s-98 218.9-218.9 218.9-218.93-98-218.93-218.9 98.03-218.9 218.93-218.9" fill-opacity=".129" fill-rule="evenodd"/>
 <path d="m256 8.356c-136.77 0-247.64 110.87-247.64 247.64s110.87 247.64 247.64 247.64 247.64-110.87 247.64-247.64-110.87-247.64-247.64-247.64m2.942 31.691c120.9 0 218.9 98 218.9 218.9s-98 218.9-218.9 218.9-218.93-98-218.93-218.9 98.03-218.9 218.93-218.9" fill-opacity=".129" fill-rule="evenodd"/>
 <path d="m253.04 7.859c-135.42 0-245.19 109.78-245.19 245.19 0 135.42 109.78 245.19 245.19 245.19 135.42 0 245.19-109.78 245.19-245.19 0-135.42-109.78-245.19-245.19-245.19zm0 26.297c120.9 0 218.9 98 218.9 218.9s-98 218.9-218.9 218.9-218.93-98-218.93-218.9 98.03-218.9 218.93-218.9z" fill="#ffffff" fill-rule="evenodd" stroke="#000000" stroke-opacity=".31" stroke-width="4.904"/>
 <path d="m263.59 101.06c-84.45 0-152.87 65.08-152.87 145.35 0 30.95 10.17 59.64 27.53 83.21l-33.72 65.66-.87 1.69 52.31 52.31c29.26 14.5 62.21 22.67 97.08 22.67 120.89 0 218.9-98 218.9-218.9 0-3.18-.08-6.34-.22-9.48l-97.26-97.27c-27.87-27.86-67.24-45.24-110.88-45.24z" opacity=".25"/>
 <path d="m263.59 101.06c-84.453 0-152.88 65.078-152.88 145.34 0 30.957 10.174 59.644 27.531 83.219l-33.719 65.656-.875 1.6875 1.7188-.90625 63.688-35.469c26.02 19.483 58.836 31.156 94.531 31.156 84.453 0 152.94-65.078 152.94-145.34 0-80.266-68.485-145.34-152.94-145.34zm117.75 99.812c.59583.065-.41697 1.2919-2.3438 3.5-9.2846 10.651-93.991 99.906-94.812 99.906-.46745 0-11.327-10.685-24.125-23.75l-23.281-23.75-30.25 16.969c-16.651 9.3267-36.896 20.52-44.969 24.906l-14.688 7.9688 7.5-8.0625c33.762-36.341 91.198-97.031 91.812-97.031.41839 0 11.274 10.71 24.125 23.812l23.375 23.812 30.938-17.375c17.03-9.5635 37.275-20.832 44.969-25.031 7.5551-4.1196 10.984-5.9586 11.75-5.875z" fill="#ffffff"/>
</svg>
