<svg height="512" viewBox="0 0 512 512" width="512" xmlns="http://www.w3.org/2000/svg">
 <g fill="#565656">
 </g>
 <g fill="#565656">
  <g stroke="#545454" stroke-width="23.273">
  </g>
 </g>
 <g fill="#565656">
 </g>
 <path d="m471.95 253.05c0 120.9-98.01 218.91-218.91 218.91-120.9 0-218.91-98.01-218.91-218.91 0-120.9 98.01-218.91 218.91-218.91 120.9 0 218.91 98.01 218.91 218.91" fill="#777777" fill-rule="evenodd"/>
 <path d="m256 1c-140.83 0-255 114.17-255 255 0 140.83 114.17 255 255 255 140.83 0 255-114.17 255-255 0-140.83-114.17-255-255-255m8.827 44.931c120.9 0 218.9 98 218.9 218.9 0 120.9-98 218.9-218.9 218.9-120.9 0-218.93-98-218.93-218.9 0-120.9 98.03-218.9 218.93-218.9" fill-opacity=".067" fill-rule="evenodd"/>
 <g fill-opacity=".129" fill-rule="evenodd">
  <path d="m256 4.43c-138.94 0-251.57 112.63-251.57 251.57 0 138.94 112.63 251.57 251.57 251.57 138.94 0 251.57-112.63 251.57-251.57 0-138.94-112.63-251.57-251.57-251.57m5.885 38.556c120.9 0 218.9 98 218.9 218.9 0 120.9-98 218.9-218.9 218.9-120.9 0-218.93-98-218.93-218.9 0-120.9 98.03-218.9 218.93-218.9"/>
  <path d="m256 8.36c-136.77 0-247.64 110.87-247.64 247.64 0 136.77 110.87 247.64 247.64 247.64 136.77 0 247.64-110.87 247.64-247.64 0-136.77-110.87-247.64-247.64-247.64m2.942 31.691c120.9 0 218.9 98 218.9 218.9 0 120.9-98 218.9-218.9 218.9-120.9 0-218.93-98-218.93-218.9 0-120.9 98.03-218.9 218.93-218.9"/>
 </g>
 <path d="m253.04 7.86c-135.42 0-245.19 109.78-245.19 245.19 0 135.42 109.78 245.19 245.19 245.19 135.42 0 245.19-109.78 245.19-245.19 0-135.42-109.78-245.19-245.19-245.19zm0 26.297c120.9 0 218.9 98 218.9 218.9 0 120.9-98 218.9-218.9 218.9-120.9 0-218.93-98-218.93-218.9 0-120.9 98.03-218.9 218.93-218.9z" fill="#ffffff" fill-rule="evenodd" stroke="#000000" stroke-opacity=".31" stroke-width="4.904"/>
 <g fill="#565656">
 </g>
 <g fill="#565656">
  <g stroke="#545454" stroke-width="23.273">
  </g>
 </g>
 <g fill="#565656">
 </g>
 <path d="m351.53 98.58c-2.164.001-4.33.023-6.494.074-25.841.64-51.688 1.01-77.53 1.563-38.835 100.05-78.53 199.8-116.47 300.19-.31 2.406.464 4.24 1.84 5.615l62.738 62.738c12.164 2.096 24.667 3.199 37.43 3.199 120.9 0 218.91-98.01 218.91-218.91 0-21.551-3.129-42.37-8.932-62.04l-92.01-92.01c-6.489-.225-12.981-.42-19.475-.418" opacity=".25"/>
 <path d="m345.03 98.66c-25.841.64-51.688 1.01-77.53 1.563-38.835 100.05-78.53 199.8-116.47 300.19-.936 7.26 8.01 9.313 13.53 9.278 39.47 2.356 79.1 2.091 118.56 3.628 5.605-1.515 4.318-9.109.469-11.875-9.937-12.862-25.07-22.508-30.25-38.438-.825-12.01 10.691-19.58 17.75-27.594 8.56-8.759 20.11-15.198 26.563-25.813 4.301-11.465-4.556-22.24-9.375-31.906-5.836-10.125-15.209-21.18-12.12-33.656 5.423-12.774 19.05-18.836 28.476-28.28 36.965-21.562 9.471-40.39.274-69.28.604-12.07 13.178-18.243 22.08-24.17 14.381-8.175 29.987-14.508 44.02-23.301-8.653-.3-17.311-.547-25.969-.344" fill="#ffffff"/>
</svg>
