<svg viewBox="0 0 512 512" xmlns="http://www.w3.org/2000/svg">
 <path d="m471.95 253.05c0 120.9-98.01 218.91-218.91 218.91s-218.91-98.01-218.91-218.91 98.01-218.91 218.91-218.91 218.91 98.01 218.91 218.91" fill="#777777" fill-rule="evenodd"/>
 <path d="m233.17 108.46c.519 11.558-1.558 24.915-3.539 36.35-2.403 13.164-7.596 32.414-5.664 45.38 3.164 21.412 17.922 30.19 29.769 45.38-12.08-.99-20.808-3.345-31.798-8.587-8.07-3.865-16.04-8.345-22.547-14.528-29.576-28.21-21.702-68.826-12.971-104.07 2.355-9.674 8.345-34.15 7.79-43.26-.942-14.251-8.309-24.625-15.422-36.35 37.37 4.01 53.11 46.798 54.44 79.54" fill="#777777"/>
 <path d="m343.55 113.03c-10 15.664-24.721 28.11-39.866 38.585-15.941 10.99-33.876 21.509-40.759 40.904-4.203 12.403-2.355 25.989 0 38.586-11.98-6.835-17.693-21.279-21.13-34.06-1.884-6.932-4.106-20.14-3.732-27.27 2.693-58.5 62.884-71 92.8-100.1 12.318-12.03 16.847-23.876 18.26-40.711 19.999 22.692 9.01 61.28-5.567 84.07" fill="#777777"/>
 <g fill="#777777">
  <path d="m135.59 142.37c43.875 37.788 41.28 111.24 106.86 100.1-13.961 21.702-66.1 20.241-86.42 8.02-35.989-21.702-43.682-78.13-64.49-103.32-9.77-11.751-19.673-15.241-33.16-20.519 23.16-14.999 58.4-.374 77.09 15.712"/>
  <path d="m445.07 169.41c-30.808 33.36-70.903 29.818-111.81 29.914-18.538.048-29.2 1.981-42.74 16.09-6.836 7.174-10.519 16.847-18.586 22.499 0-14.347.326-22.27 4.625-36.35 2.548-8.345 5.712-15.567 10.809-22.692 29.528-41.52 80.15-27.17 123.08-27.27 25.712-.048 31.605-4.807 50.01-22.837 4.625 13.961-6.183 30.566-15.374 40.518"/>
 </g>
 <path d="m294.64 230.87c8.816-5.193 17.17-8.816 27.27-11.04 41.895-9.203 66.05 18.49 93.08 45.34 10.76 10.712 26.18 25.808 40.904 30.385 9.903 3.116 17.17 2.548 27.22 1.413-8.261 14.299-27.644 18.441-43.21 19.721-35.615 2.826-65.855-21.18-90.82-43.21-9.529-8.345-17.499-17.27-29.528-22.12-18.828-7.548-32.27-.145-50.01 4.577 6.606-12.27 12.971-18.26 24.999-25.24" fill="#777777"/>
 <g fill="#777777">
  <path d="m65.26 254.37c32.366-10.289 62.932-2.778 93.12 10.519 12.403 5.471 24.673 12.644 38.585 13.49 18.635 1.039 31.557-13.731 47.691-19.999-4.384 12.644-8.587 21.18-17.08 31.798-5.664 7.125-11.606 12.318-19.25 17.27-33.924 21.932-72.27 5.05-104.44-11.04-11.28-5.567-30.856-15.76-43.21-16.702-10.05-.797-22.547 4.529-31.798 8.212 4.251-17.318 19.903-28.356 36.35-33.537"/>
  <path d="m290.1 258.38c11.04.145 19.11 1.558 29.528 5.616 6.703 2.645 14.77 6.703 20.422 11.183 40.566 32.22 19.903 88.74 30.711 130.86 4.154 16.461 14.48 23.357 23.828 36.35-52.643-1.184-76.99-56.13-77.27-102.18-.048-13.635-.374-30.385-5.616-43.21-4.154-10.1-12.838-19.48-21.605-25.808-6.884-4.903-12.971-5.761-18.212-12.789h18.212"/>
 </g>
 <path d="m260.57 303.8c-.145 9.625-.942 15.809-4.01 24.999-18.16 55.01-85.02 48.26-120.89 65.63-17.837 8.78-20.241 19.673-31.798 32.03-2.741-46.33 18.26-74.73 61.33-92.09 34.479-13.913 67.981-9.299 83.03-51 2.596-7.27 2.874-10.664 3.297-18.212 10.289 11.135 9.203 24.274 9.06 38.586" fill="#777777"/>
 <path d="m291.66 285.65c5.423 6.413 10.942 14.903 14.154 22.692 22.318 54.59-29.951 91.19-47.559 136.29-6.316 15.941-2.874 22.741 0 38.586-38.02-18.212-29.914-80.06-15.1-111.34l13.345-22.692c7.222-11.606 16.883-24.915 18.912-38.586 2.307-16.412-7.5-31.653-14.77-45.43 13.78 2.826 22.08 9.818 30.953 20.47" fill="#777777"/>
 <g fill-rule="evenodd">
  <path d="m256 1c-140.83 0-255 114.17-255 255s114.17 255 255 255 255-114.17 255-255-114.17-255-255-255m8.827 44.931c120.9 0 218.9 98 218.9 218.9s-98 218.9-218.9 218.9-218.93-98-218.93-218.9 98.03-218.9 218.93-218.9" fill-opacity=".067"/>
  <g fill-opacity=".129">
   <path d="m256 4.43c-138.94 0-251.57 112.63-251.57 251.57s112.63 251.57 251.57 251.57 251.57-112.63 251.57-251.57-112.63-251.57-251.57-251.57m5.885 38.556c120.9 0 218.9 98 218.9 218.9s-98 218.9-218.9 218.9-218.93-98-218.93-218.9 98.03-218.9 218.93-218.9"/>
   <path d="m256 8.36c-136.77 0-247.64 110.87-247.64 247.64s110.87 247.64 247.64 247.64 247.64-110.87 247.64-247.64-110.87-247.64-247.64-247.64m2.942 31.691c120.9 0 218.9 98 218.9 218.9s-98 218.9-218.9 218.9-218.93-98-218.93-218.9 98.03-218.9 218.93-218.9"/>
  </g>
  <path d="m253.04 7.86c-135.42 0-245.19 109.78-245.19 245.19 0 135.42 109.78 245.19 245.19 245.19 135.42 0 245.19-109.78 245.19-245.19 0-135.42-109.78-245.19-245.19-245.19zm0 26.297c120.9 0 218.9 98 218.9 218.9s-98 218.9-218.9 218.9-218.93-98-218.93-218.9 98.03-218.9 218.93-218.9z" fill="#ffffff" stroke="#000000" stroke-opacity=".31" stroke-width="4.904"/>
 </g>
 <g fill="#777777">
 </g>
 <g fill="#777777">
  <g stroke="#cd1d31" stroke-width="23.273">
  </g>
 </g>
 <g fill="#777777">
 </g>
 <g fill-rule="evenodd">
  <path d="m158.86 112.36c-.882-.02-1.567.098-2.033.367-9.953 5.75-9.924 131.79-9.924 143.28 0 11.302-.024 133.43 9.443 142.9l71.63 71.63c8.226.938 16.587 1.438 25.06 1.438 100.17 0 184.61-67.27 210.63-159.1l-62.39-62.39c-19.14-19.14-106.56-69.6-115.42-74.71-9.481-5.472-109.07-62.999-127.01-63.4" opacity=".25"/>
  <path d="m404.98 256c0 11.488-109.16 74.49-119.11 80.23-9.949 5.742-119.09 68.785-129.04 63.04-9.949-5.746-9.925-131.78-9.925-143.28 0-11.488-.028-137.52 9.925-143.28 9.949-5.746 119.09 57.3 129.04 63.04 9.949 5.746 119.11 68.74 119.11 80.23" fill="#ffffff"/>
 </g>
</svg>
