<svg height="512" viewBox="0 0 512 512" width="512" xmlns="http://www.w3.org/2000/svg">
 <path d="m471.95 253.05c0 120.9-98.01 218.9-218.9 218.9-120.9 0-218.9-98.01-218.9-218.9 0-120.9 98.01-218.9 218.9-218.9 120.9 0 218.9 98.01 218.9 218.9" fill="#787878" fill-rule="evenodd"/>
 <g fill-rule="evenodd">
  <path d="m256 1c-140.83 0-255 114.17-255 255s114.17 255 255 255 255-114.17 255-255-114.17-255-255-255m8.827 44.931c120.9 0 218.9 98 218.9 218.9s-98 218.9-218.9 218.9-218.93-98-218.93-218.9 98.03-218.9 218.93-218.9" fill-opacity=".067"/>
  <g fill-opacity=".129">
   <path d="m256 4.433c-138.94 0-251.57 112.63-251.57 251.57s112.63 251.57 251.57 251.57 251.57-112.63 251.57-251.57-112.63-251.57-251.57-251.57m5.885 38.556c120.9 0 218.9 98 218.9 218.9s-98 218.9-218.9 218.9-218.93-98-218.93-218.9 98.03-218.9 218.93-218.9"/>
   <path d="m256 8.356c-136.77 0-247.64 110.87-247.64 247.64s110.87 247.64 247.64 247.64 247.64-110.87 247.64-247.64-110.87-247.64-247.64-247.64m2.942 31.691c120.9 0 218.9 98 218.9 218.9s-98 218.9-218.9 218.9-218.93-98-218.93-218.9 98.03-218.9 218.93-218.9"/>
  </g>
  <path d="m253.04 7.859c-135.42 0-245.19 109.78-245.19 245.19 0 135.42 109.78 245.19 245.19 245.19 135.42 0 245.19-109.78 245.19-245.19 0-135.42-109.78-245.19-245.19-245.19zm0 26.297c120.9 0 218.9 98 218.9 218.9s-98 218.9-218.9 218.9-218.93-98-218.93-218.9 98.03-218.9 218.93-218.9z" fill="#ffffff" stroke="#000000" stroke-opacity=".31" stroke-width="4.904"/>
 </g>
 <path d="m127.73 131.98v60.436l1.395.392 30.05 8.76v89.367l1.199.514s11.793 4.913 23.638 9.861c5.923 2.474 11.865 4.945 16.346 6.827 2.241.941 4.105 1.737 5.432 2.3.664.281 1.18.504 1.542.661.181.078.327.156.416.196h.024l2.888 1.884.024-3.597.44-98.25c5.789 1.228 11.441 2.788 16.199 5.702 5.363 3.284 9.689 8.113 12.211 16.224v48.472l1.126.514 48.915 22.268 2.765 1.272v-76.908c-.779-24.06-11.768-48.901-35.751-58.12l-.074-.024-.049-.024-126.22-37.977-2.52-.759m164.81 48.45l-2.129 3.157c3.22 3.471 5.555 6.891 7.39 10.498.008.01.02.015.024.024 3.185 6.485 5.263 11.484 6.387 17.863.884 5.02 1.238 6.451 1.737 16.542v.147c0 .138-.083 2.695.074 5.506.08 1.443.22 2.905.489 4.184.135.64.284 1.225.563 1.811s.71 1.338 1.762 1.688l.196.073.196.024c5.128.605 7.804 3.206 9.788 6.925 1.955 3.665 2.948 8.401 3.915 12.675l.612 74.51.024 1.223 1.101.514 51.24 24.715 3.01 1.444-.196-3.328c-1.528-27.419-.372-53.29-.587-77.25-.168-18.671-1.098-36.38-9.445-54.49l-.049-.098-.049-.098c-11.196-18.09-25.17-27.695-41.13-34.894-10.761-4.853-22.434-8.656-34.919-13.361" fill="#ffffff"/>
</svg>
