<svg height="512" viewBox="0 0 512 512" width="512" xmlns="http://www.w3.org/2000/svg">
 <path d="m471.95 253.05c0 120.9-98.01 218.9-218.9 218.9-120.9 0-218.9-98.01-218.9-218.9 0-120.9 98.01-218.9 218.9-218.9 120.9 0 218.9 98.01 218.9 218.9" fill="#8f8f8f" fill-rule="evenodd"/>
 <path d="m159.90357 275.58588c0 0 39.87514 11.91957 51.55078 38.78557 6.7371 15.50226-23.40389 47.29693-6.48971 57.23865 102.49993 60.24682.83392 2.77206 143.1335 80.39288 97.32538-53.25396 131.46753-147.45197 122.18508-241.68952-73.82361-99.02256-57.31832-34.4971-46.16735-56.14352-82.00108 70.96287-80.96073 40.61007-33.46053.70898" fill-opacity=".235" fill-rule="evenodd"/>
 <path d="m256 1c-140.83 0-255 114.17-255 255 0 140.83 114.17 255 255 255 140.83 0 255-114.17 255-255 0-140.83-114.17-255-255-255m8.827 44.931c120.9 0 218.9 98 218.9 218.9 0 120.9-98 218.9-218.9 218.9-120.9 0-218.93-98-218.93-218.9 0-120.9 98.03-218.9 218.93-218.9" fill-opacity=".067" fill-rule="evenodd"/>
 <g fill-opacity=".129" fill-rule="evenodd" transform="translate(0 -540.36)">
  <path d="m256 544.79c-138.94 0-251.57 112.63-251.57 251.57 0 138.94 112.63 251.54 251.57 251.54 138.94 0 251.57-112.6 251.57-251.54 0-138.94-112.63-251.57-251.57-251.57m5.885 38.556c120.9 0 218.9 98 218.9 218.9 0 120.9-98 218.9-218.9 218.9-120.9 0-218.93-98-218.93-218.9 0-120.9 98.03-218.9 218.93-218.9"/>
  <path d="m256 548.72c-136.77 0-247.64 110.87-247.64 247.64 0 136.77 110.87 247.64 247.64 247.64 136.77 0 247.64-110.87 247.64-247.64 0-136.77-110.87-247.64-247.64-247.64m2.942 31.691c120.9 0 218.9 98 218.9 218.9 0 120.9-98 218.9-218.9 218.9-120.9 0-218.93-98-218.93-218.9 0-120.9 98.03-218.9 218.93-218.9"/>
 </g>
 <path d="m270.0203 112.91023c-6.13249 10.79537-9.14208 17.43634-10.62501 21.41128-.67752 1.81699-.95683 3.80445-1.15201 3.80782-.19631.003-.49469-1.92354-1.15202-3.68781-1.48292-3.98055-4.49813-10.62152-10.62613-21.41128l-3.58504 1.78446c6.06855 10.68097 8.98504 17.11332 10.36925 20.82244.62368 1.6723 1.42348 2.84437 1.02414 3.33114-.39933.48678-1.28662.11777-3.07241 1.54669-1.78579 1.42891-3.83743 4.81725-4.35231 9.04006-9.91831-.14244-13.19488-.34657-13.31378-.35666-.95347-.95112-2.12119-1.97962-4.09655-3.45116-2.36349-1.75978-5.45833-3.75398-8.57674-5.71117-3.1184-1.95718-6.28504-3.82688-9.21723-5.1156-2.93108-1.28871-6.96369-1.83493-8.06523-1.54668-1.10154.28713.16153-.0135-.12788 0-.2894.0135-.47449-.0146-1.27989 0-.8054.0146-2.60465-.0191-4.48018 0-3.75218.0381-8.93007.13347-15.10631.35667-12.35022.44639-28.58723 1.57808-44.93642 4.28338-16.34694 2.70529-32.82176 6.92698-45.70256 14.04014-12.84714 7.09298-22.29434 17.25801-23.67967 31.05365-.005.0404.004.0785 0 .11889-.0101.10318-.0404.32526 0 .71333.0471.45313.23668 1.07337.51151 1.78446.55189 1.42106 1.66352 3.37601 3.96867 5.59228 4.60918 4.4404 13.78603 10.27271 32.64228 17.01462 0 0 3.36406 1.32124 6.14482 3.33115 1.39095 1.00495 2.52838 2.22412 3.07242 3.21225.54516.98812.6405 1.5164 0 2.49891v.11889c0 0-.44982.66735-.63939 1.54669-.18957.87933-.21761 2.07495.12788 3.56892.6921 2.98793 2.96585 6.918 8.83361 11.779.002.001.40494.30508.51263.35667.10656.0516.19069.0976.25575.11889.129.0437.19069-.0135.25575 0 .13012.028.17836.1088.25576.11889.1548.0202.21537-.0157.38363 0 .33652.0325.88953.0628 1.40889.11889 1.0376.11328 2.40723.25348 3.8408.59445 2.86601.68193 5.72081 2.09065 6.9132 4.16448.64163 1.11711 1.63324 1.37284 2.55979 1.66557.92767.29162 1.93161.45986 3.07241.59445 2.28047.27031 5.02758.42509 7.68047.47556 2.65289.0516 5.21043.0224 7.04109.11889.62704.0325 1.01516.0707 1.40889.11889.10544.69875.25575 2.02448.25575 4.28337 0 1.38181-.1032 2.85559-.38475 3.92671-.28043 1.07113-.68538 1.65884-.89626 1.78446l-.25576.11889-.12787.11889c0 0-2.70673 2.5707-3.7118 6.90119-1.00619 4.32936-.19742 10.57777 6.01695 17.2524 6.12015 6.57255 17.33518 15.17856 27.1346 23.20134 4.90195 4.01195 9.44495 7.87361 12.6744 11.06567 1.61417 1.59604 2.87835 2.99915 3.7118 4.16449.83456 1.16534 1.15201 2.07944 1.15201 2.26563-.0303.22993-1.61753 12.8277-2.43303 25.81915-.41055 6.55573-.62143 13.12605-.25575 18.32353.18284 2.59874.45991 4.85987 1.02414 6.6634.28267.90177.63714 1.66445 1.15201 2.38003.516.71558 1.23839 1.40872 2.30403 1.66557 4.62152 1.11375 9.55825-1.15861 13.44167-4.0456 3.88342-2.88699 6.97715-6.38076 7.16896-10.1168.30062-5.85473-3.87781-10.44319-4.3523-10.94678-.11218-.40266-.75044-2.90269-1.15202-6.06784-.21649-1.70819-.40382-3.42984-.25575-4.87782.14807-1.44911.6764-2.52808 1.02414-2.85559.4857-.45761 1.15874-.61127 2.4319-.59557 1.27316.0157 2.94902.22096 4.73706.59557 1.78691.37349 3.73199.9141 5.63107 1.07113 1.90021.15702 3.86884-.0437 5.63108-1.07113 3.78471-2.20506 7.60307-7.04587 11.26215-11.42234 1.83066-2.18823 2.5452-3.63734 4.99281-5.59228 2.44649-1.95494 5.05338 1.27077 8.57785 5.3545 3.66244 4.37647 7.4808 9.33617 11.26215 11.54123 1.76335 1.02738 3.73199 1.10926 5.63107.95224 1.90021-.15703 3.84529-.57875 5.63108-.95224 1.78691-.37349 3.46277-.69763 4.73593-.71333 1.27316-.0157 1.94732.25572 2.43303.71333.34774.32751.74707 1.28759.89626 2.7367.14807 1.4491.0886 3.28852-.12788 4.99671-.4184 3.29413-1.22156 5.98035-1.27989 6.18673-.62929.67744-4.52056 5.0999-4.22443 10.82677.19182 3.73267 3.28555 7.22645 7.16897 10.1168 3.88342 2.88699 8.69227 5.15934 13.31379 4.0456 1.06564-.25685 1.91703-.94999 2.43302-1.66557.516-.71558.87046-1.59715 1.15202-2.49892.56423-1.8024.84129-3.94578 1.02414-6.54339.3668-5.19748.15479-11.88668-.25576-18.44242-.81437-12.99145-2.52949-25.46921-2.55978-25.70026 0-.18058.31745-1.0958 1.15201-2.26563.83457-1.16534 2.09876-2.56845 3.7118-4.16448 3.22946-3.19207 7.77133-7.05373 12.67441-11.06568 9.80502-8.02278 21.14793-16.74768 27.26696-23.32023 6.21437-6.67462 7.02314-12.80415 6.01695-17.13351-1.00619-4.32937-3.71292-6.90119-3.71292-6.90119l-.25576-.11889-.12787-.11889c-.21089-.12674-.74371-.71445-1.02414-1.78446-.28043-1.07112-.38475-2.5449-.38475-3.92671 0-2.20954.2737-3.53975.38475-4.28337.39372-.0482.78184-.0864 1.40777-.11889 1.83066-.0965 4.3882-.0673 7.04108-.11889 2.65289-.0516 5.4-.20638 7.68047-.47556 1.1408-.13571 2.14475-.30283 3.07242-.59557.92767-.29161 1.91815-.66735 2.55978-1.78446 1.19127-2.07383 4.04719-3.36366 6.91321-4.0456 1.43245-.34096 2.8032-.48116 3.8408-.59556.51823-.0572.94337-.0875 1.27989-.11889.16826-.0157.35783-.0987.51263-.11889.0763-.0101.12563.028.25575 0 .0651-.0135.12563-.0752.25575-.11889.0651-.0224.14919-.0673.25576-.11889.10656-.0516.51038-.23666.51263-.23778 5.86776-4.861 8.1415-8.79107 8.83248-11.77901.34662-1.49396.18958-2.8096 0-3.68893-.18957-.87933-.51263-1.54668-.51263-1.54668-.63938-.98252-.54403-1.62968 0-2.61781.54516-.98924 1.6826-2.08841 3.07242-3.09336 2.71346-1.96167 5.85766-3.26609 6.01695-3.33114 0-.002.12787-.11889.12787-.11889 18.72388-6.71163 28.05442-12.58992 32.64228-17.01462 2.30516-2.21964 3.41679-4.05233 3.96868-5.47339.27594-.71109.33764-1.33134.38475-1.78446.0415-.39705.0101-.74026 0-.83223v-.11889c-1.38982-13.79451-10.70801-23.8429-23.55516-30.93587-12.88417-7.11317-29.35562-11.45375-45.70256-14.15904-16.34695-2.70529-32.5862-3.71809-44.93642-4.16449-6.17512-.2232-11.35301-.31853-15.10631-.35667-1.87666-.0191-3.67479.0146-4.48131 0-.8054-.0146-.99048-.10543-1.27989-.11888-.28941-.0135.97366.28712-.12788 0-1.10153-.28713-5.13302.37685-8.06522 1.66557-2.93108 1.28871-6.22671 3.15953-9.34512 5.11672-3.1184 1.95719-6.08537 3.95138-8.44885 5.71117-1.9361 1.44237-3.0152 2.39349-3.96867 3.33114-.0931.008-3.52672.21198-13.57291.35667-.51712-4.22057-2.46668-7.51806-4.22443-8.92342-1.75775-1.40536-2.34553-.87821-2.75272-1.36835-.40719-.49014.0594-1.78222.70445-3.5106 1.38197-3.708 4.30182-10.13923 10.36925-20.82132" fill="#ffffff" fill-rule="evenodd"/>
 <path d="m253.04 7.86c-135.42 0-245.19 109.78-245.19 245.19 0 135.42 109.78 245.19 245.19 245.19 135.42 0 245.19-109.78 245.19-245.19 0-135.42-109.78-245.19-245.19-245.19zm0 26.297c120.9 0 218.9 98 218.9 218.9 0 120.9-98 218.9-218.9 218.9-120.9 0-218.93-98-218.93-218.9 0-120.9 98.03-218.9 218.93-218.9z" fill="#ffffff" fill-rule="evenodd" stroke="#000000" stroke-opacity=".31" stroke-width="4.904"/>
</svg>
