<svg height="512" viewBox="0 0 512 512" width="512" xmlns="http://www.w3.org/2000/svg">
 <g fill-rule="evenodd">
  <path d="m471.95 253.05c0 120.9-98.01 218.91-218.91 218.91s-218.91-98.01-218.91-218.91 98.01-218.91 218.91-218.91 218.91 98.01 218.91 218.91" fill="#9f9f9f"/>
  <path d="m253.03 34.16c-1.764 0-3.527.021-5.281.063-.125.003-.25-.003-.375 0-.745.019-1.476.067-2.219.094-.511.018-1.022.041-1.531.063-1.129.048-2.251.091-3.375.156-.208.012-.417.019-.625.031-.26.016-.521.046-.781.063-1.214.078-2.417.153-3.625.25-2.399.193-4.78.418-7.156.688-.761.087-1.522.187-2.281.281-.626.078-1.251.167-1.875.25-.907.121-1.816.212-2.719.344-.983.143-1.959.312-2.938.469-.156.025-.313.037-.469.063-.314.051-.624.104-.938.156-1.119.186-2.231.391-3.344.594-1.425.26-2.835.525-4.25.813-.932.189-1.854.393-2.781.594-.591.128-1.192.242-1.781.375-1.3.293-2.584.621-3.875.938-1.394.341-2.772.695-4.156 1.063s-2.783.731-4.156 1.125c-.482.138-.957.296-1.438.438-.887.261-1.774.509-2.656.781-.157.049-.312.107-.469.156-1.203.374-2.4.762-3.594 1.156-26.685 34.856-65.69 84.44-66.25 121.53-.362 23.861 2.267 44.523 13.688 62.22 4.382 6.79 9.591 13.12 15.438 18.969l109.41 109.41c-33.576 30.734-86.93 62.08-127.47 76.25 35.23 24.23 77.887 38.438 123.88 38.438 120.9 0 218.91-98.01 218.91-218.91 0-27.746-5.178-54.29-14.594-78.72l-125.6-125.59c-.013-.005-.019-.026-.031-.031-1.132-.436-2.265-.863-3.406-1.281-.395-.145-.791-.295-1.188-.438-1.285-.462-2.579-.905-3.875-1.344-.258-.087-.523-.164-.781-.25-.237-.079-.481-.14-.719-.219-1.204-.398-2.411-.81-3.625-1.188-1.11-.345-2.226-.672-3.344-1-.606-.178-1.204-.39-1.813-.563-2.838-.806-5.71-1.526-8.594-2.219-.324-.078-.644-.174-.969-.25-.312-.073-.625-.147-.938-.219-1.31-.302-2.619-.596-3.938-.875-1.039-.22-2.08-.42-3.125-.625-.592-.116-1.187-.232-1.781-.344-.208-.039-.417-.087-.625-.125-1.148-.212-2.315-.4-3.469-.594-.292-.049-.582-.108-.875-.156-.146-.024-.292-.039-.438-.063-1.356-.219-2.698-.431-4.063-.625-.156-.022-.313-.041-.469-.063-1.162-.163-2.333-.324-3.5-.469-1.485-.184-2.975-.346-4.469-.5-.167-.017-.333-.046-.5-.063-1.279-.129-2.559-.237-3.844-.344-.5-.041-.999-.087-1.5-.125-.458-.035-.916-.062-1.375-.094-.426-.03-.855-.035-1.281-.063-1.28-.082-2.558-.159-3.844-.219-1.714-.08-3.433-.147-5.156-.188-1.724-.04-3.454-.063-5.188-.063" opacity=".25"/>
  <path d="m253.03 34.16c-23.993 0-47.08 3.867-68.69 11-26.685 34.856-65.69 84.44-66.25 121.53-.362 23.861 2.267 44.523 13.688 62.22 22.84 35.392 68.09 58.06 109.47 66.969 1.134.174 2.227-.505 2.656-1.594s.09-2.319-.844-3c-21.22-13.76-32.54-30.23-36.813-47.938-4.272-17.711-1.414-36.815 6.375-55.719 14.377-34.891 80.75-110.81 119.09-138.91-24.416-9.406-50.957-14.563-78.69-14.563m8.531 181.94c-.158 0-.313-.001-.469.031-.948.182-1.686.969-1.875 1.938-.189.968.225 1.928 1.031 2.469 21.22 13.756 32.17 30.577 35.31 48.688 3.138 18.11-1.593 37.737-12.469 57-21.416 37.93-99.32 88.22-153.94 107.31 35.23 24.23 77.887 38.438 123.88 38.438 38.456 0 74.59-9.929 106-27.344 30.951-59.731 29.829-132.15 9.03-163.44-23.03-34.639-64.69-56.16-106.03-65.06-.156-.033-.31-.031-.469-.031" fill="#ffffff"/>
  <path d="m256 1c-140.83 0-255 114.17-255 255s114.17 255 255 255 255-114.17 255-255-114.17-255-255-255m8.827 44.931c120.9 0 218.9 98 218.9 218.9s-98 218.9-218.9 218.9-218.93-98-218.93-218.9 98.03-218.9 218.93-218.9" fill-opacity=".067"/>
  <g fill-opacity=".129">
   <path d="m256 4.43c-138.94 0-251.57 112.63-251.57 251.57s112.63 251.57 251.57 251.57 251.57-112.63 251.57-251.57-112.63-251.57-251.57-251.57m5.885 38.556c120.9 0 218.9 98 218.9 218.9s-98 218.9-218.9 218.9-218.93-98-218.93-218.9 98.03-218.9 218.93-218.9"/>
   <path d="m256 8.36c-136.77 0-247.64 110.87-247.64 247.64s110.87 247.64 247.64 247.64 247.64-110.87 247.64-247.64-110.87-247.64-247.64-247.64m2.942 31.691c120.9 0 218.9 98 218.9 218.9s-98 218.9-218.9 218.9-218.93-98-218.93-218.9 98.03-218.9 218.93-218.9"/>
  </g>
  <path d="m253.04 7.86c-135.42 0-245.19 109.78-245.19 245.19 0 135.42 109.78 245.19 245.19 245.19 135.42 0 245.19-109.78 245.19-245.19 0-135.42-109.78-245.19-245.19-245.19zm0 26.297c120.9 0 218.9 98 218.9 218.9s-98 218.9-218.9 218.9-218.93-98-218.93-218.9 98.03-218.9 218.93-218.9z" fill="#ffffff" stroke="#000000" stroke-opacity=".31" stroke-width="4.904"/>
 </g>
 <path d="m279.65 284.86a40.341 24.329 46.464 0 1 -56.357-57.717 40.341 24.329 46.464 1 1 56.357 57.717" fill="#ffffff"/>
</svg>
