<svg height="512" viewBox="0 0 512 512" width="512" xmlns="http://www.w3.org/2000/svg">
 <path d="m471.95 253.05c0 120.9-98.01 218.9-218.9 218.9-120.9 0-218.9-98.01-218.9-218.9 0-120.9 98.01-218.9 218.9-218.9 120.9 0 218.9 98.01 218.9 218.9" fill="#979797" fill-rule="evenodd"/>
 <path d="m256 1c-140.83 0-255 114.17-255 255 0 140.83 114.17 255 255 255 140.83 0 255-114.17 255-255 0-140.83-114.17-255-255-255m8.827 44.931c120.9 0 218.9 98 218.9 218.9 0 120.9-98 218.9-218.9 218.9-120.9 0-218.93-98-218.93-218.9 0-120.9 98.03-218.9 218.93-218.9" fill-opacity=".067" fill-rule="evenodd"/>
 <g fill-opacity=".129" fill-rule="evenodd">
  <path d="m256 4.433c-138.94 0-251.57 112.63-251.57 251.57 0 138.94 112.63 251.57 251.57 251.57 138.94 0 251.57-112.63 251.57-251.57 0-138.94-112.63-251.57-251.57-251.57m5.885 38.556c120.9 0 218.9 98 218.9 218.9 0 120.9-98 218.9-218.9 218.9-120.9 0-218.93-98-218.93-218.9 0-120.9 98.03-218.9 218.93-218.9"/>
  <path d="m256 8.356c-136.77 0-247.64 110.87-247.64 247.64 0 136.77 110.87 247.64 247.64 247.64 136.77 0 247.64-110.87 247.64-247.64 0-136.77-110.87-247.64-247.64-247.64m2.942 31.691c120.9 0 218.9 98 218.9 218.9 0 120.9-98 218.9-218.9 218.9-120.9 0-218.93-98-218.93-218.9 0-120.9 98.03-218.9 218.93-218.9"/>
 </g>
 <path d="m211.28632 149.89679c-57.59 0-104.29 46.706-104.29 104.29 0 28.784 11.668 54.84 30.531 73.7l141.23 141.23c105.1-9.988 188.54-94.28 197.19-199.76l-88.9-88.9c-18.16-18.16-43-29.656-70.52-30.486-.168-.022-.344-.027-.514-.041-.066-.001-.131.001-.197 0-.21-.013-.419-.039-.631-.039h-95.175c-.71 0-1.413.095-2.092.236-2.195-.138-4.399-.236-6.629-.236" opacity=".25"/>
 <path d="m253.04 7.859c-135.42 0-245.19 109.78-245.19 245.19 0 135.42 109.78 245.19 245.19 245.19 135.42 0 245.19-109.78 245.19-245.19 0-135.42-109.78-245.19-245.19-245.19zm0 26.297c120.9 0 218.9 98 218.9 218.9 0 120.9-98 218.9-218.9 218.9-120.9 0-218.93-98-218.93-218.9 0-120.9 98.03-218.9 218.93-218.9z" fill="#ffffff" fill-rule="evenodd" stroke="#000000" stroke-opacity=".31" stroke-width="4.904"/>
 <path d="m211.28632 149.89679c-57.59 0-104.29 46.706-104.29 104.29 0 57.59 46.706 104.25 104.29 104.25 15.279 0 29.783-3.287 42.854-9.194 18.665-11.242 35.633-31.609 43.603-43.761-.13-.045-.265-.073-.395-.118 8.929-14.983 14.09-32.471 14.09-51.18 0-6.514-.623-12.889-1.815-19.06-.273.019-.551.039-.829.039h-89.258c-12.319 0-22.255 9.897-22.255 22.22 0 12.319 9.937 22.255 22.255 22.255h39.657c-9.126 17.13-27.14 28.806-47.904 28.806-29.975 0-54.3-24.282-54.3-54.26 0-29.975 24.321-54.3 54.3-54.3h97.505c.684 0 1.355.081 2.01.197 1.508-.127 3.037-.197 4.577-.197 29.975 0 54.3 24.321 54.3 54.3 0 26.987-19.732 49.35-45.537 53.55-13.819 19.334-34.32 33.568-58.12 39.34 14.198 7.242 30.28 11.364 47.31 11.364 57.59 0 104.25-46.666 104.25-104.25 0-56.51-44.953-102.52-101.06-104.21-.168-.022-.343-.026-.513-.039-.066-.001-.132.001-.197 0-.21-.013-.419-.039-.631-.039h-95.175c-.71 0-1.413.095-2.091.237-2.195-.138-4.4-.237-6.629-.237" fill="#ffffff"/>
</svg>
