<svg height="1814.17" viewBox="0 0 512 512" width="1814.17" xmlns="http://www.w3.org/2000/svg">
 <g transform="translate(0 215.00001)">
  <path d="m471.94999 38.049967c0 120.900013-98.00998 218.910003-218.91 218.910003-120.90001 0-218.909997-98.00999-218.909997-218.910003 0-120.900014 98.009987-218.909997 218.909997-218.909997 120.90002 0 218.91 98.009983 218.91 218.909997" fill="#b0b0b0" fill-rule="evenodd"/>
  <g transform="translate(-.00000535 -215.00001)">
   <path d="m171.89 84.68c-24.16.549-50.87 3.429-69.03 19.16-8.708 7.541-13.12 30.527-4.781 38.863l56.828 56.828c-3.116-.994-6.346-1.531-9.516-1.535-9.571-.012-18.579 4.813-22.12 16.313-4.805 15.581-9.272 49.828 1.238 60.34l70.77 70.77c-7.939.99-19.21 6.167-24.727 3.768-1.608-.274-3.168-.665-4.686-1.154l-39.971-39.971c-1.778-1.607-4.03-2.718-6.281-2.5-.321.031-.649.1-.969.188-13.501 8.439-4.844 26.621 4.27 35.734l59.686 59.686c-11.704.587-23.541-3.048-34.471-8.758l-31.73-31.73c-1.3-1.234-2.746-2.237-4.41-2.9-14.701 8.288-6.902 24.916 3.594 35.412l67.44 67.44c21.894 7.349 45.33 11.336 69.7 11.336 102.28 0 188.17-70.15 212.2-164.95l-187.76-187.76c-10.666-10.666-23.21-19.255-37.924-24.512-21.465-7.962-44.606-10.04-67.34-10.06" opacity=".25"/>
   <path d="m171.89 84.68c-24.16.549-50.87 3.429-69.03 19.16-11.521 9.98-15.517 46.98 7.56 41.34 14.99-3.66 19-25.19 36.03-28.56 21.9-4.34 44.38-5.31 66.44-3.38 34.06 4.46 67.2 25.29 80.13 58.38 10.52 26.92 16.6 59.21.25 85.28-13.93 22.23-36.79 35.87-55.78 52.97-20.24 18.24-18.93 48.59-18.65 75 .63 61.3 25.27 52.6 12.62-2.97-5.33-23.42 3.8-50.22 25.53-62.84 28.14-16.34 53.77-40.29 64.09-72.34 6.39-19.85 2.96-40.69-3.9-59.91-13.76-38.5-37.76-77.71-77.94-92.06-21.47-7.962-44.61-10.04-67.34-10.06l-.01-.011m-26.49 113.32c-9.57-.01-18.58 4.81-22.12 16.31-5.8 18.81-11.1 64.8 9.81 63.45 24.36-1.58-5.44-41.37 8.69-59.45 18.48-23.64 16.12 17.34 26.62 26.29 8.87 7.55 38.57-32.57 42.91-7.1 4.05 23.77-48.84 53.65-24.47 64.34 17.6 7.73 24.87-28.98 35.31-43.94 11.41-16.32 11.13-56.98-17.44-51.94-12.8 2.26-21.71 13.81-29.4 23.66 3.55-18.19-13.96-31.6-29.91-31.62m-24.94 107.55c-.28-.02-.56-.01-.84.02v-.01c-.32.03-.65.1-.97.18-14.98 9.37-2.68 30.72 7.25 38.38 22.28 18.09 52.17 26.43 77.47 12.57 5.37-23.22-22.94-3.21-32.81-7.5-19.86-3.39-32.57-24.01-44.66-41.12-1.55-1.41-3.47-2.43-5.44-2.52m-8.45 52.24h-.01c-19.924 11.23 1.47 37.77 14.9 43.62 26.05 11.34 54.58 23.48 79.38 6.16 9.41-9.14 1.42-20.42-7.12-10.35-22.58 10.19-47.68-.49-67.03-14.96-8.28-6.19-10.73-20.73-20.12-24.47" fill="#ffffff"/>
  </g>
  <g fill-rule="evenodd" transform="translate(-.00000535 -215.00001)">
   <path d="m256 1c-140.83 0-255 114.17-255 255 0 140.83 114.17 255 255 255 140.83 0 255-114.17 255-255 0-140.83-114.17-255-255-255m8.827 44.931c120.9 0 218.9 98 218.9 218.9 0 120.9-98 218.9-218.9 218.9-120.9 0-218.93-98-218.93-218.9 0-120.9 98.03-218.9 218.93-218.9" fill-opacity=".067"/>
   <g fill-opacity=".129" transform="translate(0 -540.36)">
    <path d="m256 544.79c-138.94 0-251.57 112.63-251.57 251.57 0 138.94 112.63 251.54 251.57 251.54 138.94 0 251.57-112.6 251.57-251.54 0-138.94-112.63-251.57-251.57-251.57m5.885 38.556c120.9 0 218.9 98 218.9 218.9 0 120.9-98 218.9-218.9 218.9-120.9 0-218.93-98-218.93-218.9 0-120.9 98.03-218.9 218.93-218.9"/>
    <path d="m256 548.72c-136.77 0-247.64 110.87-247.64 247.64 0 136.77 110.87 247.64 247.64 247.64 136.77 0 247.64-110.87 247.64-247.64 0-136.77-110.87-247.64-247.64-247.64m2.942 31.691c120.9 0 218.9 98 218.9 218.9 0 120.9-98 218.9-218.9 218.9-120.9 0-218.93-98-218.93-218.9 0-120.9 98.03-218.9 218.93-218.9"/>
   </g>
   <path d="m253.04 7.86c-135.42 0-245.19 109.78-245.19 245.19 0 135.42 109.78 245.19 245.19 245.19 135.42 0 245.19-109.78 245.19-245.19 0-135.42-109.78-245.19-245.19-245.19zm0 26.297c120.9 0 218.9 98 218.9 218.9 0 120.9-98 218.9-218.9 218.9-120.9 0-218.93-98-218.93-218.9 0-120.9 98.03-218.9 218.93-218.9z" fill="#ffffff" stroke="#000000" stroke-opacity=".31" stroke-width="4.904"/>
  </g>
 </g>
</svg>
