<svg viewBox="0 0 512 512" xmlns="http://www.w3.org/2000/svg">
 <g fill-rule="evenodd">
  <path d="m471.95 253.05c0 120.9-98.01 218.91-218.91 218.91-120.9 0-218.91-98.01-218.91-218.91 0-120.9 98.01-218.91 218.91-218.91 120.9 0 218.91 98.01 218.91 218.91" fill="#9f9f9f"/>
  <path d="m256 1c-140.83 0-255 114.17-255 255 0 140.83 114.17 255 255 255 140.83 0 255-114.17 255-255 0-140.83-114.17-255-255-255m8.827 44.931c120.9 0 218.9 98 218.9 218.9 0 120.9-98 218.9-218.9 218.9-120.9 0-218.93-98-218.93-218.9 0-120.9 98.03-218.9 218.93-218.9" fill-opacity=".067"/>
  <g fill-opacity=".129">
   <path d="m256 4.43c-138.94 0-251.57 112.63-251.57 251.57 0 138.94 112.63 251.57 251.57 251.57 138.94 0 251.57-112.63 251.57-251.57 0-138.94-112.63-251.57-251.57-251.57m5.885 38.556c120.9 0 218.9 98 218.9 218.9 0 120.9-98 218.9-218.9 218.9-120.9 0-218.93-98-218.93-218.9 0-120.9 98.03-218.9 218.93-218.9"/>
   <path d="m256 8.36c-136.77 0-247.64 110.87-247.64 247.64 0 136.77 110.87 247.64 247.64 247.64 136.77 0 247.64-110.87 247.64-247.64 0-136.77-110.87-247.64-247.64-247.64m2.942 31.691c120.9 0 218.9 98 218.9 218.9 0 120.9-98 218.9-218.9 218.9-120.9 0-218.93-98-218.93-218.9 0-120.9 98.03-218.9 218.93-218.9"/>
  </g>
  <path d="m253.04 7.86c-135.42 0-245.19 109.78-245.19 245.19 0 135.42 109.78 245.19 245.19 245.19 135.42 0 245.19-109.78 245.19-245.19 0-135.42-109.78-245.19-245.19-245.19m0 26.297c120.9 0 218.9 98 218.9 218.9 0 120.9-98 218.9-218.9 218.9-120.9 0-218.93-98-218.93-218.9 0-120.9 98.03-218.9 218.93-218.9z" fill="#ffffff" stroke="#000000" stroke-opacity=".31" stroke-width="4.904"/>
 </g>
 <path d="m255.99 111.61c-62.2 0-112.62 16.663-112.62 37.22 0 4.083 1.99 8.01 5.666 11.689l24.889 24.889c-3.865-1.366-7.418-2.83-10.631-4.377l-19.662-19.662c-2.01 3.61-3.195 7.388-3.195 11.254v35.17c0 6.83 3.275 13.338 9.191 19.254l29.549 29.549c-7.996-3.047-14.983-6.564-20.738-10.447l-14.479-14.479c.003.005.007.01.01.016l-.016-.016c-2.209 3.758-3.518 7.756-3.518 11.811v35.14c0 6.83 3.27 13.332 9.178 19.24l32.389 32.389c-9.212-3.283-17.19-7.171-23.625-11.516l-14.412-14.412c.003.005.007.01.01.016l-.016-.016c-2.209 3.758-3.518 7.669-3.518 11.75v35.2c0 6.819 3.264 13.311 9.162 19.21l101.46 101.46c.662.006 1.321.025 1.984.025 120.9 0 218.91-98.01 218.91-218.91 0-2.354-.049-4.696-.123-7.03l-108.88-108.88c-14.83-14.83-57.11-25.531-106.96-25.531" opacity=".25"/>
 <path d="m256 111.63c-62.2 0-112.62 16.661-112.62 37.22 0 20.555 50.41 37.22 112.63 37.22 62.2 0 112.59-16.661 112.59-37.22 0-20.555-50.39-37.22-112.59-37.22m-112.37 49.75c-2.01 3.61-3.188 7.384-3.188 11.25v35.16c0 27.16 51.764 49.25 115.53 49.25 63.82 0 115.59-22.11 115.59-49.25v-35.16c0-3.866-1.176-7.64-3.156-11.25-2.209 19.895-51.634 35.813-112.41 35.813-60.776 0-110.13-15.917-112.37-35.813zm.313 70.28c-2.209 3.758-3.5 7.757-3.5 11.813v35.16c0 24.981 43.758 45.549 100.34 48.719 4.548-6.238 13.607-9.189 21.19-7.688-1.077-4.363-7.579-8.585-8.625-14.06-3.03-10.824 6.532-19.261 13.875-25.375 5.59-8.712 18.15-8.807 25.625-2.656 2.886.779 3.513 5.672 6.281 5.375-1.147-6.03.42-13.13 4.25-18.16-14.449 2.776-30.473 4.313-47.37 4.313-54.24 0-99.64-15.953-112.03-37.438h-.031m224.09 0c-6.261 10.85-20.912 20.289-40.875 26.969 1.326.016 2.643.003 3.969-.031 12.664-1.685 20.442 13.03 18.438 24 1.992 1.336 3.593-3.443 5.531-4.188 4.33-4.04 10.718-5.975 16.469-4.938v-30c0-4.054-1.348-8.05-3.531-11.813m-224.06 72.66c-2.209 3.758-3.531 7.669-3.531 11.75v35.22c0 27.16 51.796 49.09 115.56 49.09.703 0 1.393-.026 2.094-.031-.298-.341-.613-.701-.906-1.031-8.711-8.02-3.307-22.499 5.344-28.12-5.233-3.05-12.939-.102-17.781-4.875-7.828-5.9-7.257-16.08-6.938-25.25-45.979-3.098-82.87-17.746-93.84-36.75" fill="#ffffff"/>
 <path d="m315.67 268.58c-3.237 0-5.517 2.354-5.85 5.23l-1.866 16.16c-3.765 1.121-7.362 2.625-10.758 4.455l-12.743-10.1c-2.268-1.797-5.544-1.851-7.834.437l-12.172 12.172c-2.289 2.289-2.169 5.517-.437 7.834l9.784 13.08c-3.618 8.306-4.448 10.643-4.438 10.608l-16.16 1.866c-2.874.333-5.23 2.614-5.23 5.85v17.216c0 3.237 2.365 5.419 5.23 5.834l16.223 2.354c1.123 3.718 2.623 7.267 4.438 10.625l-10.02 12.643c-1.797 2.268-1.851 5.544.437 7.834l12.172 12.172c2.289 2.289 5.498 2.169 7.817.437l13.03-9.734c3.369 1.806 6.929 3.295 10.659 4.404l1.866 16.14c.333 2.874 2.613 5.23 5.85 5.23h17.216c3.237 0 5.419-2.365 5.834-5.23l2.354-16.238c3.625-1.103 7.09-2.558 10.373-4.319l13.162 9.836c2.318 1.732 5.544 1.851 7.834-.437l12.172-12.172c2.289-2.289 2.234-5.566.437-7.834l-10.172-12.827c1.791-3.329 3.276-6.842 4.388-10.524l16.205-2.354c2.864-.415 5.23-2.613 5.23-5.85v-17.216c0-3.237-2.354-5.501-5.23-5.834l-16.189-1.883c-1.099-3.66-2.55-7.161-4.319-10.474l9.902-13.281c1.732-2.318 1.851-5.544-.437-7.834l-12.172-12.172c-2.289-2.289-5.55-2.234-7.817-.437l-12.894 10.221c-3.313-1.788-6.809-3.273-10.474-4.388l-2.354-16.257c-.415-2.864-2.596-5.23-5.834-5.23zm8.675 52.3c13.295 0 24.07 10.78 24.07 24.07 0 13.295-10.78 24.07-24.07 24.07-13.295 0-24.07-10.78-24.07-24.07 0-13.295 10.78-24.07 24.07-24.07" fill="#ffffff"/>
</svg>
