<svg height="512" viewBox="0 0 512 512" width="512" xmlns="http://www.w3.org/2000/svg">
 <path d="m471.95 253.05c0 120.9-98.01 218.9-218.9 218.9-120.9 0-218.9-98.01-218.9-218.9 0-120.9 98.01-218.9 218.9-218.9 120.9 0 218.9 98.01 218.9 218.9" fill="#8f8f8f" fill-rule="evenodd"/>
 <path d="m245.84 113.81c-18.662 0-34.05 14.554-35.438 32.875-3.427 1.387-6.835 2.882-10.219 4.5-23.332 11.159-43.11 26.745-58.22 44.781-2.513-.567-5.132-.906-7.813-.906-19.568 0-35.563 15.963-35.563 35.531 0 10.247 4.385 19.528 11.375 26.03.147.148.288.292.438.438.051.053.105.103.156.156.113.109.229.205.344.313.136.138.268.27.406.406-4.441 22.433-2.272 45.41 7.875 66.63 5.377 11.243 12.561 21.05 21.13 29.375-.702 2.779-1.094 5.664-1.094 8.656 0 10.126 4.289 19.29 11.125 25.781.107.11.204.235.313.344.071.065.148.123.219.188.032.031.062.062.094.094.387.409.782.797 1.188 1.188.267.278.537.543.813.813.379.4.759.805 1.156 1.188.382.398.788.777 1.188 1.156.107.11.204.235.313.344.071.065.148.123.219.188.063.062.124.126.188.188.196.206.393.424.594.625.071.065.148.123.219.188.46.49.919.974 1.406 1.438.222.228.46.434.688.656.379.4.759.805 1.156 1.188.382.398.788.777 1.188 1.156.107.11.204.235.313.344.071.065.148.123.219.188.063.062.124.126.188.188.196.206.393.424.594.625.071.065.148.123.219.188.46.49.919.974 1.406 1.438.222.228.46.434.688.656.324.342.663.671 1 1 .379.4.759.805 1.156 1.188.382.398.788.777 1.188 1.156.107.11.204.235.313.344.071.065.148.123.219.188.46.49.919.974 1.406 1.438.222.228.46.434.688.656.324.342.663.671 1 1 .379.4.759.805 1.156 1.188.382.398.788.777 1.188 1.156.107.11.204.235.313.344.071.065.148.123.219.188.063.062.124.126.188.188.196.206.393.424.594.625.071.065.148.123.219.188.46.49.919.974 1.406 1.438.222.228.46.434.688.656.379.4.759.805 1.156 1.188.382.398.788.777 1.188 1.156.107.11.204.235.313.344.071.065.148.123.219.188.063.062.124.126.188.188.196.206.393.424.594.625.071.065.148.123.219.188.46.49.919.974 1.406 1.438.222.228.46.434.688.656.324.342.663.671 1 1 .437.462.883.906 1.344 1.344.107.11.204.235.313.344.071.065.148.123.219.188.063.062.124.126.188.188.196.206.393.424.594.625.071.065.148.123.219.188.46.49.919.974 1.406 1.438.222.228.46.434.688.656.324.342.663.671 1 1 .379.4.759.805 1.156 1.188.382.398.788.777 1.188 1.156.107.11.204.235.313.344.071.065.148.123.219.188.063.062.124.126.188.188.196.206.393.424.594.625.071.065.148.123.219.188.032.031.062.062.094.094.387.409.782.797 1.188 1.188.267.278.537.543.813.813.379.4.759.805 1.156 1.188.382.398.788.777 1.188 1.156.107.11.204.235.313.344.071.065.148.123.219.188.063.062.124.126.188.188.196.206.393.424.594.625.071.065.148.123.219.188.46.49.919.974 1.406 1.438.222.228.46.434.688.656.379.4.759.805 1.156 1.188.382.398.788.777 1.188 1.156.107.11.204.235.313.344.071.065.148.123.219.188.063.062.124.126.188.188.196.206.393.424.594.625.071.065.148.123.219.188.46.49.919.974 1.406 1.438.222.228.46.434.688.656.324.342.663.671 1 1 .379.4.759.805 1.156 1.188.382.398.788.777 1.188 1.156.107.11.204.235.313.344.071.065.148.123.219.188.46.49.919.974 1.406 1.438.222.228.46.434.688.656.324.342.663.671 1 1 .379.4.759.805 1.156 1.188.382.398.788.777 1.188 1.156.107.11.204.235.313.344.071.065.148.123.219.188.063.062.124.126.188.188.196.206.393.424.594.625.071.065.148.123.219.188.46.49.919.974 1.406 1.438.222.228.46.434.688.656.379.4.759.805 1.156 1.188.382.398.788.777 1.188 1.156.107.11.204.235.313.344.071.065.148.123.219.188.063.062.124.126.188.188.196.206.393.424.594.625.071.065.148.123.219.188.46.49.919.974 1.406 1.438.222.228.46.434.688.656.324.342.663.671 1 1 .437.462.883.906 1.344 1.344.107.11.204.235.313.344.071.065.148.123.219.188.063.062.124.126.188.188.196.206.393.424.594.625.071.065.148.123.219.188.46.49.919.974 1.406 1.438.031.032.062.063.094.094 6.609.601 13.297.938 20.06.938 120.53 0 218.31-97.42 218.91-217.81-.038-.035-.088-.059-.125-.094-.065-.071-.122-.148-.188-.219-.108-.108-.234-.206-.344-.313-.38-.4-.759-.806-1.156-1.188-.49-.509-.981-1.021-1.5-1.5-.335-.334-.652-.679-1-1-.117-.116-.226-.229-.344-.344-.464-.487-.947-.946-1.438-1.406-.065-.071-.122-.148-.188-.219-.263-.263-.541-.527-.813-.781-.065-.071-.122-.148-.188-.219-.108-.108-.234-.206-.344-.313-.545-.574-1.075-1.151-1.656-1.688-.335-.334-.652-.679-1-1-.117-.116-.226-.229-.344-.344-.464-.487-.947-.946-1.438-1.406-.065-.071-.122-.148-.188-.219-.263-.263-.541-.527-.813-.781-.065-.071-.122-.148-.188-.219-.108-.108-.234-.206-.344-.313-.38-.4-.759-.806-1.156-1.188-.49-.509-.981-1.021-1.5-1.5-.117-.116-.226-.229-.344-.344-.464-.487-.947-.946-1.438-1.406-.065-.071-.122-.148-.188-.219-.263-.263-.541-.527-.813-.781-.065-.071-.122-.148-.188-.219-.108-.108-.234-.206-.344-.313-.38-.4-.759-.806-1.156-1.188-.49-.509-.981-1.021-1.5-1.5-.164-.164-.333-.308-.5-.469-.421-.438-.838-.865-1.281-1.281-.065-.071-.122-.148-.188-.219-.263-.263-.541-.527-.813-.781-.065-.071-.122-.148-.188-.219-.108-.108-.234-.206-.344-.313-.38-.4-.759-.806-1.156-1.188-.49-.509-.981-1.021-1.5-1.5-.335-.334-.652-.679-1-1-.117-.116-.226-.229-.344-.344-.464-.487-.947-.946-1.438-1.406-.065-.071-.122-.148-.188-.219-.263-.263-.541-.527-.813-.781-.065-.071-.122-.148-.188-.219-.108-.108-.234-.206-.344-.313-.545-.574-1.075-1.151-1.656-1.688-.335-.334-.652-.679-1-1-.117-.116-.226-.229-.344-.344-.464-.487-.947-.946-1.438-1.406-.065-.071-.122-.148-.188-.219-.263-.263-.541-.527-.813-.781-.065-.071-.122-.148-.188-.219-.108-.108-.234-.206-.344-.313-.38-.4-.759-.806-1.156-1.188-.49-.509-.981-1.021-1.5-1.5-.117-.116-.226-.229-.344-.344-.464-.487-.947-.946-1.438-1.406-.065-.071-.122-.148-.188-.219-.263-.263-.541-.527-.813-.781-.065-.071-.122-.148-.188-.219-.108-.108-.234-.206-.344-.313-.38-.4-.759-.806-1.156-1.188-.49-.509-.981-1.021-1.5-1.5-.335-.334-.652-.679-1-1-.117-.116-.226-.229-.344-.344-.464-.487-.947-.946-1.438-1.406-.065-.071-.122-.148-.188-.219-.108-.108-.234-.206-.344-.313-.38-.4-.759-.806-1.156-1.188-.49-.509-.981-1.021-1.5-1.5-.335-.334-.652-.679-1-1-.117-.116-.226-.229-.344-.344-.464-.487-.947-.946-1.438-1.406-.065-.071-.122-.148-.188-.219-.263-.263-.541-.527-.813-.781-.065-.071-.122-.148-.188-.219-.108-.108-.234-.206-.344-.313-.38-.4-.759-.806-1.156-1.188-.49-.509-.981-1.021-1.5-1.5-.117-.116-.226-.229-.344-.344-.464-.487-.947-.946-1.438-1.406-.065-.071-.122-.148-.188-.219-.263-.263-.541-.527-.813-.781-.065-.071-.122-.148-.188-.219-.108-.108-.234-.206-.344-.313-.38-.4-.759-.806-1.156-1.188-.49-.509-.981-1.021-1.5-1.5-.164-.164-.333-.308-.5-.469-.421-.438-.838-.865-1.281-1.281-.065-.071-.122-.148-.188-.219-.108-.108-.234-.206-.344-.313-6.491-6.836-15.656-11.125-25.781-11.125-1.807 0-3.576.203-5.313.469-.005-.005-.026.005-.031 0-.006-.006.006-.025 0-.031-.011-.01-.021-.021-.031-.031-.246-.243-.501-.478-.75-.719-.086-.091-.163-.191-.25-.281-.246-.243-.501-.478-.75-.719-.087-.091-.163-.19-.25-.281-.236-.233-.481-.457-.719-.688-.099-.101-.182-.212-.281-.313-.063-.062-.124-.126-.188-.188-.448-.452-.888-.9-1.344-1.344-.478-.478-.95-.969-1.438-1.438-.084-.083-.166-.168-.25-.25-21.459-21.611-52.15-33.559-85.5-34.875-.172-.17-.356-.334-.531-.5-.304-.312-.622-.605-.938-.906-.364-.376-.713-.765-1.094-1.125-.263-.269-.51-.552-.781-.813-.29-.302-.606-.584-.906-.875-.458-.481-.922-.952-1.406-1.406-.268-.272-.536-.549-.813-.813-.314-.323-.643-.627-.969-.938-.329-.34-.658-.674-1-1-.329-.34-.658-.674-1-1-6.47-6.684-15.482-10.875-25.469-10.875" fill-opacity=".235"/>
 <g fill-rule="evenodd">
  <path d="m256 1c-140.83 0-255 114.17-255 255s114.17 255 255 255 255-114.17 255-255-114.17-255-255-255m8.827 44.931c120.9 0 218.9 98 218.9 218.9s-98 218.9-218.9 218.9-218.93-98-218.93-218.9 98.03-218.9 218.93-218.9" fill-opacity=".067"/>
  <g fill-opacity=".129">
   <path d="m256 4.433c-138.94 0-251.57 112.63-251.57 251.57s112.63 251.57 251.57 251.57 251.57-112.63 251.57-251.57-112.63-251.57-251.57-251.57m5.885 38.556c120.9 0 218.9 98 218.9 218.9s-98 218.9-218.9 218.9-218.93-98-218.93-218.9 98.03-218.9 218.93-218.9"/>
   <path d="m256 8.356c-136.77 0-247.64 110.87-247.64 247.64s110.87 247.64 247.64 247.64 247.64-110.87 247.64-247.64-110.87-247.64-247.64-247.64m2.942 31.691c120.9 0 218.9 98 218.9 218.9s-98 218.9-218.9 218.9-218.93-98-218.93-218.9 98.03-218.9 218.93-218.9"/>
  </g>
  <path d="m253.04 7.859c-135.42 0-245.19 109.78-245.19 245.19 0 135.42 109.78 245.19 245.19 245.19 135.42 0 245.19-109.78 245.19-245.19 0-135.42-109.78-245.19-245.19-245.19zm0 26.297c120.9 0 218.9 98 218.9 218.9s-98 218.9-218.9 218.9-218.93-98-218.93-218.9 98.03-218.9 218.93-218.9z" fill="#ffffff" stroke="#000000" stroke-opacity=".31" stroke-width="4.904"/>
 </g>
 <g stroke="#ffffff" stroke-linecap="square" stroke-miterlimit="10" transform="matrix(10.154 0 0 10.154 83.38 98.61)">
  <path d="m4.653 21.715c2.553 5.338 10 7.093 16.633 3.92 6.634-3.173 9.942-10.07 7.389-15.409-2.553-5.338-10-7.093-16.633-3.92-6.634 3.173-9.942 10.07-7.389 15.409z" fill="none" stroke-linejoin="round" stroke-width="2.5"/>
  <g fill="#ffffff">
   <path d="m19 5c0 1.657-1.343 3-3 3s-3-1.343-3-3 1.343-3 3-3 3 1.343 3 3z"/>
   <path d="m8 13c0 1.657-1.343 3-3 3s-3-1.343-3-3 1.343-3 3-3 3 1.343 3 3z"/>
   <path d="m12 26c0 1.657-1.343 3-3 3s-3-1.343-3-3 1.343-3 3-3 3 1.343 3 3z"/>
   <path d="m27 24c0 1.657-1.343 3-3 3s-3-1.343-3-3 1.343-3 3-3 3 1.343 3 3z"/>
   <path d="m32 11c0 1.657-1.343 3-3 3s-3-1.343-3-3 1.343-3 3-3 3 1.343 3 3z"/>
  </g>
 </g>
</svg>
