<svg xmlns:rdf="http://www.w3.org/1999/02/22-rdf-syntax-ns#" xmlns="http://www.w3.org/2000/svg" height="512" width="512" version="1.1" xmlns:cc="http://creativecommons.org/ns#" xmlns:dc="http://purl.org/dc/elements/1.1/" viewBox="0 0 512 512">
 <path fill-rule="evenodd" d="m471.95 253.05c0 120.9-98.01 218.9-218.9 218.9-120.9 0-218.9-98.01-218.9-218.9 0-120.9 98.01-218.9 218.9-218.9 120.9 0 218.9 98.01 218.9 218.9" fill="#777777"/>
 <path opacity=".25" d="m89.137 273.03 216.72 188.17c83.49-33.39 174.42-67.98 167.63-264.95l-55.77-56.51c-47.27 69.48-91.51 133.73-142.1 195.25l-150.96-124.6z" fill="#000000"/>
 <g fill-rule="evenodd">
  <path d="m256 1c-140.83 0-255 114.17-255 255s114.17 255 255 255 255-114.17 255-255-114.17-255-255-255m8.827 44.931c120.9 0 218.9 98 218.9 218.9s-98 218.9-218.9 218.9-218.93-98-218.93-218.9 98.03-218.9 218.93-218.9" fill-opacity=".067"/>
  <g fill-opacity=".129">
   <path d="m256 4.433c-138.94 0-251.57 112.63-251.57 251.57s112.63 251.57 251.57 251.57 251.57-112.63 251.57-251.57-112.63-251.57-251.57-251.57m5.885 38.556c120.9 0 218.9 98 218.9 218.9s-98 218.9-218.9 218.9-218.93-98-218.93-218.9 98.03-218.9 218.93-218.9"/>
   <path d="m256 8.356c-136.77 0-247.64 110.87-247.64 247.64s110.87 247.64 247.64 247.64 247.64-110.87 247.64-247.64-110.87-247.64-247.64-247.64m2.942 31.691c120.9 0 218.9 98 218.9 218.9s-98 218.9-218.9 218.9-218.93-98-218.93-218.9 98.03-218.9 218.93-218.9"/>
  </g>
  <path d="m253.04 7.859c-135.42 0-245.19 109.78-245.19 245.19 0 135.42 109.78 245.19 245.19 245.19 135.42 0 245.19-109.78 245.19-245.19 0-135.42-109.78-245.19-245.19-245.19zm0 26.297c120.9 0 218.9 98 218.9 218.9s-98 218.9-218.9 218.9-218.93-98-218.93-218.9 98.03-218.9 218.93-218.9z" stroke-opacity=".31" stroke="#000000" stroke-width="4.904" fill="#ffffff"/>
 </g>
 <path d="m178.49 155.3l1.93 7.988 1.539 8.994c0.973 5.102 1.759 10.395 2.325 15.678 0.93 8.687 1.263 17.349 0.853 25.1-0.168 2.974-0.323 5.792-0.325 6.06-1.652 9.353-4.49 19.21-11.169 25.516-7.122 6.278-16.964 8.786-24.668 9.59l-0.727-0.215c0.134-7.338-1.49-15.04-5.089-22.23-9.901-19.776-30.855-28.19-46.815-18.807-15.96 9.382-20.878 33.02-10.976 52.8 9 17.976 27.14 26.545 42.35 20.915l-0.171 0.324c10.508 13.433 24.693 25.68 36.48 35.1 13.12 10.447 26.894 19.809 40.32 26.349 18.712 8.858 39.03 15.63 57.33 19.08 17.642-0.045 31.357-1.52 43.867-5.352 12.839-3.932 24.409-10.347 37.653-20.247 12.595-12.439 21.846-24.09 29.559-36.654 12.725-22.459 19.864-40.595 25.939-61.822 5.368-18.929 8.934-33.55 11.752-50.566 3.242-17.374 3.527-36.789 7.857-52.828-15.864 15.776-16.938 20.1-35.572 38.624-10.904 10.783-22.335 19.666-36.817 23.988-3.242-6.16-8.01-9.365-13.02-13.273-9.79-7.68-22.15-13.319-33.14-16.273-10.166-2.619-20.625-3.66-29.884-3.574-11.855 0.501-22.735 1.868-33.25 5.629-6.292 2.298-12.491 5.134-19.13 7.941l-16.406-11.949-11.293-7.946-11.316-7.943" fill="#ffffff"/>
</svg>
