<svg height="512" viewBox="0 0 512 512" width="512" xmlns="http://www.w3.org/2000/svg">
 <path d="m471.95 253.05c0 120.9-98.006 218.91-218.91 218.91s-218.91-98.006-218.91-218.91 98.006-218.91 218.91-218.91 218.91 98.006 218.91 218.91" fill="#b0b0b0" fill-rule="evenodd"/>
 <path d="m256 1c-140.83 0-255 114.17-255 255s114.17 255 255 255 255-114.17 255-255-114.17-255-255-255m8.827 44.931c120.9 0 218.9 98 218.9 218.9s-98 218.9-218.9 218.9-218.93-98-218.93-218.9 98.03-218.9 218.93-218.9" fill-opacity=".067" fill-rule="evenodd"/>
 <path d="m256 4.43c-138.94 0-251.57 112.63-251.57 251.57s112.63 251.57 251.57 251.57 251.57-112.63 251.57-251.57-112.63-251.57-251.57-251.57m5.885 38.556c120.9 0 218.9 98 218.9 218.9s-98 218.9-218.9 218.9-218.93-98-218.93-218.9 98.03-218.9 218.93-218.9" fill-opacity=".129" fill-rule="evenodd"/>
 <path d="m256 8.36c-136.77 0-247.64 110.87-247.64 247.64s110.87 247.64 247.64 247.64 247.64-110.87 247.64-247.64-110.87-247.64-247.64-247.64m2.942 31.691c120.9 0 218.9 98 218.9 218.9s-98 218.9-218.9 218.9-218.93-98-218.93-218.9 98.03-218.9 218.93-218.9" fill-opacity=".129" fill-rule="evenodd"/>
 <path d="m253.04 7.86c-135.42 0-245.19 109.78-245.19 245.19 0 135.42 109.78 245.19 245.19 245.19 135.42 0 245.19-109.78 245.19-245.19 0-135.42-109.78-245.19-245.19-245.19zm0 26.297c120.9 0 218.9 98 218.9 218.9s-98 218.9-218.9 218.9-218.93-98-218.93-218.9 98.03-218.9 218.93-218.9z" fill="#ffffff" fill-rule="evenodd" stroke="#000000" stroke-opacity=".31" stroke-width="4.904"/>
 <path d="m323.13 110.23l-88.32 23.05 14.86 14.86c-6.12 10.67-11.15 21.2-15.2 31.6l-126.41 72.23 145.48 149.8 61.32 61.32c88.99-26.15 154.44-107.3 157.01-204.13z" opacity=".25"/>
 <path d="m323.13 110.23l-88.322 23.057 19.278 7.4309c-8.1946 13.217-14.629 26.219-19.618 39.023l-126.41 72.229 145.48 149.81 150.4-149.21-109.38-59.66 16.178-21.741 28.577 18.641zm-93.885 84.67c-15.197 49.343-10.605 96.113-5.5626 142.84l-91.379-88.28zm60.891 5.7749c87.423 51.555 27.59 16.196 87.515 51.422l-122.19 109.47c-.12188-1.8256-.14961-3.6556-.25476-5.4777 12.05-76.762 12.664-99.253 34.947-155.41z" fill="#ffffff"/>
</svg>
