<svg height="512" viewBox="0 0 512 512" width="512" xmlns="http://www.w3.org/2000/svg">
 <path d="m471.95 253.05c0 120.9-98.006 218.91-218.91 218.91s-218.91-98.006-218.91-218.91 98.006-218.91 218.91-218.91 218.91 98.006 218.91 218.91" fill="#878787" fill-rule="evenodd"/>
 <path d="m254.06 120.19c-29.385 0-54.573 10.1-75.562 30.25-20.989 19.87-32.731 44.49-35.25 73.875-1.1194 13.713.55355 25.328 5.0312 34.844 2.0442 4.0876 4.596 7.5258 7.6562 10.344.5119.53792 1.0187 1.0645 1.5625 1.5625.41751.43531.84265.8723 1.2812 1.2812.48457.5149.98651 1.0212 1.5 1.5.52985.5629 1.0606 1.1053 1.625 1.625.5119.53792 1.0187 1.0645 1.5625 1.5625.41751.43531.84265.8723 1.2812 1.2812.48457.5149.98652 1.0212 1.5 1.5.52985.5629 1.0606 1.1053 1.625 1.625.5119.53792 1.0187 1.0645 1.5625 1.5625.41751.43531.84265.8723 1.2812 1.2812.48457.5149.98652 1.0212 1.5 1.5.48457.5149.98652 1.0212 1.5 1.5.39222.41668.77634.82573 1.1875 1.2188.01.0108.0213.0205.0312.0312.0855.0815.16366.16949.25.25.5514.58591 1.1299 1.1484 1.7188 1.6875.41751.43531.84265.8723 1.2812 1.2812.48457.5149.98652 1.0212 1.5 1.5.39222.41668.77634.82573 1.1875 1.2188.01.0108.0213.0205.0312.0312.0855.0815.16366.16949.25.25.5514.58591 1.1299 1.1484 1.7188 1.6875.41751.43531.84265.8723 1.2812 1.2812.48457.5149.98652 1.0212 1.5 1.5.56021.59515 1.1199 1.1719 1.7188 1.7188-3.0944 1.9378-5.8992 3.8431-8.4375 5.6562-19.31 13.993-29.663 28.828-31.062 44.5-1.2901 13.905 1.6795 24.217 8.9062 31 .54165.59675 1.12 1.1697 1.7188 1.7188.48459.52058 1.0023 1.0165 1.5312 1.5.44506.47733.89258.96016 1.375 1.4062.43069.4671.87763.90628 1.3438 1.3438.54165.59675 1.12 1.1697 1.7188 1.7188.43711.46957.90178.93562 1.375 1.375.48576.5289 1.0002 1.0402 1.5312 1.5312.48025.52085.9757 1.016 1.5 1.5.50008.54235 1.0147 1.0601 1.5625 1.5625.43711.46957.90178.93562 1.375 1.375.48576.5289 1.0002 1.0402 1.5312 1.5312.48025.52085.9757 1.016 1.5 1.5.45051.4886.91697.95007 1.4062 1.4062.48577.53134.99997 1.038 1.5312 1.5312.48576.5289 1.0002 1.0402 1.5312 1.5312.48025.52085.9757 1.016 1.5 1.5.43068.4671.87763.90628 1.3438 1.3438.54165.59675 1.12 1.1697 1.7188 1.7188.48459.52058 1.0023 1.0165 1.5312 1.5.44506.47733.89258.96016 1.375 1.4062.43068.4671.87763.90628 1.3438 1.3438.54165.59675 1.12 1.1697 1.7188 1.7188.48459.52058 1.0023 1.0165 1.5312 1.5.44506.47733.89258.96016 1.375 1.4062.43068.4671.87763.90628 1.3438 1.3438.54165.59675 1.12 1.1697 1.7188 1.7188.43711.46957.90178.93562 1.375 1.375.48576.5289 1.0002 1.0402 1.5312 1.5312.48025.52085.9757 1.016 1.5 1.5.50007.54235 1.0147 1.0601 1.5625 1.5625.43711.46957.90178.93562 1.375 1.375.48576.5289 1.0002 1.0402 1.5312 1.5312.48025.52085.9757 1.016 1.5 1.5.50007.54235 1.0147 1.0601 1.5625 1.5625.43711.46957.90178.93562 1.375 1.375.48576.5289 1.0002 1.0402 1.5312 1.5312.48025.52085.9757 1.016 1.5 1.5.43068.4671.87764.90628 1.3438 1.3438.54165.59675 1.12 1.1697 1.7188 1.7188.48459.52058 1.0023 1.0165 1.5312 1.5.4123.4422.83688.86587 1.2812 1.2812.46288.50806.93313.99538 1.4375 1.4688.54165.59675 1.12 1.1697 1.7188 1.7188.48459.52058 1.0023 1.0165 1.5312 1.5.44506.47733.89258.96016 1.375 1.4062.43068.4671.87764.90628 1.3438 1.3438.54165.59675 1.12 1.1697 1.7188 1.7188.48459.52058 1.0023 1.0165 1.5312 1.5.44506.47733.89258.96016 1.375 1.4062.48025.52085.9757 1.016 1.5 1.5.50007.54235 1.0147 1.0601 1.5625 1.5625.43711.46957.90178.93562 1.375 1.375.48576.5289 1.0002 1.0402 1.5312 1.5312.48025.52085.9757 1.016 1.5 1.5.50007.54235 1.0147 1.0601 1.5625 1.5625.43711.46957.90178.93562 1.375 1.375.48576.5289 1.0002 1.0402 1.5312 1.5312.48025.52085.9757 1.016 1.5 1.5.43068.4671.87764.90628 1.3438 1.3438.53181.5859 1.1004 1.1476 1.6875 1.6875 2.1588.0629 4.326.125 6.5.125 108.07 0 197.85-78.316 215.69-181.28-.37062-.40178-.76683-.79649-1.2188-1.1875-.43327-.50207-.93549-1.0129-1.5-1.5-.0187-.0217-.0436-.0409-.0625-.0625-.0228-.0194-.0395-.0431-.0625-.0625-.4099-.4617-.85355-.92604-1.375-1.375-.40163-.46541-.86059-.92247-1.375-1.375-.45231-.5385-.99119-1.0724-1.5938-1.5938-.43258-.50127-.9366-1.0137-1.5-1.5-.009-.0108-.0218-.0204-.0312-.0312-.0346-.0297-.0586-.0641-.0937-.0937-.4099-.4617-.85355-.92604-1.375-1.375-.40163-.46541-.86059-.92247-1.375-1.375-.45231-.5385-.99119-1.0724-1.5938-1.5938-.42878-.49687-.94268-1.0178-1.5-1.5-.43683-.5062-.92976-1.009-1.5-1.5-.43683-.5062-.92976-1.009-1.5-1.5-.42803-.496-.91263-.98738-1.4688-1.4688-.42878-.49687-.94268-1.0178-1.5-1.5-.43683-.5062-.92976-1.009-1.5-1.5-.43683-.5062-.92976-1.009-1.5-1.5-.40163-.46541-.86059-.92247-1.375-1.375-.45231-.5385-.99118-1.0724-1.5938-1.5938-.43327-.50207-.93549-1.0129-1.5-1.5-.0187-.0217-.0436-.0409-.0625-.0625-.0228-.0194-.0395-.0431-.0625-.0625-.4099-.4617-.85355-.92604-1.375-1.375-.40163-.46541-.86059-.92247-1.375-1.375-.45231-.5385-.99118-1.0724-1.5938-1.5938-.43327-.50207-.93549-1.0129-1.5-1.5-.0187-.0217-.0436-.0409-.0625-.0625-.0228-.0194-.0395-.0431-.0625-.0625-.4099-.4617-.85355-.92604-1.375-1.375-.40163-.46541-.86059-.92247-1.375-1.375-.45231-.5385-.99118-1.0724-1.5938-1.5938-.43327-.50207-.93549-1.0129-1.5-1.5-.0187-.0216-.0436-.0409-.0625-.0625-.0228-.0194-.0395-.0431-.0625-.0625-.4099-.4617-.85355-.92604-1.375-1.375-.40163-.46541-.86059-.92247-1.375-1.375-.45231-.5385-.99118-1.0724-1.5938-1.5938-.42878-.49687-.94268-1.0178-1.5-1.5-.43683-.5062-.92976-1.009-1.5-1.5-.43683-.5062-.92976-1.009-1.5-1.5-.42803-.496-.91263-.98738-1.4688-1.4688-.42878-.49687-.94268-1.0178-1.5-1.5-.43683-.5062-.92976-1.009-1.5-1.5-.43683-.5062-.92976-1.009-1.5-1.5-.40163-.46541-.86059-.92247-1.375-1.375-.45231-.5385-.99118-1.0724-1.5938-1.5938-.43683-.5062-.92976-1.009-1.5-1.5-.43683-.5062-.92976-1.009-1.5-1.5-.40163-.46541-.86059-.92247-1.375-1.375-.45231-.5385-.99118-1.0724-1.5938-1.5938-.43327-.50207-.93549-1.0129-1.5-1.5-.0187-.0216-.0436-.0409-.0625-.0625-.0228-.0194-.0395-.0431-.0625-.0625-.4099-.4617-.85354-.92604-1.375-1.375-.40163-.46541-.86059-.92247-1.375-1.375-.45231-.5385-.99118-1.0724-1.5938-1.5938-.43327-.50207-.93549-1.0129-1.5-1.5-.0187-.0216-.0436-.0409-.0625-.0625-.0228-.0194-.0395-.0431-.0625-.0625-.4099-.4617-.85354-.92604-1.375-1.375-.40163-.46541-.86059-.92247-1.375-1.375-.45231-.5385-.99118-1.0724-1.5938-1.5938-.43258-.50127-.93659-1.0137-1.5-1.5-.009-.0108-.0218-.0204-.0312-.0312-.0346-.0298-.0586-.0641-.0937-.0937-.4099-.4617-.85354-.92604-1.375-1.375-.43683-.5062-.92976-1.009-1.5-1.5-.42803-.496-.91263-.98738-1.4688-1.4688-.42878-.49687-.94268-1.0178-1.5-1.5-.43683-.5062-.92976-1.009-1.5-1.5-.43683-.5062-.92976-1.009-1.5-1.5-.40163-.46541-.86059-.92247-1.375-1.375-.45231-.5385-.99118-1.0724-1.5938-1.5938-.43683-.5062-.92976-1.009-1.5-1.5-.43683-.5062-.92976-1.009-1.5-1.5-.40163-.46541-.86059-.92247-1.375-1.375-.45231-.5385-.99118-1.0724-1.5938-1.5938-.43327-.50207-.93549-1.0129-1.5-1.5-.0187-.0216-.0436-.0409-.0625-.0625-.0228-.0194-.0395-.0431-.0625-.0625-.4099-.4617-.85354-.92604-1.375-1.375-.40163-.46541-.86059-.92247-1.375-1.375-.45231-.5385-.99118-1.0724-1.5938-1.5938-.43327-.50207-.93549-1.0129-1.5-1.5-.0187-.0216-.0436-.0409-.0625-.0625-.0228-.0194-.0395-.0431-.0625-.0625-.4099-.4617-.85354-.92604-1.375-1.375-.40163-.46541-.86059-.92247-1.375-1.375-.45231-.5385-.99118-1.0724-1.5938-1.5938-.43258-.50127-.93659-1.0137-1.5-1.5-.009-.0108-.0218-.0204-.0312-.0312-.0346-.0298-.0586-.0641-.0937-.0937-.4099-.4617-.85354-.92604-1.375-1.375-.40163-.46541-.86059-.92247-1.375-1.375-.45231-.5385-.99118-1.0724-1.5938-1.5938-.42878-.49687-.94268-1.0178-1.5-1.5-.43683-.5062-.92976-1.009-1.5-1.5-.43683-.5062-.92976-1.009-1.5-1.5-.42803-.496-.91263-.98738-1.4688-1.4688-.42879-.49687-.94268-1.0178-1.5-1.5-.43683-.5062-.92976-1.009-1.5-1.5-.43683-.5062-.92976-1.009-1.5-1.5-.40163-.46541-.86059-.92247-1.375-1.375-.45231-.5385-.99118-1.0724-1.5938-1.5938-.43327-.50207-.93549-1.0129-1.5-1.5-.0187-.0216-.0436-.0409-.0625-.0625-.0228-.0194-.0395-.0431-.0625-.0625-.4099-.4617-.85354-.92604-1.375-1.375-.40164-.46541-.86059-.92247-1.375-1.375-.45231-.5385-.99118-1.0724-1.5938-1.5938-.43327-.50207-.93549-1.0129-1.5-1.5-.0187-.0216-.0436-.0409-.0625-.0625-.0228-.0194-.0395-.0431-.0625-.0625-.4099-.4617-.85354-.92604-1.375-1.375-.40164-.46541-.86059-.92247-1.375-1.375-.45232-.5385-.99118-1.0724-1.5938-1.5938-.43327-.50207-.93549-1.0129-1.5-1.5-.0187-.0216-.0436-.0409-.0625-.0625-.0228-.0194-.0395-.0431-.0625-.0625-.4099-.4617-.85354-.92604-1.375-1.375-.40164-.46541-.86059-.92247-1.375-1.375-.45232-.5385-.99118-1.0724-1.5938-1.5938-.42879-.49687-.94268-1.0178-1.5-1.5-.43683-.5062-.92976-1.009-1.5-1.5-.43684-.5062-.92976-1.009-1.5-1.5-.42804-.49601-.91263-.98737-1.4688-1.4688-.42879-.49687-.94268-1.0178-1.5-1.5-.43683-.5062-.92976-1.009-1.5-1.5-.43684-.5062-.92976-1.009-1.5-1.5-3.2752-3.7953-10.288-7.155-21.062-10.094-12.314-3.6378-25.192-5.4688-38.625-5.4688z" opacity=".25"/>
 <path d="m256 1c-140.83 0-255 114.17-255 255s114.17 255 255 255 255-114.17 255-255-114.17-255-255-255m8.827 44.931c120.9 0 218.9 98 218.9 218.9s-98 218.9-218.9 218.9-218.93-98-218.93-218.9 98.03-218.9 218.93-218.9" fill-opacity=".067" fill-rule="evenodd"/>
 <path d="m256 4.43c-138.94 0-251.57 112.63-251.57 251.57s112.63 251.57 251.57 251.57 251.57-112.63 251.57-251.57-112.63-251.57-251.57-251.57m5.885 38.556c120.9 0 218.9 98 218.9 218.9s-98 218.9-218.9 218.9-218.93-98-218.93-218.9 98.03-218.9 218.93-218.9" fill-opacity=".129" fill-rule="evenodd"/>
 <path d="m256 8.36c-136.77 0-247.64 110.87-247.64 247.64s110.87 247.64 247.64 247.64 247.64-110.87 247.64-247.64-110.87-247.64-247.64-247.64m2.942 31.691c120.9 0 218.9 98 218.9 218.9s-98 218.9-218.9 218.9-218.93-98-218.93-218.9 98.03-218.9 218.93-218.9" fill-opacity=".129" fill-rule="evenodd"/>
 <path d="m253.04 7.86c-135.42 0-245.19 109.78-245.19 245.19 0 135.42 109.78 245.19 245.19 245.19 135.42 0 245.19-109.78 245.19-245.19 0-135.42-109.78-245.19-245.19-245.19zm0 26.297c120.9 0 218.9 98 218.9 218.9s-98 218.9-218.9 218.9-218.93-98-218.93-218.9 98.03-218.9 218.93-218.9z" fill="#ffffff" fill-rule="evenodd" stroke="#000000" stroke-opacity=".31" stroke-width="4.904"/>
 <path d="m369.09 217.59q-23.09 24.77-78.92 52.89-34.42 121.32-101.17 121.32-44.917 0-41.139-40.72 2.0989-23.508 31.064-44.497 20.569-14.693 65.486-34.842 5.0374-15.112 7.9759-28.126-33.583 35.682-69.684 35.262-24.767-.42327-34.422-19.73-6.7166-14.273-5.0374-34.842 3.778-44.077 35.262-73.881 31.48-30.22 75.56-30.22 20.15 0 38.62 5.4567 18.47 5.0378 22.249 11.754-5.877 39.46-19.31 111.24 47.436-22.668 66.746-41.978l6.7166 10.914zm-114.6-42.82q.41983-7.5563-2.9385-11.754-2.9385-4.6172-10.914-4.1974-16.791.83773-31.904 24.347-12.594 20.15-13.433 35.262-.83958 15.531 13.853 15.531 14.692 0 29.805-22.248 14.273-20.569 15.532-36.941zm-22.668 123.84q-36.941 18.051-37.781 28.965-.41975 5.8773 6.2968 5.8773 12.174 0 31.484-34.842z" fill="#ffffff"/>
</svg>
