<svg height="512" viewBox="0 0 512 512" width="512" xmlns="http://www.w3.org/2000/svg">
 <path d="m471.95 253.05c0 120.9-98.01 218.9-218.9 218.9-120.9 0-218.9-98.01-218.9-218.9 0-120.9 98.01-218.9 218.9-218.9 120.9 0 218.9 98.01 218.9 218.9" fill="#878787" fill-rule="evenodd"/>
 <path d="m171.94 177.06c-40.876 0-73.78 32.937-73.78 73.813v10.25c0 20.845 8.567 39.631 22.375 53.03.062.063.125.125.188.188.154.148.314.291.469.438.32.327.643.648.969.969.257.263.52.522.781.781.421.434.819.889 1.25 1.313.33.337.664.67 1 1 .428.437.874.855 1.313 1.281.253.255.524.499.781.75.263.268.514.549.781.813.272.279.567.538.844.813.421.434.819.889 1.25 1.313.33.337.664.67 1 1 .428.437.874.855 1.313 1.281.253.255.524.499.781.75.289.294.581.586.875.875.242.248.473.506.719.75.426.439.845.884 1.281 1.313.33.337.664.67 1 1 .423.431.879.829 1.313 1.25.259.261.519.524.781.781.289.294.581.586.875.875.242.248.473.506.719.75.426.439.845.884 1.281 1.313.33.337.664.67 1 1 .33.337.664.67 1 1 .428.437.874.855 1.313 1.281.062.063.125.125.188.188.154.148.314.291.469.438.32.327.643.648.969.969.257.263.52.522.781.781.421.434.819.889 1.25 1.313.33.337.664.67 1 1 .428.437.874.855 1.313 1.281.253.255.524.499.781.75.289.294.581.586.875.875.248.253.498.5.75.75.421.434.819.889 1.25 1.313.33.337.664.67 1 1 .423.431.879.829 1.313 1.25.259.261.519.524.781.781.289.294.581.586.875.875.242.248.473.506.719.75.426.439.845.884 1.281 1.313.33.337.664.67 1 1 .33.337.664.67 1 1 .428.437.874.855 1.313 1.281.062.063.125.125.188.188.154.148.314.291.469.438.32.327.643.648.969.969.257.263.52.522.781.781.421.434.819.889 1.25 1.313.33.337.664.67 1 1 .428.437.874.855 1.313 1.281.253.255.524.499.781.75.263.268.514.549.781.813.272.279.567.538.844.813.421.434.819.889 1.25 1.313.33.337.664.67 1 1 .428.437.874.855 1.313 1.281.253.255.524.499.781.75.289.294.581.586.875.875.242.248.473.506.719.75.426.439.845.884 1.281 1.313.33.337.664.67 1 1 .423.431.879.829 1.313 1.25.259.261.519.524.781.781.289.294.581.586.875.875.242.248.473.506.719.75.426.439.845.884 1.281 1.313.33.337.664.67 1 1 .33.337.664.67 1 1 .428.437.874.855 1.313 1.281.062.063.125.125.188.188.154.148.314.291.469.438.32.327.643.648.969.969.257.263.52.522.781.781.421.434.819.889 1.25 1.313.33.337.664.67 1 1 .428.437.874.855 1.313 1.281.253.255.524.499.781.75.289.294.581.586.875.875.248.253.498.5.75.75.421.434.819.889 1.25 1.313.33.337.664.67 1 1 .423.431.879.829 1.313 1.25.259.261.519.524.781.781.289.294.581.586.875.875.242.248.473.506.719.75.426.439.845.884 1.281 1.313.33.337.664.67 1 1 .33.337.664.67 1 1 .428.437.874.855 1.313 1.281.062.063.125.125.188.188.154.148.314.291.469.438.32.327.643.648.969.969.257.263.52.522.781.781.421.434.819.889 1.25 1.313.33.337.664.67 1 1 .428.437.874.855 1.313 1.281.253.255.524.499.781.75.263.268.514.549.781.813.272.279.567.538.844.813.421.434.819.889 1.25 1.313.33.337.664.67 1 1 .428.437.874.855 1.313 1.281.253.255.524.499.781.75.289.294.581.586.875.875.242.248.473.506.719.75.426.439.845.884 1.281 1.313.33.337.664.67 1 1 .423.431.879.829 1.313 1.25.259.261.519.524.781.781.289.294.581.586.875.875.242.248.473.506.719.75.426.439.845.884 1.281 1.313.33.337.664.67 1 1 .33.337.664.67 1 1 .428.437.874.855 1.313 1.281.062.063.125.125.188.188.154.148.314.291.469.438.32.327.643.648.969.969.257.263.52.522.781.781.421.434.819.889 1.25 1.313.33.337.664.67 1 1 .428.437.874.855 1.313 1.281.253.255.524.499.781.75.289.294.581.586.875.875.248.253.498.5.75.75.421.434.819.889 1.25 1.313.33.337.664.67 1 1 .423.431.879.829 1.313 1.25.259.261.519.524.781.781.289.294.581.586.875.875.242.248.473.506.719.75.426.439.845.884 1.281 1.313.33.337.664.67 1 1 .423.431.879.829 1.313 1.25.259.261.519.524.781.781.289.294.581.586.875.875.32.327.643.648.969.969.257.263.52.522.781.781.421.434.819.889 1.25 1.313.33.337.664.67 1 1 .428.437.874.855 1.313 1.281.253.255.524.499.781.75.263.268.514.549.781.813.272.279.567.538.844.813.421.434.819.889 1.25 1.313.33.337.664.67 1 1 .428.437.874.855 1.313 1.281.253.255.524.499.781.75.289.294.581.586.875.875.242.248.473.506.719.75.426.439.845.884 1.281 1.313.33.337.664.67 1 1 .423.431.879.829 1.313 1.25.259.261.519.524.781.781.289.294.581.586.875.875.242.248.473.506.719.75.426.439.845.884 1.281 1.313.33.337.664.67 1 1 .33.337.664.67 1 1 .428.437.874.855 1.313 1.281.062.063.125.125.188.188.021.02.041.042.063.063 101.75-11.07 182.54-91.84 193.63-193.59-.409-.424-.798-.868-1.219-1.281-.33-.337-.664-.67-1-1-.49-.5-.996-.983-1.5-1.469-.192-.192-.4-.373-.594-.563-.32-.326-.642-.649-.969-.969-.147-.155-.289-.315-.438-.469-.062-.063-.125-.125-.188-.188-.426-.439-.845-.884-1.281-1.313-.33-.337-.664-.67-1-1-.49-.5-.996-.983-1.5-1.469-.192-.192-.4-.373-.594-.563-.32-.326-.642-.649-.969-.969-.289-.295-.581-.585-.875-.875-.257-.263-.52-.522-.781-.781-.421-.434-.819-.889-1.25-1.313-.33-.337-.664-.67-1-1-.49-.5-.996-.983-1.5-1.469-.182-.182-.378-.351-.563-.531-.289-.295-.581-.585-.875-.875-.257-.263-.52-.522-.781-.781-.421-.434-.819-.889-1.25-1.313-.33-.337-.664-.67-1-1-.49-.5-.996-.983-1.5-1.469-.192-.192-.4-.373-.594-.563-.32-.326-.642-.649-.969-.969-.147-.155-.289-.315-.438-.469-.068-.068-.15-.12-.219-.188-.421-.434-.819-.889-1.25-1.313-.33-.337-.664-.67-1-1-.49-.5-.996-.983-1.5-1.469-.192-.192-.4-.373-.594-.563-.32-.326-.642-.649-.969-.969-.147-.155-.289-.315-.438-.469-.062-.063-.125-.125-.188-.188-.426-.439-.845-.884-1.281-1.313-.33-.337-.664-.67-1-1-.33-.337-.664-.67-1-1-.49-.5-.996-.983-1.5-1.469-.182-.182-.378-.351-.563-.531-.289-.294-.581-.585-.875-.875-.257-.263-.52-.522-.781-.781-.421-.434-.819-.889-1.25-1.313-.33-.337-.664-.67-1-1-.49-.5-.996-.983-1.5-1.469-.207-.207-.416-.42-.625-.625-.264-.268-.545-.518-.813-.781-.257-.263-.52-.522-.781-.781-.421-.434-.819-.889-1.25-1.313-.33-.337-.664-.67-1-1-.49-.5-.996-.983-1.5-1.469-.192-.192-.4-.373-.594-.563-.32-.326-.642-.649-.969-.969-.147-.155-.289-.315-.438-.469-.062-.063-.125-.125-.188-.188-.426-.439-.845-.884-1.281-1.313-.33-.337-.664-.67-1-1-.49-.5-.996-.983-1.5-1.469-.192-.192-.4-.373-.594-.563-.32-.326-.642-.649-.969-.969-.147-.155-.289-.315-.438-.469-.062-.063-.125-.125-.188-.188-.426-.439-.845-.884-1.281-1.313-.33-.337-.664-.67-1-1-.33-.337-.664-.67-1-1-.49-.5-.996-.983-1.5-1.469-.182-.182-.378-.351-.563-.531-.289-.294-.581-.585-.875-.875-.257-.263-.52-.522-.781-.781-.421-.434-.819-.889-1.25-1.313-.33-.337-.664-.67-1-1-.49-.5-.996-.983-1.5-1.469-.192-.192-.4-.373-.594-.563-.32-.326-.642-.649-.969-.969-.147-.155-.289-.315-.438-.469-.068-.068-.15-.12-.219-.188-.421-.434-.819-.889-1.25-1.313-.33-.337-.664-.67-1-1-.49-.5-.996-.983-1.5-1.469-.192-.192-.4-.373-.594-.563-.32-.326-.642-.649-.969-.969-.147-.155-.289-.315-.438-.469-.062-.063-.125-.125-.188-.188-.426-.439-.845-.884-1.281-1.313-.33-.337-.664-.67-1-1-.33-.337-.664-.67-1-1-13.373-13.639-32.03-22.06-52.719-22.06h-168.12" fill-opacity=".235"/>
 <g fill-rule="evenodd">
  <path d="m256 1c-140.83 0-255 114.17-255 255s114.17 255 255 255 255-114.17 255-255-114.17-255-255-255m8.827 44.931c120.9 0 218.9 98 218.9 218.9s-98 218.9-218.9 218.9-218.93-98-218.93-218.9 98.03-218.9 218.93-218.9" fill-opacity=".067"/>
  <g fill-opacity=".129">
   <path d="m256 4.433c-138.94 0-251.57 112.63-251.57 251.57s112.63 251.57 251.57 251.57 251.57-112.63 251.57-251.57-112.63-251.57-251.57-251.57m5.885 38.556c120.9 0 218.9 98 218.9 218.9s-98 218.9-218.9 218.9-218.93-98-218.93-218.9 98.03-218.9 218.93-218.9"/>
   <path d="m256 8.356c-136.77 0-247.64 110.87-247.64 247.64s110.87 247.64 247.64 247.64 247.64-110.87 247.64-247.64-110.87-247.64-247.64-247.64m2.942 31.691c120.9 0 218.9 98 218.9 218.9s-98 218.9-218.9 218.9-218.93-98-218.93-218.9 98.03-218.9 218.93-218.9"/>
  </g>
  <path d="m253.04 7.859c-135.42 0-245.19 109.78-245.19 245.19 0 135.42 109.78 245.19 245.19 245.19 135.42 0 245.19-109.78 245.19-245.19 0-135.42-109.78-245.19-245.19-245.19zm0 26.297c120.9 0 218.9 98 218.9 218.9s-98 218.9-218.9 218.9-218.93-98-218.93-218.9 98.03-218.9 218.93-218.9z" fill="#ffffff" stroke="#000000" stroke-opacity=".31" stroke-width="4.904"/>
 </g>
 <path d="m171.93945 177.06055c-40.876 0-73.779294 32.9365-73.779294 73.8125v10.25c0 40.876 32.905294 73.8125 73.779294 73.8125h168.13086c40.876 0 73.7793-32.9365 73.7793-73.8125v-10.25c0-40.876-32.9053-73.8125-73.7793-73.8125h-168.12109zm53.99805 11.63476c4.34121.11837 7.95662 1.66192 9.5293 4.70899 2.92436 5.65478-1.00577 15.64096-9.56446 24.72461-7.92294 8.38305-16.51423 12.5053-21.22851 10.03906-2.53142-1.33383-5.17466-5.60328-5.83203-9.10352-1.27381-6.80879 3.47811-18.9866 9.33008-23.79101 4.77607-3.91088 10.69599-6.31255 15.86328-6.54297.64592-.04102 1.28217-.05207 1.90234-.03516zm-44.12695 5.40039c4.38538-.00215 6.95412 2.90648 7.69922 8.86524.91129 7.29187-3.48623 18.18709-8.16602 19.83984-2.82513.97712-2.87979 1.08959-5.13086 0-3.02733-1.46122-5.35719-7.39598-5.36719-13.99023-.02766-9.64144 3.77592-14.71485 10.96485-14.71485zm153.13867 3.9336c32.02 0 57.9707 25.95275 57.9707 57.96875 0 32.02-25.9547 57.96875-57.9707 57.96875-32.02 0-57.96875-25.95275-57.96875-57.96875 0-32.02 25.95275-57.96875 57.96875-57.96875zm-180.8457 5.67382c3.75027.01571 7.19349 4.22006 8.57812 11.7129.96839 5.24098.07631 10.02133-2.79883 13.06054-2.65416 2.9587-4.76841 2.7581-7.69922-.30859-3.91843-4.13602-5.34183-7.30515-5.36523-13.08399-.03128-4.88616.00301-6.27437 2.56641-8.86328 1.27154-1.26063 2.61973-2.19527 3.96484-2.32422v-.14062c.25223-.03646.50389-.05378.75391-.05274zm-20.03125 17.60938c3.92344-.09082 7.75786 3.86841 9.24609 10.56641 2.23091 9.88177-3.03814 15.30202-9.56445 9.55859-5.46736-4.77917-7.87763-14.27554-4.4336-17.70117 1.31237-1.31769 2.57122-2.20082 3.9668-2.35156.26168-.04245.52359-.06622.78516-.07227zm59.16992 12.67773c13.86404.2462 23.50511 5.41771 24.49609 14.23633.95905 8.50018-5.49536 16.20626-24.26367 28.91602-13.32324 9.00791-18.66211 13.95216-18.66211 17.24414 0 4.78548 5.92024 9.3457 11.66406 9.3457 3.62392 0 5.39533-1.95929 6.99805-7.47461 2.12202-7.28907 6.46087-9.74183 16.79687-9.80273 7.23994-.04468 9.46527 1.48968 9.79883 7.24023.19478 3.36028-.12224 5.08868-2.09961 9.10938-3.24141 6.58618-10.81426 14.17688-17.49609 17.49023-4.55939 2.42534-5.99716 2.63861-13.06445 2.79492-6.16496.19538-8.80345-.06652-12.13086-1.16796-6.41705-2.14964-10.26303-4.44164-16.56446-9.5586-16.91308-13.77248-25.78803-33.88548-20.99609-48.07031 1.97997-5.831 4.31567-9.62394 8.39844-13.75 7.089-7.13102 18.14469-12.34845 31.96093-15.16602 5.36342-1.18463 10.54263-1.44442 15.16407-1.38672z" fill="#ffffff"/>
</svg>
