<svg viewBox="0 0 512 512" xmlns="http://www.w3.org/2000/svg">
 <path d="m322.44 45.38l-62.26 202.37-.06-.11.03.08-.01.01-153.15-157.74c-11.663 10.46-22.2 22.15-31.404 34.87l184.55 122.87-.04.02-225.72-5.22c-.16 3.49-.249 6.99-.249 10.52 0 11.62.912 23.02 2.656 34.15l223.27-39.42-196.33 115.24c19.05 32.73 46.35 60.07 79.06 79.17l117.38-194.43.01.01v.01-.01h.01l.06.06-.02-.04 177.02 123.57c7.97-12.38 14.72-25.62 20.09-39.55l-197.13-84.04v-.01l209.26 38.29c1.63-10.76 2.48-21.78 2.48-33 0-21.76-3.19-42.77-9.1-62.61l-202.64 57.3 152.71-144.2c-24.59-26.28-55.57-46.5-90.48-58.16zm-62.19 202.45l113.27 188.01c13.48-8.91 25.92-19.26 37.09-30.84zm-.13-.19l-77.31-201.99c-9.58 3.244-18.87 7.146-27.81 11.633l105.12 190.36zm.06.15l-43.21 221.19c10.42 1.73 21.08 2.73 31.94 2.93z" fill="#9f9f9f" opacity=".135"/>
 <g fill-rule="evenodd">
  <path d="m471.95 253.05c0 120.9-98.01 218.91-218.91 218.91-120.9 0-218.91-98.01-218.91-218.91 0-120.9 98.01-218.91 218.91-218.91 120.9 0 218.91 98.01 218.91 218.91" fill="#9f9f9f"/>
  <path d="m256 1c-140.83 0-255 114.17-255 255 0 140.83 114.17 255 255 255 140.83 0 255-114.17 255-255 0-140.83-114.17-255-255-255m8.827 44.931c120.9 0 218.9 98 218.9 218.9 0 120.9-98 218.9-218.9 218.9-120.9 0-218.93-98-218.93-218.9 0-120.9 98.03-218.9 218.93-218.9" fill-opacity=".067"/>
  <g fill-opacity=".129">
   <path d="m256 4.43c-138.94 0-251.57 112.63-251.57 251.57 0 138.94 112.63 251.57 251.57 251.57 138.94 0 251.57-112.63 251.57-251.57 0-138.94-112.63-251.57-251.57-251.57m5.885 38.556c120.9 0 218.9 98 218.9 218.9 0 120.9-98 218.9-218.9 218.9-120.9 0-218.93-98-218.93-218.9 0-120.9 98.03-218.9 218.93-218.9"/>
   <path d="m256 8.36c-136.77 0-247.64 110.87-247.64 247.64 0 136.77 110.87 247.64 247.64 247.64 136.77 0 247.64-110.87 247.64-247.64 0-136.77-110.87-247.64-247.64-247.64m2.942 31.691c120.9 0 218.9 98 218.9 218.9 0 120.9-98 218.9-218.9 218.9-120.9 0-218.93-98-218.93-218.9 0-120.9 98.03-218.9 218.93-218.9"/>
  </g>
  <path d="m253.04 7.86c-135.42 0-245.19 109.78-245.19 245.19 0 135.42 109.78 245.19 245.19 245.19 135.42 0 245.19-109.78 245.19-245.19 0-135.42-109.78-245.19-245.19-245.19m0 26.297c120.9 0 218.9 98 218.9 218.9 0 120.9-98 218.9-218.9 218.9-120.9 0-218.93-98-218.93-218.9 0-120.9 98.03-218.9 218.93-218.9z" fill="#ffffff" stroke="#000000" stroke-opacity=".31" stroke-width="4.904"/>
 </g>
 <path d="m154.04 57.76c-16.56 8.412-31.9 18.873-45.7 31.04l153.2 192.24zm107.5 223.28l-188.22-152.99c-21.03 30.18-34.653 65.91-38.23 104.56l226.47 48.46v.01h-.05l-219.94 28.71c2.339 8.73 5.203 17.25 8.557 25.51l211.43-54.22h.01l-.02.02.02-.01v.01-.02h.01l.15.13-.13-.15.18-.06-.18.04 144.01-184.96c-12.77-12.407-27.04-23.277-42.53-32.3l-101.49 217.26h-.01l-.02-.02.01.04-.03-.02zm.24-.04l208.83-52.14c-.98-8.99-2.51-17.81-4.56-26.44zm-.05.21l123.45 146.37c6.77-5.14 13.24-10.65 19.36-16.52zm-.18-.11l-167.82 122.08c6.151 6.52 12.69 12.67 19.59 18.39z" fill="#9f9f9f" opacity=".135"/>
 <path d="m277.05 103.51l.008.008h-42.11l215.95 215.95 8.05 8.05c8.06-22.295 12.604-46.27 12.963-71.27l-123.04-123.04c-4.243-4.243-10.977-4.095-15.293.221l44.99 44.99c-.002.002-.004.006-.006.008l-44.99-44.99-11.08 11.08-37.84-37.84c-1.958-1.958-4.64-3.168-7.598-3.168m-42.11.008c-6 0-10.859 4.978-10.859 11.08v21.5c-10.729 2.859-20.979 7.176-30.359 12.631l-15.291-15.291c-2.157-2.157-4.741-3.3-7.533-3.324h-.002l-.004-.006c-2.793-.024-5.637.982-7.758 3.104l-.002-.002-29.92 29.92v.002c-4.242 4.243-4.094 10.975.221 15.291l15.299 15.299c-5.456 9.381-9.774 19.632-12.633 30.361l151.82 151.82v.004l-151.83-151.83h-21.498c-6.1.004-11.07 4.861-11.07 10.859l215.95 215.95 8.06 8.06c50.605-18.312 92.54-54.739 117.95-101.46l-5.447-5.447v-.004l5.447 5.447c5.208-9.577 9.716-19.588 13.469-29.961l-8.05-8.05-42.41-42.41-173.54-173.54m-131.43 131.42v42.11l10.85 10.85h-.01l-10.84-10.84c0 2.958 1.21 5.638 3.168 7.596l37.838 37.838-11.08 11.08c-4.314 4.316-4.461 11.05-.219 15.289l30.07 30.07c-.052-.05-.107-.092-.158-.143l93.13 93.13c24.991-.361 48.97-4.901 71.26-12.967l-8.06-8.06-215.95-215.95" opacity=".25"/>
 <path d="m234.94 103.52c-6 0-10.86 4.978-10.86 11.08v21.499c-10.73 2.859-20.983 7.177-30.364 12.633l-15.293-15.293c-2.158-2.158-4.743-3.301-7.536-3.325-2.793-.024-5.636.981-7.757 3.103l-29.921 29.921c-4.243 4.243-4.094 10.977.221 15.293l15.293 15.293c-5.456 9.381-9.774 19.634-12.633 30.364h-21.499c-6.104 0-11.08 4.859-11.08 10.86v42.11c0 6 4.978 10.86 11.08 10.86h21.499c2.859 10.73 7.177 20.983 12.633 30.364l-15.293 15.293c-4.316 4.316-4.465 11.05-.221 15.293l29.921 29.921c4.243 4.243 10.977 4.094 15.293-.222l15.293-15.293c9.381 5.456 19.634 9.774 30.364 12.633v21.499c0 6.104 4.859 11.08 10.86 11.08h42.11c6 0 10.86-4.978 10.86-11.08v-21.499c10.73-2.859 20.983-7.177 30.364-12.633l15.293 15.293c4.316 4.316 11.05 4.465 15.293.222l29.921-29.921c4.243-4.243 4.094-10.977-.221-15.293l-15.293-15.293c5.456-9.381 9.774-19.634 12.633-30.364h21.499c6.104 0 11.08-4.859 11.08-10.86v-42.11c0-6-4.978-10.86-11.08-10.86h-21.499c-2.859-10.73-7.177-20.983-12.633-30.364l15.293-15.293c4.316-4.316 4.465-11.05.221-15.293l-29.921-29.921c-4.243-4.243-10.977-4.094-15.293.222l-15.293 15.293c-9.381-5.456-19.634-9.774-30.364-12.633v-21.499c0-6.104-4.859-11.08-10.86-11.08zm21.06 106.38c25.447 0 46.1 20.653 46.1 46.1 0 25.447-20.653 46.1-46.1 46.1-25.447 0-46.1-20.653-46.1-46.1 0-25.447 20.653-46.1 46.1-46.1" fill="#ffffff"/>
</svg>
