<svg viewBox="0 0 512 512" xmlns="http://www.w3.org/2000/svg">
 <path d="m252.06 33.19c-120.89 0-218.87 97.97-218.87 218.88v1c0 120.9 97.99 218.88 218.88 218.88h1c120.89 0 218.88-97.98 218.88-218.87v-1c0-120.9-97.99-218.87-218.87-218.87h-1" fill="#878787"/>
 <path d="m236.47 33.75c-.603.042-1.21.078-1.813.125l-9.344 9.438 10.313 10.313 10.313-10.313zm38.5.531l-8.938 9.03 10.313 10.313 10.313-10.313-8.594-8.688c-1.03-.117-2.059-.241-3.094-.344zm-73.875 4.875c-5.472 1.305-10.853 2.824-16.16 4.531l9.938 9.938 10.313-10.313-4.094-4.156m108.44 1.375l-2.75 2.781 10.313 10.313 8.219-8.219c-5.184-1.812-10.427-3.45-15.781-4.875m-155.37 25.09l-10.313 10.406 10.313 10.313 10.313-10.313zm40.719 0l-10.313 10.406 10.313 10.313 10.313-10.313zm40.75 0l-10.313 10.406 10.313 10.313 10.313-10.313zm40.719 0l-10.313 10.406 10.313 10.313 10.313-10.313zm40.75 0l-10.313 10.406 10.313 10.313 10.313-10.313zm40.719 0l-10.281 10.406 10.281 10.313 10.344-10.313zm-234.81 9.656c-3.959 2.895-7.811 5.914-11.563 9.06l2 2 10.313-10.313-.75-.75zm-9.563 23.06l-10.313 10.438 10.313 10.313 10.313-10.313zm40.719 0l-10.313 10.438 10.313 10.313 10.313-10.313zm40.719 0l-10.313 10.438 10.313 10.313 10.313-10.313zm40.75 0l-10.313 10.438 10.313 10.313 10.313-10.313zm40.719 0l-10.313 10.438 10.313 10.313 10.313-10.313zm40.75 0l-10.313 10.438 10.313 10.313 10.313-10.313zm40.719 0l-10.281 10.438 10.281 10.313 10.344-10.313zm40.75 0l-10.281 10.438 10.281 10.313 10.344-10.313zm-325.87 32.75l-8.438 8.5c-.475.791-.941 1.578-1.406 2.375l9.844 9.844 10.313-10.313zm40.75 0l-10.313 10.406 10.313 10.313 10.313-10.313zm40.719 0l-10.313 10.406 10.313 10.313 10.313-10.313zm40.719 0l-10.313 10.406 10.313 10.313 10.313-10.313zm40.75 0l-10.313 10.406 10.313 10.313 10.313-10.313zm40.719 0l-10.313 10.406 10.313 10.313 10.313-10.313zm40.75 0l-10.313 10.406 10.313 10.313 10.313-10.313zm40.719 0l-10.281 10.406 10.281 10.313 10.344-10.313zm40.75 0l-10.281 10.406 10.281 10.313 10.344-10.313zm38.438 2.313l-7.969 8.094 10.25 10.313 5.469-5.469c-2.439-4.415-5.02-8.716-7.75-12.938zm-364.31 30.406l-10.313 10.438 10.313 10.313 10.313-10.313zm40.75 0l-10.313 10.438 10.313 10.313 10.313-10.313zm40.719 0l-10.313 10.438 10.313 10.313 10.313-10.313zm40.719 0l-10.313 10.438 10.313 10.313 10.313-10.313zm40.75 0l-10.313 10.438 10.313 10.313 10.313-10.313zm40.719 0l-10.313 10.438 10.313 10.313 10.313-10.313zm40.75 0l-10.313 10.438 10.313 10.313 10.313-10.313zm40.719 0l-10.281 10.438 10.281 10.313 10.344-10.313zm40.75 0l-10.281 10.438 10.281 10.313 10.344-10.313zm40.719 0l-10.25 10.438 10.25 10.313 10.313-10.313zm-366.59 32.75l-10.313 10.406 10.313 10.313 10.313-10.313zm40.75 0l-10.313 10.406 10.313 10.313 10.313-10.313zm40.719 0l-10.313 10.406 10.313 10.313 10.313-10.313zm40.719 0l-10.313 10.406 10.313 10.313 10.313-10.313zm40.75 0l-10.313 10.406 10.313 10.313 10.313-10.313zm40.719 0l-10.313 10.406 10.313 10.313 10.313-10.313zm40.75 0l-10.313 10.406 10.313 10.313 10.313-10.313zm40.719 0l-10.281 10.406 10.281 10.313 10.344-10.313zm40.75 0l-10.281 10.406 10.281 10.313 10.344-10.313zm40.719 0l-10.25 10.406 10.25 10.313 10.313-10.313zm-400.66 6.75c-.689 3.03-1.313 6.082-1.875 9.156l5.5-5.5zm34.06 25.969l-10.313 10.438 10.313 10.313 10.313-10.313zm40.75 0l-10.313 10.438 10.313 10.313 10.313-10.313zm40.719 0l-10.313 10.438 10.313 10.313 10.313-10.313zm40.719 0l-10.313 10.438 10.313 10.313 10.313-10.313zm40.75 0l-10.313 10.438 10.313 10.313 10.313-10.313zm40.719 0l-10.313 10.438 10.313 10.313 10.313-10.313zm40.75 0l-10.313 10.438 10.313 10.313 10.313-10.313zm40.719 0l-10.281 10.438 10.281 10.313 10.344-10.313zm40.75 0l-10.281 10.438 10.281 10.313 10.344-10.313zm40.719 0l-10.25 10.438 10.25 10.313 10.313-10.313zm-405.12 2.25c-.529 5.682-.851 11.419-.938 17.219l9.03-9.03-8.094-8.188m437.31 6.406l-1.75 1.781 1.969 1.969c-.058-1.252-.139-2.503-.219-3.75m-398.84 24.16l-10.313 10.313 10.313 10.313 10.438-10.313zm40.75 0l-10.313 10.313 10.313 10.313 10.438-10.313zm40.719 0l-10.313 10.313 10.313 10.313 10.438-10.313zm40.75 0l-10.313 10.313 10.313 10.313 10.406-10.313zm40.719 0l-10.313 10.313 10.313 10.313 10.438-10.313zm40.75 0l-10.281 10.313 10.281 10.313 10.406-10.313zm40.719 0l-10.313 10.313 10.313 10.313 10.438-10.313zm40.75 0l-10.313 10.313 10.313 10.313 10.406-10.313zm40.75 0l-10.344 10.313 10.344 10.313 10.406-10.313zm40.75 0l-10.344 10.313 10.344 10.313 10.375-10.313zm-405.84 1.563c.259 5.438.726 10.829 1.375 16.16l7.5-7.406-8.875-8.75m437.78 7.188l-1.563 1.563 1.313 1.313c.09-.958.173-1.913.25-2.875m-398.59 23.969l-10.313 10.313 10.313 10.313 10.438-10.313zm40.75 0l-10.313 10.313 10.313 10.313 10.438-10.313zm40.719 0l-10.313 10.313 10.313 10.313 10.438-10.313zm40.75 0l-10.313 10.313 10.313 10.313 10.406-10.313zm40.719 0l-10.313 10.313 10.313 10.313 10.438-10.313zm40.75 0l-10.281 10.313 10.281 10.313 10.406-10.313zm40.719 0l-10.313 10.313 10.313 10.313 10.438-10.313zm40.75 0l-10.313 10.313 10.313 10.313 10.406-10.313zm40.75 0l-10.344 10.313 10.344 10.313 10.406-10.313zm40.75 0l-10.344 10.313 10.344 10.313 10.375-10.313zm-400.75 6.594c.455 2.02.928 4.04 1.438 6.03l2.344-2.313-3.781-3.719m34.09 26.16l-10.313 10.313 10.313 10.313 10.438-10.313zm40.75 0l-10.313 10.313 10.313 10.313 10.438-10.313zm40.719 0l-10.313 10.313 10.313 10.313 10.438-10.313zm40.75 0l-10.313 10.313 10.313 10.313 10.406-10.313zm40.719 0l-10.313 10.313 10.313 10.313 10.438-10.313zm40.75 0l-10.281 10.313 10.281 10.313 10.406-10.313zm40.719 0l-10.313 10.313 10.313 10.313 10.438-10.313zm40.75 0l-10.313 10.313 10.313 10.313 10.406-10.313zm40.75 0l-10.344 10.313 10.344 10.313 10.406-10.313zm40.75 0l-10.344 10.313 10.344 10.313 10.375-10.313zm-366.66 32.719l-7.188 7.188c2.604 4.239 5.341 8.396 8.219 12.438l9.406-9.313-10.438-10.313m40.75 0l-10.313 10.313 10.313 10.313 10.438-10.313zm40.781 0l-10.313 10.313 10.313 10.313 10.313-10.313zm40.719 0l-10.313 10.313 10.313 10.313 10.313-10.313zm40.75 0l-10.313 10.313 10.313 10.313 10.313-10.313zm40.719 0l-10.313 10.313 10.313 10.313 10.313-10.313zm40.75 0l-10.313 10.313 10.313 10.313 10.313-10.313zm40.719 0l-10.281 10.313 10.281 10.313 10.344-10.313zm40.75 0l-10.281 10.313 10.281 10.313 10.344-10.313zm40.719 0l-10.25 10.313 5.25 5.281c2.797-4.119 5.42-8.343 7.938-12.656zm-325.84 32.75l-10.313 10.313 10.313 10.313 10.313-10.313zm40.719 0l-10.313 10.313 10.313 10.313 10.313-10.313zm40.719 0l-10.313 10.313 10.313 10.313 10.313-10.313zm40.75 0l-10.313 10.313 10.313 10.313 10.313-10.313zm40.719 0l-10.313 10.313 10.313 10.313 10.313-10.313zm40.75 0l-10.313 10.313 10.313 10.313 10.313-10.313zm40.719 0l-10.281 10.313 10.281 10.313 10.344-10.313zm40.75 0l-10.281 10.313 10.281 10.313 10.344-10.313zm-244.41 32.719l-10.313 10.313 10.313 10.313 10.313-10.313zm40.719 0l-10.313 10.313 10.313 10.313 10.313-10.313zm40.75 0l-10.313 10.313 10.313 10.313 10.313-10.313zm40.719 0l-10.313 10.313 10.313 10.313 10.313-10.313zm40.75 0l-10.313 10.313 10.313 10.313 10.313-10.313zm40.719 0l-10.281 10.313 9.594 9.625c1.066-.577 2.101-1.187 3.156-1.781l7.875-7.844zm-162.94 32.75l-4.594 4.594c4.106 1.205 8.266 2.314 12.469 3.281zm40.75 0l-10.313 10.313 1.688 1.688c5.279.602 10.614 1.03 16 1.25l2.938-2.938zm40.719 0l-10.313 10.313 2.594 2.594c5.854-.411 11.657-1.075 17.375-1.938l.656-.656-10.313-10.313zm40.75 0l-5.531 5.531c2.865-.792 5.683-1.658 8.5-2.563l-2.969-2.969" fill="#878787" fill-rule="evenodd"/>
 <g fill-rule="evenodd">
  <path d="m256 1c-140.83 0-255 114.17-255 255 0 140.83 114.17 255 255 255 140.83 0 255-114.17 255-255 0-140.83-114.17-255-255-255m8.827 44.931c120.9 0 218.9 98 218.9 218.9 0 120.9-98 218.9-218.9 218.9-120.9 0-218.93-98-218.93-218.9 0-120.9 98.03-218.9 218.93-218.9" fill-opacity=".067"/>
  <g fill-opacity=".129">
   <path d="m256 4.433c-138.94 0-251.57 112.63-251.57 251.57 0 138.94 112.63 251.57 251.57 251.57 138.94 0 251.57-112.63 251.57-251.57 0-138.94-112.63-251.57-251.57-251.57m5.885 38.556c120.9 0 218.9 98 218.9 218.9 0 120.9-98 218.9-218.9 218.9-120.9 0-218.93-98-218.93-218.9 0-120.9 98.03-218.9 218.93-218.9"/>
   <path d="m256 8.356c-136.77 0-247.64 110.87-247.64 247.64 0 136.77 110.87 247.64 247.64 247.64 136.77 0 247.64-110.87 247.64-247.64 0-136.77-110.87-247.64-247.64-247.64m2.942 31.691c120.9 0 218.9 98 218.9 218.9 0 120.9-98 218.9-218.9 218.9-120.9 0-218.93-98-218.93-218.9 0-120.9 98.03-218.9 218.93-218.9"/>
  </g>
  <path d="m253.04 7.859c-135.42 0-245.19 109.78-245.19 245.19 0 135.42 109.78 245.19 245.19 245.19 135.42 0 245.19-109.78 245.19-245.19 0-135.42-109.78-245.19-245.19-245.19zm0 26.297c120.9 0 218.9 98 218.9 218.9 0 120.9-98 218.9-218.9 218.9-120.9 0-218.93-98-218.93-218.9 0-120.9 98.03-218.9 218.93-218.9z" fill="#ffffff" stroke="#000000" stroke-opacity=".31" stroke-width="4.904"/>
 </g>
 <g fill-rule="evenodd">
  <path d="m275.66 116.98c-.25-.006-.498-.002-.746.012-.596.032-1.193.133-1.764.27-.209.05-.422.093-.627.156-3.071.953-5.601 3.417-6.498 6.766l-.85 3.195 7.131 7.131-92.04.016c-1.01 0-2.01.141-2.926.424-3.957 1.226-6.811 4.897-6.811 9.268v7.818l5.857 5.857-70.71 18.955c-5.195 1.392-8.271 6.664-6.879 11.859l53.36 199.13c.458 1.709 1.34 3.188 2.504 4.352l78.977 78.977c6.079.507 12.224.779 18.434.779h1c120.89 0 218.88-97.98 218.88-218.87v-1c0-13.778-1.287-27.25-3.721-40.33l-57.51-57.51c-1.165-1.165-2.645-2.049-4.359-2.508l-128.42-34.418c-.761-.204-1.52-.308-2.27-.324" opacity=".25"/>
  <path d="m274.92 116.99c-.596.032-1.194.131-1.764.268-.209.05-.421.093-.625.156-3.071.953-5.602 3.418-6.499 6.767l-.849 3.194c13.419.047 26.834.06 40.25-.045 8.966-1.676 20.03 1.638 23.54 10.742 1.329 8.525.534 17.406.983 26.06.282 54.629.145 109.26.022 163.88-.743 9.56 1.994 19.528-1.362 28.743-.883 2.679-2.469 4.781-4.489 6.387l23.852 6.432c5.195 1.392 10.489-1.661 11.881-6.856l53.36-199.13c1.392-5.195-1.661-10.489-6.856-11.881l-128.42-34.416c-1.015-.272-2.02-.366-3.01-.313m38.26 17.51l-132.91.022c-1.01 0-2.01.142-2.926.424-3.957 1.226-6.812 4.898-6.812 9.268v7.817c19.989-5.266 39.973-10.506 59.832-16.214 7.588-2.477 16.958.367 20.882 7.549 18.591 65.03 35.24 130.63 53.02 195.89 3.109 6.305 3.475 14.761-.179 20.815l9.09-.022c5.379 0 9.715-4.314 9.715-9.693l.022-206.14c0-5.379-4.359-9.715-9.737-9.715m-76.2 7.593c-.955-.036-1.929.074-2.903.335l-128.4 34.416c-5.195 1.392-8.271 6.664-6.879 11.859l53.35 199.13c1.392 5.195 6.708 8.249 11.904 6.856l128.4-34.394c5.196-1.392 8.271-6.708 6.879-11.904l-53.35-199.1c-1.131-4.221-4.861-7.04-9-7.191m-22.602 78.7c24.462-.911 51 36.417-4.243 89.04-78.986-19.13-68.929-69.62-43.752-76.78 7.708-2.192 16.839-.321 25.26 7.75 3.909-13.44 13.164-19.654 22.736-20.01" fill="#ffffff"/>
 </g>
</svg>
