<svg viewBox="0 0 512 512" xmlns="http://www.w3.org/2000/svg">
 <path d="m471.95 253.05c0 120.9-98.01 218.91-218.91 218.91-120.9 0-218.91-98.01-218.91-218.91 0-120.9 98.01-218.91 218.91-218.91 120.9 0 218.91 98.01 218.91 218.91" fill="#a4a4a4" fill-rule="evenodd"/>
 <g fill="#a4a4a4">
  <path d="m253.03 34.16c-120.9 0-218.91 98.01-218.91 218.91 0 1.154.013 2.287.031 3.438h221.34v-222.31c-.822-.009-1.644-.031-2.469-.031"/>
  <path d="m255.5 478.81v-222.31h216.41c.018 1.15.031 2.283.031 3.438 0 120.08-96.68 217.55-216.44 218.88"/>
 </g>
 <g fill-rule="evenodd">
  <path d="m256 1c-140.83 0-255 114.17-255 255 0 140.83 114.17 255 255 255 140.83 0 255-114.17 255-255 0-140.83-114.17-255-255-255m8.827 44.931c120.9 0 218.9 98 218.9 218.9 0 120.9-98 218.9-218.9 218.9-120.9 0-218.93-98-218.93-218.9 0-120.9 98.03-218.9 218.93-218.9" fill-opacity=".067"/>
  <g fill-opacity=".129">
   <path d="m256 4.43c-138.94 0-251.57 112.63-251.57 251.57 0 138.94 112.63 251.57 251.57 251.57 138.94 0 251.57-112.63 251.57-251.57 0-138.94-112.63-251.57-251.57-251.57m5.885 38.556c120.9 0 218.9 98 218.9 218.9 0 120.9-98 218.9-218.9 218.9-120.9 0-218.93-98-218.93-218.9 0-120.9 98.03-218.9 218.93-218.9"/>
   <path d="m256 8.36c-136.77 0-247.64 110.87-247.64 247.64 0 136.77 110.87 247.64 247.64 247.64 136.77 0 247.64-110.87 247.64-247.64 0-136.77-110.87-247.64-247.64-247.64m2.942 31.691c120.9 0 218.9 98 218.9 218.9 0 120.9-98 218.9-218.9 218.9-120.9 0-218.93-98-218.93-218.9 0-120.9 98.03-218.9 218.93-218.9"/>
  </g>
  <path d="m253.04 7.86c-135.42 0-245.19 109.78-245.19 245.19 0 135.42 109.78 245.19 245.19 245.19 135.42 0 245.19-109.78 245.19-245.19 0-135.42-109.78-245.19-245.19-245.19m0 26.297c120.9 0 218.9 98 218.9 218.9 0 120.9-98 218.9-218.9 218.9-120.9 0-218.93-98-218.93-218.9 0-120.9 98.03-218.9 218.93-218.9z" fill="#ffffff" stroke="#000000" stroke-opacity=".31" stroke-width="4.904"/>
 </g>
 <path d="m145.7 123.74c-12.164 0-21.955 9.791-21.955 21.955v72.57c0 6.082 2.448 11.571 6.416 15.539l37.969 37.969h-22.43c-12.164 0-21.955 9.793-21.955 21.957v72.57c0 6.212 2.552 11.805 6.67 15.791l86.959 86.957c11.609 1.903 23.521 2.908 35.668 2.908 120.9 0 218.91-98.01 218.91-218.91 0-12.161-1.01-24.08-2.914-35.705l-87.31-87.31c-3.958-3.895-9.396-6.291-15.414-6.291h-72.57c-12.164 0-21.957 9.791-21.957 21.955v22.43l-37.969-37.969c-3.968-3.968-9.457-6.416-15.539-6.416h-72.57" opacity=".25"/>
 <path d="m145.7 123.74c-12.164 0-21.955 9.791-21.955 21.955v72.57c0 12.164 9.791 21.955 21.955 21.955h72.57c12.164 0 21.955-9.791 21.955-21.955v-72.57c0-12.164-9.791-21.955-21.955-21.955zm148.03 0c-12.164 0-21.955 9.791-21.955 21.955v72.57c0 12.164 9.791 21.955 21.955 21.955h72.57c12.164 0 21.955-9.791 21.955-21.955v-72.57c0-12.164-9.791-21.955-21.955-21.955zm-148.03 148.03c-12.164 0-21.955 9.791-21.955 21.955v72.57c0 12.164 9.791 21.955 21.955 21.955h72.57c12.164 0 21.955-9.791 21.955-21.955v-72.57c0-12.164-9.791-21.955-21.955-21.955zm148.03 0c-12.164 0-21.955 9.791-21.955 21.955v72.57c0 12.164 9.791 21.955 21.955 21.955h72.57c12.164 0 21.955-9.791 21.955-21.955v-72.57c0-12.164-9.791-21.955-21.955-21.955z" fill="#ffffff"/>
</svg>
