<svg height="512" viewBox="0 0 512 512" width="512" xmlns="http://www.w3.org/2000/svg">
 <path d="m471.95 253.05c0 120.9-98.01 218.9-218.9 218.9-120.9 0-218.9-98.01-218.9-218.9 0-120.9 98.01-218.9 218.9-218.9 120.9 0 218.9 98.01 218.9 218.9" fill="#878787" fill-rule="evenodd"/>
 <g fill-rule="evenodd">
  <path d="m201.06 116.97c-6.358 0-11.469 5.142-11.469 11.5v57.28c0 3.381 1.44 6.405 3.75 8.5.352.409.75.769 1.156 1.125.298.333.634.641.969.938.311.352.648.689 1 1 .296.335.604.671.938.969.356.406.716.804 1.125 1.156.251.277.505.53.781.781.343.398.731.746 1.125 1.094.321.362.667.712 1.031 1.031.298.333.634.641.969.938.296.335.604.671.938.969.356.406.716.804 1.125 1.156.283.312.59.596.906.875.279.316.563.623.875.906.352.409.75.769 1.156 1.125.298.333.634.641.969.938.311.352.648.689 1 1 .296.335.604.671.938.969.356.406.716.804 1.125 1.156.251.277.505.53.781.781.352.409.75.769 1.156 1.125.298.333.634.641.969.938.311.352.648.689 1 1 .296.335.604.671.938.969.356.406.716.804 1.125 1.156.251.277.505.53.781.781.343.398.731.746 1.125 1.094.321.362.667.712 1.031 1.031.298.333.634.641.969.938.296.335.604.671.938.969.356.406.716.804 1.125 1.156.283.312.59.596.906.875.279.316.563.623.875.906.352.409.75.769 1.156 1.125.298.333.634.641.969.938.277.313.566.625.875.906.064.074.122.147.188.219h-121.62v45.344h1.125v1h1.125v1h1.094l.031 1h1.063l.031.969 1.094-.031.031 1.031 1.094-.031.031 1.031 1.094-.031.031 1.031 1.063-.031.063 1.031 1.063-.031.063 1.031 1.031-.031.063 1 1.063-.031.063 1.031 1.031-.063.094 1.063 1.031-.063.094 1.063 1.031-.063.094 1.063 1.031-.063.094 1.063 1.031-.063.094 1.031.969-.063.063.563h-36.34c-6.358 0-11.5 5.111-11.5 11.469v30.19c0 3.381 1.463 6.405 3.781 8.5.339.392.705.751 1.094 1.094.279.313.595.594.906.875.337.389.708.754 1.094 1.094.312.352.647.689 1 1 .312.352.647.689 1 1 .28.316.562.623.875.906.324.375.692.701 1.063 1.031.339.387.706.756 1.094 1.094.298.331.603.643.938.938.312.352.647.689 1 1 .312.352.647.689 1 1 .312.352.647.689 1 1 .27.305.543.601.844.875.363.423.768.791 1.188 1.156.298.331.603.643.938.938.312.352.647.689 1 1 .312.352.647.689 1 1 .312.352.647.689 1 1 .28.316.562.623.875.906.339.392.705.751 1.094 1.094.31.349.649.66 1 .969.312.352.647.689 1 1 .312.352.647.689 1 1 .312.352.647.689 1 1 .28.316.562.623.875.906.339.392.705.751 1.094 1.094.307.345.653.663 1 .969.315.356.644.686 1 1 .312.352.647.689 1 1 .312.352.647.689 1 1 .312.352.647.689 1 1 .27.305.543.601.844.875.363.423.768.791 1.188 1.156.298.331.603.643.938.938.312.352.647.689 1 1 .312.352.647.689 1 1 .312.352.647.689 1 1 .27.305.543.601.844.875.363.423.768.791 1.188 1.156.298.331.603.643.938.938.312.352.647.689 1 1 .312.352.647.689 1 1 .312.352.647.689 1 1 .28.316.562.623.875.906.339.392.705.751 1.094 1.094.279.313.595.594.906.875.337.389.708.754 1.094 1.094.312.352.647.689 1 1 .312.352.647.689 1 1 .28.316.562.623.875.906.324.375.692.701 1.063 1.031.339.387.706.756 1.094 1.094.298.331.603.643.938.938.312.352.647.689 1 1 .312.352.647.689 1 1 .312.352.647.689 1 1 .27.305.543.601.844.875.363.423.768.791 1.188 1.156.298.331.603.643.938.938.312.352.647.689 1 1 .312.352.647.689 1 1 .312.352.647.689 1 1 .28.316.562.623.875.906.339.392.705.751 1.094 1.094.31.349.649.66 1 .969.312.352.647.689 1 1 .312.352.647.689 1 1 .312.352.647.689 1 1 .28.316.562.623.875.906.339.392.705.751 1.094 1.094.307.345.653.663 1 .969.315.356.644.686 1 1 .312.352.647.689 1 1 .312.352.647.689 1 1 .312.352.647.689 1 1 .27.305.543.601.844.875.363.423.768.791 1.188 1.156.298.331.603.643.938.938.312.352.647.689 1 1 .312.352.647.689 1 1 .312.352.647.689 1 1 .27.305.543.601.844.875.363.423.768.791 1.188 1.156.298.331.603.643.938.938.312.352.647.689 1 1 .312.352.647.689 1 1 .312.352.647.689 1 1 .28.316.562.623.875.906.339.392.705.751 1.094 1.094.279.313.595.594.906.875.337.389.708.754 1.094 1.094.312.352.647.689 1 1 .312.352.647.689 1 1 .28.316.562.623.875.906.324.375.692.701 1.063 1.031.339.387.706.756 1.094 1.094.298.331.603.643.938.938.312.352.647.689 1 1 .312.352.647.689 1 1 .312.352.647.689 1 1 .27.305.543.601.844.875.363.423.768.791 1.188 1.156.298.331.603.643.938.938.312.352.647.689 1 1 .312.352.647.689 1 1 .312.352.647.689 1 1 .28.316.562.623.875.906.339.392.705.751 1.094 1.094.31.349.649.66 1 .969.312.352.647.689 1 1 .312.352.647.689 1 1 .312.352.647.689 1 1 .28.316.562.623.875.906.339.392.705.751 1.094 1.094.279.313.595.594.906.875.337.389.708.754 1.094 1.094.312.352.647.689 1 1 .312.352.647.689 1 1 .28.316.562.623.875.906.324.375.692.701 1.063 1.031.339.387.706.756 1.094 1.094.298.331.603.643.938.938.312.352.647.689 1 1 .312.352.647.689 1 1 .312.352.647.689 1 1 .27.305.543.601.844.875.215.25.449.465.688.688 14.637 3.085 29.789 4.75 45.34 4.75 27.803 0 54.41-5.203 78.875-14.656v-1.156c.246.302.519.588.813.844 75.77-29.624 130.99-100.25 138.38-184.59-.103-.102-.203-.216-.313-.313-.343-.389-.702-.755-1.094-1.094-.283-.313-.59-.595-.906-.875-.311-.353-.648-.688-1-1-.311-.353-.648-.688-1-1-.311-.353-.648-.688-1-1-.294-.334-.607-.64-.938-.938-.366-.42-.734-.825-1.156-1.188-.274-.301-.57-.573-.875-.844-.311-.353-.648-.688-1-1-.311-.353-.648-.688-1-1-.311-.353-.648-.688-1-1-.294-.334-.607-.64-.938-.938-.338-.388-.707-.755-1.094-1.094-.33-.37-.656-.738-1.031-1.063-.283-.313-.59-.595-.906-.875-.311-.353-.648-.688-1-1-.311-.353-.648-.688-1-1-.311-.353-.648-.688-1-1-.309-.351-.62-.69-.969-1-.343-.389-.702-.755-1.094-1.094-.283-.313-.59-.595-.906-.875-.311-.353-.648-.688-1-1-.311-.353-.648-.688-1-1-.311-.353-.648-.688-1-1-.294-.334-.607-.64-.938-.938-.366-.42-.734-.825-1.156-1.188-.274-.301-.57-.573-.875-.844-.311-.353-.648-.688-1-1-.311-.353-.648-.688-1-1-.311-.353-.648-.688-1-1-.294-.334-.607-.64-.938-.938-.338-.388-.707-.755-1.094-1.094-.33-.37-.656-.738-1.031-1.063-.283-.313-.59-.595-.906-.875-.311-.353-.648-.688-1-1-.311-.353-.648-.688-1-1-.34-.386-.705-.757-1.094-1.094-.281-.311-.562-.628-.875-.906-.343-.389-.702-.755-1.094-1.094-.283-.313-.59-.595-.906-.875-.311-.353-.648-.688-1-1-.311-.353-.648-.688-1-1-.311-.353-.648-.688-1-1-.309-.351-.62-.69-.969-1-.343-.389-.702-.755-1.094-1.094-.283-.313-.59-.595-.906-.875-.311-.353-.648-.688-1-1-.311-.353-.648-.688-1-1-.311-.353-.648-.688-1-1-.294-.334-.607-.64-.938-.938-.366-.42-.734-.825-1.156-1.188-.274-.301-.57-.573-.875-.844-.311-.353-.648-.688-1-1-.311-.353-.648-.688-1-1-.311-.353-.648-.688-1-1-.294-.334-.607-.64-.938-.938-.338-.388-.707-.755-1.094-1.094-.33-.37-.656-.738-1.031-1.063-.283-.313-.59-.595-.906-.875-.311-.353-.648-.688-1-1-.311-.353-.648-.688-1-1-.311-.353-.648-.688-1-1-.309-.351-.62-.69-.969-1-.343-.389-.702-.755-1.094-1.094-.283-.313-.59-.595-.906-.875-.311-.353-.648-.688-1-1-.311-.353-.648-.688-1-1-.311-.353-.648-.688-1-1-.294-.334-.607-.64-.938-.938-.366-.42-.734-.825-1.156-1.188-.274-.301-.57-.573-.875-.844-.311-.353-.648-.688-1-1-.311-.353-.648-.688-1-1-.311-.353-.648-.688-1-1-.294-.334-.607-.64-.938-.938-.366-.42-.734-.825-1.156-1.188-.309-.339-.622-.669-.969-.969-.283-.313-.59-.595-.906-.875-.311-.353-.648-.688-1-1-.311-.353-.648-.688-1-1-.34-.386-.705-.757-1.094-1.094-.281-.311-.562-.628-.875-.906-.343-.389-.702-.755-1.094-1.094-.283-.313-.59-.595-.906-.875-.311-.353-.648-.688-1-1-.311-.353-.648-.688-1-1-.311-.353-.648-.688-1-1-.309-.351-.62-.69-.969-1-.343-.389-.702-.755-1.094-1.094-.283-.313-.59-.595-.906-.875-.311-.353-.648-.688-1-1-.311-.353-.648-.688-1-1-.311-.353-.648-.688-1-1-.294-.334-.607-.64-.938-.938-.366-.42-.734-.825-1.156-1.188-.274-.301-.57-.573-.875-.844-.311-.353-.648-.688-1-1-.311-.353-.648-.688-1-1-.311-.353-.648-.688-1-1-.294-.334-.607-.64-.938-.938-.338-.388-.707-.755-1.094-1.094-.33-.37-.656-.738-1.031-1.063-.283-.313-.59-.595-.906-.875-.311-.353-.648-.688-1-1-.311-.353-.648-.688-1-1-.34-.386-.705-.757-1.094-1.094-.281-.311-.562-.628-.875-.906-.343-.389-.702-.755-1.094-1.094-.283-.313-.59-.595-.906-.875-.311-.353-.648-.688-1-1-.311-.353-.648-.688-1-1-.311-.353-.648-.688-1-1-.294-.334-.607-.64-.938-.938-.366-.42-.734-.825-1.156-1.188-.274-.301-.57-.573-.875-.844-.311-.353-.648-.688-1-1-.311-.353-.648-.688-1-1-.311-.353-.648-.688-1-1-.294-.334-.607-.64-.938-.938-.366-.42-.734-.825-1.156-1.188-.274-.301-.57-.573-.875-.844-.311-.353-.648-.688-1-1-.311-.353-.648-.688-1-1-.311-.353-.648-.688-1-1-.314-.356-.644-.685-1-1-.306-.347-.623-.693-.969-1-.343-.388-.702-.755-1.094-1.094-.283-.313-.59-.595-.906-.875-.311-.353-.648-.688-1-1-.311-.353-.648-.688-1-1-.311-.353-.648-.688-1-1-.309-.351-.62-.69-.969-1-.343-.388-.702-.755-1.094-1.094-.283-.313-.59-.595-.906-.875-.311-.353-.648-.688-1-1-.311-.353-.648-.688-1-1-.311-.353-.648-.688-1-1-.294-.334-.607-.64-.938-.938-.366-.42-.734-.825-1.156-1.188-.274-.301-.57-.573-.875-.844-.311-.353-.648-.688-1-1-.311-.353-.648-.688-1-1-.311-.353-.648-.688-1-1-.294-.334-.607-.64-.938-.938-.338-.388-.707-.755-1.094-1.094-.33-.37-.656-.738-1.031-1.063-.283-.313-.59-.595-.906-.875-.311-.353-.648-.688-1-1-.311-.353-.648-.688-1-1-.34-.386-.705-.757-1.094-1.094-.281-.311-.562-.628-.875-.906-.343-.388-.702-.755-1.094-1.094-2.095-2.318-5.119-3.781-8.5-3.781h-109.87" fill-opacity=".235"/>
  <path d="m256 1c-140.83 0-255 114.17-255 255s114.17 255 255 255 255-114.17 255-255-114.17-255-255-255m8.827 44.931c120.9 0 218.9 98 218.9 218.9s-98 218.9-218.9 218.9-218.93-98-218.93-218.9 98.03-218.9 218.93-218.9" fill-opacity=".067"/>
  <g fill-opacity=".129">
   <path d="m256 4.433c-138.94 0-251.57 112.63-251.57 251.57s112.63 251.57 251.57 251.57 251.57-112.63 251.57-251.57-112.63-251.57-251.57-251.57m5.885 38.556c120.9 0 218.9 98 218.9 218.9s-98 218.9-218.9 218.9-218.93-98-218.93-218.9 98.03-218.9 218.93-218.9"/>
   <path d="m256 8.356c-136.77 0-247.64 110.87-247.64 247.64s110.87 247.64 247.64 247.64 247.64-110.87 247.64-247.64-110.87-247.64-247.64-247.64m2.942 31.691c120.9 0 218.9 98 218.9 218.9s-98 218.9-218.9 218.9-218.93-98-218.93-218.9 98.03-218.9 218.93-218.9"/>
  </g>
  <path d="m253.04 7.859c-135.42 0-245.19 109.78-245.19 245.19 0 135.42 109.78 245.19 245.19 245.19 135.42 0 245.19-109.78 245.19-245.19 0-135.42-109.78-245.19-245.19-245.19zm0 26.297c120.9 0 218.9 98 218.9 218.9s-98 218.9-218.9 218.9-218.93-98-218.93-218.9 98.03-218.9 218.93-218.9z" fill="#ffffff" stroke="#000000" stroke-opacity=".31" stroke-width="4.904"/>
 </g>
 <g fill="#ffffff" fill-rule="evenodd" transform="matrix(1.6204 0 0 1.6204 -869.87 -245.85)">
  <rect height="49.52" rx="7.082" width="81.977" x="653.81" y="223.91"/>
  <path d="m686.81 282.31v10.906h-84.12v27.968h15.531v-13.156h68.59v14.09h15.531v-14.09h68.34v14.375h15.531v-29.187h-83.87v-10.9h-15.531"/>
  <rect height="32.791" rx="7.082" width="53.871" x="750.85" y="331.32"/>
  <rect height="32.791" rx="7.082" width="53.871" x="584.88" y="331.32"/>
  <rect height="32.791" rx="7.082" width="53.871" x="667.09" y="331.32"/>
 </g>
</svg>
