<svg viewBox="0 0 512 512" xmlns="http://www.w3.org/2000/svg">
 <g fill-rule="evenodd">
  <path d="m471.95 253.05c0 120.9-98.01 218.91-218.91 218.91-120.9 0-218.91-98.01-218.91-218.91 0-120.9 98.01-218.91 218.91-218.91 120.9 0 218.91 98.01 218.91 218.91" fill="#939393"/>
  <path d="m256 1c-140.83 0-255 114.17-255 255 0 140.83 114.17 255 255 255 140.83 0 255-114.17 255-255 0-140.83-114.17-255-255-255m8.827 44.931c120.9 0 218.9 98 218.9 218.9 0 120.9-98 218.9-218.9 218.9-120.9 0-218.93-98-218.93-218.9 0-120.9 98.03-218.9 218.93-218.9" fill-opacity=".067"/>
  <g fill-opacity=".129">
   <path d="m256 4.43c-138.94 0-251.57 112.63-251.57 251.57 0 138.94 112.63 251.57 251.57 251.57 138.94 0 251.57-112.63 251.57-251.57 0-138.94-112.63-251.57-251.57-251.57m5.885 38.556c120.9 0 218.9 98 218.9 218.9 0 120.9-98 218.9-218.9 218.9-120.9 0-218.93-98-218.93-218.9 0-120.9 98.03-218.9 218.93-218.9"/>
   <path d="m256 8.36c-136.77 0-247.64 110.87-247.64 247.64 0 136.77 110.87 247.64 247.64 247.64 136.77 0 247.64-110.87 247.64-247.64 0-136.77-110.87-247.64-247.64-247.64m2.942 31.691c120.9 0 218.9 98 218.9 218.9 0 120.9-98 218.9-218.9 218.9-120.9 0-218.93-98-218.93-218.9 0-120.9 98.03-218.9 218.93-218.9"/>
  </g>
  <path d="m253.04 7.86c-135.42 0-245.19 109.78-245.19 245.19 0 135.42 109.78 245.19 245.19 245.19 135.42 0 245.19-109.78 245.19-245.19 0-135.42-109.78-245.19-245.19-245.19m0 26.297c120.9 0 218.9 98 218.9 218.9 0 120.9-98 218.9-218.9 218.9-120.9 0-218.93-98-218.93-218.9 0-120.9 98.03-218.9 218.93-218.9z" fill="#ffffff" stroke="#000000" stroke-opacity=".31" stroke-width="4.904"/>
 </g>
 <path d="m113.41 141.88v21.594l45.672 45.672c-32.832 10.911-56.52 41.861-56.52 78.39 0 22.81 9.239 43.46 24.19 58.41l126.02 126.01c.091 0 .182.004.273.004 120.9 0 218.91-98.01 218.91-218.91 0-19.314-2.513-38.04-7.209-55.879l-55.3-55.3h-296.03" opacity=".25"/>
 <path d="m113.41 141.88v21.594h296.03v-21.594zm83.72 51.28v82.59h82.59c0-45.609-36.943-82.59-82.59-82.59m110.94.313v21.594h101.38v-21.594h-101.37m-122.91 11.469c-45.609 0-82.59 36.943-82.59 82.59 0 45.609 36.943 82.59 82.59 82.59 45.609 0 82.63-36.943 82.63-82.59h-82.62v-82.59m122.91 40.13v21.594h101.38v-21.594h-101.37m0 51.594v21.563h101.38v-21.563h-101.37m0 51.563v21.594h101.38v-21.594h-101.37" fill="#ffffff"/>
</svg>
