<svg height="512" viewBox="0 0 512 512" width="512" xmlns="http://www.w3.org/2000/svg">
 <path d="m471.95 253.05c0 120.9-98.01 218.9-218.9 218.9-120.9 0-218.9-98.01-218.9-218.9 0-120.9 98.01-218.9 218.9-218.9 120.9 0 218.9 98.01 218.9 218.9" fill="#8f8f8f" fill-rule="evenodd"/>
 <path d="m256 1c-140.83 0-255 114.17-255 255 0 140.83 114.17 255 255 255 140.83 0 255-114.17 255-255 0-140.83-114.17-255-255-255m8.827 44.931c120.9 0 218.9 98 218.9 218.9 0 120.9-98 218.9-218.9 218.9-120.9 0-218.93-98-218.93-218.9 0-120.9 98.03-218.9 218.93-218.9" fill-opacity=".067" fill-rule="evenodd"/>
 <g fill-opacity=".129" fill-rule="evenodd">
  <path d="m256 4.433c-138.94 0-251.57 112.63-251.57 251.57 0 138.94 112.63 251.57 251.57 251.57 138.94 0 251.57-112.63 251.57-251.57 0-138.94-112.63-251.57-251.57-251.57m5.885 38.556c120.9 0 218.9 98 218.9 218.9 0 120.9-98 218.9-218.9 218.9-120.9 0-218.93-98-218.93-218.9 0-120.9 98.03-218.9 218.93-218.9"/>
  <path d="m256 8.356c-136.77 0-247.64 110.87-247.64 247.64 0 136.77 110.87 247.64 247.64 247.64 136.77 0 247.64-110.87 247.64-247.64 0-136.77-110.87-247.64-247.64-247.64m2.942 31.691c120.9 0 218.9 98 218.9 218.9 0 120.9-98 218.9-218.9 218.9-120.9 0-218.93-98-218.93-218.9 0-120.9 98.03-218.9 218.93-218.9"/>
 </g>
 <path d="m253.04 7.859c-135.42 0-245.19 109.78-245.19 245.19 0 135.42 109.78 245.19 245.19 245.19 135.42 0 245.19-109.78 245.19-245.19 0-135.42-109.78-245.19-245.19-245.19zm0 26.297c120.9 0 218.9 98 218.9 218.9 0 120.9-98 218.9-218.9 218.9-120.9 0-218.93-98-218.93-218.9 0-120.9 98.03-218.9 218.93-218.9z" fill="#ffffff" fill-rule="evenodd" stroke="#000000" stroke-opacity=".31" stroke-width="4.904"/>
 <path d="m314.93861 136.89955l-59.49711 40.15006-49.44788-40.96472-59.95193 59.96282 40.37659 29.30846-40.41496 40.76454 31.94519 17.86205-31.91587 51.74429 153.69846 133.22184c34.98905-12.41219 69.67911-26.2197 101.98052-51.17419 22.89673-30.88454 47.38052-60.5347 62.47643-97.48654l10.7457-56.16409" opacity=".25"/>
 <path d="m145.83539 136.22009h60.016586v60.016586h-60.016586z" fill="#ffffff"/>
 <path d="m255.8658 136.22009h60.016586v60.016586h-60.016586z" fill="#ffffff"/>
 <path d="m145.83539 206.23944h60.016586v60.016586h-60.016586z" fill="#ffffff"/>
 <path d="m215.85474 206.23944h60.016586v60.016586h-60.016586z" fill="#ffffff"/>
 <path d="m285.87408 206.23944h60.016586v60.016586h-60.016586z" fill="#ffffff"/>
 <path d="m145.83539 276.25879h60.016586v60.016586h-60.016586z" fill="#ffffff"/>
 <path d="m215.85474 276.25879h60.016586v60.016586h-60.016586z" fill="#ffffff"/>
 <path d="m285.87408 276.25879h60.016586v60.016586h-60.016586z" fill="#ffffff"/>
 <path d="m16.15 18.502h2.065v.498h-2.777v-.498c.225-.232.53-.544.917-.935.389-.393.633-.646.732-.759.189-.213.321-.393.396-.539.076-.148.114-.294.114-.437 0-.232-.082-.422-.246-.568-.162-.146-.374-.22-.636-.22-.186 0-.382.032-.589.097-.205.064-.425.162-.659.293v-.598c.238-.096.461-.168.668-.217.207-.049.396-.073.568-.073.453 0 .814.113 1.084.34.27.227.404.529.404.908 0 .18-.034.351-.103.513-.066.16-.188.35-.366.568-.049.057-.204.221-.466.492-.262.27-.631.647-1.107 1.134" transform="matrix(10.002764 0 0 10.002764 5.7966854 -3.8186045)"/>
 <path d="m28.05 16.642c.283.061.504.187.662.378.16.191.24.428.24.709 0 .432-.148.766-.445 1-.297.236-.719.354-1.266.354-.184 0-.373-.019-.568-.056-.193-.035-.394-.089-.601-.161v-.571c.164.096.344.168.539.217.195.049.399.073.612.073.371 0 .653-.073.847-.22.195-.146.293-.359.293-.639 0-.258-.091-.459-.272-.604-.18-.146-.431-.22-.753-.22h-.51v-.486h.533c.291 0 .514-.058.668-.173.154-.117.231-.285.231-.504 0-.225-.08-.396-.24-.516-.158-.121-.386-.182-.683-.182-.162 0-.336.018-.521.053-.186.035-.39.09-.612.164v-.527c.225-.063.435-.109.63-.141.197-.031.383-.047.557-.047.449 0 .805.103 1.066.308.262.203.393.479.393.826 0 .242-.069.447-.208.615-.139.166-.336.281-.592.346" transform="matrix(10.002764 0 0 10.002764 5.7966854 -3.8186045)"/>
 <path d="m17.268 22.14l-1.494 2.335h1.494zm-.155-.516h.744v2.851h.624v.492h-.624v1.031h-.589v-1.031h-1.975v-.571l1.819-2.771" transform="matrix(10.002764 0 0 10.002764 5.7966854 -3.8186045)"/>
 <path d="m22.969 21.626h2.323v.498h-1.781v1.072c.086-.029.172-.051.258-.064.086-.016.172-.023.258-.023.488 0 .875.134 1.16.401.285.268.428.63.428 1.087 0 .471-.146.837-.439 1.099-.293.26-.706.39-1.239.39-.184 0-.371-.016-.563-.047-.189-.031-.386-.078-.589-.141v-.595c.176.096.357.167.545.214.187.047.386.07.595.07.338 0 .605-.089.803-.267.197-.178.296-.419.296-.724 0-.305-.099-.546-.296-.724-.197-.178-.465-.267-.803-.267-.158 0-.316.018-.475.053-.156.035-.316.09-.48.164v-2.197" transform="matrix(10.002764 0 0 10.002764 5.7966854 -3.8186045)"/>
 <path d="m30.98 23.577c-.266 0-.477.091-.633.272-.154.182-.231.431-.231.747 0 .314.077.563.231.747.156.182.367.272.633.272.266 0 .476-.091.63-.272.156-.184.234-.433.234-.747 0-.316-.078-.565-.234-.747-.154-.182-.364-.272-.63-.272m1.175-1.854v.539c-.148-.07-.299-.124-.451-.161-.15-.037-.3-.056-.448-.056-.391 0-.689.132-.896.396-.205.264-.322.662-.352 1.195.115-.17.26-.3.434-.39.174-.092.365-.138.574-.138.439 0 .786.134 1.04.401.256.266.384.628.384 1.087 0 .449-.133.81-.398 1.081-.266.271-.619.407-1.061.407-.506 0-.893-.193-1.16-.58-.268-.389-.401-.951-.401-1.688 0-.691.164-1.242.492-1.652.328-.412.769-.618 1.321-.618.148 0 .298.015.448.044.152.029.311.073.475.132" transform="matrix(10.002764 0 0 10.002764 5.7966854 -3.8186045)"/>
 <path d="m15.492 28.626h2.812v.252l-1.588 4.122h-.618l1.494-3.876h-2.101v-.498" transform="matrix(10.002764 0 0 10.002764 5.7966854 -3.8186045)"/>
 <path d="m23.907 30.923c-.281 0-.503.075-.665.226-.16.15-.24.357-.24.621 0 .264.08.471.24.621.162.15.384.226.665.226.281 0 .503-.075.665-.226.162-.152.243-.359.243-.621 0-.264-.081-.471-.243-.621-.16-.15-.382-.226-.665-.226m-.592-.252c-.254-.063-.452-.181-.595-.354-.141-.174-.211-.386-.211-.636 0-.35.124-.626.372-.829.25-.203.592-.305 1.025-.305.436 0 .777.102 1.025.305.248.203.372.479.372.829 0 .25-.071.462-.214.636-.141.174-.337.292-.589.354.285.066.507.196.665.39.16.193.24.43.24.709 0 .424-.13.749-.39.976-.258.227-.628.34-1.11.34-.482 0-.854-.113-1.113-.34-.258-.227-.387-.552-.387-.976 0-.279.08-.516.24-.709.16-.193.383-.323.668-.39m-.217-.935c0 .227.07.403.211.53.143.127.342.19.598.19.254 0 .452-.063.595-.19.145-.127.217-.304.217-.53 0-.227-.072-.403-.217-.53-.143-.127-.341-.19-.595-.19-.256 0-.455.063-.598.19-.141.127-.211.304-.211.53" transform="matrix(10.002764 0 0 10.002764 5.7966854 -3.8186045)"/>
 <path d="m29.659 32.909v-.539c.148.07.299.124.451.161.152.037.302.056.448.056.391 0 .688-.131.894-.393.207-.264.325-.663.354-1.198-.113.168-.257.297-.431.387-.174.09-.366.135-.577.135-.438 0-.784-.132-1.04-.396-.254-.266-.381-.628-.381-1.087 0-.449.133-.81.398-1.081.266-.271.619-.407 1.061-.407.506 0 .892.194 1.157.583.268.387.401.949.401 1.688 0 .689-.164 1.24-.492 1.652-.326.41-.766.615-1.318.615-.148 0-.299-.015-.451-.044-.152-.029-.311-.073-.475-.132m1.178-1.854c.266 0 .476-.091.63-.272.156-.182.234-.431.234-.747 0-.314-.078-.562-.234-.744-.154-.184-.364-.275-.63-.275-.266 0-.477.092-.633.275-.154.182-.231.43-.231.744 0 .316.077.565.231.747.156.182.367.272.633.272" transform="matrix(10.002764 0 0 10.002764 5.7966854 -3.8186045)"/>
</svg>
