<svg viewBox="0 0 512 512" xmlns="http://www.w3.org/2000/svg">
 <g fill-rule="evenodd">
  <path d="m471.95 253.05c0 120.9-98.01 218.91-218.91 218.91-120.9 0-218.91-98.01-218.91-218.91 0-120.9 98.01-218.91 218.91-218.91 120.9 0 218.91 98.01 218.91 218.91" fill="#979797"/>
  <path d="m256 1c-140.83 0-255 114.17-255 255 0 140.83 114.17 255 255 255 140.83 0 255-114.17 255-255 0-140.83-114.17-255-255-255m8.827 44.931c120.9 0 218.9 98 218.9 218.9 0 120.9-98 218.9-218.9 218.9-120.9 0-218.93-98-218.93-218.9 0-120.9 98.03-218.9 218.93-218.9" fill-opacity=".067"/>
  <g fill-opacity=".129">
   <path d="m256 4.43c-138.94 0-251.57 112.63-251.57 251.57 0 138.94 112.63 251.57 251.57 251.57 138.94 0 251.57-112.63 251.57-251.57 0-138.94-112.63-251.57-251.57-251.57m5.885 38.556c120.9 0 218.9 98 218.9 218.9 0 120.9-98 218.9-218.9 218.9-120.9 0-218.93-98-218.93-218.9 0-120.9 98.03-218.9 218.93-218.9"/>
   <path d="m256 8.36c-136.77 0-247.64 110.87-247.64 247.64 0 136.77 110.87 247.64 247.64 247.64 136.77 0 247.64-110.87 247.64-247.64 0-136.77-110.87-247.64-247.64-247.64m2.942 31.691c120.9 0 218.9 98 218.9 218.9 0 120.9-98 218.9-218.9 218.9-120.9 0-218.93-98-218.93-218.9 0-120.9 98.03-218.9 218.93-218.9"/>
  </g>
  <path d="m253.04 7.86c-135.42 0-245.19 109.78-245.19 245.19 0 135.42 109.78 245.19 245.19 245.19 135.42 0 245.19-109.78 245.19-245.19 0-135.42-109.78-245.19-245.19-245.19m0 26.297c120.9 0 218.9 98 218.9 218.9 0 120.9-98 218.9-218.9 218.9-120.9 0-218.93-98-218.93-218.9 0-120.9 98.03-218.9 218.93-218.9z" fill="#ffffff" stroke="#000000" stroke-opacity=".31" stroke-width="4.904"/>
 </g>
 <path d="m256 103.08c-55.799 0-100.72 44.92-100.72 100.72v49.16h-15.438v75.41l72.82 72.82c-13.475.041-17.641.453-23.2 2.211-3.866 1.224-8.01 2.97-9.188 3.875-.19.145-.254.279-.133.4l64.1 64.1c2.917.115 5.844.191 8.789.191 113.16 0 206.25-85.86 217.71-195.98l-143.47-143.47c-18.205-18.205-43.38-29.436-71.28-29.436" opacity=".25"/>
 <path d="m256 103.08c-55.799 0-100.72 44.92-100.72 100.72v49.16h-15.438v75.41l10.781-10.125c12.08-11.332 26.2-21.278 34.844-24.563 9.126-3.468 23.968-6.107 48.41-8.625 26-2.679 49.704-5.878 62.5-8.406 16.316-3.224 22.937-5.542 44.22-16.688.008-.004.024.004.031 0 16.06-8.505.405-.126 16.03-8.531.061-.033.001.002.063-.031v-47.594c0-55.799-44.92-100.72-100.72-100.72m0 46.06c27.854 0 50.28 22.427 50.28 50.28v53.53h-100.56v-53.53c0-27.854 22.427-50.28 50.28-50.28zm116.16 123.69l-8.03 6.75c-21.734 18.254-59.19 35.1-102.59 46.16-3.558.907-3.159 1.084 4.875 1.875 16.778 1.652 41.753-1.837 59.06-8.219 4.785-1.764 16.469-7.06 26-11.781 9.531-4.723 17.58-8.358 17.875-8.06 1.32 1.32-8.461 15.499-16 23.19-24.17 24.652-67.36 40.493-116.69 42.75-15.14.693-15.397.719-10.531 2.156 7.935 2.344 28.999 4.781 41.5 4.781 21.344 0 47.33-4.639 66.16-11.781 4.141-1.572 7.768-2.607 8.06-2.313.863.863-10.329 12.548-15.969 16.688-22.468 16.493-63.38 26.16-110.87 26.16-15.466 0-19.653.358-25.531 2.219-3.866 1.224-8.01 2.97-9.188 3.875-1.906 1.461 8.776 1.656 94.88 1.656h97v-136.09" fill="#ffffff"/>
</svg>
