<svg height="512" viewBox="0 0 512 512" width="512" xmlns="http://www.w3.org/2000/svg">
 <path d="m471.95 253.05c0 120.9-98.01 218.9-218.9 218.9-120.9 0-218.9-98.01-218.9-218.9 0-120.9 98.01-218.9 218.9-218.9 120.9 0 218.9 98.01 218.9 218.9" fill="#8f8f8f" fill-rule="evenodd"/>
 <path d="m256 83.13l-124 291 1.625-.469-.625 1.438c.003-.001 1.58-.456 1.625-.469l-.62 1.47c.003-.001 1.58-.456 1.625-.469l-.62 1.47c.003-.001 1.58-.456 1.625-.469l-.62 1.47c.003-.001 1.55-.456 1.594-.469l-.625 1.469c.003-.001 1.58-.456 1.625-.469l-.625 1.469c.003-.001 1.58-.456 1.625-.469l-.625 1.438c.003-.001 1.58-.456 1.625-.469l-.625 1.469 1.625-.469-.625 1.469c.003-.001 1.58-.456 1.625-.469l-.625 1.469 1.594-.469-.625 1.469c.003-.001 1.58-.456 1.625-.469l-.625 1.469 1.625-.469-.625 1.469c.003-.001 1.58-.456 1.625-.469l-.625 1.438 1.625-.469-.625 1.469c.003-.001 1.58-.456 1.625-.469l-.625 1.469c.003-.001 1.55-.456 1.594-.469l-.625 1.469c.003-.001 1.58-.456 1.625-.469l-.625 1.469c.003-.001 1.58-.456 1.625-.469l-.625 1.469c.003-.001 1.58-.456 1.625-.469l-.625 1.438c.003-.001 1.58-.456 1.625-.469l-.625 1.469c.003-.001 1.58-.456 1.625-.469l-.625 1.469c.003-.001 1.551-.456 1.594-.469l-.625 1.469c.003-.001 1.58-.456 1.625-.469l-.625 1.469c.003-.001 1.58-.456 1.625-.469l-.625 1.469c.003-.001 1.58-.456 1.625-.469l-.625 1.438c.003-.001 1.58-.456 1.625-.469l-.625 1.469c.003-.001 1.58-.456 1.625-.469l-.625 1.469c.003-.001 1.58-.456 1.625-.469l-.625 1.469 1.594-.469-.625 1.469c.003-.001 1.58-.456 1.625-.469l-.625 1.469 1.625-.469-.625 1.469c.003-.001 1.58-.456 1.625-.469l-.625 1.438 1.625-.469-.625 1.469c.003-.001 1.58-.456 1.625-.469l-.625 1.469 1.594-.469-.625 1.469c.003-.001 1.581-.456 1.625-.469l-.625 1.469c.003-.001 1.581-.456 1.625-.469l-.625 1.469c.003-.001 1.581-.456 1.625-.469l-.625 1.438c.003-.001 1.581-.456 1.625-.469l-.625 1.469c.003-.001 1.581-.456 1.625-.469l-.625 1.469c.002-.001 1.551-.456 1.594-.469l-.625 1.469c.003-.001 1.581-.456 1.625-.469l-.625 1.469c.002-.001 1.581-.456 1.625-.469l-.625 1.469c.002-.001 1.581-.456 1.625-.469l-.625 1.438c.002-.001 1.581-.456 1.625-.469l-.625 1.469c.002-.001 1.581-.456 1.625-.469l-.625 1.469c.002-.001 1.551-.456 1.594-.469l-.625 1.469h.031l1.594-.469-.625 1.469c.002-.001 1.581-.456 1.625-.469l-.625 1.469 1.625-.469-.625 1.438c.002-.001 1.581-.456 1.625-.469l-.625 1.469 1.625-.469-.625 1.469c.002-.001 1.581-.456 1.625-.469l-.625 1.469 1.594-.469-.625 1.469c.002-.001 1.581-.456 1.625-.469l-.625 1.469 1.625-.469-.625 1.469c.002-.001 1.581-.456 1.625-.469l-.625 1.438c.002-.001 1.581-.456 1.625-.469l-.625 1.469c.002-.001 1.581-.456 1.625-.469l-.625 1.469c.002-.001 1.551-.456 1.594-.469l-.625 1.469c.002-.001 1.581-.456 1.625-.469l-.625 1.469c.002-.001 1.581-.456 1.625-.469l-.625 1.469c.002-.001 1.581-.456 1.625-.469l-.625 1.438c.002-.001 1.581-.456 1.625-.469l-.625 1.469c.002-.001 1.581-.456 1.625-.469l-.625 1.469c.002-.001 1.551-.456 1.594-.469l-.625 1.469c.002-.001 1.581-.456 1.625-.469l-.625 1.469c.002-.001 1.581-.456 1.625-.469l-.625 1.469c.002-.001 1.581-.456 1.625-.469l-.625 1.438c.002-.001 1.581-.456 1.625-.469l-.625 1.469 1.625-.469-.625 1.469c.002-.001 1.581-.456 1.625-.469l-.625 1.469 1.594-.469-.625 1.469c.002-.001 1.581-.456 1.625-.469l-.625 1.469 1.625-.469-.625 1.469c.002-.001 1.581-.456 1.625-.469l-.625 1.438 1.625-.469-.625 1.469c.002-.001 1.581-.456 1.625-.469l-.625 1.469c.002-.001 1.551-.457 1.594-.469l-.625 1.469c.002-.001 1.581-.456 1.625-.469l-.625 1.469c.002-.001 1.581-.456 1.625-.469l-.625 1.469c.002-.001 1.581-.456 1.625-.469l-.625 1.438c.002-.001 1.581-.456 1.625-.469l-.625 1.469c.002-.001 1.581-.456 1.625-.469l-.625 1.469c.002-.001 1.551-.457 1.594-.469l-.625 1.469c.002-.001 1.581-.456 1.625-.469l-.625 1.469c.002-.001 1.581-.456 1.625-.469l-.625 1.469c.002-.001 1.581-.456 1.625-.469l-.625 1.438c.002-.001 1.581-.456 1.625-.469l-.625 1.469c.002-.001 1.581-.456 1.625-.469l-.625 1.469c.002 0 1.552-.457 1.594-.469l-.625 1.469 1.625-.469-.625 1.469c.002 0 1.581-.456 1.625-.469l-.625 1.469 1.625-.469-.625 1.438c.002 0 1.581-.456 1.625-.469l-.625 1.469 1.625-.469-.594 1.406c.032.004.062.028.094.031.207-.06 1.46-.426 1.5-.438l-.25.563c7.602.799 15.311 1.25 23.13 1.25 102.77 0 189.02-70.841 212.56-166.34l-9.594-22.5-.281.688-.719-1.656-.281.688-.719-1.688-.281.688-.719-1.688-.281.625-.688-1.625-.281.688-.719-1.688-.281.688-.719-1.688-.281.688-.719-1.688-.281.688-.719-1.656-.281.688-.719-1.688-.281.625-.688-1.625-.281.688-.719-1.688-.281.688-.719-1.688-.281.688-.719-1.688-.281.688-.719-1.656-.281.688-.719-1.688-.281.625-.688-1.625-.281.688-.719-1.688-.281.688-.719-1.688-.281.688-.719-1.688-.281.688-.719-1.656-.281.688-.719-1.688-.281.625-.688-1.625-.281.688-.719-1.688-.281.688-.719-1.688-.281.688-.719-1.688-.281.688-.719-1.656-.281.688-.719-1.688-.281.688-.719-1.688-.281.625-.688-1.625-.281.688-.719-1.688-.281.688-.719-1.688-.281.688-.719-1.688-.281.688-.719-1.656-.281.688-.719-1.688-.281.625-.688-1.625-.281.688-.719-1.688-.281.688-.719-1.688-.281.688-.719-1.688-.281.688-.719-1.656-.281.688-.719-1.688-.281.625-.688-1.625-.281.688-.719-1.688-.281.688-.719-1.688-.281.688-.719-1.688-.281.688-.719-1.656-.281.688-.719-1.688-.281.688-.719-1.688-.281.625-.688-1.625-.281.688-.719-1.688-.281.688-.719-1.688-.281.688-.719-1.688-.281.688-.719-1.656-.281.688-.719-1.688-.281.625-.688-1.625-.281.688-.719-1.688-.281.688-.719-1.688-.281.688-.719-1.688-.281.688-.719-1.656-.281.688-.719-1.688-.281.625-.688-1.625-.281.688-.719-1.688-.281.688-.719-1.688-.281.688-.719-1.688-.281.688-.719-1.656-.281.688-.719-1.688-.281.625-.688-1.625-.281.688-.719-1.688-.281.688-.719-1.688-.281.688-.719-1.688-.281.688-.719-1.656-.281.688-.719-1.688-.281.688-.719-1.688-.281.625-.688-1.625-.281.688-.719-1.688-.281.688-.719-1.688-.281.688-.719-1.688-.281.688-.719-1.656-.281.688-.719-1.688-.281.625-.688-1.625-.281.688-.719-1.688-.281.688-.719-1.688-.281.688-.719-1.688-.281.688-.719-1.656-.281.688-.719-1.688-.281.625-.688-1.625-.281.688-.719-1.688-.281.688-.719-1.688-.281.688-.719-1.688-.281.688-.719-1.656-.281.688-.719-1.688-.281.688-.719-1.688-.281.625-.688-1.625-.281.688-.719-1.688-.281.688-.719-1.688-.281.688-.719-1.688-.281.688-.719-1.656-.281.688-.719-1.688-.281.625-.688-1.625-.281.688-.719-1.688-.281.688-.719-1.688-.281.688-.719-1.688-.281.688-.719-1.656-.281.688-.719-1.688-.281.625-.688-1.625-.281.688-.719-1.688-.281.688-.719-1.688-.281.688-.719-1.688-.281.688-.719-1.656-.281.688-.719-1.688-.281.625-.688-1.625-.281.688-.719-1.688-.281.688-.719-1.688-.281.688-.719-1.688-.281.688-.719-1.656-.281.688-.719-1.688-.281.688-.719-1.688-.281.625-.688-1.625-.281.688-.719-1.688-.281.688-.719-1.688-.281.688-.719-1.688-.281.688-.719-1.656-.281.688-.719-1.688-.281.625-.688-1.625-.281.688-.719-1.688-.281.688-.719-1.688-.281.688-.719-1.688-.281.688c-.008-.019-.719-1.656-.719-1.656l-.281.688-.719-1.688-.281.625c-.008-.018-.688-1.625-.688-1.625l-.281.688-.719-1.688-.281.688-.719-1.688-.281.688-.719-1.688-.281.688c-.008-.019-.719-1.656-.719-1.656l-.281.688-.719-1.688-.281.688-.719-1.688-.281.625c-.008-.018-.688-1.625-.688-1.625l-.281.688-.719-1.688-.281.688-.719-1.688-.281.688-.719-1.688-.281.688c-.008-.019-.719-1.656-.719-1.656l-.281.688-.719-1.688-.281.625c-.008-.018-.688-1.625-.688-1.625l-.281.688-.719-1.688-.281.688-.719-1.688-.281.688-.719-1.688-.281.688c-.008-.019-.719-1.656-.719-1.656l-.281.688-.719-1.688-.281.625c-.008-.018-.688-1.625-.688-1.625l-.281.688-.719-1.688-.281.688-.719-1.688-.281.688-.719-1.688-.281.688c-.008-.019-.719-1.656-.719-1.656l-.281.688-.719-1.688-.281.625c-.008-.018-.688-1.625-.688-1.625l-.281.688-.719-1.688-.281.688-.719-1.688-.281.688-.719-1.688-.281.688-.719-1.656-.281.688-.719-1.688-.281.688-.719-1.688-.281.625-.688-1.625-.281.688-.719-1.688-.281.688-.719-1.688-.281.688-.719-1.688-.281.688-.719-1.656-.281.688-.719-1.688-.281.625-.688-1.625-.281.688-.719-1.688-.281.688-.719-1.688-.281.688-.719-1.688-.281.688-.719-1.656-.281.688-.719-1.688-.281.625c-.008-.018-.688-1.625-.688-1.625l-.281.688-.719-1.688-.281.688-.719-1.688-.281.688-.719-1.688-.281.688c-.008-.019-.719-1.656-.719-1.656l-.281.688-.719-1.688-.281.688-.719-1.688-.281.625c-.008-.018-.688-1.625-.688-1.625l-.281.688-.719-1.688-.281.688-.719-1.688-.281.688c-.008-.019-.719-1.656-.719-1.656l-.281.688-.719-1.688-.281.688-.719-1.688-.281.625c-.008-.018-.688-1.625-.688-1.625l-.281.688-.719-1.688-.281.688-.719-1.688-.281.688-.719-1.688-.281.688-.719-1.656-.281.688-.719-1.688-.281.625c-.008-.018-.688-1.625-.688-1.625l-.281.688-.719-1.688-.281.688-.719-1.688-.281.688-.719-1.688-.281.688-.719-1.656-.281.688-.719-1.688-.281.625c-.008-.018-.688-1.625-.688-1.625l-.281.688-.719-1.688-.281.688-.719-1.688-.281.688-.719-1.688" fill-opacity=".235"/>
 <g fill-rule="evenodd">
  <path d="m256 1c-140.83 0-255 114.17-255 255s114.17 255 255 255 255-114.17 255-255-114.17-255-255-255m8.827 44.931c120.9 0 218.9 98 218.9 218.9s-98 218.9-218.9 218.9-218.93-98-218.93-218.9 98.03-218.9 218.93-218.9" fill-opacity=".067"/>
  <g fill-opacity=".129">
   <path d="m256 4.433c-138.94 0-251.57 112.63-251.57 251.57s112.63 251.57 251.57 251.57 251.57-112.63 251.57-251.57-112.63-251.57-251.57-251.57m5.885 38.556c120.9 0 218.9 98 218.9 218.9s-98 218.9-218.9 218.9-218.93-98-218.93-218.9 98.03-218.9 218.93-218.9"/>
   <path d="m256 8.356c-136.77 0-247.64 110.87-247.64 247.64s110.87 247.64 247.64 247.64 247.64-110.87 247.64-247.64-110.87-247.64-247.64-247.64m2.942 31.691c120.9 0 218.9 98 218.9 218.9s-98 218.9-218.9 218.9-218.93-98-218.93-218.9 98.03-218.9 218.93-218.9"/>
  </g>
  <path d="m253.04 7.859c-135.42 0-245.19 109.78-245.19 245.19 0 135.42 109.78 245.19 245.19 245.19 135.42 0 245.19-109.78 245.19-245.19 0-135.42-109.78-245.19-245.19-245.19zm0 26.297c120.9 0 218.9 98 218.9 218.9s-98 218.9-218.9 218.9-218.93-98-218.93-218.9 98.03-218.9 218.93-218.9z" fill="#ffffff" stroke="#000000" stroke-opacity=".31" stroke-width="4.904"/>
 </g>
 <path d="m256 83.14l-124 290.98 124-35.85 124 35.85z" fill="#ffffff"/>
</svg>
