<svg viewBox="0 0 512 512" xmlns="http://www.w3.org/2000/svg">
 <path d="m471.95 253.05c0 120.9-98.01 218.91-218.91 218.91-120.9 0-218.91-98.01-218.91-218.91 0-120.9 98.01-218.91 218.91-218.91 120.9 0 218.91 98.01 218.91 218.91" fill="#b0b0b0" fill-rule="evenodd"/>
 <path d="m361.06 172.34l-.219.375-85.81 139.47-.031.031c-.032.029-9.184 8.242-18.75 16.469-4.791 4.121-9.689 8.228-13.563 11.313-1.937 1.542-3.622 2.828-4.906 3.719-.642.445-1.181.804-1.594 1.031-.413.228-.751.313-.719.313.011 0-.311-.072-.75-.281-.439-.209-1.03-.53-1.719-.938-1.378-.815-3.196-2.01-5.313-3.438-4.234-2.847-9.662-6.664-15.12-10.594-10.926-7.859-22-16.08-24.375-17.656-2.445-1.63-8.72-4.067-15.438-6.563-6.717-2.495-13.814-5.01-17.625-6.531-3.966-1.586-12.937-3.281-21-4.625-8.06-1.344-15.16-2.313-15.16-2.313l-.25-.031-.156.156-59.844 52.938-.063.063-.063.094c0 0-1.405 3.085-2 4.406 35.705 72.41 110.25 122.22 196.44 122.22 120.9 0 218.91-98.01 218.91-218.91 0-10.1-.677-20.05-2-29.781l-18.688-10.844v-.031h-.031l-89.75-39.906-.406-.156" fill="#b0b0b0"/>
 <g fill-rule="evenodd">
  <path d="m256 1c-140.83 0-255 114.17-255 255 0 140.83 114.17 255 255 255 140.83 0 255-114.17 255-255 0-140.83-114.17-255-255-255m8.827 44.931c120.9 0 218.9 98 218.9 218.9 0 120.9-98 218.9-218.9 218.9-120.9 0-218.93-98-218.93-218.9 0-120.9 98.03-218.9 218.93-218.9" fill-opacity=".067"/>
  <g fill-opacity=".129">
   <path d="m256 4.43c-138.94 0-251.57 112.63-251.57 251.57 0 138.94 112.63 251.57 251.57 251.57 138.94 0 251.57-112.63 251.57-251.57 0-138.94-112.63-251.57-251.57-251.57m5.885 38.556c120.9 0 218.9 98 218.9 218.9 0 120.9-98 218.9-218.9 218.9-120.9 0-218.93-98-218.93-218.9 0-120.9 98.03-218.9 218.93-218.9"/>
   <path d="m256 8.36c-136.77 0-247.64 110.87-247.64 247.64 0 136.77 110.87 247.64 247.64 247.64 136.77 0 247.64-110.87 247.64-247.64 0-136.77-110.87-247.64-247.64-247.64m2.942 31.691c120.9 0 218.9 98 218.9 218.9 0 120.9-98 218.9-218.9 218.9-120.9 0-218.93-98-218.93-218.9 0-120.9 98.03-218.9 218.93-218.9"/>
  </g>
  <path d="m253.04 7.86c-135.42 0-245.19 109.78-245.19 245.19 0 135.42 109.78 245.19 245.19 245.19 135.42 0 245.19-109.78 245.19-245.19 0-135.42-109.78-245.19-245.19-245.19m0 26.297c120.9 0 218.9 98 218.9 218.9 0 120.9-98 218.9-218.9 218.9-120.9 0-218.93-98-218.93-218.9 0-120.9 98.03-218.9 218.93-218.9z" fill="#ffffff" stroke="#000000" stroke-opacity=".31" stroke-width="4.904"/>
 </g>
 <path d="m369.63 121.59c-23.325 0-42.25 18.925-42.25 42.25 0 10.04 3.526 19.253 9.375 26.5l-77.28 117.19c-3.626-1.014-7.425-1.563-11.375-1.563-10.327 0-19.77 3.7-27.11 9.854l-64.54-64.54c-7.648-7.648-18.216-12.377-29.887-12.377-23.325 0-42.25 18.893-42.25 42.22 0 6.481 1.485 12.637 4.094 18.13l-38.563 35.31c3.455 8.604 7.431 16.946 11.906 24.969l84.82 84.82c31.517 17.578 67.819 27.607 106.47 27.607 120.9 0 218.91-98.01 218.91-218.91 0-18.328-2.267-36.13-6.51-53.14l-65.939-65.939c-7.647-7.647-18.208-12.379-29.871-12.379" opacity=".25"/>
 <path d="m369.63 121.59c-23.325 0-42.25 18.925-42.25 42.25 0 10.04 3.526 19.253 9.375 26.5l-77.28 117.19c-3.626-1.014-7.425-1.563-11.375-1.563-11.222 0-21.405 4.361-28.969 11.5l-51.09-28.19c.517-2.641.781-5.364.781-8.156 0-23.325-18.925-42.22-42.25-42.22-23.325 0-42.25 18.893-42.25 42.22 0 6.481 1.485 12.637 4.094 18.13l-38.563 35.31c3.455 8.604 7.431 16.946 11.906 24.969l44.25-41.5c6.086 3.4 13.1 5.344 20.563 5.344 11.219 0 21.406-4.395 28.969-11.531l51.13 28.19c-.517 2.641-.781 5.364-.781 8.156 0 23.325 18.893 42.22 42.22 42.22 23.325 0 42.22-18.893 42.22-42.22 0-10.04-3.489-19.282-9.344-26.531l77.25-117.16c3.629 1.016 7.453 1.563 11.406 1.563 10.198 0 19.514-3.608 26.813-9.625l75.28 47c-.48-11.1-1.77-21.981-3.844-32.594l-57.47-36.03c.941-3.503 1.469-7.169 1.469-10.969 0-23.325-18.925-42.25-42.25-42.25" fill="#ffffff"/>
</svg>
