<svg height="512" viewBox="0 0 512 512" width="512" xmlns="http://www.w3.org/2000/svg">
 <path d="m471.95 253.05c0 120.9-98.01 218.9-218.9 218.9-120.9 0-218.9-98.01-218.9-218.9 0-120.9 98.01-218.9 218.9-218.9 120.9 0 218.9 98.01 218.9 218.9" fill="#9f9f9f" fill-rule="evenodd"/>
 <path d="m261.81151 83.741731c-93.90536 0-170.041136 75.009669-170.041136 167.526149l.0074.007c.0011 46.25825 19.033946 88.13122 49.803496 118.45251l.29097.28698c-.0953-.0936-.19572-.18573-.29097-.2799l138.0968 101.44323c113.30259-27.33774 174.0154-91.25237 196.0866-202.87967l-89.8272-123.83518c-30.76432-30.31616-77.15598-60.700667-124.10864-60.700667" opacity=".25"/>
 <path d="m256 1c-140.83 0-255 114.17-255 255 0 140.83 114.17 255 255 255 140.83 0 255-114.17 255-255 0-140.83-114.17-255-255-255m8.827 44.931c120.9 0 218.9 98 218.9 218.9 0 120.9-98 218.9-218.9 218.9-120.9 0-218.93-98-218.93-218.9 0-120.9 98.03-218.9 218.93-218.9" fill-opacity=".067" fill-rule="evenodd"/>
 <g fill-opacity=".129" fill-rule="evenodd">
  <path d="m256 4.433c-138.94 0-251.57 112.63-251.57 251.57 0 138.94 112.63 251.57 251.57 251.57 138.94 0 251.57-112.63 251.57-251.57 0-138.94-112.63-251.57-251.57-251.57m5.885 38.556c120.9 0 218.9 98 218.9 218.9 0 120.9-98 218.9-218.9 218.9-120.9 0-218.93-98-218.93-218.9 0-120.9 98.03-218.9 218.93-218.9"/>
  <path d="m256 8.356c-136.77 0-247.64 110.87-247.64 247.64 0 136.77 110.87 247.64 247.64 247.64 136.77 0 247.64-110.87 247.64-247.64 0-136.77-110.87-247.64-247.64-247.64m2.942 31.691c120.9 0 218.9 98 218.9 218.9 0 120.9-98 218.9-218.9 218.9-120.9 0-218.93-98-218.93-218.9 0-120.9 98.03-218.9 218.93-218.9"/>
 </g>
 <path d="m253.04 7.859c-135.42 0-245.19 109.78-245.19 245.19 0 135.42 109.78 245.19 245.19 245.19 135.42 0 245.19-109.78 245.19-245.19 0-135.42-109.78-245.19-245.19-245.19zm0 26.297c120.9 0 218.9 98 218.9 218.9 0 120.9-98 218.9-218.9 218.9-120.9 0-218.93-98-218.93-218.9 0-120.9 98.03-218.9 218.93-218.9z" fill="#ffffff" fill-rule="evenodd" stroke="#000000" stroke-opacity=".31" stroke-width="4.904"/>
 <g transform="matrix(2.3652906 0 0 2.3652906 -44.403603 -1934.8143)">
  <path d="m128.00001 853.70593c-21.09623 0-40.018466 9.2427-52.963474 23.89675l23.130828 40.0194c3.084946-13.62809 15.293686-23.85846 29.832646-23.85846l0-.0766 63.64807 0c-11.41838-23.65741-35.61318-39.9811-63.64807-39.9811z" fill="#f2f2f2" overflow="visible"/>
  <path d="m69.789974 884.30449c-7.845597 11.38289-12.446224 25.18343-12.446224 40.0577 0 34.23197 24.325879 62.7784 56.63989 69.27759l23.09254-40.05769c-2.87148.89625-5.91584 1.37866-9.07617 1.37866-12.62892 0-23.52281-7.69129-28.185914-18.65019-.0049-.011.0049-.0275 0-.0382l-30.024122-51.96787z" fill="#f9f9f9" overflow="visible"/>
  <path d="m128.00001 901.23136c-12.77439 0-23.13083 10.35644-23.13083 23.13083 0 12.77438 10.35644 23.13082 23.13083 23.13082 12.77438 0 23.13082-10.35644 23.13082-23.13082 0-12.77439-10.35644-23.13083-23.13082-23.13083z" fill="#ffffff" overflow="visible"/>
  <path d="m148.37352 901.57602c6.26927 5.60968 10.22505 13.74383 10.22505 22.78617 0 6.95446-2.34799 13.3871-6.28056 18.5353l.0382.0382-29.94753 51.85288c1.84397.14422 3.71015.22978 5.59122.22978 39.03049 0 70.65626-31.62577 70.65626-70.65626 0-7.97962-1.35449-15.63251-3.79131-22.78616l-46.49143 0z" fill="#ffffff" overflow="visible"/>
 </g>
 <g transform="matrix(1.7872622 0 0 1.7872622 206.24408 242.06505)">
  <path d="m98.179393 68.57833c.16001-.258241 1.23222-1.705226 2.382687-3.215525 1.15048-1.510294 2.09178-3.017897 2.09178-3.350231 0-.554531-1.40169-.604243-17.037357-.604243-9.37054 0-17.1162.07885-17.21257.175221-.28165.281652-36.55931.638545-37.77461.371619l-1.10394-.242469.0946-16.533493.0946-16.533494 40.65675-.08005 40.656747-.08005-.0945 16.734201c-.0613 10.858076-.22224 16.7311-.45829 16.725364-.20008-.0049-2.97783 1.591255-6.17278 3.546924-5.761297 3.526569-6.684127 3.991705-6.123107 3.086235z" fill="#3e3e40"/>
  <path d="m51.011493 53.916977c.69047-.403254 1.62429-1.280588 2.07516-1.949627 1.34602-1.997356.96118-5.453441-.76695-6.887656-.47458-.39387-.42741-.620635.37285-1.792443 1.62027-2.37252.70719-5.515136-2.07587-7.144704-.96575-.565474-2.10079-.741816-5.57117-.865544-3.90181-.139119-4.40904-.08602-4.84256.506843-.37093.50728-.48424 2.682873-.48424 9.297613 0 7.614157.0725 8.707906.61333 9.248705.93716.937153 8.89449.629284 10.67945-.413187z" fill="#ffffff"/>
  <path d="m44.357003 51.017521c-.15006-.154155-.27284-1.235216-.27284-2.40237v-2.12209h1.91988c2.46536 0 3.53692.709148 3.53692 2.340703 0 .664444-.23425 1.402492-.52055 1.640104-.62255.516665-4.27517.94248-4.66341.543653z" fill="#3e3e40"/>
  <path d="m44.084163 41.036258v-1.818935h2.10996c2.26783 0 2.98306.403712 2.98306 1.683815 0 1.361485-.9456 1.954054-3.11818 1.954054h-1.97484z" fill="#3e3e40"/>
  <path d="m68.021763 54.626009c.72724-.194788.82274-.420953.72757-1.723024l-.10955-1.498796-4.18355-.181895-4.18355-.181894v-2.18272-2.182724l3.44358-.105636c3.63732-.111582 3.9987-.284076 4.00848-1.913381.009-1.543126-.59886-1.800747-4.25074-1.800747h-3.38322v-1.818934-1.818935h3.66179c4.31537 0 5.0691-.288591 5.0691-1.94087 0-1.960872-.32038-2.060788-6.60812-2.060788-5.38939 0-5.75884.04447-6.12993.737869-.26177.489124-.35807 3.682326-.28564 9.472203.0911 7.285233.19979 8.791485.65493 9.078809.60025.378917 10.23016.480026 11.56885.121463z" fill="#ffffff"/>
  <path d="m78.667843 54.48358c.66049-.353491.70365-.833255.70365-7.821422v-7.444835l1.90989-.005c1.05043-.0028 2.26435-.100051 2.69759-.216268.94937-.25466 1.34531-1.566437.85893-2.845709l-.35538-.934697-7.0119.0056c-3.85655.0028-7.23291.145617-7.50302.316792-.49699.314952-.6914 2.799936-.25331 3.238025.13079.130788 1.37494.30205 2.76478.380586l2.52698.142784v7.398509c0 6.662408.0633 7.435394.63663 7.769305.8285.482558 2.14077.489649 3.02516.01634z" fill="#ffffff"/>
  <path d="m86.631613 54.50476c.36526-.195488.96185-1.183399 1.32574-2.195364l.66164-1.839937 3.25811.103585 3.2581.103589.58302 1.745474c.64369 1.927099 1.18141 2.42418 2.63139 2.432507 1.3426.0077 2.121527-.341519 2.121527-.951164 0-.8657-6.604717-18.123727-7.045337-18.409358-.69128-.448116-2.69437-.308978-3.22755.224202-.27643.276433-2.02256 4.482646-3.88029 9.347138-3.16112 8.277476-3.33602 8.874991-2.72792 9.319641.76953.562696 2.11487.615639 3.04157.119687z" fill="#ffffff"/>
  <path d="m90.205863 46.656361c-.11028-.110274.11454-1.051573.4996-2.091774.38506-1.040198.78981-2.136824.89944-2.43695.1683-.460697 1.92854 3.565652 1.94825 4.456393.007.311629-3.0421.377522-3.34729.07233z" fill="#3e3e40"/>
 </g>
</svg>
