<svg viewBox="0 0 512 512" xmlns="http://www.w3.org/2000/svg">
 <g fill-rule="evenodd">
  <path d="m471.95 253.05c0 120.9-98.01 218.91-218.91 218.91s-218.91-98.01-218.91-218.91 98.01-218.91 218.91-218.91 218.91 98.01 218.91 218.91" fill="#9f9f9f"/>
  <path d="m256 1c-140.83 0-255 114.17-255 255s114.17 255 255 255 255-114.17 255-255-114.17-255-255-255m8.827 44.931c120.9 0 218.9 98 218.9 218.9s-98 218.9-218.9 218.9-218.93-98-218.93-218.9 98.03-218.9 218.93-218.9" fill-opacity=".067"/>
  <g fill-opacity=".129">
   <path d="m256 4.43c-138.94 0-251.57 112.63-251.57 251.57s112.63 251.57 251.57 251.57 251.57-112.63 251.57-251.57-112.63-251.57-251.57-251.57m5.885 38.556c120.9 0 218.9 98 218.9 218.9s-98 218.9-218.9 218.9-218.93-98-218.93-218.9 98.03-218.9 218.93-218.9"/>
   <path d="m256 8.36c-136.77 0-247.64 110.87-247.64 247.64s110.87 247.64 247.64 247.64 247.64-110.87 247.64-247.64-110.87-247.64-247.64-247.64m2.942 31.691c120.9 0 218.9 98 218.9 218.9s-98 218.9-218.9 218.9-218.93-98-218.93-218.9 98.03-218.9 218.93-218.9"/>
  </g>
  <path d="m253.04 7.86c-135.42 0-245.19 109.78-245.19 245.19 0 135.42 109.78 245.19 245.19 245.19 135.42 0 245.19-109.78 245.19-245.19 0-135.42-109.78-245.19-245.19-245.19m0 26.297c120.9 0 218.9 98 218.9 218.9s-98 218.9-218.9 218.9-218.93-98-218.93-218.9 98.03-218.9 218.93-218.9z" fill="#ffffff" stroke="#000000" stroke-opacity=".31" stroke-width="4.904"/>
 </g>
 <path d="m215.54 128.83c-48.03 0-86.7 38.669-86.7 86.7 0 24.02 9.669 45.692 25.34 61.36l55.59 55.59v50.68l84.84 84.84c87.57-16.832 156.57-85.84 173.39-173.41l-84.83-84.83h-50.68l-55.59-55.59c-15.671-15.671-37.35-25.34-61.36-25.34" opacity=".25"/>
 <path d="m215.54 128.83c-48.03 0-86.7 38.669-86.7 86.7 0 48.03 38.669 86.7 86.7 86.7 48.03 0 86.7-38.669 86.7-86.7 0-48.03-38.669-86.7-86.7-86.7m102.93 80.928c.106 1.923.29 3.823.29 5.774 0 57.18-46.03 103.22-103.22 103.22-1.95 0-3.851-.185-5.774-.29v64.7h173.4v-173.4h-64.7" fill="#ffffff"/>
</svg>
