<svg viewBox="0 0 512 512" xmlns="http://www.w3.org/2000/svg">
 <g fill-rule="evenodd">
  <path d="m471.95 253.05c0 120.9-98.01 218.9-218.9 218.9-120.9 0-218.9-98.01-218.9-218.9 0-120.9 98.01-218.9 218.9-218.9 120.9 0 218.9 98.01 218.9 218.9" fill="#b0b0b0"/>
  <path d="m256 1c-140.83 0-255 114.17-255 255s114.17 255 255 255 255-114.17 255-255-114.17-255-255-255m8.827 44.931c120.9 0 218.9 98 218.9 218.9s-98 218.9-218.9 218.9-218.93-98-218.93-218.9 98.03-218.9 218.93-218.9" fill-opacity=".067"/>
  <g fill-opacity=".129">
   <path d="m256 4.433c-138.94 0-251.57 112.63-251.57 251.57s112.63 251.57 251.57 251.57 251.57-112.63 251.57-251.57-112.63-251.57-251.57-251.57m5.885 38.556c120.9 0 218.9 98 218.9 218.9s-98 218.9-218.9 218.9-218.93-98-218.93-218.9 98.03-218.9 218.93-218.9"/>
   <path d="m256 8.356c-136.77 0-247.64 110.87-247.64 247.64s110.87 247.64 247.64 247.64 247.64-110.87 247.64-247.64-110.87-247.64-247.64-247.64m2.942 31.691c120.9 0 218.9 98 218.9 218.9s-98 218.9-218.9 218.9-218.93-98-218.93-218.9 98.03-218.9 218.93-218.9"/>
  </g>
  <path d="m253.04 7.859c-135.42 0-245.19 109.78-245.19 245.19 0 135.42 109.78 245.19 245.19 245.19 135.42 0 245.19-109.78 245.19-245.19 0-135.42-109.78-245.19-245.19-245.19zm0 26.297c120.9 0 218.9 98 218.9 218.9s-98 218.9-218.9 218.9-218.93-98-218.93-218.9 98.03-218.9 218.93-218.9z" fill="#ffffff" stroke="#000000" stroke-opacity=".31" stroke-width="4.904"/>
 </g>
 <path d="m282.67 94.84c-77.81.277-141.38 60.976-146.25 137.63l9.781 9.781h-38.25c.084 48.26 19.678 91.94 51.31 123.58l105.79 105.79c113.17-6.12 203.48-98.19 206.79-212.09l-102.91-102.91c-15.402-15.402-34.912-26.722-56.68-32.19l-29.582-29.582" opacity=".25"/>
 <path d="m282.67 94.84c-77.81.277-141.38 60.976-146.25 137.63h82.03c4.563-31.487 31.523-55.708 64.22-55.969v-81.66m9.781 26.313v56.09c23.21 4.43 41.452 24.709 41.563 49.06.266 2.01.108 4.049 0 6.156h70.03c-4.606-59.22-52.39-106.52-111.59-111.31m-184.5 121.09c.169 96.47 78.28 174.62 174.72 174.91v-109.78c-35.8-.285-64.738-29.3-64.906-65.12h-109.81zm224.78 0c-4.885 17.931-20.99 31.14-40.28 31.656v37.906c1.592.109 3.192.188 4.813.188 40.23 0 73.26-30.575 77.25-69.75h-41.781" fill="#ffffff"/>
</svg>
