<svg viewBox="0 0 512 512" xmlns="http://www.w3.org/2000/svg">
 <g fill-rule="evenodd">
  <path d="m471.95 253.05c0 120.9-98.01 218.91-218.91 218.91s-218.91-98.01-218.91-218.91 98.01-218.91 218.91-218.91 218.91 98.01 218.91 218.91" fill="#9f9f9f"/>
  <path d="m256 1c-140.83 0-255 114.17-255 255s114.17 255 255 255 255-114.17 255-255-114.17-255-255-255m8.827 44.931c120.9 0 218.9 98 218.9 218.9s-98 218.9-218.9 218.9-218.93-98-218.93-218.9 98.03-218.9 218.93-218.9" fill-opacity=".067"/>
  <g fill-opacity=".129">
   <path d="m256 4.43c-138.94 0-251.57 112.63-251.57 251.57s112.63 251.57 251.57 251.57 251.57-112.63 251.57-251.57-112.63-251.57-251.57-251.57m5.885 38.556c120.9 0 218.9 98 218.9 218.9s-98 218.9-218.9 218.9-218.93-98-218.93-218.9 98.03-218.9 218.93-218.9"/>
   <path d="m256 8.36c-136.77 0-247.64 110.87-247.64 247.64s110.87 247.64 247.64 247.64 247.64-110.87 247.64-247.64-110.87-247.64-247.64-247.64m2.942 31.691c120.9 0 218.9 98 218.9 218.9s-98 218.9-218.9 218.9-218.93-98-218.93-218.9 98.03-218.9 218.93-218.9"/>
  </g>
  <path d="m253.04 7.86c-135.42 0-245.19 109.78-245.19 245.19 0 135.42 109.78 245.19 245.19 245.19 135.42 0 245.19-109.78 245.19-245.19 0-135.42-109.78-245.19-245.19-245.19m0 26.297c120.9 0 218.9 98 218.9 218.9s-98 218.9-218.9 218.9-218.93-98-218.93-218.9 98.03-218.9 218.93-218.9z" fill="#ffffff" stroke="#000000" stroke-opacity=".31" stroke-width="4.904"/>
 </g>
 <g fill-rule="evenodd">
  <path d="m103.02 143.59v182.31l24.688 24.688h-17.625v17.813l99.17 99.17c14.15 2.873 28.795 4.385 43.793 4.385 120.9 0 218.91-98.01 218.91-218.91 0-18.15-2.223-35.772-6.385-52.633l-56.58-56.58h-130.75v17.844l23.5 23.5h-13.563l-41.594-41.594h-143.56" opacity=".25"/>
  <path d="m103.02 143.59v182.31h143.56v-182.31zm175.22.25v17.844h130.75v-17.844zm-97.84 20.719h.875l39.41.094-11.688 6.844h-10.313c.111.339 6.01 4.824 9.438 11.719 1.845 3.71 2.938 8.1 2.938 12.719 0 2.136.136 4.44-.594 6.656-1.211 3.679-2.071 6.151-3.25 7.844-3.935 5.649-5.612 4.706-12.12 12.25-3.57 4.135-4.613 6.62-4.688 8.656-.051 1.458.188 3.398 1.625 4.906 1.521 1.597 3.887 3.035 7.281 5.813 5.463 4.468 11.06 9.05 14.313 14.375 3.349 5.476 4.246 11.723 3.438 18.406-1.605 13.297-20.01 30.911-49.75 30.06-29.611-.846-36.469-17.563-36.469-17.563s-7.094-12.788 6-26.688c13.09-13.897 40.75-13.188 40.75-13.188s1.104-.05-.406-1.813c-6.328-7.384-3.188-17.844-3.188-17.844s-7.903.952-15.344-1.125c-2.475-.689-8.469-4.188-8.469-4.188s-17.12-9.289-10.469-32.656c4.298-15.11 19.481-22.356 30.469-24.344 4.649-.844 8.557-.938 10.219-.938m-8.469 6.406c-3.609-.024-6.125 1.063-6.125 1.063-3.978 2.495-14.14 3.845-9.969 29.09 4.096 24.786 26.375 21.375 26.375 21.375s19.446-4.256 10.156-32.12c-5.411-16.242-14.424-19.361-20.438-19.406m106.31 14.219v17.844h130.75v-17.844zm0 41.38v17.813h130.75v-17.813zm-94 26.5c-3.849.26-7.777.056-10.719.313-8.844.771-13.534 2.261-18.313 5.469-2.245 1.508-4.663 2.823-6.844 5.781-8.67 11.763 3.048 24.91 5.156 26 4.056 2.097 12.258 6.295 23.13 6.25 4.421-.018 11.437-.271 15.438-2.375 13.552-7.129 13.433-13.628 11.563-22.563-1.669-7.975-19.406-18.875-19.406-18.875m94 14.844v17.813h130.75v-17.813zm0 41.34v17.813h130.75v-17.813zm-168.16 41.34v17.813h298.91v-17.813z" fill="#ffffff"/>
 </g>
</svg>
