<svg height="512" viewBox="0 0 512 512" width="512" xmlns="http://www.w3.org/2000/svg">
 <path d="m471.95 253.05c0 120.9-98.01 218.9-218.9 218.9-120.9 0-218.9-98.01-218.9-218.9 0-120.9 98.01-218.9 218.9-218.9 120.9 0 218.9 98.01 218.9 218.9" fill="#8f8f8f" fill-rule="evenodd"/>
 <path d="m355.09 122.69l-16.5 8.281s8.25 16.593 8.25 33.19c0 7.976-1.865 17.813-3.844 25.938-4.058-.785-8.371-1.031-12.656-1.031-35.28 0-64.08 27.864-65.875 62.906-.243-.296-.501-.584-.75-.875-.243-.296-.501-.585-.75-.875-.042-.051-.083-.105-.125-.156-.03-.033-.064-.061-.094-.094-.173-.209-.355-.419-.531-.625-.131-.16-.273-.311-.406-.469-.024-.029-.039-.064-.063-.094-.087-.099-.162-.214-.25-.313-.243-.296-.501-.584-.75-.875-.242-.295-.502-.585-.75-.875-.141-.171-.295-.33-.438-.5-.337-.418-.682-.842-1.031-1.25-.243-.296-.501-.584-.75-.875-.399-.487-.804-.965-1.219-1.438-.086-.102-.163-.211-.25-.313-.243-.296-.501-.584-.75-.875-.244-.298-.5-.582-.75-.875-.244-.297-.5-.583-.75-.875-.08-.097-.169-.184-.25-.281-.005-.006.005-.026 0-.031-.063-.073-.124-.147-.188-.219-.096-.114-.185-.231-.281-.344-.243-.296-.502-.584-.75-.875-.242-.295-.502-.585-.75-.875-.094-.114-.187-.23-.281-.344-.059-.065-.128-.122-.188-.188-.019-.022-.044-.04-.063-.063-.055-.06-.101-.128-.156-.188-.006-.007.006-.025 0-.031-.019-.022-.043-.041-.063-.063-.098-.119-.214-.225-.313-.344-.035-.039-.059-.087-.094-.125-.109-.13-.202-.277-.313-.406-.242-.296-.502-.584-.75-.875-.244-.297-.501-.583-.75-.875-.112-.126-.231-.25-.344-.375-.137-.164-.267-.337-.406-.5-.108-.132-.235-.244-.344-.375-.034-.038-.059-.087-.094-.125-.033-.041-.061-.084-.094-.125-.068-.078-.119-.172-.188-.25-.242-.295-.502-.585-.75-.875-.243-.297-.501-.583-.75-.875-.122-.149-.251-.289-.375-.438-.025-.028-.038-.066-.063-.094-.334-.413-.687-.815-1.031-1.219-.244-.297-.501-.583-.75-.875-.245-.299-.499-.581-.75-.875-.131-.16-.273-.31-.406-.469-.025-.027-.038-.066-.063-.094-.086-.102-.163-.211-.25-.313-.244-.298-.501-.582-.75-.875-.139-.17-.296-.332-.438-.5-.094-.105-.186-.209-.281-.313-.009-.01-.023-.021-.031-.031-.005-.006.005-.025 0-.031-.243-.296-.502-.583-.75-.875-.122-.149-.252-.29-.375-.438-.355-.441-.727-.881-1.094-1.313-.229-.279-.485-.538-.719-.813-.015-.017-.016-.046-.031-.063-.243-.296-.502-.584-.75-.875-.159-.194-.339-.371-.5-.563-.005-.006.005-.026 0-.031-.078-.089-.141-.193-.219-.281-.168-.205-.36-.391-.531-.594-.055-.061-.101-.127-.156-.188-.024-.028-.038-.065-.063-.094-.243-.296-.502-.583-.75-.875-.244-.298-.501-.582-.75-.875-.141-.172-.294-.329-.438-.5-.028-.034-.066-.06-.094-.094-.006-.006.006-.025 0-.031-.02-.022-.043-.041-.063-.063-.049-.056-.076-.131-.125-.188-.243-.297-.502-.583-.75-.875-12.1-14.751-30.408-24.16-50.906-24.16-36.441 0-66 29.715-66 66.38 0 2.291.027 4.519.25 6.75.543 14.209-.246 34.749 16.25 84.53 7.983 24.09 14.871 34.17 19.344 38.41.354.378.703.721 1.031 1.031.394.42.763.757 1.125 1.094.313.331.614.598.906.875.467.499.891.897 1.313 1.281.322.333.639.662.938.938.363.379.728.725 1.063 1.031.394.41.765.8 1.125 1.125.326.335.636.662.938.938.286.297.576.593.844.844.419.444.838.841 1.219 1.188.337.35.657.683.969.969.354.37.705.732 1.031 1.031.39.406.77.774 1.125 1.094.321.331.64.635.938.906.396.413.765.801 1.125 1.125.278.286.553.572.813.813.383.405.744.774 1.094 1.094.377.395.75.75 1.094 1.063.362.377.7.732 1.031 1.031.331.344.664.659.969.938.398.417.765.802 1.125 1.125.36.372.703.705 1.031 1 .266.276.532.549.781.781.443.472.853.894 1.25 1.25.383.396.747.755 1.094 1.063.281.289.551.572.813.813.391.413.771.774 1.125 1.094.375.391.722.758 1.063 1.063.343.355.656.686.969.969.337.352.66.688.969.969.383.402.748.751 1.094 1.063.352.368.679.711 1 1 .407.426.791.803 1.156 1.125.252.26.483.532.719.75.454.486.878.893 1.281 1.25.337.35.661.662.969.938.318.332.615.64.906.906.374.396.725.756 1.063 1.063.373.393.726.76 1.063 1.063.32.336.644.638.938.906.357.38.707.736 1.031 1.031.392.416.773.779 1.125 1.094.315.33.618.643.906.906.333.355.665.689.969.969.441.473.86.875 1.25 1.219.292.304.575.599.844.844.43.459.839.853 1.219 1.188.292.304.576.599.844.844.35.374.683.711 1 1 .406.434.796.804 1.156 1.125.348.367.686.688 1 .969.27.286.531.579.781.813.479.523.927.947 1.344 1.313.325.34.643.643.938.906.323.343.613.67.906.938.405.435.798.807 1.156 1.125.351.371.685.688 1 .969.354.376.683.715 1 1 .364.388.706.74 1.031 1.031.366.39.705.74 1.031 1.031.398.423.775.788 1.125 1.094.295.31.575.6.844.844.393.424.746.785 1.094 1.094.361.385.71.714 1.031 1 .437.467.84.865 1.219 1.188.262.271.51.533.75.75.416.451.793.838 1.156 1.156.365.387.708.717 1.031 1 .334.354.639.672.938.938.342.368.663.693.969.969.416.452.794.809 1.156 1.125.333.353.641.673.938.938.408.44.77.817 1.125 1.125.316.334.623.623.906.875.31.336.596.65.875.906.413.457.828.806 1.188 1.125.303.327.602.625.875.875.413.458.797.838 1.156 1.156.39.423.754.798 1.094 1.094.281.301.559.58.813.813.412.458.799.809 1.156 1.125.36.392.715.72 1.031 1 .39.425.756.768 1.094 1.063.281.303.559.58.813.813.059.066.099.125.156.188 5.081.353 10.204.563 15.375.563 120.9 0 218.91-98.01 218.91-218.91 0-5.54-.189-11.03-.594-16.469-.166-.166-.338-.348-.5-.5-.351-.37-.674-.696-1-1-.357-.376-.67-.692-1-1-.357-.376-.67-.692-1-1-.263-.277-.501-.511-.75-.75-.427-.46-.828-.854-1.219-1.219-.35-.369-.675-.697-1-1-.351-.37-.674-.696-1-1-.357-.376-.67-.692-1-1-.357-.376-.67-.692-1-1-.263-.277-.501-.511-.75-.75-.427-.46-.828-.854-1.219-1.219-.349-.368-.676-.698-1-1-.35-.369-.675-.697-1-1-.357-.376-.67-.692-1-1-.357-.376-.67-.692-1-1-.35-.369-.644-.697-.969-1-.349-.368-.676-.666-1-.969-.349-.368-.676-.698-1-1-.35-.369-.675-.697-1-1-.351-.37-.674-.696-1-1-.357-.376-.67-.692-1-1-.35-.369-.644-.697-.969-1-.349-.368-.676-.666-1-.969-.349-.368-.676-.698-1-1-.35-.369-.675-.697-1-1-.351-.37-.674-.696-1-1-.357-.376-.67-.692-1-1-.357-.376-.67-.692-1-1-.263-.277-.501-.511-.75-.75-.427-.46-.828-.854-1.219-1.219-.349-.368-.676-.698-1-1-.351-.37-.674-.696-1-1-.357-.376-.67-.692-1-1-.357-.376-.67-.692-1-1-.263-.277-.501-.511-.75-.75-.427-.46-.828-.854-1.219-1.219-.349-.368-.676-.698-1-1-.35-.369-.675-.697-1-1-.351-.37-.674-.696-1-1-.357-.376-.67-.692-1-1-.35-.369-.644-.697-.969-1-.349-.368-.676-.666-1-.969-.349-.368-.676-.698-1-1-.35-.369-.675-.697-1-1-.351-.37-.674-.696-1-1-.357-.376-.67-.692-1-1-.357-.376-.67-.692-1-1-.349-.368-.645-.666-.969-.969-.349-.368-.676-.698-1-1-.35-.369-.675-.697-1-1-.351-.37-.674-.696-1-1-.357-.376-.67-.692-1-1-.357-.376-.67-.692-1-1-.263-.277-.501-.511-.75-.75-.427-.46-.828-.854-1.219-1.219-.349-.368-.676-.698-1-1-.35-.369-.675-.697-1-1-.357-.376-.67-.692-1-1-.357-.376-.67-.692-1-1-.35-.369-.644-.697-.969-1-.349-.368-.676-.666-1-.969-.349-.368-.676-.698-1-1-.35-.369-.675-.697-1-1-.351-.37-.674-.696-1-1-.357-.376-.67-.692-1-1-.35-.369-.644-.697-.969-1-.349-.368-.676-.666-1-.969-.349-.368-.676-.698-1-1-.35-.369-.675-.697-1-1-.351-.37-.674-.696-1-1-.357-.376-.67-.692-1-1-.357-.376-.67-.692-1-1-.263-.277-.501-.511-.75-.75-.427-.46-.828-.854-1.219-1.219-.349-.368-.676-.698-1-1-.351-.37-.674-.696-1-1-.357-.376-.67-.692-1-1-.357-.376-.67-.692-1-1-.263-.277-.501-.511-.75-.75-.427-.46-.828-.854-1.219-1.219-.349-.368-.676-.698-1-1-.35-.369-.675-.697-1-1-.357-.376-.67-.692-1-1-.357-.376-.67-.692-1-1-.35-.369-.644-.697-.969-1-.349-.368-.676-.666-1-.969-.349-.368-.676-.698-1-1-.35-.369-.675-.697-1-1-.351-.37-.674-.696-1-1-.357-.376-.67-.692-1-1-.35-.369-.644-.697-.969-1-.349-.368-.676-.666-1-.969-.349-.368-.676-.698-1-1-.35-.369-.675-.697-1-1-.351-.37-.674-.696-1-1-.357-.376-.67-.692-1-1-.357-.376-.67-.692-1-1-.263-.277-.501-.511-.75-.75-.427-.46-.828-.854-1.219-1.219-.349-.368-.676-.698-1-1-.35-.369-.675-.697-1-1-.357-.376-.67-.692-1-1-.357-.376-.67-.692-1-1-.263-.277-.501-.511-.75-.75-.429-.462-.827-.853-1.219-1.219-.349-.368-.676-.698-1-1-.35-.369-.675-.697-1-1-.351-.37-.674-.696-1-1-.357-.376-.67-.692-1-1-.35-.369-.644-.697-.969-1-3.946-4.151-6.313-3.938-6.313-3.938" fill-opacity=".235"/>
 <g fill-rule="evenodd">
  <path d="m256 1c-140.83 0-255 114.17-255 255s114.17 255 255 255 255-114.17 255-255-114.17-255-255-255m8.827 44.931c120.9 0 218.9 98 218.9 218.9s-98 218.9-218.9 218.9-218.93-98-218.93-218.9 98.03-218.9 218.93-218.9" fill-opacity=".067"/>
  <g fill-opacity=".129">
   <path d="m256 4.433c-138.94 0-251.57 112.63-251.57 251.57s112.63 251.57 251.57 251.57 251.57-112.63 251.57-251.57-112.63-251.57-251.57-251.57m5.885 38.556c120.9 0 218.9 98 218.9 218.9s-98 218.9-218.9 218.9-218.93-98-218.93-218.9 98.03-218.9 218.93-218.9"/>
   <path d="m256 8.356c-136.77 0-247.64 110.87-247.64 247.64s110.87 247.64 247.64 247.64 247.64-110.87 247.64-247.64-110.87-247.64-247.64-247.64m2.942 31.691c120.9 0 218.9 98 218.9 218.9s-98 218.9-218.9 218.9-218.93-98-218.93-218.9 98.03-218.9 218.93-218.9"/>
  </g>
  <path d="m253.04 7.859c-135.42 0-245.19 109.78-245.19 245.19 0 135.42 109.78 245.19 245.19 245.19 135.42 0 245.19-109.78 245.19-245.19 0-135.42-109.78-245.19-245.19-245.19zm0 26.297c120.9 0 218.9 98 218.9 218.9s-98 218.9-218.9 218.9-218.93-98-218.93-218.9 98.03-218.9 218.93-218.9z" fill="#ffffff" stroke="#000000" stroke-opacity=".31" stroke-width="4.904"/>
 </g>
 <g fill="#ffffff" transform="matrix(1.4034 0 0 1.4034 521.04 -47.569)">
  <path d="m-241.83 169.42c-25.966 0-47.02 21.18-47.02 47.3 0 1.632.025 3.213.184 4.803.387 10.124-.184 24.757 11.57 60.23 10.01 30.2 17.631 29.56 17.631 29.56l11.754-5.912s-5.877-11.824-5.877-23.648c0-5.683 1.345-12.686 2.755-18.475 2.891.56 5.946.739 8.999.739 25.966 0 47.02-21.18 47.02-47.3s-21.05-47.3-47.02-47.3"/>
  <path d="m-135.87 263.2c25.966 0 47.02-21.18 47.02-47.3 0-1.632-.025-3.213-.184-4.803-.386-10.124.184-24.757-11.57-60.23-10.01-30.2-17.631-29.56-17.631-29.56l-11.754 5.912s5.877 11.824 5.877 23.648c0 5.683-1.345 12.686-2.755 18.475-2.891-.56-5.946-.739-8.999-.739-25.966 0-47.02 21.18-47.02 47.3s21.05 47.3 47.02 47.3"/>
 </g>
</svg>
