<svg height="512" viewBox="0 0 512 512" width="512" xmlns="http://www.w3.org/2000/svg">
 <path d="m471.95 253.05c0 120.9-98.01 218.9-218.9 218.9-120.9 0-218.9-98.01-218.9-218.9 0-120.9 98.01-218.9 218.9-218.9 120.9 0 218.9 98.01 218.9 218.9" fill="#9f9f9f" fill-rule="evenodd"/>
 <path d="m256 1c-140.83 0-255 114.17-255 255 0 140.83 114.17 255 255 255 140.83 0 255-114.17 255-255 0-140.83-114.17-255-255-255m8.827 44.931c120.9 0 218.9 98 218.9 218.9 0 120.9-98 218.9-218.9 218.9-120.9 0-218.93-98-218.93-218.9 0-120.9 98.03-218.9 218.93-218.9" fill-opacity=".067" fill-rule="evenodd"/>
 <g fill-opacity=".129" fill-rule="evenodd">
  <path d="m256 4.433c-138.94 0-251.57 112.63-251.57 251.57 0 138.94 112.63 251.57 251.57 251.57 138.94 0 251.57-112.63 251.57-251.57 0-138.94-112.63-251.57-251.57-251.57m5.885 38.556c120.9 0 218.9 98 218.9 218.9 0 120.9-98 218.9-218.9 218.9-120.9 0-218.93-98-218.93-218.9 0-120.9 98.03-218.9 218.93-218.9"/>
  <path d="m256 8.356c-136.77 0-247.64 110.87-247.64 247.64 0 136.77 110.87 247.64 247.64 247.64 136.77 0 247.64-110.87 247.64-247.64 0-136.77-110.87-247.64-247.64-247.64m2.942 31.691c120.9 0 218.9 98 218.9 218.9 0 120.9-98 218.9-218.9 218.9-120.9 0-218.93-98-218.93-218.9 0-120.9 98.03-218.9 218.93-218.9"/>
 </g>
 <path d="m472.8023 253.50052c0 120.9-98.01 218.91-218.91 218.91-120.90001 0-218.910006-98.01-218.910006-218.91 0-120.9 98.009996-218.910001 218.910006-218.910001 120.9 0 218.91 98.010001 218.91 218.910001" fill="#ffffff" fill-rule="evenodd"/>
 <path d="m253.8823 34.610519c-120.90001 0-218.910006 98.010001-218.910006 218.910001 0 120.9 98.009996 218.91 218.910006 218.91 120.9 0 218.91-98.01 218.91-218.91 0-120.9-98.01-218.910001-218.91-218.910001" fill="#9f9f9f"/>
 <path d="m276.9423 248.54052l-160.25001 175.53c37.53501 30.23 85.24001 48.34 137.19001 48.34 65.32 0 123.95-28.625 164.06-74z" fill="#9f9f9f"/>
 <path d="m411.5723 101.67052l-134.62 146.84 140.91 150.03c34.19-38.62 54.938-89.4 54.938-145.03 0-58.967-23.306-112.48-61.22-151.84" fill="#9f9f9f"/>
 <path d="m253.8823 34.610519c-55.38 0-105.95 20.559-144.50001 54.47 68.57001 73.700001 81.76001 96.650001 156.56001 171.380001 46.33-49.84 113.45-89.12 167.44-132.28-39.577-56.570001-105.22-93.560001-179.5-93.560001" fill="#9f9f9f"/>
 <path d="m148.8123 113.70052l-2.432 1.42c-1.459.849-3.166 2.845-4.266 4.982l-1.83201 3.563v255.94l1.60201 2.994c.723 1.352 1.93 2.969 2.934 3.973l84.46 84.46c8.08.904 16.289 1.385 24.611 1.385 69.3 0 131.07-32.21 171.18-82.47l-276.25-276.25m22.521 7.291l3.211 3.566c1.764 1.962 26.544 29.26 55.06 60.66l.086.086c25.677 28.28 47.37 51.827 51.646 56.1l9.262 9.262-.725.793 19.9 21.76.023.023c7.438 8.132 12.957 14 16.457 17.5l98.99 98.99c17.577-22.08 30.978-47.634 39-75.47l-68.41-68.41c-3.476-3.476-12.587-8.528-36.43-21.613-13.877-7.615-26.22-14.446-27.434-15.18l-2.205-1.334-2.719 2.986-8.891-8.891c-.541-.525-138.14-76.39-143.98-79.37l-2.852-1.459" opacity=".25"/>
 <path d="m145.4323 387.14052c-1.075-.846-2.675-2.886-3.556-4.533l-1.60201-2.995v-255.94l1.83301-3.563c1.1-2.138 2.806-4.134 4.265-4.983l2.431-1.42 2.944 3.242c1.619 1.783 29.22 32.07 61.33 67.31 32.11 35.24 58.949 64.778 59.63 65.64 1.232 1.564.637 2.246-61.06 69.966-34.27 37.614-62.748 68.48-63.29 68.6-.54.114-1.861-.484-2.936-1.33m39.926-20.9c8.144-8.901 33.24-36.402 55.767-61.12 22.528-24.714 41.23-44.662 41.545-44.33 2.829 2.913 36.634 40.22 36.522 40.31-.08.061-27.881 15.283-61.78 33.827-33.9 18.545-64.07 35.08-67.04 36.742-2.973 1.663-8.65 4.764-12.615 6.891l-7.208 3.867 14.805-16.183m124.42-93.01l-19.899-21.76 7.01-7.66c3.858-4.213 12.833-14.05 19.947-21.867l12.933-14.207 2.205 1.334c1.212.733 13.558 7.565 27.434 15.18 37.739 20.711 38.567 21.298 38.567 27.363 0 3.627-1.229 5.619-5.231 8.482-2.734 1.955-59.52 33.535-62.04 34.499-.675.259-7.82-7.04-20.926-21.367m-80.17-88c-28.519-31.399-53.3-58.696-55.06-60.66l-3.211-3.566 2.851 1.458c5.837 2.986 143.43 78.85 143.98 79.37.518.51-34.671 39.811-36.06 40.27-.349.116-23.967-25.477-52.49-56.883" fill="#ffffff"/>
 <path d="m253.04 7.859c-135.42 0-245.19 109.78-245.19 245.19 0 135.42 109.78 245.19 245.19 245.19 135.42 0 245.19-109.78 245.19-245.19 0-135.42-109.78-245.19-245.19-245.19zm0 26.297c120.9 0 218.9 98 218.9 218.9 0 120.9-98 218.9-218.9 218.9-120.9 0-218.93-98-218.93-218.9 0-120.9 98.03-218.9 218.93-218.9z" fill="#ffffff" fill-rule="evenodd" stroke="#000000" stroke-opacity=".31" stroke-width="4.904"/>
</svg>
