<svg height="512" viewBox="0 0 512 512" width="512" xmlns="http://www.w3.org/2000/svg">
 <path d="m471.95 253.05c0 120.9-98.01 218.9-218.9 218.9-120.9 0-218.9-98.01-218.9-218.9 0-120.9 98.01-218.9 218.9-218.9 120.9 0 218.9 98.01 218.9 218.9" fill="#b0b0b0" fill-rule="evenodd"/>
 <path d="m330.30836 111.70481l-28.74418 1.62336 100.25764 72.34663-3.49805 6.29031-65.38324-48.21561-18.45569 3.66538 16.98951 8.99662-7.98558-3.64773-21.90646-7.253-81.73948-55.030072-55.32248 25.583112-30.89109 36.43317-23.09791 33.05383-3.97896 43.87576 4.31102 55.10639 70.78872 105.65122 138.306 74.41014c57.09136-16.22551 138.51243-56.40666 154.19523-212.01651l1.1199-48.24259-116.31768-84.86268-48.85749-9.32198" opacity=".25"/>
 <path d="m256 1c-140.83 0-255 114.17-255 255 0 140.83 114.17 255 255 255 140.83 0 255-114.17 255-255 0-140.83-114.17-255-255-255m8.827 44.931c120.9 0 218.9 98 218.9 218.9 0 120.9-98 218.9-218.9 218.9-120.9 0-218.93-98-218.93-218.9 0-120.9 98.03-218.9 218.93-218.9" fill-opacity=".067" fill-rule="evenodd"/>
 <g fill-opacity=".129" fill-rule="evenodd">
  <path d="m256 4.433c-138.94 0-251.57 112.63-251.57 251.57 0 138.94 112.63 251.57 251.57 251.57 138.94 0 251.57-112.63 251.57-251.57 0-138.94-112.63-251.57-251.57-251.57m5.885 38.556c120.9 0 218.9 98 218.9 218.9 0 120.9-98 218.9-218.9 218.9-120.9 0-218.93-98-218.93-218.9 0-120.9 98.03-218.9 218.93-218.9"/>
  <path d="m256 8.356c-136.77 0-247.64 110.87-247.64 247.64 0 136.77 110.87 247.64 247.64 247.64 136.77 0 247.64-110.87 247.64-247.64 0-136.77-110.87-247.64-247.64-247.64m2.942 31.691c120.9 0 218.9 98 218.9 218.9 0 120.9-98 218.9-218.9 218.9-120.9 0-218.93-98-218.93-218.9 0-120.9 98.03-218.9 218.93-218.9"/>
 </g>
 <path d="m253.04 7.859c-135.42 0-245.19 109.78-245.19 245.19 0 135.42 109.78 245.19 245.19 245.19 135.42 0 245.19-109.78 245.19-245.19 0-135.42-109.78-245.19-245.19-245.19zm0 26.297c120.9 0 218.9 98 218.9 218.9 0 120.9-98 218.9-218.9 218.9-120.9 0-218.93-98-218.93-218.9 0-120.9 98.03-218.9 218.93-218.9z" fill="#ffffff" fill-rule="evenodd" stroke="#000000" stroke-opacity=".31" stroke-width="4.904"/>
 <path d="m219.84808 90.487726a162.5363 162.5363 0 0 0 -122.824623 157.318844 162.5363 162.5363 0 0 0 122.824623 157.26026v-25.00446a139.78122 139.78122 0 0 1 -98.98509-133.34035 139.78122 139.78122 0 0 1 98.98509-133.41254zm81.71822.566796v22.291738a139.78122 139.78122 0 0 1 98.85837 133.37576 139.78122 139.78122 0 0 1 -98.85837 133.33762v24.44992a162.5363 162.5363 0 0 0 120.53018-156.70299 162.5363 162.5363 0 0 0 -120.53018-156.752048z" fill="#ffffff"/>
 <path d="m219.84808 127.09245a127.37712 127.37712 0 0 0 -87.66414 120.71412 127.37712 127.37712 0 0 0 87.66414 120.81903v-20.00955a109.54434 109.54434 0 0 1 -68.98301-101.65832 109.54434 109.54434 0 0 1 68.98301-101.59561zm81.71822.65536v17.78462a109.54434 109.54434 0 0 1 68.38758 101.4253 109.54434 109.54434 0 0 1 -68.38758 101.38445v19.43323a127.37712 127.37712 0 0 0 85.37107-119.96884 127.37712 127.37712 0 0 0 -85.37107-120.05876z" fill="#ffffff"/>
 <path d="m219.84808 162.5159a93.023813 93.023813 0 0 0 -54.15772 84.29741 93.023813 93.023813 0 0 0 54.15772 84.36283v-15.48065a80.000487 80.000487 0 0 1 -40.51508-69.50347 80.000487 80.000487 0 0 1 40.51508-69.38084zm81.71822 1.80257v14.07728a80.000487 80.000487 0 0 1 37.76829 67.79627 80.000487 80.000487 0 0 1 -37.76829 67.84668v15.16182a93.023813 93.023813 0 0 0 50.17107-82.38721 93.023813 93.023813 0 0 0 -50.17107-82.49484z" fill="#ffffff"/>
 <g fill="#ffffff" transform="matrix(20.768307 0 0 20.768307 189.22158 177.44541)">
  <path d="m2.489 1.839c-.495.465-.497 1.224-.002 1.689l.235-.223c-.367-.344-.366-.898.002-1.245m1.325-.003c.368.346.37.904.002 1.25l.235.222c.495-.465.493-1.227-.001-1.693m-.236.222"/>
  <path d="m1.791 1.132c-.881.854-.883 2.244-.004 3.097l.419-.406c-.653-.634-.65-1.65.003-2.285m2.355-.003c.653.633.658 1.657.004 2.292l.419.406c.88-.854.875-2.251-.004-3.104l-.419.407m0-.001"/>
  <path d="m3.387 2.54c.156 0 .282.126.282.282v2.54c0 .156-.126.282-.282.282-.156 0-.282-.126-.282-.282v-2.54c0-.156.126-.282.282-.282"/>
 </g>
</svg>
