<svg height="512" viewBox="0 0 512 512" width="512" xmlns="http://www.w3.org/2000/svg">
 <path d="m471.95 253.05c0 120.9-98.01 218.9-218.9 218.9-120.9 0-218.9-98.01-218.9-218.9 0-120.9 98.01-218.9 218.9-218.9 120.9 0 218.9 98.01 218.9 218.9" fill="#787878" fill-rule="evenodd"/>
 <path d="m256 1c-140.83 0-255 114.17-255 255 0 140.83 114.17 255 255 255 140.83 0 255-114.17 255-255 0-140.83-114.17-255-255-255m8.827 44.931c120.9 0 218.9 98 218.9 218.9 0 120.9-98 218.9-218.9 218.9-120.9 0-218.93-98-218.93-218.9 0-120.9 98.03-218.9 218.93-218.9" fill-opacity=".067" fill-rule="evenodd"/>
 <g fill-opacity=".129" fill-rule="evenodd">
  <path d="m256 4.433c-138.94 0-251.57 112.63-251.57 251.57 0 138.94 112.63 251.57 251.57 251.57 138.94 0 251.57-112.63 251.57-251.57 0-138.94-112.63-251.57-251.57-251.57m5.885 38.556c120.9 0 218.9 98 218.9 218.9 0 120.9-98 218.9-218.9 218.9-120.9 0-218.93-98-218.93-218.9 0-120.9 98.03-218.9 218.93-218.9"/>
  <path d="m256 8.356c-136.77 0-247.64 110.87-247.64 247.64 0 136.77 110.87 247.64 247.64 247.64 136.77 0 247.64-110.87 247.64-247.64 0-136.77-110.87-247.64-247.64-247.64m2.942 31.691c120.9 0 218.9 98 218.9 218.9 0 120.9-98 218.9-218.9 218.9-120.9 0-218.93-98-218.93-218.9 0-120.9 98.03-218.9 218.93-218.9"/>
 </g>
 <path d="m190.66453 92.106201c-13.3 0-24.01 10.784999-24.01 24.069999v282.18c0 6.645 2.689 12.669 7.04 17.03l56.13 56.13c8.971 1.12 18.11 1.701 27.383 1.701 120.9 0 218.91-98.01 218.91-218.91 0-9.272-.582-18.41-1.701-27.379l-127.78-127.779999c-4.354-4.354-10.369-7.05-17.02-7.05h-138.96" opacity=".25"/>
 <path d="m329.62453 92.106201h-138.95c-13.3 0-24.01 10.783999-24.01 24.069999v282.18c0 13.264 10.712 24.05 24.01 24.05h138.95c13.312 0 24.07-10.784 24.07-24.05v-282.18c0-13.288-10.76-24.069999-24.07-24.069999m-69.39 298.309999c-28.26 0-51.21-22.964-51.21-51.19 0-28.26 22.952-51.1 51.21-51.1 28.18 0 51.09 22.844 51.09 51.1 0 28.22-22.916 51.19-51.09 51.19m-.024-27.586c-13.251 0-24.04-10.772-24.04-24.01 0-13.276 10.784-24 24.04-24 13.203 0 23.963 10.724 23.963 24 0 13.239-10.76 24.01-23.963 24.01m75.46-105.57h-151.01v-133.77h151.03v133.77z" fill="#ffffff"/>
 <path d="m253.04 7.859c-135.42 0-245.19 109.78-245.19 245.19 0 135.42 109.78 245.19 245.19 245.19 135.42 0 245.19-109.78 245.19-245.19 0-135.42-109.78-245.19-245.19-245.19zm0 26.297c120.9 0 218.9 98 218.9 218.9 0 120.9-98 218.9-218.9 218.9-120.9 0-218.93-98-218.93-218.9 0-120.9 98.03-218.9 218.93-218.9z" fill="#ffffff" fill-rule="evenodd" stroke="#000000" stroke-opacity=".31" stroke-width="4.904"/>
</svg>
