<svg xmlns="http://www.w3.org/2000/svg" height="512" viewBox="0 0 512 512" width="512"><path d="M471.95 253.05c0 120.9-98.01 218.9-218.9 218.9-120.9 0-218.9-98.01-218.9-218.9 0-120.9 98.01-218.9 218.9-218.9 120.9 0 218.9 98.01 218.9 218.9" fill="#7e7e7e" fill-rule="evenodd"/><path d="M256 1C115.17 1 1 115.17 1 256c0 140.83 114.17 255 255 255 140.83 0 255-114.17 255-255C511 115.17 396.83 1 256 1m8.827 44.93c120.9 0 218.9 98 218.9 218.9s-98 218.9-218.9 218.9-218.93-98-218.93-218.9 98.03-218.9 218.93-218.9" fill-opacity=".067" fill-rule="evenodd"/><g fill-opacity=".129" fill-rule="evenodd"><path d="M256 4.433c-138.94 0-251.57 112.63-251.57 251.57S117.06 507.573 256 507.573s251.57-112.63 251.57-251.57S394.94 4.433 256 4.433m5.885 38.556c120.9 0 218.9 98 218.9 218.9s-98 218.9-218.9 218.9-218.93-98-218.93-218.9 98.03-218.9 218.93-218.9"/><path d="M256 8.356c-136.77 0-247.64 110.87-247.64 247.64 0 136.77 110.87 247.64 247.64 247.64 136.77 0 247.64-110.87 247.64-247.64 0-136.77-110.87-247.64-247.64-247.64m2.942 31.69c120.9 0 218.9 98 218.9 218.9s-98 218.9-218.9 218.9-218.93-98-218.93-218.9 98.03-218.9 218.93-218.9"/></g><path d="M300.32 115.496c-11.198.1 8.968-2.086 2.236-.568-.85.192-1.49.38-2.236.568l11.867 11.867c-12.395-6.97-27.615-11.738-46.14-12.02-1.13-.018-2.246-.024-3.336 0-16.355.358-28.393 5.332-37.532 12.662-.38.304-.744.62-1.113.934l-4.193-4.194c-8.754-2.926-9.884 15.693-30.678 15.71 19.642 29.15-22.075-9.153-23.907-9.052-14.657.81-8.047 21.073-18.15 31.385-10.1 10.312-20.382 7.106-18.964 34.266.286 5.357-15.042 8.04-11.083 25.04 3.958 17 17.98 33.962 24.74 51.676 6.536 17.12 71.07 110.357 78.95 118.235l94.69 73.88c97.12-22.39 158.683-109.4 158.683-213.31 0-14.14 1.898 2.403-.665-10.996L357.483 130.797s-24.956-3.61-45.296-3.433" opacity=".25"/><path d="M253.04 7.86C117.62 7.86 7.85 117.64 7.85 253.05c0 135.42 109.78 245.19 245.19 245.19 135.42 0 245.19-109.78 245.19-245.19 0-135.42-109.78-245.19-245.19-245.19zm0 26.296c120.9 0 218.9 98 218.9 218.9s-98 218.9-218.9 218.9-218.93-98-218.93-218.9 98.03-218.9 218.93-218.9z" fill="#ffffff" fill-rule="evenodd" stroke="#000000" stroke-opacity=".31" stroke-width="4.904"/><path d="M253.83 111.66c-24.418 0-85.463 0-109.88 24.42-48.837 48.835-24.42 109.88 0 158.717 24.417 48.836 73.253 109.88 109.88 109.88 36.628 0 85.464-61.044 109.882-109.88 24.418-48.837 48.836-109.882 0-158.718-24.418-24.42-85.463-24.42-109.88-24.42z" fill="#ffffff" fill-rule="evenodd"/></svg>