<svg height="512" viewBox="0 0 512 512" width="512" xmlns="http://www.w3.org/2000/svg">
 <g fill-rule="evenodd">
  <path d="m471.95 253.05c0 120.9-98.01 218.9-218.9 218.9-120.9 0-218.9-98.01-218.9-218.9 0-120.9 98.01-218.9 218.9-218.9 120.9 0 218.9 98.01 218.9 218.9" fill="#878787"/>
  <path d="m182.56 129.28l-2.531 2.375-55.16 52.719c-.042.041-5.375 5.219-5.375 5.219l4.406 6.094 127.56 177.13 7.125 9.906.063-.094.438.594.063-.094.438.594.063-.094.438.594.063-.094.438.594.063-.094.406.594.063-.094c.049.068.438.594.438.594s.061-.092.063-.094c.049.068.438.594.438.594s.061-.092.063-.094c.049.068.438.594.438.594s.091-.122.094-.125c.047.065.406.594.406.594s.061-.092.063-.094c.049.068.438.594.438.594s.061-.092.063-.094c.049.068.438.594.438.594s.061-.092.063-.094c.049.068.438.594.438.594s.061-.092.063-.094c.049.068.438.594.438.594s.061-.092.063-.094c.049.068.438.594.438.594s.061-.092.063-.094c.049.068.438.594.438.594s.061-.092.063-.094c.049.068.438.594.438.594s.061-.092.063-.094c.049.068.438.594.438.594s.061-.092.063-.094c.049.068.438.594.438.594s.061-.092.063-.094c.049.068.438.594.438.594s.061-.092.063-.094c.049.068.438.594.438.594s.061-.092.063-.094c.049.068.438.594.438.594s.061-.092.063-.094c.049.068.438.594.438.594s.061-.092.063-.094c.049.068.438.594.438.594s.061-.092.063-.094c.049.068.438.594.438.594s.061-.092.063-.094c.049.068.438.594.438.594s.061-.092.063-.094c.049.068.438.594.438.594s.061-.092.063-.094c.049.068.438.594.438.594s.061-.092.063-.094c.049.068.438.594.438.594s.061-.092.063-.094c.049.068.438.594.438.594s.061-.092.063-.094c.046.065.406.594.406.594s.061-.092.063-.094c.049.068.438.594.438.594s.061-.092.063-.094c.049.068.438.594.438.594s.061-.092.063-.094c.049.068.438.594.438.594s.091-.122.094-.125c.048.067.405.591.406.594 0 0 .061-.092.063-.094.049.068.438.594.438.594s.061-.092.063-.094c.049.068.438.594.438.594s.061-.092.063-.094c.049.068.438.594.438.594s.061-.092.063-.094c.049.068.438.594.438.594s.061-.092.063-.094c.049.068.438.594.438.594s.061-.092.063-.094c.049.068.438.594.438.594s.061-.092.063-.094c.049.068.438.594.438.594s.061-.092.063-.094c.049.068.438.594.438.594s.061-.092.063-.094c.049.068.438.594.438.594s.061-.092.063-.094c.049.068.438.594.438.594s.061-.092.063-.094c.049.068.438.594.438.594s.061-.092.063-.094c.049.068.438.594.438.594s.061-.092.063-.094c.049.068.438.594.438.594s.061-.092.063-.094c.049.068.438.594.438.594s.061-.092.063-.094c.049.068.438.594.438.594s.061-.092.063-.094c.049.068.438.594.438.594l.063-.094c.049.068.438.594.438.594l.063-.094c.049.068.438.594.438.594l.063-.094c.049.068.438.594.438.594s.061-.092.063-.094c.049.068.438.594.438.594s.061-.092.063-.094c.046.065.406.594.406.594s.061-.092.063-.094c.049.068.438.594.438.594s.061-.092.063-.094c.049.068.438.594.438.594s.061-.092.063-.094c.049.068.438.594.438.594s.061-.092.063-.094c.049.068.438.594.438.594s.091-.122.094-.125c.047.065.406.594.406.594s.061-.092.063-.094c.049.068.438.594.438.594s.061-.092.063-.094c.049.068.438.594.438.594s.061-.092.063-.094c.049.068.438.594.438.594s.061-.092.063-.094c.049.068.438.594.438.594s.061-.092.063-.094c.049.068.438.594.438.594s.061-.092.063-.094c.049.068.438.594.438.594s.061-.092.063-.094c.049.068.438.594.438.594s.061-.092.063-.094c.049.068.438.594.438.594s.061-.092.063-.094c.049.068.438.594.438.594s.061-.092.063-.094c.049.068.438.594.438.594s.061-.092.063-.094c.049.068.438.594.438.594s.061-.092.063-.094c.049.068.438.594.438.594s.061-.092.063-.094c.049.068.438.594.438.594s.061-.092.063-.094l.438.594.063-.094c.049.068.438.594.438.594s.061-.092.063-.094c.049.068.438.594.438.594s.061-.092.063-.094c.049.068.438.594.438.594s.061-.092.063-.094l.438.594.063-.094c.049.068.438.594.438.594s.061-.092.063-.094l.406.594s.061-.092.063-.094c.049.068.438.594.438.594l.063-.094c.049.068.438.594.438.594s.061-.092.063-.094c.049.068.438.594.438.594l.063-.094c.049.068.438.594.438.594s.091-.122.094-.125l.406.594s.061-.092.063-.094c.049.068.438.594.438.594l.063-.094.438.594s.061-.092.063-.094c.049.068.438.594.438.594l.063-.094c.049.068.438.594.438.594s.061-.092.063-.094c.049.068.438.594.438.594s.061-.092.063-.094l.438.594.063-.094c.049.068.438.594.438.594s.061-.092.063-.094c.049.068.438.594.438.594s.061-.092.063-.094c.049.068.438.594.438.594s.061-.092.063-.094c.049.068.438.594.438.594l.063-.094c.049.068.438.594.438.594s.061-.092.063-.094c.049.068.438.594.438.594s.061-.092.063-.094l.438.594s.061-.092.063-.094c.049.068.438.594.438.594s.061-.092.063-.094l.438.594.063-.094c.049.068.438.594.438.594s.061-.092.063-.094l.438.594s.061-.092.063-.094c.049.068.438.594.438.594s.061-.092.063-.094l.438.594s.061-.092.063-.094c.046.065.406.594.406.594l.063-.094c.049.068.438.594.438.594s.061-.092.063-.094c.049.068.438.594.438.594s.061-.092.063-.094c.049.068.438.594.438.594s.061-.092.063-.094c.049.068.438.594.438.594s.091-.122.094-.125c.046.065.406.594.406.594s.061-.092.063-.094l.438.594s.061-.092.063-.094c.049.068.438.594.438.594l.063-.094c.049.068.438.594.438.594s.061-.092.063-.094c.049.068.438.594.438.594s.061-.092.063-.094l.438.594s.061-.092.063-.094c.049.068.438.594.438.594s.061-.092.063-.094l.438.594.063-.094c.049.068.438.594.438.594s.061-.092.063-.094c.049.068.438.594.438.594s.061-.092.063-.094c.049.068.438.594.438.594s.061-.092.063-.094c.049.068.438.594.438.594l.063-.094.438.594s.061-.092.063-.094c.049.068.438.594.438.594s.061-.092.063-.094l.438.594s.061-.092.063-.094c.049.068.438.594.438.594s.061-.092.063-.094c.049.068.438.594.438.594l.063-.094c.049.068.438.594.438.594s.061-.092.063-.094l.438.594s.061-.092.063-.094c.049.068.438.594.438.594s.061-.092.063-.094c.046.065.406.594.406.594s.061-.092.063-.094c.049.068.438.594.438.594l.063-.094c.049.068.438.594.438.594s.061-.092.063-.094c.049.068.438.594.438.594s.061-.092.063-.094c.049.068.438.594.438.594l.094-.125.406.594s.061-.092.063-.094c.049.068.438.594.438.594l.063-.094.438.594s.061-.092.063-.094c.049.068.438.594.438.594l.063-.094.438.594s.061-.092.063-.094c.049.068.438.594.438.594s.061-.092.063-.094l.438.594s.061-.092.063-.094c.049.068.438.594.438.594s.061-.092.063-.094c.049.068.438.594.438.594l.063-.094c.049.068.438.594.438.594s.061-.092.063-.094c.049.068.438.594.438.594s.061-.092.063-.094c.049.068.438.594.438.594s.061-.092.063-.094c.049.068.438.594.438.594s.061-.092.063-.094l.438.594.063-.094c.043.06.303.434.375.531 76.71-30.04 132.33-102.13 138.53-187.91l-.031-.031-.5-.5-.5-.5-.313-.313-.188-.188-.5-.5-.5-.5-.5-.5-.5-.5-.125-.125-.188-.188-.125-.156-.031-.031-.438-.406-.031-.031-.031-.031v-.031l-.5-.5-.5-.5-.5-.5-.5-.5-.5-.5-.5-.5-.5-.5-.5-.469-.5-.5-.344-.344-.156-.156-.5-.5-.5-.5-.188-.188-.313-.313-.5-.5-.188-.188-.313-.313-.5-.5-.5-.5-.5-.5-.313-.313-.188-.188-.5-.5-.5-.5-.5-.5-.5-.5-.125-.125-.188-.188-.125-.156-.031-.031-.438-.406-.031-.031-.031-.031v-.031l-.5-.5-.5-.5-.5-.5-.5-.5-.5-.5-.5-.5-.5-.5-.5-.469-.5-.5-.344-.344-.156-.156-.5-.5-.5-.5-.188-.188-.313-.313-.5-.5-.188-.188-.313-.313-.5-.5-.5-.5-.5-.5-.313-.313-.188-.188-.5-.5-.5-.5-.5-.5-.5-.5-.125-.125-.188-.188-.125-.156-.031-.031-.438-.406-.031-.031-.031-.031v-.031l-.5-.5-.5-.5-.5-.5-.5-.5-.5-.5-.5-.5-.5-.5-.5-.469-.5-.5-.344-.344-.156-.156-.5-.5-.5-.5-.188-.188-.313-.313-.5-.5-.188-.188-.313-.313-.5-.5-.5-.5-.5-.5-.313-.313-.188-.188-.5-.5-.5-.5-.5-.5-.5-.5-.125-.125-.188-.188-.125-.156-.031-.031-.438-.406-.031-.031-.031-.031v-.031l-.5-.5-.5-.5-.5-.5-.5-.5-.5-.5-.5-.5-.5-.5-.5-.469-.5-.5-.344-.344-.156-.156-.5-.5-.5-.5-.188-.188-.313-.313-.5-.5-.188-.188-.313-.313-.5-.5-.5-.5-.5-.5-.313-.313-.188-.188-.5-.5-.5-.5-.5-.5-.5-.5-.125-.125-.188-.188-.125-.156-.031-.031-.438-.406-.031-.031-.031-.031v-.031l-.5-.5-.5-.5-.5-.5-.5-.5-.5-.5-.5-.5-.5-.5-.5-.5-.5-.469-.344-.344-.156-.156-.5-.5-.5-.5-.188-.188-.313-.313-.5-.5-.188-.188-.313-.313-.5-.5-.5-.5-.5-.5-.313-.313-.188-.188-.5-.5-.5-.5-.5-.5-.5-.5-.125-.125-.188-.188-.125-.156-.031-.031-.438-.406-.031-.031-.031-.031v-.031l-.5-.5-.5-.5-.5-.5-.5-.5-.5-.5-.5-.5-.5-.5-.5-.5-.5-.469-.344-.344-.156-.156-.5-.5-.5-.5-.188-.188-.313-.313-.5-.5-.188-.188-.313-.313-.5-.5-.5-.5-.5-.5-.313-.313-.188-.188-.5-.5-.5-.5-.5-.5-.5-.5-.125-.125-.188-.188-.125-.156-.031-.031-.438-.406-.031-.031-.031-.031v-.031l-.5-.5-.5-.5-.5-.5-.5-.5-.5-.5-.5-.5-.5-.5-.5-.5-.5-.469-.344-.344-.156-.156-.5-.5-.5-.5-.188-.188-.313-.313-.5-.5-.188-.188-.313-.313-.5-.5-.5-.5-.5-.5-.313-.313-.188-.188-.5-.5-.5-.5-.5-.5-.5-.5-.125-.125-.188-.188-.125-.156-.031-.031-.5-.5-.344-.313-.125-.156-.031-.031-.281-.281-.031-.031-.063-.063-.125-.125-.281-.25-.094-.125-.125-.125-.5-.5-.5-.5-.5-.5-.5-.5-.5-.5-.5-.469-.5-.5-.5-.5-.5-.5-.5-.5-.5-.5-.5-.5-.188-.188-.313-.313-.5-.5-.5-.5-.5-.5-.313-.313-.188-.188-.5-.5-.5-.5-.5-.5-.5-.5-.125-.125-.188-.188-.125-.156-.031-.031-.063-.063h-.031v-.031h-.031l-.125-.125-.094-.125-.031-.031-.125-.125-.094-.094h-.031l-.094-.125-.031-.031-.125-.125-.125-.125-.031-.031h-.031l-.219-.219-.063-.094-.031-.031-.125-.125-.5-.5-.5-.5-.5-.5-.5-.5-.5-.5-.5-.469-.5-.5-.5-.5-.5-.5-.5-.5-.5-.5-.5-.5-.188-.188-.313-.313-.5-.5-.5-.5-.5-.5-.313-.313-.188-.188-.5-.5-.5-.5-.5-.5-.5-.5-.125-.125-.188-.188-.125-.156-.031-.031-.063-.063h-.031v-.031h-.031l-.125-.125-.094-.125-.031-.031-.125-.125-.094-.094h-.031l-.094-.125-.031-.031-.125-.125-.125-.125-.031-.031h-.031l-.219-.219-.063-.094-.031-.031-.125-.125-.063-.063h-.031l-.188-.188-.031-.031-.063-.094-.125-.125-.063-.063h-.031l-.188-.188-.031-.031-.063-.094-.125-.125-.063-.063h-.031l-.188-.188-.031-.031-.063-.094-.125-.125-.5-.5-.5-.5-.5-.469-.5-.5-.5-.5-.5-.5-.5-.5-.5-.5-.5-.5-.5-.5-.5-.5-.5-.5-.5-.5-.5-.5-.5-.5-.5-.5-.5-.5-.5-.5-.125-.125-.188-.188-.125-.156-.031-.031-.5-.5-.5-.5-.5-.5-.5-.5-.5-.5-.5-.5-.5-.5-.5-.5-.5-.469-.5-.5-.5-.5-.5-.5-.5-.5-.5-.5-.5-.5-.5-.5-2.563-2.594h-149.06" fill-opacity=".235" opacity=".99"/>
  <path d="m256 1c-140.83 0-255 114.17-255 255s114.17 255 255 255 255-114.17 255-255-114.17-255-255-255m8.827 44.931c120.9 0 218.9 98 218.9 218.9s-98 218.9-218.9 218.9-218.93-98-218.93-218.9 98.03-218.9 218.93-218.9" fill-opacity=".067"/>
  <g fill-opacity=".129">
   <path d="m256 4.433c-138.94 0-251.57 112.63-251.57 251.57s112.63 251.57 251.57 251.57 251.57-112.63 251.57-251.57-112.63-251.57-251.57-251.57m5.885 38.556c120.9 0 218.9 98 218.9 218.9s-98 218.9-218.9 218.9-218.93-98-218.93-218.9 98.03-218.9 218.93-218.9"/>
   <path d="m256 8.356c-136.77 0-247.64 110.87-247.64 247.64s110.87 247.64 247.64 247.64 247.64-110.87 247.64-247.64-110.87-247.64-247.64-247.64m2.942 31.691c120.9 0 218.9 98 218.9 218.9s-98 218.9-218.9 218.9-218.93-98-218.93-218.9 98.03-218.9 218.93-218.9"/>
  </g>
  <path d="m253.04 7.859c-135.42 0-245.19 109.78-245.19 245.19 0 135.42 109.78 245.19 245.19 245.19 135.42 0 245.19-109.78 245.19-245.19 0-135.42-109.78-245.19-245.19-245.19zm0 26.297c120.9 0 218.9 98 218.9 218.9s-98 218.9-218.9 218.9-218.93-98-218.93-218.9 98.03-218.9 218.93-218.9z" fill="#ffffff" stroke="#000000" stroke-opacity=".31" stroke-width="4.904"/>
 </g>
 <path d="m182.55 129.29l-2.513 2.374-55.15 52.71-5.376 5.236 4.398 6.074 127.55 177.12 7.121 9.914 6.982-9.984 122.8-176.42 4.119-5.934-5.096-5.096-53.2-53.41-2.583-2.583h-149.05" fill="#ffffff" fill-rule="evenodd" opacity=".99"/>
</svg>
