<svg height="512" viewBox="0 0 512 512" width="512" xmlns="http://www.w3.org/2000/svg">
 <path d="m474.9 256c0 120.9-98.01 218.9-218.9 218.9-120.9 0-218.9-98.01-218.9-218.9 0-120.9 98.01-218.9 218.9-218.9 120.9 0 218.9 98.01 218.9 218.9" fill="#9f9f9f" fill-rule="evenodd"/>
 <path d="m256 1c-140.83 0-255 114.17-255 255 0 140.83 114.17 255 255 255 140.83 0 255-114.17 255-255 0-140.83-114.17-255-255-255m8.827 44.931c120.9 0 218.9 98 218.9 218.9 0 120.9-98 218.9-218.9 218.9-120.9 0-218.93-98-218.93-218.9 0-120.9 98.03-218.9 218.93-218.9" fill-opacity=".067" fill-rule="evenodd"/>
 <g fill-opacity=".129" fill-rule="evenodd">
  <path d="m256 4.433c-138.94 0-251.57 112.63-251.57 251.57 0 138.94 112.63 251.57 251.57 251.57 138.94 0 251.57-112.63 251.57-251.57 0-138.94-112.63-251.57-251.57-251.57m5.885 38.556c120.9 0 218.9 98 218.9 218.9 0 120.9-98 218.9-218.9 218.9-120.9 0-218.93-98-218.93-218.9 0-120.9 98.03-218.9 218.93-218.9"/>
  <path d="m256 8.356c-136.77 0-247.64 110.87-247.64 247.64 0 136.77 110.87 247.64 247.64 247.64 136.77 0 247.64-110.87 247.64-247.64 0-136.77-110.87-247.64-247.64-247.64m2.942 31.691c120.9 0 218.9 98 218.9 218.9 0 120.9-98 218.9-218.9 218.9-120.9 0-218.93-98-218.93-218.9 0-120.9 98.03-218.9 218.93-218.9"/>
 </g>
 <path d="m359.20206 187.00077c-19.61641-20.93999-77.36367-77.10719-77.36367-77.10719l-55.25241 6.38103-8.49754 9.07114 6.69318 10.69697-.498 16.38252c-22.12401 17.633 2.08479 20.83946-22.89445 29.09101l-27.86878 14.07479-19.82966 28.42251-9.51653 19.06688-34.5575 45.00622 57.87508 58.12534-9.5966 24.89964 107.80188 109.51703c146.49528-12.80847 226.86988-157.82628 214.12198-220.91048-38.93009-39.46876-128.17259-121.98134-128.17259-121.98134" opacity=".25"/>
 <path d="m256 10.81c-135.42 0-245.19 109.78-245.19 245.19 0 135.42 109.78 245.19 245.19 245.19 135.42 0 245.19-109.78 245.19-245.19 0-135.42-109.78-245.19-245.19-245.19zm0 26.297c120.9 0 218.9 98 218.9 218.9 0 120.9-98 218.9-218.9 218.9-120.9 0-218.93-98-218.93-218.9 0-120.9 98.03-218.9 218.93-218.9z" fill="#ffffff" fill-rule="evenodd" stroke="#000000" stroke-opacity=".31" stroke-width="4.904"/>
 <path d="m242.45955 106.18916c-13.86298 0-25.77467 11.44499-25.77467 25.50963v16.69032c-3.62942 1.27394-7.15432 2.70289-10.60897 4.30875l-12.35482-12.07277a14.135687 14.135687 0 0 0 -.002-.002c-9.9825-9.75393-26.23941-9.75937-36.2183.0124l-19.11216 18.67691c-9.97386 9.74827-9.98435 26.54016 0 36.28881l.0124.0105c0 0 0 .002 0 .002l12.02656 11.7518c-1.56282 3.25157-3.14184 6.48525-4.39385 9.89649h-17.24716c-13.85939 0-25.77468 11.44259-25.77467 25.50722v26.4628c0 14.06463 11.91525 25.50722 25.77467 25.50722h17.24473c1.2525 3.41238 2.83046 6.64688 4.39384 9.89893l-12.03628 11.76152c-9.97646 9.75085-9.98619 26.5436.002 36.29367l19.1219 18.68421c9.97915 9.75069 26.22882 9.75935 36.20856-.002l.0104-.0104 12.34509-12.06303c3.4548 1.60611 6.9795 3.03449 10.60896 4.30875v16.69031c0 14.06463 11.91174 25.50964 25.77467 25.50964h27.08043c13.86294 0 25.7747-11.44502 25.7747-25.50964v-16.68789c3.62983-1.27449 7.15434-2.70489 10.60894-4.31117l12.35483 12.07276a14.135687 14.135687 0 0 0 .002.002c9.98249 9.75397 26.23941 9.75938 36.21829-.0124l19.10974-18.67204c9.98184-9.75332 9.98839-26.55374-.0104-36.3034l-12.02656-11.75423c1.56282-3.25157 3.14184-6.48523 4.39386-9.89649h17.24714c13.85943 0 25.77468-11.44255 25.77468-25.50722v-26.4628c0-14.06465-11.91529-25.50722-25.77468-25.50722h-17.24472c-1.25251-3.41238-2.83045-6.64687-4.39385-9.89894l12.03385-11.75908c9.97634-9.74792 9.98763-26.54177.002-36.29123l-.0124-.0105-19.10974-18.67693a14.135687 14.135687 0 0 0 -.002-.002c-9.98248-9.75393-26.23941-9.75936-36.21829.0124l-12.34511 12.06303c-3.45514-1.60584-6.97962-3.03497-10.60895-4.30875v-16.69031c0-14.06463-11.91172-25.50963-25.77468-25.50963h-27.08043zm14.26848 35.59824c2.71298-.095 5.39466.20272 7.92449.92885 2.64978.75885 2.27508 1.39787-6.35369 10.86913-5.04182 5.53373-9.16703 10.99178-9.16703 12.14085 0 3.97281 10.20116 14.19309 14.16633 14.19309.87583 0 5.70302-3.88838 10.72812-8.63937 5.0262-4.75101 9.58981-8.63695 10.14208-8.63695 1.54412 0 2.72783 8.37804 1.8018 12.7536-2.91976 13.80018-13.07603 22.86638-27.83666 24.84825-6.05821.81344-6.49005 1.18028-38.1222 32.31317-17.59672 17.31792-33.63034 32.25451-35.62742 33.18856-7.62242 3.56212-16.1533.99848-21.07687-6.32939-2.35968-3.51091-2.73122-5.29231-2.22246-10.69405l.61032-6.48015 32.82625-32.93567 32.82623-32.93322v-5.67043c0-7.05937 2.14366-12.41919 7.40414-18.5286 5.42061-6.29454 13.83762-10.10258 21.97657-10.38767zm-.72947 81.97805c18.76361 0 33.32957 14.42246 33.32957 32.24025 0 17.80885-14.55677 32.24023-33.32957 32.24023-18.7636 0-33.32715-14.42159-33.32715-32.24023 0-17.80972 14.55432-32.24024 33.32715-32.24025zm-78.3526 18.43377c-1.07231-.0105-2.21623.3706-4.01696 1.13799-7.09474 3.01714-7.08568 12.86963.0145 15.62284v.002c1.66684.64622 3.40259 1.13984 3.85891 1.09665 8.64773-.81686 11.30114-12.65685 3.73003-16.649-1.51343-.79868-2.51424-1.20081-3.58657-1.21092z" fill="#ffffff"/>
</svg>
