<svg height="512" viewBox="0 0 512 512" width="512" xmlns="http://www.w3.org/2000/svg">
 <path d="m471.95 253.05c0 120.9-98.01 218.9-218.9 218.9-120.9 0-218.9-98.01-218.9-218.9 0-120.9 98.01-218.9 218.9-218.9 120.9 0 218.9 98.01 218.9 218.9" fill="#b0b0b0" fill-rule="evenodd"/>
 <path d="m256 1c-140.83 0-255 114.17-255 255 0 140.83 114.17 255 255 255 140.83 0 255-114.17 255-255 0-140.83-114.17-255-255-255m8.827 44.931c120.9 0 218.9 98 218.9 218.9 0 120.9-98 218.9-218.9 218.9-120.9 0-218.93-98-218.93-218.9 0-120.9 98.03-218.9 218.93-218.9" fill-opacity=".067" fill-rule="evenodd"/>
 <g fill-opacity=".129" fill-rule="evenodd">
  <path d="m256 4.433c-138.94 0-251.57 112.63-251.57 251.57 0 138.94 112.63 251.57 251.57 251.57 138.94 0 251.57-112.63 251.57-251.57 0-138.94-112.63-251.57-251.57-251.57m5.885 38.556c120.9 0 218.9 98 218.9 218.9 0 120.9-98 218.9-218.9 218.9-120.9 0-218.93-98-218.93-218.9 0-120.9 98.03-218.9 218.93-218.9"/>
  <path d="m256 8.356c-136.77 0-247.64 110.87-247.64 247.64 0 136.77 110.87 247.64 247.64 247.64 136.77 0 247.64-110.87 247.64-247.64 0-136.77-110.87-247.64-247.64-247.64m2.942 31.691c120.9 0 218.9 98 218.9 218.9 0 120.9-98 218.9-218.9 218.9-120.9 0-218.93-98-218.93-218.9 0-120.9 98.03-218.9 218.93-218.9"/>
 </g>
 <path d="m367.99281 131.39937l-50.10037 22.80466-59.32066-41.09789c-6.29004 17.44252 15.77051 57.91988-18.87011 52.32755l-61.65673-48.75701-64.64979 80.52786 40.89907 33.41338c-8.17638 53.35694 4.00418 120.28518-35.01448 153.08061l113.72831 85.57677 31.54792-.77877 22.85472 1.72559 23.43058-5.19137 59.29757-24.51327c107.29235-14.34865 107.93399-84.90286 107.63268-198.70315-.0405-15.3013-4.1643-3.08303-6.9378-17.58252" opacity=".25"/>
 <path d="m253.04 7.859c-135.42 0-245.19 109.78-245.19 245.19 0 135.42 109.78 245.19 245.19 245.19 135.42 0 245.19-109.78 245.19-245.19 0-135.42-109.78-245.19-245.19-245.19zm0 26.297c120.9 0 218.9 98 218.9 218.9 0 120.9-98 218.9-218.9 218.9-120.9 0-218.93-98-218.93-218.9 0-120.9 98.03-218.9 218.93-218.9z" fill="#ffffff" fill-rule="evenodd" stroke="#000000" stroke-opacity=".31" stroke-width="4.904"/>
 <path d="m208.17637 253.18942h29.15341l.97642-54.98379h-20.64449v-34.08994h34.45403c-6.50969-9.80524-14.73958-21.2602-24.68973-34.36487l29.57191-16.77003c11.53101 12.64649 21.38834 24.9262 29.57192 36.83913l-24.13182 14.29577h64.86297l-18.97068-11.82152c10.04304-12.2795 19.62142-25.38396 28.73498-39.31338l31.2458 17.86972c-8.46268 11.63842-17.15759 22.72681-26.08466 33.26518h37.80181v34.08994h-26.22415v54.98379h34.0356v34.08993h-34.0356v97.3213h-37.38337v-97.3213h-44.77631c-5.67283 40.1382-19.38933 73.9532-41.14966 101.44513-8.5555-8.79746-18.87771-18.4196-30.96678-28.86649 17.48265-19.88586 28.92083-44.07864 34.31456-72.57864h-25.66616zm67.23425-54.98379l-.97643 54.98379h41.98653v-54.98379zm-162.64556-34.63982h30.12991v-47.28601h36.54642v47.28601h25.94512v34.36488h-25.94512v42.20008l25.66616-4.81107c-1.67396 12.09653-2.88289 24.46786-3.62673 37.11407l-22.03943 3.84881v71.204c-.00007 11.18002-2.41793 19.65673-7.25353 25.43006-4.74271 5.77325-11.71721 8.88901-20.92353 9.3472-9.11334.54974-19.52859.96218-31.2458 1.23712-1.67389-10.63021-4.27768-22.90992-7.81138-36.83913 7.06747.73313 14.22797 1.0997 21.48144 1.0997 5.95157 0 9.02031-3.94051 9.20638-11.82153v-52.37203l-29.29296 6.46058-2.23181-39.31339c10.50821-1.37449 21.01649-2.88655 31.52477-4.5362v-48.24827h-30.12991z" fill="#ffffff"/>
</svg>
