<svg height="512" viewBox="0 0 512 512" width="512" xmlns="http://www.w3.org/2000/svg">
 <path d="m471.95 253.05c0 120.9-98.01 218.9-218.9 218.9-120.9 0-218.9-98.01-218.9-218.9 0-120.9 98.01-218.9 218.9-218.9 120.9 0 218.9 98.01 218.9 218.9" fill="#9e9e9e" fill-rule="evenodd"/>
 <path d="m256 1c-140.83 0-255 114.17-255 255 0 140.83 114.17 255 255 255 140.83 0 255-114.17 255-255 0-140.83-114.17-255-255-255m8.827 44.931c120.9 0 218.9 98 218.9 218.9 0 120.9-98 218.9-218.9 218.9-120.9 0-218.93-98-218.93-218.9 0-120.9 98.03-218.9 218.93-218.9" fill-opacity=".067" fill-rule="evenodd"/>
 <g fill-opacity=".129" fill-rule="evenodd">
  <path d="m256 4.433c-138.94 0-251.57 112.63-251.57 251.57 0 138.94 112.63 251.57 251.57 251.57 138.94 0 251.57-112.63 251.57-251.57 0-138.94-112.63-251.57-251.57-251.57m5.885 38.556c120.9 0 218.9 98 218.9 218.9 0 120.9-98 218.9-218.9 218.9-120.9 0-218.93-98-218.93-218.9 0-120.9 98.03-218.9 218.93-218.9"/>
  <path d="m256 8.356c-136.77 0-247.64 110.87-247.64 247.64 0 136.77 110.87 247.64 247.64 247.64 136.77 0 247.64-110.87 247.64-247.64 0-136.77-110.87-247.64-247.64-247.64m2.942 31.691c120.9 0 218.9 98 218.9 218.9 0 120.9-98 218.9-218.9 218.9-120.9 0-218.93-98-218.93-218.9 0-120.9 98.03-218.9 218.93-218.9"/>
 </g>
 <path d="m461.92047 186.33512l-272.8553-91.784162-39.67172 116.984622 79.93522 25.89916c-31.30803 62.2819-20.10438 111.00341-80.62865 153.05753l192.53159 65.00773c107.29235-14.34865 136.84122-99.88538 136.53991-213.68567-.0405-15.3013-4.1643-3.08303-6.9378-17.58252" opacity=".25"/>
 <path d="m253.04 7.859c-135.42 0-245.19 109.78-245.19 245.19 0 135.42 109.78 245.19 245.19 245.19 135.42 0 245.19-109.78 245.19-245.19 0-135.42-109.78-245.19-245.19-245.19zm0 26.297c120.9 0 218.9 98 218.9 218.9 0 120.9-98 218.9-218.9 218.9-120.9 0-218.93-98-218.93-218.9 0-120.9 98.03-218.9 218.93-218.9z" fill="#ffffff" fill-rule="evenodd" stroke="#000000" stroke-opacity=".31" stroke-width="4.904"/>
 <path d="m10.821987-30.503348c-.117221 4.778664-.286492 8.847671-.507812 12.207031-.208367 3.359383-.384148 5.794277-.5273441 7.304687-.143262 1.497399-.4687825 2.6822937-.9765625 3.5546879-.5078439.8593749-1.2044578 1.5039055-2.0898437 1.9335937-.8854457.4296859-2.0117466.6445294-3.3789063.6445313-.6771091-.0000019-1.8620038-.097658-3.5546875-.2929688-1.6927296-.182293-3.1510614-.4296886-4.375-.7421875l-.46875-5.4492186c3.0728955.833337 5.78773655 1.250003 8.1445313 1.25.2083068.000003.4296608-.08463.6640625-.253906.2343478-.182288.3971081-.436194.4882812-.761719.091118-.338537.2538786-2.141921.4882813-5.410156.2343468-3.281237.3710655-6.236963.4101562-8.867188h-5.68359375c-.69012605 4.609389-2.22658285 8.567719-4.60937495 11.875-2.3828282 3.307295-5.9895957 6.4583338-10.8203127 9.4531251l-3.925781-4.1992187c8.450509-4.6354104 13.020817-10.3450404 13.7109374-17.1289064h-9.6289064v-5.195312c1.783845-2.499974 3.28775-5.390596 4.511719-8.671875l5.2929687 1.640625c-.7291831 2.174508-1.8489737 4.544297-3.359375 7.109375z" fill="#ffffff" transform="matrix(8.4609417 0 0 8.4609417 283.68364 426.86617)"/>
</svg>
