<svg height="512" viewBox="0 0 512 512" width="512" xmlns="http://www.w3.org/2000/svg">
 <path d="m471.95 253.05c0 120.9-98.01 218.9-218.9 218.9-120.9 0-218.9-98.01-218.9-218.9 0-120.9 98.01-218.9 218.9-218.9 120.9 0 218.9 98.01 218.9 218.9" fill="#787878" fill-rule="evenodd"/>
 <path d="m256 1c-140.83 0-255 114.17-255 255 0 140.83 114.17 255 255 255 140.83 0 255-114.17 255-255 0-140.83-114.17-255-255-255m8.827 44.931c120.9 0 218.9 98 218.9 218.9 0 120.9-98 218.9-218.9 218.9-120.9 0-218.93-98-218.93-218.9 0-120.9 98.03-218.9 218.93-218.9" fill-opacity=".067" fill-rule="evenodd"/>
 <g fill-opacity=".129" fill-rule="evenodd">
  <path d="m256 4.433c-138.94 0-251.57 112.63-251.57 251.57 0 138.94 112.63 251.57 251.57 251.57 138.94 0 251.57-112.63 251.57-251.57 0-138.94-112.63-251.57-251.57-251.57m5.885 38.556c120.9 0 218.9 98 218.9 218.9 0 120.9-98 218.9-218.9 218.9-120.9 0-218.93-98-218.93-218.9 0-120.9 98.03-218.9 218.93-218.9"/>
  <path d="m256 8.356c-136.77 0-247.64 110.87-247.64 247.64 0 136.77 110.87 247.64 247.64 247.64 136.77 0 247.64-110.87 247.64-247.64 0-136.77-110.87-247.64-247.64-247.64m2.942 31.691c120.9 0 218.9 98 218.9 218.9 0 120.9-98 218.9-218.9 218.9-120.9 0-218.93-98-218.93-218.9 0-120.9 98.03-218.9 218.93-218.9"/>
 </g>
 <path d="m465.74586 197.63113l-249.70956-91.27037-51.1218 127.76203 141.15124 58.6398c-.34064 26.48891-1.34773 54.45162-23.26721 59.13717-22.16491 4.73801-56.10617 7.01414-73.52508-4.72841l14.38904 22.24377-.312 15.67188 144.80325 57.10318c107.29235-14.34865 109.91909-86.57556 109.61778-200.37585-.0405-15.3013-4.1643-3.08303-6.9378-17.58252" opacity=".25"/>
 <path d="m253.04 7.859c-135.42 0-245.19 109.78-245.19 245.19 0 135.42 109.78 245.19 245.19 245.19 135.42 0 245.19-109.78 245.19-245.19 0-135.42-109.78-245.19-245.19-245.19zm0 26.297c120.9 0 218.9 98 218.9 218.9 0 120.9-98 218.9-218.9 218.9-120.9 0-218.93-98-218.93-218.9 0-120.9 98.03-218.9 218.93-218.9z" fill="#ffffff" fill-rule="evenodd" stroke="#000000" stroke-opacity=".31" stroke-width="4.904"/>
 <path d="m17.175562 13.135772c2.24-2.72 4.48-6.0000004 6.16-9.2000004l-5.08-2.2c-1.72 4.16-4.6 8.4400004-5.6 9.5600004-.92 1.2-1.68 1.92-2.56 2.16.6 1.36 1.44 3.88 1.72 4.88.32-.36 2.12-.6 3.84-.6h15.04c-.8 8.96-1.88 13.56-3.4 14.72-.6.48-1.2.56-2.2.56-1.4 0-4.64 0-7.84-.28 1.04 1.4 1.8 3.52 1.92 4.96 2.88.16 5.8.2 7.56.04 2.12-.2 3.52-.6 4.84-2.16 2.12-2.04 3.24-7.44 4.4-20.2.08-.68.16-2.24.16-2.24z" fill="#ffffff" transform="matrix(7.7940145 0 0 7.7940145 73.77033 92.306401)"/>
</svg>
