<svg height="512" viewBox="0 0 512 512" width="512" xmlns="http://www.w3.org/2000/svg">
 <path d="m471.95 253.05c0 120.9-98.01 218.9-218.9 218.9-120.9 0-218.9-98.01-218.9-218.9 0-120.9 98.01-218.9 218.9-218.9 120.9 0 218.9 98.01 218.9 218.9" fill="#9f9f9f" fill-rule="evenodd"/>
 <path d="m256 1c-140.83 0-255 114.17-255 255 0 140.83 114.17 255 255 255 140.83 0 255-114.17 255-255 0-140.83-114.17-255-255-255m8.827 44.931c120.9 0 218.9 98 218.9 218.9 0 120.9-98 218.9-218.9 218.9-120.9 0-218.93-98-218.93-218.9 0-120.9 98.03-218.9 218.93-218.9" fill-opacity=".067" fill-rule="evenodd"/>
 <g fill-opacity=".129" fill-rule="evenodd">
  <path d="m256 4.433c-138.94 0-251.57 112.63-251.57 251.57 0 138.94 112.63 251.57 251.57 251.57 138.94 0 251.57-112.63 251.57-251.57 0-138.94-112.63-251.57-251.57-251.57m5.885 38.556c120.9 0 218.9 98 218.9 218.9 0 120.9-98 218.9-218.9 218.9-120.9 0-218.93-98-218.93-218.9 0-120.9 98.03-218.9 218.93-218.9"/>
  <path d="m256 8.356c-136.77 0-247.64 110.87-247.64 247.64 0 136.77 110.87 247.64 247.64 247.64 136.77 0 247.64-110.87 247.64-247.64 0-136.77-110.87-247.64-247.64-247.64m2.942 31.691c120.9 0 218.9 98 218.9 218.9 0 120.9-98 218.9-218.9 218.9-120.9 0-218.93-98-218.93-218.9 0-120.9 98.03-218.9 218.93-218.9"/>
 </g>
 <path d="m334.16779 151.54129l-34.35451 54.46999-83.72946-51.42362-10.72216 8.3878-4.87673-2.01355-18.28162-13.63433-11.01927 2.77776-1.22381 18.02589-27.60074 11.16792 29.33717 20.75038-15.75003 15.05215-17.50196 25.60179 6.95411 18.79503 66.91447 44.00308 4.93394 6.24744 20.30419 15.02607-11.90138 7.45881 28.64616 20.82606 5.37398.53516-47.86384-31.37166 10.60986 40.0762 128.03474 86.20854c75.17943-32.20869 115.88967-23.37453 123.70246-195.93039" opacity=".25"/>
 <path d="m253.04 7.859c-135.42 0-245.19 109.78-245.19 245.19 0 135.42 109.78 245.19 245.19 245.19 135.42 0 245.19-109.78 245.19-245.19 0-135.42-109.78-245.19-245.19-245.19zm0 26.297c120.9 0 218.9 98 218.9 218.9 0 120.9-98 218.9-218.9 218.9-120.9 0-218.93-98-218.93-218.9 0-120.9 98.03-218.9 218.93-218.9z" fill="#ffffff" fill-rule="evenodd" stroke="#000000" stroke-opacity=".31" stroke-width="4.904"/>
 <g fill="#ffffff" transform="translate(-15.31527 -10.029372)">
  <path d="m180.9904 156.40602c.68088 5.93788-.12667 12.00244-.49086 17.22777-9.23143.87089-15.581.69671-23.65652 1.09257-.22168 5.57369.53837 9.34227.87089 14.66261 8.31303-.17418 15.04263-1.0134 22.3106-1.48843-.30086 6.41291-.55421 13.17418-.49087 21.17052-18.65286 10.38733-27.21924 24.13155-27.23507 42.32521-.0158 18.98538 17.35444 26.14251 31.19366 20.67966 3.5944-1.42509 5.77954-2.96102 7.91717-4.41778.80755 1.36175.99757 2.96102 1.48843 4.41778 4.51279-3.5944 10.27649-5.30451 14.85262-7.37881l.49086-1.48843c.095-3.19853-2.32765-5.93788-3.46772-8.86723 9.00974-11.63825 15.0268-25.0341 19.2704-37.89159 12.65164 1.71011 24.65408 8.81973 22.75396 23.62484-2.1218 16.62607-21.17052 22.12059-34.62972 25.09744.47503 6.36541 3.87942 11.46407 6.42875 16.73691 23.0073-4.86115 43.89281-22.18392 44.51035-42.32521.5067-16.46772-6.91961-25.50913-21.7564-32.49208-5.38368-2.5335-9.81729-3.0877-13.36419-3.94275.25335-2.61267 2.0743-4.46529 2.97686-6.39708 1.85262-2.581.26919-2.94519-.98173-4.92448l-12.36662-2.45433c-1.37759-.39585-2.64434.31669-3.46773.99757-1.26674 3.34105-.98172 7.17296-1.48842 10.83069-7.31547.4592-13.47503 1.55177-18.79537 2.96102.0475-4.73447.0792-10.0073.49086-16.7369 8.8514-.64921 28.31181-5.43118 40.07673-7.85384-1.25091-5.00365-2.02679-9.51644-3.29354-14.52009-12.63581 4.08526-25.06577 6.55542-35.65895 7.85383-.12668-5.7637 1.99513-9.42143 3.34105-14.02923-.36419-1.17174-1.55177-1.71011-2.47016-1.96346l-12.36663-1.48843c-1.25091-.6492-2.26431.34836-2.97685.99757zm27.20341 59.04628c-2.09013 8.56639-6.25457 15.83435-9.89647 23.13398-2.43849-6.60292-3.08769-13.95006-3.95858-20.17295 5.36784-1.55177 9.89646-2.5335 13.85505-2.96103zm-27.69427 9.3581c1.21924 9.70646 3.37271 19.6821 5.93788 28.04263-5.85871 5.52619-14.55177 10.10231-18.30451 4.41778-8.59805-13.03166 4.43362-25.01826 12.36663-32.49208z"/>
  <path d="m249.13264 291.19151c6.22548 0 11.50065 2.30739 15.79798 6.93699 4.31103 4.6296 6.45955 10.32412 6.45955 17.1131 0 5.41362-1.73532 10.23534-5.21994 14.46558 2.39645 1.09475 4.37983 2.21875 6.72132 3.40198 6.50095 3.13565 9.33828 1.77486 12.98819.91633v-28.54651h-14.26919v-14.27333h71.35937v14.27333h-14.26919v71.36636h-14.26905v-71.36636h-14.26905v71.36636h-14.26919v-27.11179c-1.8318.48814-2.18991.78359-4.47631.78359-.92347 0-1.92829-.0999-3.01633-.29545.0999.78359.0138 1.86363.0138 3.23927 0 8.16461-2.10742 13.03086-6.32196 17.45336-4.1182 4.4225-10.02696 5.91632-17.72627 5.91632-4.66914 0-9.43462-.75362-14.28275-3.71256-4.84826-2.94339-9.02156-6.44885-12.50618-10.47199-5.70208-6.53763-9.32444-12.83846-12.23072-20.98837l-.0137-1.77485 11.81751-7.67648 1.37735 2.66235c9.88922 18.29634 18.69041 27.43722 26.37587 27.43722 3.01633 0 5.1236-.63658 6.32196-1.92286 1.2803-1.37592 1.92815-3.68288 1.92815-6.93699 0-4.03784-1.14327-7.23272-3.42953-9.58449-2.20361-2.36661-5.22008-3.53501-9.06281-3.53501-3.48462 0-5.77102.3397-6.87276 1.0348l-2.74099 1.47912-6.32182-15.93001c2.56173-.0143 5.13744.0143 7.68546.0143 4.31103-.0999 7.60283-1.18324 9.88923-3.23927 2.38274-2.15937 3.62235-5.05851 3.70499-8.71184 0-2.55887-.55094-4.37811-1.65282-5.45787-1.00482-1.07904-2.79594-1.67137-5.35781-1.77485-5.67454 0-10.5779 3.15049-14.6961 9.43662l-1.65282 2.66235-11.5419-9.28875v-1.47912c0-3.23912 3.15406-7.02562 9.47602-11.35934 6.40446-4.42251 12.58868-6.64125 18.55253-6.64125"/>
  <path d="m354.9231 245.82713h-39.39573l-9.69134 26.7891h-25.76481l41.5231-110.30804h27.68731l41.05035 110.30804h-25.05568m-29.97227-84.25958l-13.70971 36.98471h27.51397"/>
 </g>
</svg>
