<svg height="1814.17" viewBox="0 0 512 512" width="1814.17" xmlns="http://www.w3.org/2000/svg">
 <g transform="matrix(3.794349 0 0 3.794349 -418.06157 -463.61638)">
  <g fill-rule="evenodd" transform="matrix(.26458334 0 0 .26458334 109.91547 121.92143)">
   <path d="m471.95 253.05c0 120.9-98.01 218.91-218.91 218.91-120.9 0-218.91-98.01-218.91-218.91 0-120.9 98.01-218.91 218.91-218.91 120.9 0 218.91 98.01 218.91 218.91" fill="#b0b0b0"/>
   <path d="m256 1c-140.83 0-255 114.17-255 255 0 140.83 114.17 255 255 255 140.83 0 255-114.17 255-255 0-140.83-114.17-255-255-255m8.827 44.931c120.9 0 218.9 98 218.9 218.9 0 120.9-98 218.9-218.9 218.9-120.9 0-218.93-98-218.93-218.9 0-120.9 98.03-218.9 218.93-218.9" fill-opacity=".067"/>
   <g fill-opacity=".129">
    <path d="m256 4.43c-138.94 0-251.57 112.63-251.57 251.57 0 138.94 112.63 251.57 251.57 251.57 138.94 0 251.57-112.63 251.57-251.57 0-138.94-112.63-251.57-251.57-251.57m5.885 38.556c120.9 0 218.9 98 218.9 218.9 0 120.9-98 218.9-218.9 218.9-120.9 0-218.93-98-218.93-218.9 0-120.9 98.03-218.9 218.93-218.9"/>
    <path d="m256 8.36c-136.77 0-247.64 110.87-247.64 247.64 0 136.77 110.87 247.64 247.64 247.64 136.77 0 247.64-110.87 247.64-247.64 0-136.77-110.87-247.64-247.64-247.64m2.942 31.691c120.9 0 218.9 98 218.9 218.9 0 120.9-98 218.9-218.9 218.9-120.9 0-218.93-98-218.93-218.9 0-120.9 98.03-218.9 218.93-218.9"/>
   </g>
   <path d="m253.04 7.86c-135.42 0-245.19 109.78-245.19 245.19 0 135.42 109.78 245.19 245.19 245.19 135.42 0 245.19-109.78 245.19-245.19 0-135.42-109.78-245.19-245.19-245.19m0 26.297c120.9 0 218.9 98 218.9 218.9 0 120.9-98 218.9-218.9 218.9-120.9 0-218.93-98-218.93-218.9 0-120.9 98.03-218.9 218.93-218.9z" fill="#ffffff" stroke="#000000" stroke-opacity=".31" stroke-width="4.904"/>
  </g>
  <path d="m133.86027 172.29281v34.72656l39.67956 39.67957c1.1012.0624 2.2098.0971 3.32634.0971 30.29215 0 55.1471-23.25423 57.69769-52.88227l-14.31925-14.31925c-1.07739-1.07739-2.69955-1.69678-4.07512-1.76107-.0524-.002-.10504.00026-.15769-.00053l-5.53932-5.53932h-8.70637v6.70296l-4.36351-4.36351c-.2368-.2368-.49953-.45429-.78766-.65273-1.61687-1.12659-2.99165-1.68672-8.65691-1.68672h-9.53293v4.48972l-4.48972-4.48972h-11.53424l-.52388 4.32118-4.32117-4.32118h-10.93788v4.23334l-4.23333-4.23334h-8.52488" opacity=".25"/>
  <path d="m133.86027 172.29281v34.72656h8.52487v-34.72656zm12.7582 0v34.72656h7.67292v-19.49714l3.58855 19.49714h5.28346l3.50573-19.49714v19.49714h7.26784v-34.72656h-11.53425l-1.98437 16.37109-2.86094-16.37109h-10.93788m31.80821 0v34.72656h9.56734c5.43771 0 7.25963-.60007 8.78945-1.8026 1.51183-1.20253 2.26563-2.89216 2.26563-5.0509v-21.0185c0-2.32622-.81095-4.05262-2.43099-5.16758-1.61687-1.12659-2.99164-1.68672-8.6569-1.68672h-9.53294m23.34154 0v34.72657h7.02813c0 0 .54028-2.06507 1.13268-1.80261.59822.25691 3.61579 1.52136 5.69674 1.52136 2.08095 0 2.921-.136 3.93568-.56224 1.24327-.82603 1.86796-1.94654 1.86796-3.36524v-20.19829c.21299-2.90989-2.88846-4.66805-5.2586-4.77838-2.37305-.10795-4.81833 1.4277-5.69674 2.41433v-7.95338h-8.70638m-14.57589 5.53138c1.32556-.006 2.72864.0648 2.72864 1.54623v20.36471c0 1.64333-1.83726 1.42214-3.29088 1.42214v-23.32567c.18177 0 .37306-.007.56224-.008m24.48189 4.43177c.7911 0 1.19062.42651 1.19062 1.28164v17.4969c-.003.85063-.40216 1.4388-1.19062 1.4388-.80275 0-1.20729-.59187-1.20729-1.447v-17.53659c0-.82021.39872-1.2319 1.20729-1.2319" fill="#ffffff"/>
 </g>
</svg>
