<svg height="1814.17" viewBox="0 0 512 512" width="1814.17" xmlns="http://www.w3.org/2000/svg">
 <g transform="matrix(3.7795274 0 0 3.7795274 -75.428545 -372.23397)">
  <path d="m144.82725 165.43972c0 31.98813-25.93182 57.9173-57.917299 57.9173-31.988126 0-57.917294-25.93182-57.917294-57.9173 0-31.98812 25.931814-57.91729 57.917294-57.91729 31.988129 0 57.917299 25.93181 57.917299 57.91729" fill="#9f9f9f" fill-rule="evenodd"/>
  <path d="m78.562347 108.1278c-3.131608.45217-6.179609 1.15146-9.128125 2.08359v29.17031h9.128125v-31.25258" fill="#9f9f9f"/>
  <path d="m86.912597 107.52508c-2.83501 0-5.624777.21008-8.351044.60351v31.25523h9.128126v-31.8479c-.260086-.003-.516203-.008-.777346-.008" fill="#9f9f9f"/>
  <path d="m87.690472 107.53301v31.85055h9.128126v-31.01446c-2.970742-.51197-6.020859-.79375-9.128126-.83503" fill="#9f9f9f"/>
  <path d="m96.818598 108.36645v31.01446h9.128122v-28.64908c-2.94375-1.02421-5.989899-1.82378-9.128122-2.36485" fill="#9f9f9f"/>
  <path d="m31.573933 148.3106c-1.674284 5.41443-2.579688 11.16806-2.579688 17.13177 0 31.98548 25.931814 57.912 57.91994 57.912 31.985475 0 57.912005-25.92387 57.912005-57.90935 0-5.96424-.90541-11.7184-2.57969-17.13178h-110.669921" fill="#9f9f9f"/>
  <path d="m87.690472 128.6256c-20.7645 0-37.594647 16.83014-37.594647 37.59464 0 10.38226 4.207934 19.78026 11.011165 26.58534l30.374168 30.37416c28.342172-2.21244 50.956112-24.82585 53.170672-53.16802l-30.37417-30.37416c-6.80323-6.80324-16.203085-11.01117-26.585336-11.01117" opacity=".25"/>
  <path d="m87.690472 128.6256c-20.7645 0-37.594647 16.83014-37.594647 37.59464 0 20.76451 16.830147 37.59465 37.594647 37.59465 20.764498 0 37.594648-16.83014 37.594648-37.59465 0-20.7645-16.83015-37.59464-37.594648-37.59464" fill="#9f9f9f"/>
  <g fill-rule="evenodd" transform="matrix(.26458334 0 0 .26458334 19.957136 98.486909)">
   <path d="m256 1c-140.83 0-255 114.17-255 255 0 140.83 114.17 255 255 255 140.83 0 255-114.17 255-255 0-140.83-114.17-255-255-255m8.827 44.931c120.9 0 218.9 98 218.9 218.9 0 120.9-98 218.9-218.9 218.9-120.9 0-218.93-98-218.93-218.9 0-120.9 98.03-218.9 218.93-218.9" fill-opacity=".067"/>
   <g fill-opacity=".129">
    <path d="m256 4.433c-138.94 0-251.57 112.63-251.57 251.57 0 138.94 112.63 251.57 251.57 251.57 138.94 0 251.57-112.63 251.57-251.57 0-138.94-112.63-251.57-251.57-251.57m5.885 38.556c120.9 0 218.9 98 218.9 218.9 0 120.9-98 218.9-218.9 218.9-120.9 0-218.93-98-218.93-218.9 0-120.9 98.03-218.9 218.93-218.9"/>
    <path d="m256 8.356c-136.77 0-247.64 110.87-247.64 247.64 0 136.77 110.87 247.64 247.64 247.64 136.77 0 247.64-110.87 247.64-247.64 0-136.77-110.87-247.64-247.64-247.64m2.942 31.691c120.9 0 218.9 98 218.9 218.9 0 120.9-98 218.9-218.9 218.9-120.9 0-218.93-98-218.93-218.9 0-120.9 98.03-218.9 218.93-218.9"/>
   </g>
   <path d="m253.04 7.859c-135.42 0-245.19 109.78-245.19 245.19 0 135.42 109.78 245.19 245.19 245.19 135.42 0 245.19-109.78 245.19-245.19 0-135.42-109.78-245.19-245.19-245.19zm0 26.297c120.9 0 218.9 98 218.9 218.9 0 120.9-98 218.9-218.9 218.9-120.9 0-218.93-98-218.93-218.9 0-120.9 98.03-218.9 218.93-218.9z" fill="#ffffff" stroke="#000000" stroke-opacity=".31" stroke-width="4.904"/>
  </g>
  <path d="m87.690472 146.55112c-10.863792 0-19.669125 8.80533-19.669125 19.66912 0 10.8638 8.805333 19.66913 19.669125 19.66913 10.863792 0 19.669128-8.80533 19.669128-19.66913 0-10.86379-8.805336-19.66912-19.669128-19.66912" fill="#9f9f9f"/>
  <g fill="#ffffff" transform="matrix(.26458334 0 0 .26458334 19.957136 98.486909)">
   <path d="m200.68 184.41c-14.974 0-27.11 12.137-27.11 27.11 0 14.974 12.137 27.11 27.11 27.11 14.974 0 27.11-12.137 27.11-27.11 0-14.974-12.137-27.11-27.11-27.11" opacity=".25"/>
   <path d="m256 113.91c-78.48 0-142.09 63.61-142.09 142.09 0 78.48 63.61 142.09 142.09 142.09 78.48 0 142.09-63.61 142.09-142.09 0-78.48-63.61-142.09-142.09-142.09m0 28.19c62.904 0 113.91 51 113.91 113.91 0 62.904-51 113.91-113.91 113.91-62.904 0-113.91-51-113.91-113.91 0-62.904 51-113.91 113.91-113.91"/>
   <path d="m241.73 232.55c-9.881 0-17.89 8.01-17.89 17.89 0 9.881 8.01 17.89 17.89 17.89 9.881 0 17.89-8.01 17.89-17.89 0-9.881-8.01-17.89-17.89-17.89" opacity=".25"/>
  </g>
 </g>
</svg>
