<svg viewBox="0 0 512 512" xmlns="http://www.w3.org/2000/svg">
 <g fill-rule="evenodd">
  <path d="m471.95 253.05c0 120.9-98.01 218.91-218.91 218.91s-218.91-98.01-218.91-218.91 98.01-218.91 218.91-218.91 218.91 98.01 218.91 218.91" fill="#b0b0b0"/>
  <path d="m256 1c-140.83 0-255 114.17-255 255s114.17 255 255 255 255-114.17 255-255-114.17-255-255-255m8.827 44.931c120.9 0 218.9 98 218.9 218.9s-98 218.9-218.9 218.9-218.93-98-218.93-218.9 98.03-218.9 218.93-218.9" fill-opacity=".067"/>
  <g fill-opacity=".129">
   <path d="m256 4.43c-138.94 0-251.57 112.63-251.57 251.57s112.63 251.57 251.57 251.57 251.57-112.63 251.57-251.57-112.63-251.57-251.57-251.57m5.885 38.556c120.9 0 218.9 98 218.9 218.9s-98 218.9-218.9 218.9-218.93-98-218.93-218.9 98.03-218.9 218.93-218.9"/>
   <path d="m256 8.36c-136.77 0-247.64 110.87-247.64 247.64s110.87 247.64 247.64 247.64 247.64-110.87 247.64-247.64-110.87-247.64-247.64-247.64m2.942 31.691c120.9 0 218.9 98 218.9 218.9s-98 218.9-218.9 218.9-218.93-98-218.93-218.9 98.03-218.9 218.93-218.9"/>
  </g>
  <path d="m253.04 7.86c-135.42 0-245.19 109.78-245.19 245.19 0 135.42 109.78 245.19 245.19 245.19 135.42 0 245.19-109.78 245.19-245.19 0-135.42-109.78-245.19-245.19-245.19m0 26.297c120.9 0 218.9 98 218.9 218.9s-98 218.9-218.9 218.9-218.93-98-218.93-218.9 98.03-218.9 218.93-218.9z" fill="#ffffff" stroke="#000000" stroke-opacity=".31" stroke-width="4.904"/>
 </g>
 <g fill-rule="evenodd">
  <path d="m368.05 127.95l-160.07 32.01v163.35c-10.936-4.757-26.13-4.762-40.82 2.791l-.002-.002c-21.842 11.233-27.995 31.691-19.588 44.662l7.127 7.127-.018-.012-7.115-7.115c.883 1.363 1.928 2.643 3.115 3.83v.002c.012.012.025.023.037.035l97.27 97.27c1.681.038 3.363.064 5.05.064 120.9 0 218.91-98.01 218.91-218.91 0-7.537-.379-14.985-1.123-22.326l-102.78-102.78" opacity=".25"/>
  <path d="m223.99 220.79v124.82h-.002c.112 11.415-7.475 24.287-23.2 32.375-21.842 11.233-44.81 5.751-53.22-7.22-8.407-12.971-2.253-33.43 19.589-44.663 14.689-7.554 29.888-7.549 40.824-2.79v-163.35l160.07-32.01v201.7c.095 11.406-7.494 24.26-23.2 32.34-21.842 11.233-44.81 5.751-53.22-7.22-8.407-12.971-2.253-33.43 19.589-44.663 14.689-7.554 29.888-7.549 40.824-2.79v-112.13z" fill="#ffffff"/>
 </g>
</svg>
