<svg height="512" viewBox="0 0 512 512" width="512" xmlns="http://www.w3.org/2000/svg">
 <path d="m471.95 253.05c0 120.9-98.01 218.9-218.9 218.9-120.9 0-218.9-98.01-218.9-218.9 0-120.9 98.01-218.9 218.9-218.9 120.9 0 218.9 98.01 218.9 218.9" fill="#777777" fill-rule="evenodd"/>
 <path d="m251.98 32.32c-23.1 0-45.39 3.533-66.37 10.07 2.028 11.306-.011 22.882 10.945 22.725 7.276 10.02-14.483 2.962 1.241 10.686 9.04 6.938-9.575 10.93 1.623 17.16-12.906 6.488 2.091 33.945 11.676 40.814 15.777 12.94 6.989-27.418 24.594-29.516 9.566-10.64 26.343-17.493 38.27-28.2-11.661-.922-18.488-7.98-7.445-12.36 20.325 20.291 5.111-9.589-6.14-14.324 10.887-3.374 21.491-.904 19.98-9.656 2.923-2.083 3.609-3.828 2.927-5.214-10.229-1.441-20.686-2.189-31.31-2.189m-111.71 29.999c-6.327 3.668-12.436 7.657-18.358 11.91 4.911.519 8.669 2.438 11.74 10.171 15.555 8.734 1.404 23.561-5.377 28.647 11.341-6.527 31.19 25.817 25.771 7.886-6.675-4.748 17.947 7.61 5.186-7.822-11.744-18.433.935-8.229 5.886-3.927 16.839-14.711-19.08-16.501-10.117-31.641-4.165-3.286-9.02-10.09-14.731-15.225m50.3 11.652c-8.774 7.123 16.681 8.464 0 0m198.05 5.15c-10.938 9.685-17.836 23.864-25.803 36.28-17.494 7.684-16.871 40.604 2.673 30.06 5.231 8.901-3.687 22.936 11.549 11.298 12.289-15.845 2.185-41.45 23.1-51.44 1.523 7.769-19.29 36.763 5.03 31.995 21.983.808-15.973 2.124-5.281 15.804-11.11-6.421-5.322 17.549-19.821 11.974-12.561 6.657-20.822-3.098-17.944-13.776-9.882 5.616 3.123 21.483-14.03 22.435-3.843 13.294-35.469 11.248-17.499 24.785 7.978 20.14-29.699 1.318-18.994 25.493 9.158 23.905 28.356-7.917 36.14-14.07 14.554-10.999 35.883 17.45 24.912 20.278 13.813-2.541 10.549-15.983-1.273-21.276-6.56-16.576 20.764 8.137 19.249 16.448 9.641 17.59 5.683-18.05 15.494-2.285-1.146 16.625 39.498 3.95 20.11 25.14-16.671 3.271-33.12-4.166-47.47.612-13.359-.115-12.667-14.03-17.53-17.51-16.992 1.345-38.03 1.175-49.41 14.549-12.302 16.444-29.984 39.42-16.576 60.42 13.417 31.11 46.637 1.613 65.763 19.989 5.685 7.662-4.917 16.775 7.795 25.07 4.783 17.678-5.416 34.473 6.331 51.37 5.252 13.742 8.798 33.384 24.276 29.07 10.02-8.807 19.267-18.517 27.616-28.969 4.222-10.643 7.331-21.532 17.849-29.16-14.917-28.13 16.09-41.15 26.471-63.09.233-1.037.449-2.08.668-3.122-18.665 2.183-35.18-15.984-39.706-34.28-7.954-8.992-5.927-22.24 2.959-5.343 12.213 11.53 12.501 45.732 35.09 28.13 1.153-.47 2.53-1.103 4.04-1.835 1.24-8.312 2.028-16.783 2.354-25.364-10.1-5.398-15.887-25.284.191-7.564v-1.32c0-9.246-.563-18.37-1.623-27.328-1.988.016-4.622-1.362-7.859-4.828 2.137-13.751-13.19-24.418 1.018-29.903-13.37-47.86-41.84-89.3-79.86-118.75m-275.56 1.738c-2.374 1.888-4.704 3.845-6.999 5.826-2.079 4.01-4.705 7.081-6.236 5.601-43.773 40.684-71.59 98.67-72.795 163.26 5.784 9.739 12.475 19.68 12.949 14.03-8.05-8.215-16.329-32.863-2.704-10.912 12.204 20.867 28.702 34.4 52.751 39.37 13.148 4.357 23.912 19.357 35.475 16.06 6.538 16.792-19.323 32.942.923 48.604 10.57 15.856 28.315 26.25 18.708 48.51-4.589 14.849-4.759 30.574-6.236 45.514 6.36 3.748 12.926 7.185 19.662 10.3 2.319-7.704 5.607-14.814 11.74-20.472 18.294.141 3.508-19.2 21.667-16.673 11.08-14.15 14.262-31.04 32.961-36.662 2.234-17.18 31.12-43.46 1.304-50.15-8.102-3.891-28.988-5.258-27.393-7.178 3.23-17.04-26.917-21.932-39.77-28.905-16.875-11.67-42.26 19.388-48.2-7.371-3.547-8.419-16.524-8.51-10.563-21.502-10.743 10.409-31.749 7.228-26.25-12.875 8.354-16.93 40.443-17.757 45.91 2.607-7.591-22.459 14.653-39.964 27.01-55.943 2.517-7.637 17.49-14.174 12.345-4.02 8.766-.308 22.03-15.74 6.459-8.626-.22-14.06-13.655-10.04-18.01-8.05 8.07-12.475 49.547-5.617 32.2-26.01-13.444-5.307-12.364-36.31-25.962-19.06 1.144-10.631-27.672-31.41-27.04-13.583 3.518 15.951.647 34.32-6.84 44.774-1.562-23.374-42.485-18.257-37.22-43.16 7.621-11.871 16.555-28.26 17.403-26.78 12.291-4.572 22.391-16.999 12.758-26.523m17.18 6.856c-7.432 11.861 10.981 4.379 0 0m162.71 14.03c-8.701 9.759-20.14-2.594-20.33 5.794 1.577 2.534 7.893 20.624 21.73 7.275 7.426-3.05 4.461-10.714-1.4-13.07m-185.23 5.794c-16.503 14.04 28.06 15.366 3.532 1.642zm217.52 39.08c-11.45 7.605 5.922 23.449 0 30.933-7.445 12.638 27.662-.893 8.908-10.976-1.285-8.333-10.27-18.395-8.877-19.957h-.032m-7.795 15.03c-16.554 4.56-3.795 28.13 2.068 5.955.33-1.286.814-5.998-2.068-5.955m-132.58 17.06c-15.401 10.231-2.41 20.472 8.877 15.869-2.317-6.173-8.772-10.09-8.877-15.869m251.41 17.349c-1.043 10.01 22.17 25.584-2.863 20.504-13.236 1.513-33.06-.443-16.385-16.512 5.269-3.082 19.1 10.662 11.899-2.157 2.552-.158 4.945-1.08 7.349-1.835m34.616 11.266c-.131.796-.01 1.594.541 2.414-.179-.806-.353-1.612-.541-2.414m-111.07 10.429c-9.654 6.06 6.676 10.706 0 0m-242.44 56.46c-1.628 5.29 30.529 10.665 8.336 2.189l-3.309-1.127-5.03-1.062m24.975 7.532c-9.755 9.649 20.1 2.883 0 0" fill="#ffffff" fill-opacity=".281" opacity=".8"/>
 <g fill-rule="evenodd">
  <path d="m307.97 41.09l-85.16 58.41-.344-.375c-.022.009-.041.023-.063.031-.037-.04-.938-1.031-.938-1.031-.022.009-.041.023-.063.031-.037-.04-.938-1.031-.938-1.031-.022.009-.041.023-.063.031l-.906-1c-.022.009-.041.023-.063.031l-.938-1.031c-.022.009-.041.023-.063.031-.037-.04-.938-1.031-.938-1.031-.022.009-.041.023-.063.031-.037-.04-.938-1.031-.938-1.031-.022.009-.041.023-.063.031-.037-.04-.938-1.031-.938-1.031-.022.009-.041.023-.063.031-.037-.04-.938-1.031-.938-1.031-.022.009-.041.023-.063.031l-.938-1.031c-.022.009-.041.023-.063.031l-.906-1c-.022.009-.041.023-.063.031-.037-.04-.938-1.031-.938-1.031-.022.009-.041.023-.063.031-.037-.04-.938-1.031-.938-1.031-.022.009-.041.023-.063.031-.037-.04-.938-1.031-.938-1.031-.022.009-.041.023-.063.031-.037-.04-.938-1.031-.938-1.031-.022.009-.041.023-.063.031l-.938-1.031c-.022.009-.041.023-.063.031-.034-.038-.906-1-.906-1-.022.009-.041.023-.063.031-.037-.04-.938-1.031-.938-1.031-.022.009-.041.023-.063.031-.037-.04-.938-1.031-.938-1.031-.022.009-.041.023-.063.031-.037-.04-.938-1.031-.938-1.031-.022.009-.041.023-.063.031-.037-.04-.938-1.031-.938-1.031-.022.009-.041.023-.063.031l-.938-1.031c-.022.009-.041.023-.063.031-.034-.038-.906-1-.906-1-.022.009-.041.023-.063.031-.037-.04-.938-1.031-.938-1.031-.022.009-.041.023-.063.031-.037-.04-.938-1.031-.938-1.031-.022.009-.041.023-.063.031-.037-.04-.938-1.031-.938-1.031-.022.009-.041.023-.063.031l-.938-1.031c-.022.009-.041.023-.063.031l-.938-1.031c-.022.009-.041.023-.063.031-.037-.04-.938-1.031-.938-1.031-.022.009-.041.023-.063.031-.034-.038-.906-1-.906-1-.022.009-.041.023-.063.031-.037-.04-.938-1.031-.938-1.031-.022.009-.041.023-.063.031-.037-.04-.938-1.031-.938-1.031-.022.009-.041.023-.063.031l-.938-1.031c-.022.009-.041.023-.063.031l-.938-1.031c-.022.009-.041.023-.063.031-.037-.04-.938-1.031-.938-1.031-.022.009-.041.023-.063.031-.034-.038-.906-1-.906-1-.022.009-.041.023-.063.031-.037-.04-.938-1.031-.938-1.031-.022.009-.041.023-.063.031-.037-.04-.938-1.031-.938-1.031-.022.009-.041.023-.063.031l-.938-1.031c-.022.009-.041.023-.063.031l-.938-1.031c-.022.009-.041.023-.063.031-.037-.04-.938-1.031-.938-1.031-.022.009-.041.023-.063.031-.034-.038-.906-1-.906-1-.022.009-.041.023-.063.031-.037-.04-.938-1.031-.938-1.031-.022.009-.041.023-.063.031-.037-.04-.938-1.031-.938-1.031-.022.009-.041.023-.063.031-.037-.04-.938-1.031-.938-1.031-.022.009-.041.023-.063.031-.037-.04-.938-1.031-.938-1.031-.022.009-.041.023-.063.031-.037-.04-.938-1.031-.938-1.031-.022.009-.041.023-.063.031-.034-.038-.906-1-.906-1-.022.009-.041.023-.063.031-.037-.04-.938-1.031-.938-1.031-.022.009-.041.023-.063.031l-.938-1.031c-.022.009-.041.023-.063.031l-.938-1.031c-2.943 1.161-5.84 2.404-8.719 3.688-.341.152-.692.284-1.031.438-1.398.632-2.774 1.277-4.156 1.938-.226.108-.462.204-.688.313-.021.01-.041.021-.063.031-1.574.759-3.135 1.517-4.688 2.313-.033.017-.061.046-.094.063-3.107 1.593-6.168 3.265-9.188 5-.045.026-.08.068-.125.094-1.482.854-2.977 1.706-4.438 2.594-.044.027-.081.067-.125.094-1.508.917-3.02 1.861-4.5 2.813-1.424.915-2.849 1.835-4.25 2.781-.055.037-.101.088-.156.125-1.4.948-2.811 1.896-4.188 2.875-.054.039-.102.086-.156.125-2.344 1.669-4.632 3.398-6.906 5.156-.447.346-.9.682-1.344 1.031-1.178.926-2.341 1.863-3.5 2.813-.195.16-.399.308-.594.469-.063.052-.125.104-.188.156-1.288 1.065-2.581 2.156-3.844 3.25-.441.382-.875.771-1.313 1.156-.876.771-1.761 1.527-2.625 2.313-.065.059-.122.128-.188.188-1.229 1.12-2.453 2.259-3.656 3.406-.064.061-.124.126-.188.188l49.13 53.56-115.25 78.69c-.02.166-.043.334-.063.5-.229 1.968-.415 3.952-.594 5.938-.155 1.716-.291 3.428-.406 5.156-.06.918-.108 1.828-.156 2.75-.018.344-.046.687-.063 1.031-.169 3.526-.281 7.088-.281 10.656 0 26.28 4.664 51.47 13.156 74.81.133.273.262.548.406.813 0 0 .373-.249.375-.25.196.42.406.851.625 1.25 0 0 .373-.249.375-.25.196.42.406.851.625 1.25 0 0 .373-.249.375-.25.196.42.375.851.594 1.25 0 0 .404-.28.406-.281.199.428.371.843.594 1.25l.375-.25c.199.428.402.843.625 1.25l.375-.25c.199.428.402.843.625 1.25 0 0 .373-.249.375-.25.199.428.402.843.625 1.25 0 0 .373-.249.375-.25.196.42.406.851.625 1.25 0 0 .373-.249.375-.25.196.42.406.851.625 1.25 0 0 .373-.249.375-.25.195.419.376.82.594 1.219 0 0 .373-.249.375-.25.199.428.402.843.625 1.25 0 0 .373-.249.375-.25.199.428.402.843.625 1.25 0 0 .373-.249.375-.25.199.428.402.843.625 1.25 0 0 .373-.249.375-.25.196.42.406.851.625 1.25l.375-.25c.196.42.406.851.625 1.25l.375-.25c.196.42.375.851.594 1.25 0 0 .404-.28.406-.281.199.428.371.843.594 1.25 0 0 .373-.249.375-.25.199.428.402.843.625 1.25 0 0 .373-.249.375-.25.199.428.402.843.625 1.25 0 0 .373-.249.375-.25.196.42.406.851.625 1.25 0 0 .373-.249.375-.25.196.42.406.851.625 1.25 0 0 .373-.249.375-.25.196.42.375.851.594 1.25 0 0 .404-.28.406-.281.199.428.371.843.594 1.25l.375-.25c.199.428.402.843.625 1.25l.375-.25c.199.428.402.843.625 1.25l.375-.25c.199.428.402.843.625 1.25l.375-.25c.196.42.406.851.625 1.25 0 0 .373-.249.375-.25.196.42.406.851.625 1.25 0 0 .373-.249.375-.25.195.419.376.82.594 1.219 0 0 .373-.249.375-.25.199.428.402.843.625 1.25 0 0 .373-.249.375-.25.199.428.402.843.625 1.25 0 0 .373-.249.375-.25.199.428.402.843.625 1.25 0 0 .373-.249.375-.25.196.42.406.851.625 1.25 0 0 .373-.249.375-.25.196.42.406.851.625 1.25l.375-.25c.195.419.376.82.594 1.219l.375-.25c.199.428.402.843.625 1.25 0 0 .373-.249.375-.25.199.428.402.843.625 1.25 0 0 .373-.249.375-.25.199.428.402.843.625 1.25 0 0 .373-.249.375-.25.196.42.406.851.625 1.25 0 0 .373-.249.375-.25.196.42.406.851.625 1.25 0 0 .373-.249.375-.25.196.42.375.851.594 1.25 0 0 .404-.28.406-.281.199.428.371.843.594 1.25 0 0 .373-.249.375-.25.199.428.402.843.625 1.25 0 0 .373-.249.375-.25.199.428.402.843.625 1.25l.375-.25c.196.42.406.851.625 1.25l.375-.25c.196.42.406.851.625 1.25 0 0 .373-.249.375-.25.196.42.375.851.594 1.25 0 0 .404-.28.406-.281.199.428.371.843.594 1.25 0 0 .373-.249.375-.25.199.428.402.843.625 1.25 0 0 .373-.249.375-.25.199.428.402.843.625 1.25 0 0 .373-.249.375-.25.199.428.402.843.625 1.25 0 0 .373-.249.375-.25.196.42.406.851.625 1.25 0 0 .373-.249.375-.25.196.42.406.851.625 1.25l.375-.25c.195.419.376.82.594 1.219 0 0 .373-.249.375-.25.199.428.402.843.625 1.25 0 0 .373-.249.375-.25.199.428.402.843.625 1.25l.375-.25c.199.428.402.843.625 1.25 0 0 .373-.249.375-.25.196.42.406.851.625 1.25 0 0 .373-.249.375-.25.196.42.406.851.625 1.25 0 0 .373-.249.375-.25.195.419.376.82.594 1.219 0 0 .373-.249.375-.25.201.433.4.839.625 1.25 0 0 .373-.249.375-.25.199.428.402.843.625 1.25 0 0 .373-.249.375-.25.199.428.402.843.625 1.25 0 0 .373-.249.375-.25.196.42.406.851.625 1.25l.375-.25c.196.42.406.851.625 1.25l.375-.25c.196.42.375.851.594 1.25l.406-.281c.199.428.371.843.594 1.25 0 0 .373-.249.375-.25.199.428.402.843.625 1.25 0 0 .373-.249.375-.25.199.428.402.843.625 1.25 0 0 .373-.249.375-.25.196.42.406.851.625 1.25 0 0 .373-.249.375-.25.196.42.406.851.625 1.25 0 0 .373-.249.375-.25.196.42.406.851.625 1.25 0 0 .373-.249.375-.25.195.419.376.82.594 1.219 0 0 .373-.249.375-.25.199.428.402.843.625 1.25 0 0 .373-.249.375-.25.199.428.402.843.625 1.25l.375-.25c.199.428.402.843.625 1.25 0 0 .373-.249.375-.25.196.42.406.851.625 1.25 0 0 .373-.249.375-.25.196.42.406.851.625 1.25 0 0 .373-.249.375-.25.195.419.376.82.594 1.219 0 0 .373-.249.375-.25.199.428.402.843.625 1.25 0 0 .373-.249.375-.25.199.428.402.843.625 1.25 0 0 .373-.249.375-.25.199.428.402.843.625 1.25 0 0 .373-.249.375-.25.196.42.406.851.625 1.25 0 0 .373-.249.375-.25.196.42.406.851.625 1.25 0 0 .373-.249.375-.25.196.42.375.851.594 1.25l.406-.281c.199.428.371.843.594 1.25l.375-.25c.199.428.402.843.625 1.25l.375-.25c.199.428.402.843.625 1.25l.375-.25c.196.42.406.851.625 1.25l.375-.25c.196.42.406.851.625 1.25l.375-.25c.196.42.375.851.594 1.25l.406-.281c.199.428.371.843.594 1.25l.375-.25c.199.428.402.843.625 1.25l.375-.25c.199.428.402.843.625 1.25l.375-.25c.199.428.402.843.625 1.25l.375-.25c.196.42.406.851.625 1.25l.375-.25c.196.42.406.851.625 1.25l.375-.25c.195.419.376.82.594 1.219l.375-.25c.199.428.402.843.625 1.25l.375-.25c.199.428.402.843.625 1.25l.375-.25c.199.428.402.843.625 1.25l.375-.25c.196.42.406.851.625 1.25l.375-.25c.196.42.406.851.625 1.25l.375-.25c.195.419.376.82.594 1.219l.375-.25c.201.433.4.839.625 1.25l.375-.25c.199.428.402.843.625 1.25l.375-.25c.199.428.402.843.625 1.25l.375-.25c.196.42.406.851.625 1.25l.375-.25c.196.42.406.851.625 1.25l.375-.25c.196.42.375.851.594 1.25l.406-.281c.199.428.371.843.594 1.25l.375-.25c.199.428.402.843.625 1.25l.375-.25c.199.428.402.843.625 1.25l.375-.25c.196.42.406.851.625 1.25l.375-.25c.196.42.406.851.625 1.25l.375-.25c.196.42.406.851.625 1.25l.375-.25c.195.419.376.82.594 1.219l.375-.25c.199.428.402.843.625 1.25l.375-.25c.199.428.402.843.625 1.25l.375-.25c.199.428.402.843.625 1.25l.375-.25c.196.42.406.851.625 1.25l.375-.25c.196.42.406.851.625 1.25l.375-.25c.195.419.376.82.594 1.219l.375-.25c.199.428.402.843.625 1.25l.375-.25c.199.428.402.843.625 1.25l.375-.25c.199.428.402.843.625 1.25l.375-.25c.196.42.406.851.625 1.25l.375-.25c.196.42.406.851.625 1.25l.375-.25c.196.42.375.851.594 1.25l.406-.281c.199.428.371.843.594 1.25l.375-.25c.143.308.284.61.438.906.154.056.314.1.469.156l.094-.063c.02.043.042.082.063.125 23.277 8.434 48.37 13.06 74.56 13.06 35.01 0 68.09-8.261 97.44-22.875l2.656-1.781c.006.001.244.031.25.031-.03.028-.611.566-.781.719 70.848-36.24 119.34-109.95 119.34-195 0-52.56-18.527-100.8-49.41-138.53-.075-.06-.145-.127-.219-.188l.063-.031c-.094-.115-.187-.229-.281-.344-.26-.209-.522-.413-.781-.625l.125-.094c-.36-.299-.731-.579-1.094-.875l.125-.094c-.37-.307-.753-.602-1.125-.906l.125-.094c-.37-.307-.753-.602-1.125-.906l.125-.094c-.37-.307-.753-.602-1.125-.906l.125-.094c-.37-.307-.753-.602-1.125-.906l.125-.094c-.37-.307-.753-.602-1.125-.906l.125-.094c-.372-.308-.751-.601-1.125-.906l.125-.094c-.36-.299-.731-.579-1.094-.875l.125-.094c-.37-.307-.753-.602-1.125-.906l.125-.094c-.37-.307-.753-.602-1.125-.906l.125-.094c-.37-.307-.753-.602-1.125-.906l.125-.094c-.37-.307-.753-.602-1.125-.906l.125-.094c-.372-.308-.751-.601-1.125-.906l.125-.094c-.36-.299-.731-.579-1.094-.875l.125-.094c-.37-.307-.753-.602-1.125-.906l.125-.094c-.37-.307-.753-.602-1.125-.906l.125-.094c-.37-.307-.753-.602-1.125-.906l.125-.094c-.37-.307-.753-.602-1.125-.906l.125-.094c-.372-.308-.751-.601-1.125-.906l.125-.094c-.36-.299-.731-.579-1.094-.875l.125-.094c-.37-.307-.753-.602-1.125-.906l.125-.094c-.37-.307-.753-.602-1.125-.906l.125-.094c-.37-.307-.753-.602-1.125-.906l.125-.094c-.37-.307-.753-.602-1.125-.906l.125-.094c-.372-.308-.751-.601-1.125-.906l.125-.094c-.36-.299-.731-.579-1.094-.875l.125-.094c-.369-.306-.754-.603-1.125-.906l.125-.094c-.37-.307-.753-.602-1.125-.906l.125-.094c-.37-.307-.753-.602-1.125-.906l.125-.094c-1.452-1.203-2.923-2.396-4.406-3.563-.07-.055-.148-.101-.219-.156-3.11-2.439-6.289-4.791-9.531-7.06-1.621-1.136-3.253-2.251-4.906-3.344-1.552-1.025-3.109-2.045-4.688-3.03-.103-.065-.209-.123-.313-.188-.103-.064-.209-.123-.313-.188-1.499-.93-3.01-1.825-4.531-2.719-.085-.05-.165-.107-.25-.156-.04-.023-.085-.039-.125-.063-1.674-.979-3.36-1.94-5.063-2.875-1.743-.958-3.51-1.901-5.281-2.813-.095-.049-.186-.107-.281-.156-1.677-.859-3.361-1.684-5.063-2.5-1.489-.715-2.993-1.412-4.5-2.094-.899-.407-1.813-.793-2.719-1.188-1.101-.48-2.203-.975-3.313-1.438-.147-.061-.291-.127-.438-.188-1.109-.459-2.225-.902-3.344-1.344-.747-.295-1.499-.588-2.25-.875-.914-.349-1.83-.694-2.75-1.031-.238-.087-.481-.164-.719-.25-1.379-.5-2.764-.996-4.156-1.469-.062-.021-.125-.041-.188-.063-.156-.053-.313-.104-.469-.156-1.541-.518-3.1-1.016-4.656-1.5-1.424-.443-2.845-.898-4.281-1.313-.291-.084-.583-.167-.875-.25-1.659-.471-3.326-.911-5-1.344" fill-opacity=".235"/>
  <path d="m307.97 41.09l-87.84 59.969-47.41-51.688c-26.568 10.486-50.608 26.01-70.906 45.41l49.13 53.56-115.25 78.69c-1.01 8.529-1.563 17.23-1.563 26.03 0 14.991-2.354 30.549.517 44.693 3.074 7.49 3.228 17.934 7.07 24.964l166.1-112.41 69.56 75.844-45.31 41.594 152.84 13.906 2.844-156.81-49.44 44.938-61.19-66.72 115.47-78.66c-24.337-20.16-53.1-35.17-84.62-43.31" fill="#ffffff"/>
  <path d="m256 1c-140.83 0-255 114.17-255 255s114.17 255 255 255 255-114.17 255-255-114.17-255-255-255m8.827 44.931c120.9 0 218.9 98 218.9 218.9s-98 218.9-218.9 218.9-218.93-98-218.93-218.9 98.03-218.9 218.93-218.9" fill-opacity=".067"/>
  <g fill-opacity=".129">
   <path d="m256 4.433c-138.94 0-251.57 112.63-251.57 251.57s112.63 251.57 251.57 251.57 251.57-112.63 251.57-251.57-112.63-251.57-251.57-251.57m5.885 38.556c120.9 0 218.9 98 218.9 218.9s-98 218.9-218.9 218.9-218.93-98-218.93-218.9 98.03-218.9 218.93-218.9"/>
   <path d="m256 8.356c-136.77 0-247.64 110.87-247.64 247.64s110.87 247.64 247.64 247.64 247.64-110.87 247.64-247.64-110.87-247.64-247.64-247.64m2.942 31.691c120.9 0 218.9 98 218.9 218.9s-98 218.9-218.9 218.9-218.93-98-218.93-218.9 98.03-218.9 218.93-218.9"/>
  </g>
  <path d="m253.04 7.859c-135.42 0-245.19 109.78-245.19 245.19 0 135.42 109.78 245.19 245.19 245.19 135.42 0 245.19-109.78 245.19-245.19 0-135.42-109.78-245.19-245.19-245.19zm0 26.297c120.9 0 218.9 98 218.9 218.9s-98 218.9-218.9 218.9-218.93-98-218.93-218.9 98.03-218.9 218.93-218.9z" fill="#ffffff" stroke="#000000" stroke-opacity=".31" stroke-width="4.904"/>
 </g>
</svg>
