<svg height="512" viewBox="0 0 512 512" width="512" xmlns="http://www.w3.org/2000/svg">
 <g transform="translate(0 -540.36)">
  <path d="m471.95 793.41c0 120.9-98.01 218.9-218.9 218.9-120.9 0-218.9-98.01-218.9-218.9 0-120.9 98.01-218.9 218.9-218.9 120.9 0 218.9 98.01 218.9 218.9" fill="#8f8f8f" fill-rule="evenodd"/>
  <path d="m351.72 123.44c-.384-.005-.77.012-1.156.031-2.81.143-5.662.939-8.313 2.469h-.03l-63.22 36.53h-.031c-5.05 2.914-8.161 7.765-8.906 12.906-.302-.338-.635-.679-1-1-.397-.504-.87-1.022-1.406-1.5-.451-.584-1.02-1.179-1.656-1.719-.407-.51-.858-1.03-1.406-1.5-.406-.517-.887-1.025-1.438-1.5-.437-.566-.952-1.147-1.563-1.656-.406-.514-.857-1.038-1.406-1.5-.401-.519-.89-1.035-1.438-1.5-.414-.546-.892-1.079-1.469-1.563-.392-.517-.836-1.01-1.375-1.469-.403-.545-.903-1.083-1.469-1.563-.384-.519-.873-1.012-1.406-1.469-.41-.568-.91-1.135-1.5-1.625-.413-.567-.904-1.112-1.5-1.594-.402-.545-.863-1.07-1.438-1.531-.416-.567-.895-1.122-1.5-1.594-.39-.525-.85-1.029-1.406-1.469-.383-.526-.825-1.06-1.375-1.5-.382-.536-.85-1.054-1.406-1.5-.386-.553-.864-1.075-1.438-1.531-.386-.554-.86-1.078-1.438-1.531-.387-.558-.854-1.111-1.438-1.563-.365-.521-.835-1.01-1.375-1.438-1.085-1.619-2.901-2.969-6-2.969h-23.812c-.274-.019-.562-.037-.875-.031h-.031c-2.193.04-5.217.888-8.188 5.344h-.031l-40.75 61.16h-.031c-.103.062-26.375 15.844-26.375 15.844h-.031c-10.438 6.625-10.5 13.635-10.5 13.719v51.844c-.01.302.258 4.36 4.656 8.06.482.537 1.046 1.06 1.688 1.594.49.536 1.04 1.094 1.688 1.625.464.498.964.975 1.563 1.469.464.499.967 1 1.563 1.5.48.517 1.01 1.05 1.625 1.563.481.514 1.01 1.054 1.625 1.563.485.514 1.01 1.023 1.625 1.531.377.396.795.793 1.25 1.188.508.562 1.088 1.127 1.75 1.688.451.484.968.956 1.531 1.438.454.491.933 1.01 1.5 1.5.447.485.976.953 1.531 1.438.499.546 1.083 1.08 1.719 1.625.436.466.935.941 1.469 1.406.488.528 1.044 1.065 1.656 1.594.449.479.951.958 1.5 1.438.49.526 1.048 1.035 1.656 1.563.474.503.982 1.028 1.563 1.531.472.499.986 1 1.563 1.5.451.474.957.931 1.5 1.406.504.534 1.037 1.088 1.656 1.625.468.489.968.978 1.531 1.469.518.541 1.086 1.082 1.719 1.625.477.488.962.979 1.531 1.469.378.387.784.798 1.219 1.188.455.481.988.949 1.531 1.438.475.503.993 1.019 1.563 1.531.498.524 1.056 1.06 1.656 1.594.457.474.96.955 1.5 1.438.431.447.902.887 1.406 1.344.546.573 1.147 1.162 1.813 1.75.435.442.902.893 1.406 1.344.462.475.957.982 1.5 1.469.403.413.849.826 1.313 1.25l.031.031c.094.086.185.164.281.25.504.512.999 1.036 1.594 1.563.384.386.783.791 1.219 1.188.033.034.06.06.094.094.105.094.205.187.313.281.317.315.649.646 1 .969.506.522 1.051 1.045 1.656 1.594.479.487.968.99 1.531 1.5.399.403.823.797 1.281 1.219.589.604 1.212 1.229 1.938 1.875.017.016.015.046.031.063l9.313 14.03c1.065 1.785 2.071 2.928 3.063 3.688.498.589.985 1.062 1.469 1.438.531.631 1.044 1.139 1.563 1.531.495.581.981 1.064 1.469 1.438.507.598.998 1.086 1.5 1.469.482.569.956 1.031 1.438 1.406.512.613 1.016 1.105 1.531 1.5.46.546.941 1 1.406 1.375.504.615 1.016 1.096 1.531 1.5.491.594.995 1.073 1.5 1.469.515.624 1.06 1.125 1.594 1.531.476.567.943 1.054 1.438 1.438.498.602 1.01 1.068 1.531 1.469.482.582.991 1.044 1.5 1.438.478.581.96 1.074 1.469 1.469.487.597.977 1.097 1.5 1.5.472.576.992 1.042 1.5 1.438.485.597 1 1.095 1.531 1.5.49.602.994 1.124 1.531 1.531.486.59.995 1.099 1.531 1.5.489.591 1.02 1.1 1.563 1.5.451.54.906 1.028 1.406 1.406.47.579.971 1.069 1.5 1.469.476.591.99 1.094 1.531 1.5.458.567.945 1.042 1.469 1.438.466.588.961 1.061 1.5 1.469.448.568.949 1.038 1.469 1.438.466.604.981 1.082 1.531 1.5.466.601.977 1.084 1.531 1.5.452.58.961 1.063 1.5 1.469.449.584.958 1.059 1.5 1.469.445.584.958 1.059 1.5 1.469.454.603.97 1.112 1.531 1.531.441.579.954 1.061 1.5 1.469.45.6.965 1.082 1.531 1.5.442.588.941 1.088 1.5 1.5.436.581.975 1.06 1.531 1.469.453.611.974 1.14 1.563 1.563.435.574.939 1.065 1.5 1.469.442.592.951 1.087 1.531 1.5.432.579.929 1.063 1.5 1.469.426.581.93 1.06 1.5 1.469.429.592.947 1.117 1.531 1.531.427.583.948 1.091 1.531 1.5.427.585.941 1.091 1.531 1.5.428.588.934 1.09 1.531 1.5.428.589.927 1.09 1.531 1.5.389.536.863.989 1.406 1.375.414.618.945 1.135 1.563 1.563.411.594.955 1.086 1.563 1.5.405.585.897 1.091 1.5 1.5.392.571.881 1.065 1.469 1.469.396.597.95 1.084 1.563 1.5.395.594.914 1.117 1.531 1.531.382.571.904 1.035 1.5 1.438.387.606.901 1.111 1.531 1.531.376.581.891 1.062 1.5 1.469.36.574.875 1.032 1.469 1.438.356.596.888 1.083 1.5 1.5.009.005.025.031.031.031.367.615.916 1.138 1.563 1.563.364.601.89 1.084 1.531 1.5.321.529.796.96 1.344 1.344.09.095.161.156.188.156.331.555.82 1.01 1.406 1.406.052.049.105.094.125.094.31.519.771.966 1.313 1.344.105.111.188.188.219.188.296.497.733.916 1.25 1.281.01-.002.021.002.031 0 99.34-20.726 173.97-108.76 173.97-214.25 0-5.646-.205-11.243-.625-16.781-.416-.454-.852-.881-1.313-1.281-.438-.499-.885-.971-1.375-1.406-.48-.556-.988-1.085-1.531-1.563-.502-.576-1.054-1.102-1.625-1.594-.451-.507-.932-.998-1.438-1.438-.434-.493-.89-.945-1.375-1.375-.48-.556-.988-1.085-1.531-1.563-.477-.548-.992-1.06-1.531-1.531-.492-.562-1.036-1.082-1.594-1.563-.417-.468-.85-.902-1.313-1.313-.48-.556-.988-1.085-1.531-1.563-.467-.537-.973-1.037-1.5-1.5-.502-.576-1.054-1.102-1.625-1.594-.426-.479-.869-.925-1.344-1.344-.473-.546-.965-1.061-1.5-1.531-.467-.537-.973-1.037-1.5-1.5-.502-.576-1.054-1.102-1.625-1.594-.426-.479-.869-.925-1.344-1.344-.473-.546-.965-1.061-1.5-1.531-.467-.537-.973-1.037-1.5-1.5-.502-.576-1.054-1.102-1.625-1.594-.451-.507-.932-.967-1.438-1.406-.438-.499-.885-.971-1.375-1.406-.48-.556-.988-1.085-1.531-1.563-.502-.576-1.054-1.102-1.625-1.594-.433-.487-.891-.95-1.375-1.375-.45-.517-.931-.988-1.438-1.438-.48-.556-.988-1.085-1.531-1.563-.477-.548-.992-1.06-1.531-1.531-.475-.542-.995-1.033-1.531-1.5-.434-.493-.89-.945-1.375-1.375-.48-.556-.988-1.085-1.531-1.563-.467-.537-.973-1.037-1.5-1.5-.502-.576-1.054-1.102-1.625-1.594-.426-.479-.869-.925-1.344-1.344-.473-.546-.965-1.061-1.5-1.531-.467-.537-.973-1.037-1.5-1.5-.502-.576-1.054-1.102-1.625-1.594-.426-.479-.869-.925-1.344-1.344-.473-.546-.965-1.061-1.5-1.531-.467-.537-.973-1.037-1.5-1.5-.502-.576-1.054-1.102-1.625-1.594-.451-.507-.932-.967-1.438-1.406-.455-.518-.895-1.02-1.406-1.469-.467-.537-.973-1.037-1.5-1.5-.502-.576-1.054-1.102-1.625-1.594-.451-.507-.932-.967-1.438-1.406-.438-.499-.885-.971-1.375-1.406-.48-.556-.988-1.085-1.531-1.563-.477-.548-.992-1.06-1.531-1.531-.475-.542-.995-1.033-1.531-1.5-.434-.493-.89-.945-1.375-1.375-.48-.556-.988-1.085-1.531-1.563-.467-.537-.973-1.037-1.5-1.5-.502-.576-1.054-1.102-1.625-1.594-.417-.468-.85-.902-1.313-1.313-.48-.556-.988-1.085-1.531-1.563-.467-.537-.973-1.037-1.5-1.5-.502-.576-1.054-1.102-1.625-1.594-.426-.479-.869-.925-1.344-1.344-.473-.546-.965-1.061-1.5-1.531-.467-.537-.973-1.037-1.5-1.5-.502-.576-1.054-1.102-1.625-1.594-.451-.507-.932-.967-1.438-1.406-.455-.518-.895-1.02-1.406-1.469-.467-.537-.973-1.037-1.5-1.5-.502-.576-1.054-1.102-1.625-1.594-.451-.507-.932-.967-1.438-1.406-.438-.499-.885-.971-1.375-1.406-.48-.556-.988-1.085-1.531-1.563-.502-.576-1.054-1.102-1.625-1.594-.451-.507-.932-.998-1.438-1.438-3.113-3.536-7.592-5.497-12.313-5.563" fill-opacity=".235" transform="translate(0 540.36)"/>
  <g fill-rule="evenodd">
   <path d="m256 541.36c-140.83 0-255 114.17-255 255s114.17 255 255 255 255-114.17 255-255-114.17-255-255-255m8.827 44.931c120.9 0 218.9 98 218.9 218.9s-98 218.9-218.9 218.9-218.93-98-218.93-218.9 98.03-218.9 218.93-218.9" fill-opacity=".067"/>
   <g fill-opacity=".129">
    <path d="m256 544.79c-138.94 0-251.57 112.63-251.57 251.57s112.63 251.54 251.57 251.54 251.57-112.6 251.57-251.54-112.63-251.57-251.57-251.57m5.885 38.556c120.9 0 218.9 98 218.9 218.9s-98 218.9-218.9 218.9-218.93-98-218.93-218.9 98.03-218.9 218.93-218.9"/>
    <path d="m256 548.72c-136.77 0-247.64 110.87-247.64 247.64s110.87 247.64 247.64 247.64 247.64-110.87 247.64-247.64-110.87-247.64-247.64-247.64m2.942 31.691c120.9 0 218.9 98 218.9 218.9s-98 218.9-218.9 218.9-218.93-98-218.93-218.9 98.03-218.9 218.93-218.9"/>
   </g>
   <path d="m253.04 548.22c-135.42 0-245.19 109.78-245.19 245.19 0 135.42 109.78 245.19 245.19 245.19 135.42 0 245.19-109.78 245.19-245.19 0-135.42-109.78-245.19-245.19-245.19zm0 26.297c120.9 0 218.9 98 218.9 218.9s-98 218.9-218.9 218.9-218.93-98-218.93-218.9 98.03-218.9 218.93-218.9z" fill="#ffffff" stroke="#000000" stroke-opacity=".31" stroke-width="4.904"/>
  </g>
  <path d="m350.55 663.83c-2.81.143-5.662.939-8.313 2.469l-63.25 36.531c-8.481 4.897-11.588 15.28-6.969 23.281 4.62 8 15.175 10.49 23.656 5.594l63.25-36.5c8.481-4.897 11.588-15.28 6.969-23.281-3.176-5.501-9.162-8.409-15.344-8.094m-144.03 14.09c-2.193.039-5.247.887-8.219 5.344l-40.781 61.16-26.406 15.844c-10.439 6.625-10.531 13.635-10.531 13.719v51.844c-.014.395.467 7.456 10.5 11.469l26.438 10.563 40.906 61.38c3.201 5.364 6.07 5.125 8.625 5.125h22.563c5.058 0 9.156-5.993 9.156-9.875v-218.37c0-1.233-.56-8.156-7.563-8.156h-23.781c-.274-.019-.593-.037-.906-.031m94.19 101.22c-9.793 0-17.688 7.448-17.688 16.688 0 9.239 7.894 16.688 17.688 16.688h73.03c9.793 0 17.688-7.448 17.688-16.688 0-9.239-7.894-16.688-17.688-16.688zm-15.03 79.38c-5.567.24-10.769 3.093-13.656 8.094-4.62 8-1.513 18.385 6.969 23.281l63.25 36.531c8.481 4.897 19.04 2.376 23.656-5.625 4.62-8 1.513-18.385-6.969-23.281l-63.25-36.5c-3.181-1.836-6.66-2.644-10-2.5" fill="#ffffff"/>
 </g>
</svg>
