<svg height="512" viewBox="0 0 512 512" width="512" xmlns="http://www.w3.org/2000/svg">
 <path d="m471.95 253.05c0 120.9-98.01 218.9-218.9 218.9-120.9 0-218.9-98.01-218.9-218.9 0-120.9 98.01-218.9 218.9-218.9 120.9 0 218.9 98.01 218.9 218.9" fill="#878787" fill-rule="evenodd"/>
 <path d="m256 118.28c-7.824 0-15.499.681-22.969 1.938-.14.024-.297.007-.438.031-10.186 1.186-20.864 4.121-31.719 9.531-48.601 21.277-82.59 69.807-82.59 126.22 0 38.427 15.769 73.2 41.19 98.19l.156.156c.074.072.145.147.219.219.378.384.774.745 1.156 1.125.33.335.666.669 1 1 .43.435.846.883 1.281 1.313.114.115.23.23.344.344.042.041.083.084.125.125.529.538 1.056 1.065 1.594 1.594.083.084.166.166.25.25.122.119.253.225.375.344.332.336.665.667 1 1 .33.335.666.669 1 1 .33.335.666.669 1 1 .091.096.19.186.281.281.338.34.659.694 1 1.031.114.115.23.23.344.344.116.114.227.23.344.344.208.21.416.416.625.625.123.118.252.226.375.344.087.09.162.191.25.281.125.126.25.25.375.375.058.057.13.1.188.156.096.092.185.19.281.281.301.304.603.605.906.906.33.335.666.669 1 1 .43.435.846.883 1.281 1.313.114.115.23.23.344.344.042.041.083.084.125.125.529.538 1.056 1.065 1.594 1.594.083.084.166.166.25.25.122.119.253.225.375.344.332.336.665.667 1 1 .33.335.666.669 1 1 .43.435.846.883 1.281 1.313.114.115.23.23.344.344.042.041.083.084.125.125.529.538 1.056 1.065 1.594 1.594.083.084.166.166.25.25.122.119.253.225.375.344.332.336.665.667 1 1 .33.335.666.669 1 1 .43.435.846.883 1.281 1.313.114.115.23.23.344.344.18.176.351.356.531.531.155.157.313.313.469.469.112.108.231.205.344.313.087.09.162.191.25.281.125.126.25.25.375.375.123.118.252.226.375.344.213.216.411.442.625.656.058.057.13.1.188.156.096.092.185.19.281.281.3.303.604.606.906.906.33.335.666.669 1 1 .43.435.846.883 1.281 1.313.114.115.23.23.344.344.042.041.083.084.125.125.529.538 1.056 1.065 1.594 1.594.083.084.166.166.25.25.122.119.253.225.375.344.332.336.665.667 1 1 .33.335.666.669 1 1 .43.435.846.883 1.281 1.313.114.115.23.23.344.344.042.041.083.084.125.125.529.538 1.056 1.065 1.594 1.594.083.084.166.166.25.25.122.119.253.225.375.344.332.336.665.667 1 1 .33.335.666.669 1 1 .43.435.846.883 1.281 1.313.114.115.23.23.344.344.042.041.083.084.125.125.529.538 1.056 1.065 1.594 1.594.083.084.166.166.25.25.122.119.253.225.375.344.332.336.665.667 1 1 .33.335.666.669 1 1 .33.335.666.669 1 1 .091.096.19.186.281.281.338.34.659.694 1 1.031.114.115.23.23.344.344.116.114.227.23.344.344.208.21.416.416.625.625.123.118.252.226.375.344.087.09.162.191.25.281.125.126.25.25.375.375.058.057.13.1.188.156.096.092.185.19.281.281.301.304.603.605.906.906.33.335.666.669 1 1 .43.435.846.883 1.281 1.313.114.115.23.23.344.344.042.041.083.084.125.125.529.538 1.056 1.065 1.594 1.594.083.084.166.166.25.25.122.119.253.225.375.344.332.336.665.667 1 1 .33.335.666.669 1 1 .43.435.846.883 1.281 1.313.114.115.23.23.344.344.042.041.083.084.125.125.529.538 1.056 1.065 1.594 1.594.083.084.166.166.25.25.122.119.253.225.375.344.332.336.665.667 1 1 .33.335.666.669 1 1 .43.435.846.883 1.281 1.313.114.115.23.23.344.344.18.176.351.356.531.531.155.157.313.313.469.469.112.108.231.205.344.313.087.09.162.191.25.281.125.126.25.25.375.375.123.118.252.226.375.344.213.216.411.442.625.656.058.057.13.1.188.156.096.092.185.19.281.281.3.303.604.606.906.906.33.335.666.669 1 1 .43.435.846.883 1.281 1.313.114.115.23.23.344.344.042.041.083.084.125.125.529.538 1.056 1.065 1.594 1.594.083.084.166.166.25.25.122.119.253.225.375.344.332.336.665.667 1 1 .33.335.666.669 1 1 .43.435.846.883 1.281 1.313.114.115.23.23.344.344.042.041.083.084.125.125.529.538 1.056 1.065 1.594 1.594.083.084.166.166.25.25.122.119.253.225.375.344.332.336.665.667 1 1 .33.335.666.669 1 1 .43.435.846.883 1.281 1.313.114.115.23.23.344.344.042.041.083.084.125.125.529.538 1.056 1.065 1.594 1.594.083.084.166.166.25.25.122.119.253.225.375.344.332.336.665.667 1 1 .33.335.666.669 1 1 .33.335.666.669 1 1 .091.096.19.186.281.281.338.34.659.694 1 1.031.114.115.23.23.344.344.116.114.227.23.344.344.208.21.416.416.625.625.123.118.252.226.375.344.213.216.411.442.625.656.058.057.13.1.188.156.096.092.185.19.281.281.3.303.604.606.906.906.33.335.666.669 1 1 .43.435.846.883 1.281 1.313.114.115.23.23.344.344.042.041.083.084.125.125.529.538 1.056 1.065 1.594 1.594.083.084.166.166.25.25.122.119.253.225.375.344.332.336.665.667 1 1 .33.335.666.669 1 1 .43.435.846.883 1.281 1.313.114.115.23.23.344.344.042.041.083.084.125.125.529.538 1.056 1.065 1.594 1.594.083.084.166.166.25.25.122.119.253.225.375.344.332.336.665.667 1 1 .33.335.666.669 1 1 .43.435.846.883 1.281 1.313.103.104.208.209.313.313 102.55-10.696 184.02-92.17 194.72-194.72-.322-.322-.644-.65-.969-.969-.332-.332-.664-.671-1-1-.332-.332-.664-.671-1-1-.214-.214-.44-.412-.656-.625-.077-.08-.141-.171-.219-.25-.042-.041-.083-.084-.125-.125-.084-.084-.166-.167-.25-.25-.571-.579-1.138-1.149-1.719-1.719-.332-.332-.664-.671-1-1-.332-.332-.664-.671-1-1-.332-.332-.664-.671-1-1-.214-.214-.44-.412-.656-.625-.077-.08-.141-.171-.219-.25-.042-.041-.083-.084-.125-.125-.084-.084-.166-.167-.25-.25-.571-.579-1.138-1.149-1.719-1.719-.332-.332-.664-.671-1-1-.545-.545-1.102-1.089-1.656-1.625-.12-.119-.223-.257-.344-.375-.182-.182-.38-.35-.563-.531-.031-.032-.063-.062-.094-.094-.077-.081-.142-.17-.219-.25-.042-.041-.083-.084-.125-.125-.214-.214-.44-.412-.656-.625-.077-.08-.142-.17-.219-.25-.042-.041-.083-.084-.125-.125-.324-.324-.641-.648-.969-.969-.332-.332-.664-.671-1-1-.12-.12-.255-.225-.375-.344-.096-.091-.185-.19-.281-.281-.12-.119-.223-.257-.344-.375-.332-.332-.664-.671-1-1-.332-.332-.664-.671-1-1-.214-.214-.44-.412-.656-.625-.077-.08-.141-.171-.219-.25-.042-.041-.083-.084-.125-.125-.084-.084-.166-.167-.25-.25-.571-.579-1.138-1.149-1.719-1.719-.332-.332-.664-.671-1-1-.332-.332-.664-.671-1-1-.332-.332-.664-.671-1-1-.214-.214-.44-.412-.656-.625-.077-.08-.141-.171-.219-.25-.042-.041-.083-.084-.125-.125-.084-.084-.166-.167-.25-.25-.571-.579-1.138-1.149-1.719-1.719-.332-.332-.664-.671-1-1-.332-.332-.664-.671-1-1-.332-.332-.664-.671-1-1-.183-.183-.378-.349-.563-.531-.031-.032-.063-.062-.094-.094-.097-.102-.184-.211-.281-.313-.021-.021-.041-.042-.063-.063-.214-.214-.44-.412-.656-.625-.02-.021-.042-.041-.063-.063-.058-.056-.098-.131-.156-.188-.042-.041-.083-.084-.125-.125-.324-.324-.641-.648-.969-.969-.332-.332-.664-.671-1-1-.12-.12-.255-.225-.375-.344-.096-.091-.185-.19-.281-.281-.12-.119-.223-.257-.344-.375-.332-.332-.664-.671-1-1-.514-.514-1.04-1.025-1.563-1.531-.031-.032-.063-.062-.094-.094-.097-.102-.184-.211-.281-.313-.021-.021-.041-.042-.063-.063-.214-.214-.44-.412-.656-.625-.02-.021-.042-.041-.063-.063-.048-.046-.077-.11-.125-.156-.042-.041-.083-.084-.125-.125-.123-.118-.252-.226-.375-.344-.214-.212-.41-.446-.625-.656-.332-.332-.664-.671-1-1-.332-.332-.664-.671-1-1-.332-.332-.664-.671-1-1-.214-.214-.44-.412-.656-.625-.077-.08-.141-.171-.219-.25-.042-.041-.083-.084-.125-.125-.084-.084-.166-.167-.25-.25-.571-.579-1.138-1.149-1.719-1.719-.332-.332-.664-.671-1-1-.332-.332-.664-.671-1-1-.332-.332-.664-.671-1-1-.214-.214-.44-.412-.656-.625-.077-.08-.141-.171-.219-.25-.042-.041-.083-.084-.125-.125-.084-.084-.166-.167-.25-.25-.571-.579-1.138-1.149-1.719-1.719-.332-.332-.664-.671-1-1-.332-.332-.664-.671-1-1-.332-.332-.664-.671-1-1-.182-.182-.38-.35-.563-.531-.031-.032-.063-.062-.094-.094-.077-.081-.142-.17-.219-.25-.042-.041-.083-.084-.125-.125-.214-.214-.44-.412-.656-.625-.077-.08-.142-.17-.219-.25-.042-.041-.083-.084-.125-.125-.324-.324-.641-.648-.969-.969-.332-.332-.664-.671-1-1-.12-.12-.255-.225-.375-.344-.096-.091-.185-.19-.281-.281-.12-.119-.223-.257-.344-.375-.332-.332-.664-.671-1-1-.332-.332-.664-.671-1-1-.214-.214-.44-.412-.656-.625-.077-.08-.141-.171-.219-.25-.042-.041-.083-.084-.125-.125-.084-.084-.166-.167-.25-.25-.571-.579-1.138-1.149-1.719-1.719-.332-.332-.664-.671-1-1-.332-.332-.664-.671-1-1-.332-.332-.664-.671-1-1-.214-.214-.44-.412-.656-.625-.077-.08-.141-.171-.219-.25-.042-.041-.083-.084-.125-.125-.084-.084-.166-.167-.25-.25-.571-.579-1.138-1.149-1.719-1.719-.332-.332-.664-.671-1-1-.332-.332-.664-.671-1-1-.332-.332-.664-.671-1-1-.214-.214-.44-.412-.656-.625-.077-.08-.141-.171-.219-.25-.042-.041-.083-.084-.125-.125-.084-.084-.166-.167-.25-.25-.571-.579-1.138-1.149-1.719-1.719-.332-.332-.664-.671-1-1-.545-.545-1.102-1.089-1.656-1.625-.12-.119-.223-.257-.344-.375-.182-.182-.38-.35-.563-.531-.031-.032-.063-.062-.094-.094-.077-.081-.142-.17-.219-.25-.042-.041-.083-.084-.125-.125-.214-.214-.44-.412-.656-.625-.077-.08-.142-.17-.219-.25-.042-.041-.083-.084-.125-.125-.214-.214-.44-.412-.656-.625-.02-.021-.042-.041-.063-.063-.048-.046-.077-.11-.125-.156-.042-.041-.083-.084-.125-.125-.332-.332-.664-.671-1-1-.332-.332-.664-.671-1-1-.332-.332-.664-.671-1-1-.332-.332-.664-.671-1-1-.214-.214-.44-.412-.656-.625-.077-.08-.141-.171-.219-.25-.042-.041-.083-.084-.125-.125-.084-.084-.166-.167-.25-.25-.571-.579-1.138-1.149-1.719-1.719-.332-.332-.664-.671-1-1-.332-.332-.664-.671-1-1-.332-.332-.664-.671-1-1-.214-.214-.44-.412-.656-.625-.077-.08-.141-.171-.219-.25-.042-.041-.083-.084-.125-.125-.084-.084-.166-.167-.25-.25-.571-.579-1.138-1.149-1.719-1.719-.332-.332-.664-.671-1-1-.332-.332-.664-.671-1-1-.332-.332-.664-.671-1-1-.182-.182-.38-.35-.563-.531-.031-.032-.063-.062-.094-.094-.077-.081-.142-.17-.219-.25-.042-.041-.083-.084-.125-.125-.214-.214-.44-.412-.656-.625-.077-.08-.142-.17-.219-.25-.042-.041-.083-.084-.125-.125-.324-.324-.641-.648-.969-.969-.332-.332-.664-.671-1-1-.12-.12-.255-.225-.375-.344-.096-.091-.185-.19-.281-.281-.12-.119-.223-.257-.344-.375-.332-.332-.664-.671-1-1-.332-.332-.664-.671-1-1-.214-.214-.44-.412-.656-.625-.077-.08-.141-.171-.219-.25-.042-.041-.083-.084-.125-.125-.084-.084-.166-.167-.25-.25-.571-.579-1.138-1.149-1.719-1.719-.332-.332-.664-.671-1-1-.332-.332-.664-.671-1-1-.332-.332-.664-.671-1-1-.335-.335-.662-.669-1-1l-.156-.156c-24.991-25.418-59.761-41.19-98.19-41.19" fill-opacity=".235"/>
 <g fill-rule="evenodd">
  <path d="m256 1c-140.83 0-255 114.17-255 255s114.17 255 255 255 255-114.17 255-255-114.17-255-255-255m8.827 44.931c120.9 0 218.9 98 218.9 218.9s-98 218.9-218.9 218.9-218.93-98-218.93-218.9 98.03-218.9 218.93-218.9" fill-opacity=".067"/>
  <g fill-opacity=".129">
   <path d="m256 4.433c-138.94 0-251.57 112.63-251.57 251.57s112.63 251.57 251.57 251.57 251.57-112.63 251.57-251.57-112.63-251.57-251.57-251.57m5.885 38.556c120.9 0 218.9 98 218.9 218.9s-98 218.9-218.9 218.9-218.93-98-218.93-218.9 98.03-218.9 218.93-218.9"/>
   <path d="m256 8.356c-136.77 0-247.64 110.87-247.64 247.64s110.87 247.64 247.64 247.64 247.64-110.87 247.64-247.64-110.87-247.64-247.64-247.64m2.942 31.691c120.9 0 218.9 98 218.9 218.9s-98 218.9-218.9 218.9-218.93-98-218.93-218.9 98.03-218.9 218.93-218.9"/>
  </g>
  <path d="m253.04 7.859c-135.42 0-245.19 109.78-245.19 245.19 0 135.42 109.78 245.19 245.19 245.19 135.42 0 245.19-109.78 245.19-245.19 0-135.42-109.78-245.19-245.19-245.19zm0 26.297c120.9 0 218.9 98 218.9 218.9s-98 218.9-218.9 218.9-218.93-98-218.93-218.9 98.03-218.9 218.93-218.9z" fill="#ffffff" stroke="#000000" stroke-opacity=".31" stroke-width="4.904"/>
 </g>
 <path d="m256 118.28c-7.824 0-15.512.681-22.981 1.937-.14.024-.29.019-.43.043-10.186 1.186-20.863 4.101-31.718 9.511-48.601 21.277-82.59 69.814-82.59 126.23 0 76.01 61.709 137.72 137.72 137.72 76.01 0 137.72-61.708 137.72-137.72 0-76.01-61.709-137.72-137.72-137.72m-41.79 35.42s-4.108 12.393 4.218 28.92 20.768 20.635 12.567 45.49l-8.22 24.875s20.645-20.754 24.746-33.18-.129-41.4-.129-41.4 33.15 24.757 29.05 37.18l-4.088 12.394s16.514-8.318 20.614-20.744c4.101-12.426 8.361 16.537 4.261 28.963-2.05 6.214-2.062 6.201-1.549 4.648l-2.582 7.79s16.557-8.361 20.657-20.787c4.101-12.428 8.177-24.832 8.177-24.832s8.318 16.537 4.218 28.963c-4.101 12.427 12.425 4.076 16.526-8.349 4.101-12.426 8.22-24.832 8.22-24.832s.656.677 1.549 1.635c9.762 16.5 15.45 35.481 15.45 55.43 0 60.25-51.644 111.89-111.89 111.89-60.25 0-111.89-51.644-111.89-111.89 0-.391-.004-.772 0-1.162 10.223-17.882 11.93-40.881 12.222-48.46.314-.609.665-1.205.99-1.808 3.916 4.118 19.339 21.232 15.751 32.11l-4.088 12.438s16.514-8.317 20.614-20.744c4.101-12.426-4.23-28.932-.129-41.36 4.101-12.426 24.746-33.18 24.746-33.18m41.788 80.78c-11.855 0-21.518 9.663-21.518 21.518 0 11.856 9.664 21.518 21.518 21.518s21.518-9.663 21.518-21.518-9.664-21.518-21.518-21.518m0 8.607c7.276 0 12.911 5.635 12.911 12.911 0 7.277-5.635 12.911-12.911 12.911s-12.911-5.634-12.911-12.911c0-7.276 5.635-12.911 12.911-12.911" fill="#ffffff"/>
</svg>
