<svg height="512" viewBox="0 0 512 512" width="512" xmlns="http://www.w3.org/2000/svg">
 <path d="m471.95 253.05c0 120.9-98.01 218.9-218.9 218.9-120.9 0-218.9-98.01-218.9-218.9 0-120.9 98.01-218.9 218.9-218.9 120.9 0 218.9 98.01 218.9 218.9" fill="#b0b0b0" fill-rule="evenodd"/>
 <path d="m256 1c-140.83 0-255 114.17-255 255 0 140.83 114.17 255 255 255 140.83 0 255-114.17 255-255 0-140.83-114.17-255-255-255m8.827 44.931c120.9 0 218.9 98 218.9 218.9 0 120.9-98 218.9-218.9 218.9-120.9 0-218.93-98-218.93-218.9 0-120.9 98.03-218.9 218.93-218.9" fill-opacity=".067" fill-rule="evenodd"/>
 <g fill-opacity=".129" fill-rule="evenodd">
  <path d="m256 4.433c-138.94 0-251.57 112.63-251.57 251.57 0 138.94 112.63 251.57 251.57 251.57 138.94 0 251.57-112.63 251.57-251.57 0-138.94-112.63-251.57-251.57-251.57m5.885 38.556c120.9 0 218.9 98 218.9 218.9 0 120.9-98 218.9-218.9 218.9-120.9 0-218.93-98-218.93-218.9 0-120.9 98.03-218.9 218.93-218.9"/>
  <path d="m256 8.356c-136.77 0-247.64 110.87-247.64 247.64 0 136.77 110.87 247.64 247.64 247.64 136.77 0 247.64-110.87 247.64-247.64 0-136.77-110.87-247.64-247.64-247.64m2.942 31.691c120.9 0 218.9 98 218.9 218.9 0 120.9-98 218.9-218.9 218.9-120.9 0-218.93-98-218.93-218.9 0-120.9 98.03-218.9 218.93-218.9"/>
 </g>
 <path d="m160.50086 112.28969c-.503.016-1.042.061-1.625.156l18.09 18.09h-.01l-18.09-18.09c-2.331.38-5.154 1.185-8.498 2.813l-.002-.002c-6.762 3-14.448 12.05-14.12 24.313v244.09l18.07 18.07h-.01l-18.06-18.06c0 6.02 2.01 10.03 4.682 12.709l.021.021 73.55 73.55c11.813 1.972 23.94 3.02 36.31 3.02 120.9 0 218.91-98.01 218.91-218.91 0-16.71-1.88-32.98-5.426-48.617l-92.99-92.99h-207.94c-.284.014-1.361-.204-2.865-.156l-.004-.004" opacity=".25"/>
 <path d="m160.50086 112.28969c-.503.016-1.042.061-1.625.156-2.332.38-5.155 1.185-8.5 2.813-6.762 3-14.45 12.05-14.12 24.313v244.09c0 18.08 18.09 18.06 18.09 18.06h216.97v-253.12h-18.09v-18.06h18.09v-18.09h-207.94c-.285.014-1.365-.205-2.875-.156m1.906 18.16c.624-.013.955.134.969.094h171.78v18.06h-171.78c-.108 0-.82-.418-1.688-.563-1.591-.253-3.792-1.111-5.094-2.25-1.23-1.211-2.105-1.699-2.25-6.219.289-5.858 1.654-6.383 3.969-7.938 1.157-.597 2.326-.944 3.375-1.125v.031c.267-.045.511-.089.719-.094m97.41 67.16c14.188 0 26.874 2.915 38.03 8.719 11.157 5.804 19.781 14.04 25.844 24.75 6.06 10.706 9.09 23.07 9.09 37.06 0 9.287-1.502 17.792-4.469 25.531-2.967 7.739-7.145 13.773-12.563 18.09-5.418 4.321-11.716 6.469-18.875 6.469-4.773 0-9.04-1.118-12.781-3.375-3.676-2.322-6.265-5.353-7.813-9.09h-1.563c-3.16 3.87-6.986 6.93-11.5 9.188-4.515 2.193-9.547 3.281-15.09 3.281-11.415 0-20.422-3.414-27-10.25-6.578-6.901-9.875-16.29-9.875-28.16 0-13.479 4.268-24.397 12.781-32.781 8.577-8.384 19.938-12.562 34.06-12.563 5.224 0 11.257.499 18.09 1.531 6.836.968 12.398 2.234 16.719 3.781l-2.219 47.31c0 9.03 2.442 13.531 7.344 13.531 4.127 0 7.424-3 9.875-9 2.451-6.06 3.687-13.949 3.688-23.688 0-10.383-2.179-19.536-6.5-27.469-4.257-7.997-10.32-14.12-18.19-18.313-7.804-4.256-16.75-6.375-26.875-6.375-12.963 0-24.295 2.708-33.969 8.125-9.674 5.418-17.06 13.158-22.16 23.22-5.095 10.06-7.625 21.687-7.625 34.844 0 17.865 4.738 31.549 14.219 41.09 9.545 9.48 23.348 14.219 41.41 14.219 7.223 0 14.964-.794 23.22-2.406 8.255-1.612 16.08-3.821 23.5-6.594v18.688c-13.673 5.804-29.01 8.687-45.969 8.688-24.507 0-43.607-6.445-57.34-19.344-13.673-12.899-20.531-30.822-20.531-53.781 0-15.93 3.533-30.41 10.563-43.44 7.094-13.03 17.13-23.18 30.09-30.469 12.963-7.352 27.736-11.03 44.38-11.03m-.563 54.47c-8.06 0-14.361 2.501-18.875 7.531-4.45 5.03-6.656 11.919-6.656 20.625 0 13.608 5.532 20.406 16.625 20.406 5.74 0 10.125-2.031 13.156-6.094 3.096-4.127 4.98-10.838 5.625-20.12l1.25-21.375c-2.967-.645-6.675-.969-11.125-.969" fill="#ffffff"/>
 <path d="m253.04 7.859c-135.42 0-245.19 109.78-245.19 245.19 0 135.42 109.78 245.19 245.19 245.19 135.42 0 245.19-109.78 245.19-245.19 0-135.42-109.78-245.19-245.19-245.19zm0 26.297c120.9 0 218.9 98 218.9 218.9 0 120.9-98 218.9-218.9 218.9-120.9 0-218.93-98-218.93-218.9 0-120.9 98.03-218.9 218.93-218.9z" fill="#ffffff" fill-rule="evenodd" stroke="#000000" stroke-opacity=".31" stroke-width="4.904"/>
</svg>
