<svg height="512" viewBox="0 0 512 512" width="512" xmlns="http://www.w3.org/2000/svg">
 <g transform="translate(0 -540.36)">
  <g fill-rule="evenodd">
   <path d="m471.95 793.41c0 120.9-98.01 218.9-218.9 218.9-120.9 0-218.9-98.01-218.9-218.9 0-120.9 98.01-218.9 218.9-218.9 120.9 0 218.9 98.01 218.9 218.9" fill="#b0b0b0"/>
   <path d="m256 541.36c-140.83 0-255 114.17-255 255s114.17 255 255 255 255-114.17 255-255-114.17-255-255-255m8.827 44.931c120.9 0 218.9 98 218.9 218.9s-98 218.9-218.9 218.9-218.93-98-218.93-218.9 98.03-218.9 218.93-218.9" fill-opacity=".067"/>
   <g fill-opacity=".129">
    <path d="m256 544.79c-138.94 0-251.57 112.63-251.57 251.57s112.63 251.54 251.57 251.54 251.57-112.6 251.57-251.54-112.63-251.57-251.57-251.57m5.885 38.556c120.9 0 218.9 98 218.9 218.9s-98 218.9-218.9 218.9-218.93-98-218.93-218.9 98.03-218.9 218.93-218.9"/>
    <path d="m256 548.72c-136.77 0-247.64 110.87-247.64 247.64s110.87 247.64 247.64 247.64 247.64-110.87 247.64-247.64-110.87-247.64-247.64-247.64m2.942 31.691c120.9 0 218.9 98 218.9 218.9s-98 218.9-218.9 218.9-218.93-98-218.93-218.9 98.03-218.9 218.93-218.9"/>
   </g>
   <path d="m253.04 548.22c-135.42 0-245.19 109.78-245.19 245.19 0 135.42 109.78 245.19 245.19 245.19 135.42 0 245.19-109.78 245.19-245.19 0-135.42-109.78-245.19-245.19-245.19zm0 26.297c120.9 0 218.9 98 218.9 218.9s-98 218.9-218.9 218.9-218.93-98-218.93-218.9 98.03-218.9 218.93-218.9z" fill="#ffffff" stroke="#000000" stroke-opacity=".31" stroke-width="4.904"/>
  </g>
  <path d="m294.62 640.85c-2.504.098-5.335.613-8.618 1.683-6.073 1.829-9.734 5.01-11.804 9.08-2.146 7.04-4.075 10.07-2.83 23.736-23.17 40.738-49.639 70.23-75.67 96.88-77.946 66.886-4.665 3.56-74.46 63.51-5.362 3.809-8.843 8.974-11.239 14.664-9.02 21.663 3.03 39.31 23.26 39.1 13.609 1.788 37.17-3.984 55.759-5.991 21.18 2.636 23.04 18.394 32.889 28.733 9.282 13.958 17.252 37.31 28.351 38.27 10.24 1.553 20.02 3.753 37.988-5.864 1.893-2.151-3.211-6.084-6.731-9.612-1.016-.879-.141-2.562.102-11.779-2.422-3.622-12.06-8.91-13.666-11.957 2.02-7.786-6.63-11.172-12.416-16.19-3.487-9.274-8.293-15.07-13.207-20.422-15.213-22.5 22.257-20.347 62.39-26.592 19.03-2.961 38.959-7.236 58.38-1.606 7.01 2.031 12.02 2.734 18.08 3.697 5.286.84 11.83-3.21 13-5.558 6.305-6.126 8.686-25.671 5.762-38.957-11.1-50.43-36.705-117.95-85.03-157.69-6.537-2.658-11.351-7.488-20.294-7.139m-20.06 57.52c9.333 30.22 13.347 55.23 40.461 96.76 8.628 13.215 18.88 26.42 32.1 39.26-30.845 2.75-61.897.572-91.61 9.561-9.753 2.951-17.831 2.45-26.872-.153-16.805-11.648-23.355-29.514-26.694-49.31 1.663-10.144 5.186-15.465 11.524-22.23 4.746-5.172 9.1-11.409 14.991-16.904 17.09-15.943 31.566-34.588 46.1-56.982m21.824 28.2c26.567 14.919 41.07 45.772 44.18 82.73l-.306 1.428c-21.41-30-32.01-56.866-44.03-84.14l.153-.025" fill="#ffffff" fill-rule="evenodd"/>
 </g>
</svg>
