<svg viewBox="0 0 512 512" xmlns="http://www.w3.org/2000/svg">
 <path d="m471.95 253.05c0 120.9-98.01 218.9-218.9 218.9-120.9 0-218.9-98.01-218.9-218.9 0-120.9 98.01-218.9 218.9-218.9 120.9 0 218.9 98.01 218.9 218.9" fill="#878787" fill-rule="evenodd"/>
 <path d="m447.66 152.78c5.31 10.284 9.821 21.03 13.469 32.19v13.594c0 2.223 1.777 4.03 4 4.03h.969c3.824 16.202 5.844 33.1 5.844 50.47 0 19.659-2.609 38.687-7.469 56.813-1.906.31-3.344 1.938-3.344 3.938v7.313c-4.348 13.3-9.934 26.02-16.625 38.06h-229.75c-4.396 0-7.938-3.541-7.938-7.938v-190.53c0-4.396 3.541-7.938 7.938-7.938h232.91m-271.22 0c4.396 0 7.938 3.541 7.938 7.938v190.53c0 4.396-3.541 7.938-7.938 7.938h-114.87c-17.462-31.438-27.406-67.61-27.406-106.12 0-36.14 8.768-70.24 24.281-100.28h118m259.31 20.75h-11.03c-2.223 0-4.03 1.808-4.03 4.03v21c0 2.223 1.808 4.03 4.03 4.03h11.03c2.223 0 4.03-1.808 4.03-4.03v-21c0-2.223-1.808-4.03-4.03-4.03m-40.41 0h-11.06c-2.223 0-4 1.808-4 4.03v21c0 2.223 1.777 4.03 4 4.03h11.06c2.223 0 4-1.808 4-4.03v-21c0-2.223-1.777-4.03-4-4.03m-40.41 0h-11.06c-2.223 0-4.03 1.808-4.03 4.03v21c0 2.223 1.808 4.03 4.03 4.03h11.06c2.223 0 4-1.808 4-4.03v-21c0-2.223-1.777-4.03-4-4.03m-40.44 0h-11.03c-2.223 0-4.03 1.808-4.03 4.03v21c0 2.223 1.808 4.03 4.03 4.03h11.03c2.223 0 4.03-1.808 4.03-4.03v-21c0-2.223-1.808-4.03-4.03-4.03m-40.41 0h-11.06c-2.223 0-4 1.808-4 4.03v21c0 2.223 1.777 4.03 4 4.03h11.06c2.223 0 4-1.808 4-4.03v-21c0-2.223-1.777-4.03-4-4.03m-40.41 0h-11.06c-2.223 0-4.03 1.808-4.03 4.03v21c0 2.223 1.808 4.03 4.03 4.03h11.06c2.223 0 4-1.808 4-4.03v-21c0-2.223-1.777-4.03-4-4.03m-77.22 0h-11.06c-2.223 0-4 1.808-4 4.03v21c0 2.223 1.777 4.03 4 4.03h11.06c2.223 0 4-1.808 4-4.03v-21c0-2.223-1.777-4.03-4-4.03m-40.41 0h-11.06c-2.223 0-4.03 1.808-4.03 4.03v21c0 2.223 1.808 4.03 4.03 4.03h11.06c2.223 0 4-1.808 4-4.03v-21c0-2.223-1.777-4.03-4-4.03m-40.44 0h-11.06c-2.223 0-4 1.808-4 4.03v21c0 2.223 1.777 4.03 4 4.03h11.06c2.223 0 4.03-1.808 4.03-4.03v-21c0-2.223-1.808-4.03-4.03-4.03m80.84 132.34h-11.06c-2.223 0-4 1.777-4 4v21.03c0 2.223 1.777 4 4 4h11.06c2.223 0 4-1.777 4-4v-21.03c0-2.223-1.777-4-4-4m-40.41 0h-11.06c-2.223 0-4.03 1.777-4.03 4v21.03c0 2.223 1.808 4 4.03 4h11.06c2.223 0 4-1.777 4-4v-21.03c0-2.223-1.777-4-4-4m-40.44 0h-11.06c-2.223 0-4 1.777-4 4v21.03c0 2.223 1.777 4 4 4h11.06c2.223 0 4.03-1.777 4.03-4v-21.03c0-2.223-1.808-4-4.03-4m360.13 3.938h-11.03c-2.223 0-4.03 1.777-4.03 4v21.03c0 2.223 1.808 4 4.03 4h11.03c2.223 0 4.03-1.777 4.03-4v-21.03c0-2.223-1.808-4-4.03-4m-40.41 0h-11.06c-2.223 0-4 1.777-4 4v21.03c0 2.223 1.777 4 4 4h11.06c2.223 0 4-1.777 4-4v-21.03c0-2.223-1.777-4-4-4m-40.41 0h-11.06c-2.223 0-4.03 1.777-4.03 4v21.03c0 2.223 1.808 4 4.03 4h11.06c2.223 0 4-1.777 4-4v-21.03c0-2.223-1.777-4-4-4m-40.44 0h-11.03c-2.223 0-4.03 1.777-4.03 4v21.03c0 2.223 1.808 4 4.03 4h11.03c2.223 0 4.03-1.777 4.03-4v-21.03c0-2.223-1.808-4-4.03-4m-40.41 0h-11.06c-2.223 0-4 1.777-4 4v21.03c0 2.223 1.777 4 4 4h11.06c2.223 0 4-1.777 4-4v-21.03c0-2.223-1.777-4-4-4m-40.41 0h-11.06c-2.223 0-4.03 1.777-4.03 4v21.03c0 2.223 1.808 4 4.03 4h11.06c2.223 0 4-1.777 4-4v-21.03c0-2.223-1.777-4-4-4" fill="#ffffff" fill-rule="evenodd" opacity="1"/>
 <path d="m256 1c-140.83 0-255 114.17-255 255 0 140.83 114.17 255 255 255 140.83 0 255-114.17 255-255 0-140.83-114.17-255-255-255m8.827 44.931c120.9 0 218.9 98 218.9 218.9 0 120.9-98 218.9-218.9 218.9-120.9 0-218.93-98-218.93-218.9 0-120.9 98.03-218.9 218.93-218.9" fill-opacity=".067" fill-rule="evenodd"/>
 <g fill-opacity=".129" fill-rule="evenodd">
  <path d="m256 4.433c-138.94 0-251.57 112.63-251.57 251.57 0 138.94 112.63 251.57 251.57 251.57 138.94 0 251.57-112.63 251.57-251.57 0-138.94-112.63-251.57-251.57-251.57m5.885 38.556c120.9 0 218.9 98 218.9 218.9 0 120.9-98 218.9-218.9 218.9-120.9 0-218.93-98-218.93-218.9 0-120.9 98.03-218.9 218.93-218.9"/>
  <path d="m256 8.356c-136.77 0-247.64 110.87-247.64 247.64 0 136.77 110.87 247.64 247.64 247.64 136.77 0 247.64-110.87 247.64-247.64 0-136.77-110.87-247.64-247.64-247.64m2.942 31.691c120.9 0 218.9 98 218.9 218.9 0 120.9-98 218.9-218.9 218.9-120.9 0-218.93-98-218.93-218.9 0-120.9 98.03-218.9 218.93-218.9"/>
 </g>
 <path d="m253.04 7.859c-135.42 0-245.19 109.78-245.19 245.19 0 135.42 109.78 245.19 245.19 245.19 135.42 0 245.19-109.78 245.19-245.19 0-135.42-109.78-245.19-245.19-245.19zm0 26.297c120.9 0 218.9 98 218.9 218.9 0 120.9-98 218.9-218.9 218.9-120.9 0-218.93-98-218.93-218.9 0-120.9 98.03-218.9 218.93-218.9z" fill="#ffffff" fill-rule="evenodd" stroke="#000000" stroke-opacity=".31" stroke-width="4.904"/>
 <path d="m144.53 98.17v315.66l50.27 50.27c18.547 5.107 38.08 7.848 58.25 7.848 100.91 0 185.87-68.29 211.2-161.19l-212.59-212.59h-107.12" fill-rule="evenodd" opacity=".25"/>
 <path d="m144.53 98.17v315.66h107.13v-315.66h-107.12" fill="#ffffff" fill-rule="evenodd" opacity="1"/>
</svg>
