<svg viewBox="0 0 512 512" xmlns="http://www.w3.org/2000/svg">
 <g fill-rule="evenodd">
  <path d="m471.95 253.05c0 120.9-98.01 218.91-218.91 218.91s-218.91-98.01-218.91-218.91 98.01-218.91 218.91-218.91 218.91 98.01 218.91 218.91" fill="#878787"/>
  <path d="m256 1c-140.83 0-255 114.17-255 255s114.17 255 255 255 255-114.17 255-255-114.17-255-255-255m8.827 44.931c120.9 0 218.9 98 218.9 218.9s-98 218.9-218.9 218.9-218.93-98-218.93-218.9 98.03-218.9 218.93-218.9" fill-opacity=".067"/>
  <g fill-opacity=".129" transform="translate(0 -540.36)">
   <path d="m256 544.79c-138.94 0-251.57 112.63-251.57 251.57s112.63 251.57 251.57 251.57 251.57-112.63 251.57-251.57-112.63-251.57-251.57-251.57m5.885 38.556c120.9 0 218.9 98 218.9 218.9s-98 218.9-218.9 218.9-218.93-98-218.93-218.9 98.03-218.9 218.93-218.9"/>
   <path d="m256 548.72c-136.77 0-247.64 110.87-247.64 247.64s110.87 247.64 247.64 247.64 247.64-110.87 247.64-247.64-110.87-247.64-247.64-247.64m2.942 31.691c120.9 0 218.9 98 218.9 218.9s-98 218.9-218.9 218.9-218.93-98-218.93-218.9 98.03-218.9 218.93-218.9"/>
  </g>
  <path d="m253.04 7.86c-135.42 0-245.19 109.78-245.19 245.19 0 135.42 109.78 245.19 245.19 245.19 135.42 0 245.19-109.78 245.19-245.19 0-135.42-109.78-245.19-245.19-245.19m0 26.297c120.9 0 218.9 98 218.9 218.9s-98 218.9-218.9 218.9-218.93-98-218.93-218.9 98.03-218.9 218.93-218.9z" fill="#ffffff" stroke="#000000" stroke-opacity=".31" stroke-width="4.904"/>
 </g>
 <path d="m126.81 109.53c-.403 0-.81.153-1.094.438l-11.375 11.406c-.596.596-.596 1.559 0 2.156l15.813 15.844-4.375 4.406c-.993.993-1.165 2.518-.438 3.719l27.969 46.09c-4.666 8.01-8.396 16.54-11.09 25.5l-51.53 10.75c-1.411.294-2.406 1.527-2.406 2.969v33.31c0 .827.331 1.584.881 2.135l54.938 54.938-20.787 31.709c-.789 1.208-.611 2.821.406 3.844l112.58 112.58c5.526.418 11.11.633 16.742.633 93.92 0 174.02-59.16 205.09-142.24l-139.72-139.72c-15.769-15.769-37.509-25.561-61.51-25.561-5.5 0-10.886.527-16.12 1.523l-23.883-23.883c-.091-.091-.196-.17-.314-.234-.388-.208-.869-.272-1.281-.125-5.936 2.146-11.593 4.754-17 7.75-.075-.057-.14-.14-.219-.188l-44.969-29.438c-1.208-.791-2.79-.645-3.813.375l-5.594 5.594-15.844-15.844c-.286-.286-.656-.438-1.063-.438" opacity=".25"/>
 <path d="m126.81 109.53c-.403 0-.81.153-1.094.438l-11.375 11.406c-.596.596-.596 1.559 0 2.156l15.813 15.844-4.375 4.406c-.993.993-1.165 2.518-.438 3.719l27.969 46.09c-4.666 8.01-8.396 16.54-11.09 25.5l-51.53 10.75c-1.411.294-2.406 1.527-2.406 2.969v33.31c0 1.403.95 2.604 2.313 2.938l50.06 12.25c2.566 10.424 6.497 20.272 11.625 29.406l-28.969 44.19c-.789 1.208-.611 2.821.406 3.844l23.531 23.531c.993.995 2.52 1.196 3.719.469l45.19-27.438c8.532 4.97 17.732 8.9 27.438 11.625l10.5 50.44c.292 1.417 1.527 2.438 2.969 2.438h33.28c1.403 0 2.636-.986 2.969-2.344l12.219-50.03c10.289-2.717 20.11-6.787 29.22-12.06l43.656 28.625c1.205.793 2.819.647 3.844-.375l6.094-6.094 15.344 15.344c.601.598 1.56.598 2.156 0l11.406-11.375c.594-.594.594-1.56 0-2.156l-15.375-15.375 3.906-3.906c.993-.995 1.17-2.525.438-3.719l-27.5-45.34c3.059-5.423 5.684-11.11 7.875-17.06.147-.399.162-.874-.031-1.25-.197-.38-.554-.635-.969-.75l-14.25-3.938c-14.518 38.23-51.33 65.47-94.44 65.47-55.42 0-101.06-45.627-101.06-101.66 0-42.796 27.02-79.7 64.69-94.47l-3.219-14.5c-.093-.428-.335-.79-.719-1-.388-.208-.869-.272-1.281-.125-5.936 2.146-11.593 4.754-17 7.75-.075-.057-.14-.14-.219-.188l-44.969-29.438c-1.208-.791-2.79-.645-3.813.375l-5.594 5.594-15.844-15.844c-.286-.286-.656-.438-1.063-.438m130.09 54.906c-47.791 0-87.16 39.4-87.16 87.41 0 48.32 39.36 87.69 87.16 87.69 48.13 0 87.19-39.37 87.19-87.69 0-48.01-39.05-87.41-87.19-87.41m-31.156 43.781a7.4505 7.5521 0 0 1 .53125 0 7.4505 7.5521 0 0 1 3.5625.96875l31.13 17.75a7.4505 7.5521 0 0 1 .15625.0937l30.75 18.438a7.4505 7.5521 0 0 1 0 13.031l-30.75 18.438a7.4505 7.5521 0 0 1 -.15625.0937l-31.12 17.75a7.4505 7.5521 0 0 1 -11.094-6.5l-.438-36.22a7.4505 7.5521 0 0 1 0-.15625l.438-36.22a7.4505 7.5521 0 0 1 7-7.4688" fill="#ffffff"/>
</svg>
