<svg height="512" viewBox="0 0 512 512" width="512" xmlns="http://www.w3.org/2000/svg">
 <path d="m471.95 253.05c0 120.9-98.01 218.9-218.9 218.9-120.9 0-218.9-98.01-218.9-218.9 0-120.9 98.01-218.9 218.9-218.9 120.9 0 218.9 98.01 218.9 218.9" fill="#777777" fill-rule="evenodd"/>
 <path d="m215 131.81c-4.813-.018-14.512 2.561-19.25 5.125-11.615 6.284-19.02 17.764-20.875 32.469-.418 3.324-.629 3.662-3.25 4.5-9.233 2.951-20.71 10.995-32.969 23.13-21.463 21.237-37.01 46.5-43 69.813-2.43 9.45-2.474 23.11-.094 32.75 3.238 13.11 10.122 24.821 19.594 33.938.143.149.293.29.438.438.187.184.373.38.563.563.143.149.293.29.438.438.251.247.495.507.75.75l.156.156c.031.032.063.062.094.094.184.181.376.352.563.531.148.154.288.316.438.469.184.181.376.352.563.531.147.153.29.317.438.469.181.178.349.356.531.531.144.15.292.288.438.438.191.188.369.376.563.563.143.149.293.29.438.438.187.184.373.38.563.563.143.149.293.29.438.438.251.247.495.507.75.75l.156.156c.031.032.063.062.094.094.184.181.376.352.563.531.148.154.288.316.438.469.184.181.376.352.563.531.147.153.29.317.438.469.184.181.376.352.563.531.139.145.266.294.406.438.191.188.369.376.563.563.143.149.293.29.438.438.187.184.373.38.563.563.143.149.293.29.438.438.187.184.373.38.563.563.143.149.293.29.438.438.251.247.495.507.75.75l.156.156c.031.032.063.062.094.094.184.181.376.352.563.531.147.153.29.317.438.469.184.181.376.352.563.531.143.149.293.29.438.438.254.25.493.504.75.75.077.08.141.171.219.25.189.186.371.378.563.563.143.149.293.29.438.438.187.184.373.38.563.563.143.149.293.29.438.438.251.247.495.507.75.75l.156.156c.031.032.063.062.094.094.184.181.376.352.563.531.148.154.288.316.438.469.184.181.376.352.563.531.147.153.29.317.438.469.181.178.349.356.531.531.143.149.293.29.438.438.191.188.369.376.563.563.143.149.293.29.438.438.187.184.373.38.563.563.143.149.293.29.438.438.251.247.495.507.75.75l.156.156c.031.032.063.062.094.094.184.181.376.352.563.531.148.154.288.316.438.469.184.181.376.352.563.531.147.153.29.317.438.469.184.181.376.352.563.531.139.145.266.294.406.438.191.188.369.376.563.563.143.149.293.29.438.438.187.184.373.38.563.563.143.149.293.29.438.438.251.247.495.507.75.75l.156.156c.031.032.063.062.094.094.184.181.376.352.563.531.148.154.288.316.438.469.184.181.376.352.563.531.147.153.29.317.438.469.184.181.376.352.563.531.139.145.266.294.406.438.191.188.369.376.563.563.143.149.293.29.438.438.187.184.373.38.563.563.143.149.293.29.438.438.187.184.373.38.563.563.143.149.293.29.438.438.251.247.495.507.75.75l.156.156c.031.032.063.062.094.094.184.181.376.352.563.531.148.154.288.316.438.469.184.181.376.352.563.531.147.153.29.317.438.469.181.178.349.356.531.531.143.149.293.29.438.438.191.188.369.376.563.563.143.149.293.29.438.438.187.184.373.38.563.563.143.149.293.29.438.438.251.247.495.507.75.75l.156.156c.031.032.063.062.094.094.184.181.376.352.563.531.148.154.288.316.438.469.184.181.376.352.563.531.147.153.29.317.438.469.181.178.349.356.531.531.144.15.292.288.438.438.191.188.369.376.563.563.143.149.293.29.438.438.187.184.373.38.563.563.143.149.293.29.438.438.251.247.495.507.75.75l.156.156c.031.032.063.062.094.094.184.181.376.352.563.531.148.154.288.316.438.469.184.181.376.352.563.531.147.153.29.317.438.469.184.181.376.352.563.531.139.145.266.294.406.438.191.188.369.376.563.563.143.149.293.29.438.438.187.184.373.38.563.563.143.149.293.29.438.438.282.277.557.571.844.844.031.031.062.063.094.094.021.021.042.041.063.063.184.181.376.352.563.531.148.154.288.316.438.469.184.181.376.352.563.531.147.153.29.317.438.469.184.181.376.352.563.531.143.149.293.29.438.438.186.183.343.382.531.563.068.068.151.12.219.188.077.08.141.171.219.25.189.186.371.378.563.563.143.149.293.29.438.438.187.184.373.38.563.563.143.149.293.29.438.438.251.247.495.507.75.75l.156.156c.031.032.063.062.094.094.184.181.376.352.563.531.148.154.288.316.438.469.184.181.376.352.563.531.147.153.29.317.438.469.181.178.349.356.531.531.143.149.293.29.438.438.191.188.369.376.563.563.143.149.293.29.438.438.187.184.373.38.563.563.143.149.293.29.438.438.251.247.495.507.75.75l.156.156c.031.032.063.062.094.094.184.181.376.352.563.531.148.154.288.316.438.469.184.181.376.352.563.531.147.153.29.317.438.469.184.181.376.352.563.531.139.145.266.294.406.438.191.188.369.376.563.563.143.149.293.29.438.438.187.184.373.38.563.563.143.149.293.29.438.438.251.247.495.507.75.75l.156.156c.031.032.063.062.094.094.184.181.376.352.563.531.148.154.288.316.438.469.184.181.376.352.563.531.147.153.29.317.438.469.184.181.376.352.563.531.139.145.266.294.406.438.191.188.369.376.563.563.143.149.293.29.438.438.187.184.373.38.563.563.143.149.293.29.438.438.187.184.373.38.563.563.143.149.293.29.438.438.251.247.495.507.75.75l.156.156c.031.032.063.062.094.094.184.181.376.352.563.531.148.154.288.316.438.469.184.181.376.352.563.531.143.149.293.29.438.438.254.25.493.504.75.75.077.08.141.171.219.25.189.186.371.378.563.563.143.149.293.29.438.438.187.184.373.38.563.563.143.149.293.29.438.438.251.247.495.507.75.75l.156.156c.031.032.063.062.094.094.184.181.376.352.563.531.148.154.288.316.438.469.184.181.376.352.563.531.147.153.29.317.438.469.181.178.349.356.531.531.144.15.292.288.438.438.191.188.369.376.563.563.143.149.293.29.438.438.187.184.373.38.563.563.143.149.293.29.438.438.251.247.495.507.75.75l.156.156c.031.032.063.062.094.094.184.181.376.352.563.531.148.154.288.316.438.469.184.181.376.352.563.531.147.153.29.317.438.469.184.181.376.352.563.531.139.145.266.294.406.438.191.188.369.376.563.563.143.149.293.29.438.438.187.184.373.38.563.563.143.149.293.29.438.438.282.277.557.571.844.844.031.031.062.063.094.094.021.021.042.041.063.063.184.181.376.352.563.531.148.154.288.316.438.469.184.181.376.352.563.531.147.153.29.317.438.469.184.181.376.352.563.531.143.149.293.29.438.438.254.25.493.504.75.75.077.08.141.171.219.25.189.186.371.378.563.563.143.149.293.29.438.438.187.184.373.38.563.563.143.149.293.29.438.438.251.247.495.507.75.75l.156.156c.031.032.063.062.094.094.184.181.376.352.563.531.148.154.288.316.438.469.184.181.376.352.563.531.147.153.29.317.438.469.181.178.349.356.531.531.143.149.293.29.438.438.191.188.369.376.563.563.143.149.293.29.438.438.187.184.373.38.563.563.143.149.293.29.438.438.251.247.495.507.75.75l.156.156c.031.032.063.062.094.094.184.181.376.352.563.531.148.154.288.316.438.469.184.181.376.352.563.531.147.153.29.317.438.469.184.181.376.352.563.531.139.145.266.294.406.438.191.188.369.376.563.563.143.149.293.29.438.438.187.184.373.38.563.563.143.149.293.29.438.438.251.247.495.507.75.75l.156.156c.031.032.063.062.094.094.184.181.376.352.563.531.148.154.288.316.438.469.184.181.376.352.563.531.147.153.29.317.438.469.184.181.376.352.563.531.139.145.266.294.406.438.191.188.369.376.563.563.143.149.293.29.438.438.187.184.373.38.563.563.143.149.293.29.438.438.187.184.373.38.563.563.143.149.293.29.438.438.251.247.495.507.75.75l.156.156c.031.032.063.062.094.094.184.181.376.352.563.531.147.153.29.317.438.469.184.181.376.352.563.531.143.149.293.29.438.438.254.25.493.504.75.75.077.08.141.171.219.25.189.186.371.378.563.563.143.149.293.29.438.438.187.184.373.38.563.563.143.149.293.29.438.438.251.247.495.507.75.75l.156.156c.031.032.063.062.094.094.184.181.376.352.563.531.148.154.288.316.438.469.184.181.376.352.563.531.147.153.29.317.438.469.181.178.349.356.531.531.144.15.292.288.438.438.191.188.369.376.563.563.143.149.293.29.438.438.187.184.373.38.563.563.041.043.083.083.125.125 108.89-.274 199.09-80.08 215.63-184.37-.184-.188-.365-.38-.563-.563-.016-.016-.046-.015-.063-.031-.086-.08-.163-.171-.25-.25-.385-.406-.753-.83-1.156-1.219-.485-.504-.987-.993-1.5-1.469-.328-.328-.659-.684-1-1-.328-.328-.659-.684-1-1-.338-.338-.649-.675-1-1-.016-.016-.046-.015-.063-.031-.086-.08-.163-.171-.25-.25-.385-.406-.753-.83-1.156-1.219-.485-.504-.987-.993-1.5-1.469-.328-.328-.659-.684-1-1-.328-.328-.659-.684-1-1-.338-.338-.649-.675-1-1-.016-.016-.046-.015-.063-.031-.086-.08-.163-.171-.25-.25-.385-.406-.753-.83-1.156-1.219-.485-.504-.987-.993-1.5-1.469-.328-.328-.659-.684-1-1-.328-.328-.659-.684-1-1-.338-.338-.649-.675-1-1-.1-.101-.211-.182-.313-.281-.385-.406-.753-.83-1.156-1.219-.485-.504-.987-.993-1.5-1.469-.328-.328-.659-.684-1-1-.328-.328-.659-.684-1-1-.307-.307-.62-.61-.938-.906-.025-.027-.038-.067-.063-.094-.338-.338-.649-.675-1-1-.016-.016-.046-.015-.063-.031-.086-.08-.163-.171-.25-.25-.385-.406-.753-.83-1.156-1.219-.485-.504-.987-.993-1.5-1.469-.328-.328-.659-.684-1-1-.328-.328-.659-.684-1-1-.338-.338-.649-.675-1-1-.016-.016-.046-.015-.063-.031-.086-.08-.163-.171-.25-.25-.385-.406-.753-.83-1.156-1.219-.485-.504-.987-.993-1.5-1.469-.328-.328-.659-.684-1-1-.328-.328-.659-.684-1-1-.338-.338-.649-.675-1-1-.1-.101-.211-.182-.313-.281-.385-.406-.753-.83-1.156-1.219-.485-.504-.987-.993-1.5-1.469-.328-.328-.659-.684-1-1-.328-.328-.659-.684-1-1-.026-.026-.067-.036-.094-.063-.157-.145-.309-.295-.469-.438-.132-.127-.241-.281-.375-.406-.025-.027-.038-.067-.063-.094-.338-.338-.649-.675-1-1-.016-.016-.046-.015-.063-.031-.086-.08-.163-.171-.25-.25-.385-.406-.753-.83-1.156-1.219-.485-.504-.987-.993-1.5-1.469-.328-.328-.659-.684-1-1-.328-.328-.659-.684-1-1-.338-.338-.649-.675-1-1-.016-.016-.046-.015-.063-.031-.086-.08-.163-.171-.25-.25-.385-.406-.753-.83-1.156-1.219-.485-.504-.987-.993-1.5-1.469-.328-.328-.659-.684-1-1-.328-.328-.659-.684-1-1-.338-.338-.649-.675-1-1-.016-.016-.046-.015-.063-.031-.086-.08-.163-.171-.25-.25-.385-.406-.753-.83-1.156-1.219-.485-.504-.987-.993-1.5-1.469-.328-.328-.659-.684-1-1-.328-.328-.659-.684-1-1-.338-.338-.649-.675-1-1-.1-.101-.211-.182-.313-.281-.385-.406-.753-.83-1.156-1.219-.485-.504-.987-.993-1.5-1.469-.328-.328-.659-.684-1-1-.328-.328-.659-.684-1-1-.026-.026-.067-.036-.094-.063-.157-.145-.309-.295-.469-.438-.132-.127-.241-.281-.375-.406-.025-.027-.038-.067-.063-.094-.338-.338-.649-.675-1-1-.016-.016-.046-.015-.063-.031-.086-.08-.163-.171-.25-.25-.385-.406-.753-.83-1.156-1.219-.485-.504-.987-.993-1.5-1.469-.328-.328-.659-.684-1-1-.328-.328-.659-.684-1-1-.338-.338-.649-.675-1-1-.016-.016-.046-.015-.063-.031-.086-.08-.163-.171-.25-.25-.385-.406-.753-.83-1.156-1.219-.485-.504-.987-.993-1.5-1.469-.328-.328-.659-.684-1-1-.328-.328-.659-.684-1-1-.338-.338-.649-.675-1-1-.016-.016-.046-.015-.063-.031-.086-.08-.163-.171-.25-.25-.385-.406-.753-.83-1.156-1.219-.485-.504-.987-.993-1.5-1.469-.328-.328-.659-.684-1-1-.328-.328-.659-.684-1-1-.307-.307-.62-.61-.938-.906-.025-.027-.038-.067-.063-.094-.338-.338-.649-.675-1-1-.016-.016-.046-.015-.063-.031-.086-.08-.163-.171-.25-.25-.385-.406-.753-.83-1.156-1.219-.485-.504-.987-.993-1.5-1.469-.328-.328-.659-.684-1-1-.026-.026-.067-.036-.094-.063-.157-.145-.309-.295-.469-.438-.132-.127-.241-.281-.375-.406-.025-.027-.038-.067-.063-.094-.338-.338-.649-.675-1-1-.016-.016-.046-.015-.063-.031-.086-.08-.163-.171-.25-.25-.385-.406-.753-.83-1.156-1.219-.485-.504-.987-.993-1.5-1.469-.328-.328-.659-.684-1-1-.328-.328-.659-.684-1-1-.338-.338-.649-.675-1-1-.016-.016-.046-.015-.063-.031-.086-.08-.163-.171-.25-.25-.385-.406-.753-.83-1.156-1.219-.485-.504-.987-.993-1.5-1.469-.328-.328-.659-.684-1-1-.328-.328-.659-.684-1-1-.338-.338-.649-.675-1-1-.1-.101-.211-.182-.313-.281-.385-.406-.753-.83-1.156-1.219-.485-.504-.987-.993-1.5-1.469-.328-.328-.659-.684-1-1-.328-.328-.659-.684-1-1-.307-.307-.62-.61-.938-.906-.025-.027-.038-.067-.063-.094-.338-.338-.649-.675-1-1-.016-.016-.046-.015-.063-.031-.086-.08-.163-.171-.25-.25-.385-.406-.753-.83-1.156-1.219-.485-.504-.987-.993-1.5-1.469-.328-.328-.659-.684-1-1-.328-.328-.659-.684-1-1-.338-.338-.649-.675-1-1-.016-.016-.046-.015-.063-.031-.086-.08-.163-.171-.25-.25-.385-.406-.753-.83-1.156-1.219-.485-.504-.987-.993-1.5-1.469-.328-.328-.659-.684-1-1-.328-.328-.659-.684-1-1-.338-.338-.649-.675-1-1-.016-.016-.046-.015-.063-.031-.086-.08-.163-.171-.25-.25-.385-.406-.753-.83-1.156-1.219-.485-.504-.987-.993-1.5-1.469-.328-.328-.659-.684-1-1-.328-.328-.659-.684-1-1-.338-.338-.649-.675-1-1-.338-.338-.649-.675-1-1-.016-.016-.046-.015-.063-.031-.086-.08-.163-.171-.25-.25-.385-.406-.753-.83-1.156-1.219-.485-.504-.987-.993-1.5-1.469-.328-.328-.659-.684-1-1-.307-.307-.62-.61-.938-.906-.025-.027-.038-.067-.063-.094-.338-.338-.649-.675-1-1-.016-.016-.046-.015-.063-.031-.086-.08-.163-.171-.25-.25-.385-.406-.753-.83-1.156-1.219-.485-.504-.987-.993-1.5-1.469-.328-.328-.659-.684-1-1-.328-.328-.659-.684-1-1-.338-.338-.649-.675-1-1-4.955-4.959-11.321-8.521-18.938-10.469-7.03-1.797-11.1-1.86-18.313-.344-13.566 2.853-24.806 12.785-29.563 25.656-.247-.24-.497-.485-.75-.719-.047-.046-.078-.11-.125-.156-.319-.334-.67-.677-1-1-.328-.342-.661-.669-1-1-.328-.342-.661-.669-1-1-.328-.342-.661-.669-1-1-.328-.342-.661-.669-1-1-.072-.075-.147-.144-.219-.219-.258-.248-.517-.508-.781-.75-.076-.079-.142-.171-.219-.25-.101-.098-.21-.185-.313-.281-.149-.151-.286-.32-.438-.469-.081-.084-.168-.166-.25-.25-.189-.182-.37-.353-.563-.531-.067-.067-.12-.152-.188-.219-.328-.342-.661-.669-1-1-.328-.342-.661-.669-1-1-.328-.342-.661-.669-1-1-.072-.075-.147-.144-.219-.219-.258-.248-.517-.508-.781-.75-.076-.079-.142-.171-.219-.25-.101-.098-.21-.185-.313-.281-.149-.151-.286-.32-.438-.469-.081-.084-.168-.166-.25-.25-.043-.042-.082-.084-.125-.125-7.562-7.704-18.14-12.551-29.375-12.594" fill-opacity=".235"/>
 <g fill-rule="evenodd">
  <path d="m256 1c-140.83 0-255 114.17-255 255s114.17 255 255 255 255-114.17 255-255-114.17-255-255-255m8.827 44.931c120.9 0 218.9 98 218.9 218.9s-98 218.9-218.9 218.9-218.93-98-218.93-218.9 98.03-218.9 218.93-218.9" fill-opacity=".067"/>
  <g fill-opacity=".129">
   <path d="m256 4.433c-138.94 0-251.57 112.63-251.57 251.57s112.63 251.57 251.57 251.57 251.57-112.63 251.57-251.57-112.63-251.57-251.57-251.57m5.885 38.556c120.9 0 218.9 98 218.9 218.9s-98 218.9-218.9 218.9-218.93-98-218.93-218.9 98.03-218.9 218.93-218.9"/>
   <path d="m256 8.356c-136.77 0-247.64 110.87-247.64 247.64s110.87 247.64 247.64 247.64 247.64-110.87 247.64-247.64-110.87-247.64-247.64-247.64m2.942 31.691c120.9 0 218.9 98 218.9 218.9s-98 218.9-218.9 218.9-218.93-98-218.93-218.9 98.03-218.9 218.93-218.9"/>
  </g>
  <path d="m253.04 7.859c-135.42 0-245.19 109.78-245.19 245.19 0 135.42 109.78 245.19 245.19 245.19 135.42 0 245.19-109.78 245.19-245.19 0-135.42-109.78-245.19-245.19-245.19zm0 26.297c120.9 0 218.9 98 218.9 218.9s-98 218.9-218.9 218.9-218.93-98-218.93-218.9 98.03-218.9 218.93-218.9z" fill="#ffffff" stroke="#000000" stroke-opacity=".31" stroke-width="4.904"/>
 </g>
 <path d="m214.99 131.81c-4.813-.018-14.51 2.553-19.248 5.117-11.615 6.284-19 17.79-20.85 32.495-.418 3.324-.655 3.658-3.276 4.495-9.233 2.951-20.69 10.992-32.949 23.12-21.463 21.237-37.02 46.48-43.02 69.795-2.43 9.45-2.476 23.12-.096 32.758 5.757 23.311 23.09 42.18 45.861 49.949 4.108 1.402 9.698 2.866 12.434 3.252 22.279 3.141 44.34-3.981 60.09-19.391 6.345-6.211 10.83-12.205 14.322-19.13 2.803-5.558 5.964-16.09 6.48-21.615.246-2.633.695-4.782 1-4.782.309 0 2.402.856 4.663 1.889 9.109 4.164 22.08 4.156 31.16 0 2.274-1.041 4.377-1.889 4.686-1.889s.782 2.149 1.028 4.782c.516 5.522 3.652 16.06 6.456 21.615 5.624 11.15 16.312 22.692 26.828 28.98 13.283 7.942 29.725 11.559 44.689 9.803 29.811-3.498 54.09-24.717 61.19-53.46 2.38-9.639 2.358-23.308-.072-32.758-5.994-23.313-21.576-48.558-43.04-69.795-12.259-12.13-23.692-20.17-32.925-23.12-2.621-.838-2.857-1.171-3.276-4.495-2.371-18.836-13.267-31.676-30.677-36.13-7.03-1.797-11.11-1.875-18.316-.359-15.563 3.274-28.03 15.889-31.2 31.538l-.98 4.758-.885-4.734c-3.513-18.488-20.846-32.613-40.07-32.686m40.767 100.95c2.897-.063 5.838.531 8.656 1.865 15.333 7.261 15.862 28.681.885 36.01-14.14 6.92-29.62-2.633-29.553-18.244.047-11.03 9.667-19.406 20.01-19.631m-91.2.024c14.341 0 25.649 4.793 35.985 15.231 7.171 7.241 11.05 13.917 13.39 23.03 1.632 6.362 1.64 17.984 0 24.1-4.825 18-18.868 32.2-36.32 36.727-4.988 1.293-15.572 2.049-19.559 1.411-20.934-3.35-37.709-18.12-42.872-37.755-1.714-6.517-1.761-17.979-.096-24.484 2.303-8.997 6.28-15.773 13.486-23.03 5.275-5.31 7.783-7.199 13.03-9.756 8.55-4.165 14.05-5.476 22.954-5.476m182.87 0c14.321 0 25.628 4.782 36.01 15.231 10.34 10.408 14.76 21.03 14.705 35.27-.035 8.92-1.596 15.183-5.81 23.337-6.124 11.849-18.716 21.853-31.777 25.23-5.05 1.304-15.631 2.075-19.631 1.435-25.91-4.146-44.01-24.659-44.12-49.997-.059-14.222 4.371-24.905 14.633-35.27 5.289-5.34 7.759-7.194 13.03-9.756 8.559-4.159 14.06-5.476 22.954-5.476" fill="#ffffff"/>
</svg>
