<svg viewBox="0 0 512 512" xmlns="http://www.w3.org/2000/svg">
 <g fill-rule="evenodd">
  <path d="m471.95 253.05c0 120.9-98.01 218.91-218.91 218.91s-218.91-98.01-218.91-218.91 98.01-218.91 218.91-218.91 218.91 98.01 218.91 218.91" fill="#b0b0b0"/>
  <path d="m256 1c-140.83 0-255 114.17-255 255s114.17 255 255 255 255-114.17 255-255-114.17-255-255-255m8.827 44.931c120.9 0 218.9 98 218.9 218.9s-98 218.9-218.9 218.9-218.93-98-218.93-218.9 98.03-218.9 218.93-218.9" fill-opacity=".067"/>
  <g fill-opacity=".129">
   <path d="m256 4.43c-138.94 0-251.57 112.63-251.57 251.57s112.63 251.57 251.57 251.57 251.57-112.63 251.57-251.57-112.63-251.57-251.57-251.57m5.885 38.556c120.9 0 218.9 98 218.9 218.9s-98 218.9-218.9 218.9-218.93-98-218.93-218.9 98.03-218.9 218.93-218.9"/>
   <path d="m256 8.36c-136.77 0-247.64 110.87-247.64 247.64s110.87 247.64 247.64 247.64 247.64-110.87 247.64-247.64-110.87-247.64-247.64-247.64m2.942 31.691c120.9 0 218.9 98 218.9 218.9s-98 218.9-218.9 218.9-218.93-98-218.93-218.9 98.03-218.9 218.93-218.9"/>
  </g>
  <path d="m253.04 7.86c-135.42 0-245.19 109.78-245.19 245.19 0 135.42 109.78 245.19 245.19 245.19 135.42 0 245.19-109.78 245.19-245.19 0-135.42-109.78-245.19-245.19-245.19m0 26.297c120.9 0 218.9 98 218.9 218.9s-98 218.9-218.9 218.9-218.93-98-218.93-218.9 98.03-218.9 218.93-218.9z" fill="#ffffff" stroke="#000000" stroke-opacity=".31" stroke-width="4.904"/>
 </g>
 <path d="m221.65 111.07c-1.339-.002-2.622.002-3.844.023-17.1.295-24.2 2.537-38.695 10.482-25.09 13.757-51.19 42.697-66.02 72.818-14.14 40.14-18.412 67.17-13.158 109.4 1.131 8.579 3.686 14.303 8.363 23.863 4.01 8.198 9.851 16.06 17.17 23.379l120.81 120.81c2.246.068 4.499.115 6.762.115 106.35 0 194.97-75.844 214.77-176.39l-128.06-128.06c-7.919-7.919-16.231-15.177-24.809-21.508-35.02-25.848-57.43-34.626-89.1-34.904-1.45-.013-2.846-.021-4.186-.023" opacity=".25"/>
 <path d="m217.8 111.09c-17.1.295-24.2 2.536-38.695 10.482-25.09 13.757-51.19 42.697-66.02 72.818-14.14 40.14-18.412 67.16-13.159 109.39 1.131 8.579 3.686 14.303 8.364 23.864 15.791 32.28 59.945 59.33 110.96 68.58 34.837 6.316 45.24 6.279 77.5-.223 24.748-4.987 49.13-14.411 69.03-25.871 19.897-11.46 35.34-24.972 42.38-38.584 5.277-10.204 5.876-23.892 3.01-39.476-2.865-15.584-9.22-33.03-18.18-50.739-17.913-35.407-46.16-71.799-78.06-95.34-35.02-25.848-57.43-34.626-89.1-34.904-2.9-.025-5.586-.042-8.03 0m-9.59 49.735c8.668-.385 22.328 7.081 44.717 21.634 45.31 29.449 87.09 64.55 87.09 73.15.004 11.857-61.61 56.927-113.86 83.3-25.27 12.754-23.16 12.449-29.328 5.02-5.869-7.07-8.751-108.89-4.238-150.77 2.309-21.422 5.788-31.903 15.612-32.34" fill="#ffffff"/>
</svg>
