<svg viewBox="0 0 512 512" xmlns="http://www.w3.org/2000/svg">
 <g fill-rule="evenodd">
  <path d="m471.95 253.05c0 120.9-98.01 218.91-218.91 218.91s-218.91-98.01-218.91-218.91 98.01-218.91 218.91-218.91 218.91 98.01 218.91 218.91" fill="#a4a4a4"/>
  <path d="m256 1c-140.83 0-255 114.17-255 255s114.17 255 255 255 255-114.17 255-255-114.17-255-255-255m8.827 44.931c120.9 0 218.9 98 218.9 218.9s-98 218.9-218.9 218.9-218.93-98-218.93-218.9 98.03-218.9 218.93-218.9" fill-opacity=".067"/>
  <g fill-opacity=".129">
   <path d="m256 4.43c-138.94 0-251.57 112.63-251.57 251.57s112.63 251.57 251.57 251.57 251.57-112.63 251.57-251.57-112.63-251.57-251.57-251.57m5.885 38.556c120.9 0 218.9 98 218.9 218.9s-98 218.9-218.9 218.9-218.93-98-218.93-218.9 98.03-218.9 218.93-218.9"/>
   <path d="m256 8.36c-136.77 0-247.64 110.87-247.64 247.64s110.87 247.64 247.64 247.64 247.64-110.87 247.64-247.64-110.87-247.64-247.64-247.64m2.942 31.691c120.9 0 218.9 98 218.9 218.9s-98 218.9-218.9 218.9-218.93-98-218.93-218.9 98.03-218.9 218.93-218.9"/>
  </g>
  <path d="m253.04 7.86c-135.42 0-245.19 109.78-245.19 245.19 0 135.42 109.78 245.19 245.19 245.19 135.42 0 245.19-109.78 245.19-245.19 0-135.42-109.78-245.19-245.19-245.19m0 26.297c120.9 0 218.9 98 218.9 218.9s-98 218.9-218.9 218.9-218.93-98-218.93-218.9 98.03-218.9 218.93-218.9z" fill="#ffffff" stroke="#000000" stroke-opacity=".31" stroke-width="4.904"/>
 </g>
 <path d="m149.39 148.71v42.66h-45.553v38.758l45.553 45.553v11.811h-45.553v38.758l145.67 145.67c1.175.019 2.349.045 3.529.045 120.9 0 218.91-98.01 218.91-218.91 0-.084-.004-.166-.004-.25l-61.44-61.44h-3.365l-42.66-42.66h-38.758v42.66h-6.09l-42.66-42.66h-38.723v42.66h-7.438l-42.66-42.66h-38.758" opacity=".25"/>
 <path d="m149.39 148.7v42.661h-45.554v38.758h45.554v57.36h-45.554v38.758h85.19v38.05h41.719v-38.05h49.793v38.05h41.752v-38.05h88.21v-38.758h-46.02v-57.36h46.02v-38.758h-46.02v-42.661h-38.758v42.661h-48.75v-42.661h-38.724v42.661h-50.1v-42.661zm38.758 81.42h50.1v57.36h-50.1zm88.82 0h48.75v57.36h-48.75z" fill="#ffffff"/>
</svg>
