<svg height="512" viewBox="0 0 512 512" width="512" xmlns="http://www.w3.org/2000/svg">
 <g transform="translate(0 -540.36)">
  <path d="m471.95 793.41c0 120.9-98.01 218.9-218.9 218.9-120.9 0-218.9-98.01-218.9-218.9 0-120.9 98.01-218.9 218.9-218.9 120.9 0 218.9 98.01 218.9 218.9" fill="#8f8f8f" fill-rule="evenodd"/>
  <path d="m256.63 132.94c-47.956.128-95.07 8.142-136.69 22.13-7.941 16.12-11.683 32.772-17.625 49.625.395.164.792.312 1.188.469-.062.178-.125.353-.188.531.395.164.792.312 1.188.469-.062.178-.125.353-.188.531.391.163.795.282 1.188.438-.062.178-.125.353-.188.531.397.165.79.312 1.188.469-.062.178-.125.353-.188.531.388.161.767.315 1.156.469-.062.178-.125.353-.188.531.393.164.793.313 1.188.469-.062.178-.125.353-.188.531.395.164.792.312 1.188.469-.062.178-.125.353-.188.531.395.164.792.312 1.188.469-.062.178-.125.353-.188.531.391.163.795.282 1.188.438-.063.179-.124.352-.188.531.397.165.79.312 1.188.469-.033.094-.061.188-.094.281-2.905-.53-5.835-1.163-8.781-1.844-.582 11.152-.196 23.561 4.875 27.813.296.355.633.683.969.969.338.41.702.776 1.094 1.094.308.362.617.712.969 1 .312.368.644.709 1 1 .282.333.587.636.906.906.304.368.654.675 1 .969.308.376.647.701 1 1 .338.41.702.776 1.094 1.094.308.362.617.712.969 1 .312.368.644.709 1 1 .282.333.587.636.906.906.304.368.654.675 1 .969.308.376.647.701 1 1 .338.41.702.776 1.094 1.094.314.369.641.709 1 1 .308.362.617.712.969 1 .312.368.644.709 1 1 .282.333.587.635.906.906.304.368.654.675 1 .969.333.403.678.779 1.063 1.094.318.376.667.704 1.031 1 .308.362.617.712.969 1 .312.368.644.709 1 1 .282.333.587.635.906.906.304.368.654.675 1 .969.308.376.647.701 1 1 .338.41.702.776 1.094 1.094.308.362.617.712.969 1 .312.368.644.709 1 1 .282.333.587.635.906.906.304.368.654.675 1 .969.308.376.647.701 1 1 .338.41.702.776 1.094 1.094.308.362.617.712.969 1 .312.368.644.709 1 1 .308.364.648.68 1 .969.287.341.582.662.906.938.304.368.654.675 1 .969.338.41.702.776 1.094 1.094.314.369.641.709 1 1 .308.362.617.712.969 1 .312.368.644.709 1 1 .282.333.587.635.906.906.314.38.672.699 1.031 1 .295.354.633.683.969.969.338.41.702.776 1.094 1.094.304.357.623.684.969.969.045.053.079.105.125.156-17.327 31.613-17.16 49.11-17.16 91.75h.969v1h1v1h1v1h1v1h1v1h1v .969h.969v1h1v1h1v1h1v1h1v1h1v .969h1v1h .969v1h1v1h1v1h1v1h1v1h1v .969h.969v1h1v1h1v1h1v1h1v1h1v .969h.969v1h1v1h1v1h1v1h1v1h1v .969h1v1h .969v1h1v1h1v1h1v1h1v1h1v .969h.969v1h1v1h1v1h1v1h1v1h1v .969h.969v1h1v1h1v1h1v1h1v1h1v .969h.969v1h1v1h1v1h1v1h1v1h1v .969h1v1h .969v1h1v1h1v1h1v1h1v1h1v .969h.969v1h1v1h1v1h1v1h1v1h1v .969h.969v1h1v1h1v1h1v1h1v1h1v .969h1v1h .969v1h1v1h1v1h1v1h1v1h1v .969h.969v1h1v1h1v1h1v1h1v1h1v .969h.969v1h1v1h1v1h1v1h1v .188c7.319.739 14.736 1.156 22.25 1.156 120.9 0 218.91-98.01 218.91-218.91 0-5.571-.185-11.1-.594-16.563-.084-.029-.167-.064-.25-.094-.009-.022-.281-.75-.281-.75-.238-.086-.48-.165-.719-.25-.009-.022-.281-.75-.281-.75-.238-.086-.48-.165-.719-.25-.009-.022-.281-.75-.281-.75-.24-.086-.479-.164-.719-.25l-.281-.719c-.239-.086-.479-.164-.719-.25-.009-.022-.281-.75-.281-.75-.221-.08-.435-.171-.656-.25-.009-.023-.313-.75-.313-.75-.238-.086-.481-.165-.719-.25-.009-.022-.281-.75-.281-.75-.238-.086-.48-.165-.719-.25l-.281-.75c-.238-.086-.48-.165-.719-.25l-.281-.75c-.238-.086-.48-.165-.719-.25-.008-.02-.281-.719-.281-.719-.239-.086-.479-.164-.719-.25-.009-.022-.281-.75-.281-.75-.239-.086-.479-.164-.719-.25-.009-.022-.281-.75-.281-.75-.221-.08-.435-.171-.656-.25-.009-.023-.313-.75-.313-.75-.238-.086-.48-.165-.719-.25-.009-.022-.281-.75-.281-.75-.238-.086-.48-.165-.719-.25-.009-.022-.281-.75-.281-.75-.238-.086-.48-.165-.719-.25-.009-.022-.281-.75-.281-.75-.24-.086-.479-.164-.719-.25-.008-.02-.281-.719-.281-.719-.239-.086-.479-.164-.719-.25-.009-.022-.281-.75-.281-.75-.221-.08-.435-.171-.656-.25-.009-.023-.313-.75-.313-.75-.238-.086-.48-.165-.719-.25-.009-.022-.281-.75-.281-.75-.238-.086-.48-.165-.719-.25l-.281-.75c-.238-.086-.48-.165-.719-.25l-.281-.75c-.24-.086-.479-.164-.719-.25-.008-.02-.281-.719-.281-.719-.239-.086-.479-.164-.719-.25-.009-.022-.281-.75-.281-.75-.221-.08-.435-.171-.656-.25l-.313-.75c-.238-.086-.481-.165-.719-.25-.009-.022-.281-.75-.281-.75-.238-.086-.48-.165-.719-.25-.009-.022-.281-.75-.281-.75-.238-.086-.48-.165-.719-.25-.009-.022-.281-.75-.281-.75-.238-.086-.48-.165-.719-.25-.008-.02-.281-.719-.281-.719-.239-.086-.479-.164-.719-.25-.009-.022-.281-.75-.281-.75-.221-.08-.435-.171-.656-.25-.009-.023-.313-.75-.313-.75-.238-.086-.481-.165-.719-.25-.009-.022-.281-.75-.281-.75-.238-.086-.48-.165-.719-.25-.009-.022-.281-.75-.281-.75-.238-.086-.48-.165-.719-.25l-.281-.75c-.238-.086-.48-.165-.719-.25-.009-.022-.281-.75-.281-.75-.24-.086-.479-.164-.719-.25-.008-.02-.281-.719-.281-.719-.239-.086-.479-.164-.719-.25-.009-.022-.281-.75-.281-.75-.221-.08-.435-.171-.656-.25l-.313-.75c-.238-.086-.48-.165-.719-.25l-.281-.75c-.238-.086-.48-.165-.719-.25-.009-.022-.281-.75-.281-.75-.238-.086-.48-.165-.719-.25-.009-.022-.281-.75-.281-.75-.24-.086-.479-.164-.719-.25-.008-.021-.281-.719-.281-.719-.239-.086-.479-.164-.719-.25-.009-.022-.281-.75-.281-.75-.221-.08-.435-.171-.656-.25-.009-.023-.313-.75-.313-.75-.238-.086-.481-.165-.719-.25-.009-.022-.281-.75-.281-.75-.238-.086-.48-.165-.719-.25-.009-.022-.281-.75-.281-.75-.238-.086-.48-.165-.719-.25-.009-.022-.281-.75-.281-.75-.24-.086-.479-.164-.719-.25-.008-.021-.281-.719-.281-.719-.239-.086-.479-.164-.719-.25-.009-.022-.281-.75-.281-.75-.221-.08-.435-.171-.656-.25-.009-.023-.313-.75-.313-.75-.238-.086-.481-.165-.719-.25l-.281-.75c-.238-.086-.48-.165-.719-.25l-.281-.75c-.238-.086-.48-.165-.719-.25-.009-.022-.281-.75-.281-.75-.238-.086-.48-.165-.719-.25-.008-.021-.281-.719-.281-.719-.239-.086-.479-.164-.719-.25-.009-.022-.281-.75-.281-.75-.239-.086-.479-.164-.719-.25-.009-.022-.281-.75-.281-.75-.221-.08-.435-.171-.656-.25-.009-.023-.313-.75-.313-.75-.238-.086-.48-.165-.719-.25-.009-.022-.281-.75-.281-.75-.238-.086-.48-.165-.719-.25-.009-.022-.281-.75-.281-.75-.238-.086-.48-.165-.719-.25-.009-.022-.281-.75-.281-.75-.24-.086-.479-.164-.719-.25-.008-.02-.281-.719-.281-.719-.239-.086-.479-.164-.719-.25-.009-.022-.281-.75-.281-.75-.221-.08-.435-.171-.656-.25-.009-.023-.313-.75-.313-.75-.238-.086-.48-.165-.719-.25-.009-.022-.281-.75-.281-.75-.238-.086-.48-.165-.719-.25-.009-.022-.281-.75-.281-.75-.238-.086-.48-.165-.719-.25-.009-.022-.281-.75-.281-.75-.24-.086-.479-.164-.719-.25-.008-.021-.281-.719-.281-.719-.239-.086-.479-.164-.719-.25-.009-.022-.281-.75-.281-.75-.221-.08-.435-.171-.656-.25-.009-.023-.313-.75-.313-.75-.238-.086-.481-.165-.719-.25-.009-.022-.281-.75-.281-.75-.238-.086-.48-.165-.719-.25-.009-.022-.281-.75-.281-.75-.238-.086-.48-.165-.719-.25-.009-.022-.281-.75-.281-.75-.24-.086-.479-.164-.719-.25-.008-.021-.281-.719-.281-.719-.239-.086-.479-.164-.719-.25-.009-.022-.281-.75-.281-.75-.221-.08-.435-.171-.656-.25-.009-.023-.313-.75-.313-.75-.238-.086-.481-.165-.719-.25-.009-.022-.281-.75-.281-.75-.238-.086-.48-.165-.719-.25-.009-.022-.281-.75-.281-.75-.238-.086-.48-.165-.719-.25-.009-.022-.281-.75-.281-.75-.238-.086-.48-.165-.719-.25-.009-.022-.281-.75-.281-.75-.24-.086-.479-.164-.719-.25-.008-.02-.281-.719-.281-.719-.239-.086-.479-.164-.719-.25l-.281-.75c-.221-.08-.435-.171-.656-.25l-.313-.75c-42.75-15.406-88.54-22.245-133.59-22.12" fill-opacity=".235" transform="translate(0 540.36)"/>
  <g fill-rule="evenodd">
   <path d="m256 541.36c-140.83 0-255 114.17-255 255s114.17 255 255 255 255-114.17 255-255-114.17-255-255-255m8.827 44.931c120.9 0 218.9 98 218.9 218.9s-98 218.9-218.9 218.9-218.93-98-218.93-218.9 98.03-218.9 218.93-218.9" fill-opacity=".067"/>
   <g fill-opacity=".129">
    <path d="m256 544.79c-138.94 0-251.57 112.63-251.57 251.57s112.63 251.54 251.57 251.54 251.57-112.6 251.57-251.54-112.63-251.57-251.57-251.57m5.885 38.556c120.9 0 218.9 98 218.9 218.9s-98 218.9-218.9 218.9-218.93-98-218.93-218.9 98.03-218.9 218.93-218.9"/>
    <path d="m256 548.72c-136.77 0-247.64 110.87-247.64 247.64s110.87 247.64 247.64 247.64 247.64-110.87 247.64-247.64-110.87-247.64-247.64-247.64m2.942 31.691c120.9 0 218.9 98 218.9 218.9s-98 218.9-218.9 218.9-218.93-98-218.93-218.9 98.03-218.9 218.93-218.9"/>
   </g>
   <path d="m253.04 548.22c-135.42 0-245.19 109.78-245.19 245.19 0 135.42 109.78 245.19 245.19 245.19 135.42 0 245.19-109.78 245.19-245.19 0-135.42-109.78-245.19-245.19-245.19zm0 26.297c120.9 0 218.9 98 218.9 218.9s-98 218.9-218.9 218.9-218.93-98-218.93-218.9 98.03-218.9 218.93-218.9z" fill="#ffffff" stroke="#000000" stroke-opacity=".31" stroke-width="4.904"/>
  </g>
  <path d="m256.61 673.29c-47.956.128-95.05 8.152-136.67 22.14-7.941 16.12-11.677 32.769-17.619 49.621 31.12 12.946 65.5 1.487 78.8-9.736 2.473-5.409 4.01-13.66 7.413-16.236 41.44-14.547 109.66-15.61 136.78 2.767 2.318 1.854 6.03 15.766 6.03 15.766 20.12 11.01 58.826 15.403 78.33 7.439l-19.47-49.62c-42.75-15.406-88.54-22.255-133.59-22.14m-60.04 59.932l.653 30.827c-59.41 84.01-58.992 91.24-58.992 155.39h235.76c0-59.743 8.119-60.727-55.47-154.74v-31.48h-38.684v22.292h-47.846v-22.292h-35.421m-15.609 12.138c-32.19 14.32-53.716 13.01-77.37 7.544-.619 11.868-.156 25.16 5.899 28.53 20.723 10.416 62.67 9.298 71.782-19.681.628-1.94-.127-10.679-.313-16.393m149.7 0c-.186 5.713-.968 14.453-.339 16.393 9.109 28.98 51.06 30.1 71.783 19.681 6.06-3.368 6.544-16.662 5.925-28.53-23.652 5.464-45.18 6.776-77.37-7.544m-118.95 35.37h20.18v14.15h-20.18zm33.15 0h20.18v14.15h-20.18zm33.15 0h20.18v14.15h-20.18zm-66.3 24.537h20.18v14.12h-20.18zm33.15 0h20.18v14.12h-20.18zm33.15 0h20.18v14.12h-20.18zm-66.3 24.51h20.18v14.15h-20.18zm33.15 0h20.18v14.15h-20.18zm33.15 0h20.18v14.15h-20.18z" fill="#ffffff"/>
 </g>
</svg>
