<svg height="512" viewBox="0 0 512 512" width="512" xmlns="http://www.w3.org/2000/svg">
 <path d="m471.95 253.05c0 120.9-98.01 218.9-218.9 218.9-120.9 0-218.9-98.01-218.9-218.9 0-120.9 98.01-218.9 218.9-218.9 120.9 0 218.9 98.01 218.9 218.9" fill="#8f8f8f" fill-rule="evenodd"/>
 <path d="m321.97 112.88c-2.708-.044-5.32.769-7.656 2.688l-94.87 77.938c-2.394 1.967-4.743 3.998-6.938 6.094l-81.62 21.844c-7.277 1.95-12.3 8.07-13.156 15.09-.025.007-1.594.438-1.594.438-7.41 1.986-11.798 9.558-9.813 16.969.049.183 12.656 47.13 12.656 47.13.745 2.779 2.274 5.129 4.281 6.875.32.342.648.694 1 1 .32.342.648.694 1 1 .32.342.617.694.969 1 .249.266.513.506.781.75.316.354.651.682 1 1 .386.432.785.842 1.219 1.219.32.342.648.694 1 1 .32.342.648.694 1 1 .33.352.637.717 1 1.031.227.242.444.464.688.688.329.372.698.699 1.063 1.031.386.432.785.842 1.219 1.219.32.342.648.694 1 1 .32.342.648.694 1 1 .32.342.648.694 1 1 .232.248.439.49.688.719.329.372.698.699 1.063 1.031.386.432.785.842 1.219 1.219.32.342.648.694 1 1 .32.342.648.694 1 1 .32.342.648.694 1 1 .32.342.617.694.969 1 .249.266.513.506.781.75.316.354.651.682 1 1 .386.432.785.842 1.219 1.219.32.342.648.694 1 1 .32.342.648.694 1 1 .32.342.617.694.969 1 .249.266.513.506.781.75.316.354.651.682 1 1 .386.432.785.842 1.219 1.219.32.342.648.694 1 1 .32.342.648.694 1 1 .33.352.637.717 1 1.031.227.242.444.464.688.688.329.372.698.699 1.063 1.031.386.432.785.842 1.219 1.219.32.342.648.694 1 1 .32.342.648.694 1 1 .32.342.648.694 1 1 .232.248.439.49.688.719.329.372.698.699 1.063 1.031.386.432.785.842 1.219 1.219.32.342.648.694 1 1 .32.342.648.694 1 1 .32.342.648.694 1 1 .32.342.617.694.969 1 .249.266.513.506.781.75.316.354.651.682 1 1 .386.432.785.842 1.219 1.219.32.342.648.694 1 1 .32.342.648.694 1 1 .33.352.637.717 1 1.031.227.242.444.464.688.688.329.372.698.699 1.063 1.031.386.432.785.842 1.219 1.219.32.342.648.694 1 1 .32.342.648.694 1 1 .32.342.648.694 1 1 .232.248.439.49.688.719.329.372.698.699 1.063 1.031.386.432.785.842 1.219 1.219.32.342.648.694 1 1 .32.342.648.694 1 1 .32.342.648.694 1 1 .32.342.617.694.969 1 .249.266.513.506.781.75.386.432.785.842 1.219 1.219.32.342.648.694 1 1 .32.342.648.694 1 1 .32.342.648.694 1 1 .32.342.617.694.969 1 .249.266.513.506.781.75.316.354.651.682 1 1 .386.432.785.842 1.219 1.219.32.342.648.694 1 1 .32.342.648.694 1 1 .33.352.637.717 1 1.031.227.242.444.464.688.688.329.372.698.699 1.063 1.031.386.432.785.842 1.219 1.219.32.342.648.694 1 1 .32.342.648.694 1 1 .32.342.648.694 1 1 .232.248.439.49.688.719.329.372.698.699 1.063 1.031.386.432.785.842 1.219 1.219.32.342.648.694 1 1 .32.342.648.694 1 1 .32.342.648.694 1 1 .32.342.617.694.969 1 .249.266.513.506.781.75.316.354.651.682 1 1 .386.432.785.842 1.219 1.219.32.342.648.694 1 1 .32.342.648.694 1 1 .33.352.637.717 1 1.031.227.242.444.464.688.688.329.372.698.699 1.063 1.031.386.432.785.842 1.219 1.219.32.342.648.694 1 1 .32.342.648.694 1 1 .33.352.637.717 1 1.031.227.242.444.464.688.688.329.372.698.699 1.063 1.031.386.432.785.842 1.219 1.219.32.342.648.694 1 1 .32.342.648.694 1 1 .32.342.648.694 1 1 .232.248.439.49.688.719.329.372.698.699 1.063 1.031.386.432.785.842 1.219 1.219.32.342.648.694 1 1 .32.342.648.694 1 1 .32.342.648.694 1 1 .32.342.617.694.969 1 .249.266.513.506.781.75.316.354.651.682 1 1 .386.432.785.842 1.219 1.219.32.342.648.694 1 1 .32.342.648.694 1 1 .33.352.637.717 1 1.031.227.242.444.464.688.688.329.372.698.699 1.063 1.031.386.432.785.842 1.219 1.219.32.342.648.694 1 1 .32.342.648.694 1 1 .32.342.648.694 1 1 .232.248.439.49.688.719.329.372.698.699 1.063 1.031.386.432.785.842 1.219 1.219.32.342.648.694 1 1 .32.342.648.694 1 1 .32.342.648.694 1 1 .32.342.617.694.969 1 .249.266.513.506.781.75.316.354.651.682 1 1 .386.432.785.842 1.219 1.219.32.342.648.694 1 1 .32.342.648.694 1 1 .32.342.617.694.969 1 .249.266.513.506.781.75.316.354.651.682 1 1 .386.432.785.842 1.219 1.219.32.342.648.694 1 1 .32.342.648.694 1 1 .33.352.637.717 1 1.031.227.242.444.464.688.688.329.372.698.699 1.063 1.031.386.432.785.842 1.219 1.219.32.342.648.694 1 1 .32.342.648.694 1 1 .32.342.648.694 1 1 .232.248.439.49.688.719.329.372.698.699 1.063 1.031.386.432.785.842 1.219 1.219.32.342.648.694 1 1 .32.342.648.694 1 1 .32.342.648.694 1 1 .32.342.617.694.969 1 .249.266.513.506.781.75.316.354.651.682 1 1 .227.255.477.481.719.719 104.91-15.317 185.65-105.03 186.97-213.87-.308-.309-.623-.609-.938-.906-.254-.26-.49-.531-.75-.781-.357-.373-.724-.741-1.094-1.094-.382-.395-.761-.784-1.156-1.156-.206-.211-.415-.421-.625-.625-.389-.409-.784-.802-1.188-1.188-.33-.342-.66-.675-1-1-.33-.342-.66-.675-1-1-.33-.342-.66-.675-1-1-.383-.397-.791-.783-1.188-1.156-.201-.206-.389-.426-.594-.625-.389-.409-.784-.802-1.188-1.188-.33-.342-.66-.675-1-1-.376-.39-.767-.757-1.156-1.125-.254-.26-.49-.531-.75-.781-.357-.373-.724-.741-1.094-1.094-.329-.341-.661-.676-1-1-.32-.331-.64-.654-.969-.969-.33-.342-.66-.675-1-1-.376-.39-.767-.757-1.156-1.125-.254-.26-.49-.531-.75-.781-.357-.373-.724-.741-1.094-1.094-.329-.341-.661-.676-1-1-.32-.331-.64-.654-.969-.969-.33-.342-.66-.675-1-1-.33-.342-.66-.675-1-1-.33-.342-.66-.675-1-1-.33-.342-.66-.675-1-1-.382-.395-.761-.784-1.156-1.156-.206-.211-.415-.421-.625-.625-.389-.409-.784-.802-1.188-1.188-.33-.342-.66-.675-1-1-.376-.39-.767-.757-1.156-1.125-.254-.26-.49-.531-.75-.781-.357-.373-.724-.741-1.094-1.094-.329-.341-.661-.676-1-1-.32-.331-.64-.654-.969-.969-.33-.342-.66-.675-1-1-.376-.39-.767-.757-1.156-1.125-.254-.26-.49-.531-.75-.781-.357-.373-.724-.741-1.094-1.094-.329-.341-.661-.676-1-1-.32-.331-.64-.654-.969-.969-.33-.342-.66-.675-1-1-.376-.39-.767-.757-1.156-1.125-.254-.26-.49-.531-.75-.781-.357-.373-.724-.741-1.094-1.094-.382-.395-.761-.784-1.156-1.156-.206-.211-.415-.421-.625-.625-.389-.409-.784-.802-1.188-1.188-.33-.342-.66-.675-1-1-.33-.342-.66-.675-1-1-.33-.342-.66-.675-1-1-.383-.397-.791-.783-1.188-1.156-.201-.206-.389-.426-.594-.625-.389-.409-.784-.802-1.188-1.188-.33-.342-.66-.675-1-1-.376-.39-.767-.757-1.156-1.125-.254-.26-.49-.531-.75-.781-.357-.373-.724-.741-1.094-1.094-.329-.341-.661-.676-1-1-.32-.331-.64-.654-.969-.969-.33-.342-.66-.675-1-1-.376-.39-.767-.757-1.156-1.125-.254-.26-.49-.531-.75-.781-.357-.373-.724-.741-1.094-1.094-.329-.341-.661-.676-1-1-.32-.331-.64-.654-.969-.969-.33-.342-.66-.675-1-1-.33-.342-.66-.675-1-1-.33-.342-.66-.675-1-1-.33-.342-.66-.675-1-1-.382-.395-.761-.784-1.156-1.156-.206-.211-.415-.421-.625-.625-.389-.409-.784-.802-1.188-1.188-.33-.342-.66-.675-1-1-.376-.39-.767-.757-1.156-1.125-.254-.26-.49-.531-.75-.781-.414-.433-.851-.845-1.281-1.25-.201-.206-.389-.426-.594-.625-.389-.409-.784-.802-1.188-1.188-.33-.342-.66-.675-1-1-.376-.39-.767-.757-1.156-1.125-.254-.26-.49-.531-.75-.781-.357-.373-.724-.741-1.094-1.094-.329-.341-.661-.676-1-1-.32-.331-.64-.654-.969-.969-.33-.342-.66-.675-1-1-.376-.39-.767-.757-1.156-1.125-.254-.26-.49-.531-.75-.781-.357-.373-.724-.741-1.094-1.094-.382-.395-.761-.784-1.156-1.156-.206-.211-.415-.421-.625-.625-.389-.409-.784-.802-1.188-1.188-.33-.342-.66-.675-1-1-.33-.342-.66-.675-1-1-.33-.342-.66-.675-1-1-.383-.397-.791-.783-1.188-1.156-.201-.206-.389-.426-.594-.625-.389-.409-.784-.802-1.188-1.188-.33-.342-.66-.675-1-1-.376-.39-.767-.757-1.156-1.125-.254-.26-.49-.531-.75-.781-.357-.373-.724-.741-1.094-1.094-.329-.341-.661-.676-1-1-.32-.331-.64-.654-.969-.969-.33-.342-.66-.675-1-1-.376-.39-.767-.757-1.156-1.125-.254-.26-.49-.531-.75-.781-.357-.373-.724-.741-1.094-1.094-.329-.341-.661-.676-1-1-.32-.331-.64-.654-.969-.969-.33-.342-.66-.675-1-1-.33-.342-.66-.675-1-1-.33-.342-.66-.675-1-1-.33-.342-.66-.675-1-1-.382-.395-.761-.784-1.156-1.156-.206-.211-.415-.421-.625-.625-.389-.409-.784-.802-1.188-1.188-.33-.342-.66-.675-1-1-.376-.39-.767-.757-1.156-1.125-.254-.26-.49-.531-.75-.781-.414-.433-.851-.845-1.281-1.25-.201-.206-.389-.426-.594-.625-.389-.409-.784-.802-1.188-1.188-.33-.342-.66-.675-1-1-.376-.39-.767-.757-1.156-1.125-.254-.26-.49-.531-.75-.781-.357-.373-.724-.741-1.094-1.094-.329-.341-.661-.676-1-1-.32-.331-.64-.654-.969-.969-.33-.342-.66-.675-1-1-.376-.39-.767-.757-1.156-1.125-.254-.26-.49-.531-.75-.781-.357-.373-.724-.741-1.094-1.094-.382-.395-.761-.784-1.156-1.156-4.384-4.481-9.669-7.512-14.656-7.594" fill-opacity=".235"/>
 <g fill-rule="evenodd">
  <path d="m256 1c-140.83 0-255 114.17-255 255s114.17 255 255 255 255-114.17 255-255-114.17-255-255-255m8.827 44.931c120.9 0 218.9 98 218.9 218.9s-98 218.9-218.9 218.9-218.93-98-218.93-218.9 98.03-218.9 218.93-218.9" fill-opacity=".067"/>
  <g fill-opacity=".129">
   <path d="m256 4.433c-138.94 0-251.57 112.63-251.57 251.57s112.63 251.57 251.57 251.57 251.57-112.63 251.57-251.57-112.63-251.57-251.57-251.57m5.885 38.556c120.9 0 218.9 98 218.9 218.9s-98 218.9-218.9 218.9-218.93-98-218.93-218.9 98.03-218.9 218.93-218.9"/>
   <path d="m256 8.356c-136.77 0-247.64 110.87-247.64 247.64s110.87 247.64 247.64 247.64 247.64-110.87 247.64-247.64-110.87-247.64-247.64-247.64m2.942 31.691c120.9 0 218.9 98 218.9 218.9s-98 218.9-218.9 218.9-218.93-98-218.93-218.9 98.03-218.9 218.93-218.9"/>
  </g>
  <path d="m253.04 7.859c-135.42 0-245.19 109.78-245.19 245.19 0 135.42 109.78 245.19 245.19 245.19 135.42 0 245.19-109.78 245.19-245.19 0-135.42-109.78-245.19-245.19-245.19zm0 26.297c120.9 0 218.9 98 218.9 218.9s-98 218.9-218.9 218.9-218.93-98-218.93-218.9 98.03-218.9 218.93-218.9z" fill="#ffffff" stroke="#000000" stroke-opacity=".31" stroke-width="4.904"/>
 </g>
 <g fill="#ffffff" transform="matrix(1.8303 -.49044 .49044 1.8303 -602.81 -1075.6)">
  <rect height="52.16" rx="9.442" width="63.61" x="187.39" y="761.37"/>
  <rect height="40.37" rx="7.308" width="63.61" x="179.89" y="767.26"/>
  <path d="m245.81 759.23l59-26.769c6.642-3.01 13.165 6.49 13.165 14.551v83.35c0 8.06-6.61 17.749-13.165 14.551l-59-28.789c-6.555-3.198-13.165-6.49-13.165-14.551v-27.79c0-8.06 6.523-11.538 13.165-14.551"/>
  <ellipse cx="316.72" cy="789.1" rx="11.64" ry="12.248"/>
  <rect height="57.645" rx="12.12" ry="14.242" width="24.24" x="208.72" y="790.27"/>
 </g>
</svg>
