<svg height="512" viewBox="0 0 512 512" width="512" xmlns="http://www.w3.org/2000/svg">
 <g transform="translate(0 -540.36)">
  <path d="m471.95 793.41c0 120.9-98.01 218.9-218.9 218.9-120.9 0-218.9-98.01-218.9-218.9 0-120.9 98.01-218.9 218.9-218.9 120.9 0 218.9 98.01 218.9 218.9" fill="#8f8f8f" fill-rule="evenodd"/>
  <path d="m349.28 125.34l-97.72 97.69 1 1 20.875 20.875.031.031 78.78 78.78 1 1 1 1 1 1 .969.969 1 1 1 1 1 1 1 1 1 1 .969.969 1 1 1 1 1 1 1 1 1 1 .969.969 1 1 1 1 1 1 1 1 1 1 .969.969 1 1 1 1 1 1 1 1 1 1 1 1 .969.969 1 1 1 1 1 1 1 1 1 1 .969.969 1 1 1 1 1 1 1 1 1 1 .969.969 1 1 1 1 .813.813.188.188 1 1 1 1 1 1 .969.969 1 1 1 1 1 1 1 1 1 1 .969.969 1 1 1 1 1 1 1 1 1 1 .969.969 1 1 1 1 1 1 1 1 1 1 .969.969 1 1 1 1 1 1 .531.531c31.54-37.93 50.5-86.66 50.5-139.84 0-1.722-.023-3.444-.063-5.156l-.406-.406c-.001-.001-.957-.958-1-1-.001-.001-.957-.958-1-1l-.969-.969-1-1-1-1-1-1-1-1-1-1-1-1-.969-.969-1-1-1-1-1-1-1-1-1-1-.969-.969-1-1-1-1-1-1-1-1-1-1-.969-.969-1-1-1-1-1-1-1-1-1-1-.969-.969-1-1-1-1-1-1-1-1-1-1-1-1-.969-.969-1-1-1-1-1-1-1-1-1-1-.969-.969-1-1-1-1-1-1-1-1-1-1-.969-.969-1-1-1-1-1-1-1-1-1-1-1-1-.969-.969-1-1-1-1-1-1-1-1-1-1-.969-.969-1-1-1-1-1-1-1-1-1-1-.969-.969-1-1-1-1-1-1-1-1-1-1-.969-.969-1-1-1-1-1-1-47.563-47.531m-186.56 62.938l-47.563 47.563 49.844 52.47-51.813 51.781 1 1 46.31 46.31.781.781.75.75.781.781.75.75.156.156.625.625.375.375.375.375.625.625.125.125.781.781.094.094.656.656.344.344.438.438.563.563.188.188.781.781.75.75.25.25.5.5.5.5.281.281.719.719.031.031.781.781.188.188.563.563.438.438.344.344.625.625.125.125.75.75.125.125.656.656.344.344.406.406.594.594.188.188.75.75.063.063.719.719.281.281.469.469c.093.093.531.5.531.5l.219.25.75.75.031.031.75.75.219.219.563.563c.061.061.437.438.438.438l.313.313c.138.138.687.688.688.688l.094.094.75.75.156.156.594.594.406.406.375.375.594.594.156.156.781.781.063.063.688.688c.026.026.312.313.313.313l.469.469.531.531.219.219.75.75.031.031.75.75.25.25.5.5.469.469.313.313c.104.104.687.688.688.688l.063.063.781.781.156.156.594.594.406.406.344.344.656.656.125.125.75.75.125.125.656.656.313.313.438.438c.061.061.562.563.563.563l.219.219.75.75.031.031.719.719.281.281.5.5.5.5.25.25.75.75.031.031.75.75.219.219.563.563.406.406.344.344.656.656.094.094.781.781.125.125.625.625.375.375.406.406.594.594.156.156.781.781.063.063.688.688.281.281.469.469.531.531.25.25.75.75.781.781.219.219.531.531.469.469.313.313c.065.065.687.688.688.688l.063.063.75.75.156.156.625.625.375.375.375.375.625.625.156.156.75.75.094.094.688.688.313.313.438.438.563.563.188.188.781.781.75.75.25.25.531.531.469.469.281.281.719.719.063.063.75.75.188.188.563.563.438.438.344.344.656.656.094.094.781.781.094.094.656.656.344.344.438.438.563.563.188.188.75.75.063.063.719.719.281.281.469.469.531.531.25.25.719.719.031.031.781.781.188.188.563.563.438.438.313.313.688.688.094.094.75.75.156.156.625.625.375.375.375.375.594.594c.003.003.188.156.188.156l.375.406c2.715.1 5.417.188 8.156.188 53.941 0 103.34-19.527 141.5-51.875l-.75-.75-1-1-.469-.469-.531-.531-.969-.969-.031-.031-1-1-.438-.438-.563-.563-.938-.938-.031-.031-1-1-.438-.438-.563-.563-.906-.906-.094-.094-1-1-.406-.406-.594-.594-.875-.875-.094-.094-1-1-.375-.375-.625-.625-.875-.875-.125-.125-1-1-.344-.344-.656-.656-.844-.844-.125-.125-1-1-.344-.344-.656-.656-.813-.813-.188-.188-1-1-.313-.313-.688-.688-.781-.781-.219-.219-.969-.969-.313-.313-.688-.688-.781-.781-.219-.219-1-1-.25-.25-.75-.75-.75-.75-.25-.25-.969-.969-.219-.219-.031-.031-.75-.75-.75-.75-.25-.25-1-1-.219-.219-.781-.781-.688-.688-.313-.313-.969-.969-.219-.219-.781-.781-.688-.688-.313-.313-1-1-.188-.188-.813-.813-.656-.656-.344-.344-.969-.969-.156-.156-.844-.844-.656-.656-.344-.344-1-1-.125-.125-.875-.875-.625-.625-.375-.375-1-1-.094-.094-.875-.875-.594-.594-.406-.406-1-1-.094-.094-.906-.906-.563-.563-.438-.438-1-1-.063-.063-.906-.906-.563-.563-.438-.438-1-1-.031-.031-.969-.969-.531-.531-.469-.469-1-1-.969-.969-.531-.531-.469-.469-1-1-1-1-.469-.469-.531-.531-.969-.969-.031-.031-1-1-.438-.438-.531-.531-.969-.969-.031-.031-1-1-.438-.438-.563-.563-.906-.906-.094-.094-1-1-.406-.406-.563-.563-.906-.906-.094-.094-1-1-.406-.406-.594-.594-.875-.875-.125-.125-1-1-.344-.344-.625-.625-.875-.875-.125-.125-1-1-.344-.344-.656-.656-.844-.844-.156-.156-1-1-.313-.313-.656-.656-.813-.813-.188-.188-1-1-.313-.313-.688-.688-.781-.781-.219-.219-1-1-.281-.281-.719-.719-.75-.75-.219-.219-1-1-.25-.25-.75-.75-.75-.75-.25-.25-1-1-.219-.219-.781-.781-.719-.719-.25-.25-1-1-.219-.219-.781-.781-.688-.688-.313-.313-1-1-.188-.188-.813-.813-.656-.656-.313-.313-1-1-.188-.188-.813-.813-.656-.656-.344-.344-1-1-.125-.125-.875-.875-.625-.625-.375-.375-.969-.969-.125-.125-.875-.875-.625-.625-.375-.375-1-1-.094-.094-.906-.906-.563-.563-.438-.438-.969-.969-.094-.094-.906-.906-.563-.563-.438-.438-1-1-.063-.063-.938-.938-.531-.531-.469-.469-.969-.969-.031-.031-.969-.969-.531-.531-.469-.469-1-1-1-1-.5-.5-.5-.5-.969-.969-1-1-.469-.469-.531-.531-.969-.969-.031-.031-1.438-1.438-1.5-1.5-1.469-1.469-1.469-1.469-1.5-1.5-1.469-1.469-1.5-1.5-1.469-1.469-1.469-1.469-1.5-1.5-1.469-1.469-1.5-1.5-1.469-1.469-1.469-1.469-1.5-1.5-1.469-1.469-1.469-1.469-1.5-1.5-1.469-1.469-1.5-1.5-1.469-1.469-1.469-1.469-1.5-1.5-1.469-1.469-1.5-1.5-1.469-1.469-1.469-1.469-1.5-1.5-1.469-1.469-1.5-1.5-1.469-1.469-1.469-1.469-1.5-1.5-1.469-1.469-1.5-1.5-1.469-1.469-1.469-1.469-1.5-1.5-1.469-1.469-1.5-1.5-1.469-1.469-1.469-1.469-1.5-1.5-1.469-1.469-1.5-1.5-1.469-1.469-1.469-1.469-1.5-1.5-1.469-1.469-1.5-1.5-1.469-1.469-1.469-1.469-1.5-1.5-1.469-1.469-1.5-1.5-1.469-1.469-1.469-1.469-1.5-1.5-1.469-1.469-1.5-1.5-1.469-1.469-1.469-1.469-1.5-1.5-1.438-1.438-.031-.031-.969-.969-.531-.531-.469-.469-1-1" fill-opacity=".235" transform="translate(0 540.36)"/>
  <g fill-rule="evenodd">
   <path d="m256 541.36c-140.83 0-255 114.17-255 255s114.17 255 255 255 255-114.17 255-255-114.17-255-255-255m8.827 44.931c120.9 0 218.9 98 218.9 218.9s-98 218.9-218.9 218.9-218.93-98-218.93-218.9 98.03-218.9 218.93-218.9" fill-opacity=".067"/>
   <g fill-opacity=".129">
    <path d="m256 544.79c-138.94 0-251.57 112.63-251.57 251.57s112.63 251.54 251.57 251.54 251.57-112.6 251.57-251.54-112.63-251.57-251.57-251.57m5.885 38.556c120.9 0 218.9 98 218.9 218.9s-98 218.9-218.9 218.9-218.93-98-218.93-218.9 98.03-218.9 218.93-218.9"/>
    <path d="m256 548.72c-136.77 0-247.64 110.87-247.64 247.64s110.87 247.64 247.64 247.64 247.64-110.87 247.64-247.64-110.87-247.64-247.64-247.64m2.942 31.691c120.9 0 218.9 98 218.9 218.9s-98 218.9-218.9 218.9-218.93-98-218.93-218.9 98.03-218.9 218.93-218.9"/>
   </g>
   <path d="m253.04 548.22c-135.42 0-245.19 109.78-245.19 245.19 0 135.42 109.78 245.19 245.19 245.19 135.42 0 245.19-109.78 245.19-245.19 0-135.42-109.78-245.19-245.19-245.19zm0 26.297c120.9 0 218.9 98 218.9 218.9s-98 218.9-218.9 218.9-218.93-98-218.93-218.9 98.03-218.9 218.93-218.9z" fill="#ffffff" stroke="#000000" stroke-opacity=".31" stroke-width="4.904"/>
  </g>
  <g fill="#ffffff" stroke="#ffffff" transform="matrix(1.2984 0 0 1.2984 -1241.7 -82.61)">
   <path d="m1045 121.07l36.618-36.618 75.26 75.26-77.53 77.53-35.86-35.86 39.901-39.901z" transform="translate(0 540.36)"/>
   <path d="m1261.9 612.95l-36.618-36.618-75.26 75.26 77.53 77.53 35.86-35.86-39.901-39.901z"/>
  </g>
 </g>
</svg>
