<svg height="512" viewBox="0 0 512 512" width="512" xmlns="http://www.w3.org/2000/svg" xmlns:xlink="http://www.w3.org/1999/xlink">
 <defs>
  <path id="a" d="m700.04 193.8c0 29.01-23.518 52.53-52.53 52.53-29.01 0-52.53-23.518-52.53-52.53 0-29.01 23.518-52.53 52.53-52.53 29.01 0 52.53 23.518 52.53 52.53" fill="#ffffff"/>
 </defs>
 <g transform="translate(0 -540.36)">
  <path d="m471.95 793.41c0 120.9-98.01 218.9-218.9 218.9-120.9 0-218.9-98.01-218.9-218.9 0-120.9 98.01-218.9 218.9-218.9 120.9 0 218.9 98.01 218.9 218.9" fill="#8f8f8f" fill-rule="evenodd"/>
  <path d="m341.81 124.56c-25.469 0-46.12 20.656-46.12 46.13 0 .827.019 1.652.063 2.469-.186.094-95.44 48-95.44 48-8.08-6.979-18.609-11.219-30.12-11.219-25.469 0-46.09 20.625-46.09 46.09 0 13.188 5.537 25.09 14.406 33.5l.094.094c.199.187.392.379.594.563.232.238.451.486.688.719.358.374.724.732 1.094 1.094.363.377.718.76 1.094 1.125.364.376.748.73 1.125 1.094.328.337.661.674 1 1 .315.323.645.624.969.938.232.238.451.486.688.719.358.374.724.732 1.094 1.094.363.377.718.76 1.094 1.125.364.376.748.73 1.125 1.094.328.337.661.674 1 1 .315.323.645.624.969.938.232.238.451.486.688.719.358.374.724.732 1.094 1.094.326.339.664.671 1 1 .363.377.718.76 1.094 1.125.364.376.748.73 1.125 1.094.315.323.645.624.969.938.304.312.594.634.906.938.257.265.519.523.781.781.358.374.724.732 1.094 1.094.363.377.718.76 1.094 1.125.364.376.748.73 1.125 1.094.421.432.844.866 1.281 1.281l.094.094c.199.187.392.379.594.563.232.238.451.486.688.719.358.374.724.732 1.094 1.094.363.377.718.76 1.094 1.125.364.376.748.73 1.125 1.094.328.337.661.674 1 1 .315.323.645.624.969.938.232.238.451.486.688.719.358.374.724.732 1.094 1.094.326.339.664.671 1 1 .399.414.805.819 1.219 1.219.328.337.661.674 1 1 .315.323.645.624.969.938.304.312.594.634.906.938.257.265.519.523.781.781.358.374.724.732 1.094 1.094.363.377.718.76 1.094 1.125.364.376.748.73 1.125 1.094.421.432.844.866 1.281 1.281l.094.094c.199.187.392.379.594.563.232.238.451.486.688.719.358.374.724.732 1.094 1.094.363.377.718.76 1.094 1.125.364.376.748.73 1.125 1.094.328.337.661.674 1 1 .315.323.645.624.969.938.232.238.451.486.688.719.358.374.724.732 1.094 1.094.363.377.718.76 1.094 1.125.364.376.748.73 1.125 1.094.328.337.661.674 1 1 .315.323.645.624.969.938.232.238.451.486.688.719.358.374.724.732 1.094 1.094.326.339.664.671 1 1 .363.377.718.76 1.094 1.125.364.376.748.73 1.125 1.094.315.323.645.624.969.938.304.312.594.634.906.938.257.265.519.523.781.781.358.374.724.732 1.094 1.094.363.377.718.76 1.094 1.125.364.376.748.73 1.125 1.094.421.432.844.866 1.281 1.281l.094.094c.199.187.392.379.594.563.232.238.451.486.688.719.358.374.724.732 1.094 1.094.363.377.718.76 1.094 1.125.364.376.748.73 1.125 1.094.328.337.661.674 1 1 .315.323.645.624.969.938.232.238.451.486.688.719.358.374.724.732 1.094 1.094.326.339.664.671 1 1 .399.414.805.819 1.219 1.219.328.337.661.674 1 1 .315.323.645.624.969.938.232.238.451.486.688.719.398.416.805.818 1.219 1.219.288.297.579.586.875.875.363.377.718.76 1.094 1.125.364.376.748.73 1.125 1.094.421.432.844.866 1.281 1.281l.094.094c.199.187.392.379.594.563.232.238.451.486.688.719.358.374.724.732 1.094 1.094.363.377.718.76 1.094 1.125.364.376.748.73 1.125 1.094.328.337.661.674 1 1 .315.323.645.624.969.938.232.238.451.486.688.719.358.374.724.732 1.094 1.094.363.377.718.76 1.094 1.125.364.376.748.73 1.125 1.094.328.337.661.674 1 1 .315.323.645.624.969.938.232.238.451.486.688.719.358.374.724.732 1.094 1.094.326.339.664.671 1 1 .399.414.805.819 1.219 1.219.328.337.661.674 1 1 .315.323.645.624.969.938.304.312.594.634.906.938.257.265.519.523.781.781.358.374.724.732 1.094 1.094.363.377.718.76 1.094 1.125.364.376.748.73 1.125 1.094.421.432.844.866 1.281 1.281l.094.094c.199.187.392.379.594.563.232.238.451.486.688.719.358.374.724.732 1.094 1.094.363.377.718.76 1.094 1.125.364.376.748.73 1.125 1.094.328.337.661.674 1 1 .315.323.645.624.969.938.232.238.451.486.688.719.358.374.724.732 1.094 1.094.326.339.664.671 1 1 .399.414.805.819 1.219 1.219.328.337.661.674 1 1 .315.323.645.624.969.938.232.238.451.486.688.719.398.416.805.818 1.219 1.219.288.297.579.586.875.875.363.377.718.76 1.094 1.125.364.376.748.73 1.125 1.094.315.323.645.624.969.938.304.312.594.634.906.938.257.265.519.523.781.781.358.374.724.732 1.094 1.094.363.377.718.76 1.094 1.125.364.376.748.73 1.125 1.094.328.337.661.674 1 1 .315.323.645.624.969.938.232.238.451.486.688.719.358.374.724.732 1.094 1.094.363.377.718.76 1.094 1.125.364.376.748.73 1.125 1.094.328.337.661.674 1 1 .315.323.645.624.969.938.232.238.451.486.688.719.358.374.724.732 1.094 1.094.326.339.664.671 1 1 .399.414.805.819 1.219 1.219.328.337.661.674 1 1 .315.323.645.624.969.938.304.312.594.634.906.938.257.265.519.523.781.781.358.374.724.732 1.094 1.094.363.377.718.76 1.094 1.125.364.376.748.73 1.125 1.094.421.432.844.866 1.281 1.281l.094.094c.199.187.392.379.594.563.232.238.451.486.688.719.358.374.724.732 1.094 1.094.363.377.718.76 1.094 1.125.364.376.748.73 1.125 1.094.328.337.661.674 1 1 .315.323.645.624.969.938.232.238.451.486.688.719.358.374.724.732 1.094 1.094.363.377.718.76 1.094 1.125.364.376.748.73 1.125 1.094.328.337.661.674 1 1 .315.323.645.624.969.938.232.238.451.486.688.719.358.374.724.732 1.094 1.094.326.339.664.671 1 1 .363.377.718.76 1.094 1.125.364.376.748.73 1.125 1.094.119.122.253.226.375.344 91.89-25.98 159.22-110.45 159.22-210.66 0-6.123-.257-12.191-.75-18.19-.218-.22-.436-.441-.656-.656-.399-.415-.805-.819-1.219-1.219-.328-.337-.661-.674-1-1-.455-.466-.901-.928-1.375-1.375-.167-.167-.331-.336-.5-.5-.303-.312-.626-.602-.938-.906-.313-.325-.615-.653-.938-.969-.363-.377-.718-.76-1.094-1.125-.364-.376-.748-.73-1.125-1.094-.452-.463-.904-.931-1.375-1.375-.167-.167-.331-.336-.5-.5-.303-.312-.626-.602-.938-.906-.313-.325-.615-.653-.938-.969-.363-.377-.718-.76-1.094-1.125-.364-.376-.748-.73-1.125-1.094-.328-.337-.661-.674-1-1-.455-.466-.901-.928-1.375-1.375-.141-.141-.295-.267-.438-.406-.313-.325-.615-.653-.938-.969-.326-.339-.664-.671-1-1-.399-.415-.805-.819-1.219-1.219-.328-.337-.661-.674-1-1-.455-.466-.901-.928-1.375-1.375-.526-.56-1.071-1.092-1.625-1.625-.247-.253-.497-.503-.75-.75-.363-.377-.718-.76-1.094-1.125-.364-.376-.748-.73-1.125-1.094-.455-.466-.901-.928-1.375-1.375-.167-.167-.331-.336-.5-.5-.303-.312-.626-.602-.938-.906-.313-.325-.615-.653-.938-.969-.363-.377-.718-.76-1.094-1.125-.364-.376-.748-.73-1.125-1.094-.328-.337-.661-.674-1-1-.455-.466-.901-.928-1.375-1.375-.141-.141-.295-.267-.438-.406-.313-.325-.615-.653-.938-.969-.363-.377-.718-.76-1.094-1.125-.364-.376-.748-.73-1.125-1.094-.328-.337-.661-.674-1-1-.455-.466-.901-.928-1.375-1.375-.141-.141-.295-.267-.438-.406-.313-.325-.615-.653-.938-.969-.326-.339-.664-.671-1-1-.399-.415-.805-.819-1.219-1.219-.328-.337-.661-.674-1-1-.455-.466-.901-.928-1.375-1.375-.167-.167-.331-.336-.5-.5-.303-.312-.626-.602-.938-.906-.313-.325-.615-.653-.938-.969-.363-.377-.718-.76-1.094-1.125-.364-.376-.748-.73-1.125-1.094-.452-.463-.904-.931-1.375-1.375-.167-.167-.331-.336-.5-.5-.303-.312-.626-.602-.938-.906-.313-.325-.615-.653-.938-.969-.363-.377-.718-.76-1.094-1.125-.364-.376-.748-.73-1.125-1.094-.328-.337-.661-.674-1-1-.455-.466-.901-.928-1.375-1.375-.141-.141-.295-.267-.438-.406-.313-.325-.615-.653-.938-.969-.363-.377-.718-.76-1.094-1.125-.364-.376-.748-.73-1.125-1.094-.328-.337-.661-.674-1-1-.455-.466-.901-.928-1.375-1.375-.141-.141-.295-.267-.438-.406-.313-.325-.615-.653-.938-.969-.326-.339-.664-.671-1-1-.363-.377-.718-.76-1.094-1.125-.364-.376-.748-.73-1.125-1.094-.455-.466-.901-.928-1.375-1.375-.167-.167-.331-.336-.5-.5-.303-.312-.626-.602-.938-.906-.313-.325-.615-.653-.938-.969-.363-.377-.718-.76-1.094-1.125-.364-.376-.748-.73-1.125-1.094-.452-.463-.904-.931-1.375-1.375-.167-.167-.331-.336-.5-.5-.303-.312-.626-.602-.938-.906-.313-.325-.615-.653-.938-.969-.363-.377-.718-.76-1.094-1.125-.364-.376-.748-.73-1.125-1.094-.328-.337-.661-.674-1-1-.455-.466-.901-.928-1.375-1.375-.141-.141-.295-.267-.438-.406-.313-.325-.615-.653-.938-.969-.326-.339-.664-.671-1-1-.399-.415-.805-.819-1.219-1.219-.328-.337-.661-.674-1-1-.455-.466-.901-.928-1.375-1.375-.167-.167-.331-.336-.5-.5-.303-.312-.626-.602-.938-.906-.313-.325-.615-.653-.938-.969-.363-.377-.718-.76-1.094-1.125-.364-.376-.748-.73-1.125-1.094-8.368-8.576-20.04-13.906-32.969-13.906" fill-opacity=".235" transform="translate(0 540.36)"/>
  <g fill-rule="evenodd">
   <path d="m256 541.36c-140.83 0-255 114.17-255 255s114.17 255 255 255 255-114.17 255-255-114.17-255-255-255m8.827 44.931c120.9 0 218.9 98 218.9 218.9s-98 218.9-218.9 218.9-218.93-98-218.93-218.9 98.03-218.9 218.93-218.9" fill-opacity=".067"/>
   <g fill-opacity=".129">
    <path d="m256 544.79c-138.94 0-251.57 112.63-251.57 251.57s112.63 251.54 251.57 251.54 251.57-112.6 251.57-251.54-112.63-251.57-251.57-251.57m5.885 38.556c120.9 0 218.9 98 218.9 218.9s-98 218.9-218.9 218.9-218.93-98-218.93-218.9 98.03-218.9 218.93-218.9"/>
    <path d="m256 548.72c-136.77 0-247.64 110.87-247.64 247.64s110.87 247.64 247.64 247.64 247.64-110.87 247.64-247.64-110.87-247.64-247.64-247.64m2.942 31.691c120.9 0 218.9 98 218.9 218.9s-98 218.9-218.9 218.9-218.93-98-218.93-218.9 98.03-218.9 218.93-218.9"/>
   </g>
   <path d="m253.04 548.22c-135.42 0-245.19 109.78-245.19 245.19 0 135.42 109.78 245.19 245.19 245.19 135.42 0 245.19-109.78 245.19-245.19 0-135.42-109.78-245.19-245.19-245.19zm0 26.297c120.9 0 218.9 98 218.9 218.9s-98 218.9-218.9 218.9-218.93-98-218.93-218.9 98.03-218.9 218.93-218.9z" fill="#ffffff" stroke="#000000" stroke-opacity=".31" stroke-width="4.904"/>
  </g>
  <g fill="#ffffff" transform="matrix(.57066 0 0 .57066 -219.77 374.86)">
   <use height="1" transform="matrix(1.5385 0 0 1.5385 -312.8 440.55)" width="1" xlink:href="#a"/>
   <use height="1" transform="matrix(1.5385 0 0 1.5385 -12.08 290.97)" width="1" xlink:href="#a"/>
   <use height="1" transform="matrix(1.5385 0 0 1.5385 -12.08 589.98)" width="1" xlink:href="#a"/>
   <path d="m728.32 255.42c11.11 2.525 182.84 91.42 182.84 91.42l25-59.09-175.51-88.33z" transform="translate(0 540.36)"/>
   <path d="m941.46 646.53c-11.11 2.525-182.84 91.42-182.84 91.42l-25-59.09 175.51-88.33z"/>
  </g>
 </g>
</svg>
