<svg viewBox="0 0 512 512" xmlns="http://www.w3.org/2000/svg">
 <g fill-rule="evenodd">
  <path d="m470.41 253.05c0 120.9-98.01 218.91-218.91 218.91-120.9 0-218.91-98.01-218.91-218.91 0-120.9 98.01-218.91 218.91-218.91 120.9 0 218.91 98.01 218.91 218.91" fill="#787878"/>
  <path d="m256 1c-140.83 0-255 114.17-255 255 0 140.83 114.17 255 255 255 140.83 0 255-114.17 255-255 0-140.83-114.17-255-255-255m8.827 44.931c120.9 0 218.9 98 218.9 218.9 0 120.9-98 218.9-218.9 218.9-120.9 0-218.93-98-218.93-218.9 0-120.9 98.03-218.9 218.93-218.9" fill-opacity=".067"/>
  <g fill-opacity=".129">
   <path d="m256 4.43c-138.94 0-251.57 112.63-251.57 251.57 0 138.94 112.63 251.57 251.57 251.57 138.94 0 251.57-112.63 251.57-251.57 0-138.94-112.63-251.57-251.57-251.57m5.885 38.556c120.9 0 218.9 98 218.9 218.9 0 120.9-98 218.9-218.9 218.9-120.9 0-218.93-98-218.93-218.9 0-120.9 98.03-218.9 218.93-218.9"/>
   <path d="m256 8.36c-136.77 0-247.64 110.87-247.64 247.64 0 136.77 110.87 247.64 247.64 247.64 136.77 0 247.64-110.87 247.64-247.64 0-136.77-110.87-247.64-247.64-247.64m2.942 31.691c120.9 0 218.9 98 218.9 218.9 0 120.9-98 218.9-218.9 218.9-120.9 0-218.93-98-218.93-218.9 0-120.9 98.03-218.9 218.93-218.9"/>
  </g>
  <path d="m253.04 7.86c-135.42 0-245.19 109.78-245.19 245.19 0 135.42 109.78 245.19 245.19 245.19 135.42 0 245.19-109.78 245.19-245.19 0-135.42-109.78-245.19-245.19-245.19m0 26.297c120.9 0 218.9 98 218.9 218.9 0 120.9-98 218.9-218.9 218.9-120.9 0-218.93-98-218.93-218.9 0-120.9 98.03-218.9 218.93-218.9z" fill="#ffffff" stroke="#000000" stroke-opacity=".31" stroke-width="4.904"/>
 </g>
 <path d="m148.03 110.06c-2.307 0-4.156 1.849-4.156 4.156v283.56c0 1.149.459 2.185 1.205 2.936l67.854 67.854c12.521 2.226 25.41 3.389 38.57 3.389 107.7 0 197.24-77.78 215.5-180.23l-181.66-181.66v7.813l-7.813-7.813h-129.5" opacity=".25"/>
 <path d="m148.03 110.06c-2.307 0-4.156 1.849-4.156 4.156v283.56c0 2.307 1.849 4.156 4.156 4.156h215.94c2.307 0 4.156-1.849 4.156-4.156v-196.91h-64.62c-8.419-.098-20.268 2.339-24.938-6.875-2.405-27.821-.986-55.932-1.031-83.938h-129.5m137.31 0v78.63c0 2.307 1.849 4.188 4.156 4.188h78.63l-82.78-82.81m-50 90.03c1.389-.028 2.62 0 3.375 0 19.06 0 26.969 8.51 26.969 28.906v32.688c0 12.488 4.745 18.949 15.313 20.406v16.844c-10.567 1.457-15.313 7.919-15.313 20.406v32.688c0 20.396-7.91 28.938-26.969 28.938-1.51 0-4.888-.011-7.719-.219v-16.656c13.398-1.249 14.875-3.528 14.875-21.22v-25.594c0-16.234 4.357-23.13 17-26.875-12.454-3.33-17-10.422-17-26.656v-25.563c0-17.691-1.477-20-14.875-21.25v-16.656c1.415-.105 2.954-.159 4.344-.188" fill="#ffffff"/>
</svg>
