<svg height="1814.17" viewBox="0 0 512 512" width="1814.17" xmlns="http://www.w3.org/2000/svg">
 <g transform="matrix(3.7795274 0 0 3.7795274 204.57145 -330.8054)">
  <g fill-rule="evenodd" transform="matrix(.26458334 0 0 .26458334 -54.1262 87.525599)">
   <path d="m471.95 253.05c0 120.9-98.01 218.91-218.91 218.91-120.9 0-218.91-98.01-218.91-218.91 0-120.9 98.01-218.91 218.91-218.91 120.9 0 218.91 98.01 218.91 218.91" fill="#b0b0b0"/>
   <path d="m256 1c-140.83 0-255 114.17-255 255 0 140.83 114.17 255 255 255 140.83 0 255-114.17 255-255 0-140.83-114.17-255-255-255m8.827 44.931c120.9 0 218.9 98 218.9 218.9 0 120.9-98 218.9-218.9 218.9-120.9 0-218.93-98-218.93-218.9 0-120.9 98.03-218.9 218.93-218.9" fill-opacity=".067"/>
   <g fill-opacity=".129">
    <path d="m256 4.43c-138.94 0-251.57 112.63-251.57 251.57 0 138.94 112.63 251.57 251.57 251.57 138.94 0 251.57-112.63 251.57-251.57 0-138.94-112.63-251.57-251.57-251.57m5.885 38.556c120.9 0 218.9 98 218.9 218.9 0 120.9-98 218.9-218.9 218.9-120.9 0-218.93-98-218.93-218.9 0-120.9 98.03-218.9 218.93-218.9"/>
    <path d="m256 8.36c-136.77 0-247.64 110.87-247.64 247.64 0 136.77 110.87 247.64 247.64 247.64 136.77 0 247.64-110.87 247.64-247.64 0-136.77-110.87-247.64-247.64-247.64m2.942 31.691c120.9 0 218.9 98 218.9 218.9 0 120.9-98 218.9-218.9 218.9-120.9 0-218.93-98-218.93-218.9 0-120.9 98.03-218.9 218.93-218.9"/>
   </g>
   <path d="m253.04 7.86c-135.42 0-245.19 109.78-245.19 245.19 0 135.42 109.78 245.19 245.19 245.19 135.42 0 245.19-109.78 245.19-245.19 0-135.42-109.78-245.19-245.19-245.19m0 26.297c120.9 0 218.9 98 218.9 218.9 0 120.9-98 218.9-218.9 218.9-120.9 0-218.93-98-218.93-218.9 0-120.9 98.03-218.9 218.93-218.9z" fill="#ffffff" stroke="#000000" stroke-opacity=".31" stroke-width="4.904"/>
  </g>
  <path d="m35.387637 115.06079c-3.685381.0773-7.1755 1.43854-9.748838 4.01584l-44.791314 44.7384c-3.804444 3.77931-5.658908 8.79211-5.3975 13.88004.223308 4.43786 1.903942 8.3611 5.087938 11.54509l22.3017296 22.30173c3.243791.56357 6.579394.8599 9.9843174.8599 31.988126 0 57.919942-25.93181 57.919942-57.91994 0-4.37091-.48737-8.62779-1.4052-12.72116l-21.9128-21.9128c-.37385-.37385-.77073-.73395-1.19009-1.07685-3.045622-2.4675-6.459806-3.62135-10.109733-3.70681-.247121-.006-.493183-.007-.738981-.002" opacity=".25"/>
  <path d="m-19.150927 163.81291c-3.804444 3.77931-5.659173 8.79211-5.397765 13.8774.256381 5.09085 2.429933 9.50489 6.5913 12.90214 4.151048 3.40228 9.5408746 5.11863 15.1817916 4.83711l.009.009c5.633773-.28152 10.84289-3.16759 14.6473344-6.96198l39.057788-39.0234-4.33096-4.34895-39.4837764 39.43085c-2.703777 2.70378-6.15606096 5.21494-10.171642 5.41576-4.011083.19102-8.0756126-.77126-10.8045246-3.44488-2.814373-2.74902-4.448175-5.49037-4.62915-9.11383-.180975-3.61845 1.273439-7.05194 3.98727-9.75572l44.783377-44.74634c1.547813-1.54781 3.476625-2.40771 5.632715-2.34182 2.211387.0503 4.246562.70246 6.211358 2.30558 3.774282 3.08583 4.619623 8.14175 1.699684 11.06672l-37.1607314 37.10517c-1.291431 1.29672-3.422121.71491-4.321704-.23495-1.50759596-1.61316-.973667-3.25755-.325438-3.90578l29.7550434-29.718-4.321704-4.26773-30.7419394 30.72342c-3.005137 3.01043-1.894416 7.83722 1.573213 11.22892 3.653631 3.55309 9.551459 3.7121 12.7132294.56065l37.55761-37.57613c5.18662-5.18133 3.91821-13.96233-2.32357-19.06852-3.045624-2.4675-6.459807-3.62162-10.107089-3.70681-3.955256-.10054-7.744354 1.26524-10.488083 4.01452l-44.791314 44.7384" fill="#ffffff"/>
 </g>
</svg>
