<svg height="512" viewBox="0 0 512 512" width="512" xmlns="http://www.w3.org/2000/svg">
 <path d="m471.95 253.05c0 120.9-98.01 218.9-218.9 218.9-120.9 0-218.9-98.01-218.9-218.9 0-120.9 98.01-218.9 218.9-218.9 120.9 0 218.9 98.01 218.9 218.9" fill="#8f8f8f" fill-rule="evenodd"/>
 <path d="m214.13 140.25v107.72h-41.906l83.91 95.78.063-.063.063.063h-125.94v28c .285-.012.587-.063.875-.063h.125v1.063c.285-.012.587-.063.875-.063h.125v1.063c.285-.012.587-.063.875-.063h.125v1.063c.285-.012.587-.063.875-.063h.094v1.031c.285-.012.587-.063.875-.063h.125v1.063c.285-.012.587-.063.875-.063h.125v1.063c.285-.012.587-.063.875-.063h.125v1.063c.285-.012.587-.063.875-.063h.125v1.063c.285-.012.587-.063.875-.063h.125v1.063c.285-.012.587-.063.875-.063h.094v1.031c.285-.012.587-.063.875-.063h.125v1.063c.285-.012.587-.063.875-.063h.125v1.063c.285-.012.587-.063.875-.063h.125v1.063c.285-.012.587-.063.875-.063h.125v1.063c.285-.012.587-.063.875-.063h.125v1.063c.285-.012.587-.063.875-.063h.094v1.031c.285-.012.587-.063.875-.063h.125v1.063c.285-.012.587-.063.875-.063h.125v1.063c.285-.012.587-.063.875-.063h.125v1.063c.285-.012.587-.063.875-.063h.125v1.063c.285-.012.587-.063.875-.063h.125v1.063c.285-.012.587-.063.875-.063h.094v1.031c.285-.012.587-.063.875-.063h.125v1.063c.285-.012.587-.063.875-.063h.125v1.063c.285-.012.587-.063.875-.063h.125v1.063c.285-.012.587-.063.875-.063h.125v1.063c.285-.012.587-.063.875-.063h.125v1.063c.285-.012.587-.063.875-.063h.125v1.063c.285-.012.587-.063.875-.063h.094v1.031c.285-.012.587-.063.875-.063h.125v1.063c.285-.012.587-.063.875-.063h.125v1.063c.285-.012.587-.063.875-.063h.125v1.063c.285-.012.587-.063.875-.063h.125v1.063c.285-.012.587-.063.875-.063h.125v1.063c.285-.012.587-.063.875-.063h.094v1.031c.285-.012.587-.063.875-.063h.125v1.063c.285-.012.587-.063.875-.063h.125v1.063c.285-.012.587-.063.875-.063h.125v1.063c.285-.012.587-.063.875-.063h.125v1.063c.285-.012.587-.063.875-.063h.125v1.063c.285-.012.587-.063.875-.063h.094v1.031c.285-.012.587-.063.875-.063h.125v1.063c.285-.012.587-.063.875-.063h.125v1.063c.285-.012.587-.063.875-.063h.125v1.063c.285-.012.587-.063.875-.063h.125v1.063c.285-.012.587-.063.875-.063h.125v1.063c.285-.012.587-.063.875-.063h.125v1.063c.285-.012.587-.063.875-.063h.094v1.031c.285-.012.587-.063.875-.063h.125v1.063c.285-.012.587-.063.875-.063h.125v1.063c.285-.012.587-.063.875-.063h.125v1.063c.285-.012.587-.063.875-.063h.125v1.063c.285-.012.587-.063.875-.063h.125v1.063c.285-.012.587-.063.875-.063h.094v1.031c.285-.012.587-.063.875-.063h.125v1.063c.285-.012.587-.063.875-.063h.125v1.063c.285-.012.587-.063.875-.063h.125v1.063c.285-.012.587-.063.875-.063h.125v1.063c.285-.012.587-.063.875-.063h.125v1.063c.285-.012.587-.063.875-.063h.094v1.031c.285-.012.587-.063.875-.063h.125v1.063c.285-.012.587-.063.875-.063h.125v1.063c.285-.012.587-.063.875-.063h.125v1.063c.285-.012.587-.063.875-.063h.125v1.063c.285-.012.587-.063.875-.063h.125v1.063c.285-.012.587-.063.875-.063h.094v1.031c.285-.012.587-.063.875-.063h.125v1.063c.285-.012.587-.063.875-.063h.125v1.063c.285-.012.587-.063.875-.063h.125v1.063c.285-.012.587-.063.875-.063h.125v1.063c.285-.012.587-.063.875-.063h.125v1.063c.285-.012.587-.063.875-.063h.125v1.063c.285-.012.587-.063.875-.063h.094v1.031c.285-.012.587-.063.875-.063h.125v1.063c.285-.012.587-.063.875-.063h.125v1.063c.285-.012.587-.063.875-.063h.125v1.063c.285-.012.587-.063.875-.063h.125v1.063c.285-.012.587-.063.875-.063h.125v1.063c.285-.012.587-.063.875-.063h.094v1.031c.285-.012.587-.063.875-.063h.125v1.063c.285-.012.587-.063.875-.063h.125v1.063c.285-.012.587-.063.875-.063h.125v1.063c.285-.012.587-.063.875-.063h.125v1.063c.285-.012.587-.063.875-.063h.125v1.063c.285-.012.587-.063.875-.063h.094v1.031c.285-.012.587-.063.875-.063h.125v1.063c.285-.012.587-.063.875-.063h.125v1.063c.285-.012.587-.063.875-.063h.125v1.063c.285-.012.587-.063.875-.063h.125v1.063c.285-.012.587-.063.875-.063h.125v1.063c.285-.012.587-.063.875-.063h.125v1.063c.285-.012.587-.063.875-.063h.094v1.031c.285-.012.587-.063.875-.063h.125v1.063c.285-.012.587-.063.875-.063h.125v1.063c.285-.012.587-.063.875-.063h.125v1.063c.285-.012.587-.063.875-.063h.125v1.063c.285-.012.587-.063.875-.063h.125v1.063c.285-.012.587-.063.875-.063h.094v1.031c.285-.012.587-.063.875-.063h.125v1.063c.285-.012.587-.063.875-.063h.125v.531c7.632.805 15.373 1.25 23.22 1.25 101.96 0 187.66-69.73 212-164.09v-.469h-1v-1h-.969v-.969h-1v-1h-1v-1h-1v-1h-1v-1h-1v-1h-.969v-.969h-1v-1h-1v-1h-1v-1h-1v-1h-1v-1h-1v-1h-.969v-.969h-1v-1h-1v-1h-1v-1h-1v-1h-1v-1h-.969v-.969h-1v-1h-1v-1h-1v-1h-1v-1h-1v-1h-.969v-.969h-1v-1h-1v-1h-1v-1h-1v-1h-1v-1h-.969v-.969h-1v-1h-1v-1h-1v-1h-1v-1h-1v-1h-1v-1h-.969v-.969h-1v-1h-1v-1h-1v-1h-1v-1h-1v-1h-.969v-.969h-1v-1h-1v-1h-1v-1h-1v-1h-1v-1h-.969v-.969h-1v-1h-1v-1h-1v-1h-1v-1h-1v-1h-1v-1h-.969v-.969h-1v-1h-1v-1h-1v-1h-1v-1h-1v-1h-.969v-.969h-1v-1h-1v-1h-1v-1h-1v-1h-1v-1h-.969v-.969h-1v-1h-1v-1h-1v-1h-1v-1h-1v-1h-.969v-.99h-1v-1h-1v-1h-1v-1h-1v-1h-1v-1h-1v-1h-.969v-.969h-1v-1h-1v-1h-1v-1h-1v-1h-1v-1h-.969v-.969h-1v-1h-1v-1h-1v-1h-1v-1h-1v-1h-.969v-.969h-1v-1h-1v-1h-1v-1h-1v-1h-1v-1h-1v-1h-.969v-.969h-1v-1h-1v-1h-1v-1h-1v-1h-1v-1h-.969v-.969h-1v-1h-1v-1h-1v-1h-1v-1h-1v-1h-.969v-.969h-1v-1h-1v-1h-1v-1h-1v-1h-1v-1h-.969v-.969h-1v-1h-1v-1h-1v-1h-1v-1h-1v-1h-1v-1h-.8v-.969h-1v-1h-1v-1h-1v-1h-1v-1h-1v-1h-.969v-.969h-1v-1h-1v-1h-1v-1h-1v-1h-1v-1h-.969v-.969h-1v-1h-1v-1h-1v-1h-1v-1h-1v-1h-1v-1h-.969v-.969h-1v-1h-1v-1h-1v-1h-1v-1h-1v-1h-.969v-.969h-1v-1h-1v-1h-1v-1h-1v-1h-1v-1h-.969v-.969h-1v-1h-1v-1h-1v-1h-1v-1h-1v-1h-.969v-.969h-1v-1h-1v-1h-1v-1h-83.75" fill-opacity=".235"/>
 <g fill-rule="evenodd">
  <path d="m256 1c-140.83 0-255 114.17-255 255s114.17 255 255 255 255-114.17 255-255-114.17-255-255-255m8.827 44.931c120.9 0 218.9 98 218.9 218.9s-98 218.9-218.9 218.9-218.93-98-218.93-218.9 98.03-218.9 218.93-218.9" fill-opacity=".067"/>
  <g fill-opacity=".129">
   <path d="m256 4.433c-138.94 0-251.57 112.63-251.57 251.57s112.63 251.57 251.57 251.57 251.57-112.63 251.57-251.57-112.63-251.57-251.57-251.57m5.885 38.556c120.9 0 218.9 98 218.9 218.9s-98 218.9-218.9 218.9-218.93-98-218.93-218.9 98.03-218.9 218.93-218.9"/>
   <path d="m256 8.356c-136.77 0-247.64 110.87-247.64 247.64s110.87 247.64 247.64 247.64 247.64-110.87 247.64-247.64-110.87-247.64-247.64-247.64m2.942 31.691c120.9 0 218.9 98 218.9 218.9s-98 218.9-218.9 218.9-218.93-98-218.93-218.9 98.03-218.9 218.93-218.9"/>
  </g>
  <path d="m253.04 7.859c-135.42 0-245.19 109.78-245.19 245.19 0 135.42 109.78 245.19 245.19 245.19 135.42 0 245.19-109.78 245.19-245.19 0-135.42-109.78-245.19-245.19-245.19zm0 26.297c120.9 0 218.9 98 218.9 218.9s-98 218.9-218.9 218.9-218.93-98-218.93-218.9 98.03-218.9 218.93-218.9z" fill="#ffffff" stroke="#000000" stroke-opacity=".31" stroke-width="4.904"/>
 </g>
 <path d="m214.11 140.26v107.71h-41.89l83.9 95.77 83.66-95.77h-41.89v-107.71zm42.01 203.48h-125.79v27.991c.285-.012.565-.043.854-.043h250.49v-27.95h-125.55" fill="#ffffff"/>
</svg>
