<svg height="512" viewBox="0 0 135.47 135.47" width="512" xmlns="http://www.w3.org/2000/svg">
 <g transform="translate(0 -161.53334)">
  <path d="m124.8701 228.48615c0 31.98813-25.931809 57.91994-57.919935 57.91994-31.988126 0-57.9199392-25.93181-57.9199392-57.91994 0-31.98812 25.9318132-57.91993 57.9199392-57.91993 31.988126 0 57.919935 25.93181 57.919935 57.91993" fill="#a4a4a4" fill-rule="evenodd"/>
  <path d="m67.733331 161.79792c-37.261271 0-67.46875126 30.20748-67.46875126 67.46876 0 37.26127 30.20748026 67.46875 67.46875126 67.46875 37.261269 0 67.468749-30.20748 67.468749-67.46875 0-37.26128-30.20748-67.46876-67.468749-67.46876m2.335478 11.888c31.988121 0 57.917291 25.92916 57.917291 57.91729 0 31.98813-25.92917 57.91729-57.917291 57.91729-31.988126 0-57.925231-25.92916-57.925231-57.91729 0-31.98813 25.937105-57.91729 57.925231-57.91729" fill-opacity=".067" fill-rule="evenodd"/>
  <g fill-opacity=".129" fill-rule="evenodd" transform="matrix(.26458334 0 0 .26458334 -.0000036 161.53334)">
   <path d="m256 4.43c-138.94 0-251.57 112.63-251.57 251.57 0 138.94 112.63 251.57 251.57 251.57 138.94 0 251.57-112.63 251.57-251.57 0-138.94-112.63-251.57-251.57-251.57m5.885 38.556c120.9 0 218.9 98 218.9 218.9 0 120.9-98 218.9-218.9 218.9-120.9 0-218.93-98-218.93-218.9 0-120.9 98.03-218.9 218.93-218.9"/>
   <path d="m256 8.36c-136.77 0-247.64 110.87-247.64 247.64 0 136.77 110.87 247.64 247.64 247.64 136.77 0 247.64-110.87 247.64-247.64 0-136.77-110.87-247.64-247.64-247.64m2.942 31.691c120.9 0 218.9 98 218.9 218.9 0 120.9-98 218.9-218.9 218.9-120.9 0-218.93-98-218.93-218.9 0-120.9 98.03-218.9 218.93-218.9"/>
  </g>
  <path d="m66.950165 163.61297c-35.829876 0-64.8731894 29.04595-64.8731894 64.87318 0 35.82988 29.0459594 64.87319 64.8731894 64.87319 35.829875 0 64.873185-29.04596 64.873185-64.87319 0-35.82987-29.04596-64.87318-64.873185-64.87318m0 6.95774c31.988126 0 57.917295 25.92917 57.917295 57.9173 0 31.98812-25.929169 57.91729-57.917295 57.91729-31.988126 0-57.9252309-25.92917-57.9252309-57.91729 0-31.98813 25.9371049-57.9173 57.9252309-57.9173z" fill="#ffffff" fill-rule="evenodd" stroke="#000000" stroke-opacity=".31" stroke-width="1.298"/>
  <path d="m61.084353 186.23748v6.64898h-6.357938v14.95425l5.1816 5.1816h-3.801269l-6.727825-6.72782h-14.984148v8.0764l6.908271 6.90828 3.312583 3.31258h-3.447521v21.60323l4.621478 4.62148h-4.487598v6.90827h-6.908272v8.07587l19.008197 19.0082c4.345781 1.0414 8.88074 1.59808 13.546667 1.59808 31.45896 0 57.057402-25.07985 57.896132-56.33508l-23.77546-23.77546h-6.625171l-20.055417-20.05542h-13.305897" fill-opacity=".929" opacity=".25"/>
  <path d="m61.084353 186.23748v6.64898h-6.357938v14.95425h6.357938v5.1816h-6.357938v4.7625h-5.347229v-11.49085h-14.984413v8.07614h6.908271v6.90827h6.451336v3.31259h-6.58548v21.60322h6.58548v4.62175h-6.451336v6.90827h-6.908271v8.07614h14.984413v-12.87039h5.347229v6.60135h26.214918v-6.60135h5.142177v12.87039h14.98442v-8.07614h-6.908278v-6.90827h-6.246284v-4.62175h6.577542v-21.60322h-6.577542v-3.31259h6.246284v-6.90827h6.908278v-8.07614h-14.98442v11.49085h-5.142177v-4.7625h-6.553994v-5.1816h6.553994v-14.95425h-6.553994v-6.64898h-13.305897" fill="#ffffff"/>
 </g>
</svg>
