<svg height="512" viewBox="0 0 135.47 135.47" width="512" xmlns="http://www.w3.org/2000/svg">
 <g transform="translate(-125.79048 46.65595)">
  <g fill-rule="evenodd" transform="matrix(.26458334 0 0 .26458334 125.79047 -46.655953)">
   <path d="m471.95 253.05c0 120.9-98.01 218.91-218.91 218.91-120.9 0-218.91-98.01-218.91-218.91 0-120.9 98.01-218.91 218.91-218.91 120.9 0 218.91 98.01 218.91 218.91" fill="#9f9f9f"/>
   <path d="m256 1c-140.83 0-255 114.17-255 255 0 140.83 114.17 255 255 255 140.83 0 255-114.17 255-255 0-140.83-114.17-255-255-255m8.827 44.931c120.9 0 218.9 98 218.9 218.9 0 120.9-98 218.9-218.9 218.9-120.9 0-218.93-98-218.93-218.9 0-120.9 98.03-218.9 218.93-218.9" fill-opacity=".067"/>
   <g fill-opacity=".129">
    <path d="m256 4.43c-138.94 0-251.57 112.63-251.57 251.57 0 138.94 112.63 251.57 251.57 251.57 138.94 0 251.57-112.63 251.57-251.57 0-138.94-112.63-251.57-251.57-251.57m5.885 38.556c120.9 0 218.9 98 218.9 218.9 0 120.9-98 218.9-218.9 218.9-120.9 0-218.93-98-218.93-218.9 0-120.9 98.03-218.9 218.93-218.9"/>
    <path d="m256 8.36c-136.77 0-247.64 110.87-247.64 247.64 0 136.77 110.87 247.64 247.64 247.64 136.77 0 247.64-110.87 247.64-247.64 0-136.77-110.87-247.64-247.64-247.64m2.942 31.691c120.9 0 218.9 98 218.9 218.9 0 120.9-98 218.9-218.9 218.9-120.9 0-218.93-98-218.93-218.9 0-120.9 98.03-218.9 218.93-218.9"/>
   </g>
   <path d="m253.04 7.86c-135.42 0-245.19 109.78-245.19 245.19 0 135.42 109.78 245.19 245.19 245.19 135.42 0 245.19-109.78 245.19-245.19 0-135.42-109.78-245.19-245.19-245.19m0 26.297c120.9 0 218.9 98 218.9 218.9 0 120.9-98 218.9-218.9 218.9-120.9 0-218.93-98-218.93-218.9 0-120.9 98.03-218.9 218.93-218.9z" fill="#ffffff" stroke="#000000" stroke-opacity=".31" stroke-width="4.904"/>
  </g>
  <path d="m182.07264-16.080702c-.33231 0-13.39612 7.749646-13.90121 8.249708-.27067.268288-.21219.47334.41302 1.502834 6.90033 11.364913 11.49879 19.211396 11.3403 19.351625-.10848.09657-4.26773.04789-9.23872-.106362-4.97152-.154517-10.18937-.293952-11.5951-.303213h-2.55587l-.12409 8.299715c-.0765 4.876271-.0484 8.380942.0693 8.503709v.000529l14.64733 14.647334c-1.79678 3.031596-3.18029 5.519738-3.12843 5.654411.003.0079.0119.01931.0265.0336l28.34481 28.34481c29.18882-1.805248 52.52242-25.225371 54.19194-54.448601l-31.38487-31.384876c-.13653-.136525-1.35996-.890323-2.79321-1.730111-1.48828-.872331-4.60772-2.719387-6.93738-4.099983-2.32965-1.380331-4.32884-2.50534-4.44367-2.50534-.16828 0-3.82694 6.732853-8.07509 14.843126l-14.82196-14.821959-.032-.03254" opacity=".25"/>
  <path d="m182.07264-16.078056c-.33231 0-13.39665 7.749646-13.90385 8.249708-.27067.268288-.21167.473604.41328 1.502834 6.90033 11.364912 11.49614 19.211396 11.34004 19.351625-.10848.09657-4.26773.04815-9.23872-.106098-4.97152-.154516-10.18911-.293952-11.5951-.303212h-2.55588l-.12409 8.29945c-.0765 4.876271-.0484 8.380942.0691 8.503709.18865.200289 14.69496-.127794 20.65338-.465667 2.05475-.115887 2.49502-.08202 2.59741.188119.0701.188119-.86122 1.973527-2.16323 4.14999-1.25783 2.102379-3.94944 6.600296-5.98011 9.993312-2.03042 3.393282-3.6449 6.28994-3.58934 6.436255.14261.378883 13.38765 8.143611 13.91682 8.158961.40772 0 3.42688-5.468942 10.32139-18.731182.51647-.993511 1.0848-1.806575 1.26074-1.806575.1958 0 2.22647 3.642254 5.22923 9.372335 6.20633 11.844072 6.03488 11.517582 6.15156 11.517582.0548 0 1.51157-.85117 3.23797-1.88384 1.72641-1.03346 4.89559-2.918352 7.04797-4.199464 2.15239-1.280055 3.91319-2.421467 3.91319-2.533915 0-.113506-2.05052-3.630877-4.56089-7.819496-2.51036-4.189413-5.23081-8.733896-6.0489-10.099146-.83582-1.396207-1.40917-2.572015-1.30202-2.681817.10716-.110861 5.18928-.04815 11.62262.139964 6.28518.188119 11.51308.268288 11.61574.168805.24924-.238919.39714-16.668751.15161-16.824855-.10584-.06747-4.89083.03149-10.63096.219604-12.47246.405077-12.75292.407988-12.75292.106098 0-.130175 2.00448-3.559704 4.45056-7.621852 7.30329-12.129559 7.66656-12.752918 7.5647-12.922251-.0537-.09181-1.31577-.871273-2.80406-1.743604-1.48828-.872331-4.60798-2.719388-6.93737-4.099984-2.32966-1.380331-4.32911-2.505075-4.44368-2.505075-.186 0-4.63179 8.212667-9.4316 17.438953-1.13559 2.182283-1.84309 3.311525-2.05317 3.274748-.17621-.03148-2.75563-4.700852-5.73193-10.38225-3.0816-5.881688-5.53905-10.33198-5.7113-10.33198z" fill="#ffffff"/>
 </g>
</svg>
