<svg height="512" viewBox="0 0 512 512" width="512" xmlns="http://www.w3.org/2000/svg">
 <path d="m471.95 253.05c0 120.9-98.01 218.9-218.9 218.9-120.9 0-218.9-98.01-218.9-218.9 0-120.9 98.01-218.9 218.9-218.9 120.9 0 218.9 98.01 218.9 218.9" fill="#9f9f9f" fill-rule="evenodd"/>
 <path d="m256 1c-140.83 0-255 114.17-255 255 0 140.83 114.17 255 255 255 140.83 0 255-114.17 255-255 0-140.83-114.17-255-255-255m8.827 44.931c120.9 0 218.9 98 218.9 218.9 0 120.9-98 218.9-218.9 218.9-120.9 0-218.93-98-218.93-218.9 0-120.9 98.03-218.9 218.93-218.9" fill-opacity=".067" fill-rule="evenodd"/>
 <g fill-opacity=".129" fill-rule="evenodd">
  <path d="m256 4.433c-138.94 0-251.57 112.63-251.57 251.57 0 138.94 112.63 251.57 251.57 251.57 138.94 0 251.57-112.63 251.57-251.57 0-138.94-112.63-251.57-251.57-251.57m5.885 38.556c120.9 0 218.9 98 218.9 218.9 0 120.9-98 218.9-218.9 218.9-120.9 0-218.93-98-218.93-218.9 0-120.9 98.03-218.9 218.93-218.9"/>
  <path d="m256 8.356c-136.77 0-247.64 110.87-247.64 247.64 0 136.77 110.87 247.64 247.64 247.64 136.77 0 247.64-110.87 247.64-247.64 0-136.77-110.87-247.64-247.64-247.64m2.942 31.691c120.9 0 218.9 98 218.9 218.9 0 120.9-98 218.9-218.9 218.9-120.9 0-218.93-98-218.93-218.9 0-120.9 98.03-218.9 218.93-218.9"/>
 </g>
 <path d="m304.0859 99.409715l-.0246 59.319195 51.51613 48.86768 1.0676 3.44856-106.73774-110.54334 29.97988 75.63978 33.19258 34.94727-.11126 8.81528-88.95431-101.36986c-24.46193 21.03233-44.80052 45.77771-73.41046 59.36556l-34.41877 23.61406-31.353353 55.83374-4.789775 12.17229 203.297408 203.01917c10.42712 18.24745 224.03098-90.66704 190.8849-217.43278l-66.71704-77.77481-9.28562 24.36457" opacity=".25"/>
 <path d="m253.04 7.859c-135.42 0-245.19 109.78-245.19 245.19 0 135.42 109.78 245.19 245.19 245.19 135.42 0 245.19-109.78 245.19-245.19 0-135.42-109.78-245.19-245.19-245.19zm0 26.297c120.9 0 218.9 98 218.9 218.9 0 120.9-98 218.9-218.9 218.9-120.9 0-218.93-98-218.93-218.9 0-120.9 98.03-218.9 218.93-218.9z" fill="#ffffff" fill-rule="evenodd" stroke="#000000" stroke-opacity=".31" stroke-width="4.904"/>
 <g fill="#ffffff" transform="matrix(.90666959 0 0 .90666959 22.68201 23.391037)">
  <path d="m424.44286 169.69974l-2.0572.33341-2.05722.32582c-64.78702 9.37866-134.2427 19.15547-189.71037 56.0978-26.28024 17.29051-53.20358 40.74074-59.89778 72.24861-7.82537 36.83201 2.35379 70.85166 29.31998 98.71576 35.8107 37.00317 90.52522 52.62042 136.91623 25.68293 20.49178-11.89876 36.13496-31.16408 47.94853-51.58937 16.7819-29.01538 23.87474-62.54303 29.95268-95.1507 6.5314-35.04049 6.15016-71.14003 9.58515-106.66426zm-22.8263 20.52285l5.33813 4.94413c-18.71721 20.20072-34.53041 37.24381-49.72539 53.61248 8.55535 6.40151 19.33783 10.39552 32.3357 12.33948l-1.07595 7.19454c-14.15269-2.11667-26.29372-6.89045-36.01822-14.40425-12.95688 13.95492-23.74201 25.54971-34.31337 36.91233 12.8238 10.12976 29.16718 16.40745 48.90706 19.35975l-1.07597 7.19455c-20.8697-3.12126-38.59308-10.18514-52.59334-21.43212-14.30085 15.36625-26.64102 28.60969-36.92751 39.6212 15.15009 12.19475 34.5409 19.73038 57.97697 23.23548l-1.07597 7.19454c-24.55923-3.67308-45.32537-12.01932-61.65569-25.33436-14.07221 15.05458-24.10775 25.73568-31.71057 33.79809 12.86536 10.25999 29.30776 16.60195 49.19117 19.5757l-1.07594 7.19077c-21.02619-3.14467-38.85509-10.29617-52.90402-21.68974-14.67449 15.51716-16.9502 17.69278-16.9502 17.69278l-4.83426-5.43666c0 0 2.12526-2.02466 16.34402-17.06384-12.84686-12.36456-21.94022-28.88836-26.70585-49.81252l7.09226-1.61395c4.49886 19.75281 12.6796 35.01997 24.3948 46.3573 7.55184-8.01037 17.51854-18.62869 31.68785-33.7905-15.23371-14.4055-25.98757-33.78111-31.6045-58.44296l7.09226-1.61394c5.34913 23.48604 15.17159 41.59367 29.26315 54.96502 10.26715-10.99312 22.61603-24.24134 36.93127-39.62498-12.99695-12.3947-22.18552-29.01106-26.9862-50.08907l7.09226-1.61397c4.53038 19.89121 12.79001 35.23854 24.63729 46.59979 10.56783-11.36012 21.34779-22.95075 34.31712-36.9199-8.8148-8.6728-15.08864-20.15216-18.37091-34.56341l7.09226-1.61772c3.00717 13.20329 8.36038 23.42459 16.0182 31.0703 15.22935-16.40654 31.10509-33.5183 49.89209-53.79434z"/>
  <g fill-rule="evenodd" transform="matrix(.35997784 .50516429 -.50516429 .35997784 499.83873 -234.35964)">
   <path d="m185.53 141.97v245.63l56.656 109.75a15.316 17.064 0 0 0 15.469 8.5 15.316 17.064 0 0 0 11.031-8.4062l57.75-111v-244.47h-140.91m71.344 211.97a4.2743 4.2743 0 0 1 3.4375 1.375l24.03 26.375h9.219a4.2743 4.2743 0 0 1 3.6875 6.4062l-29.16 50.44a4.2743 4.2743 0 0 1 -3.6875 2.1562h-15.438a4.2743 4.2743 0 0 1 -3.75-2.1875l-29.28-52.5a4.2743 4.2743 0 0 1 3.7188-6.375h12.406l21.938-24.281a4.2743 4.2743 0 0 1 2.875-1.4062" transform="translate(0 540.36)"/>
   <rect height="56.5" rx="62.13" ry="28.25" width="140.92" x="185.55" y="546.36"/>
   <path d="m185.55 574.38h140.92v33.24h-140.92z"/>
   <path d="m185.55 625.89h140.92v34.899h-140.92z"/>
  </g>
 </g>
</svg>
