<svg height="512" viewBox="0 0 512 512" width="512" xmlns="http://www.w3.org/2000/svg">
 <path d="m471.95 253.05c0 120.9-98.01 218.9-218.9 218.9-120.9 0-218.9-98.01-218.9-218.9 0-120.9 98.01-218.9 218.9-218.9 120.9 0 218.9 98.01 218.9 218.9" fill="#787878" fill-rule="evenodd"/>
 <path d="m256 1c-140.83 0-255 114.17-255 255 0 140.83 114.17 255 255 255 140.83 0 255-114.17 255-255 0-140.83-114.17-255-255-255m8.827 44.931c120.9 0 218.9 98 218.9 218.9 0 120.9-98 218.9-218.9 218.9-120.9 0-218.93-98-218.93-218.9 0-120.9 98.03-218.9 218.93-218.9" fill-opacity=".067" fill-rule="evenodd"/>
 <g fill-opacity=".129" fill-rule="evenodd">
  <path d="m256 4.433c-138.94 0-251.57 112.63-251.57 251.57 0 138.94 112.63 251.57 251.57 251.57 138.94 0 251.57-112.63 251.57-251.57 0-138.94-112.63-251.57-251.57-251.57m5.885 38.556c120.9 0 218.9 98 218.9 218.9 0 120.9-98 218.9-218.9 218.9-120.9 0-218.93-98-218.93-218.9 0-120.9 98.03-218.9 218.93-218.9"/>
  <path d="m256 8.356c-136.77 0-247.64 110.87-247.64 247.64 0 136.77 110.87 247.64 247.64 247.64 136.77 0 247.64-110.87 247.64-247.64 0-136.77-110.87-247.64-247.64-247.64m2.942 31.691c120.9 0 218.9 98 218.9 218.9 0 120.9-98 218.9-218.9 218.9-120.9 0-218.93-98-218.93-218.9 0-120.9 98.03-218.9 218.93-218.9"/>
 </g>
 <path d="m372.47826 102.12362l-38.02749 177.74729-143.52474-164.97711c-102.427987 141.63917-25.90566 169.25535-24.90133 275.84064l106.90403 86.08302c107.29235-14.34865 205.1441-121.20284 204.84279-235.00313-.0405-15.3013-10.65691-38.43171-13.43041-52.9312" opacity=".25"/>
 <path d="m253.04 7.859c-135.42 0-245.19 109.78-245.19 245.19 0 135.42 109.78 245.19 245.19 245.19 135.42 0 245.19-109.78 245.19-245.19 0-135.42-109.78-245.19-245.19-245.19zm0 26.297c120.9 0 218.9 98 218.9 218.9 0 120.9-98 218.9-218.9 218.9-120.9 0-218.93-98-218.93-218.9 0-120.9 98.03-218.9 218.93-218.9z" fill="#ffffff" fill-rule="evenodd" stroke="#000000" stroke-opacity=".31" stroke-width="4.904"/>
 <path d="m72.009712 306.81787l5.443755 1.47891-1.478911 16.23593c-.283479 3.11212.566406 5.37761 1.699219 6.75782 1.132812 1.36719 2.968749 2.05078 5.507812 2.05078 2.526042 0 4.355469-.68359 5.488281-2.05078 1.132813-1.38021 1.699219-3.63282 1.699219-6.75782l-.941125-16.23593 4.905969-1.47891v18.20313c0 3.80208-.94401 6.67317-2.832031 8.61328-1.875 1.9401-4.648438 2.91015-8.320313 2.91015-3.684896 0-6.471354-.97005-8.359375-2.91015-1.875-1.94011-2.8125-4.8112-2.8125-8.61328z" fill="#ffffff" transform="matrix(10.731433 0 0 10.731433 -640.21235 -3192.0985)"/>
</svg>
