<svg viewBox="0 0 512 512" xmlns="http://www.w3.org/2000/svg">
 <g fill-rule="evenodd">
  <path d="m471.95 253.05c0 120.9-98.01 218.91-218.91 218.91s-218.91-98.01-218.91-218.91 98.01-218.91 218.91-218.91 218.91 98.01 218.91 218.91" fill="#9f9f9f"/>
  <path d="m256 1c-140.83 0-255 114.17-255 255s114.17 255 255 255 255-114.17 255-255-114.17-255-255-255m8.827 44.931c120.9 0 218.9 98 218.9 218.9s-98 218.9-218.9 218.9-218.93-98-218.93-218.9 98.03-218.9 218.93-218.9" fill-opacity=".067"/>
  <g fill-opacity=".129" transform="translate(0 -540.36)">
   <path d="m256 544.79c-138.94 0-251.57 112.63-251.57 251.57s112.63 251.57 251.57 251.57 251.57-112.63 251.57-251.57-112.63-251.57-251.57-251.57m5.885 38.556c120.9 0 218.9 98 218.9 218.9s-98 218.9-218.9 218.9-218.93-98-218.93-218.9 98.03-218.9 218.93-218.9"/>
   <path d="m256 548.72c-136.77 0-247.64 110.87-247.64 247.64s110.87 247.64 247.64 247.64 247.64-110.87 247.64-247.64-110.87-247.64-247.64-247.64m2.942 31.691c120.9 0 218.9 98 218.9 218.9s-98 218.9-218.9 218.9-218.93-98-218.93-218.9 98.03-218.9 218.93-218.9"/>
  </g>
  <path d="m253.04 7.86c-135.42 0-245.19 109.78-245.19 245.19 0 135.42 109.78 245.19 245.19 245.19 135.42 0 245.19-109.78 245.19-245.19 0-135.42-109.78-245.19-245.19-245.19m0 26.297c120.9 0 218.9 98 218.9 218.9s-98 218.9-218.9 218.9-218.93-98-218.93-218.9 98.03-218.9 218.93-218.9z" fill="#ffffff" stroke="#000000" stroke-opacity=".31" stroke-width="4.904"/>
 </g>
 <path d="m256.28 100.15c-22.957-.189-45.24 9.104-61.91 26.549-11.955 12.507-19.319 25.6-23.654 42.05-3.591 13.63-3.792 34.988-.447 47.557 3.03 11.39 15.929 37.1 32.453 64.7 15.26 25.495 25.792 46.26 32.361 63.836 2.984 7.994 6.067 17.554 8.252 25.354.079.283.14.527.217.805l-54.711-54.711c-.213-.209-6.153.84-13.213 2.33-50.05 10.563-74.5 30.388-64.31 52.13.271.579.576 1.154.902 1.725.046.081.09.162.137.242.321.548.672 1.091 1.043 1.631.061.089.123.179.186.268.382.543.787 1.082 1.219 1.617.057.07.116.141.174.211.456.554.933 1.105 1.441 1.65.01.011.019.023.029.033.296.316.599.63.912.943l87.57 87.57c15.48 3.471 31.574 5.316 48.1 5.316 111.99 0 204.32-84.09 217.33-192.58l-154.43-154.43c-.051-.051-.103-.098-.154-.148-.364-.362-.729-.712-1.094-1.064-.325-.314-.649-.631-.975-.938-.346-.325-.695-.64-1.043-.957-.345-.314-.689-.63-1.035-.936-.324-.286-.649-.565-.975-.844-.386-.331-.772-.661-1.16-.982-.312-.258-.626-.508-.939-.76-.383-.307-.768-.614-1.154-.912-.347-.268-.696-.53-1.045-.791-.359-.268-.72-.534-1.082-.795-.353-.254-.709-.503-1.064-.75-.384-.267-.77-.53-1.158-.789-.35-.234-.703-.464-1.057-.691-.385-.247-.773-.49-1.162-.73-.371-.229-.744-.457-1.119-.68-.377-.224-.759-.443-1.141-.66-.387-.221-.776-.44-1.168-.654-.394-.215-.792-.426-1.191-.635-.387-.203-.774-.407-1.166-.604-.442-.222-.891-.436-1.34-.65-.349-.167-.696-.335-1.049-.498-.478-.22-.965-.433-1.451-.646-.363-.159-.724-.322-1.092-.477-.441-.186-.892-.365-1.34-.545-.427-.171-.85-.345-1.283-.512-.46-.177-.932-.346-1.4-.518-.403-.148-.8-.298-1.209-.441-.679-.238-1.372-.467-2.068-.695-.224-.073-.442-.152-.668-.225-.941-.301-1.897-.593-2.871-.877-7.62-2.22-15.348-3.337-23-3.4" opacity=".25"/>
 <path d="m223.65 410.8c-59.5-4.361-102.85-19.813-112.33-40.05-10.19-21.743 14.264-41.567 64.31-52.13 7.06-1.49 13-2.539 13.213-2.33.209.209-3.489 1.415-8.217 2.681-29.603 7.923-43.23 24.483-32.686 39.706 9.66 13.939 43.06 24.287 86.53 26.81l12.381.719-.766-4.595c-1.196-7.177-6.225-23.98-11-36.77-6.569-17.578-17.1-38.34-32.36-63.835-16.524-27.595-29.42-53.31-32.453-64.7-3.345-12.569-3.144-33.926.447-47.556 4.335-16.451 11.7-29.543 23.655-42.05 22.23-23.26 54.43-32.03 84.91-23.15 15.849 4.621 27.19 11.466 38.36 23.15 15.465 16.179 23.527 33.466 26.16 56.08 1.468 12.629.286 25.966-3.341 37.71-3.541 11.466-14.297 32.873-28.432 56.59-20.16 33.831-28.1 49.5-36.33 71.76-2.771 7.494-10.289 34.08-10.298 36.413 0 1.306 20.649-.088 37.566-2.536 33.17-4.8 54.951-14.03 61.23-25.954 8.03-15.24-4.075-28.878-33.58-37.829-11.879-3.603-10.211-3.684 5.886-.286 34.498 7.284 57.664 19.304 64.18 33.3 11.596 24.902-21.727 46.845-84.68 55.761-28.768 4.075-63.21 5.228-92.36 3.092m43.16-227.41c10.879-4.07 18.15-12.97 20.613-25.22.925-4.605.825-6.921-.526-12.195-4.104-16.02-17.736-26.17-33.453-24.909-12.259.984-21.242 6.964-26.616 17.718-2.715 5.434-3.18 7.533-3.18 14.378 0 6.858.463 8.941 3.202 14.423 7.467 14.943 24.383 21.634 39.96 15.806" fill="#ffffff"/>
</svg>
