<svg height="512" viewBox="0 0 512 512" width="512" xmlns="http://www.w3.org/2000/svg">
 <g fill-rule="evenodd">
  <path d="m471.95 253.05c0 120.9-98.01 218.9-218.9 218.9-120.9 0-218.9-98.01-218.9-218.9 0-120.9 98.01-218.9 218.9-218.9 120.9 0 218.9 98.01 218.9 218.9" fill="#878787"/>
  <path d="m259.63 122.69l-29.56 46.31c-.207-.084-53.06-21.688-53.06-21.688.023.223 6 57.41 6 57.41-.209.036-53.625 9.406-53.625 9.406l2 2 5.969 5.969 23.16 23.19.094.094.031.031.469.469.031.031.125.156.438.438 5 5 1.875 1.875-45.875 42.16c.007.001 1.674.265 1.781.281l-.781.719c.007.001 1.674.265 1.781.281l-.781.719c.007.001 1.674.265 1.781.281l-.781.719 1.781.281-.781.719c.007.001 1.674.265 1.781.281l-.781.719c.007.001 1.618.266 1.719.281l-.75.688c.007.001 1.674.265 1.781.281l-.781.719c.007.001 1.674.265 1.781.281l-.781.719 1.781.281-.781.719c.007.001 1.674.265 1.781.281l-.781.719c.007.001 1.674.265 1.781.281l-.781.719c.006.001 1.619.266 1.719.281l-.75.688c.007.001 1.674.265 1.781.281l-.781.719c.006.001 1.674.265 1.781.281l-.781.719 1.781.281-.781.719c.006.001 1.674.265 1.781.281l-.781.719c.006.001 1.674.265 1.781.281l-.781.719c.006.001 1.647.265 1.75.281l-.781.719c.006.001 1.647.265 1.75.281l-.75.688 1.781.281-.781.719c.006.001 1.674.265 1.781.281l-.781.719c.006.001 1.674.265 1.781.281l-.781.719c.006.001 1.675.265 1.781.281l-.781.719c.006.001 1.675.265 1.781.281l-.781.719c.006.001 1.619.266 1.719.281l-.75.688 1.781.281-.781.719c.006.001 1.675.265 1.781.281l-.781.719c.006.001 1.675.265 1.781.281l-.781.719c.006.001 1.675.265 1.781.281l-.781.719c.006.001 1.675.265 1.781.281l-.781.719 1.719.281-.75.688c.006.001 1.675.265 1.781.281l-.781.719c.006.001 1.675.265 1.781.281l-.781.719c.006.001 1.675.265 1.781.281l-.781.719c.006.001 1.675.265 1.781.281l-.781.719c.006.001 1.675.265 1.781.281l-.781.719 1.719.281c-.024.022-.75.688-.75.688.006.001 1.675.265 1.781.281l-.781.719c.006.001 1.675.265 1.781.281l-.781.719c.006.001 1.675.265 1.781.281l-.781.719c.006.001 1.675.265 1.781.281l-.781.719 1.781.281-.781.719 1.75.281-.781.719c.005.001 1.647.265 1.75.281l-.75.688c.005.001 1.675.265 1.781.281l-.781.719c.005.001 1.675.265 1.781.281l-.781.719c.005.001 1.675.265 1.781.281l-.781.719 1.781.281-.781.719c.005.001 1.675.265 1.781.281l-.781.719c.005.001 1.62.266 1.719.281l-.75.688c.005.001 1.675.265 1.781.281l-.781.719c.005.001 1.675.265 1.781.281l-.781.719 1.781.281-.781.719c.004.001 1.282.209 1.344.219-.036.222-.059.346-.094.563l-.25.219c.001 0 .217.031.219.031-.946 5.876-2.656 15.375-2.656 15.375l1.25-.656c-.014.089-.25 1.656-.25 1.656l1.25-.625c-.013.082-.25 1.594-.25 1.594l1.219-.625c-.014.085-.25 1.625-.25 1.625l1.25-.656c-.014.089-.25 1.656-.25 1.656l1.25-.656c-.014.089-.25 1.656-.25 1.656l1.25-.656-.25 1.656 1.25-.625-.25 1.625 1.25-.656c-.014.089-.25 1.656-.25 1.656l1.219-.625c-.013.082-.25 1.594-.25 1.594l1.25-.656c-.014.089-.25 1.656-.25 1.656l1.25-.656c-.014.089-.25 1.656-.25 1.656l1.25-.656c-.014.089-.25 1.656-.25 1.656l1.25-.625-.25 1.625 1.25-.656-.25 1.656c.004-.002 1.161-.596 1.219-.625-.013.082-.25 1.594-.25 1.594l1.25-.625c-.014.085-.25 1.625-.25 1.625.005-.002 1.189-.625 1.25-.656-.014.089-.25 1.656-.25 1.656l1.25-.625c-.014.085-.25 1.625-.25 1.625.004-.002 1.189-.625 1.25-.656-.014.089-.25 1.656-.25 1.656.004-.002 1.189-.625 1.25-.656-.014.089-.25 1.656-.25 1.656l1.25-.625-.25 1.594c.004-.002 1.161-.596 1.219-.625-.014.085-.25 1.625-.25 1.625.004-.002 1.189-.625 1.25-.656-.014.089-.25 1.656-.25 1.656l1.25-.656c-.014.089-.25 1.656-.25 1.656l1.25-.625c-.014.086-.25 1.625-.25 1.625.004-.002 1.189-.625 1.25-.656-.014.089-.25 1.656-.25 1.656l1.25-.656c-.014.089-.25 1.656-.25 1.656.004-.002 1.161-.596 1.219-.625l-.25 1.594c.004-.002 1.189-.625 1.25-.656-.014.089-.25 1.656-.25 1.656l1.25-.656c-.014.089-.25 1.656-.25 1.656.004-.002 1.189-.625 1.25-.656-.014.089-.25 1.656-.25 1.656l1.25-.625c-.014.086-.25 1.625-.25 1.625l1.25-.656c-.014.089-.25 1.656-.25 1.656.004-.002 1.161-.596 1.219-.625-.013.082-.25 1.594-.25 1.594l1.25-.625-.25 1.625 1.25-.656c-.014.089-.25 1.656-.25 1.656.004-.002 1.189-.625 1.25-.656-.014.089-.25 1.656-.25 1.656l1.25-.625c-.014.086-.25 1.625-.25 1.625l1.25-.656c-.014.089-.25 1.656-.25 1.656.004-.002 1.161-.596 1.219-.625-.013.082-.25 1.594-.25 1.594h.031c.004-.002 1.161-.596 1.219-.625-.014.086-.25 1.625-.25 1.625l1.25-.656-.25 1.656c.004-.002 1.189-.626 1.25-.656l-.25 1.656c.004-.002 1.189-.626 1.25-.656-.014.089-.25 1.656-.25 1.656.004-.002 1.189-.626 1.25-.656-.014.089-.25 1.656-.25 1.656.004-.002 1.191-.595 1.25-.625-.013.082-.25 1.594-.25 1.594.004-.002 1.162-.596 1.219-.625-.014.086-.25 1.625-.25 1.625.004-.002 1.19-.626 1.25-.656-.014.089-.25 1.656-.25 1.656.004-.002 1.19-.626 1.25-.656l-.25 1.656c.004-.002 1.19-.626 1.25-.656l-.25 1.656c.004-.002 1.191-.595 1.25-.625-.014.086-.25 1.625-.25 1.625.004-.002 1.19-.626 1.25-.656-.014.089-.25 1.656-.25 1.656.004-.002 1.162-.596 1.219-.625-.013.082-.25 1.594-.25 1.594.004-.002 1.19-.626 1.25-.656-.014.089-.25 1.656-.25 1.656.004-.002 1.19-.626 1.25-.656-.014.089-.25 1.656-.25 1.656.004-.002 1.19-.626 1.25-.656-.014.089-.25 1.656-.25 1.656.004-.002 1.19-.626 1.25-.656l-.25 1.656 1.25-.656c-.014.089-.25 1.656-.25 1.656.003-.002 1.162-.596 1.219-.625-.013.082-.25 1.594-.25 1.594.003-.002 1.19-.626 1.25-.656-.014.089-.25 1.656-.25 1.656l1.25-.656c-.014.089-.25 1.656-.25 1.656.003-.002 1.19-.626 1.25-.656-.014.089-.25 1.656-.25 1.656.003-.002 1.19-.626 1.25-.656-.014.089-.25 1.656-.25 1.656l1.25-.656-.25 1.656c.003-.002 1.191-.595 1.25-.625-.013.083-.25 1.594-.25 1.594.003-.002 1.162-.596 1.219-.625-.014.086-.25 1.625-.25 1.625l1.25-.656c-.014.089-.25 1.656-.25 1.656.003-.002 1.19-.626 1.25-.656-.014.089-.25 1.656-.25 1.656.003-.002 1.19-.626 1.25-.656-.014.089-.25 1.656-.25 1.656l1.25-.656c-.014.089-.25 1.656-.25 1.656.003-.002 1.19-.626 1.25-.656l-.25 1.656c.003-.002 1.162-.596 1.219-.625-.013.083-.25 1.594-.25 1.594l1.25-.656c-.014.089-.25 1.656-.25 1.656.003-.002 1.19-.626 1.25-.656-.014.089-.25 1.656-.25 1.656.003-.002 1.19-.626 1.25-.656-.014.089-.25 1.656-.25 1.656l1.25-.656c-.014.089-.25 1.656-.25 1.656.003-.002 1.19-.626 1.25-.656-.014.089-.25 1.656-.25 1.656.003-.001 1.162-.596 1.219-.625l-.25 1.594 1.25-.656-.25 1.656c.003-.002 1.19-.626 1.25-.656-.014.089-.25 1.656-.25 1.656.003-.001 1.19-.626 1.25-.656-.014.089-.25 1.656-.25 1.656l1.25-.656c-.014.089-.25 1.656-.25 1.656.003-.001 1.19-.626 1.25-.656-.014.089-.25 1.656-.25 1.656.003-.001 1.162-.596 1.219-.625-.013.083-.25 1.594-.25 1.594l1.25-.656-.25 1.656c.003-.001 1.19-.626 1.25-.656l-.25 1.656c.003-.001 1.19-.626 1.25-.656-.014.089-.25 1.656-.25 1.656l1.25-.656c-.014.089-.25 1.656-.25 1.656.003-.001 1.19-.626 1.25-.656-.014.089-.25 1.656-.25 1.656.003-.001 1.192-.595 1.25-.625-.013.083-.25 1.594-.25 1.594.003-.001 1.163-.596 1.219-.625-.014.086-.25 1.625-.25 1.625.003-.001 1.19-.626 1.25-.656-.014.089-.25 1.656-.25 1.656.003-.001 1.19-.626 1.25-.656l-.25 1.656c.003-.001 1.191-.626 1.25-.656-.014.089-.25 1.656-.25 1.656.003-.001 1.192-.595 1.25-.625-.014.086-.25 1.625-.25 1.625.003-.001 1.191-.626 1.25-.656-.014.089-.25 1.656-.25 1.656.002-.001 1.163-.597 1.219-.625-.013.083-.25 1.594-.25 1.594.003-.001 1.191-.626 1.25-.656-.014.089-.25 1.656-.25 1.656.003-.001 1.191-.626 1.25-.656-.014.089-.25 1.656-.25 1.656.002-.001 1.191-.626 1.25-.656l-.25 1.656 1.25-.656c-.014.089-.25 1.656-.25 1.656.002-.001 1.191-.626 1.25-.656-.014.089-.25 1.656-.25 1.656.002-.001 1.163-.597 1.219-.625-.013.083-.25 1.594-.25 1.594l1.25-.656c-.014.089-.25 1.656-.25 1.656.002-.001 1.191-.626 1.25-.656-.014.089-.25 1.656-.25 1.656.002-.001 1.191-.626 1.25-.656-.014.089-.25 1.656-.25 1.656.002-.001 1.191-.626 1.25-.656l-.125.719c98.8-12.402 177.09-90.63 189.59-189.41l-.125.063.125-1.438-1.125.438.125-1.438-1.125.438.125-1.406-1.125.438.125-1.438-1.094.406.125-1.406-1.125.438.125-1.438-1.125.438.125-1.438-1.125.438.125-1.438-1.125.438.125-1.406-1.125.438.125-1.438-1.094.406.125-1.406-1.125.438.125-1.438-1.125.438.125-1.438-1.125.438.125-1.438-1.125.438.125-1.438-1.125.438.125-1.406-1.094.406.125-1.406-1.125.438.125-1.438-1.125.438.125-1.438-1.125.438.125-1.438-1.125.438.125-1.438-1.125.438.125-1.406-1.125.438.125-1.438-1.094.406.125-1.406-1.125.438.125-1.438-1.125.438.125-1.438-1.125.438.125-1.438-1.125.438.125-1.406-1.125.438.125-1.438-1.094.406.125-1.406-1.125.438.125-1.438-1.125.438.125-1.438-1.125.438.125-1.438-1.125.438.125-1.438-1.125.438.125-1.406-1.094.406.125-1.406-1.125.438.125-1.438-1.125.438.125-1.438-1.125.438.125-1.438-1.125.438.125-1.438-1.125.438.125-1.406-1.094.406.125-1.406-1.125.438.125-1.438-1.125.438.125-1.438-1.125.438.125-1.438-1.125.438.125-1.438-1.125.438.125-1.406-1.125.438.125-1.438-1.094.406.125-1.406-1.125.438.125-1.438-1.125.438.125-1.438-1.125.438.125-1.438-1.125.438.125-1.406-1.125.438.125-1.438-1.094.406.125-1.406-1.125.438.125-1.438-1.125.438.125-1.438-1.125.438.125-1.438-1.125.438.125-1.438-1.125.438.125-1.406-1.094.406.125-1.406-1.125.438.125-1.438-1.125.438.125-1.438-1.125.438.125-1.438-1.125.438.125-1.438-1.125.438.125-1.406-1.125.438.125-1.438-1.094.406.125-1.406-1.125.438.125-1.438-1.125.438.125-1.438-1.125.438.125-1.438-1.125.438.125-1.406-1.125.438.125-1.438-1.094.406.125-1.406-1.125.438.125-1.438-1.125.438.125-1.438-1.125.438.125-1.438-1.125.438.125-1.406-1.125.438.125-1.438-1.094.406.125-1.406-1.125.438.125-1.438-1.125.438.125-1.438-1.125.438.125-1.438-1.125.438.125-1.438-1.125.438.125-1.406-1.094.406.125-1.406-1.125.438.125-1.438-1.125.438.125-1.438-1.125.438.125-1.438-1.125.438.125-1.438-1.125.438.125-1.406-1.125.438.125-1.438-1.094.406.125-1.406-1.125.438.125-1.438-1.125.438.125-1.438-1.125.438.125-1.438-1.125.438.125-1.406-1.125.438.125-1.438-1.094.406.125-1.406-1.125.438.125-1.438-1.125.438.125-1.438-1.125.438.125-1.438-1.125.438.125-1.438-1.125.438.125-1.406-1.094.406.125-1.406-1.125.438.125-1.438-1.125.438.125-1.438-1.125.438.125-1.438-1.125.438.125-1.438-1.125.438.125-1.406-1.125.438.125-1.438-1.094.406.125-1.406-1.125.438.125-1.438-1.125.438.125-1.438-1.125.438.125-1.438-1.125.438.125-1.406-1.125.438.125-1.438-1.094.406.125-1.406-1.125.438.125-1.438-1.125.438.125-1.438-1.125.438.125-1.438-1.125.438.125-1.406-1.125.438.125-1.438-1.094.406.125-1.406-1.125.438.125-1.438-1.125.438.125-1.438-1.125.438.125-1.438-1.125.438.125-1.438-1.125.438.125-1.406-1.094.406.125-1.406-1.125.438.125-1.438-1.125.438.125-1.438-39.03 15.09-.375-.688-.219.344-.781-1.344-.219.375-.781-1.375-.219.344-.781-1.344-.219.344-.75-1.344-.25.375-.75-1.344-.219.375-.781-1.375-.219.375-.781-1.375-.219.375-.781-1.375-.219.375-.781-1.375-.219.344-.75-1.344-.25.375-.75-1.344-.219.375-.781-1.375-.219.375-.781-1.375-.219.375-.781-1.375-.219.375-.781-1.375-.219.344-.75-1.344-.219.375-.781-1.375-.25.375-.75-1.344-.219.375-.781-1.375-.219.375-.781-1.375-.219.375-.781-1.375-.219.375-.781-1.375-.219.344-.75-1.344-.25.375-.75-1.344-.219.375-.781-1.375-.219.375-.781-1.375-.219.375-.781-1.375-.219.375-.781-1.375-.219.344-.75-1.344-.25.375-.75-1.344-.219.375-.781-1.375-.219.375-.781-1.375-.219.375-.781-1.375-.219.375-.781-1.375-.219.344-.75-1.344-.25.375-.75-1.344-.219.375-.781-1.375-.219.375-.781-1.375-.219.375-.781-1.375-.219.375-.781-1.375-.219.375-.781-1.375" fill-opacity=".235"/>
  <path d="m256 1c-140.83 0-255 114.17-255 255s114.17 255 255 255 255-114.17 255-255-114.17-255-255-255m8.827 44.931c120.9 0 218.9 98 218.9 218.9s-98 218.9-218.9 218.9-218.93-98-218.93-218.9 98.03-218.9 218.93-218.9" fill-opacity=".067"/>
  <g fill-opacity=".129">
   <path d="m256 4.433c-138.94 0-251.57 112.63-251.57 251.57s112.63 251.57 251.57 251.57 251.57-112.63 251.57-251.57-112.63-251.57-251.57-251.57m5.885 38.556c120.9 0 218.9 98 218.9 218.9s-98 218.9-218.9 218.9-218.93-98-218.93-218.9 98.03-218.9 218.93-218.9"/>
   <path d="m256 8.356c-136.77 0-247.64 110.87-247.64 247.64s110.87 247.64 247.64 247.64 247.64-110.87 247.64-247.64-110.87-247.64-247.64-247.64m2.942 31.691c120.9 0 218.9 98 218.9 218.9s-98 218.9-218.9 218.9-218.93-98-218.93-218.9 98.03-218.9 218.93-218.9"/>
  </g>
  <path d="m253.04 7.859c-135.42 0-245.19 109.78-245.19 245.19 0 135.42 109.78 245.19 245.19 245.19 135.42 0 245.19-109.78 245.19-245.19 0-135.42-109.78-245.19-245.19-245.19zm0 26.297c120.9 0 218.9 98 218.9 218.9s-98 218.9-218.9 218.9-218.93-98-218.93-218.9 98.03-218.9 218.93-218.9z" fill="#ffffff" stroke="#000000" stroke-opacity=".31" stroke-width="4.904"/>
 </g>
 <path d="m259.64 122.7l-29.567 46.3-53.08-21.675 6 57.41-53.632 9.393 39.18 39.24-45.851 42.18 60.913 9.393-9.615 59.746 54.24-27.511 28.4 52.13 28.344-51.576 50.631 26.399-1.223-56.24 54.911-6.447-38.571-44.518 37.35-42.795-53.08-9.948 4.835-55.08-53.688 20.508-26.51-46.907" fill="#ffffff" fill-rule="evenodd"/>
</svg>
