<svg height="512" viewBox="0 0 512 512" width="512" xmlns="http://www.w3.org/2000/svg">
 <path d="m471.95 253.05c0 120.9-98.01 218.9-218.9 218.9-120.9 0-218.9-98.01-218.9-218.9 0-120.9 98.01-218.9 218.9-218.9 120.9 0 218.9 98.01 218.9 218.9" fill="#878787" fill-rule="evenodd"/>
 <path d="m240.38 111.75c-23.11 0-41.719 18.11-41.719 40.625v112.44h-.875v-.969h-1v-1h-1v-1h-.969v-1h-1v-1h-1v-1h-1v-.969h-1v-1h-1v-1h-.969v-1h-1v-1h-1v-1h-1v-1h-1v-.969h-1v-1h-.969v-1h-15.5v25.406c0 21.263 9.974 40.526 25.531 53.625.502.437 1.017.858 1.531 1.281.075.06.144.128.219.188.063.051.124.105.188.156.028.024.066.038.094.063.19.154.371.317.563.469.028.024.065.039.094.063.077.067.141.152.219.219.23.186.455.379.688.563.056.048.1.108.156.156.184.149.377.29.563.438.107.093.205.189.313.281.175.146.355.293.531.438.39.34.79.668 1.188 1 .011.01.02.022.031.031.165.137.334.27.5.406.395.345.785.695 1.188 1.031.017.015.045.017.063.031.257.214.521.414.781.625.034.029.06.065.094.094.157.126.311.25.469.375.138.12.268.256.406.375.051.043.105.082.156.125.093.075.187.144.281.219.321.281.642.569.969.844.106.092.206.189.313.281.254.212.524.417.781.625.033.029.06.065.094.094.143.115.293.229.438.344.145.127.292.25.438.375.085.071.165.149.25.219.052.042.104.083.156.125.006.005.025-.005.031 0 .011.009.02.023.031.031.267.233.542.458.813.688.023.018.04.044.063.063.074.06.145.128.219.188.062.054.125.103.188.156.132.106.273.207.406.313.073.062.145.126.219.188.084.073.166.146.25.219.102.085.21.166.313.25.035.027.059.066.094.094.063.051.125.105.188.156.094.082.187.169.281.25.121.097.253.185.375.281.278.244.561.479.844.719.381.335.767.674 1.156 1 .274.238.565.454.844.688.234.204.481.393.719.594.401.351.809.69 1.219 1.031.022.019.04.043.063.063.252.209.495.42.75.625.04.034.085.06.125.094.093.075.187.144.281.219.199.176.392.358.594.531.092.074.189.146.281.219.189.166.372.336.563.5.006.005.025-.005.031 0 .109.087.203.195.313.281.034.028.06.066.094.094.365.32.752.626 1.125.938.061.053.126.103.188.156.21.175.444.328.656.5.078.068.14.151.219.219.081.065.169.123.25.188.366.323.751.623 1.125.938.128.112.246.233.375.344.069.057.149.099.219.156.358.317.728.629 1.094.938.345.302.711.581 1.063.875.151.131.286.277.438.406v16.16h-15.656v15.25h1v1h1v1h1v1h .969v.969h1v1h1v1h1v1h1v1h1v1.001h1v .969h.969v1.001h1v1h1v1h1v1h1v1h1v .969h.969v1h1v1h1v1h1v1h1v1h1v .969h.969v1h1v1h1v1h1v1h1v1h1v1h1v .969h.969v1h1v1h1v1h1v1h1v1h1v .969h.969v1h1v1h1v1h1v1h1v1h1v .969h.969v1h1v1h1v1h1v1h1v1h1v1h .969v.969h1v1h1v1h1v1h1v1h1v1h1v .969h.969v1h1v1h1v1h1v1h1v1h1v .969h.969v1h1v1h1v1h1v1h1v1h1v .969h.969v1h1v1h1v1h1v1h1v1h1v1h1v .969h.969v1h1v1h1v1h1v1h1v1h1v .969h.969v1h1v1h1v1h1v .906c81.52-14.525 147.41-74.19 170.94-152.22-.095-.093-.187-.187-.281-.281-.553-.593-1.131-1.159-1.719-1.719-.417-.425-.846-.843-1.281-1.25-.272-.292-.563-.56-.844-.844-.021-.02-.041-.042-.063-.063-.026-.026-.036-.068-.063-.094-.319-.342-.67-.669-1-1-.322-.346-.666-.665-1-1-.553-.593-1.131-1.159-1.719-1.719-.417-.425-.846-.843-1.281-1.25-.272-.292-.563-.56-.844-.844-.054-.051-.102-.106-.156-.156-.317-.34-.64-.67-.969-1-.319-.342-.67-.669-1-1-.322-.346-.666-.665-1-1-.638-.684-1.316-1.329-2-1.969-.126-.135-.247-.273-.375-.406-.204-.199-.417-.399-.625-.594-.272-.292-.563-.56-.844-.844-.021-.02-.041-.042-.063-.063-.026-.026-.036-.068-.063-.094-.319-.342-.67-.669-1-1-.322-.346-.666-.665-1-1-.553-.593-1.131-1.159-1.719-1.719-.417-.425-.846-.843-1.281-1.25-.272-.292-.563-.56-.844-.844-.021-.02-.041-.042-.063-.063-.026-.026-.036-.068-.063-.094-.319-.342-.67-.669-1-1-.322-.346-.666-.665-1-1-.553-.593-1.131-1.159-1.719-1.719-.417-.425-.846-.843-1.281-1.25-.272-.292-.563-.56-.844-.844-.054-.051-.102-.106-.156-.156-.317-.34-.64-.67-.969-1-.322-.346-.666-.665-1-1-.242-.259-.502-.497-.75-.75-.085-.08-.165-.17-.25-.25-.64-.686-1.314-1.327-2-1.969-.272-.292-.563-.56-.844-.844-.054-.051-.102-.106-.156-.156-.317-.34-.64-.67-.969-1-.319-.342-.67-.669-1-1-.322-.346-.666-.665-1-1-.553-.593-1.131-1.159-1.719-1.719-.417-.425-.846-.843-1.281-1.25-.272-.292-.563-.56-.844-.844-.021-.02-.041-.042-.063-.063-.026-.026-.036-.068-.063-.094-.319-.342-.67-.669-1-1-.322-.346-.666-.665-1-1-.553-.593-1.131-1.159-1.719-1.719-.417-.425-.846-.843-1.281-1.25-.272-.292-.563-.56-.844-.844-.021-.02-.041-.042-.063-.063-.026-.026-.036-.068-.063-.094-.319-.342-.67-.669-1-1-.322-.346-.666-.665-1-1-.553-.593-1.131-1.159-1.719-1.719-.417-.425-.846-.843-1.281-1.25-.272-.292-.563-.56-.844-.844-.054-.051-.102-.106-.156-.156-.317-.34-.64-.67-.969-1-.319-.342-.67-.669-1-1-.322-.346-.666-.665-1-1-.638-.684-1.316-1.329-2-1.969-.126-.135-.247-.273-.375-.406-.206-.201-.414-.397-.625-.594-.272-.292-.563-.56-.844-.844-.021-.02-.041-.042-.063-.063-.026-.026-.036-.068-.063-.094-.319-.342-.67-.669-1-1-.322-.346-.666-.665-1-1-.553-.593-1.131-1.159-1.719-1.719-.417-.425-.846-.843-1.281-1.25-.272-.292-.563-.56-.844-.844-.021-.02-.041-.042-.063-.063-.026-.026-.036-.068-.063-.094-.319-.342-.67-.669-1-1-.322-.346-.666-.665-1-1-.553-.593-1.131-1.159-1.719-1.719-.417-.425-.846-.843-1.281-1.25-.272-.292-.563-.56-.844-.844-.021-.02-.041-.042-.063-.063-.026-.026-.036-.068-.063-.094-.319-.342-.67-.669-1-1-.322-.346-.666-.665-1-1-.242-.259-.502-.497-.75-.75-.085-.08-.165-.17-.25-.25-.64-.686-1.314-1.327-2-1.969-.272-.292-.563-.56-.844-.844-.054-.051-.102-.106-.156-.156-.317-.34-.64-.67-.969-1-.319-.342-.67-.669-1-1-.322-.346-.666-.665-1-1-.553-.593-1.131-1.159-1.719-1.719-.417-.425-.846-.843-1.281-1.25-.272-.292-.563-.56-.844-.844-.021-.02-.041-.042-.063-.063-.026-.026-.036-.068-.063-.094-.319-.342-.67-.669-1-1-.322-.346-.666-.665-1-1-.553-.593-1.131-1.159-1.719-1.719-.417-.425-.846-.843-1.281-1.25-.272-.292-.563-.56-.844-.844-.021-.02-.041-.042-.063-.063-.026-.026-.036-.068-.063-.094-.319-.342-.67-.669-1-1-.322-.346-.666-.665-1-1-.553-.593-1.131-1.159-1.719-1.719-.417-.425-.846-.843-1.281-1.25-.272-.292-.563-.56-.844-.844-.054-.051-.102-.106-.156-.156-.317-.34-.64-.67-.969-1-.319-.342-.67-.669-1-1-.322-.346-.666-.665-1-1-.64-.686-1.314-1.327-2-1.969-.272-.292-.563-.56-.844-.844-.054-.051-.102-.106-.156-.156-.272-.292-.563-.56-.844-.844-.021-.02-.041-.042-.063-.063-.026-.026-.036-.068-.063-.094-.319-.342-.67-.669-1-1-.322-.346-.666-.665-1-1-.553-.593-1.131-1.159-1.719-1.719-.417-.425-.846-.843-1.281-1.25-.272-.292-.563-.56-.844-.844-.021-.02-.041-.042-.063-.063-.026-.026-.036-.068-.063-.094-.319-.342-.67-.669-1-1-.322-.346-.666-.665-1-1-.553-.593-1.131-1.159-1.719-1.719-.417-.425-.846-.843-1.281-1.25-.272-.292-.563-.56-.844-.844-.021-.02-.041-.042-.063-.063-.026-.026-.036-.068-.063-.094-.319-.342-.67-.669-1-1-.322-.346-.666-.665-1-1-.553-.593-1.131-1.159-1.719-1.719-.417-.425-.846-.843-1.281-1.25-.272-.292-.563-.56-.844-.844-.054-.051-.102-.106-.156-.156-.317-.34-.64-.67-.969-1-.319-.342-.67-.669-1-1-.322-.346-.666-.665-1-1-.638-.684-1.316-1.329-2-1.969-.126-.135-.247-.273-.375-.406-.204-.199-.417-.399-.625-.594-.272-.292-.563-.56-.844-.844-.021-.02-.041-.042-.063-.063-.026-.026-.036-.068-.063-.094-.319-.342-.67-.669-1-1-.322-.346-.666-.665-1-1-.553-.593-1.131-1.159-1.719-1.719-.417-.425-.846-.843-1.281-1.25-.272-.292-.563-.56-.844-.844-.021-.02-.041-.042-.063-.063-.026-.026-.036-.068-.063-.094-.319-.342-.67-.669-1-1-.322-.346-.666-.665-1-1-.553-.593-1.131-1.159-1.719-1.719-.417-.425-.846-.843-1.281-1.25-.272-.292-.563-.56-.844-.844-.054-.051-.102-.106-.156-.156-.317-.34-.64-.67-.969-1-.322-.346-.666-.665-1-1-.242-.259-.502-.497-.75-.75-.085-.08-.165-.17-.25-.25-.64-.686-1.314-1.327-2-1.969-.272-.292-.563-.56-.844-.844-.054-.051-.102-.106-.156-.156-.272-.292-.563-.56-.844-.844-.021-.02-.041-.042-.063-.063-.026-.026-.036-.068-.063-.094-.319-.342-.67-.669-1-1-.322-.346-.666-.665-1-1-.553-.593-1.131-1.159-1.719-1.719-.417-.425-.846-.843-1.281-1.25-.272-.292-.563-.56-.844-.844-.021-.02-.041-.042-.063-.063-.026-.026-.036-.068-.063-.094-.319-.342-.67-.669-1-1-.322-.346-.666-.665-1-1-.553-.593-1.131-1.159-1.719-1.719-.417-.425-.846-.843-1.281-1.25-.272-.292-.563-.56-.844-.844-.021-.02-.041-.042-.063-.063-.026-.026-.036-.068-.063-.094-.319-.342-.67-.669-1-1-.322-.346-.666-.665-1-1-.553-.593-1.131-1.159-1.719-1.719-.417-.425-.846-.843-1.281-1.25-.272-.292-.563-.56-.844-.844-.054-.051-.102-.106-.156-.156-.317-.34-.64-.67-.969-1-.319-.342-.67-.669-1-1-.322-.346-.666-.665-1-1-.638-.684-1.316-1.329-2-1.969-.126-.135-.247-.273-.375-.406-.204-.199-.417-.399-.625-.594-.272-.292-.563-.56-.844-.844-.021-.02-.041-.042-.063-.063-.026-.026-.036-.068-.063-.094-.319-.342-.67-.669-1-1-.322-.346-.666-.665-1-1-.553-.593-1.131-1.159-1.719-1.719-.417-.425-.846-.843-1.281-1.25-.272-.292-.563-.56-.844-.844-.021-.02-.041-.042-.063-.063-.026-.026-.036-.068-.063-.094-.319-.342-.67-.669-1-1-.322-.346-.666-.665-1-1-.553-.593-1.131-1.159-1.719-1.719-.417-.425-.846-.843-1.281-1.25-.272-.292-.563-.56-.844-.844-.054-.051-.102-.106-.156-.156-.317-.34-.64-.67-.969-1-.322-.346-.666-.665-1-1-.242-.259-.502-.497-.75-.75-.085-.08-.165-.17-.25-.25-.64-.686-1.314-1.327-2-1.969-.272-.292-.563-.56-.844-.844-.054-.051-.102-.106-.156-.156-7.62-8.172-18.598-13.281-30.875-13.281h-.031" fill-opacity=".235"/>
 <g fill-rule="evenodd">
  <path d="m256 1c-140.83 0-255 114.17-255 255s114.17 255 255 255 255-114.17 255-255-114.17-255-255-255m8.827 44.931c120.9 0 218.9 98 218.9 218.9s-98 218.9-218.9 218.9-218.93-98-218.93-218.9 98.03-218.9 218.93-218.9" fill-opacity=".067"/>
  <g fill-opacity=".129">
   <path d="m256 4.433c-138.94 0-251.57 112.63-251.57 251.57s112.63 251.57 251.57 251.57 251.57-112.63 251.57-251.57-112.63-251.57-251.57-251.57m5.885 38.556c120.9 0 218.9 98 218.9 218.9s-98 218.9-218.9 218.9-218.93-98-218.93-218.9 98.03-218.9 218.93-218.9"/>
   <path d="m256 8.356c-136.77 0-247.64 110.87-247.64 247.64s110.87 247.64 247.64 247.64 247.64-110.87 247.64-247.64-110.87-247.64-247.64-247.64m2.942 31.691c120.9 0 218.9 98 218.9 218.9s-98 218.9-218.9 218.9-218.93-98-218.93-218.9 98.03-218.9 218.93-218.9"/>
  </g>
  <path d="m253.04 7.859c-135.42 0-245.19 109.78-245.19 245.19 0 135.42 109.78 245.19 245.19 245.19 135.42 0 245.19-109.78 245.19-245.19 0-135.42-109.78-245.19-245.19-245.19zm0 26.297c120.9 0 218.9 98 218.9 218.9s-98 218.9-218.9 218.9-218.93-98-218.93-218.9 98.03-218.9 218.93-218.9z" fill="#ffffff" stroke="#000000" stroke-opacity=".31" stroke-width="4.904"/>
 </g>
 <path d="m24 8.847c-2.553 0-4.609 2-4.609 4.49v13.469c0 2.487 2.055 4.49 4.609 4.49 2.553 0 4.609-2 4.609-4.49v-13.469c.001-2.487-2.055-4.49-4.608-4.49m-8.07 15.15v2.806c0 3.711 2.748 6.875 6.337 7.664v2.999h-1.728v1.684h6.913v-1.684h-1.728v-2.999c3.589-.789 6.337-3.953 6.337-7.664v-2.806h-1.71v2.806c0 3.402-2.863 6.191-6.355 6.191s-6.355-2.789-6.355-6.191v-2.806z" fill="#ffffff" transform="matrix(9.0517 0 0 9.0517 23.14 31.659)"/>
</svg>
