<svg height="512" viewBox="0 0 512 512" width="512" xmlns="http://www.w3.org/2000/svg">
 <path d="m471.95 253.05c0 120.9-98.01 218.9-218.9 218.9-120.9 0-218.9-98.01-218.9-218.9 0-120.9 98.01-218.9 218.9-218.9 120.9 0 218.9 98.01 218.9 218.9" fill="#9f9f9f" fill-rule="evenodd"/>
 <g fill-rule="evenodd" transform="translate(0 -540.36)">
  <path d="m256 541.36c-140.83 0-255 114.17-255 255 0 140.83 114.17 255 255 255 140.83 0 255-114.17 255-255 0-140.83-114.17-255-255-255m8.827 44.931c120.9 0 218.9 98 218.9 218.9 0 120.9-98 218.9-218.9 218.9-120.9 0-218.93-98-218.93-218.9 0-120.9 98.03-218.9 218.93-218.9" fill-opacity=".067"/>
  <g fill-opacity=".129">
   <path d="m256 544.79c-138.94 0-251.57 112.63-251.57 251.57 0 138.94 112.63 251.54 251.57 251.54 138.94 0 251.57-112.6 251.57-251.54 0-138.94-112.63-251.57-251.57-251.57m5.885 38.556c120.9 0 218.9 98 218.9 218.9 0 120.9-98 218.9-218.9 218.9-120.9 0-218.93-98-218.93-218.9 0-120.9 98.03-218.9 218.93-218.9"/>
   <path d="m256 548.72c-136.77 0-247.64 110.87-247.64 247.64 0 136.77 110.87 247.64 247.64 247.64 136.77 0 247.64-110.87 247.64-247.64 0-136.77-110.87-247.64-247.64-247.64m2.942 31.691c120.9 0 218.9 98 218.9 218.9 0 120.9-98 218.9-218.9 218.9-120.9 0-218.93-98-218.93-218.9 0-120.9 98.03-218.9 218.93-218.9"/>
  </g>
  <path d="m253.04 548.22c-135.42 0-245.19 109.78-245.19 245.19 0 135.42 109.78 245.19 245.19 245.19 135.42 0 245.19-109.78 245.19-245.19 0-135.42-109.78-245.19-245.19-245.19zm0 26.297c120.9 0 218.9 98 218.9 218.9 0 120.9-98 218.9-218.9 218.9-120.9 0-218.93-98-218.93-218.9 0-120.9 98.03-218.9 218.93-218.9z" fill="#ffffff" stroke="#000000" stroke-opacity=".31" stroke-width="4.904"/>
 </g>
 <path d="m374.19 127.38l-237.47 256.88 85.53 85.53c10.06 1.417 20.326 2.188 30.781 2.188 120.9 0 218.91-98.01 218.91-218.91 0-10.161-.691-20.18-2.031-29.969l-95.72-95.72" fill-opacity=".235"/>
 <path d="m254.13 132.35c-.516.318-3.534 11.688-6.844 25.906-3.416 14.677-6.666 27.27-7.25 27.969-.125.151-.393.335-.719.531-26.394 5.929-47.21 26.534-53.44 52.813-.01.042-.022.083-.031.125-1.112 2.724-1.998 3.18-4.531 3.844-2.02.529-13.813 3.289-26.19 6.125-12.375 2.836-22.84 5.462-23.25 5.844-.41.382 10.615 3.324 24.5 6.531 13.885 3.208 26.17 6.374 27.28 7.06.615.379 1.362 1.45 2.094 2.844 6.13 26.726 27.328 47.692 54.19 53.47 3.353 2.211 3.808 5.528 6.438 16.625 2.02 8.509 4.891 20.874 6.406 27.469 2.044 8.896 2.986 11.476 3.594 10 .45-1.094 3.298-12.8 6.344-26 3.046-13.2 5.913-24.845 6.344-25.875.361-.862 2.288-2.01 5.469-3.375 23.16-6.634 41.475-24.716 48.41-47.75.273-.908.513-1.827.75-2.75-.238.927-.476 1.838-.75 2.75.974-3.01 2.32-5.672 3.094-5.969.801-.308 13.226-3.286 27.594-6.625 14.368-3.339 26.28-6.215 26.469-6.406.469-.464-3.446-1.48-29.344-7.469-12.1-2.798-22.846-5.422-23.875-5.844-.713-.292-1.627-1.646-2.688-3.875-.007-.014-.025-.018-.031-.031-6.236-27.579-28.496-49.06-56.5-54.12-.249-.286-.431-.592-.563-.906-.495-1.186-3.467-13.406-6.594-27.16-3.127-13.75-5.979-25.332-6.344-25.75-.011-.013-.015-.01-.031 0m .812 52.656c1.224 0 2.448.03 3.656.094-1.21-.061-2.431-.094-3.656-.094-.984 0-1.963.023-2.938.063.976-.041 1.952-.063 2.938-.063m-4.281.156c-.997.059-1.983.119-2.969.219-.879.089-1.756.191-2.625.313.872-.123 1.743-.221 2.625-.313.985-.102 1.972-.158 2.969-.219m4.281 18.844c28.719 0 52 23.281 52 52 0 28.719-23.281 52-52 52-28.719 0-52-23.281-52-52 0-28.719 23.281-52 52-52m-70.66 45.03c-.089.914-.165 1.826-.219 2.75.056-.926.127-1.834.219-2.75m141.31.094c.09.905.164 1.804.219 2.719-.053-.914-.132-1.814-.219-2.719m-141.56 3.531c-.051 1.108-.094 2.223-.094 3.344 0 1.047.049 2.089.094 3.125-.046-1.032-.094-2.081-.094-3.125 0-1.119.041-2.237.094-3.344m141.84.344c.043.992.063 1.998.063 3 0-1.01-.021-2-.063-3m-141.81 7.094c.059 1.04.147 2.066.25 3.094-.106-1.032-.19-2.049-.25-3.094m141.75.094c-.06 1.025-.147 2.05-.25 3.063-.086.844-.198 1.696-.313 2.531.116-.839.226-1.683.313-2.531.103-1.017.19-2.033.25-3.063m-.875 7.656c-.106.631-.222 1.25-.344 1.875.122-.621.238-1.248.344-1.875m-77.25 58.781c1.132.115 2.26.22 3.406.281-1.145-.062-2.276-.166-3.406-.281m3.594.281c1.21.061 2.431.094 3.656.094 1.163 0 2.32-.038 3.469-.094-1.151.056-2.305.094-3.469.094-1.223 0-2.448-.032-3.656-.094" fill="#ffffff"/>
 <path d="m237.27 238.95c37.435-30.23-.097-.034 37.36-30.13 99.78-81.57.438.088 99.87-81.85-88.84 125.7-61.965 88.4-89.23 126.48-7.272 10.175-13.783 18.5-14.468 18.5-33.637-32.76-.104-.121-33.523-33" fill="#ffffff"/>
 <path d="m271.95 271.25c-37.03 30.721.097.033-36.956 30.626-98.69 82.88-.439-.082-98.78 83.16 87.17-126.86 60.792-89.22 87.55-127.65 7.137-10.27 13.537-18.68 14.223-18.689 34.07 32.31.106.12 33.956 32.554" fill="#ffffff"/>
</svg>
