<svg xmlns:rdf="http://www.w3.org/1999/02/22-rdf-syntax-ns#" xmlns="http://www.w3.org/2000/svg" height="512" width="512" version="1.1" xmlns:cc="http://creativecommons.org/ns#" xmlns:dc="http://purl.org/dc/elements/1.1/" viewBox="0 0 512 512">
 <g fill-rule="evenodd">
  <path d="m471.95 253.05c0 120.9-98.01 218.9-218.9 218.9-120.9 0-218.9-98.01-218.9-218.9 0-120.9 98.01-218.9 218.9-218.9 120.9 0 218.9 98.01 218.9 218.9" fill="#9f9f9f"/>
  <path d="m256 1c-140.83 0-255 114.17-255 255s114.17 255 255 255 255-114.17 255-255-114.17-255-255-255m8.827 44.931c120.9 0 218.9 98 218.9 218.9s-98 218.9-218.9 218.9-218.93-98-218.93-218.9 98.03-218.9 218.93-218.9" fill-opacity=".067"/>
  <g fill-opacity=".129">
   <path d="m256 4.433c-138.94 0-251.57 112.63-251.57 251.57s112.63 251.57 251.57 251.57 251.57-112.63 251.57-251.57-112.63-251.57-251.57-251.57m5.885 38.556c120.9 0 218.9 98 218.9 218.9s-98 218.9-218.9 218.9-218.93-98-218.93-218.9 98.03-218.9 218.93-218.9"/>
   <path d="m256 8.356c-136.77 0-247.64 110.87-247.64 247.64s110.87 247.64 247.64 247.64 247.64-110.87 247.64-247.64-110.87-247.64-247.64-247.64m2.942 31.691c120.9 0 218.9 98 218.9 218.9s-98 218.9-218.9 218.9-218.93-98-218.93-218.9 98.03-218.9 218.93-218.9"/>
  </g>
  <path d="m253.04 7.859c-135.42 0-245.19 109.78-245.19 245.19 0 135.42 109.78 245.19 245.19 245.19 135.42 0 245.19-109.78 245.19-245.19 0-135.42-109.78-245.19-245.19-245.19zm0 26.297c120.9 0 218.9 98 218.9 218.9s-98 218.9-218.9 218.9-218.93-98-218.93-218.9 98.03-218.9 218.93-218.9z" stroke-opacity=".31" stroke="#000000" stroke-width="4.904" fill="#ffffff"/>
 </g>
 <path opacity=".25" d="m253.41 400.89 62.227 61.155c119.79-13.87 175.42-203.07 156.3-205.9l-82.441-81.083"/>
 <g transform="matrix(7.4539 0 0 7.4539 74.507 79.093)">
  <path fill="none" d="m23.623 3.5c-7.4475 5.5766-19.119 9-19.119 9 3.0189 25.75 19.497 32 19.497 32s16.226-6.5 19.497-32.375c0 0-14.088-5.125-19.874-8.625z" display="block"/>
  <path fill="#ffffff" d="m23.646 4.7893c-6.9791 5.2259-17.917 8.434-17.917 8.434 2.829 24.131 18.231 29.987 18.231 29.987s15.245-6.0912 18.31-30.339c0 0-13.202-4.8027-18.624-8.0825z" display="block"/>
  <path fill="none" d="m23.505 7.5v33s-12.396-5.2594-16.101-26c5.283-0.875 16.101-7 16.101-7z" display="block"/>
  <path transform="translate(.00015096)" d="m22.453 44.202c-7.3798-3.9726-13.396-12.035-16.387-21.962-1.0727-3.5598-2.1914-9.5369-1.8598-9.9364 0.086708-0.10448 0.77964-0.39473 1.5398-0.64501 6.1552-2.0265 12.943-5.2097 16.618-7.7929 0.60125-0.42265 1.171-0.76846 1.2661-0.76846 0.09513 0 0.7282 0.31186 1.4068 0.69302 3.001 1.6856 8.627 4.1261 16.024 6.9511 1.3727 0.52424 2.5817 1.0356 2.6868 1.1364 0.21037 0.20175 0.12996 0.96614-0.4213 4.0052-2.0419 11.257-7.4346 20.786-14.984 26.478-1.0788 0.8134-4.0694 2.5953-4.3494 2.5916-0.08284-0.0011-0.77591-0.3386-1.5402-0.75zm3.2971-1.1409c4.8608-2.9271 9.4973-8.1679 12.417-14.036 1.5353-3.0852 3.0057-7.2855 3.8258-10.929 0.34621-1.5379 1.0789-5.6071 1.0192-5.6608-0.01484-0.01334-1.7948-0.71387-3.9555-1.5567-5.3837-2.1001-9.4259-3.8396-12.633-5.4361-1.4873-0.74049-2.7539-1.3463-2.8146-1.3463-0.06072 0-0.51527 0.28196-1.0101 0.62659-3.5541 2.4752-10.162 5.5797-16.257 7.6381l-1.2143 0.41008 0.02237 0.84252c0.0253 0.9529 0.6028 4.1298 1.1395 6.2684 2.6753 10.661 8.4566 18.963 16.326 23.445 0.59618 0.33958 1.2117 0.61939 1.3678 0.6218 0.15612 0.0024 0.95108-0.3974 1.7666-0.88847z" fill="none"/>
 </g>
</svg>
