<?xml version="1.0" encoding="UTF-8" standalone="no"?>
<svg
   xmlns:dc="http://purl.org/dc/elements/1.1/"
   xmlns:cc="http://creativecommons.org/ns#"
   xmlns:rdf="http://www.w3.org/1999/02/22-rdf-syntax-ns#"
   xmlns:svg="http://www.w3.org/2000/svg"
   xmlns="http://www.w3.org/2000/svg"
   xmlns:sodipodi="http://sodipodi.sourceforge.net/DTD/sodipodi-0.dtd"
   xmlns:inkscape="http://www.inkscape.org/namespaces/inkscape"
   height="512"
   viewBox="0 0 512 512"
   width="512"
   id="svg2"
   version="1.1"
   inkscape:version="0.91 r13725"
   sodipodi:docname="mirage.svg">
  <metadata
     id="metadata25">
    <rdf:RDF>
      <cc:Work
         rdf:about="">
        <dc:format>image/svg+xml</dc:format>
        <dc:type
           rdf:resource="http://purl.org/dc/dcmitype/StillImage" />
        <dc:title></dc:title>
      </cc:Work>
    </rdf:RDF>
  </metadata>
  <defs
     id="defs23" />
  <sodipodi:namedview
     pagecolor="#ffffff"
     bordercolor="#666666"
     borderopacity="1"
     objecttolerance="10"
     gridtolerance="10"
     guidetolerance="10"
     inkscape:pageopacity="0"
     inkscape:pageshadow="2"
     inkscape:window-width="640"
     inkscape:window-height="480"
     id="namedview21"
     showgrid="false"
     inkscape:zoom="0.65186406"
     inkscape:cx="-262.23055"
     inkscape:cy="119.01007"
     inkscape:current-layer="svg2" />
  <path
     d="m471.95 253.05c0 120.9-98.01 218.9-218.9 218.9-120.9 0-218.9-98.01-218.9-218.9 0-120.9 98.01-218.9 218.9-218.9 120.9 0 218.9 98.01 218.9 218.9"
     fill="#1793d1"
     fill-rule="evenodd"
     id="path5"
     style="fill:#a1a1a1;fill-opacity:1" />
  <path
     d="m256 1c-140.83 0-255 114.17-255 255 0 140.83 114.17 255 255 255 140.83 0 255-114.17 255-255 0-140.83-114.17-255-255-255m8.827 44.931c120.9 0 218.9 98 218.9 218.9 0 120.9-98 218.9-218.9 218.9-120.9 0-218.93-98-218.93-218.9 0-120.9 98.03-218.9 218.93-218.9"
     fill-opacity=".067"
     fill-rule="evenodd"
     id="path7" />
  <g
     fill-opacity=".129"
     fill-rule="evenodd"
     id="g9">
    <path
       d="m256 4.433c-138.94 0-251.57 112.63-251.57 251.57 0 138.94 112.63 251.57 251.57 251.57 138.94 0 251.57-112.63 251.57-251.57 0-138.94-112.63-251.57-251.57-251.57m5.885 38.556c120.9 0 218.9 98 218.9 218.9 0 120.9-98 218.9-218.9 218.9-120.9 0-218.93-98-218.93-218.9 0-120.9 98.03-218.9 218.93-218.9"
       id="path11" />
    <path
       d="m256 8.356c-136.77 0-247.64 110.87-247.64 247.64 0 136.77 110.87 247.64 247.64 247.64 136.77 0 247.64-110.87 247.64-247.64 0-136.77-110.87-247.64-247.64-247.64m2.942 31.691c120.9 0 218.9 98 218.9 218.9 0 120.9-98 218.9-218.9 218.9-120.9 0-218.93-98-218.93-218.9 0-120.9 98.03-218.9 218.93-218.9"
       id="path13" />
  </g>
  <path
     d="m 331.39311,118.21328 -28.83675,-3.28547 -2.236,0.568 11.867,11.867 -46.14,-12.02 -3.336,0 -37.533,12.662 -1.113,0.934 -4.193,-4.193 -39.00655,6.35244 -10.92173,12.0842 -22.58781,7.68378 -21.63848,34.68458 -8.62744,36.545 145.83706,94.95668 -5.71874,30.27381 -147.18464,35.681 179.41289,89.38898 c 52.39938,-6.56974 196.13932,-55.73591 180.79644,-261.18847 l -123.25881,-87.4622 -50.29831,3.14564"
     id="path15"
     inkscape:connector-curvature="0"
     style="opacity:0.25"
     sodipodi:nodetypes="ccccccccccccccccccccc" />
  <path
     d="m 252.36507,100.14989 c -144.15202,1.22736 -142.89625,120.92097 -142.89625,120.92097 13.78843,11.046 50.08775,-49.7257 66.38319,-47.27099 19.97699,3.0092 4.92293,73.72763 17.45786,76.18228 8.39134,1.64324 25.81386,-26.29475 42.02833,-44.10555 l 0,125.77469 c -121.64587,3.46088 -125.86938,54.44608 -125.86938,54.44608 l 284.49926,-1.89929 c 0,0 -1.2348,-45.23323 -116.60156,-51.91371 l 0,-119.44375 c 13.15935,17.74392 27.72672,39.49703 31.8984,35.24224 15.04187,-15.34165 1.90555,-69.35693 14.44047,-80.40293 12.53493,-11.046 61.75172,66.85058 67.67636,55.29022 5.92465,-11.56037 5.13533,-124.047543 -139.01668,-122.82026 z"
     id="path-main"
     inkscape:connector-curvature="0"
     style="fill:#ffffff" />
  <path
     d="m253.04 7.859c-135.42 0-245.19 109.78-245.19 245.19 0 135.42 109.78 245.19 245.19 245.19 135.42 0 245.19-109.78 245.19-245.19 0-135.42-109.78-245.19-245.19-245.19zm0 26.297c120.9 0 218.9 98 218.9 218.9 0 120.9-98 218.9-218.9 218.9-120.9 0-218.93-98-218.93-218.9 0-120.9 98.03-218.9 218.93-218.9z"
     fill="#ffffff"
     fill-rule="evenodd"
     stroke="#000000"
     stroke-opacity=".31"
     stroke-width="4.904"
     id="path19" />
</svg>
