<svg height="512" viewBox="0 0 512 512" width="512" xmlns="http://www.w3.org/2000/svg">
 <g transform="translate(0 -540.36)">
  <path d="m471.95 793.41c0 120.9-98.01 218.9-218.9 218.9-120.9 0-218.9-98.01-218.9-218.9 0-120.9 98.01-218.9 218.9-218.9 120.9 0 218.9 98.01 218.9 218.9" fill="#878787" fill-rule="evenodd"/>
  <path d="m299.53 129.16c-42.474.166-86.89 23.15-119.53 50.25-33 27.476-50.639 60.45-74.09 96.31l-9.594 19.75c2.876 3.078 5.775 6.05 8.656 8.938.067.068.121.151.188.219.25.25.5.501.75.75.082.083.168.167.25.25.198.197.396.398.594.594.133.135.273.272.406.406.307.303.63.606.938.906l.031.031.031.031c.313.308.625.632.938.938l.063.063c.326.331.643.672.969 1 .31.305.628.603.938.906.026.026.037.068.063.094.309.304.629.604.938.906.005.005-.005.026 0 .031.02.02.043.042.063.063.309.304.629.604.938.906.026.026.037.068.063.094.307.303.63.606.938.906l.031.031.031.031c.313.308.625.632.938.938l.063.063c.326.331.643.672.969 1 .31.305.628.603.938.906.026.026.037.068.063.094.309.304.629.604.938.906.005.005-.005.026 0 .031.02.02.043.042.063.063.309.304.629.604.938.906.026.026.037.068.063.094.307.303.63.606.938.906l.031.031.031.031c.313.308.625.632.938.938l.063.063c.326.331.643.672.969 1 .31.305.628.603.938.906.026.026.037.068.063.094.309.304.629.604.938.906.005.005-.005.026 0 .031.02.02.043.042.063.063.309.304.629.604.938.906.005.005-.005.026 0 .031l.063.063c.307.303.63.606.938.906.026.026.037.068.063.094.307.303.63.606.938.906l.031.031.031.031c.313.308.625.632.938.938.016.016.016.047.031.063.2.198.394.397.594.594.134.136.272.271.406.406.31.305.628.603.938.906.026.026.037.068.063.094.309.304.629.604.938.906.005.005-.005.026 0 .031.02.02.043.042.063.063.307.303.63.606.938.906.026.026.037.068.063.094.307.303.63.606.938.906l.031.031.031.031c.313.308.625.632.938.938l.063.063c.326.331.643.672.969 1 .31.305.628.603.938.906.026.026.037.068.063.094.309.304.629.604.938.906.005.005-.005.026 0 .031.02.02.043.042.063.063.309.304.629.604.938.906.026.026.037.068.063.094.307.303.63.606.938.906l.031.031.031.031c.313.308.625.632.938.938l.063.063c.326.331.643.672.969 1 .31.305.628.603.938.906.026.026.037.068.063.094.309.304.629.604.938.906.005.005-.005.026 0 .031.02.02.043.042.063.063.309.304.629.604.938.906.005.005-.005.026 0 .031l.063.063c.307.303.63.606.938.906l.031.031c.015.016.016.047.031.063.307.303.63.606.938.906l.063.063c.326.331.643.672.969 1 .31.305.628.603.938.906.026.026.037.068.063.094.31.305.628.603.938.906.026.026.037.068.063.094.309.304.629.604.938.906.005.005-.005.026 0 .031.02.02.043.042.063.063.307.303.63.606.938.906.026.026.037.068.063.094.307.303.63.606.938.906l.031.031.031.031c.313.308.625.632.938.938l.063.063c.326.331.643.672.969 1 .31.305.628.603.938.906.026.026.037.068.063.094.309.304.629.604.938.906.005.005-.005.026 0 .031.02.02.043.042.063.063.309.304.629.604.938.906.026.026.037.068.063.094.307.303.63.606.938.906l.031.031.031.031c.313.308.625.632.938.938l.063.063c.326.331.643.672.969 1 .31.305.628.603.938.906.026.026.037.068.063.094.309.304.629.604.938.906.005.005-.005.026 0 .031.02.02.043.042.063.063.309.304.629.604.938.906.026.026.037.068.063.094.307.303.63.606.938.906l.031.031.031.031c.313.308.625.632.938.938l.063.063c.326.331.643.672.969 1 .31.305.628.603.938.906.026.026.037.068.063.094.309.304.629.604.938.906.005.005-.005.026 0 .031.02.02.043.042.063.063.309.304.629.604.938.906.005.005-.005.026 0 .031l.063.063c.307.303.63.606.938.906.026.026.037.068.063.094.307.303.63.606.938.906l.031.031.031.031c.313.308.625.632.938.938.016.016.016.047.031.063.2.198.394.397.594.594.134.136.272.271.406.406.31.305.628.603.938.906.026.026.037.068.063.094.309.304.629.604.938.906.005.005-.005.026 0 .031.02.02.043.042.063.063.307.303.63.606.938.906.026.026.037.068.063.094.307.303.63.606.938.906l.031.031.031.031c.313.308.625.632.938.938l.063.063c.326.331.643.672.969 1 .31.305.628.603.938.906.026.026.037.068.063.094.309.304.629.604.938.906.005.005-.005.026 0 .031.02.02.043.042.063.063.309.304.629.604.938.906.026.026.037.068.063.094.307.303.63.606.938.906l.031.031.031.031c.313.308.625.632.938.938l.063.063c.326.331.643.672.969 1 .31.305.628.603.938.906.026.026.037.068.063.094.309.304.629.604.938.906.005.005-.005.026 0 .031.02.02.043.042.063.063.309.304.629.604.938.906.005.005-.005.026 0 .031l.063.063c.307.303.63.606.938.906l.031.031c.015.016.016.047.031.063.307.303.63.606.938.906l.063.063c.326.331.643.672.969 1 .31.305.628.603.938.906.026.026.037.068.063.094.31.305.628.603.938.906.026.026.037.068.063.094.309.304.629.604.938.906.005.005-.005.026 0 .031.02.02.043.042.063.063.307.303.63.606.938.906.026.026.037.068.063.094.307.303.63.606.938.906l.031.031.031.031c.313.308.625.632.938.938l.063.063c.326.331.643.672.969 1 .31.305.628.603.938.906.026.026.037.068.063.094.309.304.629.604.938.906.005.005-.005.026 0 .031.02.02.043.042.063.063.309.304.629.604.938.906.026.026.037.068.063.094.307.303.63.606.938.906l.031.031.031.031c.313.308.625.632.938.938l.063.063c.326.331.643.672.969 1 .31.305.628.603.938.906.026.026.037.068.063.094.309.304.629.604.938.906.005.005-.005.026 0 .031.02.02.043.042.063.063.309.304.629.604.938.906.026.026.037.068.063.094.307.303.63.606.938.906l.031.031.031.031c.313.308.625.632.938.938l.063.063c.326.331.643.672.969 1 .31.305.628.603.938.906.026.026.037.068.063.094.309.304.629.604.938.906.005.005-.005.026 0 .031.02.02.043.042.063.063.309.304.629.604.938.906.005.005-.005.026 0 .031l.063.063c.307.303.63.606.938.906.026.026.037.068.063.094.307.303.63.606.938.906l.063.063c.313.308.625.632.938.938.016.016.016.047.031.063.31.305.628.603.938.906.026.026.037.068.063.094.31.305.628.603.938.906.026.026.037.068.063.094.309.304.629.604.938.906.005.005-.005.026 0 .031.02.02.043.042.063.063.307.303.63.606.938.906.026.026.037.068.063.094.307.303.63.606.938.906l.031.031.031.031c.313.308.625.632.938.938l.063.063c.326.331.643.672.969 1 .31.305.628.603.938.906.026.026.037.068.063.094.309.304.629.604.938.906.005.005-.005.026 0 .031.02.02.043.042.063.063.309.304.629.604.938.906.026.026.037.068.063.094.307.303.63.606.938.906l.031.031.031.031c.313.308.625.632.938.938l.063.063c.326.331.643.672.969 1 .31.305.628.603.938.906.026.026.037.068.063.094.309.304.629.604.938.906.005.005-.005.026 0 .031.02.02.043.042.063.063.309.304.629.604.938.906.005.005-.005.026 0 .031l.063.063c.307.303.63.606.938.906l.031.031c.015.016.016.047.031.063.307.303.63.606.938.906l.063.063c.326.331.643.672.969 1 .31.305.628.603.938.906.026.026.037.068.063.094.31.305.628.603.938.906.026.026.037.068.063.094.309.304.629.604.938.906.005.005-.005.026 0 .031.02.02.043.042.063.063.307.303.63.606.938.906.026.026.037.068.063.094.307.303.63.606.938.906l.031.031.031.031c.313.308.625.632.938.938.016.016.016.047.031.063.2.198.394.397.594.594.134.136.272.271.406.406.31.305.628.603.938.906.026.026.037.068.063.094.309.304.629.604.938.906.005.005-.005.026 0 .031.02.02.043.042.063.063.307.303.63.606.938.906.026.026.037.068.063.094.307.303.63.606.938.906l.031.031.031.031c.313.308.625.632.938.938l.063.063c.326.331.643.672.969 1 .31.305.628.603.938.906.026.026.037.068.063.094.309.304.629.604.938.906.005.005-.005.026 0 .031.02.02.043.042.063.063.309.304.629.604.938.906.026.026.037.068.063.094.307.303.63.606.938.906l.031.031.031.031c.313.308.625.632.938.938l.063.063c.326.331.643.672.969 1 .31.305.628.603.938.906.026.026.037.068.063.094.309.304.629.604.938.906.005.005-.005.026 0 .031.02.02.043.042.063.063.309.304.629.604.938.906.005.005-.005.026 0 .031l.063.063c.307.303.63.606.938.906l.031.031c.015.016.016.047.031.063.307.303.63.606.938.906l.063.063c.326.331.643.672.969 1 .31.305.628.603.938.906.026.026.037.068.063.094.31.305.628.603.938.906.026.026.037.068.063.094.309.304.629.604.938.906.005.005-.005.026 0 .031.02.02.043.042.063.063.307.303.63.606.938.906.026.026.037.068.063.094.307.303.63.606.938.906l.031.031.031.031c.313.308.625.632.938.938l.063.063c.326.331.643.672.969 1 .31.305.628.603.938.906.026.026.037.068.063.094.309.304.629.604.938.906.005.005-.005.026 0 .031.02.02.043.042.063.063.309.304.629.604.938.906.026.026.037.068.063.094.307.303.63.606.938.906l.031.031.031.031c.313.308.625.632.938.938l.063.063c.119.121.226.253.344.375 110.38-9.313 197.44-100.53 200.19-212.66-.395-.399-.786-.798-1.188-1.188-.053-.052-.103-.104-.156-.156-.273-.284-.538-.564-.813-.844-.136-.136-.27-.272-.406-.406-.37-.373-.753-.728-1.125-1.094-.333-.335-.665-.671-1-1-.496-.499-.969-1.015-1.469-1.5-.335-.333-.664-.642-1-.969-.053-.052-.103-.104-.156-.156-.273-.284-.538-.564-.813-.844-.136-.136-.27-.272-.406-.406-.37-.373-.753-.728-1.125-1.094-.333-.335-.665-.671-1-1-.496-.499-.969-1.015-1.469-1.5-.335-.333-.664-.642-1-.969-.053-.052-.103-.104-.156-.156-.452-.459-.888-.928-1.344-1.375-.155-.16-.313-.31-.469-.469-.136-.136-.27-.272-.406-.406-.37-.373-.753-.728-1.125-1.094-.333-.335-.665-.671-1-1-.493-.496-.972-.986-1.469-1.469-.053-.052-.103-.104-.156-.156-.452-.459-.888-.928-1.344-1.375-.155-.16-.313-.31-.469-.469-.136-.136-.27-.272-.406-.406-.37-.373-.753-.728-1.125-1.094-.333-.335-.665-.671-1-1-.334-.336-.664-.67-1-1-.493-.496-.972-.986-1.469-1.469-.053-.052-.103-.104-.156-.156-.273-.284-.538-.564-.813-.844-.136-.136-.27-.272-.406-.406-.37-.373-.753-.728-1.125-1.094-.333-.335-.665-.671-1-1-.496-.499-.969-1.015-1.469-1.5-.335-.333-.664-.642-1-.969-.053-.052-.103-.104-.156-.156-.452-.459-.888-.928-1.344-1.375-.328-.33-.67-.644-1-.969-.334-.336-.664-.67-1-1-.332-.334-.666-.672-1-1-.493-.496-.972-.986-1.469-1.469-.053-.052-.103-.104-.156-.156-.452-.459-.888-.928-1.344-1.375-.155-.16-.313-.31-.469-.469-.136-.136-.27-.272-.406-.406-.37-.373-.753-.728-1.125-1.094-.333-.335-.665-.671-1-1-.334-.336-.664-.67-1-1-.493-.496-.972-.986-1.469-1.469-.053-.052-.103-.104-.156-.156-.273-.284-.538-.564-.813-.844-.136-.136-.27-.272-.406-.406-.37-.373-.753-.728-1.125-1.094-.333-.335-.665-.671-1-1-.496-.499-.969-1.015-1.469-1.5-.335-.333-.664-.642-1-.969-.053-.052-.103-.104-.156-.156-.273-.284-.538-.564-.813-.844-.136-.136-.27-.272-.406-.406-.37-.373-.753-.728-1.125-1.094-.333-.335-.665-.671-1-1-.496-.499-.969-1.015-1.469-1.5-.335-.333-.664-.642-1-.969-.053-.052-.103-.104-.156-.156-.452-.459-.888-.928-1.344-1.375-.328-.33-.67-.644-1-.969-.334-.336-.664-.67-1-1-.332-.334-.666-.672-1-1-.493-.496-.972-.986-1.469-1.469-.053-.052-.103-.104-.156-.156-.452-.459-.888-.928-1.344-1.375-.155-.16-.313-.31-.469-.469-.136-.136-.27-.272-.406-.406-.37-.373-.753-.728-1.125-1.094-.333-.335-.665-.671-1-1-.334-.336-.664-.67-1-1-.493-.496-.972-.986-1.469-1.469-.053-.052-.103-.104-.156-.156-.273-.284-.538-.564-.813-.844-.136-.136-.27-.272-.406-.406-.37-.373-.753-.728-1.125-1.094-.333-.335-.665-.671-1-1-.496-.499-.969-1.015-1.469-1.5-.335-.333-.664-.642-1-.969-.053-.052-.103-.104-.156-.156-.452-.459-.888-.928-1.344-1.375-.328-.33-.67-.644-1-.969-.334-.336-.664-.67-1-1-.332-.334-.666-.672-1-1-.493-.496-.972-.986-1.469-1.469-.053-.052-.103-.104-.156-.156-.452-.459-.888-.928-1.344-1.375-.155-.16-.313-.31-.469-.469-.136-.136-.27-.272-.406-.406-.37-.373-.753-.728-1.125-1.094-.333-.335-.665-.671-1-1-.334-.336-.664-.67-1-1-.493-.496-.972-.986-1.469-1.469-.053-.052-.103-.104-.156-.156-.273-.284-.538-.564-.813-.844-.136-.136-.27-.272-.406-.406-.37-.373-.753-.728-1.125-1.094-.333-.335-.665-.671-1-1-.496-.499-.969-1.015-1.469-1.5-.335-.333-.664-.642-1-.969-.053-.052-.103-.104-.156-.156-.273-.284-.538-.564-.813-.844-.136-.136-.27-.272-.406-.406-.37-.373-.753-.728-1.125-1.094-.333-.335-.665-.671-1-1-.158-.163-.31-.338-.469-.5-.338-.336-.66-.671-1-1-21.402-21.29-46.655-29.726-72.66-29.625" fill-opacity=".235" transform="translate(0 540.36)"/>
  <g fill-rule="evenodd">
   <path d="m256 541.36c-140.83 0-255 114.17-255 255s114.17 255 255 255 255-114.17 255-255-114.17-255-255-255m8.827 44.931c120.9 0 218.9 98 218.9 218.9s-98 218.9-218.9 218.9-218.93-98-218.93-218.9 98.03-218.9 218.93-218.9" fill-opacity=".067"/>
   <g fill-opacity=".129">
    <path d="m256 544.79c-138.94 0-251.57 112.63-251.57 251.57s112.63 251.54 251.57 251.54 251.57-112.6 251.57-251.54-112.63-251.57-251.57-251.57m5.885 38.556c120.9 0 218.9 98 218.9 218.9s-98 218.9-218.9 218.9-218.93-98-218.93-218.9 98.03-218.9 218.93-218.9"/>
    <path d="m256 548.72c-136.77 0-247.64 110.87-247.64 247.64s110.87 247.64 247.64 247.64 247.64-110.87 247.64-247.64-110.87-247.64-247.64-247.64m2.942 31.691c120.9 0 218.9 98 218.9 218.9s-98 218.9-218.9 218.9-218.93-98-218.93-218.9 98.03-218.9 218.93-218.9"/>
   </g>
   <path d="m253.04 548.22c-135.42 0-245.19 109.78-245.19 245.19 0 135.42 109.78 245.19 245.19 245.19 135.42 0 245.19-109.78 245.19-245.19 0-135.42-109.78-245.19-245.19-245.19zm0 26.297c120.9 0 218.9 98 218.9 218.9s-98 218.9-218.9 218.9-218.93-98-218.93-218.9 98.03-218.9 218.93-218.9z" fill="#ffffff" stroke="#000000" stroke-opacity=".31" stroke-width="4.904"/>
  </g>
  <path d="m299.52 669.51c-42.474.166-86.89 23.14-119.52 50.24-33 27.476-50.647 60.46-74.1 96.32l-9.57 19.769c83.55 89.41 169.7 97.24 217.64 68.3 33.29-20.1 52.16-48.49 62.24-84.74 8.175-29.398 13.539-63.944 10.147-103.41-23.937-33.775-54.834-46.61-86.84-46.49m-114.52 74.57h114.52c17.486 0 31.567 14.08 31.567 31.567v38.83c0 1.433-.105 2.84-.288 4.221v27.346h-32.538v-67.43c0-6.474-5.193-11.693-11.667-11.693s-11.693 5.219-11.693 11.693v67.43h-32.957v-67.43c0-6.474-5.219-11.693-11.694-11.693-6.474 0-11.693 5.219-11.693 11.693v67.43h-33.56z" fill="#ffffff"/>
 </g>
</svg>
