<svg viewBox="0 0 512 512" xmlns="http://www.w3.org/2000/svg">
 <path d="m471.95 253.05c0 120.9-98.01 218.91-218.91 218.91-120.9 0-218.91-98.01-218.91-218.91 0-120.9 98.01-218.91 218.91-218.91 120.9 0 218.91 98.01 218.91 218.91" fill="#b0b0b0" fill-rule="evenodd"/>
 <path d="m256 1c-140.83 0-255 114.17-255 255 0 140.83 114.17 255 255 255 140.83 0 255-114.17 255-255 0-140.83-114.17-255-255-255m8.827 44.931c120.9 0 218.9 98 218.9 218.9 0 120.9-98 218.9-218.9 218.9-120.9 0-218.93-98-218.93-218.9 0-120.9 98.03-218.9 218.93-218.9" fill-opacity=".067" fill-rule="evenodd"/>
 <g fill-opacity=".129" fill-rule="evenodd">
  <path d="m256 4.43c-138.94 0-251.57 112.63-251.57 251.57 0 138.94 112.63 251.57 251.57 251.57 138.94 0 251.57-112.63 251.57-251.57 0-138.94-112.63-251.57-251.57-251.57m5.885 38.556c120.9 0 218.9 98 218.9 218.9 0 120.9-98 218.9-218.9 218.9-120.9 0-218.93-98-218.93-218.9 0-120.9 98.03-218.9 218.93-218.9"/>
  <path d="m256 8.36c-136.77 0-247.64 110.87-247.64 247.64 0 136.77 110.87 247.64 247.64 247.64 136.77 0 247.64-110.87 247.64-247.64 0-136.77-110.87-247.64-247.64-247.64m2.942 31.691c120.9 0 218.9 98 218.9 218.9 0 120.9-98 218.9-218.9 218.9-120.9 0-218.93-98-218.93-218.9 0-120.9 98.03-218.9 218.93-218.9"/>
 </g>
 <path d="m253.04 7.86c-135.42 0-245.19 109.78-245.19 245.19 0 135.42 109.78 245.19 245.19 245.19 135.42 0 245.19-109.78 245.19-245.19 0-135.42-109.78-245.19-245.19-245.19m0 26.297c120.9 0 218.9 98 218.9 218.9 0 120.9-98 218.9-218.9 218.9-120.9 0-218.93-98-218.93-218.9 0-120.9 98.03-218.9 218.93-218.9z" fill="#ffffff" fill-rule="evenodd" stroke="#000000" stroke-opacity=".31" stroke-width="4.904"/>
 <path d="m125.34 116.2v129.47l86.62 86.62-14.824 54.31-.012.059-.164.564 83.08 83.08c108.16-13.303 191.91-105.49 191.91-217.25 0-20.752-2.888-40.83-8.283-59.854l-76.998-76.996h-14.877v34.525l-14.303-14.303h-14.879v29.03l-14.01-14.01h-14.891v21.15l-26.84-26.84c-7.889-7.889-18.787-12.77-30.826-12.77-20.684 0-37.994 14.409-42.473 33.732l-15.275-15.275h-13.867l-15.02-15.02h-8.959l-20.223-20.223h-14.889" opacity=".25"/>
 <path d="m125.34 116.2v129.47h14.89v-129.47zm246.45 0v129.47h14.879v-129.47zm-115.75 16.786c-24.08 0-43.612 19.527-43.612 43.612 0 19.573 12.895 36.13 30.652 41.646l-45.954 168.35-.012.059-.165.565a6.7414 6.7414 0 0 0 11.029 6.8154l.483-.447a6.7414 6.7414 0 0 0 .35314-.35313l49.46-52.32 46.696 52.19a6.7414 6.7414 0 0 0 .63564.6121l.471.412a6.7414 6.7414 0 0 0 10.853-7.0509l-.177-.577v-.012l-49.909-167.63c18.853-4.811 32.794-21.907 32.794-42.26 0-24.08-19.516-43.612-43.6-43.612m-101.53 3.437v89.02h14.89v-89.02zm188.09 0v89.02h14.879v-89.02zm-159.2 15.02v58.973h14.89v-58.973zm130.31 0v58.973h14.89v-58.973z" fill="#ffffff"/>
</svg>
