<svg height="512" viewBox="0 0 512 512" width="512" xmlns="http://www.w3.org/2000/svg">
 <path d="m471.95 253.05c0 120.9-98.01 218.9-218.9 218.9-120.9 0-218.9-98.01-218.9-218.9 0-120.9 98.01-218.9 218.9-218.9 120.9 0 218.9 98.01 218.9 218.9" fill="#a4a4a4" fill-rule="evenodd"/>
 <path d="m256 1c-140.83 0-255 114.17-255 255 0 140.83 114.17 255 255 255 140.83 0 255-114.17 255-255 0-140.83-114.17-255-255-255m8.827 44.931c120.9 0 218.9 98 218.9 218.9 0 120.9-98 218.9-218.9 218.9-120.9 0-218.93-98-218.93-218.9 0-120.9 98.03-218.9 218.93-218.9" fill-opacity=".067" fill-rule="evenodd"/>
 <g fill-opacity=".129" fill-rule="evenodd">
  <path d="m256 4.433c-138.94 0-251.57 112.63-251.57 251.57 0 138.94 112.63 251.57 251.57 251.57 138.94 0 251.57-112.63 251.57-251.57 0-138.94-112.63-251.57-251.57-251.57m5.885 38.556c120.9 0 218.9 98 218.9 218.9 0 120.9-98 218.9-218.9 218.9-120.9 0-218.93-98-218.93-218.9 0-120.9 98.03-218.9 218.93-218.9"/>
  <path d="m256 8.356c-136.77 0-247.64 110.87-247.64 247.64 0 136.77 110.87 247.64 247.64 247.64 136.77 0 247.64-110.87 247.64-247.64 0-136.77-110.87-247.64-247.64-247.64m2.942 31.691c120.9 0 218.9 98 218.9 218.9 0 120.9-98 218.9-218.9 218.9-120.9 0-218.93-98-218.93-218.9 0-120.9 98.03-218.9 218.93-218.9"/>
 </g>
 <path d="m273.57819 103.15643c-1.9481 27.04135-2.55107-5.471305-31.30307 51.27065l-18.98689.934-14.29563 7.46389-19.54611 93.74658 133.60749 72.42469-14.76811 17.60838-82.73992-43.70784-37.73717 53.64177 62.15342 33.76161-12.00353 18.23848 92.30984 45.69229c75.36717-27.58678 121.43914-51.93988 143.88485-201.65312l-3.92-41.37" opacity=".25"/>
 <path d="m253.04 7.859c-135.42 0-245.19 109.78-245.19 245.19 0 135.42 109.78 245.19 245.19 245.19 135.42 0 245.19-109.78 245.19-245.19 0-135.42-109.78-245.19-245.19-245.19zm0 26.297c120.9 0 218.9 98 218.9 218.9 0 120.9-98 218.9-218.9 218.9-120.9 0-218.93-98-218.93-218.9 0-120.9 98.03-218.9 218.93-218.9z" fill="#ffffff" fill-rule="evenodd" stroke="#000000" stroke-opacity=".31" stroke-width="4.904"/>
 <path d="m275.2601 375.59303v34.48759h-38.5202v-33.85563c-22.45003-2.52793-40.08511-10.11155-52.90509-22.78107-12.85011-12.85011-19.59114-29.73282-20.28327-50.618l62.2041.30123c.24037 7.61374 3.22006 13.63252 8.93784 18.05634 5.71786 4.42381 12.82006 6.65074 21.30652 6.65074 7.34287 0 13.75294-1.71531 19.2601-5.08582 6.40999-3.58123 9.59992-8.54671 9.59992-14.86641 0-9.26888-10.29205-17.39425-30.93649-24.34599-30.69582-10.35231-49.80545-17.93593-57.38908-22.78108-20.61431-12.66952-30.90644-30.69574-30.90644-54.10877 0-19.19993 6.74103-35.33026 20.25322-48.42112 13.06073-12.42877 30.03366-19.92218 50.85867-22.45003v-33.85563h38.5202v33.85563c44.65931 7.373 67.22975 31.74904 67.68121 73.09808h-60.81984c0-8.03509-2.52785-14.56541-7.5535-19.62119-5.05578-5.29653-11.91723-7.91474-20.64444-7.91474-6.86145 0-12.81998 1.77555-17.84571 5.38681-5.74791 3.79186-8.60688 8.84763-8.60688 15.16733 0 8.03508 10.4426 15.709 31.26761 23.11212 30.48512 10.32218 49.95584 18.23692 58.44238 23.71403 20.85506 12.88015 31.26753 30.5754 31.26753 53.14577 0 20.0426-6.86144 36.7146-20.61431 50.01608-13.06073 12.42877-30.60552 20.34352-52.57405 23.71404" fill="#ffffff"/>
</svg>
