<svg height="512" viewBox="0 0 512 512" width="512" xmlns="http://www.w3.org/2000/svg">
 <path d="m471.95 253.05c0 120.9-98.01 218.9-218.9 218.9-120.9 0-218.9-98.01-218.9-218.9 0-120.9 98.01-218.9 218.9-218.9 120.9 0 218.9 98.01 218.9 218.9" fill="#b0b0b0" fill-rule="evenodd"/>
 <path d="m256 1c-140.83 0-255 114.17-255 255 0 140.83 114.17 255 255 255 140.83 0 255-114.17 255-255 0-140.83-114.17-255-255-255m8.827 44.931c120.9 0 218.9 98 218.9 218.9 0 120.9-98 218.9-218.9 218.9-120.9 0-218.93-98-218.93-218.9 0-120.9 98.03-218.9 218.93-218.9" fill-opacity=".067" fill-rule="evenodd"/>
 <g fill-opacity=".129" fill-rule="evenodd">
  <path d="m256 4.433c-138.94 0-251.57 112.63-251.57 251.57 0 138.94 112.63 251.57 251.57 251.57 138.94 0 251.57-112.63 251.57-251.57 0-138.94-112.63-251.57-251.57-251.57m5.885 38.556c120.9 0 218.9 98 218.9 218.9 0 120.9-98 218.9-218.9 218.9-120.9 0-218.93-98-218.93-218.9 0-120.9 98.03-218.9 218.93-218.9"/>
  <path d="m256 8.356c-136.77 0-247.64 110.87-247.64 247.64 0 136.77 110.87 247.64 247.64 247.64 136.77 0 247.64-110.87 247.64-247.64 0-136.77-110.87-247.64-247.64-247.64m2.942 31.691c120.9 0 218.9 98 218.9 218.9 0 120.9-98 218.9-218.9 218.9-120.9 0-218.93-98-218.93-218.9 0-120.9 98.03-218.9 218.93-218.9"/>
 </g>
 <path d="m393.26958 165.14406c15.68668 12.8933-47.48899 16.44326-60.56375 2.71572-80.22092-40.16252-152.54482 16.06888-203.19641 54.77599 55.25417 61.81666 42.47854 40.80972 49.24054 58.52372 6.535 17.12-5.12854 55.33826 2.75146 63.21626l131.76129 118.27231c143.08728-11.95875 176.16108-174.09542 160.81472-209.799" opacity=".25"/>
 <path d="m253.04 7.859c-135.42 0-245.19 109.78-245.19 245.19 0 135.42 109.78 245.19 245.19 245.19 135.42 0 245.19-109.78 245.19-245.19 0-135.42-109.78-245.19-245.19-245.19zm0 26.297c120.9 0 218.9 98 218.9 218.9 0 120.9-98 218.9-218.9 218.9-120.9 0-218.93-98-218.93-218.9 0-120.9 98.03-218.9 218.93-218.9z" fill="#ffffff" fill-rule="evenodd" stroke="#000000" stroke-opacity=".31" stroke-width="4.904"/>
 <g fill="#ffffff" transform="matrix(1.1422055 0 0 1.1422055 -37.010474 -34.185267)">
  <path d="m131.66731 190.1167c9.86078-22.46503 30.53052-35.13758 46.13782-28.28693 15.60729 6.85065 20.27114 30.6431 10.41035 53.10813-9.86078 22.46505-12.87005 33.18925-42.51275 21.19226-15.7997-6.39442-23.89621-23.54841-14.03542-46.01346z"/>
  <path d="m388.8538 191.05239c-9.86079-22.46503-30.53052-35.13758-46.13783-28.28693-15.60729 6.85066-20.27113 30.6431-10.41034 53.10813 9.86078 22.46505 12.87005 33.18925 42.51275 21.19226 15.7997-6.39442 23.89621-23.54841 14.03542-46.01346z"/>
  <path d="m258.38477 125.32617c-53.13597-.00074-96.2114 49.82719-96.21094 111.29297.0387 16.24129 11.24926 58.19405 17.21463 72.89658h160.69436c5.96402-14.70288 14.47349-56.65562 14.51093-72.89658.00046-61.46489-43.07377-111.29246-96.20898-111.29297zm24.48828 78.89649c3.98802.001 7.22061 6.13511 7.2207 13.70117-.00009 7.56606-3.23268 13.69985-7.2207 13.70117-3.98879.00073-7.22257-6.13365-7.22266-13.70117.00009-7.56752 3.23387-13.7019 7.22266-13.70117zm-51.93555.35937c3.87314-.1542 7.25742 5.89642 7.55859 13.51367.30131 7.61651-2.59399 13.91517-6.46679 14.06836-3.87314.15421-7.25743-5.89641-7.5586-13.51367-.30131-7.61651 2.59399-13.91518 6.4668-14.06836zm26.99609 41.64063c9.22442-.0001 16.70256 3.65939 16.70313 8.17382.002 4.5152-7.47713 8.17589-16.70313 8.17579-9.22599.0001-16.70478-3.6606-16.70312-8.17579.00057-4.51442 7.4787-8.17392 16.70312-8.17382z"/>
  <path d="m185.01927 274.67383c-4.64057 5.28482-8.90379 14.01497-7.51368 27.91602 3.74279 37.4278 43.72023 53.2158 86.08399 52.86523 35.60459-.27303 76.19353-17.30993 76.72657-50.99414.2251-17.51503-2.87718-25.16225-7.05079-29.78711zm14.36914 28.19532l120.44922.75c-32.11972 31.52566-97.30412 24.39547-120.44922-.75z" fill-rule="evenodd"/>
 </g>
</svg>
