<svg height="512" viewBox="0 0 512 512" width="512" xmlns="http://www.w3.org/2000/svg">
 <g fill-rule="evenodd" transform="translate(0 -540.36)">
  <path d="m562.86-316.57c0 198.82-161.18 360-360 360s-360-161.18-360-360 161.18-360 360-360 360 161.18 360 360" fill="#777777" transform="matrix(.63719 0 0 .63719 126.15 998.46)"/>
  <path d="m562.86-316.57c0 198.82-161.18 360-360 360s-360-161.18-360-360 161.18-360 360-360 360 161.18 360 360" fill="#777777" transform="matrix(.4805 0 0 .4805 169.48 933.47)"/>
  <g transform="translate(0 540.36)">
   <path d="m256 145.84c-60.839 0-110.16 49.32-110.16 110.16 0 30.903 12.724 58.84 33.22 78.84l.031.031c.3.292.603.586.906.875.016.016.016.047.031.063l.063.063c.297.29.606.589.906.875.256.257.491.527.75.781.114.115.23.23.344.344.292.284.58.563.875.844.046.047.079.109.125.156.011.01.021.021.031.031.626.641 1.265 1.281 1.906 1.906l.031.031c.3.292.603.586.906.875.016.016.016.047.031.063l.063.063c.297.29.606.589.906.875.202.203.39.424.594.625.383.388.767.774 1.156 1.156.114.115.23.23.344.344.292.284.58.563.875.844.046.047.079.109.125.156.011.01.021.021.031.031.626.641 1.265 1.281 1.906 1.906l.031.031c.3.292.603.586.906.875.016.016.016.047.031.063.135.135.271.272.406.406.436.443.869.877 1.313 1.313.114.115.23.23.344.344.292.284.58.563.875.844.046.047.079.109.125.156.011.01.021.021.031.031.626.641 1.265 1.281 1.906 1.906l.031.031c.3.292.603.586.906.875.016.016.016.047.031.063.135.135.271.272.406.406.436.443.869.877 1.313 1.313.114.115.23.23.344.344.292.284.58.563.875.844.046.047.079.109.125.156.011.01.021.021.031.031.626.641 1.265 1.281 1.906 1.906l.031.031c.3.292.603.586.906.875.016.016.016.047.031.063l.063.063c.297.29.606.589.906.875.256.257.491.527.75.781.114.115.23.23.344.344.292.284.58.563.875.844.02.021.042.042.063.063.026.026.036.067.063.094.292.284.58.563.875.844.021.021.042.041.063.063.026.026.036.068.063.094.292.284.58.563.875.844.016.016.016.047.031.063l.063.063c.302.295.601.584.906.875.016.016.016.047.031.063l.063.063c.297.29.606.589.906.875.202.203.39.424.594.625.383.388.767.774 1.156 1.156.114.115.23.23.344.344.292.284.58.563.875.844.046.047.079.109.125.156.011.01.021.021.031.031.626.641 1.265 1.281 1.906 1.906l.031.031c.3.292.603.586.906.875.016.016.016.047.031.063.135.135.271.272.406.406.436.443.869.877 1.313 1.313.114.115.23.23.344.344.292.284.58.563.875.844.046.047.079.109.125.156.011.01.021.021.031.031.626.641 1.265 1.281 1.906 1.906l.031.031c.3.292.603.586.906.875.016.016.016.047.031.063.135.135.271.272.406.406.436.443.869.877 1.313 1.313.114.115.23.23.344.344.292.284.58.563.875.844.046.047.079.109.125.156.011.01.021.021.031.031.626.641 1.265 1.281 1.906 1.906l.031.031c.3.292.603.586.906.875.016.016.016.047.031.063l.063.063c.297.29.606.589.906.875.202.203.39.424.594.625.383.388.767.774 1.156 1.156.114.115.23.23.344.344.292.284.58.563.875.844.021.021.042.041.063.063.026.026.036.068.063.094.292.284.58.563.875.844.016.016.016.047.031.063l.063.063c.302.295.601.584.906.875.016.016.016.047.031.063l.063.063c.297.29.606.589.906.875.016.016.016.047.031.063.135.135.271.272.406.406.436.443.869.877 1.313 1.313.114.115.23.23.344.344.292.284.58.563.875.844.046.047.079.109.125.156.011.01.021.021.031.031.626.641 1.265 1.281 1.906 1.906l.031.031c.3.292.603.586.906.875.016.016.016.047.031.063.135.135.271.272.406.406.436.443.869.877 1.313 1.313.114.115.23.23.344.344.292.284.58.563.875.844.046.047.079.109.125.156.011.01.021.021.031.031.626.641 1.265 1.281 1.906 1.906l.031.031c.3.292.603.586.906.875.016.016.016.047.031.063l.063.063c.297.29.606.589.906.875.256.257.491.527.75.781.114.115.23.23.344.344.292.284.58.563.875.844.046.047.079.109.125.156.011.01.021.021.031.031.626.641 1.265 1.281 1.906 1.906l.031.031c.3.292.603.586.906.875.016.016.016.047.031.063l.063.063c.297.29.606.589.906.875.202.203.39.424.594.625.383.388.767.774 1.156 1.156.114.115.23.23.344.344.292.284.58.563.875.844.046.047.079.109.125.156.011.01.021.021.031.031.626.641 1.265 1.281 1.906 1.906l.031.031c.3.292.603.586.906.875.016.016.016.047.031.063.135.135.271.272.406.406.436.443.869.877 1.313 1.313.114.115.23.23.344.344.292.284.58.563.875.844.046.047.079.109.125.156.011.01.021.021.031.031.626.641 1.265 1.281 1.906 1.906l.031.031c.3.292.603.586.906.875.016.016.016.047.031.063.135.135.271.272.406.406.436.443.869.877 1.313 1.313.114.115.23.23.344.344.292.284.58.563.875.844.046.047.079.109.125.156.011.01.021.021.031.031.626.641 1.265 1.281 1.906 1.906l.031.031c.3.292.603.586.906.875.016.016.016.047.031.063l.063.063c.297.29.606.589.906.875.202.203.39.424.594.625.383.388.767.774 1.156 1.156.114.115.23.23.344.344.292.284.58.563.875.844.021.021.042.041.063.063.026.026.036.068.063.094.292.284.58.563.875.844.016.016.016.047.031.063l.063.063c.302.295.601.584.906.875.016.016.016.047.031.063l.063.063c.297.29.606.589.906.875.016.016.016.047.031.063.135.135.271.272.406.406.436.443.869.877 1.313 1.313.114.115.23.23.344.344.292.284.58.563.875.844.046.047.079.109.125.156.011.01.021.021.031.031.626.641 1.265 1.281 1.906 1.906l.031.031c.3.292.603.586.906.875.016.016.016.047.031.063.135.135.271.272.406.406.436.443.869.877 1.313 1.313.114.115.23.23.344.344.292.284.58.563.875.844.046.047.079.109.125.156.011.01.021.021.031.031.626.641 1.265 1.281 1.906 1.906l.031.031c.3.292.603.586.906.875.016.016.016.047.031.063l.063.063c.297.29.606.589.906.875.256.257.491.527.75.781.114.115.23.23.344.344.292.284.58.563.875.844.046.047.079.109.125.156.011.01.021.021.031.031.626.641 1.265 1.281 1.906 1.906l.031.031c.3.292.603.586.906.875.016.016.016.047.031.063l.063.063c.297.29.606.589.906.875.202.203.39.424.594.625.383.388.767.774 1.156 1.156.114.115.23.23.344.344.292.284.58.563.875.844.046.047.079.109.125.156.011.01.021.021.031.031.626.641 1.265 1.281 1.906 1.906l.031.031c.3.292.603.586.906.875.016.016.016.047.031.063.135.135.271.272.406.406.436.443.869.877 1.313 1.313.114.115.23.23.344.344.292.284.58.563.875.844.046.047.079.109.125.156.011.01.021.021.031.031.626.641 1.265 1.281 1.906 1.906l.031.031c.3.292.603.586.906.875.016.016.016.047.031.063.135.135.271.272.406.406.436.443.869.877 1.313 1.313.114.115.23.23.344.344.292.284.58.563.875.844.046.047.079.109.125.156.011.01.021.021.031.031.626.641 1.265 1.281 1.906 1.906l.031.031c.3.292.603.586.906.875.016.016.016.047.031.063l.063.063c.297.29.606.589.906.875.256.257.491.527.75.781.114.115.23.23.344.344.292.284.58.563.875.844.02.021.042.042.063.063.026.026.036.067.063.094.064.062.124.126.188.188 74.78-22.12 133.63-81.32 155.25-156.31-.08-.086-.168-.165-.25-.25-.1-.096-.212-.186-.313-.281-.403-.414-.81-.811-1.219-1.219-.181-.19-.38-.374-.563-.563-.111-.109-.201-.235-.313-.344-.036-.036-.089-.057-.125-.094-.182-.191-.379-.373-.563-.563-.011-.01-.021-.021-.031-.031-.053-.051-.103-.105-.156-.156-.048-.047-.077-.11-.125-.156-.646-.662-1.307-1.323-1.969-1.969-.046-.048-.11-.077-.156-.125-.163-.171-.335-.33-.5-.5-.085-.081-.165-.169-.25-.25-.697-.717-1.378-1.427-2.094-2.125-.037-.037-.088-.057-.125-.094-.182-.191-.379-.373-.563-.563-.011-.01-.021-.021-.031-.031-.053-.051-.103-.105-.156-.156-.048-.047-.077-.11-.125-.156-.646-.662-1.307-1.323-1.969-1.969-.046-.048-.11-.077-.156-.125-.092-.096-.189-.185-.281-.281-.09-.087-.16-.195-.25-.281-.104-.102-.208-.211-.313-.313-.661-.679-1.321-1.339-2-2-.037-.037-.088-.057-.125-.094-.182-.191-.379-.373-.563-.563-.011-.01-.021-.021-.031-.031-.053-.051-.103-.105-.156-.156-.048-.047-.077-.11-.125-.156-.646-.662-1.307-1.323-1.969-1.969-.046-.048-.11-.077-.156-.125-.092-.096-.189-.185-.281-.281-.09-.087-.16-.195-.25-.281-.104-.102-.208-.211-.313-.313-.495-.507-.996-1-1.5-1.5-.201-.204-.422-.391-.625-.594-.181-.19-.38-.374-.563-.563-.111-.109-.201-.235-.313-.344-.036-.036-.089-.057-.125-.094-.182-.191-.379-.373-.563-.563-.011-.01-.021-.021-.031-.031-.053-.051-.103-.105-.156-.156-.048-.047-.077-.11-.125-.156-.646-.662-1.307-1.323-1.969-1.969-.046-.048-.11-.077-.156-.125-.163-.171-.335-.33-.5-.5-.085-.081-.165-.169-.25-.25-.697-.717-1.378-1.427-2.094-2.125-.037-.037-.088-.057-.125-.094-.182-.191-.379-.373-.563-.563-.011-.01-.021-.021-.031-.031-.053-.051-.103-.105-.156-.156-.048-.047-.077-.11-.125-.156-.646-.662-1.307-1.323-1.969-1.969-.046-.048-.11-.077-.156-.125-.163-.171-.335-.33-.5-.5-.085-.081-.165-.169-.25-.25-.697-.717-1.378-1.427-2.094-2.125-.037-.037-.088-.057-.125-.094-.182-.191-.379-.373-.563-.563-.011-.01-.021-.021-.031-.031-.053-.051-.103-.105-.156-.156-.048-.047-.077-.11-.125-.156-.646-.662-1.307-1.323-1.969-1.969-.046-.048-.11-.077-.156-.125-.092-.096-.189-.185-.281-.281-.09-.087-.16-.195-.25-.281-.104-.102-.208-.211-.313-.313-.495-.507-.996-1-1.5-1.5-.201-.204-.422-.391-.625-.594-.181-.19-.38-.374-.563-.563-.111-.109-.201-.235-.313-.344-.036-.036-.089-.057-.125-.094-.184-.193-.377-.371-.563-.563-.011-.01-.021-.021-.031-.031-.053-.051-.103-.105-.156-.156-.048-.047-.077-.11-.125-.156-.036-.037-.089-.057-.125-.094-.056-.059-.1-.129-.156-.188-.128-.124-.247-.252-.375-.375-.106-.104-.207-.209-.313-.313-.046-.048-.11-.077-.156-.125-.056-.059-.1-.129-.156-.188-.128-.124-.247-.252-.375-.375-.104-.102-.208-.211-.313-.313-.046-.048-.11-.077-.156-.125-.148-.156-.288-.314-.438-.469-.1-.096-.212-.186-.313-.281-.403-.414-.81-.811-1.219-1.219-.181-.19-.38-.374-.563-.563-.111-.109-.201-.235-.313-.344-.036-.036-.089-.057-.125-.094-.182-.191-.379-.373-.563-.563-.011-.01-.021-.021-.031-.031-.053-.051-.103-.105-.156-.156-.048-.047-.077-.11-.125-.156-.646-.662-1.307-1.323-1.969-1.969-.046-.048-.11-.077-.156-.125-.163-.171-.335-.33-.5-.5-.085-.081-.165-.169-.25-.25-.697-.717-1.378-1.427-2.094-2.125-.037-.037-.088-.057-.125-.094-.182-.191-.379-.373-.563-.563-.011-.01-.021-.021-.031-.031-.053-.051-.103-.105-.156-.156-.048-.047-.077-.11-.125-.156-.646-.662-1.307-1.323-1.969-1.969-.046-.048-.11-.077-.156-.125-.092-.096-.189-.185-.281-.281-.09-.087-.16-.195-.25-.281-.104-.102-.208-.211-.313-.313-.661-.679-1.321-1.339-2-2-.037-.037-.088-.057-.125-.094-.182-.191-.379-.373-.563-.563-.011-.01-.021-.021-.031-.031-.053-.051-.103-.105-.156-.156-.048-.047-.077-.11-.125-.156-.646-.662-1.307-1.323-1.969-1.969-.046-.048-.11-.077-.156-.125-.092-.096-.189-.185-.281-.281-.09-.087-.16-.195-.25-.281-.104-.102-.208-.211-.313-.313-.495-.507-.996-1-1.5-1.5-.201-.204-.422-.391-.625-.594-.181-.19-.38-.374-.563-.563-.111-.109-.201-.235-.313-.344-.036-.036-.089-.057-.125-.094-.182-.191-.379-.373-.563-.563-.011-.01-.021-.021-.031-.031-.053-.051-.103-.105-.156-.156-.048-.047-.077-.11-.125-.156-.646-.662-1.307-1.323-1.969-1.969-.046-.048-.11-.077-.156-.125-.163-.171-.335-.33-.5-.5-.085-.081-.165-.169-.25-.25-.403-.414-.81-.811-1.219-1.219-.181-.19-.38-.374-.563-.563-.111-.109-.201-.235-.313-.344-.036-.036-.089-.057-.125-.094-.182-.191-.379-.373-.563-.563-.011-.01-.021-.021-.031-.031-.053-.051-.103-.105-.156-.156-.048-.047-.077-.11-.125-.156-.646-.662-1.307-1.323-1.969-1.969-.046-.048-.11-.077-.156-.125-.163-.171-.335-.33-.5-.5-.085-.081-.165-.169-.25-.25-.697-.717-1.378-1.427-2.094-2.125-.037-.037-.088-.057-.125-.094-.182-.191-.379-.373-.563-.563-.011-.01-.021-.021-.031-.031-.053-.051-.103-.105-.156-.156-.048-.047-.077-.11-.125-.156-.646-.662-1.307-1.323-1.969-1.969-.046-.048-.11-.077-.156-.125-.092-.096-.189-.185-.281-.281-.09-.087-.16-.195-.25-.281-.104-.102-.208-.211-.313-.313-.661-.679-1.321-1.339-2-2-.037-.037-.088-.057-.125-.094-.181-.19-.38-.374-.563-.563-.011-.01-.021-.021-.031-.031-.053-.051-.103-.105-.156-.156-.048-.047-.077-.11-.125-.156-.036-.036-.089-.057-.125-.094-.184-.193-.377-.371-.563-.563-.011-.01-.021-.021-.031-.031-.053-.051-.103-.105-.156-.156-.048-.047-.077-.11-.125-.156-.036-.037-.089-.057-.125-.094-.056-.059-.1-.129-.156-.188-.128-.124-.247-.252-.375-.375-.106-.104-.207-.209-.313-.313-.046-.048-.11-.077-.156-.125-.056-.059-.1-.129-.156-.188-.128-.124-.247-.252-.375-.375-.104-.102-.208-.211-.313-.313-.495-.507-.996-1-1.5-1.5-.201-.204-.422-.391-.625-.594-.181-.19-.38-.374-.563-.563-.111-.109-.201-.235-.313-.344-.036-.036-.089-.057-.125-.094-.182-.191-.379-.373-.563-.563-.011-.01-.021-.021-.031-.031-.053-.051-.103-.105-.156-.156-.048-.047-.077-.11-.125-.156-.646-.662-1.307-1.323-1.969-1.969-.046-.048-.11-.077-.156-.125-.163-.171-.335-.33-.5-.5-.085-.081-.165-.169-.25-.25-.697-.717-1.378-1.427-2.094-2.125-.037-.037-.088-.057-.125-.094-.182-.191-.379-.373-.563-.563-.011-.01-.021-.021-.031-.031-.053-.051-.103-.105-.156-.156-.048-.047-.077-.11-.125-.156-.646-.662-1.307-1.323-1.969-1.969-.046-.048-.11-.077-.156-.125-.092-.096-.189-.185-.281-.281-.09-.087-.16-.195-.25-.281-.104-.102-.208-.211-.313-.313-.661-.679-1.321-1.339-2-2-.037-.037-.088-.057-.125-.094-.182-.191-.379-.373-.563-.563-.011-.01-.021-.021-.031-.031-.053-.051-.103-.105-.156-.156-.048-.047-.077-.11-.125-.156-.646-.662-1.307-1.323-1.969-1.969-.046-.048-.11-.077-.156-.125-.092-.096-.189-.185-.281-.281-.09-.087-.16-.195-.25-.281-.104-.102-.208-.211-.313-.313-.495-.507-.996-1-1.5-1.5-.201-.204-.422-.391-.625-.594-.181-.19-.38-.374-.563-.563-.111-.109-.201-.235-.313-.344-.036-.036-.089-.057-.125-.094-.182-.191-.379-.373-.563-.563-.011-.01-.021-.021-.031-.031-.053-.051-.103-.105-.156-.156-.048-.047-.077-.11-.125-.156-.646-.662-1.307-1.323-1.969-1.969-.046-.048-.11-.077-.156-.125-.163-.171-.335-.33-.5-.5-.085-.081-.165-.169-.25-.25-.403-.414-.81-.811-1.219-1.219-.181-.19-.38-.374-.563-.563-.111-.109-.201-.235-.313-.344-.036-.036-.089-.057-.125-.094-.182-.191-.379-.373-.563-.563-.011-.01-.021-.021-.031-.031-.053-.051-.103-.105-.156-.156-.048-.047-.077-.11-.125-.156-.646-.662-1.307-1.323-1.969-1.969-.046-.048-.11-.077-.156-.125-.163-.171-.335-.33-.5-.5-.085-.081-.165-.169-.25-.25-.697-.717-1.378-1.427-2.094-2.125-.037-.037-.088-.057-.125-.094-.182-.191-.379-.373-.563-.563-.011-.01-.021-.021-.031-.031-.053-.051-.103-.105-.156-.156-.048-.047-.077-.11-.125-.156-.646-.662-1.307-1.323-1.969-1.969-.046-.048-.11-.077-.156-.125-.092-.096-.189-.185-.281-.281-.09-.087-.16-.195-.25-.281-.104-.102-.208-.211-.313-.313-.661-.679-1.321-1.339-2-2-.037-.037-.088-.057-.125-.094-.181-.19-.38-.374-.563-.563-.011-.01-.021-.021-.031-.031-.053-.051-.103-.105-.156-.156-.048-.047-.077-.11-.125-.156-.036-.036-.089-.057-.125-.094-.184-.193-.377-.371-.563-.563-.011-.01-.021-.021-.031-.031-.053-.051-.103-.105-.156-.156-.048-.047-.077-.11-.125-.156-.036-.037-.089-.057-.125-.094-.056-.059-.1-.129-.156-.188-.128-.124-.247-.252-.375-.375-.106-.104-.207-.209-.313-.313-.046-.048-.11-.077-.156-.125-.056-.059-.1-.129-.156-.188-.128-.124-.247-.252-.375-.375-.104-.102-.208-.211-.313-.313-.495-.507-.996-1-1.5-1.5-.201-.204-.422-.391-.625-.594-.181-.19-.38-.374-.563-.563-.111-.109-.201-.235-.313-.344-.036-.036-.089-.057-.125-.094-.182-.191-.379-.373-.563-.563-.011-.01-.021-.021-.031-.031-.053-.051-.103-.105-.156-.156-.048-.047-.077-.11-.125-.156-.646-.662-1.307-1.323-1.969-1.969-.046-.048-.11-.077-.156-.125-.163-.171-.335-.33-.5-.5-.085-.081-.165-.169-.25-.25-.697-.717-1.378-1.427-2.094-2.125-.037-.037-.088-.057-.125-.094-.182-.191-.379-.373-.563-.563-.011-.01-.021-.021-.031-.031-.053-.051-.103-.105-.156-.156-.048-.047-.077-.11-.125-.156-20.01-20.514-47.956-33.25-78.875-33.25" fill-opacity=".235"/>
   <path d="m256 145.84c-60.839 0-110.16 49.32-110.16 110.16 0 60.839 49.32 110.16 110.16 110.16 60.839 0 110.16-49.32 110.16-110.16 0-60.839-49.32-110.16-110.16-110.16m-40.28 55.09l95.84 54.25-95.5 52.875-.344-107.12" fill="#ffffff"/>
  </g>
  <path d="m256 541.36c-140.83 0-255 114.17-255 255s114.17 255 255 255 255-114.17 255-255-114.17-255-255-255m8.827 44.931c120.9 0 218.9 98 218.9 218.9s-98 218.9-218.9 218.9-218.93-98-218.93-218.9 98.03-218.9 218.93-218.9" fill-opacity=".067"/>
  <g fill-opacity=".129">
   <path d="m256 544.79c-138.94 0-251.57 112.63-251.57 251.57s112.63 251.54 251.57 251.54 251.57-112.6 251.57-251.54-112.63-251.57-251.57-251.57m5.885 38.556c120.9 0 218.9 98 218.9 218.9s-98 218.9-218.9 218.9-218.93-98-218.93-218.9 98.03-218.9 218.93-218.9"/>
   <path d="m256 548.72c-136.77 0-247.64 110.87-247.64 247.64s110.87 247.64 247.64 247.64 247.64-110.87 247.64-247.64-110.87-247.64-247.64-247.64m2.942 31.691c120.9 0 218.9 98 218.9 218.9s-98 218.9-218.9 218.9-218.93-98-218.93-218.9 98.03-218.9 218.93-218.9"/>
  </g>
  <path d="m253.04 548.22c-135.42 0-245.19 109.78-245.19 245.19 0 135.42 109.78 245.19 245.19 245.19 135.42 0 245.19-109.78 245.19-245.19 0-135.42-109.78-245.19-245.19-245.19zm0 26.297c120.9 0 218.9 98 218.9 218.9s-98 218.9-218.9 218.9-218.93-98-218.93-218.9 98.03-218.9 218.93-218.9z" fill="#ffffff" stroke="#000000" stroke-opacity=".31" stroke-width="4.904"/>
 </g>
</svg>
