<svg viewBox="0 0 512 512" xmlns="http://www.w3.org/2000/svg" xmlns:xlink="http://www.w3.org/1999/xlink">
 <g fill-rule="evenodd">
  <path d="m471.95 253.05c0 120.9-98.01 218.91-218.91 218.91s-218.91-98.01-218.91-218.91 98.01-218.91 218.91-218.91 218.91 98.01 218.91 218.91" fill="#b0b0b0"/>
  <path d="m256 1c-140.83 0-255 114.17-255 255s114.17 255 255 255 255-114.17 255-255-114.17-255-255-255m8.827 44.931c120.9 0 218.9 98 218.9 218.9s-98 218.9-218.9 218.9-218.93-98-218.93-218.9 98.03-218.9 218.93-218.9" fill-opacity=".067"/>
  <g fill-opacity=".129">
   <path d="m256 4.43c-138.94 0-251.57 112.63-251.57 251.57s112.63 251.57 251.57 251.57 251.57-112.63 251.57-251.57-112.63-251.57-251.57-251.57m5.885 38.556c120.9 0 218.9 98 218.9 218.9s-98 218.9-218.9 218.9-218.93-98-218.93-218.9 98.03-218.9 218.93-218.9"/>
   <path d="m256 8.36c-136.77 0-247.64 110.87-247.64 247.64s110.87 247.64 247.64 247.64 247.64-110.87 247.64-247.64-110.87-247.64-247.64-247.64m2.942 31.691c120.9 0 218.9 98 218.9 218.9s-98 218.9-218.9 218.9-218.93-98-218.93-218.9 98.03-218.9 218.93-218.9"/>
  </g>
  <path d="m253.04 7.86c-135.42 0-245.19 109.78-245.19 245.19 0 135.42 109.78 245.19 245.19 245.19 135.42 0 245.19-109.78 245.19-245.19 0-135.42-109.78-245.19-245.19-245.19m0 26.297c120.9 0 218.9 98 218.9 218.9s-98 218.9-218.9 218.9-218.93-98-218.93-218.9 98.03-218.9 218.93-218.9z" fill="#ffffff" stroke="#000000" stroke-opacity=".31" stroke-width="4.904"/>
 </g>
 <use height="1" opacity=".1" transform="matrix(9.401 0 0 9.401 -622.732772 -50.095306)" width="1" xlink:href="#a"/>
 <path d="m339.23 139.36c-1.165-.01-2.331.006-3.494.049-25.614.429-53.16 16.203-58.18 42.805-.989 4.479-1.093 9.08-1.176 13.652l107.48 107.48c-.194 2.669-.432 5.335-.74 7.996-.768 5.141-2.476 10.06-4.92 14.557l-92.34-92.34c-8.38-8.38-20.918-12.755-32.879-12.197-17.11-.843-34.808 7.281-43.484 22.19l-10.01-10.01c-8.48-8.48-20.812-13.04-32.959-12.182-12.21-.088-24.22 5.02-32.977 13.475l-9.432-9.432c-.684-.684-1.652-1.083-3-1.104-11.501-3-5 11.994-6.68 18.818v113.67l113.76 113.76c8.153.921 16.437 1.41 24.836 1.41 120.9 0 218.91-98.01 218.91-218.91 0-2.773-.068-5.531-.17-8.279l-89-89c-5.452-5.452-12.13-9.7-19.611-12.17-7.631-2.808-15.781-4.177-23.936-4.248" opacity=".25"/>
 <path id="a" d="m335.73 139.4c-25.614.429-53.16 16.203-58.18 42.805-.989 4.479-1.093 9.08-1.176 13.652 9.111 1.95 11.803-1.634 11.216-10.334 4.567-27.22 35.802-39.509 60.66-35.33 19.338 2.16 37.895 17.3 38.856 37.89-2.318 8.06 6.269 10.127 10.712 6.427 1.346-22.538-13.403-43.898-34.655-50.912-8.721-3.209-18.12-4.54-27.43-4.201m2.31 42.763c-9.295.037-10.815 14.631-1.596 16.383 8.094 2.83 15.257-8.524 8.443-14.156-1.865-1.64-4.374-2.454-6.847-2.226m-171.51 39.19c-16.844-.121-33.31 9.641-41.38 24.448-1.96-6.553 4.356-21.383-4.03-21.507-11.501-3-5 11.995-6.679 18.819v113.67c12.04 3.541 11.574-5.425 10.712-14.786.723-24.05-1.456-48.42 1.092-72.29 3.02-21.698 22.66-41.27 45.619-37.806 14.11-.123 26.495 11.532 27.436 25.641 3.02 25.896.525 52.16 1.338 78.2 1.933 6.44-4.314 21.06 4.03 21.09 11.501 3 5-11.995 6.679-18.819.618-24.575-1.204-49.33.84-73.806 3.01-19.551 22.15-34.46 41.923-32.513 13.814-.763 28.742 7.995 30.875 22.263 4.761 24.45-.865 50.08 3.445 74.6 5.849 20.909 28.25 32.08 48.896 31 18.551.7 37.765-7.784 47.01-24.364 1.576 6.531-3.296 19.51 2.688 21.633 11.549 3.497 7.364-8.739 8.02-16.13v-116.4c-12.04-3.541-11.574 5.425-10.712 14.786-.755 24.05 1.552 48.34-1.218 72.25-3.194 21.389-22.516 38.963-44.485 38.14-17.26 1.222-37.39-8.2-40.37-26.842-2.769-24.49 2.44-49.818-3.613-73.89-4.677-18.06-23.816-28.22-41.671-27.388-18.2-.897-37.07 8.351-45.03 25.12-6.343-16.519-24.07-26.344-41.42-25.12" fill="#ffffff"/>
</svg>
