<?xml version="1.0" encoding="UTF-8" standalone="no"?>
<svg
   xmlns:dc="http://purl.org/dc/elements/1.1/"
   xmlns:cc="http://creativecommons.org/ns#"
   xmlns:rdf="http://www.w3.org/1999/02/22-rdf-syntax-ns#"
   xmlns:svg="http://www.w3.org/2000/svg"
   xmlns="http://www.w3.org/2000/svg"
   xmlns:sodipodi="http://sodipodi.sourceforge.net/DTD/sodipodi-0.dtd"
   xmlns:inkscape="http://www.inkscape.org/namespaces/inkscape"
   height="512"
   viewBox="0 0 512 512"
   width="512"
   id="svg2"
   version="1.1"
   inkscape:version="0.91 r13725"
   sodipodi:docname="nitrogen.svg">
  <metadata
     id="metadata25">
    <rdf:RDF>
      <cc:Work
         rdf:about="">
        <dc:format>image/svg+xml</dc:format>
        <dc:type
           rdf:resource="http://purl.org/dc/dcmitype/StillImage" />
        <dc:title></dc:title>
      </cc:Work>
    </rdf:RDF>
  </metadata>
  <defs
     id="defs23" />
  <sodipodi:namedview
     pagecolor="#ffffff"
     bordercolor="#666666"
     borderopacity="1"
     objecttolerance="10"
     gridtolerance="10"
     guidetolerance="10"
     inkscape:pageopacity="0"
     inkscape:pageshadow="2"
     inkscape:window-width="640"
     inkscape:window-height="480"
     id="namedview21"
     showgrid="false"
     inkscape:zoom="0.40686275"
     inkscape:cx="61.517595"
     inkscape:cy="309.15705"
     inkscape:current-layer="svg2" />
  <path
     d="m471.95 253.05c0 120.9-98.01 218.9-218.9 218.9-120.9 0-218.9-98.01-218.9-218.9 0-120.9 98.01-218.9 218.9-218.9 120.9 0 218.9 98.01 218.9 218.9"
     fill="#1793d1"
     fill-rule="evenodd"
     id="path5"
     style="fill:#b6b6b6;fill-opacity:1" />
  <path
     d="m256 1c-140.83 0-255 114.17-255 255 0 140.83 114.17 255 255 255 140.83 0 255-114.17 255-255 0-140.83-114.17-255-255-255m8.827 44.931c120.9 0 218.9 98 218.9 218.9 0 120.9-98 218.9-218.9 218.9-120.9 0-218.93-98-218.93-218.9 0-120.9 98.03-218.9 218.93-218.9"
     fill-opacity=".067"
     fill-rule="evenodd"
     id="path7" />
  <g
     fill-opacity=".129"
     fill-rule="evenodd"
     id="g9">
    <path
       d="m256 4.433c-138.94 0-251.57 112.63-251.57 251.57 0 138.94 112.63 251.57 251.57 251.57 138.94 0 251.57-112.63 251.57-251.57 0-138.94-112.63-251.57-251.57-251.57m5.885 38.556c120.9 0 218.9 98 218.9 218.9 0 120.9-98 218.9-218.9 218.9-120.9 0-218.93-98-218.93-218.9 0-120.9 98.03-218.9 218.93-218.9"
       id="path11" />
    <path
       d="m256 8.356c-136.77 0-247.64 110.87-247.64 247.64 0 136.77 110.87 247.64 247.64 247.64 136.77 0 247.64-110.87 247.64-247.64 0-136.77-110.87-247.64-247.64-247.64m2.942 31.691c120.9 0 218.9 98 218.9 218.9 0 120.9-98 218.9-218.9 218.9-120.9 0-218.93-98-218.93-218.9 0-120.9 98.03-218.9 218.93-218.9"
       id="path13" />
  </g>
  <path
     d="m 351.4632,144.12351 -24.32762,17.11463 119.90064,188.73922 c -6.38932,26.48776 -5.30686,19.22696 -19.85303,37.55787 L 396.66846,339.58862 277.72995,219.86243 c 8.77436,14.61906 14.61207,16.63196 -40.21286,24.9106 l 34.38761,32.36731 -25.05244,18.34512 -62.68593,-63.91278 -17.98599,18.13625 -32.78699,27.13088 -48.020599,74.28974 87.536569,117.99653 c 88.11438,19.72541 276.83683,15.29773 301.24404,-216.54827 l 8.98362,-31.96307 -65.49049,-105.26126 -62.79814,16.29414"
     id="path15"
     inkscape:connector-curvature="0"
     style="opacity:0.25"
     sodipodi:nodetypes="cccccccccccccccccc" />
  <path
     d="m253.04 7.859c-135.42 0-245.19 109.78-245.19 245.19 0 135.42 109.78 245.19 245.19 245.19 135.42 0 245.19-109.78 245.19-245.19 0-135.42-109.78-245.19-245.19-245.19zm0 26.297c120.9 0 218.9 98 218.9 218.9 0 120.9-98 218.9-218.9 218.9-120.9 0-218.93-98-218.93-218.9 0-120.9 98.03-218.9 218.93-218.9z"
     fill="#ffffff"
     fill-rule="evenodd"
     stroke="#000000"
     stroke-opacity=".31"
     stroke-width="4.904"
     id="path19" />
  <path
     inkscape:connector-curvature="0"
     id="path3879"
     d="m 388.16511,96.099126 -16.46875,10.625004 -18.53125,-6.4375 -5.78125,18.75 -18.3125,6.96875 7.59375,18.0625 -9.53125,17.15625 17.4375,8.9375 3.6875,19.25 19.125,-4.34375 15.21875,12.375 11.84375,-15.625 19.59375,-0.3125 -0.96875,-19.5625 14.84375,-12.84375 -13.34375,-14.375 3.125,-19.34375 -19.46875,-2.46875 -10.0625,-16.812504 z m -98.6875,78.125004 c -1.8071,-0.014 -3.6054,0.7802 -4.8125,2.125 l -57.46875,64.34375 c -3.3534,3.1275 -2.5015,3.3257 0.3125,6.5 l 19.15625,21.625 c 1.7859,1.8809 1.6269,5.24665 -0.3125,6.96875 -1.9395,1.7222 -5.2811,1.46465 -6.9375,-0.53125 l -26.25,-29.625 -26.125,-29.28125 c -1.272,-1.4224 -3.21939,-2.2265 -5.12499,-2.125 -1.9055,0.1016 -3.73015,1.10665 -4.84375,2.65625 l -91.406252,127.125 c -1.376101,1.8992 -1.598151,4.56765 -0.531251,6.65625 1.066799,2.0887 3.373451,3.5017 5.718751,3.5 l 304.281242,0 c 2.2738,0 4.49645,-1.3209 5.59375,-3.3125 1.0973,-1.9916 1.0246,-4.5761 -0.1875,-6.5 L 294.82136,177.19288 c -1.139,-1.7933 -3.21945,-2.94905 -5.34375,-2.96875 z"
     style="color:#000000;display:inline;overflow:visible;visibility:visible;fill:#ffffff;fill-opacity:1;fill-rule:evenodd;stroke:none;stroke-width:9.69999981;marker:none;enable-background:accumulate" />
</svg>
