<svg height="512" viewBox="0 0 512 512" width="512" xmlns="http://www.w3.org/2000/svg">
 <g fill-rule="evenodd">
  <path d="m471.95 253.05c0 120.9-98.01 218.9-218.9 218.9-120.9 0-218.9-98.01-218.9-218.9 0-120.9 98.01-218.9 218.9-218.9 120.9 0 218.9 98.01 218.9 218.9" fill="#8f8f8f"/>
  <path d="m306.59 94.84c-.42-.002-1.196.632-2.281 1.875l-140.81 180.16c-1.861 2.131-1.853 4.418-.094 5.438.219.403.551.74 1 1 .219.393.56.745 1 1 .219.393.56.745 1 1 .225.403.544.774 1 1.031.219.383.537.688.969.938.219.409.547.737 1 1 .219.404.55.739 1 1 .219.403.551.74 1 1 .219.393.56.745 1 1 .219.393.56.745 1 1 .219.393.529.714.969.969.219.409.547.737 1 1 .219.404.55.739 1 1 .219.403.551.74 1 1 .219.393.56.745 1 1 .219.393.56.745 1 1 .225.403.544.774 1 1.031.219.383.537.688.969.938.219.404.55.739 1 1 .219.403.551.74 1 1 .219.393.56.745 1 1 .219.393.56.745 1 1 .225.403.544.774 1 1.031.219.383.537.688.969.938.219.404.55.739 1 1 .219.404.551.74 1 1 .219.393.56.745 1 1 .219.393.56.745 1 1 .219.393.56.745 1 1 .219.393.529.714.969.969.219.409.547.737 1 1 .219.404.55.739 1 1 .219.403.551.74 1 1 .219.393.56.745 1 1 .219.393.56.745 1 1 .225.403.544.774 1 1.031.219.383.537.688.969.938.219.404.55.739 1 1 .219.403.551.74 1 1 .219.393.56.745 1 1 .219.393.56.745 1 1 .225.403.544.774 1 1.031.219.383.537.688.969.938.219.404.55.739 1 1 .219.403.551.74 1 1 .219.393.56.745 1 1 .219.393.56.745 1 1 .225.403.544.774 1 1.031.219.383.537.688.969.938.219.409.547.737 1 1 .219.404.55.739 1 1 .219.403.551.74 1 1 .219.393.56.745 1 1 .219.393.56.745 1 1 .219.393.529.714.969.969.219.409.547.737 1 1 .219.404.55.739 1 1 .219.403.551.74 1 1 .219.393.56.745 1 1 .219.393.56.745 1 1 .086.155.192.302.313.438-8.839 34.95-18.12 71.52-18.16 71.66-.798 2.489-.514 3.426.563 2.75-.136 1.137.237 1.479 1 1-.136 1.137.237 1.479 1 1-.136 1.141.231 1.487 1 1-.132 1.126.243 1.504 1 1.031-.122 1.094.233 1.447.969 1-.123 1.106.245 1.411 1 .938-.136 1.137.237 1.479 1 1-.136 1.137.237 1.479 1 1-.136 1.141.231 1.487 1 1-.133 1.132.233 1.485 1 1-.131 1.114.228 1.482.969 1.031-.123 1.103.249 1.438 1 .969-.126 1.113.243 1.444 1 .969-.136 1.137.237 1.479 1 1-.136 1.141.231 1.487 1 1-.133 1.132.233 1.485 1 1-.132 1.126.243 1.504 1 1.031-.124 1.106.217 1.438.969.969-.126 1.113.243 1.444 1 .969-.136 1.137.237 1.479 1 1-.136 1.137.237 1.479 1 1-.133 1.132.233 1.485 1 1-.132 1.126.243 1.504 1 1.031-.123 1.098.228 1.423.969.969-.133 1.129.239 1.447 1 .969-.136 1.137.237 1.479 1 1-.136 1.137.237 1.479 1 1-.136 1.141.231 1.487 1 1-.132 1.126.243 1.504 1 1.031-.122 1.094.233 1.447.969 1-.123 1.103.249 1.438 1 .969-.126 1.113.243 1.444 1 .969-.136 1.137.237 1.479 1 1-.136 1.141.231 1.487 1 1-.133 1.132.233 1.485 1 1-.131 1.114.228 1.482.969 1.031-.123 1.103.249 1.438 1 .969-.126 1.113.243 1.444 1 .969-.136 1.137.237 1.479 1 1-.136 1.141.231 1.487 1 1-.133 1.132.233 1.485 1 1-.132 1.126.243 1.504 1 1.031-.124 1.106.217 1.438.969.969-.133 1.129.239 1.447 1 .969-.136 1.137.237 1.479 1 1-.136 1.137.237 1.479 1 1-.136 1.141.231 1.487 1 1-.132 1.126.243 1.504 1 1.031-.122 1.094.233 1.447.969 1-.123 1.106.245 1.411 1 .938-.136 1.137.237 1.479 1 1-.136 1.137.237 1.479 1 1-.136 1.141.231 1.487 1 1-.132 1.126.243 1.504 1 1.031-.077.684.039 1.066.313 1.156.021-.001.042.001.063 0 .073-.002.146.002.219 0 .114-.027.231-.069.375-.156-.007.063.004.099 0 .156 115.08-3.888 207.62-96.6 211.25-211.75-.19-.033-.478.07-.844.344.322-1.325-.02-1.704-.969-1 .322-1.329-.041-1.718-1-1 .324-1.332-.04-1.719-1-1 .324-1.332-.04-1.718-1-1 .326-1.339-.029-1.671-1-.938.352-1.388-.014-1.744-1-1 .342-1.363-.009-1.743-.969-1.031.322-1.329-.041-1.718-1-1 .324-1.332-.04-1.719-1-1 .324-1.331-.041-1.717-1-1 .324-1.332-.04-1.718-1-1 .326-1.339-.029-1.671-1-.938.342-1.363-.009-1.743-.969-1.031.321-1.322-.052-1.703-1-1 .322-1.329-.041-1.718-1-1 .324-1.331-.041-1.717-1-1 .324-1.332-.04-1.718-1-1 .326-1.339-.029-1.671-1-.938.348-1.374-.006-1.745-.969-1.031.321-1.322-.052-1.703-1-1 .322-1.329-.041-1.718-1-1 .324-1.332-.04-1.719-1-1 .324-1.332-.04-1.718-1-1 .326-1.339-.029-1.671-1-.938.352-1.388-.014-1.744-1-1 .342-1.363-.009-1.743-.969-1.031.322-1.329-.041-1.718-1-1 .324-1.332-.04-1.719-1-1 .324-1.332-.04-1.718-1-1 .324-1.332-.04-1.718-1-1 .326-1.339-.029-1.671-1-.938.342-1.363-.009-1.743-.969-1.031.317-1.308-.043-1.705-.969-1.031.308-1.302-.08-1.681-1.031-.969.324-1.331-.041-1.717-1-1 .324-1.332-.04-1.718-1-1 .326-1.339-.029-1.671-1-.938.342-1.363-.009-1.743-.969-1.031.321-1.322-.052-1.703-1-1 .322-1.329-.041-1.718-1-1 .324-1.332-.04-1.719-1-1 .324-1.332-.04-1.718-1-1 .326-1.339-.029-1.671-1-.938.35-1.381-.025-1.761-1-1.031.322-1.325-.02-1.704-.969-1 .322-1.329-.041-1.718-1-1 .324-1.332-.04-1.719-1-1 .324-1.332-.04-1.718-1-1 .326-1.339-.029-1.671-1-.938.352-1.388-.014-1.744-1-1 .342-1.363-.009-1.743-.969-1.031.322-1.329-.041-1.718-1-1 .324-1.332-.04-1.719-1-1 .324-1.331-.041-1.718-1-1 .324-1.332-.04-1.718-1-1 .326-1.339-.029-1.671-1-.938.342-1.363-.009-1.743-.969-1.031.321-1.322-.052-1.703-1-1 .322-1.329-.041-1.718-1-1 .324-1.331-.041-1.718-1-1 .324-1.332-.04-1.718-1-1 .326-1.339-.029-1.671-1-.938.348-1.374-.006-1.745-.969-1.031.321-1.322-.052-1.703-1-1 .322-1.329-.041-1.718-1-1 .324-1.332-.04-1.719-1-1 .324-1.332-.04-1.718-1-1 .326-1.339-.029-1.671-1-.938.35-1.381-.025-1.762-1-1.031.322-1.325-.02-1.704-.969-1 .322-1.329-.041-1.718-1-1 .324-1.332-.04-1.719-1-1 .324-1.332-.04-1.718-1-1 .324-1.332-.04-1.718-1-1 .326-1.339-.029-1.671-1-.938.342-1.363-.009-1.743-.969-1.031.317-1.308-.043-1.705-.969-1.031.308-1.302-.08-1.681-1.031-.969.324-1.331-.041-1.718-1-1 .324-1.332-.04-1.718-1-1 .326-1.339-.029-1.671-1-.938.342-1.363-.009-1.743-.969-1.031.321-1.322-.052-1.703-1-1 .322-1.329-.041-1.718-1-1 .324-1.332-.04-1.719-1-1 .324-1.332-.04-1.718-1-1 .326-1.339-.029-1.671-1-.938.35-1.381-.025-1.762-1-1.031.322-1.325-.02-1.704-.969-1 .322-1.329-.041-1.718-1-1 .324-1.332-.04-1.719-1-1 .324-1.332-.04-1.718-1-1 .326-1.339-.029-1.671-1-.938.352-1.388-.014-1.744-1-1 .342-1.363-.009-1.743-.969-1.031.322-1.329-.041-1.718-1-1 .324-1.332-.04-1.719-1-1 .324-1.331-.041-1.718-1-1 .324-1.332-.04-1.718-1-1 .326-1.339-.029-1.671-1-.938.342-1.363-.009-1.743-.969-1.031.317-1.308-.043-1.705-.969-1.031.308-1.302-.08-1.681-1.031-.969.324-1.331-.041-1.718-1-1 .324-1.332-.04-1.718-1-1 .326-1.339-.029-1.671-1-.938.348-1.374-.006-1.745-.969-1.031.321-1.322-.052-1.703-1-1 .322-1.329-.041-1.718-1-1 .324-1.332-.04-1.719-1-1 .324-1.332-.04-1.718-1-1 .326-1.339-.029-1.671-1-.938.35-1.381-.025-1.762-1-1.031.322-1.325-.02-1.704-.969-1 .322-1.329-.041-1.718-1-1 .324-1.332-.04-1.719-1-1 .324-1.332-.04-1.718-1-1 .326-1.339-.029-1.671-1-.938.352-1.388-.014-1.744-1-1 .342-1.363-.009-1.743-.969-1.031.322-1.329-.041-1.718-1-1 .324-1.332-.04-1.719-1-1 .324-1.331-.041-1.718-1-1 .324-1.332-.04-1.718-1-1 .326-1.339-.029-1.671-1-.938.342-1.363-.009-1.743-.969-1.031.321-1.322-.052-1.703-1-1 .322-1.329-.041-1.718-1-1 .324-1.331-.041-1.718-1-1 .324-1.332-.04-1.718-1-1 .326-1.339-.029-1.671-1-.938.348-1.374-.006-1.745-.969-1.031.321-1.322-.052-1.703-1-1 .322-1.329-.041-1.718-1-1 .324-1.332-.04-1.719-1-1 .324-1.332-.04-1.718-1-1 .326-1.339-.029-1.671-1-.938.352-1.388-.014-1.745-1-1 .342-1.363-.009-1.743-.969-1.031.322-1.329-.041-1.718-1-1 .324-1.332-.04-1.719-1-1 .324-1.331-.041-1.718-1-1 .324-1.332-.04-1.718-1-1 .326-1.339-.029-1.671-1-.938.342-1.363-.009-1.743-.969-1.031.317-1.308-.043-1.705-.969-1.031.308-1.302-.08-1.681-1.031-.969.324-1.331-.041-1.718-1-1 .324-1.332-.04-1.718-1-1 .326-1.339-.029-1.671-1-.938.342-1.363-.009-1.743-.969-1.031.321-1.322-.052-1.703-1-1 .322-1.329-.041-1.718-1-1 .324-1.332-.04-1.719-1-1 .324-1.332-.04-1.718-1-1 .326-1.339-.029-1.671-1-.938.35-1.382-.025-1.762-1-1.031.322-1.325-.02-1.704-.969-1 .322-1.329-.041-1.718-1-1 .324-1.332-.04-1.719-1-1 .324-1.332-.04-1.718-1-1 .326-1.339-.029-1.671-1-.938.352-1.388-.014-1.745-1-1 .342-1.363-.009-1.743-.969-1.031.322-1.329-.041-1.718-1-1 .213-.874.142-1.373-.219-1.375" fill-opacity=".235"/>
  <path d="m256 1c-140.83 0-255 114.17-255 255s114.17 255 255 255 255-114.17 255-255-114.17-255-255-255m8.827 44.931c120.9 0 218.9 98 218.9 218.9s-98 218.9-218.9 218.9-218.93-98-218.93-218.9 98.03-218.9 218.93-218.9" fill-opacity=".067"/>
  <g fill-opacity=".129">
   <path d="m256 4.433c-138.94 0-251.57 112.63-251.57 251.57s112.63 251.57 251.57 251.57 251.57-112.63 251.57-251.57-112.63-251.57-251.57-251.57m5.885 38.556c120.9 0 218.9 98 218.9 218.9s-98 218.9-218.9 218.9-218.93-98-218.93-218.9 98.03-218.9 218.93-218.9"/>
   <path d="m256 8.356c-136.77 0-247.64 110.87-247.64 247.64s110.87 247.64 247.64 247.64 247.64-110.87 247.64-247.64-110.87-247.64-247.64-247.64m2.942 31.691c120.9 0 218.9 98 218.9 218.9s-98 218.9-218.9 218.9-218.93-98-218.93-218.9 98.03-218.9 218.93-218.9"/>
  </g>
  <path d="m253.04 7.859c-135.42 0-245.19 109.78-245.19 245.19 0 135.42 109.78 245.19 245.19 245.19 135.42 0 245.19-109.78 245.19-245.19 0-135.42-109.78-245.19-245.19-245.19zm0 26.297c120.9 0 218.9 98 218.9 218.9s-98 218.9-218.9 218.9-218.93-98-218.93-218.9 98.03-218.9 218.93-218.9z" fill="#ffffff" stroke="#000000" stroke-opacity=".31" stroke-width="4.904"/>
 </g>
 <path d="m-80.26 130.11c.082-.262-.086-.522-.375-.522h-4.908c-.289 0-.352-.235-.167-.446l10.486-13.416c.185-.212.252-.175.148.082l-2.303 9.37c-.104.257.047.411.336.411h4.919c.289 0 .382.232.205.451l-10.511 13.407c-.176.219-.254.18-.17-.082z" fill="#ffffff" fill-rule="evenodd" transform="matrix(13.429 0 0 13.429 1314.5 -1457.3)"/>
</svg>
