<svg xmlns="http://www.w3.org/2000/svg" height="512" width="512"><defs><filter x="-.05" width="1.1" y="-.03" height="1.06" id="a" color-interpolation-filters="sRGB"><feFlood result="flood" flood-color="#000" flood-opacity=".45"/><feComposite result="composite1" operator="in" in2="SourceGraphic" in="flood"/><feGaussianBlur result="blur" stdDeviation="1 1.5" in="composite1"/><feOffset result="offset" dy="3"/><feComposite result="composite2" in2="offset" in="SourceGraphic"/></filter></defs><path d="M471.95 253.05c0 120.9-98.01 218.9-218.9 218.9-120.9 0-218.9-98.01-218.9-218.9 0-120.9 98.01-218.9 218.9-218.9 120.9 0 218.9 98.01 218.9 218.9" fill="#979797" fill-rule="evenodd"/><path d="M256 1C115.17 1 1 115.17 1 256c0 140.83 114.17 255 255 255 140.83 0 255-114.17 255-255C511 115.17 396.83 1 256 1m8.827 44.93c120.9 0 218.9 98 218.9 218.9s-98 218.9-218.9 218.9-218.93-98-218.93-218.9 98.03-218.9 218.93-218.9" fill-opacity=".067" fill-rule="evenodd"/><g fill-opacity=".129" fill-rule="evenodd"><path d="M256 4.433c-138.94 0-251.57 112.63-251.57 251.57S117.06 507.573 256 507.573s251.57-112.63 251.57-251.57S394.94 4.433 256 4.433m5.885 38.556c120.9 0 218.9 98 218.9 218.9s-98 218.9-218.9 218.9-218.93-98-218.93-218.9 98.03-218.9 218.93-218.9"/><path d="M256 8.356c-136.77 0-247.64 110.87-247.64 247.64 0 136.77 110.87 247.64 247.64 247.64 136.77 0 247.64-110.87 247.64-247.64 0-136.77-110.87-247.64-247.64-247.64m2.942 31.69c120.9 0 218.9 98 218.9 218.9s-98 218.9-218.9 218.9-218.93-98-218.93-218.9 98.03-218.9 218.93-218.9"/></g><path d="M317.63 113.874l-19.074 1.054-2.236.568 11.867 11.867-46.14-12.02h-3.336l-37.532 12.662-1.113.934-4.193-4.194-49.854-8.834-5.498.152 15.38 30.463-28.516 33.3 6.927 36.845 8.71 69.93-16.86 109.422 120.42 76.798c66.536-3.29 229.996-76.605 199.653-261.614l-115.665-91.8-15.466-5.208" opacity=".25"/><path d="M253.04 7.86C117.62 7.86 7.85 117.64 7.85 253.05c0 135.42 109.78 245.19 245.19 245.19 135.42 0 245.19-109.78 245.19-245.19 0-135.42-109.78-245.19-245.19-245.19zm0 26.296c120.9 0 218.9 98 218.9 218.9s-98 218.9-218.9 218.9-218.93-98-218.93-218.9 98.03-218.9 218.93-218.9z" fill="#fff" fill-rule="evenodd" stroke="#000" stroke-opacity=".31" stroke-width="4.904"/><path d="M136 6.996V7h8v-.004zm-103.34.006c-2.573 0-4.644 2.066-4.644 4.633v36.597c0 .033.005.065.01.096L28.022 63H28v66h.01v.002l-.004 19.746H28v31.688c0 2.528 2.05 4.564 4.594 4.564H136V7.002H38.032zm111.34 0v177.996c1.37-.004 2.706-.15 3.996-.424.327-.07.652-.146.973-.232.64-.172 1.27-.377 1.884-.612.307-.117.612-.242.912-.375 4.2-1.853 7.664-5.157 9.82-9.32.616-1.19 1.126-2.448 1.516-3.764.584-1.972.898-6.25.898-6.25V29.125c0-.224-.01-.447-.016-.67v-.394c0-2.187-.314-4.296-.898-6.277-.39-1.32-.9-2.583-1.516-3.777-2.31-4.478-6.12-7.966-10.732-9.733-.308-.117-.617-.227-.932-.33-.63-.204-1.27-.377-1.926-.517-.326-.07-.655-.133-.988-.186-.975-.155-1.975-.234-2.992-.238zm-80.17 75.88c2.827 0 4.966.88 6.416 2.638 1.45 1.743 2.176 4.314 2.176 7.712v14.854H68.38V93.363c0-2.33-.456-4.07-1.364-5.228-.91-1.157-2.27-1.737-4.086-1.737-2.183 0-3.905.697-5.164 2.088-1.26 1.392-1.89 3.29-1.89 5.692v13.908h-4.063v-24.61h4.064V87.3c.967-1.48 2.1-2.585 3.404-3.318 1.32-.732 2.836-1.1 4.55-1.1zm25.006 0c1.816 0 3.37.36 4.658 1.077 1.304.702 2.38 1.786 3.23 3.25v-3.733h4.042v33.968h-4.043v-13.05c-.85 1.464-1.925 2.555-3.23 3.273-1.288.703-2.84 1.055-4.657 1.055-2.974 0-5.398-1.186-7.273-3.56-1.86-2.372-2.792-5.493-2.792-9.36 0-3.867.932-6.987 2.793-9.36 1.874-2.373 4.3-3.56 7.273-3.56zm28.564 0c1.817 0 3.37.36 4.66 1.077 1.302.702 2.38 1.786 3.23 3.25v-3.733h4.042v33.968h-4.043v-13.05c-.85 1.464-1.928 2.555-3.23 3.273-1.29.703-2.843 1.055-4.66 1.055-2.973 0-5.398-1.186-7.273-3.56-1.86-2.372-2.79-5.493-2.79-9.36 0-3.867.93-6.987 2.79-9.36 1.875-2.373 4.3-3.56 7.273-3.56zM89.824 86.27c-2.138 0-3.824.85-5.054 2.548-1.216 1.685-1.823 4.013-1.823 6.987 0 2.973.607 5.31 1.823 7.01 1.23 1.684 2.916 2.527 5.054 2.527 2.14 0 3.824-.843 5.055-2.528 1.23-1.7 1.843-4.036 1.843-7.01 0-2.973-.614-5.3-1.844-6.986-1.232-1.7-2.917-2.548-5.056-2.548zm28.565 0c-2.14 0-3.824.85-5.054 2.548-1.216 1.685-1.824 4.013-1.824 6.987 0 2.973.608 5.31 1.824 7.01 1.23 1.684 2.914 2.527 5.053 2.527 2.137 0 3.82-.843 5.05-2.528 1.232-1.7 1.85-4.036 1.85-7.01 0-2.973-.618-5.3-1.85-6.986-1.23-1.7-2.913-2.548-5.05-2.548z" fill="#fffffe" filter="url(#a)" transform="matrix(1.5979 0 0 1.5979 102.602 102.605)"/><path fill="#fff" fill-opacity=".755" d="M319.916 113.79H332.7v284.427h-12.784z"/></svg>