<svg xmlns:rdf="http://www.w3.org/1999/02/22-rdf-syntax-ns#" xmlns="http://www.w3.org/2000/svg" height="512" width="512" version="1.1" xmlns:cc="http://creativecommons.org/ns#" xmlns:dc="http://purl.org/dc/elements/1.1/" viewBox="0 0 512 512">
 <g fill-rule="evenodd">
  <path d="m471.95 253.05c0 120.9-98.01 218.9-218.9 218.9-120.9 0-218.9-98.01-218.9-218.9 0-120.9 98.01-218.9 218.9-218.9 120.9 0 218.9 98.01 218.9 218.9" fill="#777777"/>
  <path opacity=".25" d="m290.55 102.64 179.66 153.29c-1.5068 99.178-66.433 184.43-172.75 213.17l-185.22-165.85z" fill="#000000"/>
  <path d="m256 1c-140.83 0-255 114.17-255 255s114.17 255 255 255 255-114.17 255-255-114.17-255-255-255m8.827 44.931c120.9 0 218.9 98 218.9 218.9s-98 218.9-218.9 218.9-218.93-98-218.93-218.9 98.03-218.9 218.93-218.9" fill-opacity=".067"/>
  <g fill-opacity=".129">
   <path d="m256 4.433c-138.94 0-251.57 112.63-251.57 251.57s112.63 251.57 251.57 251.57 251.57-112.63 251.57-251.57-112.63-251.57-251.57-251.57m5.885 38.556c120.9 0 218.9 98 218.9 218.9s-98 218.9-218.9 218.9-218.93-98-218.93-218.9 98.03-218.9 218.93-218.9"/>
   <path d="m256 8.356c-136.77 0-247.64 110.87-247.64 247.64s110.87 247.64 247.64 247.64 247.64-110.87 247.64-247.64-110.87-247.64-247.64-247.64m2.942 31.691c120.9 0 218.9 98 218.9 218.9s-98 218.9-218.9 218.9-218.93-98-218.93-218.9 98.03-218.9 218.93-218.9"/>
  </g>
  <path d="m253.04 7.859c-135.42 0-245.19 109.78-245.19 245.19 0 135.42 109.78 245.19 245.19 245.19 135.42 0 245.19-109.78 245.19-245.19 0-135.42-109.78-245.19-245.19-245.19zm0 26.297c120.9 0 218.9 98 218.9 218.9s-98 218.9-218.9 218.9-218.93-98-218.93-218.9 98.03-218.9 218.93-218.9z" stroke-opacity=".31" stroke="#000000" stroke-width="4.904" fill="#ffffff"/>
  <path d="m285.62 100.14c-8.48-2.272-17.196 2.76-19.468 11.24-0.431 1.609-0.583 3.219-0.515 4.799-34.15-5.184-57.39 9.05-67.29 38.872-11.944 28.989-19.53 59.62-48.52 89.83-12.436 11.496-23.19 23.01-47.14 34.397-4.684 13.274 5.928 20.285 10.477 24.329l72.22 19.14c-0.099 0.334-0.203 0.663-0.294 1-5.595 20.882 6.797 42.35 27.678 47.94 20.882 5.595 42.35-6.797 47.941-27.678 0.11-0.411 0.208-0.819 0.304-1.23l72.67 19.267c7.414-1.01 15.579-0.903 20.683-15.389-10.7-16.23-19.281-31.387-23.325-49.22-0.146-0.644-0.426-1.261-0.619-1.914-7.01-39.95-3.376-74.49 3.152-104.27 7.848-27.588-8.131-54.14-38.78-67.06 0.905-1.38 1.627-2.905 2.077-4.586 2.272-8.48-2.76-17.196-11.24-19.468" fill="#ffffff"/>
 </g>
</svg>
