<svg height="512" viewBox="0 0 512 512" width="512" xmlns="http://www.w3.org/2000/svg">
 <path d="m471.95 253.05c0 120.9-98.01 218.9-218.9 218.9-120.9 0-218.9-98.01-218.9-218.9 0-120.9 98.01-218.9 218.9-218.9 120.9 0 218.9 98.01 218.9 218.9" fill="#9f9f9f" fill-rule="evenodd"/>
 <path d="m384.06 137.41c-39.06 10.304-74.02 33.07-105.78 57.56-16.13 21.349-33.12 47.4-64.37 42.38-32.819 6.367-61.812 25.433-89.75 42.969-25.836 10.1-38.496 38.714-12.09 56.28 45.15 44.986 90.09 90.2 135.16 135.28 1.94.051 3.861.094 5.813.094 120.9 0 218.91-98.01 218.91-218.91 0-12.372-1.028-24.501-3-36.31-25.739-25.735-51.52-51.45-77.37-77.06-1.756-2.504-5.639-.4-7.5-2.281" fill-opacity=".235"/>
 <g fill-rule="evenodd">
  <path d="m256 1c-140.83 0-255 114.17-255 255s114.17 255 255 255 255-114.17 255-255-114.17-255-255-255m8.827 44.931c120.9 0 218.9 98 218.9 218.9s-98 218.9-218.9 218.9-218.93-98-218.93-218.9 98.03-218.9 218.93-218.9" fill-opacity=".067"/>
  <g fill-opacity=".129">
   <path d="m256 4.433c-138.94 0-251.57 112.63-251.57 251.57s112.63 251.57 251.57 251.57 251.57-112.63 251.57-251.57-112.63-251.57-251.57-251.57m5.885 38.556c120.9 0 218.9 98 218.9 218.9s-98 218.9-218.9 218.9-218.93-98-218.93-218.9 98.03-218.9 218.93-218.9"/>
   <path d="m256 8.356c-136.77 0-247.64 110.87-247.64 247.64s110.87 247.64 247.64 247.64 247.64-110.87 247.64-247.64-110.87-247.64-247.64-247.64m2.942 31.691c120.9 0 218.9 98 218.9 218.9s-98 218.9-218.9 218.9-218.93-98-218.93-218.9 98.03-218.9 218.93-218.9"/>
  </g>
  <path d="m253.04 7.859c-135.42 0-245.19 109.78-245.19 245.19 0 135.42 109.78 245.19 245.19 245.19 135.42 0 245.19-109.78 245.19-245.19 0-135.42-109.78-245.19-245.19-245.19zm0 26.297c120.9 0 218.9 98 218.9 218.9s-98 218.9-218.9 218.9-218.93-98-218.93-218.9 98.03-218.9 218.93-218.9z" fill="#ffffff" stroke="#000000" stroke-opacity=".31" stroke-width="4.904"/>
 </g>
 <path d="m384.06 137.41c-2.255-.043-4.29.388-5.656.906-23.806 7.915-50.08 21.399-75.938 38.906l-1.344.906c-15.779 10.664-24.492 16.555-32.5 27.625-1.86 2.573-3.709 5.325-5.313 7.813-2.857 4.439-7.407 10.08-10.156 12.594-1.108 1.014-2.211 2.05-3.219 2.938-1.447 1.28-4.637 3.105-6.469 3.719-1.275.424-2.724.892-4.156 1.344-3.543 1.123-10.696 2.245-15.969 2.5-2.956.145-6.28.363-9.438.688-13.591 1.4-23.03 5.98-40.16 14.313l-1.438.719c-28.1 13.646-52.972 29.704-71.59 46.25-3.105 2.542-7.94 9.399-4.063 17.13.787 1.579 2.491 4.363 4 6.844.984 1.632 1.881 3.119 2.344 3.969 2.792 5.112 5.787 6.04 8.188 6.781.771.242 1.415.436 2.031.781 1.374.768 2.705 1.96 3.969 3.5 27.432 33.439 31.732 37.655 51.906 36.875 9.66-.372 26.37-6.536 41.625-15.344 11.893-6.866 28.17-18.361 38.16-34.06 14.542-22.879.661-64.843-.063-66.938-.09-.205-2.04-5.01 7.469-10.5v-.031l.563-.313c9.02-5.21 12.252-1.104 12.594-.656 1.242 1.406 30.631 34.399 57.719 33.25 18.593-.79 36.67-9.134 48.563-16 15.255-8.807 28.969-20.232 34.13-28.406 10.762-17.08 9.212-22.898-6.03-63.37-.699-1.859-1.018-3.609-1-5.188.009-.706.168-1.368.344-2.156.556-2.451 1.247-5.531-1.781-10.5-.508-.831-1.368-2.334-2.281-4-1.394-2.547-2.969-5.432-3.938-6.906-2.97-4.513-7.335-5.897-11.09-5.969" fill="#ffffff"/>
</svg>
