<svg viewBox="0 0 512 512" xmlns="http://www.w3.org/2000/svg">
 <g fill-rule="evenodd">
  <path d="m471.95 253.05c0 120.9-98.01 218.91-218.91 218.91s-218.91-98.01-218.91-218.91 98.01-218.91 218.91-218.91 218.91 98.01 218.91 218.91" fill="#8f8f8f"/>
  <path d="m256 1c-140.83 0-255 114.17-255 255s114.17 255 255 255 255-114.17 255-255-114.17-255-255-255m8.827 44.931c120.9 0 218.9 98 218.9 218.9s-98 218.9-218.9 218.9-218.93-98-218.93-218.9 98.03-218.9 218.93-218.9" fill-opacity=".067"/>
  <g fill-opacity=".129">
   <path d="m256 4.43c-138.94 0-251.57 112.63-251.57 251.57s112.63 251.57 251.57 251.57 251.57-112.63 251.57-251.57-112.63-251.57-251.57-251.57m5.885 38.556c120.9 0 218.9 98 218.9 218.9s-98 218.9-218.9 218.9-218.93-98-218.93-218.9 98.03-218.9 218.93-218.9"/>
   <path d="m256 8.36c-136.77 0-247.64 110.87-247.64 247.64s110.87 247.64 247.64 247.64 247.64-110.87 247.64-247.64-110.87-247.64-247.64-247.64m2.942 31.691c120.9 0 218.9 98 218.9 218.9s-98 218.9-218.9 218.9-218.93-98-218.93-218.9 98.03-218.9 218.93-218.9"/>
  </g>
  <path d="m253.04 7.86c-135.42 0-245.19 109.78-245.19 245.19 0 135.42 109.78 245.19 245.19 245.19 135.42 0 245.19-109.78 245.19-245.19 0-135.42-109.78-245.19-245.19-245.19m0 26.297c120.9 0 218.9 98 218.9 218.9s-98 218.9-218.9 218.9-218.93-98-218.93-218.9 98.03-218.9 218.93-218.9z" fill="#ffffff" stroke="#000000" stroke-opacity=".31" stroke-width="4.904"/>
 </g>
 <path d="m398.43 160.9l-24.979 1.162.959 20.18.076.461-11.92-11.92c-2.991-2.991-6.572-5.189-10.76-6.564-3.509-1.163-8.341-1.76-14.451-1.803h-.002c-2.035-.015-4.243.035-6.566.145-9.649.458-17.2 2.283-22.77 5.408-4.838 2.742-8.824 6.241-11.967 10.494l-12.18-12.182v.004l-34.14 1.627-4.498 23.13-21.85-21.85-34.23 1.656 1.201 24.992-13.293-13.293c-.242-.242-.486-.48-.734-.715-7.46-7.088-17.607-10.582-30.389-10.441l43.34 43.34v.008l-43.34-43.34c-.852.01-1.683.047-2.559.088-13.669.649-24.13 5.147-31.406 13.551s-10.63 19.88-9.945 34.31c.49 10.332 2.903 18.784 7.096 25.475 1.757 2.803 3.704 5.274 5.84 7.41l43.47 43.47-14.547.67.279 5.773-5.512-5.512h-.002l-16.14.756.932 19.688-18.816-18.814-16.14.727 1.453 31.23c.122 2.57.792 5.497 1.949 8.781.717 2.041 1.963 4 3.721 5.875.134.141.27.278.406.414l124.23 124.23c10.694 1.606 21.641 2.443 32.783 2.443 120.9 0 218.91-98.01 218.91-218.91 0-6.581-.308-13.09-.877-19.521l-72.63-72.63" opacity=".25"/>
 <path d="m398.43 160.9l-24.98 1.163.96 20.18 6.659 40.22 15.441-.785 2.879-40.683-.96-20.09m-61.07 1.512c-2.037-.015-4.246.035-6.572.145-9.649.458-17.2 2.284-22.77 5.409-7.138 4.046-12.427 9.734-15.878 17.07-3.453 7.296-4.994 15.767-4.536 25.416.435 9.166 2.587 17.195 6.368 24.11 3.82 6.91 8.905 11.987 15.354 15.267 6.487 3.278 14.783 4.691 24.776 4.217 8.117-.385 15.05-1.647 20.85-3.897 5.839-2.292 12.456-6.399 19.891-12.272l-1.745-37.717-40.22 1.948.843 18.378 17.448-.872.349 8.317c-3.307 2.292-6.211 4.02-8.811 5.03s-5.378 1.549-8.288 1.687c-6.126.291-11.02-1.559-14.656-5.496-3.602-3.939-5.624-10.671-6.078-20.24-.427-9.01.927-15.677 4.1-19.978 3.209-4.343 7.672-6.65 13.377-6.921 3.829-.182 7.03.587 9.567 2.239 2.573 1.651 4.449 4.128 5.641 7.415l24.834-5.903c-1.802-5.636-4.293-10.26-7.532-13.813-3.202-3.595-7.148-6.186-11.865-7.735-3.509-1.163-8.342-1.76-14.453-1.803m-53.48 3.868l-34.14 1.628-10.585 54.44-15.761-53.16-34.23 1.658 4.246 88.34 21.257-.989-3.199-67.41 19.629 66.62 19.28-.872 13.231-68.22 3.228 67.38 21.23-.989-4.188-88.43m-137.93 5.118c-.852.01-1.683.046-2.559.087-13.669.649-24.13 5.147-31.406 13.551s-10.63 19.881-9.945 34.31c.49 10.332 2.902 18.783 7.095 25.474s9.466 11.484 15.819 14.365c6.392 2.88 14.263 4.086 23.758 3.635 9.342-.443 17.11-2.647 23.18-6.601 6.104-3.997 10.629-9.332 13.609-16.08 3.02-6.792 4.27-15.374 3.78-25.707-.675-14.232-4.986-25.08-12.941-32.599-7.46-7.088-17.606-10.581-30.388-10.44m-.64 20.734c5.01-.008 9.09 1.758 12.243 5.234 3.397 3.667 5.305 9.62 5.7 17.942.469 9.89-.753 16.857-3.635 20.821-2.882 3.965-7.118 6.074-12.708 6.339-5.437.258-9.839-1.485-13.202-5.234-3.325-3.751-5.16-10.09-5.583-19.02-.427-9.01.816-15.549 3.809-19.6 2.993-4.05 7.113-6.207 12.359-6.456.342-.016.684-.029 1.018-.029m255.5 35.565l-23.351 1.105 1.076 21.635 23.293-1.105zm20.734 55.54l-15.529.727.553 11.952 4.1 23.787 9.567-.465 1.861-24.11-.553-11.894m-19.862.901l-16.14.843 1.512 31.901c.137 2.903-.546 5.222-2.065 6.892-1.496 1.645-3.613 2.485-6.398 2.617-2.808.133-5.02-.546-6.688-2.065-1.647-1.544-2.54-3.745-2.675-6.601l-1.512-31.959-16.197.814 1.512 31.17c.122 2.57.762 5.498 1.919 8.782.717 2.041 1.993 3.973 3.751 5.845 1.782 1.871 3.626 3.3 5.7 4.275 2.073.951 4.662 1.588 7.677 1.803 3.039.214 5.829.208 8.375.087 4.403-.209 8.168-.953 11.254-2.268 2.221-.94 4.303-2.48 6.252-4.624 1.972-2.169 3.365-4.633 4.188-7.415.845-2.807 1.194-5.776 1.047-8.869l-1.512-31.23m-51.995 2.501l-49.17 2.355.669 12.911 16.459-.814 1.89 39.432 16.17-.785-1.861-39.4 16.488-.756-.64-12.941m-50.744 2.385l-15.238.727 1.396 28.964-21.08-28-15.12.698 2.443 52.31 15.267-.669-1.367-28.76 20.967 27.829 15.209-.756-2.472-52.34m-55.37 2.617l-16.14.785 1.512 31.959c.137 2.903-.546 5.164-2.065 6.834-1.496 1.645-3.642 2.543-6.427 2.675-2.808.133-5.02-.546-6.688-2.065-1.648-1.544-2.598-3.716-2.734-6.572l-1.483-31.959-16.14.727 1.512 31.23c.122 2.57.733 5.498 1.89 8.782.717 2.041 1.935 4 3.693 5.874 1.782 1.871 3.713 3.3 5.787 4.275 2.072.951 4.662 1.501 7.677 1.716 3.039.213 5.8.266 8.346.145 4.403-.209 8.197-.953 11.283-2.268 2.221-.94 4.244-2.509 6.194-4.653 1.972-2.169 3.365-4.604 4.188-7.386.845-2.807 1.223-5.776 1.076-8.869l-1.483-31.23m-67.55 3.315c-.596-.01-1.201-.001-1.832.029l-30.3 1.396 2.53 52.34 27.859-1.309c1.19-.057 3.651-.398 7.27-1.047 2.72-.487 4.729-1.186 6.05-2.036 2.13-1.365 3.785-3.154 4.944-5.38 1.158-2.225 1.641-4.702 1.512-7.415-.158-3.332-1.194-6.01-3.082-8.113-1.866-2.13-4.659-3.549-8.462-4.275 2.434-.974 4.223-2.244 5.438-3.78 1.823-2.305 2.677-5.05 2.53-8.142-.175-3.689-1.647-6.674-4.478-9.04-2.457-2.075-5.805-3.152-9.974-3.228m-37.37 1.687l-16.14.756 1.512 31.959c.137 2.903-.546 5.222-2.065 6.892-1.496 1.645-3.671 2.514-6.456 2.646-2.808.133-5.02-.546-6.688-2.065-1.647-1.544-2.54-3.745-2.675-6.601l-1.512-31.959-16.14.727 1.454 31.23c.122 2.57.791 5.498 1.948 8.782.717 2.041 1.964 4 3.722 5.874 1.782 1.871 3.713 3.3 5.787 4.275 2.072.951 4.603 1.53 7.619 1.745 3.039.214 5.829.266 8.375.145 4.403-.209 8.139-.953 11.225-2.268 2.221-.94 4.303-2.48 6.252-4.624 1.972-2.169 3.424-4.633 4.246-7.415.845-2.807 1.135-5.776.989-8.869l-1.454-31.23m29.23 9.247c2.451-.116 4.189.237 5.205 1.047 1.04.809 1.585 1.937 1.658 3.461.078 1.642-.351 2.969-1.309 3.897-.935.903-2.654 1.422-5.176 1.541l-7.07.32-.465-9.945 7.154-.32m255 16.866l-14.511.698.669 12.824 14.453-.727zm-250.99 2.966c1.814.082 3.14.46 4.01 1.134 1.186.874 1.788 2.146 1.861 3.693.079 1.666-.417 2.959-1.512 4.01-1.096 1.03-3.061 1.642-5.845 1.774l-8.23.407-.494-10.643 8.23-.349c.708-.034 1.373-.057 1.977-.029" fill="#ffffff"/>
</svg>
