<svg height="512" viewBox="0 0 512 512" width="512" xmlns="http://www.w3.org/2000/svg">
 <path d="m471.95 253.05c0 120.9-98.01 218.9-218.9 218.9-120.9 0-218.9-98.01-218.9-218.9 0-120.9 98.01-218.9 218.9-218.9 120.9 0 218.9 98.01 218.9 218.9" fill="#9f9f9f" fill-rule="evenodd" opacity=".84"/>
 <path d="m187.63 44.13c-88.93 27.822-153.47 110.83-153.47 208.94 0 101.71 69.37 187.2 163.38 211.78 21.571-67.43 19.591-130.31-1.125-207.62-23.14-86.37-31.33-144.98-8.781-213.09" fill="#9f9f9f"/>
 <g fill-rule="evenodd">
  <path d="m256 1c-140.83 0-255 114.17-255 255s114.17 255 255 255 255-114.17 255-255-114.17-255-255-255m8.827 44.931c120.9 0 218.9 98 218.9 218.9s-98 218.9-218.9 218.9-218.93-98-218.93-218.9 98.03-218.9 218.93-218.9" fill-opacity=".067"/>
  <g fill-opacity=".129">
   <path d="m256 4.433c-138.94 0-251.57 112.63-251.57 251.57s112.63 251.57 251.57 251.57 251.57-112.63 251.57-251.57-112.63-251.57-251.57-251.57m5.885 38.556c120.9 0 218.9 98 218.9 218.9s-98 218.9-218.9 218.9-218.93-98-218.93-218.9 98.03-218.9 218.93-218.9"/>
   <path d="m256 8.356c-136.77 0-247.64 110.87-247.64 247.64s110.87 247.64 247.64 247.64 247.64-110.87 247.64-247.64-110.87-247.64-247.64-247.64m2.942 31.691c120.9 0 218.9 98 218.9 218.9s-98 218.9-218.9 218.9-218.93-98-218.93-218.9 98.03-218.9 218.93-218.9"/>
  </g>
  <path d="m253.04 7.859c-135.42 0-245.19 109.78-245.19 245.19 0 135.42 109.78 245.19 245.19 245.19 135.42 0 245.19-109.78 245.19-245.19 0-135.42-109.78-245.19-245.19-245.19zm0 26.297c120.9 0 218.9 98 218.9 218.9s-98 218.9-218.9 218.9-218.93-98-218.93-218.9 98.03-218.9 218.93-218.9z" fill="#ffffff" stroke="#000000" stroke-opacity=".31" stroke-width="4.904"/>
 </g>
 <path d="m115.56 148v64.813l32.406 32.406h-32.41v64.813l32.375 32.375h-32.38v21.594l105.66 105.66c10.393 1.514 21.03 2.281 31.844 2.281 116.09 0 211.04-90.36 218.41-204.59l-97.19-97.19c-13.689-13.689-32.608-22.16-53.5-22.16v21.75l-10.938-10.938c-26.349 0-49.554 13.495-63.09 33.938l-44.75-44.75h-86.44" opacity=".25"/>
 <path d="m115.56 148v64.813h86.44v-64.81h-86.44m205.22 0v75.66h75.66c0-41.76-33.86-75.66-75.66-75.66m-10.938 10.813c-41.755 0-75.62 33.832-75.62 75.63 0 41.755 33.832 75.63 75.63 75.63 41.755 0 75.63-33.832 75.63-75.62h-75.62v-75.62m-194.28 86.41v64.813h86.44v-64.813zm0 97.19v21.594h280.84v-21.594z" fill="#ffffff"/>
</svg>
