<svg xmlns="http://www.w3.org/2000/svg" height="512" width="512"><path d="M471.95 253.05c0 120.9-98.01 218.9-218.9 218.9-120.9 0-218.9-98.01-218.9-218.9 0-120.9 98.01-218.9 218.9-218.9 120.9 0 218.9 98.01 218.9 218.9" fill="#737373" fill-rule="evenodd"/><path d="M256 1C115.17 1 1 115.17 1 256c0 140.83 114.17 255 255 255 140.83 0 255-114.17 255-255C511 115.17 396.83 1 256 1m8.827 44.93c120.9 0 218.9 98 218.9 218.9s-98 218.9-218.9 218.9-218.93-98-218.93-218.9 98.03-218.9 218.93-218.9" fill-opacity=".067" fill-rule="evenodd"/><g fill-opacity=".129" fill-rule="evenodd"><path d="M256 4.43C117.06 4.43 4.43 117.06 4.43 256S117.06 507.54 256 507.54 507.57 394.94 507.57 256 394.94 4.43 256 4.43m5.885 38.556c120.9 0 218.9 98 218.9 218.9s-98 218.9-218.9 218.9-218.93-98-218.93-218.9 98.03-218.9 218.93-218.9"/><path d="M256 8.36C119.23 8.36 8.36 119.23 8.36 256c0 136.77 110.87 247.64 247.64 247.64 136.77 0 247.64-110.87 247.64-247.64C503.64 119.23 392.77 8.36 256 8.36m2.942 31.69c120.9 0 218.9 98 218.9 218.9s-98 218.9-218.9 218.9-218.93-98-218.93-218.9 98.03-218.9 218.93-218.9"/></g><path d="M253.04 7.86C117.62 7.86 7.85 117.64 7.85 253.05c0 135.42 109.78 245.19 245.19 245.19 135.42 0 245.19-109.78 245.19-245.19 0-135.42-109.78-245.19-245.19-245.19zm0 26.297c120.9 0 218.9 98 218.9 218.9s-98 218.9-218.9 218.9-218.93-98-218.93-218.9 98.03-218.9 218.93-218.9z" fill="#fff" fill-rule="evenodd" stroke="#000" stroke-width="4.904" stroke-opacity=".31"/><path d="M341.17 149.005L468.44 296.643c-27.634 99.046-63.604 146.796-184.83 173.317L176.85 370.18l4.796-216.966 62.916-32.542z" opacity=".25" fill-rule="evenodd"/><path d="M256.2 112.29c-17.236 0-33.36 3.452-48.32 10.368-14.96 6.945-28.406 17.22-40.43 30.682-13 14.325-22.648 29.872-28.772 46.58-6.127 16.685-9.103 35.438-9.103 56.25 0 20.818 2.976 39.623 9.103 56.3 6.125 16.724 15.773 32.23 28.772 46.557 11.898 13.35 25.3 23.535 40.23 30.41 14.945 6.86 31.16 10.268 48.52 10.268 17.358 0 33.53-3.41 48.49-10.27 14.96-6.873 28.344-17.06 40.26-30.408 12.87-14.226 22.42-29.653 28.475-46.31 6.067-16.597 9-35.497 9-56.55 0-21.06-2.935-39.94-9-56.55-6.05-16.64-15.614-32.07-28.5-46.28-11.994-13.464-25.46-23.74-40.41-30.682-14.934-6.916-31.09-10.368-48.32-10.368m0 18.95c19.505 0 31.918 7.452 38.918 21.877 7.507 15.453 11.757 49.26 11.757 103.06 0 53.828-4.248 87.63-11.757 103.06-7 14.453-19.415 21.902-38.917 21.902-19.62 0-32.15-7.527-39.24-22.08-7.58-15.57-11.83-49.32-11.83-102.89 0-53.55 4.252-87.27 11.83-102.84 7.087-14.565 19.622-22.1 39.24-22.1" fill="#fff" fill-rule="evenodd"/></svg>