<svg height="512" viewBox="0 0 512 512" width="512" xmlns="http://www.w3.org/2000/svg">
 <path d="m471.95 253.05c0 120.9-98.01 218.9-218.9 218.9-120.9 0-218.9-98.01-218.9-218.9 0-120.9 98.01-218.9 218.9-218.9 120.9 0 218.9 98.01 218.9 218.9" fill="#9f9f9f" fill-rule="evenodd"/>
 <path d="m265.80693 134.24145c-45.81876 18.80146-14.32068-27.80931-72.47481 7.31551l-14.82351 12.58601-14.7681 19.93975-22.42752 44.89226 17.35394 31.01084-.79376 51.6355 15.97299 58.64902 134.37561 106.2205c38.55033-17.96543 111.12391-9.91946 164.32241-185.13869l-113.9768-110.7902-48.85749-9.20761" opacity=".25"/>
 <path d="m256 1c-140.83 0-255 114.17-255 255 0 140.83 114.17 255 255 255 140.83 0 255-114.17 255-255 0-140.83-114.17-255-255-255m8.827 44.931c120.9 0 218.9 98 218.9 218.9 0 120.9-98 218.9-218.9 218.9-120.9 0-218.93-98-218.93-218.9 0-120.9 98.03-218.9 218.93-218.9" fill-opacity=".067" fill-rule="evenodd"/>
 <g fill-opacity=".129" fill-rule="evenodd">
  <path d="m256 4.433c-138.94 0-251.57 112.63-251.57 251.57 0 138.94 112.63 251.57 251.57 251.57 138.94 0 251.57-112.63 251.57-251.57 0-138.94-112.63-251.57-251.57-251.57m5.885 38.556c120.9 0 218.9 98 218.9 218.9 0 120.9-98 218.9-218.9 218.9-120.9 0-218.93-98-218.93-218.9 0-120.9 98.03-218.9 218.93-218.9"/>
  <path d="m256 8.356c-136.77 0-247.64 110.87-247.64 247.64 0 136.77 110.87 247.64 247.64 247.64 136.77 0 247.64-110.87 247.64-247.64 0-136.77-110.87-247.64-247.64-247.64m2.942 31.691c120.9 0 218.9 98 218.9 218.9 0 120.9-98 218.9-218.9 218.9-120.9 0-218.93-98-218.93-218.9 0-120.9 98.03-218.9 218.93-218.9"/>
 </g>
 <path d="m253.04 7.859c-135.42 0-245.19 109.78-245.19 245.19 0 135.42 109.78 245.19 245.19 245.19 135.42 0 245.19-109.78 245.19-245.19 0-135.42-109.78-245.19-245.19-245.19zm0 26.297c120.9 0 218.9 98 218.9 218.9 0 120.9-98 218.9-218.9 218.9-120.9 0-218.93-98-218.93-218.9 0-120.9 98.03-218.9 218.93-218.9z" fill="#ffffff" fill-rule="evenodd" stroke="#000000" stroke-opacity=".31" stroke-width="4.904"/>
 <path d="m255.20737 123.14725c-42.60658-.25246-84.5444 22.0351-108.54595 57.27783-17.82521 25.67446-26.05682 57.72243-22.85005 88.81392 3.70071 39.9021 26.86498 77.44074 60.78917 98.7986 30.44999 19.42809 68.84335 25.82762 103.85465 16.78539 32.64181-8.14502 62.0245-29.29598 79.89714-57.9084 14.28701-22.51461 21.62209-49.59003 20.38026-76.26721-1.12972-31.98152-14.25692-63.28726-36.5592-86.3617-23.56311-24.74623-56.92209-40.16224-91.07497-41.05933-1.94703-.0683-3.92953-.0941-5.89105-.0791zm-50.39359 44.58824v.002c9.57256.22371 18.00301 9.78434 16.24926 19.38924-.93113 8.26703-8.25876 15.53334-16.72828 15.57468-9.48896.46069-18.51827-7.99683-18.09941-17.6138-.0812-8.20997 6.293-16.2503 14.63642-17.11941.99687-.14782 2.00519-.21576 3.01254-.22412.31087-.0127.62068-.0154.92947-.009zm61.04625 10.89217c6.89095-.28175 12.19973 8.54644 8.18286 14.34857-2.99336 5.69188-12.08576 6.21956-15.7263.9053-3.56638-4.55062-1.94401-12.3242 3.64538-14.43866 1.22271-.54311 2.56241-.80665 3.89806-.81521zm-102.23082 31.2834c1.7986.0484 3.53996.46156 5.16153 1.15799.00066.00033.001-.00032.002 0 .00091.0004.001.002.002.002 6.97615 2.99881 11.74 11.28805 9.36502 18.80256-1.22921 4.65282-4.84441 8.41222-9.21121 10.33405-.0385.0683-.0849.0966-.14722.0637-3.82274 1.63955-8.20113 1.87788-12.07654.0263-7.91366-3.37322-12.23603-13.83277-7.94115-21.54923 2.60625-5.13976 8.10039-8.81336 13.91789-8.82887.31078-.0134.61957-.0165.92728-.009zm124.27444 19.63535c.1903-.002.38083-.002.57131.004 8.08209.0514 14.32488 9.68904 10.7054 17.02932-2.83046 6.90614-12.68506 9.77006-18.52789 4.88467-6.03648-4.27886-6.57355-14.38879-.5779-18.95418 2.16048-1.87389 4.97469-2.9262 7.82908-2.9642zm74.70047 40.28806c8.20274.16 15.47353 8.2794 14.02776 16.52393-.83766 9.0906-11.56483 15.75122-20.0089 11.95568-7.33668-2.74003-11.5523-11.87707-8.38721-19.15413 2.10411-5.44783 7.71395-9.3582 13.57292-9.31449.26628-.0117.53082-.0143.79543-.009v-.002zm-101.78477 1.70073c.33552-.00035.67192.007 1.00858.0242 12.56223.17266 22.75625 13.53477 19.86167 25.71096-2.17715 10.98047-14.05259 18.8016-25.00782 16.4778-10.47642-1.99834-18.40312-12.69487-17.06667-23.32028 1.07945-10.43644 10.80307-18.88116 21.20424-18.89266zm40.22654 77.19447c7.31343.0191 12.7066 9.08082 8.94754 15.45818-2.99917 5.96662-12.17411 7.62649-16.73049 2.51153-4.8103-4.66327-3.71601-14.04166 2.61263-16.82713 1.59284-.81812 3.3874-1.16531 5.17032-1.14258z" fill="#ffffff"/>
</svg>
