<svg height="512" viewBox="0 0 512 512" width="512" xmlns="http://www.w3.org/2000/svg">
 <path d="m471.95 253.05c0 120.9-98.01 218.9-218.9 218.9-120.9 0-218.9-98.01-218.9-218.9 0-120.9 98.01-218.9 218.9-218.9 120.9 0 218.9 98.01 218.9 218.9" fill="#8c8c8c" fill-rule="evenodd"/>
 <path d="m256 1c-140.83 0-255 114.17-255 255 0 140.83 114.17 255 255 255 140.83 0 255-114.17 255-255 0-140.83-114.17-255-255-255m8.827 44.931c120.9 0 218.9 98 218.9 218.9 0 120.9-98 218.9-218.9 218.9-120.9 0-218.93-98-218.93-218.9 0-120.9 98.03-218.9 218.93-218.9" fill-opacity=".067" fill-rule="evenodd"/>
 <g fill-opacity=".129" fill-rule="evenodd">
  <path d="m256 4.433c-138.94 0-251.57 112.63-251.57 251.57 0 138.94 112.63 251.57 251.57 251.57 138.94 0 251.57-112.63 251.57-251.57 0-138.94-112.63-251.57-251.57-251.57m5.885 38.556c120.9 0 218.9 98 218.9 218.9 0 120.9-98 218.9-218.9 218.9-120.9 0-218.93-98-218.93-218.9 0-120.9 98.03-218.9 218.93-218.9"/>
  <path d="m256 8.356c-136.77 0-247.64 110.87-247.64 247.64 0 136.77 110.87 247.64 247.64 247.64 136.77 0 247.64-110.87 247.64-247.64 0-136.77-110.87-247.64-247.64-247.64m2.942 31.691c120.9 0 218.9 98 218.9 218.9 0 120.9-98 218.9-218.9 218.9-120.9 0-218.93-98-218.93-218.9 0-120.9 98.03-218.9 218.93-218.9"/>
 </g>
 <path d="m253.04 7.859c-135.42 0-245.19 109.78-245.19 245.19 0 135.42 109.78 245.19 245.19 245.19 135.42 0 245.19-109.78 245.19-245.19 0-135.42-109.78-245.19-245.19-245.19zm0 26.297c120.9 0 218.9 98 218.9 218.9 0 120.9-98 218.9-218.9 218.9-120.9 0-218.93-98-218.93-218.9 0-120.9 98.03-218.9 218.93-218.9z" fill="#ffffff" fill-rule="evenodd" stroke="#000000" stroke-opacity=".31" stroke-width="4.904"/>
 <path d="m281.78304 119.18923l-161.34 30.895v209.75l111.18 111.18c7.532.784 15.177 1.191 22.916 1.191 117.79 0 213.83-93.04 218.7-209.63l-82.19-82.19c-1.941-1.941-4.299-3.086-6-3.086h-45.15l-58.11-58.11" opacity=".25"/>
 <path d="m281.78304 119.18923l-161.34 30.895v209.75l161.34 33.46v-274.1m10.194 58.11v53.625l18.938 11.801c.499.142 1.597.152 2.097 0l81.53-54.36c0-6.434-6.078-11.06-9.503-11.06h-93.06m-89.05 31.01c10.649 0 19.263 4.31 25.831 12.938 6.578 8.628 9.86 19.993 9.86 34.11.009 14.506-3.399 26.19-10.217 35.07-6.818 8.875-15.708 13.317-26.679 13.317-10.69 0-19.386-4.297-26.12-12.894-6.725-8.607-10.11-19.8-10.11-33.616 0-14.588 3.423-26.392 10.261-35.401 6.839-9.01 15.897-13.518 27.17-13.518m191.61 1.718c0 0-82.83 54.41-79.903 52.643 2.927-1.767-2.94 1.771-5.376 0l-17.288-11.733v72.854h87.82c7.807 0 14.745-4.508 14.745-15.236v-98.53m-192.08 16.195c-5.891 0-10.587 2.742-14.05 8.209-3.467 5.467-5.198 12.696-5.198 21.705 0 9.142 1.731 16.37 5.198 21.682 3.466 5.323 8.03 7.963 13.652 7.963 5.797 0 10.392-2.572 13.786-7.74 3.393-5.168 5.108-12.353 5.108-21.526 0-9.564-1.652-17.01-4.952-22.329-3.299-5.312-7.815-7.963-13.54-7.963" fill="#ffffff"/>
</svg>
