<svg height="512" viewBox="0 0 512 512" width="512" xmlns="http://www.w3.org/2000/svg">
 <path d="m471.95 253.05c0 120.9-98.01 218.9-218.9 218.9-120.9 0-218.9-98.01-218.9-218.9 0-120.9 98.01-218.9 218.9-218.9 120.9 0 218.9 98.01 218.9 218.9" fill="#9f9f9f" fill-rule="evenodd"/>
 <path d="m256 1c-140.83 0-255 114.17-255 255 0 140.83 114.17 255 255 255 140.83 0 255-114.17 255-255 0-140.83-114.17-255-255-255m8.827 44.931c120.9 0 218.9 98 218.9 218.9 0 120.9-98 218.9-218.9 218.9-120.9 0-218.93-98-218.93-218.9 0-120.9 98.03-218.9 218.93-218.9" fill-opacity=".067" fill-rule="evenodd"/>
 <g fill-opacity=".129" fill-rule="evenodd">
  <path d="m256 4.433c-138.94 0-251.57 112.63-251.57 251.57 0 138.94 112.63 251.57 251.57 251.57 138.94 0 251.57-112.63 251.57-251.57 0-138.94-112.63-251.57-251.57-251.57m5.885 38.556c120.9 0 218.9 98 218.9 218.9 0 120.9-98 218.9-218.9 218.9-120.9 0-218.93-98-218.93-218.9 0-120.9 98.03-218.9 218.93-218.9"/>
  <path d="m256 8.356c-136.77 0-247.64 110.87-247.64 247.64 0 136.77 110.87 247.64 247.64 247.64 136.77 0 247.64-110.87 247.64-247.64 0-136.77-110.87-247.64-247.64-247.64m2.942 31.691c120.9 0 218.9 98 218.9 218.9 0 120.9-98 218.9-218.9 218.9-120.9 0-218.93-98-218.93-218.9 0-120.9 98.03-218.9 218.93-218.9"/>
 </g>
 <path d="m249.23191 148.53176c-19.221 0-35.803 11.133-43.38 27.18l-3.992-3.992c-3.516-1.723-7.477-2.719-11.688-2.719-14.415 0-26.06 11.453-26.06 25.563 0 3.602.786 7.02 2.156 10.125l3.896 3.896c-12.12 6.952-21.07 18.593-24.26 32.396l-4.387-4.387c-25.989.425-46.969002 21.2-46.969002 46.781 0 12.73 5.214 24.296 13.664002 32.746l152.81 152.81c.371.002.74.014 1.111.014 95.2 0 176.18-60.772 206.32-145.63l-40.643-40.643c-2.711-2.711-6.01-4.854-9.68-6.248l-31.02-31.02c-4.427-4.427-9.686-8.05-15.518-10.646l-35.816-35.816c-7.736-7.736-18.2-12.838-29.871-13.842l-22.521-22.521c-8.67-8.67-20.761-14.05-34.15-14.05" opacity=".25"/>
 <path d="m253.04 7.859c-135.42 0-245.19 109.78-245.19 245.19 0 135.42 109.78 245.19 245.19 245.19 135.42 0 245.19-109.78 245.19-245.19 0-135.42-109.78-245.19-245.19-245.19zm0 26.297c120.9 0 218.9 98 218.9 218.9 0 120.9-98 218.9-218.9 218.9-120.9 0-218.93-98-218.93-218.9 0-120.9 98.03-218.9 218.93-218.9z" fill="#ffffff" fill-rule="evenodd" stroke="#000000" stroke-opacity=".31" stroke-width="4.904"/>
 <path d="m250.28179 148.26947c-26.363 0-47.781 20.932-47.781 46.781 0 .411.02.81.031 1.219 8.997.8 17.409 3.639 24.719 8.06l2.219 1.344c10.703-6.289 23.2-9.906 36.531-9.906 11.25 0 21.894 2.584 31.375 7.156.443-2.562.688-5.189.688-7.875 0-25.851-21.365-46.781-47.781-46.781m-59.06 20.469c-14.415 0-26.06 11.453-26.06 25.563 0 3.602.786 7.02 2.156 10.125 8.687-5.292 18.905-8.371 29.844-8.406-.01-.285-.031-.554-.031-.969 0-8.493 2.099-16.51 5.781-23.594-3.516-1.723-7.477-2.719-11.688-2.719m111.16 15.906c.698 3.366 1.063 6.839 1.063 10.406 0 3.01-.289 5.938-.781 8.781l-.313 1.781c10.166 5.934 18.728 14.265 24.813 24.22l.469-.219c6.83-3.051 14.391-4.825 22.344-5-3.38-22.605-23.21-39.969-47.25-39.969-.115 0-.229-.001-.344 0m-36.37 16.5c-36.36 0-65.875 28.835-65.875 64.47 0 35.635 29.521 64.53 65.875 64.53 36.407 0 65.906-28.898 65.906-64.53 0-35.633-29.501-64.47-65.906-64.47m-68.66.25c-28.583 0-51.688 22.601-51.688 50.563 0 15.597 7.207 29.58 18.563 38.875 5.1-11.309 16.653-19.219 29.938-19.219.257 0 .586-.002.875 0-.172-1.975-.281-3.982-.281-6 0-23.364 11.756-44.01 29.719-56.688-7.884-4.771-17.17-7.531-27.12-7.531m153.91 28.563c-7.658 0-14.904 1.644-21.438 4.563 4.77 9.364 7.469 19.916 7.469 31.09 0 20.04-8.647 38.1-22.438 50.844 9.341 9.07 22.19 14.688 36.406 14.688 28.532 0 51.656-22.653 51.656-50.563 0-28.01-23.12-50.625-51.656-50.625m-208.69 6.375c-25.989.425-46.969002 21.2-46.969002 46.781 0 25.799 21.416002 46.813 47.781002 46.813 9.05 0 17.53-2.466 24.75-6.75-4.19-5.386-6.688-12.11-6.688-19.406 0-2.627.327-5.181.938-7.625-13.417-10.256-22.09-26.25-22.09-44.19 0-5.424.811-10.668 2.281-15.625m266.78 38.03c-.471 0-.941.008-1.406.031.229 2.036.344 4.091.344 6.188 0 15.795-6.711 30.08-17.469 40.25 4.876 4.398 11.379 7.06 18.531 7.06 15.09 0 27.344-11.94 27.344-26.719 0-14.779-12.256-26.813-27.344-26.813m-215.19 2.625c-15.09 0-27.344 12-27.344 26.781 0 14.779 12.256 26.719 27.344 26.719 10.129 0 18.963-5.395 23.688-13.406-11.471-10.34-19.481-24.318-22.12-40.06-.516-.029-1.039-.031-1.563-.031" fill="#ffffff"/>
</svg>
