<svg height="512" viewBox="0 0 512 512" width="512" xmlns="http://www.w3.org/2000/svg">
 <path d="m471.95 253.05c0 120.9-98.01 218.9-218.9 218.9-120.9 0-218.9-98.01-218.9-218.9 0-120.9 98.01-218.9 218.9-218.9 120.9 0 218.9 98.01 218.9 218.9" fill="#9f9f9f" fill-rule="evenodd"/>
 <path d="m167.97 171.66c-30.911.601-61.41 20.623-68.03 52.03-8.558 35.22-4.86 78.38 24.594 103.06 48.23 48.17 96.39 96.4 144.59 144.59 113.38-8.239 202.81-102.8 202.81-218.28 0-6.378-.278-12.698-.813-18.938-.593-.612-1.374-1.137-2.594-1.406-.76-3.362-5.714-4.445-6.156-8-3.874-1.153-3.811-4.505-7.594-5.719-.71-3.403-5.718-4.435-6.125-8-4.257-1.458-4.816-4.945-8.219-6.875-2.249-2.413-3.972-5.088-7.375-6.875-1.169-2.891-3.88-4.969-6.875-6.844-.765-3.442-5.695-4.423-6.156-8.03-3.633-1.435-5.135-4.107-7.125-6.438-1.821-3.14-13.541-.888-19.875-1.563-7.573 1.42-19.15-4.175-21.813 5.844l-22.563 38.22c-11.12-11.309-22.495-22.19-33.5-33.75-5.579-3.641-8.268-12.381-17.09-10.313h-31.5l50.813 79.22c-4.277 3.103-7.26 18.836-12.469 12.938-27.608-26.941-53.973-55.25-82.41-81.28-13.907-10.07-31.465-13.472-48.34-13.438-2.057-.135-4.127-.196-6.188-.156" fill-opacity=".235"/>
 <g fill-rule="evenodd">
  <path d="m256 1c-140.83 0-255 114.17-255 255s114.17 255 255 255 255-114.17 255-255-114.17-255-255-255m8.827 44.931c120.9 0 218.9 98 218.9 218.9s-98 218.9-218.9 218.9-218.93-98-218.93-218.9 98.03-218.9 218.93-218.9" fill-opacity=".067"/>
  <g fill-opacity=".129">
   <path d="m256 4.433c-138.94 0-251.57 112.63-251.57 251.57s112.63 251.57 251.57 251.57 251.57-112.63 251.57-251.57-112.63-251.57-251.57-251.57m5.885 38.556c120.9 0 218.9 98 218.9 218.9s-98 218.9-218.9 218.9-218.93-98-218.93-218.9 98.03-218.9 218.93-218.9"/>
   <path d="m256 8.356c-136.77 0-247.64 110.87-247.64 247.64s110.87 247.64 247.64 247.64 247.64-110.87 247.64-247.64-110.87-247.64-247.64-247.64m2.942 31.691c120.9 0 218.9 98 218.9 218.9s-98 218.9-218.9 218.9-218.93-98-218.93-218.9 98.03-218.9 218.93-218.9"/>
  </g>
  <path d="m253.04 7.859c-135.42 0-245.19 109.78-245.19 245.19 0 135.42 109.78 245.19 245.19 245.19 135.42 0 245.19-109.78 245.19-245.19 0-135.42-109.78-245.19-245.19-245.19zm0 26.297c120.9 0 218.9 98 218.9 218.9s-98 218.9-218.9 218.9-218.93-98-218.93-218.9 98.03-218.9 218.93-218.9z" fill="#ffffff" stroke="#000000" stroke-opacity=".31" stroke-width="4.904"/>
 </g>
 <path d="m174.16 171.81c-25.14 0-44.44 7.199-57.938 21.594-13.426 14.321-20.16 35.09-20.16 62.31s6.73 48.11 20.16 62.66c13.426 14.545 32.657 21.813 57.719 21.813 25.06 0 44.29-7.268 57.719-21.813 13.426-14.545 20.16-35.36 20.16-62.44 0-27.15-6.68-47.967-20.03-62.44-13.277-14.47-32.489-21.687-57.62-21.688m92.41 2.563l50.813 79.22-54.28 84.34h37.16l38.03-61.844 38.03 61.844h39.625l-55.28-82.44 51.38-81.12h-37.37l-34.563 58.844-35.25-58.844h-38.28m-92.41 26.313c27.523 0 41.28 18.404 41.28 55.25 0 36.772-13.828 55.16-41.5 55.16-13.799 0-24.16-4.626-31.09-13.875-6.937-9.249-10.406-23.01-10.406-41.28 0-18.274 3.489-32.03 10.5-41.28 7.01-9.323 17.42-13.969 31.22-13.969" fill="#ffffff"/>
</svg>
