<svg height="512" viewBox="0 0 512 512" width="512" xmlns="http://www.w3.org/2000/svg">
 <path d="m471.95 253.05c0 120.9-98.01 218.9-218.9 218.9-120.9 0-218.9-98.01-218.9-218.9 0-120.9 98.01-218.9 218.9-218.9 120.9 0 218.9 98.01 218.9 218.9" fill="#a4a4a4" fill-rule="evenodd"/>
 <path d="m346.89184 155.52177l-56.07601-30.47851 81.09263 76.95065 1.62507 42.16141-54.88994-47.68692 7.26539 26.28047-104.90131-97.69954c-38.59099 15.38058-50.26895 48.26896-74.36393 72.34716l-9.69012 23.12497-7.42926 21.77962 3.86899 34.53873 39.44841 85.95887 131.7816 103.08913c75.77152-25.17201 146.06459-41.22958 168.82289-192.81774" opacity=".25"/>
 <path d="m256 1c-140.83 0-255 114.17-255 255 0 140.83 114.17 255 255 255 140.83 0 255-114.17 255-255 0-140.83-114.17-255-255-255m8.827 44.931c120.9 0 218.9 98 218.9 218.9 0 120.9-98 218.9-218.9 218.9-120.9 0-218.93-98-218.93-218.9 0-120.9 98.03-218.9 218.93-218.9" fill-opacity=".067" fill-rule="evenodd"/>
 <g fill-opacity=".129" fill-rule="evenodd">
  <path d="m256 4.433c-138.94 0-251.57 112.63-251.57 251.57 0 138.94 112.63 251.57 251.57 251.57 138.94 0 251.57-112.63 251.57-251.57 0-138.94-112.63-251.57-251.57-251.57m5.885 38.556c120.9 0 218.9 98 218.9 218.9 0 120.9-98 218.9-218.9 218.9-120.9 0-218.93-98-218.93-218.9 0-120.9 98.03-218.9 218.93-218.9"/>
  <path d="m256 8.356c-136.77 0-247.64 110.87-247.64 247.64 0 136.77 110.87 247.64 247.64 247.64 136.77 0 247.64-110.87 247.64-247.64 0-136.77-110.87-247.64-247.64-247.64m2.942 31.691c120.9 0 218.9 98 218.9 218.9 0 120.9-98 218.9-218.9 218.9-120.9 0-218.93-98-218.93-218.9 0-120.9 98.03-218.9 218.93-218.9"/>
 </g>
 <g fill="#ffffff" transform="matrix(1.1100414 0 0 1.1100414 -506.59939 -818.03167)">
  <circle cx="-1" cy="863.612" r="23" transform="matrix(1.676363 0 0 1.676363 688.6772 -480.168)"/>
  <path d="m666.92273 892.01313c-33.41788 8.8724-58.06252 39.3337-58.0625 75.53129 0 36.19748 24.64463 66.69008 58.0625 75.56248-24.10776-10.8192-41.4375-40.5874-41.4375-75.56248-.00001-34.97499 17.32973-64.71209 41.4375-75.53129zm40.15625 0c24.10777 10.8192 41.4375 40.5562 41.4375 75.53129 0 34.97508-17.32974 64.74328-41.4375 75.56248 33.41788-8.8724 58.06252-39.365 58.0625-75.56248 0-36.19749-24.64461-66.65889-58.0625-75.53129z"/>
  <path d="m655.64705 849.58672c-52.18504 13.85506-90.66987 61.42313-90.66984 117.9489 0 56.52568 38.48482 104.14268 90.66984 117.99768-37.64645-16.8952-64.7084-63.3809-64.7084-117.99768-.00002-54.61657 27.06194-101.05374 64.7084-117.9489zm62.70761 0c37.64646 16.89516 64.7084 63.33217 64.7084 117.9489 0 54.61678-27.06195 101.10248-64.7084 117.99768 52.18504-13.855 90.66987-61.472 90.66984-117.99768 0-56.52561-38.48478-104.09384-90.66984-117.9489z"/>
 </g>
 <path d="m253.04 7.859c-135.42 0-245.19 109.78-245.19 245.19 0 135.42 109.78 245.19 245.19 245.19 135.42 0 245.19-109.78 245.19-245.19 0-135.42-109.78-245.19-245.19-245.19zm0 26.297c120.9 0 218.9 98 218.9 218.9 0 120.9-98 218.9-218.9 218.9-120.9 0-218.93-98-218.93-218.9 0-120.9 98.03-218.9 218.93-218.9z" fill="#ffffff" fill-rule="evenodd" stroke="#000000" stroke-opacity=".31" stroke-width="4.904"/>
</svg>
