<svg height="512" viewBox="0 0 512 512" width="512" xmlns="http://www.w3.org/2000/svg">
 <path d="m471.95 253.05c0 120.9-98.01 218.9-218.9 218.9-120.9 0-218.9-98.01-218.9-218.9 0-120.9 98.01-218.9 218.9-218.9 120.9 0 218.9 98.01 218.9 218.9" fill="#b0b0b0" fill-rule="evenodd"/>
 <path d="m256 1c-140.83 0-255 114.17-255 255 0 140.83 114.17 255 255 255 140.83 0 255-114.17 255-255 0-140.83-114.17-255-255-255m8.827 44.931c120.9 0 218.9 98 218.9 218.9 0 120.9-98 218.9-218.9 218.9-120.9 0-218.93-98-218.93-218.9 0-120.9 98.03-218.9 218.93-218.9" fill-opacity=".067" fill-rule="evenodd"/>
 <g fill-opacity=".129" fill-rule="evenodd">
  <path d="m256 4.433c-138.94 0-251.57 112.63-251.57 251.57 0 138.94 112.63 251.57 251.57 251.57 138.94 0 251.57-112.63 251.57-251.57 0-138.94-112.63-251.57-251.57-251.57m5.885 38.556c120.9 0 218.9 98 218.9 218.9 0 120.9-98 218.9-218.9 218.9-120.9 0-218.93-98-218.93-218.9 0-120.9 98.03-218.9 218.93-218.9"/>
  <path d="m256 8.356c-136.77 0-247.64 110.87-247.64 247.64 0 136.77 110.87 247.64 247.64 247.64 136.77 0 247.64-110.87 247.64-247.64 0-136.77-110.87-247.64-247.64-247.64m2.942 31.691c120.9 0 218.9 98 218.9 218.9 0 120.9-98 218.9-218.9 218.9-120.9 0-218.93-98-218.93-218.9 0-120.9 98.03-218.9 218.93-218.9"/>
 </g>
 <path d="m181.55444 115.88114c-7.529 0-15.07 5.902-16.766 13.14l-49.29 211.07c-.962 4.053.091 7.682 2.51 10.1l120.14 120.14c5.262.379 10.575.58 15.934.58 115.5 0 210.1-89.46 218.32-202.86l-89.23-89.23c-2.978-2.978-6.355-5.639-10.127-7.957-.908-.551-1.617-.727-2.535-1.246.862 1.626 1.637 3.328 2.33 5.104l-36.66-36.66c-2.973-2.973-6.346-5.626-10.121-7.943-8.599-5.251-18.698-8.883-30.375-11.04-11.728-2.121-25.43-3.197-41.21-3.197h-72.916" opacity=".25"/>
 <path d="m253.04 7.859c-135.42 0-245.19 109.78-245.19 245.19 0 135.42 109.78 245.19 245.19 245.19 135.42 0 245.19-109.78 245.19-245.19 0-135.42-109.78-245.19-245.19-245.19zm0 26.297c120.9 0 218.9 98 218.9 218.9 0 120.9-98 218.9-218.9 218.9-120.9 0-218.93-98-218.93-218.9 0-120.9 98.03-218.9 218.93-218.9z" fill="#ffffff" fill-rule="evenodd" stroke="#000000" stroke-opacity=".31" stroke-width="4.904"/>
 <path d="m181.55444 115.88114c-7.529 0-15.07 5.902-16.767 13.14l-49.29 211.07c-1.726 7.27 3.03 13.179 10.528 13.179h35.05c7.529 0 15.02-5.902 16.689-13.14l12.01-51.2c1.695-7.207 9.199-13.1 16.728-13.1h9.982c42.712 0 75.974-8.615 99.74-25.93 23.799-17.311 35.717-40.09 35.717-68.35 0-12.423-2.227-22.812-6.668-31.19-4.431-8.279-10.836-15.09-19.223-20.237-8.599-5.251-18.698-8.883-30.375-11.03-11.728-2.121-25.43-3.197-41.21-3.197h-72.916m55.49 41.527h11.464c13.363 0 23.515 2.24 30.3 6.707 6.812 4.435 10.177 11.293 10.177 20.549 0 14.02-5.255 24.845-15.792 32.442-10.527 7.565-25.16 11.425-44.06 11.425h-8.695c-7.529 0-12.31-5.973-10.645-13.179l10.528-44.841c1.706-7.203 9.229-13.1 16.728-13.1m133.47 12.205c4.441 8.377 6.629 18.733 6.629 31.15 0 28.27-11.91 51.04-35.678 68.35-23.799 17.312-57.03 25.969-99.74 25.969h-10.02c-7.499 0-14.993 5.899-16.689 13.1l-12.01 51.16c-1.665 7.207-9.19 13.179-16.689 13.179h-21.914l-1.95 8.344c-1.696 7.239 3.077 13.14 10.606 13.14h35.02c7.529 0 15.06-5.933 16.728-13.14l12.01-51.16c1.696-7.203 9.198-13.14 16.728-13.14h10.02c42.682 0 75.935-8.619 99.7-25.93 23.799-17.312 35.678-40.12 35.678-68.35 0-12.423-2.198-22.773-6.629-31.15-4.441-8.279-10.875-15.12-19.262-20.276-.908-.551-1.616-.728-2.534-1.248" fill="#ffffff"/>
</svg>
