<svg height="512" viewBox="0 0 512 512" width="512" xmlns="http://www.w3.org/2000/svg">
 <path d="m471.95 253.05c0 120.9-98.01 218.9-218.9 218.9-120.9 0-218.9-98.01-218.9-218.9 0-120.9 98.01-218.9 218.9-218.9 120.9 0 218.9 98.01 218.9 218.9" fill="#8f8f8f" fill-rule="evenodd"/>
 <path d="m256 1c-140.83 0-255 114.17-255 255 0 140.83 114.17 255 255 255 140.83 0 255-114.17 255-255 0-140.83-114.17-255-255-255m8.827 44.931c120.9 0 218.9 98 218.9 218.9 0 120.9-98 218.9-218.9 218.9-120.9 0-218.93-98-218.93-218.9 0-120.9 98.03-218.9 218.93-218.9" fill-opacity=".067" fill-rule="evenodd"/>
 <g fill-opacity=".129" fill-rule="evenodd">
  <path d="m256 4.433c-138.94 0-251.57 112.63-251.57 251.57 0 138.94 112.63 251.57 251.57 251.57 138.94 0 251.57-112.63 251.57-251.57 0-138.94-112.63-251.57-251.57-251.57m5.885 38.556c120.9 0 218.9 98 218.9 218.9 0 120.9-98 218.9-218.9 218.9-120.9 0-218.93-98-218.93-218.9 0-120.9 98.03-218.9 218.93-218.9"/>
  <path d="m256 8.356c-136.77 0-247.64 110.87-247.64 247.64 0 136.77 110.87 247.64 247.64 247.64 136.77 0 247.64-110.87 247.64-247.64 0-136.77-110.87-247.64-247.64-247.64m2.942 31.691c120.9 0 218.9 98 218.9 218.9 0 120.9-98 218.9-218.9 218.9-120.9 0-218.93-98-218.93-218.9 0-120.9 98.03-218.9 218.93-218.9"/>
 </g>
 <path d="m330.30836 111.70481c-11.198.1-21.02 1.705-27.752 3.223-.849.192-1.489.381-2.236.568l11.867 11.867c-12.395-6.969-27.615-11.738-46.14-12.02-1.129-.018-2.246-.024-3.336 0-16.356.358-28.394 5.332-37.533 12.662-.379.304-.744.621-1.113.934l-4.193-4.193c-8.754-2.926-29.06-8.852-49.85401-8.834-1.835.001-3.666.051-5.498.152-14.657.81-28.757 4.965-38.859 15.277-10.1 10.313-16.548 27.05-15.13 54.21.286 5.357 2.6 19.545 6.559 36.545 3.958 17 9.541 37.03 16.303 54.744 6.535 17.12 14.31 32.12 22.19 39.998l149.04001 149.05c97.12-22.39 169.53-109.4 169.53-213.31 0-14.14-1.357-27.971-3.92-41.37l-75.53-75.53c-19.407-19.407-44.06-24.15-64.4-23.973" opacity=".25"/>
 <path d="m330.30836 111.70481c-11.198.1-21.02 1.705-27.751 3.222-.849.192-1.489.381-2.237.569 19.983 7.198 34.679 19.796 44.849 32.34 7.636 9.417 12.762 18.797 15.847 25.931 1.542 3.567 2.57 6.576 3.147 8.833.288 1.129.473 2.031.531 2.919.029.444.073.869-.076 1.516-.016.069-.053.152-.076.227.406 11.974-2.787 20.04-3.222 31.884-.256 8.562 1.965 18.34 2.502 28.813.52 10.136-.674 21.06-7.696 31.808.049.06.103.13.152.19 1.349 1.64 2.633 3.09 3.715 4.587 18.683-27.822 32.05-58.859 39.12-85.22 3.703-13.811 5.683-26.34 5.838-36.36.155-10.02-1.665-17.432-4.549-20.965-20.09-24.719-47.702-30.491-70.1-30.29m-67.6 3.639c-16.356.358-28.393 5.333-37.532 12.662-9.749 7.818-16.201 18.436-20.434 29.23-5.608 14.297-7.255 28.607-7.734 36.736 1-.634 2.09-1.285 3.298-1.933 4.945-2.653 11.47-5.36 18.387-6.9 3.458-.77 7.04-1.251 10.539-1.251 3.5 0 6.941.509 10.16 1.706 6.439 2.394 11.724 7.897 13.724 16.795 9.931 44.24-2.907 59.907-7.886 72.828-2.6 6.748-4.848 12.556-5.535 17.288 1.589-.952 3.162-1.501 4.663-1.63 2.875-.247 5.206.716 6.786 1.327a2.9612 2.9612 0 0 1 .0379 0c4.175 1.687 7.295 5.406 8.947 9.705.947 2.464 1.394 5.234 1.024 7.923-.179 7.096-.262 14.12-.265 20.965 1.106 6.578 1.703 14.562 1.479 22.22-.179 6.086-.363 11.438-.303 16.188.23 2.96.508 5.696.796 8.113.616 5.176 1.442 9.103 2.123 10.767 1.817 4.399 4.532 10.386 9.743 14.596 5.211 4.21 12.903 6.944 25.931 4.322 11.08-2.289 18.216-5.582 23.05-10.426 4.834-4.843 7.636-11.455 9.364-21.15 2.563-14.359 7.636-54.947 8.378-63.729-.001-.012.001-.025 0-.038-.363-5.98.521-10.375 2.351-13.61 1.834-3.243 4.581-5.15 7.05-6.217 2.298-.993 4.275-1.387 5.459-1.744-.714-1.413-2.235-3.425-4.625-6.331-2.854-3.469-6.375-8.08-9.175-14.596-.4-.935-1.861-3.514-3.753-6.786-1.892-3.272-4.264-7.385-6.748-11.98-4.968-9.19-10.35-20.321-13.12-31.01-2.767-10.691-3.04-21.409 3.602-28.737 6.19-6.83 17.722-9.468 35.713-7.279-.501-1.816-1.298-4.193-2.616-7.241-2.882-6.666-7.809-15.597-15.05-24.529-14.485-17.863-38.13-35.691-74.5-36.24-1.129-.018-2.246-.024-3.336 0m-92.69001.569c-1.835.001-3.665.05-5.497.152-14.657.81-28.757 4.966-38.859 15.278-10.1 10.313-16.548 27.05-15.13 54.21.286 5.357 2.6 19.547 6.559 36.547 3.958 17 9.54 37.03 16.302 54.744 6.762 17.717 14.851 33.15 23.01 40.793 4.081 3.819 7.949 5.618 11.715 5.459 3.766-.158 7.948-2.264 12.662-7.734 12.13001-14.1 22.88301-25.278 26.53801-29.04-12.273-9.356-19.73901-25.26-17.21201-42.688a2.9612 2.9612 0 0 1 0-.0378c1.50101-10.28 1.68701-19.807 1.51601-27.334-.158-6.957-.61-11.869-.682-14.748a2.9612 2.9612 0 0 1 -.0378-.60659v-.152a2.9612 2.9612 0 0 1 0-.11368c-.031-1.413-.362-23.382 8.341-45.57 4.269-10.884 10.748-21.839 20.624-30.33-8.754-2.926-29.06-8.851-49.85401-8.833m176.10001 72.45c-10.02.142-15.981 2.68-19.221 6.255-4.609 5.085-4.821 13.441-2.275 23.278 2.546 9.836 7.722 20.686 12.587 29.685 2.432 4.499 4.814 8.551 6.71 11.828 1.896 3.278 3.264 5.629 4.02 7.393 1.314 3.055 2.81 5.618 4.322 7.848 5.203-8.856 6.103-17.522 5.649-26.386-.502-9.792-2.792-19.64-2.502-29.31.443-12.04 3.18-19.775 3.185-29.723-3.838-.511-7.333-.818-10.426-.872-.705-.012-1.379-.01-2.047 0m-116.92 1.479c-2.952-.001-6.09.404-9.212 1.099-6.245 1.39-12.378 3.921-16.871 6.331-2.246 1.205-4.104 2.387-5.27 3.298-.494.386-.78.694-.986.91.047 2.039.515 7.285.682 14.672.176 7.75-.027 17.6-1.592 28.32-3.598 24.803 15.791 45.499 38.4 44.508 1.089-5.04 3.177-10.257 5.346-15.885 5.605-14.546 17.299-26.429 7.658-69.38-1.654-7.355-5.252-10.804-10.05-12.587-2.397-.891-5.161-1.288-8.113-1.289m113.24 3.639c.976.027 1.879.153 2.692.341.813.189 1.527.442 2.161.872.598.406 1.122 1.066 1.289 1.896h.076c.006.028-.006.048 0 .076.001.012-.001.026 0 .038.001.002-.038-.002-.038 0 .164.924-.078 1.697-.455 2.426-.395.764-.952 1.514-1.668 2.237-1.433 1.445-3.491 2.741-5.952 3.071h-.038c-2.456.253-4.622-.535-6.217-1.592-.798-.529-1.456-1.147-1.971-1.744-.516-.597-.915-1.136-1.099-1.896v-.114c-.151-.905.225-1.762.72-2.351.495-.589 1.126-1.01 1.858-1.403 1.463-.787 3.372-1.375 5.535-1.668 1.083-.147 2.133-.217 3.109-.19m-112.71 1.63c1.06-.023 2.178.033 3.336.19 2.307.312 4.344.914 6.03 1.82.842.453 1.64.944 2.313 1.744.673.8 1.261 2.102 1.024 3.526v.114c-.246 1.229-.781 1.916-1.403 2.654-.622.738-1.39 1.437-2.313 2.047-1.846 1.221-4.394 2.172-7.279 1.782-2.881-.386-5.139-1.889-6.748-3.526-.805-.818-1.458-1.685-1.933-2.616-.448-.877-.85-1.836-.607-3.26h-.038c.006-.043.031-.071.038-.114.008-.044-.01-.068 0-.114h.038c.267-1.29 1.094-2.262 1.896-2.805.854-.579 1.72-.883 2.654-1.099.934-.217 1.935-.318 2.995-.341m130 100.05c-.373.168-.747.298-1.099.417-1.858.627-3.724.973-5.421 1.706-1.698.733-3.132 1.708-4.246 3.677-1.043 1.844-1.835 4.748-1.668 9.402a2.9612 2.9612 0 0 1 .11368 1.1374c.03.103.102.231.417.493.476.396 1.464.91 2.843 1.327 2.758.834 6.971 1.286 11.639 1.251 9.335-.071 20.621-2.046 26.955-4.891 8.227-3.681 14.834-8.917 16.719-11.677.094-.138.046-.108.114-.227-.851-.077-2.262-.114-4.625.341-.017.004-.021-.004-.038 0-19.549 3.897-30.355 2.76-36.66.227-2.315-.93-3.839-2.059-5.04-3.185m-114.87 1.63c-1.283.11-2.873.643-5.194 3.147a2.9612 2.9612 0 0 1 -.49285.45494c-4.682 5.165-6.557 8.439-10.16 11.184-3.727 2.839-8.659 4.42-19.18 6.521-5.04.996-7.889 2.284-8.833 3.03-.373.296-.314.29-.303.265.241.397 1.457 1.54 3.147 2.426 1.712.898 3.817 1.636 5.573 2.047a2.9612 2.9612 0 0 1 .0379 0c4.704 1.13 12.39 2.483 20.586 1.137 8.196-1.346 16.853-5.246 24.04-14.975.594-.802.982-1.721 1.175-2.692.022-.85.014-1.689.038-2.54a2.9612 2.9612 0 0 1 0-.22746c-.113-.84-.315-1.681-.644-2.54-1.116-2.903-3.489-5.447-5.649-6.331-.014-.005-.024.005-.038 0-1.551-.599-2.823-1.019-4.094-.91" fill="#ffffff"/>
 <path d="m253.04 7.859c-135.42 0-245.19 109.78-245.19 245.19 0 135.42 109.78 245.19 245.19 245.19 135.42 0 245.19-109.78 245.19-245.19 0-135.42-109.78-245.19-245.19-245.19zm0 26.297c120.9 0 218.9 98 218.9 218.9 0 120.9-98 218.9-218.9 218.9-120.9 0-218.93-98-218.93-218.9 0-120.9 98.03-218.9 218.93-218.9z" fill="#ffffff" fill-rule="evenodd" stroke="#000000" stroke-opacity=".31" stroke-width="4.904"/>
</svg>
