<svg height="512" viewBox="0 0 512 512" width="512" xmlns="http://www.w3.org/2000/svg">
 <path d="m471.95 253.05c0 120.9-98.01 218.9-218.9 218.9-120.9 0-218.9-98.01-218.9-218.9 0-120.9 98.01-218.9 218.9-218.9 120.9 0 218.9 98.01 218.9 218.9" fill="#777777" fill-rule="evenodd"/>
 <path d="m256.09 123.03c-7.702 0-15.344.711-22.688 1.969v28.25c-12.1 2.689-23.326 7.571-33.469 14.03l-.25-.25-.969-.969-1-1-1-1-1-1-1-1-1-1-.969-.969-1-1-1-1-1-1-1-1-1-1-.969-.969-1-1-1-1-1-1-1-1-1-1-1-1-.969-.969c-12.585 8.829-23.543 19.815-32.406 32.375l4.969 4.938c-.005.007.005.024 0 .031l6.969 6.938c-.005.007.005.024 0 .031l8.219 8.219c-6.46 10.143-11.343 21.366-14.03 33.469h-28.43c-1.294 7.445-1.969 15.03-1.969 22.844 0 7.815.675 15.586 1.969 23.03h.844c.055.332.099.669.156 1h .844c.055.332.099.67.156 1h .844c.055.332.099.67.156 1h .844c.054.325.1.645.156.969h.844c.055.332.099.67.156 1h .813c.055.332.099.669.156 1h .844c.055.332.099.669.156 1h .844c.055.332.099.67.156 1h .844c.055.332.099.67.156 1h .844c.054.325.1.645.156.969h.844c.055.332.099.67.156 1h .813c.055.332.099.669.156 1h .844c.055.332.099.669.156 1h .844c.055.332.099.67.156 1h .844c.055.332.099.67.156 1h .844c.054.325.1.645.156.969h.844c.055.332.099.67.156 1h .813c.055.332.099.669.156 1h .844c.055.332.099.669.156 1h .844c.055.332.099.669.156 1h .844c.055.332.099.67.156 1h .844c.054.325.1.645.156.969h.844c.056.335.098.666.156 1h .813c.055.332.099.669.156 1h .844c.055.332.099.669.156 1h .844c.055.332.099.669.156 1h .844c.055.332.099.67.156 1h .844c.055.332.099.67.156 1h .844c.054.325.1.645.156.969h.844c.055.332.099.67.156 1h .813c.055.332.099.669.156 1h .844c.055.332.099.669.156 1h .844c.055.332.099.67.156 1h .844c.055.332.099.67.156 1h .844c.054.325.1.645.156.969h.844c.055.332.099.67.156 1h .813c.055.332.099.669.156 1h .844c.055.332.099.669.156 1h .313l-15.813 15.813c4.439 6.29 9.451 12.13 14.906 17.5.02.021.042.042.063.063.391.393.76.799 1.156 1.188.332.332.665.671 1 1 .473.474.957.94 1.438 1.406.091.095.19.187.281.281l.031.031c.332.334.664.669 1 1 .145.146.291.292.438.438.168.175.331.357.5.531.016.016.047.016.063.031.33.332.636.672.969 1 .441.444.896.875 1.344 1.313.222.222.432.467.656.688.175.169.355.332.531.5.143.148.294.29.438.438l.031.031c.016.015.046.016.063.031.28.282.561.564.844.844.026.026.037.067.063.094l.031.031c.332.334.664.669 1 1 .01.011.021.021.031.031.402.404.781.82 1.188 1.219.361.361.729.705 1.094 1.063.222.222.432.467.656.688.175.169.355.332.531.5.143.148.294.29.438.438l.031.031c.016.015.046.016.063.031.28.282.561.564.844.844.026.026.037.067.063.094l.031.031c.332.334.664.669 1 1 .01.011.021.021.031.031.402.404.781.82 1.188 1.219.334.335.662.669 1 1 .473.474.957.94 1.438 1.406.092.095.189.186.281.281l.031.031c.332.334.664.669 1 1 .332.334.664.669 1 1 .332.334.664.669 1 1 .02.021.042.042.063.063.391.393.76.799 1.156 1.188.332.332.665.671 1 1 .473.474.957.94 1.438 1.406.091.095.19.187.281.281l.031.031c.332.334.664.669 1 1 .332.334.664.669 1 1 .01.011.021.021.031.031.402.404.781.82 1.188 1.219.361.361.729.705 1.094 1.063.222.222.432.467.656.688.175.169.355.332.531.5.143.148.294.29.438.438l.031.031c.016.015.046.016.063.031.28.282.561.564.844.844.026.026.037.067.063.094l.031.031c.332.334.664.669 1 1 .01.011.021.021.031.031.402.404.781.82 1.188 1.219.361.361.729.705 1.094 1.063.205.214.418.412.625.625.016.016.016.047.031.063.175.169.355.332.531.5.143.148.294.29.438.438l.031.031c.016.015.046.016.063.031.28.282.561.564.844.844.026.026.037.067.063.094l.031.031c.332.334.664.669 1 1 .332.334.664.669 1 1 .02.021.042.042.063.063.391.393.76.799 1.156 1.188.332.332.665.671 1 1 .473.474.957.94 1.438 1.406.091.095.19.187.281.281l.031.031c.332.334.664.669 1 1 .145.146.291.292.438.438.168.175.331.357.5.531.016.016.047.016.063.031.33.332.636.672.969 1 .441.444.896.875 1.344 1.313.222.222.432.467.656.688.175.169.355.332.531.5.143.148.294.29.438.438l.031.031c.016.015.046.016.063.031.28.282.561.564.844.844.026.026.037.067.063.094l.031.031c.332.334.664.669 1 1 .01.011.021.021.031.031.402.404.781.82 1.188 1.219.361.361.729.705 1.094 1.063.222.222.432.467.656.688.175.169.355.332.531.5.143.148.294.29.438.438l.031.031c.016.015.046.016.063.031.28.282.561.564.844.844.026.026.037.067.063.094l.031.031c.332.334.664.669 1 1 .01.011.021.021.031.031.402.404.781.82 1.188 1.219.361.361.729.705 1.094 1.063.205.214.418.412.625.625.016.016.016.047.031.063.175.169.355.332.531.5.143.148.294.29.438.438l.031.031c.016.015.046.016.063.031.28.282.561.564.844.844.026.026.037.067.063.094l.031.031c.332.334.664.669 1 1 .332.334.664.669 1 1 .02.021.042.042.063.063.391.393.76.799 1.156 1.188.332.332.665.671 1 1 .473.474.957.94 1.438 1.406.091.095.19.187.281.281l.031.031c.332.334.664.669 1 1 .332.334.664.669 1 1 .01.011.021.021.031.031.402.404.781.82 1.188 1.219.361.361.729.705 1.094 1.063.222.222.432.467.656.688.175.169.355.332.531.5.143.148.294.29.438.438l.031.031c.016.015.046.016.063.031.28.282.561.564.844.844.026.026.037.067.063.094l.031.031c.332.334.664.669 1 1 .01.011.021.021.031.031.402.404.781.82 1.188 1.219.361.361.729.705 1.094 1.063.205.214.418.412.625.625.016.016.016.047.031.063.175.169.355.332.531.5.143.148.294.29.438.438l.031.031c.016.015.046.016.063.031.28.282.561.564.844.844.026.026.037.067.063.094l.031.031c.332.334.664.669 1 1 .332.334.664.669 1 1 .02.021.042.042.063.063.391.393.76.799 1.156 1.188.332.332.665.671 1 1 .473.474.957.94 1.438 1.406.091.095.19.187.281.281l.031.031c.332.334.664.669 1 1 .145.146.291.292.438.438.168.175.331.357.5.531.016.016.047.016.063.031.33.332.636.672.969 1 .441.444.896.875 1.344 1.313.222.222.432.467.656.688.175.169.355.332.531.5.143.148.294.29.438.438l.031.031c.016.015.046.016.063.031.28.282.561.564.844.844.026.026.037.067.063.094l.031.031c.332.334.664.669 1 1 .01.011.021.021.031.031.402.404.781.82 1.188 1.219.361.361.729.705 1.094 1.063.222.222.432.467.656.688.175.169.355.332.531.5.143.148.294.29.438.438l.031.031c.016.015.046.016.063.031.28.282.561.564.844.844.026.026.037.067.063.094l.031.031c.332.334.664.669 1 1 .01.011.021.021.031.031.402.404.781.82 1.188 1.219.361.361.729.705 1.094 1.063.205.214.418.412.625.625.016.016.016.047.031.063.175.169.355.332.531.5.143.148.294.29.438.438l.031.031c.016.015.046.016.063.031.28.282.561.564.844.844.026.026.037.067.063.094l.031.031c.332.334.664.669 1 1 .332.334.664.669 1 1 .02.021.042.042.063.063.391.393.76.799 1.156 1.188.332.332.665.671 1 1 .473.474.957.94 1.438 1.406.091.095.19.187.281.281l.031.031c.332.334.664.669 1 1 .332.334.664.669 1 1 .01.011.021.021.031.031.402.404.781.82 1.188 1.219.073.073.145.147.219.219 97.63-12.97 174.92-90.28 187.88-187.91-.043-.04-.083-.085-.125-.125-.062-.062-.125-.126-.188-.188-.059-.057-.097-.131-.156-.188-.305-.307-.629-.602-.938-.906-.01-.011-.021-.021-.031-.031-.009-.01-.022-.022-.031-.031-.011-.01-.021-.021-.031-.031-.01-.011-.021-.021-.031-.031-.211-.204-.412-.423-.625-.625l-.063-.063c-.09-.087-.16-.195-.25-.281-.331-.333-.665-.67-1-1-.274-.276-.567-.539-.844-.813-.058-.056-.098-.131-.156-.188l-.219-.219c-.577-.591-1.162-1.17-1.75-1.75-.305-.307-.629-.602-.938-.906-.01-.011-.021-.021-.031-.031-.01-.011-.021-.021-.031-.031-.005-.005.005-.026 0-.031-.316-.318-.65-.623-.969-.938-.009-.01-.022-.022-.031-.031-.005-.005.005-.026 0-.031-.331-.333-.665-.67-1-1-.331-.333-.665-.67-1-1-.329-.331-.637-.673-.969-1-.329-.331-.668-.642-1-.969l-.063-.063c-.016-.015-.046-.016-.063-.031-.28-.281-.562-.565-.844-.844-.01-.011-.021-.021-.031-.031-.005-.005.005-.026 0-.031-.316-.318-.65-.623-.969-.938-.009-.01-.022-.022-.031-.031-.005-.005.005-.026 0-.031-.331-.333-.665-.67-1-1-.331-.333-.665-.67-1-1-.334-.336-.663-.668-1-1-.326-.328-.64-.644-.969-.969l-.063-.063c-.195-.188-.397-.375-.594-.563-.062-.062-.125-.126-.188-.188-.059-.057-.097-.131-.156-.188-.305-.307-.629-.602-.938-.906-.01-.011-.021-.021-.031-.031-.009-.01-.022-.022-.031-.031-.011-.01-.021-.021-.031-.031-.01-.011-.021-.021-.031-.031-.211-.204-.412-.423-.625-.625l-.063-.063c-.09-.087-.16-.195-.25-.281-.331-.333-.665-.67-1-1-.274-.276-.567-.539-.844-.813-.058-.056-.098-.131-.156-.188l-.219-.219c-.577-.591-1.162-1.17-1.75-1.75-.305-.307-.629-.602-.938-.906-.01-.011-.021-.021-.031-.031-.01-.011-.021-.021-.031-.031-.005-.005.005-.026 0-.031-.316-.318-.65-.623-.969-.938-.009-.01-.022-.022-.031-.031-.005-.005.005-.026 0-.031-.331-.333-.665-.67-1-1-.331-.333-.665-.67-1-1-.329-.331-.637-.673-.969-1-.329-.331-.668-.642-1-.969l-.063-.063c-.021-.02-.041-.042-.063-.063-.264-.265-.546-.518-.813-.781-.01-.011-.021-.021-.031-.031-.01-.011-.021-.021-.031-.031-.005-.005.005-.026 0-.031-.316-.318-.65-.623-.969-.938-.009-.01-.022-.022-.031-.031-.005-.005.005-.026 0-.031-.331-.333-.665-.67-1-1-.331-.333-.665-.67-1-1-.334-.336-.663-.668-1-1-.326-.328-.64-.644-.969-.969l-.063-.063c-.269-.26-.541-.524-.813-.781-.031-.031-.062-.063-.094-.094-.01-.011-.021-.021-.031-.031-.005-.005.005-.026 0-.031-.316-.318-.65-.623-.969-.938-.009-.01-.022-.022-.031-.031-.005-.005.005-.026 0-.031-.331-.333-.665-.67-1-1-.331-.333-.665-.67-1-1-.334-.336-.663-.668-1-1-.326-.328-.64-.644-.969-.969l-.063-.063c-.195-.188-.397-.375-.594-.563-.062-.062-.125-.126-.188-.188-.059-.057-.097-.131-.156-.188-.305-.307-.629-.602-.938-.906-.01-.011-.021-.021-.031-.031-.009-.01-.022-.022-.031-.031-.011-.01-.021-.021-.031-.031-.01-.011-.021-.021-.031-.031-.211-.204-.412-.423-.625-.625l-.063-.063c-.09-.087-.16-.195-.25-.281-.331-.333-.665-.67-1-1-.274-.276-.567-.539-.844-.813-.058-.056-.098-.131-.156-.188l-.219-.219c-.577-.591-1.162-1.17-1.75-1.75-.305-.307-.629-.602-.938-.906-.01-.011-.021-.021-.031-.031-.01-.011-.021-.021-.031-.031-.005-.005.005-.026 0-.031-.316-.318-.65-.623-.969-.938-.009-.01-.022-.022-.031-.031-.005-.005.005-.026 0-.031-.331-.333-.665-.67-1-1-.331-.333-.665-.67-1-1-.329-.331-.637-.673-.969-1-.329-.331-.668-.642-1-.969l-.063-.063c-.016-.015-.046-.016-.063-.031-.28-.281-.562-.565-.844-.844-.01-.011-.021-.021-.031-.031-.005-.005.005-.026 0-.031-.316-.318-.65-.623-.969-.938-.009-.01-.022-.022-.031-.031-.005-.005.005-.026 0-.031-.331-.333-.665-.67-1-1-.331-.333-.665-.67-1-1-.334-.336-.663-.668-1-1-.326-.328-.64-.644-.969-.969l-.063-.063c-.195-.188-.397-.375-.594-.563-.062-.062-.125-.126-.188-.188-.059-.057-.097-.131-.156-.188-.305-.307-.629-.602-.938-.906-.01-.011-.021-.021-.031-.031-.009-.01-.022-.022-.031-.031-.011-.01-.021-.021-.031-.031-.01-.011-.021-.021-.031-.031-.211-.204-.412-.423-.625-.625l-.063-.063c-.09-.087-.16-.195-.25-.281-.331-.333-.665-.67-1-1-.274-.276-.567-.539-.844-.813-.058-.056-.098-.131-.156-.188-.268-.27-.542-.514-.813-.781-.058-.056-.098-.131-.156-.188-.274-.276-.567-.539-.844-.813-.059-.057-.097-.131-.156-.188-.305-.307-.629-.602-.938-.906-.01-.011-.021-.021-.031-.031-.01-.011-.021-.021-.031-.031-.005-.005.005-.026 0-.031-.316-.318-.65-.623-.969-.938-.009-.01-.022-.022-.031-.031-.005-.005.005-.026 0-.031-.331-.333-.665-.67-1-1-.331-.333-.665-.67-1-1-.329-.331-.637-.673-.969-1-.329-.331-.668-.642-1-.969l-.063-.063c-.021-.02-.041-.042-.063-.063-.264-.265-.546-.518-.813-.781-.01-.011-.021-.021-.031-.031-.01-.011-.021-.021-.031-.031-.005-.005.005-.026 0-.031-.316-.318-.65-.623-.969-.938-.009-.01-.022-.022-.031-.031-.005-.005.005-.026 0-.031-.331-.333-.665-.67-1-1-.331-.333-.665-.67-1-1-.334-.336-.663-.668-1-1-.326-.328-.64-.644-.969-.969l-.063-.063c-.269-.26-.541-.524-.813-.781-.031-.031-.062-.063-.094-.094-.01-.011-.021-.021-.031-.031-.005-.005.005-.026 0-.031-.316-.318-.65-.623-.969-.938-.009-.01-.022-.022-.031-.031-.005-.005.005-.026 0-.031-.331-.333-.665-.67-1-1-.331-.333-.665-.67-1-1-.334-.336-.663-.668-1-1-.326-.328-.64-.644-.969-.969l-.063-.063c-.195-.188-.397-.375-.594-.563-.062-.062-.125-.126-.188-.188-.059-.057-.097-.131-.156-.188-.305-.307-.629-.602-.938-.906-.01-.011-.021-.021-.031-.031-.009-.01-.022-.022-.031-.031-.011-.01-.021-.021-.031-.031-.01-.011-.021-.021-.031-.031-.211-.204-.412-.423-.625-.625l-.063-.063c-.09-.087-.16-.195-.25-.281-.331-.333-.665-.67-1-1-.274-.276-.567-.539-.844-.813-.058-.056-.098-.131-.156-.188l-.219-.219c-.577-.591-1.162-1.17-1.75-1.75-.305-.307-.629-.602-.938-.906-.01-.011-.021-.021-.031-.031-.01-.011-.021-.021-.031-.031-.005-.005.005-.026 0-.031-.316-.318-.65-.623-.969-.938-.009-.01-.022-.022-.031-.031-.005-.005.005-.026 0-.031-.331-.333-.665-.67-1-1-.331-.333-.665-.67-1-1-.329-.331-.637-.673-.969-1-.329-.331-.668-.642-1-.969l-.063-.063c-.021-.02-.041-.042-.063-.063-.264-.265-.546-.518-.813-.781-.01-.011-.021-.021-.031-.031-.01-.011-.021-.021-.031-.031-.005-.005.005-.026 0-.031-.316-.318-.65-.623-.969-.938-.009-.01-.022-.022-.031-.031-.005-.005.005-.026 0-.031-.331-.333-.665-.67-1-1-.331-.333-.665-.67-1-1-.334-.336-.663-.668-1-1-.326-.328-.64-.644-.969-.969l-.063-.063c-.269-.26-.541-.524-.813-.781-.031-.031-.062-.063-.094-.094-.01-.011-.021-.021-.031-.031-.005-.005.005-.026 0-.031-.316-.318-.65-.623-.969-.938-.009-.01-.022-.022-.031-.031-.005-.005.005-.026 0-.031-.331-.333-.665-.67-1-1-.331-.333-.665-.67-1-1-.274-.276-.567-.539-.844-.813-.058-.056-.098-.131-.156-.188-.268-.27-.542-.514-.813-.781-.058-.056-.098-.131-.156-.188-.274-.276-.567-.539-.844-.813-.059-.057-.097-.131-.156-.188-.305-.307-.629-.602-.938-.906-.01-.011-.021-.021-.031-.031-.009-.01-.022-.022-.031-.031-.011-.01-.021-.021-.031-.031-.01-.011-.021-.021-.031-.031-.211-.204-.412-.423-.625-.625l-.063-.063c-.09-.087-.16-.195-.25-.281-.331-.333-.665-.67-1-1-.274-.276-.567-.539-.844-.813-.058-.056-.098-.131-.156-.188l-.219-.219c-.577-.591-1.162-1.17-1.75-1.75-.254-.255-.526-.497-.781-.75-.08-.077-.139-.173-.219-.25-5.424-5.459-11.315-10.471-17.594-14.906l-15.53 15.69c-.311-.055-.626-.103-.938-.156v-.84c-.331-.058-.668-.1-1-.156v-.84c-.331-.058-.668-.1-1-.156v-.813c-.332-.059-.667-.131-1-.188v-.813c-.331-.058-.668-.1-1-.156v-.844c-.324-.057-.644-.101-.969-.156v-.844c-.331-.058-.668-.1-1-.156v-.844c-.331-.058-.668-.1-1-.156v-.844c-.331-.058-.668-.1-1-.156v-.813c-.332-.059-.667-.131-1-.188v-.813c-.331-.058-.668-.1-1-.156v-.844c-.334-.059-.665-.099-1-.156v-.844c-.324-.057-.644-.101-.969-.156v-.844c-.331-.058-.668-.1-1-.156v-.844c-.331-.058-.668-.1-1-.156v-.813c-.332-.059-.667-.131-1-.188v-.813c-.331-.058-.668-.1-1-.156v-.844c-.331-.058-.668-.1-1-.156v-.844c-.324-.057-.644-.101-.969-.156v-.844c-.331-.058-.668-.1-1-.156v-.844c-.331-.058-.668-.1-1-.156v-.844c-.331-.058-.668-.1-1-.156v-.813c-.332-.059-.667-.131-1-.188v-.813c-.331-.058-.668-.1-1-.156v-.844c-.324-.057-.644-.101-.969-.156v-.844c-.331-.058-.668-.1-1-.156v-.844c-.331-.058-.668-.1-1-.156v-.844c-.331-.058-.668-.1-1-.156v-.813c-.332-.059-.667-.131-1-.188v-.813c-.331-.058-.668-.1-1-.156v-.844c-.324-.057-.644-.101-.969-.156v-.844c-.331-.058-.668-.1-1-.156v-.844c-.331-.058-.668-.1-1-.156v-.844c-.331-.058-.668-.1-1-.156v-.813c-.332-.059-.667-.131-1-.188v-.813c-.331-.058-.668-.1-1-.156v-.844c-.334-.059-.665-.099-1-.156v-.844c-.324-.057-.644-.101-.969-.156v-.844c-7.539-1.328-15.299-2.156-23.22-2.156" fill-opacity=".235"/>
 <g fill-rule="evenodd">
  <path d="m256 1c-140.83 0-255 114.17-255 255s114.17 255 255 255 255-114.17 255-255-114.17-255-255-255m8.827 44.931c120.9 0 218.9 98 218.9 218.9s-98 218.9-218.9 218.9-218.93-98-218.93-218.9 98.03-218.9 218.93-218.9" fill-opacity=".067"/>
  <g fill-opacity=".129">
   <path d="m256 4.433c-138.94 0-251.57 112.63-251.57 251.57s112.63 251.57 251.57 251.57 251.57-112.63 251.57-251.57-112.63-251.57-251.57-251.57m5.885 38.556c120.9 0 218.9 98 218.9 218.9s-98 218.9-218.9 218.9-218.93-98-218.93-218.9 98.03-218.9 218.93-218.9"/>
   <path d="m256 8.356c-136.77 0-247.64 110.87-247.64 247.64s110.87 247.64 247.64 247.64 247.64-110.87 247.64-247.64-110.87-247.64-247.64-247.64m2.942 31.691c120.9 0 218.9 98 218.9 218.9s-98 218.9-218.9 218.9-218.93-98-218.93-218.9 98.03-218.9 218.93-218.9"/>
  </g>
  <path d="m253.04 7.859c-135.42 0-245.19 109.78-245.19 245.19 0 135.42 109.78 245.19 245.19 245.19 135.42 0 245.19-109.78 245.19-245.19 0-135.42-109.78-245.19-245.19-245.19zm0 26.297c120.9 0 218.9 98 218.9 218.9s-98 218.9-218.9 218.9-218.93-98-218.93-218.9 98.03-218.9 218.93-218.9z" fill="#ffffff" stroke="#000000" stroke-opacity=".31" stroke-width="4.904"/>
 </g>
 <path d="m256.09 123.03c-7.702 0-15.327.721-22.671 1.979v28.25c-12.1 2.689-23.323 7.574-33.466 14.03l-20.15-20.15c-12.585 8.829-23.524 19.827-32.387 32.387l20.15 20.15c-6.461 10.143-11.346 21.364-14.03 33.466h-28.428c-1.294 7.445-1.979 15.04-1.979 22.851 0 7.815.685 15.585 1.979 23.03h28.428c2.689 12.1 7.574 23.324 14.03 33.466l-20.15 20.15c8.877 12.58 19.956 23.37 32.567 32.21l19.972-19.972c10.143 6.46 21.364 11.346 33.466 14.03v28.07c7.343 1.258 14.969 1.979 22.671 1.979 7.919 0 15.672-.651 23.21-1.979v-28.07c12.1-2.689 23.323-7.574 33.466-14.03l19.612 19.792c12.58-8.877 23.73-19.776 32.567-32.387l-19.79-19.8c6.461-10.143 11.345-21.364 14.03-33.466h27.709c1.294-7.445 1.979-15.215 1.979-23.03s-.685-15.405-1.979-22.851h-27.709c-2.689-12.1-7.574-23.324-14.03-33.466l19.792-19.792c-8.824-12.592-19.83-23.696-32.387-32.567l-19.792 19.972c-10.143-6.461-21.364-11.345-33.466-14.03v-28.07c-7.539-1.328-15.291-2.159-23.21-2.159m-.18 71.791c33.783 0 61.35 27.392 61.35 61.18 0 33.783-27.572 61.18-61.35 61.18-33.783 0-61.18-27.392-61.18-61.18 0-33.782 27.392-61.18 61.18-61.18" fill="#ffffff"/>
</svg>
