<svg height="512" viewBox="0 0 512 512" width="512" xmlns="http://www.w3.org/2000/svg">
 <path d="m471.95 253.05c0 120.9-98.01 218.9-218.9 218.9-120.9 0-218.9-98.01-218.9-218.9 0-120.9 98.01-218.9 218.9-218.9 120.9 0 218.9 98.01 218.9 218.9" fill="#9f9f9f" fill-rule="evenodd"/>
 <path d="m256 1c-140.83 0-255 114.17-255 255 0 140.83 114.17 255 255 255 140.83 0 255-114.17 255-255 0-140.83-114.17-255-255-255m8.827 44.931c120.9 0 218.9 98 218.9 218.9 0 120.9-98 218.9-218.9 218.9-120.9 0-218.93-98-218.93-218.9 0-120.9 98.03-218.9 218.93-218.9" fill-opacity=".067" fill-rule="evenodd"/>
 <g fill-opacity=".129" fill-rule="evenodd">
  <path d="m256 4.433c-138.94 0-251.57 112.63-251.57 251.57 0 138.94 112.63 251.57 251.57 251.57 138.94 0 251.57-112.63 251.57-251.57 0-138.94-112.63-251.57-251.57-251.57m5.885 38.556c120.9 0 218.9 98 218.9 218.9 0 120.9-98 218.9-218.9 218.9-120.9 0-218.93-98-218.93-218.9 0-120.9 98.03-218.9 218.93-218.9"/>
  <path d="m256 8.356c-136.77 0-247.64 110.87-247.64 247.64 0 136.77 110.87 247.64 247.64 247.64 136.77 0 247.64-110.87 247.64-247.64 0-136.77-110.87-247.64-247.64-247.64m2.942 31.691c120.9 0 218.9 98 218.9 218.9 0 120.9-98 218.9-218.9 218.9-120.9 0-218.93-98-218.93-218.9 0-120.9 98.03-218.9 218.93-218.9"/>
 </g>
 <path d="m253.04 7.859c-135.42 0-245.19 109.78-245.19 245.19 0 135.42 109.78 245.19 245.19 245.19 135.42 0 245.19-109.78 245.19-245.19 0-135.42-109.78-245.19-245.19-245.19zm0 26.297c120.9 0 218.9 98 218.9 218.9 0 120.9-98 218.9-218.9 218.9-120.9 0-218.93-98-218.93-218.9 0-120.9 98.03-218.9 218.93-218.9z" fill="#ffffff" fill-rule="evenodd" stroke="#000000" stroke-opacity=".31" stroke-width="4.904"/>
 <path d="m424.94802 140.29237l-6.31347 23.34307-30.32489-22.18943-2.58613 21.15309-34.8707-22.77378-8.52109 15.51815-58.23326-39.2828-22.85139-12.262-43.16336 23.37164 30.30488 46.89233-4.16273 25.00782-51.41297-.54544-9.44979 18.64662 63.71019 42.31867c0 0-7.52071 58.70471-5.68735 66.57718 1.42744 6.13103 19.67378 34.65618-.22299 37.54499-14.8048 2.1495-81.94591-23.89502-104.04079-27.94842-30.54647-5.60387-14.91772 9.704-14.91772 9.704 64.83059 43.85035 123.54536 81.31565 182.4189 120.51975 97.12-22.39 169.53-109.4 169.53-213.31 0-14.14-14.1473-77.76709-22.70575-96.36215" opacity=".25"/>
 <g fill="#ffffff" transform="matrix(.41161634 0 0 .41161634 279.67844 85.758995)">
  <rect height="220.043" rx="2.284" ry="3.355" width="29.162" x="236.61" y="135.54"/>
  <rect height="220.043" rx="2.284" ry="3.355" width="29.162" x="323.44" y="131.56"/>
  <rect height="220.043" rx="2.284" ry="3.355" width="29.162" x="149.79" y="131.56"/>
  <circle cx="165.695" cy="237.61" r="35.79"/>
  <circle cx="250.53" cy="299.911" r="35.79"/>
  <circle cx="339.343" cy="177.96" r="35.79"/>
 </g>
 <path d="m251.02515 102.32885c-19.23612 0-34.76409 14.98331-34.76409 33.45462 0 13.94043 10.59148 25.43575 23.17606 30.46495v28.73833h-53.64101c-2.30602 0-4.34551 2.94334-4.34551 5.29574v12.53825c0 2.39869 1.94682 5.84035 4.34551 5.29574h53.64101v135.20913c0 4.34551-8.92277 4.39188-13.12924 4.84379-6.19958 0-10.00049-1.54122-15.88716-3.08243-13.39578-3.80085-26.16583-9.00388-38.42596-15.34255-5.20302-2.75793-10.23223-5.43478-14.84427-9.00389-1.94678-1.68025-4.25281-3.98627-4.07898-6.65153.26634-2.08582 1.35579-4.20643 3.66181-4.57726 2.08587-.31291 3.98632.76481 5.8404 1.44851 1.58754.63736 2.71159-1.21676 2.44506-2.49144-.23189-3.34891-1.40213-6.47771-3.20987-9.37472-3.80091-6.02576-9.64125-10.45239-15.66701-14.25324-6.43138-3.93994-13.30307-8.28546-17.42843-14.67046-.81114-1.13564-1.71503-3.1288-3.53437-2.49143-2.53777.7648-3.93989 3.16353-5.15665 5.20302-3.48799 6.33863-5.20303 13.26828-6.79057 20.27906-1.26313 5.56226-1.49488 11.44899-1.04293 17.11551.45213 5.65498.85751 11.40261 3.20987 16.74468 1.54121 3.488 4.16009 6.29234 6.79061 9.05026 1.68025-1.71503 3.44162-3.5807 5.15665-5.20303 2.21332-2.17853 5.02921-3.5807 8.33179-3.12875 4.43822.54465 8.45927 3.16354 11.94727 5.6086 4.93649 3.62708 9.50221 7.47426 14.53141 11.13613 7.92621 5.84034 16.66357 10.09315 25.6675 14.2185 7.47426 3.34891 15.16873 6.65154 22.94426 9.42105 1.40218.59099 2.89701.54466 4.34552 1.04294 13.98675 5.52748 25.80658 12.13268 35.49416 23.81337 0 .18533 0 .49833 0 .6837.0927-.13923.26634-.31291.40557-.40557.0927.13922.26634.31291.40557.40557.0927-.35947-.0927-.76481 0-1.08927 9.64125-11.54165 21.54214-17.83399 35.44778-23.4078 1.44851-.49828 2.98972-.45214 4.39189-1.04294 7.7408-2.71159 15.48159-6.06054 22.94427-9.42105 8.95755-4.11376 17.74128-8.42449 25.66754-14.2185 4.98283-3.66187 9.59487-7.50905 14.53137-11.13613 3.48799-2.44506 7.50905-5.11032 11.94727-5.6086 3.25624-.40557 6.02576.99656 8.28545 3.12875 1.71503 1.6803 3.48799 3.53438 5.15665 5.20303 2.63052-2.71159 5.29574-5.56226 6.79062-9.05026 2.39873-5.29569 2.8043-11.04337 3.2562-16.74468.45213-5.65498.18532-11.58803-1.08927-17.11551-1.54121-7.01078-3.3489-13.89405-6.79057-20.27906-1.21675-2.03949-2.66526-4.43822-5.15669-5.20302-1.8077-.63737-2.7116 1.30946-3.53433 2.49143-4.11376 6.33863-10.95071 10.68414-17.42842 14.67046-6.06055 3.80085-11.85456 8.23907-15.70175 14.25324-1.80774 2.89701-2.98971 6.02581-3.25625 9.37472-.23188 1.26313.85752 3.16354 2.5841 2.53781 1.71504-.68369 3.62708-1.76141 5.79402-1.4485 2.3524.35947 3.44166 2.53777 3.62708 4.57726.26634 2.66526-2.08587 5.0292-4.07898 6.65153-4.61204 3.53432-9.64125 6.24592-14.79795 9.00388-12.27172 6.33867-25.03013 11.5417-38.39117 15.29618-6.02576 1.58759-9.78028 3.1288-15.88716 3.1288-5.34207.90385-13.26828-1.85407-13.26828-4.84379v-135.20917h53.64101c2.1322 0 4.34552-2.75797 4.34552-5.29574v-12.53825c0-2.44506-2.08587-4.79746-4.34552-5.29574h-53.64101v-28.73833c12.77-5.0292 23.17606-16.52452 23.17606-30.4649 0-18.51769-15.5743-33.501-34.76409-33.501m-.73007 16.3391c9.32838 0 17.02285 7.05711 17.02285 16.07263 0 8.95755-7.64814 16.33911-17.02285 16.33911-9.32834 0-17.11552-7.38156-17.11552-16.33911 0-8.95755 7.7408-16.07263 17.11552-16.07263m0 0" fill="#ffffff"/>
</svg>
