<svg viewBox="0 0 512 512" xmlns="http://www.w3.org/2000/svg">
 <path d="m471.95 253.05c0 120.9-98.01 218.91-218.91 218.91-120.9 0-218.91-98.01-218.91-218.91 0-120.9 98.01-218.91 218.91-218.91 120.9 0 218.91 98.01 218.91 218.91" fill="#ffffff" fill-rule="evenodd"/>
 <path d="m146.59 61.75c-56.996 31.779-98.3 88.27-109.44 155v72.63c11.145 66.72 52.44 123.22 109.44 155v-382.62" fill="#b0b0b0"/>
 <path d="m365.41 65.16v375.81c63.824-38.25 106.53-108.09 106.53-187.91 0-79.82-42.707-149.66-106.53-187.91" fill="#b0b0b0"/>
 <path d="m256 34.19v437.72c39.962-.531 77.35-11.729 109.41-30.938v-375.81c-32.05-19.21-69.45-30.437-109.41-30.969" fill="#b0b0b0"/>
 <path d="m253.03 34.16c-38.649 0-74.953 10.02-106.47 27.594v382.59c31.517 17.579 67.819 27.625 106.47 27.625.992 0 1.98-.049 2.969-.063v-437.72c-.988-.013-1.977-.031-2.969-.031" fill="#b0b0b0"/>
 <g fill-rule="evenodd">
  <path d="m256 1c-140.83 0-255 114.17-255 255 0 140.83 114.17 255 255 255 140.83 0 255-114.17 255-255 0-140.83-114.17-255-255-255m8.827 44.931c120.9 0 218.9 98 218.9 218.9 0 120.9-98 218.9-218.9 218.9-120.9 0-218.93-98-218.93-218.9 0-120.9 98.03-218.9 218.93-218.9" fill-opacity=".067"/>
  <g fill-opacity=".129">
   <path d="m256 4.43c-138.94 0-251.57 112.63-251.57 251.57 0 138.94 112.63 251.57 251.57 251.57 138.94 0 251.57-112.63 251.57-251.57 0-138.94-112.63-251.57-251.57-251.57m5.885 38.556c120.9 0 218.9 98 218.9 218.9 0 120.9-98 218.9-218.9 218.9-120.9 0-218.93-98-218.93-218.9 0-120.9 98.03-218.9 218.93-218.9"/>
   <path d="m256 8.36c-136.77 0-247.64 110.87-247.64 247.64 0 136.77 110.87 247.64 247.64 247.64 136.77 0 247.64-110.87 247.64-247.64 0-136.77-110.87-247.64-247.64-247.64m2.942 31.691c120.9 0 218.9 98 218.9 218.9 0 120.9-98 218.9-218.9 218.9-120.9 0-218.93-98-218.93-218.9 0-120.9 98.03-218.9 218.93-218.9"/>
  </g>
  <path d="m253.04 7.86c-135.42 0-245.19 109.78-245.19 245.19 0 135.42 109.78 245.19 245.19 245.19 135.42 0 245.19-109.78 245.19-245.19 0-135.42-109.78-245.19-245.19-245.19m0 26.297c120.9 0 218.9 98 218.9 218.9 0 120.9-98 218.9-218.9 218.9-120.9 0-218.93-98-218.93-218.9 0-120.9 98.03-218.9 218.93-218.9z" fill="#ffffff" stroke="#000000" stroke-opacity=".31" stroke-width="4.904"/>
 </g>
 <path d="m361.98 136.14c-1.952.015-3.883.165-5.754.441-33.23-.279-66.48-.356-99.72-.342h-.002c-38.32.107-76.69-.01-114.96.43-11.84 2.558-21.02 10.269-20.723 28.24.275 29-.945 64.27 1.191 93.06 2.553 29.634 16.643 56.657 37.32 77.33l133.11 133.11c102.1-18.556 179.51-107.92 179.51-215.36 0-7.778-.414-15.46-1.205-23.03l-85.8-85.8c-5.688-5.688-14.505-8.151-22.963-8.08" opacity=".25"/>
 <path d="m256.5 136.24c-38.32.107-76.69-.011-114.96.429-11.84 2.558-21.02 10.27-20.723 28.25.275 29-.944 64.27 1.192 93.06 5.771 66.984 70.49 120.63 136.95 117.77 64.54-.132 125.98-53.29 131.2-118.36 1.866-33.698.905-67.49.691-101.2-2.397-16.454-20.321-21.714-34.621-19.602-33.24-.279-66.48-.356-99.72-.342m-62.993 68.749c7.114.077 8.491 2.253 34.07 26.12 10.516 9.572 17.93 18.376 28.742 27.477 17.549-15.892 35.586-35 53.42-50.5 11.364-8.141 28.47.85 28.649 14.99.447 10.626-11.462 18.19-25.44 32.412-15.61 14.771-30.385 29.07-46.7 43.47-13.226 9.781-25.61-4.292-34.5-12.995-18.05-17.01-36.26-33.946-53.597-51.638-7.393-8.202-5.47-28.17 15.362-29.351" fill="#ffffff"/>
</svg>
