<svg height="512" viewBox="0 0 512 512" width="512" xmlns="http://www.w3.org/2000/svg">
 <path d="m471.95 253.05c0 120.9-98.01 218.9-218.9 218.9-120.9 0-218.9-98.01-218.9-218.9 0-120.9 98.01-218.9 218.9-218.9 120.9 0 218.9 98.01 218.9 218.9" fill="#777777" fill-rule="evenodd"/>
 <path d="m248.56 103.75c-12.546.069-24.298 6.795-29.906 18.406-6.627 13.723-2.696 30.1 8.563 40.625.332.335.654.676 1 1 .104.105.207.209.313.313.138.146.266.293.406.438.091.087.189.164.281.25.237.256.474.499.719.75.09.086.19.165.281.25.103.103.209.21.313.313.138.146.266.293.406.438.09.086.19.165.281.25.133.134.271.274.406.406.106.112.205.233.313.344.09.086.19.165.281.25.073.073.145.146.219.219.566.602 1.141 1.181 1.75 1.75.332.335.654.676 1 1 .237.256.474.499.719.75.091.087.189.164.281.25.103.103.209.21.313.313.138.146.266.293.406.438.09.086.19.165.281.25.144.144.291.295.438.438.096.101.184.212.281.313.09.086.19.165.281.25.073.073.145.146.219.219.566.602 1.141 1.181 1.75 1.75.332.335.654.676 1 1 .104.105.207.209.313.313.138.146.266.293.406.438.091.087.189.164.281.25.103.103.209.21.313.313.138.146.266.293.406.438.09.086.19.165.281.25.103.103.209.21.313.313.138.146.266.293.406.438.09.086.19.165.281.25.104.104.207.209.313.313.54.571 1.077 1.115 1.656 1.656.332.335.654.676 1 1 .104.105.207.209.313.313.138.146.266.293.406.438.091.087.189.164.281.25.103.103.209.21.313.313.138.146.266.293.406.438.09.086.19.165.281.25.103.103.209.21.313.313.138.146.266.293.406.438.09.086.19.165.281.25.104.104.207.209.313.313.333.352.683.69 1.031 1.031.529.558 1.058 1.095 1.625 1.625.237.256.474.499.719.75.091.087.189.164.281.25.103.103.209.21.313.313.138.146.266.293.406.438.09.086.19.165.281.25.103.103.209.21.313.313.138.146.266.293.406.438.09.086.19.165.281.25.133.134.271.274.406.406.106.112.205.233.313.344.143.137.292.272.438.406-21.486 11.263-41.19 33.05-45.531 59.38-.06.365-.109.73-.156 1.094-.201.129-.385.299-.563.438.175-.655.344-1.316.531-1.969-.552.288-1.141.644-1.563 1.031.181-.681.367-1.353.563-2.031-.606.317-1.278.749-1.594 1.188.192-.726.386-1.464.594-2.188-.754.394-1.636.994-1.375 1.531-.114.06-.229.128-.344.188.234-.906.491-1.787.75-2.688-.565.295-1.227.722-1.031 1.125-.216.113-.44.23-.656.344.216-.827.451-1.646.688-2.469-.377.197-.818.481-.688.75-.318.166-.65.333-.969.5.2-.759.439-1.494.656-2.25-.189.099-.409.241-.344.375-.403.211-.814.443-1.219.656.181-.677.368-1.357.563-2.031-37.854 19.779-82.15 49.656-69 76.66 3.651 7.498 10.211 13.903 18.688 19.219.279.186.56.379.844.563.201.219.432.432.688.625.265.375.596.719 1 1.031.268.374.631.717 1.031 1.031.275.381.624.741 1.031 1.063.272.368.641.717 1.031 1.031.273.369.612.714 1 1.031.284.382.66.734 1.063 1.063.271.358.596.687.969 1 .289.389.659.725 1.063 1.063.271.358.603.685.969 1 .309.414.695.797 1.125 1.156.286.36.624.712 1 1.031.295.371.674.733 1.063 1.063.279.346.611.658.969.969.32.406.701.797 1.125 1.156.283.343.612.659.969.969.324.402.704.767 1.125 1.125.276.33.565.668.906.969.332.41.729.79 1.156 1.156.293.345.608.686.969 1 .297.354.665.678 1.031 1 .309.371.648.725 1.031 1.063.335.399.707.795 1.125 1.156.285.328.597.666.938.969.334.394.713.766 1.125 1.125.276.316.58.613.906.906.329.391.691.768 1.094 1.125.342.397.709.762 1.125 1.125.299.338.616.687.969 1 .314.36.658.698 1.031 1.031.316.361.657.697 1.031 1.031.3.342.618.681.969 1 .336.389.693.765 1.094 1.125.304.345.645.678 1 1 .326.372.679.748 1.063 1.094.346.391.716.762 1.125 1.125.301.333.622.656.969.969.314.352.637.702 1 1.031.358.403.735.782 1.156 1.156.298.326.599.661.938.969.327.365.655.721 1.031 1.063.325.36.69.724 1.063 1.063.273.3.569.59.875.875.371.424.752.824 1.188 1.219.33.363.686.721 1.063 1.063.326.356.661.727 1.031 1.063.344.376.701.74 1.094 1.094.327.353.662.729 1.031 1.063.317.341.644.677 1 1 .335.364.684.719 1.063 1.063.331.357.659.724 1.031 1.063.336.362.654.72 1.031 1.063.283.303.594.616.906.906.046.05.078.106.125.156.006.005.026-.005.031 0 .218.232.453.463.688.688.381.433.781.843 1.219 1.25.046.05.078.106.125.156.006.005.026-.005.031 0 .257.274.532.549.813.813.065.072.121.147.188.219.016.015.046.016.063.031.248.263.513.528.781.781.325.36.668.719 1.031 1.063.065.072.121.147.188.219.027.025.066.038.094.063.213.226.428.469.656.688.342.383.71.729 1.094 1.094.075.083.142.168.219.25.028.026.065.037.094.063.231.244.471.483.719.719.074.082.143.169.219.25.039.036.086.058.125.094.216.228.425.467.656.688.318.354.647.693 1 1.031.336.375.719.736 1.094 1.094.066.072.12.147.188.219.059.055.127.102.188.156.189.198.394.401.594.594.315.351.652.695 1 1.031.358.401.756.775 1.156 1.156.056.061.1.127.156.188.071.066.147.122.219.188.177.184.346.383.531.563.339.378.718.732 1.094 1.094.075.083.142.168.219.25.081.076.167.144.25.219.177.183.346.383.531.563.385.427.788.843 1.219 1.25.06.064.127.124.188.188.055.05.101.106.156.156.205.211.409.419.625.625.04.044.084.082.125.125.093.087.186.164.281.25.082.084.167.166.25.25.399.458.832.909 1.281 1.344.35.386.739.755 1.125 1.125.046.05.079.107.125.156.113.106.228.208.344.313.131.135.27.273.406.406.322.359.679.686 1.031 1.031.379.423.766.846 1.188 1.25.04.044.084.081.125.125.124.118.247.228.375.344.118.12.223.256.344.375.358.399.762.774 1.156 1.156.065.072.121.148.188.219.135.128.268.249.406.375.102.104.208.209.313.313.362.404.757.8 1.156 1.188.065.072.121.148.188.219.145.138.288.271.438.406.124.126.247.25.375.375.075.083.142.168.219.25.146.139.287.269.438.406.031.032.063.062.094.094.403.459.833.905 1.281 1.344.356.392.736.78 1.125 1.156.041.044.084.081.125.125.165.158.329.313.5.469.072.073.146.147.219.219.372.414.779.821 1.188 1.219.056.061.1.127.156.188.176.168.349.335.531.5.103.105.207.209.313.313.065.072.121.147.188.219.177.17.348.333.531.5.051.052.105.105.156.156.374.418.777.817 1.188 1.219.065.071.122.148.188.219.187.18.368.355.563.531.387.438.824.86 1.25 1.281.084.093.164.189.25.281.197.19.389.376.594.563.01.011.021.021.031.031.131.146.271.293.406.438.199.192.387.375.594.563.38.427.771.87 1.188 1.281.338.372.728.703 1.094 1.063.066.072.121.147.188.219.218.21.429.419.656.625.401.448.842.882 1.281 1.313.419.455.854.907 1.313 1.344.261.275.537.544.813.813.412.445.832.885 1.281 1.313.27.283.527.567.813.844.401.43.815.835 1.25 1.25.513.539 1.027 1.08 1.594 1.594.047.047.077.109.125.156.35.38.717.757 1.094 1.125.338.364.7.709 1.063 1.063.331.355.678.718 1.031 1.063.411.441.835.887 1.281 1.313.254.266.514.521.781.781.01.011.021.021.031.031.275.268.555.551.844.813.02.022.042.041.063.063.037.037.056.088.094.125.331.355.679.687 1.031 1.031.333.357.676.715 1.031 1.063.423.454.854.905 1.313 1.344.345.361.695.712 1.063 1.063.229.239.448.484.688.719.332.356.678.685 1.031 1.031.438.469.901.922 1.375 1.375.234.244.475.511.719.75.329.353.681.688 1.031 1.031.332.355.679.717 1.031 1.063.182.195.375.378.563.563 89.81-11.919 162.41-78.29 183.56-164.84-.227-.231-.453-.462-.688-.688-.328-.339-.658-.672-1-1-.328-.339-.658-.672-1-1-.322-.333-.633-.677-.969-1-.324-.334-.663-.676-1-1-.087-.09-.193-.161-.281-.25-.199-.188-.39-.379-.594-.563-.048-.046-.077-.11-.125-.156-.328-.339-.658-.672-1-1-.328-.339-.658-.672-1-1-.328-.339-.658-.672-1-1-.322-.333-.633-.677-.969-1-.324-.334-.663-.676-1-1-.324-.334-.663-.676-1-1-.327-.337-.659-.642-1-.969-.328-.339-.658-.672-1-1-.328-.339-.658-.672-1-1-.322-.333-.633-.677-.969-1-.324-.334-.663-.676-1-1-.324-.334-.663-.676-1-1-.327-.337-.659-.642-1-.969-.328-.339-.658-.672-1-1-.328-.339-.658-.672-1-1-.322-.333-.633-.677-.969-1-.324-.334-.663-.676-1-1-.324-.334-.663-.676-1-1-.087-.09-.193-.161-.281-.25-.199-.188-.39-.379-.594-.563-.048-.046-.077-.11-.125-.156-.328-.339-.658-.672-1-1-.328-.339-.658-.672-1-1-.328-.339-.658-.672-1-1-.322-.333-.633-.677-.969-1-.324-.334-.663-.676-1-1-.22-.227-.461-.434-.688-.656-.428-.453-.86-.878-1.313-1.313-.328-.339-.658-.672-1-1-.328-.339-.658-.672-1-1-.322-.333-.633-.677-.969-1-.324-.334-.663-.676-1-1-.324-.334-.663-.676-1-1-.327-.337-.659-.642-1-.969-.328-.339-.658-.672-1-1-.328-.339-.658-.672-1-1-.322-.333-.633-.677-.969-1-.324-.334-.663-.676-1-1-.324-.334-.663-.676-1-1-.087-.09-.193-.161-.281-.25-.199-.188-.39-.379-.594-.563-.048-.046-.077-.11-.125-.156-.328-.339-.658-.672-1-1-.328-.339-.658-.672-1-1-.328-.339-.658-.672-1-1-.322-.333-.633-.677-.969-1-.324-.334-.663-.676-1-1-.087-.09-.193-.161-.281-.25-.199-.188-.39-.379-.594-.563-.048-.046-.077-.11-.125-.156-.328-.339-.658-.672-1-1-.328-.339-.658-.672-1-1-.328-.339-.658-.672-1-1-.322-.333-.633-.677-.969-1-.324-.334-.663-.676-1-1-.22-.227-.461-.434-.688-.656-.428-.453-.86-.878-1.313-1.313-.328-.339-.658-.672-1-1-.328-.339-.658-.672-1-1-.322-.333-.633-.677-.969-1-.324-.334-.663-.676-1-1-.324-.334-.663-.676-1-1-.327-.337-.659-.642-1-.969-.328-.339-.658-.672-1-1-.328-.339-.658-.672-1-1-.322-.333-.633-.677-.969-1-.324-.334-.663-.676-1-1-.324-.334-.663-.676-1-1-.087-.09-.193-.161-.281-.25-.199-.188-.39-.379-.594-.563-.048-.046-.077-.11-.125-.156-.328-.339-.658-.672-1-1-.328-.339-.658-.672-1-1-.328-.339-.658-.672-1-1-.322-.333-.633-.677-.969-1-.324-.334-.663-.676-1-1-.087-.09-.193-.161-.281-.25-.199-.188-.39-.379-.594-.563-.048-.046-.077-.11-.125-.156-.328-.339-.658-.672-1-1-.328-.339-.658-.672-1-1-.328-.339-.658-.672-1-1-.322-.333-.633-.677-.969-1-.324-.334-.663-.676-1-1-.324-.334-.663-.676-1-1-.327-.337-.659-.642-1-.969-.328-.339-.658-.672-1-1-.328-.339-.658-.672-1-1-.322-.333-.633-.677-.969-1-.324-.334-.663-.676-1-1-.324-.334-.663-.676-1-1-.087-.09-.193-.161-.281-.25-.199-.188-.39-.379-.594-.563-.048-.046-.077-.11-.125-.156-.328-.339-.658-.672-1-1-.328-.339-.658-.672-1-1-.322-.333-.633-.677-.969-1-.324-.334-.663-.676-1-1-.324-.334-.663-.676-1-1-.087-.09-.193-.161-.281-.25-.199-.188-.39-.379-.594-.563-.048-.046-.077-.11-.125-.156-.328-.339-.658-.672-1-1-.328-.339-.658-.672-1-1-.328-.339-.658-.672-1-1-.322-.333-.633-.677-.969-1-.324-.334-.663-.676-1-1-.22-.227-.461-.434-.688-.656-.428-.453-.86-.878-1.313-1.313-.328-.339-.658-.672-1-1-.328-.339-.658-.672-1-1-.322-.333-.633-.677-.969-1-.324-.334-.663-.676-1-1-.324-.334-.663-.676-1-1-.327-.337-.659-.642-1-.969-.328-.339-.658-.672-1-1-.328-.339-.658-.672-1-1-.322-.333-.633-.677-.969-1-.324-.334-.663-.676-1-1-.324-.334-.663-.676-1-1-.087-.09-.193-.161-.281-.25-.199-.188-.39-.379-.594-.563-.048-.046-.077-.11-.125-.156-.328-.339-.658-.672-1-1-.328-.339-.658-.672-1-1-.328-.339-.658-.672-1-1-.322-.333-.633-.677-.969-1-.324-.334-.663-.676-1-1-.087-.09-.193-.161-.281-.25-.199-.188-.39-.379-.594-.563-.048-.046-.077-.11-.125-.156-.328-.339-.658-.672-1-1-.328-.339-.658-.672-1-1-.328-.339-.658-.672-1-1-.322-.333-.633-.677-.969-1-.324-.334-.663-.676-1-1-.324-.334-.663-.676-1-1-.327-.337-.659-.642-1-.969-.328-.339-.658-.672-1-1-.328-.339-.658-.672-1-1-.322-.333-.633-.677-.969-1-.324-.334-.663-.676-1-1-.324-.334-.663-.676-1-1-.087-.09-.193-.161-.281-.25-.199-.188-.39-.379-.594-.563-.048-.046-.077-.11-.125-.156-.328-.339-.658-.672-1-1-.328-.339-.658-.672-1-1-.322-.333-.633-.677-.969-1-.324-.334-.663-.676-1-1-.324-.334-.663-.676-1-1-.087-.09-.193-.161-.281-.25-.199-.188-.39-.379-.594-.563-.048-.046-.077-.11-.125-.156-.328-.339-.658-.672-1-1-.328-.339-.658-.672-1-1-.328-.339-.658-.672-1-1-.322-.333-.633-.677-.969-1-.324-.334-.663-.676-1-1-.22-.227-.461-.434-.688-.656-.428-.453-.86-.878-1.313-1.313-.328-.339-.658-.672-1-1-.328-.339-.658-.672-1-1-.322-.333-.633-.677-.969-1-.324-.334-.663-.676-1-1-.324-.334-.663-.676-1-1-.327-.337-.659-.642-1-.969-.328-.339-.658-.672-1-1-.328-.339-.658-.672-1-1-.322-.333-.633-.677-.969-1-.324-.334-.663-.676-1-1-.324-.334-.663-.676-1-1-.087-.09-.193-.161-.281-.25-.199-.188-.39-.379-.594-.563-.048-.046-.077-.11-.125-.156-.328-.339-.658-.672-1-1-.328-.339-.658-.672-1-1-.328-.339-.658-.672-1-1-.322-.333-.633-.677-.969-1-.324-.334-.663-.676-1-1-.087-.09-.193-.161-.281-.25-.199-.188-.39-.379-.594-.563-.048-.046-.077-.11-.125-.156-.328-.339-.658-.672-1-1-.328-.339-.658-.672-1-1-.328-.339-.658-.672-1-1-.322-.333-.633-.677-.969-1-.324-.334-.663-.676-1-1-.324-.334-.663-.676-1-1-.327-.337-.659-.642-1-.969-.328-.339-.658-.672-1-1-.328-.339-.658-.672-1-1-.322-.333-.633-.677-.969-1-.324-.334-.663-.676-1-1-.324-.334-.663-.676-1-1-.327-.337-.659-.642-1-.969-.328-.339-.658-.672-1-1-.328-.339-.658-.672-1-1-.322-.333-.633-.677-.969-1-.324-.334-.663-.676-1-1-.324-.334-.663-.676-1-1-.087-.09-.193-.161-.281-.25-.199-.188-.39-.379-.594-.563-.048-.046-.077-.11-.125-.156-.328-.339-.658-.672-1-1-.328-.339-.658-.672-1-1-.328-.339-.658-.672-1-1-.322-.333-.633-.677-.969-1-.324-.334-.663-.676-1-1-.22-.227-.461-.434-.688-.656-.428-.453-.86-.878-1.313-1.313-.328-.339-.658-.672-1-1-.328-.339-.658-.672-1-1-2.867-2.962-6.263-5.52-10.156-7.5-5.561-2.83-11.516-4.218-17.219-4.188m-39.781 148.81c.009.032.016.062.031.094-.02.011-.042.021-.063.031.011-.042.021-.083.031-.125" fill-opacity=".235"/>
 <path d="m256 1c-140.83 0-255 114.17-255 255 0 140.83 114.17 255 255 255 140.83 0 255-114.17 255-255 0-140.83-114.17-255-255-255m8.827 44.931c120.9 0 218.9 98 218.9 218.9 0 120.9-98 218.9-218.9 218.9-120.9 0-218.93-98-218.93-218.9 0-120.9 98.03-218.9 218.93-218.9" fill-opacity=".067" fill-rule="evenodd"/>
 <g fill-opacity=".129" fill-rule="evenodd">
  <path d="m256 4.433c-138.94 0-251.57 112.63-251.57 251.57 0 138.94 112.63 251.57 251.57 251.57 138.94 0 251.57-112.63 251.57-251.57 0-138.94-112.63-251.57-251.57-251.57m5.885 38.556c120.9 0 218.9 98 218.9 218.9 0 120.9-98 218.9-218.9 218.9-120.9 0-218.93-98-218.93-218.9 0-120.9 98.03-218.9 218.93-218.9"/>
  <path d="m256 8.356c-136.77 0-247.64 110.87-247.64 247.64 0 136.77 110.87 247.64 247.64 247.64 136.77 0 247.64-110.87 247.64-247.64 0-136.77-110.87-247.64-247.64-247.64m2.942 31.691c120.9 0 218.9 98 218.9 218.9 0 120.9-98 218.9-218.9 218.9-120.9 0-218.93-98-218.93-218.9 0-120.9 98.03-218.9 218.93-218.9"/>
 </g>
 <path d="m253.04 7.859c-135.42 0-245.19 109.78-245.19 245.19 0 135.42 109.78 245.19 245.19 245.19 135.42 0 245.19-109.78 245.19-245.19 0-135.42-109.78-245.19-245.19-245.19zm0 26.297c120.9 0 218.9 98 218.9 218.9 0 120.9-98 218.9-218.9 218.9-120.9 0-218.93-98-218.93-218.9 0-120.9 98.03-218.9 218.93-218.9z" fill="#ffffff" fill-rule="evenodd" stroke="#000000" stroke-opacity=".31" stroke-width="4.904"/>
 <g fill="#ffffff">
  <path d="m248.56 103.75c-12.546.069-24.296 6.804-29.904 18.415-8.157 16.889-.292 37.807 17.505 46.86 17.796 9.05 38.814 2.816 46.971-14.07 8.157-16.889.437-37.957-17.359-47.01-5.561-2.83-11.51-4.223-17.213-4.192m-8.606 17.816c3.976-.402 8.168.392 12.11 2.394 10.505 5.344 15.172 17.727 10.357 27.697s-17.211 13.728-27.716 8.384-15.172-17.727-10.357-27.697c3.01-6.231 8.982-10.11 15.608-10.779z"/>
  <path d="m205.55 245.79c-37.854 19.779-82.13 49.653-68.982 76.65 17.741 36.437 103.8 47.551 147.9 28.894-21.657-23.473-87.02-57.16-80.955-96.57.475-3.087 1.192-6.03 2.041-8.983"/>
  <path d="m297.44 185.78c-29.768-7.923-78.57 23.1-85.73 66.42-7.153 43.32 78.48 79.84 92.37 103.35 13.893 23.503 6.676 52.703 6.676 52.703s60.43-49.09 66.56-114.06c6.134-64.971-49.24-100.26-79.885-108.41"/>
 </g>
 <path d="m264.32 154.69a23.789 20.438 34.983 1 1 -40.629-24.692 23.789 20.438 34.983 1 1 40.629 24.692" fill="#777777"/>
</svg>
