<svg viewBox="0 0 512 512" xmlns="http://www.w3.org/2000/svg">
 <g fill-rule="evenodd">
  <path d="m471.95 253.05c0 120.9-98.01 218.91-218.91 218.91-120.9 0-218.91-98.01-218.91-218.91 0-120.9 98.01-218.91 218.91-218.91 120.9 0 218.91 98.01 218.91 218.91" fill="#b0b0b0"/>
  <path d="m256 1c-140.83 0-255 114.17-255 255 0 140.83 114.17 255 255 255 140.83 0 255-114.17 255-255 0-140.83-114.17-255-255-255m8.827 44.931c120.9 0 218.9 98 218.9 218.9 0 120.9-98 218.9-218.9 218.9-120.9 0-218.93-98-218.93-218.9 0-120.9 98.03-218.9 218.93-218.9" fill-opacity=".067"/>
  <g fill-opacity=".129">
   <path d="m256 4.43c-138.94 0-251.57 112.63-251.57 251.57 0 138.94 112.63 251.57 251.57 251.57 138.94 0 251.57-112.63 251.57-251.57 0-138.94-112.63-251.57-251.57-251.57m5.885 38.556c120.9 0 218.9 98 218.9 218.9 0 120.9-98 218.9-218.9 218.9-120.9 0-218.93-98-218.93-218.9 0-120.9 98.03-218.9 218.93-218.9"/>
   <path d="m256 8.36c-136.77 0-247.64 110.87-247.64 247.64 0 136.77 110.87 247.64 247.64 247.64 136.77 0 247.64-110.87 247.64-247.64 0-136.77-110.87-247.64-247.64-247.64m2.942 31.691c120.9 0 218.9 98 218.9 218.9 0 120.9-98 218.9-218.9 218.9-120.9 0-218.93-98-218.93-218.9 0-120.9 98.03-218.9 218.93-218.9"/>
  </g>
  <path d="m253.04 7.86c-135.42 0-245.19 109.78-245.19 245.19 0 135.42 109.78 245.19 245.19 245.19 135.42 0 245.19-109.78 245.19-245.19 0-135.42-109.78-245.19-245.19-245.19m0 26.297c120.9 0 218.9 98 218.9 218.9 0 120.9-98 218.9-218.9 218.9-120.9 0-218.93-98-218.93-218.9 0-120.9 98.03-218.9 218.93-218.9z" fill="#ffffff" stroke="#000000" stroke-opacity=".31" stroke-width="4.904"/>
 </g>
 <path d="m309.43324 120.19839c-.697.006-1.394.007-2.094.031-42.519 1.245-84.87 26.18-101.28 66.47-11.471-11.604-23.481-26.584-42-23.25-28.23.205-58.06 33.604-43.16 61 7.734 9.876 25.14 18.659 3.375 23.406-25.360004 13.539-.948 38.22.719 51.16-14.487 25.13-5.224 58.46 17.281 75.938 30.701 30.549 68.18328 64.27812 98.78328 94.94812 7.966.878 27.57945-2.60047 35.75547-3.22718 120.08-9.20438 194.54906-96.7 195.86906-216.47-36.461-36.471-68.34481-71.39994-104.86781-107.80594-16.624-13.499-36.774-22.362-58.37-22.19" fill-opacity=".235"/>
 <path d="m301.97 124c-17.412.153-33.706 5.096-49.06 12.5-2.571.856-5.144 2.129-8.375 4.063-19.246 11.518-29.543 22.715-41.19 44.844l-6 11.375-1.125-5.188c-6-13.714-13.952-22.19-27.12-24-6.972-.936-14.361-.304-19.375.656-9.05 1.811-20.991 9.344-28.22 18.906-15.522 20.537-13.588 40.497 4.906 50.563 4.417 2.404 9.416 4.442 11.09 4.531 1.677.089.048 1.09-3.625 2.25-21.775 6.876-30.911 20.858-24.531 37.563 1.93 5.05 8.07 12.508 12.875 16.375-.929 1.403-1.787 2.857-2.594 4.344-.971.207-1.716 1.855-2.188 4.594-3.065 7.07-4.781 14.883-4.781 23.09 0 31.809 25.514 57.56 57 57.56 14.582 0 27.7-5.652 37.781-14.75 29.686 13.293 64.56 11.737 93-4.688 8.435 4.981 18.368 7.938 28.844 7.938 30.17 0 54.87-23.717 56.875-53.688.032-7.03.342-6.68-.219-10-.142-1.364-.328-2.698-.563-4.03 4.552-1.866 14.279-11.06 17.13-16.563 7.545-14.589-5.848-39.46-24.781-45.969l-5.719-1.969 4.094-5.531c11.01-14.922 14.419-38.564 8.281-57.719-.831-2.594-1.645-4.656-2.469-6.313-4.568-10.02-11.867-21.947-19.469-28.594-11.776-9.04-22.15-14.703-31.625-18.03-9.95-2.976-19.569-4.206-28.844-4.125m-44.875 144.28c30.24 0 30.778.221 29.75 14.438-.827 11.434-3.788 16.514-13.75 23.563-8.095 5.728-20.311 7.299-28.469 3.625-12.321-5.55-17.969-14.225-17.969-27.438 0-13.696 1.112-14.188 30.438-14.188" fill="#ffffff" transform="translate(2.1694912 -15.186442)"/>
</svg>
