<svg height="512" viewBox="0 0 512 512" width="512" xmlns="http://www.w3.org/2000/svg">
 <g transform="translate(0 -540.36)">
  <path d="m471.95 793.41c0 120.9-98.01 218.9-218.9 218.9-120.9 0-218.9-98.01-218.9-218.9 0-120.9 98.01-218.9 218.9-218.9 120.9 0 218.9 98.01 218.9 218.9" fill="#8f8f8f" fill-rule="evenodd"/>
  <path d="m181.81 88.72c-6.747 0-12.188 4.67-12.188 10.469v356.28c25.714 10.61 53.862 16.5 83.41 16.5 120.9 0 218.91-98.01 218.91-218.91 0-11.171-.823-22.15-2.438-32.875-.062-.002-.125.002-.188 0 .055-.049.101-.108.156-.156-.041-.272-.083-.541-.125-.813-.344-.01-.687-.021-1.031-.031.297-.267.608-.516.906-.781-.008-.053-.023-.104-.031-.156-.604-.019-1.208-.045-1.813-.063.341-.307.691-.598 1.031-.906-.684-.022-1.378-.043-2.063-.063.352-.317.711-.619 1.063-.938-.684-.022-1.378-.043-2.063-.063.352-.317.711-.619 1.063-.938-.687-.022-1.375-.043-2.063-.063.352-.317.711-.619 1.063-.938-.687-.022-1.375-.043-2.063-.063.352-.317.711-.619 1.063-.938-.687-.022-1.375-.043-2.063-.063.351-.316.712-.62 1.063-.938-.666-.021-1.333-.043-2-.063.341-.307.691-.598 1.031-.906-.684-.022-1.378-.043-2.063-.063.352-.317.711-.619 1.063-.938-.684-.022-1.378-.043-2.063-.063.352-.317.711-.619 1.063-.938-.684-.022-1.377-.043-2.063-.063.352-.317.711-.619 1.063-.938-.687-.022-1.375-.043-2.063-.063.352-.317.711-.619 1.063-.938-.687-.022-1.375-.043-2.063-.063.351-.316.712-.62 1.063-.938-.687-.022-1.375-.043-2.063-.063.352-.317.711-.619 1.063-.938-.666-.021-1.333-.043-2-.063.341-.307.691-.598 1.031-.906-.684-.022-1.378-.043-2.063-.063.352-.317.711-.619 1.063-.938-.684-.022-1.377-.043-2.063-.063.352-.317.711-.619 1.063-.938-.687-.022-1.375-.043-2.063-.063.352-.317.711-.619 1.063-.938-.687-.022-1.375-.043-2.063-.063.351-.316.712-.62 1.063-.938-.687-.022-1.375-.043-2.063-.063.351-.316.712-.62 1.063-.938-.666-.021-1.333-.043-2-.063.341-.307.691-.598 1.031-.906-.684-.022-1.378-.043-2.063-.063.352-.317.711-.619 1.063-.938-.684-.022-1.378-.043-2.063-.063.352-.317.711-.619 1.063-.938-.687-.022-1.375-.043-2.063-.063.352-.317.711-.619 1.063-.938-.687-.022-1.375-.043-2.063-.063.351-.316.712-.62 1.063-.938-.687-.022-1.375-.043-2.063-.063.351-.316.712-.62 1.063-.938-.666-.021-1.333-.043-2-.063.341-.307.691-.598 1.031-.906-.684-.022-1.378-.043-2.063-.063.352-.317.711-.619 1.063-.938-.684-.022-1.378-.043-2.063-.063.352-.317.711-.619 1.063-.938-.687-.022-1.375-.043-2.063-.063.352-.317.711-.619 1.063-.938-.687-.022-1.375-.043-2.063-.063.352-.317.711-.619 1.063-.938-.687-.022-1.375-.043-2.063-.063.351-.316.712-.62 1.063-.938-.687-.022-1.375-.043-2.063-.063.352-.317.711-.619 1.063-.938-.666-.021-1.333-.043-2-.063.341-.307.691-.598 1.031-.906-.684-.022-1.378-.043-2.063-.063.352-.317.711-.619 1.063-.938-.684-.022-1.377-.043-2.063-.063.352-.317.711-.619 1.063-.938-.687-.022-1.375-.043-2.063-.063.352-.317.711-.619 1.063-.938-.687-.022-1.375-.043-2.063-.063.351-.316.712-.62 1.063-.938-.687-.022-1.375-.043-2.063-.063.352-.317.711-.619 1.063-.938-.666-.021-1.333-.043-2-.063.341-.307.691-.598 1.031-.906-.684-.022-1.378-.043-2.063-.063.352-.317.711-.619 1.063-.938-.684-.022-1.377-.043-2.063-.063.352-.317.711-.619 1.063-.938-.687-.022-1.375-.043-2.063-.063.352-.317.711-.619 1.063-.938-.687-.022-1.375-.043-2.063-.063.351-.316.712-.62 1.063-.938-.687-.022-1.375-.043-2.063-.063.351-.316.712-.62 1.063-.938-.666-.021-1.333-.043-2-.063.341-.307.691-.598 1.031-.906-.684-.022-1.378-.043-2.063-.063.352-.317.711-.619 1.063-.938-.684-.022-1.378-.043-2.063-.063.352-.317.711-.619 1.063-.938-.687-.022-1.375-.043-2.063-.063.352-.317.711-.619 1.063-.938-.687-.022-1.375-.043-2.063-.063.352-.317.711-.619 1.063-.938-.687-.022-1.375-.043-2.063-.063.351-.316.712-.62 1.063-.938-.666-.021-1.333-.043-2-.063.341-.307.691-.598 1.031-.906-.684-.022-1.378-.043-2.063-.063.352-.317.711-.619 1.063-.938-.684-.022-1.378-.043-2.063-.063.352-.317.711-.619 1.063-.938-.687-.022-1.375-.043-2.063-.063.352-.317.711-.619 1.063-.938-54.2-1.713-111.01 2.694-161.16-8.688-.136-.129-.263-.252-.406-.375-.313-.348-.64-.689-1-1-.309-.342-.614-.694-.969-1-.318-.353-.664-.685-1.031-1-.314-.348-.638-.689-1-1-.259-.287-.521-.551-.813-.813-.355-.412-.736-.794-1.156-1.156-.313-.348-.64-.689-1-1-.309-.342-.614-.694-.969-1-.318-.353-.664-.685-1.031-1-.314-.348-.638-.689-1-1-.304-.336-.589-.698-.938-1-.315-.351-.668-.655-1.031-.969-.313-.348-.64-.689-1-1-.309-.342-.614-.694-.969-1-.318-.353-.664-.685-1.031-1-.314-.348-.638-.689-1-1-.304-.336-.589-.698-.938-1-.315-.351-.668-.655-1.031-.969-.249-.277-.501-.559-.781-.813-.363-.425-.787-.815-1.219-1.188-.309-.342-.614-.694-.969-1-.318-.353-.664-.685-1.031-1-.314-.348-.638-.689-1-1-.259-.287-.521-.551-.813-.813-.355-.412-.736-.794-1.156-1.156-.313-.348-.64-.689-1-1-.309-.342-.614-.694-.969-1-.318-.353-.664-.685-1.031-1-.314-.348-.638-.689-1-1-.259-.287-.521-.551-.813-.813-.355-.412-.736-.794-1.156-1.156-.313-.348-.64-.689-1-1-.309-.342-.614-.694-.969-1-.318-.353-.664-.685-1.031-1-.314-.348-.638-.689-1-1-.304-.336-.589-.698-.938-1-.315-.351-.668-.655-1.031-.969-.249-.277-.501-.559-.781-.813-.363-.425-.787-.815-1.219-1.188-.314-.348-.638-.689-1-1-.314-.348-.638-.689-1-1-.304-.336-.589-.698-.938-1-.315-.351-.668-.655-1.031-.969-.313-.348-.64-.689-1-1-.313-.348-.64-.689-1-1-.309-.342-.614-.694-.969-1-.318-.353-.664-.685-1.031-1-.314-.348-.638-.689-1-1-.259-.287-.521-.551-.813-.813-.355-.412-.736-.794-1.156-1.156-.313-.348-.64-.689-1-1-.309-.342-.614-.694-.969-1-.318-.353-.664-.685-1.031-1-.314-.348-.638-.689-1-1-.304-.336-.589-.698-.938-1-.315-.351-.668-.655-1.031-.969-.313-.348-.64-.689-1-1-.309-.342-.614-.694-.969-1-.318-.353-.664-.685-1.031-1-.314-.348-.638-.689-1-1-.304-.336-.589-.698-.938-1-.315-.351-.668-.655-1.031-.969-.249-.277-.501-.559-.781-.813-2.207-2.585-5.775-4.25-9.813-4.25" fill-opacity=".235" transform="translate(0 540.36)"/>
  <g fill="#ffffff">
   <path d="m199.99 683.31c48.906 57.674 141.12 54.49 217.14 75.952-79.61 42.692-158.81 57.5-244.87 50.46z" fill-opacity=".561"/>
   <path d="m190.84 668.63c61.37 44.18 145.88 33.767 224.83 36.26-66.959 60.63-144.14 94.4-229.36 108.33z"/>
   <rect fill-rule="evenodd" height="386.08" rx="12.18" ry="10.466" width="24.359" x="169.62" y="629.08"/>
  </g>
  <g fill-rule="evenodd">
   <path d="m256 541.36c-140.83 0-255 114.17-255 255s114.17 255 255 255 255-114.17 255-255-114.17-255-255-255m8.827 44.931c120.9 0 218.9 98 218.9 218.9s-98 218.9-218.9 218.9-218.93-98-218.93-218.9 98.03-218.9 218.93-218.9" fill-opacity=".067"/>
   <g fill-opacity=".129">
    <path d="m256 544.79c-138.94 0-251.57 112.63-251.57 251.57s112.63 251.54 251.57 251.54 251.57-112.6 251.57-251.54-112.63-251.57-251.57-251.57m5.885 38.556c120.9 0 218.9 98 218.9 218.9s-98 218.9-218.9 218.9-218.93-98-218.93-218.9 98.03-218.9 218.93-218.9"/>
    <path d="m256 548.72c-136.77 0-247.64 110.87-247.64 247.64s110.87 247.64 247.64 247.64 247.64-110.87 247.64-247.64-110.87-247.64-247.64-247.64m2.942 31.691c120.9 0 218.9 98 218.9 218.9s-98 218.9-218.9 218.9-218.93-98-218.93-218.9 98.03-218.9 218.93-218.9"/>
   </g>
   <path d="m253.04 548.22c-135.42 0-245.19 109.78-245.19 245.19 0 135.42 109.78 245.19 245.19 245.19 135.42 0 245.19-109.78 245.19-245.19 0-135.42-109.78-245.19-245.19-245.19zm0 26.297c120.9 0 218.9 98 218.9 218.9s-98 218.9-218.9 218.9-218.93-98-218.93-218.9 98.03-218.9 218.93-218.9z" fill="#ffffff" stroke="#000000" stroke-opacity=".31" stroke-width="4.904"/>
  </g>
 </g>
</svg>
