<svg height="512" viewBox="0 0 512 512" width="512" xmlns="http://www.w3.org/2000/svg">
 <path d="m471.95 253.05c0 120.9-98.01 218.9-218.9 218.9-120.9 0-218.9-98.01-218.9-218.9 0-120.9 98.01-218.9 218.9-218.9 120.9 0 218.9 98.01 218.9 218.9" fill="#b0b0b0" fill-rule="evenodd"/>
 <path d="m256 1c-140.83 0-255 114.17-255 255 0 140.83 114.17 255 255 255 140.83 0 255-114.17 255-255 0-140.83-114.17-255-255-255m8.827 44.931c120.9 0 218.9 98 218.9 218.9 0 120.9-98 218.9-218.9 218.9-120.9 0-218.93-98-218.93-218.9 0-120.9 98.03-218.9 218.93-218.9" fill-opacity=".067" fill-rule="evenodd"/>
 <g fill-opacity=".129" fill-rule="evenodd">
  <path d="m256 4.433c-138.94 0-251.57 112.63-251.57 251.57 0 138.94 112.63 251.57 251.57 251.57 138.94 0 251.57-112.63 251.57-251.57 0-138.94-112.63-251.57-251.57-251.57m5.885 38.556c120.9 0 218.9 98 218.9 218.9 0 120.9-98 218.9-218.9 218.9-120.9 0-218.93-98-218.93-218.9 0-120.9 98.03-218.9 218.93-218.9"/>
  <path d="m256 8.356c-136.77 0-247.64 110.87-247.64 247.64 0 136.77 110.87 247.64 247.64 247.64 136.77 0 247.64-110.87 247.64-247.64 0-136.77-110.87-247.64-247.64-247.64m2.942 31.691c120.9 0 218.9 98 218.9 218.9 0 120.9-98 218.9-218.9 218.9-120.9 0-218.93-98-218.93-218.9 0-120.9 98.03-218.9 218.93-218.9"/>
 </g>
 <path d="m345.1262 149.15705l-53.68498-45.78723c-68.13086 70.40229-51.32263 41.4615-99.18142 105.42382l104.33455 81.54536c-19.04349 60.69975-102.20501-14.16266-142.95294-11.89793l-.13333 46.79536-18.1313 75.56679 153.29351 68.83825c100.46184-26.34276 174.05944-84.67979 185.48307-217.06366l-16.55271-80.97171-16.16919-18.45053-17.78311-8.29397-25.10586-15.64132-32.43761 28.51317" opacity=".25"/>
 <path d="m381.7742 128.00637c-3.14103 0-5.66979 2.47086-5.66979 5.53998v13.11574c-4.77153 1.17495-9.27819 3.0213-13.39425 5.42747l-9.48836-9.27114c-2.22166-2.17079-5.79648-2.17079-8.01333 0l-9.31466 9.10142c-2.22166 2.17078-2.22166 5.66375 0 7.82986l9.48835 9.27112c-2.46253 4.02089-4.35118 8.42531-5.55463 13.08761h-13.42304c-3.14104 0-5.66979 2.47086-5.66979 5.53998v12.88974c0 3.06912 2.52875 5.53998 5.66979 5.53998h13.42304c1.20249 4.66229 3.0921 9.06578 5.55463 13.08761l-9.48835 9.27113c-2.22166 2.1708-2.22166 5.66375 0 7.82987l9.31466 9.1014c2.22166 2.1708 5.79646 2.1708 8.01333 0l9.48836-9.27113c4.11511 2.40617 8.62272 4.25158 13.39425 5.42746v13.11573c0 3.06913 2.52876 5.53999 5.66979 5.53999h13.19177c3.14104 0 5.6698-2.47086 5.6698-5.53999v-13.11573c4.77152-1.17495 9.27818-3.02129 13.39425-5.42746l9.48836 9.27113c2.22166 2.1708 5.79647 2.1708 8.01333 0l9.31466-9.1014c2.22166-2.1708 2.22166-5.66377 0-7.82987l-9.48835-9.27113c2.46253-4.02089 4.35118-8.42532 5.55462-13.08761h13.42305c3.14103 0 5.66979-2.47086 5.66979-5.53998v-12.88974c0-3.06912-2.52876-5.53998-5.66979-5.53998h-13.42305c-1.20248-4.6623-3.09209-9.06578-5.55462-13.08761l9.48835-9.27112c2.22166-2.1708 2.22166-5.66376 0-7.82986l-9.31466-9.10142c-2.22166-2.17079-5.79646-2.17079-8.01333 0l-9.48836 9.27114c-4.1151-2.40617-8.62273-4.25158-13.39425-5.42747v-13.11574c0-3.06912-2.52876-5.53998-5.6698-5.53998zm6.59589 43.50032c12.77143 0 23.11871 10.10568 23.11871 22.5894 0 12.47904-10.34249 22.58941-23.11871 22.58941-12.77143 0-23.11871-10.1057-23.11871-22.58941 0-12.47903 10.34248-22.5894 23.11871-22.5894z" fill="#ffffff"/>
 <path d="m243.16448 85.440335c-39.43 0-71.5 31.689005-71.5 71.119995 0 39.43 32.07 71.5 71.5 71.5 39.43 0 71.5-32.07 71.5-71.5 0-39.42999-32.07-71.119995-71.5-71.119995m-60.36 160.689995c-35.837 3.414-66.5 53.01-55.742 110.33l8.07 44.21h216.04l8.457-44.21c14.338-76.43-45.517-139.18-92.26-96.88-23.13 20.934-25.306 20.934-48.44 0-11.686-10.576-24.19-14.593-36.14-13.455" fill="#ffffff" fill-rule="evenodd"/>
 <path d="m253.04 7.859c-135.42 0-245.19 109.78-245.19 245.19 0 135.42 109.78 245.19 245.19 245.19 135.42 0 245.19-109.78 245.19-245.19 0-135.42-109.78-245.19-245.19-245.19zm0 26.297c120.9 0 218.9 98 218.9 218.9 0 120.9-98 218.9-218.9 218.9-120.9 0-218.93-98-218.93-218.9 0-120.9 98.03-218.9 218.93-218.9z" fill="#ffffff" fill-rule="evenodd" stroke="#000000" stroke-opacity=".31" stroke-width="4.904"/>
</svg>
