<svg height="512" viewBox="0 0 135.47 135.47" width="512" xmlns="http://www.w3.org/2000/svg">
 <g transform="translate(-44.14762 -140.820239)">
  <g fill-rule="evenodd" transform="matrix(.26458334 0 0 .26458334 44.147613 140.82024)">
   <path d="m471.95 253.05c0 120.9-98.01 218.91-218.91 218.91-120.9 0-218.91-98.01-218.91-218.91 0-120.9 98.01-218.91 218.91-218.91 120.9 0 218.91 98.01 218.91 218.91" fill="#919191"/>
   <path d="m256 1c-140.83 0-255 114.17-255 255 0 140.83 114.17 255 255 255 140.83 0 255-114.17 255-255 0-140.83-114.17-255-255-255m8.827 44.931c120.9 0 218.9 98 218.9 218.9 0 120.9-98 218.9-218.9 218.9-120.9 0-218.93-98-218.93-218.9 0-120.9 98.03-218.9 218.93-218.9" fill-opacity=".067"/>
   <g fill-opacity=".129">
    <path d="m256 4.43c-138.94 0-251.57 112.63-251.57 251.57 0 138.94 112.63 251.57 251.57 251.57 138.94 0 251.57-112.63 251.57-251.57 0-138.94-112.63-251.57-251.57-251.57m5.885 38.556c120.9 0 218.9 98 218.9 218.9 0 120.9-98 218.9-218.9 218.9-120.9 0-218.93-98-218.93-218.9 0-120.9 98.03-218.9 218.93-218.9"/>
    <path d="m256 8.36c-136.77 0-247.64 110.87-247.64 247.64 0 136.77 110.87 247.64 247.64 247.64 136.77 0 247.64-110.87 247.64-247.64 0-136.77-110.87-247.64-247.64-247.64m2.942 31.691c120.9 0 218.9 98 218.9 218.9 0 120.9-98 218.9-218.9 218.9-120.9 0-218.93-98-218.93-218.9 0-120.9 98.03-218.9 218.93-218.9"/>
   </g>
   <path d="m253.04 7.86c-135.42 0-245.19 109.78-245.19 245.19 0 135.42 109.78 245.19 245.19 245.19 135.42 0 245.19-109.78 245.19-245.19 0-135.42-109.78-245.19-245.19-245.19zm0 26.297c120.9 0 218.9 98 218.9 218.9 0 120.9-98 218.9-218.9 218.9-120.9 0-218.93-98-218.93-218.9 0-120.9 98.03-218.9 218.93-218.9z" fill="#ffffff" stroke="#000000" stroke-opacity=".31" stroke-width="4.904"/>
  </g>
  <path d="m83.268907 172.83483c-7.818703 0-14.239347 7.68614-14.239347 17.04446v37.35123l17.047105 17.04711h-.0026l-17.044459-17.04447c0 5.23187 2.006865 9.94093 5.142707 13.07571l24.087667 24.08767c4.13226.93345 8.43068 1.42875 12.84526 1.42875 32.05691 0 58.04429-25.98208 58.04429-58.04165 0-4.41669-.49556-8.71749-1.42981-12.85187l-18.1266-18.1266c.007.007.0127.0135.0191.0201l-.0201-.0201c-2.47333-2.47333-5.64833-3.9677-9.09558-3.96822v-.00053h-57.224088" opacity=".25"/>
  <g transform="matrix(.26458334 0 0 .26458334 -199.80617 89.731846)">
   <rect fill="#ffffff" height="270.01" rx="55.58" width="323.92" x="1016.1" y="314.08"/>
   <g transform="translate(922.03 193.08)">
    <rect fill="#919191" height="219.37" rx="33.23" width="273.91" x="119.04" y="146.31"/>
    <path d="m306.13 158.91v144.38c0 14.925-11.981 26.938-26.906 26.938h-144.44v.5c0 12.388 9.956 22.375 22.344 22.375h197.75c12.388 0 22.344-9.987 22.344-22.375v-149.44c0-12.388-9.956-22.375-22.344-22.375h-48.75" fill="#ffffff"/>
   </g>
   <path d="m1189.9 507.39c12.388 0 22.344-9.987 22.344-22.375v-133.03l-155.44 155.41h133.09" fill="#ffffff"/>
  </g>
 </g>
</svg>
