<svg viewBox="0 0 512 512" xmlns="http://www.w3.org/2000/svg">
 <g fill-rule="evenodd">
  <path d="m471.95 253.05c0 120.9-98.01 218.9-218.9 218.9-120.9 0-218.9-98.01-218.9-218.9 0-120.9 98.01-218.9 218.9-218.9 120.9 0 218.9 98.01 218.9 218.9" fill="#9f9f9f"/>
  <path d="m256 1c-140.83 0-255 114.17-255 255s114.17 255 255 255 255-114.17 255-255-114.17-255-255-255m8.827 44.931c120.9 0 218.9 98 218.9 218.9s-98 218.9-218.9 218.9-218.93-98-218.93-218.9 98.03-218.9 218.93-218.9" fill-opacity=".067"/>
  <g fill-opacity=".129">
   <path d="m256 4.433c-138.94 0-251.57 112.63-251.57 251.57s112.63 251.57 251.57 251.57 251.57-112.63 251.57-251.57-112.63-251.57-251.57-251.57m5.885 38.556c120.9 0 218.9 98 218.9 218.9s-98 218.9-218.9 218.9-218.93-98-218.93-218.9 98.03-218.9 218.93-218.9"/>
   <path d="m256 8.356c-136.77 0-247.64 110.87-247.64 247.64s110.87 247.64 247.64 247.64 247.64-110.87 247.64-247.64-110.87-247.64-247.64-247.64m2.942 31.691c120.9 0 218.9 98 218.9 218.9s-98 218.9-218.9 218.9-218.93-98-218.93-218.9 98.03-218.9 218.93-218.9"/>
  </g>
  <path d="m253.04 7.859c-135.42 0-245.19 109.78-245.19 245.19 0 135.42 109.78 245.19 245.19 245.19 135.42 0 245.19-109.78 245.19-245.19 0-135.42-109.78-245.19-245.19-245.19zm0 26.297c120.9 0 218.9 98 218.9 218.9s-98 218.9-218.9 218.9-218.93-98-218.93-218.9 98.03-218.9 218.93-218.9z" fill="#ffffff" stroke="#000000" stroke-opacity=".31" stroke-width="4.904"/>
 </g>
 <path d="m257.72 80.938c-1.23-.005-2.488.006-3.719.031-54.42.357-107.23 31.393-133.56 79.03-15.09 26.22-22.13 56.976-20.344 87.16l96.84 96.84c-11.811 29.438 7.564 59.17 42.35 95.76l31.484 31.484c112.6-9.02 201.18-103.25 201.18-218.18 0-7.504-.378-14.92-1.115-22.23l-103.08-103.08c-2.05-2.05-4.167-4.04-6.35-5.961-27.887-25.757-65.57-40.681-103.69-40.844" opacity=".25"/>
 <path d="m257.72 80.938c-1.23-.005-2.488.006-3.719.031-54.42.357-107.23 31.393-133.56 79.03-15.09 26.22-22.13 56.976-20.344 87.16h311.84c2.593-46.587-15.482-94.51-50.53-125.37-27.887-25.757-65.57-40.681-103.69-40.844m-11.406 19.969v68.13h-58.938c3.666-19.492 8.684-38.702 15.188-57.47 13.842-5.927 28.811-9.641 43.75-10.656zm19.531.063l.938.063.5.031c14.578 1.08 28.754 4.544 42.22 10.219 6.583 18.85 11.591 38.16 15.313 57.75h-58.969v-68.06m-88.09 24.09c-4.219 14.361-7.721 29.17-10.375 44-4.892-.136-9.804.011-14.719.031s-9.844-.101-14.688-.719c9.953-17.08 24.2-31.93 39.781-43.31m156.91.063c16.11 11.552 29.914 26.695 40 43.906h-29.875c-2.605-14.798-6.449-29.398-10.125-43.906m-206.19 63.47h35.906c-1.822 12.9-2.766 26.01-3.406 39.06h-41.12c.982-13.328 3.879-26.59 8.625-39.06m55.656 0h62.19v39.06h-65.66c.524-13.06 1.678-26.21 3.469-39.06m81.72 0h62.19c1.719 12.908 2.935 25.996 3.438 39.06h-65.62v-39.06m81.906 0h36.03c4.642 12.556 7.538 25.705 8.5 39.06h-41.12c-.641-13.05-1.584-26.16-3.406-39.06m-151.47 85.5l.938.75 32.06 31.875c-57.684 43.04-39.34 81.13 10 133.03-13.437-53.31-3.521-77.62 30.344-92.47 48.886 48.23 40.766 39.582 48.906 48.13v-121.31h-122.25z" fill="#ffffff"/>
</svg>
