<svg height="512" viewBox="0 0 512 512" width="512" xmlns="http://www.w3.org/2000/svg">
 <path d="m471.95 253.05c0 120.9-98.01 218.9-218.9 218.9-120.9 0-218.9-98.01-218.9-218.9 0-120.9 98.01-218.9 218.9-218.9 120.9 0 218.9 98.01 218.9 218.9" fill="#8f8f8f" fill-rule="evenodd"/>
 <path d="m136.71 136.71c-8.983 0-16.273 7.29-16.273 16.273v206.06c0 4.777 2.075 9.05 5.355 12.03.356.391.721.757 1.112 1.113.35.385.693.762 1.078 1.112.328.361.686.713 1.043 1.043.391.435.816.86 1.252 1.252.366.397.744.788 1.147 1.147.32.345.659.657 1.01.973.356.391.721.757 1.112 1.113.316.349.628.689.973 1.01.359.404.75.782 1.147 1.147.391.435.816.86 1.252 1.252.366.397.744.788 1.147 1.147.32.345.659.657 1.01.973.356.391.721.757 1.112 1.113.316.349.628.689.973 1.01.359.404.75.782 1.147 1.147.391.435.816.86 1.252 1.252.324.353.689.686 1.043 1.01.391.431.783.866 1.217 1.252.32.345.659.657 1.01.973.316.349.628.689.973 1.01.387.434.821.826 1.252 1.217.322.355.656.718 1.01 1.043.391.435.816.86 1.252 1.252.366.397.744.788 1.147 1.147.32.345.659.657 1.01.973.356.391.721.757 1.112 1.112.316.349.628.689.973 1.01.359.404.75.782 1.147 1.147.391.435.816.86 1.252 1.252.366.397.744.788 1.147 1.147.32.345.659.657 1.01.973.356.391.721.757 1.113 1.113.316.349.628.689.973 1.01.359.403.75.782 1.147 1.147.391.435.816.86 1.252 1.252.33.358.682.716 1.043 1.043.351.385.727.728 1.113 1.078.356.391.721.757 1.113 1.112.316.349.628.689.973 1.01.359.404.75.782 1.147 1.147.391.435.816.86 1.252 1.252.324.353.689.685 1.043 1.01.391.431.783.866 1.217 1.252.32.345.659.657 1.01.973.356.391.721.757 1.112 1.112.356.391.721.757 1.113 1.113.322.355.656.718 1.01 1.043.391.435.816.86 1.252 1.252.366.397.744.788 1.147 1.147.32.345.659.657 1.01.973.356.391.721.757 1.113 1.113.316.349.628.689.973 1.01.359.404.75.782 1.147 1.147.391.435.816.86 1.252 1.252.366.397.744.788 1.147 1.147.32.345.659.657 1.01.973.356.391.721.757 1.112 1.112.316.349.628.689.973 1.01.359.404.75.782 1.147 1.147.391.435.816.86 1.252 1.252.33.358.682.716 1.043 1.043.386.424.789.836 1.217 1.217.32.345.659.657 1.01.973.316.349.628.689.973 1.01.381.428.793.831 1.217 1.217.328.361.685.713 1.043 1.043.391.435.816.86 1.252 1.252.366.397.744.788 1.147 1.147.32.345.659.657 1.01.973.356.391.721.757 1.113 1.113.316.349.628.689.973 1.01.359.404.75.782 1.147 1.147.391.435.816.86 1.252 1.252.366.397.744.788 1.147 1.147.32.345.659.657 1.01.973.356.391.721.757 1.112 1.112.316.349.628.689.973 1.01.359.404.75.782 1.147 1.147.391.435.816.86 1.252 1.252.324.353.689.685 1.043 1.01.356.391.721.757 1.113 1.113.356.391.721.757 1.112 1.112.316.349.628.689.973 1.01.359.403.75.782 1.147 1.147.391.435.816.86 1.252 1.252.33.358.682.716 1.043 1.043.386.424.789.836 1.217 1.217.32.345.659.657 1.01.973.356.391.721.757 1.113 1.112.35.385.693.762 1.078 1.113.328.361.685.713 1.043 1.043.391.435.816.86 1.252 1.252.366.397.744.788 1.147 1.147.32.345.659.657 1.01.973.356.391.721.757 1.112 1.113.316.349.628.689.973 1.01.359.403.75.782 1.147 1.147.391.435.816.86 1.252 1.252.366.397.744.788 1.147 1.147.32.345.659.657 1.01.973.356.391.721.757 1.113 1.113.316.349.628.689.973 1.01.359.403.75.782 1.147 1.147.391.435.816.86 1.252 1.252.324.353.689.686 1.043 1.01.391.431.783.865 1.217 1.252.32.345.659.657 1.01.973.316.349.628.689.973 1.01.387.434.821.826 1.252 1.217.322.355.656.718 1.01 1.043.391.435.816.86 1.252 1.252.366.397.744.788 1.147 1.147.32.345.659.657 1.01.973.034.037.071.068.105.105.571.004 1.131.035 1.704.035 134.52 0 243.58-109.05 243.58-243.58 0-.592-.03-1.182-.035-1.773-.098-.098-.175-.218-.278-.313-.359-.403-.75-.782-1.147-1.147-.369-.411-.773-.81-1.183-1.183-.408-.449-.831-.885-1.286-1.286-.336-.358-.677-.717-1.043-1.043-.32-.345-.659-.657-1.01-.973-.316-.349-.628-.689-.973-1.01-.359-.403-.75-.782-1.147-1.147-.369-.411-.773-.81-1.183-1.183-.372-.409-.771-.813-1.183-1.183-.366-.397-.744-.788-1.147-1.147-.32-.345-.659-.657-1.01-.973-.316-.349-.628-.689-.973-1.01-.349-.391-.728-.757-1.113-1.112-.359-.403-.75-.782-1.147-1.147-.391-.435-.816-.86-1.252-1.252-.366-.397-.744-.788-1.147-1.147-.32-.345-.659-.657-1.01-.973-.356-.391-.721-.757-1.113-1.113-.316-.349-.628-.689-.973-1.01-.359-.403-.75-.782-1.147-1.147-.391-.435-.816-.86-1.252-1.252-.366-.397-.744-.788-1.147-1.147-.356-.384-.721-.765-1.113-1.112-.32-.345-.659-.657-1.01-.973-.316-.349-.628-.689-.973-1.01-.359-.403-.75-.782-1.147-1.147-.369-.411-.773-.81-1.183-1.183-.372-.409-.771-.813-1.183-1.183-.366-.397-.744-.788-1.147-1.147-.32-.345-.659-.657-1.01-.973-.316-.349-.628-.689-.973-1.01-.349-.391-.728-.757-1.113-1.112-.359-.403-.75-.782-1.147-1.147-.391-.435-.816-.86-1.252-1.252-.366-.397-.744-.788-1.147-1.147-.32-.345-.659-.657-1.01-.973-.356-.391-.721-.757-1.112-1.113-.316-.349-.628-.689-.973-1.01-.359-.403-.75-.782-1.147-1.147-.391-.435-.816-.86-1.252-1.252-.366-.397-.744-.788-1.147-1.147-.32-.345-.659-.657-1.01-.973-.356-.391-.721-.757-1.113-1.113-.316-.349-.628-.689-.973-1.01-.359-.403-.75-.782-1.147-1.147-.391-.435-.816-.86-1.252-1.252-.366-.397-.744-.788-1.147-1.147-.356-.384-.721-.765-1.112-1.113-.32-.345-.659-.657-1.01-.973-.316-.349-.628-.689-.973-1.01-.359-.403-.75-.782-1.147-1.147-.369-.411-.773-.81-1.183-1.183-.372-.409-.771-.813-1.183-1.183-.366-.397-.744-.788-1.147-1.147-.32-.345-.659-.657-1.01-.973-.316-.349-.628-.689-.973-1.01-.349-.391-.728-.757-1.113-1.113-.359-.403-.75-.782-1.147-1.147-.391-.435-.816-.86-1.252-1.252-.366-.397-.744-.788-1.147-1.147-.32-.345-.659-.657-1.01-.973-.356-.391-.721-.757-1.113-1.113-.316-.349-.628-.689-.973-1.01-.359-.403-.75-.782-1.147-1.147-.391-.435-.816-.86-1.252-1.252-.366-.397-.744-.788-1.147-1.147-.32-.345-.659-.657-1.01-.973-.356-.391-.721-.757-1.112-1.112-.316-.349-.628-.689-.973-1.01-.359-.403-.75-.782-1.147-1.147-.369-.411-.773-.81-1.183-1.183-.372-.409-.771-.813-1.183-1.183-.366-.397-.744-.788-1.147-1.147-.32-.345-.659-.657-1.01-.973-.316-.349-.628-.689-.973-1.01-.359-.403-.75-.782-1.147-1.147-.369-.411-.773-.81-1.183-1.183-.372-.409-.771-.813-1.183-1.183-.366-.397-.744-.788-1.147-1.147-.32-.345-.659-.657-1.01-.973-.356-.391-.721-.757-1.113-1.113-.316-.349-.628-.689-.973-1.01-.359-.403-.75-.782-1.147-1.147-.391-.435-.816-.86-1.252-1.252-.366-.397-.744-.788-1.147-1.147-.32-.345-.659-.657-1.01-.973-.356-.391-.721-.757-1.112-1.113-.316-.349-.628-.689-.973-1.01-.359-.403-.75-.782-1.147-1.147-.391-.435-.816-.86-1.252-1.252-.366-.397-.744-.788-1.147-1.147-.356-.384-.721-.765-1.113-1.112-.32-.345-.659-.657-1.01-.973-.316-.349-.628-.689-.973-1.01-.359-.403-.75-.782-1.147-1.147-.369-.411-.773-.81-1.183-1.183-.372-.409-.771-.813-1.183-1.183-.366-.397-.744-.788-1.147-1.147-2.97-3.205-7.211-5.216-11.927-5.216h-238.61" fill-opacity=".235"/>
 <g fill-rule="evenodd">
  <path d="m256 1c-140.83 0-255 114.17-255 255s114.17 255 255 255 255-114.17 255-255-114.17-255-255-255m8.827 44.931c120.9 0 218.9 98 218.9 218.9s-98 218.9-218.9 218.9-218.93-98-218.93-218.9 98.03-218.9 218.93-218.9" fill-opacity=".067"/>
  <g fill-opacity=".129">
   <path d="m256 4.433c-138.94 0-251.57 112.63-251.57 251.57s112.63 251.57 251.57 251.57 251.57-112.63 251.57-251.57-112.63-251.57-251.57-251.57m5.885 38.556c120.9 0 218.9 98 218.9 218.9s-98 218.9-218.9 218.9-218.93-98-218.93-218.9 98.03-218.9 218.93-218.9"/>
   <path d="m256 8.356c-136.77 0-247.64 110.87-247.64 247.64s110.87 247.64 247.64 247.64 247.64-110.87 247.64-247.64-110.87-247.64-247.64-247.64m2.942 31.691c120.9 0 218.9 98 218.9 218.9s-98 218.9-218.9 218.9-218.93-98-218.93-218.9 98.03-218.9 218.93-218.9"/>
  </g>
  <path d="m253.04 7.859c-135.42 0-245.19 109.78-245.19 245.19 0 135.42 109.78 245.19 245.19 245.19 135.42 0 245.19-109.78 245.19-245.19 0-135.42-109.78-245.19-245.19-245.19zm0 26.297c120.9 0 218.9 98 218.9 218.9s-98 218.9-218.9 218.9-218.93-98-218.93-218.9 98.03-218.9 218.93-218.9z" fill="#ffffff" stroke="#000000" stroke-opacity=".31" stroke-width="4.904"/>
 </g>
 <g fill="#ffffff">
  <path d="m136.72 136.72c-8.982 0-16.281 7.268-16.281 16.25v24.875h271.13v-24.87c0-8.985-7.265-16.25-16.25-16.25h-238.59m168.06 10.813c5.978 0 10.875 4.894 10.875 10.875s-4.897 10.813-10.875 10.813-10.813-4.832-10.813-10.813 4.834-10.875 10.813-10.875m29.844 0c5.978 0 10.844 4.894 10.844 10.875s-4.866 10.813-10.844 10.813-10.813-4.832-10.813-10.813 4.834-10.875 10.813-10.875m29.813 0c5.978 0 10.844 4.894 10.844 10.875s-4.866 10.813-10.844 10.813-10.844-4.832-10.844-10.813 4.866-10.875 10.844-10.875"/>
  <path d="m120.44 192.24v166.76c0 8.982 7.305 16.287 16.287 16.287h238.58c8.985 0 16.254-7.308 16.254-16.287v-166.76h-271.13"/>
 </g>
</svg>
