<svg height="512" viewBox="0 0 512 512" width="512" xmlns="http://www.w3.org/2000/svg">
 <path d="m471.95 253.05c0 120.9-98.01 218.9-218.9 218.9-120.9 0-218.9-98.01-218.9-218.9 0-120.9 98.01-218.9 218.9-218.9 120.9 0 218.9 98.01 218.9 218.9" fill="#8f8f8f" fill-rule="evenodd"/>
 <path d="m136.71 136.71c-8.983 0-16.273 7.29-16.273 16.273v206.06c0 4.777 2.075 9.05 5.355 12.03.356.391.721.757 1.112 1.113.35.385.693.762 1.078 1.112.328.361.686.713 1.043 1.043.391.435.816.86 1.252 1.252.366.397.744.788 1.147 1.147.32.345.659.657 1.01.973.356.391.721.757 1.112 1.113.316.349.628.689.973 1.01.359.404.75.782 1.147 1.147.391.435.816.86 1.252 1.252.366.397.744.788 1.147 1.147.32.345.659.657 1.01.973.356.391.721.757 1.112 1.113.316.349.628.689.973 1.01.359.404.75.782 1.147 1.147.391.435.816.86 1.252 1.252.324.353.689.686 1.043 1.01.391.431.783.866 1.217 1.252.32.345.659.657 1.01.973.316.349.628.689.973 1.01.387.434.821.826 1.252 1.217.322.355.656.718 1.01 1.043.391.435.816.86 1.252 1.252.366.397.744.788 1.147 1.147.32.345.659.657 1.01.973.356.391.721.757 1.112 1.112.316.349.628.689.973 1.01.359.404.75.782 1.147 1.147.391.435.816.86 1.252 1.252.366.397.744.788 1.147 1.147.32.345.659.657 1.01.973.356.391.721.757 1.113 1.113.316.349.628.689.973 1.01.359.403.75.782 1.147 1.147.391.435.816.86 1.252 1.252.33.358.682.716 1.043 1.043.351.385.727.728 1.113 1.078.356.391.721.757 1.113 1.112.316.349.628.689.973 1.01.359.404.75.782 1.147 1.147.391.435.816.86 1.252 1.252.324.353.689.685 1.043 1.01.391.431.783.866 1.217 1.252.32.345.659.657 1.01.973.356.391.721.757 1.112 1.112.356.391.721.757 1.113 1.113.322.355.656.718 1.01 1.043.391.435.816.86 1.252 1.252.366.397.744.788 1.147 1.147.32.345.659.657 1.01.973.356.391.721.757 1.113 1.113.316.349.628.689.973 1.01.359.404.75.782 1.147 1.147.391.435.816.86 1.252 1.252.366.397.744.788 1.147 1.147.32.345.659.657 1.01.973.356.391.721.757 1.112 1.112.316.349.628.689.973 1.01.359.404.75.782 1.147 1.147.391.435.816.86 1.252 1.252.33.358.682.716 1.043 1.043.386.424.789.836 1.217 1.217.32.345.659.657 1.01.973.316.349.628.689.973 1.01.381.428.793.831 1.217 1.217.328.361.685.713 1.043 1.043.391.435.816.86 1.252 1.252.366.397.744.788 1.147 1.147.32.345.659.657 1.01.973.356.391.721.757 1.113 1.113.316.349.628.689.973 1.01.359.404.75.782 1.147 1.147.391.435.816.86 1.252 1.252.366.397.744.788 1.147 1.147.32.345.659.657 1.01.973.356.391.721.757 1.112 1.112.316.349.628.689.973 1.01.359.404.75.782 1.147 1.147.391.435.816.86 1.252 1.252.324.353.689.685 1.043 1.01.356.391.721.757 1.113 1.113.356.391.721.757 1.112 1.112.316.349.628.689.973 1.01.359.403.75.782 1.147 1.147.391.435.816.86 1.252 1.252.33.358.682.716 1.043 1.043.386.424.789.836 1.217 1.217.32.345.659.657 1.01.973.356.391.721.757 1.113 1.112.35.385.693.762 1.078 1.113.328.361.685.713 1.043 1.043.391.435.816.86 1.252 1.252.366.397.744.788 1.147 1.147.32.345.659.657 1.01.973.356.391.721.757 1.112 1.113.316.349.628.689.973 1.01.359.403.75.782 1.147 1.147.391.435.816.86 1.252 1.252.366.397.744.788 1.147 1.147.32.345.659.657 1.01.973.356.391.721.757 1.113 1.113.316.349.628.689.973 1.01.359.403.75.782 1.147 1.147.391.435.816.86 1.252 1.252.324.353.689.686 1.043 1.01.391.431.783.865 1.217 1.252.32.345.659.657 1.01.973.316.349.628.689.973 1.01.387.434.821.826 1.252 1.217.322.355.656.718 1.01 1.043.391.435.816.86 1.252 1.252.366.397.744.788 1.147 1.147.32.345.659.657 1.01.973.034.037.071.068.105.105.571.004 1.131.035 1.704.035 134.52 0 243.58-109.05 243.58-243.58 0-.592-.03-1.182-.035-1.773-.098-.098-.175-.218-.278-.313-.359-.403-.75-.782-1.147-1.147-.369-.411-.773-.81-1.183-1.183-.408-.449-.831-.885-1.286-1.286-.336-.358-.677-.717-1.043-1.043-.32-.345-.659-.657-1.01-.973-.316-.349-.628-.689-.973-1.01-.359-.403-.75-.782-1.147-1.147-.369-.411-.773-.81-1.183-1.183-.372-.409-.771-.813-1.183-1.183-.366-.397-.744-.788-1.147-1.147-.32-.345-.659-.657-1.01-.973-.316-.349-.628-.689-.973-1.01-.349-.391-.728-.757-1.113-1.112-.359-.403-.75-.782-1.147-1.147-.391-.435-.816-.86-1.252-1.252-.366-.397-.744-.788-1.147-1.147-.32-.345-.659-.657-1.01-.973-.356-.391-.721-.757-1.113-1.113-.316-.349-.628-.689-.973-1.01-.359-.403-.75-.782-1.147-1.147-.391-.435-.816-.86-1.252-1.252-.366-.397-.744-.788-1.147-1.147-.356-.384-.721-.765-1.113-1.112-.32-.345-.659-.657-1.01-.973-.316-.349-.628-.689-.973-1.01-.359-.403-.75-.782-1.147-1.147-.369-.411-.773-.81-1.183-1.183-.372-.409-.771-.813-1.183-1.183-.366-.397-.744-.788-1.147-1.147-.32-.345-.659-.657-1.01-.973-.316-.349-.628-.689-.973-1.01-.349-.391-.728-.757-1.113-1.112-.359-.403-.75-.782-1.147-1.147-.391-.435-.816-.86-1.252-1.252-.366-.397-.744-.788-1.147-1.147-.32-.345-.659-.657-1.01-.973-.356-.391-.721-.757-1.112-1.113-.316-.349-.628-.689-.973-1.01-.359-.403-.75-.782-1.147-1.147-.391-.435-.816-.86-1.252-1.252-.366-.397-.744-.788-1.147-1.147-.32-.345-.659-.657-1.01-.973-.356-.391-.721-.757-1.113-1.113-.316-.349-.628-.689-.973-1.01-.359-.403-.75-.782-1.147-1.147-.391-.435-.816-.86-1.252-1.252-.366-.397-.744-.788-1.147-1.147-.356-.384-.721-.765-1.112-1.113-.32-.345-.659-.657-1.01-.973-.316-.349-.628-.689-.973-1.01-.359-.403-.75-.782-1.147-1.147-.369-.411-.773-.81-1.183-1.183-.372-.409-.771-.813-1.183-1.183-.366-.397-.744-.788-1.147-1.147-.32-.345-.659-.657-1.01-.973-.316-.349-.628-.689-.973-1.01-.349-.391-.728-.757-1.113-1.113-.359-.403-.75-.782-1.147-1.147-.391-.435-.816-.86-1.252-1.252-.366-.397-.744-.788-1.147-1.147-.32-.345-.659-.657-1.01-.973-.356-.391-.721-.757-1.113-1.113-.316-.349-.628-.689-.973-1.01-.359-.403-.75-.782-1.147-1.147-.391-.435-.816-.86-1.252-1.252-.366-.397-.744-.788-1.147-1.147-.32-.345-.659-.657-1.01-.973-.356-.391-.721-.757-1.112-1.112-.316-.349-.628-.689-.973-1.01-.359-.403-.75-.782-1.147-1.147-.369-.411-.773-.81-1.183-1.183-.372-.409-.771-.813-1.183-1.183-.366-.397-.744-.788-1.147-1.147-.32-.345-.659-.657-1.01-.973-.316-.349-.628-.689-.973-1.01-.359-.403-.75-.782-1.147-1.147-.369-.411-.773-.81-1.183-1.183-.372-.409-.771-.813-1.183-1.183-.366-.397-.744-.788-1.147-1.147-.32-.345-.659-.657-1.01-.973-.356-.391-.721-.757-1.113-1.113-.316-.349-.628-.689-.973-1.01-.359-.403-.75-.782-1.147-1.147-.391-.435-.816-.86-1.252-1.252-.366-.397-.744-.788-1.147-1.147-.32-.345-.659-.657-1.01-.973-.356-.391-.721-.757-1.112-1.113-.316-.349-.628-.689-.973-1.01-.359-.403-.75-.782-1.147-1.147-.391-.435-.816-.86-1.252-1.252-.366-.397-.744-.788-1.147-1.147-.356-.384-.721-.765-1.113-1.112-.32-.345-.659-.657-1.01-.973-.316-.349-.628-.689-.973-1.01-.359-.403-.75-.782-1.147-1.147-.369-.411-.773-.81-1.183-1.183-.372-.409-.771-.813-1.183-1.183-.366-.397-.744-.788-1.147-1.147-2.97-3.205-7.211-5.216-11.927-5.216h-238.61" fill-opacity=".235"/>
 <g fill-rule="evenodd">
  <path d="m256 1c-140.83 0-255 114.17-255 255s114.17 255 255 255 255-114.17 255-255-114.17-255-255-255m8.827 44.931c120.9 0 218.9 98 218.9 218.9s-98 218.9-218.9 218.9-218.93-98-218.93-218.9 98.03-218.9 218.93-218.9" fill-opacity=".067"/>
  <g fill-opacity=".129">
   <path d="m256 4.433c-138.94 0-251.57 112.63-251.57 251.57s112.63 251.57 251.57 251.57 251.57-112.63 251.57-251.57-112.63-251.57-251.57-251.57m5.885 38.556c120.9 0 218.9 98 218.9 218.9s-98 218.9-218.9 218.9-218.93-98-218.93-218.9 98.03-218.9 218.93-218.9"/>
   <path d="m256 8.356c-136.77 0-247.64 110.87-247.64 247.64s110.87 247.64 247.64 247.64 247.64-110.87 247.64-247.64-110.87-247.64-247.64-247.64m2.942 31.691c120.9 0 218.9 98 218.9 218.9s-98 218.9-218.9 218.9-218.93-98-218.93-218.9 98.03-218.9 218.93-218.9"/>
  </g>
  <path d="m253.04 7.859c-135.42 0-245.19 109.78-245.19 245.19 0 135.42 109.78 245.19 245.19 245.19 135.42 0 245.19-109.78 245.19-245.19 0-135.42-109.78-245.19-245.19-245.19zm0 26.297c120.9 0 218.9 98 218.9 218.9s-98 218.9-218.9 218.9-218.93-98-218.93-218.9 98.03-218.9 218.93-218.9z" fill="#ffffff" stroke="#000000" stroke-opacity=".31" stroke-width="4.904"/>
 </g>
 <path d="m136.72 136.71c-8.982 0-16.287 7.272-16.287 16.254v24.889h271.13v-24.889c0-8.985-7.27-16.254-16.254-16.254h-238.58m168.07 10.825c5.978 0 10.858 4.877 10.858 10.858s-4.88 10.825-10.858 10.825-10.825-4.845-10.825-10.825c0-5.981 4.847-10.858 10.825-10.858m29.827 0c5.978 0 10.858 4.877 10.858 10.858s-4.88 10.825-10.858 10.825-10.825-4.845-10.825-10.825c0-5.981 4.847-10.858 10.825-10.858m29.827 0c5.978 0 10.825 4.877 10.825 10.858s-4.847 10.825-10.825 10.825-10.858-4.845-10.858-10.825c0-5.981 4.88-10.858 10.858-10.858m-244.01 44.708v166.76c0 8.982 7.305 16.287 16.287 16.287h238.58c8.985 0 16.254-7.308 16.254-16.287v-166.76h-271.13m121.27 55.6h28.617c5.281 0 9.419 4.287 9.419 9.55v17.334c8.692 2.258 17.07 5.747 24.66 10.237l12.363-12.297c3.725-3.728 9.779-3.728 13.507 0l20.245 20.277c3.727 3.728 3.727 9.779 0 13.507l-12.297 12.297c4.487 7.597 7.978 15.976 10.237 24.66h17.334c5.273 0 9.517 4.151 9.517 9.419v6.149h-72.31c-3.882-22.455-23.402-39.541-46.965-39.541s-43.12 17.09-46.997 39.541h-72.31v-6.116c0-5.279 4.279-9.452 9.55-9.452h17.334c2.256-8.687 5.747-17.03 10.237-24.627l-12.297-12.363c-3.73-3.728-3.727-9.779 0-13.507l20.244-20.245c3.725-3.728 9.78-3.728 13.507 0l12.33 12.297c7.594-4.484 15.973-7.978 24.66-10.237v-17.334c0-5.271 4.148-9.55 9.419-9.55" fill="#ffffff"/>
</svg>
