<svg height="512" viewBox="0 0 512 512" width="512" xmlns="http://www.w3.org/2000/svg">
 <g fill-rule="evenodd">
  <path d="m471.95 253.05c0 120.9-98.01 218.91-218.91 218.91s-218.91-98.01-218.91-218.91 98.01-218.91 218.91-218.91 218.91 98.01 218.91 218.91" fill="#b0b0b0"/>
  <path d="m256 1c-140.83 0-255 114.17-255 255s114.17 255 255 255 255-114.17 255-255-114.17-255-255-255m8.827 44.931c120.9 0 218.9 98 218.9 218.9s-98 218.9-218.9 218.9-218.93-98-218.93-218.9 98.03-218.9 218.93-218.9" fill-opacity=".067"/>
  <g fill-opacity=".129">
   <path d="m256 4.43c-138.94 0-251.57 112.63-251.57 251.57s112.63 251.57 251.57 251.57 251.57-112.63 251.57-251.57-112.63-251.57-251.57-251.57m5.885 38.556c120.9 0 218.9 98 218.9 218.9s-98 218.9-218.9 218.9-218.93-98-218.93-218.9 98.03-218.9 218.93-218.9"/>
   <path d="m256 8.36c-136.77 0-247.64 110.87-247.64 247.64s110.87 247.64 247.64 247.64 247.64-110.87 247.64-247.64-110.87-247.64-247.64-247.64m2.942 31.691c120.9 0 218.9 98 218.9 218.9s-98 218.9-218.9 218.9-218.93-98-218.93-218.9 98.03-218.9 218.93-218.9"/>
  </g>
  <path d="m253.04 7.86c-135.42 0-245.19 109.78-245.19 245.19 0 135.42 109.78 245.19 245.19 245.19 135.42 0 245.19-109.78 245.19-245.19 0-135.42-109.78-245.19-245.19-245.19zm0 26.297c120.9 0 218.9 98 218.9 218.9s-98 218.9-218.9 218.9-218.93-98-218.93-218.9 98.03-218.9 218.93-218.9z" fill="#ffffff" stroke="#000000" stroke-opacity=".31" stroke-width="4.904"/>
 </g>
 <path d="m164.43868 130.80719l160.68 160.67999-14.818 9.443-159.83-159.82999 17.463 115.18999-12.92 115.22 100.5 100.5c95.1-1.722 175.38-64.08 203.82-150.06l-81.37-81.37-102.61-56.2 84.79 84.79-.137.088-85.1-85.1-110.48-53.34999" opacity=".25"/>
 <path d="m159.66868 129.81719a9.8112 9.8112 0 0 0 -9.1969 11.285l17.463 115.18999-12.921 115.22a9.8112 9.8112 0 0 0 14.472 9.6765l111.15-61.36a9.8112 9.8112 0 0 0 .5078-.31033l97.39-62.07a9.8112 9.8112 0 0 0 -.56424-16.87l-102.6-56.2a9.8112 9.8112 0 0 0 -.45139-.22569l-110.48-53.33999a9.8112 9.8112 0 0 0 -4.7677-.9874" fill="#ffffff"/>
</svg>
