<svg height="512" viewBox="0 0 512 512" width="512" xmlns="http://www.w3.org/2000/svg">
 <g fill-rule="evenodd" transform="translate(0 -540.36)">
  <path d="m471.95 793.41c0 120.9-98.01 218.9-218.9 218.9-120.9 0-218.9-98.01-218.9-218.9 0-120.9 98.01-218.9 218.9-218.9 120.9 0 218.9 98.01 218.9 218.9" fill="#878787"/>
  <path d="m217.16 121.69c-68.59 0-68.875 73.875-68.875 73.875v83.969c0 15.796 10.823 36.876 21.375 47.41.212.211.415.419.625.625.122.124.253.254.375.375.318.317.654.601.969.906.015.015.016.047.031.063.246.238.506.488.75.719.086.088.164.195.25.281.246.245.475.481.719.719.091.092.191.191.281.281.238.23.483.464.719.688.096.097.186.217.281.313.095.092.186.19.281.281.228.237.459.491.688.719.212.211.415.419.625.625.122.124.253.254.375.375.212.211.415.419.625.625.122.124.253.254.375.375.246.246.506.449.75.688.086.088.164.195.25.281.262.262.521.497.781.75.076.077.143.174.219.25.238.23.483.464.719.688.096.097.186.217.281.313.238.23.483.464.719.688.096.097.186.217.281.313.095.092.186.19.281.281.228.237.459.491.688.719.212.211.415.419.625.625.122.124.253.254.375.375.246.246.506.449.75.688.086.088.164.195.25.281.262.262.521.497.781.75.076.077.143.174.219.25.238.23.483.464.719.688.096.097.186.217.281.313.238.23.483.464.719.688.096.097.186.217.281.313.095.092.186.19.281.281.228.237.459.491.688.719.212.211.415.419.625.625.122.124.253.254.375.375.318.317.654.601.969.906.015.015.016.047.031.063.246.238.506.488.75.719.086.088.164.195.25.281.246.245.475.481.719.719.091.092.191.191.281.281.238.23.483.464.719.688.096.097.186.217.281.313.095.092.186.19.281.281.228.237.459.491.688.719.212.211.415.419.625.625.122.124.253.254.375.375.228.227.461.435.688.656.106.108.207.238.313.344.246.246.506.449.75.688.086.088.164.195.25.281.246.245.475.481.719.719.091.092.191.191.281.281.238.23.483.464.719.688.096.097.186.217.281.313.095.092.186.19.281.281.228.237.459.491.688.719h.031c.095.092.186.19.281.281.228.237.459.491.688.719.212.211.415.419.625.625.122.124.253.254.375.375.246.246.506.449.75.688.086.088.164.195.25.281.262.262.521.497.781.75.076.077.143.174.219.25.238.23.483.464.719.688.096.097.186.217.281.313.238.23.483.464.719.688.096.097.186.217.281.313.048.046.109.079.156.125.005.005-.005.026 0 .031 1.98 5.912 5.421 11.07 9.75 15.25.216.223.436.438.656.656.086.092.163.191.25.281.026.026.067.037.094.063.213.22.439.441.656.656.086.092.163.191.25.281.026.025.068.037.094.063.293.303.573.613.875.906l.031.031c.021.021.041.042.063.063.409.424.823.845 1.25 1.25.366.372.745.737 1.125 1.094.208.21.412.42.625.625.329.341.66.672 1 1 .216.223.436.438.656.656.086.092.163.191.25.281.026.026.067.037.094.063.293.303.573.613.875.906l.031.031c.021.021.041.042.063.063.329.341.66.672 1 1 .448.465.905.902 1.375 1.344.208.21.412.42.625.625.329.341.66.672 1 1 .216.223.436.438.656.656.086.092.163.191.25.281.026.026.067.037.094.063.293.303.573.613.875.906l.031.031c.021.021.041.042.063.063.329.341.66.672 1 1 .407.422.826.816 1.25 1.219.371.378.74.763 1.125 1.125.208.21.412.42.625.625.216.223.436.438.656.656.086.092.163.191.25.281.026.026.067.037.094.063.213.22.439.441.656.656.086.092.163.191.25.281.026.025.068.037.094.063.293.303.573.613.875.906l.031.031c.021.021.041.042.063.063.436.452.887.882 1.344 1.313.341.345.678.699 1.031 1.031.208.21.412.42.625.625.329.341.66.672 1 1 .216.223.436.438.656.656.086.092.163.191.25.281.026.026.067.037.094.063.293.303.573.613.875.906l.031.031c.021.021.041.042.063.063.409.424.823.845 1.25 1.25.366.372.745.737 1.125 1.094.208.21.412.42.625.625.329.341.66.672 1 1 .216.223.436.438.656.656.086.092.163.191.25.281.026.026.067.037.094.063.293.303.573.613.875.906l.031.031c.021.021.041.042.063.063.329.341.66.672 1 1 .407.422.826.816 1.25 1.219.371.378.74.763 1.125 1.125.208.21.412.42.625.625.216.223.436.438.656.656.086.092.163.191.25.281.026.026.067.037.094.063.293.303.573.613.875.906l.031.031c.021.021.041.042.063.063.329.341.66.672 1 1 .436.452.887.882 1.344 1.313.341.345.678.699 1.031 1.031.208.21.412.42.625.625.216.223.436.438.656.656.086.092.163.191.25.281.026.026.067.037.094.063.213.22.439.441.656.656.086.092.163.191.25.281.026.025.068.037.094.063.293.303.573.613.875.906l.031.031c.021.021.041.042.063.063.409.424.823.845 1.25 1.25.366.372.745.737 1.125 1.094.208.21.412.42.625.625.329.341.66.672 1 1 .216.223.436.438.656.656.086.092.163.191.25.281.026.026.067.037.094.063.293.303.573.613.875.906l.031.031c.021.021.041.042.063.063.409.424.823.845 1.25 1.25.366.372.745.737 1.125 1.094.208.21.412.42.625.625.329.341.66.672 1 1 .216.223.436.438.656.656.086.092.163.191.25.281.026.026.067.037.094.063.293.303.573.613.875.906l.031.031c.021.021.041.042.063.063.329.341.66.672 1 1 .407.422.826.816 1.25 1.219.371.378.74.763 1.125 1.125.208.21.412.42.625.625.216.223.436.438.656.656.086.092.163.191.25.281.026.026.067.037.094.063.213.22.439.441.656.656.086.092.163.191.25.281.026.025.068.037.094.063.293.303.573.613.875.906l.031.031c.021.021.041.042.063.063.436.452.887.882 1.344 1.313.341.345.678.699 1.031 1.031.208.21.412.42.625.625.216.223.436.438.656.656.086.092.163.191.25.281.026.026.067.037.094.063.213.22.439.441.656.656.086.092.163.191.25.281.026.025.068.037.094.063.293.303.573.613.875.906l.031.031c.021.021.041.042.063.063.409.424.823.845 1.25 1.25.366.372.745.737 1.125 1.094.208.21.412.42.625.625.329.341.66.672 1 1 .216.223.436.438.656.656.086.092.163.191.25.281.026.026.067.037.094.063.293.303.573.613.875.906l.031.031c.021.021.041.042.063.063.329.341.66.672 1 1 .407.422.826.816 1.25 1.219.371.378.74.763 1.125 1.125.208.21.412.42.625.625.216.223.436.438.656.656.086.092.163.191.25.281.026.026.067.037.094.063.293.303.573.613.875.906l.031.031c.021.021.041.042.063.063.329.341.66.672 1 1 .407.422.826.816 1.25 1.219.371.378.74.763 1.125 1.125l.031.031c92.29-21.721 162.04-101.83 168.13-199.22h-.563v-1h-1v-1h-1v-1h-1v-1h-1v-.969h-1v-1h-.969v-1h-1v-1h-1v-1h-1v-1h-1v-1h-1v-.969h-.969v-1h-1v-1h-1v-1h-1v-1h-1v-1h-1v-.969h-.969v-1h-1v-1h-1v-1h-1v-1h-1v-1h-1v-.969h-.969v-1h-1v-1h-1v-1h-1v-1h-1v-1h-1v-1h-1v-.969h-.969v-1h-1v-1h-1v-1h-1v-1h-1v-1h-1v-.969h-.969v-1h-1v-1h-1v-1h-1v-1h-1v-1h-1v-.969h-.969v-1h-1v-1h-1v-1h-1v-1h-1v-1h-1v-.969h-1v-1h-.969v-1h-1v-1h-1v-1h-1v-1h-1v-1h-1v-.969h-.969v-1h-1v-1h-1v-1h-1v-1h-1v-1h-1v-.969h-.969v-1h-1v-1h-1v-1h-1v-1h-1v-1h-1v-.969h-.969v-1h-1v-1h-1v-1h-1v-1h-1v-1h-1v-1h-1v-.969h-.969v-1h-1v-1h-1v-1h-1v-1h-1v-1h-1v-.969h-.969v-1h-1v-1h-1v-1h-1v-1h-1v-1h-1v-.969h-.969v-1h-1v-1h-1v-1h-1v-1h-1v-1h-1v-.969h-.969v-1h-1v-1h-1v-1h-1v-1h-1v-1h-1v-1h-1v-.969h-.969v-1h-1v-1h-1v-1h-1v-1h-1v-1h-1v-.969h-.969v-1h-1v-1h-1v-1h-1v-1h-1v-1h-1v-.969h-.969v-1h-1v-1h-1v-1h-1v-1h-1v-1h-1v-1h-1v-.969h-.969v-1h-1v-1h-1v-1h-1v-1h-1.001v-1h-1v-.969h-.969v-1h-1v-1h-1v-1h-1.001v-1h-1v-1h-1v-.969h-.969v-1h-1v-1h-1v-1h-1v-1h-15.938c-.093.244-15.969 41.969-15.969 41.969h-7.687c-.102-.105-.21-.208-.313-.313-.147-.142-.289-.297-.438-.438-.182-.19-.377-.374-.563-.563-.147-.142-.289-.297-.438-.438-.182-.19-.377-.374-.563-.563-.147-.142-.289-.297-.438-.438-.324-.338-.666-.668-1-1-.182-.19-.377-.374-.563-.563-.143-.139-.293-.269-.438-.406-.189-.197-.37-.398-.563-.594-.143-.139-.293-.269-.438-.406-.179-.187-.349-.377-.531-.563-.084-.081-.166-.169-.25-.25-.063-.063-.124-.125-.188-.188-.182-.19-.377-.374-.563-.563-.147-.142-.289-.297-.438-.438-.182-.19-.377-.374-.563-.563-.147-.142-.289-.297-.438-.438-.182-.19-.377-.374-.563-.563-.147-.142-.289-.297-.438-.438-.324-.338-.666-.668-1-1-.182-.19-.377-.374-.563-.563-.143-.139-.293-.269-.438-.406-.189-.197-.37-.398-.563-.594-.075-.073-.143-.147-.219-.219-.063-.063-.124-.125-.188-.188-.182-.19-.377-.374-.563-.563-.147-.142-.289-.297-.438-.438-.182-.19-.377-.374-.563-.563-.147-.142-.289-.297-.438-.438-.182-.19-.377-.374-.563-.563-.147-.142-.289-.297-.438-.438-.324-.338-.666-.668-1-1-.182-.19-.377-.374-.563-.563-.143-.139-.293-.269-.438-.406-.189-.197-.37-.398-.563-.594-.143-.139-.293-.269-.438-.406-.179-.187-.349-.378-.531-.563-.084-.081-.166-.169-.25-.25-.063-.063-.124-.125-.188-.188-.182-.19-.377-.374-.563-.563-.147-.142-.289-.297-.438-.438-.182-.19-.377-.374-.563-.563-.147-.142-.289-.297-.438-.438-.182-.19-.377-.374-.563-.563-.147-.142-.289-.297-.438-.438-.324-.338-.666-.668-1-1-.182-.19-.377-.374-.563-.563-.143-.139-.293-.269-.438-.406-.189-.197-.37-.398-.563-.594-.143-.139-.293-.269-.438-.406-.179-.187-.349-.378-.531-.563-.084-.081-.166-.169-.25-.25-.063-.063-.124-.125-.188-.188-.182-.19-.377-.374-.563-.563-.147-.142-.289-.297-.438-.438-.182-.19-.377-.374-.563-.563-.147-.142-.289-.297-.438-.438-.324-.338-.666-.668-1-1-.324-.338-.666-.668-1-1-.182-.19-.377-.374-.563-.563-.143-.139-.293-.269-.438-.406-.189-.197-.37-.398-.563-.594-.074-.072-.144-.147-.219-.219-.063-.063-.124-.125-.188-.188-.182-.19-.377-.374-.563-.563-.147-.142-.289-.297-.438-.438-.182-.19-.377-.374-.563-.563-.147-.142-.289-.297-.438-.438-10.128-10.563-24.859-18.25-46.25-18.25" fill-opacity=".235" transform="translate(0 540.36)"/>
  <path d="m256 541.36c-140.83 0-255 114.17-255 255s114.17 255 255 255 255-114.17 255-255-114.17-255-255-255m8.827 44.931c120.9 0 218.9 98 218.9 218.9s-98 218.9-218.9 218.9-218.93-98-218.93-218.9 98.03-218.9 218.93-218.9" fill-opacity=".067"/>
  <g fill-opacity=".129">
   <path d="m256 544.79c-138.94 0-251.57 112.63-251.57 251.57s112.63 251.54 251.57 251.54 251.57-112.6 251.57-251.54-112.63-251.57-251.57-251.57m5.885 38.556c120.9 0 218.9 98 218.9 218.9s-98 218.9-218.9 218.9-218.93-98-218.93-218.9 98.03-218.9 218.93-218.9"/>
   <path d="m256 548.72c-136.77 0-247.64 110.87-247.64 247.64s110.87 247.64 247.64 247.64 247.64-110.87 247.64-247.64-110.87-247.64-247.64-247.64m2.942 31.691c120.9 0 218.9 98 218.9 218.9s-98 218.9-218.9 218.9-218.93-98-218.93-218.9 98.03-218.9 218.93-218.9"/>
  </g>
  <path d="m253.04 548.22c-135.42 0-245.19 109.78-245.19 245.19 0 135.42 109.78 245.19 245.19 245.19 135.42 0 245.19-109.78 245.19-245.19 0-135.42-109.78-245.19-245.19-245.19zm0 26.297c120.9 0 218.9 98 218.9 218.9s-98 218.9-218.9 218.9-218.93-98-218.93-218.9 98.03-218.9 218.93-218.9z" fill="#ffffff" stroke="#000000" stroke-opacity=".31" stroke-width="4.904"/>
  <path d="m217.16 662.06c-68.59 0-68.887 73.861-68.887 73.861v83.98c0 15.796 10.844 36.859 21.395 47.39 18.653 18.616 31.548 15.944 31.548 15.944s.175 5.191 5.451 20.986c5.276 15.796 20.797 26.437 36.624 26.437 15.828 0 21.395-5.451 21.395-5.451v-20.986s-5.393.188-15.944-5.076c-10.554-5.266-10.527-15.91-10.527-15.91s15.72-5.191 31.548-20.986c15.828-15.796 15.978-42.35 15.978-42.35v-78.937s.006-78.903-68.58-78.903m104.49 10.868l-15.978 41.973h-10.527v21.02h10.527v110.76s.092 26.06 26.471 26.06 31.582-10.493 31.582-10.493v-20.271c-.495 1.481-2.613 4.702-10.527 4.702-10.552 0-15.603-10.493-15.603-10.493v-100.26h26.13v-21.02h-26.13v-41.973h-15.944m-101.22 15.569c26.385 0 26.471 26.06 26.471 26.06v105.34s-.092 36.897-26.471 36.897c-26.385 0-26.471-36.897-26.471-36.897v-99.92s.092-31.48 26.471-31.48" fill="#ffffff"/>
 </g>
</svg>
