<svg viewBox="0 0 512 512" xmlns="http://www.w3.org/2000/svg">
 <g fill-rule="evenodd">
  <path d="m471.95 253.05c0 120.9-98.01 218.91-218.91 218.91s-218.91-98.01-218.91-218.91 98.01-218.91 218.91-218.91 218.91 98.01 218.91 218.91" fill="#b0b0b0"/>
  <path d="m256 1c-140.83 0-255 114.17-255 255s114.17 255 255 255 255-114.17 255-255-114.17-255-255-255m8.827 44.931c120.9 0 218.9 98 218.9 218.9s-98 218.9-218.9 218.9-218.93-98-218.93-218.9 98.03-218.9 218.93-218.9" fill-opacity=".067"/>
  <g fill-opacity=".129">
   <path d="m256 4.43c-138.94 0-251.57 112.63-251.57 251.57s112.63 251.57 251.57 251.57 251.57-112.63 251.57-251.57-112.63-251.57-251.57-251.57m5.885 38.556c120.9 0 218.9 98 218.9 218.9s-98 218.9-218.9 218.9-218.93-98-218.93-218.9 98.03-218.9 218.93-218.9"/>
   <path d="m256 8.36c-136.77 0-247.64 110.87-247.64 247.64s110.87 247.64 247.64 247.64 247.64-110.87 247.64-247.64-110.87-247.64-247.64-247.64m2.942 31.691c120.9 0 218.9 98 218.9 218.9s-98 218.9-218.9 218.9-218.93-98-218.93-218.9 98.03-218.9 218.93-218.9"/>
  </g>
  <path d="m253.04 7.86c-135.42 0-245.19 109.78-245.19 245.19 0 135.42 109.78 245.19 245.19 245.19 135.42 0 245.19-109.78 245.19-245.19 0-135.42-109.78-245.19-245.19-245.19m0 26.297c120.9 0 218.9 98 218.9 218.9s-98 218.9-218.9 218.9-218.93-98-218.93-218.9 98.03-218.9 218.93-218.9z" fill="#ffffff" stroke="#000000" stroke-opacity=".31" stroke-width="4.904"/>
 </g>
 <g fill-opacity=".914">
  <path d="m369.19 148.97l-120 122.59-51.37-51.37c0-22.371-18.1-40.469-40.469-40.469h-.031c-22.371 0-40.469 18.13-40.469 40.5 0 22.371 18.1 40.469 40.469 40.469l51.809 51.809-49.46 50.54 108.4 108.4c113.89-7.721 203.88-102.54 203.88-218.38 0-.449-.015-.895-.018-1.344l-76.77-76.77-25.969-25.969" opacity=".25"/>
  <path d="m369.19 148.97l-209.53 214.06h49.25l186.25-188.09-25.969-25.969m-211.87 30.75c-22.371 0-40.469 18.13-40.469 40.5 0 22.371 18.1 40.469 40.469 40.469.921 0 1.767-.301 2.688-.344l-.344.344c1.21.417 3.386-.142 5.688-.688 4.56-1.124 9.957-2.621 12.719.344l28.09 26.406 20.06-20.06-27.75-26.09c-2.89-2.59-2.093-7.28-1.344-12.375.375-2.505.645-5.172.688-7.688v-.344c0-22.371-18.1-40.469-40.469-40.469h-.031m.687 24.75c8.863 0 16.06 7.2 16.06 16.06 0 8.863-7.2 16.06-16.06 16.06-8.863 0-16.06-7.2-16.06-16.06 0-8.863 7.2-16.06 16.06-16.06m200.84 30.13l-124.25 128.44h47.25l102.59-100.75-25.594-27.688m9.313 71.19l-58.62 57.25h50.16l31.28-32.09-22.813-25.16" fill="#ffffff"/>
 </g>
</svg>
