<svg height="512" viewBox="0 0 512 512" width="512" xmlns="http://www.w3.org/2000/svg">
 <path d="m471.95 253.05c0 120.9-98.01 218.9-218.9 218.9-120.9 0-218.9-98.01-218.9-218.9 0-120.9 98.01-218.9 218.9-218.9 120.9 0 218.9 98.01 218.9 218.9" fill="#b0b0b0" fill-rule="evenodd"/>
 <path d="m256 1c-140.83 0-255 114.17-255 255 0 140.83 114.17 255 255 255 140.83 0 255-114.17 255-255 0-140.83-114.17-255-255-255m8.827 44.931c120.9 0 218.9 98 218.9 218.9 0 120.9-98 218.9-218.9 218.9-120.9 0-218.93-98-218.93-218.9 0-120.9 98.03-218.9 218.93-218.9" fill-opacity=".067" fill-rule="evenodd"/>
 <g fill-opacity=".129" fill-rule="evenodd">
  <path d="m256 4.433c-138.94 0-251.57 112.63-251.57 251.57 0 138.94 112.63 251.57 251.57 251.57 138.94 0 251.57-112.63 251.57-251.57 0-138.94-112.63-251.57-251.57-251.57m5.885 38.556c120.9 0 218.9 98 218.9 218.9 0 120.9-98 218.9-218.9 218.9-120.9 0-218.93-98-218.93-218.9 0-120.9 98.03-218.9 218.93-218.9"/>
  <path d="m256 8.356c-136.77 0-247.64 110.87-247.64 247.64 0 136.77 110.87 247.64 247.64 247.64 136.77 0 247.64-110.87 247.64-247.64 0-136.77-110.87-247.64-247.64-247.64m2.942 31.691c120.9 0 218.9 98 218.9 218.9 0 120.9-98 218.9-218.9 218.9-120.9 0-218.93-98-218.93-218.9 0-120.9 98.03-218.9 218.93-218.9"/>
 </g>
 <path d="m288.4425 92.592137c-11.198.1 20.84586 20.817673 14.11386 22.335673-.849.192-1.489.381-2.236.568l11.867 11.867c-12.395-6.969-27.615-11.738-46.14-12.02-1.129-.018-2.246-.024-3.336 0-16.356.358-28.394 5.332-37.533 12.662-.379.304-.744.621-1.113.934l-4.193-4.193c-45.47821 32.2535-66.96834 34.96095-109.34101 60.805.286 5.357 2.6 19.545 6.559 36.545 3.958 17 9.541 37.03 16.303 54.744 6.535 17.12 4.2986 89.45802 12.1786 97.33602l133.56785 98.08287c103.49089-16.01911 195.01356-115.77089 195.01356-219.68089 0-14.14.46325-4.30769-2.09975-17.70669" opacity=".25"/>
 <g fill="#ffffff" transform="matrix(43.228506 0 0 43.228506 -41.618157 -51.114985)">
  <g transform="matrix(.28222223 0 0 -.28222223 .00000004 13.828889)">
   <path d="m23.826 11c-3.319 0-6.01 2.539-6.01 5.67 0 .154.009.309.023.463-.467-.109-.946-.165-1.428-.166-2.922.033-5.412 2.539-5.412 5.67 0 2.342 1.525 4.443 3.84 5.289-.694.946-1.066 2.068-1.068 3.219 0 3.131 2.69 5.669 6.01 5.67 1.382-.002 2.722-.452 3.793-1.275 1.102.938 2.531 1.458 4.02 1.461 3.321 0 6.01-2.541 6.01-5.674-.002-1.059-.319-2.096-.914-2.994 2.557-.71 4.312-2.925 4.313-5.439 0-3.132-2-5.627-6.613-5.67-.196 0-.393.011-.588.029.024-.193.04-.387.043-.582 0-3.133-2.695-5.671-6.02-5.67m.174 8.756c.256 0 .511.099.707.295 0 0 .536.778.949.949.414.171 1.344 0 1.344 0 .554 0 1 .446 1 1 0 0-.171.93 0 1.344.171.413.949.949.949.949.392.392.392 1.022 0 1.414 0 0-.778.536-.949.949-.171.414 0 1.344 0 1.344 0 .554-.446 1-1 1 0 0-.93-.171-1.344 0-.413.171-.949.949-.949.949-.392.392-1.022.392-1.414 0 0 0-.536-.778-.949-.949-.414-.171-1.344 0-1.344 0-.554 0-1-.446-1-1 0 0 .171-.93 0-1.344-.171-.413-.949-.949-.949-.949-.392-.392-.392-1.022 0-1.414 0 0 .778-.536.949-.949.171-.414 0-1.344 0-1.344 0-.554.446-1 1-1 0 0 .93.171 1.344 0 .413-.171.949-.949.949-.949.196-.196.451-.295.707-.295" transform="matrix(1 0 0 -1 0 49)"/>
   <path d="m33.462 18.836c-.116 1.383.321 2.16 1.439 2.984l-3.318-.602" fill-rule="evenodd"/>
   <path d="m21.508 12.424c1.696.722 2.182.629 4.058-.077l-2.047 2.132z" fill-rule="evenodd"/>
   <path d="m13.867 18.898c.597 1.87.043 2.627-.817 3.219l3.905-.612z" fill-rule="evenodd"/>
   <path d="m15.825 32c1.472.113 1.969.706 2.158 1.594l.66-2.75z" fill-rule="evenodd"/>
   <path d="m29.659 33.664c.409-1.448.627-1.636 2.612-2.18l-3.943-1.427z" fill-rule="evenodd"/>
  </g>
  <circle cx="6.773" cy="7.06" r=".847"/>
 </g>
 <path d="m253.04 7.859c-135.42 0-245.19 109.78-245.19 245.19 0 135.42 109.78 245.19 245.19 245.19 135.42 0 245.19-109.78 245.19-245.19 0-135.42-109.78-245.19-245.19-245.19zm0 26.297c120.9 0 218.9 98 218.9 218.9 0 120.9-98 218.9-218.9 218.9-120.9 0-218.93-98-218.93-218.9 0-120.9 98.03-218.9 218.93-218.9z" fill="#ffffff" fill-rule="evenodd" stroke="#000000" stroke-opacity=".31" stroke-width="4.904"/>
</svg>
