<svg height="512" viewBox="0 0 512 512" width="512" xmlns="http://www.w3.org/2000/svg">
 <path d="m471.95 253.05c0 120.9-98.01 218.9-218.9 218.9-120.9 0-218.9-98.01-218.9-218.9 0-120.9 98.01-218.9 218.9-218.9 120.9 0 218.9 98.01 218.9 218.9" fill="#737373" fill-rule="evenodd"/>
 <path d="m256 1c-140.83 0-255 114.17-255 255 0 140.83 114.17 255 255 255 140.83 0 255-114.17 255-255 0-140.83-114.17-255-255-255m8.827 44.931c120.9 0 218.9 98 218.9 218.9 0 120.9-98 218.9-218.9 218.9-120.9 0-218.93-98-218.93-218.9 0-120.9 98.03-218.9 218.93-218.9" fill-opacity=".067" fill-rule="evenodd"/>
 <g fill-opacity=".129" fill-rule="evenodd">
  <path d="m256 4.433c-138.94 0-251.57 112.63-251.57 251.57 0 138.94 112.63 251.57 251.57 251.57 138.94 0 251.57-112.63 251.57-251.57 0-138.94-112.63-251.57-251.57-251.57m5.885 38.556c120.9 0 218.9 98 218.9 218.9 0 120.9-98 218.9-218.9 218.9-120.9 0-218.93-98-218.93-218.9 0-120.9 98.03-218.9 218.93-218.9"/>
  <path d="m256 8.356c-136.77 0-247.64 110.87-247.64 247.64 0 136.77 110.87 247.64 247.64 247.64 136.77 0 247.64-110.87 247.64-247.64 0-136.77-110.87-247.64-247.64-247.64m2.942 31.691c120.9 0 218.9 98 218.9 218.9 0 120.9-98 218.9-218.9 218.9-120.9 0-218.93-98-218.93-218.9 0-120.9 98.03-218.9 218.93-218.9"/>
 </g>
 <path d="m253.04 7.859c-135.42 0-245.19 109.78-245.19 245.19 0 135.42 109.78 245.19 245.19 245.19 135.42 0 245.19-109.78 245.19-245.19 0-135.42-109.78-245.19-245.19-245.19zm0 26.297c120.9 0 218.9 98 218.9 218.9 0 120.9-98 218.9-218.9 218.9-120.9 0-218.93-98-218.93-218.9 0-120.9 98.03-218.9 218.93-218.9z" fill="#ffffff" fill-rule="evenodd" stroke="#000000" stroke-opacity=".31" stroke-width="4.904"/>
 <path d="m149.33734 151.44285l194.32859 97.78218.89822 33.14304-132.68028-66.45505-63.15452 32.11482 137.88277 60.51629-11.08979 32.0065-85.4493-38.308-15.1028 29.95958 1.03572 10.73188-13.00092 7.60903 199.0047 96.23521c36.81233-32.49048 99.34826-48.59103 113.44309-215.75784l-221.13881-107.74327" opacity=".25"/>
 <path d="m150.30233 327.35511c0-7.789 2.691-14.33 8.07-19.619 5.381-5.387 11.963-8.08 19.746-8.08 7.591 0 14.03 2.694 19.313 8.08 5.381 5.289 8.07 11.83 8.07 19.619 0 7.598-2.69 14.09-8.07 19.477-5.285 5.29-11.722 7.935-19.313 7.935-7.783 0-14.365-2.645-19.746-7.935-5.381-5.291-8.07-11.783-8.07-19.477m-1.606-125.09v46.08c58.883 0 106.71 47.904 106.71 106.88h46.25c0-84.48-68.61-152.96-152.96-152.96zm.088-100.83v50.937c111.8 0 202.58 90.86 202.58 202.77h51.13c0-140.09-113.76-253.71-253.71-253.71" fill="#fafafa"/>
</svg>
