<svg height="512" viewBox="0 0 512 512" width="512" xmlns="http://www.w3.org/2000/svg">
 <path d="m471.95 253.05c0 120.9-98.01 218.9-218.9 218.9-120.9 0-218.9-98.01-218.9-218.9 0-120.9 98.01-218.9 218.9-218.9 120.9 0 218.9 98.01 218.9 218.9" fill="#9f9f9f" fill-rule="evenodd"/>
 <path d="m319.21743 150.23805l55.86258 49.81422 15.54173-43.90748 85.41426 103.05416c-4.41926 48.93709-25.66916 94.62009-57.32044 138.6059-42.53436 39.21306-104.18645 71.81997-161.54436 78.91535l-111.58399-114.77542-32.32047-144.25261 67.77436-64.98911z" fill-rule="evenodd" opacity=".25"/>
 <g fill-rule="evenodd">
  <path d="m256 1c-140.83 0-255 114.17-255 255s114.17 255 255 255 255-114.17 255-255-114.17-255-255-255m8.827 44.931c120.9 0 218.9 98 218.9 218.9s-98 218.9-218.9 218.9-218.93-98-218.93-218.9 98.03-218.9 218.93-218.9" fill-opacity=".067"/>
  <g fill-opacity=".129">
   <path d="m256 4.433c-138.94 0-251.57 112.63-251.57 251.57s112.63 251.57 251.57 251.57 251.57-112.63 251.57-251.57-112.63-251.57-251.57-251.57m5.885 38.556c120.9 0 218.9 98 218.9 218.9s-98 218.9-218.9 218.9-218.93-98-218.93-218.9 98.03-218.9 218.93-218.9"/>
   <path d="m256 8.356c-136.77 0-247.64 110.87-247.64 247.64s110.87 247.64 247.64 247.64 247.64-110.87 247.64-247.64-110.87-247.64-247.64-247.64m2.942 31.691c120.9 0 218.9 98 218.9 218.9s-98 218.9-218.9 218.9-218.93-98-218.93-218.9 98.03-218.9 218.93-218.9"/>
  </g>
  <path d="m253.04 7.859c-135.42 0-245.19 109.78-245.19 245.19 0 135.42 109.78 245.19 245.19 245.19 135.42 0 245.19-109.78 245.19-245.19 0-135.42-109.78-245.19-245.19-245.19zm0 26.297c120.9 0 218.9 98 218.9 218.9s-98 218.9-218.9 218.9-218.93-98-218.93-218.9 98.03-218.9 218.93-218.9z" fill="#ffffff" stroke="#000000" stroke-opacity=".31" stroke-width="4.904"/>
 </g>
 <path d="m241.25383 112.99352c50.97799 0 102.91924 58.1804 128.05541 98.84241l12.80709-55.00734c.20274-.11787.45262-.12887.66793-.21688 2.85874-3.03633 8.99427-1.19599 9.79107 2.90746l20.47795 119.41959c.7245 3.3538-2.36997 6.98105-5.78663 6.9339l-32.15525-7.79897c-11.12693 67.75168-63.35717 120.95889-133.85757 120.95889-78.39298 0-142.418404-64.11971-142.418404-142.90559 0-78.78431 64.026994-143.12561 142.418404-143.12561zm-17.35047 43.3683c-7.47924.099-15.50061 1.03411-23.58971 4.02487-43.41769 16.0527-73.88092 46.3842-73.88092 95.7293 0 63.87611 52.60019 115.38687 116.1557 115.38687 58.03133 0 124.58372-37.37505 132.45743-93.47017l-82.61571-21.92927c-4.14117-.12888-6.92761-5.83221-4.45077-9.16872l48.13416-7.63961c-.55478-2.17038-32.75114-40.719-50.11155-56.81642-19.3308-17.92446-37.42338-24.42556-62.1112-26.13099" fill="#ffffff"/>
 <path d="m219.56089 189.42888c-2.96428 0-5.35075 2.33182-5.35075 5.22824v12.3777c-4.50303 1.10883-8.75609 2.85129-12.64054 5.12206l-8.95444-8.74944c-2.09665-2.04864-5.4703-2.04864-7.56242 0l-8.79051 8.58927c-2.09665 2.04863-2.09665 5.34505 0 7.38926l8.95444 8.74943c-2.32397 3.79464-4.10635 7.95121-5.24207 12.35116h-12.66772c-2.96429 0-5.35074 2.33182-5.35074 5.22824v12.16442c0 2.89642 2.38645 5.22824 5.35074 5.22824h12.66772c1.13482 4.39994 2.9181 8.55564 5.24207 12.35116l-8.95444 8.74943c-2.09665 2.04865-2.09665 5.34505 0 7.38928l8.79051 8.58926c2.09665 2.04864 5.4703 2.04864 7.56242 0l8.95444-8.74944c3.88354 2.27078 8.13751 4.01234 12.64054 5.12205v12.3777c0 2.89643 2.38647 5.22825 5.35075 5.22825h12.44945c2.96429 0 5.35076-2.33182 5.35076-5.22825v-12.3777c4.50302-1.10883 8.75609-2.85127 12.64054-5.12205l8.95444 8.74944c2.09664 2.04864 5.4703 2.04864 7.56242 0l8.79051-8.58926c2.09665-2.04864 2.09665-5.34506 0-7.38928l-8.95444-8.74943c2.32397-3.79463 4.10635-7.95122 5.24206-12.35116h12.66773c2.96428 0 5.35074-2.33182 5.35074-5.22824v-12.16442c0-2.89642-2.38646-5.22824-5.35074-5.22824h-12.66773c-1.13481-4.39995-2.91809-8.55564-5.24206-12.35116l8.95444-8.74943c2.09665-2.04864 2.09665-5.34505 0-7.38926l-8.79051-8.58927c-2.09665-2.04864-5.4703-2.04864-7.56242 0l-8.95444 8.74944c-3.88354-2.27077-8.13752-4.01234-12.64054-5.12206v-12.3777c0-2.89642-2.38647-5.22824-5.35076-5.22824zm6.22473 41.05251c12.05276 0 21.81779 9.53702 21.81779 21.31828 0 11.77682-9.7605 21.31828-21.81779 21.31828-12.05276 0-21.81779-9.53704-21.81779-21.31828 0-11.77683 9.76049-21.31828 21.81779-21.31828z" fill="#ffffff"/>
</svg>
