<svg height="512" viewBox="0 0 512 512" width="512" xmlns="http://www.w3.org/2000/svg">
 <linearGradient id="a" gradientTransform="matrix(4.4499 0 0 4.4499 42.186 77.475)" gradientUnits="userSpaceOnUse" x2="0" y1="81.5" y2="6.28">
  <stop offset="0" stop-color="#ffffff"/>
  <stop offset="1" stop-color="#50caff" stop-opacity="0"/>
 </linearGradient>
 <path d="m471.95 253.05c0 120.9-98.006 218.91-218.91 218.91s-218.91-98.006-218.91-218.91 98.006-218.91 218.91-218.91 218.91 98.006 218.91 218.91" fill="#a4a4a4" fill-rule="evenodd"/>
 <path d="m146.31 96.308c71.33 94.082-78.243 157.44-58.129 232.51 19.579 73.08 108.02 69.4 139.9 109.16-22.01-42.73-52.11-40.57-63.97-80.66-30.17-101.91 283.47-152.82 181.61-261.01h-199.41z" fill="url(#a)"/>
 <path d="m256 1c-140.83 0-255 114.17-255 255s114.17 255 255 255 255-114.17 255-255-114.17-255-255-255m8.827 44.931c120.9 0 218.9 98 218.9 218.9s-98 218.9-218.9 218.9-218.93-98-218.93-218.9 98.03-218.9 218.93-218.9" fill-opacity=".067" fill-rule="evenodd"/>
 <g fill-opacity=".129" fill-rule="evenodd" transform="translate(0 -540.36)">
  <path d="m256 544.79c-138.94 0-251.57 112.63-251.57 251.57s112.63 251.54 251.57 251.54 251.57-112.6 251.57-251.54-112.63-251.57-251.57-251.57m5.885 38.556c120.9 0 218.9 98 218.9 218.9s-98 218.9-218.9 218.9-218.93-98-218.93-218.9 98.03-218.9 218.93-218.9"/>
  <path d="m256 548.72c-136.77 0-247.64 110.87-247.64 247.64s110.87 247.64 247.64 247.64 247.64-110.87 247.64-247.64-110.87-247.64-247.64-247.64m2.942 31.691c120.9 0 218.9 98 218.9 218.9s-98 218.9-218.9 218.9-218.93-98-218.93-218.9 98.03-218.9 218.93-218.9"/>
 </g>
 <path d="m253.04 7.86c-135.42 0-245.19 109.78-245.19 245.19 0 135.42 109.78 245.19 245.19 245.19 135.42 0 245.19-109.78 245.19-245.19 0-135.42-109.78-245.19-245.19-245.19zm0 26.297c120.9 0 218.9 98 218.9 218.9s-98 218.9-218.9 218.9-218.93-98-218.93-218.9 98.03-218.9 218.93-218.9z" fill="#ffffff" fill-rule="evenodd" stroke="#000000" stroke-opacity=".31" stroke-width="4.904"/>
 <path d="m392.72 84.5l-.15625.28125c-1.912 3.0361-3.521 6.2005-4.7812 9-23.081 51.27-58.43 91.284-81.312 137.91-12.072 24.595-19.335 47.679-21.812 65.344-2.5118 3.1711-3.6407 7.0733-3.0938 10.906-5.5587 9.7112-21.607 37.761-30.312 55.719-10.54 21.72-23.54 72.84-23.54 72.84l35.219 35.219c116.31-5.1747 209-101.08 209-218.66 0-67.8-30.823-128.41-79.219-168.56z" opacity=".25"/>
 <path d="m393.91 82.625l-1.3438 2.1562c-1.912 3.0361-3.521 6.2005-4.7812 9-23.081 51.27-58.43 91.284-81.312 137.91-12.072 24.595-19.335 47.679-21.812 65.344-2.5118 3.1711-3.6407 7.0733-3.0938 10.906-5.5587 9.7112-21.607 37.761-30.312 55.719-10.55 21.72-23.55 72.84-23.55 72.84l3.9375 1.9062c20.31-27.06 67.15-62.41 67.15-62.41l1.5625-1.1875-.96875-1.6875s-.46106-.7376-.96875-3.0938-.95659-6.1515-.5625-11.656c.85075-11.883 7.8776-26.699 12.938-35.781 1.9911-1.5817 3.8906-3.3454 5.9375-5.3125l.375-.15625.28125-.28125c.62141-.60233.82946-.98555.8125-.96875 13.106-12.982 28.226-34.024 40.5-59.031 22.27-45.35 35.1-95.05 60.73-147.34l.65625-1.3125-1-1.125c-7.18-8.153-14.94-15.757-23.22-22.779l-1.97-1.656z" fill="#ffffff"/>
</svg>
