<svg height="512" viewBox="0 0 512 512" width="512" xmlns="http://www.w3.org/2000/svg">
 <path d="m471.95 253.05c0 120.9-98.01 218.9-218.9 218.9-120.9 0-218.9-98.01-218.9-218.9 0-120.9 98.01-218.9 218.9-218.9 120.9 0 218.9 98.01 218.9 218.9" fill="#b0b0b0" fill-rule="evenodd"/>
 <path d="m256 1c-140.83 0-255 114.17-255 255 0 140.83 114.17 255 255 255 140.83 0 255-114.17 255-255 0-140.83-114.17-255-255-255m8.827 44.931c120.9 0 218.9 98 218.9 218.9 0 120.9-98 218.9-218.9 218.9-120.9 0-218.93-98-218.93-218.9 0-120.9 98.03-218.9 218.93-218.9" fill-opacity=".067" fill-rule="evenodd"/>
 <g fill-opacity=".129" fill-rule="evenodd">
  <path d="m256 4.433c-138.94 0-251.57 112.63-251.57 251.57 0 138.94 112.63 251.57 251.57 251.57 138.94 0 251.57-112.63 251.57-251.57 0-138.94-112.63-251.57-251.57-251.57m5.885 38.556c120.9 0 218.9 98 218.9 218.9 0 120.9-98 218.9-218.9 218.9-120.9 0-218.93-98-218.93-218.9 0-120.9 98.03-218.9 218.93-218.9"/>
  <path d="m256 8.356c-136.77 0-247.64 110.87-247.64 247.64 0 136.77 110.87 247.64 247.64 247.64 136.77 0 247.64-110.87 247.64-247.64 0-136.77-110.87-247.64-247.64-247.64m2.942 31.691c120.9 0 218.9 98 218.9 218.9 0 120.9-98 218.9-218.9 218.9-120.9 0-218.93-98-218.93-218.9 0-120.9 98.03-218.9 218.93-218.9"/>
 </g>
 <path d="m200.2148 99.574297l-6.656 6.625003c-8.15 5.168-2.453 14.81-4.969 22.16-1.451 3.954-4.921 4.737-12.03 4.875-9.545-.289-12.169 2.169-15.875 5.875l-39.438 39.438c-3 3.207-23.060003 25.958-24.313003 63.13-.101 9.546 1.853 38.857 11.438003 48.44l34.33 34.33-20.607 20.732c-11.74 11.743-11.739 30.479 0 42.22l76.904 76.904c16.438 3.943 33.593 6.04 51.24 6.04 120.89 0 218.9-98 218.9-218.9 0-4.273-.133-8.514-.375-12.727l-77.29-77.29-.094.094-43.03-43.03c-3.048-1.052-10.646-2.264-14.594-2.438-15.34-.165-30.494 5.754-42.25 17.5-11.206 11.207-16.994 25.392-17.441 39.871l-73.84-73.840003" opacity=".25"/>
 <path d="m253.04 7.859c-135.42 0-245.19 109.78-245.19 245.19 0 135.42 109.78 245.19 245.19 245.19 135.42 0 245.19-109.78 245.19-245.19 0-135.42-109.78-245.19-245.19-245.19zm0 26.297c120.9 0 218.9 98 218.9 218.9 0 120.9-98 218.9-218.9 218.9-120.9 0-218.93-98-218.93-218.9 0-120.9 98.03-218.9 218.93-218.9z" fill="#ffffff" fill-rule="evenodd" stroke="#000000" stroke-opacity=".31" stroke-width="4.904"/>
 <path d="m200.2148 99.574297l-6.656 6.625003c-8.15 5.168-2.453 14.81-4.969 22.16-1.451 3.954-4.921 4.737-12.03 4.875-9.545-.289-12.169 2.169-15.875 5.875l-39.438 39.438c-3 3.207-23.060003 25.958-24.313003 63.13-.113 10.689 2.351 46.16 15.219003 50.969 4.571-1.954 4.906-31.985 11.594-50.06 4.115-8.33 11.712-18.36 18.25-23.719 11.801-9.534 28.803-12.317 39.688-3.063l52.19 52.19c-6.22 6.218-6.189 16.218.031 22.438l101.03 101.06c6.219 6.22 16.218 6.22 22.438 0l22.469-22.469c6.22-6.22 6.22-16.218 0-22.438l-101.03-101.06c-6.219-6.221-16.249-6.221-22.469 0l-50.44-50.44c-9.763-7.447-6.472-23.68-.375-30.75 4.534-5.05 11.172-7.221 17.906-8.094 8.01-.576 10.404-.498 17.16-7.25l4.5-4.5-44.875-44.906003m133.53 16.469003c-15.34-.165-30.494 5.754-42.25 17.5-15.673 15.674-20.753 37.18-15.438 57.16l-25.22 25.22 10.813 11.531c10.234-1.957 21.11-.979 28.813 6.719l14.406 13.875 13.906-13.875c19.982 5.315 41.482.24 57.16-15.438 15.574-15.574 20.681-37.432 15.531-57.31l-20.625 20.625c-11.918 11.918-31.11 11.918-43.03 0-11.918-11.918-11.918-31.11 0-43.03l20.531-20.531c-3.048-1.052-10.646-2.264-14.594-2.438m-129.25 146.22l-82.41 82.906c-11.74 11.743-11.739 30.479 0 42.22 11.74 11.741 30.478 11.741 42.22 0l71.59-71.56-13.906-13.906c-7.704-7.703-8.645-18.61-6.688-28.844l-10.813-10.813m-61.28 89.09c3.835 0 7.856 1.161 10.781 4.094 5.852 5.851 5.852 15.274 0 21.13-5.852 5.854-15.242 5.852-21.09 0-5.851-5.851-5.852-15.273 0-21.12 2.926-2.926 6.478-4.095 10.313-4.094z" fill="#ffffff"/>
</svg>
