<svg height="512" viewBox="0 0 512 512" width="512" xmlns="http://www.w3.org/2000/svg">
 <path d="m471.94 253.04342c0 120.8954-98.00438 218.90438-218.90438 218.90438-120.8954 0-218.904376-98.00438-218.904376-218.90438 0-120.89541 98.004376-218.904381 218.904376-218.904381 120.89541 0 218.90438 98.004371 218.90438 218.904381" fill="#777777" fill-rule="evenodd"/>
 <path d="m256 1c-140.83 0-255 114.17-255 255 0 140.83 114.17 255 255 255 140.83 0 255-114.17 255-255 0-140.83-114.17-255-255-255m8.827 44.931c120.9 0 218.9 98 218.9 218.9 0 120.9-98 218.9-218.9 218.9-120.9 0-218.93-98-218.93-218.9 0-120.9 98.03-218.9 218.93-218.9" fill-opacity=".067" fill-rule="evenodd"/>
 <g fill-opacity=".129" fill-rule="evenodd" transform="translate(0 -540.36)">
  <path d="m256 544.79c-138.94 0-251.57 112.63-251.57 251.57 0 138.94 112.63 251.54 251.57 251.54 138.94 0 251.57-112.6 251.57-251.54 0-138.94-112.63-251.57-251.57-251.57m5.885 38.556c120.9 0 218.9 98 218.9 218.9 0 120.9-98 218.9-218.9 218.9-120.9 0-218.93-98-218.93-218.9 0-120.9 98.03-218.9 218.93-218.9"/>
  <path d="m256 548.72c-136.77 0-247.64 110.87-247.64 247.64 0 136.77 110.87 247.64 247.64 247.64 136.77 0 247.64-110.87 247.64-247.64 0-136.77-110.87-247.64-247.64-247.64m2.942 31.691c120.9 0 218.9 98 218.9 218.9 0 120.9-98 218.9-218.9 218.9-120.9 0-218.93-98-218.93-218.9 0-120.9 98.03-218.9 218.93-218.9"/>
 </g>
 <path d="m253.04 7.86c-135.42 0-245.19 109.78-245.19 245.19 0 135.42 109.78 245.19 245.19 245.19 135.42 0 245.19-109.78 245.19-245.19 0-135.42-109.78-245.19-245.19-245.19zm0 26.297c120.9 0 218.9 98 218.9 218.9 0 120.9-98 218.9-218.9 218.9-120.9 0-218.93-98-218.93-218.9 0-120.9 98.03-218.9 218.93-218.9z" fill="#ffffff" fill-rule="evenodd" stroke="#000000" stroke-opacity=".31" stroke-width="4.904"/>
 <path d="m183.14303 104.14089c-3.257.002-6.532.803-9.594 2.469-9.798 5.331-13.424 17.608-8.094 27.406 1.054 1.938 2.383 3.63 3.906 5.063.03.032.064.062.094.094.07.065.148.124.219.188.192.199.394.404.594.594.065.071.122.149.188.219.069.064.149.125.219.188.246.255.492.51.75.75.015.017.016.046.031.063.065.06.122.129.188.188.328.34.652.686 1 1 .338.351.672.708 1.031 1.031.156.161.308.314.469.469.376.419.781.806 1.188 1.188.03.032.064.062.094.094.07.065.148.124.219.188.192.199.394.404.594.594.065.071.122.149.188.219.069.064.149.125.219.188.246.255.492.51.75.75.015.017.016.046.031.063.065.06.122.129.188.188.328.34.652.686 1 1 .338.351.672.708 1.031 1.031.208.215.409.421.625.625.049.054.107.103.156.156.06.056.127.102.188.156.155.162.309.313.469.469.389.435.798.854 1.219 1.25.03.032.064.062.094.094.07.065.148.124.219.188.192.199.394.404.594.594.065.071.122.149.188.219.069.064.149.125.219.188.241.25.467.515.719.75.02.021.043.041.063.063.065.06.122.129.188.188.338.351.672.708 1.031 1.031.208.215.409.421.625.625.049.054.107.103.156.156.06.056.127.102.188.156.155.162.309.313.469.469.389.435.798.854 1.219 1.25.03.032.064.062.094.094.07.065.148.124.219.188.192.199.394.404.594.594.065.071.122.149.188.219.069.064.149.125.219.188.246.255.492.51.75.75.015.017.016.046.031.063.065.06.122.129.188.188.328.34.652.686 1 1 .338.351.672.708 1.031 1.031.156.161.308.314.469.469.376.419.781.806 1.188 1.188.03.032.064.062.094.094.07.065.148.124.219.188.192.199.394.404.594.594.065.071.122.149.188.219.069.064.149.125.219.188.246.255.492.51.75.75.015.017.016.046.031.063.065.06.122.129.188.188.328.34.652.686 1 1 .338.351.672.708 1.031 1.031.156.161.308.314.469.469.337.375.702.717 1.063 1.063.357.394.741.764 1.125 1.125.03.032.064.062.094.094.07.065.148.124.219.188.246.255.492.51.75.75.015.017.016.046.031.063.065.06.122.129.188.188.328.34.652.686 1 1 .364.378.736.748 1.125 1.094.016.016.016.047.031.063l25.688 47.31c-1.015.77-1.996 1.583-2.938 2.438-.117-.113-.223-.233-.344-.344-.323-.343-.649-.678-1-1-.313-.332-.63-.656-.969-.969-.315-.334-.659-.685-1-1-.244-.259-.521-.502-.781-.75-.392-.43-.785-.851-1.219-1.25-.323-.343-.649-.678-1-1-.323-.343-.649-.678-1-1-.318-.337-.655-.651-1-.969-.314-.333-.628-.686-.969-1-.244-.259-.521-.502-.781-.75-.392-.43-.785-.851-1.219-1.25-.323-.343-.649-.678-1-1-.323-.343-.649-.678-1-1-.323-.343-.649-.678-1-1-.313-.332-.63-.656-.969-.969-.315-.334-.659-.685-1-1-.244-.259-.521-.502-.781-.75-.392-.43-.785-.851-1.219-1.25-.323-.343-.649-.678-1-1-.323-.343-.649-.678-1-1-.313-.332-.63-.656-.969-.969-.315-.334-.659-.685-1-1-.244-.259-.521-.502-.781-.75-.392-.43-.785-.851-1.219-1.25-.323-.343-.649-.678-1-1-.323-.343-.649-.678-1-1-.778-.825-1.626-1.581-2.563-2.281-3.35-2.505-7.239-3.719-11.125-3.906-6.476-.312-12.949 2.417-17.12 8-6.264 8.374-5.066 20.01 2.469 26.938.318.335.656.684 1 1 .247.261.518.501.781.75.385.42.793.827 1.219 1.219.339.358.662.726 1.031 1.063.325.341.648.679 1 1 .325.341.647.679 1 1 .302.317.612.638.938.938.247.261.518.501.781.75.316.345.656.674 1 1 .405.441.801.872 1.25 1.281.325.341.648.679 1 1 .335.352.667.701 1.031 1.031.294.307.59.615.906.906.318.335.656.684 1 1 .247.261.518.501.781.75.385.42.793.827 1.219 1.219.339.358.662.726 1.031 1.063.34.356.693.696 1.063 1.031.29.302.564.62.875.906.318.335.656.684 1 1 .247.261.518.501.781.75.385.42.793.827 1.219 1.219.339.358.662.726 1.031 1.063.335.351.667.701 1.031 1.031.062.065.124.123.188.188l-69.53-2.313c-.218-.218-.46-.417-.688-.625-.276-.288-.552-.572-.844-.844-.323-.345-.654-.678-1-1-.292-.312-.595-.613-.906-.906-.327-.354-.649-.701-1-1.031-.319-.345-.657-.678-1-1-.384-.415-.801-.806-1.219-1.188-.254-.265-.514-.53-.781-.781-.341-.368-.695-.721-1.063-1.063-.292-.312-.595-.613-.906-.906-3.539-3.832-8.535-6.314-14.156-6.5-11.148004-.369-20.506004 8.383-20.875004 19.531-.198 5.978 2.24 11.42 6.25 15.25.316.347.66.675 1 1 .356.391.739.763 1.125 1.125.02.022.042.041.063.063.135.125.268.253.406.375.165.167.329.339.5.5.106.114.204.232.313.344.065.059.121.129.188.188.105.105.206.209.313.313.331.366.706.69 1.063 1.031.317.349.659.674 1 1 .322.354.654.7 1 1.031.356.391.739.763 1.125 1.125.02.022.042.041.063.063.135.125.268.253.406.375.165.167.329.339.5.5.106.114.204.232.313.344.065.059.121.129.188.188.162.163.332.311.5.469.035.038.058.087.094.125.125.116.247.231.375.344.083.085.165.167.250004.25.363.408.762.779 1.156 1.156.322.354.654.7 1 1.031.356.391.739.763 1.125 1.125.02.022.042.041.063.063.135.125.268.253.406.375.171.172.323.365.5.531.101.109.209.206.313.313.065.059.121.129.188.188.162.163.332.311.5.469.035.038.058.087.094.125.125.116.247.231.375.344.083.085.165.167.25.25.363.408.762.779 1.156 1.156.322.354.654.7 1 1.031.316.347.66.675 1 1 .499.548 1.01 1.072 1.563 1.563.341.345.667.711 1.031 1.031.105.105.206.209.313.313.331.366.706.69 1.063 1.031.322.354.654.7 1 1.031.316.347.66.675 1 1 .356.391.739.763 1.125 1.125.02.022.042.041.063.063.135.125.268.253.406.375.165.167.329.339.5.5.106.114.204.232.313.344.065.059.121.129.188.188.162.163.332.311.5.469.035.038.058.087.094.125.125.116.247.231.375.344.083.085.165.167.25.25.363.408.762.779 1.156 1.156.322.354.654.7 1 1.031.356.391.739.763 1.125 1.125.02.022.042.041.063.063.135.125.268.253.406.375.171.172.323.365.5.531.101.109.209.206.313.313.065.059.121.129.188.188.162.163.332.311.5.469.035.038.058.087.094.125.125.116.247.231.375.344.083.085.165.167.25.25.363.408.762.779 1.156 1.156.322.354.654.7 1 1.031.356.391.739.763 1.125 1.125.02.022.042.041.063.063.135.125.268.253.406.375.171.172.323.365.5.531.03.033.063.061.094.094.129.12.243.258.375.375.341.345.667.711 1.031 1.031.105.105.206.209.313.313.331.366.706.69 1.063 1.031.322.354.654.7 1 1.031.316.347.66.675 1 1 .356.391.739.763 1.125 1.125.02.022.042.041.063.063.135.125.268.253.406.375.165.167.329.339.5.5.106.114.204.232.313.344.065.059.121.129.188.188.105.105.206.209.313.313.331.366.706.69 1.063 1.031.317.349.659.674 1 1 .322.354.654.7 1 1.031.356.391.739.763 1.125 1.125.02.022.042.041.063.063.135.125.268.253.406.375.165.167.329.339.5.5.106.114.204.232.313.344.065.059.121.129.188.188.162.163.332.311.5.469.035.038.058.087.094.125.125.116.247.231.375.344.083.085.165.167.25.25.363.408.762.779 1.156 1.156.322.354.654.7 1 1.031.356.391.739.763 1.125 1.125.02.022.042.041.063.063.135.125.268.253.406.375.171.172.323.365.5.531.101.109.209.206.313.313.065.059.121.129.188.188.162.163.332.311.5.469.035.038.058.087.094.125.125.116.247.231.375.344.083.085.165.167.25.25.363.408.762.779 1.156 1.156.322.354.654.7 1 1.031.316.347.66.675 1 1 .499.548 1.01 1.072 1.563 1.563.33.334.647.689 1 1 .115.116.226.23.344.344.331.366.706.69 1.063 1.031.322.354.654.7 1 1.031.316.347.66.675 1 1 .356.391.739.763 1.125 1.125.02.022.042.041.063.063.135.125.268.253.406.375.17.172.323.365.5.531l-3.844 3.375c-7.425-5.063-17.614-4.696-24.688 1.5-8.391 7.349-9.224 20.11-1.875 28.5.49.559.996 1.102 1.531 1.594.289.305.602.592.906.875.324.346.658.681 1 1 .324.346.658.681 1 1 .356.38.716.747 1.094 1.094.323.341.628.686.969 1 .328.347.653.681 1 1 .289.305.602.592.906.875.324.346.658.681 1 1 .324.346.658.681 1 1 .356.38.716.747 1.094 1.094.323.341.628.686.969 1 .323.341.659.655 1 .969.294.311.597.618.906.906.324.346.658.681 1 1 .324.346.658.681 1 1 .32.342.662.685 1 1 .351.375.69.751 1.063 1.094.364.385.739.744 1.125 1.094.259.27.51.529.781.781.324.346.658.681 1 1 .324.346.658.681 1 1 .324.346.658.681 1 1 .351.375.69.751 1.063 1.094.364.385.739.744 1.125 1.094.291.303.57.625.875.906.289.305.602.592.906.875.324.346.658.681 1 1 .324.346.658.681 1 1 .356.38.716.747 1.094 1.094.323.341.628.686.969 1 .323.341.659.655 1 .969.294.311.597.618.906.906.324.346.658.681 1 1 .324.346.658.681 1 1 .356.38.716.747 1.094 1.094.323.341.628.686.969 1 .323.341.659.655 1 .969.294.311.597.618.906.906.324.346.658.681 1 1 .324.346.658.681 1 1 .32.342.662.685 1 1 .351.375.69.751 1.063 1.094.364.385.739.744 1.125 1.094.291.303.57.625.875.906.289.305.602.592.906.875.324.346.658.681 1 1 .324.346.658.681 1 1 .356.38.716.747 1.094 1.094.323.341.628.686.969 1 .328.347.653.681 1 1 .289.305.602.592.906.875.324.346.658.681 1 1 .324.346.658.681 1 1 .356.38.716.747 1.094 1.094.323.341.628.686.969 1 .323.341.659.655 1 .969.294.311.597.618.906.906.324.346.658.681 1 1 .324.346.658.681 1 1 .32.342.662.685 1 1 .351.375.69.751 1.063 1.094.364.385.739.744 1.125 1.094.259.27.51.529.781.781.324.346.658.681 1 1 .324.346.658.681 1 1 .324.346.658.681 1 1 .351.375.69.751 1.063 1.094.364.385.739.744 1.125 1.094.291.303.57.625.875.906.289.305.602.592.906.875.324.346.658.681 1 1 .324.346.658.681 1 1 .356.38.716.747 1.094 1.094.323.341.628.686.969 1 .323.341.659.655 1 .969.294.311.597.618.906.906.324.346.658.681 1 1 .324.346.658.681 1 1 .356.38.716.747 1.094 1.094.323.341.628.686.969 1 .364.385.739.744 1.125 1.094.259.27.51.529.781.781.324.346.658.681 1 1 .324.346.658.681 1 1 .32.342.662.685 1 1 .351.375.69.751 1.063 1.094.364.385.739.744 1.125 1.094.291.303.57.625.875.906.289.305.602.592.906.875.324.346.658.681 1 1 .324.346.658.681 1 1 .356.38.716.747 1.094 1.094.323.341.628.686.969 1 .328.347.653.681 1 1 .289.305.602.592.906.875.324.346.658.681 1 1 .324.346.658.681 1 1 .102.109.21.206.313.313 7.946.874 16.01004 1.375 24.19004 1.375 120.9 0 218.91-98.01 218.91-218.91 0-7.514-.386-14.962-1.125-22.281-.064-.061-.123-.127-.188-.188-.325-.35-.657-.678-1-1-.031-.033-.063-.061-.094-.094-.126-.116-.247-.231-.375-.344-.173-.175-.322-.364-.5-.531-.318-.342-.665-.685-1-1-.32-.344-.663-.683-1-1-.323-.348-.659-.68-1-1-.325-.35-.657-.678-1-1-.325-.35-.657-.678-1-1-.325-.35-.657-.678-1-1-.031-.033-.063-.061-.094-.094-.126-.116-.247-.231-.375-.344-.173-.175-.322-.364-.5-.531-.318-.342-.665-.685-1-1-.323-.348-.659-.68-1-1-.325-.35-.657-.678-1-1-.325-.35-.657-.678-1-1-.325-.35-.657-.678-1-1-.031-.033-.063-.061-.094-.094-.126-.116-.247-.231-.375-.344-.173-.175-.322-.364-.5-.531-.318-.342-.665-.685-1-1-.32-.344-.663-.683-1-1-.323-.348-.659-.68-1-1-.325-.35-.657-.678-1-1-.325-.35-.657-.678-1-1-.031-.033-.063-.061-.094-.094-.126-.116-.247-.231-.375-.344-.173-.175-.322-.364-.5-.531-.318-.342-.665-.685-1-1-.32-.344-.663-.683-1-1-.323-.348-.659-.68-1-1-.325-.35-.657-.678-1-1-.325-.35-.657-.678-1-1-.031-.033-.063-.061-.094-.094-.126-.116-.247-.231-.375-.344-.183-.185-.343-.386-.531-.563-.318-.342-.633-.653-.969-.969-.318-.342-.665-.685-1-1-.323-.348-.659-.68-1-1-.325-.35-.657-.678-1-1-.325-.35-.657-.678-1-1-.325-.35-.657-.678-1-1-.031-.033-.063-.061-.094-.094-.126-.116-.247-.231-.375-.344-.173-.175-.322-.364-.5-.531-.318-.342-.665-.685-1-1-.323-.348-.659-.68-1-1-.325-.35-.657-.678-1-1-.325-.35-.657-.678-1-1-.325-.35-.657-.678-1-1-.031-.033-.063-.061-.094-.094-.126-.116-.247-.231-.375-.344-.173-.175-.322-.364-.5-.531-.318-.342-.665-.685-1-1-.32-.344-.663-.683-1-1-.323-.348-.659-.68-1-1-.325-.35-.657-.678-1-1-.325-.35-.657-.678-1-1-.031-.033-.063-.061-.094-.094-.126-.116-.247-.231-.375-.344-.173-.175-.322-.364-.5-.531-.318-.342-.665-.685-1-1-.32-.344-.663-.683-1-1-.323-.348-.659-.68-1-1-.325-.35-.657-.678-1-1-.325-.35-.657-.678-1-1-.031-.033-.063-.061-.094-.094-.126-.116-.247-.231-.375-.344-.183-.185-.343-.386-.531-.563-.318-.342-.633-.653-.969-.969-.318-.342-.665-.685-1-1-.323-.348-.659-.68-1-1-.325-.35-.657-.678-1-1-.325-.35-.657-.678-1-1-.325-.35-.657-.678-1-1-.031-.033-.063-.061-.094-.094-.126-.116-.247-.231-.375-.344-.173-.175-.322-.364-.5-.531-.318-.342-.665-.685-1-1-.32-.344-.663-.683-1-1-.323-.348-.659-.68-1-1-.325-.35-.657-.678-1-1-.325-.35-.657-.678-1-1-.031-.033-.063-.061-.094-.094-.126-.116-.247-.231-.375-.344-.173-.175-.322-.364-.5-.531-.318-.342-.665-.685-1-1-.32-.344-.663-.683-1-1-.323-.348-.659-.68-1-1-.325-.35-.657-.678-1-1-.325-.35-.657-.678-1-1-.031-.033-.063-.061-.094-.094-.126-.116-.247-.231-.375-.344-.183-.185-.343-.386-.531-.563-.318-.342-.633-.653-.969-.969-.32-.344-.663-.683-1-1-.323-.348-.659-.68-1-1-.325-.35-.657-.678-1-1-.325-.35-.657-.678-1-1-.325-.35-.657-.678-1-1-.031-.033-.063-.061-.094-.094-.126-.116-.247-.231-.375-.344-.173-.175-.322-.364-.5-.531-.318-.342-.665-.685-1-1-.323-.348-.659-.68-1-1-.325-.35-.657-.678-1-1-.325-.35-.657-.678-1-1-.325-.35-.657-.678-1-1-.031-.033-.063-.061-.094-.094-.126-.116-.247-.231-.375-.344-.173-.175-.322-.364-.5-.531-.318-.342-.665-.685-1-1-.32-.344-.663-.683-1-1-.323-.348-.659-.68-1-1-.325-.35-.657-.678-1-1-.325-.35-.657-.678-1-1-.031-.033-.063-.061-.094-.094-.126-.116-.247-.231-.375-.344-.173-.175-.322-.364-.5-.531-.318-.342-.665-.685-1-1-.32-.344-.663-.683-1-1-.323-.348-.659-.68-1-1-7.59-8.174-20.358-8.653-28.531-1.063-6.897 6.404-8.348 16.528-4.063 24.438l-33.438 30.969c-.202-.213-.414-.421-.625-.625-.315-.349-.662-.674-1-1-.377-.418-.776-.802-1.188-1.188-.32-.344-.657-.678-1-1-.32-.344-.657-.678-1-1-.232-.25-.474-.48-.719-.719-.333-.372-.703-.716-1.063-1.063-.315-.349-.662-.674-1-1-.377-.418-.776-.802-1.188-1.188-.32-.344-.657-.678-1-1-.32-.344-.657-.678-1-1-.315-.339-.631-.683-.969-1-.255-.274-.543-.521-.813-.781-.315-.349-.662-.674-1-1-.377-.418-.776-.802-1.188-1.188-.32-.344-.657-.678-1-1-.32-.344-.657-.678-1-1-.315-.339-.631-.683-.969-1-.255-.274-.543-.521-.813-.781-.315-.349-.662-.674-1-1-.382-.424-.771-.829-1.188-1.219-.318-.343-.659-.648-1-.969-.32-.344-.657-.678-1-1-.32-.345-.657-.678-1-1-.232-.25-.474-.48-.719-.719-.333-.372-.703-.716-1.063-1.063-.315-.349-.662-.674-1-1-.377-.418-.776-.802-1.188-1.188-.32-.345-.657-.678-1-1-.32-.345-.657-.678-1-1-.232-.25-.474-.48-.719-.719-.333-.372-.703-.716-1.063-1.063-.315-.349-.662-.674-1-1-.377-.418-.776-.802-1.188-1.188-.32-.345-.657-.678-1-1-.32-.345-.657-.678-1-1-.315-.339-.631-.683-.969-1-.255-.274-.543-.521-.813-.781-3.528-3.909-8.574-6.446-14.25-6.656-6.733-.249-12.84 2.818-16.688 7.75-.109-.101-.201-.214-.313-.313-.214-.219-.402-.448-.625-.656-.34204-.368-.69704-.724-1.06304-1.063-.42-.447-.858-.878-1.313-1.281-.325-.332-.655-.694-1-1-.171-.174-.355-.333-.531-.5-.32-.35-.659-.677-1-1-.47-.513-.923-1.012-1.438-1.469-.214-.219-.402-.448-.625-.656-.317-.341-.662-.653-1-.969-.441-.475-.895-.95-1.375-1.375-.171-.174-.355-.333-.531-.5-.32-.35-.659-.677-1-1-.47-.513-.923-1.012-1.438-1.469-.214-.219-.402-.448-.625-.656-.317-.341-.662-.653-1-.969-.441-.475-.895-.95-1.375-1.375-.171-.174-.355-.333-.531-.5-.32-.35-.659-.677-1-1-.47-.513-.923-1.012-1.438-1.469-.214-.219-.402-.448-.625-.656-.317-.341-.662-.653-1-.969-.441-.475-.895-.95-1.375-1.375-.325-.332-.655-.694-1-1-.171-.174-.355-.333-.531-.5-.47-.513-.923-1.012-1.438-1.469-.215-.22-.402-.448-.625-.656-.342-.368-.697-.724-1.063-1.063-.42-.447-.858-.878-1.313-1.281-.325-.332-.655-.694-1-1-.171-.174-.355-.333-.531-.5-.32-.35-.659-.677-1-1-.47-.513-.923-1.012-1.438-1.469-.214-.219-.402-.448-.625-.656-.317-.341-.662-.653-1-.969-.441-.475-.895-.95-1.375-1.375-.171-.174-.355-.333-.531-.5-.32-.35-.659-.677-1-1-.47-.513-.923-1.012-1.438-1.469-.214-.219-.402-.448-.625-.656-.317-.341-.662-.653-1-.969-.441-.475-.895-.95-1.375-1.375-.325-.332-.655-.694-1-1-.171-.174-.355-.333-.531-.5-.47-.513-.923-1.012-1.438-1.469-.214-.219-.402-.448-.625-.656-.342-.368-.697-.724-1.063-1.063-3.871-4.123-9.287-6.378-14.813-6.375" fill-opacity=".235" fill-rule="evenodd"/>
 <path d="m183.11 103.87c-3.257.002-6.543.814-9.605 2.48-9.798 5.331-13.425 17.591-8.094 27.39 4.498 8.267 13.935 12.141 22.659 9.947l42.21 77.72c-3.568 2.707-6.693 5.942-9.32 9.576h-.029l-15.733-11.771c3.335-8.328.853-18.25-6.641-23.856-3.35-2.505-7.23-3.718-11.12-3.905-6.476-.312-12.954 2.398-17.13 7.98-6.681 8.932-4.857 21.564 4.076 28.24 7.537 5.637 17.703 5.366 24.711-.228l16.787 12.512c-1.981 4.719-3.178 9.824-3.449 15.191.052-1.384.153-2.771.342-4.104l-89.89-2.993c-1.993-8.725-9.673-15.366-19.04-15.676-11.148-.369-20.494 8.375-20.863 19.523-.369 11.148 8.375 20.465 19.523 20.834 9.365.31 17.47-5.791 20.04-14.365l90.01 3.02c.773 9.04 4.213 17.288 9.519 23.998l-64.955 56.889c-7.425-5.063-17.609-4.685-24.682 1.511-8.391 7.349-9.231 20.11-1.881 28.501 7.349 8.391 20.11 9.231 28.501 1.881 7.06-6.18 8.761-16.181 4.76-24.2l65.41-57.37c7.02 5.633 15.761 9.218 25.338 9.804-1.551-.088-3.064-.259-4.589-.513l-.599 19.409c-8.815 1.682-15.74 9.125-16.36 18.497-.737 11.13 7.681 20.753 18.811 21.49 11.13.737 20.754-7.681 21.49-18.811.621-9.382-5.263-17.701-13.795-20.521v-.2l.57-19.352c5.319-.315 10.405-1.539 15.08-3.534l44.576 74.958c-6.256 6.398-7.685 16.412-2.879 24.454 5.722 9.575 18.13 12.705 27.703 6.983 9.575-5.722 12.677-18.13 6.954-27.703-4.833-8.09-14.423-11.566-23.06-9.01l-44.605-74.64c4.01-2.896 7.535-6.432 10.403-10.46l14.992 10.488c-3.158 8.434-.347 18.269 7.382 23.656 9.151 6.379 21.723 4.134 28.1-5.02 6.379-9.151 4.134-21.752-5.02-28.13-7.68-5.354-17.777-4.611-24.597 1.169l-15.932-11.09c1.741-4.229 2.852-8.775 3.221-13.538l86.7 3.164c1.926 8.776 9.586 15.498 18.982 15.847 11.147.414 20.506-8.291 20.92-19.438.414-11.147-8.263-20.506-19.409-20.92-9.374-.348-17.502 5.758-20.09 14.336l-87.47-3.306c-1.402-9.209-5.59-17.514-11.686-24.03l62.13-57.744c7.558 4.775 17.679 4.091 24.54-2.28 8.174-7.59 8.645-20.385 1.055-28.558-7.59-8.174-20.356-8.645-28.53-1.055-6.897 6.404-8.333 16.516-4.047 24.426l-63.02 58.46c.672.449 1.281.916 1.881 1.397-6.06-4.539-13.29-7.584-21.15-8.607l.87-24.49c8.717-1.971 15.358-9.6 15.704-18.953.412-11.147-8.291-20.536-19.438-20.948-11.147-.412-20.508 8.291-20.92 19.438-.346 9.365 5.742 17.495 14.308 20.09l-.883 24.682c-4.912.489-9.594 1.789-13.909 3.734l-41.982-77.47c6.533-6.137 8.389-16.13 3.905-24.369-3.665-6.736-10.62-10.55-17.785-10.545m103.2 118.94c.102.059.197.121.285.2.094.08.176.186.256.285-.182-.157-.357-.33-.541-.485m-28.929 2.537c17.725 0 32.12 14.425 32.12 32.15 0 17.725-14.396 32.15-32.12 32.15-17.725 0-32.15-14.425-32.15-32.15 0-17.725 14.425-32.15 32.15-32.15m0 9.462c-12.516 0-22.716 10.171-22.716 22.687 0 12.516 10.199 22.687 22.716 22.687 12.516 0 22.687-10.171 22.687-22.687 0-12.516-10.171-22.687-22.687-22.687" fill="#ffffff" fill-rule="evenodd"/>
</svg>
