<svg xmlns:rdf="http://www.w3.org/1999/02/22-rdf-syntax-ns#" xmlns="http://www.w3.org/2000/svg" height="512" width="512" version="1.1" xmlns:cc="http://creativecommons.org/ns#" xmlns:dc="http://purl.org/dc/elements/1.1/" viewBox="0 0 512 512">
 <path fill-rule="evenodd" d="m471.95 253.05c0 120.9-98.01 218.9-218.9 218.9-120.9 0-218.9-98.01-218.9-218.9 0-120.9 98.01-218.9 218.9-218.9 120.9 0 218.9 98.01 218.9 218.9" fill="#777777"/>
 <path d="m247.13 88.25c-22.02 0.14-24.39 1.269-29 7.531-2.398 3.258-4.616 6.658-6.656 10.219-0.159-0.163-0.392-0.24-0.688-0.281-0.004-0.1-0.013-0.196-0.031-0.281 0.06-0.139 0.097-0.214 0.031-0.219-0.027-0.002-0.066 0.001-0.094 0-0.142-0.344-0.452-0.505-0.906-0.563-0.004-0.089-0.016-0.173-0.031-0.25 0.051-0.121 0.089-0.183 0.031-0.188-0.018-0.001-0.044 0.001-0.063 0-0.137-0.361-0.444-0.533-0.906-0.594-0.004-0.09-0.015-0.173-0.031-0.25 0.035-0.09 0.047-0.153 0-0.156-0.009-0.001-0.022 0.001-0.031 0-0.131-0.376-0.44-0.59-0.906-0.656-0.005-0.101-0.012-0.195-0.031-0.281 0.014-0.049 0.002-0.06-0.031-0.063-0.12-0.418-0.411-0.649-0.906-0.719-0.04-0.624-0.367-0.942-0.969-1.031-0.04-0.633-0.385-0.976-1-1.063-0.041-0.635-0.353-0.944-0.969-1.031-0.04-0.629-0.368-0.969-0.969-1.063-0.054-0.676-0.437-1.012-1.156-1.063-0.508-0.036-1.168 0.058-2 0.25-7.086 1.639-35.11 16.636-44.969 24.06-13.01 9.797-30.405 28.07-38.938 40.875-7.241 10.867-18.21 32.775-19.344 38.656-1.532 7.948 11.471 29.29 27.719 45.5 0.309 0.308 0.626 0.601 0.938 0.906 0.024 0.036 0.029 0.06 0.063 0.094 0.29 0.284 0.583 0.562 0.875 0.844 0.038 0.049 0.08 0.111 0.125 0.156 0.298 0.298 0.606 0.58 0.906 0.875 0.034 0.039 0.057 0.088 0.094 0.125 0.269 0.263 0.541 0.52 0.813 0.781 0.055 0.066 0.095 0.126 0.156 0.188 0.276 0.275 0.566 0.54 0.844 0.813 0.057 0.066 0.095 0.126 0.156 0.188 0.245 0.244 0.504 0.477 0.75 0.719 0.081 0.096 0.16 0.192 0.25 0.281 0.21 0.205 0.414 0.421 0.625 0.625 0.11 0.136 0.249 0.25 0.375 0.375 0.246 0.245 0.502 0.475 0.75 0.719 0.08 0.091 0.164 0.196 0.25 0.281 0.262 0.261 0.518 0.523 0.781 0.781 0.067 0.074 0.148 0.148 0.219 0.219 0.227 0.222 0.459 0.436 0.688 0.656 0.095 0.107 0.18 0.212 0.281 0.313 0.224 0.223 0.462 0.435 0.688 0.656 0.104 0.118 0.201 0.233 0.313 0.344 0.245 0.244 0.504 0.477 0.75 0.719 0.086 0.094 0.16 0.192 0.25 0.281 0.236 0.231 0.481 0.458 0.719 0.688 0.094 0.102 0.183 0.215 0.281 0.313 0.235 0.235 0.482 0.455 0.719 0.688 0.094 0.102 0.184 0.215 0.281 0.313 0.256 0.256 0.523 0.497 0.781 0.75 0.075 0.08 0.142 0.173 0.219 0.25 0.216 0.215 0.439 0.411 0.656 0.625 0.107 0.116 0.201 0.233 0.313 0.344 0.243 0.243 0.505 0.478 0.75 0.719 0.087 0.093 0.16 0.192 0.25 0.281 0.234 0.234 0.483 0.456 0.719 0.688 0.096 0.102 0.183 0.214 0.281 0.313 0.256 0.256 0.523 0.497 0.781 0.75 0.076 0.08 0.141 0.172 0.219 0.25 0.203 0.202 0.421 0.393 0.625 0.594 0.125 0.135 0.245 0.277 0.375 0.406 0.199 0.198 0.394 0.397 0.594 0.594 0.13 0.14 0.272 0.272 0.406 0.406 0.195 0.194 0.398 0.37 0.594 0.563 0.135 0.145 0.267 0.298 0.406 0.438 0.235 0.235 0.482 0.455 0.719 0.688 0.088 0.092 0.16 0.192 0.25 0.281 0.244 0.244 0.504 0.477 0.75 0.719 0.088 0.092 0.16 0.192 0.25 0.281 0.183 0.183 0.379 0.35 0.563 0.531 0.145 0.155 0.288 0.32 0.438 0.469 0.182 0.182 0.38 0.351 0.563 0.531 0.145 0.155 0.288 0.32 0.438 0.469 0.178 0.177 0.353 0.355 0.531 0.531 0.149 0.16 0.314 0.315 0.469 0.469 0.174 0.173 0.357 0.328 0.531 0.5 0.154 0.165 0.309 0.341 0.469 0.5 0.219 0.219 0.435 0.439 0.656 0.656 0.103 0.107 0.208 0.208 0.313 0.313 0.224 0.223 0.463 0.435 0.688 0.656 0.108 0.112 0.203 0.234 0.313 0.344 0.219 0.219 0.435 0.439 0.656 0.656 0.112 0.118 0.229 0.229 0.344 0.344 0.213 0.213 0.442 0.414 0.656 0.625 0.118 0.123 0.224 0.255 0.344 0.375 0.214 0.214 0.441 0.413 0.656 0.625 0.118 0.123 0.224 0.255 0.344 0.375 0.216 0.215 0.439 0.412 0.656 0.625 0.118 0.123 0.224 0.255 0.344 0.375 0.204 0.203 0.42 0.392 0.625 0.594 0.118 0.122 0.224 0.256 0.344 0.375 0.203 0.202 0.421 0.393 0.625 0.594 0.127 0.133 0.245 0.277 0.375 0.406 0.204 0.203 0.42 0.392 0.625 0.594 0.127 0.133 0.245 0.277 0.375 0.406 0.23 0.229 0.456 0.46 0.688 0.688 0.102 0.106 0.209 0.209 0.313 0.313 0.195 0.19 0.397 0.374 0.594 0.563 0.137 0.143 0.266 0.298 0.406 0.438 0.205 0.205 0.419 0.391 0.625 0.594 0.107 0.111 0.204 0.235 0.313 0.344-7.958-3.702-15.441-7.786-22.406-12.219-0.298-0.326-0.573-0.578-0.781-0.75-0.396-0.45-0.707-0.75-0.969-0.969-0.044-0.051-0.082-0.077-0.125-0.125-0.009-0.007-0.022-0.025-0.031-0.031-0.331-0.367-0.617-0.654-0.844-0.844-0.034-0.038-0.061-0.057-0.094-0.094-0.019-0.015-0.045-0.05-0.063-0.063-0.323-0.358-0.587-0.622-0.813-0.813-0.398-0.453-0.735-0.776-1-1-0.39-0.444-0.705-0.743-0.969-0.969-0.049-0.056-0.078-0.104-0.125-0.156-0.015-0.011-0.048-0.021-0.063-0.031-0.314-0.347-0.59-0.623-0.813-0.813-0.028-0.032-0.035-0.063-0.063-0.094-0.035-0.028-0.093-0.07-0.125-0.094-0.318-0.351-0.589-0.623-0.813-0.813-0.04-0.045-0.055-0.082-0.094-0.125-0.024-0.019-0.071-0.046-0.094-0.063-0.309-0.341-0.56-0.591-0.781-0.781-0.398-0.453-0.73-0.769-1-1-0.393-0.447-0.7-0.736-0.969-0.969-0.044-0.05-0.082-0.078-0.125-0.125-0.029-0.023-0.066-0.074-0.094-0.094-0.301-0.331-0.563-0.592-0.781-0.781-0.044-0.05-0.082-0.077-0.125-0.125-0.03-0.023-0.066-0.074-0.094-0.094-0.288-0.317-0.537-0.562-0.75-0.75-0.056-0.063-0.103-0.097-0.156-0.156-0.03-0.024-0.066-0.074-0.094-0.094-0.288-0.315-0.539-0.566-0.75-0.75-0.395-0.448-0.696-0.761-0.969-1-0.389-0.442-0.728-0.729-1-0.969-0.057-0.064-0.102-0.096-0.156-0.156-0.03-0.024-0.066-0.073-0.094-0.094-0.282-0.308-0.509-0.565-0.719-0.75-0.525-0.596-0.977-1.029-1.281-1.25-0.266-0.29-0.485-0.538-0.688-0.719-0.044-0.05-0.082-0.077-0.125-0.125-0.052-0.043-0.11-0.123-0.156-0.156-0.402-0.438-0.75-0.787-1-0.969-0.266-0.289-0.485-0.537-0.688-0.719-0.387-0.44-0.725-0.753-1-1-0.461-0.524-0.856-0.877-1.156-1.125-0.47-0.523-0.842-0.95-1.125-1.156-0.403-0.437-0.748-0.785-1-0.969-0.251-0.272-0.46-0.509-0.656-0.688-0.497-0.565-0.906-0.97-1.219-1.219-0.282-0.31-0.533-0.552-0.75-0.75-0.071-0.081-0.119-0.144-0.188-0.219-0.046-0.037-0.115-0.095-0.156-0.125-0.242-0.262-0.465-0.482-0.656-0.656-0.051-0.058-0.076-0.102-0.125-0.156-0.07-0.059-0.158-0.144-0.219-0.188-0.234-0.253-0.438-0.453-0.625-0.625-0.38-0.432-0.721-0.744-1-1-0.371-0.422-0.694-0.713-0.969-0.969-0.571-0.649-1.043-1.134-1.375-1.375-0.405-0.436-0.743-0.814-1-1-0.214-0.23-0.419-0.431-0.594-0.594-0.377-0.428-0.689-0.739-0.969-1-0.584-0.663-1.067-1.129-1.406-1.375-0.406-0.437-0.741-0.812-1-1-0.324-0.348-0.58-0.652-0.813-0.844-0.343-0.376-0.656-0.657-0.906-0.875-0.435-0.485-0.769-0.85-1.063-1.094-0.394-0.433-0.728-0.776-1-1-0.262-0.288-0.508-0.52-0.719-0.719-0.486-0.552-0.891-0.939-1.219-1.219-0.374-0.412-0.7-0.736-0.969-0.969-0.418-0.462-0.776-0.792-1.063-1.031-0.25-0.274-0.483-0.524-0.688-0.719-0.539-0.613-0.998-1.031-1.344-1.313-0.226-0.246-0.438-0.477-0.625-0.656-0.936-1.064-1.64-1.688-1.938-1.688-2.374 0.002-3.378 10.124-3.375 33.625 0 30.06 3.482 46.12 15.594 71.72 4.823 10.194 17.738 30.459 21.19 33.375 0.442 0.502 0.831 0.866 1.125 1.094 0.397 0.445 0.73 0.79 1 1 0.395 0.443 0.731 0.791 1 1 0.331 0.371 0.601 0.667 0.844 0.875 0.428 0.491 0.772 0.826 1.063 1.063 0.399 0.452 0.725 0.777 1 1 0.397 0.45 0.727 0.778 1 1 0.395 0.448 0.728 0.779 1 1 0.401 0.455 0.758 0.781 1.031 1 0.371 0.42 0.677 0.722 0.938 0.938 0.396 0.453 0.726 0.774 1 1 0.394 0.45 0.727 0.775 1 1 0.44 0.502 0.808 0.876 1.094 1.094 0.401 0.452 0.734 0.797 1 1 0.399 0.45 0.735 0.798 1 1 0.245 0.276 0.46 0.534 0.656 0.719 0.022 0.784 0.858 1.901 2.438 3.406 0.298 0.323 0.639 0.658 1.031 1.031 0.342 0.372 0.752 0.75 1.219 1.188 0.06 0.063 0.093 0.123 0.156 0.188 0.03 0.027 0.064 0.035 0.094 0.063 0.28 0.284 0.562 0.619 0.906 0.938 0.021 0.021 0.042 0.041 0.063 0.063 0.012 0.011 0.019 0.02 0.031 0.031 0.158 0.16 0.353 0.329 0.531 0.5 0.357 0.395 0.777 0.84 1.281 1.313 0.055 0.058 0.098 0.097 0.156 0.156 0.029 0.027 0.064 0.035 0.094 0.063 0.199 0.202 0.424 0.437 0.656 0.656 0.1 0.107 0.171 0.2 0.281 0.313 0.018 0.016 0.045 0.015 0.063 0.031 0.206 0.209 0.446 0.459 0.688 0.688 0.099 0.107 0.172 0.2 0.281 0.313 0.018 0.016 0.045 0.015 0.063 0.031 0.232 0.235 0.504 0.49 0.781 0.75 0.07 0.074 0.113 0.142 0.188 0.219 0.018 0.016 0.045 0.015 0.063 0.031 0.306 0.311 0.615 0.677 1 1.031 0.194 0.198 0.43 0.41 0.656 0.625 0.321 0.349 0.688 0.746 1.125 1.156 0.075 0.079 0.138 0.136 0.219 0.219 0.018 0.016 0.045 0.015 0.063 0.031 0.169 0.172 0.368 0.377 0.563 0.563 0.133 0.147 0.252 0.279 0.406 0.438 0.006 0.005 0.025-0.005 0.031 0 0.176 0.18 0.39 0.399 0.594 0.594 0.133 0.146 0.252 0.28 0.406 0.438 0.006 0.005 0.025-0.005 0.031 0 0.304 0.311 0.613 0.645 1 1 0.223 0.228 0.483 0.498 0.75 0.75 0.089 0.095 0.152 0.181 0.25 0.281 0.006 0.005 0.025-0.005 0.031 0 0.171 0.175 0.396 0.374 0.594 0.563 0.395 0.439 0.847 0.926 1.438 1.469 0.306 0.313 0.639 0.64 1.031 1 0.304 0.312 0.641 0.673 1.031 1.031 0.302 0.31 0.612 0.644 1 1 0.308 0.318 0.631 0.664 1.031 1.031 0.203 0.208 0.446 0.459 0.688 0.688 0.372 0.407 0.801 0.846 1.344 1.344 0.304 0.313 0.637 0.638 1.031 1 0.31 0.319 0.627 0.692 1.031 1.063 0.194 0.199 0.426 0.406 0.656 0.625 0.374 0.416 0.815 0.861 1.375 1.375 0.297 0.307 0.614 0.646 1 1 0.303 0.315 0.633 0.665 1.031 1.031 0.302 0.313 0.635 0.636 1.031 1 0.308 0.319 0.624 0.69 1.031 1.063 0.202 0.209 0.443 0.424 0.688 0.656 0.364 0.406 0.796 0.84 1.344 1.344 0.295 0.306 0.612 0.644 1 1 0.301 0.314 0.632 0.664 1.031 1.031 0.2 0.209 0.443 0.424 0.688 0.656 0.363 0.41 0.784 0.861 1.344 1.375 0.203 0.212 0.438 0.451 0.688 0.688 0.359 0.406 0.789 0.834 1.344 1.344 0.299 0.314 0.628 0.63 1.031 1 0.298 0.313 0.629 0.662 1.031 1.031 0.311 0.327 0.638 0.706 1.063 1.094 0.283 0.295 0.594 0.593 0.969 0.938 0.294 0.309 0.634 0.666 1.031 1.031 0.292 0.307 0.605 0.637 1 1 0.311 0.329 0.663 0.7 1.094 1.094 0.277 0.289 0.601 0.6 0.969 0.938 0.293 0.311 0.598 0.662 1 1.031 0.292 0.31 0.63 0.632 1.031 1 0.306 0.325 0.636 0.705 1.063 1.094 0.278 0.292 0.594 0.593 0.969 0.938 0.293 0.313 0.624 0.657 1.031 1.031 0.312 0.334 0.65 0.689 1.094 1.094 0.273 0.287 0.57 0.6 0.938 0.938 0.225 0.242 0.486 0.503 0.781 0.781 0.336 0.384 0.777 0.791 1.313 1.281 0.278 0.296 0.585 0.616 0.969 0.969 0.288 0.31 0.624 0.657 1.031 1.031 0.286 0.308 0.595 0.628 1 1 0.286 0.309 0.624 0.657 1.031 1.031 0.284 0.307 0.596 0.629 1 1 0.302 0.329 0.651 0.69 1.094 1.094 0.272 0.291 0.59 0.59 0.969 0.938 0.311 0.339 0.662 0.736 1.125 1.156 0.26 0.276 0.549 0.547 0.906 0.875 0.282 0.309 0.621 0.654 1.031 1.031 0.28 0.306 0.593 0.626 1 1 0.226 0.25 0.562 0.548 0.875 0.844 0.26 0.303 0.662 0.655 1.063 1.031 0.269 0.311 0.678 0.706 1.094 1.094 0.235 0.266 0.566 0.617 0.906 0.938 0.28 0.328 0.707 0.74 1.156 1.156 0.237 0.266 0.595 0.585 0.938 0.906 0.255 0.297 0.637 0.662 1.031 1.031 0.271 0.316 0.695 0.695 1.125 1.094 0.242 0.273 0.581 0.636 0.938 0.969 0.269 0.311 0.669 0.701 1.094 1.094 0.232 0.262 0.567 0.588 0.906 0.906 0.229 0.27 0.586 0.605 0.938 0.938 0.232 0.284 0.623 0.642 1 1 0.269 0.335 0.743 0.746 1.219 1.188 0.232 0.267 0.588 0.609 0.938 0.938 0.251 0.299 0.655 0.682 1.063 1.063 0.254 0.299 0.652 0.682 1.063 1.063 0.218 0.253 0.546 0.565 0.875 0.875 0.241 0.301 0.648 0.673 1.063 1.063 0.231 0.283 0.618 0.64 1 1 0.253 0.316 0.671 0.706 1.125 1.125 6.467 0.575 13.01 0.906 19.625 0.906 120.9 0 218.91-98.01 218.91-218.91 0-6.983-0.329-13.903-0.969-20.719-0.198-0.207-0.4-0.403-0.563-0.531-0.344-0.367-0.695-0.752-0.969-0.969-0.352-0.376-0.691-0.749-0.969-0.969-0.352-0.377-0.692-0.75-0.969-0.969-0.362-0.387-0.717-0.78-1-1-0.357-0.383-0.689-0.751-0.969-0.969-0.359-0.385-0.689-0.784-0.969-1-0.337-0.361-0.704-0.728-0.969-0.938-0.344-0.369-0.701-0.757-0.969-0.969-0.352-0.379-0.697-0.754-0.969-0.969-0.352-0.38-0.698-0.754-0.969-0.969-0.353-0.381-0.698-0.755-0.969-0.969-0.356-0.386-0.697-0.754-0.969-0.969-0.356-0.387-0.698-0.755-0.969-0.969-0.399-0.434-0.765-0.843-1.063-1.063-0.323-0.348-0.656-0.709-0.906-0.906-0.353-0.384-0.703-0.759-0.969-0.969-0.371-0.404-0.724-0.788-1-1-0.356-0.387-0.702-0.763-0.969-0.969-0.34-0.371-0.681-0.735-0.938-0.938-0.375-0.411-0.725-0.788-1-1-0.35-0.383-0.678-0.733-0.938-0.938-0.365-0.402-0.703-0.759-0.969-0.969-0.371-0.409-0.733-0.757-1-0.969-0.386-0.427-0.724-0.82-1-1.031-0.359-0.395-0.708-0.768-0.969-0.969-0.361-0.397-0.708-0.769-0.969-0.969-0.38-0.42-0.73-0.766-1-0.969-0.377-0.416-0.702-0.769-0.969-0.969-0.396-0.438-0.722-0.8-1-1-0.369-0.408-0.677-0.742-0.938-0.938-0.353-0.392-0.689-0.741-0.938-0.938-0.39-0.435-0.734-0.797-1-1-0.362-0.404-0.688-0.74-0.938-0.938-0.385-0.431-0.71-0.764-0.969-0.969-0.439-0.492-0.776-0.858-1.063-1.063-0.394-0.44-0.703-0.779-0.969-0.969-0.387-0.432-0.708-0.782-0.969-0.969-0.393-0.44-0.707-0.782-0.969-0.969-0.373-0.418-0.69-0.75-0.938-0.938-0.406-0.457-0.739-0.776-1-0.969-0.392-0.441-0.686-0.778-0.938-0.969-0.42-0.475-0.738-0.775-1-0.969-0.404-0.457-0.715-0.781-0.969-0.969-0.411-0.465-0.714-0.781-0.969-0.969-0.452-0.512-0.759-0.846-1.031-1.031-0.376-0.426-0.64-0.695-0.875-0.875-0.464-0.528-0.733-0.805-1-1-0.473-0.537-0.73-0.812-1-1-0.455-0.518-0.709-0.785-0.969-0.969-0.463-0.527-0.737-0.823-1-1-0.471-0.536-0.733-0.831-1-1-0.475-0.54-0.731-0.839-1-1-0.482-0.548-0.727-0.848-1-1-0.48-0.545-0.727-0.824-1-0.969-0.005-0.006 0.005-0.025 0-0.031-0.466-0.53-0.704-0.797-0.969-0.938-0.005-0.006 0.005-0.025 0-0.031-0.453-0.515-0.711-0.801-0.969-0.938-0.015-0.017-0.016-0.046-0.031-0.063-0.44-0.5-0.688-0.773-0.938-0.906-0.024-0.028-0.038-0.066-0.063-0.094-0.426-0.485-0.664-0.746-0.906-0.875-0.034-0.039-0.06-0.086-0.094-0.125-0.413-0.47-0.64-0.719-0.875-0.844-0.043-0.05-0.081-0.107-0.125-0.156-0.4-0.454-0.617-0.692-0.844-0.813-0.053-0.061-0.103-0.127-0.156-0.188-0.386-0.439-0.593-0.664-0.813-0.781-0.053-0.061-0.103-0.127-0.156-0.188-0.373-0.424-0.601-0.668-0.813-0.781-0.063-0.072-0.124-0.147-0.188-0.219-0.36-0.409-0.577-0.641-0.781-0.75-0.072-0.083-0.146-0.167-0.219-0.25-0.376-0.427-0.564-0.622-0.781-0.719-0.077-0.088-0.141-0.193-0.219-0.281-0.365-0.415-0.539-0.596-0.75-0.688-0.087-0.1-0.162-0.213-0.25-0.313-0.35-0.399-0.516-0.569-0.719-0.656-0.097-0.111-0.184-0.234-0.281-0.344-0.336-0.382-0.493-0.541-0.688-0.625-0.106-0.121-0.207-0.254-0.313-0.375-0.328-0.373-0.465-0.547-0.656-0.625-0.101-0.116-0.211-0.228-0.313-0.344-0.312-0.355-0.474-0.519-0.656-0.594-0.116-0.134-0.227-0.273-0.344-0.406-0.301-0.342-0.449-0.492-0.625-0.563-0.126-0.144-0.249-0.294-0.375-0.438-0.286-0.325-0.426-0.465-0.594-0.531-0.135-0.155-0.271-0.314-0.406-0.469-0.289-0.329-0.419-0.443-0.594-0.5-0.14-0.161-0.266-0.34-0.406-0.5-0.261-0.296-0.378-0.411-0.531-0.469-0.153-0.176-0.315-0.356-0.469-0.531-0.25-0.285-0.351-0.385-0.5-0.438-0.155-0.178-0.313-0.355-0.469-0.531-0.25-0.284-0.378-0.393-0.531-0.438-0.16-0.184-0.308-0.38-0.469-0.563-0.241-0.274-0.348-0.368-0.5-0.406-0.169-0.194-0.33-0.401-0.5-0.594-0.224-0.255-0.328-0.339-0.469-0.375-0.178-0.205-0.353-0.422-0.531-0.625-0.24-0.273-0.295-0.355-0.469-0.375-0.178-0.205-0.353-0.422-0.531-0.625-0.192-0.218-0.285-0.283-0.406-0.313-0.197-0.227-0.396-0.462-0.594-0.688-0.179-0.203-0.259-0.256-0.375-0.281-0.198-0.228-0.395-0.461-0.594-0.688-0.12-0.136-0.213-0.214-0.281-0.25-0.083-0.087-0.201-0.168-0.281-0.25-0.145-0.167-0.292-0.334-0.438-0.5-0.136-0.154-0.197-0.227-0.281-0.25-0.005-0.005-0.026 0.005-0.031 0-0.162-0.178-0.286-0.306-0.438-0.469l-0.031-0.031c-0.078-0.084-0.143-0.17-0.219-0.25-0.093-0.106-0.134-0.159-0.188-0.188-0.282-0.293-0.559-0.573-0.813-0.813-0.08-0.091-0.111-0.132-0.156-0.156-0.623-0.685-1.159-1.242-1.656-1.719-0.091-0.096-0.194-0.191-0.281-0.281-0.175-0.192-0.306-0.325-0.469-0.5-0.042-0.041-0.084-0.054-0.125-0.094-0.119-0.127-0.23-0.257-0.344-0.375-0.172-0.189-0.308-0.328-0.469-0.5-0.041-0.04-0.085-0.055-0.125-0.094-0.117-0.125-0.232-0.259-0.344-0.375-0.184-0.202-0.329-0.348-0.5-0.531l-0.063-0.063c-0.482-0.514-0.936-0.968-1.344-1.344-0.184-0.202-0.329-0.348-0.5-0.531-0.035-0.035-0.059-0.06-0.094-0.094-0.373-0.397-0.737-0.781-1.063-1.094-0.075-0.08-0.146-0.174-0.219-0.25-2.592-2.85-3.874-3.781-6.156-4.094-0.257-0.267-0.551-0.551-0.906-0.875-0.277-0.296-0.594-0.629-1-1-0.277-0.296-0.594-0.629-1-1-0.271-0.287-0.611-0.644-1-1-0.278-0.294-0.598-0.665-1-1.031-0.268-0.281-0.589-0.59-0.969-0.938-0.278-0.296-0.593-0.628-1-1-0.277-0.296-0.594-0.629-1-1-0.218-0.232-0.483-0.501-0.781-0.781-0.305-0.348-0.698-0.742-1.219-1.219-0.278-0.294-0.598-0.665-1-1.031-0.268-0.281-0.589-0.59-0.969-0.938-0.278-0.296-0.593-0.628-1-1-0.277-0.296-0.594-0.629-1-1-1.574-1.678-5.328-4.69-9.719-7.688-17.854-12.187-34.865-19.766-56.44-25.16-11.942-2.984-15.04-3.268-37.09-3.313-4.01-0.008-7.573-0.02-10.719 0" fill-opacity=".235"/>
 <g fill-rule="evenodd">
  <path d="m256 1c-140.83 0-255 114.17-255 255s114.17 255 255 255 255-114.17 255-255-114.17-255-255-255m8.827 44.931c120.9 0 218.9 98 218.9 218.9s-98 218.9-218.9 218.9-218.93-98-218.93-218.9 98.03-218.9 218.93-218.9" fill-opacity=".067"/>
  <g fill-opacity=".129">
   <path d="m256 4.433c-138.94 0-251.57 112.63-251.57 251.57s112.63 251.57 251.57 251.57 251.57-112.63 251.57-251.57-112.63-251.57-251.57-251.57m5.885 38.556c120.9 0 218.9 98 218.9 218.9s-98 218.9-218.9 218.9-218.93-98-218.93-218.9 98.03-218.9 218.93-218.9"/>
   <path d="m256 8.356c-136.77 0-247.64 110.87-247.64 247.64s110.87 247.64 247.64 247.64 247.64-110.87 247.64-247.64-110.87-247.64-247.64-247.64m2.942 31.691c120.9 0 218.9 98 218.9 218.9s-98 218.9-218.9 218.9-218.93-98-218.93-218.9 98.03-218.9 218.93-218.9"/>
  </g>
  <path d="m253.04 7.859c-135.42 0-245.19 109.78-245.19 245.19 0 135.42 109.78 245.19 245.19 245.19 135.42 0 245.19-109.78 245.19-245.19 0-135.42-109.78-245.19-245.19-245.19zm0 26.297c120.9 0 218.9 98 218.9 218.9s-98 218.9-218.9 218.9-218.93-98-218.93-218.9 98.03-218.9 218.93-218.9z" stroke-opacity=".31" stroke="#000000" stroke-width="4.904" fill="#ffffff"/>
 </g>
 <g fill="#ffffff">
  <path d="m279.49 422.59 9.0157-1.3393 6.16-8.8985c8.0414-11.616 13.572-23.748 17.513-38.413 4.2162-15.688 5.3361-45.97 2.4178-65.321-3.0036-19.904-5.6596-30.042-7.8549-29.974-1.0369 0.0312-5.549 4.7604-10.027 10.51-13.746 17.648-38.565 41.913-55.01 53.777-29.633 21.38-61.396 32.941-90.518 32.951-13.193 0.005-13.466 1.1435-2.4058 10.022 25.2 20.227 55.79 33.417 86.308 37.22 8.3457 1.0402 36.061 0.70991 44.404-0.52973"/>
  <path d="m320.99 411.2c24.275-9.7057 49.776-28.813 66.141-49.562 11.447-14.51 21.881-32.98 27.703-49.034l2.6873-7.4066-3.8276-7.1724c-8.5466-16.013-25.805-34.128-44.652-46.871-11.934-8.0685-35.676-19.387-51.929-24.763-17.816-5.8895-18.236-5.8138-14.619 2.6643 10.494 24.622 19.307 54.655 22.664 77.297 2.4467 16.473 2.4443 43.009 0 57.592-2.2783 13.562-7.654 30.078-13.256 40.713-4.2114 8-4.9716 10.847-2.8942 10.847 0.65679 0 6.0506-1.9399 11.983-4.3123z"/>
  <path d="m171.35 363.23c25.761-4.4865 53.937-19.279 80.943-42.486 12.481-10.727 12.468-10.75-8.1869-13.333-66.037-8.2751-118.63-35.312-144.41-74.228-3.5883-5.4174-7.1741-9.8498-7.968-9.8498-2.3745 0-3.3958 10.13-3.3934 33.634 0 30.054 3.5028 46.126 15.615 71.724 4.9824 10.531 18.622 31.869 21.515 33.658 4.7466 2.9357 31.189 3.4474 45.879 0.88889"/>
  <path d="m211.65 288.49c0-0.49609-2.4046-6.6883-5.3361-13.762-23.244-56.088-28.54-108.85-14.983-149.26 1.9992-5.9604 5.496-14.335 7.7707-18.613 5.1256-9.6336 5.2639-11.379 0.82639-10.352-7.0863 1.6396-35.101 16.627-44.964 24.048-13.007 9.797-30.409 28.056-38.943 40.865-7.2415 10.871-18.2 32.794-19.343 38.679-1.5325 7.9483 11.465 29.284 27.715 45.495 17.009 16.973 37.567 29.069 65.558 38.595 14.256 4.8528 21.7 6.3291 21.688 4.3015"/>
  <path d="m422.99 280.08c0.53649-3.1387 0.93586-14.895 0.88654-26.126-0.071-16.348-0.62551-22.919-2.7799-32.981-5.9532-27.796-20.01-56.073-38.084-76.628-5.3541-6.0889-5.7607-6.3063-11.799-6.3063-23.667 0-53.759 9.1664-75.951 23.134-17.782 11.193-45.117 34.215-45.117 37.999 0 1.8102 2.2602 2.4396 15.235 4.2414 18.563 2.5778 47.322 9.6697 63.555 15.688 15.967 5.9111 39.314 18.102 51.496 26.886 10.543 7.6036 29.63 26.51 35.101 34.77 4.3653 6.5862 6.2394 6.4168 7.452-0.67508"/>
  <path d="m212.13 226.4c15.871-22.209 41.5-48.432 62.695-64.144 22.222-16.477 50.931-29.378 72.751-32.697 13.884-2.1117 14.416-2.2595 14.416-4.0168 0-0.90571-4.737-4.8805-10.525-8.8324-17.855-12.187-34.868-19.772-56.441-25.163-11.942-2.9838-15.025-3.2589-37.084-3.3033-32.095-0.06486-34.451 0.38318-39.72 7.5399-15.349 20.848-23.441 48.132-23.405 78.895 0.0277 23.618 6.1396 59.459 10.138 59.459 0.90939 0 4.1428-3.4847 7.1861-7.7429"/>
 </g>
</svg>
