<svg viewBox="0 0 512 512" xmlns="http://www.w3.org/2000/svg">
 <path d="m471.95 253.05c0 120.9-98.01 218.91-218.91 218.91s-218.91-98.01-218.91-218.91 98.01-218.91 218.91-218.91 218.91 98.01 218.91 218.91" fill="#8f8f8f" fill-rule="evenodd"/>
 <path d="m189.03 43.656c-6.147 1.876-12.159 4.02-18.06 6.406v120.91h-120.91c-2.386 5.895-4.532 11.926-6.406 18.06h127.31v133.94h-125.44c2.071 6.146 4.443 12.174 7.03 18.06h118.41v115c5.902 2.389 11.918 4.53 18.06 6.406v-121.41h133.94v119.53c6.151-2.072 12.17-4.441 18.06-7.03v-112.5h112.5c2.589-5.891 4.929-11.913 7-18.06h-119.5v-133.94h121.38c-1.874-6.134-3.99-12.171-6.375-18.06h-115v-118.41c-5.893-2.59-11.912-4.928-18.06-7v125.41h-133.94v-127.31m0 145.38h133.94v133.94h-133.94z" fill="#ffffff" opacity=".81"/>
 <path d="m258.06 69.75c-9.05 0-16.13 2.171-21.281 6.5-5.109 4.329-7.656 10.277-7.656 17.844 0 4.02.784 7.528 2.344 10.531 1.251 2.409 2.834 4.564 4.76 6.49l28.03 28.03c-.398.463-.859.884-1.387 1.258-2.106 1.521-5.147 2.281-9.125 2.281-3.315 0-6.983-.509-11-1.563-3.978-1.053-8.853-2.863-14.625-5.438v16.844l59.5 59.5h-10l-10.684 32.566-32.566-32.566h-25.375v83.09l-83.09-83.09h-40v10.594l10.688 10.688v51.13l-10.688 4.938v10.594l142.22 142.22v6.469l23.281 23.281c.545.004 1.087.021 1.633.021 117.24 0 212.94-92.16 218.63-207.97l-188.2-188.2c-4.407-1.911-8.631-3.416-12.688-4.469-4.02-1.053-8.272-1.562-12.719-1.563" opacity=".25"/>
 <g fill-rule="evenodd">
  <path d="m256 1c-140.83 0-255 114.17-255 255s114.17 255 255 255 255-114.17 255-255-114.17-255-255-255m8.827 44.931c120.9 0 218.9 98 218.9 218.9s-98 218.9-218.9 218.9-218.93-98-218.93-218.9 98.03-218.9 218.93-218.9" fill-opacity=".067"/>
  <g fill-opacity=".129">
   <path d="m256 4.43c-138.94 0-251.57 112.63-251.57 251.57s112.63 251.57 251.57 251.57 251.57-112.63 251.57-251.57-112.63-251.57-251.57-251.57m5.885 38.556c120.9 0 218.9 98 218.9 218.9s-98 218.9-218.9 218.9-218.93-98-218.93-218.9 98.03-218.9 218.93-218.9"/>
   <path d="m256 8.36c-136.77 0-247.64 110.87-247.64 247.64s110.87 247.64 247.64 247.64 247.64-110.87 247.64-247.64-110.87-247.64-247.64-247.64m2.942 31.691c120.9 0 218.9 98 218.9 218.9s-98 218.9-218.9 218.9-218.93-98-218.93-218.9 98.03-218.9 218.93-218.9"/>
  </g>
 </g>
 <g fill="#ffffff">
  <path d="m258.06 69.75c-9.05 0-16.13 2.171-21.281 6.5-5.109 4.329-7.656 10.277-7.656 17.844 0 4.02.784 7.528 2.344 10.531 1.56 3 3.637 5.613 6.25 7.875s6.524 4.637 11.75 7.094c5.577 2.652 9.268 4.572 11.06 5.781 1.833 1.209 3.22 2.486 4.156 3.813.936 1.287 1.406 2.76 1.406 4.438 0 3-1.074 5.26-3.219 6.781-2.106 1.521-5.147 2.281-9.125 2.281-3.315 0-6.983-.509-11-1.563-3.978-1.053-8.853-2.863-14.625-5.438v16.844c7.02 3.432 15.09 5.156 24.22 5.156 9.907 0 17.618-2.241 23.16-6.688 5.577-4.446 8.375-10.527 8.375-18.25 0-5.577-1.473-10.271-4.438-14.09-2.964-3.861-8.442-7.709-16.438-11.531-6.05-2.886-9.893-4.877-11.531-5.969-1.599-1.131-2.759-2.267-3.5-3.438-.741-1.209-1.125-2.62-1.125-4.219 0-2.574.917-4.651 2.75-6.25s4.474-2.406 7.906-2.406c2.886 0 5.817.353 8.781 1.094 3 .741 6.78 2.065 11.344 3.938l5.844-14.09c-4.407-1.911-8.631-3.416-12.688-4.469-4.02-1.053-8.272-1.562-12.719-1.563m-172.16 142.28v10.594l10.688 4.938v56.875l-10.688 4.938v10.594h40v-10.594l-10.719-4.938v-56.875l10.719-4.938v-10.594zm123.09 0v87.94h16.656v-40.906c0-4.691-.394-14.06-1.156-28.09h.563l21.16 69h17.09l22.656-68.875h.563c-.481 11.07-.764 17.903-.844 20.469-.04 2.566-.063 4.817-.063 6.781v41.625h17.375v-87.94h-25.375l-22.06 67.25h-.375l-20.813-67.25h-25.375m49.06 153.84c-9.05 0-16.13 2.171-21.281 6.5-5.109 4.329-7.656 10.277-7.656 17.844 0 4.02.784 7.528 2.344 10.531 1.56 3 3.637 5.644 6.25 7.906s6.524 4.605 11.75 7.06c5.577 2.652 9.268 4.603 11.06 5.813 1.833 1.209 3.22 2.455 4.156 3.781.936 1.287 1.406 2.792 1.406 4.469 0 3-1.074 5.26-3.219 6.781-2.106 1.521-5.147 2.281-9.125 2.281-3.315 0-6.983-.541-11-1.594-3.978-1.053-8.853-2.863-14.625-5.438v16.844c7.02 3.432 15.09 5.156 24.22 5.156 9.907 0 17.618-2.21 23.16-6.656 5.577-4.446 8.375-10.527 8.375-18.25 0-5.577-1.473-10.303-4.438-14.12-2.964-3.861-8.442-7.678-16.438-11.5-6.05-2.886-9.893-4.877-11.531-5.969-1.599-1.131-2.759-2.299-3.5-3.469-.741-1.209-1.125-2.62-1.125-4.219 0-2.574.917-4.651 2.75-6.25s4.474-2.406 7.906-2.406c2.886 0 5.817.384 8.781 1.125 3 .741 6.78 2.034 11.344 3.906l5.844-14.09c-4.407-1.911-8.631-3.384-12.688-4.438-4.02-1.053-8.272-1.594-12.719-1.594m108.72 0v55.906c0 6.177 1.207 11.539 3.594 16.09 5.367-3.414 10.558-7.05 15.594-10.906-.553-2.294-.844-4.936-.844-7.969v-53.12h-18.344m52.875 0v29.16c6.673-7.824 12.811-16.13 18.344-24.844v-4.313h-18.344"/>
  <path d="m253.04 7.86c-135.42 0-245.19 109.78-245.19 245.19 0 135.42 109.78 245.19 245.19 245.19 135.42 0 245.19-109.78 245.19-245.19 0-135.42-109.78-245.19-245.19-245.19m0 26.297c120.9 0 218.9 98 218.9 218.9s-98 218.9-218.9 218.9-218.93-98-218.93-218.9 98.03-218.9 218.93-218.9z" fill-rule="evenodd" stroke="#000000" stroke-opacity=".31" stroke-width="4.904"/>
 </g>
</svg>
