<svg height="512" viewBox="0 0 512 512" width="512" xmlns="http://www.w3.org/2000/svg">
 <g transform="translate(0 -540.36)">
  <path d="m471.95 793.41c0 120.9-98.01 218.9-218.9 218.9-120.9 0-218.9-98.01-218.9-218.9 0-120.9 98.01-218.9 218.9-218.9 120.9 0 218.9 98.01 218.9 218.9" fill="#777777" fill-rule="evenodd"/>
  <path d="m190.03 120.06c-39.24 0-71.03 31.799-71.03 71.03 0 13.12 3.553 25.362 9.75 35.906-1.625 7.958-2.469 16.217-2.469 24.656 0 34.08 13.913 64.919 36.38 87.13.419.424.856.832 1.281 1.25.239.24.478.481.719.719.166.168.333.333.5.5.116.113.227.231.344.344.217.22.438.438.656.656.027.026.067.037.094.063.304.311.599.63.906.938.027.025.067.037.094.063.449.458.888.924 1.344 1.375.435.44.871.879 1.313 1.313.239.24.478.481.719.719.166.168.333.333.5.5.116.113.227.231.344.344.217.22.438.438.656.656.027.026.067.037.094.063.304.311.599.63.906.938.027.025.067.037.094.063.302.308.601.632.906.938.027.025.067.037.094.063.567.579 1.14 1.151 1.719 1.719.026.026.037.067.063.094.198.198.395.397.594.594.166.168.333.333.5.5.116.113.227.231.344.344.217.22.438.438.656.656.027.026.067.037.094.063.041.043.084.082.125.125.263.268.516.547.781.813.027.025.067.037.094.063.304.311.599.63.906.938.027.025.067.037.094.063.449.458.888.924 1.344 1.375.435.44.871.879 1.313 1.313.239.24.478.481.719.719.166.168.333.333.5.5.116.113.227.231.344.344.217.22.438.438.656.656.027.026.067.037.094.063.304.311.599.63.906.938.027.025.067.037.094.063.449.458.888.924 1.344 1.375.435.44.871.879 1.313 1.313.239.24.478.481.719.719.166.168.333.333.5.5.116.113.227.231.344.344.217.22.438.438.656.656.027.026.067.037.094.063.304.311.599.63.906.938.027.025.067.037.094.063.302.308.601.632.906.938.027.025.067.037.094.063.02.021.042.041.063.063.531.542 1.052 1.093 1.594 1.625.239.24.478.481.719.719.166.168.333.333.5.5.116.113.227.231.344.344.217.22.438.438.656.656.027.026.067.037.094.063.041.043.084.082.125.125.263.268.516.547.781.813.027.025.067.037.094.063.304.311.599.63.906.938.027.025.067.037.094.063.531.542 1.053 1.093 1.594 1.625.094.095.187.187.281.281.037.036.088.058.125.094.046.048.079.108.125.156.413.42.831.836 1.25 1.25.166.168.333.333.5.5.116.113.227.231.344.344.217.22.438.438.656.656.027.026.067.037.094.063.304.311.599.63.906.938.027.025.067.037.094.063.449.458.888.924 1.344 1.375.435.44.871.879 1.313 1.313.239.24.478.481.719.719.166.168.333.333.5.5.116.113.227.231.344.344.217.22.438.438.656.656.027.026.067.037.094.063.304.311.599.63.906.938.027.025.067.037.094.063.449.458.888.924 1.344 1.375.435.44.871.879 1.313 1.313.239.24.478.481.719.719.166.168.333.333.5.5.116.113.227.231.344.344.217.22.438.438.656.656.027.026.067.037.094.063.304.311.599.63.906.938.027.025.067.037.094.063.302.308.601.632.906.938.027.025.067.037.094.063.02.021.042.041.063.063.531.542 1.052 1.093 1.594 1.625.239.24.478.481.719.719.166.168.333.333.5.5.116.113.227.231.344.344.217.22.438.438.656.656.027.026.067.037.094.063.041.043.084.082.125.125.263.268.516.547.781.813.027.025.067.037.094.063.304.311.599.63.906.938.027.025.067.037.094.063.449.458.888.924 1.344 1.375.435.44.871.879 1.313 1.313.239.24.478.481.719.719.166.168.333.333.5.5.116.113.227.231.344.344.217.22.438.438.656.656.027.026.067.037.094.063.304.311.599.63.906.938.027.025.067.037.094.063.449.458.888.924 1.344 1.375.435.44.871.879 1.313 1.313.239.24.478.481.719.719.166.168.333.333.5.5.116.113.227.231.344.344.217.22.438.438.656.656.027.026.067.037.094.063.304.311.599.63.906.938.027.025.067.037.094.063.449.458.888.924 1.344 1.375.435.44.871.879 1.313 1.313.239.24.478.481.719.719.166.168.333.333.5.5.116.113.227.231.344.344.217.22.438.438.656.656.027.026.067.037.094.063.041.043.084.082.125.125.263.268.516.547.781.813.027.025.067.037.094.063.304.311.599.63.906.938.027.025.067.037.094.063.531.542 1.053 1.093 1.594 1.625.094.095.187.187.281.281.037.036.088.058.125.094.046.048.079.108.125.156.413.42.831.836 1.25 1.25.166.168.333.333.5.5.116.113.227.231.344.344.217.22.438.438.656.656.027.026.067.037.094.063.304.311.599.63.906.938.027.025.067.037.094.063.449.458.888.924 1.344 1.375.435.44.871.879 1.313 1.313.239.24.478.481.719.719.166.168.333.333.5.5.116.113.227.231.344.344.217.22.438.438.656.656.027.026.067.037.094.063.304.311.599.63.906.938.027.025.067.037.094.063.449.458.888.924 1.344 1.375.435.44.871.879 1.313 1.313.239.24.478.481.719.719.166.168.333.333.5.5.116.113.227.231.344.344.217.22.438.438.656.656.027.026.067.037.094.063.304.311.599.63.906.938.027.025.067.037.094.063.302.308.601.632.906.938.027.025.067.037.094.063.02.021.042.041.063.063.531.542 1.052 1.093 1.594 1.625.239.24.478.481.719.719.166.168.333.333.5.5.116.113.227.231.344.344.217.22.438.438.656.656.027.026.067.037.094.063.041.043.084.082.125.125.263.268.516.547.781.813.027.025.067.037.094.063.304.311.599.63.906.938.027.025.067.037.094.063.531.542 1.053 1.093 1.594 1.625.094.095.187.187.281.281.037.036.088.058.125.094.046.048.079.108.125.156.413.42.831.836 1.25 1.25.166.168.333.333.5.5.116.113.227.231.344.344.217.22.438.438.656.656.027.026.067.037.094.063.304.311.599.63.906.938.027.025.067.037.094.063.449.458.888.924 1.344 1.375.435.44.871.879 1.313 1.313.239.24.478.481.719.719.166.168.333.333.5.5.116.113.227.231.344.344.217.22.438.438.656.656.027.026.067.037.094.063.304.311.599.63.906.938.027.025.067.037.094.063.449.458.888.924 1.344 1.375.435.44.871.879 1.313 1.313.239.24.478.481.719.719.166.168.333.333.5.5.116.113.227.231.344.344.217.22.438.438.656.656.027.026.067.037.094.063.041.043.084.082.125.125.263.268.516.547.781.813.027.025.067.037.094.063.304.311.599.63.906.938.027.025.067.037.094.063.567.579 1.14 1.151 1.719 1.719.026.026.037.067.063.094l.094.094c.069.067.15.121.219.188.056.058.1.129.156.188.372.378.748.752 1.125 1.125.166.168.333.333.5.5.116.113.227.231.344.344.217.22.438.438.656.656.027.026.067.037.094.063.242.247.477.502.719.75 87.78-15.916 157.33-84.19 175.16-171.28.002-.01-.002-.021 0-.031-.228-.22-.461-.435-.688-.656-.016-.015-.015-.047-.031-.063-.011-.01-.021-.021-.031-.031-.302-.302-.601-.607-.906-.906l-.094-.094c-.654-.669-1.3-1.346-1.969-2-.302-.302-.632-.576-.938-.875-.016-.015-.015-.047-.031-.063-.011-.01-.021-.021-.031-.031-.307-.307-.627-.602-.938-.906-.016-.016-.016-.046-.031-.063-.011-.01-.021-.021-.031-.031-.307-.307-.627-.602-.938-.906-.016-.015-.015-.047-.031-.063-.011-.01-.021-.021-.031-.031-.302-.302-.601-.607-.906-.906l-.094-.094c-.654-.669-1.3-1.346-1.969-2-.182-.182-.379-.35-.563-.531-.478-.483-.951-.962-1.438-1.438-.307-.307-.627-.602-.938-.906-.016-.015-.015-.047-.031-.063-.011-.01-.021-.021-.031-.031-.333-.333-.663-.671-1-1-.297-.297-.606-.581-.906-.875-.02-.021-.042-.042-.063-.063-.016-.015-.015-.047-.031-.063-.115-.115-.229-.23-.344-.344-.393-.399-.789-.794-1.188-1.188-.478-.483-.951-.962-1.438-1.438-.307-.307-.627-.602-.938-.906-.016-.015-.015-.047-.031-.063-.011-.01-.021-.021-.031-.031-.333-.333-.663-.671-1-1-.333-.333-.663-.671-1-1l-.219-.219c-.434-.441-.872-.878-1.313-1.313-.451-.456-.917-.895-1.375-1.344-.016-.016-.016-.046-.031-.063-.011-.01-.021-.021-.031-.031-.307-.307-.627-.602-.938-.906-.016-.016-.016-.046-.031-.063-.011-.01-.021-.021-.031-.031-.307-.307-.627-.602-.938-.906-.016-.015-.015-.047-.031-.063-.011-.01-.021-.021-.031-.031-.302-.302-.601-.607-.906-.906l-.094-.094c-.654-.669-1.3-1.346-1.969-2-.182-.182-.379-.35-.563-.531-.478-.483-.951-.962-1.438-1.438-.307-.307-.627-.602-.938-.906-.016-.015-.015-.047-.031-.063-.011-.01-.021-.021-.031-.031-.302-.302-.601-.607-.906-.906l-.094-.094c-.654-.669-1.3-1.346-1.969-2-.182-.182-.379-.35-.563-.531-.478-.483-.951-.962-1.438-1.438-.307-.307-.627-.602-.938-.906-.016-.015-.015-.047-.031-.063-.011-.01-.021-.021-.031-.031-.333-.333-.663-.671-1-1-.333-.333-.663-.671-1-1l-.219-.219c-.434-.441-.872-.878-1.313-1.313-.451-.456-.917-.895-1.375-1.344-.016-.016-.016-.046-.031-.063-.011-.01-.021-.021-.031-.031-.307-.307-.627-.602-.938-.906-.016-.016-.016-.046-.031-.063-.011-.01-.021-.021-.031-.031-.307-.307-.627-.602-.938-.906-.016-.015-.015-.047-.031-.063-.011-.01-.021-.021-.031-.031-.302-.302-.601-.607-.906-.906l-.094-.094c-.654-.669-1.3-1.346-1.969-2-.302-.302-.632-.576-.938-.875-.016-.015-.015-.047-.031-.063-.011-.01-.021-.021-.031-.031-.307-.307-.627-.602-.938-.906-.016-.016-.016-.046-.031-.063-.011-.01-.021-.021-.031-.031-.307-.307-.627-.602-.938-.906-.016-.015-.015-.047-.031-.063-.011-.01-.021-.021-.031-.031-.302-.302-.601-.607-.906-.906l-.094-.094c-.654-.669-1.3-1.346-1.969-2-.182-.182-.379-.35-.563-.531-.478-.483-.951-.962-1.438-1.438-.307-.307-.627-.602-.938-.906-.016-.015-.015-.047-.031-.063-.011-.01-.021-.021-.031-.031-.333-.333-.663-.671-1-1-.297-.297-.606-.581-.906-.875-.02-.021-.042-.042-.063-.063-.016-.015-.015-.047-.031-.063-.115-.115-.229-.23-.344-.344-.393-.399-.789-.794-1.188-1.188-.478-.483-.951-.962-1.438-1.438-.307-.307-.627-.602-.938-.906-.016-.015-.015-.047-.031-.063-.011-.01-.021-.021-.031-.031-.333-.333-.663-.671-1-1-.333-.333-.663-.671-1-1l-.219-.219c-.434-.441-.872-.878-1.313-1.313-.451-.456-.917-.895-1.375-1.344-.016-.016-.016-.046-.031-.063-.011-.01-.021-.021-.031-.031-.307-.307-.627-.602-.938-.906-.016-.016-.016-.046-.031-.063-.011-.01-.021-.021-.031-.031-.307-.307-.627-.602-.938-.906-.016-.015-.015-.047-.031-.063-.011-.01-.021-.021-.031-.031-.302-.302-.601-.607-.906-.906l-.094-.094c-.654-.669-1.3-1.346-1.969-2-.302-.302-.632-.576-.938-.875-.016-.015-.015-.047-.031-.063-.011-.01-.021-.021-.031-.031-.3-.314-.634-.595-.938-.906-.016-.016-.016-.046-.031-.063-.011-.01-.021-.021-.031-.031-.307-.307-.627-.602-.938-.906-.016-.015-.015-.047-.031-.063-.011-.01-.021-.021-.031-.031-.302-.302-.601-.607-.906-.906l-.094-.094c-.654-.669-1.3-1.346-1.969-2-.182-.182-.379-.35-.563-.531-.478-.483-.951-.962-1.438-1.438-.307-.307-.627-.602-.938-.906-.016-.015-.015-.047-.031-.063-.011-.01-.021-.021-.031-.031-.333-.333-.663-.671-1-1-.333-.333-.663-.671-1-1l-.219-.219c-.434-.441-.872-.878-1.313-1.313-.451-.456-.917-.895-1.375-1.344-.016-.016-.016-.046-.031-.063-.011-.01-.021-.021-.031-.031-.307-.307-.627-.602-.938-.906-.016-.016-.016-.046-.031-.063-.011-.01-.021-.021-.031-.031-.333-.333-.663-.671-1-1-.333-.333-.663-.671-1-1l-.219-.219c-.434-.441-.872-.878-1.313-1.313-.451-.456-.917-.895-1.375-1.344-.016-.016-.016-.046-.031-.063-.011-.01-.021-.021-.031-.031-.307-.307-.627-.602-.938-.906-.016-.016-.016-.046-.031-.063-.011-.01-.021-.021-.031-.031-.307-.307-.627-.602-.938-.906-.016-.015-.015-.047-.031-.063-.011-.01-.021-.021-.031-.031-.302-.302-.601-.607-.906-.906l-.094-.094c-.654-.669-1.3-1.346-1.969-2-.182-.182-.379-.35-.563-.531-.478-.483-.951-.962-1.438-1.438-.307-.307-.627-.602-.938-.906-.016-.015-.015-.047-.031-.063-.011-.01-.021-.021-.031-.031-.214-.224-.441-.434-.656-.656-.115-.114-.228-.23-.344-.344-.293-.3-.61-.578-.906-.875-.02-.021-.042-.042-.063-.063-.016-.015-.015-.047-.031-.063-.115-.115-.229-.23-.344-.344-.393-.399-.789-.794-1.188-1.188-.478-.483-.951-.962-1.438-1.438-.307-.307-.627-.602-.938-.906-.016-.015-.015-.047-.031-.063-.011-.01-.021-.021-.031-.031-.333-.333-.663-.671-1-1-.333-.333-.663-.671-1-1l-.219-.219c-.434-.441-.872-.878-1.313-1.313-.451-.456-.917-.895-1.375-1.344-.016-.016-.016-.046-.031-.063-.011-.01-.021-.021-.031-.031-.3-.314-.634-.595-.938-.906-.016-.016-.016-.046-.031-.063-.011-.01-.021-.021-.031-.031-.3-.314-.634-.595-.938-.906-.016-.015-.015-.047-.031-.063-.011-.01-.021-.021-.031-.031-.302-.302-.601-.607-.906-.906l-.094-.094c-.654-.669-1.3-1.346-1.969-2-.302-.302-.632-.576-.938-.875-.016-.015-.015-.047-.031-.063-.011-.01-.021-.021-.031-.031-.307-.307-.627-.602-.938-.906-.016-.016-.016-.046-.031-.063-.011-.01-.021-.021-.031-.031-.307-.307-.627-.602-.938-.906-.016-.015-.015-.047-.031-.063-.011-.01-.021-.021-.031-.031-.302-.302-.601-.607-.906-.906l-.094-.094c-.654-.669-1.3-1.346-1.969-2-.182-.182-.379-.35-.563-.531-.478-.483-.951-.962-1.438-1.438-.307-.307-.627-.602-.938-.906-.016-.015-.015-.047-.031-.063-.011-.01-.021-.021-.031-.031-.333-.333-.663-.671-1-1-.333-.333-.663-.671-1-1l-.219-.219c-.434-.441-.872-.878-1.313-1.313-.451-.456-.917-.895-1.375-1.344-.016-.016-.016-.046-.031-.063-.011-.01-.021-.021-.031-.031-.333-.333-.663-.671-1-1-.333-.333-.663-.671-1-1-22.17-22.17-52.796-35.875-86.62-35.875-7.143 0-14.13.608-20.938 1.781-10.99-6.81-23.96-10.79-37.86-10.79" fill-opacity=".235" transform="translate(0 540.36)"/>
  <g fill-rule="evenodd">
   <path d="m256 541.36c-140.83 0-255 114.17-255 255s114.17 255 255 255 255-114.17 255-255-114.17-255-255-255m8.827 44.931c120.9 0 218.9 98 218.9 218.9s-98 218.9-218.9 218.9-218.93-98-218.93-218.9 98.03-218.9 218.93-218.9" fill-opacity=".067"/>
   <g fill-opacity=".129">
    <path d="m256 544.79c-138.94 0-251.57 112.63-251.57 251.57s112.63 251.54 251.57 251.54 251.57-112.6 251.57-251.54-112.63-251.57-251.57-251.57m5.885 38.556c120.9 0 218.9 98 218.9 218.9s-98 218.9-218.9 218.9-218.93-98-218.93-218.9 98.03-218.9 218.93-218.9"/>
    <path d="m256 548.72c-136.77 0-247.64 110.87-247.64 247.64s110.87 247.64 247.64 247.64 247.64-110.87 247.64-247.64-110.87-247.64-247.64-247.64m2.942 31.691c120.9 0 218.9 98 218.9 218.9s-98 218.9-218.9 218.9-218.93-98-218.93-218.9 98.03-218.9 218.93-218.9"/>
   </g>
   <path d="m253.04 548.22c-135.42 0-245.19 109.78-245.19 245.19 0 135.42 109.78 245.19 245.19 245.19 135.42 0 245.19-109.78 245.19-245.19 0-135.42-109.78-245.19-245.19-245.19zm0 26.297c120.9 0 218.9 98 218.9 218.9s-98 218.9-218.9 218.9-218.93-98-218.93-218.9 98.03-218.9 218.93-218.9z" fill="#ffffff" stroke="#000000" stroke-opacity=".31" stroke-width="4.904"/>
  </g>
  <path d="m190.03 660.41c-39.24 0-71.03 31.799-71.03 71.03 0 13.12 3.561 25.383 9.758 35.927-1.625 7.958-2.469 16.202-2.469 24.641 0 67.66 54.842 122.5 122.5 122.5 7.663 0 15.16-.7 22.431-2.046 10 5.376 21.426 8.418 33.576 8.418 39.24 0 71.06-31.795 71.06-71.03 0-11.336-2.66-22.05-7.383-31.554 1.852-8.47 2.822-17.262 2.822-26.287 0-67.66-54.842-122.5-122.5-122.5-7.143 0-14.14.613-20.95 1.787-10.95-6.9-23.92-10.89-37.81-10.89m57.935 45.4c10.94 0 20.563 1.265 28.591 3.762 8.08 2.514 14.895 5.908 20.244 10.09 5.387 4.208 9.381 8.724 11.897 13.402 2.542 4.725 3.833 9.418 3.833 13.967 0 4.377-1.674 8.36-5.01 11.827-3.355 3.489-7.609 5.243-12.603 5.243-4.537 0-8.07-1.109-10.534-3.292-2.292-2.027-4.673-5.165-7.312-9.711-3.055-5.804-6.763-10.39-11-13.614-4.116-3.132-11-4.726-20.456-4.726-8.782 0-15.907 1.766-21.21 5.243-5.11 3.35-7.595 7.182-7.595 11.733 0 2.791.801 5.141 2.445 7.148 1.741 2.127 4.185 3.996 7.289 5.549 3.22 1.618 6.529 2.891 9.852 3.809 3.405.945 9.12 2.351 16.953 4.162 9.913 2.128 19.03 4.502 27.09 7.077 8.157 2.611 15.201 5.83 20.95 9.57 5.868 3.822 10.528 8.743 13.825 14.601 3.306 5.88 4.985 13.13 4.985 21.561 0 10.09-2.895 19.294-8.582 27.345-5.667 8.02-14.03 14.37-24.876 18.881-10.744 4.465-23.643 6.725-38.3 6.725-17.594 0-32.34-3.085-43.851-9.193-8.231-4.446-15.02-10.461-20.17-17.893-5.204-7.506-7.83-14.966-7.83-22.15 0-4.489 1.712-8.383 5.102-11.568 3.356-3.157 7.662-4.75 12.791-4.75 4.21 0 7.841 1.267 10.792 3.762 2.82 2.39 5.228 5.92 7.171 10.487 2.171 4.972 4.53 9.178 7.03 12.485 2.402 3.181 5.859 5.86 10.275 7.947 4.44 2.103 10.434 3.151 17.799 3.151 10.128 0 18.443-2.155 24.688-6.419 6.101-4.165 9.05-9.162 9.05-15.283 0-4.836-1.542-8.633-4.726-11.615-3.333-3.117-7.733-5.553-13.07-7.218-5.569-1.735-13.13-3.615-22.478-5.572-12.713-2.723-23.504-5.94-32.09-9.593-8.785-3.738-15.864-8.917-21.04-15.401-5.26-6.582-7.924-14.838-7.924-24.547 0-9.254 2.78-17.61 8.3-24.806 5.478-7.145 13.494-12.697 23.795-16.506 10.166-3.76 22.243-5.667 35.927-5.667" fill="#ffffff"/>
 </g>
</svg>
