<?xml version="1.0" encoding="UTF-8" standalone="no"?>
<svg xmlns="http://www.w3.org/2000/svg" height="512" viewBox="0 0 512 512" width="512" version="1.1">
 <defs>
  <clipPath id="clipPath-713493829">
   <g transform="translate(0,-1004.3622)">
    <path d="m -24,13 c 0,1.105 -0.672,2 -1.5,2 -0.828,0 -1.5,-0.895 -1.5,-2 0,-1.105 0.672,-2 1.5,-2 0.828,0 1.5,0.895 1.5,2 z" transform="matrix(15.333333,0,0,11.5,414.99999,878.8622)" style="fill:#9f9f9f"/>
   </g>
  </clipPath>
 </defs>
 <path style="fill:#9f9f9f;fill-rule:evenodd;fill-opacity:1" d="m 471.95,253.05 c 0,120.9 -98.01,218.9 -218.9,218.9 -120.9,0 -218.9,-98.01 -218.9,-218.9 0,-120.9 98.01,-218.9 218.9,-218.9 120.9,0 218.9,98.01 218.9,218.9"/>
 <path style="fill-opacity:0.06700003;fill-rule:evenodd" d="M 256,1 C 115.17,1 1,115.17 1,256 1,396.83 115.17,511 256,511 396.83,511 511,396.83 511,256 511,115.17 396.83,1 256,1 m 8.827,44.931 c 120.9,0 218.9,98 218.9,218.9 0,120.9 -98,218.9 -218.9,218.9 -120.9,0 -218.93,-98 -218.93,-218.9 0,-120.9 98.03,-218.9 218.93,-218.9"/>
 <g style="fill-opacity:0.12900002;fill-rule:evenodd">
  <path d="m 256,4.433 c -138.94,0 -251.57,112.63 -251.57,251.57 0,138.94 112.63,251.57 251.57,251.57 138.94,0 251.57,-112.63 251.57,-251.57 C 507.57,117.063 394.94,4.433 256,4.433 m 5.885,38.556 c 120.9,0 218.9,98 218.9,218.9 0,120.9 -98,218.9 -218.9,218.9 -120.9,0 -218.93,-98 -218.93,-218.9 0,-120.9 98.03,-218.9 218.93,-218.9"/>
  <path d="m 256,8.356 c -136.77,0 -247.64,110.87 -247.64,247.64 0,136.77 110.87,247.64 247.64,247.64 136.77,0 247.64,-110.87 247.64,-247.64 C 503.64,119.226 392.77,8.356 256,8.356 m 2.942,31.691 c 120.9,0 218.9,98 218.9,218.9 0,120.9 -98,218.9 -218.9,218.9 -120.9,0 -218.93,-98 -218.93,-218.9 0,-120.9 98.03,-218.9 218.93,-218.9"/>
 </g>
 <path style="opacity:0.25" d="m 330.30836,111.70481 c -40.58643,13.40016 -36.4991,21.99643 -85.23872,-6.3334 -16.356,0.358 -10.75228,15.3034 -19.89128,22.6334 -0.379,0.304 -0.744,0.621 -1.113,0.934 l -4.193,-4.193 c -8.754,-2.926 -16.7875,-6.55091 -37.58151,-6.53291 -1.835,10e-4 18.5779,18.45975 0.63825,8.58935 -14.657,0.81 -6.5131,13.40234 -16.6151,23.71434 -10.1,10.313 -21.91722,16.31156 -41.20906,38.86938 0.286,5.357 26.37797,21.07906 45.67759,35.77796 20.83268,13.93188 -44.15118,33.96188 -37.38918,51.67588 6.535,17.12 -17.90531,113.4253 -10.02531,121.3033 l 157.47736,83.08532 c 97.12,-22.39 193.30796,-124.74062 193.30796,-228.65062 0,-14.14 0.17706,-34.87428 -2.38594,-48.27328 -75.22188,-52.69245 -88.17069,-60.37899 -139.93,-99.503"/>
 <path style="fill:#ffffff;fill-rule:evenodd;stroke:#000000;stroke-width:4.90399981;stroke-opacity:0.31000001" d="m 253.04,7.859 c -135.42,0 -245.19,109.78 -245.19,245.19 0,135.42 109.78,245.19 245.19,245.19 135.42,0 245.19,-109.78 245.19,-245.19 0,-135.42 -109.78,-245.19 -245.19,-245.19 z m 0,26.297 c 120.9,0 218.9,98 218.9,218.9 0,120.9 -98,218.9 -218.9,218.9 -120.9,0 -218.93,-98 -218.93,-218.9 0,-120.9 98.03,-218.9 218.93,-218.9 z"/>
 <g transform="matrix(10.912402,0,0,12.379525,-5.709266,-31.960822)" style="fill:#ffffff">
  <g clip-path="url(#clipPath-713493829)" style="fill:#ffffff">
   <g style="fill:#ffffff">
    <path d="M 11.965,20 C 11.395,20.027 11,20.156 11,20.766 l 0,12.773 c 0,0.809 0.699,1.457 1.574,1.457 l 22.824,0 C 36.277,34.996 37,34.348 37,33.539 L 37,20.766 C 37,19.953 36.277,20 35.398,20 l -22.824,0 c -0.219,0 -0.422,-0.012 -0.609,0 m 0,0" style="fill:#ffffff;fill-opacity:1;"/>
    <path d="M 15.05,13.402 11.8,18 l 11.195,0 0,-7 -5.508,0 c -0.813,0 -2.438,2.402 -2.438,2.402 M 24.987,11 l 0,7 11.188,0 -3.25,-4.598 c 0,0 -1.625,-2.402 -2.441,-2.402 m -5.492,0" style="fill:#ffffff;fill-opacity:1;"/>
   </g>
  </g>
 </g>
</svg>
