<svg height="512" viewBox="0 0 512 512" width="512" xmlns="http://www.w3.org/2000/svg">
 <path d="m471.02377 252.12377c0 120.9-98.01 218.9-218.9 218.9-120.9 0-218.9-98.01-218.9-218.9 0-120.9 98.01-218.899996 218.9-218.899996 120.9 0 218.9 98.009996 218.9 218.899996" fill="#9f9f9f" fill-rule="evenodd"/>
 <path d="m120.38049 323.83644l41.79284 49.97594c110.35725 74.50111 81.80916 54.76793 137.13339 92.61635.95676 3.82704 75.67241-13.75161 101.12322-54.26369 30.31579-27.10031 52.68798-61.76594 64.67292-106.32419l8.8088-56.26707c-62.23576-56.67658-74.26072-66.68717-123.36064-112.50275-19.15579-14.31923-80.535-39.727747-118.06824-29.8319-20.56882 2.23426-40.42392 7.00861-59.44221 17.24274-17.28297 12.06348-33.99186 25.27511-45.68446 48.51933-10.26227 18.33326-19.24786 40.33397-20.82164 63.01148-2.15371 28.43582 1.75388 54.65201 13.84602 87.82376z" fill="#070600" fill-rule="evenodd" opacity=".25" stroke="#000000"/>
 <path d="m256 1c-140.83 0-255 114.17-255 255 0 140.83 114.17 255 255 255 140.83 0 255-114.17 255-255 0-140.83-114.17-255-255-255m8.827 44.931c120.9 0 218.9 98 218.9 218.9 0 120.9-98 218.9-218.9 218.9-120.9 0-218.93-98-218.93-218.9 0-120.9 98.03-218.9 218.93-218.9" fill-opacity=".067" fill-rule="evenodd"/>
 <g fill-opacity=".129" fill-rule="evenodd">
  <path d="m256 4.433c-138.94 0-251.57 112.63-251.57 251.57 0 138.94 112.63 251.57 251.57 251.57 138.94 0 251.57-112.63 251.57-251.57 0-138.94-112.63-251.57-251.57-251.57m5.885 38.556c120.9 0 218.9 98 218.9 218.9 0 120.9-98 218.9-218.9 218.9-120.9 0-218.93-98-218.93-218.9 0-120.9 98.03-218.9 218.93-218.9"/>
  <path d="m256 8.356c-136.77 0-247.64 110.87-247.64 247.64 0 136.77 110.87 247.64 247.64 247.64 136.77 0 247.64-110.87 247.64-247.64 0-136.77-110.87-247.64-247.64-247.64m2.942 31.691c120.9 0 218.9 98 218.9 218.9 0 120.9-98 218.9-218.9 218.9-120.9 0-218.93-98-218.93-218.9 0-120.9 98.03-218.9 218.93-218.9"/>
 </g>
 <path d="m253.04 7.859c-135.42 0-245.19 109.78-245.19 245.19 0 135.42 109.78 245.19 245.19 245.19 135.42 0 245.19-109.78 245.19-245.19 0-135.42-109.78-245.19-245.19-245.19zm0 26.297c120.9 0 218.9 98 218.9 218.9 0 120.9-98 218.9-218.9 218.9-120.9 0-218.93-98-218.93-218.9 0-120.9 98.03-218.9 218.93-218.9z" fill="#ffffff" fill-rule="evenodd" stroke="#000000" stroke-opacity=".31" stroke-width="4.904"/>
 <g transform="matrix(1.190853 0 0 1.190853 -68.307869 -24.531582)">
  <circle cx="274.943" cy="233.046" fill="#ffffff" r="48.615" stroke="#ffffff" stroke-width="2.452"/>
  <path d="m270.94266 108.64495a124.40063 124.40063 0 0 1 124.40062 124.40063 124.40063 124.40063 0 0 1 -124.40062 124.40063" fill="none" stroke="#ffffff" stroke-linecap="square" stroke-linejoin="round" stroke-width="3.463"/>
  <path d="m64 59.820312a4.1806682 4.1806682 0 0 0 -2.089844 7.798829l44.375004 25.625a4.1806682 4.1806682 0 0 0 5.70703-1.525391c4.85754-8.389313 7.44964-18.025334 7.4375-27.724609a4.1806682 4.1806682 0 0 0 -4.17969-4.173829z" fill="none" stroke="#ffffff" stroke-linejoin="round" stroke-width="2.052" transform="matrix(.76555588 1.3268833 -1.3259816 .76607645 316.00844 123.78963)"/>
  <path d="m64 59.820312a4.1806682 4.1806682 0 0 0 -2.089844 7.798829l44.375004 25.625a4.1806682 4.1806682 0 0 0 5.70703-1.525391c4.85754-8.389313 7.44964-18.025334 7.4375-27.724609a4.1806682 4.1806682 0 0 0 -4.17969-4.173829z" fill="none" stroke="#ffffff" stroke-linejoin="round" stroke-width="2.052" transform="matrix(1.3259816 .76607645 -.76555588 1.3268833 255.21021 117.47095)"/>
  <path d="m64 59.820312a4.1806682 4.1806682 0 0 0 -2.089844 7.798829l44.375004 25.625a4.1806682 4.1806682 0 0 0 5.70703-1.525391c4.85754-8.389313 7.44964-18.025334 7.4375-27.724609a4.1806682 4.1806682 0 0 0 -4.17969-4.173829z" fill="none" stroke="#ffffff" stroke-linejoin="round" stroke-width="2.052" transform="matrix(1.5311117 0 0 1.5321529 199.4002 142.41861)"/>
  <path d="m64 59.820312a4.1806682 4.1806682 0 0 0 -2.089844 7.798829l44.375004 25.625a4.1806682 4.1806682 0 0 0 5.70703-1.525391c4.85754-8.389313 7.44964-18.025334 7.4375-27.724609a4.1806682 4.1806682 0 0 0 -4.17969-4.173829z" fill="none" stroke="#ffffff" stroke-linejoin="round" stroke-width="2.052" transform="matrix(1.3259816 -.76607645 .76555588 1.3268833 163.53267 191.94789)"/>
  <path d="m64 59.820312a4.1806682 4.1806682 0 0 0 -2.089844 7.798829l44.375004 25.625a4.1806682 4.1806682 0 0 0 5.70703-1.525391c4.85754-8.389313 7.44964-18.025334 7.4375-27.724609a4.1806682 4.1806682 0 0 0 -4.17969-4.173829z" fill="none" stroke="#ffffff" stroke-linejoin="round" stroke-width="2.052" transform="matrix(.76555588 -1.3268833 1.3259816 .76607645 157.21829 252.78747)"/>
  <path d="m64 59.820312a4.1806682 4.1806682 0 0 0 -2.089844 7.798829l44.375004 25.625a4.1806682 4.1806682 0 0 0 5.70703-1.525391c4.85754-8.389313 7.44964-18.025334 7.4375-27.724609a4.1806682 4.1806682 0 0 0 -4.17969-4.173829z" fill="none" stroke="#ffffff" stroke-linejoin="round" stroke-width="2.052" transform="matrix(0 -1.5321529 1.5311117 0 182.14899 308.63543)"/>
  <path d="m-266.85458-359.71108a124.40063 124.40063 0 0 1 124.40062 124.40062 124.40063 124.40063 0 0 1 -124.40062 124.40063" fill="none" stroke="#ffffff" stroke-linecap="square" stroke-linejoin="round" stroke-width="3.463" transform="matrix(-.99996722 .00809648 -.00809648 -.99996722 0 0)"/>
  <path d="m266.34839 124.39585a109.27354 109.27354 0 0 0 -109.27128 109.2713 109.27354 109.27354 0 0 0 109.27128 109.27504 109.27354 109.27354 0 0 0 .78611-.0265v-218.48209a109.27354 109.27354 0 0 0 -.78611-.0377z" fill="#ffffff"/>
 </g>
</svg>
