<svg viewBox="0 0 512 512" xmlns="http://www.w3.org/2000/svg">
 <g fill-rule="evenodd">
  <path d="m471.95 253.05c0 120.9-98.01 218.91-218.91 218.91s-218.91-98.01-218.91-218.91 98.01-218.91 218.91-218.91 218.91 98.01 218.91 218.91" fill="#9f9f9f"/>
  <path d="m256 1c-140.83 0-255 114.17-255 255s114.17 255 255 255 255-114.17 255-255-114.17-255-255-255m8.827 44.931c120.9 0 218.9 98 218.9 218.9s-98 218.9-218.9 218.9-218.93-98-218.93-218.9 98.03-218.9 218.93-218.9" fill-opacity=".067"/>
  <g fill-opacity=".129">
   <path d="m256 4.43c-138.94 0-251.57 112.63-251.57 251.57s112.63 251.57 251.57 251.57 251.57-112.63 251.57-251.57-112.63-251.57-251.57-251.57m5.885 38.556c120.9 0 218.9 98 218.9 218.9s-98 218.9-218.9 218.9-218.93-98-218.93-218.9 98.03-218.9 218.93-218.9"/>
   <path d="m256 8.36c-136.77 0-247.64 110.87-247.64 247.64s110.87 247.64 247.64 247.64 247.64-110.87 247.64-247.64-110.87-247.64-247.64-247.64m2.942 31.691c120.9 0 218.9 98 218.9 218.9s-98 218.9-218.9 218.9-218.93-98-218.93-218.9 98.03-218.9 218.93-218.9"/>
  </g>
  <path d="m253.04 7.86c-135.42 0-245.19 109.78-245.19 245.19 0 135.42 109.78 245.19 245.19 245.19 135.42 0 245.19-109.78 245.19-245.19 0-135.42-109.78-245.19-245.19-245.19m0 26.297c120.9 0 218.9 98 218.9 218.9s-98 218.9-218.9 218.9-218.93-98-218.93-218.9 98.03-218.9 218.93-218.9z" fill="#ffffff" stroke="#000000" stroke-opacity=".31" stroke-width="4.904"/>
 </g>
 <path d="m258.12 164.63c-7.06 0-13.947.784-20.656 2.373-3.178 1.236-4.766 4.429-4.766 9.549v13.645l-16.609-16.609c-1.162-1.162-2.601-1.943-4.318-2.344-.839-.221-1.677-.328-2.51-.322-2.499.017-4.962 1.051-7.412 3.104-3.266 2.737-4.9 6.667-4.9 11.787v66.09l-15.85-15.85c-.058-.058-.118-.116-.178-.174-2.207-2.119-4.817-3.188-7.818-3.188-3.178 0-5.914 1.069-8.209 3.188-.974.899-1.728 1.898-2.289 2.986l-16.773-16.773c-2.295-2.295-5.03-3.443-8.209-3.443-3 0-5.611 1.148-7.818 3.443s-3.307 5.05-3.307 8.225v47.791l-15.891-15.891-.174-.176c-2.089-2.089-4.672-3.131-7.764-3.131-3.178 0-5.929 1.1-8.225 3.307-2.295 2.207-3.443 4.912-3.443 8.09v44.486c0 3.276.982 5.894 2.938 7.85l149.08 149.08c3.322.15 6.661.238 10.02.238 99.01 0 182.65-65.74 209.7-155.95l-56.969-56.969c-8.57-8.57-18.682-13.51-30.334-14.846l-52.46-52.46c-1.016-1.016-2.06-2.02-3.135-3-17.48-16.07-38.06-24.1-61.717-24.1" opacity=".25"/>
 <path d="m258.12 164.63c-7.06 0-13.947.785-20.657 2.374-3.178 1.236-4.766 4.428-4.766 9.548v166.31c-.353 2.119.622 3.628 2.917 4.511h133.22c14.478 0 26.738-4.983 36.802-14.958 10.06-9.976 15.189-22.21 15.365-36.684 0-14.301-5.077-26.531-15.23-36.684-10.152-10.152-22.46-15.23-36.938-15.23-6.533 0-13.167 1.415-19.877 4.24-1.942-23.483-11.64-43.26-29.12-59.32-17.48-16.07-38.06-24.1-61.716-24.1m-48.861 6.292c-2.499.017-4.962 1.051-7.411 3.104-3.266 2.737-4.901 6.667-4.901 11.787v153.35c0 5.473 3.71 8.208 11.125 8.208 7.769 0 11.651-2.735 11.651-8.208v-153.35c0-8.475-2.657-13.332-7.954-14.568-.839-.221-1.677-.328-2.51-.322m-71.64 47.724c-3 0-5.611 1.148-7.818 3.443s-3.307 5.05-3.307 8.225v103.54c0 2.825 1.053 5.04 3.171 6.631 2.119 1.589 4.776 2.374 7.954 2.374 3.355 0 6.137-.785 8.344-2.374s3.307-3.806 3.307-6.631v-103.54c0-3.178-1.148-5.93-3.443-8.225s-5.03-3.443-8.208-3.443m35.479 14.04c-3.178 0-5.913 1.07-8.208 3.188-2.295 2.119-3.443 4.759-3.443 7.937v94.82c0 5.827 3.883 8.734 11.651 8.734 7.416 0 11.125-2.908 11.125-8.734v-94.82c0-3.178-1.1-5.818-3.307-7.937s-4.817-3.188-7.818-3.188m-70.43 26.22c-3.178 0-5.93 1.1-8.225 3.307s-3.443 4.912-3.443 8.09v44.485c0 4.061 1.51 7.111 4.511 9.141 3 2.03 6.271 2.785 9.803 2.256 3.178-.706 5.378-1.823 6.614-3.324s1.849-4.188 1.849-8.07v-44.485c0-3.178-1.053-5.883-3.171-8.09-2.119-2.207-4.759-3.307-7.937-3.307" fill="#ffffff"/>
</svg>
