<svg height="512" viewBox="0 0 512 512" width="512" xmlns="http://www.w3.org/2000/svg">
 <g transform="translate(0 -540.36)">
  <path d="m471.95 793.41c0 120.9-98.01 218.9-218.9 218.9-120.9 0-218.9-98.01-218.9-218.9 0-120.9 98.01-218.9 218.9-218.9 120.9 0 218.9 98.01 218.9 218.9" fill="#8f8f8f" fill-rule="evenodd"/>
  <path d="m257.28 151.13c-55.11.038-110.58 10.528-167.75 31.09-7.05 2.23-12.313 8.143-13.719 15.406-1.321 6.824.95 13.813 5.969 18.531.373.404.778.781 1.188 1.156.329.347.675.706 1.031 1.031.253.266.512.528.781.781.318.344.656.676 1 1 .309.334.604.654.938.969.328.356.676.697 1.031 1.031.319.345.655.676 1 1 .383.415.798.803 1.219 1.188.253.266.512.528.781.781.318.344.656.676 1 1 .363.392.729.76 1.125 1.125.281.299.543.592.844.875.319.345.655.676 1 1 .373.404.778.781 1.188 1.156.329.347.675.706 1.031 1.031.253.266.512.528.781.781.309.334.636.654.969.969.328.356.645.697 1 1.031.319.345.655.676 1 1 .373.404.778.781 1.188 1.156.329.347.675.706 1.031 1.031.253.266.512.528.781.781.309.334.636.654.969.969.318.345.625.675.969 1 .328.356.676.697 1.031 1.031.373.404.778.781 1.188 1.156.329.347.675.706 1.031 1.031.253.266.512.528.781.781.318.344.656.676 1 1 .309.334.604.654.938.969.328.356.676.697 1.031 1.031.319.345.655.676 1 1 .373.404.778.781 1.188 1.156.329.347.675.706 1.031 1.031.253.266.512.528.781.781.363.392.729.76 1.125 1.125.281.299.543.592.844.875.319.345.655.676 1 1 .373.404.778.781 1.188 1.156.329.347.675.706 1.031 1.031.253.266.512.528.781.781.309.334.636.654.969.969.318.345.625.675.969 1 .288.313.597.61.906.906-4.981 1.783-9.96 3.659-14.969 5.625-4.552 1.701-7.845 5.73-8.594 10.531-.718 4.607 1.018 9.227 4.531 12.25.312.329.621.638.969.938.28.296.565.603.875.875.185.199.396.374.594.563.012.009.02.022.031.031.117.111.253.206.375.313.172.185.348.355.531.531.01.046.024.095.063.125.082.065.167.125.25.188.043.038.082.087.125.125.166.178.354.33.531.5.008.07.036.142.094.188.129.102.274.185.406.281.152.161.308.315.469.469.006.095.049.19.125.25.159.125.305.227.469.344.118.123.252.225.375.344.009.111.035.21.125.281.272.214.558.435.844.625.005.005-.005.026 0 .031.006.135.047.258.156.344.261.205.54.411.813.594.004.159.06.306.188.406.248.195.522.387.781.563.01.171.081.329.219.438.257.202.512.382.781.563.024.169.081.329.219.438.238.188.47.363.719.531.029.181.133.352.281.469.226.178.453.339.688.5.036.188.157.378.313.5.224.177.454.34.688.5.044.19.123.344.281.469.223.176.455.341.688.5.05.199.146.369.313.5.211.166.437.318.656.469.055.208.169.394.344.531.203.16.414.323.625.469.064.202.203.396.375.531.208.164.409.32.625.469.071.197.205.397.375.531.207.163.41.29.625.438.076.208.195.421.375.563.194.153.393.267.594.406.08.218.186.414.375.563.188.148.399.302.594.438.086.217.216.413.406.563.192.151.394.299.594.438.091.212.218.415.406.563.172.136.353.25.531.375.094.239.26.46.469.625.165.13.33.255.5.375.099.24.288.458.5.625.188.148.368.271.563.406.105.22.24.438.438.594.18.142.345.276.531.406.109.22.238.405.438.563.169.133.357.253.531.375.113.242.252.454.469.625.156.123.339.23.5.344.118.251.274.479.5.656.165.13.329.255.5.375.121.239.282.453.5.625.153.12.311.232.469.344.126.248.305.478.531.656.163.129.331.256.5.375.128.23.286.457.5.625.143.113.29.207.438.313.134.258.295.47.531.656.162.127.333.258.5.375.135.238.278.45.5.625.149.118.315.235.469.344.139.246.301.475.531.656.148.117.316.235.469.344.142.242.304.477.531.656.145.114.289.207.438.313.147.255.324.5.563.688.137.108.265.212.406.313.15.254.354.499.594.688.143.112.29.208.438.313.151.245.329.504.563.688.122.096.25.16.375.25.159.272.338.517.594.719.129.102.274.186.406.281.161.268.34.519.594.719.117.092.255.163.375.25.166.281.36.542.625.75.09.071.19.12.281.188-5.352 2.163-10.589 4.434-15.688 6.844-4.448 1.99-7.474 6.24-7.906 11.09-.378 4.247 1.288 8.381 4.406 11.188.311.346.651.686 1 1 .349.387.729.778 1.125 1.125.303.328.631.639.969.938.301.331.601.668.938.969.315.35.646.684 1 1 .328.364.692.703 1.063 1.031.301.332.6.667.938.969.34.379.707.723 1.094 1.063.338.371.679.73 1.063 1.063.321.348.638.687 1 1 .3.325.602.643.938.938.284.313.589.621.906.906.309.348.651.686 1 1 .327.369.691.7 1.063 1.031.314.351.645.684 1 1 .297.333.603.668.938.969.33.374.685.728 1.063 1.063.314.352.643.684 1 1 .313.35.645.685 1 1 .292.327.609.642.938.938.33.377.684.727 1.063 1.063.316.356.64.681 1 1 .314.354.642.683 1 1 .336.379.708.726 1.094 1.063.297.33.601.64.938.938.32.362.633.708 1 1.031.287.324.613.614.938.906.331.38.712.725 1.094 1.063.287.325.581.645.906.938.31.359.644.68 1 1 .309.357.645.681 1 1 .37.428.783.815 1.219 1.188.254.28.498.557.781.813.307.357.647.682 1 1 .309.361.643.679 1 1 .368.429.783.815 1.219 1.188.307.341.617.666.969.969.297.332.599.673.938.969.335.382.703.728 1.094 1.063.316.354.635.688 1 1 .319.356.632.717 1 1.031.285.318.612.622.938.906.309.351.643.721 1 1.031.31.354.641.688 1 1 .304.347.648.662 1 .969.306.351.645.69 1 1 .304.349.647.692 1 1 .31.358.639.685 1 1 .312.361.635.714 1 1.031.306.352.644.69 1 1 .329.378.706.734 1.094 1.063.282.318.582.624.906.906.308.359.639.685 1 1 .306.356.642.688 1 1 .331.386.701.76 1.094 1.094.291.332.599.645.938.938.282.329.61.616.938.906.323.385.678.76 1.063 1.094.305.357.641.689 1 1 .303.354.643.691 1 1 .287.336.633.642.969.938.32.382.68.733 1.063 1.063.306.36.637.688 1 1 .305.358.639.689 1 1 .284.334.604.645.938.938.32.385.678.731 1.063 1.063.305.362.636.687 1 1 .313.372.656.711 1.031 1.031.299.352.644.664 1 .969.306.362.634.719 1 1.031.29.344.625.639.969.938.299.361.641.688 1 1 .316.381.68.737 1.063 1.063.292.347.62.669.969.969.303.365.635.687 1 1 .292.352.619.665.969.969.32.391.701.732 1.094 1.063.303.363.633.691 1 1 .287.343.593.674.938.969.299.366.636.688 1 1 .321.393.697.732 1.094 1.063.304.364.63.692 1 1 .289.346.589.674.938.969.301.368.631.688 1 1 .312.382.677.711 1.063 1.031.29.351.616.671.969.969.296.363.637.693 1 1 .303.372.657.719 1.031 1.031.292.358.61.667.969.969.302.375.656.686 1.031 1 .307.38.648.746 1.031 1.063.294.357.638.701 1 1 .297.364.631.696 1 1 .306.376.648.72 1.031 1.031.289.35.612.676.969.969.311.383.67.748 1.063 1.063.289.348.611.679.969.969.297.365.628.698 1 1 .294.363.631.7 1 1 .311.384.667.751 1.063 1.063.269.325.575.634.906.906.29.367.633.698 1 1 .303.384.674.719 1.063 1.031.302.377.646.725 1.031 1.031.284.35.611.681.969.969.29.364.63.703 1 1 .308.39.662.75 1.063 1.063.284.352.608.651.969.938.295.373.619.731 1 1.031.281.354.609.681.969.969.3.386.669.723 1.063 1.031.299.379.61.73 1 1.031.292.367.621.707 1 1 .173.218.361.401.563.594 3.7.186 7.41.313 11.156.313 120.9 0 218.91-98.01 218.91-218.91 0-8.511-.492-16.929-1.438-25.19-.105-.103-.205-.212-.313-.313-.38-.408-.772-.81-1.188-1.188-.285-.298-.57-.594-.875-.875-.323-.344-.651-.678-1-1-.334-.355-.67-.7-1.031-1.031-.322-.341-.653-.681-1-1-.303-.32-.612-.636-.938-.938-.319-.34-.656-.681-1-1-.323-.344-.651-.678-1-1-.323-.344-.651-.678-1-1-.323-.344-.651-.678-1-1-.334-.355-.67-.7-1.031-1.031-.303-.32-.612-.636-.938-.938-.299-.319-.617-.638-.938-.938-.38-.408-.772-.81-1.188-1.188-.285-.298-.57-.594-.875-.875-.323-.344-.651-.678-1-1-.334-.355-.67-.7-1.031-1.031-.334-.353-.671-.702-1.031-1.031-.274-.288-.552-.571-.844-.844-.38-.408-.772-.81-1.188-1.188-.285-.298-.57-.594-.875-.875-.323-.344-.651-.678-1-1-.334-.355-.67-.7-1.031-1.031-.322-.341-.653-.681-1-1-.283-.299-.573-.593-.875-.875-.38-.408-.772-.81-1.188-1.188-.285-.298-.57-.594-.875-.875-.323-.344-.651-.678-1-1-.343-.365-.691-.723-1.063-1.063-.313-.329-.632-.66-.969-.969-.303-.32-.612-.636-.938-.938-.319-.34-.656-.681-1-1-.323-.344-.651-.678-1-1-.323-.344-.651-.678-1-1-.323-.344-.651-.678-1-1-.334-.355-.67-.7-1.031-1.031-.303-.32-.612-.636-.938-.938-.299-.319-.617-.638-.938-.938-.38-.408-.772-.81-1.188-1.188-.285-.298-.57-.594-.875-.875-2.028-2.155-4.549-3.909-7.5-5.03-55.675-21.18-110.43-31.569-165.53-31.531" fill-opacity=".235" transform="translate(0 540.36)"/>
  <g fill-rule="evenodd">
   <path d="m256 541.36c-140.83 0-255 114.17-255 255s114.17 255 255 255 255-114.17 255-255-114.17-255-255-255m8.827 44.931c120.9 0 218.9 98 218.9 218.9s-98 218.9-218.9 218.9-218.93-98-218.93-218.9 98.03-218.9 218.93-218.9" fill-opacity=".067"/>
   <g fill-opacity=".129">
    <path d="m256 544.79c-138.94 0-251.57 112.63-251.57 251.57s112.63 251.54 251.57 251.54 251.57-112.6 251.57-251.54-112.63-251.57-251.57-251.57m5.885 38.556c120.9 0 218.9 98 218.9 218.9s-98 218.9-218.9 218.9-218.93-98-218.93-218.9 98.03-218.9 218.93-218.9"/>
    <path d="m256 548.72c-136.77 0-247.64 110.87-247.64 247.64s110.87 247.64 247.64 247.64 247.64-110.87 247.64-247.64-110.87-247.64-247.64-247.64m2.942 31.691c120.9 0 218.9 98 218.9 218.9s-98 218.9-218.9 218.9-218.93-98-218.93-218.9 98.03-218.9 218.93-218.9"/>
   </g>
   <path d="m253.04 548.22c-135.42 0-245.19 109.78-245.19 245.19 0 135.42 109.78 245.19 245.19 245.19 135.42 0 245.19-109.78 245.19-245.19 0-135.42-109.78-245.19-245.19-245.19zm0 26.297c120.9 0 218.9 98 218.9 218.9s-98 218.9-218.9 218.9-218.93-98-218.93-218.9 98.03-218.9 218.93-218.9z" fill="#ffffff" stroke="#000000" stroke-opacity=".31" stroke-width="4.904"/>
  </g>
  <g fill="none" stroke="#ffffff" stroke-linecap="round" stroke-linejoin="round" transform="translate(-864.07 26.337)">
   <path d="m960.43 715.23c110.72-39.83 211.92-40.502 319.27.34" stroke-width="40.35"/>
   <g stroke-width="26.899">
    <path d="m979.45 791.98c95.35-37.428 182.33-41.15 282.95.655"/>
    <path d="m1001.1 861.63c67.01-31.664 158.32-42.11 238.76-.306"/>
   </g>
  </g>
 </g>
</svg>
