<svg height="512" viewBox="0 0 512 512" width="512" xmlns="http://www.w3.org/2000/svg">
 <path d="m173.23362 330.20595c24.38614 20.75657 55.53093 35.29002 83.54779 35.29002 31.65345 0 47.21707-12.45791 47.21707-32.69296 0-21.2816-19.1967-28.02155-48.77928-40.47595l-44.10668-18.68571c-34.77202-14.01077-67.98416-43.07067-67.98416-92.37263 0-56.04425 49.82114-100.666608 120.40469-100.666608 38.91492 0 79.92291 15.568303 108.98046 44.632878l-38.9266 48.25776c-22.31059-17.12466-43.07535-26.98786-70.05502-26.98786-26.46518 0-43.07535 11.41605-43.07535 30.61275 0 20.75657 22.31059 28.02154 51.38218 39.9556l43.59219 17.64501c40.99629 16.60549 66.94346 44.11253 66.94346 91.84995 0 56.04776-46.70724 104.81769-127.66616 104.81769-44.10551 0-90.80925-16.60198-125.05858-48.77928l43.59218-52.40768" fill="#ffffff"/>
</svg>
