<svg viewBox="0 0 512 512" xmlns="http://www.w3.org/2000/svg">
 <path d="m471.95 253.05c0 120.9-98.01 218.91-218.91 218.91s-218.91-98.01-218.91-218.91 98.01-218.91 218.91-218.91 218.91 98.01 218.91 218.91" fill="#9f9f9f" fill-rule="evenodd"/>
 <path d="m34.16 255.5c1.315 119.77 98.8 216.47 218.88 216.47 1.159 0 2.314-.045 3.469-.063v-216.41h-222.34" fill="#9f9f9f"/>
 <g fill-rule="evenodd">
  <path d="m256 1c-140.83 0-255 114.17-255 255s114.17 255 255 255 255-114.17 255-255-114.17-255-255-255m8.827 44.931c120.9 0 218.9 98 218.9 218.9s-98 218.9-218.9 218.9-218.93-98-218.93-218.9 98.03-218.9 218.93-218.9" fill-opacity=".067"/>
  <g fill-opacity=".129">
   <path d="m256 4.43c-138.94 0-251.57 112.63-251.57 251.57s112.63 251.57 251.57 251.57 251.57-112.63 251.57-251.57-112.63-251.57-251.57-251.57m5.885 38.556c120.9 0 218.9 98 218.9 218.9s-98 218.9-218.9 218.9-218.93-98-218.93-218.9 98.03-218.9 218.93-218.9"/>
   <path d="m256 8.36c-136.77 0-247.64 110.87-247.64 247.64s110.87 247.64 247.64 247.64 247.64-110.87 247.64-247.64-110.87-247.64-247.64-247.64m2.942 31.691c120.9 0 218.9 98 218.9 218.9s-98 218.9-218.9 218.9-218.93-98-218.93-218.9 98.03-218.9 218.93-218.9"/>
  </g>
  <path d="m253.04 7.86c-135.42 0-245.19 109.78-245.19 245.19 0 135.42 109.78 245.19 245.19 245.19 135.42 0 245.19-109.78 245.19-245.19 0-135.42-109.78-245.19-245.19-245.19m0 26.297c120.9 0 218.9 98 218.9 218.9s-98 218.9-218.9 218.9-218.93-98-218.93-218.9 98.03-218.9 218.93-218.9z" fill="#ffffff" stroke="#000000" stroke-opacity=".31" stroke-width="4.904"/>
 </g>
 <path d="m135.86 123.1c-7.311 0-13.189 5.879-13.189 13.189v102.08c0 3.581 1.411 6.818 3.709 9.189l13.176 13.176h-3.695c-7.311 0-13.189 5.881-13.189 13.191v101.79c0 3.655 1.47 6.952 3.854 9.336l82.48 82.48c14.226 2.906 28.954 4.432 44.04 4.432 120.9 0 218.91-98.01 218.91-218.91 0-15.1-1.528-29.835-4.438-44.07l-81.88-81.88c-2.394-2.47-5.751-4-9.48-4h-102.37c-7.311 0-13.189 5.879-13.189 13.189v3.695l-13.182-13.182c-2.371-2.295-5.606-3.703-9.184-3.703h-102.37" opacity=".25"/>
 <path d="m135.86 123.1c-7.311 0-13.19 5.879-13.19 13.19v102.08c0 7.311 5.879 13.19 13.19 13.19h102.36c7.311 0 13.19-5.879 13.19-13.19v-102.08c0-7.311-5.879-13.19-13.19-13.19zm137.92 0c-7.311 0-13.19 5.879-13.19 13.19v102.08c0 7.311 5.879 13.19 13.19 13.19h102.36c7.311 0 13.19-5.879 13.19-13.19v-102.08c0-7.311-5.879-13.19-13.19-13.19zm-86.88 30.681c18.552 0 33.548 14.996 33.548 33.548s-14.996 33.548-33.548 33.548-33.548-14.996-33.548-33.548 14.996-33.548 33.548-33.548m137.92 0c18.552 0 33.548 14.996 33.548 33.548s-14.996 33.548-33.548 33.548-33.548-14.996-33.548-33.548 14.996-33.548 33.548-33.548m-188.96 106.95c-7.311 0-13.19 5.879-13.19 13.19v101.79c0 7.311 5.879 13.19 13.19 13.19h102.36c7.311 0 13.19-5.879 13.19-13.19v-101.79c0-7.311-5.879-13.19-13.19-13.19zm137.92 0c-7.311 0-13.19 5.879-13.19 13.19v101.79c0 7.311 5.879 13.19 13.19 13.19h102.36c7.311 0 13.19-5.879 13.19-13.19v-101.79c0-7.311-5.879-13.19-13.19-13.19zm51.04 30.394c18.552 0 33.548 14.996 33.548 33.548s-14.996 33.548-33.548 33.548-33.548-14.996-33.548-33.548 14.996-33.548 33.548-33.548m-164.59.287h53.33c3.814 0 6.882 3.067 6.882 6.882v53.05c0 3.814-3.067 6.882-6.882 6.882h-53.33c-3.814 0-6.882-3.067-6.882-6.882v-53.05c0-3.814 3.067-6.882 6.882-6.882" fill="#ffffff"/>
</svg>
