<svg height="512" viewBox="0 0 512 512" width="512" xmlns="http://www.w3.org/2000/svg">
 <path d="m471.95 253.05c0 120.9-98.01 218.9-218.9 218.9-120.9 0-218.9-98.01-218.9-218.9 0-120.9 98.01-218.9 218.9-218.9 120.9 0 218.9 98.01 218.9 218.9" fill="#b0b0b0" fill-rule="evenodd"/>
 <path d="m408.42411 163.61764c-6.19926.00018-27.63869 5.93731-46.36513-13.68603-41.97547-43.98591-163.56192-76.998475-216.95073-.49162-21.07619 30.20245-38.11859 64.3054-39.31317 99.16187 9.11268 17.97763-35.072429 33.59629 6.10721 51.57393l-26.495682 5.59506 123.636022 164.75935c1.81201 19.93214 280.63697-3.81648 263.37294-213.58677" opacity=".25"/>
 <path d="m256 1c-140.83 0-255 114.17-255 255 0 140.83 114.17 255 255 255 140.83 0 255-114.17 255-255 0-140.83-114.17-255-255-255m8.827 44.931c120.9 0 218.9 98 218.9 218.9 0 120.9-98 218.9-218.9 218.9-120.9 0-218.93-98-218.93-218.9 0-120.9 98.03-218.9 218.93-218.9" fill-opacity=".067" fill-rule="evenodd"/>
 <g fill-opacity=".129" fill-rule="evenodd">
  <path d="m256 4.433c-138.94 0-251.57 112.63-251.57 251.57 0 138.94 112.63 251.57 251.57 251.57 138.94 0 251.57-112.63 251.57-251.57 0-138.94-112.63-251.57-251.57-251.57m5.885 38.556c120.9 0 218.9 98 218.9 218.9 0 120.9-98 218.9-218.9 218.9-120.9 0-218.93-98-218.93-218.9 0-120.9 98.03-218.9 218.93-218.9"/>
  <path d="m256 8.356c-136.77 0-247.64 110.87-247.64 247.64 0 136.77 110.87 247.64 247.64 247.64 136.77 0 247.64-110.87 247.64-247.64 0-136.77-110.87-247.64-247.64-247.64m2.942 31.691c120.9 0 218.9 98 218.9 218.9 0 120.9-98 218.9-218.9 218.9-120.9 0-218.93-98-218.93-218.9 0-120.9 98.03-218.9 218.93-218.9"/>
 </g>
 <path d="m253.04 7.859c-135.42 0-245.19 109.78-245.19 245.19 0 135.42 109.78 245.19 245.19 245.19 135.42 0 245.19-109.78 245.19-245.19 0-135.42-109.78-245.19-245.19-245.19zm0 26.297c120.9 0 218.9 98 218.9 218.9 0 120.9-98 218.9-218.9 218.9-120.9 0-218.93-98-218.93-218.9 0-120.9 98.03-218.9 218.93-218.9z" fill="#ffffff" fill-rule="evenodd" stroke="#000000" stroke-opacity=".31" stroke-width="4.904"/>
 <path d="m254.1917 91.755314c-88.00566 0-159.577286 71.571736-159.577286 159.577286 0 3.36642.126557 6.65822.332352 9.97358-9.099863 5.23271-15.292671 15.01326-15.292671 26.26378 0 16.51537 13.160618 29.88773 29.588275 30.25322 25.24237 54.92407 80.63792 93.0867 144.94944 93.0867 28.46957 0 55.2954-7.49859 78.45876-20.61187 4.76706 3.12077 10.49853 4.98673 16.62277 4.98673 16.74505 0 30.58569-13.50827 30.58569-30.25332 0-4.18621-1.12519-8.34083-2.65966-11.9683-.033-.0881.044-.23992 0-.33236 22.78114-27.5941 36.56972-62.89568 36.56972-101.39805 0-14.70499-2.24409-29.02392-5.98414-42.55398 6.30648-5.55604 10.30616-13.87376 10.30616-22.93929 0-16.74505-13.50817-30.2531-30.25332-30.2531-1.98361 0-4.10632.29934-5.98416.66472-29.11944-38.9823-75.36119-64.495964-127.66182-64.495964zm0 21.277046c45.04195 0 83.49777 22.36239 108.37971 55.85205-3.26935 4.83905-5.3192 10.67561-5.3192 16.95503 0 3.0849.80558 6.17157 1.66236 8.97628l-58.84441 50.86521c-4.57007-2.76114-9.89632-4.32191-15.62525-4.32191-14.0187 0-25.45356 9.3509-28.92333 22.27435l-118.68566 9.6411c-4.12381-7.78341-11.42827-13.71715-20.27964-15.62525-.16177-2.1029-.66471-4.17949-.66471-6.31662 0-76.46625 61.83399-138.30024 138.30034-138.30024zm118.02093 98.73839c4.48248 2.70819 9.68778 4.26226 15.29268 4.3219 3.09074 11.2524 4.98673 23.00202 4.98673 35.23995 0 32.73591-11.61216 62.46086-30.58557 86.10526-3.81455-1.73047-8.17168-2.65965-12.63313-2.65965-2.56985 0-4.93126.066-7.31403.66471l-32.24793-46.87566c.055-.077-.055-.25202 0-.33236 3.17009-4.79084 4.98674-10.44791 4.98674-16.62267 0-3.30402-.35327-6.66395-1.32967-9.64111l58.84418-50.20059zm-114.69634 73.13956c4.96627 9.96928 15.03438 16.95513 26.92862 16.95513 2.69311 0 5.49309-.33896 7.97886-.99708l31.91546 47.20824c-3.26924 4.83905-5.3192 10.67572-5.3192 16.95515 0 1.97821.30154 3.77911.66471 5.65168-19.3794 11.44015-41.27813 18.94963-65.49316 18.94963-55.28285 0-102.28805-32.63245-124.33722-79.45595 4.659-4.05987 8.14284-9.42046 9.64111-15.62525l118.02072-9.64123z" fill="#f9f9f9" fill-rule="evenodd"/>
</svg>
