<svg height="512" viewBox="0 0 512 512" width="512" xmlns="http://www.w3.org/2000/svg">
 <path d="m471.95 253.05c0 120.9-98.01 218.9-218.9 218.9-120.9 0-218.9-98.01-218.9-218.9 0-120.9 98.01-218.9 218.9-218.9 120.9 0 218.9 98.01 218.9 218.9" fill="#9f9f9f" fill-rule="evenodd"/>
 <path d="m256 1c-140.83 0-255 114.17-255 255 0 140.83 114.17 255 255 255 140.83 0 255-114.17 255-255 0-140.83-114.17-255-255-255m8.827 44.931c120.9 0 218.9 98 218.9 218.9 0 120.9-98 218.9-218.9 218.9-120.9 0-218.93-98-218.93-218.9 0-120.9 98.03-218.9 218.93-218.9" fill-opacity=".067" fill-rule="evenodd"/>
 <g fill-opacity=".129" fill-rule="evenodd">
  <path d="m256 4.433c-138.94 0-251.57 112.63-251.57 251.57 0 138.94 112.63 251.57 251.57 251.57 138.94 0 251.57-112.63 251.57-251.57 0-138.94-112.63-251.57-251.57-251.57m5.885 38.556c120.9 0 218.9 98 218.9 218.9 0 120.9-98 218.9-218.9 218.9-120.9 0-218.93-98-218.93-218.9 0-120.9 98.03-218.9 218.93-218.9"/>
  <path d="m256 8.356c-136.77 0-247.64 110.87-247.64 247.64 0 136.77 110.87 247.64 247.64 247.64 136.77 0 247.64-110.87 247.64-247.64 0-136.77-110.87-247.64-247.64-247.64m2.942 31.691c120.9 0 218.9 98 218.9 218.9 0 120.9-98 218.9-218.9 218.9-120.9 0-218.93-98-218.93-218.9 0-120.9 98.03-218.9 218.93-218.9"/>
 </g>
 <path d="m350.67123 138.9975c-16.95556 22.35939 16.59529 70.05036-9.99898 47.24144l24.28827 23.38146 13.30748 64.20673-96.99026-93.77312-50.54986 28.98474c-22.12401 17.633 27.63258 22.67983 19.07378 2.19561l26.3093-4.97781-47.28244-48.30709-52.60924 51.6187-72.96938 72.96301 59.2599 51.5896-21.39107 16.02952 126.26472 129.16702c140.08297-29.50644 189.55275-126.73144 206.76991-226.7395-1.30667-13.79 10.62262 1.82637 7.01255-18.87386l-80.98817-88.15148-1.89976 41.99868" opacity=".25"/>
 <path d="m253.04 7.859c-135.42 0-245.19 109.78-245.19 245.19 0 135.42 109.78 245.19 245.19 245.19 135.42 0 245.19-109.78 245.19-245.19 0-135.42-109.78-245.19-245.19-245.19zm0 26.297c120.9 0 218.9 98 218.9 218.9 0 120.9-98 218.9-218.9 218.9-120.9 0-218.93-98-218.93-218.9 0-120.9 98.03-218.9 218.93-218.9z" fill="#ffffff" fill-rule="evenodd" stroke="#000000" stroke-opacity=".31" stroke-width="4.904"/>
 <g fill="#ffffff" transform="translate(-19.56064 -13.164368)">
  <path d="m219.86333 168.9177c-5.17964 0-9.34962 4.07451-9.34962 9.13556v21.62815c-7.86837 1.93752-15.29995 4.9822-22.08744 8.95002l-15.64653-15.28832c-3.66357-3.57969-9.55852-3.57969-13.21417 0l-15.36009 15.00845c-3.66357 3.57968-3.66357 9.33966 0 12.91162l15.64652 15.2883c-4.06078 6.63055-7.17521 13.89354-9.15972 21.58178h-22.13491c-5.17965 0-9.34962 4.0745-9.34962 9.13556v21.25548c0 5.06105 4.16997 9.13556 9.34962 9.13556h22.13491c1.98293 7.68823 5.09894 14.94968 9.15972 21.58178l-15.64652 15.2883c-3.66357 3.5797-3.66357 9.33967 0 12.91165l15.36009 15.00842c3.66357 3.5797 9.55851 3.5797 13.21417 0l15.64653-15.28831c6.78591 3.96783 14.21907 7.01095 22.08744 8.95v21.62816c0 5.06106 4.16998 9.13557 9.34962 9.13557h21.75353c5.17965 0 9.34963-4.07451 9.34963-9.13557v-21.62816c7.86835-1.93751 15.29994-4.98217 22.08744-8.95l15.64653 15.28831c3.66356 3.5797 9.55851 3.5797 13.21417 0l15.36009-15.00842c3.66357-3.5797 3.66357-9.33969 0-12.91165l-15.64652-15.2883c4.06078-6.63055 7.17521-13.89355 9.1597-21.58178h22.13493c5.17963 0 9.34962-4.07451 9.34962-9.13556v-21.25548c0-5.06106-4.16999-9.13556-9.34962-9.13556h-22.13493c-1.98291-7.68824-5.09892-14.94968-9.1597-21.58178l15.64652-15.2883c3.66357-3.57969 3.66357-9.33967 0-12.91162l-15.36009-15.00845c-3.66357-3.57969-9.55851-3.57969-13.21417 0l-15.64653 15.28832c-6.7859-3.96782-14.21909-7.01095-22.08744-8.95002v-21.62815c0-5.06105-4.16998-9.13556-9.34963-9.13556zm10.87677 71.73304c21.06038 0 38.12329 16.6645 38.12329 37.25046 0 20.57822-17.055 37.25046-38.12329 37.25046-21.06038 0-38.12329-16.66453-38.12329-37.25046 0-20.57822 17.05499-37.25046 38.12329-37.25046z"/>
  <path d="m414.24999 363.23694c1.07502-3.06082 1.8901-35.29072 1.8111-71.61915-.14405-65.30654-.0845-66.13994 5.29961-73.34472 13.11816-17.5541 14.04887-37.56713 2.55206-54.84768-3.64497-5.47935-13.67138-12.86082-15.26158-11.238-.56875.58043-1.18242 9.37972-1.3654 19.5549-.18183 10.17401-1.0678 19.25121-1.96976 20.17168-4.08349 4.16732-25.32955 4.36099-29.5049.26964-1.20764-1.18336-2.69677-11.13986-3.32033-22.13755-1.06788-18.82253-1.3526-19.8738-4.87896-17.87043-13.47386 7.64404-22.22922 24.92915-20.85175 41.16822 1.0034 11.82036 4.42789 19.59128 11.84713 26.86127l5.96051 5.84061.80738 68.4159.80737 68.41588 6.18335 7.31621c5.15319 6.09762 7.4071 7.54311 13.5271 8.67879 12.77189 2.37195 24.25205-3.955 28.3582-15.63441zm-18.1912 4.29953c-10.2057 4.62689-20.5707-5.50894-16.43529-16.07247 2.09594-5.3656 3.10971-6.38106 7.90564-7.91726 11.99268-3.8458 21.70508 11.13462 13.65781 21.06444-.42451.52409-2.73124 1.84015-5.12698 2.92647z"/>
 </g>
</svg>
