<svg height="512" viewBox="0 0 512 512" width="512" xmlns="http://www.w3.org/2000/svg">
 <path d="m471.95 253.05c0 120.9-98.01 218.9-218.9 218.9-120.9 0-218.9-98.01-218.9-218.9 0-120.9 98.01-218.9 218.9-218.9 120.9 0 218.9 98.01 218.9 218.9" fill="#7c7c7c" fill-rule="evenodd"/>
 <path d="m256 1c-140.83 0-255 114.17-255 255 0 140.83 114.17 255 255 255 140.83 0 255-114.17 255-255 0-140.83-114.17-255-255-255m8.827 44.931c120.9 0 218.9 98 218.9 218.9 0 120.9-98 218.9-218.9 218.9-120.9 0-218.93-98-218.93-218.9 0-120.9 98.03-218.9 218.93-218.9" fill-opacity=".067" fill-rule="evenodd"/>
 <g fill-opacity=".129" fill-rule="evenodd">
  <path d="m256 4.433c-138.94 0-251.57 112.63-251.57 251.57 0 138.94 112.63 251.57 251.57 251.57 138.94 0 251.57-112.63 251.57-251.57 0-138.94-112.63-251.57-251.57-251.57m5.885 38.556c120.9 0 218.9 98 218.9 218.9 0 120.9-98 218.9-218.9 218.9-120.9 0-218.93-98-218.93-218.9 0-120.9 98.03-218.9 218.93-218.9"/>
  <path d="m256 8.356c-136.77 0-247.64 110.87-247.64 247.64 0 136.77 110.87 247.64 247.64 247.64 136.77 0 247.64-110.87 247.64-247.64 0-136.77-110.87-247.64-247.64-247.64m2.942 31.691c120.9 0 218.9 98 218.9 218.9 0 120.9-98 218.9-218.9 218.9-120.9 0-218.93-98-218.93-218.9 0-120.9 98.03-218.9 218.93-218.9"/>
 </g>
 <path d="m218.67707 87.630045v110.249995h-43.844c-11.604 0-3.052 9.11-1.297 10.865l.324.324 77.79 94 .031.031c0 0 .124.146.357.379l25.09 25.09h-120.48c-17.808 0-32.16 14.317-32.16 32.13 0 17.808 14.348 32.16 32.16 32.16l76.31 76.31c6.316.548 12.704.846 19.16.846 117.05 0 212.63-91.86 218.61-207.42l-174.96-174.959995h-77.09" opacity=".25"/>
 <path d="m253.04 7.859c-135.42 0-245.19 109.78-245.19 245.19 0 135.42 109.78 245.19 245.19 245.19 135.42 0 245.19-109.78 245.19-245.19 0-135.42-109.78-245.19-245.19-245.19zm0 26.297c120.9 0 218.9 98 218.9 218.9 0 120.9-98 218.9-218.9 218.9-120.9 0-218.93-98-218.93-218.9 0-120.9 98.03-218.9 218.93-218.9z" fill="#ffffff" fill-rule="evenodd" stroke="#000000" stroke-opacity=".31" stroke-width="4.904"/>
 <path d="m218.67707 87.630045v110.249995h-43.844c-12.841 0-1 11.156-1 11.156l77.81 94.03.031.031c0 0 6.344 7.433 13 .75 9.229-9.22 75.44-97.09 75.44-97.09 0 0 11.705-11.719-3.875-11.719h-40.469v-107.399995h-77.09m-62.03 240.939995c-17.808 0-32.16 14.317-32.16 32.13 0 17.808 14.348 32.16 32.16 32.16h199.94c17.808 0 32.16-14.348 32.16-32.16 0-17.808-14.348-32.12-32.16-32.12h-199.94m-.969 14.844c.295-.015.639 0 .938 0 9.559 0 17.281 7.722 17.281 17.281 0 9.559-7.722 17.344-17.281 17.344-9.559 0-17.281-7.784-17.281-17.344 0-9.261 7.198-16.818 16.344-17.281" fill="#ffffff"/>
</svg>
