<svg height="512" viewBox="0 0 512 512" width="512" xmlns="http://www.w3.org/2000/svg">
 <path d="m471.95 253.05c0 120.9-98.01 218.9-218.9 218.9-120.9 0-218.9-98.01-218.9-218.9 0-120.9 98.01-218.9 218.9-218.9 120.9 0 218.9 98.01 218.9 218.9" fill="#9f9f9f" fill-rule="evenodd"/>
 <path d="m472.87788 248.03919l-251.10322-139.59368-.95662 1.88255-6.70011-3.84888-16.69185 15.90708 11.92691 4.8828-2.04075.0655-42.45972-23.24592 2.93419 12.18659-16.43749-10.40615-53.30099 109.84517c12.10596 24.92594 7.67822 59.2997 45.46546 69.55062l-1.20719 12.67116 38.64278 24.15864 1.48016 67.61111 153.6422 69.27877c44.78-18.27033 59.6851-21.37717 96.66204-80.61362l39.80077-84.32374" opacity=".25"/>
 <path d="m256 1c-140.83 0-255 114.17-255 255 0 140.83 114.17 255 255 255 140.83 0 255-114.17 255-255 0-140.83-114.17-255-255-255m8.827 44.931c120.9 0 218.9 98 218.9 218.9 0 120.9-98 218.9-218.9 218.9-120.9 0-218.93-98-218.93-218.9 0-120.9 98.03-218.9 218.93-218.9" fill-opacity=".067" fill-rule="evenodd"/>
 <g fill-opacity=".129" fill-rule="evenodd">
  <path d="m256 4.433c-138.94 0-251.57 112.63-251.57 251.57 0 138.94 112.63 251.57 251.57 251.57 138.94 0 251.57-112.63 251.57-251.57 0-138.94-112.63-251.57-251.57-251.57m5.885 38.556c120.9 0 218.9 98 218.9 218.9 0 120.9-98 218.9-218.9 218.9-120.9 0-218.93-98-218.93-218.9 0-120.9 98.03-218.9 218.93-218.9"/>
  <path d="m256 8.356c-136.77 0-247.64 110.87-247.64 247.64 0 136.77 110.87 247.64 247.64 247.64 136.77 0 247.64-110.87 247.64-247.64 0-136.77-110.87-247.64-247.64-247.64m2.942 31.691c120.9 0 218.9 98 218.9 218.9 0 120.9-98 218.9-218.9 218.9-120.9 0-218.93-98-218.93-218.9 0-120.9 98.03-218.9 218.93-218.9"/>
 </g>
 <path d="m253.04 7.859c-135.42 0-245.19 109.78-245.19 245.19 0 135.42 109.78 245.19 245.19 245.19 135.42 0 245.19-109.78 245.19-245.19 0-135.42-109.78-245.19-245.19-245.19zm0 26.297c120.9 0 218.9 98 218.9 218.9 0 120.9-98 218.9-218.9 218.9-120.9 0-218.93-98-218.93-218.9 0-120.9 98.03-218.9 218.93-218.9z" fill="#ffffff" fill-rule="evenodd" stroke="#000000" stroke-opacity=".31" stroke-width="4.904"/>
 <g fill="#ffffff" transform="matrix(5.3010411 0 0 5.3010411 82.80371 82.740773)">
  <path d="m24.771 4.485c-.349-.224-.763-.354-1.208-.354-1.241 0-2.247 1.007-2.247 2.248 0 .405.107.785.295 1.115z"/>
  <path d="m57.55 38.703c3.037-3.838 3.726-8.354 1.537-10.085-2.038-1.614-5.856-.236-8.825 3.066-2.779-.773-5.248-.584-7.344.6-4.025 2.271-5.548 7.483-6.113 11.456-.09.611-.171 1.232-.254 1.861-.902 6.859-1.758 13.347-9.899 13.347-.131 0-.266-.001-.4-.007-2.31-.057-3.973-.776-5.084-2.196-2.045-2.614-1.69-6.897-1.43-8.681.805-.363 1.381-1.156 1.413-2.101l.12-3.516 4.309-1.283c.934-.276 1.566-1.073 1.688-1.979 3.56-1.94 5.968-4.539 7.189-7.772 3.468-9.178-4.023-19.876-4.345-20.327-.07-.099-.165-.165-.254-.239.214-.487.163-.934-.195-1.165-.565-.365-1.438-1.455-1.948-2.434l-.896-1.721c-.51-.98-1.568-1.151-2.363-.385l-2.24 2.164c-.795.767-.644 1.801.336 2.31l1.568.814c.98.509 2.055 1.433 2.399 2.064.26.475.853.536 1.476.217.636.932 6.801 10.286 3.967 17.769-.976 2.581-2.949 4.688-5.877 6.311-.55-.316-1.22-.418-1.874-.223l-5.256 1.565-5.619-1.78c-.645-.203-1.311-.117-1.862.182-2.681-1.587-4.501-3.608-5.427-6.055-2.969-7.843 3.952-17.75 4.022-17.85.011-.016.012-.034.023-.051 0 0 .163.152.365.339.202.188.645-.172.989-.803.344-.632 1.418-1.556 2.398-2.064l1.568-.813c.981-.509 1.131-1.543.336-2.31l-2.24-2.164c-.795-.767-1.853-.595-2.363.385l-.895 1.719c-.51.98-1.383 2.069-1.948 2.435-.566.365-.821.851-.569 1.085l.456.424c-.105.08-.211.16-.292.274-.321.451-7.812 11.149-4.345 20.327 1.161 3.073 3.402 5.569 6.677 7.476.097.92.722 1.74 1.659 2.037l4.586 1.452-.118 3.422c-.024.714.272 1.357.751 1.813-.319 2.121-.745 7.304 1.953 10.764 1.611 2.064 4.007 3.15 7.123 3.229.168.006.331.009.493.009 10.453 0 11.598-8.675 12.518-15.664.08-.618.16-1.229.248-1.833.683-4.776 2.381-8.154 4.785-9.512 1.211-.683 2.654-.873 4.303-.59-2.071 3.426-2.334 7.004-.441 8.502 2.186 1.732 6.423.024 9.461-3.815zm-3.907-3.171c-1.138 1.438-2.725 2.077-3.543 1.43-.601-.476-.617-1.509-.141-2.594.432.136.869.289 1.324.481.679.286 1.46-.029 1.746-.707.289-.679-.028-1.459-.706-1.747-.202-.086-.396-.149-.597-.226.928-.676 1.904-.88 2.49-.416.822.65.563 2.343-.573 3.779z"/>
  <path d="m16.648 6.001c0-1.241-1.006-2.248-2.247-2.248-.445 0-.859.13-1.208.354l3.16 3.01c.188-.331.295-.711.295-1.116z"/>
  <path d="m61.398 30.048c-.57-.312-.676.272-.567 1.372.162 1.643-.099 4.161-2.231 6.891-2.689 3.441-5.054 4.682-6.617 5.104-1.066.289-1.358.517-.596.959.764.44 2.262.571 3.198-.015 1.197-.746 2.942-2.174 5.115-4.885 2.366-2.955 2.954-5.345 3.005-6.894.036-1.102-.736-2.22-1.307-2.532z"/>
 </g>
</svg>
