<svg height="512" viewBox="0 0 512 512" width="512" xmlns="http://www.w3.org/2000/svg">
 <g fill-rule="evenodd">
  <path d="m471.95 253.05c0 120.9-98.01 218.9-218.9 218.9-120.9 0-218.9-98.01-218.9-218.9 0-120.9 98.01-218.9 218.9-218.9 120.9 0 218.9 98.01 218.9 218.9" fill="#878787"/>
  <path d="m198.88 175.75l-62.25 36-62.25 36 1.375.781-.375.219 1.375.781-.375.219s1.287.748 1.344.781l-.375.219s1.316.747 1.375.781l-.375.219s1.287.748 1.344.781l-.344.188s1.316.747 1.375.781l-.375.219s1.316.747 1.375.781l-.375.219s1.316.747 1.375.781l-.375.219s1.287.748 1.344.781l-.375.219s1.316.747 1.375.781l-.375.219s1.287.748 1.344.781l-.344.188s1.316.747 1.375.781l-.375.219s1.316.747 1.375.781l-.375.219s1.316.747 1.375.781l-.375.219s1.316.747 1.375.781l-.375.219s1.286.748 1.344.781l-.375.219s1.287.748 1.344.781l-.344.188s1.316.747 1.375.781l-.375.219s1.316.747 1.375.781l-.375.219c.001 0 1.316.747 1.375.781l-.375.219c.001 0 1.316.747 1.375.781l-.375.219c.001 0 1.286.748 1.344.781l-.375.219c.001 0 1.316.747 1.375.781l-.375.219c.001 0 1.286.748 1.344.781l-.344.188c.001 0 1.316.747 1.375.781l-.375.219c.001 0 1.316.747 1.375.781l-.375.219c.001 0 1.316.747 1.375.781l-.375.219c.001 0 1.286.748 1.344.781l-.375.219c.001 0 1.315.747 1.375.781l-.375.219c.001 0 1.286.748 1.344.781l-.344.188c.001 0 1.315.747 1.375.781l-.375.219c.001 0 1.315.747 1.375.781l-.375.219c.001 0 1.315.747 1.375.781l-.375.219c.001.001 1.315.747 1.375.781l-.375.219c.001.001 1.286.748 1.344.781l-.375.219c.001.001 1.286.748 1.344.781l-.344.188c.001.001 1.315.747 1.375.781l-.375.219c.001.001 1.315.747 1.375.781l-.375.219c.001.001 1.315.747 1.375.781l-.375.219c.001.001 1.315.747 1.375.781l-.375.219c.001.001 1.286.748 1.344.781l-.375.219c.001.001 1.286.748 1.344.781l-.344.188c.001.001 1.315.747 1.375.781l-.375.219c.001.001 1.315.747 1.375.781l-.375.219c.001.001 1.315.747 1.375.781l-.375.219 1.375.781-.375.219 1.344.781-.375.219 1.375.781-.375.219 1.344.781-.344.188 1.375.781-.375.219c.001.001 1.315.746 1.375.781l-.375.219c.001.001 1.315.746 1.375.781l-.375.219c.001.001 1.286.748 1.344.781l-.375.219c.001.001 1.315.746 1.375.781-.005.003-.375.219-.375.219.001.001 1.286.748 1.344.781l-.344.188c.001.001 1.315.746 1.375.781l-.375.219c.001.001 1.315.746 1.375.781l-.375.219 1.375.781c-.005.003-.375.219-.375.219l1.375.781c-.005.003-.375.219-.375.219l1.344.781c-.005.003-.375.219-.375.219l1.344.781c-.004.002-.344.188-.344.188l1.375.781c-.005.003-.375.219-.375.219.002.001 1.315.746 1.375.781-.005.003-.375.219-.375.219.002.001 1.315.746 1.375.781l-.375.219c.002.001 1.315.746 1.375.781l-.375.219c.002.001 1.285.747 1.344.781l-.375.219c.002.001 1.315.746 1.375.781l-.375.219c.002.001 1.285.747 1.344.781l-.344.188c.002.001 1.315.746 1.375.781l-.375.219c.002.001 1.315.746 1.375.781l-.375.219c.002.001 1.314.746 1.375.781-.005.003-.375.219-.375.219l1.344.781-.375.219 1.375.781c-.005.003-.375.219-.375.219l1.344.781c-.004.002-.344.188-.344.188l1.375.781c-.005.003-.375.219-.375.219.002.001 1.314.746 1.375.781-.005.003-.375.219-.375.219.002.001 1.314.746 1.375.781-.005.003-.375.219-.375.219.002.001 1.314.746 1.375.781-.005.003-.375.219-.375.219.002.001 1.285.747 1.344.781-.005.003-.375.219-.375.219.002.001 1.285.747 1.344.781-.004.002-.344.188-.344.188.002.001 1.314.746 1.375.781-.005.003-.375.219-.375.219.002.001 1.314.746 1.375.781-.005.003-.375.219-.375.219.002.001 1.314.746 1.375.781-.005.003-.375.219-.375.219.002.001 1.314.746 1.375.781-.005.003-.375.219-.375.219.002.001 1.285.747 1.344.781-.005.003-.375.219-.375.219.002.001 1.285.747 1.344.781-.004.002-.344.188-.344.188.002.001 1.314.746 1.375.781-.005.003-.375.219-.375.219.002.001 1.314.746 1.375.781-.005.003-.375.219-.375.219.002.001 1.314.746 1.375.781-.005.003-.375.219-.375.219.002.001 1.314.746 1.375.781-.005.003-.375.219-.375.219.002.001 1.285.747 1.344.781-.005.003-.375.219-.375.219.002.001 1.314.746 1.375.781-.005.003-.375.219-.375.219.002.001 1.285.747 1.344.781-.004.002-.344.188-.344.188.002.001 1.314.746 1.375.781-.005.003-.375.219-.375.219.002.001 1.314.746 1.375.781-.005.003-.375.219-.375.219.003.001 1.314.746 1.375.781-.005.003-.375.219-.375.219.002.001 1.285.747 1.344.781-.005.003-.375.219-.375.219.003.001 1.314.746 1.375.781l-.375.219c.003.001 1.285.747 1.344.781l-.344.188c.003.002 1.314.746 1.375.781l-.375.219c.003.002 1.314.746 1.375.781l-.375.219c.003.002 1.314.746 1.375.781l-.375.219c.003.002 1.314.746 1.375.781l-.375.219c.003.002 1.284.747 1.344.781l-.375.219c.003.002 1.284.747 1.344.781l-.344.188c.003.002 1.314.746 1.375.781-.005.003-.375.219-.375.219.003.002 1.314.746 1.375.781-.005.003-.375.219-.375.219.003.002 1.314.746 1.375.781-.005.003-.375.219-.375.219l1.375.781c-.005.003-.375.219-.375.219l1.344.781c-.005.003-.375.219-.375.219l1.375.781c-.005.003-.375.219-.375.219l1.344.781c-.004.002-.344.188-.344.188l1.375.781c-.005.003-.375.219-.375.219l1.375.781c-.005.003-.375.219-.375.219l1.375.781c-.005.003-.375.219-.375.219l1.344.781c-.005.003-.375.219-.375.219l1.375.781c-.005.003-.375.219-.375.219l1.344.781c-.004.002-.344.188-.344.188l1.375.781c-.005.003-.375.219-.375.219l1.375.781c-.005.003-.375.219-.375.219.003.002 1.313.745 1.375.781-.005.003-.375.219-.375.219l1.375.781c-.005.003-.375.219-.375.219.003.002 1.284.747 1.344.781-.005.003-.375.219-.375.219.003.002 1.284.747 1.344.781-.004.002-.344.188-.344.188.003.002 1.313.745 1.375.781-.005.003-.375.219-.375.219.003.002 1.313.745 1.375.781l-.375.219c.003.002 1.313.745 1.375.781l-.375.219c.003.002 1.313.745 1.375.781l-.375.219c.003.002 1.284.747 1.344.781-.005.003-.375.219-.375.219.003.002 1.284.747 1.344.781-.004.002-.344.188-.344.188.003.002 1.313.745 1.375.781-.005.003-.375.219-.375.219.003.002 1.313.745 1.375.781-.005.003-.375.219-.375.219.004.002 1.313.745 1.375.781-.005.003-.375.219-.375.219.004.002 1.313.745 1.375.781-.005.003-.375.219-.375.219.003.002 1.284.746 1.344.781-.005.003-.375.219-.375.219.004.002 1.313.745 1.375.781l-.375.219c.004.002 1.284.746 1.344.781l-.344.188c.004.002 1.313.745 1.375.781l-.375.219c.004.002 1.313.745 1.375.781l-.375.219c.004.002 1.313.745 1.375.781-.005.003-.375.219-.375.219.004.002 1.284.746 1.344.781-.005.003-.375.219-.375.219.004.002 1.313.745 1.375.781-.005.003-.375.219-.375.219.004.002 1.284.746 1.344.781-.004.002-.344.188-.344.188.004.002 1.313.745 1.375.781-.005.003-.375.219-.375.219l1.375.781c-.005.003-.375.219-.375.219l1.375.781c-.005.003-.375.219-.375.219l1.375.781c-.005.003-.375.219-.375.219l1.344.781c-.005.003-.375.219-.375.219l1.344.781c-.004.002-.344.188-.344.188l1.375.781c-.005.003-.375.219-.375.219l1.375.781c-.005.003-.375.219-.375.219l1.375.781c-.005.003-.375.219-.375.219l1.375.781c-.005.003-.375.219-.375.219l1.344.781c-.005.003-.375.219-.375.219l1.344.781c-.004.002-.344.188-.344.188v.031l1.344.781c-.004.002-.344.188-.344.188l1.375.781c-.005.003-.375.219-.375.219l1.375.781c-.005.003-.375.219-.375.219l1.375.781c-.005.003-.375.219-.375.219l1.344.781c-.005.003-.375.219-.375.219l1.375.781c-.005.003-.375.219-.375.219l1.344.781c-.004.002-.344.188-.344.188l1.375.781-.375.219 1.375.781-.375.219 1.375.781-.375.219 1.375.781-.375.219 1.344.781c-.005.003-.375.219-.375.219l1.344.781c-.004.002-.344.188-.344.188l1.375.781c-.005.003-.375.219-.375.219l1.375.781c-.005.003-.375.219-.375.219l1.375.781c-.005.003-.375.219-.375.219.005.003 1.312.745 1.375.781-.005.003-.375.219-.375.219l1.344.781-.375.219 1.344.781-.344.188 1.375.781-.375.219 1.375.781c-.005.003-.375.219-.375.219l1.375.781c-.005.003-.375.219-.375.219l1.375.781c-.005.003-.375.219-.375.219l1.344.781c-.005.003-.375.219-.375.219l1.375.781c-.005.003-.375.219-.375.219l1.344.781c-.004.002-.344.188-.344.188l1.375.781c-.005.003-.375.219-.375.219l1.375.781c-.005.003-.375.219-.375.219l1.375.781c-.005.003-.375.219-.375.219l1.344.781c-.005.003-.375.219-.375.219l1.375.781c-.005.003-.375.219-.375.219l1.344.781c-.004.002-.344.188-.344.188l1.375.781c-.005.003-.375.219-.375.219l1.375.781c-.005.003-.375.219-.375.219l1.375.781c-.005.003-.375.219-.375.219l1.375.781c-.005.003-.375.219-.375.219l1.344.781c-.005.003-.375.219-.375.219l1.344.781c-.004.002-.344.188-.344.188l1.375.781c-.005.003-.375.219-.375.219l1.375.781c-.005.003-.375.219-.375.219l1.375.781c-.005.003-.375.219-.375.219l1.375.781c-.005.003-.375.219-.375.219l1.344.781c-.005.003-.375.219-.375.219l1.344.781c-.004.002-.344.188-.344.188v.031l1.344.781c-.004.002-.344.188-.344.188l1.375.781-.375.219 30.906 17.906c86.91-21.283 153.45-94.43 164.91-184.78-.016-.009-.09-.06-.094-.063.001-.001.072-.032.125-.063.012-.093.02-.188.031-.281-.298-.169-1.106-.627-1.156-.656.005-.003.375-.219.375-.219-.001 0-1.315-.747-1.375-.781.005-.003.375-.219.375-.219-.001 0-1.315-.747-1.375-.781.005-.003.375-.219.375-.219-.001 0-1.286-.748-1.344-.781.004-.002.344-.188.344-.188-.001 0-1.286-.748-1.344-.781.005-.003.375-.219.375-.219l-1.375-.781c.005-.003.375-.219.375-.219l-1.375-.781c.005-.003.375-.219.375-.219l-1.375-.781c.005-.003.375-.219.375-.219-.001 0-1.316-.747-1.375-.781.005-.003.375-.219.375-.219-.001 0-1.286-.748-1.344-.781.004-.002.344-.188.344-.188-.001 0-1.286-.748-1.344-.781.005-.003.375-.219.375-.219-.001 0-1.316-.747-1.375-.781.005-.003.375-.219.375-.219-.001 0-1.316-.747-1.375-.781.005-.003.375-.219.375-.219-.001 0-1.316-.747-1.375-.781.005-.003.375-.219.375-.219s-1.316-.747-1.375-.781c.005-.003.375-.219.375-.219s-1.316-.747-1.375-.781c.005-.003.375-.219.375-.219s-1.258-.719-1.313-.75c.004-.002.344-.219.344-.219s-1.316-.747-1.375-.781l.375-.219s-1.316-.747-1.375-.781c.005-.003.375-.219.375-.219s-1.316-.747-1.375-.781c.005-.003.375-.219.375-.219s-1.316-.747-1.375-.781c.005-.003.375-.219.375-.219s-1.316-.747-1.375-.781c.005-.003.375-.219.375-.219s-1.287-.748-1.344-.781c.004-.002.344-.188.344-.188s-1.287-.748-1.344-.781c.005-.003.375-.219.375-.219s-1.316-.747-1.375-.781c.005-.003.375-.219.375-.219s-1.316-.747-1.375-.781c.005-.003.375-.219.375-.219s-1.316-.747-1.375-.781c.005-.003.375-.219.375-.219s-1.316-.747-1.375-.781c.005-.003.375-.219.375-.219s-1.287-.748-1.344-.781c.004-.002.344-.188.344-.188s-1.287-.748-1.344-.781c.005-.003.375-.219.375-.219s-1.316-.747-1.375-.781c.005-.003.375-.219.375-.219s-1.316-.747-1.375-.781c.005-.003.375-.219.375-.219s-1.316-.747-1.375-.781l.375-.219-62.25-36-62.25-36v36h-78.29v-.188l-.313.188h-.688v-1.188l-1 .594v-1.594l-1 .594v-1.59l-.969.563v-1.56l-1 .594v-1.59l-1 .594v-1.59l-1 .594v-1.59l-1 .594v-1.59l-1 .594v-1.59l-1 .594v-1.563l-.969.563v-1.563l-1 .594v-1.594l-1 .594v-1.594l-1 .594v-1.594l-1 .594v-1.594l-1 .594v-1.563l-.969.563v-1.563l-1 .594v-1.594l-1 .594v-1.594l-1 .594v-1.594l-1 .594v-1.594l-1 .594v-1.563l-.969.563v-1.563l-1 .594v-1.594l-1 .594v-1.594l-1 .594v-1.594l-1 .594v-1.594l-1 .594v-1.563l-1 .594v-1.594l-.969.563v-1.563l-1 .594v-1.594l-1 .594v-1.594l-1 .594v-1.594l-1 .594v-1.594l-1 .594v-1.563l-.969.563v-1.563" fill-opacity=".235"/>
  <path d="m256 1c-140.83 0-255 114.17-255 255s114.17 255 255 255 255-114.17 255-255-114.17-255-255-255m8.827 44.931c120.9 0 218.9 98 218.9 218.9s-98 218.9-218.9 218.9-218.93-98-218.93-218.9 98.03-218.9 218.93-218.9" fill-opacity=".067"/>
  <g fill-opacity=".129">
   <path d="m256 4.433c-138.94 0-251.57 112.63-251.57 251.57s112.63 251.57 251.57 251.57 251.57-112.63 251.57-251.57-112.63-251.57-251.57-251.57m5.885 38.556c120.9 0 218.9 98 218.9 218.9s-98 218.9-218.9 218.9-218.93-98-218.93-218.9 98.03-218.9 218.93-218.9"/>
   <path d="m256 8.356c-136.77 0-247.64 110.87-247.64 247.64s110.87 247.64 247.64 247.64 247.64-110.87 247.64-247.64-110.87-247.64-247.64-247.64m2.942 31.691c120.9 0 218.9 98 218.9 218.9s-98 218.9-218.9 218.9-218.93-98-218.93-218.9 98.03-218.9 218.93-218.9"/>
  </g>
  <path d="m253.04 7.859c-135.42 0-245.19 109.78-245.19 245.19 0 135.42 109.78 245.19 245.19 245.19 135.42 0 245.19-109.78 245.19-245.19 0-135.42-109.78-245.19-245.19-245.19zm0 26.297c120.9 0 218.9 98 218.9 218.9s-98 218.9-218.9 218.9-218.93-98-218.93-218.9 98.03-218.9 218.93-218.9z" fill="#ffffff" stroke="#000000" stroke-opacity=".31" stroke-width="4.904"/>
 </g>
 <path d="m198.86 175.74l-62.24 36.01-62.24 36.01 62.24 36.07 62.24 36.01v-41.18h114.28v41.18l62.24-36.01 62.24-36.07-62.24-36.01-62.24-36.01v36.01h-114.28z" fill="#ffffff" fill-rule="evenodd"/>
</svg>
