<svg viewBox="0 0 512 512" xmlns="http://www.w3.org/2000/svg">
 <path d="m471.95 253.05c0 120.9-98.01 218.91-218.91 218.91s-218.91-98.01-218.91-218.91 98.01-218.91 218.91-218.91 218.91 98.01 218.91 218.91" fill="#b0b0b0" fill-rule="evenodd"/>
 <path d="m376.44 134.31c-2.077.076-4.292.626-6.5 1.625l-257.81 99.13c-13 5.2-16.348 11.904-11.443 16.809l96.05 96.05 1.08 3.547c1.79 4.928 1.98 8.07 3.705 9.791l104.28 104.28c95.41-23.613 166.14-109.78 166.14-212.49 0-10.568-.763-20.957-2.211-31.12l-84.21-84.21c-2.357-2.357-5.552-3.531-9.08-3.402" opacity=".25"/>
 <g fill-rule="evenodd">
  <path d="m256 1c-140.83 0-255 114.17-255 255s114.17 255 255 255 255-114.17 255-255-114.17-255-255-255m8.827 44.931c120.9 0 218.9 98 218.9 218.9s-98 218.9-218.9 218.9-218.93-98-218.93-218.9 98.03-218.9 218.93-218.9" fill-opacity=".067"/>
  <g fill-opacity=".129">
   <path d="m256 4.43c-138.94 0-251.57 112.63-251.57 251.57s112.63 251.57 251.57 251.57 251.57-112.63 251.57-251.57-112.63-251.57-251.57-251.57m5.885 38.556c120.9 0 218.9 98 218.9 218.9s-98 218.9-218.9 218.9-218.93-98-218.93-218.9 98.03-218.9 218.93-218.9"/>
   <path d="m256 8.36c-136.77 0-247.64 110.87-247.64 247.64s110.87 247.64 247.64 247.64 247.64-110.87 247.64-247.64-110.87-247.64-247.64-247.64m2.942 31.691c120.9 0 218.9 98 218.9 218.9s-98 218.9-218.9 218.9-218.93-98-218.93-218.9 98.03-218.9 218.93-218.9"/>
  </g>
  <path d="m253.04 7.86c-135.42 0-245.19 109.78-245.19 245.19 0 135.42 109.78 245.19 245.19 245.19 135.42 0 245.19-109.78 245.19-245.19 0-135.42-109.78-245.19-245.19-245.19m0 26.297c120.9 0 218.9 98 218.9 218.9s-98 218.9-218.9 218.9-218.93-98-218.93-218.9 98.03-218.9 218.93-218.9z" fill="#ffffff" stroke="#000000" stroke-opacity=".31" stroke-width="4.904"/>
 </g>
 <g fill="#ffffff">
  <path d="m208.01 362.95c-8.671 0-7.197-3.264-10.188-11.495l-25.517-83.67 157.92-98.37 18.429 4.805-15.31 41.834z" opacity=".4"/>
  <path d="m208.01 362.95c6.691 0 9.657-3.041 13.382-6.671 5.751-5.604 80.29-77.83 80.29-77.83l-45.66-11.02-42.38 26.683-5.639 66.61z" opacity=".4"/>
  <path d="m212.57 294.92l107.86 79.45c12.308 6.77 21.19 3.265 24.26-11.393l43.906-206.27c4.495-17.967-6.87-26.12-18.645-20.787l-257.82 99.14c-17.598 7.04-17.495 16.825-3.208 21.19l66.16 20.587 153.17-96.34c7.231-4.371 13.867-2.02 8.42 2.798z"/>
 </g>
</svg>
