<svg height="512" viewBox="0 0 512 512" width="512" xmlns="http://www.w3.org/2000/svg">
 <path d="m471.95 253.05c0 120.9-98.01 218.9-218.9 218.9-120.9 0-218.9-98.01-218.9-218.9 0-120.9 98.01-218.9 218.9-218.9 120.9 0 218.9 98.01 218.9 218.9" fill="#8f8f8f" fill-rule="evenodd"/>
 <path d="m140.97 134.41v29.375h-.719v-1h-1v-1h-1v-1h-1v-1h-1v-1h-.969v-.969h-1v-1h-1v-1h-1v-1h-7.125v31.19h-.469v-1h-1v-1h-1v-1h-1v-1h-1v-1h-.969v-.969h-1v-1h-1v-1h-1v-1h-7.875v177.13c.33.025.669.038 1 .063v.938c.331.025.669.038 1 .063v.938c.33.025.669.038 1 .063v.938c.321.025.647.039.969.063v.906c.329.025.67.038 1 .063v.938c.33.025.669.038 1 .063v.938c.33.025.67.038 1 .063v.938c.33.025.669.038 1 .063v.938c.33.025.669.038 1 .063v.938c.32.025.648.039.969.063v.906c.329.025.67.038 1 .063v.938c.33.025.669.038 1 .063v.938c.329.025.67.038 1 .063v.938c.33.025.669.038 1 .063v.938c.331.025.668.038 1 .063v.938c.32.025.648.039.969.063v.906c.33.025.669.038 1 .063v.938c.329.025.67.038 1 .063v.938c.33.025.669.038 1 .063v.938c.33.025.669.038 1 .063v.938c.331.025.668.038 1 .063v.938c.32.025.648.039.969.063v.906c.33.025.669.038 1 .063v.938c.329.025.67.038 1 .063v.938c.33.025.669.038 1 .063v.938c.329.025.67.038 1 .063v.938c.33.025.669.038 1 .063v.938c.33.025.669.038 1 .063v.938c.32.025.647.039.969.063v.906c.33.025.669.038 1 .063v.938c.33.025.669.038 1 .063v.938c.331.025.669.038 1 .063v.938c.33.025.669.038 1 .063v.938c.331.025.668.038 1 .063v.938c.32.025.648.039.969.063v.906c.33.025.669.038 1 .063v.938c.329.025.67.038 1 .063v.938c.33.025.669.038 1 .063v.938c.33.025.669.038 1 .063v.938c.331.025.668.038 1 .063v.938c.32.025.648.039.969.063v.906c.329.025.67.038 1 .063v.938c.329.025.67.038 1 .063v.938c.33.025.669.038 1 .063v.938c.329.025.67.038 1 .063v.938c.33.025.669.038 1 .063v.938c.331.025.668.038 1 .063v.938c.32.025.647.039.969.063v.906c.33.025.669.038 1 .063v.938c.329.025.669.038 1 .063v.938c.33.025.668.038 1 .063v.938c.33.025.669.038 1 .063v.938c.331.025.668.038 1 .063v.938c.32.025.648.039.969.063v.906c.33.025.669.038 1 .063v.938c.329.025.67.038 1 .063v.938c.33.025.669.038 1 .063v.938c.33.025.669.038 1 .063v.938c.331.025.668.038 1 .063v.938c.32.024.648.039.969.063v.906c.329.025.67.038 1 .063v.938c.33.025.669.038 1 .063v.938c.33.025.669.038 1 .063v.938c.331.025.668.038 1 .063v.938c.33.025.669.038 1 .063v.938c.321.025.647.039.969.063v.906c.329.025.67.038 1 .063v.938c.33.025.669.038 1 .063v.938c.329.025.67.038 1 .063v.938c.33.025.668.038 1 .063v.938c.33.025.669.038 1 .063v.938c.331.025.668.038 1 .063v.938c.32.025.648.039.969.063v.906c.329.025.669.038 1 .063v.938c.329.025.67.038 1 .063v.938c.33.025.669.038 1 .063v.938c.331.025.668.038 1 .063v.938c.331.025.668.038 1 .063v.938c.321.025.646.039.969.063v.906c.329.025.67.038 1 .063v.938c.33.025.669.038 1 .063v.938c.329.025.669.038 1 .063v.938c.331.025.668.038 1 .063v.938c.33.025.669.038 1 .063v.938c.321.025.647.039.969.063v.906c.328.025.67.038 1 .063v.938c.33.025.669.038 1 .063v.938c.329.025.67.038 1 .063v.938c.33.025.668.038 1 .063v.938c.33.025.669.038 1 .063v.938c.331.025.668.038 1 .063v.938c.32.025.648.039.969.063v.906c.329.025.669.038 1 .063v.938c.331.025.668.038 1 .063v.938c.33.025.669.038 1 .063v.938c.331.025.667.038 1 .063v.938c.33.025.668.038 1 .063v.938c.322.025.646.039.969.063v.906c.329.025.67.039 1 .063v.938c.33.025.668.038 1 .063v.938c.329.025.669.038 1 .063v.938c.331.025.668.038 1 .063v.938c.33.025.669.038 1 .063v.938c.321.025.646.039.969.063v.906c.328.025.671.039 1 .063v.938c.329.025.669.039 1 .063v.938c.329.025.67.039 1 .063v.938c.33.025.668.039 1 .063v.938c.332.025.667.038 1 .063v.938c.321.025.647.039.969.063v.906c.33.025.669.039 1 .063v.938c.329.025.67.039 1 .063v.938c.33.025.668.039 1 .063v.938c.33.025.669.039 1 .063v.938c.331.025.667.039 1 .063v.938c.33.025.668.039 1 .063v.938c.322.025.645.039.969.063v.531c9.1 1.153 18.368 1.781 27.781 1.781 120.9 0 218.91-98.01 218.91-218.91 0-6.102-.26-12.149-.75-18.12-.229.014-.459.014-.688.031v-1.063c-.333.025-.667.038-1 .063v-1.063c-.334.025-.666.038-1 .063v-1.063c-.324.025-.645.038-.969.063v-1.031c-.333.025-.667.038-1 .063v-1.063c-.333.025-.667.038-1 .063v-1.063c-.334.025-.666.038-1 .063v-1.063c-.334.025-.666.038-1 .063v-1.063c-.333.025-.667.038-1 .063v-1.063c-.323.025-.646.038-.969.063v-1.031c-.332.025-.668.038-1 .063v-1.063c-.332.025-.668.038-1 .063v-1.063c-.333.025-.668.038-1 .063v-1.063c-.333.025-.667.038-1 .063v-1.063c-.333.025-.667.038-1 .063v-1.063c-.333.025-.667.038-1 .063v-1.063c-.323.025-.646.038-.969.063v-1.031c-.333.025-.667.038-1 .063v-1.063c-.333.025-.667.038-1 .063v-1.063c-.333.025-.667.038-1 .063v-1.063c-.333.025-.667.038-1 .063v-1.063c-.334.025-.666.038-1 .063v-1.063c-.323.025-.645.038-.969.063v-1.031c-.333.025-.667.038-1 .063v-1.063c-.333.025-.667.038-1 .063v-1.063c-.333.025-.667.038-1 .063v-1.063c-.334.025-.666.038-1 .063v-1.063c-.334.025-.666.037-1 .063v-1.063c-.323.025-.646.038-.969.063v-1.031c-.332.025-.668.038-1 .063v-1.063c-.332.025-.668.038-1 .063v-1.063c-.333.025-.668.038-1 .063v-1.063c-.333.025-.667.038-1 .063v-1.063c-.333.025-.667.038-1 .063v-1.063c-.333.025-.667.038-1 .063v-1.063c-.323.025-.646.038-.969.063v-1.031c-.333.025-.667.038-1 .063v-1.063c-.333.025-.667.038-1 .063v-1.063c-.333.025-.667.038-1 .063v-1.063c-.333.025-.667.037-1 .063v-1.063c-.334.025-.666.037-1 .063v-1.063c-.323.025-.645.038-.969.063v-1.031c-.333.025-.667.038-1 .063v-1.063c-.333.025-.667.037-1 .063v-1.063c-.333.025-.667.037-1 .063v-1.063c-.334.025-.666.037-1 .063v-1.063c-.334.025-.666.037-1 .063v-1.063c-.323.025-.646.038-.969.063v-1.031c-.332.025-.668.038-1 .063v-1.063c-.332.025-.668.038-1 .063v-1.063c-.333.025-.667.038-1 .063v-1.063c-.333.025-.667.038-1 .063v-1.063c-.333.025-.667.037-1 .063v-1.063c-.323.025-.646.038-.969.063v-1.031c-.332.025-.668.038-1 .063v-1.063c-.333.025-.667.038-1 .063v-1.063c-.333.025-.667.037-1 .063v-1.063c-.333.025-.667.037-1 .063v-1.063c-.333.025-.667.037-1 .063v-1.063c-.333.025-.667.037-1 .063v-1.063c-.323.025-.646.038-.969.063v-1.031c-.333.025-.667.037-1 .063v-1.063c-.333.025-.667.037-1 .063v-1.063c-.333.025-.667.037-1 .063v-1.063c-.334.025-.667.037-1 .063v-1.063c-.334.025-.666.037-1 .063v-1.063c-.323.025-.645.038-.969.063v-1.031c-.332.025-.668.038-1 .063v-1.063c-.332.025-.668.037-1 .063v-1.063c-.333.025-.667.037-1 .063v-1.063c-.333.025-.667.037-1 .063v-1.063c-.333.025-.667.037-1 .063v-1.063c-.323.025-.646.038-.969.063v-1.031c-.333.025-.667.037-1 .063v-1.063c-.333.025-.667.037-1 .063v-1.063c-.333.025-.667.037-1 .063v-1.063c-.333.025-.667.037-1 .063v-1.063c-.333.025-.667.037-1 .063v-1.063c-.333.025-.667.037-1 .063v-1.063c-.323.025-.646.038-.969.063v-1.031c-.333.025-.667.037-1 .063v-1.063c-.333.025-.667.037-1 .063v-1.063c-.333.025-.667.037-1 .063v-1.063c-.333.025-.667.037-1 .063v-1.063c-.334.025-.666.037-1 .063v-1.063c-.323.025-.645.038-.969.063v-1.031c-.333.025-.667.037-1 .063v-1.063c-.333.025-.668.037-1 .063v-1.063c-.333.025-.667.037-1 .063v-1.063c-.333.025-.667.037-1 .063v-1.063c-.333.025-.667.037-1 .063v-1.063c-.323.025-.646.038-.969.063v-.91c-.333.025-.667.037-1 .063v-1.06c-.333.025-.667.037-1 .063v-1.06c-.333.025-.667.037-1 .063v-1.06c-.333.025-.667.037-1 .063v-1.06c-.333.025-.667.037-1 .063v-1.06c-.323.025-.646.038-.969.063v-1.031c-.333.025-.667.037-1 .063v-1.063c-.333.025-.667.037-1 .063v-1.062c-.333.025-.667.037-1 .063v-1.063c-37.03 2.821-73.895 3.727-113.56 39.563v2.906c-.293-.264-.582-.521-.875-.781v-.125c-.332-.3-.668-.58-1-.875v-.125c-.334-.301-.667-.579-1-.875v-.125c-39.667-35.835-76.57-36.741-113.59-39.563" fill-opacity=".235"/>
 <g fill-rule="evenodd">
  <path d="m256 1c-140.83 0-255 114.17-255 255s114.17 255 255 255 255-114.17 255-255-114.17-255-255-255m8.827 44.931c120.9 0 218.9 98 218.9 218.9s-98 218.9-218.9 218.9-218.93-98-218.93-218.9 98.03-218.9 218.93-218.9" fill-opacity=".067"/>
  <g fill-opacity=".129">
   <path d="m256 4.433c-138.94 0-251.57 112.63-251.57 251.57s112.63 251.57 251.57 251.57 251.57-112.63 251.57-251.57-112.63-251.57-251.57-251.57m5.885 38.556c120.9 0 218.9 98 218.9 218.9s-98 218.9-218.9 218.9-218.93-98-218.93-218.9 98.03-218.9 218.93-218.9"/>
   <path d="m256 8.356c-136.77 0-247.64 110.87-247.64 247.64s110.87 247.64 247.64 247.64 247.64-110.87 247.64-247.64-110.87-247.64-247.64-247.64m2.942 31.691c120.9 0 218.9 98 218.9 218.9s-98 218.9-218.9 218.9-218.93-98-218.93-218.9 98.03-218.9 218.93-218.9"/>
  </g>
  <path d="m253.04 7.859c-135.42 0-245.19 109.78-245.19 245.19 0 135.42 109.78 245.19 245.19 245.19 135.42 0 245.19-109.78 245.19-245.19 0-135.42-109.78-245.19-245.19-245.19zm0 26.297c120.9 0 218.9 98 218.9 218.9s-98 218.9-218.9 218.9-218.93-98-218.93-218.9 98.03-218.9 218.93-218.9z" fill="#ffffff" stroke="#000000" stroke-opacity=".31" stroke-width="4.904"/>
 </g>
 <g fill="#ffffff" transform="matrix(1.0188 0 0 1.0188 -700.34 49.938)">
  <path d="m1051.6 82.906c-36.34 2.769-72.53 3.671-111.47 38.844l.75 181.34c31.707-28.788 69.69-38.783 110.72-39.594zm-241.31 20.03v177.13c60.5.89 100.76 12.895 127.75 32.19.551.176.923.031 1.344 0 26.995-19.292 67.25-31.3 127.75-32.19v-177.12h-7.03v169.59c-33.04 2.945-58.965-2.711-121.41 35.875-62.43-38.571-88.37-32.93-121.41-35.875v-169.59zm-16.03 21.813v173.84c44.703 3.426 97.01.922 125.13 17.25 8.126 4.692 11.06 5.968 18.875 5.688h.031c8.519.41 11.311-.815 19.75-5.688 28.12-16.328 80.42-13.824 125.13-17.25v-173.84h-7.781v165.81c-40.454 1.766-80.88 3.619-118.72 17.781-7.284 6.859-10.02 7-17.594 7.156-8.394-.173-10.71.003-18.313-7.156-37.844-14.162-78.3-16.01-118.75-17.781v-165.81z"/>
  <path d="m936.5 303.09c-31.71-28.79-69.68-38.77-110.72-39.58v-180.6c36.34 2.769 72.53 3.653 111.47 38.826z"/>
 </g>
</svg>
