<svg height="512" viewBox="0 0 512 512" width="512" xmlns="http://www.w3.org/2000/svg">
 <path d="m471.95 253.05c0 120.9-98.01 218.9-218.9 218.9-120.9 0-218.9-98.01-218.9-218.9 0-120.9 98.01-218.9 218.9-218.9 120.9 0 218.9 98.01 218.9 218.9" fill="#777777" fill-rule="evenodd"/>
 <path d="m207.84 73.38v17.813c-11.397 1.252-20.409 4.65-27.06 10.25-6.654 5.6-9.969 12.772-9.969 21.469 0 9.03 2.775 16.421 8.375 22.22.243.249.492.504.75.75.08.085.169.166.25.25.028.026.066.037.094.063.184.187.37.377.563.563.114.122.227.254.344.375.027.026.066.037.094.063.184.187.37.377.563.563.114.122.227.254.344.375.027.026.066.037.094.063.174.176.35.356.531.531.118.126.224.251.344.375.038.036.086.058.125.094.174.176.35.356.531.531.118.126.224.251.344.375.027.026.066.037.094.063.184.187.37.377.563.563.118.126.224.251.344.375.027.026.066.037.094.063.128.13.243.277.375.406.169.184.356.35.531.531.027.026.066.037.094.063.184.187.37.377.563.563.114.122.227.254.344.375.027.026.066.037.094.063.184.187.37.377.563.563.114.122.227.254.344.375.027.026.066.037.094.063.174.176.35.356.531.531.118.126.224.251.344.375.038.036.086.058.125.094.267.271.527.576.813.844.021.022.042.041.063.063.02.021.042.042.063.063.021.02.041.043.063.063.21.213.435.414.656.625.077.082.14.169.219.25.028.026.066.037.094.063.128.13.275.246.406.375.17.184.325.381.5.563.027.026.066.037.094.063.184.187.37.377.563.563.114.122.227.254.344.375.027.026.066.037.094.063.184.187.37.377.563.563.114.122.227.254.344.375.027.026.066.037.094.063.174.176.35.356.531.531.118.126.224.251.344.375.038.036.086.058.125.094.169.171.355.361.531.531.118.126.224.251.344.375.037.035.087.059.125.094.174.176.35.356.531.531.118.126.224.251.344.375.027.026.066.037.094.063.128.13.243.277.375.406.169.184.356.35.531.531.027.026.066.037.094.063.184.187.37.377.563.563.114.122.227.254.344.375.027.026.066.037.094.063.184.187.37.377.563.563.114.122.227.254.344.375.027.026.066.037.094.063.174.176.35.356.531.531.118.126.224.251.344.375.038.036.086.058.125.094.169.171.355.361.531.531.118.126.224.251.344.375.037.035.087.059.125.094.174.176.35.356.531.531.118.126.224.251.344.375.027.026.066.037.094.063.128.13.275.246.406.375.17.184.325.381.5.563.027.026.066.037.094.063.184.187.37.377.563.563.114.122.227.254.344.375.027.026.066.037.094.063.184.187.37.377.563.563.114.122.227.254.344.375.027.026.066.037.094.063.184.187.37.377.563.563.114.122.227.254.344.375.027.026.066.037.094.063.225.228.45.462.688.688v28.688c-6.522-.132-13.35-1.01-20.531-2.656-7.115-1.713-13.153-3.725-18.09-6.03v16.594c.321.146.667.296 1 .438v.563c.326.149.661.293 1 .438v.563c.326.149.661.293 1 .438v.563c.316.144.641.267.969.406v.563c.321.146.667.296 1 .438v.563c.321.146.667.296 1 .438v.563c.321.146.667.296 1 .438v.563c.326.149.661.293 1 .438v.563c.326.149.661.293 1 .438v.563c.316.144.641.267.969.406v.563c.321.146.667.296 1 .438v.563c.321.146.667.296 1 .438v.563c.321.146.667.296 1 .438v.563c.326.149.661.293 1 .438v.563c.326.149.661.293 1 .438v.563c.316.144.641.267.969.406v.563c.321.146.667.296 1 .438v.563c.321.146.667.296 1 .438v.563c.321.146.667.296 1 .438v.563c.321.146.667.296 1 .438v.563c.326.149.661.293 1 .438v.563c.317.145.639.297.969.438v.531h.031c.317.145.639.297.969.438v.563c.321.146.667.296 1 .438v.563c.321.146.667.296 1 .438v.563c.321.146.667.296 1 .438v.563c.326.149.661.293 1 .438v.563c.326.149.661.293 1 .438v.563c.316.144.641.267.969.406v.563c.321.146.667.296 1 .438v.563c.321.146.667.296 1 .438v.563c.321.146.667.296 1 .438v.563c.326.149.661.293 1 .438v.563c.326.149.661.293 1 .438v.563c.316.144.641.267.969.406v.563c.321.146.667.296 1 .438v.563c.321.146.667.296 1 .438v.563c.321.146.667.296 1 .438v.563c.326.149.661.293 1 .438v.563c.326.149.661.293 1 .438v.563c.317.145.639.297.969.438v.531c.321.146.667.296 1 .438v.563c.321.146.667.296 1 .438v.563c.321.146.667.296 1 .438v.563c.321.146.667.296 1 .438v.563c.326.149.661.293 1 .438v.563c.326.149.661.293 1 .438v.563c.316.144.641.267.969.406v.563c.321.146.667.296 1 .438v.563c.321.146.667.296 1 .438v.563c.321.146.667.296 1 .438v.563c.326.149.661.293 1 .438v.563c.326.149.661.293 1 .438v.563c.316.144.641.267.969.406v.563c.321.146.667.296 1 .438v.563c.321.146.667.296 1 .438v.563c.321.146.667.296 1 .438v.563c.326.149.661.293 1 .438v.563c.326.149.661.293 1 .438v.563c.316.144.641.267.969.406v.563c.321.146.667.296 1 .438v.563c.321.146.667.296 1 .438v.563c.321.146.667.296 1 .438v.563c.321.146.667.296 1 .438v.563c.326.149.661.293 1 .438v.563c.317.145.639.297.969.438v.531h.031c.317.145.639.297.969.438v.563c.321.146.667.296 1 .438v.563c.321.146.667.296 1 .438v.563c.321.146.667.296 1 .438v.563c.326.149.661.293 1 .438v.563c.326.149.661.293 1 .438v.563c.316.144.641.267.969.406v.563c.321.146.667.296 1 .438v.563c.321.146.667.296 1 .438v.563c.321.146.667.296 1 .438v.5c-1.374-.379-2.734-.744-4.125-1.063v-.156h-.719c-.094-.021-.187-.042-.281-.063v-.938h-1v-1h-1v-1h-1v-1h-.969v-.969h-1v-1h-1v-1h-1v-1h-1v-1h-1v-1h-.969v-.969h-1v-1.001h-1v-1h-1v-1h-1v-1.001h-1v-1h-.969v-.969h-1v-1h-1v-1h-1v-1h-12.969v17.813c-11.398 1.252-20.408 4.681-27.06 10.281-6.654 5.6-9.969 12.741-9.969 21.438 0 9.03 2.775 16.421 8.375 22.22.32.327.655.646 1 .969.005.008-.007.024 0 .031.028.026.066.037.094.063.284.289.57.59.875.875.012.02.015.046.031.063.027.025.066.037.094.063.265.27.529.515.813.781.021.055.052.113.094.156.017.016.046.016.063.031.279.284.545.563.844.844.021.033.035.065.063.094.028.026.066.037.094.063.27.274.555.573.844.844.021.03.036.066.063.094.027.025.067.037.094.063.277.281.547.566.844.844.023.031.035.065.063.094.017.015.046.016.063.031.285.29.569.589.875.875.023.03.036.066.063.094.016.015.046.016.063.031.283.289.571.59.875.875.023.029.036.067.063.094.016.015.046.016.063.031.249.254.485.499.75.75.047.074.125.154.188.219.006.005.026-.005.031 0 .288.295.565.584.875.875.026.032.033.064.063.094.017.016.046.016.063.031.269.274.556.573.844.844.033.042.055.085.094.125.016.015.046.016.063.031.307.313.606.661.938.969.289.295.595.584.906.875.032.039.058.088.094.125.006.005.026-.005.031 0 .282.289.571.59.875.875.033.039.058.088.094.125.005.005.026-.005.031 0 .321.328.62.677.969 1 .272.279.551.537.844.813.044.055.075.104.125.156.006.005.026-.005.031 0 .258.264.536.552.813.813.052.066.097.126.156.188.005.005.026-.005.031 0 .316.323.626.682.969 1 .319.326.653.648 1 .969.006.006-.006.025 0 .031.317.324.655.649 1 .969.006.006-.006.025 0 .031.325.332.646.673 1 1 .313.321.628.622.969.938.006.006-.006.025 0 .031.312.319.661.655 1 .969.006.006-.006.025 0 .031.32.327.651.678 1 1 .308.315.633.627.969.938.016.017.015.046.031.063.306.314.635.629.969.938.016.017.015.046.031.063.314.322.626.652.969.969.01.011.021.021.031.031.303.31.608.601.938.906.025.027.037.067.063.094.25.256.513.497.781.75v28.719c-6.522-.132-13.35-1.04-20.531-2.688-7.115-1.713-13.153-3.725-18.09-6.03v16.594c.321.146.667.296 1 .438v.563c.324.148.663.294 1 .438v.563c.321.146.666.264 1 .406v.594c.316.144.641.267.969.406v.563c.319.146.668.296 1 .438v.562c.325.148.662.294 1 .438v.563c.323.147.664.295 1 .438v.563c.327.149.66.293 1 .438v.563c.325.148.662.294 1 .438v.563c.313.143.643.268.969.406v.563c.322.147.665.295 1 .438v.563c.32.146.667.296 1 .438v.563c.323.147.663.295 1 .438v.563c.324.148.663.295 1 .438v.563c.328.149.659.293 1 .438v.563c.314.143.643.268.969.406v.563c.319.145.668.297 1 .438v.563c.322.147.664.295 1 .438v.563c.321.146.666.296 1 .438v.563c.324.148.662.295 1 .438v.563c.321.146.665.265 1 .406v.594c.316.144.639.267.969.406v.563c.319.145.668.297 1 .438v.563c.316.144.671.267 1 .406v.594c.323.147.663.295 1 .438v.563c.321.146.665.296 1 .438v.563c.325.148.661.294 1 .438v.563c.322.147.664.265 1 .406v.594c.317.145.638.267.969.406v.563c.319.146.666.297 1 .438v.563c.323.147.662.295 1 .438v.563c.324.148.661.295 1 .438v.563c.322.147.663.296 1 .438v.563c.326.149.659.294 1 .438v.563c.314.143.64.268.969.406v.563c.322.147.663.296 1 .438v.563c.32.146.665.297 1 .438v.563c.324.148.661.295 1 .438v.563c.325.148.66.295 1 .438v.563c.323.147.662.296 1 .438v.563c.315.143.64.268.969.406v.563c.319.145.666.298 1 .438v.563c.323.147.662.296 1 .438v.563c.321.146.664.297 1 .438v.563c.325.148.659.295 1 .438v.563c.322.147.662.265 1 .406v.594c.32.146.664.266 1 .406v.594c.316.144.638.268.969.406v.563c.317.144.668.299 1 .438v.563c.324.148.66.296 1 .438v.563c.322.147.662.297 1 .438v.563c.326.149.657.295 1 .438v.563c.323.147.66.265 1 .406v.594c.319.145.633.267.969.406v.563c.319.146.664.298 1 .438v.563c.317.145.666.299 1 .438v.563c.325.148.658.296 1 .438v.563c.322.147.66.297 1 .438v.563c.327.149.655.295 1 .438v.563c.315.144.637.268.969.406v.563c.323.147.66.297 1 .438v.563c.32.146.662.298 1 .438v.563c.318.145.665.299 1 .438v.563c.322.147.66.266 1 .406v.594c.32.146.663.267 1 .406v.594c.316.144.635.268.969.406v.563c.316.144.667.3 1 .438v.563c.323.147.658.297 1 .438v.563c.321.146.66.298 1 .438v.563c.326.149.655.296 1 .438v.563c.071.032.146.064.219.094 4.612.29 9.252.469 13.938.469 120.9 0 218.91-98.01 218.91-218.91 0-19.828-2.621-39.05-7.563-57.31h-.188v-.656c-.029-.105-.065-.208-.094-.313h-.906v-1h-1v-1h-1v-1h-1v-1h-1v-1h-.969v-.969h-1v-1h-1v-1h-1v-1h-1v-1h-1v-1h-1v-1h-.969v-.969h-1v-1h-1v-1h-1v-1h-1v-1h-1v-1h-.969v-.969h-1v-1h-1v-1h-1v-1h-1v-1h-1v-1h-.969v-.969h-1v-1h-1v-1h-1v-1h-1v-1h-1v-1h-.969v-.969h-1v-1h-1v-1h-1v-1h-1v-1h-1v-1h-1v-1h-.969v-.969h-1v-1h-1v-1h-1v-1h-1v-1h-1v-1h-.969v-.969h-1v-1h-1v-1h-1v-1h-1v-1h-1v-1h-.969v-.969h-1v-1h-1v-1h-1v-1h-1v-1h-1v-1h-1v-1h-.969v-.969h-1v-1h-1v-1h-1v-1h-1v-1h-1v-1h-.969v-.969h-1v-1h-1v-1h-1v-1h-1v-1h-1v-1h-.969v-.969h-1v-1h-1v-1h-1v-1h-1v-1h-1v-1h-.969v-.969h-1v-1h-1v-1h-1v-1h-1v-1h-1v-1h-1v-1h-.969v-.969h-1v-1h-1v-1h-1v-1h-1v-1h-1v-1h-.969v-.969h-1v-1h-1v-1h-1v-1h-1v-1h-1v-1h-.969v-.969h-1v-1h-1v-1h-1v-1h-1v-1h-1v-1h-1v-1h-.969v-.969h-1v-1h-1v-1h-1v-1h-1v-1h-1v-1h-.969v-.969h-1v-1h-1v-1h-1v-1h-1v-1h-1v-1h-.969v-.852h-1v-1h-1v-1h-1v-1h-1v-1h-1v-1h-.969v-.969h-1v-1h-1v-1.001h-1v-1h-77.09v34.781c-.149-.06-.289-.128-.438-.188.014-.034.188-.5.188-.5-.395-.164-.791-.341-1.188-.5.014-.034.188-.5.188-.5-.395-.164-.791-.341-1.188-.5.014-.034.188-.5.188-.5-.402-.167-.815-.307-1.219-.469.016-.039.219-.531.219-.531-.402-.167-.815-.307-1.219-.469.016-.039.219-.531.219-.531-.402-.167-.815-.307-1.219-.469.016-.039.219-.531.219-.531-.389-.162-.766-.312-1.156-.469.014-.034.188-.5.188-.5-.395-.164-.791-.341-1.188-.5.014-.034.188-.5.188-.5-.395-.164-.791-.341-1.188-.5l.188-.5c-.402-.167-.815-.307-1.219-.469l.219-.531c-5.128-2.129-10.367-3.83-15.75-5.063v-.156h-.719c-.094-.021-.187-.042-.281-.063v-.938h-1v-1h-1v-1h-1v-1h-.969v-.969h-1v-1h-1v-1h-1v-1h-1v-1h-1v-1h-.969v-.969h-1v-1h-1v-1h-1v-1h-1v-1h-1v-1h-.969v-.969h-1v-1h-1v-1h-1v-1h-12.969" fill-opacity=".235"/>
 <g fill-rule="evenodd">
  <path d="m256 1c-140.83 0-255 114.17-255 255s114.17 255 255 255 255-114.17 255-255-114.17-255-255-255m8.827 44.931c120.9 0 218.9 98 218.9 218.9s-98 218.9-218.9 218.9-218.93-98-218.93-218.9 98.03-218.9 218.93-218.9" fill-opacity=".067"/>
  <g fill-opacity=".129">
   <path d="m256 4.433c-138.94 0-251.57 112.63-251.57 251.57s112.63 251.57 251.57 251.57 251.57-112.63 251.57-251.57-112.63-251.57-251.57-251.57m5.885 38.556c120.9 0 218.9 98 218.9 218.9s-98 218.9-218.9 218.9-218.93-98-218.93-218.9 98.03-218.9 218.93-218.9"/>
   <path d="m256 8.356c-136.77 0-247.64 110.87-247.64 247.64s110.87 247.64 247.64 247.64 247.64-110.87 247.64-247.64-110.87-247.64-247.64-247.64m2.942 31.691c120.9 0 218.9 98 218.9 218.9s-98 218.9-218.9 218.9-218.93-98-218.93-218.9 98.03-218.9 218.93-218.9"/>
  </g>
  <path d="m253.04 7.859c-135.42 0-245.19 109.78-245.19 245.19 0 135.42 109.78 245.19 245.19 245.19 135.42 0 245.19-109.78 245.19-245.19 0-135.42-109.78-245.19-245.19-245.19zm0 26.297c120.9 0 218.9 98 218.9 218.9s-98 218.9-218.9 218.9-218.93-98-218.93-218.9 98.03-218.9 218.93-218.9z" fill="#ffffff" stroke="#000000" stroke-opacity=".31" stroke-width="4.904"/>
 </g>
 <g fill="#ffffff">
  <path d="m259.44 182.59c0 9.03-3.36 16.503-10.08 22.433-6.654 5.929-16.17 9.652-28.56 11.167v22.532h-12.95v-21.64c-7.511-.132-14.725-.758-21.642-1.878-6.852-1.186-12.518-2.8-16.998-4.842v-16.602c4.941 2.306 10.969 4.315 18.08 6.03 7.181 1.647 14.03 2.536 20.555 2.668v-42.3c-13.506-4.282-23.06-9.289-28.659-15.02-5.6-5.798-8.4-13.209-8.4-22.24 0-8.696 3.327-15.844 9.981-21.445 6.654-5.6 15.68-9.03 27.08-10.278v-17.792h12.946v17.59c12.517.33 24.409 2.833 35.675 7.511l-5.534 13.934c-10.212-4.02-20.259-6.39-30.14-7.115v41.703c10.541 3.558 18.381 6.918 23.52 10.08 5.205 3.162 9.03 6.786 11.463 10.871 2.438 4.02 3.656 8.894 3.656 14.626m-17.986 1.285c0-4.743-1.548-8.499-4.645-11.266-3.097-2.833-8.433-5.567-16.01-8.202v37.06c13.769-2.108 20.654-7.972 20.654-17.59m-52.574-61.17c0 4.809 1.416 8.697 4.249 11.661 2.833 2.965 7.741 5.699 14.725 8.202v-36.861c-6.193 1.054-10.904 3.064-14.13 6.03-3.228 2.965-4.842 6.621-4.842 10.969"/>
  <path d="m265.7 73.39h77.09v165.33h-77.09z" fill-opacity=".435" fill-rule="evenodd"/>
  <path d="m259.44 374c0 9.03-3.36 16.503-10.08 22.433-6.654 5.929-16.17 9.652-28.56 11.167v22.532h-12.95v-21.64c-7.511-.132-14.725-.758-21.642-1.878-6.852-1.186-12.518-2.8-16.998-4.842v-16.602c4.941 2.306 10.969 4.315 18.08 6.03 7.181 1.647 14.03 2.536 20.555 2.668v-42.3c-13.506-4.282-23.06-9.289-28.659-15.02-5.6-5.798-8.4-13.209-8.4-22.24 0-8.696 3.327-15.844 9.981-21.445 6.654-5.6 15.68-9.03 27.08-10.278v-17.788h12.946v17.59c12.517.33 24.409 2.833 35.675 7.511l-5.534 13.934c-10.212-4.02-20.259-6.39-30.14-7.115v41.703c10.541 3.558 18.381 6.918 23.52 10.08 5.205 3.162 9.03 6.786 11.463 10.871 2.438 4.02 3.656 8.894 3.656 14.626m-17.986 1.285c0-4.743-1.548-8.499-4.645-11.266-3.097-2.833-8.433-5.567-16.01-8.202v37.06c13.769-2.108 20.654-7.972 20.654-17.59m-52.574-61.17c0 4.809 1.416 8.697 4.249 11.661 2.833 2.965 7.741 5.699 14.725 8.202v-36.861c-6.193 1.054-10.904 3.064-14.13 6.03-3.228 2.965-4.842 6.621-4.842 10.969"/>
  <path d="m265.7 264.8h77.09v165.33h-77.09z" fill-opacity=".435" fill-rule="evenodd"/>
 </g>
</svg>
