<svg height="512" viewBox="0 0 512 512" width="512" xmlns="http://www.w3.org/2000/svg">
 <path d="m471.95 253.05c0 120.9-98.01 218.9-218.9 218.9-120.9 0-218.9-98.01-218.9-218.9 0-120.9 98.01-218.9 218.9-218.9 120.9 0 218.9 98.01 218.9 218.9" fill="#878787" fill-rule="evenodd"/>
 <path d="m355.99 150.06c-1.26.05-2.456.276-3.571.567-.85.222-1.652.485-2.369.768-1.22.131-2.582.692-3.871 1.835l-65.11 57.43c-3.88 3.433-7.05 10.582-5.707 15.585l2.036 7.542c-.187-.189-.398-.363-.601-.534-.308-.365-.642-.726-1-1.035-.362-.438-.768-.843-1.201-1.201-.316-.368-.633-.725-1-1.035-.333-.393-.71-.773-1.101-1.101-.326-.383-.687-.713-1.068-1.035-.332-.393-.679-.772-1.068-1.101-.343-.406-.697-.763-1.101-1.101-.327-.383-.687-.746-1.068-1.068-.316-.372-.634-.719-1-1.035-.347-.416-.725-.788-1.135-1.135-2.281-2.684-5.982-3.976-9.611-3l-36.476 9.778c-5.01 1.344-7.985 6.499-6.641 11.514l2.97 11.146c-.027-.027-.072-.04-.1-.067-.082-.095-.183-.174-.267-.267-.09-.084-.175-.184-.267-.267-.172-.182-.352-.357-.534-.534-.158-.183-.332-.355-.501-.534-.018-.016-.049-.017-.067-.033-.327-.345-.642-.678-1-1-.345-.367-.687-.725-1.068-1.068-.342-.363-.69-.728-1.068-1.068-.342-.363-.69-.728-1.068-1.068-.172-.182-.353-.357-.534-.534-.082-.095-.183-.174-.267-.267-.09-.084-.175-.184-.267-.267-.172-.182-.352-.357-.534-.534-.158-.183-.332-.355-.501-.534-.018-.016-.049-.017-.067-.033-.162-.17-.331-.335-.501-.501-.158-.183-.332-.355-.501-.534-.018-.016-.049-.017-.067-.033-.327-.345-.642-.678-1-1-.342-.363-.69-.728-1.068-1.068-.342-.363-.69-.728-1.068-1.068-2.638-2.798-6.426-4.973-9.711-5.64l-85.1-17.19c-1.696-.35-3.145-.171-4.272.334-.762.114-1.59.268-2.436.501-5.927 1.627-13.06 6.641-9.311 21.759 6.02 24.274-7 26.18-.4 50.826 6.604 24.647 18.839 19.78 25.764 43.818 1.652 5.737 3.939 9.379 6.474 11.614.351.378.706.749 1.068 1.068.347.374.71.752 1.068 1.068.347.374.71.752 1.068 1.068.275.296.553.575.834.834.419.471.833.885 1.268 1.268.261.282.501.552.768.801.439.499.911.932 1.368 1.335.347.374.71.752 1.068 1.068.347.374.71.752 1.068 1.068.275.296.553.575.834.834.419.471.833.885 1.268 1.268.358.388.699.742 1.068 1.068.356.385.701.745 1.068 1.068.347.374.71.752 1.068 1.068.347.374.71.752 1.068 1.068.275.296.553.575.834.834.419.471.833.885 1.268 1.268.358.388.699.742 1.068 1.068.358.388.699.742 1.068 1.068.347.374.71.752 1.068 1.068.347.374.71.752 1.068 1.068.347.374.71.752 1.068 1.068.347.374.676.719 1.035 1.035.358.388.699.742 1.068 1.068.358.388.699.742 1.068 1.068.351.378.706.749 1.068 1.068.347.374.71.752 1.068 1.068.347.374.71.752 1.068 1.068.275.296.553.575.834.834.419.471.833.885 1.268 1.268.261.282.501.552.768.801.439.499.911.932 1.368 1.335.347.374.71.752 1.068 1.068.347.374.71.752 1.068 1.068.275.296.553.575.834.834.419.471.833.885 1.268 1.268.358.388.699.742 1.068 1.068.356.385.701.745 1.068 1.068.347.374.71.752 1.068 1.068.347.374.71.752 1.068 1.068.347.374.71.752 1.068 1.068.347.374.676.719 1.035 1.035.358.388.699.742 1.068 1.068.358.388.699.742 1.068 1.068.351.378.706.749 1.068 1.068.347.374.71.752 1.068 1.068.347.374.71.752 1.068 1.068.275.296.553.575.834.834.419.471.833.885 1.268 1.268.358.388.699.742 1.068 1.068.351.378.706.749 1.068 1.068.347.374.71.752 1.068 1.068.347.374.71.752 1.068 1.068.275.296.553.575.834.834.419.471.833.885 1.268 1.268.358.388.699.742 1.068 1.068.356.385.701.745 1.068 1.068.347.374.71.752 1.068 1.068.347.374.71.752 1.068 1.068.275.296.553.575.834.834.419.471.833.885 1.268 1.268.358.388.699.742 1.068 1.068.358.388.699.742 1.068 1.068.347.374.71.752 1.068 1.068.347.374.71.752 1.068 1.068.347.374.71.752 1.068 1.068.347.374.676.719 1.035 1.035.358.388.699.742 1.068 1.068.358.388.699.742 1.068 1.068.351.378.706.749 1.068 1.068.347.374.71.752 1.068 1.068.347.374.71.752 1.068 1.068.275.296.553.575.834.834.419.471.833.885 1.268 1.268.261.282.501.552.768.801.439.499.911.932 1.368 1.335.347.374.71.752 1.068 1.068.347.374.71.752 1.068 1.068.275.296.553.575.834.834.419.471.833.885 1.268 1.268.358.388.699.742 1.068 1.068.356.385.701.745 1.068 1.068.347.374.71.752 1.068 1.068.347.374.71.752 1.068 1.068.347.374.71.752 1.068 1.068.347.374.676.719 1.035 1.035.358.388.699.742 1.068 1.068.358.388.699.742 1.068 1.068.347.374.71.752 1.068 1.068.347.374.71.752 1.068 1.068.347.374.71.752 1.068 1.068.275.296.553.575.834.834.419.471.833.885 1.268 1.268.358.388.699.742 1.068 1.068.351.378.706.749 1.068 1.068.347.374.71.752 1.068 1.068.347.374.71.752 1.068 1.068.275.296.553.575.834.834.419.471.833.885 1.268 1.268.358.388.699.742 1.068 1.068.356.385.701.745 1.068 1.068.347.374.71.752 1.068 1.068.347.374.71.752 1.068 1.068.275.296.553.575.834.834.419.471.833.885 1.268 1.268.358.388.699.742 1.068 1.068.356.385.701.745 1.068 1.068.347.374.71.752 1.068 1.068.347.374.71.752 1.068 1.068.347.374.71.752 1.068 1.068.347.374.676.719 1.035 1.035.358.388.699.742 1.068 1.068.358.388.699.742 1.068 1.068.351.378.706.749 1.068 1.068.347.374.71.752 1.068 1.068.347.374.71.752 1.068 1.068.275.296.553.575.834.834.419.471.833.885 1.268 1.268.261.282.501.552.768.801.439.499.911.932 1.368 1.335.347.374.71.752 1.068 1.068.347.374.71.752 1.068 1.068.275.296.553.575.834.834.419.471.833.885 1.268 1.268.358.388.699.742 1.068 1.068.322.349.639.669.968.968 114.13-8.211 205.56-98.35 215.79-211.92-.339-.382-.676-.689-1.035-.968-.369-.433-.742-.762-1.135-1.068-.383-.449-.76-.857-1.168-1.168-.34-.388-.709-.721-1.068-1-.36-.423-.752-.77-1.135-1.068-.355-.417-.724-.774-1.101-1.068-.369-.438-.774-.798-1.168-1.101-.37-.434-.741-.802-1.135-1.101-.354-.416-.725-.744-1.101-1.035-.404-.481-.801-.886-1.235-1.201-.332-.38-.682-.699-1.035-.968-.407-.484-.797-.888-1.235-1.201-.322-.368-.66-.673-1-.934-.406-.487-.798-.922-1.235-1.235-.33-.377-.684-.704-1.035-.968-.398-.475-.806-.863-1.235-1.168-.233-.268-.457-.525-.701-.734-.192-.201-.406-.377-.601-.567-.384-.433-.775-.851-1.168-1.235-.391-.442-.768-.877-1.168-1.268-.351-.395-.709-.78-1.068-1.135-.411-.469-.846-.89-1.268-1.302-.436-.493-.853-.972-1.302-1.402-.322-.357-.64-.712-.968-1.035-.399-.454-.825-.869-1.235-1.268-.401-.454-.79-.903-1.201-1.302-.431-.485-.859-.947-1.302-1.368-.309-.342-.619-.692-.934-1-.44-.502-.882-.967-1.335-1.402-.336-.375-.658-.765-1-1.101-.424-.483-.866-.916-1.302-1.335-.368-.413-.725-.836-1.101-1.201-.397-.449-.794-.875-1.201-1.268-.216-.243-.448-.475-.667-.701-.068-.082-.132-.154-.2-.234l-.067-.067c-.513-.597-1.037-1.135-1.568-1.635-.174-.192-.358-.386-.534-.567-.068-.082-.132-.153-.2-.234-.057-.057-.11-.111-.167-.167-.259-.297-.537-.563-.801-.834-.067-.081-.133-.154-.2-.234l-.067-.067c-.443-.514-.911-.995-1.368-1.435-.394-.446-.763-.88-1.168-1.268-.237-.268-.493-.521-.734-.768-.549-.659-1.131-1.227-1.702-1.769-.224-.25-.44-.503-.667-.734-.058-.07-.108-.132-.167-.2-.051-.051-.115-.083-.167-.133-.278-.319-.55-.613-.834-.901-.057-.068-.11-.133-.167-.2-.051-.051-.115-.084-.167-.133-.282-.322-.58-.643-.868-.934-.058-.07-.108-.132-.167-.2-.053-.052-.114-.083-.167-.133-.277-.317-.551-.615-.834-.901-.058-.069-.109-.133-.167-.2-.029-.029-.071-.038-.1-.067-.442-.51-.879-1-1.335-1.435-.419-.47-.837-.931-1.268-1.335-.218-.242-.446-.477-.667-.701-.057-.068-.109-.133-.167-.2-.035-.034-.065-.066-.1-.1-.292-.335-.602-.667-.901-.968-.058-.069-.109-.133-.167-.2-.035-.034-.065-.066-.1-.1-.433-.496-.888-.946-1.335-1.368-.257-.288-.506-.573-.768-.834-.047-.056-.086-.112-.133-.167-.057-.056-.109-.112-.167-.167-.279-.317-.583-.616-.868-.901-.057-.068-.109-.133-.167-.2-.053-.052-.113-.083-.167-.133-.284-.321-.578-.646-.868-.934-.048-.057-.085-.111-.133-.167-.046-.045-.087-.089-.133-.133-.295-.336-.599-.634-.901-.934-.047-.056-.086-.112-.133-.167-.035-.034-.065-.067-.1-.1-.306-.351-.621-.689-.934-1-.047-.056-.086-.112-.133-.167-.053-.051-.114-.083-.167-.133-.29-.33-.604-.64-.901-.934-.048-.056-.086-.111-.133-.167-.053-.051-.114-.083-.167-.133-.294-.333-.567-.671-.868-.968-.38-.45-.776-.847-1.168-1.235-.048-.056-.086-.112-.133-.167-.047-.046-.086-.089-.133-.133-.303-.343-.624-.663-.934-.968-.038-.044-.063-.09-.1-.133-.041-.04-.092-.061-.133-.1-.311-.355-.616-.687-.934-1-.383-.453-.772-.879-1.168-1.268-.387-.457-.802-.843-1.201-1.235-.038-.044-.062-.09-.1-.133-.035-.034-.065-.067-.1-.1-.324-.369-.636-.71-.968-1.035-.38-.448-.775-.85-1.168-1.235-.332-.391-.693-.726-1.035-1.068-.436-.526-.882-.995-1.335-1.435-.383-.45-.773-.85-1.168-1.235-.037-.043-.063-.091-.1-.133-.053-.051-.114-.084-.167-.133-.248-.279-.514-.549-.768-.801-.435-.523-.883-.999-1.335-1.435-.386-.452-.769-.883-1.168-1.268-.385-.45-.77-.852-1.168-1.235-.385-.45-.804-.886-1.201-1.268-.383-.448-.772-.854-1.168-1.235-.329-.384-.662-.734-1-1.068-.439-.526-.912-.999-1.368-1.435-.027-.031-.04-.069-.067-.1-.036-.033-.065-.067-.1-.1-.334-.377-.658-.741-1-1.068-.337-.392-.687-.729-1.035-1.068-.432-.514-.885-1.01-1.335-1.435-.388-.451-.766-.854-1.168-1.235-.339-.393-.685-.729-1.035-1.068-.435-.517-.883-1.01-1.335-1.435-.332-.385-.658-.736-1-1.068-.394-.469-.793-.875-1.201-1.268-.438-.518-.879-1.01-1.335-1.435-.34-.393-.684-.731-1.035-1.068-.35-.413-.706-.782-1.068-1.135-.468-.563-.946-1.081-1.435-1.535-.392-.451-.762-.859-1.168-1.235-.295-.339-.598-.639-.901-.934-.475-.574-.971-1.109-1.468-1.569-.335-.384-.655-.739-1-1.068-.391-.462-.795-.85-1.201-1.235-.394-.464-.792-.917-1.201-1.302-.38-.446-.773-.829-1.168-1.201-3.205-3.767-6.965-4.841-10.379-4.706" fill-opacity=".235"/>
 <g fill-rule="evenodd">
  <path d="m256 1c-140.83 0-255 114.17-255 255s114.17 255 255 255 255-114.17 255-255-114.17-255-255-255m8.827 44.931c120.9 0 218.9 98 218.9 218.9s-98 218.9-218.9 218.9-218.93-98-218.93-218.9 98.03-218.9 218.93-218.9" fill-opacity=".067"/>
  <g fill-opacity=".129">
   <path d="m256 4.433c-138.94 0-251.57 112.63-251.57 251.57s112.63 251.57 251.57 251.57 251.57-112.63 251.57-251.57-112.63-251.57-251.57-251.57m5.885 38.556c120.9 0 218.9 98 218.9 218.9s-98 218.9-218.9 218.9-218.93-98-218.93-218.9 98.03-218.9 218.93-218.9"/>
   <path d="m256 8.356c-136.77 0-247.64 110.87-247.64 247.64s110.87 247.64 247.64 247.64 247.64-110.87 247.64-247.64-110.87-247.64-247.64-247.64m2.942 31.691c120.9 0 218.9 98 218.9 218.9s-98 218.9-218.9 218.9-218.93-98-218.93-218.9 98.03-218.9 218.93-218.9"/>
  </g>
  <path d="m253.04 7.859c-135.42 0-245.19 109.78-245.19 245.19 0 135.42 109.78 245.19 245.19 245.19 135.42 0 245.19-109.78 245.19-245.19 0-135.42-109.78-245.19-245.19-245.19zm0 26.297c120.9 0 218.9 98 218.9 218.9s-98 218.9-218.9 218.9-218.93-98-218.93-218.9 98.03-218.9 218.93-218.9z" fill="#ffffff" stroke="#000000" stroke-opacity=".31" stroke-width="4.904"/>
 </g>
 <g fill="#ffffff" transform="matrix(6.1008 -1.6347 1.6347 6.1008 46.707 119.9)">
  <path d="m28 23.815h-5.985c-.822 0-1.489.667-1.489 1.489v5.984c0 .823.667 1.489 1.489 1.489h5.985c.822 0 1.489-.666 1.489-1.489v-5.984c0-.823-.666-1.489-1.489-1.489"/>
  <path d="m17.898 23.483l-12.311-6.113c-.245-.123-.48-.157-.673-.126-.97-.11-2.655.105-2.707 2.923-.074 3.959-2.141 3.717-2.141 7.757s2.067 3.796 2.141 7.756c.056 3.02 1.995 3.052 2.909 2.896.132-.004.275-.029.432-.092l12.3-4.851c.762-.305 1.559-1.222 1.559-2.041v-5.955c0-.819-.774-1.788-1.509-2.154"/>
  <path d="m47.811 20.17c-.052-2.817-1.737-3.03-2.707-2.923-.192-.03-.428.004-.672.126l-12.313 6.114c-.734.366-1.509 1.334-1.509 2.154v5.955c0 .819.796 1.736 1.559 2.041l12.3 4.851c.157.063.3.088.434.092.913.156 2.853.129 2.908-2.896.073-3.96 2.141-3.717 2.141-7.756-.001-4.04-2.068-3.799-2.141-7.758"/>
 </g>
</svg>
