<svg height="512" viewBox="0 0 512 512" width="512" xmlns="http://www.w3.org/2000/svg">
 <path d="m471.95 253.05c0 120.9-98.01 218.9-218.9 218.9-120.9 0-218.9-98.01-218.9-218.9 0-120.9 98.01-218.9 218.9-218.9 120.9 0 218.9 98.01 218.9 218.9" fill="#878787" fill-rule="evenodd"/>
 <path d="m292.53 130.5c-6.196.069-7.966.636-11.844 2.031-42.09 17.368-82.57 34.552-133.31 49.03-12.145 2.853-17.249 9.394-15.375 19.688 0 0 9.219 88.08 9.219 93.31 0 .82.155 2.237.344 3.875-.415.182-.835.381-1.25.563l1.719 12.781c.254-.105.516-.23.781-.344l.188 1.344c.15-.062.312-.12.469-.188.511 3.746.997 7.521 1.344 11.03-.411.18-.84.351-1.25.531.299 4.658.562 9.296-.125 13.813.371-.154.776-.311 1.156-.469-.053.494-.113.978-.188 1.469.012-.005.019-.026.031-.031-1.982 11.557-7.07 31.33-7.844 34.438-.924 3.695.014 6.152.938 8 .059.119.234.144.531.094.138.32.293.618.438.906.061.122.281.15.594.094.136.314.265.623.406.906.061.122.281.15.594.094.133.307.268.629.406.906.061.122.281.15.594.094.133.307.268.598.406.875.063.126.265.156.594.094.136.315.264.622.406.906.063.126.262.158.594.094.136.315.264.622.406.906.059.119.233.144.531.094.138.32.293.618.438.906.061.122.281.15.594.094.136.314.265.623.406.906.061.122.281.15.594.094.136.314.265.623.406.906.061.122.281.15.594.094.133.307.268.598.406.875.063.126.265.157.594.094.136.315.264.622.406.906.063.126.262.158.594.094.136.315.264.622.406.906.06.119.233.144.531.094.138.32.293.618.438.906.059.119.265.144.563.094.138.32.293.618.438.906.061.122.281.15.594.094.136.314.265.623.406.906.061.122.281.15.594.094.133.307.268.629.406.906.061.122.281.15.594.094.133.307.268.598.406.875.063.126.262.158.594.094.136.315.264.622.406.906.063.126.262.158.594.094.136.315.264.622.406.906.059.119.234.144.531.094.138.32.293.618.438.906.061.122.281.15.594.094.136.314.265.623.406.906.061.122.281.15.594.094.133.307.268.629.406.906.061.122.281.15.594.094.133.307.268.598.406.875.063.126.265.157.594.094.136.315.264.622.406.906.063.126.262.158.594.094.136.315.264.622.406.906.059.119.234.144.531.094.138.32.293.618.438.906.061.122.281.15.594.094.136.314.265.623.406.906.061.122.281.15.594.094.133.307.268.629.406.906.061.122.281.15.594.094.133.307.268.598.406.875.063.126.265.157.594.094.136.315.264.622.406.906.063.126.262.158.594.094.136.315.264.622.406.906.06.119.233.144.531.094.138.32.293.618.438.906.061.122.281.15.594.094.136.314.265.623.406.906.061.122.281.15.594.094.136.314.265.623.406.906.061.122.281.15.594.094.133.307.268.598.406.875.061.122.281.181.594.125.133.306.268.599.406.875.063.126.262.158.594.094.136.315.264.622.406.906.061.122.249.15.563.094.137.32.262.619.406.906.06.119.265.144.563.094.138.32.293.618.438.906.061.122.281.15.594.094.136.314.265.623.406.906.061.122.281.15.594.094.133.307.268.629.406.906.061.122.281.15.594.094.133.307.268.598.406.875.063.126.262.158.594.094.136.315.264.622.406.906.063.126.262.158.594.094.136.315.264.622.406.906.06.119.234.144.531.094.138.32.293.618.438.906.061.122.281.15.594.094.136.314.265.623.406.906.061.122.281.15.594.094.133.307.268.629.406.906.061.122.281.15.594.094.133.307.268.598.406.875.063.126.264.157.594.094.136.315.264.622.406.906.063.126.262.158.594.094.136.315.264.622.406.906.06.119.233.144.531.094.138.32.293.618.438.906.061.122.281.15.594.094.136.314.265.623.406.906.061.122.281.15.594.094.133.307.268.629.406.906.061.122.281.15.594.094.133.307.268.598.406.875.063.126.264.157.594.094.136.315.264.622.406.906.063.126.262.158.594.094.136.315.264.622.406.906.06.119.233.144.531.094.138.32.293.618.438.906.06.119.265.144.563.094.138.32.293.618.438.906.061.122.281.15.594.094.136.314.265.623.406.906.061.122.281.15.594.094.133.307.268.629.406.906.061.122.281.15.594.094.133.307.268.598.406.875.063.126.262.158.594.094.136.315.264.622.406.906.061.122.249.15.563.094.137.32.294.619.438.906.06.119.234.144.531.094.138.32.293.618.438.906.061.122.281.15.594.094.136.314.265.623.406.906.061.122.281.15.594.094.133.307.268.629.406.906.061.122.281.15.594.094.133.307.268.598.406.875.063.126.264.157.594.094.136.315.264.622.406.906.063.126.262.158.594.094.136.315.264.622.406.906.06.119.234.144.531.094.138.32.293.618.438.906.061.122.281.15.594.094.136.314.265.623.406.906.061.122.281.15.594.094.133.307.268.629.406.906.061.122.281.15.594.094.133.307.268.598.406.875.063.126.264.157.594.094.136.315.264.622.406.906.063.126.262.158.594.094.136.315.264.622.406.906.06.119.233.144.531.094.138.32.293.618.438.906.061.122.281.15.594.094.136.314.265.623.406.906.061.122.281.15.594.094.136.314.265.623.406.906.061.122.281.15.594.094.133.307.268.598.406.875.061.122.281.181.594.125.133.306.268.599.406.875.063.126.262.158.594.094.136.315.264.622.406.906.06.119.233.144.531.094.138.32.293.618.438.906.06.119.265.144.563.094.138.32.293.618.438.906.061.122.281.15.594.094.136.314.265.623.406.906.061.122.281.15.594.094.133.307.268.629.406.906.061.122.281.15.594.094.133.307.268.598.406.875.063.126.262.158.594.094.136.315.264.622.406.906.063.126.262.158.594.094.136.315.264.622.406.906.06.119.233.144.531.094.138.32.293.618.438.906.061.122.281.15.594.094.052.119.106.227.156.344 8.6 1.027 17.343 1.594 26.22 1.594 107.73 0 197.3-77.82 215.53-180.31-.22-.277-.453-.519-.719-.688-.31-.465-.656-.83-1.063-1.063-.295-.422-.619-.782-1-1-.293-.419-.623-.751-1-.969-.296-.429-.617-.778-1-1-.296-.429-.617-.778-1-1-.271-.389-.564-.72-.906-.938-.304-.456-.665-.798-1.063-1.031-.299-.432-.613-.81-1-1.031-.295-.422-.619-.782-1-1-.293-.419-.623-.751-1-.969-.29-.419-.596-.779-.969-1-.275-.4-.588-.716-.938-.938-.299-.448-.643-.798-1.031-1.031-.304-.446-.636-.805-1.031-1.031-.295-.422-.619-.782-1-1-.293-.419-.623-.751-1-.969-.29-.419-.596-.779-.969-1-.291-.423-.626-.746-1-.969-.278-.407-.584-.744-.938-.969-.31-.465-.656-.83-1.063-1.063-.295-.422-.619-.782-1-1-.293-.419-.623-.751-1-.969-.296-.429-.617-.778-1-1-.296-.429-.617-.778-1-1-.271-.389-.564-.72-.906-.938-.304-.456-.665-.798-1.063-1.031-.299-.432-.613-.81-1-1.031-.295-.422-.619-.782-1-1-.293-.419-.623-.751-1-.969-.29-.419-.596-.779-.969-1-.275-.4-.588-.716-.938-.938-.304-.456-.665-.798-1.063-1.031-.299-.432-.613-.81-1-1.031-.295-.422-.619-.782-1-1-.293-.419-.623-.751-1-.969-.29-.419-.596-.779-.969-1-.275-.4-.588-.716-.938-.938-.299-.448-.643-.798-1.031-1.031-.304-.446-.636-.805-1.031-1.031-.295-.422-.619-.782-1-1-.293-.419-.623-.751-1-.969-.296-.429-.617-.778-1-1-.289-.418-.597-.747-.969-.969-.278-.407-.584-.744-.938-.969-.31-.465-.656-.83-1.063-1.063-.295-.422-.619-.782-1-1-.293-.419-.623-.751-1-.969-.296-.429-.617-.778-1-1-.296-.429-.617-.778-1-1-.271-.389-.564-.72-.906-.938-.304-.456-.665-.798-1.063-1.031-.299-.432-.613-.81-1-1.031-.295-.422-.619-.782-1-1-.293-.419-.623-.751-1-.969-.29-.419-.596-.779-.969-1-.275-.4-.588-.716-.938-.938-.299-.448-.643-.798-1.031-1.031-.304-.446-.636-.805-1.031-1.031-.295-.422-.619-.782-1-1-.293-.419-.623-.751-1-.969-.29-.419-.596-.779-.969-1-.291-.423-.626-.746-1-.969-.278-.407-.584-.744-.938-.969-.31-.465-.656-.83-1.063-1.063-.295-.422-.619-.782-1-1-.293-.419-.623-.751-1-.969-.296-.429-.617-.778-1-1-.296-.429-.617-.778-1-1-.271-.389-.564-.72-.906-.938-.304-.456-.665-.798-1.063-1.031-.299-.432-.613-.81-1-1.031-.295-.422-.619-.782-1-1-.293-.419-.623-.751-1-.969-.296-.429-.617-.778-1-1-.271-.389-.564-.72-.906-.938-.304-.456-.665-.798-1.063-1.031-.299-.432-.613-.81-1-1.031-.295-.422-.619-.782-1-1-.293-.419-.623-.751-1-.969-.29-.419-.596-.779-.969-1-.275-.4-.588-.716-.938-.938-.299-.448-.643-.798-1.031-1.031-.304-.446-.636-.805-1.031-1.031-.295-.422-.619-.782-1-1-.293-.419-.623-.751-1-.969-.296-.429-.617-.778-1-1-.289-.418-.597-.747-.969-.969-.278-.407-.584-.744-.938-.969-.31-.465-.656-.83-1.063-1.063-.295-.422-.619-.782-1-1-.293-.419-.623-.751-1-.969-.296-.429-.617-.778-1-1-.296-.429-.617-.778-1-1-.271-.389-.564-.72-.906-.938-.304-.456-.665-.798-1.063-1.031-.299-.432-.613-.81-1-1.031-.295-.422-.619-.782-1-1-.293-.419-.623-.751-1-.969-.29-.419-.596-.779-.969-1-.275-.4-.588-.716-.938-.938-.436-.653-.952-1.098-1.594-1.281-.831-.238-1.955.045-3.25.688-.401-.433-.823-.859-1.25-1.25-.325-.339-.659-.688-1-1-.221-.231-.459-.438-.688-.656-.431-.469-.851-.922-1.313-1.344-.334-.348-.649-.68-1-1-.323-.337-.629-.657-.969-.969-.325-.339-.659-.688-1-1-.325-.339-.659-.688-1-1-.221-.231-.459-.438-.688-.656-.321-.349-.662-.678-1-1-.431-.469-.851-.922-1.313-1.344-.323-.337-.629-.657-.969-.969-.325-.339-.659-.688-1-1-.325-.339-.659-.688-1-1-.325-.339-.659-.688-1-1-.221-.231-.459-.438-.688-.656-.431-.469-.851-.922-1.313-1.344-.323-.337-.629-.657-.969-.969-.325-.339-.659-.688-1-1-.325-.339-.659-.688-1-1-.325-.339-.659-.688-1-1-.221-.231-.459-.438-.688-.656-.431-.469-.851-.922-1.313-1.344-.329-.343-.655-.653-1-.969-.041-.043-.084-.083-.125-.125-.011-.01-.02-.021-.031-.031-.275-.281-.526-.581-.813-.844-.325-.339-.659-.688-1-1-.325-.339-.659-.688-1-1-.221-.231-.459-.438-.688-.656-.431-.469-.851-.922-1.313-1.344-.334-.348-.649-.68-1-1-.323-.337-.629-.657-.969-.969-.325-.339-.659-.688-1-1-.325-.339-.659-.688-1-1-.221-.231-.459-.438-.688-.656-.321-.349-.662-.678-1-1-.431-.469-.851-.922-1.313-1.344-.323-.337-.629-.657-.969-.969-.325-.339-.659-.688-1-1-.325-.339-.659-.688-1-1-.325-.339-.659-.688-1-1-.221-.231-.459-.438-.688-.656-.431-.469-.851-.922-1.313-1.344-.329-.343-.655-.653-1-.969-.021-.021-.042-.041-.063-.063-.022-.02-.04-.043-.063-.063-.285-.292-.547-.603-.844-.875-.325-.339-.659-.688-1-1-.325-.339-.659-.688-1-1-.221-.231-.459-.438-.688-.656-.431-.469-.851-.922-1.313-1.344-.334-.348-.649-.68-1-1-.323-.337-.629-.657-.969-.969-.325-.339-.659-.688-1-1-.325-.339-.659-.688-1-1-.221-.231-.459-.438-.688-.656-5.2-5.659-12.75-7.775-18.281-7.719" fill-opacity=".235"/>
 <g fill-rule="evenodd">
  <path d="m256 1c-140.83 0-255 114.17-255 255s114.17 255 255 255 255-114.17 255-255-114.17-255-255-255m8.827 44.931c120.9 0 218.9 98 218.9 218.9s-98 218.9-218.9 218.9-218.93-98-218.93-218.9 98.03-218.9 218.93-218.9" fill-opacity=".067"/>
  <g fill-opacity=".129">
   <path d="m256 4.433c-138.94 0-251.57 112.63-251.57 251.57s112.63 251.57 251.57 251.57 251.57-112.63 251.57-251.57-112.63-251.57-251.57-251.57m5.885 38.556c120.9 0 218.9 98 218.9 218.9s-98 218.9-218.9 218.9-218.93-98-218.93-218.9 98.03-218.9 218.93-218.9"/>
   <path d="m256 8.356c-136.77 0-247.64 110.87-247.64 247.64s110.87 247.64 247.64 247.64 247.64-110.87 247.64-247.64-110.87-247.64-247.64-247.64m2.942 31.691c120.9 0 218.9 98 218.9 218.9s-98 218.9-218.9 218.9-218.93-98-218.93-218.9 98.03-218.9 218.93-218.9"/>
  </g>
  <path d="m253.04 7.859c-135.42 0-245.19 109.78-245.19 245.19 0 135.42 109.78 245.19 245.19 245.19 135.42 0 245.19-109.78 245.19-245.19 0-135.42-109.78-245.19-245.19-245.19zm0 26.297c120.9 0 218.9 98 218.9 218.9s-98 218.9-218.9 218.9-218.93-98-218.93-218.9 98.03-218.9 218.93-218.9z" fill="#ffffff" stroke="#000000" stroke-opacity=".31" stroke-width="4.904"/>
 </g>
 <path d="m292.52 130.5c-6.196.069-7.966.636-11.844 2.031-42.09 17.368-82.57 34.552-133.31 49.03-12.145 2.853-17.249 9.394-15.375 19.688 0 0 9.219 88.08 9.219 93.31 0 .82.155 2.237.344 3.875-.415.182-.835.381-1.25.563l1.719 12.781c.404-.167.843-.362 1.25-.531.576 4.184 1.143 8.443 1.531 12.375-.411.18-.84.351-1.25.531.299 4.658.562 9.296-.125 13.813.412-.171.866-.359 1.281-.531-1.775 11.269-7.316 32.701-8.125 35.938-.924 3.695.014 6.152.938 8 .924 1.847 32.18-17.678 45.03-27.438 4.572-3.472 13-8.943 23.594-15.5l144.16-81.53s30.06-19.16 30.06-20.906c0-1.741.776-12.05-5.438-24.625-5.061-10.239-4.425-20.11-8.188-21.19-3.2-.915-10.444 5.886-17.12 11.25-.139-.257-.297-.522-.438-.781l-.813-1.531c-.013.007-.019.024-.031.031-8.818-15.981-21.08-34.7-35.75-58.75-5.117-7.317-13.867-9.969-20.06-9.906" fill="#ffffff"/>
</svg>
