<svg height="512" viewBox="0 0 512 512" width="512" xmlns="http://www.w3.org/2000/svg">
 <g transform="translate(-231.54 -163.82)">
  <path d="m703.49 416.87c0 120.9-98.01 218.9-218.9 218.9-120.9 0-218.9-98.01-218.9-218.9 0-120.9 98.01-218.9 218.9-218.9 120.9 0 218.9 98.01 218.9 218.9" fill="#8f8f8f" fill-rule="evenodd"/>
  <g transform="translate(231.54 163.82)">
   <path d="m274.41 86.75l-41.28 12.03.5 1.719-.375-.188-75.78 143.84h-123.12c-.118 2.951-.219 5.926-.219 8.906 0 15.442 1.615 30.492 4.656 45.03h.563v1h1v1h1v1h1v1h .969v.969h1v1h1v1h1v1h1v1h1v1h .969v.969h1v1h1v1h1v1h1v1h1v1h1v1h .969v.969h1v1h1v1h1v1h1v1h1v1h .969v.969h1v1h1v1h1v1h1v1h1v1h .964v.969h1v1h1v1h1v1h1v1h1v1h1v1h .969v.969h1v1h1v1h1v1h1v1h1v1h .969v.969h1v1h1v1h1v1h1v1h1v1h .969v.969h1v1h1v1h1v1h1v1h1v1h .969v.969h1v1h1v1h1v1h1v1h1v1h1v1h .969v.969h1v1h1v1h1v1h1v1h1v1h .969v.969h1v1h1v1h1v1h1v1h1v1h .969v.969h1v1h1v1h1v1h1v1h1v1h1v1h .969v.969h1v1h1v1h1v1h1v1h1v1h .969v.969h1v1h1v1h1v1h1v1h1v1h .969v.969h1v1h1v1h1v1h1v1h1v1h .969v.969h1v1h1v1h1v1h1v1h1v1h1v1h .969v.969h1v1h1v1h1v1h1v1h1v1h .969v.969h1v1h1v1h1v1h1v1h1v1h .969v.969h1v1h1v1h1v1h1v1h1v1h1v1h .969v.969h1v1h1v1h1v1h1v1h1v1h .969v.969h1v1h1v1h1v1h1v1h1v1h .969v.969h1v1h1v1h1v1h1v1h1v1h .969v.969h1v1h1v1h1v1h1v1h1v1h1v1h .969v.969h1v1h1v1h1v1h1v1h1v1h .969v.969h1v1h1v1h1v1h1v1h1v1h .969v.969h1v1h1v1h1v1h1v1h1v1h1v1h .969v.969h1v .938c.094.02.188.043.281.063h.719v.156c14.385 2.974 29.26 4.563 44.531 4.563 112.9 0 205.82-85.48 217.63-195.25h-6.938c-.002-.007-.25-.906-.25-.906l-.656.188c-.003-.012-.344-1.188-.344-1.188l-.656.188c-.003-.012-.344-1.188-.344-1.188l-.656.188c-.003-.012-.344-1.188-.344-1.188l-.656.188-.344-1.188-.625.188c-.003-.011-.344-1.156-.344-1.156l-.656.188c-.003-.012-.344-1.188-.344-1.188l-.656.188c-.003-.012-.344-1.188-.344-1.188l-.656.188c-.003-.012-.344-1.188-.344-1.188l-.656.188c-.003-.012-.344-1.188-.344-1.188l-.656.188c-.003-.012-.344-1.188-.344-1.188l-.625.188c-.003-.011-.344-1.156-.344-1.156l-.656.188c-.003-.012-.344-1.188-.344-1.188l-.656.188c-.003-.012-.344-1.188-.344-1.188l-.656.188c-.003-.012-.344-1.188-.344-1.188l-.656.188c-.003-.012-.344-1.188-.344-1.188l-.656.188-.344-1.188-.656.188-.344-1.188-.625.188-.344-1.156-.656.188c-.003-.012-.344-1.188-.344-1.188l-.656.188c-.003-.012-.344-1.188-.344-1.188l-.656.188c-.003-.012-.344-1.188-.344-1.188l-.656.188c-.003-.012-.344-1.188-.344-1.188l-.656.188c-.003-.012-.344-1.188-.344-1.188l-.625.188c-.003-.011-.344-1.156-.344-1.156l-.656.188-.344-1.188-.656.188-.344-1.188-.656.188c-.003-.012-.344-1.188-.344-1.188l-.656.188c-.003-.012-.344-1.188-.344-1.188l-.656.188c-.003-.012-.344-1.188-.344-1.188l-.625.188-.344-1.156-.656.188-.344-1.188-.656.188-.344-1.188-.656.188c-.003-.012-.344-1.188-.344-1.188l-.656.188c-.003-.012-.344-1.188-.344-1.188l-.656.188c-.003-.012-.344-1.188-.344-1.188l-.656.188c-.003-.012-.344-1.188-.344-1.188l-.625.188c-.003-.011-.344-1.156-.344-1.156l-.656.188-.344-1.188-.656.188c-.003-.012-.344-1.188-.344-1.188l-.656.188c-.003-.012-.344-1.188-.344-1.188l-.656.188c-.003-.012-.344-1.188-.344-1.188l-.656.188c-.003-.012-.344-1.188-.344-1.188l-.625.188c-.003-.011-.344-1.156-.344-1.156l-.656.188c-.003-.012-.344-1.188-.344-1.188l-.656.188-.344-1.188-.656.188-.344-1.188-.656.188c-.003-.012-.344-1.188-.344-1.188l-.656.188c-.003-.012-.344-1.188-.344-1.188l-.625.188c-.003-.011-.344-1.156-.344-1.156l-.656.188c-.003-.012-.344-1.188-.344-1.188l-.656.188c-.003-.012-.344-1.188-.344-1.188l-.656.188-.344-1.188-.656.188-.344-1.188-.656.188c-.003-.012-.344-1.188-.344-1.188l-.625.188c-.003-.011-.344-1.156-.344-1.156l-.656.188c-.003-.012-.344-1.188-.344-1.188l-.656.188c-.003-.012-.344-1.188-.344-1.188l-.656.188c-.003-.012-.344-1.188-.344-1.188l-.656.188-.344-1.188-.656.188-.344-1.188-.656.188c-.003-.012-.344-1.188-.344-1.188l-.625.188c-.003-.011-.344-1.156-.344-1.156l-.656.188c-.003-.012-.344-1.188-.344-1.188l-.656.188c-.003-.012-.344-1.188-.344-1.188l-.656.188c-.003-.012-.344-1.188-.344-1.188l-.656.188-.344-1.188-.656.188-.344-1.188-.625.188c-.003-.011-.344-1.156-.344-1.156l-.656.188c-.003-.012-.344-1.188-.344-1.188l-.656.188c-.003-.012-.344-1.188-.344-1.188l-.656.188c-.003-.012-.344-1.188-.344-1.188l-.656.188c-.003-.012-.344-1.188-.344-1.188l-.656.188c-.003-.012-.344-1.188-.344-1.188l-.625.188-.344-1.156-.656.188c-.003-.012-.344-1.188-.344-1.188l-.656.188c-.003-.012-.344-1.188-.344-1.188l-.656.188c-.003-.012-.344-1.188-.344-1.188l-.656.188c-.003-.012-.344-1.188-.344-1.188l-.656.188c-.003-.012-.344-1.188-.344-1.188l-.656.188-.344-1.188-.625.188-.344-1.156-.656.188c-.003-.012-.344-1.188-.344-1.188l-.656.188c-.003-.012-.344-1.188-.344-1.188l-.656.188c-.003-.012-.344-1.188-.344-1.188l-.656.188c-.003-.012-.344-1.188-.344-1.188l-.656.188c-.003-.012-.344-1.188-.344-1.188l-.625.188-.344-1.156-.656.188-.344-1.188-.656.188c-.003-.012-.344-1.188-.344-1.188l-.656.188c-.003-.012-.344-1.188-.344-1.188l-.656.188c-.003-.012-.344-1.188-.344-1.188l-.656.188c-.003-.012-.344-1.188-.344-1.188l-.625.188c-.003-.011-.344-1.156-.344-1.156l-.656.188c-.003-.012-.344-1.188-.344-1.188l-.656.188-.344-1.188-.656.188c-.003-.012-.344-1.188-.344-1.188l-.656.188c-.003-.012-.344-1.188-.344-1.188l-.656.188c-.003-.012-.344-1.188-.344-1.188l-.625.188c-.003-.011-.344-1.156-.344-1.156l-.656.188c-.003-.012-.344-1.188-.344-1.188l-.656.188c-.003-.012-.344-1.188-.344-1.188l-.656.188-.344-1.188-.656.188c-.003-.012-.344-1.188-.344-1.188l-.656.188c-.003-.012-.344-1.188-.344-1.188l-.656.188c-.003-.012-.344-1.188-.344-1.188l-.625.188c-.003-.011-.344-1.156-.344-1.156l-.656.188c-.003-.012-.344-1.188-.344-1.188l-.656.188c-.003-.012-.344-1.188-.344-1.188l-.656.188-.344-1.188-.656.188c-.003-.012-.344-1.188-.344-1.188l-.656.188c-.003-.012-.344-1.188-.344-1.188l-.625.188c-.003-.011-.344-1.156-.344-1.156l-.656.188c-.003-.012-.344-1.188-.344-1.188l-.656.188c-.003-.012-.344-1.188-.344-1.188l-.656.188c-.003-.012-.344-1.188-.344-1.188l-.656.188-.344-1.188-.656.188c-.003-.012-.344-1.188-.344-1.188l-.625.188c-.003-.011-.344-1.156-.344-1.156l-.656.188c-.003-.012-.344-1.188-.344-1.188l-.656.188c-.003-.012-.344-1.188-.344-1.188l-.656.188c-.003-.012-.344-1.188-.344-1.188l-.656.188c-.003-.012-.344-1.188-.344-1.188l-.656.188-.344-1.188-.656.188c-.003-.012-.344-1.188-.344-1.188l-.625.188c-.003-.011-.344-1.156-.344-1.156l-.656.188c-.003-.012-.344-1.188-.344-1.188l-.656.188c-.003-.012-.344-1.188-.344-1.188l-.656.188c-.003-.012-.344-1.188-.344-1.188l-.656.188c-.003-.012-.344-1.188-.344-1.188l-.656.188-.344-1.188-.625.188-.344-1.156-.656.188c-.003-.012-.344-1.188-.344-1.188l-.656.188c-.003-.012-.344-1.188-.344-1.188l-.656.188c-.003-.012-.344-1.188-.344-1.188l-.656.188-.344-1.188-.656.188-.344-1.188-.625.188-.344-1.156-.656.188-.344-1.188-.656.188-.344-1.188-.656.188-.344-1.188-.656.188-.344-1.188-.656.188-.344-1.188-.625.188-.344-1.156-.656.188-.344-1.188-.656.188-.344-1.188-.656.188-.344-1.188-.656.188-.344-1.188-.656.188-.344-1.188-.656.188-.344-1.188-.625.188c-.003-.011-.344-1.156-.344-1.156l-.656.188-.344-1.188-.656.188-.344-1.188-.656.188-.344-1.188-.656.188-.344-1.188-.656.188-.344-1.188-.625.188-.344-1.156-.656.188-.344-1.188-.656.188-.344-1.188-.656.188-.344-1.188-.656.188-.344-1.188-.656.188-.344-1.188-.625.188-.344-1.156-.656.188-.344-1.188-.656.188-.344-1.188-.656.188-.344-1.188-.656.188-.344-1.188-.656.188-.344-1.188-.656.188-.344-1.188-.625.188-.344-1.156-.656.188-.344-1.188-.656.188-.344-1.188-.656.188-.344-1.188-.656.188-.344-1.188-.656.188-.344-1.188-.625.188-.344-1.156-.656.188-.344-1.188-.656.188-.344-1.188-.656.188-.344-1.188-.656.188-.344-1.188-.656.188-.344-1.188-.625.188-.344-1.156-.656.188-.344-1.188-.656.188-.344-1.188-.656.188-.344-1.188-.656.188-.344-1.188-.656.188-.344-1.188-.625.188-.344-1.156-.656.188-.344-1.188-.656.188-.344-1.188-.656.188-.344-1.188" fill-opacity=".235"/>
   <path d="m274.41 86.75l-41.28 12.03.5 1.719-.375-.188-75.78 143.84h-130.06v43h154.94v-.063l.844.438 67.59-128.22 64.875 222.25 1-.281-.938 1.719 37.75 20.594 45.19-82.87h75.81v-44h-99.47v.5h-1v .375l-.625-.344-28.25 51.813-70.72-242.31" fill="#ffffff"/>
  </g>
  <g fill-rule="evenodd">
   <path d="m487.54 164.82c-140.83 0-255 114.17-255 255s114.17 255 255 255 255-114.17 255-255-114.17-255-255-255m8.827 44.931c120.9 0 218.9 98 218.9 218.9s-98 218.9-218.9 218.9-218.93-98-218.93-218.9 98.03-218.9 218.93-218.9" fill-opacity=".067"/>
   <g fill-opacity=".129">
    <path d="m487.54 168.25c-138.94 0-251.57 112.63-251.57 251.57s112.63 251.57 251.57 251.57 251.57-112.63 251.57-251.57-112.63-251.57-251.57-251.57m5.885 38.556c120.9 0 218.9 98 218.9 218.9s-98 218.9-218.9 218.9-218.93-98-218.93-218.9 98.03-218.9 218.93-218.9"/>
    <path d="m487.54 172.18c-136.77 0-247.64 110.87-247.64 247.64s110.87 247.64 247.64 247.64 247.64-110.87 247.64-247.64-110.87-247.64-247.64-247.64m2.942 31.691c120.9 0 218.9 98 218.9 218.9s-98 218.9-218.9 218.9-218.93-98-218.93-218.9 98.03-218.9 218.93-218.9"/>
   </g>
   <path d="m484.58 171.68c-135.42 0-245.19 109.78-245.19 245.19 0 135.42 109.78 245.19 245.19 245.19 135.42 0 245.19-109.78 245.19-245.19 0-135.42-109.78-245.19-245.19-245.19zm0 26.297c120.9 0 218.9 98 218.9 218.9s-98 218.9-218.9 218.9-218.93-98-218.93-218.9 98.03-218.9 218.93-218.9z" fill="#ffffff" stroke="#000000" stroke-opacity=".31" stroke-width="4.904"/>
  </g>
 </g>
</svg>
