<svg height="512" viewBox="0 0 512 512" width="512" xmlns="http://www.w3.org/2000/svg">
 <path d="m471.95 253.05c0 120.9-98.01 218.9-218.9 218.9-120.9 0-218.9-98.01-218.9-218.9 0-120.9 98.01-218.9 218.9-218.9 120.9 0 218.9 98.01 218.9 218.9" fill="#878787" fill-rule="evenodd"/>
 <path d="m305.44 149.75c-.718-.004-1.439.014-2.156.031-5.738.142-11.359 1-15.531 2.5-22.678 8.448-36.997 30.19-35.37 54l .531 9.219-9.06-1.156c-30.874-4.04-58.1-17.1-81.53-38.875-.118-.121-.873-.873-.875-.875-.549-.559-1.995-1.995-2-2-.536-.546-1.964-1.964-1.969-1.969-.153-.156-.997-.997-1-1-.551-.562-1.995-1.995-2-2-.549-.559-1.995-1.995-2-2-.146-.149-.969-1-.969-1-.548-.558-2-2-2-2-.151-.153-1-1-1-1l-1-1-1.969-1.969-3.094 9c-6.539 20.05-2.351 41.28 11.25 55.53 7.245 7.854 5.623 8.978-6.906 4.281-4.342-1.484-8.165-2.629-8.531-2.063-1.256 1.323 3.078 18.377 6.531 25.13 2.354 4.697 5.941 9.35 10.25 13.5.329.331.662.675 1 1 .329.331.662.675 1 1 .329.331.662.675 1 1 .131.138.274.269.406.406.191.189.369.376.563.563.01.011.021.021.031.031.127.134.246.273.375.406.196.194.394.371.594.563.133.141.271.266.406.406.199.197.391.399.594.594.133.141.271.266.406.406.197.195.393.401.594.594.329.331.662.675 1 1 .329.331.662.675 1 1 .131.138.274.269.406.406.324.321.636.654.969.969.005.006-.005.026 0 .031.196.194.394.371.594.563l.031.031c.127.134.246.273.375.406.194.192.396.372.594.563.133.141.271.266.406.406.199.197.391.399.594.594.329.331.662.675 1 1 .329.331.662.675 1 1l-1.969.094c-10.175 0-10.51.184-9.438 4.125 1.652 5.543 5.532 11.22 10.75 16.313.327.335.661.67 1 1 .277.284.558.563.844.844.428.443.864.878 1.313 1.313.17.173.358.328.531.5.421.438.841.883 1.281 1.313.327.335.661.67 1 1 .327.335.661.67 1 1 .277.284.558.563.844.844.428.443.864.878 1.313 1.313.17.173.358.328.531.5.421.438.841.883 1.281 1.313.327.335.661.67 1 1 .327.335.661.67 1 1 .277.284.558.563.844.844.428.443.864.878 1.313 1.313.17.173.358.328.531.5.421.438.841.883 1.281 1.313.327.335.661.67 1 1 .327.335.661.67 1 1 .327.335.661.67 1 1 .333.342.686.663 1.031 1 .222.227.429.463.656.688.398.414.803.812 1.219 1.219.331.341.656.695 1 1.031.215.221.436.437.656.656-14.475 8.566-31.459 13.374-48.44 13.75-8.161.187-14.906.964-14.906 1.531 0 .237.382.609 1.031 1.094.086.241.424.604 1 1.031.103.242.466.583 1.031 1 .118.236.439.576.969.969.096.238.444.556 1 .969.077.239.42.569 1 1 .08.237.405.579.969 1 .085.236.441.583 1 1 .087.243.444.598 1.031 1.031.118.236.439.576.969.969.096.238.444.556 1 .969.077.239.42.569 1 1 .076.237.4.575.969 1 .085.236.441.583 1 1 .086.241.424.604 1 1.031.102.239.445.558 1 .969.096.238.444.556 1 .969.077.239.42.569 1 1 .076.237.4.575.969 1 .085.236.441.583 1 1 .086.241.424.604 1 1.031.103.242.466.583 1.031 1 .118.236.439.576.969.969.096.238.444.556 1 .969.076.237.4.575.969 1 .076.237.431.575 1 1 .085.236.441.583 1 1 .087.243.444.598 1.031 1.031.118.236.439.576.969.969.096.238.444.556 1 .969.077.239.42.569 1 1 .08.237.405.579.969 1 .085.236.441.583 1 1 .087.243.444.598 1.031 1.031.118.236.439.576.969.969.096.238.444.556 1 .969.077.239.42.569 1 1 .076.237.4.575.969 1 .085.236.441.583 1 1 .086.241.424.604 1 1.031.103.242.466.583 1.031 1 .117.235.445.549.969.938.077.239.42.569 1 1 .076.237.4.575.969 1 .076.237.43.575 1 1 .085.236.441.583 1 1 .087.243.444.598 1.031 1.031.118.236.439.576.969.969.096.238.444.556 1 .969.077.239.42.569 1 1 .08.237.405.579.969 1 .085.236.441.583 1 1 .087.243.444.598 1.031 1.031.118.236.439.576.969.969.096.238.444.556 1 .969.077.239.42.569 1 1 .076.237.399.575.969 1 .085.236.441.583 1 1 .086.241.424.604 1 1.031.102.239.445.558 1 .969.096.238.444.556 1 .969.077.239.42.569 1 1 .076.237.399.575.969 1 .085.236.441.583 1 1 .086.241.424.604 1 1.031.103.242.466.583 1.031 1 .118.236.439.576.969.969.096.238.444.556 1 .969.076.237.399.575.969 1 .076.237.431.575 1 1 .085.237.441.583 1 1 .087.243.444.598 1.031 1.031.118.236.439.576.969.969.096.238.444.556 1 .969.077.24.42.569 1 1 .081.237.405.579.969 1 .085.237.441.583 1 1 .087.243.444.598 1.031 1.031.118.236.439.576.969.969.096.238.444.556 1 .969.077.24.42.569 1 1 .076.237.399.575.969 1 .085.237.441.583 1 1 .086.241.424.604 1 1.031.103.242.466.583 1.031 1 .117.235.445.549.969.938.077.24.42.569 1 1 .076.237.399.575.969 1 .076.237.431.575 1 1 .085.237.441.583 1 1 .087.243.444.598 1.031 1.031.118.236.439.576.969.969.096.238.444.556 1 .969.077.24.42.569 1 1 .081.237.405.579.969 1 .085.237.441.583 1 1 .087.243.444.598 1.031 1.031.118.236.439.576.969.969.096.238.444.556 1 .969.077.24.42.569 1 1 .076.237.399.575.969 1 .085.237.441.583 1 1 .086.241.423.604 1 1.031.102.239.445.558 1 .969.096.238.444.556 1 .969.077.24.42.569 1 1 .076.237.399.575.969 1 .085.237.441.583 1 1 .086.241.423.604 1 1.031.103.242.466.583 1.031 1 .118.236.439.576.969.969.096.238.444.556 1 .969.076.237.399.575.969 1 .076.237.431.575 1 1 .085.237.441.583 1 1 .087.243.444.598 1.031 1.031.118.236.439.576.969.969.096.238.444.556 1 .969.077.24.42.569 1 1 .081.237.405.579.969 1 .085.237.441.583 1 1 .087.243.444.598 1.031 1.031.118.236.439.576.969.969.096.238.444.556 1 .969.077.24.42.569 1 1 .076.237.399.575.969 1 .085.237.441.583 1 1 .086.241.423.604 1 1.031.103.242.466.583 1.031 1 .118.236.439.576.969.969.096.238.444.556 1 .969.077.237.399.575.969 1 .077.237.431.575 1 1 116.36-5.111 209.13-101.03 209.13-218.66 0-.417.002-.833 0-1.25-.064.015-.118.012-.188.031.088-.364.156-.704.156-.969 0-.224-.448-.229-1.156-.031.088-.364.156-.704.156-.969 0-.224-.449-.229-1.156-.031.089-.366.156-.703.156-.969 0-.224-.448-.198-1.156 0 .094-.379.156-.726.156-1 0-.224-.448-.198-1.156 0 .094-.379.156-.726.156-1 0-.227-.435-.204-1.156 0 .094-.379.156-.695.156-.969 0-.224-.417-.229-1.125-.031.088-.364.156-.704.156-.969 0-.224-.448-.229-1.156-.031.088-.364.156-.704.156-.969 0-.224-.448-.229-1.156-.031.088-.364.156-.704.156-.969 0-.221-.433-.222-1.125-.031.088-.364.125-.704.125-.969 0-.224-.448-.198-1.156 0 .094-.379.156-.726.156-1 0-.224-.448-.198-1.156 0 .094-.379.156-.726.156-1 0-.224-.417-.198-1.125 0 .088-.364.156-.704.156-.969 0-.224-.448-.229-1.156-.031.088-.364.156-.704.156-.969 0-.224-.448-.229-1.156-.031.088-.364.156-.704.156-.969 0-.224-.449-.229-1.156-.031.089-.366.156-.703.156-.969 0-.224-.448-.198-1.156 0 .094-.379.156-.726.156-1 0-.224-.448-.198-1.156 0 .094-.379.156-.726.156-1 0-.227-.435-.204-1.156 0 .092-.375.188-.698.188-.969 0-.224-.448-.229-1.156-.031.088-.364.156-.704.156-.969 0-.224-.448-.229-1.156-.031.088-.364.156-.704.156-.969 0-.224-.449-.229-1.156-.031.089-.366.156-.703.156-.969 0-.224-.448-.198-1.156 0 .094-.379.156-.726.156-1 0-.224-.448-.198-1.156 0 .094-.379.156-.726.156-1 0-.227-.435-.204-1.156 0 .092-.375.156-.698.156-.969 0-.224-.417-.229-1.125-.031.088-.364.156-.704.156-.969 0-.224-.448-.229-1.156-.031.088-.364.156-.704.156-.969 0-.224-.448-.229-1.156-.031.089-.366.156-.703.156-.969 0-.222-.433-.222-1.125-.031.088-.364.125-.704.125-.969 0-.224-.448-.198-1.156 0 .094-.379.156-.726.156-1 0-.227-.435-.204-1.156 0 .094-.379.156-.695.156-.969v-.031c0-.224-.417-.198-1.125 0 .088-.364.156-.704.156-.969 0-.225-.448-.229-1.156-.031.088-.364.156-.704.156-.969 0-.225-.448-.229-1.156-.031.088-.364.156-.704.156-.969 0-.222-.433-.222-1.125-.031.088-.364.125-.704.125-.969 0-.225-.448-.198-1.156 0 .094-.379.156-.726.156-1 0-.225-.448-.198-1.156 0 .094-.379.156-.726.156-1 0-.225-.417-.198-1.125 0 .088-.364.156-.704.156-.969 0-.225-.448-.229-1.156-.031.088-.364.156-.704.156-.969 0-.225-.448-.229-1.156-.031.088-.364.156-.704.156-.969 0-.224-.449-.229-1.156-.031.089-.366.156-.703.156-.969 0-.225-.448-.198-1.156 0 .094-.379.156-.726.156-1 0-.225-.448-.198-1.156 0 .094-.379.156-.726.156-1 0-.227-.435-.204-1.156 0 .092-.375.188-.698.188-.969 0-.225-.448-.229-1.156-.031.088-.364.156-.704.156-.969 0-.225-.448-.229-1.156-.031.088-.364.156-.704.156-.969 0-.224-.449-.229-1.156-.031.089-.366.156-.703.156-.969 0-.225-.448-.198-1.156 0 .094-.379.156-.726.156-1 0-.225-.448-.198-1.156 0 .094-.379.156-.726.156-1 0-.227-.435-.204-1.156 0 .092-.375.156-.698.156-.969 0-.225-.417-.229-1.125-.031.088-.364.156-.704.156-.969 0-.225-.448-.229-1.156-.031.088-.364.156-.704.156-.969 0-.225-.448-.229-1.156-.031.088-.364.156-.704.156-.969 0-.222-.433-.222-1.125-.031.088-.364.125-.704.125-.969 0-.225-.448-.198-1.156 0 .094-.379.156-.726.156-1 0-.227-.435-.204-1.156 0 .094-.379.156-.726.156-1 0-.225-.417-.198-1.125 0 .088-.364.156-.704.156-.969 0-.225-.448-.229-1.156-.031.088-.364.156-.704.156-.969 0-.225-.448-.229-1.156-.031.088-.364.156-.704.156-.969 0-.224-.449-.229-1.156-.031.089-.366.156-.703.156-.969 0-.225-.448-.198-1.156 0 .094-.379.156-.726.156-1 0-.225-.448-.198-1.156 0 .094-.379.156-.726.156-1 0-.227-.435-.204-1.156 0 .092-.375.188-.698.188-.969 0-.225-.448-.229-1.156-.031.088-.364.156-.704.156-.969 0-.225-.448-.229-1.156-.031.088-.364.156-.704.156-.969 0-.224-.449-.229-1.156-.031.089-.366.156-.703.156-.969 0-.225-.448-.198-1.156 0 .094-.379.156-.726.156-1 0-.225-.448-.198-1.156 0 .094-.379.156-.726.156-1 0-.227-.435-.204-1.156 0 .092-.375.156-.698.156-.969 0-.225-.417-.229-1.125-.031.088-.364.156-.704.156-.969 0-.225-.448-.229-1.156-.031.088-.364.156-.704.156-.969 0-.225-.448-.229-1.156-.031.089-.366.156-.703.156-.969 0-.222-.433-.222-1.125-.031.088-.364.125-.704.125-.969 0-.225-.448-.198-1.156 0 .094-.379.156-.726.156-1 0-.227-.435-.204-1.156 0 .094-.379.156-.695.156-.969 0-.225-.417-.229-1.125-.031.088-.364.156-.704.156-.969 0-.225-.448-.229-1.156-.031.088-.364.156-.704.156-.969 0-.225-.448-.229-1.156-.031.088-.364.156-.704.156-.969 0-.222-.433-.222-1.125-.031.088-.364.125-.704.125-.969 0-.225-.448-.198-1.156 0 .094-.379.156-.726.156-1 0-.225-.448-.198-1.156 0 .094-.379.156-.726.156-1 0-.225-.417-.198-1.125 0 .088-.364.156-.704.156-.969 0-.225-.448-.229-1.156-.031.088-.364.156-.704.156-.969 0-.225-.448-.229-1.156-.031.088-.364.156-.704.156-.969 0-.224-.449-.229-1.156-.031.089-.366.156-.703.156-.969 0-.225-.448-.198-1.156 0 .094-.379.156-.726.156-1 0-.225-.448-.198-1.156 0 .094-.379.156-.726.156-1 0-.227-.435-.204-1.156 0 .092-.375.188-.698.188-.969 0-.225-.448-.229-1.156-.031.088-.364.156-.704.156-.969 0-.225-.448-.229-1.156-.031.088-.364.156-.704.156-.969 0-.225-.449-.229-1.156-.031.089-.366.156-.703.156-.969 0-.225-.448-.198-1.156 0 .094-.379.156-.726.156-1 0-.225-.448-.198-1.156 0 .094-.379.156-.726.156-1 0-.227-.435-.204-1.156 0 .092-.375.156-.698.156-.969 0-.225-.417-.229-1.125-.031.088-.364.156-.704.156-.969 0-.225-.448-.229-1.156-.031.088-.364.156-.704.156-.969 0-.225-.448-.229-1.156-.031.088-.364.156-.704.156-.969 0-.222-.433-.222-1.125-.031.088-.364.125-.704.125-.969 0-.567-2.726.362-5.813 2.063-3.27 1.862-10.497 4.702-15.938 6.375l-9.813 3.188-8.906-6.188c-4.891-3.374-11.771-7.148-15.406-8.281-4.051-1.145-9.04-1.722-14.06-1.75" fill-opacity=".235"/>
 <g fill-rule="evenodd">
  <path d="m256 1c-140.83 0-255 114.17-255 255s114.17 255 255 255 255-114.17 255-255-114.17-255-255-255m8.827 44.931c120.9 0 218.9 98 218.9 218.9s-98 218.9-218.9 218.9-218.93-98-218.93-218.9 98.03-218.9 218.93-218.9" fill-opacity=".067"/>
  <g fill-opacity=".129">
   <path d="m256 4.433c-138.94 0-251.57 112.63-251.57 251.57s112.63 251.57 251.57 251.57 251.57-112.63 251.57-251.57-112.63-251.57-251.57-251.57m5.885 38.556c120.9 0 218.9 98 218.9 218.9s-98 218.9-218.9 218.9-218.93-98-218.93-218.9 98.03-218.9 218.93-218.9"/>
   <path d="m256 8.356c-136.77 0-247.64 110.87-247.64 247.64s110.87 247.64 247.64 247.64 247.64-110.87 247.64-247.64-110.87-247.64-247.64-247.64m2.942 31.691c120.9 0 218.9 98 218.9 218.9s-98 218.9-218.9 218.9-218.93-98-218.93-218.9 98.03-218.9 218.93-218.9"/>
  </g>
  <path d="m253.04 7.859c-135.42 0-245.19 109.78-245.19 245.19 0 135.42 109.78 245.19 245.19 245.19 135.42 0 245.19-109.78 245.19-245.19 0-135.42-109.78-245.19-245.19-245.19zm0 26.297c120.9 0 218.9 98 218.9 218.9s-98 218.9-218.9 218.9-218.93-98-218.93-218.9 98.03-218.9 218.93-218.9z" fill="#ffffff" stroke="#000000" stroke-opacity=".31" stroke-width="4.904"/>
 </g>
 <path d="m287.75 152.27c-22.678 8.448-37.01 30.2-35.39 54.01l.55 9.204-9.08-1.134c-33.01-4.319-61.86-18.948-86.34-43.51l-11.98-12.2-3.086 9.02c-6.539 20.05-2.354 41.27 11.247 55.52 7.245 7.854 5.624 8.988-6.905 4.292-4.342-1.484-8.161-2.618-8.527-2.051-1.256 1.323 3.086 18.381 6.539 25.13 4.708 9.393 14.334 18.57 24.848 24.02l8.893 4.292-10.515.188c-10.175 0-10.515.188-9.442 4.13 3.636 12.2 17.969 25.13 33.925 30.77l11.247 3.941-9.782 5.992c-14.517 8.637-31.571 13.496-48.625 13.873-8.161.187-14.883.945-14.883 1.512 0 1.862 22.13 12.362 35.02 16.492 38.633 12.2 84.54 6.937 119.01-13.873 24.482-14.818 48.991-44.27 60.42-72.77 6.173-15.196 12.346-42.943 12.346-56.28 0-8.61.523-9.744 10.698-20.05 5.99-5.992 11.613-12.578 12.686-14.44 1.831-3.563 1.648-3.563-7.611-.378-15.432 5.614-17.603 4.885-9.966-3.563 5.624-5.992 12.32-16.869 12.32-20.05 0-.567-2.72.351-5.807 2.051-3.27 1.862-10.515 4.697-15.955 6.37l-9.809 3.185-8.893-6.181c-4.891-3.374-11.77-7.126-15.406-8.26-9.259-2.618-23.41-2.24-31.754.756" fill="#ffffff"/>
</svg>
