<svg height="512" viewBox="0 0 512 512" width="512" xmlns="http://www.w3.org/2000/svg">
 <path d="m471.95 253.05c0 120.9-98.01 218.9-218.9 218.9-120.9 0-218.9-98.01-218.9-218.9 0-120.9 98.01-218.9 218.9-218.9 120.9 0 218.9 98.01 218.9 218.9" fill="#9f9f9f" fill-rule="evenodd"/>
 <g fill-rule="evenodd">
  <path d="m256 1c-140.83 0-255 114.17-255 255s114.17 255 255 255 255-114.17 255-255-114.17-255-255-255m8.827 44.931c120.9 0 218.9 98 218.9 218.9s-98 218.9-218.9 218.9-218.93-98-218.93-218.9 98.03-218.9 218.93-218.9" fill-opacity=".067"/>
  <g fill-opacity=".129">
   <path d="m256 4.433c-138.94 0-251.57 112.63-251.57 251.57s112.63 251.57 251.57 251.57 251.57-112.63 251.57-251.57-112.63-251.57-251.57-251.57m5.885 38.556c120.9 0 218.9 98 218.9 218.9s-98 218.9-218.9 218.9-218.93-98-218.93-218.9 98.03-218.9 218.93-218.9"/>
   <path d="m256 8.356c-136.77 0-247.64 110.87-247.64 247.64s110.87 247.64 247.64 247.64 247.64-110.87 247.64-247.64-110.87-247.64-247.64-247.64m2.942 31.691c120.9 0 218.9 98 218.9 218.9s-98 218.9-218.9 218.9-218.93-98-218.93-218.9 98.03-218.9 218.93-218.9"/>
  </g>
  <path d="m253.04 7.859c-135.42 0-245.19 109.78-245.19 245.19 0 135.42 109.78 245.19 245.19 245.19 135.42 0 245.19-109.78 245.19-245.19 0-135.42-109.78-245.19-245.19-245.19zm0 26.297c120.9 0 218.9 98 218.9 218.9s-98 218.9-218.9 218.9-218.93-98-218.93-218.9 98.03-218.9 218.93-218.9z" fill="#ffffff" stroke="#000000" stroke-opacity=".31" stroke-width="4.904"/>
 </g>
 <path d="m353.19117 96.442361l120.79401 119.481029c2.47029 65.49596-15.41341 140.54285-62.36648 188.74063-35.59115 35.43455-76.87208 48.10996-117.18331 64.66418-68.50102-67.34481-212.639492-187.98329-212.639492-187.98329l40.119292-52.71508 39.79483 38.52014 8.64892-66.32583 13.78627-54.16036 37.55585 32.90411c-13.59099-26.43396-12.63193-35.43118 27.4828-15.74855l43.28206-33.89603 50.99855 45.06682.98023-1.10049-33.0095-27.62205z" fill-rule="evenodd" opacity=".25"/>
 <path d="m334.19478 89.673707c-18.27251 0-33.09455 14.791243-33.09455 33.063753 0 18.27251 14.82204 33.09455 33.09455 33.09455 18.27251 0 33.09456-14.82204 33.09456-33.09455 0-18.27251-14.82205-33.063753-33.09456-33.063753m-77.36282 34.587543c-21.37579 0-41.55482 4.99914-59.44697 13.86109l24.39376 42.25392c10.65471-4.9636 22.52515-7.75406 35.04847-7.75406 43.10705 0 78.53589 32.81966 82.70559 74.82711h49.97953c-2.12336-33.71308-17.11603-63.9674-40.14714-86.06006-11.35856 4.45644-24.5478 3.88769-35.93835-2.6862-11.27679-6.51108-18.33768-17.50231-20.23827-29.43081-11.55644-3.2431-23.75746-5.00743-36.36136-5.00743m-73.02605 21.61514c-27.01715 17.59829-47.1713 44.67587-55.59483 76.45044 9.88216 7.59054 16.27238 19.51785 16.27238 32.9417 0 13.51865-6.45302 25.5135-16.45604 33.09456 8.30623 32.17033 28.60375 59.58916 55.90409 77.32728l24.485-42.40559c-21.00018-15.08865-34.71789-39.70043-34.71789-67.5328 0-27.78497 13.64899-52.37306 34.58755-67.47119l-24.485-42.40559m-80.84646 76.29641c-18.272509 0-33.094558 14.82205-33.094558 33.09456 0 18.2725 14.822049 33.09455 33.094558 33.09455 18.27251 0 33.09456-14.82205 33.09456-33.09455 0-18.27251-14.82205-33.09456-33.09456-33.09456m236.67407 40.91023c-3.71351 42.47431-39.36273 75.80585-82.79682 75.80585-12.48303 0-24.30252-2.7644-34.92643-7.69363l-24.39376 42.25392c17.85661 8.82521 38.00009 13.79947 59.31664 13.79947 12.31359 0 24.22194-1.6648 35.53665-4.76334 1.96222-11.83015 9.01599-22.72659 20.21458-29.18672 11.46757-6.62128 24.76582-7.12132 36.1777-2.56415 23.60105-22.35808 38.90773-53.24752 40.81899-87.6514h-49.94399m-6.28951 93.08659c-18.27251 0-33.09455 14.82204-33.09455 33.09455 0 18.27251 14.82204 33.06375 33.09455 33.06375 18.27251 0 33.09456-14.79124 33.09456-33.06375 0-18.27251-14.82205-33.09455-33.09456-33.09455" fill="#ffffff"/>
 <path d="m242.7935 198.80636v39.04161h-15.52599c-4.54725 0-.35412 3.95055-.35412 3.95055l27.554 33.29781.0107.0107c0 0 2.24653 2.63216 4.60355.26559 3.26817-3.26498 26.71473-34.38141 26.71473-34.38141 0 0 4.14496-4.14992-1.37221-4.14992h-14.33084v-38.03238h-27.29903m-21.96599 85.32143c-6.30616 0-11.38846 5.06991-11.38846 11.37783 0 6.30616 5.08089 11.38848 11.38846 11.38848h70.80254c6.30615 0 11.38846-5.0809 11.38846-11.38848 0-6.30614-5.0809-11.3743-11.38846-11.3743h-70.80254m-.34314 5.25655c.10451-.005.22628 0 .33215 0 3.38503 0 6.11953 2.7345 6.11953 6.11953 0 3.38502-2.7345 6.14183-6.11953 6.14183-3.38501 0-6.11952-2.75646-6.11952-6.14183 0-3.2795 2.54895-5.95557 5.78772-6.11953" fill="#ffffff"/>
</svg>
