<svg viewBox="0 0 512 512" xmlns="http://www.w3.org/2000/svg">
 <g fill-rule="evenodd">
  <path d="m471.95 253.05c0 120.9-98.01 218.91-218.91 218.91s-218.91-98.01-218.91-218.91 98.01-218.91 218.91-218.91 218.91 98.01 218.91 218.91" fill="#b0b0b0"/>
  <path d="m256 1c-140.83 0-255 114.17-255 255s114.17 255 255 255 255-114.17 255-255-114.17-255-255-255m8.827 44.931c120.9 0 218.9 98 218.9 218.9s-98 218.9-218.9 218.9-218.93-98-218.93-218.9 98.03-218.9 218.93-218.9" fill-opacity=".067"/>
  <g fill-opacity=".129">
   <path d="m256 4.43c-138.94 0-251.57 112.63-251.57 251.57s112.63 251.57 251.57 251.57 251.57-112.63 251.57-251.57-112.63-251.57-251.57-251.57m5.885 38.556c120.9 0 218.9 98 218.9 218.9s-98 218.9-218.9 218.9-218.93-98-218.93-218.9 98.03-218.9 218.93-218.9"/>
   <path d="m256 8.36c-136.77 0-247.64 110.87-247.64 247.64s110.87 247.64 247.64 247.64 247.64-110.87 247.64-247.64-110.87-247.64-247.64-247.64m2.942 31.691c120.9 0 218.9 98 218.9 218.9s-98 218.9-218.9 218.9-218.93-98-218.93-218.9 98.03-218.9 218.93-218.9"/>
  </g>
  <path d="m253.04 7.86c-135.42 0-245.19 109.78-245.19 245.19 0 135.42 109.78 245.19 245.19 245.19 135.42 0 245.19-109.78 245.19-245.19 0-135.42-109.78-245.19-245.19-245.19m0 26.297c120.9 0 218.9 98 218.9 218.9s-98 218.9-218.9 218.9-218.93-98-218.93-218.9 98.03-218.9 218.93-218.9z" fill="#ffffff" stroke="#000000" stroke-opacity=".31" stroke-width="4.904"/>
 </g>
 <path d="m387.99 131.26l-95.74 1.303c-92.81 1.263-96.13 1.61-108.51 11.334-20.884 16.396-23.09 23.511-23.346 86.84l-21.662-21.662h-42.976v56.666c0 52.27.725 57.44 9.344 66.61.375.399.746.784 1.115 1.152l138.27 138.27c2.843.109 5.695.184 8.564.184 120.9 0 218.91-98.01 218.91-218.91 0-14.311-1.388-28.3-4.01-41.842l-79.947-79.947" opacity=".25"/>
 <path d="m196.74 376.93c-9.937-4.054-32.23-25.438-32.23-30.916 0-2.041-11.266-3.712-25.04-3.712-20.614 0-26.687-1.757-34.381-9.947-8.619-9.174-9.344-14.347-9.344-66.61v-56.666h42.976v90.24h21.488l.152-63.39c.164-68.32 1.908-75.19 23.368-92.04 12.386-9.724 15.7-10.07 108.51-11.334l95.74-1.303v73.516h-77.358v-51.572h-77.358v107.44h-38.776l37.07 48.35c20.389 26.591 38.59 48.35 40.448 48.35 3.801 0 72.809-88.46 72.922-93.47.04-1.773-7.663-3.223-17.12-3.223-17.19 0-17.19 0-17.19-17.19v-17.19h78l-1.399 59.834c-1.332 56.951-1.917 60.39-12.143 71.32-20.246 21.643-28.728 23.583-101.85 23.289-37.35-.15-71.77-1.85-76.5-3.779" fill="#ffffff"/>
</svg>
