<svg height="512" viewBox="0 0 512 512" width="512" xmlns="http://www.w3.org/2000/svg">
 <path d="m471.95 253.05c0 120.9-98.01 218.9-218.9 218.9-120.9 0-218.9-98.01-218.9-218.9 0-120.9 98.01-218.9 218.9-218.9 120.9 0 218.9 98.01 218.9 218.9" fill="#9f9f9f" fill-rule="evenodd"/>
 <path d="m256 1c-140.83 0-255 114.17-255 255 0 140.83 114.17 255 255 255 140.83 0 255-114.17 255-255 0-140.83-114.17-255-255-255m8.827 44.931c120.9 0 218.9 98 218.9 218.9 0 120.9-98 218.9-218.9 218.9-120.9 0-218.93-98-218.93-218.9 0-120.9 98.03-218.9 218.93-218.9" fill-opacity=".067" fill-rule="evenodd"/>
 <g fill-opacity=".129" fill-rule="evenodd">
  <path d="m256 4.433c-138.94 0-251.57 112.63-251.57 251.57 0 138.94 112.63 251.57 251.57 251.57 138.94 0 251.57-112.63 251.57-251.57 0-138.94-112.63-251.57-251.57-251.57m5.885 38.556c120.9 0 218.9 98 218.9 218.9 0 120.9-98 218.9-218.9 218.9-120.9 0-218.93-98-218.93-218.9 0-120.9 98.03-218.9 218.93-218.9"/>
  <path d="m256 8.356c-136.77 0-247.64 110.87-247.64 247.64 0 136.77 110.87 247.64 247.64 247.64 136.77 0 247.64-110.87 247.64-247.64 0-136.77-110.87-247.64-247.64-247.64m2.942 31.691c120.9 0 218.9 98 218.9 218.9 0 120.9-98 218.9-218.9 218.9-120.9 0-218.93-98-218.93-218.9 0-120.9 98.03-218.9 218.93-218.9"/>
 </g>
 <path d="m321.27427 113.06478l-18.71791 1.86303-2.236.568-4.45264 7.98137-11.16934-14.35138 14.62547 29.9079-58.4087-39.588258-20.73542 11.619478-11.96425 14.45802-23.43174 4.37713-21.04052 18.02589-24.09361 27.71101-40.654939 65.72951 61.490859 37.32617-47.72229 42.85516 109.71949 63.40005-51.55115 3.38551 133.69178 77.55444c103.08108-24.64914 178.46544-127.40564 171.82701-228.25773l-121.86612-104.08937 6.19269 15.25469" opacity=".25"/>
 <path d="m253.04 7.859c-135.42 0-245.19 109.78-245.19 245.19 0 135.42 109.78 245.19 245.19 245.19 135.42 0 245.19-109.78 245.19-245.19 0-135.42-109.78-245.19-245.19-245.19zm0 26.297c120.9 0 218.9 98 218.9 218.9 0 120.9-98 218.9-218.9 218.9-120.9 0-218.93-98-218.93-218.9 0-120.9 98.03-218.9 218.93-218.9z" fill="#ffffff" fill-rule="evenodd" stroke="#000000" stroke-opacity=".31" stroke-width="4.904"/>
 <g fill="#ffffff" transform="matrix(3.5165606 0 0 3.5165606 -441.65749 -1202.8979)">
  <path d="m216.94 374.23c-4.4867-2.0633-9.3516-3.4335-14.49-3.9078v23.114c1.0102.19709 1.9923.46322 2.9478.79365l11.542-20z"/>
  <path d="m234.77 389c-2.9168-4.1051-6.5071-7.6954-10.612-10.612l-11.55 20.008c.76858.66642 1.4922 1.3808 2.1618 2.1466l20-11.542z"/>
  <path d="m224.15 451.33c11.413-8.1099 18.889-21.403 18.889-36.47 0-6.6662-1.4981-12.971-4.1119-18.655l-19.97 11.527c.19877.56802.37703 1.1428.5291 1.7309.15207.58807.27456 1.1929.37793 1.7989.10337.60606.18164 1.2148.23431 1.8367.0527.62199.0831 1.2538.0831 1.8896 0 .82287-.0479 1.6345-.13606 2.4339-.0881.79938-.2139 1.5871-.38548 2.3583-.17158.77119-.38461 1.5293-.63492 2.2676-.25032.73828-.53734 1.4535-.86168 2.1542-.32434.70069-.68722 1.3824-1.0809 2.0408-.39366.65838-.81912 1.2934-1.2774 1.9048-.45827.61138-.94818 1.2015-1.4664 1.7612-.51819.55966-1.0668 1.0916-1.6402 1.5949l11.451 19.826z"/>
  <path d="m202.45 459.41c5.1382-.47425 10.003-1.8445 14.49-3.9078l-11.421-19.781c-.99341.35009-2.0157.62599-3.0688.83144v22.857z"/>
  <path d="m161.82 440.73c7.354 10.349 18.971 17.446 32.313 18.677v-22.827c-.62315-.11736-1.2335-.26203-1.8367-.43083-.60328-.16881-1.2028-.36416-1.7838-.58202-.58104-.21785-1.1443-.45356-1.7007-.71806-.55643-.2645-1.1032-.55293-1.6327-.86168-.52944-.30874-1.0419-.63958-1.542-.99017-.50008-.35059-.99045-.72108-1.4588-1.1111-.46836-.39004-.91873-.80498-1.353-1.232-.43426-.42707-.84937-.8686-1.2472-1.3303l-19.758 11.406z"/>
  <path d="m153.75 419.02c.4742 5.1385 1.8444 10.01 3.9078 14.497l19.781-11.421c-.34056-.99657-.61329-2.021-.80877-3.0763h-22.88z"/>
  <path d="m194.13 370.32c-21.389 1.9739-38.408 18.989-40.385 40.378h22.933c.10854-.54704.23716-1.0859.38548-1.6175.14833-.53164.31995-1.0576.50643-1.5722.18648-.51461.38925-1.0158.61224-1.5117.223-.49592.46019-.98321.71807-1.4588.51575-.95119 1.1006-1.8611 1.746-2.7211.64546-.86001 1.3543-1.6706 2.1164-2.4263.76209-.75567 1.5758-1.4556 2.4414-2.0937.86563-.63817 1.7801-1.2158 2.7362-1.7234.47805-.25376.96816-.49187 1.4664-.7105.49821-.21863 1.0101-.41527 1.5268-.59713.51673-.18186 1.0386-.34787 1.5722-.49131.53363-.14344 1.0762-.26699 1.6251-.37037v-23.084z"/>
  <path d="m194.13 370.32c-21.389 1.9739-38.408 18.989-40.385 40.378h22.933c.10854-.54704.23716-1.0859.38548-1.6175.14833-.53164.31995-1.0576.50643-1.5722.18648-.51461.38925-1.0158.61224-1.5117.223-.49592.46019-.98321.71807-1.4588.51575-.95119 1.1006-1.8611 1.746-2.7211.64546-.86001 1.3543-1.6706 2.1164-2.4263.76209-.75567 1.5758-1.4556 2.4414-2.0937.86563-.63817 1.7801-1.2158 2.7362-1.7234.47805-.25376.96816-.49187 1.4664-.7105.49821-.21863 1.0101-.41527 1.5268-.59713.51673-.18186 1.0386-.34787 1.5722-.49131.53363-.14344 1.0762-.26699 1.6251-.37037v-23.084z"/>
  <path d="m236.13 402.2c0 25.113-20.358 45.471-45.471 45.471-25.113 0-45.471-20.358-45.471-45.471 0-25.113 20.358-45.471 45.471-45.471 25.113 0 45.471 20.358 45.471 45.471z" transform="matrix(.24187453 0 0 .24187453 152.27787 317.58124)"/>
 </g>
</svg>
