<svg xmlns="http://www.w3.org/2000/svg" height="512" width="512"><g fill-rule="evenodd"><path d="M471.95 253.05c0 120.9-98.01 218.91-218.91 218.91S34.13 373.95 34.13 253.05 132.14 34.14 253.04 34.14s218.91 98.01 218.91 218.91" fill="#878787"/><path d="M255.693 167.51c-.97-.015-1.94-.01-2.904.018-2.208.062-4.4.253-6.552.545-18.3 2.483-33.495 12.633-42.04 28.07-4.905 10.525-5.75 14.03-5.88 24.53l-52.76-52.76h-33.253l.545 66.886c0 57.41-3.482 57.57 6.28 78.57 2.824 5.734 6.486 10.79 10.786 15.09L270.56 470.93c106.58-.69 192.237-107.45 199.953-194.83l-88.037-90.473c-17.385-17.865-44.848-22.476-68.36-11.71-5.606 2.566-11.606 5.925-13.324 7.48-2.89 2.615-3.422 2.55-7.04-.767-8.686-7.957-23.5-12.892-38.05-13.12" opacity=".25"/><path d="M256 1C115.17 1 1 115.17 1 256s114.17 255 255 255 255-114.17 255-255S396.83 1 256 1m8.827 44.93c120.9 0 218.9 98 218.9 218.9s-98 218.9-218.9 218.9-218.93-98-218.93-218.9 98.03-218.9 218.93-218.9" fill-opacity=".067"/><g fill-opacity=".129"><path d="M256 4.43C117.06 4.43 4.43 117.06 4.43 256S117.06 507.57 256 507.57 507.57 394.94 507.57 256 394.94 4.43 256 4.43m5.885 38.556c120.9 0 218.9 98 218.9 218.9s-98 218.9-218.9 218.9-218.93-98-218.93-218.9 98.03-218.9 218.93-218.9"/><path d="M256 8.36C119.23 8.36 8.36 119.23 8.36 256S119.23 503.64 256 503.64 503.64 392.77 503.64 256 392.77 8.36 256 8.36m2.942 31.69c120.9 0 218.9 98 218.9 218.9s-98 218.9-218.9 218.9-218.93-98-218.93-218.9 98.03-218.9 218.93-218.9"/></g><path d="M253.04 7.86C117.62 7.86 7.85 117.64 7.85 253.05c0 135.42 109.78 245.19 245.19 245.19 135.42 0 245.19-109.78 245.19-245.19 0-135.42-109.78-245.19-245.19-245.19m0 26.297c120.9 0 218.9 98 218.9 218.9s-98 218.9-218.9 218.9-218.93-98-218.93-218.9 98.03-218.9 218.93-218.9z" fill="#fff" stroke="#000" stroke-opacity=".31" stroke-width="4.904"/></g><path d="M252.793 166.978c-2.207.062-4.4.254-6.552.546-18.298 2.483-33.493 12.63-42.04 28.06-7.836 16.818-5.31 15.687-6.06 53.89-.832 42.48-1.08 44.87-4.858 50.944-5.468 8.793-11.938 12.58-21.677 12.722-8.865.13-14.953-3.268-21.404-11.903-3.462-4.637-3.615-7.31-4.094-69.34l-.546-64.54h-33.252l.546 66.886c0 57.41-3.483 57.57 6.28 78.57 13.167 26.736 44.52 38.698 74.04 28.28 9.42-3.324 21.408-12.198 26.644-19.766 8.825-12.754 9.774-18.553 9.774-61.21 0-37.618.196-39.975 3.93-47.28 5.438-10.64 11.792-14.906 22.278-14.906 9.78 0 16.378 4.05 21.84 13.324 3.295 5.595 3.498 9.554 3.986 70.11l.546 64.21h31.286v-60.716c.006-34.455.77-63.37 1.747-66.886 4.207-12.465 15.93-18.266 24.46-18.29 12.11.427 20.858 6.274 24.462 18.29.976 3.514 1.687 32.43 1.693 66.886l.055 60.716h31.45v-66.94c0-74.72-.312-76.85-11.74-90.2-17.408-20.34-46.526-26.49-71.47-15.07-5.605 2.566-11.604 5.925-13.322 7.48-2.89 2.615-3.422 2.552-7.04-.765-9.265-8.49-25.5-13.538-40.95-13.1" fill="#fff" fill-rule="evenodd"/></svg>