<svg viewBox="0 0 512 512" xmlns="http://www.w3.org/2000/svg">
 <g fill-rule="evenodd">
  <path d="m471.95 253.05c0 120.9-98.01 218.91-218.91 218.91s-218.91-98.01-218.91-218.91 98.01-218.91 218.91-218.91 218.91 98.01 218.91 218.91" fill="#8f8f8f"/>
  <path d="m256 1c-140.83 0-255 114.17-255 255s114.17 255 255 255 255-114.17 255-255-114.17-255-255-255m8.827 44.931c120.9 0 218.9 98 218.9 218.9s-98 218.9-218.9 218.9-218.93-98-218.93-218.9 98.03-218.9 218.93-218.9" fill-opacity=".067"/>
  <g fill-opacity=".129">
   <path d="m256 4.43c-138.94 0-251.57 112.63-251.57 251.57s112.63 251.57 251.57 251.57 251.57-112.63 251.57-251.57-112.63-251.57-251.57-251.57m5.885 38.556c120.9 0 218.9 98 218.9 218.9s-98 218.9-218.9 218.9-218.93-98-218.93-218.9 98.03-218.9 218.93-218.9"/>
   <path d="m256 8.36c-136.77 0-247.64 110.87-247.64 247.64s110.87 247.64 247.64 247.64 247.64-110.87 247.64-247.64-110.87-247.64-247.64-247.64m2.942 31.691c120.9 0 218.9 98 218.9 218.9s-98 218.9-218.9 218.9-218.93-98-218.93-218.9 98.03-218.9 218.93-218.9"/>
  </g>
  <path d="m253.04 7.86c-135.42 0-245.19 109.78-245.19 245.19 0 135.42 109.78 245.19 245.19 245.19 135.42 0 245.19-109.78 245.19-245.19 0-135.42-109.78-245.19-245.19-245.19m0 26.297c120.9 0 218.9 98 218.9 218.9s-98 218.9-218.9 218.9-218.93-98-218.93-218.9 98.03-218.9 218.93-218.9z" fill="#ffffff" stroke="#000000" stroke-opacity=".31" stroke-width="4.904"/>
 </g>
 <g fill-rule="evenodd">
  <path d="m125.84 148.44c-4.81 0-8.688 3.877-8.688 8.688v215.78c0 4.81 3.877 8.688 8.688 8.688l86.59 86.59c13.159 2.468 26.728 3.773 40.604 3.773 120.9 0 218.91-98.01 218.91-218.91 0-6.648-.314-13.223-.895-19.721l-76.21-76.21c0-4.81-3.877-8.688-8.688-8.688h-260.31" opacity=".25"/>
  <path d="m125.84 148.44c-4.81 0-8.688 3.877-8.688 8.688v215.78c0 4.81 3.877 8.688 8.688 8.688h260.31c4.81 0 8.688-3.877 8.688-8.688v-215.78c0-4.81-3.877-8.688-8.688-8.688zm3.594 19.938h213.25v29.906h-213.25zm0 45.44h151.09v29.906h-151.09zm0 61.938h69.813v80.53h-69.813zm89.75 0h138.81v25.313h-138.81zm0 55.22h138.81v25.313h-138.81z" fill="#ffffff"/>
 </g>
</svg>
