<svg height="512" viewBox="0 0 512 512" width="512" xmlns="http://www.w3.org/2000/svg">
 <g fill-rule="evenodd">
  <path d="m471.95 253.05c0 120.9-98.01 218.9-218.9 218.9-120.9 0-218.9-98.01-218.9-218.9 0-120.9 98.01-218.9 218.9-218.9 120.9 0 218.9 98.01 218.9 218.9" fill="#878787"/>
  <path d="m254.75 109.38c-38.38 0-77.25 25.62-77.25 64.5v70.75h-28.438v158h .969v1h1v1h1v1h1v1h1v1h1v .969h.97v1h1v1h1v1h1v1h1v1h1v .969h1v1h .969v1h1v1h1v1h1v1h1v .969h1v1h .969v1h1v1h1v1h1v1h1v .969h1v1h .969v1h1v1h1v1h1v1h1v1h1v .969h.969v1h1v1h1v1h1v1h1v1h1v .969h1v1h .969v1h1v1h1v1h1v1h1v .969h1v1h .969v1h1v1h1v1h1v1h1v .969h1v1h .969v1h1v1h1v1h1v1h1v1h1v .969h.969v1h1v1h1v1h1v1h1v1h1v .969h1v1h .969v1h1v1h1v1h1v .469c12.13 2.083 24.589 3.188 37.31 3.188 109.52 0 200.27-80.46 216.38-185.47-.084-.093-.164-.191-.25-.281-.214-.207-.439-.42-.656-.625-.115-.122-.227-.253-.344-.375-.216-.208-.437-.419-.656-.625-.116-.123-.227-.253-.344-.375-.095-.092-.185-.19-.281-.281-.094-.094-.186-.188-.281-.281-.021-.021-.042-.041-.063-.063-.32-.34-.671-.665-1-1-.116-.123-.227-.253-.344-.375-.215-.208-.437-.419-.656-.625-.33-.323-.662-.65-1-.969-.115-.122-.227-.253-.344-.375-.214-.207-.439-.42-.656-.625-.115-.122-.227-.253-.344-.375-.214-.207-.439-.42-.656-.625-.115-.122-.227-.253-.344-.375-.053-.051-.103-.105-.156-.156-.094-.094-.187-.188-.281-.281-.061-.063-.126-.125-.188-.188-.32-.34-.671-.665-1-1-.436-.462-.892-.921-1.344-1.375-.068-.066-.15-.122-.219-.188-.472-.471-.948-.945-1.438-1.406-.115-.122-.227-.253-.344-.375-.214-.207-.439-.42-.656-.625-.115-.122-.227-.253-.344-.375-.053-.051-.103-.105-.156-.156-.094-.094-.187-.188-.281-.281-.061-.063-.126-.125-.188-.188-.32-.34-.671-.665-1-1-.436-.462-.892-.921-1.344-1.375-.068-.066-.15-.122-.219-.188-.472-.471-.948-.945-1.438-1.406-.115-.122-.227-.253-.344-.375-.214-.207-.439-.42-.656-.625-.115-.122-.227-.253-.344-.375-.216-.208-.437-.419-.656-.625-.116-.123-.227-.253-.344-.375-.095-.092-.185-.19-.281-.281-.094-.094-.186-.188-.281-.281-.021-.021-.042-.041-.063-.063-.32-.34-.671-.665-1-1-.116-.123-.227-.253-.344-.375-.215-.208-.437-.419-.656-.625-.33-.323-.662-.65-1-.969-.115-.122-.227-.253-.344-.375-.214-.207-.439-.42-.656-.625-.115-.122-.227-.253-.344-.375-.216-.208-.437-.419-.656-.625-.116-.123-.227-.253-.344-.375-.095-.092-.185-.19-.281-.281-.094-.094-.186-.188-.281-.281-.021-.021-.042-.041-.063-.063-.32-.34-.671-.665-1-1-.115-.122-.227-.253-.344-.375-.215-.208-.437-.419-.656-.625-.118-.121-.224-.255-.344-.375-.068-.066-.15-.122-.219-.188-.472-.471-.948-.945-1.438-1.406-.115-.122-.227-.253-.344-.375-.214-.207-.439-.42-.656-.625-.115-.122-.227-.253-.344-.375-.053-.051-.103-.105-.156-.156-.094-.094-.187-.188-.281-.281-.061-.063-.126-.125-.188-.188-.32-.34-.671-.665-1-1-.436-.462-.892-.921-1.344-1.375-.068-.066-.15-.122-.219-.188-.472-.471-.948-.945-1.438-1.406-.115-.122-.227-.253-.344-.375-.214-.207-.439-.42-.656-.625-.115-.122-.227-.253-.344-.375-.217-.209-.436-.418-.656-.625-.116-.123-.227-.253-.344-.375-.095-.092-.185-.19-.281-.281-.094-.094-.186-.188-.281-.281-.021-.021-.042-.041-.063-.063-.32-.34-.671-.665-1-1-.116-.123-.227-.253-.344-.375-.215-.208-.437-.419-.656-.625-.33-.323-.662-.65-1-.969-.115-.122-.227-.253-.344-.375-.214-.207-.439-.42-.656-.625-.115-.122-.227-.253-.344-.375-.216-.208-.437-.419-.656-.625-.116-.123-.227-.253-.344-.375-.095-.092-.185-.19-.281-.281-.094-.094-.186-.188-.281-.281-.021-.021-.042-.041-.063-.063-.32-.34-.671-.665-1-1-.116-.123-.227-.253-.344-.375-.215-.208-.437-.419-.656-.625-.33-.323-.662-.65-1-.969-.115-.122-.227-.253-.344-.375-.214-.207-.439-.42-.656-.625-.115-.122-.227-.253-.344-.375-.214-.207-.439-.42-.656-.625-.115-.122-.227-.253-.344-.375-.053-.051-.103-.105-.156-.156-.094-.094-.187-.188-.281-.281-.061-.063-.126-.125-.188-.188-.32-.34-.671-.665-1-1-.436-.462-.892-.921-1.344-1.375-.068-.066-.15-.122-.219-.188-.472-.471-.948-.945-1.438-1.406-.115-.122-.227-.253-.344-.375-.214-.207-.439-.42-.656-.625-.115-.122-.227-.253-.344-.375-.053-.051-.103-.105-.156-.156-.094-.094-.187-.188-.281-.281-.061-.063-.126-.125-.188-.188-.32-.34-.671-.665-1-1-.436-.462-.892-.921-1.344-1.375-.068-.066-.15-.122-.219-.188-.472-.471-.948-.945-1.438-1.406-.115-.122-.227-.253-.344-.375-.214-.207-.439-.42-.656-.625-.115-.122-.227-.253-.344-.375-.216-.208-.437-.419-.656-.625-.116-.123-.227-.253-.344-.375-.095-.092-.185-.19-.281-.281-.094-.094-.186-.188-.281-.281-.021-.021-.042-.041-.063-.063-.32-.34-.671-.665-1-1-.116-.123-.227-.253-.344-.375-.215-.208-.437-.419-.656-.625-.33-.323-.662-.65-1-.969-.115-.122-.227-.253-.344-.375-.214-.207-.439-.42-.656-.625-.115-.122-.227-.253-.344-.375-.216-.208-.437-.419-.656-.625-.116-.123-.227-.253-.344-.375-.095-.092-.185-.19-.281-.281-.094-.094-.186-.188-.281-.281-.021-.021-.042-.041-.063-.063-.32-.34-.671-.665-1-1-.116-.123-.227-.253-.344-.375-.215-.208-.437-.419-.656-.625-.33-.323-.662-.65-1-.969-.115-.122-.227-.253-.344-.375-.214-.207-.439-.42-.656-.625-.115-.122-.227-.253-.344-.375-.214-.207-.439-.42-.656-.625-.115-.122-.227-.253-.344-.375-.053-.051-.103-.105-.156-.156-.094-.094-.187-.188-.281-.281-.061-.063-.126-.125-.188-.188-.32-.34-.671-.665-1-1-.436-.462-.892-.921-1.344-1.375-.068-.066-.15-.122-.219-.188-.472-.471-.948-.945-1.438-1.406-.115-.122-.227-.253-.344-.375-.214-.207-.439-.42-.656-.625-.115-.122-.227-.253-.344-.375-.217-.209-.436-.418-.656-.625-.116-.123-.227-.253-.344-.375-.095-.092-.185-.19-.281-.281-.094-.094-.186-.188-.281-.281-.021-.021-.042-.041-.063-.063-.436-.462-.892-.921-1.344-1.375-.068-.066-.15-.122-.219-.188-.472-.471-.948-.945-1.438-1.406-.115-.122-.227-.253-.344-.375-.214-.207-.439-.42-.656-.625-.115-.122-.227-.253-.344-.375-.216-.208-.437-.419-.656-.625-.116-.123-.227-.253-.344-.375-.095-.092-.185-.19-.281-.281-.094-.094-.186-.188-.281-.281-.021-.021-.042-.041-.063-.063-.32-.34-.671-.665-1-1-.116-.123-.227-.253-.344-.375-.215-.208-.437-.419-.656-.625-.33-.323-.662-.65-1-.969-.115-.122-.227-.253-.344-.375-.214-.207-.439-.42-.656-.625-.115-.122-.227-.253-.344-.375-.214-.207-.439-.42-.656-.625-.116-.123-.227-.253-.344-.375-.095-.092-.185-.19-.281-.281-.094-.094-.186-.188-.281-.281-.021-.021-.042-.041-.063-.063-.32-.34-.671-.665-1-1-.115-.122-.227-.253-.344-.375-.215-.208-.437-.419-.656-.625-.118-.121-.224-.255-.344-.375-.068-.066-.15-.122-.219-.188-.472-.471-.948-.945-1.438-1.406-.115-.122-.227-.253-.344-.375-.214-.207-.439-.42-.656-.625-.115-.122-.227-.253-.344-.375-.053-.051-.103-.105-.156-.156-.094-.094-.187-.188-.281-.281-.061-.063-.126-.125-.188-.188-.32-.34-.671-.665-1-1-.436-.462-.892-.921-1.344-1.375-.068-.066-.15-.122-.219-.188-.472-.471-.948-.945-1.438-1.406-.115-.122-.227-.253-.344-.375-.214-.207-.439-.42-.656-.625-.115-.122-.227-.253-.344-.375-.217-.209-.436-.418-.656-.625-.116-.123-.227-.253-.344-.375-.095-.092-.185-.19-.281-.281-.094-.094-.186-.188-.281-.281-.021-.021-.042-.041-.063-.063-.32-.34-.671-.665-1-1-.116-.123-.227-.253-.344-.375-.215-.208-.437-.419-.656-.625-.33-.323-.662-.65-1-.969-.115-.122-.227-.253-.344-.375-.214-.207-.439-.42-.656-.625-.115-.122-.227-.253-.344-.375-.216-.208-.437-.419-.656-.625-.116-.123-.227-.253-.344-.375-.095-.092-.185-.19-.281-.281-.094-.094-.186-.188-.281-.281-.021-.021-.042-.041-.063-.063-.32-.34-.671-.665-1-1-.116-.123-.227-.253-.344-.375-.215-.208-.437-.419-.656-.625-.33-.323-.662-.65-1-.969-.115-.122-.227-.253-.344-.375-.214-.207-.439-.42-.656-.625-.115-.122-.227-.253-.344-.375-.214-.207-.439-.42-.656-.625-.115-.122-.227-.253-.344-.375-.053-.051-.103-.105-.156-.156-.094-.094-.187-.188-.281-.281-.061-.063-.126-.125-.188-.188-.32-.34-.671-.665-1-1-.436-.462-.892-.921-1.344-1.375-.068-.066-.15-.122-.219-.188-.472-.471-.948-.945-1.438-1.406-.115-.122-.227-.253-.344-.375-.214-.207-.439-.42-.656-.625-.115-.122-.227-.253-.344-.375-.217-.209-.436-.418-.656-.625-.116-.123-.227-.253-.344-.375-.095-.092-.185-.19-.281-.281-.094-.094-.186-.188-.281-.281-.021-.021-.042-.041-.063-.063-.436-.462-.892-.921-1.344-1.375-.068-.066-.15-.122-.219-.188-.472-.471-.948-.945-1.438-1.406-.115-.122-.227-.253-.344-.375-.214-.207-.439-.42-.656-.625-.115-.122-.227-.253-.344-.375-.216-.208-.437-.419-.656-.625-.116-.123-.227-.253-.344-.375-.095-.092-.185-.19-.281-.281-.094-.094-.186-.188-.281-.281-.021-.021-.042-.041-.063-.063-.32-.34-.671-.665-1-1-.116-.123-.227-.253-.344-.375-.215-.208-.437-.419-.656-.625-.33-.323-.662-.65-1-.969-.115-.122-.227-.253-.344-.375-.214-.207-.439-.42-.656-.625-.115-.122-.227-.253-.344-.375-.214-.207-.439-.42-.656-.625-.116-.123-.227-.253-.344-.375-.095-.092-.185-.19-.281-.281-.094-.094-.186-.188-.281-.281-.021-.021-.042-.041-.063-.063-.32-.34-.671-.665-1-1-.115-.122-.227-.253-.344-.375-.215-.208-.437-.419-.656-.625-.118-.121-.224-.255-.344-.375-.068-.066-.15-.122-.219-.188-.472-.471-.948-.945-1.438-1.406-.115-.122-.227-.253-.344-.375-.214-.207-.439-.42-.656-.625-.115-.122-.227-.253-.344-.375-.053-.051-.103-.105-.156-.156-.094-.094-.187-.188-.281-.281-.061-.063-.126-.125-.188-.188-.32-.34-.671-.665-1-1-.436-.462-.892-.921-1.344-1.375-.068-.066-.15-.122-.219-.188-.472-.471-.948-.945-1.438-1.406-.115-.122-.227-.253-.344-.375-.214-.207-.439-.42-.656-.625-.115-.122-.227-.253-.344-.375-.217-.209-.436-.418-.656-.625-.116-.123-.227-.253-.344-.375-.063-.061-.124-.126-.188-.188-.143-.149-.293-.29-.438-.438-.127-.124-.247-.252-.375-.375-13.66-13.717-34.662-23.594-61.16-23.594" fill-opacity=".235"/>
  <path d="m256 1c-140.83 0-255 114.17-255 255s114.17 255 255 255 255-114.17 255-255-114.17-255-255-255m8.827 44.931c120.9 0 218.9 98 218.9 218.9s-98 218.9-218.9 218.9-218.93-98-218.93-218.9 98.03-218.9 218.93-218.9" fill-opacity=".067"/>
  <g fill-opacity=".129">
   <path d="m256 4.433c-138.94 0-251.57 112.63-251.57 251.57s112.63 251.57 251.57 251.57 251.57-112.63 251.57-251.57-112.63-251.57-251.57-251.57m5.885 38.556c120.9 0 218.9 98 218.9 218.9s-98 218.9-218.9 218.9-218.93-98-218.93-218.9 98.03-218.9 218.93-218.9"/>
   <path d="m256 8.356c-136.77 0-247.64 110.87-247.64 247.64s110.87 247.64 247.64 247.64 247.64-110.87 247.64-247.64-110.87-247.64-247.64-247.64m2.942 31.691c120.9 0 218.9 98 218.9 218.9s-98 218.9-218.9 218.9-218.93-98-218.93-218.9 98.03-218.9 218.93-218.9"/>
  </g>
  <path d="m253.04 7.859c-135.42 0-245.19 109.78-245.19 245.19 0 135.42 109.78 245.19 245.19 245.19 135.42 0 245.19-109.78 245.19-245.19 0-135.42-109.78-245.19-245.19-245.19zm0 26.297c120.9 0 218.9 98 218.9 218.9s-98 218.9-218.9 218.9-218.93-98-218.93-218.9 98.03-218.9 218.93-218.9z" fill="#ffffff" stroke="#000000" stroke-opacity=".31" stroke-width="4.904"/>
 </g>
 <path d="m254.75 109.38c-38.38 0-77.25 25.62-77.25 64.5v70.75h-28.438v158h213.88v-158c-50.635-.013-103.95-.001-150.31 0l .063-.031v-63.22c0-23.843 23.723-36.469 41.5-36.563 20.665-.108 43.19 14.299 43.19 36.28v10.219h33.5c.931 0 1.849.07 2.75.188v-19.57c0-29.22-30.21-62.56-78.875-62.56m.406 169.91c11.824 0 21.406 9.582 21.406 21.406 0 7.05-3.427 13.287-8.688 17.188l8.5 47.625h-42.06l8.438-47.37c-5.441-3.882-9-10.244-9-17.438 0-11.824 9.582-21.406 21.406-21.406" fill="#ffffff" fill-rule="evenodd"/>
</svg>
