<svg height="512" viewBox="0 0 512 512" width="512" xmlns="http://www.w3.org/2000/svg">
 <path d="m471.95 253.05c0 120.9-98.01 218.9-218.9 218.9-120.9 0-218.9-98.01-218.9-218.9 0-120.9 98.01-218.9 218.9-218.9 120.9 0 218.9 98.01 218.9 218.9" fill="#878787" fill-rule="evenodd"/>
 <path d="m185.63 141v24.75c-15.856 1.742-28.399 6.491-37.656 14.281-9.257 7.791-13.875 17.746-13.875 29.844 0 12.556 3.897 22.872 11.688 30.938.218.223.461.435.688.656.107.114.204.231.313.344.218.223.461.435.688.656.105.111.206.233.313.344.261.268.539.516.813.781.065.069.121.15.188.219.168.161.327.309.5.469.337.334.643.67 1 1 .041.041.083.084.125.125.117.124.225.252.344.375.175.168.351.333.531.5.041.041.083.084.125.125.117.124.225.252.344.375.175.168.351.333.531.5.041.041.083.084.125.125.117.124.225.252.344.375.175.168.351.333.531.5.026.026.067.037.094.063.13.138.243.301.375.438.218.223.461.435.688.656.105.111.206.233.313.344.256.262.513.521.781.781.062.065.125.123.188.188.179.171.347.33.531.5.041.041.083.084.125.125.117.124.225.252.344.375.175.168.351.333.531.5.041.041.083.084.125.125.117.124.225.252.344.375.175.168.351.333.531.5.041.041.083.084.125.125.117.124.225.252.344.375.175.168.351.333.531.5.156.166.31.336.469.5.218.223.461.435.688.656.105.111.206.233.313.344.256.262.513.521.781.781.062.065.125.123.188.188.179.171.347.33.531.5.041.041.083.084.125.125.117.124.225.252.344.375.175.168.351.333.531.5.041.041.083.084.125.125.117.124.225.252.344.375.175.168.351.333.531.5.041.041.083.084.125.125.117.124.225.252.344.375.175.168.351.333.531.5.031.031.062.063.094.094.127.135.246.272.375.406.218.223.461.435.688.656.105.111.206.233.313.344.256.262.513.521.781.781.062.065.125.123.188.188.179.171.347.33.531.5.041.041.083.084.125.125.117.124.225.252.344.375.175.168.351.333.531.5.041.041.083.084.125.125.117.124.225.252.344.375.175.168.351.333.531.5.041.041.083.084.125.125.117.124.225.252.344.375.175.168.351.333.531.5.031.031.062.063.094.094.127.135.246.272.375.406.218.223.461.435.688.656.105.111.206.233.313.344.261.268.539.516.813.781.065.069.121.15.188.219.168.161.327.309.5.469l.125.125c.117.124.225.252.344.375.179.171.347.33.531.5.041.041.083.084.125.125.117.124.225.252.344.375.175.168.351.333.531.5.041.041.083.084.125.125.117.124.225.252.344.375.175.168.351.333.531.5.041.041.083.084.125.125.117.124.225.252.344.375.175.168.351.333.531.5.156.166.31.336.469.5.218.223.461.435.688.656.105.111.206.233.313.344.256.262.513.521.781.781.062.065.125.123.188.188.179.171.347.33.531.5.041.041.083.084.125.125.117.124.225.252.344.375.175.168.351.333.531.5.041.041.083.084.125.125.117.124.225.252.344.375.175.168.351.333.531.5.041.041.083.084.125.125.117.124.225.252.344.375.175.168.351.333.531.5.031.031.062.063.094.094.127.135.246.272.375.406.238.244.501.477.75.719.085.09.164.192.25.281.005.005.026-.005.031 0s-.005.026 0 .031v39.875c-9.07-.183-18.604-1.396-28.594-3.688-9.898-2.383-18.282-5.198-25.16-8.406v23.09c.325.148.666.293 1 .438v.563c.325.148.666.293 1 .438v.563c.325.148.666.293 1 .438v.563c.313.143.648.267.969.406v.563c.32.146.671.295 1 .438v.563c.325.148.666.293 1 .438v.563c.325.148.666.293 1 .438v.563c.325.148.666.293 1 .438v.563c.325.148.666.293 1 .438v.563c.313.143.648.267.969.406v.563c.32.146.671.295 1 .438v.563c.321.146.67.294 1 .438v.563c.325.148.666.293 1 .438v.563c.325.148.666.293 1 .438v.563c.325.148.666.293 1 .438v.563c.313.143.648.267.969.406v.563c.32.146.671.295 1 .438v.563c.32.146.671.295 1 .438v.563c.325.148.666.293 1 .438v.563c.325.148.666.293 1 .438v.563c.325.148.666.293 1 .438v.563c.313.143.648.267.969.406v.563c.32.146.671.295 1 .438v.563c.32.146.671.295 1 .438v.563c.325.148.666.293 1 .438v.563c.325.148.666.293 1 .438v.563c.325.148.666.293 1 .438v.563c.325.148.666.293 1 .438v.563c.313.143.648.267.969.406v.563c.32.146.671.295 1 .438v.563c.321.146.67.294 1 .438v.563c.325.148.666.293 1 .438v.563c.325.148.666.293 1 .438v.563c.325.148.666.293 1 .438v.563c.313.143.648.267.969.406v.563c.32.146.671.295 1 .438v.563c.321.146.67.294 1 .438v.563c.325.148.666.293 1 .438v.563c.325.148.666.293 1 .438v.563c.325.148.666.293 1 .438v.563c.313.143.648.267.969.406v.563c.32.146.671.295 1 .438v.563c.32.146.671.295 1 .438v.563c.325.148.666.293 1 .438v.563c.325.148.666.293 1 .438v.563c.325.148.666.293 1 .438v.563c.325.148.666.293 1 .438v.563c.313.143.648.267.969.406v.563c.32.146.671.295 1 .438v.563c.325.148.666.293 1 .438v.563c.325.148.666.293 1 .438v.563c.325.148.666.293 1 .438v.563c.325.148.666.293 1 .438v.563c.313.143.648.267.969.406v.563c.32.146.671.295 1 .438v.563c.321.146.67.294 1 .438v.563c.325.148.666.293 1 .438v.563c.325.148.666.293 1 .438v.563c.325.148.666.293 1 .438v.563c.313.143.648.267.969.406v.563c.32.146.671.295 1 .438v.563c.32.146.671.295 1 .438v.563c.325.148.666.293 1 .438v.563c.325.148.666.293 1 .438v.563c.325.148.666.293 1 .438v.563c.313.143.648.267.969.406v.563c.32.146.671.295 1 .438v.563c.32.146.671.295 1 .438v.563c.325.148.666.293 1 .438v.563c.325.148.666.293 1 .438v.563c.325.148.666.293 1 .438v.563c.325.148.666.293 1 .438v.563c.313.143.648.267.969.406v.563c.32.146.671.295 1 .438v.563c.321.146.67.294 1 .438v.563c.325.148.666.293 1 .438v.563c.325.148.666.293 1 .438v.563c.325.148.666.293 1 .438v.563c.313.143.648.267.969.406v.563c.32.146.671.295 1 .438v.563c.321.146.67.294 1 .438v.563c.325.148.666.293 1 .438v.563c.325.148.666.293 1 .438v.563c.325.148.666.293 1 .438v.563c.313.143.648.267.969.406v.563c.32.146.671.295 1 .438v.563c.32.146.671.295 1 .438v.563c.325.148.666.293 1 .438v.563c.325.148.666.293 1 .438v.563c.325.148.666.293 1 .438v.563c.325.148.666.293 1 .438v.563c.313.143.648.267.969.406v.563c.32.146.671.295 1 .438v.563c.325.148.666.293 1 .438v.563c.325.148.666.293 1 .438v.563c.325.148.666.293 1 .438v.563c.325.148.666.293 1 .438v.563c.313.143.648.267.969.406v.563c.32.146.671.295 1 .438v.563c.321.146.67.294 1 .438v.563c.325.148.666.293 1 .438v.563c.325.148.666.293 1 .438v.563c.325.148.666.293 1 .438v.563c.313.143.648.267.969.406v.563c.32.146.671.295 1 .438v.563c.32.146.671.295 1 .438v.563c.325.148.666.293 1 .438v.563c.325.148.666.293 1 .438v.563c.325.148.666.293 1 .438v.563c.313.143.648.267.969.406v.563c.32.146.671.295 1 .438v.563c.32.146.671.295 1 .438v.563c.325.148.666.293 1 .438v.563c.325.148.666.293 1 .438v.563c.325.148.666.293 1 .438v.563c.325.148.666.293 1 .438v.563c.313.143.648.267.969.406v.563c.32.146.671.295 1 .438v.563c.325.148.666.293 1 .438v.563c.325.148.666.293 1 .438v.563c.325.148.666.293 1 .438v.563c.325.148.666.293 1 .438v.563c.313.143.648.267.969.406v.563c.32.146.671.295 1 .438v.563c.321.146.67.294 1 .438v.563c.325.148.666.293 1 .438v.563c.325.148.666.293 1 .438v.563c.325.148.666.293 1 .438v.563c.313.143.648.267.969.406v.563c.32.146.671.295 1 .438v.563c.32.146.671.295 1 .438v.563c.325.148.666.293 1 .438v.563c.325.148.666.293 1 .438v.563c.325.148.666.293 1 .438v.563c.325.148.666.293 1 .438v.563c.313.143.648.267.969.406v.563c.32.146.671.295 1 .438v.563c.325.148.666.293 1 .438v.563c.325.148.666.293 1 .438v.563c.325.148.666.293 1 .438v.563c.212.097.436.186.656.281 112.09-9.539 200.09-103.5 200.09-218.06 0-4.553-.163-9.08-.438-13.563h-.656v-1h-.969v-.969h-1v-1h-1v-1h-1v-1h-1v-1h-1v-1h-.969v-.969h-1v-1h-1v-1h-1v-1h-1v-1h-1v-1h-1v-1h-.969v-.969h-1v-1h-1v-1h-1v-1h-1v-1h-1v-1h-.969v-.969h-1v-1h-1v-1h-1v-1h-1v-1h-1v-1h-.969v-.969h-1v-1h-1v-1h-1v-1h-1v-1h-1v-1h-1v-1h-.969v-.969h-1v-1h-1v-1h-1v-1h-1v-1h-1v-1h-.969v-.969h-1v-1h-1v-1h-1v-1h-1v-1h-1v-1h-.969v-.969h-1v-1h-1v-1h-1v-1h-1v-1h-1v-1h-.969v-.969h-1v-1h-1v-1h-1v-1h-1v-1h-1v-1h-1v-1h-.969v-.969h-1v-1h-1v-1h-1v-1h-1v-1h-1v-1h-.969v-.969h-1v-1h-1v-1h-1v-1h-1v-1h-1v-1h-.969v-.969h-1v-1h-1v-1h-1v-1h-1v-1h-1v-1h-1v-1h-.969v-.969h-1v-1h-1v-1h-1v-1h-1v-1h-1v-1h-.969v-.969h-1v-1h-1v-1h-1v-1h-1v-1h-1v-1h-.969v-.969h-1v-1h-1v-1h-1v-1h-1v-1h-1v-1h-.969v-.969h-1v-1h-1v-1h-1v-1h-107.25v47.781c-.364-.151-.729-.29-1.094-.438.01-.026.219-.5.219-.5-.407-.169-.81-.335-1.219-.5.01-.026.219-.5.219-.5-.407-.169-.81-.335-1.219-.5.01-.026.219-.5.219-.5-.386-.16-.769-.312-1.156-.469.01-.024.188-.5.188-.5-.4-.166-.818-.307-1.219-.469.011-.028.219-.531.219-.531-.4-.166-.818-.307-1.219-.469.011-.028.219-.531.219-.531-.407-.169-.81-.335-1.219-.5.01-.026.219-.5.219-.5-.407-.169-.81-.335-1.219-.5.01-.026.219-.5.219-.5-.407-.169-.81-.335-1.219-.5.01-.026.219-.5.219-.5-.386-.16-.769-.312-1.156-.469.01-.025.188-.5.188-.5h-.031c-.395-.164-.792-.309-1.188-.469.011-.028.219-.531.219-.531-.4-.166-.818-.307-1.219-.469.011-.028.219-.531.219-.531-.4-.166-.818-.307-1.219-.469.011-.028.219-.531.219-.531-7.07-2.937-14.322-5.266-21.75-6.969v-.063h-.281c-.239-.054-.48-.103-.719-.156v-.844h-1v-1h-1v-1h-1v-1h-1v-1h-1v-1h-.969v-.969h-1v-1h-1v-1h-1v-1h-1v-1h-1v-1h-.969v-.969h-1v-1h-1v-1h-1v-1h-1v-1h-1v-1h-.969v-.969h-1v-1h-1v-1h-1v-1h-1v-1h-1v-1h-.969v-.969h-1v-1h-1v-1h-1v-1h-18.03m80.47 48.16v.25c-.03-.012-.063-.019-.094-.031.005-.012.091-.212.094-.219" fill-opacity=".235"/>
 <g fill-rule="evenodd">
  <path d="m256 1c-140.83 0-255 114.17-255 255s114.17 255 255 255 255-114.17 255-255-114.17-255-255-255m8.827 44.931c120.9 0 218.9 98 218.9 218.9s-98 218.9-218.9 218.9-218.93-98-218.93-218.9 98.03-218.9 218.93-218.9" fill-opacity=".067"/>
  <g fill-opacity=".129">
   <path d="m256 4.433c-138.94 0-251.57 112.63-251.57 251.57s112.63 251.57 251.57 251.57 251.57-112.63 251.57-251.57-112.63-251.57-251.57-251.57m5.885 38.556c120.9 0 218.9 98 218.9 218.9s-98 218.9-218.9 218.9-218.93-98-218.93-218.9 98.03-218.9 218.93-218.9"/>
   <path d="m256 8.356c-136.77 0-247.64 110.87-247.64 247.64s110.87 247.64 247.64 247.64 247.64-110.87 247.64-247.64-110.87-247.64-247.64-247.64m2.942 31.691c120.9 0 218.9 98 218.9 218.9s-98 218.9-218.9 218.9-218.93-98-218.93-218.9 98.03-218.9 218.93-218.9"/>
  </g>
  <path d="m253.04 7.859c-135.42 0-245.19 109.78-245.19 245.19 0 135.42 109.78 245.19 245.19 245.19 135.42 0 245.19-109.78 245.19-245.19 0-135.42-109.78-245.19-245.19-245.19zm0 26.297c120.9 0 218.9 98 218.9 218.9s-98 218.9-218.9 218.9-218.93-98-218.93-218.9 98.03-218.9 218.93-218.9z" fill="#ffffff" stroke="#000000" stroke-opacity=".31" stroke-width="4.904"/>
 </g>
 <path d="m257.4 292.91c0 12.556-4.674 22.959-14.02 31.21-9.257 8.249-22.501 13.427-39.731 15.535v31.34h-18.01v-30.11c-10.448-.183-20.484-1.054-30.11-2.612-9.532-1.65-17.414-3.895-23.646-6.736v-23.1c6.874 3.208 15.26 6 25.16 8.386 9.99 2.291 19.522 3.529 28.595 3.712v-58.84c-18.789-5.957-32.08-12.923-39.869-20.897-7.79-8.07-11.686-18.376-11.686-30.932 0-12.1 4.628-22.04 13.885-29.833 9.257-7.79 21.813-12.556 37.669-14.298v-24.746h18.01v24.471c17.414.458 33.957 3.941 49.629 10.448l-7.699 19.384c-14.206-5.591-28.18-8.89-41.931-9.898v58.02c14.664 4.949 25.571 9.624 32.72 14.02 7.24 4.399 12.556 9.44 15.947 15.12 3.391 5.591 5.087 12.373 5.087 20.347m-25.02 1.787c0-6.599-2.154-11.823-6.461-15.672-4.308-3.941-11.732-7.744-22.271-11.411v51.55c19.16-2.933 28.733-11.09 28.733-24.471m-73.14-85.1c0 6.691 1.97 12.1 5.912 16.222 3.941 4.124 10.769 7.928 20.484 11.411v-51.28c-8.615 1.467-15.168 4.262-19.659 8.386-4.491 4.124-6.736 9.211-6.736 15.26" fill="#ffffff"/>
 <path d="m266.1 141h107.24v230h-107.24z" fill="#ffffff" fill-rule="evenodd"/>
</svg>
