<svg viewBox="0 0 512 512" xmlns="http://www.w3.org/2000/svg">
 <g fill-rule="evenodd">
  <path d="m471.95 253.05c0 120.9-98.01 218.91-218.91 218.91s-218.91-98.01-218.91-218.91 98.01-218.91 218.91-218.91 218.91 98.01 218.91 218.91" fill="#9f9f9f"/>
  <path d="m256 1c-140.83 0-255 114.17-255 255s114.17 255 255 255 255-114.17 255-255-114.17-255-255-255m8.827 44.931c120.9 0 218.9 98 218.9 218.9s-98 218.9-218.9 218.9-218.93-98-218.93-218.9 98.03-218.9 218.93-218.9" fill-opacity=".067"/>
  <g fill-opacity=".129">
   <path d="m256 4.43c-138.94 0-251.57 112.63-251.57 251.57s112.63 251.57 251.57 251.57 251.57-112.63 251.57-251.57-112.63-251.57-251.57-251.57m5.885 38.556c120.9 0 218.9 98 218.9 218.9s-98 218.9-218.9 218.9-218.93-98-218.93-218.9 98.03-218.9 218.93-218.9"/>
   <path d="m256 8.36c-136.77 0-247.64 110.87-247.64 247.64s110.87 247.64 247.64 247.64 247.64-110.87 247.64-247.64-110.87-247.64-247.64-247.64m2.942 31.691c120.9 0 218.9 98 218.9 218.9s-98 218.9-218.9 218.9-218.93-98-218.93-218.9 98.03-218.9 218.93-218.9"/>
  </g>
  <path d="m253.04 7.86c-135.42 0-245.19 109.78-245.19 245.19 0 135.42 109.78 245.19 245.19 245.19 135.42 0 245.19-109.78 245.19-245.19 0-135.42-109.78-245.19-245.19-245.19m0 26.297c120.9 0 218.9 98 218.9 218.9s-98 218.9-218.9 218.9-218.93-98-218.93-218.9 98.03-218.9 218.93-218.9z" fill="#ffffff" stroke="#000000" stroke-opacity=".31" stroke-width="4.904"/>
 </g>
 <path d="m360.73 134.08c-23.16 0-34.919 7.998-44.14 19.08-9.225 11.09-14.756 25.871-21.09 38.564-4.256 8.525-13.75 40.21-22.49 70.12-.181.619-.362 1.229-.543 1.848l-77.65-77.65c-7.478-7.478-15.751-12.836-22.676-16.492 5.962 6.761 10.755 15.317 13.637 25.418 2.325 8.148 3.965 17.02 5.189 26.18l-37.709-37.709c-4.701-4.701-10.04-7.266-14.664-7.998-1.095-.173-2.149-.254-3.137-.246-2.963.024-5.431.844-7.41 2.221-2.638 1.836-4.931 4.788-5.963 10.99l-.658-.098c.42 16.933 11.6 28.13 11.6 28.13l62.4 62.4c.576 9.06 1.218 17.408 2.127 24.301 1.189 9.01 3.482 15.701 4.156 16.715.842 1.265 1.736 2.357 2.67 3.291l25.11 25.11c-4.546 1.853-9.362 2.828-14.191 2.828-4.442 0-8.858-.829-13.08-2.402 2.88 4.01 6.488 8.496 10.723 12.73l101.73 101.73c90.89-26.618 157.28-110.6 157.28-210.1 0-9.156-.571-18.18-1.662-27.04l-84.91-84.91c-.082-.082-.165-.165-.25-.246-3.594-3.443-10.338-6.777-24.396-6.777" opacity=".25"/>
 <path d="m360.73 134.08c-23.16 0-34.918 7.998-44.14 19.08-9.225 11.09-14.757 25.871-21.09 38.564-4.256 8.525-13.75 40.21-22.49 70.12-4.37 14.953-8.755 29.814-12.847 42.2s-7.198 21.622-11.927 28.726c-7.803 11.722-20.335 18.311-32.939 18.311-4.442 0-8.857-.829-13.08-2.402 14.958 20.813 49.5 54.596 89.83-1.662 27.97-39.01 37.31-123.05 57.06-154.69 25.1-40.23 37.717-30.711 40.71-27.344.563-3.293.888-6.726.739-10-.276-6.075-1.828-10.69-5.421-14.13-3.594-3.443-10.338-6.778-24.396-6.778m-188.6 35.471c5.962 6.761 10.754 15.318 13.636 25.419 6.441 22.574 7.683 50.629 9.134 75.34.726 12.353 1.456 23.826 2.645 32.839 1.189 9.01 3.482 15.702 4.156 16.716 3.832 5.756 8.739 7.93 13.586 7.93 4.848 0 9.771-2.174 13.603-7.93 1.01-1.513 4.662-9.934 8.296-20.549-6.136-2.576-15.03-16.972-21.899-72.01-3.965-31.769-27.16-49.3-43.16-57.748m-36.685 5.643c-2.963.024-5.43.844-7.409 2.221-2.638 1.836-4.931 4.788-5.963 10.99l-.657-.099c.42 16.933 11.599 28.13 11.599 28.13s-.003-11.647 11.631-17.472c6.275-3.142 14.1 1.966 19.993 7.321-.396-1.689-.819-3.356-1.265-4.919-4.732-16.585-16.03-24.543-24.791-25.929-1.095-.173-2.15-.255-3.138-.247" fill="#ffffff"/>
</svg>
