<svg height="512" viewBox="0 0 512 512" width="512" xmlns="http://www.w3.org/2000/svg">
 <path d="m471.95 253.05c0 120.9-98.01 218.9-218.9 218.9-120.9 0-218.9-98.01-218.9-218.9 0-120.9 98.01-218.9 218.9-218.9 120.9 0 218.9 98.01 218.9 218.9" fill="#8f8f8f" fill-rule="evenodd"/>
 <path d="m256 1c-140.83 0-255 114.17-255 255 0 140.83 114.17 255 255 255 140.83 0 255-114.17 255-255 0-140.83-114.17-255-255-255m8.827 44.931c120.9 0 218.9 98 218.9 218.9 0 120.9-98 218.9-218.9 218.9-120.9 0-218.93-98-218.93-218.9 0-120.9 98.03-218.9 218.93-218.9" fill-opacity=".067" fill-rule="evenodd"/>
 <g fill-opacity=".129" fill-rule="evenodd">
  <path d="m256 4.433c-138.94 0-251.57 112.63-251.57 251.57 0 138.94 112.63 251.57 251.57 251.57 138.94 0 251.57-112.63 251.57-251.57 0-138.94-112.63-251.57-251.57-251.57m5.885 38.556c120.9 0 218.9 98 218.9 218.9 0 120.9-98 218.9-218.9 218.9-120.9 0-218.93-98-218.93-218.9 0-120.9 98.03-218.9 218.93-218.9"/>
  <path d="m256 8.356c-136.77 0-247.64 110.87-247.64 247.64 0 136.77 110.87 247.64 247.64 247.64 136.77 0 247.64-110.87 247.64-247.64 0-136.77-110.87-247.64-247.64-247.64m2.942 31.691c120.9 0 218.9 98 218.9 218.9 0 120.9-98 218.9-218.9 218.9-120.9 0-218.93-98-218.93-218.9 0-120.9 98.03-218.9 218.93-218.9"/>
 </g>
 <path d="m253.04 7.859c-135.42 0-245.19 109.78-245.19 245.19 0 135.42 109.78 245.19 245.19 245.19 135.42 0 245.19-109.78 245.19-245.19 0-135.42-109.78-245.19-245.19-245.19zm0 26.297c120.9 0 218.9 98 218.9 218.9 0 120.9-98 218.9-218.9 218.9-120.9 0-218.93-98-218.93-218.9 0-120.9 98.03-218.9 218.93-218.9z" fill="#ffffff" fill-rule="evenodd" stroke="#000000" stroke-opacity=".31" stroke-width="4.904"/>
 <path d="m158.88011 121.28934c-27.13 0-49.41 22.28-49.41 49.41v108.28c0 13.761 5.746 26.26 14.938 35.25.327.339.663.671 1 1 .327.339.663.671 1 1 .358.371.724.734 1.094 1.094.36.37.723.735 1.094 1.094.329.337.661.673 1 1 .293.3.574.614.875.906.262.269.545.518.813.781.357.371.725.734 1.094 1.094.358.371.724.734 1.094 1.094.36.37.723.735 1.094 1.094.329.337.661.673 1 1 .293.3.574.614.875.906.262.269.545.518.813.781.357.371.725.734 1.094 1.094.358.371.724.734 1.094 1.094.36.37.723.735 1.094 1.094.329.337.661.673 1 1 .293.3.574.614.875.906.262.269.545.518.813.781.357.371.725.734 1.094 1.094.307.318.622.628.938.938.428.444.869.885 1.313 1.313.309.315.62.631.938.938.329.337.661.673 1 1 .293.3.574.614.875.906.262.269.545.518.813.781.357.371.725.734 1.094 1.094.358.371.724.734 1.094 1.094.36.37.723.735 1.094 1.094.329.337.661.673 1 1 .293.3.574.614.875.906.262.269.545.518.813.781.357.371.725.734 1.094 1.094.358.371.724.734 1.094 1.094.36.37.723.735 1.094 1.094.329.337.661.673 1 1 .293.3.574.614.875.906.262.269.545.518.813.781.357.371.725.734 1.094 1.094.358.371.724.734 1.094 1.094.36.37.723.735 1.094 1.094.329.337.661.673 1 1 .329.337.661.673 1 1 .228.233.455.459.688.688.357.371.725.734 1.094 1.094.327.339.663.671 1 1 .358.371.724.734 1.094 1.094.36.37.723.735 1.094 1.094.329.337.661.673 1 1 .293.3.574.614.875.906.262.269.545.518.813.781.357.371.725.734 1.094 1.094.358.371.724.734 1.094 1.094.36.37.723.735 1.094 1.094.329.337.661.673 1 1 .293.3.574.614.875.906.262.269.545.518.813.781.357.371.725.734 1.094 1.094.358.371.724.734 1.094 1.094.36.37.723.735 1.094 1.094.329.337.661.673 1 1 .293.3.574.614.875.906.262.269.545.518.813.781.147.153.288.317.438.469h-3.469c-4.432 0-8 3.568-8 8 0 2.509 1.141 4.754 2.938 6.219.308.355.634.705 1 1 .281.321.608.603.938.875.317.371.651.725 1.031 1.031.299.345.614.65.969.938.303.351.639.677 1 .969.301.349.61.678.969.969.3.347.643.68 1 .969.298.346.614.681.969.969.301.348.61.68.969.969.284.331.601.629.938.906.312.37.654.728 1.031 1.031.279.324.607.634.938.906.309.366.658.731 1.031 1.031.31.36.658.705 1.031 1 .267.307.561.616.875.875.292.35.617.648.969.938.298.361.607.671.969.969.296.359.641.672 1 .969.295.357.611.674.969.969.293.356.644.676 1 .969.292.354.615.677.969.969.313.38.677.724 1.063 1.031.274.324.579.605.906.875.294.36.61.673.969.969.306.376.654.695 1.031 1 .283.344.594.654.938.938.322.395.694.747 1.094 1.063.265.313.559.614.875.875.31.38.679.725 1.063 1.031.279.333.569.632.906.906.292.358.642.677 1 .969.29.356.613.679.969.969.303.372.656.701 1.031 1 .304.369.655.704 1.031 1 .295.353.606.684.969.969.294.351.639.686 1 .969.273.327.575.608.906.875.308.381.646.729 1.031 1.031.277.336.599.633.938.906.304.377.65.732 1.031 1.031.292.354.608.686.969.969.292.354.638.686 1 .969.303.368.652.71 1.031 1 .271.324.575.612.906.875.306.379.646.733 1.031 1.031.283.344.587.663.938.938.29.357.638.686 1 .969.288.354.609.687.969.969.278.343.623.663.969.938.285.36.609.683.969.969.287.362.606.683.969.969.28.355.616.655.969.938.29.372.63.708 1 1 .303.384.674.703 1.063 1 .28.347.586.663.938.938.295.372.623.711 1 1 .28.351.614.662.969.938.281.356.611.658.969.938.294.377.621.709 1 1 .28.354.612.661.969.938.283.363.606.686.969.969.295.378.649.71 1.031 1 .293.37.622.717 1 1 .296.371.65.686 1.031.969.277.342.586.641.938.906.277.354.582.664.938.938.308.4.655.764 1.063 1.063.281.35.608.669.969.938.293.37.619.721 1 1 .28.348.609.64.969.906.282.36.602.695.969.969.275.355.58.666.938.938.296.389.637.742 1.031 1.031.274.349.582.64.938.906.277.364.604.693.969.969.299.395.66.741 1.063 1.031.29.369.618.695 1 .969.285.359.627.703 1 .969.258.325.543.626.875.875.286.387.612.715 1 1 .318.423.685.797 1.125 1.094.251.308.523.608.844.844.272.362.604.668.969.938.315.426.685.797 1.125 1.094.108.135.199.28.313.406 117.79-3.548 212.19-100.13 212.19-218.78 0-13.815-1.271-27.332-3.719-40.44-.349-.359-.702-.714-1.063-1.063-.36-.368-.722-.737-1.094-1.094-.263-.268-.512-.551-.781-.813-.293-.301-.606-.582-.906-.875-.327-.339-.663-.671-1-1-.358-.371-.724-.734-1.094-1.094-.36-.37-.723-.735-1.094-1.094-.36-.368-.722-.737-1.094-1.094-.263-.268-.512-.551-.781-.813-.293-.301-.606-.582-.906-.875-.327-.339-.663-.671-1-1-.199-.206-.391-.423-.594-.625-.532-.563-1.099-1.088-1.656-1.625-.309-.315-.62-.631-.938-.938-.36-.368-.722-.737-1.094-1.094-.263-.268-.512-.551-.781-.813-.293-.301-.606-.582-.906-.875-.327-.339-.663-.671-1-1-.358-.371-.724-.734-1.094-1.094-.36-.37-.723-.735-1.094-1.094-.36-.368-.722-.737-1.094-1.094-.263-.268-.512-.551-.781-.813-.293-.301-.606-.582-.906-.875-.327-.339-.663-.671-1-1-.358-.371-.724-.734-1.094-1.094-.36-.37-.723-.735-1.094-1.094-.36-.368-.722-.737-1.094-1.094-.263-.268-.512-.551-.781-.813-.293-.301-.606-.582-.906-.875-.327-.339-.663-.671-1-1-.307-.318-.622-.628-.938-.938-.537-.558-1.062-1.124-1.625-1.656-.202-.202-.419-.395-.625-.594-.36-.368-.722-.737-1.094-1.094-.228-.232-.455-.46-.688-.688-.327-.339-.663-.671-1-1-.327-.339-.663-.671-1-1-.358-.371-.724-.734-1.094-1.094-.36-.37-.723-.735-1.094-1.094-.36-.368-.722-.737-1.094-1.094-.263-.268-.512-.551-.781-.813-.293-.301-.606-.582-.906-.875-.327-.339-.663-.671-1-1-.358-.371-.724-.734-1.094-1.094-.36-.37-.723-.735-1.094-1.094-.36-.368-.722-.737-1.094-1.094-.263-.268-.512-.551-.781-.813-.293-.301-.606-.582-.906-.875-.327-.339-.663-.671-1-1-.358-.371-.724-.734-1.094-1.094-.36-.37-.723-.735-1.094-1.094-.36-.368-.722-.737-1.094-1.094-.263-.268-.512-.551-.781-.813-.293-.301-.606-.582-.906-.875-.327-.339-.663-.671-1-1-.199-.206-.391-.423-.594-.625-.532-.563-1.099-1.088-1.656-1.625-.309-.315-.62-.631-.938-.938-.36-.368-.722-.737-1.094-1.094-.263-.268-.512-.551-.781-.813-.293-.301-.606-.582-.906-.875-.327-.339-.663-.671-1-1-.358-.371-.724-.734-1.094-1.094-.36-.37-.723-.735-1.094-1.094-.36-.368-.722-.737-1.094-1.094-.263-.268-.512-.551-.781-.813-.293-.301-.606-.582-.906-.875-.327-.339-.663-.671-1-1-.358-.371-.724-.734-1.094-1.094-.36-.37-.723-.735-1.094-1.094-.36-.368-.722-.737-1.094-1.094-.263-.268-.512-.551-.781-.813-.293-.301-.606-.582-.906-.875-.327-.339-.663-.671-1-1-.358-.371-.724-.734-1.094-1.094-.36-.37-.723-.735-1.094-1.094-.329-.337-.661-.673-1-1-.329-.337-.661-.673-1-1-8.991-9.192-21.489-14.938-35.25-14.938h-198.56" fill-opacity=".235" fill-rule="evenodd"/>
 <g fill="#ffffff">
  <path d="m156.72 120c-27.13 0-49.41 22.28-49.41 49.41v108.28c0 27.13 22.28 49.41 49.41 49.41h198.56c27.13 0 49.41-22.28 49.41-49.41v-108.28c0-27.13-22.28-49.41-49.41-49.41zm3.938 24.19h190.69c15.53 0 27.938 12.309 27.938 27.813v103.09c0 15.504-12.433 27.938-27.938 27.938h-190.69c-15.503 0-27.938-12.434-27.938-27.938v-103.09c0-15.504 12.409-27.813 27.938-27.813m157.5 161.81c5.155 0 9.313 4.157 9.313 9.313 0 5.155-4.157 9.344-9.313 9.344-5.155 0-9.344-4.189-9.344-9.344s4.189-9.313 9.344-9.313"/>
  <g fill-rule="evenodd">
   <rect height="46.17" rx="11.08" width="50.17" x="229.14" y="340.16"/>
   <rect height="16" rx="8" width="160.02" x="173.8" y="376"/>
  </g>
 </g>
 <path d="m199.69189 170.40836c-10.93648.60355-19.63874 10.46963-19.63874 22.53561 0 12.45622 9.2536 22.57198 20.68727 22.57198 11.43459 0 20.72067-10.11576 20.72067-22.57198 0-12.45622-9.28608-22.53561-20.72067-22.53561-.35733 0-.69661-.0197-1.04943 0zm59.23929 46.5044c-3.3775.00098-7.06901.58192-11.14673 1.82144-11.58979 5.1724-35.14925 44.45982-44.65731 35.1786-29.49873-43.05023-49.23222-.59568-54.61925 33.64713h158.6151c-14.58198-32.32208-20.68908-70.65405-48.19452-70.64324z" fill="#ffffff" stroke="#ffffff" stroke-width="2.006"/>
 <path d="m302.67506 160.18144c0 0 72.24558 34.76121 68.36818 34.76121-3.8774 0-68.07582 34.36544-68.07582 34.36544z" fill="#ffffff" fill-rule="evenodd"/>
</svg>
