<svg viewBox="0 0 512 512" xmlns="http://www.w3.org/2000/svg">
 <g fill-rule="evenodd">
  <path d="m471.95 253.05c0 120.9-98.01 218.91-218.91 218.91s-218.91-98.01-218.91-218.91 98.01-218.91 218.91-218.91 218.91 98.01 218.91 218.91" fill="#b0b0b0"/>
  <path d="m256 1c-140.83 0-255 114.17-255 255s114.17 255 255 255 255-114.17 255-255-114.17-255-255-255m8.827 44.931c120.9 0 218.9 98 218.9 218.9s-98 218.9-218.9 218.9-218.93-98-218.93-218.9 98.03-218.9 218.93-218.9" fill-opacity=".067"/>
  <g fill-opacity=".129">
   <path d="m256 4.43c-138.94 0-251.57 112.63-251.57 251.57s112.63 251.57 251.57 251.57 251.57-112.63 251.57-251.57-112.63-251.57-251.57-251.57m5.885 38.556c120.9 0 218.9 98 218.9 218.9s-98 218.9-218.9 218.9-218.93-98-218.93-218.9 98.03-218.9 218.93-218.9"/>
   <path d="m256 8.36c-136.77 0-247.64 110.87-247.64 247.64s110.87 247.64 247.64 247.64 247.64-110.87 247.64-247.64-110.87-247.64-247.64-247.64m2.942 31.691c120.9 0 218.9 98 218.9 218.9s-98 218.9-218.9 218.9-218.93-98-218.93-218.9 98.03-218.9 218.93-218.9"/>
  </g>
  <path d="m253.04 7.86c-135.42 0-245.19 109.78-245.19 245.19 0 135.42 109.78 245.19 245.19 245.19 135.42 0 245.19-109.78 245.19-245.19 0-135.42-109.78-245.19-245.19-245.19m0 26.297c120.9 0 218.9 98 218.9 218.9s-98 218.9-218.9 218.9-218.93-98-218.93-218.9 98.03-218.9 218.93-218.9z" fill="#ffffff" stroke="#000000" stroke-opacity=".31" stroke-width="4.904"/>
 </g>
 <path d="m335.47 116.5c-8.977 0-16.25 7.273-16.25 16.25v60.55l-24.758-24.758c-2.93-2.868-6.942-4.635-11.367-4.635-8.977 0-16.25 7.273-16.25 16.25v51.03l-22.646-22.646c-1.634-4.578-5.254-8.198-9.832-9.832l-41.584-41.584c0-8.977-7.273-16.25-16.25-16.25s-16.25 7.273-16.25 16.25v70l-24.604-24.604c-2.949-2.949-7.03-4.773-11.521-4.773-8.977 0-16.25 7.273-16.25 16.25v65.03c0 4.427 1.769 8.439 4.639 11.369l47.736 47.736v8.613c0 4.427 1.769 8.439 4.639 11.369l112.48 112.48c109.43-12.12 194.54-104.89 194.54-217.55 0-2.318-.048-4.625-.119-6.926l-124.87-124.87c-2.941-2.941-7-4.76-11.49-4.76" opacity=".25"/>
 <path d="m335.47 116.5c-8.977 0-16.25 7.273-16.25 16.25v246.5c0 8.977 7.273 16.25 16.25 16.25s16.25-7.273 16.25-16.25v-246.5c0-8.977-7.278-16.25-16.25-16.25m-158.94 24.375c-8.977 0-16.25 7.273-16.25 16.25v189.63c0 8.977 7.273 16.25 16.25 16.25s16.25-7.273 16.25-16.25v-189.62c0-8.977-7.273-16.25-16.25-16.25m106.56 23.03c-8.977 0-16.25 7.273-16.25 16.25v156.66c0 8.977 7.273 16.25 16.25 16.25s16.25-7.273 16.25-16.25v-156.66c0-8.977-7.273-16.25-16.25-16.25m-158.94 33.844c-8.977 0-16.25 7.273-16.25 16.25v65.03c0 8.977 7.273 16.25 16.25 16.25s16.281-7.273 16.281-16.25v-65.03c0-8.977-7.304-16.25-16.281-16.25m104.75 0c-8.977 0-16.25 7.273-16.25 16.25v104.75c0 8.977 7.273 16.25 16.25 16.25s16.25-7.273 16.25-16.25v-104.75c0-8.977-7.273-16.25-16.25-16.25m158.94 32.531c-8.977 0-16.281 7.273-16.281 16.25v90.28c0 8.977 7.304 16.25 16.281 16.25s16.25-7.273 16.25-16.25v-90.28c0-8.977-7.273-16.25-16.25-16.25" fill="#ffffff"/>
</svg>
