<svg xmlns="http://www.w3.org/2000/svg" height="512" width="512"><path d="M471.95 253.05c0 120.9-98.01 218.9-218.9 218.9-120.9 0-218.9-98.01-218.9-218.9 0-120.9 98.01-218.9 218.9-218.9 120.9 0 218.9 98.01 218.9 218.9" fill-rule="evenodd" fill="#818181"/><g fill-rule="evenodd"><path fill-opacity=".067" d="M256 1C115.17 1 1 115.17 1 256s114.17 255 255 255 255-114.17 255-255S396.83 1 256 1m8.827 44.93c120.9 0 218.9 98 218.9 218.9s-98 218.9-218.9 218.9-218.93-98-218.93-218.9 98.03-218.9 218.93-218.9"/><g fill-opacity=".129"><path d="M256 4.433c-138.94 0-251.57 112.63-251.57 251.57S117.06 507.573 256 507.573s251.57-112.63 251.57-251.57S394.94 4.433 256 4.433m5.885 38.556c120.9 0 218.9 98 218.9 218.9s-98 218.9-218.9 218.9-218.93-98-218.93-218.9 98.03-218.9 218.93-218.9"/><path d="M256 8.356c-136.77 0-247.64 110.87-247.64 247.64S119.23 503.636 256 503.636s247.64-110.87 247.64-247.64S392.77 8.356 256 8.356m2.942 31.69c120.9 0 218.9 98 218.9 218.9s-98 218.9-218.9 218.9-218.93-98-218.93-218.9 98.03-218.9 218.93-218.9"/></g><path d="M253.04 7.86C117.62 7.86 7.85 117.64 7.85 253.05c0 135.42 109.78 245.19 245.19 245.19 135.42 0 245.19-109.78 245.19-245.19 0-135.42-109.78-245.19-245.19-245.19zm0 26.296c120.9 0 218.9 98 218.9 218.9s-98 218.9-218.9 218.9-218.93-98-218.93-218.9 98.03-218.9 218.93-218.9z" stroke-opacity=".31" stroke="#000" stroke-width="4.904" fill="#fff"/></g><path d="M335.62 456.797c10.395-1.46 76.17-37.543 95.063-73.673l-56.717-65.293 3.967 27.23-164.896-181.626-27.545 51.346-7.398 66.807zM273.258 196.75L433.926 377.5c14.682-29.008 27.918-46.455 35.298-82.767L353.592 158.408l-87.03-34.08-11.562 7.91 35.122 31.778 3.22 2.912-27.387-3.043 32.864 34.69z" opacity=".25" fill-rule="evenodd"/><path stroke="#fff" stroke-width="1.054" fill="#fff" d="M120.62 165.93c1.257 12.48 6.57 28.16 14.938 45.41 14.76 30.445 36.455 68.33 67.29 97.1 51.05 47.634 110.04 81.994 141.05 83.17 18.25-5.757 35.02-20.19 42.605-36.15 4.735-6.102 6.672-13.26 2.813-18.778-11.62-16.618-28.562-29.06-43.956-37.01-12.845-6.63-16.953-13.483-31.29-10.287-12.16 8.558-15.836 13.13-28.26 26.41-42.878-6.612-91.17-62.815-86.69-90.13 4.85-6.55 9.402-10.334 13.372-13.62 6.068-5.02 10.772-8.87 13.1-19.646-6.804-27.403-21.834-38.12-41.39-63.11-11.486-8.83-17.218-10.124-29.553-1.84-12.223 11.197-27.343 19.406-32.498 34.11z"/><g stroke-linejoin="round" stroke="#fff" stroke-linecap="round" stroke-width="13" fill="none"><path d="M278.426 192.207c21.985 1.712 37.206 11.823 38.822 38.82M268.39 158.396c49.13 5.08 78.144 29.974 80.81 80.812M258.352 126.703c80.74 4.95 118.525 50.016 124.65 124.65" stroke-width="13.7059"/></g></svg>