<svg height="512" viewBox="0 0 512 512" width="512" xmlns="http://www.w3.org/2000/svg">
 <path d="m471.95 253.05c0 120.9-98.01 218.9-218.9 218.9-120.9 0-218.9-98.01-218.9-218.9 0-120.9 98.01-218.9 218.9-218.9 120.9 0 218.9 98.01 218.9 218.9" fill="#8c8c8c" fill-rule="evenodd"/>
 <path d="m256 1c-140.83 0-255 114.17-255 255 0 140.83 114.17 255 255 255 140.83 0 255-114.17 255-255 0-140.83-114.17-255-255-255m8.827 44.931c120.9 0 218.9 98 218.9 218.9 0 120.9-98 218.9-218.9 218.9-120.9 0-218.93-98-218.93-218.9 0-120.9 98.03-218.9 218.93-218.9" fill-opacity=".067" fill-rule="evenodd"/>
 <g fill-opacity=".129" fill-rule="evenodd">
  <path d="m256 4.433c-138.94 0-251.57 112.63-251.57 251.57 0 138.94 112.63 251.57 251.57 251.57 138.94 0 251.57-112.63 251.57-251.57 0-138.94-112.63-251.57-251.57-251.57m5.885 38.556c120.9 0 218.9 98 218.9 218.9 0 120.9-98 218.9-218.9 218.9-120.9 0-218.93-98-218.93-218.9 0-120.9 98.03-218.9 218.93-218.9"/>
  <path d="m256 8.356c-136.77 0-247.64 110.87-247.64 247.64 0 136.77 110.87 247.64 247.64 247.64 136.77 0 247.64-110.87 247.64-247.64 0-136.77-110.87-247.64-247.64-247.64m2.942 31.691c120.9 0 218.9 98 218.9 218.9 0 120.9-98 218.9-218.9 218.9-120.9 0-218.93-98-218.93-218.9 0-120.9 98.03-218.9 218.93-218.9"/>
 </g>
 <g fill-rule="evenodd" transform="translate(-1.4596506 -1.8339255)">
  <path d="m147.9 119.51c-15.723 0-28.391 12.667-28.391 28.391v132.53c0 7.856 3.162 14.943 8.287 20.07l83.46 83.45.027.029c.073.074.141.153.215.227l83.68 83.68c87.1-16.986 155.73-85.61 172.71-172.71l-167.38-167.38c-5.125-5.125-12.213-8.287-20.07-8.287l28.367 28.367v55.333l83.7 83.7v8.924l-130-130c-2.873-2.873-6.845-4.645-11.246-4.645h-61.68l-41.678-41.678" opacity=".25"/>
  <path d="m147.9 119.51c-15.723 0-28.391 12.668-28.391 28.391v132.53c0 15.723 12.668 28.366 28.391 28.366h55.31v55.33c0 15.723 12.643 28.366 28.367 28.366h132.53c15.723 0 28.391-12.643 28.391-28.366v-132.53c0-15.723-12.668-28.391-28.391-28.391h-55.31v-55.31c0-15.723-12.643-28.391-28.367-28.391zm13.285 41.676h90.069c8.801 0 15.893 7.092 15.893 15.893v26.13h-14c-13.11 0-21.03 2.23-4.777 16.889l37.974 37.962c24.533 24.533 22.457 15.822 22.457-11.969h25.291c8.601 0 15.524 6.923 15.524 15.524v88h-88.002c-8.601 0-15.524-6.923-15.524-15.524v-25.291h15.292c15.289 0 19.07-1.778.026-20.823l-38.964-38.963c-17.84-18.604-19.24-7.306-19.236 1.52v16.614h-26.15c-8.802 0-15.869-7.092-15.869-15.893v-74.177z" fill="#ffffff"/>
 </g>
 <path d="m253.04 7.859c-135.42 0-245.19 109.78-245.19 245.19 0 135.42 109.78 245.19 245.19 245.19 135.42 0 245.19-109.78 245.19-245.19 0-135.42-109.78-245.19-245.19-245.19zm0 26.297c120.9 0 218.9 98 218.9 218.9 0 120.9-98 218.9-218.9 218.9-120.9 0-218.93-98-218.93-218.9 0-120.9 98.03-218.9 218.93-218.9z" fill="#ffffff" fill-rule="evenodd" stroke="#000000" stroke-opacity=".31" stroke-width="4.904"/>
</svg>
