<svg xmlns="http://www.w3.org/2000/svg" height="512" width="512"><path d="M471.95 253.05c0 120.9-98.01 218.9-218.9 218.9-120.9 0-218.9-98.01-218.9-218.9 0-120.9 98.01-218.9 218.9-218.9 120.9 0 218.9 98.01 218.9 218.9" fill="#fff" fill-rule="evenodd"/><path d="M256 31.25c-37.815 0-73.45 9.344-104.72 25.844-.017.01-.014.054-.03.063-.01.004-.024-.004-.032 0-1.32.697-2.634 1.403-3.938 2.125-69.18 38.32-116.03 112.04-116.03 196.72 0 113.5 84.23 207.33 193.53 222.56h.03c10.21 1.42 20.59 2.188 31.19 2.188 124.12 0 224.75-100.63 224.75-224.75 0-114.22-85.18-208.47-195.5-222.78-3.094-.4-6.202-.748-9.343-1.03-1.71-.165-3.433-.296-5.156-.407-4.882-.33-9.8-.5-14.75-.5v-.03" fill="#939393"/><path d="M310.907 102.288l161.325 157.516C458.5 392.984 369.526 446.564 301.516 468.7L122.28 288.872l110.45-78.154z" opacity=".25" fill-rule="evenodd"/><path d="M-531.61-198.194l-120.72 22.625 26.625 27.13-.063.064-.03.03c-32.04 34.19-38.36 82.6-27.688 124.47 10.68 41.86 38.47 77.64 75.62 86.06.01.003.02 0 .03 0l5.19 1.19 1.374.312-.875-1.125-3.313-4.25c-42.19-54.09-46.915-124.61-8.47-164.28l28.28 28.814 24.03-121.03m78.876 0l.875 1.125 3.314 4.218c42.19 54.09 46.915 124.61 8.47 164.28l-28.28-28.813-24.03 121.06 120.72-22.656-26.626-27.12.063-.064h.032c32.04-34.19 38.36-82.6 27.688-124.47-10.68-41.858-38.47-77.64-75.62-86.06-.01-.002-.022.002-.03 0l-5.19-1.188-1.374-.313M297.164 98.514c-18.835 1.05-37.75 6.766-53.406 17.344-11.59 9.864-14.725 25.947-19.97 39.637-4.22 12.428-7.495 27.25-20.28 33.582-7.637 5.13-17.207 7.97-23.532 14.75-3.2 5.027-1.73 11.464 1.72 15.843-1.925 4.09-4.6 9.266-8.22 11.532-5.615-2.055-11.65-9.593-17.968-4.875-8.866 8.264-14.27 19.91-19.344 30.812-2.346 9.272-13.484 12.473-16.25 21.28 1.327 12.588 14.13 19.622 25.625 20.625 5.532.63 11.552 2.248 14.093 7.75 7.7 8.487 16.183 16.46 21.843 26.657 9.74 14.002 23.285 25.89 40.208 29.943 19.102 4.544 37.61 10.84 55.893 18.01 4.012.99 9.683 4.273 13.18.672.14-5.378-7.428-5.335-10.812-7.532-4.16-2.043-12.083-3.77-11.625-9.656 1.175-5.5 8.12-3.258 11.943-5.226 15.4-4.184 32.502-5.976 45.682-15.462 2.784-3.178-1.858-6.455-4.844-4.313-7.21 1.94-14.528 6.574-22.092 5.25.287-9.905-7.244-17.35-14.625-22.907-10.38-8.51-25.334-9.597-34.594-19.53-1.71-2.74 3.757-3.836 5.093-5.44 19.284-13.83 26.947-37.604 35.812-58.624.585-2.312 2.67-3.99 4.406-1.438 9.26 9.24 17.026 20.99 20.658 33.562-4.885 4.257-12.487 3.52-18.625 4.25-3.712.578-10.27-2.53-11.75 2.188 1.497 4.106 7.91 2.443 11.5 3.375 18.743.743 37.6 5.38 56.218.687 13.993-3.674 28.352-5.914 42.345-9.5 4.89-1.347 1.974-8.26-2.406-7.53-13.232 2.9-26.18 9.456-40.095 8.31-2.976-3.644-.13-9.952 2.506-13.3 5.232-8.133 14.188-13.76 18.12-22.636.905-6.287-9.348-8.632-12.125-3.03-4.16 6.294-4.414 14.45-9.675 20.302-3.55 5.64-10.318 13.404-17.637 9.197-11.963-8.272-17.935-23.57-20.652-37.577-1.273-7.922-2.533-15.855-4.722-23.58 9.74-13.812 17.937-29.494 17.752-46.812-.212-15.02 1.925-31.925-7.846-44.563-4.808-6.99-12.482-13.15-21.5-12.03z" fill="#fff"/><g fill-rule="evenodd"><path d="M256 1C115.17 1 1 115.17 1 256s114.17 255 255 255 255-114.17 255-255S396.83 1 256 1m8.827 44.93c120.9 0 218.9 98 218.9 218.9s-98 218.9-218.9 218.9-218.93-98-218.93-218.9 98.03-218.9 218.93-218.9" fill-opacity=".067"/><g fill-opacity=".129"><path d="M256 4.43C117.06 4.43 4.43 117.06 4.43 256S117.06 507.57 256 507.57 507.57 394.94 507.57 256 394.94 4.43 256 4.43m5.885 38.556c120.9 0 218.9 98 218.9 218.9s-98 218.9-218.9 218.9-218.93-98-218.93-218.9 98.03-218.9 218.93-218.9"/><path d="M256 8.36C119.23 8.36 8.36 119.23 8.36 256S119.23 503.64 256 503.64 503.64 392.77 503.64 256 392.77 8.36 256 8.36m2.942 31.69c120.9 0 218.9 98 218.9 218.9s-98 218.9-218.9 218.9-218.93-98-218.93-218.9 98.03-218.9 218.93-218.9"/></g><path d="M253.04 7.86C117.62 7.86 7.85 117.64 7.85 253.05c0 135.42 109.78 245.19 245.19 245.19 135.42 0 245.19-109.78 245.19-245.19 0-135.42-109.78-245.19-245.19-245.19m0 26.297c120.9 0 218.9 98 218.9 218.9s-98 218.9-218.9 218.9-218.93-98-218.93-218.9 98.03-218.9 218.93-218.9z" fill="#fff" stroke="#000" stroke-opacity=".31" stroke-width="4.904"/></g></svg>