<svg height="512" viewBox="0 0 512 512" width="512" xmlns="http://www.w3.org/2000/svg">
 <path d="m471.95 253.05c0 120.9-98.01 218.9-218.9 218.9-120.9 0-218.9-98.01-218.9-218.9 0-120.9 98.01-218.9 218.9-218.9 120.9 0 218.9 98.01 218.9 218.9" fill="#777777" fill-rule="evenodd"/>
 <path d="m241.57 31.01c-1.204.076-2.408.159-3.607.254v11.216h-28.856v-7.02c-1.202.254-2.412.516-3.607.789v6.228h-22.06c-3.51 1.192-6.969 2.474-10.398 3.832v28.631h-28.84v-14.738c-1.212.694-2.409 1.398-3.607 2.113v12.625h-18.937c-1.59 1.182-3.149 2.385-4.706 3.607h23.643v28.856h-28.85v-24.626c-1.216 1.014-2.413 2.033-3.607 3.072v21.558h-21.608c-1.047 1.194-2.077 2.391-3.1 3.607h24.714v28.856h-28.86v-23.812c-1.22 1.539-2.427 3.079-3.607 4.65v19.16h-12.906c-.722 1.2-1.441 2.393-2.142 3.607h15.05v28.856h-28.856v-.423c-1.266 3.146-2.481 6.311-3.607 9.525v23.361h-6.791c-.277 1.192-.503 2.407-.761 3.607h7.552v28.856h-11.864c-.099 1.199-.174 2.402-.254 3.607h12.12v28.856h-12.202c.072 1.202.135 2.41.225 3.607h11.976v28.856h-7.862c.25 1.202.492 2.413.761 3.607h7.101v24.77c1.126 3.214 2.341 6.379 3.607 9.525v-1.832h28.856v28.856h-15.837c.689 1.214 1.403 2.407 2.113 3.607h13.724v20.571c1.18 1.571 2.387 3.111 3.607 4.65v-25.22h28.856v28.81h-25.926c1.01 1.221 2.037 2.408 3.072 3.607h22.854v22.967c1.194 1.039 2.391 2.058 3.607 3.072v-26.04h28.856v28.856h-25.39c1.52 1.217 3.042 2.429 4.593 3.607h20.797v14.03c1.198.715 2.395 1.42 3.607 2.113v-16.15h28.856v28.856h-2.874c3.062 1.262 6.144 2.478 9.271 3.607h26.07v7.637c1.195.273 2.405.535 3.607.789v-8.426h28.856v12.625c1.199.095 2.403.178 3.607.254v-12.878h28.856v12.878c1.204-.076 2.408-.159 3.607-.254v-12.625h28.856v8.426c1.202-.254 2.412-.516 3.607-.789v-7.637h26.07c3.128-1.129 6.21-2.345 9.271-3.607h-2.874v-28.856h28.856v16.15c1.212-.694 2.409-1.398 3.607-2.113v-14.03h20.797c1.552-1.178 3.074-2.39 4.593-3.607h-25.39v-28.856h28.856v26.04c1.216-1.014 2.413-2.033 3.607-3.072v-22.967h22.854c1.034-1.199 2.062-2.387 3.072-3.607h-25.925v-28.856h28.856v25.22c1.22-1.539 2.427-3.079 3.607-4.65v-20.571h13.724c.711-1.2 1.424-2.393 2.114-3.607h-15.89v-28.86h28.856v1.832c1.266-3.146 2.481-6.311 3.607-9.525v-24.77h7.101c.269-1.194.511-2.405.761-3.607h-7.862v-28.856h11.976c.091-1.197.153-2.405.225-3.607h-12.202v-28.856h12.12c-.08-1.205-.155-2.408-.254-3.607h-11.864v-28.856h7.552c-.258-1.2-.484-2.415-.761-3.607h-6.791v-23.34c-1.126-3.214-2.341-6.379-3.607-9.525v.423h-28.856v-28.856h15.05c-.701-1.214-1.419-2.407-2.142-3.607h-12.92v-19.16c-1.18-1.571-2.387-3.111-3.607-4.65v23.812h-28.856v-28.856h24.714c-1.022-1.216-2.052-2.413-3.1-3.607h-21.6v-21.534c-1.194-1.039-2.391-2.058-3.607-3.072v24.629h-28.86v-28.853h23.643c-1.557-1.222-3.116-2.425-4.706-3.607h-18.93v-12.625c-1.198-.715-2.395-1.42-3.607-2.113v14.738h-28.85v-28.631c-3.43-1.358-6.889-2.64-10.398-3.832h-22.06v-6.228c-1.195-.273-2.405-.535-3.607-.789v7.02h-28.85v-11.216c-1.199-.095-2.403-.178-3.607-.254v11.469h-28.85v-11.469m-64.926 15.08h28.856v28.856h-28.86v-28.856m32.463 0h28.86v28.856h-28.86zm32.463 0h28.856v28.856h-28.85v-28.856m32.463 0h28.856v28.856h-28.86v-28.856m32.463 0h28.856v28.856h-28.86v-28.856m-162.32 32.463h28.856v28.856h-28.86v-28.857m32.463 0h28.856v28.856h-28.85v-28.857m32.463 0h28.856v28.856h-28.86v-28.857m32.463 0h28.856v28.856h-28.86v-28.857m32.463 0h28.856v28.856h-28.85v-28.857m32.463 0h28.856v28.856h-28.86v-28.857m32.463 0h28.856v28.856h-28.86v-28.857m-227.24 32.463h28.856v28.856h-28.856zm32.463 0h28.856v28.856h-28.856zm32.463 0h28.856v28.856h-28.856zm32.463 0h28.856v28.856h-28.85v-28.856m32.463 0h28.856v28.856h-28.856zm32.463 0h28.856v28.856h-28.856zm32.463 0h28.856v28.856h-28.856zm32.463 0h28.856v28.856h-28.856zm32.463 0h28.856v28.856h-28.856zm-292.17 32.463h28.856v28.856h-28.845v-28.856m32.463 0h28.856v28.856h-28.856zm32.463 0h28.856v28.856h-28.856zm32.463 0h28.856v28.856h-28.856zm32.463 0h28.856v28.856h-28.856zm32.463 0h28.856v28.856h-28.85v-28.856m32.463 0h28.856v28.856h-28.856zm32.463 0h28.856v28.856h-28.856zm32.463 0h28.856v28.856h-28.856zm32.463 0h28.856v28.856h-28.856zm32.463 0h28.856v28.856h-28.856zm-357.09 32.463h28.856v28.856h-28.841v-28.856m32.463 0h28.856v28.856h-28.852v-28.856m32.463 0h28.856v28.856h-28.856zm32.463 0h28.856v28.856h-28.856zm32.463 0h28.856v28.856h-28.856zm32.463 0h28.856v28.856h-28.85v-28.856m32.463 0h28.856v28.856h-28.856zm32.463 0h28.856v28.856h-28.856zm32.463 0h28.856v28.856h-28.856zm32.463 0h28.856v28.856h-28.856zm32.463 0h28.856v28.856h-28.856zm32.463 0h28.856v28.856h-28.856zm32.463 0h28.856v28.856h-28.856zm-389.56 32.463h28.856v28.856h-28.835v-28.856m32.463 0h28.856v28.856h-28.856zm32.463 0h28.856v28.856h-28.856zm32.463 0h28.856v28.856h-28.86v-28.856m32.463 0h28.856v28.856h-28.856zm32.463 0h28.856v28.856h-28.856zm32.463 0h28.856v28.856h-28.856zm32.463 0h28.856v28.856h-28.856zm32.463 0h28.856v28.856h-28.856zm32.463 0h28.856v28.856h-28.856zm32.463 0h28.856v28.856h-28.856zm32.463 0h28.856v28.856h-28.856zm32.463 0h28.856v28.856h-28.856zm-389.56 32.463h28.856v28.856h-28.829v-28.856m32.463 0h28.856v28.856h-28.86v-28.856m32.463 0h28.856v28.856h-28.856zm32.463 0h28.856v28.856h-28.856zm32.463 0h28.856v28.856h-28.856zm32.463 0h28.856v28.856h-28.856zm32.463 0h28.856v28.856h-28.856zm32.463 0h28.856v28.856h-28.856zm32.463 0h28.856v28.856h-28.856zm32.463 0h28.856v28.856h-28.856zm32.463 0h28.856v28.856h-28.856zm32.463 0h28.856v28.856h-28.83v-28.856m32.463 0h28.856v28.856h-28.856zm-389.56 32.463h28.856v28.856h-28.853v-28.856m32.463 0h28.856v28.856h-28.854v-28.856m32.463 0h28.856v28.856h-28.856zm32.463 0h28.856v28.856h-28.856zm32.463 0h28.856v28.856h-28.856zm32.463 0h28.856v28.856h-28.856zm32.463 0h28.856v28.856h-28.856zm32.463 0h28.87v28.856h-28.856v-28.856m32.463 0h28.856v28.856h-28.856zm32.463 0h28.856v28.856h-28.85v-28.856m32.463 0h28.856v28.856h-28.856zm32.463 0h28.856v28.856h-28.856zm32.463 0h28.856v28.856h-28.85v-28.85m-389.56 32.46h28.856v28.86h-28.856v-28.856m32.463 0h28.856v28.86h-28.858v-28.856m32.463 0h28.856v28.856h-28.856zm32.463 0h28.856v28.856h-28.856zm32.463 0h28.856v28.856h-28.856zm32.463 0h28.856v28.856h-28.856zm32.463 0h28.856v28.856h-28.856zm32.463 0h28.856v28.86h-28.84v-28.856m32.463 0h28.856v28.856h-28.856zm32.463 0h28.856v28.856h-28.856zm32.463 0h28.856v28.856h-28.856zm32.463 0h28.856v28.856h-28.856zm32.463 0h28.856v28.856h-28.856zm-357.09 32.463h28.856v28.856h-28.845v-28.856m32.463 0h28.856v28.856h-28.856zm32.463 0h28.856v28.856h-28.856zm32.463 0h28.856v28.856h-28.856zm32.463 0h28.856v28.856h-28.856zm32.463 0h28.856v28.856h-28.85v-28.856m32.463 0h28.856v28.856h-28.856zm32.463 0h28.856v28.856h-28.856zm32.463 0h28.856v28.856h-28.856zm32.463 0h28.856v28.856h-28.856zm32.463 0h28.856v28.856h-28.856zm-292.17 32.463h28.856v28.856h-28.85v-28.85m32.463 0h28.856v28.856h-28.85v-28.86m32.463 0h28.856v28.856h-28.86v-28.86m32.463 0h28.856v28.856h-28.86v-28.86m32.463 0h28.856v28.856h-28.85v-28.86m32.463 0h28.856v28.856h-28.86v-28.86m32.463 0h28.856v28.856h-28.86v-28.86m32.463 0h28.856v28.856h-28.85v-28.86m32.463 0h28.856v28.856h-28.86v-28.86m-227.24 32.463h28.856v28.856h-28.856zm32.463 0h28.856v28.856h-28.856zm32.463 0h28.856v28.856h-28.856zm32.463 0h28.856v28.856h-28.856zm32.463 0h28.856v28.856h-28.856zm32.463 0h28.856v28.856h-28.856zm32.463 0h28.856v28.856h-28.856zm-162.32 32.463h28.856v28.856h-28.856zm32.463 0h28.856v28.856h-28.84v-28.856m32.463 0h28.856v28.856h-28.856zm32.463 0h28.856v28.856h-28.856zm32.463 0h28.856v28.856h-28.856z" fill="#ffffff" fill-opacity=".308"/>
 <path d="m214.44 140.25l-7.5 34.5h-.344c-.004-.02-.188-1-.188-1h-.781c-.004-.02-.188-1-.188-1h-.813c-.004-.019-.188-.969-.188-.969h-.813c-.004-.02-.188-1-.188-1h-.813c-.004-.02-.188-1-.188-1h-.813c-.004-.02-.188-1-.188-1h-.813c-.004-.02-.188-1-.188-1h-.781c-.004-.02-.188-1-.188-1h-.813c-.004-.019-.188-.969-.188-.969h-.813c-.004-.02-.188-1-.188-1h-.813c-.004-.02-.188-1-.188-1h-.813c-.004-.02-.188-1-.188-1h-.813c-.004-.02-.188-1-.188-1h-.781c-.004-.02-.188-1-.188-1h-.813c-.004-.019-.188-.969-.188-.969h-.813c-.004-.02-.188-1-.188-1h-.813c-.004-.02-.188-1-.188-1h-.813c-.004-.02-.188-1-.188-1h-.813c-.004-.02-.188-1-.188-1h-.813c-.004-.02-.188-1-.188-1h-.781c-.004-.019-.188-.969-.188-.969h-.813c-.004-.02-.188-1-.188-1h-.813c-.004-.02-.188-1-.188-1h-.813c-.004-.02-.188-1-.188-1h-.83c-.004-.02-.188-1-.188-1h-.813c-.004-.02-.188-1-.188-1h-.781c-.004-.02-.188-1-.188-1h-.813c-.004-.019-.188-.969-.188-.969h-.813c-.004-.02-.188-1-.188-1h-.813c-.004-.02-.188-1-.188-1h-.813c-.004-.02-.188-1-.188-1h-.813c-.004-.02-.188-1-.188-1h-.781l-.188-1h-.813l-.188-.969h-52.37l47 230.78h.813c.002.008.188.969.188.969h.781c.002.009.219 1 .219 1h .75c.002.009.219 1 .219 1h .781c.002.009.219 1 .219 1h .781c.002.009.219 1 .219 1h .781c.002.009.219 1 .219 1h .813c.002.008.188.969.188.969h.781c.002.009.219 1 .219 1h .75c.002.009.219 1 .219 1h .781c.002.009.219 1 .219 1h .781l.219 1h .781c.002.009.219 1 .219 1h .781c.002.009.219 1 .219 1h .813c.002.008.188.969.188.969h.781c.002.009.219 1 .219 1h .75c.002.009.219 1 .219 1h .781c.002.009.219 1 .219 1h .781c.002.009.219 1 .219 1h .781c.002.009.219 1 .219 1h .813c.002.008.188.969.188.969h.781c.002.009.219 1 .219 1h .75c.002.009.219 1 .219 1h .781c.002.009.219 1 .219 1h .781c.002.009.219 1 .219 1h .781l.219 1h .813c.002.008.188.969.188.969h.781l.219 1h .75c.002.009.219 1 .219 1h .781c.002.009.219 1 .219 1h .781c.002.009.219 1 .219 1h .781c.002.009.219 1 .219 1h .813c.002.008.188.969.188.969h.781c.002.009.219 1 .219 1h .75l.219 1h .781c.002.009.219 1 .219 1h .781c.002.009.219 1 .219 1h .781c.002.009.219 1 .219 1h .781c.002.009.219 1 .219 1h .813c.002.008.188.969.188.969h.781c.002.009.219 1 .219 1h .75l.219 1h .781c.002.009.219 1 .219 1h .781l.219 1h .781c.002.009.219 1 .219 1h .813l.188.969h.781c.002.009.219 1 .219 1h .75c.002.009.219 1 .219 1h .781c.002.009.219 1 .219 1h .781c.002.009.219 1 .219 1h .781c.002.009.219 1 .219 1h .813c.002.008.188.969.188.969h.781l.219 1h .75c.002.009.219 1 .219 1h .781c.002.009.219 1 .219 1h .781c.002.009.219 1 .219 1h .781c.002.009.219 1 .219 1h .781c.002.009.219 1 .219 1h .813c.002.008.188.969.188.969h.781l.219 1h .75c.002.009.219 1 .219 1h .781l.219 1h .781c.002.009.219 1 .219 1h .781c.002.009.219 1 .219 1h .813c.002.008.188.969.188.969h.781c.002.009.219 1 .219 1h .75c.002.009.219 1 .219 1h .781c.002.009.219 1 .219 1h .781l.219 1h .781c.002.009.219 1 .219 1h .813l.188.969h.781c.002.009.219 1 .219 1h .75c.002.009.219 1 .219 1h .781c.002.009.219 1 .219 1h .781c.002.009.219 1 .219 1h .781c.002.009.219 1 .219 1h .813c.002.008.188.969.188.969h.781l.219 1h .75c.002.009.219 1 .219 1h .781l.219 1h .781c.002.009.219 1 .219 1h .781c.002.009.219 1 .219 1h .781c.002.009.219 1 .219 1h .813c.002.008.188.969.188.969h.781c.002.009.219 1 .219 1h .75c.002.009.219 1 .219 1h .781l.219 1h .781c.002.009.219 1 .219 1h .781l.219 1h .813c.002.008.188.969.188.969h.781c.002.009.219 1 .219 1h .75c.002.009.219 1 .219 1h .781c.002.009.219 1 .219 1h .781c.002.009.219 1 .219 1h .781c.002.009.219 1 .219 1h .813l.188.969h.781c.002.009.219 1 .219 1h .75l.219 1h .781c.002.009.219 1 .219 1h .781c.002.009.219 1 .219 1h .781c.002.009.219 1 .219 1h .813c0 .002.02.129.031.188 111.86-7.84 200.54-99.72 203.31-212.91h-.625c.192-.329.396-.662.625-1h-1.969c.193-.333.394-.658.625-1h-1.969c.192-.334.393-.657.625-1h-1.969c.189-.331.395-.66.625-1h-1.969c.187-.328.397-.663.625-1h-1.938c.182-.32.371-.64.594-.969h-1.938c.184-.329.365-.663.594-1h-1.938c.182-.326.367-.666.594-1h-1.969c.184-.334.393-.657.625-1h-1.969c.181-.331.395-.66.625-1h-1.938c.178-.327.366-.664.594-1h-1.938c.175-.324.368-.667.594-1h-1.938c.172-.321.37-.639.594-.969h-1.938c.172-.325.367-.666.594-1h-1.938c.174-.334.361-.657.594-1h-1.938c.171-.33.364-.66.594-1h-1.938c.168-.327.366-.663.594-1h-1.875c-.005-.007.006-.025 0-.031-.007-.012-.024-.019-.031-.031.158-.305.35-.624.563-.938h-1.188c-.105-.215-.235-.415-.375-.625.073-.119.138-.224.219-.344h-.469c-.031-.041-.062-.085-.094-.125-.203-.441-.494-.861-.844-1.281-.183-.369-.46-.74-.75-1.094-.187-.401-.463-.804-.781-1.188-.194-.418-.47-.82-.813-1.219-.189-.399-.421-.806-.75-1.188-.177-.379-.441-.731-.75-1.094-.188-.442-.47-.861-.844-1.281-.178-.386-.393-.756-.719-1.125-.157-.367-.422-.712-.719-1.063-.159-.433-.452-.84-.813-1.25-.161-.421-.421-.851-.781-1.25-.156-.39-.447-.785-.781-1.156-.148-.407-.431-.801-.781-1.188-.146-.424-.439-.818-.813-1.219-.135-.391-.382-.754-.719-1.125-.129-.436-.423-.87-.813-1.281-.128-.412-.41-.798-.781-1.188-.124-.424-.389-.85-.781-1.25-.123-.412-.393-.83-.781-1.219-.116-.41-.391-.801-.781-1.188-.107-.426-.398-.818-.813-1.219-.1-.409-.353-.803-.75-1.188-.085-.436-.377-.842-.813-1.25-.086-.418-.357-.827-.781-1.219-.075-.432-.361-.847-.813-1.25-.074-.411-.317-.803-.75-1.188-.05-.438-.338-.842-.813-1.25-.052-.418-.323-.829-.781-1.219-.033-.422-.315-.826-.781-1.219-.014-.435-.316-.846-.813-1.25-.017-.421-.29-.859-.781-1.25-.006-.419-.312-.83-.813-1.219.015-.424-.267-.827-.781-1.219.032-.424-.285-.827-.813-1.219.064-.435-.229-.85-.781-1.25.08-.436-.24-.85-.813-1.25.096-.436-.221-.85-.813-1.25.008-.012.024-.019.031-.031.096-.435-.218-.852-.844-1.25.008-.012.024-.019.031-.031.092-.418-.197-.804-.813-1.188.012-.02.019-.043.031-.063.09-.408-.22-.814-.844-1.188.02-.032.042-.062.063-.094.089-.404-.254-.786-.906-1.156.028-.045.066-.08.094-.125.086-.389-.231-.769-.875-1.125.033-.052.061-.104.094-.156.083-.378-.257-.747-.906-1.094.041-.064.084-.123.125-.188.081-.369-.276-.725-.938-1.063.045-.071.08-.147.125-.219.081-.365-.273-.697-.969-1.031.056-.088.131-.161.188-.25.078-.355-.296-.675-1-1 .057-.089.131-.16.188-.25.075-.341-.272-.688-.969-1 .061-.096.126-.185.188-.281.073-.331-.295-.666-1-.969.069-.107.15-.205.219-.313.071-.32-.32-.645-1.031-.938.074-.115.145-.229.219-.344.068-.309-.312-.623-1.031-.906.082-.126.169-.248.25-.375.066-.3-.333-.569-1.063-.844.095-.146.187-.291.281-.438.065-.293-.367-.544-1.125-.813.102-.156.211-.311.313-.469.062-.279-.348-.526-1.094-.781.104-.159.209-.309.313-.469.059-.269-.366-.535-1.125-.781.109-.166.204-.332.313-.5.057-.259-.358-.513-1.125-.75.115-.175.229-.354.344-.531.055-.248-.382-.491-1.156-.719.124-.188.252-.373.375-.563.054-.243-.407-.466-1.219-.688.132-.2.275-.392.406-.594.051-.232-.371-.445-1.188-.656.138-.208.269-.415.406-.625.049-.221-.393-.423-1.219-.625.144-.216.295-.438.438-.656.047-.211-.413-.401-1.25-.594.147-.221.291-.433.438-.656.044-.2-.404-.411-1.25-.594.155-.232.315-.453.469-.688.042-.19-.428-.389-1.281-.563.159-.237.311-.479.469-.719.04-.182-.426-.334-1.313-.5.176-.262.357-.517.531-.781.038-.171-.448-.312-1.344-.469.183-.272.381-.537.563-.813.035-.161-.471-.291-1.375-.438.188-.279.376-.561.563-.844.031-.142-.547-.244-1.375-.375.201-.296.395-.606.594-.906.029-.133-.565-.222-1.406-.344.207-.305.42-.597.625-.906.027-.123-.587-.263-1.438-.375.208-.306.419-.596.625-.906.025-.112-.579-.241-1.438-.344.215-.315.444-.618.656-.938.023-.102-.599-.187-1.469-.281.226-.33.433-.665.656-1 .021-.093-.603-.165-1.5-.25.237-.345.485-.681.719-1.031.018-.082-.613-.144-1.5-.219.24-.349.482-.708.719-1.063.016-.073-.637-.121-1.563-.188.247-.358.506-.698.75-1.063.014-.062-.623-.162-1.531-.219.248-.359.505-.698.75-1.063.011-.051-.647-.109-1.563-.156.258-.372.527-.747.781-1.125.009-.041-.659-.087-1.594-.125.266-.383.519-.767.781-1.156.007-.031-.663-.065-1.625-.094.277-.397.571-.783.844-1.188.004-.017-1.033-.047-1.656-.063.283-.405.565-.806.844-1.219.001-.005-1.462.004-1.656 0 .295-.42.585-.853.875-1.281h-70.09c-9.142 13.558-15.419 21.928-20.375 32.5-.303.5-.59.991-.875 1.5h-.5c-.005-.027-.219-1-.219-1h-.781c-.005-.027-.219-1-.219-1h-.781c-.005-.027-.219-1-.219-1h-.813c-.005-.025-.188-.969-.188-.969h-.781c-.005-.027-.219-1-.219-1h-.75c-.005-.027-.219-1-.219-1h-.781c-.005-.027-.219-1-.219-1h-.781c-.005-.027-.219-1-.219-1h-.781c-.005-.027-.219-1-.219-1h-.813c-.005-.025-.188-.969-.188-.969h-.781c-.005-.027-.219-1-.219-1h-.75c-.005-.027-.219-1-.219-1h-.781c-.005-.027-.219-1-.219-1h-.781c-.005-.027-.219-1-.219-1h-.781c-.005-.027-.219-1-.219-1h-.781c-.005-.027-.219-1-.219-1h-.813c-.005-.025-.188-.969-.188-.969h-.781c-.005-.027-.219-1-.219-1h-.75c-.005-.027-.219-1-.219-1h-.781c-.005-.027-.219-1-.219-1h-.781c-.005-.027-.219-1-.219-1h-.781c-.005-.027-.219-1-.219-1h-.813c-.005-.025-.188-.969-.188-.969h-.781c-.005-.027-.219-1-.219-1h-.75c-.005-.027-.219-1-.219-1h-.781c-.005-.027-.219-1-.219-1h-.781c-.005-.027-.219-1-.219-1h-.781c-.005-.027-.219-1-.219-1h-.813c-.005-.025-.188-.969-.188-.969h-.781c-.005-.027-.219-1-.219-1h-.75c-.005-.027-.219-1-.219-1h-.781c-.005-.027-.219-1-.219-1h-.781c-.005-.027-.219-1-.219-1h-.781c-.005-.027-.219-1-.219-1h-.813l-.188-.969h-44.41" fill-opacity=".235"/>
 <path d="m214.43 140.23l-21.804 99.6-19.04-98.91h-52.36l46.996 230.78h45.35l20.574-98.13 20.03 98.19h18.02l7.978-8.547c14.24-17.275 29.325-29.749 37.25-46.876 3.09-7.929 3.866-14.75 2.399-20.754-1.303-5.331-4.358-10.01-9.147-14.246-11.08-10.806-21.286-19.466-27.05-31.431-4.967-12.322-7.874-24.598-9.537-35.21l-15.235-74.47h-44.42m100.23.84c-9.142 13.558-15.438 21.908-20.394 32.48-12.504 20.628-9.747 49.647.3 71.05 5.655 14.493 18.336 22.75 27.622 33.05 4.586 4.772 7.337 10.336 8.697 16.225 2.158 9.343.772 19.458-2.579 28.25-8.872 19.856-23.865 32.882-39.2 49.4h74.38c10.843-13.566 18.641-31.01 23-45.616 3.356-11.45 5.04-22.919 3.959-33.08-1.403-10.692-5.162-20.873-10.677-28.731-10.942-15.03-27.538-28.29-34.01-40.458-3.674-7.435-3.89-15.213-1.62-25.942 5.268-23.883 26.09-35.18 40.608-56.623h-70.09" fill="#ffffff"/>
 <g fill-rule="evenodd">
  <path d="m256 1c-140.83 0-255 114.17-255 255s114.17 255 255 255 255-114.17 255-255-114.17-255-255-255m8.827 44.931c120.9 0 218.9 98 218.9 218.9s-98 218.9-218.9 218.9-218.93-98-218.93-218.9 98.03-218.9 218.93-218.9" fill-opacity=".067"/>
  <g fill-opacity=".129">
   <path d="m256 4.433c-138.94 0-251.57 112.63-251.57 251.57s112.63 251.57 251.57 251.57 251.57-112.63 251.57-251.57-112.63-251.57-251.57-251.57m5.885 38.556c120.9 0 218.9 98 218.9 218.9s-98 218.9-218.9 218.9-218.93-98-218.93-218.9 98.03-218.9 218.93-218.9"/>
   <path d="m256 8.356c-136.77 0-247.64 110.87-247.64 247.64s110.87 247.64 247.64 247.64 247.64-110.87 247.64-247.64-110.87-247.64-247.64-247.64m2.942 31.691c120.9 0 218.9 98 218.9 218.9s-98 218.9-218.9 218.9-218.93-98-218.93-218.9 98.03-218.9 218.93-218.9"/>
  </g>
  <path d="m253.04 7.859c-135.42 0-245.19 109.78-245.19 245.19 0 135.42 109.78 245.19 245.19 245.19 135.42 0 245.19-109.78 245.19-245.19 0-135.42-109.78-245.19-245.19-245.19zm0 26.297c120.9 0 218.9 98 218.9 218.9s-98 218.9-218.9 218.9-218.93-98-218.93-218.9 98.03-218.9 218.93-218.9z" fill="#ffffff" stroke="#000000" stroke-opacity=".31" stroke-width="4.904"/>
 </g>
</svg>
