<?xml version="1.0" encoding="UTF-8" standalone="no"?>
<svg
   xmlns:dc="http://purl.org/dc/elements/1.1/"
   xmlns:cc="http://creativecommons.org/ns#"
   xmlns:rdf="http://www.w3.org/1999/02/22-rdf-syntax-ns#"
   xmlns:svg="http://www.w3.org/2000/svg"
   xmlns="http://www.w3.org/2000/svg"
   xmlns:sodipodi="http://sodipodi.sourceforge.net/DTD/sodipodi-0.dtd"
   xmlns:inkscape="http://www.inkscape.org/namespaces/inkscape"
   height="512"
   viewBox="0 0 512 512"
   width="512"
   version="1.1"
   id="svg18"
   sodipodi:docname="whatsie.svg"
   inkscape:version="0.91 r13725">
  <metadata
     id="metadata24">
    <rdf:RDF>
      <cc:Work
         rdf:about="">
        <dc:format>image/svg+xml</dc:format>
        <dc:type
           rdf:resource="http://purl.org/dc/dcmitype/StillImage" />
        <dc:title></dc:title>
      </cc:Work>
    </rdf:RDF>
  </metadata>
  <defs
     id="defs22" />
  <sodipodi:namedview
     pagecolor="#ffffff"
     bordercolor="#666666"
     borderopacity="1"
     objecttolerance="10"
     gridtolerance="10"
     guidetolerance="10"
     inkscape:pageopacity="0"
     inkscape:pageshadow="2"
     inkscape:window-width="1920"
     inkscape:window-height="1009"
     id="namedview20"
     showgrid="false"
     inkscape:zoom="0.79313726"
     inkscape:cx="-24.189632"
     inkscape:cy="44.844678"
     inkscape:window-x="0"
     inkscape:window-y="43"
     inkscape:window-maximized="1"
     inkscape:current-layer="svg18" />
  <path
     d="m471.95 253.05c0 120.9-98.01 218.9-218.9 218.9-120.9 0-218.9-98.01-218.9-218.9 0-120.9 98.01-218.9 218.9-218.9 120.9 0 218.9 98.01 218.9 218.9"
     fill="#1793d1"
     fill-rule="evenodd"
     id="path2"
     style="fill:#8b8b8b;fill-opacity:1" />
  <path
     d="m256 1c-140.83 0-255 114.17-255 255 0 140.83 114.17 255 255 255 140.83 0 255-114.17 255-255 0-140.83-114.17-255-255-255m8.827 44.931c120.9 0 218.9 98 218.9 218.9 0 120.9-98 218.9-218.9 218.9-120.9 0-218.93-98-218.93-218.9 0-120.9 98.03-218.9 218.93-218.9"
     fill-opacity=".067"
     fill-rule="evenodd"
     id="path4" />
  <g
     fill-opacity=".129"
     fill-rule="evenodd"
     id="g10">
    <path
       d="m256 4.433c-138.94 0-251.57 112.63-251.57 251.57 0 138.94 112.63 251.57 251.57 251.57 138.94 0 251.57-112.63 251.57-251.57 0-138.94-112.63-251.57-251.57-251.57m5.885 38.556c120.9 0 218.9 98 218.9 218.9 0 120.9-98 218.9-218.9 218.9-120.9 0-218.93-98-218.93-218.9 0-120.9 98.03-218.9 218.93-218.9"
       id="path6" />
    <path
       d="m256 8.356c-136.77 0-247.64 110.87-247.64 247.64 0 136.77 110.87 247.64 247.64 247.64 136.77 0 247.64-110.87 247.64-247.64 0-136.77-110.87-247.64-247.64-247.64m2.942 31.691c120.9 0 218.9 98 218.9 218.9 0 120.9-98 218.9-218.9 218.9-120.9 0-218.93-98-218.93-218.9 0-120.9 98.03-218.9 218.93-218.9"
       id="path8" />
  </g>
  <path
     d="m 281.13654,113.59603 21.41982,1.33178 -2.236,0.568 11.867,11.867 -46.14,-12.02 h -3.336 l -37.533,12.662 -1.113,0.934 -4.193,-4.193 -37.87626,13.86068 -13.06289,10.23853 -7.33861,29.77638 -21.43408,15.12471 -2.89712,34.65378 30.17198,86.8948 -41.92691,69.02734 175.33244,89.13067 C 440.48338,428.99108 480.10047,315.34108 470.23336,211.20781 L 339.85787,120.54802 274.82746,106.03114"
     id="path12"
     inkscape:connector-curvature="0"
     style="opacity:0.25"
     sodipodi:nodetypes="cccccccccccccccccccc" />
  <path
     d="m253.04 7.859c-135.42 0-245.19 109.78-245.19 245.19 0 135.42 109.78 245.19 245.19 245.19 135.42 0 245.19-109.78 245.19-245.19 0-135.42-109.78-245.19-245.19-245.19zm0 26.297c120.9 0 218.9 98 218.9 218.9 0 120.9-98 218.9-218.9 218.9-120.9 0-218.93-98-218.93-218.9 0-120.9 98.03-218.9 218.93-218.9z"
     fill="#ffffff"
     fill-rule="evenodd"
     stroke="#000000"
     stroke-opacity=".31"
     stroke-width="4.904"
     id="path16" />
  <path
     inkscape:connector-curvature="0"
     style="fill:#ffffff;stroke-width:15.7043314;fill-opacity:1"
     d="m 266.84745,101.64407 a 141.33898,141.33898 0 0 0 -141.33898,141.33898 141.33898,141.33898 0 0 0 24.68721,79.62096 l -24.68721,61.71802 61.62379,-24.62439 A 141.33898,141.33898 0 0 0 266.84745,384.32203 141.33898,141.33898 0 0 0 408.18643,242.98305 141.33898,141.33898 0 0 0 266.84745,101.64407 m -57.50926,66.22516 c 2.70114,0 5.41799,-0.0157 7.78935,0.12564 2.921,0.14134 6.10898,0.25127 9.13992,7.01983 3.61199,8.04062 11.52698,28.15787 12.54776,30.18373 1.02078,2.02586 1.68036,4.39721 0.32979,7.16117 -1.35057,2.66974 -2.02586,4.3501 -4.06742,6.73716 -2.02586,2.37136 -4.25588,5.29236 -6.07758,7.11406 -2.04156,2.01016 -4.17735,4.20876 -1.806,8.27619 2.37136,4.06742 10.5062,17.38469 22.59854,28.15786 15.53158,13.78841 28.6447,18.1228 32.69641,20.14866 4.06743,2.02586 6.43878,1.71177 8.81013,-1.00508 2.37136,-2.71685 10.17641,-11.88818 12.87756,-15.9556 2.71685,-4.06742 5.38658,-3.37643 9.10851,-2.02586 3.72192,1.35058 23.72924,11.2129 27.79666,13.22305 4.06743,2.02586 6.79998,3.06235 7.78935,4.75841 1.02078,1.69607 1.02078,9.87803 -2.40276,19.28492 -3.36073,9.48542 -19.9602,18.65675 -27.41976,19.33203 -7.45956,0.67529 -14.41658,3.45496 -48.76195,-10.1607 -41.3181,-16.28539 -67.38729,-58.62427 -69.41315,-61.34112 -2.02586,-2.71685 -16.63088,-22.04888 -16.63088,-42.0562 0,-19.99161 10.50619,-29.82252 14.22812,-33.88994 3.72193,-4.06743 8.16625,-5.08821 10.8674,-5.08821"
     id="path2-3" />
</svg>
