<svg height="512" viewBox="0 0 512 512" width="512" xmlns="http://www.w3.org/2000/svg">
 <path d="m471.95 253.05c0 120.9-98.01 218.9-218.9 218.9-120.9 0-218.9-98.01-218.9-218.9 0-120.9 98.01-218.9 218.9-218.9 120.9 0 218.9 98.01 218.9 218.9" fill="#777777" fill-rule="evenodd"/>
 <path d="m337.22 136.69l-21.281 20.813c15.851 15.487 24.21 35.539 25 55.781-.202-.206-.387-.422-.594-.625-.324-.337-.633-.67-.969-1l-.031.031c-.326-.339-.631-.7-.969-1.031l-.031.031c-.328-.341-.629-.698-.969-1.031l-.031.031c-.325-.337-.633-.701-.969-1.031l-.031.031c-.327-.339-.631-.699-.969-1.031l-.031.031c-.031-.032-.063-.062-.094-.094-.283-.308-.583-.603-.875-.906h-.031c-.021-.021-.042-.041-.063-.063-.605-.658-1.23-1.304-1.875-1.938l-.031.031c-.327-.339-.631-.699-.969-1.031l-.031.031c-.326-.338-.632-.7-.969-1.031l-.031.031c-.325-.337-.633-.701-.969-1.031l-.031.031c-.322-.333-.636-.673-.969-1h-.031c-.626-.682-1.27-1.344-1.938-2l-.031.031c-.317-.345-.642-.693-.969-1.031h-.031c-.322-.333-.636-.673-.969-1l-.031.031c-.327-.338-.632-.7-.969-1.031l-.031.031c-.308-.318-.62-.625-.938-.938-.648-.705-1.31-1.384-2-2.063l-.031.031c-.636-.69-1.292-1.366-1.969-2.031l-.031.031c-.328-.338-.631-.699-.969-1.031l-.031.031c-.288-.298-.579-.582-.875-.875-.669-.728-1.349-1.424-2.063-2.125l-.031.031c-.33-.341-.629-.697-.969-1.031l-.031.031c-.327-.337-.632-.7-.969-1.031l-.031.031c-.329-.339-.63-.698-.969-1.031l-.031.031c-.326-.336-.633-.701-.969-1.031l-.031.031c-.325-.335-.634-.671-.969-1l-.031.031c-.638-.688-1.261-1.366-1.938-2.031l-.031.031c-.636-.686-1.295-1.369-1.969-2.031l-.031.031c-.327-.337-.632-.701-.969-1.031l-.031.031c-.226-.232-.457-.458-.688-.688-.01-.011-.021-.021-.031-.031-.716-.779-1.456-1.531-2.219-2.281l-.031.031c-.329-.339-.63-.698-.969-1.031-.091.089-11.719 11.469-11.719 11.469.353.347.692.707 1.031 1.063.042.085.041.179-.031.25.376.37.733.746 1.094 1.125-.022.067-.04.134-.094.188.388.382.753.765 1.125 1.156-.032.059-.074.106-.125.156.381.375.729.772 1.094 1.156-.037.058-.074.106-.125.156.39.383.752.794 1.125 1.188-.038.053-.077.109-.125.156.386.38.756.767 1.125 1.156-.039.051-.078.11-.125.156.384.378.757.769 1.125 1.156-.041.051-.077.109-.125.156.248.244.477.502.719.75.103.179.213.352.313.531-.01.011-.021.021-.031.031.042.041.083.084.125.125 6.855 12.43 7.423 27.26 1.719 40.09-.192-.204-.391-.401-.594-.594-.322-.367-.675-.698-1.031-1.031-.283-.317-.566-.646-.875-.938-.275-.31-.575-.62-.875-.906-.326-.371-.671-.725-1.031-1.063-.277-.31-.543-.62-.844-.906-.297-.337-.612-.659-.938-.969-.337-.382-.69-.747-1.063-1.094-.271-.3-.55-.597-.844-.875-.277-.311-.574-.618-.875-.906-.328-.372-.67-.723-1.031-1.063-.278-.311-.542-.619-.844-.906-.337-.381-.691-.747-1.063-1.094-.301-.332-.61-.663-.938-.969-.273-.301-.549-.595-.844-.875-.299-.335-.612-.66-.938-.969-.269-.302-.553-.594-.844-.875-.313-.356-.626-.703-.969-1.031-.318-.358-.652-.702-1-1.031-.299-.333-.612-.661-.938-.969-.271-.302-.551-.594-.844-.875-.297-.335-.615-.658-.938-.969-.317-.358-.654-.702-1-1.031-.271-.303-.551-.592-.844-.875-.331-.373-.669-.751-1.031-1.094-.301-.334-.611-.66-.938-.969-.273-.303-.55-.593-.844-.875-.312-.351-.629-.707-.969-1.031-.3-.335-.612-.658-.938-.969-.297-.331-.616-.63-.938-.938-.278-.31-.575-.617-.875-.906-.334-.376-.666-.748-1.031-1.094-3.231-3.573-7.891-5.844-13.09-5.844-5.146 0-9.774 2.213-13 5.719l-.938-.938-1-1-1-1-.031-.031c-.007-.007-.78-.783-.938-.938l-.031-.031-.906-.906-.063-.063-.875-.875-.125-.125-.813-.813c-.007-.007-.782-.785-.938-.938l-.25-.25-.688-.688-.313-.313-.625-.625c-.003-.003-.347-.348-.375-.375l-.563-.563c-.003-.003-.374-.375-.406-.406l-.531-.531c-.004-.004-.427-.428-.469-.469l-.469-.469c-.004-.004-.479-.48-.531-.531l-.406-.406c-.005-.005-.53-.531-.594-.594l-.344-.344c-.005-.005-.579-.581-.656-.656l-.281-.281c-.006-.006-.628-.63-.719-.719l-.219-.219c-.006-.006-.679-.65-.781-.75l.031-.031-.188-.156-.813-.813-.125-.125-.938-.938-.938-.938c-.091-.089-11.719-11.469-11.719-11.469-.021.021-.041.042-.063.063l-.188-.188c-.001-.001-.214-.183-.219-.188.011-.01.021-.021.031-.031l-1-1-.594-.563c-.002-.002-.418-.387-.438-.406.011-.01.021-.021.031-.031l-1-1-1-1-.969-.969-1-1-.063-.031c-.004-.003-.824-.826-.906-.906l-.031-.031c.005-.005-.005-.026 0-.031l-.844-.844-.156-.156-.75-.719c-.024-.023-.22-.252-.25-.281l-.625-.625-.375-.375-.531-.5-.375-.375-.094-.094-.406-.438-.563-.563-.344-.313-.688-.656c.011-.01.021-.021.031-.031l-.219-.219-.781-.781-.094-.094c-.004-.003-.827-.829-.906-.906-.083-.081-21.281-20.781-21.281-20.781-44.811 43.784-44.939 114.99-.188 158.72.323.331.641.672.969 1 .324.332.671.639 1 .969v.031c.21.215.445.411.656.625.108.112.204.232.313.344.337.338.689.665 1.031 1 .333.334.662.67 1 1 .334.335.661.669 1 1 .332.333.663.67 1 1 .326.335.669.668 1 1 .322.331.642.672.969 1 .01.011.021.021.031.031.317.317.647.623.969.938.328.338.666.665 1 1 .327.337.668.667 1 1 .02.021.042.041.063.063.312.312.621.628.938.938.346.357.71.709 1.063 1.063.301.31.6.63.906.938.031.032.063.062.094.094.296.296.606.581.906.875.328.338.667.665 1 1 .327.337.668.666 1 1 .041.042.084.083.125.125.291.291.58.586.875.875.367.379.751.751 1.125 1.125.281.289.558.588.844.875.052.053.105.103.156.156.276.276.564.539.844.813.327.338.667.665 1 1 .327.338.668.666 1 1 .061.063.126.124.188.188.271.271.538.544.813.813.321.332.642.671.969 1 .326.337.668.666 1 1 .404.418.837.806 1.25 1.219.247.254.5.498.75.75.327.338.667.665 1 1 .325.336.669.667 1 1 .083.086.167.165.25.25.249.248.498.504.75.75.087.09.163.192.25.281.239.239.477.482.719.719.424.44.878.847 1.313 1.281.227.233.458.456.688.688.326.339.667.665 1 1 .324.337.669.667 1 1 .103.107.209.206.313.313.228.228.456.462.688.688.108.112.204.232.313.344.218.218.435.44.656.656.445.462.918.889 1.375 1.344.206.212.416.415.625.625.326.339.667.664 1 1 .325.339.668.665 1 1 .124.129.25.247.375.375.208.207.415.42.625.625.128.134.246.273.375.406.198.197.394.398.594.594.14.141.296.266.438.406.197.203.394.392.594.594.317.33.645.642.969.969.325.339.668.665 1 1 .325.34.668.665 1 1 .323.337.67.667 1 1 .149.155.287.314.438.469.181.18.38.353.563.531.477.498.977.98 1.469 1.469.175.18.354.352.531.531.314.329.648.644.969.969.326.341.667.664 1 1 .333.349.69.687 1.031 1.031.159.166.308.335.469.5.16.159.338.311.5.469.496.52 1.018 1.022 1.531 1.531.155.159.312.31.469.469.314.329.648.644.969.969.326.342.667.663 1 1 .363.381.752.75 1.125 1.125.077.081.141.17.219.25h-51.31v17.656h.969v1h1v1h1v1h1v1h1v1h1v .969h.969v1h1v1h1v1h1v1h1v1h1v .969h1v1h .969v1h1v1h1v1h1v1h1v .969h1v1h .969v1h1v1h1v1h1v1h1v1h1v .969h.969v1h1v1h1v1h1v1h1v1h1v .969h.969v1h1v1h1v1h1v1h1v1h1v .969h1v1h .969v1h1v1h1v1h1v1h1v1h1v .969h.969v1h1v1h1v1h1v1h1v1h1v .969h.969v1h1v1h1v1h1v1h1v1h1v .969h.969v1h1v1h1v1h1v1h1v1h1v .969h1v1h .969v1h1v1h1v1h1v1h1v1h1v .969h.969v1h1v1h1v1h1v1h1v1h1v .969h.969v1h1v1h1v1h1v1h1v1h1v .969h1v1h .969v1h1v1h1v1h1v1h1v1h1v .969h.969v1h1v1h1v1h1v1h1v1h1v .969h.969v1h1v .344c102.04-12.913 182.18-96.04 190.44-199.47-.209-.209-.418-.417-.625-.625-.026-.026-.037-.067-.063-.094h-.031c-.298-.306-.604-.603-.906-.906-.026-.026-.037-.067-.063-.094h-.031c-.298-.306-.604-.603-.906-.906-.323-.332-.64-.671-.969-1-.326-.335-.669-.668-1-1-.323-.332-.672-.639-1-.969-.326-.335-.669-.668-1-1-.026-.026-.037-.067-.063-.094h-.031c-.298-.306-.604-.603-.906-.906-.026-.026-.037-.067-.063-.094h-.031c-.298-.306-.604-.603-.906-.906-.323-.332-.64-.671-.969-1-.326-.335-.669-.668-1-1-.323-.332-.672-.639-1-.969-.326-.335-.669-.668-1-1-.026-.026-.037-.067-.063-.094h-.031c-.298-.306-.604-.603-.906-.906-.026-.026-.037-.067-.063-.094h-.031c-.298-.306-.604-.603-.906-.906-.328-.338-.666-.665-1-1-.323-.332-.64-.671-.969-1-.323-.332-.672-.639-1-.969-.326-.335-.669-.668-1-1-.025-.026-.037-.068-.063-.094h-.031c-.296-.304-.606-.605-.906-.906-.026-.026-.037-.067-.063-.094h-.031c-.298-.306-.604-.603-.906-.906-.026-.026-.037-.067-.063-.094h-.031c-.298-.306-.604-.603-.906-.906-.323-.332-.64-.671-.969-1-.323-.332-.672-.639-1-.969-.326-.335-.669-.668-1-1-.025-.026-.037-.068-.063-.094h-.031c-.296-.304-.606-.605-.906-.906-.026-.026-.037-.067-.063-.094h-.031c-.298-.306-.604-.603-.906-.906-.026-.026-.037-.067-.063-.094h-.031c-.298-.306-.604-.603-.906-.906-.323-.332-.64-.671-.969-1-.326-.335-.669-.668-1-1-.323-.332-.672-.639-1-.969-.326-.335-.669-.668-1-1-.026-.026-.037-.067-.063-.094h-.031c-.298-.306-.604-.603-.906-.906-.026-.026-.037-.067-.063-.094h-.031c-.298-.306-.604-.603-.906-.906-.323-.332-.64-.671-.969-1-.326-.335-.669-.668-1-1-.323-.332-.672-.639-1-.969-.326-.335-.669-.668-1-1-.026-.026-.037-.067-.063-.094h-.031c-.298-.306-.604-.603-.906-.906-.026-.026-.037-.067-.063-.094h-.031c-.298-.306-.604-.603-.906-.906-.328-.338-.666-.665-1-1-.323-.332-.64-.671-.969-1-.323-.332-.672-.639-1-.969-.326-.335-.669-.668-1-1-.025-.026-.037-.068-.063-.094h-.031c-.296-.304-.606-.605-.906-.906-.026-.026-.037-.067-.063-.094h-.031c-.298-.306-.604-.603-.906-.906-.026-.026-.037-.067-.063-.094h-.031c-.298-.306-.604-.603-.906-.906-.323-.332-.64-.671-.969-1-.321-.33-.674-.642-1-.969-.326-.335-.669-.668-1-1-.326-.335-.669-.668-1-1-.026-.026-.037-.067-.063-.094h-.031c-.298-.306-.604-.603-.906-.906-.026-.026-.037-.067-.063-.094h-.031c-.298-.306-.604-.603-.906-.906-.323-.332-.64-.671-.969-1-.326-.335-.669-.668-1-1-.323-.332-.672-.639-1-.969-.326-.335-.669-.668-1-1-.026-.026-.037-.067-.063-.094h-.031c-.298-.306-.604-.603-.906-.906-.328-.338-.666-.665-1-1-.328-.338-.666-.665-1-1-.323-.332-.64-.671-.969-1-.323-.332-.672-.639-1-.969-.326-.335-.669-.668-1-1-.025-.026-.037-.068-.063-.094h-.031c-.296-.304-.606-.605-.906-.906-.026-.026-.037-.067-.063-.094h-.031c-.298-.306-.604-.603-.906-.906-.026-.026-.037-.067-.063-.094h-.031c-.298-.306-.604-.603-.906-.906-.323-.332-.64-.671-.969-1-.323-.332-.672-.639-1-.969-.326-.335-.669-.668-1-1-.025-.026-.037-.068-.063-.094h-.031c-.296-.304-.606-.605-.906-.906-.026-.026-.037-.067-.063-.094h-.031c-.298-.306-.604-.603-.906-.906-.026-.026-.037-.067-.063-.094h-.031c-.298-.306-.604-.603-.906-.906-.323-.332-.64-.671-.969-1-.326-.335-.669-.668-1-1-.323-.332-.672-.639-1-.969-.326-.335-.669-.668-1-1-.026-.026-.037-.067-.063-.094h-.031c-.298-.306-.604-.603-.906-.906-.026-.026-.037-.067-.063-.094h-.031c-.298-.306-.604-.603-.906-.906-.323-.332-.64-.671-.969-1-.326-.335-.669-.668-1-1-.323-.332-.672-.639-1-.969-.326-.335-.669-.668-1-1-.026-.026-.037-.067-.063-.094h-.031c-.298-.306-.604-.603-.906-.906-.026-.026-.037-.067-.063-.094h-.031c-.298-.306-.604-.603-.906-.906-.328-.338-.666-.665-1-1-.323-.332-.64-.671-.969-1-.323-.332-.672-.639-1-.969-.326-.335-.669-.668-1-1-.025-.026-.037-.068-.063-.094h-.031c-.296-.304-.606-.605-.906-.906-.026-.026-.037-.067-.063-.094h-.031c-.298-.306-.604-.603-.906-.906-.026-.026-.037-.067-.063-.094h-.031c-.298-.306-.604-.603-.906-.906-.323-.332-.64-.671-.969-1-.321-.33-.674-.642-1-.969-.326-.335-.669-.668-1-1-.326-.335-.669-.668-1-1-.026-.026-.037-.067-.063-.094h-.031c-.298-.306-.604-.603-.906-.906-.026-.026-.037-.067-.063-.094h-.031c-.298-.306-.604-.603-.906-.906-.323-.332-.64-.671-.969-1-.326-.335-.669-.668-1-1-.323-.332-.672-.639-1-.969-.326-.335-.669-.668-1-1-.026-.026-.037-.067-.063-.094h-.031c-.298-.306-.604-.603-.906-.906-.026-.026-.037-.067-.063-.094h-.031c-.298-.306-.604-.603-.906-.906-.328-.338-.666-.665-1-1-.323-.332-.64-.671-.969-1-.323-.332-.672-.639-1-.969-.326-.335-.669-.668-1-1-.026-.026-.037-.067-.063-.094h-.031c-.298-.306-.604-.603-.906-.906-.026-.026-.037-.067-.063-.094h-.031c-.298-.306-.604-.603-.906-.906-.328-.338-.666-.665-1-1-.323-.332-.64-.671-.969-1-.323-.332-.672-.639-1-.969-.326-.335-.669-.668-1-1-.025-.026-.037-.068-.063-.094h-.031c-.296-.304-.606-.605-.906-.906-.026-.026-.037-.067-.063-.094h-.031c-.298-.306-.604-.603-.906-.906-.026-.026-.037-.067-.063-.094h-.031c-.298-.306-.604-.603-.906-.906-.323-.332-.64-.671-.969-1-.326-.335-.669-.668-1-1-.323-.332-.672-.639-1-.969-.326-.335-.669-.668-1-1-.026-.026-.037-.067-.063-.094h-.031c-.298-.306-.604-.603-.906-.906-.026-.026-.037-.067-.063-.094h-.031c-.298-.306-.604-.603-.906-.906-.323-.332-.64-.671-.969-1-.326-.335-.669-.668-1-1-.323-.332-.672-.639-1-.969-.326-.335-.669-.668-1-1-.026-.026-.037-.067-.063-.094h-.031c-.298-.306-.604-.603-.906-.906-.026-.026-.037-.067-.063-.094h-.031c-.298-.306-.604-.603-.906-.906-.328-.338-.666-.665-1-1-.323-.332-.64-.671-.969-1-.323-.332-.672-.639-1-.969-.326-.335-.669-.668-1-1-.025-.026-.037-.068-.063-.094h-.031c-.296-.304-.606-.605-.906-.906-.354-.364-.702-.733-1.063-1.094h-.031c-.324-.324-.64-.648-.969-.969m-135.41 15.09h.031z" fill-opacity=".235"/>
 <g fill-rule="evenodd">
  <path d="m256 1c-140.83 0-255 114.17-255 255s114.17 255 255 255 255-114.17 255-255-114.17-255-255-255m8.827 44.931c120.9 0 218.9 98 218.9 218.9s-98 218.9-218.9 218.9-218.93-98-218.93-218.9 98.03-218.9 218.93-218.9" fill-opacity=".067"/>
  <g fill-opacity=".129">
   <path d="m256 4.433c-138.94 0-251.57 112.63-251.57 251.57s112.63 251.57 251.57 251.57 251.57-112.63 251.57-251.57-112.63-251.57-251.57-251.57m5.885 38.556c120.9 0 218.9 98 218.9 218.9s-98 218.9-218.9 218.9-218.93-98-218.93-218.9 98.03-218.9 218.93-218.9"/>
   <path d="m256 8.356c-136.77 0-247.64 110.87-247.64 247.64s110.87 247.64 247.64 247.64 247.64-110.87 247.64-247.64-110.87-247.64-247.64-247.64m2.942 31.691c120.9 0 218.9 98 218.9 218.9s-98 218.9-218.9 218.9-218.93-98-218.93-218.9 98.03-218.9 218.93-218.9"/>
  </g>
  <path d="m253.04 7.859c-135.42 0-245.19 109.78-245.19 245.19 0 135.42 109.78 245.19 245.19 245.19 135.42 0 245.19-109.78 245.19-245.19 0-135.42-109.78-245.19-245.19-245.19zm0 26.297c120.9 0 218.9 98 218.9 218.9s-98 218.9-218.9 218.9-218.93-98-218.93-218.9 98.03-218.9 218.93-218.9z" fill="#ffffff" stroke="#000000" stroke-opacity=".31" stroke-width="4.904"/>
 </g>
 <path d="m337.22 136.68l-21.285 20.838c33.24 32.476 33.483 84.92.198 117.44l21.285 20.838c44.812-43.783 44.553-115.39-.198-159.11m-162.44.198c-44.812 43.784-44.95 114.99-.198 158.72l21.285-20.838c-33.24-32.476-33.09-84.57.198-117.09l-21.28-20.79m125.77 35.971l-11.709 11.461c18.225 17.916 18.349 46.856.099 64.797l11.709 11.511c24.57-24.15 24.438-63.65-.099-87.77m-89.11.099c-24.57 24.15-24.636 63.45-.099 87.57l11.709-11.511c-18.225-17.916-18.15-46.658.099-64.6l-11.71-11.47m44.554 25.601c-9.764 0-17.663 7.899-17.663 17.663 0 6.544 3.547 12.274 8.831 15.331l.149 126.12h-62.02v17.663h141.4v-17.663h-61.87l-.149-126.02c5.371-3.034 8.98-8.822 8.98-15.43 0-9.764-7.899-17.663-17.663-17.663" fill="#ffffff"/>
</svg>
