<svg height="512" viewBox="0 0 512 512" width="512" xmlns="http://www.w3.org/2000/svg">
 <path d="m475.24058 251.53145c0 120.9-98.01 218.9-218.9 218.9-120.9 0-218.900005-98.01-218.900005-218.9 0-120.9 98.010005-218.899998 218.900005-218.899998 120.9 0 218.9 98.009998 218.9 218.899998" fill="#828282" fill-rule="evenodd"/>
 <path d="m261.23058 32.641452c120.89 0 218.91 98.009998 218.91 218.909998 0 .814-.022 1.626-.031 2.438h-221.31v-221.309998c.816-.009 1.619-.031 2.438-.031" fill="#828282"/>
 <path d="m261.23058 475.32145c120.89 0 218.91-98.01 218.91-218.91 0-.814-.022-1.626-.031-2.438h-221.31v221.31c.816.009 1.619.031 2.438.031" fill="#828282"/>
 <path d="m256.35058 475.32145c-120.89 0-218.910005-98.01-218.910005-218.91 0-.814.022-1.626.031-2.438h221.310005v221.31c-.816.009-1.619.031-2.438.031" fill="#828282"/>
 <path d="m256.35058 32.641452c-120.89 0-218.910005 98.009998-218.910005 218.909998 0 .814.022 1.626.031 2.438h221.310005v-221.309998c-.816-.009-1.619-.031-2.438-.031" fill="#828282"/>
 <path d="m319.31058 128.08145l-60.04 60.04-60.01-60.01-66.35 66.35 60.01 60.01-60.04 60.04 66.37 66.37 87.45 87.45c96.59-13.409 173.01-89.83 186.42-186.42l-87.45-87.45-66.37-66.37" opacity=".25"/>
 <path d="m319.31058 128.08145l-60.04 60.04-60.01-60.01-66.35 66.35 60.01 60.01-60.04 60.04 66.37 66.37 60.04-60.04 60.04 60.04 66.35-66.35-60.04-60.04 60.04-60.04z" fill="#ffffff"/>
 <path d="m256 1c-140.83 0-255 114.17-255 255 0 140.83 114.17 255 255 255 140.83 0 255-114.17 255-255 0-140.83-114.17-255-255-255m8.827 44.931c120.9 0 218.9 98 218.9 218.9 0 120.9-98 218.9-218.9 218.9-120.9 0-218.93-98-218.93-218.9 0-120.9 98.03-218.9 218.93-218.9" fill-opacity=".067" fill-rule="evenodd"/>
 <g fill-opacity=".129" fill-rule="evenodd">
  <path d="m256 4.433c-138.94 0-251.57 112.63-251.57 251.57 0 138.94 112.63 251.57 251.57 251.57 138.94 0 251.57-112.63 251.57-251.57 0-138.94-112.63-251.57-251.57-251.57m5.885 38.556c120.9 0 218.9 98 218.9 218.9 0 120.9-98 218.9-218.9 218.9-120.9 0-218.93-98-218.93-218.9 0-120.9 98.03-218.9 218.93-218.9"/>
  <path d="m256 8.356c-136.77 0-247.64 110.87-247.64 247.64 0 136.77 110.87 247.64 247.64 247.64 136.77 0 247.64-110.87 247.64-247.64 0-136.77-110.87-247.64-247.64-247.64m2.942 31.691c120.9 0 218.9 98 218.9 218.9 0 120.9-98 218.9-218.9 218.9-120.9 0-218.93-98-218.93-218.9 0-120.9 98.03-218.9 218.93-218.9"/>
 </g>
 <path d="m253.04 7.859c-135.42 0-245.19 109.78-245.19 245.19 0 135.42 109.78 245.19 245.19 245.19 135.42 0 245.19-109.78 245.19-245.19 0-135.42-109.78-245.19-245.19-245.19zm0 26.297c120.9 0 218.9 98 218.9 218.9 0 120.9-98 218.9-218.9 218.9-120.9 0-218.93-98-218.93-218.9 0-120.9 98.03-218.9 218.93-218.9z" fill="#ffffff" fill-rule="evenodd" stroke="#000000" stroke-opacity=".31" stroke-width="4.904"/>
</svg>
