<svg height="512" viewBox="0 0 512 512" width="512" xmlns="http://www.w3.org/2000/svg">
 <clipPath id="a">
  <path d="m0 595.28h841.89v-595.28h-841.89z"/>
 </clipPath>
 <path d="m471.95 253.05c0 120.9-98.01 218.9-218.9 218.9-120.9 0-218.9-98.01-218.9-218.9 0-120.9 98.01-218.9 218.9-218.9 120.9 0 218.9 98.01 218.9 218.9" fill="#979797" fill-rule="evenodd"/>
 <path d="m256 1c-140.83 0-255 114.17-255 255 0 140.83 114.17 255 255 255 140.83 0 255-114.17 255-255 0-140.83-114.17-255-255-255m8.827 44.931c120.9 0 218.9 98 218.9 218.9 0 120.9-98 218.9-218.9 218.9-120.9 0-218.93-98-218.93-218.9 0-120.9 98.03-218.9 218.93-218.9" fill-opacity=".067" fill-rule="evenodd"/>
 <g fill-opacity=".129" fill-rule="evenodd">
  <path d="m256 4.433c-138.94 0-251.57 112.63-251.57 251.57 0 138.94 112.63 251.57 251.57 251.57 138.94 0 251.57-112.63 251.57-251.57 0-138.94-112.63-251.57-251.57-251.57m5.885 38.556c120.9 0 218.9 98 218.9 218.9 0 120.9-98 218.9-218.9 218.9-120.9 0-218.93-98-218.93-218.9 0-120.9 98.03-218.9 218.93-218.9"/>
  <path d="m256 8.356c-136.77 0-247.64 110.87-247.64 247.64 0 136.77 110.87 247.64 247.64 247.64 136.77 0 247.64-110.87 247.64-247.64 0-136.77-110.87-247.64-247.64-247.64m2.942 31.691c120.9 0 218.9 98 218.9 218.9 0 120.9-98 218.9-218.9 218.9-120.9 0-218.93-98-218.93-218.9 0-120.9 98.03-218.9 218.93-218.9"/>
 </g>
 <path d="m380.31384 269.96392l-103.03498-117.11986c-36.56039-14.40499-51.29539 30.87582-51.21041 31.7566l.54662 85.87569-93.81008-119.35315-11.83293 35.52663 1.6134 37.09451-.18233 53.64498 13.94734 57.03284 135.30224 139.70831c112.06115-25.35811 189.85938-88.00233 202.50065-221.55266l2.12462 2.04135-86.61736-104.78454-11.00031 24.51442" opacity=".25"/>
 <path d="m253.04 7.859c-135.42 0-245.19 109.78-245.19 245.19 0 135.42 109.78 245.19 245.19 245.19 135.42 0 245.19-109.78 245.19-245.19 0-135.42-109.78-245.19-245.19-245.19zm0 26.297c120.9 0 218.9 98 218.9 218.9 0 120.9-98 218.9-218.9 218.9-120.9 0-218.93-98-218.93-218.9 0-120.9 98.03-218.9 218.93-218.9z" fill="#ffffff" fill-rule="evenodd" stroke="#000000" stroke-opacity=".31" stroke-width="4.904"/>
 <g clip-path="url(#a)" fill="#ffffff" transform="matrix(.98658539 0 0 -.98658539 -161.42419 547.37709)">
  <g transform="translate(437.143 378.6299)">
   <path d="m0 0c0 8.933-7.267 16.198-16.198 16.198-8.931 0-16.198-7.265-16.198-16.198v-109.336c0-16.853 6.108-32.29 16.198-44.269 10.09 11.979 16.198 27.416 16.198 44.269zm121.485-109.336c0-46.89-37.892-85.04-84.784-85.04-19.88 0-37.891 6.909-52.387 18.382-14.497-11.473-32.934-18.382-52.814-18.382-46.892 0-85.381 38.15-85.381 85.04v133.633h16.198v-133.633c0-37.96 31.052-68.842 69.012-68.842 15.29 0 29.554 5.072 40.992 13.537-12.789 14.886-20.915 34.187-20.915 55.305v109.336c0 17.863 14.533 32.396 32.396 32.396 17.863 0 32.396-14.533 32.396-32.396v-109.336c0-21.118-7.614-40.419-20.403-55.305 11.438-8.465 25.701-13.537 40.992-13.537 37.96 0 68.5 30.882 68.5 68.842v133.633h16.198z"/>
  </g>
 </g>
</svg>
