<svg height="512" viewBox="0 0 512 512" width="512" xmlns="http://www.w3.org/2000/svg">
 <g transform="translate(0 -540.36)">
  <g fill-rule="evenodd">
   <path d="m471.95 793.41c0 120.9-98.01 218.9-218.9 218.9-120.9 0-218.9-98.01-218.9-218.9 0-120.9 98.01-218.9 218.9-218.9 120.9 0 218.9 98.01 218.9 218.9" fill="#9f9f9f"/>
   <path d="m137.66 126.41v259.19h1v1h1v1h1v1h .969v.969h1v1h1v1h1v1h1v1h1v1h .969v.969h1v1h1v1h1v1h1v1h1v1h .969v.969h1v1h1v1h1v1h1v1h1v1h .969v.969h1v1h1v1h1v1h1v1h1v1h1v1h .969v.969h1v1h1v1h1v1h1v1h1v1h .969v.969h1v1h1v1h1v1h1v1h1v1h .969v.969h1v1h1v1h1v1h1v1h1v1h1v1h .969v.969h1v1h1v1h1v1h1v1h1v1h .969v.969h1v1h1v1h1v1h1v1h1v1h .969v.969h1v1h1v1h1v1h1v1h1v1h .969v.969h1v1h1v1h1v1h1v1h1v1h1v1h .969v.969h1v1h1v1h1v1h1v1h1v1h .969v.969h1v1h1v1h1v1h1v1h1v1h .969v.594c10.07 1.42 20.347 2.188 30.813 2.188 120.9 0 218.91-98.01 218.91-218.91 0-10.216-.708-20.281-2.063-30.12v-.063c-.043-.314-.08-.624-.125-.938h-.875v-1h-1v-1h-1v-1h-1v-1h-.969v-.969h-1v-1h-1v-1h-1v-1h-1v-1h-1v-1h-1v-1h-.969v-.969h-1v-1h-1v-1h-1v-1h-1v-1h-1v-1h-.969v-.969h-1v-1h-1v-1h-1v-1h-1v-1h-1v-1h-.969v-.969h-1v-1h-1v-1h-1v-1h-1v-1h-1v-1h-1v-1h-.969v-.969h-1v-1h-1v-1h-1v-1h-1v-1h-1v-1h-.969v-.969h-1v-1h-1v-1h-1v-1h-1v-1h-1v-1h-.969v-.969h-1v-1h-1v-1h-1v-1h-1v-1h-1v-1h-.969v-.969h-1v-1h-1v-1h-1v-1h-1v-1h-1v-1h-1v-1h-.969v-.969h-1v-1h-1v-1h-1v-1h-1v-1h-1v-1h-.969v-.969h-1v-1h-1v-1h-1v-1h-1v-1h-1v-1h-.969v-.969h-1v-1h-1v-1h-1v-1h-1v-1h-1v-1h-1v-1h-.969v-.969h-1v-1h-1v-1h-1v-1h-1v-1h-1v-1h-.969v-.969h-1v-1h-1v-1h-1v-1h-1v-1h-1v-1h-.969v-.969h-1v-1h-1v-1h-1v-1h-1v-1h-1v-1h-.969v-.969h-1v-1h-1v-1h-1v-1h-236.68" fill-opacity=".235" transform="translate(0 540.36)"/>
   <path d="m256 541.36c-140.83 0-255 114.17-255 255s114.17 255 255 255 255-114.17 255-255-114.17-255-255-255m8.827 44.931c120.9 0 218.9 98 218.9 218.9s-98 218.9-218.9 218.9-218.93-98-218.93-218.9 98.03-218.9 218.93-218.9" fill-opacity=".067"/>
   <g fill-opacity=".129">
    <path d="m256 544.79c-138.94 0-251.57 112.63-251.57 251.57s112.63 251.54 251.57 251.54 251.57-112.6 251.57-251.54-112.63-251.57-251.57-251.57m5.885 38.556c120.9 0 218.9 98 218.9 218.9s-98 218.9-218.9 218.9-218.93-98-218.93-218.9 98.03-218.9 218.93-218.9"/>
    <path d="m256 548.72c-136.77 0-247.64 110.87-247.64 247.64s110.87 247.64 247.64 247.64 247.64-110.87 247.64-247.64-110.87-247.64-247.64-247.64m2.942 31.691c120.9 0 218.9 98 218.9 218.9s-98 218.9-218.9 218.9-218.93-98-218.93-218.9 98.03-218.9 218.93-218.9"/>
   </g>
   <path d="m253.04 548.22c-135.42 0-245.19 109.78-245.19 245.19 0 135.42 109.78 245.19 245.19 245.19 135.42 0 245.19-109.78 245.19-245.19 0-135.42-109.78-245.19-245.19-245.19zm0 26.297c120.9 0 218.9 98 218.9 218.9s-98 218.9-218.9 218.9-218.93-98-218.93-218.9 98.03-218.9 218.93-218.9z" fill="#ffffff" stroke="#000000" stroke-opacity=".31" stroke-width="4.904"/>
  </g>
  <path d="m137.66 666.77v259.19h59.47v-87.84h117.75v.063h59.47v-171.41h-236.68m59.47 59.34h117.75v52.656h-117.75z" fill="#ffffff" fill-rule="evenodd"/>
 </g>
</svg>
