<svg height="512" viewBox="0 0 512 512" width="512" xmlns="http://www.w3.org/2000/svg">
 <path d="m471.95 253.05c0 120.9-98.01 218.9-218.9 218.9-120.9 0-218.9-98.01-218.9-218.9 0-120.9 98.01-218.9 218.9-218.9 120.9 0 218.9 98.01 218.9 218.9" fill="#878787" fill-rule="evenodd"/>
 <path d="m129.09 146.59c-3.638-.001-7.084 1.687-9.313 4.563-2.228 2.875-3 6.634-2.094 10.156l50.22 195.25c.599 2.317 1.869 4.333 3.563 5.844.331.376.687.733 1.063 1.063.311.347.651.693 1 1 .308.343.655.665 1 .969.331.37.658.738 1.031 1.063.268.297.548.545.844.813.326.375.662.733 1.031 1.063.331.376.687.733 1.063 1.063.311.347.651.693 1 1 .308.343.655.665 1 .969.331.37.658.738 1.031 1.063.278.307.567.568.875.844.32.365.639.709 1 1.031.312.354.649.687 1 1 .331.376.687.733 1.063 1.063.308.343.655.665 1 .969.312.35.649.691 1 1 .311.348.619.692.969 1 .292.327.612.614.938.906.316.36.643.713 1 1.031.331.376.687.733 1.063 1.063.311.347.651.693 1 1 .308.343.655.665 1 .969.331.37.658.738 1.031 1.063.268.297.548.545.844.813.326.375.662.733 1.031 1.063.331.376.687.733 1.063 1.063.311.347.651.693 1 1 .308.343.655.665 1 .969.331.37.658.738 1.031 1.063.268.297.548.545.844.813.326.375.662.733 1.031 1.063.331.376.687.733 1.063 1.063.311.347.651.693 1 1 .308.343.655.665 1 .969.331.37.658.738 1.031 1.063.278.307.567.568.875.844.314.359.646.683 1 1 .316.36.643.713 1 1.031.331.376.687.733 1.063 1.063.308.343.655.665 1 .969.312.35.649.691 1 1 .331.37.658.738 1.031 1.063.268.297.548.545.844.813.326.375.662.733 1.031 1.063.331.376.687.733 1.063 1.063.311.347.651.693 1 1 .308.343.655.665 1 .969.331.37.658.738 1.031 1.063.268.297.548.545.844.813.326.375.662.733 1.031 1.063.331.376.687.733 1.063 1.063.311.347.651.693 1 1 .308.343.655.665 1 .969.331.37.658.738 1.031 1.063.268.297.548.545.844.813.326.375.662.733 1.031 1.063.312.354.649.687 1 1 .331.376.687.733 1.063 1.063.308.343.655.665 1 .969.312.35.649.691 1 1 .311.348.619.692.969 1 .292.327.612.614.938.906.316.36.643.713 1 1.031.331.376.687.733 1.063 1.063.311.347.651.693 1 1 .308.343.655.665 1 .969.331.37.658.738 1.031 1.063.268.297.548.545.844.813.326.375.662.733 1.031 1.063.331.376.687.733 1.063 1.063.311.347.651.693 1 1 .308.343.655.665 1 .969.331.37.658.738 1.031 1.063.268.297.548.545.844.813.326.375.662.733 1.031 1.063.331.376.687.733 1.063 1.063.311.347.651.693 1 1 .308.343.655.665 1 .969.331.37.658.738 1.031 1.063.278.307.567.568.875.844.314.359.646.683 1 1 .316.36.643.713 1 1.031.331.376.687.733 1.063 1.063.308.343.655.665 1 .969.312.35.649.691 1 1 .331.37.658.738 1.031 1.063.268.297.548.545.844.813.326.375.662.733 1.031 1.063.331.376.687.733 1.063 1.063.311.347.651.693 1 1 .308.343.655.665 1 .969.331.37.658.738 1.031 1.063.268.297.548.545.844.813.326.375.662.733 1.031 1.063.331.376.687.733 1.063 1.063.311.347.651.693 1 1 .308.343.655.665 1 .969.331.37.658.738 1.031 1.063.268.297.548.545.844.813.326.375.662.733 1.031 1.063.312.354.649.687 1 1 .331.376.687.733 1.063 1.063.308.343.655.665 1 .969.312.35.649.691 1 1 .311.348.619.692.969 1 .292.327.612.614.938.906.316.36.643.713 1 1.031.331.376.687.733 1.063 1.063.132.147.294.267.438.406 108.45-13.03 192.5-105.31 192.5-217.28 0-7.942-.425-15.808-1.25-23.531-.115-.106-.226-.208-.344-.313-.311-.353-.652-.69-1-1-.311-.353-.652-.69-1-1-.344-.39-.706-.756-1.094-1.094-.314-.348-.619-.695-.969-1-.289-.32-.587-.622-.906-.906-.33-.374-.692-.705-1.063-1.031-.296-.331-.609-.645-.938-.938-.311-.353-.652-.69-1-1-.344-.39-.706-.756-1.094-1.094-.314-.348-.619-.695-.969-1-.289-.32-.587-.622-.906-.906-.33-.374-.692-.705-1.063-1.031-.296-.331-.609-.645-.938-.938-.311-.353-.652-.69-1-1-.344-.39-.706-.756-1.094-1.094-.289-.32-.587-.622-.906-.906-.327-.37-.664-.708-1.031-1.031-.302-.339-.601-.67-.938-.969-.31-.352-.653-.659-1-.969-.311-.353-.652-.69-1-1-.311-.353-.652-.69-1-1-.314-.356-.649-.687-1-1-.327-.37-.664-.708-1.031-1.031-.302-.339-.601-.67-.938-.969-.33-.374-.692-.705-1.063-1.031-.296-.331-.609-.645-.938-.938-.311-.353-.652-.69-1-1-.344-.39-.706-.756-1.094-1.094-.314-.348-.619-.695-.969-1-.289-.32-.587-.622-.906-.906-.33-.374-.692-.705-1.063-1.031-.296-.331-.609-.645-.938-.938-.311-.353-.652-.69-1-1-.344-.39-.706-.756-1.094-1.094-.289-.32-.587-.622-.906-.906-.327-.37-.664-.708-1.031-1.031-.302-.339-.601-.67-.938-.969-.31-.352-.653-.659-1-.969-.311-.353-.652-.69-1-1-.344-.39-.706-.756-1.094-1.094-.289-.32-.587-.622-.906-.906-.327-.37-.664-.708-1.031-1.031-.302-.339-.601-.67-.938-.969-.31-.352-.653-.659-1-.969-.311-.353-.652-.69-1-1-.311-.353-.652-.69-1-1-.344-.39-.706-.756-1.094-1.094-.314-.348-.619-.695-.969-1-.289-.32-.587-.622-.906-.906-.33-.374-.692-.705-1.063-1.031-.296-.331-.609-.645-.938-.938-.311-.353-.652-.69-1-1-.344-.39-.706-.756-1.094-1.094-.314-.348-.619-.695-.969-1-.289-.32-.587-.622-.906-.906-.33-.374-.692-.705-1.063-1.031-.296-.331-.609-.645-.938-.938-.311-.353-.652-.69-1-1-.344-.39-.706-.756-1.094-1.094-.289-.32-.587-.622-.906-.906-.327-.37-.664-.708-1.031-1.031-.302-.339-.601-.67-.938-.969-.31-.352-.653-.659-1-.969-.311-.353-.652-.69-1-1-.311-.353-.652-.69-1-1-.314-.356-.649-.687-1-1-.327-.37-.664-.708-1.031-1.031-.302-.339-.601-.67-.938-.969-.33-.374-.692-.705-1.063-1.031-.296-.331-.609-.645-.938-.938-.311-.353-.652-.69-1-1-.344-.39-.706-.756-1.094-1.094-.314-.348-.619-.695-.969-1-.289-.32-.587-.622-.906-.906-.33-.374-.692-.705-1.063-1.031-.296-.331-.609-.645-.938-.938-.311-.353-.652-.69-1-1-.344-.39-.706-.756-1.094-1.094-.289-.32-.587-.622-.906-.906-2.225-2.518-5.428-4-8.813-4h-27.5c-5.374.002-10.08 3.667-11.406 8.875-.023.092-6.247 24.701-11.969 47.16-.112-.108-.227-.209-.344-.313-.368-.413-.736-.831-1.156-1.188-.271-.292-.545-.581-.844-.844-.304-.34-.628-.667-.969-.969-.267-.3-.549-.573-.844-.844-.307-.358-.654-.683-1-1-.355-.414-.749-.797-1.156-1.156-.311-.348-.651-.692-1-1-.363-.407-.742-.805-1.156-1.156-.252-.272-.505-.535-.781-.781-.321-.363-.67-.711-1.031-1.031-.265-.298-.55-.575-.844-.844-.355-.414-.749-.797-1.156-1.156-.311-.348-.651-.692-1-1-.363-.407-.742-.805-1.156-1.156-.252-.272-.505-.535-.781-.781-.321-.363-.67-.711-1.031-1.031-.267-.3-.549-.573-.844-.844-.307-.358-.654-.683-1-1-.355-.414-.749-.797-1.156-1.156-.363-.407-.742-.805-1.156-1.156-.262-.283-.524-.557-.813-.813-.313-.352-.648-.689-1-1-.267-.3-.549-.573-.844-.844-.307-.358-.654-.683-1-1-.355-.414-.749-.797-1.156-1.156-.363-.407-.742-.805-1.156-1.156-.271-.292-.545-.581-.844-.844-.294-.328-.61-.645-.938-.938-.321-.363-.67-.711-1.031-1.031-.265-.298-.55-.575-.844-.844-.355-.414-.749-.797-1.156-1.156-.311-.348-.651-.692-1-1-.363-.407-.742-.805-1.156-1.156-.252-.272-.505-.535-.781-.781-.321-.363-.67-.711-1.031-1.031-.267-.3-.549-.573-.844-.844-.307-.358-.654-.683-1-1-.355-.414-.749-.797-1.156-1.156-.363-.406-.742-.805-1.156-1.156-.252-.272-.505-.535-.781-.781-.321-.363-.67-.711-1.031-1.031-.267-.3-.549-.573-.844-.844-.307-.358-.654-.683-1-1-.355-.414-.749-.797-1.156-1.156-.363-.406-.742-.805-1.156-1.156-.271-.292-.545-.581-.844-.844-.304-.34-.628-.667-.969-.969-.267-.3-.549-.573-.844-.844-.307-.358-.654-.683-1-1-.355-.414-.749-.797-1.156-1.156-.311-.348-.651-.692-1-1-.363-.406-.742-.805-1.156-1.156-2.17-2.34-5.235-3.78-8.594-3.781h-30.5c-5.374.002-10.08 3.667-11.406 8.875-.023.092-6.247 24.701-11.969 47.16-.112-.108-.227-.209-.344-.313-.316-.355-.645-.718-1-1.031-.363-.407-.742-.805-1.156-1.156-.252-.272-.505-.535-.781-.781-.305-.345-.627-.663-.969-.969-.312-.355-.649-.686-1-1-.331-.377-.687-.731-1.063-1.063-.311-.348-.651-.692-1-1-.363-.407-.742-.805-1.156-1.156-.262-.283-.524-.557-.813-.813-.313-.352-.648-.689-1-1-.295-.331-.608-.642-.938-.938-.331-.377-.687-.731-1.063-1.063-.311-.348-.651-.692-1-1-.311-.348-.651-.692-1-1-.306-.343-.625-.665-.969-.969-.302-.34-.63-.667-.969-.969-.305-.345-.627-.663-.969-.969-.312-.355-.649-.686-1-1-.331-.377-.687-.731-1.063-1.063-.311-.348-.651-.692-1-1-.326-.365-.664-.711-1.031-1.031-.288-.32-.586-.62-.906-.906-.305-.345-.627-.663-.969-.969-.312-.355-.649-.686-1-1-.331-.377-.687-.731-1.063-1.063-.311-.348-.651-.692-1-1-.363-.407-.742-.805-1.156-1.156-.252-.272-.505-.535-.781-.781-.321-.363-.67-.711-1.031-1.031-.295-.331-.608-.642-.938-.938-.331-.377-.687-.731-1.063-1.063-.311-.348-.651-.692-1-1-.363-.407-.742-.805-1.156-1.156-.262-.283-.524-.557-.813-.813-.302-.34-.63-.667-.969-.969-.305-.345-.627-.663-.969-.969-.312-.355-.649-.686-1-1-.331-.377-.687-.731-1.063-1.063-.311-.348-.651-.692-1-1-.326-.365-.664-.711-1.031-1.031-.288-.32-.586-.62-.906-.906-.305-.345-.627-.663-.969-.969-.312-.355-.649-.686-1-1-.331-.377-.687-.731-1.063-1.063-.311-.348-.651-.692-1-1-.363-.406-.742-.805-1.156-1.156-.252-.272-.505-.535-.781-.781-.305-.345-.627-.663-.969-.969-.312-.355-.649-.686-1-1-.331-.377-.687-.731-1.063-1.063-.311-.348-.651-.692-1-1-.363-.406-.742-.805-1.156-1.156-2.17-2.34-5.235-3.78-8.594-3.781h-27.375" fill-opacity=".235"/>
 <path d="m129.08 146.61a11.76 11.76 0 0 0 -11.391 14.699l50.23 195.27a11.76 11.76 0 0 0 11.391 8.8191h34.1a11.76 11.76 0 0 0 11.391-8.8926l31.31-124.13 30.94 124.09a11.76 11.76 0 0 0 11.391 8.9294h34.1a11.76 11.76 0 0 0 11.391-8.8191l50.38-195.27a11.76 11.76 0 0 0 -11.391-14.699h-27.523a11.76 11.76 0 0 0 -11.391 8.8559l-30.69 120.41-30.75-120.42a11.76 11.76 0 0 0 -11.391-8.8559h-30.499a11.76 11.76 0 0 0 -11.39 8.86l-30.69 120.42-30.75-120.42a11.76 11.76 0 0 0 -11.391-8.8559h-27.376" fill="#ffffff"/>
 <g fill-rule="evenodd">
  <path d="m256 1c-140.83 0-255 114.17-255 255s114.17 255 255 255 255-114.17 255-255-114.17-255-255-255m8.827 44.931c120.9 0 218.9 98 218.9 218.9s-98 218.9-218.9 218.9-218.93-98-218.93-218.9 98.03-218.9 218.93-218.9" fill-opacity=".067"/>
  <g fill-opacity=".129">
   <path d="m256 4.433c-138.94 0-251.57 112.63-251.57 251.57s112.63 251.57 251.57 251.57 251.57-112.63 251.57-251.57-112.63-251.57-251.57-251.57m5.885 38.556c120.9 0 218.9 98 218.9 218.9s-98 218.9-218.9 218.9-218.93-98-218.93-218.9 98.03-218.9 218.93-218.9"/>
   <path d="m256 8.356c-136.77 0-247.64 110.87-247.64 247.64s110.87 247.64 247.64 247.64 247.64-110.87 247.64-247.64-110.87-247.64-247.64-247.64m2.942 31.691c120.9 0 218.9 98 218.9 218.9s-98 218.9-218.9 218.9-218.93-98-218.93-218.9 98.03-218.9 218.93-218.9"/>
  </g>
  <path d="m253.04 7.859c-135.42 0-245.19 109.78-245.19 245.19 0 135.42 109.78 245.19 245.19 245.19 135.42 0 245.19-109.78 245.19-245.19 0-135.42-109.78-245.19-245.19-245.19zm0 26.297c120.9 0 218.9 98 218.9 218.9s-98 218.9-218.9 218.9-218.93-98-218.93-218.9 98.03-218.9 218.93-218.9z" fill="#ffffff" stroke="#000000" stroke-opacity=".31" stroke-width="4.904"/>
 </g>
</svg>
