<svg viewBox="0 0 512 512" xmlns="http://www.w3.org/2000/svg">
 <g fill-rule="evenodd">
  <path d="m471.95 253.05c0 120.9-98.01 218.91-218.91 218.91s-218.91-98.01-218.91-218.91 98.01-218.91 218.91-218.91 218.91 98.01 218.91 218.91" fill="#7c7c7c"/>
  <path d="m256 1c-140.83 0-255 114.17-255 255s114.17 255 255 255 255-114.17 255-255-114.17-255-255-255m8.827 44.931c120.9 0 218.9 98 218.9 218.9s-98 218.9-218.9 218.9-218.93-98-218.93-218.9 98.03-218.9 218.93-218.9" fill-opacity=".067"/>
  <g fill-opacity=".129">
   <path d="m256 4.43c-138.94 0-251.57 112.63-251.57 251.57s112.63 251.57 251.57 251.57 251.57-112.63 251.57-251.57-112.63-251.57-251.57-251.57m5.885 38.556c120.9 0 218.9 98 218.9 218.9s-98 218.9-218.9 218.9-218.93-98-218.93-218.9 98.03-218.9 218.93-218.9"/>
   <path d="m256 8.36c-136.77 0-247.64 110.87-247.64 247.64s110.87 247.64 247.64 247.64 247.64-110.87 247.64-247.64-110.87-247.64-247.64-247.64m2.942 31.691c120.9 0 218.9 98 218.9 218.9s-98 218.9-218.9 218.9-218.93-98-218.93-218.9 98.03-218.9 218.93-218.9"/>
  </g>
  <path d="m253.04 7.86c-135.42 0-245.19 109.78-245.19 245.19 0 135.42 109.78 245.19 245.19 245.19 135.42 0 245.19-109.78 245.19-245.19 0-135.42-109.78-245.19-245.19-245.19zm0 26.297c120.9 0 218.9 98 218.9 218.9s-98 218.9-218.9 218.9-218.93-98-218.93-218.9 98.03-218.9 218.93-218.9z" fill="#ffffff" stroke="#000000" stroke-opacity=".31" stroke-width="4.904"/>
 </g>
 <path d="m128.52 154.59v9.232l26.652 26.65v.002c.093 2.17.154 4.454.154 7v117.05c0 24.13-4.169 31.27-19.359 32.764l-9.234.893v9.232l114.21 114.21c4 .218 8.04.338 12.1.338 120.9 0 218.91-98.01 218.91-218.91 0-4.069-.121-8.111-.34-12.12l-86.34-86.34h-67.908l-34.477 84.957-84.957-84.957h-69.4" opacity=".25"/>
 <path d="m385.26 357.41v-9.233l-7.446-.894c-15.488-2.085-19.36-8.34-19.36-32.763v-117.05c0-24.423 3.872-30.678 19.36-32.763l7.446-.894v-9.233h-67.908l-62.25 153.39-57.19-153.39h-69.4v9.233l7.446.894c15.488 2.085 19.36 8.34 19.36 32.763v117.05c0 24.13-4.17 31.27-19.36 32.763l-9.233.894v9.233h75.35v-9.233l-10.424-.894c-15.19-1.489-19.36-8.637-19.36-32.763v-142.37l68.21 185.26h13.403l74.76-181.68v138.79c0 24.423-3.872 30.678-19.36 32.763l-7.446.894v9.233h83.4" fill="#ffffff"/>
</svg>
