<svg viewBox="0 0 512 512" xmlns="http://www.w3.org/2000/svg">
 <path d="m471.95 253.05c0 120.9-98.01 218.91-218.91 218.91s-218.91-98.01-218.91-218.91 98.01-218.91 218.91-218.91 218.91 98.01 218.91 218.91" fill="#8f8f8f"/>
 <path d="m256 1c-140.83 0-255 114.17-255 255s114.17 255 255 255 255-114.17 255-255-114.17-255-255-255m8.827 44.931c120.9 0 218.9 98 218.9 218.9s-98 218.9-218.9 218.9-218.93-98-218.93-218.9 98.03-218.9 218.93-218.9" fill-opacity=".067"/>
 <g fill-opacity=".129">
  <path d="m256 4.43c-138.94 0-251.57 112.63-251.57 251.57s112.63 251.57 251.57 251.57 251.57-112.63 251.57-251.57-112.63-251.57-251.57-251.57m5.885 38.556c120.9 0 218.9 98 218.9 218.9s-98 218.9-218.9 218.9-218.93-98-218.93-218.9 98.03-218.9 218.93-218.9"/>
  <path d="m256 8.36c-136.77 0-247.64 110.87-247.64 247.64s110.87 247.64 247.64 247.64 247.64-110.87 247.64-247.64-110.87-247.64-247.64-247.64m2.942 31.691c120.9 0 218.9 98 218.9 218.9s-98 218.9-218.9 218.9-218.93-98-218.93-218.9 98.03-218.9 218.93-218.9"/>
 </g>
 <path d="m253.04 7.86c-135.42 0-245.19 109.78-245.19 245.19 0 135.42 109.78 245.19 245.19 245.19 135.42 0 245.19-109.78 245.19-245.19 0-135.42-109.78-245.19-245.19-245.19m0 26.297c120.9 0 218.9 98 218.9 218.9s-98 218.9-218.9 218.9-218.93-98-218.93-218.9 98.03-218.9 218.93-218.9z" fill="#ffffff" stroke="#000000" stroke-opacity=".31" stroke-width="4.904"/>
 <path d="m129.94 154.09l-.471 1.1c-.441.124-.721.208-.785.393-.717 1.87-.425 11.953.471 15.316 1.424 5.348 4.266 10.145 8.148 14.03l87.46 87.46v.002c-2.214 4.864-4.988 9.543-8.266 13.895-.023.029-.056.051-.078.08-.309.393-.624.788-.941 1.178-.659.839-1.35 1.619-2.043 2.434-.062.07-.094.166-.156.236-.326.38-.689.725-1.021 1.1-.437.479-.888.943-1.336 1.414-3.969 4.174-8.351 8.01-12.959 11.311-.752.528-1.509 1.069-2.277 1.57-1.093.728-2.19 1.46-3.299 2.121-.231.135-.475.26-.707.393-1.361.777-2.765 1.511-4.164 2.199-1.399.689-2.809 1.29-4.24 1.885-.233.096-.473.221-.707.314-1.196.482-2.399.92-3.613 1.334-.135.044-.256.115-.393.158-.49.164-1 .241-1.492.393-3.711 1.06-7.683 1.799-12.41 2.277-.439.044-.962.038-1.414.078-3.233.182-7.266.385-13.822.551-1.793.047-2.795.111-4.32.156-.305.01-.57-.01-.865 0-7.79.018-11.374.253-14.451.865-.05.01-.106-.01-.156 0-3.892.551-6.263 1.46-9.896 3.063-.978.433-1.985.944-2.984 1.492-.131.072-.263.163-.395.236-.032.018-.047.061-.078.078-.838.473-1.674.949-2.514 1.492-.269.174-.518.367-.785.549-.096.065-.218.093-.314.158-.686.458-1.327.915-1.885 1.256v.078c-4.942 3.665-9.611 8.306-12.881 12.961-3.359 4.78-6.962 12.348-7.225 15.629l-.158 2.121 107.56 107.56c17.565 4.542 35.985 6.961 54.969 6.961 120.9 0 218.91-98.01 218.91-218.91 0-18.998-2.424-37.432-6.973-55.01l-43.482-43.482-15.469-.154-.318-.318c-1.274.072-4.267.155-6.756.236l-8.639-.078c-25.937-.22-36.426.088-45.24 1.336-.844.09-1.67.268-2.436.393-.918.15-1.895.336-2.906.549-.37.07-.724.084-1.1.158-8.655 1.759-17.227 4.617-25.605 8.561-.085.04-.15.117-.234.156-1.312.621-2.626 1.292-3.928 1.965-.207.107-.422.205-.629.313-1.177.616-2.365 1.228-3.533 1.887-1.375.775-2.724 1.599-4.084 2.434-1.359.831-2.741 1.626-4.086 2.514-8.07 5.328-15.837 11.711-23.25 19.01-1.966 1.936-2.742 2.668-3.627 3.512l-18.75-18.75c-8.764-8.764-19.399-15.369-31.346-19.32-12.585-4.162-14.642-4.279-54.12-4.557l-35.502-.314" opacity=".25"/>
 <path d="m129.94 154.09l-.471 1.1c-.441.124-.721.208-.785.393-.717 1.87-.424 11.952.471 15.316 2.623 9.855 10.06 17.835 19.95 21.678 1.931.751 3.642 1.128 7.697 1.414.186.015.273.064.471.078 1.086.071 1.951.096 3.456.157 2.444.108 5.688.206 9.896.314 1.083.028 1.755.048 2.985.078 16.807.492 21.529 1.271 28.825 4.32 12.752 5.344 23.508 18.221 27.18 32.595 2.427 9.511 1.482 23.348-2.278 34.402-2.443 7.183-6.134 14.1-10.839 20.343-.023.029-.057.049-.078.078-.309.393-.625.789-.943 1.178-.659.839-1.349 1.62-2.042 2.435-.062.07-.095.166-.157.236-.326.38-.688.725-1.021 1.1-.437.479-.887.943-1.335 1.414-3.969 4.174-8.352 8.01-12.96 11.31-.752.528-1.51 1.07-2.278 1.571-1.093.728-2.19 1.46-3.299 2.121-.231.135-.474.26-.707.393-1.361.777-2.764 1.511-4.163 2.199-1.399.689-2.81 1.29-4.241 1.885-.233.096-.473.221-.707.314-1.196.482-2.398.921-3.613 1.335-.135.044-.257.114-.393.157-.49.164-1 .241-1.492.393-3.711 1.06-7.683 1.8-12.41 2.278-.439.045-.962.038-1.414.078-3.233.182-7.267.384-13.824.55-1.793.047-2.795.112-4.32.157-.305.01-.569-.01-.864 0-7.79.018-11.375.252-14.452.864-.05.01-.107-.01-.157 0-3.892.551-6.263 1.46-9.896 3.063-.978.433-1.986.945-2.985 1.492-.131.072-.261.162-.393.236-.032.018-.047.061-.078.078-.838.473-1.673.949-2.513 1.492-.269.174-.519.368-.785.55-.096.065-.218.092-.314.157-.686.458-1.327.916-1.885 1.257v.078c-4.942 3.665-9.611 8.304-12.881 12.96-3.359 4.78-6.963 12.349-7.226 15.63l-.157 2.121 15.866.157-.078.314c1.283-.073 4.24-.154 6.755-.236l8.64.078c25.969.221 36.419-.083 45.24-1.335 1.914-.206 3.625-.528 5.577-.943.278-.059.488-.092.785-.157.025-.005.054.005.078 0 8.655-1.759 17.226-4.618 25.605-8.561.084-.039.152-.117.236-.157 1.325-.623 2.618-1.29 3.927-1.964.052-.027.106-.052.157-.078 1.329-.687 2.692-1.38 4.01-2.121.031-.018.048-.061.078-.078 1.344-.759 2.676-1.54 4.01-2.356 9.514-5.819 18.687-13.01 27.333-21.521 2.639-2.599 3.906-3.794 4.87-4.713.3-.286 1.472-1.492 1.492-1.492.082 0 1.621 2.199 3.299 5.03 10.131 17.07 25.516 29.603 44.06 35.737 12.585 4.162 14.641 4.278 54.12 4.555l35.501.314.471-1.1c.441-.124.721-.208.785-.393.717-1.87.424-11.952-.471-15.316-2.623-9.855-10.06-17.835-19.95-21.678-1.927-.75-3.66-1.128-7.697-1.414-.14-.01-.325-.069-.471-.078-.904-.064-2.335-.105-3.534-.157-2.432-.107-5.655-.207-9.818-.314-1.083-.028-1.755-.048-2.985-.078-16.825-.492-21.526-1.269-28.825-4.32-12.752-5.344-23.508-18.221-27.18-32.595-2.427-9.511-1.482-23.348 2.278-34.402 2.455-7.217 6.181-14.15 10.917-20.421.947-1.254 1.962-2.412 2.985-3.613.061-.071.096-.165.157-.236.782-.887 1.536-1.731 2.356-2.592.755-.808 1.569-1.578 2.356-2.356.826-.807 1.658-1.66 2.513-2.435 2.566-2.326 5.325-4.462 8.09-6.441.747-.535 1.442-1.066 2.199-1.571.174-.114.375-.202.55-.314 1.168-.766 2.349-1.511 3.534-2.199 1.361-.777 2.685-1.511 4.084-2.199.317-.156.623-.32.943-.471 1.114-.528 2.197-.959 3.299-1.414.235-.098.471-.219.707-.314 1.21-.482 2.454-.935 3.692-1.335.134-.046.259-.112.393-.157.482-.152 1-.252 1.492-.393 3.711-1.06 7.683-1.8 12.41-2.278.42-.042.903-.04 1.335-.078 3.24-.184 7.293-.383 13.902-.55 1.805-.047 2.786-.111 4.32-.157.278-.008.515.008.785 0 7.83-.015 11.37-.253 14.452-.864.116-.015.201-.062.314-.078 3.788-.553 6.24-1.406 9.818-2.985.978-.433 1.986-.944 2.985-1.492.131-.072.261-.162.393-.236.885-.484 1.739-1.019 2.592-1.571.266-.172.52-.372.785-.55.108-.073.208-.087.314-.157.686-.458 1.327-.916 1.885-1.257v-.078c4.942-3.665 9.611-8.304 12.881-12.96 3.358-4.78 6.963-12.349 7.226-15.63l.157-2.121-15.866-.157.078-.314c-1.274.072-4.266.155-6.755.236l-8.64-.078c-25.937-.22-36.426.087-45.24 1.335-.844.09-1.67.268-2.435.393-.918.15-1.895.337-2.906.55-.37.07-.724.083-1.1.157-8.655 1.759-17.226 4.618-25.605 8.561-.085.04-.151.117-.236.157-1.312.621-2.625 1.291-3.927 1.964-.207.107-.422.206-.628.314-1.177.616-2.367 1.227-3.534 1.885-1.375.775-2.724 1.6-4.084 2.435-1.359.831-2.74 1.625-4.084 2.513-8.07 5.328-15.838 11.711-23.25 19.01-2.639 2.599-3.906 3.794-4.87 4.713l-1.492 1.492c-.082 0-1.621-2.199-3.299-5.03-10.131-17.07-25.516-29.603-44.06-35.737-12.585-4.162-14.641-4.278-54.12-4.555l-35.501-.314" fill="#ffffff"/>
</svg>
