<svg height="512" viewBox="0 0 512 512" width="512" xmlns="http://www.w3.org/2000/svg">
 <path d="m471.95 253.05c0 120.9-98.01 218.9-218.9 218.9-120.9 0-218.9-98.01-218.9-218.9 0-120.9 98.01-218.9 218.9-218.9 120.9 0 218.9 98.01 218.9 218.9" fill="#b0b0b0" fill-rule="evenodd"/>
 <path d="m368.71537 143.4053c-159.72439-38.52133-201.36242 1.99901-228.34187 33.55239-27.20923 31.82212 4.33354 162.58094 32.49445 215.09508l119.9881 78.3819c79.69306-6.58897 207.54652-123.61147 178.59933-244.32702" opacity=".25"/>
 <path d="m256 1c-140.83 0-255 114.17-255 255 0 140.83 114.17 255 255 255 140.83 0 255-114.17 255-255 0-140.83-114.17-255-255-255m8.827 44.931c120.9 0 218.9 98 218.9 218.9 0 120.9-98 218.9-218.9 218.9-120.9 0-218.93-98-218.93-218.9 0-120.9 98.03-218.9 218.93-218.9" fill-opacity=".067" fill-rule="evenodd"/>
 <g fill-opacity=".129" fill-rule="evenodd">
  <path d="m256 4.433c-138.94 0-251.57 112.63-251.57 251.57 0 138.94 112.63 251.57 251.57 251.57 138.94 0 251.57-112.63 251.57-251.57 0-138.94-112.63-251.57-251.57-251.57m5.885 38.556c120.9 0 218.9 98 218.9 218.9 0 120.9-98 218.9-218.9 218.9-120.9 0-218.93-98-218.93-218.9 0-120.9 98.03-218.9 218.93-218.9"/>
  <path d="m256 8.356c-136.77 0-247.64 110.87-247.64 247.64 0 136.77 110.87 247.64 247.64 247.64 136.77 0 247.64-110.87 247.64-247.64 0-136.77-110.87-247.64-247.64-247.64m2.942 31.691c120.9 0 218.9 98 218.9 218.9 0 120.9-98 218.9-218.9 218.9-120.9 0-218.93-98-218.93-218.9 0-120.9 98.03-218.9 218.93-218.9"/>
 </g>
 <path d="m253.04 7.859c-135.42 0-245.19 109.78-245.19 245.19 0 135.42 109.78 245.19 245.19 245.19 135.42 0 245.19-109.78 245.19-245.19 0-135.42-109.78-245.19-245.19-245.19zm0 26.297c120.9 0 218.9 98 218.9 218.9 0 120.9-98 218.9-218.9 218.9-120.9 0-218.93-98-218.93-218.9 0-120.9 98.03-218.9 218.93-218.9z" fill="#ffffff" fill-rule="evenodd" stroke="#000000" stroke-opacity=".31" stroke-width="4.904"/>
 <path d="m256 96.810545a159.18964 159.18964 0 0 0 -159.189451 159.189455 159.18964 159.18964 0 0 0 159.189451 159.18946 159.18964 159.18964 0 0 0 159.18945-159.18946 159.18964 159.18964 0 0 0 -159.18945-159.189455zm-51.06055 35.029305h24.04688l19.56055 28.77148 19.50586-28.77148h24.16601l-29.79297 43.72656h.0117l30.98633 45.58594h-23.99414l-20.87305-30.51172-20.69922 30.51172h-24.11328l30.98828-45.58594-29.79297-43.72656zm-18.45312 131.78125h17.64648v15.12695h-12.75c-3.26006 0-5.5419.6016-6.82226 1.80664-1.29111 1.16201-1.93555 3.19652-1.93555 6.12305v5.02343h19.69922v16.48438h-19.69922v55.625h-23.04687v-55.625h-11.45899v-16.48438h11.45899v-5.02343c0-7.85428 2.18347-13.65325 6.5625-17.38672 4.37903-3.77651 11.15726-5.66992 20.3457-5.66992zm90.55078 8.65039h27.0918c15.12756 0 26.37204 1.08539 33.76367 3.26953 7.42391 2.13034 13.79336 5.7789 19.07617 10.94336 4.66953 4.49738 8.14485 9.6723 10.4043 15.54687 2.27021 5.87457 3.39844 12.52336 3.39844 19.94727 0 7.52074-1.12823 14.23474-3.39844 20.15234-2.27021 5.87457-5.73477 11.0495-10.4043 15.54688-5.33661 5.16446-11.73909 8.83444-19.2168 11.00781-7.4777 2.13034-18.67839 3.20508-33.62304 3.20508h-27.0918v-99.60938-.01zm25.69336 19.4082v60.7793h9.20898c10.50107 0 18.50688-2.60306 24.01563-7.81055 5.56255-5.2075 8.33789-12.75963 8.33789-22.67969 0-9.87703-2.75393-17.38827-8.27344-22.55273-5.51952-5.16445-13.54574-7.73633-24.08984-7.73633z" fill="#ffffff" fill-opacity=".987" fill-rule="evenodd"/>
</svg>
