<svg viewBox="0 0 512 512" xmlns="http://www.w3.org/2000/svg">
 <g fill-rule="evenodd">
  <path d="m471.95 253.05c0 120.9-98.01 218.91-218.91 218.91s-218.91-98.01-218.91-218.91 98.01-218.91 218.91-218.91 218.91 98.01 218.91 218.91" fill="#8f8f8f"/>
  <path d="m256 1c-140.83 0-255 114.17-255 255s114.17 255 255 255 255-114.17 255-255-114.17-255-255-255m8.827 44.931c120.9 0 218.9 98 218.9 218.9s-98 218.9-218.9 218.9-218.93-98-218.93-218.9 98.03-218.9 218.93-218.9" fill-opacity=".067"/>
  <g fill-opacity=".129">
   <path d="m256 4.43c-138.94 0-251.57 112.63-251.57 251.57s112.63 251.57 251.57 251.57 251.57-112.63 251.57-251.57-112.63-251.57-251.57-251.57m5.885 38.556c120.9 0 218.9 98 218.9 218.9s-98 218.9-218.9 218.9-218.93-98-218.93-218.9 98.03-218.9 218.93-218.9"/>
   <path d="m256 8.36c-136.77 0-247.64 110.87-247.64 247.64s110.87 247.64 247.64 247.64 247.64-110.87 247.64-247.64-110.87-247.64-247.64-247.64m2.942 31.691c120.9 0 218.9 98 218.9 218.9s-98 218.9-218.9 218.9-218.93-98-218.93-218.9 98.03-218.9 218.93-218.9"/>
  </g>
  <path d="m253.04 7.86c-135.42 0-245.19 109.78-245.19 245.19 0 135.42 109.78 245.19 245.19 245.19 135.42 0 245.19-109.78 245.19-245.19 0-135.42-109.78-245.19-245.19-245.19m0 26.297c120.9 0 218.9 98 218.9 218.9s-98 218.9-218.9 218.9-218.93-98-218.93-218.9 98.03-218.9 218.93-218.9z" fill="#ffffff" stroke="#000000" stroke-opacity=".31" stroke-width="4.904"/>
 </g>
 <path d="m302.75 121.7l-28.28 45.734-44.531-44.531h-83.73l46.902 76.3 8.07 8.07c-.419.072-.835.153-1.252.23l-3.49-3.49-10.217 2.736.066 4.416c-3.329 1.185-6.572 2.568-9.707 4.121l-3.361-3.148-9.164 5.291 1.285 4.482c-2.85 1.973-5.576 4.096-8.174 6.377l-4.283-2.291-7.482 7.482 2.521 4.203c-2.194 2.582-4.251 5.287-6.146 8.107l-4.928-1.154-5.291 9.164 3.617 3.617c-1.415 2.985-2.681 6.066-3.766 9.221l-5.223.164-2.736 10.234 4.283 4.283c-.435 2.672-.761 5.38-.955 8.125l-5.125 1.549v10.58l5.604 5.604c.233 1.846.515 3.677.857 5.488l-4.598 2.852 2.752 10.232 9.07 9.07-3.695 3.92 5.291 9.164 9.479 9.479-.908 1.693 7.482 7.482 105.34 105.34c118.46-2.806 213.62-99.71 213.62-218.84 0-17.98-2.183-35.448-6.271-52.17l-79.19-79.19h-83.73" opacity=".25"/>
 <path d="m302.75 121.7l-36.01 58.24-36.799-57.04h-83.73l46.901 76.3c2.742-.723 5.804-.53 7.729 1.78.339 1.804 2.111.64 3.214.412 1.443.225 1.381-.658 1.73-1.763 2.767-4.558 8.667-2.01 12.904-2.95 2.585-.097 5.819.717 7.07 3.23.018 2.488 2.793 1.01 4.384 1.714 1.926-3.03 6.415-3.392 9.542-2.01 3.925 1.13 9.42 1.722 10.761 6.394-.229 2.304 2.844 1.129 3.889 2.587 1.697-2.389 5.431-2.061 7.68-.428 3.554 2.756 9.784 3.781 10.481 9.113-.688 2.154 1.769 2.531 2.933 3.873 1.947-.337 4.687-.536 6.575.923 2.954 2.317 5.575 5.119 7.91 8.06 1.408 1.815 1.331 4.326.808 6.246 1.02 1.081 1.459 3.041 3.115 3.28 3.262-.469 6.03 1.828 6.856 4.878 1.796 3.641 5.787 7.414 3.626 11.832-1.815 1.523.546 3.256.923 4.927 2.332.379 4.297 2.12 5.274 4.301.822 4.403 3.578 8.922 2.06 13.513-.154 1.435-1.777 1.844-2.076 2.95.649 1.391-.274 3.398 1.269 4.219 3.478 1.727 4.133 5.84 3.411 9.328.18 3.62.616 8.226-2.9 10.498-2.357.294-.837 2.961-1.78 4.532 3.491 2.446 2.899 7.282 1.467 10.712-.768 3.866-2.254 9.431-6.971 9.756-.864.609-.453 2.88-1.846 3.444.155 1.59 2.912 1.852 4.153 1.368-1.708 3.988-4.41 7.434-6.279 11.305-.826 3.51-4.123 6.826-7.943 5.686-.744.345-1.37 1.259-2.043 2.027l14.634 22.445h84.67l-78.69-129.48 74.835-126.2h-83.73m-92.25 80.42l-1.252 4.136c-3.565.282-7.06.781-10.498 1.467l-2.307-3.708-10.217 2.736.066 4.417c-3.329 1.185-6.572 2.567-9.707 4.12l-3.362-3.148-9.163 5.29 1.285 4.482c-2.85 1.973-5.576 4.097-8.174 6.378l-4.285-2.291-7.482 7.482 2.521 4.202c-2.194 2.582-4.252 5.287-6.147 8.108l-4.927-1.154-5.29 9.163 3.659 3.527c-1.432 3.01-2.712 6.125-3.807 9.311l-5.224.165-2.736 10.234 4.581 2.521c-.594 3.239-1.016 6.537-1.252 9.888l-5.125 1.549v10.58l5.158 1.285c.255 3.324.695 6.593 1.302 9.805l-4.598 2.851 2.752 10.234 5.339-.099c1.094 3.115 2.357 6.166 3.774 9.113l-3.741 3.972 5.29 9.163 5.175-1.467c1.852 2.718 3.851 5.319 5.982 7.811l-2.587 4.829 7.482 7.482 4.581-2.752c2.487 2.157 5.097 4.171 7.811 6.05l-1.22 5.274 9.163 5.29 3.642-3.774c2.968 1.453 6.04 2.749 9.179 3.873l.181 5.257 10.217 2.736 2.472-4.45c3.282.644 6.621 1.108 10.02 1.384l1.467 4.862h10.58l1.187-4.746c3.502-.224 6.951-.639 10.333-1.252l2.324 4.219 10.217-2.736.165-4.763c3.306-1.121 6.536-2.44 9.657-3.922l3.181 3.296 9.163-5.29-1.022-4.433c2.945-1.966 5.768-4.104 8.454-6.394l3.741 2.258 7.482-7.482-2.043-3.807c2.373-2.694 4.584-5.521 6.625-8.487l3.988 1.137 5.29-9.163-2.802-2.999c1.61-3.248 3.037-6.613 4.252-10.07l3.955.066 2.736-10.217-3.345-2.093c.706-3.567 1.196-7.204 1.467-10.91l3.757-.939v-10.58l-3.708-1.121c-.246-3.738-.728-7.409-1.417-11.01l3.312-1.829-2.736-10.217-3.823-.132c-1.21-3.525-2.631-6.955-4.252-10.267l2.703-2.604-5.29-9.163-3.724.857c-2.084-3.076-4.35-6.01-6.79-8.8l1.945-3.23-7.482-7.465-3.395 1.813c-2.799-2.419-5.749-4.661-8.833-6.724l1.055-3.658-9.163-5.29-2.851 2.67c-3.295-1.587-6.714-2.971-10.217-4.153l.066-3.939-10.217-2.736-2.159 3.477c-3.525-.651-7.122-1.092-10.778-1.318l-1.01-4.04h-10.58m-4.04 33.27l.808 1.549c2.377 13.471.856 25.756-1.154 36.14-.271.123-.542.247-.808.379-.059.029-.106.069-.165.099-.216.11-.447.214-.659.33-.508.274-.997.581-1.483.89-.217.138-.431.267-.643.412-10.05-3.456-21.55-8.316-32.1-17.17l-.89-1.417c9.223-11.05 22.265-18.781 37.1-21.21m20.913.148c14.614 2.634 27.423 10.45 36.47 21.473l-.626 1.01c-10.705 8.984-22.365 13.838-32.515 17.304-.053-.036-.112-.063-.165-.099-.198-.135-.391-.266-.593-.396-.038-.025-.077-.058-.115-.082-.212-.134-.427-.267-.643-.396-.03-.018-.068-.032-.099-.05-.13-.077-.264-.14-.396-.214-.365-.206-.727-.422-1.104-.61-.157-.781-.315-1.58-.461-2.39-.134-.741-.257-1.513-.379-2.274-.012-.073-.021-.141-.033-.214-.116-.728-.225-1.466-.33-2.208-.007-.047-.01-.085-.016-.132-.033-.236-.067-.471-.099-.709-.092-.687-.183-1.381-.264-2.076-.101-.87-.198-1.758-.28-2.637-.075-.805-.14-1.598-.198-2.406-.019-.264-.032-.527-.049-.791-.042-.65-.086-1.296-.115-1.945-.006-.132-.011-.263-.016-.396-.029-.699-.036-1.398-.049-2.093-.006-.323-.014-.651-.016-.972-.003-.386-.018-.77-.017-1.154.004-.749.025-1.488.049-2.225.021-.622.046-1.234.082-1.846.026-.445.064-.896.099-1.335.043-.538.076-1.072.132-1.599.001-.011-.001-.023 0-.033.081-.763.202-1.505.313-2.241.007-.048.009-.101.016-.148.036-.237.059-.458.099-.692.022-.132.043-.265.066-.396.058-.323.134-.655.198-.972.069-.341.122-.656.198-.989.024-.106.057-.208.082-.313.014-.06.035-.122.049-.181.067-.274.126-.556.198-.824.07-.261.155-.52.231-.775.033-.112.065-.218.099-.33.066-.216.127-.431.198-.643m-68.49 39.17c10.445 2.095 23.421 10.892 32.63 18.968-.062.72-.099 1.456-.099 2.192 0 .475.023.949.049 1.417.026.463.065.912.115 1.368-7.784 6.64-17.359 13.625-29.598 18.08l-3.148.132c-2.388-6.55-3.691-13.619-3.691-20.995 0-7.436 1.316-14.566 3.741-21.16m115.14.148c2.393 6.555 3.708 13.629 3.708 21.01 0 7.366-1.309 14.421-3.691 20.962l-2.521-.099c-12.538-4.562-22.29-11.772-30.17-18.556.035-.384.065-.765.082-1.154.023-.382.033-.765.033-1.154 0-.57-.028-1.137-.066-1.697 9.07-8.06 22.07-16.974 32.63-19.314m-57.6 10.794c5.632 0 10.217 4.586 10.217 10.217 0 5.632-4.586 10.201-10.217 10.201-5.632 0-10.201-4.569-10.201-10.201s4.569-10.217 10.201-10.217m14.288 30.751c11.726 4.068 25.763 11.03 32.482 19.1-9.27 10.925-22.305 18.55-37.1 20.896l-.313-.61c-2.467-13.98-.736-26.703 1.384-37.33.039-.019.06-.031.099-.05.365-.176.733-.368 1.088-.56.354-.192.695-.402 1.038-.61.344-.209.689-.418 1.022-.643.098-.066.2-.13.297-.198m-28.362.148c.362.247.729.466 1.104.692.345.208.683.418 1.038.61.006.005.01.013.016.016.25.134.504.269.758.396 2.482 11.777 3.817 27.545.692 38.02-14.301-2.461-26.912-9.879-35.992-20.418 6.511-8.127 20.563-15.16 32.383-19.314" fill="#ffffff"/>
</svg>
