<svg viewBox="0 0 512 512" xmlns="http://www.w3.org/2000/svg">
 <g fill-rule="evenodd">
  <path d="m471.95 253.05c0 120.9-98.01 218.91-218.91 218.91s-218.91-98.01-218.91-218.91 98.01-218.91 218.91-218.91 218.91 98.01 218.91 218.91" fill="#8f8f8f"/>
  <path d="m134.53 123.63l-17.06 199.28 12.313 12.313h-12.313v53.16l75.13 75.13c19.2 5.504 39.477 8.459 60.45 8.459 120.9 0 218.91-98.01 218.91-218.91 0-13.873-1.304-27.441-3.771-40.598l-88.83-88.83h-244.81" opacity=".25"/>
  <path d="m134.53 123.62l-17.06 199.28h66.66l12.313 12.313h-78.969v53.16h277.06v-53.16h-89.53l12.313-12.313h77.22l-15.188-199.28h-244.81m43.906 39.06h159.19l13.969 126.53h-189.84l16.688-126.53m26.875 11.687l39.34 52.969-39.34 50.19h9l47.938-60.28-31.5-42.875h-25.438m93.47 0l-47.938 60.63 31.75 42.531h25.406l-39.31-53.41 39.31-49.75h-9.219m-169.91 173.84h254.25v27.16h-254.25z" fill="#ffffff"/>
  <path d="m256 1c-140.83 0-255 114.17-255 255s114.17 255 255 255 255-114.17 255-255-114.17-255-255-255m8.827 44.931c120.9 0 218.9 98 218.9 218.9s-98 218.9-218.9 218.9-218.93-98-218.93-218.9 98.03-218.9 218.93-218.9" fill-opacity=".067"/>
  <g fill-opacity=".129">
   <path d="m256 4.43c-138.94 0-251.57 112.63-251.57 251.57s112.63 251.57 251.57 251.57 251.57-112.63 251.57-251.57-112.63-251.57-251.57-251.57m5.885 38.556c120.9 0 218.9 98 218.9 218.9s-98 218.9-218.9 218.9-218.93-98-218.93-218.9 98.03-218.9 218.93-218.9"/>
   <path d="m256 8.36c-136.77 0-247.64 110.87-247.64 247.64s110.87 247.64 247.64 247.64 247.64-110.87 247.64-247.64-110.87-247.64-247.64-247.64m2.942 31.691c120.9 0 218.9 98 218.9 218.9s-98 218.9-218.9 218.9-218.93-98-218.93-218.9 98.03-218.9 218.93-218.9"/>
  </g>
  <path d="m253.04 7.86c-135.42 0-245.19 109.78-245.19 245.19 0 135.42 109.78 245.19 245.19 245.19 135.42 0 245.19-109.78 245.19-245.19 0-135.42-109.78-245.19-245.19-245.19zm0 26.297c120.9 0 218.9 98 218.9 218.9s-98 218.9-218.9 218.9-218.93-98-218.93-218.9 98.03-218.9 218.93-218.9z" fill="#ffffff" stroke="#000000" stroke-opacity=".31" stroke-width="4.904"/>
 </g>
 <path d="m155.22 143.91l-21.656 164.09h246.22l-18.12-164.09h-206.44m23.22 18.781h159.19l13.969 126.53h-189.84l16.688-126.53" fill="#8f8f8f" fill-rule="evenodd"/>
</svg>
