<svg height="512" viewBox="0 0 512 512" width="512" xmlns="http://www.w3.org/2000/svg">
 <g transform="translate(0 -540.36)">
  <g fill-rule="evenodd">
   <path d="m471.95 793.41c0 120.9-98.01 218.9-218.9 218.9-120.9 0-218.9-98.01-218.9-218.9 0-120.9 98.01-218.9 218.9-218.9 120.9 0 218.9 98.01 218.9 218.9" fill="#8f8f8f"/>
   <path d="m253.03 34.16c-120.9 0-218.91 98.01-218.91 218.91s98.01 218.91 218.91 218.91c.971 0 1.939-.05 2.906-.063v-437.72c-.97-.016-1.94-.034-2.91-.034" fill="#8f8f8f" transform="translate(0 540.36)"/>
   <path d="m256 541.36c-140.83 0-255 114.17-255 255s114.17 255 255 255 255-114.17 255-255-114.17-255-255-255m8.827 44.931c120.9 0 218.9 98 218.9 218.9s-98 218.9-218.9 218.9-218.93-98-218.93-218.9 98.03-218.9 218.93-218.9" fill-opacity=".067"/>
   <g fill-opacity=".129">
    <path d="m256 544.79c-138.94 0-251.57 112.63-251.57 251.57s112.63 251.54 251.57 251.54 251.57-112.6 251.57-251.54-112.63-251.57-251.57-251.57m5.885 38.556c120.9 0 218.9 98 218.9 218.9s-98 218.9-218.9 218.9-218.93-98-218.93-218.9 98.03-218.9 218.93-218.9"/>
    <path d="m256 548.72c-136.77 0-247.64 110.87-247.64 247.64s110.87 247.64 247.64 247.64 247.64-110.87 247.64-247.64-110.87-247.64-247.64-247.64m2.942 31.691c120.9 0 218.9 98 218.9 218.9s-98 218.9-218.9 218.9-218.93-98-218.93-218.9 98.03-218.9 218.93-218.9"/>
   </g>
   <path d="m253.04 548.22c-135.42 0-245.19 109.78-245.19 245.19 0 135.42 109.78 245.19 245.19 245.19 135.42 0 245.19-109.78 245.19-245.19 0-135.42-109.78-245.19-245.19-245.19zm0 26.297c120.9 0 218.9 98 218.9 218.9s-98 218.9-218.9 218.9-218.93-98-218.93-218.9 98.03-218.9 218.93-218.9z" fill="#ffffff" stroke="#000000" stroke-opacity=".31" stroke-width="4.904"/>
  </g>
  <path d="m256 471.8v649.12" fill="none" stroke="#ffffff" stroke-width=".1"/>
  <g fill-rule="evenodd" transform="translate(0 540.36)">
   <path d="m203.22 166.97c-29.23 0-53.03 23.838-53.03 53.06v18.906h-19.657c-29.22 0-53.06 23.803-53.06 53.03 0 14.868 6.155 28.351 16.06 38 .428.439.87.857 1.313 1.281.227.229.456.462.688.688.327.336.664.673 1 1 .215.221.437.439.656.656.434.454.863.906 1.313 1.344.33.338.662.67 1 1 .428.439.87.857 1.313 1.281.263.266.544.521.813.781.293.299.575.614.875.906.266.274.54.545.813.813.285.296.583.586.875.875.424.442.842.885 1.281 1.313.356.365.728.708 1.094 1.063.402.411.804.821 1.219 1.219.227.229.456.462.688.688.266.274.54.545.813.813.285.296.583.586.875.875.424.442.842.885 1.281 1.313.33.338.662.67 1 1 .428.439.87.857 1.313 1.281.227.229.456.462.688.688.327.336.664.673 1 1 .215.221.438.439.656.656.434.454.863.906 1.313 1.344.33.338.662.67 1 1 .428.439.87.857 1.313 1.281.263.266.544.521.813.781.293.299.575.614.875.906.215.221.438.439.656.656.407.426.829.838 1.25 1.25.355.366.697.738 1.063 1.094.428.439.87.857 1.313 1.281.263.266.544.521.813.781.293.299.575.614.875.906.266.274.54.545.813.813.285.296.583.586.875.875.424.442.842.885 1.281 1.313.33.338.662.67 1 1 .428.439.87.857 1.313 1.281.227.229.456.462.688.688.327.336.664.673 1 1 .215.221.438.439.656.656.434.454.863.906 1.313 1.344.33.338.662.67 1 1 .428.439.87.857 1.313 1.281.227.229.456.462.688.688.327.336.664.673 1 1 .215.221.438.439.656.656.434.454.863.906 1.313 1.344.33.338.662.67 1 1 .428.439.87.857 1.313 1.281.263.266.544.521.813.781.293.299.575.614.875.906.266.274.54.545.813.813.285.296.583.586.875.875.424.442.842.885 1.281 1.313.356.365.728.708 1.094 1.063.402.411.804.821 1.219 1.219.227.229.456.462.688.688.266.274.54.545.813.813.285.296.583.586.875.875.424.442.842.885 1.281 1.313.33.338.662.67 1 1 .428.439.87.857 1.313 1.281.227.229.456.462.688.688.327.336.664.673 1 1 .215.221.438.439.656.656.434.454.863.906 1.313 1.344.33.338.662.67 1 1 .428.439.87.857 1.313 1.281.263.266.544.521.813.781.293.299.575.614.875.906.215.221.438.439.656.656.407.426.829.838 1.25 1.25.355.366.697.738 1.063 1.094.428.439.87.857 1.313 1.281.263.266.544.521.813.781.293.299.575.614.875.906.266.274.54.545.813.813.285.296.583.586.875.875.424.442.842.885 1.281 1.313.33.338.662.67 1 1 .428.439.87.857 1.313 1.281.227.229.456.462.688.688.266.274.54.545.813.813.285.296.583.586.875.875.424.442.842.885 1.281 1.313.33.338.662.67 1 1 .428.439.87.857 1.313 1.281.227.229.456.462.688.688.327.336.664.673 1 1 .215.221.438.439.656.656.434.454.863.906 1.313 1.344.33.338.662.67 1 1 .428.439.87.857 1.313 1.281.263.266.544.521.813.781.293.299.575.614.875.906.215.221.438.439.656.656.407.426.829.838 1.25 1.25.355.366.697.738 1.063 1.094.356.365.728.708 1.094 1.063.402.411.804.821 1.219 1.219.227.229.456.462.688.688.266.274.54.545.813.813.285.296.583.586.875.875.424.442.842.885 1.281 1.313.33.338.662.67 1 1 .428.439.87.857 1.313 1.281.227.229.456.462.688.688.327.336.664.673 1 1 .215.221.438.439.656.656.434.453.863.906 1.313 1.344.33.338.662.67 1 1 .428.439.87.857 1.313 1.281.263.266.544.521.813.781.293.299.575.614.875.906.215.221.438.439.656.656.434.453.863.906 1.313 1.344.33.338.662.67 1 1 .428.439.87.857 1.313 1.281.263.266.544.521.813.781.293.299.575.614.875.906.266.274.54.545.813.813.285.296.583.586.875.875.424.442.842.885 1.281 1.313.33.338.662.67 1 1 .428.439.87.857 1.313 1.281.227.229.456.462.688.688.266.274.54.545.813.813.285.296.583.586.875.875.424.442.842.885 1.281 1.313.33.338.662.67 1 1 .428.439.87.857 1.313 1.281.227.229.456.462.688.688.327.336.664.673 1 1 .215.221.438.439.656.656.434.453.863.906 1.313 1.344.33.338.662.67 1 1 .428.439.87.857 1.313 1.281.263.266.544.521.813.781.293.299.575.614.875.906.215.221.438.439.656.656.092.096.188.187.281.281 6.02.497 12.1.781 18.25.781 104.07 0 191.18-72.63 213.41-169.97-.117-.112-.227-.231-.344-.344-.259-.264-.517-.523-.781-.781-.358-.369-.725-.735-1.094-1.094-.327-.335-.664-.673-1-1-.325-.333-.635-.676-.969-1-.33-.338-.661-.671-1-1-.366-.375-.748-.729-1.125-1.094-.259-.264-.517-.523-.781-.781-.523-.539-1.049-1.077-1.594-1.594-.517-.544-1.054-1.072-1.594-1.594-.295-.301-.573-.613-.875-.906-.366-.375-.748-.729-1.125-1.094-.259-.264-.517-.523-.781-.781-.523-.539-1.049-1.077-1.594-1.594-.517-.544-1.054-1.072-1.594-1.594-.295-.301-.573-.613-.875-.906-.366-.375-.748-.729-1.125-1.094-.259-.264-.517-.523-.781-.781-.327-.338-.664-.671-1-1-.358-.369-.725-.735-1.094-1.094-.359-.368-.724-.736-1.094-1.094-.295-.301-.573-.613-.875-.906-.33-.338-.661-.671-1-1-.366-.375-.748-.729-1.125-1.094-.259-.264-.517-.523-.781-.781-.358-.369-.725-.735-1.094-1.094-.327-.335-.664-.673-1-1-.359-.368-.724-.736-1.094-1.094-.295-.301-.573-.613-.875-.906-.366-.375-.748-.729-1.125-1.094-.259-.264-.517-.523-.781-.781-.523-.539-1.049-1.077-1.594-1.594-.517-.544-1.054-1.072-1.594-1.594-.295-.301-.573-.613-.875-.906-.366-.375-.748-.729-1.125-1.094-.259-.264-.517-.523-.781-.781-.327-.338-.664-.671-1-1-.358-.369-.725-.735-1.094-1.094-.359-.368-.724-.736-1.094-1.094-.295-.301-.573-.613-.875-.906-.33-.338-.661-.671-1-1-.366-.375-.748-.729-1.125-1.094-.259-.264-.517-.523-.781-.781-.358-.369-.725-.735-1.094-1.094-.359-.368-.724-.736-1.094-1.094-1.913-1.951-3.964-3.767-6.156-5.406-.289-.293-.58-.589-.875-.875-.294-.301-.574-.612-.875-.906-.329-.339-.662-.67-1-1-.366-.376-.749-.729-1.125-1.094-.258-.264-.517-.523-.781-.781-.358-.37-.725-.734-1.094-1.094-.359-.369-.724-.736-1.094-1.094-.329-.336-.662-.673-1-1-.294-.301-.574-.612-.875-.906-.366-.376-.749-.729-1.125-1.094-.258-.264-.517-.523-.781-.781-.522-.539-1.049-1.077-1.594-1.594-.517-.545-1.055-1.071-1.594-1.594-.294-.301-.574-.612-.875-.906-.366-.376-.749-.729-1.125-1.094-.258-.264-.517-.523-.781-.781-.522-.539-1.049-1.077-1.594-1.594-.517-.545-1.055-1.071-1.594-1.594-.294-.301-.574-.612-.875-.906-.329-.339-.662-.67-1-1-.366-.376-.749-.729-1.125-1.094-.258-.264-.517-.523-.781-.781-.358-.37-.725-.734-1.094-1.094-.359-.369-.724-.736-1.094-1.094-.329-.336-.662-.673-1-1-.294-.301-.574-.612-.875-.906-.366-.376-.749-.729-1.125-1.094-.258-.264-.517-.523-.781-.781-.358-.37-.725-.734-1.094-1.094-.359-.369-.724-.736-1.094-1.094-.329-.336-.662-.673-1-1-.294-.301-.574-.612-.875-.906-.366-.376-.749-.729-1.125-1.094-.258-.264-.517-.523-.781-.781-.522-.539-1.049-1.077-1.594-1.594-.517-.545-1.055-1.071-1.594-1.594-.294-.301-.574-.612-.875-.906-.329-.339-.662-.67-1-1-.329-.339-.662-.67-1-1-.324-.333-.667-.644-1-.969-.327-.336-.665-.673-1-1-.359-.369-.724-.736-1.094-1.094-.294-.301-.574-.612-.875-.906-.329-.339-.662-.67-1-1-.366-.376-.749-.729-1.125-1.094-.258-.264-.517-.523-.781-.781-.358-.37-.725-.734-1.094-1.094-.359-.369-.724-.736-1.094-1.094-.329-.336-.662-.673-1-1-.294-.301-.574-.612-.875-.906-.366-.376-.749-.729-1.125-1.094-.258-.264-.517-.523-.781-.781-.522-.539-1.049-1.077-1.594-1.594-.517-.545-1.055-1.071-1.594-1.594-.294-.301-.574-.612-.875-.906-.366-.376-.749-.729-1.125-1.094-.258-.264-.517-.523-.781-.781-.522-.539-1.049-1.077-1.594-1.594-.517-.545-1.055-1.071-1.594-1.594-.294-.301-.574-.612-.875-.906-.329-.339-.662-.67-1-1-.329-.339-.662-.67-1-1-9.641-9.908-23.1-16.06-37.969-16.06-22.571 0-41.896 14.22-49.53 34.16-.094-.093-.186-.189-.281-.281-.288-.294-.581-.588-.875-.875-.484-.498-.966-.99-1.469-1.469-.223-.223-.461-.437-.688-.656-.011-.01-.02-.021-.031-.031-.1-.097-.18-.216-.281-.313-.167-.168-.33-.335-.5-.5-.248-.255-.497-.5-.75-.75-.401-.418-.804-.845-1.219-1.25-.327-.337-.664-.672-1-1-.36-.37-.724-.734-1.094-1.094-.459-.47-.93-.922-1.406-1.375-.167-.168-.33-.335-.5-.5-.248-.255-.497-.5-.75-.75-.401-.418-.804-.845-1.219-1.25-.327-.337-.664-.672-1-1-.327-.337-.664-.672-1-1-.489-.503-.992-.985-1.5-1.469-.099-.099-.213-.183-.313-.281-.13-.142-.275-.265-.406-.406-.1-.097-.18-.216-.281-.313l-.063-.063c-.463-.487-.926-.968-1.406-1.438-9.639-9.92-23.12-16.09-38-16.09" fill-opacity=".235"/>
   <path d="m203.22 166.97c-29.23 0-53.03 23.838-53.03 53.06v18.906h-19.657c-29.22 0-53.06 23.803-53.06 53.03 0 29.23 23.834 53.06 53.06 53.06h72.687c27.529 0 50.23-21.12 52.781-48 2.549 26.877 25.25 48 52.781 48h72.687c29.23 0 53.06-23.834 53.06-53.06 0-29.23-23.838-53.03-53.06-53.03h-19.663v-18.91c0-29.22-23.803-53.06-53.03-53.06-27.529 0-50.23 21.15-52.781 48.03-2.549-26.88-25.25-48.03-52.781-48.03" fill="#ffffff"/>
  </g>
 </g>
</svg>
