<?xml version="1.0" encoding="UTF-8" standalone="no"?>
<svg
   xmlns:dc="http://purl.org/dc/elements/1.1/"
   xmlns:cc="http://creativecommons.org/ns#"
   xmlns:rdf="http://www.w3.org/1999/02/22-rdf-syntax-ns#"
   xmlns:svg="http://www.w3.org/2000/svg"
   xmlns="http://www.w3.org/2000/svg"
   xmlns:sodipodi="http://sodipodi.sourceforge.net/DTD/sodipodi-0.dtd"
   xmlns:inkscape="http://www.inkscape.org/namespaces/inkscape"
   height="512"
   viewBox="0 0 512 512"
   width="512"
   version="1.1"
   id="svg831"
   sodipodi:docname="gnucash.svg"
   inkscape:version="0.92.2 5c3e80d, 2017-08-06">
  <metadata
     id="metadata837">
    <rdf:RDF>
      <cc:Work
         rdf:about="">
        <dc:format>image/svg+xml</dc:format>
        <dc:type
           rdf:resource="http://purl.org/dc/dcmitype/StillImage" />
        <dc:title></dc:title>
      </cc:Work>
    </rdf:RDF>
  </metadata>
  <defs
     id="defs835" />
  <sodipodi:namedview
     pagecolor="#ffffff"
     bordercolor="#666666"
     borderopacity="1"
     objecttolerance="10"
     gridtolerance="10"
     guidetolerance="10"
     inkscape:pageopacity="0"
     inkscape:pageshadow="2"
     inkscape:window-width="1920"
     inkscape:window-height="1021"
     id="namedview833"
     showgrid="false"
     inkscape:zoom="1.609375"
     inkscape:cx="256"
     inkscape:cy="256"
     inkscape:window-x="0"
     inkscape:window-y="0"
     inkscape:window-maximized="1"
     inkscape:current-layer="svg831" />
  <path
     d="m471.95 253.05c0 120.9-98.01 218.9-218.9 218.9-120.9 0-218.9-98.01-218.9-218.9 0-120.9 98.01-218.9 218.9-218.9 120.9 0 218.9 98.01 218.9 218.9"
     fill="#f06acb"
     fill-rule="evenodd"
     id="path815" />
  <path
     d="m256 1c-140.83 0-255 114.17-255 255 0 140.83 114.17 255 255 255 140.83 0 255-114.17 255-255 0-140.83-114.17-255-255-255m8.827 44.931c120.9 0 218.9 98 218.9 218.9 0 120.9-98 218.9-218.9 218.9-120.9 0-218.93-98-218.93-218.9 0-120.9 98.03-218.9 218.93-218.9"
     fill-opacity=".067"
     fill-rule="evenodd"
     id="path817" />
  <path
     d="M 338.28445,157.80941 313.89202,180.58553 220.342,237.98942 162.32154,178.56411 34.286457,270.83716 231.30297,477.07228 c 47.98002,-1.27586 166.53373,-13.42765 211.16107,-112.64981 27.47664,-43.27415 43.22237,-54.01484 32.59276,-103.91616 L 359.28588,144.37684"
     id="path825"
     inkscape:connector-curvature="0"
     style="opacity:0.25"
     sodipodi:nodetypes="ccccccccc" />
  <path
     inkscape:connector-curvature="0"
     d="M 347.69678,149.82073 220.342,237.98942 161.56287,169.41377 34.874249,250.85226 c -0.401658,5.46646 -0.666164,10.9623 -0.666164,16.53652 0,1.15599 0.05878,2.29239 0.07837,3.44838 L 161.56287,189.01661 220.342,257.59226 347.69678,169.42357 481.89933,303.62612 c 0.93067,-5.76036 1.61642,-11.58929 2.10625,-17.48679 l -136.3088,-136.3088 z"
     style="fill:#ffffff;fill-opacity:1;stroke-width:9.79652119"
     id="path868" />
  <path
     id="path870"
     style="fill:#ffffff;fill-opacity:1;fill-rule:nonzero;stroke:none;stroke-width:9.79652119"
     d="m 181.15591,179.21029 c 0,10.82516 -8.76789,19.59305 -19.59304,19.59305 -10.82516,0 -19.59305,-8.76789 -19.59305,-19.59305 0,-10.82515 8.76789,-19.59304 19.59305,-19.59304 10.82515,0 19.59304,8.76789 19.59304,19.59304 m 0,0"
     inkscape:connector-curvature="0" />
  <path
     id="path872"
     style="fill:#ffffff;fill-opacity:1;fill-rule:nonzero;stroke:none;stroke-width:9.79652119"
     d="m 239.93504,247.78595 c 0,10.82515 -8.76789,19.59304 -19.59304,19.59304 -10.82516,0 -19.59305,-8.76789 -19.59305,-19.59304 0,-10.82516 8.76789,-19.59305 19.59305,-19.59305 10.82515,0 19.59304,8.76789 19.59304,19.59305 m 0,0"
     inkscape:connector-curvature="0" />
  <path
     id="path874"
     style="fill:#ffffff;fill-opacity:1;fill-rule:nonzero;stroke:none;stroke-width:9.79652119"
     d="m 367.28982,159.61725 c 0,10.82516 -8.76789,19.59304 -19.59304,19.59304 -10.82516,0 -19.59305,-8.76788 -19.59305,-19.59304 0,-10.82516 8.76789,-19.59304 19.59305,-19.59304 10.82515,0 19.59304,8.76788 19.59304,19.59304 m 0,0"
     inkscape:connector-curvature="0" />
  <g
     fill-opacity=".129"
     fill-rule="evenodd"
     id="g823">
    <path
       d="m256 4.433c-138.94 0-251.57 112.63-251.57 251.57 0 138.94 112.63 251.57 251.57 251.57 138.94 0 251.57-112.63 251.57-251.57 0-138.94-112.63-251.57-251.57-251.57m5.885 38.556c120.9 0 218.9 98 218.9 218.9 0 120.9-98 218.9-218.9 218.9-120.9 0-218.93-98-218.93-218.9 0-120.9 98.03-218.9 218.93-218.9"
       id="path819" />
    <path
       d="m256 8.356c-136.77 0-247.64 110.87-247.64 247.64 0 136.77 110.87 247.64 247.64 247.64 136.77 0 247.64-110.87 247.64-247.64 0-136.77-110.87-247.64-247.64-247.64m2.942 31.691c120.9 0 218.9 98 218.9 218.9 0 120.9-98 218.9-218.9 218.9-120.9 0-218.93-98-218.93-218.9 0-120.9 98.03-218.9 218.93-218.9"
       id="path821" />
  </g>
  <path
     d="m253.04 7.859c-135.42 0-245.19 109.78-245.19 245.19 0 135.42 109.78 245.19 245.19 245.19 135.42 0 245.19-109.78 245.19-245.19 0-135.42-109.78-245.19-245.19-245.19zm0 26.297c120.9 0 218.9 98 218.9 218.9 0 120.9-98 218.9-218.9 218.9-120.9 0-218.93-98-218.93-218.9 0-120.9 98.03-218.9 218.93-218.9z"
     fill="#ffffff"
     fill-rule="evenodd"
     stroke="#000000"
     stroke-opacity=".31"
     stroke-width="4.904"
     id="path829" />
</svg>
