<?xml version="1.0" encoding="UTF-8"?>
<svg width="512" height="512" version="1.1" viewBox="0 0 512 512" xmlns="http://www.w3.org/2000/svg">
 <g fill-rule="evenodd">
  <path d="m471.95 253.05c0 120.9-98.01 218.9-218.9 218.9-120.9 0-218.9-98.01-218.9-218.9 0-120.9 98.01-218.9 218.9-218.9 120.9 0 218.9 98.01 218.9 218.9" fill="#f06acb"/>
  <path d="m256 1c-140.83 0-255 114.17-255 255s114.17 255 255 255 255-114.17 255-255-114.17-255-255-255m8.827 44.931c120.9 0 218.9 98 218.9 218.9s-98 218.9-218.9 218.9-218.93-98-218.93-218.9 98.03-218.9 218.93-218.9" fill-opacity=".067"/>
  <g fill-opacity=".129">
   <path d="m256 4.433c-138.94 0-251.57 112.63-251.57 251.57s112.63 251.57 251.57 251.57 251.57-112.63 251.57-251.57-112.63-251.57-251.57-251.57m5.885 38.556c120.9 0 218.9 98 218.9 218.9s-98 218.9-218.9 218.9-218.93-98-218.93-218.9 98.03-218.9 218.93-218.9"/>
   <path d="m256 8.356c-136.77 0-247.64 110.87-247.64 247.64s110.87 247.64 247.64 247.64 247.64-110.87 247.64-247.64-110.87-247.64-247.64-247.64m2.942 31.691c120.9 0 218.9 98 218.9 218.9s-98 218.9-218.9 218.9-218.93-98-218.93-218.9 98.03-218.9 218.93-218.9"/>
  </g>
 </g>
 <path d="m181.02 159.95-25.061 27.545-14.846 35.39-7.7166 53.958 3.2159 62.171 253.1 97.866c68.164-84.437 83.498-89.677 84.446-184.3l3.5344-50.735-156.15-64.095" opacity=".25"/>
 <path d="m253.04 7.859c-135.42 0-245.19 109.78-245.19 245.19 0 135.42 109.78 245.19 245.19 245.19 135.42 0 245.19-109.78 245.19-245.19 0-135.42-109.78-245.19-245.19-245.19zm0 26.297c120.9 0 218.9 98 218.9 218.9s-98 218.9-218.9 218.9-218.93-98-218.93-218.9 98.03-218.9 218.93-218.9z" fill="#ffffff" fill-rule="evenodd" stroke="#000000" stroke-opacity=".31" stroke-width="4.904"/>
 <g transform="matrix(1.0575 0 0 1.0575 7.224 -38.445)" style="fill:#ffffff">
  <path d="m256.15 264.27 25.294 26.449 32.152 19.884 5.5391-46.171-5.5391-45.113-32.749 17.443z" fill="#00832d" style="fill:#ffffff;stroke-width:11.489"/>
  <g style="fill:#ffffff">
   <path d="m175.72 166.61-57.446 57.446 28.777 8.0272 28.669-8.0272 8.2398-27.362z" fill="#e94235" style="fill:#ffffff;stroke-width:11.489"/>
   <g style="fill:#ffffff">
    <path d="m118.28 304.48v41.17c0 8.9927 7.3238 16.276 16.366 16.276h41.08l8.9514-29.732-8.9514-27.715-28.669-8.0272z" fill="#0066da" style="fill:#ffffff;stroke-width:11.489"/>
    <path d="m175.72 224.06h-57.446v80.425h57.446z" fill="#2684fc" style="fill:#ffffff;stroke-width:11.489"/>
    <path d="m256.15 264.27v40.212h-80.425v57.446h121.13c8.9927 0 16.738-7.2837 16.738-16.276v-35.049z" style="fill:#ffffff;stroke-width:11.489"/>
    <path d="m347.02 191.4-33.428 27.917v91.284l33.581 26.65c5.0269 4.0698 12.376 0.35674 12.376-6.2632v-133.46c0-6.6993-7.5149-10.373-12.529-6.1311z" style="fill:#ffffff;stroke-width:11.489"/>
    <path d="m297.23 166.61h-121.51v57.446h80.425v40.212l57.446-44.95v-36.432c0-8.9927-7.3238-16.276-16.366-16.276z" fill="#ffba00" style="fill:#ffffff;stroke-width:11.489"/>
   </g>
  </g>
 </g>
</svg>
