<?xml version="1.0" encoding="UTF-8"?>
<svg width="512" height="512" version="1.1" viewBox="0 0 512 512" xmlns="http://www.w3.org/2000/svg">
 <g fill-rule="evenodd">
  <path d="m471.95 253.05c0 120.9-98.01 218.9-218.9 218.9-120.9 0-218.9-98.01-218.9-218.9 0-120.9 98.01-218.9 218.9-218.9 120.9 0 218.9 98.01 218.9 218.9" fill="#f06acb"/>
  <path d="m256 1c-140.83 0-255 114.17-255 255s114.17 255 255 255 255-114.17 255-255-114.17-255-255-255m8.827 44.931c120.9 0 218.9 98 218.9 218.9s-98 218.9-218.9 218.9-218.93-98-218.93-218.9 98.03-218.9 218.93-218.9" fill-opacity=".067"/>
  <g fill-opacity=".129">
   <path d="m256 4.433c-138.94 0-251.57 112.63-251.57 251.57s112.63 251.57 251.57 251.57 251.57-112.63 251.57-251.57-112.63-251.57-251.57-251.57m5.885 38.556c120.9 0 218.9 98 218.9 218.9s-98 218.9-218.9 218.9-218.93-98-218.93-218.9 98.03-218.9 218.93-218.9"/>
   <path d="m256 8.356c-136.77 0-247.64 110.87-247.64 247.64s110.87 247.64 247.64 247.64 247.64-110.87 247.64-247.64-110.87-247.64-247.64-247.64m2.942 31.691c120.9 0 218.9 98 218.9 218.9s-98 218.9-218.9 218.9-218.93-98-218.93-218.9 98.03-218.9 218.93-218.9"/>
  </g>
 </g>
 <path d="m320.04 139.69c-65.24 24.526-81.366 4.049-157.65 37.344l21.479 21.198-9.9015 41.297-29.664-45.196-27.213 27.768-7.8383 111.57 160.5 145.25c121.03-14.856 209.88-63.581 202.19-225.86l-113.3-114.33" opacity=".25"/>
 <path d="m253.04 7.859c-135.42 0-245.19 109.78-245.19 245.19 0 135.42 109.78 245.19 245.19 245.19 135.42 0 245.19-109.78 245.19-245.19 0-135.42-109.78-245.19-245.19-245.19zm0 26.297c120.9 0 218.9 98 218.9 218.9s-98 218.9-218.9 218.9-218.93-98-218.93-218.9 98.03-218.9 218.93-218.9z" fill="#ffffff" fill-rule="evenodd" stroke="#000000" stroke-opacity=".31" stroke-width="4.904"/>
 <path d="m177.11 128.11 0.0347 0.012c-8.381 0.33803-15.281 3.9286-20.037 7.5305-28.092 21.308-52.618 110.18-52.618 157.2 0 46.976 10.817 45.029 20.189 45.029 9.3835 0 21.18-6.4469 31.485-15.527 28.465-25.05 41.567-51.136 69.869-51.136h59.974c28.302 0 41.416 26.075 69.869 51.136 10.304 9.0804 22.1 15.527 31.483 15.527s20.189 2.005 20.189-45.029c0-46.976-24.525-135.9-52.617-157.2-7.6-5.77-20.678-11.505-36.613-3.9403-10.677 5.0706-20.224 11.296-34.177 11.296h-56.278c-13.953 0-23.546-6.2135-34.177-11.296-5.9681-2.8325-11.541-3.8004-16.576-3.6023zm78.927 38.211 58.282 46.626h-23.313v34.969h-69.938v-34.969h-23.313z" fill="#ffffff" fill-rule="evenodd" stroke-width="11.656"/>
</svg>
