<svg height="22" overflow="visible" viewBox="0 0 128 128" width="22" xmlns="http://www.w3.org/2000/svg">
 <path d="m40.602 21.938c-8.268 6.368-14.483 15.328-17.502 25.23-.118.387.012.807.331 1.059 4.155 3.291 6.635 8.357 6.635 13.553 0 5.196-2.481 10.264-6.637 13.555-.317.251-.449.67-.331 1.058 2.995 9.819 9.14 18.728 17.306 25.082.219.171.499.241.773.193.273-.047.514-.208.663-.441l10.209-16.022c.261-.409.185-.947-.18-1.268-6.409-5.639-10.084-13.715-10.084-22.156 0-8.504 3.714-16.616 10.19-22.257.365-.319.445-.856.186-1.267l-10.125-16.065c-.148-.234-.388-.396-.661-.444-.273-.048-.556.021-.773.19z" fill="#3a3a3a"/>
 <ellipse cx="12.803" cy="62.016" fill="#3a3a3a" fill-rule="evenodd" rx="12.803" ry="12.794"/>
 <path d="m49.054 16.696c-.25.124-.436.348-.511.616-.076.268-.034.555.114.791l10.122 16.059c.257.408.772.57 1.217.383 3.754-1.587 7.654-2.392 11.59-2.392 14.478 0 27.107 10.734 29.377 24.969.076.478.488.829.971.829l19.08.029c.278 0 .543-.117.73-.323s.277-.479.251-.757c-1.028-10.562-5.524-20.75-12.659-28.685-.322-.36-.859-.432-1.266-.169-2.877 1.858-6.145 2.842-9.447 2.842-9.633 0-17.469-7.79-17.47-17.364.001-.005.019-.366.019-.382 0-.477-.343-.888-.816-.97-3.012-.522-5.962-.888-8.77-.888-7.711.001-15.502 1.938-22.532 5.412z" fill="#3a3a3a"/>
 <ellipse clip-rule="evenodd" cx="98" cy="14" fill="#3a3a3a" fill-rule="evenodd" rx="12.51" ry="12.5"/>
 <path d="m120.994 65.733l-19.078.062c-.481.001-.892.352-.969.826-2.301 14.129-14.923 24.784-29.361 24.784-3.982 0-7.926-.824-11.722-2.45-.444-.189-.958-.03-1.219.375l-10.203 16.015c-.149.235-.192.522-.118.791.074.268.259.493.508.617 7.085 3.547 14.954 5.421 22.754 5.421 2.893 0 5.906-.273 8.955-.814.428-.075.756-.424.807-.855 1.016-8.775 8.443-15.393 17.275-15.393 2.738 0 5.524.698 8.056 2.018.385.201.854.127 1.159-.184 7.985-8.143 13.008-18.842 14.14-30.129.028-.277-.063-.553-.251-.76-.188-.207-.455-.325-.733-.324z" fill="#3a3a3a"/>
 <ellipse cx="98.486" cy="112.272" fill="#3a3a3a" fill-rule="evenodd" rx="12.803" ry="12.728"/>
</svg>
