<?xml version="1.0" encoding="UTF-8" standalone="no"?>
<svg xmlns="http://www.w3.org/2000/svg" height="512" viewBox="0 0 512 512" width="512" version="1.1">
 <path d="m471.95 253.05c0 120.9-98.01 218.9-218.9 218.9-120.9 0-218.9-98.01-218.9-218.9 0-120.9 98.01-218.9 218.9-218.9 120.9 0 218.9 98.01 218.9 218.9" fill="#4C5B96" fill-rule="evenodd"/>
 <path d="m256 1c-140.83 0-255 114.17-255 255 0 140.83 114.17 255 255 255 140.83 0 255-114.17 255-255 0-140.83-114.17-255-255-255m8.827 44.931c120.9 0 218.9 98 218.9 218.9 0 120.9-98 218.9-218.9 218.9-120.9 0-218.93-98-218.93-218.9 0-120.9 98.03-218.9 218.93-218.9" fill-opacity=".067" fill-rule="evenodd"/>
 <g fill-opacity=".129" fill-rule="evenodd">
  <path d="m256 4.433c-138.94 0-251.57 112.63-251.57 251.57 0 138.94 112.63 251.57 251.57 251.57 138.94 0 251.57-112.63 251.57-251.57 0-138.94-112.63-251.57-251.57-251.57m5.885 38.556c120.9 0 218.9 98 218.9 218.9 0 120.9-98 218.9-218.9 218.9-120.9 0-218.93-98-218.93-218.9 0-120.9 98.03-218.9 218.93-218.9"/>
  <path d="m256 8.356c-136.77 0-247.64 110.87-247.64 247.64 0 136.77 110.87 247.64 247.64 247.64 136.77 0 247.64-110.87 247.64-247.64 0-136.77-110.87-247.64-247.64-247.64m2.942 31.691c120.9 0 218.9 98 218.9 218.9 0 120.9-98 218.9-218.9 218.9-120.9 0-218.93-98-218.93-218.9 0-120.9 98.03-218.9 218.93-218.9"/>
 </g>
 <path d="m 330.30836,111.70481 -27.64014,6.91426 -6.26283,3.02883 7.50461,3.7015 -27.73857,3.91401 -14.09282,10.12407 -10.95732,12.02924 -21.36114,2.19951 -4.82576,8.46209 -10.62324,6.98485 -21.94961,10.90883 -23.67289,11.48047 -23.98857,21.30678 -27.60973,9.33656 16.303,54.744 -3.91142,19.63012 154.7348,171.82916 C 399.77866,472.06355 498.56052,290.30473 471.95,253.05 L 330.30336,111.70481" style="opacity:0.25"/>
 <path d="m253.04 7.859c-135.42 0-245.19 109.78-245.19 245.19 0 135.42 109.78 245.19 245.19 245.19 135.42 0 245.19-109.78 245.19-245.19 0-135.42-109.78-245.19-245.19-245.19zm0 26.297c120.9 0 218.9 98 218.9 218.9 0 120.9-98 218.9-218.9 218.9-120.9 0-218.93-98-218.93-218.9 0-120.9 98.03-218.9 218.93-218.9z" fill="#ffffff" fill-rule="evenodd" stroke="#000000" stroke-opacity=".31" stroke-width="4.904"/>
 <g transform="matrix(11.754254,0,0,11.754254,-2.1069431,-39.701736)" style="fill:#ffffff;fill-opacity:1">
  <path d="m 28.28,12.881 c 0,0 -3.732,0.648 -5.467,1.367 -3.682,1.525 -10.251,6.151 -10.251,6.151 0,0 -3.112,1.835 -3.417,3.417 -0.328,1.704 2.05,4.784 2.05,4.784 l 4.784,-2.05 0.683,0.683 c 0,0 -0.966,3.134 0,4.1 0.966,0.966 4.1,0 4.1,0 l 0.683,0.683 -2.05,4.784 c 0,0 3.08,2.378 4.784,2.05 1.582,-0.305 3.417,-3.417 3.417,-3.417 0,0 4.626,-6.569 6.151,-10.251 0.719,-1.735 1.367,-5.467 1.367,-5.467 0,0 -8.03,10.934 -10.934,10.934 -2.899,0 -1.367,-1.367 -1.367,-1.367 0,0 1.133,-1.742 1.367,-2.734 0.209,-0.887 0.509,-2.224 0,-2.734 -0.509,-0.509 -1.847,-0.209 -2.734,0 -0.991,0.234 -2.734,1.367 -2.734,1.367 0,0 -1.367,1.533 -1.367,-1.367 0,-2.899 10.934,-10.934 10.934,-10.934 z" style="fill:#ffffff;fill-opacity:1;"/>
  <path d="m 20.08,25.18 c -1.233,0.411 -0.644,2.089 0,2.734 0.644,0.644 2.317,1.251 2.734,0 l 0.683,-2.05 c 0,0 0.322,-1.045 0,-1.367 -0.322,-0.322 -1.367,0 -1.367,0 z" style="fill:#ffffff;fill-opacity:1;"/>
 </g>
</svg>
