<svg width="512" height="512" version="1.1" viewBox="0 0 512 512" xmlns="http://www.w3.org/2000/svg">
 <g fill-rule="evenodd">
  <path d="m471.95 253.05c0 120.9-98.01 218.9-218.9 218.9-120.9 0-218.9-98.01-218.9-218.9 0-120.9 98.01-218.9 218.9-218.9 120.9 0 218.9 98.01 218.9 218.9" fill="#4C5B96"/>
  <path d="m256 1c-140.83 0-255 114.17-255 255s114.17 255 255 255 255-114.17 255-255-114.17-255-255-255m8.827 44.931c120.9 0 218.9 98 218.9 218.9s-98 218.9-218.9 218.9-218.93-98-218.93-218.9 98.03-218.9 218.93-218.9" fill-opacity=".067"/>
  <g fill-opacity=".129">
   <path d="m256 4.433c-138.94 0-251.57 112.63-251.57 251.57s112.63 251.57 251.57 251.57 251.57-112.63 251.57-251.57-112.63-251.57-251.57-251.57m5.885 38.556c120.9 0 218.9 98 218.9 218.9s-98 218.9-218.9 218.9-218.93-98-218.93-218.9 98.03-218.9 218.93-218.9"/>
   <path d="m256 8.356c-136.77 0-247.64 110.87-247.64 247.64s110.87 247.64 247.64 247.64 247.64-110.87 247.64-247.64-110.87-247.64-247.64-247.64m2.942 31.691c120.9 0 218.9 98 218.9 218.9s-98 218.9-218.9 218.9-218.93-98-218.93-218.9 98.03-218.9 218.93-218.9"/>
  </g>
 </g>
 <path d="m357 129.62c-24.179 6.4928-37.341 7.9798-66.543 16.091l-2.7936 6.5085c-12.511 4.2207-4.9767-3.3681-21.262 12.12l-17.617 8.5668-38.672-29.182-69.544-14.105 86.573 54.108 35.774 22.969-23.812-4.1192-22.783-18.85-97.394-54.108-0.25534 55.384 9.2709 41.969 5.4555 49.863-14.471 36.752 208.71 146.16c148.75-31.574 136.12-116.31 146.52-207.17l-0.21645-37.371-95.296-85.582-8.0505 11.653" opacity=".25"/>
 <g fill="#ffffff">
  <path d="m253.04 7.859c-135.42 0-245.19 109.78-245.19 245.19 0 135.42 109.78 245.19 245.19 245.19 135.42 0 245.19-109.78 245.19-245.19 0-135.42-109.78-245.19-245.19-245.19zm0 26.297c120.9 0 218.9 98 218.9 218.9s-98 218.9-218.9 218.9-218.93-98-218.93-218.9 98.03-218.9 218.93-218.9z" fill-rule="evenodd" stroke="#000000" stroke-opacity=".31" stroke-width="4.904"/>
  <path d="m270.42 389.34v-194.79h-43.286v194.79m-10.822-205.61-97.394-54.108v183.97l97.394 64.93m162.32-64.93v-183.97l-97.394 54.108v194.79m75.751-248.9c-43.286 0-64.93 5.6272-108.22 43.286-43.286-36.739-64.93-43.286-108.22-43.286l86.573 54.108h43.286"/>
  <path d="m411.12 337.64-1.602-65.744c-10.578-4.355-18.16-14.497-18.456-26.624-0.29551-12.127 6.8188-22.877 17.111-27.719l0.63353 25.147c0.26206 12.46 24.018 11.882 23.714-0.57784l-0.63351-25.147c3.3589 1.4142 6.3775 3.3561 8.9281 5.7042 5.7403 5.3456 9.4506 12.652 9.6753 21.02 0.27423 12.107-6.8826 22.816-17.196 27.638l1.602 65.744c-1.9361 12.639-21.593 12.619-23.714 0.57784"/>
 </g>
</svg>
