<svg width="512" height="512" version="1.1" viewBox="0 0 512 512" xmlns="http://www.w3.org/2000/svg">
 <g fill-rule="evenodd">
  <path d="m471.95 253.05c0 120.9-98.01 218.9-218.9 218.9-120.9 0-218.9-98.01-218.9-218.9 0-120.9 98.01-218.9 218.9-218.9 120.9 0 218.9 98.01 218.9 218.9" fill="#4C5B96"/>
  <path d="m256 1c-140.83 0-255 114.17-255 255s114.17 255 255 255 255-114.17 255-255-114.17-255-255-255m8.827 44.931c120.9 0 218.9 98 218.9 218.9s-98 218.9-218.9 218.9-218.93-98-218.93-218.9 98.03-218.9 218.93-218.9" fill-opacity=".067"/>
  <g fill-opacity=".129">
   <path d="m256 4.433c-138.94 0-251.57 112.63-251.57 251.57s112.63 251.57 251.57 251.57 251.57-112.63 251.57-251.57-112.63-251.57-251.57-251.57m5.885 38.556c120.9 0 218.9 98 218.9 218.9s-98 218.9-218.9 218.9-218.93-98-218.93-218.9 98.03-218.9 218.93-218.9"/>
   <path d="m256 8.356c-136.77 0-247.64 110.87-247.64 247.64s110.87 247.64 247.64 247.64 247.64-110.87 247.64-247.64-110.87-247.64-247.64-247.64m2.942 31.691c120.9 0 218.9 98 218.9 218.9s-98 218.9-218.9 218.9-218.93-98-218.93-218.9 98.03-218.9 218.93-218.9"/>
  </g>
 </g>
 <path d="m285.22 195.88-60.192-50.432-62.342 47.772-2.981 33.669 57.291 38.445-61.416 76.048 149.04 124.51c89.701-35.442 171.66-80.073 164.84-230.14l-119.25-88.57" opacity=".25"/>
 <path d="m253.04 7.859c-135.42 0-245.19 109.78-245.19 245.19 0 135.42 109.78 245.19 245.19 245.19 135.42 0 245.19-109.78 245.19-245.19 0-135.42-109.78-245.19-245.19-245.19zm0 26.297c120.9 0 218.9 98 218.9 218.9s-98 218.9-218.9 218.9-218.93-98-218.93-218.9 98.03-218.9 218.93-218.9z" fill="#ffffff" fill-rule="evenodd" stroke="#000000" stroke-opacity=".31" stroke-width="4.904"/>
 <g transform="matrix(9.4972 0 0 9.4972 28.068 21.559)" fill="#ffffff">
  <g fill="#ffffff">
   <g fill="#ffffff">
    <path d="m23 30.5c0 3.039-2.461 5.5-5.5 5.5s-5.5-2.461-5.5-5.5 2.461-5.5 5.5-5.5 5.5 2.461 5.5 5.5"/>
    <path d="m36 30.5c0 3.039-2.461 5.5-5.5 5.5s-5.5-2.461-5.5-5.5 2.461-5.5 5.5-5.5 5.5 2.461 5.5 5.5"/>
    <path d="m23 17.5c0 3.039-2.461 5.5-5.5 5.5s-5.5-2.461-5.5-5.5 2.461-5.5 5.5-5.5 5.5 2.461 5.5 5.5"/>
    <path d="m36 17.5c0 3.039-2.461 5.5-5.5 5.5s-5.5-2.461-5.5-5.5 2.461-5.5 5.5-5.5 5.5 2.461 5.5 5.5"/>
   </g>
  </g>
 </g>
</svg>
