<svg width="512" height="512" version="1.1" viewBox="0 0 512 512" xmlns="http://www.w3.org/2000/svg">
 <g fill-rule="evenodd">
  <path d="m471.95 253.05c0 120.9-98.01 218.9-218.9 218.9-120.9 0-218.9-98.01-218.9-218.9 0-120.9 98.01-218.9 218.9-218.9 120.9 0 218.9 98.01 218.9 218.9" fill="#4C5B96"/>
  <path d="m256 1c-140.83 0-255 114.17-255 255s114.17 255 255 255 255-114.17 255-255-114.17-255-255-255m8.827 44.931c120.9 0 218.9 98 218.9 218.9s-98 218.9-218.9 218.9-218.93-98-218.93-218.9 98.03-218.9 218.93-218.9" fill-opacity=".067"/>
  <g fill-opacity=".129">
   <path d="m256 4.433c-138.94 0-251.57 112.63-251.57 251.57s112.63 251.57 251.57 251.57 251.57-112.63 251.57-251.57-112.63-251.57-251.57-251.57m5.885 38.556c120.9 0 218.9 98 218.9 218.9s-98 218.9-218.9 218.9-218.93-98-218.93-218.9 98.03-218.9 218.93-218.9"/>
   <path d="m256 8.356c-136.77 0-247.64 110.87-247.64 247.64s110.87 247.64 247.64 247.64 247.64-110.87 247.64-247.64-110.87-247.64-247.64-247.64m2.942 31.691c120.9 0 218.9 98 218.9 218.9s-98 218.9-218.9 218.9-218.93-98-218.93-218.9 98.03-218.9 218.93-218.9"/>
  </g>
 </g>
 <path d="m255.82 193.88-13.384 13.943-71.431-69.397 27.315 83.76-10.465 77.663-56.167 5.2086 172.94 160.83c65.844-19.796 131.06-58.268 166.38-141.16l-185.54-164.88" opacity=".25"/>
 <path d="m253.04 7.859c-135.42 0-245.19 109.78-245.19 245.19 0 135.42 109.78 245.19 245.19 245.19 135.42 0 245.19-109.78 245.19-245.19 0-135.42-109.78-245.19-245.19-245.19zm0 26.297c120.9 0 218.9 98 218.9 218.9s-98 218.9-218.9 218.9-218.93-98-218.93-218.9 98.03-218.9 218.93-218.9z" fill="#ffffff" fill-rule="evenodd" stroke="#000000" stroke-opacity=".31" stroke-width="4.904"/>
 <g transform="translate(-1.7821 -9.5618)" fill="#ffffff">
  <polygon class="st0" transform="matrix(.34272 0 0 .34272 133.47 103.44)" points="317.1 252.1 0 616.2 634.1 616.2"/>
  <polygon class="st0" transform="matrix(.34272 0 0 .34272 133.47 103.44)" points="765.7 556.6 448.7 192.5 362.2 291.8 592.8 556.6"/>
  <path class="st1" d="m181.46 227.98 2.7075 7.8825 1.9192 5.552c0.95961 2.776 2.776 5.2093 5.175 6.9229l20.289-20.289-0.47981-1.4394-2.7075-7.8825-10.042 3.4615-25.533-74.199-6.8201 2.3305 25.533 74.199z" stroke-width=".34272"/>
  <rect class="st1" x="335.49" y="344.01" width="37.693" height="45.924" stroke-width=".65326"/>
  <path class="st1" d="m336.93 344.27c0.19599-9.6029 8.1657-17.246 17.769-17.05 9.3416 0.19597 16.919 7.7084 17.05 17.05h1.4372c0-10.387-8.427-18.879-18.879-18.879-10.387 0-18.814 8.427-18.879 18.879z" stroke-width=".65326"/>
 </g>
 <path class="st0" d="m344.75 290.22h9.9046v-5.5863c-0.0343 3.0845-4.4553 5.5863-9.9046 5.5863z" fill="#ffffff" stroke-width=".34272"/>
 <path class="st0" d="m334.85 284.63v5.5863h9.9046c-5.4835 0-9.9046-2.5018-9.9046-5.5863" fill="#ffffff" stroke-width=".34272"/>
</svg>
