<svg height="24" viewBox="0 0 24 24" width="24" xmlns="http://www.w3.org/2000/svg">
 <path d="m20.565552 12.629814c-.002.000033-.0039.000102-.0059.000102-.000631.000004-.0016.000004-.0023.000004-.765094 0-1.896743-.377494-2.471266-.824385-.01758-.01367-.03542-.02793-.0535-.04272-.124669-.102045-.261104-.230224-.405582-.37436-.176652-.176091-.365373-.376281-.559656-.582366-.79151-.8395899-1.539116-1.6325949-2.186072-1.6325949-.459902 0-.989509.214302-1.501713.421619-.426629.172638-.867806.351167-1.154895.351167-.287087 0-.728222-.178529-1.15485-.351167-.512204-.207317-1.041855-.421619-1.5017133-.421619-.6469996 0-1.394648.793048-2.1861144 1.6326409-.1474284.156381-.2916562.309365-.4298129.451031-.1857834.190386-.3606229.360514-.5174674.490831-.024247.02014-.048083.03935-.071457.05754-.2601974.202401-.6347243.390576-1.037734.535889-.4867149.175493-1.0149684.288472-1.4335316.288496-.2836164 0-.3956461-.05555-.4232018-.07256-.1932087-.119327-.3805721-.179847-.5569003-.179847-.2495979 0-.4601672.130491-.5495172.340532-.1101412.258958-.018399.57703.2452873.850889.7596273.788894 2.410145 1.270842 4.5810409 1.349346.2087785.0076.4224071.01137.6405298.01137.017712 0 .03538-.000103.053041-.000306 1.6109564-.01827 3.0615359-.864554 3.8871139-1.657089.169342-.162529.390239-.170792.432783-.170792l.0013-.000153.008.003.02997-.0026.0057-.000102c.04255 0 .263485.0082.432828.170794.813694.781128 2.234488 1.614476 3.817609 1.655784.04073.001.08158.0016.122527.0016.398886 0 .782764-.01278 1.149619-.0378 1.919297-.130889 3.372867-.596934 4.071971-1.322937.263703-.273812.355343-.591927.245245-.850886-.08935-.210041-.299919-.340532-.549471-.340532-.176377 0-.363695.06052-.556904.179847-.02727.01685-.137384.07147-.414903.07255zm-3.945564 3.212562c-.210786 0-.422059-.01209-.633463-.03542v1.409154c0 .446716.476517.684973 1.131736.684973.655216 0 2.144316.11915 2.739936-.92323.306339-.536112.502183-1.134943.620367-1.63708-1.041811.328356-2.348291.501608-3.858576.501608zm2.026359-4.757269c.410237.319127 1.31312.620935 1.880042.631616-.06356-1.492043-.132119-3.1738646-.132119-3.7330515 0-1.0423373.03016-1.9804666-.297809-1.9804666-.833881 0-.625421 3.6185152-1.667803 4.5119451-.0654.05608-.132203.117659-.199977.1842.157564.158925.302121.295875.417666.385757zm-14.4900705.613622c.5574725-.07067 1.2890344-.335565 1.6464865-.613596.1423588-.110758.3287074-.292977.5293446-.499853-.026448-.02399-.052827-.04782-.078849-.0701-1.0423801-.8934789-.8339233-4.511995-1.6677999-4.511995-.327919 0-.2978137.9381328-.2978137 1.9805124 0 .5569003-.068033 2.2275156-.1313685 3.7150316zm3.6728259 4.143647c-1.3911743 0-2.6098423-.146751-3.6076601-.426497.1197244.486009.3110408 1.052358.6022599 1.561969.5956659 1.04238 2.0847623.92323 2.7399391.92323.6552166 0 1.1317333-.238256 1.1317333-.684973v-1.43961c-.2890644.0436-.5780858.06588-.8662722.06588z" fill="#fefefe" fill-rule="evenodd"/>
</svg>
