<?xml version="1.0" encoding="UTF-8" standalone="no"?>
<svg xmlns="http://www.w3.org/2000/svg" height="512" viewBox="0 0 512 512" width="512" version="1.1">
 <path d="m471.95 253.05c0 120.9-98.01 218.9-218.9 218.9-120.9 0-218.9-98.01-218.9-218.9 0-120.9 98.01-218.9 218.9-218.9 120.9 0 218.9 98.01 218.9 218.9" fill="#15e7ee" fill-rule="evenodd"/>
 <path d="m256 1c-140.83 0-255 114.17-255 255 0 140.83 114.17 255 255 255 140.83 0 255-114.17 255-255 0-140.83-114.17-255-255-255m8.827 44.931c120.9 0 218.9 98 218.9 218.9 0 120.9-98 218.9-218.9 218.9-120.9 0-218.93-98-218.93-218.9 0-120.9 98.03-218.9 218.93-218.9" fill-opacity=".067" fill-rule="evenodd"/>
 <g fill-opacity=".129" fill-rule="evenodd">
  <path d="m256 4.433c-138.94 0-251.57 112.63-251.57 251.57 0 138.94 112.63 251.57 251.57 251.57 138.94 0 251.57-112.63 251.57-251.57 0-138.94-112.63-251.57-251.57-251.57m5.885 38.556c120.9 0 218.9 98 218.9 218.9 0 120.9-98 218.9-218.9 218.9-120.9 0-218.93-98-218.93-218.9 0-120.9 98.03-218.9 218.93-218.9"/>
  <path d="m256 8.356c-136.77 0-247.64 110.87-247.64 247.64 0 136.77 110.87 247.64 247.64 247.64 136.77 0 247.64-110.87 247.64-247.64 0-136.77-110.87-247.64-247.64-247.64m2.942 31.691c120.9 0 218.9 98 218.9 218.9 0 120.9-98 218.9-218.9 218.9-120.9 0-218.93-98-218.93-218.9 0-120.9 98.03-218.9 218.93-218.9"/>
 </g>
 <path d="m 330.30836,111.70481 c -11.198,0.1 -21.02,1.705 -27.752,3.223 -0.849,0.192 -1.489,0.381 -2.236,0.568 l 11.867,11.867 c -12.395,-6.969 -27.615,-11.738 -46.14,-12.02 -1.129,-0.018 -2.246,-0.024 -3.336,0 -16.356,0.358 -28.394,5.332 -37.533,12.662 -0.379,0.304 -0.744,0.621 -1.113,0.934 l -4.193,-4.193 c -8.754,-2.926 -29.06,-8.852 -49.85401,-8.834 -1.835,10e-4 4.60219,8.43734 -0.89581,8.58934 -14.657,0.81 -13.41638,18.00453 -23.51838,28.31653 -10.1,10.313 -36.49081,5.57313 -35.07281,32.73313 0.286,5.357 2.6,19.545 6.559,36.545 3.958,17 9.541,37.03 16.303,54.744 6.535,17.12 12.77594,87.34624 20.65594,95.22424 l 172.05094,86.15345 c 97.12,-22.39 143.94446,-101.81095 148.05313,-205.63969 0.65451,-16.53987 18.45667,-139.99538 -5.45406,-75.11937 L 358.26939,104.80481 c -22.92834,-15.084927 19.22005,23.59769 -1.11995,23.77469" style="opacity:0.25"/>
 <path d="m253.04 7.859c-135.42 0-245.19 109.78-245.19 245.19 0 135.42 109.78 245.19 245.19 245.19 135.42 0 245.19-109.78 245.19-245.19 0-135.42-109.78-245.19-245.19-245.19zm0 26.297c120.9 0 218.9 98 218.9 218.9 0 120.9-98 218.9-218.9 218.9-120.9 0-218.93-98-218.93-218.9 0-120.9 98.03-218.9 218.93-218.9z" fill="#ffffff" fill-rule="evenodd" stroke="#000000" stroke-opacity=".31" stroke-width="4.904"/>
 <g transform="matrix(11.227875,0,0,11.227875,-6.52789,-21.682345)" style="fill:#ffffff;fill-opacity:1">
  <path d="m 22.537,10.01 a 14,14 0 0 0 -8.904,3.588 14,14 0 0 0 -3.422,16.1 14,14 0 0 0 14.252,8.23 14,14 0 0 0 12.23,-11.01 L 23,24 30,11.88 a 14,14 0 0 0 -7.463,-1.867 z m -0.426,2.539 a 3,3 0 0 1 3,3 3,3 0 0 1 -3,3 3,3 0 0 1 -3,-3 3,3 0 0 1 3,-3 z m -7.426,6.686 a 3,3 0 0 1 3,3 3,3 0 0 1 -3,3 3,3 0 0 1 -3,-3 3,3 0 0 1 3,-3 z m 14.003,8.081 a 3,3 0 0 1 3,3 3,3 0 0 1 -3,3 3,3 0 0 1 -3,-3 3,3 0 0 1 3,-3 z m -9.938,1.045 a 3,3 0 0 1 3,3 3,3 0 0 1 -3,3 3,3 0 0 1 -3,-3 3,3 0 0 1 3,-3 z" style="fill:#ffffff;fill-opacity:1;fill-rule:evenodd;"/>
  <path d="m 32,10.964 -7,12.13 13.693,2.91 A 14,14 0 0 0 32,10.964 m 0.766,5.668 a 3,3 0 0 1 3,3 3,3 0 0 1 -3,3 3,3 0 0 1 -3,-3 3,3 0 0 1 3,-3 z" style="fill:#ffffff;fill-opacity:1;fill-rule:evenodd;"/>
 </g>
</svg>
