<svg height="512" viewBox="0 0 512 512" width="512" xmlns="http://www.w3.org/2000/svg">
 <path d="m471.95 253.05c0 120.9-98.01 218.9-218.9 218.9-120.9 0-218.9-98.01-218.9-218.9 0-120.9 98.01-218.9 218.9-218.9 120.9 0 218.9 98.01 218.9 218.9" fill="#0078ad" fill-rule="evenodd"/>
 <text x="729.64" y="231.36">
  
 </text>
 <text x="1310.91" y="151.36">
  
 </text>
 <text x="239.33" y="-29.9">
  
 </text>
 <text x="1337.38" y="-246.37">
  
 </text>
 <text x="1918.65" y="-326.38">
  
 </text>
 <text x="1529.53" y="-798.78">
  
 </text>
 <text x="2110.79" y="-878.78">
  
 </text>
 <text x="277.99" y="535.94">
  
 </text>
 <path d="m156.72 120c-27.13 0-49.41 22.28-49.41 49.41v108.28c0 27.13 22.28 49.41 49.41 49.41h198.56c27.13 0 49.41-22.28 49.41-49.41v-108.28c0-27.13-22.28-49.41-49.41-49.41zm3.938 24.19h190.69c15.53 0 27.938 12.309 27.938 27.813v103.09c0 15.504-12.433 27.938-27.938 27.938h-190.69c-15.503 0-27.938-12.434-27.938-27.938v-103.09c0-15.504 12.409-27.813 27.938-27.813m157.5 161.81c5.155 0 9.313 4.157 9.313 9.313 0 5.155-4.157 9.344-9.313 9.344-5.155 0-9.344-4.189-9.344-9.344 0-5.155 4.189-9.313 9.344-9.313" fill="#ffffff"/>
 <g fill="#ffffff" fill-rule="evenodd">
  <rect height="46.17" rx="11.08" width="50.17" x="229.14" y="340.16"/>
  <rect height="16" rx="8" width="160.02" x="173.8" y="376"/>
 </g>
<circle cx="256" stroke="#fefefe" cy="256" r="181.13" stroke-width="18.771" fill="none" /></svg>
