<svg height="512" viewBox="0 0 512 512" width="512" xmlns="http://www.w3.org/2000/svg">
 <text x="729.64" y="231.36">
  
 </text>
 <text x="1310.91" y="151.36">
  
 </text>
 <text x="239.33" y="-29.9">
  
 </text>
 <text x="1337.38" y="-246.37">
  
 </text>
 <text x="1918.65" y="-326.38">
  
 </text>
 <text x="1529.53" y="-798.78">
  
 </text>
 <text x="2110.79" y="-878.78">
  
 </text>
 <text x="277.99" y="535.94">
  
 </text>
 <text x="-307.18" y="-11.34">
  
 </text>
 <text x="438.2" y="41.8">
  
 </text>
 <text x="1337.81" y="-82.02">
  
 </text>
 <text x="465.66" y="-134.65">
  
 </text>
 <text x="1365.27" y="-258.47">
  
 </text>
 <text x="-2544.32" y="317.23">
  
 </text>
 <text x="-616.04" y="81.8">
  
 </text>
 <text x="129.34" y="134.94">
  
 </text>
 <text x="1028.95" y="11.13">
  
 </text>
 <text x="156.8" y="-41.51">
  
 </text>
 <text x="1056.42" y="-165.33">
  
 </text>
 <text x="-2853.18" y="410.37">
  
 </text>
 <text x="-1330.61" y="-35.06">
  
 </text>
 <text x="-585.23" y="18.09">
  
 </text>
 <text x="314.38" y="-105.73">
  
 </text>
 <text x="-557.77" y="-158.37">
  
 </text>
 <text x="341.85" y="-282.18">
  
 </text>
 <text x="-3567.75" y="293.52">
  
 </text>
 <path d="m471.95 253.05c0 120.9-98.01 218.9-218.9 218.9-120.9 0-218.9-98.01-218.9-218.9 0-120.9 98.01-218.9 218.9-218.9 120.9 0 218.9 98.01 218.9 218.9" fill="#b93d48" fill-rule="evenodd"/>
 <text x="729.64" y="231.36">
  
 </text>
 <text x="1310.91" y="151.36">
  
 </text>
 <text x="239.33" y="-29.9">
  
 </text>
 <text x="1337.38" y="-246.37">
  
 </text>
 <text x="1918.65" y="-326.38">
  
 </text>
 <text x="1529.53" y="-798.78">
  
 </text>
 <text x="2110.79" y="-878.78">
  
 </text>
 <text x="277.99" y="535.94">
  
 </text>
 <g fill="#ffffff">
  <path d="m376.29 154.74h-13.628c-6.576 0-14.495 4.956-17.683 10.712l-18.856 32.913c-3.803 6.862-11.03 9.983-18.875 9.983h-106.39c-7.843 0-15.07-2.973-18.87-9.835l-18.879-33.737c-3.193-5.751-11.11-10.06-17.688-10.06h-13.652c-15.887 0-27.666 13.461-27.666 29.339v143.81c0 15.887 11.779 29.348 27.666 29.348h244.5c15.882 0 31.593-13.461 31.593-29.348v-143.81c0-15.877-15.711-29.339-31.593-29.339m-193.88 135.32c-11.898 0-21.576-9.683-21.576-21.581 0-11.894 9.678-21.576 21.576-21.576s21.572 9.678 21.572 21.576-9.678 21.581-21.572 21.581m105.17-12.08c0 5.79-4.689 10.478-10.478 10.478h-47.5c-5.785 0-10.478-4.689-10.478-10.478v-19.99c0-5.79 4.694-10.483 10.478-10.483h47.5c5.79 0 10.478 4.694 10.478 10.483zm36.887 12.08c-11.898 0-21.576-9.683-21.576-21.581 0-11.894 9.673-21.576 21.576-21.576 11.889 0 21.567 9.678 21.567 21.576s-9.678 21.581-21.567 21.581"/>
  <path d="m195.08 179.35c3.193 5.761 11.11 11.131 17.688 11.131h82.56c6.581 0 14.495-5.232 17.679-10.988l7.3-13.762c3.188-5.751.438-10.988-6.142-10.988h-120.27c-6.581 0-9.33 4.951-6.142 10.712l7.31 13.895"/>
 </g>
<circle cx="256" stroke="#fefefe" cy="256" r="181.13" stroke-width="18.771" fill="none" /></svg>
