<?xml version="1.0" encoding="UTF-8" standalone="no"?>
<svg
   xmlns:dc="http://purl.org/dc/elements/1.1/"
   xmlns:cc="http://creativecommons.org/ns#"
   xmlns:rdf="http://www.w3.org/1999/02/22-rdf-syntax-ns#"
   xmlns:svg="http://www.w3.org/2000/svg"
   xmlns="http://www.w3.org/2000/svg"
   xmlns:sodipodi="http://sodipodi.sourceforge.net/DTD/sodipodi-0.dtd"
   xmlns:inkscape="http://www.inkscape.org/namespaces/inkscape"
   height="22"
   viewBox="0 0 22 22"
   width="22"
   version="1.1"
   id="svg2"
   inkscape:version="0.91 r13725"
   sodipodi:docname="gtk-disconnect.svg">
  <defs
     id="defs17" />
  <sodipodi:namedview
     pagecolor="#ffffff"
     bordercolor="#666666"
     borderopacity="1"
     objecttolerance="10"
     gridtolerance="10"
     guidetolerance="10"
     inkscape:pageopacity="0"
     inkscape:pageshadow="2"
     inkscape:window-width="1920"
     inkscape:window-height="1052"
     id="namedview15"
     showgrid="false"
     inkscape:zoom="16"
     inkscape:cx="4.796487"
     inkscape:cy="18.39515"
     inkscape:window-x="1920"
     inkscape:window-y="0"
     inkscape:window-maximized="1"
     inkscape:current-layer="svg2" />
  <metadata
     id="metadata28">
    <rdf:RDF>
      <cc:Work
         rdf:about="">
        <dc:format>image/svg+xml</dc:format>
        <dc:type
           rdf:resource="http://purl.org/dc/dcmitype/StillImage" />
        <dc:title />
      </cc:Work>
    </rdf:RDF>
  </metadata>
  <g
     id="g4141"
     transform="matrix(1.470352,0,0,1.470352,-0.76281702,-9.584929)">
    <path
       id="path6"
       d="m 14.189175,13.915453 c 0,3.46502 -2.808988,6.273722 -6.2737222,6.273722 -3.4650206,0 -6.2737221,-2.808988 -6.2737221,-6.273722 0,-3.465021 2.8089881,-6.2737223 6.2737221,-6.2737223 3.4650202,0 6.2737222,2.8089883 6.2737222,6.2737223"
       inkscape:connector-curvature="0"
       style="fill:#d5b454;fill-opacity:1;fill-rule:evenodd" />
    <path
       id="path8"
       d="m 8.0000005,6.6916444 c -4.0362188,0 -7.30835613,3.2721373 -7.30835613,7.3083566 0,4.036218 3.27213733,7.308356 7.30835613,7.308356 4.0362185,0 7.3083565,-3.272138 7.3083565,-7.308356 0,-4.0362193 -3.272138,-7.3083566 -7.3083565,-7.3083566 m 0.2529837,1.2877323 c 3.4650208,0 6.2737218,2.8087013 6.2737218,6.2737223 0,3.46502 -2.808701,6.273722 -6.2737218,6.273722 -3.4650206,0 -6.2745819,-2.808702 -6.2745819,-6.273722 0,-3.465021 2.8095613,-6.2737223 6.2745819,-6.2737223"
       inkscape:connector-curvature="0"
       style="fill-opacity:0.06700003;fill-rule:evenodd" />
    <g
       transform="matrix(0.02866022,0,0,0.02866022,0.66298415,6.6629841)"
       id="g10"
       style="fill-opacity:0.12900002;fill-rule:evenodd">
      <path
         id="path12"
         d="m 256,4.433 c -138.94,0 -251.57,112.63 -251.57,251.57 0,138.94 112.63,251.57 251.57,251.57 138.94,0 251.57,-112.63 251.57,-251.57 C 507.57,117.063 394.94,4.433 256,4.433 m 5.885,38.556 c 120.9,0 218.9,98 218.9,218.9 0,120.9 -98,218.9 -218.9,218.9 -120.9,0 -218.93,-98 -218.93,-218.9 0,-120.9 98.03,-218.9 218.93,-218.9"
         inkscape:connector-curvature="0" />
      <path
         id="path14"
         d="m 256,8.356 c -136.77,0 -247.64,110.87 -247.64,247.64 0,136.77 110.87,247.64 247.64,247.64 136.77,0 247.64,-110.87 247.64,-247.64 C 503.64,119.226 392.77,8.356 256,8.356 m 2.942,31.691 c 120.9,0 218.9,98 218.9,218.9 0,120.9 -98,218.9 -218.9,218.9 -120.9,0 -218.93,-98 -218.93,-218.9 0,-120.9 98.03,-218.9 218.93,-218.9"
         inkscape:connector-curvature="0" />
    </g>
    <path
       sodipodi:nodetypes="cccccccccc"
       d="m 9.1034881,13.710796 4.0945879,4.0875 -1.121867,1.468175 -5.5413028,-5.420976 -0.4254412,0.534191 -1.0446662,1.946953 -0.9704379,1.807815 2.8219463,2.526357 C 9.3684404,20.8338 15.269925,20.213659 14.419654,12.488817 L 11.908007,9.7707797"
       id="path4190"
       style="opacity:0.25"
       inkscape:connector-curvature="0" />
    <path
       id="path16"
       d="m 7.9151662,6.8882248 c -3.881167,0 -7.02719932,3.1463192 -7.02719932,7.0271992 0,3.881167 3.14631892,7.0272 7.02719932,7.0272 3.8811668,0 7.0271998,-3.146319 7.0271998,-7.0272 0,-3.881167 -3.146319,-7.0271992 -7.0271998,-7.0271992 z m 0,0.7536778 c 3.4650208,0 6.2737218,2.8087014 6.2737218,6.2737224 0,3.46502 -2.808701,6.273722 -6.2737218,6.273722 -3.4650206,0 -6.2745819,-2.808702 -6.2745819,-6.273722 0,-3.465021 2.8095613,-6.2737224 6.2745819,-6.2737224 z"
       inkscape:connector-curvature="0"
       style="fill:#ffffff;fill-rule:evenodd;stroke:#000000;stroke-width:0.14054972;stroke-opacity:0.31000001" />
    <path
       inkscape:connector-curvature="0"
       id="path4"
       style="color:#000000;display:inline;visibility:visible;opacity:1;fill:#ffffff;fill-opacity:1;fill-rule:nonzero;stroke:none"
       d="m 11.543873,9.4986065 c -0.0587,0 -0.114696,0.021939 -0.155879,0.063891 l -1.5630283,1.5628355 -0.7116568,0 c -0.058503,-3.85e-4 -0.1183529,0.02252 -0.1599207,0.06389 l -1.0353471,1.035348 c -0.084098,0.08237 -0.084098,0.237475 0,0.319841 l 1.2672418,1.267049 c 0.042338,0.04234 0.1000707,0.06543 0.1599207,0.06389 0.057348,-3.85e-4 0.1152738,-0.02348 0.1558794,-0.06389 l 1.039389,-1.039196 c 0.04138,-0.04138 0.06447,-0.09738 0.06389,-0.155879 l 0,-0.715506 1.559179,-1.558986 c 0.0841,-0.08237 0.0841,-0.237476 0,-0.319842 L 11.703794,9.5623054 c -0.04118,-0.041953 -0.101226,-0.063891 -0.159921,-0.063891" />
    <path
       inkscape:connector-curvature="0"
       id="path6-3"
       style="color:#000000;display:inline;visibility:visible;opacity:1;fill:#ffffff;fill-opacity:1;fill-rule:nonzero;stroke:none"
       d="m 6.4143862,13.816366 c -0.057348,3.84e-4 -0.1152738,0.02733 -0.1558794,0.06793 l -1.0393884,1.035346 c -0.041375,0.04138 -0.064469,0.101226 -0.063891,0.159921 l 0,0.711464 -1.5591789,1.562836 c -0.084098,0.08237 -0.084098,0.233434 0,0.3158 l 0.459748,0.459748 c 0.082366,0.0841 0.2334342,0.0841 0.3158001,0 l 1.5630278,-1.558986 0.7116568,0 c 0.058503,3.84e-4 0.1183529,-0.02252 0.1599207,-0.06389 L 7.8415487,15.46734 c 0.084098,-0.08237 0.084098,-0.233434 0,-0.3158 L 6.5743069,13.884491 c -0.042338,-0.04234 -0.1000707,-0.06947 -0.1599207,-0.06793 z" />
  </g>
</svg>
