<svg viewBox="0 0 512 512" xmlns="http://www.w3.org/2000/svg" xmlns:xlink="http://www.w3.org/1999/xlink">
  <linearGradient id="a" gradientUnits="userSpaceOnUse" x1="143.14" x2="356.04" y1="436.43" y2="61.02">
    <stop offset="0" stop-color="#59cdea"/>
    <stop offset=".084" stop-color="#00b2de"/>
    <stop offset=".501" stop-color="#5bcdea"/>
    <stop offset=".866" stop-color="#21bce2"/>
    <stop offset="1" stop-color="#18a7ca"/>
  </linearGradient>
  <text x="729.64" y="231.36">
    <tspan x="729.64" y="231.36"/>
  </text>
  <text transform="scale(4.0128 .2492)" x="378.91" y="579.26"/>
  <text x="1310.91" y="151.36">
    <tspan x="1310.91" y="151.36"/>
  </text>
  <text transform="scale(4.0128 .2492)" x="523.76" y="258.22"/>
  <text x="239.33" y="-29.9">
    <tspan x="239.33" y="-29.9"/>
  </text>
  <text transform="scale(4.0128 .2492)" x="256.72" y="-469.13"/>
  <text x="1337.38" y="-246.37">
    <tspan x="1337.38" y="-246.37"/>
  </text>
  <text transform="scale(4.0128 .2492)" x="530.36" y="-1337.8"/>
  <text x="1918.65" y="-326.37">
    <tspan x="1918.65" y="-326.37"/>
  </text>
  <text transform="scale(4.0128 .2492)" x="675.21" y="-1658.83"/>
  <text x="1529.53" y="-798.77">
    <tspan x="1529.53" y="-798.77"/>
  </text>
  <text transform="scale(4.0128 .2492)" x="578.24" y="-3554.48"/>
  <text x="2110.79" y="-878.78">
    <tspan x="2110.79" y="-878.78"/>
  </text>
  <text transform="scale(4.0128 .2492)" x="723.09" y="-3875.52"/>
  <text x="277.99" y="535.94">
    <tspan x="277.99" y="535.94"/>
  </text>
  <text x="729.64" y="231.36">
    <tspan x="729.64" y="231.36"/>
  </text>
  <text transform="scale(4.0128 .2492)" x="378.91" y="579.26"/>
  <text x="1310.91" y="151.36">
    <tspan x="1310.91" y="151.36"/>
  </text>
  <text transform="scale(4.0128 .2492)" x="523.76" y="258.22"/>
  <text x="239.33" y="-29.9">
    <tspan x="239.33" y="-29.9"/>
  </text>
  <text transform="scale(4.0128 .2492)" x="256.72" y="-469.13"/>
  <text x="1337.38" y="-246.37">
    <tspan x="1337.38" y="-246.37"/>
  </text>
  <text transform="scale(4.0128 .2492)" x="530.36" y="-1337.8"/>
  <text x="1918.65" y="-326.37">
    <tspan x="1918.65" y="-326.37"/>
  </text>
  <text transform="scale(4.0128 .2492)" x="675.21" y="-1658.83"/>
  <text x="1529.53" y="-798.77">
    <tspan x="1529.53" y="-798.77"/>
  </text>
  <text transform="scale(4.0128 .2492)" x="578.24" y="-3554.48"/>
  <text x="2110.79" y="-878.78">
    <tspan x="2110.79" y="-878.78"/>
  </text>
  <text transform="scale(4.0128 .2492)" x="723.09" y="-3875.52"/>
  <text x="277.99" y="535.94">
    <tspan x="277.99" y="535.94"/>
  </text>
  <text x="729.64" y="231.36">
    <tspan x="729.64" y="231.36"/>
  </text>
  <text transform="scale(4.0128 .2492)" x="378.91" y="579.26"/>
  <text x="1310.91" y="151.36">
    <tspan x="1310.91" y="151.36"/>
  </text>
  <text transform="scale(4.0128 .2492)" x="523.76" y="258.22"/>
  <text x="239.33" y="-29.9">
    <tspan x="239.33" y="-29.9"/>
  </text>
  <text transform="scale(4.0128 .2492)" x="256.72" y="-469.13"/>
  <text x="1337.38" y="-246.37">
    <tspan x="1337.38" y="-246.37"/>
  </text>
  <text transform="scale(4.0128 .2492)" x="530.36" y="-1337.8"/>
  <text x="1918.65" y="-326.37">
    <tspan x="1918.65" y="-326.37"/>
  </text>
  <text transform="scale(4.0128 .2492)" x="675.21" y="-1658.83"/>
  <text x="1529.53" y="-798.77">
    <tspan x="1529.53" y="-798.77"/>
  </text>
  <text transform="scale(4.0128 .2492)" x="578.24" y="-3554.48"/>
  <text x="2110.79" y="-878.78">
    <tspan x="2110.79" y="-878.78"/>
  </text>
  <text transform="scale(4.0128 .2492)" x="723.09" y="-3875.52"/>
  <text x="277.99" y="535.94">
    <tspan x="277.99" y="535.94"/>
  </text>
  <text x="968.53" y="-503.34">
    <tspan x="968.53" y="-503.34"/>
  </text>
  <text transform="scale(4.0128 .2492)" x="438.44" y="-2368.97"/>
  <text x="1549.8" y="-583.34">
    <tspan x="1549.8" y="-583.34"/>
  </text>
  <text transform="scale(4.0128 .2492)" x="583.29" y="-2690.01"/>
  <text x="478.22" y="-764.6">
    <tspan x="478.22" y="-764.6"/>
  </text>
  <text transform="scale(4.0128 .2492)" x="316.25" y="-3417.36"/>
  <text x="1576.27" y="-981.07">
    <tspan x="1576.27" y="-981.07"/>
  </text>
  <text transform="scale(4.0128 .2492)" x="589.89" y="-4286.02"/>
  <text x="2157.54" y="-1061.07">
    <tspan x="2157.54" y="-1061.07"/>
  </text>
  <text transform="scale(4.0128 .2492)" x="734.74" y="-4607.05"/>
  <text x="1768.42" y="-1533.47">
    <tspan x="1768.42" y="-1533.47"/>
  </text>
  <text transform="scale(4.0128 .2492)" x="637.77" y="-6502.69"/>
  <text x="2349.68" y="-1613.48">
    <tspan x="2349.68" y="-1613.48"/>
  </text>
  <text transform="scale(4.0128 .2492)" x="782.62" y="-6823.73"/>
  <text x="516.88" y="-198.76">
    <tspan x="516.88" y="-198.76"/>
  </text>
  <text x="729.64" y="231.36">
    <tspan x="729.64" y="231.36"/>
  </text>
  <text transform="scale(4.0128 .2492)" x="378.91" y="579.26"/>
  <text x="1310.91" y="151.36">
    <tspan x="1310.91" y="151.36"/>
  </text>
  <text transform="scale(4.0128 .2492)" x="523.76" y="258.22"/>
  <text x="239.33" y="-29.9">
    <tspan x="239.33" y="-29.9"/>
  </text>
  <text transform="scale(4.0128 .2492)" x="256.72" y="-469.13"/>
  <text x="1337.38" y="-246.37">
    <tspan x="1337.38" y="-246.37"/>
  </text>
  <text transform="scale(4.0128 .2492)" x="530.36" y="-1337.8"/>
  <text x="1918.65" y="-326.37">
    <tspan x="1918.65" y="-326.37"/>
  </text>
  <text transform="scale(4.0128 .2492)" x="675.21" y="-1658.83"/>
  <text x="1529.53" y="-798.77">
    <tspan x="1529.53" y="-798.77"/>
  </text>
  <text transform="scale(4.0128 .2492)" x="578.24" y="-3554.48"/>
  <text x="2110.79" y="-878.78">
    <tspan x="2110.79" y="-878.78"/>
  </text>
  <text transform="scale(4.0128 .2492)" x="723.09" y="-3875.52"/>
  <text x="277.99" y="535.94">
    <tspan x="277.99" y="535.94"/>
  </text>
  <text x="729.64" y="231.36">
    <tspan x="729.64" y="231.36"/>
  </text>
  <text transform="scale(4.0128 .2492)" x="378.91" y="579.26"/>
  <text x="1310.91" y="151.36">
    <tspan x="1310.91" y="151.36"/>
  </text>
  <text transform="scale(4.0128 .2492)" x="523.76" y="258.22"/>
  <text x="239.33" y="-29.9">
    <tspan x="239.33" y="-29.9"/>
  </text>
  <text transform="scale(4.0128 .2492)" x="256.72" y="-469.13"/>
  <text x="1337.38" y="-246.37">
    <tspan x="1337.38" y="-246.37"/>
  </text>
  <text transform="scale(4.0128 .2492)" x="530.36" y="-1337.8"/>
  <text x="1918.65" y="-326.37">
    <tspan x="1918.65" y="-326.37"/>
  </text>
  <text transform="scale(4.0128 .2492)" x="675.21" y="-1658.83"/>
  <text x="1529.53" y="-798.77">
    <tspan x="1529.53" y="-798.77"/>
  </text>
  <text transform="scale(4.0128 .2492)" x="578.24" y="-3554.48"/>
  <text x="2110.79" y="-878.78">
    <tspan x="2110.79" y="-878.78"/>
  </text>
  <text transform="scale(4.0128 .2492)" x="723.09" y="-3875.52"/>
  <text x="277.99" y="535.94">
    <tspan x="277.99" y="535.94"/>
  </text>
  <text x="729.64" y="231.36">
    <tspan x="729.64" y="231.36"/>
  </text>
  <text transform="scale(4.0128 .2492)" x="378.91" y="579.26"/>
  <text x="1310.91" y="151.36">
    <tspan x="1310.91" y="151.36"/>
  </text>
  <text transform="scale(4.0128 .2492)" x="523.76" y="258.22"/>
  <text x="239.33" y="-29.9">
    <tspan x="239.33" y="-29.9"/>
  </text>
  <text transform="scale(4.0128 .2492)" x="256.72" y="-469.13"/>
  <text x="1337.38" y="-246.37">
    <tspan x="1337.38" y="-246.37"/>
  </text>
  <text transform="scale(4.0128 .2492)" x="530.36" y="-1337.8"/>
  <text x="1918.65" y="-326.37">
    <tspan x="1918.65" y="-326.37"/>
  </text>
  <text transform="scale(4.0128 .2492)" x="675.21" y="-1658.83"/>
  <text x="1529.53" y="-798.77">
    <tspan x="1529.53" y="-798.77"/>
  </text>
  <text transform="scale(4.0128 .2492)" x="578.24" y="-3554.48"/>
  <text x="2110.79" y="-878.78">
    <tspan x="2110.79" y="-878.78"/>
  </text>
  <text transform="scale(4.0128 .2492)" x="723.09" y="-3875.52"/>
  <text x="277.99" y="535.94">
    <tspan x="277.99" y="535.94"/>
  </text>
  <path d="m471.95 253.05c0 120.9-98.01 218.9-218.9 218.9-120.9 0-218.9-98.01-218.9-218.9 0-120.9 98.01-218.9 218.9-218.9 120.9 0 218.9 98.01 218.9 218.9" fill="url(#a)" fill-rule="evenodd" stroke="#00b2de"/>
  <path d="m78.81 120.56c-5.407 7.099-10.385 14.539-14.906 22.281 12.11 15.653 24.795 30.08 38 43.28l258 258c65.58-36.756 110.31-106.29 111.99-186.42l-.016-.016c-79.981 19.376-156.12 17.575-224.72-7.25-28.57-10.339-55.91-24.68-81.74-43.27l-86.6-86.6" opacity=".25"/>
  <path d="m78.81 120.56c-5.407 7.099-10.385 14.539-14.906 22.281 49.686 64.22 108.99 107.73 174.59 131.47 71.52 25.882 150.06 28.23 231.22 9.938 1.242-8.7 1.969-17.564 2.156-26.563-79.981 19.376-156.12 17.575-224.72-7.25-63.13-22.847-120.27-65.22-168.34-129.87" fill="#ffffff"/>
  <g fill-rule="evenodd">
    <path d="m256 1c-140.83 0-255 114.17-255 255s114.17 255 255 255 255-114.17 255-255-114.17-255-255-255m8.827 44.931c120.9 0 218.9 98 218.9 218.9s-98 218.9-218.9 218.9-218.93-98-218.93-218.9 98.03-218.9 218.93-218.9" fill-opacity=".067"/>
    <g fill-opacity=".129">
      <path d="m256 4.43c-138.94 0-251.57 112.63-251.57 251.57s112.63 251.57 251.57 251.57 251.57-112.63 251.57-251.57-112.63-251.57-251.57-251.57m5.885 38.556c120.9 0 218.9 98 218.9 218.9s-98 218.9-218.9 218.9-218.93-98-218.93-218.9 98.03-218.9 218.93-218.9"/>
      <path d="m256 8.36c-136.77 0-247.64 110.87-247.64 247.64s110.87 247.64 247.64 247.64 247.64-110.87 247.64-247.64-110.87-247.64-247.64-247.64m2.942 31.691c120.9 0 218.9 98 218.9 218.9s-98 218.9-218.9 218.9-218.93-98-218.93-218.9 98.03-218.9 218.93-218.9"/>
    </g>
    <path d="m253.04 7.86c-135.42 0-245.19 109.78-245.19 245.19 0 135.42 109.78 245.19 245.19 245.19 135.42 0 245.19-109.78 245.19-245.19 0-135.42-109.78-245.19-245.19-245.19m0 26.297c120.9 0 218.9 98 218.9 218.9s-98 218.9-218.9 218.9-218.93-98-218.93-218.9 98.03-218.9 218.93-218.9z" fill="#ffffff" stroke="#000000" stroke-opacity=".31" stroke-width="4.904"/>
  </g>
  <text x="729.64" y="231.36">
    <tspan x="729.64" y="231.36"/>
  </text>
  <text transform="scale(4.0128 .2492)" x="378.91" y="579.26"/>
  <text x="1310.91" y="151.36">
    <tspan x="1310.91" y="151.36"/>
  </text>
  <text transform="scale(4.0128 .2492)" x="523.76" y="258.22"/>
  <text x="239.33" y="-29.9">
    <tspan x="239.33" y="-29.9"/>
  </text>
  <text transform="scale(4.0128 .2492)" x="256.72" y="-469.13"/>
  <text x="1337.38" y="-246.37">
    <tspan x="1337.38" y="-246.37"/>
  </text>
  <text transform="scale(4.0128 .2492)" x="530.36" y="-1337.8"/>
  <text x="1918.65" y="-326.37">
    <tspan x="1918.65" y="-326.37"/>
  </text>
  <text transform="scale(4.0128 .2492)" x="675.21" y="-1658.83"/>
  <text x="1529.53" y="-798.77">
    <tspan x="1529.53" y="-798.77"/>
  </text>
  <text transform="scale(4.0128 .2492)" x="578.24" y="-3554.48"/>
  <text x="2110.79" y="-878.78">
    <tspan x="2110.79" y="-878.78"/>
  </text>
  <text transform="scale(4.0128 .2492)" x="723.09" y="-3875.52"/>
  <text x="277.99" y="535.94">
    <tspan x="277.99" y="535.94"/>
  </text>
</svg>
