<svg viewBox="0 0 512 512" xmlns="http://www.w3.org/2000/svg">
  <path d="m471.95 253.05c0 120.9-98.01 218.9-218.9 218.9-120.9 0-218.9-98.01-218.9-218.9 0-120.9 98.01-218.9 218.9-218.9 120.9 0 218.9 98.01 218.9 218.9" fill="#1793d1" fill-rule="evenodd"/>
  <path d="m371.03 68.63l-218.72 378.81c30.16 15.662 64.42 24.5 100.75 24.5 120.89 0 218.88-97.98 218.88-218.87 0-77.45-40.21-145.52-100.91-184.44" fill="#1793d1"/>
  <g fill-rule="evenodd">
    <path d="m256 1c-140.83 0-255 114.17-255 255s114.17 255 255 255 255-114.17 255-255-114.17-255-255-255m8.827 44.931c120.9 0 218.9 98 218.9 218.9s-98 218.9-218.9 218.9-218.93-98-218.93-218.9 98.03-218.9 218.93-218.9" fill-opacity=".067"/>
    <g fill-opacity=".129">
      <path d="m256 4.433c-138.94 0-251.57 112.63-251.57 251.57s112.63 251.57 251.57 251.57 251.57-112.63 251.57-251.57-112.63-251.57-251.57-251.57m5.885 38.556c120.9 0 218.9 98 218.9 218.9s-98 218.9-218.9 218.9-218.93-98-218.93-218.9 98.03-218.9 218.93-218.9"/>
      <path d="m256 8.356c-136.77 0-247.64 110.87-247.64 247.64s110.87 247.64 247.64 247.64 247.64-110.87 247.64-247.64-110.87-247.64-247.64-247.64m2.942 31.691c120.9 0 218.9 98 218.9 218.9s-98 218.9-218.9 218.9-218.93-98-218.93-218.9 98.03-218.9 218.93-218.9"/>
    </g>
    <path d="m253.04 7.859c-135.42 0-245.19 109.78-245.19 245.19 0 135.42 109.78 245.19 245.19 245.19 135.42 0 245.19-109.78 245.19-245.19 0-135.42-109.78-245.19-245.19-245.19zm0 26.297c120.9 0 218.9 98 218.9 218.9s-98 218.9-218.9 218.9-218.93-98-218.93-218.9 98.03-218.9 218.93-218.9z" fill="#ffffff" stroke="#000000" stroke-opacity=".31" stroke-width="4.904"/>
  </g>
  <text x="729.64" y="231.36">
    <tspan x="729.64" y="231.36"/>
  </text>
  <text transform="scale(4.0128 .2492)" x="378.91" y="579.25"/>
  <text x="1310.91" y="151.36">
    <tspan x="1310.91" y="151.36"/>
  </text>
  <text transform="scale(4.0128 .2492)" x="523.76" y="258.22"/>
  <text x="239.33" y="-29.901">
    <tspan x="239.33" y="-29.901"/>
  </text>
  <text transform="scale(4.0128 .2492)" x="256.72" y="-469.14"/>
  <text x="1337.38" y="-246.37">
    <tspan x="1337.38" y="-246.37"/>
  </text>
  <text transform="scale(4.0128 .2492)" x="530.36" y="-1337.8"/>
  <text x="1918.65" y="-326.38">
    <tspan x="1918.65" y="-326.38"/>
  </text>
  <text transform="scale(4.0128 .2492)" x="675.21" y="-1658.84"/>
  <text x="1529.53" y="-798.78">
    <tspan x="1529.53" y="-798.78"/>
  </text>
  <text transform="scale(4.0128 .2492)" x="578.24" y="-3554.49"/>
  <text x="2110.79" y="-878.78">
    <tspan x="2110.79" y="-878.78"/>
  </text>
  <text transform="scale(4.0128 .2492)" x="723.09" y="-3875.52"/>
  <text x="277.99" y="535.94">
    <tspan x="277.99" y="535.94"/>
  </text>
  <text x="-26569.5" y="1377.33">
    <tspan x="-26569.5" y="1377.33"/>
  </text>
  <text transform="scale(4.0128 .2492)" x="773.15" y="-7573.02"/>
  <text x="-26704.25" y="2289.39">
    <tspan x="-26704.25" y="2289.39"/>
  </text>
  <text transform="scale(4.0128 .2492)" x="739.61" y="-3913.17"/>
  <g fill="#1793d1">
    <text transform="scale(1.05082 .95163)" x="-12267.45" y="-4757.27">
      <tspan x="-12267.45" y="-4757.27"/>
    </text>
    <text transform="scale(4.21677 .23715)" x="1481.85" y="-27131.37"/>
    <text transform="scale(1.05082 .95163)" x="-2864.61" y="-5582.29">
      <tspan x="-2864.61" y="-5582.29"/>
    </text>
    <text transform="scale(4.21677 .23715)" x="1715.95" y="-26705.24"/>
    <text x="-38904.05" y="-1736.32">
      <tspan x="-38904.05" y="-1736.32"/>
    </text>
    <text transform="scale(4.0128 .2492)" x="-2596.26" y="-19543.06"/>
  </g>
  <text stroke="#cd1d31" stroke-width="23.273" x="-24720.95" y="-13962.89">
    <tspan x="-24720.95" y="-13962.89"/>
  </text>
  <text transform="scale(4.0128 .2492)" x="1233.94" y="-69130.72"/>
  <text stroke="#cd1d31" stroke-width="23.273" x="-24855.93" y="-13050.83">
    <tspan x="-24855.93" y="-13050.83"/>
  </text>
  <text transform="scale(4.0128 .2492)" x="1200.27" y="-65470.63"/>
  <g fill="#1793d1">
    <g stroke="#cd1d31" stroke-width="23.273">
      <text transform="scale(1.05082 .95163)" x="-10508.27" y="-20877.06">
        <tspan x="-10508.27" y="-20877.06"/>
      </text>
      <text transform="scale(4.21677 .23715)" x="1920.29" y="-91818.3"/>
      <text transform="scale(1.05082 .95163)" x="-1105.66" y="-21702.08">
        <tspan x="-1105.66" y="-21702.08"/>
      </text>
      <text transform="scale(4.21677 .23715)" x="2154.18" y="-91392.18"/>
      <text x="-37055.5" y="-17076.54">
        <tspan x="-37055.5" y="-17076.54"/>
      </text>
    </g>
    <text transform="scale(4.0128 .2492)" x="-2135.7" y="-81100.75"/>
  </g>
  <text stroke="#cd1d31" stroke-width="23.273" x="-7745.12" y="-20652.4">
    <tspan x="-7745.12" y="-20652.4"/>
  </text>
  <text transform="scale(4.0128 .2492)" x="5168.41" y="-95449.94"/>
  <text stroke="#cd1d31" stroke-width="23.273" x="13191.49" y="-23534.03">
    <tspan x="13191.49" y="-23534.03"/>
  </text>
  <text transform="scale(4.0128 .2492)" x="10385.9" y="-107013.17"/>
  <g fill="#1793d1">
    <text stroke="#555753" stroke-width="23.273" x="2674.54" y="-506.69">
      <tspan x="2674.54" y="-506.69"/>
    </text>
    <text transform="scale(4.0128 .2492)" x="7764.94" y="-14609.03"/>
    <text stroke="#555753" stroke-width="23.273" x="20021.57" y="730.1">
      <tspan x="20021.57" y="730.1"/>
    </text>
    <text transform="scale(4.0128 .2492)" x="12087.82" y="-9646.15"/>
    <text stroke="#555753" stroke-width="23.273" x="40957.95" y="-2151.51">
      <tspan x="40957.95" y="-2151.51"/>
    </text>
    <text transform="scale(4.0128 .2492)" x="17305.31" y="-21209.38"/>
    <text stroke="#555753" stroke-width="23.273" x="20660.64" y="-3376.59">
      <tspan x="20660.64" y="-3376.59"/>
    </text>
    <text transform="scale(4.0128 .2492)" x="12247.24" y="-26125.02"/>
    <text stroke="#555753" stroke-width="23.273" x="41597.25" y="-6257.98">
      <tspan x="41597.25" y="-6257.98"/>
    </text>
    <text transform="scale(4.0128 .2492)" x="17464.5" y="-37688.25"/>
    <text stroke="#555753" stroke-width="23.273" x="-49389.81" y="7140.13">
      <tspan x="-49389.81" y="7140.13"/>
    </text>
    <text transform="scale(4.0128 .2492)" x="-5209.31" y="16075.9"/>
  </g>
  <path d="m277.75 102.63c-99.18 25.693-255.81 126.9-125.37 257.34l111.71 111.71c112.12-5.566 202.04-95.49 207.59-207.62l-112.04-112.04c-6.076-6.076-12.774-12.214-20.13-18.412 24.25 30.971 39.31 55.37 43.31 74.09l-105.06-105.06" opacity=".25"/>
  <path d="m277.75 102.63c-103.8 26.889-270.52 136.49-105.25 275.75-70.14-89.52-63.45-124.2 65.63-125.31-157.53-25.369-22.978-91.35 45.41-103.41l-5.781-47.03m61.75 30.969c70.14 89.58 63.45 124.22-65.62 125.28 157.53 25.416 23.03 91.38-45.41 103.44l5.781 47.06c103.8-26.937 270.52-136.54 105.25-275.78" fill="#ffffff"/>
</svg>
