<svg viewBox="0 0 512 512" xmlns="http://www.w3.org/2000/svg">
  <text x="729.64" y="231.36">
    <tspan x="729.64" y="231.36"/>
  </text>
  <text transform="scale(4.0128 .2492)" x="378.91" y="579.26"/>
  <text x="1310.91" y="151.36">
    <tspan x="1310.91" y="151.36"/>
  </text>
  <text transform="scale(4.0128 .2492)" x="523.76" y="258.22"/>
  <text x="239.33" y="-29.9">
    <tspan x="239.33" y="-29.9"/>
  </text>
  <text transform="scale(4.0128 .2492)" x="256.72" y="-469.13"/>
  <text x="1337.38" y="-246.37">
    <tspan x="1337.38" y="-246.37"/>
  </text>
  <text transform="scale(4.0128 .2492)" x="530.36" y="-1337.8"/>
  <text x="1918.65" y="-326.37">
    <tspan x="1918.65" y="-326.37"/>
  </text>
  <text transform="scale(4.0128 .2492)" x="675.21" y="-1658.83"/>
  <text x="1529.53" y="-798.77">
    <tspan x="1529.53" y="-798.77"/>
  </text>
  <text transform="scale(4.0128 .2492)" x="578.24" y="-3554.48"/>
  <text x="2110.79" y="-878.78">
    <tspan x="2110.79" y="-878.78"/>
  </text>
  <text transform="scale(4.0128 .2492)" x="723.09" y="-3875.52"/>
  <text x="277.99" y="535.94">
    <tspan x="277.99" y="535.94"/>
  </text>
  <text x="729.64" y="231.36">
    <tspan x="729.64" y="231.36"/>
  </text>
  <text transform="scale(4.0128 .2492)" x="378.91" y="579.26"/>
  <text x="1310.91" y="151.36">
    <tspan x="1310.91" y="151.36"/>
  </text>
  <text transform="scale(4.0128 .2492)" x="523.76" y="258.22"/>
  <text x="239.33" y="-29.9">
    <tspan x="239.33" y="-29.9"/>
  </text>
  <text transform="scale(4.0128 .2492)" x="256.72" y="-469.13"/>
  <text x="1337.38" y="-246.37">
    <tspan x="1337.38" y="-246.37"/>
  </text>
  <text transform="scale(4.0128 .2492)" x="530.36" y="-1337.8"/>
  <text x="1918.65" y="-326.37">
    <tspan x="1918.65" y="-326.37"/>
  </text>
  <text transform="scale(4.0128 .2492)" x="675.21" y="-1658.83"/>
  <text x="1529.53" y="-798.77">
    <tspan x="1529.53" y="-798.77"/>
  </text>
  <text transform="scale(4.0128 .2492)" x="578.24" y="-3554.48"/>
  <text x="2110.79" y="-878.78">
    <tspan x="2110.79" y="-878.78"/>
  </text>
  <text transform="scale(4.0128 .2492)" x="723.09" y="-3875.52"/>
  <text x="277.99" y="535.94">
    <tspan x="277.99" y="535.94"/>
  </text>
  <text x="1722.37" y="272.59">
    <tspan x="1722.37" y="272.59"/>
  </text>
  <text transform="scale(4.0128 .2492)" x="626.3" y="744.7"/>
  <text x="2303.64" y="192.59">
    <tspan x="2303.64" y="192.59"/>
  </text>
  <text transform="scale(4.0128 .2492)" x="771.15" y="423.67"/>
  <text x="1232.06" y="11.33">
    <tspan x="1232.06" y="11.33"/>
  </text>
  <text transform="scale(4.0128 .2492)" x="504.11" y="-303.68"/>
  <text x="2330.11" y="-205.14">
    <tspan x="2330.11" y="-205.14"/>
  </text>
  <text transform="scale(4.0128 .2492)" x="777.75" y="-1172.35"/>
  <text x="2911.38" y="-285.15">
    <tspan x="2911.38" y="-285.15"/>
  </text>
  <text transform="scale(4.0128 .2492)" x="922.6" y="-1493.39"/>
  <text x="2522.26" y="-757.55">
    <tspan x="2522.26" y="-757.55"/>
  </text>
  <text transform="scale(4.0128 .2492)" x="825.63" y="-3389.04"/>
  <text x="3103.52" y="-837.55">
    <tspan x="3103.52" y="-837.55"/>
  </text>
  <text transform="scale(4.0128 .2492)" x="970.48" y="-3710.07"/>
  <text x="1270.72" y="577.17">
    <tspan x="1270.72" y="577.17"/>
  </text>
  <text x="729.64" y="231.36">
    <tspan x="729.64" y="231.36"/>
  </text>
  <text transform="scale(4.0128 .2492)" x="378.91" y="579.25"/>
  <text x="1310.91" y="151.36">
    <tspan x="1310.91" y="151.36"/>
  </text>
  <text transform="scale(4.0128 .2492)" x="523.76" y="258.22"/>
  <text x="239.33" y="-29.901">
    <tspan x="239.33" y="-29.901"/>
  </text>
  <text transform="scale(4.0128 .2492)" x="256.72" y="-469.14"/>
  <text x="1337.38" y="-246.37">
    <tspan x="1337.38" y="-246.37"/>
  </text>
  <text transform="scale(4.0128 .2492)" x="530.36" y="-1337.8"/>
  <text x="1918.65" y="-326.38">
    <tspan x="1918.65" y="-326.38"/>
  </text>
  <text transform="scale(4.0128 .2492)" x="675.21" y="-1658.84"/>
  <text x="1529.53" y="-798.78">
    <tspan x="1529.53" y="-798.78"/>
  </text>
  <text transform="scale(4.0128 .2492)" x="578.24" y="-3554.49"/>
  <text x="2110.79" y="-878.78">
    <tspan x="2110.79" y="-878.78"/>
  </text>
  <text transform="scale(4.0128 .2492)" x="723.09" y="-3875.52"/>
  <text x="277.99" y="535.94">
    <tspan x="277.99" y="535.94"/>
  </text>
  <text x="-26569.5" y="1377.33">
    <tspan x="-26569.5" y="1377.33"/>
  </text>
  <text transform="scale(4.0128 .2492)" x="773.15" y="-7573.02"/>
  <text x="-26704.25" y="2289.39">
    <tspan x="-26704.25" y="2289.39"/>
  </text>
  <text transform="scale(4.0128 .2492)" x="739.61" y="-3913.17"/>
  <g fill="#1793d1">
    <text transform="scale(1.05082 .95163)" x="-12267.45" y="-4757.27">
      <tspan x="-12267.45" y="-4757.27"/>
    </text>
    <text transform="scale(4.21677 .23715)" x="1481.85" y="-27131.37"/>
    <text transform="scale(1.05082 .95163)" x="-2864.61" y="-5582.29">
      <tspan x="-2864.61" y="-5582.29"/>
    </text>
    <text transform="scale(4.21677 .23715)" x="1715.95" y="-26705.24"/>
    <text x="-38904.05" y="-1736.32">
      <tspan x="-38904.05" y="-1736.32"/>
    </text>
    <text transform="scale(4.0128 .2492)" x="-2596.26" y="-19543.06"/>
  </g>
  <text stroke="#cd1d31" stroke-width="23.273" x="-24720.95" y="-13962.89">
    <tspan x="-24720.95" y="-13962.89"/>
  </text>
  <text transform="scale(4.0128 .2492)" x="1233.94" y="-69130.72"/>
  <text stroke="#cd1d31" stroke-width="23.273" x="-24855.93" y="-13050.83">
    <tspan x="-24855.93" y="-13050.83"/>
  </text>
  <text transform="scale(4.0128 .2492)" x="1200.27" y="-65470.63"/>
  <g fill="#1793d1">
    <g stroke="#cd1d31" stroke-width="23.273">
      <text transform="scale(1.05082 .95163)" x="-10508.27" y="-20877.06">
        <tspan x="-10508.27" y="-20877.06"/>
      </text>
      <text transform="scale(4.21677 .23715)" x="1920.29" y="-91818.3"/>
      <text transform="scale(1.05082 .95163)" x="-1105.66" y="-21702.08">
        <tspan x="-1105.66" y="-21702.08"/>
      </text>
      <text transform="scale(4.21677 .23715)" x="2154.18" y="-91392.18"/>
      <text x="-37055.5" y="-17076.54">
        <tspan x="-37055.5" y="-17076.54"/>
      </text>
    </g>
    <text transform="scale(4.0128 .2492)" x="-2135.7" y="-81100.75"/>
  </g>
  <text stroke="#cd1d31" stroke-width="23.273" x="-7745.12" y="-20652.4">
    <tspan x="-7745.12" y="-20652.4"/>
  </text>
  <text transform="scale(4.0128 .2492)" x="5168.41" y="-95449.94"/>
  <text stroke="#cd1d31" stroke-width="23.273" x="13191.49" y="-23534.03">
    <tspan x="13191.49" y="-23534.03"/>
  </text>
  <text transform="scale(4.0128 .2492)" x="10385.9" y="-107013.17"/>
  <g fill="#1793d1">
    <text stroke="#555753" stroke-width="23.273" x="2674.54" y="-506.69">
      <tspan x="2674.54" y="-506.69"/>
    </text>
    <text transform="scale(4.0128 .2492)" x="7764.94" y="-14609.03"/>
    <text stroke="#555753" stroke-width="23.273" x="20021.57" y="730.1">
      <tspan x="20021.57" y="730.1"/>
    </text>
    <text transform="scale(4.0128 .2492)" x="12087.82" y="-9646.15"/>
    <text stroke="#555753" stroke-width="23.273" x="40957.95" y="-2151.51">
      <tspan x="40957.95" y="-2151.51"/>
    </text>
    <text transform="scale(4.0128 .2492)" x="17305.31" y="-21209.38"/>
    <text stroke="#555753" stroke-width="23.273" x="20660.64" y="-3376.59">
      <tspan x="20660.64" y="-3376.59"/>
    </text>
    <text transform="scale(4.0128 .2492)" x="12247.24" y="-26125.02"/>
    <text stroke="#555753" stroke-width="23.273" x="41597.25" y="-6257.98">
      <tspan x="41597.25" y="-6257.98"/>
    </text>
    <text transform="scale(4.0128 .2492)" x="17464.5" y="-37688.25"/>
    <text stroke="#555753" stroke-width="23.273" x="-49389.81" y="7140.13">
      <tspan x="-49389.81" y="7140.13"/>
    </text>
    <text transform="scale(4.0128 .2492)" x="-5209.31" y="16075.9"/>
  </g>
  <text x="729.64" y="231.36">
    <tspan x="729.64" y="231.36"/>
  </text>
  <text transform="scale(4.0128 .2492)" x="378.91" y="579.26"/>
  <text x="1310.91" y="151.36">
    <tspan x="1310.91" y="151.36"/>
  </text>
  <text transform="scale(4.0128 .2492)" x="523.76" y="258.22"/>
  <text x="239.33" y="-29.9">
    <tspan x="239.33" y="-29.9"/>
  </text>
  <text transform="scale(4.0128 .2492)" x="256.72" y="-469.13"/>
  <text x="1337.38" y="-246.37">
    <tspan x="1337.38" y="-246.37"/>
  </text>
  <text transform="scale(4.0128 .2492)" x="530.36" y="-1337.79"/>
  <text x="1918.65" y="-326.37">
    <tspan x="1918.65" y="-326.37"/>
  </text>
  <text transform="scale(4.0128 .2492)" x="675.21" y="-1658.82"/>
  <text x="1529.53" y="-798.77">
    <tspan x="1529.53" y="-798.77"/>
  </text>
  <text transform="scale(4.0128 .2492)" x="578.24" y="-3554.46"/>
  <text x="2110.79" y="-878.78">
    <tspan x="2110.79" y="-878.78"/>
  </text>
  <text transform="scale(4.0128 .2492)" x="723.09" y="-3875.5"/>
  <text x="277.99" y="535.94">
    <tspan x="277.99" y="535.94"/>
  </text>
  <text x="1532.35" y="177.12">
    <tspan x="1532.35" y="177.12"/>
  </text>
  <text transform="scale(4.0128 .2492)" x="578.94" y="361.61"/>
  <text x="2113.62" y="97.12">
    <tspan x="2113.62" y="97.12"/>
  </text>
  <text transform="scale(4.0128 .2492)" x="723.79" y="40.575"/>
  <text x="1042.04" y="-84.14">
    <tspan x="1042.04" y="-84.14"/>
  </text>
  <text transform="scale(4.0128 .2492)" x="456.76" y="-686.77"/>
  <text x="2140.09" y="-300.61">
    <tspan x="2140.09" y="-300.61"/>
  </text>
  <text transform="scale(4.0128 .2492)" x="730.39" y="-1555.45"/>
  <text x="2721.36" y="-380.61">
    <tspan x="2721.36" y="-380.61"/>
  </text>
  <text transform="scale(4.0128 .2492)" x="875.24" y="-1876.47"/>
  <text x="2332.24" y="-853.01">
    <tspan x="2332.24" y="-853.01"/>
  </text>
  <text transform="scale(4.0128 .2492)" x="778.27" y="-3772.13"/>
  <text x="2913.5" y="-933.02">
    <tspan x="2913.5" y="-933.02"/>
  </text>
  <text transform="scale(4.0128 .2492)" x="923.12" y="-4093.16"/>
  <text x="1080.7" y="481.7">
    <tspan x="1080.7" y="481.7"/>
  </text>
  <g fill-rule="evenodd">
    <path d="m471.95 253.05c0 120.9-98.01 218.91-218.91 218.91s-218.91-98.01-218.91-218.91 98.01-218.91 218.91-218.91 218.91 98.01 218.91 218.91" fill="#1793d1"/>
    <path d="m256 1c-140.83 0-255 114.17-255 255s114.17 255 255 255 255-114.17 255-255-114.17-255-255-255m8.827 44.931c120.9 0 218.9 98 218.9 218.9s-98 218.9-218.9 218.9-218.93-98-218.93-218.9 98.03-218.9 218.93-218.9" fill-opacity=".067"/>
    <g fill-opacity=".129">
      <path d="m256 4.43c-138.94 0-251.57 112.63-251.57 251.57s112.63 251.57 251.57 251.57 251.57-112.63 251.57-251.57-112.63-251.57-251.57-251.57m5.885 38.556c120.9 0 218.9 98 218.9 218.9s-98 218.9-218.9 218.9-218.93-98-218.93-218.9 98.03-218.9 218.93-218.9"/>
      <path d="m256 8.36c-136.77 0-247.64 110.87-247.64 247.64s110.87 247.64 247.64 247.64 247.64-110.87 247.64-247.64-110.87-247.64-247.64-247.64m2.942 31.691c120.9 0 218.9 98 218.9 218.9s-98 218.9-218.9 218.9-218.93-98-218.93-218.9 98.03-218.9 218.93-218.9"/>
    </g>
    <path d="m253.04 7.86c-135.42 0-245.19 109.78-245.19 245.19 0 135.42 109.78 245.19 245.19 245.19 135.42 0 245.19-109.78 245.19-245.19 0-135.42-109.78-245.19-245.19-245.19m0 26.297c120.9 0 218.9 98 218.9 218.9s-98 218.9-218.9 218.9-218.93-98-218.93-218.9 98.03-218.9 218.93-218.9z" fill="#ffffff" stroke="#000000" stroke-opacity=".31" stroke-width="4.904"/>
  </g>
  <text x="729.64" y="231.36">
    <tspan x="729.64" y="231.36"/>
  </text>
  <text transform="scale(4.0128 .2492)" x="378.91" y="579.26"/>
  <text x="1310.91" y="151.36">
    <tspan x="1310.91" y="151.36"/>
  </text>
  <text transform="scale(4.0128 .2492)" x="523.76" y="258.22"/>
  <text x="239.33" y="-29.9">
    <tspan x="239.33" y="-29.9"/>
  </text>
  <text transform="scale(4.0128 .2492)" x="256.72" y="-469.13"/>
  <text x="1337.38" y="-246.37">
    <tspan x="1337.38" y="-246.37"/>
  </text>
  <text transform="scale(4.0128 .2492)" x="530.36" y="-1337.79"/>
  <text x="1918.65" y="-326.37">
    <tspan x="1918.65" y="-326.37"/>
  </text>
  <text transform="scale(4.0128 .2492)" x="675.21" y="-1658.82"/>
  <text x="1529.53" y="-798.77">
    <tspan x="1529.53" y="-798.77"/>
  </text>
  <text transform="scale(4.0128 .2492)" x="578.24" y="-3554.46"/>
  <text x="2110.79" y="-878.78">
    <tspan x="2110.79" y="-878.78"/>
  </text>
  <text transform="scale(4.0128 .2492)" x="723.09" y="-3875.5"/>
  <text x="277.99" y="535.94">
    <tspan x="277.99" y="535.94"/>
  </text>
  <path d="m240.01 92.01l46.596 46.598c.004.006.009.012.014.018l-46.607-46.607c7.302 62.28-51.725 67.44-78.69 125.87-10.34 22.404-3.193 39.639 9.547 52.38l31.16 31.16-7.229 12.932 78.52 78.52-.004.004-78.53-78.53h-47.25l102.79 102.79-.002.002-102.79-102.79 100.09 105.63 47.844 47.844c83.91-16.484 150.61-80.897 170.43-163.56l-137.75-137.75c-.418-.418-.645-.635-.645-.635l-.006-.004c.639 3.921.996 7.531 1.129 10.867l-63.07-63.07c-13.814-13.814-25.563-21.678-25.563-21.678" opacity=".25"/>
  <path d="m240.01 92.02c7.302 62.28-51.726 67.44-78.69 125.87-16.399 35.532 11.187 58.07 35.31 70.28 16.18-28.909 32.38-57.811 48.563-86.72l2.406-4.313c18.315 32.717 36.656 65.41 54.969 98.13 40.24-10.781 61.46-39.34 61.875-60.5.635-32.707-36.938-68.875-36.938-68.875 6.997 42.933-19.06 49.41-19.06 49.41 9.118-71.37-68.44-123.28-68.44-123.28m7.625 127.78l-52.844 94.56h-47.25l100.09 105.63 100.09-105.62h-47.28l-52.813-94.56" fill="#ffffff"/>
</svg>
