<svg viewBox="0 0 512 512" xmlns="http://www.w3.org/2000/svg">
  <path d="m471.95 253.05c0 120.9-98.01 218.91-218.91 218.91s-218.91-98.01-218.91-218.91 98.01-218.91 218.91-218.91 218.91 98.01 218.91 218.91" fill="#1793d1" fill-rule="evenodd"/>
  <path d="m233.17 108.46c.519 11.558-1.558 24.915-3.539 36.35-2.403 13.164-7.596 32.414-5.664 45.38 3.164 21.412 17.922 30.19 29.769 45.38-12.08-.99-20.808-3.345-31.798-8.587-8.07-3.865-16.04-8.345-22.547-14.528-29.576-28.21-21.702-68.826-12.971-104.07 2.355-9.674 8.345-34.15 7.79-43.26-.942-14.251-8.309-24.625-15.422-36.35 37.37 4.01 53.11 46.798 54.44 79.54" fill="#1793d1"/>
  <path d="m343.55 113.03c-10 15.664-24.721 28.11-39.866 38.585-15.941 10.99-33.876 21.509-40.759 40.904-4.203 12.403-2.355 25.989 0 38.586-11.98-6.835-17.693-21.279-21.13-34.06-1.884-6.932-4.106-20.14-3.732-27.27 2.693-58.5 62.884-71 92.8-100.1 12.318-12.03 16.847-23.876 18.26-40.711 19.999 22.692 9.01 61.28-5.567 84.07" fill="#1793d1"/>
  <g fill="#1793d1">
    <path d="m135.59 142.37c43.875 37.788 41.28 111.24 106.86 100.1-13.961 21.702-66.1 20.241-86.42 8.02-35.989-21.702-43.682-78.13-64.49-103.32-9.77-11.751-19.673-15.241-33.16-20.519 23.16-14.999 58.4-.374 77.09 15.712"/>
    <path d="m445.07 169.41c-30.808 33.36-70.903 29.818-111.81 29.914-18.538.048-29.2 1.981-42.74 16.09-6.836 7.174-10.519 16.847-18.586 22.499 0-14.347.326-22.27 4.625-36.35 2.548-8.345 5.712-15.567 10.809-22.692 29.528-41.52 80.15-27.17 123.08-27.27 25.712-.048 31.605-4.807 50.01-22.837 4.625 13.961-6.183 30.566-15.374 40.518"/>
  </g>
  <path d="m294.64 230.87c8.816-5.193 17.17-8.816 27.27-11.04 41.895-9.203 66.05 18.49 93.08 45.34 10.76 10.712 26.18 25.808 40.904 30.385 9.903 3.116 17.17 2.548 27.22 1.413-8.261 14.299-27.644 18.441-43.21 19.721-35.615 2.826-65.855-21.18-90.82-43.21-9.529-8.345-17.499-17.27-29.528-22.12-18.828-7.548-32.27-.145-50.01 4.577 6.606-12.27 12.971-18.26 24.999-25.24" fill="#1793d1"/>
  <g fill="#1793d1">
    <path d="m65.26 254.37c32.366-10.289 62.932-2.778 93.12 10.519 12.403 5.471 24.673 12.644 38.585 13.49 18.635 1.039 31.557-13.731 47.691-19.999-4.384 12.644-8.587 21.18-17.08 31.798-5.664 7.125-11.606 12.318-19.25 17.27-33.924 21.932-72.27 5.05-104.44-11.04-11.28-5.567-30.856-15.76-43.21-16.702-10.05-.797-22.547 4.529-31.798 8.212 4.251-17.318 19.903-28.356 36.35-33.537"/>
    <path d="m290.1 258.38c11.04.145 19.11 1.558 29.528 5.616 6.703 2.645 14.77 6.703 20.422 11.183 40.566 32.22 19.903 88.74 30.711 130.86 4.154 16.461 14.48 23.357 23.828 36.35-52.643-1.184-76.99-56.13-77.27-102.18-.048-13.635-.374-30.385-5.616-43.21-4.154-10.1-12.838-19.48-21.605-25.808-6.884-4.903-12.971-5.761-18.212-12.789h18.212"/>
  </g>
  <path d="m260.57 303.8c-.145 9.625-.942 15.809-4.01 24.999-18.16 55.01-85.02 48.26-120.89 65.63-17.837 8.78-20.241 19.673-31.798 32.03-2.741-46.33 18.26-74.73 61.33-92.09 34.479-13.913 67.981-9.299 83.03-51 2.596-7.27 2.874-10.664 3.297-18.212 10.289 11.135 9.203 24.274 9.06 38.586" fill="#1793d1"/>
  <path d="m291.66 285.65c5.423 6.413 10.942 14.903 14.154 22.692 22.318 54.59-29.951 91.19-47.559 136.29-6.316 15.941-2.874 22.741 0 38.586-38.02-18.212-29.914-80.06-15.1-111.34l13.345-22.692c7.222-11.606 16.883-24.915 18.912-38.586 2.307-16.412-7.5-31.653-14.77-45.43 13.78 2.826 22.08 9.818 30.953 20.47" fill="#1793d1"/>
  <g fill-rule="evenodd">
    <path d="m256 1c-140.83 0-255 114.17-255 255s114.17 255 255 255 255-114.17 255-255-114.17-255-255-255m8.827 44.931c120.9 0 218.9 98 218.9 218.9s-98 218.9-218.9 218.9-218.93-98-218.93-218.9 98.03-218.9 218.93-218.9" fill-opacity=".067"/>
    <g fill-opacity=".129">
      <path d="m256 4.43c-138.94 0-251.57 112.63-251.57 251.57s112.63 251.57 251.57 251.57 251.57-112.63 251.57-251.57-112.63-251.57-251.57-251.57m5.885 38.556c120.9 0 218.9 98 218.9 218.9s-98 218.9-218.9 218.9-218.93-98-218.93-218.9 98.03-218.9 218.93-218.9"/>
      <path d="m256 8.36c-136.77 0-247.64 110.87-247.64 247.64s110.87 247.64 247.64 247.64 247.64-110.87 247.64-247.64-110.87-247.64-247.64-247.64m2.942 31.691c120.9 0 218.9 98 218.9 218.9s-98 218.9-218.9 218.9-218.93-98-218.93-218.9 98.03-218.9 218.93-218.9"/>
    </g>
    <path d="m253.04 7.86c-135.42 0-245.19 109.78-245.19 245.19 0 135.42 109.78 245.19 245.19 245.19 135.42 0 245.19-109.78 245.19-245.19 0-135.42-109.78-245.19-245.19-245.19zm0 26.297c120.9 0 218.9 98 218.9 218.9s-98 218.9-218.9 218.9-218.93-98-218.93-218.9 98.03-218.9 218.93-218.9z" fill="#ffffff" stroke="#000000" stroke-opacity=".31" stroke-width="4.904"/>
  </g>
  <text x="729.64" y="231.36">
    <tspan x="729.64" y="231.36"/>
  </text>
  <text transform="scale(4.0128 .2492)" x="378.91" y="579.26"/>
  <text x="1310.91" y="151.36">
    <tspan x="1310.91" y="151.36"/>
  </text>
  <text transform="scale(4.0128 .2492)" x="523.76" y="258.22"/>
  <text x="239.33" y="-29.9">
    <tspan x="239.33" y="-29.9"/>
  </text>
  <text transform="scale(4.0128 .2492)" x="256.72" y="-469.13"/>
  <text x="1337.38" y="-246.37">
    <tspan x="1337.38" y="-246.37"/>
  </text>
  <text transform="scale(4.0128 .2492)" x="530.36" y="-1337.8"/>
  <text x="1918.65" y="-326.37">
    <tspan x="1918.65" y="-326.37"/>
  </text>
  <text transform="scale(4.0128 .2492)" x="675.21" y="-1658.83"/>
  <text x="1529.53" y="-798.77">
    <tspan x="1529.53" y="-798.77"/>
  </text>
  <text transform="scale(4.0128 .2492)" x="578.24" y="-3554.48"/>
  <text x="2110.79" y="-878.78">
    <tspan x="2110.79" y="-878.78"/>
  </text>
  <text transform="scale(4.0128 .2492)" x="723.09" y="-3875.52"/>
  <text x="277.99" y="535.94">
    <tspan x="277.99" y="535.94"/>
  </text>
  <text x="1722.37" y="272.59">
    <tspan x="1722.37" y="272.59"/>
  </text>
  <text transform="scale(4.0128 .2492)" x="626.3" y="744.7"/>
  <text x="2303.64" y="192.59">
    <tspan x="2303.64" y="192.59"/>
  </text>
  <text transform="scale(4.0128 .2492)" x="771.15" y="423.67"/>
  <text x="1232.06" y="11.33">
    <tspan x="1232.06" y="11.33"/>
  </text>
  <text transform="scale(4.0128 .2492)" x="504.11" y="-303.68"/>
  <text x="2330.11" y="-205.14">
    <tspan x="2330.11" y="-205.14"/>
  </text>
  <text transform="scale(4.0128 .2492)" x="777.75" y="-1172.35"/>
  <text x="2911.38" y="-285.15">
    <tspan x="2911.38" y="-285.15"/>
  </text>
  <text transform="scale(4.0128 .2492)" x="922.6" y="-1493.39"/>
  <text x="2522.26" y="-757.55">
    <tspan x="2522.26" y="-757.55"/>
  </text>
  <text transform="scale(4.0128 .2492)" x="825.63" y="-3389.04"/>
  <text x="3103.52" y="-837.55">
    <tspan x="3103.52" y="-837.55"/>
  </text>
  <text transform="scale(4.0128 .2492)" x="970.48" y="-3710.07"/>
  <text x="1270.72" y="577.17">
    <tspan x="1270.72" y="577.17"/>
  </text>
  <text x="729.64" y="231.36">
    <tspan x="729.64" y="231.36"/>
  </text>
  <text transform="scale(4.0128 .2492)" x="378.91" y="579.25"/>
  <text x="1310.91" y="151.36">
    <tspan x="1310.91" y="151.36"/>
  </text>
  <text transform="scale(4.0128 .2492)" x="523.76" y="258.22"/>
  <text x="239.33" y="-29.901">
    <tspan x="239.33" y="-29.901"/>
  </text>
  <text transform="scale(4.0128 .2492)" x="256.72" y="-469.14"/>
  <text x="1337.38" y="-246.37">
    <tspan x="1337.38" y="-246.37"/>
  </text>
  <text transform="scale(4.0128 .2492)" x="530.36" y="-1337.8"/>
  <text x="1918.65" y="-326.38">
    <tspan x="1918.65" y="-326.38"/>
  </text>
  <text transform="scale(4.0128 .2492)" x="675.21" y="-1658.84"/>
  <text x="1529.53" y="-798.78">
    <tspan x="1529.53" y="-798.78"/>
  </text>
  <text transform="scale(4.0128 .2492)" x="578.24" y="-3554.49"/>
  <text x="2110.79" y="-878.78">
    <tspan x="2110.79" y="-878.78"/>
  </text>
  <text transform="scale(4.0128 .2492)" x="723.09" y="-3875.52"/>
  <text x="277.99" y="535.94">
    <tspan x="277.99" y="535.94"/>
  </text>
  <text x="-26569.5" y="1377.33">
    <tspan x="-26569.5" y="1377.33"/>
  </text>
  <text transform="scale(4.0128 .2492)" x="773.15" y="-7573.02"/>
  <text x="-26704.25" y="2289.39">
    <tspan x="-26704.25" y="2289.39"/>
  </text>
  <text transform="scale(4.0128 .2492)" x="739.61" y="-3913.17"/>
  <g fill="#1793d1">
    <text transform="scale(1.05082 .95163)" x="-12267.45" y="-4757.27">
      <tspan x="-12267.45" y="-4757.27"/>
    </text>
    <text transform="scale(4.21677 .23715)" x="1481.85" y="-27131.37"/>
    <text transform="scale(1.05082 .95163)" x="-2864.61" y="-5582.29">
      <tspan x="-2864.61" y="-5582.29"/>
    </text>
    <text transform="scale(4.21677 .23715)" x="1715.95" y="-26705.24"/>
    <text x="-38904.05" y="-1736.32">
      <tspan x="-38904.05" y="-1736.32"/>
    </text>
    <text transform="scale(4.0128 .2492)" x="-2596.26" y="-19543.06"/>
  </g>
  <text stroke="#cd1d31" stroke-width="23.273" x="-24720.95" y="-13962.89">
    <tspan x="-24720.95" y="-13962.89"/>
  </text>
  <text transform="scale(4.0128 .2492)" x="1233.94" y="-69130.72"/>
  <text stroke="#cd1d31" stroke-width="23.273" x="-24855.93" y="-13050.83">
    <tspan x="-24855.93" y="-13050.83"/>
  </text>
  <text transform="scale(4.0128 .2492)" x="1200.27" y="-65470.63"/>
  <g fill="#1793d1">
    <g stroke="#cd1d31" stroke-width="23.273">
      <text transform="scale(1.05082 .95163)" x="-10508.27" y="-20877.06">
        <tspan x="-10508.27" y="-20877.06"/>
      </text>
      <text transform="scale(4.21677 .23715)" x="1920.29" y="-91818.3"/>
      <text transform="scale(1.05082 .95163)" x="-1105.66" y="-21702.08">
        <tspan x="-1105.66" y="-21702.08"/>
      </text>
      <text transform="scale(4.21677 .23715)" x="2154.18" y="-91392.18"/>
      <text x="-37055.5" y="-17076.54">
        <tspan x="-37055.5" y="-17076.54"/>
      </text>
    </g>
    <text transform="scale(4.0128 .2492)" x="-2135.7" y="-81100.75"/>
  </g>
  <text stroke="#cd1d31" stroke-width="23.273" x="-7745.12" y="-20652.4">
    <tspan x="-7745.12" y="-20652.4"/>
  </text>
  <text transform="scale(4.0128 .2492)" x="5168.41" y="-95449.94"/>
  <text stroke="#cd1d31" stroke-width="23.273" x="13191.49" y="-23534.03">
    <tspan x="13191.49" y="-23534.03"/>
  </text>
  <text transform="scale(4.0128 .2492)" x="10385.9" y="-107013.17"/>
  <g fill="#1793d1">
    <text stroke="#555753" stroke-width="23.273" x="2674.54" y="-506.69">
      <tspan x="2674.54" y="-506.69"/>
    </text>
    <text transform="scale(4.0128 .2492)" x="7764.94" y="-14609.03"/>
    <text stroke="#555753" stroke-width="23.273" x="20021.57" y="730.1">
      <tspan x="20021.57" y="730.1"/>
    </text>
    <text transform="scale(4.0128 .2492)" x="12087.82" y="-9646.15"/>
    <text stroke="#555753" stroke-width="23.273" x="40957.95" y="-2151.51">
      <tspan x="40957.95" y="-2151.51"/>
    </text>
    <text transform="scale(4.0128 .2492)" x="17305.31" y="-21209.38"/>
    <text stroke="#555753" stroke-width="23.273" x="20660.64" y="-3376.59">
      <tspan x="20660.64" y="-3376.59"/>
    </text>
    <text transform="scale(4.0128 .2492)" x="12247.24" y="-26125.02"/>
    <text stroke="#555753" stroke-width="23.273" x="41597.25" y="-6257.98">
      <tspan x="41597.25" y="-6257.98"/>
    </text>
    <text transform="scale(4.0128 .2492)" x="17464.5" y="-37688.25"/>
    <text stroke="#555753" stroke-width="23.273" x="-49389.81" y="7140.13">
      <tspan x="-49389.81" y="7140.13"/>
    </text>
    <text transform="scale(4.0128 .2492)" x="-5209.31" y="16075.9"/>
  </g>
  <text x="729.64" y="231.36">
    <tspan x="729.64" y="231.36"/>
  </text>
  <text transform="scale(4.0128 .2492)" x="378.91" y="579.26"/>
  <text x="1310.91" y="151.36">
    <tspan x="1310.91" y="151.36"/>
  </text>
  <text transform="scale(4.0128 .2492)" x="523.76" y="258.22"/>
  <text x="239.33" y="-29.9">
    <tspan x="239.33" y="-29.9"/>
  </text>
  <text transform="scale(4.0128 .2492)" x="256.72" y="-469.13"/>
  <text x="1337.38" y="-246.37">
    <tspan x="1337.38" y="-246.37"/>
  </text>
  <text transform="scale(4.0128 .2492)" x="530.36" y="-1337.79"/>
  <text x="1918.65" y="-326.37">
    <tspan x="1918.65" y="-326.37"/>
  </text>
  <text transform="scale(4.0128 .2492)" x="675.21" y="-1658.82"/>
  <text x="1529.53" y="-798.77">
    <tspan x="1529.53" y="-798.77"/>
  </text>
  <text transform="scale(4.0128 .2492)" x="578.24" y="-3554.46"/>
  <text x="2110.79" y="-878.78">
    <tspan x="2110.79" y="-878.78"/>
  </text>
  <text transform="scale(4.0128 .2492)" x="723.09" y="-3875.5"/>
  <text x="277.99" y="535.94">
    <tspan x="277.99" y="535.94"/>
  </text>
  <text x="1532.35" y="177.12">
    <tspan x="1532.35" y="177.12"/>
  </text>
  <text transform="scale(4.0128 .2492)" x="578.94" y="361.61"/>
  <text x="2113.62" y="97.12">
    <tspan x="2113.62" y="97.12"/>
  </text>
  <text transform="scale(4.0128 .2492)" x="723.79" y="40.575"/>
  <text x="1042.04" y="-84.14">
    <tspan x="1042.04" y="-84.14"/>
  </text>
  <text transform="scale(4.0128 .2492)" x="456.76" y="-686.77"/>
  <text x="2140.09" y="-300.61">
    <tspan x="2140.09" y="-300.61"/>
  </text>
  <text transform="scale(4.0128 .2492)" x="730.39" y="-1555.45"/>
  <text x="2721.36" y="-380.61">
    <tspan x="2721.36" y="-380.61"/>
  </text>
  <text transform="scale(4.0128 .2492)" x="875.24" y="-1876.47"/>
  <text x="2332.24" y="-853.01">
    <tspan x="2332.24" y="-853.01"/>
  </text>
  <text transform="scale(4.0128 .2492)" x="778.27" y="-3772.13"/>
  <text x="2913.5" y="-933.02">
    <tspan x="2913.5" y="-933.02"/>
  </text>
  <text transform="scale(4.0128 .2492)" x="923.12" y="-4093.16"/>
  <text x="1080.7" y="481.7">
    <tspan x="1080.7" y="481.7"/>
  </text>
  <text x="1662.54" y="-78.71">
    <tspan x="1662.54" y="-78.71"/>
  </text>
  <text transform="scale(4.0128 .2492)" x="611.39" y="-664.99"/>
  <text x="2243.81" y="-158.71">
    <tspan x="2243.81" y="-158.71"/>
  </text>
  <text transform="scale(4.0128 .2492)" x="756.24" y="-986.03"/>
  <text x="1172.23" y="-339.97">
    <tspan x="1172.23" y="-339.97"/>
  </text>
  <text transform="scale(4.0128 .2492)" x="489.2" y="-1713.38"/>
  <text x="2270.28" y="-556.44">
    <tspan x="2270.28" y="-556.44"/>
  </text>
  <text transform="scale(4.0128 .2492)" x="762.84" y="-2582.05"/>
  <text x="2851.55" y="-636.44">
    <tspan x="2851.55" y="-636.44"/>
  </text>
  <text transform="scale(4.0128 .2492)" x="907.69" y="-2903.08"/>
  <text x="2462.43" y="-1108.84">
    <tspan x="2462.43" y="-1108.84"/>
  </text>
  <text transform="scale(4.0128 .2492)" x="810.72" y="-4798.73"/>
  <text x="3043.69" y="-1188.85">
    <tspan x="3043.69" y="-1188.85"/>
  </text>
  <text transform="scale(4.0128 .2492)" x="955.57" y="-5119.77"/>
  <text x="1210.89" y="225.87">
    <tspan x="1210.89" y="225.87"/>
  </text>
  <text x="1901.43" y="-813.41">
    <tspan x="1901.43" y="-813.41"/>
  </text>
  <text transform="scale(4.0128 .2492)" x="670.92" y="-3613.22"/>
  <text x="2482.7" y="-893.41">
    <tspan x="2482.7" y="-893.41"/>
  </text>
  <text transform="scale(4.0128 .2492)" x="815.77" y="-3934.26"/>
  <text x="1411.12" y="-1074.67">
    <tspan x="1411.12" y="-1074.67"/>
  </text>
  <text transform="scale(4.0128 .2492)" x="548.73" y="-4661.61"/>
  <text x="2509.17" y="-1291.14">
    <tspan x="2509.17" y="-1291.14"/>
  </text>
  <text transform="scale(4.0128 .2492)" x="822.37" y="-5530.27"/>
  <text x="3090.44" y="-1371.14">
    <tspan x="3090.44" y="-1371.14"/>
  </text>
  <text transform="scale(4.0128 .2492)" x="967.22" y="-5851.3"/>
  <text x="2701.32" y="-1843.54">
    <tspan x="2701.32" y="-1843.54"/>
  </text>
  <text transform="scale(4.0128 .2492)" x="870.25" y="-7746.94"/>
  <text x="3282.58" y="-1923.55">
    <tspan x="3282.58" y="-1923.55"/>
  </text>
  <text transform="scale(4.0128 .2492)" x="1015.1" y="-8067.98"/>
  <text x="1449.78" y="-508.83">
    <tspan x="1449.78" y="-508.83"/>
  </text>
  <g fill-rule="evenodd">
    <path d="m158.86 112.36c-.882-.02-1.567.098-2.033.367-9.953 5.75-9.924 131.79-9.924 143.28 0 11.302-.024 133.43 9.443 142.9l71.63 71.63c8.226.938 16.587 1.438 25.06 1.438 100.17 0 184.61-67.27 210.63-159.1l-62.39-62.39c-19.14-19.14-106.56-69.6-115.42-74.71-9.481-5.472-109.07-62.999-127.01-63.4" opacity=".25"/>
    <path d="m404.98 256c0 11.488-109.16 74.49-119.11 80.23-9.949 5.742-119.09 68.785-129.04 63.04-9.949-5.746-9.925-131.78-9.925-143.28 0-11.488-.028-137.52 9.925-143.28 9.949-5.746 119.09 57.3 129.04 63.04 9.949 5.746 119.11 68.74 119.11 80.23" fill="#ffffff"/>
  </g>
</svg>
