<svg height="512" viewBox="0 0 512 512" width="512" xmlns="http://www.w3.org/2000/svg">
  <g fill-rule="evenodd">
    <path d="m471.95 253.05c0 120.9-98.01 218.9-218.9 218.9-120.9 0-218.9-98.01-218.9-218.9 0-120.9 98.01-218.9 218.9-218.9 120.9 0 218.9 98.01 218.9 218.9" fill="#1793d1"/>
    <path d="m249.56 101.13c-72.82.29-139.46 60.02-147.22 132.59-5.602 42.11 7.57 86.25 35.469 118.31l-29.813 51.47c39.17 37.627 42.856 41.12 47.16 45.41 29.453 14.747 62.695 23.06 97.88 23.06 119.55 0 216.73-95.86 218.88-214.91-39.683-39.761-79.42-79.46-119.47-118.84-27.26-23.789-63.22-37.22-99.41-37.06-1.159-.026-2.313-.036-3.469-.031" fill-opacity=".235"/>
    <path d="m253.03 101.16c-83.89 0-151.91 68.01-151.91 151.91 0 37.808 13.833 72.38 36.688 98.97l-29.813 51.47h124.03c6.867.95 13.872 1.469 21 1.469 83.89 0 151.91-68.01 151.91-151.91 0-83.89-68.01-151.91-151.91-151.91m-89.47 123.03c17.574 0 31.813 14.239 31.813 31.813s-14.239 31.813-31.813 31.813-31.813-14.239-31.813-31.813 14.239-31.813 31.813-31.813m92.44 0c17.574 0 31.813 14.239 31.813 31.813s-14.239 31.813-31.813 31.813-31.813-14.239-31.813-31.813 14.239-31.813 31.813-31.813m92.44 0c17.574 0 31.813 14.239 31.813 31.813s-14.239 31.813-31.813 31.813-31.813-14.239-31.813-31.813 14.239-31.813 31.813-31.813" fill="#ffffff"/>
    <path d="m256 1c-140.83 0-255 114.17-255 255s114.17 255 255 255 255-114.17 255-255-114.17-255-255-255m8.827 44.931c120.9 0 218.9 98 218.9 218.9s-98 218.9-218.9 218.9-218.93-98-218.93-218.9 98.03-218.9 218.93-218.9" fill-opacity=".067"/>
    <g fill-opacity=".129">
      <path d="m256 4.433c-138.94 0-251.57 112.63-251.57 251.57s112.63 251.57 251.57 251.57 251.57-112.63 251.57-251.57-112.63-251.57-251.57-251.57m5.885 38.556c120.9 0 218.9 98 218.9 218.9s-98 218.9-218.9 218.9-218.93-98-218.93-218.9 98.03-218.9 218.93-218.9"/>
      <path d="m256 8.356c-136.77 0-247.64 110.87-247.64 247.64s110.87 247.64 247.64 247.64 247.64-110.87 247.64-247.64-110.87-247.64-247.64-247.64m2.942 31.691c120.9 0 218.9 98 218.9 218.9s-98 218.9-218.9 218.9-218.93-98-218.93-218.9 98.03-218.9 218.93-218.9"/>
    </g>
    <path d="m253.04 7.859c-135.42 0-245.19 109.78-245.19 245.19 0 135.42 109.78 245.19 245.19 245.19 135.42 0 245.19-109.78 245.19-245.19 0-135.42-109.78-245.19-245.19-245.19zm0 26.297c120.9 0 218.9 98 218.9 218.9s-98 218.9-218.9 218.9-218.93-98-218.93-218.9 98.03-218.9 218.93-218.9z" fill="#ffffff" stroke="#000000" stroke-opacity=".31" stroke-width="4.904"/>
  </g>
  <text x="729.64" y="231.36">
    <tspan x="729.64" y="231.36"/>
  </text>
  <text transform="scale(4.0128 .2492)" x="378.91" y="579.25"/>
  <text x="1310.91" y="151.36">
    <tspan x="1310.91" y="151.36"/>
  </text>
  <text transform="scale(4.0128 .2492)" x="523.76" y="258.22"/>
  <text x="239.33" y="-29.901">
    <tspan x="239.33" y="-29.901"/>
  </text>
  <text transform="scale(4.0128 .2492)" x="256.72" y="-469.14"/>
  <text x="1337.38" y="-246.37">
    <tspan x="1337.38" y="-246.37"/>
  </text>
  <text transform="scale(4.0128 .2492)" x="530.36" y="-1337.81"/>
  <text x="1918.65" y="-326.38">
    <tspan x="1918.65" y="-326.38"/>
  </text>
  <text transform="scale(4.0128 .2492)" x="675.21" y="-1658.85"/>
  <text x="1529.53" y="-798.78">
    <tspan x="1529.53" y="-798.78"/>
  </text>
  <text transform="scale(4.0128 .2492)" x="578.24" y="-3554.51"/>
  <text x="2110.79" y="-878.78">
    <tspan x="2110.79" y="-878.78"/>
  </text>
  <text transform="scale(4.0128 .2492)" x="723.09" y="-3875.54"/>
  <text x="277.99" y="535.94">
    <tspan x="277.99" y="535.94"/>
  </text>
  <text x="-1771.42" y="413.27">
    <tspan x="-1771.42" y="413.27"/>
  </text>
  <text transform="scale(4.0128 .2492)" x="-123.71" y="1095.49"/>
  <text x="-1213.24" y="859.18">
    <tspan x="-1213.24" y="859.18"/>
  </text>
  <text transform="scale(4.0128 .2492)" x="15.386" y="2884.85"/>
  <text x="875.45" y="621.66">
    <tspan x="875.45" y="621.66"/>
  </text>
  <text x="-1886.19" y="424.14">
    <tspan x="-1886.19" y="424.14"/>
  </text>
  <text transform="scale(4.0128 .2492)" x="-152.31" y="1139.13"/>
  <text x="-1179.85" y="268.51">
    <tspan x="-1179.85" y="268.51"/>
  </text>
  <text transform="scale(4.0128 .2492)" x="23.707" y="514.61"/>
  <text x="-1146.48" y="260.39">
    <tspan x="-1146.48" y="260.39"/>
  </text>
  <text transform="scale(4.0128 .2492)" x="32.02" y="482.01"/>
  <text x="-1768.19" y="293.31">
    <tspan x="-1768.19" y="293.31"/>
  </text>
  <text transform="scale(4.0128 .2492)" x="-122.91" y="614.13"/>
</svg>
