<svg viewBox="0 0 512 512" xmlns="http://www.w3.org/2000/svg">
  <g fill-rule="evenodd">
    <path d="m471.95 253.05c0 120.9-98.01 218.9-218.9 218.9-120.9 0-218.9-98.01-218.9-218.9 0-120.9 98.01-218.9 218.9-218.9 120.9 0 218.9 98.01 218.9 218.9" fill="#1793d1"/>
    <path d="m256 1c-140.83 0-255 114.17-255 255s114.17 255 255 255 255-114.17 255-255-114.17-255-255-255m8.827 44.931c120.9 0 218.9 98 218.9 218.9s-98 218.9-218.9 218.9-218.93-98-218.93-218.9 98.03-218.9 218.93-218.9" fill-opacity=".067"/>
    <g fill-opacity=".129">
      <path d="m256 4.433c-138.94 0-251.57 112.63-251.57 251.57s112.63 251.57 251.57 251.57 251.57-112.63 251.57-251.57-112.63-251.57-251.57-251.57m5.885 38.556c120.9 0 218.9 98 218.9 218.9s-98 218.9-218.9 218.9-218.93-98-218.93-218.9 98.03-218.9 218.93-218.9"/>
      <path d="m256 8.356c-136.77 0-247.64 110.87-247.64 247.64s110.87 247.64 247.64 247.64 247.64-110.87 247.64-247.64-110.87-247.64-247.64-247.64m2.942 31.691c120.9 0 218.9 98 218.9 218.9s-98 218.9-218.9 218.9-218.93-98-218.93-218.9 98.03-218.9 218.93-218.9"/>
    </g>
    <path d="m253.04 7.859c-135.42 0-245.19 109.78-245.19 245.19 0 135.42 109.78 245.19 245.19 245.19 135.42 0 245.19-109.78 245.19-245.19 0-135.42-109.78-245.19-245.19-245.19zm0 26.297c120.9 0 218.9 98 218.9 218.9s-98 218.9-218.9 218.9-218.93-98-218.93-218.9 98.03-218.9 218.93-218.9z" fill="#ffffff" stroke="#000000" stroke-opacity=".31" stroke-width="4.904"/>
  </g>
  <text x="729.64" y="231.36">
    <tspan x="729.64" y="231.36"/>
  </text>
  <text transform="scale(4.0128 .2492)" x="378.91" y="579.25"/>
  <text x="1310.91" y="151.36">
    <tspan x="1310.91" y="151.36"/>
  </text>
  <text transform="scale(4.0128 .2492)" x="523.76" y="258.22"/>
  <text x="239.33" y="-29.901">
    <tspan x="239.33" y="-29.901"/>
  </text>
  <text transform="scale(4.0128 .2492)" x="256.72" y="-469.14"/>
  <text x="1337.38" y="-246.37">
    <tspan x="1337.38" y="-246.37"/>
  </text>
  <text transform="scale(4.0128 .2492)" x="530.36" y="-1337.8"/>
  <text x="1918.65" y="-326.38">
    <tspan x="1918.65" y="-326.38"/>
  </text>
  <text transform="scale(4.0128 .2492)" x="675.21" y="-1658.84"/>
  <text x="1529.53" y="-798.78">
    <tspan x="1529.53" y="-798.78"/>
  </text>
  <text transform="scale(4.0128 .2492)" x="578.24" y="-3554.49"/>
  <text x="2110.79" y="-878.78">
    <tspan x="2110.79" y="-878.78"/>
  </text>
  <text transform="scale(4.0128 .2492)" x="723.09" y="-3875.52"/>
  <text x="277.99" y="535.94">
    <tspan x="277.99" y="535.94"/>
  </text>
  <text x="550.75" y="87.6">
    <tspan x="550.75" y="87.6"/>
  </text>
  <text transform="scale(4.0128 .2492)" x="334.33" y="2.351"/>
  <text x="1132.02" y="7.597">
    <tspan x="1132.02" y="7.597"/>
  </text>
  <text transform="scale(4.0128 .2492)" x="479.18" y="-318.68"/>
  <text x="60.44" y="-173.66">
    <tspan x="60.44" y="-173.66"/>
  </text>
  <text transform="scale(4.0128 .2492)" x="212.14" y="-1046.03"/>
  <text x="1158.49" y="-390.13">
    <tspan x="1158.49" y="-390.13"/>
  </text>
  <text transform="scale(4.0128 .2492)" x="485.78" y="-1914.7"/>
  <text x="1739.76" y="-470.14">
    <tspan x="1739.76" y="-470.14"/>
  </text>
  <text transform="scale(4.0128 .2492)" x="630.63" y="-2235.74"/>
  <text x="1350.64" y="-942.54">
    <tspan x="1350.64" y="-942.54"/>
  </text>
  <text transform="scale(4.0128 .2492)" x="533.66" y="-4131.39"/>
  <text x="1931.9" y="-1022.54">
    <tspan x="1931.9" y="-1022.54"/>
  </text>
  <text transform="scale(4.0128 .2492)" x="678.51" y="-4452.42"/>
  <text x="99.1" y="392.18">
    <tspan x="99.1" y="392.18"/>
  </text>
  <text x="-329.8" y="-104.9">
    <tspan x="-329.8" y="-104.9"/>
  </text>
  <text transform="scale(4.0128 .2492)" x="235.54" y="-983.82"/>
  <text x="-977.57" y="-872.85">
    <tspan x="-977.57" y="-872.85"/>
  </text>
  <text transform="scale(4.0128 .2492)" x="74.12" y="-4065.49"/>
  <text x="-271.23" y="-1028.48">
    <tspan x="-271.23" y="-1028.48"/>
  </text>
  <text transform="scale(4.0128 .2492)" x="250.14" y="-4690.01"/>
  <text x="201.46" y="256.82">
    <tspan x="201.46" y="256.82"/>
  </text>
  <text transform="scale(4.0128 .2492)" x="247.29" y="681.4"/>
  <text x="782.73" y="176.82">
    <tspan x="782.73" y="176.82"/>
  </text>
  <text transform="scale(4.0128 .2492)" x="392.14" y="360.37"/>
  <text x="-288.85" y="-4.444">
    <tspan x="-288.85" y="-4.444"/>
  </text>
  <text transform="scale(4.0128 .2492)" x="125.1" y="-366.98"/>
  <text x="809.2" y="-220.91">
    <tspan x="809.2" y="-220.91"/>
  </text>
  <text transform="scale(4.0128 .2492)" x="398.74" y="-1235.65"/>
  <text x="1390.47" y="-300.92">
    <tspan x="1390.47" y="-300.92"/>
  </text>
  <text transform="scale(4.0128 .2492)" x="543.58" y="-1556.69"/>
  <text x="1001.35" y="-773.32">
    <tspan x="1001.35" y="-773.32"/>
  </text>
  <text transform="scale(4.0128 .2492)" x="446.61" y="-3452.34"/>
  <text x="1582.61" y="-853.32">
    <tspan x="1582.61" y="-853.32"/>
  </text>
  <text transform="scale(4.0128 .2492)" x="591.46" y="-3773.37"/>
  <text x="-250.19" y="561.4">
    <tspan x="-250.19" y="561.4"/>
  </text>
  <path d="m112.4 134.51v134.98l26.996 26.996h-26.996v27.03l26.967 26.967h-26.967v26.998l88.1 88.1c16.835 4.149 34.432 6.363 52.55 6.363 120.89 0 218.9-98 218.9-218.9 0-18.1-2.211-35.686-6.354-52.51l-65.998-65.996h-144.6v25.418l-25.449-25.449h-117.15" opacity=".25"/>
  <path d="m112.4 134.51v134.98h117.15v-134.98zm142.6.03v26.966h144.6v-26.966zm0 53.963v26.997h144.6v-26.997zm0 54.02v26.966h144.6v-26.966zm-142.6 53.963v27.03h287.2v-27.03zm0 53.994v26.997h172.38v-26.997z" fill="#ffffff"/>
</svg>
