<svg viewBox="0 0 512 512" xmlns="http://www.w3.org/2000/svg">
  <text x="729.64" y="231.36">
    <tspan x="729.64" y="231.36"/>
  </text>
  <text transform="scale(4.0128 .2492)" x="378.91" y="579.26"/>
  <text x="1310.91" y="151.36">
    <tspan x="1310.91" y="151.36"/>
  </text>
  <text transform="scale(4.0128 .2492)" x="523.76" y="258.22"/>
  <text x="239.33" y="-29.9">
    <tspan x="239.33" y="-29.9"/>
  </text>
  <text transform="scale(4.0128 .2492)" x="256.72" y="-469.13"/>
  <text x="1337.38" y="-246.37">
    <tspan x="1337.38" y="-246.37"/>
  </text>
  <text transform="scale(4.0128 .2492)" x="530.36" y="-1337.8"/>
  <text x="1918.65" y="-326.37">
    <tspan x="1918.65" y="-326.37"/>
  </text>
  <text transform="scale(4.0128 .2492)" x="675.21" y="-1658.83"/>
  <text x="1529.53" y="-798.77">
    <tspan x="1529.53" y="-798.77"/>
  </text>
  <text transform="scale(4.0128 .2492)" x="578.24" y="-3554.48"/>
  <text x="2110.79" y="-878.78">
    <tspan x="2110.79" y="-878.78"/>
  </text>
  <text transform="scale(4.0128 .2492)" x="723.09" y="-3875.52"/>
  <text x="277.99" y="535.94">
    <tspan x="277.99" y="535.94"/>
  </text>
  <text x="729.64" y="231.36">
    <tspan x="729.64" y="231.36"/>
  </text>
  <text transform="scale(4.0128 .2492)" x="378.91" y="579.26"/>
  <text x="1310.91" y="151.36">
    <tspan x="1310.91" y="151.36"/>
  </text>
  <text transform="scale(4.0128 .2492)" x="523.76" y="258.22"/>
  <text x="239.33" y="-29.9">
    <tspan x="239.33" y="-29.9"/>
  </text>
  <text transform="scale(4.0128 .2492)" x="256.72" y="-469.13"/>
  <text x="1337.38" y="-246.37">
    <tspan x="1337.38" y="-246.37"/>
  </text>
  <text transform="scale(4.0128 .2492)" x="530.36" y="-1337.8"/>
  <text x="1918.65" y="-326.37">
    <tspan x="1918.65" y="-326.37"/>
  </text>
  <text transform="scale(4.0128 .2492)" x="675.21" y="-1658.83"/>
  <text x="1529.53" y="-798.77">
    <tspan x="1529.53" y="-798.77"/>
  </text>
  <text transform="scale(4.0128 .2492)" x="578.24" y="-3554.48"/>
  <text x="2110.79" y="-878.78">
    <tspan x="2110.79" y="-878.78"/>
  </text>
  <text transform="scale(4.0128 .2492)" x="723.09" y="-3875.52"/>
  <text x="277.99" y="535.94">
    <tspan x="277.99" y="535.94"/>
  </text>
  <path d="m471.95 253.05c0 120.9-98.01 218.91-218.91 218.91-120.9 0-218.91-98.01-218.91-218.91 0-120.9 98.01-218.91 218.91-218.91 120.9 0 218.91 98.01 218.91 218.91" fill="#1793d1" fill-rule="evenodd"/>
  <path d="m256 1c-140.83 0-255 114.17-255 255 0 140.83 114.17 255 255 255 140.83 0 255-114.17 255-255 0-140.83-114.17-255-255-255m8.827 44.931c120.9 0 218.9 98 218.9 218.9 0 120.9-98 218.9-218.9 218.9-120.9 0-218.93-98-218.93-218.9 0-120.9 98.03-218.9 218.93-218.9" fill-opacity=".06700003" fill-rule="evenodd"/>
  <g fill-opacity=".12900002" fill-rule="evenodd">
    <path d="m256 4.43c-138.94 0-251.57 112.63-251.57 251.57 0 138.94 112.63 251.57 251.57 251.57 138.94 0 251.57-112.63 251.57-251.57 0-138.94-112.63-251.57-251.57-251.57m5.885 38.556c120.9 0 218.9 98 218.9 218.9 0 120.9-98 218.9-218.9 218.9-120.9 0-218.93-98-218.93-218.9 0-120.9 98.03-218.9 218.93-218.9"/>
    <path d="m256 8.36c-136.77 0-247.64 110.87-247.64 247.64 0 136.77 110.87 247.64 247.64 247.64 136.77 0 247.64-110.87 247.64-247.64 0-136.77-110.87-247.64-247.64-247.64m2.942 31.691c120.9 0 218.9 98 218.9 218.9 0 120.9-98 218.9-218.9 218.9-120.9 0-218.93-98-218.93-218.9 0-120.9 98.03-218.9 218.93-218.9"/>
  </g>
  <path d="m253.04 7.86c-135.42 0-245.19 109.78-245.19 245.19 0 135.42 109.78 245.19 245.19 245.19 135.42 0 245.19-109.78 245.19-245.19 0-135.42-109.78-245.19-245.19-245.19m0 26.297c120.9 0 218.9 98 218.9 218.9 0 120.9-98 218.9-218.9 218.9-120.9 0-218.93-98-218.93-218.9 0-120.9 98.03-218.9 218.93-218.9z" fill="#ffffff" fill-rule="evenodd" stroke="#000000" stroke-opacity=".31000001" stroke-width="4.90399981"/>
  <text x="729.64" y="231.36">
    <tspan x="729.64" y="231.36"/>
  </text>
  <text transform="scale(4.0128 .2492)" x="378.91" y="579.26"/>
  <text x="1310.91" y="151.36">
    <tspan x="1310.91" y="151.36"/>
  </text>
  <text transform="scale(4.0128 .2492)" x="523.76" y="258.22"/>
  <text x="239.33" y="-29.9">
    <tspan x="239.33" y="-29.9"/>
  </text>
  <text transform="scale(4.0128 .2492)" x="256.72" y="-469.13"/>
  <text x="1337.38" y="-246.37">
    <tspan x="1337.38" y="-246.37"/>
  </text>
  <text transform="scale(4.0128 .2492)" x="530.36" y="-1337.8"/>
  <text x="1918.65" y="-326.37">
    <tspan x="1918.65" y="-326.37"/>
  </text>
  <text transform="scale(4.0128 .2492)" x="675.21" y="-1658.83"/>
  <text x="1529.53" y="-798.77">
    <tspan x="1529.53" y="-798.77"/>
  </text>
  <text transform="scale(4.0128 .2492)" x="578.24" y="-3554.48"/>
  <text x="2110.79" y="-878.78">
    <tspan x="2110.79" y="-878.78"/>
  </text>
  <text transform="scale(4.0128 .2492)" x="723.09" y="-3875.52"/>
  <text x="277.99" y="535.94">
    <tspan x="277.99" y="535.94"/>
  </text>
  <path d="m125.59 125.59v68.938l64.84 64.84c.796 15.738 7.126 30.01 17.09 40.914 1.231 1.346 2.53 2.627 3.867 3.867l142.98 142.98c39.593-20.714 72.06-53.18 92.77-92.78l-142.87-142.87c-11.285-12.23-27.16-20.16-44.896-21.05l-64.838-64.838h-68.938m191.88 0v26.625l149.12 149.12c3.498-15.537 5.355-31.694 5.355-48.29 0-16.13-1.76-31.853-5.072-46.992l-80.47-80.47h-68.938m-191.87 191.88v68.938l80.49 80.49c15.13 3.307 30.838 5.066 46.959 5.066 16.602 0 32.767-1.858 48.31-5.359l-149.13-149.13h-26.625" opacity=".25"/>
  <path d="m125.59 125.59v68.938h26.625v-42.31h42.31v-26.625h-68.938m191.88 0v26.625h42.31v42.31h26.625v-68.938h-68.938m-61.47 64.75c-36.27 0-65.66 29.389-65.66 65.66 0 36.27 29.389 65.66 65.66 65.66 36.27 0 65.66-29.389 65.66-65.66 0-36.27-29.389-65.66-65.66-65.66m-130.41 127.13v68.938h68.938v-26.625h-42.31v-42.31h-26.625m234.19 0v42.31h-42.31v26.625h68.938v-68.938h-26.625" fill="#ffffff"/>
</svg>
