<?xml version="1.0" encoding="UTF-8" standalone="no"?>
<svg
   xmlns:dc="http://purl.org/dc/elements/1.1/"
   xmlns:cc="http://creativecommons.org/ns#"
   xmlns:rdf="http://www.w3.org/1999/02/22-rdf-syntax-ns#"
   xmlns:svg="http://www.w3.org/2000/svg"
   xmlns="http://www.w3.org/2000/svg"
   xmlns:sodipodi="http://sodipodi.sourceforge.net/DTD/sodipodi-0.dtd"
   xmlns:inkscape="http://www.inkscape.org/namespaces/inkscape"
   height="512"
   viewBox="0 0 512 512"
   width="512"
   version="1.1"
   id="svg2"
   inkscape:version="0.91 r13725"
   sodipodi:docname="stacer.svg">
  <defs
     id="defs17" />
  <sodipodi:namedview
     pagecolor="#ffffff"
     bordercolor="#666666"
     borderopacity="1"
     objecttolerance="10"
     gridtolerance="10"
     guidetolerance="10"
     inkscape:pageopacity="0"
     inkscape:pageshadow="2"
     inkscape:window-width="1920"
     inkscape:window-height="1021"
     id="namedview15"
     showgrid="false"
     inkscape:zoom="1.6525946"
     inkscape:cx="200.87122"
     inkscape:cy="343.30654"
     inkscape:window-x="0"
     inkscape:window-y="0"
     inkscape:window-maximized="1"
     inkscape:current-layer="svg2" />
  <metadata
     id="metadata28">
    <rdf:RDF>
      <cc:Work
         rdf:about="">
        <dc:format>image/svg+xml</dc:format>
        <dc:type
           rdf:resource="http://purl.org/dc/dcmitype/StillImage" />
        <dc:title></dc:title>
      </cc:Work>
    </rdf:RDF>
  </metadata>
  <path
     style="fill:#1793d1;fill-rule:evenodd;fill-opacity:1"
     inkscape:connector-curvature="0"
     d="m 471.95,253.05 c 0,120.9 -98.01,218.9 -218.9,218.9 -120.9,0 -218.9,-98.01 -218.9,-218.9 0,-120.9 98.01,-218.9 218.9,-218.9 120.9,0 218.9,98.01 218.9,218.9"
     id="path6" />
  <path
     style="fill-opacity:0.06700003;fill-rule:evenodd"
     inkscape:connector-curvature="0"
     d="M 256,1 C 115.17,1 1,115.17 1,256 1,396.83 115.17,511 256,511 396.83,511 511,396.83 511,256 511,115.17 396.83,1 256,1 m 8.827,44.931 c 120.9,0 218.9,98 218.9,218.9 0,120.9 -98,218.9 -218.9,218.9 -120.9,0 -218.93,-98 -218.93,-218.9 0,-120.9 98.03,-218.9 218.93,-218.9"
     id="path8" />
  <g
     style="fill-opacity:0.12900002;fill-rule:evenodd"
     id="g10">
    <path
       inkscape:connector-curvature="0"
       d="m 256,4.433 c -138.94,0 -251.57,112.63 -251.57,251.57 0,138.94 112.63,251.57 251.57,251.57 138.94,0 251.57,-112.63 251.57,-251.57 C 507.57,117.063 394.94,4.433 256,4.433 m 5.885,38.556 c 120.9,0 218.9,98 218.9,218.9 0,120.9 -98,218.9 -218.9,218.9 -120.9,0 -218.93,-98 -218.93,-218.9 0,-120.9 98.03,-218.9 218.93,-218.9"
       id="path12" />
    <path
       inkscape:connector-curvature="0"
       d="m 256,8.356 c -136.77,0 -247.64,110.87 -247.64,247.64 0,136.77 110.87,247.64 247.64,247.64 136.77,0 247.64,-110.87 247.64,-247.64 C 503.64,119.226 392.77,8.356 256,8.356 m 2.942,31.691 c 120.9,0 218.9,98 218.9,218.9 0,120.9 -98,218.9 -218.9,218.9 -120.9,0 -218.93,-98 -218.93,-218.9 0,-120.9 98.03,-218.9 218.93,-218.9"
       id="path14" />
  </g>
  <path
     inkscape:connector-curvature="0"
     style="opacity:0.25"
     id="path4190"
     d="m 290.45747,116.60611 -22.4145,-0.0157 -14.98641,-4.98454 -18.33189,6.67363 -11.77653,-0.68957 -23.9648,7.37664 -31.37542,15.33869 -28.58807,22.67616 -12.47401,27.49693 -9.45549,31.61746 -23.733232,49.81646 11.683272,61.29636 199.58297,132.67918 c 127.05074,-45.20863 172.02207,-120.54768 169.53,-213.31 l 5.50939,-16.77159 -121.39028,-99.59919"
     sodipodi:nodetypes="cccccccccccccccc" />
  <path
     style="fill:#ffffff;fill-rule:evenodd;stroke:#000000;stroke-width:4.90399981;stroke-opacity:0.31000001"
     inkscape:connector-curvature="0"
     d="m 253.04,7.859 c -135.42,0 -245.19,109.78 -245.19,245.19 0,135.42 109.78,245.19 245.19,245.19 135.42,0 245.19,-109.78 245.19,-245.19 0,-135.42 -109.78,-245.19 -245.19,-245.19 z m 0,26.297 c 120.9,0 218.9,98 218.9,218.9 0,120.9 -98,218.9 -218.9,218.9 -120.9,0 -218.93,-98 -218.93,-218.9 0,-120.9 98.03,-218.9 218.93,-218.9 z"
     id="path16" />
  <g
     transform="matrix(11.790394,0,0,11.790394,66.712856,41.211094)"
     id="Icons new Arranged Names Color"
     style="fill:#ffffff;fill-opacity:1;fill-rule:evenodd;stroke:none;stroke-width:1">
    <g
       id="100 Pressure Reading"
       style="fill:#ffffff;fill-opacity:1">
      <path
         inkscape:connector-curvature="0"
         d="m 16,27 c -1.656854,0 -3,-1.343146 -3,-3 0,-1.155192 0.652924,-2.157885 1.609862,-2.659171 L 16,13 17.390138,21.340829 C 18.347076,21.842115 19,22.844808 19,24 c 0,1.656854 -1.343146,3 -3,3 z M 28,19 C 28,12.372583 22.627417,7 16,7 9.3725827,7 4,12.372583 4,19 4,20.745131 4.3725208,22.403255 5.0423809,23.89919 4.3883003,24.16824 3.7859763,24.461098 3.2426403,24.774601 2.4444494,23.014013 2,21.05891 2,19 2,11.268013 8.2680131,5 16,5 c 7.731987,0 14,6.268013 14,14 0,2.05891 -0.444449,4.014013 -1.24264,5.774601 C 28.214024,24.461098 27.6117,24.16824 26.957619,23.89919 27.627479,22.403255 28,20.745131 28,19 Z m 0,0"
         id="Oval 278 copy 2"
         style="fill:#ffffff;fill-opacity:1" />
      <path
         inkscape:connector-curvature="0"
         d="m 5.2105538,16.565534 3.8042261,1.236068 0.618034,-1.902113 -3.8042261,-1.236068 -0.618034,1.902113 z m 0,0"
         id="path11"
         style="fill:#ffffff;fill-opacity:1" />
      <path
         inkscape:connector-curvature="0"
         d="m 8.7137216,10.692375 2.3511414,3.236068 1.618034,-1.17557 -2.351141,-3.2360684 -1.6180344,1.1755704 z m 0,0"
         id="path13"
         style="fill:#ffffff;fill-opacity:1" />
      <path
         inkscape:connector-curvature="0"
         d="m 15,8 0,4 2,0 0,-4 -2,0 z m 0,0"
         id="path15"
         style="fill:#ffffff;fill-opacity:1" />
      <path
         inkscape:connector-curvature="0"
         d="m 21.668244,9.5168046 -2.35114,3.2360684 1.618033,1.17557 2.351142,-3.236068 -1.618035,-1.1755704 z m 0,0"
         id="path17"
         style="fill:#ffffff;fill-opacity:1" />
      <path
         inkscape:connector-curvature="0"
         d="m 26.171412,14.663421 -3.804226,1.236068 0.618034,1.902113 3.804226,-1.236068 -0.618034,-1.902113 z m 0,0"
         id="path19"
         style="fill:#ffffff;fill-opacity:1" />
      <path
         inkscape:connector-curvature="0"
         d="m 26.789446,21.474017 -3.804226,-1.236068 -0.618034,1.902113 3.804226,1.236068 0.618034,-1.902113 z m 0,0"
         id="path21"
         style="fill:#ffffff;fill-opacity:1" />
      <path
         inkscape:connector-curvature="0"
         d="m 5.8285878,23.37613 3.8042261,-1.236068 -0.618034,-1.902113 -3.8042261,1.236068 0.618034,1.902113 z m 0,0"
         id="path23"
         style="fill:#ffffff;fill-opacity:1" />
    </g>
  </g>
</svg>
