<svg height="512" viewBox="0 0 512 512" width="512" xmlns="http://www.w3.org/2000/svg">
  <text x="796.68585" y="227.87068">
    <tspan x="796.68585" y="227.87068"/>
  </text>
  <text transform="scale(4.0128205 .24920128)" x="423.51364" y="515.82001"/>
  <text x="1460.2372" y="136.54633">
    <tspan x="1460.2372" y="136.54633"/>
  </text>
  <text transform="scale(4.0128205 .24920128)" x="588.86694" y="149.34866"/>
  <text x="236.97029" y="-70.372971">
    <tspan x="236.97029" y="-70.372971"/>
  </text>
  <text transform="scale(4.0128205 .24920128)" x="284.0278" y="-680.96814"/>
  <text x="1490.4541" y="-317.4841">
    <tspan x="1490.4541" y="-317.4841"/>
  </text>
  <text transform="scale(4.0128205 .24920128)" x="596.40112" y="-1672.5972"/>
  <text x="2154.0056" y="-408.81989">
    <tspan x="2154.0056" y="-408.81989"/>
  </text>
  <text transform="scale(4.0128205 .24920128)" x="761.75452" y="-2039.0798"/>
  <text x="1709.8038" y="-948.09021">
    <tspan x="1709.8038" y="-948.09021"/>
  </text>
  <text transform="scale(4.0128205 .24920128)" x="651.05853" y="-4203.0679"/>
  <text x="2373.3438" y="-1039.4146">
    <tspan x="2373.3438" y="-1039.4146"/>
  </text>
  <text transform="scale(4.0128205 .24920128)" x="816.41187" y="-4569.5391"/>
  <g transform="matrix(1.1415544 0 0 1.1415544 -36.237935 -36.23935)">
    <text x="277.98999" y="535.94">
      <tspan x="277.98999" y="535.94"/>
    </text>
    <text x="-1987.0601" y="451.89001">
      <tspan x="-1987.0601" y="451.89001"/>
    </text>
  </g>
  <text transform="scale(4.0128205 .24920128)" x="-211.59833" y="1282.0616"/>
  <path d="m183.41997 67.36813c-15.76601 0-28.46009 12.179244-28.46009 27.308265 0 15.129025 12.69408 27.308265 28.46009 27.308265h43.16217v127.77419h58.83572v-127.77419h43.16217c15.76601 0 28.46009-12.17924 28.46009-27.308265 0-15.129021-12.69408-27.308265-28.46009-27.308265zm43.16217 182.4204v93.76728h-61.0275l45.22839 50.54803 45.22839 50.54803 45.19984-50.54803 45.22839-50.54803h-61.0275v-93.76728h-58.83572" fill="#ffffff" fill-rule="evenodd"/>
</svg>
