<svg height="512" viewBox="0 0 512 512" width="512" xmlns="http://www.w3.org/2000/svg">
  <g fill-rule="evenodd">
    <path d="m471.95 253.05c0 120.9-98.01 218.9-218.9 218.9-120.9 0-218.9-98.01-218.9-218.9 0-120.9 98.01-218.9 218.9-218.9 120.9 0 218.9 98.01 218.9 218.9" fill="#1793d1"/>
    <path d="m243.66 35.75l228.03 228.06c.173-3.567.25-7.14.25-10.75 0-6.07-.234-12.09-.719-18.03l-199.31-199.28h-28.25m-26.906 1.406c-7.851 1.31-15.549 3.034-23.09 5.156l270.13 270.16c2.129-7.563 3.844-15.285 5.156-23.16l-252.19-252.16m88.03 3.156l161 161c-3.746-15.456-9.136-30.27-15.969-44.25l-100.81-100.78c-13.97-6.829-28.77-12.227-44.22-15.971m-132.28 9.156c-6.65 2.633-13.157 5.565-19.469 8.813l294.78 294.78c3.249-6.315 6.21-12.815 8.844-19.469l-284.15-284.12m-37.438 19.16c-5.696 3.652-11.212 7.57-16.531 11.719l291.63 291.63 15.594 15.594c4.149-5.319 8.07-10.835 11.719-16.531.005-.007-.005-.024 0-.031l-302.37-302.37h-.031m-31.781 24.75c-4.871 4.57-9.501 9.38-13.938 14.375l264.25 264.22 44.781 44.781c4.983-4.427 9.752-9.08 14.313-13.938l-30.84-30.84-278.56-278.59m-26.594 30c-4.03 5.474-7.794 11.123-11.313 16.969l231.66 231.63 68.75 68.75c5.833-3.511 11.475-7.289 16.938-11.313l-57.44-57.44h-.031l-248.56-248.59m-21.22 35.31c-3.101 6.481-5.881 13.12-8.344 19.938l193.34 193.34 86.969 87c6.815-2.462 13.456-5.243 19.938-8.344l-78.66-78.66h-.031l-213.23-213.29m-14.903 41.66c-1.923 7.778-3.433 15.7-4.5 23.781l147.84 147.84 98.06 98.06c8.08-1.066 16.01-2.546 23.781-4.469l-93.59-93.59h-.031l-171.56-171.62m-6.406 50.19c-.01.843-.031 1.686-.031 2.531 0 9.294.594 18.448 1.719 27.438l91.47 91.47 98.25 98.28c8.999 1.127 18.16 1.719 27.469 1.719.845 0 1.688-.022 2.531-.031l-99.97-99.97h-.031l-121.41-121.44m9.281 65.875c5.519 18.283 13.391 35.549 23.22 51.47l4.094 4.094 67.44 67.44c15.93 9.839 33.2 17.727 51.5 23.25l-90.66-90.69h-.031l-55.56-55.56" fill="#ffffff" opacity=".1"/>
    <path d="m256 1c-140.83 0-255 114.17-255 255s114.17 255 255 255 255-114.17 255-255-114.17-255-255-255m8.827 44.931c120.9 0 218.9 98 218.9 218.9s-98 218.9-218.9 218.9-218.93-98-218.93-218.9 98.03-218.9 218.93-218.9" fill-opacity=".067"/>
    <g fill-opacity=".129">
      <path d="m256 4.433c-138.94 0-251.57 112.63-251.57 251.57s112.63 251.57 251.57 251.57 251.57-112.63 251.57-251.57-112.63-251.57-251.57-251.57m5.885 38.556c120.9 0 218.9 98 218.9 218.9s-98 218.9-218.9 218.9-218.93-98-218.93-218.9 98.03-218.9 218.93-218.9"/>
      <path d="m256 8.356c-136.77 0-247.64 110.87-247.64 247.64s110.87 247.64 247.64 247.64 247.64-110.87 247.64-247.64-110.87-247.64-247.64-247.64m2.942 31.691c120.9 0 218.9 98 218.9 218.9s-98 218.9-218.9 218.9-218.93-98-218.93-218.9 98.03-218.9 218.93-218.9"/>
    </g>
    <path d="m253.04 7.859c-135.42 0-245.19 109.78-245.19 245.19 0 135.42 109.78 245.19 245.19 245.19 135.42 0 245.19-109.78 245.19-245.19 0-135.42-109.78-245.19-245.19-245.19zm0 26.297c120.9 0 218.9 98 218.9 218.9s-98 218.9-218.9 218.9-218.93-98-218.93-218.9 98.03-218.9 218.93-218.9z" fill="#ffffff" stroke="#000000" stroke-opacity=".31" stroke-width="4.904"/>
  </g>
  <text x="729.64" y="231.36">
    <tspan x="729.64" y="231.36"/>
  </text>
  <text transform="scale(4.0128 .2492)" x="378.91" y="579.25"/>
  <text x="1310.91" y="151.36">
    <tspan x="1310.91" y="151.36"/>
  </text>
  <text transform="scale(4.0128 .2492)" x="523.76" y="258.22"/>
  <text x="239.33" y="-29.901">
    <tspan x="239.33" y="-29.901"/>
  </text>
  <text transform="scale(4.0128 .2492)" x="256.72" y="-469.14"/>
  <text x="1337.38" y="-246.37">
    <tspan x="1337.38" y="-246.37"/>
  </text>
  <text transform="scale(4.0128 .2492)" x="530.36" y="-1337.81"/>
  <text x="1918.65" y="-326.38">
    <tspan x="1918.65" y="-326.38"/>
  </text>
  <text transform="scale(4.0128 .2492)" x="675.21" y="-1658.85"/>
  <text x="1529.53" y="-798.78">
    <tspan x="1529.53" y="-798.78"/>
  </text>
  <text transform="scale(4.0128 .2492)" x="578.24" y="-3554.51"/>
  <text x="2110.79" y="-878.78">
    <tspan x="2110.79" y="-878.78"/>
  </text>
  <text transform="scale(4.0128 .2492)" x="723.09" y="-3875.54"/>
  <text x="277.99" y="535.94">
    <tspan x="277.99" y="535.94"/>
  </text>
  <text x="679.2" y="-507.65">
    <tspan x="679.2" y="-507.65"/>
  </text>
  <text transform="scale(4.0128 .2492)" x="366.34" y="-2386.28"/>
  <text x="1260.47" y="-587.66">
    <tspan x="1260.47" y="-587.66"/>
  </text>
  <text transform="scale(4.0128 .2492)" x="511.19" y="-2707.32"/>
  <text x="188.89" y="-768.91">
    <tspan x="188.89" y="-768.91"/>
  </text>
  <text transform="scale(4.0128 .2492)" x="244.15" y="-3434.67"/>
  <text x="1286.94" y="-985.39">
    <tspan x="1286.94" y="-985.39"/>
  </text>
  <text transform="scale(4.0128 .2492)" x="517.79" y="-4303.35"/>
  <text x="1868.2" y="-1065.39">
    <tspan x="1868.2" y="-1065.39"/>
  </text>
  <text transform="scale(4.0128 .2492)" x="662.64" y="-4624.38"/>
  <text x="1479.08" y="-1537.79">
    <tspan x="1479.08" y="-1537.79"/>
  </text>
  <text transform="scale(4.0128 .2492)" x="565.67" y="-6520.04"/>
  <text x="2060.35" y="-1617.79">
    <tspan x="2060.35" y="-1617.79"/>
  </text>
  <text transform="scale(4.0128 .2492)" x="710.52" y="-6841.08"/>
  <text x="227.54" y="-203.08">
    <tspan x="227.54" y="-203.08"/>
  </text>
  <text x="3783.34" y="-1250.53">
    <tspan x="3783.34" y="-1250.53"/>
  </text>
  <text transform="scale(4.0128 .2492)" x="1139.89" y="-5367.31"/>
  <text x="4364.6" y="-1330.53">
    <tspan x="4364.6" y="-1330.53"/>
  </text>
  <text transform="scale(4.0128 .2492)" x="1284.74" y="-5688.35"/>
  <text x="3293.02" y="-1511.79">
    <tspan x="3293.02" y="-1511.79"/>
  </text>
  <text transform="scale(4.0128 .2492)" x="1017.7" y="-6415.7"/>
  <text x="4391.07" y="-1728.26">
    <tspan x="4391.07" y="-1728.26"/>
  </text>
  <text transform="scale(4.0128 .2492)" x="1291.34" y="-7284.38"/>
  <text x="4972.34" y="-1808.26">
    <tspan x="4972.34" y="-1808.26"/>
  </text>
  <text transform="scale(4.0128 .2492)" x="1436.19" y="-7605.41"/>
  <text x="4583.22" y="-2280.66">
    <tspan x="4583.22" y="-2280.66"/>
  </text>
  <text transform="scale(4.0128 .2492)" x="1339.22" y="-9501.08"/>
  <text x="5164.49" y="-2360.66">
    <tspan x="5164.49" y="-2360.66"/>
  </text>
  <text transform="scale(4.0128 .2492)" x="1484.07" y="-9822.11"/>
  <text x="3331.68" y="-945.95">
    <tspan x="3331.68" y="-945.95"/>
  </text>
  <text x="-1210.93" y="-191.87">
    <tspan x="-1210.93" y="-191.87"/>
  </text>
  <text transform="scale(4.0128 .2492)" x="15.963" y="-1332.85"/>
  <text x="-1210.93" y="-191.87">
    <tspan x="-1210.93" y="-191.87"/>
  </text>
  <text transform="scale(4.0128 .2492)" x="15.963" y="-1332.85"/>
  <path d="m106.09 142.84v117.75l29.469 29.469c-16.747 4.925-29 20.383-29 38.719 0 11.143 4.508 21.23 11.813 28.531l113.63 113.63c6.927.661 13.963 1 21.06 1 26.02 0 50.971-4.541 74.13-12.875-.289-1.012-.603-2.02-.969-3l2.469 2.469c83.62-30.79 143.25-111.16 143.25-205.47 0-17.17-1.981-33.876-5.719-49.906l-60.31-60.31h-299.81" opacity=".25"/>
  <path d="m106.09 142.84v117.75h299.81v-117.75zm40.875 145.56c-22.301 0-40.41 18.07-40.41 40.38 0 22.301 18.11 40.38 40.41 40.38 22.301 0 40.38-18.07 40.38-40.37 0-22.301-18.07-40.37-40.37-40.37m109.03 0c-22.301 0-40.37 18.04-40.37 40.34 0 22.301 18.07 40.38 40.38 40.38 22.301 0 40.38-18.07 40.38-40.37 0-22.301-18.07-40.34-40.37-40.34m109 0c-22.301 0-40.37 18.04-40.37 40.34 0 22.301 18.07 40.38 40.38 40.38 22.301 0 40.38-18.07 40.38-40.37 0-22.301-18.07-40.34-40.37-40.34" fill="#ffffff"/>
</svg>
