<svg height="16" viewBox="0 0 16 16" width="16" xmlns="http://www.w3.org/2000/svg">
  <text x="-1160.48" y="53.52002">
    <tspan x="-1160.48" y="53.52002"/>
  </text>
  <text transform="scale(4.0128205 .24920128)" x="28.533854" y="-348.12738"/>
  <text x="-454.14001" y="-102.10999">
    <tspan x="-454.14001" y="-102.10999"/>
  </text>
  <text transform="scale(4.0128205 .24920128)" x="204.54895" y="-972.64417"/>
  <text x="-420.76999" y="-110.23999">
    <tspan x="-420.76999" y="-110.23999"/>
  </text>
  <text transform="scale(4.0128205 .24920128)" x="212.86891" y="-1005.244"/>
  <text x="-1843.1899" y="79.200012">
    <tspan x="-1843.1899" y="79.200012"/>
  </text>
  <text transform="scale(4.0128205 .24920128)" x="-141.59927" y="-245.05782"/>
  <text x="-1136.85" y="-76.429993">
    <tspan x="-1136.85" y="-76.429993"/>
  </text>
  <text transform="scale(4.0128205 .24920128)" x="34.422825" y="-869.57465"/>
  <text x="-1103.47" y="-84.549988">
    <tspan x="-1103.47" y="-84.549988"/>
  </text>
  <text transform="scale(4.0128205 .24920128)" x="42.739784" y="-902.17462"/>
  <text x="729.64001" y="-264.64001">
    <tspan x="729.64001" y="-264.64001"/>
  </text>
  <text transform="scale(4.0128205 .24920128)" x="378.90805" y="-1411.1119"/>
  <text x="1310.91" y="-344.64001">
    <tspan x="1310.91" y="-344.64001"/>
  </text>
  <text transform="scale(4.0128205 .24920128)" x="523.75732" y="-1732.1403"/>
  <text x="239.33" y="-525.901">
    <tspan x="239.33" y="-525.901"/>
  </text>
  <text transform="scale(4.0128205 .24920128)" x="256.71869" y="-2459.4966"/>
  <text x="1337.38" y="-742.37">
    <tspan x="1337.38" y="-742.37"/>
  </text>
  <text transform="scale(4.0128205 .24920128)" x="530.3573" y="-3328.1621"/>
  <text x="1918.65" y="-822.38">
    <tspan x="1918.65" y="-822.38"/>
  </text>
  <text transform="scale(4.0128205 .24920128)" x="675.20654" y="-3649.2004"/>
  <text x="1529.53" y="-1294.78">
    <tspan x="1529.53" y="-1294.78"/>
  </text>
  <text transform="scale(4.0128205 .24920128)" x="578.237" y="-5544.8506"/>
  <text x="2110.79" y="-1374.78">
    <tspan x="2110.79" y="-1374.78"/>
  </text>
  <text transform="scale(4.0128205 .24920128)" x="723.0863" y="-5865.8794"/>
  <text x="277.98999" y="39.940002">
    <tspan x="277.98999" y="39.940002"/>
  </text>
  <g fill="#aaaaaa" fill-rule="evenodd" transform="matrix(.03456032 0 0 .03456032 -.76464848 -.78268618)">
    <path d="m256 106c-82.84 0-150 67.16-150 150 0 82.84 67.16 150 150 150 82.84 0 150-67.16 150-150 0-82.84-67.16-150-150-150m0 50.15c55.14 0 99.84 44.707 99.84 99.85 0 55.14-44.703 99.85-99.84 99.85-55.14 0-99.84-44.707-99.84-99.85 0-55.14 44.703-99.85 99.84-99.85"/>
    <rect height="130.13" rx="25" width="50" x="231" y="190.94"/>
  </g>
</svg>
