<svg viewBox="0 0 24 24" xmlns="http://www.w3.org/2000/svg">
 <path d="m4 2c-1.108 0-2 .892-2 2v16c0 1.108.892 2 2 2h16c1.108 0 2-.892 2-2v-16c0-1.108-.892-2-2-2zm3.205 5.5c1.258 0 2.22.229 2.887.688.675.458 1.014 1.175 1.014 2.15 0 .508-.092.946-.275 1.313-.175.358-.434.653-.775.887-.342.225-.758.392-1.25.5-.492.108-1.054.162-1.688.162h-.787v3.051h-1.574v-8.537c.367-.083.769-.137 1.211-.162.45-.033.863-.051 1.238-.051zm6.701.238v1.975h2.324v1.262h-2.324v2.662c0 .525.083.9.25 1.125.167.225.45.338.85.338.275 0 .516-.03.725-.088.217-.058.387-.112.512-.162l.25 1.201c-.175.075-.404.15-.688.225-.283.083-.617.125-1 .125-.467 0-.857-.063-1.174-.188-.308-.125-.555-.304-.738-.537-.183-.242-.312-.53-.387-.863-.075-.342-.113-.729-.113-1.162v-5.662l1.514-.25zm-6.588 1.125c-.4 0-.73.012-.988.037v2.949h.762c.758 0 1.342-.104 1.75-.313.408-.217.613-.621.613-1.213 0-.283-.054-.519-.162-.711-.108-.192-.26-.343-.451-.451-.192-.108-.421-.183-.688-.225-.258-.05-.536-.074-.836-.074zm9.742 5.555h2.895v.576c-.137.154-.287.364-.449.631-.163.267-.317.569-.463.906-.146.333-.273.691-.381 1.074-.104.383-.17.765-.195 1.145h-.773c.025-.317.08-.65.168-1 .087-.35.193-.69.318-1.02.129-.333.27-.642.42-.93.154-.292.305-.537.455-.732h-1.994v-.65z" fill="#3a3a3a"/>
</svg>
