<svg viewBox="0 0 24 24" xmlns="http://www.w3.org/2000/svg">
 <path d="m4 2c-1.108 0-2 .892-2 2v16c0 1.108.892 2 2 2h16c1.108 0 2-.892 2-2v-16c0-1.108-.892-2-2-2zm10.713 4.551v7.486c0 .183.012.338.037.463.033.125.087.233.162.324.075.083.176.151.301.201.133.042.3.075.5.1l-.213 1.25c-.45-.008-.825-.059-1.125-.15-.292-.092-.524-.22-.699-.387-.175-.175-.3-.389-.375-.639-.067-.258-.102-.55-.102-.875v-7.523zm-6.752.949c1.258 0 2.222.229 2.889.688.675.458 1.012 1.175 1.012 2.15 0 .508-.092.946-.275 1.313-.175.358-.432.653-.773.887-.342.225-.758.392-1.25.5-.492.108-1.054.162-1.688.162h-.789v3.051h-1.574v-8.537c.367-.083.771-.137 1.213-.162.45-.033.861-.051 1.236-.051zm.113 1.363c-.4 0-.73.012-.988.037v2.949h.764c.758 0 1.342-.104 1.75-.313.408-.217.611-.621.611-1.213 0-.283-.054-.519-.162-.711-.108-.192-.258-.343-.449-.451-.192-.108-.421-.183-.688-.225-.258-.05-.538-.074-.838-.074zm10.85 5.531l.043.625c-.225.004-.435.028-.631.074-.196.042-.371.108-.525.199-.154.092-.288.212-.4.357-.108.146-.192.325-.25.537.204-.096.428-.145.67-.145.258 0 .477.038.656.113.183.071.331.168.443.293.113.125.194.271.244.438.054.163.08.335.08.514 0 .163-.028.329-.086.5-.054.171-.143.327-.264.469-.117.137-.264.252-.443.344-.179.087-.391.131-.637.131-.496 0-.876-.163-1.139-.488-.258-.329-.387-.78-.387-1.355 0-.417.061-.785.182-1.105.125-.325.298-.599.523-.82.229-.221.505-.387.826-.5.325-.117.69-.176 1.094-.18zm-1.188 2.25c-.121 0-.237.01-.35.031-.113.021-.215.052-.307.094-.004.033-.009.07-.014.111v.113c0 .167.01.325.031.475.025.146.065.274.119.387.058.108.137.197.232.264.1.063.221.094.367.094.121 0 .223-.026.307-.076.087-.05.159-.114.213-.193.054-.079.094-.164.119-.256.025-.096.037-.188.037-.275 0-.25-.061-.439-.182-.568-.121-.133-.312-.199-.574-.199z" fill="#3a3a3a"/>
</svg>
