<svg viewBox="0 0 24 24" xmlns="http://www.w3.org/2000/svg">
 <path d="m4 2c-1.108 0-2 .892-2 2v16c0 1.108.892 2 2 2h16c1.108 0 2-.892 2-2v-16c0-1.108-.892-2-2-2zm10.713 4.551v7.486c0 .183.012.338.037.463.033.125.087.233.162.324.075.083.176.151.301.201.133.042.3.075.5.1l-.213 1.25c-.45-.008-.825-.059-1.125-.15-.292-.092-.524-.22-.699-.387-.175-.175-.3-.389-.375-.639-.067-.258-.102-.55-.102-.875v-7.523zm-6.752.949c1.258 0 2.222.229 2.889.688.675.458 1.012 1.175 1.012 2.15 0 .508-.092.946-.275 1.313-.175.358-.432.653-.773.887-.342.225-.758.392-1.25.5-.492.108-1.054.162-1.688.162h-.789v3.051h-1.574v-8.537c.367-.083.771-.137 1.213-.162.45-.033.861-.051 1.236-.051zm.113 1.363c-.4 0-.73.012-.988.037v2.949h.764c.758 0 1.342-.104 1.75-.313.408-.217.611-.621.611-1.213 0-.283-.054-.519-.162-.711-.108-.192-.258-.343-.449-.451-.192-.108-.421-.183-.688-.225-.258-.05-.538-.074-.838-.074zm8.693 5.555h2.213v.639h-1.57c-.004.071-.009.152-.018.244-.004.088-.011.176-.02.268-.004.092-.009.18-.018.264-.008.083-.017.153-.025.211.617.033 1.07.176 1.361.426.296.246.445.583.445 1.012 0 .196-.035.378-.102.545-.067.167-.167.311-.305.432-.137.121-.311.216-.52.287-.208.067-.451.1-.73.1-.113 0-.227-.009-.344-.025-.117-.017-.23-.038-.338-.063-.104-.021-.198-.043-.281-.068-.083-.025-.146-.048-.188-.068l.143-.639c.087.042.212.089.375.139.167.046.37.068.607.068.163 0 .301-.017.418-.051.117-.038.21-.086.281-.148.075-.063.129-.134.162-.213.033-.083.051-.172.051-.264 0-.137-.028-.259-.082-.367-.054-.108-.15-.2-.287-.275-.133-.075-.314-.132-.543-.17-.225-.038-.512-.055-.857-.055.046-.4.082-.78.107-1.139.025-.363.046-.725.063-1.088z" fill="#3a3a3a"/>
</svg>
