<svg viewBox="0 0 24 24" xmlns="http://www.w3.org/2000/svg">
 <path d="m4 2c-1.108 0-2 .892-2 2v16c0 1.108.892 2 2 2h16c1.108 0 2-.892 2-2v-16c0-1.108-.892-2-2-2zm11.445 4.551v7.486c0 .183.012.338.037.463.033.125.087.233.162.324.075.083.176.151.301.201.133.042.3.075.5.1l-.213 1.25c-.45-.008-.825-.059-1.125-.15-.292-.092-.524-.22-.699-.387-.175-.175-.3-.389-.375-.639-.067-.258-.102-.55-.102-.875v-7.523zm-10.666 1.037h1.287c.333.35.693.767 1.076 1.25.383.475.765.97 1.148 1.486.392.517.767 1.037 1.125 1.563.367.517.693 1 .977 1.451v-5.75h1.563v8.662h-1.338c-.283-.475-.601-.984-.951-1.525-.35-.55-.711-1.1-1.086-1.65-.375-.558-.759-1.095-1.15-1.611-.383-.525-.75-.995-1.1-1.412v6.199h-1.551v-8.662zm13.863 6.83h.531v4.332h-.756v-3.318c-.113.088-.253.173-.424.256-.171.083-.336.153-.494.207l-.232-.576c.242-.096.485-.219.727-.369.246-.15.461-.327.648-.531z" fill="#3a3a3a"/>
</svg>
