<svg viewBox="0 0 24 24" xmlns="http://www.w3.org/2000/svg">
 <path d="m4 2c-1.108 0-2 .892-2 2v16c0 1.108.892 2 2 2h16c1.108 0 2-.892 2-2v-16c0-1.108-.892-2-2-2zm1.061 5.588h5.563v1.338h-3.988v2.137h3.551v1.313h-3.551v2.537h4.287v1.338h-5.861v-8.662zm8.539.15v1.975h2.326v1.262h-2.326v2.662c0 .525.083.9.25 1.125.167.225.452.338.852.338.275 0 .516-.03.725-.088.217-.058.387-.112.512-.162l.25 1.201c-.175.075-.404.15-.688.225-.283.083-.617.125-1 .125-.467 0-.857-.063-1.174-.188-.308-.125-.555-.304-.738-.537-.183-.242-.312-.53-.387-.863-.075-.342-.113-.729-.113-1.162v-5.662l1.512-.25zm4.395 6.58c.242 0 .45.03.625.088.175.058.319.142.432.25.117.104.202.229.256.375.058.142.088.298.088.469 0 .2-.057.379-.17.537-.108.158-.249.28-.424.363.225.079.409.209.555.393.15.183.227.42.227.707 0 .192-.035.37-.102.537-.067.163-.167.305-.305.426-.137.117-.313.21-.525.281-.208.067-.458.1-.75.1-.113 0-.229-.009-.35-.025-.117-.012-.23-.032-.338-.057-.104-.021-.2-.043-.287-.068-.087-.029-.155-.055-.201-.08l.15-.645c.087.042.214.09.381.145.167.05.373.074.619.074.329 0 .567-.063.713-.188.146-.129.219-.299.219-.512 0-.137-.03-.252-.088-.344-.054-.092-.13-.165-.23-.219-.096-.058-.209-.098-.338-.119-.125-.025-.259-.037-.4-.037h-.256v-.613h.313c.096 0 .191-.009.287-.025.1-.021.19-.054.27-.1.079-.05.143-.114.193-.193.05-.079.074-.182.074-.307 0-.1-.019-.185-.057-.256-.038-.071-.086-.13-.148-.176-.058-.046-.128-.079-.207-.1-.079-.021-.163-.031-.25-.031-.188 0-.354.03-.5.088-.146.054-.274.117-.387.188l-.275-.563c.058-.037.13-.077.213-.119.083-.042.173-.082.273-.119.104-.037.215-.067.332-.088.117-.025.24-.037.369-.037z" fill="#3a3a3a"/>
</svg>
