<svg viewBox="0 0 24 24" xmlns="http://www.w3.org/2000/svg">
 <path d="m4 2c-1.108 0-2 .892-2 2v16c0 1.108.892 2 2 2h16c1.108 0 2-.892 2-2v-16c0-1.108-.892-2-2-2zm3.686 5.75c1.25 0 2.205.229 2.863.688.667.458 1 1.158 1 2.1 0 1.175-.58 1.972-1.738 2.389.158.192.337.424.537.699.2.275.405.575.613.9.208.317.408.645.6.986.192.333.364.663.514.988h-1.764c-.158-.3-.328-.6-.512-.9-.183-.308-.371-.603-.563-.887-.183-.292-.367-.563-.551-.813-.183-.258-.353-.488-.512-.688-.117.008-.217.012-.301.012h-.236-.764v3.275h-1.574v-8.537c.383-.083.791-.137 1.225-.162.433-.033.82-.051 1.162-.051zm.113 1.363c-.333 0-.642.012-.926.037v2.799h.688c.383 0 .722-.021 1.014-.063.292-.042.533-.116.725-.225.2-.108.349-.254.449-.438.1-.183.15-.416.15-.699 0-.267-.05-.492-.15-.676-.1-.183-.246-.329-.438-.438-.183-.108-.404-.183-.662-.225-.258-.05-.541-.074-.85-.074zm8.207.688c.458 0 .88.083 1.264.25.392.158.725.387 1 .688.275.3.487.661.637 1.086.158.417.238.884.238 1.4 0 .517-.077.987-.227 1.412-.15.425-.362.788-.637 1.088-.275.3-.608.535-1 .701-.383.167-.809.25-1.275.25-.467 0-.892-.083-1.275-.25-.383-.167-.711-.401-.986-.701-.275-.3-.492-.663-.65-1.088-.15-.425-.225-.895-.225-1.412 0-.517.075-.984.225-1.4.158-.425.375-.786.65-1.086.283-.3.617-.529 1-.688.383-.167.803-.25 1.262-.25zm0 1.312c-.5 0-.89.191-1.174.574-.275.375-.414.887-.414 1.537 0 .658.139 1.179.414 1.563.283.383.674.576 1.174.576.5 0 .887-.193 1.162-.576.283-.383.426-.904.426-1.563 0-.65-.142-1.162-.426-1.537-.275-.383-.662-.574-1.162-.574z" fill="#3a3a3a"/>
</svg>
