<svg viewBox="0 0 24 24" xmlns="http://www.w3.org/2000/svg">
 <path d="m4 2c-1.108 0-2 .892-2 2v16c0 1.108.892 2 2 2h16c1.108 0 2-.892 2-2v-16c0-1.108-.892-2-2-2zm .742 5.588h5.563v1.338h-3.986v2.137h3.549v1.313h-3.549v2.537h4.287v1.338h-5.863v-8.662zm9.35 1.963c.383 0 .75.036 1.1.111.35.067.614.135.789.201l-.275 1.225c-.167-.075-.38-.143-.639-.201-.258-.067-.557-.1-.898-.1-.308 0-.558.054-.75.162-.192.1-.289.26-.289.477 0 .108.017.204.051.287.042.083.108.161.199.236.092.067.213.138.363.213.15.067.334.138.551.213.358.133.662.267.912.4.25.125.453.271.611.438.167.158.288.34.363.549.075.208.113.458.113.75 0 .625-.235 1.101-.701 1.426-.458.317-1.116.475-1.975.475-.575 0-1.037-.05-1.387-.15-.35-.092-.597-.166-.738-.225l.262-1.262c.225.092.492.178.801.262.317.083.674.125 1.074.125.4 0 .692-.045.875-.137.183-.1.275-.267.275-.5 0-.217-.099-.395-.299-.537-.192-.142-.513-.296-.963-.463-.275-.1-.53-.204-.764-.313-.225-.117-.419-.25-.586-.4-.167-.15-.3-.329-.4-.537-.092-.217-.139-.479-.139-.787 0-.6.222-1.072.664-1.414.442-.35 1.04-.523 1.799-.523zm4.219 4.768c.242 0 .45.03.625.088.175.058.319.142.432.25.117.104.202.229.256.375.058.142.088.298.088.469 0 .2-.055.379-.168.537-.108.158-.251.28-.426.363.225.079.411.209.557.393.15.183.225.42.225.707 0 .192-.033.37-.1.537-.067.163-.169.305-.307.426-.137.117-.313.21-.525.281-.208.067-.458.1-.75.1-.113 0-.229-.009-.35-.025-.117-.012-.23-.032-.338-.057-.104-.021-.2-.043-.287-.068-.087-.029-.153-.055-.199-.08l.15-.645c.087.042.214.09.381.145.167.05.373.074.619.074.329 0 .565-.063.711-.188.146-.129.219-.299.219-.512 0-.137-.028-.252-.086-.344-.054-.092-.132-.165-.232-.219-.096-.058-.209-.098-.338-.119-.125-.025-.257-.037-.398-.037h-.258v-.613h.313c.096 0 .193-.009.289-.025.1-.021.188-.054.268-.1.079-.05.143-.114.193-.193.05-.079.076-.182.076-.307 0-.1-.019-.185-.057-.256-.038-.071-.088-.13-.15-.176-.058-.046-.126-.079-.205-.1-.079-.021-.163-.031-.25-.031-.188 0-.354.03-.5.088-.146.054-.276.117-.389.188l-.275-.563c.058-.037.13-.077.213-.119.083-.042.175-.082.275-.119.104-.037.215-.067.332-.088.117-.025.238-.037.367-.037z" fill="#3a3a3a"/>
</svg>
