<svg viewBox="0 0 24 24" xmlns="http://www.w3.org/2000/svg">
 <path d="m4 2c-1.108 0-2 .892-2 2v16c0 1.108.892 2 2 2h16c1.108 0 2-.892 2-2v-16c0-1.108-.892-2-2-2zm .914 5.588h1.574v7.299h3.9v1.363h-5.475v-8.662zm5.252 2.125h1.613c.092.367.196.763.313 1.188.125.417.253.837.387 1.262.142.417.284.825.426 1.225.15.392.287.746.412 1.063.125-.317.259-.671.4-1.063.142-.4.279-.808.412-1.225.142-.425.275-.845.4-1.262.125-.425.233-.821.324-1.188h1.563c-.358 1.275-.758 2.471-1.199 3.588-.433 1.108-.859 2.091-1.275 2.949h-1.299c-.417-.858-.847-1.841-1.289-2.949-.433-1.117-.829-2.313-1.188-3.588zm8.344 4.705h.531v4.332h-.758v-3.318c-.113.088-.253.173-.424.256-.171.083-.336.153-.494.207l-.23-.576c.242-.096.483-.219.725-.369.246-.15.463-.327.65-.531z" fill="#3a3a3a"/>
</svg>
