<svg viewBox="0 0 24 24" xmlns="http://www.w3.org/2000/svg">
 <path d="m4 2c-1.108 0-2 .892-2 2v16c0 1.108.892 2 2 2h16c1.108 0 2-.892 2-2v-16c0-1.108-.892-2-2-2zm1.383 5.838h1.576v3.574c.275-.275.561-.567.861-.875.3-.317.597-.633.889-.949.3-.325.583-.637.85-.938.267-.3.508-.571.725-.813h1.889c-.275.317-.567.645-.875.986-.308.342-.626.689-.951 1.039-.325.342-.653.682-.986 1.023-.325.342-.646.668-.963.977.35.267.704.579 1.063.938.367.35.724.728 1.074 1.137.35.4.683.82 1 1.262.325.433.622.867.889 1.301h-1.863c-.217-.333-.467-.684-.75-1.051-.283-.367-.584-.721-.9-1.063-.308-.342-.63-.666-.963-.975-.333-.308-.661-.574-.986-.799v3.887h-1.576v-8.662zm10.537 1.963c.458 0 .88.083 1.264.25.392.158.725.387 1 .688.275.3.487.661.637 1.086.158.417.238.884.238 1.4 0 .517-.075.987-.225 1.412-.15.425-.364.788-.639 1.088-.275.3-.608.535-1 .701-.383.167-.809.25-1.275.25-.467 0-.89-.083-1.273-.25-.383-.167-.713-.401-.988-.701-.275-.3-.492-.663-.65-1.088-.15-.425-.225-.895-.225-1.412 0-.517.075-.984.225-1.4.158-.425.375-.786.65-1.086.283-.3.617-.529 1-.688.383-.167.803-.25 1.262-.25zm0 1.312c-.5 0-.89.191-1.174.574-.275.375-.412.887-.412 1.537 0 .658.137 1.179.412 1.563.283.383.674.576 1.174.576.5 0 .889-.193 1.164-.576.283-.383.424-.904.424-1.563 0-.65-.14-1.162-.424-1.537-.275-.383-.664-.574-1.164-.574z" fill="#3a3a3a"/>
</svg>
