<svg viewBox="0 0 24 24" xmlns="http://www.w3.org/2000/svg">
 <path d="m4 2c-1.108 0-2 .892-2 2v16c0 1.108.892 2 2 2h16c1.108 0 2-.892 2-2v-16c0-1.108-.892-2-2-2zm12.275 5.113c.25 0 .467.083.65.25.183.167.275.396.275.687 0 .283-.092.507-.275.674-.183.167-.4.25-.65.25-.258 0-.479-.083-.662-.25-.183-.167-.275-.39-.275-.674 0-.292.092-.521.275-.688.183-.167.404-.25.662-.25zm-10.182.725h1.738c.2.583.403 1.179.611 1.787.208.608.417 1.209.625 1.801.208.583.417 1.149.625 1.699.208.55.413 1.053.613 1.512.192-.458.391-.958.6-1.5.208-.55.417-1.119.625-1.711.217-.592.428-1.192.637-1.801.208-.608.41-1.204.602-1.787h1.688c-.508 1.475-1.05 2.949-1.625 4.424-.575 1.475-1.176 2.888-1.801 4.238h-1.512c-.625-1.35-1.229-2.763-1.813-4.238-.575-1.475-1.113-2.949-1.613-4.424zm9.432 2.125h1.514v6.537h-1.514z" fill="#3a3a3a"/>
</svg>
