<svg viewBox="0 0 24 24" xmlns="http://www.w3.org/2000/svg">
 <path d="m4 2c-1.108 0-2 .892-2 2v16c0 1.108.892 2 2 2h16c1.108 0 2-.892 2-2v-16c0-1.108-.892-2-2-2zm2.961 5.588h1.488c.292.617.575 1.242.85 1.875.275.633.551 1.3.826 2 .283.7.57 1.441.861 2.225.3.783.613 1.637.938 2.563h-1.699c-.117-.342-.238-.678-.363-1.012-.125-.333-.245-.675-.361-1.025h-3.65c-.117.35-.238.695-.363 1.037l-.35 1h-1.637c.325-.925.632-1.779.924-2.563.292-.783.575-1.525.85-2.225.283-.7.563-1.367.838-2 .275-.633.558-1.258.85-1.875zm.713 1.674c-.192.442-.412.98-.662 1.613-.242.633-.495 1.321-.762 2.063h2.85c-.267-.742-.525-1.433-.775-2.074-.25-.642-.467-1.177-.65-1.602zm7.82.313c.1 0 .216.009.35.025.133.008.267.026.4.051.133.017.262.041.387.074.125.025.226.051.301.076l-.262 1.273c-.125-.042-.3-.083-.525-.125-.217-.05-.472-.074-.764-.074-.167 0-.345.017-.537.051-.183.033-.312.061-.387.086v5.238h-1.514v-6.225c.292-.108.655-.209 1.088-.301.442-.1.93-.15 1.463-.15zm1.848 4.844h2.895v.576c-.137.154-.289.364-.451.631-.163.267-.315.569-.461.906-.146.333-.274.691-.383 1.074-.104.383-.168.765-.193 1.145h-.775c.025-.317.082-.65.17-1 .087-.35.193-.69.318-1.02.129-.333.268-.642.418-.93.154-.292.307-.537.457-.732h-1.994v-.65z" fill="#3a3a3a"/>
</svg>
