<svg viewBox="0 0 24 24" xmlns="http://www.w3.org/2000/svg">
 <path d="m4 2c-1.108 0-2 .892-2 2v16c0 1.108.892 2 2 2h16c1.108 0 2-.892 2-2v-16c0-1.108-.892-2-2-2zm-.344 5.588h1.574v3.574c.275-.275.563-.567.863-.875.3-.317.595-.633.887-.949.3-.325.585-.637.852-.938.267-.3.508-.571.725-.813h1.887c-.275.317-.567.645-.875.986-.308.342-.624.689-.949 1.039-.325.342-.655.682-.988 1.023-.325.342-.646.668-.963.977.35.267.704.579 1.063.938.367.35.726.728 1.076 1.137.35.4.683.82 1 1.262.325.433.62.867.887 1.301h-1.861c-.217-.333-.467-.684-.75-1.051-.283-.367-.584-.721-.9-1.063-.308-.342-.63-.666-.963-.975-.333-.308-.663-.574-.988-.799v3.887h-1.574v-8.662zm7.76 2.125h1.514v3.424c0 .7.099 1.2.299 1.5.208.3.568.451 1.076.451.183 0 .374-.009.574-.025.208-.017.363-.038.463-.063v-5.287h1.512v6.338c-.292.075-.67.15-1.137.225-.467.083-.979.125-1.537.125-.525 0-.968-.075-1.326-.225-.35-.15-.633-.358-.85-.625-.208-.267-.358-.585-.449-.951-.092-.375-.139-.783-.139-1.225zm7.982 4.605c.242 0 .45.03.625.088.175.058.317.142.43.25.117.104.204.229.258.375.058.142.086.298.086.469 0 .2-.055.379-.168.537-.108.158-.251.28-.426.363.225.079.411.209.557.393.15.183.225.42.225.707 0 .192-.033.37-.1.537-.067.163-.169.305-.307.426-.137.117-.311.21-.523.281-.208.067-.458.1-.75.1-.113 0-.231-.009-.352-.025-.117-.012-.228-.032-.336-.057-.104-.021-.202-.043-.289-.068-.087-.029-.153-.055-.199-.08l.15-.645c.087.042.214.09.381.145.167.05.373.074.619.074.329 0 .567-.063.713-.188.146-.129.219-.299.219-.512 0-.137-.03-.252-.088-.344-.054-.092-.132-.165-.232-.219-.096-.058-.207-.098-.336-.119-.125-.025-.259-.037-.4-.037h-.256v-.613h.313c.096 0 .191-.009.287-.025.1-.021.188-.054.268-.1.079-.05.145-.114.195-.193.05-.079.074-.182.074-.307 0-.1-.019-.185-.057-.256-.038-.071-.088-.13-.15-.176-.058-.046-.126-.079-.205-.1-.079-.021-.163-.031-.25-.031-.188 0-.354.03-.5.088-.146.054-.276.117-.389.188l-.273-.563c.058-.037.128-.077.211-.119.083-.042.175-.082.275-.119.104-.037.215-.067.332-.088.117-.025.24-.037.369-.037z" fill="#3a3a3a"/>
</svg>
