<svg viewBox="0 0 24 24" xmlns="http://www.w3.org/2000/svg">
 <path d="m4 2c-1.108 0-2 .892-2 2v16c0 1.108.892 2 2 2h16c1.108 0 2-.892 2-2v-16c0-1.108-.892-2-2-2zm1.865 5.588h1.576v8.662h-1.576zm6.264 1.963c.9 0 1.6.278 2.1.836.508.558.762 1.392.762 2.5 0 .083-.003.181-.012.289 0 .1-.005.19-.014.273h-4.313c.042.525.226.935.551 1.227.333.283.813.424 1.438.424.367 0 .7-.033 1-.1.308-.067.55-.138.725-.213l.201 1.238c-.083.042-.202.087-.352.137-.142.042-.308.08-.5.113-.183.042-.383.075-.6.1-.217.025-.437.037-.662.037-.575 0-1.075-.083-1.5-.25-.425-.175-.776-.413-1.051-.713-.275-.308-.478-.666-.611-1.074-.133-.417-.201-.872-.201-1.363 0-.575.083-1.078.25-1.512.175-.433.404-.791.688-1.074.283-.292.61-.509.977-.65.367-.15.742-.225 1.125-.225zm.012 1.262c-.233 0-.438.045-.613.137-.175.083-.324.196-.449.338-.117.142-.209.305-.275.488-.067.183-.112.371-.137.563h2.813c0-.208-.03-.405-.088-.588-.058-.192-.145-.355-.262-.488-.108-.142-.247-.249-.414-.324-.158-.083-.349-.125-.574-.125zm5.135 3.506c.462 0 .803.111 1.02.332.221.217.33.513.33.893 0 .15-.031.299-.094.445-.063.142-.142.28-.242.418-.096.133-.207.265-.332.395-.125.125-.25.246-.375.367-.067.063-.141.139-.225.227-.083.087-.163.174-.238.262-.075.087-.139.173-.193.256-.054.079-.084.147-.088.201h1.926v.637h-2.756c-.004-.033-.008-.073-.008-.119v-.111c0-.2.031-.384.094-.551.067-.171.154-.329.258-.475.104-.146.22-.283.35-.412.129-.129.258-.258.387-.383.1-.096.195-.19.287-.281.092-.092.172-.18.238-.268.071-.092.126-.184.168-.275.042-.096.063-.193.063-.293 0-.217-.063-.371-.188-.463-.125-.092-.276-.139-.455-.139-.117 0-.226.017-.326.051-.1.033-.188.073-.268.119-.075.046-.143.093-.201.143-.058.046-.102.084-.131.113l-.375-.531c.175-.167.38-.3.613-.4.238-.104.491-.156.762-.156z" fill="#3a3a3a"/>
</svg>
