<svg viewBox="0 0 24 24" xmlns="http://www.w3.org/2000/svg">
 <path d="m4 2c-1.108 0-2 .892-2 2v16c0 1.108.892 2 2 2h16c1.108 0 2-.892 2-2v-16c0-1.108-.892-2-2-2zm3.545 5.838h1.574v8.662h-1.574zm6.461 1.986c.492 0 .959.038 1.4.113.442.075.817.155 1.125.238v5.662c0 1.042-.267 1.804-.801 2.287-.525.483-1.332.725-2.424.725-.4 0-.792-.033-1.176-.1-.375-.067-.717-.153-1.025-.262l.275-1.289c.258.108.55.197.875.264.333.067.693.1 1.076.1.608 0 1.04-.125 1.299-.375.258-.25.389-.622.389-1.113v-.25c-.15.075-.352.152-.602.227-.242.075-.519.111-.836.111-.417 0-.8-.066-1.15-.199-.342-.133-.639-.33-.889-.588-.242-.258-.433-.58-.574-.963-.133-.392-.199-.841-.199-1.35 0-.475.069-.912.211-1.313.15-.4.364-.742.639-1.025.283-.283.625-.504 1.025-.662.4-.158.853-.238 1.361-.238zm.014 1.264c-.55 0-.972.182-1.264.549-.292.358-.438.834-.438 1.426 0 .642.137 1.112.412 1.412.283.292.646.438 1.088.438.242 0 .467-.033.676-.1.217-.067.392-.147.525-.238v-3.387c-.108-.025-.242-.046-.4-.063-.158-.025-.358-.037-.6-.037z" fill="#3a3a3a"/>
</svg>
