<svg viewBox="0 0 24 24" xmlns="http://www.w3.org/2000/svg">
 <g fill="#3a3a3a" transform="translate(0 -1028.8622)">
  <path d="m10 1045.86l-2 2c-1 1-1 1 0 1h8c1 0 1 0 0-1l-2-2v-1h-4z"/>
  <path d="m6 1032.86c-1.108 0-2 .892-2 2v9c0 1.108.892 2 2 2h12c1.108 0 2-.892 2-2v-9c0-1.108-.892-2-2-2zm0 2h12v9h-12z"/>
  <g transform="translate(-.28625505)">
   <path d="m7.316 1041.42h1.453v-4.123l-1.491.308v-1.119l1.483-.308h1.564v5.242h1.453v1.136h-4.46v-1.136z"/>
   <path d="m15.65 1039.36q0-1.196-.226-1.683-.222-.491-.752-.491-.53 0-.756.491-.226.487-.226 1.683 0 1.209.226 1.705.226.496.756.496.526 0 .752-.496.226-.496.226-1.705zm1.645.013q0 1.585-.684 2.448-.684.859-1.94.859-1.26 0-1.944-.859-.684-.863-.684-2.448 0-1.589.684-2.448.684-.863 1.944-.863 1.256 0 1.94.863.684.859.684 2.448z"/>
  </g>
 </g>
</svg>
