<svg viewBox="0 0 24 24" xmlns="http://www.w3.org/2000/svg">
 <path d="m4 2c-1.108 0-2 .892-2 2v16c0 1.108.892 2 2 2h16c1.108 0 2-.892 2-2v-16c0-1.108-.892-2-2-2zm-.063 5.588h5.563v1.338h-3.988v2.137h3.551v1.313h-3.551v2.537h4.287v1.338h-5.861v-8.662zm9.936 1.986c.533 0 .98.077 1.338.227.358.142.641.345.85.611.217.258.368.576.451.951.092.367.137.769.137 1.211v3.676h-1.512v-3.438c0-.35-.026-.645-.076-.887-.042-.25-.116-.452-.225-.602-.1-.158-.24-.269-.424-.336-.175-.075-.392-.113-.65-.113-.192 0-.391.012-.6.037-.208.025-.363.046-.463.063v5.275h-1.514v-6.324c.292-.083.672-.163 1.139-.238.467-.075.982-.113 1.549-.113zm5.449 4.744c.246 0 .454.037.625.107.175.071.317.161.426.273.113.113.194.238.244.375.05.137.074.271.074.4 0 .229-.063.434-.188.613-.125.175-.269.314-.432.418.246.133.428.288.545.463.121.175.182.382.182.619 0 .179-.031.346-.094.5-.063.154-.156.288-.281.4-.125.113-.281.199-.469.262-.183.063-.397.094-.639.094-.283 0-.518-.04-.705-.119-.188-.079-.339-.178-.451-.299-.113-.121-.194-.251-.244-.389-.046-.142-.068-.275-.068-.4 0-.125.017-.24.051-.344.038-.108.088-.205.15-.293.063-.092.132-.175.211-.25.079-.075.163-.141.25-.199-.192-.133-.334-.277-.43-.432-.092-.158-.139-.351-.139-.576 0-.162.031-.315.094-.461.067-.15.16-.282.281-.395.121-.113.267-.203.438-.27.171-.067.36-.1.568-.1zm0 .619c-.113 0-.21.019-.293.057-.079.033-.143.078-.193.137-.05.054-.088.115-.113.182-.025.063-.037.125-.037.188 0 .158.059.308.176.449.121.142.32.255.6.338.154-.096.274-.203.361-.324.087-.125.133-.283.133-.475 0-.054-.014-.113-.039-.176-.021-.067-.057-.127-.111-.182-.05-.054-.114-.099-.193-.137-.079-.037-.177-.057-.289-.057zm-.23 1.855c-.15.096-.272.214-.363.352-.092.133-.137.293-.137.48 0 .063.012.128.037.199.025.071.067.137.125.195.058.058.133.107.225.148.092.038.206.057.344.057.125 0 .235-.015.326-.049.092-.033.166-.079.225-.133.058-.058.102-.123.131-.193.029-.075.045-.15.045-.225 0-.117-.024-.219-.07-.307-.046-.087-.112-.162-.199-.225-.083-.067-.184-.122-.301-.168-.117-.05-.245-.095-.387-.133z" fill="#3a3a3a"/>
</svg>
