<svg viewBox="0 0 24 24" xmlns="http://www.w3.org/2000/svg">
 <path d="m4 2c-1.108 0-2 .892-2 2v16c0 1.108.892 2 2 2h16c1.108 0 2-.892 2-2v-16c0-1.108-.892-2-2-2zm12.348 4.551v7.486c0 .183.012.338.037.463.033.125.089.233.164.324.075.083.174.151.299.201.133.042.3.075.5.1l-.213 1.25c-.45-.008-.825-.059-1.125-.15-.292-.092-.524-.22-.699-.387-.175-.175-.3-.389-.375-.639-.067-.258-.1-.55-.1-.875v-7.523zm-12.05 1.037h1.463c.183.317.388.704.613 1.162.225.458.454.941.688 1.449.233.5.463 1.014.688 1.539.233.517.445.996.637 1.438.192-.442.4-.921.625-1.438.225-.525.454-1.039.688-1.539.233-.508.463-.991.688-1.449.225-.458.43-.845.613-1.162h1.424c.075.633.146 1.309.213 2.025.067.708.126 1.437.176 2.187.058.742.107 1.492.148 2.25.05.75.092 1.483.125 2.199h-1.549c-.033-1.01-.075-2.047-.125-3.113-.042-1.067-.11-2.1-.201-3.1-.092.192-.199.421-.324.688-.125.267-.259.558-.4.875-.142.308-.287.63-.438.963-.142.333-.282.658-.424.975-.133.308-.258.6-.375.875-.117.267-.217.496-.301.688h-1.176c-.083-.192-.182-.424-.299-.699-.117-.275-.247-.567-.389-.875-.133-.317-.274-.641-.424-.975-.142-.333-.284-.655-.426-.963-.142-.308-.275-.597-.4-.863-.125-.275-.233-.504-.324-.688-.092 1-.163 2.033-.213 3.1-.042 1.067-.078 2.105-.111 3.113h-1.551c.033-.717.072-1.458.113-2.225.05-.767.098-1.525.148-2.275.058-.758.121-1.491.187-2.199.067-.708.138-1.363.213-1.963zm14.965 6.73c.462 0 .801.111 1.018.332.221.217.332.513.332.893 0 .15-.031.299-.094.445-.063.142-.144.28-.244.418-.096.133-.205.265-.33.395-.125.125-.25.246-.375.367-.067.063-.143.139-.227.227-.083.087-.161.174-.236.262-.075.087-.139.173-.193.256-.054.079-.084.147-.088.201h1.924v.637h-2.756c-.004-.033-.006-.073-.006-.119v-.111c0-.2.031-.384.094-.551.067-.171.152-.329.256-.475.104-.146.22-.283.35-.412.129-.129.26-.258.389-.383.1-.096.195-.19.287-.281.092-.092.172-.18.238-.268.071-.092.126-.184.168-.275.042-.096.063-.193.063-.293 0-.217-.063-.371-.188-.463-.125-.092-.278-.139-.457-.139-.117 0-.224.017-.324.051-.1.033-.19.073-.27.119-.075.046-.141.093-.199.143-.058.046-.102.084-.131.113l-.375-.531c.175-.167.378-.3.611-.4.238-.104.493-.156.764-.156z" fill="#3a3a3a"/>
</svg>
