<svg viewBox="0 0 24 24" xmlns="http://www.w3.org/2000/svg">
 <path d="m4 2c-1.108 0-2 .892-2 2v16c0 1.108.892 2 2 2h16c1.108 0 2-.892 2-2v-16c0-1.108-.892-2-2-2zm1.316 5.588h1.574v7.299h3.9v1.363h-5.475v-8.662zm8.03.15v1.975h2.326v1.262h-2.326v2.662c0 .525.083.9.25 1.125.167.225.45.338.85.338.275 0 .518-.03.727-.088.217-.058.387-.112.512-.162l.25 1.201c-.175.075-.404.15-.688.225-.283.083-.617.125-1 .125-.467 0-.859-.063-1.176-.188-.308-.125-.553-.304-.736-.537-.183-.242-.314-.53-.389-.863-.075-.342-.111-.729-.111-1.162v-5.662l1.512-.25zm4.762 6.68h.531v4.332h-.756v-3.318c-.113.088-.253.173-.424.256-.171.083-.336.153-.494.207l-.232-.576c.242-.096.485-.219.727-.369.246-.15.461-.327.648-.531z" fill="#3a3a3a"/>
</svg>
