<svg viewBox="0 0 24 24" xmlns="http://www.w3.org/2000/svg">
 <path d="m4 2c-1.108 0-2 .892-2 2v16c0 1.108.892 2 2 2h16c1.108 0 2-.892 2-2v-16c0-1.108-.892-2-2-2zm-.725 5.588h1.287c.333.35.693.767 1.076 1.25.383.475.767.97 1.15 1.486.392.517.767 1.037 1.125 1.563.367.517.691 1 .975 1.451v-5.75h1.563v8.662h-1.338c-.283-.475-.599-.984-.949-1.525-.35-.55-.713-1.1-1.088-1.65-.375-.558-.759-1.095-1.15-1.611-.383-.525-.75-.995-1.1-1.412v6.199h-1.551v-8.662zm11.254 1.963c.458 0 .878.083 1.262.25.392.158.725.387 1 .688.275.3.487.661.637 1.086.158.417.238.884.238 1.4 0 .517-.075.987-.225 1.412-.15.425-.364.788-.639 1.088-.275.3-.608.535-1 .701-.383.167-.807.25-1.273.25-.467 0-.892-.083-1.275-.25-.383-.167-.713-.401-.988-.701-.275-.3-.492-.663-.65-1.088-.15-.425-.225-.895-.225-1.412 0-.517.075-.984.225-1.4.158-.425.375-.786.65-1.086.283-.3.617-.529 1-.688.383-.167.805-.25 1.264-.25zm0 1.313c-.5 0-.892.191-1.176.574-.275.375-.412.887-.412 1.537 0 .658.137 1.179.412 1.563.283.383.676.576 1.176.576.5 0 .887-.193 1.162-.576.283-.383.424-.904.424-1.563 0-.65-.14-1.162-.424-1.537-.275-.383-.662-.574-1.162-.574zm3.826 3.555h2.213v.639h-1.568c-.004.071-.011.152-.02.244-.004.088-.011.176-.02.268-.004.092-.009.18-.018.264-.008.083-.017.153-.025.211.617.033 1.072.176 1.363.426.296.246.443.583.443 1.012 0 .196-.033.378-.1.545-.067.167-.169.311-.307.432-.137.121-.311.216-.52.287-.208.067-.451.1-.73.1-.113 0-.227-.009-.344-.025-.117-.017-.23-.038-.338-.063-.104-.021-.198-.043-.281-.068-.083-.025-.146-.048-.188-.068l.145-.639c.087.042.212.089.375.139.167.046.368.068.605.068.163 0 .301-.017.418-.051.117-.038.21-.086.281-.148.075-.063.131-.134.164-.213.033-.083.049-.172.049-.264 0-.137-.026-.259-.08-.367-.054-.108-.152-.2-.289-.275-.133-.075-.314-.132-.543-.17-.225-.038-.51-.055-.855-.055.046-.4.08-.78.105-1.139.025-.363.046-.725.063-1.088z" fill="#3a3a3a"/>
</svg>
