<svg viewBox="0 0 24 24" xmlns="http://www.w3.org/2000/svg">
 <path d="m4 2c-1.108 0-2 .892-2 2v16c0 1.108.892 2 2 2h16c1.108 0 2-.892 2-2v-16c0-1.108-.892-2-2-2zm3.146 5.387c.542 0 1.021.063 1.438.188.425.117.758.247 1 .389l-.488 1.275c-.283-.158-.596-.28-.938-.363-.333-.083-.679-.125-1.037-.125-.425 0-.758.087-1 .262-.233.175-.35.422-.35.738 0 .192.036.358.111.5.083.133.196.255.338.363.15.108.322.207.514.299.2.092.415.18.648.264.408.15.771.303 1.088.461.325.15.596.334.813.551.225.208.397.458.514.75.117.283.174.629.174 1.037 0 .783-.28 1.393-.838 1.826-.55.425-1.357.637-2.424.637-.358 0-.688-.024-.988-.074-.292-.042-.554-.097-.787-.164-.225-.067-.421-.133-.588-.199-.167-.075-.3-.141-.4-.199l.463-1.289c.225.125.529.25.912.375.383.125.847.188 1.389.188.567 0 .978-.095 1.236-.287.258-.192.389-.463.389-.813 0-.208-.047-.387-.139-.537-.083-.15-.208-.284-.375-.4-.158-.125-.353-.238-.586-.338-.233-.108-.501-.213-.801-.313-.3-.108-.592-.225-.875-.35-.275-.133-.522-.295-.738-.486-.208-.192-.378-.421-.512-.688-.125-.267-.188-.588-.188-.963 0-.783.271-1.396.813-1.838.542-.45 1.28-.676 2.213-.676zm3.326 2.326h1.611c.092.367.196.763.313 1.188.125.417.255.837.389 1.262.142.417.282.825.424 1.225.15.392.287.746.412 1.063.125-.317.259-.671.4-1.063.142-.4.279-.808.412-1.225.142-.425.275-.845.4-1.262.125-.425.235-.821.326-1.188h1.563c-.358 1.275-.76 2.471-1.201 3.588-.433 1.108-.859 2.091-1.275 2.949h-1.299c-.417-.858-.845-1.841-1.287-2.949-.433-1.117-.829-2.313-1.188-3.588zm7.973 4.605c.242 0 .45.03.625.088.175.058.319.142.432.25.117.104.202.229.256.375.058.142.088.298.088.469 0 .2-.057.379-.17.537-.108.158-.249.28-.424.363.225.079.411.209.557.393.15.183.225.42.225.707 0 .192-.033.37-.1.537-.067.163-.169.305-.307.426-.137.117-.313.21-.525.281-.208.067-.458.1-.75.1-.112 0-.229-.009-.35-.025-.117-.012-.23-.032-.338-.057-.104-.021-.2-.043-.287-.068-.087-.029-.155-.055-.201-.08l.15-.645c.087.042.214.09.381.145.167.05.373.074.619.074.329 0 .567-.063.713-.188.146-.129.219-.299.219-.512 0-.137-.03-.252-.088-.344-.054-.092-.13-.165-.23-.219-.096-.058-.209-.098-.338-.119-.125-.025-.259-.037-.4-.037h-.256v-.613h.313c.096 0 .191-.009.287-.025.1-.021.19-.054.27-.1.079-.05.143-.114.193-.193.05-.079.074-.182.074-.307 0-.1-.017-.185-.055-.256-.038-.071-.088-.13-.15-.176-.058-.046-.128-.079-.207-.1-.079-.021-.163-.031-.25-.031-.188 0-.354.03-.5.088-.146.054-.274.117-.387.188l-.275-.563c.058-.037.13-.077.213-.119.083-.042.175-.082.275-.119.104-.037.213-.067.33-.088.117-.025.24-.037.369-.037z" fill="#3a3a3a"/>
</svg>
