<svg viewBox="0 0 24 24" xmlns="http://www.w3.org/2000/svg">
 <path d="m4 2c-1.108 0-2 .892-2 2v16c0 1.108.892 2 2 2h16c1.108 0 2-.892 2-2v-16c0-1.108-.892-2-2-2zm1.463 5.588h5.475v1.338h-3.9v2.211h3.463v1.338h-3.463v3.775h-1.574v-8.662zm9.04 1.986c.1 0 .216.009.35.025.133.008.267.026.4.051.133.017.262.041.387.074.125.025.226.051.301.076l-.264 1.273c-.125-.042-.298-.083-.523-.125-.217-.05-.472-.074-.764-.074-.167 0-.345.017-.537.051-.183.033-.312.061-.387.086v5.238h-1.514v-6.225c.292-.108.655-.209 1.088-.301.442-.1.93-.15 1.463-.15zm3.203 4.744c.508 0 .892.165 1.15.494.262.325.395.785.395 1.381 0 .842-.217 1.479-.65 1.912-.433.433-1.098.652-1.994.656l-.031-.631c.25 0 .476-.021.676-.063.204-.042.381-.108.531-.199.154-.092.283-.212.387-.357.104-.15.184-.332.238-.549-.1.046-.211.08-.332.105-.121.025-.237.037-.35.037-.258 0-.479-.033-.662-.1-.179-.071-.327-.166-.443-.287-.113-.125-.196-.269-.25-.432-.054-.163-.082-.338-.082-.525 0-.162.028-.326.082-.492.054-.171.139-.327.256-.469.117-.142.264-.256.443-.344.179-.092.391-.139.637-.139zm.02.625c-.121 0-.225.026-.313.076-.083.05-.153.114-.207.193-.054.079-.092.164-.117.256-.025.092-.039.182-.039.27 0 .254.061.445.182.574.125.129.32.193.582.193.121 0 .239-.01.355-.031.117-.025.217-.06.301-.105.004-.046.006-.086.006-.119v-.088c0-.167-.012-.323-.037-.469-.021-.15-.061-.278-.119-.387-.054-.113-.13-.201-.23-.264-.096-.067-.217-.1-.363-.1z" fill="#3a3a3a"/>
</svg>
