<svg viewBox="0 0 24 24" xmlns="http://www.w3.org/2000/svg">
 <path d="m4 2c-1.108 0-2 .892-2 2v16c0 1.108.892 2 2 2h16c1.108 0 2-.892 2-2v-16c0-1.108-.892-2-2-2zm4.873 5.637c.542 0 1.021.063 1.438.188.425.117.758.247 1 .389l-.486 1.275c-.283-.158-.596-.28-.938-.363-.333-.083-.681-.125-1.039-.125-.425 0-.758.087-1 .262-.233.175-.35.422-.35.738 0 .192.038.358.113.5.083.133.196.255.338.363.15.108.32.207.512.299.2.092.417.18.65.264.408.15.771.303 1.088.461.325.15.596.334.813.551.225.208.395.458.512.75.117.283.176.629.176 1.037 0 .783-.28 1.393-.838 1.826-.55.425-1.359.637-2.426.637-.358 0-.686-.024-.986-.074-.292-.042-.556-.097-.789-.164-.225-.067-.419-.133-.586-.199-.167-.075-.3-.141-.4-.199l.463-1.289c.225.125.529.25.912.375.383.125.845.188 1.387.188.567 0 .98-.095 1.238-.287.258-.192.387-.463.387-.813 0-.208-.045-.387-.137-.537-.083-.15-.208-.284-.375-.4-.158-.125-.355-.238-.588-.338-.233-.108-.501-.213-.801-.313-.3-.108-.592-.225-.875-.35-.275-.133-.52-.295-.736-.486-.208-.192-.38-.421-.514-.688-.125-.267-.188-.588-.188-.963 0-.783.271-1.396.813-1.838.542-.45 1.28-.676 2.213-.676zm6.301 2.164c.5 0 .922.063 1.264.188.342.125.613.298.813.523.208.225.354.501.438.826.092.317.137.665.137 1.049v3.963c-.233.05-.587.109-1.063.176-.467.075-.996.111-1.588.111-.392 0-.749-.036-1.074-.111-.325-.075-.605-.197-.838-.363-.225-.167-.404-.384-.537-.65-.125-.267-.188-.595-.188-.986 0-.375.071-.693.213-.951.15-.258.35-.467.6-.625.25-.167.536-.283.861-.35.333-.075.681-.111 1.039-.111.167 0 .34.012.523.037.183.017.38.05.588.1v-.25c0-.175-.021-.342-.063-.5-.042-.158-.116-.295-.225-.412-.1-.125-.237-.22-.412-.287-.167-.067-.38-.102-.639-.102-.35 0-.669.026-.961.076-.292.05-.53.107-.713.174l-.188-1.225c.192-.067.471-.133.838-.199.367-.067.757-.1 1.174-.1zm.301 3.773c-.167 0-.339.014-.514.039-.167.025-.319.07-.461.137-.133.067-.243.162-.326.287-.083.117-.125.268-.125.451 0 .358.113.608.338.75.225.133.529.199.912.199.467 0 .821-.024 1.063-.074v-1.676c-.083-.025-.203-.049-.361-.074-.158-.025-.334-.039-.525-.039z" fill="#3a3a3a"/>
</svg>
