<svg viewBox="0 0 24 24" xmlns="http://www.w3.org/2000/svg">
 <path d="m8.426 3.875c-2.444 0-4.426 1.984-4.426 4.432 0 .818.221 1.584.607 2.242-.101.496-.154 1.01-.154 1.537 0 4.221 3.418 7.641 7.633 7.641.477 0 .943-.043 1.396-.127.623.335 1.335.525 2.092.525 2.444 0 4.426-1.984 4.426-4.432 0-.707-.167-1.376-.461-1.969.115-.528.178-1.076.178-1.639 0-4.22-3.416-7.643-7.631-7.643-.445 0-.883.038-1.307.111-.682-.43-1.488-.68-2.354-.68m3.281 4.418l1.414 1.414-1.293 1.293h4.172v2h-4.172l1.293 1.293-1.414 1.414-3.707-3.707z" fill="#54cdee"/>
</svg>
