<?xml version="1.0" encoding="UTF-8" standalone="no"?>
<svg
   xmlns:dc="http://purl.org/dc/elements/1.1/"
   xmlns:cc="http://creativecommons.org/ns#"
   xmlns:rdf="http://www.w3.org/1999/02/22-rdf-syntax-ns#"
   xmlns:svg="http://www.w3.org/2000/svg"
   xmlns="http://www.w3.org/2000/svg"
   xmlns:sodipodi="http://sodipodi.sourceforge.net/DTD/sodipodi-0.dtd"
   xmlns:inkscape="http://www.inkscape.org/namespaces/inkscape"
   height="512"
   viewBox="0 0 512 512"
   width="512"
   version="1.1"
   id="svg2"
   inkscape:version="0.91 r13725"
   sodipodi:docname="libreoffice-impress.svg">
  <defs
     id="defs17" />
  <sodipodi:namedview
     pagecolor="#ffffff"
     bordercolor="#666666"
     borderopacity="1"
     objecttolerance="10"
     gridtolerance="10"
     guidetolerance="10"
     inkscape:pageopacity="0"
     inkscape:pageshadow="2"
     inkscape:window-width="1920"
     inkscape:window-height="1052"
     id="namedview15"
     showgrid="false"
     inkscape:zoom="0.4549501"
     inkscape:cx="-399.23301"
     inkscape:cy="86.353884"
     inkscape:window-x="1920"
     inkscape:window-y="0"
     inkscape:window-maximized="1"
     inkscape:current-layer="svg2" />
  <metadata
     id="metadata28">
    <rdf:RDF>
      <cc:Work
         rdf:about="">
        <dc:format>image/svg+xml</dc:format>
        <dc:type
           rdf:resource="http://purl.org/dc/dcmitype/StillImage" />
        <dc:title></dc:title>
      </cc:Work>
    </rdf:RDF>
  </metadata>
  <path
     style="fill:#f06acb;fill-rule:evenodd;fill-opacity:1"
     inkscape:connector-curvature="0"
     d="m 471.95,253.05 c 0,120.9 -98.01,218.9 -218.9,218.9 -120.9,0 -218.9,-98.01 -218.9,-218.9 0,-120.9 98.01,-218.9 218.9,-218.9 120.9,0 218.9,98.01 218.9,218.9"
     id="path6" />
  <path
     style="fill-opacity:0.06700003;fill-rule:evenodd"
     inkscape:connector-curvature="0"
     d="M 256,1 C 115.17,1 1,115.17 1,256 1,396.83 115.17,511 256,511 396.83,511 511,396.83 511,256 511,115.17 396.83,1 256,1 m 8.827,44.931 c 120.9,0 218.9,98 218.9,218.9 0,120.9 -98,218.9 -218.9,218.9 -120.9,0 -218.93,-98 -218.93,-218.9 0,-120.9 98.03,-218.9 218.93,-218.9"
     id="path8" />
  <g
     style="fill-opacity:0.12900002;fill-rule:evenodd"
     id="g10">
    <path
       inkscape:connector-curvature="0"
       d="m 256,4.433 c -138.94,0 -251.57,112.63 -251.57,251.57 0,138.94 112.63,251.57 251.57,251.57 138.94,0 251.57,-112.63 251.57,-251.57 C 507.57,117.063 394.94,4.433 256,4.433 m 5.885,38.556 c 120.9,0 218.9,98 218.9,218.9 0,120.9 -98,218.9 -218.9,218.9 -120.9,0 -218.93,-98 -218.93,-218.9 0,-120.9 98.03,-218.9 218.93,-218.9"
       id="path12" />
    <path
       inkscape:connector-curvature="0"
       d="m 256,8.356 c -136.77,0 -247.64,110.87 -247.64,247.64 0,136.77 110.87,247.64 247.64,247.64 136.77,0 247.64,-110.87 247.64,-247.64 C 503.64,119.226 392.77,8.356 256,8.356 m 2.942,31.691 c 120.9,0 218.9,98 218.9,218.9 0,120.9 -98,218.9 -218.9,218.9 -120.9,0 -218.93,-98 -218.93,-218.9 0,-120.9 98.03,-218.9 218.93,-218.9"
       id="path14" />
  </g>
  <path
     style="fill:#ffffff;fill-rule:evenodd;stroke:#000000;stroke-width:4.90399981;stroke-opacity:0.31000001"
     inkscape:connector-curvature="0"
     d="m 253.04,7.859 c -135.42,0 -245.19,109.78 -245.19,245.19 0,135.42 109.78,245.19 245.19,245.19 135.42,0 245.19,-109.78 245.19,-245.19 0,-135.42 -109.78,-245.19 -245.19,-245.19 z m 0,26.297 c 120.9,0 218.9,98 218.9,218.9 0,120.9 -98,218.9 -218.9,218.9 -120.9,0 -218.93,-98 -218.93,-218.9 0,-120.9 98.03,-218.9 218.93,-218.9 z"
     id="path16" />
  <path
     inkscape:connector-curvature="0"
     style="fill-opacity:0.23500001"
     id="path6-3"
     d="m 120.99688,145.60219 0,64.78099 1,0 0,1 1,0 0,1 1,0 0,1 0.969,0 0,0.969 1,0 0,1 1,0 0,1 1,0 0,1 1,0 0,1 1,0 0,1 0.969,0 0,0.969 1,0 0,1 1,0 0,1 1,0 0,1 1,0 0,1 1,0 0,1 0.969,0 0,0.969 1,0 0,1 1,0 0,1 1,0 0,1 1,0 0,1 1,0 0,1 0.969,0 0,0.969 1,0 0,1 1,0 0,1 1,0 0,1 1,0 0,1 1,0 0,1 1,0 0,1 0.969,0 0,0.969 1,0 0,1 1,0 0,1 1,0 0,1 1,0 0,0.563 -32.844,0 0,64.813 1,0 0,1 1,0 0,1 1,0 0,1 0.969,0 0,0.969 1,0 0,1 1,0 0,1 1,0 0,1 1,0 0,1 1,0 0,1 0.969,0 0,0.969 1,0 0,1 1,0 0,1 1,0 0,1 1,0 0,1 1,0 0,1 0.969,0 0,0.969 1,0 0,1 1,0 0,1 1,0 0,1 1,0 0,1 1,0 0,1 0.969,0 0,0.969 1,0 0,1 1,0 0,1 1,0 0,1 1,0 0,1 1,0 0,1 1,0 0,1 0.969,0 0,0.969 1,0 0,1 1,0 0,1 1,0 0,1 1,0 0,0.563 -32.844,0 0,21.594 1,0 0,1 1,0 0,1 1,0 0,1 0.969,0 0,0.969 1,0 0,1 1,0 0,1 1,0 0,1 1,0 0,1 1,0 0,1 0.969,0 0,0.969 1,0 0,1 1,0 0,1 1,0 0,1 1,0 0,1 1,0 0,1 0.969,0 0,0.969 1,0 0,1 1,0 0,1 1,0 0,1 1,0 0,1 1,0 0,1 0.969,0 0,0.969 1,0 0,1 1,0 0,1 1,0 0,1 1,0 0,1 1,0 0,1 1,0 0,1 0.969,0 0,0.969 1,0 0,1 1,0 0,1 1,0 0,1 1,0 0,1 1,0 0,1 0.969,0 0,0.969 1,0 0,1 1,0 0,1 1,0 0,1 1,0 0,1 1,0 0,1 0.969,0 0,0.969 1,0 0,1 1,0 0,1 1,0 0,1 1,0 0,1 1,0 0,1 1,0 0,1 0.969,0 0,0.969 1,0 0,1 1,0 0,1 1,0 0,1 1,0 0,1 1,0 0,1 0.969,0 0,0.969 1,0 0,1 1,0 0,1 1,0 0,1 1,0 0,1 1,0 0,1 0.969,0 0,0.969 1,0 0,1 1,0 0,1 1,0 0,1 1,0 0,1 1,0 0,1 0.969,0 0,0.969 1,0 0,1 1,0 0,1 1,0 0,1 1,0 0,1 1,0 0,1 1,0 0,1 0.969,0 0,0.969 1,0 0,1 1,0 0,1 1,0 0,1 1,0 0,1 1,0 0,1 0.969,0 0,0.969 1,0 0,1 1,0 0,1 1,0 0,1 1,0 0,1 1,0 0,1 0.969,0 0,0.969 1,0 0,1 1,0 0,1 1,0 0,1 1,0 0,1 1,0 0,1 1,0 0,1 0.969,0 0,0.969 1,0 0,1 1,0 0,1 1,0 0,1 1,0 0,1 1,0 0,1 0.969,0 0,0.969 1,0 0,1 1,0 0,1 1,0 0,1 1,0 0,1 1,0 0,1 0.969,0 0,0.969 1,0 0,1 1,0 0,1 1,0 0,0.281 c 10.124,1.435 20.448,2.219 30.969,2.219 116.1,0 211.08,-90.39 218.44,-204.62 -0.063,-0.062 -0.124,-0.126 -0.188,-0.188 -0.346,-0.352 -0.71,-0.686 -1.063,-1.031 -0.29,-0.294 -0.581,-0.585 -0.875,-0.875 -0.247,-0.252 -0.5,-0.502 -0.75,-0.75 -0.59,-0.609 -1.171,-1.224 -1.781,-1.813 -0.167,-0.167 -0.332,-0.335 -0.5,-0.5 -0.33,-0.337 -0.663,-0.67 -1,-1 -0.346,-0.352 -0.71,-0.686 -1.063,-1.031 -0.29,-0.294 -0.581,-0.585 -0.875,-0.875 -0.247,-0.252 -0.5,-0.502 -0.75,-0.75 -0.59,-0.609 -1.171,-1.224 -1.781,-1.813 -0.192,-0.192 -0.4,-0.373 -0.594,-0.563 -0.305,-0.31 -0.596,-0.633 -0.906,-0.938 -0.33,-0.337 -0.663,-0.67 -1,-1 -0.346,-0.352 -0.71,-0.686 -1.063,-1.031 -0.147,-0.155 -0.289,-0.315 -0.438,-0.469 -0.057,-0.057 -0.13,-0.099 -0.188,-0.156 -0.59,-0.609 -1.171,-1.224 -1.781,-1.813 -0.192,-0.192 -0.4,-0.373 -0.594,-0.563 -0.305,-0.31 -0.596,-0.633 -0.906,-0.938 -0.33,-0.337 -0.663,-0.67 -1,-1 -0.346,-0.352 -0.71,-0.686 -1.063,-1.031 -0.29,-0.294 -0.581,-0.585 -0.875,-0.875 -0.247,-0.252 -0.5,-0.502 -0.75,-0.75 -0.59,-0.609 -1.171,-1.224 -1.781,-1.813 -0.167,-0.167 -0.332,-0.335 -0.5,-0.5 -0.33,-0.337 -0.663,-0.67 -1,-1 -0.346,-0.352 -0.71,-0.686 -1.063,-1.031 -0.29,-0.294 -0.581,-0.585 -0.875,-0.875 -0.247,-0.252 -0.5,-0.502 -0.75,-0.75 -0.59,-0.609 -1.171,-1.224 -1.781,-1.813 -0.192,-0.192 -0.4,-0.373 -0.594,-0.563 -0.305,-0.31 -0.596,-0.633 -0.906,-0.938 -0.33,-0.337 -0.663,-0.67 -1,-1 -0.346,-0.352 -0.71,-0.686 -1.063,-1.031 -0.147,-0.155 -0.289,-0.315 -0.438,-0.469 -0.057,-0.057 -0.13,-0.099 -0.188,-0.156 -0.59,-0.609 -1.171,-1.224 -1.781,-1.813 -0.192,-0.192 -0.4,-0.373 -0.594,-0.563 -0.305,-0.31 -0.596,-0.633 -0.906,-0.938 -0.33,-0.337 -0.663,-0.67 -1,-1 -0.346,-0.352 -0.71,-0.686 -1.063,-1.031 -0.147,-0.155 -0.289,-0.315 -0.438,-0.469 -0.057,-0.057 -0.13,-0.099 -0.188,-0.156 -0.431,-0.444 -0.839,-0.91 -1.281,-1.344 -0.49,-0.5 -0.996,-0.983 -1.5,-1.469 -0.167,-0.167 -0.332,-0.335 -0.5,-0.5 -0.33,-0.337 -0.663,-0.67 -1,-1 -0.346,-0.352 -0.71,-0.686 -1.063,-1.031 -0.29,-0.294 -0.581,-0.585 -0.875,-0.875 -0.247,-0.252 -0.5,-0.502 -0.75,-0.75 -0.59,-0.609 -1.171,-1.224 -1.781,-1.813 -0.167,-0.167 -0.332,-0.335 -0.5,-0.5 -0.33,-0.337 -0.663,-0.67 -1,-1 -0.346,-0.352 -0.71,-0.686 -1.063,-1.031 -0.29,-0.294 -0.581,-0.585 -0.875,-0.875 -0.247,-0.252 -0.5,-0.502 -0.75,-0.75 -0.59,-0.609 -1.171,-1.224 -1.781,-1.813 -0.192,-0.192 -0.4,-0.373 -0.594,-0.563 -0.305,-0.31 -0.596,-0.633 -0.906,-0.938 -0.33,-0.337 -0.663,-0.67 -1,-1 -0.346,-0.352 -0.71,-0.686 -1.063,-1.031 -0.147,-0.155 -0.289,-0.315 -0.438,-0.469 -0.057,-0.057 -0.13,-0.099 -0.188,-0.156 -0.59,-0.609 -1.171,-1.224 -1.781,-1.813 -0.192,-0.192 -0.4,-0.373 -0.594,-0.563 -0.305,-0.31 -0.596,-0.633 -0.906,-0.938 -0.33,-0.337 -0.663,-0.67 -1,-1 -0.346,-0.352 -0.71,-0.686 -1.063,-1.031 -0.29,-0.294 -0.581,-0.585 -0.875,-0.875 -0.247,-0.252 -0.5,-0.502 -0.75,-0.75 -0.59,-0.609 -1.171,-1.224 -1.781,-1.813 -0.167,-0.167 -0.332,-0.335 -0.5,-0.5 -0.33,-0.337 -0.663,-0.67 -1,-1 -0.346,-0.352 -0.71,-0.686 -1.063,-1.031 -0.29,-0.294 -0.581,-0.585 -0.875,-0.875 -0.247,-0.252 -0.5,-0.502 -0.75,-0.75 -0.59,-0.609 -1.171,-1.224 -1.781,-1.813 -0.192,-0.192 -0.4,-0.373 -0.594,-0.563 -0.305,-0.31 -0.596,-0.633 -0.906,-0.938 -0.33,-0.337 -0.663,-0.67 -1,-1 -0.346,-0.352 -0.71,-0.686 -1.063,-1.031 -0.147,-0.155 -0.289,-0.315 -0.438,-0.469 -0.057,-0.057 -0.13,-0.099 -0.188,-0.156 -0.59,-0.609 -1.171,-1.224 -1.781,-1.813 -0.192,-0.192 -0.4,-0.373 -0.594,-0.563 -0.305,-0.31 -0.596,-0.633 -0.906,-0.938 -0.33,-0.337 -0.663,-0.67 -1,-1 -0.346,-0.352 -0.71,-0.686 -1.063,-1.031 -0.147,-0.155 -0.289,-0.315 -0.438,-0.469 -0.057,-0.057 -0.13,-0.099 -0.188,-0.156 -0.447,-0.46 -0.886,-0.926 -1.344,-1.375 -0.475,-0.483 -0.95,-0.968 -1.438,-1.438 -0.167,-0.167 -0.332,-0.335 -0.5,-0.5 -0.33,-0.337 -0.663,-0.67 -1,-1 -0.346,-0.352 -0.71,-0.686 -1.063,-1.031 -0.29,-0.294 -0.581,-0.585 -0.875,-0.875 -0.247,-0.252 -0.5,-0.502 -0.75,-0.75 -0.59,-0.609 -1.171,-1.224 -1.781,-1.813 -0.167,-0.167 -0.332,-0.335 -0.5,-0.5 -0.33,-0.337 -0.663,-0.67 -1,-1 -0.346,-0.352 -0.71,-0.686 -1.063,-1.03099 -0.29,-0.294 -0.581,-0.585 -0.875,-0.875 -0.247,-0.252 -0.5,-0.502 -0.75,-0.75 -13.738,-14.16 -32.957,-22.969 -54.25,-22.969 l 0,21.719 c -0.295,0 -0.581,0.027 -0.875,0.031 l 0,-1.031 c -0.326,0 -0.644,0.027 -0.969,0.031 l 0,-1 c -0.334,0 -0.667,0.027 -1,0.031 l 0,-1.031 c -0.334,0 -0.667,0.027 -1,0.031 l 0,-1.031 c -0.334,0 -0.667,0.027 -1,0.031 l 0,-1.031 c -0.337,0 -0.664,0.027 -1,0.031 l 0,-1.031 c -0.337,0 -0.664,0.027 -1,0.031 l 0,-1.031 c -0.326,0 -0.644,0.027 -0.969,0.031 l 0,-1 c -0.334,0 -0.667,0.027 -1,0.031 l 0,-1.031 c -0.334,0 -0.667,0.027 -1,0.031 l 0,-1.031 c -0.334,0 -0.667,0.027 -1,0.031 l 0,-1.031 c -26.446,0 -49.71,13.586 -63.22,34.15999 l 0,-0.156 -1,0 0,-1 -1,0 0,-1 -1,0 0,-1 -1,0 0,-1 -0.969,0 0,-0.969 -1,0 0,-1 -1,0 0,-1 -1,0 0,-1 -1,0 0,-1 -1,0 0,-1 -0.969,0 0,-0.969 -1,0 0,-1 -1,0 0,-1 -1,0 0,-1 -1,0 0,-1 -1,0 0,-1 -0.969,0 0,-0.969 -1,0 0,-1 -1,0 0,-1 -1,0 0,-1 -1,0 0,-0.99999 -1,0 0,-1 -1,0 0,-1 -0.969,0 0,-0.969 -1,0 0,-1 -1,0 0,-1 -1,0 0,-1 -1,0 0,-1 -1,0 0,-1 -0.969,0 0,-0.969 -1,0 0,-1 -1,0 0,-1 -1,0 0,-1 -1,0 0,-1 -1,0 0,-1 -0.969,0 0,-0.969 -1,0 0,-1 -1,0 0,-1 -1,0 0,-1 -1,0 0,-1 -1,0 0,-1 -0.969,0 0,-0.969 -1,0 0,-1 -1,0 0,-1 -1,0 0,-1 -86.41,0" />
  <g
     id="g66"
     transform="matrix(1.3984,0,0,1.3984,555.07688,1.6321863)"
     style="fill:#ffffff">
    <g
       id="g68"
       transform="matrix(27.369,0,0,27.369,-399.24,-5.194)"
       style="fill:#ffffff">
      <path
         inkscape:connector-curvature="0"
         id="path70"
         d="m 3.246,3.951 2.258,0 0,1.693 -2.258,0 z"
         style="fill:#ffffff" />
      <path
         inkscape:connector-curvature="0"
         id="path72"
         d="m 3.246,6.491 2.258,0 0,1.693 -2.258,0 z"
         style="fill:#ffffff" />
      <path
         inkscape:connector-curvature="0"
         id="path74"
         d="m 3.246,9.03 7.338,0 0,0.564 -7.338,0 z"
         style="fill:#ffffff" />
    </g>
    <g
       id="g76"
       transform="matrix(27.369,0,0,27.369,-391.52,-5.194)"
       style="fill:#ffffff">
      <path
         inkscape:connector-curvature="0"
         id="path78"
         d="m 8.326,3.951 0,1.976 1.976,0 c 0,-1.091 -0.884,-1.976 -1.976,-1.976"
         style="fill:#ffffff" />
      <path
         inkscape:connector-curvature="0"
         id="path80"
         d="m 8.04,4.233 c -1.091,0 -1.976,0.884 -1.976,1.976 0,1.091 0.884,1.976 1.976,1.976 1.091,0 1.976,-0.884 1.976,-1.976 l -1.976,0 0,-1.976"
         style="fill:#ffffff" />
    </g>
  </g>
</svg>
