<?xml version="1.0" encoding="UTF-8" standalone="no"?>
<svg
   xmlns:dc="http://purl.org/dc/elements/1.1/"
   xmlns:cc="http://creativecommons.org/ns#"
   xmlns:rdf="http://www.w3.org/1999/02/22-rdf-syntax-ns#"
   xmlns:svg="http://www.w3.org/2000/svg"
   xmlns="http://www.w3.org/2000/svg"
   xmlns:sodipodi="http://sodipodi.sourceforge.net/DTD/sodipodi-0.dtd"
   xmlns:inkscape="http://www.inkscape.org/namespaces/inkscape"
   viewBox="0 0 16 16"
   version="1.1"
   id="svg12"
   sodipodi:docname="audio-volume-medium.svg"
   inkscape:version="0.92.0 r">
  <metadata
     id="metadata18">
    <rdf:RDF>
      <cc:Work
         rdf:about="">
        <dc:format>image/svg+xml</dc:format>
        <dc:type
           rdf:resource="http://purl.org/dc/dcmitype/StillImage" />
      </cc:Work>
    </rdf:RDF>
  </metadata>
  <defs
     id="defs16" />
  <sodipodi:namedview
     pagecolor="#ffffff"
     bordercolor="#666666"
     borderopacity="1"
     objecttolerance="10"
     gridtolerance="10"
     guidetolerance="10"
     inkscape:pageopacity="0"
     inkscape:pageshadow="2"
     inkscape:window-width="930"
     inkscape:window-height="1015"
     id="namedview14"
     showgrid="false"
     inkscape:zoom="14.75"
     inkscape:cx="-3.5932203"
     inkscape:cy="8"
     inkscape:window-x="15"
     inkscape:window-y="15"
     inkscape:window-maximized="0"
     inkscape:current-layer="svg12" />
  <path
     d="M 6.2902451,2.8717143 2.871415,6.2905714 V 9.7094286 L 6.2902451,13.128286 V 8.8547143 L 7.1449526,8 6.2902451,7.1452857 Z"
     id="path2"
     inkscape:connector-curvature="0"
     style="fill:#fdfdfd;stroke-width:0.85471088" />
  <path
     d="M 2.2731198,5.4358571 C 1.3474715,5.4358571 1.162,6.4298899 1.162,7.4871714 v 1.0256572 c 0,1.0572815 0.2076939,2.0513144 1.1111198,2.0513144 H 3.7261225 V 5.4358571"
     id="path4"
     inkscape:connector-curvature="0"
     style="fill:#fdfdfd;stroke-width:0.85471088" />
  <path
     d="M 12.392857,2.017 11.1843,3.225566 C 12.109094,4.1503669 13.119358,5.8179144 13.127905,8 c 0,2.180376 -1.019666,3.851343 -1.943605,4.774434 L 12.392857,13.983 C 13.636456,12.739391 14.85356,10.564143 14.836466,8 14.866376,5.4358571 13.635601,3.2597546 12.392857,2.017"
     id="path6"
     inkscape:connector-curvature="0"
     style="opacity:0.4;fill:#fcfcfc;fill-rule:evenodd;stroke-width:0.85471088" />
  <path
     d="M 10.563783,3.8255754 9.3586451,5.0307226 C 10.027881,5.6999639 10.563783,6.7769039 10.563783,8 c 0,1.2230961 -0.535902,2.300036 -1.2051379,2.969277 l 1.2051379,1.205148 C 11.654389,11.083809 12.273198,9.5846403 12.273198,8 c 0,-1.5778026 -0.621373,-3.0863733 -1.709415,-4.1744246"
     id="path8"
     inkscape:connector-curvature="0"
     style="fill:#fdfdfd;fill-rule:evenodd;stroke-width:0.85471088" />
  <path
     d="M 8.5372711,5.4358571 7.3235865,6.6410043 C 7.9996601,7.1940044 7.9996601,7.8341854 7.9996601,8 c 0,0.1649599 -0.015385,0.8042861 -0.6760736,1.3589957 L 8.5372711,10.564143 C 9.5783049,9.669257 9.7090751,8.5111191 9.7090751,8 c 0,-0.5128286 -0.1247873,-1.6555816 -1.171804,-2.5641429"
     id="path10"
     inkscape:connector-curvature="0"
     style="fill:#fdfdfd;fill-rule:evenodd;stroke-width:0.85471088" />
</svg>
