<svg height="24" viewBox="0 0 24 24" width="24" xmlns="http://www.w3.org/2000/svg">
 <g transform="matrix(.05001523 0 0 .05001523 -.68175158 24.554637)">
  <path d="m419.72049-223.3075c-.0386.00064-.0766.002-.11525.002-.0129.00006-.0322.00006-.0451.00006-14.99346 0-37.17022-7.3977-48.42909-16.15537-.34446-.26784-.69408-.54728-1.0484-.83714-2.44313-1.99977-5.11682-4.51167-7.94814-7.33628-3.46184-3.45084-7.16018-7.37395-10.96752-11.41256-15.51112-16.45335-30.16185-31.99377-42.84018-31.99377-9.01264 0-19.39129 4.19965-29.42888 8.26241-8.3606 3.38317-17.0063 6.88178-22.63235 6.88178-5.62599 0-14.27086-3.49861-22.63145-6.88178-10.0376-4.06276-20.41709-8.26241-29.42888-8.26241-12.67917 0-27.33074 15.54126-42.84102 31.99467-2.88913 3.06458-5.71555 6.06259-8.42299 8.83879-3.64077 3.73098-7.06708 7.06496-10.14074 9.61877-.47517.39468-.94223.77121-1.40033 1.12752-5.09906 3.96644-12.43862 7.65409-20.33635 10.50176-9.53809 3.43912-19.89021 5.65316-28.092739 5.65361-5.557999 0-7.753436-1.0887-8.293442-1.42203-3.786288-2.33844-7.458033-3.52443-10.913505-3.52443-4.891346 0-9.01785 2.55722-10.768829 6.67336-2.158415 5.07478-.360562 11.308 4.806871 16.67477 14.88632 15.45987 47.231314 24.90454 89.774094 26.44298 4.09141.14809 8.27786.22278 12.55239.22278.34704 0 .6933-.002 1.03944-.006 31.56972-.35799 59.99656-16.94255 76.1753-32.47377 3.31859-3.18505 7.64746-3.34698 8.4812-3.34698l.0257-.003.15646.0579.5872-.0515.11139-.002c.83373 0 5.1635.16161 8.48209 3.34704 15.94586 15.30766 43.78897 31.63868 74.81321 32.4482.79833.0193 1.59871.0322 2.40115.0322 7.81692 0 15.33973-.25046 22.52895-.74076 37.61222-2.56502 66.09766-11.69805 79.79792-25.92545 5.16775-5.36587 6.96361-11.59992 4.80603-16.6747-1.75104-4.11614-5.87748-6.67336-10.76792-6.67336-3.45644 0-7.12729 1.18599-10.91357 3.52443-.53441.3303-2.69231 1.40059-8.13081 1.42171zm-77.32073 62.95619c-4.13075 0-8.27104-.23694-12.41389-.69421v27.615c0 8.75425 9.33823 13.42334 22.17849 13.42334 12.84019 0 42.0219 2.33496 53.69419-18.09243 6.00329-10.50613 9.84122-22.24133 12.15725-32.08165-20.41624 6.43475-46.01918 9.82995-75.61604 9.82995zm39.71031-93.22763c8.03937 6.25389 25.73305 12.16839 36.84294 12.37771-1.24549-29.23939-2.5891-62.19785-2.5891-73.15617 0-20.42655.59107-38.81096-5.83614-38.81096-16.34145 0-12.25628 70.9116-32.68373 88.42005-1.28161 1.099-2.59077 2.30573-3.91892 3.60974 3.08776 3.11442 5.92062 5.79822 8.18495 7.55963zm-283.960129 12.02507c10.924709-1.38495 25.261039-6.57601 32.265989-12.02455 2.78979-2.17052 6.44164-5.74144 10.3735-9.79557-.51831-.47002-1.03526-.93708-1.5452-1.37381-20.42739-17.50934-16.34228-88.42095-32.68366-88.42095-6.42619 0-5.83622 18.38448-5.83622 38.81186 0 10.91351-1.333238 43.65235-2.574409 72.80302zm71.975909 81.20256c-27.26267 0-51.14476-2.87587-70.698875-8.35802 2.346225 9.52425 6.095435 20.62293 11.802415 30.60972 11.6732 20.42739 40.85484 18.09243 53.69426 18.09243 12.84019 0 22.17843-4.66909 22.17843-13.42334v-28.21186c-5.66475.85441-11.32867 1.29107-16.97623 1.29107z" fill="#fefefe" fill-rule="evenodd"/>
  <circle cx="254.837" cy="-342.194" fill="#d60000" r="36.405"/>
 </g>
</svg>
