<svg xmlns="http://www.w3.org/2000/svg" viewBox="0 0 48 48">
 <g transform="translate(0,0.04999924)">
  <rect width="10" height="10" x="35.9" y="19" rx="2" style="fill:#b4b4b4;opacity:1;fill-opacity:1;"/>
  <rect rx="2" y="19" x="2" height="10" width="10" style="fill:#b4b4b4;opacity:1;fill-opacity:1;"/>
  <rect transform="matrix(0.70710678,0.70710678,-0.70710678,0.70710678,0,0)" width="10" height="10" x="11.96" y="-4.96" rx="2" style="fill:#b4b4b4;opacity:1;fill-opacity:1;"/>
  <rect rx="2" y="-28.95" x="2.05" height="10" width="10" transform="matrix(0,1,-1,0,0,0)" style="fill:#b4b4b4;opacity:1;fill-opacity:1;"/>
  <rect transform="matrix(-0.70710678,0.70710678,-0.70710678,-0.70710678,0,0)" width="10" height="10" x="-21.91" y="-38.91" rx="2" style="fill:#b4b4b4;opacity:1;fill-opacity:1;"/>
  <rect transform="matrix(0.70710678,0.70710678,-0.70710678,0.70710678,0,0)" rx="2" y="-4.96" x="45.86" height="10" width="10" style="fill:#b4b4b4;opacity:1;fill-opacity:1;"/>
  <rect width="10" height="10" x="35.95" y="-28.95" rx="2" transform="matrix(0,1,-1,0,0,0)" style="fill:#b4b4b4;opacity:1;fill-opacity:1;"/>
  <rect transform="matrix(-0.70710678,0.70710678,-0.70710678,-0.70710678,0,0)" rx="2" y="-38.91" x="11.98" height="10" width="10" style="fill:#b4b4b4;opacity:1;fill-opacity:1;"/>
  <g transform="matrix(2.75,0,0,2.75,2,2)">
   <path d="M 8 1.5 A 6.5 6.5 0 0 0 1.5 8 6.5 6.5 0 0 0 8 14.5 6.5 6.5 0 0 0 14.5 8 6.5 6.5 0 0 0 8 1.5 M 8 5 A 3 3 0 0 1 11 8 3 3 0 0 1 8 11 3 3 0 0 1 5 8 3 3 0 0 1 8 5" style="fill:#b4b4b4;opacity:1;fill-opacity:1;"/>
  </g>
  <path d="M 24 11 A 13 13 0 0 0 11 24 13 13 0 0 0 24 37 13 13 0 0 0 37 24 13 13 0 0 0 24 11 m 0 7 a 6 6 0 0 1 6 6 6 6 0 0 1 -6 6 6 6 0 0 1 -6 -6 6 6 0 0 1 6 -6 z" style="fill:#2aa198;opacity:1;fill-opacity:1;"/>
 </g>
</svg>
