<?xml version="1.0" encoding="UTF-8" standalone="no"?>
<svg xmlns="http://www.w3.org/2000/svg" width="16" height="16" version="1.1" viewBox="0 0 16 16">
 <g transform="translate(0,-1036.3622)">
  <g transform="translate(-401.01229,510.63371)">
   <g transform="translate(5.42985,-7.9865193)">
    <path d="m 386.57144,526.798 0,1 6.99999,0 1,-3 -1,2 z" style="fill:#ffffff;fill-opacity:0.23529412;fill-rule:evenodd;"/>
   </g>
   <g transform="translate(5.05585,-5.251147)">
    <path d="m 386.57144,526.798 0,1 6.99999,0 1,-3 -1,2 z" style="fill:#ffffff;fill-opacity:0.23529412;fill-rule:evenodd;"/>
    <g transform="translate(-11.317,5.8824915)" style="stroke:#000000;stroke-opacity:0.8">
     <g transform="translate(1.8733025,-0.28410538)">
      <g transform="translate(-2.0518724,-0.97858527)" style="fill:#000000;fill-opacity:1">
       <g transform="matrix(1.2542309,0,0,1.2542309,405.37478,-775.54573)">
        <g transform="matrix(0.33041456,0,0,0.33041456,1.9623858,1038.6839)">
         <g transform="matrix(1.1483543,0,0,1.1483543,-2.2928463,-1.978147)">
          <g style="fill:#4d4d4d;fill-opacity:1">
           <path d="m 4.8,32.019455 c -0.5,0 -0.9,-0.343969 -1,-0.77393 L 3.1,26 l 8.1,0 13.6,0 8.1,0 -0.7,5.245525 c -0.1,0.429961 -0.5,0.77393 -1,0.77393 z" style="opacity:1;fill:#4d4d4d;fill-opacity:1"/>
           <g style="fill:#4d4d4d;fill-opacity:1" transform="matrix(1,0,0,0.82171911,0,4.4570224)">
            <path d="m 31.8,27 -0.5,5 -26.5,0 -0.5,-5 6.4,0 14.8,0 6.3,0 M 34,25 24,25 2,25 2.4967786,32.2 c 0.1,1 0.6978671,1.8 1.6978671,1.8 l 27.7106433,0 c 1,0 1.597867,-0.8 1.697867,-1.8 z" style="fill:#4d4d4d;fill-opacity:1;"/>
           </g>
          </g>
          <path d="M 25,26 11,26 3.2,26 3,25 5.7,3.7 C 5.8,2.7 6.3966837,2 7.3966837,2 L 28.603376,2 C 29.603376,2 30.1,2.7 30.3,3.7 L 33,25 32.4,26 Z" stroke-miterlimit="10" style="fill:none;fill-opacity:0.12000002;stroke:#4d4d4d;stroke-width:2;stroke-linejoin:round;stroke-miterlimit:10;stroke-opacity:1"/>
         </g>
        </g>
        <g transform="translate(-415.54483,508.82119)">
         <g transform="translate(396.18792,-508.13499)">
          <g transform="translate(-396.09825,508.10667)">
           <g transform="matrix(0.00927984,-0.0066577,0.00924792,0.00668069,419.12343,534.38095)" style="fill:#4d4d4d;fill-opacity:1;">
            <path d="M 481.095,209.443 433.14,161.464 c -1.832,-1.823 -4.301,-2.852 -6.881,-2.852 -2.582,0 -5.051,1.02 -6.883,2.844 l -47.971,47.986 c -3.809,3.791 -3.809,9.956 0,13.749 l 6.691,6.683 -36.563,36.548 -84.964,-16.617 139.673,-139.672 17.684,17.684 c 1.897,1.897 4.65,2.669 7.248,2.031 2.614,-0.638 4.7,-2.581 5.514,-5.139 L 459.221,22.19 c 0.859,-2.732 0.127,-5.727 -1.898,-7.759 -2.039,-2.023 -5.018,-2.757 -7.757,-1.888 l -102.52,32.525 c -2.55,0.813 -4.509,2.9 -5.146,5.504 -0.638,2.614 0.143,5.361 2.039,7.257 l 17.699,17.701 -193.456,193.449 -17.923,-91.67 29.027,-29.027 c 14.099,2.868 29.314,-1.141 40.244,-12.069 17.35,-17.334 17.35,-45.444 -0.017,-62.794 -17.317,-17.334 -45.422,-17.31 -62.771,0.024 -10.945,10.929 -14.943,26.151 -12.075,40.251 l -38.221,38.219 c -5.768,5.761 -8.284,14.004 -6.707,22.003 l 26.75,136.765 -59.664,59.655 c -17.699,-5.313 -37.631,-1.202 -51.618,12.785 -20.265,20.282 -20.282,53.14 -0.017,73.422 20.297,20.296 53.164,20.296 73.444,0.016 13.989,-13.98 18.082,-33.895 12.777,-51.603 l 113.448,-113.44 130.066,25.441 c 1.562,0.304 3.139,0.455 4.7,0.455 6.42,0 12.667,-2.533 17.301,-7.17 l 45.756,-45.756 6.692,6.692 c 1.832,1.823 4.301,2.843 6.883,2.843 2.58,0 5.049,-1.027 6.881,-2.852 l 47.955,-47.978 c 3.809,-3.799 3.809,-9.949 0.002,-13.748 z" style="fill:#4d4d4d;fill-opacity:1;"/>
           </g>
          </g>
         </g>
        </g>
       </g>
      </g>
     </g>
    </g>
   </g>
  </g>
 </g>
</svg>
