<?xml version="1.0" encoding="UTF-8" standalone="no"?>
<svg xmlns="http://www.w3.org/2000/svg" width="16" height="16" version="1.1" viewBox="0 0 16 16">
 <defs>
  <filter id="filter7554" color-interpolation-filters="sRGB">
   <feBlend mode="darken" in2="BackgroundImage"/>
  </filter>
 </defs>
 <g transform="translate(0,-1036.3622)">
  <g transform="translate(-401.01229,510.63371)">
   <g transform="translate(5.42985,-7.9865193)">
    <path d="m 386.57144,526.798 0,1 6.99999,0 1,-3 -1,2 z" style="fill:#ffffff;fill-opacity:0.23529412;fill-rule:evenodd;"/>
   </g>
   <g transform="translate(5.05585,-5.251147)">
    <path d="m 386.57144,526.798 0,1 6.99999,0 1,-3 -1,2 z" style="fill:#ffffff;fill-opacity:0.23529412;fill-rule:evenodd;"/>
    <g transform="translate(-11.317,5.8824915)" style="stroke:#000000;stroke-opacity:0.8">
     <g transform="translate(1.8733025,-0.28410538)">
      <g transform="translate(-2.0518724,-0.97858527)" style="fill:#000000;fill-opacity:1">
       <g transform="matrix(1.2542309,0,0,1.2542309,405.37478,-775.54573)">
        <g transform="matrix(0.33041456,0,0,0.33041456,1.9623858,1038.6839)">
         <g transform="matrix(1.1483543,0,0,1.1483543,-2.2928463,-1.978147)">
          <g style="fill:#4d4d4d;fill-opacity:1">
           <path d="m 4.8,32.019455 c -0.5,0 -0.9,-0.343969 -1,-0.77393 L 3.1,26 l 8.1,0 13.6,0 8.1,0 -0.7,5.245525 c -0.1,0.429961 -0.5,0.77393 -1,0.77393 z" style="opacity:1;fill:#4d4d4d;fill-opacity:1"/>
           <g style="fill:#4d4d4d;fill-opacity:1" transform="matrix(1,0,0,0.82171911,0,4.4570224)">
            <path d="m 31.8,27 -0.5,5 -26.5,0 -0.5,-5 6.4,0 14.8,0 6.3,0 M 34,25 24,25 2,25 2.4967786,32.2 c 0.1,1 0.6978671,1.8 1.6978671,1.8 l 27.7106433,0 c 1,0 1.597867,-0.8 1.697867,-1.8 z" style="fill:#4d4d4d;fill-opacity:1;"/>
           </g>
          </g>
          <path d="M 25,26 11,26 3.2,26 3,25 5.7,3.7 C 5.8,2.7 6.3966837,2 7.3966837,2 L 28.603376,2 C 29.603376,2 30.1,2.7 30.3,3.7 L 33,25 32.4,26 Z" stroke-miterlimit="10" style="fill:none;fill-opacity:0.12000002;stroke:#4d4d4d;stroke-width:2;stroke-linejoin:round;stroke-miterlimit:10;stroke-opacity:1"/>
         </g>
        </g>
       </g>
       <g style="enable-background:new" transform="matrix(0.70777768,0,0,0.5706619,409.33802,528.27312)">
        <g transform="translate(-281.00021,52.031197)" style="filter:url(#filter7554)">
         <path d="m 289.5002,-47 c -1.38071,0 -2.5,1.11929 -2.5,2.5 0,1.38071 1.11929,2.5 2.5,2.5 1.38071,0 2.5,-1.11929 2.5,-2.5 0,-1.38071 -1.11929,-2.5 -2.5,-2.5 z m 0,1 c 0.82843,0 1.5,0.67157 1.5,1.5 0,0.82843 -0.67157,1.5 -1.5,1.5 -0.82843,0 -1.5,-0.67157 -1.5,-1.5 0,-0.82843 0.67157,-1.5 1.5,-1.5 z" style="fill:#555555;"/>
         <rect y="-41" x="288" width="3" height="1" style="fill:#555555;"/>
         <rect y="-39" x="288" width="3" height="1" style="fill:#555555;"/>
         <rect y="166.74" x="234.67" width="3" transform="matrix(0.70710678,-0.70710678,0.70710678,0.70710678,0,0)" height="1" style="fill:#555555;"/>
         <rect y="168.74" x="234.67" width="3" transform="matrix(0.70710678,-0.70710678,0.70710678,0.70710678,0,0)" height="1" style="fill:#555555;"/>
         <rect y="-242.67" x="171.74" width="3" transform="matrix(0.70710678,0.70710678,-0.70710678,0.70710678,0,0)" height="3" style="fill:#555555;"/>
        </g>
       </g>
      </g>
     </g>
    </g>
   </g>
  </g>
 </g>
</svg>
