<?xml version="1.0" encoding="UTF-8" standalone="no"?>
<svg xmlns="http://www.w3.org/2000/svg" width="22" height="22" version="1.1">
 <g transform="translate(-326,-534.3622)">
  <g transform="translate(-1,1)">
   <g transform="translate(327,-497)">
    <g>
     <path transform="translate(0,1030.3622)" d="m 11,3 c -4.432,0 -8,3.568 -8,8 0,4.432 3.568,8 8,8 4.432,0 8,-3.568 8,-8 0,-4.432 -3.568,-8 -8,-8 z m 0,7 c 0.553999,0 1,0.446001 1,1 0,0.553999 -0.446001,1 -1,1 -0.553999,0 -1,-0.446001 -1,-1 0,-0.553999 0.446001,-1 1,-1 z" style="opacity:1;fill:#4d4d4d;fill-opacity:1;"/>
    </g>
   </g>
   <g style="fill:#ffffff;fill-opacity:1" transform="matrix(0.0067331,0,0,0.0067331,340.398,542.2808)">
    <path d="m 603.771,288.632 0.019,-0.014 -145.988,50.245 c -26.528,9.163 -28.784,-0.569 -28.917,-3.242 l 0,-41.281 c 0,-25.533 -16.706,-46.258 -37.337,-46.258 l -354.202,0 C 16.725,248.082 0,268.807 0,294.339 L 0,559.94 c 0,25.523 16.725,46.229 37.346,46.229 l 354.202,0 c 20.631,0 37.337,-20.706 37.337,-46.229 l 0,-27.893 c 0.113,-2.181 2.199,-9.784 26.888,-3.926 l 150.768,35.915 c 5.442,1.706 11.719,1.308 11.719,-9.86 l 0,-254.593 c -0.002,-14.952 -9.938,-12.762 -14.489,-10.951 l 0,0 z" style="fill:#ffffff;fill-opacity:1"/>
    <path d="m 100.2,12.089 c 55.336,0 100.191,44.855 100.191,100.191 0,55.336 -44.854,100.191 -100.191,100.191 C 44.864,212.471 0.01,167.616 0.01,112.28 0.01,56.944 44.864,12.089 100.2,12.089 l 0,0 z" style="fill:#ffffff;fill-opacity:1"/>
    <path d="m 329.073,12.089 c 55.326,0 100.19,44.855 100.19,100.191 0,55.336 -44.864,100.191 -100.19,100.191 -55.332,0 -100.187,-44.855 -100.187,-100.191 0,-55.336 44.855,-100.191 100.187,-100.191 l 0,0 z" style="fill:#ffffff;fill-opacity:1"/>
   </g>
  </g>
 </g>
</svg>
