<?xml version="1.0" encoding="UTF-8" standalone="no"?>
<svg xmlns="http://www.w3.org/2000/svg" width="16" height="16" version="1.1" viewBox="0 0 16 16">
 <g transform="translate(0,-1036.3622)">
  <g transform="matrix(0.75,0,0,0.75,-244.75,635.34055)">
   <g transform="matrix(1.375,0,0,1.375,322.875,-887.51083)">
    <path style="fill:#ffffff;fill-opacity:1;" d="m 9.3636364,1044.3622 3.9999986,-3 -3.9999986,-3 z"/>
    <g transform="matrix(0.6517009,0,0,0.6517009,3.0368427,363.39251)">
     <g transform="matrix(1.1159609,0,0,1.1159609,-1.1724939,-120.69549)" style="fill:#4d4d4d;fill-opacity:1">
      <path transform="translate(0,1030.3622)" d="m 11,3 c -4.432,0 -8,3.568 -8,8 0,4.432 3.568,8 8,8 4.432,0 8,-3.568 8,-8 0,-4.432 -3.568,-8 -8,-8 z" style="fill:#4d4d4d;fill-opacity:1;"/>
     </g>
     <g transform="matrix(1.4226132,0,0,1.2679986,-23.052987,-280.9677)" style="fill:#ffffff;fill-opacity:1">
      <path d="m 22.276239,1046.0527 4,-3 -4,-3 z" style="fill:#ffffff;fill-opacity:1;"/>
     </g>
    </g>
   </g>
  </g>
 </g>
</svg>
