<svg height="512" viewBox="0 0 512 512" width="512" xmlns="http://www.w3.org/2000/svg">
 <text x="729.64" y="231.36">
  
 </text>
 <text x="1310.91" y="151.36">
  
 </text>
 <text x="239.33" y="-29.9">
  
 </text>
 <text x="1337.38" y="-246.37">
  
 </text>
 <text x="1918.65" y="-326.37">
  
 </text>
 <text x="1529.53" y="-798.77">
  
 </text>
 <text x="2110.79" y="-878.78">
  
 </text>
 <text x="277.99" y="535.94">
  
 </text>
 <path d="m250.27168 76.307119l-21.78167 55.258061-8.33601-26.21744-13.51185 34.28508-9.24337-4.77272-6.78963-10.58757-.77259 6.68854-35.79655-18.48675 25.00801 57.51084-55.12448-28.46901 22.251 51.12435-39.15887-8.53697 14.85606 18.65522-10.31922 3.29373 18.8225 7.42863 3.86534 4.80641-52.804309 16.80558 42.179429 16.60462-22.85632.97476 18.7888 14.01608-29.343884 18.8225 48.232564 5.47911-20.8394 40.3346 24.20052-10.52018-31.45707 34.21768 44.16625-6.42018-3.76426 17.30981-3.83164 4.1674 40.16612-5.84856 2.38636 56.4013 34.02032-45.57785 2.55484 60.63969 36.06611-48.32884.50423 11.76451 6.62115-8.84023 22.58795 20.77202-3.12645-21.41103 39.69559 36.47528-11.02441-75.8989 4.60544-.20217 42.99052 39.52832-5.98334-41.07229 3.29373-.13478 4.30218 2.21787-1.04215-2.35266 28.469-1.21544-39.49462-29.47746-.57162-3.86534 76.63298-3.22634-56.63235-42.25163 35.12746-11.19289-24.23662-9.54543 36.19849-39.35984-42.85574 6.218-27.36067-10.75605 22.11742-42.78835-29.74702 12.94024-1.31051-31.22601-33.20923 44.46951 35.22373-68.13693-51.92702 22.58796.0674-.30206-.7389.60532-3.96643 1.71365-8.00025-25.14159-8.67175 22.01634-20.36887-63.961098" fill="#3a3a3a" fill-rule="evenodd"/>
</svg>
