<svg viewBox="0 0 512 512" xmlns="http://www.w3.org/2000/svg">
 <path d="m244.58879 64.830367c-105.3906 0-191.169637 85.779033-191.169637 191.169633 0 105.3906 85.779037 191.16963 191.169637 191.16963 35.91351 0 69.65917-10.14412 98.3543-27.38728l8.78829-5.28798-6.09016-8.24203-29.02856-39.09393-4.84998-6.52816-7.11134 3.9383c-8.1153 4.46858-16.847 8.08085-25.99701 10.68547l-6.45434 1.82336-.29159 6.71026-.18209 4.01089c-9.99525 2.23798-20.5097 3.42772-31.28991 3.42772-10.90447 0-21.54195-1.21065-31.65409-3.50154l-.657-7.29343-.5475-5.87117-5.54266-2.04235c-16.57017-6.0348-31.472-15.48748-43.87133-27.5337l-4.4858-4.3763-5.76167 2.55294-9.51788 4.19422c-14.2313-15.28447-24.75436-33.84778-30.99217-54.51619l10.61165-6.45435 5.36058-3.28254-1.05809-6.20089c-1.14298-6.77177-1.71386-13.76131-1.71386-20.89603 0-9.59539 1.06547-18.87582 3.09922-27.78837l1.49486-6.52816-5.76167-3.50154-12.03392-7.33034c6.2132-20.56015 16.66368-39.02627 30.78301-54.27013l14.55119 7.29343 5.57957 2.80763 4.70481-4.1204c11.41998-9.97802 24.65594-17.89155 39.16652-23.15739l5.79858-2.11494.3285-6.16399.76526-15.24386c10.01617-2.24906 20.55769-3.42772 31.3625-3.42772 11.25266 0 22.20757 1.31769 32.60268 3.75622l4.52149 18.52886 1.09377 4.4489h.0369l.1095.47367 1.27585 5.36058 5.3249 1.45918c2.41269.65577 5.74321 1.80736 9.4822 3.28253l.87477.36418.91168.14641c.15625.0283.14641.0123.29159.0369 3.31452 1.51455 6.55523 3.05985 9.69997 4.63099l.0369.0369h.0369c.62132.30266 1.27217.65208 2.00545 1.02118 17.12874 8.62466 35.42753 22.63941 39.41997 31.65409l13.4205-4.9964c5.32244 9.56587 9.54741 19.86993 12.61833 30.7055l-10.42956 14.69637-2.15186 3.02662.51059 3.64672c.75789 5.47992 1.13068 11.2871 1.13068 17.1029 0 5.81703-.37156 11.58485-1.13068 17.06723l-.47368 3.64671 2.11495 2.99095 10.46647 14.80094-.72959 2.73504 2.29704 3.53722 8.53361 13.0551 8.75261 13.4205 7.29344-14.29527 31.3994-61.59063v-.0369l31.39941-60.97423 7.40663-14.44169-16.19123.87477-37.04542 2.04236c-6.61675-13.82283-14.74804-26.76596-24.28806-38.50952-2.84208-3.49908-5.81334-6.91449-8.93471-10.24747.56596.60409.32973.29405-.14641-.219-.0111-.0111-.0258-.0258-.0369-.0369-.4626-.49706-.97565-1.05686-1.56867-1.67695h-.0369v-.0369c-.46138-.4786-.73944-.70252-.80218-.76527-.006-.006.006-.0295 0-.0369h-.0369c-1.34107-1.38782-2.66983-2.70059-3.97522-3.97522-34.33253-33.526676-81.22679-54.331661-132.92552-54.331661m-4.1573 126.183281c-33.58449 0-60.82782 27.23964-60.82782 60.82782 0 33.58817 27.1166 61.41223 60.82782 61.41223 33.71367 0 61.44913-27.69979 61.44913-61.41223 0-33.71245-27.86465-60.82782-61.44913-60.82782" fill="#3a3a3a"/>
</svg>
