<svg height="512" viewBox="0 0 512 512" width="512" xmlns="http://www.w3.org/2000/svg">
 <text x="478.8" y="89.28">
  
 </text>
 <text x="-1880.03" y="367.4">
  
 </text>
 <text x="-1591.81" y="140.11">
  
 </text>
 <text x="2602.79" y="-116.79">
  
 </text>
 <text x="474.85" y="28.25">
  
 </text>
 <text x="-1883.98" y="306.36">
  
 </text>
 <text x="-1595.76" y="79.08">
  
 </text>
 <g fill-rule="evenodd">
  <path d="m471.95 253.05c0 120.9-98.01 218.9-218.9 218.9-120.9 0-218.9-98.01-218.9-218.9 0-120.9 98.01-218.9 218.9-218.9 120.9 0 218.9 98.01 218.9 218.9" fill="#d5c9da"/>
  <path d="m256 1c-140.83 0-255 114.17-255 255 0 140.83 114.17 255 255 255 140.83 0 255-114.17 255-255 0-140.83-114.17-255-255-255m8.827 44.931c120.9 0 218.9 98 218.9 218.9 0 120.9-98 218.9-218.9 218.9-120.9 0-218.93-98-218.93-218.9 0-120.9 98.03-218.9 218.93-218.9" fill-opacity=".067"/>
  <g fill-opacity=".129">
   <path d="m256 4.433c-138.94 0-251.57 112.63-251.57 251.57 0 138.94 112.63 251.57 251.57 251.57 138.94 0 251.57-112.63 251.57-251.57 0-138.94-112.63-251.57-251.57-251.57m5.885 38.556c120.9 0 218.9 98 218.9 218.9 0 120.9-98 218.9-218.9 218.9-120.9 0-218.93-98-218.93-218.9 0-120.9 98.03-218.9 218.93-218.9"/>
   <path d="m256 8.356c-136.77 0-247.64 110.87-247.64 247.64 0 136.77 110.87 247.64 247.64 247.64 136.77 0 247.64-110.87 247.64-247.64 0-136.77-110.87-247.64-247.64-247.64m2.942 31.691c120.9 0 218.9 98 218.9 218.9 0 120.9-98 218.9-218.9 218.9-120.9 0-218.93-98-218.93-218.9 0-120.9 98.03-218.9 218.93-218.9"/>
  </g>
  <path d="m253.04 7.859c-135.42 0-245.19 109.78-245.19 245.19 0 135.42 109.78 245.19 245.19 245.19 135.42 0 245.19-109.78 245.19-245.19 0-135.42-109.78-245.19-245.19-245.19zm0 26.297c120.9 0 218.9 98 218.9 218.9 0 120.9-98 218.9-218.9 218.9-120.9 0-218.93-98-218.93-218.9 0-120.9 98.03-218.9 218.93-218.9z" fill="#ffffff" stroke="#000000" stroke-opacity=".31" stroke-width="4.904"/>
 </g>
 <text x="729.64" y="231.36">
  
 </text>
 <text x="1310.91" y="151.36">
  
 </text>
 <text x="239.33" y="-29.9">
  
 </text>
 <text x="1337.38" y="-246.37">
  
 </text>
 <text x="1918.65" y="-326.38">
  
 </text>
 <text x="1529.53" y="-798.78">
  
 </text>
 <text x="2110.79" y="-878.78">
  
 </text>
 <text x="277.99" y="535.94">
  
 </text>
 <path d="m85.41 193.7l1.21 12.43 8.701-.847 3.952 40.604 6.452 66.29 16.521-1.608c-1.177 3.443-1.667 7.182-1.291 11.04 1.408 14.465 14.278 25.05 28.742 23.644 14.465-1.408 25.05-14.278 23.644-28.742-.375-3.857-1.565-7.433-3.383-10.584l14.851-1.445c-1.177 3.443-1.667 7.182-1.291 11.04 1.408 14.465 14.278 25.05 28.742 23.644 14.465-1.408 25.05-14.278 23.644-28.742-.375-3.857-1.565-7.433-3.383-10.584l18.994-1.849c-1.177 3.443-1.667 7.182-1.291 11.04 1.408 14.465 14.278 25.05 28.742 23.644 14.465-1.408 25.05-14.278 23.644-28.742-.375-3.857-1.565-7.433-3.383-10.584l18.994-1.849c-1.177 3.443-1.667 7.182-1.291 11.04 1.408 14.465 14.278 25.05 28.742 23.644 14.465-1.408 25.05-14.278 23.644-28.742-.375-3.857-1.565-7.433-3.383-10.584l9.413-.916 2.641 27.14 47.647-4.637-52.1-42.2-4.535-46.599-8.481.825.116-33.05 4.765-.464-1.452-14.916-49.36 4.804 1.452 14.916 8.494-.827 6.073 32.451-56.802 5.528c-.003-.721-.037-1.45-.108-2.185-1.041-10.698-9.12-18.666-18.04-17.797-8.924.869-15.315 10.245-14.274 20.942.072.736.18 1.457.315 2.165l-19.577 1.905c-1.975-7.03-5.599-11.793-9.269-11.436-3.67.357-6.308 5.728-6.89 13.01l-14.709 1.432-3.952-40.604 8.701-.847-1.21-12.43-109.38 10.646" fill="#ffffff" fill-rule="evenodd"/>
</svg>
