<svg height="512" viewBox="0 0 512 512" width="512" xmlns="http://www.w3.org/2000/svg">
 <g fill="#f9f9f9">
  <text x="859.16" y="229.53">
   
  </text>
  <text x="1463.98" y="272.65">
   
  </text>
  <text x="2193.96" y="172.18">
   
  </text>
  <text x="1486.27" y="129.47">
   
  </text>
  <text x="2216.24" y="29">
   
  </text>
  <text x="-956.12" y="496.14">
   
  </text>
 </g>
 <path d="m471.95 253.05c0 120.9-98.01 218.9-218.9 218.9-120.9 0-218.9-98.01-218.9-218.9 0-120.9 98.01-218.9 218.9-218.9 120.9 0 218.9 98.01 218.9 218.9" fill="#ababab" fill-rule="evenodd"/>
 <path d="m254.09 113.28c-23.787.457-42.38 24.362-38.28 47.688 5.065 42.15 18.14 83.02 21.563 125.47.447 12.149 1.833 23.05 9.938 26.688 2.967 4.201 7.112 7.119 10.375 10.969-26.718-2.5-48.4 28.508-35.75 52.594 9.949 16.54 26.658 27.535 40.09 41.19 16.448 15.515 33.3 30.67 49.969 46.03 75.65-21.11 134.79-81.83 153.63-158.41-61.18-61.2-122.29-122.49-183.66-183.5-7.04-6.01-16.404-8.749-25.563-8.688-.778-.035-1.545-.046-2.313-.031" fill-opacity=".235"/>
 <g fill-rule="evenodd">
  <path d="m256 1c-140.83 0-255 114.17-255 255s114.17 255 255 255 255-114.17 255-255-114.17-255-255-255m8.827 44.931c120.9 0 218.9 98 218.9 218.9s-98 218.9-218.9 218.9-218.93-98-218.93-218.9 98.03-218.9 218.93-218.9" fill-opacity=".067"/>
  <g fill-opacity=".129">
   <path d="m256 4.433c-138.94 0-251.57 112.63-251.57 251.57s112.63 251.57 251.57 251.57 251.57-112.63 251.57-251.57-112.63-251.57-251.57-251.57m5.885 38.556c120.9 0 218.9 98 218.9 218.9s-98 218.9-218.9 218.9-218.93-98-218.93-218.9 98.03-218.9 218.93-218.9"/>
   <path d="m256 8.356c-136.77 0-247.64 110.87-247.64 247.64s110.87 247.64 247.64 247.64 247.64-110.87 247.64-247.64-110.87-247.64-247.64-247.64m2.942 31.691c120.9 0 218.9 98 218.9 218.9s-98 218.9-218.9 218.9-218.93-98-218.93-218.9 98.03-218.9 218.93-218.9"/>
  </g>
  <path d="m253.04 7.859c-135.42 0-245.19 109.78-245.19 245.19 0 135.42 109.78 245.19 245.19 245.19 135.42 0 245.19-109.78 245.19-245.19 0-135.42-109.78-245.19-245.19-245.19zm0 26.297c120.9 0 218.9 98 218.9 218.9s-98 218.9-218.9 218.9-218.93-98-218.93-218.9 98.03-218.9 218.93-218.9z" fill="#ffffff" stroke="#000000" stroke-opacity=".31" stroke-width="4.904"/>
 </g>
 <text x="729.64" y="231.36">
  
 </text>
 <text x="1310.91" y="151.36">
  
 </text>
 <text x="239.33" y="-29.9">
  
 </text>
 <text x="1337.38" y="-246.37">
  
 </text>
 <text x="1918.65" y="-326.38">
  
 </text>
 <text x="1529.53" y="-798.78">
  
 </text>
 <text x="2110.79" y="-878.78">
  
 </text>
 <path d="m257.28 326.8c-18.709 0-34.12 15.04-34.12 33.02 0 19.442 15.04 34.85 33.749 34.85s34.12-15.407 34.12-34.12c0-18.709-15.04-33.749-33.749-33.749m15.04-16.14c2.568-35.22 4.769-50.26 12.839-86.21 7.337-30.815 8.804-38.518 8.804-48.79 0-24.578-14.307-40.35-36.32-40.35-20.91 0-37.05 16.14-37.05 36.684 0 12.11 1.467 20.91 8.804 54.659 6.236 28.25 9.538 49.89 12.839 84.01h30.08" fill="#f9f9f9" transform="matrix(1.1004 0 0 1.1004 -27.11 -35.591)"/>
</svg>
