<svg height="512" viewBox="0 0 512 512" width="512" xmlns="http://www.w3.org/2000/svg">
 <path d="m471.95 253.05c0 120.9-98.01 218.91-218.91 218.91s-218.91-98.01-218.91-218.91 98.01-218.91 218.91-218.91 218.91 98.01 218.91 218.91" fill="#9e9f9f" fill-rule="evenodd"/>
 <path d="m156.1607 186.82001c.115 69.67-13.59828 134.51848-13.59828 134.51848l165.11934 141.15515c10.77053 12.03765 162.96029-66.74775 161.19024-172.80764l-135.24455-114.07277-145.33726-11.4065" fill-opacity=".235"/>
 <g fill-rule="evenodd">
  <path d="m256 1c-140.83 0-255 114.17-255 255s114.17 255 255 255 255-114.17 255-255-114.17-255-255-255m8.827 44.931c120.9 0 218.9 98 218.9 218.9s-98 218.9-218.9 218.9-218.93-98-218.93-218.9 98.03-218.9 218.93-218.9" fill-opacity=".067"/>
  <g fill-opacity=".129">
   <path d="m256 4.43c-138.94 0-251.57 112.63-251.57 251.57s112.63 251.57 251.57 251.57 251.57-112.63 251.57-251.57-112.63-251.57-251.57-251.57m5.885 38.556c120.9 0 218.9 98 218.9 218.9s-98 218.9-218.9 218.9-218.93-98-218.93-218.9 98.03-218.9 218.93-218.9"/>
   <path d="m256 8.36c-136.77 0-247.64 110.87-247.64 247.64s110.87 247.64 247.64 247.64 247.64-110.87 247.64-247.64-110.87-247.64-247.64-247.64m2.942 31.691c120.9 0 218.9 98 218.9 218.9s-98 218.9-218.9 218.9-218.93-98-218.93-218.9 98.03-218.9 218.93-218.9"/>
  </g>
  <path d="m253.04 7.86c-135.42 0-245.19 109.78-245.19 245.19 0 135.42 109.78 245.19 245.19 245.19 135.42 0 245.19-109.78 245.19-245.19 0-135.42-109.78-245.19-245.19-245.19zm0 26.297c120.9 0 218.9 98 218.9 218.9s-98 218.9-218.9 218.9-218.93-98-218.93-218.9 98.03-218.9 218.93-218.9z" fill="#ffffff" stroke="#000000" stroke-opacity=".31" stroke-width="4.904"/>
 </g>
 <text x="729.64" y="231.36">
  
 </text>
 <text x="1310.91" y="151.36">
  
 </text>
 <text x="239.33" y="-29.9">
  
 </text>
 <text x="1337.38" y="-246.37">
  
 </text>
 <text x="1918.65" y="-326.37">
  
 </text>
 <text x="1529.53" y="-798.77">
  
 </text>
 <text x="2110.79" y="-878.78">
  
 </text>
 <text x="277.99" y="535.94">
  
 </text>
 <path d="m229.72959 215.50986l104.0019-39.80559v142.82492l-104.0019 10.97585z" fill="#e9e9ff" fill-rule="evenodd"/>
 <path d="m142.56847 186.85253v134.75064l87.16112 7.90187v-113.99518z" fill="#353564" fill-rule="evenodd"/>
 <path d="m142.56847 186.85253l101.55742-58.305 89.6056 47.15674-104.0019 39.80559z" fill="#4d4d9f" fill-rule="evenodd"/>
 <path d="m142.56847 321.60317l101.55742-16.0768 89.6056 13.00282-104.0019 10.97585z" fill="#393939" fill-rule="evenodd"/>
 <path d="m244.12589 128.54753v176.97884l89.6056 13.00282v-142.82492z" fill="#ffffff" fill-rule="evenodd"/>
 <path d="m142.56847 186.85253l101.55742-58.305v176.97884l-101.55742 16.0768z" fill="#eef4f6" fill-rule="evenodd"/>
</svg>
