<svg height="512" viewBox="0 0 512 512" width="512" xmlns="http://www.w3.org/2000/svg">
 <g fill-rule="evenodd">
  <path d="m471.95 253.05c0 120.9-98.01 218.91-218.91 218.91s-218.91-98.01-218.91-218.91 98.01-218.91 218.91-218.91 218.91 98.01 218.91 218.91" fill="#787878"/>
  <path d="m250.81 104.44c-25.21.891-39.757 27.511-62.781 36.16-21.483 14.509-51.994 21.625-70.75 34.438 2.813 67.837 25.64 135.85 67.16 189.84 33.23 35.867 68.71 69.64 103.16 104.38 104.48-16.57 184.34-107.05 184.34-216.19 0-1.221-.011-2.44-.031-3.656-2.319-2.422-4.603-4.855-7.344-6.969-3.672-4.845-8.938-8.512-12.594-13.375-5.127-3.905-8.614-9.04-13.75-12.938-3.628-4.881-8.923-8.505-12.563-13.375-5.126-3.905-8.612-9.04-13.75-12.938-3.638-4.888-8.95-8.532-12.594-13.406-10.418-9.683-32.16-12.181-46.44-20.969-27.805-12.164-53.29-29.32-76.62-48.19-6.518-2.101-13.445-2.559-20.25-2.625-1.781-.182-3.507-.247-5.188-.188" fill-opacity=".235"/>
  <path d="m256 1c-140.83 0-255 114.17-255 255s114.17 255 255 255 255-114.17 255-255-114.17-255-255-255m8.827 44.931c120.9 0 218.9 98 218.9 218.9s-98 218.9-218.9 218.9-218.93-98-218.93-218.9 98.03-218.9 218.93-218.9" fill-opacity=".067"/>
  <g fill-opacity=".129">
   <path d="m256 4.43c-138.94 0-251.57 112.63-251.57 251.57s112.63 251.57 251.57 251.57 251.57-112.63 251.57-251.57-112.63-251.57-251.57-251.57m5.885 38.556c120.9 0 218.9 98 218.9 218.9s-98 218.9-218.9 218.9-218.93-98-218.93-218.9 98.03-218.9 218.93-218.9"/>
   <path d="m256 8.36c-136.77 0-247.64 110.87-247.64 247.64s110.87 247.64 247.64 247.64 247.64-110.87 247.64-247.64-110.87-247.64-247.64-247.64m2.942 31.691c120.9 0 218.9 98 218.9 218.9s-98 218.9-218.9 218.9-218.93-98-218.93-218.9 98.03-218.9 218.93-218.9"/>
  </g>
  <path d="m253.04 7.86c-135.42 0-245.19 109.78-245.19 245.19 0 135.42 109.78 245.19 245.19 245.19 135.42 0 245.19-109.78 245.19-245.19 0-135.42-109.78-245.19-245.19-245.19zm0 26.297c120.9 0 218.9 98 218.9 218.9s-98 218.9-218.9 218.9-218.93-98-218.93-218.9 98.03-218.9 218.93-218.9z" fill="#ffffff" stroke="#000000" stroke-opacity=".31" stroke-width="4.904"/>
 </g>
 <text x="729.64" y="231.36">
  
 </text>
 <text x="1310.91" y="151.36">
  
 </text>
 <text x="239.33" y="-29.9">
  
 </text>
 <text x="1337.38" y="-246.37">
  
 </text>
 <text x="1918.65" y="-326.37">
  
 </text>
 <text x="1529.53" y="-798.77">
  
 </text>
 <text x="2110.79" y="-878.78">
  
 </text>
 <text x="277.99" y="535.94">
  
 </text>
 <path d="m256 104.63c-10.1 0-20.2 1.562-24.438 4.656-29.871 29.858-92.47 56.49-114.31 62.56 0 93.78 62.925 235.53 138.75 235.53 75.66 0 138.75-141.75 138.75-235.53-21.844-6.072-84.44-32.704-114.31-62.56-4.237-3.096-14.337-4.657-24.438-4.656m72.344 70.438a13.945 13.945 0 0 1 9.5625 24.156c-44.861 40.583-72.47 82.969-95.53 129.97a13.945 13.945 0 0 1 -22.938 3.0312l-46.25-53.688a13.945 13.945 0 0 1 17.562-21.25l29.03 16.531c30.937-41.26 65.5-75.11 99.25-94.84.119-.108.183-.225.313-.344.767-.443 1.608-1.255 2.375-1.688a13.945 13.945 0 0 1 4.375-1.6875 13.945 13.945 0 0 1 2.25-.1875" fill="#ffffff" fill-rule="evenodd"/>
 <text x="126.94" y="105.38">
  
 </text>
 <text x="708.21" y="25.38">
  
 </text>
 <text x="-363.37" y="-155.88">
  
 </text>
 <text x="734.68" y="-372.35">
  
 </text>
 <text x="1315.95" y="-452.35">
  
 </text>
 <text x="926.83" y="-924.75">
  
 </text>
 <text x="1508.09" y="-1004.76">
  
 </text>
 <text x="-324.71" y="409.96">
  
 </text>
 <text x="-28046.81" y="1187.11">
  
 </text>
 <text x="-28181.55" y="2099.17">
  
 </text>
 <g fill="#565656" transform="matrix(23.273 0 0 23.273 -918.71 -198.08)">
  <text transform="scale(1.0508 .95163)" x="-549.96" y="-204.06">
   
  </text>
  <text transform="scale(1.0508 .95163)" x="-145.93" y="-239.51">
   
  </text>
  <text x="-1695.66" y="-74.27">
   
  </text>
 </g>
 <g transform="matrix(23.273 0 0 23.273 -918.71 -198.08)">
  <text stroke="#545454" x="-1086.23" y="-599.63">
   
  </text>
  <text stroke="#545454" x="-1092.03" y="-560.44">
   
  </text>
  <g fill="#565656">
   <g stroke="#545454">
    <text transform="scale(1.0508 .95163)" x="-474.37" y="-896.71">
     
    </text>
    <text transform="scale(1.0508 .95163)" x="-70.35" y="-932.16">
     
    </text>
    <text x="-1616.23" y="-733.42">
     
    </text>
   </g>
  </g>
  <text stroke="#545454" x="-356.8" y="-887.07">
   
  </text>
  <text stroke="#545454" x="542.82" y="-1010.89">
   
  </text>
  <g fill="#565656">
   <text stroke="#565656" x="90.92" y="-21.43">
    
   </text>
   <text stroke="#565656" x="836.3" y="31.71">
    
   </text>
   <text stroke="#565656" x="1735.91" y="-92.11">
    
   </text>
   <text stroke="#565656" x="863.76" y="-144.75">
    
   </text>
   <text stroke="#565656" x="1763.38" y="-268.56">
    
   </text>
   <text stroke="#565656" x="-2146.22" y="307.14">
    
   </text>
  </g>
 </g>
</svg>
