<svg height="512" viewBox="0 0 512 512" width="512" xmlns="http://www.w3.org/2000/svg">
 <path d="m471.95 253.05c0 120.9-98.01 218.91-218.91 218.91s-218.91-98.01-218.91-218.91 98.01-218.91 218.91-218.91 218.91 98.01 218.91 218.91" fill="#ababab" fill-rule="evenodd"/>
 <path d="m344.19 125.56c-9.842-.069-19.935 1.048-29.531.281h-154.75c-22.2-.792-37.412 21.695-34.06 42.38.127 62.51-.258 125.03.188 187.53 2.652 19.503 21.09 29.798 32.938 43.625 23.826 23.803 47.629 47.623 71.44 71.44 7.44.764 14.983 1.156 22.625 1.156 120.9 0 218.91-98.01 218.91-218.91 0-7.674-.386-15.28-1.156-22.75-32.743-32.795-65.54-65.52-98.59-97.97-8.57-5.454-18.16-6.712-28-6.781" fill-opacity=".235"/>
 <g fill-rule="evenodd">
  <path d="m256 1c-140.83 0-255 114.17-255 255s114.17 255 255 255 255-114.17 255-255-114.17-255-255-255m8.827 44.931c120.9 0 218.9 98 218.9 218.9s-98 218.9-218.9 218.9-218.93-98-218.93-218.9 98.03-218.9 218.93-218.9" fill-opacity=".067"/>
  <g fill-opacity=".129">
   <path d="m256 4.43c-138.94 0-251.57 112.63-251.57 251.57s112.63 251.57 251.57 251.57 251.57-112.63 251.57-251.57-112.63-251.57-251.57-251.57m5.885 38.556c120.9 0 218.9 98 218.9 218.9s-98 218.9-218.9 218.9-218.93-98-218.93-218.9 98.03-218.9 218.93-218.9"/>
   <path d="m256 8.36c-136.77 0-247.64 110.87-247.64 247.64s110.87 247.64 247.64 247.64 247.64-110.87 247.64-247.64-110.87-247.64-247.64-247.64m2.942 31.691c120.9 0 218.9 98 218.9 218.9s-98 218.9-218.9 218.9-218.93-98-218.93-218.9 98.03-218.9 218.93-218.9"/>
  </g>
  <path d="m253.04 7.86c-135.42 0-245.19 109.78-245.19 245.19 0 135.42 109.78 245.19 245.19 245.19 135.42 0 245.19-109.78 245.19-245.19 0-135.42-109.78-245.19-245.19-245.19zm0 26.297c120.9 0 218.9 98 218.9 218.9s-98 218.9-218.9 218.9-218.93-98-218.93-218.9 98.03-218.9 218.93-218.9z" fill="#ffffff" stroke="#000000" stroke-opacity=".31" stroke-width="4.904"/>
 </g>
 <text x="729.64" y="231.36">
  
 </text>
 <text x="1310.91" y="151.36">
  
 </text>
 <text x="239.33" y="-29.9">
  
 </text>
 <text x="1337.38" y="-246.37">
  
 </text>
 <text x="1918.65" y="-326.37">
  
 </text>
 <text x="1529.53" y="-798.77">
  
 </text>
 <text x="2110.79" y="-878.78">
  
 </text>
 <text x="277.99" y="535.94">
  
 </text>
 <path d="m159.91 125.84c-18.886 0-34.06 15.176-34.06 34.06v192.19c0 18.886 15.176 34.06 34.06 34.06h192.19c18.886 0 34.06-15.176 34.06-34.06v-192.19c0-18.886-15.176-34.06-34.06-34.06zm96.09 28.5c8.323 0 15.11 2.641 20.375 7.906 5.605 5.945 8.406 14.349 8.406 25.22 0 11.04-2.61 23.942-7.875 38.719l-6.375 18.09c-3.057 9.172-5.618 21.753-7.656 37.719h-13.75c-.34-2.378-.692-4.698-1.031-6.906-.17-2.208-.41-4.305-.75-6.344-.849-5.095-1.793-9.705-2.813-13.781-.849-4.076-1.874-7.63-3.063-10.688l-6.375-18.09c-5.265-14.777-7.875-27.678-7.875-38.719 0-10.361 3.233-18.764 9.688-25.22 5.265-5.265 11.62-7.906 19.09-7.906m-.5 154.66c7.134 0 12.976 2.369 17.563 7.125 4.756 4.756 7.156 10.519 7.156 17.313s-2.401 12.588-7.156 17.344c-4.586 4.586-10.429 6.875-17.563 6.875-6.794 0-12.588-2.289-17.344-6.875-4.756-4.756-7.125-10.55-7.125-17.344s2.369-12.557 7.125-17.313 10.55-7.125 17.344-7.125" fill="#ffffff"/>
</svg>
