<svg height="512" viewBox="0 0 512 512" width="512" xmlns="http://www.w3.org/2000/svg">
 <path d="m471.95 253.05c0 120.9-98.01 218.9-218.9 218.9-120.9 0-218.9-98.01-218.9-218.9 0-120.9 98.01-218.9 218.9-218.9 120.9 0 218.9 98.01 218.9 218.9" fill="#535353" fill-rule="evenodd"/>
 <path d="m353.38 145.66c-8.202.11-16.534.885-24.563.25-62.01-.062-124.03.123-186.03-.094-18.27 2.691-15.733 23.298-15.594 36.969.279 56.35-.571 112.75.406 169.06 7.475 15.205 22.81 25.09 33.906 37.813 27.389 27.319 54.726 54.687 82.06 82.06 3.147.134 6.32.219 9.5.219 120.89 0 218.88-97.98 218.88-218.87 0-3.169-.085-6.332-.219-9.469-31.453-31.483-62.942-62.918-94.59-94.19-7.478-3.311-15.548-3.86-23.75-3.75" fill-opacity=".235"/>
 <path d="m240.86 288.72l42.915-42.43 42.4 42.42 42.41-42.41 42.724 42.768-42.31 42.487 42.469 42.487-42.542 42.994-42.573-42.657-42.631 42.817-42.693-43.35 42.44-42.44" fill="#ffffff"/>
 <g fill-rule="evenodd">
  <path d="m256 1c-140.83 0-255 114.17-255 255s114.17 255 255 255 255-114.17 255-255-114.17-255-255-255m8.827 44.931c120.9 0 218.9 98 218.9 218.9s-98 218.9-218.9 218.9-218.93-98-218.93-218.9 98.03-218.9 218.93-218.9" fill-opacity=".067"/>
  <g fill-opacity=".129">
   <path d="m256 4.433c-138.94 0-251.57 112.63-251.57 251.57s112.63 251.57 251.57 251.57 251.57-112.63 251.57-251.57-112.63-251.57-251.57-251.57m5.885 38.556c120.9 0 218.9 98 218.9 218.9s-98 218.9-218.9 218.9-218.93-98-218.93-218.9 98.03-218.9 218.93-218.9"/>
   <path d="m256 8.356c-136.77 0-247.64 110.87-247.64 247.64s110.87 247.64 247.64 247.64 247.64-110.87 247.64-247.64-110.87-247.64-247.64-247.64m2.942 31.691c120.9 0 218.9 98 218.9 218.9s-98 218.9-218.9 218.9-218.93-98-218.93-218.9 98.03-218.9 218.93-218.9"/>
  </g>
  <path d="m253.04 7.859c-135.42 0-245.19 109.78-245.19 245.19 0 135.42 109.78 245.19 245.19 245.19 135.42 0 245.19-109.78 245.19-245.19 0-135.42-109.78-245.19-245.19-245.19zm0 26.297c120.9 0 218.9 98 218.9 218.9s-98 218.9-218.9 218.9-218.93-98-218.93-218.9 98.03-218.9 218.93-218.9z" fill="#ffffff" stroke="#000000" stroke-opacity=".31" stroke-width="4.904"/>
 </g>
 <text x="729.64" y="231.36">
  
 </text>
 <text x="1310.91" y="151.36">
  
 </text>
 <text x="239.33" y="-29.9">
  
 </text>
 <text x="1337.38" y="-246.37">
  
 </text>
 <text x="1918.65" y="-326.38">
  
 </text>
 <text x="1529.53" y="-798.78">
  
 </text>
 <text x="2110.79" y="-878.78">
  
 </text>
 <text x="277.99" y="535.94">
  
 </text>
 <text x="-27836.29" y="1302.69">
  
 </text>
 <text x="-27971.03" y="2214.71">
  
 </text>
 <g fill="#565656">
  <text transform="scale(1.0508 .95163)" x="-13473.56" y="-4835.43">
   
  </text>
  <text transform="scale(1.0508 .95163)" x="-4071.14" y="-5660.41">
   
  </text>
  <text x="-40170.28" y="-1810.83">
   
  </text>
 </g>
 <text stroke="#545454" stroke-width="23.272" x="-25987.82" y="-14036.83">
  
 </text>
 <text stroke="#545454" stroke-width="23.272" x="-26122.8" y="-13124.82">
  
 </text>
 <g fill="#565656">
  <g stroke="#545454" stroke-width="23.272">
   <text transform="scale(1.0508 .95163)" x="-11714.46" y="-20954.48">
    
   </text>
   <text transform="scale(1.0508 .95163)" x="-2312.28" y="-21779.46">
    
   </text>
   <text x="-38321.81" y="-17150.35">
    
   </text>
  </g>
 </g>
 <text stroke="#545454" stroke-width="23.272" x="-9012.77" y="-20726.04">
  
 </text>
 <text stroke="#545454" stroke-width="23.272" x="11922.89" y="-23607.54">
  
 </text>
 <text x="-28681.28" y="1318.75">
  
 </text>
 <text x="-28816.26" y="2230.76">
  
 </text>
 <g fill="#565656">
  <text transform="scale(1.0508 .95163)" x="-14277.59" y="-4818.44">
   
  </text>
  <text transform="scale(1.0508 .95163)" x="-4875.41" y="-5643.42">
   
  </text>
  <text x="-41015.27" y="-1794.77">
   
  </text>
 </g>
 <text stroke="#545454" stroke-width="23.272" x="-26833.05" y="-14020.77">
  
 </text>
 <text stroke="#545454" stroke-width="23.272" x="-26967.79" y="-13108.76">
  
 </text>
 <g fill="#565656">
  <g stroke="#545454" stroke-width="23.272">
   <text transform="scale(1.0508 .95163)" x="-12518.73" y="-20937.73">
    
   </text>
   <text transform="scale(1.0508 .95163)" x="-3116.31" y="-21762.71">
    
   </text>
   <text x="-39166.8" y="-17134.29">
    
   </text>
  </g>
 </g>
 <text stroke="#545454" stroke-width="23.272" x="-9857.76" y="-20709.98">
  
 </text>
 <text stroke="#545454" stroke-width="23.272" x="11077.67" y="-23591.48">
  
 </text>
 <path d="m142.78 145.81c-.331.011-.639.035-.938.094-8.402 1.697-14.656 9.28-14.656 18.19v183.91c0 10.15 8.457 18.19 18.656 18.19h88.72l18.19-18.19h-106.91v-155.91h220.31l.576 38.3c2.944 2.944 5.965 5.87 8.924 8.828l9.156 9.156v-84.28c0-10.184-8.525-18.19-18.656-18.19h-220.31c-.958 0-2.069-.127-3.063-.094" fill="#f9f9f9" fill-rule="evenodd"/>
</svg>
