<?xml version="1.0" encoding="UTF-8" standalone="no"?>
<svg xmlns="http://www.w3.org/2000/svg" height="512" viewBox="0 0 512 512" width="512" version="1.1">
 <path d="m484.67269 256c0 126.29177-102.38094 228.67271-228.67271 228.67271-126.29173 0-228.67267-102.38094-228.67267-228.67271 0-126.29177 102.38094-228.67272 228.67267-228.67272 126.29177 0 228.67271 102.38095 228.67271 228.67272" fill="#336699" fill-rule="evenodd" style="fill:#7387c3;fill-opacity:1"/>
 <path d="m192.97998 138.32c-44.691 0-81.02996 36.37-81.02996 81.06 0 19.677 3.181 49.02 30.78896 76.63 24.698 24.743 104.35 78.69 107.75 80.969 2.563 1.734 5.534 2.593 8.474 2.593 2.94 0 5.88-.859 8.444-2.593 3.362-2.277 83-56.23 107.75-80.969 27.608-27.608 30.819-56.949 30.819-76.63 0-44.691-36.37-81.06-81.06-81.06-27.17 0-51.22 13.434-65.951 34.02-14.731-20.581-38.811-34.02-65.981-34.02" fill="#ffffff"/>
</svg>
