<svg height="512" viewBox="0 0 512 512" width="512" xmlns="http://www.w3.org/2000/svg">
 <path d="m250.32908 80.106547c-100.22671-.000467-181.476988 81.248783-181.477775 181.475503.01993 36.16275 10.843426 71.49494 31.08201 101.46401 62.928215 5.37199 133.440135 7.99222 194.253975-.84369 58.07798-8.4384 106.86032-27.42794 133.43531-62.89597 2.70954-12.39396 4.11196-25.03788 4.18426-37.72435-.00078-100.22672-81.25107-181.47597-181.47778-181.475503zm-59.54629 14.176278c19.36138 34.060555 36.08586 53.373845 56.70967 90.740035 2.05822 23.81925 10.46972 147.42412 11.34421 158.79163-6.12203-.50031-38.72176-3.75838-79.5828-8.00366-22.27748-2.31457-45.22328-4.94282-63.85594-7.60461l-29.531442-7.0756c33.410052-59.03173 86.480942-151.61395 104.916302-226.847795zm70.88822 96.410995c-.00002 0 77.79016 61.22122 110.58728 136.10776-39.90313 19.67825-76.69746 17.1493-99.24534 17.01291 16.01319-41.11845 15.98884-96.81908-11.34194-153.12067zm53.87533 34.0258c14.10716 3.87672 30.14129 8.77936 45.37001 14.17856 27.6184 9.79187 53.2765 23.25444 68.05388 36.86242-8.44931 15.58003-24.0393 38.67973-46.26551 49.84751-4.78266-23.31164-14.15502-36.78283-29.84785-58.80093-10.07083-14.13006-20.35009-30.72251-37.31053-42.08756zm104.42377 101.12882c-30.50445 26.86512-74.89897 41.33606-124.02247 48.47343-58.95617 8.56587-125.6547 6.61236-186.21156 1.81735 34.42761 42.2998 86.05373 66.87324 140.593 66.9206 75.40698-.0315 142.93754-46.69092 169.64103-117.21138z" fill="#aaaaaa"/>
 <path d="m185.1107 68.763379c-27.30881 89.203861-67.67765 174.095501-113.423109 255.201951l-2.835577 5.67115 4.371241 2.25272c3.837467 1.78163 8.889396 2.97968 15.72858 4.3475 6.839209 1.36783 15.252175 2.73112 24.706075 4.08168 18.90785 2.70112 41.96143 5.34126 64.32663 7.66494 44.7304 4.64731 86.71769 8.03596 86.71769 8.03596l7.14433.57599-.54826-7.14988c0 0-11.07846-144.13212-13.14778-167.8141l-.11091-1.27933-.62029-1.12981c-13.11095-20.93756-64.03868-107.992784-72.30862-110.458771zm5.67113 25.520194c19.36138 34.060557 36.08774 53.372287 56.71155 90.738467 2.05781 23.81349 10.15981 146.76607 11.03373 158.12638-6.11792-.49996-38.41597-3.09809-79.27987-7.34369-22.27745-2.31456-45.22317-4.9422-63.85586-7.60402-9.31632-1.33088-17.558347-2.67539-24.035938-3.97091-3.196014-.6392-3.266226-2.49755-5.48997-3.10006 33.410558-59.03254 86.481798-151.61184 104.916358-226.846167z" fill="#aaaaaa" fill-rule="evenodd" overflow="visible"/>
 <path d="m281.5203 202.03551l3.35141 5.59475c37.23042 28.4543 97.50245 75.65905 86.20899 120.04987l-3.12356 11.38107 11.10415-3.99859c34.69465-12.48334 51.1799-36.67312 61.25134-56.46653l2.83557-5.67115-5.67116-5.67115c-16.90891-17.80665-43.02673-29.60912-73.33021-40.35296-30.30349-10.7438-63.30772-20.20683-82.62653-24.86531zm33.84573 22.54482c14.10246 3.87572 29.46568 8.46524 44.68805 13.8622 27.62027 9.79252 53.77 22.38393 68.54674 35.993-8.44923 15.58124-23.5512 35.13525-45.78003 46.30428-12.27057-16.14045-24.79528-35.11024-41.06818-54.92257-11.0104-13.4052-15.69956-18.23335-26.38658-41.23691z" fill="#aaaaaa" fill-rule="evenodd" overflow="visible"/>
 <circle cx="250.542" cy="261.37" fill="none" r="181.69"/>
 <path d="m295.93705 374.31511c-61.66739 8.7017-124.48234 6.54431-186.36674 1.81113 39.82372 50.78655 109.03707 76.37977 172.97012 64.04435 61.70255-10.6057 115.78614-55.79191 137.5726-114.41648-36.64103 25.99096-79.93088 41.76588-124.17598 48.561z" fill="#aaaaaa"/>
</svg>
