<?xml version="1.0" encoding="UTF-8" standalone="no"?>
<svg
   xmlns:dc="http://purl.org/dc/elements/1.1/"
   xmlns:cc="http://creativecommons.org/ns#"
   xmlns:rdf="http://www.w3.org/1999/02/22-rdf-syntax-ns#"
   xmlns:svg="http://www.w3.org/2000/svg"
   xmlns="http://www.w3.org/2000/svg"
   xmlns:sodipodi="http://sodipodi.sourceforge.net/DTD/sodipodi-0.dtd"
   xmlns:inkscape="http://www.inkscape.org/namespaces/inkscape"
   height="513"
   width="512"
   version="1.1"
   id="svg2"
   inkscape:version="0.91 r13725"
   sodipodi:docname="folder-template.svg">
  <metadata
     id="metadata14">
    <rdf:RDF>
      <cc:Work
         rdf:about="">
        <dc:format>image/svg+xml</dc:format>
        <dc:type
           rdf:resource="http://purl.org/dc/dcmitype/StillImage" />
      </cc:Work>
    </rdf:RDF>
  </metadata>
  <defs
     id="defs12" />
  <sodipodi:namedview
     pagecolor="#ffffff"
     bordercolor="#666666"
     borderopacity="1"
     objecttolerance="10"
     gridtolerance="10"
     guidetolerance="10"
     inkscape:pageopacity="0"
     inkscape:pageshadow="2"
     inkscape:window-width="1920"
     inkscape:window-height="1021"
     id="namedview10"
     showgrid="false"
     inkscape:zoom="0.46003899"
     inkscape:cx="256"
     inkscape:cy="256.5"
     inkscape:window-x="0"
     inkscape:window-y="0"
     inkscape:window-maximized="1"
     inkscape:current-layer="svg2" />
  <path
     d="m33.692795 71.733047h183.68008v44.56144h-183.68008z"
     fill="#a2a2a2"
     fill-rule="evenodd"
     id="path4" />
  <path
     d="m8.6949148 115.20763h493.43646v326.0593h-493.43646z"
     fill="#e4e4e4"
     fill-rule="evenodd"
     id="path6" />
  <path
     d="m226.66536 201.53414l0 9.55081 59.25067 0 33.79266 33.79267 0 56.89945 9.55081 0 0-58.87771 0-1.97827-39.38694-39.38695-63.2072 0zm-16.75041 15.77749l0 19.0854 9.55081 0 0-19.0854-9.55081 0zm0 38.187l0 19.10162 9.55081 0 0-19.10162-9.55081 0zm0 39.84097l0 15.98828-15.97205 0 0 9.53459 15.97205 0 0 15.98828 9.53459 0 0-15.98828 15.98828 0 0-9.53459-15.98828 0 0-15.98828-9.53459 0zm46.27845 15.98828l0 9.55081 19.10161 0 0-9.55081-19.10161 0zm38.20323 0l0 9.55081 19.08539 0 0-9.55081-19.08539 0z"
     fill="#7a7a7a"
     overflow="visible"
     stroke="#9f5722"
     stroke-width="8.3"
     style="stroke:#7a7a7a;stroke-opacity:1"
     id="path8" />
</svg>
