<?xml version="1.0" encoding="UTF-8" standalone="no"?>
<svg
   xmlns:dc="http://purl.org/dc/elements/1.1/"
   xmlns:cc="http://creativecommons.org/ns#"
   xmlns:rdf="http://www.w3.org/1999/02/22-rdf-syntax-ns#"
   xmlns:svg="http://www.w3.org/2000/svg"
   xmlns="http://www.w3.org/2000/svg"
   xmlns:sodipodi="http://sodipodi.sourceforge.net/DTD/sodipodi-0.dtd"
   xmlns:inkscape="http://www.inkscape.org/namespaces/inkscape"
   height="513"
   width="512"
   version="1.1"
   id="svg2"
   inkscape:version="0.91 r13725"
   sodipodi:docname="folder-megasync.svg">
  <metadata
     id="metadata16">
    <rdf:RDF>
      <cc:Work
         rdf:about="">
        <dc:format>image/svg+xml</dc:format>
        <dc:type
           rdf:resource="http://purl.org/dc/dcmitype/StillImage" />
      </cc:Work>
    </rdf:RDF>
  </metadata>
  <defs
     id="defs14" />
  <sodipodi:namedview
     pagecolor="#ffffff"
     bordercolor="#666666"
     borderopacity="1"
     objecttolerance="10"
     gridtolerance="10"
     guidetolerance="10"
     inkscape:pageopacity="0"
     inkscape:pageshadow="2"
     inkscape:window-width="1920"
     inkscape:window-height="1021"
     id="namedview12"
     showgrid="false"
     inkscape:zoom="0.46003899"
     inkscape:cx="256"
     inkscape:cy="256.5"
     inkscape:window-x="0"
     inkscape:window-y="0"
     inkscape:window-maximized="1"
     inkscape:current-layer="svg2" />
  <path
     d="m33.692795 71.733047h183.68008v44.56144h-183.68008z"
     fill="#a2a2a2"
     fill-rule="evenodd"
     id="path4" />
  <path
     d="m8.6949148 115.20763h493.43646v326.0593h-493.43646z"
     fill="#e4e4e4"
     fill-rule="evenodd"
     id="path6" />
  <path
     d="m204.42488 284.94765v-36.99624h10.33947 10.33947l16.34051 16.39527c8.98728 9.0174 17.09462 16.22099 18.01632 16.00799.9217-.213 9.35003-7.59087 18.72962-16.39527l17.0538-16.00799h9.3733 9.37329v36.99624 36.99624h-9.96053-9.96052v-21.26001c0-11.693-.52576-21.58494-1.16836-21.98209-.64259-.39715-7.19322 5.32794-14.55695 12.72242-17.99323 18.06835-18.34526 18.06812-37.59996-.0245-7.80704-7.33585-14.69048-13.03145-15.29652-12.65689-.60604.37455-1.10189 10.248-1.10189 21.94101v21.26h-9.96052-9.96053v-36.99623z"
     fill="#7a7a7a"
     id="path8" />
  <path
     d="m580.01305 263.83386a205.81108 205.81108 0 1 1 -411.62217 0 205.81108 205.81108 0 1 1 411.62217 0z"
     fill="none"
     stroke="#9f5722"
     stroke-width="35.3"
     transform="matrix(.43940905 0 0 .43940905 94.566609 168.81584)"
     style="stroke:#7a7a7a;stroke-opacity:1"
     id="path10" />
</svg>
