<?xml version="1.0" encoding="UTF-8" standalone="no"?>
<svg xmlns="http://www.w3.org/2000/svg" height="512" width="512" version="1.1" viewBox="0 0 512 512">
 <text font-size="129.23" line-height="125%" y="231.36" x="729.64" font-family="Gentium Book Basic" word-spacing="0" letter-spacing="0">
  
 </text>
 <text font-size="129.23" line-height="125%" y="151.36" x="1310.91" font-family="Gentium Book Basic" word-spacing="0" letter-spacing="0">
  
 </text>
 <text font-size="129.23" line-height="125%" y="-29.9" x="239.33" font-family="Gentium Book Basic" word-spacing="0" letter-spacing="0">
  
 </text>
 <text font-size="129.23" line-height="125%" y="-246.37" x="1337.38" font-family="Gentium Book Basic" word-spacing="0" letter-spacing="0">
  
 </text>
 <text font-size="129.23" line-height="125%" y="-326.38" x="1918.65" font-family="Gentium Book Basic" word-spacing="0" letter-spacing="0">
  
 </text>
 <text font-size="129.23" line-height="125%" y="-798.78" x="1529.53" font-family="Gentium Book Basic" word-spacing="0" letter-spacing="0">
  
 </text>
 <text font-size="129.23" line-height="125%" y="-878.78" x="2110.79" font-family="Gentium Book Basic" word-spacing="0" letter-spacing="0">
  
 </text>
 <g font-family="Gentium Book Basic" line-height="125%" word-spacing="0" letter-spacing="0">
  <text y="535.94" x="277.99" font-size="208.33">
   
  </text>
  <text y="-11.34" x="-307.18" font-size="200">
   
  </text>
 </g>
 <text font-size="200" line-height="125%" y="41.8" x="438.2" font-family="Gentium Book Basic" word-spacing="0" letter-spacing="0">
  
 </text>
 <text font-size="200" line-height="125%" y="-82.02" x="1337.81" font-family="Gentium Book Basic" word-spacing="0" letter-spacing="0">
  
 </text>
 <text font-size="200" line-height="125%" y="-134.65" x="465.66" font-family="Gentium Book Basic" word-spacing="0" letter-spacing="0">
  
 </text>
 <text font-size="200" line-height="125%" y="-258.47" x="1365.27" font-family="Gentium Book Basic" word-spacing="0" letter-spacing="0">
  
 </text>
 <text font-size="200" line-height="125%" y="317.23" x="-2544.32" font-family="Gentium Book Basic" word-spacing="0" letter-spacing="0">
  
 </text>
 <text font-size="200" line-height="125%" y="81.8" x="-616.04" font-family="Gentium Book Basic" word-spacing="0" letter-spacing="0">
  
 </text>
 <text font-size="200" line-height="125%" y="134.94" x="129.34" font-family="Gentium Book Basic" word-spacing="0" letter-spacing="0">
  
 </text>
 <text font-size="200" line-height="125%" y="11.13" x="1028.95" font-family="Gentium Book Basic" word-spacing="0" letter-spacing="0">
  
 </text>
 <text font-size="200" line-height="125%" y="-41.51" x="156.8" font-family="Gentium Book Basic" word-spacing="0" letter-spacing="0">
  
 </text>
 <text font-size="200" line-height="125%" y="-165.33" x="1056.42" font-family="Gentium Book Basic" word-spacing="0" letter-spacing="0">
  
 </text>
 <text font-size="200" line-height="125%" y="410.37" x="-2853.18" font-family="Gentium Book Basic" word-spacing="0" letter-spacing="0">
  
 </text>
 <text font-size="200" line-height="125%" y="-35.06" x="-1330.61" font-family="Gentium Book Basic" word-spacing="0" letter-spacing="0">
  
 </text>
 <text font-size="200" line-height="125%" y="18.09" x="-585.23" font-family="Gentium Book Basic" word-spacing="0" letter-spacing="0">
  
 </text>
 <text font-size="200" line-height="125%" y="-105.73" x="314.38" font-family="Gentium Book Basic" word-spacing="0" letter-spacing="0">
  
 </text>
 <text font-size="200" line-height="125%" y="-158.37" x="-557.77" font-family="Gentium Book Basic" word-spacing="0" letter-spacing="0">
  
 </text>
 <text font-size="200" line-height="125%" y="-282.18" x="341.85" font-family="Gentium Book Basic" word-spacing="0" letter-spacing="0">
  
 </text>
 <text font-size="200" line-height="125%" y="293.52" x="-3567.75" font-family="Gentium Book Basic" word-spacing="0" letter-spacing="0">
  
 </text>
 <path fill="#708d97" d="m471.95 253.05c0 120.9-98.01 218.9-218.9 218.9-120.9 0-218.9-98.01-218.9-218.9 0-120.9 98.01-218.9 218.9-218.9 120.9 0 218.9 98.01 218.9 218.9" fill-rule="evenodd"/>
 <path d="m340.38 116.03c-8.174-0.058-16.565 0.905-24.594 0.25h-130.5c-9.955 5.638-15.966 17.243-24.281 25.344-6.155 7.989-16.657 14.775-14.06 26.25 0.237 71.929-0.488 143.88 0.344 215.78 7.339 14.157 21.716 23.574 32.22 35.563 17.219 17.195 34.425 34.41 51.625 51.625 7.209 0.717 14.54 1.094 21.938 1.094 120.89 0 218.88-97.98 218.88-218.87 0-7.407-0.375-14.751-1.094-21.969-37.3-37.33-74.62-74.66-112.06-111.84-5.82-2.521-12.05-3.174-18.406-3.219" fill-opacity=".235"/>
 <g fill-rule="evenodd">
  <path d="m256 1c-140.83 0-255 114.17-255 255s114.17 255 255 255 255-114.17 255-255-114.17-255-255-255m8.827 44.931c120.9 0 218.9 98 218.9 218.9s-98 218.9-218.9 218.9-218.93-98-218.93-218.9 98.03-218.9 218.93-218.9" fill-opacity=".067"/>
  <g fill-opacity=".129">
   <path d="m256 4.433c-138.94 0-251.57 112.63-251.57 251.57s112.63 251.57 251.57 251.57 251.57-112.63 251.57-251.57-112.63-251.57-251.57-251.57m5.885 38.556c120.9 0 218.9 98 218.9 218.9s-98 218.9-218.9 218.9-218.93-98-218.93-218.9 98.03-218.9 218.93-218.9"/>
   <path d="m256 8.356c-136.77 0-247.64 110.87-247.64 247.64s110.87 247.64 247.64 247.64 247.64-110.87 247.64-247.64-110.87-247.64-247.64-247.64m2.942 31.691c120.9 0 218.9 98 218.9 218.9s-98 218.9-218.9 218.9-218.93-98-218.93-218.9 98.03-218.9 218.93-218.9"/>
  </g>
  <path d="m253.04 7.859c-135.42 0-245.19 109.78-245.19 245.19 0 135.42 109.78 245.19 245.19 245.19 135.42 0 245.19-109.78 245.19-245.19 0-135.42-109.78-245.19-245.19-245.19zm0 26.297c120.9 0 218.9 98 218.9 218.9s-98 218.9-218.9 218.9-218.93-98-218.93-218.9 98.03-218.9 218.93-218.9z" stroke-opacity=".31" stroke="#000" stroke-width="4.904" fill="#fff"/>
 </g>
 <text font-size="129.23" line-height="125%" y="231.36" x="729.64" font-family="Gentium Book Basic" word-spacing="0" letter-spacing="0">
  
 </text>
 <text font-size="129.23" line-height="125%" y="151.36" x="1310.91" font-family="Gentium Book Basic" word-spacing="0" letter-spacing="0">
  
 </text>
 <text font-size="129.23" line-height="125%" y="-29.9" x="239.33" font-family="Gentium Book Basic" word-spacing="0" letter-spacing="0">
  
 </text>
 <text font-size="129.23" line-height="125%" y="-246.37" x="1337.38" font-family="Gentium Book Basic" word-spacing="0" letter-spacing="0">
  
 </text>
 <text font-size="129.23" line-height="125%" y="-326.38" x="1918.65" font-family="Gentium Book Basic" word-spacing="0" letter-spacing="0">
  
 </text>
 <text font-size="129.23" line-height="125%" y="-798.78" x="1529.53" font-family="Gentium Book Basic" word-spacing="0" letter-spacing="0">
  
 </text>
 <text font-size="129.23" line-height="125%" y="-878.78" x="2110.79" font-family="Gentium Book Basic" word-spacing="0" letter-spacing="0">
  
 </text>
 <g font-family="Gentium Book Basic" line-height="125%" word-spacing="0" letter-spacing="0">
  <text y="535.94" x="277.99" font-size="208.33">
   
  </text>
  <text y="227.12" x="104.96" font-size="129.23">
   
  </text>
 </g>
 <text font-size="129.23" line-height="125%" y="147.11" x="686.23" font-family="Gentium Book Basic" word-spacing="0" letter-spacing="0">
  
 </text>
 <text font-size="129.23" line-height="125%" y="-34.14" x="-385.35" font-family="Gentium Book Basic" word-spacing="0" letter-spacing="0">
  
 </text>
 <text font-size="129.23" line-height="125%" y="-250.62" x="712.7" font-family="Gentium Book Basic" word-spacing="0" letter-spacing="0">
  
 </text>
 <text font-size="129.23" line-height="125%" y="-330.62" x="1293.97" font-family="Gentium Book Basic" word-spacing="0" letter-spacing="0">
  
 </text>
 <text font-size="129.23" line-height="125%" y="-803.02" x="904.85" font-family="Gentium Book Basic" word-spacing="0" letter-spacing="0">
  
 </text>
 <text font-size="129.23" line-height="125%" y="-883.02" x="1486.12" font-family="Gentium Book Basic" word-spacing="0" letter-spacing="0">
  
 </text>
 <g font-family="Gentium Book Basic" line-height="125%" word-spacing="0" letter-spacing="0">
  <text y="531.69" x="-346.69" font-size="208.33">
   
  </text>
  <text y="-15.58" x="-931.86" font-size="200">
   
  </text>
 </g>
 <text font-size="200" line-height="125%" y="37.56" x="-186.48" font-family="Gentium Book Basic" word-spacing="0" letter-spacing="0">
  
 </text>
 <text font-size="200" line-height="125%" y="-86.26" x="713.13" font-family="Gentium Book Basic" word-spacing="0" letter-spacing="0">
  
 </text>
 <text font-size="200" line-height="125%" y="-138.9" x="-159.02" font-family="Gentium Book Basic" word-spacing="0" letter-spacing="0">
  
 </text>
 <text font-size="200" line-height="125%" y="-262.71" x="740.6" font-family="Gentium Book Basic" word-spacing="0" letter-spacing="0">
  
 </text>
 <text font-size="200" line-height="125%" y="312.99" x="-3169" font-family="Gentium Book Basic" word-spacing="0" letter-spacing="0">
  
 </text>
 <text font-size="200" line-height="125%" y="77.56" x="-1240.72" font-family="Gentium Book Basic" word-spacing="0" letter-spacing="0">
  
 </text>
 <text font-size="200" line-height="125%" y="130.7" x="-495.34" font-family="Gentium Book Basic" word-spacing="0" letter-spacing="0">
  
 </text>
 <text font-size="200" line-height="125%" y="6.88" x="404.27" font-family="Gentium Book Basic" word-spacing="0" letter-spacing="0">
  
 </text>
 <text font-size="200" line-height="125%" y="-45.75" x="-467.88" font-family="Gentium Book Basic" word-spacing="0" letter-spacing="0">
  
 </text>
 <text font-size="200" line-height="125%" y="-169.57" x="431.74" font-family="Gentium Book Basic" word-spacing="0" letter-spacing="0">
  
 </text>
 <text font-size="200" line-height="125%" y="406.13" x="-3477.86" font-family="Gentium Book Basic" word-spacing="0" letter-spacing="0">
  
 </text>
 <text font-size="200" line-height="125%" y="-39.3" x="-1955.29" font-family="Gentium Book Basic" word-spacing="0" letter-spacing="0">
  
 </text>
 <text font-size="200" line-height="125%" y="13.84" x="-1209.91" font-family="Gentium Book Basic" word-spacing="0" letter-spacing="0">
  
 </text>
 <text font-size="200" line-height="125%" y="-109.97" x="-310.3" font-family="Gentium Book Basic" word-spacing="0" letter-spacing="0">
  
 </text>
 <text font-size="200" line-height="125%" y="-162.61" x="-1182.45" font-family="Gentium Book Basic" word-spacing="0" letter-spacing="0">
  
 </text>
 <text font-size="200" line-height="125%" y="-286.43" x="-282.83" font-family="Gentium Book Basic" word-spacing="0" letter-spacing="0">
  
 </text>
 <text font-size="200" line-height="125%" y="289.27" x="-4192.43" font-family="Gentium Book Basic" word-spacing="0" letter-spacing="0">
  
 </text>
 <path d="m349.71 116.28h-164.43c-1.476 0-2.889 0.645-3.857 1.763l-33.23 38.34c-0.807 0.929-1.244 2.117-1.244 3.349v220.66c0 8.454 6.872 15.334 15.33 15.334h187.43c8.462 0 15.334-6.88 15.334-15.334v-248.77c-0.004-8.454-6.876-15.334-15.338-15.334m-140.07 64.791h-17.19v-45.23h17.195v45.23m-27.704 0.539h-17.18v-13.46h17.18v13.46m55.19-0.539h-17.18v-45.23h17.18v45.23m27.21 0h-17.18v-45.23h17.18v45.23m27.495 0h-17.18v-45.23h17.18v45.23m27.362 0h-17.195v-45.23h17.195v45.23m26.382 0h-17.18v-45.23h17.18v45.23" fill="#fff"/>
</svg>
