<svg width="512" height="512" version="1.1" viewBox="0 0 512 512" xmlns="http://www.w3.org/2000/svg">
 <path d="m471.95 253.05c0 120.9-98.01 218.9-218.9 218.9-120.9 0-218.9-98.01-218.9-218.9 0-120.9 98.01-218.9 218.9-218.9 120.9 0 218.9 98.01 218.9 218.9" fill="#a7c510" fill-rule="evenodd"/>
 <path d="m222.16 156.16c-40.757-0.0463-70.542 31.208-89.584 67.613-24.818 47.437-51.002 117.55-0.47461 117.55 53.178 0 97.359-29.518 128.6-51.824 11.332 20.663 27.828 51.824 50.874 51.824s44.057-9.0753 54.325-17.155l38.28-53.317-4.144-4.7692c-48.456 24.008-64.985 40.515-92.212-11.298l34.368-31.601 50.469-62.474-3.7158-4.607-90.81 79.524c-14.701-30.432-44.902-79.431-76.017-79.467m-33.997 39.311c28.858 0 45.781 42.506 62.763 74.003-25.038 14.238-57.75 31.798-81.724 26.89-28.419-5.8225-35.653-35.548-24.205-57.878 10.151-20.928 22.607-42.992 43.13-42.992" fill="#ffffff" stroke-width="11.576"/>
 <circle cx="256" cy="256" r="181.13" fill="none" stroke="#fefefe" stroke-width="18.771"/>
</svg>
