<svg height="512" viewBox="0 0 512 512" width="512" xmlns="http://www.w3.org/2000/svg">
 <path d="m471.95 253.05c0 120.9-98.01 218.9-218.9 218.9-120.9 0-218.9-98.01-218.9-218.9 0-120.9 98.01-218.9 218.9-218.9 120.9 0 218.9 98.01 218.9 218.9" fill="#8255af" fill-rule="evenodd"/>
 <path d="m237.42245 108.15176c-76.72 0-138.880007 63.761-138.880007 142.41 0 78.65 62.180007 142.41 138.910007 142.41h178.47c7.425-8.355 14.222-17.294 20.312-26.719h-198.78c-62.33 0-112.88-51.792-112.88-115.69 0-63.898 50.54-115.72 112.88-115.72v-26.688h-.031zm.031 35.594c-57.54 0-104.16 47.829-104.16 106.81 0 58.984 46.615 106.78 104.16 106.78h204.22c4.962-8.548 9.368-17.457 13.156-26.688h-217.38c-43.16 0-78.16-35.852-78.16-80.09 0-44.238 34.994-80.12 78.16-80.12 10.486 0 20.461 2.162 29.594 6l9.875-24.75c-12.535-5.265-25.92-7.938-39.469-7.938zm0 35.594c-38.36 0-69.44 31.897-69.44 71.22 0 39.32 31.07 71.19 69.44 71.19h220.82c3.12-8.667 5.701-17.583 7.719-26.719h-228.53c-23.974 0-43.37-19.894-43.37-44.47 0-24.577 19.401-44.5 43.38-44.5 11.987 0 22.835 5.01 30.688 13.06l18.438-18.906c-13.03-13.352-30.701-20.875-49.12-20.875z" fill="#ffffff"/>
 <circle cx="256" stroke="#fefefe" cy="256" r="181.13" stroke-width="18.771" fill="none"/>
</svg>
