<svg height="512" viewBox="0 0 512 512" width="512" xmlns="http://www.w3.org/2000/svg">
 <path d="m471.95 253.05c0 120.9-98.01 218.9-218.9 218.9-120.9 0-218.9-98.01-218.9-218.9 0-120.9 98.01-218.9 218.9-218.9 120.9 0 218.9 98.01 218.9 218.9" fill="#cd1c30" fill-rule="evenodd"/>
 <path d="m418.33634 295.77591c-7.4689 9.1319-18.77083 14.55471-30.73638 14.4488 0 0-76.50969 0-76.50969.018l.0349-22.65794c.009-3.50291-1.76441-4.14175-3.90852-1.36443-9.90708 12.8117-35.15304 46.98226-35.15304 62.69071 0 15.69944 25.24033 49.87901 35.15304 62.68621 2.14298 2.77732 3.91753 2.14298 3.90852-1.36443l-.0349-22.5678h38.99396c9.40569.0665 18.56013-4.76257 23.59084-13.47196l45.09054-78.13664c1.75202-3.04097 1.79145-3.00153-.43153-.28618" fill="#ffffff"/>
 <path d="m371.79236 134.63528l-19.55388 11.3346c.0135 0-9.78426-17.10781-13.69616-23.88604-5.53661-9.51949-15.71634-15.51466-26.7242-15.48311-11.02476.0135-21.22252 6.0515-26.63181 15.64197-.0225.018-8.99107 15.46171-18.00917 31.17805l18.1962 31.51717-19.78823 11.08673c-3.05448 1.71259-2.73788 3.54347.73912 4.00542 16.05096 2.17002 58.27179 6.92695 71.88008-.9284 13.588-7.85197 30.56737-46.77157 36.71915-61.75781 1.3295-3.24377-.1014-4.47187-3.13335-2.71084" fill="#ffffff"/>
 <path d="m353.14547 211.52128l-12.05005 6.9585c-15.18792 8.76686-20.39327 28.19004-11.61515 43.36894l23.20326 40.18714c18.1286 0 35.99243.009 36.01046.009 11.04278.0834 21.31491-5.81828 26.847-15.34678 5.49717-9.53301 5.44872-21.4028-.14534-30.90088 0-.0135-8.58658-14.87131-18.86772-32.66979-8.77587-15.18454-28.2013-20.382-43.38246-11.60614" fill="#ffffff"/>
 <path d="m95.561573 293.1507l45.113067 78.13664c1.75202 3.04097 1.69906 3.04097.45293-.23773-4.15864-11.02025-3.21672-23.53338 2.85168-33.85733l38.26386-66.26011 19.60233 11.36841c3.03645 1.76103 4.47187.54081 3.13786-2.70183-6.13939-14.98624-23.11989-53.93175-36.71465-61.77921-13.61053-7.84747-55.83362-3.0804-71.880079-.9115-3.481503.47096-3.816133 2.32776-.775169 4.07076l19.606838 11.25348-19.518956 33.77847c-4.770448 8.09872-5.158032 18.43619-.140837 27.1422" fill="#ffffff"/>
 <path d="m168.54695 311.06523c-9.03614 15.69493-17.98777 31.17804-18.00129 31.20396-5.58055 9.48456-5.64477 21.32392-.1183 30.87383 5.51069 9.55441 15.79633 15.44818 26.80757 15.36481h37.73544c17.53821 0 31.76167-14.21558 31.76167-31.75041v-13.94291c0-17.53483-14.21107-31.75041-31.75041-31.75041" fill="#ffffff"/>
 <path d="m215.48527 98.671012c-10.05693 0-18.5376 5.667298-23.42297 13.666868-4.49778 7.29313-15.52705 26.41548-24.97894 42.90474-8.7184 15.21496-3.42855 34.68095 11.75599 43.45231l12.30582 7.09934c15.18791 8.76685 34.59307 3.55586 43.35541-11.63656 15.64649-27.1084 38.03064-65.90068 43.85793-75.92831 6.00756-10.34762 15.8752-17.20471 27.34839-19.0525 3.46798-.558843 3.49502-.501381-.018-.501381" fill="#ffffff"/>
 <circle cx="256" stroke="#fefefe" cy="256" r="181.13" stroke-width="18.771" fill="none"/>
</svg>
