<svg xmlns="http://www.w3.org/2000/svg" height="512" width="512">
 <path d="M471.93 253.06c0 120.9-98.008 218.9-218.9 218.9-120.9 0-218.9-98.008-218.9-218.9 0-120.9 98.008-218.9 218.9-218.9 120.9 0 218.9 98.008 218.9 218.9" fill="#b3346a" fill-rule="evenodd"/>
 <path d="M275.137 345.79c31.83-33.957 56.78-74.093 75.7-116.502 10.766-26.552 19.596-55.896 13.403-84.65-3.23-15.126-21.066-25.227-35.182-17.567-16.95 8.893-24.636 28.722-24.288 47.05-.155 9.018 2.798 22.69 6.724 7.127 4.037-9.157 18.784-8.23 20.073 2.28 1.59 11.18-3.86 22.06-8.11 32.13-7 12.8-15.13 27.75-29.93 32.404-11.323 2.352-21.077-7.41-18.493-18.998-.168-12.118 24.36-15.43 10.267-26.58-11.57-11.187-29.405-1.763-35.127 10.944-15.407 30.58-11.98 66.41-24.17 97.966-3.277 13.806-24.14 27.88-32.763 10.68-3.292-8.63 2.59-17.866 9.62-23.35 7.32-7.635 17.987-9.66 27.992-11.198-7.502-10.66-22.91-12.216-34.935-10.068-26.607 5.718-46.412 31.114-49.77 57.482-3.407 23.697 13.864 48.782 38.12 51.684 30.85 5.135 60.654-11.624 82.205-32.372 2.927-2.78 5.747-5.67 8.67-8.457zm-25.58-8.478c-1.073 1.073-2.145 2.145-3.23 3.2-12.56 9.19-26.837 21.643-43.673 17.684-5.228-.274-18.49-11.186-6.287-6.362 20.57 4.898 39.353-10.96 48.553-28.032 9.815-16.724 14.295-35.852 18.485-54.602 8.152 7.218 20.695 6.89 29.658 8.503-3.848 8.61-9.995 17.363-15.265 25.78-8.15 12.262-17.904 23.436-28.242 33.83z" fill="#fff"/>
 <circle cx="256" stroke="#fefefe" cy="256" r="181.13" stroke-width="18.771" fill="none"/>
</svg>
