<svg height="1814.17" viewBox="0 0 512 512" width="1814.17" xmlns="http://www.w3.org/2000/svg">
 <g transform="translate(0 215.00001)">
  <path d="m471.95008 38.049972c0 120.900018-98.01002 218.909998-218.91004 218.909998-120.89997 0-218.909997-98.00998-218.909997-218.909998 0-120.899976 98.010027-218.910002 218.909997-218.910002 120.90002 0 218.91004 98.010026 218.91004 218.910002" fill="#3e6bbe" fill-rule="evenodd"/>
  <path d="m253.03007-180.84003c-80.29999 0-150.49999 43.23-188.589993 107.690032l61.130003 104.659989 63.46998-104.220014h252.84003c-38.04-64.699987-108.37002-108.119997-188.84005-108.119997" fill="#3e6bbe"/>
  <path d="m316.16004-72.81003v55.719003l26.56301 159.719997-56.24999 111.81002c105.03001-16.09002 185.47003-106.84002 185.47003-216.370007 0-40.4599919-10.98701-78.359997-30.12004-110.870017h-125.65999" fill="#3e6bbe"/>
  <path d="m261.36438-116.60554c-25.46469-.91935-51.35425 4.53703-75.77759 16.671145-19.5989 9.736943-36.80234 23.469189-50.77044 40.161827l51.52826 89.41705c4.35101-25.1918945 22.42354-47.117521 48.4974-55.317346 6.53555-2.0535 13.23091-3.316532 20.08135-3.411044h142.46094c-26.70538-53.711063-79.99844-85.484892-136.01992-87.522922zm-136.39925 69.336125c-48.596638 72.467511-28.920412 170.795385 43.57202 219.375285 18.10946 12.13627 38.52032 20.00443 59.86383 23.87l51.52868-89.41749c-22.79686 8.43268-49.23503 4.83347-69.33613-11.745331-10.20779-8.418071-17.78813-19.65647-21.97546-32.205161zm131.09453 30.31104c-31.94783 0-57.96929 26.0326271-57.96929 57.969712 0 31.937085 26.02146 57.969278 57.96929 57.969278 31.94825 0 57.96971-26.032193 57.96971-57.969278 0-31.9370849-26.02146-57.969712-57.96971-57.969712zm39.78334 1.516497c17.79328 12.8773375 29.283 33.577737 29.17432 57.211463-.0859 15.756963-5.38293 31.208908-15.15553 43.572012l-66.30529 112.908163c87.0246 6.57507 163.16134-58.87661 169.74114-145.871139 1.75278-23.203694-1.99336-46.1822764-10.23014-67.820499z" fill="#ffffff"/>
  <path d="m187.09162 247.17899l279.06-161.090003c3.43801-15.408982 5.25003-31.429983 5.25003-47.875009 0-23.271986-3.648-45.6789904-10.37499-66.719997l-370.53001 213.939999c25.83598 28.414 59.03999 50.00999 96.58998 61.74999" fill="#c96952"/>
  <text fill="#ffffff" font-family="Sans" font-size="82.6" letter-spacing="0" line-height="125%" transform="matrix(.8660254 -.5 .5 .8660254 0 0)" word-spacing="0" x="80.31" y="286.83">
   <tspan x="80.31" y="286.83">BETA</tspan>
  </text>
 </g>
 <circle cx="256" stroke="#fefefe" cy="256" r="181.13" stroke-width="18.771" fill="none"/>
</svg>
