<?xml version="1.0" encoding="UTF-8" standalone="no"?>
<svg xmlns="http://www.w3.org/2000/svg" height="512" viewBox="0 0 512 512" width="512" version="1.1">
 <path d="m471.95 253.05c0 120.9-98.01 218.9-218.9 218.9-120.9 0-218.9-98.01-218.9-218.9 0-120.9 98.01-218.9 218.9-218.9 120.9 0 218.9 98.01 218.9 218.9" fill="#939393" fill-rule="evenodd" style="fill:#57a1cf;fill-opacity:1"/>
 <path d="m136.62933 123.56425c-7.9706 0-14.43566 6.46257-14.43566 14.43566v202.02167c0 7.97391 6.46589 14.43565 14.43566 14.43565h159.17975c5.08941 0 9.6201-2.78667 12.18796-6.76247l-8.56451-10.38592-2.26707-2.69336c-10.35327 4.79592-21.66757 8.11884-33.81238 8.11884-22.63201 0-43.32894-9.38841-58.16892-24.35654h-61.32732v-16.23769h48.6937c-5.02492-8.63861-8.39306-18.57886-9.92088-28.85193h-38.77282v-16.68336h38.32715c.64238-10.25654 3.08354-19.96733 7.20814-28.87131h-45.53529v-16.23769h55.01051c11.21886-14.36792 27.32505-24.90513 45.55467-29.2976v-58.63395zm122.20897 0v51.8521h51.40644zm-114.98146 42.84192h72.60457v16.23769h-72.60457zm122.53839 28.07687c-38.97253 0-70.57002 31.58637-70.57002 70.55063 0 38.97252 31.60575 70.57002 70.57002 70.57002 38.97252 0 70.57-31.5975 70.57-70.57002 0-38.96426-31.60575-70.55063-70.57-70.55063zm0 17.63281c29.17978 0 52.91781 23.7339 52.91781 52.91782 0 29.1831-23.73389 52.91782-52.91781 52.91782-29.17979 0-52.91784-23.7339-52.91784-52.91782 0-29.18309 23.73391-52.91782 52.91784-52.91782zm68.72922 97.75556c-6.31712 9.71419-14.55538 17.94253-24.25966 24.25965l37.1258 44.45018c4.1337 4.96375 11.58748 5.30571 16.16018.73632l16.52834-16.52834c4.5727-4.56691 4.2435-11.65832-.71694-15.79202z" fill="#ffffff"/>
 <circle cx="256" stroke="#fefefe" cy="256" r="181.13" stroke-width="18.771" fill="none"/>
</svg>
