<svg viewBox="0 0 512 512" xmlns="http://www.w3.org/2000/svg">
 <linearGradient id="a" gradientUnits="userSpaceOnUse" x1="34.15" x2="471.95">
  <stop offset="0" stop-color="#7c9ede"/>
  <stop offset="1" stop-color="#c7cee3"/>
 </linearGradient>
 <path d="m471.95 253.05c0 120.9-98.01 218.9-218.9 218.9-120.9 0-218.9-98.01-218.9-218.9 0-120.9 98.01-218.9 218.9-218.9 120.9 0 218.9 98.01 218.9 218.9" fill="url(#a)" fill-rule="evenodd"/>
 <path d="m254.37 88.85c-10.181.081-20.583.752-27.556 1.985-52.33 9.254-96.57 42.04-120.45 89.26-12.846 25.398-17.259 42.944-18.03 71.6-.505 18.66.65 29.782 4.778 46.4 5.822 23.434 19.22 49.21 34.958 67.19 30.13 34.425 67.39 53.701 112.48 58.24 11.874 1.196 42.56-.267 44.41-2.12.192-.192-.706-3.461-1.985-7.268-5.652-16.821-9.928-39.623-11.541-61.47l-.572-7.739-13.829-.034c-32.07-.022-63.51-5.79-97.37-17.866-10.651-3.798-21.21-8.704-21.2-9.858.005-.54 1.227-3.065 2.692-5.619l2.658-4.643 3.297 1.447c35.21 15.576 74.937 24.19 111.7 24.19h12.08l.471-4.643c.263-2.552.723-7.432 1.01-10.834.529-6.271 2.713-21.261 3.634-24.932l.505-2.02h-56.996l.606-7.739c4.7-61.04 27.521-127.02 63.09-182.29 2.948-4.582 5.295-8.399 5.181-8.512-.114-.114-5.185-.884-11.238-1.682-5.02-.662-11.552-.983-18.438-1.043-1.435-.013-2.886-.012-4.34 0m47.51 6.897c-.534.03-.808.193-.808.505 0 .678-.422 1.245-.908 1.245s-.875.402-.875.908-.761 1.767-1.716 2.793c-.955 1.025-1.569 2.162-1.346 2.523s-.247.906-1.043 1.211-1.225.76-.942 1.043-.218 1.328-1.144 2.322-1.5 2.145-1.245 2.557.044.774-.471.774-.908.583-.908 1.312-.427 1.346-.942 1.346-.704.389-.404.875.145.875-.37.875-.942.583-.942 1.312-.427 1.346-.942 1.346-.704.389-.404.875.135.875-.37.875-1.175 1.01-1.48 2.221c-.305 1.215-.917 2.221-1.379 2.221s-.603.389-.303.875.172.875-.303.875c-.474 0-1.554 1.783-2.389 3.97s-1.873 4-2.322 4-.57.389-.269.875c.3.486.106.875-.437.875s-.771.389-.471.875.196.908-.236.908c-.882 0-5.188 8.79-4.845 9.892.122.39-.241.707-.808.707s-.769.241-.471.538c.297.297-.675 2.697-2.153 5.316s-2.415 4.744-2.086 4.744-.261 1.394-1.312 3.095-1.668 3.095-1.346 3.095-.261 1.394-1.312 3.095-1.673 3.095-1.379 3.095-.096.964-.875 2.153-1.352 2.275-1.279 2.423c.073.147-.34 1.469-.908 2.927s-1.091 3.047-1.178 3.533-.42 1.297-.707 1.783c-.64 1.083-2.481 6.726-2.591 7.94-.044.486-.471 1.378-.976 1.985-.504.608-.631 1.11-.269 1.11s.254.503-.236 1.11c-.92 1.143-2.45 6.772-2.153 7.94.093.365-.274.673-.841.673s-.791.252-.471.572.138 1.131-.404 1.783c-.541.652-.665 1.178-.303 1.178s.212.491-.303 1.11c-.514.62-1.079 2.128-1.279 3.331s-.63 2.77-.942 3.499-.666 2.123-.808 3.095c-.141.972-.563 2.286-.942 2.894s-.482 1.465-.202 1.918c.28.452.09 1.087-.437 1.413s-.76 1.119-.505 1.783.061 1.475-.437 1.783-.692 1.085-.437 1.75c.255.664.097 1.448-.336 1.716-.434.268-.787 1.178-.808 2.02-.056 2.351-.551 4.994-1.11 5.955-.533.916-1.523 5.861-2.221 11.04-.229 1.701-.631 4.295-.875 5.753-.674 4.03-1.285 8.479-1.649 11.911-.18 1.701-.587 4.181-.908 5.518l-.606 2.456h29.608c24.344 0 29.695.21 30.08 1.211.257.67.103 1.612-.37 2.086-.474.474-.984 1.809-1.11 2.994-.126 1.186-.526 2.678-.908 3.297-.383.619-.456 1.361-.168 1.649.287.287.065 1.036-.471 1.682s-.747 1.77-.471 2.49.121 1.534-.336 1.817-.841 1.387-.841 2.456c-.002 1.07-.207 3.346-.471 5.05-.691 4.451-1.322 9.564-1.75 14.13-.204 2.187-.641 6.514-.976 9.623l-.606 5.653 2.557-.606c1.411-.336 3.951-.764 5.653-.942 4.402-.461 10.432-1.439 16.352-2.658 1.458-.3 3.331-.528 4.172-.538s1.751-.374 2.02-.808c.268-.434 1.052-.591 1.716-.336s1.442.06 1.75-.437c.308-.498 1.119-.692 1.783-.437s1.442.06 1.75-.437c.308-.498 1.119-.726 1.783-.471s1.457.056 1.783-.471.934-.759 1.346-.505 1.886-.002 3.264-.572c1.377-.57 2.798-1.11 3.163-1.211s.867-.282 1.11-.404.826-.35 1.312-.471c.486-.122 1.069-.316 1.312-.437.243-.122.86-.316 1.346-.437.486-.122.989-.307 1.11-.404.122-.097 1.124-.329 2.254-.538s2.913-.866 3.97-1.447 2.716-1.188 3.667-1.346 2.044-.784 2.423-1.379c.378-.595.698-.752.707-.37.007.382.892.203 1.985-.404 1.094-.606 2.294-1.012 2.658-.908.365.103.673-.221.673-.707s.275-.805.639-.707c1.15.311 7.301-2.268 7.301-3.062 0-.417.389-.502.875-.202s.908.106.908-.437.389-.771.875-.471.875.061.875-.538c0-.647.666-.404 1.649.606.91.936 1.488 2.024 1.279 2.389-.21.365.062.639.606.639.543 0 .738.422.437.908-.3.486-.106.875.437.875s.771.389.471.875-.106.875.437.875.738.422.437.908c-.3.486-.198.875.236.875 2.06 0 .455 2.758-2.153 3.701-1.62.586-2.961 1.4-2.961 1.817s-.389.536-.875.236-.875-.106-.875.437-.389.738-.875.437c-.486-.3-.908-.111-.908.404s-.275.854-.639.774c-1.445-.316-5.552 1.274-5.552 2.153 0 .514-.231.677-.538.37s-1.393-.096-2.423.471-2.649 1.155-3.6 1.312c-.951.158-2.044.784-2.423 1.379-.378.595-.698.763-.707.37-.007-.393-.503-.413-1.11-.034-.608.38-1.598.785-2.187.875-2.132.324-13.09 4.105-14.03 4.845-.531.417-1.161.555-1.413.303s-1.624.027-3.03.606c-1.404.578-2.882.97-3.297.875-.416-.096-1.249.208-1.851.707-.601.499-1.284.735-1.514.505s-1.797-.002-3.466.505-4.03 1.097-5.249 1.312c-1.215.215-3.193.598-4.408.841-2.518.505-6.111 1.073-10.598 1.682-1.701.231-4.684.641-6.628.908-1.944.268-4.361.514-5.383.572-1.751.1-1.854.531-1.615 7.301.255 7.229.721 13.04 1.615 19.582.266 1.944.506 4.259.538 5.181.031.922.68 3.905 1.413 6.628s1.52 6.337 1.75 8.01c.23 1.67.834 3.522 1.346 4.138.512.617.684 1.545.37 2.052s-.182.942.303.942c.484 0 .895.697.908 1.548.03 1.868.665 5.85.976 6.157.123.122.316.624.437 1.11.122.486.306.989.404 1.11.098.122.303.962.471 1.851s.616 2.283.976 3.095c.832 1.879.974 2.472 1.11 4.105.143 1.71 1.192 1.662 7.671-.37 14.719-4.615 35.468-15.11 48.11-24.326 37.12-27.06 60.686-65.859 68.17-112.28 1.471-9.118 1.467-37.675 0-46.835-6.329-39.531-22.981-71.75-50.671-98.08-14.658-13.937-29.441-23.708-49.39-32.569-9.992-4.438-17.1-6.86-19.414-6.729m20.15 62.952c.664.031 1.332.416 2.523 1.178 4.873 3.116 4.918 3.336 4.811 23.451-.054 10.247-.165 19.07-.269 19.616-.104.543-1.042 1.658-2.052 2.49-3.739 3.08-7.997 2.762-11.238-.841-1.462-1.626-1.602-3.568-1.514-20.894.087-17.212.857-24.714 2.389-23.18.298.298 1.612-.098 2.927-.875 1.11-.656 1.759-.973 2.423-.942m-142.32.908c1.019.037 2.047.266 3.03.673 4.712 1.952 5.215 4.183 5.215 23.754v17.698l-2.423 2.591c-1.337 1.419-3.428 2.769-4.643 3.03-2.814.6-7.544-1.389-8.782-3.701-.595-1.111-.942-8.747-.942-20.289 0-17.196.13-18.624 1.783-20.726 1.384-1.759 3.504-2.811 5.753-2.994.337-.028.67-.046 1.01-.034" fill="#ffffff"/>
 <circle cx="256" stroke="#fefefe" cy="256" r="181.13" stroke-width="18.771" fill="none"/>
</svg>
