<?xml version="1.0" encoding="UTF-8" standalone="no"?>
<svg
   xmlns:dc="http://purl.org/dc/elements/1.1/"
   xmlns:cc="http://creativecommons.org/ns#"
   xmlns:rdf="http://www.w3.org/1999/02/22-rdf-syntax-ns#"
   xmlns:svg="http://www.w3.org/2000/svg"
   xmlns="http://www.w3.org/2000/svg"
   xmlns:sodipodi="http://sodipodi.sourceforge.net/DTD/sodipodi-0.dtd"
   xmlns:inkscape="http://www.inkscape.org/namespaces/inkscape"
   width="512"
   height="512"
   version="1.1"
   viewBox="0 0 512 512"
   id="svg18"
   sodipodi:docname="gitfiend.svg"
   inkscape:version="0.92.4 5da689c313, 2019-01-14">
  <metadata
     id="metadata24">
    <rdf:RDF>
      <cc:Work
         rdf:about="">
        <dc:format>image/svg+xml</dc:format>
        <dc:type
           rdf:resource="http://purl.org/dc/dcmitype/StillImage" />
        <dc:title></dc:title>
      </cc:Work>
    </rdf:RDF>
  </metadata>
  <defs
     id="defs22" />
  <sodipodi:namedview
     pagecolor="#ffffff"
     bordercolor="#666666"
     borderopacity="1"
     objecttolerance="10"
     gridtolerance="10"
     guidetolerance="10"
     inkscape:pageopacity="0"
     inkscape:pageshadow="2"
     inkscape:window-width="786"
     inkscape:window-height="480"
     id="namedview20"
     showgrid="false"
     inkscape:zoom="0.4609375"
     inkscape:cx="256"
     inkscape:cy="256"
     inkscape:window-x="0"
     inkscape:window-y="0"
     inkscape:window-maximized="0"
     inkscape:current-layer="svg18" />
  <g
     fill-rule="evenodd"
     id="g4">
    <path
       d="m471.95 253.05c0 120.9-98.01 218.9-218.9 218.9-120.9 0-218.9-98.01-218.9-218.9 0-120.9 98.01-218.9 218.9-218.9 120.9 0 218.9 98.01 218.9 218.9"
       fill="#cf7deb"
       id="path2" />
  </g>
  <g
     transform="matrix(1.3478326,0,0,1.3478326,-14.693662,-164.39933)"
     id="g14"
     style="fill:#ffffff;stroke-width:7.92269993">
    <path
       d="m 164.66,350.95 a 31.691,31.691 0 0 0 -31.691,31.691 31.691,31.691 0 0 0 31.691,31.691 31.691,31.691 0 0 0 31.691,-31.691 31.691,31.691 0 0 0 -31.691,-31.691 z m 0,15.845 a 15.845,15.845 0 0 1 15.845,15.845 15.845,15.845 0 0 1 -15.845,15.845 15.845,15.845 0 0 1 -15.845,-15.845 15.845,15.845 0 0 1 15.845,-15.845 z"
       style="paint-order:normal"
       id="path6"
       inkscape:connector-curvature="0" />
    <path
       d="m 164.66,208.34 a 31.691,31.691 0 0 0 -31.691,31.691 31.691,31.691 0 0 0 31.691,31.691 31.691,31.691 0 0 0 31.691,-31.691 31.691,31.691 0 0 0 -31.691,-31.691 z m 0,15.845 a 15.845,15.845 0 0 1 15.845,15.845 15.845,15.845 0 0 1 -15.845,15.845 15.845,15.845 0 0 1 -15.845,-15.845 15.845,15.845 0 0 1 15.845,-15.845 z"
       style="paint-order:normal"
       id="path8"
       inkscape:connector-curvature="0" />
    <path
       d="m 148.82,263.8 v 95.073 h 31.691 v -47.536 c 5.0098,6.1215 11.549,11.823 17.641,15.799 16.167,10.554 34.213,15.892 53.664,15.892 v -31.691 c -14.086,0 -24.753,-3.1696 -36.349,-10.739 -10.671,-6.9656 -22.079,-18.354 -34.956,-34.492 v -2.3057 z"
       style="paint-order:normal"
       id="path10"
       inkscape:connector-curvature="0" />
    <path
       d="m 275.58,295.49 a 31.691,31.691 0 0 0 -31.691,31.691 31.691,31.691 0 0 0 31.691,31.691 31.691,31.691 0 0 0 31.691,-31.691 31.691,31.691 0 0 0 -31.691,-31.691 z m 0,15.845 a 15.845,15.845 0 0 1 15.845,15.845 15.845,15.845 0 0 1 -15.845,15.845 15.845,15.845 0 0 1 -15.845,-15.845 15.845,15.845 0 0 1 15.845,-15.845 z"
       style="paint-order:normal"
       id="path12"
       inkscape:connector-curvature="0" />
  </g>
  <circle
     cx="256"
     stroke="#fefefe"
     cy="256"
     r="181.13"
     stroke-width="18.771"
     fill="none"
     id="circle16" />
</svg>
