<svg xmlns="http://www.w3.org/2000/svg" height="512" width="512" version="1.1" viewBox="0 0 512 512">
 <path fill-rule="evenodd" d="m471.95 253.05c0 120.9-98.01 218.9-218.9 218.9-120.9 0-218.9-98.01-218.9-218.9 0-120.9 98.01-218.9 218.9-218.9 120.9 0 218.9 98.01 218.9 218.9" fill="#da789c"/>
 <g fill="#ffffff" transform="matrix(.53765 0 0 .53765 118.36 98.832)">
  <path d="m288 192h-128c0-17.688-14.313-32-32-32v-32h128v-64h-160c-17.688 0-32 14.313-32 32v64c-17.688 0-32 14.313-32 32-17.688 0-32 14.313-32 32v192c0 17.688 14.313 32 32 32h256c17.688 0 32-14.313 32-32v-192c0-17.687-14.312-32-32-32m-80 224h-160c-8.844 0-16-7.156-16-16s7.156-16 16-16h160c8.844 0 16 7.156 16 16s-7.156 16-16 16"/>
  <path d="m416 96c0-17.688-14.31-32-32-32h-96v64h96c17.688 0 32-14.312 32-32"/>
  <path d="m416 256h-32c-17.688 0-32 14.313-32 32v64c0 17.688 14.313 32 32 32h32l96 64v-256z"/>
 </g>
 <circle r="181.13" cy="256" stroke="#fefefe" cx="256" stroke-width="18.771" fill="none"/>
</svg>
