<svg height="512" viewBox="0 0 512 512" width="512" xmlns="http://www.w3.org/2000/svg">
 <path d="m471.95 253.05c0 120.9-98.01 218.9-218.9 218.9-120.9 0-218.9-98.01-218.9-218.9 0-120.9 98.01-218.9 218.9-218.9 120.9 0 218.9 98.01 218.9 218.9" fill="#b22222" fill-rule="evenodd"/>
 <path d="m259.64 122.7l-29.567 46.3-53.08-21.675 6 57.41-53.632 9.393 39.18 39.24-45.851 42.18 60.913 9.393-9.615 59.746 54.24-27.511 28.4 52.13 28.344-51.576 50.631 26.399-1.223-56.24 54.911-6.447-38.571-44.518 37.35-42.795-53.08-9.948 4.835-55.08-53.688 20.508-26.51-46.907" fill="#ffffff" fill-rule="evenodd"/>
 <circle cx="256" stroke="#fefefe" cy="256" r="181.13" stroke-width="18.771" fill="none"/>
</svg>
