<svg height="512" viewBox="0 0 512 512" width="512" xmlns="http://www.w3.org/2000/svg">
 <path d="m471.95 253.05c0 120.9-98.01 218.9-218.9 218.9-120.9 0-218.9-98.01-218.9-218.9 0-120.9 98.01-218.9 218.9-218.9 120.9 0 218.9 98.01 218.9 218.9" fill="#56a8d6" fill-rule="evenodd"/>
 <path d="m215.84 328.22c-1.308-.011-2.593.002-3.906.031-10.664.239-21.507 1.853-32.25 4.875-37.791 10.631-68.09 37.626-83.37 72.75 39.758 40.77 95.27 66.09 156.72 66.09 69.08 0 130.69-32.02 170.81-82-20.919-20.14-51.653-29.02-81.59-20.594-8.627 2.427-16.577 6.283-23.813 11.09-24.01-32.25-62.04-51.908-102.59-52.25" fill="#ffffff" fill-opacity=".314"/>
 <path d="m216.33492 257.44062h79.32863v90.4322h-79.32863z" fill="#ffffff" fill-rule="evenodd"/>
 <path d="m117.33884 158.4532v32.47429h-.0251v156.941h59.04574v-130.36522h159.24666v130.36522h59.02839v-154.07193c.0303-.57468.0494-1.15283.0494-1.73358 0-18.62818-15.48867-33.61498-34.73227-33.61498-.0737 0-.14909-.00087-.22277 0h-156.94966z" fill="#ffffff" fill-rule="evenodd"/>
 <circle cx="256" stroke="#fefefe" cy="256" r="181.13" stroke-width="18.771" fill="none"/>
</svg>
