<svg height="512" viewBox="0 0 512 512" width="512" xmlns="http://www.w3.org/2000/svg" xmlns:xlink="http://www.w3.org/1999/xlink">
 <path d="m471.95 253.05c0 120.9-98.01 218.9-218.9 218.9-120.9 0-218.9-98.01-218.9-218.9 0-120.9 98.01-218.9 218.9-218.9 120.9 0 218.9 98.01 218.9 218.9" fill="#1284b7" fill-rule="evenodd"/>
 <path id="a" d="m337.4381 123.76668c-48.32097 7.09266-96.94289 12.26051-145.19306 19.73082-7.41307 3.82425-7.21126 13.41646-6.39873 20.56046-.29681 49.89647-.0525 99.79294-.12923 149.6953-23.87017-2.02512-49.94367 10.32744-59.33762 33.13844-5.94792 14.89931 2.78514 33.65769 18.20018 38.33637 19.13897 7.35819 41.61186.70631 56.18663-12.98158 10.27433-10.09023 14.91819-24.81252 13.86669-39.03915.15519-36.94439-.0419-73.89469.0921-110.83908v-21.18712l106.32503-15.87647c-.082 33.55207.14811 67.10886-.12923 100.66035-23.98051-1.96553-50.221 10.55697-59.39662 33.61579-5.5927 14.84031 3.18049 33.33316 18.47515 37.91212 19.51957 7.37117 42.29044.44668 56.81211-13.75635 9.81407-9.97988 14.04076-24.31686 13.12909-38.11273.29858-33.33906-.22717-66.67811.14752-100.01717.0484-25.11758.38768-50.30952-.9034-75.38167-1.9791-4.4279-7.05667-6.77402-11.74597-6.4542" fill="#ffffff"/>
 <use fill="#ffffff" height="1" width="1" xlink:href="#a"/>
 <circle cx="256" stroke="#fefefe" cy="256" r="181.13" stroke-width="18.771" fill="none"/>
</svg>
