<svg height="512" viewBox="0 0 512 512" width="512" xmlns="http://www.w3.org/2000/svg">
 <path d="m471.95 253.05c0 120.9-98.006 218.91-218.91 218.91s-218.91-98.006-218.91-218.91 98.006-218.91 218.91-218.91 218.91 98.006 218.91 218.91" fill="#68af4c" fill-rule="evenodd"/>
 <path d="m132.41 107.48v173.44c0 68.256 55.306 123.59 123.56 123.59 68.256 0 123.62-55.337 123.62-123.59 0-68.256-55.369-123.56-123.62-123.56v61.75c34.128 0 61.812 27.684 61.812 61.812s-27.684 61.812-61.812 61.812-61.75-27.684-61.75-61.812v-173.44z" fill="#ffffff"/>
 <circle cx="256" stroke="#fefefe" cy="256" r="181.13" stroke-width="18.771" fill="none"/>
</svg>
