<svg height="512" viewBox="0 0 512 512" width="512" xmlns="http://www.w3.org/2000/svg">
 <path d="m471.95 253.05c0 120.9-98.01 218.9-218.9 218.9-120.9 0-218.9-98.01-218.9-218.9 0-120.9 98.01-218.9 218.9-218.9 120.9 0 218.9 98.01 218.9 218.9" fill="#eecd4c" fill-rule="evenodd"/>
 <g fill="#ffffff" transform="matrix(.34780321 0 0 .34780321 90.120128 90.120128)">
  <path d="m30.819 625.771h257.196c7.512 0 12.206-8.133 8.449-14.639l-215.5-373.1c-3.762-6.514-13.142-6.484-16.915.024-40.728 70.244-64.049 151.838-64.049 238.881 0 49.441 7.529 97.121 21.493 141.965 1.271 4.083 5.049 6.869 9.326 6.869z"/>
  <path d="m477.104.001c-.056 0-.113 0-.169 0-138.499 0-263.205 59.041-350.335 153.32-2.906 3.144-3.433 7.812-1.292 11.521l128.477 222.528c3.757 6.509 13.151 6.504 16.904-.007l214.811-372.733c3.732-6.481-.914-14.627-8.396-14.629z"/>
  <path d="m923.156 328.436h-257.105c-7.512 0-12.207 8.134-8.449 14.638l215.336 372.71c3.764 6.514 13.145 6.482 16.916-.025 40.707-70.232 64.018-151.805 64.018-238.822 0-49.317-7.49-96.881-21.387-141.626-1.268-4.087-5.049-6.875-9.329-6.875z"/>
  <path d="m890.273 238.841c-65.607-113.65-176.74-197.712-308.479-227.268-4.178-.937-8.482.933-10.623 4.64l-128.573 222.695c-3.756 6.506.939 14.638 8.453 14.636l430.75-.104c7.488-.002 12.217-8.112 8.472-14.599z"/>
  <path d="m502.268 700.341l-430.018.414c-7.49.006-12.212 8.121-8.462 14.604 65.551 113.346 176.403 197.205 307.803 226.83 4.179.943 8.49-.928 10.632-4.637l128.503-222.576c3.758-6.508-.943-14.643-8.458-14.635z"/>
  <path d="m700.109 566.425c-3.754-6.504-13.141-6.504-16.898-.002l-215.35 372.807c-3.744 6.482.902 14.631 8.387 14.641.229 0 .459 0 .688 0 138.522 0 263.245-59.059 350.377-153.365 2.906-3.145 3.432-7.812 1.293-11.52z"/>
 </g>
 <path d="m268.13207 198.05293c-16.77344.41412-33.55214.004-50.3278.15611-10.31326 52.90328-20.62292 105.80728-30.93569 158.71066 13.20209 0 26.40418 0 39.60626 0 3.60528-18.50497 7.21321-37.00942 10.81952-55.51419 21.28066.56265 45.06866-.10059 62.18144-14.54535 21.09086-17.75065 26.14541-52.95325 8.33227-74.64968-9.99994-10.78926-25.42481-14.48267-39.676-14.15755zm1.10603 35.84807c8.42374.25835 11.35386 11.29802 8.44636 18.01039-2.42743 9.82526-13.25945 14.61212-22.47105 13.69421-3.62711.11205-7.25514-.027-10.88097-.11957 2.02275-10.50897 4.04549-21.01794 6.06823-31.5269 6.27921.003 12.55857.0236 18.83743-.0582z" fill="#ffffff"/>
 <circle cx="256" stroke="#fefefe" cy="256" r="181.13" stroke-width="18.771" fill="none"/>
</svg>
