<svg xmlns="http://www.w3.org/2000/svg" height="512" width="512">
 <path d="M471.95 253.05c0 120.9-98.01 218.9-218.9 218.9-120.9 0-218.9-98.01-218.9-218.9 0-120.9 98.01-218.9 218.9-218.9 120.9 0 218.9 98.01 218.9 218.9" fill="#20a35e" fill-rule="evenodd"/>
 <path d="M386.454 353.688l-7.684 8.26-2.055-1.83c-1.13-1.007-21.94-20.162-46.246-42.568-39.736-36.63-44.17-40.997-43.973-43.318.19-2.21-1.16-3.864-9.404-11.497-5.293-4.902-10.147-8.71-10.785-8.463-.637.247-4.223 2.563-7.97 5.146-11.795 8.135-27.724 12.993-42.525 12.97-35.618-.057-66.44-24.686-74.71-59.698-2.268-9.602-2.073-25.59.43-35.365 5.55-21.66 20.204-39.84 40.024-49.66 12.22-6.055 20.55-7.986 34.448-7.986 13.51 0 21.842 1.872 33.55 7.54 40.007 19.364 54.713 68.83 32.057 107.832l-4.183 7.203 7.18 6.67c12.3 11.428 13.104 12.003 15.072 10.774 1.54-.964 6.812 3.604 48.13 41.71 25.522 23.537 46.385 43.068 46.365 43.404-.02.338-3.496 4.33-7.722 8.872zM272.812 178.854c-3.044-9.953-7.08-16.56-15.008-24.583-12.55-12.697-27.517-18.508-45.36-17.61-24.448 1.227-45.583 17.4-53.044 40.594-14.5 45.07 25.534 87.596 71.687 76.155 26.505-6.572 45.828-33.21 44.083-60.775-.265-4.213-1.326-10.414-2.356-13.78z" fill="#fff"/>
 <circle cx="256" stroke="#fefefe" cy="256" r="181.13" stroke-width="18.771" fill="none"/>
</svg>
