<svg viewBox="0 0 512 512" xmlns="http://www.w3.org/2000/svg">
 <path d="m471.95 253.05c0 120.9-98.01 218.91-218.91 218.91-120.9 0-218.91-98.01-218.91-218.91 0-120.9 98.01-218.91 218.91-218.91 120.9 0 218.91 98.01 218.91 218.91" fill="#f2bb2c" fill-rule="evenodd"/>
 <path d="m329 182.86v146.28h105.84v-104.49h-62.47v-41.797h-43.37m-126.3 41.797v20.898h62.922v22.957h-62.922v60.63h105.84v-104.48h-105.84m-125.54.952v63.808h62.928v18.827h-62.928v20.898h105.84v-60.632h-62.922v-22.01h62.922v-20.898h-105.84m295.21 19.947h18.652v62.689h-18.652zm-126.3 43.862h20v18.827h-20z" fill="#ffffff" fill-rule="evenodd"/>
 <circle cx="256" stroke="#fefefe" cy="256" r="181.13" stroke-width="18.771" fill="none"/>
</svg>
