<?xml version="1.0" encoding="UTF-8"?>
<svg width="512" height="512" version="1.1" viewBox="0 0 512 512" xmlns="http://www.w3.org/2000/svg">
 <path d="m471.95 253.05c0 120.9-98.01 218.9-218.9 218.9-120.9 0-218.9-98.01-218.9-218.9 0-120.9 98.01-218.9 218.9-218.9 120.9 0 218.9 98.01 218.9 218.9" fill="#0028a7" fill-opacity=".45397" fill-rule="evenodd"/>
 <path d="m262.71 115.34a132.2 118.79 0 0 0-132.2 118.78 132.2 118.79 0 0 0 38.992 84.134l3.3279 56.444a5.4972 5.3344 0 0 0 8.2449 4.3123l51.767-29.295a132.2 118.79 0 0 0 29.866 3.1873 132.2 118.79 0 0 0 132.2-118.78 132.2 118.79 0 0 0-132.2-118.78z" fill="#ffffff"/>
<circle cx="256" stroke="#fefefe" cy="256" r="181.13" stroke-width="18.771" fill="none" /></svg>
