<svg height="512" viewBox="0 0 512 512" width="512" xmlns="http://www.w3.org/2000/svg">
 <path d="m471.95 253.05c0 120.9-98.01 218.9-218.9 218.9-120.9 0-218.9-98.01-218.9-218.9 0-120.9 98.01-218.9 218.9-218.9 120.9 0 218.9 98.01 218.9 218.9" fill="#79c943" fill-rule="evenodd"/>
 <path d="m263.50306 107.63895c-46.44 0-87.63 22.02-114.25 56.03l18.25 11.594c22.765-27.959 57.52-45.75 96.28-45.75 68.54 0 124.19 55.767 124.19 124.5 0 68.68-55.65 124.44-124.19 124.44-38.628 0-73.27-17.719-96.06-45.531l-18.25 11.625c26.715 33.909 67.801 55.781 114.28 55.781 80.45 0 145.69-65.53 145.69-146.31 0-80.73-65.29-146.28-145.69-146.28l-.25-.094m.063 57.12l-.063.031c-26.19 0-49.724 11.392-66.06 29.438l18.906 11.813c12.144-12.05 28.832-19.438 47.22-19.438 37.2 0 67.38 30.501 67.38 68.03 0 37.579-30.14 68.06-67.37 68.06-18.716 0-35.651-7.669-47.844-20.09l-18.219 11.594c16.339 18.05 39.823 29.438 66.06 29.438 49.26 0 89.19-40.09 89.19-89.44 0-49.39-39.94-89.44-89.19-89.44m-147 3.844v170.69l148.03-86.19z" fill="#ffffff" fill-rule="evenodd"/>
 <circle cx="256" stroke="#fefefe" cy="256" r="181.13" stroke-width="18.771" fill="none"/>
</svg>
