<svg height="512" viewBox="0 0 512 512" width="512" xmlns="http://www.w3.org/2000/svg">
 <path d="m471.95 253.05c0 120.9-98.01 218.9-218.9 218.9-120.9 0-218.9-98.01-218.9-218.9 0-120.9 98.01-218.9 218.9-218.9 120.9 0 218.9 98.01 218.9 218.9" fill="#555555" fill-rule="evenodd"/>
 <g fill="#ffffff" fill-rule="evenodd" transform="matrix(.86336 0 0 .86336 -840.91 27.361)">
  <path d="m1291.6 87.67c-46.563 18.646-69.19 71.51-50.55 118.07 18.645 46.563 71.51 69.19 118.07 50.55 46.562-18.645 69.19-71.51 50.55-118.07-18.645-46.563-71.51-69.19-118.07-50.55m14.818 37c26.11-10.457 55.745 2.266 66.2 28.379 10.457 26.11-2.222 55.727-28.335 66.18-26.11 10.457-55.772-2.204-66.23-28.317-10.457-26.11 2.249-55.79 28.362-66.25"/>
  <path d="m1210.1 309.31c-33.43 13.387-49.687 51.36-36.3 84.79 13.387 33.43 51.34 49.642 84.77 36.26 33.429-13.386 49.705-51.32 36.32-84.75-13.387-33.43-51.36-49.687-84.79-36.3m5.302 13.242c26.11-10.457 55.789 2.249 66.25 28.362 10.457 26.11-2.266 55.745-28.379 66.2-26.11 10.457-55.727-2.222-66.18-28.335-10.457-26.11 2.204-55.772 28.317-66.23"/>
  <path d="m1212.3 309.63l30.06-110.47 112.61 57.877-58.47 94.52-12.31-6.13c-13.265-17.429-30.16-30.425-58.672-29.22z"/>
  <path d="m1014.1 331.66c8.937 28.18 22.733 54.19 40.41 77.06l172.56 1c21.285.122 38.534-16.903 38.656-38.19.122-21.285-16.934-38.534-38.22-38.656l-213.41-1.219"/>
 </g>
<circle cx="256" stroke="#fefefe" cy="256" r="181.13" stroke-width="18.771" fill="none" /></svg>
