<svg height="512" viewBox="0 0 512 512" width="512" xmlns="http://www.w3.org/2000/svg">
 <path d="m471.95 253.05c0 120.9-98.01 218.9-218.9 218.9-120.9 0-218.9-98.01-218.9-218.9 0-120.9 98.01-218.9 218.9-218.9 120.9 0 218.9 98.01 218.9 218.9" fill="#cd1d31" fill-rule="evenodd"/>
 <path d="m122.43325 207.32225c-.12238 0-.22695.099-.22695.2136v142.28875c0 .11459.10457.2136.22695.2136h267.14462c.12238 0 .22696-.099.22696-.2136v-142.28875c0-.11459-.10458-.2136-.22696-.2136h-97.56624v1.98581c0 .2759-.0122.55403-.0323.82436.004.10903 0 .22584 0 .33598v10.17159c0 6.26448-5.37003 11.33303-12.00943 11.33303h-47.93763c-6.63829 0-11.97717-5.06743-11.97717-11.33303v-10.17159c0-.19024-.009-.39271 0-.58073-.004-.0801.002-.16353 0-.24475-.003-.11236-.0323-.22361-.0323-.33597v-1.98581h-97.59962" fill="#ffffff" fill-rule="evenodd"/>
 <path d="m251.29412 161.98788c-39.45258.0223-77.32987.0745-128.86087.12237-.12237 0-.22695.0245-.22695.0612v22.84852c0 .0367.10458.0612.22695.0612h97.59963v-3.91044c0-6.21442 5.29438-11.23625 11.87927-11.23625h48.22688c6.586 0 11.87927 5.02628 11.87927 11.23625v3.91044h97.56625c.12238 0 .22695-.0245.22695-.0612v-22.84852c0-.0367-.10457-.0612-.22695-.0612-57.82107-.13795-98.8345-.14462-138.28375-.12238" fill="#ffffff" fill-rule="evenodd"/>
 <circle cx="256" stroke="#fefefe" cy="256" r="181.13" stroke-width="18.771" fill="none"/>
</svg>
