<svg height="512" viewBox="0 0 512 512" width="512" xmlns="http://www.w3.org/2000/svg">
 <path d="m471.95 253.05c0 120.9-98.01 218.9-218.9 218.9-120.9 0-218.9-98.01-218.9-218.9 0-120.9 98.01-218.9 218.9-218.9 120.9 0 218.9 98.01 218.9 218.9" fill="#0078ad" fill-rule="evenodd"/>
 <g fill="#ffffff" fill-rule="evenodd">
  <path d="m256 106c-82.84 0-150 67.16-150 150s67.16 150 150 150 150-67.16 150-150-67.16-150-150-150m0 50.15c55.14 0 99.84 44.707 99.84 99.85 0 55.14-44.703 99.85-99.84 99.85-55.14 0-99.84-44.707-99.84-99.85 0-55.14 44.703-99.85 99.84-99.85"/>
  <rect height="130.13" rx="25" transform="rotate(90)" width="50" x="231" y="-321.06"/>
 </g>
 <circle cx="256" stroke="#fefefe" cy="256" r="181.13" stroke-width="18.771" fill="none"/>
</svg>
