<svg height="512" viewBox="0 0 512 512" width="512" xmlns="http://www.w3.org/2000/svg">
 <path d="m471.95 253.05c0 120.9-98.01 218.9-218.9 218.9-120.9 0-218.9-98.01-218.9-218.9 0-120.9 98.01-218.9 218.9-218.9 120.9 0 218.9 98.01 218.9 218.9" fill="#cd7831" fill-rule="evenodd"/>
 <path d="m240.64 136.95c-65.64 0-119.05 53.4-119.05 119.05 0 65.64 53.4 119.05 119.05 119.05 46.871 0 89.56-27.737 108.71-70.68.331-.738.215-1.628-.223-2.307-.44-.674-1.202-1.042-2.01-1.042h-43.899c-.745 0-1.485.3-1.935.893-14.39 18.938-37.06 30.28-60.64 30.28-42.01 0-76.19-34.18-76.19-76.19 0-42.01 34.18-76.19 76.19-76.19 24.607 0 47.881 12.05 62.2 32.29.448.631 1.161 1.042 1.935 1.042h43.3c.798 0 1.492-.375 1.935-1.042.44-.664.535-1.496.223-2.232-18.45-43.593-62.49-72.916-109.6-72.916m128.57 69.05c-.233.02-.446.054-.67.149-.893.367-1.488 1.268-1.488 2.232v26.19h-85.71c-1.317 0-2.381 1.067-2.381 2.381v40.25c0 1.317 1.064 2.381 2.381 2.381h85.71v26.19c0 .948.54 1.782 1.414 2.158.874.376 1.911.204 2.604-.447l49.777-46.875c.464-.44.735-1.068.744-1.711.014-.64-.22-1.254-.67-1.711l-49.777-50.45c-.509-.514-1.236-.808-1.935-.744" fill="#ffffff"/>
 <circle cx="256" stroke="#fefefe" cy="256" r="181.13" stroke-width="18.771" fill="none"/>
</svg>
