<svg xmlns:rdf="http://www.w3.org/1999/02/22-rdf-syntax-ns#" xmlns="http://www.w3.org/2000/svg" version="1.1" xmlns:cc="http://creativecommons.org/ns#" xmlns:dc="http://purl.org/dc/elements/1.1/" viewBox="0 0 512 512">
 <path d="m471.95 253.05c0 120.9-98.01 218.9-218.9 218.9-120.9 0-218.9-98.01-218.9-218.9 0-120.9 98.01-218.9 218.9-218.9 120.9 0 218.9 98.01 218.9 218.9" fill-rule="evenodd" fill="#70d270"/>
 <path d="m382.29 235.59c-8.93-54.15-49.55-98.58-101.07-110.14l-8.6316 43.814c34.393 7.6484 61.777 37.116 67.731 73.242 5.7437 34.851-8.5527 68.912-36.338 88.188l-16.451-28.251-29.693 83.778 83.693 9.0654-15.385-26.221c42.817-28.618 64.868-80.54 56.145-133.47zm-129.25-108.8-82.019-10.073 15.444 26.577c-42.654 28.178-65.482 81.326-56.808 133.95 8.959 54.361 47.862 97.252 99.468 109.29l9.0463-43.516c-34.466-8.0962-60.562-36.468-66.534-72.708-5.6964-34.564 8.9863-69.573 36.635-88.602l15.68 28.012 29.088-82.936z" fill="#ffffff"/>
</svg>
