<svg xmlns="http://www.w3.org/2000/svg" height="512" width="512" version="1.1" viewBox="0 0 512 512">
 <path fill-rule="evenodd" d="m471.95 253.05c0 120.9-98.01 218.9-218.9 218.9-120.9 0-218.9-98.01-218.9-218.9 0-120.9 98.01-218.9 218.9-218.9 120.9 0 218.9 98.01 218.9 218.9" fill="#29ab0f"/>
 <path fill-rule="evenodd" fill="#ffffff" d="m254.76 109.37c-38.093 0-76.662 21.844-76.662 54.974v60.274h-28.248v134.63h212.3v-134.63h-29.101v-61.944c0-24.897-29.994-53.304-78.296-53.304m-0.54589 30.195c20.51-0.092 42.847 12.198 42.847 30.929v54.122h-84.096l0.0338-0.029v-53.858c0-20.315 23.567-31.083 41.212-31.162m0.9558 114.57c11.736 0 21.254 8.1711 21.254 18.246 0 6.007-3.4103 11.32-8.631 14.647l8.4265 40.592h-41.726l8.358-40.387c-5.4003-3.3076-8.9426-8.7199-8.9426-14.849 0-10.075 9.5183-18.246 21.254-18.246"/>
 <circle r="181.13" cy="256" stroke="#fefefe" cx="256" stroke-width="18.771" fill="none"/>
</svg>
