<?xml version="1.0" encoding="UTF-8"?>
<svg width="512" height="512" version="1.1" viewBox="0 0 512 512" xmlns="http://www.w3.org/2000/svg" xmlns:cc="http://creativecommons.org/ns#" xmlns:dc="http://purl.org/dc/elements/1.1/" xmlns:rdf="http://www.w3.org/1999/02/22-rdf-syntax-ns#">
 <metadata>
  <rdf:RDF>
   <cc:Work rdf:about="">
    <dc:format>image/svg+xml</dc:format>
    <dc:type rdf:resource="http://purl.org/dc/dcmitype/StillImage"/>
    <dc:title/>
   </cc:Work>
  </rdf:RDF>
 </metadata>
 <path d="m471.95 253.05c0 120.9-98.01 218.9-218.9 218.9-120.9 0-218.9-98.01-218.9-218.9 0-120.9 98.01-218.9 218.9-218.9 120.9 0 218.9 98.01 218.9 218.9" fill="#a663e5" fill-rule="evenodd"/>
 <g transform="matrix(.93365 0 0 .93365 16.457 11.786)" fill="#fff" stroke-width="10.589">
  <path d="m255.89 102.18a158.83 158.83 0 0 0-158.38 158.83 158.83 158.83 0 0 0 158.83 158.83 158.83 158.83 0 0 0 158.83-158.83 158.83 158.83 0 0 0-158.83-158.83 158.83 158.83 0 0 0-0.44727 0zm-62.197 24.482 26.887 57.664a84.71 84.71 0 0 0-48.953 76.686h-63.533a148.24 148.24 0 0 1 85.6-134.35zm62.645 81.406a52.944 52.944 0 0 1 52.943 52.943 52.944 52.944 0 0 1-52.943 52.943 52.944 52.944 0 0 1-52.943-52.943 52.944 52.944 0 0 1 52.943-52.943zm84.711 52.943 63.533 4e-3a148.24 148.24 0 0 1-85.6 134.36l-26.887-57.658a84.71 84.71 0 0 0 48.953-76.707z" style="paint-order:normal"/>
  <circle cx="256.34" cy="261.01" r="10.589" style="paint-order:normal"/>
 </g>
 <circle cx="256" cy="256" r="181.13" fill="none" stroke="#fefefe" stroke-width="18.771"/>
</svg>
