<?xml version="1.0" encoding="UTF-8"?>
<svg width="512" height="512" version="1.1" viewBox="0 0 512 512" xmlns="http://www.w3.org/2000/svg">
 <path d="m471.95 253.05c0 120.9-98.01 218.9-218.9 218.9-120.9 0-218.9-98.01-218.9-218.9 0-120.9 98.01-218.9 218.9-218.9 120.9 0 218.9 98.01 218.9 218.9" fill="#1793d1" fill-rule="evenodd" style="fill:#eb8c57"/>
 <path d="m151.19 156.72c-9.8228 0-17.73 7.9071-17.73 17.73v153.67c0 9.8228 7.9071 17.732 17.73 17.732h212.78c9.8228 0 17.732-7.9088 17.732-17.732v-153.67c0-9.8228-7.9088-17.73-17.732-17.73zm151.01 41.389c1.8573-0.11525 3.8314 0.4777 5.4863 1.8046h7e-3c3.3098 2.6596 4.0666 7.2215 1.6847 10.23l-60.11 76.113c-2.376 3.0143-12.57 7.6788-14.562 6.0771-1.9977-1.5958 0.22372-12.653 2.5997-15.662l60.108-76.12c1.188-1.5042 2.9284-2.3274 4.7858-2.4427zm-148.71 112.28a8.8652 8.8652 0 0 1 8.8643 8.866 8.8652 8.8652 0 0 1-8.8643 8.8661 8.8652 8.8652 0 0 1-8.8661-8.8661 8.8652 8.8652 0 0 1 8.8661-8.866z" style="fill:#ffffff;stroke-width:5.9104"/>
 <circle cx="256" cy="256" r="181.13" fill="none" stroke="#fefefe" stroke-width="18.771"/>
</svg>
