<svg height="512" viewBox="0 0 512 512" width="512" xmlns="http://www.w3.org/2000/svg">
 <path d="m471.95 253.05c0 120.9-98.01 218.9-218.9 218.9-120.9 0-218.9-98.01-218.9-218.9 0-120.9 98.01-218.9 218.9-218.9 120.9 0 218.9 98.01 218.9 218.9" fill="#68af4c" fill-rule="evenodd"/>
 <g fill="#ffffff" fill-rule="evenodd">
  <path d="m124.39 127.12c-7.658 1.547-13.402 8.623-13.402 16.757v167.52c0 9.251 7.459 16.757 16.757 16.757h16.757v-137.85c0-8.118 5.744-15.194 13.402-16.757 1.088-.214 2.19 0 3.354 0h184.26v-29.684c0-9.282-7.505-16.757-16.757-16.757h-201.11c-1.164 0-2.267-.214-3.354 0"/>
  <path d="m173.59 189.23c-7.658 1.547-13.356 8.47-13.356 16.588v167.6c0 9.251 7.704 16.588 17 16.588h200.8c9.205 0 17-7.352 17-16.588v-167.6c0-9.282-7.766-16.588-17-16.588h-200.8c-1.164 0-2.558-.214-3.645 0m3.645 42.11h200.8v142.09h-200.8z"/>
 </g>
 <circle cx="256" stroke="#fefefe" cy="256" r="181.13" stroke-width="18.771" fill="none"/>
</svg>
