<svg xmlns="http://www.w3.org/2000/svg" height="512" viewBox="0 0 512 512" width="512">
 <path d="M471.95 253.05c0 120.9-98.01 218.9-218.9 218.9-120.9 0-218.9-98.01-218.9-218.9 0-120.9 98.01-218.9 218.9-218.9 120.9 0 218.9 98.01 218.9 218.9" fill="#d13517" fill-rule="evenodd"/>
 <g fill="#fff">
  <path d="M127.847 144.767h72.767v135.14h-72.767zm83.162 62.374h103.95v114.347H211.01zm0 124.743h166.323v41.582H211.01zm0-187.116h103.95v51.978H211.01zm114.347 62.374h51.976v114.347h-51.976z"/>
  <path d="M127.847 290.302h72.767v83.163h-72.767z" fill-rule="evenodd"/>
  <path d="M325.357 144.767h51.976v51.978h-51.976z"/>
 </g>
 <circle cx="256" stroke="#fefefe" cy="256" r="181.13" stroke-width="18.771" fill="none"/>
</svg>
