<svg xmlns="http://www.w3.org/2000/svg" height="512" viewBox="0 0 512 512" width="512">
 <path d="M471.95 253.05c0 120.9-98.01 218.9-218.9 218.9-120.9 0-218.9-98.01-218.9-218.9 0-120.9 98.01-218.9 218.9-218.9 120.9 0 218.9 98.01 218.9 218.9" fill="#e3b041" fill-rule="evenodd"/>
 <g fill="#fff">
  <path d="M294.504 186.546c-46.54 12.408-82.332 54.004-123.572 82.805 17.576-7.188 39.663-18.485 48.674-19.274l-29.074 32.24 22.44-9.8c-10.033 29.824-21.926 57.676-50.87 68.578l95.427 73.4 99.916-78.457c-39.026 1.062-73.715-3.52-77.424-48.35-.952-5.37.433-42.67 54.042-59.728-5.41-3.713-23.54-1.225-36.345-1.265-.558-5.057 2.567-26.942 43.93-29.39-10.386-10.668-23.462-11.497-42.03-5.692-1.973-1.902-3.125-1.7-5.057-5.058m-10.75 16.12c2.65 1.144 3.004 2.882 3.48 4.744-4.623.95-11.145 3.165-12.956.636-.828-.87 4.825-4.066 9.517-5.29"/>
  <path d="M193.697 128.355c-51.87 24.06-87.864 76.517-87.864 137.478 0 83.745 67.91 151.655 151.697 151.655 83.747 0 151.656-67.91 151.656-151.655 0-60.204-35.124-112.155-85.96-136.527l-1.58 1.577C361.786 153.405 389 196.263 389 245.566c0 66.21-48.867 120.73-112.508 129.892l-18.963 31.958-18.963-31.957c-63.642-9.163-112.507-63.683-112.507-129.894 0-49.816 27.77-93.03 68.576-115.35-.273-.596-.667-1.264-.952-1.9m0 .04"/>
 </g>
 <circle cx="256" stroke="#fefefe" cy="256" r="181.13" stroke-width="18.771" fill="none"/>
</svg>
