<?xml version="1.0" encoding="UTF-8" standalone="no"?>
<svg
   width="512"
   height="512"
   version="1.1"
   viewBox="0 0 512 512"
   id="svg45"
   xmlns="http://www.w3.org/2000/svg"
   xmlns:svg="http://www.w3.org/2000/svg">
  <defs
     id="defs7">
    <clipPath
       id="clipPath-283653061">
      <g
         transform="translate(0 -1004.4)"
         id="g4">
        <path
           transform="matrix(15.333 0 0 11.5 415 878.86)"
           d="m-24 13c0 1.105-0.672 2-1.5 2s-1.5-0.895-1.5-2 0.672-2 1.5-2 1.5 0.895 1.5 2z"
           fill="#1890d0"
           id="path2" />
      </g>
    </clipPath>
  </defs>
  <path
     d="m471.95 253.05c0 120.9-98.01 218.9-218.9 218.9-120.9 0-218.9-98.01-218.9-218.9 0-120.9 98.01-218.9 218.9-218.9 120.9 0 218.9 98.01 218.9 218.9"
     fill="#0078ad"
     fill-rule="evenodd"
     id="path9" />
  <path
     d="m 359.03931,137.97114 134.32506,153.48015 c 0,0 1.85558,34.2997 -4.21357,45.1775 -62.45451,79.94674 -133.64831,126.54212 -228.50002,137.77916 -10.7427,1.27305 -17.88934,-6.40825 -17.88934,-6.40825 l -109.84067,-140.97123 23.65531,-188.49991 61.56244,-39.062593 37.03198,48.510203 22.82147,-53.49799 28.84766,34.18128 c 4.30435,10.15156 5.31375,13.78917 12.02356,15.51859 19.46944,5.01834 40.17846,-6.21265 40.17846,-6.21265 z"
     fill="#000000"
     fill-rule="evenodd"
     opacity="0.25"
     stroke="#000000"
     id="path11"
     style="stroke-width:1.10354" />
  <g
     fill-rule="evenodd"
     id="g43">
    <path
       d="m256 1c-140.83 0-255 114.17-255 255s114.17 255 255 255 255-114.17 255-255-114.17-255-255-255m8.827 44.931c120.9 0 218.9 98 218.9 218.9s-98 218.9-218.9 218.9-218.93-98-218.93-218.9 98.03-218.9 218.93-218.9"
       fill-opacity=".067"
       id="path33" />
    <g
       fill-opacity=".129"
       id="g39">
      <path
         d="m256 4.433c-138.94 0-251.57 112.63-251.57 251.57s112.63 251.57 251.57 251.57 251.57-112.63 251.57-251.57-112.63-251.57-251.57-251.57m5.885 38.556c120.9 0 218.9 98 218.9 218.9s-98 218.9-218.9 218.9-218.93-98-218.93-218.9 98.03-218.9 218.93-218.9"
         id="path35" />
      <path
         d="m256 8.356c-136.77 0-247.64 110.87-247.64 247.64s110.87 247.64 247.64 247.64 247.64-110.87 247.64-247.64-110.87-247.64-247.64-247.64m2.942 31.691c120.9 0 218.9 98 218.9 218.9s-98 218.9-218.9 218.9-218.93-98-218.93-218.9 98.03-218.9 218.93-218.9"
         id="path37" />
    </g>
    <path
       d="m253.04 7.859c-135.42 0-245.19 109.78-245.19 245.19 0 135.42 109.78 245.19 245.19 245.19 135.42 0 245.19-109.78 245.19-245.19 0-135.42-109.78-245.19-245.19-245.19zm0 26.297c120.9 0 218.9 98 218.9 218.9s-98 218.9-218.9 218.9-218.93-98-218.93-218.9 98.03-218.9 218.93-218.9z"
       fill="#fff"
       stroke="#000"
       stroke-opacity=".31"
       stroke-width="4.904"
       id="path41" />
  </g>
  <g
     id="g53"
     transform="matrix(9.9755744,0,0,9.9755744,18.627032,4.6980101)"
     style="fill:#ffffff;fill-opacity:1">
    <g
       id="g51"
       style="fill:#ffffff;fill-opacity:1">
      <!-- color: #3b5d80 -->
      <g
         id="g49"
         style="fill:#ffffff;fill-opacity:1">
        <path
           d="m 26,9 h -4 v 15 h 4 M 26,9"
           style="fill:#ffffff;fill-opacity:1;fill-rule:nonzero;stroke:none"
           id="path33-3" />
        <path
           d="m 20,9.5 c -6.359,1.766 -11,7.617 -11,14.469 0,8.23 6.715,15.03 15,15.03 8.285,0 15,-6.801 15,-15.03 C 39,17.117 34.359,11.266 28,9.5 v 3.875 c 4.184,1.645 7.25,5.75 7.25,10.594 0,6.313 -5.04,11.375 -11.25,11.375 -6.203,0 -11.25,-5.063 -11.25,-11.375 0,-4.895 3.01,-9.05 7.25,-10.656 M 20,9.5"
           style="fill:#ffffff;fill-opacity:1;fill-rule:nonzero;stroke:none"
           id="path35-6" />
        <path
           d="m 23.25,16 v 16 h 1.5 V 16 m -1.5,0"
           style="fill:#ffffff;fill-opacity:1;fill-rule:nonzero;stroke:none"
           id="path37-7" />
        <path
           d="m 26.5,28.5 c 0,0.828 -1.117,1.5 -2.5,1.5 -1.383,0 -2.5,-0.672 -2.5,-1.5 0,-0.828 1.117,-1.5 2.5,-1.5 1.383,0 2.5,0.672 2.5,1.5 m 0,0"
           style="fill:#ffffff;fill-opacity:1;fill-rule:nonzero;stroke:none"
           id="path39" />
        <path
           d="M 19.25,31 V 17 h -1.5 v 14 m 1.5,0"
           style="fill:#ffffff;fill-opacity:1;fill-rule:nonzero;stroke:none"
           id="path41-5" />
        <path
           d="M 21,21.5 C 21,22.328 19.883,23 18.5,23 17.117,23 16,22.328 16,21.5 16,20.672 17.117,20 18.5,20 c 1.383,0 2.5,0.672 2.5,1.5 m 0,0"
           style="fill:#ffffff;fill-opacity:1;fill-rule:nonzero;stroke:none"
           id="path43" />
        <path
           d="M 30.25,31 V 17 h -1.5 v 14 m 1.5,0"
           style="fill:#ffffff;fill-opacity:1;fill-rule:nonzero;stroke:none"
           id="path45" />
        <path
           d="M 32,21.5 C 32,22.328 30.883,23 29.5,23 28.117,23 27,22.328 27,21.5 27,20.672 28.117,20 29.5,20 c 1.383,0 2.5,0.672 2.5,1.5 m 0,0"
           style="fill:#ffffff;fill-opacity:1;fill-rule:nonzero;stroke:none"
           id="path47" />
      </g>
    </g>
  </g>
</svg>
