<?xml version="1.0" encoding="UTF-8"?>
<svg width="512" height="512" version="1.1" viewBox="0 0 512 512" xmlns="http://www.w3.org/2000/svg" xmlns:cc="http://creativecommons.org/ns#" xmlns:dc="http://purl.org/dc/elements/1.1/" xmlns:rdf="http://www.w3.org/1999/02/22-rdf-syntax-ns#">
 <style/>
 <metadata>
  <rdf:RDF>
   <cc:Work rdf:about="">
    <dc:format>image/svg+xml</dc:format>
    <dc:type rdf:resource="http://purl.org/dc/dcmitype/StillImage"/>
    <dc:title/>
   </cc:Work>
  </rdf:RDF>
 </metadata>
 <g fill-rule="evenodd">
  <path d="m471.95 253.05c0 120.9-98.01 218.9-218.9 218.9-120.9 0-218.9-98.01-218.9-218.9 0-120.9 98.01-218.9 218.9-218.9 120.9 0 218.9 98.01 218.9 218.9" fill="#1FA732"/>
  <path d="m256 1c-140.83 0-255 114.17-255 255s114.17 255 255 255 255-114.17 255-255-114.17-255-255-255m8.827 44.931c120.9 0 218.9 98 218.9 218.9s-98 218.9-218.9 218.9-218.93-98-218.93-218.9 98.03-218.9 218.93-218.9" fill-opacity=".067"/>
  <g fill-opacity=".129">
   <path d="m256 4.433c-138.94 0-251.57 112.63-251.57 251.57s112.63 251.57 251.57 251.57 251.57-112.63 251.57-251.57-112.63-251.57-251.57-251.57m5.885 38.556c120.9 0 218.9 98 218.9 218.9s-98 218.9-218.9 218.9-218.93-98-218.93-218.9 98.03-218.9 218.93-218.9"/>
   <path d="m256 8.356c-136.77 0-247.64 110.87-247.64 247.64s110.87 247.64 247.64 247.64 247.64-110.87 247.64-247.64-110.87-247.64-247.64-247.64m2.942 31.691c120.9 0 218.9 98 218.9 218.9s-98 218.9-218.9 218.9-218.93-98-218.93-218.9 98.03-218.9 218.93-218.9"/>
  </g>
 </g>
 <path d="m284.02 161.69-39.134-54.797-1.07 14.597 3.1985 9.3388 20.722 51.156-20.442-8.2-39.907 46.682-27.869 2.0888-17.829 2.5255 11.456 29.981 0.59742 46.171-20.23 23.999 9.9712 32.061 125.19 112.34c49.85-12.248 97.428-30.945 135.59-76.368 30.858-45.967 50.57-95.726 49.565-152.53l-108.2-85.665-40.601 12.558" opacity=".25"/>
 <path d="m253.04 7.859c-135.42 0-245.19 109.78-245.19 245.19 0 135.42 109.78 245.19 245.19 245.19 135.42 0 245.19-109.78 245.19-245.19 0-135.42-109.78-245.19-245.19-245.19zm0 26.297c120.9 0 218.9 98 218.9 218.9s-98 218.9-218.9 218.9-218.93-98-218.93-218.9 98.03-218.9 218.93-218.9z" fill="#fff" fill-rule="evenodd" stroke="#000" stroke-opacity=".31" stroke-width="4.904"/>
 <path d="m242.88 106.9c-6.7001 0-12.094 5.2705-12.094 11.817v27.977c-10.178 2.5062-19.791 6.4447-28.571 11.577l-20.239-19.776c-4.739-4.6305-12.364-4.6305-17.093 0l-19.869 19.414c-4.739 4.6304-4.739 12.081 0 16.702l20.239 19.776c-5.2528 8.5769-9.2814 17.972-11.848 27.917h-28.632c-6.7001 0-12.094 5.2705-12.094 11.817v27.495c0 6.5467 5.394 11.817 12.094 11.817h28.632c2.565 9.945 6.5957 19.338 11.848 27.917l-20.239 19.776c-4.739 4.6305-4.739 12.081 0 16.702l19.869 19.414c4.739 4.6305 12.364 4.6305 17.093 0l20.239-19.776c8.7778 5.1325 18.393 9.0689 28.571 11.577v27.977c0 6.5467 5.394 11.817 12.094 11.817h28.139c6.7001 0 12.094-5.2705 12.094-11.817v-27.977c10.178-2.5062 19.791-6.4446 28.571-11.577l20.239 19.776c4.739 4.6305 12.364 4.6305 17.093 0l19.869-19.414c4.739-4.6305 4.739-12.081 0-16.702l-20.239-19.776c5.2528-8.5769 9.2814-17.972 11.848-27.917h28.632c6.7 0 12.094-5.2705 12.094-11.817v-27.495c0-6.5467-5.394-11.817-12.094-11.817h-28.632c-2.565-9.945-6.5956-19.338-11.848-27.917l20.239-19.776c4.739-4.6305 4.739-12.081 0-16.702l-19.869-19.414c-4.739-4.6305-12.364-4.6305-17.093 0l-20.239 19.776c-8.7778-5.1325-18.393-9.0689-28.571-11.577v-27.977c0-6.5467-5.394-11.817-12.094-11.817zm14.07 92.789c27.242 0 49.314 21.556 49.314 48.185 0 26.619-22.061 48.185-49.314 48.185-27.242 0-49.314-21.556-49.314-48.185 0-26.619 22.061-48.185 49.314-48.185z" fill="#fff" stroke-width="1.2935"/>
</svg>
