<?xml version="1.0" encoding="UTF-8" standalone="no"?>
<svg
   width="512"
   height="512"
   version="1.1"
   viewBox="0 0 512 512"
   id="svg20"
   sodipodi:docname="qtscrcp.svg"
   inkscape:version="1.1 (c4e8f9ed74, 2021-05-24)"
   xmlns:inkscape="http://www.inkscape.org/namespaces/inkscape"
   xmlns:sodipodi="http://sodipodi.sourceforge.net/DTD/sodipodi-0.dtd"
   xmlns="http://www.w3.org/2000/svg"
   xmlns:svg="http://www.w3.org/2000/svg">
  <defs
     id="defs24" />
  <sodipodi:namedview
     id="namedview22"
     pagecolor="#ffffff"
     bordercolor="#666666"
     borderopacity="1.0"
     inkscape:pageshadow="2"
     inkscape:pageopacity="0.0"
     inkscape:pagecheckerboard="0"
     showgrid="false"
     inkscape:zoom="1.3300781"
     inkscape:cx="746.19677"
     inkscape:cy="480.79883"
     inkscape:window-width="1920"
     inkscape:window-height="1021"
     inkscape:window-x="0"
     inkscape:window-y="0"
     inkscape:window-maximized="1"
     inkscape:current-layer="svg20" />
  <g
     fill-rule="evenodd"
     id="g12">
    <path
       d="m471.95 253.05c0 120.9-98.01 218.9-218.9 218.9-120.9 0-218.9-98.01-218.9-218.9 0-120.9 98.01-218.9 218.9-218.9 120.9 0 218.9 98.01 218.9 218.9"
       fill="#1FA732"
       id="path2" />
    <path
       d="m256 1c-140.83 0-255 114.17-255 255s114.17 255 255 255 255-114.17 255-255-114.17-255-255-255m8.827 44.931c120.9 0 218.9 98 218.9 218.9s-98 218.9-218.9 218.9-218.93-98-218.93-218.9 98.03-218.9 218.93-218.9"
       fill-opacity=".067"
       id="path4" />
    <g
       fill-opacity=".129"
       id="g10">
      <path
         d="m256 4.433c-138.94 0-251.57 112.63-251.57 251.57s112.63 251.57 251.57 251.57 251.57-112.63 251.57-251.57-112.63-251.57-251.57-251.57m5.885 38.556c120.9 0 218.9 98 218.9 218.9s-98 218.9-218.9 218.9-218.93-98-218.93-218.9 98.03-218.9 218.93-218.9"
         id="path6" />
      <path
         d="m256 8.356c-136.77 0-247.64 110.87-247.64 247.64s110.87 247.64 247.64 247.64 247.64-110.87 247.64-247.64-110.87-247.64-247.64-247.64m2.942 31.691c120.9 0 218.9 98 218.9 218.9s-98 218.9-218.9 218.9-218.93-98-218.93-218.9 98.03-218.9 218.93-218.9"
         id="path8" />
    </g>
  </g>
  <path
     d="m 414.35904,130.39711 c -104.93963,4.83732 -147.24161,6.56513 -218.38103,16.6839 l -56.32041,0.5905 -15.04192,-0.35461 -0.68778,50.6733 -9.9632,139.90617 104.01015,60.85841 -40.35,7.50455 122.35082,65.28526 C 470.70724,410.8705 481.6296,312.74198 475.90788,159.06573"
     opacity="0.25"
     id="path14"
     sodipodi:nodetypes="cccccccccc" />
  <path
     d="m253.04 7.859c-135.42 0-245.19 109.78-245.19 245.19 0 135.42 109.78 245.19 245.19 245.19 135.42 0 245.19-109.78 245.19-245.19 0-135.42-109.78-245.19-245.19-245.19zm0 26.297c120.9 0 218.9 98 218.9 218.9s-98 218.9-218.9 218.9-218.93-98-218.93-218.9 98.03-218.9 218.93-218.9z"
     fill="#ffffff"
     fill-rule="evenodd"
     stroke="#000000"
     stroke-opacity=".31"
     stroke-width="4.904"
     id="path16" />
  <g
     id="g1604"
     transform="translate(-2.6043075,13.994583)" />
  <g
     id="g2124"
     transform="matrix(1.1585575,0,0,1.1585575,-42.283272,-25.9322)">
    <g
       id="g2114"
       transform="translate(-1.852472,-4.164971)">
      <path
         d="m 255.05164,315.72942 -37.79538,0.0581 c 0,35.82849 0,35.82849 -25.59178,51.18357 l 66.53864,5.11835 66.53864,-5.11835 c -25.59179,-15.35508 -25.59179,-15.35508 -25.59179,-51.18357 z"
         style="fill:#ffffff;fill-opacity:1;stroke-width:10.2367"
         id="path21"
         sodipodi:nodetypes="ccccccc" />
      <path
         d="m 191.66448,366.97106 v 10.23671 l 133.0144,0.005 0.0629,-10.2414 z"
         style="fill:#ffffff;fill-opacity:1;stroke-width:10.2367"
         id="path23"
         sodipodi:nodetypes="ccccc" />
    </g>
    <path
       id="rect25"
       style="fill:#ffffff;fill-opacity:1;stroke-width:10.2367"
       d="m 140.48047,131.52734 c -5.67114,0 -10.23633,4.56519 -10.23633,10.23633 v 163.78711 c 0,5.67114 4.56519,10.23633 10.23633,10.23633 h 245.68164 c 5.67114,0 10.23633,-4.56519 10.23633,-10.23633 V 141.76367 c 0,-5.67114 -4.56519,-10.23633 -10.23633,-10.23633 z M 150.7168,152 H 375.92578 V 295.31445 H 150.7168 Z" />
    <path
       id="path29"
       style="fill:#feffff;fill-opacity:1;stroke-width:10.2367"
       d="m 192.80078,172.53516 a 10.236714,10.236714 0 0 0 -7.53711,2.17968 10.236714,10.236714 0 0 0 -1.59961,14.39454 l 14.27539,17.83398 a 92.130424,81.89371 0 0 0 -26.75195,57.66211 v 5.11719 c 0,2.83557 2.28162,5.11914 5.11719,5.11914 h 174.02539 c 2.83557,0 5.11719,-2.28357 5.11719,-5.11914 v -5.11719 a 92.130424,81.89371 0 0 0 -32.90821,-62.74024 l 10.19727,-12.75585 a 10.236714,10.236714 0 0 0 -1.59961,-14.39454 10.236714,10.236714 0 0 0 -7.53906,-2.17968 10.236714,10.236714 0 0 0 -6.85743,3.77929 l -12.0957,15.11524 a 92.130424,81.89371 0 0 0 -41.32617,-8.7168 92.130424,81.89371 0 0 0 -48.56445,12.45508 l -15.09375,-18.85352 a 10.236714,10.236714 0 0 0 -6.85938,-3.77929 z m 29.57422,51.12109 a 10.236714,10.236714 0 0 1 10.23633,10.23828 10.236714,10.236714 0 0 1 -10.23633,10.23633 10.236714,10.236714 0 0 1 -10.23633,-10.23633 10.236714,10.236714 0 0 1 10.23633,-10.23828 z m 81.89258,0 a 10.236714,10.236714 0 0 1 10.23828,10.23828 10.236714,10.236714 0 0 1 -10.23828,10.23633 10.236714,10.236714 0 0 1 -10.23633,-10.23633 10.236714,10.236714 0 0 1 10.23633,-10.23828 z" />
  </g>
</svg>
