<svg viewBox="0 0 512 512" xmlns="http://www.w3.org/2000/svg">
 <linearGradient id="c" gradientUnits="userSpaceOnUse" x2="0" y1="473.47" y2="37.794">
  <stop offset="0" stop-color="#2f2f2f"/>
  <stop offset="1" stop-color="#4f4f4f"/>
 </linearGradient>
 <clipPath id="d">
  <rect height="84" rx="6" width="84" x="6" y="6"/>
 </clipPath>
 <path d="m252.06 33.19c-120.89 0-218.87 97.97-218.87 218.88v1c0 120.9 97.99 218.88 218.88 218.88h1c120.89 0 218.88-97.98 218.88-218.87v-1c0-120.9-97.99-218.87-218.87-218.87h-1" fill="url(#c)"/>
 <rect height="66" rx="12" style="opacity:.1;stroke:#ffffff;stroke-linecap:round;stroke-width:.5;clip-path:url(#d);fill:url(#b);filter:url(#a)" transform="matrix(4.9824 0 0 4.9824 16.846 16.846)" width="66" x="15" y="15"/>
 <path d="m161.31 133.25c-.67 0-1.325.035-1.984.082a28.054 28.054 0 0 0 -.35322.0543c-.814.068-1.626.136-2.419.272a28.054 28.054 0 0 0 -.0817.0271c-.881.153-1.758.337-2.609.571a28.054 28.054 0 0 0 -.13592.0543c-.83.232-1.649.483-2.446.788a28.054 28.054 0 0 0 -.24452.1087c-1.621.638-3.163 1.422-4.62 2.337a28.054 28.054 0 0 0 -.57061.38044c-.667.442-1.331.891-1.957 1.386a28.054 28.054 0 0 0 -.0539.0543c-.622.496-1.216 1.03-1.793 1.576a28.054 28.054 0 0 0 -.40765.38043c-.599.589-1.168 1.207-1.712 1.848a28.054 28.054 0 0 0 -.1087.1087c-.553.658-1.057 1.357-1.549 2.065a28.054 28.054 0 0 0 -.16296.2174c-2.045 3-3.512 6.424-4.266 10.11a28.054 28.054 0 0 0 -.0817.46196c-.143.762-.274 1.527-.353 2.31a28.054 28.054 0 0 0 0 .0815c-.09.917-.136 1.858-.136 2.799a28.054 28.054 0 0 0 .0269 1.1685c.036.864.105 1.712.217 2.554a28.054 28.054 0 0 0 .0539.38044c.402 2.74 1.202 5.349 2.337 7.772a28.054 28.054 0 0 0 .1087.19022c.367.767.736 1.529 1.168 2.255a28.054 28.054 0 0 0 .13592.21739c.469.771.983 1.508 1.522 2.228a28.054 28.054 0 0 0 .27174.35326c.458.593.937 1.186 1.44 1.739a28.054 28.054 0 0 0 .0817.0815c.58.633 1.185 1.243 1.821 1.821a28.054 28.054 0 0 0 .46191.40762c1.294 1.125 2.699 2.141 4.185 3.02a28.054 28.054 0 0 0 .0539.0271c.789.462 1.61.865 2.446 1.25a28.054 28.054 0 0 0 .027.0271c.757.348 1.518.671 2.31.951a28.054 28.054 0 0 0 .51635.16304c2.474.823 5.1 1.314 7.826 1.413a28.054 28.054 0 0 0 .62496.0271c.137.002.271 0 .408 0 .667 0 1.329-.009 1.984-.054a28.054 28.054 0 0 0 .27174-.0271c.857-.068 1.694-.183 2.527-.326a28.054 28.054 0 0 0 .19026-.0543c1.792-.321 3.534-.796 5.19-1.44a28.054 28.054 0 0 0 .1087-.0543c.832-.328 1.654-.684 2.446-1.087a28.054 28.054 0 0 0 .21739-.13587c1.596-.831 3.113-1.797 4.511-2.908a28.054 28.054 0 0 0 .027-.0271c1.451-1.157 2.798-2.441 3.995-3.859a28.054 28.054 0 0 0 .19017-.24457c.53-.642 1.022-1.295 1.495-1.984a28.054 28.054 0 0 0 .10869-.16304c.486-.719.94-1.464 1.359-2.228a28.054 28.054 0 0 0 .0539-.0815c1.309-2.409 2.268-5.03 2.826-7.799a28.054 28.054 0 0 0 .0269-.21739c.335-1.735.516-3.521.516-5.353a28.054 28.054 0 0 0 -.027-1.4402c-.24-4.739-1.661-9.184-3.967-13.02a28.054 28.054 0 0 0 -.0539-.1087c-.961-1.581-2.071-3.046-3.315-4.402a28.054 28.054 0 0 0 -.29887-.29891c-.542-.573-1.097-1.132-1.685-1.658a28.054 28.054 0 0 0 -.21739-.19022c-.628-.55-1.281-1.083-1.957-1.576a28.054 28.054 0 0 0 -.1087-.0815c-2.959-2.137-6.358-3.711-10.03-4.565a28.054 28.054 0 0 0 -.21739-.0271c-.84-.189-1.687-.35-2.554-.462a28.054 28.054 0 0 0 -.10869 0c-.883-.11-1.784-.191-2.69-.217a28.054 28.054 0 0 0 -.0548 0c-.254-.007-.505-.027-.761-.027z" fill="#79c943"/>
 <path d="m224.44 133.25c-.667 0-1.329.036-1.984.082a28.054 28.054 0 0 0 -.32609.0271c-.783.064-1.547.145-2.31.272a28.054 28.054 0 0 0 -.3533.0815c-.826.148-1.647.325-2.446.543a28.054 28.054 0 0 0 -.19026.0543c-.821.231-1.63.486-2.418.788a28.054 28.054 0 0 0 -.24461.10869c-1.62.638-3.163 1.422-4.62 2.337a28.054 28.054 0 0 0 -.57061.38043c-.667.442-1.332.891-1.957 1.386a28.054 28.054 0 0 0 -.0548.0543c-.622.496-1.216 1.03-1.793 1.576a28.054 28.054 0 0 0 -.40766.38044c-.599.589-1.168 1.207-1.712 1.848a28.054 28.054 0 0 0 -.1087.1087c-.553.658-1.057 1.357-1.549 2.065a28.054 28.054 0 0 0 -.16305.21739c-2.045 3-3.512 6.424-4.266 10.11a28.054 28.054 0 0 0 -.0539.29891c-.158.816-.295 1.633-.381 2.473a28.054 28.054 0 0 0 0 .0815c-.09.917-.136 1.858-.136 2.799a28.054 28.054 0 0 0 .0269 1.4674c.242 4.681 1.625 9.06 3.886 12.853a28.054 28.054 0 0 0 .13583.21739c.469.771.983 1.508 1.522 2.228a28.054 28.054 0 0 0 .27182.35326c.458.593.937 1.186 1.44 1.739a28.054 28.054 0 0 0 .0817.0815c.58.633 1.185 1.243 1.821 1.821a28.054 28.054 0 0 0 .48914.43479c1.286 1.114 2.683 2.121 4.158 2.989a28.054 28.054 0 0 0 .0548.0271c1.513.887 3.106 1.634 4.783 2.228a28.054 28.054 0 0 0 .51627.16304c2.474.823 5.1 1.314 7.826 1.413a28.054 28.054 0 0 0 .62496.0271c.137.002.271 0 .408 0 .67 0 1.325-.008 1.984-.054a28.054 28.054 0 0 0 .29896-.0271c.833-.067 1.662-.187 2.473-.326a28.054 28.054 0 0 0 .0817-.0271c1.84-.32 3.628-.807 5.326-1.467a28.054 28.054 0 0 0 .10869-.0543c.832-.328 1.654-.684 2.446-1.087a28.054 28.054 0 0 0 .2174-.13587c1.596-.831 3.113-1.797 4.511-2.908a28.054 28.054 0 0 0 .027-.0271c1.451-1.157 2.798-2.441 3.995-3.859a28.054 28.054 0 0 0 .19018-.24457c.53-.642 1.023-1.295 1.495-1.984a28.054 28.054 0 0 0 .10869-.16305c.486-.719.94-1.464 1.359-2.228a28.054 28.054 0 0 0 .0539-.0815c1.309-2.409 2.268-5.03 2.826-7.799a28.054 28.054 0 0 0 .0539-.43478c.309-1.667.489-3.379.489-5.136a28.054 28.054 0 0 0 -.027-1.1685c-.038-.938-.116-1.887-.245-2.799a28.054 28.054 0 0 0 -.0539-.32609c-.561-3.674-1.827-7.104-3.669-10.163a28.054 28.054 0 0 0 -.0539-.10869c-.961-1.581-2.071-3.046-3.315-4.402a28.054 28.054 0 0 0 -.29888-.29892c-.542-.573-1.097-1.132-1.685-1.658a28.054 28.054 0 0 0 -.19026-.16304c-3.415-2.999-7.568-5.188-12.147-6.25a28.054 28.054 0 0 0 -.10869-.0271c-.861-.196-1.747-.347-2.636-.462a28.054 28.054 0 0 0 -.16295 0c-.871-.107-1.742-.192-2.636-.217a28.054 28.054 0 0 0 -.0539 0c-.254-.007-.505-.027-.761-.027" fill="#d23638"/>
 <path d="m350.69 133.25c-.661 0-1.334.037-1.984.082a28.054 28.054 0 0 0 -.32609.0271c-.836.068-1.659.159-2.473.299a28.054 28.054 0 0 0 -.13591.0271c-.822.145-1.623.329-2.418.543a28.054 28.054 0 0 0 -.46191.13587c-.755.218-1.501.455-2.228.734a28.054 28.054 0 0 0 -.24452.10869c-1.694.667-3.323 1.505-4.837 2.473a28.054 28.054 0 0 0 -.1087.0543c-.765.494-1.49 1.013-2.201 1.576a28.054 28.054 0 0 0 -.0539.0543c-.599.477-1.182.998-1.739 1.522a28.054 28.054 0 0 0 -.67939.67936c-1.188 1.196-2.276 2.493-3.234 3.886a28.054 28.054 0 0 0 -.0548.0543c-1.518 2.22-2.726 4.667-3.56 7.283a28.054 28.054 0 0 0 -.16304.57066c-.453 1.531-.792 3.1-.978 4.728a28.054 28.054 0 0 0 -.0817 1.2228c-.047.664-.109 1.335-.109 2.01a28.054 28.054 0 0 0 .0548 1.4674c.089 1.732.344 3.42.734 5.05a28.054 28.054 0 0 0 .0817.35326c.439 1.743 1.045 3.404 1.794 5a28.054 28.054 0 0 0 .0817.19022c.363.76.768 1.508 1.196 2.228a28.054 28.054 0 0 0 .13592.24456c.469.771.956 1.508 1.495 2.228a28.054 28.054 0 0 0 .027.0271c.532.709 1.089 1.41 1.685 2.065a28.054 28.054 0 0 0 .0817.0815c.628.686 1.291 1.336 1.984 1.957a28.054 28.054 0 0 0 .0817.0815c1.345 1.194 2.817 2.259 4.375 3.179a28.054 28.054 0 0 0 .38053.19022c1.432.818 2.935 1.534 4.511 2.092a28.054 28.054 0 0 0 .51636.16304c2.472.822 5.076 1.313 7.799 1.413a28.054 28.054 0 0 0 .62497.0271c.143.002.291 0 .435 0 .67 0 1.325-.008 1.984-.054a28.054 28.054 0 0 0 .29887-.0271c.833-.067 1.662-.187 2.473-.326a28.054 28.054 0 0 0 .0817-.0271c1.843-.321 3.625-.805 5.326-1.467a28.054 28.054 0 0 0 .21739-.1087c.792-.317 1.582-.648 2.337-1.033a28.054 28.054 0 0 0 .27174-.16304c1.574-.825 3.049-1.784 4.429-2.88a28.054 28.054 0 0 0 .027-.0271c1.45-1.156 2.799-2.442 3.995-3.859a28.054 28.054 0 0 0 .19017-.24457c.53-.642 1.05-1.295 1.522-1.984a28.054 28.054 0 0 0 .10869-.16305c.488-.723.938-1.46 1.359-2.228a28.054 28.054 0 0 0 .0269-.0815c2.159-3.975 3.397-8.528 3.397-13.37a28.054 28.054 0 0 0 -.0269-1.1685c-.038-.938-.116-1.887-.245-2.799a28.054 28.054 0 0 0 -.0539-.32609c-.126-.826-.293-1.618-.489-2.418a28.054 28.054 0 0 0 -.0817-.29892c-.209-.813-.455-1.609-.734-2.391a28.054 28.054 0 0 0 -.0817-.24457c-.294-.802-.615-1.598-.978-2.364a28.054 28.054 0 0 0 -.0817-.16304c-1.202-2.494-2.741-4.776-4.592-6.794a28.054 28.054 0 0 0 -.27183-.24457c-3.726-3.956-8.572-6.855-14.05-8.125a28.054 28.054 0 0 0 -.1087-.0271c-.861-.196-1.747-.347-2.636-.462a28.054 28.054 0 0 0 -.16314 0c-.871-.107-1.742-.192-2.636-.217a28.054 28.054 0 0 0 -.0539 0c-.254-.007-.505-.027-.761-.027z" fill="#1086bc"/>
 <path d="m224.44 196.38c-.667 0-1.329.036-1.984.082a28.054 28.054 0 0 0 -.32609.0271c-.783.064-1.547.145-2.31.272a28.054 28.054 0 0 0 -.3533.0815c-.826.148-1.647.325-2.446.543a28.054 28.054 0 0 0 -.19026.0543c-.821.231-1.63.486-2.418.788a28.054 28.054 0 0 0 -.24461.10869c-.775.305-1.543.635-2.283 1.01a28.054 28.054 0 0 0 -.38044.21739c-.711.37-1.392.768-2.065 1.196a28.054 28.054 0 0 0 -.21739.13587c-.751.487-1.502.995-2.201 1.549a28.054 28.054 0 0 0 -.0548.0543c-.69.55-1.349 1.128-1.984 1.739a28.054 28.054 0 0 0 -.19026.19022c-.541.531-1.052 1.084-1.549 1.658a28.054 28.054 0 0 0 -.40766.46196c-2.31 2.784-4.09 6.03-5.19 9.565a28.054 28.054 0 0 0 0 .0271c-.27.871-.494 1.731-.679 2.636a28.054 28.054 0 0 0 -.0539.29892c-.158.818-.295 1.658-.381 2.5a28.054 28.054 0 0 0 0 .0543c-.092.926-.136 1.876-.136 2.826a28.054 28.054 0 0 0 .0269 1.4131c.234 4.701 1.617 9.09 3.886 12.908a28.054 28.054 0 0 0 .13583.21739c.937 1.542 2.026 2.992 3.234 4.321a28.054 28.054 0 0 0 .0817.0815c.58.633 1.185 1.243 1.821 1.821a28.054 28.054 0 0 0 .16305.13587c1.299 1.163 2.712 2.191 4.212 3.098a28.054 28.054 0 0 0 .67931.40761c2.22 1.258 4.629 2.209 7.174 2.826a28.054 28.054 0 0 0 .46192.1087c1.987.446 4.047.707 6.169.707 1.623 0 3.208-.143 4.756-.408a28.054 28.054 0 0 0 .0817-.0271c1.84-.32 3.628-.807 5.326-1.467a28.054 28.054 0 0 0 .1087-.0543c.832-.328 1.654-.684 2.446-1.087a28.054 28.054 0 0 0 .21739-.13587c.765-.399 1.506-.812 2.228-1.277a28.054 28.054 0 0 0 .0539-.0543c.761-.493 1.52-1.013 2.228-1.576a28.054 28.054 0 0 0 .027-.0271c1.451-1.157 2.798-2.441 3.995-3.859a28.054 28.054 0 0 0 .19017-.24457c1.123-1.36 2.109-2.817 2.962-4.375a28.054 28.054 0 0 0 .0539-.0815c.428-.788.816-1.615 1.169-2.446a28.054 28.054 0 0 0 0-.0271c.72-1.703 1.284-3.47 1.658-5.326a28.054 28.054 0 0 0 .0539-.43479c.309-1.667.489-3.379.489-5.136a28.054 28.054 0 0 0 -.027-1.1685c-.038-.945-.115-1.88-.245-2.799a28.054 28.054 0 0 0 -.0539-.32609c-.562-3.681-1.821-7.126-3.669-10.19a28.054 28.054 0 0 0 -.0539-.0815c-2.36-3.884-5.645-7.137-9.538-9.484a28.054 28.054 0 0 0 -.65218-.38044c-2.3-1.303-4.8-2.294-7.446-2.908a28.054 28.054 0 0 0 -.10869-.0271c-.861-.196-1.747-.347-2.636-.462a28.054 28.054 0 0 0 -.16296 0c-.871-.107-1.742-.192-2.636-.217a28.054 28.054 0 0 0 -.0539 0c-.254-.007-.505-.027-.761-.027" fill="#79c943"/>
 <g fill="#1086bc">
  <path d="m287.56 196.38c-.667 0-1.329.036-1.984.082a28.054 28.054 0 0 0 -.32609.0271c-.783.064-1.546.145-2.31.272a28.054 28.054 0 0 0 -.35322.0815c-.826.148-1.647.325-2.446.543a28.054 28.054 0 0 0 -.16304.0543c-.83.232-1.649.483-2.446.788a28.054 28.054 0 0 0 -.27174.10869c-.721.285-1.429.61-2.12.951a28.054 28.054 0 0 0 -.76087.38044c-1.497.798-2.919 1.726-4.239 2.772a28.054 28.054 0 0 0 -.0539.0543c-.69.55-1.349 1.128-1.984 1.739a28.054 28.054 0 0 0 -.19026.19022c-.541.531-1.052 1.084-1.549 1.658a28.054 28.054 0 0 0 -.40766.46196c-2.31 2.784-4.09 6.03-5.19 9.565a28.054 28.054 0 0 0 0 .0271c-.542 1.749-.923 3.558-1.114 5.435a28.054 28.054 0 0 0 0 .0543c-.092.926-.163 1.876-.163 2.826a28.054 28.054 0 0 0 .0539 1.4131c.087 1.751.34 3.457.734 5.109a28.054 28.054 0 0 0 .0817.32609c.415 1.653.964 3.233 1.658 4.755a28.054 28.054 0 0 0 .2174.48913c.36.752.772 1.488 1.196 2.201a28.054 28.054 0 0 0 .13583.24457c.937 1.542 2.026 2.992 3.234 4.321a28.054 28.054 0 0 0 .0817.0815c.58.633 1.185 1.243 1.821 1.821a28.054 28.054 0 0 0 .16313.13587c1.358 1.216 2.825 2.271 4.402 3.207a28.054 28.054 0 0 0 .38052.24457c2.247 1.285 4.701 2.254 7.283 2.88a28.054 28.054 0 0 0 .46191.1087c1.987.446 4.047.707 6.169.707 1.623 0 3.208-.143 4.755-.408a28.054 28.054 0 0 0 .0817-.0271c1.84-.32 3.628-.807 5.326-1.467a28.054 28.054 0 0 0 .1087-.0543c.837-.329 1.651-.682 2.446-1.087a28.054 28.054 0 0 0 .29888-.16305c.736-.387 1.451-.802 2.147-1.25a28.054 28.054 0 0 0 .0817-.0543c.761-.494 1.494-1.013 2.201-1.576a28.054 28.054 0 0 0 .38052-.32609c1.306-1.078 2.522-2.266 3.614-3.56a28.054 28.054 0 0 0 .19026-.24457c1.123-1.36 2.136-2.817 2.989-4.375a28.054 28.054 0 0 0 .0548-.0815c.428-.788.816-1.615 1.168-2.446a28.054 28.054 0 0 0 0-.0271c.721-1.704 1.284-3.47 1.658-5.326a28.054 28.054 0 0 0 .0539-.43479c.309-1.667.489-3.379.489-5.136a28.054 28.054 0 0 0 -.0269-1.1685c-.038-.945-.115-1.88-.245-2.799a28.054 28.054 0 0 0 -.0539-.32609c-.416-2.725-1.223-5.31-2.364-7.717a28.054 28.054 0 0 0 -.0817-.16305c-2.378-4.935-6.149-9.06-10.815-11.875a28.054 28.054 0 0 0 -.62505-.35326c-2.309-1.312-4.814-2.319-7.473-2.935a28.054 28.054 0 0 0 -.1087-.0271c-.861-.196-1.747-.347-2.636-.462a28.054 28.054 0 0 0 -.16305 0c-.871-.107-1.742-.192-2.636-.217a28.054 28.054 0 0 0 -.0539 0c-.254-.007-.505-.027-.761-.027z"/>
  <path d="m224.44 259.51c-1.575 0-3.115.131-4.62.38a28.054 28.054 0 0 0 -.3533.0815c-1.742.312-3.44.768-5.05 1.386a28.054 28.054 0 0 0 -.24461.10869c-.775.305-1.543.635-2.283 1.01a28.054 28.054 0 0 0 -.38044.21739c-1.585.826-3.094 1.779-4.484 2.88a28.054 28.054 0 0 0 -.0548.0543c-1.353 1.078-2.59 2.281-3.723 3.587a28.054 28.054 0 0 0 -.40766.46196c-.465.561-.883 1.143-1.304 1.739a28.054 28.054 0 0 0 -.29888.38044c-.977 1.436-1.826 2.982-2.527 4.592a28.054 28.054 0 0 0 -.1087.24456v.027a28.054 28.054 0 0 0 -.0817.19022c-.671 1.62-1.189 3.298-1.549 5.05a28.054 28.054 0 0 0 -.0539.29892c-.158.818-.295 1.658-.381 2.5a28.054 28.054 0 0 0 0 .0543c-.092.926-.136 1.849-.136 2.799a28.054 28.054 0 0 0 .0269 1.4402c.233 4.681 1.606 9.05 3.859 12.853a28.054 28.054 0 0 0 .16295.27174c.937 1.542 2.026 2.992 3.234 4.321a28.054 28.054 0 0 0 .0817.0815c.58.633 1.185 1.243 1.821 1.821a28.054 28.054 0 0 0 .16305.13587c.688.616 1.4 1.193 2.147 1.739a28.054 28.054 0 0 0 .19017.13587c.604.434 1.236.837 1.875 1.223a28.054 28.054 0 0 0 .67931.40761c2.22 1.258 4.629 2.209 7.174 2.826a28.054 28.054 0 0 0 .46191.1087c.813.183 1.635.324 2.473.435a28.054 28.054 0 0 0 .0817.0271c1.183.152 2.39.245 3.614.245.67 0 1.325-.035 1.984-.082a28.054 28.054 0 0 0 .3533-.0543c.814-.068 1.626-.136 2.419-.272a28.054 28.054 0 0 0 .0817-.0271c.901-.157 1.794-.357 2.663-.598a28.054 28.054 0 0 0 .10869-.0271c.868-.244 1.722-.519 2.554-.842a28.054 28.054 0 0 0 .1087-.0543c1.72-.677 3.357-1.512 4.891-2.5a28.054 28.054 0 0 0 .51627-.35327c.602-.407 1.199-.826 1.766-1.277a28.054 28.054 0 0 0 .0269-.0271c.719-.573 1.406-1.181 2.065-1.821a28.054 28.054 0 0 0 .29887-.29891c1.881-1.881 3.495-4.03 4.783-6.386a28.054 28.054 0 0 0 .0539-.0815c1.296-2.385 2.238-4.978 2.799-7.717a28.054 28.054 0 0 0 .10869-.57066c.301-1.646.462-3.349.462-5.082a28.054 28.054 0 0 0 -.027-1.1685c-.038-.938-.116-1.86-.245-2.772a28.054 28.054 0 0 0 -.0539-.32609c-.562-3.681-1.821-7.126-3.669-10.19a28.054 28.054 0 0 0 -.0539-.0815c-2.42-3.982-5.814-7.316-9.837-9.674a28.054 28.054 0 0 0 -.1087-.0543c-1.572-.912-3.227-1.686-4.973-2.283a28.054 28.054 0 0 0 -.2174-.0543c-.818-.272-1.65-.51-2.5-.707a28.054 28.054 0 0 0 -.10869-.0271c-1.686-.384-3.431-.614-5.217-.679a28.054 28.054 0 0 0 -.54349-.0271c-.164-.003-.325 0-.489 0"/>
 </g>
 <path d="m350.69 259.51c-1.626 0-3.232.142-4.783.408a28.054 28.054 0 0 0 -.13591.0271c-1.768.312-3.472.787-5.109 1.413a28.054 28.054 0 0 0 -.27165.10869c-.721.285-1.429.61-2.12.951a28.054 28.054 0 0 0 -.76088.38043c-1.497.798-2.919 1.726-4.239 2.772a28.054 28.054 0 0 0 -.0539.0543c-.696.555-1.371 1.122-2.01 1.739a28.054 28.054 0 0 0 -.16296.16304c-.578.567-1.131 1.179-1.658 1.793a28.054 28.054 0 0 0 -.29887.35327c-.518.624-1 1.261-1.467 1.929a28.054 28.054 0 0 0 -.1087.16305c-1.549 2.269-2.78 4.765-3.614 7.446a28.054 28.054 0 0 0 -.1087.38043c-.442 1.497-.763 3.057-.951 4.647a28.054 28.054 0 0 0 -.1087 1.3315c-.046.659-.109 1.313-.109 1.984a28.054 28.054 0 0 0 .0548 1.4402c.087 1.75.34 3.43.734 5.082a28.054 28.054 0 0 0 .0817.35327c.437 1.733 1.024 3.412 1.766 5a28.054 28.054 0 0 0 .1087.2174c.347.725.736 1.431 1.141 2.12a28.054 28.054 0 0 0 .19027.35326c.937 1.542 1.999 2.992 3.206 4.321a28.054 28.054 0 0 0 .0817.0815c1.815 1.98 3.91 3.687 6.223 5.082a28.054 28.054 0 0 0 .78809.43479c2.19 1.227 4.563 2.165 7.07 2.772a28.054 28.054 0 0 0 .46201.10869c1.987.446 4.047.707 6.168.707.67 0 1.325-.035 1.984-.082a28.054 28.054 0 0 0 .35322-.0543c.814-.068 1.626-.136 2.418-.272a28.054 28.054 0 0 0 .0817-.0271c.901-.157 1.794-.357 2.663-.598a28.054 28.054 0 0 0 .1087-.0271c.872-.245 1.719-.517 2.554-.842a28.054 28.054 0 0 0 .19026-.0815c1.678-.668 3.282-1.508 4.783-2.473a28.054 28.054 0 0 0 .0539-.0271c.775-.501 1.508-1.031 2.228-1.603a28.054 28.054 0 0 0 .027-.0271c.719-.573 1.433-1.181 2.092-1.821a28.054 28.054 0 0 0 .29896-.29892c.567-.567 1.087-1.153 1.603-1.766a28.054 28.054 0 0 0 .19017-.21739c1.126-1.364 2.134-2.84 2.989-4.402a28.054 28.054 0 0 0 .0269-.0815c2.159-3.975 3.397-8.528 3.397-13.37a28.054 28.054 0 0 0 -.0269-1.1685c-.038-.938-.116-1.86-.245-2.772a28.054 28.054 0 0 0 -.0539-.32609c-.126-.826-.293-1.645-.489-2.446a28.054 28.054 0 0 0 -.0817-.29891c-.446-1.733-1.041-3.386-1.793-4.973a28.054 28.054 0 0 0 -.0817-.16304c-2.428-5.04-6.312-9.25-11.11-12.07a28.054 28.054 0 0 0 -.1087-.0543c-1.579-.916-3.245-1.685-5-2.283a28.054 28.054 0 0 0 -.0817-.0271c-.852-.287-1.723-.528-2.609-.734a28.054 28.054 0 0 0 -.1087-.0271c-1.686-.384-3.431-.614-5.217-.679a28.054 28.054 0 0 0 -.54348-.0271c-.164-.003-.325 0-.489 0" fill="#d23638"/>
 <g fill="#1086bc">
  <path d="m161.31 322.63c-.67 0-1.325.008-1.984.054a28.054 28.054 0 0 0 -.29896.0271c-.833.067-1.662.187-2.473.326a28.054 28.054 0 0 0 -.1087.0271c-.892.156-1.775.332-2.636.571a28.054 28.054 0 0 0 -.0817.0271c-.821.23-1.629.514-2.419.815a28.054 28.054 0 0 0 -.27165.1087c-.781.308-1.537.631-2.283 1.01a28.054 28.054 0 0 0 -.24461.13587c-1.632.839-3.193 1.832-4.62 2.962a28.054 28.054 0 0 0 -.0539.0543c-1.353 1.078-2.591 2.281-3.723 3.587a28.054 28.054 0 0 0 -.40757.46196c-.465.561-.883 1.143-1.304 1.739a28.054 28.054 0 0 0 -.29887.38043c-2.045 3-3.512 6.423-4.266 10.11a28.054 28.054 0 0 0 -.0817.51631c-.139.748-.275 1.515-.353 2.283a28.054 28.054 0 0 0 0 .0543c-.092.926-.136 1.849-.136 2.799a28.054 28.054 0 0 0 .0269 1.1685c.035.852.108 1.697.217 2.527a28.054 28.054 0 0 0 .0817.48913c.84 5.604 3.317 10.669 6.957 14.674a28.054 28.054 0 0 0 .38053.40761c.489.517.995 1.016 1.522 1.495a28.054 28.054 0 0 0 .35322.32609c1.992 1.75 4.253 3.214 6.685 4.348a28.054 28.054 0 0 0 .38044.19022c1.578.706 3.23 1.278 4.946 1.685a28.054 28.054 0 0 0 .24461.0543c.826.188 1.676.321 2.527.435a28.054 28.054 0 0 0 .1087.0271c1.187.153 2.385.245 3.614.245.667 0 1.329-.036 1.984-.082a28.054 28.054 0 0 0 .32609-.0271c.839-.068 1.657-.159 2.473-.299a28.054 28.054 0 0 0 .19026-.0543c.854-.153 1.702-.342 2.527-.571a28.054 28.054 0 0 0 .0817-.0271c2.716-.761 5.266-1.906 7.582-3.397a28.054 28.054 0 0 0 .51626-.35327c.602-.407 1.199-.826 1.766-1.277a28.054 28.054 0 0 0 .027-.0271c.718-.572 1.407-1.182 2.065-1.821a28.054 28.054 0 0 0 .29896-.29891c.567-.567 1.114-1.153 1.63-1.766a28.054 28.054 0 0 0 .0269-.0271c.59-.702 1.138-1.443 1.658-2.201a28.054 28.054 0 0 0 .1087-.16305c.486-.72.94-1.463 1.359-2.228a28.054 28.054 0 0 0 .0539-.0815c1.309-2.409 2.268-5.03 2.826-7.799a28.054 28.054 0 0 0 .0269-.21739c.335-1.735.516-3.521.516-5.353a28.054 28.054 0 0 0 -.027-1.4402c-.241-4.747-1.654-9.18-3.967-13.02a28.054 28.054 0 0 0 -.0539-.0815c-.472-.777-.978-1.53-1.522-2.255a28.054 28.054 0 0 0 -.27174-.32609c-1.055-1.365-2.221-2.656-3.506-3.804a28.054 28.054 0 0 0 -.35322-.27174c-2.543-2.201-5.476-3.957-8.696-5.136a28.054 28.054 0 0 0 -.27174-.1087c-.099-.035-.199-.075-.299-.109a28.054 28.054 0 0 0 -.21739-.0543c-1.565-.521-3.191-.902-4.864-1.141a28.054 28.054 0 0 0 -.70653-.1087c-.723-.084-1.463-.135-2.201-.163a28.054 28.054 0 0 0 -.67931-.0271c-.137-.002-.271 0-.408 0"/>
  <path d="m287.56 322.63c-.667 0-1.329.009-1.984.054a28.054 28.054 0 0 0 -.27175.0271c-.792.063-1.565.172-2.337.299a28.054 28.054 0 0 0 -.40757.0815c-.845.152-1.683.317-2.5.543a28.054 28.054 0 0 0 -.0817.0271c-.821.23-1.629.514-2.418.815a28.054 28.054 0 0 0 -.29896.1087c-.749.296-1.485.622-2.201.978a28.054 28.054 0 0 0 -.40766.19021c-1.599.83-3.111 1.825-4.511 2.935a28.054 28.054 0 0 0 -.0539.0543c-1.353 1.078-2.591 2.281-3.723 3.587a28.054 28.054 0 0 0 -.40765.46196c-.518.624-1 1.261-1.467 1.929a28.054 28.054 0 0 0 -.1087.16304c-2.565 3.756-4.245 8.171-4.728 12.935a28.054 28.054 0 0 0 0 .0543c-.092.926-.163 1.849-.163 2.799a28.054 28.054 0 0 0 .0539 1.4674c.089 1.732.344 3.42.734 5.05a28.054 28.054 0 0 0 .0817.35326c1.143 4.535 3.392 8.63 6.44 11.984a28.054 28.054 0 0 0 .38035.40761c.489.517.995 1.016 1.522 1.495a28.054 28.054 0 0 0 .38052.35326c.619.542 1.264 1.062 1.929 1.549a28.054 28.054 0 0 0 .13592.10869c1.459 1.054 3.02 1.956 4.674 2.717a28.054 28.054 0 0 0 .16295.0815c1.572.712 3.235 1.27 4.946 1.685a28.054 28.054 0 0 0 .46192.1087c.813.183 1.635.324 2.473.435a28.054 28.054 0 0 0 .0817.0271c1.183.152 2.39.245 3.614.245.67 0 1.325-.035 1.984-.082a28.054 28.054 0 0 0 .35322-.0543c.814-.068 1.626-.136 2.419-.272a28.054 28.054 0 0 0 .0817-.0271c.901-.157 1.794-.357 2.663-.598a28.054 28.054 0 0 0 .0817-.0271c2.716-.761 5.266-1.906 7.582-3.397a28.054 28.054 0 0 0 .51636-.35327c.608-.411 1.193-.821 1.766-1.277a28.054 28.054 0 0 0 .38053-.32609c.584-.482 1.169-.995 1.712-1.522a28.054 28.054 0 0 0 .29887-.29892c.566-.566 1.087-1.154 1.603-1.766a28.054 28.054 0 0 0 .19026-.21739c.531-.643 1.049-1.322 1.522-2.01a28.054 28.054 0 0 0 .1087-.16305c.486-.72.94-1.463 1.359-2.228a28.054 28.054 0 0 0 .0548-.0815c1.309-2.409 2.268-5.03 2.826-7.799a28.054 28.054 0 0 0 .0539-.43479c.309-1.667.489-3.379.489-5.136a28.054 28.054 0 0 0 -.027-1.1685c-.038-.938-.116-1.86-.245-2.772a28.054 28.054 0 0 0 -.0539-.32609c-.416-2.723-1.224-5.311-2.364-7.717a28.054 28.054 0 0 0 -.0817-.16305c-.791-1.642-1.717-3.202-2.799-4.647a28.054 28.054 0 0 0 -.84235-1.0326c-.858-1.039-1.775-2.029-2.772-2.935a28.054 28.054 0 0 0 -1.0325-.86957c-2.425-2-5.172-3.6-8.179-4.701a28.054 28.054 0 0 0 -.29888-.1087c-.091-.032-.18-.077-.272-.109a28.054 28.054 0 0 0 -.2174-.0543c-1.563-.52-3.192-.902-4.864-1.141a28.054 28.054 0 0 0 -.76088-.10869c-.711-.082-1.42-.135-2.147-.163a28.054 28.054 0 0 0 -.6794-.0271c-.137-.002-.271 0-.408 0z"/>
 </g>
 <path d="m350.69 322.63c-.661 0-1.334.009-1.984.054a28.054 28.054 0 0 0 -.24452.0271c-.826.064-1.641.164-2.446.299a28.054 28.054 0 0 0 -.27174.0543c-.824.146-1.621.327-2.418.543a28.054 28.054 0 0 0 -.38052.10869c-.764.219-1.519.48-2.255.761a28.054 28.054 0 0 0 -.29887.10869c-.749.296-1.486.622-2.201.978a28.054 28.054 0 0 0 -.40757.19022c-1.599.83-3.111 1.825-4.511 2.935a28.054 28.054 0 0 0 -.0539.0543c-.701.559-1.367 1.144-2.01 1.766a28.054 28.054 0 0 0 -.16296.13587c-.578.567-1.131 1.179-1.658 1.793a28.054 28.054 0 0 0 -.29887.35326c-.518.624-1 1.261-1.467 1.929a28.054 28.054 0 0 0 -.1087.16305c-1.549 2.269-2.78 4.765-3.614 7.446a28.054 28.054 0 0 0 -.1087.38044c-.442 1.497-.763 3.057-.951 4.647a28.054 28.054 0 0 0 -.1087 1.3315c-.046.659-.109 1.313-.109 1.984a28.054 28.054 0 0 0 .0548 1.4674c.089 1.732.344 3.42.734 5.05a28.054 28.054 0 0 0 .0817.35327c1.143 4.535 3.364 8.63 6.413 11.984a28.054 28.054 0 0 0 .51635.54348c.45.47.904.921 1.386 1.359a28.054 28.054 0 0 0 .19018.16304c1.385 1.236 2.9 2.343 4.511 3.288a28.054 28.054 0 0 0 .027.0271c.781.457 1.592.869 2.419 1.25a28.054 28.054 0 0 0 .16304.0815c1.572.712 3.235 1.27 4.946 1.685a28.054 28.054 0 0 0 .46201.1087c1.987.446 4.047.707 6.168.707.67 0 1.325-.035 1.984-.082a28.054 28.054 0 0 0 .35322-.0543c.814-.068 1.626-.136 2.418-.272a28.054 28.054 0 0 0 .0817-.0271c.901-.157 1.794-.357 2.663-.598a28.054 28.054 0 0 0 .0817-.0271c2.708-.759 5.244-1.912 7.555-3.397a28.054 28.054 0 0 0 .0539-.0271c.775-.501 1.508-1.031 2.228-1.603a28.054 28.054 0 0 0 .0269-.0271c.718-.572 1.434-1.182 2.092-1.821a28.054 28.054 0 0 0 .29896-.29891c.566-.566 1.087-1.154 1.603-1.766a28.054 28.054 0 0 0 .19018-.2174c.531-.643 1.049-1.322 1.522-2.01a28.054 28.054 0 0 0 .10869-.16305c.489-.723.938-1.459 1.359-2.228a28.054 28.054 0 0 0 .027-.0815c2.159-3.975 3.397-8.528 3.397-13.37a28.054 28.054 0 0 0 -.027-1.1685c-.038-.938-.116-1.86-.245-2.772a28.054 28.054 0 0 0 -.0539-.32609c-.126-.826-.293-1.645-.489-2.446a28.054 28.054 0 0 0 -.0817-.29892c-.209-.813-.455-1.609-.734-2.391a28.054 28.054 0 0 0 -.0817-.24457c-.293-.801-.616-1.572-.978-2.337a28.054 28.054 0 0 0 -.0817-.16305c-.791-1.642-1.717-3.202-2.799-4.647a28.054 28.054 0 0 0 -.84235-1.0326c-.911-1.103-1.895-2.146-2.962-3.098a28.054 28.054 0 0 0 -.0817-.0543c-2.755-2.443-5.977-4.358-9.538-5.571a28.054 28.054 0 0 0 -.0817-.0271c-1.595-.538-3.264-.924-4.973-1.168a28.054 28.054 0 0 0 -.76088-.1087c-.711-.082-1.42-.135-2.147-.163a28.054 28.054 0 0 0 -.6794-.0271c-.136-.002-.271 0-.408 0" fill="#79c943"/>
<circle cx="256" stroke="#fefefe" cy="256" r="181.13" stroke-width="18.771" fill="none" /></svg>
