<svg height="512" viewBox="0 0 512 512" width="512" xmlns="http://www.w3.org/2000/svg">
 <g fill="#ffffff" transform="matrix(6.7165754 -1.7996961 1.7996961 6.7165754 26.699476 106.83052)">
  <path d="m28 23.815h-5.985c-.822 0-1.489.667-1.489 1.489v5.984c0 .823.667 1.489 1.489 1.489h5.985c.822 0 1.489-.666 1.489-1.489v-5.984c0-.823-.666-1.489-1.489-1.489"/>
  <path d="m17.898 23.483l-12.311-6.113c-.245-.123-.48-.157-.673-.126-.97-.11-2.655.105-2.707 2.923-.074 3.959-2.141 3.717-2.141 7.757 0 4.04 2.067 3.796 2.141 7.756.056 3.02 1.995 3.052 2.909 2.896.132-.004.275-.029.432-.092l12.3-4.851c.762-.305 1.559-1.222 1.559-2.041v-5.955c0-.819-.774-1.788-1.509-2.154"/>
  <path d="m47.811 20.17c-.052-2.817-1.737-3.03-2.707-2.923-.192-.03-.428.004-.672.126l-12.313 6.114c-.734.366-1.509 1.334-1.509 2.154v5.955c0 .819.796 1.736 1.559 2.041l12.3 4.851c.157.063.3.088.434.092.913.156 2.853.129 2.908-2.896.073-3.96 2.141-3.717 2.141-7.756-.001-4.04-2.068-3.799-2.141-7.758"/>
 </g>
<circle cx="256" stroke="#fefefe" cy="256" r="181.13" stroke-width="18.771" fill="none" /></svg>
