<svg xmlns:rdf="http://www.w3.org/1999/02/22-rdf-syntax-ns#" xmlns="http://www.w3.org/2000/svg" height="512" width="512" version="1.1" xmlns:cc="http://creativecommons.org/ns#" xmlns:dc="http://purl.org/dc/elements/1.1/" viewBox="0 0 512 512">
 <path fill-rule="evenodd" fill-opacity=".847" d="m471.95 253.05c0 120.9-98.01 218.91-218.91 218.91s-218.91-98.01-218.91-218.91 98.01-218.91 218.91-218.91 218.91 98.01 218.91 218.91" fill="#00bced"/>
 <path d="m339.89 327.87l-2.617-20.516-20.516-2.617 20.516-2.617 2.617-20.516 2.617 20.516 20.516 2.617-20.516 2.617z" fill="#f9f9f9"/>
 <path fill="#f2f2f2" d="m281.58 419.1-5.234-41.03-41.03-5.234 41.03-5.234 5.234-41.03 5.234 41.03 41.03 5.234-41.03 5.234z"/>
 <path fill="#ececec" d="m402.05 301.56-2.617-20.516-20.516-2.617 20.516-2.617 2.617-20.516 2.617 20.516 20.516 2.617-20.516 2.617z"/>
 <path fill-rule="evenodd" fill="#ffffff" d="m307.92 120.07c-1.613 0.48551-3.069 1.4422-4.0153 2.8166l-29.186 42.671c9.4253 4.7916 18.885 9.4922 28.326 14.252l29.218-42.671c0.38746-0.56581 0.69029-1.1522 0.86057-1.7572-0.50268-2.0491-1.9678-3.9063-4.2375-5.0478l-19.022-9.5663c-0.62504-0.31416-1.2827-0.5212-1.9434-0.69702m-38.427 53.128-93.04 135.96c9.4437 4.7479 18.883 9.5021 28.326 14.252l93.04-135.93c-9.4355-4.7702-18.877-9.5288-28.326-14.279m-98.26 143.61-29.123 42.56c-0.39255 0.57384-0.65766 1.1718-0.82896 1.7849 0.00077 0.009-0.00076 0.0197 0 0.0276 0.51288 2.0321 1.9516 3.8858 4.2059 5.0201l19.022 9.5663c0.6087 0.30609 1.2347 0.52475 1.8802 0.697 1.6334-0.47836 3.0925-1.4512 4.0468-2.8452l29.123-42.56c-9.4172-4.7693-18.886-9.494-28.326-14.252"/>
 <path d="m354.2 269.69l-3.7465-31.41-29.369-4.0069 29.369-4.0069 3.7465-31.41 3.7465 31.41 29.369 4.0069-29.369 4.0069z" fill="#f2f2f2"/>
 <path fill="#f2f2f2" d="m150.9 262.7-3.739-29.31-29.31-3.739 29.31-3.739 3.739-29.31 3.739 29.31 29.31 3.739-29.31 3.739z"/>
 <path d="m193.89 187.45l-5.982-46.893-46.893-5.982 46.893-5.982 5.982-46.893 5.982 46.893 46.893 5.982-46.893 5.982z" fill="#f9f9f9"/>
 <path d="m332.06 262.05l16.757-26.83-20.382-21.522 25.402 15.275 22.597-22.136-16.757 26.83 20.382 21.522-25.402-15.275z" fill="#f2f2f2"/>
 <path fill="#ececec" d="m250.89 405.5 24.079-33.631-26.509-31.751 33.631 24.079 31.751-26.509-24.079 33.631 26.509 31.751-33.631-24.079z"/>
 <circle r="181.13" stroke="#fefefe" cy="256" cx="256" stroke-width="18.771" fill="none"/>
</svg>
