<svg height="512" viewBox="0 0 512 512" width="512" xmlns="http://www.w3.org/2000/svg">
 <path d="m471.95 253.05c0 120.9-98.01 218.9-218.9 218.9-120.9 0-218.9-98.01-218.9-218.9 0-120.9 98.01-218.9 218.9-218.9 120.9 0 218.9 98.01 218.9 218.9" fill="#00aff0" fill-rule="evenodd"/>
 <path d="m190.03516 120.04688l-.00586.0039c-39.24 0-71.0293 31.7983-71.0293 71.0293 0 13.12 3.56081 25.38373 9.75781 35.92773-1.625 7.958-2.46875 16.20163-2.46875 24.64063 0 67.66 54.842 122.5 122.5 122.5 7.663 0 15.16064-.70088 22.43164-2.04688 10 5.376 21.42617 8.41797 33.57618 8.41797 39.24 0 71.05859-31.7943 71.05859-71.0293 0-11.336-2.65981-22.05068-7.38281-31.55468 1.852-8.47 2.82226-17.26211 2.82226-26.28711 0-67.66-54.842-122.5-122.5-122.5-7.143 0-14.13922.61311-20.94922 1.78711-10.95-6.9-23.92054-10.88867-37.81054-10.88867zm57.93554 45.39843c10.94 0 20.56185 1.26472 28.58985 3.76172 8.08 2.514 14.89514 5.9098 20.24414 10.0918 5.387 4.208 9.38048 8.72239 11.89648 13.40039 2.542 4.725 3.83399 9.41975 3.83399 13.96875 0 4.377-1.67377 8.35917-5.00977 11.82617-3.355 3.489-7.60952 5.24219-12.60351 5.24219-4.537 0-8.06921-1.10802-10.53321-3.29102-2.292-2.027-4.6735-5.16493-7.3125-9.71093-3.055-5.80401-6.763-10.39124-11-13.61524-4.116-3.132-11.00103-4.72461-20.45703-4.72461-8.782 0-15.90598 1.76519-21.20898 5.24219-5.11 3.35-7.59571 7.18142-7.59571 11.73242 0 2.791.80132 5.14144 2.44532 7.14844 1.741 2.127 4.18506 3.99583 7.28906 5.54883 3.22 1.618 6.52856 2.89254 9.85156 3.81054 3.405.945 9.12013 2.34916 16.95313 4.16016 9.913 2.128 19.02984 4.50312 27.08984 7.07812 8.157 2.611 15.20217 5.83032 20.95117 9.57032 5.868 3.822 10.52722 8.74161 13.82422 14.59961 3.306 5.88 4.98437 13.1315 4.98437 21.5625 0 10.09-2.89503 19.29275-8.58203 27.34375-5.667 8.02-14.029 14.36986-24.875 18.88086-10.744 4.465-23.64378 6.72656-38.30078 6.72656-17.594 0-32.33861-3.08536-43.84961-9.19336-8.231-4.446-15.01992-10.46058-20.16992-17.89258-5.204-7.506-7.83008-14.96639-7.83008-22.15039 0-4.489 1.71157-8.38336 5.10157-11.56836 3.356-3.157 7.66201-4.75 12.79101-4.75 4.21 0 7.84002 1.26672 10.79102 3.76172 2.82 2.39 5.22887 5.91933 7.17187 10.48633 2.171 4.972 4.5293 9.17933 7.0293 12.48633 2.402 3.181 5.85939 5.86026 10.27539 7.94726 4.44 2.103 10.43383 3.15039 17.79883 3.15039 10.128 0 18.4425-2.15592 24.6875-6.41992 6.101-4.165 9.05078-9.1622 9.05078-15.2832 0-4.836-1.54256-8.63128-4.72656-11.61328-3.333-3.117-7.73332-5.55375-13.07032-7.21875-5.569-1.735-13.12856-3.61527-22.47656-5.57227-12.713-2.723-23.50384-5.9388-32.08984-9.5918-8.785-3.738-15.86502-8.91834-21.04102-15.40234-5.26-6.582-7.92383-14.83788-7.92383-24.54688 0-9.254 2.78079-17.61064 8.30078-24.80664 5.47801-7.145 13.49393-12.69686 23.79493-16.50586 10.166-3.76 22.24178-5.66601 35.92578-5.66601zm74.78516 149.24805c10.4421 0 14.23005 9.884 15.08398 12.18359l5.80078-9.86328h11.60157l-13.92188 22.04492c0 0 3.48165 20.97783 15.08399 17.4043 0 0-5.31056 4.64063-9.28321 4.64063-9.28187 0-11.60146-11.60336-12.76171-13.92383-2.75903 4.64094-12.05546 13.92383-19.72461 13.92383h-3.48047c-10.4421 0-15.08399-6.95911-15.08399-16.70508 0-7.6181 9.28204-29.70508 26.68555-29.70508zm-.86328 5.81445c-10.58696-.02985-23.89055 34.71489-11.89844 34.79492 8.02882.04642 17.92386-12.76327 20.88477-18.56445-1.74035-11.31228-4.93173-15.81133-8.48438-16.20117-.16656-.01827-.3339-.02882-.50195-.0293z" fill="#ffffff"/>
<circle cx="256" stroke="#fefefe" cy="256" r="181.13" stroke-width="18.771" fill="none" /></svg>
