<svg height="512" viewBox="0 0 512 512" width="512" xmlns="http://www.w3.org/2000/svg">
 <path d="m471.95 253.05c0 120.9-98.01 218.9-218.9 218.9-120.9 0-218.9-98.01-218.9-218.9 0-120.9 98.01-218.9 218.9-218.9 120.9 0 218.9 98.01 218.9 218.9" fill="#cd1d31" fill-rule="evenodd"/>
 <path d="m259.44 182.59c0 9.03-3.36 16.503-10.08 22.433-6.654 5.929-16.17 9.652-28.56 11.167v22.532h-12.95v-21.64c-7.511-.132-14.725-.758-21.642-1.878-6.852-1.186-12.518-2.8-16.998-4.842v-16.602c4.941 2.306 10.969 4.315 18.08 6.03 7.181 1.647 14.03 2.536 20.555 2.668v-42.3c-13.506-4.282-23.06-9.289-28.659-15.02-5.6-5.798-8.4-13.209-8.4-22.24 0-8.696 3.327-15.844 9.981-21.445 6.654-5.6 15.68-9.03 27.08-10.278v-17.792h12.946v17.59c12.517.33 24.409 2.833 35.675 7.511l-5.534 13.934c-10.212-4.02-20.259-6.39-30.14-7.115v41.703c10.541 3.558 18.381 6.918 23.52 10.08 5.205 3.162 9.03 6.786 11.463 10.871 2.438 4.02 3.656 8.894 3.656 14.626m-17.986 1.285c0-4.743-1.548-8.499-4.645-11.266-3.097-2.833-8.433-5.567-16.01-8.202v37.06c13.769-2.108 20.654-7.972 20.654-17.59m-52.574-61.17c0 4.809 1.416 8.697 4.249 11.661 2.833 2.965 7.741 5.699 14.725 8.202v-36.861c-6.193 1.054-10.904 3.064-14.13 6.03-3.228 2.965-4.842 6.621-4.842 10.969" fill="#ffffff"/>
 <path d="m265.7 73.39h77.09v165.33h-77.09z" fill="#ffffff" fill-opacity=".435" fill-rule="evenodd"/>
 <path d="m259.44 374c0 9.03-3.36 16.503-10.08 22.433-6.654 5.929-16.17 9.652-28.56 11.167v22.532h-12.95v-21.64c-7.511-.132-14.725-.758-21.642-1.878-6.852-1.186-12.518-2.8-16.998-4.842v-16.602c4.941 2.306 10.969 4.315 18.08 6.03 7.181 1.647 14.03 2.536 20.555 2.668v-42.3c-13.506-4.282-23.06-9.289-28.659-15.02-5.6-5.798-8.4-13.209-8.4-22.24 0-8.696 3.327-15.844 9.981-21.445 6.654-5.6 15.68-9.03 27.08-10.278v-17.788h12.946v17.59c12.517.33 24.409 2.833 35.675 7.511l-5.534 13.934c-10.212-4.02-20.259-6.39-30.14-7.115v41.703c10.541 3.558 18.381 6.918 23.52 10.08 5.205 3.162 9.03 6.786 11.463 10.871 2.438 4.02 3.656 8.894 3.656 14.626m-17.986 1.285c0-4.743-1.548-8.499-4.645-11.266-3.097-2.833-8.433-5.567-16.01-8.202v37.06c13.769-2.108 20.654-7.972 20.654-17.59m-52.574-61.17c0 4.809 1.416 8.697 4.249 11.661 2.833 2.965 7.741 5.699 14.725 8.202v-36.861c-6.193 1.054-10.904 3.064-14.13 6.03-3.228 2.965-4.842 6.621-4.842 10.969" fill="#ffffff"/>
 <path d="m265.7 264.8h77.09v165.33h-77.09z" fill="#ffffff" fill-opacity=".435" fill-rule="evenodd"/>
<circle cx="256" stroke="#fefefe" cy="256" r="181.13" stroke-width="18.771" fill="none" /></svg>
