<svg viewBox="0 0 512 512" xmlns="http://www.w3.org/2000/svg">
 <filter id="a">
  <feGaussianBlur stdDeviation="4.798"/>
 </filter>
 <linearGradient id="b" gradientUnits="userSpaceOnUse" x1="109.47" x2="402.68">
  <stop offset="0" stop-color="#de6f42"/>
  <stop offset=".5" stop-color="#a7d138"/>
  <stop offset="1" stop-color="#69cdbf"/>
 </linearGradient>
 <radialGradient id="c" cx="184.91" cy="183" gradientTransform="matrix(.92072 .86717 -.68562 .72796 140.13 -110.56)" gradientUnits="userSpaceOnUse" r="218.91">
  <stop offset="0" stop-color="#535353"/>
  <stop offset="1" stop-color="#282629"/>
 </radialGradient>
 <path d="m471.95 253.05c0 120.9-98.01 218.91-218.91 218.91-120.9 0-218.91-98.01-218.91-218.91 0-120.9 98.01-218.91 218.91-218.91 120.9 0 218.91 98.01 218.91 218.91" fill="url(#c)" fill-rule="evenodd"/>
 <path d="m253.03 34.16c-89.39 0-166.25 53.58-200.25 130.38h400.5c-34-76.8-110.86-130.37-200.25-130.37" fill="#282629" fill-rule="evenodd"/>
 <path d="m253.03 34.16c-11.935 0-23.646.943-35.06 2.781l40.06 53.09-44.19 58.59h40.13l44.19-58.59-42.12-55.844c-.999-.013-1.998-.031-3-.031m37.469 3.188l39.75 52.688-44.19 58.59h40.16l44.16-58.59-27.719-36.781c-16.409-7.372-33.901-12.758-52.16-15.906m-99.91 5.844c-10.754 3.195-21.16 7.173-31.16 11.906l26.344 34.938-44.16 58.59h40.13l44.19-58.59-35.34-46.844zm-53.813 24.375c-9.08 5.705-17.724 12.06-25.844 19l2.625 3.469-44.16 58.59h40.13l44.19-58.59-16.938-22.469m264.34 24.281l-42.844 56.781h40.16l24.938-33.06c-6.822-8.441-14.267-16.381-22.25-23.719" fill="#ffffff" fill-rule="evenodd"/>
 <path d="m256 1c-140.83 0-255 114.17-255 255 0 140.83 114.17 255 255 255 140.83 0 255-114.17 255-255 0-140.83-114.17-255-255-255m8.827 44.931c120.9 0 218.9 98 218.9 218.9 0 120.9-98 218.9-218.9 218.9-120.9 0-218.93-98-218.93-218.9 0-120.9 98.03-218.9 218.93-218.9" fill-opacity=".067" fill-rule="evenodd"/>
 <g fill-rule="evenodd">
  <path d="m253.94 196.22c-31.02-.289-61.21 26.04-60.31 57.969-.397 23.09-.026 46.24-1.531 69.28-.607 10.491-9.69 20.276-20.688 18.875-9.109-.342-17.256-8.092-16.938-17.5-1.875-42.704-.891-85.51-1.781-128.25h-45.25c.993 44.21-.036 88.55.625 132.69 3.663 30.2 30.404 56 61.13 56.781 28.667 1.776 59.37-16.738 65.5-45.813 3.434-19.445 1.481-39.33 2.226-58.968.011-13.205-1.835-29.724 9.649-38.875 9.818-7.867 25.465-1.474 28.344 10.313 2.349 10.122.694 20.778 1.56 31.12.639 34.32.475 68.65 1 102.97h43.16c.831-44.47-1.728-89.12 2.094-133.47 5.179-14.15 28.518-17.292 35.03-2.781 4.902 11.559 1.579 24.529 3.01 36.718.576 33.17.14 66.36.338 99.53h43.47c-.988-48.669 2.091-97.53-2.188-146.06-6.309-26.26-33.617-43.47-59.844-43.781-15.576-.413-31.05 5.059-43.531 13.719-12.244-10.361-29.05-14.807-45.06-14.469" fill="url(#b)" filter="url(#a)"/>
  <path d="m254.01 202.21c-2.207.062-4.4.254-6.552.546-18.299 2.483-33.494 12.631-42.04 28.06-7.837 16.818-5.312 15.687-6.06 53.891-.833 42.478-1.082 44.868-4.859 50.943-5.468 8.793-11.938 12.581-21.677 12.722-8.865.129-14.953-3.268-21.404-11.903-3.463-4.637-3.616-7.31-4.095-69.34l-.546-64.54h-33.252l.546 66.886c0 57.41-3.483 57.57 6.279 78.57 13.168 26.736 44.52 38.698 74.04 28.28 9.422-3.324 21.409-12.198 26.645-19.766 8.825-12.754 9.774-18.553 9.774-61.21 0-37.618.196-39.975 3.931-47.28 5.437-10.641 11.791-14.906 22.277-14.906 9.781 0 16.378 4.05 21.84 13.323 3.295 5.595 3.498 9.554 3.986 70.11l.546 64.21h31.286v-60.716c.006-34.455.771-63.37 1.747-66.886 4.207-12.465 15.931-18.266 24.461-18.291 12.11.428 20.857 6.275 24.461 18.291.976 3.514 1.687 32.431 1.693 66.886l.055 60.716h31.45v-66.941c0-74.72-.312-76.85-11.739-90.2-17.409-20.339-46.527-26.49-71.47-15.07-5.606 2.567-11.605 5.926-13.323 7.48-2.89 2.616-3.422 2.553-7.04-.764-9.265-8.488-25.501-13.537-40.951-13.1" fill="#ffffff"/>
 </g>
<circle cx="256" stroke="#fefefe" cy="256" r="181.13" stroke-width="18.771" fill="none" /></svg>
