<svg height="512" viewBox="0 0 512 512" width="512" xmlns="http://www.w3.org/2000/svg">
 <path d="m247.02954 116.10511c-5.759 0-11.519 3.687-11.519 11.519 0 17.638-3.986 26.955-10.619 31.497-3.248 1.149-6.273 2.677-9.359 4.14-.097.046-.263-.047-.36 0-7.938 1.641-17.237-2.118-29.877-14.759-5.538-5.538-12.306-4.073-16.379 0l-8.099 8.099-8.099 8.099c-4.073 4.073-5.538 10.84 0 16.379 12.64 12.64 16.4 21.94 14.759 29.877-.024.118.027.242 0 .36-1.463 3.086-2.99 6.111-4.14 9.359-4.543 6.633-13.859 10.619-31.497 10.619-7.832 0-11.519 5.759-11.519 11.519v23.038c0 5.759 3.687 11.519 11.519 11.519 17.638 0 26.955 3.986 31.497 10.619 1.149 3.248 2.677 6.273 4.14 9.359.046.097-.047.263 0 .36 1.641 7.938-2.118 17.237-14.759 29.877-5.538 5.538-4.073 12.306 0 16.379l8.099 8.099 8.099 8.099c4.073 4.073 10.84 5.538 16.379 0 12.64-12.64 21.94-16.4 29.877-14.759.118.024.242-.027.36 0 3.086 1.463 6.111 2.99 9.359 4.14 6.633 4.543 10.619 13.859 10.619 31.497 0 7.832 5.76 11.519 11.519 11.519h23.038c5.759 0 11.519-3.687 11.519-11.519 0-17.638 3.986-26.955 10.619-31.497 3.248-1.149 6.273-2.677 9.359-4.14.097-.046.263.047.36 0 7.938-1.641 17.237 2.118 29.877 14.759 5.538 5.538 12.306 4.073 16.378 0l8.099-8.099 8.099-8.099c4.073-4.073 5.538-10.84 0-16.379-12.64-12.64-16.4-21.94-14.759-29.877.024-.118-.027-.242 0-.36 1.463-3.086 2.99-6.111 4.14-9.359 4.543-6.633 13.859-10.619 31.497-10.619 7.832 0 11.519-5.759 11.519-11.519v-23.038c0-5.759-3.687-11.519-11.519-11.519-17.638 0-26.955-3.986-31.497-10.619-1.149-3.248-2.677-6.273-4.14-9.359-.027-.118.024-.242 0-.36-1.641-7.938 2.118-17.237 14.759-29.877 5.538-5.538 4.073-12.306 0-16.379l-8.099-8.099-8.099-8.099c-4.073-4.073-10.84-5.538-16.378 0-12.64 12.64-21.94 16.4-29.877 14.759-.097-.047-.263.046-.36 0-3.086-1.463-6.111-2.99-9.359-4.14-6.633-4.543-10.619-13.859-10.619-31.497 0-7.832-5.759-11.519-11.519-11.519zm11.519 80.63c31.809 0 57.59 25.786 57.59 57.59 0 31.809-25.786 57.59-57.59 57.59-31.809 0-57.59-25.786-57.59-57.59 0-31.809 25.786-57.59 57.59-57.59" fill="#ffedb5"/>
</svg>
