<svg version="1.1" viewBox="0 0 512 512" xmlns="http://www.w3.org/2000/svg">
	<path d="m79.007 413.78c0-1.189 172.48-329.28 178.26-339.09l3.9944-6.777 4.3627 7.655c2.3995 4.2101 19.984 37.683 39.077 74.383 19.093 36.701 57.593 110.49 85.556 163.97 39.238 75.052 50.301 97.589 48.471 98.748-1.3038 0.82617-17.016 1.5144-34.917 1.5292l-32.546 0.0265-9.598-9.7324c-24.08-24.417-66.167-46.553-113.2-59.541l-21.072-5.8184 26.34-1.3212c24.744-1.2411 52.658-0.40439 67.92 2.036 5.101 0.81576 6.7107 0.48152 6.7107-1.3932 0-4.6317-64.569-122.66-67.102-122.66-1.8467 0-14.881 22.721-65.482 114.14-24.857 44.91-45.332 81.821-45.5 82.024-0.74907 0.90895-71.269 2.7013-71.269 1.8113z" style="fill:#ffedb5;stroke-width:1.756"/>
</svg>
