<svg viewBox="0 0 512 512" xmlns="http://www.w3.org/2000/svg">
 <path d="m219 130.5c-34 0-61.45 11.185-82.31 33.594-20.864 22.299-31.28 53.659-31.28 94.06 0 38.19 10.371 68.33 31.13 90.41 20.74 21.96 47.23 32.93 79.46 32.93 26.05 0 47.547-6.382 64.44-19.19 17-12.916 29.12-32.631 36.406-59.12l-47.5-15.06c-4.085 17.773-10.836 30.783-20.22 39.06-9.383 8.279-20.599 12.438-33.625 12.438-17.663 0-31.992-6.505-43.03-19.531s-16.563-34.905-16.562-65.59c0-28.922 5.569-49.834 16.719-62.75 11.26-12.916 25.881-19.375 43.875-19.375 13.03 0 24.07 3.652 33.13 10.938 9.162 7.286 15.192 17.228 18.06 29.812l48.5-11.594c-5.51-19.44-13.8-34.35-24.84-44.73-18.54-17.55-42.64-26.31-72.34-26.31zm138.59 4.125v242.75h49v-242.75z" fill="#ffedb5"/>
</svg>
