<svg height="512" viewBox="0 0 512 512" width="512" xmlns="http://www.w3.org/2000/svg">
 <path d="m251.16 99.34c-11.492.498-37.4 98.09-46.41 105.25-9 7.158-109.92 10.385-113 21.469-3.077 11.08 81.76 65.881 85.78 76.66 4.03 10.775-24.12 107.74-14.531 114.09 9.59 6.351 87.91-57.38 99.41-57.875 11.492-.498 95.03 56.22 104.03 49.06 9-7.158-27.39-101.35-24.313-112.44 3.077-11.08 82.84-73.01 78.81-83.78-4.03-10.775-104.88-5.242-114.47-11.594-9.59-6.351-43.821-101.34-55.31-100.84m1.469 34.03c9.231-.4 36.734 75.929 44.44 81.03 7.703 5.102 88.7.657 91.94 9.313 3.233 8.655-60.841 58.38-63.31 67.28-2.472 8.903 26.795 84.56 19.563 90.31-7.233 5.75-74.33-39.807-83.56-39.41-9.231.4-72.14 51.602-79.84 46.5-7.703-5.102 14.89-83 11.656-91.66-3.233-8.655-71.38-52.66-68.906-61.56 2.472-8.903 83.55-11.5 90.78-17.25 7.233-5.75 28.02-84.16 37.25-84.56" fill="#ffedb5"/>
</svg>
