<svg height="512" viewBox="0 0 512 512" width="512" xmlns="http://www.w3.org/2000/svg" xmlns:xlink="http://www.w3.org/1999/xlink">
 <path id="a" d="m13 10.5c0 1.381-1.119 2.5-2.5 2.5s-2.5-1.119-2.5-2.5 1.119-2.5 2.5-2.5 2.5 1.119 2.5 2.5" fill="#ffedb5"/>
 <g transform="matrix(1.413 0 0 1.413 612.79 -770.81)">
  <use height="1" transform="matrix(8.0459 0 0 7.998 -265.11 585.42)" width="1" xlink:href="#a"/>
  <g fill="#ffedb5">
   <path d="m-333.2 677.94v119.97h17.241v-119.97z"/>
   <path d="m-188.8 803.69h-120.69v5.713h120.69z"/>
  </g>
  <use height="1" transform="matrix(5.747 0 0 5.7129 -275.38 660.97)" width="1" xlink:href="#a"/>
  <use height="1" transform="matrix(8.0459 0 0 7.998 -408.78 585.58)" width="1" xlink:href="#a"/>
  <use height="1" transform="matrix(8.0459 0 0 7.998 -408.88 722.69)" width="1" xlink:href="#a"/>
  <use height="1" transform="matrix(8.0459 0 0 7.998 -265.11 722.72)" width="1" xlink:href="#a"/>
  <g fill="#ffedb5">
   <path d="m-189.18 678.44v119.97h17.241v-119.97z"/>
   <path d="m-189.82 660.84h-120.69v17.14h120.69z"/>
   <path d="m-184.23 797.95h-133.9v17.14h133.9z"/>
  </g>
  <use height="1" transform="matrix(5.747 0 0 5.7129 -350.09 660.97)" width="1" xlink:href="#a"/>
  <use height="1" transform="matrix(5.747 0 0 5.7129 -350.09 580.99)" width="1" xlink:href="#a"/>
  <use height="1" transform="matrix(5.747 0 0 5.7129 -275.38 580.99)" width="1" xlink:href="#a"/>
  <g fill="#ffedb5">
   <path d="m-296.69 647.17v69.38h11.494v-69.38z"/>
   <path d="m-219.97 647.63v69.38h11.494v-69.38z"/>
   <path d="m-217.42 634.19h-69.791v11.426h69.791z"/>
   <path d="m-217.42 714.98h-69.791v11.426h69.791z"/>
   <path d="m-290.75 712.69l-43.13 103.6 9.27 3.813 43.13-103.6z"/>
   <path d="m-213.87 712.69l43.13 103.6-9.27 3.813-43.13-103.6z"/>
   <path d="m-212.15 635.17l37 34.461-5.343 4.889-37-34.462z"/>
   <path d="m-295.41 637.39l-37 34.461 5.343 4.889 37-34.462z"/>
  </g>
 </g>
</svg>
