<svg height="1814.17" viewBox="0 0 512 512" width="1814.17" xmlns="http://www.w3.org/2000/svg">
 <path d="m896.59766 120.96875c-428.38508 0-775.66407 347.27899-775.66407 775.66406 0 428.38509 347.27899 775.66409 775.66407 775.66409 428.38504 0 775.66404-347.279 775.66404-775.66409 0-428.38507-347.279-775.66406-775.66404-775.66406zm-331.22852 323.14844c111.7061 0 202.28711 90.56683 202.28711 202.28711 0 111.7061-90.56683 202.28711-202.28711 202.28711-111.7061 0-202.28711-90.56684-202.28711-202.28711 0-111.70611 90.56683-202.28711 202.28711-202.28711zm683.43166 10.1875c111.7061 0 202.2871 90.56683 202.2871 202.28711 0 111.70964-90.5668 202.17968-202.2871 202.17968-111.7061 0-202.2871-90.45941-202.2871-202.17968 0-111.70611 90.5668-202.28711 202.2871-202.28711zm-352.17775 371.46875c46.81242.28323 108.49845 12.89088 197.69725 48.17773 44.5747 218.05473-143.89441 367.51153-177.166 496.06253-22.74799-135.8502-254.12102-243.248-177.16407-496.06253 46.64047-19.40666 82.93129-47.41324 152.14258-48.16797h.00586c1.47955-.01616 2.9743-.0189 4.48438-.00976z" fill="#ffedb5" fill-rule="evenodd" transform="scale(.28222272)"/>
</svg>
