<svg height="512" viewBox="0 0 512 512" width="512" xmlns="http://www.w3.org/2000/svg">
 <path d="m199.3 396.78c-1.037-.245-2.703-1.284-3.702-2.31-1.099-1.128-14.877-26.14-34.858-63.28l-33.04-61.41-3.01-1.697c-3.805-2.147-8.116-6.162-9.916-9.234-1.337-2.282-1.378-2.628-1.022-8.651 1.548-26.22 9.589-50.692 23.562-71.71 22.975-34.55 58.27-56.672 100.06-62.715 9.187-1.328 28.12-1.328 37.31 0 32.414 4.687 61.5 19.323 83.26 41.903 24.346 25.26 37.625 55.28 40.1 90.67.584 8.354.563 8.775-.528 10.54-1.538 2.488-6.335 6.949-10.07 9.362l-3.063 1.98-32.855 61.19c-23.18 43.16-33.451 61.779-34.879 63.19-3.497 3.464-8.144 3.419-11.675-.112-2.586-2.586-3.258-5.346-2.093-8.587.445-1.238 13.763-26.334 29.594-55.769s28.925-53.885 29.1-54.33c.246-.641-.419-.892-3.1-1.172-1.877-.196-5.144-.958-7.258-1.694l-3.845-1.337-1.106 1.789c-2.625 4.248-9.959 10-15.321 12.03l-2.247.847-15.889 52.89c-10.96 36.484-16.298 53.44-17.209 54.674-3.224 4.357-9.885 4.379-13.36.045-2.961-3.693-3.167-2.791 12.75-55.844 7.994-26.646 14.638-48.745 14.764-49.11.145-.421-.93-.887-2.943-1.277-6.34-1.228-14.437-4.538-17.527-7.164-.905-.77-1.191-.647-3.341 1.43-10.798 10.433-31.12 14.227-46.841 8.746-5.145-1.793-8.33-3.727-12.187-7.397l-3.218-3.063-2.072 1.251c-5.175 3.125-13.347 6.17-16.631 6.197-2.804.023-3.03-.891 12.355 50.38 16.656 55.51 16.01 52.47 11.994 56.49-2.862 2.862-5.88 3.372-9.445 1.596-1.551-.773-2.985-2.025-3.651-3.189-.603-1.054-8.129-25.352-16.725-53.996l-15.627-52.08-4.619-2.348c-5.292-2.69-9.719-6.263-12.563-10.137l-1.972-2.686-3.802 1.275c-2.091.701-5.341 1.475-7.222 1.718l-3.419.443 29.574 54.851c28.36 52.599 29.583 54.988 29.785 58.19.264 4.183-1.034 6.542-4.455 8.095-2.553 1.159-3.068 1.206-5.91.535m4.56-131.2c5.361-1.016 11.08-3.118 14.03-5.155l2.227-1.539-.278-6.091c-.153-3.35-.249-13.734-.214-23.08.052-13.695.294-18.818 1.25-26.451 2.259-18.05 6.173-34.12 11.814-48.49 2.676-6.821 7.826-17.538 10.35-21.536.761-1.205 1.27-2.303 1.133-2.44-.448-.448-9.993 4.827-16.365 9.05-26.963 17.851-46.01 46.01-55.51 82.08-1.879 7.133-4.196 19.287-4.61 24.18l-.338 3.995 2.643 3.312c4.442 5.567 9.153 9.122 15.06 11.362 6.073 2.304 10 2.472 18.81.802m123.46-.69c7.298-2.342 15.01-9.201 16.962-15.08.787-2.374.752-3.109-.509-10.664-8.304-49.757-33.365-87.12-71.41-106.47-3.732-1.898-6.933-3.304-7.112-3.125s.702 2.555 1.958 5.279c10.237 22.21 17.344 50.16 20.307 79.85 1.035 10.373 2.028 29.988 1.854 36.609-.119 4.519.011 5.343 1.063 6.767 2.335 3.158 10.283 6.676 17.673 7.823 5.427.842 15.05.345 19.218-.994" fill="#ffedb5"/>
</svg>
