<svg height="512" viewBox="0 0 512 512" width="512" xmlns="http://www.w3.org/2000/svg">
 <path d="m256 95.964c-88.39 0-160.04 71.646-160.04 160.04 0 88.386 71.651 160.04 160.04 160.04 23.153 0 45.145-4.9446 65.015-13.791l-13.8-30.92c-15.64 6.96-33 10.76-51.22 10.76-69.64 0-126.09-56.45-126.09-126.09 0-69.637 56.452-126.09 126.09-126.09 69.637 0 126.09 56.452 126.09 126.09h33.947c0-88.39-71.65-160.04-160.04-160.04zm-33.947 77.593s-24.248 0-24.248 24.248v130.94h33.947v-116.39c0-3.3518.052-4.841 4.8496-4.6981 2.1502.0624 5.2058-.15172 9.6992-.15172 29.438.0001 53.345 10.316 53.346 43.646-.0001 27.039-9.6992 38.797-38.797 43.646v33.947c46.764-.91138 74.553-40.313 72.744-77.593-1.8094-37.281-29.098-77.593-88.353-77.593h-23.187zm173.68 97.598c-7.8924-.19745-14.977 5.1926-16.822 13.185-2.1087 9.134 3.5963 18.199 12.73 20.308 9.1339 2.1087 18.199-3.4446 20.308-12.579 2.1087-9.1339-3.5962-18.35-12.73-20.459-1.1418-.26396-2.3582-.42607-3.4857-.45413zm-20.005 45.768c-5.4479.10395-10.752 2.8153-13.943 7.729-5.1056 7.8618-2.8607 18.385 5.0011 23.49 7.862 5.1057 18.385 2.8608 23.49-5.0011 5.1056-7.8618 2.8608-18.385-5.0011-23.49-2.9482-1.9146-6.2789-2.7873-9.5476-2.7279zm-34.553 36.372c-3.265.16835-6.437 1.2185-9.2445 3.3341-7.4866 5.6416-8.9757 16.307-3.3342 23.793 5.6416 7.4867 16.307 8.9758 23.793 3.3342 7.4866-5.6416 8.9757-16.155 3.3341-23.642-3.526-4.6792-9.1072-7.1009-14.549-6.8197z" fill="#ffedb5"/>
</svg>
