<svg version="1.1" viewBox="0 0 512 512" xmlns="http://www.w3.org/2000/svg">
	<path d="m71.239 444.04c0-1.2403 179.93-343.49 185.95-353.74l4.167-7.0697 4.5511 7.9856c2.5032 4.392 20.847 39.31 40.765 77.596 19.917 38.286 60.081 115.26 89.25 171.06 40.933 78.294 52.473 101.8 50.565 103.01-1.3601 0.86186-17.752 1.5798-36.425 1.5953l-33.952 0.0276-10.013-10.153c-25.12-25.471-69.025-48.564-118.09-62.113l-21.982-6.0697 27.477-1.3783c25.813-1.2946 54.932-0.42184 70.853 2.124 5.3214 0.851 7.0006 0.50232 7.0006-1.4534 0-4.8318-67.357-127.96-70.001-127.96-1.9265 0-15.524 23.703-68.311 119.07-25.93 46.849-47.29 85.355-47.465 85.567-0.78142 0.94821-74.346 2.818-74.346 1.8895z" style="fill:#ffedb5;stroke-width:1.8319"/>
</svg>
