<svg height="512" viewBox="0 0 512 512" width="512" xmlns="http://www.w3.org/2000/svg">
 <path d="m240.94 137.1c-6.527 0-12.628.967-18.22 2.911-5.627 1.957-10.659 4.995-14.986 9.02-4.338 4.04-7.959 9.08-10.889 15.02-2.939 5.962-5.135 12.77-6.648 20.448l-2.623 12.902h-13.153c-1.787 0-3.801.603-5.319 1.869-1.017.853-1.884 1.847-2.623 2.947-.772 1.142-1.385 2.386-1.869 3.702-.003.01.003.026 0 .036-.437 1.194-.808 2.441-1.078 3.737-.263 1.252-.467 2.503-.575 3.738-.098 1.122-.144 2.094-.144 3.02 0 2.107-.029 4.175 1.905 6.433 1.445 1.702 3.854 2.587 5.786 2.587h11.428l-21.06 104v .036c-1.05 5.107-2.201 9.423-3.414 12.902-1.176 3.369-2.601 6-4.133 7.942-1.49 1.882-3.13 3.142-5.139 3.989-2.027.855-4.671 1.366-7.978 1.366-1.286 0-2.267-.059-2.875-.144-.014-.002-.022.002-.036 0-.883-.128-1.619-.253-2.156-.359-.636-.126-1.243-.277-1.761-.395-.012-.002-.024.002-.036 0-.967-.222-1.958-.323-2.911-.323-1.992 0-4.15 1.131-5.319 2.516-.901 1.068-1.48 2.255-1.977 3.486-.441 1.092-.83 2.236-1.15 3.45-.294 1.121-.55 2.213-.755 3.27-.183.967-.357 1.924-.503 2.839-.149.949-.252 1.617-.252 2.587 0 1.218.069 2.365.503 3.666v.036c.365 1.069.929 2.051 1.617 2.911l.287.359.359.323c2.389 2.028 4.03 2.086 6.828 2.767 3.142.762 6.783 1.078 11.1 1.078 6.694 0 12.863-.956 18.436-2.911 5.6-1.964 10.632-5.04 14.914-9.128 4.283-4.085 7.8-9.145 10.637-15.09 2.833-5.945 5.01-12.845 6.612-20.664l22.425-110.51h23.467c1.758 0 3.448-.689 4.708-1.581 1.134-.803 2.097-1.792 2.875-2.911.707-1.017 1.315-2.144 1.833-3.342.501-1.163.927-2.367 1.258-3.63.314-1.184.55-2.39.755-3.594.218-1.304.323-2.594.323-3.881 0-2.145-.266-4.436-2.048-6.469h-.036c-1.473-1.673-3.917-2.659-6-2.659h-21.455l1.222-6.325v-.036c.959-4.898 2.098-9.09 3.342-12.542 1.218-3.368 2.668-5.997 4.241-7.942 1.536-1.9 3.226-3.173 5.247-4.02 2.01-.848 4.677-1.366 8.09-1.366 1.798 0 3.391.188 4.744.467v-.036c1.575.33 2.933.707 3.989 1.042 1.203.384 2.226.719 3.091 1.042 1.283.484 2.523.862 4.061.862 2.142 0 4.116-1.266 5.175-2.516h.036c.901-1.068 1.48-2.223 1.977-3.45.446-1.101.831-2.271 1.15-3.486.315-1.189.553-2.342.719-3.486.141-.977.262-1.86.359-2.659v-.036c.095-.826.18-1.433.18-2.228 0-1.384-.235-2.771-.683-4.097h.036c-.454-1.355-1.306-2.679-2.444-3.737l.036-.036c-.068-.067-.148-.08-.216-.144-.046-.04-.061-.105-.108-.144l-.036.036c-1.338-1.208-2.673-1.841-4.241-2.444-1.686-.643-3.562-1.174-5.606-1.617-2.059-.448-4.213-.803-6.541-1.042-2.319-.239-4.584-.359-6.756-.359m77.55.97c-2.39 0-4.44.076-6.217.287-1.749.211-3.304.526-4.78 1.078h-.036c-1.456.553-2.945 1.393-4.133 2.947h-.036c-.007.009.007.027 0 .036-.821 1.086-1.407 2.327-1.725 3.594v.108l-.036.108-36.05 179.08-.072.323h.036c-.321 1.413-.321 3.127.359 4.672.729 1.656 2.06 2.832 3.342 3.558 3.068 1.73 5.851 1.689 9.955 1.689 3.898 0 6.962-.251 9.703-1.222 2.762-.979 5.437-3.688 6-6.792h.036l.072-.395.503-2.408c3.216 2.922 6.623 5.481 10.35 7.439 6.617 3.476 14.433 5.139 23.18 5.139 8.468 0 16.266-1.586 23.25-4.816 6.779-3.134 12.838-7.325 18.08-12.506 5.186-5.129 9.551-11.02 13.12-17.645 3.47-6.454 6.389-13.11 8.697-19.945 2.298-6.824 3.956-13.632 4.995-20.412 1.025-6.685 1.545-12.839 1.545-18.508 0-2.903-.196-6.01-.575-9.344-.392-3.433-1.083-6.904-2.048-10.35v-.036c-1.01-3.59-2.436-7.07-4.277-10.422-1.951-3.542-4.504-6.694-7.619-9.416h-.036c-3.213-2.805-7.03-5.01-11.392-6.612-4.574-1.682-9.817-2.444-15.669-2.444-5.628 0-11.224 1.045-16.675 3.091l-.108.036c-5.302 2-10.207 4.515-14.734 7.547-1.589 1.066-3.036 2.232-4.492 3.378.575-2.325 1.117-4.603 1.545-6.792.002-.012-.002-.025 0-.036l10.853-53.942.036-.18v-.18c.153-1.257.139-2.611-.323-3.989-.775-2.319-2.627-3.578-4.133-4.241h-.036c-1.437-.628-2.879-.967-4.528-1.186h-.036c-1.686-.221-3.591-.287-5.894-.287m32.847 85.53c3.451 0 5.63.727 7.08 1.797h.036c1.911 1.409 3.231 3 4.205 4.995 1.077 2.207 1.836 4.632 2.228 7.295.002.014-.002.022 0 .036.421 2.947.611 5.513.611 7.619 0 4.201-.375 8.763-1.114 13.656-.737 4.879-1.803 9.741-3.234 14.591-1.418 4.804-3.18 9.368-5.319 13.728-2.104 4.28-4.578 8.01-7.367 11.248-2.744 3.195-5.732 5.686-9.02 7.547-3.054 1.728-6.416 2.587-10.386 2.587-5.382 0-9.932-1.248-14.05-3.737-3.731-2.255-7.434-5.936-11.03-10.817l4.02-20.05v-.036c1.458-7.378 3.798-14.12 6.972-20.269 3.229-6.262 6.883-11.63 10.925-16.17 4.03-4.521 8.298-7.977 12.83-10.458 4.494-2.459 8.643-3.558 12.614-3.558" fill="#ffedb5"/>
</svg>
