<svg height="512" viewBox="0 0 512 512" width="512" xmlns="http://www.w3.org/2000/svg">
 <g fill="#ffedb5" transform="matrix(1.2349242 0 0 1.2349242 -60.976926 -58.208887)">
  <path d="m219.84808 90.487726a162.5363 162.5363 0 0 0 -122.824623 157.318844 162.5363 162.5363 0 0 0 122.824623 157.26026v-25.00446a139.78122 139.78122 0 0 1 -98.98509-133.34035 139.78122 139.78122 0 0 1 98.98509-133.41254zm81.71822.566796v22.291738a139.78122 139.78122 0 0 1 98.85837 133.37576 139.78122 139.78122 0 0 1 -98.85837 133.33762v24.44992a162.5363 162.5363 0 0 0 120.53018-156.70299 162.5363 162.5363 0 0 0 -120.53018-156.752048z"/>
  <path d="m219.84808 127.09245a127.37712 127.37712 0 0 0 -87.66414 120.71412 127.37712 127.37712 0 0 0 87.66414 120.81903v-20.00955a109.54434 109.54434 0 0 1 -68.98301-101.65832 109.54434 109.54434 0 0 1 68.98301-101.59561zm81.71822.65536v17.78462a109.54434 109.54434 0 0 1 68.38758 101.4253 109.54434 109.54434 0 0 1 -68.38758 101.38445v19.43323a127.37712 127.37712 0 0 0 85.37107-119.96884 127.37712 127.37712 0 0 0 -85.37107-120.05876z"/>
  <path d="m219.84808 162.5159a93.023813 93.023813 0 0 0 -54.15772 84.29741 93.023813 93.023813 0 0 0 54.15772 84.36283v-15.48065a80.000487 80.000487 0 0 1 -40.51508-69.50347 80.000487 80.000487 0 0 1 40.51508-69.38084zm81.71822 1.80257v14.07728a80.000487 80.000487 0 0 1 37.76829 67.79627 80.000487 80.000487 0 0 1 -37.76829 67.84668v15.16182a93.023813 93.023813 0 0 0 50.17107-82.38721 93.023813 93.023813 0 0 0 -50.17107-82.49484z"/>
 </g>
 <g fill="#ffedb5" transform="matrix(25.647286 0 0 25.647286 172.69739 160.92275)">
  <path d="m2.489 1.839c-.495.465-.497 1.224-.002 1.689l.235-.223c-.367-.344-.366-.898.002-1.245m1.325-.003c.368.346.37.904.002 1.25l.235.222c.495-.465.493-1.227-.001-1.693m-.236.222"/>
  <path d="m1.791 1.132c-.881.854-.883 2.244-.004 3.097l.419-.406c-.653-.634-.65-1.65.003-2.285m2.355-.003c.653.633.658 1.657.004 2.292l.419.406c.88-.854.875-2.251-.004-3.104l-.419.407m0-.001"/>
  <path d="m3.387 2.54c.156 0 .282.126.282.282v2.54c0 .156-.126.282-.282.282-.156 0-.282-.126-.282-.282v-2.54c0-.156.126-.282.282-.282"/>
 </g>
</svg>
