<svg viewBox="0 0 512 512" xmlns="http://www.w3.org/2000/svg">
 <path d="m294.5 250.63c-.791.036-19.54 1.688-39.867 4.747-16.712 2.5-25.825 2.074-31.869 1.275-12.763-2.181-21.383-7.217-24.39-15.299-10.352-27.841 49.579-81.03 133.88-118.79 8.851-3.961 17.578-7.59 26.19-10.894-15.01 4.787-30.545 10.401-46.36 16.84-94.69 38.539-162.6 91.5-151.7 118.31 5.498 13.514 29.99 17.777 65.07 13.772.062-.018.147-.018.213-.018 20.406-1.914 44.836-6.981 59.971-5.756 14.74 1.821 24.705 7.02 27.978 15.828 10.343 27.845-49.597 81.03-133.89 118.8-8.82 3.957-17.578 7.594-26.18 10.88 15.01-4.761 30.545-10.41 46.36-16.831 94.69-38.526 162.59-91.5 151.69-118.32-5.058-12.453-26.304-17.06-57.1-14.544" fill="#ffedb5"/>
</svg>
