<svg height="512" viewBox="0 0 512 512" width="512" xmlns="http://www.w3.org/2000/svg">
 <path d="m78.879537 57.054172c-9.289182 0-16.75593 7.466319-16.75593 16.755929v351.690079c0 9.28918 7.466319 16.75593 16.75593 16.75593h349.230803c9.28918 0 16.75593-7.46632 16.75593-16.75593v-351.690079c0-9.289182-7.46646-16.755929-16.75593-16.755929zm174.479573 32.528151c32.97568 0 59.78316 27.816927 59.78316 62.419737 0 34.6028-26.80891 62.73286-59.78316 62.73286-32.97568 0-59.78317-28.13006-59.78317-62.73286 0-34.60424 26.80892-62.419737 59.78317-62.419737zm-55.76255 141.149297c15.58206 12.16367 34.8902 19.39107 55.76255 19.39107 20.87235 0 40.18049-7.22812 55.76254-19.39107 24.14232 5.98504 44.29262 36.74323 43.43045 74.43871h-198.11432c-.9121-37.68833 19.07222-68.43637 43.16307-74.43871zm-37.48815 117.73618h15.19172l-3.12771 29.84726 29.89158-8.44474 2.1001 14.34241-28.50752 2.27883 18.45311 24.57556-13.35985 7.28316-13.22573-27.16637-11.97465 27.16637-13.80652-7.28316 18.23006-24.57556-28.28304-2.27883 2.18932-14.34241 29.48981 8.44474-3.26168-29.84726zm85.56548 0h15.19171l-3.08838 29.85441 29.84726-8.44474 2.14471 14.34241-28.55185 2.27883 18.45311 24.57556-13.35985 7.28316-13.18112-27.16637-12.01926 27.16637-13.80652-7.28316 18.23006-24.57556-28.32737-2.27883 2.23408-14.34241 29.53413 8.44474-3.30643-29.84726zm85.56548 0h15.19171l-3.1277 29.84726 29.89158-8.44474 2.1001 14.34241-28.50752 2.27883 18.45311 24.57556-13.35985 7.28316-13.18112-27.16637-12.01926 27.16637-13.80652-7.28316 18.23006-24.57556-28.28162-2.2448 2.14472-14.35528 29.53985 8.45017-3.25997-29.84011z" fill="#ffedb5" fill-rule="evenodd"/>
</svg>
