<svg height="512" viewBox="0 0 512 512" width="512" xmlns="http://www.w3.org/2000/svg">
 <g fill="#ffedb5" transform="matrix(1.9581651 0 0 1.9581651 4.544737 -982.96287)">
  <g transform="translate(-70.633805 11.140157)">
   <path d="m177.89056 597.12767h-.01c-6.6729 0-12.10712-5.42671-12.11419-12.09501-.01-6.69051 5.42514-12.12528 12.1041-12.13236 6.68298 0 12.1162 5.42671 12.12426 12.09501 0 6.69052-5.42512 12.1263-12.10408 12.13337l0 0z"/>
   <path d="m210.60812 588.24494c-6.23094 0-11.30246-5.06615-11.30657-11.29167-.01-6.24198 5.06123-11.31635 11.2963-11.32148 6.23916 0 11.31068 5.0651 11.31683 11.29063 0 6.24197-5.06224 11.31635-11.29628 11.32252h-.01z"/>
   <circle cx="-17" cy="-15.701" r="7" transform="matrix(1.4421651 0 0 1.4421651 215.7232 578.60266)"/>
   <circle cx="82.5" cy="-16.522" r="11.5" transform="matrix(.80761247 0 0 .80761247 140.73061 552.34319)"/>
   <circle cx=".5" cy="-37.522" r="10.5" transform="matrix(.76915473 0 0 .76915473 187.18756 551.30398)"/>
  </g>
  <path d="m73.500045 619.18109c-10.4504 13.54548-18.92581 28.78103-18.92581 47.23792 0 40.00634 30.35843 73 68.000005 73 37.64044 0 68-32.99349 68-73 0-18.46054-8.48889-33.21199-19.53017-47.2379-4.14024-4.34463-10.11757-3.69864-14.46899-.91856-12.73296 6.58855-19.60609 9.22094-34.00084 9.15646-13.92202-.0624-21.23667-2.33602-33.970335-9.27735-4.35142-2.65919-10.96363-3.3052-15.10386 1.03943zm9.07419 11.23792c13.19828 7.29754 24.969115 11 40.000005 11 15.0436 0 26.79494-3.70251 40-11 7.2055 10.15985 14 22.7579 14 36 0 32.80129-24.17531 59-54 59-29.826125 0-55.000005-26.19854-55.000005-59 0-13.22462 7.77879-25.8322 15-36z" overflow="visible"/>
 </g>
</svg>
