<svg height="512" viewBox="0 0 512 512" width="512" xmlns="http://www.w3.org/2000/svg">
 <path d="m120.8495 72.11396l-70.759843 70.75986 23.586606 23.58661 47.173237-47.17323 47.17324 47.17323 23.58661-23.58661zm267.31498 0l-70.75983 70.75986 23.58661 23.58661 47.17322-47.17323 47.17324 47.17323 23.58662-23.58661zm-228.00394 125.79528a31.448821 31.448821 0 0 0 -31.44883 31.44882 31.448821 31.448821 0 0 0 31.44883 31.44883 31.448821 31.448821 0 0 0 31.44881-31.44883 31.448821 31.448821 0 0 0 -31.44881-31.44882zm188.69292 0a31.448821 31.448821 0 0 0 -31.44881 31.44882 31.448821 31.448821 0 0 0 31.44881 31.44883 31.448821 31.448821 0 0 0 31.44882-31.44883 31.448821 31.448821 0 0 0 -31.44882-31.44882zm-188.69292 94.34648c0 0-31.44883 31.44882-31.44883 78.62205 0 47.17322 31.44883 78.62205 31.44883 78.62205h31.44881c0 0-31.44881-31.44883-31.44881-78.62205 0-47.17323 31.44881-78.62205 31.44881-78.62205zm62.89763 0v31.44882h31.44883v78.62204c0 8.67989-7.04454 15.72441-15.72441 15.72441-8.67988 0-15.72442-7.04452-15.72442-15.72441h-31.44882c0 26.05535 21.11788 47.17324 47.17324 47.17324 26.05535 0 47.17324-21.11789 47.17324-47.17324v-78.62204h15.72441v-31.44882zm94.34648 0c0 0 31.44881 31.44882 31.44881 78.62205 0 47.17322-31.44881 78.62205-31.44881 78.62205h31.44881c0 0 31.44882-31.44883 31.44882-78.62205 0-47.17323-31.44882-78.62205-31.44882-78.62205z" fill="#ffedb5"/>
</svg>
