<svg height="512" viewBox="0 0 512 512" width="512" xmlns="http://www.w3.org/2000/svg">
 <g fill="#ffedb5" transform="matrix(15.92024 0 0 15.92024 -125.6171 -127.9072)">
  <path d="m22.367 14.828h3.27c4.895 0 4.797 4.852 4.797 4.852v4.156c0 1.582-2.855 4.852-2.855 4.852v2.078l6.426 3.465v2.773h-19.988v-2.773l6.43-3.465v-2.078c0 0-2.867-3.27-2.852-4.852v-4.156c0 0-.105-4.852 4.797-4.852m-.023 0"/>
  <path d="m18.586 17.938h.988c.438 0 .793.387.793.867v6.637c0 .477-.355.867-.793.867h-.988c-.438 0-.797-.391-.797-.867v-6.637c0-.48.359-.867.797-.867m0 0"/>
  <path d="m19.266 22.12c0 1.887-.648 3.414-1.445 3.414-.797 0-1.441-1.527-1.441-3.414 0-1.887.645-3.414 1.441-3.414.797 0 1.445 1.527 1.445 3.414m0 0"/>
  <path d="m16.754 21.938c0 .352-.293.637-.652.637-.359 0-.652-.285-.652-.637 0-.352.293-.637.652-.637.359 0 .652.285.652.637m0 0"/>
  <path d="m23.996 10.992c-4.781 0-8.656 4.227-8.656 9.441 0 .523.043 1.039.117 1.539h1.309c-.086-.496-.137-1.012-.137-1.539 0-4.438 3.297-8.04 7.367-8.04 4.066 0 7.363 3.598 7.363 8.04 0 .527-.047 1.043-.137 1.539h1.309c.078-.5.117-1.016.117-1.539 0-5.215-3.875-9.441-8.652-9.441m0 0"/>
  <path d="m32.539 21.871c0 .352-.285.637-.645.637-.355 0-.645-.285-.645-.637 0-.352.289-.637.645-.637.359 0 .645.285.645.637m0 0"/>
  <path d="m29.406 17.938h-.988c-.441 0-.797.387-.797.867v6.637c0 .477.355.867.797.867h.988c.438 0 .793-.391.793-.867v-6.637c0-.48-.355-.867-.793-.867m0 0"/>
  <path d="m28.727 22.12c0 1.887.645 3.414 1.441 3.414.797 0 1.441-1.527 1.441-3.414 0-1.887-.645-3.414-1.441-3.414-.797 0-1.441 1.527-1.441 3.414m0 0"/>
 </g>
</svg>
