<svg height="512" viewBox="0 0 512 512" width="512" xmlns="http://www.w3.org/2000/svg">
 <path d="m122.76576 417.29691c-18.42165-4.68725-31.630517-23.3664-29.392452-42.32569-.447403-83.25747.01682-166.51769.02684-249.77635 4.65405-18.40441 22.643577-33.784205 42.090217-31.323304 83.63773 0 167.27546 0 250.91319 0 18.50648 4.108229 34.2073 22.041874 32.06278 41.436934.8857 83.85263.0763 167.71152-.0866 251.56648-4.5872 17.67537-21.58419 33.38244-40.51815 31.33178-83.25948-.1139-166.52766.6366-249.78023-.2824l-3.5111-.27131-1.8042-.35614h-.00028zm120.72523-70.55492c-1.37664-4.32587 3.37383-14.7018-3.67765-13.42421-15.95842-.202-31.91686-.404-47.87529-.60601 0-8.04836 0-16.0967 0-24.14505 42.85202 0 85.70405 0 128.55607 0 .11843 8.15212.23674 16.30422.35506 24.45633-17.30267.11378-34.60534.22752-51.90801.34128 0 8.91845 0 17.83688 0 26.75533 17.61937 0 35.23872 0 52.85808 0 .11795-8.58299.2359-17.16599.35383-25.74897 8.58297-.11796 17.16596-.23586 25.74893-.35378.21752-17.18432.43504-34.36863.65257-51.55295 8.04835 0 16.09669 0 24.14504 0 .21753 17.18432.43505 34.36863.65258 51.55295 8.91843 0 17.83688 0 26.75531 0 0-26.32028 0-52.64056 0-78.96084-8.4834-.21753-16.96678-.43505-25.45018-.65257-.21752-8.4834-.43504-16.96678-.65257-25.45018-8.4834-.21753-16.96678-.43505-25.45018-.65258-.21753-8.4834-.43505-16.96679-.65257-25.45018-8.4834-.21752-16.96678-.43504-25.45018-.65257-.11832-8.14788-.23666-16.29576-.35494-24.44364 8.60171-.11795 17.20341-.23599 25.80512-.35398 0-8.91843 0-17.83688 0-26.75532-8.91844 0-17.83688 0-26.75532 0-.11784 8.58299-.23581 17.16599-.35376 25.74898-8.583.11795-17.16601.23584-25.74901.35377-.11795 8.59563-.23588 17.19126-.35388 25.78689-25.54975-.11223-51.09949-.22447-76.64924-.3367-.21753-8.4834-.43505-16.96679-.65256-25.45019-8.4834-.21752-16.96679-.43504-25.45019-.65256-.21753-8.4834-.43505-16.96679-.65258-25.45019-8.91843 0-17.83686 0-26.7553 0 0 8.91844 0 17.83689 0 26.75532 8.48339.21753 16.96679.43505 25.45018.65258 0 8.04835 0 16.09669 0 24.14504-8.48339.21753-16.96679.43505-25.45018.65257-.21752 8.48339-.43503 16.96678-.65256 25.45018-8.4834.21753-16.96679.43505-25.45019.65258-.21753 8.4834-.43505 16.96678-.65256 25.45018-8.4834.21752-16.9668.43504-25.4502.65257 0 26.32028 0 52.64056 0 78.96084 8.91845 0 17.83688 0 26.75533 0 .21753-17.18432.43504-34.36863.65257-51.55295 8.04835 0 16.09669 0 24.14505 0 .21753 17.18432.43504 34.36863.65256 51.55295 8.48339.21751 16.96679.43503 25.45018.65256.18309 8.32256.04 16.66272.63977 24.96819 17.50742 1.4906 35.25784.28449 52.87087.482 0-4.45922 0-8.91845 0-13.37767zm-51.58375-92.83607c-.44252-7.87258-.0155-15.76637.0308-23.64747 8.04835 0 16.09669 0 24.14504 0 0 8.04835 0 16.0967 0 24.14505-8.00067-.2306-16.41303 1.11297-24.17585-.49758zm104.40535-.0148c-.43323-7.86807-.0107-15.7565.0365-23.63273 8.04835 0 16.0967 0 24.14505 0 .11844 8.15711.23676 16.31422.35513 24.47133-8.1399-.33305-16.61043.81131-24.53665-.8386z" fill="#ffedb5"/>
</svg>
