<svg height="512" viewBox="0 0 512 512" width="512" xmlns="http://www.w3.org/2000/svg">
 <path d="m438.4402 61.045092c-8.99947.150998-27.29897 1.932772-39.15877 4.06975-60.62921 10.916423-108.30138 29.456079-146.66921 56.977948-24.26894 17.4007-41.0901 35.00848-57.82497 60.47103-4.25382 6.47133-8.18408 12.39476-8.71473 13.16126-.53784.76649-7.0063 1.55743-14.37643 1.79759-14.9948.48607-15.64625.80245-37.10376 17.38632-24.38255 18.85316-50.207493 48.93767-68.341611 79.65494-11.533357 19.54343-8.547915 21.93351 19.662791 15.64481 9.105888-2.03056 19.20692-4.29121 22.46272-5.02175 21.89756-4.90671 34.02341-7.09834 34.83017-6.29014.51483.51483-.39835 4.77872-2.06076 9.46109-2.2319 6.28439-2.63024 9.64661-1.42657 12.84345.89592 2.38288 10.77261 13.53228 21.93494 24.78952l20.29124 20.50838 8.45731-1.00377c4.65073-.55654 10.71509-1.50711 13.42586-2.11397 3.80659-.85278 4.691-.61119 4.01655 1.21517-3.01133 8.15532-16.93765 76.0123-16.06761 78.27439.5853 1.52436 2.357 2.74816 3.91156 2.74816 1.55456 0 12.42353-6.32321 24.15534-14.06005 37.8041-24.9319 60.38187-46.13343 79.87065-74.99558 8.12081-12.03525 8.25167-12.47242 8.29769-25.42372l.0532-13.21447 16.54361-10.51807c38.12048-24.19848 65.23106-58.05507 88.0533-110.04146 11.10193-25.27847 17.90402-47.3184 25.42371-82.40167 3.13932-14.64535 7.13717-52.000767 5.70772-53.438841-.35952-.359519-2.33831-.526336-5.33813-.476003m-99.31341 75.900134c12.5285.0115 20.5242 4.35736 26.00039 14.11182 8.79382 15.64769 1.28995 33.9702-16.96641 41.5963-6.2887 2.62737-8.75787 2.86609-16.38542 1.42657-2.23764-.42135-8.13662-4.85925-13.10805-9.83067-8.6572-8.65721-9.04405-9.41076-9.03829-18.02339 0-10.59286 3.58655-17.35756 12.84344-24.4185 5.3899-4.11002 7.93098-4.87076 16.64859-4.86213m-215.43793 196.88677c-6.06005-.0604-19.02573 5.65451-25.899724 12.52706-8.240167 8.24017-11.304703 18.78126-12.527067 42.7065-1.369047 26.81865 1.216611 31.62326 16.332211 30.18087 3.2558-.31063 12.93548-.94338 21.45895-1.3748 21.29644-1.07712 32.10069-7.06526 39.80015-22.03993 3.88567-7.55708 6.10462-25.27416 3.38235-26.9567-3.30614-2.04351-9.62216 1.94571-15.38021 9.67248-6.75464 9.06275-14.49579 12.69101-30.28585 14.16504l-11.04729 1.00377 1.21518-11.68148c.86716-8.59824 3.17383-15.94824 8.71473-27.85406 4.14597-8.89593 7.50531-17.07857 7.50531-18.18157 0-1.47691-1.25688-2.14705-3.27737-2.16718" fill="#ffedb5" fill-rule="evenodd"/>
</svg>
