<svg viewBox="0 0 512 512" xmlns="http://www.w3.org/2000/svg">
 <path d="m372.5 114.65c-13.176 0-24.482 8.08-29.16 19.594l-64.969-15.469-26.969 76.69c-38.38.706-73.21 11.11-99.22 27.719-7.01-6.07-15.745-9.531-25.12-9.531-21.285 0-38.563 17.309-38.563 38.563 0 13.207 6.754 25.301 17.75 32.375-.674 3.859-1.063 7.735-1.063 11.688 0 37.865 31.26 70.98 77.31 88.28 8.181 3.06 8.626 3.108 15.594 5.094 17.74 4.957 37.12 7.688 57.53 7.688 19.905 0 38.917-2.669 56.31-7.375 16.982-5.198 2.143-.207 16.781-5.406 46.13-17.285 77.44-50.39 77.44-88.28 0-3.859-.357-7.501-.969-11.25 11.278-7.01 18.313-19.417 18.313-32.813 0-21.254-17.324-38.563-38.563-38.563-9.474 0-18.395 3.539-25.438 9.75-25.1-16.11-58.37-26.448-95.22-27.844l22-62.37 54.688 13.09c.031 17.333 14.15 31.406 31.531 31.406 17.38 0 31.5-14.09 31.5-31.5 0-17.364-14.12-31.531-31.5-31.531m0 12.13c10.698 0 19.375 8.724 19.375 19.406s-8.693 19.375-19.375 19.375-19.406-8.693-19.406-19.375 8.709-19.406 19.406-19.406m-245.44 99c5.396 0 10.561 1.598 14.938 4.563-15.262 11.827-26.493 26.03-32.28 41.688-5.678-4.941-9.09-12.1-9.09-19.813 0-14.588 11.819-26.438 26.438-26.438m257.78 0c14.588 0 26.531 11.85 26.531 26.438 0 7.937-3.68 15.168-9.656 20.13-5.694-15.654-16.738-29.892-31.938-41.781 4.392-3.106 9.541-4.781 15.06-4.781m-177 29.03c13.1 0 23.719 10.62 23.719 23.719 0 13.1-10.62 23.719-23.719 23.719-13.1 0-23.719-10.62-23.719-23.719 0-13.1 10.62-23.719 23.719-23.719m99 0c13.1 0 23.719 10.62 23.719 23.719 0 13.1-10.62 23.719-23.719 23.719-13.1 0-23.719-10.62-23.719-23.719 0-13.1 10.62-23.719 23.719-23.719m-101.62 77.5c1.691.024 3.401.829 4.594 2.219.361.361 13.266 14.06 45.594 14.06 32.893 0 47.31-14.249 47.44-14.406v-.094c2.337-2.29 6.163-2.321 8.563 0s2.509 6.147.219 8.563c-.706.722-17.774 17.969-56.22 17.969-38.633 0-54.17-17.45-54.813-18.19-2.18-2.541-1.791-6.382.75-8.563.941-.818 2.01-1.395 3.156-1.531.24-.028.477-.035.719-.031" fill="#ffedb5"/>
</svg>
