<svg height="512" viewBox="0 0 512 512" width="512" xmlns="http://www.w3.org/2000/svg">
 <path d="m130.71 355.03c0-7.789 2.691-14.33 8.07-19.619 5.381-5.387 11.963-8.08 19.746-8.08 7.591 0 14.03 2.694 19.313 8.08 5.381 5.289 8.07 11.83 8.07 19.619 0 7.598-2.69 14.09-8.07 19.477-5.285 5.29-11.722 7.935-19.313 7.935-7.783 0-14.365-2.645-19.746-7.935-5.381-5.291-8.07-11.783-8.07-19.477m-1.606-125.09v46.08c58.883 0 106.71 47.904 106.71 106.88h46.25c0-84.48-68.61-152.96-152.96-152.96zm.088-100.83v50.937c111.8 0 202.58 90.86 202.58 202.77h51.13c0-140.09-113.76-253.71-253.71-253.71" fill="#ffedb5"/>
</svg>
