<svg viewBox="0 0 512 512" xmlns="http://www.w3.org/2000/svg">
 <path d="m250.96 97.22c-15.13 4.174-28.312 16.354-31.658 32.577-6.81 19.716-12.481 39.821-19.03 59.63-24.868.57-49.873-1.212-74.65 1.034-26.552 6.088-39.26 46.549-17.03 65.06 18.09 15.815 38.03 29.24 56.957 43.991-6.939 25.08-16.746 49.46-21.579 75.06-1.775 29.576 37.27 52.45 59.65 31.905 17.439-12.968 34.789-26.06 52.21-39.06 20.746 14.719 40.05 31.767 61.901 44.728 24.821 11.2 56.56-14.7 49.23-42.36-5.836-23.729-14-46.818-20.855-70.28 19.893-15.691 41.19-29.613 60.02-46.654 15.01-16.78 9.437-44.28-8.03-56.705-15.673-10.608-35.01-5.602-52.63-6.719h-34.776c-8.171-24.493-14.861-49.618-23.976-73.71-2.889-10.98-21.554-18.528-35.776-18.528zm4.889 65.877c6.695 19.845 10.547 40.96 19.248 59.93 11.958 15.814 32.447 11.82 49.49 12.265h31.949c-17.12 13.215-35.26 25.05-51.644 39.26-1.778 1.235-4.776 14.155-3.255 6.02-7.784 13.57 1.638 28.31 4.79 41.914 3.51 11.442 7.02 22.885 10.531 34.33-16.75-11.869-31.938-26.616-49.784-36.502-12.779-3.953-26.983-.823-36.494 8.904-11.979 9.199-23.959 18.399-35.938 27.6 5.619-20.411 13.708-40.31 17.635-61.08.464-13.473-7.133-25.754-18.622-31.806-12.865-9.543-25.73-19.09-38.596-28.629 20.916-.538 42.01 1.123 62.81-.929 12.597-3 20.603-14.672 23.02-27.13 4.953-14.712 9.909-29.425 14.861-44.14" fill="#ffedb5"/>
</svg>
