<?xml version="1.0" encoding="UTF-8" standalone="no"?>
<svg xmlns="http://www.w3.org/2000/svg" width="48" height="48" version="1.1">
 id=&quot;defs8&quot; /&gt;
 <path d="m 31.745155,6.4745772 c -0.472193,0 -0.940219,0.1762978 -1.300396,0.5264225 L 10.961635,26.08954 c -0.191847,0.203209 -0.331512,0.444728 -0.410651,0.709527 L 6.5585406,39.204329 c -0.1628682,0.503612 -0.085833,1.042013 0.2053256,1.487716 0.291159,0.445706 0.7619847,0.752698 1.3003959,0.823966 0.3118737,0.03187 0.6240346,-0.01797 0.9125585,-0.137327 L 20.292546,37.121527 c 0.223616,-0.09392 0.423964,-0.241707 0.593163,-0.411983 L 40.98481,17.231909 c 0.720818,-0.6998 0.720819,-1.840761 0,-2.540562 L 33.068365,7.0009997 C 32.708187,6.650875 32.217348,6.4745772 31.745155,6.4745772 Z m -19.620008,21.1484558 3.96963,0.434871 3.51335,3.410302 0.433465,3.410303 -7.323282,3.135648 -2.9201868,-2.998321 z" style="fill:#ffedb5;stroke-width:0.79661018"/>
</svg>
