<?xml version="1.0" encoding="UTF-8" standalone="no"?>
<svg xmlns="http://www.w3.org/2000/svg" height="512" viewBox="0 0 512 512" width="512" version="1.1">
 id=&quot;defs28&quot; /&gt;
 <g transform="matrix(1.4191496,0,0,1.4191496,-103.10406,-203.48781)" style="fill:#ffedb5;fill-rule:evenodd">
  <path d="m 132.98,280.02 c -0.11,0 -0.204,0.089 -0.204,0.192 l 0,127.9 c 0,0.103 0.094,0.192 0.204,0.192 l 240.13,0 c 0.11,0 0.204,-0.089 0.204,-0.192 l 0,-127.9 c 0,-0.103 -0.094,-0.192 -0.204,-0.192 l -87.7,0 0,1.785 c 0,0.248 -0.011,0.498 -0.029,0.741 0.004,0.098 0,0.203 0,0.302 l 0,9.143 c 0,5.631 -4.827,10.187 -10.795,10.187 l -43.09,0 c -5.967,0 -10.766,-4.555 -10.766,-10.187 l 0,-9.143 c 0,-0.171 -0.008,-0.353 0,-0.522 -0.004,-0.072 0.002,-0.147 0,-0.22 -0.003,-0.101 -0.029,-0.201 -0.029,-0.302 l 0,-1.785 -87.73,0"/>
  <path d="m 248.81,239.27 c -35.463,0.02 -69.51,0.067 -115.83,0.11 -0.11,0 -0.204,0.022 -0.204,0.055 l 0,20.538 c 0,0.033 0.094,0.055 0.204,0.055 l 87.73,0 0,-3.515 c 0,-5.586 4.759,-10.1 10.678,-10.1 l 43.35,0 c 5.92,0 10.678,4.518 10.678,10.1 l 0,3.515 87.7,0 c 0.11,0 0.204,-0.022 0.204,-0.055 l 0,-20.538 c 0,-0.033 -0.094,-0.055 -0.204,-0.055 -51.974,-0.124 -88.84,-0.13 -124.3,-0.11"/>
 </g>
</svg>
