<svg height="512" viewBox="0 0 512 512" width="512" xmlns="http://www.w3.org/2000/svg" xmlns:xlink="http://www.w3.org/1999/xlink">
 <g fill="#ffedb5" transform="matrix(1.4833257 0 0 1.4833257 -123.73185 -932.00856)">
  <g transform="translate(-36.908 -71.02)">
   <path id="a" d="m322.59 728.3c-.238.013-.493.06-.75.094-1.423.185-2.945.838-3.406 1.469-.636.87-.844 5.607-.844 19.625 0 41.513-.66 69.39 0 92.16 0 15.297.204 20.312.844 21.19.461.631 2.048 1.301 3.531 1.5 2.245.301 3.332.02 6.5-1.781 30.782-20.631 54.33-36.34 87.53-58.53 4.671-2.625 6-4.335 6-7.688 0-3.983-.765-4.699-14-13.03l-79.78-53.22c-2.621-1.409-3.957-1.872-5.625-1.781"/>
   <rect id="b" fill-rule="evenodd" height="55.56" rx="25" width="184.35" x="163.82" y="768.58"/>
  </g>
  <g transform="matrix(-1 0 0 1 548.91 80.11)">
   <use height="1" width="1" xlink:href="#a"/>
   <use height="1" width="1" xlink:href="#b"/>
  </g>
 </g>
</svg>
