<?xml version="1.0" encoding="UTF-8" standalone="no"?>
<svg xmlns="http://www.w3.org/2000/svg" height="512" viewBox="0 0 512 512" width="512" version="1.1">
 id=&quot;defs38&quot; /&gt;
 <g transform="matrix(-1.077491,1.6347889,-1.6347889,-1.077491,275.91416,841.38303)">
  <path d="m -243.21,87.2 c -32.437,0 -60.892,17.387 -76.886,43.26 l -12.744,-15.368 c -0.129,-0.075 -0.288,-0.082 -0.425,-0.138 -1.819,-1.932 -5.723,-0.761 -6.23,1.85 l -13.03,75.986 c -0.461,2.134 1.508,4.442 3.682,4.412 l 16.283,-4.127 c 7.08,43.11 44.491,76.13 89.35,76.13 49.881,0 90.62,-40.799 90.62,-90.93 0,-50.13 -40.74,-91.07 -90.62,-91.07 z m 11.04,27.595 c 4.759,0.063 9.756,0.977 15.01,2.561 27.508,10.529 47.01,29.514 47.01,60.912 0,40.644 -32.62,73.42 -73.06,73.42 -36.925,0 -67.2,-27.347 -72.21,-63.04 l 40.496,-10.388 c 2.635,-0.082 4.408,-3.711 2.832,-5.834 l -16.425,-12.38 c 0.353,-1.381 -5.11,-5.173 16.834,-28.633 10.352,-11.07 24.23,-16.795 39.521,-16.627" style="fill:#ffedb5"/>
  <g style="fill:none;stroke:#ffedb5;stroke-width:9.07999992;stroke-linecap:round;stroke-linejoin:round">
   <path d="m -243.21,118.73 v 9.277"/>
   <path d="m -243.21,228.11 v 10.374"/>
   <path d="m -183.59,178.27 h -9.06"/>
  </g>
  <path d="m -193.85,137.96 c -0.286,0.063 -0.57,0.075 -0.85,0.144 -1.062,0.138 -2.09,0.534 -2.974,1.139 l -48.09,32.475 c -4.184,1.573 -5.624,7.842 -2.549,11.1 v 0.138 c 0.138,0.101 0.28,0.195 0.425,0.283 0.044,0.063 0.094,0.094 0.141,0.144 0.138,0.101 0.28,0.195 0.425,0.283 0.044,0.063 0.094,0.094 0.142,0.144 0.138,0.101 0.28,0.195 0.425,0.283 0.044,0.063 0.094,0.094 0.142,0.144 l 0.142,0.138 c 0.093,0.063 0.188,0.094 0.283,0.144 h 0.142 l 31.15,17.929 c 3.114,1.788 7.566,0.565 9.345,-2.561 1.779,-3.129 0.565,-7.603 -2.549,-9.391 l -22.09,-12.664 40.16,-27.21 c 2.557,-1.559 3.847,-4.947 2.979,-7.823 -0.868,-2.876 -3.814,-4.973 -6.802,-4.841 z" style="fill:#ffedb5"/>
  <path d="m -238.68,178.27 -27.19,50.09" style="fill:none;stroke:#ffedb5;stroke-width:4.54199982;stroke-linecap:round"/>
 </g>
</svg>
