<svg xmlns="http://www.w3.org/2000/svg" height="512" width="512">
 <path d="M252.17 139.15c-2.894.08-5.77.332-8.593.715-24.003 3.257-43.934 16.568-55.143 36.806-10.28 22.06-6.968 20.577-7.95 70.69-1.092 55.717-1.418 58.852-6.373 66.82-7.17 11.534-15.658 16.503-28.432 16.688-11.628.17-19.614-4.287-28.076-15.613-4.542-6.083-4.743-9.59-5.37-90.953l-.717-84.656H67.9l.715 87.733c0 75.303-4.57 75.513 8.236 103.06 17.273 35.068 58.397 50.758 97.118 37.093 12.36-4.36 28.082-16 34.95-25.927 11.576-16.73 12.82-24.335 12.82-80.288 0-49.343.258-52.435 5.157-62.017 7.132-13.956 15.466-19.55 29.22-19.55 12.83 0 21.483 5.312 28.648 17.475 4.322 7.34 4.588 12.532 5.228 91.962l.717 84.224h41.038v-79.64c.008-45.194 1.01-83.12 2.29-87.733 5.52-16.35 20.898-23.96 32.086-23.992 15.886.56 27.36 8.23 32.087 23.992 1.28 4.61 2.212 42.54 2.22 87.734l.072 79.64h41.252v-87.805c0-98.01-.41-100.803-15.398-118.314-22.835-26.677-61.03-34.746-93.746-19.766-7.354 3.367-15.222 7.773-17.476 9.81-3.79 3.433-4.488 3.35-9.234-1-12.153-11.134-33.45-17.757-53.715-17.184" fill="#ffedb5" fill-rule="evenodd"/>
</svg>
