<svg viewBox="0 0 512 512" xmlns="http://www.w3.org/2000/svg">
 <path d="m100.62203 81.2274c-8.458251.189768-18.483939 1.019081-29.759139 2.426324-16.459326 2.056646-18.57019 3.150895-18.57019 10.024454 0 6.719532 2.130581 7.976432 15.616459 9.497052 8.779869.98951 18.167246 4.47804 21.631128 8.01956 10.42248 10.6566 50.235642 78.37188 72.912962 124.08881l21.52516 43.47421v58.45853c0 56.80729-.21687 58.65075-7.59689 63.83735-4.17861 2.93648-13.29488 6.87478-20.25963 8.75768-9.16433 2.47685-12.66149 5.23096-12.66149 10.02446 0 6.34738 2.67154 6.64805 64.15157 6.64805 61.48372 0 64.15158-.30067 64.15158-6.64805 0-4.7935-3.49717-7.54638-12.6615-10.02446-6.96474-1.8829-16.08103-5.8212-20.25962-8.75768-7.3714-5.18167-7.5969-7.00049-7.5969-62.67779v-57.40125l18.04402-34.50334c9.95667-18.93864 28.89654-55.75987 42.10639-81.88382 13.20493-26.12397 26.8547-50.07791 30.28285-53.18445 3.42939-3.10283 12.21542-7.71643 19.52027-10.23517 9.16064-3.159521 13.60417-6.799624 14.35093-11.817398 1.0659-7.185321.44977-7.280204-51.70326-7.280204-51.73161 0-52.76055.12569-51.70327 7.069488.72457 4.762694 5.25314 8.533419 13.92827 11.501944 7.10276 2.43002 13.93935 5.48356 15.19502 6.75279 2.65429 2.68634-60.98466 128.30315-64.99814 128.30315-1.47994 0-13.75205-21.68905-27.33158-48.21843-26.55648-51.90288-52.22327-95.056708-60.88608-102.245726-3.60067-2.988236-13.338-4.326473-27.43508-4.009781m308.21344 216.520807l-28.60081 81.35396h18.46545l5.9087-19.30956h29.54472l5.9087 19.30956h18.46545l-28.70062-81.35396h-20.99775m-158.59216.31669v81.03727h17.19992v-28.8066h7.2802c10.0565 0 17.88383-2.34253 23.31934-6.96351 5.47247-4.62221 8.1243-11.21728 8.1243-19.94293 0-8.39295-2.5631-14.77852-7.70287-18.99287-5.1028-4.2513-12.53457-6.33136-22.36556-6.33136h-25.85163m71.43547 0v81.03727h17.19992v-28.8066h7.28021c10.05649 0 17.88382-2.34253 23.31933-6.96351 5.47247-4.62221 8.12431-11.21728 8.12431-19.94293 0-8.39295-2.56311-14.77852-7.70287-18.99287-5.1028-4.2513-12.53457-6.33136-22.36557-6.33136h-25.85162m97.70607 12.24007c.29575 1.33084.81206 3.08927 1.47749 5.38129.70239 2.29201 3.74484 12.26717 9.18035 29.75913h-21.10866c5.76822-18.66878 9.22595-30.40484 10.44589-35.13673m-151.95026 1.79418h7.80884c4.69615 0 8.05407 1.0314 10.23518 2.95496 2.21807 1.92233 3.37639 4.83293 3.37639 8.86367 0 3.99376-1.27908 7.07318-3.90381 9.18035-2.62471 2.0702-6.63572 3.05971-11.92337 3.05971h-5.592v-24.05746m71.43547 0h7.80885c4.69616 0 8.05407 1.0314 10.23517 2.95496 2.21807 1.92233 3.37641 4.83293 3.37641 8.86367 0 3.99376-1.2791 7.07318-3.90381 9.18035-2.62473 2.0702-6.63574 3.05971-11.92337 3.05971h-5.59201v-24.05746" fill="#ffedb5" fill-rule="evenodd"/>
</svg>
