<svg height="512" viewBox="0 0 512 512" width="512" xmlns="http://www.w3.org/2000/svg">
 <path d="m490.30678 256.00699c0 129.40454-104.90024 234.30479-234.30478 234.30479-129.40454 0-234.304785-104.90025-234.304785-234.30479 0-129.40453 104.900245-234.304784 234.304785-234.304784 129.40454 0 234.30478 104.900254 234.30478 234.304784" fill="#b59a6e" fill-rule="evenodd"/>
 <path d="m256 103.5c-84.01 0-152.44 68.43-152.44 152.44 0 84.01 68.43 152.56 152.44 152.56 84.01 0 152.44-68.55 152.44-152.56 0-84.01-68.43-152.44-152.44-152.44m-16.14 33.539v102.89h-103.01c7.112-53.648 49.35-95.77 103.01-102.89m32.28 0c53.622 7.146 95.78 49.26 102.89 102.89h-102.89zm-135.29 135.16h103.01v102.89c-53.602-7.125-95.83-49.3-103.01-102.89m135.29 0h102.89c-7.176 53.56-49.32 95.73-102.89 102.89z" fill="#ffffff"/>
 <circle cx="256" stroke="#fefefe" cy="256" r="181.13" stroke-width="18.771" fill="none"/>
</svg>
