<svg width="512" height="512" version="1.1" viewBox="0 0 512 512" xmlns="http://www.w3.org/2000/svg">
 <path d="m471.95 253.05c0 120.9-98.01 218.9-218.9 218.9-120.9 0-218.9-98.01-218.9-218.9 0-120.9 98.01-218.9 218.9-218.9 120.9 0 218.9 98.01 218.9 218.9" fill="#2ab1d0" fill-rule="evenodd"/>
 <path d="m236.07 136.94c-8.0034 0.36622-18.148 2.0287-33.37 6.6349h-0.38963s-24.377 10.138-37.077 21.271l-0.19481-0.19545c-1.4999 1.0125-2.8121 2.5941-4.8786 4.6834s-4.4802 4.5796-6.8301 7.0252c-2.3499 2.4456-4.7106 4.7594-6.4398 6.4398-0.86459 0.84017-1.4889 1.57-1.9514 1.9515-0.13915 0.11448-0.12713 0.14548-0.19544 0.19481-0.0443 0.0316-0.20367 5e-3 -0.19545 0-1.2785 0.0443-2.5741-0.0253-3.5126 0.19482h-0.19481c-7.391 1.9978-9.2152 8.3202-9.5621 9.562h-0.19482l-0.19481 0.58571c-1e-3 6e-3 0 0.19481 0 0.19481v0.58508l-0.39026 4.4884c-1.8009 1.2858-4.8502 3.8067-5.0738 9.1718-0.10499 2.5151 1.1195 4.1546 2.1466 5.8543-1.2231 1.6408-3.0125 4.0737-5.2689 9.5621-3.2209 7.8346-6.5219 19.922-6.6349 36.882-0.14294 21.475 5.8927 35.971 11.904 45.078 6.0204 9.1212 12.489 13.075 12.489 13.075l0.19481 0.19482 2.1466 1.1708 0.78059-0.58571c0.537 0.0816 1.0184 0.11259 1.7563 0.19481 2.2992 0.25617 5.3674 0.47565 8.9766 0.19482 3.5027-0.27135 6.0781-2.6152 8.3912-5.0738 2.3287-2.475 4.4794-5.3883 6.4398-8.3912 3.1171-4.7746 4.7834-8.2627 5.6592-9.9524l66.739-0.78052c0.65933 0.77223 1.2333 1.5814 1.9514 2.3417 0.0652 0.0689 0.12966 0.1265 0.19481 0.19481 3.2289 3.9374 8.3204 8.6217 16.002 13.855 5.2981 3.6098 10.852 7.3664 21.466 11.709 29.462 12.053 62.349-2.601 62.641-2.732 5e-3 -2e-3 0.18786 3e-3 0.19482 0l1.9515-0.78059v-0.19481c2.7492-1.1144 10.439-4.4466 20.1-12.684 11.388-9.7113 23.778-25.498 27.32-48.981 0.3561-2.3621 0.62682-4.604 0.78058-6.8301 0.0127-0.15876-0.019-0.27957 0-0.58571 0.18849-2.3921 0.26945-5.0917 0.19481-7.8058-0.16318-5.9301-0.75231-11.856-2.1466-15.807-0.17015-0.48261-0.44276-0.78312-0.58571-1.1708-0.019-0.0645 0.019-0.13093 0-0.19481-2.4345-8.9024-6.3673-16.317-10.343-22.246-0.0316-0.0506 0.0316-0.14485 0-0.19481h-0.19482c-4.5265-7.2529-9.1375-11.844-14.05-15.807l-0.19482-0.19545c-0.11638-0.0955-0.0924-0.11195-0.19481-0.19481-0.10247-0.0835-0.10563-0.12334-0.19482-0.19482l3.5126-1.366-0.97571-1.1708h0.97571l0.19482-0.78059 8.0009 0.58571-6.4398-4.2932 0.19545-0.78058-1.9514-1.5612c-9.5675-6.4371-19.021-12.785-32.199-19.905v-0.19481h-0.19482l-0.19544-0.19545h-0.77989l-0.97572-0.19481-0.39026-0.19482c-6.0222-3.2118-12.189-4.7201-18.148-7.0252v-2.3417l-0.97572 1.9514c-16.735-6.3382-34.276-10.846-60.885-13.855h-1.5608l-9.1718-0.39026h-0.58508c-2.2918-0.10753-4.7476-0.12208-7.4155 0zm1.1708 24.198c5.4036 0.0677 10.699 0.57875 15.612 1.5612 6.1194 1.2239 10.156 3.8924 13.465 6.635 0.62872 0.54586 1.1922 1.009 1.7563 1.5611 1.4863 1.4163 2.8906 2.551 4.098 3.9029-3.3012 1.3948-6.628 2.8895-9.3669 4.4883-7.2857 4.2531-12.117 8.4331-12.294 8.5864-3.4625 0.21759-7.812 0.86958-13.465 1.7563-6.904 1.0829-14.969 2.4667-22.637 3.9029-13.6 2.5472-23.32 4.5317-25.954 5.0738-0.35926-2.1115-1.0523-4.811-0.5857-10.538 0.61417-7.5322 3.0522-15.6 10.343-19.71 3.9826-2.2447 12.855-4.9112 23.027-6.2447 5.0865-0.66686 10.598-1.0431 16.002-0.97572zm-44.688 3.5126c-7.8224 5.9719-11.265 14.997-11.904 22.832-0.71152 8.7267 0.97571 16.002 0.97571 16.002l0.58571 3.1223 1.9514-0.58571 1.366 0.19481 20.49 2.1466h1.1702v-0.19482l32.589-7.2204c-1.7864 2.6121-3.7368 4.7524-5.2689 7.8058-2.4145 4.8122-4.385 10.28-5.8543 15.807-0.6907 0.72385-4.4956 4.8514-8.5864 10.343-0.25933 0.34851-0.52815 0.62429-0.78059 0.97571l-0.39026 0.39027-9.1718 7.2203-35.907 4.0981h-0.38963l-2.1466 0.19481-0.58571 1.9514-0.19545 0.19545v0.19481l-8.5863 26.93-0.19544 0.58571c-2.0286-1.0434-4.2052-3.5536-4.6834-4.0979l-0.19481-56.006v-1.3657l-0.58571-0.78053h-0.19482v-0.19481l-12.099-17.953c2.1807-2.8499 13.982-17.454 36.687-28.296 3.5916-1.7151 7.8372-2.9144 11.904-4.2932zm151.24 19.319h1.9511l10.538 0.97577-1.1708 0.39027 1.1708 1.9514h-0.38995l1.7563 4.098 0.19482 0.58571v0.19544s0.7907 1.916 1.366 3.9029c-6.6157-1.6092-12.909-0.72106-18.344 0.97572-2.3208-6.2436-6.2446-11.514-6.2446-11.514l-0.58571-0.78059 0.58571-0.19481c0.14358-4e-3 0.40038 6e-3 0.5857 0 0.12334-5e-3 0.24795 6e-3 0.39026 0 0.71829-0.0379 1.5187-0.12461 2.5369-0.19482 1.973-0.13725 4.1909-0.23213 5.6592-0.39026zm-74.74 5.4641c0.21126-0.0127 0.37445 5e-3 0.58571 0-2.578 0.83486-5.2963 2.1764-8.0009 3.9029l-1.7563-1.1708c3.122-1.2656 6.2699-2.5904 9.1718-2.732zm-8.3912 4.2932c-0.26565 0.1809-0.51487 0.19987-0.78058 0.39026-10.449 7.4963-19.977 24.776-22.051 48.786-1.3099 15.162 1.5587 36.632 14.636 50.933 4.5977 5.0279 9.8859 7.4313 15.026 8.7815-5.1513 0.71639-10.419 0.11069-15.612-4.4883-1.1663-1.0328-2.2824-2.048-3.3175-3.1223-0.0633-0.0652-0.13283-0.1303-0.19482-0.19482-0.37698-0.45414-0.59646-0.92606-0.97571-1.366l-0.58571-0.78058c-3.9509-4.5862-7.0353-9.2684-8.9766-14.05-0.019-0.0443 0.019-0.14738 0-0.19481-0.1246-0.4902 0.0127-1.0936-0.19481-1.366-0.32385-0.41873-0.21189-0.2334-0.39026-0.39026-4.2483-11.773-3.9014-23.55-4.0981-32.784-0.23213-10.907 2.9032-22.427 7.6107-31.809 2.8482-5.6764 6.3716-10.576 9.7572-14.05 1.3495-1.3831 2.6101-2.6084 3.9029-3.5126l0.39026-0.19482 0.39026-0.39026h0.39026l5.0737-0.19481zm16.587 1.1708c0.47882-0.0316 0.92657 0 1.366 0 3.0903-3e-3 5.594 0.78899 6.6349 1.366 2.1536 1.1938 3.9704 2.6056 5.6592 4.2932 0.0652 0.0652 0.13093 0.12966 0.19481 0.19481 5.4713 7.3675 8.7644 16.621 10.538 25.174 0.70481 3.3996 1.0696 6.5375 1.366 9.5621 0.29854 6.5894-0.39532 11.675-0.58571 14.246-0.67825 9.1721-1.8594 25.291-15.026 42.151-0.0443 0.0569 0.0443 0.14042 0 0.19481-0.4162 0.50728-0.93031 1.0597-1.366 1.5612-0.34219 0.39343-1.7433 1.4201-3.7078 2.1466-1.9644 0.72644-4.4926 1.1596-7.2203 1.1708-5.4826 0.019-11.8-1.7174-17.368-7.8058-10.973-11.999-14.055-31.866-12.88-45.469 1.933-22.374 11.554-38.141 19.319-43.712 4.8738-3.4967 9.3273-4.8191 13.075-5.0738zm-27.515 2.5369 0.58571 0.58571-0.78058 0.58571c1.9e-4 -1.3e-4 -0.39216 0.13409-0.58571 0.19481-0.0569 0.019-0.19545 0-0.19481 0 1.2e-4 -6e-5 -0.13157-4e-3 -0.19482 0 0.0848-0.0955 0.11006-0.29665 0.19482-0.39026 0.0506-0.0569 0.14168-0.13726 0.19481-0.19481l0.78052-0.78053zm-105.18 13.66 5.0737 7.4155 0.19545 34.736-0.19545-0.39027c-0.22011-3.8214-1.0457-5.5241-1.5611-8.3912l-0.19481-0.58571-0.19545-1.1708c-0.0127-0.0633 0.0127-0.13536 0-0.19482-0.019-0.10942 0.019-0.28273 0-0.39026l-0.19481-0.97571c-0.11765-0.54713-0.2606-0.85377-0.39026-1.366-0.54523-1.859-0.59457-4.9952-1.366-6.4398-1.7848-3.3425-4.6494-5.2216-7.6107-6.2446l-0.19481-6.2446c0.59329-0.28526 0.8666-0.27451 1.5612-0.78058 2.2085-1.6082 4.4425-4.542 5.0738-8.9767zm-7.8058 0.39027c-0.48007 1.103-0.93118 2.2733-1.5612 2.732-0.0822 0.0633-0.11575-0.0506-0.19481 0-0.51803-0.48134-1.3705-1.0749-1.5612-1.366-0.11385-0.17331-0.10626-0.73378-0.19482-0.97572l1.1708-0.19481h0.39026l1.9514-0.19482zm139.72 16.197 0.19481 0.78058c-1.3479 0.49147-3.0822 1.1276-4.8786 2.3417-3.8045 2.5709-7.8463 7.3359-9.1718 14.636h-0.19482v0.39026l-0.19481 0.39026 0.19481 0.78058c0.0127 0.0709-0.0127 0.12461 0 0.19482 1.787 11.99 11.514 18.148 11.514 18.148h0.19482l0.19481 0.19482h0.19482v0.19481s4.5383 1.7512 9.367 0c2.4276-0.8785 4.7564-2.8165 6.4398-5.8544 1.6796-3.0311 2.6538-7.078 2.732-12.489 0.14042-9.6944-2.656-14.912-6.2446-17.563v-0.19482c-1.5129-1.0502-3.433-1.4312-5.2689-1.5612-3.2e-4 -2.5e-4 -0.58508-0.19481-0.58571-0.19481-6e-5 -6e-5 -0.13789 6e-3 -0.19481 0v-0.19482c-0.0683-0.019-0.0955 0.0126-0.19482 0h-4.0982zm33.37 2.3417c27.055 6.6542 54.886 12.627 75.716 30.247-7.0456 41.36-42.911 54.983-44.103 55.421h-0.58571v0.19482s-0.19354-5.7e-4 -0.19481 0c-0.29602 0.12523-31.224 13.419-56.982 2.9272l-0.19482-0.19545c-8.3978-3.4355-13.628-6.2446-18.148-8.9767 3.2356-0.0569 6.5306-0.0506 9.3669-0.97571 4.7893-1.5578 6.8847-3.8091 9.9524-6.0495 0.14168-0.1031 0.25301-0.28716 0.39026-0.39026 0.0443-0.0316 0.15307 0.0316 0.19482 0 0.22011-0.16635 0.57179-0.22518 0.78058-0.39026v-0.19482c1.5242-1.2107 4.6029-2.3473 5.464-3.3174 16.999-19.153 17.638-38.863 18.734-47.81 0.31626-2.5814 0.88754-8.4059 0.19481-15.612-2e-3 -0.0645 2e-3 -0.1303 0-0.19482-0.0506-1.5693-0.4358-3.1316-0.5857-4.6834zm-176.41 3.1223h0.97597c2.3563 0.14421 3.3266 0.60595 4.8786 3.5126 0.45351 0.84884 0.95725 2.3476 1.366 3.7077-0.6835 0.37509-1.0413 0.30804-1.7563 0.97572-2.5559 2.3858-4.7929 6.5964-5.0738 13.465v0.58444c0.66945 5.923 2.4999 9.5424 4.4884 11.709 0.26881 0.29285 0.50791 0.34978 0.78052 0.58571-0.81974 1.7166-1.6303 3.6816-2.3417 4.4883-0.98521 1.1171-1.8858 1.5608-2.3418 1.7563-0.12271 0.0506-0.22328 0.16002-0.19481 0.19481h-3.3178v10.147c-1.4376-4.4909-2.5712-10.004-3.1223-16.782-1.3085-16.095 2.4232-27 5.6592-34.345zm146.94 1.5612c0.0854-5e-3 0.11511-5e-3 0.19481 0 0.58571 0.0253 1.4632 0.39785 2.3417 0.78059 1.2695 0.99469 3.241 3.6945 3.1223 11.904-0.0664 4.6222-0.84567 7.5285-1.7563 9.1718-0.91689 1.6546-1.9316 2.1766-2.9272 2.5369-0.95996 0.34725-2.0699 0.30171-2.9272 0.19482-0.24731-0.0316-0.39215 0.038-0.5857 0 0.0923 0.0569-0.32891-0.15244-0.39026-0.19482-0.13789-0.0961-0.30298-0.18975-0.78059-0.5857-0.68982-0.5718-1.556-1.3966-2.5369-2.5369-1.8838-2.1901-3.7839-5.4934-4.4883-9.5621 1.0208-5.0363 3.697-8.0356 6.2446-9.7572 1.3258-0.89596 2.6268-1.4502 3.5127-1.7563 0.33903-0.11828 0.66869-0.18153 0.97572-0.19482zm-53.665 3.1223c-0.16382 2.0876-0.62998 4.1506-0.58571 6.2447 0.13662 6.4162 0.45541 15.091 2.1466 24.393-0.15623-0.15623-0.2334-0.23087-0.39026-0.39026-1.7776-1.8055-3.3561-3.7129-4.8786-5.6592-0.99197-1.3576-1.8783-2.4968-2.5369-3.7077-0.95497-1.7047-2.0571-3.5642-2.1466-4.4884-0.11702-1.2116 0.57305-3.6704 1.9514-6.4398 1.3834-2.7802 3.3847-5.9903 5.464-8.7815 0.38457-0.51613 0.59393-0.67938 0.97572-1.1708zm-15.026 12.489h0.78052c-0.35927 1.509-1.3213 2.9341-1.1708 4.4883 0.66977 6.9171 6.4099 13.16 11.514 18.344 3.5342 3.5898 6.7828 6.3028 8.5864 7.8058 1.2316 3.0789 3.1692 6.1236 5.0738 9.1718l-70.447 0.78059c0.42062-1.1001 1.0297-2.2292 0.97572-3.3174-0.0879-1.6965-0.57559-3.0409-1.1708-4.2932l-0.19545-0.39026v-0.19481c0.77471-0.55219 2.1204-0.62239 2.5369-1.366 0.53005-0.94624 0.33966-1.4497 0.39026-2.1466h0.19481l8.0009-24.783 34.931-4.098zm-69.471 0.78058c0.0816 0.99621 0.3327 1.6339 0.39026 2.732-6e-3 0.0778 6e-3 0.11765 0 0.19481-0.17078 1.4372-0.36876 2.2716-0.58571 3.5126-0.31183-0.98717-0.76363-0.9601-0.97572-2.5369 8.3e-4 -0.0443 6e-3 -0.0987 0-0.19481 0.14864-2.2824 0.7229-2.4999 1.1708-3.7077zm7.6106 3.3175 0.19482 20.685v1.1709l0.58571 0.78059v0.19481c2e-3 3e-3 0.19165-6e-3 0.19481 0 0.13852 0.22328 1.6247 1.9096 3.9029 3.9029v1.7563c-0.38962 0.49589-0.81404 0.97129-0.97571 1.366-0.44023 1.0794-0.58571 2.0987-0.58571 3.3174 0 1.2188 0.14485 2.4332 0.58571 3.5126l-15.807 0.19482v-11.123c1.2729-0.62429 2.6301-1.653 4.0981-3.3175 3.2445-3.6791 6.2276-10.325 7.6106-22.051 0.019-0.16888 0.17584-0.21885 0.19545-0.39026zm43.712 0.97571c-1.5685 0.038-3.1246 0.17015-4.4884 0.39026-3.1789 0.5136-5.6592 1.366-5.6592 1.366l-0.78058 0.19482v0.19481l-0.39026 0.39026c-1.298 0.90943-2.8072 2.1024-4.098 4.098-1.4183 2.1929-2.5404 5.3245-1.9515 8.7815 0.71638 4.2044 2.6176 7.1758 4.6835 9.1718 1.9674 1.901 3.8587 2.9938 5.2689 4.098 0 0 0.1322 0.15939 0.19482 0.19482 0.26375 0.1499 0.93283 0.57115 0.97571 0.5857 0.0506 0.019 0.10753-0.0253 0.19482 0 0.0879 0.0253 0.21821-0.038 0.39026 0 0.086 0.019 0.22138 0.17647 0.39026 0.19482 0.0847 0.0127 0.24921-1e-3 0.39026 0h0.19481c0.0879-6e-3 0.12271 6e-3 0.19482 0 0.0443-6e-3 0.14548 0.0127 0.19481 0 0.28021-0.0569 0.6148-0.19355 0.97572-0.39026 0.0816-0.0443 0.12334-0.14738 0.19481-0.19482-3e-3 2e-3 0.34029-0.1556 0.39026-0.19544 0.1594-0.15687 0.50412-0.69919 0.19482-0.39027-0.0443 0.0443 0.22201-0.0127 0.39026-0.19481 0.18216-0.19545 0.34472-0.30487 0.58571-0.58571 0.45604-0.53194 0.98147-1.3672 1.7563-2.3417 1.5231-1.9158 3.4872-4.4896 5.2689-7.2204 1.7852-2.7359 3.4329-5.6014 4.2932-8.3912 0.42505-1.3785 0.72992-2.8144 0.39026-4.4883-0.36686-1.8072-1.5926-3.5943-3.5126-4.2932-1.9124-0.69589-3.999-0.96427-5.8544-0.97572h-0.78059zm0.78052 7.2203c0.84934 6e-3 1.459 0.0633 2.1466 0.19482-0.0253 0.11638 0.038 0.0632 0 0.19481-0.47501 1.5399-1.7181 4.1838-3.3175 6.635-1.6051 2.4599-3.4598 4.8504-4.8786 6.6349-0.10942 0.13788-0.0911 0.26059-0.19481 0.39026-0.78647-0.56484-1.7859-1.2192-2.3418-1.7563-1.1837-1.1436-2.0294-2.2906-2.5369-5.2689-0.23972-1.4078 0.24731-2.5806 0.97571-3.7077 0.65364-1.0106 1.5504-1.7166 2.1466-2.1466 0.31436-0.0917 1.6798-0.6167 3.9029-0.97578 1.3164-0.21252 2.7772-0.20367 4.0981-0.19545zm-28.101 35.321c-1.1176 2.0063-1.7715 3.3826-3.5126 6.0495-1.825 2.7956-3.8134 5.4537-5.6592 7.4155-1.832 1.9471-3.605 2.9344-3.5126 2.9272-3.0279 0.23529-5.832 0.0253-7.8058-0.19482-1.0037-0.11195-1.8052-0.30171-2.3418-0.39026-0.0632-0.0127-0.13662 0.0126-0.19481 0-0.13789-0.086-3.5827-3.7951-6.4398-6.8301l3.9029 1.7563v-1.5612c1.2829 0.0506 2.4807 0.25111 4.4883 0 4.2807-0.53511 7.168-3.6368 9.367-6.0495 1.1781-1.2926 1.7084-2.0446 2.3418-2.9272l9.3669-0.19544zm-19.71 0.19482c-0.88033 0.59772-1.9139 1.7028-2.3418 1.7563-2.4056 0.30107-3.7465 0.28779-4.4883 0.19481-0.28653-0.2783-0.94947-1.2825-1.366-1.7563z" fill="#ffffff" stroke-width="6.3251"/>
<circle cx="256" stroke="#fefefe" cy="256" r="181.13" stroke-width="18.771" fill="none" /></svg>
