<svg height="512" viewBox="0 0 512 512" width="512" xmlns="http://www.w3.org/2000/svg">
 <path d="m471.95 253.05c0 120.9-98.006 218.91-218.91 218.91s-218.91-98.006-218.91-218.91 98.006-218.91 218.91-218.91 218.91 98.006 218.91 218.91" fill="#e24a4a" fill-rule="evenodd"/>
 <path d="m37.625 213.91c-2.2939 12.704-3.5 25.791-3.5 39.156 0 25.55 4.3925 50.048 12.438 72.844h412.94c8.0448-22.796 12.438-47.295 12.438-72.844 0-13.365-1.1747-26.452-3.4688-39.156h-430.84z" fill="#34e364"/>
 <path d="m253.03 34.156c-120.9 0-218.91 98.009-218.91 218.91 0 1.4379.0349 2.85.0625 4.2812h437.69c.0276-1.4312.0625-2.8434.0625-4.2812 0-120.9-98.009-218.91-218.91-218.91z" fill="#499de7"/>
 <path d="m103.38 133.09l11.757 44.035v-21.907l176.1 3.1485v21.907l11.735-43.595-199.59-3.5888zm82.191 78.162l11.735 44.013v-21.907l176.12 3.1705v21.907l11.735-43.617-199.59-3.5668zm11.735 54.978c-6.5041-.11674-11.735 4.4762-11.735 10.304v.85868c0 5.828 5.2312 10.628 11.735 10.745l82.191 1.4752c6.5041.11675 11.735-4.4982 11.735-10.326v-.85868c0-5.828-5.2312-10.606-11.735-10.722l-82.191-1.4752zm176.12 3.1485c-6.5041-.11675-11.757 3.447-11.757 7.9923v5.5044c0 4.5454 5.2532 8.2939 11.757 8.4107l23.471.41833c6.5041.11675 11.735-3.447 11.735-7.9923v-5.4823c0-4.5453-5.2311-8.3159-11.735-8.4327l-23.471-.41833zm-270.04 60.878l11.757 44.035v-21.907l176.1 3.1485v21.907l11.735-43.595-199.59-3.5888zm270.04 4.8438l-23.493 21.489 23.493 22.326 23.471-21.489z" fill="#ffffff"/>
 <circle cx="256" stroke="#fefefe" cy="256" r="181.13" stroke-width="18.771" fill="none"/>
</svg>
