<svg height="512" viewBox="0 0 512 512" width="512" xmlns="http://www.w3.org/2000/svg">
 <path d="m471.95 253.05c0 120.9-98.01 218.9-218.9 218.9-120.9 0-218.9-98.01-218.9-218.9 0-120.9 98.01-218.9 218.9-218.9 120.9 0 218.9 98.01 218.9 218.9" fill="#e67131" fill-rule="evenodd"/>
 <path d="m231.87292 105.16997l-10.19528 30.58582c-10.29036 2.77861-20.16869 6.89899-29.38142 12.25548l-28.92712-14.46357-29.8991 29.89906 14.44243 28.88485c-5.31423 9.2233-9.39233 19.10163-12.12868 29.38142l-30.63866 10.23753v42.26021l30.58584 10.19529c2.77861 10.29036 6.89898 20.16869 12.25546 29.38142l-14.46356 28.92712 29.8991 29.89909 28.88486-14.44243c9.22329 5.31421 19.05935 9.39232 29.33915 12.12867l10.2798 30.63867h21.10898v-73.91312c-40.8445 0-73.95538-33.11088-73.95538-73.95538 0-40.84449 33.11088-73.95537 73.95538-73.95537v-73.95534zm145.29061 42.26021l-103.00927 110.93302-39.61895-39.61895-23.77137 23.77137 63.39032 63.39031 126.78065-134.70443z" fill="#f9f9f9" fill-opacity=".983"/>
 <circle cx="256" stroke="#fefefe" cy="256" r="181.13" stroke-width="18.771" fill="none"/>
</svg>
