<svg height="512" viewBox="0 0 512 512" width="512" xmlns="http://www.w3.org/2000/svg">
 <path d="m471.95 253.05c0 120.9-98.01 218.9-218.9 218.9-120.9 0-218.9-98.01-218.9-218.9 0-120.9 98.01-218.9 218.9-218.9 120.9 0 218.9 98.01 218.9 218.9" fill="#47b4eb" fill-rule="evenodd"/>
 <g fill="#fffffd" fill-rule="evenodd" transform="matrix(12.089454 0 0 12.089454 -3975.9295 -6172.9947)">
  <path d="m363.98 540.15c-3.974-3.795-11.971-10.05-18.05-8.134-3.398 1.072-5.04 4.17-1.173 4.239 7.898.142 11.77-.416 19.224 3.895"/>
  <path d="m342.16 536.15c1.285-5.337 4.619-14.919 10.773-16.589 3.438-.934 6.503.782 3.284 2.932-6.565 4.385-10.124 6.01-14.06 13.657"/>
  <path d="m345.48 543.3c-3.523-4.215-9.234-12.604-6.903-18.53 1.302-3.311 4.51-4.741 4.317-.88-.394 7.875-1.216 11.693 2.586 19.409"/>
 </g>
 <circle cx="256" stroke="#fefefe" cy="256" r="181.13" stroke-width="18.771" fill="none"/>
</svg>
