<svg height="512" viewBox="0 0 512 512" width="512" xmlns="http://www.w3.org/2000/svg">
 <path d="m471.95 253.05c0 120.9-98.01 218.9-218.9 218.9-120.9 0-218.9-98.01-218.9-218.9 0-120.9 98.01-218.9 218.9-218.9 120.9 0 218.9 98.01 218.9 218.9" fill="#aad38d" fill-rule="evenodd"/>
 <path d="m136.48 141.84v164.39c0 17.442 6.382 32.724 18.799 45.09 10.613 10.476 23.34 17.307 37.68 18.84h117.26c18 0 33.698-6.718 46.46-19.71h.124c10.853-11.151 17.17-24.507 18.716-39.544v-18.302l-.083-71.51c0-14.233-5.278-26.833-15.279-36.935-10.01-10.11-22.464-15.321-36.48-15.321-13.758 0-25.793 5.125-35.527 14.492-9.706-9.352-21.651-14.492-35.403-14.492-14.02 0-26.474 5.213-36.48 15.321-10 10.1-15.238 22.702-15.238 36.935v71.965h32.587v-71.965c0-5.455 1.819-9.688 5.714-13.623 3.908-3.947 8.04-5.756 13.416-5.756 5.486 0 9.582 1.799 13.499 5.756 3.895 3.935 5.673 8.168 5.673 13.623v71.965h32.587v-71.965c0-5.455 1.819-9.688 5.714-13.623 3.916-3.956 7.971-5.756 13.457-5.756 5.373 0 9.549 1.808 13.457 5.756 3.895 3.935 5.631 8.168 5.631 13.623l.166 84.06c0 1.057-.053 2.107-.166 3.147-.007.054.007.111 0 .166-.045.397-.104.808-.166 1.201-.137.846-.327 1.659-.538 2.484-3.762 14.677-19.05 26-38.05 26l-70.47-.248v.041l-34.823-.166c-16.931 0-31.387-16.42-31.387-37.598v-158.34h-30.848" fill="#ffffff" fill-rule="evenodd"/>
 <circle cx="256" stroke="#fefefe" cy="256" r="181.13" stroke-width="18.771" fill="none"/>
</svg>
