<svg viewBox="0 0 512 512" xmlns="http://www.w3.org/2000/svg">
 <path d="m471.95 253.05c0 120.9-98.01 218.91-218.91 218.91-117.88 0-214.01-93.18-218.73-209.91-.121-2.984-.182-5.984-.182-8.997 0-120.9 98.01-218.91 218.91-218.91 120.9 0 218.91 98.01 218.91 218.91" fill="#83c440" fill-rule="evenodd"/>
 <path d="m200.88 94.02c-13.154.525-24.385 4.636-32.585 12.836l-51.628 51.769c-18.452 18.452-16.553 52.5 1.552 88.44 10.625-20.273 24.662-39.792 40.625-58.822-5.105-10.919-3.236-24.271 5.783-33.29 11.517-11.517 30.1-11.517 41.613 0 3.339 3.339 5.65 7.235 7.05 11.426l94.37-22.01-1.128-1.128c-1.331-1.331-2.845-2.57-4.373-3.526-34.36-30.341-72.34-46.859-101.28-45.704m-20.595 80.686a5.6495 5.6495 0 0 0 -3.6676 1.8338c-31.32 34.563-56.629 70.73-67.71 108.76-.018.041-.127.101-.141.141-.013.06.018.223 0 .282-9.06 25.74-8.866 49.961-2.821 67.85.013.045.129.096.141.141.018.058-.018.084 0 .141 4.731 16.05 15.1 25.27 26.801 26.66 11.779 1.395 23.623-4.288 33.15-13.683l.141-.141c13.1-13.306 14.747-32.2 18.338-51.35a5.643 5.643 0 1 0 -11.003-2.1159c-3.67 19.573-5.935 35.881-15.376 45.562-.036.036.036.106 0 .141-7.714 7.558-16.878 11.138-23.98 10.297-7.135-.845-13.49-5.376-17.35-18.761v-.141l-.141-.141c-5.151-15.03-5.621-37.27 2.821-61.08v-.141l.141-.141c10.271-35.499 34.66-70.69 65.45-104.67a5.6495 5.6495 0 0 0 -4.796-9.451m120.47 20.595l-58.26 15.517a2.1908 2.1908 0 0 0 -1.2695.84637 2.1908 2.1908 0 0 0 -.14084.14083 2.1908 2.1908 0 0 0 -.14083.14083 2.1908 2.1908 0 0 0 0 1.2695l5.078 46.55a2.1908 2.1908 0 0 0 2.9623 1.8338l52.757-13.683a2.1908 2.1908 0 0 0 1.6927-2.1159v-48.38a2.1908 2.1908 0 0 0 -2.6806-2.1154m-124.56 8.464c-18.532 22.22-33.799 44.71-43.588 67.14 5.122 7.428 10.804 14.786 17.209 22.01.285.324.558.666.846.987.712.963 1.383 2.089 2.257 2.962l7.05 7.05 7.758 7.758c1.248-6.406 7.01-10.545 13.542-9.31 2.359.446 4.365 1.482 5.925 2.962l-5.642-100.29c-1.815-.241-3.615-.653-5.36-1.27m192.27 1.411l1.128 38.509c.256 9.301-3.664 17.493-10.02 24.403-6.351 6.911-15.09 12.531-24.968 17.209l-.141.141-.282.141-73.21 16.504 1.27 34.701 114.12-28.776 2.68-.705.141 2.68 1.411 25.814 42.18-42.18c9.466-9.466 9.466-24.671 0-34.14l-54.31-54.31m-179.99 122.72c-.22 1.277-.471 2.531-.705 3.809l.987.987zm152.63 47.537l-89.29 20.313 17.35 17.35c9.466 9.466 24.812 9.466 34.28 0l37.663-37.663" fill="#ffffff" fill-rule="evenodd"/>
 <circle cx="256" stroke="#fefefe" cy="256" r="181.13" stroke-width="18.771" fill="none"/>
</svg>
