<svg height="512" viewBox="0 0 512 512" width="512" xmlns="http://www.w3.org/2000/svg">
 <path d="m471.95 253.05c0 120.9-98.01 218.9-218.9 218.9-120.9 0-218.9-98.01-218.9-218.9 0-120.9 98.01-218.9 218.9-218.9 120.9 0 218.9 98.01 218.9 218.9" fill="#a63a3e" fill-rule="evenodd"/>
 <path d="m203.03 117.15c-8.537.271-16.683 6.311-19.942 14.79l-77.4 202.81c-5.244 11.712.365 27.523 11.554 32.469 11.189 4.946 25.647-1.996 29.597-14.28l12.978-35.699h89.42l11.713 31.449c3.959 12.355 18.542 19.348 29.755 14.28 11.212-5.069 16.694-21.13 11.237-32.809l-77.71-198.39c-3.472-8.835-12.285-14.91-21.21-14.62m132.16 72.25c-6.185.196-12.199 4.567-14.561 10.71l-23.74 62.39c27.893 72.26-.007.41 27.856 71.908h43.842l8.546 22.779c2.87 8.951 13.403 14.04 21.525 10.37 8.125-3.672 12.03-15.338 8.07-23.799l-56.19-143.65c-2.514-6.401-8.886-10.92-15.352-10.71m-131.21 6.12l26.27 70.55h-51.914zm131.84 50.659l18.993 51.17h-37.51z" fill="#ffffff"/>
 <circle cx="256" stroke="#fefefe" cy="256" r="181.13" stroke-width="18.771" fill="none"/>
</svg>
