<svg width="512" height="512" version="1.1" viewBox="0 0 512 512" xmlns="http://www.w3.org/2000/svg">
 <path d="m471.95 253.05c0 120.9-98.01 218.9-218.9 218.9-120.9 0-218.9-98.01-218.9-218.9 0-120.9 98.01-218.9 218.9-218.9 120.9 0 218.9 98.01 218.9 218.9" fill="#f25a5a" fill-rule="evenodd"/>
 <g transform="matrix(.72316 0 0 .72316 101.08 51.46)" fill="#ffffff" stroke-width="12.348">
  <g transform="translate(.00045 -.01835)">
   <path d="m206.1 110.66a160.53 160.53 0 0 0-160.53 160.53 160.53 160.53 0 0 0 160.53 160.53 160.53 160.53 0 0 0 160.53-160.53 160.53 160.53 0 0 0-160.53-160.53zm45.799 61.76a49.529 36.853 83.547 0 1 2e-3 0 49.529 36.853 83.547 0 1 39.01 38.094 49.529 36.853 83.547 0 1-24.57 59.359 49.529 36.853 83.547 0 1-46.264-36.812 49.529 36.853 83.547 0 1 24.57-59.359 49.529 36.853 83.547 0 1 7.252-1.2812zm-91.596 6e-3a36.853 49.529 6.4527 0 1 7.2539 1.2812 36.853 49.529 6.4527 0 1 24.57 59.359 36.853 49.529 6.4527 0 1-46.264 36.812 36.853 49.529 6.4527 0 1-24.57-59.359 36.853 49.529 6.4527 0 1 39.01-38.094z"/>
   <circle cx="70.272" cy="209.45" r="37.044"/>
   <circle cx="341.93" cy="209.45" r="37.044"/>
  </g>
  <path d="m206.1 431.71c74.089 0 140.74-12.348 160.53-24.696-35.34-11.41-22.856-49.392-12.311-74.089z"/>
 </g>
 <circle cx="256" cy="256" r="181.13" fill="none" stroke="#fefefe" stroke-width="18.771"/>
</svg>
