<svg height="512" viewBox="0 0 512 512" width="512" xmlns="http://www.w3.org/2000/svg">
 <path d="m490.30678 256.00699c0 129.40454-104.90024 234.30479-234.30478 234.30479-129.40454 0-234.304785-104.90025-234.304785-234.30479 0-129.40453 104.900245-234.304784 234.304785-234.304784 129.40454 0 234.30478 104.900254 234.30478 234.304784" fill="#b59a6e" fill-rule="evenodd"/>
 <path d="m340.99787 228.49443v40.77022l-78.48248-40.77022v40.77022l-78.50945-40.77022v40.77022l-78.50222-40.77022v132.39353h314.00952v-91.62989l-78.51603-40.76364zm-135.19493 115.64881h-78.48841v-46.11127h78.48841zm95.80535 0h-78.1924v-46.11127h78.18584v46.11127zm96.09611 0h-78.50222v-46.11127h78.50222z" fill="#ffffff"/>
 <path d="m311.66421 101.66493h-21.23659l-6.13629 131.5779 34.3511 18.13918z" fill="#ffffff"/>
 <path d="m233.72767 77.349355h-21.78911l-6.13562 155.893475 34.33136 18.13918z" fill="#ffffff"/>
 <circle cx="256" stroke="#fefefe" cy="256" r="181.13" stroke-width="18.771" fill="none"/>
</svg>
