<svg height="1814.17" viewBox="0 0 512 512" width="1814.17" xmlns="http://www.w3.org/2000/svg">
 <g transform="translate(0 215.00001)">
  <path d="m471.95001 38.049975c0 120.900015-98.01002 218.900025-218.90001 218.900025-120.9 0-218.900003-98.01003-218.900003-218.900025 0-120.899976 98.010003-218.899985 218.900003-218.899985 120.90001 0 218.90001 98.009987 218.90001 218.899985" fill="#6c5946" fill-rule="evenodd"/>
  <path d="m221.5-178.562c-11.836 1.70899-23.356 4.35198-34.5 7.87499v110.249984h34.5v-118.119984" fill="#d23638"/>
  <path d="m253.06-180.83999c-10.715 0-21.259.794-31.563 2.28098v118.129997h34.5v-120.370007c-.983-.0113-1.951-.0302-2.938-.0302" fill="#e4a146"/>
  <path d="m256-180.81002v120.380024h34.5v-117.220004c-11.228-1.935-22.756-3-34.5-3.15602" fill="#79c943"/>
  <path d="m290.5-177.66001v117.219998h34.49999v-108.279978c-11.12599-3.87103-22.63899-6.89303-34.49999-8.93802" fill="#0078ad"/>
  <path d="m43.906-26.690004c-6.328002 20.463987-9.750002 42.209989-9.750002 64.749995 0 120.889999 98.010002 218.879989 218.910002 218.879989 120.88998 0 218.88001-97.97998 218.88001-218.869974 0-22.542008-3.42202-44.2900136-9.75001-64.750032h-418.279999" fill="#ead3a8"/>
  <path d="m256-101.09c-78.48 0-142.09 63.609975-142.09 142.089972 0 78.480038 63.61 142.090008 142.09 142.090008 78.47999 0 142.09-63.60997 142.09-142.090008 0-78.479997-63.61001-142.089972-142.09-142.089972" fill="#484043"/>
  <path d="m256-33.340006c-41.06 0-74.34 33.27998554-74.34 74.339978 0 41.060029 33.28 74.340018 74.34 74.340018 41.06 0 74.34-33.279989 74.34-74.340018 0-41.05999246-33.28-74.339978-74.34-74.339978" fill="#1b87b5"/>
  <g fill="#ffffff" transform="translate(-.00000266 -215.00001)">
   <path d="m200.68 184.41c-14.974 0-27.11 12.137-27.11 27.11 0 14.974 12.137 27.11 27.11 27.11 14.974 0 27.11-12.137 27.11-27.11 0-14.974-12.137-27.11-27.11-27.11" opacity=".25"/>
   <path d="m256 113.91c-78.48 0-142.09 63.61-142.09 142.09 0 78.48 63.61 142.09 142.09 142.09 78.48 0 142.09-63.61 142.09-142.09 0-78.48-63.61-142.09-142.09-142.09m0 28.19c62.904 0 113.91 51 113.91 113.91 0 62.904-51 113.91-113.91 113.91-62.904 0-113.91-51-113.91-113.91 0-62.904 51-113.91 113.91-113.91"/>
   <path d="m241.73 232.55c-9.881 0-17.89 8.01-17.89 17.89 0 9.881 8.01 17.89 17.89 17.89 9.881 0 17.89-8.01 17.89-17.89 0-9.881-8.01-17.89-17.89-17.89" opacity=".25"/>
  </g>
 </g>
 <circle cx="256" stroke="#fefefe" cy="256" r="181.13" stroke-width="18.771" fill="none"/>
</svg>
