<svg height="512" viewBox="0 0 512 512" width="512" xmlns="http://www.w3.org/2000/svg">
 <path d="m471.95 253.05c0 120.9-98.01 218.9-218.9 218.9-120.9 0-218.9-98.01-218.9-218.9 0-120.9 98.01-218.9 218.9-218.9 120.9 0 218.9 98.01 218.9 218.9" fill="#f6a254" fill-rule="evenodd"/>
 <text x="729.64" y="231.36">
  
 </text>
 <text x="1310.91" y="151.36">
  
 </text>
 <text x="239.33" y="-29.9">
  
 </text>
 <text x="1337.38" y="-246.37">
  
 </text>
 <text x="1918.65" y="-326.37">
  
 </text>
 <text x="1529.53" y="-798.77">
  
 </text>
 <text x="2110.79" y="-878.78">
  
 </text>
 <text x="277.99" y="535.94">
  
 </text>
 <text fill="#ffffff" font-family="Sans" font-size="125.014" letter-spacing="0" line-height="125%" word-spacing="0" x="75.78" y="260.73">
  <tspan x="75.78" y="260.73">kindle</tspan>
 </text>
 <g fill="#ffffff" fill-rule="evenodd" transform="matrix(.94379 0 0 .94379 -743.37899 -69.00138)">
  <path d="m1188 400.42c-34.999 25.797-85.73 39.561-129.41 39.561-61.24 0-116.38-22.651-158.09-60.32-3.277-2.963-.341-7 3.592-4.693 45.01 26.19 100.67 41.947 158.17 41.947 38.775 0 81.43-8.02 120.65-24.67 5.925-2.517 10.88 3.88 5.086 8.18"/>
  <path d="m1202.6 383.77c-4.457-5.715-29.573-2.7-40.846-1.363-3.434.419-3.959-2.569-.865-4.719 20-14.08 52.827-10.01 56.655-5.296 3.828 4.745-.996 37.647-19.794 53.35-2.884 2.412-5.637 1.127-4.352-2.071 4.221-10.539 13.685-34.16 9.202-39.902"/>
 </g>
 <circle cx="256" stroke="#fefefe" cy="256" r="181.13" stroke-width="18.771" fill="none"/>
</svg>
