<svg width="512" height="512" version="1.1" viewBox="0 0 512 512" xmlns="http://www.w3.org/2000/svg">
 <path d="m471.95 253.05c0 120.9-98.01 218.9-218.9 218.9-120.9 0-218.9-98.01-218.9-218.9 0-120.9 98.01-218.9 218.9-218.9 120.9 0 218.9 98.01 218.9 218.9" fill="#79c47b" fill-rule="evenodd"/>
 <g transform="matrix(.81552 0 0 .81552 49.352 46.941)" fill="#ffffff">
  <path d="m137.61 128.45s123.94 251.1 137.12 257.75c11.666 5.9055 24.089 14.518 75.613 5.3458 52.926-9.4237 51.75-16.403 55.628-30.201 13.746-53.949-28.17-60.209-57.47-29.036-15.193 13.993-37.541 28.785-54.836 24.159-61.947-71.369-95.294-138.94-147.29-235.05" fill-rule="evenodd"/>
  <path d="m348.53 330.15-36.377 25.735c-42.379 30.613 19.296 30.704 32.386 28.831 22.439-3.4839 45.77-7.0706 51.49-21.669 13.022-49.163-18.279-56.85-47.5-32.909z" fill-rule="evenodd"/>
  <rect transform="matrix(.46566 .88496 -.8809 .47329 0 0)" x="170.14" y="-82.686" width="147.28" height="31.374" rx="5.6641" ry="5.2346" stroke-width="11.363"/>
 </g>
 <circle cx="256" cy="256" r="181.13" fill="none" stroke="#fefefe" stroke-width="18.771"/>
</svg>
