<svg height="512" viewBox="0 0 512 512" width="512" xmlns="http://www.w3.org/2000/svg">
 <path d="m471.95 253.05c0 120.9-98.01 218.9-218.9 218.9-120.9 0-218.9-98.01-218.9-218.9 0-120.9 98.01-218.9 218.9-218.9 120.9 0 218.9 98.01 218.9 218.9" fill="#49a026" fill-rule="evenodd"/>
 <rect fill="#ffffff" height="127.262" rx="1.12" ry="1.194" transform="matrix(.70005011 -.71409372 .70268078 .71150525 0 0)" width="86.364" x="12.93" y="263.96"/>
 <rect fill="#ffffff" height="106.283" rx=".97" ry="1.045" transform="matrix(.70234364 -.71183805 .70497629 .70923088 0 0)" width="72.104" x="-101.01" y="349.15"/>
 <rect fill="#ffffff" height="82.793" rx=".746" ry=".821" transform="matrix(.70428387 .70991847 -.69380982 .72015827 0 0)" width="56.128" x="263.01" y="13.52"/>
 <rect fill="#ffffff" height="110.34" rx=".896" ry=".747" transform="matrix(.70774951 .70646346 -.69463399 .71936334 0 0)" width="48.735" x="413" y="-96.14"/>
 <circle cx="256" stroke="#fefefe" cy="256" r="181.13" stroke-width="18.771" fill="none"/>
</svg>
