<svg height="512" viewBox="0 0 512 512" width="512" xmlns="http://www.w3.org/2000/svg">
 <path d="m471.95 253.05c0 120.9-98.01 218.9-218.9 218.9-120.9 0-218.9-98.01-218.9-218.9 0-120.9 98.01-218.9 218.9-218.9 120.9 0 218.9 98.01 218.9 218.9" fill="#318e9e" fill-rule="evenodd"/>
 <path d="m202.68377 337.12279h39.61739c.12014 0 .20024.0401.20024.0401v19.94385c0 0-.0801.0401-.20024.0401h-39.61739c-.12015 0-.23028-.0401-.23028-.0401v-19.94385c0 0 .12014-.0401.23028-.0401m0 0" fill="#ffffff"/>
 <path d="m202.68377 306.92667h39.61739c.12014 0 .20024.04.20024.04v19.94386c0 0-.0801.0401-.20024.0401h-39.61739c-.12015 0-.23028-.0401-.23028-.0401v-19.94386c0 0 .12014-.04.23028-.04m0 0" fill="#ffffff"/>
 <path d="m202.68377 277.25117h39.61739c.12014 0 .20024 0 .20024.04v19.67354c0 .0401-.0801.0401-.20024.0401h-39.61739c-.12015 0-.23028 0-.23028-.0401v-19.67354c0-.04.12014-.04.23028-.04m0 0" fill="#ffffff"/>
 <path d="m202.68377 247.01499h39.61739c.12014 0 .20024.04.20024.04v19.55339c0 0-.0801.0401-.20024.0401h-39.61739c-.12015 0-.23028-.0401-.23028-.0401v-19.55339c0 0 .12014-.04.23028-.04m0 0" fill="#ffffff"/>
 <path d="m202.68377 216.97906h39.61739c.12014 0 .20024 0 .20024.0401v19.43325c0 0-.0801.0401-.20024.0401h-39.61739c-.12015 0-.23028-.0401-.23028-.0401v-19.43325c0-.0401.12014-.0401.23028-.0401m0 0" fill="#ffffff"/>
 <path d="m302.80354 337.22291h39.65744c.12014 0 .20024 0 .20024.0401v19.79367c0 0-.0801.0401-.20024.0401h-39.65744c-.12015 0-.20024-.0401-.20024-.0401v-19.79367c0-.0401.0801-.0401.20024-.0401m0 0" fill="#ffffff"/>
 <path d="m302.80354 307.2871h39.65744c.12014 0 .20024.04.20024.04v19.67354c0 .0401-.0801.0401-.20024.0401h-39.65744c-.12015 0-.20024 0-.20024-.0401v-19.67354c0 0 .0801-.04.20024-.04m0 0" fill="#ffffff"/>
 <path d="m302.80354 277.55152h39.65744c.12014 0 .20024.0401.20024.0401v19.59344c0 0-.0801.0401-.20024.0401h-39.65744c-.12015 0-.20024-.0401-.20024-.0401v-19.59344c0 0 .0801-.0401.20024-.0401m0 0" fill="#ffffff"/>
 <path d="m302.80354 247.51559h39.65744c.12014 0 .20024 0 .20024.0401v19.43325c0 0-.0801.04-.20024.04h-39.65744c-.12015 0-.20024-.04-.20024-.04v-19.43325c0-.0401.0801-.0401.20024-.0401m0 0" fill="#ffffff"/>
 <path d="m302.80354 217.57978h39.65744c.12014 0 .20024.0401.20024.0401v19.28307c0 .0401-.0801.0401-.20024.0401h-39.65744c-.12015 0-.20024 0-.20024-.0401v-19.28307c0 0 .0801-.0401.20024-.0401m0 0" fill="#ffffff"/>
 <path d="m302.80354 186.94313h39.65744c.12014 0 .20024.0401.20024.0401v19.94386c0 .0401-.0801.0401-.20024.0401h-39.65744c-.12015 0-.20024 0-.20024-.0401v-19.94386c0 0 .0801-.0401.20024-.0401m0 0" fill="#ffffff"/>
 <path d="m352.86342 337.12279h39.65744c.12015 0 .20024.0401.20024.0401v19.94385c0 0-.0801.0401-.20024.0401h-39.65744c-.12014 0-.20024-.0401-.20024-.0401v-19.94385c0 0 .0801-.0401.20024-.0401m0 0" fill="#ffffff"/>
 <path d="m352.86342 307.08686h39.65744c.12015 0 .20024 0 .20024.04v19.82372c0 0-.0801.0401-.20024.0401h-39.65744c-.12014 0-.20024-.0401-.20024-.0401v-19.82372c0-.04.0801-.04.20024-.04m0 0" fill="#ffffff"/>
 <path d="m352.86342 277.25117h39.65744c.12015 0 .20024 0 .20024.04v19.67354c0 .0401-.0801.0401-.20024.0401h-39.65744c-.12014 0-.20024 0-.20024-.0401v-19.67354c0-.04.0801-.04.20024-.04m0 0" fill="#ffffff"/>
 <path d="m352.86342 247.01499h39.65744c.12015 0 .20024.04.20024.04v19.55339c0 0-.0801.0401-.20024.0401h-39.65744c-.12014 0-.20024-.0401-.20024-.0401v-19.55339c0 0 .0801-.04.20024-.04m0 0" fill="#ffffff"/>
 <path d="m352.86342 216.97906h39.65744c.12015 0 .20024 0 .20024.0401v19.43325c0 0-.0801.0401-.20024.0401h-39.65744c-.12014 0-.20024-.0401-.20024-.0401v-19.43325c0-.0401.0801-.0401.20024-.0401m0 0" fill="#ffffff"/>
 <path d="m252.74365 337.12279h39.61739c.12015 0 .20024.0401.20024.0401v19.94385c0 0-.0801.0401-.20024.0401h-39.61739c-.12014 0-.23027-.0401-.23027-.0401v-19.94385c0 0 .12014-.0401.23027-.0401m0 0" fill="#ffffff"/>
 <path d="m252.74365 307.08686h39.61739c.12015 0 .20024 0 .20024.04v19.82372c0 0-.0801.0401-.20024.0401h-39.61739c-.12014 0-.23027-.0401-.23027-.0401v-19.82372c0-.04.12014-.04.23027-.04m0 0" fill="#ffffff"/>
 <path d="m252.74365 277.25117h39.61739c.12015 0 .20024 0 .20024.04v19.67354c0 .0401-.0801.0401-.20024.0401h-39.61739c-.12014 0-.23027 0-.23027-.0401v-19.67354c0-.04.12014-.04.23027-.04m0 0" fill="#ffffff"/>
 <path d="m152.62388 337.12279h39.61739c.12015 0 .20024.0401.20024.0401v19.94385c0 0-.0801.0401-.20024.0401h-39.61739c-.12014 0-.23027-.0401-.23027-.0401v-19.94385c0 0 .12014-.0401.23027-.0401m0 0" fill="#ffffff"/>
 <path d="m152.62388 307.2871h39.61739c.12015 0 .20024.04.20024.04v19.71359c0 0-.0801 0-.20024 0h-39.61739c-.12014 0-.23027 0-.23027 0v-19.71359c0 0 .12014-.04.23027-.04m0 0" fill="#ffffff"/>
 <path d="m152.62388 277.45141h39.61739c.12015 0 .20024 0 .20024 0v19.59343c0 .04-.0801.04-.20024.04h-39.61739c-.12014 0-.23027 0-.23027-.04v-19.59343c0 0 .12014 0 .23027 0m0 0" fill="#ffffff"/>
 <path d="m152.62388 247.51559h39.61739c.12015 0 .20024 0 .20024.0401v19.43325c0 0-.0801.04-.20024.04h-39.61739c-.12014 0-.23027-.04-.23027-.04v-19.43325c0-.0401.12014-.0401.23027-.0401m0 0" fill="#ffffff"/>
 <path d="m152.62388 217.57978h39.61739c.12015 0 .20024.0401.20024.0401v19.32312c0 0-.0801 0-.20024 0h-39.61739c-.12014 0-.23027 0-.23027 0v-19.32312c0 0 .12014-.0401.23027-.0401m0 0" fill="#ffffff"/>
 <path d="m152.62388 186.94313h39.61739c.12015 0 .20024 0 .20024.0401v19.90381c0 .0401-.0801.0401-.20024.0401h-39.61739c-.12014 0-.23027 0-.23027-.0401v-19.90381c0-.0401.12014-.0401.23027-.0401m0 0" fill="#ffffff"/>
 <path d="m152.62388 156.9072h39.61739c.12015 0 .20024.0401.20024.0401v19.94386c0 0-.0801.0401-.20024.0401h-39.61739c-.12014 0-.23027-.0401-.23027-.0401v-19.94386c0 0 .12014-.0401.23027-.0401m0 0" fill="#ffffff"/>
 <circle cx="256" stroke="#fefefe" cy="256" r="181.13" stroke-width="18.771" fill="none"/>
</svg>
