<svg height="512" viewBox="0 0 512 512" width="512" xmlns="http://www.w3.org/2000/svg">
 <path d="m471.95 253.05c0 120.9-98.01 218.9-218.9 218.9-120.9 0-218.9-98.01-218.9-218.9 0-120.9 98.01-218.9 218.9-218.9 120.9 0 218.9 98.01 218.9 218.9" fill="#cea86b" fill-rule="evenodd"/>
 <path d="m397.13 142.22l-51.813 2.813-13.656 27.688-17.406-26.438-47.09 3.406 31.344 52.719-44.938 6.06-11.813 32.625-23.75-27.719-53.09 6.781 32.31 39.03-27.313 24.594-54.56-71.31-.625 1.594-35.844 30.22 82.5 104.28 63.53-55.875 1.313 1.563 7.281 60.19 49.969-5.219-5.719-67.69 1.031-2.813 42.594 1.75 15.13-39.03 20 37.13 54.19-9.03-44.47-66.44 30.906-60.875" fill="#ffffff" fill-rule="evenodd"/>
 <circle cx="256" stroke="#fefefe" cy="256" r="181.13" stroke-width="18.771" fill="none"/>
</svg>
