<?xml version="1.0" encoding="UTF-8" standalone="no"?>
<svg xmlns="http://www.w3.org/2000/svg" height="512" viewBox="0 0 512 512" width="512" version="1.1">
 <path d="m471.95 253.05c0 120.9-98.01 218.9-218.9 218.9-120.9 0-218.9-98.01-218.9-218.9 0-120.9 98.01-218.9 218.9-218.9 120.9 0 218.9 98.01 218.9 218.9" fill="#1793d1" fill-rule="evenodd" style="fill:#e0964e;fill-opacity:1"/>
 <path style="fill:#ffffff;fill-opacity:1" d="m 386.63141,357.88242 c -0.22702,-0.0246 -0.89718,-0.61987 -1.48929,-1.32303 -6.36449,-7.55812 -16.41093,-14.21787 -29.44009,-19.5158 -10.54872,-4.28932 -10.54046,-4.28158 -23.65417,-22.18697 -1.91243,-2.61122 -3.66532,-4.59615 -3.89537,-4.41095 -0.23004,0.1852 1.89142,4.20146 4.71429,8.92511 2.82287,4.72365 4.92756,8.75344 4.67707,8.95509 -0.2505,0.20167 -7.43332,-1.60435 -15.96184,-4.01337 -8.52852,-2.40901 -18.18426,-4.94006 -21.45719,-5.62457 l -5.95083,-1.24455 -4.77861,-7.62884 c -5.1919,-8.2886 -7.53338,-11.12861 -13.81535,-16.7569 -6.36268,-5.70056 -7.20716,-4.61501 -1.79848,2.31191 4.62384,5.92178 11.43279,17.71493 11.24293,19.47285 -0.12469,1.15456 -1.77681,0.84797 -13.86735,-2.57334 -13.77753,-3.89868 -25.40376,-8.21205 -35.89102,-13.31571 l -8.29624,-4.0374 -2.73798,-7.1631 c -2.95827,-7.73944 -10.07748,-20.29907 -11.98061,-21.13608 -0.64558,-0.28392 0.14521,2.67161 1.75733,6.56785 3.48565,8.42441 5.89186,16.87605 5.09592,17.89916 -1.00252,1.28864 -15.89233,-9.59652 -24.63692,-18.01073 -3.59247,-3.45677 -4.27608,-4.78712 -5.50472,-10.71264 -2.52232,-12.16498 -8.27512,-22.15747 -6.8338,-11.87016 0.38165,2.72399 0.76445,6.82167 0.85063,9.10596 l 0.15678,4.15326 -2.70406,-3.50918 c -7.46379,-9.68602 -12.02055,-19.1034 -14.85404,-30.69852 -1.83696,-7.51712 -7.14336,-15.56644 -28.91275,-43.85797 -11.72301,-15.23527 -13.62983,-18.96477 -9.46638,-18.51513 2.59982,0.28077 9.43714,7.76422 27.31336,29.89449 8.91119,11.0318 16.8641,20.04038 18.01791,20.4096 1.13602,0.36352 8.78817,1.60797 17.00476,2.76544 12.49636,1.76037 16.71462,2.75124 25.79604,6.05951 5.9712,2.17528 11.69383,4.04545 12.71695,4.15594 5.10308,0.5511 -2.4513,6.38119 -15.94978,12.3092 -3.87776,1.70295 -6.614,3.29612 -6.08052,3.54034 1.1792,0.53985 14.40834,-4.06998 26.13009,-9.10529 l 8.60948,-3.69838 10.48334,1.72824 c 18.46864,3.04462 46.40044,11.63296 44.01914,13.53478 -2.09975,1.67697 -18.32924,8.22841 -30.39093,12.26809 -7.21219,2.41548 -13.13297,4.57601 -13.1573,4.80119 -0.17547,1.62527 31.24088,-4.45555 43.76301,-8.47059 8.33998,-2.67413 12.35535,-3.53248 13.76182,-2.94191 4.77407,2.00464 16.24109,9.20087 20.88268,13.10513 6.85651,5.76732 17.91841,20.00864 15.32401,19.72845 -1.15513,-0.1247 -18.02492,-4.83079 -19.39796,-5.41132 -0.84609,-0.35771 -1.57184,-0.31579 -1.61278,0.0928 -0.042,0.40868 3.73332,2.30281 8.38724,4.20888 13.46151,5.5134 20.38351,11.44536 28.49929,24.42298 1.29332,2.0681 3.08174,4.91192 3.97427,6.3196 0.89253,1.40771 2.63698,4.27253 3.87656,6.36631 l 2.25376,3.80687 -2.63615,-0.82938 c -1.44989,-0.45614 -4.24778,-1.22693 -6.21749,-1.71285 -2.98468,-0.73631 -2.61245,-0.4098 2.23428,1.96024 3.19856,1.56403 6.97494,3.91134 8.39192,5.21617 3.19642,2.94343 15.22054,26.38191 13.43521,26.1891 z"/>
 <circle cx="256" stroke="#fefefe" cy="256" r="181.13" stroke-width="18.771" fill="none"/>
</svg>
