<svg viewBox="0 0 512 512" xmlns="http://www.w3.org/2000/svg">
 <path d="m471.95 253.05c0 120.9-98.01 218.91-218.91 218.91-120.9 0-218.91-98.01-218.91-218.91 0-120.9 98.01-218.91 218.91-218.91 120.9 0 218.91 98.01 218.91 218.91" fill="#d23638" fill-rule="evenodd"/>
 <path d="m131.47 130.34c-6.194 0-11.188 4.993-11.188 11.188v181.19c0 6.194 4.993 11.188 11.188 11.188h249.06c6.194 0 11.188-4.993 11.188-11.188v-181.19c0-6.194-4.993-11.188-11.188-11.188zm83.81 47.5l88.22 54.28-88.22 54.28zm45.22 177.09c-8.208 0-15.05 5.818-16.625 13.563h-100.47c-21.588 0-35.837.136-45.41.375v6.406h145.88c1.57 7.745 8.417 13.594 16.625 13.594s15.05-5.849 16.625-13.594h136.88v-6.781h-136.87c-1.57-7.745-8.417-13.563-16.625-13.563" fill="#ffffff"/>
 <circle cx="256" stroke="#fefefe" cy="256" r="181.13" stroke-width="18.771" fill="none"/>
</svg>
