<svg height="512" viewBox="0 0 512 512" width="512" xmlns="http://www.w3.org/2000/svg">
 <path d="m471.95 253.05c0 120.9-98.01 218.9-218.9 218.9-120.9 0-218.9-98.01-218.9-218.9 0-120.9 98.01-218.9 218.9-218.9 120.9 0 218.9 98.01 218.9 218.9" fill="#2c78cf" fill-rule="evenodd"/>
 <path d="m236.68846 289.94719c1.10118-3.5184-1.15489-7.00994-5.03588-7.00994h-65.90953c-3.88098 0-4.72701-3.15581-2.24264-5.98933l140.81649-180.163466c2.48437-2.846948 3.38411-2.350075 1.9875 1.101178l-30.92699 125.829728c-1.39662 3.45126.63116 5.51932 4.51214 5.51932h66.05725c3.88098 0 5.12988 3.11553 2.75295 6.05648l-141.15222 180.0426c-2.3635 2.94095-3.41097 2.41722-2.28293-1.10117z" fill="#ffffff" fill-rule="evenodd"/>
 <circle cx="256" stroke="#fefefe" cy="256" r="181.13" stroke-width="18.771" fill="none"/>
</svg>
