<svg height="512" viewBox="0 0 512 512" width="512" xmlns="http://www.w3.org/2000/svg">
 <linearGradient id="a" gradientUnits="userSpaceOnUse" x1="573.16" x2="578.14" y1="9.01" y2="360.63">
  <stop offset="0" stop-color="#fafafa"/>
  <stop offset="1" stop-color="#f5f5f5"/>
 </linearGradient>
 <path d="m471.95 253.05c0 120.9-98.01 218.9-218.9 218.9-120.9 0-218.9-98.01-218.9-218.9 0-120.9 98.01-218.9 218.9-218.9 120.9 0 218.9 98.01 218.9 218.9" fill="#a0d200" fill-rule="evenodd"/>
 <path d="m187.63 44.13c-88.93 27.822-153.47 110.83-153.47 208.94 0 101.71 69.37 187.2 163.38 211.78 21.571-67.43 19.591-130.31-1.125-207.62-23.14-86.37-31.33-144.98-8.781-213.09" fill="#1f467c"/>
 <path d="m256 1c-140.83 0-255 114.17-255 255 0 140.83 114.17 255 255 255 140.83 0 255-114.17 255-255 0-140.83-114.17-255-255-255m8.827 44.931c120.9 0 218.9 98 218.9 218.9 0 120.9-98 218.9-218.9 218.9-120.9 0-218.93-98-218.93-218.9 0-120.9 98.03-218.9 218.93-218.9" fill-opacity=".067" fill-rule="evenodd"/>
 <path d="m150.66 145.1a14.341 14.341 0 0 0 -14.33 14.36v193.08a14.341 14.341 0 0 0 14.33 14.36h210.67a14.341 14.341 0 0 0 14.34-14.36v-193.08a14.341 14.341 0 0 0 -14.33-14.36h-210.67m14.36 28.69h76.65v66.62h-76.65zm105.31 0h76.65v66.62h-76.65zm-105.31 95.28h76.65v69.14h-76.65zm105.31 0h76.65v69.14h-76.65z" fill="url(#a)"/>
 <circle cx="256" stroke="#fefefe" cy="256" r="181.13" stroke-width="18.771" fill="none"/>
</svg>
