<svg height="512" viewBox="0 0 512 512" width="512" xmlns="http://www.w3.org/2000/svg">
 <path d="m471.95 253.05c0 120.9-98.01 218.9-218.9 218.9-120.9 0-218.9-98.01-218.9-218.9 0-120.9 98.01-218.9 218.9-218.9 120.9 0 218.9 98.01 218.9 218.9" fill="#86d546" fill-rule="evenodd"/>
 <path d="m150.18619 126.71285l81.3 51.54h51.721l81.3-51.54h-50.41c-13.697 4.498-44.21 24.973-58.38 43.624-16.353-19.355-42.571-38.496-55.05-43.624h-50.47m-19.58 2.559v198.66l87.25 50.41v-198.66zm248.41 0l-87.31 50.41v198.66l87.31-50.41zm-147.18 57.25v198.6h46.48v-198.6z" fill="#ffffff"/>
 <circle cx="256" stroke="#fefefe" cy="256" r="181.13" stroke-width="18.771" fill="none"/>
</svg>
