<svg xmlns="http://www.w3.org/2000/svg" height="512" width="512" version="1.1" viewBox="0 0 512 512">
 <defs>
  <clipPath id="a">
   <g transform="translate(0 -1004.4)">
    <path fill="#1890d0" d="m-24 13c0 1.105-0.672 2-1.5 2s-1.5-0.895-1.5-2 0.672-2 1.5-2 1.5 0.895 1.5 2z" transform="matrix(15.333 0 0 11.5 415 878.86)"/>
   </g>
  </clipPath>
 </defs>
 <path d="m471.95 253.05c0 120.9-98.01 218.9-218.9 218.9-120.9 0-218.9-98.01-218.9-218.9 0-120.9 98.01-218.9 218.9-218.9 120.9 0 218.9 98.01 218.9 218.9" fill-rule="evenodd" fill="#33678e"/>
 <g transform="matrix(8.3621 0 0 9.4864 55.309 37.832)">
  <g clip-path="url(#a)">
   <g fill="#f9f9f9">
    <path d="m11.965 20c-0.57 0.027-0.965 0.156-0.965 0.766v12.773c0 0.809 0.699 1.457 1.574 1.457h22.824c0.879 0 1.602-0.648 1.602-1.457v-12.773c0-0.813-0.723-0.766-1.602-0.766h-22.824c-0.219 0-0.422-0.012-0.609 0"/>
    <path d="m15.05 13.402-3.25 4.598h11.195v-7h-5.508c-0.813 0-2.438 2.402-2.438 2.402m9.938-2.402v7h11.188l-3.25-4.598s-1.625-2.402-2.441-2.402m-5.492 0"/>
   </g>
  </g>
 </g>
 <circle r="181.13" cy="256" stroke="#fefefe" cx="256" stroke-width="18.771" fill="none"/>
</svg>
