<svg viewBox="0 0 512 512" xmlns="http://www.w3.org/2000/svg">
 <path d="m471.95 253.05c0 120.9-98.01 218.91-218.91 218.91-120.9 0-218.91-98.01-218.91-218.91 0-120.9 98.01-218.91 218.91-218.91 120.9 0 218.91 98.01 218.91 218.91" fill="#336699" fill-rule="evenodd"/>
 <path d="m256.09 117.01c-65.43 0-118.45 165.81-118.45 239.29 0 4.086.18 8.262.484 12.27 13.283-7.823 28.4-12.36 44.45-12.36 29.548 0 55.934 15.13 73.47 38.779 17.549-23.695 43.923-38.779 73.47-38.779 16.05 0 31.14 4.48 44.36 12.315.304-3.996.484-8.093.484-12.18 0-73.56-52.984-239.34-118.37-239.34" fill="#ffffff"/>
 <circle cx="256" stroke="#fefefe" cy="256" r="181.13" stroke-width="18.771" fill="none"/>
</svg>
