<svg height="512" viewBox="0 0 512 512" width="512" xmlns="http://www.w3.org/2000/svg">
 <path d="m471.95 253.05c0 120.9-98.01 218.9-218.9 218.9-120.9 0-218.9-98.01-218.9-218.9 0-120.9 98.01-218.9 218.9-218.9 120.9 0 218.9 98.01 218.9 218.9" fill="#0078ad" fill-rule="evenodd"/>
 <path d="m233.15 106.08c-16.345 3.65-29.753 12.661-41.966 29.06-25.761 17.364-56.646 22.738-75.43 81.17-14.1 35.2 4.879 83.33 13.766 102.2 17.46 28.453 24.433 35.37 54.43 53.13l7.708.603.444-4.092 8.945 4.155 2.379-.793c-14.588-11.768-21.259-16.371-25.12-36.795 8.776 8.777 27.842 20.396 31.28 15.892-2.331-3.728-5-7.312-7.581-10.975l94.78 30.991c-10.235 11.911-23.25 23.378-40.03 33.56 17.827 1.305 31.763-2.655 50.24-9.992l-15.892 11.292c11.837 2.959 44.554-9.781 54.02-24.04 9.07 5.075 29.63-25.609 36.29-40.25 14.552-27.704 28.12-78.4 13.798-133.99-24.758-77.69-104.86-94.2-167.17-80.63 3.884-3.578 7.207-7.143 8.691-10.721-5.979 1.774-15.406 9.07-23.568 14.338l19.984-24.11m-72.798 83.84c3.311.038 7.377 1.962 12.434 6.63-.621 8.75-.775 16.665-.825 24.647l-18.97-27.25c1.942-2.496 4.326-4.063 7.359-4.03m39.745.381c1.058-.043 2.133.185 3.077.73 3.02 1.743 3.808 6.03 1.776 9.548-2.032 3.519-6.116 4.947-9.135 3.204-3.02-1.743-3.84-5.997-1.808-9.516 1.397-2.42 3.763-3.87 6.09-3.965m-50.847 10.721l22.68 32.608c-.003 1.827-.02 3.597-.032 5.488.816-.716 1.615-1.374 2.411-2.062l34.385 49.45 1.618 2.316 2.633-1.047 100.87-40.35c.979 6.56 1.41 13.652.856 21.16-2.411 8.571-3.087 17.759-7.04 25.757 11.791-.129 22.394-14.891 26.772-19.857-1.558 23.527-5.319 43.593-18.05 67.47-4.068 7.595-8.947 15.26-14.813 22.807l-129.86-42.505c-10.267-3.751-20.537-7.797-30.8-12.149-4.131-11.976-7.647-30.582-10.753-53.829 8.924 7.227 11.49 11.461 19.984 12.307-7.482-11.6-9.378-33.644-5.424-50.625 1.206-5.18 2.529-11.566 4.568-16.939m86.06 3.458c4.242-.043 8.369.411 12.72 1.047l56.4 10.277c2.689 6.306 5.927 14.65 8.089 24.488l-99.6 39.841-33.18-47.707c26.79-22.297 41.72-27.805 55.57-27.945" fill="#ffffff"/>
 <circle cx="256" stroke="#fefefe" cy="256" r="181.13" stroke-width="18.771" fill="none"/>
</svg>
