<svg xmlns="http://www.w3.org/2000/svg" height="512" width="512" version="1.1" viewBox="0 0 512 512">
 <path fill-rule="evenodd" d="m471.95 253.05c0 120.9-98.01 218.9-218.9 218.9-120.9 0-218.9-98.01-218.9-218.9 0-120.9 98.01-218.9 218.9-218.9 120.9 0 218.9 98.01 218.9 218.9" fill="#cea814"/>
 <path fill-rule="evenodd" fill="#ffffff" d="m201.6 114.62c-11.816 0-21.331 9.1282-21.331 20.467s9.5141 20.467 21.331 20.467h32.35v95.766h44.097v-95.766h32.35c11.816 0 21.331-9.1282 21.331-20.467s-9.5141-20.467-21.331-20.467zm32.35 136.72v70.278h-45.74l33.898 37.885 33.898 37.885 33.877-37.885 33.898-37.885h-45.74v-70.278h-44.097"/>
 <circle r="181.13" cy="256" stroke="#fefefe" cx="256" stroke-width="18.771" fill="none"/>
</svg>
