<svg height="512" viewBox="0 0 512 512" width="512" xmlns="http://www.w3.org/2000/svg">
 <path d="m471.95 253.05c0 120.9-98.01 218.9-218.9 218.9-120.9 0-218.9-98.01-218.9-218.9 0-120.9 98.01-218.9 218.9-218.9 120.9 0 218.9 98.01 218.9 218.9" fill="#68af4c" fill-rule="evenodd"/>
 <path d="m106.09 142.84v117.75h299.81v-117.75zm40.875 145.56c-22.301 0-40.41 18.07-40.41 40.38 0 22.301 18.11 40.38 40.41 40.38 22.301 0 40.38-18.07 40.38-40.37 0-22.301-18.07-40.37-40.37-40.37m109.03 0c-22.301 0-40.37 18.04-40.37 40.34 0 22.301 18.07 40.38 40.38 40.38 22.301 0 40.38-18.07 40.38-40.37 0-22.301-18.07-40.34-40.37-40.34m109 0c-22.301 0-40.37 18.04-40.37 40.34 0 22.301 18.07 40.38 40.38 40.38 22.301 0 40.38-18.07 40.38-40.37 0-22.301-18.07-40.34-40.37-40.34" fill="#ffffff"/>
 <circle cx="256" stroke="#fefefe" cy="256" r="181.13" stroke-width="18.771" fill="none"/>
</svg>
