<svg viewBox="0 0 512 512" xmlns="http://www.w3.org/2000/svg">
 <path d="m471.95 253.05c0 120.9-98.01 218.91-218.91 218.91-120.9 0-218.91-98.01-218.91-218.91 0-120.9 98.01-218.91 218.91-218.91 120.9 0 218.91 98.01 218.91 218.91" fill="#4273b6" fill-rule="evenodd"/>
 <path d="m158 115.93c-6.864.154-15 .827-24.15 1.969-13.357 1.669-15.07 2.557-15.07 8.135 0 5.453 1.729 6.473 12.673 7.707 7.125.803 14.743 3.634 17.554 6.508 8.458 8.648 40.767 63.6 59.17 100.7l17.468 35.28v47.44c0 46.1-.176 47.596-6.165 51.805-3.391 2.383-10.789 5.579-16.441 7.107-7.437 2.01-10.275 4.245-10.275 8.135 0 5.151 2.168 5.395 52.06 5.395 49.895 0 52.06-.244 52.06-5.395 0-3.89-2.838-6.124-10.275-8.135-5.652-1.528-13.05-4.724-16.441-7.107-5.982-4.205-6.165-5.681-6.165-50.864v-46.582l14.643-28c8.08-15.369 23.45-45.25 34.17-66.45 10.716-21.2 21.793-40.639 24.575-43.16 2.783-2.518 9.913-6.262 15.841-8.306 7.434-2.564 11.04-5.518 11.646-9.59.865-5.831.365-5.908-41.958-5.908-41.981 0-42.816.102-41.958 5.737.588 3.865 4.263 6.925 11.303 9.334 5.764 1.972 11.312 4.45 12.331 5.48 2.154 2.18-49.49 104.12-52.747 104.12-1.201 0-11.16-17.601-22.18-39.13-21.551-42.12-42.38-77.14-49.41-82.974-2.922-2.425-10.824-3.511-22.264-3.254m250.12 175.71l-23.21 66.02h14.985l4.795-15.67h23.976l4.795 15.67h14.985l-23.291-66.02h-17.04m-128.7.257v65.763h13.958v-23.377h5.908c8.161 0 14.513-1.901 18.924-5.651 4.441-3.751 6.593-9.103 6.593-16.184 0-6.811-2.08-11.993-6.251-15.413-4.141-3.45-10.172-5.138-18.15-5.138h-20.979m57.971 0v65.763h13.958v-23.377h5.908c8.161 0 14.513-1.901 18.924-5.651 4.441-3.751 6.593-9.103 6.593-16.184 0-6.811-2.08-11.993-6.251-15.413-4.141-3.45-10.172-5.138-18.15-5.138h-20.979m79.29 9.933c.24 1.08.659 2.507 1.199 4.367.57 1.86 3.039 9.955 7.45 24.15h-17.13c4.681-15.15 7.487-24.674 8.477-28.514m-123.31 1.456h6.337c3.811 0 6.536.837 8.306 2.398 1.8 1.56 2.74 3.922 2.74 7.193 0 3.241-1.038 5.74-3.168 7.45-2.13 1.68-5.385 2.483-9.676 2.483h-4.538v-19.523m57.971 0h6.337c3.811 0 6.536.837 8.306 2.398 1.8 1.56 2.74 3.922 2.74 7.193 0 3.241-1.038 5.74-3.168 7.45-2.13 1.68-5.385 2.483-9.676 2.483h-4.538v-19.523" fill="#ffffff" fill-rule="evenodd"/>
 <circle cx="256" stroke="#fefefe" cy="256" r="181.13" stroke-width="18.771" fill="none"/>
</svg>
