<?xml version="1.0" encoding="UTF-8" standalone="no"?>
<svg xmlns="http://www.w3.org/2000/svg" xmlns:xlink="http://www.w3.org/1999/xlink" width="64" viewBox="0 0 64 64" height="64" version="1.1">
 <defs>
  <linearGradient xlink:href="#linearGradient4422-8" id="linearGradient4182" x1="-74.929" y1="52.199" x2="-75.26" y2="2.356" gradientUnits="userSpaceOnUse" gradientTransform="matrix(1.0749904,0,0,1.0292896,56.688954,-0.01528455)"/>
  <linearGradient id="linearGradient4422-8">
   <stop style="stop-color:#259ee1;stop-opacity:1" offset="0"/>
   <stop style="stop-color:#19b4fd;stop-opacity:1" offset="1"/>
  </linearGradient>
 </defs>
 <g transform="translate(56.391766,-0.17677665)">
  <rect ry="2.5" y="54.48" x="-46.39" height="7.699" width="44" style="opacity:1;fill:#104663;fill-opacity:1;"/>
  <rect ry="2.5" y="1.65" x="-46.39" height="52.832" width="44" style="opacity:1;fill:url(#linearGradient4182);fill-opacity:1.0;"/>
  <rect ry="0" y="51.26" x="-46.39" height="7.912" width="44" style="opacity:1;fill:#104663;fill-opacity:1;"/>
  <g style="font-size:9.36996746px;line-height:125%;letter-spacing:0px;word-spacing:0px;fill:#ffffff;fill-opacity:1;" transform="matrix(0.81954967,0,0,0.81954967,-4.5342825,10.221831)">
   <g style="font-size:13.75px;line-height:125%;letter-spacing:0px;word-spacing:0px;fill:#ffffff;fill-opacity:1;">
    <path d="m -35.95625,59.820313 q -0.95,0 -1.64,-0.75 -0.69,-0.75 -0.69,-1.86 0,-1.11 0.69,-1.86 0.69,-0.75 1.64,-0.75 0.56,0 1,0.24 0.45,0.24 0.67,0.6 l 0.04,0 -0.04,-0.68 0,-2.26 0.92,0 0,7.16 -0.88,0 0,-0.68 -0.04,0 q -0.22,0.36 -0.67,0.6 -0.44,0.24 -1,0.24 z m 0.15,-0.84 q 0.65,0 1.1,-0.48 0.46,-0.48 0.46,-1.29 0,-0.81 -0.46,-1.29 -0.45,-0.48 -1.1,-0.48 -0.64,0 -1.1,0.49 -0.46,0.48 -0.46,1.28 0,0.8 0.46,1.29 0.46,0.48 1.1,0.48 z" style="font-size:10px;font-family:'Product Sans';fill:#ffffff;fill-opacity:1"/>
    <path d="m -30.083125,59.820313 q -1.11,0 -1.81,-0.74 -0.69,-0.74 -0.69,-1.87 0,-1.07 0.67,-1.84 0.68,-0.77 1.73,-0.77 1.09,0 1.74,0.71 0.66,0.71 0.66,1.9 l -0.01,0.17 -3.87,0 q 0.04,0.74 0.49,1.17 0.46,0.43 1.07,0.43 0.99,0 1.34,-0.84 l 0.82,0.34 q -0.24,0.57 -0.79,0.96 -0.55,0.38 -1.35,0.38 z m 1.32,-3.2 q -0.03,-0.42 -0.39,-0.8 -0.35,-0.38 -1.05,-0.38 -0.51,0 -0.89,0.32 -0.37,0.32 -0.51,0.86 l 2.84,0 z" style="font-size:10px;font-family:'Product Sans';fill:#ffffff;fill-opacity:1"/>
    <path d="m -25.072969,59.820313 q -0.82,0 -1.36,-0.4 -0.53,-0.4 -0.78,-1 l 0.82,-0.34 q 0.39,0.92 1.33,0.92 0.43,0 0.7,-0.19 0.28,-0.19 0.28,-0.5 0,-0.48 -0.67,-0.65 l -0.99,-0.24 q -0.47,-0.12 -0.89,-0.45 -0.42,-0.34 -0.42,-0.91 0,-0.65 0.57,-1.05 0.58,-0.41 1.37,-0.41 0.65,0 1.16,0.3 0.51,0.29 0.73,0.84 l -0.8,0.33 q -0.27,-0.65 -1.12,-0.65 -0.41,0 -0.69,0.17 -0.28,0.17 -0.28,0.46 0,0.42 0.65,0.57 l 0.97,0.23 q 0.69,0.16 1.02,0.55 0.33,0.39 0.33,0.88 0,0.66 -0.54,1.1 -0.54,0.44 -1.39,0.44 z" style="font-size:10px;font-family:'Product Sans';fill:#ffffff;fill-opacity:1"/>
    <path d="m -21.400781,53.530313 q -0.19,0.19 -0.46,0.19 -0.27,0 -0.46,-0.19 -0.19,-0.19 -0.19,-0.46 0,-0.27 0.19,-0.46 0.19,-0.19 0.46,-0.19 0.27,0 0.46,0.19 0.19,0.19 0.19,0.46 0,0.27 -0.19,0.46 z m 0,6.13 -0.92,0 0,-4.9 0.92,0 0,4.9 z" style="font-size:10px;font-family:'Product Sans';fill:#ffffff;fill-opacity:1"/>
    <path d="m -18.122344,61.980313 q -0.87,0 -1.42,-0.44 -0.55,-0.43 -0.79,-0.99 l 0.84,-0.35 q 0.14,0.4 0.51,0.67 0.38,0.27 0.86,0.27 0.76,0 1.19,-0.46 0.44,-0.45 0.44,-1.23 l 0,-0.47 -0.04,0 q -0.24,0.36 -0.68,0.6 -0.44,0.24 -0.99,0.24 -0.95,0 -1.64,-0.75 -0.69,-0.75 -0.69,-1.86 0,-1.11 0.69,-1.86 0.69,-0.75 1.64,-0.75 0.55,0 0.99,0.24 0.44,0.24 0.68,0.6 l 0.04,0 0,-0.68 0.88,0 0,4.65 q 0,1.26 -0.73,1.91 -0.73,0.66 -1.78,0.66 z m 0.07,-3 q 0.65,0 1.1,-0.48 0.46,-0.48 0.46,-1.29 0,-0.81 -0.46,-1.29 -0.45,-0.48 -1.1,-0.48 -0.64,0 -1.1,0.49 -0.46,0.48 -0.46,1.28 0,0.8 0.46,1.29 0.46,0.48 1.1,0.48 z" style="font-size:10px;font-family:'Product Sans';fill:#ffffff;fill-opacity:1"/>
    <path d="m -13.610625,54.760313 0,0.68 0.04,0 q 0.2,-0.35 0.63,-0.59 0.43,-0.25 0.92,-0.25 0.91,0 1.39,0.56 0.48,0.56 0.48,1.5 l 0,3 -0.92,0 0,-2.86 q 0,-1.36 -1.21,-1.36 -0.57,0 -0.93,0.46 -0.36,0.45 -0.36,1.05 l 0,2.71 -0.92,0 0,-4.9 0.88,0 z" style="font-size:10px;font-family:'Product Sans';fill:#ffffff;fill-opacity:1"/>
   </g>
  </g>
  <path style="fill:#104563;fill-opacity:1;fill-rule:evenodd;" d="m -24.342028,26.797389 c 0.955083,0 0.595894,1.129157 0,1.392176 -1.000925,0.441785 -2.025377,-0.432145 -2.235231,-1.392176 -0.316639,-1.448616 0.846324,-2.766698 2.235231,-2.971045 1.814409,-0.266942 3.412333,1.198517 3.606056,2.971045 0.236447,2.163508 -1.500506,4.040659 -3.606056,4.226534 -2.468776,0.217929 -4.592749,-1.79129 -4.770185,-4.226534 -0.202573,-2.780261 2.046383,-5.159302 4.770185,-5.331054 3.051203,-0.192392 5.652326,2.306795 5.817586,5.331054 0.182516,3.339953 -2.533571,6.179426 -5.817586,6.34048 -3.58697,0.175913 -6.630086,-2.775105 -6.785958,-6.34048 -0.168741,-3.860033 2.981926,-7.129452 6.785958,-7.28209 4.08875,-0.164062 7.54732,3.210352 7.695652,7.28209 0.158485,4.350229 -3.401861,8.025985 -7.695652,8.171763 -4.564173,0.154972 -8.4172,-3.620581 -8.559315,-8.171763 -0.150409,-4.816701 3.799705,-8.879774 8.559315,-9.019823 5.018262,-0.147667 9.24856,4.010927 9.385419,9.019823 0.14381,5.263655 -4.179683,9.698271 -9.385419,9.833422 -5.454565,0.141627 -10.047697,-4.384908 -10.180023,-9.833422 -0.138294,-5.69415 4.544728,-10.486901 10.180023,-10.617818 5.875688,-0.136491 10.819292,4.745098 10.947662,10.617818 0.133565,6.110471 -4.897058,11.249787 -10.947662,11.376969 -4.919654,0.103356 -9.438976,-3.109757 -11.049738,-7.7694"/>
 </g>
</svg>
