<?xml version="1.0" encoding="UTF-8" standalone="no"?>
<svg xmlns="http://www.w3.org/2000/svg" xmlns:xlink="http://www.w3.org/1999/xlink" width="64" viewBox="0 0 64 64" height="64" version="1.1">
 <defs>
  <linearGradient xlink:href="#linearGradient4422-7" id="linearGradient4182" x1="-74.929" y1="52.199" x2="-75.26" y2="2.356" gradientUnits="userSpaceOnUse" gradientTransform="matrix(1.0749904,0,0,1.0292896,56.688954,-0.01528455)"/>
  <linearGradient id="linearGradient4422-7">
   <stop offset="0" style="stop-color:#cd2619;stop-opacity:1"/>
   <stop offset="1" style="stop-color:#ff5c4d;stop-opacity:1"/>
  </linearGradient>
 </defs>
 <g transform="translate(56.391766,-0.17677665)">
  <rect ry="2.5" y="54.48" x="-46.39" height="7.699" width="44" style="opacity:1;fill:#5b130d;fill-opacity:1;"/>
  <rect ry="2.5" y="1.65" x="-46.39" height="52.832" width="44" style="opacity:1;fill:url(#linearGradient4182);fill-opacity:1.0;"/>
  <rect ry="0" y="51.26" x="-46.39" height="7.912" width="44" style="opacity:1;fill:#5b130d;fill-opacity:1;"/>
  <g transform="matrix(0.84688321,0,0,0.84688321,-416.84979,-419.33873)">
   <g transform="matrix(1.5263052,0,0,1.5263052,376.49864,-1040.1735)">
    <g transform="matrix(0.42549858,0,0,0.42549858,-116.82388,804.06163)">
     <rect style="opacity:1;fill:#5b130d;fill-opacity:1;" width="36" height="40" x="390.57" y="503.8" ry="2"/>
     <g style="fill:#ffffff;fill-opacity:1" transform="translate(-0.71741557,0.01714041)">
      <rect style="opacity:0.92900002;fill:#ffffff;fill-opacity:1;" width="4" height="2" x="407.36" y="504.89" ry=".889"/>
      <rect style="opacity:0.92900002;fill:#ffffff;fill-opacity:1;" width="4" height="2" x="407.35" y="507.79" ry=".889"/>
      <rect style="opacity:0.92900002;fill:#ffffff;fill-opacity:1;" width="4" height="2" x="407.33" y="510.64" ry=".889"/>
      <rect style="opacity:0.92900002;fill:#ffffff;fill-opacity:1;" width="4" height="2" x="407.37" y="513.62" ry=".889"/>
      <rect style="opacity:0.92900002;fill:#ffffff;fill-opacity:1;" width="4" height="2" x="407.37" y="516.54" ry=".889"/>
     </g>
     <rect style="opacity:0.92900002;fill:#ffffff;fill-opacity:1;" width="4" height="2" x="406.65" y="519.55" ry=".889"/>
     <path d="m 410.11783,524.47214 0,-1.26212 c 0,-0.35164 -0.28416,-0.63683 -0.63453,-0.63683 l -1.76295,0 c -0.35037,0 -0.6346,0.28526 -0.6346,0.63683 l 0,1.2615 -0.98056,2.89118 c -0.27435,0.80579 -0.14271,1.70105 0.35164,2.39489 0.49436,0.69257 1.29597,1.10622 2.14496,1.10622 0.84916,0 1.65084,-0.41365 2.14519,-1.10622 0.49435,-0.69384 0.62583,-1.5891 0.35156,-2.39426 z m -0.40955,4.53977 c -0.50867,0.71448 -1.70431,0.71448 -2.21306,0 -0.25497,-0.35792 -0.32285,-0.8196 -0.18195,-1.23564 l 0.32909,-0.96974 1.91878,0 0.32918,0.97037 c 0.14096,0.41541 0.0729,0.87709 -0.18204,1.23501 z" style="opacity:1;fill:#ffffff;fill-opacity:1"/>
    </g>
   </g>
  </g>
  <g style="font-size:13.75px;line-height:125%;letter-spacing:0px;word-spacing:0px;fill:#000000;fill-opacity:1;" transform="matrix(0.59731534,0,0,0.59731534,53.282085,30.0676)">
   <path d="m -135.46757,49.800281 q -1.05875,0 -1.6225,-0.56375 -0.55,-0.56375 -0.55,-1.595 l 0,-3.53375 -1.1825,0 0,-1.155 1.1825,0 0,-2.0625 1.265,0 0,2.0625 1.65,0 0,1.155 -1.65,0 0,3.4375 q 0,1.1 0.9075,1.1 0.34375,0 0.5775,-0.11 l 0.44,1.08625 q -0.4125,0.17875 -1.0175,0.17875 z" style="font-family:'Product Sans';fill:#ffffff;fill-opacity:1"/>
   <path d="m -132.17617,39.845281 0,3.1075 -0.055,0.935 0.055,0 q 0.275,-0.48125 0.86625,-0.81125 0.59125,-0.34375 1.265,-0.34375 1.25125,0 1.91125,0.77 0.66,0.77 0.66,2.0625 l 0,4.125 -1.265,0 0,-3.9325 q 0,-1.87 -1.66375,-1.87 -0.78375,0 -1.27875,0.6325 -0.495,0.61875 -0.495,1.44375 l 0,3.72625 -1.265,0 0,-9.845 1.265,0 z" style="font-family:'Product Sans';fill:#ffffff;fill-opacity:1"/>
   <path d="m -123.92466,49.910281 q -1.0725,0 -1.80125,-0.61875 -0.715,-0.61875 -0.715,-1.63625 0,-1.1 0.8525,-1.71875 0.8525,-0.6325 2.10375,-0.6325 1.11375,0 1.82875,0.4125 l 0,-0.1925 q 0,-0.7425 -0.50875,-1.1825 -0.50875,-0.45375 -1.25125,-0.45375 -0.55,0 -1.00375,0.26125 -0.44,0.26125 -0.605,0.715 l -1.155,-0.495 q 0.23375,-0.605 0.92125,-1.11375 0.6875,-0.5225 1.815,-0.5225 1.2925,0 2.145,0.75625 0.8525,0.75625 0.8525,2.13125 l 0,4.07 -1.21,0 0,-0.935 -0.055,0 q -0.75625,1.155 -2.21375,1.155 z m 0.20625,-1.155 q 0.78375,0 1.41625,-0.5775 0.64625,-0.59125 0.64625,-1.38875 -0.53625,-0.44 -1.60875,-0.44 -0.92125,0 -1.38875,0.39875 -0.4675,0.39875 -0.4675,0.935 0,0.495 0.42625,0.78375 0.42625,0.28875 0.97625,0.28875 z" style="font-family:'Product Sans';fill:#ffffff;fill-opacity:1"/>
  </g>
 </g>
</svg>
