<?xml version="1.0" encoding="UTF-8" standalone="no"?>
<svg xmlns="http://www.w3.org/2000/svg" xmlns:xlink="http://www.w3.org/1999/xlink" width="64" viewBox="0 0 64 64" height="64" version="1.1">
 <defs>
  <linearGradient xlink:href="#linearGradient8449" id="linearGradient4182" x1="-74.929" y1="52.199" x2="-75.26" y2="2.356" gradientUnits="userSpaceOnUse" gradientTransform="matrix(1.0749904,0,0,1.0292896,56.688954,-0.01528455)"/>
  <linearGradient id="linearGradient8449">
   <stop offset="0" style="stop-color:#aa49ee;stop-opacity:1"/>
   <stop offset="1" style="stop-color:#f461d4;stop-opacity:1"/>
  </linearGradient>
 </defs>
 <g transform="translate(56.391766,-0.17677665)">
  <rect ry="2.5" y="54.48" x="-46.39" height="7.699" width="44" style="opacity:1;fill:#4d2167;fill-opacity:1;"/>
  <rect ry="2.5" y="1.65" x="-46.39" height="52.832" width="44" style="opacity:1;fill:url(#linearGradient4182);fill-opacity:1.0;"/>
  <rect ry="0" y="51.26" x="-46.39" height="7.912" width="44" style="opacity:1;fill:#4d2167;fill-opacity:1;"/>
  <g style="font-size:9.36996746px;line-height:125%;letter-spacing:0px;word-spacing:0px;fill:#ffffff;fill-opacity:1;" transform="matrix(0.81954967,0,0,0.81954967,-3.6342884,11.121832)">
   <g style="font-size:13.75px;line-height:125%;letter-spacing:0px;word-spacing:0px;fill:#ffffff;fill-opacity:1;">
    <path d="m -33.303035,52.256553 0,4.41 2.12,-2.15 1.18,0 0,0.04 -1.91,1.91 2,2.91 0,0.04 -1.11,0 -1.54,-2.31 -0.74,0.74 0,1.57 -0.92,0 0,-7.16 0.92,0 z" style="font-size:10px;font-family:'Product Sans';fill:#ffffff;fill-opacity:1"/>
    <path d="m -28.478817,59.416553 -0.92,0 0,-4.9 0.88,0 0,0.8 0.04,0 q 0.14,-0.4 0.57,-0.66 0.44,-0.26 0.85,-0.26 0.41,0 0.69,0.12 l -0.35,0.86 q -0.18,-0.07 -0.49,-0.07 -0.5,0 -0.89,0.4 -0.38,0.39 -0.38,1.03 l 0,2.68 z" style="font-size:10px;font-family:'Product Sans';fill:#ffffff;fill-opacity:1"/>
    <path d="m -24.766004,53.286553 q -0.19,0.19 -0.46,0.19 -0.27,0 -0.46,-0.19 -0.19,-0.19 -0.19,-0.46 0,-0.27 0.19,-0.46 0.19,-0.19 0.46,-0.19 0.27,0 0.46,0.19 0.19,0.19 0.19,0.46 0,0.27 -0.19,0.46 z m 0,6.13 -0.92,0 0,-4.9 0.92,0 0,4.9 z" style="font-size:10px;font-family:'Product Sans';fill:#ffffff;fill-opacity:1"/>
    <path d="m -21.497567,59.496553 q -0.77,0 -1.18,-0.41 -0.4,-0.41 -0.4,-1.16 l 0,-2.57 -0.86,0 0,-0.84 0.86,0 0,-1.5 0.92,0 0,1.5 1.2,0 0,0.84 -1.2,0 0,2.5 q 0,0.8 0.66,0.8 0.25,0 0.42,-0.08 l 0.32,0.79 q -0.3,0.13 -0.74,0.13 z" style="font-size:10px;font-family:'Product Sans';fill:#ffffff;fill-opacity:1"/>
    <path d="m -18.630067,59.576553 q -0.78,0 -1.31,-0.45 -0.52,-0.45 -0.52,-1.19 0,-0.8 0.62,-1.25 0.62,-0.46 1.53,-0.46 0.81,0 1.33,0.3 l 0,-0.14 q 0,-0.54 -0.37,-0.86 -0.37,-0.33 -0.91,-0.33 -0.4,0 -0.73,0.19 -0.32,0.19 -0.44,0.52 l -0.84,-0.36 q 0.17,-0.44 0.67,-0.81 0.5,-0.38 1.32,-0.38 0.94,0 1.56,0.55 0.62,0.55 0.62,1.55 l 0,2.96 -0.88,0 0,-0.68 -0.04,0 q -0.55,0.84 -1.61,0.84 z m 0.15,-0.84 q 0.57,0 1.03,-0.42 0.47,-0.43 0.47,-1.01 -0.39,-0.32 -1.17,-0.32 -0.67,0 -1.01,0.29 -0.34,0.29 -0.34,0.68 0,0.36 0.31,0.57 0.31,0.21 0.71,0.21 z" style="font-size:10px;font-family:'Product Sans';fill:#ffffff;fill-opacity:1"/>
   </g>
   <g transform="matrix(0.9225662,0,0,0.9225662,-458.83225,-462.93627)" style="fill:#4d2167;fill-opacity:1">
    <g transform="matrix(0.07020267,0,0,0.07020267,454.21532,507.91458)" style="opacity:0.84600004;fill:#4d2167;fill-opacity:1">
     <g style="fill:#4d2167;fill-opacity:1">
      <path d="m 296.003,284.517 -52.542,-30.805 c -2.865,0.345 -5.734,0.913 -8.59,1.73 -13.717,3.937 -33.557,15.227 -50.186,46.668 -13.202,24.961 -8.33,46.331 -4.031,65.187 4.108,18.023 7.354,32.259 -4.718,46.5 -1.187,1.399 -1.511,3.336 -0.845,5.047 0.419,1.076 1.188,1.952 2.15,2.512 0.571,0.33 1.21,0.551 1.885,0.637 30.535,3.836 76.235,-14.17 104.421,-62.771 12.802,-22.074 18.3,-43.299 15.902,-61.38 -0.624,-4.717 -1.796,-9.17 -3.446,-13.325 z" style="fill:#4d2167;fill-opacity:1"/>
      <path d="m 418.939,11.153 c -10.538,-6.111 -24.009,-3.033 -30.847,7.05 -4.299,6.338 -105.41,155.47 -118.428,177.916 -6.509,11.224 -13.845,29.443 -19.947,46.1 l 52.542,30.805 c 11.443,-13.576 23.674,-29.061 30.275,-40.443 13.17,-22.708 92.25,-184.284 95.609,-191.151 5.357,-10.945 1.337,-24.166 -9.204,-30.277 z" style="fill:#4d2167;fill-opacity:1"/>
      <path d="m 166.592,341.074 c -4.498,-1.502 -8.881,-2.384 -13.327,-2.657 -0.747,-0.046 -1.549,-0.069 -2.383,-0.069 -6.69,0 -15.097,1.466 -23.227,2.884 -7.245,1.265 -14.089,2.457 -18.864,2.457 -3.359,0 -4.52,-0.616 -4.895,-0.936 -4.059,-5.095 1.807,-18.923 4.318,-24.849 0.642,-1.512 1.148,-2.706 1.44,-3.559 4.072,-11.981 7.063,-24.737 1.425,-36.843 -4.687,-10.065 -15.643,-18.076 -27.824,-20.391 -3.548,-0.838 -7.62,-1.228 -12.816,-1.228 -4.277,0 -8.854,0.271 -13.281,0.534 -4.54,0.27 -9.235,0.548 -13.731,0.548 -15.464,0 -24.366,-3.528 -29.749,-11.769 -9.992,-15.865 2.009,-44.283 14.332,-56.117 0.758,-0.728 0.823,-1.918 0.149,-2.725 -0.675,-0.807 -1.857,-0.955 -2.708,-0.337 -15.781,11.433 -26.229,32.205 -25.406,50.514 0.439,9.764 4.197,23.327 19.612,32.506 8.298,4.94 21.718,5.98 34.696,6.986 12.768,0.989 25.971,2.013 30.04,6.977 1.066,1.301 1.472,2.876 1.233,4.859 -0.888,9.078 -5.293,18.018 -9.554,26.661 -8.047,16.327 -16.368,33.209 -1.986,51.944 12.631,16.451 29.399,16.451 46.625,16.331 1.41,-0.01 2.823,-0.02 4.235,-0.02 7.515,0 16.196,0.23 24.068,2.972 5.602,2.171 8.419,6.662 9.737,15.571 1.009,5.462 3.436,9.762 6.657,13 0.471,-2.511 1.577,-4.904 3.29,-6.927 8.458,-9.986 6.803,-19.319 2.577,-37.812 -1.962,-8.595 -4.137,-18.122 -4.683,-28.505 z" style="fill:#4d2167;fill-opacity:1"/>
     </g>
    </g>
   </g>
  </g>
 </g>
</svg>
