<?xml version="1.0" encoding="UTF-8" standalone="no"?>
<svg xmlns="http://www.w3.org/2000/svg" xmlns:xlink="http://www.w3.org/1999/xlink" width="64" viewBox="0 0 64 64" height="64" version="1.1">
 <defs>
  <linearGradient xlink:href="#linearGradient4531-1" id="linearGradient4182" x1="-74.929" y1="52.199" x2="-75.26" y2="2.356" gradientUnits="userSpaceOnUse" gradientTransform="matrix(1.0749904,0,0,1.0292896,56.688954,-0.01528455)"/>
  <linearGradient id="linearGradient4531-1">
   <stop style="stop-color:#ff4a61;stop-opacity:1" offset="0"/>
   <stop style="stop-color:#ff6b91;stop-opacity:1" offset="1"/>
  </linearGradient>
 </defs>
 <g transform="translate(56.391766,-0.17677665)">
  <rect ry="2.5" y="54.48" x="-46.39" height="7.699" width="44" style="opacity:1;fill:#6f222c;fill-opacity:1;"/>
  <rect ry="2.5" y="1.65" x="-46.39" height="52.832" width="44" style="opacity:1;fill:url(#linearGradient4182);fill-opacity:1.0;"/>
  <rect ry="0" y="51.26" x="-46.39" height="7.912" width="44" style="opacity:1;fill:#6f222d;fill-opacity:1;"/>
  <g style="fill:#6b162c;fill-opacity:1" transform="matrix(1.456572,0,0,1.456572,-600.24957,-691.07714)">
   <g transform="translate(391.86698,-549.29542)" style="fill:#6f222d;fill-opacity:1">
    <g transform="translate(-401.01229,510.63371)" style="fill:#6f222d;fill-opacity:1">
     <g transform="translate(5.05585,-5.251147)" style="fill:#6f222d;fill-opacity:1">
      <g style="fill:#6f222d;fill-opacity:1;stroke:#000000;stroke-opacity:0.8" transform="translate(-11.317,5.8824915)">
       <g transform="matrix(1.338559,0,0,1.338559,-142.64928,-182.70145)" style="fill:#6f222d;fill-opacity:1">
        <g transform="translate(-2.0518724,-0.97858527)" style="fill:#6f222d;fill-opacity:1">
         <g transform="translate(0.22097092,0.44194173)" style="fill:#6f222d;fill-opacity:1">
          <g transform="translate(1.3573925,-1.2626907)" style="fill:#6f222d;fill-opacity:1">
           <g transform="translate(-0.41037448,-0.59977801)" style="fill:#6f222d;fill-opacity:1">
            <g transform="matrix(0.7863692,0,0,0.78394543,92.594038,111.881)" style="fill:#6f222d;fill-opacity:1">
             <g transform="matrix(1.2716673,0,0,1.275599,-114.25636,-140.42007)" style="fill:#6f222d;fill-opacity:1">
              <g transform="matrix(0.7863692,0,0,0.78394543,93.325829,112.35451)" style="fill:#6f222d;fill-opacity:1">
               <g style="fill:#6f222d;fill-opacity:1" transform="matrix(0.91314361,0,0,0.91314362,29.438747,44.019704)">
                <g style="fill:#6f222d;fill-opacity:1;" transform="matrix(0.07547167,0,0,0.07570501,371.47994,519.52377)">
                 <g style="fill:#6f222d;fill-opacity:1;" transform="matrix(0.42911434,0,0,0.42911434,419.00057,175.00057)">
                  <g style="fill:#6f222d;fill-opacity:1;">
                   <path style="fill:#6f222d;fill-opacity:1;" d="m 121.305,30.327 242.604,0 0,60.651 30.327,0 0,-60.651 C 394.236,13.595 380.674,0 363.909,0 L 121.305,0 C 104.574,0 90.978,13.595 90.978,30.327 l 0,60.651 30.327,0 0,-60.651 z"/>
                   <path style="fill:#6f222d;fill-opacity:1;" d="m 454.89,121.304 -424.562,0 c -16.731,0 -30.327,13.591 -30.327,30.324 l 0,151.629 c 0,16.764 13.595,30.327 30.327,30.327 l 60.651,0 0,121.302 c 0,16.764 13.595,30.326 30.327,30.326 l 242.604,0 c 16.765,0 30.327,-13.562 30.327,-30.326 l 0,-121.302 60.653,0 c 16.759,0 30.322,-13.563 30.322,-30.327 l 0,-151.629 c 0,-16.733 -13.564,-30.324 -30.322,-30.324 z m -90.981,333.582 -242.604,0 0,-212.28 242.604,0 0,212.28 z m 60.653,-242.604 c -16.764,0 -30.326,-13.564 -30.326,-30.327 0,-16.731 13.562,-30.327 30.326,-30.327 16.765,0 30.327,13.595 30.327,30.327 10e-4,16.762 -13.562,30.327 -30.327,30.327 z"/>
                   <rect style="fill:#6f222d;fill-opacity:1;" x="151.63" y="272.93" width="121.304" height="30.327"/>
                   <rect style="fill:#6f222d;fill-opacity:1;" x="151.63" y="333.58" width="181.958" height="30.321"/>
                   <rect style="fill:#6f222d;fill-opacity:1;" x="151.63" y="394.24" width="181.958" height="30.322"/>
                  </g>
                 </g>
                </g>
               </g>
              </g>
             </g>
            </g>
           </g>
          </g>
         </g>
        </g>
       </g>
      </g>
     </g>
    </g>
   </g>
  </g>
 </g>
</svg>
