<?xml version="1.0" encoding="UTF-8" standalone="no"?>
<svg xmlns="http://www.w3.org/2000/svg" xmlns:xlink="http://www.w3.org/1999/xlink" width="64" viewBox="0 0 64 64" height="64" version="1.1">
 <defs>
  <linearGradient xlink:href="#linearGradient4422" id="linearGradient4182" x1="-74.929" y1="52.199" x2="-75.26" y2="2.356" gradientUnits="userSpaceOnUse" gradientTransform="matrix(1.0749904,0,0,1.0292896,56.688954,-0.01528455)"/>
  <linearGradient id="linearGradient4422">
   <stop style="stop-color:#f15f19;stop-opacity:1" offset="0"/>
   <stop style="stop-color:#fbb521;stop-opacity:1" offset="1"/>
  </linearGradient>
 </defs>
 <g transform="translate(56.391766,-0.17677665)">
  <rect ry="2.5" y="54.48" x="-46.39" height="7.699" width="44" style="opacity:1;fill:#222425;fill-opacity:1;"/>
  <rect ry="2.5" y="1.65" x="-46.39" height="52.832" width="44" style="opacity:1;fill:url(#linearGradient4182);fill-opacity:1.0;"/>
  <rect ry="0" y="51.26" x="-46.39" height="7.912" width="44" style="opacity:1;fill:#222425;fill-opacity:1;"/>
  <g style="font-size:11.60182476px;line-height:125%;letter-spacing:0px;word-spacing:0px;fill:#ffffff;fill-opacity:1;" transform="matrix(0.93906002,0,0,0.93906002,-1.6568398,3.6427952)">
   <path d="m -34.848403,59.563798 q -0.47251,0 -0.852206,-0.202504 -0.371259,-0.202505 -0.556888,-0.506262 l -0.03375,0 0,0.573763 -0.742516,0 0,-6.041386 0.776267,0 0,1.906918 -0.03375,0.573763 0.03375,0 q 0.185629,-0.303757 0.556888,-0.506262 0.379696,-0.202504 0.852206,-0.202504 0.801581,0 1.383782,0.632827 0.5822,0.632826 0.5822,1.56941 0,0.936584 -0.5822,1.56941 -0.582201,0.632827 -1.383782,0.632827 z m -0.126565,-0.708766 q 0.540012,0 0.928146,-0.405009 0.388134,-0.413447 0.388134,-1.088462 0,-0.675015 -0.388134,-1.080024 -0.388134,-0.413447 -0.928146,-0.413447 -0.54845,0 -0.936584,0.405009 -0.379696,0.405009 -0.379696,1.088462 0,0.683453 0.379696,1.088462 0.388134,0.405009 0.936584,0.405009 z" style="font-size:8.43769073px;font-family:'Product Sans';fill:#ffffff;fill-opacity:1"/>
   <path d="m -31.445377,59.428795 -0.776267,0 0,-6.041386 0.776267,0 0,6.041386 z" style="font-size:8.43769073px;font-family:'Product Sans';fill:#ffffff;fill-opacity:1"/>
   <path d="m -28.68401,59.563798 q -0.936584,0 -1.527222,-0.624389 -0.582201,-0.624389 -0.582201,-1.577848 0,-0.902833 0.565325,-1.552535 0.573763,-0.649702 1.459721,-0.649702 0.919708,0 1.468158,0.599076 0.556888,0.599076 0.556888,1.603161 l -0.0084,0.143441 -3.265386,0 q 0.03375,0.624389 0.413446,0.98721 0.388134,0.36282 0.902833,0.36282 0.835332,0 1.130651,-0.708766 l 0.69189,0.286882 q -0.202504,0.480948 -0.666577,0.810018 -0.464073,0.320632 -1.139088,0.320632 z m 1.113775,-2.700061 q -0.02531,-0.354383 -0.32907,-0.675015 -0.295319,-0.320632 -0.885958,-0.320632 -0.430322,0 -0.750954,0.270006 -0.312195,0.270006 -0.430322,0.725641 l 2.396304,0 z" style="font-size:8.43769073px;font-family:'Product Sans';fill:#ffffff;fill-opacity:1"/>
   <path d="m -25.299178,55.294327 0,0.573763 0.03375,0 q 0.168754,-0.295319 0.531575,-0.497824 0.362821,-0.210942 0.776267,-0.210942 0.76783,0 1.172839,0.47251 0.40501,0.472511 0.40501,1.265654 l 0,2.531307 -0.776268,0 0,-2.413179 q 0,-1.147526 -1.020961,-1.147526 -0.480948,0 -0.784705,0.388134 -0.303757,0.379696 -0.303757,0.885957 l 0,2.286614 -0.776267,0 0,-4.134468 0.742517,0 z" style="font-size:8.43769073px;font-family:'Product Sans';fill:#ffffff;fill-opacity:1"/>
   <path d="m -19.730566,59.563798 q -0.80158,0 -1.383781,-0.632827 -0.582201,-0.632826 -0.582201,-1.56941 0,-0.936584 0.582201,-1.56941 0.582201,-0.632827 1.383781,-0.632827 0.472511,0 0.843769,0.202504 0.379696,0.202505 0.565325,0.506262 l 0.03375,0 -0.03375,-0.573763 0,-1.906918 0.776268,0 0,6.041386 -0.742517,0 0,-0.573763 -0.03375,0 q -0.185629,0.303757 -0.565325,0.506262 -0.371258,0.202504 -0.843769,0.202504 z m 0.126565,-0.708766 q 0.54845,0 0.928146,-0.405009 0.388134,-0.405009 0.388134,-1.088462 0,-0.683453 -0.388134,-1.088462 -0.379696,-0.405009 -0.928146,-0.405009 -0.540012,0 -0.928145,0.413447 -0.388134,0.405009 -0.388134,1.080024 0,0.675015 0.388134,1.088462 0.388133,0.405009 0.928145,0.405009 z" style="font-size:8.43769073px;font-family:'Product Sans';fill:#ffffff;fill-opacity:1"/>
   <path d="m -14.775004,59.563798 q -0.936583,0 -1.527222,-0.624389 -0.5822,-0.624389 -0.5822,-1.577848 0,-0.902833 0.565325,-1.552535 0.573763,-0.649702 1.45972,-0.649702 0.919709,0 1.468159,0.599076 0.556887,0.599076 0.556887,1.603161 l -0.0084,0.143441 -3.265386,0 q 0.03375,0.624389 0.413447,0.98721 0.388134,0.36282 0.902833,0.36282 0.835331,0 1.13065,-0.708766 l 0.691891,0.286882 q -0.202504,0.480948 -0.666577,0.810018 -0.464073,0.320632 -1.139089,0.320632 z m 1.113775,-2.700061 q -0.02531,-0.354383 -0.32907,-0.675015 -0.295319,-0.320632 -0.885957,-0.320632 -0.430322,0 -0.750955,0.270006 -0.312194,0.270006 -0.430322,0.725641 l 2.396304,0 z" style="font-size:8.43769073px;font-family:'Product Sans';fill:#ffffff;fill-opacity:1"/>
   <path d="m -11.356422,59.428795 -0.776267,0 0,-4.134468 0.742517,0 0,0.675015 0.03375,0 q 0.118128,-0.337508 0.480949,-0.556888 0.371258,-0.21938 0.717203,-0.21938 0.3459458,0 0.5822012,0.101253 l -0.2953192,0.725641 q -0.151878,-0.05906 -0.413447,-0.05906 -0.421884,0 -0.750954,0.337508 -0.320633,0.32907 -0.320633,0.869082 l 0,2.261301 z" style="font-size:8.43769073px;font-family:'Product Sans';fill:#ffffff;fill-opacity:1"/>
  </g>
  <g transform="matrix(0.4930842,0,0,0.4930842,-226.70464,-231.09552)">
   <g transform="matrix(1.1146822,0,0,1.1146822,-46.226152,-60.063951)">
    <path style="opacity:1;fill:#ffffff;fill-opacity:1;" d="m 407.44643,503.77261 a 3.0003,3.0003 0 0 0 -1.70508,5.40234 l 3.41016,2.62305 -16.58008,0 a 3.0003,3.0003 0 1 0 0,6 l 7.51953,0 -12.2832,8.92383 a 3.0003,3.0003 0 1 0 3.52539,4.85351 l 6.27734,-4.56054 a 15.999973,15.999973 0 0 0 -0.0391,0.7832 15.999973,15.999973 0 0 0 16,16 15.999973,15.999973 0 0 0 16,-16 15.999973,15.999973 0 0 0 -6.95508,-13.19727 3.0003,3.0003 0 0 0 -0.21679,-0.18164 l -13,-10 a 3.0003,3.0003 0 0 0 -1.95313,-0.64648 z"/>
    <circle style="opacity:1;fill:#f7921e;fill-opacity:1;" r="10" cy="527.798" cx="413.571"/>
    <circle style="opacity:1;fill:#ffffff;fill-opacity:1;" r="4" cy="-527.798" cx="-413.571" transform="scale(-1,-1)"/>
   </g>
  </g>
 </g>
</svg>
