<?xml version="1.0" encoding="UTF-8" standalone="no"?>
<svg xmlns="http://www.w3.org/2000/svg" xmlns:xlink="http://www.w3.org/1999/xlink" width="64" viewBox="0 0 64 64" height="64" version="1.1">
 <defs>
  <linearGradient xlink:href="#linearGradient4422-1" id="linearGradient4182" x1="-74.929" y1="52.199" x2="-75.26" y2="2.356" gradientUnits="userSpaceOnUse" gradientTransform="matrix(1.0749904,0,0,1.0292896,56.688954,-0.01528455)"/>
  <linearGradient id="linearGradient4422-1">
   <stop style="stop-color:#8798a9;stop-opacity:1" offset="0"/>
   <stop style="stop-color:#aeb6be;stop-opacity:1" offset="1"/>
  </linearGradient>
 </defs>
 <g transform="translate(56.391766,-0.17677665)">
  <rect ry="2.5" y="54.48" x="-46.39" height="7.699" width="44" style="opacity:1;fill:#373e44;fill-opacity:1;"/>
  <rect ry="2.5" y="1.65" x="-46.39" height="52.832" width="44" style="opacity:1;fill:url(#linearGradient4182);fill-opacity:1.0;"/>
  <rect ry="0" y="51.26" x="-46.39" height="7.912" width="44" style="opacity:1;fill:#373e44;fill-opacity:1;"/>
  <g style="font-size:9.36996746px;line-height:125%;letter-spacing:0px;word-spacing:0px;fill:#ffffff;fill-opacity:1;" transform="matrix(0.81954967,0,0,0.81954967,-4.8343783,10.121731)">
   <g style="font-size:13.75px;line-height:125%;letter-spacing:0px;word-spacing:0px;fill:#ffffff;fill-opacity:1;">
    <path d="m -32.471641,60.430805 q -1.1,0 -1.81,-0.74 -0.71,-0.75 -0.71,-1.87 0,-1.12 0.71,-1.86 0.71,-0.75 1.81,-0.75 0.82,0 1.36,0.4 0.54,0.4 0.79,1.01 l -0.84,0.35 q -0.38,-0.92 -1.37,-0.92 -0.61,0 -1.08,0.5 -0.46,0.5 -0.46,1.27 0,0.77 0.46,1.27 0.47,0.5 1.08,0.5 1.03,0 1.42,-0.92 l 0.82,0.35 q -0.25,0.6 -0.81,1.01 -0.55,0.4 -1.37,0.4 z" style="font-size:10px;font-family:'Product Sans';fill:#ffffff;fill-opacity:1"/>
    <path d="m -28.576797,53.110805 0,2.26 -0.04,0.68 0.04,0 q 0.2,-0.35 0.63,-0.59 0.43,-0.25 0.92,-0.25 0.91,0 1.39,0.56 0.48,0.56 0.48,1.5 l 0,3 -0.92,0 0,-2.86 q 0,-1.36 -1.21,-1.36 -0.57,0 -0.93,0.46 -0.36,0.45 -0.36,1.05 l 0,2.71 -0.92,0 0,-7.16 0.92,0 z" style="font-size:10px;font-family:'Product Sans';fill:#ffffff;fill-opacity:1"/>
    <path d="m -22.575703,60.430805 q -0.78,0 -1.31,-0.45 -0.52,-0.45 -0.52,-1.19 0,-0.8 0.62,-1.25 0.62,-0.46 1.53,-0.46 0.81,0 1.33,0.3 l 0,-0.14 q 0,-0.54 -0.37,-0.86 -0.37,-0.33 -0.91,-0.33 -0.4,0 -0.73,0.19 -0.32,0.19 -0.44,0.52 l -0.84,-0.36 q 0.17,-0.44 0.67,-0.81 0.5,-0.38 1.32,-0.38 0.94,0 1.56,0.55 0.62,0.55 0.62,1.55 l 0,2.96 -0.88,0 0,-0.68 -0.04,0 q -0.55,0.84 -1.61,0.84 z m 0.15,-0.84 q 0.57,0 1.03,-0.42 0.47,-0.43 0.47,-1.01 -0.39,-0.32 -1.17,-0.32 -0.67,0 -1.01,0.29 -0.34,0.29 -0.34,0.68 0,0.36 0.31,0.57 0.31,0.21 0.71,0.21 z" style="font-size:10px;font-family:'Product Sans';fill:#ffffff;fill-opacity:1"/>
    <path d="m -13.088516,60.350805 q -0.77,0 -1.18,-0.41 -0.4,-0.41 -0.4,-1.16 l 0,-2.57 -0.86,0 0,-0.84 0.86,0 0,-1.5 0.92,0 0,1.5 1.2,0 0,0.84 -1.2,0 0,2.5 q 0,0.8 0.66,0.8 0.25,0 0.42,-0.08 l 0.32,0.79 q -0.3,0.13 -0.74,0.13 z m -5.04,-4.98 0,0.8 0.04,0 q 0.16,-0.43 0.59,-0.67 0.44,-0.25 0.96,-0.25 0.15,0 0.33,0.02 l 0,0.9 q -0.19,-0.02 -0.37,-0.02 -0.66,0 -1.09,0.39 -0.42,0.38 -0.42,1.05 l 0,2.68 -0.92,0 0,-4.9 0.88,0 z" style="font-size:10px;font-family:'Product Sans';fill:#ffffff;fill-opacity:1"/>
   </g>
  </g>
  <g style="fill:#373e44;fill-opacity:1" transform="matrix(0.68747662,0,0,0.68747662,-35.391597,16.288935)">
   <g style="fill:#373e44;fill-opacity:1">
    <g style="fill:#373e44;fill-opacity:1">
     <path style="fill:#373e44;fill-opacity:1" d="M 31.834,1.553 C 32.14,1.092 32.013,0.473 31.552,0.167 31.09,-0.138 30.472,-0.012 30.166,0.45 L 26.467,6.049 C 26.313,6.024 26.16,6.001 26,6.001 c -1.652,0 -3,1.347 -3,3 0,0.318 0.063,0.619 0.155,0.907 l -3.572,4.555 c -0.461,-0.288 -1,-0.462 -1.582,-0.462 -1.613,0 -2.924,1.283 -2.988,2.88 L 9.362,20.172 C 8.812,19.466 7.963,19.001 7,19.001 c -1.654,0 -3,1.347 -3,3 0,0.65 0.214,1.25 0.566,1.742 l -4.402,6.709 c -0.303,0.463 -0.175,1.082 0.287,1.385 0.169,0.111 0.36,0.164 0.548,0.164 0.326,0 0.646,-0.158 0.837,-0.451 l 4.375,-6.666 c 0.253,0.068 0.516,0.117 0.789,0.117 1.613,0 2.924,-1.281 2.988,-2.881 l 5.651,-3.289 c 0.549,0.707 1.398,1.17 2.361,1.17 1.654,0 3,-1.346 3,-3 0,-0.317 -0.062,-0.619 -0.153,-0.906 l 3.57,-4.554 c 0.461,0.287 1,0.461 1.582,0.461 1.653,0 3,-1.346 3,-3 0,-0.767 -0.298,-1.459 -0.771,-1.99 L 31.834,1.553 Z M 7,23.001 c -0.552,0 -1,-0.447 -1,-1 0,-0.551 0.448,-1 1,-1 0.552,0 1,0.449 1,1 0,0.553 -0.448,1 -1,1 z m 11,-5 c -0.552,0 -1,-0.447 -1,-1 0,-0.551 0.448,-1 1,-1 0.552,0 1,0.449 1,1 0,0.553 -0.448,1 -1,1 z m 8,-8 c -0.552,0 -1,-0.448 -1,-1 0,-0.551 0.448,-1 1,-1 0.552,0 1,0.449 1,1 0,0.552 -0.449,1 -1,1 z m -20,20 c -0.553,0 -1,0.449 -1,1 0,0.553 0.447,1 1,1 0.553,0 1,-0.447 1,-1 0,-0.551 -0.446,-1 -1,-1 z m 5,0 c -0.553,0 -1,0.449 -1,1 0,0.553 0.447,1 1,1 0.553,0 1,-0.447 1,-1 0,-0.551 -0.446,-1 -1,-1 z m 5,0 c -0.553,0 -1,0.449 -1,1 0,0.553 0.447,1 1,1 0.553,0 1,-0.447 1,-1 0,-0.551 -0.446,-1 -1,-1 z m 5,0 c -0.553,0 -1,0.449 -1,1 0,0.553 0.447,1 1,1 0.554,0 1,-0.447 1,-1 0,-0.551 -0.446,-1 -1,-1 z m 5,0 c -0.553,0 -1,0.449 -1,1 0,0.553 0.447,1 1,1 0.554,0 1,-0.447 1,-1 0,-0.551 -0.446,-1 -1,-1 z m 5,0 c -0.553,0 -1,0.449 -1,1 0,0.553 0.447,1 1,1 0.554,0 1,-0.447 1,-1 0,-0.551 -0.446,-1 -1,-1 z m -30,-3 c 0.553,0 1,-0.447 1,-1 0,-0.551 -0.447,-1 -1,-1 -0.553,0 -1,0.449 -1,1 0,0.553 0.447,1 1,1 z m 0,-5 c 0.553,0 1,-0.447 1,-1 0,-0.551 -0.447,-1 -1,-1 -0.553,0 -1,0.449 -1,1 0,0.553 0.447,1 1,1 z m 0,-5 c 0.553,0 1,-0.447 1,-1 0,-0.551 -0.447,-1 -1,-1 -0.553,0 -1,0.448 -1,1 0,0.553 0.447,1 1,1 z m 0,-5 c 0.553,0 1,-0.446 1,-1 0,-0.552 -0.447,-1 -1,-1 -0.553,0 -1,0.448 -1,1 0,0.555 0.447,1 1,1 z m 0,-5 c 0.553,0 1,-0.446 1,-1 0,-0.552 -0.447,-1 -1,-1 -0.553,0 -1,0.448 -1,1 0,0.555 0.447,1 1,1 z m 0,-5 c 0.553,0 1,-0.446 1,-1 0,-0.552 -0.447,-1 -1,-1 -0.553,0 -1,0.448 -1,1 0,0.555 0.447,1 1,1 z"/>
    </g>
   </g>
  </g>
 </g>
</svg>
