<?xml version="1.0" encoding="UTF-8" standalone="no"?>
<svg xmlns="http://www.w3.org/2000/svg" xmlns:xlink="http://www.w3.org/1999/xlink" width="64" viewBox="0 0 64 64" height="64" version="1.1">
 <defs>
  <linearGradient xlink:href="#linearGradient4422-1" id="linearGradient4182" x1="-74.929" y1="52.199" x2="-75.26" y2="2.356" gradientUnits="userSpaceOnUse" gradientTransform="matrix(1.0749904,0,0,1.0292896,56.688954,-0.01528455)"/>
  <linearGradient id="linearGradient4422-1">
   <stop offset="0" style="stop-color:#8798a9;stop-opacity:1"/>
   <stop offset="1" style="stop-color:#aeb6be;stop-opacity:1"/>
  </linearGradient>
 </defs>
 <g transform="translate(56.391766,-0.17677665)">
  <rect ry="2.5" y="54.48" x="-46.39" height="7.699" width="44" style="opacity:1;fill:#3d434a;fill-opacity:1;"/>
  <rect ry="2.5" y="1.65" x="-46.39" height="52.832" width="44" style="opacity:1;fill:url(#linearGradient4182);fill-opacity:1.0;"/>
  <rect ry="0" y="51.26" x="-46.39" height="7.912" width="44" style="opacity:1;fill:#3d434a;fill-opacity:1;"/>
  <g style="font-size:9.36996746px;line-height:125%;letter-spacing:0px;word-spacing:0px;fill:#ffffff;fill-opacity:1;" transform="matrix(0.81954967,0,0,0.81954967,-4.6342827,10.221831)">
   <g style="font-size:13.75px;line-height:125%;letter-spacing:0px;word-spacing:0px;fill:#ffffff;fill-opacity:1;">
    <path d="m -38.518632,59.820313 q -0.95,0 -1.64,-0.75 -0.69,-0.75 -0.69,-1.86 0,-1.11 0.69,-1.86 0.69,-0.75 1.64,-0.75 0.56,0 1,0.24 0.45,0.24 0.67,0.6 l 0.04,0 -0.04,-0.68 0,-2.26 0.92,0 0,7.16 -0.88,0 0,-0.68 -0.04,0 q -0.22,0.36 -0.67,0.6 -0.44,0.24 -1,0.24 z m 0.15,-0.84 q 0.65,0 1.1,-0.48 0.46,-0.48 0.46,-1.29 0,-0.81 -0.46,-1.29 -0.45,-0.48 -1.1,-0.48 -0.64,0 -1.1,0.49 -0.46,0.48 -0.46,1.28 0,0.8 0.46,1.29 0.46,0.48 1.1,0.48 z" style="font-size:10px;font-family:'Product Sans';fill:#ffffff;fill-opacity:1"/>
    <path d="m -32.645507,59.820313 q -1.11,0 -1.81,-0.74 -0.69,-0.74 -0.69,-1.87 0,-1.07 0.67,-1.84 0.68,-0.77 1.73,-0.77 1.09,0 1.74,0.71 0.66,0.71 0.66,1.9 l -0.01,0.17 -3.87,0 q 0.04,0.74 0.49,1.17 0.46,0.43 1.07,0.43 0.99,0 1.34,-0.84 l 0.82,0.34 q -0.24,0.57 -0.79,0.96 -0.55,0.38 -1.35,0.38 z m 1.32,-3.2 q -0.03,-0.42 -0.39,-0.8 -0.35,-0.38 -1.05,-0.38 -0.51,0 -0.89,0.32 -0.37,0.32 -0.51,0.86 l 2.84,0 z" style="font-size:10px;font-family:'Product Sans';fill:#ffffff;fill-opacity:1"/>
    <path d="m -27.63535,59.820313 q -0.82,0 -1.36,-0.4 -0.53,-0.4 -0.78,-1 l 0.82,-0.34 q 0.39,0.92 1.33,0.92 0.43,0 0.7,-0.19 0.28,-0.19 0.28,-0.5 0,-0.48 -0.67,-0.65 l -0.99,-0.24 q -0.47,-0.12 -0.89,-0.45 -0.42,-0.34 -0.42,-0.91 0,-0.65 0.57,-1.05 0.58,-0.41 1.37,-0.41 0.65,0 1.16,0.3 0.51,0.29 0.73,0.84 l -0.8,0.33 q -0.27,-0.65 -1.12,-0.65 -0.41,0 -0.69,0.17 -0.28,0.17 -0.28,0.46 0,0.42 0.65,0.57 l 0.97,0.23 q 0.69,0.16 1.02,0.55 0.33,0.39 0.33,0.88 0,0.66 -0.54,1.1 -0.54,0.44 -1.39,0.44 z" style="font-size:10px;font-family:'Product Sans';fill:#ffffff;fill-opacity:1"/>
    <path d="m -23.984569,52.500313 0,4.41 2.12,-2.15 1.18,0 0,0.04 -1.91,1.91 2,2.91 0,0.04 -1.11,0 -1.54,-2.31 -0.74,0.74 0,1.57 -0.92,0 0,-7.16 0.92,0 z" style="font-size:10px;font-family:'Product Sans';fill:#ffffff;fill-opacity:1"/>
    <path d="m -17.96035,59.740313 q -0.77,0 -1.18,-0.41 -0.4,-0.41 -0.4,-1.16 l 0,-2.57 -0.86,0 0,-0.84 0.86,0 0,-1.5 0.92,0 0,1.5 1.2,0 0,0.84 -1.2,0 0,2.5 q 0,0.8 0.66,0.8 0.25,0 0.42,-0.08 l 0.32,0.79 q -0.3,0.13 -0.74,0.13 z" style="font-size:10px;font-family:'Product Sans';fill:#ffffff;fill-opacity:1"/>
    <path d="m -16.173788,55.350313 q 0.71,-0.75 1.81,-0.75 1.1,0 1.81,0.75 0.71,0.74 0.71,1.86 0,1.12 -0.71,1.87 -0.71,0.74 -1.81,0.74 -1.1,0 -1.81,-0.74 -0.71,-0.75 -0.71,-1.87 0,-1.12 0.71,-1.86 z m 0.68,3.15 q 0.48,0.48 1.13,0.48 0.65,0 1.12,-0.48 0.48,-0.49 0.48,-1.29 0,-0.8 -0.48,-1.28 -0.47,-0.49 -1.12,-0.49 -0.65,0 -1.13,0.49 -0.47,0.48 -0.47,1.28 0,0.8 0.47,1.29 z" style="font-size:10px;font-family:'Product Sans';fill:#ffffff;fill-opacity:1"/>
    <path d="m -8.5069128,59.820313 q -0.56,0 -1.01,-0.24 -0.44,-0.24 -0.6600002,-0.6 l -0.04,0 0.04,0.68 0,2.16 -0.92,0 0,-7.06 0.88,0 0,0.68 0.04,0 q 0.2200002,-0.36 0.6600002,-0.6 0.45,-0.24 1.01,-0.24 0.95,0 1.64,0.75 0.69,0.75 0.69,1.86 0,1.11 -0.69,1.86 -0.69,0.75 -1.64,0.75 z m -0.15,-0.84 q 0.64,0 1.1,-0.48 0.46,-0.49 0.46,-1.29 0,-0.8 -0.46,-1.28 -0.46,-0.49 -1.1,-0.49 -0.65,0 -1.11,0.48 -0.4500002,0.48 -0.4500002,1.29 0,0.81 0.4500002,1.29 0.46,0.48 1.11,0.48 z" style="font-size:10px;font-family:'Product Sans';fill:#ffffff;fill-opacity:1"/>
   </g>
  </g>
  <path d="m -22.289035,12.987892 -4.899992,0.471156 0,20.186272 4.84762,-0.732911 0,-8.606374 6.522825,9.548651 5.109392,-1.622833 -6.679871,-9.182239 6.732243,-8.658712 -5.214084,-1.193592 -6.470505,8.658694 0.05246,-8.868112 z m -11.108725,4.920924 c -0.05554,0.0034 -0.1152,0.02109 -0.1572,0.06257 l -1.926469,1.926468 c -0.08074,0.08109 -0.09086,0.205492 -0.02949,0.303841 l 2.251019,3.716857 c -0.399653,0.671882 -0.724254,1.392656 -0.952752,2.156801 l -4.135675,0.85857 c -0.1152,0.0252 -0.198772,0.1332 -0.198772,0.251315 l 0,2.722208 c 0,0.1152 0.08743,0.213909 0.198772,0.240806 l 4.010018,0.973718 c 0.214337,0.884659 0.54571,1.731262 0.984191,2.502333 l -2.324355,3.538879 c -0.0648,0.09874 -0.05212,0.230726 0.02949,0.313938 l 1.926468,1.926503 c 0.08109,0.08074 0.205492,0.0912 0.303412,0.02949 l 3.643606,-2.209173 c 0.714636,0.412682 1.488312,0.743128 2.303389,0.963209 l 0.848077,4.083372 c 0.0252,0.115543 0.123086,0.198772 0.240789,0.198772 l 2.72226,0 c 0.114343,0 0.21348,-0.07697 0.240806,-0.188263 l 1.005106,-4.104253 c 0.840637,-0.226509 1.633171,-0.563093 2.366218,-0.994648 l 3.591251,2.355761 c 0.09909,0.06463 0.230298,0.05211 0.313921,-0.02949 l 1.916046,-1.926468 c 0.0816,-0.08109 0.101657,-0.20551 0.042,-0.30343 l -1.308741,-2.156852 -0.429293,0.136115 c -0.06171,0.02109 -0.130629,-0.0086 -0.167658,-0.06257 0,0 -0.826716,-1.216118 -1.905537,-2.795494 -1.290261,2.524688 -3.921526,4.250824 -6.952152,4.250824 -4.306435,0 -7.800177,-3.493742 -7.800177,-7.800177 0,-3.167718 1.894274,-5.888452 4.606814,-7.109148 l 0,-2.01028 c -0.493665,0.172732 -0.970615,0.381173 -1.423925,0.628236 -8.4e-4,-5.48e-4 8.4e-4,-0.0086 0,-0.012 l -3.674959,-2.408083 c -0.04954,-0.0336 -0.101658,-0.03789 -0.157201,-0.02949 z" style="opacity:1;fill:#3d434a;fill-opacity:0.85;"/>
 </g>
</svg>
