<?xml version="1.0" encoding="UTF-8" standalone="no"?>
<svg xmlns="http://www.w3.org/2000/svg" xmlns:xlink="http://www.w3.org/1999/xlink" width="64" viewBox="0 0 64 64" height="64" version="1.1">
 <defs>
  <linearGradient xlink:href="#linearGradient4143" id="linearGradient4182" x1="-74.929" y1="52.199" x2="-75.26" y2="2.356" gradientUnits="userSpaceOnUse" gradientTransform="matrix(1.0749904,0,0,1.0292896,56.688954,-0.01528455)"/>
  <linearGradient id="linearGradient4143">
   <stop style="stop-color:#197cf1;stop-opacity:1" offset="0"/>
   <stop style="stop-color:#20bcfa;stop-opacity:1" offset="1"/>
  </linearGradient>
 </defs>
 <g transform="translate(56.391766,-0.17677665)">
  <rect ry="2.5" y="54.48" x="-46.39" height="7.699" width="44" style="opacity:1;fill:#0b3969;fill-opacity:1;"/>
  <rect ry="2.5" y="1.65" x="-46.39" height="52.832" width="44" style="opacity:1;fill:url(#linearGradient4182);fill-opacity:1.0;"/>
  <rect ry="0" y="51.26" x="-46.39" height="7.912" width="44" style="opacity:1;fill:#0b3969;fill-opacity:1;"/>
  <g style="font-size:9.36996746px;line-height:125%;letter-spacing:0px;word-spacing:0px;fill:#ffffff;fill-opacity:1;" transform="matrix(0.81954967,0,0,0.81954967,-3.8342853,10.221831)">
   <g style="font-size:13.75px;line-height:125%;letter-spacing:0px;word-spacing:0px;fill:#ffffff;fill-opacity:1;">
    <path d="m -30.785783,53.1927 q 0.44,0 0.74,0.13 l -0.32,0.79 q -0.16,-0.08 -0.42,-0.08 -0.36,0 -0.59,0.22 -0.23,0.21 -0.23,0.62 l 0,0.62 1.28,0 0,0.84 -1.28,0 0,4.06 -0.92,0 0,-4.06 -0.92,0 0,-0.84 0.92,0 0,-0.65 q 0,-0.75 0.48,-1.2 0.48,-0.45 1.26,-0.45 z" style="font-size:10px;font-family:'Product Sans';fill:#ffffff;fill-opacity:1"/>
    <path d="m -29.316877,56.0827 q 0.71,-0.75 1.81,-0.75 1.1,0 1.81,0.75 0.71,0.74 0.71,1.86 0,1.12 -0.71,1.87 -0.71,0.74 -1.81,0.74 -1.1,0 -1.81,-0.74 -0.71,-0.75 -0.71,-1.87 0,-1.12 0.71,-1.86 z m 0.68,3.15 q 0.48,0.48 1.13,0.48 0.65,0 1.12,-0.48 0.48,-0.49 0.48,-1.29 0,-0.8 -0.48,-1.28 -0.47,-0.49 -1.12,-0.49 -0.65,0 -1.13,0.49 -0.47,0.48 -0.47,1.28 0,0.8 0.47,1.29 z" style="font-size:10px;font-family:'Product Sans';fill:#ffffff;fill-opacity:1"/>
    <path d="m -23.359065,55.4927 0,0.68 0.04,0 q 0.2,-0.35 0.63,-0.59 0.43,-0.25 0.92,-0.25 0.91,0 1.39,0.56 0.48,0.56 0.48,1.5 l 0,3 -0.92,0 0,-2.86 q 0,-1.36 -1.21,-1.36 -0.57,0 -0.93,0.46 -0.36,0.45 -0.36,1.05 l 0,2.71 -0.92,0 0,-4.9 0.88,0 z" style="font-size:10px;font-family:'Product Sans';fill:#ffffff;fill-opacity:1"/>
    <path d="m -16.943283,60.4727 q -0.77,0 -1.18,-0.41 -0.4,-0.41 -0.4,-1.16 l 0,-2.57 -0.86,0 0,-0.84 0.86,0 0,-1.5 0.92,0 0,1.5 1.2,0 0,0.84 -1.2,0 0,2.5 q 0,0.8 0.66,0.8 0.25,0 0.42,-0.08 l 0.32,0.79 q -0.3,0.13 -0.74,0.13 z" style="font-size:10px;font-family:'Product Sans';fill:#ffffff;fill-opacity:1"/>
   </g>
  </g>
  <g transform="translate(-413.13085,-514.83154)">
   <g transform="translate(0.22004374,0.70917024)" style="fill:#0b3969;fill-opacity:1">
    <g transform="matrix(0.87953947,0,0,0.87953947,15.263002,66.611479)" style="font-size:47.91780472px;line-height:125%;letter-spacing:0px;word-spacing:0px;fill:#0b3969;fill-opacity:1;">
     <path style="font-family:'Product Sans';fill:#0b3969;fill-opacity:1" d="m 422.66629,552.97347 q -3.73759,0 -6.27723,-2.1563 -2.49173,-2.1563 -2.49173,-5.70222 0,-3.83342 2.97091,-5.98972 2.9709,-2.20422 7.33142,-2.20422 3.88134,0 6.37307,1.43753 l 0,-0.67085 q 0,-2.58756 -1.77296,-4.12093 -1.77296,-1.58129 -4.36052,-1.58129 -1.91671,0 -3.498,0.91044 -1.53337,0.91044 -2.10838,2.49173 l -4.0251,-1.72504 q 0.8146,-2.10839 3.21049,-3.88135 2.39589,-1.82087 6.32515,-1.82087 4.50428,0 7.47518,2.63548 2.9709,2.63548 2.9709,7.42726 l 0,14.18367 -4.21676,0 0,-3.25841 -0.19167,0 q -2.63548,4.02509 -7.71477,4.02509 z m 0.71877,-4.02509 q 2.73131,0 4.93553,-2.01255 2.25214,-2.06047 2.25214,-4.8397 -1.8688,-1.53337 -5.60639,-1.53337 -3.21049,0 -4.83969,1.38962 -1.62921,1.38961 -1.62921,3.25841 0,1.72504 1.48545,2.73131 1.48546,1.00628 3.40217,1.00628 z"/>
    </g>
   </g>
  </g>
 </g>
</svg>
