<?xml version="1.0" encoding="UTF-8" standalone="no"?>
<svg xmlns="http://www.w3.org/2000/svg" xmlns:xlink="http://www.w3.org/1999/xlink" width="64" viewBox="0 0 64 64" height="64" version="1.1">
 <defs>
  <linearGradient xlink:href="#linearGradient4531" id="linearGradient4182" x1="-74.929" y1="52.199" x2="-75.26" y2="2.356" gradientUnits="userSpaceOnUse" gradientTransform="matrix(1.0749904,0,0,1.0292896,56.688954,-0.01528455)"/>
  <linearGradient id="linearGradient4531">
   <stop style="stop-color:#32d746;stop-opacity:1" offset="0"/>
   <stop style="stop-color:#4ee27d;stop-opacity:1" offset="1"/>
  </linearGradient>
 </defs>
 <g transform="translate(56.391766,-0.17677665)">
  <rect ry="2.5" y="54.48" x="-46.39" height="7.699" width="44" style="opacity:1;fill:#175e22;fill-opacity:1;"/>
  <rect ry="2.5" y="1.65" x="-46.39" height="52.832" width="44" style="opacity:1;fill:url(#linearGradient4182);fill-opacity:1.0;"/>
  <rect ry="0" y="51.26" x="-46.39" height="7.912" width="44" style="opacity:1;fill:#175e21;fill-opacity:1;"/>
  <g transform="translate(-46.754763,0.40346316)">
   <g transform="translate(-400.92463,-509.18113)">
    <g transform="translate(0.41988239,0.03484499)">
     <g transform="matrix(1.0037077,0,0,1.0037077,11.267145,17.846026)">
      <g transform="matrix(1.5263052,0,0,1.5263052,376.49864,-1040.1735)">
       <g transform="matrix(1.1526351,0,0,1.1526351,-4.8344134,-156.43331)">
        <g transform="matrix(0.49019093,0,0,0.49019093,12.268743,518.1207)">
         <path d="m 11.447345,1036.9442 11.636697,0 -3.21e-4,-24.4983 -11.533282,3e-4 c -1.268259,-0.094 -1.7825661,0.023 -1.7825661,1.1721 l 0,22.0916 c -0.07966,1.261 0.4462081,1.2343 1.6794721,1.2343 z" style="opacity:1;fill:#175e21;fill-opacity:1;fill-rule:evenodd;"/>
         <path d="m 33.843953,1036.9367 -5.282394,0 -2.708421,-2.2737 0,-19.9506 1.855796,-2.2737 6.135019,0 c 0.848365,-0.094 0.916631,0.023 0.916631,1.1721 l 0,22.0916 c 0.05328,1.261 -0.09168,1.2343 -0.916631,1.2343 z" style="opacity:1;fill:none;fill-opacity:1;stroke:#175e21;stroke-width:0.8117075;stroke-opacity:1"/>
         <path d="m 31.841628,1038.1035 -10.029586,-1.1715 -2e-5,-24.4861 9.945926,-0.9324 c 1.230149,-0.094 1.296492,0.2446 1.296492,1.3937 l -0.08368,23.3688 c 0.07726,1.261 0.06707,1.8275 -1.129132,1.8275 z" style="opacity:1;fill:#175e21;fill-opacity:1;fill-rule:evenodd;"/>
        </g>
       </g>
      </g>
     </g>
    </g>
   </g>
  </g>
  <g transform="translate(-500.85463,-512.77299)" style="fill:#40dc61;fill-opacity:1">
   <g transform="translate(0.41988239,0.03484499)" style="fill:#40dc61;fill-opacity:1">
    <g style="fill:#40dc61;fill-opacity:1" transform="matrix(-7.3528065e-4,-0.8933959,1.2269177,-5.3540491e-4,-783.91318,538.6311)">
     <rect style="opacity:1;fill:#40dc61;fill-opacity:1;" width="5.212" height="2.23" x="-7.66" y="1021.96" rx="0" ry=".312" transform="matrix(0.9999997,-7.6878319e-4,-3.3676924e-4,0.99999994,0,0)"/>
     <rect style="opacity:1;fill:#40dc61;fill-opacity:1;" width="8.026" height="2.23" x="-7.79" y="1025.11" rx="0" ry=".312" transform="matrix(0.99999996,-2.8909269e-4,-1.9501793e-4,0.99999998,0,0)"/>
     <rect style="opacity:1;fill:#40dc61;fill-opacity:1;" width="10.841" height="2.23" x="-7.96" y="1028.37" rx="0" ry=".312" transform="matrix(1,-5.8462971e-5,-5.3266634e-5,1,0,0)"/>
    </g>
   </g>
  </g>
 </g>
</svg>
