<?xml version="1.0" encoding="UTF-8" standalone="no"?>
<svg xmlns="http://www.w3.org/2000/svg" xmlns:xlink="http://www.w3.org/1999/xlink" width="64" viewBox="0 0 64 64" height="64" version="1.1">
 <defs>
  <linearGradient xlink:href="#linearGradient4422-1" id="linearGradient4182" x1="-74.929" y1="52.199" x2="-75.26" y2="2.356" gradientUnits="userSpaceOnUse" gradientTransform="matrix(1.0749904,0,0,1.0292896,56.688954,-0.01528455)"/>
  <linearGradient id="linearGradient4422-1">
   <stop style="stop-color:#8798a9;stop-opacity:1" offset="0"/>
   <stop style="stop-color:#aeb6be;stop-opacity:1" offset="1"/>
  </linearGradient>
 </defs>
 <g transform="translate(56.391766,-0.17677665)">
  <rect ry="2.5" y="54.48" x="-46.39" height="7.699" width="44" style="opacity:1;fill:#3d434a;fill-opacity:1;"/>
  <rect ry="2.5" y="1.65" x="-46.39" height="52.832" width="44" style="opacity:1;fill:url(#linearGradient4182);fill-opacity:1.0;"/>
  <rect ry="0" y="51.26" x="-46.39" height="7.912" width="44" style="opacity:1;fill:#3d434a;fill-opacity:1;"/>
  <g style="font-size:9.36996746px;line-height:125%;letter-spacing:0px;word-spacing:0px;fill:#ffffff;fill-opacity:1;" transform="matrix(0.81954967,0,0,0.81954967,-4.8343774,10.121731)">
   <g style="font-size:13.75px;line-height:125%;letter-spacing:0px;word-spacing:0px;fill:#ffffff;fill-opacity:1;">
    <path d="m -34.344945,60.148785 0,-4.9 0.88,0 0,0.68 0.04,0 q 0.21,-0.35 0.64,-0.59 0.44,-0.25 0.87,-0.25 1.14,0 1.55,0.94 0.6,-0.94 1.71,-0.94 0.87,0 1.31,0.56 0.44,0.55 0.44,1.5 l 0,3 -0.92,0 0,-2.86 q 0,-0.74 -0.27,-1.05 -0.27,-0.31 -0.82,-0.31 -0.54,0 -0.9,0.46 -0.35,0.46 -0.35,1.05 l 0,2.71 -0.92,0 0,-2.86 q 0,-0.74 -0.27,-1.05 -0.27,-0.31 -0.82,-0.31 -0.54,0 -0.9,0.46 -0.35,0.46 -0.35,1.05 l 0,2.71 -0.92,0 z" style="font-size:10px;font-family:'Product Sans';fill:#ffffff;fill-opacity:1"/>
    <path d="m -24.337914,60.308785 q -0.78,0 -1.31,-0.45 -0.52,-0.45 -0.52,-1.19 0,-0.8 0.62,-1.25 0.62,-0.46 1.53,-0.46 0.81,0 1.33,0.3 l 0,-0.14 q 0,-0.54 -0.37,-0.86 -0.37,-0.33 -0.91,-0.33 -0.4,0 -0.73,0.19 -0.32,0.19 -0.44,0.52 l -0.84,-0.36 q 0.17,-0.44 0.67,-0.81 0.5,-0.38 1.32,-0.38 0.94,0 1.56,0.55 0.62,0.55 0.62,1.55 l 0,2.96 -0.88,0 0,-0.68 -0.04,0 q -0.55,0.84 -1.61,0.84 z m 0.15,-0.84 q 0.57,0 1.03,-0.42 0.47,-0.43 0.47,-1.01 -0.39,-0.32 -1.17,-0.32 -0.67,0 -1.01,0.29 -0.34,0.29 -0.34,0.68 0,0.36 0.31,0.57 0.31,0.21 0.71,0.21 z" style="font-size:10px;font-family:'Product Sans';fill:#ffffff;fill-opacity:1"/>
    <path d="m -18.748383,60.228785 q -0.77,0 -1.18,-0.41 -0.4,-0.41 -0.4,-1.16 l 0,-2.57 -0.86,0 0,-0.84 0.86,0 0,-1.5 0.92,0 0,1.5 1.2,0 0,0.84 -1.2,0 0,2.5 q 0,0.8 0.66,0.8 0.25,0 0.42,-0.08 l 0.32,0.79 q -0.3,0.13 -0.74,0.13 z" style="font-size:10px;font-family:'Product Sans';fill:#ffffff;fill-opacity:1"/>
    <path d="m -16.354633,52.988785 0,2.26 -0.04,0.68 0.04,0 q 0.2,-0.35 0.63,-0.59 0.43,-0.25 0.92,-0.25 0.91,0 1.39,0.56 0.48,0.56 0.48,1.5 l 0,3 -0.92,0 0,-2.86 q 0,-1.36 -1.21,-1.36 -0.57,0 -0.93,0.46 -0.36,0.45 -0.36,1.05 l 0,2.71 -0.92,0 0,-7.16 0.92,0 z" style="font-size:10px;font-family:'Product Sans';fill:#ffffff;fill-opacity:1"/>
   </g>
  </g>
  <g transform="translate(-46.754763,0.40346316)">
   <g transform="translate(-400.92463,-509.18113)">
    <g transform="translate(0.41988239,0.03484499)">
     <g transform="matrix(1.0037077,0,0,1.0037077,11.267145,17.846026)">
      <g transform="matrix(1.5263052,0,0,1.5263052,376.49864,-1040.1735)">
       <g transform="matrix(1.1526351,0,0,1.1526351,-4.8344134,-156.43331)">
        <g transform="matrix(0.49019093,0,0,0.49019093,12.268743,518.1207)">
         <path d="m 11.447345,1036.9442 11.636697,0 -3.21e-4,-24.4983 -11.533282,3e-4 c -1.268259,-0.094 -1.7825661,0.023 -1.7825661,1.1721 l 0,22.0916 c -0.07966,1.261 0.4462081,1.2343 1.6794721,1.2343 z" style="opacity:1;fill:#3d434a;fill-opacity:1;fill-rule:evenodd;"/>
         <path d="m 33.843953,1036.9367 -5.282394,0 -2.708421,-2.2737 0,-19.9506 1.855796,-2.2737 6.135019,0 c 0.848365,-0.094 0.916631,0.023 0.916631,1.1721 l 0,22.0916 c 0.05328,1.261 -0.09168,1.2343 -0.916631,1.2343 z" style="opacity:1;fill:none;fill-opacity:1;stroke:#3d434a;stroke-width:0.8117075;stroke-opacity:1"/>
         <path d="m 31.841628,1038.1035 -10.029586,-1.1715 -2e-5,-24.4861 9.945926,-0.9324 c 1.230149,-0.094 1.296492,0.2446 1.296492,1.3937 l -0.08368,23.3688 c 0.07726,1.261 0.06707,1.8275 -1.129132,1.8275 z" style="opacity:1;fill:#3d434a;fill-opacity:1;fill-rule:evenodd;"/>
        </g>
       </g>
      </g>
     </g>
    </g>
   </g>
  </g>
  <g transform="translate(-511.188,-516.68483)">
   <g transform="translate(0.41988239,0.03484499)">
    <g style="fill:#9aa7b3;fill-opacity:1" transform="matrix(0.49495797,0,0,0.49495797,256.31033,283.9251)">
     <g style="fill:#9aa7b3;fill-opacity:1" transform="matrix(1.5263052,0,0,1.5263052,376.31698,-1040.1258)">
      <g style="fill:#9aa7b3;fill-opacity:1" transform="matrix(0.80935091,0,0,0.80935091,-315.32853,597.42639)">
       <g style="fill:#9aa7b3;fill-opacity:1" transform="translate(10.087706,2.8126936)">
        <path style="opacity:1;fill:#9aa7b3;fill-opacity:1;" d="m 460.96881,517.80386 -11.38614,0.006 -6.32132,10.94692 -2.21272,-3.83614 -0.006,0 -2.84653,0 0,1.42326 2.03204,0 3.03556,5.25664 0.82005,-1.42049 6.32409,-10.95248 9.13728,0 0,1.42326 1.42326,0 0,-2.84653 z m -7.11634,4.27537 c -2.36547,0 -4.2698,1.90433 -4.2698,4.2698 0,2.36547 1.90433,4.2698 4.2698,4.2698 1.10062,0 2.09097,-0.42441 2.84654,-1.1036 l 0,1.1036 1.42327,0 0,-4.2698 0,-4.2698 -1.42327,0 0,1.10359 c -0.75557,-0.67919 -1.74592,-1.10359 -2.84654,-1.10359 z m 0,1.42327 c 1.57698,0 2.84654,1.26955 2.84654,2.84653 0,1.57698 -1.26956,2.84654 -2.84654,2.84654 -1.57698,0 -2.84653,-1.26956 -2.84653,-2.84654 0,-1.57698 1.26955,-2.84653 2.84653,-2.84653 z m -15.64204,8.5257 c -0.009,0 -0.0142,0.31739 -0.0142,0.71163 0,0.39425 0.006,0.71163 0.0142,0.71163 l 22.74449,0 c 0.009,0 0.0142,-0.31738 0.0142,-0.71163 0,-0.39424 -0.006,-0.71163 -0.0142,-0.71163 l -22.74447,0 z m 9.96288,2.84653 c -0.009,0 -0.0142,0.31741 -0.0142,0.71164 0,0.39423 0.006,0.71163 0.0142,0.71163 l 2.81874,0 c 0.009,0 0.0142,-0.3174 0.0142,-0.71163 0,-0.39423 -0.006,-0.71164 -0.0142,-0.71164 l -2.81873,0 z"/>
       </g>
      </g>
     </g>
    </g>
   </g>
  </g>
 </g>
</svg>
