<?xml version="1.0" encoding="UTF-8" standalone="no"?>
<svg xmlns="http://www.w3.org/2000/svg" xmlns:xlink="http://www.w3.org/1999/xlink" width="64" viewBox="0 0 64 64" height="64" version="1.1">
 <defs>
  <linearGradient xlink:href="#linearGradient4422-9" id="linearGradient4182" x1="-74.929" y1="52.199" x2="-75.26" y2="2.356" gradientUnits="userSpaceOnUse" gradientTransform="matrix(1.0749904,0,0,1.0292896,56.688954,-0.01528455)"/>
  <linearGradient id="linearGradient4422-9">
   <stop style="stop-color:#ffa400;stop-opacity:1" offset="0"/>
   <stop style="stop-color:#ffdd00;stop-opacity:1" offset="1"/>
  </linearGradient>
 </defs>
 <g transform="translate(56.391766,-0.17677665)">
  <rect ry="2.5" y="54.48" x="-46.39" height="7.699" width="44" style="opacity:1;fill:#6f4900;fill-opacity:1;"/>
  <rect ry="2.5" y="1.65" x="-46.39" height="52.832" width="44" style="opacity:1;fill:url(#linearGradient4182);fill-opacity:1.0;"/>
  <rect ry="0" y="51.26" x="-46.39" height="7.912" width="44" style="opacity:1;fill:#6f4a00;fill-opacity:1;"/>
  <g style="font-size:9.36996746px;line-height:125%;letter-spacing:0px;word-spacing:0px;fill:#ffffff;fill-opacity:1;" transform="matrix(0.81954967,0,0,0.81954967,-4.3342833,10.721775)">
   <g style="font-size:13.75px;line-height:125%;letter-spacing:0px;word-spacing:0px;fill:#ffffff;fill-opacity:1;">
    <path d="m -26.450755,59.576779 q -0.78,0 -1.31,-0.45 -0.52,-0.45 -0.52,-1.19 0,-0.8 0.62,-1.25 0.62,-0.46 1.53,-0.46 0.81,0 1.33,0.3 l 0,-0.14 q 0,-0.54 -0.37,-0.86 -0.37,-0.33 -0.91,-0.33 -0.4,0 -0.73,0.19 -0.32,0.19 -0.44,0.52 l -0.84,-0.36 q 0.17,-0.44 0.67,-0.81 0.5,-0.38 1.32,-0.38 0.94,0 1.56,0.55 0.62,0.55 0.62,1.55 l 0,2.96 -0.88,0 0,-0.68 -0.04,0 q -0.55,0.84 -1.61,0.84 z m 0.15,-0.84 q 0.57,0 1.03,-0.42 0.47,-0.43 0.47,-1.01 -0.39,-0.32 -1.17,-0.32 -0.67,0 -1.01,0.29 -0.34,0.29 -0.34,0.68 0,0.36 0.31,0.57 0.31,0.21 0.71,0.21 z" style="font-size:10px;font-family:'Product Sans';fill:#ffffff;fill-opacity:1"/>
    <path d="m -21.883567,53.286779 q -0.19,0.19 -0.46,0.19 -0.27,0 -0.46,-0.19 -0.19,-0.19 -0.19,-0.46 0,-0.27 0.19,-0.46 0.19,-0.19 0.46,-0.19 0.27,0 0.46,0.19 0.19,0.19 0.19,0.46 0,0.27 -0.19,0.46 z m 0,6.13 -0.92,0 0,-4.9 0.92,0 0,4.9 z" style="font-size:10px;font-family:'Product Sans';fill:#ffffff;fill-opacity:1"/>
   </g>
   <g transform="matrix(1.2201823,0,0,1.2201823,-623.35458,-636.76059)" style="fill:#6f4a00;fill-opacity:1">
    <g transform="translate(0.41988239,0.03484499)" style="fill:#6f4a00;fill-opacity:1">
     <g transform="matrix(0.05921667,0,0,0.05921667,479.34779,527.27709)" style="fill:#6f4a00;fill-opacity:1">
      <g style="fill:#6f4a00;fill-opacity:1">
       <path d="m 44.405,355.411 120.029,0 0,15.589 43.647,0 0,-15.589 120.547,0 0,17.622 43.646,0 0,-43.646 -16.104,0 0,-122.064 15.588,0 0,-43.647 -15.588,0 0,-113.319 16.105,0 0,-43.647 -43.646,0 0,8.878 -120.547,0 0,-15.588 -43.647,0 0,15.588 -120.03,0 0,-10.912 -43.647,0 0,43.647 15.588,0 0,115.353 -15.588,0 0,43.647 15.588,0 0,120.029 -15.588,0 0,43.648 43.647,0 0,-15.589 z m -12.47,0 0,3.118 -18.706,0 0,-18.706 3.118,0 12.471,0 3.118,0 0,3.118 0,12.47 z m 144.97,-339.823 0,-3.118 18.706,0 0,3.118 0,6.521 0,5.949 0,3.117 -18.706,0 0,-3.117 0,-5.949 0,-6.521 z m 18.706,339.823 0,3.118 -18.706,0 0,-3.118 0,-6.521 0,-5.948 0,-3.118 18.706,0 0,3.118 0,5.948 0,6.521 z m 2.077,-162.896 c 1.212,1.218 1.212,3.19 0,4.408 -0.615,0.608 -1.406,0.913 -2.21,0.913 -0.792,0 -1.593,-0.305 -2.205,-0.913 l -7.014,-7.015 -7.015,7.015 c -0.612,0.608 -1.409,0.913 -2.207,0.913 -0.798,0 -1.595,-0.305 -2.208,-0.913 -1.214,-1.218 -1.214,-3.19 0,-4.408 l 7.015,-7.015 -7.015,-7.015 c -1.214,-1.214 -1.214,-3.194 0,-4.409 1.215,-1.215 3.194,-1.215 4.409,0 l 7.021,7.015 7.014,-7.015 c 1.218,-1.215 3.191,-1.215 4.409,0 1.218,1.215 1.218,3.194 0,4.409 l -7.015,7.015 7.021,7.015 z m 162.117,168.047 -18.705,0 0,-5.151 0,-12.47 0,-1.084 2.6,0 12.471,0 3.635,0 0,18.705 z m -31.176,-31.175 0,13.555 -97.652,0 C 285.402,327.511 328.27,284.644 343.7,230.213 l 0,99.174 -15.071,0 z m 30.658,-134.534 -3.117,0 -6.521,0 -5.949,0 -3.117,0 0,-18.706 3.117,0 5.949,0 6.521,0 3.117,0 0,18.706 z M 341.1,19.181 l 15.07,0 3.635,0 0,18.706 -3.635,0 -12.471,0 -2.6,0 0,-9.828 0,-8.878 z m -12.471,8.878 0,22.298 15.07,0 0,90.43 C 328.269,86.353 285.401,43.491 230.976,28.058 l 97.653,0 z m -315.4,-10.913 3.118,0 15.588,0 0,10.912 0,7.794 -3.118,0 -12.471,0 -3.118,0 0,-18.706 z m 31.176,31.177 0,-20.264 97.134,0 C 87.111,43.491 44.25,86.353 28.817,140.781 l 0,-92.458 15.588,0 z m -31.176,127.823 3.118,0 6.521,0 5.949,0 3.118,0 0,18.706 -3.118,0 -5.949,0 -6.521,0 -3.118,0 0,-18.706 z m 15.588,54.067 c 15.433,54.431 58.294,97.298 112.723,112.729 l -97.135,0 0,-15.589 -15.588,0 0,-97.14 z" style="fill:#6f4a00;fill-opacity:1"/>
      </g>
     </g>
    </g>
   </g>
  </g>
 </g>
</svg>
