<?xml version="1.0" encoding="UTF-8" standalone="no"?>
<svg xmlns="http://www.w3.org/2000/svg" xmlns:xlink="http://www.w3.org/1999/xlink" width="64" viewBox="0 0 64 64" height="64" version="1.1">
 <defs>
  <linearGradient xlink:href="#linearGradient4531" id="linearGradient4182" x1="-74.929" y1="52.199" x2="-75.26" y2="2.356" gradientUnits="userSpaceOnUse" gradientTransform="matrix(1.0749904,0,0,1.0292896,56.688954,-0.01528455)"/>
  <linearGradient id="linearGradient4531">
   <stop offset="0" style="stop-color:#197df1;stop-opacity:1"/>
   <stop offset="1" style="stop-color:#20bcfa;stop-opacity:1"/>
  </linearGradient>
 </defs>
 <g transform="translate(56.391766,-0.17677665)">
  <rect ry="2.5" y="54.48" x="-46.39" height="7.699" width="44" style="opacity:1;fill:#0b3969;fill-opacity:1;"/>
  <rect ry="2.5" y="1.65" x="-46.39" height="52.832" width="44" style="opacity:1;fill:url(#linearGradient4182);fill-opacity:1.0;"/>
  <rect ry="0" y="51.26" x="-46.39" height="7.912" width="44" style="opacity:1;fill:#0b3969;fill-opacity:1;"/>
  <g style="font-size:7.55222988px;line-height:125%;letter-spacing:0px;word-spacing:0px;fill:#000000;fill-opacity:1;">
   <path d="m -33.252266,59.165494 q -0.42,0 -0.7575,-0.18 -0.33,-0.18 -0.495,-0.45 l -0.03,0 0.03,0.51 0,1.62 -0.69,0 0,-5.295 0.66,0 0,0.51 0.03,0 q 0.165,-0.27 0.495,-0.45 0.3375,-0.18 0.7575,-0.18 0.7125,0 1.23,0.5625 0.5175,0.5625 0.5175,1.395 0,0.8325 -0.5175,1.395 -0.5175,0.5625 -1.23,0.5625 z m -0.1125,-0.63 q 0.48,0 0.825,-0.36 0.345,-0.3675 0.345,-0.9675 0,-0.6 -0.345,-0.96 -0.345,-0.3675 -0.825,-0.3675 -0.4875,0 -0.8325,0.36 -0.3375,0.36 -0.3375,0.9675 0,0.6075 0.3375,0.9675 0.345,0.36 0.8325,0.36 z" style="font-size:7.5px;font-family:'Product Sans';fill:#ffffff;fill-opacity:1"/>
   <path d="m -30.256016,59.045494 -0.69,0 0,-5.37 0.69,0 0,5.37 z" style="font-size:7.5px;font-family:'Product Sans';fill:#ffffff;fill-opacity:1"/>
   <path d="m -28.304024,59.165494 q -0.585,0 -0.9825,-0.3375 -0.39,-0.3375 -0.39,-0.8925 0,-0.6 0.465,-0.9375 0.465,-0.345 1.1475,-0.345 0.6075,0 0.9975,0.225 l 0,-0.105 q 0,-0.405 -0.2775,-0.645 -0.2775,-0.2475 -0.6825,-0.2475 -0.3,0 -0.5475,0.1425 -0.24,0.1425 -0.33,0.39 l -0.63,-0.27 q 0.1275,-0.33 0.5025,-0.6075 0.375,-0.285 0.99,-0.285 0.705,0 1.17,0.4125 0.465,0.4125 0.465,1.1625 l 0,2.22 -0.66,0 0,-0.51 -0.03,0 q -0.4125,0.63 -1.2075,0.63 z m 0.1125,-0.63 q 0.4275,0 0.7725,-0.315 0.3525,-0.3225 0.3525,-0.7575 -0.2925,-0.24 -0.8775,-0.24 -0.5025,0 -0.7575,0.2175 -0.255,0.2175 -0.255,0.51 0,0.27 0.2325,0.4275 0.2325,0.1575 0.5325,0.1575 z" style="font-size:7.5px;font-family:'Product Sans';fill:#ffffff;fill-opacity:1"/>
   <path d="m -24.719376,60.665494 -0.7125,0 0.855,-1.8525 -1.515,-3.4425 0.75,0 1.095,2.64 0.015,0 1.065,-2.64 0.75,0 -2.3025,5.295 z" style="font-size:7.5px;font-family:'Product Sans';fill:#ffffff;fill-opacity:1"/>
   <path d="m -21.349766,59.045494 -0.69,0 0,-5.37 0.69,0 0,5.37 z" style="font-size:7.5px;font-family:'Product Sans';fill:#ffffff;fill-opacity:1"/>
   <path d="m -19.766329,54.447994 q -0.1425,0.1425 -0.345,0.1425 -0.2025,0 -0.345,-0.1425 -0.1425,-0.1425 -0.1425,-0.345 0,-0.2025 0.1425,-0.345 0.1425,-0.1425 0.345,-0.1425 0.2025,0 0.345,0.1425 0.1425,0.1425 0.1425,0.345 0,0.2025 -0.1425,0.345 z m 0,4.5975 -0.69,0 0,-3.675 0.69,0 0,3.675 z" style="font-size:7.5px;font-family:'Product Sans';fill:#ffffff;fill-opacity:1"/>
   <path d="m -17.496055,59.165494 q -0.615,0 -1.02,-0.3 -0.3975,-0.3 -0.585,-0.75 l 0.615,-0.255 q 0.2925,0.69 0.9975,0.69 0.3225,0 0.525,-0.1425 0.21,-0.1425 0.21,-0.375 0,-0.36 -0.5025,-0.4875 l -0.7425,-0.18 q -0.3525,-0.09 -0.6675,-0.3375 -0.315,-0.255 -0.315,-0.6825 0,-0.4875 0.4275,-0.7875 0.435,-0.3075 1.0275,-0.3075 0.4875,0 0.87,0.225 0.3825,0.2175 0.5475,0.63 l -0.6,0.2475 q -0.2025,-0.4875 -0.84,-0.4875 -0.3075,0 -0.5175,0.1275 -0.21,0.1275 -0.21,0.345 0,0.315 0.4875,0.4275 l 0.7275,0.1725 q 0.5175,0.12 0.765,0.4125 0.2475,0.2925 0.2475,0.66 0,0.495 -0.405,0.825 -0.405,0.33 -1.0425,0.33 z" style="font-size:7.5px;font-family:'Product Sans';fill:#ffffff;fill-opacity:1"/>
   <path d="m -13.901915,59.105494 q -0.5775,0 -0.885,-0.3075 -0.3,-0.3075 -0.3,-0.87 l 0,-1.9275 -0.645,0 0,-0.63 0.645,0 0,-1.125 0.69,0 0,1.125 0.9,0 0,0.63 -0.9,0 0,1.875 q 0,0.6 0.495,0.6 0.1875,0 0.315,-0.06 l 0.24,0.5925 q -0.225,0.0975 -0.555,0.0975 z" style="font-size:7.5px;font-family:'Product Sans';fill:#ffffff;fill-opacity:1"/>
  </g>
  <g style="fill:#ffffff;fill-opacity:1" transform="translate(-498.4893,-513.05205)">
   <g style="fill:#ffffff;fill-opacity:1" transform="translate(0.41988239,0.03484499)">
    <path d="m 471.11732,530.73981 c -0.76741,0.21527 -1.38522,1.07176 -1.38522,1.90367 l 0,13.19006 c -0.77819,-0.42666 -1.77761,-0.59922 -2.81376,-0.31728 -1.86973,0.50868 -3.04139,2.15267 -2.64059,3.67146 0.40079,1.51871 2.24266,2.36706 4.11239,1.85838 1.49167,-0.40583 2.5199,-1.55412 2.68388,-2.76492 l 0.0433,-12.46485 9.69662,-2.71956 0,9.83584 c -0.77819,-0.42665 -1.77762,-0.59916 -2.81374,-0.31728 -1.86976,0.50868 -3.04141,2.15268 -2.6406,3.67145 0.40079,1.51878 2.24266,2.36712 4.1124,1.85838 1.49166,-0.40578 2.51989,-1.55407 2.68388,-2.76492 l 0.0433,-16.2269 c 0,-0.62395 -0.36827,-1.09074 -0.86578,-1.17852 l -10.21608,2.76499 z" style="fill:#ffffff;fill-opacity:1"/>
   </g>
  </g>
 </g>
</svg>
