<?xml version="1.0" encoding="UTF-8" standalone="no"?>
<svg xmlns="http://www.w3.org/2000/svg" xmlns:xlink="http://www.w3.org/1999/xlink" width="64" viewBox="0 0 64 64" height="64" version="1.1">
 <defs>
  <linearGradient id="linearGradient4244">
   <stop offset="0" style="stop-color:#2daf7b;stop-opacity:1"/>
   <stop offset="1" style="stop-color:#44d68c;stop-opacity:1"/>
  </linearGradient>
  <linearGradient xlink:href="#linearGradient4244" id="linearGradient4182" x1="-74.929" y1="52.199" x2="-75.26" y2="2.356" gradientUnits="userSpaceOnUse" gradientTransform="matrix(1.0749904,0,0,1.0292896,56.688954,-0.01528455)"/>
 </defs>
 <g transform="translate(56.391766,-0.17677665)">
  <rect ry="2.5" y="54.48" x="-46.39" height="7.699" width="44" style="opacity:1;fill:#144d36;fill-opacity:1;"/>
  <rect ry="2.5" y="1.65" x="-46.39" height="52.832" width="44" style="opacity:1;fill:url(#linearGradient4182);fill-opacity:1.0;"/>
  <rect ry="0" y="51.26" x="-46.39" height="7.912" width="44" style="opacity:1;fill:#144d36;fill-opacity:1;"/>
  <g style="font-size:9.36996746px;line-height:125%;letter-spacing:0px;word-spacing:0px;fill:#ffffff;fill-opacity:1;" transform="matrix(0.81954967,0,0,0.81954967,-4.1342887,10.721773)">
   <g style="font-size:13.75px;line-height:125%;letter-spacing:0px;word-spacing:0px;fill:#ffffff;fill-opacity:1;">
    <path d="m -35.4204,53.164537 q -0.19,0.19 -0.46,0.19 -0.27,0 -0.46,-0.19 -0.19,-0.19 -0.19,-0.46 0,-0.27 0.19,-0.46 0.19,-0.19 0.46,-0.19 0.27,0 0.46,0.19 0.19,0.19 0.19,0.46 0,0.27 -0.19,0.46 z m 0,6.13 -0.92,0 0,-4.9 0.92,0 0,4.9 z" style="font-size:10px;font-family:'Product Sans';fill:#ffffff;fill-opacity:1"/>
    <path d="m -33.333369,54.394537 0,0.68 0.04,0 q 0.2,-0.35 0.63,-0.59 0.43,-0.25 0.92,-0.25 0.91,0 1.39,0.56 0.48,0.56 0.48,1.5 l 0,3 -0.92,0 0,-2.86 q 0,-1.36 -1.21,-1.36 -0.57,0 -0.93,0.46 -0.36,0.45 -0.36,1.05 l 0,2.71 -0.92,0 0,-4.9 0.88,0 z" style="font-size:10px;font-family:'Product Sans';fill:#ffffff;fill-opacity:1"/>
    <path d="m -27.022275,59.454537 q -0.82,0 -1.36,-0.4 -0.53,-0.4 -0.78,-1 l 0.82,-0.34 q 0.39,0.92 1.33,0.92 0.43,0 0.7,-0.19 0.28,-0.19 0.28,-0.5 0,-0.48 -0.67,-0.65 l -0.99,-0.24 q -0.47,-0.12 -0.89,-0.45 -0.42,-0.34 -0.42,-0.91 0,-0.65 0.57,-1.05 0.58,-0.41 1.37,-0.41 0.65,0 1.16,0.3 0.51,0.29 0.73,0.84 l -0.8,0.33 q -0.27,-0.65 -1.12,-0.65 -0.41,0 -0.69,0.17 -0.28,0.17 -0.28,0.46 0,0.42 0.65,0.57 l 0.97,0.23 q 0.69,0.16 1.02,0.55 0.33,0.39 0.33,0.88 0,0.66 -0.54,1.1 -0.54,0.44 -1.39,0.44 z" style="font-size:10px;font-family:'Product Sans';fill:#ffffff;fill-opacity:1"/>
    <path d="m -22.230088,59.374537 q -0.77,0 -1.18,-0.41 -0.4,-0.41 -0.4,-1.16 l 0,-2.57 -0.86,0 0,-0.84 0.86,0 0,-1.5 0.92,0 0,1.5 1.2,0 0,0.84 -1.2,0 0,2.5 q 0,0.8 0.66,0.8 0.25,0 0.42,-0.08 l 0.32,0.79 q -0.3,0.13 -0.74,0.13 z" style="font-size:10px;font-family:'Product Sans';fill:#ffffff;fill-opacity:1"/>
    <path d="m -19.362588,59.454537 q -0.78,0 -1.31,-0.45 -0.52,-0.45 -0.52,-1.19 0,-0.8 0.62,-1.25 0.62,-0.46 1.53,-0.46 0.81,0 1.33,0.3 l 0,-0.14 q 0,-0.54 -0.37,-0.86 -0.37,-0.33 -0.91,-0.33 -0.4,0 -0.73,0.19 -0.32,0.19 -0.44,0.52 l -0.84,-0.36 q 0.17,-0.44 0.67,-0.81 0.5,-0.38 1.32,-0.38 0.94,0 1.56,0.55 0.62,0.55 0.62,1.55 l 0,2.96 -0.88,0 0,-0.68 -0.04,0 q -0.55,0.84 -1.61,0.84 z m 0.15,-0.84 q 0.57,0 1.03,-0.42 0.47,-0.43 0.47,-1.01 -0.39,-0.32 -1.17,-0.32 -0.67,0 -1.01,0.29 -0.34,0.29 -0.34,0.68 0,0.36 0.31,0.57 0.31,0.21 0.71,0.21 z" style="font-size:10px;font-family:'Product Sans';fill:#ffffff;fill-opacity:1"/>
    <path d="m -14.8754,59.294537 -0.92,0 0,-7.16 0.92,0 0,7.16 z" style="font-size:10px;font-family:'Product Sans';fill:#ffffff;fill-opacity:1"/>
    <path d="m -12.84415,59.294537 -0.92,0 0,-7.16 0.92,0 0,7.16 z" style="font-size:10px;font-family:'Product Sans';fill:#ffffff;fill-opacity:1"/>
   </g>
  </g>
  <g transform="translate(-406.57999,-510.78916)">
   <g transform="translate(0.41988239,0.03484499)">
    <g transform="matrix(0.72249841,0,0,0.72249841,120.78241,155.36674)">
     <g transform="matrix(0.65762761,0,0,0.65762761,124.45546,178.50762)">
      <g transform="translate(0,-0.21046656)">
       <g transform="translate(-48.123492,9.2849703)">
        <g transform="translate(50.777056,-5.4014337)">
         <rect ry="1.644" y="512.71" x="334.23" height="34.939" width="46.303" style="opacity:1;fill:#144d36;fill-opacity:1;"/>
        </g>
       </g>
       <g transform="matrix(0.14062974,0,0,0.14062974,354.0472,526.37749)" style="fill:#818a93;fill-opacity:1">
        <path d="m 47.3325,99.9885 53.039,-53.119 c 2.064,-1.956 3.096,-4.399 3.096,-7.333 0,-2.934 -1.033,-5.377 -3.096,-7.333 l -6.111,-6.192 c -2.01,-2.01 -4.453,-3.015 -7.332,-3.015 -2.824,0 -5.296,1.005 -7.414,3.015 l -39.515,39.596 -39.596,-39.597 c -2.01,-2.01 -4.454,-3.015 -7.333,-3.015 -2.824,0 -5.296,1.005 -7.414,3.015 l -6.11,6.192 c -2.01,2.01 -3.015,4.455 -3.015,7.333 0,2.879 1.005,5.324 3.015,7.333 l 53.039,53.12 c 2.118,2.01 4.59,3.016 7.414,3.016 2.879,0 5.323,-1.006 7.333,-3.016 l 0,0 z" style="fill:#39c384;fill-opacity:1"/>
       </g>
      </g>
     </g>
    </g>
   </g>
  </g>
 </g>
</svg>
