<?xml version="1.0" encoding="UTF-8" standalone="no"?>
<svg xmlns="http://www.w3.org/2000/svg" xmlns:xlink="http://www.w3.org/1999/xlink" width="64" viewBox="0 0 64 64" height="64" version="1.1">
 <defs>
  <linearGradient xlink:href="#linearGradient4422-6" id="linearGradient4182" x1="-74.929" y1="52.199" x2="-75.26" y2="2.356" gradientUnits="userSpaceOnUse" gradientTransform="matrix(1.0749904,0,0,1.0292896,56.688954,-0.01528455)"/>
  <linearGradient id="linearGradient4422-6">
   <stop style="stop-color:#eb9e27;stop-opacity:1" offset="0"/>
   <stop style="stop-color:#f5a931;stop-opacity:1" offset="1"/>
  </linearGradient>
 </defs>
 <g transform="translate(56.391766,-0.17677665)">
  <rect ry="2.5" y="1.65" x="-46.39" height="52.832" width="44" style="opacity:1;fill:url(#linearGradient4182);fill-opacity:1.0;"/>
  <rect ry="2.5" y="54.48" x="-46.39" height="7.699" width="44" style="opacity:1;fill:#674511;fill-opacity:1;"/>
  <rect ry="0" y="51.26" x="-46.39" height="7.912" width="44" style="opacity:1;fill:#674511;fill-opacity:1;"/>
  <g style="font-size:9.36996746px;line-height:125%;letter-spacing:0px;word-spacing:0px;fill:#ffffff;fill-opacity:1;" transform="matrix(0.81954967,0,0,0.81954967,-4.9345603,9.2217281)">
   <g style="font-size:13.75px;line-height:125%;letter-spacing:0px;word-spacing:0px;fill:#ffffff;fill-opacity:1;">
    <path d="m -28.322799,60.918881 q -1.1,0 -1.81,-0.74 -0.71,-0.75 -0.71,-1.87 0,-1.12 0.71,-1.86 0.71,-0.75 1.81,-0.75 0.82,0 1.36,0.4 0.54,0.4 0.79,1.01 l -0.84,0.35 q -0.38,-0.92 -1.37,-0.92 -0.61,0 -1.08,0.5 -0.46,0.5 -0.46,1.27 0,0.77 0.46,1.27 0.47,0.5 1.08,0.5 1.03,0 1.42,-0.92 l 0.82,0.35 q -0.25,0.6 -0.81,1.01 -0.55,0.4 -1.37,0.4 z" style="font-size:10px;font-family:'Product Sans';fill:#ffffff;fill-opacity:1"/>
    <path d="m -23.527955,60.918881 q -0.82,0 -1.36,-0.4 -0.53,-0.4 -0.78,-1 l 0.82,-0.34 q 0.39,0.92 1.33,0.92 0.43,0 0.7,-0.19 0.28,-0.19 0.28,-0.5 0,-0.48 -0.67,-0.65 l -0.99,-0.24 q -0.47,-0.12 -0.89,-0.45 -0.42,-0.34 -0.42,-0.91 0,-0.65 0.57,-1.05 0.58,-0.41 1.37,-0.41 0.65,0 1.16,0.3 0.51,0.29 0.73,0.84 l -0.8,0.33 q -0.27,-0.65 -1.12,-0.65 -0.41,0 -0.69,0.17 -0.28,0.17 -0.28,0.46 0,0.42 0.65,0.57 l 0.97,0.23 q 0.69,0.16 1.02,0.55 0.33,0.39 0.33,0.88 0,0.66 -0.54,1.1 -0.54,0.44 -1.39,0.44 z" style="font-size:10px;font-family:'Product Sans';fill:#ffffff;fill-opacity:1"/>
    <path d="m -18.977174,60.918881 q -0.82,0 -1.36,-0.4 -0.53,-0.4 -0.78,-1 l 0.82,-0.34 q 0.39,0.92 1.33,0.92 0.43,0 0.7,-0.19 0.28,-0.19 0.28,-0.5 0,-0.48 -0.67,-0.65 l -0.99,-0.24 q -0.47,-0.12 -0.89,-0.45 -0.42,-0.34 -0.42,-0.91 0,-0.65 0.57,-1.05 0.58,-0.41 1.37,-0.41 0.65,0 1.16,0.3 0.51,0.29 0.73,0.84 l -0.8,0.33 q -0.27,-0.65 -1.12,-0.65 -0.41,0 -0.69,0.17 -0.28,0.17 -0.28,0.46 0,0.42 0.65,0.57 l 0.97,0.23 q 0.69,0.16 1.02,0.55 0.33,0.39 0.33,0.88 0,0.66 -0.54,1.1 -0.54,0.44 -1.39,0.44 z" style="font-size:10px;font-family:'Product Sans';fill:#ffffff;fill-opacity:1"/>
   </g>
  </g>
  <g transform="translate(-448.97909,-513.06633)" style="font-size:24.0174427px;line-height:125%;letter-spacing:0px;word-spacing:0px;fill:#674511;fill-opacity:1;">
   <path style="font-family:'Product Sans';fill:#674511;fill-opacity:1" d="m 420.71951,551.24312 q -1.84934,0 -2.93013,-1.08079 -1.05676,-1.08078 -1.05676,-2.88209 l 0,-4.10698 q 0,-0.98472 -0.50437,-1.48909 -0.50437,-0.52838 -1.27293,-0.52838 l 0,-1.82533 q 0.76856,0 1.27293,-0.50436 0.50437,-0.52839 0.50437,-1.5131 l 0,-4.10698 q 0,-1.80131 1.05676,-2.8821 1.08079,-1.08078 2.93013,-1.08078 l 0.52838,0 0,1.82532 -0.52838,0 q -0.84061,0 -1.41703,0.60044 -0.5524,0.60044 -0.5524,1.60917 l 0,4.10698 q 0,2.18559 -1.6572,2.81004 l 0,0.0961 q 1.6572,0.57642 1.6572,2.81004 l 0,4.10699 q 0,1.00873 0.5524,1.60916 0.57642,0.60044 1.41703,0.60044 l 0.52838,0 0,1.82533 -0.52838,0 z"/>
   <path style="font-family:'Product Sans';fill:#674511;fill-opacity:1" d="m 428.62275,551.24312 -0.52838,0 0,-1.82533 0.52838,0 q 0.84061,0 1.39301,-0.60044 0.57642,-0.60043 0.57642,-1.60916 l 0,-4.10699 q 0,-2.23362 1.65721,-2.81004 l 0,-0.0961 q -1.65721,-0.62445 -1.65721,-2.81004 l 0,-4.10698 q 0,-1.00873 -0.57642,-1.60917 -0.5524,-0.60044 -1.39301,-0.60044 l -0.52838,0 0,-1.82532 0.52838,0 q 1.84934,0 2.90611,1.08078 1.08079,1.08079 1.08079,2.8821 l 0,4.10698 q 0,0.98471 0.50436,1.5131 0.50437,0.50436 1.27293,0.50436 l 0,1.82533 q -0.76856,0 -1.27293,0.52838 -0.50436,0.50437 -0.50436,1.48909 l 0,4.10698 q 0,1.80131 -1.08079,2.88209 -1.05677,1.08079 -2.90611,1.08079 z"/>
  </g>
 </g>
</svg>
