<?xml version="1.0" encoding="UTF-8" standalone="no"?>
<svg xmlns="http://www.w3.org/2000/svg" xmlns:xlink="http://www.w3.org/1999/xlink" width="64" viewBox="0 0 64 64" height="64" version="1.1">
 <defs>
  <linearGradient xlink:href="#linearGradient4143" id="linearGradient4182" x1="-74.929" y1="52.199" x2="-75.26" y2="2.356" gradientUnits="userSpaceOnUse" gradientTransform="matrix(1.0749904,0,0,1.0292896,56.688954,-0.01528455)"/>
  <linearGradient id="linearGradient4143">
   <stop offset="0" style="stop-color:#197cf1;stop-opacity:1"/>
   <stop offset="1" style="stop-color:#20bcfa;stop-opacity:1"/>
  </linearGradient>
 </defs>
 <g transform="translate(56.391766,-0.17677665)">
  <rect ry="2.5" y="54.48" x="-46.39" height="7.699" width="44" style="opacity:1;fill:#0b3969;fill-opacity:1;"/>
  <rect ry="2.5" y="1.65" x="-46.39" height="52.832" width="44" style="opacity:1;fill:url(#linearGradient4182);fill-opacity:1.0;"/>
  <rect ry="0" y="51.26" x="-46.39" height="7.912" width="44" style="opacity:1;fill:#0b3969;fill-opacity:1;"/>
  <g style="font-size:13.75px;line-height:125%;letter-spacing:0px;word-spacing:0px;fill:#000000;fill-opacity:1;" transform="matrix(0.6021918,0,0,0.6021918,27.056226,35.857853)">
   <path d="m -94.391064,39.361946 -2.7225,-6.7375 1.375,0 1.98,5.225 0.0275,0 2.0075,-5.225 1.3475,0 -2.75,6.7375 -1.265,0 z" style="font-family:'Product Sans';fill:#ffffff;fill-opacity:1"/>
   <path d="m -87.553447,39.581946 q -1.0725,0 -1.80125,-0.61875 -0.715,-0.61875 -0.715,-1.63625 0,-1.1 0.8525,-1.71875 0.8525,-0.6325 2.10375,-0.6325 1.11375,0 1.82875,0.4125 l 0,-0.1925 q 0,-0.7425 -0.50875,-1.1825 -0.50875,-0.45375 -1.25125,-0.45375 -0.55,0 -1.00375,0.26125 -0.44,0.26125 -0.605,0.715 l -1.155,-0.495 q 0.23375,-0.605 0.92125,-1.11375 0.6875,-0.5225 1.815,-0.5225 1.2925,0 2.145,0.75625 0.8525,0.75625 0.8525,2.13125 l 0,4.07 -1.21,0 0,-0.935 -0.055,0 q -0.75625,1.155 -2.21375,1.155 z m 0.20625,-1.155 q 0.78375,0 1.41625,-0.5775 0.64625,-0.59125 0.64625,-1.38875 -0.53625,-0.44 -1.60875,-0.44 -0.92125,0 -1.38875,0.39875 -0.4675,0.39875 -0.4675,0.935 0,0.495 0.42625,0.78375 0.42625,0.28875 0.97625,0.28875 z" style="font-family:'Product Sans';fill:#ffffff;fill-opacity:1"/>
   <path d="m -81.383564,39.361946 -1.265,0 0,-9.845 1.265,0 0,9.845 z" style="font-family:'Product Sans';fill:#ffffff;fill-opacity:1"/>
   <path d="m -77.804911,39.581946 q -1.0725,0 -1.80125,-0.61875 -0.715,-0.61875 -0.715,-1.63625 0,-1.1 0.8525,-1.71875 0.8525,-0.6325 2.10375,-0.6325 1.11375,0 1.82875,0.4125 l 0,-0.1925 q 0,-0.7425 -0.50875,-1.1825 -0.50875,-0.45375 -1.25125,-0.45375 -0.55,0 -1.00375,0.26125 -0.44,0.26125 -0.605,0.715 l -1.155,-0.495 q 0.23375,-0.605 0.92125,-1.11375 0.6875,-0.5225 1.815,-0.5225 1.2925,0 2.145,0.75625 0.8525,0.75625 0.8525,2.13125 l 0,4.07 -1.21,0 0,-0.935 -0.055,0 q -0.75625,1.155 -2.21375,1.155 z m 0.20625,-1.155 q 0.78375,0 1.41625,-0.5775 0.64625,-0.59125 0.64625,-1.38875 -0.53625,-0.44 -1.60875,-0.44 -0.92125,0 -1.38875,0.39875 -0.4675,0.39875 -0.4675,0.935 0,0.495 0.42625,0.78375 0.42625,0.28875 0.97625,0.28875 z" style="font-family:'Product Sans';fill:#ffffff;fill-opacity:1"/>
   <path d="m -88.610512,3.3641273 -14.369088,-35.5598543 7.25712,0 10.450242,27.57703 0.145137,0 10.595389,-27.57703 7.111969,0 -14.514222,35.5598543 -6.676547,0 z" style="font-size:13.75px;line-height:125%;font-family:'Product Sans';letter-spacing:0px;word-spacing:0px;fill:#0b3969;fill-opacity:1;stroke:#0b3969;stroke-width:0.9733569px;stroke-opacity:1"/>
  </g>
 </g>
</svg>
