<?xml version="1.0" encoding="UTF-8" standalone="no"?>
<svg xmlns="http://www.w3.org/2000/svg" xmlns:xlink="http://www.w3.org/1999/xlink" width="64" viewBox="0 0 64 64" height="64" version="1.1">
 <defs>
  <linearGradient xlink:href="#linearGradient4422-35" id="linearGradient4182" x1="-74.929" y1="52.199" x2="-75.26" y2="2.356" gradientUnits="userSpaceOnUse" gradientTransform="matrix(1.0749904,0,0,1.0292896,56.688954,-0.01528455)"/>
  <linearGradient id="linearGradient4422-35">
   <stop offset="0" style="stop-color:#ff1526;stop-opacity:1"/>
   <stop offset="1" style="stop-color:#ff461c;stop-opacity:1"/>
  </linearGradient>
 </defs>
 <g transform="translate(56.391766,-0.17677665)">
  <rect ry="2.5" y="54.48" x="-46.39" height="7.699" width="44" style="opacity:1;fill:#6f0a10;fill-opacity:1;"/>
  <rect ry="2.5" y="1.65" x="-46.39" height="52.832" width="44" style="opacity:1;fill:url(#linearGradient4182);fill-opacity:1.0;"/>
  <rect ry="0" y="51.26" x="-46.39" height="7.912" width="44" style="opacity:1;fill:#6f0a10;fill-opacity:1;"/>
  <g style="font-size:9.36996746px;line-height:125%;letter-spacing:0px;word-spacing:0px;fill:#ffffff;fill-opacity:1;" transform="matrix(0.81954967,0,0,0.81954967,-3.2342864,9.9218286)">
   <g style="font-size:13.75px;line-height:125%;letter-spacing:0px;word-spacing:0px;fill:#ffffff;fill-opacity:1;">
    <path d="m -33.792331,60.026527 -0.92,0 0,-4.9 0.88,0 0,0.8 0.04,0 q 0.14,-0.4 0.57,-0.66 0.44,-0.26 0.85,-0.26 0.41,0 0.69,0.12 l -0.35,0.86 q -0.18,-0.07 -0.49,-0.07 -0.5,0 -0.89,0.4 -0.38,0.39 -0.38,1.03 l 0,2.68 z" style="font-size:10px;font-family:'Product Sans';fill:#ffffff;fill-opacity:1"/>
    <path d="m -26.779519,60.026527 -0.88,0 0,-0.68 -0.04,0 q -0.21,0.35 -0.64,0.6 -0.43,0.24 -0.91,0.24 -0.92,0 -1.4,-0.56 -0.47,-0.56 -0.47,-1.5 l 0,-3 0.92,0 0,2.85 q 0,1.37 1.21,1.37 0.57,0 0.93,-0.46 0.36,-0.46 0.36,-1.06 l 0,-2.7 0.92,0 0,4.9 z" style="font-size:10px;font-family:'Product Sans';fill:#ffffff;fill-opacity:1"/>
    <path d="m -23.059831,60.186527 q -0.56,0 -1.01,-0.24 -0.44,-0.24 -0.66,-0.6 l -0.04,0 0,0.68 -0.88,0 0,-7.16 0.92,0 0,2.26 -0.04,0.68 0.04,0 q 0.22,-0.36 0.66,-0.6 0.45,-0.24 1.01,-0.24 0.95,0 1.64,0.75 0.69,0.75 0.69,1.86 0,1.11 -0.69,1.86 -0.69,0.75 -1.64,0.75 z m -0.15,-0.84 q 0.64,0 1.1,-0.48 0.46,-0.49 0.46,-1.29 0,-0.8 -0.46,-1.28 -0.46,-0.49 -1.1,-0.49 -0.65,0 -1.11,0.48 -0.45,0.48 -0.45,1.29 0,0.81 0.45,1.29 0.46,0.48 1.11,0.48 z" style="font-size:10px;font-family:'Product Sans';fill:#ffffff;fill-opacity:1"/>
    <path d="m -18.773425,62.186527 -0.95,0 1.14,-2.47 -2.02,-4.59 1,0 1.46,3.52 0.02,0 1.42,-3.52 1,0 -3.07,7.06 z" style="font-size:10px;font-family:'Product Sans';fill:#ffffff;fill-opacity:1"/>
   </g>
  </g>
  <g transform="matrix(0.05916547,0,0,0.05916547,-36.670766,15.837078)" style="fill:#ffffff;fill-opacity:1">
   <path d="m 333.227,39.545 -54.916,83.015 -56.76,-83.015 111.676,0 z m -63.641,102 -121.829,0 60.908,231.669 60.921,-231.669 z m -117.763,-13.6 113.688,0 -56.847,-83.15 -56.841,83.15 z m -12.79,-5.385 56.753,-83.015 -111.67,0 54.917,83.015 z M 195.758,377.58 133.701,141.545 0,141.545 195.758,377.58 Z M 0.19,127.945 l 126.1,0 L 71.359,44.91 0.19,127.945 Z m 345.699,-82.885 -54.836,82.885 125.883,0 -71.047,-82.885 z m -62.248,96.485 -62.063,236.015 195.547,-236.015 -133.484,0 z" style="fill:#ffffff;fill-opacity:1"/>
  </g>
 </g>
</svg>
