<?xml version="1.0" encoding="UTF-8" standalone="no"?>
<svg xmlns="http://www.w3.org/2000/svg" xmlns:xlink="http://www.w3.org/1999/xlink" width="64" viewBox="0 0 64 64" height="64" version="1.1">
 <defs>
  <linearGradient xlink:href="#linearGradient4422-4" id="linearGradient4182" x1="-74.929" y1="52.199" x2="-75.26" y2="2.356" gradientUnits="userSpaceOnUse" gradientTransform="matrix(1.0749904,0,0,1.0292896,56.688954,-0.01528455)"/>
  <linearGradient id="linearGradient4422-4">
   <stop offset="0" style="stop-color:#d1d7df;stop-opacity:1"/>
   <stop offset="1" style="stop-color:#e0e5e7;stop-opacity:1"/>
  </linearGradient>
 </defs>
 <g transform="translate(56.391766,-0.17677665)">
  <rect ry="2.5" y="54.48" x="-46.39" height="7.699" width="44" style="opacity:1;fill:#3d434a;fill-opacity:1;"/>
  <rect ry="2.5" y="1.65" x="-46.39" height="52.832" width="44" style="opacity:1;fill:url(#linearGradient4182);fill-opacity:1.0;"/>
  <rect ry="0" y="51.26" x="-46.39" height="7.912" width="44" style="opacity:1;fill:#3d434a;fill-opacity:1;"/>
  <g transform="translate(-47.291301,-2.3598633e-7)">
   <g style="font-size:13.75px;line-height:125%;letter-spacing:0px;word-spacing:0px;fill:#3d434a;fill-opacity:1;" transform="matrix(1.659751,0,0,1.659751,89.820128,-18.868467)">
    <path d="m -44.258811,24.49726 q 0.275,-0.275 0.67375,-0.275 0.39875,0 0.66,0.275 0.275,0.275 0.275,0.66 0,0.385 -0.275,0.66 -0.26125,0.275 -0.66,0.275 -0.39875,0 -0.67375,-0.275 -0.26125,-0.275 -0.26125,-0.66 0,-0.385 0.26125,-0.66 z m 0.0275,2.86 1.2925,0 0,0.64625 q 0,0.61875 -0.26125,1.0725 -0.26125,0.44 -0.92125,1.045 -0.37125,0.34375 -0.53625,0.5225 -0.15125,0.165 -0.31625,0.48125 -0.15125,0.3025 -0.15125,0.6325 0,0.6325 0.39875,1.0175 0.4125,0.385 1.1275,0.385 1.1825,0 1.6225,-1.32 l 1.1825,0.495 q -0.28875,0.78375 -1.00375,1.4025 -0.70125,0.6325 -1.80125,0.6325 -1.25125,0 -2.035,-0.7425 -0.78375,-0.72875 -0.78375,-1.87 0,-0.495 0.26125,-1.00375 0.26125,-0.50875 0.45375,-0.715 0.20625,-0.22 0.56375,-0.55 0.04125,-0.04125 0.06875,-0.06875 0.83875,-0.75625 0.83875,-1.5125 l 0,-0.55 z" style="font-family:'Product Sans';fill:#3d434a;fill-opacity:1"/>
    <path d="m -36.346761,30.98726 q -0.26125,0.275 -0.66,0.275 -0.39875,0 -0.67375,-0.275 -0.26125,-0.275 -0.26125,-0.66 0,-0.385 0.26125,-0.66 0.275,-0.275 0.67375,-0.275 0.39875,0 0.66,0.275 0.275,0.275 0.275,0.66 0,0.385 -0.275,0.66 z m -0.01375,-2.86 -1.2925,0 0,-0.64625 q 0,-0.61875 0.26125,-1.05875 0.26125,-0.45375 0.92125,-1.05875 0.37125,-0.34375 0.5225,-0.50875 0.165,-0.17875 0.31625,-0.48125 0.165,-0.31625 0.165,-0.64625 0,-0.6325 -0.4125,-1.0175 -0.39875,-0.385 -1.11375,-0.385 -1.1825,0 -1.6225,1.32 l -1.1825,-0.495 q 0.28875,-0.78375 0.99,-1.4025 0.715,-0.6325 1.815,-0.6325 1.25125,0 2.035,0.7425 0.78375,0.72875 0.78375,1.87 0,0.495 -0.26125,1.00375 -0.26125,0.50875 -0.4675,0.72875 -0.1925,0.20625 -0.55,0.53625 -0.04125,0.04125 -0.06875,0.06875 -0.83875,0.75625 -0.83875,1.5125 l 0,0.55 z" style="font-family:'Product Sans';fill:#3d434a;fill-opacity:1"/>
   </g>
  </g>
 </g>
</svg>
