<?xml version="1.0" encoding="UTF-8" standalone="no"?>
<svg xmlns="http://www.w3.org/2000/svg" xmlns:xlink="http://www.w3.org/1999/xlink" width="64" viewBox="0 0 64 64" height="64" version="1.1">
 <defs>
  <linearGradient id="linearGradient4373">
   <stop offset="0" style="stop-color:#2aaa76;stop-opacity:1"/>
   <stop offset="1" style="stop-color:#3ec380;stop-opacity:1"/>
  </linearGradient>
  <linearGradient xlink:href="#linearGradient4373" id="linearGradient4182" x1="-74.929" y1="52.199" x2="-75.26" y2="2.356" gradientUnits="userSpaceOnUse" gradientTransform="matrix(1.0749904,0,0,1.0292896,56.688954,-0.01528455)"/>
 </defs>
 <g transform="translate(56.391766,-0.17677665)">
  <rect ry="2.5" y="54.48" x="-46.39" height="7.699" width="44" style="opacity:1;fill:#144e36;fill-opacity:1;"/>
  <rect ry="2.5" y="1.65" x="-46.39" height="52.832" width="44" style="opacity:1;fill:url(#linearGradient4182);fill-opacity:1.0;"/>
  <rect ry="0" y="51.26" x="-46.39" height="7.912" width="44" style="opacity:1;fill:#144e36;fill-opacity:1;"/>
  <g style="font-size:9.36996746px;line-height:125%;letter-spacing:0px;word-spacing:0px;fill:#ffffff;fill-opacity:1;" transform="matrix(0.81954967,0,0,0.81954967,-4.3342833,10.721775)">
   <g style="font-size:13.75px;line-height:125%;letter-spacing:0px;word-spacing:0px;fill:#ffffff;fill-opacity:1;">
    <path d="m -28.20112,59.698643 q -1.1,0 -1.81,-0.74 -0.71,-0.75 -0.71,-1.87 0,-1.12 0.71,-1.86 0.71,-0.75 1.81,-0.75 0.82,0 1.36,0.4 0.54,0.4 0.79,1.01 l -0.84,0.35 q -0.38,-0.92 -1.37,-0.92 -0.61,0 -1.08,0.5 -0.46,0.5 -0.46,1.27 0,0.77 0.46,1.27 0.47,0.5 1.08,0.5 1.03,0 1.42,-0.92 l 0.82,0.35 q -0.25,0.6 -0.81,1.01 -0.55,0.4 -1.37,0.4 z" style="font-size:10px;font-family:'Product Sans';fill:#ffffff;fill-opacity:1"/>
    <path d="m -23.73487,59.698643 q -0.78,0 -1.31,-0.45 -0.52,-0.45 -0.52,-1.19 0,-0.8 0.62,-1.25 0.62,-0.46 1.53,-0.46 0.81,0 1.33,0.3 l 0,-0.14 q 0,-0.54 -0.37,-0.86 -0.37,-0.33 -0.91,-0.33 -0.4,0 -0.73,0.19 -0.32,0.19 -0.44,0.52 l -0.84,-0.36 q 0.17,-0.44 0.67,-0.81 0.5,-0.38 1.32,-0.38 0.94,0 1.56,0.55 0.62,0.55 0.62,1.55 l 0,2.96 -0.88,0 0,-0.68 -0.04,0 q -0.55,0.84 -1.61,0.84 z m 0.15,-0.84 q 0.57,0 1.03,-0.42 0.47,-0.43 0.47,-1.01 -0.39,-0.32 -1.17,-0.32 -0.67,0 -1.01,0.29 -0.34,0.29 -0.34,0.68 0,0.36 0.31,0.57 0.31,0.21 0.71,0.21 z" style="font-size:10px;font-family:'Product Sans';fill:#ffffff;fill-opacity:1"/>
    <path d="m -19.247682,59.538643 -0.92,0 0,-7.16 0.92,0 0,7.16 z" style="font-size:10px;font-family:'Product Sans';fill:#ffffff;fill-opacity:1"/>
   </g>
   <g transform="matrix(1.2201823,0,0,1.2201823,-50.942378,-16.075864)">
    <g transform="matrix(0,1,-1,0,48.665634,7.2669733)">
     <g transform="translate(-400.92463,-509.18113)">
      <g transform="translate(0.41988239,0.03484499)">
       <g transform="matrix(1.0037077,0,0,1.0037077,11.267145,17.846026)">
        <g transform="matrix(1.5263052,0,0,1.5263052,376.49864,-1040.1735)">
         <g transform="matrix(1.1526351,0,0,1.1526351,-4.8344134,-156.43331)">
          <g transform="matrix(0.49019093,0,0,0.49019093,12.268743,518.1207)">
           <path style="opacity:1;fill:#144e36;fill-opacity:1;fill-rule:evenodd;" d="m 11.447345,1036.9442 11.636697,0 -3.21e-4,-24.4983 -11.533282,3e-4 c -1.268259,-0.094 -1.7825661,0.023 -1.7825661,1.1721 l 0,22.0916 c -0.07966,1.261 0.4462081,1.2343 1.6794721,1.2343 z"/>
           <path style="opacity:1;fill:none;fill-opacity:1;stroke:#144e36;stroke-width:0.8117075;stroke-opacity:1" d="m 33.843953,1036.9367 -5.282394,0 -2.708421,-2.2737 0,-19.9506 1.855796,-2.2737 6.135019,0 c 0.848365,-0.094 0.916631,0.023 0.916631,1.1721 l 0,22.0916 c 0.05328,1.261 -0.09168,1.2343 -0.916631,1.2343 z"/>
           <path style="opacity:1;fill:#144e36;fill-opacity:1;fill-rule:evenodd;" d="m 31.841628,1038.1035 -10.029586,-1.1715 -2e-5,-24.4861 9.945926,-0.9324 c 1.230149,-0.094 1.296492,0.2446 1.296492,1.3937 l -0.08368,23.3688 c 0.07726,1.261 0.06707,1.8275 -1.129132,1.8275 z"/>
          </g>
         </g>
        </g>
       </g>
      </g>
     </g>
    </g>
    <g transform="matrix(0.75387328,0,0,0.75387328,-304.49662,-389.14541)">
     <g transform="translate(0.41988239,0.03484499)">
      <g style="fill:#34b67b;fill-opacity:1;">
       <path d="m 431.47567,560.28823 -7.13925,0.0317 -0.007,-1.53922 q 3.19539,-3.31015 4.09172,-4.31798 0.79844,-0.92374 1.07481,-1.39343 0.27631,-0.48642 0.27332,-1.18911 -0.003,-0.71941 -0.56213,-1.26905 -0.55908,-0.54964 -1.49242,-0.5455 -0.85147,0.004 -1.37325,0.52474 -0.52185,0.50424 -0.66673,1.09047 l -1.37787,-0.56274 q 0.27453,-0.90469 1.15534,-1.71168 0.8808,-0.80699 2.28901,-0.81323 1.55557,-0.007 2.55853,0.95905 1.00296,0.96594 1.00872,2.32112 0.007,1.67305 -1.76961,3.58826 l -3.2606,3.37736 5.1907,-0.023 0.006,1.4723 z" style="font-size:111.29611206px;line-height:125%;font-family:'Product Sans';letter-spacing:0px;word-spacing:0px;fill:#34b67b;fill-opacity:1;"/>
       <path d="m 436.44696,560.53387 q -1.12984,0.005 -2.19723,-0.70968 -1.0674,-0.71469 -1.4828,-2.13498 l 1.37297,-0.59167 q 0.26597,0.93575 0.87402,1.45171 0.60806,0.51596 1.42678,0.51233 0.91697,-0.004 1.56946,-0.59254 0.66886,-0.58854 0.66517,-1.45853 -0.004,-0.85326 -0.69384,-1.43578 -0.67384,-0.5826 -1.62355,-0.57839 l -0.9661,0.004 -0.006,-1.43883 0.85148,-0.004 q 0.88421,-0.004 1.45519,-0.50838 0.58734,-0.50453 0.58379,-1.34106 -0.003,-0.78633 -0.57836,-1.23552 -0.55865,-0.44925 -1.39375,-0.44555 -1.44095,0.006 -1.94223,1.49766 l -1.3944,-0.59612 q 0.32358,-0.92163 1.15562,-1.64475 0.83204,-0.72312 2.17475,-0.72907 1.50644,-0.007 2.50912,0.89234 1.00261,0.88229 1.00843,2.2542 0.007,1.65632 -1.496,2.46607 l 2.9e-4,0.0669 q 0.82021,0.34772 1.34725,1.06481 0.54341,0.71702 0.5476,1.70412 0.007,1.52248 -1.08635,2.53118 -1.09289,0.99197 -2.68121,0.99901 z" style="font-size:111.29611206px;line-height:125%;font-family:'Product Sans';letter-spacing:0px;word-spacing:0px;fill:#34b67b;fill-opacity:1;"/>
      </g>
     </g>
    </g>
   </g>
  </g>
 </g>
</svg>
