<?xml version="1.0" encoding="UTF-8" standalone="no"?>
<svg xmlns="http://www.w3.org/2000/svg" height="512" viewBox="0 0 512 512" width="512" version="1.1">
 <g transform="matrix(1.1103438,0,0,1.1103438,-28.640842,-27.340695)">
  <path d="M 219.84808,90.487726 A 162.5363,162.5363 0 0 0 97.023457,247.80657 162.5363,162.5363 0 0 0 219.84808,405.06683 l 0,-25.00446 A 139.78122,139.78122 0 0 1 120.86299,246.72202 139.78122,139.78122 0 0 1 219.84808,113.30948 Z m 81.71822,0.566796 0,22.291738 a 139.78122,139.78122 0 0 1 98.85837,133.37576 139.78122,139.78122 0 0 1 -98.85837,133.33762 l 0,24.44992 A 162.5363,162.5363 0 0 0 422.09648,247.80657 162.5363,162.5363 0 0 0 301.5663,91.054522 Z" style="fill:#ffffff"/>
  <path d="m 219.84808,127.09245 a 127.37712,127.37712 0 0 0 -87.66414,120.71412 127.37712,127.37712 0 0 0 87.66414,120.81903 l 0,-20.00955 A 109.54434,109.54434 0 0 1 150.86507,246.95773 109.54434,109.54434 0 0 1 219.84808,145.36212 Z m 81.71822,0.65536 0,17.78462 a 109.54434,109.54434 0 0 1 68.38758,101.4253 109.54434,109.54434 0 0 1 -68.38758,101.38445 l 0,19.43323 A 127.37712,127.37712 0 0 0 386.93737,247.80657 127.37712,127.37712 0 0 0 301.5663,127.74781 Z" style="fill:#ffffff"/>
  <path d="m 219.84808,162.5159 a 93.023813,93.023813 0 0 0 -54.15772,84.29741 93.023813,93.023813 0 0 0 54.15772,84.36283 l 0,-15.48065 A 80.000487,80.000487 0 0 1 179.333,246.19202 80.000487,80.000487 0 0 1 219.84808,176.81118 Z m 81.71822,1.80257 0,14.07728 a 80.000487,80.000487 0 0 1 37.76829,67.79627 80.000487,80.000487 0 0 1 -37.76829,67.84668 l 0,15.16182 a 93.023813,93.023813 0 0 0 50.17107,-82.38721 93.023813,93.023813 0 0 0 -50.17107,-82.49484 z" style="fill:#ffffff"/>
  <g transform="matrix(20.768307,0,0,20.768307,189.22158,177.44541)" style="fill:#ffffff">
   <path d="M 2.489,1.839 C 1.994,2.304 1.992,3.063 2.487,3.528 L 2.722,3.305 C 2.355,2.961 2.356,2.407 2.724,2.06 M 4.049,2.057 c 0.368,0.346 0.37,0.904 0.002,1.25 L 4.286,3.529 C 4.781,3.064 4.779,2.302 4.285,1.836 M 4.049,2.058"/>
   <path d="M 1.791,1.132 C 0.91,1.986 0.908,3.376 1.787,4.229 L 2.206,3.823 C 1.553,3.189 1.556,2.173 2.209,1.538 M 4.564,1.535 C 5.217,2.168 5.222,3.192 4.568,3.827 L 4.987,4.233 C 5.867,3.379 5.862,1.982 4.983,1.129 L 4.564,1.536 m 0,-0.001"/>
   <path d="m 3.387,2.54 c 0.156,0 0.282,0.126 0.282,0.282 l 0,2.54 c 0,0.156 -0.126,0.282 -0.282,0.282 -0.156,0 -0.282,-0.126 -0.282,-0.282 l 0,-2.54 C 3.105,2.666 3.231,2.54 3.387,2.54"/>
  </g>
 </g>
</svg>
