<?xml version="1.0" encoding="UTF-8" standalone="no"?>
<svg xmlns="http://www.w3.org/2000/svg" height="512" viewBox="0 0 512 512" width="512" version="1.1">
 <path d="m471.95 253.05c0 120.9-98.01 218.9-218.9 218.9-120.9 0-218.9-98.01-218.9-218.9 0-120.9 98.01-218.9 218.9-218.9 120.9 0 218.9 98.01 218.9 218.9" fill="#d5c9da" fill-rule="evenodd"/>
 <path d="m256 1c-140.83 0-255 114.17-255 255 0 140.83 114.17 255 255 255 140.83 0 255-114.17 255-255 0-140.83-114.17-255-255-255m8.827 44.931c120.9 0 218.9 98 218.9 218.9 0 120.9-98 218.9-218.9 218.9-120.9 0-218.93-98-218.93-218.9 0-120.9 98.03-218.9 218.93-218.9" fill-opacity=".067" fill-rule="evenodd"/>
 <g fill-opacity=".129" fill-rule="evenodd">
  <path d="m256 4.433c-138.94 0-251.57 112.63-251.57 251.57 0 138.94 112.63 251.57 251.57 251.57 138.94 0 251.57-112.63 251.57-251.57 0-138.94-112.63-251.57-251.57-251.57m5.885 38.556c120.9 0 218.9 98 218.9 218.9 0 120.9-98 218.9-218.9 218.9-120.9 0-218.93-98-218.93-218.9 0-120.9 98.03-218.9 218.93-218.9"/>
  <path d="m256 8.356c-136.77 0-247.64 110.87-247.64 247.64 0 136.77 110.87 247.64 247.64 247.64 136.77 0 247.64-110.87 247.64-247.64 0-136.77-110.87-247.64-247.64-247.64m2.942 31.691c120.9 0 218.9 98 218.9 218.9 0 120.9-98 218.9-218.9 218.9-120.9 0-218.93-98-218.93-218.9 0-120.9 98.03-218.9 218.93-218.9"/>
 </g>
 <path d="M 365.87895,131.56654 C 339.24868,110.99201 268.66194,68.379759 268.66194,68.379759 l -12.3002,31.993281 -28.46095,-24.368714 -5.16311,7.797094 17.05649,25.88315 -31.85401,38.92565 -20.0235,-14.8001 -23.93868,4.49098 -38.31663,-6.96029 23.37847,49.32864 -5.3732,44.13822 40.70978,110.60841 -7.00721,35.03704 127.25417,95.43469 c 97.43936,-22.3779 157.95932,-88.70747 169.53,-213.31 l -6.98812,-75.11937 -86.0212,-60.49249" style="opacity:0.25"/>
 <path d="m253.04 7.859c-135.42 0-245.19 109.78-245.19 245.19 0 135.42 109.78 245.19 245.19 245.19 135.42 0 245.19-109.78 245.19-245.19 0-135.42-109.78-245.19-245.19-245.19zm0 26.297c120.9 0 218.9 98 218.9 218.9 0 120.9-98 218.9-218.9 218.9-120.9 0-218.93-98-218.93-218.9 0-120.9 98.03-218.9 218.93-218.9z" fill="#ffffff" fill-rule="evenodd" stroke="#000000" stroke-opacity=".31" stroke-width="4.904"/>
 <path style="fill:#ffffff;fill-opacity:1;stroke-width:3.90300131" d="M 260.43945 63.140625 C 254.92518 63.140625 243.15378 77.893684 241.45898 86.927734 C 240.50067 92.035864 238.26607 96.216797 236.49414 96.216797 C 231.16175 96.216797 226.88456 89.023641 228.18164 82.238281 C 229.51027 75.288011 227.74116 74.157276 222.98242 78.916016 C 217.41737 84.481066 219.53273 95.224567 227.78125 103.28906 L 235.63281 110.96484 L 222.50781 113.78125 C 215.28929 115.32933 203.3263 119.46096 195.92383 122.96289 L 182.46484 129.33008 L 167.51758 122.48633 C 152.35696 115.54558 136.06825 113.669 122.61328 117.31445 C 113.3853 119.81463 113.78808 124.65693 124.37891 138.52734 C 129.45231 145.17173 134.37865 155.55194 136.08008 163.18164 C 138.6689 174.79018 138.36892 178.28457 133.55664 192.54102 C 117.98105 238.68418 128.01551 283.85499 161.61719 318.84766 L 177.20703 335.08398 L 172.875 346.42578 C 167.91608 359.4104 169.24883 366.53397 177.36914 370.45312 C 189.61223 375.90473 195.4327 365.20716 203.50586 354.61133 C 205.95527 350.25215 207.2343 350.13445 219.72461 353.13086 C 232.90738 356.29327 270.62624 355.50764 286.47461 351.74023 C 292.3996 350.33176 293.7807 351.28765 297.67773 359.5 C 302.70955 370.10379 311.80417 374.92176 319.25977 370.93164 C 328.09397 366.20374 329.64275 359.76901 324.97461 347.17383 L 320.68945 335.61523 L 334.72852 320.86328 C 360.50043 293.78367 371.05417 268.33968 370.92188 233.60352 C 370.86187 217.87723 369.26839 207.46541 365.08203 195.43945 C 357.61434 173.98723 358.99603 156.054 369.24414 141.43164 C 383.65218 120.87371 384.23724 119.57709 380.69531 116.03516 C 378.68682 114.02667 370.78982 112.76767 360.11328 112.76367 C 346.27085 112.75477 339.71381 114.22192 327.48828 120.05859 L 312.1875 127.36328 L 295.95312 120.90039 C 287.02375 117.34581 275.42317 113.64435 270.17578 112.67578 C 264.92835 111.70717 260.63477 110.52084 260.63477 110.03906 C 260.63477 109.55727 263.49783 104.94603 266.99609 99.791016 C 274.78878 88.307846 275.3134 75.276319 268.26758 68.230469 C 265.46897 65.431859 261.94636 63.140625 260.43945 63.140625 z M 205.94141 184.03711 C 214.55871 184.03711 220.13982 194.36542 215.75586 202.19922 C 211.43544 209.91937 200.14904 209.81793 195.97656 202.02148 C 191.70251 194.03535 197.2425 184.03711 205.94141 184.03711 z M 292.34961 186.05078 C 300.08439 186.05078 305.09518 195.322 301.16016 202.35352 C 297.28218 209.28321 287.15147 209.19136 283.40625 202.19336 C 279.56993 195.02506 284.54154 186.05078 292.34961 186.05078 z M 248.71875 230.04492 C 266.9759 230.10706 284.10663 238.48713 286.67773 250.19336 C 289.24169 261.86705 276.17947 282.21041 261.71094 289.07617 C 248.82098 295.19285 236.95589 292.67696 225.08398 281.3125 C 216.62157 273.21184 210.03516 261.02131 210.03516 253.46094 C 210.03516 244.46042 221.64025 234.62056 236.06445 231.39258 C 240.23259 230.45979 244.50556 230.03058 248.71875 230.04492 z"/>
</svg>
