<svg width="512" height="512" version="1.1" viewBox="0 0 512 512" xmlns="http://www.w3.org/2000/svg">
 <g fill-rule="evenodd">
  <path d="m471.95 253.05c0 120.9-98.01 218.9-218.9 218.9-120.9 0-218.9-98.01-218.9-218.9 0-120.9 98.01-218.9 218.9-218.9 120.9 0 218.9 98.01 218.9 218.9" fill="#d5c9da"/>
  <path d="m256 1c-140.83 0-255 114.17-255 255s114.17 255 255 255 255-114.17 255-255-114.17-255-255-255m8.827 44.931c120.9 0 218.9 98 218.9 218.9s-98 218.9-218.9 218.9-218.93-98-218.93-218.9 98.03-218.9 218.93-218.9" fill-opacity=".067"/>
  <g fill-opacity=".129">
   <path d="m256 4.433c-138.94 0-251.57 112.63-251.57 251.57s112.63 251.57 251.57 251.57 251.57-112.63 251.57-251.57-112.63-251.57-251.57-251.57m5.885 38.556c120.9 0 218.9 98 218.9 218.9s-98 218.9-218.9 218.9-218.93-98-218.93-218.9 98.03-218.9 218.93-218.9"/>
   <path d="m256 8.356c-136.77 0-247.64 110.87-247.64 247.64s110.87 247.64 247.64 247.64 247.64-110.87 247.64-247.64-110.87-247.64-247.64-247.64m2.942 31.691c120.9 0 218.9 98 218.9 218.9s-98 218.9-218.9 218.9-218.93-98-218.93-218.9 98.03-218.9 218.93-218.9"/>
  </g>
 </g>
 <path d="m265.64 143.67-74.312-1.7352-65.499 7.5885-3.1554 21.392-1.7172 16.409-2.8893 64.474-0.35138 18.865-5.7956 34.561-2.9989 59.733 195.7 100.94c53.887-18.806 225.7-43.46 151.44-301.96l-34.221-26.555-119.38 12.801" opacity=".25"/>
 <path d="m253.04 7.859c-135.42 0-245.19 109.78-245.19 245.19 0 135.42 109.78 245.19 245.19 245.19 135.42 0 245.19-109.78 245.19-245.19 0-135.42-109.78-245.19-245.19-245.19zm0 26.297c120.9 0 218.9 98 218.9 218.9s-98 218.9-218.9 218.9-218.93-98-218.93-218.9 98.03-218.9 218.93-218.9z" fill="#ffffff" fill-rule="evenodd" stroke="#000000" stroke-opacity=".31" stroke-width="4.904"/>
 <path d="m108.92 137.38v227.58h312.92v-227.58zm135.29 14.225v0.0273c10.525 0.49782 21.178 0.88196 31.305 2.7168 12.403 2.7025 17.951 7.2264 18.861 21.279 0 5.4476-2.6734 10.497-8.0215 15.162 5.3481 2.5034 8.8601 4.5096 10.553 5.9746 6.6424 7.254 7.225 15.518 3.0859 26.584-1.9628 3.9826-6.4984 7.3397-13.639 10.113-13.868 4.0679-27.054 2.958-40.809 2.0762-2.0482-0.0996-3.2856-0.19986-3.7266-0.28516-0.45515-0.0853-0.93803-0.21408-1.4785-0.38476-1.2517-0.44093-1.8926-0.90983-1.8926-1.4219v-11.422c-1.2659-19.444-1.7767-39.114-2.8008-59.539 0-6.301 1.6494-9.7991 4.9492-10.496 1.0668-0.25603 2.2763-0.38476 3.6133-0.38476zm137.04 0.52539-0.15625 0.0156 13.783 0.38281c7.126 0 11.066 1.6798 11.777 5.0508 0.11379 4.3666-0.41336 8.433 0.52539 12.828 0 1.1237-0.51135 1.6934-1.5781 1.6934-1.337-1.1806-3.1434-2.247-4.2812-3.7832-1.778-1.0383-3.7551-1.636-5.8887-1.8066-12.901 0.51206-23.811 1.0097-33.057 11.535-2.1478 4.9356-3.6254 9.4874-4.4219 13.641-0.71118 4.1533-1.0527 6.8697-1.0527 8.1641 0.61161 3.9684 2.4453 7.3955 3.7539 10.895 1.0525 1.721 2.3051 3.3717 3.2012 4.666 1.081 0.69695 2.3316 1.3376 3.7539 1.9492 2.9443 1.1237 5.4063 1.6914 7.3691 1.6914 9.7005-0.75385 18.945-0.28459 28.219-4.0254 0.98143-0.42671 1.6503-0.63867 2.0059-0.63867 0.44093 0 0.75454 0.21196 0.93945 0.63867 0.0285 0.68273-0.0156 1.3812-0.0156 2.0781v2.8301c0.12801 4.4662 0.8973 9.373 1.4805 13.754-1e-5 1.8206-0.11452 2.9164-0.38477 3.2578-1.4224-0.34137-2.9435-0.52734-4.5508-0.52734-4.9925 0.54049-10.513-0.32576-14.865-0.63867-18.448-0.19913-32.926-4.439-41.73-22.83l-5.7461-14.395c-0.71118-1.5646-1.082-3.5845-1.082-6.0879 0-5.1063 2.1048-11.292 6.3008-18.561 4.9925-8.463 11.849-14.737 20.582-18.805 4.4662-1.9913 9.5008-2.9726 15.119-2.9726zm-227.83 0.42773c1.5788 0.0853 3.5276 0.72549 4.7793 0.19922 6.9553 0.17068 10.639 0.68314 11.08 1.5508 7.8372 26.342 19.385 56.409 28.887 78.584-0.45515 0.7823-1.9205 1.2805-4.4238 1.4512-2.5034 0.0854-4.9341 0.11328-7.3379 0.11328-2.3184 0-4.1116-0.0852-5.3633-0.25586-1.1663-0.17068-1.977-0.68314-2.418-1.5508-1.4224-2.7736-2.8017-5.2046-4.1387-7.2812-1.337-2.0766-2.5895-4.4094-3.7559-6.998l-15.389-1.0254c-4.5373 0-7.4397 0.85457-8.6914 2.5898-0.62584 0.86764-1.0657 1.9635-1.3359 3.2578-0.98143 5.533-3.9973 9.6435-7.8945 13.498-3.2145-0.95298-7.3832-1.4512-12.561-1.4512-0.44093 0-0.86706-0.12873-1.2226-0.38476-0.35559-0.35559-0.52539-0.81027-0.52539-1.4219 0-0.61162 0.22703-1.4363 0.66796-2.4746 3.3568-6.87 5.9875-14.139 8.0215-20.469 5.9881-18.462 12.447-36.311 19.004-54.617-0.19913-2.8732 1.0091-3.3719 2.5879-3.3008zm111.02 17.295c-2.8076-6.6e-4 -5.4693 0.16405-8.627 0.44141-0.44093 0-0.83972 1.2941-1.1953 3.8828s-0.52539 4.154-0.52539 4.666 0.22704 0.90998 0.66797 1.166c5.3623 3.499 13.4 0.98103 18.449-0.89648 1.337-1.0383 2.0039-2.5179 2.0039-4.4238 0-0.95298-2.6298-2.5593-7.8926-4.8066v0.0273c-0.9921-0.0391-1.945-0.0564-2.8809-0.0566zm-104.81 11.336c-2.6456 6.9411-4.3658 11.067-8.0781 17.752h14.365c-1.7353-5.4761-4.2395-12.973-6.2734-17.752zm108.64 19.941-0.11523 0.14257-7.2246 0.0156c-1.9486 0.38404-2.7455 1.0234-5.0781 1.0234-0.62584 0-1.0104 0.24125-1.1953 0.66797 0.0285 0.34136-0.0137 1.2797-0.0137 2.8301-0.28447 3.0438 0.27098 6.4432 0.38476 9.2168 0.52628 3.4563 1.4638 5.4626 2.8008 5.9746 7.5812 1.7779 14.408 4.2094 21.805-0.38477 3.115-2.2473 4.6934-5.4899 4.6934-9.7285-1.4366-3.8973-3.4978-6.5142-6.1719-7.8086-2.5887-1.2943-5.8737-1.9492-9.8848-1.9492zm-21.756 64.4c8.8362 0.0827 17.891 1.0219 26.137 1.6406 6.9696 0.95298 11.292 4.1816 13.582 7.8086 3.6981 4.3382 5.0791 9.4721 4.752 14.422 0 5.4476-2.6327 10.499-7.9238 15.164 5.2912 2.5034 8.763 4.5076 10.441 5.9727 3.5274 3.0296 5.3047 6.3437 5.3047 9.9707 0.7254 5.917-0.24252 11.55-2.248 16.613-1.9344 3.9826-6.4432 7.3397-13.498 10.113-16.457 4.0253-30.764 2.6736-45.557 1.4219-1.2374-0.44093-1.8633-0.90983-1.8633-1.4219v-11.422c-0.2418-20.667-2.745-43.082-2.7734-59.539 0-6.301 1.6485-9.8011 4.9199-10.498 2.8589-0.20624 5.7812-0.27365 8.7266-0.24609zm-79.326 0.45117c3.4977 7e-3 7.1275 0.20492 11.117 0.32226 7.0549 0 10.953 1.6778 11.664 5.0488-0.62583 4.4093 0.28359 8.5061 0.52539 12.83 0 1.1237-0.52559 1.6914-1.5781 1.6914-1.6642-0.86764-2.6893-2.4035-4.2539-3.7832-9.6151-3.8404-18.461-1.3512-27.664 1.3086-13.683 5.661-16.116 18.919-16.287 30.227 5.4761 23.853 27.736 18.917 45.814 15.162 0.98143-0.42671 1.621-0.64063 1.9766-0.64063 0.44093 0 0.76878 0.21392 0.93946 0.64063-0.55472 6.2441 0.51207 12.572 1.3086 18.674 0 1.8206-0.11452 2.9164-0.38477 3.2578-12.844-0.36981-27.323-2.4468-38.674-4.5234-8.1643-1.6926-12.686-6.8417-18.006-12.332-5.3907-8.4204-10.198-16.598-10.582-27.607 0-5.1063 2.0752-11.292 6.2285-18.561 4.9498-8.463 11.749-14.737 20.396-18.805 4.9356-1.906 9.4161-2.6167 13.996-2.8301v-0.0137c1.145-0.0498 2.297-0.0688 3.4629-0.0664zm200.8 0.39258c6.8842 0.17068 10.553 0.68314 10.994 1.5508 6.0735 24.621 16.045 48.019 25.006 69.895 1.7637 3.627 2.9724 6.5294 3.584 8.6914-0.44093 0.7823-1.8923 1.2785-4.3672 1.4492-4.4235 0.48363-8.2782 0.0574-12.588-0.0137-1.1521-0.17068-1.9477-0.68314-2.3887-1.5508-2.7736-4.7507-5.4048-9.8134-7.8086-14.223l-15.219-1.0234c-4.4946 0-7.368 0.85261-8.6055 2.5879-1.6073 4.7222-4.1396 9.4159-6.2305 13.498-1.3228 2.162-2.3044 3.2578-2.916 3.2578-3.1719-0.95298-7.3248-1.4512-12.445-1.4512-0.44093 0-0.83972-0.12874-1.1953-0.38477-0.35559-0.35559-0.52539-0.81026-0.52539-1.4219 7.8514-20.894 15.133-43.609 22.643-64.062 2.7309-7.8656 4.3384-12.374 4.7793-13.498 0.59739-4.7222 4.7798-2.0485 7.2832-3.1152zm-109.19 17.516c-2.0084 0.0129-4.0386 0.10006-5.9375 0.16406-1.6926 2.6456-1.0541 5.2626-1.7226 8.5625 0 0.51205 0.22899 0.90999 0.66992 1.166 8.5484 4.2102 20.851 1.7929 20.254-5.3047-1.4188-3.9897-7.2384-4.6266-13.264-4.5879zm110.63 11.107c-2.8523 5.6553-4.2733 11.694-5.9356 17.732h12.16c-2.4722-5.7685-4.4199-11.807-6.2246-17.732zm-105.66 19.922v0.0137c-3.7124 0.14224-7.3534 0.79816-10.781 1.168-0.61161 0-1.0246 0.24126-1.1953 0.66797-0.49782 3.7408 0.24362 8.2344 0.25782 12.061 0.52627 3.4563 1.4506 5.4626 2.7734 5.9746 1.6073 0.78229 3.0014 1.0382 4.7793 1.6641 6.6566 1.0383 10.936-0.22766 16.811-2.0625 3.0865-2.2473 4.6387-5.4899 4.6387-9.7285-1.4224-3.8973-3.4423-6.5142-6.0879-7.8086-3.6839-1.7353-7.483-1.9634-11.195-1.9492z" fill="#ffffff" stroke-width="14.224"/>
</svg>
