<svg width="512" height="512" version="1.1" viewBox="0 0 512 512" xmlns="http://www.w3.org/2000/svg">
 <g fill-rule="evenodd">
  <path d="m471.95 253.05c0 120.9-98.01 218.9-218.9 218.9-120.9 0-218.9-98.01-218.9-218.9 0-120.9 98.01-218.9 218.9-218.9 120.9 0 218.9 98.01 218.9 218.9" fill="#d5c9da"/>
  <path d="m256 1c-140.83 0-255 114.17-255 255s114.17 255 255 255 255-114.17 255-255-114.17-255-255-255m8.827 44.931c120.9 0 218.9 98 218.9 218.9s-98 218.9-218.9 218.9-218.93-98-218.93-218.9 98.03-218.9 218.93-218.9" fill-opacity=".067"/>
  <g fill-opacity=".129">
   <path d="m256 4.433c-138.94 0-251.57 112.63-251.57 251.57s112.63 251.57 251.57 251.57 251.57-112.63 251.57-251.57-112.63-251.57-251.57-251.57m5.885 38.556c120.9 0 218.9 98 218.9 218.9s-98 218.9-218.9 218.9-218.93-98-218.93-218.9 98.03-218.9 218.93-218.9"/>
   <path d="m256 8.356c-136.77 0-247.64 110.87-247.64 247.64s110.87 247.64 247.64 247.64 247.64-110.87 247.64-247.64-110.87-247.64-247.64-247.64m2.942 31.691c120.9 0 218.9 98 218.9 218.9s-98 218.9-218.9 218.9-218.93-98-218.93-218.9 98.03-218.9 218.93-218.9"/>
  </g>
 </g>
 <path d="m332.48 122.55-29.921-7.6245-2.236 0.568 11.867 11.867-46.14-12.02h-3.336l-37.533 12.662-1.113 0.934-4.193-4.193-49.04-6.1221-6.0404-0.93274 6.4291 16.904-3.1978 42.278-9.7122 39.799 13.049 60.168-11.519 114.65 144.78 74.396c97.015 10.547 217.17-182 155.85-289.39l-103.97-60.326" opacity=".25"/>
 <path d="m253.04 7.859c-135.42 0-245.19 109.78-245.19 245.19 0 135.42 109.78 245.19 245.19 245.19 135.42 0 245.19-109.78 245.19-245.19 0-135.42-109.78-245.19-245.19-245.19zm0 26.297c120.9 0 218.9 98 218.9 218.9s-98 218.9-218.9 218.9-218.93-98-218.93-218.9 98.03-218.9 218.93-218.9z" fill="#ffffff" fill-rule="evenodd" stroke="#000000" stroke-opacity=".31" stroke-width="4.904"/>
 <path d="m159.84 116.17v275.32h39.332v-172.92l63.068-63.068h45.094v70.138a39.332 39.332 0 0 0-29.499 38.024 39.332 39.332 0 0 0 39.332 39.332 39.332 39.332 0 0 0 39.332-39.332 39.332 39.332 0 0 0-29.499-38.044v-70.119h29.499v-39.332zm39.332 39.332h35.261l-35.261 35.261zm118 88.496a19.666 19.666 0 0 1 19.666 19.666 19.666 19.666 0 0 1-19.666 19.666 19.666 19.666 0 0 1-19.666-19.666 19.666 19.666 0 0 1 19.666-19.666z" fill="#ffffff" stroke-width="9.8329"/>
</svg>
