<svg width="512" height="512" version="1.1" viewBox="0 0 512 512" xmlns="http://www.w3.org/2000/svg">
 <g fill-rule="evenodd">
  <path d="m471.95 253.05c0 120.9-98.01 218.9-218.9 218.9-120.9 0-218.9-98.01-218.9-218.9 0-120.9 98.01-218.9 218.9-218.9 120.9 0 218.9 98.01 218.9 218.9" fill="#d5c9da"/>
  <path d="m256 1c-140.83 0-255 114.17-255 255s114.17 255 255 255 255-114.17 255-255-114.17-255-255-255m8.827 44.931c120.9 0 218.9 98 218.9 218.9s-98 218.9-218.9 218.9-218.93-98-218.93-218.9 98.03-218.9 218.93-218.9" fill-opacity=".067"/>
  <g fill-opacity=".129">
   <path d="m256 4.433c-138.94 0-251.57 112.63-251.57 251.57s112.63 251.57 251.57 251.57 251.57-112.63 251.57-251.57-112.63-251.57-251.57-251.57m5.885 38.556c120.9 0 218.9 98 218.9 218.9s-98 218.9-218.9 218.9-218.93-98-218.93-218.9 98.03-218.9 218.93-218.9"/>
   <path d="m256 8.356c-136.77 0-247.64 110.87-247.64 247.64s110.87 247.64 247.64 247.64 247.64-110.87 247.64-247.64-110.87-247.64-247.64-247.64m2.942 31.691c120.9 0 218.9 98 218.9 218.9s-98 218.9-218.9 218.9-218.93-98-218.93-218.9 98.03-218.9 218.93-218.9"/>
  </g>
 </g>
 <path d="m125.66 131.34c21.844 5.446 28.621 26.653 34.819 56.043 3.958 17 42.083 55.471 48.845 73.185 6.535 17.12 55.53 116.73 63.41 124.61l90.464 55.762c65.662-37.576 95.767-4.1797 95.767-108.09 0-14.14-304.34-208.01-306.9-221.41" opacity=".25"/>
 <g fill="#ffffff">
  <path d="m253.04 7.859c-135.42 0-245.19 109.78-245.19 245.19 0 135.42 109.78 245.19 245.19 245.19 135.42 0 245.19-109.78 245.19-245.19 0-135.42-109.78-245.19-245.19-245.19zm0 26.297c120.9 0 218.9 98 218.9 218.9s-98 218.9-218.9 218.9-218.93-98-218.93-218.9 98.03-218.9 218.93-218.9z" fill-rule="evenodd" stroke="#000000" stroke-opacity=".31" stroke-width="4.904"/>
  <g>
   <path d="m137.61 128.45s123.94 251.1 137.12 257.75c11.666 5.9055 24.089 14.518 75.613 5.3458 52.926-9.4237 51.75-16.403 55.628-30.201 13.746-53.949-28.17-60.209-57.47-29.036-15.193 13.993-37.541 28.785-54.836 24.159-61.947-71.369-95.294-138.94-147.29-235.05" fill-rule="evenodd"/>
   <path d="m348.53 330.15-36.377 25.735c-42.379 30.613 19.296 30.704 32.386 28.831 22.439-3.4839 45.77-7.0706 51.49-21.669 13.022-49.163-18.279-56.85-47.5-32.909z" fill-rule="evenodd"/>
   <rect transform="matrix(.46566 .88496 -.8809 .47329 0 0)" x="170.14" y="-82.686" width="147.28" height="31.374" rx="5.6641" ry="5.2346" stroke-width="11.363"/>
  </g>
 </g>
</svg>
