<svg width="512" height="512" version="1.1" viewBox="0 0 512 512" xmlns="http://www.w3.org/2000/svg">
 <g fill-rule="evenodd">
  <path d="m471.95 253.05c0 120.9-98.01 218.9-218.9 218.9-120.9 0-218.9-98.01-218.9-218.9 0-120.9 98.01-218.9 218.9-218.9 120.9 0 218.9 98.01 218.9 218.9" fill="#d5c9da"/>
  <path d="m256 1c-140.83 0-255 114.17-255 255s114.17 255 255 255 255-114.17 255-255-114.17-255-255-255m8.827 44.931c120.9 0 218.9 98 218.9 218.9s-98 218.9-218.9 218.9-218.93-98-218.93-218.9 98.03-218.9 218.93-218.9" fill-opacity=".067"/>
  <g fill-opacity=".129">
   <path d="m256 4.433c-138.94 0-251.57 112.63-251.57 251.57s112.63 251.57 251.57 251.57 251.57-112.63 251.57-251.57-112.63-251.57-251.57-251.57m5.885 38.556c120.9 0 218.9 98 218.9 218.9s-98 218.9-218.9 218.9-218.93-98-218.93-218.9 98.03-218.9 218.93-218.9"/>
   <path d="m256 8.356c-136.77 0-247.64 110.87-247.64 247.64s110.87 247.64 247.64 247.64 247.64-110.87 247.64-247.64-110.87-247.64-247.64-247.64m2.942 31.691c120.9 0 218.9 98 218.9 218.9s-98 218.9-218.9 218.9-218.93-98-218.93-218.9 98.03-218.9 218.93-218.9"/>
  </g>
 </g>
 <path d="m266.05 115.34h-3.336l-37.533 12.662-1.113 0.934 1.113-0.934c-0.36534 130.07-1.4494 111.36-59.243 149.92l-10.352 97.49 114.33 99.152c95.455-2.7042 274.18-90.512 200.32-240.04l-207.02-151.15" opacity=".25"/>
 <path d="m253.04 7.859c-135.42 0-245.19 109.78-245.19 245.19 0 135.42 109.78 245.19 245.19 245.19 135.42 0 245.19-109.78 245.19-245.19 0-135.42-109.78-245.19-245.19-245.19zm0 26.297c120.9 0 218.9 98 218.9 218.9s-98 218.9-218.9 218.9-218.93-98-218.93-218.9 98.03-218.9 218.93-218.9z" fill="#ffffff" fill-rule="evenodd" stroke="#000000" stroke-opacity=".31" stroke-width="4.904"/>
 <g transform="matrix(15.806 0 0 14.18 -116.09 -72.601)" fill="#ffffff">
  <path d="m21.261 13.906c0.754-1.089 1.586-2.209 2.737-2.906 1.137 0.678 1.914 1.782 2.659 2.848 1.75 2.642 2.819 5.815 2.604 9.01 0.563 0.476 1.145 0.933 1.703 1.41 0.801 0.732 1.176 1.883 0.98 2.945-0.266 1.341-0.523 2.677-0.809 4.03-0.16 0.685-1.094 1-1.648 0.561l-2.714-2.01c-0.688 0.663-1.602 1.209-2.774 1.209s-1.994-0.443-2.801-1.191l-2.831 2.075c-0.566 0.244-1.297-0.12-1.426-0.724-0.293-1.302-0.598-2.616-0.883-3.925-0.23-1.1 0.18-2.317 1.035-3.061 0.496-0.415 1-0.821 1.508-1.217 0.141-0.073 0.07-0.244 0.078-0.372-0.152-3.08 0.902-6.118 2.577-8.671"/>
  <path d="m21 32.23c-8e-3 -0.391 0.414-0.641 0.742-0.43 1.395 0.82 3.11 0.832 4.473-0.023 0.313-0.195 0.773 0.039 0.785 0.418 4e-3 0.828 4e-3 1.984 0 2.809 8e-3 0.406-0.516 0.539-0.824 0.289-0.238-0.211-0.453-0.422-0.684-0.641-0.359 0.707-0.699 1.399-1.066 2.102-0.172 0.336-0.723 0.336-0.898 8e-3 -0.363-0.703-0.703-1.399-1.074-2.106-0.223 0.223-0.438 0.43-0.676 0.641-0.313 0.254-0.782 0.109-0.778-0.293"/>
  <path d="m24 16c1 0 2.513 3 2.5 6-0.598 2.026-4.306 2.161-5 0 2e-3 -3 1.5-6 2.5-6"/>
 </g>
</svg>
