<?xml version="1.0" encoding="UTF-8"?>
<svg width="512" height="512" version="1.1" viewBox="0 0 512 512" xmlns="http://www.w3.org/2000/svg" xmlns:cc="http://creativecommons.org/ns#" xmlns:dc="http://purl.org/dc/elements/1.1/" xmlns:rdf="http://www.w3.org/1999/02/22-rdf-syntax-ns#">
 <metadata>
  <rdf:RDF>
   <cc:Work rdf:about="">
    <dc:format>image/svg+xml</dc:format>
    <dc:type rdf:resource="http://purl.org/dc/dcmitype/StillImage"/>
    <dc:title/>
   </cc:Work>
  </rdf:RDF>
 </metadata>
 <g fill-rule="evenodd">
  <path d="m471.95 253.05c0 120.9-98.01 218.9-218.9 218.9-120.9 0-218.9-98.01-218.9-218.9 0-120.9 98.01-218.9 218.9-218.9 120.9 0 218.9 98.01 218.9 218.9" fill="#d5c9da"/>
  <path d="m256 1c-140.83 0-255 114.17-255 255s114.17 255 255 255 255-114.17 255-255-114.17-255-255-255m8.827 44.931c120.9 0 218.9 98 218.9 218.9s-98 218.9-218.9 218.9-218.93-98-218.93-218.9 98.03-218.9 218.93-218.9" fill-opacity=".067"/>
  <g fill-opacity=".129">
   <path d="m256 4.433c-138.94 0-251.57 112.63-251.57 251.57s112.63 251.57 251.57 251.57 251.57-112.63 251.57-251.57-112.63-251.57-251.57-251.57m5.885 38.556c120.9 0 218.9 98 218.9 218.9s-98 218.9-218.9 218.9-218.93-98-218.93-218.9 98.03-218.9 218.93-218.9"/>
   <path d="m256 8.356c-136.77 0-247.64 110.87-247.64 247.64s110.87 247.64 247.64 247.64 247.64-110.87 247.64-247.64-110.87-247.64-247.64-247.64m2.942 31.691c120.9 0 218.9 98 218.9 218.9s-98 218.9-218.9 218.9-218.93-98-218.93-218.9 98.03-218.9 218.93-218.9"/>
  </g>
 </g>
 <path d="m266.61 107.97 35.946 6.9624-2.236 0.568 11.867 11.867-46.14-12.02h-3.336l-30.104 0.25613-12.735 2.2694-43.439 11.681-11.913-0.0453-26.052 29.725-19.766 34.215-1.6121 28.653 8 85.061 22.749 58.188 156.78 100.54c50.419-18.014 101.04-35.379 136.46-100.5 25.564-40.371 41.901-75.561 33.83-139.33l-117.81-84.615-71.573-32.495" opacity=".25"/>
 <path d="m253.04 7.859c-135.42 0-245.19 109.78-245.19 245.19 0 135.42 109.78 245.19 245.19 245.19 135.42 0 245.19-109.78 245.19-245.19 0-135.42-109.78-245.19-245.19-245.19zm0 26.297c120.9 0 218.9 98 218.9 218.9s-98 218.9-218.9 218.9-218.93-98-218.93-218.9 98.03-218.9 218.93-218.9z" fill="#ffffff" fill-rule="evenodd" stroke="#000000" stroke-opacity=".31" stroke-width="4.904"/>
 <path d="m253.04 100.11c-84.469 0-152.94 68.475-152.94 152.94s68.475 152.94 152.94 152.94 152.94-68.475 152.94-152.94-68.475-152.94-152.94-152.94zm0 20.392c73.206 0 132.55 59.345 132.55 132.55-0.0715 61.293-42.164 114.54-101.78 128.77-0.17955-37.001 20.213-57.394 20.213-67.59v-30.589s30.589-50.981 50.981-71.374c0-20.392-10.196-14.219-10.196-14.219v-6.1735l-10.196 10.196s10.196-30.589-10.196-40.785c-20.392 10.196-40.785 30.589-40.785 30.589h-20.392l-30.589 20.392c-20.392 0-40.785 0-50.981 10.196-10.196 10.196 20.392 30.589 20.392 30.589l-40.785 71.374-14.697 7.3484c-16.892-22.774-26.036-50.366-26.088-78.722 0-73.206 59.345-132.55 132.55-132.55zm10.196 81.57h20.392l-20.392 10.196h-10.196z" fill="#ffffff" stroke-width="10.196"/>
</svg>
