<?xml version="1.0" encoding="UTF-8" standalone="no"?>
<svg xmlns="http://www.w3.org/2000/svg" height="512" viewBox="0 0 512 512" width="512" version="1.1">
 <path d="m471.95 253.05c0 120.9-98.01 218.9-218.9 218.9-120.9 0-218.9-98.01-218.9-218.9 0-120.9 98.01-218.9 218.9-218.9 120.9 0 218.9 98.01 218.9 218.9" fill="#d5c9da" fill-rule="evenodd"/>
 <path d="m256 1c-140.83 0-255 114.17-255 255 0 140.83 114.17 255 255 255 140.83 0 255-114.17 255-255 0-140.83-114.17-255-255-255m8.827 44.931c120.9 0 218.9 98 218.9 218.9 0 120.9-98 218.9-218.9 218.9-120.9 0-218.93-98-218.93-218.9 0-120.9 98.03-218.9 218.93-218.9" fill-opacity=".067" fill-rule="evenodd"/>
 <g fill-opacity=".129" fill-rule="evenodd">
  <path d="m256 4.433c-138.94 0-251.57 112.63-251.57 251.57 0 138.94 112.63 251.57 251.57 251.57 138.94 0 251.57-112.63 251.57-251.57 0-138.94-112.63-251.57-251.57-251.57m5.885 38.556c120.9 0 218.9 98 218.9 218.9 0 120.9-98 218.9-218.9 218.9-120.9 0-218.93-98-218.93-218.9 0-120.9 98.03-218.9 218.93-218.9"/>
  <path d="m256 8.356c-136.77 0-247.64 110.87-247.64 247.64 0 136.77 110.87 247.64 247.64 247.64 136.77 0 247.64-110.87 247.64-247.64 0-136.77-110.87-247.64-247.64-247.64m2.942 31.691c120.9 0 218.9 98 218.9 218.9 0 120.9-98 218.9-218.9 218.9-120.9 0-218.93-98-218.93-218.9 0-120.9 98.03-218.9 218.93-218.9"/>
 </g>
 <path d="m 317.63039,113.8743 -19.07403,1.05351 -2.236,0.568 11.867,11.867 -46.14,-12.02 h -3.336 l -37.533,12.662 -1.113,0.934 -4.193,-4.193 -49.85401,-8.834 -5.498,0.152 15.37829,30.46344 -28.51497,33.30116 6.92702,36.84367 8.70978,69.93044 -16.86085,109.42173 120.42171,76.79805 c 66.53499,-3.29126 229.99492,-76.60578 199.65203,-261.61449 l -115.66559,-91.80119 -15.46548,-5.20636" style="opacity:0.25"/>
 <path d="m253.04 7.859c-135.42 0-245.19 109.78-245.19 245.19 0 135.42 109.78 245.19 245.19 245.19 135.42 0 245.19-109.78 245.19-245.19 0-135.42-109.78-245.19-245.19-245.19zm0 26.297c120.9 0 218.9 98 218.9 218.9 0 120.9-98 218.9-218.9 218.9-120.9 0-218.93-98-218.93-218.9 0-120.9 98.03-218.9 218.93-218.9z" fill="#ffffff" fill-rule="evenodd" stroke="#000000" stroke-opacity=".31" stroke-width="4.904"/>
 <g transform="matrix(1.5978964,0,0,1.5978964,102.60194,102.60508)">
  <path d="M 136,6.9960938 V 6.9980469 7 h 8 V 6.99609 Z m -103.339844,0.00586 c -2.5727,0 -4.644531,2.0661821 -4.644531,4.6328132 v 36.597656 c 0,0.0327 0.0058,0.0642 0.0098,0.0957 L 28.023438,63 H 28 v 9 1 10 35 1 1 6.85938 1.14062 1 h 0.0098 v 0.002 l -0.0039,19.7461 H 28 v 31.6875 C 28,182.96445 30.04901,185 32.59375,185 H 38.046875 71.378906 136 V 7.0019531 H 71.341797 38.03125 Z m 111.339844,0 V 184.99805 c 1.3689,-0.004 2.70611,-0.14921 3.99609,-0.42383 0.32696,-0.07 0.65179,-0.14642 0.97266,-0.23242 0.64113,-0.1717 1.27043,-0.37693 1.88477,-0.61133 0.30744,-0.1173 0.61199,-0.2426 0.9121,-0.375 4.20152,-1.853 7.66425,-5.15781 9.82032,-9.32031 0.61602,-1.1893 1.12615,-2.44818 1.51562,-3.76368 0.58421,-1.9732 0.89844,-6.25195 0.89844,-6.25195 v -1.14648 -14.12696 -20.74804 -8 -1 -46.000003 -1 V 64.136719 62.998047 29.125 c 0,-0.22437 -0.009,-0.447272 -0.0156,-0.669922 v -0.002 -0.392578 c 0,-2.1876 -0.31423,-4.296564 -0.89844,-6.277344 -0.38947,-1.32052 -0.89961,-2.583504 -1.51563,-3.777344 -2.31036,-4.47744 -6.12004,-7.965982 -10.73242,-9.7324215 -0.30745,-0.11778 -0.61728,-0.2278181 -0.93164,-0.3300781 -0.62932,-0.2047 -1.27122,-0.3776881 -1.92578,-0.5175782 -0.32696,-0.0699 -0.65564,-0.1324668 -0.98828,-0.1855468 C 146.01688,7.0845944 145.01713,7.0056031 144,7.0019538 Z M 63.830078,82.882812 c 2.827149,0 4.96582,0.878907 6.416016,2.636719 1.450195,1.743164 2.175781,4.314453 2.175781,7.712891 V 108.08594 H 68.378906 V 93.363281 c 0,-2.329101 -0.455078,-4.071289 -1.363281,-5.228515 -0.908203,-1.157227 -2.269531,-1.736329 -4.085937,-1.736328 -2.182618,0 -3.904297,0.696289 -5.164063,2.08789 -1.259766,1.391602 -1.888672,3.289063 -1.888672,5.691406 V 108.08594 H 51.8125 V 83.476562 h 4.064453 v 3.822266 c 0.966797,-1.479492 2.100586,-2.583984 3.404297,-3.316406 1.318359,-0.732422 2.834961,-1.099609 4.548828,-1.09961 z m 25.00586,0 c 1.816406,0 3.36914,0.358399 4.658203,1.076172 1.303711,0.703125 2.378906,1.787109 3.228515,3.251954 v -3.734376 h 4.042964 v 33.968748 h -4.042964 v -13.05078 c -0.849609,1.46485 -1.924804,2.55567 -3.228515,3.27344 -1.289063,0.70312 -2.841798,1.05469 -4.658203,1.05469 -2.973633,0 -5.398438,-1.18555 -7.273438,-3.5586 -1.860352,-2.37304 -2.791016,-5.494138 -2.791016,-9.361326 0,-3.867187 0.930664,-6.986328 2.791016,-9.359375 1.875,-2.373047 4.299805,-3.560546 7.273438,-3.560547 z m 28.564452,0 c 1.81641,0 3.36914,0.358399 4.6582,1.076172 1.30371,0.703125 2.38086,1.787109 3.23047,3.251954 v -3.734376 h 4.04297 v 33.968748 h -4.04297 v -13.05078 c -0.84961,1.46485 -1.92676,2.55567 -3.23047,3.27344 -1.28906,0.70312 -2.84179,1.05469 -4.6582,1.05469 -2.97363,0 -5.39844,-1.18555 -7.27344,-3.5586 -1.86035,-2.37304 -2.79101,-5.494138 -2.79101,-9.361326 0,-3.867187 0.93066,-6.986328 2.79101,-9.359375 1.875,-2.373047 4.29981,-3.560546 7.27344,-3.560547 z m -27.576171,3.384766 c -2.138672,0 -3.824219,0.84961 -5.054688,2.548828 -1.21582,1.684571 -1.822265,4.012696 -1.822265,6.986328 0,2.973633 0.606445,5.310546 1.822265,7.009766 1.230469,1.68457 2.916016,2.52734 5.054688,2.52734 2.138672,0 3.824219,-0.84277 5.054687,-2.52734 1.230469,-1.69922 1.84375,-4.036133 1.84375,-7.009766 0,-2.973632 -0.613281,-5.301757 -1.84375,-6.986328 -1.230468,-1.699218 -2.916015,-2.548828 -5.054687,-2.548828 z m 28.564451,0 c -2.13867,0 -3.82226,0.84961 -5.05273,2.548828 -1.21582,1.684571 -1.82422,4.012696 -1.82422,6.986328 0,2.973633 0.6084,5.310546 1.82422,7.009766 1.23047,1.68457 2.91406,2.52734 5.05273,2.52734 2.13867,0 3.82227,-0.84277 5.05274,-2.52734 1.23047,-1.69922 1.84765,-4.036133 1.84765,-7.009766 0,-2.973632 -0.61718,-5.301757 -1.84765,-6.986328 -1.23047,-1.699218 -2.91407,-2.548828 -5.05274,-2.548828 z" style="fill:#fffffe;fill-opacity:1;stroke:#000000;stroke-width:0;stroke-linejoin:round;stroke-opacity:1"/>
  <rect y="7" x="136" height="178.001" width="8" style="fill:#ffffff;fill-opacity:0.75499998;"/>
 </g>
</svg>
