<svg width="512" height="512" version="1.1" viewBox="0 0 512 512" xmlns="http://www.w3.org/2000/svg">
 <g fill-rule="evenodd">
  <path d="m471.95 253.05c0 120.9-98.01 218.9-218.9 218.9-120.9 0-218.9-98.01-218.9-218.9 0-120.9 98.01-218.9 218.9-218.9 120.9 0 218.9 98.01 218.9 218.9" fill="#d5c9da"/>
  <path d="m256 1c-140.83 0-255 114.17-255 255s114.17 255 255 255 255-114.17 255-255-114.17-255-255-255m8.827 44.931c120.9 0 218.9 98 218.9 218.9s-98 218.9-218.9 218.9-218.93-98-218.93-218.9 98.03-218.9 218.93-218.9" fill-opacity=".067"/>
  <g fill-opacity=".129">
   <path d="m256 4.433c-138.94 0-251.57 112.63-251.57 251.57s112.63 251.57 251.57 251.57 251.57-112.63 251.57-251.57-112.63-251.57-251.57-251.57m5.885 38.556c120.9 0 218.9 98 218.9 218.9s-98 218.9-218.9 218.9-218.93-98-218.93-218.9 98.03-218.9 218.93-218.9"/>
   <path d="m256 8.356c-136.77 0-247.64 110.87-247.64 247.64s110.87 247.64 247.64 247.64 247.64-110.87 247.64-247.64-110.87-247.64-247.64-247.64m2.942 31.691c120.9 0 218.9 98 218.9 218.9s-98 218.9-218.9 218.9-218.93-98-218.93-218.9 98.03-218.9 218.93-218.9"/>
  </g>
 </g>
 <path d="m343.52 229.63-70.964-71.59-54.979 19.234-17.77 8.5893-22.751 18.345-13.596 33.5 114.71 112.48-119.46-35.766-47.21 49.247 119.49 115.26c50.137-10.062 237.03-2.4916 236.94-204.82l-156.07-143.8" opacity=".25"/>
 <path d="m253.04 7.859c-135.42 0-245.19 109.78-245.19 245.19 0 135.42 109.78 245.19 245.19 245.19 135.42 0 245.19-109.78 245.19-245.19 0-135.42-109.78-245.19-245.19-245.19zm0 26.297c120.9 0 218.9 98 218.9 218.9s-98 218.9-218.9 218.9-218.93-98-218.93-218.9 98.03-218.9 218.93-218.9z" fill="#ffffff" fill-rule="evenodd" stroke="#000000" stroke-opacity=".31" stroke-width="4.904"/>
 <path d="m111.49 363.67c-10.618-12.555-7.001-24.118 3.8389-35.122 13.197-12.322 25.717-17.398 38.436-24.585v-9.4514c0.72344-1.8669 1.8086-3.8272 8.0745-7.1877l15.379-0.37338c3.4072-4.4923 6.5459-7.7244 11.528-7.1877 8.8446 0.75844 31.458 39.591 65.728 39.334 13.745-1.4352 23.897-2.8237 33.827-9.4514l-69.567-74.117c-9.5447 8.4362-18.354 18.343-29.218 24.2-14.504-11.073-27.922-23.663-38.821-39.707l66.498-58.575 55.355-3.4072 11.143 11.342c-9.8598 11.47-19.731 21.68-29.591 31.014l69.952 73.744c7.4327-5.4141 9.148-22.018 9.183-37.7-2.2753-52.076-60.162-101.61-99.391-144.3 46.557 10.933 146.6 63.382 151.33 159.69-3.1271 21.668-6.3592 43.325-21.528 64.293l20.373 20.805-37.665 35.122-17.678-15.881c-21.015 6.0442-31.014 17.036-68.038 15.881-17.456-0.60676-54.911-6.5576-83.405-45.005-9.6731 15.426-21.201 28.809-34.982 39.707-8.8446 5.0407-17.888 9.2413-30.746-3.0221z" fill="#ffffff" stroke-width="11.668"/>
</svg>
