<svg viewBox="0 0 24 24" xmlns="http://www.w3.org/2000/svg">
 <path d="m4 2c-1.108 0-2 .892-2 2v16c0 1.108.892 2 2 2h16c1.108 0 2-.892 2-2v-16c0-1.108-.892-2-2-2zm1.326 5.838h6.912v1.361h-2.662v7.301h-1.588v-7.301h-2.662zm10.02 1.963c.9 0 1.602.278 2.102.836.508.558.762 1.392.762 2.5 0 .083-.003.181-.012.289 0 .1-.005.19-.014.273h-4.313c.042.525.226.935.551 1.227.333.283.813.424 1.438.424.367 0 .7-.033 1-.1.308-.067.55-.138.725-.213l.199 1.238c-.083.042-.2.087-.35.137-.142.042-.308.08-.5.113-.183.042-.383.075-.6.1-.217.025-.437.037-.662.037-.575 0-1.075-.083-1.5-.25-.425-.175-.776-.413-1.051-.713-.275-.308-.478-.666-.611-1.074-.133-.417-.201-.872-.201-1.363 0-.575.083-1.078.25-1.512.175-.433.404-.791.688-1.074.283-.292.608-.509.975-.65.367-.15.742-.225 1.125-.225zm.014 1.262c-.233 0-.438.045-.613.137-.175.083-.324.196-.449.338-.117.142-.209.305-.275.488-.067.183-.112.371-.137.563h2.813c0-.208-.03-.405-.088-.588-.058-.192-.147-.355-.264-.488-.108-.142-.245-.249-.412-.324-.158-.083-.349-.125-.574-.125z" fill="#b7b7b7"/>
</svg>
