<svg viewBox="0 0 24 24" xmlns="http://www.w3.org/2000/svg">
 <path d="m4 2c-1.108 0-2 .892-2 2v16c0 1.108.892 2 2 2h16c1.108 0 2-.892 2-2v-16c0-1.108-.892-2-2-2zm1.994 5.5c1.25 0 2.205.229 2.863.688.667.458 1 1.158 1 2.1 0 1.175-.58 1.972-1.738 2.389.158.192.339.424.539.699.2.275.403.575.611.9.208.317.408.645.6.986.192.333.364.663.514.988h-1.764c-.158-.3-.328-.6-.512-.9-.183-.308-.371-.603-.563-.887-.183-.292-.367-.563-.551-.813-.183-.258-.353-.488-.512-.688-.117.008-.217.012-.301.012h-.236-.764v3.275h-1.574v-8.537c.383-.083.791-.137 1.225-.162.433-.033.82-.051 1.162-.051zm.113 1.363c-.333 0-.642.012-.926.037v2.799h.688c.383 0 .722-.021 1.014-.063.292-.042.533-.116.725-.225.2-.108.349-.254.449-.438.1-.183.15-.416.15-.699 0-.267-.05-.492-.15-.676-.1-.183-.246-.329-.438-.438-.183-.108-.404-.183-.662-.225-.258-.05-.541-.074-.85-.074zm5.357.85h1.514v3.424c0 .7.099 1.2.299 1.5.208.3.568.451 1.076.451.183 0 .374-.009.574-.025.208-.017.363-.037.463-.063v-5.287h1.512v6.338c-.292.075-.67.15-1.137.225-.467.083-.979.125-1.537.125-.525 0-.968-.075-1.326-.225-.35-.15-.633-.358-.85-.625-.208-.267-.358-.585-.449-.951-.092-.375-.139-.783-.139-1.225zm8.07 4.605c.462 0 .803.111 1.02.332.221.217.332.513.332.893 0 .15-.031.299-.094.445-.063.142-.144.28-.244.418-.096.133-.207.265-.332.395-.125.125-.25.246-.375.367-.067.063-.141.139-.225.227-.083.087-.163.174-.238.262-.075.087-.139.173-.193.256-.054.079-.084.147-.088.201h1.926v.637h-2.756c-.004-.033-.006-.073-.006-.119v-.111c0-.2.031-.384.094-.551.067-.171.152-.329.256-.475.104-.146.22-.283.35-.412.129-.129.258-.258.387-.383.1-.096.197-.19.289-.281.092-.092.17-.18.236-.268.071-.092.128-.184.17-.275.042-.096.063-.193.063-.293 0-.217-.063-.371-.188-.463-.125-.092-.278-.139-.457-.139-.117 0-.224.017-.324.051-.1.033-.19.073-.27.119-.075.046-.141.093-.199.143-.058.046-.104.084-.133.113l-.375-.531c.175-.167.38-.3.613-.4.238-.104.491-.156.762-.156z" fill="#b7b7b7"/>
</svg>
