<svg viewBox="0 0 24 24" xmlns="http://www.w3.org/2000/svg">
 <path d="m4 2c-1.108 0-2 .892-2 2v16c0 1.108.892 2 2 2h16c1.108 0 2-.892 2-2v-16c0-1.108-.892-2-2-2zm .742 5.588h5.563v1.338h-3.986v2.137h3.549v1.313h-3.549v2.537h4.287v1.338h-5.863v-8.662zm9.35 1.963c.383 0 .75.036 1.1.111.35.067.614.135.789.201l-.275 1.225c-.167-.075-.38-.143-.639-.201-.258-.067-.557-.1-.898-.1-.308 0-.558.054-.75.162-.192.1-.289.26-.289.477 0 .108.017.204.051.287.042.083.108.161.199.236.092.067.213.138.363.213.15.067.334.138.551.213.358.133.662.267.912.4.25.125.453.271.611.438.167.158.288.34.363.549.075.208.113.458.113.75 0 .625-.235 1.101-.701 1.426-.458.317-1.116.475-1.975.475-.575 0-1.037-.05-1.387-.15-.35-.092-.597-.166-.738-.225l.262-1.262c.225.092.492.178.801.262.317.083.674.125 1.074.125.4 0 .692-.045.875-.137.183-.1.275-.267.275-.5 0-.217-.099-.395-.299-.537-.192-.142-.513-.296-.963-.463-.275-.1-.53-.204-.764-.313-.225-.117-.419-.25-.586-.4-.167-.15-.3-.329-.4-.537-.092-.217-.139-.479-.139-.787 0-.6.222-1.072.664-1.414.442-.35 1.04-.523 1.799-.523zm4.338 4.768c.508 0 .892.165 1.15.494.262.325.395.785.395 1.381 0 .842-.217 1.479-.65 1.912-.433.433-1.098.652-1.994.656l-.031-.631c.25 0 .476-.021.676-.063.204-.042.381-.108.531-.199.154-.092.283-.212.387-.357.104-.15.184-.332.238-.549-.1.046-.211.08-.332.105-.121.025-.237.037-.35.037-.258 0-.479-.033-.662-.1-.179-.071-.329-.166-.445-.287-.113-.125-.196-.269-.25-.432-.054-.163-.08-.338-.08-.525 0-.162.026-.326.08-.492.054-.171.141-.327.258-.469.117-.142.264-.256.443-.344.179-.092.391-.139.637-.139zm.02.625c-.121 0-.225.026-.313.076-.083.05-.153.114-.207.193-.054.079-.094.164-.119.256-.025.092-.037.182-.037.27 0 .254.061.445.182.574.125.129.32.193.582.193.121 0 .239-.01.355-.031.117-.025.217-.06.301-.105.004-.046.006-.086.006-.119v-.088c0-.167-.012-.323-.037-.469-.021-.15-.061-.278-.119-.387-.054-.113-.132-.201-.232-.264-.096-.067-.215-.1-.361-.1z" fill="#b7b7b7"/>
</svg>
