<svg viewBox="0 0 24 24" xmlns="http://www.w3.org/2000/svg">
 <path d="m4 2c-1.108 0-2 .892-2 2v16c0 1.108.892 2 2 2h16c1.108 0 2-.892 2-2v-16c0-1.108-.892-2-2-2zm .289 5.588h1.588v5.262c0 .392.042.73.125 1.014.092.275.217.499.375.674.167.175.36.305.576.389.225.083.475.125.75.125.275 0 .525-.042.75-.125.225-.083.416-.214.574-.389.167-.175.292-.399.375-.674.092-.283.137-.622.137-1.014v-5.262h1.588v5.412c0 .5-.071.958-.213 1.375-.133.417-.342.78-.625 1.088-.275.308-.629.55-1.063.725-.433.167-.945.25-1.537.25-.592 0-1.1-.083-1.525-.25-.425-.175-.779-.416-1.063-.725-.275-.308-.478-.671-.611-1.088-.133-.417-.201-.875-.201-1.375zm11.328 1.986c.1 0 .216.009.35.025.133.008.267.026.4.051.133.017.262.041.387.074.125.025.226.051.301.076l-.264 1.273c-.125-.042-.3-.083-.525-.125-.217-.05-.47-.074-.762-.074-.167 0-.345.017-.537.051-.183.033-.314.061-.389.086v5.238h-1.512v-6.225c.292-.108.655-.209 1.088-.301.442-.1.93-.15 1.463-.15zm3.453 4.844h.531v4.332h-.756v-3.318c-.113.088-.255.173-.426.256-.171.083-.334.153-.492.207l-.232-.576c.242-.096.483-.219.725-.369.246-.15.463-.327.65-.531z" fill="#b7b7b7"/>
</svg>
