<svg viewBox="0 0 24 24" xmlns="http://www.w3.org/2000/svg">
 <path d="m4 2c-1.108 0-2 .892-2 2v16c0 1.108.892 2 2 2h16c1.108 0 2-.892 2-2v-16c0-1.108-.892-2-2-2zm2.07 5.5c.525 0 1.013.042 1.463.125.45.075.837.203 1.162.387.333.183.592.427.775.727.183.3.275.67.275 1.111 0 .408-.101.759-.301 1.051-.192.292-.463.524-.813.699.525.175.912.434 1.162.775.25.342.375.776.375 1.301 0 .892-.325 1.562-.975 2.01-.65.442-1.647.662-2.988.662-.458 0-.92-.015-1.387-.049-.467-.025-.875-.084-1.225-.176v-8.412c.183-.033.38-.063.588-.088.208-.033.42-.058.637-.074.217-.017.428-.031.637-.039.217-.008.422-.012.613-.012zm.199 1.287c-.242 0-.457.005-.648.014-.183.008-.343.02-.477.037v2.275h1.113c.6 0 1.07-.083 1.412-.25.342-.175.514-.484.514-.926 0-.417-.181-.712-.539-.887-.35-.175-.808-.264-1.375-.264zm8.129.764c.9 0 1.6.278 2.1.836.508.558.764 1.392.764 2.5 0 .083-.005.181-.014.289 0 .1-.003.19-.012.273h-4.313c.042.525.224.935.549 1.227.333.283.813.424 1.438.424.367 0 .7-.033 1-.1.308-.067.552-.138.727-.213l.199 1.238c-.083.042-.2.087-.35.137-.142.042-.308.08-.5.113-.183.042-.383.075-.6.1-.217.025-.439.037-.664.037-.575 0-1.075-.083-1.5-.25-.425-.175-.774-.413-1.049-.713-.275-.308-.48-.666-.613-1.074-.133-.417-.199-.872-.199-1.363 0-.575.083-1.078.25-1.512.175-.433.404-.791.688-1.074.283-.292.608-.509.975-.65.367-.15.742-.225 1.125-.225zm.012 1.262c-.233 0-.436.045-.611.137-.175.083-.326.196-.451.338-.117.142-.207.305-.273.488-.067.183-.114.371-.139.563h2.813c0-.208-.03-.405-.088-.588-.058-.192-.145-.355-.262-.488-.108-.142-.245-.249-.412-.324-.158-.083-.351-.125-.576-.125zm-9.266 1.537v2.639c.175.017.362.029.563.037.2.008.384.012.551.012.325 0 .625-.021.9-.063.283-.042.525-.113.725-.213.208-.108.372-.249.488-.424.125-.175.188-.401.188-.676 0-.492-.181-.834-.539-1.025-.358-.192-.853-.287-1.486-.287h-1.389zm14.52 1.969c.246 0 .454.037.625.107.175.071.317.161.426.273.113.113.194.238.244.375.05.137.074.271.074.4 0 .229-.063.434-.188.613-.125.175-.269.314-.432.418.246.133.428.288.545.463.121.175.182.382.182.619 0 .179-.031.346-.094.5-.063.154-.156.288-.281.4-.125.113-.281.199-.469.262-.183.063-.397.094-.639.094-.283 0-.518-.04-.705-.119-.188-.079-.339-.178-.451-.299-.113-.121-.194-.251-.244-.389-.046-.142-.068-.275-.068-.4 0-.125.017-.24.051-.344.038-.108.088-.205.15-.293.063-.092.132-.175.211-.25.079-.075.163-.141.25-.199-.192-.133-.334-.277-.43-.432-.092-.158-.139-.351-.139-.576 0-.162.031-.315.094-.461.067-.15.16-.282.281-.395.121-.113.267-.203.438-.27.171-.067.36-.1.568-.1zm0 .619c-.113 0-.21.019-.293.057-.079.033-.143.078-.193.137-.05.054-.088.115-.113.182-.025.063-.037.125-.037.188 0 .158.059.308.176.449.121.142.32.255.6.338.154-.096.274-.203.361-.324.087-.125.133-.283.133-.475 0-.054-.014-.113-.039-.176-.021-.067-.057-.127-.111-.182-.05-.054-.114-.099-.193-.137-.079-.037-.177-.057-.289-.057zm-.23 1.855c-.15.096-.272.214-.363.352-.092.133-.137.293-.137.48 0 .063.012.128.037.199.025.071.067.137.125.195.058.058.133.107.225.148.092.038.206.057.344.057.125 0 .235-.015.326-.049.092-.033.166-.079.225-.133.058-.058.102-.123.131-.193.029-.075.045-.15.045-.225 0-.117-.024-.219-.07-.307-.046-.087-.112-.162-.199-.225-.083-.067-.184-.122-.301-.168-.117-.05-.245-.095-.387-.133z" fill="#b7b7b7"/>
</svg>
