<svg viewBox="0 0 24 24" xmlns="http://www.w3.org/2000/svg">
 <path d="m4 2c-1.108 0-2 .892-2 2v16c0 1.108.892 2 2 2h16c1.108 0 2-.892 2-2v-16c0-1.108-.892-2-2-2zm4.338 5.387c.358 0 .683.03.975.088.292.05.547.109.764.176.217.067.395.138.537.213.142.075.242.129.301.162l-.463 1.287c-.2-.125-.488-.241-.863-.35-.367-.117-.766-.176-1.199-.176-.375 0-.726.068-1.051.201-.325.125-.608.316-.85.574-.233.258-.417.583-.551.975-.133.392-.199.847-.199 1.363 0 .458.05.878.15 1.262.108.383.27.717.486 1 .217.275.493.492.826.65.333.15.733.225 1.199.225.558 0 1.013-.054 1.363-.162.35-.117.621-.224.813-.324l.424 1.287c-.1.067-.237.133-.412.199-.167.067-.366.135-.6.201-.233.058-.495.103-.787.137-.292.042-.604.063-.938.063-.65 0-1.233-.101-1.75-.301-.517-.2-.954-.492-1.313-.875-.358-.392-.635-.865-.826-1.424-.192-.558-.287-1.201-.287-1.926 0-.725.11-1.365.326-1.924.225-.558.529-1.031.912-1.414.383-.392.833-.687 1.35-.887.517-.2 1.07-.301 1.662-.301zm6.084 2.164c.383 0 .75.036 1.1.111.35.067.612.135.787.201l-.275 1.225c-.167-.075-.378-.143-.637-.201-.258-.067-.559-.1-.9-.1-.308 0-.558.054-.75.162-.192.1-.287.26-.287.477 0 .108.017.204.051.287.042.083.108.161.199.236.092.067.213.138.363.213.15.067.332.138.549.213.358.133.662.267.912.4.25.125.455.271.613.438.167.158.288.34.363.549.075.208.111.458.111.75 0 .625-.233 1.101-.699 1.426-.458.317-1.116.475-1.975.475-.575 0-1.039-.05-1.389-.15-.35-.092-.595-.166-.736-.225l.262-1.262c.225.092.492.178.801.262.317.083.674.125 1.074.125.4 0 .692-.045.875-.137.183-.1.275-.267.275-.5 0-.217-.101-.395-.301-.537-.192-.142-.513-.296-.963-.463-.275-.1-.528-.204-.762-.313-.225-.117-.421-.25-.588-.4-.167-.15-.3-.329-.4-.537-.092-.217-.137-.479-.137-.787 0-.6.22-1.072.662-1.414.442-.35 1.042-.523 1.801-.523zm4.219 4.768c.242 0 .45.03.625.088.175.058.319.142.432.25.117.104.202.229.256.375.058.142.088.298.088.469 0 .2-.057.379-.17.537-.108.158-.249.28-.424.363.225.079.411.209.557.393.15.183.225.42.225.707 0 .192-.033.37-.1.537-.067.163-.169.305-.307.426-.137.117-.313.21-.525.281-.208.067-.458.1-.75.1-.113 0-.229-.009-.35-.025-.117-.012-.23-.032-.338-.057-.104-.021-.2-.043-.287-.068-.087-.029-.155-.055-.201-.08l.15-.645c.087.042.214.09.381.145.167.05.373.074.619.074.329 0 .567-.063.713-.188.146-.129.219-.299.219-.512 0-.137-.03-.252-.088-.344-.054-.092-.13-.165-.23-.219-.096-.058-.209-.098-.338-.119-.125-.025-.259-.037-.4-.037h-.256v-.613h.313c.096 0 .191-.009.287-.025.1-.021.19-.054.27-.1.079-.05.143-.114.193-.193.05-.079.074-.182.074-.307 0-.1-.017-.185-.055-.256-.038-.071-.088-.13-.15-.176-.058-.046-.128-.079-.207-.1-.079-.021-.163-.031-.25-.031-.188 0-.354.03-.5.088-.146.054-.274.117-.387.188l-.275-.563c.058-.037.13-.077.213-.119.083-.042.175-.082.275-.119.104-.037.213-.067.33-.088.117-.025.24-.037.369-.037z" fill="#b7b7b7"/>
</svg>
