<svg viewBox="0 0 24 24" xmlns="http://www.w3.org/2000/svg">
 <path d="m4 2c-1.108 0-2 .892-2 2v16c0 1.108.892 2 2 2h16c1.108 0 2-.892 2-2v-16c0-1.108-.892-2-2-2zm3.092 5.838h1.576v7.299h3.9v1.363h-5.477v-8.662zm8.03.15v1.975h2.324v1.262h-2.324v2.662c0 .525.083.9.25 1.125.167.225.45.338.85.338.275 0 .516-.03.725-.088.217-.058.387-.112.512-.162l.25 1.201c-.175.075-.404.15-.688.225-.283.083-.617.125-1 .125-.467 0-.857-.063-1.174-.188-.308-.125-.555-.304-.738-.537-.183-.242-.312-.53-.387-.863-.075-.342-.113-.729-.113-1.162v-5.662l1.514-.25z" fill="#b7b7b7"/>
</svg>
