<svg viewBox="0 0 24 24" xmlns="http://www.w3.org/2000/svg">
 <path d="m4 2c-1.108 0-2 .892-2 2v16c0 1.108.892 2 2 2h16c1.108 0 2-.892 2-2v-16c0-1.108-.892-2-2-2zm2.779 5.5c.525 0 1.01.042 1.461.125.45.075.839.203 1.164.387.333.183.59.427.773.727.183.3.275.67.275 1.111 0 .408-.099.759-.299 1.051-.192.292-.463.524-.813.699.525.175.912.434 1.162.775.25.342.375.776.375 1.301 0 .892-.325 1.562-.975 2.01-.65.442-1.647.662-2.988.662-.458 0-.92-.015-1.387-.049-.467-.025-.877-.084-1.227-.176v-8.412c.183-.033.38-.063.588-.088.208-.033.422-.058.639-.074.217-.017.428-.031.637-.039.217-.008.422-.012.613-.012zm.199 1.287c-.242 0-.459.005-.65.014-.183.008-.341.02-.475.037v2.275h1.113c.6 0 1.07-.083 1.412-.25.342-.175.512-.484.512-.926 0-.417-.179-.712-.537-.887-.35-.175-.808-.264-1.375-.264zm7.553.764c.383 0 .75.036 1.1.111.35.067.614.135.789.201l-.275 1.225c-.167-.075-.38-.143-.639-.201-.258-.067-.557-.1-.898-.1-.308 0-.558.054-.75.162-.192.1-.289.26-.289.477 0 .108.017.204.051.287.042.083.108.161.199.236.092.067.213.138.363.213.15.067.334.138.551.213.358.133.662.267.912.4.25.125.453.271.611.438.167.158.288.34.363.549.075.208.113.458.113.75 0 .625-.235 1.101-.701 1.426-.458.317-1.116.475-1.975.475-.575 0-1.037-.05-1.387-.15-.35-.092-.597-.166-.738-.225l.262-1.262c.225.092.492.178.801.262.317.083.674.125 1.074.125.4 0 .692-.045.875-.137.183-.1.275-.267.275-.5 0-.217-.099-.395-.299-.537-.192-.142-.513-.296-.963-.463-.275-.1-.53-.204-.764-.313-.225-.117-.419-.25-.586-.4-.167-.15-.3-.329-.4-.537-.092-.217-.139-.479-.139-.787 0-.6.222-1.072.664-1.414.442-.35 1.04-.523 1.799-.523zm-8.678 2.799v2.639c.175.017.362.029.563.037.2.008.384.012.551.012.325 0 .623-.021.898-.063.283-.042.527-.113.727-.213.208-.108.37-.249.486-.424.125-.175.188-.401.188-.676 0-.492-.179-.834-.537-1.025-.358-.192-.855-.287-1.488-.287h-1.387zm13.266 2.068h.531v4.332h-.756v-3.318c-.113.088-.255.173-.426.256-.171.083-.334.153-.492.207l-.232-.576c.242-.096.483-.219.725-.369.246-.15.463-.327.65-.531z" fill="#b7b7b7"/>
</svg>
