<svg viewBox="0 0 24 24" xmlns="http://www.w3.org/2000/svg">
 <path d="m4 2c-1.108 0-2 .892-2 2v16c0 1.108.892 2 2 2h16c1.108 0 2-.892 2-2v-16c0-1.108-.892-2-2-2zm2.363 5.588h1.488c.292.617.575 1.242.85 1.875.275.633.549 1.3.824 2 .283.7.572 1.441.863 2.225.3.783.613 1.637.938 2.563h-1.699c-.117-.342-.238-.678-.363-1.012-.125-.333-.247-.675-.363-1.025h-3.648c-.117.35-.238.695-.363 1.037l-.35 1h-1.639c.325-.925.634-1.779.926-2.563.292-.783.575-1.525.85-2.225.283-.7.563-1.367.838-2 .275-.633.558-1.258.85-1.875zm.713 1.674c-.192.442-.412.98-.662 1.613-.242.633-.497 1.321-.764 2.063h2.852c-.267-.742-.525-1.433-.775-2.074-.25-.642-.467-1.177-.65-1.602zm5.05.451h4.963v1.063c-.167.175-.387.42-.662.736-.267.317-.555.671-.863 1.063-.308.383-.621.788-.938 1.213-.308.417-.588.818-.838 1.201h3.375v1.262h-5.199v-.938c.183-.333.412-.696.688-1.088.275-.392.558-.782.85-1.174.292-.4.58-.78.863-1.139.292-.358.55-.671.775-.938h-3.01v-1.262zm7.137 4.605c.462 0 .801.111 1.018.332.221.217.332.513.332.893 0 .15-.031.299-.094.445-.063.142-.144.28-.244.418-.096.133-.205.265-.33.395-.125.125-.25.246-.375.367-.067.063-.143.139-.227.227-.083.087-.161.174-.236.262-.075.087-.139.173-.193.256-.054.079-.084.147-.088.201h1.924v.637h-2.756c-.004-.033-.006-.073-.006-.119v-.111c0-.2.031-.384.094-.551.067-.171.152-.329.256-.475.104-.146.22-.283.35-.412.129-.129.26-.258.389-.383.1-.096.195-.19.287-.281.092-.092.172-.18.238-.268.071-.092.126-.184.168-.275.042-.096.063-.193.063-.293 0-.217-.063-.371-.188-.463-.125-.092-.278-.139-.457-.139-.117 0-.224.017-.324.051-.1.033-.19.073-.27.119-.075.046-.141.093-.199.143-.058.046-.102.084-.131.113l-.375-.531c.175-.167.378-.3.611-.4.238-.104.493-.156.764-.156z" fill="#b7b7b7"/>
</svg>
