<svg viewBox="0 0 24 24" xmlns="http://www.w3.org/2000/svg">
 <path d="m4 2c-1.108 0-2 .892-2 2v16c0 1.108.892 2 2 2h16c1.108 0 2-.892 2-2v-16c0-1.108-.892-2-2-2zm4.141 5.838h1.486c.292.617.575 1.242.85 1.875.275.633.551 1.3.826 2 .283.7.57 1.441.861 2.225.3.783.613 1.637.938 2.563h-1.699c-.117-.342-.238-.678-.363-1.012-.125-.333-.245-.675-.361-1.025h-3.65c-.117.35-.238.695-.363 1.037l-.35 1h-1.637c.325-.925.632-1.779.924-2.563.292-.783.577-1.525.852-2.225.283-.7.561-1.367.836-2 .275-.633.56-1.258.852-1.875zm.711 1.674c-.192.442-.412.98-.662 1.613-.242.633-.495 1.321-.762 2.063h2.85c-.267-.742-.525-1.433-.775-2.074-.25-.642-.467-1.177-.65-1.602zm5.05.451h4.961v1.063c-.167.175-.387.42-.662.736-.267.317-.553.671-.861 1.063-.308.383-.621.788-.938 1.213-.308.417-.588.818-.838 1.201h3.375v1.262h-5.201v-.938c.183-.333.412-.696.688-1.088.275-.392.56-.782.852-1.174.292-.4.578-.78.861-1.139.292-.358.55-.671.775-.938h-3.01v-1.262z" fill="#b7b7b7"/>
</svg>
