<svg viewBox="0 0 24 24" xmlns="http://www.w3.org/2000/svg">
 <path d="m4 2c-1.108 0-2 .892-2 2v16c0 1.108.892 2 2 2h16c1.108 0 2-.892 2-2v-16c0-1.108-.892-2-2-2zm1.91 5.5c1.25 0 2.203.229 2.861.688.667.458 1 1.158 1 2.1 0 1.175-.578 1.972-1.736 2.389.158.192.337.424.537.699.2.275.405.575.613.9.208.317.408.645.6.986.192.333.362.663.512.988h-1.762c-.158-.3-.33-.6-.514-.9-.183-.308-.371-.603-.563-.887-.183-.292-.365-.563-.549-.813-.183-.258-.355-.488-.514-.688-.117.008-.215.012-.299.012h-.238-.762v3.275h-1.576v-8.537c.383-.083.793-.137 1.227-.162.433-.033.82-.051 1.162-.051zm.111 1.363c-.333 0-.64.012-.924.037v2.799h.688c.383 0 .72-.021 1.012-.063.292-.042.533-.116.725-.225.2-.108.351-.254.451-.438.1-.183.15-.416.15-.699 0-.267-.05-.492-.15-.676-.1-.183-.246-.329-.438-.438-.183-.108-.404-.183-.662-.225-.258-.05-.543-.074-.852-.074zm8.209.688c.458 0 .878.083 1.262.25.392.158.725.387 1 .687.275.3.489.661.639 1.086.158.417.236.884.236 1.4 0 .517-.075.987-.225 1.412-.15.425-.362.788-.637 1.088-.275.3-.608.535-1 .701-.383.167-.809.25-1.275.25-.467 0-.892-.083-1.275-.25-.383-.167-.713-.401-.988-.701-.275-.3-.49-.663-.648-1.088-.15-.425-.227-.895-.227-1.412 0-.517.077-.984.227-1.4.158-.425.373-.786.648-1.086.283-.3.617-.529 1-.687.383-.167.805-.25 1.264-.25zm0 1.312c-.5 0-.892.191-1.176.574-.275.375-.412.887-.412 1.537 0 .658.137 1.179.412 1.563.283.383.676.576 1.176.576.5 0 .887-.193 1.162-.576.283-.383.426-.904.426-1.563 0-.65-.142-1.162-.426-1.537-.275-.383-.662-.574-1.162-.574zm5.301 3.455c.242 0 .45.03.625.088.175.058.319.142.432.25.117.104.202.229.256.375.058.142.088.298.088.469 0 .2-.055.379-.168.537-.108.158-.251.28-.426.363.225.079.411.209.557.393.15.183.225.42.225.707 0 .192-.033.37-.1.537-.067.163-.169.305-.307.426-.137.117-.313.21-.525.281-.208.067-.458.1-.75.1-.113 0-.229-.009-.35-.025-.117-.012-.23-.032-.338-.057-.104-.021-.2-.043-.287-.068-.087-.029-.153-.055-.199-.08l.15-.645c.087.042.214.09.381.145.167.05.373.074.619.074.329 0 .565-.063.711-.188.146-.129.219-.299.219-.512 0-.137-.028-.252-.086-.344-.054-.092-.132-.165-.232-.219-.096-.058-.209-.098-.338-.119-.125-.025-.257-.037-.398-.037h-.258v-.613h.313c.096 0 .193-.009.289-.025.1-.021.188-.054.268-.1.079-.05.143-.114.193-.193.05-.079.076-.182.076-.307 0-.1-.019-.185-.057-.256-.038-.071-.088-.13-.15-.176-.058-.046-.126-.079-.205-.1-.079-.021-.162-.031-.25-.031-.188 0-.354.03-.5.088-.146.054-.276.117-.389.188l-.275-.563c.058-.037.13-.077.213-.119.083-.042.175-.082.275-.119.104-.037.215-.067.332-.088.117-.025.238-.037.367-.037z" fill="#b7b7b7"/>
</svg>
