<svg viewBox="0 0 24 24" xmlns="http://www.w3.org/2000/svg">
 <path d="m4 2c-1.108 0-2 .892-2 2v16c0 1.108.892 2 2 2h16c1.108 0 2-.892 2-2v-16c0-1.108-.892-2-2-2zm11.963 4.801v7.486c0 .183.014.338.039.463.033.125.087.233.162.324.075.083.174.151.299.201.133.042.3.075.5.1l-.211 1.25c-.45-.008-.825-.059-1.125-.15-.292-.092-.526-.22-.701-.387-.175-.175-.3-.389-.375-.639-.067-.258-.1-.55-.1-.875v-7.523zm-5.613.836c.542 0 1.021.063 1.438.188.425.117.758.247 1 .389l-.486 1.275c-.283-.158-.596-.28-.938-.363-.333-.083-.679-.125-1.037-.125-.425 0-.758.087-1 .262-.233.175-.352.422-.352.738 0 .192.038.358.113.5.083.133.196.255.338.363.15.108.32.207.512.299.2.092.417.18.65.264.408.15.771.303 1.088.461.325.15.596.334.813.551.225.208.395.458.512.75.117.283.176.629.176 1.037 0 .783-.28 1.393-.838 1.826-.55.425-1.359.637-2.426.637-.358 0-.686-.024-.986-.074-.292-.042-.554-.097-.787-.164-.225-.067-.421-.133-.588-.199-.167-.075-.3-.141-.4-.199l.463-1.289c.225.125.529.25.912.375.383.125.845.188 1.387.188.567 0 .98-.095 1.238-.287.258-.192.387-.463.387-.813 0-.208-.045-.387-.137-.537-.083-.15-.208-.284-.375-.4-.158-.125-.355-.238-.588-.338-.233-.108-.499-.213-.799-.313-.3-.108-.592-.225-.875-.35-.275-.133-.522-.295-.738-.486-.208-.192-.378-.421-.512-.688-.125-.267-.188-.588-.188-.963 0-.783.271-1.396.812-1.838.542-.45 1.278-.676 2.211-.676z" fill="#b7b7b7"/>
</svg>
