<svg viewBox="0 0 24 24" xmlns="http://www.w3.org/2000/svg">
 <path d="m4 2c-1.108 0-2 .892-2 2v16c0 1.108.892 2 2 2h16c1.108 0 2-.892 2-2v-16c0-1.108-.892-2-2-2zm .914 5.588h1.574v7.299h3.9v1.363h-5.475v-8.662zm5.252 2.125h1.613c.092.367.196.763.313 1.188.125.417.253.837.387 1.262.142.417.284.825.426 1.225.15.392.287.746.412 1.063.125-.317.259-.671.4-1.063.142-.4.279-.808.412-1.225.142-.425.275-.845.4-1.262.125-.425.233-.821.324-1.188h1.563c-.358 1.275-.758 2.471-1.199 3.588-.433 1.108-.859 2.091-1.275 2.949h-1.299c-.417-.858-.847-1.841-1.289-2.949-.433-1.117-.829-2.313-1.188-3.588zm8.06 4.605c.462 0 .801.111 1.018.332.221.217.332.513.332.893 0 .15-.031.299-.094.445-.063.142-.144.28-.244.418-.096.133-.207.265-.332.395-.125.125-.25.246-.375.367-.067.063-.141.139-.225.227-.083.087-.161.174-.236.262-.075.087-.141.173-.195.256-.054.079-.082.147-.086.201h1.924v.637h-2.756c-.004-.033-.006-.073-.006-.119v-.111c0-.2.031-.384.094-.551.067-.171.152-.329.256-.475.104-.146.22-.283.35-.412.129-.129.26-.258.389-.383.1-.096.195-.19.287-.281.092-.092.17-.18.236-.268.071-.092.128-.184.17-.275.042-.096.063-.193.063-.293 0-.217-.063-.371-.188-.463-.125-.092-.278-.139-.457-.139-.117 0-.224.017-.324.051-.1.033-.19.073-.27.119-.075.046-.141.093-.199.143-.058.046-.102.084-.131.113l-.375-.531c.175-.167.378-.3.611-.4.238-.104.493-.156.764-.156z" fill="#b7b7b7"/>
</svg>
