<svg viewBox="0 0 24 24" xmlns="http://www.w3.org/2000/svg">
 <path d="m4 2c-1.108 0-2 .892-2 2v16c0 1.108.892 2 2 2h16c1.108 0 2-.892 2-2v-16c0-1.108-.892-2-2-2zm-.547 5.588h6.912v1.361h-2.662v7.301h-1.588v-7.301h-2.662zm10.217 1.986c.492 0 .959.038 1.4.113.442.075.817.155 1.125.238v5.662c0 1.042-.265 1.804-.799 2.287-.525.483-1.334.725-2.426.725-.4 0-.792-.033-1.176-.1-.375-.067-.715-.153-1.023-.262l.273-1.289c.258.108.55.197.875.264.333.067.693.1 1.076.1.608 0 1.04-.125 1.299-.375.258-.25.389-.622.389-1.113v-.25c-.15.075-.35.152-.6.227-.242.075-.521.111-.838.111-.417 0-.8-.066-1.15-.199-.342-.133-.637-.33-.887-.588-.242-.258-.435-.58-.576-.963-.133-.392-.199-.841-.199-1.35 0-.475.071-.912.213-1.313.15-.4.362-.742.637-1.025.283-.283.625-.504 1.025-.662.4-.158.853-.238 1.361-.238zm.014 1.264c-.55 0-.972.182-1.264.549-.292.358-.438.834-.438 1.426 0 .642.139 1.112.414 1.412.283.292.644.438 1.086.438.242 0 .467-.033.676-.1.217-.067.392-.147.525-.238v-3.387c-.108-.025-.242-.046-.4-.062-.158-.025-.358-.037-.6-.037zm5.131 3.48c.462 0 .801.111 1.018.332.221.217.332.513.332.893 0 .15-.031.299-.094.445-.063.142-.144.28-.244.418-.096.133-.207.265-.332.395-.125.125-.25.246-.375.367-.067.063-.141.139-.225.227-.083.087-.161.174-.236.262-.075.087-.141.173-.195.256-.054.079-.082.147-.086.201h1.924v.637h-2.756c-.004-.033-.006-.073-.006-.119v-.111c0-.2.031-.384.094-.551.067-.171.152-.329.256-.475.104-.146.22-.283.35-.412.129-.129.26-.258.389-.383.1-.096.195-.19.287-.281.092-.092.17-.18.236-.268.071-.092.128-.184.17-.275.042-.096.063-.193.063-.293 0-.217-.063-.371-.188-.463-.125-.092-.278-.139-.457-.139-.117 0-.224.017-.324.051-.1.033-.19.073-.27.119-.075.046-.141.093-.199.143-.058.046-.102.084-.131.113l-.375-.531c.175-.167.378-.3.611-.4.238-.104.493-.156.764-.156z" fill="#b7b7b7"/>
</svg>
