<svg viewBox="0 0 24 24" xmlns="http://www.w3.org/2000/svg">
 <path d="m4 2c-1.108 0-2 .892-2 2v16c0 1.108.892 2 2 2h16c1.108 0 2-.892 2-2v-16c0-1.108-.892-2-2-2zm3.748 5.75c.525 0 1.013.042 1.463.125.45.075.837.203 1.162.387.333.183.592.427.775.727.183.3.275.67.275 1.111 0 .408-.101.759-.301 1.051-.192.292-.463.524-.813.699.525.175.914.434 1.164.775.25.342.375.776.375 1.301 0 .892-.327 1.562-.977 2.01-.65.442-1.645.662-2.986.662-.458 0-.922-.015-1.389-.049-.467-.025-.875-.084-1.225-.176v-8.412c.183-.033.38-.063.588-.088.208-.033.42-.058.637-.074.217-.017.43-.031.639-.039.217-.008.42-.012.611-.012zm.201 1.287c-.242 0-.459.005-.65.014-.183.008-.341.02-.475.037v2.275h1.111c.6 0 1.072-.083 1.414-.25.342-.175.512-.484.512-.926 0-.417-.179-.712-.537-.887-.35-.175-.808-.264-1.375-.264zm8.141.787c.533 0 .98.077 1.338.227.358.142.641.345.85.611.217.258.366.576.449.951.092.367.139.769.139 1.211v3.676h-1.514v-3.438c0-.35-.024-.645-.074-.887-.042-.25-.116-.452-.225-.602-.1-.158-.242-.269-.426-.336-.175-.075-.392-.113-.65-.113-.192 0-.391.012-.6.037-.208.025-.363.046-.463.063v5.275h-1.512v-6.324c.292-.083.67-.163 1.137-.238.467-.075.984-.113 1.551-.113zm-9.266 2.775v2.639c.175.017.362.029.563.037.2.008.382.012.549.012.325 0 .625-.021.9-.063.283-.042.525-.113.725-.213.208-.108.372-.249.488-.424.125-.175.188-.401.188-.676 0-.492-.179-.834-.537-1.025-.358-.192-.855-.287-1.488-.287h-1.387z" fill="#b7b7b7"/>
</svg>
