<svg viewBox="0 0 24 24" xmlns="http://www.w3.org/2000/svg">
 <path d="m4 2c-1.108 0-2 .892-2 2v16c0 1.108.892 2 2 2h16c1.108 0 2-.892 2-2v-16c0-1.108-.892-2-2-2zm .846 5.838h1.289c.333.35.691.767 1.074 1.25.383.475.767.97 1.15 1.486.392.517.767 1.037 1.125 1.563.367.517.691 1 .975 1.451v-5.75h1.563v8.662h-1.338c-.283-.475-.599-.984-.949-1.525-.35-.55-.713-1.1-1.088-1.65-.375-.558-.759-1.095-1.15-1.611-.383-.525-.75-.995-1.1-1.412v6.199h-1.551v-8.662zm11.854 1.963c.9 0 1.6.278 2.1.836.508.558.764 1.392.764 2.5 0 .083-.005.181-.014.289 0 .1-.003.19-.012.273h-4.313c.042.525.226.935.551 1.227.333.283.812.424 1.437.424.367 0 .7-.033 1-.1.308-.067.55-.138.725-.213l.199 1.238c-.083.042-.2.087-.35.137-.142.042-.308.08-.5.113-.183.042-.383.075-.6.1-.217.025-.437.037-.662.037-.575 0-1.075-.083-1.5-.25-.425-.175-.776-.413-1.051-.713-.275-.308-.48-.666-.613-1.074-.133-.417-.199-.872-.199-1.363 0-.575.083-1.078.25-1.512.175-.433.404-.791.688-1.074.283-.292.608-.509.975-.65.367-.15.742-.225 1.125-.225zm.014 1.262c-.233 0-.438.045-.613.137-.175.083-.324.196-.449.338-.117.142-.209.305-.275.488-.067.183-.114.371-.139.563h2.813c0-.208-.028-.405-.086-.588-.058-.192-.147-.355-.264-.488-.108-.142-.245-.249-.412-.324-.158-.083-.349-.125-.574-.125z" fill="#b7b7b7"/>
</svg>
