<svg viewBox="0 0 24 24" xmlns="http://www.w3.org/2000/svg">
 <path d="m4 2c-1.108 0-2 .892-2 2v16c0 1.108.892 2 2 2h16c1.108 0 2-.892 2-2v-16c0-1.108-.892-2-2-2zm-.314 5.588h6.912v1.361h-2.662v7.301h-1.588v-7.301h-2.662zm9.713 1.963c.5 0 .92.063 1.262.188.342.125.613.298.813.523.208.225.354.501.438.826.092.317.139.665.139 1.049v3.963c-.233.05-.588.109-1.063.176-.467.075-.996.111-1.588.111-.392 0-.751-.036-1.076-.111-.325-.075-.603-.197-.836-.363-.225-.167-.406-.384-.539-.65-.125-.267-.188-.595-.188-.986 0-.375.071-.693.213-.951.15-.258.35-.467.6-.625.25-.167.538-.283.863-.35.333-.075.679-.111 1.037-.111.167 0 .342.012.525.037.183.017.38.05.588.1v-.25c0-.175-.021-.342-.063-.5-.042-.158-.116-.295-.225-.412-.1-.125-.239-.22-.414-.287-.167-.067-.378-.102-.637-.102-.35 0-.671.026-.963.076-.292.05-.53.107-.713.174l-.188-1.225c.192-.067.471-.133.838-.199.367-.067.759-.1 1.176-.1zm.299 3.773c-.167 0-.337.014-.512.039-.167.025-.321.07-.463.137-.133.067-.241.162-.324.287-.083.117-.125.268-.125.451 0 .358.113.608.338.75.225.133.529.199.912.199.467 0 .821-.024 1.063-.074v-1.676c-.083-.025-.205-.049-.363-.074-.158-.025-.334-.039-.525-.039zm5.166 1.094h.531v4.332h-.756v-3.318c-.113.088-.255.173-.426.256-.171.083-.336.153-.494.207l-.23-.576c.242-.096.483-.219.725-.369.246-.15.463-.327.65-.531z" fill="#b7b7b7"/>
</svg>
