<svg viewBox="0 0 24 24" xmlns="http://www.w3.org/2000/svg">
 <path d="m4 2c-1.108 0-2 .892-2 2v16c0 1.108.892 2 2 2h16c1.108 0 2-.892 2-2v-16c0-1.108-.892-2-2-2zm9.65 4.551v5.711c.192-.2.397-.412.613-.637.217-.233.428-.463.637-.688.208-.233.405-.454.588-.662.192-.217.355-.404.488-.563h1.787c-.417.467-.858.949-1.324 1.449-.458.5-.922.988-1.389 1.463.25.208.512.462.787.762.275.292.542.604.801.938.258.333.5.667.725 1 .225.333.413.642.563.926h-1.75c-.15-.258-.325-.529-.525-.813-.192-.283-.4-.558-.625-.824-.225-.267-.454-.517-.688-.75-.233-.242-.463-.447-.688-.613v3h-1.512v-9.449zm-10.289 1.037h1.588v5.262c0 .392.042.73.125 1.014.092.275.217.499.375.674.167.175.36.305.576.389.225.083.475.125.75.125.275 0 .525-.042.75-.125.225-.083.416-.214.574-.389.167-.175.292-.399.375-.674.092-.283.137-.622.137-1.014v-5.262h1.588v5.412c0 .5-.071.958-.213 1.375-.133.417-.342.78-.625 1.088-.275.308-.629.55-1.063.725-.433.167-.945.25-1.537.25-.592 0-1.1-.083-1.525-.25-.425-.175-.779-.416-1.063-.725-.275-.308-.478-.671-.611-1.088-.133-.417-.201-.875-.201-1.375zm16.268 6.73c.242 0 .45.03.625.088.175.058.319.142.432.25.117.104.202.229.256.375.058.142.088.298.088.469 0 .2-.055.379-.168.537-.108.158-.251.28-.426.363.225.079.411.209.557.393.15.183.225.42.225.707 0 .192-.033.37-.1.537-.067.163-.169.305-.307.426-.137.117-.313.21-.525.281-.208.067-.458.1-.75.1-.113 0-.229-.009-.35-.025-.117-.012-.23-.032-.338-.057-.104-.021-.2-.043-.287-.068-.087-.029-.153-.055-.199-.08l.15-.645c.087.042.214.09.381.145.167.05.373.074.619.074.329 0 .565-.063.711-.188.146-.129.219-.299.219-.512 0-.137-.028-.252-.086-.344-.054-.092-.132-.165-.232-.219-.096-.058-.209-.098-.338-.119-.125-.025-.257-.037-.398-.037h-.258v-.613h.313c.096 0 .193-.009.289-.025.1-.021.188-.054.268-.1.079-.05.143-.114.193-.193.05-.079.076-.182.076-.307 0-.1-.019-.185-.057-.256-.038-.071-.088-.13-.15-.176-.058-.046-.126-.079-.205-.1-.079-.021-.163-.031-.25-.031-.188 0-.354.03-.5.088-.146.054-.276.117-.389.188l-.275-.563c.058-.037.13-.077.213-.119.083-.042.175-.082.275-.119.104-.037.215-.067.332-.088.117-.025.238-.037.367-.037z" fill="#b7b7b7"/>
</svg>
