<svg viewBox="0 0 24 24" xmlns="http://www.w3.org/2000/svg">
 <path d="m4 2c-1.108 0-2 .892-2 2v16c0 1.108.892 2 2 2h16c1.108 0 2-.892 2-2v-16c0-1.108-.892-2-2-2zm1.631 5.5c.725 0 1.388.087 1.988.262.6.167 1.112.434 1.537.801.433.358.767.817 1 1.375.233.55.35 1.208.35 1.975 0 .75-.116 1.405-.35 1.963-.233.55-.567 1.012-1 1.387-.425.367-.942.643-1.551.826-.6.175-1.267.262-2 .262-.35 0-.746-.015-1.188-.049-.442-.025-.862-.084-1.262-.176v-8.412c.4-.092.825-.151 1.275-.176.45-.025.849-.037 1.199-.037zm.1 1.363c-.467 0-.8.012-1 .037v6.05c.092.008.213.017.363.025h.611c1.058 0 1.847-.265 2.363-.799.525-.542.787-1.297.787-2.264 0-.983-.253-1.737-.762-2.262-.508-.525-1.297-.787-2.363-.787zm9.107.688c.9 0 1.6.278 2.1.836.508.558.764 1.392.764 2.5 0 .083-.005.181-.014.289 0 .1-.003.19-.012.273h-4.313c.042.525.224.935.549 1.227.333.283.813.424 1.438.424.367 0 .7-.033 1-.1.308-.067.552-.138.727-.213l.199 1.238c-.083.042-.2.087-.35.137-.142.042-.308.08-.5.113-.183.042-.383.075-.6.1-.217.025-.439.037-.664.037-.575 0-1.075-.083-1.5-.25-.425-.175-.774-.413-1.049-.713-.275-.308-.48-.666-.613-1.074-.133-.417-.199-.872-.199-1.363 0-.575.083-1.078.25-1.512.175-.433.404-.791.688-1.074.283-.292.608-.509.975-.65.367-.15.742-.225 1.125-.225zm.012 1.262c-.233 0-.436.045-.611.137-.175.083-.326.196-.451.338-.117.142-.207.305-.273.488-.067.183-.114.371-.139.563h2.813c0-.208-.03-.405-.088-.588-.058-.192-.145-.355-.262-.488-.108-.142-.245-.249-.412-.324-.158-.083-.351-.125-.576-.125zm5.418 3.605h.531v4.332h-.758v-3.318c-.113.088-.253.173-.424.256-.171.083-.336.153-.494.207l-.23-.576c.242-.096.483-.219.725-.369.246-.15.463-.327.65-.531z" fill="#b7b7b7"/>
</svg>
