<svg viewBox="0 0 24 24" xmlns="http://www.w3.org/2000/svg">
 <path d="m4 2c-1.108 0-2 .892-2 2v16c0 1.108.892 2 2 2h16c1.108 0 2-.892 2-2v-16c0-1.108-.892-2-2-2zm8.955 4.551v3.236c.167-.058.358-.109.574-.15.225-.042.447-.063.664-.063.525 0 .957.077 1.299.227.35.142.63.345.838.611.208.258.354.571.438.938.092.367.137.775.137 1.225v3.676h-1.512v-3.438c0-.35-.024-.645-.074-.887-.042-.25-.118-.452-.227-.602-.1-.158-.237-.269-.412-.336-.175-.075-.392-.113-.65-.113-.2 0-.403.021-.611.063-.208.042-.363.08-.463.113v5.199h-1.512v-9.449l1.512-.25zm-6.775.949c1.258 0 2.22.229 2.887.688.675.458 1.014 1.175 1.014 2.15 0 .508-.092.946-.275 1.313-.175.358-.434.653-.775.887-.342.225-.758.392-1.25.5-.492.108-1.054.162-1.688.162h-.787v3.051h-1.574v-8.537c.367-.083.769-.137 1.211-.162.45-.033.863-.051 1.238-.051zm.113 1.363c-.4 0-.73.012-.988.037v2.949h.762c.758 0 1.342-.104 1.75-.313.408-.217.613-.621.613-1.213 0-.283-.054-.519-.162-.711-.108-.192-.26-.343-.451-.451-.192-.108-.421-.183-.688-.225-.258-.05-.536-.074-.836-.074zm13.15 5.455c.508 0 .892.165 1.15.494.262.325.393.785.393 1.381 0 .842-.217 1.479-.65 1.912-.433.433-1.096.652-1.992.656l-.031-.631c.25 0 .474-.021.674-.063.204-.042.381-.108.531-.199.154-.092.285-.212.389-.357.104-.15.182-.332.236-.549-.1.046-.209.08-.33.105-.121.025-.239.037-.352.037-.258 0-.479-.033-.662-.1-.179-.071-.327-.166-.443-.287-.113-.125-.196-.269-.25-.432-.054-.163-.082-.338-.082-.525 0-.162.028-.326.082-.492.054-.171.139-.327.256-.469.117-.142.264-.256.443-.344.179-.092.393-.139.639-.139zm.018.625c-.121 0-.225.026-.313.076-.083.05-.151.114-.205.193-.054.079-.094.164-.119.256-.025.092-.037.182-.037.27 0 .254.061.445.182.574.125.129.318.193.58.193.121 0 .241-.01.357-.031.117-.025.215-.06.299-.105.004-.046.006-.086.006-.119v-.088c0-.167-.012-.323-.037-.469-.021-.15-.061-.278-.119-.387-.054-.113-.13-.201-.23-.264-.096-.067-.217-.1-.363-.1z" fill="#b7b7b7"/>
</svg>
