<svg viewBox="0 0 24 24" xmlns="http://www.w3.org/2000/svg">
 <path d="m4 2c-1.108 0-2 .892-2 2v16c0 1.108.892 2 2 2h16c1.108 0 2-.892 2-2v-16c0-1.108-.892-2-2-2zm11.428 4.801v5.711c.192-.2.395-.412.611-.637.217-.233.43-.463.639-.688.208-.233.405-.454.588-.662.192-.217.353-.404.486-.563h1.787c-.417.467-.858.949-1.324 1.449-.458.5-.92.988-1.387 1.463.25.208.512.462.787.762.275.292.54.604.799.938.258.333.502.667.727 1 .225.333.413.642.563.926h-1.75c-.15-.258-.325-.529-.525-.813-.192-.283-.4-.558-.625-.824-.225-.267-.454-.517-.688-.75-.233-.242-.463-.447-.688-.613v3h-1.514v-9.449zm-10.289 1.037h1.588v5.262c0 .392.042.73.125 1.014.092.275.217.499.375.674.167.175.358.305.574.389.225.083.475.125.75.125.275 0 .525-.042.75-.125.225-.083.416-.214.574-.389.167-.175.292-.399.375-.674.092-.283.139-.622.139-1.014v-5.262h1.588v5.412c0 .5-.071.958-.213 1.375-.133.417-.342.78-.625 1.088-.275.308-.629.55-1.063.725-.433.167-.945.25-1.537.25-.592 0-1.1-.083-1.525-.25-.425-.175-.779-.416-1.063-.725-.275-.308-.48-.671-.613-1.088-.133-.417-.199-.875-.199-1.375z" fill="#b7b7b7"/>
</svg>
