<svg viewBox="0 0 24 24" xmlns="http://www.w3.org/2000/svg">
 <path d="m4 2c-1.108 0-2 .892-2 2v16c0 1.108.892 2 2 2h16c1.108 0 2-.892 2-2v-16c0-1.108-.892-2-2-2zm .768 5.588h5.475v1.338h-3.9v2.211h3.463v1.338h-3.463v3.775h-1.574v-8.662zm8.424 1.963c.5 0 .92.063 1.262.188.342.125.613.298.813.523.208.225.354.501.438.826.092.317.137.665.137 1.049v3.963c-.233.05-.588.109-1.063.176-.467.075-.994.111-1.586.111-.392 0-.751-.036-1.076-.111-.325-.075-.605-.197-.838-.363-.225-.167-.404-.384-.537-.65-.125-.267-.188-.595-.188-.986 0-.375.071-.693.213-.951.15-.258.35-.467.6-.625.25-.167.538-.283.863-.35.333-.075.679-.111 1.037-.111.167 0 .342.012.525.037.183.017.38.05.588.1v-.25c0-.175-.021-.342-.063-.5-.042-.158-.118-.295-.227-.412-.1-.125-.237-.22-.412-.287-.167-.067-.378-.102-.637-.102-.35 0-.671.026-.963.076-.292.05-.53.107-.713.174l-.188-1.225c.192-.067.471-.133.838-.199.367-.067.759-.1 1.176-.1zm.299 3.773c-.167 0-.337.014-.512.039-.167.025-.321.07-.463.137-.133.067-.241.162-.324.287-.083.117-.125.268-.125.451 0 .358.111.608.336.75.225.133.531.199.914.199.467 0 .821-.024 1.063-.074v-1.676c-.083-.025-.205-.049-.363-.074-.158-.025-.334-.039-.525-.039zm4.797.994c.242 0 .45.03.625.088.175.058.319.142.432.25.117.104.202.229.256.375.058.142.088.298.088.469 0 .2-.057.379-.17.537-.108.158-.249.28-.424.363.225.079.409.209.555.393.15.183.227.42.227.707 0 .192-.035.37-.102.537-.067.163-.167.305-.305.426-.137.117-.313.21-.525.281-.208.067-.458.1-.75.1-.113 0-.229-.009-.35-.025-.117-.012-.23-.032-.338-.057-.104-.021-.2-.043-.287-.068-.087-.029-.155-.055-.201-.08l.15-.645c.087.042.214.09.381.145.167.05.373.074.619.074.329 0 .567-.063.713-.188.146-.129.219-.299.219-.512 0-.137-.03-.252-.088-.344-.054-.092-.13-.165-.23-.219-.096-.058-.209-.098-.338-.119-.125-.025-.259-.037-.4-.037h-.256v-.613h.313c.096 0 .191-.009.287-.025.1-.021.19-.054.27-.1.079-.05.143-.114.193-.193.05-.079.074-.182.074-.307 0-.1-.019-.185-.057-.256-.038-.071-.086-.13-.148-.176-.058-.046-.128-.079-.207-.1-.079-.021-.163-.031-.25-.031-.188 0-.354.03-.5.088-.146.054-.274.117-.387.188l-.275-.563c.058-.037.13-.077.213-.119.083-.042.173-.082.273-.119.104-.037.215-.067.332-.088.117-.025.24-.037.369-.037z" fill="#b7b7b7"/>
</svg>
