<svg viewBox="0 0 24 24" xmlns="http://www.w3.org/2000/svg">
 <path d="m4 2c-1.108 0-2 .892-2 2v16c0 1.108.892 2 2 2h16c1.108 0 2-.892 2-2v-16c0-1.108-.892-2-2-2zm-.881 5.588h1.574v3.463h3.764v-3.463h1.574v8.662h-1.574v-3.838h-3.764v3.838h-1.574zm8.834 2.125h1.514v3.424c0 .7.099 1.2.299 1.5.208.3.568.451 1.076.451.183 0 .374-.009.574-.025.208-.017.363-.037.463-.063v-5.287h1.512v6.338c-.292.075-.67.15-1.137.225-.467.083-.979.125-1.537.125-.525 0-.968-.075-1.326-.225-.35-.15-.633-.358-.85-.625-.208-.267-.358-.585-.449-.951-.092-.375-.139-.783-.139-1.225zm8.35 4.705h.531v4.332h-.756v-3.318c-.113.088-.253.173-.424.256-.171.083-.336.153-.494.207l-.232-.576c.242-.096.485-.219.727-.369.246-.15.461-.327.648-.531z" fill="#b7b7b7"/>
</svg>
