<svg viewBox="0 0 24 24" xmlns="http://www.w3.org/2000/svg">
 <path d="m4 2c-1.108 0-2 .892-2 2v16c0 1.108.892 2 2 2h16c1.108 0 2-.892 2-2v-16c0-1.108-.892-2-2-2zm2.031 5.838h1.574v3.463h3.762v-3.463h1.576v8.662h-1.576v-3.838h-3.762v3.838h-1.574zm11.459 1.986c.1 0 .216.009.35.025.133.008.267.026.4.051.133.017.262.041.387.074.125.025.226.051.301.076l-.264 1.273c-.125-.042-.298-.083-.523-.125-.217-.05-.472-.074-.764-.074-.167 0-.345.017-.537.051-.183.033-.312.061-.387.086v5.238h-1.514v-6.225c.292-.108.655-.209 1.088-.301.442-.1.93-.15 1.463-.15z" fill="#b7b7b7"/>
</svg>
