<svg viewBox="0 0 24 24" xmlns="http://www.w3.org/2000/svg">
 <path d="m4 2c-1.108 0-2 .892-2 2v16c0 1.108.892 2 2 2h16c1.108 0 2-.892 2-2v-16c0-1.108-.892-2-2-2zm1.316 5.588h1.574v7.299h3.9v1.363h-5.475v-8.662zm8.03.15v1.975h2.326v1.262h-2.326v2.662c0 .525.083.9.25 1.125.167.225.45.338.85.338.275 0 .518-.03.727-.088.217-.058.387-.112.512-.162l.25 1.201c-.175.075-.404.15-.688.225-.283.083-.617.125-1 .125-.467 0-.859-.063-1.176-.188-.308-.125-.553-.304-.736-.537-.183-.242-.314-.53-.389-.863-.075-.342-.111-.729-.111-1.162v-5.662l1.512-.25zm5.775 6.656l.043.625c-.225.004-.435.028-.631.074-.196.042-.371.108-.525.199-.154.092-.288.212-.4.357-.108.146-.192.325-.25.537.204-.096.428-.145.67-.145.258 0 .477.038.656.113.183.071.331.168.443.293.113.125.194.271.244.438.054.163.08.335.08.514 0 .163-.028.329-.086.5-.054.171-.143.327-.264.469-.117.137-.264.252-.443.344-.179.087-.391.131-.637.131-.496 0-.876-.163-1.139-.488-.258-.329-.387-.78-.387-1.355 0-.417.061-.785.182-1.105.125-.325.298-.599.523-.82.229-.221.505-.387.826-.5.325-.117.69-.176 1.094-.18zm-1.188 2.25c-.121 0-.237.01-.35.031-.113.021-.215.052-.307.094-.004.033-.009.07-.014.111v.113c0 .167.01.325.031.475.025.146.065.274.119.387.058.108.137.197.232.264.1.063.221.094.367.094.121 0 .223-.026.307-.076.087-.05.159-.114.213-.193.054-.079.094-.164.119-.256.025-.096.037-.188.037-.275 0-.25-.061-.439-.182-.568-.121-.133-.312-.199-.574-.199z" fill="#b7b7b7"/>
</svg>
