<svg viewBox="0 0 24 24" xmlns="http://www.w3.org/2000/svg">
 <path d="m4 2c-1.108 0-2 .892-2 2v16c0 1.108.892 2 2 2h16c1.108 0 2-.892 2-2v-16c0-1.108-.892-2-2-2zm-.783 5.588h1.287c.333.35.691.767 1.074 1.25.383.475.767.97 1.15 1.486.392.517.767 1.037 1.125 1.563.367.517.691 1 .975 1.451v-5.75h1.563v8.662h-1.336c-.283-.475-.601-.984-.951-1.525-.35-.55-.713-1.1-1.088-1.65-.375-.558-.757-1.095-1.148-1.611-.383-.525-.752-.995-1.102-1.412v6.199h-1.549v-8.662zm11.252 1.963c.458 0 .88.083 1.264.25.392.158.725.387 1 .688.275.3.487.661.637 1.086.158.417.238.884.238 1.4 0 .517-.077.987-.227 1.412-.15.425-.362.788-.637 1.088-.275.3-.608.535-1 .701-.383.167-.809.25-1.275.25-.467 0-.892-.083-1.275-.25-.383-.167-.711-.401-.986-.701-.275-.3-.492-.663-.65-1.088-.15-.425-.225-.895-.225-1.412 0-.517.075-.984.225-1.4.158-.425.375-.786.65-1.086.283-.3.617-.529 1-.688.383-.167.803-.25 1.262-.25zm0 1.313c-.5 0-.89.191-1.174.574-.275.375-.414.887-.414 1.537 0 .658.139 1.179.414 1.563.283.383.674.576 1.174.576.5 0 .887-.193 1.162-.576.283-.383.426-.904.426-1.563 0-.65-.142-1.162-.426-1.537-.275-.383-.662-.574-1.162-.574zm5.984 3.531l.043.625c-.225.004-.435.028-.631.074-.196.042-.371.108-.525.199-.154.092-.288.212-.4.357-.108.146-.192.325-.25.537.204-.096.428-.145.67-.145.258 0 .477.038.656.113.183.071.331.168.443.293.113.125.194.271.244.438.054.163.08.335.08.514 0 .163-.03.329-.088.5-.054.171-.141.327-.262.469-.117.137-.264.252-.443.344-.179.087-.393.131-.639.131-.496 0-.874-.163-1.137-.488-.258-.329-.387-.78-.387-1.355 0-.417.059-.785.18-1.105.125-.325.3-.599.525-.82.229-.221.505-.387.826-.5.325-.117.69-.176 1.094-.18zm-1.188 2.25c-.121 0-.239.01-.352.031-.113.021-.213.052-.305.094-.004.033-.009.07-.014.111v.113c0 .167.01.325.031.475.025.146.065.274.119.387.058.108.135.197.23.264.1.063.223.094.369.094.121 0 .223-.026.307-.076.087-.05.159-.114.213-.193.054-.079.094-.164.119-.256.025-.096.037-.188.037-.275 0-.25-.061-.439-.182-.568-.121-.133-.312-.199-.574-.199z" fill="#b7b7b7"/>
</svg>
