<svg viewBox="0 0 24 24" xmlns="http://www.w3.org/2000/svg">
 <path d="m4 2c-1.108 0-2 .892-2 2v16c0 1.108.892 2 2 2h16c1.108 0 2-.892 2-2v-16c0-1.108-.892-2-2-2zm9.67 4.863c.25 0 .467.083.65.25.183.167.275.396.275.688 0 .283-.092.507-.275.674-.183.167-.4.25-.65.25-.258 0-.479-.083-.662-.25-.183-.167-.275-.39-.275-.674 0-.292.092-.521.275-.688.183-.167.404-.25.662-.25zm-7.572.725h5.475v1.338h-3.9v2.211h3.463v1.338h-3.463v3.775h-1.574v-8.662zm6.822 2.125h1.512v6.537h-1.512zm3.262 4.705h2.213v.639h-1.57c-.004.071-.009.152-.018.244-.004.088-.011.176-.02.268-.004.092-.009.18-.018.264-.008.083-.017.153-.025.211.617.033 1.07.176 1.361.426.296.246.445.583.445 1.012 0 .196-.035.378-.102.545-.067.167-.167.311-.305.432-.137.121-.311.216-.52.287-.208.067-.451.1-.73.1-.113 0-.227-.009-.344-.025-.117-.017-.23-.038-.338-.063-.104-.021-.198-.043-.281-.068-.083-.025-.146-.048-.188-.068l.143-.639c.088.042.212.089.375.139.167.046.37.068.607.068.163 0 .301-.017.418-.051.117-.038.21-.086.281-.148.075-.063.129-.134.162-.213.033-.083.051-.172.051-.264 0-.137-.028-.259-.082-.367-.054-.108-.15-.2-.287-.275-.133-.075-.314-.132-.543-.17-.225-.038-.512-.055-.857-.055.046-.4.082-.78.107-1.139.025-.363.046-.725.063-1.088z" fill="#b7b7b7"/>
</svg>
