<svg viewBox="0 0 24 24" xmlns="http://www.w3.org/2000/svg">
 <path d="m4 2c-1.108 0-2 .892-2 2v16c0 1.108.892 2 2 2h16c1.108 0 2-.892 2-2v-16c0-1.108-.892-2-2-2zm2.389 5.5c.525 0 1.01.042 1.461.125.45.075.839.203 1.164.387.333.183.59.427.773.727.183.3.275.67.275 1.111 0 .408-.099.759-.299 1.051-.192.292-.463.524-.813.699.525.175.912.434 1.162.775.25.342.375.776.375 1.301 0 .892-.325 1.562-.975 2.01-.65.442-1.647.662-2.988.662-.458 0-.92-.015-1.387-.049-.467-.025-.877-.084-1.227-.176v-8.412c.183-.033.38-.063.588-.088.208-.033.422-.058.639-.074.217-.017.428-.031.637-.039.217-.008.422-.012.613-.012zm.199 1.287c-.242 0-.459.005-.65.014-.183.008-.341.02-.475.037v2.275h1.113c.6 0 1.07-.083 1.412-.25.342-.175.512-.484.512-.926 0-.417-.179-.712-.537-.887-.35-.175-.808-.264-1.375-.264zm4.604.926h1.611c.083.35.184.728.301 1.137.125.408.259.825.4 1.25.142.417.291.833.449 1.25.158.417.316.804.475 1.162.267-.742.517-1.528.75-2.361.233-.842.447-1.654.639-2.438h1.563c-.675 2.483-1.458 4.733-2.35 6.75-.167.375-.339.696-.514.963-.175.267-.371.487-.588.662-.217.175-.458.3-.725.375-.267.083-.574.125-.924.125-.233 0-.468-.026-.701-.076-.225-.05-.395-.104-.512-.162l.275-1.213c.3.117.595.176.887.176.392 0 .695-.095.912-.287.225-.183.421-.472.588-.863-.475-.917-.933-1.917-1.375-3-.433-1.083-.82-2.233-1.162-3.449zm-5.729 2.637v2.639c.175.017.362.029.563.037.2.008.384.012.551.012.325 0 .623-.021.898-.063.283-.042.527-.113.727-.213.208-.108.37-.249.486-.424.125-.175.188-.401.188-.676 0-.492-.179-.834-.537-1.025-.358-.192-.855-.287-1.488-.287h-1.387zm13.766 1.969c.462 0 .803.111 1.02.332.221.217.33.513.33.893 0 .15-.031.299-.094.445-.063.142-.142.28-.242.418-.096.133-.207.265-.332.395-.125.125-.25.246-.375.367-.067.063-.141.139-.225.227-.083.087-.163.174-.238.262-.075.087-.139.173-.193.256-.054.079-.084.147-.088.201h1.926v.637h-2.756c-.004-.033-.008-.073-.008-.119v-.111c0-.2.031-.384.094-.551.067-.171.154-.329.258-.475.104-.146.22-.283.35-.412.129-.129.258-.258.387-.383.1-.096.195-.19.287-.281.092-.092.172-.18.238-.268.071-.092.126-.184.168-.275.042-.096.063-.193.063-.293 0-.217-.063-.371-.188-.463-.125-.092-.276-.139-.455-.139-.117 0-.226.017-.326.051-.1.033-.188.073-.268.119-.075.046-.143.093-.201.143-.058.046-.102.084-.131.113l-.375-.531c.175-.167.38-.3.613-.4.238-.104.491-.156.762-.156z" fill="#b7b7b7"/>
</svg>
