<svg width="512" height="512" version="1.1" viewBox="0 0 512 512" xmlns="http://www.w3.org/2000/svg">
 <path d="m471.95 253.05c0 120.9-98.01 218.91-218.91 218.91s-218.91-98.01-218.91-218.91 98.01-218.91 218.91-218.91 218.91 98.01 218.91 218.91" fill="#d23638" fill-rule="evenodd"/>
 <path d="m232.84 110.05c-5.2475 0-9.6337 5.7034-10.975 13.524v3.8907h68.266v-3.8907c-1.3413-7.821-5.7283-13.524-10.975-13.524zm-48.033 27.616c-16.137 0-29.663 11.24-33.781 26.671v7.675h209.95v-7.675c-4.1252-15.438-17.65-26.671-33.781-26.671h-142.38m-18.084 47.58v185.24c0 16.392 13.202 29.598 29.598 29.598h119.33c16.392 0 29.598-13.202 29.598-29.598v-185.23h-178.53" fill="#ffffff" stroke-width=".85869"/>
 <circle cx="256" cy="256" r="181.13" fill="none" stroke="#fefefe" stroke-width="18.771"/>
</svg>
