<svg width="512" height="512" version="1.1" viewBox="0 0 512 512" xmlns="http://www.w3.org/2000/svg">
 <g fill-rule="evenodd">
  <path d="m471.95 253.05c0 120.9-98.01 218.9-218.9 218.9-120.9 0-218.9-98.01-218.9-218.9 0-120.9 98.01-218.9 218.9-218.9 120.9 0 218.9 98.01 218.9 218.9" fill="#a1a1a1"/>
  <path d="m256 1c-140.83 0-255 114.17-255 255s114.17 255 255 255 255-114.17 255-255-114.17-255-255-255m8.827 44.931c120.9 0 218.9 98 218.9 218.9s-98 218.9-218.9 218.9-218.93-98-218.93-218.9 98.03-218.9 218.93-218.9" fill-opacity=".067"/>
  <g fill-opacity=".129">
   <path d="m256 4.433c-138.94 0-251.57 112.63-251.57 251.57s112.63 251.57 251.57 251.57 251.57-112.63 251.57-251.57-112.63-251.57-251.57-251.57m5.885 38.556c120.9 0 218.9 98 218.9 218.9s-98 218.9-218.9 218.9-218.93-98-218.93-218.9 98.03-218.9 218.93-218.9"/>
   <path d="m256 8.356c-136.77 0-247.64 110.87-247.64 247.64s110.87 247.64 247.64 247.64 247.64-110.87 247.64-247.64-110.87-247.64-247.64-247.64m2.942 31.691c120.9 0 218.9 98 218.9 218.9s-98 218.9-218.9 218.9-218.93-98-218.93-218.9 98.03-218.9 218.93-218.9"/>
  </g>
 </g>
 <path d="m280.28 95.475-17.567 19.868c-51.288 29.108-23.533-12.187-41.938 36.708l-3.241 25.83-36.011 66.843-13.228 47.074-36.608 66.574 172.94 107.52c136.84-50.71 169.66-90.609 167.33-248.63" opacity=".25"/>
 <path d="m253.04 7.859c-135.42 0-245.19 109.78-245.19 245.19 0 135.42 109.78 245.19 245.19 245.19 135.42 0 245.19-109.78 245.19-245.19 0-135.42-109.78-245.19-245.19-245.19zm0 26.297c120.9 0 218.9 98 218.9 218.9s-98 218.9-218.9 218.9-218.93-98-218.93-218.9 98.03-218.9 218.93-218.9z" fill="#ffffff" fill-rule="evenodd" stroke="#000000" stroke-opacity=".31" stroke-width="4.904"/>
 <g transform="matrix(.76964 0 0 .76964 30.335 90.452)" clip-rule="evenodd" fill="#ffffff" fill-rule="evenodd" stroke-width="14.851">
  <path d="m325.77 226.74v2e-3l-30.719 76.811-30.717-76.805-13.832 32.248 44.555 133.66 44.555-133.66-13.838-32.256z" enable-background="new" style="paint-order:normal"/>
  <path d="m265.35 6.5255-133.66 341.58h59.406l103.96-252.47 103.96 252.47h59.406l-133.66-341.58z" enable-background="new" style="paint-order:normal"/>
  <path d="m294.32 135.5-30.719 71.704 30.719 76.81 30.719-76.81z" enable-background="new" style="paint-order:normal"/>
 </g>
</svg>
