<?xml version="1.0" encoding="UTF-8"?>
<svg width="512" height="512" version="1.1" viewBox="0 0 512 512" xmlns="http://www.w3.org/2000/svg">
 <g fill-rule="evenodd">
  <path d="m471.95 253.05c0 120.9-98.01 218.9-218.9 218.9-120.9 0-218.9-98.01-218.9-218.9 0-120.9 98.01-218.9 218.9-218.9 120.9 0 218.9 98.01 218.9 218.9" fill="#a1a1a1"/>
  <path d="m256 1c-140.83 0-255 114.17-255 255s114.17 255 255 255 255-114.17 255-255-114.17-255-255-255m8.827 44.931c120.9 0 218.9 98 218.9 218.9s-98 218.9-218.9 218.9-218.93-98-218.93-218.9 98.03-218.9 218.93-218.9" fill-opacity=".067"/>
  <g fill-opacity=".129">
   <path d="m256 4.433c-138.94 0-251.57 112.63-251.57 251.57s112.63 251.57 251.57 251.57 251.57-112.63 251.57-251.57-112.63-251.57-251.57-251.57m5.885 38.556c120.9 0 218.9 98 218.9 218.9s-98 218.9-218.9 218.9-218.93-98-218.93-218.9 98.03-218.9 218.93-218.9"/>
   <path d="m256 8.356c-136.77 0-247.64 110.87-247.64 247.64s110.87 247.64 247.64 247.64 247.64-110.87 247.64-247.64-110.87-247.64-247.64-247.64m2.942 31.691c120.9 0 218.9 98 218.9 218.9s-98 218.9-218.9 218.9-218.93-98-218.93-218.9 98.03-218.9 218.93-218.9"/>
  </g>
 </g>
 <path d="m302.56 114.93-2.236 0.568 11.867 11.867-46.14-12.02h-3.336l-37.533 12.662-1.113 0.934-4.193-4.193-57.482 52.283 21.479 21.198-9.9015 41.297-29.664-45.196-27.213 27.768-0.66768 86.629s97.343 114.2 153.33 170.19c110.7-32.911 210.1-77.111 204.4-226.34l-160.32-162.22" opacity=".25"/>
 <path d="m253.04 7.859c-135.42 0-245.19 109.78-245.19 245.19 0 135.42 109.78 245.19 245.19 245.19 135.42 0 245.19-109.78 245.19-245.19 0-135.42-109.78-245.19-245.19-245.19zm0 26.297c120.9 0 218.9 98 218.9 218.9s-98 218.9-218.9 218.9-218.93-98-218.93-218.9 98.03-218.9 218.93-218.9z" fill="#ffffff" fill-rule="evenodd" stroke="#000000" stroke-opacity=".31" stroke-width="4.904"/>
 <path d="m191.08 89.303c-2.8699 0.12532-4.5618 3.2709-3.0829 5.7272l11.868 20.415c-23.473 14.061-37.459 37.045-37.471 61.584h175.45c-0.0501-24.526-14.049-47.497-37.522-61.533l11.918-20.465c1.4913-2.5065-0.28824-5.6897-3.2083-5.7272-1.3911-0.02506-2.6694 0.72687-3.3586 1.93l-12.018 20.628c-13.247-6.5418-28.26-10.026-43.55-10.038-15.289-0.0125-30.316 3.4589-43.575 9.9882l-11.993-20.591c-0.70181-1.2532-2.0428-1.9926-3.4714-1.93m15.177 50.129c3.4589 0 6.2661 2.8072 6.2661 6.2661 0 3.4589-2.8072 6.2661-6.2661 6.2661s-6.2661-2.8072-6.2661-6.2661c0-3.4589 2.8072-6.2661 6.2661-6.2661m87.726 0c3.4589 0 6.2661 2.8072 6.2661 6.2661 0 3.4589-2.8072 6.2661-6.2661 6.2661s-6.2661-2.8072-6.2661-6.2661c0-3.4589 2.8072-6.2661 6.2661-6.2661m-162.92 50.129c-10.414 0-18.798 8.3841-18.798 18.798v87.726c0 10.414 8.3841 18.798 18.798 18.798 10.414 0 18.798-8.3841 18.798-18.798v-87.726c0-10.414-8.3841-18.798-18.798-18.798m31.331 0v137.85c0 13.886 11.179 25.065 25.065 25.065h12.532v43.863c0 10.414 8.3841 18.798 18.798 18.798s18.798-8.3841 18.798-18.798v-43.863h25.065v43.863c0 10.414 8.3841 18.798 18.798 18.798s18.798-8.3841 18.798-18.798v-43.863h12.532c13.886 0 25.065-11.179 25.065-25.065v-137.85zm206.78 0c-10.414 0-18.798 8.3841-18.798 18.798v87.726c0 10.414 8.3841 18.798 18.798 18.798 10.414 0 18.798-8.3841 18.798-18.798v-87.726c0-10.414-8.3841-18.798-18.798-18.798" fill="#ffffff" stroke-width="12.532"/>
</svg>
