<?xml version="1.0" encoding="UTF-8" standalone="no"?>
<svg
   xmlns:dc="http://purl.org/dc/elements/1.1/"
   xmlns:cc="http://creativecommons.org/ns#"
   xmlns:rdf="http://www.w3.org/1999/02/22-rdf-syntax-ns#"
   xmlns:svg="http://www.w3.org/2000/svg"
   xmlns="http://www.w3.org/2000/svg"
   xmlns:sodipodi="http://sodipodi.sourceforge.net/DTD/sodipodi-0.dtd"
   xmlns:inkscape="http://www.inkscape.org/namespaces/inkscape"
   viewBox="0 0 512 512"
   id="svg2"
   version="1.1"
   inkscape:version="0.91 r13725"
   sodipodi:docname="clipgrab.svg">
  <metadata
     id="metadata37">
    <rdf:RDF>
      <cc:Work
         rdf:about="">
        <dc:format>image/svg+xml</dc:format>
        <dc:type
           rdf:resource="http://purl.org/dc/dcmitype/StillImage" />
      </cc:Work>
    </rdf:RDF>
  </metadata>
  <defs
     id="defs35" />
  <sodipodi:namedview
     pagecolor="#ffffff"
     bordercolor="#666666"
     borderopacity="1"
     objecttolerance="10"
     gridtolerance="10"
     guidetolerance="10"
     inkscape:pageopacity="0"
     inkscape:pageshadow="2"
     inkscape:window-width="1920"
     inkscape:window-height="1021"
     id="namedview33"
     showgrid="false"
     inkscape:zoom="0.4609375"
     inkscape:cx="256"
     inkscape:cy="256"
     inkscape:window-x="0"
     inkscape:window-y="0"
     inkscape:window-maximized="1"
     inkscape:current-layer="svg2" />
  <linearGradient
     id="a"
     gradientUnits="userSpaceOnUse"
     x1="143.14"
     x2="356.04"
     y1="436.43"
     y2="61.02">
    <stop
       offset="0"
       stop-color="#59cdea"
       id="stop5" />
    <stop
       offset=".084"
       stop-color="#00b2de"
       id="stop7" />
    <stop
       offset=".501"
       stop-color="#5bcdea"
       id="stop9" />
    <stop
       offset=".866"
       stop-color="#21bce2"
       id="stop11" />
    <stop
       offset="1"
       stop-color="#18a7ca"
       id="stop13" />
  </linearGradient>
  <path
     d="m471.95 253.05c0 120.9-98.01 218.9-218.9 218.9-120.9 0-218.9-98.01-218.9-218.9 0-120.9 98.01-218.9 218.9-218.9 120.9 0 218.9 98.01 218.9 218.9"
     fill="url(#a)"
     fill-rule="evenodd"
     stroke="#00b2de"
     id="path15"
     style="fill:#a1a1a1;fill-opacity:1" />
  <path
     d="m78.81 120.56c-5.407 7.099-10.385 14.539-14.906 22.281 12.11 15.653 24.795 30.08 38 43.28l258 258c65.58-36.756 110.31-106.29 111.99-186.42l-.016-.016c-79.981 19.376-156.12 17.575-224.72-7.25-28.57-10.339-55.91-24.68-81.74-43.27l-86.6-86.6"
     opacity=".25"
     id="path17" />
  <path
     d="m78.81 120.56c-5.407 7.099-10.385 14.539-14.906 22.281 49.686 64.22 108.99 107.73 174.59 131.47 71.52 25.882 150.06 28.23 231.22 9.938 1.242-8.7 1.969-17.564 2.156-26.563-79.981 19.376-156.12 17.575-224.72-7.25-63.13-22.847-120.27-65.22-168.34-129.87"
     fill="#ffffff"
     id="path19" />
  <g
     fill-rule="evenodd"
     id="g21">
    <path
       d="m256 1c-140.83 0-255 114.17-255 255s114.17 255 255 255 255-114.17 255-255-114.17-255-255-255m8.827 44.931c120.9 0 218.9 98 218.9 218.9s-98 218.9-218.9 218.9-218.93-98-218.93-218.9 98.03-218.9 218.93-218.9"
       fill-opacity=".067"
       id="path23" />
    <g
       fill-opacity=".129"
       id="g25">
      <path
         d="m256 4.43c-138.94 0-251.57 112.63-251.57 251.57s112.63 251.57 251.57 251.57 251.57-112.63 251.57-251.57-112.63-251.57-251.57-251.57m5.885 38.556c120.9 0 218.9 98 218.9 218.9s-98 218.9-218.9 218.9-218.93-98-218.93-218.9 98.03-218.9 218.93-218.9"
         id="path27" />
      <path
         d="m256 8.36c-136.77 0-247.64 110.87-247.64 247.64s110.87 247.64 247.64 247.64 247.64-110.87 247.64-247.64-110.87-247.64-247.64-247.64m2.942 31.691c120.9 0 218.9 98 218.9 218.9s-98 218.9-218.9 218.9-218.93-98-218.93-218.9 98.03-218.9 218.93-218.9"
         id="path29" />
    </g>
    <path
       d="m253.04 7.86c-135.42 0-245.19 109.78-245.19 245.19 0 135.42 109.78 245.19 245.19 245.19 135.42 0 245.19-109.78 245.19-245.19 0-135.42-109.78-245.19-245.19-245.19m0 26.297c120.9 0 218.9 98 218.9 218.9s-98 218.9-218.9 218.9-218.93-98-218.93-218.9 98.03-218.9 218.93-218.9z"
       fill="#ffffff"
       stroke="#000000"
       stroke-opacity=".31"
       stroke-width="4.904"
       id="path31" />
  </g>
</svg>
