<?xml version="1.0" encoding="UTF-8" standalone="no"?>
<svg
   width="512"
   height="512"
   version="1.1"
   viewBox="0 0 512 512"
   id="svg20"
   sodipodi:docname="element.svg"
   inkscape:version="1.1 (c4e8f9ed74, 2021-05-24)"
   xmlns:inkscape="http://www.inkscape.org/namespaces/inkscape"
   xmlns:sodipodi="http://sodipodi.sourceforge.net/DTD/sodipodi-0.dtd"
   xmlns="http://www.w3.org/2000/svg"
   xmlns:svg="http://www.w3.org/2000/svg">
  <defs
     id="defs24" />
  <sodipodi:namedview
     id="namedview22"
     pagecolor="#ffffff"
     bordercolor="#666666"
     borderopacity="1.0"
     inkscape:pageshadow="2"
     inkscape:pageopacity="0.0"
     inkscape:pagecheckerboard="0"
     showgrid="false"
     inkscape:zoom="1.3300781"
     inkscape:cx="303.74156"
     inkscape:cy="358.24964"
     inkscape:window-width="1920"
     inkscape:window-height="1021"
     inkscape:window-x="0"
     inkscape:window-y="0"
     inkscape:window-maximized="1"
     inkscape:current-layer="svg20" />
  <g
     fill-rule="evenodd"
     id="g12">
    <path
       d="m471.95 253.05c0 120.9-98.01 218.9-218.9 218.9-120.9 0-218.9-98.01-218.9-218.9 0-120.9 98.01-218.9 218.9-218.9 120.9 0 218.9 98.01 218.9 218.9"
       fill="#a1a1a1"
       id="path2"
       style="fill:#9e9e9e;fill-opacity:1" />
    <path
       d="m256 1c-140.83 0-255 114.17-255 255s114.17 255 255 255 255-114.17 255-255-114.17-255-255-255m8.827 44.931c120.9 0 218.9 98 218.9 218.9s-98 218.9-218.9 218.9-218.93-98-218.93-218.9 98.03-218.9 218.93-218.9"
       fill-opacity=".067"
       id="path4" />
    <g
       fill-opacity=".129"
       id="g10">
      <path
         d="m256 4.433c-138.94 0-251.57 112.63-251.57 251.57s112.63 251.57 251.57 251.57 251.57-112.63 251.57-251.57-112.63-251.57-251.57-251.57m5.885 38.556c120.9 0 218.9 98 218.9 218.9s-98 218.9-218.9 218.9-218.93-98-218.93-218.9 98.03-218.9 218.93-218.9"
         id="path6" />
      <path
         d="m256 8.356c-136.77 0-247.64 110.87-247.64 247.64s110.87 247.64 247.64 247.64 247.64-110.87 247.64-247.64-110.87-247.64-247.64-247.64m2.942 31.691c120.9 0 218.9 98 218.9 218.9s-98 218.9-218.9 218.9-218.93-98-218.93-218.9 98.03-218.9 218.93-218.9"
         id="path8" />
    </g>
  </g>
  <path
     d="m 324.0525,130.74973 -97.77591,-5.25127 142.43861,172.96162 -16.66193,-5.6756 -117.33908,-144.58285 -84.9519,43.25355 -41.37441,82.07087 155.44331,211.07638 C 392.44176,462.06919 444.39427,392.27687 469.37628,302.41912"
     opacity="0.25"
     id="path14"
     sodipodi:nodetypes="ccccccccc" />
  <path
     d="m253.04 7.859c-135.42 0-245.19 109.78-245.19 245.19 0 135.42 109.78 245.19 245.19 245.19 135.42 0 245.19-109.78 245.19-245.19 0-135.42-109.78-245.19-245.19-245.19zm0 26.297c120.9 0 218.9 98 218.9 218.9s-98 218.9-218.9 218.9-218.93-98-218.93-218.9 98.03-218.9 218.93-218.9z"
     fill="#ffffff"
     fill-rule="evenodd"
     stroke="#000000"
     stroke-opacity=".31"
     stroke-width="4.904"
     id="path16" />
  <g
     id="g1604"
     transform="translate(-2.6043075,13.994583)" />
  <path
     d="m 239.48629,87.22727 a 21.377503,21.377503 0 1 0 0,42.75074 c 0,0 3.95626,-0.20521 13.27624,2.90149 9.31987,3.10659 22.22503,9.38678 35.73747,22.89943 13.51244,13.51243 19.79252,26.41674 22.89943,35.73747 3.10659,9.31987 2.90149,13.27624 2.90149,13.27624 a 21.377503,21.377503 0 1 0 42.75073,0 c 0,0 -0.2052,-12.07494 -5.11427,-26.80257 -4.90917,-14.72763 -14.66029,-33.8853 -33.2109,-52.43591 C 300.17587,107.00354 281.01713,97.252103 266.29057,92.34325 251.56294,87.434077 239.488,87.22898 239.488,87.22898 Z m -21.37537,53.43842 c 0,0 -12.07494,0.2052 -26.80257,5.11427 -14.72763,4.90917 -33.8853,14.66029 -52.43591,33.2109 -18.55061,18.55062 -28.30205,37.70936 -33.21091,52.43591 -4.90917,14.72763 -5.11427,26.80258 -5.11427,26.80258 a 21.377503,21.377503 0 1 0 42.75074,0 c 0,0 -0.20521,-3.95626 2.90149,-13.27624 3.10659,-9.31988 9.38678,-22.22504 22.89943,-35.73748 13.51243,-13.51244 26.41674,-19.79252 35.73747,-22.89943 9.31987,-3.10659 13.27624,-2.90149 13.27624,-2.90149 a 21.377503,21.377503 0 1 0 0,-42.75073 z m 160.0053,74.52201 A 21.377503,21.377503 0 0 0 357.054,236.85483 c 0,0 0.20521,3.95626 -2.90149,13.27624 -3.10659,9.31988 -9.38678,22.22504 -22.89943,35.73748 -13.51243,13.51244 -26.41674,19.79252 -35.73747,22.89943 -9.31987,3.10659 -13.27624,2.90149 -13.27624,2.90149 a 21.377503,21.377503 0 1 0 0,42.75073 c 0,0 12.07494,-0.2052 26.80257,-5.11427 14.72763,-4.90917 33.8853,-14.66029 52.43591,-33.2109 18.55061,-18.55062 28.30205,-37.70936 33.21091,-52.43591 4.90917,-14.72763 5.11427,-26.80258 5.11427,-26.80258 a 21.377503,21.377503 0 0 0 -21.68852,-21.66713 z m -213.75366,53.43841 a 21.377503,21.377503 0 0 0 -21.06221,21.66714 c 0,0 0.2052,12.07494 5.11427,26.80257 4.90917,14.72763 14.66029,33.8853 33.2109,52.43591 18.55061,18.55061 37.70935,28.30205 52.43591,33.21091 14.72763,4.90917 26.80257,5.11427 26.80257,5.11427 a 21.377503,21.377503 0 1 0 0,-42.75074 c 0,0 -3.95626,0.20521 -13.27624,-2.90149 -9.31987,-3.10659 -22.22503,-9.38678 -35.73747,-22.89943 -13.51244,-13.51243 -19.79252,-26.41674 -22.89943,-35.73747 -3.10659,-9.31987 -2.90149,-13.27624 -2.90149,-13.27624 A 21.377503,21.377503 0 0 0 164.36085,268.6244 Z"
     style="fill:#ffffff;stroke-width:10.6877;fill-opacity:1"
     id="path21" />
</svg>
