<?xml version="1.0" encoding="UTF-8"?>
<svg width="512" height="512" version="1.1" viewBox="0 0 512 512" xmlns="http://www.w3.org/2000/svg">
 <path d="m471.95 253.05c0 120.9-98.01 218.9-218.9 218.9-120.9 0-218.9-98.01-218.9-218.9 0-120.9 98.01-218.9 218.9-218.9 120.9 0 218.9 98.01 218.9 218.9" fill="#a1a1a1" fill-rule="evenodd"/>
 <path d="m369.05 166.77-11.395-13.522-22.879-19.738-77.684-69.654-77.72 69.689 11.719 27.626 28.152 29.187 1.7928 29.159-9.6886-0.83063-12.725-31.194-38.775-38.944-68.076 89.575 129.8 236.96c71.007 12.378 243.92 55.97 247.34-138.48l-32.633-100.81" opacity=".25"/>
 <path d="m164.79 243.41-38.914 38.924v4.8544l38.865 38.865v-4.8643l38.855-38.855-38.805-38.924z" fill="#813d9c" style="fill:#ffffff;stroke-width:2.4288"/>
 <path d="m307.72 290.04-77.72 77.72v-77.72l77.46-78.309z" fill="#98c1f1" style="fill:#ffffff;stroke-width:2.4288"/>
 <path d="m295.95 120.68-38.855 38.855v77.72l77.72-77.72z" fill="#2ec27e" style="fill:#ffffff;stroke-width:2.4288"/>
 <path d="m159.85 148.55-29.573 29.573-35.321 35.4a19.314 19.314 0 0 0-4.8643 12.826v4.8544a19.314 19.314 0 0 0 5.688 13.739l25.126 25.126v-4.8544l77.72-77.72-38.775-38.944z" fill="#613583" style="fill:#ffffff;stroke-width:2.4288"/>
 <path d="m257.09 63.86c-4.9668 0-9.9357 1.8998-13.739 5.7079l-63.981 63.981 38.855 38.865 77.689-77.76-25.086-25.086a19.362 19.362 0 0 0-13.739-5.7079z" fill="#f5c211" style="fill:#ffffff;stroke-width:2.4288"/>
 <path d="m261.22 422.83c4.9668-8e-3 9.9326-1.9158 13.73-5.73l63.878-64.084-38.917-38.802-77.564 77.886 25.126 25.045a19.362 19.362 0 0 0 13.748 5.6857z" fill="#f5c211" style="fill:#ffffff;stroke-width:2.4288"/>
 <path d="m369.05 166.77-0.15884 82.335 39.063 39.063 25.076-25.086a19.314 19.314 0 0 0 5.6881-13.739h0.0102v-4.8544h-0.0102a19.309 19.309 0 0 0-5.6881-13.739l-63.981-63.981z" fill="#e01b24" style="fill:#ffffff;stroke-width:2.4288"/>
 <path d="m279.94 230.97 77.72-77.72v77.72l-38.86 38.86z" fill="#ff7800" style="fill:#ffffff;stroke-width:2.4288"/>
 <path d="m257.06 133.51 38.86 38.86 38.86-38.86-38.86-38.86z" fill="#ffffff" opacity=".2" style="fill:#ffffff;opacity:1;stroke-width:2.4288"/>
 <path d="m159.85 148.55-63.991 63.981a19.314 19.314 0 0 0-1.2906 1.4295l65.282-65.409z" fill="#dc8add" style="stroke-width:2.4288"/>
 <path d="m179.37 159.53 38.86 38.86 38.86-38.86z" fill="#e5a50a" style="fill:#ffffff;stroke-width:2.4288"/>
 <path d="m302.87 300.06 38.889 38.831-0.029-77.689z" fill="#ffa348" style="fill:#ffffff;stroke-width:2.4288"/>
 <path d="m218.23 276.12 38.86-38.86-38.824-38.576z" fill="#3584e4" style="fill:#ffffff;stroke-width:2.4288"/>
 <path d="m347.01 259.44 0.03 82.543 38.825-38.825v-4.8147l-38.855-38.905z" fill="#f66151" style="fill:#ffffff;stroke-width:2.4288"/>
 <path d="m218.23 298.72-53.493 33.33v4.1727l53.493 33.33v-70.833z" fill="#c061cb" style="fill:#ffffff;stroke-width:2.6394"/>
 <path d="m242.51 243.41-38.86-38.86-38.86 38.86z" fill="#1a5fb4" style="fill:#ffffff;stroke-width:2.4288"/>
 <path d="m257.09 237.25-38.86 38.86-38.804-38.916z" fill="#3584e4" style="fill:#ffffff;stroke-width:2.4288"/>
 <g fill-rule="evenodd">
  <path d="m256 1c-140.83 0-255 114.17-255 255s114.17 255 255 255 255-114.17 255-255-114.17-255-255-255m8.827 44.931c120.9 0 218.9 98 218.9 218.9s-98 218.9-218.9 218.9-218.93-98-218.93-218.9 98.03-218.9 218.93-218.9" fill-opacity=".067"/>
  <g fill-opacity=".129">
   <path d="m256 4.433c-138.94 0-251.57 112.63-251.57 251.57s112.63 251.57 251.57 251.57 251.57-112.63 251.57-251.57-112.63-251.57-251.57-251.57m5.885 38.556c120.9 0 218.9 98 218.9 218.9s-98 218.9-218.9 218.9-218.93-98-218.93-218.9 98.03-218.9 218.93-218.9"/>
   <path d="m256 8.356c-136.77 0-247.64 110.87-247.64 247.64s110.87 247.64 247.64 247.64 247.64-110.87 247.64-247.64-110.87-247.64-247.64-247.64m2.942 31.691c120.9 0 218.9 98 218.9 218.9s-98 218.9-218.9 218.9-218.93-98-218.93-218.9 98.03-218.9 218.93-218.9"/>
  </g>
  <path d="m253.04 7.859c-135.42 0-245.19 109.78-245.19 245.19 0 135.42 109.78 245.19 245.19 245.19 135.42 0 245.19-109.78 245.19-245.19 0-135.42-109.78-245.19-245.19-245.19zm0 26.297c120.9 0 218.9 98 218.9 218.9s-98 218.9-218.9 218.9-218.93-98-218.93-218.9 98.03-218.9 218.93-218.9z" fill="#ffffff" stroke="#000000" stroke-opacity=".31" stroke-width="4.904"/>
 </g>
</svg>
