<?xml version="1.0" encoding="UTF-8"?>
<svg width="512" height="512" version="1.1" viewBox="0 0 512 512" xmlns="http://www.w3.org/2000/svg" xmlns:cc="http://creativecommons.org/ns#" xmlns:dc="http://purl.org/dc/elements/1.1/" xmlns:rdf="http://www.w3.org/1999/02/22-rdf-syntax-ns#">
 <metadata>
  <rdf:RDF>
   <cc:Work rdf:about="">
    <dc:format>image/svg+xml</dc:format>
    <dc:type rdf:resource="http://purl.org/dc/dcmitype/StillImage"/>
    <dc:title/>
   </cc:Work>
  </rdf:RDF>
 </metadata>
 <g fill-rule="evenodd">
  <path d="m471.95 253.05c0 120.9-98.01 218.9-218.9 218.9-120.9 0-218.9-98.01-218.9-218.9 0-120.9 98.01-218.9 218.9-218.9 120.9 0 218.9 98.01 218.9 218.9" fill="#a1a1a1"/>
  <path d="m256 1c-140.83 0-255 114.17-255 255s114.17 255 255 255 255-114.17 255-255-114.17-255-255-255m8.827 44.931c120.9 0 218.9 98 218.9 218.9s-98 218.9-218.9 218.9-218.93-98-218.93-218.9 98.03-218.9 218.93-218.9" fill-opacity=".067"/>
  <g fill-opacity=".129">
   <path d="m256 4.433c-138.94 0-251.57 112.63-251.57 251.57s112.63 251.57 251.57 251.57 251.57-112.63 251.57-251.57-112.63-251.57-251.57-251.57m5.885 38.556c120.9 0 218.9 98 218.9 218.9s-98 218.9-218.9 218.9-218.93-98-218.93-218.9 98.03-218.9 218.93-218.9"/>
   <path d="m256 8.356c-136.77 0-247.64 110.87-247.64 247.64s110.87 247.64 247.64 247.64 247.64-110.87 247.64-247.64-110.87-247.64-247.64-247.64m2.942 31.691c120.9 0 218.9 98 218.9 218.9s-98 218.9-218.9 218.9-218.93-98-218.93-218.9 98.03-218.9 218.93-218.9"/>
  </g>
 </g>
 <path d="m327.32 129.43-24.765-14.501-2.236 0.568 11.867 11.867-46.14-12.02h-3.336l-37.533 12.662-1.113 0.934-4.193-4.193-32.642 1.3-19.361 7.4016-23.644 19.756-22.998 36.108-12.275 29.89-11.45 41.806 66.579 118.66 121.09 91.261c88.673-25.102 193.43-80.763 186.75-250.28l-100.43-79.518" opacity=".25"/>
 <path d="m253.04 7.859c-135.42 0-245.19 109.78-245.19 245.19 0 135.42 109.78 245.19 245.19 245.19 135.42 0 245.19-109.78 245.19-245.19 0-135.42-109.78-245.19-245.19-245.19zm0 26.297c120.9 0 218.9 98 218.9 218.9s-98 218.9-218.9 218.9-218.93-98-218.93-218.9 98.03-218.9 218.93-218.9z" fill="#fff" fill-rule="evenodd" stroke="#000" stroke-opacity=".31" stroke-width="4.904"/>
 <g transform="translate(0 -10.653)" fill="#fff" stroke-width="10.589">
  <path d="m255.89 102.18a158.83 158.83 0 0 0-158.38 158.83 158.83 158.83 0 0 0 158.83 158.83 158.83 158.83 0 0 0 158.83-158.83 158.83 158.83 0 0 0-158.83-158.83 158.83 158.83 0 0 0-0.44727 0zm-62.197 24.482 26.887 57.664a84.71 84.71 0 0 0-48.953 76.686h-63.533a148.24 148.24 0 0 1 85.6-134.35zm62.645 81.406a52.944 52.944 0 0 1 52.943 52.943 52.944 52.944 0 0 1-52.943 52.943 52.944 52.944 0 0 1-52.943-52.943 52.944 52.944 0 0 1 52.943-52.943zm84.711 52.943 63.533 4e-3a148.24 148.24 0 0 1-85.6 134.36l-26.887-57.658a84.71 84.71 0 0 0 48.953-76.707z" style="paint-order:normal"/>
  <circle cx="256.34" cy="261.01" r="10.589" style="paint-order:normal"/>
 </g>
</svg>
