<svg width="512" height="512" version="1.1" viewBox="0 0 512 512" xmlns="http://www.w3.org/2000/svg">
 <g fill-rule="evenodd">
  <path d="m471.95 253.05c0 120.9-98.01 218.9-218.9 218.9-120.9 0-218.9-98.01-218.9-218.9 0-120.9 98.01-218.9 218.9-218.9 120.9 0 218.9 98.01 218.9 218.9" fill="#a1a1a1"/>
  <path d="m256 1c-140.83 0-255 114.17-255 255s114.17 255 255 255 255-114.17 255-255-114.17-255-255-255m8.827 44.931c120.9 0 218.9 98 218.9 218.9s-98 218.9-218.9 218.9-218.93-98-218.93-218.9 98.03-218.9 218.93-218.9" fill-opacity=".067"/>
  <g fill-opacity=".129">
   <path d="m256 4.433c-138.94 0-251.57 112.63-251.57 251.57s112.63 251.57 251.57 251.57 251.57-112.63 251.57-251.57-112.63-251.57-251.57-251.57m5.885 38.556c120.9 0 218.9 98 218.9 218.9s-98 218.9-218.9 218.9-218.93-98-218.93-218.9 98.03-218.9 218.93-218.9"/>
   <path d="m256 8.356c-136.77 0-247.64 110.87-247.64 247.64s110.87 247.64 247.64 247.64 247.64-110.87 247.64-247.64-110.87-247.64-247.64-247.64m2.942 31.691c120.9 0 218.9 98 218.9 218.9s-98 218.9-218.9 218.9-218.93-98-218.93-218.9 98.03-218.9 218.93-218.9"/>
  </g>
 </g>
 <path d="m257.03 180.54c-11.198 0.1-147.92-22.154-146.5 5.0059 0.286 5.357 2.6 19.545 6.559 36.545 3.958 17 9.541 37.03 16.303 54.744 6.535 17.12-24.198 50.561-16.318 58.439l187.55 130.61c113.07-2.1888 198.26-187.76 168.86-235.15l-41.361-43.53c-19.447-0.91342-64.128 0.79916-84.468 0.97616" opacity=".25"/>
 <path d="m253.04 7.859c-135.42 0-245.19 109.78-245.19 245.19 0 135.42 109.78 245.19 245.19 245.19 135.42 0 245.19-109.78 245.19-245.19 0-135.42-109.78-245.19-245.19-245.19zm0 26.297c120.9 0 218.9 98 218.9 218.9s-98 218.9-218.9 218.9-218.93-98-218.93-218.9 98.03-218.9 218.93-218.9z" fill="#ffffff" fill-rule="evenodd" stroke="#000000" stroke-opacity=".31" stroke-width="4.904"/>
 <path d="m178.64 145.36a105.22 105.22 0 0 0-105.22 105.22 105.22 105.22 0 0 0 105.22 105.22 105.22 105.22 0 0 0 71.871-28.555l167.63 1.7578c12.351 0.12964 22.346-10.677 22.488-24.227l1.0254-97.832c0.14187-13.55-9.6619-24.562-21.977-24.691l-162.65-1.7051a105.22 105.22 0 0 0-78.387-35.189zm110.15 59.984 12.229 0.12696c3.3875 0.0367 6.0864 2.7922 6.0508 6.1797l-0.12891 12.229c-0.0367 3.3875-2.7902 6.0864-6.1777 6.0508l-12.229-0.1289c-3.3875-0.0367-6.0862-2.7902-6.0508-6.1777l0.12695-12.23c0.0367-3.3875 2.7922-6.0843 6.1797-6.0488zm36.688 0.38282 12.229 0.1289c3.3874 0.0367 6.0863 2.7922 6.0508 6.1797l-0.12891 12.229c-0.0367 3.3875-2.7903 6.0864-6.1777 6.0508l-12.23-0.12891c-3.3874-0.0367-6.0843-2.7902-6.0488-6.1777l0.12695-12.23c0.0367-3.3875 2.7923-6.0862 6.1797-6.0508zm36.688 0.38476 12.229 0.12891c3.3875 0.0367 6.0864 2.7903 6.0508 6.1777l-0.12891 12.23c-0.0367 3.3874-2.7902 6.0862-6.1777 6.0508l-12.229-0.1289c-3.3875-0.0367-6.0862-2.7923-6.0508-6.1797l0.12695-12.229c0.0367-3.3874 2.7922-6.0862 6.1797-6.0508zm36.688 0.38477 12.23 0.1289c3.3874 0.0367 6.0843 2.7903 6.0488 6.1777l-0.38282 36.688-0.1289 12.23c-0.0367 3.3875-2.7923 6.0843-6.1797 6.0488l-12.229-0.12695-24.459-0.25781c-3.3874-0.0367-6.0843-2.7902-6.0488-6.1777l0.12695-12.23c0.0367-3.3875 2.7923-6.0844 6.1797-6.0488l18.344 0.1914 0.32031-30.572c0.0367-3.3874 2.7903-6.0862 6.1777-6.0508zm-98.219 35.662 12.23 0.1289c3.3874 0.0367 6.0862 2.7903 6.0508 6.1777l-0.12891 12.23c-0.0367 3.3874-2.7923 6.0862-6.1797 6.0508l-12.229-0.12891c-3.3874-0.0367-6.0862-2.7923-6.0508-6.1797l0.1289-12.229c0.0367-3.3874 2.7903-6.0862 6.1777-6.0508zm36.688 0.38476 12.23 0.12891c3.3875 0.0367 6.0844 2.7903 6.0488 6.1777l-0.12696 12.23c-0.0367 3.3874-2.7922 6.0843-6.1797 6.0488l-12.229-0.12695c-3.3875-0.0367-6.0862-2.7923-6.0508-6.1797l0.1289-12.229c0.0367-3.3874 2.7902-6.0862 6.1777-6.0508zm-55.094 36.113 91.396 0.95899c3.3875 0.0367 6.0862 2.7903 6.0508 6.1777l-0.1289 12.23c-0.0367 3.3874-2.7902 6.0862-6.1777 6.0508l-91.141-0.95508v-24.463zm115.86 1.2148 12.229 0.1289c3.3874 0.0367 6.0864 2.7903 6.0508 6.1777l-0.12695 12.23c-0.0367 3.3874-2.7923 6.0843-6.1797 6.0488l-12.229-0.12695c-3.3874-0.0367-6.0862-2.7923-6.0508-6.1797l0.1289-12.229c0.0367-3.3874 2.7903-6.0862 6.1777-6.0508z" fill="#ffffff" stroke-width="12.23"/>
</svg>
