<?xml version="1.0" encoding="UTF-8"?>
<svg width="512" height="512" version="1.1" viewBox="0 0 512 512" xmlns="http://www.w3.org/2000/svg" xmlns:cc="http://creativecommons.org/ns#" xmlns:dc="http://purl.org/dc/elements/1.1/" xmlns:rdf="http://www.w3.org/1999/02/22-rdf-syntax-ns#">
 <metadata>
  <rdf:RDF>
   <cc:Work rdf:about="">
    <dc:format>image/svg+xml</dc:format>
    <dc:type rdf:resource="http://purl.org/dc/dcmitype/StillImage"/>
   </cc:Work>
  </rdf:RDF>
 </metadata>
 <g fill-rule="evenodd">
  <path d="m471.95 253.05c0 120.9-98.01 218.9-218.9 218.9-120.9 0-218.9-98.01-218.9-218.9 0-120.9 98.01-218.9 218.9-218.9 120.9 0 218.9 98.01 218.9 218.9" fill="#168ecc" style="fill:#a1a1a1"/>
  <path d="m256 1c-140.83 0-255 114.17-255 255s114.17 255 255 255 255-114.17 255-255-114.17-255-255-255m8.827 44.931c120.9 0 218.9 98 218.9 218.9s-98 218.9-218.9 218.9-218.93-98-218.93-218.9 98.03-218.9 218.93-218.9" fill-opacity=".067"/>
  <g fill-opacity=".129">
   <path d="m256 4.433c-138.94 0-251.57 112.63-251.57 251.57s112.63 251.57 251.57 251.57 251.57-112.63 251.57-251.57-112.63-251.57-251.57-251.57m5.885 38.556c120.9 0 218.9 98 218.9 218.9s-98 218.9-218.9 218.9-218.93-98-218.93-218.9 98.03-218.9 218.93-218.9"/>
   <path d="m256 8.356c-136.77 0-247.64 110.87-247.64 247.64s110.87 247.64 247.64 247.64 247.64-110.87 247.64-247.64-110.87-247.64-247.64-247.64m2.942 31.691c120.9 0 218.9 98 218.9 218.9s-98 218.9-218.9 218.9-218.93-98-218.93-218.9 98.03-218.9 218.93-218.9"/>
  </g>
 </g>
 <path d="m304.39 118.06-24.573-0.9157 32.369 10.223c-78.94-27.464-142.63 27.311-176.29 71.964l-8.075 38.977-2.7285 68.854 56.133 71.108 123.4 87.62c55.436-15.603 108-36.38 136.46-100.5 28.408-38.334 31.063-75.821 33.83-126.29" opacity=".25"/>
 <g fill="#ffffff">
  <path d="m253.04 7.859c-135.42 0-245.19 109.78-245.19 245.19 0 135.42 109.78 245.19 245.19 245.19 135.42 0 245.19-109.78 245.19-245.19 0-135.42-109.78-245.19-245.19-245.19zm0 26.297c120.9 0 218.9 98 218.9 218.9s-98 218.9-218.9 218.9-218.93-98-218.93-218.9 98.03-218.9 218.93-218.9z" fill-rule="evenodd" stroke="#000000" stroke-opacity=".31" stroke-width="4.904"/>
  <path d="m266.58 107.95a74.296 74.296 0 0 0-2.9629 0.06055c-80.643 1.5962-145.6 67.53-145.6 148.55 0 81.028 64.966 146.97 145.62 148.55a74.296 74.296 0 0 1-71.318-74.258 74.296 74.296 0 0 1 72.564-74.297 74.296 74.296 0 0 0 76.027-74.297 74.296 74.296 0 0 0-74.326-74.316zm-0.1543 55.744a18.574 18.574 0 0 1 18.758 18.572 18.574 18.574 0 0 1-37.148 0 18.574 18.574 0 0 1 18.391-18.572z" stroke-width=".41276"/>
  <path d="m285.18 330.86a18.574 18.574 0 1 1-37.148 0 18.574 18.574 0 1 1 37.148 0z" stroke-width=".41276"/>
 </g>
</svg>
