<svg width="512" height="512" version="1.1" viewBox="0 0 512 512" xmlns="http://www.w3.org/2000/svg">
 <g fill-rule="evenodd">
  <path d="m471.95 253.05c0 120.9-98.01 218.9-218.9 218.9-120.9 0-218.9-98.01-218.9-218.9 0-120.9 98.01-218.9 218.9-218.9 120.9 0 218.9 98.01 218.9 218.9" fill="#d52f61"/>
  <path d="m256 1c-140.83 0-255 114.17-255 255s114.17 255 255 255 255-114.17 255-255-114.17-255-255-255m8.827 44.931c120.9 0 218.9 98 218.9 218.9s-98 218.9-218.9 218.9-218.93-98-218.93-218.9 98.03-218.9 218.93-218.9" fill-opacity=".067"/>
  <g fill-opacity=".129">
   <path d="m256 4.433c-138.94 0-251.57 112.63-251.57 251.57s112.63 251.57 251.57 251.57 251.57-112.63 251.57-251.57-112.63-251.57-251.57-251.57m5.885 38.556c120.9 0 218.9 98 218.9 218.9s-98 218.9-218.9 218.9-218.93-98-218.93-218.9 98.03-218.9 218.93-218.9"/>
   <path d="m256 8.356c-136.77 0-247.64 110.87-247.64 247.64s110.87 247.64 247.64 247.64 247.64-110.87 247.64-247.64-110.87-247.64-247.64-247.64m2.942 31.691c120.9 0 218.9 98 218.9 218.9s-98 218.9-218.9 218.9-218.93-98-218.93-218.9 98.03-218.9 218.93-218.9"/>
  </g>
 </g>
 <path d="m225.18 128-1.113 0.934-9.5622-15.698-51.916-1.2666 39.518 22.499-38.859 37.521-15.13 26.597-18.82 54.665 23.273 16.681-7.4898 115.43 159.54 82.823c131.48-41.775 201.9-97.915 170.21-253.91l-169.98-103.95" opacity=".25"/>
 <g transform="matrix(2.803 0 0 2.803 35.435 65.385)" fill="#ffffff" fill-rule="evenodd">
  <path d="m39.117 114.16s19.878-69.559 97.257-60.714c0 0-49.177-29.193-96.918 10.163-14.099 32.659-0.33914 50.551-0.33914 50.551z"/>
  <path d="m45.035 105.36s20.742-50.007 76.107-50.886c-42.086 10.253 0.069 46.601 0.069 46.601s-33.291 30.164-76.176 4.2846z"/>
  <path d="m71.914 10.768c-7.7232 0.05414-16.552 1.715-26.551 5.8535 14.062 1.0949 20.095 3.0642 20.438 4.5566-24.318-4.1793-31.527 30.429-32.314 45.848 0 0 41.429-45.571 103.29-14.086-1.1048-8.5617-8.4241-18.228-21.543-20.99-2.2656-1.0788-15.741-21.375-43.324-21.182zm24.414 16.994c3.2266-0.11987 7.69 1.0437 8.5527 8.0996-10.451 0.98602-11.979-7.4941-11.979-7.4941s1.4898-0.53354 3.4258-0.60547z"/>
 </g>
 <path d="m253.04 7.859c-135.42 0-245.19 109.78-245.19 245.19 0 135.42 109.78 245.19 245.19 245.19 135.42 0 245.19-109.78 245.19-245.19 0-135.42-109.78-245.19-245.19-245.19zm0 26.297c120.9 0 218.9 98 218.9 218.9s-98 218.9-218.9 218.9-218.93-98-218.93-218.9 98.03-218.9 218.93-218.9z" fill="#ffffff" fill-rule="evenodd" stroke="#000000" stroke-opacity=".31" stroke-width="4.904"/>
</svg>
