<?xml version="1.0" encoding="UTF-8"?>
<svg width="512" height="512" version="1.1" viewBox="0 0 512 512" xmlns="http://www.w3.org/2000/svg">
 <g fill-rule="evenodd">
  <path d="m471.95 253.05c0 120.9-98.01 218.9-218.9 218.9-120.9 0-218.9-98.01-218.9-218.9 0-120.9 98.01-218.9 218.9-218.9 120.9 0 218.9 98.01 218.9 218.9" fill="#d52f61"/>
  <path d="m256 1c-140.83 0-255 114.17-255 255s114.17 255 255 255 255-114.17 255-255-114.17-255-255-255m8.827 44.931c120.9 0 218.9 98 218.9 218.9s-98 218.9-218.9 218.9-218.93-98-218.93-218.9 98.03-218.9 218.93-218.9" fill-opacity=".067"/>
  <g fill-opacity=".129">
   <path d="m256 4.433c-138.94 0-251.57 112.63-251.57 251.57s112.63 251.57 251.57 251.57 251.57-112.63 251.57-251.57-112.63-251.57-251.57-251.57m5.885 38.556c120.9 0 218.9 98 218.9 218.9s-98 218.9-218.9 218.9-218.93-98-218.93-218.9 98.03-218.9 218.93-218.9"/>
   <path d="m256 8.356c-136.77 0-247.64 110.87-247.64 247.64s110.87 247.64 247.64 247.64 247.64-110.87 247.64-247.64-110.87-247.64-247.64-247.64m2.942 31.691c120.9 0 218.9 98 218.9 218.9s-98 218.9-218.9 218.9-218.93-98-218.93-218.9 98.03-218.9 218.93-218.9"/>
  </g>
 </g>
 <path d="m296.18 96.598 4.142 18.898-37.225 9.4526 58.481 76.163-49.487-38.542-38.019-61.292-10.005 27.662-4.193-4.193-22.59 2.6528 32.564 45.394-28.323 4.4274-26.627 32.547-31.715 19.328-9.7882 47.745 14.625 75.328 101.25 129.79c71.112-29.475 193.94 15.014 212.78-163.48" opacity=".25"/>
 <path d="m216.35 92.923a22.365 22.365 0 0 0-22.365 22.365 22.365 22.365 0 0 0 22.365 22.365 22.365 22.365 0 0 0 22.365-22.365 22.365 22.365 0 0 0-22.365-22.365zm67.095 0a22.365 22.365 0 0 0-22.365 22.365 22.365 22.365 0 0 0 22.365 22.365 22.365 22.365 0 0 0 22.365-22.365 22.365 22.365 0 0 0-22.365-22.365zm-33.548 67.095a123.01 123.01 0 0 0-123.01 123.01 123.01 123.01 0 0 0 123.01 123.01 123.01 123.01 0 0 0 123.01-123.01 123.01 123.01 0 0 0-123.01-123.01zm0 44.73a78.278 78.278 0 0 1 78.278 78.278 78.278 78.278 0 0 1-78.278 78.278 78.278 78.278 0 0 1-78.278-78.278 78.278 78.278 0 0 1 78.278-78.278z" style="fill:#ffffff"/>
 <path d="m253.04 7.859c-135.42 0-245.19 109.78-245.19 245.19 0 135.42 109.78 245.19 245.19 245.19 135.42 0 245.19-109.78 245.19-245.19 0-135.42-109.78-245.19-245.19-245.19zm0 26.297c120.9 0 218.9 98 218.9 218.9s-98 218.9-218.9 218.9-218.93-98-218.93-218.9 98.03-218.9 218.93-218.9z" fill="#ffffff" fill-rule="evenodd" stroke="#000000" stroke-opacity=".31" stroke-width="4.904"/>
</svg>
