<?xml version="1.0" encoding="UTF-8"?>
<svg width="512" height="512" version="1.1" viewBox="0 0 512 512" xmlns="http://www.w3.org/2000/svg">
 <g fill-rule="evenodd">
  <path d="m471.95 253.05c0 120.9-98.01 218.9-218.9 218.9-120.9 0-218.9-98.01-218.9-218.9 0-120.9 98.01-218.9 218.9-218.9 120.9 0 218.9 98.01 218.9 218.9" fill="#d52f61"/>
  <path d="m256 1c-140.83 0-255 114.17-255 255s114.17 255 255 255 255-114.17 255-255-114.17-255-255-255m8.827 44.931c120.9 0 218.9 98 218.9 218.9s-98 218.9-218.9 218.9-218.93-98-218.93-218.9 98.03-218.9 218.93-218.9" fill-opacity=".067"/>
  <g fill-opacity=".129">
   <path d="m256 4.433c-138.94 0-251.57 112.63-251.57 251.57s112.63 251.57 251.57 251.57 251.57-112.63 251.57-251.57-112.63-251.57-251.57-251.57m5.885 38.556c120.9 0 218.9 98 218.9 218.9s-98 218.9-218.9 218.9-218.93-98-218.93-218.9 98.03-218.9 218.93-218.9"/>
   <path d="m256 8.356c-136.77 0-247.64 110.87-247.64 247.64s110.87 247.64 247.64 247.64 247.64-110.87 247.64-247.64-110.87-247.64-247.64-247.64m2.942 31.691c120.9 0 218.9 98 218.9 218.9s-98 218.9-218.9 218.9-218.93-98-218.93-218.9 98.03-218.9 218.93-218.9"/>
  </g>
 </g>
 <path d="m332.6 464.13c81.426-44.204 136.44-113.91 139.48-197.51l-107.94-92.176-19.462 3.3751-66.458-54.972-46.438 49.865-48.668 59.03-32.246 81.502" color="#000000" fill="#000000" opacity=".25" style="-inkscape-stroke:none"/>
 <g fill="#ffffff">
  <path d="m253.04 7.859c-135.42 0-245.19 109.78-245.19 245.19 0 135.42 109.78 245.19 245.19 245.19 135.42 0 245.19-109.78 245.19-245.19 0-135.42-109.78-245.19-245.19-245.19zm0 26.297c120.9 0 218.9 98 218.9 218.9s-98 218.9-218.9 218.9-218.93-98-218.93-218.9 98.03-218.9 218.93-218.9z" fill-rule="evenodd" stroke="#000000" stroke-opacity=".31" stroke-width="4.904"/>
 </g>
 <g transform="matrix(10.687 0 0 10.687 .9608 -11.439)" fill="#ffffff">
  <g fill="#ffffff">
   <g fill="#ffffff">
    <path d="m23.355 12.11c-1.918 0.645-0.234 3.625-2.984 5.082-3.133 1.672-4.691-2.543-6.574 0.465-1.879 3.01 2.594 2.543 2.473 6.086-0.125 3.543-4.563 2.789-2.898 5.914 1.668 3.121 3.516-0.98 6.523 0.895 3.01 1.867 0.129 5.332 3.68 5.449 3.543 0.109 0.914-3.523 4.055-5.191 3.129-1.668 4.691 2.543 6.57-0.465 1.883-3.01-2.594-2.543-2.473-6.078 0.129-3.543 4.563-2.789 2.898-5.918-1.664-3.121-3.516 0.977-6.523-0.891-3.01-1.875-0.129-5.336-3.676-5.449-0.445-0.016-0.801 0.012-1.07 0.102m0.031 9.02c1.586-0.348 3.137 0.672 3.477 2.27 0.336 1.586-0.676 3.152-2.254 3.484-1.59 0.34-3.141-0.672-3.477-2.273-0.336-1.59 0.672-3.145 2.254-3.48" fill="#ffffff"/>
   </g>
  </g>
 </g>
</svg>
