<svg height="512" viewBox="0 0 512 512" width="512" xmlns="http://www.w3.org/2000/svg">
 <path d="m471.95 253.05c0 120.9-98.01 218.9-218.9 218.9-120.9 0-218.9-98.01-218.9-218.9 0-120.9 98.01-218.9 218.9-218.9 120.9 0 218.9 98.01 218.9 218.9" fill="#4a789c" fill-rule="evenodd"/>
 <text x="729.64" y="231.36">
  
 </text>
 <text x="1310.91" y="151.36">
  
 </text>
 <text x="239.33" y="-29.9">
  
 </text>
 <text x="1337.38" y="-246.37">
  
 </text>
 <text x="1918.65" y="-326.38">
  
 </text>
 <text x="1529.53" y="-798.78">
  
 </text>
 <text x="2110.79" y="-878.78">
  
 </text>
 <text x="277.99" y="535.94">
  
 </text>
 <g fill="#658db6" transform="matrix(2.85032 0 0 2.85032 591.84 -2816.55)">
  <path d="m-118.49 1021.8c-4.584.021-8.961.412-12.812 1.094-11.346 2-13.406 6.2-13.406 13.938v10.219h26.812v3.406h-26.812-10.06c-7.792 0-14.616 4.684-16.75 13.594-2.462 10.213-2.571 16.586 0 27.25 1.906 7.938 6.458 13.594 14.25 13.594h7.902v-13.567c0-8.85 7.657-16.656 16.75-16.656h28.1c7.455 0 14.504-6.138 14.504-13.625v-24.21c0-7.266-7.228-12.725-14.504-13.938-4.606-.767-9.385-1.115-13.969-1.094zm-14.5 8.219c2.769 0 5.03 2.299 5.03 5.125 0 2.816-2.262 5.094-5.03 5.094-2.78 0-5.03-2.277-5.03-5.094 0-2.826 2.252-5.125 5.03-5.125"/>
  <path d="m-86.23 1050.4v11.906c0 9.231-7.826 15.902-16.75 15.902h-29.415c-7.336 0-13.406 7.376-13.406 14.722v25.531c0 7.266 6.319 11.54 13.406 13.625 8.487 2.496 17.724 2.947 27.879 0 6.75-1.954 13.406-5.888 13.406-13.625v-10.219h-26.781v-3.406h26.781 13.406c7.793 0 10.696-5.435 13.406-13.594 2.799-8.399 2.68-16.476 0-27.25-1.926-7.757-5.604-13.594-13.406-13.594zm-16.599 64.66c2.779 0 5.03 2.277 5.03 5.094 0 2.826-2.252 5.125-5.03 5.125-2.77 0-5.03-2.299-5.03-5.125 0-2.816 2.262-5.094 5.03-5.094"/>
 </g>
 <path d="m254.1 95.91c-13.07.06-25.518 1.16-36.495 3.102-32.34 5.713-38.22 17.688-38.22 39.744v29.12h76.41v9.716h-76.41-28.681c-22.21 0-41.651 13.351-47.733 38.749-7.02 29.11-7.328 47.28 0 77.67 5.432 22.625 18.41 38.748 40.622 38.748h22.506v-38.69c0-25.23 21.816-47.47 47.733-47.47h80.1c21.249 0 41.35-17.496 41.35-38.836v-69.01c0-20.711-20.613-36.26-41.35-39.714-13.13-2.185-26.766-3.192-39.831-3.131m-41.32 23.413c7.894 0 14.34 6.548 14.34 14.604 0 8.03-6.446 14.545-14.34 14.545-7.922 0-14.34-6.518-14.34-14.545 0-8.06 6.418-14.604 14.34-14.604m133.28 58.09v33.949c0 26.31-22.297 45.33-47.733 45.33h-83.85c-20.909 0-38.22 21-38.22 41.939v72.79c0 20.712 18.02 32.893 38.22 38.836 24.19 7.113 50.51 8.399 79.46 0 19.24-5.571 38.22-16.782 38.22-38.836v-29.12h-76.36v-9.716h76.36 38.19c22.21 0 30.497-15.494 38.22-38.748 7.979-23.94 7.639-46.963 0-77.67-5.489-22.11-15.983-38.749-38.22-38.749h-24.291m-47.32 184.29c7.922 0 14.34 6.489 14.34 14.516 0 8.06-6.418 14.633-14.34 14.633-7.894 0-14.34-6.577-14.34-14.633 0-8.03 6.446-14.516 14.34-14.516" fill="#ffffff"/>
<circle cx="256" stroke="#fefefe" cy="256" r="181.13" stroke-width="18.771" fill="none" /></svg>
