<?xml version="1.0" encoding="UTF-8" standalone="no"?>
<svg xmlns="http://www.w3.org/2000/svg" width="22" height="22" version="1.1">
 <g transform="translate(-326,-534.3622)">
  <g transform="translate(-1,1.0000003)">
   <g transform="matrix(0.8,0,0,0.8,17.542856,118.92379)">
    <g transform="translate(27.682101,0.12839698)">
     <g transform="matrix(0.97603016,0,0,-0.97603016,8.9380976,1042.0695)">
      <g transform="translate(0,2.1929912e-5)">
       <g transform="matrix(0.4355426,0,0,-0.4355426,149.60401,752.16898)">
        <g transform="translate(547.69352,-328.43725)">
         <g transform="matrix(0.12613922,0,0,0.12613922,-162.53176,751.54587)">
          <g transform="translate(673.22783,402.74069)">
           <g transform="matrix(35.175854,0,0,35.175854,56.182667,-36312.669)" style="fill:#4d4d4d;fill-opacity:1">
            <g style="fill:#4d4d4d;fill-opacity:1;" transform="matrix(0.90537551,0,0,0.90537551,-365.91682,562.06022)">
             <g style="fill:#4d4d4d;fill-opacity:1;" transform="matrix(0.05349368,0,0,0.05349368,440.48894,510.84577)">
              <g style="fill:#4d4d4d;fill-opacity:1;" transform="matrix(2.6108213,0,0,2.6108213,-768.22476,390.2786)">
               <path style="fill:#4d4d4d;fill-opacity:1;" d="M 0.79101562 3.0019531 C 0.57960501 3.0019531 0.41015625 3.1714019 0.41015625 3.3828125 L 0.41015625 18.955078 L 21.589844 19 L 21.589844 5.6367188 C 21.589844 5.4253081 21.418442 5.2539063 21.207031 5.2539062 L 9.7265625 5.2539062 C 9.3376046 5.2883045 9.2879074 5.2370253 9.0957031 4.9804688 C 8.8231388 4.6156946 8.4109099 3.6331659 8.1425781 3.2773438 C 7.9272003 2.9658117 7.8923532 3.0019531 7.5351562 3.0019531 L 0.79101562 3.0019531 z M 10.259766 9.0605469 L 11.742188 9.0605469 C 11.74006 9.7712667 11.742188 11.642578 11.742188 11.642578 L 14.146484 11.642578 L 14.146484 13.125 L 11.742188 13.125 C 11.742188 13.125 11.741323 14.993145 11.740234 15.707031 L 10.257812 15.707031 C 10.258901 14.993145 10.259766 13.125 10.259766 13.125 C 10.259766 13.125 8.6495693 13.123912 7.8535156 13.125 L 7.8535156 11.644531 C 8.6495693 11.642404 10.259766 11.642578 10.259766 11.642578 C 10.259766 11.642578 10.258677 9.7712172 10.259766 9.0605469 z" transform="matrix(5.2409858,0,0,5.2409858,39.736038,-52.428275)"/>
              </g>
             </g>
            </g>
           </g>
          </g>
         </g>
        </g>
       </g>
      </g>
     </g>
    </g>
   </g>
  </g>
 </g>
</svg>
