<?xml version="1.0" encoding="UTF-8" standalone="no"?>
<svg xmlns="http://www.w3.org/2000/svg" width="22" height="22" version="1.1">
 <g transform="translate(-544.57141,-742.93359)">
  <rect style="fill:#4d4d4d;fill-opacity:1;" width="0" height="11" x="507.1" y="747.55"/>
  <rect style="fill:#4d4d4d;fill-opacity:1;" width="0" height="11" x="525.14" y="745.5"/>
  <rect style="fill:#4d4d4d;fill-opacity:1;" width="0" height="11" x="507.1" y="747.55"/>
  <rect style="fill:#4d4d4d;fill-opacity:1;" width="0" height="11" x="507.1" y="747.55"/>
  <rect style="fill:#4d4d4d;fill-opacity:1;" width="0" height="11" x="499.8" y="742.72"/>
  <rect style="fill:#4d4d4d;fill-opacity:1;" width="0" height="11" x="517.84" y="740.67"/>
  <rect style="fill:#4d4d4d;fill-opacity:1;" width="0" height="11" x="499.8" y="742.72"/>
  <rect style="fill:#4d4d4d;fill-opacity:1;" width="0" height="11" x="499.8" y="742.72"/>
  <rect style="fill:#4d4d4d;fill-opacity:1;" width="0" height="11" x="505.81" y="746.94"/>
  <rect style="fill:#4d4d4d;fill-opacity:1;" width="0" height="11" x="523.85" y="744.88"/>
  <rect style="fill:#4d4d4d;fill-opacity:1;" width="0" height="11" x="505.81" y="746.94"/>
  <rect style="fill:#4d4d4d;fill-opacity:1;" width="0" height="11" x="505.81" y="746.94"/>
  <rect y="747.55" x="507.1" height="11" width="0" style="fill:#4d4d4d;fill-opacity:1;"/>
  <rect y="745.5" x="525.14" height="11" width="0" style="fill:#4d4d4d;fill-opacity:1;"/>
  <rect y="747.55" x="507.1" height="11" width="0" style="fill:#4d4d4d;fill-opacity:1;"/>
  <rect y="747.55" x="507.1" height="11" width="0" style="fill:#4d4d4d;fill-opacity:1;"/>
  <rect y="742.72" x="499.8" height="11" width="0" style="fill:#4d4d4d;fill-opacity:1;"/>
  <rect y="740.67" x="517.84" height="11" width="0" style="fill:#4d4d4d;fill-opacity:1;"/>
  <rect y="742.72" x="499.8" height="11" width="0" style="fill:#4d4d4d;fill-opacity:1;"/>
  <rect y="742.72" x="499.8" height="11" width="0" style="fill:#4d4d4d;fill-opacity:1;"/>
  <rect y="746.94" x="505.81" height="11" width="0" style="fill:#4d4d4d;fill-opacity:1;"/>
  <rect y="744.88" x="523.85" height="11" width="0" style="fill:#4d4d4d;fill-opacity:1;"/>
  <rect y="746.94" x="505.81" height="11" width="0" style="fill:#4d4d4d;fill-opacity:1;"/>
  <rect y="746.94" x="505.81" height="11" width="0" style="fill:#4d4d4d;fill-opacity:1;"/>
  <rect y="750.93" x="504.57" height="11" width="0" style="fill:#4d4d4d;fill-opacity:1;"/>
  <rect y="748.88" x="522.61" height="11" width="0" style="fill:#4d4d4d;fill-opacity:1;"/>
  <rect y="750.93" x="504.57" height="11" width="0" style="fill:#4d4d4d;fill-opacity:1;"/>
  <rect y="750.93" x="504.57" height="11" width="0" style="fill:#4d4d4d;fill-opacity:1;"/>
  <rect y="747.3" x="488.58" height="11" width="0" style="fill:#4d4d4d;fill-opacity:1;"/>
  <rect y="745.25" x="506.62" height="11" width="0" style="fill:#4d4d4d;fill-opacity:1;"/>
  <rect y="747.3" x="488.58" height="11" width="0" style="fill:#4d4d4d;fill-opacity:1;"/>
  <rect y="747.3" x="488.58" height="11" width="0" style="fill:#4d4d4d;fill-opacity:1;"/>
  <rect style="fill:#4d4d4d;fill-opacity:1;" width="0" height="11" x="507.1" y="747.55"/>
  <rect style="fill:#4d4d4d;fill-opacity:1;" width="0" height="11" x="525.14" y="745.5"/>
  <rect style="fill:#4d4d4d;fill-opacity:1;" width="0" height="11" x="507.1" y="747.55"/>
  <rect style="fill:#4d4d4d;fill-opacity:1;" width="0" height="11" x="507.1" y="747.55"/>
  <rect style="fill:#4d4d4d;fill-opacity:1;" width="0" height="11" x="499.8" y="742.72"/>
  <rect style="fill:#4d4d4d;fill-opacity:1;" width="0" height="11" x="517.84" y="740.67"/>
  <rect style="fill:#4d4d4d;fill-opacity:1;" width="0" height="11" x="499.8" y="742.72"/>
  <rect style="fill:#4d4d4d;fill-opacity:1;" width="0" height="11" x="499.8" y="742.72"/>
  <rect style="fill:#4d4d4d;fill-opacity:1;" width="0" height="11" x="505.81" y="746.94"/>
  <rect style="fill:#4d4d4d;fill-opacity:1;" width="0" height="11" x="523.85" y="744.88"/>
  <rect style="fill:#4d4d4d;fill-opacity:1;" width="0" height="11" x="505.81" y="746.94"/>
  <rect style="fill:#4d4d4d;fill-opacity:1;" width="0" height="11" x="505.81" y="746.94"/>
  <g transform="matrix(0.88529883,0,0,0.88529883,61.70656,87.394677)">
   <g transform="translate(544.57141,-287.42861)">
    <g transform="matrix(0.66666662,0,0,0.66666662,-256.0476,686.83022)">
     <path style="opacity:1;fill:#4d4d4d;fill-opacity:1;" d="m 400.07812,520.08271 -6.58932,11.49175 c -1.38467,2.42951 -1.49162,5.51872 0,8.12008 2.2423,3.91055 7.23019,5.26297 11.14076,3.02064 3.91056,-2.24229 5.26298,-7.23015 3.02065,-11.14075 l -6.58931,-11.49172 c -0.21767,-0.37961 -0.76514,-0.37961 -0.98278,0 z"/>
    </g>
   </g>
   <g transform="matrix(0.60006052,0,0,0.60006052,322.20429,427.56989)">
    <g transform="translate(27.682101,0.12839698)">
     <g transform="matrix(0.97603016,0,0,-0.97603016,8.9380976,1042.0695)">
      <g transform="translate(0,2.1929912e-5)">
       <g transform="matrix(0.08181857,0,0,-0.08181857,367.73479,527.78219)" style="fill:#4d4d4d;fill-opacity:1;">
        <path d="M 123.777,73.993 112.535,62.994 123.777,51.995 c 1.63,-1.521 2.173,-3.422 1.63,-5.703 -0.651,-2.227 -2.063,-3.612 -4.237,-4.155 l -15.316,-3.911 4.318,-15.154 c 0.651,-2.226 0.137,-4.128 -1.549,-5.703 -1.574,-1.684 -3.475,-2.2 -5.703,-1.548 L 87.768,20.139 83.856,4.822 C 83.313,2.595 81.93,1.21 79.703,0.667 77.475,0.069 75.574,0.586 74,2.215 L 63,13.54 52.001,2.215 C 50.426,0.531 48.525,0.015 46.298,0.667 44.071,1.21 42.686,2.595 42.143,4.822 L 38.232,20.139 23.078,15.821 c -2.227,-0.652 -4.128,-0.136 -5.703,1.548 -1.684,1.575 -2.2,3.476 -1.548,5.703 l 4.318,15.154 -15.317,3.911 c -2.172,0.543 -3.585,1.928 -4.236,4.155 -0.544,2.281 0,4.182 1.629,5.703 L 13.464,62.994 2.221,73.993 c -1.629,1.521 -2.172,3.422 -1.629,5.703 0.651,2.227 2.064,3.612 4.236,4.155 l 15.317,3.91 -4.318,15.154 c -0.652,2.227 -0.136,4.127 1.548,5.703 1.575,1.684 3.476,2.199 5.703,1.548 l 15.154,-4.317 3.911,15.316 c 0.543,2.227 1.928,3.639 4.155,4.236 2.281,0.543 4.182,0 5.703,-1.629 L 63,112.529 74,123.773 c 1.086,1.193 2.471,1.791 4.154,1.791 0.381,0 0.896,-0.055 1.549,-0.162 2.227,-0.652 3.611,-2.064 4.154,-4.236 l 3.91,-15.316 15.153,4.317 c 2.228,0.651 4.129,0.136 5.703,-1.548 1.685,-1.576 2.2,-3.477 1.549,-5.703 l -4.317,-15.154 15.315,-3.91 c 2.175,-0.543 3.586,-1.928 4.237,-4.155 0.544,-2.282 0.001,-4.183 -1.63,-5.704 l 0,0 z" style="fill:#4d4d4d;fill-opacity:1;"/>
       </g>
      </g>
     </g>
    </g>
   </g>
  </g>
 </g>
</svg>
