<?xml version="1.0" encoding="UTF-8" standalone="no"?>
<svg xmlns="http://www.w3.org/2000/svg" width="22" height="22" version="1.1">
 <g transform="translate(-326,-534.3622)">
  <g transform="translate(-0.99999975,1.0000003)">
   <g style="fill:#4d4d4d;fill-opacity:1" transform="matrix(0.0282076,0,0,0.0282076,330,536.3622)">
    <path style="fill:#4d4d4d;fill-opacity:1" d="m 464.986,141.272 c 0,0 8.996,9.052 15.346,0.017 l 12.101,-17.349 c 4.225,-6.103 -1.231,-10.327 -1.796,-10.744 l -73.412,-51.292 -0.017,0 c -4.52,-3.145 -7.521,-1.236 -9.1,0.533 l -1.311,1.891 -11.181,16.009 c -0.053,0.061 -6.315,9.937 3.695,15.159 l 0,0.013 c 14.295,7.035 40.526,21.868 65.657,45.814 l 0.018,-0.051 0,0 z"/>
    <path style="fill:#4d4d4d;fill-opacity:1" d="M 341.453,0 225.762,0 c -8.978,0 -16.334,7.213 -16.334,16.338 l 0,13.484 c 0,9.112 7.356,16.468 16.334,16.468 l 5.725,0 0,9.521 c 0.009,13.688 8.648,14.825 12.985,14.534 0.737,-0.109 1.501,-0.226 2.308,-0.33 0.009,0 0.122,-0.026 0.122,-0.026 l -0.009,0 c 15.397,-2.108 40.9,-4.125 70.151,-0.403 l 0.017,-0.026 c 0,0 18.737,3.474 18.686,-13.758 l 0,-9.52 5.725,0 c 8.987,0 16.325,-7.348 16.325,-16.473 l 0,-13.471 C 357.796,7.221 350.44,0 341.453,0 l 0,0 z"/>
    <path style="fill:#4d4d4d;fill-opacity:1" d="M 11 5.5625 C 7.2895723 5.5625 4.28125 8.5704838 4.28125 12.28125 C 4.28125 15.991085 7.2895441 19 11 19 C 14.710399 19 17.71875 15.991057 17.71875 12.28125 C 17.71875 8.5704838 14.710399 5.5625 11 5.5625 z M 8.8007812 9.4003906 L 13.800781 12.400391 L 8.8007812 15.400391 L 8.8007812 9.4003906 z" transform="matrix(35.451439,0,0,35.451439,-106.35432,-106.35433)"/>
   </g>
  </g>
 </g>
</svg>
