<?xml version="1.0" encoding="UTF-8" standalone="no"?>
<svg xmlns="http://www.w3.org/2000/svg" width="22" height="22" version="1.1">
 <g transform="translate(-326,-534.3622)">
  <g transform="matrix(0.9154926,0,0,0.9154926,27.565236,47.439136)" style="fill:#4d4d4d;fill-opacity:1">
   <g transform="translate(-224.28864,-74.28568)" style="fill:#4d4d4d;fill-opacity:1">
    <path style="fill:#4d4d4d;fill-opacity:1;" d="m 563.29059,616.64954 2,0 0,6 -2,0 z m -4.00769,0 2,0 0,6.00001 -2,0 z m 3.00386,-4.41711 c -4.05293,0 -7.33825,3.28573 -7.33825,7.33902 0,4.05228 3.28529,7.3381 7.33825,7.3381 4.0529,0 7.33822,-3.28585 7.33822,-7.3381 0,-4.05329 -3.28532,-7.33902 -7.33822,-7.33902 z m 1.78216,-2.7998 -3.5646,0 c -0.27662,0 -0.50327,0.22225 -0.50327,0.5034 l 0,0.41546 c 0,0.28075 0.22665,0.5074 0.50327,0.5074 l 0.1764,0 0,0.29336 c 2.7e-4,0.42174 0.26645,0.45678 0.40008,0.44781 0.0227,-0.003 0.0463,-0.007 0.0711,-0.0102 2.8e-4,0 0.004,-8e-4 0.004,-8e-4 l -2.7e-4,0 c 0.4744,-0.065 1.26018,-0.1271 2.16144,-0.0124 l 5.3e-4,-8e-4 c 0,0 0.57731,0.10704 0.57574,-0.4239 l 0,-0.29332 0.17639,0 c 0.27691,0 0.503,-0.22641 0.503,-0.50756 l 0,-0.41506 c -3e-5,-0.28091 -0.22668,-0.5034 -0.50358,-0.5034 l 0,0 z m 3.80622,4.35279 c 0,0 0.27718,0.2789 0.47283,5.2e-4 l 0.37285,-0.53454 c 0.13018,-0.18805 -0.0379,-0.31819 -0.0553,-0.33104 l -2.26192,-1.58038 -5.3e-4,0 c -0.13926,-0.0969 -0.23173,-0.0381 -0.28038,0.0164 l -0.0404,0.0583 -0.3445,0.49326 c -0.002,0.002 -0.19458,0.30617 0.11384,0.46707 l 0,4e-4 c 0.44045,0.21676 1.24866,0.67378 2.02299,1.41159 l 5.5e-4,-0.002 0,0 z"/>
   </g>
  </g>
 </g>
</svg>
