<?xml version="1.0" encoding="UTF-8" standalone="no"?>
<svg xmlns="http://www.w3.org/2000/svg" width="22" height="22" version="1.1">
 <g transform="translate(-326,-534.3622)">
  <g transform="matrix(1.375,0,0,1.375,-198.05357,-213.36795)">
   <path d="m 388.43526,545.98557 c -1.29224,0 -1.83381,0.51377 -1.83381,1.82528 l 0,1.77557 c 0,0.81005 -0.0249,1.74858 -0.73863,1.74858 l -0.36932,0 0,0.9375 0.36932,0 c 0.7138,0 0.73863,0.93853 0.73863,1.74858 l 0,1.77557 c 0,1.3115 0.54157,1.82528 1.83381,1.82528 l 0,-0.8608 c -0.86149,0 -0.87358,-0.34787 -0.87358,-1.60795 l 0,-1.46591 c 0,-0.60431 -0.14887,-1.50355 -0.875,-1.87642 0.72613,-0.37288 0.875,-1.27352 0.875,-1.87784 l 0,-1.47869 c 0,-1.26008 0.0121,-1.60796 0.87358,-1.60796 l 0,-0.86079 z m 1.37784,0 0,0.86079 c 0.8615,0 0.88495,0.34788 0.88495,1.60796 l 0,1.47869 c 0,0.60432 0.14887,1.50496 0.875,1.87784 -0.72613,0.37287 -0.875,1.27211 -0.875,1.87642 l 0,1.46591 c 0,1.26008 -0.0234,1.60795 -0.88495,1.60795 l 0,0.8608 c 1.29225,0 1.84517,-0.51378 1.84517,-1.82528 l 0,-1.77557 c 0,-0.81005 0.0499,-1.74858 0.75142,-1.74858 l 0.35654,0 0,-0.9375 -0.35654,0 c -0.7015,0 -0.75142,-0.93853 -0.75142,-1.74858 l 0,-1.77557 c 0,-1.31151 -0.55292,-1.82528 -1.84517,-1.82528 z" style="line-height:125%;font-family:oxygen;letter-spacing:0px;word-spacing:0px;fill:#4d4d4d;fill-opacity:1;"/>
  </g>
 </g>
</svg>
