<?xml version="1.0" encoding="UTF-8" standalone="no"?>
<svg xmlns="http://www.w3.org/2000/svg" width="22" height="22" version="1.1">
 <g transform="translate(-326,-534.3622)">
  <g transform="translate(-51.85714,-6.71427)">
   <path d="m 385.85714,545.07297 0,4.05037 c 0,0 0,0.95313 1,0.95313 l 4.01563,0 c -0.0156,0 0.98437,-0.006 0.98437,-1 l 0,-3.98438 c 0,-1.01562 -0.96875,-1.01562 -0.96875,-1.01562 l -4.05441,0 c 0.0232,0 -0.97684,0.009 -0.97684,0.9965 z m -5,10.02103 0,3.96643 c 0,0 0,1.01604 1.02709,1.01604 l 3.99957,0 c -0.0267,0 0.97334,-0.0304 0.97334,-1.02709 l 0,-3.99957 c 0,0 -0.003,-0.97334 -0.98439,-0.97334 l -4.03272,0 c 0.0171,0 -0.98289,0.0181 -0.98289,1.01753 z m 10,-0.0332 0,4.01062 c 0,1.005 1.03707,1.005 1.03707,1.005 l 3.96643,0 c -0.004,0 0.9965,0.0121 0.9965,-0.9829 l 0,-4.04377 c 0,-0.97333 -1.00756,-0.97333 -1.00756,-0.97333 l -3.98852,0 c 0,0 -1.00392,0 -1.00392,0.98438 z" style="opacity:1;fill:#4d4d4d;fill-opacity:1;"/>
  </g>
 </g>
</svg>
