<?xml version="1.0" encoding="UTF-8" standalone="no"?>
<svg xmlns="http://www.w3.org/2000/svg" width="22" height="22" version="1.1">
 <g transform="translate(-544.57141,-742.93359)">
  <rect style="fill:#4d4d4d;fill-opacity:1;" width="0" height="11" x="507.1" y="747.55"/>
  <rect style="fill:#4d4d4d;fill-opacity:1;" width="0" height="11" x="525.14" y="745.5"/>
  <rect style="fill:#4d4d4d;fill-opacity:1;" width="0" height="11" x="507.1" y="747.55"/>
  <rect style="fill:#4d4d4d;fill-opacity:1;" width="0" height="11" x="507.1" y="747.55"/>
  <rect style="fill:#4d4d4d;fill-opacity:1;" width="0" height="11" x="499.8" y="742.72"/>
  <rect style="fill:#4d4d4d;fill-opacity:1;" width="0" height="11" x="517.84" y="740.67"/>
  <rect style="fill:#4d4d4d;fill-opacity:1;" width="0" height="11" x="499.8" y="742.72"/>
  <rect style="fill:#4d4d4d;fill-opacity:1;" width="0" height="11" x="499.8" y="742.72"/>
  <rect style="fill:#4d4d4d;fill-opacity:1;" width="0" height="11" x="505.81" y="746.94"/>
  <rect style="fill:#4d4d4d;fill-opacity:1;" width="0" height="11" x="523.85" y="744.88"/>
  <rect style="fill:#4d4d4d;fill-opacity:1;" width="0" height="11" x="505.81" y="746.94"/>
  <rect style="fill:#4d4d4d;fill-opacity:1;" width="0" height="11" x="505.81" y="746.94"/>
  <rect y="747.55" x="507.1" height="11" width="0" style="fill:#4d4d4d;fill-opacity:1;"/>
  <rect y="745.5" x="525.14" height="11" width="0" style="fill:#4d4d4d;fill-opacity:1;"/>
  <rect y="747.55" x="507.1" height="11" width="0" style="fill:#4d4d4d;fill-opacity:1;"/>
  <rect y="747.55" x="507.1" height="11" width="0" style="fill:#4d4d4d;fill-opacity:1;"/>
  <rect y="742.72" x="499.8" height="11" width="0" style="fill:#4d4d4d;fill-opacity:1;"/>
  <rect y="740.67" x="517.84" height="11" width="0" style="fill:#4d4d4d;fill-opacity:1;"/>
  <rect y="742.72" x="499.8" height="11" width="0" style="fill:#4d4d4d;fill-opacity:1;"/>
  <rect y="742.72" x="499.8" height="11" width="0" style="fill:#4d4d4d;fill-opacity:1;"/>
  <rect y="746.94" x="505.81" height="11" width="0" style="fill:#4d4d4d;fill-opacity:1;"/>
  <rect y="744.88" x="523.85" height="11" width="0" style="fill:#4d4d4d;fill-opacity:1;"/>
  <rect y="746.94" x="505.81" height="11" width="0" style="fill:#4d4d4d;fill-opacity:1;"/>
  <rect y="746.94" x="505.81" height="11" width="0" style="fill:#4d4d4d;fill-opacity:1;"/>
  <rect y="750.93" x="504.57" height="11" width="0" style="fill:#4d4d4d;fill-opacity:1;"/>
  <rect y="748.88" x="522.61" height="11" width="0" style="fill:#4d4d4d;fill-opacity:1;"/>
  <rect y="750.93" x="504.57" height="11" width="0" style="fill:#4d4d4d;fill-opacity:1;"/>
  <rect y="750.93" x="504.57" height="11" width="0" style="fill:#4d4d4d;fill-opacity:1;"/>
  <rect y="747.3" x="488.58" height="11" width="0" style="fill:#4d4d4d;fill-opacity:1;"/>
  <rect y="745.25" x="506.62" height="11" width="0" style="fill:#4d4d4d;fill-opacity:1;"/>
  <rect y="747.3" x="488.58" height="11" width="0" style="fill:#4d4d4d;fill-opacity:1;"/>
  <rect y="747.3" x="488.58" height="11" width="0" style="fill:#4d4d4d;fill-opacity:1;"/>
  <rect style="fill:#4d4d4d;fill-opacity:1;" width="0" height="11" x="507.1" y="747.55"/>
  <rect style="fill:#4d4d4d;fill-opacity:1;" width="0" height="11" x="525.14" y="745.5"/>
  <rect style="fill:#4d4d4d;fill-opacity:1;" width="0" height="11" x="507.1" y="747.55"/>
  <rect style="fill:#4d4d4d;fill-opacity:1;" width="0" height="11" x="507.1" y="747.55"/>
  <rect style="fill:#4d4d4d;fill-opacity:1;" width="0" height="11" x="499.8" y="742.72"/>
  <rect style="fill:#4d4d4d;fill-opacity:1;" width="0" height="11" x="517.84" y="740.67"/>
  <rect style="fill:#4d4d4d;fill-opacity:1;" width="0" height="11" x="499.8" y="742.72"/>
  <rect style="fill:#4d4d4d;fill-opacity:1;" width="0" height="11" x="499.8" y="742.72"/>
  <rect style="fill:#4d4d4d;fill-opacity:1;" width="0" height="11" x="505.81" y="746.94"/>
  <rect style="fill:#4d4d4d;fill-opacity:1;" width="0" height="11" x="523.85" y="744.88"/>
  <rect style="fill:#4d4d4d;fill-opacity:1;" width="0" height="11" x="505.81" y="746.94"/>
  <rect style="fill:#4d4d4d;fill-opacity:1;" width="0" height="11" x="505.81" y="746.94"/>
  <rect y="747.55" x="507.1" height="11" width="0" style="fill:#4d4d4d;fill-opacity:1;"/>
  <rect y="745.5" x="525.14" height="11" width="0" style="fill:#4d4d4d;fill-opacity:1;"/>
  <rect y="747.55" x="507.1" height="11" width="0" style="fill:#4d4d4d;fill-opacity:1;"/>
  <rect y="747.55" x="507.1" height="11" width="0" style="fill:#4d4d4d;fill-opacity:1;"/>
  <rect y="742.72" x="499.8" height="11" width="0" style="fill:#4d4d4d;fill-opacity:1;"/>
  <rect y="740.67" x="517.84" height="11" width="0" style="fill:#4d4d4d;fill-opacity:1;"/>
  <rect y="742.72" x="499.8" height="11" width="0" style="fill:#4d4d4d;fill-opacity:1;"/>
  <rect y="742.72" x="499.8" height="11" width="0" style="fill:#4d4d4d;fill-opacity:1;"/>
  <rect y="746.94" x="505.81" height="11" width="0" style="fill:#4d4d4d;fill-opacity:1;"/>
  <rect y="744.88" x="523.85" height="11" width="0" style="fill:#4d4d4d;fill-opacity:1;"/>
  <rect y="746.94" x="505.81" height="11" width="0" style="fill:#4d4d4d;fill-opacity:1;"/>
  <rect y="746.94" x="505.81" height="11" width="0" style="fill:#4d4d4d;fill-opacity:1;"/>
  <rect y="750.93" x="504.57" height="11" width="0" style="fill:#4d4d4d;fill-opacity:1;"/>
  <rect y="748.88" x="522.61" height="11" width="0" style="fill:#4d4d4d;fill-opacity:1;"/>
  <rect y="750.93" x="504.57" height="11" width="0" style="fill:#4d4d4d;fill-opacity:1;"/>
  <rect y="750.93" x="504.57" height="11" width="0" style="fill:#4d4d4d;fill-opacity:1;"/>
  <rect y="747.3" x="488.58" height="11" width="0" style="fill:#4d4d4d;fill-opacity:1;"/>
  <rect y="745.25" x="506.62" height="11" width="0" style="fill:#4d4d4d;fill-opacity:1;"/>
  <rect y="747.3" x="488.58" height="11" width="0" style="fill:#4d4d4d;fill-opacity:1;"/>
  <rect y="747.3" x="488.58" height="11" width="0" style="fill:#4d4d4d;fill-opacity:1;"/>
  <rect style="fill:#4d4d4d;fill-opacity:1;" width="0" height="11" x="507.1" y="747.55"/>
  <rect style="fill:#4d4d4d;fill-opacity:1;" width="0" height="11" x="525.14" y="745.5"/>
  <rect style="fill:#4d4d4d;fill-opacity:1;" width="0" height="11" x="507.1" y="747.55"/>
  <rect style="fill:#4d4d4d;fill-opacity:1;" width="0" height="11" x="507.1" y="747.55"/>
  <rect style="fill:#4d4d4d;fill-opacity:1;" width="0" height="11" x="499.8" y="742.72"/>
  <rect style="fill:#4d4d4d;fill-opacity:1;" width="0" height="11" x="517.84" y="740.67"/>
  <rect style="fill:#4d4d4d;fill-opacity:1;" width="0" height="11" x="499.8" y="742.72"/>
  <rect style="fill:#4d4d4d;fill-opacity:1;" width="0" height="11" x="499.8" y="742.72"/>
  <rect style="fill:#4d4d4d;fill-opacity:1;" width="0" height="11" x="505.81" y="746.94"/>
  <rect style="fill:#4d4d4d;fill-opacity:1;" width="0" height="11" x="523.85" y="744.88"/>
  <rect style="fill:#4d4d4d;fill-opacity:1;" width="0" height="11" x="505.81" y="746.94"/>
  <rect style="fill:#4d4d4d;fill-opacity:1;" width="0" height="11" x="505.81" y="746.94"/>
  <g style="fill:#5fb2f1;fill-opacity:1">
   <rect y="747.55" x="527.15" height="11" width="0" style="fill:#5fb2f1;fill-opacity:1;"/>
   <rect y="745.5" x="545.2" height="11" width="0" style="fill:#5fb2f1;fill-opacity:1;"/>
   <rect y="747.55" x="527.15" height="11" width="0" style="fill:#5fb2f1;fill-opacity:1;"/>
   <rect y="747.55" x="527.15" height="11" width="0" style="fill:#5fb2f1;fill-opacity:1;"/>
   <rect y="742.72" x="519.85" height="11" width="0" style="fill:#5fb2f1;fill-opacity:1;"/>
   <rect y="740.67" x="537.89" height="11" width="0" style="fill:#5fb2f1;fill-opacity:1;"/>
   <rect y="742.72" x="519.85" height="11" width="0" style="fill:#5fb2f1;fill-opacity:1;"/>
   <rect y="742.72" x="519.85" height="11" width="0" style="fill:#5fb2f1;fill-opacity:1;"/>
   <rect y="746.94" x="525.86" height="11" width="0" style="fill:#5fb2f1;fill-opacity:1;"/>
   <rect y="744.88" x="543.9" height="11" width="0" style="fill:#5fb2f1;fill-opacity:1;"/>
   <rect y="746.94" x="525.86" height="11" width="0" style="fill:#5fb2f1;fill-opacity:1;"/>
   <rect y="746.94" x="525.86" height="11" width="0" style="fill:#5fb2f1;fill-opacity:1;"/>
   <rect style="fill:#5fb2f1;fill-opacity:1;" width="0" height="11" x="527.15" y="747.55"/>
   <rect style="fill:#5fb2f1;fill-opacity:1;" width="0" height="11" x="545.2" y="745.5"/>
   <rect style="fill:#5fb2f1;fill-opacity:1;" width="0" height="11" x="527.15" y="747.55"/>
   <rect style="fill:#5fb2f1;fill-opacity:1;" width="0" height="11" x="527.15" y="747.55"/>
   <rect style="fill:#5fb2f1;fill-opacity:1;" width="0" height="11" x="519.85" y="742.72"/>
   <rect style="fill:#5fb2f1;fill-opacity:1;" width="0" height="11" x="537.89" y="740.67"/>
   <rect style="fill:#5fb2f1;fill-opacity:1;" width="0" height="11" x="519.85" y="742.72"/>
   <rect style="fill:#5fb2f1;fill-opacity:1;" width="0" height="11" x="519.85" y="742.72"/>
   <rect style="fill:#5fb2f1;fill-opacity:1;" width="0" height="11" x="525.86" y="746.94"/>
   <rect style="fill:#5fb2f1;fill-opacity:1;" width="0" height="11" x="543.9" y="744.88"/>
   <rect style="fill:#5fb2f1;fill-opacity:1;" width="0" height="11" x="525.86" y="746.94"/>
   <rect style="fill:#5fb2f1;fill-opacity:1;" width="0" height="11" x="525.86" y="746.94"/>
   <rect style="fill:#5fb2f1;fill-opacity:1;" width="0" height="11" x="524.62" y="750.93"/>
   <rect style="fill:#5fb2f1;fill-opacity:1;" width="0" height="11" x="542.66" y="748.88"/>
   <rect style="fill:#5fb2f1;fill-opacity:1;" width="0" height="11" x="524.62" y="750.93"/>
   <rect style="fill:#5fb2f1;fill-opacity:1;" width="0" height="11" x="524.62" y="750.93"/>
   <rect style="fill:#5fb2f1;fill-opacity:1;" width="0" height="11" x="508.63" y="747.3"/>
   <rect style="fill:#5fb2f1;fill-opacity:1;" width="0" height="11" x="526.67" y="745.25"/>
   <rect style="fill:#5fb2f1;fill-opacity:1;" width="0" height="11" x="508.63" y="747.3"/>
   <rect style="fill:#5fb2f1;fill-opacity:1;" width="0" height="11" x="508.63" y="747.3"/>
   <rect y="747.55" x="527.15" height="11" width="0" style="fill:#5fb2f1;fill-opacity:1;"/>
   <rect y="745.5" x="545.2" height="11" width="0" style="fill:#5fb2f1;fill-opacity:1;"/>
   <rect y="747.55" x="527.15" height="11" width="0" style="fill:#5fb2f1;fill-opacity:1;"/>
   <rect y="747.55" x="527.15" height="11" width="0" style="fill:#5fb2f1;fill-opacity:1;"/>
   <rect y="742.72" x="519.85" height="11" width="0" style="fill:#5fb2f1;fill-opacity:1;"/>
   <rect y="740.67" x="537.89" height="11" width="0" style="fill:#5fb2f1;fill-opacity:1;"/>
   <rect y="742.72" x="519.85" height="11" width="0" style="fill:#5fb2f1;fill-opacity:1;"/>
   <rect y="742.72" x="519.85" height="11" width="0" style="fill:#5fb2f1;fill-opacity:1;"/>
   <rect y="746.94" x="525.86" height="11" width="0" style="fill:#5fb2f1;fill-opacity:1;"/>
   <rect y="744.88" x="543.9" height="11" width="0" style="fill:#5fb2f1;fill-opacity:1;"/>
   <rect y="746.94" x="525.86" height="11" width="0" style="fill:#5fb2f1;fill-opacity:1;"/>
   <rect y="746.94" x="525.86" height="11" width="0" style="fill:#5fb2f1;fill-opacity:1;"/>
   <rect y="747.55" x="527.1" height="11" width="0" style="fill:#5fb2f1;fill-opacity:1;"/>
   <rect y="745.5" x="545.14" height="11" width="0" style="fill:#5fb2f1;fill-opacity:1;"/>
   <rect y="747.55" x="527.1" height="11" width="0" style="fill:#5fb2f1;fill-opacity:1;"/>
   <rect y="747.55" x="527.1" height="11" width="0" style="fill:#5fb2f1;fill-opacity:1;"/>
   <rect y="742.72" x="519.79" height="11" width="0" style="fill:#5fb2f1;fill-opacity:1;"/>
   <rect y="740.67" x="537.84" height="11" width="0" style="fill:#5fb2f1;fill-opacity:1;"/>
   <rect y="742.72" x="519.79" height="11" width="0" style="fill:#5fb2f1;fill-opacity:1;"/>
   <rect y="742.72" x="519.79" height="11" width="0" style="fill:#5fb2f1;fill-opacity:1;"/>
   <rect y="746.94" x="525.81" height="11" width="0" style="fill:#5fb2f1;fill-opacity:1;"/>
   <rect y="744.88" x="543.85" height="11" width="0" style="fill:#5fb2f1;fill-opacity:1;"/>
   <rect y="746.94" x="525.81" height="11" width="0" style="fill:#5fb2f1;fill-opacity:1;"/>
   <rect y="746.94" x="525.81" height="11" width="0" style="fill:#5fb2f1;fill-opacity:1;"/>
   <rect style="fill:#5fb2f1;fill-opacity:1;" width="0" height="11" x="527.1" y="747.55"/>
   <rect style="fill:#5fb2f1;fill-opacity:1;" width="0" height="11" x="545.14" y="745.5"/>
   <rect style="fill:#5fb2f1;fill-opacity:1;" width="0" height="11" x="527.1" y="747.55"/>
   <rect style="fill:#5fb2f1;fill-opacity:1;" width="0" height="11" x="527.1" y="747.55"/>
   <rect style="fill:#5fb2f1;fill-opacity:1;" width="0" height="11" x="519.79" y="742.72"/>
   <rect style="fill:#5fb2f1;fill-opacity:1;" width="0" height="11" x="537.84" y="740.67"/>
   <rect style="fill:#5fb2f1;fill-opacity:1;" width="0" height="11" x="519.79" y="742.72"/>
   <rect style="fill:#5fb2f1;fill-opacity:1;" width="0" height="11" x="519.79" y="742.72"/>
   <rect style="fill:#5fb2f1;fill-opacity:1;" width="0" height="11" x="525.81" y="746.94"/>
   <rect style="fill:#5fb2f1;fill-opacity:1;" width="0" height="11" x="543.85" y="744.88"/>
   <rect style="fill:#5fb2f1;fill-opacity:1;" width="0" height="11" x="525.81" y="746.94"/>
   <rect style="fill:#5fb2f1;fill-opacity:1;" width="0" height="11" x="525.81" y="746.94"/>
   <rect style="fill:#5fb2f1;fill-opacity:1;" width="0" height="11" x="524.57" y="750.93"/>
   <rect style="fill:#5fb2f1;fill-opacity:1;" width="0" height="11" x="542.61" y="748.88"/>
   <rect style="fill:#5fb2f1;fill-opacity:1;" width="0" height="11" x="524.57" y="750.93"/>
   <rect style="fill:#5fb2f1;fill-opacity:1;" width="0" height="11" x="524.57" y="750.93"/>
   <rect style="fill:#5fb2f1;fill-opacity:1;" width="0" height="11" x="508.58" y="747.3"/>
   <rect style="fill:#5fb2f1;fill-opacity:1;" width="0" height="11" x="526.62" y="745.25"/>
   <rect style="fill:#5fb2f1;fill-opacity:1;" width="0" height="11" x="508.58" y="747.3"/>
   <rect style="fill:#5fb2f1;fill-opacity:1;" width="0" height="11" x="508.58" y="747.3"/>
   <g transform="matrix(0.35429584,0,0,0.35429584,547.57141,745.93359)" style="fill:#5fb2f1;fill-opacity:1">
    <g style="fill:#5fb2f1;fill-opacity:1">
     <path d="m 22.58,11.269 c -6.237,0 -11.311,5.075 -11.311,11.312 0,6.237 5.074,11.312 11.311,11.312 6.236,0 11.311,-5.074 11.311,-11.312 0,-6.238 -5.075,-11.312 -11.311,-11.312 z" style="fill:#5fb2f1;fill-opacity:1"/>
     <g style="fill:#5fb2f1;fill-opacity:1">
      <g style="fill:#5fb2f1;fill-opacity:1">
       <path d="m 22.58,7.944 c -1.219,0 -2.207,-0.988 -2.207,-2.206 l 0,-3.531 C 20.373,0.988 21.361,0 22.58,0 c 1.219,0 2.207,0.988 2.207,2.207 l 0,3.531 c 0,1.218 -0.989,2.206 -2.207,2.206 z" style="fill:#5fb2f1;fill-opacity:1"/>
      </g>
      <g style="fill:#5fb2f1;fill-opacity:1">
       <path d="m 22.58,37.215 c -1.219,0 -2.207,0.988 -2.207,2.207 l 0,3.53 c 0,1.22 0.988,2.208 2.207,2.208 1.219,0 2.207,-0.988 2.207,-2.208 l 0,-3.53 c 0,-1.219 -0.989,-2.207 -2.207,-2.207 z" style="fill:#5fb2f1;fill-opacity:1"/>
      </g>
      <g style="fill:#5fb2f1;fill-opacity:1">
       <path d="m 32.928,12.231 c -0.861,-0.862 -0.861,-2.259 0,-3.121 l 2.497,-2.497 c 0.861,-0.861 2.259,-0.861 3.121,0 0.862,0.862 0.862,2.26 0,3.121 l -2.497,2.497 c -0.861,0.862 -2.258,0.862 -3.121,0 z" style="fill:#5fb2f1;fill-opacity:1"/>
      </g>
      <g style="fill:#5fb2f1;fill-opacity:1">
       <path d="m 12.231,32.93 c -0.862,-0.863 -2.259,-0.863 -3.121,0 l -2.497,2.496 c -0.861,0.861 -0.862,2.26 0,3.121 0.862,0.861 2.26,0.861 3.121,0 l 2.497,-2.498 c 0.862,-0.861 0.862,-2.259 0,-3.119 z" style="fill:#5fb2f1;fill-opacity:1"/>
      </g>
      <g style="fill:#5fb2f1;fill-opacity:1">
       <path d="m 37.215,22.58 c 0,-1.219 0.988,-2.207 2.207,-2.207 l 3.531,0 c 1.219,0 2.207,0.988 2.207,2.207 0,1.219 -0.988,2.206 -2.207,2.206 l -3.531,0 c -1.219,0 -2.207,-0.987 -2.207,-2.206 z" style="fill:#5fb2f1;fill-opacity:1"/>
      </g>
      <g style="fill:#5fb2f1;fill-opacity:1">
       <path d="m 7.944,22.58 c 0,-1.219 -0.988,-2.207 -2.207,-2.207 l -3.53,0 C 0.988,20.373 0,21.361 0,22.58 c 0,1.219 0.988,2.206 2.207,2.206 l 3.531,0 c 1.218,0 2.206,-0.987 2.206,-2.206 z" style="fill:#5fb2f1;fill-opacity:1"/>
      </g>
      <g style="fill:#5fb2f1;fill-opacity:1">
       <path d="m 32.928,32.93 c 0.862,-0.861 2.26,-0.861 3.121,0 l 2.497,2.497 c 0.862,0.86 0.862,2.259 0,3.12 -0.862,0.861 -2.259,0.861 -3.121,0 L 32.928,36.05 c -0.862,-0.862 -0.862,-2.259 0,-3.12 z" style="fill:#5fb2f1;fill-opacity:1"/>
      </g>
      <g style="fill:#5fb2f1;fill-opacity:1">
       <path d="m 12.231,12.231 c 0.862,-0.862 0.862,-2.259 0,-3.121 L 9.734,6.614 c -0.862,-0.862 -2.259,-0.862 -3.121,0 -0.862,0.861 -0.862,2.259 0,3.12 l 2.497,2.497 c 0.862,0.863 2.259,0.863 3.121,0 z" style="fill:#5fb2f1;fill-opacity:1"/>
      </g>
     </g>
    </g>
   </g>
  </g>
 </g>
</svg>
