<?xml version="1.0" encoding="UTF-8" standalone="no"?>
<svg xmlns="http://www.w3.org/2000/svg" width="22" height="22" version="1.1">
 <g transform="translate(-553.72253,-583.11926)">
  <rect style="fill:#4d4d4d;fill-opacity:1;" width="0" height="11" x="537.72" y="591.12"/>
  <rect style="fill:#4d4d4d;fill-opacity:1;" width="0" height="11" x="555.76" y="589.07"/>
  <rect style="fill:#4d4d4d;fill-opacity:1;" width="0" height="11" x="537.72" y="591.12"/>
  <rect style="fill:#4d4d4d;fill-opacity:1;" width="0" height="11" x="537.72" y="591.12"/>
  <rect style="fill:#4d4d4d;fill-opacity:1;" width="0" height="11" x="516.25" y="587.74"/>
  <rect style="fill:#4d4d4d;fill-opacity:1;" width="0" height="11" x="534.29" y="585.69"/>
  <rect style="fill:#4d4d4d;fill-opacity:1;" width="0" height="11" x="516.25" y="587.74"/>
  <rect style="fill:#4d4d4d;fill-opacity:1;" width="0" height="11" x="516.25" y="587.74"/>
  <rect style="fill:#4d4d4d;fill-opacity:1;" width="0" height="11" x="508.95" y="582.9"/>
  <rect style="fill:#4d4d4d;fill-opacity:1;" width="0" height="11" x="526.99" y="580.85"/>
  <rect style="fill:#4d4d4d;fill-opacity:1;" width="0" height="11" x="508.95" y="582.9"/>
  <rect style="fill:#4d4d4d;fill-opacity:1;" width="0" height="11" x="508.95" y="582.9"/>
  <rect style="fill:#4d4d4d;fill-opacity:1;" width="0" height="11" x="514.96" y="587.12"/>
  <rect style="fill:#4d4d4d;fill-opacity:1;" width="0" height="11" x="533" y="585.07"/>
  <rect style="fill:#4d4d4d;fill-opacity:1;" width="0" height="11" x="514.96" y="587.12"/>
  <rect style="fill:#4d4d4d;fill-opacity:1;" width="0" height="11" x="514.96" y="587.12"/>
  <rect style="fill:#4d4d4d;fill-opacity:1;" width="0" height="11" x="513.72" y="591.12"/>
  <rect style="fill:#4d4d4d;fill-opacity:1;" width="0" height="11" x="531.76" y="589.07"/>
  <rect style="fill:#4d4d4d;fill-opacity:1;" width="0" height="11" x="513.72" y="591.12"/>
  <rect style="fill:#4d4d4d;fill-opacity:1;" width="0" height="11" x="513.72" y="591.12"/>
  <rect style="fill:#4d4d4d;fill-opacity:1;" width="0" height="11" x="497.73" y="587.49"/>
  <rect style="fill:#4d4d4d;fill-opacity:1;" width="0" height="11" x="515.77" y="585.43"/>
  <rect style="fill:#4d4d4d;fill-opacity:1;" width="0" height="11" x="497.73" y="587.49"/>
  <rect style="fill:#4d4d4d;fill-opacity:1;" width="0" height="11" x="497.73" y="587.49"/>
  <g transform="translate(9.1511199,-159.81433)">
   <rect y="747.55" x="527.15" height="11" width="0" style="fill:#4d4d4d;fill-opacity:1;"/>
   <rect y="745.5" x="545.2" height="11" width="0" style="fill:#4d4d4d;fill-opacity:1;"/>
   <rect y="747.55" x="527.15" height="11" width="0" style="fill:#4d4d4d;fill-opacity:1;"/>
   <rect y="747.55" x="527.15" height="11" width="0" style="fill:#4d4d4d;fill-opacity:1;"/>
   <rect y="742.72" x="519.85" height="11" width="0" style="fill:#4d4d4d;fill-opacity:1;"/>
   <rect y="740.67" x="537.89" height="11" width="0" style="fill:#4d4d4d;fill-opacity:1;"/>
   <rect y="742.72" x="519.85" height="11" width="0" style="fill:#4d4d4d;fill-opacity:1;"/>
   <rect y="742.72" x="519.85" height="11" width="0" style="fill:#4d4d4d;fill-opacity:1;"/>
   <rect y="746.94" x="525.86" height="11" width="0" style="fill:#4d4d4d;fill-opacity:1;"/>
   <rect y="744.88" x="543.9" height="11" width="0" style="fill:#4d4d4d;fill-opacity:1;"/>
   <rect y="746.94" x="525.86" height="11" width="0" style="fill:#4d4d4d;fill-opacity:1;"/>
   <rect y="746.94" x="525.86" height="11" width="0" style="fill:#4d4d4d;fill-opacity:1;"/>
   <rect style="fill:#4d4d4d;fill-opacity:1;" width="0" height="11" x="527.15" y="747.55"/>
   <rect style="fill:#4d4d4d;fill-opacity:1;" width="0" height="11" x="545.2" y="745.5"/>
   <rect style="fill:#4d4d4d;fill-opacity:1;" width="0" height="11" x="527.15" y="747.55"/>
   <rect style="fill:#4d4d4d;fill-opacity:1;" width="0" height="11" x="527.15" y="747.55"/>
   <rect style="fill:#4d4d4d;fill-opacity:1;" width="0" height="11" x="519.85" y="742.72"/>
   <rect style="fill:#4d4d4d;fill-opacity:1;" width="0" height="11" x="537.89" y="740.67"/>
   <rect style="fill:#4d4d4d;fill-opacity:1;" width="0" height="11" x="519.85" y="742.72"/>
   <rect style="fill:#4d4d4d;fill-opacity:1;" width="0" height="11" x="519.85" y="742.72"/>
   <rect style="fill:#4d4d4d;fill-opacity:1;" width="0" height="11" x="525.86" y="746.94"/>
   <rect style="fill:#4d4d4d;fill-opacity:1;" width="0" height="11" x="543.9" y="744.88"/>
   <rect style="fill:#4d4d4d;fill-opacity:1;" width="0" height="11" x="525.86" y="746.94"/>
   <rect style="fill:#4d4d4d;fill-opacity:1;" width="0" height="11" x="525.86" y="746.94"/>
   <rect style="fill:#4d4d4d;fill-opacity:1;" width="0" height="11" x="524.62" y="750.93"/>
   <rect style="fill:#4d4d4d;fill-opacity:1;" width="0" height="11" x="542.66" y="748.88"/>
   <rect style="fill:#4d4d4d;fill-opacity:1;" width="0" height="11" x="524.62" y="750.93"/>
   <rect style="fill:#4d4d4d;fill-opacity:1;" width="0" height="11" x="524.62" y="750.93"/>
   <rect style="fill:#4d4d4d;fill-opacity:1;" width="0" height="11" x="508.63" y="747.3"/>
   <rect style="fill:#4d4d4d;fill-opacity:1;" width="0" height="11" x="526.67" y="745.25"/>
   <rect style="fill:#4d4d4d;fill-opacity:1;" width="0" height="11" x="508.63" y="747.3"/>
   <rect style="fill:#4d4d4d;fill-opacity:1;" width="0" height="11" x="508.63" y="747.3"/>
   <rect y="747.55" x="527.15" height="11" width="0" style="fill:#4d4d4d;fill-opacity:1;"/>
   <rect y="745.5" x="545.2" height="11" width="0" style="fill:#4d4d4d;fill-opacity:1;"/>
   <rect y="747.55" x="527.15" height="11" width="0" style="fill:#4d4d4d;fill-opacity:1;"/>
   <rect y="747.55" x="527.15" height="11" width="0" style="fill:#4d4d4d;fill-opacity:1;"/>
   <rect y="742.72" x="519.85" height="11" width="0" style="fill:#4d4d4d;fill-opacity:1;"/>
   <rect y="740.67" x="537.89" height="11" width="0" style="fill:#4d4d4d;fill-opacity:1;"/>
   <rect y="742.72" x="519.85" height="11" width="0" style="fill:#4d4d4d;fill-opacity:1;"/>
   <rect y="742.72" x="519.85" height="11" width="0" style="fill:#4d4d4d;fill-opacity:1;"/>
   <rect y="746.94" x="525.86" height="11" width="0" style="fill:#4d4d4d;fill-opacity:1;"/>
   <rect y="744.88" x="543.9" height="11" width="0" style="fill:#4d4d4d;fill-opacity:1;"/>
   <rect y="746.94" x="525.86" height="11" width="0" style="fill:#4d4d4d;fill-opacity:1;"/>
   <rect y="746.94" x="525.86" height="11" width="0" style="fill:#4d4d4d;fill-opacity:1;"/>
   <rect y="747.55" x="527.1" height="11" width="0" style="fill:#4d4d4d;fill-opacity:1;"/>
   <rect y="745.5" x="545.14" height="11" width="0" style="fill:#4d4d4d;fill-opacity:1;"/>
   <rect y="747.55" x="527.1" height="11" width="0" style="fill:#4d4d4d;fill-opacity:1;"/>
   <rect y="747.55" x="527.1" height="11" width="0" style="fill:#4d4d4d;fill-opacity:1;"/>
   <rect y="742.72" x="519.79" height="11" width="0" style="fill:#4d4d4d;fill-opacity:1;"/>
   <rect y="740.67" x="537.84" height="11" width="0" style="fill:#4d4d4d;fill-opacity:1;"/>
   <rect y="742.72" x="519.79" height="11" width="0" style="fill:#4d4d4d;fill-opacity:1;"/>
   <rect y="742.72" x="519.79" height="11" width="0" style="fill:#4d4d4d;fill-opacity:1;"/>
   <rect y="746.94" x="525.81" height="11" width="0" style="fill:#4d4d4d;fill-opacity:1;"/>
   <rect y="744.88" x="543.85" height="11" width="0" style="fill:#4d4d4d;fill-opacity:1;"/>
   <rect y="746.94" x="525.81" height="11" width="0" style="fill:#4d4d4d;fill-opacity:1;"/>
   <rect y="746.94" x="525.81" height="11" width="0" style="fill:#4d4d4d;fill-opacity:1;"/>
   <rect style="fill:#4d4d4d;fill-opacity:1;" width="0" height="11" x="527.1" y="747.55"/>
   <rect style="fill:#4d4d4d;fill-opacity:1;" width="0" height="11" x="545.14" y="745.5"/>
   <rect style="fill:#4d4d4d;fill-opacity:1;" width="0" height="11" x="527.1" y="747.55"/>
   <rect style="fill:#4d4d4d;fill-opacity:1;" width="0" height="11" x="527.1" y="747.55"/>
   <rect style="fill:#4d4d4d;fill-opacity:1;" width="0" height="11" x="519.79" y="742.72"/>
   <rect style="fill:#4d4d4d;fill-opacity:1;" width="0" height="11" x="537.84" y="740.67"/>
   <rect style="fill:#4d4d4d;fill-opacity:1;" width="0" height="11" x="519.79" y="742.72"/>
   <rect style="fill:#4d4d4d;fill-opacity:1;" width="0" height="11" x="519.79" y="742.72"/>
   <rect style="fill:#4d4d4d;fill-opacity:1;" width="0" height="11" x="525.81" y="746.94"/>
   <rect style="fill:#4d4d4d;fill-opacity:1;" width="0" height="11" x="543.85" y="744.88"/>
   <rect style="fill:#4d4d4d;fill-opacity:1;" width="0" height="11" x="525.81" y="746.94"/>
   <rect style="fill:#4d4d4d;fill-opacity:1;" width="0" height="11" x="525.81" y="746.94"/>
   <rect style="fill:#4d4d4d;fill-opacity:1;" width="0" height="11" x="524.57" y="750.93"/>
   <rect style="fill:#4d4d4d;fill-opacity:1;" width="0" height="11" x="542.61" y="748.88"/>
   <rect style="fill:#4d4d4d;fill-opacity:1;" width="0" height="11" x="524.57" y="750.93"/>
   <rect style="fill:#4d4d4d;fill-opacity:1;" width="0" height="11" x="524.57" y="750.93"/>
   <rect style="fill:#4d4d4d;fill-opacity:1;" width="0" height="11" x="508.58" y="747.3"/>
   <rect style="fill:#4d4d4d;fill-opacity:1;" width="0" height="11" x="526.62" y="745.25"/>
   <rect style="fill:#4d4d4d;fill-opacity:1;" width="0" height="11" x="508.58" y="747.3"/>
   <rect style="fill:#4d4d4d;fill-opacity:1;" width="0" height="11" x="508.58" y="747.3"/>
   <g transform="matrix(0.35429584,0,0,0.35429584,547.57141,745.93359)" style="fill:#4d4d4d;fill-opacity:1">
    <g style="fill:#4d4d4d;fill-opacity:1">
     <path style="fill:#4d4d4d;fill-opacity:1" d="M 11 6.9921875 C 8.7902568 6.9921875 6.9921875 8.7902568 6.9921875 11 C 6.9921875 13.209743 8.7902568 15.007812 11 15.007812 C 13.209389 15.007812 15.007813 13.210097 15.007812 11 C 15.007812 8.7899026 13.209389 6.9921875 11 6.9921875 z M 11 7.5 L 11 14.5 C 9.0838498 14.5 7.5253906 12.929765 7.5253906 11 C 7.5253906 9.0702352 9.0838498 7.5 11 7.5 z" transform="matrix(2.8225,0,0,2.8225,-8.4674996,-8.4674999)"/>
     <g style="fill:#4d4d4d;fill-opacity:1">
      <g style="fill:#4d4d4d;fill-opacity:1">
       <path d="m 22.58,7.944 c -1.219,0 -2.207,-0.988 -2.207,-2.206 l 0,-3.531 C 20.373,0.988 21.361,0 22.58,0 c 1.219,0 2.207,0.988 2.207,2.207 l 0,3.531 c 0,1.218 -0.989,2.206 -2.207,2.206 z" style="fill:#4d4d4d;fill-opacity:1"/>
      </g>
      <g style="fill:#4d4d4d;fill-opacity:1">
       <path d="m 22.58,37.215 c -1.219,0 -2.207,0.988 -2.207,2.207 l 0,3.53 c 0,1.22 0.988,2.208 2.207,2.208 1.219,0 2.207,-0.988 2.207,-2.208 l 0,-3.53 c 0,-1.219 -0.989,-2.207 -2.207,-2.207 z" style="fill:#4d4d4d;fill-opacity:1"/>
      </g>
      <g style="fill:#4d4d4d;fill-opacity:1">
       <path d="m 32.928,12.231 c -0.861,-0.862 -0.861,-2.259 0,-3.121 l 2.497,-2.497 c 0.861,-0.861 2.259,-0.861 3.121,0 0.862,0.862 0.862,2.26 0,3.121 l -2.497,2.497 c -0.861,0.862 -2.258,0.862 -3.121,0 z" style="fill:#4d4d4d;fill-opacity:1"/>
      </g>
      <g style="fill:#4d4d4d;fill-opacity:1">
       <path d="m 12.231,32.93 c -0.862,-0.863 -2.259,-0.863 -3.121,0 l -2.497,2.496 c -0.861,0.861 -0.862,2.26 0,3.121 0.862,0.861 2.26,0.861 3.121,0 l 2.497,-2.498 c 0.862,-0.861 0.862,-2.259 0,-3.119 z" style="fill:#4d4d4d;fill-opacity:1"/>
      </g>
      <g style="fill:#4d4d4d;fill-opacity:1">
       <path d="m 37.215,22.58 c 0,-1.219 0.988,-2.207 2.207,-2.207 l 3.531,0 c 1.219,0 2.207,0.988 2.207,2.207 0,1.219 -0.988,2.206 -2.207,2.206 l -3.531,0 c -1.219,0 -2.207,-0.987 -2.207,-2.206 z" style="fill:#4d4d4d;fill-opacity:1"/>
      </g>
      <g style="fill:#4d4d4d;fill-opacity:1">
       <path d="m 7.944,22.58 c 0,-1.219 -0.988,-2.207 -2.207,-2.207 l -3.53,0 C 0.988,20.373 0,21.361 0,22.58 c 0,1.219 0.988,2.206 2.207,2.206 l 3.531,0 c 1.218,0 2.206,-0.987 2.206,-2.206 z" style="fill:#4d4d4d;fill-opacity:1"/>
      </g>
      <g style="fill:#4d4d4d;fill-opacity:1">
       <path d="m 32.928,32.93 c 0.862,-0.861 2.26,-0.861 3.121,0 l 2.497,2.497 c 0.862,0.86 0.862,2.259 0,3.12 -0.862,0.861 -2.259,0.861 -3.121,0 L 32.928,36.05 c -0.862,-0.862 -0.862,-2.259 0,-3.12 z" style="fill:#4d4d4d;fill-opacity:1"/>
      </g>
      <g style="fill:#4d4d4d;fill-opacity:1">
       <path d="m 12.231,12.231 c 0.862,-0.862 0.862,-2.259 0,-3.121 L 9.734,6.614 c -0.862,-0.862 -2.259,-0.862 -3.121,0 -0.862,0.861 -0.862,2.259 0,3.12 l 2.497,2.497 c 0.862,0.863 2.259,0.863 3.121,0 z" style="fill:#4d4d4d;fill-opacity:1"/>
      </g>
     </g>
    </g>
   </g>
  </g>
 </g>
</svg>
