<?xml version="1.0" encoding="UTF-8" standalone="no"?>
<svg xmlns="http://www.w3.org/2000/svg" width="22" height="22" version="1.1">
 <g transform="translate(-326,-534.3622)">
  <g transform="translate(-0.99999987,0.99999835)">
   <g transform="matrix(0.66666664,0,0,0.66666664,70.952391,189.83025)">
    <g transform="translate(374.61313,-496.84069)" style="fill:none;stroke:#000000;stroke-opacity:1">
     <g transform="matrix(1.0079909,0,0,1.0079909,-452.94077,476.65222)">
      <g transform="matrix(1.5359999,0,0,1.5359999,383.7381,-1067.9379)">
       <g transform="matrix(0.12485916,0,0,0.12485916,3.0932607,1033.6287)" style="fill:#4d4d4d;fill-opacity:1">
        <path style="fill:#4d4d4d;fill-opacity:1;" d="M 1.1503906 3 C 0.73325814 3 0.3984375 3.33678 0.3984375 3.7539062 L 0.3984375 18.246094 C 0.3984375 18.663225 0.73325814 19 1.1503906 19 L 20.849609 19 C 21.266735 19 21.601562 18.663225 21.601562 18.246094 L 21.601562 3.7539062 C 21.601562 3.33678 21.266735 3 20.849609 3 L 1.1503906 3 z M 11 5.8535156 C 11.315512 5.8535156 11.585337 5.9662276 11.808594 6.1894531 C 12.031851 6.4125848 12.142578 6.6806133 12.142578 6.9960938 C 12.142578 7.3115742 12.031851 7.581462 11.808594 7.8046875 C 11.585337 8.027913 11.315512 8.140625 11 8.140625 C 10.68452 8.140625 10.414632 8.027913 10.191406 7.8046875 C 9.9682745 7.5814307 9.8574219 7.3115742 9.8574219 6.9960938 C 9.8574219 6.6806133 9.9681494 6.4126161 10.191406 6.1894531 C 10.414757 5.9661963 10.68452 5.8535156 11 5.8535156 z M 7 7.5683594 C 7.3154804 7.5683594 7.5853369 7.6810713 7.8085938 7.9042969 C 8.0317255 8.1275537 8.1425781 8.3954571 8.1425781 8.7109375 C 8.1425781 9.0263241 8.0316942 9.2962744 7.8085938 9.5195312 C 7.5852431 9.7427255 7.3155117 9.8535156 7 9.8535156 C 6.6844883 9.8535156 6.4146631 9.7426004 6.1914062 9.5195312 C 5.9682745 9.2963995 5.8574219 9.0264179 5.8574219 8.7109375 C 5.8574219 8.3954571 5.9681494 8.1275224 6.1914062 7.9042969 C 6.4147569 7.6810401 6.6844883 7.5683594 7 7.5683594 z M 15 7.5683594 C 15.31548 7.5683594 15.585337 7.6810713 15.808594 7.9042969 C 16.031851 8.1275224 16.142578 8.3954571 16.142578 8.7109375 C 16.142578 9.0263241 16.031851 9.2963057 15.808594 9.5195312 C 15.585337 9.7427255 15.31548 9.8535156 15 9.8535156 C 14.684488 9.8535156 14.414663 9.7427255 14.191406 9.5195312 C 13.968149 9.2963995 13.857422 9.0264179 13.857422 8.7109375 C 13.857422 8.3954571 13.968149 8.1275224 14.191406 7.9042969 C 14.414663 7.6810713 14.684488 7.5683594 15 7.5683594 z M 12.236328 8.8828125 C 12.307747 8.8731492 12.380633 8.8776254 12.455078 8.8984375 C 12.604062 8.9401555 12.718582 9.0282303 12.798828 9.1621094 C 12.879387 9.296176 12.900979 9.4409651 12.865234 9.5957031 L 11.964844 13.005859 C 12.262686 13.208132 12.476451 13.478924 12.607422 13.818359 C 12.738205 14.157638 12.755413 14.506145 12.660156 14.863281 C 12.541132 15.321647 12.276003 15.670217 11.865234 15.908203 C 11.454466 16.146315 11.02096 16.205056 10.5625 16.085938 C 10.104259 15.966913 9.7555957 15.701784 9.5175781 15.291016 C 9.2795605 14.880153 9.2208193 14.446772 9.3398438 13.988281 C 9.4350383 13.631271 9.6225457 13.338386 9.9023438 13.109375 C 10.182048 12.880051 10.500286 12.750537 10.857422 12.720703 L 11.759766 9.3105469 C 11.80139 9.1558089 11.890494 9.0374024 12.027344 8.9570312 C 12.095847 8.9169238 12.164909 8.8924758 12.236328 8.8828125 z M 5.2851562 11.568359 C 5.6006367 11.568359 5.8706496 11.68104 6.09375 11.904297 C 6.3168817 12.127554 6.4277344 12.395457 6.4277344 12.710938 C 6.4277344 13.026449 6.3168817 13.296274 6.09375 13.519531 C 5.8705245 13.742663 5.6006367 13.853516 5.2851562 13.853516 C 4.9697697 13.853516 4.7017412 13.742663 4.4785156 13.519531 C 4.2552588 13.296493 4.1425781 13.026449 4.1425781 12.710938 C 4.1425781 12.395457 4.2552588 12.127554 4.4785156 11.904297 C 4.7017724 11.68104 4.9697697 11.568359 5.2851562 11.568359 z M 16.714844 11.568359 C 17.030324 11.568359 17.298228 11.68104 17.521484 11.904297 C 17.744741 12.127554 17.857422 12.395457 17.857422 12.710938 C 17.857422 13.026449 17.74471 13.296274 17.521484 13.519531 C 17.298228 13.742663 17.030324 13.853516 16.714844 13.853516 C 16.399332 13.853516 16.129507 13.742663 15.90625 13.519531 C 15.682993 13.296493 15.572266 13.026449 15.572266 12.710938 C 15.572266 12.395457 15.682993 12.127554 15.90625 11.904297 C 16.129507 11.68104 16.399332 11.568359 16.714844 11.568359 z" transform="matrix(7.7593094,0,0,7.7593094,366.26702,60.097102)"/>
       </g>
      </g>
     </g>
    </g>
   </g>
  </g>
 </g>
</svg>
