<?xml version="1.0" encoding="UTF-8" standalone="no"?>
<svg xmlns="http://www.w3.org/2000/svg" width="22" height="22" version="1.1">
 <g transform="translate(-326,-534.3622)">
  <g transform="translate(-0.999995,1.0000004)">
   <path style="fill:#4d4d4d;fill-opacity:1;" d="M 0.79101562 3.0019531 C 0.57960562 3.0019531 0.41015625 3.1714025 0.41015625 3.3828125 L 0.41015625 18.955078 L 21.589844 19 L 21.589844 5.6367188 C 21.589844 5.4253087 21.418441 5.2539062 21.207031 5.2539062 L 9.7265625 5.2539062 C 9.3376125 5.2883063 9.2879031 5.2369888 9.0957031 4.9804688 C 8.8231331 4.6156987 8.4109081 3.6331637 8.1425781 3.2773438 C 7.9271981 2.9658138 7.8923562 3.0019531 7.5351562 3.0019531 L 0.79101562 3.0019531 z M 11 8.2167969 C 11.526332 8.2167969 12.037762 8.3175321 12.535156 8.5175781 C 13.032616 8.7176241 13.475573 8.999163 13.861328 9.3632812 L 14.564453 8.6660156 C 14.633016 8.5975858 14.712923 8.5644531 14.806641 8.5644531 C 14.900358 8.5644531 14.982351 8.5975858 15.050781 8.6660156 C 15.11941 8.7345118 15.152344 8.8164386 15.152344 8.9101562 L 15.152344 11.332031 C 15.152344 11.425749 15.119211 11.507676 15.050781 11.576172 C 14.982285 11.644668 14.900358 11.677734 14.806641 11.677734 L 12.384766 11.677734 C 12.291048 11.677734 12.209188 11.644668 12.140625 11.576172 C 12.072262 11.507676 12.039062 11.425749 12.039062 11.332031 C 12.039063 11.238314 12.072262 11.15834 12.140625 11.089844 L 12.886719 10.341797 C 12.353152 9.8479208 11.724652 9.6015625 11 9.6015625 C 10.516943 9.6015625 10.066649 9.7188309 9.6484375 9.953125 C 9.2302258 10.187485 8.8949255 10.510898 8.6425781 10.921875 C 8.6028875 10.983203 8.5068639 11.19422 8.3554688 11.554688 C 8.3265968 11.637586 8.2726742 11.677734 8.1933594 11.677734 L 7.1171875 11.677734 C 7.0703287 11.677734 7.0303418 11.661201 6.9960938 11.626953 C 6.9618457 11.592705 6.9453125 11.552718 6.9453125 11.505859 L 6.9453125 11.466797 C 7.179673 10.500616 7.6652417 9.7173919 8.4042969 9.1171875 C 9.1433521 8.5169167 10.008597 8.2167969 11 8.2167969 z M 7.1933594 13.0625 L 9.6152344 13.0625 C 9.708952 13.0625 9.7908788 13.097453 9.859375 13.166016 C 9.9278712 13.234445 9.9609375 13.314485 9.9609375 13.408203 C 9.9609375 13.501854 9.9278712 13.583914 9.859375 13.652344 L 9.1191406 14.392578 C 9.3750721 14.630523 9.6638536 14.815488 9.9882812 14.945312 C 10.312709 15.075137 10.650351 15.138672 11 15.138672 C 11.483057 15.138672 11.933351 15.02147 12.351562 14.787109 C 12.769708 14.552815 13.105008 14.231157 13.357422 13.820312 C 13.397046 13.758985 13.493202 13.548034 13.644531 13.1875 C 13.673337 13.104535 13.727392 13.0625 13.806641 13.0625 L 14.84375 13.0625 C 14.890609 13.0625 14.932482 13.079166 14.966797 13.113281 C 15.001045 13.147596 15.017578 13.189469 15.017578 13.236328 C 15.017578 13.254315 15.015369 13.266269 15.011719 13.273438 C 14.780942 14.239552 14.297905 15.022842 13.5625 15.623047 C 12.827095 16.223318 11.966334 16.523438 10.978516 16.523438 C 10.452184 16.523437 9.9432559 16.424883 9.4511719 16.226562 C 8.9590879 16.028309 8.5205212 15.744655 8.1347656 15.376953 L 7.4355469 16.074219 C 7.3670507 16.142649 7.287077 16.177734 7.1933594 16.177734 C 7.0996417 16.177734 7.0177813 16.142649 6.9492188 16.074219 C 6.8807226 16.005789 6.8476562 15.925683 6.8476562 15.832031 L 6.8476562 13.408203 C 6.8476562 13.314485 6.8807226 13.234445 6.9492188 13.166016 C 7.0177149 13.097453 7.0995754 13.0625 7.1933594 13.0625 z" transform="translate(327,533.3622)"/>
  </g>
 </g>
</svg>
