<?xml version="1.0" encoding="UTF-8" standalone="no"?>
<svg xmlns="http://www.w3.org/2000/svg" width="22" height="22" version="1.1" viewBox="0 0 22 22">
 <g transform="translate(1,-1031.3622)">
  <g transform="matrix(0.99704016,0,0,0.99704016,-1.1171531,4.0580882)">
   <path d="m 6.0003112,1033.3627 -3.0000001,2 3.0000001,2 0,-4 z m 3.9999998,0 0,4 3.000001,-2 -3.000001,-2 z" style="opacity:1;fill:#4d4d4d;fill-opacity:1;"/>
   <g transform="matrix(1.1162932,0,0,1.1162932,17.382039,-117.48706)" style="font-size:13.75px;line-height:125%;letter-spacing:0px;word-spacing:0px;fill:#4d4d4d;fill-opacity:1;">
    <g transform="matrix(1.0294196,0,0,1.0294196,0.37112792,-30.753227)">
     <path d="m -10.09875,1042.5822 q -1.0725,0 -1.80125,-0.6188 -0.715,-0.6187 -0.715,-1.6362 0,-1.1 0.8525,-1.7188 0.8525,-0.6325 2.10375,-0.6325 1.11375,0 1.82875,0.4125 l 0,-0.1925 q 0,-0.7425 -0.50875,-1.1825 -0.50875,-0.4537 -1.25125,-0.4537 -0.55,0 -1.00375,0.2612 -0.44,0.2613 -0.605,0.715 l -1.155,-0.495 q 0.23375,-0.605 0.92125,-1.1137 0.6875,-0.5225 1.815,-0.5225 1.2925,0 2.145,0.7562 0.8525,0.7563 0.8525,2.1313 l 0,4.07 -1.21,0 0,-0.935 -0.055,0 q -0.75625,1.155 -2.21375,1.155 z m 0.20625,-1.155 q 0.78375,0 1.41625,-0.5775 0.64625,-0.5913 0.64625,-1.3888 -0.53625,-0.44 -1.60875,-0.44 -0.92125,0 -1.38875,0.3988 -0.4675,0.3987 -0.4675,0.935 0,0.495 0.42625,0.7837 0.42625,0.2888 0.97625,0.2888 z" style="font-family:'Product Sans';fill:#4d4d4d;fill-opacity:1"/>
     <path d="m -2.9127221,1045.3322 -1.30625,0 1.5675,-3.3963 -2.7775,-6.3112 1.375,0 2.0075,4.84 0.0275,0 1.95249995,-4.84 1.37499995,0 -4.2212499,9.7075 z" style="font-family:'Product Sans';fill:#4d4d4d;fill-opacity:1"/>
    </g>
   </g>
  </g>
 </g>
</svg>
