<?xml version="1.0" encoding="UTF-8" standalone="no"?>
<svg xmlns="http://www.w3.org/2000/svg" width="22" height="22" version="1.1">
 <g transform="translate(-326,-534.3622)">
  <g transform="matrix(0.66666667,0,0,0.66666667,69.95238,190.83023)">
   <g transform="translate(27.682101,0.12839698)">
    <g transform="matrix(0.97603016,0,0,-0.97603016,8.9380976,1042.0695)">
     <g transform="matrix(1,0,0,-1,0,1045.8692)">
      <g transform="matrix(1.0245585,0,0,-1.0245585,-9.1576049,1067.6612)">
       <g transform="matrix(1.5,0,0,1.5,360.88933,-1034.8737)">
        <g transform="translate(-412.88298,512.00351)">
         <g transform="translate(341.79698,500.25245)">
          <g transform="translate(-392.98822,-511.27795)">
           <g transform="matrix(1.3333333,0,0,1.3333333,-61.890355,-165.99713)">
            <g transform="translate(341.79698,500.25245)">
             <g transform="translate(-392.98822,-511.27795)">
              <g transform="translate(0.41988239,0.03484499)" style="stroke:#1f2a47;stroke-opacity:1">
               <g transform="translate(440.36158,509.62534)">
                <g style="stroke:#1f2a47;stroke-opacity:1" transform="matrix(0.52109202,0,0,0.52109202,-0.76995909,19.353185)">
                 <g transform="translate(-400.50475,-509.14629)">
                  <g transform="matrix(1.0037077,0,0,1.0037077,11.267145,17.846026)">
                   <g transform="matrix(1.5263052,0,0,1.5263052,376.49864,-1040.1735)">
                    <g transform="matrix(1.1526351,0,0,1.1526351,-4.8344134,-156.43331)">
                     <g>
                      <g transform="matrix(0.81509151,0,0,0.81509151,-323.19965,584.90903)">
                       <g transform="translate(341.79698,500.25245)">
                        <g transform="translate(-392.98822,-511.27795)">
                         <g transform="translate(0.41988239,0.03484499)" style="stroke:#1f2a47;stroke-opacity:1">
                          <g transform="translate(440.36158,509.62534)">
                           <g style="stroke:#1f2a47;stroke-opacity:1" transform="matrix(0.52109202,0,0,0.52109202,-0.76995909,19.353185)">
                            <g transform="translate(-400.50475,-509.14629)">
                             <g transform="matrix(0.76761933,0,0,0.76761933,156.46876,138.50552)">
                              <path style="opacity:1;fill:#4d4d4d;fill-opacity:1;" d="M 4.5996094 3 C 4.15641 3 3.8007812 3.3575818 3.8007812 3.8007812 L 3.8007812 18.199219 C 3.8007812 18.642418 4.15641 19 4.5996094 19 L 17.400391 19 C 17.84359 19 18.199219 18.642418 18.199219 18.199219 L 18.199219 3.8007812 C 18.199219 3.3575818 17.84359 3 17.400391 3 L 4.5996094 3 z M 5.5019531 12.066406 A 0.91079472 0.91079472 0 0 1 6.4140625 12.976562 A 0.91079472 0.91079472 0 0 1 5.5019531 13.888672 A 0.91079472 0.91079472 0 0 1 4.5917969 12.976562 A 0.91079472 0.91079472 0 0 1 5.5019531 12.066406 z M 7.7167969 12.066406 A 0.91079472 0.91079472 0 0 1 8.6289062 12.978516 A 0.91079472 0.91079472 0 0 1 7.7167969 13.888672 A 0.91079472 0.91079472 0 0 1 6.8066406 12.978516 A 0.91079472 0.91079472 0 0 1 7.7167969 12.066406 z M 9.9492188 12.066406 A 0.91079472 0.91079472 0 0 1 10.861328 12.978516 A 0.91079472 0.91079472 0 0 1 9.9492188 13.888672 A 0.91079472 0.91079472 0 0 1 9.0390625 12.978516 A 0.91079472 0.91079472 0 0 1 9.9492188 12.066406 z M 12.158203 12.066406 A 0.91079472 0.91079472 0 0 1 13.070312 12.978516 A 0.91079472 0.91079472 0 0 1 12.158203 13.888672 A 0.91079472 0.91079472 0 0 1 11.248047 12.978516 A 0.91079472 0.91079472 0 0 1 12.158203 12.066406 z M 14.332031 12.066406 A 0.91079472 0.91079472 0 0 1 15.242188 12.978516 A 0.91079472 0.91079472 0 0 1 14.332031 13.888672 A 0.91079472 0.91079472 0 0 1 13.419922 12.978516 A 0.91079472 0.91079472 0 0 1 14.332031 12.066406 z M 16.498047 12.066406 A 0.91079472 0.91079472 0 0 1 17.408203 12.978516 A 0.91079472 0.91079472 0 0 1 16.498047 13.888672 A 0.91079472 0.91079472 0 0 1 15.585938 12.978516 A 0.91079472 0.91079472 0 0 1 16.498047 12.066406 z M 6.5859375 14.263672 A 0.91079472 0.91079472 0 0 1 7.4960938 15.173828 A 0.91079472 0.91079472 0 0 1 6.5859375 16.085938 A 0.91079472 0.91079472 0 0 1 5.6757812 15.173828 A 0.91079472 0.91079472 0 0 1 6.5859375 14.263672 z M 8.8007812 14.263672 A 0.91079472 0.91079472 0 0 1 9.7109375 15.175781 A 0.91079472 0.91079472 0 0 1 8.8007812 16.085938 A 0.91079472 0.91079472 0 0 1 7.8886719 15.175781 A 0.91079472 0.91079472 0 0 1 8.8007812 14.263672 z M 11.033203 14.263672 A 0.91079472 0.91079472 0 0 1 11.943359 15.175781 A 0.91079472 0.91079472 0 0 1 11.033203 16.085938 A 0.91079472 0.91079472 0 0 1 10.123047 15.175781 A 0.91079472 0.91079472 0 0 1 11.033203 14.263672 z M 13.242188 14.263672 A 0.91079472 0.91079472 0 0 1 14.152344 15.175781 A 0.91079472 0.91079472 0 0 1 13.242188 16.085938 A 0.91079472 0.91079472 0 0 1 12.330078 15.175781 A 0.91079472 0.91079472 0 0 1 13.242188 14.263672 z M 15.414062 14.263672 A 0.91079472 0.91079472 0 0 1 16.324219 15.175781 A 0.91079472 0.91079472 0 0 1 15.414062 16.085938 A 0.91079472 0.91079472 0 0 1 14.503906 15.175781 A 0.91079472 0.91079472 0 0 1 15.414062 14.263672 z M 5.5019531 16.441406 A 0.91079472 0.91079472 0 0 1 6.4140625 17.353516 A 0.91079472 0.91079472 0 0 1 5.5019531 18.263672 A 0.91079472 0.91079472 0 0 1 4.5917969 17.353516 A 0.91079472 0.91079472 0 0 1 5.5019531 16.441406 z M 7.7167969 16.441406 A 0.91079472 0.91079472 0 0 1 8.6289062 17.353516 A 0.91079472 0.91079472 0 0 1 7.7167969 18.263672 A 0.91079472 0.91079472 0 0 1 6.8066406 17.353516 A 0.91079472 0.91079472 0 0 1 7.7167969 16.441406 z M 9.9492188 16.441406 A 0.91079472 0.91079472 0 0 1 10.861328 17.353516 A 0.91079472 0.91079472 0 0 1 9.9492188 18.263672 A 0.91079472 0.91079472 0 0 1 9.0390625 17.353516 A 0.91079472 0.91079472 0 0 1 9.9492188 16.441406 z M 12.158203 16.441406 A 0.91079472 0.91079472 0 0 1 13.070312 17.353516 A 0.91079472 0.91079472 0 0 1 12.158203 18.263672 A 0.91079472 0.91079472 0 0 1 11.248047 17.353516 A 0.91079472 0.91079472 0 0 1 12.158203 16.441406 z M 14.332031 16.441406 A 0.91079472 0.91079472 0 0 1 15.242188 17.353516 A 0.91079472 0.91079472 0 0 1 14.332031 18.263672 A 0.91079472 0.91079472 0 0 1 13.419922 17.353516 A 0.91079472 0.91079472 0 0 1 14.332031 16.441406 z M 16.498047 16.441406 A 0.91079472 0.91079472 0 0 1 17.408203 17.353516 A 0.91079472 0.91079472 0 0 1 16.498047 18.263672 A 0.91079472 0.91079472 0 0 1 15.585938 17.353516 A 0.91079472 0.91079472 0 0 1 16.498047 16.441406 z" transform="matrix(2.4999981,0,0,-2.4999981,381.07146,551.29796)"/>
                             </g>
                            </g>
                           </g>
                          </g>
                         </g>
                        </g>
                       </g>
                      </g>
                     </g>
                    </g>
                   </g>
                  </g>
                 </g>
                </g>
               </g>
              </g>
             </g>
            </g>
           </g>
          </g>
         </g>
        </g>
       </g>
      </g>
     </g>
    </g>
   </g>
  </g>
 </g>
</svg>
