<?xml version="1.0" encoding="UTF-8" standalone="no"?>
<svg xmlns="http://www.w3.org/2000/svg" width="22" height="22" version="1.1" viewBox="0 0 22 22">
 <g transform="translate(0,-1030.3622)">
  <g transform="translate(-327,497)">
   <g transform="matrix(0.66666667,0,0,0.66666667,70.95238,189.83023)">
    <g transform="translate(27.682101,0.12839698)">
     <g transform="matrix(0.97603016,0,0,-0.97603016,8.9380976,1042.0695)">
      <g transform="matrix(1.6901341,0,0,1.6901341,-261.50974,-356.73882)" style="fill:#4d4d4d;fill-opacity:1">
       <g transform="matrix(1.0245585,0,0,-1.0245585,-63.0497,1078.1017)" style="fill:#4d4d4d;fill-opacity:1">
        <g transform="translate(27.682101,0.12839698)" style="fill:#4d4d4d;fill-opacity:1">
         <g transform="matrix(-1.666667,0,0,1.666667,467.02088,-1211.9733)" style="fill:#4d4d4d;fill-opacity:1">
          <g transform="translate(-401.01229,510.63371)" style="fill:#4d4d4d;fill-opacity:1">
           <g transform="translate(5.05585,-5.251147)" style="fill:#4d4d4d;fill-opacity:1">
            <g transform="translate(-11.317,5.8824915)" style="fill:#4d4d4d;fill-opacity:1;stroke:#000000;stroke-opacity:0.8">
             <g transform="translate(1.8733025,-0.28410538)" style="fill:#4d4d4d;fill-opacity:1">
              <g transform="matrix(0.7863692,0,0,0.78394543,93.525529,112.35451)" style="fill:#4d4d4d;fill-opacity:1">
               <path style="fill:#4d4d4d;fill-opacity:1;" d="m 447.37395,543.68901 c -0.26425,0.26411 -0.26425,0.69259 0,0.95701 l 2.94323,2.67159 -2.94323,2.6716 c -0.26425,0.26442 -0.26425,0.6926 0,0.95701 0.26423,0.26442 0.69225,0.26442 0.95648,0 l 3.42401,-3.10772 c 0.14278,-0.14305 0.20574,-0.33357 0.19397,-0.52089 0.0118,-0.187 -0.0513,-0.37783 -0.19397,-0.52087 l -3.42401,-3.10773 c -0.26423,-0.26409 -0.69225,-0.26409 -0.95648,0 z"/>
              </g>
             </g>
            </g>
           </g>
          </g>
         </g>
        </g>
       </g>
       <path style="fill:#4d4d4d;fill-opacity:1;" d="m 375.0845,523.18156 c -0.35483,-0.35355 -0.35483,-0.92714 0,-1.28111 l 3.95218,-3.57636 -3.95218,-3.57637 c -0.35483,-0.35397 -0.35483,-0.92716 0,-1.28112 0.35481,-0.35397 0.92956,-0.35397 1.28437,0 l 4.59777,4.16019 c 0.19172,0.1915 0.27626,0.44654 0.26046,0.6973 0.0158,0.25033 -0.0689,0.50579 -0.26046,0.69727 l -4.59777,4.1602 c -0.35481,0.35353 -0.92956,0.35353 -1.28437,0 z"/>
      </g>
     </g>
    </g>
   </g>
  </g>
 </g>
</svg>
