<?xml version="1.0" encoding="UTF-8" standalone="no"?>
<svg xmlns="http://www.w3.org/2000/svg" width="22" height="22" version="1.1">
 <g transform="translate(-326,-534.3622)">
  <g transform="matrix(1.7507299,0,0,1.7507299,-364.29238,-385.67246)">
   <g transform="translate(27.682101,0.12839698)">
    <g transform="matrix(0.97603016,0,0,-0.97603016,8.9380976,1042.0695)">
     <g transform="translate(0,2.1929912e-5)">
      <g style="fill:#4d4d4d;fill-opacity:1" transform="matrix(0,1.0245585,1.0245585,0,-727.6027,517.20448)">
       <g style="fill:#4d4d4d;fill-opacity:1" transform="translate(-401.01229,510.63371)">
        <g style="fill:#4d4d4d;fill-opacity:1" transform="translate(5.05585,-5.251147)">
         <g transform="translate(-11.317,5.8824915)" style="fill:#4d4d4d;fill-opacity:1;stroke:#000000;stroke-opacity:0.8">
          <g transform="translate(1.8733025,-0.28410538)" style="fill:#4d4d4d;fill-opacity:1">
           <g transform="matrix(0.7863692,0,0,0.78394543,93.525529,112.35451)" style="fill:#4d4d4d;fill-opacity:1">
            <path style="fill:#4d4d4d;fill-opacity:1;" d="m 409.22295,572.96319 c -0.40104,-0.40373 -1.05169,-0.40373 -1.45321,0 l -4.05675,4.4969 -4.05677,-4.4969 c -0.40151,-0.40373 -1.05168,-0.40373 -1.45319,0 -0.40152,0.40373 -0.40152,1.05767 0,1.4614 l 4.71901,5.23147 c 0.21722,0.21815 0.5065,0.31434 0.79095,0.29636 0.28395,0.018 0.57373,-0.0783 0.79093,-0.29636 l 4.71903,-5.23147 c 0.40102,-0.40373 0.40102,-1.05767 0,-1.4614 z"/>
            <path style="fill:#4d4d4d;fill-opacity:1;" d="m 403.70694,573.47012 c 0.93509,0 1.69313,-0.76131 1.69313,-1.70043 0,-0.93912 -0.75804,-1.70042 -1.69313,-1.70042 -0.93509,0 -1.69314,0.7613 -1.69314,1.70042 0,0.93912 0.75805,1.70043 1.69314,1.70043 z"/>
           </g>
          </g>
         </g>
        </g>
       </g>
      </g>
     </g>
    </g>
   </g>
  </g>
 </g>
</svg>
