<?xml version="1.0" encoding="UTF-8" standalone="no"?>
<svg xmlns="http://www.w3.org/2000/svg" width="22" height="22" version="1.1">
 <g transform="translate(-326,-534.3622)">
  <g transform="matrix(0.66666667,0,0,0.66666667,69.95238,190.83023)">
   <g transform="translate(27.682101,0.12839698)">
    <g transform="matrix(0.97603016,0,0,-0.97603016,8.9380976,1042.0695)">
     <g transform="translate(0,2.1929912e-5)">
      <g transform="matrix(1.0245585,0,0,-1.0245585,-9.1576049,1067.6612)">
       <g transform="matrix(1.5,0,0,1.5,360.88933,-1034.8737)">
        <g transform="translate(-412.88298,512.00351)">
         <g transform="translate(341.79698,500.25245)">
          <g transform="translate(-392.98822,-511.27795)">
           <g transform="matrix(1.3333333,0,0,1.3333333,-61.890355,-165.99713)">
            <g transform="translate(341.79698,500.25245)">
             <g transform="translate(-392.98822,-511.27795)">
              <g transform="translate(0.41988239,0.03484499)" style="stroke:#1f2a47;stroke-opacity:1">
               <g transform="translate(440.36158,509.62534)">
                <g style="stroke:#1f2a47;stroke-opacity:1" transform="matrix(0.52109202,0,0,0.52109202,-0.76995909,19.353185)">
                 <g transform="translate(-400.50475,-509.14629)">
                  <g transform="matrix(1.0037077,0,0,1.0037077,11.267145,17.846026)">
                   <g transform="matrix(1.5263052,0,0,1.5263052,376.49864,-1040.1735)">
                    <g transform="matrix(1.1526351,0,0,1.1526351,-4.8344134,-156.43331)">
                     <g>
                      <g transform="matrix(0.81509151,0,0,0.81509151,-323.19965,584.90903)">
                       <g transform="translate(341.79698,500.25245)">
                        <g transform="translate(-392.98822,-511.27795)">
                         <g transform="translate(0.41988239,0.03484499)" style="stroke:#1f2a47;stroke-opacity:1">
                          <g transform="translate(440.36158,509.62534)">
                           <g style="stroke:#1f2a47;stroke-opacity:1" transform="matrix(0.52109202,0,0,0.52109202,-0.76995909,19.353185)">
                            <g transform="translate(-400.50475,-509.14629)">
                             <g transform="matrix(0.76761933,0,0,0.76761933,156.46876,138.50552)">
                              <path style="opacity:1;fill:#4d4d4d;fill-opacity:1;" d="M 4.5996094 3 C 4.15641 3 3.8007812 3.3575818 3.8007812 3.8007812 L 3.8007812 18.199219 C 3.8007812 18.642418 4.15641 19 4.5996094 19 L 17.400391 19 C 17.84359 19 18.199219 18.642418 18.199219 18.199219 L 18.199219 3.8007812 C 18.199219 3.3575818 17.84359 3 17.400391 3 L 4.5996094 3 z M 5.5019531 3.7363281 A 0.91079472 0.91079472 0 0 1 6.4140625 4.6464844 A 0.91079472 0.91079472 0 0 1 5.5019531 5.5585938 A 0.91079472 0.91079472 0 0 1 4.5917969 4.6464844 A 0.91079472 0.91079472 0 0 1 5.5019531 3.7363281 z M 7.7167969 3.7363281 A 0.91079472 0.91079472 0 0 1 8.6289062 4.6464844 A 0.91079472 0.91079472 0 0 1 7.7167969 5.5585938 A 0.91079472 0.91079472 0 0 1 6.8066406 4.6464844 A 0.91079472 0.91079472 0 0 1 7.7167969 3.7363281 z M 9.9492188 3.7363281 A 0.91079472 0.91079472 0 0 1 10.861328 4.6464844 A 0.91079472 0.91079472 0 0 1 9.9492188 5.5585938 A 0.91079472 0.91079472 0 0 1 9.0390625 4.6464844 A 0.91079472 0.91079472 0 0 1 9.9492188 3.7363281 z M 12.158203 3.7363281 A 0.91079472 0.91079472 0 0 1 13.070312 4.6464844 A 0.91079472 0.91079472 0 0 1 12.158203 5.5585938 A 0.91079472 0.91079472 0 0 1 11.248047 4.6464844 A 0.91079472 0.91079472 0 0 1 12.158203 3.7363281 z M 14.332031 3.7363281 A 0.91079472 0.91079472 0 0 1 15.242188 4.6464844 A 0.91079472 0.91079472 0 0 1 14.332031 5.5566406 A 0.91079472 0.91079472 0 0 1 13.419922 4.6464844 A 0.91079472 0.91079472 0 0 1 14.332031 3.7363281 z M 16.498047 3.7363281 A 0.91079472 0.91079472 0 0 1 17.408203 4.6464844 A 0.91079472 0.91079472 0 0 1 16.498047 5.5585938 A 0.91079472 0.91079472 0 0 1 15.585938 4.6464844 A 0.91079472 0.91079472 0 0 1 16.498047 3.7363281 z M 6.5859375 5.9140625 A 0.91079472 0.91079472 0 0 1 7.4960938 6.8261719 A 0.91079472 0.91079472 0 0 1 6.5859375 7.7363281 A 0.91079472 0.91079472 0 0 1 5.6757812 6.8261719 A 0.91079472 0.91079472 0 0 1 6.5859375 5.9140625 z M 8.8007812 5.9140625 A 0.91079472 0.91079472 0 0 1 9.7109375 6.8242188 A 0.91079472 0.91079472 0 0 1 8.8007812 7.7363281 A 0.91079472 0.91079472 0 0 1 7.8886719 6.8242188 A 0.91079472 0.91079472 0 0 1 8.8007812 5.9140625 z M 11.033203 5.9140625 A 0.91079472 0.91079472 0 0 1 11.943359 6.8242188 A 0.91079472 0.91079472 0 0 1 11.033203 7.7363281 A 0.91079472 0.91079472 0 0 1 10.123047 6.8242188 A 0.91079472 0.91079472 0 0 1 11.033203 5.9140625 z M 13.242188 5.9140625 A 0.91079472 0.91079472 0 0 1 14.152344 6.8242188 A 0.91079472 0.91079472 0 0 1 13.242188 7.7363281 A 0.91079472 0.91079472 0 0 1 12.330078 6.8242188 A 0.91079472 0.91079472 0 0 1 13.242188 5.9140625 z M 15.414062 5.9140625 A 0.91079472 0.91079472 0 0 1 16.324219 6.8242188 A 0.91079472 0.91079472 0 0 1 15.414062 7.7363281 A 0.91079472 0.91079472 0 0 1 14.503906 6.8242188 A 0.91079472 0.91079472 0 0 1 15.414062 5.9140625 z M 5.5019531 8.1113281 A 0.91079472 0.91079472 0 0 1 6.4140625 9.0234375 A 0.91079472 0.91079472 0 0 1 5.5019531 9.9335938 A 0.91079472 0.91079472 0 0 1 4.5917969 9.0234375 A 0.91079472 0.91079472 0 0 1 5.5019531 8.1113281 z M 7.7167969 8.1113281 A 0.91079472 0.91079472 0 0 1 8.6289062 9.0214844 A 0.91079472 0.91079472 0 0 1 7.7167969 9.9335938 A 0.91079472 0.91079472 0 0 1 6.8066406 9.0214844 A 0.91079472 0.91079472 0 0 1 7.7167969 8.1113281 z M 9.9492188 8.1113281 A 0.91079472 0.91079472 0 0 1 10.861328 9.0214844 A 0.91079472 0.91079472 0 0 1 9.9492188 9.9335938 A 0.91079472 0.91079472 0 0 1 9.0390625 9.0214844 A 0.91079472 0.91079472 0 0 1 9.9492188 8.1113281 z M 12.158203 8.1113281 A 0.91079472 0.91079472 0 0 1 13.070312 9.0214844 A 0.91079472 0.91079472 0 0 1 12.158203 9.9335938 A 0.91079472 0.91079472 0 0 1 11.248047 9.0214844 A 0.91079472 0.91079472 0 0 1 12.158203 8.1113281 z M 14.332031 8.1113281 A 0.91079472 0.91079472 0 0 1 15.242188 9.0214844 A 0.91079472 0.91079472 0 0 1 14.332031 9.9335938 A 0.91079472 0.91079472 0 0 1 13.419922 9.0214844 A 0.91079472 0.91079472 0 0 1 14.332031 8.1113281 z M 16.498047 8.1113281 A 0.91079472 0.91079472 0 0 1 17.408203 9.0214844 A 0.91079472 0.91079472 0 0 1 16.498047 9.9335938 A 0.91079472 0.91079472 0 0 1 15.585938 9.0214844 A 0.91079472 0.91079472 0 0 1 16.498047 8.1113281 z M 11 11.373047 C 12.123174 11.373047 13.037109 12.287001 13.037109 13.410156 L 13.037109 14.236328 C 13.197632 14.270038 13.318359 14.413612 13.318359 14.583984 L 13.318359 17.685547 C 13.318359 17.880891 13.160212 18.039062 12.964844 18.039062 L 9.0351562 18.039062 C 8.8397876 18.039062 8.6816406 17.880891 8.6816406 17.685547 L 8.6816406 14.583984 C 8.6816406 14.413612 8.802369 14.269872 8.9628906 14.236328 L 8.9628906 13.410156 C 8.9628906 12.287001 9.876825 11.373047 11 11.373047 z M 11 12.082031 C 10.267562 12.082031 9.671875 12.67773 9.671875 13.410156 L 9.671875 14.230469 L 12.328125 14.230469 L 12.328125 13.410156 C 12.328125 12.677772 11.732437 12.082031 11 12.082031 z M 11 15.318359 C 10.725495 15.318359 10.503906 15.541923 10.503906 15.816406 C 10.503906 15.961889 10.566347 16.092693 10.666016 16.183594 L 10.533203 16.880859 C 10.525975 16.919042 10.552823 16.951172 10.591797 16.951172 L 11.417969 16.951172 C 11.456943 16.951172 11.483789 16.919373 11.476562 16.880859 L 11.34375 16.175781 C 11.438724 16.085212 11.496094 15.957955 11.496094 15.816406 C 11.496094 15.541923 11.274504 15.318359 11 15.318359 z" transform="matrix(2.4999981,0,0,2.4999981,381.07146,496.29802)"/>
                             </g>
                            </g>
                           </g>
                          </g>
                         </g>
                        </g>
                       </g>
                      </g>
                     </g>
                    </g>
                   </g>
                  </g>
                 </g>
                </g>
               </g>
              </g>
             </g>
            </g>
           </g>
          </g>
         </g>
        </g>
       </g>
      </g>
     </g>
    </g>
   </g>
  </g>
 </g>
</svg>
