<?xml version="1.0" encoding="UTF-8" standalone="no"?>
<svg xmlns="http://www.w3.org/2000/svg" width="22" height="22" version="1.1">
 <g transform="translate(-326,-534.3622)">
  <g transform="matrix(0.66666667,0,0,0.66666667,70.95238,189.83023)">
   <g transform="matrix(2,0,0,2,-346.70722,-530.44126)">
    <g transform="matrix(0.97603016,0,0,-0.97603016,8.9380976,1042.0695)">
     <g transform="translate(0,2.1929912e-5)">
      <g transform="matrix(1.0245585,0,0,-1.0245585,-63.049694,1078.1017)">
       <g transform="translate(27.682101,0.12839698)">
        <g style="fill:#ffffff;fill-opacity:1" transform="matrix(0.74999999,0,0,0.74999999,391.80753,-241.34013)">
         <g style="fill:#ffffff;fill-opacity:1" transform="translate(-412.88298,512.00351)">
          <g style="fill:#ffffff;fill-opacity:1" transform="translate(341.79698,500.25245)">
           <g style="fill:#ffffff;fill-opacity:1" transform="translate(-392.98822,-511.27795)">
            <g style="fill:#ffffff;fill-opacity:1" transform="translate(0.41988239,0.03484499)">
             <g style="fill:#ffffff;fill-opacity:1" transform="matrix(1.3398673,0,0,1.3398673,460.81106,-855.91825)">
              <rect y="1039.36" x="-17" height="11" width="0" style="fill:#ffffff;fill-opacity:1;"/>
              <g style="fill:#ffffff;fill-opacity:1" transform="matrix(1.0189676,0,0,1.0189676,-61.112767,1010.2635)">
               <g style="fill:#ffffff;fill-opacity:1" transform="translate(-392.98822,-511.27795)">
                <g style="fill:#ffffff;fill-opacity:1" transform="matrix(0.7759008,0,0,0.7759008,154.15208,162.1068)">
                 <g transform="translate(391.86698,-549.29542)" style="fill:#ffffff;fill-opacity:1">
                  <g transform="translate(-401.01229,510.63371)" style="fill:#ffffff;fill-opacity:1">
                   <g transform="translate(5.05585,-5.251147)" style="fill:#ffffff;fill-opacity:1">
                    <g style="fill:#ffffff;fill-opacity:1;stroke:#000000;stroke-opacity:0.8" transform="translate(-11.317,5.8824915)">
                     <g transform="matrix(1.338559,0,0,1.338559,-142.64928,-182.70145)" style="fill:#ffffff;fill-opacity:1">
                      <g transform="translate(-2.0518724,-0.97858527)" style="fill:#ffffff;fill-opacity:1">
                       <g transform="translate(0.22097092,0.44194173)" style="fill:#ffffff;fill-opacity:1">
                        <g transform="translate(1.3573925,-1.2626907)" style="fill:#ffffff;fill-opacity:1">
                         <g transform="translate(-0.41037448,-0.59977801)" style="fill:#ffffff;fill-opacity:1">
                          <g transform="matrix(0.7863692,0,0,0.78394543,92.594038,111.881)" style="fill:#ffffff;fill-opacity:1">
                           <g transform="matrix(1.2716673,0,0,1.275599,-114.25636,-140.42007)" style="fill:#ffffff;fill-opacity:1">
                            <g transform="matrix(0.7863692,0,0,0.78394543,93.325829,112.35451)" style="fill:#ffffff;fill-opacity:1">
                             <g style="fill:#ffffff;fill-opacity:1" transform="matrix(0.91314361,0,0,0.91314362,29.438747,44.019704)">
                              <g style="fill:#ffffff;fill-opacity:1;" transform="matrix(0.07547167,0,0,0.07570501,371.47994,519.52377)">
                               <g style="fill:#ffffff;fill-opacity:1;" transform="matrix(0.42911434,0,0,0.42911434,419.00057,175.00057)">
                                <g style="fill:#ffffff;fill-opacity:1;">
                                 <path style="fill:#4d4d4d;fill-opacity:1;" d="m 121.305,30.327 242.604,0 0,60.651 30.327,0 0,-60.651 C 394.236,13.595 380.674,0 363.909,0 L 121.305,0 C 104.574,0 90.978,13.595 90.978,30.327 l 0,60.651 30.327,0 0,-60.651 z"/>
                                 <path style="fill:#4d4d4d;fill-opacity:1;" d="m 454.89,121.304 -424.562,0 c -16.731,0 -30.327,13.591 -30.327,30.324 l 0,151.629 c 0,16.764 13.595,30.327 30.327,30.327 l 60.651,0 0,121.302 c 0,16.764 13.595,30.326 30.327,30.326 l 242.604,0 c 16.765,0 30.327,-13.562 30.327,-30.326 l 0,-121.302 60.653,0 c 16.759,0 30.322,-13.563 30.322,-30.327 l 0,-151.629 c 0,-16.733 -13.564,-30.324 -30.322,-30.324 z m -90.981,333.582 -242.604,0 0,-212.28 242.604,0 0,212.28 z m 60.653,-242.604 c -16.764,0 -30.326,-13.564 -30.326,-30.327 0,-16.731 13.562,-30.327 30.326,-30.327 16.765,0 30.327,13.595 30.327,30.327 10e-4,16.762 -13.562,30.327 -30.327,30.327 z"/>
                                 <rect style="fill:#4d4d4d;fill-opacity:1;" x="151.63" y="272.93" width="121.304" height="30.327"/>
                                 <rect style="fill:#4d4d4d;fill-opacity:1;" x="151.63" y="333.58" width="181.958" height="30.321"/>
                                 <rect style="fill:#4d4d4d;fill-opacity:1;" x="151.63" y="394.24" width="181.958" height="30.322"/>
                                </g>
                               </g>
                              </g>
                             </g>
                            </g>
                           </g>
                          </g>
                         </g>
                        </g>
                       </g>
                      </g>
                     </g>
                    </g>
                   </g>
                  </g>
                 </g>
                </g>
               </g>
              </g>
             </g>
            </g>
           </g>
          </g>
         </g>
        </g>
       </g>
      </g>
     </g>
    </g>
   </g>
  </g>
 </g>
</svg>
