<?xml version="1.0" encoding="UTF-8" standalone="no"?>
<svg xmlns="http://www.w3.org/2000/svg" width="22" height="22" version="1.1">
 <g transform="translate(-326,-534.3622)">
  <g transform="matrix(0.03860324,0,0,0.03860324,325.31751,537.05262)" style="fill:#4d4d4d;fill-opacity:1">
   <g style="fill:#4d4d4d;fill-opacity:1">
    <path d="m 296.003,284.517 -52.542,-30.805 c -2.865,0.345 -5.734,0.913 -8.59,1.73 -13.717,3.937 -33.557,15.227 -50.186,46.668 -13.202,24.961 -8.33,46.331 -4.031,65.187 4.108,18.023 7.354,32.259 -4.718,46.5 -1.187,1.399 -1.511,3.336 -0.845,5.047 0.419,1.076 1.188,1.952 2.15,2.512 0.571,0.33 1.21,0.551 1.885,0.637 30.535,3.836 76.235,-14.17 104.421,-62.771 12.802,-22.074 18.3,-43.299 15.902,-61.38 -0.624,-4.717 -1.796,-9.17 -3.446,-13.325 z" style="fill:#4d4d4d;fill-opacity:1"/>
    <path d="m 418.939,11.153 c -10.538,-6.111 -24.009,-3.033 -30.847,7.05 -4.299,6.338 -105.41,155.47 -118.428,177.916 -6.509,11.224 -13.845,29.443 -19.947,46.1 l 52.542,30.805 c 11.443,-13.576 23.674,-29.061 30.275,-40.443 13.17,-22.708 92.25,-184.284 95.609,-191.151 5.357,-10.945 1.337,-24.166 -9.204,-30.277 z" style="fill:#4d4d4d;fill-opacity:1"/>
   </g>
  </g>
 </g>
</svg>
