<?xml version="1.0" encoding="UTF-8" standalone="no"?>
<svg xmlns="http://www.w3.org/2000/svg" width="22" height="22" version="1.1">
 <g transform="translate(-326,-534.3622)">
  <g transform="translate(2.3563125e-6,-5.2225504e-6)">
   <g transform="matrix(1.3409571,0,0,1.3409571,-483.62356,-163.95726)">
    <g style="fill:#4d4d4d;fill-opacity:1" transform="matrix(0.01949637,0,0,0.01949637,606.00265,522.99918)">
     <g style="fill:#4d4d4d;fill-opacity:1">
      <g style="fill:#4d4d4d;fill-opacity:1">
       <path style="fill:#4d4d4d;fill-opacity:1" d="M 8 3 C 7.4479999 3 7 3.4479999 7 4 L 7 5 L 8 5 L 8 4.5 C 8 4.2239999 8.2239999 4 8.5 4 L 17.5 4 C 17.776 4 18 4.2239999 18 4.5 L 18 13.5 C 18 13.776 17.776 14 17.5 14 L 17 14 L 17 15 L 18 15 C 18.552 15 19 14.552 19 14 L 19 4 C 19 3.4479999 18.552 3 18 3 L 8 3 z M 4 6 C 3.4479999 6 3 6.4479999 3 7 L 3 18 C 3 18.552 3.4479999 19 4 19 L 15 19 C 15.552 19 16 18.552 16 18 L 16 7 C 16 6.4479999 15.552 6 15 6 L 4 6 z M 9.34375 8.5722656 C 10.444114 8.5722656 11.412688 9.31231 11.701172 10.373047 C 11.762802 10.599646 11.628943 10.832923 11.402344 10.894531 C 11.175745 10.956097 10.942468 10.82226 10.880859 10.595703 C 10.692803 9.9042556 10.06141 9.421875 9.34375 9.421875 C 8.4648198 9.421875 7.75 10.136695 7.75 11.015625 L 7.75 12 L 11.699219 12 C 11.933663 12 12.125 12.191316 12.125 12.425781 L 12.125 16.146484 C 12.125 16.380928 11.933663 16.572266 11.699219 16.572266 L 6.9863281 16.572266 C 6.7518844 16.572266 6.5605469 16.380928 6.5605469 16.146484 L 6.5605469 12.425781 C 6.5605469 12.221291 6.7058101 12.0502 6.8984375 12.009766 L 6.8984375 11.015625 C 6.8984375 9.6678285 7.9959322 8.5722656 9.34375 8.5722656 z" transform="matrix(38.249993,0,0,38.249993,-114.74992,-114.74992)"/>
      </g>
     </g>
    </g>
   </g>
  </g>
 </g>
</svg>
