<?xml version="1.0" encoding="UTF-8" standalone="no"?>
<svg xmlns="http://www.w3.org/2000/svg" width="22" height="22" version="1.1">
 <g transform="translate(-421.71429,-525.79074)">
  <g transform="matrix(0.03429194,0,0,0.03429194,424.71429,528.79074)" style="fill:#4d4d4d;fill-opacity:1">
   <path d="m 233.292,0 c -85.1,0 -154.334,69.234 -154.334,154.333 0,34.275 21.887,90.155 66.908,170.834 31.846,57.063 63.168,104.643 64.484,106.64 l 22.942,34.775 22.941,-34.774 c 1.317,-1.998 32.641,-49.577 64.483,-106.64 45.023,-80.68 66.908,-136.559 66.908,-170.834 C 387.625,69.234 318.391,0 233.292,0 Z m 0,233.291 c -44.182,0 -80,-35.817 -80,-80 0,-44.183 35.818,-80 80,-80 44.182,0 80,35.817 80,80 0,44.183 -35.819,80 -80,80 z" style="fill:#4d4d4d;fill-opacity:1"/>
  </g>
 </g>
</svg>
