<?xml version="1.0" encoding="UTF-8" standalone="no"?>
<svg xmlns="http://www.w3.org/2000/svg" width="22" height="22" version="1.1">
 <g transform="translate(-326,-534.3622)">
  <g transform="matrix(1.125,0,0,1.125,324.625,531.86216)">
   <path style="opacity:1;fill:#4d4d4d;fill-opacity:1;stroke:#4d4d4d;stroke-width:0.90786564;" d="M 7.4053844,4.9143477 C 6.8850222,5.8288327 6.6139297,5.8288327 7.134292,6.7433176 l 3.191497,5.6155084 -1.8553987,3.225703 C 8.0690829,15.208262 7.5362007,14.973681 6.9441752,14.973681 c -1.2482924,0 -2.2532355,1.019651 -2.2532355,2.286213 0,1.266561 1.0049431,2.286213 2.2532355,2.286213 1.2482926,0 2.2532355,-1.019652 2.2532355,-2.286213 0,-0.152814 -0.016087,-0.302259 -0.044007,-0.446526 l 1.0474023,-1.841472 c 0.703387,-0.0091 0.792056,-0.708364 1.202314,-0.718014 l 1.445238,2.543412 c -0.02991,0.149095 -0.04577,0.304279 -0.04577,0.4626 0,1.266561 1.004943,2.286213 2.253237,2.286213 1.248292,0 2.253235,-1.019652 2.253235,-2.286213 0,-1.266562 -1.004943,-2.286213 -2.253235,-2.286213 -0.588846,0 -1.118571,0.232816 -1.519174,0.605489 l -1.85188,-3.220344 3.191497,-5.6155084 C 15.39663,5.8288327 15.125538,5.8288327 14.605176,4.9143477 L 11.005281,11.176426 7.4053844,4.9143477 Z m 3.5946146,7.3158793 c 0.249659,0 0.450648,0.203931 0.450648,0.457243 0,0.253312 -0.200989,0.457241 -0.450648,0.457241 -0.249659,0 -0.450647,-0.203929 -0.450647,-0.457241 0,-0.253312 0.200988,-0.457243 0.450647,-0.457243 z m -4.0558238,3.657939 c 0.7489755,0 1.3519416,0.611791 1.3519416,1.371728 0,0.759937 -0.6029661,1.371728 -1.3519416,1.371728 -0.7489755,0 -1.3519412,-0.611791 -1.3519412,-1.371728 0,-0.759937 0.6029657,-1.371728 1.3519412,-1.371728 z m 8.1116478,0 c 0.748975,0 1.351941,0.611791 1.351941,1.371728 0,0.759937 -0.602966,1.371728 -1.351941,1.371728 -0.748976,0 -1.351941,-0.611791 -1.351941,-1.371728 0,-0.759937 0.602965,-1.371728 1.351941,-1.371728 z"/>
  </g>
 </g>
</svg>
