<?xml version="1.0" encoding="UTF-8" standalone="no"?>
<svg xmlns="http://www.w3.org/2000/svg" width="22" height="22" version="1.1">
 <g transform="translate(-326,-534.3622)">
  <g transform="translate(-134.71429,7.57145)">
   <g>
    <g transform="translate(-1,1)">
     <path transform="translate(461.71429,525.79075)" d="M 3,3 3,4 3,7 4,7 4,4 7,4 7,3 4,3 Z m 12,0 0,1 3,0 0,3 1,0 0,-4 z m -12,12 0,4 1,0 3,0 0,-1 -3,0 0,-3 z m 15,0 0,3 -3,0 0,1 4,0 0,-1 0,-3 z" style="opacity:1;fill:#4d4d4d;fill-opacity:1;"/>
     <g transform="translate(17.468746,-2.5625215)">
      <circle style="opacity:1;fill:#4d4d4d;fill-opacity:1;fill-rule:evenodd;" cx="458.277" cy="536.291" r="2.5"/>
      <circle style="opacity:1;fill:#4d4d4d;fill-opacity:1;fill-rule:evenodd;" cx="452.277" cy="536.353" r="2.5"/>
      <circle style="opacity:1;fill:#4d4d4d;fill-opacity:1;fill-rule:evenodd;" cx="452.214" cy="542.416" r="2.5"/>
      <circle style="opacity:1;fill:#4d4d4d;fill-opacity:1;fill-rule:evenodd;" cx="458.277" cy="542.416" r="2.5"/>
     </g>
    </g>
   </g>
  </g>
 </g>
</svg>
