<?xml version="1.0" encoding="UTF-8" standalone="no"?>
<svg xmlns="http://www.w3.org/2000/svg" width="22" height="22" version="1.1">
 <g transform="translate(-326,-534.3622)">
  <g transform="translate(-21.1875,-0.3125005)">
   <g transform="translate(-8.0214363e-8,1.8408208e-6)">
    <g transform="translate(20.1875,1.3125005)">
     <g transform="matrix(0.66666666,0,0,0.66666666,70.952385,189.83024)">
      <g transform="translate(27.682101,0.12839698)">
       <g transform="matrix(0.97603016,0,0,-0.97603016,8.9380976,1042.0695)">
        <g transform="translate(0,2.1929912e-5)">
         <g style="fill:#4d4d4d;fill-opacity:1;" transform="matrix(0.0251118,0,0,-0.0251118,366.74154,529.08232)">
          <path style="fill:#4d4d4d;fill-opacity:1;" d="M 4.5996094 3 C 4.1564089 3 3.8007812 3.357581 3.8007812 3.8007812 L 3.8007812 18.199219 C 3.8007812 18.642419 4.1564089 19 4.5996094 19 L 17.400391 19 C 17.843587 19 18.199219 18.642419 18.199219 18.199219 L 18.199219 3.8007812 C 18.199219 3.357581 17.843587 3 17.400391 3 L 4.5996094 3 z M 10.925781 5.34375 C 10.995038 5.34375 11.069007 5.3486259 11.146484 5.3574219 L 11.148438 5.3574219 C 12.199374 5.4462822 12.942708 5.8026534 13.357422 6.4179688 C 13.818377 7.1018697 13.753337 7.9363912 13.673828 8.3730469 C 13.666661 8.4124467 13.637094 8.4441773 13.597656 8.4511719 C 13.558065 8.458224 13.518322 8.4388484 13.498047 8.4042969 C 13.41553 8.2635039 13.274054 8.0517917 13.074219 7.8378906 C 12.589425 7.3190243 11.987666 7.0449219 11.332031 7.0449219 C 11.277492 7.0449219 11.221838 7.0470444 11.166016 7.0507812 L 11.166016 10.927734 C 11.166016 11.646436 10.626446 12.236216 9.8828125 12.330078 C 9.8153767 12.338567 9.7470466 12.34375 9.6796875 12.34375 C 8.9622891 12.34375 8.3604919 11.858272 8.2792969 11.214844 C 8.235547 10.868256 8.3428905 10.523542 8.5839844 10.244141 C 8.8250591 9.9647393 9.170022 9.7848688 9.5546875 9.7363281 C 9.7754299 9.7084455 9.9986492 9.7262643 10.207031 9.7890625 L 10.207031 5.8359375 C 10.207031 5.6088329 10.395954 5.34375 10.925781 5.34375 z M 7.1621094 13.65625 L 11.070312 13.65625 C 11.379522 13.65625 11.626953 13.905634 11.626953 14.214844 C 11.626953 14.524053 11.379522 14.773438 11.070312 14.773438 L 7.1621094 14.773438 C 6.8529001 14.773438 6.6054688 14.524053 6.6054688 14.214844 C 6.6054688 13.905634 6.8529001 13.65625 7.1621094 13.65625 z M 10.929688 15.539062 L 14.837891 15.539062 C 15.1471 15.539062 15.394531 15.788447 15.394531 16.097656 C 15.394531 16.406866 15.1471 16.65625 14.837891 16.65625 L 10.929688 16.65625 C 10.620478 16.65625 10.373047 16.406866 10.373047 16.097656 C 10.373047 15.788447 10.620478 15.539062 10.929688 15.539062 z" transform="matrix(61.199825,0,0,61.199825,-428.38148,-428.38375)"/>
         </g>
        </g>
       </g>
      </g>
     </g>
    </g>
   </g>
  </g>
 </g>
</svg>
