<?xml version="1.0" encoding="UTF-8" standalone="no"?>
<svg xmlns="http://www.w3.org/2000/svg" width="22" height="22" version="1.1">
 <g transform="translate(-326,-534.3622)">
  <g>
   <g transform="translate(-30.215497,14.558443)">
    <g transform="translate(27.682101,0.12839698)">
     <g transform="matrix(0.97603016,0,0,-0.97603016,8.9380976,1042.0695)">
      <g transform="translate(-1.0245585,-1.0245243)">
       <g transform="translate(0,2.1929912e-5)">
        <g transform="matrix(1.0245585,0,0,-1.0245585,-5.5374294,1083.7332)">
         <g transform="matrix(1.3409571,0,0,1.3409571,-483.62356,-163.95726)">
          <g style="fill:#4d4d4d;fill-opacity:1" transform="matrix(0.01949637,0,0,0.01949637,606.00265,522.99918)">
           <g style="fill:#4d4d4d;fill-opacity:1">
            <g style="fill:#4d4d4d;fill-opacity:1">
             <path style="fill:#4d4d4d;fill-opacity:1" d="M 8 3 C 7.4479999 3 7 3.4479999 7 4 L 7 5 L 8 5 L 8 4.5 C 8 4.2239999 8.2239999 4 8.5 4 L 17.5 4 C 17.776 4 18 4.2239999 18 4.5 L 18 13.5 C 18 13.776 17.776 14 17.5 14 L 17 14 L 17 15 L 18 15 C 18.552 15 19 14.552 19 14 L 19 4 C 19 3.4479999 18.552 3 18 3 L 8 3 z M 4 6 C 3.4479999 6 3 6.4479999 3 7 L 3 18 C 3 18.552 3.4479999 19 4 19 L 15 19 C 15.552 19 16 18.552 16 18 L 16 7 C 16 6.4479999 15.552 6 15 6 L 4 6 z M 7.9355469 9.1992188 C 8.3092239 9.1992188 8.6132812 9.5033041 8.6132812 9.8769531 L 8.6132812 10.558594 L 10.1875 10.558594 L 10.1875 9.8769531 C 10.1875 9.5033041 10.491361 9.1992188 10.865234 9.1992188 C 11.238883 9.1992188 11.542969 9.5033041 11.542969 9.8769531 L 11.542969 10.558594 L 12.222656 10.558594 C 12.596249 10.558594 12.900391 10.862483 12.900391 11.236328 C 12.900391 11.609977 12.596221 11.914062 12.222656 11.914062 L 11.542969 11.914062 L 11.542969 13.486328 L 12.222656 13.486328 C 12.596361 13.486328 12.900391 13.79047 12.900391 14.164062 C 12.900391 14.537655 12.596389 14.841797 12.222656 14.841797 L 11.542969 14.841797 L 11.542969 15.521484 C 11.542969 15.895358 11.239024 16.199219 10.865234 16.199219 C 10.491641 16.199219 10.1875 15.895358 10.1875 15.521484 L 10.1875 14.841797 L 8.6132812 14.841797 L 8.6132812 15.521484 C 8.6132813 15.895358 8.3092239 16.199219 7.9355469 16.199219 C 7.5617297 16.199219 7.2578125 15.895358 7.2578125 15.521484 L 7.2578125 14.841797 L 6.578125 14.841797 C 6.2044479 14.841797 5.9003906 14.537655 5.9003906 14.164062 C 5.9003906 13.79047 6.2044479 13.486328 6.578125 13.486328 L 7.2578125 13.486328 L 7.2578125 11.914062 L 6.578125 11.914062 C 6.2044479 11.914062 5.9003906 11.609977 5.9003906 11.236328 C 5.9003906 10.862511 6.2044479 10.558594 6.578125 10.558594 L 7.2578125 10.558594 L 7.2578125 9.8769531 C 7.2578125 9.5033041 7.5617297 9.1992188 7.9355469 9.1992188 z" transform="matrix(38.249993,0,0,38.249993,-114.74992,-114.74992)"/>
            </g>
           </g>
          </g>
         </g>
        </g>
       </g>
      </g>
     </g>
    </g>
   </g>
  </g>
  <g transform="matrix(1.4,0,0,1.4,-117.79504,-219.648)">
   <g style="fill:#ffffff;fill-opacity:1" transform="matrix(0.31250001,0,0,0.31250001,218.08584,377.53695)">
    <g style="fill:#ffffff;fill-opacity:1" transform="matrix(1.00004,0,0,1.00004,-226.61766,-49.726823)">
     <g transform="matrix(0.06404355,0,0,0.06404355,556.59508,586.06526)" style="fill:#ffffff;fill-opacity:1">
      <path style="fill:#4d4d4d;fill-opacity:1" d="m 86.093,163.744 77.646,0 0,-77.657 -77.646,0 z"/>
     </g>
    </g>
   </g>
  </g>
 </g>
</svg>
