<?xml version="1.0" encoding="UTF-8" standalone="no"?>
<svg xmlns="http://www.w3.org/2000/svg" width="22" height="22" version="1.1">
 <g transform="translate(-544.57141,-742.93359)">
  <g transform="matrix(1.4497757,0,0,1.4497757,543.72993,-760.2036)">
   <g transform="translate(-401.01229,510.63371)">
    <g transform="translate(5.05585,-5.251147)">
     <g style="stroke:#000000;stroke-opacity:0.8" transform="translate(-11.317,5.8824915)">
      <g transform="translate(1.8733025,-0.28410538)">
       <g transform="translate(-2.0518724,-0.97858527)">
        <g transform="translate(0.22097092,0.44194173)">
         <g transform="translate(1.3573925,-1.2626907)">
          <g transform="translate(-0.41037448,-0.59977801)">
           <g transform="matrix(0.7863692,0,0,0.78394543,92.594038,111.881)">
            <g transform="matrix(1.2716673,0,0,1.275599,-114.25636,-140.42007)">
             <g transform="matrix(0.7863692,0,0,0.78394543,93.325829,112.35451)">
              <g transform="matrix(1.2716673,0,0,1.275599,-124.33958,-145.6548)">
               <g transform="translate(2.9673242,4.7350927)">
                <g transform="translate(0.03156729,-1.894036)">
                 <g transform="translate(-1.3573925,-0.63134534)">
                  <g transform="translate(9.3754783,2.3044104)">
                   <g style="fill:#4d4d4d;fill-opacity:1" transform="matrix(0.67693428,0,0,0.67484781,138.29355,169.85712)">
                    <g transform="matrix(-0.0129682,0,0,0.01300829,452.2648,565.86212)" style="fill:#4d4d4d;fill-opacity:1">
                     <g transform="matrix(-7.0732846,0,0,7.0017718,2712.2317,-7878.2911)" style="fill:#4d4d4d;fill-opacity:1">
                      <g transform="matrix(-0.14207118,0,0,0.14352228,234.08612,1089.5998)" style="fill:#4d4d4d;fill-opacity:1">
                       <g transform="matrix(-7.0732846,0,0,7.0017718,2712.2317,-7878.2911)" style="fill:#4d4d4d;fill-opacity:1">
                        <g style="fill:#4d4d4d;fill-opacity:1" transform="matrix(0.11770342,0,0,0.11770342,-131.56937,724.00624)">
                         <g transform="matrix(1.5985556,0,0,1.6148825,-464.97809,144.54558)" style="fill:#4d4d4d;fill-opacity:1;">
                          <path d="m 900.199,0 -46.514,0 c -11.046,0 -20,8.954 -20,20 l 0,24.89 c 0,11.045 -8.954,20 -20,20 l -43.37,0 c -11.046,0 -20,-8.955 -20,-20 l 0,-24.89 c 0,-11.046 -8.953,-20 -20,-20 L 208.121,0 c -11.046,0 -20,8.954 -20,20 l 0,24.89 c 0,11.045 -8.954,20 -20,20 l -43.37,0 c -11.046,0 -20,-8.955 -20,-20 l 0,-24.89 c 0,-11.046 -8.954,-20 -20,-20 l -44.95,0 c -11.046,0 -20,8.954 -20,20 l 0,900 c 0,11.046 8.954,20 20,20 l 44.95,0 c 11.046,0 20,-8.954 20,-20 l 0,-18.285 c 0,-11.046 8.954,-20 20,-20 l 43.37,0 c 11.046,0 20,8.954 20,20 l 0,18.285 c 0,11.046 8.954,20 20,20 l 522.194,0 c 11.047,0 20,-8.954 20,-20 l 0,-18.285 c 0,-11.046 8.954,-20 20,-20 l 43.37,0 c 11.046,0 20,8.954 20,20 l 0,18.285 c 0,11.046 8.954,20 20,20 l 46.514,0 c 11.046,0 20,-8.954 20,-20 l 0,-900 c 0,-11.045 -8.954,-20 -20,-20 z M 188.121,765.369 c 0,11.046 -8.954,20 -20,20 l -43.37,0 c -11.046,0 -20,-8.954 -20,-20 l 0,-43.37 c 0,-11.045 8.954,-20 20,-20 l 43.37,0 c 11.046,0 20,8.955 20,20 l 0,43.37 z m 0,-179.716 c 0,11.045 -8.954,20 -20,20 l -43.37,0 c -11.046,0 -20,-8.955 -20,-20 l 0,-43.371 c 0,-11.045 8.954,-20 20,-20 l 43.37,0 c 11.046,0 20,8.955 20,20 l 0,43.371 z m 0,-179.717 c 0,11.047 -8.954,20 -20,20 l -43.37,0 c -11.046,0 -20,-8.953 -20,-20 l 0,-43.37 c 0,-11.046 8.954,-20 20,-20 l 43.37,0 c 11.046,0 20,8.954 20,20 l 0,43.37 z m 0,-179.716 c 0,11.046 -8.954,20 -20,20 l -43.37,0 c -11.046,0 -20,-8.954 -20,-20 l 0,-43.37 c 0,-11.045 8.954,-20 20,-20 l 43.37,0 c 11.046,0 20,8.955 20,20 l 0,43.37 z m 475.715,608.047 c 0,11.047 -8.954,20 -20,20 l -347.672,0 c -11.046,0 -20,-8.953 -20,-20 l 0,-160.722 c 0,-11.046 8.954,-20 20,-20 l 347.672,0 c 11.046,0 20,8.954 20,20 l 0,160.722 0,0 z m 0,-283.906 c 0,11.046 -8.954,20 -20,20 l -347.672,0 c -11.046,0 -20,-8.954 -20,-20 l 0,-160.722 c 0,-11.045 8.954,-20 20,-20 l 347.672,0 c 11.046,0 20,8.955 20,20 l 0,160.722 0,0 z m 0,-283.907 c 0,11.046 -8.954,20 -20,20 l -347.672,0 c -11.046,0 -20,-8.954 -20,-20 l 0,-160.722 c 0,-11.045 8.954,-20 20,-20 l 347.672,0 c 11.046,0 20,8.955 20,20 l 0,160.722 0,0 z m 169.85,498.915 c 0,11.046 -8.954,20 -20,20 l -43.37,0 c -11.046,0 -20,-8.954 -20,-20 l 0,-43.37 c 0,-11.045 8.954,-20 20,-20 l 43.37,0 c 11.046,0 20,8.955 20,20 l 0,43.37 z m 0,-179.716 c 0,11.045 -8.954,20 -20,20 l -43.37,0 c -11.046,0 -20,-8.955 -20,-20 l 0,-43.371 c 0,-11.045 8.954,-20 20,-20 l 43.37,0 c 11.046,0 20,8.955 20,20 l 0,43.371 z m 0,-179.717 c 0,11.047 -8.954,20 -20,20 l -43.37,0 c -11.046,0 -20,-8.953 -20,-20 l 0,-43.37 c 0,-11.046 8.954,-20 20,-20 l 43.37,0 c 11.046,0 20,8.954 20,20 l 0,43.37 z m 0,-179.716 c 0,11.046 -8.954,20 -20,20 l -43.37,0 c -11.046,0 -20,-8.954 -20,-20 l 0,-43.37 c 0,-11.045 8.954,-20 20,-20 l 43.37,0 c 11.046,0 20,8.955 20,20 l 0,43.37 z" style="fill:#4d4d4d;fill-opacity:1;"/>
                         </g>
                        </g>
                       </g>
                      </g>
                     </g>
                    </g>
                   </g>
                  </g>
                 </g>
                </g>
               </g>
              </g>
             </g>
            </g>
           </g>
          </g>
         </g>
        </g>
       </g>
      </g>
     </g>
    </g>
   </g>
  </g>
 </g>
</svg>
