<?xml version="1.0" encoding="UTF-8" standalone="no"?>
<svg xmlns="http://www.w3.org/2000/svg" width="22" height="22" version="1.1">
 <g transform="translate(-326,-534.3622)">
  <g style="fill:#da4453;fill-opacity:1" transform="translate(-1,1)">
   <g style="fill:#da4453;fill-opacity:1">
    <g style="fill:#da4453;fill-opacity:1">
     <g style="fill:#da4453;fill-opacity:1" transform="translate(-4.6361896e-6,-3.1814477e-6)">
      <g style="fill:#da4453;fill-opacity:1" transform="matrix(0.03768616,0,0,0.03768616,327.99993,535.64791)">
       <path d="m 432.14438,155.42075 c -62.343,22.953 -109.84,39.299 -151.629,90.978 -37.229,46.05 -90.98,62.011 -151.628,31.657 l 0,165.457 -30.328996,0 0,-409.396004 c -0.001,-8.382 6.780996,-15.163 15.161996,-15.163 8.38,0 15.166,6.781 15.166,15.163 33.67,48.953 92.189,59.795 151.628,60.653 90.976,1.33 151.63,60.651004 151.63,60.651004 z" style="fill:#da4453;fill-opacity:1"/>
      </g>
     </g>
    </g>
   </g>
  </g>
 </g>
</svg>
