<?xml version="1.0" encoding="UTF-8" standalone="no"?>
<svg xmlns="http://www.w3.org/2000/svg" width="22" height="22" version="1.1">
 <g transform="translate(-326,-534.3622)">
  <g transform="translate(-1.0000001,1.0000018)">
   <g transform="matrix(0.66666666,0,0,0.66666666,70.952385,189.83024)">
    <g transform="translate(27.682101,0.12839698)">
     <g transform="matrix(0.97603016,0,0,-0.97603016,8.9380976,1042.0695)">
      <g transform="translate(0,2.1929912e-5)">
       <g transform="matrix(0.0251118,0,0,-0.0251118,366.74154,529.08232)" style="fill:#4d4d4d;fill-opacity:1;">
        <path style="fill:#4d4d4d;fill-opacity:1;" d="M 4.5996094 3 C 4.1564089 3 3.8007812 3.357581 3.8007812 3.8007812 L 3.8007812 18.199219 C 3.8007812 18.642419 4.1564089 19 4.5996094 19 L 17.400391 19 C 17.843587 19 18.199219 18.642419 18.199219 18.199219 L 18.199219 3.8007812 C 18.199219 3.357581 17.843587 3 17.400391 3 L 4.5996094 3 z M 12.027344 6 L 11.308594 9.5 L 14.082031 11 L 9.9726562 16 L 10.691406 12.5 L 7.9179688 11 L 12.027344 6 z" transform="matrix(61.199825,0,0,61.199825,-428.38148,-428.38374)"/>
       </g>
      </g>
     </g>
    </g>
   </g>
  </g>
 </g>
</svg>
