<?xml version="1.0" encoding="UTF-8" standalone="no"?>
<svg xmlns="http://www.w3.org/2000/svg" width="22" height="22" version="1.1">
 <g transform="translate(-326,-534.3622)">
  <g transform="matrix(0.66666661,0,0,0.66666661,69.952403,190.83023)">
   <rect y="522.23" x="327.87" height="16.5" width="0" style="fill:#49535a;fill-opacity:1;"/>
   <rect y="519.15" x="354.93" height="16.5" width="0" style="fill:#49535a;fill-opacity:1;"/>
   <rect y="522.23" x="327.87" height="16.5" width="0" style="fill:#49535a;fill-opacity:1;"/>
   <rect y="522.23" x="327.87" height="16.5" width="0" style="fill:#49535a;fill-opacity:1;"/>
   <rect y="514.98" x="316.91" height="16.5" width="0" style="fill:#49535a;fill-opacity:1;"/>
   <rect y="511.9" x="343.97" height="16.5" width="0" style="fill:#49535a;fill-opacity:1;"/>
   <rect y="514.98" x="316.91" height="16.5" width="0" style="fill:#49535a;fill-opacity:1;"/>
   <rect y="514.98" x="316.91" height="16.5" width="0" style="fill:#49535a;fill-opacity:1;"/>
   <rect y="521.3" x="325.93" height="16.5" width="0" style="fill:#49535a;fill-opacity:1;"/>
   <rect y="518.22" x="352.99" height="16.5" width="0" style="fill:#49535a;fill-opacity:1;"/>
   <rect y="521.3" x="325.93" height="16.5" width="0" style="fill:#49535a;fill-opacity:1;"/>
   <rect y="521.3" x="325.93" height="16.5" width="0" style="fill:#49535a;fill-opacity:1;"/>
   <rect style="fill:#49535a;fill-opacity:1;" width="0" height="16.5" x="327.87" y="522.23"/>
   <rect style="fill:#49535a;fill-opacity:1;" width="0" height="16.5" x="354.93" y="519.15"/>
   <rect style="fill:#49535a;fill-opacity:1;" width="0" height="16.5" x="327.87" y="522.23"/>
   <rect style="fill:#49535a;fill-opacity:1;" width="0" height="16.5" x="327.87" y="522.23"/>
   <rect style="fill:#49535a;fill-opacity:1;" width="0" height="16.5" x="316.91" y="514.98"/>
   <rect style="fill:#49535a;fill-opacity:1;" width="0" height="16.5" x="343.97" y="511.9"/>
   <rect style="fill:#49535a;fill-opacity:1;" width="0" height="16.5" x="316.91" y="514.98"/>
   <rect style="fill:#49535a;fill-opacity:1;" width="0" height="16.5" x="316.91" y="514.98"/>
   <rect style="fill:#49535a;fill-opacity:1;" width="0" height="16.5" x="325.93" y="521.3"/>
   <rect style="fill:#49535a;fill-opacity:1;" width="0" height="16.5" x="352.99" y="518.22"/>
   <rect style="fill:#49535a;fill-opacity:1;" width="0" height="16.5" x="325.93" y="521.3"/>
   <rect style="fill:#49535a;fill-opacity:1;" width="0" height="16.5" x="325.93" y="521.3"/>
   <rect style="fill:#49535a;fill-opacity:1;" width="0" height="16.5" x="324.07" y="527.3"/>
   <rect style="fill:#49535a;fill-opacity:1;" width="0" height="16.5" x="351.13" y="524.22"/>
   <rect style="fill:#49535a;fill-opacity:1;" width="0" height="16.5" x="324.07" y="527.3"/>
   <rect style="fill:#49535a;fill-opacity:1;" width="0" height="16.5" x="324.07" y="527.3"/>
   <rect style="fill:#49535a;fill-opacity:1;" width="0" height="16.5" x="300.09" y="521.85"/>
   <rect style="fill:#49535a;fill-opacity:1;" width="0" height="16.5" x="327.15" y="518.77"/>
   <rect style="fill:#49535a;fill-opacity:1;" width="0" height="16.5" x="300.09" y="521.85"/>
   <rect style="fill:#49535a;fill-opacity:1;" width="0" height="16.5" x="300.09" y="521.85"/>
   <rect y="522.23" x="327.87" height="16.5" width="0" style="fill:#49535a;fill-opacity:1;"/>
   <rect y="519.15" x="354.93" height="16.5" width="0" style="fill:#49535a;fill-opacity:1;"/>
   <rect y="522.23" x="327.87" height="16.5" width="0" style="fill:#49535a;fill-opacity:1;"/>
   <rect y="522.23" x="327.87" height="16.5" width="0" style="fill:#49535a;fill-opacity:1;"/>
   <rect y="514.98" x="316.91" height="16.5" width="0" style="fill:#49535a;fill-opacity:1;"/>
   <rect y="511.9" x="343.97" height="16.5" width="0" style="fill:#49535a;fill-opacity:1;"/>
   <rect y="514.98" x="316.91" height="16.5" width="0" style="fill:#49535a;fill-opacity:1;"/>
   <rect y="514.98" x="316.91" height="16.5" width="0" style="fill:#49535a;fill-opacity:1;"/>
   <rect y="521.3" x="325.93" height="16.5" width="0" style="fill:#49535a;fill-opacity:1;"/>
   <rect y="518.22" x="352.99" height="16.5" width="0" style="fill:#49535a;fill-opacity:1;"/>
   <rect y="521.3" x="325.93" height="16.5" width="0" style="fill:#49535a;fill-opacity:1;"/>
   <rect y="521.3" x="325.93" height="16.5" width="0" style="fill:#49535a;fill-opacity:1;"/>
   <rect y="541.73" x="362.49" height="11" width="0" style="fill:#4d4d4d;fill-opacity:1;"/>
   <rect y="539.67" x="380.53" height="11" width="0" style="fill:#4d4d4d;fill-opacity:1;"/>
   <rect y="541.73" x="362.49" height="11" width="0" style="fill:#4d4d4d;fill-opacity:1;"/>
   <rect y="541.73" x="362.49" height="11" width="0" style="fill:#4d4d4d;fill-opacity:1;"/>
   <rect y="536.89" x="355.18" height="11" width="0" style="fill:#4d4d4d;fill-opacity:1;"/>
   <rect y="534.84" x="373.22" height="11" width="0" style="fill:#4d4d4d;fill-opacity:1;"/>
   <rect y="536.89" x="355.18" height="11" width="0" style="fill:#4d4d4d;fill-opacity:1;"/>
   <rect y="536.89" x="355.18" height="11" width="0" style="fill:#4d4d4d;fill-opacity:1;"/>
   <rect y="541.11" x="361.2" height="11" width="0" style="fill:#4d4d4d;fill-opacity:1;"/>
   <rect y="539.05" x="379.24" height="11" width="0" style="fill:#4d4d4d;fill-opacity:1;"/>
   <rect y="541.11" x="361.2" height="11" width="0" style="fill:#4d4d4d;fill-opacity:1;"/>
   <rect y="541.11" x="361.2" height="11" width="0" style="fill:#4d4d4d;fill-opacity:1;"/>
   <rect y="520.32" x="389.09" height="22.965" width="22.965" style="opacity:1;fill:#4d4d4d;fill-opacity:1;fill-rule:evenodd;stroke:#0092ff;stroke-width:1.0345099;stroke-linecap:round;stroke-linejoin:round;stroke-opacity:1"/>
  </g>
 </g>
</svg>
