<?xml version="1.0" encoding="UTF-8" standalone="no"?>
<svg xmlns="http://www.w3.org/2000/svg" width="22" height="22" version="1.1">
 <g transform="translate(-326,-534.3622)">
  <g transform="translate(-1,1)">
   <g transform="translate(-224.28572,-74.2857)">
    <path style="opacity:1;fill:#4d4d4d;fill-opacity:1;" d="M 11 3 C 6.5680032 3 3 6.5680032 3 11 C 3 15.431997 6.5680032 19 11 19 C 15.431997 19 19 15.431997 19 11 C 19 6.5680032 15.431997 3 11 3 z M 14.457031 7.4003906 C 14.636556 7.4003906 14.788428 7.4621739 14.914062 7.5878906 L 15.830078 8.5039062 C 15.955712 8.629623 16.019614 8.7833661 16.019531 8.9628906 C 16.019531 9.1424978 15.955712 9.2942051 15.830078 9.4199219 L 10.955078 14.294922 L 10.039062 15.210938 C 9.9133457 15.336572 9.7596027 15.400391 9.5800781 15.400391 C 9.4004709 15.400391 9.248681 15.336654 9.1230469 15.210938 L 8.2070312 14.294922 L 5.7695312 11.857422 C 5.6438145 11.731788 5.5800781 11.579915 5.5800781 11.400391 C 5.5800781 11.220783 5.6438145 11.067123 5.7695312 10.941406 L 6.6855469 10.025391 C 6.8112636 9.8996739 6.9629709 9.8378906 7.1425781 9.8378906 C 7.3221027 9.8378906 7.4758457 9.8996739 7.6015625 10.025391 L 9.5800781 12.013672 L 13.998047 7.5878906 C 14.123681 7.4621739 14.277424 7.4003906 14.457031 7.4003906 z" transform="translate(551.28572,607.6479)"/>
   </g>
  </g>
 </g>
</svg>
