<?xml version="1.0" encoding="UTF-8" standalone="no"?>
<svg xmlns="http://www.w3.org/2000/svg" width="22" height="22" version="1.1">
 <g transform="translate(-326,-534.3622)">
  <g transform="translate(-0.99999987,0.99999835)">
   <g transform="matrix(0.66666664,0,0,0.66666664,70.952391,189.83025)">
    <g transform="translate(374.61313,-496.84069)" style="fill:none;stroke:#000000;stroke-opacity:1">
     <g transform="matrix(1.0079909,0,0,1.0079909,-452.94077,476.65222)">
      <g transform="matrix(1.5359999,0,0,1.5359999,383.7381,-1067.9379)">
       <g transform="matrix(0.12485916,0,0,0.12485916,3.0932607,1033.6287)" style="fill:#4d4d4d;fill-opacity:1">
        <path style="fill:#4d4d4d;fill-opacity:1;" d="M 1.1503906 3 C 0.73325814 3 0.3984375 3.33678 0.3984375 3.7539062 L 0.3984375 18.246094 C 0.3984375 18.663225 0.73325814 19 1.1503906 19 L 20.849609 19 C 21.266735 19 21.601562 18.663225 21.601562 18.246094 L 21.601562 3.7539062 C 21.601562 3.33678 21.266735 3 20.849609 3 L 1.1503906 3 z M 8.5 8 L 13.5 11 L 8.5 14 L 8.5 8 z" transform="matrix(7.7593094,0,0,7.7593094,366.26702,60.097102)"/>
       </g>
      </g>
     </g>
    </g>
   </g>
  </g>
 </g>
</svg>
