<?xml version="1.0" encoding="UTF-8" standalone="no"?>
<svg xmlns="http://www.w3.org/2000/svg" width="22" height="22" version="1.1">
 <g transform="translate(0,-1030.3622)">
  <g transform="translate(-61.043672,-14.648105)">
   <g transform="translate(-265.95633,511.6481)">
    <g transform="matrix(0.66666667,0,0,0.66666667,70.952371,189.83022)">
     <g transform="translate(2.846752e-6,1.2081979e-6)">
      <path style="opacity:1;fill:#4d4d4d;fill-opacity:1;fill-rule:evenodd;" d="M 11 3 A 8 8 0 0 0 3 11 A 8 8 0 0 0 11 19 A 8 8 0 0 0 19 11 A 8 8 0 0 0 11 3 z M 10.994141 6.5 C 11.758217 6.5 12.378824 6.7191787 12.857422 7.1582031 C 13.336019 7.5890974 13.576172 8.1416095 13.576172 8.8164062 C 13.576172 9.1090892 13.49547 9.4062182 13.335938 9.7070312 C 13.176405 10.007844 13.03415 10.223434 12.908203 10.353516 C 12.790653 10.475467 12.622604 10.634956 12.404297 10.830078 L 12.341797 10.890625 C 11.829614 11.337779 11.572266 11.785267 11.572266 12.232422 L 11.572266 12.71875 L 10.388672 12.71875 L 10.388672 12.146484 C 10.388672 11.780631 10.469374 11.467194 10.628906 11.207031 C 10.788439 10.938739 11.069627 10.625302 11.472656 10.267578 C 11.69936 10.064326 11.858811 9.9139672 11.951172 9.8164062 C 12.051929 9.7107152 12.147873 9.5694868 12.240234 9.390625 C 12.340992 9.2036331 12.392578 9.0115282 12.392578 8.8164062 C 12.392578 8.4424225 12.265565 8.1417048 12.013672 7.9140625 C 11.770175 7.6864202 11.430756 7.5722656 10.994141 7.5722656 C 10.272046 7.5722656 9.7764988 7.9636528 9.5078125 8.7441406 L 8.4238281 8.3046875 C 8.6001535 7.8412729 8.9038125 7.4264005 9.3320312 7.0605469 C 9.7686464 6.6865631 10.322425 6.5 10.994141 6.5 z M 10.980469 13.841797 C 11.223966 13.841797 11.426405 13.923336 11.585938 14.085938 C 11.753866 14.248539 11.837891 14.44228 11.837891 14.669922 C 11.837891 14.897564 11.753866 15.093258 11.585938 15.255859 C 11.426405 15.418461 11.223966 15.5 10.980469 15.5 C 10.736972 15.5 10.53121 15.418461 10.363281 15.255859 C 10.203749 15.093258 10.125 14.897564 10.125 14.669922 C 10.125 14.44228 10.203749 14.248539 10.363281 14.085938 C 10.53121 13.923336 10.736972 13.841797 10.980469 13.841797 z" transform="matrix(1.5,0,0,1.5,384.07144,515.29797)"/>
     </g>
    </g>
   </g>
  </g>
 </g>
</svg>
