<?xml version="1.0" encoding="UTF-8" standalone="no"?>
<svg xmlns="http://www.w3.org/2000/svg" width="22" height="22" version="1.1">
 <g transform="translate(-326,-534.3622)">
  <g transform="matrix(0.89234385,0,0,0.89234385,327.18854,-383.85415)">
   <g style="fill:#4d4d4d;fill-opacity:1" transform="matrix(0.36111955,0,0,0.36111955,2.03,1032.3558)">
    <g style="fill:#4d4d4d;fill-opacity:1">
     <g style="fill:#4d4d4d;fill-opacity:1">
      <path style="fill:#4d4d4d;fill-opacity:1" d="M 24.826,0 C 11.137,0 0,11.137 0,24.826 0,38.514 11.137,49.652 24.826,49.652 38.514,49.652 49.652,38.514 49.652,24.826 49.652,11.137 38.516,0 24.826,0 Z M 31,25.7 l -4.039,0 c 0,6.453 0,14.396 0,14.396 l -5.985,0 c 0,0 0,-7.866 0,-14.396 l -2.845,0 0,-5.088 2.845,0 0,-3.291 c 0,-2.357 1.12,-6.04 6.04,-6.04 l 4.435,0.017 0,4.939 c 0,0 -2.695,0 -3.219,0 -0.524,0 -1.269,0.262 -1.269,1.386 l 0,2.99 4.56,0 L 31,25.7 Z"/>
     </g>
    </g>
   </g>
  </g>
 </g>
</svg>
