<?xml version="1.0" encoding="UTF-8" standalone="no"?>
<svg xmlns="http://www.w3.org/2000/svg" width="22" height="22" version="1.1">
 <g transform="translate(-326,-534.3622)">
  <g transform="matrix(0.94209843,0,0,0.94209843,326.56543,-435.29253)">
   <g style="fill:#4d4d4d;fill-opacity:1" transform="matrix(0.0324885,0,0,0.0324885,2.5842007,1032.4343)">
    <g style="fill:#4d4d4d;fill-opacity:1">
     <g style="fill:#4d4d4d;fill-opacity:1">
      <path style="fill:#4d4d4d;fill-opacity:1" d="m 261.375,0 c -119.85,0 -216.75,96.9 -216.75,216.75 0,119.85 96.9,216.75 216.75,216.75 l 12.75,0 0,89.25 c 124.95,-58.65 204,-191.25 204,-306 C 478.125,96.9 381.225,0 261.375,0 Z m -12.75,229.5 -25.5,51 -38.25,0 25.5,-51 -38.25,0 0,-76.5 76.5,0 0,76.5 z m 102,0 -25.5,51 -38.25,0 25.5,-51 -38.25,0 0,-76.5 76.5,0 0,76.5 z"/>
     </g>
    </g>
   </g>
  </g>
 </g>
</svg>
