<?xml version="1.0" encoding="UTF-8" standalone="no"?>
<svg xmlns="http://www.w3.org/2000/svg" width="22" height="22" version="1.1">
 <g transform="translate(-326,-534.3622)">
  <g transform="translate(-226.72253,-49.757051)">
   <g transform="translate(553.72253,-447.24294)">
    <g transform="matrix(0.99930049,0,0,0.99930049,-1.0157889,1.7029521)">
     <rect ry=".5" y="1046.36" x="7" height="1" width="7" style="fill:#4d4d4d;fill-opacity:1;"/>
     <rect ry=".5" y="1048.36" x="14" height="1" width="1" style="fill:#4d4d4d;fill-opacity:1;"/>
     <rect ry=".5" y="1048.36" x="12" height="1" width="1" style="fill:#4d4d4d;fill-opacity:1;"/>
     <rect ry=".5" y="1048.36" x="10" height="1" width="1" style="fill:#4d4d4d;fill-opacity:1;"/>
     <rect ry=".5" y="1040.36" x="7" height="1" width="8" style="fill:#4d4d4d;fill-opacity:1;"/>
     <rect ry=".5" y="1034.36" x="7" height="1" width="10" style="fill:#4d4d4d;fill-opacity:1;"/>
     <rect ry=".5" y="1036.36" x="18" height="1" width="1" style="fill:#4d4d4d;fill-opacity:1;"/>
     <rect ry=".5" y="1036.36" x="16" height="1" width="1" style="fill:#4d4d4d;fill-opacity:1;"/>
     <rect ry=".5" y="1036.36" x="14" height="1" width="1" style="fill:#4d4d4d;fill-opacity:1;"/>
     <rect ry=".5" y="1042.36" x="16" height="1" width="1" style="fill:#4d4d4d;fill-opacity:1;"/>
     <rect ry=".5" y="1042.36" x="14" height="1" width="1" style="fill:#4d4d4d;fill-opacity:1;"/>
     <rect ry=".5" y="1042.36" x="12" height="1" width="1" style="fill:#4d4d4d;fill-opacity:1;"/>
     <rect ry=".5" y="1036.36" x="7" height="1" width="6" style="fill:#4d4d4d;fill-opacity:1;"/>
     <rect ry=".5" y="1042.36" x="7" height="1" width="4" style="fill:#4d4d4d;fill-opacity:1;"/>
     <rect ry=".5" y="1048.36" x="7" height="1" width="2" style="fill:#4d4d4d;fill-opacity:1;"/>
     <g style="font-size:5.8201046px;line-height:125%;letter-spacing:0px;word-spacing:0px;fill:#4d4d4d;fill-opacity:1;">
      <path style="font-family:'Product Sans';fill:#4d4d4d;fill-opacity:1" d="m 4.7075187,1037.363 -0.5354497,0 0,-3.3174 -0.7740739,0.3375 -0.2037036,-0.4539 1.169841,-0.5471 0.3433862,0 0,3.9809 z"/>
     </g>
     <g style="font-size:5.57410717px;line-height:125%;letter-spacing:0px;word-spacing:0px;fill:#4d4d4d;fill-opacity:1;">
      <path style="font-family:'Product Sans';fill:#4d4d4d;fill-opacity:1" d="m 5.4859614,1043.3842 -2.4303107,0 0,-0.5129 q 1.092525,-1.0981 1.3991009,-1.4325 0.2731313,-0.3066 0.3678911,-0.4627 0.09476,-0.1616 0.09476,-0.3957 0,-0.2397 -0.1895196,-0.4237 -0.1895197,-0.1839 -0.5072438,-0.1839 -0.2898536,0 -0.468225,0.1728 -0.1783714,0.1672 -0.2285384,0.3623 l -0.468225,-0.1895 q 0.09476,-0.301 0.3957616,-0.5686 0.3010018,-0.2675 0.780375,-0.2675 0.5295402,0 0.8695607,0.3233 0.3400206,0.3233 0.3400206,0.7748 0,0.5574 -0.6075777,1.1928 l -1.1148214,1.1204 1.7669919,0 0,0.4906 z"/>
     </g>
     <g style="font-size:5.89518356px;line-height:125%;letter-spacing:0px;word-spacing:0px;fill:#4d4d4d;fill-opacity:1;">
      <path style="font-family:'Product Sans';fill:#4d4d4d;fill-opacity:1" d="m 4.367521,1049.3929 q -0.4067676,0 -0.7899546,-0.2535 -0.3831869,-0.2535 -0.5305665,-0.7546 l 0.4951954,-0.2063 q 0.094323,0.3301 0.3124448,0.5129 0.2181218,0.1827 0.5128809,0.1827 0.3301303,0 0.5659377,-0.2063 0.2417025,-0.2063 0.2417025,-0.5129 0,-0.3006 -0.2475977,-0.507 -0.2417026,-0.2063 -0.5836232,-0.2063 l -0.3478158,0 0,-0.507 0.3065495,0 q 0.3183399,0 0.5246713,-0.1768 0.2122267,-0.1769 0.2122267,-0.4717 0,-0.277 -0.2063315,-0.4362 -0.2004362,-0.1592 -0.5010906,-0.1592 -0.5187761,0 -0.7015268,0.5247 l -0.5010906,-0.2122 q 0.1179037,-0.3243 0.418558,-0.5778 0.3006544,-0.2534 0.7840594,-0.2534 0.5423569,0 0.9019631,0.3183 0.3596062,0.3124 0.3596062,0.7958 0,0.5837 -0.5423569,0.8666 l 0,0.024 q 0.2947592,0.1238 0.4834051,0.3773 0.194541,0.2535 0.194541,0.6013 0,0.5365 -0.3949773,0.8902 -0.3949773,0.3478 -0.9668101,0.3478 z"/>
     </g>
    </g>
   </g>
  </g>
 </g>
</svg>
