<?xml version="1.0" encoding="UTF-8" standalone="no"?>
<svg xmlns="http://www.w3.org/2000/svg" width="22" height="22" version="1.1">
 <g transform="translate(-326,-534.3622)">
  <g transform="matrix(0.72727273,0,0,0.72727273,91.181819,149.46242)">
   <g transform="matrix(1.375,0,0,1.375,-126.75,-204.13582)">
    <g transform="matrix(0.71065976,0,0,0.71065976,24.113534,167.46139)">
     <g transform="matrix(1.9441321,0,0,1.9441321,385.04187,-1498.7175)">
      <g transform="translate(-401.01229,510.63371)">
       <g transform="translate(5.05585,-5.251147)">
        <g transform="translate(-11.317,5.8824915)" style="stroke:#000000;stroke-opacity:0.8">
         <g transform="translate(1.8733025,-0.28410538)">
          <g transform="translate(-2.0518724,-0.97858527)">
           <g transform="translate(0.22097092,0.44194173)">
            <g transform="translate(1.3573925,-1.2626907)">
             <g transform="translate(-0.41037448,-0.59977801)">
              <g transform="matrix(0.7863692,0,0,0.78394543,92.594038,111.881)">
               <g transform="matrix(1.2716673,0,0,1.275599,-114.25636,-140.42007)">
                <g transform="matrix(0.7863692,0,0,0.78394543,93.325829,112.35451)">
                 <g transform="matrix(1.2716673,0,0,1.275599,-115.14682,-140.92987)" style="fill:#4d4d4d;fill-opacity:1">
                  <g transform="matrix(0.7863692,0,0,0.78394543,93.325829,112.35451)" style="fill:#4d4d4d;fill-opacity:1">
                   <path style="fill:#4d4d4d;fill-opacity:1;" d="M 3.2851562 3 C 2.8363828 3 2.4726562 3.3640808 2.4726562 3.8125 L 2.4726562 18.1875 C 2.4726562 18.63632 2.8366979 19 3.2851562 19 L 18.714844 19 C 19.163628 19 19.527344 18.635919 19.527344 18.1875 L 19.527344 3.8125 C 19.527344 3.3636801 19.163313 3 18.714844 3 L 3.2851562 3 z M 14 4.4003906 L 15.199219 4.4003906 L 15.199219 6.8007812 L 17.599609 6.8007812 L 17.599609 8 L 15.199219 8 L 15.199219 10.400391 L 14 10.400391 L 14 8 L 11.599609 8 L 11.599609 6.8007812 L 14 6.8007812 L 14 4.4003906 z M 8.4199219 9.6738281 C 8.5983649 9.6572321 8.7870068 9.748666 8.9433594 9.953125 L 12.158203 14.158203 C 12.470919 14.567154 13.019079 14.602647 13.380859 14.236328 L 14.166016 13.439453 C 14.527481 13.073047 15.060451 13.11731 15.355469 13.539062 L 17.392578 16.451172 C 17.686965 16.873499 17.508764 17.214844 16.994141 17.214844 L 11 17.214844 L 5.2714844 17.214844 C 4.7569149 17.214844 4.5277846 16.842442 4.7597656 16.382812 L 7.9570312 10.044922 C 8.0728588 9.8151072 8.2414789 9.6904241 8.4199219 9.6738281 z" transform="matrix(0.92041992,0,0,0.92326562,417.87844,524.42332)"/>
                  </g>
                 </g>
                </g>
               </g>
              </g>
             </g>
            </g>
           </g>
          </g>
         </g>
        </g>
       </g>
      </g>
     </g>
    </g>
   </g>
  </g>
 </g>
</svg>
