<?xml version="1.0" encoding="UTF-8" standalone="no"?>
<svg xmlns="http://www.w3.org/2000/svg" width="22" height="22" version="1.1">
 <g transform="translate(-326,-534.3622)">
  <g transform="translate(-25.037278,1.0398439)" style="fill:#da4453;fill-opacity:1">
   <g transform="translate(24.107918,-1.0398444)">
    <g>
     <g transform="translate(0.34979544,0)">
      <g transform="matrix(0.8927938,0,0,0.8927938,35.744225,59.359003)">
       <path style="fill:#da4453;fill-opacity:1" d="m 341.69952,536.86709 0,6.83314 0,6.83318 c 0,0.49716 -0.65167,0.69616 -0.9199,0.2777 -1.53495,-2.39232 -3.05094,-3.64687 -8.37507,-3.91268 l 1.68078,5.46377 -2.51199,0 -1.69997,-5.52578 c -1.66539,-0.0763 -2.9946,-1.45192 -2.9946,-3.13619 0,-1.73335 1.4066,-3.14396 3.13996,-3.14396 7.3012,0 9.01754,-1.24995 10.76065,-3.96716 0.26847,-0.41819 0.92014,-0.21919 0.92014,0.27798 z"/>
       <g transform="matrix(0.4375,0,0,0.4375,197.90536,305.29124)">
        <g transform="matrix(0.89258405,0,0,0.89258405,-148.61667,18.977329)">
         <g transform="matrix(0.14324114,0,0,0.14324114,536.15337,581.15537)" style="fill:#da4453;fill-opacity:1">
          <path d="M 117.18,31.592 C 111.585,22.006 103.995,14.416 94.409,8.821 84.821,3.226 74.354,0.429 63.001,0.429 51.649,0.429 41.179,3.226 31.593,8.821 22.006,14.415 14.416,22.005 8.821,31.592 3.225,41.179 0.428,51.649 0.428,63 c 0,11.352 2.798,21.82 8.392,31.408 5.595,9.585 13.185,17.176 22.772,22.771 9.587,5.595 20.056,8.392 31.408,8.392 11.352,0 21.822,-2.797 31.408,-8.392 9.586,-5.594 17.176,-13.185 22.771,-22.771 5.594,-9.587 8.391,-20.057 8.391,-31.408 0,-11.352 -2.797,-21.822 -8.39,-31.408 l 0,0 z M 92.493,77.746 c 1.032,1.031 1.549,2.255 1.549,3.667 0,1.466 -0.517,2.716 -1.549,3.747 l -7.332,7.333 c -1.032,1.032 -2.281,1.548 -3.748,1.548 -1.412,0 -2.636,-0.516 -3.666,-1.548 L 63,77.746 48.253,92.493 c -1.032,1.032 -2.254,1.548 -3.666,1.548 -1.467,0 -2.716,-0.516 -3.748,-1.548 L 33.506,85.16 c -1.032,-1.031 -1.548,-2.281 -1.548,-3.747 0,-1.412 0.516,-2.636 1.548,-3.667 L 48.253,63 33.506,48.253 c -1.032,-1.031 -1.548,-2.254 -1.548,-3.666 0,-1.467 0.516,-2.716 1.548,-3.748 l 7.333,-7.332 c 1.032,-1.032 2.281,-1.548 3.748,-1.548 1.412,0 2.634,0.516 3.666,1.548 L 63,48.253 77.747,33.507 c 1.03,-1.032 2.254,-1.548 3.666,-1.548 1.467,0 2.716,0.516 3.748,1.548 l 7.332,7.332 c 1.032,1.032 1.549,2.281 1.549,3.748 0,1.412 -0.517,2.635 -1.549,3.666 L 77.747,63 l 14.746,14.746 0,0 z" style="fill:#da4453;fill-opacity:1"/>
         </g>
        </g>
       </g>
      </g>
     </g>
    </g>
   </g>
  </g>
 </g>
</svg>
