<?xml version="1.0" encoding="UTF-8" standalone="no"?>
<svg xmlns="http://www.w3.org/2000/svg" width="22" height="22" version="1.1">
 <g transform="translate(-326,-534.3622)">
  <g transform="translate(-1.0000002,1.0000002)">
   <g transform="translate(330,-500)">
    <g transform="translate(-412.88298,512.00351)">
     <g transform="translate(341.79698,500.25245)">
      <g transform="translate(-392.98822,-511.27795)">
       <g transform="matrix(1.3333333,0,0,1.3333333,-192.28663,-180.60423)">
        <g transform="translate(487.38743,509.59001)" style="stroke:#1f2a47;stroke-opacity:1">
         <g transform="matrix(0.52109202,0,0,0.52109202,-0.76995909,19.353185)" style="stroke:#1f2a47;stroke-opacity:1">
          <g transform="translate(-400.92463,-509.18113)">
           <g transform="translate(0.41988239,0.03484499)">
            <g transform="matrix(1.0037077,0,0,1.0037077,11.267145,17.846026)">
             <g transform="matrix(1.5263052,0,0,1.5263052,376.49864,-1040.1735)">
              <g transform="matrix(1.1526351,0,0,1.1526351,-4.8344134,-156.43331)">
               <g transform="matrix(0.49019093,0,0,0.49019093,12.268743,518.1207)">
                <path style="opacity:1;fill:#4d4d4d;fill-opacity:1;fill-rule:evenodd;" d="M 16.585938 3.0097656 L 10.605469 3.5703125 L 4.4335938 3.5703125 C 3.6708706 3.5137815 3.3613281 3.5843291 3.3613281 4.2753906 L 3.3613281 17.560547 C 3.3134211 18.318904 3.6294164 18.302734 4.3710938 18.302734 L 10.671875 18.302734 L 16.636719 19 C 17.356107 19 17.36287 18.658748 17.316406 17.900391 L 17.367188 3.8476562 C 17.367186 3.1565947 17.325741 2.9532346 16.585938 3.0097656 z M 9.8007812 7.5 L 11.199219 7.5 L 11.199219 10.300781 L 14 10.300781 L 14 11.699219 L 11.199219 11.699219 L 11.199219 14.5 L 9.8007812 14.5 L 9.8007812 11.699219 L 7 11.699219 L 7 10.300781 L 9.8007812 10.300781 L 9.8007812 7.5 z" transform="matrix(1.6628042,0,0,1.6628042,4.1774815,1006.5102)"/>
                <path d="m 33.843953,1036.9367 -1.956786,0 -2.708421,-2.2737 0,-19.9506 1.855796,-2.2737 2.809411,0 c 0.848365,-0.094 0.916631,0.023 0.916631,1.1721 l 0,22.0916 c 0.05328,1.261 -0.09168,1.2343 -0.916631,1.2343 z" style="opacity:1;fill:none;fill-opacity:1;stroke:#4d4d4d;stroke-width:0.8117075;stroke-opacity:1"/>
               </g>
              </g>
             </g>
            </g>
           </g>
          </g>
         </g>
        </g>
       </g>
      </g>
     </g>
    </g>
   </g>
  </g>
 </g>
</svg>
