<?xml version="1.0" encoding="UTF-8" standalone="no"?>
<svg xmlns="http://www.w3.org/2000/svg" width="22" height="22" version="1.1">
 <g transform="translate(-553.72253,-583.11926)">
  <g transform="translate(214.3973,51.795449)">
   <g>
    <g transform="translate(11.99004,-1.3297466)">
     <g transform="matrix(0.66666666,0,0,0.66666666,70.952385,189.83024)">
      <g transform="translate(27.682101,0.12839698)">
       <g transform="matrix(0.97603016,0,0,-0.97603016,8.9380976,1042.0695)">
        <g transform="translate(0,2.1929912e-5)">
         <g transform="matrix(0.0251118,0,0,-0.0251118,366.74154,529.08232)" style="fill:#4d4d4d;fill-opacity:1;">
          <path style="fill:#4d4d4d;fill-opacity:1;" d="M 3.8886719 3 C 3.3962273 3 3 3.357581 3 3.8007812 L 3 18.199219 C 3 18.642419 3.3962273 19 3.8886719 19 L 18.111328 19 C 18.603768 19 19 18.642419 19 18.199219 L 19 3.8007812 C 19 3.357581 18.603768 3 18.111328 3 L 3.8886719 3 z M 11 6 C 11.079701 6 11.157777 6.0400552 11.203125 6.1191406 L 13.949219 10.90625 C 14.883523 12.535667 14.320806 14.614541 12.691406 15.548828 C 11.062002 16.483132 8.9831197 15.920411 8.0488281 14.291016 C 7.4273198 13.207116 7.4718823 11.918546 8.0488281 10.90625 L 10.794922 6.1191406 C 10.840264 6.0400552 10.920299 6 11 6 z" transform="matrix(61.199825,0,0,61.199825,-407.86791,-471.75243)"/>
         </g>
        </g>
       </g>
      </g>
     </g>
    </g>
   </g>
  </g>
 </g>
</svg>
