<?xml version="1.0" encoding="UTF-8" standalone="no"?>
<svg xmlns="http://www.w3.org/2000/svg" width="22" height="22" version="1.1">
 <g transform="translate(-553.72253,-583.11926)">
  <g transform="matrix(0.90909091,0,0,0.90909091,257.4498,99.244536)">
   <g transform="matrix(0.81481461,0,0,0.81481461,11.608542,111.04542)">
    <rect style="fill:#49535a;fill-opacity:1;" width="0" height="16.5" x="327.87" y="522.23"/>
    <rect style="fill:#49535a;fill-opacity:1;" width="0" height="16.5" x="354.93" y="519.15"/>
    <rect style="fill:#49535a;fill-opacity:1;" width="0" height="16.5" x="327.87" y="522.23"/>
    <rect style="fill:#49535a;fill-opacity:1;" width="0" height="16.5" x="327.87" y="522.23"/>
    <rect style="fill:#49535a;fill-opacity:1;" width="0" height="16.5" x="316.91" y="514.98"/>
    <rect style="fill:#49535a;fill-opacity:1;" width="0" height="16.5" x="343.97" y="511.9"/>
    <rect style="fill:#49535a;fill-opacity:1;" width="0" height="16.5" x="316.91" y="514.98"/>
    <rect style="fill:#49535a;fill-opacity:1;" width="0" height="16.5" x="316.91" y="514.98"/>
    <rect style="fill:#49535a;fill-opacity:1;" width="0" height="16.5" x="325.93" y="521.3"/>
    <rect style="fill:#49535a;fill-opacity:1;" width="0" height="16.5" x="352.99" y="518.22"/>
    <rect style="fill:#49535a;fill-opacity:1;" width="0" height="16.5" x="325.93" y="521.3"/>
    <rect style="fill:#49535a;fill-opacity:1;" width="0" height="16.5" x="325.93" y="521.3"/>
    <rect y="522.23" x="327.87" height="16.5" width="0" style="fill:#49535a;fill-opacity:1;"/>
    <rect y="519.15" x="354.93" height="16.5" width="0" style="fill:#49535a;fill-opacity:1;"/>
    <rect y="522.23" x="327.87" height="16.5" width="0" style="fill:#49535a;fill-opacity:1;"/>
    <rect y="522.23" x="327.87" height="16.5" width="0" style="fill:#49535a;fill-opacity:1;"/>
    <rect y="514.98" x="316.91" height="16.5" width="0" style="fill:#49535a;fill-opacity:1;"/>
    <rect y="511.9" x="343.97" height="16.5" width="0" style="fill:#49535a;fill-opacity:1;"/>
    <rect y="514.98" x="316.91" height="16.5" width="0" style="fill:#49535a;fill-opacity:1;"/>
    <rect y="514.98" x="316.91" height="16.5" width="0" style="fill:#49535a;fill-opacity:1;"/>
    <rect y="521.3" x="325.93" height="16.5" width="0" style="fill:#49535a;fill-opacity:1;"/>
    <rect y="518.22" x="352.99" height="16.5" width="0" style="fill:#49535a;fill-opacity:1;"/>
    <rect y="521.3" x="325.93" height="16.5" width="0" style="fill:#49535a;fill-opacity:1;"/>
    <rect y="521.3" x="325.93" height="16.5" width="0" style="fill:#49535a;fill-opacity:1;"/>
    <rect y="527.3" x="324.07" height="16.5" width="0" style="fill:#49535a;fill-opacity:1;"/>
    <rect y="524.22" x="351.13" height="16.5" width="0" style="fill:#49535a;fill-opacity:1;"/>
    <rect y="527.3" x="324.07" height="16.5" width="0" style="fill:#49535a;fill-opacity:1;"/>
    <rect y="527.3" x="324.07" height="16.5" width="0" style="fill:#49535a;fill-opacity:1;"/>
    <rect y="521.85" x="300.09" height="16.5" width="0" style="fill:#49535a;fill-opacity:1;"/>
    <rect y="518.77" x="327.15" height="16.5" width="0" style="fill:#49535a;fill-opacity:1;"/>
    <rect y="521.85" x="300.09" height="16.5" width="0" style="fill:#49535a;fill-opacity:1;"/>
    <rect y="521.85" x="300.09" height="16.5" width="0" style="fill:#49535a;fill-opacity:1;"/>
    <rect style="fill:#49535a;fill-opacity:1;" width="0" height="16.5" x="327.87" y="522.23"/>
    <rect style="fill:#49535a;fill-opacity:1;" width="0" height="16.5" x="354.93" y="519.15"/>
    <rect style="fill:#49535a;fill-opacity:1;" width="0" height="16.5" x="327.87" y="522.23"/>
    <rect style="fill:#49535a;fill-opacity:1;" width="0" height="16.5" x="327.87" y="522.23"/>
    <rect style="fill:#49535a;fill-opacity:1;" width="0" height="16.5" x="316.91" y="514.98"/>
    <rect style="fill:#49535a;fill-opacity:1;" width="0" height="16.5" x="343.97" y="511.9"/>
    <rect style="fill:#49535a;fill-opacity:1;" width="0" height="16.5" x="316.91" y="514.98"/>
    <rect style="fill:#49535a;fill-opacity:1;" width="0" height="16.5" x="316.91" y="514.98"/>
    <rect style="fill:#49535a;fill-opacity:1;" width="0" height="16.5" x="325.93" y="521.3"/>
    <rect style="fill:#49535a;fill-opacity:1;" width="0" height="16.5" x="352.99" y="518.22"/>
    <rect style="fill:#49535a;fill-opacity:1;" width="0" height="16.5" x="325.93" y="521.3"/>
    <rect style="fill:#49535a;fill-opacity:1;" width="0" height="16.5" x="325.93" y="521.3"/>
    <rect style="fill:#4d4d4d;fill-opacity:1;" width="0" height="11" x="362.49" y="541.73"/>
    <rect style="fill:#4d4d4d;fill-opacity:1;" width="0" height="11" x="380.53" y="539.67"/>
    <rect style="fill:#4d4d4d;fill-opacity:1;" width="0" height="11" x="362.49" y="541.73"/>
    <rect style="fill:#4d4d4d;fill-opacity:1;" width="0" height="11" x="362.49" y="541.73"/>
    <rect style="fill:#4d4d4d;fill-opacity:1;" width="0" height="11" x="355.18" y="536.89"/>
    <rect style="fill:#4d4d4d;fill-opacity:1;" width="0" height="11" x="373.22" y="534.84"/>
    <rect style="fill:#4d4d4d;fill-opacity:1;" width="0" height="11" x="355.18" y="536.89"/>
    <rect style="fill:#4d4d4d;fill-opacity:1;" width="0" height="11" x="355.18" y="536.89"/>
    <rect style="fill:#4d4d4d;fill-opacity:1;" width="0" height="11" x="361.2" y="541.11"/>
    <rect style="fill:#4d4d4d;fill-opacity:1;" width="0" height="11" x="379.24" y="539.05"/>
    <rect style="fill:#4d4d4d;fill-opacity:1;" width="0" height="11" x="361.2" y="541.11"/>
    <rect style="fill:#4d4d4d;fill-opacity:1;" width="0" height="11" x="361.2" y="541.11"/>
    <rect style="fill:#49535a;fill-opacity:1;" width="0" height="16.5" x="327.91" y="522.35"/>
    <rect style="fill:#49535a;fill-opacity:1;" width="0" height="16.5" x="354.97" y="519.28"/>
    <rect style="fill:#49535a;fill-opacity:1;" width="0" height="16.5" x="327.91" y="522.35"/>
    <rect style="fill:#49535a;fill-opacity:1;" width="0" height="16.5" x="327.91" y="522.35"/>
    <rect style="fill:#49535a;fill-opacity:1;" width="0" height="16.5" x="316.95" y="515.1"/>
    <rect style="fill:#49535a;fill-opacity:1;" width="0" height="16.5" x="344.01" y="512.02"/>
    <rect style="fill:#49535a;fill-opacity:1;" width="0" height="16.5" x="316.95" y="515.1"/>
    <rect style="fill:#49535a;fill-opacity:1;" width="0" height="16.5" x="316.95" y="515.1"/>
    <rect style="fill:#49535a;fill-opacity:1;" width="0" height="16.5" x="325.97" y="521.43"/>
    <rect style="fill:#49535a;fill-opacity:1;" width="0" height="16.5" x="353.03" y="518.35"/>
    <rect style="fill:#49535a;fill-opacity:1;" width="0" height="16.5" x="325.97" y="521.43"/>
    <rect style="fill:#49535a;fill-opacity:1;" width="0" height="16.5" x="325.97" y="521.43"/>
    <rect y="522.35" x="327.91" height="16.5" width="0" style="fill:#49535a;fill-opacity:1;"/>
    <rect y="519.28" x="354.97" height="16.5" width="0" style="fill:#49535a;fill-opacity:1;"/>
    <rect y="522.35" x="327.91" height="16.5" width="0" style="fill:#49535a;fill-opacity:1;"/>
    <rect y="522.35" x="327.91" height="16.5" width="0" style="fill:#49535a;fill-opacity:1;"/>
    <rect y="515.1" x="316.95" height="16.5" width="0" style="fill:#49535a;fill-opacity:1;"/>
    <rect y="512.02" x="344.01" height="16.5" width="0" style="fill:#49535a;fill-opacity:1;"/>
    <rect y="515.1" x="316.95" height="16.5" width="0" style="fill:#49535a;fill-opacity:1;"/>
    <rect y="515.1" x="316.95" height="16.5" width="0" style="fill:#49535a;fill-opacity:1;"/>
    <rect y="521.43" x="325.97" height="16.5" width="0" style="fill:#49535a;fill-opacity:1;"/>
    <rect y="518.35" x="353.03" height="16.5" width="0" style="fill:#49535a;fill-opacity:1;"/>
    <rect y="521.43" x="325.97" height="16.5" width="0" style="fill:#49535a;fill-opacity:1;"/>
    <rect y="521.43" x="325.97" height="16.5" width="0" style="fill:#49535a;fill-opacity:1;"/>
    <rect y="527.42" x="324.11" height="16.5" width="0" style="fill:#49535a;fill-opacity:1;"/>
    <rect y="524.35" x="351.17" height="16.5" width="0" style="fill:#49535a;fill-opacity:1;"/>
    <rect y="527.42" x="324.11" height="16.5" width="0" style="fill:#49535a;fill-opacity:1;"/>
    <rect y="527.42" x="324.11" height="16.5" width="0" style="fill:#49535a;fill-opacity:1;"/>
    <rect y="521.97" x="300.13" height="16.5" width="0" style="fill:#49535a;fill-opacity:1;"/>
    <rect y="518.89" x="327.19" height="16.5" width="0" style="fill:#49535a;fill-opacity:1;"/>
    <rect y="521.97" x="300.13" height="16.5" width="0" style="fill:#49535a;fill-opacity:1;"/>
    <rect y="521.97" x="300.13" height="16.5" width="0" style="fill:#49535a;fill-opacity:1;"/>
    <rect style="fill:#49535a;fill-opacity:1;" width="0" height="16.5" x="327.91" y="522.35"/>
    <rect style="fill:#49535a;fill-opacity:1;" width="0" height="16.5" x="354.97" y="519.28"/>
    <rect style="fill:#49535a;fill-opacity:1;" width="0" height="16.5" x="327.91" y="522.35"/>
    <rect style="fill:#49535a;fill-opacity:1;" width="0" height="16.5" x="327.91" y="522.35"/>
    <rect style="fill:#49535a;fill-opacity:1;" width="0" height="16.5" x="316.95" y="515.1"/>
    <rect style="fill:#49535a;fill-opacity:1;" width="0" height="16.5" x="344.01" y="512.02"/>
    <rect style="fill:#49535a;fill-opacity:1;" width="0" height="16.5" x="316.95" y="515.1"/>
    <rect style="fill:#49535a;fill-opacity:1;" width="0" height="16.5" x="316.95" y="515.1"/>
    <rect style="fill:#49535a;fill-opacity:1;" width="0" height="16.5" x="325.97" y="521.43"/>
    <rect style="fill:#49535a;fill-opacity:1;" width="0" height="16.5" x="353.03" y="518.35"/>
    <rect style="fill:#49535a;fill-opacity:1;" width="0" height="16.5" x="325.97" y="521.43"/>
    <rect style="fill:#49535a;fill-opacity:1;" width="0" height="16.5" x="325.97" y="521.43"/>
    <rect style="fill:#4d4d4d;fill-opacity:1;" width="0" height="11" x="362.53" y="541.85"/>
    <rect style="fill:#4d4d4d;fill-opacity:1;" width="0" height="11" x="380.57" y="539.8"/>
    <rect style="fill:#4d4d4d;fill-opacity:1;" width="0" height="11" x="362.53" y="541.85"/>
    <rect style="fill:#4d4d4d;fill-opacity:1;" width="0" height="11" x="362.53" y="541.85"/>
    <rect style="fill:#4d4d4d;fill-opacity:1;" width="0" height="11" x="355.22" y="537.01"/>
    <rect style="fill:#4d4d4d;fill-opacity:1;" width="0" height="11" x="373.26" y="534.96"/>
    <rect style="fill:#4d4d4d;fill-opacity:1;" width="0" height="11" x="355.22" y="537.01"/>
    <rect style="fill:#4d4d4d;fill-opacity:1;" width="0" height="11" x="355.22" y="537.01"/>
    <rect style="fill:#4d4d4d;fill-opacity:1;" width="0" height="11" x="361.24" y="541.23"/>
    <rect style="fill:#4d4d4d;fill-opacity:1;" width="0" height="11" x="379.28" y="539.18"/>
    <rect style="fill:#4d4d4d;fill-opacity:1;" width="0" height="11" x="361.24" y="541.23"/>
    <rect style="fill:#4d4d4d;fill-opacity:1;" width="0" height="11" x="361.24" y="541.23"/>
    <g transform="translate(0.55102032,-2.7187001e-6)">
     <g transform="translate(0.49999755,-0.14999992)">
      <g transform="matrix(-1,0,0,-1,799.04083,1063.896)">
       <rect transform="matrix(0.16697335,0,0,0.16697335,442.46717,525.39925)" style="opacity:1;fill:#4d4d4d;fill-opacity:1;fill-rule:evenodd;" width="77.857" height="13.176" x="-254.21" y="-13.78" ry="4.107"/>
       <rect style="opacity:1;fill:#4d4d4d;fill-opacity:1;fill-rule:evenodd;" width="13" height="2.2" x="400.02" y="528.55" ry=".686"/>
       <rect transform="matrix(0.16697335,0,0,0.16697335,442.46717,525.39925)" style="opacity:1;fill:#4d4d4d;fill-opacity:1;fill-rule:evenodd;" width="77.857" height="13.176" x="-254.21" y="49.1" ry="4.107"/>
       <rect transform="matrix(0.16697335,0,0,0.16697335,442.46717,525.39925)" style="opacity:1;fill:#4d4d4d;fill-opacity:1;fill-rule:evenodd;" width="161.702" height="13.176" x="-338.06" y="79.05" ry="4"/>
       <g transform="matrix(0.81185625,0,0,0.81185625,383.71305,-313.35875)">
        <g transform="matrix(1.1827033e-4,0.03271224,-0.03271224,1.1827033e-4,18.268695,1034.3501)" style="fill:#4d4d4d;fill-opacity:1">
         <path d="M 345.441,248.292 151.154,442.573 c -12.359,12.365 -32.397,12.365 -44.75,0 -12.354,-12.354 -12.354,-32.391 0,-44.744 L 278.318,225.92 106.409,54.017 c -12.354,-12.359 -12.354,-32.394 0,-44.748 12.354,-12.359 32.391,-12.359 44.75,0 l 194.287,194.284 c 6.177,6.18 9.262,14.271 9.262,22.366 0,8.099 -3.091,16.196 -9.267,22.373 z" style="fill:#4d4d4d;fill-opacity:1"/>
        </g>
       </g>
      </g>
     </g>
    </g>
   </g>
  </g>
 </g>
</svg>
