<?xml version="1.0" encoding="UTF-8" standalone="no"?>
<svg xmlns="http://www.w3.org/2000/svg" width="22" height="22" version="1.1" viewBox="0 0 22 22">
 <g transform="translate(0,-1030.3622)">
  <g transform="translate(2.9999971,-3.0000001)">
   <g transform="translate(-412.88298,512.00351)">
    <g transform="translate(341.79698,500.25245)">
     <g transform="translate(-392.98822,-511.27795)">
      <g transform="matrix(0.71733438,0,0,0.71733438,181.16816,163.89609)" style="fill:#4d4d4d;fill-opacity:1">
       <path d="m 415.74557,517.87299 -1.1037,0 c -0.26212,0 -0.47458,0.21297 -0.47458,0.47453 l 0,0.59054 c 0,0.26229 -0.21247,0.47472 -0.47457,0.47472 l -1.0291,0 c -0.26211,0 -0.47457,-0.21318 -0.47457,-0.47472 l 0,-0.59054 c 0,-0.26193 -0.21243,-0.47453 -0.47456,-0.47453 l -12.39091,0 c -0.2621,0 -0.47455,0.21297 -0.47455,0.47453 l 0,0.59054 c 0,0.26229 -0.21248,0.47472 -0.47459,0.47472 l -1.02911,0 c -0.26208,0 -0.47456,-0.21318 -0.47456,-0.47472 l 0,-0.59054 c 0,-0.26193 -0.21245,-0.47453 -0.47457,-0.47453 l -1.06659,0 c -0.26212,0 -0.47456,0.21297 -0.47456,0.47453 l 0,21.35574 c 0,0.26193 0.21244,0.47453 0.47456,0.47453 l 1.06659,0 c 0.26212,0 0.47457,-0.21297 0.47457,-0.47453 l 0,-0.43379 c 0,-0.2623 0.21248,-0.47452 0.47456,-0.47452 l 1.02911,0 c 0.26211,0 0.47459,0.21297 0.47459,0.47452 l 0,0.43379 c 0,0.26193 0.21245,0.47453 0.47455,0.47453 l 12.39091,0 c 0.26212,0 0.47456,-0.21297 0.47456,-0.47453 l 0,-0.43379 c 0,-0.2623 0.21246,-0.47452 0.47457,-0.47452 l 1.0291,0 c 0.2621,0 0.47457,0.21297 0.47457,0.47452 l 0,0.43379 c 0,0.26193 0.21245,0.47453 0.47458,0.47453 l 1.1037,0 c 0.2621,0 0.47458,-0.21297 0.47458,-0.47453 l 0,-21.35574 c 0,-0.26193 -0.21248,-0.47453 -0.47458,-0.47453 z m -16.89654,18.16129 c 0,0.26192 -0.21248,0.47434 -0.47459,0.47434 l -1.02911,0 c -0.26208,0 -0.47456,-0.21316 -0.47456,-0.47434 l 0,-1.02938 c 0,-0.26212 0.21248,-0.47434 0.47456,-0.47434 l 1.02911,0 c 0.26211,0 0.47459,0.21297 0.47459,0.47434 l 0,1.02938 z m 0,-4.26476 c 0,0.2623 -0.21248,0.47471 -0.47459,0.47471 l -1.02911,0 c -0.26208,0 -0.47456,-0.21316 -0.47456,-0.47471 l 0,-1.02901 c 0,-0.26212 0.21248,-0.47434 0.47456,-0.47434 l 1.02911,0 c 0.26211,0 0.47459,0.21297 0.47459,0.47434 l 0,1.02901 z m 0,-4.26439 c 0,0.2623 -0.21248,0.47471 -0.47459,0.47471 l -1.02911,0 c -0.26208,0 -0.47456,-0.21316 -0.47456,-0.47471 l 0,-1.02901 c 0,-0.26212 0.21248,-0.47472 0.47456,-0.47472 l 1.02911,0 c 0.26211,0 0.47459,0.21316 0.47459,0.47472 l 0,1.02901 z m 0,-4.26439 c 0,0.2623 -0.21248,0.47471 -0.47459,0.47471 l -1.02911,0 c -0.26208,0 -0.47456,-0.21316 -0.47456,-0.47471 l 0,-1.02882 c 0,-0.26229 0.21248,-0.47491 0.47456,-0.47491 l 1.02911,0 c 0.26211,0 0.47459,0.21317 0.47459,0.47491 l 0,1.02882 z m 11.28799,14.42822 c 0,0.26212 -0.21245,0.47453 -0.47455,0.47453 l -8.24974,0 c -0.26212,0 -0.47458,-0.21297 -0.47458,-0.47453 l 0,-3.81358 c 0,-0.2623 0.21245,-0.4749 0.47458,-0.4749 l 8.24974,0 c 0.2621,0 0.47455,0.21316 0.47455,0.4749 l 0,3.81358 0,0 z m 0,-6.73677 c 0,0.2621 -0.21245,0.47471 -0.47455,0.47471 l -8.24974,0 c -0.26212,0 -0.47458,-0.21298 -0.47458,-0.47471 l 0,-3.8136 c 0,-0.26229 0.21245,-0.47451 0.47458,-0.47451 l 8.24974,0 c 0.2621,0 0.47455,0.21297 0.47455,0.47451 l 0,3.8136 0,0 z m 0,-6.73661 c 0,0.26212 -0.21245,0.47435 -0.47455,0.47435 l -8.24974,0 c -0.26212,0 -0.47458,-0.21298 -0.47458,-0.47435 l 0,-3.81376 c 0,-0.26193 0.21245,-0.47453 0.47458,-0.47453 l 8.24974,0 c 0.2621,0 0.47455,0.21297 0.47455,0.47453 l 0,3.81376 0,0 z m 4.03031,11.8387 c 0,0.26192 -0.21248,0.47434 -0.47458,0.47434 l -1.02912,0 c -0.26209,0 -0.47457,-0.21316 -0.47457,-0.47434 l 0,-1.02938 c 0,-0.26212 0.21248,-0.47434 0.47457,-0.47434 l 1.02912,0 c 0.2621,0 0.47458,0.21297 0.47458,0.47434 l 0,1.02938 z m 0,-4.26476 c 0,0.2623 -0.21248,0.47471 -0.47458,0.47471 l -1.02912,0 c -0.26209,0 -0.47457,-0.21316 -0.47457,-0.47471 l 0,-1.02901 c 0,-0.26212 0.21248,-0.47434 0.47457,-0.47434 l 1.02912,0 c 0.2621,0 0.47458,0.21297 0.47458,0.47434 l 0,1.02901 z m 0,-4.26439 c 0,0.2623 -0.21248,0.47471 -0.47458,0.47471 l -1.02912,0 c -0.26209,0 -0.47457,-0.21316 -0.47457,-0.47471 l 0,-1.02901 c 0,-0.26212 0.21248,-0.47472 0.47457,-0.47472 l 1.02912,0 c 0.2621,0 0.47458,0.21316 0.47458,0.47472 l 0,1.02901 z m 0,-4.26439 c 0,0.2623 -0.21248,0.47471 -0.47458,0.47471 l -1.02912,0 c -0.26209,0 -0.47457,-0.21316 -0.47457,-0.47471 l 0,-1.02882 c 0,-0.26229 0.21248,-0.47491 0.47457,-0.47491 l 1.02912,0 c 0.2621,0 0.47458,0.21317 0.47458,0.47491 l 0,1.02882 z" style="fill:#4d4d4d;fill-opacity:1;"/>
      </g>
     </g>
    </g>
   </g>
  </g>
 </g>
</svg>
