<?xml version="1.0" encoding="UTF-8" standalone="no"?>
<svg xmlns="http://www.w3.org/2000/svg" width="22" height="22" version="1.1">
 <g transform="translate(-326,-534.3622)">
  <g transform="matrix(1.0585548,0,0,1.0585548,-20.791521,-30.875018)">
   <g transform="translate(-33.890981,-0.79653272)">
    <g transform="matrix(0.66666666,0,0,0.66666666,70.952386,189.8302)">
     <g transform="matrix(1.5,0,0,1.5,-104.92858,-286.2453)">
      <g transform="matrix(0.28650725,0,0,0.28650725,116.73905,490.74772)">
       <path style="fill:#4d4d4d;fill-opacity:1;" d="M 11 3 C 6.330612 3 2.53125 6.1855977 2.53125 10.101562 C 2.53125 12.225197 3.6343652 14.20069 5.5664062 15.552734 C 5.7496169 16.659492 5.1141548 17.817886 5.1074219 17.830078 C 4.9623735 18.086016 4.9738736 18.399396 5.1367188 18.646484 C 5.282401 18.867363 5.5266949 19 5.7910156 19 C 5.8192271 19 5.8483232 18.999157 5.8769531 18.996094 C 6.6998586 18.904675 8.0276272 18.279276 9.8261719 17.136719 C 10.213501 17.18159 10.607396 17.203125 11 17.203125 C 15.669524 17.203125 19.46875 14.017497 19.46875 10.101562 C 19.46875 6.1856311 15.669524 3 11 3 z M 10.365234 7.6132812 L 11.423828 7.6132812 L 11.423828 9.7304688 L 13.541016 9.7304688 L 13.541016 10.789062 L 11.423828 10.789062 L 11.423828 12.90625 L 10.365234 12.90625 L 10.365234 10.789062 L 8.2480469 10.789062 L 8.2480469 9.7304688 L 10.365234 9.7304688 L 10.365234 7.6132812 z" transform="matrix(3.2972437,0,0,3.2972437,850.80014,157.13211)"/>
      </g>
     </g>
    </g>
   </g>
  </g>
 </g>
</svg>
