<?xml version="1.0" encoding="UTF-8" standalone="no"?>
<svg xmlns="http://www.w3.org/2000/svg" width="22" height="22" version="1.1">
 <g transform="translate(-421.71429,-525.79074)">
  <g>
   <path d="m 428.21429,528.79074 c -0.82842,10e-6 -1.49999,0.67158 -1.5,1.5 9e-4,0.6349 0.40141,1.20047 1,1.41211 l 0,9.08789 c 0,1.10457 0.89543,2 2,2 l 1,0 0,2 3,-2.5 -3,-2.5 0,2 -1,0 c -0.55228,0 -1,-0.44772 -1,-1 l 0,-9.08789 c 0.59859,-0.21164 0.9991,-0.77721 1,-1.41211 -1e-5,-0.82842 -0.67158,-1.49999 -1.5,-1.5 z" style="fill:#4d4d4d;fill-opacity:1;"/>
   <path d="m 437.21429,544.79074 c 0.82842,-10e-6 1.49999,-0.67158 1.5,-1.5 -9e-4,-0.6349 -0.40141,-1.20047 -1,-1.41211 l 0,-9.08789 c 0,-1.10457 -0.89543,-2 -2,-2 l -1,0 0,-2 -3,2.5 3,2.5 0,-2 1,0 c 0.55228,0 1,0.44772 1,1 l 0,9.08789 c -0.59859,0.21164 -0.9991,0.77721 -1,1.41211 10e-6,0.82842 0.67158,1.49999 1.5,1.5 z" style="fill:#4d4d4d;fill-opacity:1;"/>
  </g>
 </g>
</svg>
