<?xml version="1.0" encoding="UTF-8" standalone="no"?>
<svg xmlns="http://www.w3.org/2000/svg" width="22" height="22" version="1.1">
 <g transform="translate(-326,-534.3622)">
  <g transform="matrix(1.3333333,0,0,1.3333333,-197.09523,-163.70157)">
   <g transform="translate(27.682101,0.12839698)">
    <g transform="matrix(0.97603016,0,0,-0.97603016,8.9380976,1042.0695)">
     <g transform="translate(0,2.1929912e-5)">
      <g style="fill:#ffffff;fill-opacity:1" transform="matrix(0.76373622,0,0,-0.76373622,364.43862,1318.2775)">
       <g transform="translate(0.05674466,0.08091695)" style="fill:#ffffff;fill-opacity:1">
        <path style="fill:#4d4d4d;fill-opacity:1;" d="m 12.157347,1046.5548 c 0.01745,0.093 -0.04526,0.1682 -0.139371,0.1682 l -1.996764,0 c -0.094111,0 -0.1568262,-0.076 -0.1393725,-0.1682 l 0.3179295,-1.6849 c -0.2406715,-0.2195 -0.3917217,-0.5357 -0.3917217,-0.887 0,-0.6628 0.5373387,-1.2002 1.2001897,-1.2002 0.66285,0 1.200189,0.5374 1.200189,1.2002 0,0.3418 -0.143137,0.6499 -0.372472,0.8686 z"/>
        <path style="fill:#4d4d4d;fill-opacity:1;" d="m 14.215713,1040.1532 -6.4149539,0 0,-1.9801 c 0,-1.7686 1.4388492,-3.2074 3.2074779,-3.2074 1.768626,0 3.207476,1.4389 3.207476,3.2074 z m 1.711133,0.018 0,-1.9983 c 0,-2.7121 -2.206463,-4.9187 -4.918609,-4.9187 -2.7121476,0 -4.9186118,2.2066 -4.9186118,4.9187 l 0,1.9983 c -0.387614,0.081 -0.6796621,0.4259 -0.6796621,0.8373 l 0,7.4883 c 0,0.4717 0.3838071,0.8555 0.8555666,0.8555 l 9.4853693,0 c 0.471759,0 0.855566,-0.3838 0.855566,-0.8555 l 0,-7.4883 c 0,-0.4114 -0.292003,-0.7559 -0.679619,-0.8373 z"/>
       </g>
      </g>
     </g>
    </g>
   </g>
  </g>
 </g>
</svg>
