<?xml version="1.0" encoding="UTF-8" standalone="no"?>
<svg xmlns="http://www.w3.org/2000/svg" width="22" height="22" version="1.1" viewBox="0 0 22 22">
 <g transform="translate(0,-1030.3622)">
  <g transform="translate(-327,497)" style="fill:#da4453;fill-opacity:1">
   <g transform="matrix(0.6606173,0,0,0.6606173,73.375587,193.04724)" style="fill:#da4453;fill-opacity:1">
    <g transform="matrix(0.0249178,0,0,0.0249178,388.46155,519.68811)" style="fill:#da4453;fill-opacity:1">
     <path d="m 370.216,459.3 c 10.2,11.1 15.8,25.6 15.8,40.6 l 0,442 c 0,26.601 32.1,40.101 51.1,21.4 L 560.416,822 c 16.5,-19.8 25.6,-29.601 25.6,-49.2 l 0,-272.8 c 0,-15 5.7,-29.5 15.8,-40.601 L 955.615,75.5 C 982.115,46.7 961.716,0 922.515,0 l -873,0 c -39.2,0 -59.7,46.6 -33.1,75.5 l 353.801,383.8 z" style="fill:#da4453;fill-opacity:1"/>
    </g>
   </g>
  </g>
 </g>
</svg>
