<?xml version="1.0" encoding="UTF-8" standalone="no"?>
<svg xmlns="http://www.w3.org/2000/svg" width="22" height="22" version="1.1">
 <g transform="translate(-421.71429,-525.79074)">
  <g transform="translate(-24,-1.6003391)">
   <g>
    <g transform="translate(0,1.299765)">
     <g transform="translate(24,1.6003391)" style="fill:#4d4d4d;fill-opacity:1">
      <g style="fill:#4d4d4d;fill-opacity:1">
       <g style="fill:#4d4d4d;fill-opacity:1">
        <g transform="translate(3,-2.56547)" style="fill:#4d4d4d;fill-opacity:1">
         <g transform="translate(-18.00007,-0.03406)" style="fill:#4d4d4d;fill-opacity:1">
          <path d="m 447.71443,528.79074 8.43438,4.21727 -8.43438,4.21726 -8.43453,-4.21726 z" style="fill:#4d4d4d;fill-opacity:1"/>
         </g>
         <path d="m 429.71437,545.00482 -6.08314,-3.04157 -2.35139,1.17569 8.43453,4.21727 8.43438,-4.21727 -2.35139,-1.17569 z" style="fill:#4d4d4d;fill-opacity:1"/>
        </g>
       </g>
      </g>
     </g>
     <g style="stroke:#1d99f3;stroke-width:0.30000001;stroke-opacity:1" transform="matrix(1.3333333,0,0,-1.3333333,-14.062006,1272.2407)">
      <g style="stroke:#1d99f3;stroke-width:0.27714267;stroke-opacity:1" transform="matrix(-1.082475,0,0,-1.082475,348.79191,1673.0369)">
       <g style="fill:#4d4d4d;fill-opacity:1;stroke:#1d99f3;stroke-width:8.47208405;stroke-opacity:1" transform="matrix(1.1827033e-4,0.03271224,-0.03271224,1.1827033e-4,18.268695,1034.3501)">
        <path style="fill:#1d99f3;fill-opacity:1;stroke:#1d99f3;stroke-width:8.47208405;stroke-opacity:1" d="m 142.86398,687.40308 -63.733438,63.73148 c -4.054219,4.05619 -10.627435,4.05619 -14.679685,0 -4.052573,-4.05258 -4.052573,-10.62546 0,-14.67771 L 120.84511,680.06422 64.452501,623.67358 c -4.052577,-4.05421 -4.052577,-10.62645 0,-14.67903 4.052574,-4.05421 10.625466,-4.05421 14.679685,0 l 63.733434,63.73246 c 2.02629,2.02727 3.03829,4.68142 3.03829,7.33689 0,2.65678 -1.01397,5.3129 -3.03993,7.33918 z"/>
       </g>
      </g>
     </g>
    </g>
   </g>
  </g>
 </g>
</svg>
