<?xml version="1.0" encoding="UTF-8" standalone="no"?>
<svg xmlns="http://www.w3.org/2000/svg" width="22" height="22" version="1.1">
 <g transform="translate(-544.57141,-742.93359)">
  <g>
   <path d="m 555.57141,750.93359 a 8,3 0 0 0 -8,3 l 1,0 a 7,2 0 0 1 7,-2 7,2 0 0 1 7,2 l 1,0 a 8,3 0 0 0 -8,-3 z" style="opacity:1;fill:#4d4d4d;fill-opacity:1;"/>
   <path d="m 555.57141,756.93359 a 8,3 0 0 0 8,-3 l -1,0 a 7,2 0 0 1 -7,2 7,2 0 0 1 -7,-2 l -1,0 a 8,3 0 0 0 8,3 z" style="opacity:1;fill:#4d4d4d;fill-opacity:1;"/>
   <rect y="749.93" x="547.57" height="8" width="1" style="opacity:1;fill:#4d4d4d;fill-opacity:1;"/>
   <rect y="749.93" x="562.57" height="8" width="1" style="opacity:1;fill:#4d4d4d;fill-opacity:1;"/>
   <path transform="translate(544.57141,742.93359)" d="M 11 5 A 11 6 0 0 0 3 6.8886719 L 3 8.0097656 A 10 5 0 0 1 11 6 A 10 5 0 0 1 19 8.0097656 L 19 6.8925781 A 11 6 0 0 0 11 5 z" style="opacity:1;fill:#4d4d4d;fill-opacity:1;"/>
   <path d="m 555.57141,759.93359 a 11,6 0 0 1 -8,-1.88867 l 0,-1.1211 a 10,5 0 0 0 8,2.00977 10,5 0 0 0 8,-2.00977 l 0,1.11719 a 11,6 0 0 1 -8,1.89258 z" style="opacity:1;fill:#4d4d4d;fill-opacity:1;"/>
   <path transform="translate(544.57141,742.93359)" d="M 3 3 L 3 19 L 19 19 L 19 3 L 3 3 z M 4 4 L 18 4 L 18 18 L 4 18 L 4 4 z" style="opacity:1;fill:#4d4d4d;fill-opacity:1;"/>
  </g>
 </g>
</svg>
