<?xml version="1.0" encoding="UTF-8" standalone="no"?>
<svg xmlns="http://www.w3.org/2000/svg" width="22" height="22" version="1.1">
 <g transform="translate(-326,-534.3622)">
  <g transform="translate(2.0828125e-6,-1.2675e-5)">
   <g transform="translate(1,-1)">
    <g transform="translate(-9.8387472,1.8691533)">
     <g>
      <g>
       <g transform="translate(0,1.7382813e-5)">
        <g transform="translate(-14.161253,0.13082032)">
         <g transform="translate(-0.999995,0.99999801)">
          <g style="fill:#43be80;fill-opacity:1" transform="matrix(1.6001614,0,0,1.6001614,-279.87393,-309.07388)">
           <g style="fill:#43be80;fill-opacity:1" transform="translate(27.682101,0.12839698)">
            <g style="fill:#43be80;fill-opacity:1" transform="matrix(0.97603016,0,0,-0.97603016,8.9380976,1042.0695)">
             <g style="fill:#43be80;fill-opacity:1" transform="translate(0,2.1929912e-5)">
              <g transform="matrix(0.08181857,0,0,-0.08181857,367.73479,527.78219)" style="fill:#43be80;fill-opacity:1;">
               <path d="m 122.95526,81.773388 -11.242,-10.999 11.242,-10.999 c 1.63,-1.521 2.173,-3.422 1.63,-5.703 -0.651,-2.227 -2.063,-3.612 -4.237,-4.155 l -15.316,-3.911 4.318,-15.154 c 0.651,-2.226 0.137,-4.128 -1.549,-5.703 -1.574,-1.684 -3.475,-2.2 -5.703,-1.548 l -15.151998,4.318 -3.912,-15.317 c -0.543,-2.227 -1.926,-3.6119998 -4.153,-4.1549998 -2.228,-0.598 -4.129,-0.081 -5.703,1.548 l -11,11.3249998 -10.999,-11.3249998 c -1.575,-1.684 -3.476,-2.2 -5.703,-1.548 -2.227,0.543 -3.612,1.9279998 -4.155,4.1549998 l -3.911,15.317 -15.154,-4.318 c -2.227,-0.652 -4.128,-0.136 -5.703,1.548 -1.684,1.575 -2.2,3.476 -1.548,5.703 l 4.318,15.154 -15.3170005,3.911 c -2.172,0.543 -3.58499998,1.928 -4.23599998,4.155 -0.544,2.281 0,4.182 1.62899998,5.703 l 11.2430005,10.999 -11.2430005,10.999 c -1.62899998,1.521 -2.17199998,3.422 -1.62899998,5.703 0.651,2.227 2.06399998,3.612 4.23599998,4.155 l 15.3170005,3.91 -4.318,15.154002 c -0.652,2.227 -0.136,4.127 1.548,5.703 1.575,1.684 3.476,2.199 5.703,1.548 l 15.154,-4.317 3.911,15.316 c 0.543,2.227 1.928,3.639 4.155,4.236 2.281,0.543 4.182,0 5.703,-1.629 l 10.999,-11.243 11,11.244 c 1.086,1.193 2.471,1.791 4.154,1.791 0.381,0 0.896,-0.055 1.549,-0.162 2.227,-0.652 3.611,-2.064 4.154,-4.236 l 3.91,-15.316 15.152998,4.317 c 2.228,0.651 4.129,0.136 5.703,-1.548 1.685,-1.576 2.2,-3.477 1.549,-5.703 l -4.317,-15.154002 15.315,-3.91 c 2.175,-0.543 3.586,-1.928 4.237,-4.155 0.544,-2.282 10e-4,-4.183 -1.63,-5.704 l 0,0 z" style="fill:#43be80;fill-opacity:1;"/>
              </g>
             </g>
            </g>
           </g>
          </g>
         </g>
        </g>
       </g>
      </g>
     </g>
    </g>
   </g>
  </g>
 </g>
</svg>
