<?xml version="1.0" encoding="UTF-8" standalone="no"?>
<svg xmlns="http://www.w3.org/2000/svg" width="22" height="22" version="1.1">
 <g transform="translate(-326,-534.3622)">
  <g transform="matrix(1.8282481,0,0,1.8282481,-280.94785,-449.86696)">
   <g style="fill:#ffffff;fill-opacity:1" transform="matrix(0.75493804,0,0,0.75493804,331.9622,-244.21689)">
    <g style="fill:#ffffff;fill-opacity:1" transform="translate(-401.01229,510.63371)">
     <g style="fill:#ffffff;fill-opacity:1" transform="translate(5.05585,-5.251147)">
      <g transform="translate(-11.317,5.8824915)" style="fill:#ffffff;fill-opacity:1;stroke:#000000;stroke-opacity:0.8">
       <g style="fill:#ffffff;fill-opacity:1" transform="translate(1.8733025,-0.28410538)">
        <g style="fill:#ffffff;fill-opacity:1" transform="translate(-2.0518724,-0.97858527)">
         <g style="fill:#ffffff;fill-opacity:1" transform="translate(0.22097092,0.44194173)">
          <g style="fill:#ffffff;fill-opacity:1" transform="translate(1.3573925,-1.2626907)">
           <g style="fill:#ffffff;fill-opacity:1" transform="translate(-0.41037448,-0.59977801)">
            <g style="fill:#ffffff;fill-opacity:1" transform="matrix(0.7863692,0,0,0.78394543,92.594038,111.881)">
             <g style="fill:#ffffff;fill-opacity:1" transform="matrix(1.2716673,0,0,1.275599,-114.25636,-140.42007)">
              <g style="fill:#ffffff;fill-opacity:1" transform="matrix(0.7863692,0,0,0.78394543,93.325829,112.35451)">
               <g style="fill:#ffffff;fill-opacity:1" transform="matrix(1.2716673,0,0,1.275599,-124.33958,-145.6548)">
                <g style="fill:#ffffff;fill-opacity:1" transform="translate(2.9673242,4.7350927)">
                 <g style="fill:#ffffff;fill-opacity:1" transform="translate(0.03156729,-1.894036)">
                  <g style="fill:#ffffff;fill-opacity:1" transform="translate(-1.3573925,-0.63134534)">
                   <g style="fill:#ffffff;fill-opacity:1" transform="translate(9.3754783,2.3044104)">
                    <g style="fill:#ffffff;fill-opacity:1" transform="translate(-8.1443549,-1.9571705)">
                     <g style="fill:#ffffff;fill-opacity:1" transform="translate(-1.0417198,0.94701802)">
                      <g style="fill:#ffffff;fill-opacity:1" transform="translate(402.91908,-510.19877)">
                       <g style="fill:#ffffff;fill-opacity:1" transform="translate(-405.31819,508.49413)">
                        <g transform="matrix(0.07927574,0,0,0.07927574,411.56031,531.75193)" style="fill:#ffffff;fill-opacity:1;">
                         <path d="M 123.534,49.637 104.142,4.664 C 103.599,3.305 102.609,2.165 101.169,1.242 99.73,0.318 98.304,-0.143 96.892,-0.143 l -8.550023,0 -37.430406,0 -21.804571,0 c -1.412,0 -2.838,0.461 -4.277,1.385 -1.439,0.923 -2.431,2.063 -2.974,3.422 L 2.465,49.637 C 1.107,52.95 0.428,56.291 0.428,59.658 l 0,39.271 c 0,1.412 0.516,2.634 1.548,3.666 1.033,1.032 2.255,1.548 3.667,1.548 l 114.714,0 c 1.412,0 2.634,-0.516 3.666,-1.548 1.031,-1.032 1.547,-2.254 1.547,-3.666 l 0,-39.271 c 0,-3.367 -0.677,-6.708 -2.036,-10.021 z m -39.759,7.577 -7.738,15.644 -26.072,0 -7.74,-15.644 -25.746,0 c 0.055,-0.108 0.122,-0.325 0.204,-0.651 0.082,-0.325 0.15,-0.543 0.204,-0.651 l 17.272,-40.41 16.354376,0 37.828601,0 3.500023,0 17.271,40.41 c 0.056,0.163 0.123,0.381 0.203,0.651 0.082,0.271 0.149,0.488 0.205,0.651 l -25.746,0 z" style="fill:#4d4d4d;fill-opacity:1;"/>
                        </g>
                        <g transform="matrix(-0.03896796,0,0,-0.03896796,419.05506,531.53317)" style="fill:#ffffff;fill-opacity:1;">
                         <path d="M 123.371,56.052 70.413,3.012 C 68.296,1.002 65.824,-0.003 63,-0.003 c -2.879,0 -5.323,1.005 -7.333,3.015 L 2.628,56.052 c -2.064,2.063 -3.096,4.535 -3.096,7.414 0,2.933 1.033,5.377 3.096,7.332 l 6.11,6.11 c 1.956,2.064 4.4,3.097 7.333,3.097 2.933,0 5.377,-1.034 7.333,-3.097 L 63,37.393 102.596,76.907 c 1.955,2.063 4.399,3.097 7.334,3.097 2.877,0 5.35,-1.034 7.413,-3.097 l 6.109,-6.11 c 2.01,-2.01 3.016,-4.454 3.016,-7.332 0,-2.879 -1.032,-5.351 -3.097,-7.413 l 0,0 z" style="fill:#4d4d4d;fill-opacity:1;"/>
                        </g>
                       </g>
                      </g>
                     </g>
                    </g>
                   </g>
                  </g>
                 </g>
                </g>
               </g>
              </g>
             </g>
            </g>
           </g>
          </g>
         </g>
        </g>
       </g>
      </g>
     </g>
    </g>
   </g>
  </g>
 </g>
</svg>
