<?xml version="1.0" encoding="UTF-8" standalone="no"?>
<svg xmlns="http://www.w3.org/2000/svg" width="22" height="22" version="1.1">
 <g transform="translate(-326,-534.3622)">
  <g transform="translate(4.7036432e-6,-1.0992466e-5)">
   <g transform="translate(1,-1)">
    <g transform="translate(-5.6195727,0.53724663)">
     <g transform="matrix(0.66666667,0,0,-0.66666667,70.952371,898.89418)">
      <g transform="matrix(1.5,0,0,-1.5,-80.438581,1347.3471)">
       <g transform="translate(1,-1)">
        <g transform="translate(-9.8387472,1.8691533)">
         <g>
          <g>
           <g transform="translate(0,1.7382813e-5)">
            <g transform="translate(-253.59086,-50.026231)">
             <g transform="translate(553.72253,-447.24294)">
              <g transform="translate(-0.99999349,1.0000021)">
               <g transform="matrix(1.5596081,0,0,1.5596081,-19.026678,-578.98585)" style="fill:#4d4d4d;fill-opacity:1">
                <g transform="translate(-0.7070838,-0.69998902)" style="fill:#4d4d4d;fill-opacity:1">
                 <g transform="translate(0,-0.50003145)" style="fill:#4d4d4d;fill-opacity:1">
                  <g transform="translate(1.7070773,-0.09997571)" style="fill:#4d4d4d;fill-opacity:1">
                   <rect transform="translate(26,4.5)" ry=".5" y="1035.36" x="3" height="1" width="8" style="fill:#4d4d4d;fill-opacity:1;"/>
                   <rect ry=".5" y="1041.86" x="29" height="1" width="8" style="fill:#4d4d4d;fill-opacity:1;"/>
                   <rect ry=".5" y="1043.86" x="29" height="1" width="8" style="fill:#4d4d4d;fill-opacity:1;"/>
                  </g>
                 </g>
                </g>
                <g transform="translate(-320.61188,495.11017)" style="fill:#4d4d4d;fill-opacity:1;stroke:#4d4d4d;stroke-opacity:1">
                 <g transform="matrix(-1,0,0,1,676,0)" style="fill:#4d4d4d;fill-opacity:1;stroke:#4d4d4d;stroke-opacity:1">
                  <g transform="matrix(0.52952615,0,0,0.52952615,159.41931,256.20819)" style="fill:#4d4d4d;fill-opacity:1;stroke:#4d4d4d;stroke-width:1.00266671;stroke-opacity:1">
                   <g transform="matrix(0,-1.082475,1.082475,0,-789.67467,556.15411)" style="fill:#4d4d4d;fill-opacity:1;stroke:#4d4d4d;stroke-width:0.92627233;stroke-opacity:1">
                    <g transform="matrix(1.1827033e-4,0.03271224,-0.03271224,1.1827033e-4,18.268695,1034.3501)" style="fill:#4d4d4d;fill-opacity:1;stroke:#4d4d4d;stroke-width:28.315588;stroke-opacity:1">
                     <path d="m -595.84566,19.881112 -91.72682,91.723988 c -5.83494,5.83777 -15.29528,5.83777 -21.12738,0 -5.83258,-5.83257 -5.83258,-15.292448 0,-21.124548 L -627.53579,9.3188418 -708.6975,-71.840038 c -5.83258,-5.83494 -5.83258,-15.29387 0,-21.12644 5.83257,-5.83493 15.29244,-5.83493 21.12738,0 l 91.72682,91.7254098 c 2.91628,2.9177 4.37277,6.73762 4.37277,10.55944 0,3.8237002 -1.45932,7.6464502 -4.37513,10.5627402 z" style="fill:#4d4d4d;fill-opacity:1;stroke:#4d4d4d;stroke-width:28.315588;stroke-opacity:1"/>
                    </g>
                   </g>
                  </g>
                 </g>
                </g>
               </g>
              </g>
             </g>
            </g>
           </g>
          </g>
         </g>
        </g>
       </g>
      </g>
     </g>
    </g>
   </g>
  </g>
 </g>
</svg>
