<?xml version="1.0" encoding="UTF-8" standalone="no"?>
<svg xmlns="http://www.w3.org/2000/svg" width="22" height="22" version="1.1">
 <g transform="translate(-326,-534.3622)">
  <g transform="translate(-87.688344,14.564196)">
   <g transform="translate(27.682101,0.12839698)">
    <g style="fill:#ffffff;fill-opacity:1" transform="matrix(1.8788235,0,0,1.8788235,-241.33101,-501.85967)">
     <g transform="matrix(0.03170006,0,0,0.03170006,329.09403,537.51145)" style="fill:#ffffff;fill-opacity:1">
      <g style="fill:#ffffff;fill-opacity:1" transform="matrix(2,0,0,2,-336.26615,-380.13033)">
       <g style="fill:#ffffff;fill-opacity:1">
        <path style="fill:#4d4d4d;fill-opacity:1" d="m 351.269,312.97 -29.983,0 c -0.022,14.366 0,52.158 0,52.158 0,0 -32.529,0 -48.621,0.043 l 0,29.962 c 16.092,-0.022 48.621,-0.022 48.621,-0.022 0,0 0,37.749 -0.022,52.18 l 29.983,0 c 0.022,-14.431 0.022,-52.18 0.022,-52.18 0,0 32.507,0 48.599,0 l 0,-29.983 c -16.092,0 -48.599,0 -48.599,0 0,0 -0.043,-37.791 0,-52.158 z"/>
       </g>
      </g>
     </g>
    </g>
   </g>
  </g>
 </g>
</svg>
