<?xml version="1.0" encoding="UTF-8" standalone="no"?>
<svg xmlns="http://www.w3.org/2000/svg" width="22" height="22" version="1.1">
 <g transform="translate(-326,-534.3622)">
  <g transform="matrix(0.66666667,0,0,0.66666667,69.952378,190.8302)">
   <g transform="matrix(0.52173913,0,0,0.52173913,187.40373,258.51209)">
    <g transform="matrix(1.15,0,0,1.15,-61.285728,-78.569705)">
     <path d="m 410.71832,523.81718 c -0.0552,-0.45802 -0.22926,-0.87572 -0.4968,-1.22452 l 1.8368,-11.39934 c 0.0684,-0.42414 -0.20372,-0.82852 -0.62224,-0.9252 l -0.0206,-0.004 c -0.41852,-0.0968 -0.84028,0.1476 -0.96482,0.55874 l -3.34617,11.05067 c -0.82462,0.41464 -1.39706,1.25987 -1.39706,2.24427 0,1.38994 1.13028,2.5209 2.52016,2.5209 0.259,0 0.50392,-0.0506 0.73918,-0.1234 l 6.99053,3.63279 c 0.38461,0.1998 0.85803,0.075 1.09405,-0.2885 l 0.01,-0.016 c 0.23608,-0.3634 0.1576,-0.84673 -0.1816,-1.11673 z m -3.73547,0.29996 c 0,-0.6863 0.5586,-1.24488 1.24488,-1.24488 0.6869,0 1.24549,0.55858 1.24549,1.24488 0,0.6868 -0.55859,1.24548 -1.24549,1.24548 -0.68628,0 -1.24488,-0.5586 -1.24488,-1.24548 z m 1.58859,-20.31914 c 11.08,0 20,8.92 20,20 0,11.08 -8.92,20 -20,20 -11.08,0 -20,-8.92 -20,-20 0,-11.08 8.92,-20 20,-20 z" style="fill:#4d4d4d;fill-opacity:1"/>
    </g>
   </g>
  </g>
 </g>
</svg>
