<?xml version="1.0" encoding="UTF-8" standalone="no"?>
<svg xmlns="http://www.w3.org/2000/svg" width="22" height="22" version="1.1">
 <g transform="translate(-326,-534.3622)">
  <g transform="translate(284.16125,-19.130829)">
   <g transform="matrix(0.95808383,0,0,0.95808383,-269.99358,41.948424)">
    <g transform="matrix(1.6738026,0,0,1.6738026,-228.78902,-365.7489)" style="fill:none;stroke:#4d4d4d;stroke-opacity:1">
     <g style="fill:none;fill-opacity:1;stroke:#4d4d4d;stroke-opacity:1" transform="matrix(2.8675672,0,0,2.8675672,-648.48075,-1032.3694)">
      <g style="fill:none;fill-opacity:1;stroke:#4d4d4d;stroke-opacity:1" transform="translate(-1.9155648e-6,0)">
       <g style="fill:none;fill-opacity:1;stroke:#4d4d4d;stroke-opacity:1" transform="matrix(0.46280556,0,0,0.46280556,329.21663,65.115193)">
        <g style="fill:none;fill-opacity:1;stroke:#4d4d4d;stroke-opacity:1" transform="matrix(1.0666667,0,0,1.0666667,-422.88848,475.10085)">
         <g style="fill:none;fill-opacity:1;stroke:#4d4d4d;stroke-opacity:1" transform="translate(27.682101,0.12839698)">
          <g style="fill:none;fill-opacity:1;stroke:#4d4d4d;stroke-opacity:1" transform="matrix(0.97603016,0,0,-0.97603016,8.9380976,1042.0695)">
           <g style="fill:none;fill-opacity:1;stroke:#4d4d4d;stroke-opacity:1" transform="matrix(0.42233807,0,0,-0.42233807,394.73481,957.88422)">
            <path d="m 15.926846,1040.1714 0,-1.9983 c 0,-2.7121 -2.206463,-4.9187 -4.918609,-4.9187 -2.7121476,0 -4.9186118,2.2066 -4.9186118,4.9187 l 0,1.9983 c -0.387614,0.081 -0.6796621,0.4259 -0.6796621,0.8373 l 0,7.4883 c 0,0.4717 0.3838071,0.8555 0.8555666,0.8555 l 9.4853693,0 c 0.471759,0 0.855566,-0.3838 0.855566,-0.8555 l 0,-7.4883 c 0,-0.4114 -0.292003,-0.7559 -0.679619,-0.8373 z m -1.711133,-0.018 -6.4149539,0 0,-1.9801 c 0,-1.7686 1.4388492,-3.2074 3.2074779,-3.2074 1.768626,0 3.207476,1.4389 3.207476,3.2074 z" style="fill:none;fill-opacity:1;stroke:#4d4d4d;stroke-opacity:1"/>
           </g>
          </g>
         </g>
        </g>
       </g>
      </g>
     </g>
    </g>
   </g>
  </g>
 </g>
</svg>
