<?xml version="1.0" encoding="UTF-8" standalone="no"?>
<svg xmlns="http://www.w3.org/2000/svg" width="22" height="22" version="1.1">
 <g transform="translate(-326,-534.3622)">
  <g transform="matrix(0.69076272,0,0,0.69076272,60.300192,178.01597)">
   <g style="fill:#4d4d4d;fill-opacity:1" transform="matrix(0.06434183,0,0,0.06434183,388.57141,519.79799)">
    <g style="fill:#4d4d4d;fill-opacity:1">
     <path style="fill:#4d4d4d;fill-opacity:1" d="m 353.703,245.49 -334.399,0 c -6.892,0 -13.27,-3.673 -16.714,-9.653 -3.453,-5.965 -3.453,-13.336 0,-19.305 L 169.787,16.161 c 3.444,-5.973 9.821,-9.655 16.713,-9.655 6.893,0 13.274,3.682 16.717,9.655 l 167.21,200.372 c 1.718,2.987 2.581,6.314 2.581,9.657 0,3.333 -0.863,6.659 -2.581,9.659 -3.455,5.968 -9.833,9.641 -16.724,9.641 z m 19.11,113.292 0,-63.705 c 0,-4.263 -3.46,-7.722 -7.729,-7.722 l -357.167,0 c -4.264,0 -7.721,3.459 -7.721,7.722 l 0,63.705 c 0,4.264 3.457,7.72 7.721,7.72 l 357.167,0 c 4.269,0.006 7.729,-3.456 7.729,-7.72 z"/>
    </g>
   </g>
  </g>
 </g>
</svg>
