<?xml version="1.0" encoding="UTF-8" standalone="no"?>
<svg xmlns="http://www.w3.org/2000/svg" width="22" height="22" version="1.1">
 <g transform="translate(-421.71429,-525.79074)">
  <g transform="translate(16.28164,-2.16666)">
   <g>
    <g transform="translate(78.43265,-5.4048)">
     <g transform="translate(327,-497)">
      <path style="fill:#4d4d4d;fill-opacity:1;" d="M 11 3 C 6.568 3 3 6.568 3 11 C 3 15.432 6.568 19 11 19 C 15.432 19 19 15.432 19 11 C 19 6.568 15.432 3 11 3 z M 7 8.5 L 15 8.5 L 15 12.5 L 15 13.5 L 12 13.5 L 12 14.5 L 9 13 L 12 11.5 L 12 12.5 L 14 12.5 L 14 9.5 L 8 9.5 L 8 13.5 L 7 13.5 L 7 8.5 z" transform="translate(0,1030.3622)"/>
     </g>
    </g>
   </g>
  </g>
 </g>
</svg>
