<?xml version="1.0" encoding="UTF-8" standalone="no"?>
<svg xmlns="http://www.w3.org/2000/svg" width="22" height="22" version="1.1">
 <g transform="translate(-421.71429,-525.79074)">
  <g>
   <path transform="translate(421.71429,525.79074)" d="M 4.5 3 C 3.6715787 3 3.0000083 3.6715704 3 4.5 C 3.0000083 5.3284296 3.6715787 6 4.5 6 C 5.3284213 6 5.9999917 5.3284296 6 4.5 C 5.9999917 3.6715704 5.3284213 3 4.5 3 z M 7 4 L 7 5 L 8 5 L 8 4 L 7 4 z M 9 4 L 9 5 L 19 5 L 19 4 L 9 4 z M 9 6 L 9 7 L 12 7 L 12 6 L 9 6 z M 4.5 9 C 3.6715732 8.9999988 3 9.6715721 3 10.5 C 3 11.328428 3.6715732 12.000001 4.5 12 C 5.3284268 12.000001 6 11.328428 6 10.5 C 6 9.6715721 5.3284268 8.9999988 4.5 9 z M 4.5 15 C 3.6715732 14.999999 3 15.671572 3 16.5 C 3 17.328428 3.6715732 18.000001 4.5 18 C 5.3284268 18.000001 6 17.328428 6 16.5 C 6 15.671572 5.3284268 14.999999 4.5 15 z" style="opacity:1;fill:#4d4d4d;fill-opacity:1;"/>
   <g transform="translate(5,1)">
    <path style="fill:#4d4d4d;fill-opacity:1;fill-rule:evenodd;" d="m 433.71429,535.79074 0,1 -2.18555,0 -1.81445,2.2383 -1.81445,-2.2383 -3.18555,0 0,1 2.75977,0 c -9.5e-4,0.01 0.83579,1.046 1.61132,2.0137 l -1.61132,1.9863 -2.75977,0 0,1 3.23828,0 c 0,0 0.89312,-1.1189 1.76172,-2.2012 0.86877,1.0823 1.76172,2.2012 1.76172,2.2012 l 2.23828,0 0,1 2,-1.5 -2,-1.5 0,1 -1.75977,0 -1.61132,-1.9863 c 0.77538,-0.9677 1.61227,-2.0058 1.61132,-2.0137 l 1.75977,0 0,1 2,-1.5 z"/>
   </g>
   <rect y="535.79" x="428.71" height="1" width="1" style="fill:#4d4d4d;fill-opacity:1;"/>
  </g>
 </g>
</svg>
