<?xml version="1.0" encoding="UTF-8" standalone="no"?>
<svg xmlns="http://www.w3.org/2000/svg" width="22" height="22" version="1.1">
 <g transform="translate(-421.71429,-525.79074)">
  <g>
   <g transform="translate(94.71429,-7.57146)">
    <g>
     <g transform="translate(1,-1)">
      <g transform="matrix(1.1111103,0,0,1,-38.555282,0.99999823)">
       <g transform="matrix(0.66666667,0,0,0.66666667,70.952379,189.8302)">
        <g transform="translate(27.682101,0.12839698)">
         <g>
          <g transform="matrix(1.5,0,0,1.5,360.88933,-1034.8737)">
           <g transform="translate(-412.88298,512.00351)">
            <g transform="translate(341.79698,500.25245)">
             <g transform="translate(-392.98822,-511.27795)">
              <g transform="matrix(1.3333333,0,0,1.3333333,-61.890355,-165.99713)">
               <g transform="translate(341.79698,500.25245)">
                <g transform="translate(-392.98822,-511.27795)">
                 <g transform="translate(0.41988239,0.03484499)" style="stroke:#1f2a47;stroke-opacity:1">
                  <g transform="translate(440.36158,509.62534)">
                   <g style="stroke:#1f2a47;stroke-opacity:1" transform="matrix(0.52109202,0,0,0.52109202,-0.76995909,19.353185)">
                    <g transform="translate(-400.50475,-509.14629)">
                     <g transform="matrix(1.0037077,0,0,1.0037077,11.267145,17.846026)">
                      <g transform="matrix(1.5263052,0,0,1.5263052,376.49864,-1040.1735)">
                       <g transform="matrix(1.1526351,0,0,1.1526351,-4.8344134,-156.43331)">
                        <g>
                         <g transform="matrix(0.81509151,0,0,0.81509151,-323.19965,584.90903)">
                          <g transform="translate(341.79698,500.25245)">
                           <g transform="translate(-392.98822,-511.27795)">
                            <g transform="translate(0.41988239,0.03484499)" style="stroke:#1f2a47;stroke-opacity:1">
                             <g transform="translate(440.36158,509.62534)">
                              <g style="stroke:#1f2a47;stroke-opacity:1" transform="matrix(0.52109202,0,0,0.52109202,-0.76995909,19.353185)">
                               <g transform="translate(-400.50475,-509.14629)">
                                <g transform="matrix(0.76761933,0,0,0.76761933,156.46876,138.50552)">
                                 <path style="opacity:1;fill:#4d4d4d;fill-opacity:1;" d="M 3.8886719 3 C 3.3962284 3 3 3.3575818 3 3.8007812 L 3 18.199219 C 3 18.642418 3.3962284 19 3.8886719 19 L 18.111328 19 C 18.603772 19 19 18.642418 19 18.199219 L 19 3.8007812 C 19 3.3575818 18.603772 3 18.111328 3 L 3.8886719 3 z M 13.851562 6.5 C 14.044399 6.5340256 14.1875 6.7151393 14.1875 6.9570312 L 14.171875 13.246094 C 14.108307 13.715472 13.709042 14.161051 13.130859 14.318359 C 12.406134 14.515527 11.692461 14.186341 11.537109 13.597656 C 11.381752 13.008972 11.83581 12.372949 12.560547 12.175781 C 12.962155 12.066566 13.348772 12.131539 13.650391 12.296875 L 13.650391 8.484375 L 9.8925781 9.5390625 L 9.875 14.371094 C 9.8114544 14.840404 9.4141201 15.286124 8.8359375 15.443359 C 8.1112067 15.640527 7.3975332 15.311273 7.2421875 14.722656 C 7.0868306 14.133904 7.5408886 13.495996 8.265625 13.298828 C 8.6672501 13.189613 9.0538281 13.256539 9.3554688 13.421875 L 9.3554688 8.3105469 C 9.3554688 7.9880431 9.5951281 7.6557575 9.8925781 7.5722656 L 13.851562 6.5 z M 17.574219 15.400391 L 18.324219 15.962891 L 17.574219 16.525391 L 17.574219 16.150391 L 16.916016 16.150391 C 16.916372 16.153353 16.601314 16.541409 16.310547 16.904297 L 16.916016 17.650391 L 17.574219 17.650391 L 17.574219 17.275391 L 18.324219 17.837891 L 17.574219 18.400391 L 17.574219 18.025391 L 16.736328 18.025391 C 16.736328 18.025391 16.400007 17.605081 16.074219 17.199219 C 15.748494 17.605081 15.414062 18.025391 15.414062 18.025391 L 14.199219 18.025391 L 14.199219 17.650391 L 15.234375 17.650391 L 15.839844 16.904297 C 15.54902 16.541409 15.234019 16.154141 15.234375 16.150391 L 14.199219 16.150391 L 14.199219 15.775391 L 15.394531 15.775391 L 16.074219 16.615234 L 16.755859 15.775391 L 17.574219 15.775391 L 17.574219 15.400391 z" transform="matrix(2.2499999,0,0,2.4999981,383.82144,496.29801)"/>
                                </g>
                               </g>
                              </g>
                             </g>
                            </g>
                           </g>
                          </g>
                         </g>
                        </g>
                       </g>
                      </g>
                     </g>
                    </g>
                   </g>
                  </g>
                 </g>
                </g>
               </g>
              </g>
             </g>
            </g>
           </g>
          </g>
         </g>
        </g>
       </g>
      </g>
     </g>
    </g>
   </g>
  </g>
 </g>
</svg>
