<?xml version="1.0" encoding="UTF-8" standalone="no"?>
<svg xmlns="http://www.w3.org/2000/svg" width="24" height="24" version="1.1">
 <g transform="translate(0,-1028.3622)">
  <g transform="matrix(1.3762733,0,0,1.3762733,-22.281547,-392.44801)">
   <g transform="matrix(0.11790406,0,0,0.11790406,19.49484,1033.0621)" style="fill:#4d4d4d">
    <path d="m 11.478043,77.21 c -0.815,-3.259 -1.222,-6.327 -1.222,-9.206 l 0,-10.43 c 0,-1.412 -0.5159998,-2.634 -1.5479998,-3.666 -1.032,-1.032 -2.254,-1.548 -3.666,-1.548 -1.413,0 -2.635,0.516 -3.667,1.548 -1.03199999,1.032 -1.54799999,2.254 -1.54799999,3.666 l 0,10.429 c 0,6.03 1.141,11.841 3.42199999,17.437 l 8.2289998,-8.23"/>
    <path d="m 46.756043,94.07 c 7.17,0 13.309,-2.553 18.412,-7.657 5.105,-5.104 7.658,-11.243 7.658,-18.413 l 0,-10.429 29.411997,-29.412 c 0.543,-0.543 0.815,-1.168 0.815,-1.874 0,-0.706 -0.271,-1.331 -0.815,-1.874 L 95.558043,17.73 c -0.544,-0.544 -1.168,-0.815 -1.875,-0.815 -0.705,0 -1.33,0.271 -1.873,0.815 L -8.7299568,118.27 c -0.543,0.543 -0.814,1.168 -0.814,1.873 0,0.707 0.271,1.332 0.814,1.875 l 6.681,6.681 c 0.543,0.543 1.16800002,0.814 1.87400001,0.814 0.706,0 1.33099999,-0.271 1.87399999,-0.814 L 22.393043,108.005 c 5.974,3.695 12.356,5.895 19.15,6.6 l 0,10.756 -20.857,0 c -1.412,0 -2.635,0.516 -3.666,1.548 -1.032,1.032 -1.549,2.254 -1.549,3.666 0,1.411 0.517,2.635 1.549,3.666 1.031,1.032 2.254,1.549 3.666,1.549 l 52.14,0 c 1.412,0 2.635,-0.517 3.666,-1.549 1.033,-1.031 1.549,-2.255 1.549,-3.666 0,-1.412 -0.516,-2.634 -1.549,-3.666 -1.031,-1.032 -2.254,-1.548 -3.666,-1.548 l -20.856,0 0,-10.756 c 11.786,-1.303 21.685,-6.395 29.697,-15.275 8.01,-8.88 12.02,-19.322 12.02,-31.33 l 0,-10.431 c 0,-1.412 -0.516,-2.634 -1.547,-3.666 -1.033,-1.032 -2.255,-1.548 -3.667,-1.548 -1.412,0 -2.634,0.516 -3.666,1.548 -1.032,1.032 -1.548,2.254 -1.548,3.666 l 0,10.429 c 0,10.05 -3.572,18.643 -10.714,25.785 -7.142,7.142 -15.738,10.714 -25.786,10.714 -5.866,0 -11.433,-1.384 -16.702,-4.155 l 7.821,-7.82 c 2.934,1.031 5.894,1.546 8.881,1.546"/>
    <path d="m 61.786043,5.02 c -4.481,-3.205 -9.492,-4.808 -15.03,-4.808 -7.17,0 -13.308,2.554 -18.413,7.659 -5.105,5.105 -7.658,11.243 -7.658,18.413 l 0,41.714 50.594,-50.595 c -1.847,-5.05 -5.01,-9.179 -9.491,-12.383"/>
   </g>
  </g>
 </g>
</svg>
