<?xml version="1.0" encoding="UTF-8" standalone="no"?>
<svg xmlns="http://www.w3.org/2000/svg" width="22" height="22" version="1.1">
 <g transform="translate(-326,-534.3622)">
  <g transform="matrix(1.1293076,0,0,1.1293076,-297.77687,-153.21166)">
   <g style="fill:#000000;fill-opacity:0.8" transform="matrix(0.14300539,0,0,0.14300539,554.04072,610.29161)">
    <path style="fill:#4d4d4d;fill-opacity:1" d="m 57.572,8.464 c -1.412,0 -2.634,0.517 -3.666,1.548 l -27.131,27.131 -21.346,0 c -1.413,0 -2.635,0.517 -3.667,1.548 -1.032,1.032 -1.548,2.255 -1.548,3.667 l 0,31.285 c 0,1.412 0.516,2.635 1.548,3.666 1.033,1.032 2.255,1.549 3.667,1.549 l 21.345,0 27.131,27.131 c 1.032,1.031 2.254,1.548 3.666,1.548 1.413,0 2.635,-0.517 3.667,-1.548 1.032,-1.031 1.548,-2.254 1.548,-3.666 l 0,-88.644 c 0,-1.412 -0.516,-2.635 -1.547,-3.667 C 60.206,8.981 58.985,8.464 57.572,8.464 l 0,0 z"/>
    <g style="fill:#4d4d4d;fill-opacity:1" transform="matrix(5.8601665,0,0,5.8601665,-4463.4849,-1083.96)">
     <g style="fill:#4d4d4d;fill-opacity:1" transform="matrix(0.37907185,0,0,0.37907185,615.60988,-10.010196)">
      <g transform="matrix(0.20663505,0,0,0.20663505,416.2249,531.51293)" style="fill:#4d4d4d;fill-opacity:1">
       <path d="m 68.988857,47.999993 23.953,-23.953 c 1.521,-1.52 2.281,-3.367 2.281,-5.54 0,-2.173 -0.761,-4.019 -2.281,-5.54 l -11.08,-11.0809998 c -1.521,-1.52099998 -3.367,-2.28099998 -5.539,-2.28099998 -2.174,0 -4.02,0.76 -5.541,2.28099998 l -23.953,23.9529998 -23.953,-23.9529998 c -1.52,-1.52099998 -3.367,-2.28099998 -5.54,-2.28099998 -2.172,0 -4.019,0.76 -5.54,2.28099998 L 0.7148571,12.966993 c -1.51999992,1.52 -2.2809999,3.367 -2.2809999,5.54 0,2.173 0.75999998,4.019 2.2809999,5.54 l 23.9529999,23.953 -23.9529999,23.953 c -1.51999992,1.521 -2.2809999,3.367 -2.2809999,5.54 0,2.173 0.75999998,4.019 2.2809999,5.54 l 11.0809999,11.08 c 1.521,1.521 3.368,2.281 5.54,2.281 2.173,0 4.019,-0.761 5.54,-2.281 l 23.953,-23.953 23.954,23.953 c 1.521,1.521 3.366,2.281 5.541,2.281 2.172,0 4.019,-0.761 5.539,-2.281 l 11.079,-11.08 c 1.521,-1.52 2.281,-3.367 2.281,-5.54 0,-2.173 -0.76,-4.019 -2.281,-5.54 l -23.953,-23.953 0,0 z" style="fill:#4d4d4d;fill-opacity:1"/>
      </g>
     </g>
    </g>
   </g>
  </g>
 </g>
</svg>
