<?xml version="1.0" encoding="UTF-8" standalone="no"?>
<svg xmlns="http://www.w3.org/2000/svg" width="22" height="22" version="1.1">
 <g transform="translate(-326,-534.3622)">
  <g transform="translate(19.393049,0.1334019)">
   <g transform="translate(-19.393049,-0.13339873)">
    <g transform="matrix(0.66666665,0,0,0.66666665,70.952387,189.83024)">
     <g style="fill:none;stroke:#000000;stroke-opacity:1" transform="translate(374.61313,-496.84069)">
      <g style="fill:#000000;fill-opacity:1;" transform="matrix(0.96260036,0,0,0.96260036,-533.24725,449.15877)">
       <g style="fill:#000000;fill-opacity:1;" transform="matrix(0.14300539,0,0,0.14300539,554.04072,610.18772)">
        <g style="fill:#000000;fill-opacity:1;" transform="matrix(9.581865,0,0,9.581865,-7259.0635,-1926.5204)">
         <g style="fill:#000000;fill-opacity:1;" transform="matrix(0.37907185,0,0,0.37907185,615.60988,-10.010196)">
          <g transform="matrix(0.20663505,0,0,0.20663505,416.2249,531.51293)" style="fill:#000000;fill-opacity:1;">
           <g transform="translate(-14.518358,14.51835)">
            <path style="fill:#4d4d4d;fill-opacity:1;" d="M 1.1503906 3 C 0.73325935 3 0.3984375 3.3367799 0.3984375 3.7539062 L 0.3984375 18.246094 C 0.3984375 18.663224 0.73325935 19 1.1503906 19 L 20.849609 19 C 21.266735 19 21.601562 18.663224 21.601562 18.246094 L 21.601562 3.7539062 C 21.601562 3.3367799 21.266735 3 20.849609 3 L 1.1503906 3 z M 10.240234 7.5097656 C 10.293367 7.5241879 10.340744 7.5544945 10.384766 7.6015625 L 11 8.234375 L 11.615234 7.6015625 C 11.703221 7.5105011 11.809048 7.4821967 11.933594 7.515625 C 12.058083 7.5459788 12.135662 7.6235572 12.166016 7.7480469 L 12.384766 8.6035156 L 13.232422 8.3632812 C 13.356967 8.3268343 13.462794 8.3550828 13.550781 8.4492188 C 13.645029 8.5372615 13.67311 8.6431443 13.636719 8.7675781 L 13.396484 9.6152344 L 14.251953 9.8339844 C 14.37348 9.8643382 14.45189 9.9419166 14.488281 10.066406 C 14.518635 10.193915 14.489555 10.299741 14.398438 10.384766 L 13.769531 11 L 14.398438 11.615234 C 14.489611 11.700259 14.518691 11.80603 14.488281 11.933594 C 14.45189 12.058083 14.373536 12.135662 14.251953 12.166016 L 13.396484 12.384766 L 13.636719 13.230469 C 13.67311 13.354903 13.644973 13.462683 13.550781 13.550781 C 13.462794 13.644917 13.356967 13.67311 13.232422 13.636719 L 12.384766 13.394531 L 12.166016 14.251953 C 12.135662 14.373368 12.058083 14.451834 11.933594 14.488281 C 11.897091 14.494263 11.868954 14.498047 11.847656 14.498047 C 11.753576 14.498047 11.675942 14.463173 11.615234 14.396484 L 11 13.769531 L 10.384766 14.396484 C 10.299741 14.487546 10.193915 14.518635 10.066406 14.488281 C 9.9419166 14.454909 9.8643382 14.376443 9.8339844 14.251953 L 9.6152344 13.394531 L 8.7675781 13.636719 C 8.6430884 13.67311 8.5372615 13.644917 8.4492188 13.550781 C 8.3550828 13.462683 8.3268343 13.354958 8.3632812 13.230469 L 8.6035156 12.384766 L 7.7480469 12.166016 C 7.6266317 12.135662 7.5481098 12.058083 7.5117188 11.933594 C 7.481365 11.806085 7.5105011 11.700259 7.6015625 11.615234 L 8.2304688 11 L 7.6015625 10.384766 C 7.5105011 10.299741 7.4813091 10.193915 7.5117188 10.066406 C 7.5481098 9.9419166 7.6266317 9.8643382 7.7480469 9.8339844 L 8.6035156 9.6152344 L 8.3632812 8.7675781 C 8.3268343 8.6430884 8.3550828 8.5372615 8.4492188 8.4492188 C 8.5372615 8.3550828 8.6430884 8.3268343 8.7675781 8.3632812 L 9.6152344 8.6035156 L 9.8339844 7.7480469 C 9.8643382 7.6235572 9.9419166 7.5459788 10.066406 7.515625 C 10.128651 7.4974015 10.187101 7.4953434 10.240234 7.5097656 z" transform="matrix(14.51835,0,0,14.51835,-110.93776,-113.63864)"/>
           </g>
          </g>
         </g>
        </g>
       </g>
      </g>
     </g>
    </g>
   </g>
  </g>
 </g>
</svg>
