<?xml version="1.0" encoding="UTF-8" standalone="no"?>
<svg xmlns="http://www.w3.org/2000/svg" width="22" height="22" version="1.1">
 <g transform="translate(-326,-534.3622)">
  <g transform="translate(-1.0157193,0.99999972)">
   <g transform="translate(-224.28571,-74.28568)">
    <path style="fill:#4d4d4d;fill-rule:evenodd;" d="M 14,4.0156241 14,5 l -3,0 0,1 0,11 1,0 2,0 0,0.99501 C 14,17.99501 13.999,19 15.00934,19 l 3.005204,0 C 18.014544,19 19,19.0052 19,18.017107 l 0,-3.016253 C 19,15.000854 19.013148,14 18.014544,14 L 15.00934,14 C 15,14 14,14.011677 14,15.034 L 14,16 12,16 12,6 14,6 14,7.0127569 C 14,7.0127569 14.010146,8 15.00934,8 l 2.972059,0 C 17.981399,8 19,8.0360224 19,7.034854 L 19,3.9965044 C 19,4 18.989889,3 17.981399,3 L 15.000001,3 C 15,3 14,3.0060301 14,4.0156241 Z" transform="translate(551.28571,607.64788)"/>
   </g>
   <path d="m 334.94626,536.40459 -4.91483,5.9789 3.31656,1.79432 -0.85914,4.18439 4.91484,-5.97871 -3.31655,-1.79451 z" style="fill:#4d4d4d;fill-opacity:1;"/>
  </g>
 </g>
</svg>
