<?xml version="1.0" encoding="UTF-8" standalone="no"?>
<svg xmlns="http://www.w3.org/2000/svg" width="22" height="22" version="1.1">
 <g transform="translate(-326,-534.3622)">
  <g transform="matrix(0.74074058,0,0,0.74074058,40.28048,151.43786)">
   <rect y="522.23" x="327.87" height="16.5" width="0" style="fill:#49535a;fill-opacity:1;"/>
   <rect y="519.15" x="354.93" height="16.5" width="0" style="fill:#49535a;fill-opacity:1;"/>
   <rect y="522.23" x="327.87" height="16.5" width="0" style="fill:#49535a;fill-opacity:1;"/>
   <rect y="522.23" x="327.87" height="16.5" width="0" style="fill:#49535a;fill-opacity:1;"/>
   <rect y="514.98" x="316.91" height="16.5" width="0" style="fill:#49535a;fill-opacity:1;"/>
   <rect y="511.9" x="343.97" height="16.5" width="0" style="fill:#49535a;fill-opacity:1;"/>
   <rect y="514.98" x="316.91" height="16.5" width="0" style="fill:#49535a;fill-opacity:1;"/>
   <rect y="514.98" x="316.91" height="16.5" width="0" style="fill:#49535a;fill-opacity:1;"/>
   <rect y="521.3" x="325.93" height="16.5" width="0" style="fill:#49535a;fill-opacity:1;"/>
   <rect y="518.22" x="352.99" height="16.5" width="0" style="fill:#49535a;fill-opacity:1;"/>
   <rect y="521.3" x="325.93" height="16.5" width="0" style="fill:#49535a;fill-opacity:1;"/>
   <rect y="521.3" x="325.93" height="16.5" width="0" style="fill:#49535a;fill-opacity:1;"/>
   <rect style="fill:#49535a;fill-opacity:1;" width="0" height="16.5" x="327.87" y="522.23"/>
   <rect style="fill:#49535a;fill-opacity:1;" width="0" height="16.5" x="354.93" y="519.15"/>
   <rect style="fill:#49535a;fill-opacity:1;" width="0" height="16.5" x="327.87" y="522.23"/>
   <rect style="fill:#49535a;fill-opacity:1;" width="0" height="16.5" x="327.87" y="522.23"/>
   <rect style="fill:#49535a;fill-opacity:1;" width="0" height="16.5" x="316.91" y="514.98"/>
   <rect style="fill:#49535a;fill-opacity:1;" width="0" height="16.5" x="343.97" y="511.9"/>
   <rect style="fill:#49535a;fill-opacity:1;" width="0" height="16.5" x="316.91" y="514.98"/>
   <rect style="fill:#49535a;fill-opacity:1;" width="0" height="16.5" x="316.91" y="514.98"/>
   <rect style="fill:#49535a;fill-opacity:1;" width="0" height="16.5" x="325.93" y="521.3"/>
   <rect style="fill:#49535a;fill-opacity:1;" width="0" height="16.5" x="352.99" y="518.22"/>
   <rect style="fill:#49535a;fill-opacity:1;" width="0" height="16.5" x="325.93" y="521.3"/>
   <rect style="fill:#49535a;fill-opacity:1;" width="0" height="16.5" x="325.93" y="521.3"/>
   <rect style="fill:#49535a;fill-opacity:1;" width="0" height="16.5" x="324.07" y="527.3"/>
   <rect style="fill:#49535a;fill-opacity:1;" width="0" height="16.5" x="351.13" y="524.22"/>
   <rect style="fill:#49535a;fill-opacity:1;" width="0" height="16.5" x="324.07" y="527.3"/>
   <rect style="fill:#49535a;fill-opacity:1;" width="0" height="16.5" x="324.07" y="527.3"/>
   <rect style="fill:#49535a;fill-opacity:1;" width="0" height="16.5" x="300.09" y="521.85"/>
   <rect style="fill:#49535a;fill-opacity:1;" width="0" height="16.5" x="327.15" y="518.77"/>
   <rect style="fill:#49535a;fill-opacity:1;" width="0" height="16.5" x="300.09" y="521.85"/>
   <rect style="fill:#49535a;fill-opacity:1;" width="0" height="16.5" x="300.09" y="521.85"/>
   <rect y="522.23" x="327.87" height="16.5" width="0" style="fill:#49535a;fill-opacity:1;"/>
   <rect y="519.15" x="354.93" height="16.5" width="0" style="fill:#49535a;fill-opacity:1;"/>
   <rect y="522.23" x="327.87" height="16.5" width="0" style="fill:#49535a;fill-opacity:1;"/>
   <rect y="522.23" x="327.87" height="16.5" width="0" style="fill:#49535a;fill-opacity:1;"/>
   <rect y="514.98" x="316.91" height="16.5" width="0" style="fill:#49535a;fill-opacity:1;"/>
   <rect y="511.9" x="343.97" height="16.5" width="0" style="fill:#49535a;fill-opacity:1;"/>
   <rect y="514.98" x="316.91" height="16.5" width="0" style="fill:#49535a;fill-opacity:1;"/>
   <rect y="514.98" x="316.91" height="16.5" width="0" style="fill:#49535a;fill-opacity:1;"/>
   <rect y="521.3" x="325.93" height="16.5" width="0" style="fill:#49535a;fill-opacity:1;"/>
   <rect y="518.22" x="352.99" height="16.5" width="0" style="fill:#49535a;fill-opacity:1;"/>
   <rect y="521.3" x="325.93" height="16.5" width="0" style="fill:#49535a;fill-opacity:1;"/>
   <rect y="521.3" x="325.93" height="16.5" width="0" style="fill:#49535a;fill-opacity:1;"/>
   <rect y="541.73" x="362.49" height="11" width="0" style="fill:#4d4d4d;fill-opacity:1;"/>
   <rect y="539.67" x="380.53" height="11" width="0" style="fill:#4d4d4d;fill-opacity:1;"/>
   <rect y="541.73" x="362.49" height="11" width="0" style="fill:#4d4d4d;fill-opacity:1;"/>
   <rect y="541.73" x="362.49" height="11" width="0" style="fill:#4d4d4d;fill-opacity:1;"/>
   <rect y="536.89" x="355.18" height="11" width="0" style="fill:#4d4d4d;fill-opacity:1;"/>
   <rect y="534.84" x="373.22" height="11" width="0" style="fill:#4d4d4d;fill-opacity:1;"/>
   <rect y="536.89" x="355.18" height="11" width="0" style="fill:#4d4d4d;fill-opacity:1;"/>
   <rect y="536.89" x="355.18" height="11" width="0" style="fill:#4d4d4d;fill-opacity:1;"/>
   <rect y="541.11" x="361.2" height="11" width="0" style="fill:#4d4d4d;fill-opacity:1;"/>
   <rect y="539.05" x="379.24" height="11" width="0" style="fill:#4d4d4d;fill-opacity:1;"/>
   <rect y="541.11" x="361.2" height="11" width="0" style="fill:#4d4d4d;fill-opacity:1;"/>
   <rect y="541.11" x="361.2" height="11" width="0" style="fill:#4d4d4d;fill-opacity:1;"/>
   <rect y="522.35" x="327.91" height="16.5" width="0" style="fill:#49535a;fill-opacity:1;"/>
   <rect y="519.28" x="354.97" height="16.5" width="0" style="fill:#49535a;fill-opacity:1;"/>
   <rect y="522.35" x="327.91" height="16.5" width="0" style="fill:#49535a;fill-opacity:1;"/>
   <rect y="522.35" x="327.91" height="16.5" width="0" style="fill:#49535a;fill-opacity:1;"/>
   <rect y="515.1" x="316.95" height="16.5" width="0" style="fill:#49535a;fill-opacity:1;"/>
   <rect y="512.02" x="344.01" height="16.5" width="0" style="fill:#49535a;fill-opacity:1;"/>
   <rect y="515.1" x="316.95" height="16.5" width="0" style="fill:#49535a;fill-opacity:1;"/>
   <rect y="515.1" x="316.95" height="16.5" width="0" style="fill:#49535a;fill-opacity:1;"/>
   <rect y="521.43" x="325.97" height="16.5" width="0" style="fill:#49535a;fill-opacity:1;"/>
   <rect y="518.35" x="353.03" height="16.5" width="0" style="fill:#49535a;fill-opacity:1;"/>
   <rect y="521.43" x="325.97" height="16.5" width="0" style="fill:#49535a;fill-opacity:1;"/>
   <rect y="521.43" x="325.97" height="16.5" width="0" style="fill:#49535a;fill-opacity:1;"/>
   <rect style="fill:#49535a;fill-opacity:1;" width="0" height="16.5" x="327.91" y="522.35"/>
   <rect style="fill:#49535a;fill-opacity:1;" width="0" height="16.5" x="354.97" y="519.28"/>
   <rect style="fill:#49535a;fill-opacity:1;" width="0" height="16.5" x="327.91" y="522.35"/>
   <rect style="fill:#49535a;fill-opacity:1;" width="0" height="16.5" x="327.91" y="522.35"/>
   <rect style="fill:#49535a;fill-opacity:1;" width="0" height="16.5" x="316.95" y="515.1"/>
   <rect style="fill:#49535a;fill-opacity:1;" width="0" height="16.5" x="344.01" y="512.02"/>
   <rect style="fill:#49535a;fill-opacity:1;" width="0" height="16.5" x="316.95" y="515.1"/>
   <rect style="fill:#49535a;fill-opacity:1;" width="0" height="16.5" x="316.95" y="515.1"/>
   <rect style="fill:#49535a;fill-opacity:1;" width="0" height="16.5" x="325.97" y="521.43"/>
   <rect style="fill:#49535a;fill-opacity:1;" width="0" height="16.5" x="353.03" y="518.35"/>
   <rect style="fill:#49535a;fill-opacity:1;" width="0" height="16.5" x="325.97" y="521.43"/>
   <rect style="fill:#49535a;fill-opacity:1;" width="0" height="16.5" x="325.97" y="521.43"/>
   <rect style="fill:#49535a;fill-opacity:1;" width="0" height="16.5" x="324.11" y="527.42"/>
   <rect style="fill:#49535a;fill-opacity:1;" width="0" height="16.5" x="351.17" y="524.35"/>
   <rect style="fill:#49535a;fill-opacity:1;" width="0" height="16.5" x="324.11" y="527.42"/>
   <rect style="fill:#49535a;fill-opacity:1;" width="0" height="16.5" x="324.11" y="527.42"/>
   <rect style="fill:#49535a;fill-opacity:1;" width="0" height="16.5" x="300.13" y="521.97"/>
   <rect style="fill:#49535a;fill-opacity:1;" width="0" height="16.5" x="327.19" y="518.89"/>
   <rect style="fill:#49535a;fill-opacity:1;" width="0" height="16.5" x="300.13" y="521.97"/>
   <rect style="fill:#49535a;fill-opacity:1;" width="0" height="16.5" x="300.13" y="521.97"/>
   <rect y="522.35" x="327.91" height="16.5" width="0" style="fill:#49535a;fill-opacity:1;"/>
   <rect y="519.28" x="354.97" height="16.5" width="0" style="fill:#49535a;fill-opacity:1;"/>
   <rect y="522.35" x="327.91" height="16.5" width="0" style="fill:#49535a;fill-opacity:1;"/>
   <rect y="522.35" x="327.91" height="16.5" width="0" style="fill:#49535a;fill-opacity:1;"/>
   <rect y="515.1" x="316.95" height="16.5" width="0" style="fill:#49535a;fill-opacity:1;"/>
   <rect y="512.02" x="344.01" height="16.5" width="0" style="fill:#49535a;fill-opacity:1;"/>
   <rect y="515.1" x="316.95" height="16.5" width="0" style="fill:#49535a;fill-opacity:1;"/>
   <rect y="515.1" x="316.95" height="16.5" width="0" style="fill:#49535a;fill-opacity:1;"/>
   <rect y="521.43" x="325.97" height="16.5" width="0" style="fill:#49535a;fill-opacity:1;"/>
   <rect y="518.35" x="353.03" height="16.5" width="0" style="fill:#49535a;fill-opacity:1;"/>
   <rect y="521.43" x="325.97" height="16.5" width="0" style="fill:#49535a;fill-opacity:1;"/>
   <rect y="521.43" x="325.97" height="16.5" width="0" style="fill:#49535a;fill-opacity:1;"/>
   <rect y="541.85" x="362.53" height="11" width="0" style="fill:#4d4d4d;fill-opacity:1;"/>
   <rect y="539.8" x="380.57" height="11" width="0" style="fill:#4d4d4d;fill-opacity:1;"/>
   <rect y="541.85" x="362.53" height="11" width="0" style="fill:#4d4d4d;fill-opacity:1;"/>
   <rect y="541.85" x="362.53" height="11" width="0" style="fill:#4d4d4d;fill-opacity:1;"/>
   <rect y="537.01" x="355.22" height="11" width="0" style="fill:#4d4d4d;fill-opacity:1;"/>
   <rect y="534.96" x="373.26" height="11" width="0" style="fill:#4d4d4d;fill-opacity:1;"/>
   <rect y="537.01" x="355.22" height="11" width="0" style="fill:#4d4d4d;fill-opacity:1;"/>
   <rect y="537.01" x="355.22" height="11" width="0" style="fill:#4d4d4d;fill-opacity:1;"/>
   <rect y="541.23" x="361.24" height="11" width="0" style="fill:#4d4d4d;fill-opacity:1;"/>
   <rect y="539.18" x="379.28" height="11" width="0" style="fill:#4d4d4d;fill-opacity:1;"/>
   <rect y="541.23" x="361.24" height="11" width="0" style="fill:#4d4d4d;fill-opacity:1;"/>
   <rect y="541.23" x="361.24" height="11" width="0" style="fill:#4d4d4d;fill-opacity:1;"/>
   <g transform="translate(0.55102032,-2.7187001e-6)">
    <g transform="translate(0.49999755,-0.15000527)">
     <g>
      <g transform="matrix(-1,0,0,-1,799.04084,1063.896)">
       <rect transform="matrix(0.16697335,0,0,0.16697335,442.46717,525.39925)" style="opacity:1;fill:#4d4d4d;fill-opacity:1;fill-rule:evenodd;" width="77.857" height="13.176" x="-254.21" y="-13.78" ry="4.107"/>
       <rect style="opacity:1;fill:#4d4d4d;fill-opacity:1;fill-rule:evenodd;" width="13" height="2.2" x="400.02" y="528.4" ry=".686"/>
       <g transform="matrix(0.81185625,0,0,0.81185625,383.71348,-318.78749)">
        <g transform="matrix(1.1827033e-4,0.03271224,-0.03271224,1.1827033e-4,18.268695,1034.3501)" style="fill:#4d4d4d;fill-opacity:1">
         <path d="M 345.441,248.292 151.154,442.573 c -12.359,12.365 -32.397,12.365 -44.75,0 -12.354,-12.354 -12.354,-32.391 0,-44.744 L 278.318,225.92 106.409,54.017 c -12.354,-12.359 -12.354,-32.394 0,-44.748 12.354,-12.359 32.391,-12.359 44.75,0 l 194.287,194.284 c 6.177,6.18 9.262,14.271 9.262,22.366 0,8.099 -3.091,16.196 -9.267,22.373 z" style="fill:#4d4d4d;fill-opacity:1"/>
        </g>
       </g>
       <rect style="opacity:1;fill:#4d4d4d;fill-opacity:1;fill-rule:evenodd;" width="27" height="2.2" x="386.02" y="533.6" ry=".668"/>
       <rect style="opacity:1;fill:#4d4d4d;fill-opacity:1;fill-rule:evenodd;" width="13" height="2.2" x="400.02" y="538.6" ry=".686"/>
      </g>
     </g>
    </g>
   </g>
  </g>
 </g>
</svg>
