<?xml version="1.0" encoding="UTF-8" standalone="no"?>
<svg xmlns="http://www.w3.org/2000/svg" width="24" height="24" version="1.1">
 <g transform="translate(-326,-532.3622)">
  <g style="fill:#ffffff;fill-opacity:1">
   <g style="fill:#ffffff;fill-opacity:1" transform="matrix(0.46715328,0,0,0.46715328,330,536.3622)">
    <g style="fill:#4d4d4d;fill-opacity:1">
     <rect style="fill:#4d4d4d;fill-opacity:1" y="0" height="5.275" width="5.187" x="7.13"/>
     <rect style="fill:#4d4d4d;fill-opacity:1" y="0" height="5.275" width="5.185" x="14.27"/>
     <rect style="fill:#4d4d4d;fill-opacity:1" y="0" height="5.275" width="5.185" x="21.4"/>
     <rect style="fill:#4d4d4d;fill-opacity:1" y="0" height="5.275" width="5.186" x="29.06"/>
     <rect style="fill:#4d4d4d;fill-opacity:1" height="5.274" width="5.187" y="7.24" x="7.13"/>
     <rect style="fill:#4d4d4d;fill-opacity:1" height="5.274" width="5.185" y="7.24" x="14.27"/>
     <rect style="fill:#4d4d4d;fill-opacity:1" height="5.274" width="5.185" y="7.24" x="21.4"/>
     <rect style="fill:#4d4d4d;fill-opacity:1" height="5.274" width="5.186" y="7.24" x="29.06"/>
     <rect style="fill:#4d4d4d;fill-opacity:1" height="5.275" width="5.187" y="14.49" x="7.13"/>
     <rect style="fill:#4d4d4d;fill-opacity:1" height="5.275" width="5.185" y="14.49" x="14.27"/>
     <rect style="fill:#4d4d4d;fill-opacity:1" height="5.275" width="5.185" y="14.49" x="21.4"/>
     <rect style="fill:#4d4d4d;fill-opacity:1" height="5.275" width="5.186" y="14.49" x="29.06"/>
     <rect style="fill:#4d4d4d;fill-opacity:1" height="5.274" width="5.187" y="21.73" x="7.13"/>
     <rect style="fill:#4d4d4d;fill-opacity:1" height="5.274" width="5.185" y="21.73" x="14.27"/>
     <rect style="fill:#4d4d4d;fill-opacity:1" height="5.274" width="5.185" y="21.73" x="21.4"/>
     <rect style="fill:#4d4d4d;fill-opacity:1" height="5.274" width="5.186" y="21.73" x="29.06"/>
     <g style="fill:#4d4d4d;fill-opacity:1">
      <rect width="5.185" height="5.275" x="0" y="0" style="fill:#4d4d4d;fill-opacity:1"/>
      <rect y="7.24" width="5.185" height="5.274" x="0" style="fill:#4d4d4d;fill-opacity:1"/>
      <rect y="14.49" width="5.185" height="5.275" x="0" style="fill:#4d4d4d;fill-opacity:1"/>
      <rect y="21.73" width="5.185" height="5.274" x="0" style="fill:#4d4d4d;fill-opacity:1"/>
      <rect y="28.98" width="5.185" height="5.275" x="0" style="fill:#4d4d4d;fill-opacity:1"/>
     </g>
     <rect style="fill:#4d4d4d;fill-opacity:1" height="5.275" width="5.187" y="28.98" x="7.13"/>
     <rect style="fill:#4d4d4d;fill-opacity:1" height="5.275" width="5.185" y="28.98" x="14.27"/>
     <rect style="fill:#4d4d4d;fill-opacity:1" height="5.275" width="5.185" y="28.98" x="21.4"/>
     <rect style="fill:#4d4d4d;fill-opacity:1" height="5.275" width="5.186" y="28.98" x="29.06"/>
    </g>
   </g>
  </g>
 </g>
</svg>
