<?xml version="1.0" encoding="UTF-8" standalone="no"?>
<svg xmlns="http://www.w3.org/2000/svg" width="22" height="22" version="1.1">
 <g transform="translate(-326,-534.3622)">
  <g transform="translate(-95.71429,8.57146)">
   <path transform="translate(421.71429,525.79074)" d="m 11,3 0,1 1,0 0,-1 -1,0 z m 0,3 0,1 1,0 0,-1 -1,0 z m -2,2 0,5 5,0 0,-5 -5,0 z m -6,2 0,1 1,0 0,-1 -1,0 z m 2,0 0,1 1,0 0,-1 -1,0 z m 2,0 0,1 1,0 0,-1 -1,0 z m 8,0 0,1 1,0 0,-1 -1,0 z m 3,0 0,1 1,0 0,-1 -1,0 z m -7,4 0,1 1,0 0,-1 -1,0 z m 0,2 0,1 1,0 0,-1 -1,0 z m 0,2 0,1 1,0 0,-1 -1,0 z" style="opacity:1;fill:#4d4d4d;fill-opacity:1;"/>
  </g>
 </g>
</svg>
