<?xml version="1.0" encoding="UTF-8" standalone="no"?>
<svg xmlns="http://www.w3.org/2000/svg" width="22" height="22" version="1.1">
 <g transform="translate(-326,-534.3622)">
  <g transform="matrix(0.76626317,0,0,0.76626317,66.209776,126.44109)">
   <g transform="matrix(0.81481461,0,0,0.81481461,11.608542,111.04542)">
    <rect style="fill:#49535a;fill-opacity:1;" width="0" height="16.5" x="327.87" y="522.23"/>
    <rect style="fill:#49535a;fill-opacity:1;" width="0" height="16.5" x="354.93" y="519.15"/>
    <rect style="fill:#49535a;fill-opacity:1;" width="0" height="16.5" x="327.87" y="522.23"/>
    <rect style="fill:#49535a;fill-opacity:1;" width="0" height="16.5" x="327.87" y="522.23"/>
    <rect style="fill:#49535a;fill-opacity:1;" width="0" height="16.5" x="316.91" y="514.98"/>
    <rect style="fill:#49535a;fill-opacity:1;" width="0" height="16.5" x="343.97" y="511.9"/>
    <rect style="fill:#49535a;fill-opacity:1;" width="0" height="16.5" x="316.91" y="514.98"/>
    <rect style="fill:#49535a;fill-opacity:1;" width="0" height="16.5" x="316.91" y="514.98"/>
    <rect style="fill:#49535a;fill-opacity:1;" width="0" height="16.5" x="325.93" y="521.3"/>
    <rect style="fill:#49535a;fill-opacity:1;" width="0" height="16.5" x="352.99" y="518.22"/>
    <rect style="fill:#49535a;fill-opacity:1;" width="0" height="16.5" x="325.93" y="521.3"/>
    <rect style="fill:#49535a;fill-opacity:1;" width="0" height="16.5" x="325.93" y="521.3"/>
    <rect y="522.23" x="327.87" height="16.5" width="0" style="fill:#49535a;fill-opacity:1;"/>
    <rect y="519.15" x="354.93" height="16.5" width="0" style="fill:#49535a;fill-opacity:1;"/>
    <rect y="522.23" x="327.87" height="16.5" width="0" style="fill:#49535a;fill-opacity:1;"/>
    <rect y="522.23" x="327.87" height="16.5" width="0" style="fill:#49535a;fill-opacity:1;"/>
    <rect y="514.98" x="316.91" height="16.5" width="0" style="fill:#49535a;fill-opacity:1;"/>
    <rect y="511.9" x="343.97" height="16.5" width="0" style="fill:#49535a;fill-opacity:1;"/>
    <rect y="514.98" x="316.91" height="16.5" width="0" style="fill:#49535a;fill-opacity:1;"/>
    <rect y="514.98" x="316.91" height="16.5" width="0" style="fill:#49535a;fill-opacity:1;"/>
    <rect y="521.3" x="325.93" height="16.5" width="0" style="fill:#49535a;fill-opacity:1;"/>
    <rect y="518.22" x="352.99" height="16.5" width="0" style="fill:#49535a;fill-opacity:1;"/>
    <rect y="521.3" x="325.93" height="16.5" width="0" style="fill:#49535a;fill-opacity:1;"/>
    <rect y="521.3" x="325.93" height="16.5" width="0" style="fill:#49535a;fill-opacity:1;"/>
    <rect y="527.3" x="324.07" height="16.5" width="0" style="fill:#49535a;fill-opacity:1;"/>
    <rect y="524.22" x="351.13" height="16.5" width="0" style="fill:#49535a;fill-opacity:1;"/>
    <rect y="527.3" x="324.07" height="16.5" width="0" style="fill:#49535a;fill-opacity:1;"/>
    <rect y="527.3" x="324.07" height="16.5" width="0" style="fill:#49535a;fill-opacity:1;"/>
    <rect y="521.85" x="300.09" height="16.5" width="0" style="fill:#49535a;fill-opacity:1;"/>
    <rect y="518.77" x="327.15" height="16.5" width="0" style="fill:#49535a;fill-opacity:1;"/>
    <rect y="521.85" x="300.09" height="16.5" width="0" style="fill:#49535a;fill-opacity:1;"/>
    <rect y="521.85" x="300.09" height="16.5" width="0" style="fill:#49535a;fill-opacity:1;"/>
    <rect style="fill:#49535a;fill-opacity:1;" width="0" height="16.5" x="327.87" y="522.23"/>
    <rect style="fill:#49535a;fill-opacity:1;" width="0" height="16.5" x="354.93" y="519.15"/>
    <rect style="fill:#49535a;fill-opacity:1;" width="0" height="16.5" x="327.87" y="522.23"/>
    <rect style="fill:#49535a;fill-opacity:1;" width="0" height="16.5" x="327.87" y="522.23"/>
    <rect style="fill:#49535a;fill-opacity:1;" width="0" height="16.5" x="316.91" y="514.98"/>
    <rect style="fill:#49535a;fill-opacity:1;" width="0" height="16.5" x="343.97" y="511.9"/>
    <rect style="fill:#49535a;fill-opacity:1;" width="0" height="16.5" x="316.91" y="514.98"/>
    <rect style="fill:#49535a;fill-opacity:1;" width="0" height="16.5" x="316.91" y="514.98"/>
    <rect style="fill:#49535a;fill-opacity:1;" width="0" height="16.5" x="325.93" y="521.3"/>
    <rect style="fill:#49535a;fill-opacity:1;" width="0" height="16.5" x="352.99" y="518.22"/>
    <rect style="fill:#49535a;fill-opacity:1;" width="0" height="16.5" x="325.93" y="521.3"/>
    <rect style="fill:#49535a;fill-opacity:1;" width="0" height="16.5" x="325.93" y="521.3"/>
    <rect style="fill:#4d4d4d;fill-opacity:1;" width="0" height="11" x="362.49" y="541.73"/>
    <rect style="fill:#4d4d4d;fill-opacity:1;" width="0" height="11" x="380.53" y="539.67"/>
    <rect style="fill:#4d4d4d;fill-opacity:1;" width="0" height="11" x="362.49" y="541.73"/>
    <rect style="fill:#4d4d4d;fill-opacity:1;" width="0" height="11" x="362.49" y="541.73"/>
    <rect style="fill:#4d4d4d;fill-opacity:1;" width="0" height="11" x="355.18" y="536.89"/>
    <rect style="fill:#4d4d4d;fill-opacity:1;" width="0" height="11" x="373.22" y="534.84"/>
    <rect style="fill:#4d4d4d;fill-opacity:1;" width="0" height="11" x="355.18" y="536.89"/>
    <rect style="fill:#4d4d4d;fill-opacity:1;" width="0" height="11" x="355.18" y="536.89"/>
    <rect style="fill:#4d4d4d;fill-opacity:1;" width="0" height="11" x="361.2" y="541.11"/>
    <rect style="fill:#4d4d4d;fill-opacity:1;" width="0" height="11" x="379.24" y="539.05"/>
    <rect style="fill:#4d4d4d;fill-opacity:1;" width="0" height="11" x="361.2" y="541.11"/>
    <rect style="fill:#4d4d4d;fill-opacity:1;" width="0" height="11" x="361.2" y="541.11"/>
    <rect style="fill:#49535a;fill-opacity:1;" width="0" height="16.5" x="327.91" y="522.35"/>
    <rect style="fill:#49535a;fill-opacity:1;" width="0" height="16.5" x="354.97" y="519.28"/>
    <rect style="fill:#49535a;fill-opacity:1;" width="0" height="16.5" x="327.91" y="522.35"/>
    <rect style="fill:#49535a;fill-opacity:1;" width="0" height="16.5" x="327.91" y="522.35"/>
    <rect style="fill:#49535a;fill-opacity:1;" width="0" height="16.5" x="316.95" y="515.1"/>
    <rect style="fill:#49535a;fill-opacity:1;" width="0" height="16.5" x="344.01" y="512.02"/>
    <rect style="fill:#49535a;fill-opacity:1;" width="0" height="16.5" x="316.95" y="515.1"/>
    <rect style="fill:#49535a;fill-opacity:1;" width="0" height="16.5" x="316.95" y="515.1"/>
    <rect style="fill:#49535a;fill-opacity:1;" width="0" height="16.5" x="325.97" y="521.43"/>
    <rect style="fill:#49535a;fill-opacity:1;" width="0" height="16.5" x="353.03" y="518.35"/>
    <rect style="fill:#49535a;fill-opacity:1;" width="0" height="16.5" x="325.97" y="521.43"/>
    <rect style="fill:#49535a;fill-opacity:1;" width="0" height="16.5" x="325.97" y="521.43"/>
    <rect y="522.35" x="327.91" height="16.5" width="0" style="fill:#49535a;fill-opacity:1;"/>
    <rect y="519.28" x="354.97" height="16.5" width="0" style="fill:#49535a;fill-opacity:1;"/>
    <rect y="522.35" x="327.91" height="16.5" width="0" style="fill:#49535a;fill-opacity:1;"/>
    <rect y="522.35" x="327.91" height="16.5" width="0" style="fill:#49535a;fill-opacity:1;"/>
    <rect y="515.1" x="316.95" height="16.5" width="0" style="fill:#49535a;fill-opacity:1;"/>
    <rect y="512.02" x="344.01" height="16.5" width="0" style="fill:#49535a;fill-opacity:1;"/>
    <rect y="515.1" x="316.95" height="16.5" width="0" style="fill:#49535a;fill-opacity:1;"/>
    <rect y="515.1" x="316.95" height="16.5" width="0" style="fill:#49535a;fill-opacity:1;"/>
    <rect y="521.43" x="325.97" height="16.5" width="0" style="fill:#49535a;fill-opacity:1;"/>
    <rect y="518.35" x="353.03" height="16.5" width="0" style="fill:#49535a;fill-opacity:1;"/>
    <rect y="521.43" x="325.97" height="16.5" width="0" style="fill:#49535a;fill-opacity:1;"/>
    <rect y="521.43" x="325.97" height="16.5" width="0" style="fill:#49535a;fill-opacity:1;"/>
    <rect y="527.42" x="324.11" height="16.5" width="0" style="fill:#49535a;fill-opacity:1;"/>
    <rect y="524.35" x="351.17" height="16.5" width="0" style="fill:#49535a;fill-opacity:1;"/>
    <rect y="527.42" x="324.11" height="16.5" width="0" style="fill:#49535a;fill-opacity:1;"/>
    <rect y="527.42" x="324.11" height="16.5" width="0" style="fill:#49535a;fill-opacity:1;"/>
    <rect y="521.97" x="300.13" height="16.5" width="0" style="fill:#49535a;fill-opacity:1;"/>
    <rect y="518.89" x="327.19" height="16.5" width="0" style="fill:#49535a;fill-opacity:1;"/>
    <rect y="521.97" x="300.13" height="16.5" width="0" style="fill:#49535a;fill-opacity:1;"/>
    <rect y="521.97" x="300.13" height="16.5" width="0" style="fill:#49535a;fill-opacity:1;"/>
    <rect style="fill:#49535a;fill-opacity:1;" width="0" height="16.5" x="327.91" y="522.35"/>
    <rect style="fill:#49535a;fill-opacity:1;" width="0" height="16.5" x="354.97" y="519.28"/>
    <rect style="fill:#49535a;fill-opacity:1;" width="0" height="16.5" x="327.91" y="522.35"/>
    <rect style="fill:#49535a;fill-opacity:1;" width="0" height="16.5" x="327.91" y="522.35"/>
    <rect style="fill:#49535a;fill-opacity:1;" width="0" height="16.5" x="316.95" y="515.1"/>
    <rect style="fill:#49535a;fill-opacity:1;" width="0" height="16.5" x="344.01" y="512.02"/>
    <rect style="fill:#49535a;fill-opacity:1;" width="0" height="16.5" x="316.95" y="515.1"/>
    <rect style="fill:#49535a;fill-opacity:1;" width="0" height="16.5" x="316.95" y="515.1"/>
    <rect style="fill:#49535a;fill-opacity:1;" width="0" height="16.5" x="325.97" y="521.43"/>
    <rect style="fill:#49535a;fill-opacity:1;" width="0" height="16.5" x="353.03" y="518.35"/>
    <rect style="fill:#49535a;fill-opacity:1;" width="0" height="16.5" x="325.97" y="521.43"/>
    <rect style="fill:#49535a;fill-opacity:1;" width="0" height="16.5" x="325.97" y="521.43"/>
    <rect style="fill:#4d4d4d;fill-opacity:1;" width="0" height="11" x="362.53" y="541.85"/>
    <rect style="fill:#4d4d4d;fill-opacity:1;" width="0" height="11" x="380.57" y="539.8"/>
    <rect style="fill:#4d4d4d;fill-opacity:1;" width="0" height="11" x="362.53" y="541.85"/>
    <rect style="fill:#4d4d4d;fill-opacity:1;" width="0" height="11" x="362.53" y="541.85"/>
    <rect style="fill:#4d4d4d;fill-opacity:1;" width="0" height="11" x="355.22" y="537.01"/>
    <rect style="fill:#4d4d4d;fill-opacity:1;" width="0" height="11" x="373.26" y="534.96"/>
    <rect style="fill:#4d4d4d;fill-opacity:1;" width="0" height="11" x="355.22" y="537.01"/>
    <rect style="fill:#4d4d4d;fill-opacity:1;" width="0" height="11" x="355.22" y="537.01"/>
    <rect style="fill:#4d4d4d;fill-opacity:1;" width="0" height="11" x="361.24" y="541.23"/>
    <rect style="fill:#4d4d4d;fill-opacity:1;" width="0" height="11" x="379.28" y="539.18"/>
    <rect style="fill:#4d4d4d;fill-opacity:1;" width="0" height="11" x="361.24" y="541.23"/>
    <rect style="fill:#4d4d4d;fill-opacity:1;" width="0" height="11" x="361.24" y="541.23"/>
    <g transform="translate(0.55102032,-2.7187001e-6)">
     <g transform="matrix(1.227273,0,0,1.227273,-72.701576,-117.98613)">
      <g transform="matrix(1.3413992,0,0,1.3413992,-138.24323,-177.2621)">
       <g style="font-size:13.75px;line-height:125%;letter-spacing:0px;word-spacing:0px;fill:#4d4d4d;fill-opacity:1;" transform="translate(15.82999,-7.02622)">
        <path d="m 379.47269,535.01797 q -1.0725,0 -1.80125,-0.61875 -0.715,-0.61875 -0.715,-1.63625 0,-1.1 0.8525,-1.71875 0.8525,-0.6325 2.10375,-0.6325 1.11375,0 1.82875,0.4125 l 0,-0.1925 q 0,-0.7425 -0.50875,-1.1825 -0.50875,-0.45375 -1.25125,-0.45375 -0.55,0 -1.00375,0.26125 -0.44,0.26125 -0.605,0.715 l -1.155,-0.495 q 0.23375,-0.605 0.92125,-1.11375 0.6875,-0.5225 1.815,-0.5225 1.2925,0 2.145,0.75625 0.8525,0.75625 0.8525,2.13125 l 0,4.07 -1.21,0 0,-0.935 -0.055,0 q -0.75625,1.155 -2.21375,1.155 z m 0.20625,-1.155 q 0.78375,0 1.41625,-0.5775 0.64625,-0.59125 0.64625,-1.38875 -0.53625,-0.44 -1.60875,-0.44 -0.92125,0 -1.38875,0.39875 -0.4675,0.39875 -0.4675,0.935 0,0.495 0.42625,0.78375 0.42625,0.28875 0.97625,0.28875 z" style="font-family:'Product Sans';fill:#4d4d4d;fill-opacity:1"/>
       </g>
       <g style="font-size:13.75px;line-height:125%;letter-spacing:0px;word-spacing:0px;fill:#4d4d4d;fill-opacity:1;" transform="translate(15.72374,-6.41747)">
        <path d="m 377.01144,542.79797 0,-1.1 3.83625,-4.4825 -3.72625,0 0,-1.155 5.28,0 0,1.1 -3.83625,4.4825 3.89125,0 0,1.155 -5.445,0 z" style="font-family:'Product Sans';fill:#4d4d4d;fill-opacity:1"/>
       </g>
       <g transform="matrix(0.83333334,0,0,0.83333334,43.735037,84.591357)">
        <rect y="522.23" x="327.87" height="16.5" width="0" style="fill:#49535a;fill-opacity:1;"/>
        <rect y="519.15" x="354.93" height="16.5" width="0" style="fill:#49535a;fill-opacity:1;"/>
        <rect y="522.23" x="327.87" height="16.5" width="0" style="fill:#49535a;fill-opacity:1;"/>
        <rect y="522.23" x="327.87" height="16.5" width="0" style="fill:#49535a;fill-opacity:1;"/>
        <rect y="514.98" x="316.91" height="16.5" width="0" style="fill:#49535a;fill-opacity:1;"/>
        <rect y="511.9" x="343.97" height="16.5" width="0" style="fill:#49535a;fill-opacity:1;"/>
        <rect y="514.98" x="316.91" height="16.5" width="0" style="fill:#49535a;fill-opacity:1;"/>
        <rect y="514.98" x="316.91" height="16.5" width="0" style="fill:#49535a;fill-opacity:1;"/>
        <rect y="521.3" x="325.93" height="16.5" width="0" style="fill:#49535a;fill-opacity:1;"/>
        <rect y="518.22" x="352.99" height="16.5" width="0" style="fill:#49535a;fill-opacity:1;"/>
        <rect y="521.3" x="325.93" height="16.5" width="0" style="fill:#49535a;fill-opacity:1;"/>
        <rect y="521.3" x="325.93" height="16.5" width="0" style="fill:#49535a;fill-opacity:1;"/>
        <rect style="fill:#49535a;fill-opacity:1;" width="0" height="16.5" x="327.87" y="522.23"/>
        <rect style="fill:#49535a;fill-opacity:1;" width="0" height="16.5" x="354.93" y="519.15"/>
        <rect style="fill:#49535a;fill-opacity:1;" width="0" height="16.5" x="327.87" y="522.23"/>
        <rect style="fill:#49535a;fill-opacity:1;" width="0" height="16.5" x="327.87" y="522.23"/>
        <rect style="fill:#49535a;fill-opacity:1;" width="0" height="16.5" x="316.91" y="514.98"/>
        <rect style="fill:#49535a;fill-opacity:1;" width="0" height="16.5" x="343.97" y="511.9"/>
        <rect style="fill:#49535a;fill-opacity:1;" width="0" height="16.5" x="316.91" y="514.98"/>
        <rect style="fill:#49535a;fill-opacity:1;" width="0" height="16.5" x="316.91" y="514.98"/>
        <rect style="fill:#49535a;fill-opacity:1;" width="0" height="16.5" x="325.93" y="521.3"/>
        <rect style="fill:#49535a;fill-opacity:1;" width="0" height="16.5" x="352.99" y="518.22"/>
        <rect style="fill:#49535a;fill-opacity:1;" width="0" height="16.5" x="325.93" y="521.3"/>
        <rect style="fill:#49535a;fill-opacity:1;" width="0" height="16.5" x="325.93" y="521.3"/>
        <rect style="fill:#49535a;fill-opacity:1;" width="0" height="16.5" x="324.07" y="527.3"/>
        <rect style="fill:#49535a;fill-opacity:1;" width="0" height="16.5" x="351.13" y="524.22"/>
        <rect style="fill:#49535a;fill-opacity:1;" width="0" height="16.5" x="324.07" y="527.3"/>
        <rect style="fill:#49535a;fill-opacity:1;" width="0" height="16.5" x="324.07" y="527.3"/>
        <rect style="fill:#49535a;fill-opacity:1;" width="0" height="16.5" x="300.09" y="521.85"/>
        <rect style="fill:#49535a;fill-opacity:1;" width="0" height="16.5" x="327.15" y="518.77"/>
        <rect style="fill:#49535a;fill-opacity:1;" width="0" height="16.5" x="300.09" y="521.85"/>
        <rect style="fill:#49535a;fill-opacity:1;" width="0" height="16.5" x="300.09" y="521.85"/>
        <rect y="522.23" x="327.87" height="16.5" width="0" style="fill:#49535a;fill-opacity:1;"/>
        <rect y="519.15" x="354.93" height="16.5" width="0" style="fill:#49535a;fill-opacity:1;"/>
        <rect y="522.23" x="327.87" height="16.5" width="0" style="fill:#49535a;fill-opacity:1;"/>
        <rect y="522.23" x="327.87" height="16.5" width="0" style="fill:#49535a;fill-opacity:1;"/>
        <rect y="514.98" x="316.91" height="16.5" width="0" style="fill:#49535a;fill-opacity:1;"/>
        <rect y="511.9" x="343.97" height="16.5" width="0" style="fill:#49535a;fill-opacity:1;"/>
        <rect y="514.98" x="316.91" height="16.5" width="0" style="fill:#49535a;fill-opacity:1;"/>
        <rect y="514.98" x="316.91" height="16.5" width="0" style="fill:#49535a;fill-opacity:1;"/>
        <rect y="521.3" x="325.93" height="16.5" width="0" style="fill:#49535a;fill-opacity:1;"/>
        <rect y="518.22" x="352.99" height="16.5" width="0" style="fill:#49535a;fill-opacity:1;"/>
        <rect y="521.3" x="325.93" height="16.5" width="0" style="fill:#49535a;fill-opacity:1;"/>
        <rect y="521.3" x="325.93" height="16.5" width="0" style="fill:#49535a;fill-opacity:1;"/>
        <rect y="541.73" x="362.49" height="11" width="0" style="fill:#4d4d4d;fill-opacity:1;"/>
        <rect y="539.67" x="380.53" height="11" width="0" style="fill:#4d4d4d;fill-opacity:1;"/>
        <rect y="541.73" x="362.49" height="11" width="0" style="fill:#4d4d4d;fill-opacity:1;"/>
        <rect y="541.73" x="362.49" height="11" width="0" style="fill:#4d4d4d;fill-opacity:1;"/>
        <rect y="536.89" x="355.18" height="11" width="0" style="fill:#4d4d4d;fill-opacity:1;"/>
        <rect y="534.84" x="373.22" height="11" width="0" style="fill:#4d4d4d;fill-opacity:1;"/>
        <rect y="536.89" x="355.18" height="11" width="0" style="fill:#4d4d4d;fill-opacity:1;"/>
        <rect y="536.89" x="355.18" height="11" width="0" style="fill:#4d4d4d;fill-opacity:1;"/>
        <rect y="541.11" x="361.2" height="11" width="0" style="fill:#4d4d4d;fill-opacity:1;"/>
        <rect y="539.05" x="379.24" height="11" width="0" style="fill:#4d4d4d;fill-opacity:1;"/>
        <rect y="541.11" x="361.2" height="11" width="0" style="fill:#4d4d4d;fill-opacity:1;"/>
        <rect y="541.11" x="361.2" height="11" width="0" style="fill:#4d4d4d;fill-opacity:1;"/>
        <rect y="522.35" x="327.91" height="16.5" width="0" style="fill:#49535a;fill-opacity:1;"/>
        <rect y="519.28" x="354.97" height="16.5" width="0" style="fill:#49535a;fill-opacity:1;"/>
        <rect y="522.35" x="327.91" height="16.5" width="0" style="fill:#49535a;fill-opacity:1;"/>
        <rect y="522.35" x="327.91" height="16.5" width="0" style="fill:#49535a;fill-opacity:1;"/>
        <rect y="515.1" x="316.95" height="16.5" width="0" style="fill:#49535a;fill-opacity:1;"/>
        <rect y="512.02" x="344.01" height="16.5" width="0" style="fill:#49535a;fill-opacity:1;"/>
        <rect y="515.1" x="316.95" height="16.5" width="0" style="fill:#49535a;fill-opacity:1;"/>
        <rect y="515.1" x="316.95" height="16.5" width="0" style="fill:#49535a;fill-opacity:1;"/>
        <rect y="521.43" x="325.97" height="16.5" width="0" style="fill:#49535a;fill-opacity:1;"/>
        <rect y="518.35" x="353.03" height="16.5" width="0" style="fill:#49535a;fill-opacity:1;"/>
        <rect y="521.43" x="325.97" height="16.5" width="0" style="fill:#49535a;fill-opacity:1;"/>
        <rect y="521.43" x="325.97" height="16.5" width="0" style="fill:#49535a;fill-opacity:1;"/>
        <rect style="fill:#49535a;fill-opacity:1;" width="0" height="16.5" x="327.91" y="522.35"/>
        <rect style="fill:#49535a;fill-opacity:1;" width="0" height="16.5" x="354.97" y="519.28"/>
        <rect style="fill:#49535a;fill-opacity:1;" width="0" height="16.5" x="327.91" y="522.35"/>
        <rect style="fill:#49535a;fill-opacity:1;" width="0" height="16.5" x="327.91" y="522.35"/>
        <rect style="fill:#49535a;fill-opacity:1;" width="0" height="16.5" x="316.95" y="515.1"/>
        <rect style="fill:#49535a;fill-opacity:1;" width="0" height="16.5" x="344.01" y="512.02"/>
        <rect style="fill:#49535a;fill-opacity:1;" width="0" height="16.5" x="316.95" y="515.1"/>
        <rect style="fill:#49535a;fill-opacity:1;" width="0" height="16.5" x="316.95" y="515.1"/>
        <rect style="fill:#49535a;fill-opacity:1;" width="0" height="16.5" x="325.97" y="521.43"/>
        <rect style="fill:#49535a;fill-opacity:1;" width="0" height="16.5" x="353.03" y="518.35"/>
        <rect style="fill:#49535a;fill-opacity:1;" width="0" height="16.5" x="325.97" y="521.43"/>
        <rect style="fill:#49535a;fill-opacity:1;" width="0" height="16.5" x="325.97" y="521.43"/>
        <rect style="fill:#49535a;fill-opacity:1;" width="0" height="16.5" x="324.11" y="527.42"/>
        <rect style="fill:#49535a;fill-opacity:1;" width="0" height="16.5" x="351.17" y="524.35"/>
        <rect style="fill:#49535a;fill-opacity:1;" width="0" height="16.5" x="324.11" y="527.42"/>
        <rect style="fill:#49535a;fill-opacity:1;" width="0" height="16.5" x="324.11" y="527.42"/>
        <rect style="fill:#49535a;fill-opacity:1;" width="0" height="16.5" x="300.13" y="521.97"/>
        <rect style="fill:#49535a;fill-opacity:1;" width="0" height="16.5" x="327.19" y="518.89"/>
        <rect style="fill:#49535a;fill-opacity:1;" width="0" height="16.5" x="300.13" y="521.97"/>
        <rect style="fill:#49535a;fill-opacity:1;" width="0" height="16.5" x="300.13" y="521.97"/>
        <rect y="522.35" x="327.91" height="16.5" width="0" style="fill:#49535a;fill-opacity:1;"/>
        <rect y="519.28" x="354.97" height="16.5" width="0" style="fill:#49535a;fill-opacity:1;"/>
        <rect y="522.35" x="327.91" height="16.5" width="0" style="fill:#49535a;fill-opacity:1;"/>
        <rect y="522.35" x="327.91" height="16.5" width="0" style="fill:#49535a;fill-opacity:1;"/>
        <rect y="515.1" x="316.95" height="16.5" width="0" style="fill:#49535a;fill-opacity:1;"/>
        <rect y="512.02" x="344.01" height="16.5" width="0" style="fill:#49535a;fill-opacity:1;"/>
        <rect y="515.1" x="316.95" height="16.5" width="0" style="fill:#49535a;fill-opacity:1;"/>
        <rect y="515.1" x="316.95" height="16.5" width="0" style="fill:#49535a;fill-opacity:1;"/>
        <rect y="521.43" x="325.97" height="16.5" width="0" style="fill:#49535a;fill-opacity:1;"/>
        <rect y="518.35" x="353.03" height="16.5" width="0" style="fill:#49535a;fill-opacity:1;"/>
        <rect y="521.43" x="325.97" height="16.5" width="0" style="fill:#49535a;fill-opacity:1;"/>
        <rect y="521.43" x="325.97" height="16.5" width="0" style="fill:#49535a;fill-opacity:1;"/>
        <rect y="541.85" x="362.53" height="11" width="0" style="fill:#4d4d4d;fill-opacity:1;"/>
        <rect y="539.8" x="380.57" height="11" width="0" style="fill:#4d4d4d;fill-opacity:1;"/>
        <rect y="541.85" x="362.53" height="11" width="0" style="fill:#4d4d4d;fill-opacity:1;"/>
        <rect y="541.85" x="362.53" height="11" width="0" style="fill:#4d4d4d;fill-opacity:1;"/>
        <rect y="537.01" x="355.22" height="11" width="0" style="fill:#4d4d4d;fill-opacity:1;"/>
        <rect y="534.96" x="373.26" height="11" width="0" style="fill:#4d4d4d;fill-opacity:1;"/>
        <rect y="537.01" x="355.22" height="11" width="0" style="fill:#4d4d4d;fill-opacity:1;"/>
        <rect y="537.01" x="355.22" height="11" width="0" style="fill:#4d4d4d;fill-opacity:1;"/>
        <rect y="541.23" x="361.24" height="11" width="0" style="fill:#4d4d4d;fill-opacity:1;"/>
        <rect y="539.18" x="379.28" height="11" width="0" style="fill:#4d4d4d;fill-opacity:1;"/>
        <rect y="541.23" x="361.24" height="11" width="0" style="fill:#4d4d4d;fill-opacity:1;"/>
        <rect y="541.23" x="361.24" height="11" width="0" style="fill:#4d4d4d;fill-opacity:1;"/>
        <g transform="translate(0.55102032,-2.7187001e-6)">
         <g transform="translate(0.49999755,-0.15000527)">
          <g>
           <g transform="matrix(-0.81185625,0,0,-0.81185625,442.0632,1384.6229)">
            <g transform="matrix(1.1827033e-4,0.03271224,-0.03271224,1.1827033e-4,18.268695,1034.3501)" style="fill:#4d4d4d;fill-opacity:1">
             <path d="M 345.441,248.292 151.154,442.573 c -12.359,12.365 -32.397,12.365 -44.75,0 -12.354,-12.354 -12.354,-32.391 0,-44.744 L 278.318,225.92 106.409,54.017 c -12.354,-12.359 -12.354,-32.394 0,-44.748 12.354,-12.359 32.391,-12.359 44.75,0 l 194.287,194.284 c 6.177,6.18 9.262,14.271 9.262,22.366 0,8.099 -3.091,16.196 -9.267,22.373 z" style="fill:#4d4d4d;fill-opacity:1"/>
            </g>
           </g>
          </g>
         </g>
        </g>
       </g>
      </g>
     </g>
    </g>
   </g>
  </g>
 </g>
</svg>
