<?xml version="1.0" encoding="UTF-8" standalone="no"?>
<svg xmlns="http://www.w3.org/2000/svg" width="22" height="22" version="1.1">
 <g transform="translate(-326,-534.3622)">
  <g transform="translate(-95.71429,8.5714595)">
   <path transform="translate(421.71429,525.79074)" d="M 11,3 C 8.2300013,3 6,5.2300013 6,8 l 0,6 0,5 1,0 3,0 0,-0.09961 0,-0.175782 L 10,17 10,9 10,8 c 0,-0.554 0.446,-1 1,-1 0.554,0 1,0.446 1,1 l 0,9 0,1 0,0.724609 0,0.175782 0,0.09961 1,0 2,0 1,0 0,-1 0,-9 0,-1 C 16,5.2300013 13.769999,3 11,3 Z" style="opacity:1;fill:#4d4d4d;fill-opacity:1;"/>
  </g>
 </g>
</svg>
