<?xml version="1.0" encoding="UTF-8" standalone="no"?>
<svg xmlns="http://www.w3.org/2000/svg" width="22" height="22" version="1.1">
 <g transform="translate(-326,-534.3622)">
  <g transform="matrix(1.0115699,0,0,1.0115699,-5.4200218,-5.2056573)">
   <g transform="matrix(1,0,0,0.98722774,-94.71429,14.325313)">
    <path style="opacity:1;fill:#4d4d4d;fill-opacity:1;" d="m 432.21429,528.79074 c -0.65424,0 -1.2022,0.41808 -1.4082,1 l -4.0918,0 -1,0 0,1 0,11.0918 c -0.58192,0.206 -1,0.75396 -1,1.4082 0,0.831 0.669,1.5 1.5,1.5 0.831,0 1.5,-0.669 1.5,-1.5 0,-0.65424 -0.41808,-1.2022 -1,-1.4082 l 0,-11.0918 4.0918,0 c 0.15034,0.4247 0.4835,0.75786 0.9082,0.9082 l 0,6.0918 0,1 1,0 0.0918,0 c 0.206,0.58192 0.75396,1 1.4082,1 0.831,0 1.5,-0.669 1.5,-1.5 0,-0.831 -0.669,-1.5 -1.5,-1.5 -0.65424,0 -1.2022,0.41808 -1.4082,1 l -0.0918,0 0,-6.0918 c 0.58192,-0.206 1,-0.75396 1,-1.4082 0,-0.831 -0.669,-1.5 -1.5,-1.5 z"/>
   </g>
   <g transform="matrix(0.43738348,0,0,-0.43738348,195.67245,788.27424)">
    <g transform="matrix(-1.082475,0,0,-1.082475,349.79192,1672.0369)">
     <g style="fill:#4d4d4d;fill-opacity:1" transform="matrix(1.1827033e-4,0.03271224,-0.03271224,1.1827033e-4,18.268695,1034.3501)">
      <path style="fill:#4d4d4d;fill-opacity:1" d="M 345.441,248.292 151.154,442.573 c -12.359,12.365 -32.397,12.365 -44.75,0 -12.354,-12.354 -12.354,-32.391 0,-44.744 L 278.318,225.92 106.409,54.017 c -12.354,-12.359 -12.354,-32.394 0,-44.748 12.354,-12.359 32.391,-12.359 44.75,0 l 194.287,194.284 c 6.177,6.18 9.262,14.271 9.262,22.366 0,8.099 -3.091,16.196 -9.267,22.373 z"/>
     </g>
    </g>
   </g>
  </g>
 </g>
</svg>
