<?xml version="1.0" encoding="UTF-8" standalone="no"?>
<svg xmlns="http://www.w3.org/2000/svg" width="22" height="22" version="1.1">
 <g transform="translate(-421.71429,-525.79074)">
  <path style="fill:#4d4d4d;fill-opacity:1;" d="m 432.71429,528.79074 c -4.41828,0 -8,3.58172 -8,8 0,4.41828 3.58172,8 8,8 4.41828,0 8,-3.58172 8,-8 0,-4.41828 -3.58172,-8 -8,-8 z m -2.66667,4 c 0.73638,0 1.33334,0.59696 1.33334,1.33333 0,0.73638 -0.59696,1.33334 -1.33334,1.33334 -0.73637,0 -1.33333,-0.59696 -1.33333,-1.33334 0,-0.73637 0.59696,-1.33333 1.33333,-1.33333 z m 5.33334,0 c 0.73637,0 1.33333,0.59696 1.33333,1.33333 0,0.73638 -0.59696,1.33334 -1.33333,1.33334 -0.73638,0 -1.33334,-0.59696 -1.33334,-1.33334 0,-0.73637 0.59696,-1.33333 1.33334,-1.33333 z m -6.66667,5.33333 8,0 c 0,2.20913 -1.79087,4 -4,4 -2.20914,0 -4,-1.79087 -4,-4 z"/>
 </g>
</svg>
