<?xml version="1.0" encoding="UTF-8" standalone="no"?>
<svg xmlns="http://www.w3.org/2000/svg" xmlns:xlink="http://www.w3.org/1999/xlink" width="22" height="22" version="1.1">
 <defs>
  <linearGradient id="linearGradient4232">
   <stop style="stop-color:#3889e9;stop-opacity:1" offset="0"/>
   <stop style="stop-color:#5ea5fb;stop-opacity:1" offset="1"/>
  </linearGradient>
  <linearGradient gradientUnits="userSpaceOnUse" y2="517.798" x2="399.571" y1="545.798" x1="399.571" id="linearGradient3426" xlink:href="#linearGradient4232"/>
 </defs>
 <g transform="translate(-553.72253,-583.11926)">
  <g transform="matrix(0.56987452,0,0,0.56987452,336.44025,291.03937)">
   <g transform="translate(-0.11123528,0.03124873)">
    <g transform="translate(0.13524268,0.04517549)">
     <circle style="opacity:1;fill:#5ea5fb;fill-opacity:0;" cx="400.571" cy="531.798" r="14"/>
     <circle style="opacity:1;fill:url(#linearGradient3426);fill-opacity:1;" cx="400.571" cy="531.798" r="0"/>
    </g>
   </g>
   <g transform="matrix(1.5127503,0,0,1.5127503,-498.30205,-372.22966)">
    <g transform="matrix(0.12676497,0,0,0.12676497,556.71721,585.56335)" style="fill:#4d4d4d;fill-opacity:1">
     <g transform="translate(3.2902874,-12.503092)" style="fill:#4d4d4d;fill-opacity:1">
      <path d="m 290.29628,145.56018 c 2.824,0 5.27,-1.031 7.332,-3.096 2.064,-2.063 3.098,-4.508 3.098,-7.332 l 0,-52.143996 c 0,-2.825 -1.033,-5.269 -3.098,-7.332 -2.062,-2.065 -4.507,-3.097 -7.332,-3.097 -2.825,0 -5.269,1.033 -7.333,3.097 -2.064,2.063 -3.096,4.508 -3.096,7.332 l 0,52.143996 c 0,2.824 1.032,5.269 3.096,7.332 2.064,2.065 4.509,3.096 7.333,3.096 l 0,0 z m 75.09289,-38.06246 c 0,40.32035 -32.68611,73.0065 -73.00645,73.0065 -40.3204,6e-5 -73.00655,-32.6861 -73.00655,-73.0065 0,-40.32039 32.68615,-73.006548 73.00655,-73.006496 40.32034,0 73.00645,32.686158 73.00645,73.006496 z" style="fill:#4d4d4d;fill-opacity:1"/>
     </g>
    </g>
   </g>
  </g>
 </g>
</svg>
