<?xml version="1.0" encoding="UTF-8" standalone="no"?>
<svg xmlns="http://www.w3.org/2000/svg" width="22" height="22" version="1.1">
 <g transform="translate(-544.57141,-742.93359)">
  <path style="opacity:1;fill:#4d4d4d;fill-opacity:1;" d="m 546.57141,744.93359 0,1.125 0,2.25 0,1.125 0,2.25 0,1.125 0,2.25 0,1.125 0,2.25 0,1.125 0,2.25 0,1.125 16.875,0 1.125,0 0,-1.125 0,-2.25 0,-1.125 0,-2.25 0,-1.125 0,-2.25 0,-1.125 0,-2.25 0,-1.125 0,-2.25 0,-1.125 -1.125,0 -16.875,0 z m 1.125,1.125 15.75,0 0,2.25 -15.75,0 0,-2.25 z m 0,3.375 15.75,0 0,2.25 -15.75,0 0,-2.25 z m 0,3.375 15.75,0 0,2.25 -15.75,0 0,-2.25 z m 0,3.375 15.75,0 0,2.25 -15.75,0 0,-2.25 z m 0,3.375 15.75,0 0,2.25 -15.75,0 0,-2.25 z"/>
 </g>
</svg>
