<?xml version="1.0" encoding="UTF-8" standalone="no"?>
<svg xmlns="http://www.w3.org/2000/svg" width="22" height="22" version="1.1">
 <g transform="translate(-326,-534.3622)">
  <g transform="matrix(0.67079479,0,0,0.66666664,68.298772,190.83021)">
   <g style="fill:#4d4d4d;fill-opacity:1" transform="matrix(0.05484794,0,0,0.05467706,388.53397,519.798)">
    <g style="fill:#4d4d4d;fill-opacity:1">
     <g style="fill:#4d4d4d;fill-opacity:1">
      <g style="fill:#4d4d4d;fill-opacity:1">
       <g style="fill:#4d4d4d;fill-opacity:1">
        <g style="fill:#4d4d4d;fill-opacity:1">
         <path style="fill:#4d4d4d;fill-opacity:1" d="m 264.407,48.53 c 4.334,-3.385 7.922,-1.652 7.972,3.848 l 0.562,64.615 c 0.046,5.5 3.815,12.518 8.373,15.597 l 53.548,36.167 c 4.56,3.078 4.021,7.025 -1.194,8.77 l -61.276,20.504 c -5.218,1.744 -10.729,7.498 -12.246,12.783 l -17.851,62.104 c -1.521,5.286 -5.439,5.993 -8.711,1.571 l -38.438,-51.942 c -3.271,-4.421 -10.445,-7.885 -15.942,-7.695 l -64.579,2.217 c -5.498,0.188 -7.381,-3.322 -4.188,-7.799 l 37.523,-52.607 c 3.194,-4.478 4.27,-12.371 2.393,-17.541 L 128.29,78.39 c -1.879,-5.169 0.877,-8.045 6.122,-6.393 l 61.626,19.431 c 5.246,1.654 13.087,0.239 17.421,-3.145 L 264.407,48.53 Z"/>
         <path style="fill:#4d4d4d;fill-opacity:1" d="m 280.698,4.524 c 1.922,-3.979 6.703,-5.647 10.685,-3.727 l 0,0 c 3.979,1.92 5.646,6.703 3.727,10.682 l -7.827,16.211 c -1.92,3.979 -6.702,5.647 -10.682,3.728 l 0,0 c -3.979,-1.92 -5.647,-6.703 -3.727,-10.682 l 7.824,-16.212 z"/>
        </g>
        <g style="fill:#4d4d4d;fill-opacity:1">
         <path style="fill:#4d4d4d;fill-opacity:1" d="m 93.899,168.534 c -4.294,1.042 -8.618,-1.589 -9.665,-5.884 l 0,0 c -1.042,-4.293 1.59,-8.62 5.882,-9.664 l 17.492,-4.253 c 4.293,-1.045 8.621,1.588 9.664,5.881 l 0,0 c 1.043,4.294 -1.589,8.62 -5.883,9.665 l -17.49,4.255 z"/>
         <path style="fill:#4d4d4d;fill-opacity:1" d="m 149.993,29.229 c -2.031,-3.925 -0.499,-8.75 3.424,-10.783 l 0,0 c 3.925,-2.031 8.751,-0.5 10.784,3.422 l 8.279,15.986 c 2.03,3.922 0.499,8.75 -3.423,10.781 l 0,0 c -3.924,2.032 -8.752,0.5 -10.784,-3.424 l -8.28,-15.982 z"/>
        </g>
        <g style="fill:#4d4d4d;fill-opacity:1">
         <path style="fill:#4d4d4d;fill-opacity:1" d="m 286.278,261.398 c 1.854,4.011 6.604,5.76 10.618,3.907 l 0,0 c 4.01,-1.854 5.763,-6.606 3.908,-10.616 l -7.552,-16.343 c -1.854,-4.011 -6.604,-5.762 -10.615,-3.907 l 0,0 c -4.011,1.854 -5.761,6.605 -3.908,10.616 l 7.549,16.343 z"/>
         <path style="fill:#4d4d4d;fill-opacity:1" d="m 360.459,130.824 c 4.335,-0.851 7.16,-5.053 6.312,-9.389 l 0,0 c -0.852,-4.336 -5.053,-7.164 -9.389,-6.314 l -17.665,3.462 c -4.337,0.849 -7.163,5.051 -6.314,9.386 l 0,0 c 0.853,4.336 5.054,7.164 9.392,6.313 l 17.664,-3.458 z"/>
        </g>
       </g>
       <path style="fill:#4d4d4d;fill-opacity:1" d="m 99.487,434.422 c -1.912,3.963 -6.72,5.641 -10.682,3.728 l -12.269,-5.923 c -3.962,-1.911 -5.64,-6.719 -3.727,-10.682 l 89.863,-186.162 c 1.913,-3.963 6.721,-5.641 10.683,-3.728 l 12.27,5.922 c 3.961,1.912 5.64,6.72 3.727,10.683 L 99.487,434.422 Z"/>
      </g>
     </g>
    </g>
   </g>
  </g>
 </g>
</svg>
