<?xml version="1.0" encoding="UTF-8" standalone="no"?>
<svg xmlns="http://www.w3.org/2000/svg" width="22" height="22" version="1.1">
 <g transform="translate(-326,-534.3622)">
  <g>
   <g>
    <g>
     <g transform="matrix(1.2000987,0,0,1.2000987,-68.633361,-107.92617)">
      <g transform="matrix(0.8332648,0,0,0.8332648,57.189768,89.931093)">
       <g transform="translate(-25.299998,0.29999811)">
        <g transform="translate(-21,2)">
         <g transform="translate(-94.71429,7.57146)">
          <path style="opacity:1;fill:#4d4d4d;fill-opacity:1;fill-rule:evenodd;" d="M 4 3 C 3.4459836 3 3 3.4459836 3 4 L 3 18 C 3 18.554016 3.4459836 19 4 19 L 18 19 C 18.554016 19 19 18.554016 19 18 L 19 4 C 19 3.4459836 18.554016 3 18 3 L 4 3 z M 5.9316406 6 L 7.9667969 6 C 8.1857454 6.0000871 8.3614721 6.1296323 8.3613281 6.2890625 L 8.3535156 15.712891 C 8.3533716 15.872321 8.1759798 16.000087 7.9570312 16 L 5.921875 16 C 5.7029265 15.999913 5.5271997 15.870368 5.5273438 15.710938 L 5.5351562 6.2871094 C 5.5353003 6.1276792 5.7126921 5.9999129 5.9316406 6 z M 10.0625 8.5761719 L 12.097656 8.5761719 C 12.316605 8.5762363 12.492382 8.7038511 12.492188 8.8632812 L 12.484375 15.691406 C 12.48418 15.850836 12.306839 15.980533 12.087891 15.980469 L 10.052734 15.978516 C 9.8337858 15.978451 9.6580086 15.850836 9.6582031 15.691406 L 9.6660156 8.8632812 C 9.6662101 8.7038511 9.8435515 8.5761074 10.0625 8.5761719 z M 14.042969 11.189453 L 16.078125 11.191406 C 16.297074 11.191448 16.472956 11.319086 16.472656 11.478516 L 16.464844 15.710938 C 16.464544 15.870368 16.287308 15.998089 16.068359 15.998047 L 14.033203 15.998047 C 13.814255 15.998005 13.638372 15.868414 13.638672 15.708984 L 13.646484 11.478516 C 13.646784 11.319086 13.82402 11.189411 14.042969 11.189453 z" transform="translate(467.01428,524.49072)"/>
         </g>
        </g>
       </g>
      </g>
     </g>
    </g>
   </g>
  </g>
 </g>
</svg>
