<?xml version="1.0" encoding="UTF-8" standalone="no"?>
<svg xmlns="http://www.w3.org/2000/svg" width="22" height="22" version="1.1">
 <g transform="translate(-551.28571,-607.64788)">
  <g transform="translate(0,5e-6)">
   <path d="m 555.28572,610.6479 -10e-6,13.99997 -1,0 0,1 1,0 0,1 1,0 0,-1 14,0 0,-1 -14,0 10e-6,-13.99997 z" style="opacity:1;fill:#4d4d4d;fill-opacity:1;"/>
   <path d="m 560.28571,610.64788 0,2 -1,0 0,3 -1,0 0,2 -1,0 0,3 -1,0 0,4 1,0 1,0 1,0 1,0 1,0 1,0 1,0 1,0 1,0 1,0 1,0 1,0 1,0 0,-1 -1,0 -1,0 0,-1 -1,0 -1,0 0,-1 -1,0 0,1 -1,0 0,-1 -1,0 0,-7 -1,0 0,-4 -1,0 z" style="opacity:1;fill:#4d4d4d;fill-opacity:1;"/>
  </g>
 </g>
</svg>
