<?xml version="1.0" encoding="UTF-8" standalone="no"?>
<svg xmlns="http://www.w3.org/2000/svg" width="22" height="22" version="1.1">
 <g transform="translate(-544.57141,-742.93359)">
  <g transform="translate(217.57141,209.57139)">
   <g transform="matrix(0.66666667,0,0,0.66666667,70.952371,189.83022)">
    <path style="opacity:1;fill:#4d4d4d;fill-opacity:1;fill-rule:evenodd;" d="M 11 3 A 8 8 0 0 0 3 11 A 8 8 0 0 0 11 19 A 8 8 0 0 0 19 11 A 8 8 0 0 0 11 3 z M 10.800781 6.5 A 1 1 0 0 1 11.800781 7.5 A 1 1 0 0 1 10.800781 8.5 A 1 1 0 0 1 9.8007812 7.5 A 1 1 0 0 1 10.800781 6.5 z M 10.693359 9.5 L 10.90625 9.5 C 11.262393 9.5 11.550781 9.7864351 11.550781 10.142578 L 11.550781 14.857422 C 11.550781 15.213565 11.262393 15.5 10.90625 15.5 L 10.693359 15.5 C 10.337216 15.5 10.050781 15.213565 10.050781 14.857422 L 10.050781 10.142578 C 10.050781 9.7864351 10.337216 9.5 10.693359 9.5 z" transform="matrix(1.5,0,0,1.5,384.07144,515.29797)"/>
   </g>
  </g>
 </g>
</svg>
