<?xml version="1.0" encoding="UTF-8" standalone="no"?>
<svg xmlns="http://www.w3.org/2000/svg" width="22" height="22" version="1.1">
 <g transform="translate(-326,-534.3622)">
  <g transform="translate(1,-1)">
   <g transform="translate(-0.99999969,1)">
    <g transform="matrix(1.1111103,0,0,1,-38.555282,0.99999823)">
     <g transform="matrix(0.66666667,0,0,0.66666667,70.952379,189.8302)">
      <g transform="translate(27.682101,0.12839698)">
       <g>
        <g transform="matrix(1.5,0,0,1.5,360.88933,-1034.8737)">
         <g transform="translate(-412.88298,512.00351)">
          <g transform="translate(341.79698,500.25245)">
           <g transform="translate(-392.98822,-511.27795)">
            <g transform="matrix(1.3333333,0,0,1.3333333,-61.890355,-165.99713)">
             <g transform="translate(341.79698,500.25245)">
              <g transform="translate(-392.98822,-511.27795)">
               <g style="stroke:#1f2a47;stroke-opacity:1" transform="translate(0.41988239,0.03484499)">
                <g transform="translate(440.36158,509.62534)">
                 <g transform="matrix(0.52109202,0,0,0.52109202,-0.76995909,19.353185)" style="stroke:#1f2a47;stroke-opacity:1">
                  <g transform="translate(-400.50475,-509.14629)">
                   <g transform="matrix(1.0037077,0,0,1.0037077,11.267145,17.846026)">
                    <g transform="matrix(1.5263052,0,0,1.5263052,376.49864,-1040.1735)">
                     <g transform="matrix(1.1526351,0,0,1.1526351,-4.8344134,-156.43331)">
                      <g>
                       <g transform="matrix(0.81509151,0,0,0.81509151,-323.19965,584.90903)">
                        <g transform="translate(341.79698,500.25245)">
                         <g transform="translate(-392.98822,-511.27795)">
                          <g style="stroke:#1f2a47;stroke-opacity:1" transform="translate(0.41988239,0.03484499)">
                           <g transform="translate(440.36158,509.62534)">
                            <g transform="matrix(0.52109202,0,0,0.52109202,-0.76995909,19.353185)" style="stroke:#1f2a47;stroke-opacity:1">
                             <g transform="translate(-400.50475,-509.14629)">
                              <g transform="matrix(0.76761933,0,0,0.76761933,156.46876,138.50552)">
                               <path style="opacity:1;fill:#4d4d4d;fill-opacity:1;" d="M 3.8886719 3 C 3.3962284 3 3 3.3575818 3 3.8007812 L 3 18.199219 C 3 18.642418 3.3962284 19 3.8886719 19 L 18.111328 19 C 18.603772 19 19 18.642418 19 18.199219 L 19 3.8007812 C 19 3.3575818 18.603772 3 18.111328 3 L 3.8886719 3 z M 5.4609375 5 L 10.076172 5 C 10.331124 5 10.539062 5.2059856 10.539062 5.4609375 L 10.539062 10.076172 C 10.539062 10.331124 10.331124 10.539062 10.076172 10.539062 L 5.4609375 10.539062 C 5.2059856 10.539062 5 10.331124 5 10.076172 L 5 5.4609375 C 5 5.2059856 5.2059856 5 5.4609375 5 z M 11.923828 5 L 16.539062 5 C 16.794014 5 17 5.2059856 17 5.4609375 L 17 10.076172 C 17 10.331124 16.794014 10.539062 16.539062 10.539062 L 11.923828 10.539062 C 11.668876 10.539062 11.460938 10.331124 11.460938 10.076172 L 11.460938 5.4609375 C 11.460937 5.2059856 11.668876 5 11.923828 5 z M 12.384766 5.9238281 L 12.384766 9.6152344 L 16.076172 9.6152344 L 16.076172 5.9238281 L 12.384766 5.9238281 z M 5.4609375 11.460938 L 10.076172 11.460938 C 10.331124 11.460937 10.539062 11.668383 10.539062 11.923828 L 10.539062 16.539062 C 10.539062 16.794014 10.331124 17 10.076172 17 L 5.4609375 17 C 5.2059856 17 5 16.794014 5 16.539062 L 5 11.923828 C 5 11.668876 5.2059856 11.460938 5.4609375 11.460938 z M 11.923828 11.460938 L 16.539062 11.460938 C 16.794014 11.460938 17.000493 11.666923 17 11.921875 L 17 16.537109 C 17 16.792061 16.792061 17 16.537109 17 L 14.230469 17 L 11.923828 17 C 11.668876 17 11.460938 16.792061 11.460938 16.537109 L 11.460938 14.230469 L 11.460938 11.923828 C 11.460937 11.668876 11.668876 11.460938 11.923828 11.460938 z M 7.1796875 12.384766 C 7.2590826 12.520871 7.3085938 12.676557 7.3085938 12.845703 C 7.3085937 13.355607 6.8946695 13.769531 6.3847656 13.769531 C 6.2156196 13.769531 6.059934 13.72002 5.9238281 13.640625 L 5.9238281 14.820312 C 6.059934 14.740917 6.2156196 14.691406 6.3847656 14.691406 C 6.8946695 14.691406 7.3085938 15.105331 7.3085938 15.615234 C 7.3085938 15.78438 7.2590826 15.940066 7.1796875 16.076172 L 8.359375 16.076172 C 8.2799799 15.940066 8.2304688 15.78438 8.2304688 15.615234 C 8.2304688 15.105331 8.644393 14.691406 9.1542969 14.691406 C 9.3234429 14.691406 9.4791285 14.740917 9.6152344 14.820312 L 9.6152344 13.640625 C 9.4791285 13.72002 9.3234429 13.769531 9.1542969 13.769531 C 8.644393 13.769531 8.2304688 13.355607 8.2304688 12.845703 C 8.2304688 12.676557 8.2799799 12.520871 8.359375 12.384766 L 7.1796875 12.384766 z M 12.384766 12.384766 L 12.384766 13.117188 L 13.117188 12.384766 L 12.384766 12.384766 z M 14.421875 12.384766 L 12.384766 14.421875 L 12.384766 15.423828 L 15.423828 12.384766 L 14.421875 12.384766 z M 16.076172 13.037109 L 13.037109 16.076172 L 14.039062 16.076172 L 16.076172 14.039062 L 16.076172 13.037109 z M 7.7695312 13.306641 A 0.92315277 0.92315277 0 0 1 8.6933594 14.230469 A 0.92315277 0.92315277 0 0 1 7.7695312 15.154297 A 0.92315277 0.92315277 0 0 1 6.8457031 14.230469 A 0.92315277 0.92315277 0 0 1 7.7695312 13.306641 z M 16.076172 15.34375 L 15.34375 16.076172 L 16.076172 16.076172 L 16.076172 15.34375 z" transform="matrix(2.2499999,0,0,2.4999981,383.82144,496.29801)"/>
                              </g>
                             </g>
                            </g>
                           </g>
                          </g>
                         </g>
                        </g>
                       </g>
                      </g>
                     </g>
                    </g>
                   </g>
                  </g>
                 </g>
                </g>
               </g>
              </g>
             </g>
            </g>
           </g>
          </g>
         </g>
        </g>
       </g>
      </g>
     </g>
    </g>
   </g>
  </g>
 </g>
</svg>
