<?xml version="1.0" encoding="UTF-8" standalone="no"?>
<svg xmlns="http://www.w3.org/2000/svg" width="22" height="22" version="1.1">
 <g transform="translate(-326,-534.3622)">
  <g transform="translate(5.7734375e-6,1.923375e-5)">
   <g transform="translate(-25.299998,0.29999811)">
    <g transform="translate(-21,2)">
     <g transform="translate(-94.71429,7.57146)">
      <path style="opacity:1;fill:#4d4d4d;fill-opacity:1;fill-rule:evenodd;" d="M 4 3 C 3.4459836 3 3 3.4459836 3 4 L 3 18 C 3 18.554016 3.4459836 19 4 19 L 18 19 C 18.554016 19 19 18.554016 19 18 L 19 4 C 19 3.4459836 18.554016 3 18 3 L 4 3 z M 14.285156 6 C 14.375285 6 14.461486 6.0357452 14.525391 6.0996094 L 15.900391 7.4746094 C 16.033388 7.6076478 16.033388 7.8220397 15.900391 7.9550781 L 15.132812 8.7226562 L 13.277344 6.8671875 L 14.044922 6.0996094 C 14.108786 6.0357452 14.195007 6 14.285156 6 z M 13.037109 7.1074219 L 14.892578 8.9628906 L 14.626953 9.2304688 L 12.771484 7.3730469 L 13.037109 7.1074219 z M 12.529297 7.6152344 L 14.386719 9.4707031 L 14.119141 9.7363281 L 12.263672 7.8808594 L 12.529297 7.6152344 z M 12.021484 8.1210938 L 13.878906 9.9785156 L 8.6503906 15.207031 C 8.6131995 15.244304 8.5677381 15.272111 8.5175781 15.289062 L 6.4492188 15.982422 C 6.4136411 15.99439 6.3780281 16 6.3417969 16 C 6.2529548 16 6.164413 15.965337 6.0996094 15.900391 C 6.0080714 15.808873 5.9766904 15.673526 6.0175781 15.550781 L 6.7109375 13.482422 C 6.7278277 13.432609 6.7557164 13.386903 6.7929688 13.349609 L 12.021484 8.1210938 z" transform="translate(467.01428,524.49072)"/>
     </g>
    </g>
   </g>
  </g>
 </g>
</svg>
