<?xml version="1.0" encoding="UTF-8" standalone="no"?>
<svg xmlns="http://www.w3.org/2000/svg" width="22" height="22" version="1.1">
 <g transform="translate(-551.28571,-607.64788)">
  <g>
   <path transform="translate(551.28571,607.64788)" d="M 4.0000144,3.0000252 4,17 l -1,0 0,1 1,0 0,1 1,0 0,-1 14,0 0,-1 -14,0 1.44e-5,-13.99997 z" style="opacity:1;fill:#4d4d4d;fill-opacity:1;"/>
   <path transform="translate(551.28571,607.64788)" d="M 9,3 9,4 8,4 8,5 7,5 7,6 6,6 6,7 5,7 l 0,11 1,0 0,-1 1,0 1,0 1,0 1,0 1,0 1,0 1,0 1,0 1,0 1,0 1,0 1,0 1,0 0,-9 -1,0 0,1 -1,0 0,-1 -1,0 0,-1 -1,0 0,1 -1,0 0,-2 -1,0 0,3 -1,0 0,-2 -1,0 0,-2 -1,0 0,-2 -1,0 z" style="opacity:1;fill:#4d4d4d;fill-opacity:1;"/>
  </g>
 </g>
</svg>
