<?xml version="1.0" encoding="UTF-8" standalone="no"?>
<svg xmlns="http://www.w3.org/2000/svg" width="22" height="22" version="1.1">
 <g transform="translate(-326,-534.3622)">
  <g>
   <g transform="matrix(1.2000987,0,0,1.2000987,-68.633361,-107.92617)">
    <g transform="matrix(0.8332648,0,0,0.8332648,57.189768,89.931093)">
     <g transform="translate(-25.299998,0.29999811)">
      <g transform="translate(-21,2)">
       <g transform="translate(-94.71429,7.57146)">
        <path style="opacity:1;fill:#4d4d4d;fill-opacity:1;fill-rule:evenodd;" d="M 4 3 C 3.4459836 3 3 3.4459836 3 4 L 3 18 C 3 18.554016 3.4459836 19 4 19 L 18 19 C 18.554016 19 19 18.554016 19 18 L 19 4 C 19 3.4459836 18.554016 3 18 3 L 4 3 z M 8.1992188 9.1328125 L 13.800781 9.1328125 L 13.800781 11.933594 L 8.1992188 11.933594 L 8.1992188 9.1328125 z M 5.4003906 10.066406 L 7.265625 10.066406 L 7.265625 11.466797 L 7.265625 12.867188 L 5.4003906 12.867188 L 7.265625 11.466797 L 5.4003906 10.066406 z M 14.734375 10.066406 L 16.599609 10.066406 L 14.734375 11.466797 L 16.599609 12.867188 L 14.734375 12.867188 L 14.734375 11.466797 L 14.734375 10.066406 z" transform="translate(467.01428,524.49072)"/>
       </g>
      </g>
     </g>
    </g>
   </g>
  </g>
 </g>
</svg>
