<?xml version="1.0" encoding="UTF-8" standalone="no"?>
<svg xmlns="http://www.w3.org/2000/svg" width="22" height="22" version="1.1">
 <g transform="translate(-326,-534.3622)">
  <rect style="fill:#4d4d4d;fill-opacity:1;" width="0" height="14.668" x="256.23" y="514.7"/>
  <rect style="fill:#4d4d4d;fill-opacity:1;" width="0" height="14.668" x="263.19" y="537.27"/>
  <rect style="fill:#4d4d4d;fill-opacity:1;" width="0" height="14.668" x="265" y="536.21"/>
  <rect style="fill:#4d4d4d;fill-opacity:1;" width="0" height="14.668" x="256.23" y="514.7"/>
  <rect style="fill:#4d4d4d;fill-opacity:1;" width="0" height="14.668" x="263.19" y="537.27"/>
  <rect style="fill:#4d4d4d;fill-opacity:1;" width="0" height="14.668" x="265" y="536.21"/>
  <rect style="fill:#4d4d4d;fill-opacity:1;" width="0" height="14.668" x="256.23" y="514.7"/>
  <rect style="fill:#4d4d4d;fill-opacity:1;" width="0" height="14.668" x="263.19" y="537.27"/>
  <rect style="fill:#4d4d4d;fill-opacity:1;" width="0" height="14.668" x="265" y="536.21"/>
  <rect style="fill:#4d4d4d;fill-opacity:1;" width="0" height="14.668" x="256.23" y="514.7"/>
  <rect style="fill:#4d4d4d;fill-opacity:1;" width="0" height="14.668" x="263.19" y="537.27"/>
  <rect style="fill:#4d4d4d;fill-opacity:1;" width="0" height="14.668" x="265" y="536.21"/>
  <g transform="translate(329,-498.99999)">
   <g transform="translate(-412.88298,512.00351)">
    <g transform="translate(341.79698,500.25245)">
     <g transform="translate(-392.98822,-511.27795)">
      <g transform="matrix(1.3333333,0,0,1.3333333,-61.890355,-165.99713)">
       <g transform="translate(341.79698,500.25245)">
        <g transform="translate(-392.98822,-511.27795)">
         <g transform="translate(0.41988239,0.03484499)" style="stroke:#1f2a47;stroke-opacity:1">
          <g transform="translate(440.36158,509.62534)">
           <g style="stroke:#1f2a47;stroke-opacity:1" transform="matrix(0.52109202,0,0,0.52109202,-0.76995909,19.353185)">
            <g transform="translate(-400.50475,-509.14629)">
             <g transform="matrix(1.0037077,0,0,1.0037077,11.267145,17.846026)">
              <g transform="matrix(1.5263052,0,0,1.5263052,376.49864,-1040.1735)">
               <g transform="matrix(1.1526351,0,0,1.1526351,-4.8344134,-156.43331)">
                <g>
                 <g transform="matrix(0.81509151,0,0,0.81509151,-323.19965,584.90903)">
                  <g transform="translate(341.79698,500.25245)">
                   <g transform="matrix(1.3787495,0,0,1.3787495,72.341654,-1405.7024)">
                    <g style="fill:#4d4d4d;fill-opacity:1;" transform="matrix(0.82890852,0,0,0.82890852,-376.14815,619.87059)">
                     <g style="fill:#4d4d4d;fill-opacity:1;" transform="translate(-44.851169,1.8910219)">
                      <g style="fill:#4d4d4d;fill-opacity:1;" transform="matrix(0.90595131,0,0,0.90595131,131.92314,54.375376)">
                       <g style="fill:#4d4d4d;fill-opacity:1;" transform="matrix(0.11488639,0,0,0.10931174,407.6586,498.26363)">
                        <g style="fill:#4d4d4d;fill-opacity:1;">
                         <path style="fill:#4d4d4d;fill-opacity:1;" d="m 133.523,78.097 c -0.488,-0.489 -1.113,-0.733 -1.873,-0.733 l -78.215,0 c -0.76,0 -1.385,0.244 -1.874,0.733 -0.488,0.489 -0.732,1.113 -0.732,1.874 l 0,5.215 c 0,0.76 0.244,1.385 0.732,1.873 0.489,0.488 1.114,0.733 1.874,0.733 l 78.215,0 c 0.76,0 1.385,-0.245 1.873,-0.733 0.488,-0.488 0.732,-1.113 0.732,-1.873 l 0,-5.215 c 0.001,-0.761 -0.243,-1.385 -0.732,-1.874 l 0,0 z"/>
                         <path style="fill:#4d4d4d;fill-opacity:1;" d="M 8.38,1.022 C 7.837,0.479 7.212,0.207 6.506,0.207 5.8,0.207 5.176,0.479 4.633,1.022 L 0.559,5.096 c -0.543,0.543 -0.814,1.167 -0.814,1.874 0,0.707 0.271,1.331 0.814,1.874 l 32.02,32.019 -32.02,32.02 c -0.543,0.543 -0.814,1.168 -0.814,1.873 0,0.707 0.271,1.331 0.814,1.874 l 4.074,4.073 c 0.543,0.544 1.167,0.814 1.873,0.814 0.706,0 1.331,-0.271 1.874,-0.814 L 46.347,42.737 c 0.543,-0.543 0.814,-1.169 0.814,-1.875 0,-0.706 -0.271,-1.331 -0.814,-1.874 L 8.38,1.022 l 0,0 z"/>
                        </g>
                       </g>
                      </g>
                     </g>
                    </g>
                   </g>
                  </g>
                 </g>
                </g>
               </g>
              </g>
             </g>
            </g>
           </g>
          </g>
         </g>
        </g>
       </g>
      </g>
     </g>
    </g>
   </g>
  </g>
 </g>
</svg>
