<?xml version="1.0" encoding="UTF-8" standalone="no"?>
<svg xmlns="http://www.w3.org/2000/svg" width="22" height="22" version="1.1">
 <g transform="translate(-326,-534.3622)">
  <g transform="matrix(0.66666668,0,0,0.66668266,69.952375,190.8217)">
   <g style="fill:#4d4d4d;fill-opacity:1" transform="matrix(0.1917806,0,0,0.1917806,388.48954,519.71563)">
    <path style="fill:#4d4d4d;fill-opacity:1" d="M 120.6,38.723 C 117.288,31.01 112.834,24.356 107.24,18.762 101.645,13.168 94.992,8.715 87.278,5.401 79.565,2.087 71.473,0.431 63,0.431 55.016,0.431 47.29,1.937 39.821,4.952 32.353,7.967 25.713,12.217 19.901,17.703 L 9.308,7.192 C 7.678,5.508 5.805,5.128 3.686,6.051 1.513,6.975 0.427,8.578 0.427,10.859 l 0,36.5 c 0,1.412 0.516,2.634 1.548,3.666 1.033,1.032 2.255,1.548 3.667,1.548 l 36.5,0 c 2.282,0 3.884,-1.086 4.807,-3.259 0.923,-2.118 0.543,-3.992 -1.141,-5.622 L 34.646,32.449 c 3.803,-3.585 8.148,-6.341 13.036,-8.27 4.889,-1.928 9.994,-2.893 15.317,-2.893 5.649,0 11.04,1.101 16.173,3.3 5.133,2.2 9.572,5.174 13.32,8.922 3.748,3.747 6.722,8.187 8.922,13.32 2.199,5.133 3.299,10.523 3.299,16.173 0,5.65 -1.1,11.039 -3.299,16.172 -2.2,5.133 -5.174,9.573 -8.922,13.321 -3.748,3.748 -8.188,6.722 -13.32,8.921 -5.133,2.2 -10.525,3.3 -16.173,3.3 -6.464,0 -12.574,-1.412 -18.332,-4.236 -5.757,-2.824 -10.618,-6.816 -14.583,-11.977 -0.38,-0.543 -1.005,-0.87 -1.874,-0.979 -0.815,0 -1.494,0.244 -2.037,0.733 L 15.011,99.5 c -0.434,0.436 -0.665,0.991 -0.692,1.67 -0.027,0.68 0.15,1.29 0.53,1.833 5.921,7.17 13.09,12.724 21.509,16.661 8.419,3.937 17.3,5.907 26.642,5.907 8.473,0 16.566,-1.657 24.279,-4.97 7.713,-3.313 14.365,-7.768 19.961,-13.361 5.594,-5.596 10.047,-12.248 13.361,-19.961 3.313,-7.713 4.969,-15.807 4.969,-24.279 0,-8.474 -1.657,-16.564 -4.97,-24.277 l 0,0 z"/>
   </g>
  </g>
 </g>
</svg>
