<?xml version="1.0" encoding="UTF-8" standalone="no"?>
<svg xmlns="http://www.w3.org/2000/svg" width="22" height="22" version="1.1">
 <g transform="translate(-326,-534.3622)">
  <g transform="translate(-21,2)">
   <g transform="translate(-94.71429,7.57146)">
    <path style="opacity:1;fill:#4d4d4d;fill-opacity:1;fill-rule:evenodd;" d="M 4 3 C 3.4459836 3 3 3.4459836 3 4 L 3 18 C 3 18.554016 3.4459836 19 4 19 L 18 19 C 18.554016 19 19 18.554016 19 18 L 19 4 C 19 3.4459836 18.554016 3 18 3 L 4 3 z M 10.300781 7.5 L 11.699219 7.5 L 11.699219 10.300781 L 14.5 10.300781 L 14.5 11.699219 L 11.699219 11.699219 L 11.699219 14.5 L 10.300781 14.5 L 10.300781 11.699219 L 7.5 11.699219 L 7.5 10.300781 L 10.300781 10.300781 L 10.300781 7.5 z" transform="translate(441.71429,524.79074)"/>
   </g>
  </g>
 </g>
</svg>
