<?xml version="1.0" encoding="UTF-8" standalone="no"?>
<svg xmlns="http://www.w3.org/2000/svg" width="22" height="22" version="1.1">
 <g transform="translate(-326,-534.3622)">
  <g transform="translate(-25.299998,0.29999811)">
   <g transform="translate(-21,2)">
    <g transform="translate(-94.71429,7.57146)">
     <path style="opacity:1;fill:#4d4d4d;fill-opacity:1;fill-rule:evenodd;" d="M 4 3 C 3.4459836 3 3 3.4459836 3 4 L 3 18 C 3 18.554016 3.4459836 19 4 19 L 18 19 C 18.554016 19 19 18.554016 19 18 L 19 4 C 19 3.4459836 18.554016 3 18 3 L 4 3 z M 7.1191406 6 A 1.2697625 1.2697625 0 0 1 8.3886719 7.2695312 A 1.2697625 1.2697625 0 0 1 7.1191406 8.5410156 A 1.2697625 1.2697625 0 0 1 5.8496094 7.2695312 A 1.2697625 1.2697625 0 0 1 7.1191406 6 z M 10.992188 6 A 1.2697625 1.2697625 0 0 1 12.261719 7.2695312 A 1.2697625 1.2697625 0 0 1 10.992188 8.5410156 A 1.2697625 1.2697625 0 0 1 9.7226562 7.2695312 A 1.2697625 1.2697625 0 0 1 10.992188 6 z M 14.880859 6 A 1.2697625 1.2697625 0 0 1 16.150391 7.2695312 A 1.2697625 1.2697625 0 0 1 14.880859 8.5390625 A 1.2697625 1.2697625 0 0 1 13.611328 7.2695312 A 1.2697625 1.2697625 0 0 1 14.880859 6 z M 14.880859 9.6972656 A 1.2697625 1.2697625 0 0 1 16.150391 10.96875 A 1.2697625 1.2697625 0 0 1 14.880859 12.238281 A 1.2697625 1.2697625 0 0 1 13.611328 10.96875 A 1.2697625 1.2697625 0 0 1 14.880859 9.6972656 z M 7.1191406 9.6992188 A 1.2697625 1.2697625 0 0 1 8.3886719 10.96875 A 1.2697625 1.2697625 0 0 1 7.1191406 12.238281 A 1.2697625 1.2697625 0 0 1 5.8496094 10.96875 A 1.2697625 1.2697625 0 0 1 7.1191406 9.6992188 z M 10.992188 9.6992188 A 1.2697625 1.2697625 0 0 1 12.261719 10.96875 A 1.2697625 1.2697625 0 0 1 10.992188 12.238281 A 1.2697625 1.2697625 0 0 1 9.7226562 10.96875 A 1.2697625 1.2697625 0 0 1 10.992188 9.6992188 z M 7.1191406 13.460938 A 1.2697625 1.2697625 0 0 1 8.3886719 14.730469 A 1.2697625 1.2697625 0 0 1 7.1191406 16 A 1.2697625 1.2697625 0 0 1 5.8496094 14.730469 A 1.2697625 1.2697625 0 0 1 7.1191406 13.460938 z" transform="translate(467.01429,524.49074)"/>
    </g>
   </g>
  </g>
 </g>
</svg>
