<?xml version="1.0" encoding="UTF-8" standalone="no"?>
<svg xmlns="http://www.w3.org/2000/svg" width="22" height="22" version="1.1">
 <g transform="translate(-326,-534.3622)">
  <g transform="translate(-22.262605,4.2814835)">
   <g transform="translate(1,-1)">
    <g transform="translate(20.262605,-2.2814803)">
     <g style="fill:#4d4d4d;fill-opacity:1" transform="matrix(0.66666665,0,0,0.66666665,70.952387,189.83024)">
      <g transform="translate(374.61313,-496.84069)" style="fill:#4d4d4d;fill-opacity:1;stroke:#000000;stroke-opacity:1">
       <g transform="matrix(0.96260036,0,0,0.96260036,-533.24725,449.15877)" style="fill:#4d4d4d;fill-opacity:1;">
        <g transform="matrix(0.14300539,0,0,0.14300539,554.04072,610.18772)" style="fill:#4d4d4d;fill-opacity:1;">
         <g transform="matrix(9.581865,0,0,9.581865,-7259.0635,-1926.5204)" style="fill:#4d4d4d;fill-opacity:1;">
          <g transform="matrix(0.37907185,0,0,0.37907185,615.60988,-10.010196)" style="fill:#4d4d4d;fill-opacity:1;">
           <g style="fill:#4d4d4d;fill-opacity:1;" transform="matrix(0.20663505,0,0,0.20663505,416.2249,531.51293)">
            <path style="fill:#4d4d4d;fill-opacity:1;" d="M 1.1503906 3 C 0.73325935 3 0.3984375 3.3367799 0.3984375 3.7539062 L 0.3984375 18.246094 C 0.3984375 18.663224 0.73325935 19 1.1503906 19 L 20.849609 19 C 21.266735 19 21.601562 18.663224 21.601562 18.246094 L 21.601562 3.7539062 C 21.601562 3.3367799 21.266735 3 20.849609 3 L 1.1503906 3 z M 8.7460938 7.4492188 C 9.9646191 7.4492188 10.949219 8.4357851 10.949219 9.6542969 C 10.949219 10.872809 9.9646191 11.857422 8.7460938 11.857422 C 8.4609153 11.857422 8.2020901 11.806287 7.96875 11.728516 L 6.8027344 12.894531 L 6.0234375 12.894531 L 6.0234375 13.671875 L 5.2460938 13.671875 L 5.2460938 14.449219 L 3.9492188 14.449219 L 3.9492188 13.154297 L 6.671875 10.431641 C 6.594104 10.172381 6.5429688 9.9135561 6.5429688 9.6542969 C 6.5429688 8.4357851 7.527582 7.4492188 8.7460938 7.4492188 z M 12.550781 7.5507812 L 17.550781 7.5507812 C 17.827781 7.5507812 18.050781 7.7737812 18.050781 8.0507812 C 18.050781 8.3277813 17.827781 8.5507812 17.550781 8.5507812 L 12.550781 8.5507812 C 12.273781 8.5507812 12.050781 8.3277813 12.050781 8.0507812 C 12.050781 7.7737812 12.273781 7.5507812 12.550781 7.5507812 z M 9.3945312 8.2285156 C 8.9537837 8.2285156 8.6171875 8.5651119 8.6171875 9.0058594 C 8.6171875 9.4466069 8.9537837 9.7832031 9.3945312 9.7832031 C 9.8352788 9.7832031 10.171875 9.4466069 10.171875 9.0058594 C 10.171875 8.5651119 9.8352788 8.2285156 9.3945312 8.2285156 z M 12.550781 9.5507812 L 17.550781 9.5507812 C 17.827781 9.5507812 18.050781 9.7737812 18.050781 10.050781 C 18.050781 10.327781 17.827781 10.550781 17.550781 10.550781 L 12.550781 10.550781 C 12.273781 10.550781 12.050781 10.327781 12.050781 10.050781 C 12.050781 9.7737812 12.273781 9.5507812 12.550781 9.5507812 z M 12.550781 11.550781 L 17.550781 11.550781 C 17.827781 11.550781 18.050781 11.773781 18.050781 12.050781 C 18.050781 12.327781 17.827781 12.550781 17.550781 12.550781 L 12.550781 12.550781 C 12.273781 12.550781 12.050781 12.327781 12.050781 12.050781 C 12.050781 11.773781 12.273781 11.550781 12.550781 11.550781 z M 12.550781 13.550781 L 17.550781 13.550781 C 17.827781 13.550781 18.050781 13.773781 18.050781 14.050781 C 18.050781 14.327781 17.827781 14.550781 17.550781 14.550781 L 12.550781 14.550781 C 12.273781 14.550781 12.050781 14.327781 12.050781 14.050781 C 12.050781 13.773781 12.273781 13.550781 12.550781 13.550781 z" transform="matrix(14.51835,0,0,14.51835,-110.93777,-113.63864)"/>
           </g>
          </g>
         </g>
        </g>
       </g>
      </g>
     </g>
    </g>
   </g>
  </g>
 </g>
</svg>
