<?xml version="1.0" encoding="UTF-8" standalone="no"?>
<svg xmlns="http://www.w3.org/2000/svg" width="22" height="22" version="1.1">
 <g transform="translate(-326,-534.3622)">
  <g>
   <g>
    <g>
     <g transform="matrix(1.2000987,0,0,1.2000987,-68.633361,-107.92617)">
      <g transform="matrix(0.8332648,0,0,0.8332648,57.189768,89.931093)">
       <g transform="translate(-25.299998,0.29999811)">
        <g transform="translate(-21,2)">
         <g transform="translate(-94.71429,7.57146)">
          <path style="opacity:1;fill:#4d4d4d;fill-opacity:1;fill-rule:evenodd;" d="M 4 3 C 3.4459836 3 3 3.4459836 3 4 L 3 18 C 3 18.554016 3.4459836 19 4 19 L 18 19 C 18.554016 19 19 18.554016 19 18 L 19 4 C 19 3.4459836 18.554016 3 18 3 L 4 3 z M 10.199219 7 L 11.800781 7 L 11.800781 10.199219 L 15 10.199219 L 15 11.800781 L 11.800781 11.800781 L 11.800781 15 L 10.199219 15 L 10.199219 11.800781 L 7 11.800781 L 7 10.199219 L 10.199219 10.199219 L 10.199219 7 z" transform="translate(467.01428,524.49072)"/>
         </g>
        </g>
       </g>
      </g>
     </g>
    </g>
   </g>
  </g>
  <g transform="matrix(1.0667085,0,0,1.0667085,-23.547469,-35.31324)">
   <g transform="translate(-133.71429,9.57146)">
    <g transform="matrix(1,0,0,1.0948476,14.12477,-50.491255)">
     <rect style="opacity:1;fill:#1d99f3;fill-opacity:1;" width="1" height="13.7" x="462.71" y="527.73" ry="0"/>
    </g>
   </g>
  </g>
 </g>
</svg>
