<?xml version="1.0" encoding="UTF-8" standalone="no"?>
<svg xmlns="http://www.w3.org/2000/svg" width="22" height="22" version="1.1">
 <g transform="translate(-326,-534.3622)">
  <g transform="translate(1,-1)">
   <g transform="translate(-20.05,1.338)">
    <g transform="translate(318.05,-498.338)">
     <g transform="translate(-1.0000003,0.99999823)">
      <g transform="translate(-299,498)">
       <g transform="matrix(0.66666667,0,0,0.66666667,70.952379,189.8302)">
        <g transform="translate(27.682101,0.12839698)">
         <g>
          <g transform="matrix(1.5,0,0,1.5,360.88933,-1034.8737)">
           <g transform="translate(-412.88298,512.00351)">
            <g transform="translate(341.79698,500.25245)">
             <g transform="translate(-392.98822,-511.27795)">
              <g transform="matrix(1.3333333,0,0,1.3333333,-61.890355,-165.99713)">
               <g transform="translate(341.79698,500.25245)">
                <g transform="translate(-392.98822,-511.27795)">
                 <g style="stroke:#1f2a47;stroke-opacity:1" transform="translate(0.41988239,0.03484499)">
                  <g transform="translate(440.36158,509.62534)">
                   <g transform="matrix(0.52109202,0,0,0.52109202,-0.76995909,19.353185)" style="stroke:#1f2a47;stroke-opacity:1">
                    <g transform="translate(-400.50475,-509.14629)">
                     <g transform="matrix(1.0037077,0,0,1.0037077,11.267145,17.846026)">
                      <g transform="matrix(1.5263052,0,0,1.5263052,376.49864,-1040.1735)">
                       <g transform="matrix(1.1526351,0,0,1.1526351,-4.8344134,-156.43331)">
                        <g>
                         <g transform="matrix(0.81509151,0,0,0.81509151,-323.19965,584.90903)">
                          <g transform="translate(341.79698,500.25245)">
                           <g transform="translate(-392.98822,-511.27795)">
                            <g style="stroke:#1f2a47;stroke-opacity:1" transform="translate(0.41988239,0.03484499)">
                             <g transform="translate(440.36158,509.62534)">
                              <g transform="matrix(0.52109202,0,0,0.52109202,-0.76995909,19.353185)" style="stroke:#1f2a47;stroke-opacity:1">
                               <g transform="translate(-400.50475,-509.14629)">
                                <g transform="matrix(0.76761933,0,0,0.76761933,156.46876,138.50552)">
                                 <path style="opacity:1;fill:#4d4d4d;fill-opacity:1;" d="M 4.5996094 3 C 4.15641 3 3.8007812 3.3575818 3.8007812 3.8007812 L 3.8007812 18.199219 C 3.8007812 18.642418 4.15641 19 4.5996094 19 L 17.400391 19 C 17.84359 19 18.199219 18.642418 18.199219 18.199219 L 18.199219 3.8007812 C 18.199219 3.3575818 17.84359 3 17.400391 3 L 4.5996094 3 z M 8.1621094 7 C 9.1286239 7 9.9121094 7.7834584 9.9121094 8.75 C 9.9121094 9.7165416 9.1286239 10.5 8.1621094 10.5 C 7.1955949 10.5 6.4121094 9.7165416 6.4121094 8.75 C 6.4121094 7.7834584 7.1955949 7 8.1621094 7 z M 13.9375 7.125 L 13.9375 10.5 L 16.1875 10.5 L 12.8125 15 L 12.8125 11.625 L 10.5625 11.71875 L 13.9375 7.125 z M 6.4121094 11.375 L 9.9121094 11.375 L 9.9121094 14 L 9.9121094 14.875 L 9.0371094 14.875 L 6.4121094 14.875 L 6.4121094 11.375 z" transform="matrix(2.4999981,0,0,2.4999981,381.07146,496.29801)"/>
                                </g>
                               </g>
                              </g>
                             </g>
                            </g>
                           </g>
                          </g>
                         </g>
                        </g>
                       </g>
                      </g>
                     </g>
                    </g>
                   </g>
                  </g>
                 </g>
                </g>
               </g>
              </g>
             </g>
            </g>
           </g>
          </g>
         </g>
        </g>
       </g>
      </g>
     </g>
    </g>
   </g>
  </g>
 </g>
</svg>
