<?xml version="1.0" encoding="UTF-8" standalone="no"?>
<svg xmlns="http://www.w3.org/2000/svg" width="22" height="22" version="1.1">
 <g transform="translate(-326,-534.3622)">
  <g transform="translate(-217.57141,-209.57139)">
   <g transform="matrix(0.58302664,0,0,0.58302664,546.3038,746.66598)" style="fill:#4d4d4d;fill-opacity:1">
    <g style="fill:#4d4d4d;fill-opacity:1">
     <path d="m 16.8175,24.69275 c 0,0.868 0.665,1.57 1.491,1.57 0.819,-0.002 1.492,-0.702 1.492,-1.57 l 0,-3.25 6.018,6.021 c 0.582,0.583 1.524,0.583 2.106,0 0.582,-0.582 0.582,-1.527 0,-2.109 l -5.989,-5.987 3.235,0 c 0.881,-0.002 1.591,-0.669 1.591,-1.491 0,-0.824 -0.71,-1.49 -1.591,-1.49 l -6.761,0 c -0.881,0 -1.59,0.665 -1.593,1.49 0.003,0.022 0.006,0.039 0.009,0.061 -0.003,0.028 -0.009,0.058 -0.009,0.087 l 0,6.668 10e-4,0 z" style="fill:#4d4d4d;fill-opacity:1"/>
     <path d="m 0.45206254,25.371937 6.02099946,-6.015 -3.25,0 c -0.868,0 -1.568,-0.672 -1.57,-1.493 0,-0.824 0.702,-1.49 1.57,-1.49 l 6.669,-0.002 c 0.029,0 0.059,0.008 0.087,0.01 0.021,-0.002 0.038,-0.006 0.061,-0.008 0.825,0.002 1.49,0.712 1.49,1.592 l 0,6.762 c 0,0.879 -0.666,1.59 -1.49,1.59 -0.822,0 -1.489,-0.711 -1.491,-1.59 l 0,-3.235 -5.987,5.989 c -0.582,0.58 -1.5269995,0.58 -2.10899946,0 -0.584,-0.583 -0.584,-1.526 -0.001,-2.11 z" style="fill:#4d4d4d;fill-opacity:1"/>
     <path d="m 25.8175,0.89762508 -6.018,6.01700002 0,-3.25 c 0,-0.865 -0.673,-1.565 -1.492,-1.568 -0.826,0 -1.491,0.703 -1.491,1.568 l 0,6.6709999 c 0,0.029 0.006,0.059 0.009,0.085 -0.003,0.021 -0.006,0.041 -0.009,0.062 0.003,0.826 0.712,1.491 1.592,1.491 l 6.761,0 c 0.881,0 1.591,-0.665 1.591,-1.491 0,-0.8209999 -0.71,-1.4899999 -1.591,-1.4919999 l -3.235,0 5.989,-5.987 c 0.582,-0.581 0.582,-1.524 0,-2.10500002 -0.582,-0.586 -1.524,-0.586 -2.106,-0.001 z" style="fill:#4d4d4d;fill-opacity:1"/>
     <path d="m 6.424,8.99075 -3.234,0 c -0.879,0.002 -1.59,0.671 -1.59,1.492 0,0.826 0.711,1.491 1.59,1.491 l 6.761,0 c 0.88,0 1.59,-0.665 1.592,-1.491 -0.002,-0.021 -0.006,-0.041 -0.008,-0.062 0.002,-0.026 0.01,-0.055 0.01,-0.085 l -0.002,-6.672 c 0,-0.865 -0.666,-1.568 -1.49,-1.568 -0.821,0.003 -1.493,0.703 -1.493,1.568 l 0,3.25 -6.015,-6.016 c -0.584,-0.585 -1.527,-0.585 -2.11,0 -0.58,0.581 -0.58,1.524 0,2.105 l 5.989,5.988 z" style="fill:#4d4d4d;fill-opacity:1"/>
    </g>
   </g>
  </g>
 </g>
</svg>
