<?xml version="1.0" encoding="UTF-8" standalone="no"?>
<svg xmlns="http://www.w3.org/2000/svg" width="22" height="22" version="1.1">
 <g transform="translate(-326,-534.3622)">
  <g transform="matrix(0.66666361,0,0,0.66666361,70.953604,189.83183)">
   <g transform="translate(-1.5000063,1.5000002)">
    <g>
     <g>
      <g transform="translate(0,5.5e-5)">
       <g transform="matrix(-1,0,0,1,801.14286,0)">
        <g>
         <path style="opacity:1;fill:#4d4d4d;fill-opacity:1;fill-rule:evenodd;" d="M 1.1503906 3 C 0.73326587 3 0.3984375 3.3368015 0.3984375 3.7539062 L 0.3984375 18.246094 C 0.3984375 18.663199 0.73326587 19 1.1503906 19 L 20.849609 19 C 21.266741 19 21.601562 18.663199 21.601562 18.246094 L 21.601562 3.7539062 C 21.601562 3.3368015 21.266741 3 20.849609 3 L 1.1503906 3 z M 9.2070312 7 C 9.3884847 7 9.5685037 7.0690082 9.7070312 7.2070312 L 13.298828 10.455078 C 13.448469 10.60459 13.514305 10.80454 13.501953 11 C 13.514292 11.195804 13.448531 11.395396 13.298828 11.544922 L 9.7070312 14.792969 C 9.4299762 15.069359 8.9821331 15.069359 8.7050781 14.792969 C 8.4280231 14.516585 8.4280231 14.069352 8.7050781 13.792969 L 11.791016 11 L 8.7050781 8.2070312 C 8.4280231 7.9306409 8.4280231 7.4830912 8.7050781 7.2070312 C 8.8436056 7.0690082 9.0255778 7 9.2070312 7 z" transform="matrix(-1.5000069,0,0,1.5000069,417.07151,515.29787)"/>
        </g>
       </g>
      </g>
     </g>
    </g>
   </g>
  </g>
 </g>
</svg>
