<?xml version="1.0" encoding="UTF-8" standalone="no"?>
<svg xmlns="http://www.w3.org/2000/svg" width="22" height="22" version="1.1">
 <g transform="translate(-326,-534.3622)">
  <g transform="translate(-21.993845,1.248855)">
   <g transform="translate(-1.0000001,0.99999996)">
    <g transform="translate(23.2781,-2.8558407)">
     <g style="fill:#4d4d4d;fill-opacity:1" transform="matrix(0.66666665,0,0,0.66666665,70.952387,189.83024)">
      <g transform="translate(374.61313,-496.84069)" style="fill:#4d4d4d;fill-opacity:1;stroke:#000000;stroke-opacity:1">
       <g transform="matrix(0.96260036,0,0,0.96260036,-533.24725,449.15877)" style="fill:#4d4d4d;fill-opacity:1;">
        <g transform="matrix(0.14300539,0,0,0.14300539,554.04072,610.18772)" style="fill:#4d4d4d;fill-opacity:1;">
         <g transform="matrix(9.581865,0,0,9.581865,-7259.0635,-1926.5204)" style="fill:#4d4d4d;fill-opacity:1;">
          <g transform="matrix(0.37907185,0,0,0.37907185,615.60988,-10.010196)" style="fill:#4d4d4d;fill-opacity:1;">
           <g style="fill:#4d4d4d;fill-opacity:1;" transform="matrix(0.20663505,0,0,0.20663505,416.2249,531.51293)">
            <path style="fill:#4d4d4d;fill-opacity:1;" d="M 1.1503906 3 C 0.73325921 3 0.3984375 3.3367799 0.3984375 3.7539062 L 0.3984375 18.246094 C 0.3984375 18.663224 0.73325921 19 1.1503906 19 L 20.849609 19 C 21.266735 19 21.601562 18.663224 21.601562 18.246094 L 21.601562 3.7539062 C 21.601563 3.3367799 21.266735 3 20.849609 3 L 1.1503906 3 z M 9.0214844 9 L 20.101562 9 C 20.336196 9 20.525391 9.1891945 20.525391 9.4238281 L 20.525391 17.576172 C 20.525391 17.810808 20.336196 18 20.101562 18 L 9.0214844 18 C 8.7868479 18 8.5976562 17.810808 8.5976562 17.576172 L 8.5976562 9.4238281 C 8.5976562 9.1891945 8.7868479 9 9.0214844 9 z" transform="matrix(14.51835,0,0,14.51835,-129.58303,-90.307808)"/>
           </g>
          </g>
         </g>
        </g>
       </g>
      </g>
     </g>
    </g>
   </g>
  </g>
 </g>
</svg>
