<?xml version="1.0" encoding="UTF-8" standalone="no"?>
<svg xmlns="http://www.w3.org/2000/svg" width="22" height="22" version="1.1">
 <g transform="translate(-326,-534.3622)">
  <g transform="matrix(0.66666361,0,0,0.66666361,70.953604,189.83183)">
   <g transform="translate(-1.5000063,1.5000002)">
    <g>
     <g>
      <g transform="translate(0,5.5e-5)">
       <g transform="matrix(-1,0,0,1,801.14286,0)">
        <g>
         <path style="opacity:1;fill:#4d4d4d;fill-opacity:1;fill-rule:evenodd;" d="M 1.1503906 3 C 0.73326587 3 0.3984375 3.3368015 0.3984375 3.7539062 L 0.3984375 18.246094 C 0.3984375 18.663199 0.73326587 19 1.1503906 19 L 20.849609 19 C 21.266741 19 21.601562 18.663199 21.601562 18.246094 L 21.601562 3.7539062 C 21.601562 3.3368015 21.266741 3 20.849609 3 L 1.1503906 3 z M 12.792969 7 C 12.974422 7 13.156394 7.0690082 13.294922 7.2070312 C 13.571977 7.4830912 13.571977 7.9306409 13.294922 8.2070312 L 10.208984 11 L 13.294922 13.792969 C 13.571977 14.069352 13.571977 14.516585 13.294922 14.792969 C 13.017867 15.069359 12.570024 15.069359 12.292969 14.792969 L 8.7011719 11.544922 C 8.551469 11.395396 8.4857083 11.195804 8.4980469 11 C 8.4856946 10.80454 8.5515307 10.60459 8.7011719 10.455078 L 12.292969 7.2070312 C 12.431496 7.0690082 12.611515 7 12.792969 7 z" transform="matrix(-1.5000069,0,0,1.5000069,417.07151,515.29787)"/>
        </g>
       </g>
      </g>
     </g>
    </g>
   </g>
  </g>
 </g>
</svg>
