<?xml version="1.0" encoding="UTF-8" standalone="no"?>
<svg xmlns="http://www.w3.org/2000/svg" width="22" height="22" version="1.1">
 <g transform="translate(-326,-534.3622)">
  <g transform="matrix(0.9830229,0,0,0.9830229,-209.15629,-195.78342)">
   <rect style="opacity:1;fill:#4d4d4d;fill-opacity:1;fill-rule:evenodd;" width="8" height="8" x="551.57" y="749.93" ry=".48"/>
   <g style="stroke:#4d4d4d;stroke-width:0.30000001;stroke-opacity:1">
    <g transform="matrix(0.25,0,0,0.25,471.07622,611.00987)" style="stroke:#4d4d4d;stroke-width:1.20000005;stroke-opacity:1">
     <g transform="matrix(-1.082475,0,0,-1.082475,349.79192,1672.0369)" style="stroke:#4d4d4d;stroke-width:1.10857069;stroke-opacity:1">
      <g style="fill:#4d4d4d;fill-opacity:1;stroke:#4d4d4d;stroke-width:33.88833618;stroke-opacity:1" transform="matrix(1.1827033e-4,0.03271224,-0.03271224,1.1827033e-4,18.268695,1034.3501)">
       <path style="fill:#4d4d4d;fill-opacity:1;stroke:#4d4d4d;stroke-width:33.88833618;stroke-opacity:1" d="M 345.441,248.292 151.154,442.573 c -12.359,12.365 -32.397,12.365 -44.75,0 -12.354,-12.354 -12.354,-32.391 0,-44.744 L 278.318,225.92 106.409,54.017 c -12.354,-12.359 -12.354,-32.394 0,-44.748 12.354,-12.359 32.391,-12.359 44.75,0 l 194.287,194.284 c 6.177,6.18 9.262,14.271 9.262,22.366 0,8.099 -3.091,16.196 -9.267,22.373 z"/>
      </g>
     </g>
    </g>
    <g transform="matrix(0.25,0,0,-0.25,471.07622,896.88098)" style="stroke:#4d4d4d;stroke-width:1.20000005;stroke-opacity:1">
     <g transform="matrix(-1.082475,0,0,-1.082475,349.79192,1672.0369)" style="stroke:#4d4d4d;stroke-width:1.10857069;stroke-opacity:1">
      <g style="fill:#4d4d4d;fill-opacity:1;stroke:#4d4d4d;stroke-width:33.88833618;stroke-opacity:1" transform="matrix(1.1827033e-4,0.03271224,-0.03271224,1.1827033e-4,18.268695,1034.3501)">
       <path style="fill:#4d4d4d;fill-opacity:1;stroke:#4d4d4d;stroke-width:33.88833618;stroke-opacity:1" d="M 345.441,248.292 151.154,442.573 c -12.359,12.365 -32.397,12.365 -44.75,0 -12.354,-12.354 -12.354,-32.391 0,-44.744 L 278.318,225.92 106.409,54.017 c -12.354,-12.359 -12.354,-32.394 0,-44.748 12.354,-12.359 32.391,-12.359 44.75,0 l 194.287,194.284 c 6.177,6.18 9.262,14.271 9.262,22.366 0,8.099 -3.091,16.196 -9.267,22.373 z"/>
      </g>
     </g>
    </g>
    <g transform="matrix(0,0.25,0.25,0,412.64802,669.4384)" style="stroke:#4d4d4d;stroke-width:1.20000005;stroke-opacity:1">
     <g transform="matrix(-1.082475,0,0,-1.082475,349.79192,1672.0369)" style="stroke:#4d4d4d;stroke-width:1.10857069;stroke-opacity:1">
      <g style="fill:#4d4d4d;fill-opacity:1;stroke:#4d4d4d;stroke-width:33.88833618;stroke-opacity:1" transform="matrix(1.1827033e-4,0.03271224,-0.03271224,1.1827033e-4,18.268695,1034.3501)">
       <path style="fill:#4d4d4d;fill-opacity:1;stroke:#4d4d4d;stroke-width:33.88833618;stroke-opacity:1" d="M 345.441,248.292 151.154,442.573 c -12.359,12.365 -32.397,12.365 -44.75,0 -12.354,-12.354 -12.354,-32.391 0,-44.744 L 278.318,225.92 106.409,54.017 c -12.354,-12.359 -12.354,-32.394 0,-44.748 12.354,-12.359 32.391,-12.359 44.75,0 l 194.287,194.284 c 6.177,6.18 9.262,14.271 9.262,22.366 0,8.099 -3.091,16.196 -9.267,22.373 z"/>
      </g>
     </g>
    </g>
    <g transform="matrix(0,0.25,-0.25,0,698.52913,669.4384)" style="stroke:#4d4d4d;stroke-width:1.20000005;stroke-opacity:1">
     <g transform="matrix(-1.082475,0,0,-1.082475,349.79192,1672.0369)" style="stroke:#4d4d4d;stroke-width:1.10857069;stroke-opacity:1">
      <g style="fill:#4d4d4d;fill-opacity:1;stroke:#4d4d4d;stroke-width:33.88833618;stroke-opacity:1" transform="matrix(1.1827033e-4,0.03271224,-0.03271224,1.1827033e-4,18.268695,1034.3501)">
       <path style="fill:#4d4d4d;fill-opacity:1;stroke:#4d4d4d;stroke-width:33.88833618;stroke-opacity:1" d="M 345.441,248.292 151.154,442.573 c -12.359,12.365 -32.397,12.365 -44.75,0 -12.354,-12.354 -12.354,-32.391 0,-44.744 L 278.318,225.92 106.409,54.017 c -12.354,-12.359 -12.354,-32.394 0,-44.748 12.354,-12.359 32.391,-12.359 44.75,0 l 194.287,194.284 c 6.177,6.18 9.262,14.271 9.262,22.366 0,8.099 -3.091,16.196 -9.267,22.373 z"/>
      </g>
     </g>
    </g>
   </g>
   <g>
    <g transform="matrix(0.23578467,-0.23558582,0.23558582,0.23578467,340.85376,698.38424)">
     <g transform="matrix(-1.082475,0,0,-1.082475,349.79192,1672.0369)">
      <g style="fill:#4d4d4d;fill-opacity:1" transform="matrix(1.1827033e-4,0.03271224,-0.03271224,1.1827033e-4,18.268695,1034.3501)">
       <path style="fill:#4d4d4d;fill-opacity:1" d="M 345.441,248.292 151.154,442.573 c -12.359,12.365 -32.397,12.365 -44.75,0 -12.354,-12.354 -12.354,-32.391 0,-44.744 L 278.318,225.92 106.409,54.017 c -12.354,-12.359 -12.354,-32.394 0,-44.748 12.354,-12.359 32.391,-12.359 44.75,0 l 194.287,194.284 c 6.177,6.18 9.262,14.271 9.262,22.366 0,8.099 -3.091,16.196 -9.267,22.373 z"/>
      </g>
     </g>
    </g>
    <g transform="matrix(-0.23578467,-0.23558582,-0.23558582,0.23578467,770.27478,698.38417)">
     <g transform="matrix(-1.082475,0,0,-1.082475,349.79192,1672.0369)">
      <g style="fill:#4d4d4d;fill-opacity:1" transform="matrix(1.1827033e-4,0.03271224,-0.03271224,1.1827033e-4,18.268695,1034.3501)">
       <path style="fill:#4d4d4d;fill-opacity:1" d="M 345.441,248.292 151.154,442.573 c -12.359,12.365 -32.397,12.365 -44.75,0 -12.354,-12.354 -12.354,-32.391 0,-44.744 L 278.318,225.92 106.409,54.017 c -12.354,-12.359 -12.354,-32.394 0,-44.748 12.354,-12.359 32.391,-12.359 44.75,0 l 194.287,194.284 c 6.177,6.18 9.262,14.271 9.262,22.366 0,8.099 -3.091,16.196 -9.267,22.373 z"/>
      </g>
     </g>
    </g>
   </g>
   <g transform="matrix(1,0,0,-1,-0.02896548,1507.8502)">
    <g transform="matrix(0.23578467,-0.23558582,0.23558582,0.23578467,340.85376,698.38424)">
     <g transform="matrix(-1.082475,0,0,-1.082475,349.79192,1672.0369)">
      <g style="fill:#4d4d4d;fill-opacity:1" transform="matrix(1.1827033e-4,0.03271224,-0.03271224,1.1827033e-4,18.268695,1034.3501)">
       <path style="fill:#4d4d4d;fill-opacity:1" d="M 345.441,248.292 151.154,442.573 c -12.359,12.365 -32.397,12.365 -44.75,0 -12.354,-12.354 -12.354,-32.391 0,-44.744 L 278.318,225.92 106.409,54.017 c -12.354,-12.359 -12.354,-32.394 0,-44.748 12.354,-12.359 32.391,-12.359 44.75,0 l 194.287,194.284 c 6.177,6.18 9.262,14.271 9.262,22.366 0,8.099 -3.091,16.196 -9.267,22.373 z"/>
      </g>
     </g>
    </g>
    <g transform="matrix(-0.23578467,-0.23558582,-0.23558582,0.23578467,770.27478,698.38417)">
     <g transform="matrix(-1.082475,0,0,-1.082475,349.79192,1672.0369)">
      <g style="fill:#4d4d4d;fill-opacity:1" transform="matrix(1.1827033e-4,0.03271224,-0.03271224,1.1827033e-4,18.268695,1034.3501)">
       <path style="fill:#4d4d4d;fill-opacity:1" d="M 345.441,248.292 151.154,442.573 c -12.359,12.365 -32.397,12.365 -44.75,0 -12.354,-12.354 -12.354,-32.391 0,-44.744 L 278.318,225.92 106.409,54.017 c -12.354,-12.359 -12.354,-32.394 0,-44.748 12.354,-12.359 32.391,-12.359 44.75,0 l 194.287,194.284 c 6.177,6.18 9.262,14.271 9.262,22.366 0,8.099 -3.091,16.196 -9.267,22.373 z"/>
      </g>
     </g>
    </g>
   </g>
  </g>
 </g>
</svg>
