<svg height="512" viewBox="0 0 512 512" width="512" xmlns="http://www.w3.org/2000/svg">
 <text x="729.64" y="233.72">
  
 </text>
 <text x="1310.91" y="153.72">
  
 </text>
 <text x="239.33" y="-27.54">
  
 </text>
 <text x="1337.38" y="-244.01">
  
 </text>
 <text x="1918.65" y="-324.02">
  
 </text>
 <text x="1529.53" y="-796.42">
  
 </text>
 <text x="2110.8" y="-876.42">
  
 </text>
 <text x="277.99" y="538.3">
  
 </text>
 <text x="3833.78" y="-509.16">
  
 </text>
 <text x="4415.05" y="-589.16">
  
 </text>
 <text x="3343.47" y="-770.41">
  
 </text>
 <text x="4441.52" y="-986.89">
  
 </text>
 <text x="5022.79" y="-1066.89">
  
 </text>
 <text x="4633.67" y="-1539.29">
  
 </text>
 <text x="5214.93" y="-1619.29">
  
 </text>
 <text x="3382.13" y="-204.58">
  
 </text>
 <path d="m108.6312 57.3705c-7.963 0-15.228 2.293-20.693 6.22-4.545 3.266-7.751 7.872-8.752 13.13h-11.909c-16.447 0-29.883 13.03-29.883 29.2v66.736c0 16.17 13.436 29.19 29.883 29.19h377.47c16.447 0 29.883-13.03 29.883-29.19v-66.736c0-16.17-13.436-29.2-29.883-29.2h-262.91c-1-5.256-4.208-9.862-8.753-13.13-5.465-3.927-12.73-6.22-20.693-6.22h-43.761" fill="#cccccc" fill-rule="evenodd"/>
 <path d="m37.3612 118.4605c-19.928 0-38.06 15.818-36.23 35.853l24.26 265.41c1.733 18.966 16.271 34.947 36.2 34.947h383.41c19.933 0 34.1-16.05 36.2-34.853l29.632-265.41c1.123-10.05-3.137-19.263-9.971-25.663-6.833-6.399-16.258-10.284-26.22-10.284h-437.27" fill="#1793d1" fill-rule="evenodd"/>
 <path d="m108.5512 57.2905c-7.963 0-15.11 2.403-20.572 6.33-4.545 3.266-7.702 7.931-8.703 13.187h-12.13c-17.677 0-29.802 12.771-29.802 30.661v3.956c0-16.17 13.355-29.27 29.802-29.27h14.286c1-5.256 2-9.657 6.549-12.923 5.465-3.927 12.609-6.33 20.572-6.33h43.78c7.963 0 15.371 2.403 20.835 6.33 4.545 3.266 5.766 7.668 6.769 12.923h264.88c16.447 0 29.802 11.455 29.802 27.625v-3.956c0-16.17-13.355-29.01-29.802-29.01h-262.95c-1-5.256-4.159-9.921-8.703-13.187-5.465-3.927-12.872-6.33-20.835-6.33z" fill="#ffffff" fill-rule="evenodd" opacity=".764"/>
 <path d="m37.3512 118.4505c-19.928 0-38.05 15.84-36.22 35.875l.406 4.375c3-15.936 18.732-27.563 35.813-27.563h437.28c9.966 0 19.386 3.882 26.22 10.281 4.736 4.435 8.234 10.208 9.563 16.688l.406-3.688c1.123-10.05-3.134-19.288-9.969-25.688-6.833-6.399-16.252-10.281-26.22-10.281h-437.28" fill="#ffffff" fill-rule="evenodd" opacity=".4"/>
 <text x="90.12" y="140.64">
  
 </text>
 <text x="671.39" y="60.64">
  
 </text>
 <text x="-400.19" y="-120.62">
  
 </text>
 <text x="697.86" y="-337.09">
  
 </text>
 <text x="1279.13" y="-417.1">
  
 </text>
 <text x="890.01" y="-889.5">
  
 </text>
 <text x="1471.27" y="-969.5">
  
 </text>
 <text x="-361.53" y="445.22">
  
 </text>
 <text x="-2585.36" y="426.26">
  
 </text>
 <text x="-1879.02" y="270.63">
  
 </text>
 <text x="-1845.65" y="262.51">
  
 </text>
 <text x="-695.23" y="108.1">
  
 </text>
 <text x="-113.97" y="28.1">
  
 </text>
 <text x="-1185.55" y="-153.16">
  
 </text>
 <text x="-87.5" y="-369.63">
  
 </text>
 <text x="493.77" y="-449.63">
  
 </text>
 <text x="104.65" y="-922.03">
  
 </text>
 <text x="685.91" y="-1002.04">
  
 </text>
 <text x="-1146.89" y="412.68">
  
 </text>
 <text x="-745.68" y="-630.91">
  
 </text>
 <text x="-164.41" y="-710.91">
  
 </text>
 <text x="-1235.99" y="-892.17">
  
 </text>
 <text x="-137.94" y="-1108.64">
  
 </text>
 <text x="443.32" y="-1188.65">
  
 </text>
 <text x="54.2" y="-1661.05">
  
 </text>
 <text x="635.47" y="-1741.05">
  
 </text>
 <text x="-1197.34" y="-326.33">
  
 </text>
 <text x="2358.46" y="-1373.79">
  
 </text>
 <text x="2939.72" y="-1453.79">
  
 </text>
 <text x="1868.14" y="-1635.04">
  
 </text>
 <text x="2966.19" y="-1851.52">
  
 </text>
 <text x="3547.46" y="-1931.52">
  
 </text>
 <text x="3158.34" y="-2403.92">
  
 </text>
 <text x="3739.61" y="-2483.92">
  
 </text>
 <text x="1906.8" y="-1069.21">
  
 </text>
 <text x="-2635.81" y="-315.13">
  
 </text>
 <text x="-2635.81" y="-315.13">
  
 </text>
 <text x="-2969.36" y="317.78">
  
 </text>
 <text x="-2263.02" y="162.15">
  
 </text>
 <path d="m317.6512 289.8105c-5.911-7.211-13.442-12.66-21.805-16.56-4.212-1.934-8.632-3.531-13.65-4.529-1.959-.385-3.813-.598-5.607-.708l-.529-21.491c0-.558 0-1.124 0-1.675.719-.409 1.447-.818 2.158-1.227 7.193-4.16 14.03-8.477 20.765-13.651 6.656-5.182 13.338-11.06 18.365-19.376 4.94-8.438 7.04-18.432 3.848-28.851-3.02-10.27-13.893-19.84-27.395-20.14-6.621-.244-13.269 1.974-18.08 5.497-2.453 1.754-4.463 3.735-6.11 5.882-1.196 1.612-2.227 2.658-3.553 4.726-5.503 8.03-8.05 16.15-9.291 24.314-1.187 8.05-1.213 15.743-.849 23.12l.182 4.183c-10.573 5.394-21.771 10.97-32.457 17.764-6.994 4.419-13.936 9.358-20.297 15.499-6.327 6.071-12.12 13.58-15.427 22.435-3.311 8.878-4.02 18.345-2.037 27.396 1.612 8.217 5.243 16.741 10.539 24.13 10.643 15.15 28.375 24.856 46.35 28.599 5.989 1.164 12.06 1.856 18.17 1.982l.321 9.696c.017.33.035.7.087 1.038.121.818.234 2.351.234 3.523.009 1.266-.043 2.524-.182 3.743-.26 2.422-.867 4.639-1.707 6.267-.875 1.643-1.803 2.469-2.877 3.059-.572.26-1.283.48-2.132.629-.459.039-.893.142-1.439.142-.061 0-.529.016-.546.016l-1.109-.055-1.239-.079-.598-.134c-.364-.047-.832-.142-1.421-.291-1.075-.236-2.132-.613-3.068-1.062-1.907-.857-3.441-2.06-4.316-3.224-.884-1.195-1.213-2.288-1.144-3.641.043-.676.13-1.431.511-2.257.217-.818.849-1.722 1.291-2.626l.615-1.242c2.02-4.113.113-8.988-4.385-10.985-4.611-2.06-10.166-.338-12.437 3.837-1.031 1.895-2.115 3.696-2.791 5.898-.789 2.052-1.239 4.443-1.3 6.833-.217 4.828 1.569 9.979 4.663 13.8 3.068 3.877 7.107 6.605 11.319 8.445 2.115.936 4.299 1.643 6.526 2.131 1.803.511 5.59.928 6.838.928l1.283.063c1.369.031 1.404-.024 2.175-.031 1.17-.016 2.435-.181 3.666-.346 2.496-.417 5.087-1.132 7.54-2.304 4.975-2.383 8.684-6.479 10.721-10.435 2.071-3.995 2.964-7.903 3.406-11.638.217-1.864.303-3.719.303-5.528-.035-1.738-.087-3.193-.321-5.119l-.286-10.482c6.249-1.148 12.411-2.972 18.382-5.591 4.368-1.974 8.632-4.419 12.471-7.604 3.744-2.949 7.791-7.698 9.802-11.316 4.264-7.447 7.54-16.12 7.427-25.493.043-9.35-3.657-18.731-9.577-25.879m-40.776-85.1c.997-6.134 3.38-12.09 6.413-16.277.641-1.085 2.271-2.776 3.337-4.136.641-.802 1.421-1.463 2.132-1.903 1.456-.928 2.782-1.219 4.151-1.117 2.713.197 5.755 2.406 6.682 6.094 1.023 3.586.121 8.909-2.652 13.04-4.203 6.456-12.298 12.637-21.259 18.17.095-4.852.416-9.523 1.196-13.871m-28.18 138.38c-12.879-2.965-24.2-9.601-30.645-19.12-3.25-4.781-5.538-9.994-6.613-16.02-.971-5.143-.745-10.584 1.066-15.381 3.441-9.821 13.745-18.833 25.809-26.524 5.971-3.837 12.298-7.36 18.85-10.899l.537 14.886c-6.01 1.565-11.726 3.979-17.09 7.266-3.995 2.556-7.791 5.748-10.807 9.853-1.517 2.123-2.739 4.073-3.796 7.148-.234.692-.529 1.533-.659 2.076l-.251 1.337-.355 1.997-.113 1.934c-.355 5.206 1.664 10.946 5.122 15.255 3.666 4.309 7.583 7.242 13.13 9.593.312.149.693.275 1.031.385 4.897 1.478 10.192-.936 11.813-5.394 1.629-4.451-1.031-9.247-5.937-10.718l-.087-.016c-10.157-3.067-9.542-13.36 1.352-19.494 2.227-1.266 4.697-2.367 7.297-3.24l.078 2.155 1.803 54.675c-3.926-.283-7.809-.857-11.535-1.754m56.784-27.53c-.104 5.151-2.219 10.576-5.469 15.798-1.811 2.705-2.895 3.609-5.157 5.426-2.071 1.636-4.68 3.03-7.471 4.168-2.773 1.132-5.737 2.02-8.831 2.674l-1.465-53.755-.087-3.798c.251.055.537.11.763.181 2.756.629 5.781 1.785 8.615 3.208 11.605 5.795 19.769 15.931 19.1 26.1" fill="#ffffff"/>
</svg>
