<svg height="512" viewBox="0 0 512 512" width="512" xmlns="http://www.w3.org/2000/svg">
 <path d="m108.6312 71.711c-7.963 0-15.228 2.293-20.693 6.22-4.545 3.266-7.751 7.872-8.752 13.13h-11.909c-16.447 0-29.883 13.03-29.883 29.2v66.736c0 16.17 13.436 29.19 29.883 29.19h377.47c16.447 0 29.883-13.03 29.883-29.19v-66.736c0-16.17-13.436-29.2-29.883-29.2h-262.91c-1-5.256-4.208-9.862-8.753-13.13-5.465-3.927-12.73-6.22-20.693-6.22h-43.761" fill="#cccccc" fill-rule="evenodd"/>
 <path d="m37.3612 132.801c-19.928 0-38.06 15.818-36.23 35.853l24.26 265.41c1.733 18.966 16.271 34.947 36.2 34.947h383.41c19.933 0 34.1-16.05 36.2-34.853l29.632-265.41c1.123-10.05-3.137-19.263-9.971-25.663-6.833-6.399-16.258-10.284-26.22-10.284h-437.27" fill="#1793d1" fill-rule="evenodd"/>
 <path d="m108.5512 71.631c-7.963 0-15.11 2.403-20.572 6.33-4.545 3.266-7.702 7.931-8.703 13.187h-12.13c-17.677 0-29.802 12.771-29.802 30.661v3.956c0-16.17 13.355-29.27 29.802-29.27h14.286c1-5.256 2-9.657 6.549-12.923 5.465-3.927 12.609-6.33 20.572-6.33h43.78c7.963 0 15.371 2.403 20.835 6.33 4.545 3.266 5.766 7.668 6.769 12.923h264.88c16.447 0 29.802 11.455 29.802 27.625v-3.956c0-16.17-13.355-29.01-29.802-29.01h-262.95c-1-5.256-4.159-9.921-8.703-13.187-5.465-3.927-12.872-6.33-20.835-6.33z" fill="#ffffff" fill-rule="evenodd" opacity=".764"/>
 <path d="m37.3512 132.791c-19.928 0-38.05 15.84-36.22 35.875l.406 4.375c3-15.936 18.732-27.563 35.813-27.563h437.28c9.966 0 19.386 3.882 26.22 10.281 4.736 4.435 8.234 10.208 9.563 16.688l.406-3.688c1.123-10.05-3.134-19.288-9.969-25.688-6.833-6.399-16.252-10.281-26.22-10.281h-437.28" fill="#ffffff" fill-rule="evenodd" opacity=".4"/>
 <path d="m255.7012 42.95c-78.54 0-147.4 41.505-186.06 103.81 39.37-60.683 107.99-100.87 186.06-100.87 78.07 0 146.69 40.19 186.06 100.88-38.66401-62.31-107.52-103.81-186.06-103.81" fill="#fff8eb" fill-opacity=".271"/>
 <path d="m237.5637 187.9035c-.45353-.0342-.91627.0344-1.375.1875-1.82104.61601-2.80169 2.57829-2.1875 4.40625l5.03125 14.875 2.21875 6.625 2.28125 6.71875c-32.21124 5.66076-58.34556 25.73958-66.09375 54.65625l188.90625 50.625c7.74633-28.9097-4.87212-59.36702-29.9375-80.375l5.34375-4.6875 5.25-4.625 11.78125-10.34375c1.44584-1.27598 1.60397-3.48841.34375-4.9375-1.288-1.45653-3.48282-1.59357-4.9375-.3125l-12.65625 11.125-5.3125 4.65625-5.375 4.75c-10.92685-7.99261-23.83009-14.3092-38.1875-18.15625-14.34349-3.84333-28.63456-4.83339-42.09375-3.375l-2.28125-6.78125-2.28125-6.6875-5.40625-15.96875c-.4606-1.37096-1.67067-2.27232-3.03125-2.375zm3.375 54.375c1.03101-.0402 2.07456.0623 3.125.34375 5.58849 1.49743 8.90367 7.22403 7.40625 12.8125-1.49743 5.58847-7.22402 8.93493-12.8125 7.4375-5.60236-1.50115-8.93493-7.25529-7.4375-12.84375 1.21665-4.54063 5.25105-7.57575 9.71875-7.75zm174.75 10.40625c-8.9265.35316-16.96991 6.43868-19.40625 15.53125l-23.1875 86.59375c-2.99299 11.16997 3.62864 22.65954 14.8125 25.65625 11.16999 2.99299 22.66326-3.67377 25.65625-14.84375l23.1875-86.5625c2.99671-11.1839-3.64251-22.66326-14.8125-25.65625-2.09698-.56188-4.19004-.80025-6.25-.71875zm-93.8125 11.28125c1.02928-.0407 2.07716.063 3.125.34375 5.6024 1.50116 8.93492 7.25528 7.4375 12.84375-1.49743 5.58847-7.24135 8.90741-12.84375 7.40625-5.58849-1.49743-8.90368-7.25528-7.40625-12.84375 1.21664-4.54063 5.22726-7.57375 9.6875-7.75zm-188.0625 15.15625c-8.92449.3537-16.93865 6.43868-19.375 15.53125l-23.21875 86.59375c-2.99299 11.16998 3.63556 22.6614 14.8125 25.65625 11.16997 2.99298 22.69452-3.64253 25.6875-14.8125l23.1875-86.59375c2.99672-11.18389-3.63556-22.6614-14.8125-25.65625-2.09567-.56153-4.22175-.80037-6.28125-.71875zm40 9.75l-4.5 16.84375-3.6875 13.71875-26.875 100.34375h202.46875l13.31249-49.71875 3.6875-13.75 4.5-16.8125-1.4375-.40625-185.99999-49.8125z" fill="#ffffff"/>
</svg>
