<svg height="512" viewBox="0 0 512 512" width="512" xmlns="http://www.w3.org/2000/svg">
  <text x="729.64" y="231.36">
    <tspan x="729.64" y="231.36"/>
  </text>
  <text transform="scale(4.0128 .2492)" x="378.91" y="579.25"/>
  <text x="1310.91" y="151.36">
    <tspan x="1310.91" y="151.36"/>
  </text>
  <text transform="scale(4.0128 .2492)" x="523.76" y="258.22"/>
  <text x="239.33" y="-29.901">
    <tspan x="239.33" y="-29.901"/>
  </text>
  <text transform="scale(4.0128 .2492)" x="256.72" y="-469.14"/>
  <text x="1337.38" y="-246.37">
    <tspan x="1337.38" y="-246.37"/>
  </text>
  <text transform="scale(4.0128 .2492)" x="530.36" y="-1337.81"/>
  <text x="1918.65" y="-326.38">
    <tspan x="1918.65" y="-326.38"/>
  </text>
  <text transform="scale(4.0128 .2492)" x="675.21" y="-1658.85"/>
  <text x="1529.53" y="-798.78">
    <tspan x="1529.53" y="-798.78"/>
  </text>
  <text transform="scale(4.0128 .2492)" x="578.24" y="-3554.51"/>
  <text x="2110.79" y="-878.78">
    <tspan x="2110.79" y="-878.78"/>
  </text>
  <text transform="scale(4.0128 .2492)" x="723.09" y="-3875.54"/>
  <text x="277.99" y="535.94">
    <tspan x="277.99" y="535.94"/>
  </text>
  <text x="-307.18" y="-11.341">
    <tspan x="-307.18" y="-11.341"/>
  </text>
  <text transform="scale(4.0128 .2492)" x="228.47" y="-585.88"/>
  <text x="438.2" y="41.802">
    <tspan x="438.2" y="41.802"/>
  </text>
  <text transform="scale(4.0128 .2492)" x="414.22" y="-372.63"/>
  <text x="1337.81" y="-82.02">
    <tspan x="1337.81" y="-82.02"/>
  </text>
  <text transform="scale(4.0128 .2492)" x="638.4" y="-869.49"/>
  <text x="465.66" y="-134.65">
    <tspan x="465.66" y="-134.65"/>
  </text>
  <text transform="scale(4.0128 .2492)" x="421.06" y="-1080.71"/>
  <text x="1365.27" y="-258.47">
    <tspan x="1365.27" y="-258.47"/>
  </text>
  <text transform="scale(4.0128 .2492)" x="645.24" y="-1577.57"/>
  <text x="-2544.32" y="317.23">
    <tspan x="-2544.32" y="317.23"/>
  </text>
  <text transform="scale(4.0128 .2492)" x="-329.03" y="732.62"/>
  <text x="-616.04" y="81.8">
    <tspan x="-616.04" y="81.8"/>
  </text>
  <text transform="scale(4.0128 .2492)" x="151.5" y="-212.12"/>
  <text x="129.34" y="134.94">
    <tspan x="129.34" y="134.94"/>
  </text>
  <text transform="scale(4.0128 .2492)" x="337.25" y="1.138"/>
  <text x="1028.95" y="11.127">
    <tspan x="1028.95" y="11.127"/>
  </text>
  <text transform="scale(4.0128 .2492)" x="561.43" y="-495.72"/>
  <text x="156.8" y="-41.51">
    <tspan x="156.8" y="-41.51"/>
  </text>
  <text transform="scale(4.0128 .2492)" x="344.09" y="-706.95"/>
  <text x="1056.42" y="-165.33">
    <tspan x="1056.42" y="-165.33"/>
  </text>
  <text transform="scale(4.0128 .2492)" x="568.28" y="-1203.81"/>
  <text x="-2853.18" y="410.37">
    <tspan x="-2853.18" y="410.37"/>
  </text>
  <text transform="scale(4.0128 .2492)" x="-406" y="1106.39"/>
  <text x="-1330.61" y="-35.06">
    <tspan x="-1330.61" y="-35.06"/>
  </text>
  <text transform="scale(4.0128 .2492)" x="-26.571" y="-681.04"/>
  <text x="-585.23" y="18.09">
    <tspan x="-585.23" y="18.09"/>
  </text>
  <text transform="scale(4.0128 .2492)" x="159.18" y="-467.79"/>
  <text x="314.38" y="-105.73">
    <tspan x="314.38" y="-105.73"/>
  </text>
  <text transform="scale(4.0128 .2492)" x="383.36" y="-964.65"/>
  <text x="-557.77" y="-158.37">
    <tspan x="-557.77" y="-158.37"/>
  </text>
  <text transform="scale(4.0128 .2492)" x="166.02" y="-1175.88"/>
  <text x="341.85" y="-282.18">
    <tspan x="341.85" y="-282.18"/>
  </text>
  <text transform="scale(4.0128 .2492)" x="390.2" y="-1672.73"/>
  <text x="-3567.75" y="293.52">
    <tspan x="-3567.75" y="293.52"/>
  </text>
  <text transform="scale(4.0128 .2492)" x="-584.07" y="637.46"/>
  <g fill-rule="evenodd">
    <path d="m471.95 253.05c0 120.9-98.01 218.9-218.9 218.9-120.9 0-218.9-98.01-218.9-218.9 0-120.9 98.01-218.9 218.9-218.9 120.9 0 218.9 98.01 218.9 218.9" fill="#1793d1"/>
    <path d="m252.56 105.69c-72.04.287-137.95 59.39-145.62 131.19-7.337 50.96 15.03 102.8 53.5 136.09 33.02 32.891 65.918 65.89 98.84 98.88 115.91-3.247 209.28-96.59 212.56-212.5-39.42-39.587-78.8-79.23-118.87-118.12-26.788-22.824-61.769-35.649-96.97-35.5-1.146-.025-2.294-.036-3.438-.031" fill-opacity=".235"/>
    <path d="m256 1c-140.83 0-255 114.17-255 255s114.17 255 255 255 255-114.17 255-255-114.17-255-255-255m8.827 44.931c120.9 0 218.9 98 218.9 218.9s-98 218.9-218.9 218.9-218.93-98-218.93-218.9 98.03-218.9 218.93-218.9" fill-opacity=".067"/>
    <g fill-opacity=".129">
      <path d="m256 4.433c-138.94 0-251.57 112.63-251.57 251.57s112.63 251.57 251.57 251.57 251.57-112.63 251.57-251.57-112.63-251.57-251.57-251.57m5.885 38.556c120.9 0 218.9 98 218.9 218.9s-98 218.9-218.9 218.9-218.93-98-218.93-218.9 98.03-218.9 218.93-218.9"/>
      <path d="m256 8.356c-136.77 0-247.64 110.87-247.64 247.64s110.87 247.64 247.64 247.64 247.64-110.87 247.64-247.64-110.87-247.64-247.64-247.64m2.942 31.691c120.9 0 218.9 98 218.9 218.9s-98 218.9-218.9 218.9-218.93-98-218.93-218.9 98.03-218.9 218.93-218.9"/>
    </g>
    <path d="m253.04 7.859c-135.42 0-245.19 109.78-245.19 245.19 0 135.42 109.78 245.19 245.19 245.19 135.42 0 245.19-109.78 245.19-245.19 0-135.42-109.78-245.19-245.19-245.19zm0 26.297c120.9 0 218.9 98 218.9 218.9s-98 218.9-218.9 218.9-218.93-98-218.93-218.9 98.03-218.9 218.93-218.9z" fill="#ffffff" stroke="#000000" stroke-opacity=".31" stroke-width="4.904"/>
  </g>
  <text x="729.64" y="231.36">
    <tspan x="729.64" y="231.36"/>
  </text>
  <text transform="scale(4.0128 .2492)" x="378.91" y="579.25"/>
  <text x="1310.91" y="151.36">
    <tspan x="1310.91" y="151.36"/>
  </text>
  <text transform="scale(4.0128 .2492)" x="523.76" y="258.22"/>
  <text x="239.33" y="-29.901">
    <tspan x="239.33" y="-29.901"/>
  </text>
  <text transform="scale(4.0128 .2492)" x="256.72" y="-469.14"/>
  <text x="1337.38" y="-246.37">
    <tspan x="1337.38" y="-246.37"/>
  </text>
  <text transform="scale(4.0128 .2492)" x="530.36" y="-1337.8"/>
  <text x="1918.65" y="-326.38">
    <tspan x="1918.65" y="-326.38"/>
  </text>
  <text transform="scale(4.0128 .2492)" x="675.21" y="-1658.84"/>
  <text x="1529.53" y="-798.78">
    <tspan x="1529.53" y="-798.78"/>
  </text>
  <text transform="scale(4.0128 .2492)" x="578.24" y="-3554.49"/>
  <text x="2110.79" y="-878.78">
    <tspan x="2110.79" y="-878.78"/>
  </text>
  <text transform="scale(4.0128 .2492)" x="723.09" y="-3875.52"/>
  <text x="277.99" y="535.94">
    <tspan x="277.99" y="535.94"/>
  </text>
  <text x="104.96" y="227.12">
    <tspan x="104.96" y="227.12"/>
  </text>
  <text transform="scale(4.0128 .2492)" x="223.24" y="562.23"/>
  <text x="686.23" y="147.11">
    <tspan x="686.23" y="147.11"/>
  </text>
  <text transform="scale(4.0128 .2492)" x="368.09" y="241.19"/>
  <text x="-385.35" y="-34.14">
    <tspan x="-385.35" y="-34.14"/>
  </text>
  <text transform="scale(4.0128 .2492)" x="101.05" y="-486.16"/>
  <text x="712.7" y="-250.62">
    <tspan x="712.7" y="-250.62"/>
  </text>
  <text transform="scale(4.0128 .2492)" x="374.69" y="-1354.84"/>
  <text x="1293.97" y="-330.62">
    <tspan x="1293.97" y="-330.62"/>
  </text>
  <text transform="scale(4.0128 .2492)" x="519.54" y="-1675.87"/>
  <text x="904.85" y="-803.02">
    <tspan x="904.85" y="-803.02"/>
  </text>
  <text transform="scale(4.0128 .2492)" x="422.57" y="-3571.53"/>
  <text x="1486.12" y="-883.02">
    <tspan x="1486.12" y="-883.02"/>
  </text>
  <text transform="scale(4.0128 .2492)" x="567.42" y="-3892.57"/>
  <text x="-346.69" y="531.69">
    <tspan x="-346.69" y="531.69"/>
  </text>
  <text x="-931.86" y="-15.584">
    <tspan x="-931.86" y="-15.584"/>
  </text>
  <text transform="scale(4.0128 .2492)" x="72.797" y="-602.91"/>
  <text x="-186.48" y="37.559">
    <tspan x="-186.48" y="37.559"/>
  </text>
  <text transform="scale(4.0128 .2492)" x="258.55" y="-389.66"/>
  <text x="713.13" y="-86.26">
    <tspan x="713.13" y="-86.26"/>
  </text>
  <text transform="scale(4.0128 .2492)" x="482.73" y="-886.51"/>
  <text x="-159.02" y="-138.9">
    <tspan x="-159.02" y="-138.9"/>
  </text>
  <text transform="scale(4.0128 .2492)" x="265.39" y="-1097.74"/>
  <text x="740.6" y="-262.71">
    <tspan x="740.6" y="-262.71"/>
  </text>
  <text transform="scale(4.0128 .2492)" x="489.57" y="-1594.6"/>
  <text x="-3169" y="312.99">
    <tspan x="-3169" y="312.99"/>
  </text>
  <text transform="scale(4.0128 .2492)" x="-484.7" y="715.59"/>
  <text x="-1240.72" y="77.56">
    <tspan x="-1240.72" y="77.56"/>
  </text>
  <text transform="scale(4.0128 .2492)" x="-4.17" y="-229.14"/>
  <text x="-495.34" y="130.7">
    <tspan x="-495.34" y="130.7"/>
  </text>
  <text transform="scale(4.0128 .2492)" x="181.58" y="-15.889"/>
  <text x="404.27" y="6.884">
    <tspan x="404.27" y="6.884"/>
  </text>
  <text transform="scale(4.0128 .2492)" x="405.76" y="-512.75"/>
  <text x="-467.88" y="-45.754">
    <tspan x="-467.88" y="-45.754"/>
  </text>
  <text transform="scale(4.0128 .2492)" x="188.42" y="-723.97"/>
  <text x="431.74" y="-169.57">
    <tspan x="431.74" y="-169.57"/>
  </text>
  <text transform="scale(4.0128 .2492)" x="412.61" y="-1220.83"/>
  <text x="-3477.86" y="406.13">
    <tspan x="-3477.86" y="406.13"/>
  </text>
  <text transform="scale(4.0128 .2492)" x="-561.67" y="1089.36"/>
  <text x="-1955.29" y="-39.3">
    <tspan x="-1955.29" y="-39.3"/>
  </text>
  <text transform="scale(4.0128 .2492)" x="-182.24" y="-698.07"/>
  <text x="-1209.91" y="13.844">
    <tspan x="-1209.91" y="13.844"/>
  </text>
  <text transform="scale(4.0128 .2492)" x="3.507" y="-484.82"/>
  <text x="-310.3" y="-109.97">
    <tspan x="-310.3" y="-109.97"/>
  </text>
  <text transform="scale(4.0128 .2492)" x="227.69" y="-981.68"/>
  <text x="-1182.45" y="-162.61">
    <tspan x="-1182.45" y="-162.61"/>
  </text>
  <text transform="scale(4.0128 .2492)" x="10.351" y="-1192.9"/>
  <text x="-282.83" y="-286.43">
    <tspan x="-282.83" y="-286.43"/>
  </text>
  <text transform="scale(4.0128 .2492)" x="234.54" y="-1689.76"/>
  <text x="-4192.43" y="289.27">
    <tspan x="-4192.43" y="289.27"/>
  </text>
  <text transform="scale(4.0128 .2492)" x="-739.74" y="620.43"/>
  <g fill="#ffffff">
    <path d="m256 105.72c-82.998 0-150.28 67.28-150.28 150.28 0 75.55 55.763 138.08 128.38 148.69l-.094-2.469-2.719-71.75-27.469 57.844c-1.117-.437-2.235-.846-3.344-1.313-1.101-.462-2.19-.947-3.281-1.438-2.193-.988-4.319-2.02-6.469-3.125-1.063-.545-2.136-1.145-3.188-1.719-.009-.003-.024.003-.031 0-1.059-.578-2.078-1.143-3.125-1.75-2.1-1.218-4.17-2.478-6.219-3.813-1.021-.665-2.026-1.337-3.03-2.031-4.04-2.779-7.955-5.785-11.75-9.03-.942-.805-1.887-1.635-2.813-2.469-.005-.005-.026.005-.031 0-.931-.838-1.836-1.695-2.75-2.563-.914-.867-1.823-1.759-2.719-2.656-4.533-4.533-8.675-9.294-12.469-14.25-.631-.825-1.233-1.633-1.844-2.469-5.501-7.52-10.189-15.461-14.03-23.688l87.81-50.688c.322 1.399.722 2.788 1.188 4.156.155.456.298.892.469 1.344 1.369 3.618 3.257 7.07 5.656 10.281.299.4.592.796.906 1.188.949 1.18 1.968 2.311 3.063 3.406.876.876 1.789 1.686 2.719 2.469l-.531-10.938c-4.475-5.898-7.156-13.244-7.156-21.22 0-19.417 15.744-35.16 35.16-35.16 14.681 0 27.24 9 32.5 21.781 2.314-.427 4.61-.846 6.969-1.281-2.053-5.496-5.27-10.677-9.688-15.09-6.05-6.05-13.484-9.857-21.281-11.469l43.28-91.16c17.756 6.938 34.407 17.563 48.75 31.906 12.07 12.07 21.549 25.785 28.375 40.41l-73.62 42.5c31.89-5.866 65.05-11.953 86.59-16.06l4.438-.844c-15.579-66.38-75.17-115.81-146.31-115.81"/>
    <path d="m256 228.63c-14.427 0-26.23 11.158-27.28 25.313 2.407-.487 5.111-1.035 8.313-1.656 1.73-8.896 9.567-15.594 18.969-15.594 6.855 0 12.883 3.555 16.313 8.938 2.784-.517 5.443-.994 8.344-1.531-4.428-9.154-13.806-15.469-24.656-15.469"/>
  </g>
  <text x="-45.01" y="30.657">
    <tspan x="-45.01" y="30.657"/>
  </text>
  <text x="-2403.84" y="308.77">
    <tspan x="-2403.84" y="308.77"/>
  </text>
  <text x="-2115.62" y="81.49">
    <tspan x="-2115.62" y="81.49"/>
  </text>
  <text x="2078.98" y="-175.41">
    <tspan x="2078.98" y="-175.41"/>
  </text>
  <text x="-48.953" y="-30.377">
    <tspan x="-48.953" y="-30.377"/>
  </text>
  <text x="-2407.78" y="247.74">
    <tspan x="-2407.78" y="247.74"/>
  </text>
  <text x="-2119.57" y="20.454">
    <tspan x="-2119.57" y="20.454"/>
  </text>
  <g fill="#ffffff" fill-rule="evenodd" transform="matrix(.8221 0 0 .8221 116.75 -347.06)">
    <path d="m176.91 779.51l-26.682 24.532 4.046 106.91 203.67-5.719-4.945-130.66-176.09 4.944m13.11 49.2l126.03-3.539.281 7.424-126.03 3.539zm1 26.498l126.03-3.539.281 7.424-126.03 3.539z"/>
    <path d="m146.56 750.19l1.214 25.12 1.148 23.746 26.423-24.81.762-.716-29.547-23.338"/>
    <path d="m145.97 741.14l1.349 4.92 34.16 18.774-.59.815 171.3-31.982-8.092-29.519-198.13 36.991m42.01-4.552l21.928-4.094 14.1 22.755-21.929 4.094-14.1-22.755m53.4-9.97l21.928-4.094 14.1 22.755-21.928 4.094zm51.34-9.585l21.928-4.094 14.1 22.755-21.929 4.094-14.1-22.755"/>
  </g>
</svg>
