<svg height="512" viewBox="0 0 512 512" width="512" xmlns="http://www.w3.org/2000/svg">
  <text x="729.64" y="231.36">
    <tspan x="729.64" y="231.36"/>
  </text>
  <text transform="scale(4.0128 .2492)" x="378.91" y="579.25"/>
  <text x="1310.91" y="151.36">
    <tspan x="1310.91" y="151.36"/>
  </text>
  <text transform="scale(4.0128 .2492)" x="523.76" y="258.22"/>
  <text x="239.33" y="-29.901">
    <tspan x="239.33" y="-29.901"/>
  </text>
  <text transform="scale(4.0128 .2492)" x="256.72" y="-469.14"/>
  <text x="1337.38" y="-246.37">
    <tspan x="1337.38" y="-246.37"/>
  </text>
  <text transform="scale(4.0128 .2492)" x="530.36" y="-1337.81"/>
  <text x="1918.65" y="-326.38">
    <tspan x="1918.65" y="-326.38"/>
  </text>
  <text transform="scale(4.0128 .2492)" x="675.21" y="-1658.85"/>
  <text x="1529.53" y="-798.78">
    <tspan x="1529.53" y="-798.78"/>
  </text>
  <text transform="scale(4.0128 .2492)" x="578.24" y="-3554.51"/>
  <text x="2110.79" y="-878.78">
    <tspan x="2110.79" y="-878.78"/>
  </text>
  <text transform="scale(4.0128 .2492)" x="723.09" y="-3875.54"/>
  <text x="277.99" y="535.94">
    <tspan x="277.99" y="535.94"/>
  </text>
  <text x="-307.18" y="-11.341">
    <tspan x="-307.18" y="-11.341"/>
  </text>
  <text transform="scale(4.0128 .2492)" x="228.47" y="-585.88"/>
  <text x="438.2" y="41.802">
    <tspan x="438.2" y="41.802"/>
  </text>
  <text transform="scale(4.0128 .2492)" x="414.22" y="-372.63"/>
  <text x="1337.81" y="-82.02">
    <tspan x="1337.81" y="-82.02"/>
  </text>
  <text transform="scale(4.0128 .2492)" x="638.4" y="-869.49"/>
  <text x="465.66" y="-134.65">
    <tspan x="465.66" y="-134.65"/>
  </text>
  <text transform="scale(4.0128 .2492)" x="421.06" y="-1080.71"/>
  <text x="1365.27" y="-258.47">
    <tspan x="1365.27" y="-258.47"/>
  </text>
  <text transform="scale(4.0128 .2492)" x="645.24" y="-1577.57"/>
  <text x="-2544.32" y="317.23">
    <tspan x="-2544.32" y="317.23"/>
  </text>
  <text transform="scale(4.0128 .2492)" x="-329.03" y="732.62"/>
  <text x="-616.04" y="81.8">
    <tspan x="-616.04" y="81.8"/>
  </text>
  <text transform="scale(4.0128 .2492)" x="151.5" y="-212.12"/>
  <text x="129.34" y="134.94">
    <tspan x="129.34" y="134.94"/>
  </text>
  <text transform="scale(4.0128 .2492)" x="337.25" y="1.138"/>
  <text x="1028.95" y="11.127">
    <tspan x="1028.95" y="11.127"/>
  </text>
  <text transform="scale(4.0128 .2492)" x="561.43" y="-495.72"/>
  <text x="156.8" y="-41.51">
    <tspan x="156.8" y="-41.51"/>
  </text>
  <text transform="scale(4.0128 .2492)" x="344.09" y="-706.95"/>
  <text x="1056.42" y="-165.33">
    <tspan x="1056.42" y="-165.33"/>
  </text>
  <text transform="scale(4.0128 .2492)" x="568.28" y="-1203.81"/>
  <text x="-2853.18" y="410.37">
    <tspan x="-2853.18" y="410.37"/>
  </text>
  <text transform="scale(4.0128 .2492)" x="-406" y="1106.39"/>
  <text x="-1330.61" y="-35.06">
    <tspan x="-1330.61" y="-35.06"/>
  </text>
  <text transform="scale(4.0128 .2492)" x="-26.571" y="-681.04"/>
  <text x="-585.23" y="18.09">
    <tspan x="-585.23" y="18.09"/>
  </text>
  <text transform="scale(4.0128 .2492)" x="159.18" y="-467.79"/>
  <text x="314.38" y="-105.73">
    <tspan x="314.38" y="-105.73"/>
  </text>
  <text transform="scale(4.0128 .2492)" x="383.36" y="-964.65"/>
  <text x="-557.77" y="-158.37">
    <tspan x="-557.77" y="-158.37"/>
  </text>
  <text transform="scale(4.0128 .2492)" x="166.02" y="-1175.88"/>
  <text x="341.85" y="-282.18">
    <tspan x="341.85" y="-282.18"/>
  </text>
  <text transform="scale(4.0128 .2492)" x="390.2" y="-1672.73"/>
  <text x="-3567.75" y="293.52">
    <tspan x="-3567.75" y="293.52"/>
  </text>
  <text transform="scale(4.0128 .2492)" x="-584.07" y="637.46"/>
  <text x="729.64" y="231.36">
    <tspan x="729.64" y="231.36"/>
  </text>
  <text transform="scale(4.0128 .2492)" x="378.91" y="579.25"/>
  <text x="1310.91" y="151.36">
    <tspan x="1310.91" y="151.36"/>
  </text>
  <text transform="scale(4.0128 .2492)" x="523.76" y="258.22"/>
  <text x="239.33" y="-29.901">
    <tspan x="239.33" y="-29.901"/>
  </text>
  <text transform="scale(4.0128 .2492)" x="256.72" y="-469.14"/>
  <text x="1337.38" y="-246.37">
    <tspan x="1337.38" y="-246.37"/>
  </text>
  <text transform="scale(4.0128 .2492)" x="530.36" y="-1337.8"/>
  <text x="1918.65" y="-326.38">
    <tspan x="1918.65" y="-326.38"/>
  </text>
  <text transform="scale(4.0128 .2492)" x="675.21" y="-1658.84"/>
  <text x="1529.53" y="-798.78">
    <tspan x="1529.53" y="-798.78"/>
  </text>
  <text transform="scale(4.0128 .2492)" x="578.24" y="-3554.49"/>
  <text x="2110.79" y="-878.78">
    <tspan x="2110.79" y="-878.78"/>
  </text>
  <text transform="scale(4.0128 .2492)" x="723.09" y="-3875.52"/>
  <text x="277.99" y="535.94">
    <tspan x="277.99" y="535.94"/>
  </text>
  <text x="104.96" y="227.12">
    <tspan x="104.96" y="227.12"/>
  </text>
  <text transform="scale(4.0128 .2492)" x="223.24" y="562.23"/>
  <text x="686.23" y="147.11">
    <tspan x="686.23" y="147.11"/>
  </text>
  <text transform="scale(4.0128 .2492)" x="368.09" y="241.19"/>
  <text x="-385.35" y="-34.14">
    <tspan x="-385.35" y="-34.14"/>
  </text>
  <text transform="scale(4.0128 .2492)" x="101.05" y="-486.16"/>
  <text x="712.7" y="-250.62">
    <tspan x="712.7" y="-250.62"/>
  </text>
  <text transform="scale(4.0128 .2492)" x="374.69" y="-1354.84"/>
  <text x="1293.97" y="-330.62">
    <tspan x="1293.97" y="-330.62"/>
  </text>
  <text transform="scale(4.0128 .2492)" x="519.54" y="-1675.87"/>
  <text x="904.85" y="-803.02">
    <tspan x="904.85" y="-803.02"/>
  </text>
  <text transform="scale(4.0128 .2492)" x="422.57" y="-3571.53"/>
  <text x="1486.12" y="-883.02">
    <tspan x="1486.12" y="-883.02"/>
  </text>
  <text transform="scale(4.0128 .2492)" x="567.42" y="-3892.57"/>
  <text x="-346.69" y="531.69">
    <tspan x="-346.69" y="531.69"/>
  </text>
  <text x="-931.86" y="-15.584">
    <tspan x="-931.86" y="-15.584"/>
  </text>
  <text transform="scale(4.0128 .2492)" x="72.797" y="-602.91"/>
  <text x="-186.48" y="37.559">
    <tspan x="-186.48" y="37.559"/>
  </text>
  <text transform="scale(4.0128 .2492)" x="258.55" y="-389.66"/>
  <text x="713.13" y="-86.26">
    <tspan x="713.13" y="-86.26"/>
  </text>
  <text transform="scale(4.0128 .2492)" x="482.73" y="-886.51"/>
  <text x="-159.02" y="-138.9">
    <tspan x="-159.02" y="-138.9"/>
  </text>
  <text transform="scale(4.0128 .2492)" x="265.39" y="-1097.74"/>
  <text x="740.6" y="-262.71">
    <tspan x="740.6" y="-262.71"/>
  </text>
  <text transform="scale(4.0128 .2492)" x="489.57" y="-1594.6"/>
  <text x="-3169" y="312.99">
    <tspan x="-3169" y="312.99"/>
  </text>
  <text transform="scale(4.0128 .2492)" x="-484.7" y="715.59"/>
  <text x="-1240.72" y="77.56">
    <tspan x="-1240.72" y="77.56"/>
  </text>
  <text transform="scale(4.0128 .2492)" x="-4.17" y="-229.14"/>
  <text x="-495.34" y="130.7">
    <tspan x="-495.34" y="130.7"/>
  </text>
  <text transform="scale(4.0128 .2492)" x="181.58" y="-15.889"/>
  <text x="404.27" y="6.884">
    <tspan x="404.27" y="6.884"/>
  </text>
  <text transform="scale(4.0128 .2492)" x="405.76" y="-512.75"/>
  <text x="-467.88" y="-45.754">
    <tspan x="-467.88" y="-45.754"/>
  </text>
  <text transform="scale(4.0128 .2492)" x="188.42" y="-723.97"/>
  <text x="431.74" y="-169.57">
    <tspan x="431.74" y="-169.57"/>
  </text>
  <text transform="scale(4.0128 .2492)" x="412.61" y="-1220.83"/>
  <text x="-3477.86" y="406.13">
    <tspan x="-3477.86" y="406.13"/>
  </text>
  <text transform="scale(4.0128 .2492)" x="-561.67" y="1089.36"/>
  <text x="-1955.29" y="-39.3">
    <tspan x="-1955.29" y="-39.3"/>
  </text>
  <text transform="scale(4.0128 .2492)" x="-182.24" y="-698.07"/>
  <text x="-1209.91" y="13.844">
    <tspan x="-1209.91" y="13.844"/>
  </text>
  <text transform="scale(4.0128 .2492)" x="3.507" y="-484.82"/>
  <text x="-310.3" y="-109.97">
    <tspan x="-310.3" y="-109.97"/>
  </text>
  <text transform="scale(4.0128 .2492)" x="227.69" y="-981.68"/>
  <text x="-1182.45" y="-162.61">
    <tspan x="-1182.45" y="-162.61"/>
  </text>
  <text transform="scale(4.0128 .2492)" x="10.351" y="-1192.9"/>
  <text x="-282.83" y="-286.43">
    <tspan x="-282.83" y="-286.43"/>
  </text>
  <text transform="scale(4.0128 .2492)" x="234.54" y="-1689.76"/>
  <text x="-4192.43" y="289.27">
    <tspan x="-4192.43" y="289.27"/>
  </text>
  <text transform="scale(4.0128 .2492)" x="-739.74" y="620.43"/>
  <text x="729.64" y="231.36">
    <tspan x="729.64" y="231.36"/>
  </text>
  <text transform="scale(4.0128 .2492)" x="378.91" y="579.25"/>
  <text x="1310.91" y="151.36">
    <tspan x="1310.91" y="151.36"/>
  </text>
  <text transform="scale(4.0128 .2492)" x="523.76" y="258.22"/>
  <text x="239.33" y="-29.901">
    <tspan x="239.33" y="-29.901"/>
  </text>
  <text transform="scale(4.0128 .2492)" x="256.72" y="-469.14"/>
  <text x="1337.38" y="-246.37">
    <tspan x="1337.38" y="-246.37"/>
  </text>
  <text transform="scale(4.0128 .2492)" x="530.36" y="-1337.8"/>
  <text x="1918.65" y="-326.38">
    <tspan x="1918.65" y="-326.38"/>
  </text>
  <text transform="scale(4.0128 .2492)" x="675.21" y="-1658.84"/>
  <text x="1529.53" y="-798.78">
    <tspan x="1529.53" y="-798.78"/>
  </text>
  <text transform="scale(4.0128 .2492)" x="578.24" y="-3554.49"/>
  <text x="2110.79" y="-878.78">
    <tspan x="2110.79" y="-878.78"/>
  </text>
  <text transform="scale(4.0128 .2492)" x="723.09" y="-3875.52"/>
  <text x="277.99" y="535.94">
    <tspan x="277.99" y="535.94"/>
  </text>
  <text x="-307.18" y="-11.341">
    <tspan x="-307.18" y="-11.341"/>
  </text>
  <text transform="scale(4.0128 .2492)" x="228.47" y="-585.88"/>
  <text x="438.2" y="41.802">
    <tspan x="438.2" y="41.802"/>
  </text>
  <text transform="scale(4.0128 .2492)" x="414.22" y="-372.63"/>
  <text x="1337.81" y="-82.02">
    <tspan x="1337.81" y="-82.02"/>
  </text>
  <text transform="scale(4.0128 .2492)" x="638.4" y="-869.49"/>
  <text x="465.66" y="-134.65">
    <tspan x="465.66" y="-134.65"/>
  </text>
  <text transform="scale(4.0128 .2492)" x="421.06" y="-1080.7"/>
  <text x="1365.27" y="-258.47">
    <tspan x="1365.27" y="-258.47"/>
  </text>
  <text transform="scale(4.0128 .2492)" x="645.24" y="-1577.56"/>
  <text x="-2544.32" y="317.23">
    <tspan x="-2544.32" y="317.23"/>
  </text>
  <text transform="scale(4.0128 .2492)" x="-329.03" y="732.62"/>
  <text x="-616.04" y="81.8">
    <tspan x="-616.04" y="81.8"/>
  </text>
  <text transform="scale(4.0128 .2492)" x="151.5" y="-212.12"/>
  <text x="129.34" y="134.94">
    <tspan x="129.34" y="134.94"/>
  </text>
  <text transform="scale(4.0128 .2492)" x="337.25" y="1.138"/>
  <text x="1028.95" y="11.127">
    <tspan x="1028.95" y="11.127"/>
  </text>
  <text transform="scale(4.0128 .2492)" x="561.43" y="-495.72"/>
  <text x="156.8" y="-41.51">
    <tspan x="156.8" y="-41.51"/>
  </text>
  <text transform="scale(4.0128 .2492)" x="344.09" y="-706.95"/>
  <text x="1056.42" y="-165.33">
    <tspan x="1056.42" y="-165.33"/>
  </text>
  <text transform="scale(4.0128 .2492)" x="568.28" y="-1203.8"/>
  <text x="-2853.18" y="410.37">
    <tspan x="-2853.18" y="410.37"/>
  </text>
  <text transform="scale(4.0128 .2492)" x="-406" y="1106.38"/>
  <text x="-1330.61" y="-35.06">
    <tspan x="-1330.61" y="-35.06"/>
  </text>
  <text transform="scale(4.0128 .2492)" x="-26.571" y="-681.04"/>
  <text x="-585.23" y="18.09">
    <tspan x="-585.23" y="18.09"/>
  </text>
  <text transform="scale(4.0128 .2492)" x="159.18" y="-467.79"/>
  <text x="314.38" y="-105.73">
    <tspan x="314.38" y="-105.73"/>
  </text>
  <text transform="scale(4.0128 .2492)" x="383.36" y="-964.65"/>
  <text x="-557.77" y="-158.37">
    <tspan x="-557.77" y="-158.37"/>
  </text>
  <text transform="scale(4.0128 .2492)" x="166.02" y="-1175.87"/>
  <text x="341.85" y="-282.18">
    <tspan x="341.85" y="-282.18"/>
  </text>
  <text transform="scale(4.0128 .2492)" x="390.2" y="-1672.72"/>
  <text x="-3567.75" y="293.52">
    <tspan x="-3567.75" y="293.52"/>
  </text>
  <text transform="scale(4.0128 .2492)" x="-584.07" y="637.46"/>
  <path d="m471.95 253.05c0 120.9-98.01 218.9-218.9 218.9-120.9 0-218.9-98.01-218.9-218.9 0-120.9 98.01-218.9 218.9-218.9 120.9 0 218.9 98.01 218.9 218.9" fill="#1793d1" fill-rule="evenodd"/>
  <path d="m371.88 134.88c-4.715.05-10.284.95-14.281.281h-224.62v83.5c1.656 2.138 13.6 9.175 5.125 8.781-9.977-1.563-3.107 13.698-5.125 20.09v63.41c4.491 2.759 6.963 7.537 11.438 10.313 2.772 4.478 7.556 6.944 10.313 11.438 4.503 2.737 6.924 7.555 11.438 10.281 3.901 4.675 1.148 15.996 1.969 23.75-1.501 9.07 2.059 13.09 6.875 15.844 2.726 4.513 7.544 6.935 10.281 11.438 4.496 2.754 6.959 7.541 11.438 10.313 2.776 4.474 7.553 6.947 10.313 11.438 4.491 2.759 6.963 7.537 11.438 10.313 2.772 4.478 7.556 6.944 10.313 11.438 4.503 2.737 6.924 7.555 11.438 10.281 2.729 4.511 7.543 6.937 10.281 11.438 4.512 2.748 6.947 7.574 11.469 10.313.47.779 1.021 1.481 1.594 2.156 116.01-5.488 208.38-101.25 208.38-218.62 0-8.8-.522-17.502-1.531-26.03-.996-.963-2.04-1.876-3.25-2.625-2.776-4.474-7.553-6.947-10.313-11.438-4.494-2.756-6.96-7.54-11.438-10.313-2.771-4.479-7.558-6.942-10.313-11.438-4.503-2.737-6.924-7.555-11.438-10.281-2.729-4.511-7.542-6.937-10.281-11.438-4.512-2.748-6.947-7.574-11.469-10.313-2.726-4.513-7.544-6.935-10.281-11.438-4.496-2.754-6.959-7.541-11.438-10.313-1.504-2.125-4.645-2.601-8.313-2.563" fill-opacity=".235"/>
  <g fill-rule="evenodd">
    <path d="m256 1c-140.83 0-255 114.17-255 255s114.17 255 255 255 255-114.17 255-255-114.17-255-255-255m8.827 44.931c120.9 0 218.9 98 218.9 218.9s-98 218.9-218.9 218.9-218.93-98-218.93-218.9 98.03-218.9 218.93-218.9" fill-opacity=".067"/>
    <g fill-opacity=".129">
      <path d="m256 4.433c-138.94 0-251.57 112.63-251.57 251.57s112.63 251.57 251.57 251.57 251.57-112.63 251.57-251.57-112.63-251.57-251.57-251.57m5.885 38.556c120.9 0 218.9 98 218.9 218.9s-98 218.9-218.9 218.9-218.93-98-218.93-218.9 98.03-218.9 218.93-218.9"/>
      <path d="m256 8.356c-136.77 0-247.64 110.87-247.64 247.64s110.87 247.64 247.64 247.64 247.64-110.87 247.64-247.64-110.87-247.64-247.64-247.64m2.942 31.691c120.9 0 218.9 98 218.9 218.9s-98 218.9-218.9 218.9-218.93-98-218.93-218.9 98.03-218.9 218.93-218.9"/>
    </g>
    <path d="m253.04 7.859c-135.42 0-245.19 109.78-245.19 245.19 0 135.42 109.78 245.19 245.19 245.19 135.42 0 245.19-109.78 245.19-245.19 0-135.42-109.78-245.19-245.19-245.19zm0 26.297c120.9 0 218.9 98 218.9 218.9s-98 218.9-218.9 218.9-218.93-98-218.93-218.9 98.03-218.9 218.93-218.9z" fill="#ffffff" stroke="#000000" stroke-opacity=".31" stroke-width="4.904"/>
  </g>
  <text x="729.64" y="231.36">
    <tspan x="729.64" y="231.36"/>
  </text>
  <text transform="scale(4.0128 .2492)" x="378.91" y="579.25"/>
  <text x="1310.91" y="151.36">
    <tspan x="1310.91" y="151.36"/>
  </text>
  <text transform="scale(4.0128 .2492)" x="523.76" y="258.22"/>
  <text x="239.33" y="-29.901">
    <tspan x="239.33" y="-29.901"/>
  </text>
  <text transform="scale(4.0128 .2492)" x="256.72" y="-469.14"/>
  <text x="1337.38" y="-246.37">
    <tspan x="1337.38" y="-246.37"/>
  </text>
  <text transform="scale(4.0128 .2492)" x="530.36" y="-1337.79"/>
  <text x="1918.65" y="-326.38">
    <tspan x="1918.65" y="-326.38"/>
  </text>
  <text transform="scale(4.0128 .2492)" x="675.21" y="-1658.83"/>
  <text x="1529.53" y="-798.78">
    <tspan x="1529.53" y="-798.78"/>
  </text>
  <text transform="scale(4.0128 .2492)" x="578.24" y="-3554.47"/>
  <text x="2110.79" y="-878.78">
    <tspan x="2110.79" y="-878.78"/>
  </text>
  <text transform="scale(4.0128 .2492)" x="723.09" y="-3875.5"/>
  <text x="277.99" y="535.94">
    <tspan x="277.99" y="535.94"/>
  </text>
  <text x="104.96" y="227.12">
    <tspan x="104.96" y="227.12"/>
  </text>
  <text transform="scale(4.0128 .2492)" x="223.24" y="562.23"/>
  <text x="686.23" y="147.11">
    <tspan x="686.23" y="147.11"/>
  </text>
  <text transform="scale(4.0128 .2492)" x="368.09" y="241.19"/>
  <text x="-385.35" y="-34.14">
    <tspan x="-385.35" y="-34.14"/>
  </text>
  <text transform="scale(4.0128 .2492)" x="101.05" y="-486.16"/>
  <text x="712.7" y="-250.62">
    <tspan x="712.7" y="-250.62"/>
  </text>
  <text transform="scale(4.0128 .2492)" x="374.69" y="-1354.83"/>
  <text x="1293.97" y="-330.62">
    <tspan x="1293.97" y="-330.62"/>
  </text>
  <text transform="scale(4.0128 .2492)" x="519.54" y="-1675.86"/>
  <text x="904.85" y="-803.02">
    <tspan x="904.85" y="-803.02"/>
  </text>
  <text transform="scale(4.0128 .2492)" x="422.57" y="-3571.51"/>
  <text x="1486.12" y="-883.02">
    <tspan x="1486.12" y="-883.02"/>
  </text>
  <text transform="scale(4.0128 .2492)" x="567.42" y="-3892.55"/>
  <text x="-346.69" y="531.69">
    <tspan x="-346.69" y="531.69"/>
  </text>
  <text x="-931.86" y="-15.584">
    <tspan x="-931.86" y="-15.584"/>
  </text>
  <text transform="scale(4.0128 .2492)" x="72.797" y="-602.91"/>
  <text x="-186.48" y="37.559">
    <tspan x="-186.48" y="37.559"/>
  </text>
  <text transform="scale(4.0128 .2492)" x="258.55" y="-389.66"/>
  <text x="713.13" y="-86.26">
    <tspan x="713.13" y="-86.26"/>
  </text>
  <text transform="scale(4.0128 .2492)" x="482.73" y="-886.51"/>
  <text x="-159.02" y="-138.9">
    <tspan x="-159.02" y="-138.9"/>
  </text>
  <text transform="scale(4.0128 .2492)" x="265.39" y="-1097.73"/>
  <text x="740.6" y="-262.71">
    <tspan x="740.6" y="-262.71"/>
  </text>
  <text transform="scale(4.0128 .2492)" x="489.57" y="-1594.59"/>
  <text x="-3169" y="312.99">
    <tspan x="-3169" y="312.99"/>
  </text>
  <text transform="scale(4.0128 .2492)" x="-484.7" y="715.59"/>
  <text x="-1240.72" y="77.56">
    <tspan x="-1240.72" y="77.56"/>
  </text>
  <text transform="scale(4.0128 .2492)" x="-4.17" y="-229.14"/>
  <text x="-495.34" y="130.7">
    <tspan x="-495.34" y="130.7"/>
  </text>
  <text transform="scale(4.0128 .2492)" x="181.58" y="-15.889"/>
  <text x="404.27" y="6.884">
    <tspan x="404.27" y="6.884"/>
  </text>
  <text transform="scale(4.0128 .2492)" x="405.76" y="-512.75"/>
  <text x="-467.88" y="-45.754">
    <tspan x="-467.88" y="-45.754"/>
  </text>
  <text transform="scale(4.0128 .2492)" x="188.42" y="-723.97"/>
  <text x="431.74" y="-169.57">
    <tspan x="431.74" y="-169.57"/>
  </text>
  <text transform="scale(4.0128 .2492)" x="412.61" y="-1220.82"/>
  <text x="-3477.86" y="406.13">
    <tspan x="-3477.86" y="406.13"/>
  </text>
  <text transform="scale(4.0128 .2492)" x="-561.67" y="1089.35"/>
  <text x="-1955.29" y="-39.3">
    <tspan x="-1955.29" y="-39.3"/>
  </text>
  <text transform="scale(4.0128 .2492)" x="-182.24" y="-698.07"/>
  <text x="-1209.91" y="13.844">
    <tspan x="-1209.91" y="13.844"/>
  </text>
  <text transform="scale(4.0128 .2492)" x="3.507" y="-484.82"/>
  <text x="-310.3" y="-109.97">
    <tspan x="-310.3" y="-109.97"/>
  </text>
  <text transform="scale(4.0128 .2492)" x="227.69" y="-981.67"/>
  <text x="-1182.45" y="-162.61">
    <tspan x="-1182.45" y="-162.61"/>
  </text>
  <text transform="scale(4.0128 .2492)" x="10.351" y="-1192.89"/>
  <text x="-282.83" y="-286.43">
    <tspan x="-282.83" y="-286.43"/>
  </text>
  <text transform="scale(4.0128 .2492)" x="234.54" y="-1689.75"/>
  <text x="-4192.43" y="289.27">
    <tspan x="-4192.43" y="289.27"/>
  </text>
  <text transform="scale(4.0128 .2492)" x="-739.74" y="620.43"/>
  <g fill="#ffffff" transform="matrix(4.3943 0 0 4.3943 115.38 113.19)">
    <path d="m20 39h23v3h-23z"/>
    <path d="m43 35v-3h-23v3z"/>
    <path d="m20 46h23v3h-23z"/>
    <path d="m4 24h8v2h-8v19h8v15h39v-15h9v-19h-9v-2h9v-19h-56zm8 10h-3v-2h3zm36-8v31h-33v-33h33zm8 6v2h-5v-2zm-47-23h47v2h-47z"/>
  </g>
</svg>
