<?xml version="1.0" encoding="UTF-8" standalone="no"?>
<svg xmlns="http://www.w3.org/2000/svg" height="512" width="512" version="1.1" viewBox="0 0 512 512">
 <path style="fill:#ecc671;fill-rule:evenodd;fill-opacity:1" d="m 474.11949,253.05 c 0,120.9 -98.01,218.91 -218.91,218.91 -120.9,0 -218.909998,-98.01 -218.909998,-218.91 0,-120.9 98.009998,-218.91 218.909998,-218.91 120.9,0 218.91,98.01 218.91,218.91"/>
 <path style="fill-opacity:0.23500001;fill-rule:evenodd" d="m 250.81,104.44 c -25.21,0.891 -39.757,27.511 -62.781,36.16 -21.483,14.509 -51.994,21.625 -70.75,34.438 2.813,67.837 25.64,135.85 67.16,189.84 33.23,35.867 68.71,69.64 103.16,104.38 104.48,-16.57 184.34,-107.05 184.34,-216.19 0,-1.221 -0.011,-2.44 -0.031,-3.656 -2.319,-2.422 -4.603,-4.855 -7.344,-6.969 -3.672,-4.845 -8.938,-8.512 -12.594,-13.375 -5.127,-3.905 -8.614,-9.04 -13.75,-12.938 -3.628,-4.881 -8.923,-8.505 -12.563,-13.375 -5.126,-3.905 -8.612,-9.04 -13.75,-12.938 -3.638,-4.888 -8.95,-8.532 -12.594,-13.406 -10.418,-9.683 -32.16,-12.181 -46.44,-20.969 -27.805,-12.164 -53.29,-29.32 -76.62,-48.19 -6.518,-2.101 -13.445,-2.559 -20.25,-2.625 -1.781,-0.182 -3.507,-0.247 -5.188,-0.188"/>
 <path style="fill-opacity:0.06700003;fill-rule:evenodd" d="M 256,1 C 115.17,1 1,115.17 1,256 1,396.83 115.17,511 256,511 396.83,511 511,396.83 511,256 511,115.17 396.83,1 256,1 m 8.827,44.931 c 120.9,0 218.9,98 218.9,218.9 0,120.9 -98,218.9 -218.9,218.9 -120.9,0 -218.93,-98 -218.93,-218.9 0,-120.9 98.03,-218.9 218.93,-218.9"/>
 <g style="fill-opacity:0.12900002;fill-rule:evenodd">
  <path d="M 256,4.43 C 117.06,4.43 4.43,117.06 4.43,256 4.43,394.94 117.06,507.57 256,507.57 394.94,507.57 507.57,394.94 507.57,256 507.57,117.06 394.94,4.43 256,4.43 m 5.885,38.556 c 120.9,0 218.9,98 218.9,218.9 0,120.9 -98,218.9 -218.9,218.9 -120.9,0 -218.93,-98 -218.93,-218.9 0,-120.9 98.03,-218.9 218.93,-218.9"/>
  <path d="M 256,8.36 C 119.23,8.36 8.36,119.23 8.36,256 8.36,392.77 119.23,503.64 256,503.64 392.77,503.64 503.64,392.77 503.64,256 503.64,119.23 392.77,8.36 256,8.36 m 2.942,31.691 c 120.9,0 218.9,98 218.9,218.9 0,120.9 -98,218.9 -218.9,218.9 -120.9,0 -218.93,-98 -218.93,-218.9 0,-120.9 98.03,-218.9 218.93,-218.9"/>
 </g>
 <path style="fill:#ffffff;fill-rule:evenodd;stroke:#000000;stroke-width:4.90399981;stroke-opacity:0.31000001" d="M 253.04,7.86 C 117.62,7.86 7.85,117.64 7.85,253.05 c 0,135.42 109.78,245.19 245.19,245.19 135.42,0 245.19,-109.78 245.19,-245.19 C 498.23,117.63 388.45,7.86 253.04,7.86 Z m 0,26.297 c 120.9,0 218.9,98 218.9,218.9 0,120.9 -98,218.9 -218.9,218.9 -120.9,0 -218.93,-98 -218.93,-218.9 0,-120.9 98.03,-218.9 218.93,-218.9 z"/>
 <text font-size="129.23" line-height="125%" y="231.36" x="729.64" font-family="Gentium Book Basic" word-spacing="0" letter-spacing="0">
  
 </text>
 <text font-size="129.23" line-height="125%" y="151.36" x="1310.91" font-family="Gentium Book Basic" word-spacing="0" letter-spacing="0">
  
 </text>
 <text font-size="129.23" line-height="125%" y="-29.9" x="239.33" font-family="Gentium Book Basic" word-spacing="0" letter-spacing="0">
  
 </text>
 <text font-size="129.23" line-height="125%" y="-246.37" x="1337.38" font-family="Gentium Book Basic" word-spacing="0" letter-spacing="0">
  
 </text>
 <text font-size="129.23" line-height="125%" y="-326.37" x="1918.65" font-family="Gentium Book Basic" word-spacing="0" letter-spacing="0">
  
 </text>
 <text font-size="129.23" line-height="125%" y="-798.77" x="1529.53" font-family="Gentium Book Basic" word-spacing="0" letter-spacing="0">
  
 </text>
 <text font-size="129.23" line-height="125%" y="-878.78" x="2110.79" font-family="Gentium Book Basic" word-spacing="0" letter-spacing="0">
  
 </text>
 <text font-size="208.33" line-height="125%" y="535.94" x="277.99" font-family="Gentium Book Basic" word-spacing="0" letter-spacing="0">
  
 </text>
 <path fill="#fff" d="m256 104.63c-10.1 0-20.2 1.562-24.438 4.656-29.871 29.858-92.47 56.49-114.31 62.56 0 93.78 62.925 235.53 138.75 235.53 75.66 0 138.75-141.75 138.75-235.53-21.844-6.072-84.44-32.704-114.31-62.56-4.237-3.096-14.337-4.657-24.438-4.656m72.344 70.438a13.945 13.945 0 0 1 9.5625 24.156c-44.861 40.583-72.47 82.969-95.53 129.97a13.945 13.945 0 0 1 -22.938 3.0312l-46.25-53.688a13.945 13.945 0 0 1 17.562 -21.25l29.03 16.531c30.937-41.26 65.5-75.11 99.25-94.84 0.119-0.108 0.183-0.225 0.313-0.344 0.767-0.443 1.608-1.255 2.375-1.688a13.945 13.945 0 0 1 4.375 -1.6875 13.945 13.945 0 0 1 2.25 -0.1875" fill-rule="evenodd"/>
 <text font-size="129.23" line-height="125%" y="105.38" x="126.94" font-family="Gentium Book Basic" word-spacing="0" letter-spacing="0">
  
 </text>
 <text font-size="129.23" line-height="125%" y="25.38" x="708.21" font-family="Gentium Book Basic" word-spacing="0" letter-spacing="0">
  
 </text>
 <text font-size="129.23" line-height="125%" y="-155.88" x="-363.37" font-family="Gentium Book Basic" word-spacing="0" letter-spacing="0">
  
 </text>
 <text font-size="129.23" line-height="125%" y="-372.35" x="734.68" font-family="Gentium Book Basic" word-spacing="0" letter-spacing="0">
  
 </text>
 <text font-size="129.23" line-height="125%" y="-452.35" x="1315.95" font-family="Gentium Book Basic" word-spacing="0" letter-spacing="0">
  
 </text>
 <text font-size="129.23" line-height="125%" y="-924.75" x="926.83" font-family="Gentium Book Basic" word-spacing="0" letter-spacing="0">
  
 </text>
 <text font-size="129.23" line-height="125%" y="-1004.76" x="1508.09" font-family="Gentium Book Basic" word-spacing="0" letter-spacing="0">
  
 </text>
 <g font-family="Gentium Book Basic" line-height="125%" word-spacing="0" letter-spacing="0">
  <text y="409.96" x="-324.71" font-size="208.33">
   
  </text>
  <text y="1187.11" x="-28046.81" font-size="4848.4">
   
  </text>
 </g>
 <text font-size="4848.4" line-height="125%" y="2099.17" x="-28181.55" font-family="Gentium Book Basic" word-spacing="0" letter-spacing="0">
  
 </text>
 <g fill="#555753" transform="matrix(23.273 0 0 23.273 -918.71 -198.08)">
  <text transform="scale(1.0508 .95163)" line-height="125%" font-size="127.88" y="-204.06" x="-549.96" font-family="Gentium Book Basic" word-spacing="0" letter-spacing="0">
   
  </text>
  <text transform="scale(1.0508 .95163)" line-height="125%" font-size="68.46" y="-239.51" x="-145.93" font-family="Gentium Book Basic" word-spacing="0" letter-spacing="0">
   
  </text>
  <text font-size="200" line-height="125%" y="-74.27" x="-1695.66" font-family="Gentium Book Basic" word-spacing="0" letter-spacing="0">
   
  </text>
 </g>
 <g transform="matrix(23.273 0 0 23.273 -918.71 -198.08)">
  <g>
   <text font-size="208.33" line-height="125%" stroke="#cd1d31" y="-599.63" x="-1086.23" font-family="Gentium Book Basic" word-spacing="0" letter-spacing="0">
    
   </text>
   <text font-size="208.33" line-height="125%" stroke="#cd1d31" y="-560.44" x="-1092.03" font-family="Gentium Book Basic" word-spacing="0" letter-spacing="0">
    
   </text>
  </g>
  <g fill="#555753">
   <g stroke="#cd1d31">
    <text transform="scale(1.0508 .95163)" line-height="125%" font-size="127.88" y="-896.71" x="-474.37" font-family="Gentium Book Basic" word-spacing="0" letter-spacing="0">
     
    </text>
    <text transform="scale(1.0508 .95163)" line-height="125%" font-size="68.46" y="-932.16" x="-70.35" font-family="Gentium Book Basic" word-spacing="0" letter-spacing="0">
     
    </text>
    <text font-size="200" line-height="125%" y="-733.42" x="-1616.23" font-family="Gentium Book Basic" word-spacing="0" letter-spacing="0">
     
    </text>
   </g>
  </g>
  <g>
   <text font-size="200" line-height="125%" stroke="#cd1d31" y="-887.07" x="-356.8" font-family="Gentium Book Basic" word-spacing="0" letter-spacing="0">
    
   </text>
   <text font-size="200" line-height="125%" stroke="#cd1d31" y="-1010.89" x="542.82" font-family="Gentium Book Basic" word-spacing="0" letter-spacing="0">
    
   </text>
  </g>
  <g fill="#555753">
   <text font-size="200" line-height="125%" stroke="#555753" y="-21.43" x="90.92" font-family="Gentium Book Basic" word-spacing="0" letter-spacing="0">
    
   </text>
   <text font-size="200" line-height="125%" stroke="#555753" y="31.71" x="836.3" font-family="Gentium Book Basic" word-spacing="0" letter-spacing="0">
    
   </text>
   <text font-size="200" line-height="125%" stroke="#555753" y="-92.11" x="1735.91" font-family="Gentium Book Basic" word-spacing="0" letter-spacing="0">
    
   </text>
   <text font-size="200" line-height="125%" stroke="#555753" y="-144.75" x="863.76" font-family="Gentium Book Basic" word-spacing="0" letter-spacing="0">
    
   </text>
   <text font-size="200" line-height="125%" stroke="#555753" y="-268.56" x="1763.38" font-family="Gentium Book Basic" word-spacing="0" letter-spacing="0">
    
   </text>
   <text font-size="200" line-height="125%" stroke="#555753" y="307.14" x="-2146.22" font-family="Gentium Book Basic" word-spacing="0" letter-spacing="0">
    
   </text>
  </g>
 </g>
</svg>
