<?xml version="1.0" encoding="UTF-8" standalone="no"?>
<svg xmlns="http://www.w3.org/2000/svg" height="513" width="512" version="1.1">
 <path d="m33.692795 71.733047h183.68008v44.56144h-183.68008z" fill="#c32c2c" fill-rule="evenodd"/>
 <path d="m8.6949148 115.20763h493.43646v326.0593h-493.43646z" fill="#3a3a3a" fill-rule="evenodd"/>
 <g style="fill:#c32c2c" transform="matrix(8.5,0,0,8.5837823,319.31356,255.55131)">
  <path style="fill-rule:evenodd" d="M 11,2 C 6.3731,2 2.5674,5.508 2.0625,10 L 0,10 3,14 6,10 4.0938,10 C 4.581,6.61 7.4752,4 11,4 c 3.866,0 7,3.134 7,7 0,3.866 -3.134,7 -7,7 -2.1871,0 -4.121,-1.0257 -5.4062,-2.5938 l -1.4375,1.4375 c 1.6431,1.933 4.1035,3.156 6.8437,3.156 4.9706,0 9,-4.0294 9,-9 0,-4.9706 -4.0294,-9 -9,-9 z"/>
  <path d="m 10,6 0,5.5 3.6875,3.375 0.687,-0.687 -3.375,-3.188 0,-5 -1,0 z"/>
 </g>
</svg>
