<svg viewBox="0 0 16 16" xmlns="http://www.w3.org/2000/svg">
 <path d="m6 2l-4 4v4l4 4v-5l1-1-1-1z" fill="#ffedb5"/>
 <path d="m1.3 5c-1.083 0-1.3 1.163-1.3 2.4v1.2c0 1.237.243 2.4 1.3 2.4h1.7v-6" fill="#ffedb5"/>
 <path d="m13.14 1l-1.414 1.414c1.082 1.082 2.264 3.033 2.274 5.586 0 2.551-1.193 4.506-2.274 5.586l1.414 1.414c1.455-1.455 2.879-4 2.859-7 .035-3-1.405-5.546-2.859-7" fill="#aaaaaa"/>
 <path d="m11 3.116l-1.41 1.41c.783.783 1.41 2.043 1.41 3.474 0 1.431-.627 2.691-1.41 3.474l1.41 1.41c1.276-1.276 2-3.03 2-4.884 0-1.846-.727-3.611-2-4.884" fill="#aaaaaa" fill-rule="evenodd"/>
 <path d="m8.629 5l-1.42 1.41c.791.647.791 1.396.791 1.59 0 .193-.018.941-.791 1.59l1.42 1.41c1.218-1.047 1.371-2.402 1.371-3 0-.6-.146-1.937-1.371-3" fill="#aaaaaa" fill-rule="evenodd"/>
</svg>
