<svg viewBox="0 0 24 24" xmlns="http://www.w3.org/2000/svg">
 <path d="m4 2c-1.108 0-2 .892-2 2v16c0 1.108.892 2 2 2h16c1.108 0 2-.892 2-2v-16c0-1.108-.892-2-2-2zm2.818 5.588h1.574v8.662h-1.574zm5.02.15v1.975h2.326v1.262h-2.326v2.662c0 .525.083.9.25 1.125.167.225.452.338.852.338.275 0 .516-.03.725-.088.217-.058.387-.112.512-.162l.25 1.201c-.175.075-.404.15-.688.225-.283.083-.617.125-1 .125-.467 0-.857-.063-1.174-.188-.308-.125-.555-.304-.738-.537-.183-.242-.312-.53-.387-.863-.075-.342-.113-.729-.113-1.162v-5.662l1.512-.25zm3.619 6.68h2.213v.639h-1.568c-.004.071-.011.152-.02.244-.004.088-.011.176-.02.268-.004.092-.009.18-.018.264-.008.083-.017.153-.025.211.617.033 1.072.176 1.363.426.296.246.443.583.443 1.012 0 .196-.033.378-.1.545-.067.167-.169.311-.307.432-.137.121-.311.216-.52.287-.208.067-.451.1-.73.1-.113 0-.227-.009-.344-.025-.117-.017-.23-.038-.338-.063-.104-.021-.198-.043-.281-.068-.083-.025-.146-.048-.188-.068l.145-.639c.088.042.213.089.375.139.167.046.368.068.605.068.163 0 .301-.017.418-.051.117-.038.21-.086.281-.148.075-.063.131-.134.164-.213.033-.083.049-.172.049-.264 0-.137-.026-.259-.08-.367-.054-.108-.152-.2-.289-.275-.133-.075-.314-.132-.543-.17-.225-.038-.51-.055-.855-.055.046-.4.08-.78.105-1.139.025-.363.046-.725.063-1.088z" fill="#ffedb5"/>
</svg>
