<svg viewBox="0 0 24 24" xmlns="http://www.w3.org/2000/svg">
 <path d="m4 2c-1.108 0-2 .892-2 2v16c0 1.108.892 2 2 2h16c1.108 0 2-.892 2-2v-16c0-1.108-.892-2-2-2zm1.994 5.5c1.25 0 2.205.229 2.863.688.667.458 1 1.158 1 2.1 0 1.175-.58 1.972-1.738 2.389.158.192.339.424.539.699.2.275.403.575.611.9.208.317.408.645.6.986.192.333.364.663.514.988h-1.764c-.158-.3-.328-.6-.512-.9-.183-.308-.371-.603-.563-.887-.183-.292-.367-.563-.551-.813-.183-.258-.353-.488-.512-.688-.117.008-.217.012-.301.012h-.236-.764v3.275h-1.574v-8.537c.383-.083.791-.137 1.225-.162.433-.033.82-.051 1.162-.051zm.113 1.363c-.333 0-.642.012-.926.037v2.799h.688c.383 0 .722-.021 1.014-.063.292-.042.533-.116.725-.225.2-.108.349-.254.449-.438.1-.183.15-.416.15-.699 0-.267-.05-.492-.15-.676-.1-.183-.246-.329-.438-.438-.183-.108-.404-.183-.662-.225-.258-.05-.541-.074-.85-.074zm5.357.85h1.514v3.424c0 .7.099 1.2.299 1.5.208.3.568.451 1.076.451.183 0 .374-.009.574-.025.208-.017.363-.037.463-.063v-5.287h1.512v6.338c-.292.075-.67.15-1.137.225-.467.083-.979.125-1.537.125-.525 0-.968-.075-1.326-.225-.35-.15-.633-.358-.85-.625-.208-.267-.358-.585-.449-.951-.092-.375-.139-.783-.139-1.225zm8.188 4.605c.246 0 .454.037.625.107.175.071.317.161.426.273.113.113.194.238.244.375.05.137.074.271.074.4 0 .229-.063.434-.188.613-.125.175-.269.314-.432.418.246.133.428.288.545.463.121.175.18.382.18.619 0 .179-.031.346-.094.5-.063.154-.156.288-.281.4-.125.113-.281.199-.469.262-.183.063-.395.094-.637.094-.283 0-.52-.04-.707-.119-.188-.079-.337-.178-.449-.299-.113-.121-.194-.251-.244-.389-.046-.142-.068-.275-.068-.4 0-.125.017-.24.051-.344.038-.108.086-.205.148-.293.063-.092.134-.175.213-.25.079-.075.163-.141.25-.199-.192-.133-.336-.277-.432-.432-.092-.158-.137-.351-.137-.576 0-.162.031-.315.094-.461.067-.15.16-.282.281-.395.121-.113.267-.203.438-.27.171-.067.36-.1.568-.1zm0 .619c-.113 0-.21.019-.293.057-.079.033-.143.078-.193.137-.05.054-.088.115-.113.182-.025.063-.037.125-.037.188 0 .158.057.308.174.449.121.142.322.255.602.338.154-.096.274-.203.361-.324.087-.125.131-.283.131-.475 0-.054-.012-.113-.037-.176-.021-.067-.057-.127-.111-.182-.05-.054-.116-.099-.195-.137-.079-.037-.175-.057-.287-.057zm-.23 1.855c-.15.096-.272.214-.363.352-.092.133-.137.293-.137.48 0 .063.012.128.037.199.025.071.067.137.125.195.058.058.133.107.225.148.092.038.206.057.344.057.125 0 .235-.015.326-.049.092-.033.166-.079.225-.133.058-.058.102-.123.131-.193.029-.075.043-.15.043-.225 0-.117-.023-.219-.068-.307-.046-.087-.112-.162-.199-.225-.083-.067-.184-.122-.301-.168-.117-.05-.245-.095-.387-.133z" fill="#ffedb5"/>
</svg>
