<svg viewBox="0 0 24 24" xmlns="http://www.w3.org/2000/svg">
 <path d="m4 2c-1.108 0-2 .892-2 2v16c0 1.108.892 2 2 2h16c1.108 0 2-.892 2-2v-16c0-1.108-.892-2-2-2zm5.32 5.637c.4 0 .754.03 1.063.088.317.05.588.109.812.176.225.067.407.138.549.213.15.075.254.129.313.162l-.475 1.287c-.25-.15-.563-.275-.938-.375-.367-.108-.754-.162-1.162-.162-.892 0-1.576.28-2.051.838-.467.55-.699 1.315-.699 2.299 0 .467.054.895.162 1.287.117.383.283.713.5.988.225.275.501.492.826.65.333.15.72.225 1.162.225.275 0 .513-.009.713-.025.2-.025.358-.055.475-.088v-3.111h1.574v4.162c-.217.083-.583.175-1.1.275-.517.1-1.112.15-1.787.15-.625 0-1.196-.101-1.713-.301-.517-.2-.958-.492-1.324-.875-.358-.383-.638-.854-.838-1.412-.2-.558-.301-1.201-.301-1.926 0-.725.11-1.365.326-1.924.225-.558.529-1.031.912-1.414.383-.392.833-.687 1.35-.887.517-.2 1.067-.301 1.65-.301zm6.758 2.164c.5 0 .92.063 1.262.188.342.125.613.298.813.523.208.225.354.501.438.826.092.317.137.665.137 1.049v3.963c-.233.05-.587.109-1.063.176-.467.075-.994.111-1.586.111-.392 0-.751-.036-1.076-.111-.325-.075-.605-.197-.838-.363-.225-.167-.404-.384-.537-.65-.125-.267-.188-.595-.188-.986 0-.375.071-.693.213-.951.15-.258.35-.467.6-.625.25-.167.538-.283.863-.35.333-.075.679-.111 1.037-.111.167 0 .342.012.525.037.183.017.38.05.588.1v-.25c0-.175-.021-.342-.063-.5-.042-.158-.118-.295-.227-.412-.1-.125-.237-.22-.412-.287-.167-.067-.378-.102-.637-.102-.35 0-.671.026-.963.076-.292.05-.53.107-.713.174l-.188-1.225c.192-.067.471-.133.838-.199.367-.067.759-.1 1.176-.1zm.299 3.773c-.167 0-.337.014-.512.039-.167.025-.321.07-.463.137-.133.067-.241.162-.324.287-.083.117-.125.268-.125.451 0 .358.111.608.336.75.225.133.531.199.914.199.467 0 .821-.024 1.063-.074v-1.676c-.083-.025-.205-.049-.363-.074-.158-.025-.334-.039-.525-.039z" fill="#ffedb5"/>
</svg>
