<svg viewBox="0 0 24 24" xmlns="http://www.w3.org/2000/svg">
 <g fill="#ffedb5" transform="translate(0 -1028.8622)">
  <path d="m10 1045.86l-2 2c-1 1-1 1 0 1h8c1 0 1 0 0-1l-2-2v-1h-4z"/>
  <path d="m6 1032.86c-1.108 0-2 .892-2 2v9c0 1.108.892 2 2 2h12c1.108 0 2-.892 2-2v-9c0-1.108-.892-2-2-2zm0 2h12v9h-12z"/>
  <path d="m12.12 1039.4q-.432 0-.649.282-.214.278-.214.837 0 .56.214.842.218.278.649.278.436 0 .649-.278.218-.282.218-.842 0-.56-.218-.837-.214-.282-.649-.282zm2.034-3.063v1.179q-.406-.192-.765-.282-.359-.094-.701-.094-.735 0-1.145.41-.41.406-.479 1.209.282-.209.611-.312.329-.107.718-.107.978 0 1.577.572.602.572.602 1.5 0 1.025-.671 1.645-.671.615-1.799.615-1.243 0-1.927-.837-.679-.842-.679-2.384 0-1.581.795-2.482.799-.906 2.188-.906.44 0 .854.068.414.068.82.205z" transform="translate(-.0384522)"/>
 </g>
</svg>
