<svg viewBox="0 0 24 24" xmlns="http://www.w3.org/2000/svg">
 <path d="m4 2c-1.108 0-2 .892-2 2v16c0 1.108.892 2 2 2h16c1.108 0 2-.892 2-2v-16c0-1.108-.892-2-2-2zm4.338 5.387c.358 0 .683.03.975.088.292.05.547.109.764.176.217.067.395.138.537.213.142.075.242.129.301.162l-.463 1.287c-.2-.125-.488-.241-.863-.35-.367-.117-.766-.176-1.199-.176-.375 0-.726.068-1.051.201-.325.125-.608.316-.85.574-.233.258-.417.583-.551.975-.133.392-.199.847-.199 1.363 0 .458.05.878.15 1.262.108.383.27.717.486 1 .217.275.493.492.826.65.333.15.733.225 1.199.225.558 0 1.013-.054 1.363-.162.35-.117.621-.224.813-.324l.424 1.287c-.1.067-.237.133-.412.199-.167.067-.366.135-.6.201-.233.058-.495.103-.787.137-.292.042-.604.063-.938.063-.65 0-1.233-.101-1.75-.301-.517-.2-.954-.492-1.313-.875-.358-.392-.635-.865-.826-1.424-.192-.558-.287-1.201-.287-1.926 0-.725.11-1.365.326-1.924.225-.558.529-1.031.912-1.414.383-.392.833-.687 1.35-.887.517-.2 1.07-.301 1.662-.301zm6.084 2.164c.383 0 .75.036 1.1.111.35.067.612.135.787.201l-.275 1.225c-.167-.075-.378-.143-.637-.201-.258-.067-.559-.1-.9-.1-.308 0-.558.054-.75.162-.192.1-.287.26-.287.477 0 .108.017.204.051.287.042.083.108.161.199.236.092.067.213.138.363.213.15.067.332.138.549.213.358.133.662.267.912.4.25.125.455.271.613.438.167.158.288.34.363.549.075.208.111.458.111.75 0 .625-.233 1.101-.699 1.426-.458.317-1.116.475-1.975.475-.575 0-1.039-.05-1.389-.15-.35-.092-.595-.166-.736-.225l.262-1.262c.225.092.492.178.801.262.317.083.674.125 1.074.125.4 0 .692-.045.875-.137.183-.1.275-.267.275-.5 0-.217-.101-.395-.301-.537-.192-.142-.513-.296-.963-.463-.275-.1-.528-.204-.762-.313-.225-.117-.421-.25-.588-.4-.167-.15-.3-.329-.4-.537-.092-.217-.137-.479-.137-.787 0-.6.22-1.072.662-1.414.442-.35 1.042-.523 1.801-.523zm5.6 4.844l.045.625c-.225.004-.437.028-.633.074-.196.042-.369.108-.523.199-.154.092-.288.212-.4.357-.108.146-.192.325-.25.537.204-.096.426-.145.668-.145.258 0 .477.038.656.113.183.071.331.168.443.293.113.125.194.271.244.438.054.163.082.335.082.514 0 .163-.03.329-.088.5-.054.171-.141.327-.262.469-.117.137-.266.252-.445.344-.179.087-.391.131-.637.131-.496 0-.874-.163-1.137-.488-.258-.329-.389-.78-.389-1.355 0-.417.061-.785.182-1.105.125-.325.3-.599.525-.82.229-.221.503-.387.824-.5.325-.117.69-.176 1.094-.18zm-1.188 2.25c-.121 0-.237.01-.35.031-.113.021-.215.052-.307.094-.004.033-.008.07-.012.111v.113c0 .167.01.325.031.475.025.146.065.274.119.387.058.108.135.197.23.264.1.063.223.094.369.094.121 0 .223-.026.307-.076.087-.05.157-.114.211-.193.054-.079.094-.164.119-.256.025-.096.037-.188.037-.275 0-.25-.059-.439-.18-.568-.121-.133-.314-.199-.576-.199z" fill="#ffedb5"/>
</svg>
