<svg viewBox="0 0 24 24" xmlns="http://www.w3.org/2000/svg">
 <g fill="#ffedb5" transform="translate(0 -1028.8622)">
  <path d="m10 1045.86l-2 2c-1 1-1 1 0 1h8c1 0 1 0 0-1l-2-2v-1h-4z"/>
  <path d="m6 1032.86c-1.108 0-2 .892-2 2v9c0 1.108.892 2 2 2h12c1.108 0 2-.892 2-2v-9c0-1.108-.892-2-2-2zm0 2h12v9h-12z"/>
  <g transform="translate(.0064086)">
   <path d="m10.367 1039.11q.645.167.978.581.338.41.338 1.047 0 .948-.726 1.444-.726.491-2.119.491-.491 0-.987-.081-.491-.077-.974-.235v-1.269q.461.231.914.35.457.115.897.115.654 0 1-.226.35-.226.35-.649 0-.436-.359-.658-.355-.226-1.051-.226h-.658v-1.06h.692q.62 0 .923-.192.303-.197.303-.594 0-.367-.295-.568-.295-.201-.833-.201-.397 0-.803.09-.406.09-.807.265v-1.205q.487-.137.966-.205.479-.068.94-.068 1.243 0 1.859.41.62.406.62 1.226 0 .56-.295.919-.295.355-.872.5z"/>
   <path d="m12.65 1041.42h1.453v-4.123l-1.491.308v-1.119l1.483-.308h1.564v5.242h1.453v1.136h-4.46v-1.136z"/>
  </g>
 </g>
</svg>
