<svg viewBox="0 0 24 24" xmlns="http://www.w3.org/2000/svg">
 <path d="m4 2c-1.108 0-2 .892-2 2v16c0 1.108.892 2 2 2h16c1.108 0 2-.892 2-2v-16c0-1.108-.892-2-2-2zm8.955 4.551v3.236c.167-.058.358-.109.574-.15.225-.042.447-.063.664-.063.525 0 .957.077 1.299.227.35.142.63.345.838.611.208.258.354.571.438.938.092.367.137.775.137 1.225v3.676h-1.512v-3.438c0-.35-.024-.645-.074-.887-.042-.25-.118-.452-.227-.602-.1-.158-.237-.269-.412-.336-.175-.075-.392-.113-.65-.113-.2 0-.403.021-.611.063-.208.042-.363.08-.463.113v5.199h-1.512v-9.449l1.512-.25zm-6.775.949c1.258 0 2.22.229 2.887.688.675.458 1.014 1.175 1.014 2.15 0 .508-.092.946-.275 1.313-.175.358-.434.653-.775.887-.342.225-.758.392-1.25.5-.492.108-1.054.162-1.688.162h-.787v3.051h-1.574v-8.537c.367-.083.769-.137 1.211-.162.45-.033.863-.051 1.238-.051zm.113 1.363c-.4 0-.73.012-.988.037v2.949h.762c.758 0 1.342-.104 1.75-.313.408-.217.613-.621.613-1.213 0-.283-.054-.519-.162-.711-.108-.192-.26-.343-.451-.451-.192-.108-.421-.183-.688-.225-.258-.05-.536-.074-.836-.074zm14.412 5.531l.045.625c-.225.004-.437.028-.633.074-.196.042-.369.108-.523.199-.154.092-.288.212-.4.357-.108.146-.192.325-.25.537.204-.096.426-.145.668-.145.258 0 .477.038.656.113.183.071.331.168.443.293.113.125.194.271.244.438.054.163.082.335.082.514 0 .163-.03.329-.088.5-.054.171-.141.327-.262.469-.117.137-.266.252-.445.344-.179.087-.391.131-.637.131-.496 0-.874-.163-1.137-.488-.258-.329-.389-.78-.389-1.355 0-.417.061-.785.182-1.105.125-.325.3-.599.525-.82.229-.221.503-.387.824-.5.325-.117.69-.176 1.094-.18zm-1.188 2.25c-.121 0-.237.01-.35.031-.113.021-.215.052-.307.094-.004.033-.008.07-.012.111v.113c0 .167.01.325.031.475.025.146.065.274.119.387.058.108.135.197.23.264.1.063.223.094.369.094.121 0 .223-.026.307-.076.087-.05.157-.114.211-.193.054-.079.094-.164.119-.256.025-.096.037-.188.037-.275 0-.25-.059-.439-.18-.568-.121-.133-.314-.199-.576-.199z" fill="#ffedb5"/>
</svg>
