<svg viewBox="0 0 24 24" xmlns="http://www.w3.org/2000/svg">
 <path d="m4 2c-1.108 0-2 .892-2 2v16c0 1.108.892 2 2 2h16c1.108 0 2-.892 2-2v-16c0-1.108-.892-2-2-2zm3.916 5.387c.542 0 1.021.063 1.438.188.425.117.758.247 1 .389l-.488 1.275c-.283-.158-.596-.28-.938-.363-.333-.083-.679-.125-1.037-.125-.425 0-.758.087-1 .262-.233.175-.35.422-.35.738 0 .192.036.358.111.5.083.133.196.255.338.363.15.108.32.207.512.299.2.092.417.18.65.264.408.15.771.303 1.088.461.325.15.596.334.812.551.225.208.395.458.512.75.117.283.176.629.176 1.037 0 .783-.28 1.393-.838 1.826-.55.425-1.357.637-2.424.637-.358 0-.688-.024-.988-.074-.292-.042-.554-.097-.787-.164-.225-.067-.421-.133-.588-.199-.167-.075-.3-.141-.4-.199l.463-1.289c.225.125.529.25.912.375.383.125.847.188 1.389.188.567 0 .978-.095 1.236-.287.258-.192.389-.463.389-.813 0-.208-.047-.387-.139-.537-.083-.15-.208-.284-.375-.4-.158-.125-.355-.238-.588-.338-.233-.108-.499-.213-.799-.313-.3-.108-.592-.225-.875-.35-.275-.133-.522-.295-.738-.486-.208-.192-.378-.421-.512-.688-.125-.267-.188-.588-.188-.963 0-.783.271-1.396.813-1.838.542-.45 1.28-.676 2.213-.676zm6.676 2.188c.1 0 .216.009.35.025.133.008.267.026.4.051.133.017.262.041.387.074.125.025.226.051.301.076l-.264 1.273c-.125-.042-.3-.083-.525-.125-.217-.05-.47-.074-.762-.074-.167 0-.345.017-.537.051-.183.033-.314.061-.389.086v5.238h-1.512v-6.225c.292-.108.655-.209 1.088-.301.442-.1.93-.15 1.463-.15zm3.203 4.744c.508 0 .892.165 1.15.494.263.325.395.785.395 1.381 0 .842-.217 1.479-.65 1.912-.433.433-1.098.652-1.994.656l-.031-.631c.25 0 .476-.021.676-.063.204-.042.381-.108.531-.199.154-.092.283-.212.387-.357.104-.15.184-.332.238-.549-.1.046-.211.08-.332.105-.121.025-.237.037-.35.037-.258 0-.479-.033-.662-.1-.179-.071-.329-.166-.445-.287-.113-.125-.196-.269-.25-.432-.054-.163-.08-.338-.08-.525 0-.162.026-.326.08-.492.054-.171.141-.327.258-.469.117-.142.264-.256.443-.344.179-.092.391-.139.637-.139zm.02.625c-.121 0-.225.026-.313.076-.083.05-.153.114-.207.193-.054.079-.094.164-.119.256-.025.092-.037.182-.037.27 0 .254.061.445.182.574.125.129.32.193.582.193.121 0 .239-.01.355-.031.117-.025.217-.06.301-.105.004-.046.006-.086.006-.119v-.088c0-.167-.012-.323-.037-.469-.021-.15-.061-.278-.119-.387-.054-.113-.132-.201-.232-.264-.096-.067-.215-.1-.361-.1z" fill="#ffedb5"/>
</svg>
