<svg viewBox="0 0 24 24" xmlns="http://www.w3.org/2000/svg">
 <path d="m4 2c-1.108 0-2 .892-2 2v16c0 1.108.892 2 2 2h16c1.108 0 2-.892 2-2v-16c0-1.108-.892-2-2-2zm12.564 4.801c.35 0 .659.033.926.1.267.058.466.112.6.162l-.287 1.25c-.142-.067-.308-.12-.5-.162-.183-.042-.383-.063-.6-.063-.242 0-.447.036-.613.111-.167.067-.3.164-.4.289-.1.125-.171.278-.213.461-.042.175-.063.368-.063.576v.438h2.375v1.262h-2.375v5.275h-1.512v-7c0-.842.22-1.5.662-1.975.442-.483 1.108-.725 2-.725zm-9.473 1.037h5.477v1.338h-3.9v2.211h3.463v1.338h-3.463v3.775h-1.576v-8.662z" fill="#ffedb5"/>
</svg>
