<svg viewBox="0 0 24 24" xmlns="http://www.w3.org/2000/svg">
 <path d="m4 2c-1.108 0-2 .892-2 2v16c0 1.108.892 2 2 2h16c1.108 0 2-.892 2-2v-16c0-1.108-.892-2-2-2zm14.13 4.801v7.486c0 .183.012.338.037.463.033.125.087.233.162.324.075.083.176.151.301.201.133.042.3.075.5.1l-.213 1.25c-.45-.008-.825-.059-1.125-.15-.292-.092-.526-.22-.701-.387-.175-.175-.3-.389-.375-.639-.067-.258-.1-.55-.1-.875v-7.523zm-12.05 1.037h1.461c.183.317.388.704.613 1.162.225.458.454.941.688 1.449.233.5.462 1.014.688 1.539.233.517.445.996.637 1.438.192-.442.4-.921.625-1.438.225-.525.454-1.039.687-1.539.233-.508.463-.991.687-1.449.225-.458.43-.845.613-1.162h1.426c.075.633.144 1.309.211 2.025.067.708.126 1.437.176 2.187.058.742.109 1.492.15 2.25.05.75.092 1.483.125 2.199h-1.551c-.033-1.01-.075-2.047-.125-3.113-.042-1.067-.108-2.1-.199-3.1-.092.192-.201.421-.326.688-.125.267-.257.558-.398.875-.142.308-.287.63-.438.963-.142.333-.284.658-.426.975-.133.308-.258.6-.375.875-.117.267-.217.496-.301.688h-1.174c-.083-.192-.184-.424-.301-.699-.117-.275-.245-.567-.387-.875-.133-.317-.276-.641-.426-.975-.142-.333-.282-.655-.424-.963-.142-.308-.275-.597-.4-.863-.125-.275-.235-.504-.326-.688-.092 1-.161 2.033-.211 3.1-.042 1.067-.08 2.105-.113 3.113h-1.551c.033-.717.072-1.458.113-2.225.05-.767.1-1.525.15-2.275.058-.758.121-1.491.188-2.199.067-.708.138-1.363.213-1.963z" fill="#ffedb5"/>
</svg>
