<?xml version="1.0" encoding="UTF-8" standalone="no"?>
<svg
   xmlns:dc="http://purl.org/dc/elements/1.1/"
   xmlns:cc="http://creativecommons.org/ns#"
   xmlns:rdf="http://www.w3.org/1999/02/22-rdf-syntax-ns#"
   xmlns:svg="http://www.w3.org/2000/svg"
   xmlns="http://www.w3.org/2000/svg"
   xmlns:sodipodi="http://sodipodi.sourceforge.net/DTD/sodipodi-0.dtd"
   xmlns:inkscape="http://www.inkscape.org/namespaces/inkscape"
   height="512"
   viewBox="0 0 512 512"
   width="512"
   id="svg2"
   version="1.1"
   inkscape:version="0.91 r13725"
   sodipodi:docname="go-home.svg">
  <metadata
     id="metadata38">
    <rdf:RDF>
      <cc:Work
         rdf:about="">
        <dc:format>image/svg+xml</dc:format>
        <dc:type
           rdf:resource="http://purl.org/dc/dcmitype/StillImage" />
      </cc:Work>
    </rdf:RDF>
  </metadata>
  <defs
     id="defs36" />
  <sodipodi:namedview
     pagecolor="#ffffff"
     bordercolor="#666666"
     borderopacity="1"
     objecttolerance="10"
     gridtolerance="10"
     guidetolerance="10"
     inkscape:pageopacity="0"
     inkscape:pageshadow="2"
     inkscape:window-width="640"
     inkscape:window-height="480"
     id="namedview34"
     showgrid="false"
     inkscape:zoom="0.4609375"
     inkscape:cx="256"
     inkscape:cy="256"
     inkscape:current-layer="svg2" />
  <text
     x="729.64"
     y="231.36"
     id="text16" />
  <text
     x="1310.91"
     y="151.36"
     id="text18" />
  <text
     x="239.33"
     y="-29.9"
     id="text20" />
  <text
     x="1337.38"
     y="-246.37"
     id="text22" />
  <text
     x="1918.65"
     y="-326.37"
     id="text24" />
  <text
     x="1529.53"
     y="-798.77"
     id="text26" />
  <text
     x="2110.79"
     y="-878.78"
     id="text28" />
  <text
     x="277.99"
     y="535.94"
     id="text30" />
  <path
     d="M 239.95832,127.74437 C 97.605193,240.29249 95.79167,209.71282 95.79167,240.73999 c 0,16.11027 5.02188,18.12406 53.07721,18.12406 l 0,114.56192 c 0,22.91237 0,22.91237 21.42621,22.91237 l 42.8524,0 c 21.42621,0 21.42621,0 21.42621,-22.91237 l 0,-91.64954 c 26.71312,0 16.13949,0 42.85239,0 l 0,91.64954 c 0,22.91237 0,22.91237 21.42621,22.91237 l 42.85241,0 c 21.4262,0 21.4262,0 21.4262,-22.91237 l 0,-114.56192 c 48.05555,0 53.07742,-2.01377 53.07742,-18.12406 0,-31.10174 -1.18487,0.0756 -144.16664,-112.99562 -16.04179,-16.11027 -16.04179,-16.11027 -32.08337,0 z"
     id="path32"
     style="fill:#ffffff;fill-opacity:1"
     inkscape:connector-curvature="0" />
</svg>
