<?xml version="1.0" encoding="UTF-8"?>
<svg width="48" height="48" version="1.1" xmlns="http://www.w3.org/2000/svg" xmlns:cc="http://creativecommons.org/ns#" xmlns:dc="http://purl.org/dc/elements/1.1/" xmlns:rdf="http://www.w3.org/1999/02/22-rdf-syntax-ns#" xmlns:xlink="http://www.w3.org/1999/xlink">
 <metadata>
  <rdf:RDF>
   <cc:Work rdf:about="">
    <dc:format>image/svg+xml</dc:format>
    <dc:type rdf:resource="http://purl.org/dc/dcmitype/StillImage"/>
    <dc:title/>
   </cc:Work>
  </rdf:RDF>
 </metadata>
 <path d="m8.0608 4.7062v39h32v-39zm18.359 7.8594c1.3255 0 2.3984 1.0749 2.3984 2.4004 0 1.3255-1.073 2.4004-2.3984 2.4004-1.3255 0-2.4004-1.0749-2.4004-2.4004 0-1.3255 1.0749-2.4004 2.4004-2.4004zm-1.2012 7.1992c1.3296 0 2.4004 1.0708 2.4004 2.4004 0 2.4-2.4004 7.1996-2.4004 9.5996 0 1.7027 0.91193 0.67206 1.6504 0.15039l1.125 1.6504c-1.4152 1.7493-3.513 2.9703-5.1758 3-1.3296 0-2.3984-1.0708-2.3984-2.4004 0-2.4 2.3984-7.1996 2.3984-9.5996 0-1.7027-0.90993-0.67206-1.6484-0.15039l-1.125-1.6504c1.4153-1.7493 3.5111-2.9703 5.1738-3z" color="#bebebe" fill="#fff"/>
</svg>
