<?xml version="1.0" encoding="UTF-8" standalone="no"?>
<svg xmlns="http://www.w3.org/2000/svg" style="enable-background:new" height="16" width="16" version="1.1">
 <title>
  Paper Symbolic Icon Theme
 </title>
 <path style="opacity:1;fill:#4d4d4d;fill-opacity:1;fill-rule:evenodd;enable-background:new" d="M 8.249999,8.7999999e-7 C 3.9697925,1.2665993e-6 0.49999982,3.4697944 0.5,7.7500009 0.50000033,12.030207 3.9697929,15.5 8.249999,15.5 c 4.280207,0 7.75,-3.469793 7.75,-7.7499991 0,-4.2802069 -3.469793,-7.75000018568545 -7.75,-7.75000002000001 z"/>
 <g transform="matrix(1.25,0,0,1.25,-378.375,-156.875)">
  <path style="fill:#ffffff;" d="m 309.79529,128.34119 0,1.43176 -1.43177,0 c -1.71811,0 -2.86352,1.21786 -2.86352,3.0067 0,1.86129 2.29082,2.72035 2.29082,2.72035 0,0 -1.07388,-1.5191 -0.82326,-2.29082 0.20955,-0.64521 0.90063,-1.14541 1.68232,-1.14541 l 1.14541,0 0,1.43176 3.70471,-2.57717 z"/>
 </g>
</svg>
