<svg height="512" viewBox="0 0 512 512" width="512" xmlns="http://www.w3.org/2000/svg">
 <path d="m471.95 253.05c0 120.9-98.006 218.91-218.91 218.91s-218.91-98.006-218.91-218.91 98.006-218.91 218.91-218.91 218.91 98.006 218.91 218.91" fill="#5c805a" fill-rule="evenodd"/>
 <path d="m395.93 256c0 77.282-62.65 139.93-139.93 139.93-77.282 0-139.93-62.65-139.93-139.93 0-77.282 62.65-139.93 139.93-139.93 77.282 0 139.93 62.65 139.93 139.93z" fill="#ffffff"/>
 <path d="m395.93 256c0 77.282-62.65 139.93-139.93 139.93-77.282 0-139.93-62.65-139.93-139.93 0-77.282 62.65-139.93 139.93-139.93 77.282 0 139.93 62.65 139.93 139.93z"/>
 <path d="m320.63 256c0 35.692-28.934 64.625-64.625 64.625-35.692 0-64.625-28.934-64.625-64.625 0-35.692 28.934-64.625 64.625-64.625 35.692 0 64.625 28.934 64.625 64.625z" fill="#ffffff"/>
 <path d="m280.28 271.76q0 4.5475-1.4653 8.3878-1.4148 3.7896-4.3959 6.5686-2.9307 2.7791-7.5288 4.3455-4.5981 1.5663-10.864 1.5663-6.2655 0-10.864-1.5663-4.5475-1.5664-7.5793-4.2949-2.9812-2.7791-4.4465-6.5687-1.4148-3.8401-1.4148-8.3372 0-3.8907 1.1621-6.9225 1.2127-3.0317 3.1833-5.2044 2.0211-2.2232 4.5476-3.537 2.5769-1.3642 5.3054-1.819v-.2018q-2.9812-.70781-5.356-2.2737-2.3243-1.5664-3.9412-3.7391-1.5663-2.2233-2.4253-4.9013-.8082-2.6779-.8082-5.6591 0-3.7391 1.4148-7.0234 1.4653-3.3349 4.2949-5.8107 2.8296-2.5265 7.0234-3.9412 4.1939-1.4654 9.7015-1.4654 5.8108 0 10.055 1.4654 4.2949 1.4653 7.0741 3.9917 2.8295 2.4759 4.1938 5.8108 1.3642 3.3349 1.3642 7.074 0 2.9306-.8589 5.6086-.80821 2.678-2.4254 4.9012-1.5664 2.1727-3.9412 3.7391-2.3243 1.5158-5.4066 2.1222v.2018q3.0822.50499 5.7098 1.8695 2.6275 1.3138 4.5475 3.537 1.9201 2.1727 3.0317 5.2044t1.1116 6.8718zm-11.217-33.551q0-2.678-.70783-4.9012-.6571-2.2232-2.2232-3.7896-1.5664-1.6169-4.0928-2.4759-2.5264-.90961-6.215-.90961-3.5875 0-6.0634.90961-2.4758.8589-4.0927 2.4759-1.5664 1.5664-2.2738 3.7896-.70782 2.2232-.70782 4.9012 0 2.1222.5557 4.3455.5557 2.2232 2.0211 4.0422t4.0423 2.9812q2.5769 1.1621 6.6192 1.1621 4.2949 0 6.8718-1.1621 2.6275-1.1622 3.9917-2.9812 1.4148-1.819 1.819-4.0422.45428-2.2233.45428-4.3455zm1.7685 32.692q0-2.5769-.70781-4.9517-.70783-2.4254-2.4254-4.2444-1.7179-1.8695-4.6486-2.9811-2.8801-1.1622-7.2255-1.1622-3.9917 0-6.8214 1.1622-2.779 1.1116-4.5475 2.9811-1.718 1.8696-2.5264 4.3454-.8082 2.4254-.8082 5.0528 0 3.2844.8082 6.013.80819 2.678 2.5769 4.6486 1.7685 1.92 4.6486 2.9811t6.973 1.0611q4.1433 0 6.9729-1.0611 2.8295-1.0611 4.5475-2.9811 1.718-1.9706 2.4253-4.6991.7575-2.7791.7575-6.1645z"/>
 <circle cx="256" stroke="#fefefe" cy="256" r="181.13" stroke-width="18.771" fill="none"/>
</svg>
