<svg xmlns="http://www.w3.org/2000/svg" height="512" width="512" version="1.1" viewBox="0 0 512 512">
 <path fill-rule="evenodd" fill="#80b3ff" d="m474.9 256c0 120.9-98.01 218.9-218.9 218.9-120.9 0-218.9-98.01-218.9-218.9 0-120.9 98.01-218.9 218.9-218.9 120.9 0 218.9 98.01 218.9 218.9"/>
 <path fill-rule="evenodd" fill="#ffffff" d="m157.66 341.89c-0.11782-47.181 68.151-183.51 99.925-184.23 15.89-0.38181 39.701 29.814 59.722 68.82 20.026 39.009 36.27 86.841 37.032 121.82 0 0-76.878-150.17-96.056-150.61-19.527-0.47999-72.529 105.8-66.224 117.63 6.1569 11.562 120.4-25.708 120.4-25.708-2.4625 3.7941-77.053 53.111-132.99 64.733-8.4441-0.3818-21.112 0-21.814-12.451"/>
 <circle cx="255" stroke="#fefeff" cy="255" r="181" stroke-width="18" fill="none"/>
 <circle cx="256" stroke="#fefefe" cy="256" r="181.13" stroke-width="18.771" fill="none"/>
</svg>
