<svg height="512" viewBox="0 0 512 512" width="512" xmlns="http://www.w3.org/2000/svg">
 <path d="m471.95 253.05c0 120.9-98.01 218.91-218.91 218.91-120.9 0-218.91-98.01-218.91-218.91 0-120.9 98.01-218.91 218.91-218.91 120.9 0 218.91 98.01 218.91 218.91" fill="#95d837" fill-rule="evenodd"/>
 <path d="m301.78 103.17c-.941-.016-1.874-.005-2.799.027-12.336.416-23.12 5.03-28.15 13.06-6.368 10.176-1.514 22.756 10.795 31.454l-21.22 22.684c-7.769-4.719-16.229-8.747-25.429-11.808-19.498-6.489-39.31-7.939-57.39-5.118l-7.863-14.714c4.823-1.371 8.833-3.928 11.06-7.49 5.316-8.496-1.214-19.514-14.554-24.683-13.339-5.169-28.483-2.552-33.799 5.944s1.188 19.594 14.527 24.763c4.416 1.711 9.05 2.577 13.434 2.639l8.13 15.274c-28.12 6.865-50.879 24.555-59.868 49.926-15.514 43.785 15.849 93.92 70.1 111.98 37.806 12.582 76.74 6.258 102.12-13.541l22.391 21.298c-2.696 2.77-5.065 5.809-6.85 9.329-11.742 23.15 2.631 53.38 32.09 67.47 29.463 14.09 62.947 6.788 74.69-16.367 11.742-23.15-2.63-53.38-32.09-67.47-21.596-10.326-45.32-9.106-61.07 1.386l-22.577-21.404c7.833-7.638 13.929-16.752 17.646-27.24 12.01-33.9-4.142-71.67-37.21-95.35l21.564-22.95c1.065.492 2.174.948 3.305 1.386 20.18 7.82 43.06 3.79 51.1-9.06 8.04-12.852-1.758-29.658-21.938-37.478-6.621-2.566-13.563-3.833-20.15-3.945m-98.95 80.61c4.463-.018 8.923.114 13.408.4 16.266 1.037 28.06 4.164 34.945 9.543 7.405 5.695 10.266 14.775 8.103 27.802l-9.543 57.58-40.596-9.116 4.372-15.407c-6.615 5.14-13.4 8.536-20.258 10.129-6.795 1.522-14.25 1.354-22.2-.48-10.34-2.384-17.13-7.083-20.551-13.888-3.159-6.47-2.683-13.548 1.173-21.19 4.449-8.819 10.837-14.544 19.379-17.539 8.603-2.993 20.455-3.647 36.25-1.866l18.392 2.079.533-1.893c1.066-3.747-.118-6.597-3.492-8.61-3.277-2-8.807-3.338-16.473-4.02-6.05-.542-11.735-.589-17.11-.16-5.309.423-10.417 1.311-15.354 2.666l7.117-14.874c5.812-.597 11.633-.947 17.459-1.066 1.486-.039 2.964-.074 4.452-.08m-5.144 40.28c-3.438-.046-6.361.344-8.796 1.173-3.838 1.334-6.48 3.76-7.943 7.357-1.375 3.378-1.175 6.317.613 8.796 1.909 2.495 5.282 4.227 10.182 5.145 6.243 1.168 12.268.152 17.913-3.039 5.618-3.221 9.239-7.727 10.849-13.381l.88-3.092-16.953-2.399c-2.44-.345-4.681-.532-6.744-.56" fill="#ffffff"/>
 <circle cx="256" stroke="#fefefe" cy="256" r="181.13" stroke-width="18.771" fill="none"/>
</svg>
