<svg height="512" viewBox="0 0 512 512" width="512" xmlns="http://www.w3.org/2000/svg">
 <path d="m479.56249 256.00094a223.56553 223.56553 0 0 1 -447.131062 0 223.56553 223.56553 0 1 1 447.131062 0" fill="#0078ad" fill-rule="evenodd"/>
 <g stroke="#ffffff" stroke-linecap="round" stroke-linejoin="round" stroke-width="38" transform="matrix(.92959 0 0 .92959 -109.85 -149.08)">
  <path d="m251.64 581.98l95.05-313.79 98.71 313.18" fill="none"/>
  <path d="m357.05 494.85h-77.38" fill="#3695ff"/>
 </g>
 <g fill="#ffffff" transform="matrix(.92959 0 0 .92959 -109.85 -149.08)">
  <path d="m520.03 461.34c-19.01 0-34.406 15.14-34.406 33.813 0 18.676 15.393 33.813 34.406 33.813 19.01 0 34.438-15.14 34.438-33.813 0-18.676-15.425-33.813-34.438-33.813m-10.656 17.656l26.06 16.906-26.06 14.781v-31.688"/>
  <path d="m520.03 537.5c-19.01 0-34.406 15.14-34.406 33.813 0 18.676 15.393 33.813 34.406 33.813 19.01 0 34.438-15.14 34.438-33.813 0-18.676-15.425-33.813-34.438-33.813m-13.09 22.531h25.625v25h-25.62v-25"/>
 </g>
 <circle cx="256" stroke="#fefefe" cy="256" r="181.13" stroke-width="18.771" fill="none"/>
</svg>
