<svg height="512" viewBox="0 0 512 512" width="512" xmlns="http://www.w3.org/2000/svg">
 <path d="m471.95 253.05c0 120.9-98.01 218.9-218.9 218.9-120.9 0-218.9-98.01-218.9-218.9 0-120.9 98.01-218.9 218.9-218.9 120.9 0 218.9 98.01 218.9 218.9" fill="#ef6a47" fill-rule="evenodd"/>
 <g fill="#ffffff" transform="matrix(11.286 0 0 11.286 134.84 102.65)">
  <path d="m20.249 14.11c-.121 0-.233.026-.351.037.12-.735.199-.821.214-1.596 0 .005-.003.01-.003.017.009-.069.023-.138.024-.208-.184-3.865-4.83-6.08-10.06-6.126-5.236.046-9.88 2.261-10.07 6.126.005.07.021.139.025.208.155 6.923 4.587 12.479 10.04 12.479 2.987 0 5.664-1.675 7.503-4.318.655.745 1.605 1.222 2.678 1.222 1.98 0 3.587-2.271 3.587-4.253 0-1.979-1.606-3.588-3.586-3.588m-3.678.922c-1.607.915-3.948 1.524-6.547 1.521-2.602.004-4.944-.606-6.553-1.521-1.631-.927-2.4-2.064-2.386-3.07-.015-1.015.758-2.151 2.386-3.077 1.609-.917 3.951-1.524 6.553-1.52 2.599-.005 4.94.603 6.547 1.52 1.631.927 2.404 2.062 2.389 3.077.015 1.01-.758 2.143-2.389 3.07m3.678 4.974c-.76-.001-1.372-.527-1.558-1.227.259-.563.488-1.821.683-2.433.258-.165.545-.287.875-.291.904.004 1.639.739 1.641 1.643-.003.906-.737 2.307-1.641 2.308"/>
  <path d="m15.753 9.175c-1.406-.8-3.455-1.331-5.73-1.329-2.277-.002-4.328.529-5.736 1.329-1.424.812-2.101 1.807-2.089 2.695-.011.881.662 1.876 2.089 2.688 0 0 1.991-4.168 5.188-1.029 3.196 3.139 1.574-3.319 4.137-.82 2.563 2.498 4.233-.839 4.233-.839.013-.889-.663-1.883-2.092-2.695"/>
  <path d="m7.595 1.783c.128.104.262.18.385.26.239.158.504.312.683.502.093.094.17.2.238.297.067.099.124.193.16.291.071.192.059.375.021.585-.073.428-.335.906-.593 1.431l.043.051c.292-.103.537-.278.757-.493.216-.218.402-.487.496-.826.097-.331.036-.744-.158-1.045-.186-.312-.478-.495-.762-.602-.143-.059-.289-.1-.411-.151-.126-.054-.243-.125-.343-.215-.205-.175-.297-.461-.273-.626.008-.083.023-.152.051-.244.031-.087.083-.186.15-.286.131-.203.308-.411.486-.652l-.03-.06c-.158.009-.306.051-.446.111-.143.058-.276.14-.399.245-.123.107-.237.24-.316.41-.08.168-.111.386-.05.578.06.192.183.337.311.439"/>
  <path d="m10.238 3.02c.099.067.194.109.277.159.162.097.336.21.431.35.102.142.163.278.194.377.024.107.004.185-.009.301-.014.112-.053.255-.101.414-.05.161-.114.33-.169.533l.044.05c.217-.039.397-.141.559-.275.16-.136.299-.319.369-.559.073-.238.023-.546-.126-.76-.139-.224-.357-.34-.559-.394-.101-.03-.204-.05-.283-.078-.082-.029-.157-.073-.217-.134-.13-.117-.146-.328-.103-.393.017-.035.024-.055.032-.1.013-.044.036-.101.067-.165.066-.132.161-.28.253-.475l-.03-.06c-.115-.016-.22.001-.322.031-.104.028-.2.078-.289.148-.09.07-.174.162-.233.287-.062.12-.084.288-.033.433.051.147.151.246.248.31"/>
 </g>
 <circle cx="256" stroke="#fefefe" cy="256" r="181.13" stroke-width="18.771" fill="none"/>
</svg>
