<svg height="512" viewBox="0 0 512 512" width="512" xmlns="http://www.w3.org/2000/svg">
 <path d="m471.95 253.05c0 120.9-98.01 218.9-218.9 218.9-120.9 0-218.9-98.01-218.9-218.9 0-120.9 98.01-218.9 218.9-218.9 120.9 0 218.9 98.01 218.9 218.9" fill="#627a86" fill-rule="evenodd"/>
 <g fill="#ffffff" fill-rule="evenodd" stroke-linejoin="round" stroke-width="10">
  <path d="m149.42222 388.39313l99.83307 17.25071 97.91373-11.13031-109.89014-12.17043z" points="249.26 405.64 347.17 394.51 237.28 382.34 149.42 388.39"/>
  <path d="m149.42222 268.96762v119.42551l87.85666-6.05003v-102.98507z" points="149.42 388.39 237.28 382.34 237.28 279.36 149.42 268.97"/>
  <path d="m237.27888 279.35803l109.89014-20.90165v136.05715l-109.89014-12.17043z" points="347.17 258.46 347.17 394.51 237.28 382.34 237.28 279.36"/>
  <path d="m149.42222 268.96762l99.83307-29.6266 97.91373 19.11536-109.89014 20.90165z" points="249.26 239.34 347.17 258.46 237.28 279.36 149.42 268.97"/>
  <path d="m249.25529 239.34102v166.30282l97.91373-11.13031v-136.05715z" points="249.26 405.64 347.17 394.51 347.17 258.46 249.26 239.34"/>
  <path d="m149.42222 268.96762l99.83307-29.6266v166.30282l-99.83307-17.25071z" points="249.26 239.34 249.26 405.64 149.42 388.39 149.42 268.97"/>
 </g>
 <circle cx="253.959" cy="160.547" fill="#ffffff" r="69.2"/>
 <circle cx="256" stroke="#fefefe" cy="256" r="181.13" stroke-width="18.771" fill="none"/>
</svg>
