<svg height="512" viewBox="0 0 512 512" width="512" xmlns="http://www.w3.org/2000/svg" xmlns:xlink="http://www.w3.org/1999/xlink">
 <defs>
  <path id="a" d="m21.812 1023h22.625l-8.813-8.813z" fill="#ffffff"/>
 </defs>
 <path d="m471.95 253.05c0 120.9-98.01 218.9-218.9 218.9-120.9 0-218.9-98.01-218.9-218.9 0-120.9 98.01-218.9 218.9-218.9 120.9 0 218.9 98.01 218.9 218.9" fill="#a32989" fill-rule="evenodd"/>
 <path d="m28.875 24.625c0 2.554-2.071 4.625-4.625 4.625s-4.625-2.071-4.625-4.625 2.071-4.625 4.625-4.625 4.625 2.071 4.625 4.625" fill="#ffffff" transform="matrix(6.4109 0 0 6.314 99.66 99.58)"/>
 <use height="1" transform="matrix(8.0204 0 0 7.899 54.764 -7870.2)" width="1" xlink:href="#a"/>
 <use height="1" transform="matrix(4.0102 -6.8408 6.9458 3.9495 -6990.2 -3635.5)" width="1" xlink:href="#a"/>
 <use height="1" transform="matrix(-4.0102 -6.8408 6.9458 -3.9495 -6789 4490.8)" width="1" xlink:href="#a"/>
 <use height="1" transform="matrix(-8.0204 0 0 -7.899 457.24 8382.2)" width="1" xlink:href="#a"/>
 <use height="1" transform="matrix(-4.0102 6.8408 -6.9458 -3.9495 7502.2 4147.5)" width="1" xlink:href="#a"/>
 <use height="1" transform="matrix(4.0102 6.8408 -6.9458 3.9495 7301 -3978.8)" width="1" xlink:href="#a"/>
 <circle cx="256" stroke="#fefefe" cy="256" r="181.13" stroke-width="18.771" fill="none"/>
</svg>
