<svg height="512" viewBox="0 0 512 512" width="512" xmlns="http://www.w3.org/2000/svg">
 <path d="m255.99251 18.00094c-131.44126 0-237.997504 106.55624-237.997504 237.9975 0 15.80113 1.5546 31.23194 4.492441 46.17152 37.548389-45.86688 91.581433-86.84053 165.408263-86.84053 72.64636 0 164.35155 39.7789 277.92396 153.06095 17.96976-33.47197 28.17319-71.74197 28.17319-112.39194 0-131.44126-106.55624-237.9975-237.9975-237.9975" fill="#ffce7b"/>
 <path d="m187.89666 215.32943c-73.80778 0-127.861776 40.95461-165.408261 86.81197 21.48927 109.35509 117.856361 191.85454 233.504111 191.85454 90.79128 0 169.69221-50.84579 209.82811-125.60556-113.57241-113.28681-205.2776-153.06095-277.92396-153.06095" fill="#869fcb"/>
 <path d="m320.11 234c0 48.661-39.448 88.11-88.11 88.11-48.661 0-88.11-39.448-88.11-88.11 0-48.661 39.448-88.11 88.11-88.11 48.661 0 88.11 39.448 88.11 88.11" fill="#ffffff"/>
 <circle cx="256" stroke="#fefefe" cy="256" r="181.13" stroke-width="18.771" fill="none"/>
</svg>
