<svg width="512" height="512" version="1.1" viewBox="0 0 512 512" xmlns="http://www.w3.org/2000/svg">
 <path d="m471.95 253.05c0 120.9-98.01 218.9-218.9 218.9-120.9 0-218.9-98.01-218.9-218.9 0-120.9 98.01-218.9 218.9-218.9 120.9 0 218.9 98.01 218.9 218.9" fill="#f38725" fill-rule="evenodd"/>
 <path d="m268.94 152.95c-5.0117 8.8223-7.4712 14.25-8.6831 17.498-0.55369 1.4849-0.78195 3.1091-0.94146 3.1119-0.16043 2e-3 -0.40427-1.572-0.94146-3.0138-1.2119-3.253-3.676-8.6802-8.684-17.498l-2.9298 1.4583c4.9594 8.7288 7.3429 13.986 8.4741 17.017 0.50969 1.3666 1.1633 2.3245 0.83696 2.7223-0.32634 0.39781-1.0515 0.0962-2.5109 1.264-1.4594 1.1678-3.1361 3.9368-3.5568 7.3878-8.1056-0.11641-10.783-0.28323-10.88-0.29148-0.77921-0.77728-1.7335-1.6178-3.3478-2.8204-1.9315-1.4382-4.4607-3.0679-7.0092-4.6674-2.5484-1.5995-5.1363-3.1274-7.5326-4.1806-2.3954-1.0532-5.691-1.4996-6.5912-1.264-0.90022 0.23465 0.132-0.011-0.10451 0s-0.38777-0.0119-1.046 0-2.1286-0.0156-3.6614 0c-3.0664 0.0311-7.2979 0.10907-12.345 0.29148-10.093 0.36481-23.362 1.2897-36.724 3.5005-13.359 2.2108-26.823 5.661-37.35 11.474-10.499 5.7966-18.22 14.104-19.352 25.378-4e-3 0.033 4e-3 0.0642 0 0.0972-8e-3 0.0843-0.033 0.26581 0 0.58295 0.0385 0.37032 0.19343 0.8772 0.41802 1.4583 0.45102 1.1613 1.3595 2.759 3.2433 4.5702 3.7668 3.6288 11.266 8.3952 26.676 13.905 0 0 2.7492 1.0798 5.0218 2.7223 1.1367 0.82128 2.0663 1.8176 2.5109 2.6252 0.44552 0.80753 0.52344 1.2393 0 2.0422v0.0972s-0.36761 0.54538-0.52253 1.264-0.17784 1.6957 0.10451 2.9166c0.5656 2.4418 2.4238 5.6536 7.2191 9.6262 2e-3 8.2e-4 0.33093 0.24932 0.41894 0.29148 0.0871 0.0422 0.15584 0.0798 0.20901 0.0972 0.10542 0.0357 0.15583-0.011 0.209 0 0.10634 0.0229 0.14577 0.0889 0.20902 0.0972 0.12651 0.0165 0.17601-0.0128 0.31351 0 0.27502 0.0266 0.72696 0.0513 1.1514 0.0972 0.84796 0.0926 1.9673 0.20716 3.1388 0.48581 2.3422 0.55729 4.6752 1.7086 5.6497 3.4034 0.52436 0.91294 1.3347 1.1219 2.092 1.3612 0.75812 0.23833 1.5786 0.37582 2.5109 0.48581 1.8637 0.2209 4.1087 0.3474 6.2767 0.38864 2.168 0.0422 4.2581 0.0183 5.7542 0.0972 0.51243 0.0266 0.82962 0.0578 1.1514 0.0972 0.0862 0.57104 0.209 1.6545 0.209 3.5005 0 1.1293-0.0843 2.3337-0.31443 3.209-0.22917 0.87536-0.56011 1.3556-0.73245 1.4583l-0.20901 0.0972-0.1045 0.0972s-2.212 2.1009-3.0334 5.6399c-0.82229 3.5381-0.16134 8.6445 4.9172 14.099 5.0016 5.3713 14.167 12.404 22.175 18.961 4.006 3.2787 7.7187 6.4346 10.358 9.0432 1.3192 1.3043 2.3523 2.451 3.0334 3.4034 0.68203 0.95236 0.94146 1.6994 0.94146 1.8516-0.0248 0.18791-1.3219 10.483-1.9884 21.1-0.33552 5.3576-0.50785 10.727-0.20901 14.975 0.14942 2.1238 0.37586 3.9716 0.83696 5.4456 0.23101 0.73695 0.52069 1.3602 0.94146 1.945 0.42169 0.58479 1.012 1.1512 1.8829 1.3612 3.7769 0.9102 7.8113-0.94685 10.985-3.3062s5.702-5.2146 5.8587-8.2678c0.24567-4.7847-3.1691-8.5345-3.5568-8.9461-0.0917-0.32907-0.61329-2.3722-0.94147-4.9588-0.17693-1.396-0.33002-2.803-0.20901-3.9863 0.12101-1.1843 0.55278-2.066 0.83696-2.3337 0.39693-0.37398 0.94696-0.49955 1.9874-0.48672 1.0405 0.0128 2.41 0.18057 3.8713 0.48672 1.4603 0.30523 3.0499 0.74703 4.6019 0.87536 1.5529 0.12832 3.1617-0.0357 4.6019-0.87536 3.093-1.802 6.2135-5.7581 9.2038-9.3347 1.4961-1.7883 2.08-2.9726 4.0803-4.5702 1.9994-1.5976 4.1298 1.0385 7.0101 4.3759 2.9931 3.5766 6.1136 7.6298 9.2038 9.4319 1.4411 0.83961 3.0499 0.90652 4.6019 0.7782 1.5529-0.12833 3.1425-0.47297 4.6019-0.7782 1.4603-0.30523 2.8299-0.57013 3.8704-0.58296 1.0405-0.0128 1.5914 0.20898 1.9884 0.58296 0.28418 0.26765 0.61053 1.0523 0.73245 2.2365 0.12101 1.1842 0.0724 2.6875-0.10451 4.0835-0.34193 2.6921-0.9983 4.8873-1.046 5.056-0.51427 0.55362-3.6943 4.1678-3.4523 8.848 0.15676 3.0504 2.6851 5.9057 5.8587 8.2678 3.1736 2.3593 7.1036 4.2164 10.88 3.3062 0.87087-0.20991 1.5667-0.77636 1.9883-1.3612 0.42169-0.58479 0.71137-1.3052 0.94147-2.0422 0.46111-1.473 0.68753-3.2246 0.83696-5.3475 0.29976-4.2476 0.1265-9.7142-0.20901-15.072-0.66553-10.617-2.0672-20.814-2.0919-21.003 0-0.14758 0.25943-0.89552 0.94146-1.8516 0.68204-0.95235 1.7152-2.099 3.0334-3.4033 2.6392-2.6087 6.351-5.7645 10.358-9.0432 8.013-6.5565 17.283-13.687 22.283-19.058 5.0786-5.4547 5.7395-10.464 4.9172-14.002-0.82229-3.5381-3.0343-5.6399-3.0343-5.6399l-0.20902-0.0972-0.1045-0.0972c-0.17234-0.10357-0.60778-0.58387-0.83696-1.4583-0.22918-0.87536-0.31443-2.0798-0.31443-3.209 0-1.8057 0.22368-2.8928 0.31443-3.5005 0.32176-0.0394 0.63895-0.0706 1.1505-0.0972 1.4961-0.0789 3.5862-0.055 5.7542-0.0972s4.413-0.16866 6.2767-0.38864c0.9323-0.11091 1.7528-0.24749 2.5109-0.48672 0.75812-0.23831 1.5676-0.54538 2.0919-1.4583 0.97355-1.6948 3.3075-2.7489 5.6497-3.3062 1.1706-0.27864 2.2909-0.39322 3.1388-0.48671 0.42351-0.0467 0.77095-0.0715 1.046-0.0972 0.1375-0.0128 0.29243-0.0807 0.41893-0.0972 0.0624-8e-3 0.10267 0.0229 0.20901 0 0.0532-0.011 0.10267-0.0615 0.20901-0.0972 0.0532-0.0183 0.12192-0.055 0.20901-0.0972 0.0871-0.0422 0.4171-0.19341 0.41894-0.19432 4.7953-3.9726 6.6535-7.1844 7.2182-9.6262 0.28327-1.2209 0.15493-2.2961 0-3.0147-0.15492-0.71862-0.41894-1.264-0.41894-1.264-0.52252-0.80295-0.4446-1.3318 0-2.1394 0.44552-0.80844 1.3751-1.7067 2.5109-2.528 2.2175-1.6031 4.7871-2.6692 4.9172-2.7223 0-2e-3 0.1045-0.0972 0.1045-0.0972 15.302-5.485 22.927-10.289 26.676-13.905 1.8838-1.814 2.7923-3.3117 3.2433-4.473 0.2255-0.58113 0.27593-1.088 0.31443-1.4583 0.0339-0.32448 8e-3 -0.60497 0-0.68013v-0.0972c-1.1358-11.273-8.7509-19.485-19.25-25.282-10.529-5.8131-23.99-9.3604-37.35-11.571-13.359-2.2108-26.63-3.0386-36.724-3.4034-5.0465-0.18241-9.278-0.26031-12.345-0.29148-1.5337-0.0156-3.0032 0.0119-3.6623 0-0.6582-0.0119-0.80945-0.0862-1.046-0.0972s0.79571 0.23464-0.10451 0c-0.9002-0.23466-4.1949 0.30797-6.5912 1.3612-2.3954 1.0532-5.0887 2.5821-7.6371 4.1816s-4.9732 3.2292-6.9047 4.6674c-1.5822 1.1788-2.4641 1.956-3.2433 2.7223-0.0761 7e-3 -2.8822 0.17324-11.092 0.29149-0.4226-3.4492-2.0158-6.144-3.4523-7.2925-1.4365-1.1485-1.9168-0.71771-2.2496-1.1183-0.33277-0.40056 0.0485-1.4565 0.5757-2.869 1.1294-3.0303 3.5156-8.2861 8.4741-17.016" fill="#ffffff" fill-rule="evenodd" stroke-width=".81723"/>
 <circle cx="256" cy="256" r="181.13" fill="none" stroke="#fefefe" stroke-width="18.771"/>
</svg>
