<?xml version="1.0" encoding="UTF-8" standalone="no"?>
<svg
   xmlns:dc="http://purl.org/dc/elements/1.1/"
   xmlns:cc="http://creativecommons.org/ns#"
   xmlns:rdf="http://www.w3.org/1999/02/22-rdf-syntax-ns#"
   xmlns:svg="http://www.w3.org/2000/svg"
   xmlns="http://www.w3.org/2000/svg"
   xmlns:sodipodi="http://sodipodi.sourceforge.net/DTD/sodipodi-0.dtd"
   xmlns:inkscape="http://www.inkscape.org/namespaces/inkscape"
   height="512"
   viewBox="0 0 512 512"
   width="512"
   id="svg2"
   version="1.1"
   inkscape:version="0.91 r13725"
   sodipodi:docname="geany.svg">
  <metadata
     id="metadata34">
    <rdf:RDF>
      <cc:Work
         rdf:about="">
        <dc:format>image/svg+xml</dc:format>
        <dc:type
           rdf:resource="http://purl.org/dc/dcmitype/StillImage" />
        <dc:title></dc:title>
      </cc:Work>
    </rdf:RDF>
  </metadata>
  <defs
     id="defs32" />
  <sodipodi:namedview
     pagecolor="#ffffff"
     bordercolor="#666666"
     borderopacity="1"
     objecttolerance="10"
     gridtolerance="10"
     guidetolerance="10"
     inkscape:pageopacity="0"
     inkscape:pageshadow="2"
     inkscape:window-width="640"
     inkscape:window-height="480"
     id="namedview30"
     showgrid="false"
     inkscape:zoom="1.627451"
     inkscape:cx="256"
     inkscape:cy="256"
     inkscape:current-layer="svg2" />
  <path
     d="m 471.95,253.05 c 0,120.9 -98.01,218.9 -218.9,218.9 -120.9,0 -218.9,-98.01 -218.9,-218.9 0,-120.9 98.01,-218.9 218.9,-218.9 120.9,0 218.9,98.01 218.9,218.9"
     id="path8"
     inkscape:connector-curvature="0"
     style="fill:#d7da42;fill-rule:evenodd;fill-opacity:1" />
  <path
     inkscape:connector-curvature="0"
     id="path3761"
     d="m 142.46413,47.11649 c -0.29283,0.09765 -0.50447,0.287807 -0.65052,0.570882 0.29449,-0.262266 0.65052,-0.570882 0.65052,-0.570882 z M 261.6045,175.2979 c -9.1971,0 -16.66156,7.4512 -16.66156,16.64834 0,0.73335 0.0541,1.44241 0.146,2.15072 -21.83191,7.12334 -46.67897,23.48554 -46.67897,23.48554 l -16.51557,0 c -14.70134,-0.66345 -29.90546,-34.69551 -54.3129,-38.07605 l -28.955281,4.32803 c 31.482461,5.52766 36.968751,28.69812 40.638381,52.54709 2.36992,15.40233 3.9848,31.09066 11.37766,42.49703 17.55043,23.39813 51.57264,39.08224 87.10497,43.9442 l -4.87233,12.55915 -42.15185,10.54131 126.42898,0 -42.1386,-10.54131 -4.7396,-11.21836 c 34.9098,-2.03023 66.79635,-15.74994 80.87843,-44.2229 7.25623,11.72417 20.5539,29.84784 31.4513,25.72926 34.56524,-13.06383 40.65346,-90.33685 9.65176,-110.44451 -12.61801,-8.18399 -39.44353,21.91896 -39.44353,21.91896 l 0.0665,0.4381 -27.24276,0 c 0,0 -25.47617,-16.76459 -47.50212,-23.73778 0.0712,-0.62528 0.11948,-1.25416 0.11948,-1.89848 0,-9.19714 -7.45113,-16.64834 -16.6483,-16.64834 z m 111.42693,42.93514 c 2.38305,-0.0295 4.71976,1.20083 7.26208,3.47836 14.84465,13.44778 12.9662,43.50543 0.47793,54.63145 -2.53738,2.15998 -5.60611,4.07373 -8.68265,2.89421 -6.15916,-2.43991 -11.88573,-14.29832 -14.40461,-20.17979 1.31144,-8.26248 1.45239,-17.38781 0.23894,-27.40202 1.86112,-2.74537 4.59238,-6.42755 7.58071,-9.34642 2.71161,-2.74863 5.14454,-4.04628 7.5276,-4.07579 z"
     style="fill:#ffffff;fill-opacity:1;stroke:none"
     sodipodi:nodetypes="cccsscccccsccccccccssccccssssccccccs" />
<circle cx="256" stroke="#fefefe" cy="256" r="181.13" stroke-width="18.771" fill="none" /></svg>
