<svg height="512" viewBox="0 0 512 512" width="512" xmlns="http://www.w3.org/2000/svg">
 <path d="m471.95 253.05c0 120.9-98.01 218.9-218.9 218.9-120.9 0-218.9-98.01-218.9-218.9 0-120.9 98.01-218.9 218.9-218.9 120.9 0 218.9 98.01 218.9 218.9" fill="#e46431" fill-rule="evenodd"/>
 <path d="m357.89 127.33l-262.23 204.54h40.974v-24.545h8.195v24.545h24.584v-24.545h8.195v24.545h24.584v-24.545h8.195v24.545h24.584v-24.545h8.195v24.545h24.584v-24.545h8.195v24.545h24.584v-24.545h8.195v24.545h24.584v-24.545h8.195v24.545h16.39v-204.53m-40.974 89.998v73.63h-98.34z" fill="#ffffff" fill-rule="evenodd"/>
 <circle cx="256" stroke="#fefefe" cy="256" r="181.13" stroke-width="18.771" fill="none"/>
</svg>
