<svg width="512" height="512" version="1.1" viewBox="0 0 512 512" xmlns="http://www.w3.org/2000/svg">
 <path d="m471.95 253.05c0 120.9-98.01 218.9-218.9 218.9-120.9 0-218.9-98.01-218.9-218.9 0-120.9 98.01-218.9 218.9-218.9 120.9 0 218.9 98.01 218.9 218.9" fill="#d85c85" fill-rule="evenodd"/>
 <path d="m256 93.493c-81.615 0-147.33 65.71-147.33 147.33 0 81.616 65.711 147.32 147.33 147.32 81.616 0 147.32-65.7 147.32-147.32 0-81.616-65.7-147.33-147.32-147.33zm-52.626 73.663a21.045 21.045 0 0 1 21.047 21.047 21.045 21.045 0 0 1-21.047 21.047 21.045 21.045 0 0 1-21.047-21.047 21.045 21.045 0 0 1 21.047-21.047zm105.23 0a21.045 21.045 0 0 1 21.036 21.047 21.045 21.045 0 0 1-21.036 21.047 21.045 21.045 0 0 1-21.047-21.047 21.045 21.045 0 0 1 21.047-21.047zm-52.616 52.606a42.092 31.569 0 0 1 42.083 31.57 42.092 31.569 0 0 1-42.083 31.57 42.092 31.569 0 0 1-42.093-31.57 42.092 31.569 0 0 1 42.093-31.57zm-21.047 21.047a10.523 10.523 0 0 0-10.523 10.523 10.523 10.523 0 0 0 10.523 10.523 10.523 10.523 0 0 0 10.523-10.523 10.523 10.523 0 0 0-10.523-10.523zm42.093 0a10.523 10.523 0 0 0-10.523 10.523 10.523 10.523 0 0 0 10.523 10.523 10.523 10.523 0 0 0 10.523-10.523 10.523 10.523 0 0 0-10.523-10.523zm-77.096 34.797h7.8925a64.783 77.742 0 0 0 48.157 25.918 64.783 77.742 0 0 0 48.136-25.918h7.862a64.783 77.742 0 0 1-55.998 38.866 64.783 77.742 0 0 1-56.049-38.866z" fill="#fffefd" stroke-width="5.2616"/>
</svg>
