<svg xmlns="http://www.w3.org/2000/svg" height="512" width="512" version="1.1" viewBox="0 0 512 512">
 <path fill-rule="evenodd" d="m471.95 253.05c0 120.9-98.01 218.9-218.9 218.9-120.9 0-218.9-98.01-218.9-218.9 0-120.9 98.01-218.9 218.9-218.9 120.9 0 218.9 98.01 218.9 218.9" fill="#0080a2"/>
 <path d="m243.81 130.6c-10.075 1.5354-20.049 4.0028-29.715 7.4116-9.8163 4.0164-19.157 9.5488-27.477 16.415-7.5069 6.2641-14.681 13.163-20.024 21.672-5.8406 7.9745-10.301 17.059-13.725 26.484-3.8248 9.822-4.7686 20.606-5.2884 31.134-0.97534 11.3 0.31054 22.866 3.4507 33.699 3.0644 10.913 7.8232 21.34 14.04 30.594 2.9873 4.312 4.9863 9.4956 5.1148 14.904 8.6434 0.24266 15.025 7.6824 21.468 12.958 8.3242 5.6426 17.364 10.262 26.747 13.54 12.21 4.8115 25.193 6.5041 38.053 8.0046 9.4608 1.1023 19.057 2.6325 28.541 0.91848 9.0895-1.255 18.297-2.7729 26.851-6.3984 8.9422-3.9912 16.982-10.021 24.221-16.852 7.0093-6.4399 12.354-14.577 16.984-23.064 5.4363-8.7342 8.4408-18.838 9.8764-29.157 1.7878-9.6776 1.7576-19.904 0.86654-29.716-1.5976-10.683-4.5787-21.023-8.0494-31.162-3.6222-9.9353-8.6951-19.191-15.019-27.431-6.3427-9.3304-13.823-17.634-21.128-26.082-6.5917-7.5753-14.964-13.358-23.63-17.831-8.1608-4.3881-17.125-6.497-26.119-7.7972-8.5967-1.3363-17.332-3.0122-26.038-2.2428zm11.672 10.253c9.9489 0.60892 20.176 1.6823 29.443 5.8649 8.6251 4.1815 17.181 9.0282 24.241 15.887 9.2972 8.3481 17.368 18.129 24.395 28.701 5.874 7.8276 9.5954 17.248 13.204 26.446 2.8024 10.631 6.6254 21.148 6.9596 32.312 0.77336 11.045-0.85657 22.151-4.0921 32.628-3.0731 9.4242-7.9816 18.239-13.71 26.121-3.6664 5.2111-8.4309 9.3617-13.4 13.073 0.43303-9.602-1.1891-19.213-0.15398-28.782 1.1384-10.396 6.8469-19.484 8.2346-29.853 2.0868-9.572 0.7834-19.747-1.5732-29.165-2.4632-6.1605-1.9196-14.239 3.9675-17.935-1.2092-8.482-10.272-10.809-14.459-17.287-7.8492-7.5996-15.63-15.276-22.979-23.434-2.1041-1.7967-4.5925-5.7767-6.5569-6.3789 0.89239 3.9988-6.3037 3.6904-6.5843 0-7.5597-5.0816-16.639-6.2416-25.347-6.8727-11.07-0.64594-22.227 1.1347-32.715 4.9502-9.592 4.0858-17.622 11.031-25.739 17.623-7.6684 7.912-14.643 17.037-17.957 28.035-3.6592 9.171-4.7894 19.092-4.7888 28.95-0.32898 10.965 4.4214 20.762 7.9428 30.693 3.5308 9.3072-2.6472 18.108-7.3443 25.427-5.1982-9.0097-11.46-17.613-14.366-27.876-3.916-10.544-4.7996-22.047-5.3872-33.275 0.28692-10.072 1.936-20.18 5.043-29.702 3.0509-9.1198 7.4401-17.758 13.077-25.346 5.7958-8.7242 13.337-15.941 21.385-22.219 8.7431-5.4476 17.523-11.448 27.534-13.778 9.1885-3.2499 18.901-4.5186 28.546-4.7978 1.0586-0.0543 2.1196 0.0209 3.1787-0.009zm-112.23 20.186c-9.364 5.0963-12.455 16.615-16.106 26.293-3.4117 10.524-6.5088 21.279-7.5655 32.404-1.5542 11.123-1.1525 22.374-0.0711 33.52 0.94805 12.125 4.3218 23.813 7.8801 35.306 3.653 9.8245 8.4606 19.113 13.567 28.135 6.4584 10.939 15.493 19.678 24.144 28.578 7.6585 7.3707 16.851 12.526 25.819 17.797 8.6546 4.9599 18.17 7.821 27.664 10.295 6.5921 0.49113 12.813 6.1481 19.244 1.7061 8.5221-4.7329 3.0445-17.578-4.7886-19.225-9.4214-2.433-18.921-4.8627-27.943-8.7576-8.4979-3.611-16.453-8.5551-23.834-14.312-7.2566-6.7388-14.489-13.569-20.373-21.755-5.5903-7.5698-9.952-16.009-13.36-24.931-5.3212-12.524-8.0287-26.158-9.4984-39.77-1.0833-10.21 0.79079-20.439 2.097-30.533 1.7013-10.252 3.7446-20.725 8.8116-29.757 3.588-7.138 6.8541-16.559 0.8246-23.347-1.6545-1.6387-4.3083-2.3611-6.511-1.6446zm217.58 6.7286c-9.395 5.6521-4.5664 19.081-0.46342 27.014 4.7157 10.163 8.1659 20.886 11.537 31.621 1.098 9.1645 4.0613 18.228 2.9929 27.555-1.1276 9.6928-1.1279 19.574-3.6492 29.07-1.486 9.9658-6.8766 18.581-10.717 27.643-4.5151 9.8001-10.676 18.819-18.864 25.453-7.2744 6.7403-15.241 12.745-24.152 16.734-8.6282 4.4585-17.923 7.4516-27.513 8.1085-8.6388 1.8031-19.238-3.1959-26.14 4.4948-4.7438 9.6224 7.6793 18.489 15.812 15.559 10.034-0.9278 20.226-1.0584 29.979-4.0243 9.1573-1.4379 17.574-6.2234 25.472-11.191 11.114-7.3682 21.59-16.139 29.82-27.096 5.785-7.2789 11.082-15.116 14.741-23.872 5.4681-11.7 8.0654-24.573 11.074-37.168 1.3158-10.636 2.5688-21.297 2.6936-32.041-0.91271-11.062-2.6583-21.962-5.3872-32.682-2.8859-10.823-7.7093-20.877-11.373-31.4-3.7548-5.7599-8.0386-15.279-15.862-13.778zm-107.44 4.1653c8.815-0.23211 17.765 2.1164 25.48 6.6649 7.1441 3.6808 16.348 9.0421 15.522 18.968-7.3247 3.7415-10.785-6.923-16.76-9.2919-7.787-4.6804-16.871-5.7079-25.646-5.9172-8.4921-0.38612-17.031 1.9528-24.754 5.6769-8.4007 4.1328-15.527 10.938-21.728 18.183-5.2527 6.2386-6.3176 17.367-15.451 19.099-1.1672 0.32419-3.8759 0.77564-2.2404-1.7266 0.80563-9.067 6.4193-16.388 11.199-23.503 5.7081-7.865 13.393-13.84 21.181-19.15 8.5088-5.3924 18.468-8.1435 28.25-9.2155 1.6445-0.3081 3.298 0.1991 4.9471 0.21282zm0.89787 19.865c8.9705 1.7067 17.963 4.535 25.31 10.463 4.6405 3.4331 4.3288 10.053 1.3265 14.529-5.1253 8.6025 5.8887 14.206 8.6793 21.147 2.412 5.7298 6.2906 10.62 9.2779 16.02-3.1086 9.4827-10.684 16.141-17.969 21.958-6.2539 5.4048-14.148 8.1928-22.135 8.4814-8.8768-0.20095-18.061-1.1588-26.277-4.9663-8.1552-3.1534-14.494-10.145-19.608-17.405-2.3546-4.6248-8.193-9.2942-5.5924-15.117 8.9593 0.41432 15.922 10.349 25.439 9.2919 3.877-7.6963 2.2616-16.759 1.1972-24.992h-17.359c6.0855-10.894 12.171-21.788 18.257-32.682-6.4845 3.9517-12.969 7.9035-19.454 11.855 6.1425-6.3376 13.073-12.106 21.127-15.29 5.8099-1.7493 11.67-3.6479 17.78-3.2937zm62.85 38.77c1.8551 1.5864 1.5514 6.1328 2.645 8.7633 1.0231 3.934 0.84501 8.17-0.25059 12.063-6.9916-3.144-10.917-15.198-3.2921-19.865l0.59854-0.96123h0.29934zm-130.79 3.5245c7.863 4.0638 11.287 13.848 10.774 22.749 0.51523 3.1431-1.3312 8.1896-5.0879 6.4082-6.2372-2.6024-3.2545-11.356-5.5713-16.717-0.86721-4.2028-1.2041-8.464-1.013-12.761l0.89786 0.32044zm41.002 54.47c10.604 2.7321 21.152 7.027 32.188 6.7286 7.5464-0.3519 16.113-1.2339 22.282 4.4857 0.21727 5.513-6.8116 3.7292-10.125 4.9556-9.4688 0.725-19.232 1.8543-28.483-1.1107-9.3655-2.402-19.548-4.413-26.936-11.535-1.8932-1.7127 2.6138-1.7537 3.2921-2.8837 2.5233-0.81995 5.1741-1.2133 7.7815-0.6408zm-22.746 9.9327c8.789 3.2133 16.296 9.8839 25.544 11.803 9.8548 3.8055 20.157 5.9534 30.616 6.4953 10.192 1.3302 20.327-0.93909 29.955-4.2475 10.274-2.7309 19.373 4.4284 26.971 10.869l1.2412 1.0335c-7.5061 7.2575-18.091 8.984-27.534 11.855-9.4346 2.5525-19.327 2.445-28.98 1.773-10.083-0.69924-19.968-3.1678-29.894-5.0548-9.6312-2.1322-18.977-5.8544-27.725-10.64-6.6648-4.2509-15.227-7.9886-18.151-16.197 5.5868-2.6502 11.207-8.3094 17.957-7.6898z" overflow="visible" fill="#ffffff"/>
 <circle r="181.13" cy="256" stroke="#fefefe" cx="256" stroke-width="18.771" fill="none"/>
</svg>
