<svg xmlns="http://www.w3.org/2000/svg" height="512" width="512" version="1.1" viewBox="0 0 512 512">
 <path fill-rule="evenodd" d="m471.95 253.05c0 120.9-98.01 218.91-218.91 218.91s-218.91-98.01-218.91-218.91 98.01-218.91 218.91-218.91 218.91 98.01 218.91 218.91" fill="#f78914"/>
 <path fill="#ffffff" d="m253.88 101.66c-65.723 0-121.66 41.874-142.6 100.4-0.21927 4.7124-0.22756 9.4814-0.0215 14.331 2.6657 62.666 53.771 125.56 123.42 118.02 39.792-4.3077 71.609-42.146 51.294-74.438-6.4547-10.259-22.132-11.143-29.504-6.2251 35.421-0.99946 18.129 41.196-12.99 47.639-42.517 8.7988-75.15-32.282-78.097-70.509-5.5036-71.436 63.579-122.03 129.65-121.8 2.0819 0.008 4.15 0.0657 6.2036 0.15147-14.899-4.9019-30.818-7.5655-47.359-7.5655m36.029 73.469c-2.0363-0.0262-4.15 0.0325-6.2251 0.13004-2.1393 0.10027-4.3299 0.30502-6.5059 0.54019-39.792 4.3077-71.609 42.146-51.294 74.445 6.4547 10.259 22.132 11.143 29.504 6.225-35.421 0.99947-18.129-41.196 12.99-47.639 42.517-8.7988 75.15 32.282 78.097 70.509 5.3667 69.658-60.21 119.5-124.74 121.71 10.358 2.239 21.113 3.4369 32.142 3.4369 70.447 0 129.66-48.127 146.57-113.28-3.6991-57.934-48.356-115.27-110.54-116.07"/>
 <circle stroke-width="18.771" stroke="#fefefe" cy="252.93" cx="251.4" r="181.13" fill="none"/>
</svg>
