<svg width="512" height="512" version="1.1" viewBox="0 0 512 512" xmlns="http://www.w3.org/2000/svg">
 <path d="m471.95 253.05c0 120.9-98.01 218.9-218.9 218.9-120.9 0-218.9-98.01-218.9-218.9 0-120.9 98.01-218.9 218.9-218.9 120.9 0 218.9 98.01 218.9 218.9" fill="#1abf10" fill-rule="evenodd"/>
 <path d="m264.34 106.91a145.66 145.71 0 0 0-65.434 13.471c-0.4489-1.3864-1.0817-3.404-1.5173-4.7432l-56.14-1.1383s5.5065 15.483 13.466 37.756a145.66 145.71 0 0 0-40.209 100.37 145.66 145.71 0 0 0 19.915 73.424c-5.7494 14.89 2.593 48.643 22.191 55.78 26.387 9.6095 49.126 14.482 78.9 14.419 0.25888-5.2e-4 0.49856 9.2e-4 0.7587 0a145.66 145.71 0 0 0 74.917-7.3993c14.639-2.2722 30.23-4.7962 48.364-8.1582 10.133-1.8787 18.904-22.875 14.983-38.325a145.66 145.71 0 0 0 31.294-89.741 145.66 145.71 0 0 0-141.49-145.71zm-15.173 12.901c-14.18 13.356-12.034 62.85-14.794 96.76-1.3345 0.0464-2.8716 0.0742-4.3623 0.19003-9.3095-28.526-18.245-56.102-26.173-80.824 14.246-8.4366 29.686-14.17 45.329-16.127zm-91.797 7.7788 31.863 0.19002c17.659 52.109 67.303 208.94 75.486 210.98 11.788 2.9341 58.349-8.1758 88.762-3.6048 23.446 3.5239 9.1149 35.092-2.6553 37.186-85.376 15.191-145.88 17.278-186.63 3.0356-21.062-7.361-24.452-54.318-5.5002-46.104 16.011 6.9402 55.543 12.868 68.089 9.6761 6.9886-1.7782-69.417-211.36-69.417-211.36zm4.5519 44.775c6.1087 17.258 12.739 36.039 19.346 55.4-28.569 10.43-55.136 28.457-53.106 55.4-8.7561-35.702 6.5655-78.057 33.76-110.8zm109.25 44.586c54.373-0.67388 125.46 12.251 116.26 56.918 1.0292 16.758-7.1964 37.162-21.811 55.78-2.473-1.5782-5.3233-2.8528-8.9141-3.4151-39.73-6.222-67.863 6.081-83.262 2.087-5.8043-1.5055-20.864-43.467-37.174-92.587 0.26749-5.4654 0.60118-10.997 1.1379-16.506 9.5542-1.3958 21.212-2.1212 33.76-2.2767z" fill="#ffffff" stroke-width="6.621"/>
<circle cx="256" stroke="#fefefe" cy="256" r="181.13" stroke-width="18.771" fill="none" /></svg>
