<svg height="512" viewBox="0 0 512 512" width="512" xmlns="http://www.w3.org/2000/svg">
 <path d="m471.95 253.05c0 120.9-98.01 218.9-218.9 218.9-120.9 0-218.9-98.01-218.9-218.9 0-120.9 98.01-218.9 218.9-218.9 120.9 0 218.9 98.01 218.9 218.9" fill="#cccccc" fill-rule="evenodd"/>
 <path d="m256 256v215.91c118.54-1.58 214.34-97.36 215.91-215.91z" fill="#2d88c8"/>
 <path d="m253.03 34.16c-120.9 0-218.91 98.01-218.91 218.91 0 .987.049 1.954.063 2.938h221.81v-221.81c-.988-.013-1.977-.031-2.969-.031" fill="#fdcf41"/>
 <path d="m321.21 359.59v39.3h23.279c7.808 0 13.58-1.605 17.316-4.814 3.784-3.257 5.676-8.215 5.676-14.873 0-6.706-1.892-11.64-5.676-14.801-3.736-3.209-9.508-4.814-17.316-4.814h-23.28m0-44.12v32.33h21.483c7.089 0 12.358-1.317 15.807-3.952 3.497-2.682 5.245-6.754 5.245-12.215 0-5.413-1.748-9.46-5.245-12.143-3.449-2.682-8.718-4.02-15.807-4.02h-21.48m-14.514-11.927h37.07c11.06 0 19.591 2.299 25.579 6.898 5.987 4.599 8.981 11.137 8.981 19.615 0 6.562-1.533 11.784-4.598 15.663-3.066 3.88-7.568 6.299-13.508 7.257 7.137 1.533 12.669 4.742 16.597 9.628 3.976 4.838 5.964 10.897 5.964 18.18 0 9.58-3.257 16.981-9.772 22.2-6.514 5.221-15.783 7.832-27.806 7.832h-38.512v-107.27" fill="#ffffff"/>
 <circle cx="256" stroke="#fefefe" cy="256" r="181.13" stroke-width="18.771" fill="none"/>
</svg>
