<svg viewBox="0 0 512 512" xmlns="http://www.w3.org/2000/svg">
 <path d="m471.95 253.05c0 120.9-98.01 218.91-218.91 218.91-120.9 0-218.91-98.01-218.91-218.91 0-120.9 98.01-218.91 218.91-218.91 120.9 0 218.91 98.01 218.91 218.91" fill="#f8963a" fill-rule="evenodd"/>
 <path d="m255.99 104.75l-149.58 149.58 149.58 149.58 149.62-149.58zm-8.954 51.27h20.405v26.21c3.03.916 5.575 1.851 7.655 2.802 2.079.952 4.902 2.505 8.426 4.69l3.98-7.492h11.533l12.365 47.897-19.431 5.604c-5.075-13.181-13.25-22.841-24.527-28.974v30.354c13.885 3.947 23.99 7.958 30.334 12.08 6.344 4.123 11.169 9.222 14.517 15.248 3.348 6.03 5.01 12.276 5.02 18.761 0 6.978-1.967 13.692-5.949 20.14-3.983 6.449-9.871 11.847-17.624 16.182-7.753 4.335-16.496 6.848-26.294 7.553v25.583h-20.405v-27.37c-8.106-1.903-16.59-6.05-25.4-12.467l-5.056 12.467h-11.533l-10.375-55.714 20.2-4.853c3.665 8.04 7.215 14.327 10.599 18.944 3.383 4.617 7.182 8.637 11.411 12.02 3.101 2.537 6.487 4.457 10.152 5.726v-35.23c-15.15-5.075-25.568-9.508-31.21-13.279-5.639-3.771-10.06-8.565-13.299-14.416-3.242-5.85-4.893-11.775-4.893-17.766 0-6.837 2.02-13.432 6.071-19.776 4.053-6.343 9.663-11.391 16.852-15.13 7.189-3.736 16.04-5.81 26.476-6.233v-23.573zm0 46.943c-5.78.775-9.887 2.024-12.284 3.716-3.454 2.467-5.178 5.419-5.177 8.873 0 2.89 1.254 5.667 3.756 8.345 2.502 2.679 7.079 5.155 13.705 7.411v-28.344m20.405 69.34v31.755c5.498-.705 9.879-2.273 13.157-4.67 3.277-2.396 4.893-5.617 4.893-9.705 0-3.595-1.208-6.712-3.675-9.319-3.383-3.454-8.173-6.158-14.375-8.06m-141.6 10.639l-22.761 22.761 101.58 101.56 22.761-22.761c-33.826-33.887-67.69-67.73-101.58-101.56m260.32 0c-33.889 33.816-67.73 67.68-101.56 101.56l22.761 22.761 101.56-101.56z" fill="#ffffff" fill-rule="evenodd"/>
 <circle cx="256" stroke="#fefefe" cy="256" r="181.13" stroke-width="18.771" fill="none"/>
</svg>
