<svg height="512" viewBox="0 0 512 512" width="512" xmlns="http://www.w3.org/2000/svg">
 <path d="m471.95 253.05c0 120.9-98.006 218.91-218.91 218.91s-218.91-98.006-218.91-218.91 98.006-218.91 218.91-218.91 218.91 98.006 218.91 218.91" fill="#f37257" fill-rule="evenodd"/>
 <path d="m256 100.47c-21.625 0-42.176 4.4454-60.887 12.42l117.05 105.44v-107.33c-17.43-6.76-36.34-10.53-56.16-10.53zm73.443 18.361v180.37h76.008c3.952-13.707 6.0752-28.223 6.0752-43.202 0-59.332-33.225-110.94-82.083-137.17zm-151.07 2.4301c-46.53 26.88-77.9 77.14-77.9 134.74 0 16.302 2.5037 32.081 7.1553 46.847l137.03-121.91-66.29-59.68zm4.1852 138.11l-68.178 60.617c14.13 31.205 38.134 57.048 68.178 73.173zm17.281 57.107v84.513c17.433 6.7596 36.342 10.53 56.162 10.53 64.421 0 119.63-39.223 143.24-95.044h-199.4z" fill="#ffffff"/>
 <circle cx="256" stroke="#fefefe" cy="256" r="181.13" stroke-width="18.771" fill="none"/>
</svg>
