<svg width="512" height="512" version="1.1" viewBox="0 0 512 512" xmlns="http://www.w3.org/2000/svg">
 <path d="m471.95 253.05c0 120.9-98.01 218.9-218.9 218.9-120.9 0-218.9-98.01-218.9-218.9 0-120.9 98.01-218.9 218.9-218.9 120.9 0 218.9 98.01 218.9 218.9" fill="#419111" fill-rule="evenodd"/>
 <path d="m251.97 113.93c-30.532 5e-3 -61.06 20.353-61.06 50.879v40.705h-20.351c-10.176 0-20.353 10.177-20.353 20.353v132.29c0 10.176 10.177 20.353 20.353 20.353h162.82c10.176 0 20.353-10.177 20.353-20.353v-132.29c0-10.176-10.177-20.353-20.353-20.353h-20.353v-40.705c0-30.532-30.531-50.883-61.058-50.879zm-4e-3 25.436c21.075 0 38.161 14.807 38.161 33.073 0.173 22.897-9.8816 41.447-38.161 53.424 5.4646-6.0243 9.393-13.341 10.177-21.624-3.175 0.74286-6.737 1.2725-10.177 1.2725-22.255 0-37.968-10.176-38.161-33.073 0-18.266 17.086-33.073 38.161-33.073zm0 96.674c16.867 0 30.53 13.206 30.53 29.511 0 11.983-7.3842 22.284-17.991 26.907 12.003 4.7936 28.166 15.183 28.166 35.167v10.177c0 6.2177-4.5678 10.177-10.175 10.177h-61.058c-5.6783 0-10.177-2.7378-10.177-10.177v-10.177c0-19.984 16.163-30.374 28.166-35.167-10.607-4.6235-17.989-14.925-17.989-26.907 0-16.305 13.661-29.511 30.528-29.511z" fill="#ffffff" stroke-width=".51983"/>
</svg>
