<svg height="512" viewBox="0 0 512 512" width="512" xmlns="http://www.w3.org/2000/svg">
 <path d="m471.95 253.05c0 120.9-98.01 218.9-218.9 218.9-120.9 0-218.9-98.01-218.9-218.9 0-120.9 98.01-218.9 218.9-218.9 120.9 0 218.9 98.01 218.9 218.9" fill="#dc6c32" fill-rule="evenodd"/>
 <path d="m282.44319 143.02343c-37.63714.0379-72.13912 20.97566-89.54239 54.34792-5.62333-2.50206-11.71422-3.79101-17.86828-3.80365-24.03501.0253-43.64717 19.23306-44.1779 43.25542-23.02408 10.02091-37.922748 32.72906-37.960656 57.83818 0 34.89498 28.288516 63.1835 63.183506 63.1835h189.55049c41.87423 0 75.8202-33.94597 75.8202-75.8202-.0379-28.97596-16.59199-55.38666-42.63623-68.0739-13.18008-42.15603-52.20221-70.87925-96.36747-70.9298zm-25.27339 50.5468l63.18349 63.1835h-37.9101v63.1835h-50.54679v-63.1835h-37.9101z" fill="#ffffff"/>
 <circle cx="256" stroke="#fefefe" cy="256" r="181.13" stroke-width="18.771" fill="none"/>
</svg>
