<svg viewBox="0 0 512 512" xmlns="http://www.w3.org/2000/svg">
 <path d="m471.95 253.05c0 120.9-98.01 218.91-218.91 218.91-120.9 0-218.91-98.01-218.91-218.91 0-120.9 98.01-218.91 218.91-218.91 120.9 0 218.91 98.01 218.91 218.91" fill="#68af4c" fill-rule="evenodd"/>
 <path d="m403.76 132.43c-.863-18.379-27.521-29.332-40.28-15.06-30.416 29.391-59.823 59.811-89.92 89.54 11.04 11.703 22.755 22.761 34.03 34.27 31.12-31.734 63.999-62.01 93.59-95.19 1.855-3.577 2.734-7.688 2.584-11.762.027-.608.028-1.209 0-1.802m-101.07 116.19l-.748-.782-.714-.714c-11.63-11.931-23.845-23.21-35.05-35.389-11.976 12.442-24.19 24.656-36.646 36.612 12.582 11.942 24.468 24.386 36.782 36.68 12.343-11.94 24.547-23.975 36.37-36.408m-39.09 46.03c-14.54-14.596-28.884-29.452-43.751-43.547-37.22 15.191-74.5 30.24-111.64 45.621 2.708 1.279 9.12 4.407 6.96 7.544-2.667 7.544 1.306 13.189 6.774 17.204 6.257 3.27 11.262 10.972 19.14 8.703 6.785-1.595 22.12-11.529 28.903-13.14-6.166 7.306-22.03 20.255-28.461 27.418 4.719 4.174 15.16 1.844 21.335 2.067-1.764 7.45-4.299 21.478 3.923 24.18 26.86 1.182 20.873 3.204 24.908 8.805 3.919 8.458 8.848 23.21 19.999 21.484 7.638-1.249 14.503-8.441 13.496-16.453 12.81-29.959 25.642-59.907 38.41-89.88" fill="#ffffff"/>
 <circle cx="256" stroke="#fefefe" cy="256" r="181.13" stroke-width="18.771" fill="none"/>
</svg>
