<svg height="512" viewBox="0 0 512 512" width="512" xmlns="http://www.w3.org/2000/svg">
 <path d="m471.95 253.05c0 120.9-98.01 218.9-218.9 218.9-120.9 0-218.9-98.01-218.9-218.9 0-120.9 98.01-218.9 218.9-218.9 120.9 0 218.9 98.01 218.9 218.9" fill="#6ea6c1" fill-rule="evenodd"/>
 <path d="m256 106c-82.84 0-150 67.16-150 150 0 82.84 67.16 150 150 150 82.84 0 150-67.16 150-150 0-82.84-67.16-150-150-150m0 50.15c55.14 0 99.84 44.707 99.84 99.85 0 55.14-44.703 99.85-99.84 99.85-55.14 0-99.84-44.707-99.84-99.85 0-55.14 44.703-99.85 99.84-99.85" fill="#ffffff" fill-rule="evenodd"/>
 <rect fill="#ffffff" fill-rule="evenodd" height="130.13" rx="25" width="50" x="231" y="190.94"/>
 <circle cx="256" stroke="#fefefe" cy="256" r="181.13" stroke-width="18.771" fill="none"/>
</svg>
