<svg height="512" viewBox="0 0 512 512" width="512" xmlns="http://www.w3.org/2000/svg">
 <path d="m471.95 253.05c0 120.9-98.01 218.9-218.9 218.9-120.9 0-218.9-98.01-218.9-218.9 0-120.9 98.01-218.9 218.9-218.9 120.9 0 218.9 98.01 218.9 218.9" fill="#8e468e" fill-rule="evenodd"/>
 <path d="m251.44181 89.206682c-24.13311.545597-50.46132 8.031682-79.30179 24.983218l56.70394 93.9694c18.74061-10.70888 35.78095-8.67876 52.33917 0l55.51125-93.9694c-26.46778-15.162503-54.21704-25.719149-85.25257-24.983218m3.17205 132.440278c-16.60896 0-30.13467 13.88098-30.13467 30.93404 0 17.05306 13.52571 30.93404 30.13467 30.93404 16.60896 0 30.13467-13.88098 30.13467-30.93404 0-17.05306-13.52571-30.93404-30.13467-30.93404m-158.996843 23.39721c-.647123 64.58334 24.285353 113.10332 74.936963 145.52192l57.49062-93.57611c-17.59863-12.63752-23.34643-28.89121-23.00385-47.97439m207.77063-2.77873l-107.85041 3.97142c-.29177 22.05224-10.21407 35.98396-25.7699 46.38837l55.11789 97.14149c66.81652-43.07673 78.75619-94.46425 78.51511-147.50128m0 0" fill="#ffffff"/>
 <circle cx="256" stroke="#fefefe" cy="256" r="181.13" stroke-width="18.771" fill="none"/>
</svg>
