<svg height="512" viewBox="0 0 512 512" width="512" xmlns="http://www.w3.org/2000/svg">
 <path d="m471.95 253.05c0 120.9-98.01 218.9-218.9 218.9-120.9 0-218.9-98.01-218.9-218.9 0-120.9 98.01-218.9 218.9-218.9 120.9 0 218.9 98.01 218.9 218.9" fill="#00abec" fill-rule="evenodd"/>
 <path d="m287.75 152.27c-22.678 8.448-37.01 30.2-35.39 54.01l.55 9.204-9.08-1.134c-33.01-4.319-61.86-18.948-86.34-43.51l-11.98-12.2-3.086 9.02c-6.539 20.05-2.354 41.27 11.247 55.52 7.245 7.854 5.624 8.988-6.905 4.292-4.342-1.484-8.161-2.618-8.527-2.051-1.256 1.323 3.086 18.381 6.539 25.13 4.708 9.393 14.334 18.57 24.848 24.02l8.893 4.292-10.515.188c-10.175 0-10.515.188-9.442 4.13 3.636 12.2 17.969 25.13 33.925 30.77l11.247 3.941-9.782 5.992c-14.517 8.637-31.571 13.496-48.625 13.873-8.161.187-14.883.945-14.883 1.512 0 1.862 22.13 12.362 35.02 16.492 38.633 12.2 84.54 6.937 119.01-13.873 24.482-14.818 48.991-44.27 60.42-72.77 6.173-15.196 12.346-42.943 12.346-56.28 0-8.61.523-9.744 10.698-20.05 5.99-5.992 11.613-12.578 12.686-14.44 1.831-3.563 1.648-3.563-7.611-.378-15.432 5.614-17.603 4.885-9.966-3.563 5.624-5.992 12.32-16.869 12.32-20.05 0-.567-2.72.351-5.807 2.051-3.27 1.862-10.515 4.697-15.955 6.37l-9.809 3.185-8.893-6.181c-4.891-3.374-11.77-7.126-15.406-8.26-9.259-2.618-23.41-2.24-31.754.756" fill="#ffffff"/>
 <circle cx="256" stroke="#fefefe" cy="256" r="181.13" stroke-width="18.771" fill="none"/>
</svg>
