<?xml version="1.0" encoding="UTF-8"?>
<svg width="512" height="512" version="1.1" viewBox="0 0 512 512" xmlns="http://www.w3.org/2000/svg">
 <path d="m471.95 253.05c0 120.9-98.01 218.9-218.9 218.9-120.9 0-218.9-98.01-218.9-218.9 0-120.9 98.01-218.9 218.9-218.9 120.9 0 218.9 98.01 218.9 218.9" fill="#1a8162" fill-rule="evenodd"/>
 <path d="m359.69 145.63-57.003 23.753v109.26c0 15.895-5.8505 29.583-15.364 39.579-10.389 10.916-25.154 17.424-41.639 17.424-31.58 0-57.003-23.751-57.003-57.003v-61.754l-57.003 23.751v57.003c0 37.176 23.766 69.16 61.122 84.784 15.531 6.4949 33.355 10.224 52.884 10.224 66.504 0 114.01-42.373 114.01-95.008v-23.751z" fill="#ffffff" stroke-width="9.5008" style="paint-order:normal"/>
 <circle cx="256" cy="256" r="181.13" fill="none" stroke="#fefefe" stroke-width="18.771"/>
</svg>
