<svg viewBox="0 0 512 512" xmlns="http://www.w3.org/2000/svg">
 <path d="m471.95 253.05c0 120.9-98.01 218.91-218.91 218.91s-218.91-98.01-218.91-218.91 98.01-218.91 218.91-218.91 218.91 98.01 218.91 218.91" fill="#ffcc67" fill-rule="evenodd"/>
 <path d="m179.13 46.969v412.19c-84.53-30.31-145-111.13-145-206.09 0-94.97 60.47-175.78 145-206.09" fill="#cd1d31"/>
 <path d="m326.94 46.969v412.19c84.53-30.31 145-111.13 145-206.09 0-94.97-60.47-175.78-145-206.09" fill="#66ae4a"/>
 <path d="m94.48 126.91v258.19h71v-258.19zm126 93.31v164.88h71v-164.87h-71m126 103.94v60.938h71.03v-60.938z" fill="#ffffff"/>
 <circle cx="256" stroke="#fefefe" cy="256" r="181.13" stroke-width="18.771" fill="none"/>
</svg>
