<svg height="512" viewBox="0 0 512 512" width="512" xmlns="http://www.w3.org/2000/svg">
 <path d="m471.95 253.05c0 120.9-98.01 218.9-218.9 218.9-120.9 0-218.9-98.01-218.9-218.9 0-120.9 98.01-218.9 218.9-218.9 120.9 0 218.9 98.01 218.9 218.9" fill="#99c1c3" fill-rule="evenodd"/>
 <path d="m350.39 129.47c-91.08 1.382-142.06 53.31-168.93 103.86-24.603 46.28-28.28 84.54-29.02 91.95h-112.08c2.745 6.691.098 13.24 3.507 19.551h116.21c2.771-.013 5.513-1.269 7.332-3.36 1.05-1.22 1.792-2.704 2.138-4.277.025-.407.025-.815 0-1.222 0 0 4.584-46.33 29.326-92.87 23.08-43.41 64.13-85.37 137.47-91.95-43.636 87.29 2.138 188.18 2.138 188.18.37.442.78.852 1.222 1.222 1.699 2.503 4.615 4.137 7.637 4.277h114.65c3.409-6.311 2.647-12.86 5.393-19.551h-112.72c-3.757-8.347-45.933-104.78 4.582-180.84 1.318-2.282 1.657-5.108.916-7.637-.346-1.573-1.088-3.056-2.138-4.277-1.942-2.059-4.811-3.207-7.637-3.055" fill="#ffffff"/>
 <circle cx="256" stroke="#fefefe" cy="256" r="181.13" stroke-width="18.771" fill="none"/>
</svg>
