<svg height="512" viewBox="0 0 512 512" width="512" xmlns="http://www.w3.org/2000/svg">
 <path d="m471.95 253.05c0 120.9-98.01 218.91-218.91 218.91-120.9 0-218.91-98.01-218.91-218.91 0-120.9 98.01-218.91 218.91-218.91 120.9 0 218.91 98.01 218.91 218.91" fill="#e5564f" fill-rule="evenodd"/>
 <path d="m248.47 173.38l1.938 5.03c.331.867.647 1.721.969 2.563.011.031.02.063.031.094 18.405 51.711 36.835 103.42 55.28 155.13l.906 2.438h42.5l-1.75-4.938c-18.712-52.64-37.482-105.25-56.25-157.87l-.906-2.438h-42.719m107.53 0l-.875 2.438c-9.09 25.497-18.19 50.998-27.28 76.5 7.087 19.924 14.179 39.832 21.281 59.75l1.094-3.063c15.207-42.647 30.383-85.29 45.563-127.94.011-.031.02-.063.031-.094.322-.841.669-1.696 1-2.563l1.906-5.03h-42.71m-127.53.094v165.1h33.22v-105.6l-.219-.625c-6.775-18.846-13.647-37.684-20.594-56.47l-.906-2.406h-11.501m178.84 0l-.906 2.406c-6.946 18.784-13.819 37.623-20.594 56.47l-.219.625v105.59h33.22v-165.1h-11.501m-292.69.125c-11.822 0-21.438 9.647-21.438 21.469v121.88c0 11.822 9.615 21.469 21.438 21.469h35.281v-24.598h-11.313v-115.62h11.313v-24.598h-35.282m42.44 0v24.598h30.063v-24.598zm0 140.22v24.598h30.063v-24.598z" fill="#ffffff"/>
<circle cx="256" stroke="#fefefe" cy="256" r="181.13" stroke-width="18.771" fill="none" /></svg>
