<?xml version="1.0" encoding="UTF-8" standalone="no"?>
<svg xmlns="http://www.w3.org/2000/svg" height="16" style="enable-background:new" version="1.1" width="16">
 <title>
  Paper Symbolic Icon Theme
 </title>
 <g transform="translate(-725.0004,307.00336)">
  <g transform="matrix(0.72272731,0,0,0.72272731,750.18902,-321.21241)" style="fill:#555555;fill-opacity:1">
   <g style="fill:#555555;fill-opacity:1;enable-background:new" transform="matrix(0.06470664,0,0,0.06470664,-34.778962,19.748663)">
    <g style="fill:#555555;fill-opacity:1">
     <path style="fill:#555555;fill-opacity:1" d="m 192.511,64.521 c -2.746,-2.745 -7.162,-2.862 -10.046,-0.268 -14.862,13.354 -93,81.184 -171.942,105.162 l -0.855,0.259 c -2.051,0.623 -3.727,2.114 -4.582,4.082 -0.854,1.969 -0.801,4.209 0.146,6.133 l 0.395,0.799 c 0.004,0.011 0.008,0.019 0.015,0.027 0.271,0.564 11.653,24.328 13.133,57.811 0.916,20.82 -2.101,40.832 -8.945,59.519 -2.442,0.19 -4.834,1.215 -6.703,3.084 -4.168,4.167 -4.166,10.921 0,15.087 4.166,4.166 10.92,4.167 15.086,0 2.408,-2.409 3.416,-5.682 3.039,-8.82 l 76.486,-76.489 c 1.908,-1.907 2.609,-4.71 1.824,-7.289 -2.703,-8.89 -0.291,-18.509 6.299,-25.097 4.756,-4.758 11.078,-7.377 17.809,-7.377 6.731,0 13.058,2.619 17.813,7.377 4.758,4.756 7.375,11.08 7.375,17.808 0,6.728 -2.617,13.051 -7.377,17.81 -4.754,4.754 -11.074,7.371 -17.799,7.372 -2.494,0 -4.953,-0.362 -7.31,-1.075 -2.582,-0.783 -5.379,-0.08 -7.283,1.824 L 32.61,318.749 c -3.142,-0.378 -6.416,0.628 -8.826,3.038 -4.166,4.166 -4.164,10.921 0,15.087 4.166,4.166 10.922,4.167 15.088,0 1.869,-1.869 2.892,-4.258 3.084,-6.702 16.48,-6.036 34.014,-9.105 52.15,-9.105 2.276,0 4.604,0.049 6.922,0.145 33.588,1.385 58.088,13.064 58.315,13.173 l 0.775,0.382 c 1.014,0.498 2.117,0.749 3.221,0.748 0.99,0.001 1.98,-0.2 2.91,-0.603 1.963,-0.855 3.457,-2.529 4.08,-4.579 l 0.258,-0.854 c 23.979,-78.943 91.807,-157.083 105.16,-171.944 2.594,-2.888 2.477,-7.3 -0.271,-10.046 L 192.511,64.521 Z"/>
     <path style="fill:#555555;fill-opacity:1" d="M 337.857,86.974 253.02,2.139 C 251.65,0.769 249.792,0 247.855,0 c -1.937,-0.001 -3.796,0.768 -5.164,2.137 l -36.295,36.299 c -2.854,2.853 -2.854,7.477 0,10.329 l 84.84,84.834 c 1.369,1.371 3.225,2.14 5.164,2.14 1.936,0 3.793,-0.771 5.162,-2.14 l 36.297,-36.297 c 2.852,-2.851 2.852,-7.475 -0.002,-10.328 z"/>
    </g>
   </g>
  </g>
 </g>
</svg>
