<?xml version="1.0" encoding="UTF-8" standalone="no"?>
<svg xmlns="http://www.w3.org/2000/svg" xmlns:xlink="http://www.w3.org/1999/xlink" height="16" style="enable-background:new" version="1.1" width="16">
 <title>
  Paper Symbolic Icon Theme
 </title>
 <defs>
  <linearGradient id="linearGradient4232">
   <stop offset="0" style="stop-color:#3889e9;stop-opacity:1"/>
   <stop offset="1" style="stop-color:#5ea5fb;stop-opacity:1"/>
  </linearGradient>
  <linearGradient gradientUnits="userSpaceOnUse" y2="267.75" x2="536" y1="267.75" x1="-.5" id="linearGradient4356" xlink:href="#linearGradient4232"/>
 </defs>
 <g transform="translate(-805.00018,287)">
  <g transform="translate(821.86518,-301.60435)">
   <g transform="matrix(0.50303151,0,0,0.50303151,-210.33438,-244.87384)" style="fill:#555555;fill-opacity:1;enable-background:new">
    <g style="fill:#555555;fill-opacity:1;stroke:url(#linearGradient4356);stroke-opacity:1" transform="matrix(0.05939711,0,0,0.05939711,387.63048,521.12336)">
     <g transform="translate(-48.813019,-89.13681)" style="fill:#555555;fill-opacity:1;">
      <g style="fill:#555555;fill-opacity:1;">
       <path style="fill:#555555;fill-opacity:1;" d="m 471.75,255 -38.25,0 0,-102 c 0,-28.05 -22.95,-51 -51,-51 l -102,0 0,-38.25 C 280.5,28.05 252.45,0 216.75,0 181.05,0 153,28.05 153,63.75 L 153,102 51,102 C 22.95,102 0,124.95 0,153 l 0,96.9 38.25,0 c 38.25,0 68.85,30.6 68.85,68.85 0,38.25 -30.6,68.85 -68.85,68.85 l -38.25,0 0,96.9 c 0,28.05 22.95,51 51,51 l 96.9,0 0,-38.25 c 0,-38.25 30.6,-68.85 68.85,-68.85 38.25,0 68.85,30.6 68.85,68.85 l 0,38.25 96.9,0 c 28.05,0 51,-22.95 51,-51 l 0,-102 38.25,0 c 35.7,0 63.75,-28.05 63.75,-63.75 0,-35.7 -28.05,-63.75 -63.75,-63.75 z"/>
      </g>
     </g>
    </g>
   </g>
  </g>
 </g>
</svg>
