<?xml version="1.0" encoding="UTF-8" standalone="no"?>
<svg xmlns="http://www.w3.org/2000/svg" height="16" style="enable-background:new" version="1.1" width="16">
 <title>
  Paper Symbolic Icon Theme
 </title>
 <g transform="translate(-705.00035,307.00336)">
  <g transform="translate(704.9405,-1343.1716)" style="fill:#555555;fill-opacity:1">
   <g style="fill:#555555;fill-opacity:1;" transform="matrix(1.0006423,0,0,1.0006423,-405.22267,511.61009)">
    <g style="fill:#555555;fill-opacity:1;" transform="matrix(0.05349368,0,0,0.05349368,440.48894,510.84577)">
     <g style="fill:#555555;fill-opacity:1;" transform="matrix(2.6108213,0,0,2.6108213,-768.22476,390.2786)">
      <path d="m 43.886832,-36.6986 c -1.108,0 -1.999909,0.892 -1.999909,2 l 0,81.609112 110.999917,0.239943 0,-70.041215 c 0,-1.108 -0.892,-2.000005 -2,-2.000005 l -60.173559,0 c -2.038523,0.180281 -2.301118,-0.09046 -3.308458,-1.435069 -1.428506,-1.911776 -3.585547,-7.064534 -4.99187,-8.929393 -1.128792,-1.632735 -1.311871,-1.443378 -3.183935,-1.443378 z" style="fill:#555555;fill-opacity:1;"/>
     </g>
    </g>
   </g>
  </g>
 </g>
</svg>
