<svg height="22" viewBox="0 0 22 22" width="22" xmlns="http://www.w3.org/2000/svg">
 <g transform="matrix(.03835747 0 0 .03835747 1.1804877 1.1804877)">
  <path d="m471.95 253.05c0 120.9-98.01 218.9-218.9 218.9-120.9 0-218.9-98.01-218.9-218.9 0-120.9 98.01-218.9 218.9-218.9 120.9 0 218.9 98.01 218.9 218.9" fill="#179355" fill-rule="evenodd"/>
  <path d="m256 1c-140.83 0-255 114.17-255 255 0 140.83 114.17 255 255 255 140.83 0 255-114.17 255-255 0-140.83-114.17-255-255-255m8.827 44.931c120.9 0 218.9 98 218.9 218.9 0 120.9-98 218.9-218.9 218.9-120.9 0-218.93-98-218.93-218.9 0-120.9 98.03-218.9 218.93-218.9" fill-opacity=".067" fill-rule="evenodd"/>
  <g fill-opacity=".129" fill-rule="evenodd">
   <path d="m256 4.433c-138.94 0-251.57 112.63-251.57 251.57 0 138.94 112.63 251.57 251.57 251.57 138.94 0 251.57-112.63 251.57-251.57 0-138.94-112.63-251.57-251.57-251.57m5.885 38.556c120.9 0 218.9 98 218.9 218.9 0 120.9-98 218.9-218.9 218.9-120.9 0-218.93-98-218.93-218.9 0-120.9 98.03-218.9 218.93-218.9"/>
   <path d="m256 8.356c-136.77 0-247.64 110.87-247.64 247.64 0 136.77 110.87 247.64 247.64 247.64 136.77 0 247.64-110.87 247.64-247.64 0-136.77-110.87-247.64-247.64-247.64m2.942 31.691c120.9 0 218.9 98 218.9 218.9 0 120.9-98 218.9-218.9 218.9-120.9 0-218.93-98-218.93-218.9 0-120.9 98.03-218.9 218.93-218.9"/>
  </g>
  <path d="m284.3166 271.97288l136.27579 130.93558-9.18542 15.27699-184.95645-179.55971-14.84431 18.63876-36.45004 67.93226-33.8601 63.07746 98.46213 88.14858c79.37257-1.83751 214.28879-35.5221 241.08826-233.18716l-110.5768-120.61276" opacity=".25"/>
  <path d="m253.04 7.859c-135.42 0-245.19 109.78-245.19 245.19 0 135.42 109.78 245.19 245.19 245.19 135.42 0 245.19-109.78 245.19-245.19 0-135.42-109.78-245.19-245.19-245.19zm0 26.297c120.9 0 218.9 98 218.9 218.9 0 120.9-98 218.9-218.9 218.9-120.9 0-218.93-98-218.93-218.9 0-120.9 98.03-218.9 218.93-218.9z" fill="#ffffff" fill-rule="evenodd" stroke="#000000" stroke-opacity=".31" stroke-width="4.904"/>
  <g fill="#ffffff" transform="matrix(6.7146624 0 0 6.7146624 94.848102 94.848942)">
   <path d="m40.452 4c-.305 0-.596.114-.81.332l-8.122 8.121h-3.698c-.304-.002-.615.117-.831.332l-5.38 5.38c-.437.428-.437 1.234 0 1.662l6.585 6.584c.22.22.52.34.831.332.298-.002.599-.122.81-.332l5.401-5.4c.215-.215.335-.506.332-.81v-3.718l8.102-8.101c.437-.428.437-1.234 0-1.662l-2.389-2.389c-.214-.218-.526-.332-.831-.332"/>
   <path d="m18.973 21.261c-.298.002-.599.142-.81.353l-5.401 5.38c-.215.215-.335.526-.332.831v3.697l-8.102 8.121c-.437.428-.437 1.213 0 1.641l2.389 2.389c.428.437 1.213.437 1.641 0l8.122-8.101h3.698c.304.002.615-.117.831-.332l5.38-5.4c.437-.428.437-1.213 0-1.641l-6.585-6.584c-.22-.22-.52-.361-.831-.353z"/>
  </g>
 </g>
</svg>
