<?xml version="1.0" encoding="UTF-8"?>
<svg version="1.1" viewBox="0 0 512 512" xmlns="http://www.w3.org/2000/svg" xmlns:cc="http://creativecommons.org/ns#" xmlns:dc="http://purl.org/dc/elements/1.1/" xmlns:rdf="http://www.w3.org/1999/02/22-rdf-syntax-ns#">
 <metadata>
  <rdf:RDF>
   <cc:Work rdf:about="">
    <dc:format>image/svg+xml</dc:format>
    <dc:type rdf:resource="http://purl.org/dc/dcmitype/StillImage"/>
    <dc:title/>
   </cc:Work>
  </rdf:RDF>
 </metadata>
 <path d="m211.68 98.296c-86.366 0-156.65 70.264-156.65 156.65 0 86.366 70.264 156.65 156.65 156.65 61.672 0 117.84-36.497 143.04-93.003 0.43514-0.97125 0.28275-2.1417-0.29375-3.0358-0.57927-0.8868-1.5817-1.3715-2.6448-1.3715h-57.763c-0.98043 0-1.9544 0.39474-2.5466 1.175-18.935 24.915-48.765 39.842-79.793 39.842-55.273 0-100.26-44.975-100.26-100.26 0-55.273 44.975-100.26 100.26-100.26 32.378 0 63.003 15.856 81.84 42.485 0.58936 0.82988 1.5276 1.3715 2.5466 1.3715h56.972c1.0502 0 1.9636-0.49389 2.5466-1.3715 0.57926-0.87395 0.70411-1.9682 0.29375-2.9367-24.277-57.357-82.226-95.941-144.21-95.941m169.18 90.855c-0.30661 0.0266-0.58661 0.0707-0.88129 0.19646-1.175 0.48287-1.9581 1.668-1.9581 2.9367v34.461h-112.78c-1.7332 0-3.1332 1.4036-3.1332 3.1332v52.962c0 1.7332 1.4 3.1332 3.1332 3.1332h112.78v34.461c0 1.2476 0.71054 2.3446 1.8608 2.8394 1.1502 0.49481 2.5144 0.26806 3.426-0.58844l65.5-61.681c0.61048-0.57926 0.96759-1.4055 0.9786-2.251 0.0184-0.84182-0.28917-1.6497-0.88128-2.251l-65.5-66.381c-0.67016-0.67657-1.6267-1.063-2.5466-0.97859" fill="#fff"/>
</svg>
