<svg xmlns="http://www.w3.org/2000/svg" height="512" width="512"><path d="M471.95 253.05c0 120.9-98.01 218.9-218.9 218.9-120.9 0-218.9-98.01-218.9-218.9 0-120.9 98.01-218.9 218.9-218.9 120.9 0 218.9 98.01 218.9 218.9" fill="#38c9ad" fill-rule="evenodd"/><path d="M256 1C115.17 1 1 115.17 1 256c0 140.83 114.17 255 255 255 140.83 0 255-114.17 255-255C511 115.17 396.83 1 256 1m8.827 44.93c120.9 0 218.9 98 218.9 218.9s-98 218.9-218.9 218.9-218.93-98-218.93-218.9 98.03-218.9 218.93-218.9" fill-opacity=".067" fill-rule="evenodd"/><g fill-opacity=".129" fill-rule="evenodd"><path d="M256 4.433c-138.94 0-251.57 112.63-251.57 251.57S117.06 507.573 256 507.573s251.57-112.63 251.57-251.57S394.94 4.433 256 4.433m5.885 38.556c120.9 0 218.9 98 218.9 218.9s-98 218.9-218.9 218.9-218.93-98-218.93-218.9 98.03-218.9 218.93-218.9"/><path d="M256 8.356c-136.77 0-247.64 110.87-247.64 247.64 0 136.77 110.87 247.64 247.64 247.64 136.77 0 247.64-110.87 247.64-247.64 0-136.77-110.87-247.64-247.64-247.64m2.942 31.69c120.9 0 218.9 98 218.9 218.9s-98 218.9-218.9 218.9-218.93-98-218.93-218.9 98.03-218.9 218.93-218.9"/></g><path d="M330.308 111.705l-27.752 3.223-2.236.568 11.867 11.867-46.14-12.02h-3.336l-37.532 12.662-1.113.934-4.193-4.194-49.854-8.834-5.498.152 1.027 26.015-1.323 54.21.422 41.146-16.078 46.675-26.824 92.756 182.88 89.022c81.65-34.422 182.158-32.24 164.16-260.1l-105.582-96.064-41.367 23.653 8.468-21.672" opacity=".25"/><path d="M253.04 7.86C117.62 7.86 7.85 117.64 7.85 253.05c0 135.42 109.78 245.19 245.19 245.19 135.42 0 245.19-109.78 245.19-245.19 0-135.42-109.78-245.19-245.19-245.19zm0 26.296c120.9 0 218.9 98 218.9 218.9s-98 218.9-218.9 218.9-218.93-98-218.93-218.9 98.03-218.9 218.93-218.9z" fill="#fff" fill-rule="evenodd" stroke="#000" stroke-opacity=".31" stroke-width="4.904"/><g fill="#fff"><path d="M148.568 109.724V284.11h214.634V109.725zm100.61 40.235h13.413v67.08l30.19-30.187 10.058 10.058-46.953 46.954-46.953-46.953 10.06-10.057 30.187 30.188z"/><path d="M121.744 282.96v93.906h268.294V282.96zm40.235 26.836c8.755 0 16.085 5.635 18.864 13.412h56.176c2.78-7.777 10.11-13.412 18.865-13.412 8.782 0 16.152 5.6 18.914 13.412h56.126c2.78-7.777 10.11-13.412 18.865-13.412 11.148 0 20.118 8.97 20.118 20.118 0 11.147-8.97 20.117-20.117 20.117-8.755 0-16.085-5.633-18.864-13.41H274.8c-2.763 7.812-10.133 13.41-18.915 13.41-8.756 0-16.086-5.633-18.865-13.41h-56.176c-2.78 7.777-10.11 13.41-18.865 13.41-11.15 0-20.118-8.97-20.118-20.116 0-11.148 8.97-20.118 20.117-20.118z"/></g></svg>