<?xml version="1.0" encoding="UTF-8" standalone="no"?>
<svg
   xmlns:dc="http://purl.org/dc/elements/1.1/"
   xmlns:cc="http://creativecommons.org/ns#"
   xmlns:rdf="http://www.w3.org/1999/02/22-rdf-syntax-ns#"
   xmlns:svg="http://www.w3.org/2000/svg"
   xmlns="http://www.w3.org/2000/svg"
   xmlns:sodipodi="http://sodipodi.sourceforge.net/DTD/sodipodi-0.dtd"
   xmlns:inkscape="http://www.inkscape.org/namespaces/inkscape"
   height="512"
   width="512"
   version="1.1"
   id="svg18"
   sodipodi:docname="distributor-logo-archmerge.svg"
   inkscape:version="0.92.2 5c3e80d, 2017-08-06">
  <metadata
     id="metadata24">
    <rdf:RDF>
      <cc:Work
         rdf:about="">
        <dc:format>image/svg+xml</dc:format>
        <dc:type
           rdf:resource="http://purl.org/dc/dcmitype/StillImage" />
        <dc:title></dc:title>
      </cc:Work>
    </rdf:RDF>
  </metadata>
  <defs
     id="defs22" />
  <sodipodi:namedview
     pagecolor="#ffffff"
     bordercolor="#666666"
     borderopacity="1"
     objecttolerance="10"
     gridtolerance="10"
     guidetolerance="10"
     inkscape:pageopacity="0"
     inkscape:pageshadow="2"
     inkscape:window-width="1920"
     inkscape:window-height="1018"
     id="namedview20"
     showgrid="false"
     inkscape:zoom="1.640625"
     inkscape:cx="143.2381"
     inkscape:cy="256"
     inkscape:window-x="0"
     inkscape:window-y="30"
     inkscape:window-maximized="1"
     inkscape:current-layer="svg18" />
  <path
     d="M471.95 253.05c0 120.9-98.01 218.9-218.9 218.9-120.9 0-218.9-98.01-218.9-218.9 0-120.9 98.01-218.9 218.9-218.9 120.9 0 218.9 98.01 218.9 218.9"
     fill="#38c9ad"
     fill-rule="evenodd"
     id="path2" />
  <path
     d="M256 1C115.17 1 1 115.17 1 256c0 140.83 114.17 255 255 255 140.83 0 255-114.17 255-255C511 115.17 396.83 1 256 1m8.827 44.93c120.9 0 218.9 98 218.9 218.9s-98 218.9-218.9 218.9-218.93-98-218.93-218.9 98.03-218.9 218.93-218.9"
     fill-opacity=".067"
     fill-rule="evenodd"
     id="path4" />
  <g
     fill-opacity=".129"
     fill-rule="evenodd"
     id="g10">
    <path
       d="M256 4.433c-138.94 0-251.57 112.63-251.57 251.57S117.06 507.573 256 507.573s251.57-112.63 251.57-251.57S394.94 4.433 256 4.433m5.885 38.556c120.9 0 218.9 98 218.9 218.9s-98 218.9-218.9 218.9-218.93-98-218.93-218.9 98.03-218.9 218.93-218.9"
       id="path6" />
    <path
       d="M256 8.356c-136.77 0-247.64 110.87-247.64 247.64 0 136.77 110.87 247.64 247.64 247.64 136.77 0 247.64-110.87 247.64-247.64 0-136.77-110.87-247.64-247.64-247.64m2.942 31.69c120.9 0 218.9 98 218.9 218.9s-98 218.9-218.9 218.9-218.93-98-218.93-218.9 98.03-218.9 218.93-218.9"
       id="path8" />
  </g>
  <path
     d="M 253.53798,72.627198 C 230.14798,121.9702 260.341,126.316 221.751,190.153 l -30.06618,19.04833 50.70534,35.45622 -4.72911,11.47486 -53.5281,-31.29212 -5.72877,11.07867 50.52626,33.69841 -17.47503,9.26133 -40.91288,-27.48846 -5.58983,11.0167 47.57613,31.22453 -10.81814,14.90142 L 157.008,277.908 c -18.39193,39.62322 -36.05886,79.79019 -62.182,113.615 l 200.65514,92.65071 C 369.44614,458.34871 473.012,408.988 478.524,205.886"
     id="path12"
     inkscape:connector-curvature="0"
     style="opacity:0.25"
     sodipodi:nodetypes="ccccccccccccccccc" />
  <path
     d="M253.04 7.86C117.62 7.86 7.85 117.64 7.85 253.05c0 135.42 109.78 245.19 245.19 245.19 135.42 0 245.19-109.78 245.19-245.19 0-135.42-109.78-245.19-245.19-245.19zm0 26.296c120.9 0 218.9 98 218.9 218.9s-98 218.9-218.9 218.9-218.93-98-218.93-218.9 98.03-218.9 218.93-218.9z"
     fill="#fff"
     fill-rule="evenodd"
     stroke="#000"
     stroke-opacity=".31"
     stroke-width="4.904"
     id="path16" />
  <path
     inkscape:connector-curvature="0"
     style="fill:#ffffff;fill-opacity:1;stroke:none;stroke-width:4.40488243;stroke-miterlimit:4;stroke-dasharray:none;stroke-opacity:1"
     d="m 253.53798,72.627198 v 0 c -0.062,0 -0.127,0.03067 -0.2088,0.09044 -0.4667,0.34126 -3.0736,6.004942 -6.4435,13.998802 -13.87912,32.92367 -28.61809,65.75661 -50.35215,112.16634 -1.86146,3.97489 -3.44768,7.35033 -4.84871,10.31855 9.99927,6.82638 29.662,21.64906 38.93946,38.30171 -7.40214,-10.00809 -31.96098,-18.41079 -46.49133,-22.66275 -0.48552,0.95842 -0.94636,1.85753 -1.36964,2.66098 -1.13454,2.15358 -2.62774,5.0407 -4.35913,8.41769 10.06074,6.8875 29.5252,21.62593 38.73989,38.16592 -7.4214,-10.03411 -32.08591,-18.45329 -46.60154,-22.69464 -1.86058,3.68308 -3.72475,7.35582 -5.58983,11.0167 10.01863,6.84547 29.61971,21.64194 38.87776,38.25977 -7.45996,-10.08627 -32.33825,-18.53907 -46.82246,-22.75871 -9.28968,18.01629 -18.53394,35.56403 -27.46875,52.13204 -10.22229,18.95544 -15.86944,29.00755 -20.67117,36.79523 -3.63993,5.90341 -11.7205,19.53061 -13.52924,22.81592 -0.64236,1.16673 -0.90586,1.82664 -0.90906,2.27474 -10e-4,0.16308 0.0424,0.29611 0.0968,0.29476 0.6004,-0.0116 2.26612,-0.96727 8.27558,-4.74747 22.55816,-14.19001 47.00372,-25.86062 69.8319,-33.33831 13.06553,-4.2798 25.83459,-7.48684 38.73093,-9.70111 a 46.446878,97.746415 0 0 1 42.57589,-58.79042 46.446878,97.746415 0 0 1 42.2912,57.62827 c 0.198,0.0285 0.4015,0.0569 0.5961,0.0854 20.4093,2.98608 43.1686,9.52095 62.8157,18.03655 9.841,4.26532 20.5283,9.70225 28.1569,14.32414 6.0881,3.68855 17.2345,10.9425 23.1455,15.06263 1.6084,1.12113 2.5057,1.5343 2.5057,1.15398 0,-0.6976 -0.9543,-2.45136 -5.4773,-10.0647 -11.546,-19.43506 -22.395,-38.22738 -33.6908,-58.35803 -5.1292,-9.14113 -8.4877,-15.03565 -11.0831,-19.45259 -3.9815,-6.77594 -6.7364,-11.82374 -13.2796,-24.33241 -9.3569,-17.88779 -25.3966,-49.76588 -31.9513,-63.50151 -1.9782,-4.1455 -7.301,-14.90312 -9.038,-18.26591 -4.3347,-8.39533 -11.9745,-24.87155 -17.3748,-37.7185 -16.9096,-38.21487 -21.8967,-49.77242 -30.189,-69.96374 -4.9798,-12.12542 -7.1833,-17.193177 -7.636,-17.562515 -0.072,-0.05873 -0.1318,-0.08794 -0.1941,-0.08752 z"
     id="path4487-3-3" />
</svg>
