<?xml version="1.0" encoding="UTF-8" standalone="no"?>
<svg
   xmlns:dc="http://purl.org/dc/elements/1.1/"
   xmlns:cc="http://creativecommons.org/ns#"
   xmlns:rdf="http://www.w3.org/1999/02/22-rdf-syntax-ns#"
   xmlns:svg="http://www.w3.org/2000/svg"
   xmlns="http://www.w3.org/2000/svg"
   xmlns:sodipodi="http://sodipodi.sourceforge.net/DTD/sodipodi-0.dtd"
   xmlns:inkscape="http://www.inkscape.org/namespaces/inkscape"
   height="512"
   viewBox="0 0 512 512"
   width="512"
   version="1.1"
   id="svg18"
   sodipodi:docname="io.github.Pithos.svg"
   inkscape:version="0.92.1 r">
  <metadata
     id="metadata24">
    <rdf:RDF>
      <cc:Work
         rdf:about="">
        <dc:format>image/svg+xml</dc:format>
        <dc:type
           rdf:resource="http://purl.org/dc/dcmitype/StillImage" />
        <dc:title></dc:title>
      </cc:Work>
    </rdf:RDF>
  </metadata>
  <defs
     id="defs22" />
  <sodipodi:namedview
     pagecolor="#ffffff"
     bordercolor="#666666"
     borderopacity="1"
     objecttolerance="10"
     gridtolerance="10"
     guidetolerance="10"
     inkscape:pageopacity="0"
     inkscape:pageshadow="2"
     inkscape:window-width="1920"
     inkscape:window-height="1018"
     id="namedview20"
     showgrid="false"
     inkscape:zoom="1.3037281"
     inkscape:cx="205.84632"
     inkscape:cy="293.95186"
     inkscape:window-x="0"
     inkscape:window-y="30"
     inkscape:window-maximized="1"
     inkscape:current-layer="svg18" />
  <path
     d="m471.95 253.05c0 120.9-98.01 218.9-218.9 218.9-120.9 0-218.9-98.01-218.9-218.9 0-120.9 98.01-218.9 218.9-218.9 120.9 0 218.9 98.01 218.9 218.9"
     fill="#38c9ad"
     fill-rule="evenodd"
     id="path2" />
  <path
     d="m256 1c-140.83 0-255 114.17-255 255 0 140.83 114.17 255 255 255 140.83 0 255-114.17 255-255 0-140.83-114.17-255-255-255m8.827 44.931c120.9 0 218.9 98 218.9 218.9 0 120.9-98 218.9-218.9 218.9-120.9 0-218.93-98-218.93-218.9 0-120.9 98.03-218.9 218.93-218.9"
     fill-opacity=".067"
     fill-rule="evenodd"
     id="path4" />
  <g
     fill-opacity=".129"
     fill-rule="evenodd"
     id="g10">
    <path
       d="m256 4.433c-138.94 0-251.57 112.63-251.57 251.57 0 138.94 112.63 251.57 251.57 251.57 138.94 0 251.57-112.63 251.57-251.57 0-138.94-112.63-251.57-251.57-251.57m5.885 38.556c120.9 0 218.9 98 218.9 218.9 0 120.9-98 218.9-218.9 218.9-120.9 0-218.93-98-218.93-218.9 0-120.9 98.03-218.9 218.93-218.9"
       id="path6" />
    <path
       d="m256 8.356c-136.77 0-247.64 110.87-247.64 247.64 0 136.77 110.87 247.64 247.64 247.64 136.77 0 247.64-110.87 247.64-247.64 0-136.77-110.87-247.64-247.64-247.64m2.942 31.691c120.9 0 218.9 98 218.9 218.9 0 120.9-98 218.9-218.9 218.9-120.9 0-218.93-98-218.93-218.9 0-120.9 98.03-218.9 218.93-218.9"
       id="path8" />
  </g>
  <path
     d="m 330.30836,111.70481 -27.752,3.223 -2.236,0.568 11.867,11.867 -46.14,-12.02 h -3.336 l -37.533,12.662 -1.113,0.934 -4.193,-4.193 -49.85401,-8.834 3.70637,7.05528 27.87271,146.43932 26.28968,37.33531 24.96774,55.72078 -40.4573,7.18807 -39.01811,41.11413 131.24392,55.12311 c 113.83567,-37.85444 157.6289,-116.3335 169.53,-213.31 l -3.92,-41.37 -121.64532,-104.13803 -18.28468,4.63503"
     id="path12"
     inkscape:connector-curvature="0"
     style="opacity:0.25"
     sodipodi:nodetypes="ccccccccccccccccccccc" />
  <path
     d="m253.04 7.859c-135.42 0-245.19 109.78-245.19 245.19 0 135.42 109.78 245.19 245.19 245.19 135.42 0 245.19-109.78 245.19-245.19 0-135.42-109.78-245.19-245.19-245.19zm0 26.297c120.9 0 218.9 98 218.9 218.9 0 120.9-98 218.9-218.9 218.9-120.9 0-218.93-98-218.93-218.9 0-120.9 98.03-218.9 218.93-218.9z"
     fill="#ffffff"
     fill-rule="evenodd"
     stroke="#000000"
     stroke-opacity=".31"
     stroke-width="4.904"
     id="path16" />
  <path
     inkscape:connector-curvature="0"
     d="m 161.69886,107.06978 31.52587,175.20861 c 2.09082,11.61049 9.76496,35.04172 38.55757,35.04172 v 46.72229 h -23.36114 c -6.47105,0 -11.68058,5.20954 -11.68058,11.68058 -16.17759,0 -23.36114,18.86412 -23.36114,35.04172 h 163.52802 c 0,-16.1776 -7.18355,-35.04172 -23.36114,-35.04172 0,-6.47104 -5.20953,-11.68058 -11.68058,-11.68058 H 278.5046 v -46.72229 c 28.79261,0 36.46675,-23.47796 38.55757,-35.04172 l 31.52587,-175.20861 m -72.40788,23.36115 c 11.68058,0 18.91085,7.54565 49.04673,0 0,6.78641 -15.47676,25.20668 -27.12229,26.49154 -7.03171,0.77092 -15.53516,-3.13039 -26.23457,2.32443 l 17.25221,75.73685 c 4.205,15.17306 -4.74232,32.26174 -21.66747,41.31418 -20.23075,10.8279 -44.75995,6.56449 -54.7702,-9.4963 -10.01026,-16.04911 -1.74041,-37.83338 18.50202,-48.63791 13.08224,-6.98499 28.62909,-7.87271 40.76521,-2.37116 l -16.79667,-73.69273 c 4.28677,-5.40811 9.35614,-11.68058 21.03672,-11.68058 z"
     style="opacity:1;fill:#ffffff;fill-opacity:1;stroke:none;stroke-width:11.68057346"
     id="path39" />
</svg>
