<svg xmlns="http://www.w3.org/2000/svg" height="512" width="512"><g fill-rule="evenodd"><path d="M471.95 253.05c0 120.9-98.01 218.91-218.91 218.91S34.13 373.95 34.13 253.05 132.14 34.14 253.04 34.14s218.91 98.01 218.91 218.91" fill="#38c9ad"/><path d="M256 1C115.17 1 1 115.17 1 256s114.17 255 255 255 255-114.17 255-255S396.83 1 256 1m8.827 44.93c120.9 0 218.9 98 218.9 218.9s-98 218.9-218.9 218.9-218.93-98-218.93-218.9 98.03-218.9 218.93-218.9" fill-opacity=".067"/><g fill-opacity=".129"><path d="M256 4.43C117.06 4.43 4.43 117.06 4.43 256S117.06 507.57 256 507.57 507.57 394.94 507.57 256 394.94 4.43 256 4.43m5.885 38.556c120.9 0 218.9 98 218.9 218.9s-98 218.9-218.9 218.9-218.93-98-218.93-218.9 98.03-218.9 218.93-218.9"/><path d="M256 8.36C119.23 8.36 8.36 119.23 8.36 256S119.23 503.64 256 503.64 503.64 392.77 503.64 256 392.77 8.36 256 8.36m2.942 31.69c120.9 0 218.9 98 218.9 218.9s-98 218.9-218.9 218.9-218.93-98-218.93-218.9 98.03-218.9 218.93-218.9"/></g><path d="M253.04 7.86C117.62 7.86 7.85 117.64 7.85 253.05c0 135.42 109.78 245.19 245.19 245.19 135.42 0 245.19-109.78 245.19-245.19 0-135.42-109.78-245.19-245.19-245.19zm0 26.297c120.9 0 218.9 98 218.9 218.9s-98 218.9-218.9 218.9-218.93-98-218.93-218.9 98.03-218.9 218.93-218.9z" fill="#fff" stroke="#000" stroke-opacity=".31" stroke-width="4.904"/></g><path d="M328.69 139.847l-18.434.006-152.33 3.254c-8.367.18-15.025 2.985-15.14 11.346l-2.713 195.177c-.058 4.184 3.96-4.138 2.362 11.618l-.566-1.375c-.026-.026 8.06-15.805 2.09 12.945l97.838 97.39c123.35 21.58 252.07-124.1 227.282-234.943l-103.1-98.034-26.582 4.334c-2.738-2.738-5.983-4.977-10.167-4.977" opacity=".25"/><path d="M163.45 132.65c-17.09 0-30.806 13.772-30.806 30.86v185.05c0 17.09 13.718 30.806 30.806 30.806H348.5c17.09 0 30.86-13.718 30.86-30.806V163.51c0-17.09-13.772-30.86-30.86-30.86zm27.893 32.91l148.1 90.48-148.1 90.48V165.57" fill="#fff" fill-rule="evenodd"/></svg>