<svg version="1.1" viewBox="0 0 512 512" xmlns="http://www.w3.org/2000/svg">
	<path d="m471.95 253.05c0 120.9-98.01 218.9-218.9 218.9-120.9 0-218.9-98.01-218.9-218.9 0-120.9 98.01-218.9 218.9-218.9 120.9 0 218.9 98.01 218.9 218.9" fill="#38c9ad" fill-rule="evenodd"/>
	<path d="m256 1c-140.83 0-255 114.17-255 255s114.17 255 255 255 255-114.17 255-255-114.17-255-255-255m8.827 44.931c120.9 0 218.9 98 218.9 218.9s-98 218.9-218.9 218.9-218.93-98-218.93-218.9 98.03-218.9 218.93-218.9" fill-opacity=".067" fill-rule="evenodd"/>
	<g fill-opacity=".129" fill-rule="evenodd">
		<path d="m256 4.433c-138.94 0-251.57 112.63-251.57 251.57s112.63 251.57 251.57 251.57 251.57-112.63 251.57-251.57-112.63-251.57-251.57-251.57m5.885 38.556c120.9 0 218.9 98 218.9 218.9s-98 218.9-218.9 218.9-218.93-98-218.93-218.9 98.03-218.9 218.93-218.9"/>
		<path d="m256 8.356c-136.77 0-247.64 110.87-247.64 247.64s110.87 247.64 247.64 247.64 247.64-110.87 247.64-247.64-110.87-247.64-247.64-247.64m2.942 31.691c120.9 0 218.9 98 218.9 218.9s-98 218.9-218.9 218.9-218.93-98-218.93-218.9 98.03-218.9 218.93-218.9"/>
	</g>
	<path d="m330.31 111.7-27.752 3.223-2.236 0.568 11.867 11.867-46.14-12.02h-3.336l-37.533 12.662-1.113 0.934-4.193-4.193-49.854-8.834-5.498 0.152-15.704 25.473 110.52 96.172-110.52 159.73 111.32 79.186c101.2-24.428 195.3-60.803 214.02-224.05l-3.92-41.37-102.07-106.23-37.859 6.7258" style="opacity:.25"/>
	<path d="m253.04 7.859c-135.42 0-245.19 109.78-245.19 245.19 0 135.42 109.78 245.19 245.19 245.19 135.42 0 245.19-109.78 245.19-245.19 0-135.42-109.78-245.19-245.19-245.19zm0 26.297c120.9 0 218.9 98 218.9 218.9s-98 218.9-218.9 218.9-218.93-98-218.93-218.9 98.03-218.9 218.93-218.9z" fill="#ffffff" fill-rule="evenodd" stroke="#000000" stroke-opacity=".31" stroke-width="4.904"/>
	<g transform="matrix(12.186 0 0 12.186 -33.971 -41.251)" style="fill:#ffffff">
		<g style="fill:#ffffff">
			<g style="fill:#ffffff">
				<path d="m33 36h-18v-3l14-18h-14v-3h18v3l-14 18h14v3" style="fill:#ffffff"/>
			</g>
		</g>
	</g>
</svg>
