<svg height="512" viewBox="0 0 512 512" width="512" xmlns="http://www.w3.org/2000/svg">
 <text x="729.64" y="231.36">
  
 </text>
 <text x="1310.91" y="151.36">
  
 </text>
 <text x="239.33" y="-29.9">
  
 </text>
 <text x="1337.38" y="-246.37">
  
 </text>
 <text x="1918.65" y="-326.38">
  
 </text>
 <text x="1529.53" y="-798.78">
  
 </text>
 <text x="2110.79" y="-878.78">
  
 </text>
 <text x="277.99" y="535.94">
  
 </text>
 <g fill="#ffedb5" transform="matrix(1.2698274 0 0 1.2698274 -67.321932 -68.197522)">
  <path d="m124.44 242.09c-16.65 0-30.06 13.381-30.06 30.03v87.25c0 16.65 13.412 30.06 30.06 30.06h87.25c16.65 0 30.06-13.412 30.06-30.06v-87.25c0-16.65-13.412-30.03-30.06-30.03zm83.41 17.594c4.164 0 8.323 1.604 11.5 4.781 6.354 6.354 6.354 16.646 0 23-6.354 6.354-16.646 6.354-23 0-6.354-6.354-6.354-16.646 0-23 3.177-3.177 7.336-4.781 11.5-4.781m-39.781 39.813c8.986 0 16.25 7.264 16.25 16.25 0 8.986-7.264 16.281-16.25 16.281-8.986 0-16.281-7.295-16.281-16.281 0-8.986 7.295-16.25 16.281-16.25m-39.813 39.781c4.164 0 8.354 1.604 11.531 4.781 6.354 6.354 6.354 16.646 0 23-6.354 6.354-16.677 6.354-23.03 0-6.354-6.354-6.354-16.646 0-23 3.177-3.177 7.336-4.781 11.5-4.781"/>
  <path d="m287.31 116.06c-16.65 0-30.06 13.381-30.06 30.03v87.25c0 16.65 13.412 30.06 30.06 30.06h87.25c16.65 0 30.06-13.412 30.06-30.06v-87.25c0-16.65-13.412-30.03-30.06-30.03zm43.625 11.125c8.986 0 16.25 7.295 16.25 16.281 0 8.986-7.264 16.25-16.25 16.25-8.986 0-16.281-7.264-16.281-16.25 0-8.986 7.295-16.281 16.281-16.281m0 92.53c8.986 0 16.25 7.295 16.25 16.281 0 8.986-7.264 16.281-16.25 16.281-8.986 0-16.281-7.295-16.281-16.281 0-8.986 7.295-16.281 16.281-16.281"/>
 </g>
</svg>
