<svg height="512" viewBox="0 0 512 512" width="512" xmlns="http://www.w3.org/2000/svg">
 <text x="729.64" y="231.36">
  
 </text>
 <text x="1310.91" y="151.36">
  
 </text>
 <text x="239.33" y="-29.9">
  
 </text>
 <text x="1337.38" y="-246.37">
  
 </text>
 <text x="1918.65" y="-326.38">
  
 </text>
 <text x="1529.53" y="-798.78">
  
 </text>
 <text x="2110.79" y="-878.78">
  
 </text>
 <text x="277.99" y="535.94">
  
 </text>
 <path d="m408.82039 74.737944c-5.53267.476852-11.07739 3.244696-15.56009 7.581486l-99.86803 86.8381c-4.28715 4.14124-6.6684 10.01538-6.6684 15.92714 0 2.87013.61073 5.44693 1.66071 7.9756.0496.13388-.0496.32943 0 .42721-3.71252 7.91393-2.52867 18.94319-2.52867 42.79779 0 8.76985-22.85276 18.02709-28.53136 18.02709h-.85442c-18.12637 0-77.06339 2.72422-95.23489 27.72507-18.1715 25.00236-86.450003 138.58776-86.450003 155.255 27.242203 0 225.233313-98.95645 235.417173-108.26332 12.25072-11.24888 6.24119-33.96626-1.67274-49.08712.0496-.0496-.0496-.32943 0-.42721.18352-.52498.2813-1.3433-.42721-2.52866-4.25105-7.10915-6.73007-14.31457-6.73007-24.32394 0-22.24203 2.33311-34.50478 7.15728-41.51465 10.68779 1.82016 26.23585-3.38309 33.15396-10.06352l87.68349-83.54677c8.92781-8.58934 11.02926-21.566622 2.10146-30.205605l-7.15728-7.109148c-4.43307-4.341303-10.01539-5.916266-15.49993-5.439415z" fill="#ffedb5"/>
</svg>
