<svg viewBox="0 0 512 512" xmlns="http://www.w3.org/2000/svg">
 <text x="729.64" y="231.36">
  
 </text>
 <text x="1310.91" y="151.36">
  
 </text>
 <text x="239.33" y="-29.9">
  
 </text>
 <text x="1337.38" y="-246.37">
  
 </text>
 <text x="1918.65" y="-326.38">
  
 </text>
 <text x="1529.53" y="-798.78">
  
 </text>
 <text x="2110.79" y="-878.78">
  
 </text>
 <text x="277.99" y="535.94">
  
 </text>
 <path d="m92.599661 92.601854v145.570586h149.930349v-145.570586zm176.931459 0v145.570586h149.87686v-145.570586zm57.54619 14.194636h35.27128v40.33449h40.6715v35.36623h-40.6715v41.48461h-35.27128v-41.48461h-41.19708v-35.36623h41.19708zm-201.20437 41.48461h90.28452v34.26693h-90.28452zm-33.263918 116.8978v154.22325h149.930358v-154.22325zm176.931458 0v154.22325h149.87686v-154.22325zm-135.35323 24.04021c0 0 31.32342 33.40701 33.35886 33.40701 2.03679 0 33.46051-33.40701 33.46051-33.40701l19.643 19.69115c0 0-33.40701 31.13218-33.40701 33.4605 0 2.23204 33.40701 33.40702 33.40701 33.40702l-19.643 19.59485c0 0-31.14689-33.40701-33.46051-33.40701-2.2775 0-33.35886 33.40701-33.35886 33.40701l-19.69115-19.59485c0 0 33.40701-30.67748 33.40701-33.40702 0-2.80576-33.40701-33.4605-33.40701-33.4605zm165.12265 9.08061h90.28453v34.22012h-90.28453zm0 58.92366h90.28453v34.26693h-90.28453z" fill="#ffedb5"/>
</svg>
