<svg height="512" viewBox="0 0 512 512" width="512" xmlns="http://www.w3.org/2000/svg">
 <path d="m310.72603 85.067225c-3.83035.05495-7.52762.269847-11.27739.813203-10.00142 1.448136-19.84777 6.005004-29.37787 16.085792l-.0354.0354-.0354.0354c-6.98427 7.5325-11.33722 16.53757-15.02594 28.56589h-12.16142c-8.00382 0-14.48624 6.41283-14.60102 14.38857h-127.16981c-15.971016 0-28.813763 12.87205-28.813763 28.84917v193.92327c0 15.97102 12.836642 28.81377 28.813763 28.81377h309.88407c15.97102 0 28.84917-12.83665 28.84917-28.81377v-193.92327c0-15.97102-12.87205-28.84917-28.84917-28.84917h-116.10732c-.11477-7.97574-6.5972-14.38857-14.60102-14.38857h-10.11131c2.87673-8.37868 5.94761-13.96609 10.39459-18.77327.0134-.0134.0232-.022.0354-.0354 7.82189-8.26146 13.4557-10.61559 20.96501-11.70231 7.51785-1.08915 17.27751-.251527 30.51098-.671559a7.1846792 7.1846792 0 1 0 -.45965-14.353779c-6.15397.195365-11.69621.02564-16.93441 0-1.31016-.0073-2.61177-.01832-3.88896 0m-159.44152 107.303728h26.87477c5.03063 0 9.05024 4.05502 9.05024 9.08565v26.62202c0 5.03062-4.01961 9.08565-9.05024 9.08565h-26.87477c-5.03185 0-9.08565-4.05503-9.08565-9.08565v-26.62202c0-5.03063 4.05503-9.08565 9.08565-9.08565m60.84493 0h26.87477c5.03062 0 9.08565 4.05502 9.08565 9.08565v26.62202c0 5.03062-4.05503 9.08565-9.08565 9.08565h-26.87477c-5.03063 0-9.08566-4.05503-9.08566-9.08565v-26.62202c0-5.03063 4.05503-9.08565 9.08566-9.08565m60.88033 0h26.83326c5.03184 0 9.08565 4.05502 9.08565 9.08565v26.62202c0 5.03062-4.05503 9.08565-9.08565 9.08565h-26.83326c-5.03063 0-9.08565-4.05503-9.08565-9.08565v-26.62202c0-5.03063 4.05502-9.08565 9.08565-9.08565m60.84492 0h26.83326c5.03063 0 9.08565 4.05502 9.08565 9.08565v26.62202c0 5.03062-4.05502 9.08565-9.08565 9.08565h-26.83326c-5.03184 0-9.08565-4.05503-9.08565-9.08565v-26.62202c0-5.03063 4.05503-9.08565 9.08565-9.08565m-213.0079 69.72056h26.87477c5.03062 0 9.08565 4.05502 9.08565 9.08565v26.62202c0 5.03062-4.05503 9.08565-9.08565 9.08565h-26.87477c-5.03063 0-9.08566-4.05503-9.08566-9.08565v-26.62202c0-5.03063 4.05503-9.08565 9.08566-9.08565m60.88033 0h26.83326c5.03062 0 9.08565 4.05502 9.08565 9.08565v26.62202c0 5.03062-4.05503 9.08565-9.08565 9.08565h-26.83326c-5.03063 0-9.08565-4.05503-9.08565-9.08565v-26.62202c0-5.03063 4.05502-9.08565 9.08565-9.08565m60.84492 0h26.83326c5.03063 0 9.08565 4.05502 9.08565 9.08565v26.62202c0 5.03062-4.05502 9.08565-9.08565 9.08565h-26.83326c-5.03062 0-9.08565-4.05503-9.08565-9.08565v-26.62202c0-5.03063 4.05503-9.08565 9.08565-9.08565m60.84493 0h26.87477c5.03063 0 9.08565 4.05502 9.08565 9.08565v26.62202c0 5.03062-4.05502 9.08565-9.08565 9.08565h-26.87477c-5.03063 0-9.08565-4.05503-9.08565-9.08565v-26.62202c0-5.03063 4.05502-9.08565 9.08565-9.08565m60.84492 0h26.87477c5.03063 0 9.08566 4.05502 9.08566 9.08565v26.62202c0 5.03062-4.05503 9.08565-9.08566 9.08565h-26.87477c-5.03184 0-9.05024-4.05503-9.05024-9.08565v-26.62202c0-5.03063 4.01962-9.08565 9.05024-9.08565m-178.74593 64.37979h140.99182c8.09052 0 14.60103 6.51051 14.60103 14.60102v15.59128c0 8.09051-6.51051 14.60102-14.60103 14.60102h-140.99182c-8.09051 0-14.60102-6.51051-14.60102-14.60102v-15.59128c0-8.09051 6.51051-14.60102 14.60102-14.60102" fill="#ffedb5"/>
</svg>
