<svg height="512" viewBox="0 0 512 512" width="512" xmlns="http://www.w3.org/2000/svg">
 <path d="m471.95 253.05c0 120.9-98.01 218.9-218.9 218.9-120.9 0-218.9-98.01-218.9-218.9 0-120.9 98.01-218.9 218.9-218.9 120.9 0 218.9 98.01 218.9 218.9" fill="#b93d48" fill-rule="evenodd"/>
 <text x="729.64" y="231.36">
  
 </text>
 <text x="1310.91" y="151.36">
  
 </text>
 <text x="239.33" y="-29.9">
  
 </text>
 <text x="1337.38" y="-246.37">
  
 </text>
 <text x="1918.65" y="-326.37">
  
 </text>
 <text x="1529.53" y="-798.77">
  
 </text>
 <text x="2110.79" y="-878.78">
  
 </text>
 <text x="277.99" y="535.94">
  
 </text>
 <g fill="#ffffff" fill-rule="evenodd" transform="matrix(.48483 0 0 .48483 -462.77 -143.52)">
  <g transform="translate(0 540.36)">
   <path d="m1470.5 13.781l-255.78 117.06v19.813h39.969c-.086.639-.125 1.28-.125 1.938 0 10.185 10.564 18.375 23.688 18.375h385.03c13.12 0 23.688-8.19 23.688-18.375 0-.657-.039-1.298-.125-1.938h39.906v-19.781l-256.25-117.09"/>
   <path d="m1278.16 426.44c-13.06 0-23.562 7.01-23.562 15.719v3.75 2.281 18.219h433.38v-18.219-2.281-3.75c0-8.707-10.505-15.719-23.563-15.719h-386.25"/>
  </g>
  <path d="m1243.4 1024.8c-15.407 0-27.803 7.01-27.803 15.719v3.75 2.281 18.219h511.38v-18.219-2.281-3.75c0-8.707-12.396-15.719-27.803-15.719h-455.77"/>
  <path d="m1293.5 188.5h59.5v241h-59.5z" transform="translate(0 540.36)"/>
  <path d="m1391.5 728.86h59.5v241h-59.5z"/>
  <path d="m1490 728.86h59.5v241h-59.5z"/>
  <path d="m1589.5 728.86h59.5v241h-59.5z"/>
 </g>
<circle cx="256" stroke="#fefefe" cy="256" r="181.13" stroke-width="18.771" fill="none" /></svg>
