<svg height="512" viewBox="0 0 512 512" width="512" xmlns="http://www.w3.org/2000/svg">
 <path d="m471.95 253.05c0 120.9-98.01 218.9-218.9 218.9-120.9 0-218.9-98.01-218.9-218.9 0-120.9 98.01-218.9 218.9-218.9 120.9 0 218.9 98.01 218.9 218.9" fill="#f4ba70" fill-rule="evenodd"/>
 <text x="729.64" y="231.36">
  
 </text>
 <text x="1310.91" y="151.36">
  
 </text>
 <text x="239.33" y="-29.9">
  
 </text>
 <text x="1337.38" y="-246.37">
  
 </text>
 <text x="1918.65" y="-326.38">
  
 </text>
 <text x="1529.53" y="-798.78">
  
 </text>
 <text x="2110.79" y="-878.78">
  
 </text>
 <text x="277.99" y="535.94">
  
 </text>
 <path d="m357.59 135.5c-3.678.317-7.364 2.157-10.344 5.04l-66.39 57.728c-2.85 2.753-4.433 6.658-4.433 10.588 0 1.908.406 3.621 1.104 5.302.033.089-.033.219 0 .284-2.468 5.261-1.681 12.593-1.681 28.451 0 5.83-15.192 11.984-18.967 11.984h-.568c-12.05 0-51.23 1.811-63.31 18.431-12.08 16.621-57.47 92.13-57.47 103.21 18.11 0 149.73-65.784 156.5-71.971 8.144-7.478 4.149-22.58-1.112-32.632.033-.033-.033-.219 0-.284.122-.349.187-.893-.284-1.681-2.826-4.726-4.474-9.516-4.474-16.17 0-14.786 1.551-22.938 4.758-27.598 7.105 1.21 17.441-2.249 22.04-6.69l58.29-55.54c5.935-5.71 7.332-14.337 1.397-20.08l-4.758-4.726c-2.947-2.886-6.658-3.933-10.304-3.616z" fill="#ffffff"/>
<circle cx="256" stroke="#fefefe" cy="256" r="181.13" stroke-width="18.771" fill="none" /></svg>
