<svg height="512" viewBox="0 0 512 512" width="512" xmlns="http://www.w3.org/2000/svg">
 <path d="m471.95 253.05c0 120.9-98.01 218.9-218.9 218.9-120.9 0-218.9-98.01-218.9-218.9 0-120.9 98.01-218.9 218.9-218.9 120.9 0 218.9 98.01 218.9 218.9" fill="#aaa4d1" fill-rule="evenodd"/>
 <path d="m210.43437 146.02989c-29.6539 0-54.08003 24.42615-54.08003 54.08002v90.13337c0 9.95974 8.06694 18.02667 18.02667 18.02667 9.95974 0 18.02668-8.06693 18.02668-18.02667v-90.13337c0-10.16704 7.85962-18.02666 18.02668-18.02666h171.25338c3.2448 0 6.19216 1.6945 7.81456 4.50667 1.62241 2.81215 1.62241 6.20118 0 9.01332-1.6224 2.81217-4.56976 4.50667-7.81456 4.50667-24.67851 0-45.06668 20.38818-45.06668 45.06668v45.06669c0 9.95974 8.06692 18.02667 18.02667 18.02667 9.95974 0 18.02668-8.06693 18.02668-18.02667v-45.06669c0-5.19169 3.82165-9.01333 9.01333-9.01333 16.07079 0 31.00587-8.61675 39.04577-22.53334 8.03989-13.9166 8.03989-31.15008 0-45.06669-8.0399-13.91658-22.97498-22.53334-39.04577-22.53334zm-90.13336 54.08002c-9.95974 0-18.02668 8.06693-18.02668 18.02667v90.13337c0 29.65387 24.42614 54.08002 54.08001 54.08002 37.55857 0 75.10814 0 112.6667 0 17.68416 0 34.07942-9.47301 42.92151-24.78667 8.84208-15.31367 8.84208-34.25969 0-49.57335-8.84209-15.31366-25.23735-24.78668-42.92151-24.78668h-9.01333c-4.85819 0-9.29275-2.55078-11.72635-6.76001-2.43361-4.20922-2.43361-9.31078 0-13.52001 2.4336-4.20922 6.86816-6.75999 11.72635-6.75999h40.56002c9.95973 0 18.02665-8.06694 18.02665-18.02668 0-9.95974-8.06692-18.02667-18.02665-18.02667h-40.56002c-17.68418 0-34.11548 9.47302-42.95755 24.78667-8.8421 15.31366-8.8421 34.25969 0 49.57335 8.84207 15.31366 25.27337 24.78667 42.95755 24.78667h9.01333c4.85819 0 9.29275 2.55079 11.72635 6.76001 2.4336 4.20922 2.4336 9.31078 0 13.52-2.4336 4.20923-6.86816 6.76-11.72635 6.76-37.55856 0-75.10813 0-112.6667 0-10.16704 0-18.02666-7.85962-18.02666-18.02666v-90.13337c0-9.95974-8.06694-18.02667-18.02667-18.02667z" fill="#ffffff"/>
<circle cx="256" stroke="#fefefe" cy="256" r="181.13" stroke-width="18.771" fill="none" /></svg>
