<svg height="512" viewBox="0 0 512 512" width="512" xmlns="http://www.w3.org/2000/svg">
 <path d="m471.95 253.05c0 120.9-98.01 218.9-218.9 218.9-120.9 0-218.9-98.01-218.9-218.9 0-120.9 98.01-218.9 218.9-218.9 120.9 0 218.9 98.01 218.9 218.9" fill="#9a3034" fill-rule="evenodd"/>
 <text x="729.64" y="231.36">
  
 </text>
 <text x="1310.91" y="151.36">
  
 </text>
 <text x="239.33" y="-29.9">
  
 </text>
 <text x="1337.38" y="-246.37">
  
 </text>
 <text x="1918.65" y="-326.37">
  
 </text>
 <text x="1529.53" y="-798.77">
  
 </text>
 <text x="2110.79" y="-878.78">
  
 </text>
 <text x="277.99" y="535.94">
  
 </text>
 <path d="m251.24 106.68l-18.1 45.918-6.927-21.786-11.228 28.49-7.681-3.966-5.642-8.798-.642 5.558-29.746-15.362 20.781 47.79-45.807-23.657 18.49 42.483-32.54-7.094 12.345 15.502-8.575 2.737 15.641 6.173 3.212 3.994-43.879 13.965 35.05 13.798-18.993.81 15.613 11.647-24.384 15.641 40.08 4.553-17.317 33.517 20.11-8.742-26.14 28.434 36.701-5.335-3.128 14.384-3.184 3.463 33.377-4.86 1.983 46.868 28.27-37.874 2.123 50.39 29.97-40.16.419 9.776 5.502-7.346 18.77 17.261-2.598-17.792 32.986 30.31-9.161-63.07 3.827-.168 35.724 32.847-4.972-34.13 2.737-.112 3.575 1.843-.866-1.955 23.657-1.01-32.819-24.495-.475-3.212 63.68-2.681-47.06-35.11 29.19-9.301-20.14-7.932 30.08-32.707-35.612 5.167-22.736-8.938 18.379-35.556-24.719 10.753-1.089-25.948-27.596 36.953 29.27-56.62-43.15 18.77.056-.251-.614.503-3.296 1.424-6.648-20.892-7.206 18.295-16.926-53.15" fill="#ffffff" fill-rule="evenodd"/>
<circle cx="256" stroke="#fefefe" cy="256" r="181.13" stroke-width="18.771" fill="none" /></svg>
