<svg xmlns:rdf="http://www.w3.org/1999/02/22-rdf-syntax-ns#" xmlns="http://www.w3.org/2000/svg" height="512" width="512" version="1.1" xmlns:cc="http://creativecommons.org/ns#" xmlns:dc="http://purl.org/dc/elements/1.1/" viewBox="0 0 135.47 135.47">
 <path d="m124.88 66.954c0 31.988-25.932 57.92-57.92 57.92s-57.92-25.932-57.92-57.92 25.932-57.92 57.92-57.92 57.92 25.932 57.92 57.92" fill-rule="evenodd" fill="#b93d48"/>
 <g transform="matrix(0.858 0 0 0.858 10.194 8.4703)">
  <path fill="#ffffff" d="m39.132 32.014c-7.8187 0-14.24 7.6862-14.24 17.044v37.351c0 9.3583 6.4209 17.044 14.24 17.044h57.224c7.8187 0 14.24-7.6862 14.24-17.044v-37.351c0-9.3583-6.4209-17.044-14.24-17.044z"/>
  <path fill="#b93d48" d="m96.441 38.771c-19.502 0.0463-39.018-0.0945-58.515 0.0744-4.4379 0.84957-6.7389 5.8079-6.441 9.9632 0.06985 13.492-0.18494 26.998 0.14049 40.481 0.51409 3.9362 3.8113 7.9745 8.0698 7.515 19.386-0.0775 38.793 0.15954 58.166-0.12303 4.4066-1.0044 6.5511-6.0082 6.2415-10.203-0.091-13.415 0.18839-26.845-0.1479-40.248-0.54795-3.6777-3.4314-7.63-7.5158-7.4586"/>
  <path fill="#ffffff" d="m43.868 42.785c-4.6593 0.29607-7.5999 5.2644-7.3292 9.5911 0.2376 12.975-0.22198 25.326 0.11086 36.576 15.499-14.92 33.687-32.377 47.524-46.178-13.434 0.002-26.871-0.006-40.307 0.008"/>
 </g>
 <circle cx="68.294" stroke="#fefefe" cy="66.572" r="49.605" stroke-width="5.1407" fill="none"/>
</svg>
