<svg height="512" viewBox="0 0 144.5 144.5" width="512" xmlns="http://www.w3.org/2000/svg">
 <path d="m133.19 71.42c0 34.12-27.66 61.779-61.779 61.779-34.12 0-61.779-27.66-61.779-61.779 0-34.12 27.66-61.779 61.779-61.779 34.12 0 61.779 27.66 61.779 61.779" fill="#d70d0d" fill-rule="evenodd"/>
 <rect fill="#ffffff" height="5.386" rx="2.693" transform="matrix(-.74940374 -.66211331 .66211331 -.74940374 0 0)" width="44.31" x="-99.13" y="-8.98"/>
 <rect fill="#ffffff" height="5.887" rx="2.943" transform="matrix(.70710678 -.70710678 .70710678 .70710678 0 0)" width="54.02" x="-2.23" y="96.82"/>
 <rect fill="#ffffff" height="2.818" rx="1.409" transform="matrix(.4772 -.87879 .85224 .52315 0 0)" width="46.48" x="-74.2" y="96.3"/>
 <path d="m77.306 71.418a5.8915 5.8915 0 0 1 -11.783 0 5.8915 5.8915 0 1 1 11.783 0" fill="#ffffff"/>
<circle cx="256" stroke="#fefefe" cy="256" r="181.13" stroke-width="18.771" fill="none" /></svg>
