<svg height="512" viewBox="0 0 512 512" width="512" xmlns="http://www.w3.org/2000/svg">
 <path d="m471.95 253.05c0 120.9-98.01 218.9-218.9 218.9-120.9 0-218.9-98.01-218.9-218.9 0-120.9 98.01-218.9 218.9-218.9 120.9 0 218.9 98.01 218.9 218.9" fill="#c74a6c" fill-rule="evenodd"/>
 <g fill="#ffffff" transform="matrix(8.2430457 0 0 8.2430457 57.12297 31.938339)">
  <path d="m20.299 6l-14.182 36h5.373l5.121-13h14.777l5.121 13h5.373l-14.182-36h-7.402zm3.701 4.24l5.42 13.76h-10.84z" fill-rule="evenodd"/>
  <path d="m40 16l1 5h-11v6h11l-1 5 5-8z"/>
 </g>
<circle cx="256" stroke="#fefefe" cy="256" r="181.13" stroke-width="18.771" fill="none" /></svg>
