<?xml version='1.0' encoding='UTF-8' standalone='no'?>
<svg height="16" style="enable-background:new" version="1.1" width="16" xmlns="http://www.w3.org/2000/svg">
 <title>
  Paper Symbolic Icon Theme
 </title>
 <g transform="translate(-425.0004,375.00336)">
  <path class="warning" d="m 433.0002,-374.28125 c -0.76797,0.75782 -1.50067,1.62857 -2.28125,2.37305 l -2.62695,0 0,2.62695 c -0.74462,0.78061 -1.61513,1.51326 -2.37305,2.28125 0.75788,0.76803 1.62848,1.53183 2.37305,2.3125 l 0,2.59766 2.62695,0 c 0.78061,0.74462 1.51326,1.61317 2.28125,2.37109 0.76803,-0.75788 1.53183,-1.62652 2.3125,-2.37109 l 2.5957,-0.002 0,-2.5957 c 0.74462,-0.78062 1.61513,-1.54451 2.37305,-2.3125 -0.75788,-0.76803 -1.62848,-1.50059 -2.37305,-2.28125 l 0,-2.62891 -2.5957,0.002 c -0.78062,-0.74462 -1.54451,-1.61513 -2.3125,-2.37305 z m -1,3.27734 2,0 0,3 0,2.00391 -2,0 0,-2.00391 0,-3 z m 0,6 2,0 0,2 -2,0 0,-2 z" style="fill:#f67d42;fill-opacity:1;"/>
 </g>
</svg>
