<?xml version='1.0' encoding='UTF-8' standalone='no'?>
<svg height="16.003" style="enable-background:new" version="1.1" width="16" xmlns="http://www.w3.org/2000/svg">
 <title>
  Paper Symbolic Icon Theme
 </title>
 <g transform="translate(-405.03168,235.00328)">
  <path d="m 413.0002,-235 c -1.06855,-0.0284 -2.02842,0.93145 -2,2 l -4,0 c 0,0 -1,0 -1,1 l 0,11 c 0,1 1,1 1,1 l 8,0 0,-3 -6,0 0,-1 6,0 0,-1 5,0 0,-7 c 0,-1 -1,-1 -1,-1 l -4,0 c 0.0469,-1.08177 -0.93065,-2.02193 -2,-2 z m 0,1 c 0.83678,-0.0296 1.35434,1.15278 0.71875,1.71875 -0.54266,0.60179 -1.67751,0.18423 -1.71875,-0.625 -0.0722,-0.57256 0.42311,-1.10726 1,-1.09375 z m -4,4 8,0 0,1 -8,0 0,-1 z m 0,3 8,0 0,1 -8,0 0,-1 z" style="fill:#fefefe;fill-opacity:1;"/>
  <path d="m 416.0002,-224 0,1 c 0,0.27614 0.10029,0.53779 0.28125,0.71875 l 0.78125,0.78125 -0.78125,0.78125 c -0.18096,0.18096 -0.28125,0.44261 -0.28125,0.71875 l 0,1 1,0 c 0.27614,0 0.53779,-0.10029 0.71875,-0.28125 l 0.78125,-0.78125 0.78125,0.78125 c 0.18096,0.18096 0.44261,0.28125 0.71875,0.28125 l 1,0 0,-1 c 0,-0.27614 -0.10029,-0.53779 -0.28125,-0.71875 l -0.78125,-0.78125 0.78125,-0.78125 c 0.18096,-0.18096 0.28125,-0.44261 0.28125,-0.71875 l 0,-1 -1,0 c -0.27614,0 -0.53779,0.10029 -0.71875,0.28125 l -0.78125,0.78125 -0.78125,-0.78125 C 417.53799,-223.89971 417.27634,-224 417.0002,-224 z" style="fill:#fefefe;fill-opacity:1;enable-background:new"/>
 </g>
</svg>
