<?xml version='1.0' encoding='UTF-8' standalone='no'?>
<svg height="16" style="enable-background:new" version="1.1" width="16" xmlns="http://www.w3.org/2000/svg">
 <title>
  Paper Symbolic Icon Theme
 </title>
 <g transform="translate(-385.0004,275.00336)">
  <path d="m 398.0002,-273 c 0,0 2,0 2,2 l -14,0 c 0,-2 1.96875,-2 1.96875,-2 z m 2,8 c 0,2 -2,2 -2,2 l -1,0 -2,3 -2,-3 -5,0 c -1.108,0 -2,-0.892 -2,-2 z" style="opacity:0.35;fill:#fefefe;fill-opacity:1;"/>
  <path d="m 388.0004,-270.00336 c -1.108,0 -2,0.892 -2,2 0,1.108 0.892,2 2,2 1.108,0 2,-0.892 2,-2 0,-1.108 -0.892,-2 -2,-2 z m 5,0 c -1.108,0 -2,0.892 -2,2 0,1.108 0.892,2 2,2 1.108,0 2,-0.892 2,-2 0,-1.108 -0.892,-2 -2,-2 z m 5,0 c -1.108,0 -2,0.892 -2,2 0,1.108 0.892,2 2,2 1.108,0 2,-0.892 2,-2 0,-1.108 -0.892,-2 -2,-2 z" style="fill:#fefefe;fill-opacity:1;enable-background:new"/>
 </g>
</svg>
