<?xml version='1.0' encoding='UTF-8' standalone='no'?>
<svg height="16" style="enable-background:new" version="1.1" width="16" xmlns="http://www.w3.org/2000/svg">
 <title>
  Paper Symbolic Icon Theme
 </title>
 <g transform="translate(-485.0002,331.00336)">
  <path d="m 487.875,-319 a 0.50005,0.50005 0 0 0 -0.3125,0.28125 l -1,2 a 0.50005,0.50005 0 1 0 0.875,0.4375 l 1,-2 A 0.50005,0.50005 0 0 0 487.875,-319 z" style="fill:#fefefe;fill-opacity:1;"/>
  <path d="m 490.375,-319 a 0.50005,0.50005 0 0 0 -0.3125,0.28125 l -1,2 a 0.50005,0.50005 0 1 0 0.875,0.4375 l 1,-2 A 0.50005,0.50005 0 0 0 490.375,-319 z" style="fill:#fefefe;fill-opacity:1;"/>
  <path d="m 492.875,-319 a 0.50005,0.50005 0 0 0 -0.3125,0.28125 l -1,2 a 0.50005,0.50005 0 1 0 0.875,0.4375 l 1,-2 A 0.50005,0.50005 0 0 0 492.875,-319 z" style="fill:#fefefe;fill-opacity:1;"/>
  <path d="m 495.375,-319 a 0.50005,0.50005 0 0 0 -0.3125,0.28125 l -1,2 a 0.50005,0.50005 0 1 0 0.875,0.4375 l 1,-2 A 0.50005,0.50005 0 0 0 495.375,-319 z" style="fill:#fefefe;fill-opacity:1;"/>
  <path d="m 497.875,-319 a 0.50005,0.50005 0 0 0 -0.3125,0.28125 l -1,2 a 0.50005,0.50005 0 1 0 0.875,0.4375 l 1,-2 A 0.50005,0.50005 0 0 0 497.875,-319 z" style="fill:#fefefe;fill-opacity:1;"/>
  <path d="m 493.0002,-331 c -2.07107,0 -3.83471,1.26792 -4.59375,3.0625 -1.92783,0.2866 -3.40625,1.92992 -3.40625,3.9375 0,2.20914 1.79086,4 4,4 l 8.5,0 c 1.933,0 3.5,-1.567 3.5,-3.5 0,-1.79654 -1.35079,-3.2687 -3.09375,-3.46875 C 497.45188,-329.26214 495.42707,-331 493.0002,-331 z" style="fill:#fefefe;fill-opacity:1;"/>
 </g>
</svg>
