<svg height="512" viewBox="0 0 512 512" width="512" xmlns="http://www.w3.org/2000/svg">
 <path d="m471.95 253.05c0 120.9-98.006 218.91-218.91 218.91s-218.91-98.006-218.91-218.91 98.006-218.91 218.91-218.91 218.91 98.006 218.91 218.91" fill="#858585" fill-rule="evenodd"/>
 <path d="m288.34468 124.40344c-36.591-.14384-50.013 39.573-75.451 53.886-29.737 9.0387-38.826 43.713-73.58 41.34 60.51911 53.90431 21.81262 108.07493 14.22125 145.44343 72.51299 48.77825 72.88807 48.5705 143.81 95.94469 108.19-4.3868 177.73125-99.54549 190.00125-205.52249-49.20506-37.83282-73.93613-66.39626-141.74594-97.85282-13.932-9.998-32.53806-35.43381-49.69006-35.38081-2.6044-.37809-5.1231 2.159-7.5625 2.1494z" opacity=".25"/>
 <path d="m256 1c-140.83 0-255 114.17-255 255s114.17 255 255 255 255-114.17 255-255-114.17-255-255-255m8.827 44.931c120.9 0 218.9 98 218.9 218.9s-98 218.9-218.9 218.9-218.93-98-218.93-218.9 98.03-218.9 218.93-218.9" fill-opacity=".067" fill-rule="evenodd"/>
 <path d="m256 4.43c-138.94 0-251.57 112.63-251.57 251.57s112.63 251.57 251.57 251.57 251.57-112.63 251.57-251.57-112.63-251.57-251.57-251.57m5.885 38.556c120.9 0 218.9 98 218.9 218.9s-98 218.9-218.9 218.9-218.93-98-218.93-218.9 98.03-218.9 218.93-218.9" fill-opacity=".129" fill-rule="evenodd"/>
 <path d="m256 8.36c-136.77 0-247.64 110.87-247.64 247.64s110.87 247.64 247.64 247.64 247.64-110.87 247.64-247.64-110.87-247.64-247.64-247.64m2.942 31.691c120.9 0 218.9 98 218.9 218.9s-98 218.9-218.9 218.9-218.93-98-218.93-218.9 98.03-218.9 218.93-218.9" fill-opacity=".129" fill-rule="evenodd"/>
 <path d="m253.04 7.86c-135.42 0-245.19 109.78-245.19 245.19 0 135.42 109.78 245.19 245.19 245.19 135.42 0 245.19-109.78 245.19-245.19 0-135.42-109.78-245.19-245.19-245.19zm0 26.297c120.9 0 218.9 98 218.9 218.9s-98 218.9-218.9 218.9-218.93-98-218.93-218.9 98.03-218.9 218.93-218.9z" fill="#ffffff" fill-rule="evenodd" stroke="#000000" stroke-opacity=".31" stroke-width="4.904"/>
 <text x="729.64" y="231.36">
  
 </text>
 <text x="1310.91" y="151.36">
  
 </text>
 <text x="239.33" y="-29.9">
  
 </text>
 <text x="1337.38" y="-246.37">
  
 </text>
 <text x="1918.65" y="-326.37">
  
 </text>
 <text x="1529.53" y="-798.77">
  
 </text>
 <text x="2110.79" y="-878.78">
  
 </text>
 <text x="277.99" y="535.94">
  
 </text>
 <path d="m238.95067 98.115943c-142.353126 112.548117-144.166649 81.968447-144.166649 112.995617 0 16.11027 5.021883 18.12406 53.077209 18.12406v114.56192c0 22.91237 0 22.91237 21.42621 22.91237h42.8524c21.42621 0 21.42621 0 21.42621-22.91237v-91.64954c26.71312 0 16.13949 0 42.85239 0v91.64954c0 22.91237 0 22.91237 21.42621 22.91237h42.85241c21.4262 0 21.4262 0 21.4262-22.91237v-114.56192c48.05555 0 53.07742-2.01377 53.07742-18.12406 0-31.10174-1.18487.0756-144.16664-112.995617-16.04179-16.110274-16.04179-16.110274-32.08337 0z" fill="#ffffff" fill-opacity=".902"/>
</svg>
