<?xml version="1.0" encoding="UTF-8" standalone="no"?>
<svg xmlns="http://www.w3.org/2000/svg" xmlns:xlink="http://www.w3.org/1999/xlink" width="16" height="16" version="1.1" viewBox="0 0 16 16">
 <defs>
  <linearGradient id="linearGradient6117">
   <stop style="stop-color:#000000;stop-opacity:1;" offset="0"/>
   <stop style="stop-color:#000000;stop-opacity:0;" offset="1"/>
  </linearGradient>
  <linearGradient xlink:href="#linearGradient6117" id="linearGradient6123" x1="382.9" y1="527.381" x2="392.9" y2="527.381" gradientUnits="userSpaceOnUse"/>
 </defs>
 <g transform="translate(0,-1036.3622)">
  <g transform="translate(-401.01229,510.63371)">
   <g transform="translate(5.05585,-5.251147)">
    <g transform="translate(-11.317,5.8824915)" style="stroke:#000000;stroke-opacity:0.8">
     <g transform="translate(1.8733025,-0.28410538)">
      <g style="fill-opacity:1;fill:#555555" transform="matrix(0.98655845,0,0,0.99863674,9.1628316,-3.9560402)">
       <path d="m 406.46943,542.12137 3.24192,-2.72837 -4.68282,-2.9199 -3.20408,2.59442 4.64498,3.05385 z m 3.24192,-2.72861 3.25144,2.72849 4.63545,-3.05385 -3.20397,-2.5943 -4.68292,2.91966 z m 0,0.59373 -3.24192,2.71873 -1.39354,-0.91897 0,1.03377 4.63546,2.8051 4.66394,-2.8051 0,-1.03377 -1.39365,0.91897 -3.27029,-2.71873 z m -7.8869,-6.09817 3.20408,2.58478 4.68282,-2.91026 -3.24192,-2.72837 -4.64498,3.05385 z m 11.13834,-3.05385 -3.25144,2.72837 4.68292,2.91026 3.20397,-2.58478 -4.63545,-3.05385 z" style="fill-opacity:1;fill:#555555"/>
      </g>
      <rect style="opacity:0;fill-opacity:1;stroke:#000000;fill:#666666" width="21" height="27.579" x="384.4" y="515.38" ry="7.677"/>
      <rect style="opacity:0;fill:#666666;fill-opacity:1;stroke:url(#linearGradient6123);" width="9" height="18" x="383.4" y="518.38" ry="4.5"/>
     </g>
    </g>
   </g>
  </g>
 </g>
</svg>
