<?xml version="1.0" encoding="UTF-8" standalone="no"?>
<svg xmlns="http://www.w3.org/2000/svg" width="16" height="16" version="1.1" viewBox="0 0 16 16">
 <g transform="translate(0,-1036.3622)">
  <g transform="translate(-401.01229,510.63371)">
   <g transform="translate(5.42985,-7.9865193)">
    <path d="m 386.57144,526.798 0,1 6.99999,0 1,-3 -1,2 z" style="fill:#ffffff;fill-opacity:0.23529412;fill-rule:evenodd;"/>
   </g>
   <g transform="translate(5.05585,-5.251147)">
    <path d="m 386.57144,526.798 0,1 6.99999,0 1,-3 -1,2 z" style="fill:#ffffff;fill-opacity:0.23529412;fill-rule:evenodd;"/>
    <g transform="translate(-11.317,5.8824915)" style="stroke:#000000;stroke-opacity:0.8">
     <g transform="translate(1.8733025,-0.28410538)">
      <g transform="translate(-2.0518724,-0.97858527)">
       <g transform="translate(0.22097092,0.44194173)">
        <g transform="translate(1.3573925,-1.2626907)">
         <g transform="translate(-0.41037448,-0.59977801)">
          <g transform="matrix(0.7863692,0,0,0.78394543,92.594038,111.881)">
           <g transform="matrix(1.2716673,0,0,1.275599,-114.65779,-139.97713)" style="fill:#000000;fill-opacity:0.8;">
            <g transform="matrix(0.81010415,0,0,0.81010415,82.799227,101.17697)">
             <g transform="matrix(1.0765318,0,0,1.0765318,-30.345889,-40.379304)" style="fill:#555555">
              <g transform="matrix(0.7863692,0,0,0.78394543,91.098582,112.74418)" style="fill-opacity:1;fill:#555555">
               <g style="font-size:18.52626991px;line-height:125%;letter-spacing:0px;word-spacing:0px;fill-opacity:1;fill:#555555" transform="scale(0.99845769,1.0015447)">
                <path style="font-family:'Product Sans';fill-opacity:1;fill:#555555" d="m 404.72385,528.39204 q 3.0383,0 5.11325,2.09347 2.07494,2.09347 2.07494,5.05767 0,1.66737 -0.72253,2.76042 -0.70399,1.09305 -2.05641,1.09305 -1.38947,0 -2.07494,-1.35242 -0.90779,1.35242 -2.59368,1.35242 -1.51916,0 -2.55663,-1.056 -1.03747,-1.07452 -1.03747,-2.72336 0,-1.63031 1.03747,-2.70484 1.03747,-1.07452 2.48252,-1.07452 1.42653,0 2.37137,1.09305 l 0.0741,0 0,-0.83368 1.33389,0 0,4.83536 q 0,0.48168 0.25937,0.87073 0.27789,0.38905 0.83368,0.38905 1.31537,0 1.31537,-2.64926 0,-2.44546 -1.70442,-4.13135 -1.70442,-1.68589 -4.14988,-1.68589 -2.44547,0 -4.14989,1.68589 -1.70441,1.68589 -1.70441,4.13135 0,2.44547 1.70441,4.13136 1.70442,1.68589 4.14989,1.68589 1.31536,0 2.35283,-0.51873 l 0.51874,1.25978 q -1.29684,0.59285 -2.87157,0.59285 -3.07536,0 -5.16883,-2.07495 -2.09347,-2.09347 -2.09347,-5.0762 0,-2.9642 2.09347,-5.05767 2.11199,-2.09347 5.16883,-2.09347 z m -1.72295,8.94819 q 0.66695,0.64842 1.59326,0.64842 0.92632,0 1.57474,-0.64842 0.66694,-0.64842 0.66694,-1.72294 0,-1.07452 -0.66694,-1.72294 -0.64842,-0.64842 -1.57474,-0.64842 -0.92631,0 -1.59326,0.64842 -0.64842,0.64842 -0.64842,1.72294 0,1.07452 0.64842,1.72294 z"/>
               </g>
              </g>
              <g style="fill-opacity:1;fill:#555555" transform="matrix(0.08014679,0,0,0.08014679,396.54148,530.18294)">
               <g style="fill-opacity:1;fill:#555555">
                <path d="M 77.538,39.125 39.57,1.159 C 39.028,0.616 38.403,0.344 37.697,0.344 c -0.706,0 -1.33,0.272 -1.873,0.815 L 31.75,5.233 c -0.543,0.543 -0.814,1.167 -0.814,1.874 0,0.707 0.271,1.331 0.814,1.874 L 63.77,41 31.75,73.02 c -0.543,0.543 -0.814,1.168 -0.814,1.873 0,0.707 0.271,1.332 0.814,1.875 l 4.074,4.072 c 0.543,0.544 1.167,0.814 1.873,0.814 0.707,0 1.331,-0.271 1.873,-0.814 L 77.538,42.874 c 0.543,-0.543 0.813,-1.168 0.813,-1.874 0,-0.706 -0.271,-1.331 -0.813,-1.875 l 0,0 z" style="fill-opacity:1;fill:#555555"/>
                <path d="m 47.066,41 c 0,-0.706 -0.271,-1.331 -0.815,-1.875 L 8.285,1.159 C 7.742,0.616 7.117,0.344 6.411,0.344 5.705,0.344 5.08,0.616 4.537,1.159 L 0.464,5.233 C -0.08,5.776 -0.351,6.4 -0.351,7.107 c 0,0.707 0.271,1.331 0.815,1.874 L 32.483,41 0.464,73.02 c -0.544,0.543 -0.815,1.168 -0.815,1.873 0,0.707 0.271,1.332 0.815,1.875 l 4.073,4.072 c 0.543,0.544 1.168,0.814 1.874,0.814 0.706,0 1.331,-0.271 1.874,-0.814 L 46.251,42.874 C 46.795,42.331 47.066,41.706 47.066,41 l 0,0 z" style="fill-opacity:1;fill:#555555"/>
               </g>
              </g>
             </g>
            </g>
           </g>
          </g>
         </g>
        </g>
       </g>
      </g>
     </g>
    </g>
   </g>
  </g>
 </g>
</svg>
