<?xml version="1.0" encoding="UTF-8" standalone="no"?>
<svg xmlns="http://www.w3.org/2000/svg" width="16" height="16" version="1.1" viewBox="0 0 16 16">
 <g transform="translate(0,-1036.3622)">
  <g transform="translate(-401.01229,510.63371)">
   <g transform="translate(5.42985,-7.9865193)">
    <path d="m 386.57144,526.798 0,1 6.99999,0 1,-3 -1,2 z" style="fill:#ffffff;fill-opacity:0.23529412;fill-rule:evenodd;"/>
   </g>
   <g transform="translate(5.05585,-5.251147)">
    <path d="m 386.57144,526.798 0,1 6.99999,0 1,-3 -1,2 z" style="fill:#ffffff;fill-opacity:0.23529412;fill-rule:evenodd;"/>
    <g transform="translate(-11.317,5.8824915)" style="stroke:#000000;stroke-opacity:0.8">
     <g transform="translate(1.8733025,-0.28410538)">
      <g transform="translate(-2.0518724,-0.97858527)">
       <g transform="translate(0.22097092,0.44194173)">
        <g transform="translate(1.3573925,-1.2626907)">
         <g transform="translate(-0.41037448,-0.59977801)">
          <g transform="matrix(0.7863692,0,0,0.78394543,92.594038,111.881)">
           <g transform="matrix(1.2716673,0,0,1.275599,-114.65779,-139.97713)" style="fill:#000000;fill-opacity:0.8;">
            <g transform="matrix(0.81010415,0,0,0.81010415,82.799227,101.17697)">
             <g transform="matrix(1.0811894,0,0,1.0811894,-33.521846,-42.374172)" style="fill:#555555">
              <g transform="matrix(0.85388787,0,0,0.85125599,59.088518,78.457749)" style="fill-opacity:1;fill:#555555">
               <g style="font-size:18.52626991px;line-height:125%;letter-spacing:0px;word-spacing:0px;fill-opacity:1;fill:#555555" transform="scale(0.99845769,1.0015447)">
                <path style="font-family:'Product Sans';fill-opacity:1;fill:#555555" d="m 404.72385,528.39204 q 3.0383,0 5.11325,2.09347 2.07494,2.09347 2.07494,5.05767 0,1.66737 -0.72253,2.76042 -0.70399,1.09305 -2.05641,1.09305 -1.38947,0 -2.07494,-1.35242 -0.90779,1.35242 -2.59368,1.35242 -1.51916,0 -2.55663,-1.056 -1.03747,-1.07452 -1.03747,-2.72336 0,-1.63031 1.03747,-2.70484 1.03747,-1.07452 2.48252,-1.07452 1.42653,0 2.37137,1.09305 l 0.0741,0 0,-0.83368 1.33389,0 0,4.83536 q 0,0.48168 0.25937,0.87073 0.27789,0.38905 0.83368,0.38905 1.31537,0 1.31537,-2.64926 0,-2.44546 -1.70442,-4.13135 -1.70442,-1.68589 -4.14988,-1.68589 -2.44547,0 -4.14989,1.68589 -1.70441,1.68589 -1.70441,4.13135 0,2.44547 1.70441,4.13136 1.70442,1.68589 4.14989,1.68589 1.31536,0 2.35283,-0.51873 l 0.51874,1.25978 q -1.29684,0.59285 -2.87157,0.59285 -3.07536,0 -5.16883,-2.07495 -2.09347,-2.09347 -2.09347,-5.0762 0,-2.9642 2.09347,-5.05767 2.11199,-2.09347 5.16883,-2.09347 z m -1.72295,8.94819 q 0.66695,0.64842 1.59326,0.64842 0.92632,0 1.57474,-0.64842 0.66694,-0.64842 0.66694,-1.72294 0,-1.07452 -0.66694,-1.72294 -0.64842,-0.64842 -1.57474,-0.64842 -0.92631,0 -1.59326,0.64842 -0.64842,0.64842 -0.64842,1.72294 0,1.07452 0.64842,1.72294 z"/>
               </g>
              </g>
              <g style="fill-opacity:1;fill:#555555" transform="matrix(0.05252311,0,0,0.05252311,408.98875,524.83322)">
               <path style="fill-opacity:1;fill:#555555" d="M 123.777,73.993 112.535,62.994 123.777,51.995 c 1.63,-1.521 2.173,-3.422 1.63,-5.703 -0.651,-2.227 -2.063,-3.612 -4.237,-4.155 l -15.316,-3.911 4.318,-15.154 c 0.651,-2.226 0.137,-4.128 -1.549,-5.703 -1.574,-1.684 -3.475,-2.2 -5.703,-1.548 L 87.768,20.139 83.856,4.822 C 83.313,2.595 81.93,1.21 79.703,0.667 77.475,0.069 75.574,0.586 74,2.215 L 63,13.54 52.001,2.215 C 50.426,0.531 48.525,0.015 46.298,0.667 44.071,1.21 42.686,2.595 42.143,4.822 L 38.232,20.139 23.078,15.821 c -2.227,-0.652 -4.128,-0.136 -5.703,1.548 -1.684,1.575 -2.2,3.476 -1.548,5.703 l 4.318,15.154 -15.317,3.911 c -2.172,0.543 -3.585,1.928 -4.236,4.155 -0.544,2.281 0,4.182 1.629,5.703 L 13.464,62.994 2.221,73.993 c -1.629,1.521 -2.172,3.422 -1.629,5.703 0.651,2.227 2.064,3.612 4.236,4.155 l 15.317,3.91 -4.318,15.154 c -0.652,2.227 -0.136,4.127 1.548,5.703 1.575,1.684 3.476,2.199 5.703,1.548 l 15.154,-4.317 3.911,15.316 c 0.543,2.227 1.928,3.639 4.155,4.236 2.281,0.543 4.182,0 5.703,-1.629 L 63,112.529 74,123.773 c 1.086,1.193 2.471,1.791 4.154,1.791 0.381,0 0.896,-0.055 1.549,-0.162 2.227,-0.652 3.611,-2.064 4.154,-4.236 l 3.91,-15.316 15.153,4.317 c 2.228,0.651 4.129,0.136 5.703,-1.548 1.685,-1.576 2.2,-3.477 1.549,-5.703 l -4.317,-15.154 15.315,-3.91 c 2.175,-0.543 3.586,-1.928 4.237,-4.155 0.544,-2.282 0.001,-4.183 -1.63,-5.704 l 0,0 z"/>
              </g>
             </g>
            </g>
           </g>
          </g>
         </g>
        </g>
       </g>
      </g>
     </g>
    </g>
   </g>
  </g>
 </g>
</svg>
