<?xml version="1.0" encoding="UTF-8" standalone="no"?>
<svg xmlns="http://www.w3.org/2000/svg" width="16" height="16" version="1.1" viewBox="0 0 16 16">
 <g transform="translate(0,-1036.3622)">
  <g transform="translate(-401.01229,510.63371)">
   <g transform="translate(5.42985,-7.9865193)">
    <path d="m 386.57144,526.798 0,1 6.99999,0 1,-3 -1,2 z" style="fill:#ffffff;fill-opacity:0.23529412;fill-rule:evenodd;"/>
   </g>
   <g transform="translate(5.05585,-5.251147)">
    <path d="m 386.57144,526.798 0,1 6.99999,0 1,-3 -1,2 z" style="fill:#ffffff;fill-opacity:0.23529412;fill-rule:evenodd;"/>
    <g transform="translate(-11.317,5.8824915)" style="stroke:#000000;stroke-opacity:0.8">
     <g transform="translate(1.8733025,-0.28410538)">
      <g transform="translate(-2.0518724,-0.97858527)">
       <g transform="translate(0.22097092,0.44194173)">
        <g transform="translate(1.3573925,-1.2626907)">
         <g transform="translate(-0.41037448,-0.59977801)">
          <g transform="matrix(0.7863692,0,0,0.78394543,92.594038,111.881)">
           <g transform="matrix(1.2716673,0,0,1.275599,-114.25636,-140.42007)">
            <g transform="matrix(0.7863692,0,0,0.78394543,93.325829,112.35451)">
             <g transform="matrix(1.2716673,0,0,1.275599,-124.33958,-145.6548)">
              <g transform="translate(2.9673242,4.7350927)">
               <g transform="translate(0.03156729,-1.894036)">
                <g transform="translate(-1.3573925,-0.63134534)">
                 <g transform="translate(9.3754783,2.3044104)">
                  <g transform="translate(-8.1443549,-1.9571705)">
                   <g transform="translate(-1.0417198,0.94701802)">
                    <g transform="matrix(1.0318853,0,0,1.0287048,-7.1706131,-19.408055)" style="fill-opacity:1;fill:#555555">
                     <g style="fill-opacity:1;fill:#555555" transform="matrix(-0.01193654,0,0,0.01197345,449.06584,560.73694)">
                      <g style="fill-opacity:1;fill:#555555" transform="matrix(-7.0732846,0,0,7.0017718,2712.2317,-7878.2911)">
                       <g style="fill-opacity:1;fill:#555555" transform="matrix(-0.14381169,0,0,0.14528056,389.34052,1124.3804)">
                        <g style="fill-opacity:1;fill:#555555" transform="matrix(-7.0732846,0,0,7.0017718,2712.2317,-7878.2911)">
                         <g style="fill-opacity:1;fill:#555555" transform="matrix(0.11770342,0,0,0.11770342,-131.56937,724.00624)">
                          <g style="fill-opacity:1;fill:#555555" transform="matrix(2.4024201,0,0,2.4905961,-437.80756,236.72167)">
                           <g style="fill-opacity:1;fill:#555555">
                            <path style="fill-opacity:1;fill:#555555" d="M 3.18,201.694 41.49,231.627 5.433,300.7 c -18.028,31.851 12.943,62.878 32.676,73.679 19.426,10.632 49.577,11.896 77.746,11.513 l 50.704,-82.889 38.31,20.722 L 138.39,200.544 3.18,201.694 Z M 8.813,370.78 91.066,522.742 c 16.526,21.105 47.7,26.094 80,25.327 l 86.76,0 0,-143.903 L 93.32,403.015 C 67.781,404.548 34.353,399.176 8.813,370.78 Z M 526.309,90.732 481.557,109.727 438.624,44.705 C 419.508,13.496 377.354,25.541 358.342,37.564 339.626,49.4 323.902,75.158 310.581,99.981 l 47.914,84.532 -36.697,23.46 139.966,1.576 64.545,-118.817 z M 375.692,13.686 202.906,11.954 C 176.435,16.175 156.958,41.021 141.97,69.645 L 99.908,145.527 225.769,215.293 306.53,71.97 c 11.039,-23.083 31.944,-49.714 69.162,-58.284 z m 7.516,586.36 5.082,-48.351 77.685,-6.025 c 36.563,-1.59 46.465,-44.297 45.167,-66.755 -1.277,-22.108 -16.184,-48.348 -31.437,-72.033 l -97.162,0.925 -2.729,-43.47 -69.235,121.653 72.629,114.056 z m 140.407,-94.379 85.283,-150.281 c 9.142,-25.199 -3.146,-54.28 -20.915,-81.266 L 542.007,200.543 419.97,276.8 506.169,416.92 c 14.837,20.845 27.994,52.039 17.446,88.747 z"/>
                           </g>
                          </g>
                         </g>
                        </g>
                       </g>
                      </g>
                     </g>
                    </g>
                   </g>
                  </g>
                 </g>
                </g>
               </g>
              </g>
             </g>
            </g>
           </g>
          </g>
         </g>
        </g>
       </g>
      </g>
     </g>
    </g>
   </g>
  </g>
 </g>
</svg>
