<?xml version="1.0" encoding="UTF-8" standalone="no"?>
<svg xmlns="http://www.w3.org/2000/svg" width="16" height="16" version="1.1" viewBox="0 0 16 16">
 <g transform="translate(0,-1036.3622)">
  <g transform="translate(-401.01229,510.63371)">
   <g transform="translate(5.42985,-7.9865193)">
    <path d="m 386.57144,526.798 0,1 6.99999,0 1,-3 -1,2 z" style="fill:#ffffff;fill-opacity:0.23529412;fill-rule:evenodd;"/>
   </g>
   <g transform="translate(5.05585,-5.251147)">
    <path d="m 386.57144,526.798 0,1 6.99999,0 1,-3 -1,2 z" style="fill:#ffffff;fill-opacity:0.23529412;fill-rule:evenodd;"/>
    <g transform="translate(-11.317,5.8824915)" style="stroke:#000000;stroke-opacity:0.8">
     <g transform="translate(1.8733025,-0.28410538)">
      <g transform="translate(-2.0518724,-0.97858527)">
       <g transform="translate(0.22097092,0.44194173)">
        <g transform="translate(1.3573925,-1.2626907)">
         <g transform="translate(-0.41037448,-0.59977801)">
          <g transform="matrix(0.7863692,0,0,0.78394543,92.594038,111.881)">
           <g transform="matrix(1.2716673,0,0,1.275599,-114.25636,-140.42007)">
            <g transform="matrix(0.7863692,0,0,0.78394543,93.325829,112.35451)">
             <g transform="matrix(1.2716673,0,0,1.275599,-124.33958,-145.6548)">
              <g transform="translate(2.9673242,4.7350927)">
               <g transform="translate(0.03156729,-1.894036)">
                <g transform="translate(-1.3573925,-0.63134534)">
                 <g transform="translate(9.3754783,2.3044104)">
                  <path d="m 386.57144,526.798 0,1 6.99999,0 1,-3 -1,2 z" style="fill:#ffffff;fill-opacity:0.23529412;fill-rule:evenodd;"/>
                  <g transform="translate(-8.1443549,-1.9571705)">
                   <path d="m 386.57144,526.798 0,1 6.99999,0 1,-3 -1,2 z" style="fill:#ffffff;fill-opacity:0.23529412;fill-rule:evenodd;"/>
                  </g>
                  <g transform="translate(-11.711456,-1.2311233)">
                   <g transform="matrix(1.0300071,0,0,1.0268324,-6.9019061,-17.738161)" style="fill-opacity:1;fill:#555555">
                    <g style="fill-opacity:1;fill:#555555" transform="matrix(-0.0129682,0,0,0.01300829,441.42618,563.56689)">
                     <g style="fill-opacity:1;fill:#555555" transform="matrix(-7.0732846,0,0,7.0017718,2712.2317,-7878.2911)">
                      <g style="fill-opacity:1;fill:#555555" transform="matrix(-0.13038935,0,0,0.13172113,360.62204,1026.4729)">
                       <g style="fill-opacity:1;fill:#555555" transform="matrix(-7.0732846,0,0,7.0017718,2712.2317,-7878.2911)">
                        <g transform="matrix(0.11770342,0,0,0.11770342,-131.56937,724.00624)" style="fill-opacity:1;fill:#555555">
                         <path style="fill-opacity:1;fill:#555555" d="m 787.66759,1599.5768 148.82754,157.7367 124.02277,-131.4471 0,630.9478 396.8726,0 198.4368,0 396.8725,0 0,-630.9478 124.0229,131.4471 148.8275,-157.7367 L 1556.609,784.60274 787.66759,1599.5768 Z M 1854.264,889.76077 l 0,78.86837 198.4358,210.31606 0,-289.18443 -198.4358,0 0,0 z"/>
                        </g>
                       </g>
                      </g>
                     </g>
                    </g>
                   </g>
                  </g>
                 </g>
                </g>
               </g>
              </g>
             </g>
            </g>
           </g>
          </g>
         </g>
        </g>
       </g>
      </g>
     </g>
    </g>
   </g>
  </g>
 </g>
</svg>
