<svg xmlns:rdf="http://www.w3.org/1999/02/22-rdf-syntax-ns#" xmlns="http://www.w3.org/2000/svg" height="513" width="512" version="1.1" xmlns:cc="http://creativecommons.org/ns#" xmlns:dc="http://purl.org/dc/elements/1.1/">
 <g>
  <rect fill-rule="evenodd" height="44.561" width="183.68" y="71.73" x="33.69" fill="#d60f0f"/>
  <rect fill-rule="evenodd" height="326.06" width="493.44" y="115.21" x="8.7" stroke-width="0" fill="#bdbdbd"/>
  <g fill="#3f3f3f" transform="matrix(8.5 0 0 8.5838 312.79 246.86)">
   <path d="m11 2c-4.6269 0-8.4326 3.508-8.9375 8h-2.0625l3 4 3-4h-1.9062c0.4872-3.39 3.3814-6 6.9062-6 3.866 0 7 3.134 7 7s-3.134 7-7 7c-2.1871 0-4.121-1.0257-5.4062-2.5938l-1.4375 1.4375c1.6431 1.933 4.1035 3.156 6.8437 3.156 4.9706 0 9-4.0294 9-9s-4.0294-9-9-9z" fill-rule="evenodd"/>
   <path d="m10 6v5.5l3.6875 3.375 0.687-0.687-3.375-3.188v-5h-1z"/>
  </g>
 </g>
</svg>
