<svg viewBox="0 0 512 512" xmlns="http://www.w3.org/2000/svg">
 <path d="m263.93516 317.15119c0 20.80065-7.74309 38.03457-23.22596 51.70343-15.33542 13.66554-37.27583 22.24357-65.81957 25.73575v51.92707h-29.83591v-49.88113c-17.30847-.30317-33.93441-1.74609-49.881137-4.32712-15.790999-2.73344-28.848558-6.45258-39.172677-11.15906v-38.26816c11.387676 5.31447 25.280176 9.93978 41.680815 13.8925 16.549739 3.79534 32.340739 5.84625 47.371339 6.14941v-97.47612c-31.12642-9.86854-53.144695-21.40863-66.048187-34.6186-12.90515-13.36901-19.359381-30.44224-19.359381-51.24289 0-20.04522 7.666885-36.51212 23.00231-49.42224 15.335426-12.90515 36.136078-20.80065 62.403608-23.6865v-40.994974h29.83591v40.539394c28.84855.75874 56.25419 6.52878 82.2169 17.30848l-12.7544 32.11212c-23.53409-9.26222-46.68384-14.72745-69.46416-16.39733v96.11768c24.29282 8.19867 42.36169 15.94341 54.20494 23.22596 11.994 7.28752 20.80065 15.63859 26.41828 25.04825 5.61763 9.26222 8.42728 20.49748 8.42728 33.70745m-41.44889 2.9604c0-10.9321-3.56838-19.58634-10.70349-25.96271-7.13676-6.52878-19.43558-12.82894-36.89481-18.9038v85.39928c31.74104-4.85889 47.59996-18.37203 47.59996-40.53939m-121.16594-140.97924c0 11.08452 3.26357 20.04523 9.794 26.87386 6.52878 6.83194 17.84025 13.13376 33.93442 18.90381v-84.952c-14.27187 2.43028-25.12777 7.06056-32.5677 13.8925-7.43992 6.83194-11.15906 15.25922-11.15906 25.28018" fill="#ffedb5"/>
 <path d="m278.34287 65.48587h177.65702v381.02495h-177.65702z" fill="#ffedb5" fill-rule="evenodd"/>
</svg>
