<svg viewBox="0 0 512 512" xmlns="http://www.w3.org/2000/svg">
 <path d="m254.43842 56c-52.3446 0-105.47122 35.25207-105.47122 88.28415v96.08995h-39.05757v215.62591h292.1799v-215.62591c-69.98997-1.19736-144.6577-.0903-205.4569 0v-85.93527c0-32.51646 32.78002-49.87109 57.02664-49.99426 25.93814-.13464 53.48039 16.17444 57.80579 42.18418 44.41422-2.89316 41.40649-2.57376 50.78345-5.47121 0-39.85104-41.43513-85.14752-107.8058-85.14752m.77772 232.02522c16.13006 0 28.9029 12.77857 28.9029 28.90288 0 9.6176-4.54311 18.11516-11.72158 23.43599l11.72158 64.83816h-57.80579l11.71584-64.83816c-7.41908-5.29791-12.49928-13.62933-12.49928-23.43599 0-16.13004 13.56201-28.90288 29.68633-28.90288" fill="#ffedb5" fill-rule="evenodd"/>
</svg>
