<svg viewBox="0 0 512 512" xmlns="http://www.w3.org/2000/svg">
 <path d="m161.65612 51.00152c-3.56152-.0513-7.16983 1.19694-10.21888 3.88729-5.5602 4.86824-5.51963 4.71936-5.80149 32.57082-.1537 16.14207.0292 26.57451.61843 29.21361 1.10173 5.15009 4.11017 9.10382 8.36358 11.10235 7.50733 3.51027 16.97876.34586 20.43774-6.80276 1.69109-3.48465 1.76215-4.25083 1.53136-31.92294l-.26504-28.38904-2.26759-3.00382c-3.30528-4.33017-7.80795-6.57482-12.36867-6.62607l-.0294-.0294zm188.7694.0294c-4.56078.0513-9.03394 2.29589-12.33922 6.62607l-2.32649 3.00381v29.39031 29.33141l2.12035 3.23941c1.25549 1.89605 3.60063 3.89313 5.6248 4.91802 6.58493 3.25403 15.17551 1.49988 19.37757-4.03454 3.43339-4.50953 3.8452-8.77985 3.56336-36.01638-.28185-27.85147-.24145-27.70258-5.8015-32.57082-3.04906-2.69035-6.65737-3.93854-10.21887-3.8873zm-239.98157 31.77569c-14.604918 0-20.156728.34773-23.794958 1.29576-15.47595 4.02271-28.128702 15.91048-33.483742 31.5401l-1.7964 5.18306-.2356 148.01171c-.23041 164.98217-.55129 154.0036 5.41866 166.12295 6.04693 12.24748 18.442832 21.79077 32.099632 24.73733 7.99397 1.71671 326.163298 1.74634 334.336818.0294 14.01541-2.92095 26.38819-12.33612 32.51192-24.73733 5.97001-12.11936 5.59035-1.14078 5.35976-166.12297l-.1767-148.01169-1.76695-5.18307c-5.35506-15.6296-18.00786-27.54683-33.48375-31.56954-3.63837-.94803-9.21967-1.23687-23.8244-1.23687h-19.08309v15.40194c0 8.48098-.33009 17.46705-.76568 20.0549-2.02416 12.40121-10.4582 22.27311-22.11635 25.88585-5.20133 1.58859-13.48244 1.52203-18.3763-.11779-9.81335-3.27966-17.34245-10.7793-20.67335-20.64389-1.07613-3.2284-1.29576-7.23743-1.29576-22.17525v-18.31741h-63.31579-63.25689v18.31741c0 14.93781-.28229 18.94685-1.38412 22.17525-7.78919 23.08573-36.73837 29.66524-53.00857 11.98582-4.12515-4.48392-7.10314-10.66347-8.12798-16.99218-.41002-2.56224-.76968-11.63283-.79512-20.11381v-15.40194h-19.02419l.0589-.11779zm-28.241788 109.81609h173.779758 173.80921v111.17074c0 78.94241-.24292 112.04143-.88348 114.32182-1.15301 4.17644-6.51362 9.59597-10.69006 10.74896-2.30601.64056-48.24047.90911-162.61851.88348-135.33714-.0256-159.873128-.23376-162.589058-1.20742-4.04844-1.43484-8.85592-6.49066-9.98328-10.51336-.58936-2.15228-.82458-37.34086-.82458-114.23347zm227.966298 15.72588c-2.5705.13313-4.83061.96519-6.47883 2.56207l-.0883.0884-12.16252 12.22141-.26504.26504.26504.26504 52.0662 52.06619.29449.23559.23559-.23559 12.04473-12.04473.14724-.17669c.0595-.0595.0809-.10292.0883-.1178 2.929-3.05544 3.24712-8.02972 1.47246-13.57608-1.7821-5.56867-5.66901-11.79074-11.2496-17.37503l-11.80913-11.83851c-7.71596-7.71672-16.60133-12.18823-23.41212-12.33922-.37041-.008-.77068-.0193-1.14851 0zm-25.20852 21.35066l-.26505.26504-12.8693 12.89877-.26504.26504.26504.26504 52.06619 52.06619.2356.26504.29449-.26504 12.8693-12.89875.26505-.26504-.26505-.26504-52.06619-52.0662-.26504-.26504zm-20.85004 20.85005l-.29449.23559-78.54103 78.62937-9.71824 9.68879-2.44428 2.44428-.0883.0589v.0883l-19.64262 61.48994-.0294.0294c-.70574 3.31205.36517 6.9687 2.70933 9.18815l.0295.0294c2.1733 1.62515 5.06667 2.04568 7.53899 1.06018h.0294l62.31452-19.70153.0589-.0294.0589-.0589 2.03199-2.06144 9.3943-9.36485 78.89442-78.86496.26504-.29449-.26504-.26504-52.0662-52.03675-.23559-.26504zm-77.06857 99.89169h.0294.0294c.0734-.003.13245-.003.20614 0 .009 0 .0219-.00074.0294 0h .0294c.682.008 1.31739.3087 1.7964.79512l4.47628 4.44683 16.8744-.88348c.009-.00074.0219 0 .0294 0 .6671-.0298 1.35254.23702 1.8553.67734.59209.52287.92512 1.30174.88347 2.09089l-.85403 18.40575 3.26887 3.29831c.64854.65231.91829 1.61512.67733 2.5032-.24097.88807-.9657 1.59006-1.8553 1.82585l-29.36086 7.89238h-.0294c-.8814.24173-1.8487-.009-2.50318-.64788h-.0294l-5.71315-5.71314c-.66795-.65974-.90449-1.62894-.64788-2.53264l8.59917-30.21488c.26999-1.02344 1.157-1.8254 2.20869-1.94365z" fill="#ffedb5"/>
</svg>
