<svg height="16" viewBox="0 0 16 16" width="16" xmlns="http://www.w3.org/2000/svg">
 <path d="m11.156 3.277v1.961c-2.77.352-5.02 2.387-5.703 5.063h1.754c.719-1.93 2.621-3.438 4.699-3.422.051 0 .102 0 .152 0 .754.004 1.496.191 2.172.531 1.211.551 2.109 1.637 2.551 2.891h1.762c-.68-2.676-2.93-4.711-5.699-5.063v-1.961zm-5.703 10.43c.684 2.672 2.934 4.711 5.703 5.059v1.965h1.688v-1.965c2.77-.348 5.02-2.387 5.699-5.059h-1.738c-.684 2.031-2.793 3.492-4.93 3.418-2.078.012-3.961-1.484-4.664-3.418" fill="#fefefe" transform="matrix(.76135967 0 0 .76135968 -1.202633 -.96978439)"/>
 <path d="m12 8.293c-2.055 0-3.719 1.672-3.719 3.754 0 0-.023.352.082.75h5.715c-.156.434-.434.824-.809 1.086-.863.688-2.172.438-2.91-.336h-1.766c.574 1.324 1.883 2.254 3.406 2.254 2.055 0 3.723-1.684 3.723-3.754 0 0 0-.387-.074-.75h-5.715c.32-.82 1.09-1.484 1.98-1.492.047-.004.09-.004.133-.004.602.012 1.18.301 1.586.742h1.777c-.574-1.324-1.883-2.25-3.41-2.25" fill="#fefefe" transform="matrix(.76135967 0 0 .76135968 -1.202633 -.96978439)"/>
</svg>
