<svg height="16" viewBox="0 0 4.52 4.52" width="16" xmlns="http://www.w3.org/2000/svg">
 <path d="m4.0109264.60165777c-.034844-.004247-.073939.002543-.1121824.0203973l-3.3994563 1.31898873c-.23201298.0934851-.23031323.2243642-.04249331.282155l.87196071.2736562 2.0192772-1.2815952c.095184-.05779.1827209-.027195.1113316.037394l-1.6359879 1.4847128-.0467425.3866882-.2371121-.7597786-.2099164.1334287c.1028331.3263479.2031174.6535455.306801.9790434.033144.087537.1164309.111333.1903695.1130318.1113316.00339.2983024-.1521256.2983024-.1521256l.300002-.2532593.8209687.6102024c.1623241.090086.2796054.043343.3195489-.1521256l.5787576-2.74421159c.044193-.17932136-.0288954-.28555429-.1334287-.29660264m-1.9657358 2.30058253l.1818709.1351283-.2209647.1861202z" fill="#54cdee"/>
</svg>
