<svg viewBox="0 0 512 512" xmlns="http://www.w3.org/2000/svg">
 <path d="m174.47705 455.85134c-28.05181 1.4001-54.85352-7.12545-75.50485-24.05154-20.70133-16.90108-31.52702-38.8525-32.8021-64.17911-1.30009-25.30162 7.9255-50.25323 26.85172-69.05443l222.83929-222.56427c13.65087-13.67588 32.52709-20.47631 52.20335-19.97628 18.15117.42503 35.10225 6.15039 50.25322 18.42618 31.05199 25.40163 37.3774 69.07943 11.57575 94.85608l-186.86199 186.93699c-15.72601 15.676-45.05289 14.95096-63.22905-2.72518-17.25111-16.87608-22.80146-40.95262-7.85051-55.92859l152.95981-152.78479 21.50138 21.22636-148.00949 147.80948c-3.2252 3.22521-5.90038 11.40073 1.6001 19.42625 4.47529 4.72529 15.07597 7.65048 21.50138 1.20007l184.83685-184.61184c14.52594-14.55093 10.32567-39.70254-8.45054-55.05353-9.77563-7.97551-19.87627-11.20071-30.87698-11.45073-10.72568-.32502-20.3263 3.95025-28.02679 11.65075l-222.81429 222.56426c-13.50086 13.45087-20.67633 30.55197-19.77627 48.55312.90006 18.02615 8.97557 31.67703 22.97647 45.35291 13.57587 13.30085 33.82717 18.10115 53.77845 17.1511 19.97628-1.00007 37.12739-13.50086 50.57824-26.95173l196.4376-196.21259 21.55139 21.6764-194.31247 194.11245c-18.92621 18.87621-44.85288 33.25213-72.87967 34.65222" fill="#b7b7b7"/>
</svg>
