<svg viewBox="0 0 512 512" xmlns="http://www.w3.org/2000/svg">
 <path d="m301.89727 211.93329c0 0-73.96622 22.65872-88.15896 36.84106-14.16848 14.14308-14.16848 37.10437 0 51.29711 14.19389 14.15578 37.15056 14.15578 51.29711 0 14.18119-14.18119 36.86647-88.13587 36.86647-88.13587" fill="#b7b7b7"/>
 <path d="m400.41496 133.31083l38.00167 38.02822 32.56592-32.62366c0 0-21.61361-53.912774-97.75551-97.720871l-32.57747 32.577472 38.04092 38.001659v.0127l-8.23271 8.25811c-34.93331-29.93754-80.2138-48.119026-129.81332-48.119026-110.25066.012703-199.622182 89.371516-199.622182 199.645286 0 110.25066 89.371522 199.62218 199.633732 199.62218 110.28531 0 199.65683-89.37152 199.65683-199.62218 0-49.6411-18.19419-94.90311-48.10518-129.81332l8.23271-8.25812m-9.16119 141.4539c-.0393.14205-.0393.3222-.0393.52891h2.86511c-1.60058 35.47261-15.35564 68.70024-39.31007 94.9262l-1.79344-1.80613c-.37416.42613-.71021.87766-1.07052 1.27723l-27.22719-27.21449-8.5422 8.5422 28.91669 28.9167c-26.24675 23.94981-59.43859 37.73143-94.96085 39.32162v-.74833c-.96774.0774-1.87081.18016-2.86511.23212v-40.36327h-10.86454v40.87948c-5.41957-.24483-10.73637-.87767-16.0266-1.6641-30.49186-3.98759-58.80343-17.14908-81.78435-38.15525l28.95134-28.93979-8.06526-8.026-27.77342 27.77342c-.52891-.61898-.96774-1.25182-1.53591-1.8327l-1.3165 1.3292c-24.63343-26.98237-37.7568-60.71235-39.286936-94.96085h40.904876v-13.23886h-38.066329c0-.15474.02541-.34875.02541-.5162h-2.865108c1.535911-34.24734 14.659281-67.99003 39.321621-94.96085l1.78073 1.79344c.38687-.42613.68366-.86496 1.07052-1.27723l27.22719 27.29186 8.56761-8.58147-28.92824-28.91669c26.20749-23.96252 59.47323-37.73144 94.9493-39.27543v.74832c.91577-.0774 1.88351-.20671 2.83855-.24482v40.36327h10.86454v-40.86677c5.41958.23212 10.76177.87766 16.0393 1.66409 30.51727 4.0003 58.81614 17.17564 81.74624 38.13216l-28.88205 28.90515 8.03871 8.07796 27.72723-27.77342c.54161.58087.99314 1.23912 1.50934 1.8327l1.34191-1.3419c23.9371 26.22019 37.70487 59.43858 39.31007 94.93775h-40.91874v13.22615h38.12061z" fill="#b7b7b7"/>
</svg>
