<svg height="512" viewBox="0 0 512 512" width="512" xmlns="http://www.w3.org/2000/svg">
 <path d="m80.450693 61.081074c-11.816802 0-21.401568 9.581074-21.401568 21.401568v299.506958c0 11.82171 9.585996 21.40155 21.401568 21.40155h235.991727c7.5453 0 14.26226-4.13137 18.06924-10.02569l-12.6973-15.39763-3.36104-3.99304c-15.34923 7.11019-32.12323 12.03658-50.1285 12.03658-33.55306 0-64.23726-13.91878-86.23826-36.10976h-90.920732v-24.07316h72.190782c-7.44969-12.80716-12.44312-27.54407-14.70819-42.77439h-57.482592v-24.7339h56.821862c.95236-15.20582 4.5715-29.60254 10.68642-42.80312h-67.508282v-24.07316h81.555762c16.6325-21.30115 40.51071-36.92307 67.53701-43.43512v-86.927686zm181.180747 0v76.873266h76.21255zm-170.465612 63.515226h107.639812v24.07317h-107.639812zm181.669122 41.62533c-57.77867 0-104.62348 46.82833-104.62348 104.59474 0 57.77866 46.85706 104.62349 104.62348 104.62349 57.77866 0 104.62346-46.84483 104.62346-104.62349 0-57.76641-46.85706-104.59474-104.62346-104.59474zm0 26.1415c43.26045 0 78.45323 35.18666 78.45323 78.45324 0 43.26537-35.18664 78.45325-78.45323 78.45325-43.26045 0-78.45327-35.18667-78.45327-78.45325 0-43.26535 35.18668-78.45324 78.45327-78.45324zm101.89442 144.92737c-9.36544 14.40176-21.57906 26.60068-35.96613 35.96612l55.04081 65.89955c6.12841 7.359 17.179 7.86597 23.95825 1.09163l24.50407-24.50407c6.77925-6.77066 6.29119-17.28402-1.0629-23.41244z" fill="#b7b7b7"/>
</svg>
