<svg viewBox="0 0 512 512" xmlns="http://www.w3.org/2000/svg">
 <path d="m219.39062 69.82793c-102.81424 0-186.1875 83.34201-186.1875 186.15625 0 102.81424 83.37326 186.1875 186.1875 186.1875 8.65706 0 17.24721-.64891 25.625-1.8125 0-12.10127-.10971-9.71922-.15625-20.75v-20.34375c-8.14508 1.3963-16.90478 2.1875-25.46875 2.1875-80.51998 0-145.4375-64.94876-145.4375-145.46875 0-80.51998 64.91752-145.43749 145.4375-145.43749 56.89923 0 106.26423 32.54906 130.1875 79.99999.44216-.0233 1.02659 0 1.46875 0h40c1.00068 0 1.88229.55585 2.90625.71875-26.29699-70.90877-94.4767-121.4375-174.53125-121.4375h-.0312zm-3.71875 81.09375c-8.05137 0-14.53125 7.04013-14.53125 15.78125v113.40625c0 .0641-.00069.12363 0 .1875-.0191.32953-.0312.66467-.0312 1 0 8.05138 5.56383 14.53125 12.5 14.53125h1.09375c.32625.0236.63683.0625.96875.0625.33547 0 .67033-.0385 1-.0625h86.96875c6.93617 0 12.5-6.47987 12.5-14.53125 0-8.05137-5.56383-14.53125-12.5-14.53125h-73.4375v-100.0625c0-8.74112-6.47987-15.78125-14.53125-15.78125zm135.6875 57.03125c-6.4977 0-5.375 4.3125-5.375 4.3125v76.1875 12.375h-28.375c-8.3057 0-.65625 7.21875-.65625 7.21875l50.34375 60.8125c0 0 4.13198 4.8538 8.4375.53125 5.96936-5.96399 48.78125-62.84375 48.78125-62.84375 0 0 7.60913-7.5625-2.46875-7.5625h-26.1875v-11.0625-76.34375c0 0 .087-3.625-4.59375-3.625zm-89.125 145.21875v66.15625c0 8.29675 6.72904 15.03125 15.0625 15.03125h186.4375c8.3263 0 15.0625-6.72644 15.0625-15.03125v-66.15625h-30.0625v51.125h-156.4375v-51.125z" fill="#b7b7b7"/>
</svg>
