<svg viewBox="0 0 512 512" xmlns="http://www.w3.org/2000/svg">
 <path d="m363.89002 56.00731c-5.80413-.12786-10.75431 1.40232-14.27058 4.80443l-.19027.19027-23.78429 23.83187 101.6065 101.6065 23.45131-23.49888.38055-.33298c.0533-.0533.0895-.0895.14263-.14263 11.04505-11.37688 2.58279-37.80143-19.075-59.46074l-23.0232-23.07076c-14.96157-14.96173-32.25485-23.64243-45.23765-23.92708zm-51.42164 42.00307l-25.16379 25.16378 101.60651 101.60651 25.16378-25.16379zm-40.71872 40.67114l-153.45626 153.45627-18.837162 18.83716-4.80443 4.80443-38.292717 120.01554a15.618813 17.401421.78539816 0 0 5.04228 17.2674 15.618813 17.401421.78539816 0 0 13.985157 1.90275l121.680452-38.38786 3.99576-3.99576 18.31391-18.3139 153.97952-153.97952zm-150.26917 194.69823a4.3587943 4.3587943 0 0 1 3.52008 1.23679l8.94289 8.99046 33.34558-1.71247a4.3587943 4.3587943 0 0 1 3.09196 1.04651 4.3587943 4.3587943 0 0 1 1.47463 3.47251l-1.71247 36.3424 6.6596 6.6596a4.3587943 4.3587943 0 0 1 -1.95031 7.27799l-57.41529 15.36466a4.3587943 4.3587943 0 0 1 -4.18603-1.14165l-11.13105-11.13105a4.3587943 4.3587943 0 0 1 -1.14165-4.28117l16.74414-58.93748a4.3587943 4.3587943 0 0 1 3.75792-3.1871z" fill="#b7b7b7" fill-rule="evenodd"/>
</svg>
