<svg height="512" viewBox="0 0 512 512" width="512" xmlns="http://www.w3.org/2000/svg">
 <path d="m235.59714 106.96823c-66.85705 0-121.01037 54.09424-121.01037 121.01037 0 66.85705 54.15332 121.01038 121.01037 121.01038 18.46472 0 35.80679-4.077 51.52396-11.34473l45.37888 45.3789c21.33044 21.47816 21.53725 21.47816 43.01541 0 21.33044-21.33044 21.33044-21.53724 0-43.01541l-41.59732-41.59732c14.21045-19.97144 22.68945-44.10851 22.68945-70.43182 0-66.91613-54.15332-121.01037-121.01038-121.01037zm-1.89078 60.50518c16.36712-.50226 32.26155 5.64283 44.01988 17.04663 11.75834 11.40382 18.37609 27.09144 18.37609 43.45856 0 33.41376-27.09143 60.47565-60.50519 60.47565-33.41375 0-60.50518-27.06189-60.50518-60.47565-.0295-32.67516 25.93923-59.47116 58.6144-60.50519z" fill="#b7b7b7" fill-rule="evenodd"/>
</svg>
