<svg viewBox="0 0 512 512" xmlns="http://www.w3.org/2000/svg">
 <path d="m255.99969 55.99963c-12.7758 0-82.86355 121.45734-89.25287 132.52874-6.38933 11.0714-76.53302 132.49182-70.14369 143.56324 6.3879 11.07288 146.61216 11.06321 159.39656 11.06321 12.77579 0 153.00722.008 159.39656-11.06321 6.38933-11.07142-63.75435-132.49184-70.14369-143.56324-6.3836-11.0714-76.46848-132.52874-89.25287-132.52874zm-115.91955 324.13795c-24.23678 0-43.87931 16.97843-43.87931 37.93103 0 20.9526 19.64253 37.93104 43.87931 37.93104h231.83909c24.23678 0 43.87932-16.97844 43.87932-37.93104 0-20.9526-19.64254-37.93103-43.87932-37.93103z" fill="#b7b7b7" fill-rule="evenodd"/>
</svg>
