<svg viewBox="0 0 512 512" xmlns="http://www.w3.org/2000/svg">
 <path d="m442.55168 56.41258c.85001.175 2.35004.50001 3.30004.70001 2.05002.425 6.92508 4.55005 8.20008 6.90007 1.57503 2.95004 2.10003 7.77509 1.22502 11.42513-.75 3.10003-2.60003 5.30006-15.65017 18.4752l-14.80016 14.95016 2.92503 4.57504c13.00015 20.32522 16.37518 49.70055 8.40009 72.97581-5.50005 16.02518-11.07512 24.07526-30.15032 43.50048l-15.42518 15.70017 7.80009 7.77509c8.87509 8.82509 11.20013 12.75013 11.00013 18.5002-.45001 12.45014-13.47516 18.85021-23.77527 11.65013-1.82502-1.27502-38.20042-37.27542-80.82589-80.00089-67.35073-67.50073-77.62584-78.10085-78.40085-80.90088-2.80003-9.90011 2.10002-18.07519 11.92513-19.90021 6.10006-1.12502 9.82511.8 19.47521 10.2001l8.72509 8.4751 15.65018-15.37517c19.37521-19.02521 27.4503-24.60026 43.47548-30.10033 23.27525-7.97508 52.67557-4.60005 72.97579 8.40009l4.57506 2.92503 14.95016-14.77515c12.10012-11.92513 15.57517-14.95017 18.1752-15.70018 3.32503-.95 3.52503-.975 6.17507-.425m-212.10233 154.9017c5.75007 1.92502 9.92511 7.77509 9.92511 13.90015 0 5.92506-.90001 7.02507-28.40031 34.62538l-26.70029 26.80029 20.12521 20.12522 20.12523 20.12522 26.40028-26.37529c26.9753-26.9503 29.17533-28.77531 34.87538-28.77531 3.00004 0 8.0001 1.85002 10.17512 3.80004 4.37504 3.87503 6.00007 12.85013 3.30003 18.1002-.775 1.50001-13.05013 14.42515-27.3003 28.72531l-25.87527 26.00028 18.7752 18.97521c15.45016 15.60017 18.95021 19.55022 19.72521 22.20025 2.85004 9.85009-2.07502 18.07519-11.90012 19.90021-6.10007 1.12502-9.82511-.80001-19.47521-10.20011l-8.72511-8.4751-15.65017 15.37517c-19.37521 19.02522-27.45029 24.60028-43.47546 30.10033-23.27527 7.97509-52.67559 4.60006-72.97581-8.40009l-4.57505-2.92503-14.95016 14.77516c-12.25014 12.10014-15.55018 14.95017-18.2502 15.72517-1.80002.52501-4.17505.77502-5.27506.55001-1.10001-.225-2.85004-.6-3.92505-.82501-2.20002-.45001-7.07508-4.47505-8.40009-6.95008-1.57502-2.95003-2.10002-7.77508-1.22501-11.42512.75-3.10003 2.60002-5.30005 15.65017-18.4752l14.80017-14.95017-2.92504-4.57504c-13.00014-20.32522-16.37518-49.70055-8.40009-72.9758 5.50006-16.02517 11.07512-24.07527 30.15033-43.50047l15.42517-15.70019-7.80009-7.77508c-4.32504-4.30004-8.55009-9.3001-9.4751-11.20012-3.00003-6.17506-1.30002-14.82516 3.70004-18.7502 4.80005-3.77505 12.90015-4.15004 17.80019-.82501 1.37502.95001 10.52512 9.65011 20.30023 19.37521l17.77519 17.6502 26.8003-26.6253c30.82533-30.62534 30.37533-30.32533 39.92544-27.12529" fill="#b7b7b7"/>
</svg>
