<svg viewBox="0 0 512 512" xmlns="http://www.w3.org/2000/svg">
 <path d="m254.28123 55.99955c-52.34648 0-105.3461 34.96832-105.3461 88.00086v96.48013h-38.81547v215.51903h291.76068v-215.51903h-39.99285v-99.15853c0-39.85821-41.21174-85.32246-107.59481-85.32246m-.74909 48.33459c28.18776-.14609 58.88208 19.52663 58.88208 49.50908v86.64018h-115.57275l.0559-.0501v-86.22479c0-32.52338 32.38873-49.75544 56.63767-49.88435m1.3034 183.40674c16.12489 0 29.20614 13.08126 29.20614 29.20615 0 9.61793-4.68364 18.12153-11.86092 23.44255l11.58735 64.98372h-57.3352l11.48709-64.6543c-7.42507-5.29809-12.28632-13.95924-12.28632-23.77341 0-16.12488 13.08126-29.20614 29.21188-29.20614" fill="#b7b7b7" fill-rule="evenodd"/>
</svg>
