<svg height="512" viewBox="0 0 512 512" width="512" xmlns="http://www.w3.org/2000/svg">
 <text x="-1160.48" y="549.52">
  
 </text>
 <text x="-454.14" y="393.89">
  
 </text>
 <text x="-420.77" y="385.77">
  
 </text>
 <text x="-163.95" y="117.32">
  
 </text>
 <text x="-474.79" y="484.09">
  
 </text>
 <text x="231.56" y="328.46">
  
 </text>
 <text x="264.93" y="320.34">
  
 </text>
 <text x="-1157.49" y="509.78">
  
 </text>
 <text x="-451.15" y="354.15">
  
 </text>
 <text x="-417.78" y="346.02">
  
 </text>
 <text transform="matrix(.8660254 .5 -.5 .8660254 0 0)" x="-1065.35" y="389.69">
  
 </text>
 <text transform="matrix(.8660254 .5 -.5 .8660254 0 0)" x="-359.01" y="234.06">
  
 </text>
 <text transform="matrix(.8660254 .5 -.5 .8660254 0 0)" x="-325.63" y="225.94">
  
 </text>
 <text transform="matrix(.8660254 .5 -.5 .8660254 0 0)" x="-68.82" y="-42.49">
  
 </text>
 <text x="729.64" y="231.36">
  
 </text>
 <text x="1310.91" y="151.36">
  
 </text>
 <text x="239.33" y="-29.9">
  
 </text>
 <text x="1337.38" y="-246.37">
  
 </text>
 <text x="1918.65" y="-326.37">
  
 </text>
 <text x="1529.53" y="-798.77">
  
 </text>
 <text x="2110.79" y="-878.78">
  
 </text>
 <text x="277.99" y="535.94">
  
 </text>
 <path d="m162.19038 385.76862c9.80275 6.60091 17.00122 10.52177 28.73495 15.6546 5.33601 2.33255 22.96486 7.79844 29.169 9.04528 10.28971 2.06683 22.07032 3.31127 31.54965 3.33291 9.18353.0204 26.7162-1.98267 35.60158-4.06875 5.87828-1.3803 25.0834-7.86818 29.69081-10.0312 17.63245-8.27578 27.84641-15.13037 39.70158-26.6561l9.17272-8.91061-.31502-2.4588c-.29817-2.32174-1.39351-3.53612-19.73416-21.88276-17.58916-17.58918-19.61632-19.442-21.51845-19.6019-2.97101-.25851-6.10672 1.18069-9.14626 4.19739-4.76011 4.72524-17.20322 13.08036-23.70192 15.91551-4.8575 2.11853-17.92824 6.36644-20.30528 6.59849-1.5318.14909-4.67114.63244-6.97604 1.07249-8.05454 1.53901-26.52382.59277-34.61445-1.77466-.94503-.27654-3.47357-.99314-5.61977-1.59312-15.32155-4.28037-34.14312-17.0445-44.39916-30.10683-7.55076-9.61759-14.06028-21.72645-16.6309-30.92203-.59997-2.14619-1.31176-4.68074-1.58229-5.63061-1.13141-3.97015-2.39629-14.72877-2.49729-21.23348-.0986-6.37366 1.25647-19.0392 2.48766-23.24743.27654-.94384.99315-3.47359 1.59312-5.61978 3.35095-11.99344 12.92285-27.99791 22.66428-37.89565 4.2912-4.35972 15.87102-13.0948 20.01431-15.09791 1.76145-.85126 3.5217-1.85883 3.91126-2.23997 1.07249-1.04846 13.90757-5.82659 20.03595-7.45937 4.24069-1.13022 14.60494-2.5514 15.08708-2.06926.28977.28977.7683.28497 1.06288-.01.9715-.9715 15.20129-.37152 21.81062.92101 3.56857.69736 7.13233 1.28771 7.92108 1.31296.78874.0253 1.67367.28736 1.96823.58073.29458.29458 1.6376.76471 2.98664 1.04604 1.34905.28136 3.67199 1.06048 5.1641 1.7314 7.56518 3.40624 14.91634 7.2742 17.30661 9.09696l2.67283 2.0428-17.04091 17.0409c-13.0046 13.00461-17.10221 17.44008-17.30299 18.729-.14429.92821.63123 2.85798 1.72296 4.28878 1.65202 2.16423 2.83634 2.83393 7.0614 3.99661 43.70541 8.63047 77.09465 15.30231 124.19068 24.65779 6.20293 1.7398 8.78076 1.42357 11.63152-1.4272 3.38583-3.38582 3.34014-4.64227-.8272-22.9769l-22.58974-113.09261c-1.17831-3.91485-1.9899-5.31559-3.96656-6.83777-1.36707-1.05325-3.24515-1.7963-4.17336-1.65202-1.2805.19838-5.4767 4.05071-17.3944 15.9684l-15.70267 15.70269-3.16338-3.16338c-5.75926-5.75926-25.48982-17.23688-37.0444-21.5437-10.37146-3.86676-13.84265-4.98013-21.84669-7.00609-4.87071-1.23241-9.13304-2.21353-9.4721-2.17866-.33907.0349-3.10087-.430442-6.13559-1.031617-7.18404-1.424789-36.19073-1.433201-43.29661-.01205-3.04074.608393-5.84823 1.058064-6.23658.999154-1.34423-.2032-15.0967 3.48201-22.39016 5.99973-4.02666 1.38991-8.31665 2.85196-9.53463 3.24754-4.60861 1.50053-22.76168 11.42834-30.02387 16.4205-6.42776 4.41862-9.6188 7.26218-21.28641 18.9406-14.4883 14.51236-20.08043 21.56294-25.69661 32.42617-1.27569 2.46601-2.68965 4.85749-3.14294 5.30837-.70578.70578-2.49848 4.45591-5.11479 10.69971-1.08452 2.58625-7.132343 20.36179-7.888623 23.1813-3.059976 11.4139-5.048664 27.94259-4.90919 40.79452.09618 8.79879 1.799922 25.51386 2.949365 28.95257.396778 1.18672.795955 2.91811.886138 3.84752.280142 2.89405 6.59608 22.57531 8.98515 27.99912 4.22265 9.58392 8.1339 16.62008 14.76005 26.55989 4.95487 7.42932 6.68866 9.39396 19.76903 22.39858 11.82511 11.75657 15.49948 15.03658 20.96897 18.71938" fill="#b7b7b7"/>
</svg>
