<svg viewBox="0 0 512 512" xmlns="http://www.w3.org/2000/svg">
 <path d="m161.63994 50.96639c-3.56212-.0513-7.17105 1.19716-10.22061 3.88796-5.56116 4.86908-5.52058 4.72017-5.8025 32.5764-.15372 16.14484.0292 26.57907.61854 29.21862 1.10192 5.15097 4.11087 9.10538 8.36501 11.10425 7.50862 3.51088 16.98169.34592 20.44124-6.80393 1.6914-3.48524 1.76245-4.25155 1.53164-31.92841l-.26509-28.39389-2.26798-3.00434c-3.30585-4.33091-7.8093-6.57595-12.3708-6.6272l-.0294-.0294zm188.80175.0294c-4.56156.0513-9.03549 2.29629-12.34133 6.62721l-2.32688 3.00433v29.39535 29.33643l2.1207 3.23997c1.25572 1.89637 3.60125 3.8938 5.62576 4.91886 6.58608 3.25459 15.17812 1.50014 19.3809-4.03523 3.43399-4.5103 3.84587-8.78136 3.56397-36.02256-.28189-27.85624-.24149-27.70732-5.80249-32.5764-3.04959-2.6908-6.6585-3.93921-10.22063-3.88796zm-240.02268 31.78114c-14.60741 0-20.16018.3478-23.79903 1.29599-15.47861 4.02339-28.13352 15.9132-33.48948 31.5455l-1.79671 5.18395-.23563 148.03707c-.23045 165.01044-.55139 154.02999 5.41958 166.15143 6.04797 12.24956 18.44599 21.7945 32.10513 24.74157 7.99535 1.717 326.2192 1.74664 334.3941.0294 14.01783-2.92144 26.39273-12.33824 32.51751-24.74157 5.97101-12.12144 5.59128-1.14099 5.36067-166.15143l-.17673-148.03707-1.76725-5.18394c-5.35599-15.63229-18.01095-27.55157-33.48949-31.57496-3.63901-.94819-9.22125-1.23708-23.82849-1.23708h-19.08637v15.40457c0 8.48244-.33015 17.47006-.7658 20.05835-2.0245 12.40334-10.45998 22.27692-22.12014 25.89029-5.20222 1.58886-13.48474 1.52229-18.37945-.11782-9.81503-3.28021-17.34542-10.78114-20.67688-20.64743-1.07633-3.22896-1.29598-7.23867-1.29598-22.17905v-18.32054h-63.32664-63.26774v18.32054c0 14.94038-.28233 18.95009-1.38435 22.17905-7.79054 23.08968-36.74468 29.67032-53.01766 11.98788-4.12585-4.48468-7.10436-10.66531-8.12937-16.9951-.4101-2.56267-.76982-11.63482-.79526-20.11726v-15.40457h-19.02745l.0589-.11782zm-28.24662 109.8349h173.80954 173.83898v111.1898c0 78.95593-.24296 112.06064-.88363 114.34141-1.1532 4.17715-6.51473 9.5976-10.69188 10.7508-2.30642.64067-48.24874.90926-162.64639.88363-135.36033-.0256-159.90052-.23381-162.61691-1.20763-4.04913-1.43509-8.85743-6.49177-9.98499-10.51517-.58946-2.15265-.82472-37.34725-.82472-114.25304zm139.70151 16.87729v67.45024h-67.45023l-.38292 67.86259 67.8626.0589v67.5386l68.42221.50072-.14726-67.95096 67.77423.0884-.35346-68.03932-67.56805-.0294-.14726-67.45023-68.00988-.0295z" fill="#b7b7b7"/>
</svg>
