<svg viewBox="0 0 512 512" xmlns="http://www.w3.org/2000/svg">
 <path d="m395.62905 60.25181c-4.14996.21119-8.36194 1.38676-12.27708 3.64635l-93.41092 53.9509c-12.52518 7.23215-17.11376 22.5663-10.29218 34.3826 6.82306 11.81482 22.41123 15.49218 34.93642 8.26151l93.41092-53.90511c12.52519-7.23215 17.11377-22.56631 10.29219-34.38261-4.69049-8.12417-13.53093-12.41885-22.66083-11.95364m-212.71107 20.80885c-3.23873.0576-7.74904 1.30997-12.13825 7.8923l-60.22752 90.3243-38.99776 23.39925c-15.41686 9.78415-15.55273 20.13688-15.55273 20.26094v76.56594c-.0207.58336.68969 11.01141 15.50695 16.93802l39.04502 15.59999 60.41213 90.64921c4.7274 7.92184 8.96449 7.56887 12.73785 7.56887h33.32222c7.46992 0 13.52207-8.85078 13.52207-14.58392v-322.50028c0-1.82096-.82704-12.04521-11.16944-12.04521h-35.12103c-.40466-.0281-.87577-.0546-1.33803-.0458m139.10474 149.48701c-14.46282 0-26.12257 10.9996-26.12257 24.64571 0 13.64464 11.65828 24.64572 26.12257 24.64572h107.85454c14.46282 0 26.12257-10.9996 26.12257-24.64572 0-13.64464-11.65828-24.64571-26.12257-24.64571zm-22.19709 117.23255c-8.22164.35445-15.90423 4.56791-20.1679 11.95365-6.82306 11.81482-2.23448 27.15193 10.29218 34.3826l93.41093 53.9509c12.52518 7.23215 28.11927 3.509 34.93642-8.3073 6.82306-11.81482 2.23448-27.15193-10.29219-34.3826l-93.41092-53.90512c-4.69787-2.7115-9.83584-3.9048-14.76852-3.69213" fill="#b7b7b7"/>
</svg>
