<svg viewBox="0 0 512 512" xmlns="http://www.w3.org/2000/svg">
 <path d="m161.64001 50.96646c-3.56211-.0513-7.17104 1.19716-10.22062 3.88796-5.56101 4.86908-5.49114 4.72017-5.77303 32.5764-.15377 16.14482.029 26.57906.61854 29.21861 1.10194 5.15096 4.11096 9.10537 8.365 11.10426 7.50863 3.51087 16.98164.34591 20.44125-6.80395 1.69137-3.48524 1.73281-4.25155 1.50217-31.9284l-.23564-28.39388-2.26797-2.97488c-3.30586-4.33092-7.8387-6.60541-12.40024-6.65666l-.0295-.0294zm188.80172.0294c-4.56157.0512-9.03549 2.32575-12.34133 6.65666l-2.29743 2.97488v29.39534 29.33643l2.09125 3.23996c1.25571 1.89638 3.60125 3.8938 5.62576 4.91886 6.58606 3.25459 15.17812 1.5296 19.38089-4.00578 3.43398-4.51029 3.87531-8.81079 3.59342-36.05199-.28189-27.85624-.27094-27.70732-5.83194-32.5764-3.04958-2.6908-6.65852-3.93921-10.22062-3.88796zm-239.9932 31.81059c-14.607226 0-20.189476.31834-23.828476 1.26653-15.478534 4.02339-28.133504 15.9132-33.489484 31.5455l-1.76725 5.18395-.26509 148.03703c-.23064 165.01041-.55145 154.02996 5.41958 166.1514 6.0479 12.24956 18.4461 21.7945 32.105134 24.74157 7.99555 1.71699 326.219126 1.74651 334.394046.0294 14.01781-2.92145 26.39271-12.33823 32.51749-24.74157 5.97103-12.12143 5.5913-1.11153 5.36067-166.12194l-.14727-148.03704-1.79671-5.21339c-5.35598-15.63229-18.01095-27.55157-33.48948-31.57496-3.639-.94818-9.1918-1.23708-23.79903-1.23708h-19.11581v15.40457c0 8.48244-.30069 17.47005-.73635 20.05834-2.02451 12.40334-10.48945 22.27692-22.14959 25.89028-5.20223 1.58887-13.4553 1.52229-18.35-.11781-9.81502-3.28022-17.37486-10.78114-20.70633-20.64743-1.07632-3.22896-1.29599-7.23865-1.29599-22.17905v-18.32053h-63.32663-63.26772v18.32053c0 14.9404-.28239 18.95009-1.38435 22.17905-7.79052 23.08968-36.74468 29.67031-53.01764 11.98789-4.1259-4.48469-7.10431-10.6653-8.12937-16.99511-.41003-2.56266-.76965-11.63481-.79526-20.11725v-15.40457h-19.02745l.0884-.0884zm-28.276066 109.83488h173.809496 173.86841v111.16032c0 78.95591-.27241 112.09007-.91308 114.37084-1.1532 4.17714-6.51473 9.56815-10.69189 10.72134-2.3064.64067-48.24871.90927-162.64634.88363-135.3603-.0256-159.900456-.20435-162.616896-1.17817-4.04901-1.43509-8.85741-6.52123-9.98498-10.54462-.58942-2.15265-.82472-37.34725-.82472-114.25302zm259.050086 23.94631a16.426467 16.426467 0 0 0 -2.62143.20617 16.426467 16.426467 0 0 0 -5.15449 2.0029c-.89694.51254-1.90505 1.43525-2.82761 1.97343-.15377.12813-.25859.2586-.41236.41235-39.73785 23.22692-80.42943 63.22656-116.84499 111.66105l-34.19638-19.38085a16.426467 16.426467 0 0 0 -20.70633 25.03611l54.49035 63.20882a16.426467 16.426467 0 0 0 27.039-3.56396c27.16432-55.37933 59.67293-105.28373 112.51521-153.10317a16.426467 16.426467 0 0 0 -11.28097-28.4528z" fill="#b7b7b7"/>
</svg>
