<svg viewBox="0 0 512 512" xmlns="http://www.w3.org/2000/svg">
 <path d="m41.041366 30.794934c-.618273.02311-1.202615.06606-1.761228.189025h-.03588c-15.713121 3.484084-27.424832 18.98423-27.424832 37.199869v375.854662c0 20.74159 15.851529 37.19987 34.937 37.19987h411.983474c18.89991 0 34.90105-16.45828 34.90105-37.19987v-375.854662c0-20.830312-15.92293-37.199869-34.90105-37.199869h-411.983474c-1.793144 0-3.860173-.258198-5.715002-.189025zm5.715003 94.587456h411.983461v318.6561h-411.983461zm167.747941 37.80473v79.35214h-75.44523l-.46726 79.88141h75.94844v79.42773l76.59541.56708-.17971-79.95702 75.73278.11335-.43132-80.03262h-75.58901l-.1437-79.35213h-76.02032z" fill="#b7b7b7" fill-rule="evenodd"/>
</svg>
