<svg viewBox="0 0 512 512" xmlns="http://www.w3.org/2000/svg">
 <path d="m282.26837 36c-106.48542-.00004-192.33551 86.59472-192.33551 193.08009.00001 9.20019.15895 17.92054 1.40328 26.77691.0793.1284-.11176.53022-.0286.65868 6.0516 46.80067 21.28647 92.24866-4.78261 125.00664l-40.43742 40.46605-1.17418 1.17417c-10.40963 11.62567-10.00064 29.40581 1.17418 40.58062l3.5798 3.5798c11.17481 11.17481 28.9263 11.55517 40.55197 1.14553l.0286.0287 1.17418-1.17417 40.43742-40.43742c34.09298-26.12324 79.16997-9.87761 129.13056-5.49857 6.94705.76196 14.12977.0287 21.27833.0287 3.60575 0 6.75192.15766 10.30983-.0287 101.498-5.57424 182.02567-90.11081 182.02567-192.9942 0-53.24884-21.40786-100.45869-56.30309-135.34508-34.89011-34.89535-82.78721-56.99048-136.03241-56.99048v-.0573zm0 51.54912c39.13071 0 74.67819 15.56978 100.32033 41.21066 25.64088 25.63583 41.18201 61.18961 41.18201 100.32031 0 78.24881-63.25355 141.50235-141.50234 141.50235-78.2488 0-141.50235-63.94214-141.50235-142.18967 0-78.2488 63.25355-140.84365 141.50235-140.84365zm31.07267 42.04118c-3.79524 0-7.34564 1.32668-10.25255 4.23847l-61.54392 60.94252-27.75062 27.75062c-5.8187 5.8187-5.8187 15.28779 0 21.10649l27.14921 27.1492 62.14533 62.17398c5.81504 5.81871 14.68639 5.81871 20.5051 0l27.1492-27.1492c5.81383-5.81871 5.81383-15.31644 0-21.13515l-51.29138-51.29137 51.29138-51.29138c5.81383-5.81871 5.81383-15.28779 0-21.10651l-27.1492-27.1492c-2.90203-2.91179-6.45854-4.23847-10.25255-4.23847z" fill="#b7b7b7"/>
</svg>
