<?xml version="1.0" encoding="UTF-8" standalone="no"?>
<svg xmlns="http://www.w3.org/2000/svg" height="512" width="512" version="1.1" viewBox="0 0 512 512">
 <text font-size="129.23" line-height="125%" y="231.36" x="729.64" font-family="Gentium Book Basic" word-spacing="0" letter-spacing="0">
  
 </text>
 <text font-size="129.23" line-height="125%" y="151.36" x="1310.91" font-family="Gentium Book Basic" word-spacing="0" letter-spacing="0">
  
 </text>
 <text font-size="129.23" line-height="125%" y="-29.9" x="239.33" font-family="Gentium Book Basic" word-spacing="0" letter-spacing="0">
  
 </text>
 <text font-size="129.23" line-height="125%" y="-246.37" x="1337.38" font-family="Gentium Book Basic" word-spacing="0" letter-spacing="0">
  
 </text>
 <text font-size="129.23" line-height="125%" y="-326.38" x="1918.65" font-family="Gentium Book Basic" word-spacing="0" letter-spacing="0">
  
 </text>
 <text font-size="129.23" line-height="125%" y="-798.78" x="1529.53" font-family="Gentium Book Basic" word-spacing="0" letter-spacing="0">
  
 </text>
 <text font-size="129.23" line-height="125%" y="-878.78" x="2110.79" font-family="Gentium Book Basic" word-spacing="0" letter-spacing="0">
  
 </text>
 <g font-family="Gentium Book Basic" line-height="125%" word-spacing="0" letter-spacing="0">
  <text y="535.94" x="277.99" font-size="208.33">
   
  </text>
  <text y="-11.34" x="-307.18" font-size="200">
   
  </text>
 </g>
 <text font-size="200" line-height="125%" y="41.8" x="438.2" font-family="Gentium Book Basic" word-spacing="0" letter-spacing="0">
  
 </text>
 <text font-size="200" line-height="125%" y="-82.02" x="1337.81" font-family="Gentium Book Basic" word-spacing="0" letter-spacing="0">
  
 </text>
 <text font-size="200" line-height="125%" y="-134.65" x="465.66" font-family="Gentium Book Basic" word-spacing="0" letter-spacing="0">
  
 </text>
 <text font-size="200" line-height="125%" y="-258.47" x="1365.27" font-family="Gentium Book Basic" word-spacing="0" letter-spacing="0">
  
 </text>
 <text font-size="200" line-height="125%" y="317.23" x="-2544.32" font-family="Gentium Book Basic" word-spacing="0" letter-spacing="0">
  
 </text>
 <text font-size="200" line-height="125%" y="81.8" x="-616.04" font-family="Gentium Book Basic" word-spacing="0" letter-spacing="0">
  
 </text>
 <text font-size="200" line-height="125%" y="134.94" x="129.34" font-family="Gentium Book Basic" word-spacing="0" letter-spacing="0">
  
 </text>
 <text font-size="200" line-height="125%" y="11.13" x="1028.95" font-family="Gentium Book Basic" word-spacing="0" letter-spacing="0">
  
 </text>
 <text font-size="200" line-height="125%" y="-41.51" x="156.8" font-family="Gentium Book Basic" word-spacing="0" letter-spacing="0">
  
 </text>
 <text font-size="200" line-height="125%" y="-165.33" x="1056.42" font-family="Gentium Book Basic" word-spacing="0" letter-spacing="0">
  
 </text>
 <text font-size="200" line-height="125%" y="410.37" x="-2853.18" font-family="Gentium Book Basic" word-spacing="0" letter-spacing="0">
  
 </text>
 <text font-size="200" line-height="125%" y="-35.06" x="-1330.61" font-family="Gentium Book Basic" word-spacing="0" letter-spacing="0">
  
 </text>
 <text font-size="200" line-height="125%" y="18.09" x="-585.23" font-family="Gentium Book Basic" word-spacing="0" letter-spacing="0">
  
 </text>
 <text font-size="200" line-height="125%" y="-105.73" x="314.38" font-family="Gentium Book Basic" word-spacing="0" letter-spacing="0">
  
 </text>
 <text font-size="200" line-height="125%" y="-158.37" x="-557.77" font-family="Gentium Book Basic" word-spacing="0" letter-spacing="0">
  
 </text>
 <text font-size="200" line-height="125%" y="-282.18" x="341.85" font-family="Gentium Book Basic" word-spacing="0" letter-spacing="0">
  
 </text>
 <text font-size="200" line-height="125%" y="293.52" x="-3567.75" font-family="Gentium Book Basic" word-spacing="0" letter-spacing="0">
  
 </text>
 <path fill="#239800" d="m471.95 253.05c0 120.9-98.01 218.9-218.9 218.9-120.9 0-218.9-98.01-218.9-218.9 0-120.9 98.01-218.9 218.9-218.9 120.9 0 218.9 98.01 218.9 218.9" fill-rule="evenodd"/>
 <path d="m320.56 109.56c-13.958 0.832-14.159 27.16-18.19 25.688-11.865-10.594-21.688-27.644-40.03-25.06-14.634-0.301-35.572-2.276-39.625 16.406 0.609 10.03-0.585 12.696-6.906 4.438-10.172-9.692-19.721-23.619-35.844-20.844-6.453-0.004-12.927 0.012-19.375 0-19.428 0.183-22.23 20.769-20.656 35.75-2.923 18.06 14.408 27.688 24.688 39.41 3.03 5.077-31.747 5.02-24.688 24.5 0.063 14.05-2.535 30.681 11.09 39.719 2.48 4.976 23.303 17.545 10.719 16.281-18.295-0.871-23.905 18.211-21.813 32.938-1.675 11.633 2.935 22.632 12.219 29.719 46.733 46.561 93.25 93.36 139.91 140 102.29-18.393 179.88-107.85 179.88-215.44 0-11.247-0.833-22.304-2.469-33.09-34.26-34.26-68.51-68.53-102.78-102.78-11.09-10.876-27.446-5.832-41.34-7-1.758-0.518-3.337-0.711-4.781-0.625" fill-opacity=".235"/>
 <g fill-rule="evenodd">
  <path d="m256 1c-140.83 0-255 114.17-255 255s114.17 255 255 255 255-114.17 255-255-114.17-255-255-255m8.827 44.931c120.9 0 218.9 98 218.9 218.9s-98 218.9-218.9 218.9-218.93-98-218.93-218.9 98.03-218.9 218.93-218.9" fill-opacity=".067"/>
  <g fill-opacity=".129">
   <path d="m256 4.433c-138.94 0-251.57 112.63-251.57 251.57s112.63 251.57 251.57 251.57 251.57-112.63 251.57-251.57-112.63-251.57-251.57-251.57m5.885 38.556c120.9 0 218.9 98 218.9 218.9s-98 218.9-218.9 218.9-218.93-98-218.93-218.9 98.03-218.9 218.93-218.9"/>
   <path d="m256 8.356c-136.77 0-247.64 110.87-247.64 247.64s110.87 247.64 247.64 247.64 247.64-110.87 247.64-247.64-110.87-247.64-247.64-247.64m2.942 31.691c120.9 0 218.9 98 218.9 218.9s-98 218.9-218.9 218.9-218.93-98-218.93-218.9 98.03-218.9 218.93-218.9"/>
  </g>
  <path d="m253.04 7.859c-135.42 0-245.19 109.78-245.19 245.19 0 135.42 109.78 245.19 245.19 245.19 135.42 0 245.19-109.78 245.19-245.19 0-135.42-109.78-245.19-245.19-245.19zm0 26.297c120.9 0 218.9 98 218.9 218.9s-98 218.9-218.9 218.9-218.93-98-218.93-218.9 98.03-218.9 218.93-218.9z" stroke-opacity=".31" stroke="#000" stroke-width="4.904" fill="#fff"/>
 </g>
 <text font-size="129.23" line-height="125%" y="231.36" x="729.64" font-family="Gentium Book Basic" word-spacing="0" letter-spacing="0">
  
 </text>
 <text font-size="129.23" line-height="125%" y="151.36" x="1310.91" font-family="Gentium Book Basic" word-spacing="0" letter-spacing="0">
  
 </text>
 <text font-size="129.23" line-height="125%" y="-29.9" x="239.33" font-family="Gentium Book Basic" word-spacing="0" letter-spacing="0">
  
 </text>
 <text font-size="129.23" line-height="125%" y="-246.37" x="1337.38" font-family="Gentium Book Basic" word-spacing="0" letter-spacing="0">
  
 </text>
 <text font-size="129.23" line-height="125%" y="-326.38" x="1918.65" font-family="Gentium Book Basic" word-spacing="0" letter-spacing="0">
  
 </text>
 <text font-size="129.23" line-height="125%" y="-798.78" x="1529.53" font-family="Gentium Book Basic" word-spacing="0" letter-spacing="0">
  
 </text>
 <text font-size="129.23" line-height="125%" y="-878.78" x="2110.79" font-family="Gentium Book Basic" word-spacing="0" letter-spacing="0">
  
 </text>
 <g font-family="Gentium Book Basic" line-height="125%" word-spacing="0" letter-spacing="0">
  <text y="535.94" x="277.99" font-size="208.33">
   
  </text>
  <text y="227.12" x="104.96" font-size="129.23">
   
  </text>
 </g>
 <text font-size="129.23" line-height="125%" y="147.11" x="686.23" font-family="Gentium Book Basic" word-spacing="0" letter-spacing="0">
  
 </text>
 <text font-size="129.23" line-height="125%" y="-34.14" x="-385.35" font-family="Gentium Book Basic" word-spacing="0" letter-spacing="0">
  
 </text>
 <text font-size="129.23" line-height="125%" y="-250.62" x="712.7" font-family="Gentium Book Basic" word-spacing="0" letter-spacing="0">
  
 </text>
 <text font-size="129.23" line-height="125%" y="-330.62" x="1293.97" font-family="Gentium Book Basic" word-spacing="0" letter-spacing="0">
  
 </text>
 <text font-size="129.23" line-height="125%" y="-803.02" x="904.85" font-family="Gentium Book Basic" word-spacing="0" letter-spacing="0">
  
 </text>
 <text font-size="129.23" line-height="125%" y="-883.02" x="1486.12" font-family="Gentium Book Basic" word-spacing="0" letter-spacing="0">
  
 </text>
 <g font-family="Gentium Book Basic" line-height="125%" word-spacing="0" letter-spacing="0">
  <text y="531.69" x="-346.69" font-size="208.33">
   
  </text>
  <text y="-15.58" x="-931.86" font-size="200">
   
  </text>
 </g>
 <text font-size="200" line-height="125%" y="37.56" x="-186.48" font-family="Gentium Book Basic" word-spacing="0" letter-spacing="0">
  
 </text>
 <text font-size="200" line-height="125%" y="-86.26" x="713.13" font-family="Gentium Book Basic" word-spacing="0" letter-spacing="0">
  
 </text>
 <text font-size="200" line-height="125%" y="-138.9" x="-159.02" font-family="Gentium Book Basic" word-spacing="0" letter-spacing="0">
  
 </text>
 <text font-size="200" line-height="125%" y="-262.71" x="740.6" font-family="Gentium Book Basic" word-spacing="0" letter-spacing="0">
  
 </text>
 <text font-size="200" line-height="125%" y="312.99" x="-3169" font-family="Gentium Book Basic" word-spacing="0" letter-spacing="0">
  
 </text>
 <text font-size="200" line-height="125%" y="77.56" x="-1240.72" font-family="Gentium Book Basic" word-spacing="0" letter-spacing="0">
  
 </text>
 <text font-size="200" line-height="125%" y="130.7" x="-495.34" font-family="Gentium Book Basic" word-spacing="0" letter-spacing="0">
  
 </text>
 <text font-size="200" line-height="125%" y="6.88" x="404.27" font-family="Gentium Book Basic" word-spacing="0" letter-spacing="0">
  
 </text>
 <text font-size="200" line-height="125%" y="-45.75" x="-467.88" font-family="Gentium Book Basic" word-spacing="0" letter-spacing="0">
  
 </text>
 <text font-size="200" line-height="125%" y="-169.57" x="431.74" font-family="Gentium Book Basic" word-spacing="0" letter-spacing="0">
  
 </text>
 <text font-size="200" line-height="125%" y="406.13" x="-3477.86" font-family="Gentium Book Basic" word-spacing="0" letter-spacing="0">
  
 </text>
 <text font-size="200" line-height="125%" y="-39.3" x="-1955.29" font-family="Gentium Book Basic" word-spacing="0" letter-spacing="0">
  
 </text>
 <text font-size="200" line-height="125%" y="13.84" x="-1209.91" font-family="Gentium Book Basic" word-spacing="0" letter-spacing="0">
  
 </text>
 <text font-size="200" line-height="125%" y="-109.97" x="-310.3" font-family="Gentium Book Basic" word-spacing="0" letter-spacing="0">
  
 </text>
 <text font-size="200" line-height="125%" y="-162.61" x="-1182.45" font-family="Gentium Book Basic" word-spacing="0" letter-spacing="0">
  
 </text>
 <text font-size="200" line-height="125%" y="-286.43" x="-282.83" font-family="Gentium Book Basic" word-spacing="0" letter-spacing="0">
  
 </text>
 <text font-size="200" line-height="125%" y="289.27" x="-4192.43" font-family="Gentium Book Basic" word-spacing="0" letter-spacing="0">
  
 </text>
 <path d="m160.59 110.19c-11.538 0.544-20.656 9.449-20.656 20.406v22c0 11.311 9.717 20.406 21.781 20.406h23.813c12.06 0 21.781-9.1 21.781-20.406v-22c0-11.311-9.717-20.406-21.781-20.406h-23.813c-0.377 0-0.753-0.017-1.125 0m82.38 0c-11.538 0.544-20.656 9.449-20.656 20.406v22c0 11.311 9.717 20.406 21.781 20.406h23.813c12.06 0 21.781-9.1 21.781-20.406v-22c0-11.311-9.717-20.406-21.781-20.406h-23.813c-0.377 0-0.753-0.017-1.125 0m82.38 0c-11.538 0.544-20.656 9.449-20.656 20.406v22c0 11.311 9.717 20.406 21.781 20.406h23.813c12.06 0 21.781-9.1 21.781-20.406v-22c0-11.311-9.717-20.406-21.781-20.406h-23.813c-0.377 0-0.753-0.017-1.125 0m-164.74 77.81c-11.538 0.546-20.656 9.48-20.656 20.438v21.969c0 11.311 9.717 20.438 21.781 20.438h23.813c12.06 0 21.781-9.127 21.781-20.438v-21.97c0.01-11.31-9.71-20.44-21.77-20.44h-23.813c-0.377 0-0.753-0.018-1.125 0m82.38 0c-11.538 0.546-20.656 9.48-20.656 20.438v21.969c0 11.311 9.717 20.438 21.781 20.438h23.813c12.06 0 21.781-9.127 21.781-20.438v-21.97c0.01-11.31-9.71-20.44-21.77-20.44h-23.813c-0.377 0-0.753-0.018-1.125 0m82.38 0c-11.538 0.546-20.656 9.48-20.656 20.438v21.969c0 11.311 9.717 20.438 21.781 20.438h23.813c12.06 0 21.781-9.127 21.781-20.438v-21.97c0.01-11.31-9.71-20.44-21.77-20.44h-23.813c-0.377 0-0.753-0.018-1.125 0m-164.75 77.84c-11.538 0.544-20.656 9.449-20.656 20.406v22c0 11.311 9.717 20.406 21.781 20.406h23.813c12.06 0 21.781-9.1 21.781-20.406v-22c0-11.311-9.717-20.406-21.781-20.406h-23.813c-0.377 0-0.753-0.018-1.125 0m82.38 0c-11.538 0.544-20.656 9.449-20.656 20.406v22c0 11.311 9.717 20.406 21.781 20.406h23.813c12.06 0 21.781-9.1 21.781-20.406v-22c0-11.311-9.717-20.406-21.781-20.406h-23.813c-0.377 0-0.753-0.018-1.125 0m82.38 0c-11.538 0.544-20.656 9.449-20.656 20.406v22c0 11.311 9.717 20.406 21.781 20.406h23.813c12.06 0 21.781-9.1 21.781-20.406v-22c0-11.311-9.717-20.406-21.781-20.406h-23.813c-0.377 0-0.753-0.018-1.125 0m-81.25 73.13c-12.06 0-21.781 9.127-21.781 20.438v21.969c0 11.311 9.717 20.438 21.781 20.438h23.813c12.06 0 21.781-9.127 21.781-20.438v-21.969c0-11.311-9.717-20.438-21.781-20.438h-23.8" fill="#fff"/>
</svg>
