<svg xmlns="http://www.w3.org/2000/svg" height="512" width="512"><path d="M108.63 57.389c-7.962-.002-15.227 2.292-20.692 6.218-4.545 3.267-7.75 7.873-8.752 13.13h-11.91c-16.446 0-29.882 13.03-29.882 29.2v66.737c0 16.17 13.436 29.19 29.883 29.19h377.47c16.447 0 29.883-13.03 29.883-29.19V105.94c0-16.17-13.436-29.2-29.883-29.2h-262.91c-1-5.257-4.208-9.863-8.753-13.13-5.465-3.928-12.73-6.22-20.693-6.22h-43.76" fill="#ccc" fill-rule="evenodd"/><path d="M37.36 118.478c-19.927 0-38.06 15.82-36.23 35.854l24.26 265.41c1.734 18.966 16.272 34.947 36.2 34.947H445c19.934 0 34.1-16.05 36.2-34.854l29.633-265.41c1.123-10.05-3.137-19.263-9.97-25.663-6.834-6.4-16.26-10.285-26.22-10.285H37.372" fill="#239800" fill-rule="evenodd"/><path d="M108.55 57.309c-7.962-.002-15.11 2.401-20.57 6.329-4.546 3.264-7.703 7.93-8.704 13.185h-12.13c-17.677 0-29.802 12.772-29.802 30.662v3.956c0-16.17 13.355-29.27 29.802-29.27h14.286c1-5.256 2-9.657 6.55-12.923 5.464-3.927 12.608-6.33 20.57-6.33h43.78c7.964 0 15.372 2.403 20.836 6.33 4.545 3.266 5.766 7.668 6.77 12.923h264.88c16.446 0 29.8 11.455 29.8 27.625v-3.956c0-16.17-13.354-29.01-29.8-29.01h-262.95c-1-5.256-4.16-9.92-8.704-13.187-5.465-3.927-12.872-6.33-20.835-6.33z" fill="#fff" fill-rule="evenodd" opacity=".764"/><path d="M37.35 118.47c-19.927 0-38.05 15.84-36.22 35.874l.407 4.375c3-15.937 18.732-27.564 35.813-27.564h437.28c9.966 0 19.386 3.882 26.22 10.28 4.736 4.436 8.234 10.21 9.563 16.69l.406-3.69c1.122-10.05-3.135-19.287-9.97-25.687-6.833-6.4-16.252-10.282-26.22-10.282H37.35" fill="#fff" fill-rule="evenodd" opacity=".4"/><path d="M290.422 161.557c-71.194 0-151.285 80.09-151.285 151.285h17.794l.048-.022c0-62.26 71.15-133.462 133.44-133.462v-17.794m0 35.587c-53.394 0-115.692 62.337-115.692 115.7h17.818l.023-.022c0-44.497 53.356-97.854 97.854-97.854v-17.817m0 35.61c-35.596 0-80.083 44.49-80.083 80.084h17.794c0-26.697 35.594-62.29 62.29-62.29v-17.793m-17.792 35.588c-9.832 0-17.794 7.96-17.794 17.794 0 9.83 7.96 17.817 17.794 17.817 9.83 0 17.793-7.984 17.793-17.818 0-9.833-7.96-17.795-17.792-17.795m-2.012 53.41c-8.72 0-15.78 7.06-15.78 15.78v75.24c0 8.696 7.062 15.76 15.78 15.76h4.07c8.694 0 15.735-7.066 15.735-15.76v-75.24c0-8.722-7.04-15.78-15.735-15.78z" fill="#fff"/></svg>