<svg xmlns="http://www.w3.org/2000/svg" height="48" viewBox="0 0 512 512" width="48"><path d="M471.95 253.05c0 120.9-98.01 218.9-218.9 218.9-120.9 0-218.9-98.01-218.9-218.9 0-120.9 98.01-218.9 218.9-218.9 120.9 0 218.9 98.01 218.9 218.9" fill="#b3af49" fill-rule="evenodd"/><path d="M293.198 134.953c-2.604.037-5.117.183-7.665.552-6.798.985-13.49 4.082-19.97 10.934l-.023.023-.024.024c-4.747 5.12-7.706 11.24-10.213 19.416h-8.266c-5.44 0-9.846 4.36-9.924 9.78h-86.438c-10.856 0-19.585 8.75-19.585 19.61v131.81c0 10.855 8.725 19.584 19.585 19.584h210.63c10.854 0 19.608-8.725 19.608-19.585v-131.81c0-10.855-8.75-19.61-19.61-19.61h-78.918c-.078-5.42-4.484-9.78-9.924-9.78h-6.872c1.956-5.694 4.043-9.49 7.066-12.76.01-.008.015-.014.024-.023 5.316-5.616 9.146-7.216 14.25-7.955 5.11-.74 11.743-.17 20.738-.457a4.883 4.883 0 1 0-.312-9.756c-4.183.133-7.95.018-11.51 0-.89-.005-1.776-.012-2.644 0m-108.373 72.935h18.267c3.42 0 6.152 2.756 6.152 6.175v18.095c0 3.42-2.733 6.176-6.152 6.176h-18.267c-3.42 0-6.175-2.756-6.175-6.176v-18.095c0-3.42 2.756-6.175 6.175-6.175m41.357 0h18.266c3.42 0 6.176 2.756 6.176 6.175v18.095c0 3.42-2.756 6.176-6.176 6.176h-18.266c-3.42 0-6.176-2.756-6.176-6.176v-18.095c0-3.42 2.756-6.175 6.176-6.175m41.38 0h18.24c3.42 0 6.174 2.756 6.174 6.175v18.095c0 3.42-2.756 6.176-6.175 6.176h-18.24c-3.418 0-6.174-2.756-6.174-6.176v-18.095c0-3.42 2.755-6.175 6.174-6.175m41.357 0h18.24c3.42 0 6.175 2.756 6.175 6.175v18.095c0 3.42-2.756 6.176-6.176 6.176h-18.24c-3.42 0-6.175-2.756-6.175-6.176v-18.095c0-3.42 2.756-6.175 6.176-6.175m-144.78 47.39h18.265c3.42 0 6.176 2.755 6.176 6.175v18.095c0 3.42-2.755 6.175-6.175 6.175H164.14c-3.42 0-6.177-2.756-6.177-6.175v-18.095c0-3.42 2.756-6.176 6.176-6.176m41.38 0h18.238c3.42 0 6.175 2.756 6.175 6.176v18.095c0 3.42-2.756 6.175-6.175 6.175h-18.24c-3.418 0-6.174-2.756-6.174-6.175v-18.095c0-3.42 2.756-6.176 6.175-6.176m41.356 0h18.238c3.42 0 6.176 2.756 6.176 6.176v18.095c0 3.42-2.756 6.175-6.176 6.175h-18.238c-3.42 0-6.176-2.756-6.176-6.175v-18.095c0-3.42 2.756-6.176 6.176-6.176m41.356 0H306.5c3.418 0 6.174 2.756 6.174 6.176v18.095c0 3.42-2.756 6.175-6.175 6.175H288.23c-3.42 0-6.176-2.756-6.176-6.175v-18.095c0-3.42 2.757-6.176 6.176-6.176m41.356 0h18.267c3.42 0 6.176 2.756 6.176 6.176v18.095c0 3.42-2.755 6.175-6.175 6.175h-18.267c-3.42 0-6.15-2.756-6.15-6.175v-18.095c0-3.42 2.73-6.176 6.15-6.176m-121.494 43.76h95.833c5.5 0 9.924 4.424 9.924 9.923v10.597c0 5.5-4.424 9.924-9.923 9.924h-95.833c-5.5 0-9.924-4.424-9.924-9.923V308.96c0-5.5 4.425-9.925 9.924-9.925" fill="#ffffff"/><circle cx="256" stroke="#fefefe" cy="256" r="181.13" stroke-width="18.771" fill="none"/></svg>