<?xml version="1.0" encoding="UTF-8" standalone="no"?>
<svg xmlns:osb="http://www.openswatchbook.org/uri/2009/osb" xmlns="http://www.w3.org/2000/svg" xmlns:xlink="http://www.w3.org/1999/xlink" width="48" height="48" id="svg5453" version="1.1">
 <defs id="defs5455">
  <linearGradient id="linearGradient4232">
   <stop id="stop4234-0" offset="0" style="stop-color:#3889e9;stop-opacity:1"/>
   <stop id="stop4236" offset="1" style="stop-color:#5ea5fb;stop-opacity:1"/>
  </linearGradient>
  <linearGradient xlink:href="#linearGradient4232" id="linearGradient3426" x1="399.571" y1="545.798" x2="399.571" y2="517.798" gradientUnits="userSpaceOnUse"/>
  <linearGradient xlink:href="#linearGradient4501" id="linearGradient4181" gradientUnits="userSpaceOnUse" x1="399.994" y1="545.139" x2="399.994" y2="518.139"/>
  <style type="text/css" id="current-color-scheme">
   .ColorScheme-Text { color:#31363b; } .ColorScheme-Background{ color:#eff0f1; } .ColorScheme-ViewText { color:#31363b; } .ColorScheme-ViewBackground{ color:#fcfcfc; } .ColorScheme-ViewHover { color:#3daee9; } .ColorScheme-ViewFocus{ color:#3daee9; } .ColorScheme-ButtonText { color:#31363b; } .ColorScheme-ButtonBackground{ color:#eff0f1; } .ColorScheme-ButtonHover { color:#3daee9; } .ColorScheme-ButtonFocus{ color:#3daee9; }
  </style>
  <style type="text/css" id="current-color-scheme-8">
   .ColorScheme-Text { color:#31363b; } .ColorScheme-Background{ color:#eff0f1; } .ColorScheme-ViewText { color:#31363b; } .ColorScheme-ViewBackground{ color:#fcfcfc; } .ColorScheme-ViewHover { color:#3daee9; } .ColorScheme-ViewFocus{ color:#3daee9; } .ColorScheme-ButtonText { color:#31363b; } .ColorScheme-ButtonBackground{ color:#eff0f1; } .ColorScheme-ButtonHover { color:#3daee9; } .ColorScheme-ButtonFocus{ color:#3daee9; }
  </style>
  <style type="text/css" id="current-color-scheme-7">
   .ColorScheme-Text { color:#31363b; } .ColorScheme-Background{ color:#eff0f1; } .ColorScheme-ViewText { color:#31363b; } .ColorScheme-ViewBackground{ color:#fcfcfc; } .ColorScheme-ViewHover { color:#3daee9; } .ColorScheme-ViewFocus{ color:#3daee9; } .ColorScheme-ButtonText { color:#31363b; } .ColorScheme-ButtonBackground{ color:#eff0f1; } .ColorScheme-ButtonHover { color:#3daee9; } .ColorScheme-ButtonFocus{ color:#3daee9; }
  </style>
  <linearGradient id="linearGradient4501">
   <stop style="stop-color:#ff6835;stop-opacity:1" offset="0" id="stop4503"/>
   <stop style="stop-color:#ff956f;stop-opacity:1" offset="1" id="stop4505"/>
  </linearGradient>
  <linearGradient osb:paint="gradient" id="linearGradient4207">
   <stop id="stop3371" offset="0" style="stop-color:#3498db;stop-opacity:1;"/>
   <stop id="stop3373" offset="1" style="stop-color:#3498db;stop-opacity:0;"/>
  </linearGradient>
 </defs>
 <g id="layer1" transform="translate(-384.57143,-499.798)">
  <g id="g4471" transform="matrix(1.0931221,0,0,1.0931221,33.310366,-50.486049)">
   <g id="g4320" transform="matrix(0.98381885,0,0,0.98381885,5.5651187,8.3948576)">
    <g transform="matrix(1.5444819,0,0,1.5444819,-275.17538,-295.73877)" id="layer1-3">
     <circle style="opacity:1;fill:url(#linearGradient4181);fill-opacity:1.0;" id="path3377" cx="400.571" cy="531.798" r="14"/>
     <circle r="0" cy="531.798" cx="400.571" id="ellipse4233" style="opacity:1;fill:url(#linearGradient3426);fill-opacity:1;"/>
    </g>
   </g>
   <g transform="matrix(0.91481089,0,0,0.91481089,-162.89312,-245.51061)" id="layer1-2" style="fill:#e9afaf;fill-opacity:1">
    <g transform="translate(-120.10595,41.912995)" id="layer1-6" style="fill:#e9afaf;fill-opacity:1">
     <path style="fill:#ffffff;fill-opacity:0.85" id="rect4244" d="m 682.11644,784.32218 c -0.15577,-0.0103 -0.30931,-0.008 -0.46057,0.002 -1.00845,0.0712 -1.94234,0.62988 -2.48621,1.5717 -0.86703,1.5053 -0.34801,3.41801 1.1604,4.28822 1.5053,0.86701 3.42121,0.36305 4.28822,-1.14701 0.87009,-1.5006 0.37179,-3.4488 -1.13353,-4.31729 -0.42423,-0.244 -0.90102,-0.36872 -1.36828,-0.39797 z m -8.26119,3.33582 c -2.17611,0 -4.21129,0.51401 -6.03654,1.41968 l 2.18663,3.94835 c 1.17768,-0.54992 2.46835,-0.87418 3.85003,-0.87418 4.80963,0 8.77928,3.68037 9.19344,8.38642 l 4.46485,-0.0559 c -0.22258,-3.46814 -1.73997,-6.58784 -4.06912,-8.8783 -1.19932,0.44987 -2.56142,0.38092 -3.75605,-0.31301 -1.19462,-0.69084 -1.95036,-1.84551 -2.15756,-3.11443 -1.16532,-0.31995 -2.40985,-0.51869 -3.67556,-0.51869 z m -7.57928,2.30729 c -2.75715,1.8407 -4.78766,4.66563 -5.64082,7.96379 0.99841,0.81138 1.5986,2.02455 1.5986,3.414 0,1.38007 -0.59863,2.63834 -1.5986,3.4543 0.85315,3.29655 2.88367,6.10969 5.64082,7.95039 l 2.3066,-3.87944 c -2.36611,-1.66293 -3.90587,-4.41299 -3.90587,-7.52559 0,-3.1158 1.53976,-5.86255 3.90587,-7.52559 z m -8.45567,8.23658 c -1.74179,0 -3.14122,1.39941 -3.14122,3.14121 0,1.73562 1.39943,3.14122 3.14122,3.14122 1.74328,0 3.15689,-1.4056 3.15689,-3.14122 0,-1.7418 -1.41361,-3.14121 -3.15689,-3.14121 z m 25.22839,3.97525 c -0.41419,4.69837 -4.38379,8.38642 -9.19344,8.38642 -1.38326,0 -2.67234,-0.3105 -3.85002,-0.86077 l -2.18664,3.91928 c 1.82525,0.90879 3.86055,1.40628 6.03654,1.40628 1.26583,0 2.51025,-0.16895 3.67557,-0.49187 0.20711,-1.26731 0.96132,-2.41833 2.15758,-3.11225 1.19781,-0.69073 2.55682,-0.75777 3.75603,-0.30183 2.32915,-2.29355 3.84636,-5.40707 4.06912,-8.8783 z m -1.3795,9.92904 c -0.45578,0.0388 -0.91584,0.19043 -1.3392,0.43598 -1.50828,0.86403 -2.0274,2.77261 -1.1604,4.27482 0.87016,1.51 2.80822,2.01619 4.31501,1.14918 1.50713,-0.86861 2.0036,-2.78509 1.13353,-4.29039 -0.54383,-0.94176 -1.49099,-1.49855 -2.4996,-1.56952 -0.15145,-0.0126 -0.2976,-0.0126 -0.44938,0 z"/>
    </g>
   </g>
  </g>
 </g>
 <style id="style26" type="text/css">
  .specularity {opacity:0.5;} .low-specularity {opacity:0.25;} .full-specularity {opacity:1;} .black {fill:#000000;} .white {fill:#ffffff;} .outline-big {stroke-width:16;stroke:none;opacity:0.1;fill:none;} .outline-small {stroke-width:8;stroke:none;opacity:0.2;fill:none;} .stroke-highlight {fill:none;stroke:none;opacity:0.2;} .base-shadow {fill:black;opacity:75;}
 </style>
 <style id="style26-7" type="text/css">
  .specularity {opacity:0.5;} .low-specularity {opacity:0.25;} .full-specularity {opacity:1;} .black {fill:#000000;} .white {fill:#ffffff;} .outline-big {stroke-width:16;stroke:none;opacity:0.1;fill:none;} .outline-small {stroke-width:8;stroke:none;opacity:0.2;fill:none;} .stroke-highlight {fill:none;stroke:none;opacity:0.2;} .base-shadow {fill:black;opacity:75;}
 </style>
 <style type="text/css" id="style26-9">
  .specularity {opacity:0.5;} .low-specularity {opacity:0.25;} .full-specularity {opacity:1;} .black {fill:#000000;} .white {fill:#ffffff;} .outline-big {stroke-width:16;stroke:none;opacity:0.1;fill:none;} .outline-small {stroke-width:8;stroke:none;opacity:0.2;fill:none;} .stroke-highlight {fill:none;stroke:none;opacity:0.2;} .base-shadow {fill:black;opacity:75;}
 </style>
</svg>
