<?xml version="1.0" encoding="UTF-8" standalone="no"?>
<svg xmlns:osb="http://www.openswatchbook.org/uri/2009/osb" xmlns="http://www.w3.org/2000/svg" xmlns:xlink="http://www.w3.org/1999/xlink" width="48" height="48" id="svg5453" version="1.1">
 <defs id="defs5455">
  <linearGradient id="linearGradient4581">
   <stop style="stop-color:#ec396c;stop-opacity:1" offset="0" id="stop4583"/>
   <stop style="stop-color:#ff709a;stop-opacity:1" offset="1" id="stop4585"/>
  </linearGradient>
  <linearGradient id="linearGradient4232">
   <stop id="stop4234-0" offset="0" style="stop-color:#3889e9;stop-opacity:1"/>
   <stop id="stop4236" offset="1" style="stop-color:#5ea5fb;stop-opacity:1"/>
  </linearGradient>
  <linearGradient xlink:href="#linearGradient4232" id="linearGradient3426" x1="399.571" y1="545.798" x2="399.571" y2="517.798" gradientUnits="userSpaceOnUse"/>
  <linearGradient xlink:href="#linearGradient4581" id="linearGradient4181" gradientUnits="userSpaceOnUse" x1="399.994" y1="545.139" x2="399.994" y2="518.139"/>
  <style type="text/css" id="current-color-scheme">
   .ColorScheme-Text { color:#31363b; } .ColorScheme-Background{ color:#eff0f1; } .ColorScheme-ViewText { color:#31363b; } .ColorScheme-ViewBackground{ color:#fcfcfc; } .ColorScheme-ViewHover { color:#3daee9; } .ColorScheme-ViewFocus{ color:#3daee9; } .ColorScheme-ButtonText { color:#31363b; } .ColorScheme-ButtonBackground{ color:#eff0f1; } .ColorScheme-ButtonHover { color:#3daee9; } .ColorScheme-ButtonFocus{ color:#3daee9; }
  </style>
  <style type="text/css" id="current-color-scheme-8">
   .ColorScheme-Text { color:#31363b; } .ColorScheme-Background{ color:#eff0f1; } .ColorScheme-ViewText { color:#31363b; } .ColorScheme-ViewBackground{ color:#fcfcfc; } .ColorScheme-ViewHover { color:#3daee9; } .ColorScheme-ViewFocus{ color:#3daee9; } .ColorScheme-ButtonText { color:#31363b; } .ColorScheme-ButtonBackground{ color:#eff0f1; } .ColorScheme-ButtonHover { color:#3daee9; } .ColorScheme-ButtonFocus{ color:#3daee9; }
  </style>
  <style type="text/css" id="current-color-scheme-7">
   .ColorScheme-Text { color:#31363b; } .ColorScheme-Background{ color:#eff0f1; } .ColorScheme-ViewText { color:#31363b; } .ColorScheme-ViewBackground{ color:#fcfcfc; } .ColorScheme-ViewHover { color:#3daee9; } .ColorScheme-ViewFocus{ color:#3daee9; } .ColorScheme-ButtonText { color:#31363b; } .ColorScheme-ButtonBackground{ color:#eff0f1; } .ColorScheme-ButtonHover { color:#3daee9; } .ColorScheme-ButtonFocus{ color:#3daee9; }
  </style>
  <linearGradient id="linearGradient4207" osb:paint="gradient">
   <stop style="stop-color:#3498db;stop-opacity:1;" offset="0" id="stop3371"/>
   <stop style="stop-color:#3498db;stop-opacity:0;" offset="1" id="stop3373"/>
  </linearGradient>
 </defs>
 <g id="layer1" transform="translate(-384.57143,-499.798)">
  <g id="g4471" transform="matrix(1.0931221,0,0,1.0931221,33.310366,-50.486049)">
   <g id="g4320" transform="matrix(0.98381885,0,0,0.98381885,5.5651187,8.3948576)">
    <g transform="matrix(1.5444819,0,0,1.5444819,-275.17538,-295.73877)" id="layer1-3">
     <circle style="opacity:1;fill:url(#linearGradient4181);fill-opacity:1.0;" id="path3377" cx="400.571" cy="531.798" r="14"/>
     <circle r="0" cy="531.798" cx="400.571" id="ellipse4233" style="opacity:1;fill:url(#linearGradient3426);fill-opacity:1;"/>
    </g>
   </g>
   <g transform="matrix(0.91481089,0,0,0.91481089,-162.89312,-245.51061)" id="layer1-2" style="fill:#ffffff;fill-opacity:0.85000002">
    <g transform="translate(-120.10595,41.912995)" id="layer1-6" style="fill:#ffffff;fill-opacity:0.85000002">
     <g id="g3015" transform="matrix(0.33581,0,0,0.33171,653.00601,780.03876)" style="fill:#ffffff;fill-opacity:0.85000002">
      <g id="g7930" transform="translate(19.557,19.715)" style="fill:#ffffff;fill-opacity:0.85000002">
       <g transform="matrix(3.5886492,0,0,3.6330056,-1240.2838,-1846.1154)" id="layer1-5" style="fill:#ffffff;fill-opacity:0.85000002">
        <g transform="matrix(0.49370002,0,0,0.49370002,320.79147,483.10857)" id="g4165" style="fill:#ffffff;fill-opacity:0.85000002">
         <g style="fill:#ffffff;fill-opacity:0.85000002" id="Layer_1">
          <g style="fill:#ffffff;fill-opacity:0.85000002" id="g4153">
           <path style="fill:#ffffff;fill-opacity:0.85000002" d="M 76.133,102.374 C 68.136,99.497 63.386,95.966 58.178,88.086 56.9,85.915 54.55,81.07 54.639,74.746 c -0.208,-6.305 2.978,-13.57 8.924,-17.447 5.742,-4.092 13.152,-4.153 17.56,-2.537 4.547,1.688 6.391,4.5 6.443,4.366 -0.139,0.035 2.436,2.201 3.584,6.916 1.279,4.532 -0.02,12.044 -6.271,15.12 -2.875,1.541 -6.609,1.82 -9.537,0.718 -2.928,-1.181 -5.053,-3.774 -5.761,-6.483 -1.543,-5.981 2.995,-9.296 4.997,-9.636 8.145,-2.716 12.27,10.03 2.744,11.114 4.342,1.45 8.818,-3.006 7.967,-7.545 -0.172,-4.54 -5.668,-9.046 -11.73,-7.199 -1.583,0.437 -3.98,1.548 -5.856,4.047 -1.924,2.484 -2.797,6.377 -1.797,10.161 0.975,3.805 3.94,7.447 8.07,9.084 4.172,1.539 8.817,1.099 12.653,-0.897 8.189,-4.051 9.828,-13.922 8.201,-19.353 -1.436,-5.837 -4.607,-8.51 -4.443,-8.551 -0.059,0.159 -2.34,-3.309 -7.977,-5.414 -5.512,-2.01 -14.106,-1.868 -20.987,2.957 -7.042,4.516 -10.857,13.39 -10.58,20.542 -0.095,7.263 2.612,12.822 4.089,15.293 5.954,9.08 12.776,11.918 21.201,12.372" id="path4159"/>
          </g>
         </g>
        </g>
       </g>
      </g>
     </g>
    </g>
   </g>
  </g>
 </g>
</svg>
