<?xml version="1.0" encoding="UTF-8" standalone="no"?>
<svg xmlns="http://www.w3.org/2000/svg" version="1.1" width="512" height="512" viewBox="0 0 512 512">
 <defs>
  <filter style="color-interpolation-filters:sRGB" id="filter4166" x="-.03" width="1.056" y="-.05" height="1.099">
   <feGaussianBlur stdDeviation="5.9"/>
  </filter>
 </defs>
 <path style="fill:#2980b9;fill-opacity:1;fill-rule:evenodd;stroke:#000000;stroke-width:0;stroke-opacity:1" d="m 55.066853,94.276719 c -7.824275,0 -14.123816,6.297841 -14.123816,14.122111 l 0,37.32867 0,120.13243 0,121.5455 0,7.30708 c 0,5.98757 4.819796,10.80737 10.807375,10.80737 l 408.499318,0 c 5.98757,0 10.80907,-4.8198 10.80907,-10.80737 l 0,-128.85257 -0.002,0 0,-120.13243 c 0,-11.78329 -9.48585,-21.26915 -21.26914,-21.26915 l -218.96832,0 c -5.81617,0 -8.11397,-0.68519 -11.8386,-4.18889 L 197.01302,98.500579 c -0.0748,-0.0762 -0.15164,-0.15024 -0.22814,-0.22473 l -0.0443,-0.0426 -0.002,0.002 c -2.53734,-2.44894 -5.98807,-3.95828 -9.80972,-3.95828 z"/>
 <path style="opacity:0.3;fill:#000000;fill-opacity:1;fill-rule:evenodd;stroke:#000000;stroke-width:0;filter:url(#filter4166)" d="m 28.241425,148.07206 c -12.87594,0 -23.24141,9.6069 -23.24141,21.54052 l 16,244.76159 0,7.4003 c 0,6.06398 5.26673,10.94526 11.80953,10.94526 l 446.379045,0 c 6.54281,0 11.81139,-4.88128 11.81139,-10.94526 l 15.998,-252.16189 c 0,-11.93362 -10.36547,-21.54052 -23.24141,-21.54052 l -455.515295,0 z" transform="matrix(0.88626203,0,0,0.86265191,29.117811,27.075351)"/>
 <path style="fill:#4aaee8;fill-opacity:1;fill-rule:evenodd;stroke:#000000;stroke-width:0;stroke-opacity:1" d="m 47.569942,157.23082 c -11.783285,0 -21.269144,8.79166 -21.269144,19.7126 l 14.642239,223.99111 0,6.77231 c 0,5.54939 4.819796,10.01644 10.807375,10.01644 l 408.499318,0 c 5.98757,0 10.80907,-4.46705 10.80907,-10.01644 l 14.64041,-230.76343 c 0,-10.92094 -9.48585,-19.71259 -21.26914,-19.71259 l -416.860264,0 z"/>
 <g transform="translate(-97.132327,529.46865)" style="fill:#ffffff;fill-opacity:1">
  <g transform="translate(21.737289,-39.127119)" style="fill:#ffffff;fill-opacity:1">
   <g transform="translate(-671.90801,-288.45425)" style="fill:#ffffff;fill-opacity:1">
    <g transform="translate(10.868643,220.39399)" style="fill:#ffffff;fill-opacity:1">
     <path d="m 983.60768,-217.00386 c -33.81269,0 -61.20052,27.35795 -61.20052,61.20052 0,33.81269 27.38783,61.200516 61.20052,61.200516 9.33845,0 18.10912,-2.06193 26.05802,-5.737546 l 22.9502,22.950196 c 10.7878,10.8625 10.8924,10.8625 21.7549,0 10.7878,-10.78779 10.7878,-10.89238 0,-21.75487 l -21.0377,-21.037676 c 7.1869,-10.10048 11.4751,-22.30771 11.4751,-35.62062 0,-33.84257 -27.3878,-61.20052 -61.20052,-61.20052 z m -0.95626,30.60026 c 8.27761,-0.25402 16.31615,2.85383 22.26288,8.62126 5.9467,5.76744 9.2936,13.70139 9.2936,21.979 0,16.89888 -13.7013,30.58532 -30.60022,30.58532 -16.89888,0 -30.60026,-13.68644 -30.60026,-30.58532 -0.0149,-16.52533 13.11866,-30.0773 29.644,-30.60026 z" style="fill:#ffffff;fill-opacity:1;fill-rule:evenodd"/>
    </g>
   </g>
  </g>
 </g>
</svg>
