<?xml version="1.0" encoding="UTF-8" standalone="no"?>
<svg xmlns="http://www.w3.org/2000/svg" version="1.1" width="512" height="512" viewBox="0 0 512 512">
 <defs>
  <filter style="color-interpolation-filters:sRGB" id="filter4166" x="-.03" width="1.056" y="-.05" height="1.099">
   <feGaussianBlur stdDeviation="5.9"/>
  </filter>
 </defs>
 <path style="fill:#2980b9;fill-opacity:1;fill-rule:evenodd;stroke:#000000;stroke-width:0;stroke-opacity:1" d="m 55.066853,94.276715 c -7.824275,0 -14.123816,6.297845 -14.123816,14.122115 l 0,37.32867 0,120.13243 0,121.5455 0,7.30708 c 0,5.98757 4.819796,10.80737 10.807375,10.80737 l 408.499318,0 c 5.98757,0 10.80907,-4.8198 10.80907,-10.80737 l 0,-128.85257 -0.002,0 0,-120.13243 c 0,-11.78329 -9.48585,-21.26915 -21.26914,-21.26915 l -218.96832,0 c -5.81617,0 -8.11397,-0.68519 -11.8386,-4.18889 L 197.01302,98.500575 c -0.0748,-0.0762 -0.15164,-0.15024 -0.22814,-0.22473 l -0.0443,-0.0426 -0.002,0.002 c -2.53734,-2.44894 -5.98807,-3.95828 -9.80972,-3.95828 z"/>
 <path style="opacity:0.3;fill:#000000;fill-opacity:1;fill-rule:evenodd;stroke:#000000;stroke-width:0;filter:url(#filter4166)" d="m 28.241425,148.07206 c -12.87594,0 -23.24141,9.6069 -23.24141,21.54052 l 16,244.76159 0,7.4003 c 0,6.06398 5.26673,10.94526 11.80953,10.94526 l 446.379045,0 c 6.54281,0 11.81139,-4.88128 11.81139,-10.94526 l 15.998,-252.16189 c 0,-11.93362 -10.36547,-21.54052 -23.24141,-21.54052 l -455.515295,0 z" transform="matrix(0.88626203,0,0,0.86265191,29.117811,27.075351)"/>
 <path style="fill:#4aaee8;fill-opacity:1;fill-rule:evenodd;stroke:#000000;stroke-width:0;stroke-opacity:1" d="m 47.569942,157.23082 c -11.783285,0 -21.269144,8.79166 -21.269144,19.7126 l 14.642239,223.99111 0,6.77231 c 0,5.54939 4.819796,10.01644 10.807375,10.01644 l 408.499318,0 c 5.98757,0 10.80907,-4.46705 10.80907,-10.01644 l 14.64041,-230.76343 c 0,-10.92094 -9.48585,-19.71259 -21.26914,-19.71259 l -416.860264,0 z"/>
 <g style="stroke:#000000;stroke-opacity:0.8;fill:#ffffff" transform="matrix(13.86174,0,0,13.962207,-5394.843,-7247.779)">
  <g transform="matrix(1.2716673,0,0,1.275599,-114.61765,-139.97713)" style="fill:#ffffff;fill-opacity:1;">
   <g transform="matrix(0.7863692,0,0,0.78394543,93.325829,112.35451)" style="fill:#ffffff;fill-opacity:1;">
    <g transform="scale(0.99845769,1.0015447)" style="font-size:18.52626991px;line-height:125%;letter-spacing:0px;word-spacing:0px;fill:#ffffff;fill-opacity:1;">
     <path d="m 404.72385,528.39204 q 3.0383,0 5.11325,2.09347 2.07494,2.09347 2.07494,5.05767 0,1.66737 -0.72253,2.76042 -0.70399,1.09305 -2.05641,1.09305 -1.38947,0 -2.07494,-1.35242 -0.90779,1.35242 -2.59368,1.35242 -1.51916,0 -2.55663,-1.056 -1.03747,-1.07452 -1.03747,-2.72336 0,-1.63031 1.03747,-2.70484 1.03747,-1.07452 2.48252,-1.07452 1.42653,0 2.37137,1.09305 l 0.0741,0 0,-0.83368 1.33389,0 0,4.83536 q 0,0.48168 0.25937,0.87073 0.27789,0.38905 0.83368,0.38905 1.31537,0 1.31537,-2.64926 0,-2.44546 -1.70442,-4.13135 -1.70442,-1.68589 -4.14988,-1.68589 -2.44547,0 -4.14989,1.68589 -1.70441,1.68589 -1.70441,4.13135 0,2.44547 1.70441,4.13136 1.70442,1.68589 4.14989,1.68589 1.31536,0 2.35283,-0.51873 l 0.51874,1.25978 q -1.29684,0.59285 -2.87157,0.59285 -3.07536,0 -5.16883,-2.07495 -2.09347,-2.09347 -2.09347,-5.0762 0,-2.9642 2.09347,-5.05767 2.11199,-2.09347 5.16883,-2.09347 z m -1.72295,8.94819 q 0.66695,0.64842 1.59326,0.64842 0.92632,0 1.57474,-0.64842 0.66694,-0.64842 0.66694,-1.72294 0,-1.07452 -0.66694,-1.72294 -0.64842,-0.64842 -1.57474,-0.64842 -0.92631,0 -1.59326,0.64842 -0.64842,0.64842 -0.64842,1.72294 0,1.07452 0.64842,1.72294 z" style="font-family:'Product Sans';fill:#ffffff;fill-opacity:1;"/>
    </g>
   </g>
  </g>
 </g>
</svg>
