<svg height="22" viewBox="0 0 512 512" width="22" xmlns="http://www.w3.org/2000/svg">
 <path d="m41.083585 50.721356v295.600524c0 31.36362 11.475896 58.84319 33.803724 81.07931 19.083937 18.83759 41.969201 31.12087 67.754901 33.87745h210.85296c32.36699 0 60.5946-12.08008 83.5428-35.44185h.22297c19.5155-20.05135 30.87451-44.06766 33.65448-71.10668v-32.91004l-.14925-128.58686c0-25.59329-9.49072-48.25019-27.47418-66.41526-17.99965-18.17946-40.39401-27.549705-65.5971-27.549705-24.73917 0-46.3801 9.215605-63.88345 26.059025-17.453-16.81645-38.93209-26.059025-63.66048-26.059025-25.21028 0-47.60465 9.373835-65.5971 27.549705-17.98166 18.16148-27.40045 40.82197-27.40045 66.41526v129.40503h58.59684v-129.40503c0-9.80899 3.27086-17.42063 10.27472-24.49641 7.02723-7.09737 14.45726-10.35025 24.1242-10.35025 9.86474 0 17.23002 3.2349 24.27344 10.35025 7.00386 7.07578 10.201 14.68742 10.201 24.49641v129.40503h58.59684v-129.40503c0-9.80899 3.27086-17.42063 10.27472-24.49641 7.04162-7.11355 14.33318-10.35025 24.19792-10.35025 9.66155 0 17.17069 3.25109 24.19792 10.35025 7.00386 7.07578 10.12547 14.68742 10.12547 24.49641l.2985 151.15385c0 1.90066-.0953 3.78873-.2985 5.65883-.0126.0971.0126.19959 0 .29849-.0809.71387-.18701 1.45292-.29849 2.1596-.24635 1.52125-.588 2.98316-.96741 4.46664-6.76471 26.39169-34.25507 46.75232-68.42023 46.75232l-126.71676-.44594v.0737l-62.61754-.29849c-30.44475 0-56.439041-29.52589-56.439041-67.60745v-284.721626h-55.469828" fill="#b7b7b7" fill-rule="evenodd"/>
</svg>
