<svg width="512" height="512" version="1.1" viewBox="0 0 512 512" xmlns="http://www.w3.org/2000/svg">
 <path d="m220.17 126.86c-53.661-0.061-92.874 41.088-117.94 89.018-32.675 62.454-67.148 154.76-0.62486 154.76 70.013 0 128.19-38.862 169.32-68.23 14.92 27.204 36.637 68.23 66.981 68.23 30.343 0 58.004-11.948 71.522-22.586l50.399-70.196-5.456-6.279c-63.795 31.608-85.558 53.341-121.4-14.874l45.248-41.606 66.447-82.251-4.8921-6.0656-119.56 104.7c-19.355-40.066-59.117-104.58-100.08-104.62m-44.76 51.756c37.994 0 60.275 55.962 82.632 97.43-32.965 18.745-76.033 41.865-107.6 35.403-37.415-7.6658-46.94-46.803-31.867-76.201 13.366-27.554 29.764-56.602 56.785-56.602" fill="#3a3a3a" stroke-width="15.24"/>
</svg>
