<svg height="512" viewBox="0 0 512 512" width="512" xmlns="http://www.w3.org/2000/svg">
 <path d="m395.92691 415.81426c0 15.82188-12.86666 28.69255-28.6872 28.69255h-222.46505c-15.83526 0-28.69657-12.87603-28.69657-28.69255 0-1.53452.28388-3.05833.8302-4.49376l77.06069-201.93784c.0268-.32003.0723-.64005.11248-.95606v-115.718247h-9.10401c-6.96961 0-12.60957-5.647993-12.60957-12.613583 0-6.965591 5.63862-12.613584 12.60957-12.613584h21.71357c6.96961 0 12.61894 5.647993 12.61894 12.613584v129.29592c0 .72575-.0629 1.44347-.18478 2.16118 0 1.53854-.36957 3.60867-.92527 5.03874l-46.41316 121.63672h167.35091l-47.9517-121.48943c-.5182-1.30822-.81145-2.69143-.87036-4.09205l-.10311-.7619c-.0536-.49678-.0817-.99221-.0817-1.48899v-130.30019c0-6.965591 5.63862-12.613584 12.60957-12.613584h22.28132c6.9696 0 12.60956 5.647993 12.60956 12.613584 0 6.96559-5.63862 12.613583-12.60956 12.613583h-9.67711v116.548437l79.69856 201.92445c.58248 1.47962.88376 3.04494.88376 4.63302m-164.35149-105.68897c0-5.21549 4.23666-9.46689 9.45349-9.46689 5.21951 0 9.46688 4.24069 9.46688 9.46689 0 5.21013-4.24469 9.46688-9.46688 9.46688-5.2195 0-9.45349-4.25006-9.45349-9.46688m6.29742 0c0 1.73671 1.41668 3.14937 3.15339 3.14937 1.73671 0 3.1534-1.41266 3.1534-3.14937 0-1.74207-1.41669-3.1534-3.1534-3.1534-1.73671 0-3.15339 1.41267-3.15339 3.1534m42.56883-9.46689c0-5.21549 4.2447-9.46688 9.46688-9.46688 5.21951 0 9.4535 4.24068 9.4535 9.46688 0 5.21014-4.23667 9.46689-9.4535 9.46689-5.2195 0-9.46688-4.2447-9.46688-9.46689m6.30679 0c0 1.73671 1.41669 3.14938 3.1534 3.14938 1.73671 0 3.1534-1.41267 3.1534-3.14938 0-1.74072-1.41669-3.15339-3.1534-3.15339-1.73671 0-3.1534 1.41668-3.1534 3.15339m-32.59044-31.52994c0-7.24544 5.89571-13.14116 13.14651-13.14116 7.24009 0 13.13714 5.89572 13.13714 13.14116 0 7.24009-5.89571 13.14116-13.13714 13.14116-7.25482 0-13.14651-5.89571-13.14651-13.14116m6.30679 0c0 3.76667 3.0677 6.83437 6.83972 6.83437 3.76265 0 6.83972-3.0677 6.83972-6.83437 0-3.77202-3.07707-6.83972-6.83972-6.83972-3.77202 0-6.83972 3.0677-6.83972 6.83972" fill="#3a3a3a"/>
</svg>
