<svg height="512" viewBox="0 0 512 512" width="512" xmlns="http://www.w3.org/2000/svg">
 <path d="m261.0293 30.992188a223.57 223.57 0 0 0 -228.599612 225.007812 223.57 223.57 0 0 0 447.130862 0 223.57 223.57 0 0 0 -218.53125-225.007812zm-68.99219 93.003902c17.783 0 32.33203 25.86649 32.33203 58.19922 0 32.33273-14.54903 58.19922-32.33203 58.19922-17.783 0-32.33397-25.86649-32.33399-58.19922 0-32.33273 14.55099-58.19922 32.33399-58.19922zm120.16016 0c17.783 0 32.33398 25.86649 32.33398 58.19922 0 32.33273-14.55098 58.19922-32.33398 58.19922-17.783 0-32.33204-25.86649-32.33204-58.19922 0-32.33273 14.54904-58.19922 32.33204-58.19922zm-225.431645 145.4375c77.340745 44.65271 167.572185 41.75977 169.257815 41.75977 12.31007 0 105.79829-2.82836 169.26562-39.47266l.00782.00196c-39.01743 67.574-84.63596 116.26757-165.84376 116.26757-78.89417 0-136.63646-56.13043-172.687495-118.55664z" fill="#3a3a3a"/>
</svg>
