<?xml version="1.0" encoding="UTF-8"?>
<svg width="512" height="512" version="1.1" viewBox="0 0 512 512" xmlns="http://www.w3.org/2000/svg">
 <path d="m172.9 39.129c-3.7538 0.16392-5.9668 4.2784-4.0325 7.4912l15.523 26.703c-30.703 18.392-48.996 48.455-49.013 80.551h229.49c-0.06553-32.08-18.376-62.126-49.078-80.486l15.589-26.768c1.9507-3.2784-0.37702-7.4421-4.1964-7.4912-1.8195-0.03278-3.4915 0.95075-4.3931 2.5244l-15.72 26.982c-17.327-8.5567-36.964-13.114-56.963-13.13-19.998-0.01635-39.653 4.5243-56.996 13.065l-15.687-26.932c-0.91797-1.6392-2.6719-2.6064-4.5406-2.5244m19.851 65.569c4.5242 0 8.1961 3.6718 8.1961 8.1961 0 4.5242-3.6718 8.1961-8.1961 8.1961s-8.1961-3.6719-8.1961-8.1961c0-4.5242 3.6719-8.1961 8.1961-8.1961m114.75 0c4.5242 0 8.1961 3.6718 8.1961 8.1961 0 4.5242-3.6719 8.1961-8.1961 8.1961s-8.1961-3.6719-8.1961-8.1961c0-4.5242 3.6718-8.1961 8.1961-8.1961m-213.1 65.569c-13.622 0-24.588 10.966-24.588 24.588v114.75c0 13.622 10.966 24.588 24.588 24.588 13.622 0 24.588-10.966 24.588-24.588v-114.75c0-13.622-10.966-24.588-24.588-24.588m40.981 0v180.31c0 18.163 14.622 32.784 32.784 32.784h16.392v57.373c0 13.622 10.966 24.588 24.588 24.588 13.622 0 24.588-10.966 24.588-24.588v-57.373h32.784v57.373c0 13.622 10.966 24.588 24.588 24.588 13.622 0 24.588-10.966 24.588-24.588v-57.373h16.392c18.163 0 32.784-14.622 32.784-32.784v-180.31zm270.47 0c-13.622 0-24.588 10.966-24.588 24.588v114.75c0 13.622 10.966 24.588 24.588 24.588 13.622 0 24.588-10.966 24.588-24.588v-114.75c0-13.622-10.966-24.588-24.588-24.588" fill="#3a3a3a" stroke-width="16.392"/>
</svg>
