<svg height="512" viewBox="0 0 512 512" width="512" xmlns="http://www.w3.org/2000/svg">
 <path d="m226.88 101.03c-19.19 2.643-21.7 72.27-35.677 85.73-13.977 13.465-82.58 12.846-86.01 31.99-3.427 19.14 61.01 43.27 69.44 60.782 8.432 17.511-13.248 82.944 3.823 92.13 17.07 9.189 59.81-45.34 78.999-47.986 19.19-2.643 74.58 38.42 88.56 24.952 13.977-13.465-24.451-71.07-21.02-90.21 3.427-19.14 59.4-59.27 50.967-76.78-8.433-17.511-74.67 1.511-91.74-7.678s-38.15-75.58-57.34-72.938" fill="#3a3a3a"/>
</svg>
