<?xml version="1.0" encoding="UTF-8"?>
<svg width="512" height="512" version="1.1" viewBox="0 0 512 512" xmlns="http://www.w3.org/2000/svg">
 <path d="m228.12 59.625-33.125 82.845a186.38 116.49 0 0 0-131.44 111.3 186.38 116.49 0 0 0 54.118 82.087l-38.586 96.525h85.423l25.086-68.405a186.38 116.49 0 0 0 60.337 6.2794 186.38 116.49 0 0 0 186.38-116.49 186.38 116.49 0 0 0-46.625-77.02 23.297 23.297 0 0 0 0.031-0.63679 23.297 23.297 0 0 0-23.297-23.297 23.297 23.297 0 0 0-23.297 23.297 23.297 23.297 0 0 0 23.297 23.297 23.297 23.297 0 0 0 13.529-4.3378 155.31 93.189 0 0 1 25.299 50.932 155.31 93.189 0 0 1-155.31 93.189 155.31 93.189 0 0 1-49.475-4.8536l49.475-134.93 44.046 120.1c24.874-4.7578 46.467-13.264 62.55-23.934 1.9753-1.3108 3.7527-2.6821 5.5513-4.0344l-96.616-231.92zm-40.376 100.99-57.788 144.54a155.31 93.189 0 0 1-35.34-59.153 155.31 93.189 0 0 1 93.128-85.392zm199.14 190.45c-20.442 12.291-44.574 21.704-71.257 27.604l19.717 53.723h85.423z" fill="#3a3a3a" stroke-linejoin="round" stroke-opacity=".45871" stroke-width="31.063"/>
</svg>
