<svg width="512" height="512" version="1.1" viewBox="0 0 512 512" xmlns="http://www.w3.org/2000/svg">
 <path d="m431.08 68.638c-8.6441 0.14504-26.221 1.8564-37.612 3.909-58.235 10.485-104.02 28.293-140.88 54.728-23.311 16.714-39.468 33.626-55.542 58.083-4.0858 6.2158-7.8609 11.905-8.3706 12.642-0.5166 0.73622-6.7296 1.4959-13.809 1.7266-14.403 0.46687-15.028 0.77075-35.639 16.7-23.42 18.109-48.225 47.005-65.643 76.509-11.078 18.772-8.2104 21.067 18.886 15.027 8.7463-1.9504 18.448-4.1218 21.576-4.8234 21.033-4.713 32.68-6.818 33.455-6.0418 0.4945 0.4945-0.38262 4.59-1.9794 9.0875-2.1438 6.0362-2.5264 9.2657-1.3702 12.336 0.86054 2.2888 10.347 12.998 21.069 23.811l19.49 19.699 8.1234-0.96414c4.4671-0.53455 10.292-1.4476 12.896-2.0305 3.6563-0.8191 4.5058-0.58704 3.8579 1.1672-2.8924 7.8333-16.269 73.011-15.433 75.183 0.56218 1.4642 2.2639 2.6396 3.7571 2.6396s11.933-6.0735 23.201-13.505c36.311-23.947 57.997-44.312 76.717-72.034 7.8001-11.56 7.9258-11.98 7.97-24.42l0.0511-12.693 15.89-10.103c36.615-23.243 62.655-55.763 84.576-105.7 10.664-24.28 17.197-45.45 24.42-79.148 3.0154-14.067 6.8553-49.947 5.4823-51.329-0.34532-0.34532-2.246-0.50555-5.1273-0.45721m-95.392 72.903c12.034 0.011 19.714 4.1853 24.974 13.555 8.4466 15.03 1.239 32.629-16.296 39.954-6.0404 2.5236-8.412 2.7529-15.738 1.3702-2.1493-0.40472-7.8153-4.6674-12.59-9.4425-8.3154-8.3154-8.6869-9.0391-8.6814-17.312 0-10.175 3.4449-16.672 12.336-23.454 5.1771-3.9477 7.6178-4.6784 15.991-4.6701" fill="#3a3a3a" fill-rule="evenodd" stroke-width="1.3813"/>
 <path d="m128.26 337.89 33.315 36.765-42 75.095-0.40604-51.649-36.393 12.033 15.667-34.099-50.989-4.613z" fill="#3a3a3a"/>
</svg>
