<svg width="512" height="512" version="1.1" viewBox="0 0 512 512" xmlns="http://www.w3.org/2000/svg">
 <path d="m230.66 109.11c-10.312 0.47185-23.383 2.6139-42.995 8.5486h-0.50201s-31.408 13.062-47.772 27.406l-0.251-0.25183c-1.9325 1.3045-3.6232 3.3423-6.2858 6.0343-2.6626 2.692-5.7724 5.9006-8.8001 9.0515-3.0276 3.1509-6.0693 6.1322-8.2972 8.2972-1.114 1.0825-1.9183 2.0228-2.5143 2.5144-0.17929 0.1475-0.1638 0.18744-0.25181 0.251-0.0571 0.0407-0.26242 6e-3 -0.25183 0-1.6472 0.0571-3.3165-0.0326-4.5257 0.25101h-0.251c-9.5228 2.5741-11.873 10.72-12.32 12.32h-0.25101l-0.251 0.75465c-0.0013 8e-3 0 0.251 0 0.251v0.75383l-0.50282 5.783c-2.3203 1.6566-6.2492 4.9047-6.5372 11.817-0.13527 3.2405 1.4424 5.3529 2.7657 7.5428-1.5759 2.1141-3.8814 5.2487-6.7886 12.32-4.1499 10.094-8.403 25.668-8.5486 47.52-0.18417 27.669 7.5923 46.346 15.337 58.08 7.7568 11.752 16.092 16.846 16.092 16.846l0.251 0.25101 2.7657 1.5086 1.0057-0.75465c0.69189 0.10514 1.3122 0.14507 2.2629 0.251 2.9624 0.33006 6.9155 0.61284 11.566 0.25101 4.513-0.34961 7.8312-3.3695 10.812-6.5372 3.0003-3.1889 5.7714-6.9425 8.2972-10.811 4.0162-6.1518 6.1631-10.646 7.2915-12.823l85.989-1.0056c0.8495 0.99497 1.589 2.0375 2.5143 3.0171 0.084 0.0888 0.16705 0.16299 0.25099 0.251 4.1602 5.0731 10.72 11.108 20.617 17.852 6.8262 4.6509 13.981 9.491 27.657 15.086 37.96 15.529 80.332-3.3512 80.709-3.52 6e-3 -3e-3 0.24204 4e-3 0.25101 0l2.5144-1.0057v-0.251c3.5422-1.4359 13.45-5.7292 25.897-16.343 14.673-12.512 30.636-32.853 35.2-63.109 0.45881-3.0434 0.80762-5.9319 1.0057-8.8001 0.0164-0.20455-0.0245-0.3602 0-0.75464 0.24285-3.082 0.34716-6.5603 0.251-10.057-0.21025-7.6405-0.9693-15.276-2.7658-20.366-0.21923-0.62181-0.57047-1.009-0.75465-1.5086-0.0245-0.0831 0.0245-0.16869 0-0.251-3.1366-11.47-8.2038-21.024-13.326-28.663-0.0407-0.0652 0.0407-0.18663 0-0.251h-0.25101c-5.8321-9.3449-11.773-15.26-18.103-20.366l-0.25101-0.25182c-0.14995-0.12305-0.11905-0.14424-0.251-0.251-0.13202-0.10759-0.13609-0.15892-0.25101-0.25101l4.5257-1.76-1.2571-1.5085h1.2571l0.25101-1.0057 10.309 0.75465-8.2972-5.5315 0.25183-1.0057-2.5143-2.0115c-12.327-8.2938-24.507-16.473-41.486-25.646v-0.251h-0.25101l-0.25181-0.25182h-1.0048l-1.2572-0.251-0.50282-0.25101c-7.7592-4.1382-15.705-6.0816-23.383-9.0515v-3.0171l-1.2572 2.5143c-21.562-8.1663-44.162-13.974-78.446-17.852h-2.011l-11.817-0.50282h-0.75383c-2.9529-0.13855-6.117-0.15729-9.5543 0zm1.5086 31.177c6.9622 0.0872 13.785 0.74568 20.114 2.0115 7.8844 1.5768 13.085 5.015 17.349 8.5487 0.81006 0.7033 1.536 1.3001 2.2629 2.0114 1.915 1.8248 3.7244 3.2868 5.28 5.0286-4.2534 1.7971-8.5398 3.7229-12.069 5.7829-9.3872 5.4798-15.612 10.865-15.84 11.063-4.4612 0.28035-10.065 1.1204-17.349 2.2629-8.8952 1.3953-19.286 3.1782-29.166 5.0286-17.523 3.282-30.046 5.8388-33.44 6.5372-0.46288-2.7205-1.3558-6.1987-0.75463-13.577 0.79132-9.7047 3.9325-20.1 13.326-25.394 5.1313-2.8922 16.563-6.3277 29.669-8.0458 6.5536-0.8592 13.655-1.344 20.617-1.2572zm-57.577 4.5258c-10.079 7.6943-14.514 19.322-15.337 29.417-0.91674 11.244 1.2571 20.617 1.2571 20.617l0.75465 4.0228 2.5143-0.75465 1.76 0.251 26.4 2.7658h1.5076v-0.25101l41.989-9.303c-2.3016 3.3655-4.8146 6.1231-6.7886 10.057-3.1109 6.2001-5.6497 13.246-7.5428 20.366-0.88992 0.93263-5.7922 6.2508-11.063 13.326-0.33413 0.44903-0.68048 0.80435-1.0057 1.2571l-0.50282 0.50283-11.817 9.3029-46.263 5.28h-0.50201l-2.7658 0.251-0.75464 2.5143-0.25183 0.25183v0.25099l-11.063 34.697-0.25181 0.75464c-2.6137-1.3443-5.4181-4.5786-6.0343-5.2799l-0.251-72.16v-1.7596l-0.75465-1.0056h-0.25101v-0.251l-15.589-23.132c2.8097-3.6718 18.015-22.488 47.269-36.457 4.6275-2.2098 10.098-3.755 15.337-5.5315zm194.86 24.892h2.5139l13.577 1.2572-1.5086 0.50283 1.5086 2.5143h-0.50242l2.2629 5.28 0.25101 0.75465v0.25181s1.0188 2.4686 1.76 5.0286c-8.5239-2.0734-16.632-0.92904-23.634 1.2571-2.9901-8.0444-8.0457-14.834-8.0457-14.834l-0.75465-1.0057 0.75465-0.25099c0.18499-5e-3 0.51586 8e-3 0.75463 0 0.15892-6e-3 0.31947 8e-3 0.50282 0 0.92547-0.0488 1.9567-0.16056 3.2686-0.25102 2.5421-0.17683 5.3997-0.29908 7.2914-0.50282zm-96.298 7.0401c0.27219-0.0164 0.48245 6e-3 0.75465 0-3.3216 1.0757-6.8239 2.8041-10.309 5.0286l-2.2629-1.5086c4.0224-1.6306 8.0784-3.3375 11.817-3.52zm-10.812 5.5315c-0.34227 0.23308-0.66337 0.25752-1.0057 0.50282-13.463 9.6584-25.739 31.923-28.412 62.857-1.6878 19.535 2.0083 47.198 18.857 65.623 5.9239 6.4781 12.737 9.5747 19.36 11.314-6.6371 0.92301-13.424 0.14261-20.114-5.7829-1.5027-1.3306-2.9408-2.6387-4.2743-4.0228-0.0816-0.084-0.17114-0.16788-0.25101-0.25101-0.48571-0.58513-0.7685-1.1932-1.2571-1.76l-0.75465-1.0057c-5.0904-5.909-9.0644-11.942-11.566-18.103-0.0245-0.0571 0.0245-0.18989 0-0.251-0.16054-0.63159 0.0164-1.409-0.251-1.76-0.41726-0.5395-0.27301-0.30072-0.50282-0.50282-5.4736-15.168-5.0267-30.342-5.2801-42.24-0.29909-14.053 3.7405-28.895 9.8058-40.983 3.6697-7.3136 8.2093-13.627 12.571-18.103 1.7387-1.782 3.3629-3.3608 5.0286-4.5257l0.50283-0.25102 0.50282-0.50282h0.50282l6.5371-0.251zm21.372 1.5086c0.61692-0.0407 1.1938 0 1.76 0 3.9817-4e-3 7.2074 1.0166 8.5486 1.76 2.7748 1.5381 5.1155 3.3572 7.2915 5.5315 0.084 0.084 0.16869 0.16706 0.251 0.251 7.0494 9.4924 11.292 21.415 13.577 32.434 0.9081 4.3802 1.3781 8.4232 1.76 12.32 0.38464 8.49-0.50934 15.043-0.75465 18.354-0.87388 11.818-2.3957 32.586-19.36 54.309-0.0571 0.0733 0.0571 0.18092 0 0.251-0.53624 0.65359-1.1986 1.3654-1.76 2.0114-0.44089 0.50691-2.2462 1.8297-4.7772 2.7658-2.531 0.93597-5.7884 1.494-9.3029 1.5086-7.0639 0.0245-15.204-2.2128-22.377-10.057-14.137-15.46-18.109-41.057-16.594-58.583 2.4905-28.828 14.886-49.142 24.892-56.32 6.2795-4.5052 12.018-6.209 16.846-6.5372zm-35.452 3.2686 0.75465 0.75464-1.0057 0.75465c2.4e-4 -1.7e-4 -0.50527 0.17276-0.75465 0.251-0.0733 0.0245-0.25182 0-0.251 0 1.6e-4 -8e-5 -0.16952-5e-3 -0.25101 0 0.10926-0.12305 0.1418-0.38222 0.25101-0.50283 0.0652-0.0733 0.18255-0.17685 0.251-0.25099l0.50282-0.50283 0.50283-0.50283zm-135.52 17.6 6.5371 9.5544 0.25182 44.754-0.25182-0.50283c-0.2836-4.9237-1.3473-7.1174-2.0114-10.812l-0.251-0.75464-0.25182-1.5086c-0.0164-0.0816 0.0164-0.1744 0-0.25101-0.0245-0.14098 0.0245-0.36428 0-0.50282l-0.251-1.2571c-0.15158-0.70493-0.33576-1.1-0.50282-1.76-0.70249-2.3951-0.76606-6.436-1.76-8.2972-2.2996-4.3066-5.9904-6.7276-9.8058-8.0458l-0.251-8.0458c0.76441-0.36754 1.1166-0.35369 2.0115-1.0057 2.8455-2.0721 5.7239-5.8521 6.5372-11.566zm-10.057 0.50283c-0.61854 1.4211-1.1998 2.929-2.0115 3.52-0.10591 0.0816-0.14913-0.0652-0.251 0-0.66744-0.62017-1.7658-1.3849-2.0115-1.76-0.14669-0.2233-0.13691-0.94542-0.25101-1.2572l1.5086-0.251h0.50283l2.5143-0.25101zm180.02 20.869 0.251 1.0057c-1.7366 0.63322-3.9712 1.4529-6.2857 3.0171-4.9018 3.3124-10.109 9.4518-11.817 18.857h-0.25101v0.50282l-0.251 0.50282 0.251 1.0057c0.0164 0.0914-0.0164 0.16055 0 0.25102 2.3024 15.448 14.834 23.383 14.834 23.383h0.25102l0.25099 0.25101h0.25102v0.251s5.8472 2.2563 12.069 0c3.1278-1.1319 6.1283-3.6289 8.2972-7.5429 2.1641-3.9054 3.4193-9.1195 3.52-16.091 0.18092-12.49-3.422-19.213-8.0458-22.629v-0.25101c-1.9493-1.3531-4.4231-1.8441-6.7886-2.0114-4.2e-4 -3.3e-4 -0.75384-0.251-0.75465-0.251-8e-5 -8e-5 -0.17766 8e-3 -0.251 0v-0.25101c-0.088-0.0245-0.12304 0.0162-0.25101 0h-5.2803zm42.995 3.0171c34.858 8.5734 70.716 16.269 97.555 38.972-9.0778 53.289-55.287 70.842-56.823 71.406h-0.75464v0.25102s-0.24937-7.4e-4 -0.251 0c-0.3814 0.16135-40.23 17.289-73.418 3.7715l-0.25101-0.25182c-10.82-4.4264-17.559-8.0458-23.383-11.566 4.1688-0.0733 8.4143-0.0652 12.069-1.2571 6.1707-2.0071 8.8704-4.9077 12.823-7.7943 0.18255-0.13283 0.32599-0.36998 0.50282-0.50282 0.0571-0.0407 0.19722 0.0407 0.25102 0 0.28359-0.21433 0.73671-0.29013 1.0057-0.50282v-0.25101c1.9639-1.5599 5.9306-3.0243 7.04-4.2742 21.902-24.678 22.725-50.072 24.137-61.6 0.40748-3.326 1.1435-10.83 0.251-20.114-3e-3 -0.0831 3e-3 -0.16789 0-0.25102-0.0652-2.0219-0.5615-4.0348-0.75464-6.0343zm-227.29 4.0229h1.2575c3.0359 0.1858 4.2861 0.78072 6.2858 4.5257 0.58432 1.0937 1.2334 3.0247 1.76 4.7771-0.88064 0.48328-1.3416 0.39689-2.2629 1.2572-3.293 3.0739-6.1754 8.4989-6.5372 17.349v0.75301c0.86254 7.6314 3.2209 12.295 5.783 15.086 0.34634 0.37732 0.65441 0.45067 1.0056 0.75465-1.0562 2.2118-2.1005 4.7435-3.0171 5.7829-1.2694 1.4394-2.4298 2.011-3.0172 2.2629-0.1581 0.0652-0.28768 0.20617-0.251 0.251h-4.2747v13.074c-1.8523-5.7862-3.3128-12.889-4.0228-21.623-1.686-20.738 3.1221-34.787 7.2914-44.252zm189.33 2.0115c0.11004-6e-3 0.14832-6e-3 0.251 0 0.75465 0.0326 1.8852 0.5126 3.0171 1.0057 1.6356 1.2816 4.1758 4.7601 4.0229 15.337-0.0856 5.9554-1.0896 9.6999-2.2629 11.817-1.1814 2.1318-2.4887 2.8044-3.7714 3.2686-1.2368 0.4474-2.6669 0.38873-3.7715 0.25101-0.31864-0.0407-0.50525 0.049-0.75463 0 0.11892 0.0733-0.42378-0.19641-0.50282-0.25101-0.17766-0.12382-0.39037-0.24448-1.0057-0.75464-0.88878-0.73672-2.0049-1.7994-3.2686-3.2686-2.4271-2.8218-4.8753-7.0779-5.7829-12.32 1.3152-6.4889 4.7633-10.353 8.0458-12.571 1.7082-1.1544 3.3845-1.8685 4.5258-2.2629 0.43682-0.1524 0.86156-0.23389 1.2572-0.25102zm-69.143 4.0228c-0.21107 2.6897-0.81168 5.3478-0.75465 8.0458 0.17603 8.2668 0.58677 19.444 2.7658 31.429-0.2013-0.20129-0.30072-0.29746-0.50283-0.50282-2.2903-2.3263-4.324-4.7838-6.2858-7.2914-1.2781-1.7491-2.4201-3.217-3.2686-4.7772-1.2304-2.1964-2.6505-4.5922-2.7657-5.783-0.15077-1.561 0.73833-4.729 2.5143-8.2972 1.7824-3.582 4.361-7.718 7.04-11.314 0.49549-0.665 0.76524-0.87534 1.2572-1.5086zm-19.36 16.092h1.0056c-0.4629 1.9442-1.7024 3.7804-1.5086 5.7829 0.86295 8.9122 8.2587 16.955 14.834 23.634 4.5535 4.6252 8.7392 8.1206 11.063 10.057 1.5869 3.9669 4.0833 7.8898 6.5372 11.817l-90.766 1.0057c0.54193-1.4174 1.3267-2.8722 1.2571-4.2742-0.11325-2.1859-0.7416-3.918-1.5086-5.5315l-0.25182-0.50283v-0.251c0.99816-0.71145 2.732-0.8019 3.2686-1.76 0.68294-1.2192 0.43763-1.8678 0.50283-2.7657h0.25099l10.309-31.932 45.006-5.28zm-89.509 1.0057c0.10513 1.2836 0.42866 2.1052 0.50282 3.52-8e-3 0.10024 8e-3 0.15159 0 0.251-0.22004 1.8517-0.47512 2.9268-0.75465 4.5258-0.40177-1.2719-0.98388-1.237-1.2571-3.2686 1e-3 -0.0571 8e-3 -0.12717 0-0.251 0.19151-2.9408 0.9314-3.2209 1.5086-4.7772zm9.8058 4.2743 0.25101 26.652v1.5086l0.75465 1.0057v0.251c3e-3 4e-3 0.24692-8e-3 0.25099 0 0.17848 0.28768 2.0934 2.4604 5.0286 5.0286v2.2629c-0.502 0.63892-1.0488 1.2514-1.2571 1.76-0.56721 1.3908-0.75465 2.704-0.75465 4.2742 0 1.5703 0.18663 3.135 0.75465 4.5257l-20.366 0.25101v-14.331c1.6401-0.80435 3.3887-2.1298 5.2801-4.2743 4.1804-4.7402 8.0238-13.303 9.8057-28.412 0.0245-0.21759 0.22656-0.28197 0.25182-0.50282zm56.32 1.2571c-2.0209 0.049-4.0258 0.21923-5.783 0.50282-4.0958 0.66174-7.2914 1.76-7.2914 1.76l-1.0057 0.25101v0.251l-0.50282 0.50282c-1.6724 1.1717-3.6168 2.7087-5.28 5.28-1.8274 2.8254-3.2732 6.8602-2.5144 11.314 0.923 5.4171 3.3726 9.2455 6.0344 11.817 2.5349 2.4493 4.9717 3.8573 6.7886 5.28 0 0 0.17033 0.20536 0.25101 0.25101 0.33983 0.19314 1.2019 0.73589 1.2571 0.75464 0.0652 0.0245 0.13854-0.0326 0.25101 0 0.11325 0.0326 0.28115-0.049 0.50282 0 0.11081 0.0245 0.28523 0.22736 0.50282 0.25101 0.10913 0.0164 0.32109-1e-3 0.50283 0h0.251c0.11325-8e-3 0.1581 8e-3 0.25101 0 0.0571-8e-3 0.18744 0.0164 0.251 0 0.36103-0.0733 0.79212-0.24938 1.2571-0.50283 0.10514-0.0571 0.15892-0.18988 0.251-0.25101-4e-3 3e-3 0.43844-0.20048 0.50282-0.25181 0.20538-0.20211 0.64953-0.90085 0.25101-0.50283-0.0571 0.0571 0.28605-0.0164 0.50283-0.251 0.2347-0.25182 0.44414-0.3928 0.75464-0.75465 0.58758-0.68536 1.2646-1.7615 2.2629-3.0171 1.9624-2.4684 4.493-5.7846 6.7886-9.303 2.3001-3.5251 4.423-7.2169 5.5315-10.811 0.54765-1.7761 0.94045-3.6261 0.50283-5.7829-0.47268-2.3284-2.0519-4.631-4.5257-5.5315-2.4639-0.8966-5.1524-1.2424-7.5429-1.2571h-1.0057zm1.0056 9.3029c1.0943 8e-3 1.8798 0.0816 2.7658 0.25101-0.0326 0.14995 0.049 0.0814 0 0.251-0.61202 1.984-2.2136 5.3905-4.2743 8.5487-2.068 3.1694-4.4578 6.2494-6.2857 8.5486-0.14098 0.17764-0.11737 0.33575-0.251 0.50282-1.0133-0.72776-2.301-1.5708-3.0172-2.2629-1.5251-1.4735-2.6148-2.9513-3.2686-6.7886-0.30886-1.8139 0.31864-3.325 1.2571-4.7771 0.84217-1.302 1.9976-2.2117 2.7658-2.7657 0.40503-0.11815 2.1643-0.79458 5.0286-1.2572 1.6961-0.27381 3.5783-0.26241 5.2801-0.25182zm-36.206 45.509c-1.44 2.585-2.2825 4.3583-4.5257 7.7943-2.3514 3.6019-4.9132 7.0266-7.2914 9.5544-2.3603 2.5087-4.6447 3.7807-4.5257 3.7714-3.9012 0.30315-7.5142 0.0326-10.057-0.25101-1.2932-0.14424-2.3259-0.38873-3.0172-0.50282-0.0814-0.0164-0.17602 0.0162-0.251 0-0.17766-0.11081-4.616-4.8897-8.2972-8.8001l5.0286 2.2629v-2.0114c1.6529 0.0652 3.1962 0.32353 5.7829 0 5.5153-0.68945 9.2355-4.6858 12.069-7.7943 1.5179-1.6654 2.2011-2.6343 3.0172-3.7714l12.069-0.25181zm-25.394 0.25102c-1.1342 0.77012-2.466 2.194-3.0172 2.2629-3.0995 0.38791-4.8271 0.3708-5.7829 0.251-0.36917-0.35857-1.2233-1.6524-1.76-2.2629z" fill="#3a3a3a" stroke-width="8.1495"/>
</svg>
