<svg height="512" viewBox="0 0 512 512" width="512" xmlns="http://www.w3.org/2000/svg">
 <path d="m364.67998 110.35791l-51.45837 237.56923-2.10511 10.01873 9.90183-1.32545 22.06535-3.50852 4.71696-.35085 1.36448-4.83397 7.67971-34.46151 8.69341 30.60182 1.7542 6.08144 5.92551-.85764 22.96602-3.48045 8.18656-.85764-21.5963-70.44369 59.13783-63.97179-20.19414 3.46947-20.34882 3.46948h-2.10511l-1.71528 1.7542-25.06178 27.25734 28.52976-134.37806-36.33896-1.75894zm-174.09768 50.59761l-23.73946 3.86717-96.754196 236.82075 12.512179-2.5698 20.310147-3.46948 3.85944-.85764 1.32544-3.46948 15.5161-39.72461 30.25128-4.32724v31.10954l-.42882 8.18656 8.18656-1.2864 23.77938-3.89836 6.04252-.85764-.42882-6.04252-.42882-213.43058v-.0389zm96.40615 61.04895c-1.47451.0322-3.06841.12541-4.79504.2339-24.20228.86791-46.23768 15.53981-50.09363 32.82358-3.02525 13.82452.85684 23.31781 15.98266 40.19241 15.9814 16.8247 19.85606 24.17982 17.69918 34.11097-1.28952 6.45968-12.11498 14.67655-24.63764 16.41179-6.4845.84312-10.80364.84312-14.69651 0l-4.2882-1.2864-2.61196 3.46948-10.36964 12.51343-7.32892 8.65436 11.22728 2.57292c6.9185 1.72338 17.25134 1.7285 28.49733-.42882 25.04556-3.88078 54.89141-22.02668 60.07343-44.47999 4.76111-20.7555-3.91296-33.70928-22.06535-51.84758-14.24617-14.25864-13.38167-17.71914-12.51343-20.31014.43323-2.99544 6.04652-7.31146 13.79958-7.7578h.0389c6.88893.001 10.34444.4204 12.94256 1.28639l3.85944.85764 3.04072-3.04072 9.51824-9.94238 7.7578-8.18656-11.22728-3.04072c-4.91456-1.50795-9.48181-3.03249-19.80368-2.80682zm-129.22598 23.66461l-4.756 69.97589-19.88227 2.61197 24.63764-72.58811z" fill="#3a3a3a"/>
</svg>
