<svg height="512" viewBox="0 0 512 512" width="512" xmlns="http://www.w3.org/2000/svg">
 <g fill="#3a3a3a" transform="matrix(1.1682057 0 0 1.1682057 -1049.3819 -43.011957)">
  <path d="m970.4 228.35l-2.926 1.69c-4.089 2.342-6.603 6.187-6.957 10.663-.213 2.7 3.191 21.618 13.567 75.38 7.619 39.478 14.05 72.907 14.282 74.27.469 2.707 2.921 6.424 5.353 8.127 4.204 2.945.893 2.863 124.74 2.709l118.24-.152 2.947-1.669c3.899-2.233 6.248-5.804 7.152-10.836.407-2.27 6.836-35.659 14.282-74.18 10.143-52.49 13.456-70.94 13.242-73.64-.354-4.476-2.847-8.321-6.935-10.663l-2.947-1.69h-294zm57.45 37.25c.749-.047 1.517.163 2.774.607 1.523.539 3.407 1.871 4.204 2.947 1.428 1.929 1.461 2.577 1.647 44.19.204 45.66.195 45.69-3.467 48.09-4.257 2.789-9.579 1.413-11.811-3.056-1.114-2.23-1.214-5.811-1.214-44.04 0-46.906-.189-45.19 5.136-47.787 1.232-.602 1.982-.906 2.731-.954zm45.771 0c .749-.047 1.518.163 2.774.607 1.523.539 3.407 1.871 4.204 2.947 1.428 1.929 1.461 2.577 1.647 44.19.204 45.66.195 45.69-3.467 48.09-4.257 2.789-9.579 1.413-11.811-3.056-1.114-2.23-1.214-5.811-1.214-44.04 0-46.906-.189-45.19 5.136-47.787 1.232-.602 1.982-.906 2.731-.954zm42.997 0c .749-.047 1.518.163 2.774.607 1.523.539 3.407 1.871 4.204 2.947 1.428 1.929 1.461 2.577 1.647 44.19.204 45.66.195 45.69-3.467 48.09-4.257 2.789-9.579 1.413-11.811-3.056-1.114-2.23-1.214-5.811-1.214-44.04 0-46.906-.189-45.19 5.136-47.787 1.232-.602 1.982-.906 2.731-.954zm45.08 0c .749-.047 1.518.163 2.774.607 1.523.539 3.407 1.871 4.204 2.947 1.428 1.929 1.461 2.577 1.647 44.19.204 45.66.195 45.69-3.467 48.09-4.257 2.789-9.579 1.413-11.811-3.056-1.114-2.23-1.214-5.811-1.214-44.04 0-46.906-.189-45.19 5.136-47.787 1.232-.602 1.982-.906 2.731-.954zm45.08 0c .749-.047 1.518.163 2.774.607 1.523.539 3.407 1.871 4.204 2.947 1.428 1.929 1.461 2.577 1.647 44.19.204 45.66.195 45.69-3.467 48.09-4.257 2.789-9.579 1.413-11.811-3.056-1.114-2.23-1.214-5.811-1.214-44.04 0-46.906-.189-45.19 5.136-47.787 1.232-.602 1.982-.906 2.731-.954z"/>
  <path d="m1011.3 219.07c.212-.344 2.577-14.294 5.255-30.999 3.734-23.296 5.26-31.23 6.547-34.04 2.183-4.77 7.696-10.227 12.697-12.571 3.922-1.838 4.211-1.867 20.742-2.082l16.764-.218 1.184 2.496c1.476 3.111 5.114 6.166 8.578 7.204 3.688 1.105 65.77 1.105 69.46 0 3.464-1.038 7.102-4.093 8.578-7.205l1.185-2.496 16.417.218 16.417.218 4.152 2.039c5.216 2.561 10.343 7.637 12.522 12.396 1.287 2.812 2.813 10.745 6.547 34.04 2.678 16.706 5.04 30.655 5.255 30.999.648 1.048 14.851.783 15.261-.285.558-1.453-9.265-62.05-10.905-67.28-3.16-10.07-10.963-18.939-21.04-23.921-7.05-3.482-8.746-3.747-27.02-4.202l-17.313-.431-.693-2.42c-.935-3.267-5.624-7.811-9.146-8.863-4.059-1.213-65.824-1.213-69.883 0-3.522 1.052-8.211 5.596-9.146 8.863l-.693 2.42-15.926.445c-8.759.245-17.948.818-20.419 1.273-13.818 2.546-26.696 14.757-30.445 28.866-1.247 4.695-10.552 64.3-10.186 65.25.41 1.068 14.613 1.333 15.261.285z"/>
  <path d="m1117.8 112.84c-33.536 0-33.643.018-36.34 1.563-3.186 1.822-4.988 4.047-6.281 7.813l-.938 2.75-1.75.031v12.09h1.688l1.188 2.156c2.072 3.768 3.656 5.472 6.406 6.875 2.558 1.305 4.214 1.375 36.03 1.375 31.818 0 33.473-.07 36.03-1.375 2.75-1.403 4.335-3.107 6.406-6.875l1.188-2.156h1v-12.09l-1.063-.031-.938-2.75c-1.293-3.766-3.095-5.99-6.281-7.813-2.701-1.544-2.807-1.563-36.34-1.563z" fill-rule="evenodd"/>
 </g>
</svg>
