<svg height="512" viewBox="0 0 512 512" width="512" xmlns="http://www.w3.org/2000/svg">
 <path d="m133.48238 154.70241v72h73.78v-72zm84.72 0v72h73.75v-72zm84.34 0v72h73.75v-72zm39.844 10.344c8.629 0 15.14 2.678 20.03 7.875l-5.625 5.344c-3.3-4.083-7.68-6.375-14.406-6.375-12.817 0-18.16 8.453-18.16 19.09 0 10.393 5.118 18.531 18.13 18.531 6.726 0 11.11-2.23 14.469-6.375l5.531 5.281c-4.886 5.258-11.434 7.938-20 7.938-17.13 0-25.969-10.28-25.969-25.375 0-15.16 9.185-25.938 26-25.938m-189.69.625h20.06c9.09 0 13.469 6.451 13.469 13.812 0 4.392-1.355 7.555-4.438 9.906v.156c4.076 1.794 6.281 6.182 6.281 11.688 0 8.97-5.292 14.562-14.906 14.562h-20.469v-50.12m84.72.001h20.03c9.09 0 13.5 6.451 13.5 13.812 0 4.392-1.355 7.555-4.438 9.906v.156c4.076 1.794 6.281 6.182 6.281 11.688 0 8.97-5.292 14.562-14.906 14.562h-20.469v-50.12m-79.09 6.844l.625.75v12.562l-.625.719h13.906c5.696 0 7.563-3.166 7.563-7.125 0-4.578-2.389-6.906-7.563-6.906zm84.72 0l .656.75v12.562l-.656.719h13.875c5.696 0 7.594-3.166 7.594-7.125 0-4.578-2.421-6.906-7.594-6.906zm-84.72 20.906l.625.719v14l-.625.75h14.844c6.27 0 8.469-2.769 8.469-7.656 0-4.764-2.46-7.813-8.469-7.813zm84.72 0l .656.719v14l-.656.75h14.844c6.27 0 8.469-2.769 8.469-7.656 0-4.764-2.46-7.813-8.469-7.813zm155.66 68.875c-8.887 0-16.239 2.108-21.844 6.406-5.574 4.309-8.438 10.304-8.438 17.562 0 6.683 1.898 12.311 5.719 16.656 3.825 4.308 10.02 7.898 18.531 10.938 5.873 2.092 10.232 3.943 13 5.531v.031c2.818 1.594 4.734 3.252 5.813 4.906 1.072 1.645 1.656 3.819 1.656 6.594 0 4.12-1.485 7.103-4.625 9.438-3.101 2.306-7.915 3.594-14.531 3.594-3.867 0-8.08-.458-12.594-1.375-4.473-.916-8.586-2.167-12.344-3.75l-1.813-.781v13.501l.75.344c6.15 2.928 14.638 4.313 25.5 4.313 10.361 0 18.623-2.251 24.625-6.938 5.994-4.681 9.06-11.256 9.06-19.312 0-4.297-.842-8.07-2.531-11.25-1.683-3.211-4.27-6.01-7.719-8.375-3.472-2.424-8.576-4.798-15.375-7.25-5.582-2.01-9.649-3.815-12.156-5.313-2.473-1.5-4.222-3.076-5.281-4.75-.005-.008.005-.024 0-.031-1-1.694-1.531-3.863-1.531-6.594 0-3.77 1.283-6.458 4-8.5 2.766-2.05 6.684-3.156 11.875-3.156 6.492 0 13.567 1.546 21.22 4.656l1.219.5.469-1.25 3.563-9.625.406-1.156-1.125-.469c-7.781-3.397-16.286-5.094-25.5-5.094zm-310.84 1.281v91.41h13.155v-50.937c0-5.467-.252-11.888-.75-19.281l-.063-.875 46.44 70.53.375.563h14.03v-1.281h1.313v-90.12h-13.28v51.41c0 2.714.127 7.06.375 13.06.153 3.674.222 4.651.313 6.438l-13.719-20.938-29.781-45.06v-.031l-2.781-4.281-.375-.594h-15.25m96.5 0v91.41h51.968v-1.281h1.313v-11.156h-39.25v-29.09h36.968v-12.344h-36.968v-25.09h39.25v-12.437h-53.28m59.5 0l .469 1.625 24 88.84.25.938h13.5l.281-.906 17.13-57.844c1.391-4.542 2.366-8.418 3.156-11.969.79 3.093 1.844 6.811 3.281 11.594l17.656 58.22.281.906h12.5v-1.281l1.281.344 24.09-88.84.469-1.625h-14.625l-.25.969-14.03 54.13c-1.435 5.417-2.419 10.03-3.219 14.281-1.01-4.866-2.166-9.714-3.625-14.469l-16.688-54-.281-.906h-13.719l-.281.906-16 53.594c-1.521 5.19-2.642 10.02-3.563 14.688-.862-4.648-1.838-9.288-3.094-13.969l-14.09-54.25-.25-.969h-14.625" fill="#3a3a3a"/>
</svg>
