<svg width="512" height="512" version="1.1" viewBox="0 0 512 512" xmlns="http://www.w3.org/2000/svg">
 <g transform="matrix(1.6276 0 0 1.6276 -153.38 -105.61)" fill="#3a3a3a">
  <g transform="matrix(7.0955 0 0 7.0955 92.139 53.645)">
   <path d="m14.787 7.5859a8.0046 8.0046 0 0 0-7.7832 7.6484 8.0046 8.0046 0 0 0 7.6289 8.3496 8.0046 8.0046 0 0 0 3.3672-0.58398 8.0046 8.0046 0 0 1-4.9961-7.7656 8.0046 8.0046 0 0 1 4.9961-7.0566 8.0046 8.0046 0 0 0-2.6602-0.58594 8.0046 8.0046 0 0 0-0.55273-0.005859z"/>
   <path d="m27 10-1.191 0.58778-0.19098 1.3143-0.92705-0.95106-1.309 0.22451 0.61803-1.1756-0.61803-1.1756 1.309 0.22451 0.92705-0.95106 0.19098 1.3143z"/>
   <path d="m33.191 15.412-1.191 0.58778-0.19098 1.3143-0.92705-0.95106-1.309 0.22451 0.61803-1.1756-0.61803-1.1756 1.309 0.22451 0.92705-0.95106 0.19098 1.3143z"/>
   <path d="m39.191 9.4122-1.191 0.58779-0.19098 1.3143-0.92705-0.95106-1.309 0.22451 0.61803-1.1756-0.61803-1.1756 1.309 0.22451 0.92705-0.95106 0.19098 1.3143z"/>
   <path d="m39 18-1.191 0.58778-0.19098 1.3143-0.92705-0.95106-1.309 0.22451 0.61803-1.1756-0.61803-1.1756 1.309 0.22451 0.92705-0.95106 0.19098 1.3143z"/>
  </g>
  <path class="ColorScheme-Text" d="m282.64 244.98c-15.724 0-28.382 12.925-28.382 28.826v13.748h-7.0955c-3.9309 0-7.0955 3.1646-7.0955 7.0955v42.573c0 3.9309 3.1646 7.0955 7.0955 7.0955h70.955c3.9309 0 7.0955-3.1646 7.0955-7.0955v-42.573c0-3.9309-3.1646-7.0955-7.0955-7.0955h-7.0955v-13.748c0-15.894-12.658-28.826-28.382-28.826zm0 14.191c7.8618 0 14.191 6.3292 14.191 14.191v14.191h-28.382v-14.191c0-7.8618 6.3292-14.191 14.191-14.191z" stroke-width="7.0955"/>
 </g>
</svg>
