<svg width="512" height="512" version="1.1" viewBox="0 0 512 512" xmlns="http://www.w3.org/2000/svg">
 <g transform="matrix(13.655 0 0 13.655 -58.763 -76.826)" fill="#3a3a3a">
  <ellipse transform="scale(-1,1)" cx="-16" cy="24" rx="5" ry="1.8"/>
  <path d="m15 21.8v4.399l2.113-0.199h8.486v-4h-8.486z"/>
  <path d="m24.857 18.663-6.746 2.69s-2.894-4.32-2.188-5.206c0.706-0.885 8.934 2.515 8.934 2.515z"/>
  <path d="m24.07 19.03-5.959 2.325s-2.894-4.32-2.188-5.206c0.537-0.661 8.147 2.881 8.147 2.881z"/>
  <path d="m25.574 18c-5.13 0.34-9.302 2.794-9.549 3.896l1.088 0.127c3.608 0.114 5.814 0.794 5.814 2.213 0 0.685-0.479 0.924-1.322 1.305-1.054 0.331-12.827 4.09-11.502 6.459 1.946-0.179 15.286-3.801 21.352-5.467 3.863-0.711 6.545-2.271 6.545-4.082 0-0.152-0.02-0.303-0.057-0.451-7.943-2-7.943-2-12.369-4"/>
  <path d="m26.752 17.958c-0.402 0-0.794 0.026-1.179 0.042 0.04 2.515 3.407 4 12.371 4-0.48-2.367-5.271-4.04-11.192-4.04z"/>
  <path d="m29.18 24.344c-2.422-0.011-5.223 0.31-7.445 1.134-0.043 0.021-0.083 0.043-0.129 0.063-1.054 0.331-12.826 4.09-11.501 6.459 1.946-0.179 15.285-3.802 21.351-5.467 1.176-0.217 2.241-0.513 3.156-0.87 0.169-0.743-2.318-1.305-5.431-1.319z"/>
  <path d="m15 21.8 2.114 0.2v4l-2.114 0.2"/>
 </g>
</svg>
