<svg width="512" height="512" version="1.1" viewBox="0 0 512 512" xmlns="http://www.w3.org/2000/svg">
 <g transform="matrix(12.755 0 0 12.755 -78.084 -63.383)" fill="#3a3a3a">
  <g fill="#3a3a3a">
   <g fill="#3a3a3a">
    <path d="m12 13v17l9 6v-18m-7-5 8 5h4l8-5c-4 0-6 0.52-10 4-4-3.395-6-4-10-4m22 0-9 5v6.563c0.234-0.402 0.527-0.777 0.875-1.125 2.18-2.176 5.695-2.176 7.875 0 0.086 0.086 0.172 0.164 0.25 0.25m-14-4.688v18h4v-18m1 11.188v5.813l4.594-3.063c-1.352-0.051-2.688-0.59-3.719-1.625-0.348-0.344-0.641-0.723-0.875-1.125"/>
    <path d="m36.902 33.426 1.063-1.063 2.344 2.344-1.063 1.063"/>
    <path d="m34.652 30.859 0.746-0.746 2.344 2.344-0.746 0.746"/>
    <path d="m28.696 24.16c-1.77 1.767-1.77 4.649 0 6.416 1.767 1.771 4.649 1.77 6.416 0 1.77-1.767 1.77-4.648 0-6.415-1.767-1.77-4.648-1.77-6.415 0zm0.669 0.669c1.405-1.408 3.671-1.408 5.076 0l0.335-0.335-0.334 0.336c1.408 1.405 1.409 3.671 0 5.076-1.405 1.408-3.671 1.408-5.076 0-1.408-1.405-1.409-3.671 0-5.076z" solid-color="#000000" style="isolation:auto;mix-blend-mode:normal;white-space:normal" isolation="auto" mix-blend-mode="normal"/>
   </g>
  </g>
 </g>
</svg>
