<svg height="512" viewBox="0 0 512 512" width="512" xmlns="http://www.w3.org/2000/svg">
 <path d="m381.5551 136.35739l-42.626-8.1925c6.9971 7.7578 11.493 16.147 14.865 27.354 5.3376 17.739 5.1 39.97-.18747 64.633-6.8633 30.325-20.269 60.7-52.686 117.82-4.3525-18.552-7.2882-31.095-8.6226-35.53l-14.664-56.843c-5.0043-19.357-10.949-43.212-17.682-71.04-2.3355-10.487-4.6736-20.898-7.4184-31.383l-20.952 9.4088c-9.3642 31.55-49.236 135.88-67.558 177.17-5.3241-32.681-16.069-121.38-20.804-169.82 7.7454-2.8691 11.801-5.7463 17.394-13.046-14.818.23206-24.829.4185-34.985.60559l14.367 234.22 23.325-7.9285c34.445-85.8 43.761-109.21 69.265-178.41 13.739 48.385 39.592 149.13 46.948 185.83l23.639-8.5631c7.607-21.041 10.386-27.986 26.996-59.979 47.883-91.426 61.635-137.49 51.388-176.31z" fill="#3a3a3a"/>
</svg>
