<svg height="512" viewBox="0 0 512 512" width="512" xmlns="http://www.w3.org/2000/svg">
 <path d="m327.6 131.04c-6.619.405-15.835 2.701-32.877 6.836-44.47 10.788-58.27 10.982-95.7 1.953-27.345-6.597-28.703-6.509-37.11.651-10.869 9.259-10.908 24.974-.651 49.48 4.311 10.299 11.908 34.462 16.927 54.04 10.913 42.558 24.98 67.05 43.944 75.844 33.966 19.551 53.789-1.16 64.45-10.416 13.04-12.918 20.941-26.532 31.575-55.01 14.826-39.705 20.715-52.39 35.806-76.5 11.151-17.81 7.128-33.526-10.742-42.968-5.249-2.773-9.01-4.31-15.625-3.906m-37.434 60.55c8.201-.396 15.479 6.711 18.229 20.507 3.756 18.844-4.193 34.504-17.252 34.504-5.895 0-14.21-3.742-18.88-8.138-10.399-9.789-10.775-17.13-1.302-32.23 5.945-9.473 12.827-14.34 19.21-14.648m-83.01 7.487c10.429.548 20.417 18.703 15.95 30.598-5.323 14.176-12.885 15.14-21.16 3.255-8.596-12.349-6.903-31.773 2.93-33.528.696-.122 1.583-.366 2.279-.326m-55.34 67.38v114.58h187.5v-93.75c-72.915 83.33-135.41 83.33-187.5-20.833m96.68 0c14.382 0 25.715 11.659 25.715 26.04 0 14.382-11.333 26.04-25.715 26.04s-29.622-21.424-29.622-35.806 15.24-16.276 29.622-16.276" fill="none"/>
 <path d="m327.6 131.04c-6.619.405-15.835 2.701-32.877 6.836-44.47 10.788-58.27 10.982-95.7 1.953-27.345-6.597-28.703-6.509-37.11.651-10.869 9.259-10.908 24.974-.651 49.48 4.311 10.299 11.908 34.462 16.927 54.04 10.913 42.558 24.98 67.05 43.944 75.844 33.966 19.551 53.789-1.16 64.45-10.416 13.04-12.918 20.941-26.532 31.575-55.01 14.826-39.705 20.715-52.39 35.806-76.5 11.151-17.81 7.128-33.526-10.742-42.968-5.249-2.773-9.01-4.31-15.625-3.906m-37.434 60.55c8.201-.396 15.479 6.711 18.229 20.507 3.756 18.844-4.193 34.504-17.252 34.504-5.895 0-14.21-3.742-18.88-8.138-10.399-9.789-10.775-17.13-1.302-32.23 5.945-9.473 12.827-14.34 19.21-14.648m-83.01 7.487c10.429.548 20.417 18.703 15.95 30.598-5.323 14.176-12.885 15.14-21.16 3.255-8.596-12.349-6.903-31.773 2.93-33.528.696-.122 1.583-.366 2.279-.326m-55.34 67.38v114.58h187.5v-93.75c-72.915 83.33-135.41 83.33-187.5-20.833m96.68 0c14.382 0 25.715 11.659 25.715 26.04 0 14.382-11.333 26.04-25.715 26.04s-29.622-21.424-29.622-35.806 15.24-16.276 29.622-16.276" fill="#3a3a3a"/>
</svg>
