<svg height="512" viewBox="0 0 512 512" width="512" xmlns="http://www.w3.org/2000/svg">
 <path d="m303.62637 84.262391l164.36295 54.006429-50.31386 28.84758c5.03381 14.16395 7.71884 29.05902 7.71884 44.95016 0 74.72247-60.45153 135.51282-135.18164 135.51282-14.61868 0-28.74059-2.7551-41.92886-7.04377 54.22551-17.63615 93.58141-68.36398 93.58141-128.46905 0-.38977.003-.61394 0-1.00371l-73.45637 42.26258 35.21881-169.063039m-81.85031 80.167699c14.61868 0 28.74059 2.75509 41.92886 7.04503-54.22551 17.63743-93.58141 68.36399-93.58141 128.46906 0 .38976-.003.61394 0 1.0037l73.45892-42.26257-35.22008 169.0503-164.362952-54.00643 50.313863-28.8463c-5.033807-14.16395-7.718843-29.05903-7.718843-44.95016 0-74.7212 60.451532-135.51282 135.181642-135.51282" fill="#3a3a3a"/>
</svg>
