<?xml version="1.0" encoding="UTF-8" standalone="no"?>
<svg xmlns="http://www.w3.org/2000/svg" height="512" viewBox="0 0 512 512" width="512" version="1.1">
 <path fill="#3a3a3a" d="m188.4 106.93a79.215 79.215 0 0 0 -81.519 79.182 79.215 79.215 0 0 0 56.132 75.622c15.525-14.758 35.991-24.22 57.786-24.2 6.01-0.209 12.01 0.341 17.944 1.33-0.51-2.773-0.918-5.579-1.115-8.414-2.702-24.954 7.234-49.5 24.13-67.46a79.215 79.215 0 0 0 -73.356 -56.06m139.81 37.254a79.215 79.215 0 0 0 -81.519 79.182 79.218 79.218 0 0 0 158.44 0 79.215 79.215 0 0 0 -76.916 -79.182m-102.52 102.52a79.215 79.215 0 0 0 -81.519 79.182 79.218 79.218 0 0 0 158.44 0 79.215 79.215 0 0 0 -2.0137 -17.512c-27.786-8.606-50.89-31.751-59.51-59.656a79.215 79.215 0 0 0 -15.39 -2.0137" color="#000000"/>
</svg>
