<svg width="512" height="512" version="1.1" viewBox="0 0 512 512" xmlns="http://www.w3.org/2000/svg">
 <g transform="matrix(1.1261 0 0 1.1261 -31.257 -33.691)" fill="#3a3a3a" stroke-width="10.546">
  <path d="m95.644 256c0 87.361 70.825 158.19 158.19 158.19 5.2729-6.5911 5.2729-13.625 0-21.092-75.719 0-137.09-61.376-137.09-137.09z"/>
  <path d="m253.83 97.814a158.19 158.19 0 0 0-158.19 158.19h21.092a137.09 137.09 0 0 1 137.09-137.09 137.09 137.09 0 0 1 137.09 137.09 137.09 137.09 0 0 1-137.09 137.09v21.092a158.19 158.19 0 0 0 158.19-158.19 158.19 158.19 0 0 0-158.19-158.19z"/>
  <path d="m101.54 211.52a158.19 158.19 0 0 0-5.8951 42.183 158.19 158.19 0 0 0 9.6599 54.1l64.16-96.283h-67.925"/>
 </g>
</svg>
