<svg height="512" viewBox="0 0 512 512" width="512" xmlns="http://www.w3.org/2000/svg">
 <path d="m225.06 171.41v17.312h60.625v-17.312zm135.97 0v17.312h60.562v-17.312zm-135.97 25.312v17.312h60.625v-17.312zm135.97 0v17.312h60.562v-17.312zm-270.66 25.312v17.312h60.594v-17.312zm134.69 0v17.312h60.625v-17.312zm67.375 0v17.312h60.562v-17.312zm68.594 0v17.312h60.562v-17.312zm-270.66 25.312v17.312h60.594v-17.312zm134.69 0v17.312h60.625v-17.312zm67.375 0v17.312h60.562v-17.312zm68.594 0v17.312h60.562v-17.312zm-270.66 25.312v17.312h60.594v-17.312zm67.375 0v17.312h60.562v-17.312zm67.312 0v17.312h60.625v-17.312zm67.375 0v17.312h60.562v-17.312zm68.594 0v17.312h60.562v-17.312zm-270.66 25.312v17.312h60.594v-17.312zm67.375 0v17.312h60.562v-17.312zm67.312 0v17.312h60.625v-17.312zm67.375 0v17.312h60.562v-17.312zm68.594 0v17.312h60.562v-17.312zm-270.66 25.312v17.312h60.594v-17.312zm67.375 0v17.312h60.562v-17.312zm67.312 0v17.312h60.625v-17.312zm67.375 0v17.312h60.562v-17.312zm68.594 0v17.312h60.562v-17.312z" fill="#3a3a3a" fill-rule="evenodd"/>
</svg>
