<?xml version="1.0" encoding="UTF-8"?>
<svg width="512" height="512" version="1.1" viewBox="0 0 512 512" xmlns="http://www.w3.org/2000/svg" xmlns:cc="http://creativecommons.org/ns#" xmlns:dc="http://purl.org/dc/elements/1.1/" xmlns:rdf="http://www.w3.org/1999/02/22-rdf-syntax-ns#">
 <style/>
 <metadata>
  <rdf:RDF>
   <cc:Work rdf:about="">
    <dc:format>image/svg+xml</dc:format>
    <dc:type rdf:resource="http://purl.org/dc/dcmitype/StillImage"/>
    <dc:title/>
   </cc:Work>
  </rdf:RDF>
 </metadata>
 <path d="m225.29 59.434c-10.451 0-8.6602 6.9331-8.6602 6.9331v142.54h-45.647c-13.371 0-1.0478 11.631-1.0478 11.631l81.024 97.917s6.6222 7.7797 13.555 0.82043c9.6204-9.5917 78.555-101.12 78.555-101.12s12.232-12.197-3.9898-12.197h-42.171v-140.67s0.17637-5.858-7.3577-5.858h-64.262m-113 279.04c-23.5 0-41.799 19.041-41.799 42.534v6.3387c0 23.5 18.303 41.831 41.799 41.831h287.67c23.5 0 41.831-18.329 41.831-41.831v-6.3387c0-23.489-18.329-42.534-41.831-42.534zm267.15 16.215c16 0 29.12 13.116 29.12 29.12 0 16-13.116 29.12-29.12 29.12-16 0-29.064-13.116-29.064-29.12 0-16 13.063-29.12 29.064-29.12" fill="#3a3a3a" stroke-width="1.3064"/>
</svg>
