<svg height="512" viewBox="0 0 512 512" width="512" xmlns="http://www.w3.org/2000/svg">
 <g fill="#3a3a3a" transform="matrix(9.0951834 0 0 9.0951834 37.715598 37.715598)">
  <path d="m38 12c-6.629 0-12 5.371-12 12 0 6.629 5.371 12 12 12 2.518 0 4.842-.784 6.768-2.105 1.431-2.997 2.232-6.352 2.232-9.895 0 4.973-4.03 9-9 9-4.973 0-9-4.03-9-9 0-4.973 4.03-9 9-9 4.973 0 9 4.03 9 9 0-3.543-.802-6.897-2.232-9.895-1.925-1.322-4.25-2.105-6.768-2.105z"/>
  <path d="m10 12c-2.518 0-4.842.784-6.768 2.105-1.431 2.997-2.232 6.352-2.232 9.895 0 3.543.802 6.897 2.232 9.895 1.925 1.322 4.25 2.105 6.768 2.105 6.629 0 12-5.371 12-12 0-6.629-5.371-12-12-12zm .063 2.906c5 0 9.03 4.03 9.03 9.03 0 4.996-4.03 9.06-9.03 9.06-5 0-9.06-4.064-9.06-9.06 0-5 4.062-9.03 9.06-9.03z"/>
 </g>
</svg>
