<?xml version="1.0" encoding="UTF-8" standalone="no"?>
<svg
   width="512"
   height="512"
   version="1.1"
   viewBox="0 0 512 512"
   id="svg20"
   sodipodi:docname="element.svg"
   inkscape:version="1.1 (c4e8f9ed74, 2021-05-24)"
   xmlns:inkscape="http://www.inkscape.org/namespaces/inkscape"
   xmlns:sodipodi="http://sodipodi.sourceforge.net/DTD/sodipodi-0.dtd"
   xmlns="http://www.w3.org/2000/svg"
   xmlns:svg="http://www.w3.org/2000/svg">
  <defs
     id="defs24" />
  <sodipodi:namedview
     id="namedview22"
     pagecolor="#ffffff"
     bordercolor="#666666"
     borderopacity="1.0"
     inkscape:pageshadow="2"
     inkscape:pageopacity="0.0"
     inkscape:pagecheckerboard="0"
     showgrid="false"
     inkscape:zoom="1.3300781"
     inkscape:cx="303.74156"
     inkscape:cy="237.95595"
     inkscape:window-width="1920"
     inkscape:window-height="1021"
     inkscape:window-x="0"
     inkscape:window-y="0"
     inkscape:window-maximized="1"
     inkscape:current-layer="svg20" />
  <g
     id="g1604"
     transform="translate(-2.6043075,13.994583)" />
  <path
     d="m 237.3815,55.658777 a 25.587067,25.587067 0 1 0 0,51.169033 c 0,0 4.73531,-0.24562 15.89054,3.47283 11.1551,3.71833 26.60149,11.23519 42.77474,27.40869 16.17325,16.17324 23.68997,31.61861 27.40868,42.77474 3.71833,11.15509 3.47284,15.89054 3.47284,15.89054 a 25.587067,25.587067 0 1 0 51.16902,0 c 0,0 -0.24561,-14.45269 -6.12135,-32.08042 -5.87586,-17.62773 -17.54713,-40.55784 -39.75065,-62.76136 -22.20351,-22.203527 -45.13491,-33.875174 -62.76136,-39.750657 -17.62773,-5.875866 -32.08041,-6.12135 -32.08041,-6.12135 z m -25.58451,63.961283 c 0,0 -14.45269,0.2456 -32.08042,6.12135 -17.62773,5.87586 -40.55784,17.54713 -62.76136,39.75064 -22.203513,22.20353 -33.875164,45.13492 -39.750656,62.76136 -5.875862,17.62773 -6.121349,32.08043 -6.121349,32.08043 a 25.587067,25.587067 0 1 0 51.169025,0 c 0,0 -0.24562,-4.73531 3.47284,-15.89054 3.71833,-11.15511 11.23519,-26.6015 27.40869,-42.77475 16.17324,-16.17325 31.61861,-23.68998 42.77473,-27.40868 11.1551,-3.71833 15.89054,-3.47284 15.89054,-3.47284 a 25.587067,25.587067 0 1 0 0,-51.16902 z m 191.51284,89.19655 a 25.587067,25.587067 0 0 0 -25.2097,25.93373 c 0,0 0.24562,4.73531 -3.47284,15.89054 -3.71832,11.15511 -11.23518,26.6015 -27.40868,42.77475 -16.17324,16.17325 -31.61861,23.68998 -42.77474,27.40868 -11.1551,3.71833 -15.89054,3.47284 -15.89054,3.47284 a 25.587067,25.587067 0 1 0 0,51.16902 c 0,0 14.45269,-0.24561 32.08042,-6.12135 17.62773,-5.87586 40.55784,-17.54713 62.76136,-39.75064 22.20351,-22.20353 33.87516,-45.13493 39.75065,-62.76136 5.87587,-17.62774 6.12135,-32.08043 6.12135,-32.08043 a 25.587067,25.587067 0 0 0 -25.95933,-25.93373 z m -255.8451,63.96127 a 25.587067,25.587067 0 0 0 -25.20968,25.93374 c 0,0 0.2456,14.45269 6.12135,32.08042 5.87586,17.62773 17.54713,40.55784 39.75064,62.76136 22.20352,22.20351 45.13491,33.87516 62.76136,39.75065 17.62773,5.87587 32.08042,6.12135 32.08042,6.12135 a 25.587067,25.587067 0 1 0 0,-51.16903 c 0,0 -4.73531,0.24562 -15.89054,-3.47283 -11.1551,-3.71833 -26.60149,-11.23519 -42.77474,-27.40869 -16.17325,-16.17324 -23.68998,-31.61861 -27.40868,-42.77474 -3.71833,-11.15509 -3.47284,-15.89054 -3.47284,-15.89054 a 25.587067,25.587067 0 0 0 -25.95933,-25.93373 z"
     style="fill:#3a3a3a;fill-opacity:1;stroke-width:12.7923"
     id="path21" />
</svg>
