<?xml version="1.0" encoding="UTF-8" standalone="no"?>
<svg
   xmlns:dc="http://purl.org/dc/elements/1.1/"
   xmlns:cc="http://creativecommons.org/ns#"
   xmlns:rdf="http://www.w3.org/1999/02/22-rdf-syntax-ns#"
   xmlns:svg="http://www.w3.org/2000/svg"
   xmlns="http://www.w3.org/2000/svg"
   xmlns:sodipodi="http://sodipodi.sourceforge.net/DTD/sodipodi-0.dtd"
   xmlns:inkscape="http://www.inkscape.org/namespaces/inkscape"
   height="512"
   viewBox="0 0 512 512"
   width="512"
   version="1.1"
   id="svg861"
   sodipodi:docname="fingerprint-gui.svg"
   inkscape:version="0.92.2 2405546, 2018-03-11">
  <metadata
     id="metadata867">
    <rdf:RDF>
      <cc:Work
         rdf:about="">
        <dc:format>image/svg+xml</dc:format>
        <dc:type
           rdf:resource="http://purl.org/dc/dcmitype/StillImage" />
        <dc:title></dc:title>
      </cc:Work>
    </rdf:RDF>
  </metadata>
  <defs
     id="defs865" />
  <sodipodi:namedview
     pagecolor="#ffffff"
     bordercolor="#666666"
     borderopacity="1"
     objecttolerance="10"
     gridtolerance="10"
     guidetolerance="10"
     inkscape:pageopacity="0"
     inkscape:pageshadow="2"
     inkscape:window-width="1920"
     inkscape:window-height="1021"
     id="namedview863"
     showgrid="false"
     inkscape:zoom="1"
     inkscape:cx="306.57304"
     inkscape:cy="221.7682"
     inkscape:window-x="0"
     inkscape:window-y="0"
     inkscape:window-maximized="1"
     inkscape:current-layer="svg861" />
  <path
     inkscape:connector-curvature="0"
     d="m 249.55423,38.190949 c -38.79427,0 -76.82817,14.284911 -105.8756,38.490813 -29.04741,24.205898 -49.301481,59.212108 -49.301481,99.444368 a 17.243621,17.243621 0 1 0 34.483801,0 c 0,-28.73708 14.23025,-54.07577 36.90801,-72.97461 22.67774,-18.89884 53.61195,-30.47678 83.78527,-30.47678 31.64233,0 62.56222,8.130762 84.49218,24.583498 21.92998,16.452392 36.2011,40.358112 36.2011,78.867892 0,17.24189 0.98797,42.60991 22.29377,63.91571 a 17.243621,17.243621 0 1 0 24.38177,-24.38178 c -13.17798,-13.17797 -12.19055,-22.29377 -12.19055,-39.53565 0,-47.698 -20.1937,-84.14047 -49.97391,-106.482511 C 324.97839,47.299842 286.94104,38.189224 249.55545,38.189224 Z m 0,68.967591 c -52.29985,0 -86.20949,43.10474 -86.20949,86.20948 0,11.49466 -4.62135,18.27987 -13.87438,24.44901 -9.25286,6.16864 -23.48346,10.0353 -37.85113,10.0353 a 17.243621,17.243621 0 1 0 0,34.48379 c 20.11611,0 40.36845,-4.75427 56.9793,-15.82754 16.60997,-11.07326 29.23018,-30.1509 29.23018,-53.13952 0,-25.86284 17.81605,-51.72569 51.7257,-51.72569 33.90962,0 51.72569,25.86285 51.72569,51.72569 0,37.35801 9.29717,67.00718 24.98695,87.92677 15.69014,20.9196 38.23218,32.7665 61.22253,32.7665 a 17.243621,17.243621 0 1 0 0,-34.48379 c -11.49467,0 -23.43519,-5.39567 -33.60791,-18.95919 -10.17272,-13.56369 -18.11778,-35.64072 -18.11778,-67.25029 0,-43.10475 -33.90965,-86.20949 -86.20948,-86.20949 z m -0.74141,69.23656 a 17.243621,17.243621 0 0 0 -16.501,16.97258 c 0,38.50633 -14.52233,62.89671 -34.61828,79.34031 -20.09543,16.4424 -46.80141,24.11107 -68.83311,24.11107 a 17.243621,17.243621 0 1 0 0,34.48379 c 29.694,0 63.33638,-9.57252 90.65445,-31.92509 10.11703,-8.27749 17.63157,-20.31097 25.08869,-32.22684 9.55167,28.28879 23.50243,51.82053 39.70292,69.37107 28.60258,30.98712 60.07766,46.50656 85.9405,46.50656 a 17.243621,17.243621 0 1 0 0,-34.48379 c -8.62095,0 -37.49251,-10.34324 -60.61562,-35.39245 -23.1231,-25.04904 -42.83576,-63.54329 -42.83576,-119.78463 a 17.243621,17.243621 0 0 0 -17.9833,-16.97258 z m -16.7705,154.9081 a 17.243621,17.243621 0 0 0 -11.92121,5.05135 c -13.17799,13.178 -45.2824,29.43193 -74.01947,29.43193 a 17.243621,17.243621 0 1 0 0,34.48379 c 32.8303,0 61.18805,-13.28746 82.90939,-29.33192 14.0742,17.2988 35.36313,46.71003 84.05424,62.93983 a 17.252242,17.252242 0 1 0 10.91085,-32.73203 c -46.2738,-15.42442 -58.169,-43.48578 -79.4748,-64.7916 a 17.243621,17.243621 0 0 0 -12.46004,-5.05135 z m -27.07496,79.30584 c -10.53237,0.68966 -21.41614,3.38337 -32.09233,8.72197 a 17.24419,17.24419 0 1 0 15.4234,30.84748 c 13.12953,-6.56467 25.3611,-6.52261 37.10973,-3.16544 11.75019,3.35717 22.60758,10.5855 29.19743,17.17448 a 17.243621,17.243621 0 1 0 24.38176,-24.38177 c -10.6529,-10.65289 -25.65766,-20.66612 -44.08063,-25.93008 -9.21166,-2.63181 -19.40576,-3.95668 -29.9371,-3.26648 z"
     style="fill:#3a3a3a;stroke-width:17.24189758"
     id="path23" />
</svg>
