<?xml version="1.0" encoding="UTF-8"?>
<svg width="512" height="512" version="1.1" viewBox="0 0 512 512" xmlns="http://www.w3.org/2000/svg">
 <path d="m317.58 420.55c3.2126-9.0676 3.6158-24.99 0.86315-34.085-3.8911-12.857-7.8537-19.225-19.787-31.8-13.003-13.703-20.746-24.051-26.172-34.978-4.2662-8.592-8.5219-21.385-9.5955-28.845-0.56944-3.9567-1.0758-4.9385-2.5469-4.9385-1.5134 0-2.2228 1.5764-4.0366 8.9706-5.6572 23.062-13.419 36.226-33.858 57.424-10.29 10.672-12.377 13.406-16.236 21.273-2.4358 4.9649-5.084 11.621-5.8849 14.79-2.6994 10.684-1.4723 26.324 2.8668 36.541 1.186 2.7923-0.74512 1.9966-10.26-4.2281-10.964-7.1724-28.39-24.269-35.359-34.691-13.999-20.935-20.596-42.902-20.579-68.516 0.0215-31.119 9.5039-56.334 30.414-80.877 48.166-56.534 70.167-122.64 61.397-184.48-0.52879-3.7284-0.79031-6.9501-0.58116-7.1592 0.52377-0.52379 12.013 19.493 17.47 30.437 14.179 28.434 26.814 69.077 30.876 99.319 1.0226 7.6127 1.4072 8.7025 3.0708 8.7025 1.3062 0 1.9931-0.75701 2.1932-2.4174 0.75792-6.2867 4.5815-19.209 9.9376-32.862 3.2372-8.2512 7.0048-18.048 8.2026-21.771 1.9458-6.0478 3.1367-16.974 3.2979-16.274 2.6e-4 9.6e-4 0.0132-0.14016 7.7e-4 4e-3 1.7382 29.548 9.8458 59.856 21.397 84.042 6.3525 13.09 18.513 31.972 25.815 40.082 27.049 32.066 38.933 75.414 28.99 113.31-1.445 5.1699-4.0425 12.981-5.7722 17.358-6.4871 16.416-21.283 36.058-36.008 47.802-7.557 6.0271-20.39 14.687-21.97 14.826-0.34558 0.0304 0.48935-3.0993 1.8554-6.955z" style="fill:#3a3a3a"/>
</svg>
