<svg width="512" height="512" version="1.1" viewBox="0 0 512 512" xmlns="http://www.w3.org/2000/svg">
 <path d="m192.27 77.11c16.185 16.282 16.088 29.235 16.088 48.847v40.536c-56.624 18.992-97.111 70.112-97.111 130.43 0 51.739 30.001 96.879 74.328 120.61h143.02c44.327-23.731 74.328-68.871 74.328-120.61 0-60.184-40.633-111.26-97.208-130.43v-40.536c0-19.502-0.0973-32.516 16.088-48.847zm83.065 133.66c10.061 0 18.226 8.1654 18.226 18.226s-8.1654 18.226-18.226 18.226-18.226-8.214-18.226-18.226c0-10.061 8.1654-18.226 18.226-18.226zm-27.341 54.679c8.3964 0 15.19 6.84 15.19 15.188 0 8.3964-6.7933 15.19-15.19 15.19s-15.188-6.842-15.188-15.19c0-8.3963 6.7914-15.188 15.188-15.188zm33.416 42.528c6.6952 0 12.151 5.4557 12.151 12.151s-5.4558 12.151-12.151 12.151c-6.6952 0-12.151-5.4558-12.151-12.151 0-6.7438 5.4557-12.151 12.151-12.151zm-15.19 42.528c5.0305 0 9.1142 4.0817 9.1142 9.1122 0 5.0305-4.0837 9.1142-9.1142 9.1142-5.0305 0-9.1122-4.0837-9.1122-9.1142 0-5.0305 4.0817-9.1122 9.1122-9.1122zm21.265 30.377c3.3658 0 6.0755 2.7097 6.0755 6.0755 0 3.3658-2.7096 6.0755-6.0755 6.0755-3.3658 0-6.0755-2.7582-6.0755-6.0755 0-3.3658 2.7097-6.0755 6.0755-6.0755z" fill="#3a3a3a" stroke-width="12.151"/>
</svg>
