<svg width="512" height="512" version="1.1" viewBox="0 0 512 512" xmlns="http://www.w3.org/2000/svg">
 <defs>
  <clipPath id="clipPath-666973034">
   <g transform="translate(0 -1004.4)">
    <path transform="matrix(15.333 0 0 11.5 415 878.86)" d="m-24 13c0 1.105-0.672 2-1.5 2s-1.5-0.895-1.5-2 0.672-2 1.5-2 1.5 0.895 1.5 2z" fill="#1890d0"/>
   </g>
  </clipPath>
 </defs>
 <g transform="matrix(15.476 0 0 17.59 -110.21 -173.81)" clip-path="url(#clipPath-666973034)" fill="#3a3a3a">
  <g fill="#3a3a3a">
   <path d="m24 19.211c-1.754 0-3.09 1.168-3.91 2.523-0.816 1.355-1.285 3.02-1.285 4.848 0 1.832 0.469 3.547 1.285 4.898 0.82 1.355 2.156 2.523 3.91 2.523s3.141-1.168 3.957-2.523 1.238-3.066 1.238-4.898c0-1.828-0.422-3.492-1.238-4.848-0.816-1.355-2.203-2.523-3.957-2.523m0 1.746c2.211 0 4.01 2.688 4.01 5.965 0 3.281-1.797 5.918-4.01 5.918-2.211 0-4.01-2.637-4.01-5.918 0-3.277 1.797-5.965 4.01-5.965"/>
   <path d="m24.02 22.22c-2.098 0-3.957 1.105-5.094 2.84-0.063 0.543-0.09 1.109-0.102 1.68 1.125-1.59 3.02-2.629 5.195-2.629 2.152 0 4.047 1.012 5.16 2.578-8e-3 -0.539-0.047-1.066-0.098-1.578-1.125-1.742-2.957-2.891-5.063-2.891"/>
   <path d="m23.13 29.1c-1.301 0.168-2.473 0.754-3.449 1.543 0.121 0.234 0.219 0.496 0.363 0.711 0.121 0.184 0.277 0.363 0.422 0.535 1.035-0.527 2.227-0.832 3.512-0.832s2.477 0.305 3.512 0.832c0.148-0.172 0.313-0.355 0.426-0.535 0.148-0.223 0.309-0.469 0.43-0.711-1.191-0.973-2.703-1.543-4.355-1.543-0.297 0-0.559-0.035-0.848 0"/>
   <path d="m23.984 25.574c-1.984 0-3.453 0.918-4.781 2.246 0.074 0.547-0.109 0.992 0.066 1.492 1.285-0.961 2.922-1.543 4.723-1.543 1.797 0 3.441 0.582 4.719 1.543 0.168-0.5 0.043-0.941 0.117-1.492-1.328-1.336-2.844-2.246-4.836-2.246"/>
   <path d="m24.02 13.996c-2.531 0-4.598 1.723-4.598 3.883 0 1.32 0.777 2.508 1.957 3.215 0.242-0.559 1.246-0.996 2.492-0.996 1.332 0 2.43 0.488 2.563 1.105 1.289-0.691 2.148-1.922 2.148-3.324 0-2.16-2.035-3.883-4.563-3.883m-2.902 2.258c0.43 0 0.754 0.578 0.754 1.293s-0.328 1.293-0.754 1.293c-0.43 0-0.793-0.578-0.793-1.293s0.363-1.293 0.793-1.293m5.77 0c0.426 0 0.789 0.578 0.789 1.293s-0.363 1.293-0.789 1.293c-0.43 0-0.754-0.578-0.754-1.293s0.324-1.293 0.754-1.293"/>
   <path d="m14.258 16.332c1.551 0.109 3.895 0.746 6.559 2.254 0.25 0.141 0.445 0.301 0.68 0.445-0.258 0.215-0.473 0.457-0.68 0.703-0.152-0.098-0.289-0.207-0.453-0.297-1.586-0.898-3.199-1.41-4.523-1.516-1.324-0.105-2.355 0.188-2.789 0.926-0.867 1.469 1.395 3.605 4.563 5.402 0.215 0.121 0.605 0.363 0.816 0.469-0.027 0.031-0.645 0.445-0.668 0.484-0.215-0.117-0.418-0.207-0.641-0.332-2.668-1.508-4.445-3.172-5.313-4.434-0.871-1.266-1.023-2.297-0.566-3.07 0.453-0.77 1.465-1.145 3.02-1.035m5.02 9.426c0.023 0.07 0.023 0.145 0.035 0.219-0.02-0.012-0.051-0.023-0.074-0.035 0.027-0.063 0.027-0.113 0.035-0.184"/>
   <path d="m19.621 23.965c-0.047 0.172-0.133 0.332-0.168 0.508-0.012 4e-3 4e-3 0.043-0.012 0.047-3.379 1.316-5.418 3.137-4.648 4.418 0.645 1.066 3.02 1.453 5.973 1.172 0.051 0.063 0.051 0.137 0.102 0.199 0.07 0.086 0.152 0.168 0.227 0.258-1.57 0.23-3.01 0.328-4.168 0.277-2.074-0.09-3.488-0.543-3.984-1.367s0.035-1.855 1.418-2.906c1.133-0.863 2.926-1.805 5.262-2.602"/>
   <path d="m33.742 16.332c-1.551 0.109-3.895 0.746-6.559 2.254-0.25 0.141-0.445 0.301-0.68 0.445 0.258 0.215 0.473 0.457 0.68 0.703 0.152-0.098 0.289-0.207 0.453-0.297 1.586-0.898 3.199-1.41 4.523-1.516 1.324-0.105 2.355 0.188 2.789 0.926 0.867 1.469-1.395 3.605-4.563 5.402-0.215 0.121-0.605 0.363-0.816 0.469 0.027 0.031 0.645 0.445 0.668 0.484 0.215-0.117 0.418-0.207 0.641-0.332 2.668-1.508 4.445-3.172 5.313-4.434 0.871-1.266 1.023-2.297 0.566-3.07-0.453-0.77-1.465-1.145-3.02-1.035m-5.02 9.426c-0.023 0.07-0.023 0.145-0.035 0.219 0.02-0.012 0.051-0.023 0.074-0.035-0.027-0.063-0.027-0.113-0.035-0.184"/>
   <path d="m28.379 23.965c0.047 0.172 0.133 0.332 0.168 0.508 0.012 4e-3 -4e-3 0.043 0.012 0.047 3.379 1.316 5.418 3.137 4.648 4.418-0.645 1.066-3.02 1.453-5.973 1.172-0.051 0.063-0.051 0.137-0.102 0.199-0.07 0.086-0.152 0.168-0.227 0.258 1.57 0.23 3.01 0.328 4.168 0.277 2.074-0.09 3.488-0.543 3.984-1.367s-0.035-1.855-1.418-2.906c-1.133-0.863-2.926-1.805-5.262-2.602"/>
  </g>
 </g>
</svg>
