<svg width="512" height="512" version="1.1" viewBox="0 0 512 512" xmlns="http://www.w3.org/2000/svg">
 <g transform="matrix(1.0397 0 0 1.0397 -358.62 49.28)" fill="#3a3a3a">
  <path d="m584.01 306.13c-2.391-0.63305-6.6501-3.304-9.4646-5.9355-8.5838-8.0256-47.841-58.485-49.306-63.376-1.7582-5.8683-0.24188-9.8941 4.8542-12.888 3.917-2.301 5.6308-2.3687 59.995-2.3687 62.002 0 61.485-0.0598 64.603 7.4668 1.2307 2.9712 1.1665 4.3189-0.40112 8.4237-1.5164 3.9705-37.962 51.601-47.303 61.819-5.4092 5.9175-15.337 8.8805-22.977 6.8577z"/>
  <path d="m476.96 287.46c-3.9025-4.1986-7.7968-7.6127-8.654-7.5868-0.85724 0.0257-3.7346 3.5308-6.3942 7.7886-9.4137 15.071-25.914 30.551-39.011 36.599-6.4313 2.629-15.535 4.1245-19.682 0.0277-8.7375-10.714 12.468-53.302 13.126-54.913 6.6429-16.251 13.068-35.432 16.911-50.481 1.7703-6.9334 1.7432-7.8062-0.5723-18.462-10.228-47.067 3.8155-92.062 39.557-126.74 31.48-30.542 68.757-45.669 119.13-48.343 50.217-2.6656 107.53 24.611 138.17 65.758 28.565 42.237 30.133 76.833 21.246 121.63l2.6626 10.178c3.5884 13.717 11.988 37.404 21.202 59.794 11.995 29.146 13.425 38.093 6.9066 43.22-6.0894 4.79-18.08 2.2664-31.018-6.5278-8.3096-5.6485-22.495-20.346-28.746-29.783-2.517-3.8-4.9694-7.3884-5.4498-7.9742-0.48043-0.58581-5.7051 3.609-11.61 9.3218-71.161 64.451-160.68 67.694-227.77-3.5075zm123.23 41.937c31.9-3.2011 58.53-15.803 80.793-38.234 31.671-31.908 47.588-77.654 40.721-117.03-4.4137-25.31-23.477-52.099-49.423-69.453-10.129-6.775-9.2723-6.7439-22.249-0.8067-12.2 5.5817-22.787 12.836-34.26 23.475-12.45 11.545-17.788 14.536-24.132 13.521-6.7411-1.0779-10.864-3.5967-20.463-12.501-11.893-11.031-22.915-18.716-35.193-24.538-14.632-6.9379-14.186-6.8884-21.648-2.395-34.047 20.502-55.395 55.831-55.152 91.273 0.43923 64.069 50.111 125.12 110.73 136.09 11.032 1.9975 15.427 2.0837 30.272 0.59399zm35.164-128.03c-7.9579-2.483-12.594-11.565-9.5504-18.71 4.8368-11.356 18.086-14.204 25.437-5.4673 9.658 11.478-1.6128 28.631-15.886 24.178zm-80.852-24.174c3.9486 5.0749 5.3743 13.503 1.0584 18.445-26.271 20.439-34.092-33.006-1.0584-18.445z"/>
 </g>
</svg>
