<svg height="512" viewBox="0 0 512 512" width="512" xmlns="http://www.w3.org/2000/svg">
 <path d="m188.86545 104.06047c-82.90602 0-150.134898 67.23751-150.134898 150.13489 0 82.90602 67.237518 150.07731 150.134898 150.07731 21.9955 0 42.87532-4.73193 61.69221-13.23559 26.86995-16.18388 51.29693-45.50402 62.77046-62.99792-.18714-.0648-.38149-.10509-.56864-.16987 12.85411-21.56939 20.28383-46.74495 20.28383-73.67825 0-9.37749-.89686-18.55488-2.61285-27.43859-.39301.0273-.79322.0561-1.19342.0561h-128.49497c-17.73432 0-32.03809 14.24763-32.03809 31.9877 0 17.73432 14.30521 32.03809 32.03809 32.03809h57.08984c-13.1377 24.66019-39.07049 41.46884-68.96215 41.46884-43.15172 0-78.16976-34.95613-78.16976-78.11218 0-43.15172 35.01228-78.16976 78.16976-78.16976h140.36728c.98468 0 1.95064.11661 2.89357.2836 2.17091-.18283 4.37204-.2836 6.58901-.2836 43.15172 0 78.16976 35.01228 78.16976 78.16976 0 38.85023-28.406 71.04379-65.55463 77.09007-19.8937 27.83305-49.40675 48.32418-83.669 56.6335 20.43931 10.42551 43.5908 16.3595 68.10703 16.3595 82.90601 0 150.07731-67.17993 150.07731-150.07731 0-81.35126-64.71391-147.58682-145.48502-150.01972-.24185-.0317-.49378-.0374-.73851-.0562-.095-.001-.19002.001-.2836 0-.30231-.0187-.60319-.0561-.90838-.0561h-137.01303c-1.02211 0-2.03414.13676-3.01018.34118-3.1599-.19866-6.3342-.34118-9.54304-.34118" fill="#3a3a3a"/>
</svg>
