<svg xmlns="http://www.w3.org/2000/svg" height="512" width="512">
 <path d="M255.696 101.17c-5.106 0-10.21 1.947-14.103 5.84l-28.08 28.066 35.622 35.632c8.265-2.797 17.76-.93 24.362 5.662 6.638 6.65 8.493 16.22 5.607 24.533l34.345 34.316c8.288-2.854 17.877-1.014 24.514 5.64 9.282 9.26 9.282 24.27 0 33.557-9.286 9.266-24.28 9.266-33.57 0-6.968-6.982-8.702-17.228-5.156-25.825l-32.023-32.007v84.243c2.278 1.127 4.41 2.617 6.282 4.495 9.248 9.26 9.248 24.27 0 33.56-9.28 9.284-24.3 9.284-33.557 0-9.28-9.292-9.28-24.3 0-33.56 2.288-2.295 4.93-4.026 7.766-5.19V215.12c-2.835-1.162-5.472-2.88-7.766-5.18-7.03-7.013-8.715-17.327-5.112-25.95l-35.107-35.102-92.706 92.705c-7.797 7.79-7.797 20.416 0 28.198l135.21 135.227c7.774 7.76 20.407 7.76 28.212 0L405.01 270.414c7.763-7.785 7.763-20.417 0-28.2L269.808 107.012c-3.897-3.893-9.004-5.84-14.11-5.84zm-100.64 130.585c2.185.016 4.1.517 5.743 1.504 1.925 1.08 3.617 2.347 5.073 3.804 1.738 1.738 2.818 3.476 3.24 5.214.47 1.69.142 3.1-.985 4.228-.517.517-1.198 1.104-2.044 1.762-.798.61-1.76 1.198-2.888 1.762-.33-.8-.823-1.715-1.48-2.748-.61-.987-1.292-1.856-2.044-2.608-.658-.657-1.433-1.15-2.326-1.48-.798-.33-1.856-.305-3.17.07-1.27.33-2.843 1.152-4.722 2.467-1.88 1.317-4.158 3.313-6.835 5.99-2.022 2.02-3.643 3.783-4.864 5.286-1.222 1.503-2.09 2.842-2.607 4.016-.47 1.22-.588 2.326-.353 3.312.28.94.892 1.88 1.832 2.82.75.75 1.643 1.456 2.676 2.113 1.034.658 1.974 1.128 2.82 1.41-.658 1.128-1.27 2.067-1.833 2.82-.517.703-1.08 1.36-1.692 1.97-1.173 1.176-2.84 1.387-5 .636-2.068-.752-4.23-2.255-6.485-4.51-1.832-1.832-3.17-3.642-4.016-5.427-.846-1.785-1.058-3.734-.635-5.848.423-2.114 1.55-4.51 3.383-7.188 1.926-2.678 4.72-5.85 8.385-9.514 4.228-4.228 7.962-7.21 11.204-8.95 3.288-1.784 6.178-2.747 8.668-2.887.323-.02.64-.027.952-.025zm18.77 19.028c3.828-.017 7.27 1.502 10.323 4.556 1.878 1.878 3.216 3.78 4.015 5.706.892 1.926 1.104 4.018.634 6.273-.47 2.254-1.645 4.743-3.524 7.468-1.832 2.77-4.533 5.942-8.104 9.513-3.382 3.383-6.53 6.014-9.443 7.893-2.82 1.88-5.473 3.077-7.963 3.594-2.396.517-4.675.4-6.836-.352-2.113-.8-4.11-2.138-5.99-4.017-1.925-1.926-3.358-3.828-4.297-5.707-.94-1.785-1.245-3.78-.916-5.99.423-2.207 1.597-4.744 3.523-7.61 2.02-2.866 5.003-6.272 8.95-10.218 6.388-6.39 12.026-10.006 16.912-10.852.925-.167 1.83-.253 2.713-.257zm40.127 4.67c.45-.003.91.113 1.38.348.847.377 1.81 1.06 2.89 2.045 1.08.987 2.42 2.278 4.017 3.875l-50.383 50.385c-.376.376-.706.61-.988.705-.283.094-.73-.07-1.34-.494-.516-.423-1.338-1.15-2.466-2.184l-4.51-4.51 48.34-48.34c.846-.847 1.598-1.41 2.256-1.692.264-.088.532-.133.803-.136zM175.33 261.1c-.545-.01-1.27.23-2.175.723-1.033.565-2.373 1.53-4.017 2.89-1.644 1.364-3.71 3.29-6.2 5.78-2.773 2.77-4.91 5.003-6.413 6.694-1.41 1.69-2.42 3.03-3.03 4.017-.563 1.034-.798 1.832-.704 2.396.188.564.494 1.057.917 1.48.328.33.75.564 1.267.705.564.095 1.363-.14 2.397-.704 1.08-.61 2.467-1.62 4.158-3.03 1.786-1.41 4.04-3.477 6.766-6.202 2.536-2.536 4.51-4.603 5.918-6.2 1.456-1.55 2.467-2.842 3.03-3.876.61-.986.87-1.762.776-2.326-.094-.563-.4-1.104-.916-1.62-.376-.376-.893-.61-1.55-.704-.07-.012-.145-.02-.223-.02zm33.42 23.334c.15-.003.294.007.435.03.892.14 2.49.894 4.792 2.256 2.35 1.315 4.933 3.382 7.752 6.2 3.24 3.242 4.884 6.155 4.93 8.74.095 2.63-1.455 5.542-4.65 8.737l-3.312 3.312-6.2 6.2c-2.115 2.115-4.182 4.135-6.202 6.06-1.973 1.974-3.852 3.806-5.637 5.498-1.786 1.69-3.384 3.147-4.793 4.368-1.926-.516-3.947-1.456-6.06-2.818-2.115-1.268-4.228-2.96-6.342-5.074-1.316-1.314-2.467-2.7-3.453-4.157-.94-1.41-1.504-2.96-1.692-4.65-.14-1.644.235-3.476 1.128-5.496.892-2.02 2.56-4.252 5.003-6.695 2.397-2.396 4.557-4.134 6.484-5.215 2.02-1.08 3.83-1.667 5.426-1.76 1.598-.095 3.03.21 4.3.915 1.314.657 2.49 1.503 3.522 2.537.517.515 1.15 1.29 1.903 2.324.798 1.08 1.315 2.16 1.55 3.24l4.862-4.86c.94-.94 1.363-1.833 1.27-2.678 0-.846-.54-1.81-1.622-2.89-1.315-1.316-2.913-2.63-4.792-3.946-1.832-1.268-3.547-2.28-5.145-3.03.376-1.222.917-2.325 1.62-3.312.706-.986 1.34-1.762 1.904-2.325.423-.423.94-.8 1.55-1.128.53-.246 1.018-.374 1.467-.383zm-9.782 26.597c-.27.01-.552.058-.846.14-1.174.33-2.89 1.62-5.144 3.875-1.69 1.692-2.772 3.054-3.242 4.088-.376 1.033-.117 1.996.775 2.89.33.327.706.61 1.128.844.517.235 1.01.353 1.48.353.423-.33.987-.846 1.692-1.55.8-.705 1.62-1.48 2.466-2.326l2.608-2.607 2.466-2.466c0-.47-.165-.915-.493-1.338-.235-.423-.494-.775-.776-1.057-.598-.6-1.302-.88-2.112-.846z" fill="#3a3a3a"/>
</svg>
