<svg width="512" height="512" version="1.1" viewBox="0 0 512 512" xmlns="http://www.w3.org/2000/svg">
 <g transform="matrix(1.7956 0 0 1.7956 -138.9 -304.78)" fill="#3a3a3a" stroke-width="7.9227">
  <path d="m164.66 350.95a31.691 31.691 0 0 0-31.691 31.691 31.691 31.691 0 0 0 31.691 31.691 31.691 31.691 0 0 0 31.691-31.691 31.691 31.691 0 0 0-31.691-31.691zm0 15.845a15.845 15.845 0 0 1 15.845 15.845 15.845 15.845 0 0 1-15.845 15.845 15.845 15.845 0 0 1-15.845-15.845 15.845 15.845 0 0 1 15.845-15.845z" style="paint-order:normal"/>
  <path d="m164.66 208.34a31.691 31.691 0 0 0-31.691 31.691 31.691 31.691 0 0 0 31.691 31.691 31.691 31.691 0 0 0 31.691-31.691 31.691 31.691 0 0 0-31.691-31.691zm0 15.845a15.845 15.845 0 0 1 15.845 15.845 15.845 15.845 0 0 1-15.845 15.845 15.845 15.845 0 0 1-15.845-15.845 15.845 15.845 0 0 1 15.845-15.845z" style="paint-order:normal"/>
  <path d="m148.82 263.8v95.073h31.691v-47.536c5.0098 6.1215 11.549 11.823 17.641 15.799 16.167 10.554 34.213 15.892 53.664 15.892v-31.691c-14.086 0-24.753-3.1696-36.349-10.739-10.671-6.9656-22.079-18.354-34.956-34.492v-2.3057z" style="paint-order:normal"/>
  <path d="m275.58 295.49a31.691 31.691 0 0 0-31.691 31.691 31.691 31.691 0 0 0 31.691 31.691 31.691 31.691 0 0 0 31.691-31.691 31.691 31.691 0 0 0-31.691-31.691zm0 15.845a15.845 15.845 0 0 1 15.845 15.845 15.845 15.845 0 0 1-15.845 15.845 15.845 15.845 0 0 1-15.845-15.845 15.845 15.845 0 0 1 15.845-15.845z" style="paint-order:normal"/>
 </g>
</svg>
