<?xml version="1.0" encoding="UTF-8" standalone="no"?>
<svg xmlns="http://www.w3.org/2000/svg" height="512" viewBox="0 0 512 512" width="512" version="1.1">
 <g transform="matrix(9.4959,0,0,9.4959,57.411186,60.850169)" style="fill:#3a3a3a">
  <path d="M 17.268,4.883 0.677,21.475 c -0.902,0.902 -0.902,2.367 0,3.272 l 6.543,6.54 c 0.904,0.904 2.369,0.9 3.268,0 L 27.079,14.697 17.268,4.883"/>
  <path d="M 31.774,6.312 25.464,0 20.353,5.115 26.662,11.426 31.774,6.312 M 29.043,5.946 27.989,6.995 26.706,5.712 27.757,4.659 29.043,5.946 M 24.751,3.754 25.802,2.705 27.085,3.988 26.032,5.037 24.751,3.754"/>
 </g>
 <g style="fill:#3a3a3a" transform="matrix(9.4959,0,0,9.4959,165.88203,164.98467)">
  <path d="M 17.268,4.883 0.677,21.475 c -0.902,0.902 -0.902,2.367 0,3.272 l 6.543,6.54 c 0.904,0.904 2.369,0.9 3.268,0 L 27.079,14.697 17.268,4.883"/>
  <path d="M 31.774,6.312 25.464,0 20.353,5.115 26.662,11.426 31.774,6.312 M 29.043,5.946 27.989,6.995 26.706,5.712 27.757,4.659 29.043,5.946 M 24.751,3.754 25.802,2.705 27.085,3.988 26.032,5.037 24.751,3.754"/>
 </g>
</svg>
