<svg version="1.1" viewBox="0 0 512 512" xmlns="http://www.w3.org/2000/svg">
 <clipPath id="d">
  <rect x="6" y="6" width="84" height="84" rx="6"/>
 </clipPath>
 <g transform="matrix(1.3062 0 0 1.3062 -78.383 -78.382)" fill="#3a3a3a">
  <path d="m161.31 133.25c-0.67 0-1.325 0.035-1.984 0.082a28.054 28.054 0 0 0-0.35322 0.0543c-0.814 0.068-1.626 0.136-2.419 0.272a28.054 28.054 0 0 0-0.0817 0.0271c-0.881 0.153-1.758 0.337-2.609 0.571a28.054 28.054 0 0 0-0.13592 0.0543c-0.83 0.232-1.649 0.483-2.446 0.788a28.054 28.054 0 0 0-0.24452 0.1087c-1.621 0.638-3.163 1.422-4.62 2.337a28.054 28.054 0 0 0-0.57061 0.38044c-0.667 0.442-1.331 0.891-1.957 1.386a28.054 28.054 0 0 0-0.0539 0.0543c-0.622 0.496-1.216 1.03-1.793 1.576a28.054 28.054 0 0 0-0.40765 0.38043c-0.599 0.589-1.168 1.207-1.712 1.848a28.054 28.054 0 0 0-0.1087 0.1087c-0.553 0.658-1.057 1.357-1.549 2.065a28.054 28.054 0 0 0-0.16296 0.2174c-2.045 3-3.512 6.424-4.266 10.11a28.054 28.054 0 0 0-0.0817 0.46196c-0.143 0.762-0.274 1.527-0.353 2.31a28.054 28.054 0 0 0 0 0.0815c-0.09 0.917-0.136 1.858-0.136 2.799a28.054 28.054 0 0 0 0.0269 1.1685c0.036 0.864 0.105 1.712 0.217 2.554a28.054 28.054 0 0 0 0.0539 0.38044c0.402 2.74 1.202 5.349 2.337 7.772a28.054 28.054 0 0 0 0.1087 0.19022c0.367 0.767 0.736 1.529 1.168 2.255a28.054 28.054 0 0 0 0.13592 0.21739c0.469 0.771 0.983 1.508 1.522 2.228a28.054 28.054 0 0 0 0.27174 0.35326c0.458 0.593 0.937 1.186 1.44 1.739a28.054 28.054 0 0 0 0.0817 0.0815c0.58 0.633 1.185 1.243 1.821 1.821a28.054 28.054 0 0 0 0.46191 0.40762c1.294 1.125 2.699 2.141 4.185 3.02a28.054 28.054 0 0 0 0.0539 0.0271c0.789 0.462 1.61 0.865 2.446 1.25a28.054 28.054 0 0 0 0.027 0.0271c0.757 0.348 1.518 0.671 2.31 0.951a28.054 28.054 0 0 0 0.51635 0.16304c2.474 0.823 5.1 1.314 7.826 1.413a28.054 28.054 0 0 0 0.62496 0.0271c0.137 2e-3 0.271 0 0.408 0 0.667 0 1.329-9e-3 1.984-0.054a28.054 28.054 0 0 0 0.27174-0.0271c0.857-0.068 1.694-0.183 2.527-0.326a28.054 28.054 0 0 0 0.19026-0.0543c1.792-0.321 3.534-0.796 5.19-1.44a28.054 28.054 0 0 0 0.1087-0.0543c0.832-0.328 1.654-0.684 2.446-1.087a28.054 28.054 0 0 0 0.21739-0.13587c1.596-0.831 3.113-1.797 4.511-2.908a28.054 28.054 0 0 0 0.027-0.0271c1.451-1.157 2.798-2.441 3.995-3.859a28.054 28.054 0 0 0 0.19017-0.24457c0.53-0.642 1.022-1.295 1.495-1.984a28.054 28.054 0 0 0 0.10869-0.16304c0.486-0.719 0.94-1.464 1.359-2.228a28.054 28.054 0 0 0 0.0539-0.0815c1.309-2.409 2.268-5.03 2.826-7.799a28.054 28.054 0 0 0 0.0269-0.21739c0.335-1.735 0.516-3.521 0.516-5.353a28.054 28.054 0 0 0-0.027-1.4402c-0.24-4.739-1.661-9.184-3.967-13.02a28.054 28.054 0 0 0-0.0539-0.1087c-0.961-1.581-2.071-3.046-3.315-4.402a28.054 28.054 0 0 0-0.29887-0.29891c-0.542-0.573-1.097-1.132-1.685-1.658a28.054 28.054 0 0 0-0.21739-0.19022c-0.628-0.55-1.281-1.083-1.957-1.576a28.054 28.054 0 0 0-0.1087-0.0815c-2.959-2.137-6.358-3.711-10.03-4.565a28.054 28.054 0 0 0-0.21739-0.0271c-0.84-0.189-1.687-0.35-2.554-0.462a28.054 28.054 0 0 0-0.10869 0c-0.883-0.11-1.784-0.191-2.69-0.217a28.054 28.054 0 0 0-0.0548 0c-0.254-7e-3 -0.505-0.027-0.761-0.027z"/>
  <path d="m224.44 133.25c-0.667 0-1.329 0.036-1.984 0.082a28.054 28.054 0 0 0-0.32609 0.0271c-0.783 0.064-1.547 0.145-2.31 0.272a28.054 28.054 0 0 0-0.3533 0.0815c-0.826 0.148-1.647 0.325-2.446 0.543a28.054 28.054 0 0 0-0.19026 0.0543c-0.821 0.231-1.63 0.486-2.418 0.788a28.054 28.054 0 0 0-0.24461 0.10869c-1.62 0.638-3.163 1.422-4.62 2.337a28.054 28.054 0 0 0-0.57061 0.38043c-0.667 0.442-1.332 0.891-1.957 1.386a28.054 28.054 0 0 0-0.0548 0.0543c-0.622 0.496-1.216 1.03-1.793 1.576a28.054 28.054 0 0 0-0.40766 0.38044c-0.599 0.589-1.168 1.207-1.712 1.848a28.054 28.054 0 0 0-0.1087 0.1087c-0.553 0.658-1.057 1.357-1.549 2.065a28.054 28.054 0 0 0-0.16305 0.21739c-2.045 3-3.512 6.424-4.266 10.11a28.054 28.054 0 0 0-0.0539 0.29891c-0.158 0.816-0.295 1.633-0.381 2.473a28.054 28.054 0 0 0 0 0.0815c-0.09 0.917-0.136 1.858-0.136 2.799a28.054 28.054 0 0 0 0.0269 1.4674c0.242 4.681 1.625 9.06 3.886 12.853a28.054 28.054 0 0 0 0.13583 0.21739c0.469 0.771 0.983 1.508 1.522 2.228a28.054 28.054 0 0 0 0.27182 0.35326c0.458 0.593 0.937 1.186 1.44 1.739a28.054 28.054 0 0 0 0.0817 0.0815c0.58 0.633 1.185 1.243 1.821 1.821a28.054 28.054 0 0 0 0.48914 0.43479c1.286 1.114 2.683 2.121 4.158 2.989a28.054 28.054 0 0 0 0.0548 0.0271c1.513 0.887 3.106 1.634 4.783 2.228a28.054 28.054 0 0 0 0.51627 0.16304c2.474 0.823 5.1 1.314 7.826 1.413a28.054 28.054 0 0 0 0.62496 0.0271c0.137 2e-3 0.271 0 0.408 0 0.67 0 1.325-8e-3 1.984-0.054a28.054 28.054 0 0 0 0.29896-0.0271c0.833-0.067 1.662-0.187 2.473-0.326a28.054 28.054 0 0 0 0.0817-0.0271c1.84-0.32 3.628-0.807 5.326-1.467a28.054 28.054 0 0 0 0.10869-0.0543c0.832-0.328 1.654-0.684 2.446-1.087a28.054 28.054 0 0 0 0.2174-0.13587c1.596-0.831 3.113-1.797 4.511-2.908a28.054 28.054 0 0 0 0.027-0.0271c1.451-1.157 2.798-2.441 3.995-3.859a28.054 28.054 0 0 0 0.19018-0.24457c0.53-0.642 1.023-1.295 1.495-1.984a28.054 28.054 0 0 0 0.10869-0.16305c0.486-0.719 0.94-1.464 1.359-2.228a28.054 28.054 0 0 0 0.0539-0.0815c1.309-2.409 2.268-5.03 2.826-7.799a28.054 28.054 0 0 0 0.0539-0.43478c0.309-1.667 0.489-3.379 0.489-5.136a28.054 28.054 0 0 0-0.027-1.1685c-0.038-0.938-0.116-1.887-0.245-2.799a28.054 28.054 0 0 0-0.0539-0.32609c-0.561-3.674-1.827-7.104-3.669-10.163a28.054 28.054 0 0 0-0.0539-0.10869c-0.961-1.581-2.071-3.046-3.315-4.402a28.054 28.054 0 0 0-0.29888-0.29892c-0.542-0.573-1.097-1.132-1.685-1.658a28.054 28.054 0 0 0-0.19026-0.16304c-3.415-2.999-7.568-5.188-12.147-6.25a28.054 28.054 0 0 0-0.10869-0.0271c-0.861-0.196-1.747-0.347-2.636-0.462a28.054 28.054 0 0 0-0.16295 0c-0.871-0.107-1.742-0.192-2.636-0.217a28.054 28.054 0 0 0-0.0539 0c-0.254-7e-3 -0.505-0.027-0.761-0.027"/>
  <path d="m350.69 133.25c-0.661 0-1.334 0.037-1.984 0.082a28.054 28.054 0 0 0-0.32609 0.0271c-0.836 0.068-1.659 0.159-2.473 0.299a28.054 28.054 0 0 0-0.13591 0.0271c-0.822 0.145-1.623 0.329-2.418 0.543a28.054 28.054 0 0 0-0.46191 0.13587c-0.755 0.218-1.501 0.455-2.228 0.734a28.054 28.054 0 0 0-0.24452 0.10869c-1.694 0.667-3.323 1.505-4.837 2.473a28.054 28.054 0 0 0-0.1087 0.0543c-0.765 0.494-1.49 1.013-2.201 1.576a28.054 28.054 0 0 0-0.0539 0.0543c-0.599 0.477-1.182 0.998-1.739 1.522a28.054 28.054 0 0 0-0.67939 0.67936c-1.188 1.196-2.276 2.493-3.234 3.886a28.054 28.054 0 0 0-0.0548 0.0543c-1.518 2.22-2.726 4.667-3.56 7.283a28.054 28.054 0 0 0-0.16304 0.57066c-0.453 1.531-0.792 3.1-0.978 4.728a28.054 28.054 0 0 0-0.0817 1.2228c-0.047 0.664-0.109 1.335-0.109 2.01a28.054 28.054 0 0 0 0.0548 1.4674c0.089 1.732 0.344 3.42 0.734 5.05a28.054 28.054 0 0 0 0.0817 0.35326c0.439 1.743 1.045 3.404 1.794 5a28.054 28.054 0 0 0 0.0817 0.19022c0.363 0.76 0.768 1.508 1.196 2.228a28.054 28.054 0 0 0 0.13592 0.24456c0.469 0.771 0.956 1.508 1.495 2.228a28.054 28.054 0 0 0 0.027 0.0271c0.532 0.709 1.089 1.41 1.685 2.065a28.054 28.054 0 0 0 0.0817 0.0815c0.628 0.686 1.291 1.336 1.984 1.957a28.054 28.054 0 0 0 0.0817 0.0815c1.345 1.194 2.817 2.259 4.375 3.179a28.054 28.054 0 0 0 0.38053 0.19022c1.432 0.818 2.935 1.534 4.511 2.092a28.054 28.054 0 0 0 0.51636 0.16304c2.472 0.822 5.076 1.313 7.799 1.413a28.054 28.054 0 0 0 0.62497 0.0271c0.143 2e-3 0.291 0 0.435 0 0.67 0 1.325-8e-3 1.984-0.054a28.054 28.054 0 0 0 0.29887-0.0271c0.833-0.067 1.662-0.187 2.473-0.326a28.054 28.054 0 0 0 0.0817-0.0271c1.843-0.321 3.625-0.805 5.326-1.467a28.054 28.054 0 0 0 0.21739-0.1087c0.792-0.317 1.582-0.648 2.337-1.033a28.054 28.054 0 0 0 0.27174-0.16304c1.574-0.825 3.049-1.784 4.429-2.88a28.054 28.054 0 0 0 0.027-0.0271c1.45-1.156 2.799-2.442 3.995-3.859a28.054 28.054 0 0 0 0.19017-0.24457c0.53-0.642 1.05-1.295 1.522-1.984a28.054 28.054 0 0 0 0.10869-0.16305c0.488-0.723 0.938-1.46 1.359-2.228a28.054 28.054 0 0 0 0.0269-0.0815c2.159-3.975 3.397-8.528 3.397-13.37a28.054 28.054 0 0 0-0.0269-1.1685c-0.038-0.938-0.116-1.887-0.245-2.799a28.054 28.054 0 0 0-0.0539-0.32609c-0.126-0.826-0.293-1.618-0.489-2.418a28.054 28.054 0 0 0-0.0817-0.29892c-0.209-0.813-0.455-1.609-0.734-2.391a28.054 28.054 0 0 0-0.0817-0.24457c-0.294-0.802-0.615-1.598-0.978-2.364a28.054 28.054 0 0 0-0.0817-0.16304c-1.202-2.494-2.741-4.776-4.592-6.794a28.054 28.054 0 0 0-0.27183-0.24457c-3.726-3.956-8.572-6.855-14.05-8.125a28.054 28.054 0 0 0-0.1087-0.0271c-0.861-0.196-1.747-0.347-2.636-0.462a28.054 28.054 0 0 0-0.16314 0c-0.871-0.107-1.742-0.192-2.636-0.217a28.054 28.054 0 0 0-0.0539 0c-0.254-7e-3 -0.505-0.027-0.761-0.027z"/>
  <path d="m224.44 196.38c-0.667 0-1.329 0.036-1.984 0.082a28.054 28.054 0 0 0-0.32609 0.0271c-0.783 0.064-1.547 0.145-2.31 0.272a28.054 28.054 0 0 0-0.3533 0.0815c-0.826 0.148-1.647 0.325-2.446 0.543a28.054 28.054 0 0 0-0.19026 0.0543c-0.821 0.231-1.63 0.486-2.418 0.788a28.054 28.054 0 0 0-0.24461 0.10869c-0.775 0.305-1.543 0.635-2.283 1.01a28.054 28.054 0 0 0-0.38044 0.21739c-0.711 0.37-1.392 0.768-2.065 1.196a28.054 28.054 0 0 0-0.21739 0.13587c-0.751 0.487-1.502 0.995-2.201 1.549a28.054 28.054 0 0 0-0.0548 0.0543c-0.69 0.55-1.349 1.128-1.984 1.739a28.054 28.054 0 0 0-0.19026 0.19022c-0.541 0.531-1.052 1.084-1.549 1.658a28.054 28.054 0 0 0-0.40766 0.46196c-2.31 2.784-4.09 6.03-5.19 9.565a28.054 28.054 0 0 0 0 0.0271c-0.27 0.871-0.494 1.731-0.679 2.636a28.054 28.054 0 0 0-0.0539 0.29892c-0.158 0.818-0.295 1.658-0.381 2.5a28.054 28.054 0 0 0 0 0.0543c-0.092 0.926-0.136 1.876-0.136 2.826a28.054 28.054 0 0 0 0.0269 1.4131c0.234 4.701 1.617 9.09 3.886 12.908a28.054 28.054 0 0 0 0.13583 0.21739c0.937 1.542 2.026 2.992 3.234 4.321a28.054 28.054 0 0 0 0.0817 0.0815c0.58 0.633 1.185 1.243 1.821 1.821a28.054 28.054 0 0 0 0.16305 0.13587c1.299 1.163 2.712 2.191 4.212 3.098a28.054 28.054 0 0 0 0.67931 0.40761c2.22 1.258 4.629 2.209 7.174 2.826a28.054 28.054 0 0 0 0.46192 0.1087c1.987 0.446 4.047 0.707 6.169 0.707 1.623 0 3.208-0.143 4.756-0.408a28.054 28.054 0 0 0 0.0817-0.0271c1.84-0.32 3.628-0.807 5.326-1.467a28.054 28.054 0 0 0 0.1087-0.0543c0.832-0.328 1.654-0.684 2.446-1.087a28.054 28.054 0 0 0 0.21739-0.13587c0.765-0.399 1.506-0.812 2.228-1.277a28.054 28.054 0 0 0 0.0539-0.0543c0.761-0.493 1.52-1.013 2.228-1.576a28.054 28.054 0 0 0 0.027-0.0271c1.451-1.157 2.798-2.441 3.995-3.859a28.054 28.054 0 0 0 0.19017-0.24457c1.123-1.36 2.109-2.817 2.962-4.375a28.054 28.054 0 0 0 0.0539-0.0815c0.428-0.788 0.816-1.615 1.169-2.446a28.054 28.054 0 0 0 0-0.0271c0.72-1.703 1.284-3.47 1.658-5.326a28.054 28.054 0 0 0 0.0539-0.43479c0.309-1.667 0.489-3.379 0.489-5.136a28.054 28.054 0 0 0-0.027-1.1685c-0.038-0.945-0.115-1.88-0.245-2.799a28.054 28.054 0 0 0-0.0539-0.32609c-0.562-3.681-1.821-7.126-3.669-10.19a28.054 28.054 0 0 0-0.0539-0.0815c-2.36-3.884-5.645-7.137-9.538-9.484a28.054 28.054 0 0 0-0.65218-0.38044c-2.3-1.303-4.8-2.294-7.446-2.908a28.054 28.054 0 0 0-0.10869-0.0271c-0.861-0.196-1.747-0.347-2.636-0.462a28.054 28.054 0 0 0-0.16296 0c-0.871-0.107-1.742-0.192-2.636-0.217a28.054 28.054 0 0 0-0.0539 0c-0.254-7e-3 -0.505-0.027-0.761-0.027"/>
  <path d="m287.56 196.38c-0.667 0-1.329 0.036-1.984 0.082a28.054 28.054 0 0 0-0.32609 0.0271c-0.783 0.064-1.546 0.145-2.31 0.272a28.054 28.054 0 0 0-0.35322 0.0815c-0.826 0.148-1.647 0.325-2.446 0.543a28.054 28.054 0 0 0-0.16304 0.0543c-0.83 0.232-1.649 0.483-2.446 0.788a28.054 28.054 0 0 0-0.27174 0.10869c-0.721 0.285-1.429 0.61-2.12 0.951a28.054 28.054 0 0 0-0.76087 0.38044c-1.497 0.798-2.919 1.726-4.239 2.772a28.054 28.054 0 0 0-0.0539 0.0543c-0.69 0.55-1.349 1.128-1.984 1.739a28.054 28.054 0 0 0-0.19026 0.19022c-0.541 0.531-1.052 1.084-1.549 1.658a28.054 28.054 0 0 0-0.40766 0.46196c-2.31 2.784-4.09 6.03-5.19 9.565a28.054 28.054 0 0 0 0 0.0271c-0.542 1.749-0.923 3.558-1.114 5.435a28.054 28.054 0 0 0 0 0.0543c-0.092 0.926-0.163 1.876-0.163 2.826a28.054 28.054 0 0 0 0.0539 1.4131c0.087 1.751 0.34 3.457 0.734 5.109a28.054 28.054 0 0 0 0.0817 0.32609c0.415 1.653 0.964 3.233 1.658 4.755a28.054 28.054 0 0 0 0.2174 0.48913c0.36 0.752 0.772 1.488 1.196 2.201a28.054 28.054 0 0 0 0.13583 0.24457c0.937 1.542 2.026 2.992 3.234 4.321a28.054 28.054 0 0 0 0.0817 0.0815c0.58 0.633 1.185 1.243 1.821 1.821a28.054 28.054 0 0 0 0.16313 0.13587c1.358 1.216 2.825 2.271 4.402 3.207a28.054 28.054 0 0 0 0.38052 0.24457c2.247 1.285 4.701 2.254 7.283 2.88a28.054 28.054 0 0 0 0.46191 0.1087c1.987 0.446 4.047 0.707 6.169 0.707 1.623 0 3.208-0.143 4.755-0.408a28.054 28.054 0 0 0 0.0817-0.0271c1.84-0.32 3.628-0.807 5.326-1.467a28.054 28.054 0 0 0 0.1087-0.0543c0.837-0.329 1.651-0.682 2.446-1.087a28.054 28.054 0 0 0 0.29888-0.16305c0.736-0.387 1.451-0.802 2.147-1.25a28.054 28.054 0 0 0 0.0817-0.0543c0.761-0.494 1.494-1.013 2.201-1.576a28.054 28.054 0 0 0 0.38052-0.32609c1.306-1.078 2.522-2.266 3.614-3.56a28.054 28.054 0 0 0 0.19026-0.24457c1.123-1.36 2.136-2.817 2.989-4.375a28.054 28.054 0 0 0 0.0548-0.0815c0.428-0.788 0.816-1.615 1.168-2.446a28.054 28.054 0 0 0 0-0.0271c0.721-1.704 1.284-3.47 1.658-5.326a28.054 28.054 0 0 0 0.0539-0.43479c0.309-1.667 0.489-3.379 0.489-5.136a28.054 28.054 0 0 0-0.0269-1.1685c-0.038-0.945-0.115-1.88-0.245-2.799a28.054 28.054 0 0 0-0.0539-0.32609c-0.416-2.725-1.223-5.31-2.364-7.717a28.054 28.054 0 0 0-0.0817-0.16305c-2.378-4.935-6.149-9.06-10.815-11.875a28.054 28.054 0 0 0-0.62505-0.35326c-2.309-1.312-4.814-2.319-7.473-2.935a28.054 28.054 0 0 0-0.1087-0.0271c-0.861-0.196-1.747-0.347-2.636-0.462a28.054 28.054 0 0 0-0.16305 0c-0.871-0.107-1.742-0.192-2.636-0.217a28.054 28.054 0 0 0-0.0539 0c-0.254-7e-3 -0.505-0.027-0.761-0.027z"/>
  <path d="m224.44 259.51c-1.575 0-3.115 0.131-4.62 0.38a28.054 28.054 0 0 0-0.3533 0.0815c-1.742 0.312-3.44 0.768-5.05 1.386a28.054 28.054 0 0 0-0.24461 0.10869c-0.775 0.305-1.543 0.635-2.283 1.01a28.054 28.054 0 0 0-0.38044 0.21739c-1.585 0.826-3.094 1.779-4.484 2.88a28.054 28.054 0 0 0-0.0548 0.0543c-1.353 1.078-2.59 2.281-3.723 3.587a28.054 28.054 0 0 0-0.40766 0.46196c-0.465 0.561-0.883 1.143-1.304 1.739a28.054 28.054 0 0 0-0.29888 0.38044c-0.977 1.436-1.826 2.982-2.527 4.592a28.054 28.054 0 0 0-0.1087 0.24456v0.027a28.054 28.054 0 0 0-0.0817 0.19022c-0.671 1.62-1.189 3.298-1.549 5.05a28.054 28.054 0 0 0-0.0539 0.29892c-0.158 0.818-0.295 1.658-0.381 2.5a28.054 28.054 0 0 0 0 0.0543c-0.092 0.926-0.136 1.849-0.136 2.799a28.054 28.054 0 0 0 0.0269 1.4402c0.233 4.681 1.606 9.05 3.859 12.853a28.054 28.054 0 0 0 0.16295 0.27174c0.937 1.542 2.026 2.992 3.234 4.321a28.054 28.054 0 0 0 0.0817 0.0815c0.58 0.633 1.185 1.243 1.821 1.821a28.054 28.054 0 0 0 0.16305 0.13587c0.688 0.616 1.4 1.193 2.147 1.739a28.054 28.054 0 0 0 0.19017 0.13587c0.604 0.434 1.236 0.837 1.875 1.223a28.054 28.054 0 0 0 0.67931 0.40761c2.22 1.258 4.629 2.209 7.174 2.826a28.054 28.054 0 0 0 0.46191 0.1087c0.813 0.183 1.635 0.324 2.473 0.435a28.054 28.054 0 0 0 0.0817 0.0271c1.183 0.152 2.39 0.245 3.614 0.245 0.67 0 1.325-0.035 1.984-0.082a28.054 28.054 0 0 0 0.3533-0.0543c0.814-0.068 1.626-0.136 2.419-0.272a28.054 28.054 0 0 0 0.0817-0.0271c0.901-0.157 1.794-0.357 2.663-0.598a28.054 28.054 0 0 0 0.10869-0.0271c0.868-0.244 1.722-0.519 2.554-0.842a28.054 28.054 0 0 0 0.1087-0.0543c1.72-0.677 3.357-1.512 4.891-2.5a28.054 28.054 0 0 0 0.51627-0.35327c0.602-0.407 1.199-0.826 1.766-1.277a28.054 28.054 0 0 0 0.0269-0.0271c0.719-0.573 1.406-1.181 2.065-1.821a28.054 28.054 0 0 0 0.29887-0.29891c1.881-1.881 3.495-4.03 4.783-6.386a28.054 28.054 0 0 0 0.0539-0.0815c1.296-2.385 2.238-4.978 2.799-7.717a28.054 28.054 0 0 0 0.10869-0.57066c0.301-1.646 0.462-3.349 0.462-5.082a28.054 28.054 0 0 0-0.027-1.1685c-0.038-0.938-0.116-1.86-0.245-2.772a28.054 28.054 0 0 0-0.0539-0.32609c-0.562-3.681-1.821-7.126-3.669-10.19a28.054 28.054 0 0 0-0.0539-0.0815c-2.42-3.982-5.814-7.316-9.837-9.674a28.054 28.054 0 0 0-0.1087-0.0543c-1.572-0.912-3.227-1.686-4.973-2.283a28.054 28.054 0 0 0-0.2174-0.0543c-0.818-0.272-1.65-0.51-2.5-0.707a28.054 28.054 0 0 0-0.10869-0.0271c-1.686-0.384-3.431-0.614-5.217-0.679a28.054 28.054 0 0 0-0.54349-0.0271c-0.164-3e-3 -0.325 0-0.489 0"/>
  <path d="m350.69 259.51c-1.626 0-3.232 0.142-4.783 0.408a28.054 28.054 0 0 0-0.13591 0.0271c-1.768 0.312-3.472 0.787-5.109 1.413a28.054 28.054 0 0 0-0.27165 0.10869c-0.721 0.285-1.429 0.61-2.12 0.951a28.054 28.054 0 0 0-0.76088 0.38043c-1.497 0.798-2.919 1.726-4.239 2.772a28.054 28.054 0 0 0-0.0539 0.0543c-0.696 0.555-1.371 1.122-2.01 1.739a28.054 28.054 0 0 0-0.16296 0.16304c-0.578 0.567-1.131 1.179-1.658 1.793a28.054 28.054 0 0 0-0.29887 0.35327c-0.518 0.624-1 1.261-1.467 1.929a28.054 28.054 0 0 0-0.1087 0.16305c-1.549 2.269-2.78 4.765-3.614 7.446a28.054 28.054 0 0 0-0.1087 0.38043c-0.442 1.497-0.763 3.057-0.951 4.647a28.054 28.054 0 0 0-0.1087 1.3315c-0.046 0.659-0.109 1.313-0.109 1.984a28.054 28.054 0 0 0 0.0548 1.4402c0.087 1.75 0.34 3.43 0.734 5.082a28.054 28.054 0 0 0 0.0817 0.35327c0.437 1.733 1.024 3.412 1.766 5a28.054 28.054 0 0 0 0.1087 0.2174c0.347 0.725 0.736 1.431 1.141 2.12a28.054 28.054 0 0 0 0.19027 0.35326c0.937 1.542 1.999 2.992 3.206 4.321a28.054 28.054 0 0 0 0.0817 0.0815c1.815 1.98 3.91 3.687 6.223 5.082a28.054 28.054 0 0 0 0.78809 0.43479c2.19 1.227 4.563 2.165 7.07 2.772a28.054 28.054 0 0 0 0.46201 0.10869c1.987 0.446 4.047 0.707 6.168 0.707 0.67 0 1.325-0.035 1.984-0.082a28.054 28.054 0 0 0 0.35322-0.0543c0.814-0.068 1.626-0.136 2.418-0.272a28.054 28.054 0 0 0 0.0817-0.0271c0.901-0.157 1.794-0.357 2.663-0.598a28.054 28.054 0 0 0 0.1087-0.0271c0.872-0.245 1.719-0.517 2.554-0.842a28.054 28.054 0 0 0 0.19026-0.0815c1.678-0.668 3.282-1.508 4.783-2.473a28.054 28.054 0 0 0 0.0539-0.0271c0.775-0.501 1.508-1.031 2.228-1.603a28.054 28.054 0 0 0 0.027-0.0271c0.719-0.573 1.433-1.181 2.092-1.821a28.054 28.054 0 0 0 0.29896-0.29892c0.567-0.567 1.087-1.153 1.603-1.766a28.054 28.054 0 0 0 0.19017-0.21739c1.126-1.364 2.134-2.84 2.989-4.402a28.054 28.054 0 0 0 0.0269-0.0815c2.159-3.975 3.397-8.528 3.397-13.37a28.054 28.054 0 0 0-0.0269-1.1685c-0.038-0.938-0.116-1.86-0.245-2.772a28.054 28.054 0 0 0-0.0539-0.32609c-0.126-0.826-0.293-1.645-0.489-2.446a28.054 28.054 0 0 0-0.0817-0.29891c-0.446-1.733-1.041-3.386-1.793-4.973a28.054 28.054 0 0 0-0.0817-0.16304c-2.428-5.04-6.312-9.25-11.11-12.07a28.054 28.054 0 0 0-0.1087-0.0543c-1.579-0.916-3.245-1.685-5-2.283a28.054 28.054 0 0 0-0.0817-0.0271c-0.852-0.287-1.723-0.528-2.609-0.734a28.054 28.054 0 0 0-0.1087-0.0271c-1.686-0.384-3.431-0.614-5.217-0.679a28.054 28.054 0 0 0-0.54348-0.0271c-0.164-3e-3 -0.325 0-0.489 0"/>
  <path d="m161.31 322.63c-0.67 0-1.325 8e-3 -1.984 0.054a28.054 28.054 0 0 0-0.29896 0.0271c-0.833 0.067-1.662 0.187-2.473 0.326a28.054 28.054 0 0 0-0.1087 0.0271c-0.892 0.156-1.775 0.332-2.636 0.571a28.054 28.054 0 0 0-0.0817 0.0271c-0.821 0.23-1.629 0.514-2.419 0.815a28.054 28.054 0 0 0-0.27165 0.1087c-0.781 0.308-1.537 0.631-2.283 1.01a28.054 28.054 0 0 0-0.24461 0.13587c-1.632 0.839-3.193 1.832-4.62 2.962a28.054 28.054 0 0 0-0.0539 0.0543c-1.353 1.078-2.591 2.281-3.723 3.587a28.054 28.054 0 0 0-0.40757 0.46196c-0.465 0.561-0.883 1.143-1.304 1.739a28.054 28.054 0 0 0-0.29887 0.38043c-2.045 3-3.512 6.423-4.266 10.11a28.054 28.054 0 0 0-0.0817 0.51631c-0.139 0.748-0.275 1.515-0.353 2.283a28.054 28.054 0 0 0 0 0.0543c-0.092 0.926-0.136 1.849-0.136 2.799a28.054 28.054 0 0 0 0.0269 1.1685c0.035 0.852 0.108 1.697 0.217 2.527a28.054 28.054 0 0 0 0.0817 0.48913c0.84 5.604 3.317 10.669 6.957 14.674a28.054 28.054 0 0 0 0.38053 0.40761c0.489 0.517 0.995 1.016 1.522 1.495a28.054 28.054 0 0 0 0.35322 0.32609c1.992 1.75 4.253 3.214 6.685 4.348a28.054 28.054 0 0 0 0.38044 0.19022c1.578 0.706 3.23 1.278 4.946 1.685a28.054 28.054 0 0 0 0.24461 0.0543c0.826 0.188 1.676 0.321 2.527 0.435a28.054 28.054 0 0 0 0.1087 0.0271c1.187 0.153 2.385 0.245 3.614 0.245 0.667 0 1.329-0.036 1.984-0.082a28.054 28.054 0 0 0 0.32609-0.0271c0.839-0.068 1.657-0.159 2.473-0.299a28.054 28.054 0 0 0 0.19026-0.0543c0.854-0.153 1.702-0.342 2.527-0.571a28.054 28.054 0 0 0 0.0817-0.0271c2.716-0.761 5.266-1.906 7.582-3.397a28.054 28.054 0 0 0 0.51626-0.35327c0.602-0.407 1.199-0.826 1.766-1.277a28.054 28.054 0 0 0 0.027-0.0271c0.718-0.572 1.407-1.182 2.065-1.821a28.054 28.054 0 0 0 0.29896-0.29891c0.567-0.567 1.114-1.153 1.63-1.766a28.054 28.054 0 0 0 0.0269-0.0271c0.59-0.702 1.138-1.443 1.658-2.201a28.054 28.054 0 0 0 0.1087-0.16305c0.486-0.72 0.94-1.463 1.359-2.228a28.054 28.054 0 0 0 0.0539-0.0815c1.309-2.409 2.268-5.03 2.826-7.799a28.054 28.054 0 0 0 0.0269-0.21739c0.335-1.735 0.516-3.521 0.516-5.353a28.054 28.054 0 0 0-0.027-1.4402c-0.241-4.747-1.654-9.18-3.967-13.02a28.054 28.054 0 0 0-0.0539-0.0815c-0.472-0.777-0.978-1.53-1.522-2.255a28.054 28.054 0 0 0-0.27174-0.32609c-1.055-1.365-2.221-2.656-3.506-3.804a28.054 28.054 0 0 0-0.35322-0.27174c-2.543-2.201-5.476-3.957-8.696-5.136a28.054 28.054 0 0 0-0.27174-0.1087c-0.099-0.035-0.199-0.075-0.299-0.109a28.054 28.054 0 0 0-0.21739-0.0543c-1.565-0.521-3.191-0.902-4.864-1.141a28.054 28.054 0 0 0-0.70653-0.1087c-0.723-0.084-1.463-0.135-2.201-0.163a28.054 28.054 0 0 0-0.67931-0.0271c-0.137-2e-3 -0.271 0-0.408 0"/>
  <path d="m287.56 322.63c-0.667 0-1.329 9e-3 -1.984 0.054a28.054 28.054 0 0 0-0.27175 0.0271c-0.792 0.063-1.565 0.172-2.337 0.299a28.054 28.054 0 0 0-0.40757 0.0815c-0.845 0.152-1.683 0.317-2.5 0.543a28.054 28.054 0 0 0-0.0817 0.0271c-0.821 0.23-1.629 0.514-2.418 0.815a28.054 28.054 0 0 0-0.29896 0.1087c-0.749 0.296-1.485 0.622-2.201 0.978a28.054 28.054 0 0 0-0.40766 0.19021c-1.599 0.83-3.111 1.825-4.511 2.935a28.054 28.054 0 0 0-0.0539 0.0543c-1.353 1.078-2.591 2.281-3.723 3.587a28.054 28.054 0 0 0-0.40765 0.46196c-0.518 0.624-1 1.261-1.467 1.929a28.054 28.054 0 0 0-0.1087 0.16304c-2.565 3.756-4.245 8.171-4.728 12.935a28.054 28.054 0 0 0 0 0.0543c-0.092 0.926-0.163 1.849-0.163 2.799a28.054 28.054 0 0 0 0.0539 1.4674c0.089 1.732 0.344 3.42 0.734 5.05a28.054 28.054 0 0 0 0.0817 0.35326c1.143 4.535 3.392 8.63 6.44 11.984a28.054 28.054 0 0 0 0.38035 0.40761c0.489 0.517 0.995 1.016 1.522 1.495a28.054 28.054 0 0 0 0.38052 0.35326c0.619 0.542 1.264 1.062 1.929 1.549a28.054 28.054 0 0 0 0.13592 0.10869c1.459 1.054 3.02 1.956 4.674 2.717a28.054 28.054 0 0 0 0.16295 0.0815c1.572 0.712 3.235 1.27 4.946 1.685a28.054 28.054 0 0 0 0.46192 0.1087c0.813 0.183 1.635 0.324 2.473 0.435a28.054 28.054 0 0 0 0.0817 0.0271c1.183 0.152 2.39 0.245 3.614 0.245 0.67 0 1.325-0.035 1.984-0.082a28.054 28.054 0 0 0 0.35322-0.0543c0.814-0.068 1.626-0.136 2.419-0.272a28.054 28.054 0 0 0 0.0817-0.0271c0.901-0.157 1.794-0.357 2.663-0.598a28.054 28.054 0 0 0 0.0817-0.0271c2.716-0.761 5.266-1.906 7.582-3.397a28.054 28.054 0 0 0 0.51636-0.35327c0.608-0.411 1.193-0.821 1.766-1.277a28.054 28.054 0 0 0 0.38053-0.32609c0.584-0.482 1.169-0.995 1.712-1.522a28.054 28.054 0 0 0 0.29887-0.29892c0.566-0.566 1.087-1.154 1.603-1.766a28.054 28.054 0 0 0 0.19026-0.21739c0.531-0.643 1.049-1.322 1.522-2.01a28.054 28.054 0 0 0 0.1087-0.16305c0.486-0.72 0.94-1.463 1.359-2.228a28.054 28.054 0 0 0 0.0548-0.0815c1.309-2.409 2.268-5.03 2.826-7.799a28.054 28.054 0 0 0 0.0539-0.43479c0.309-1.667 0.489-3.379 0.489-5.136a28.054 28.054 0 0 0-0.027-1.1685c-0.038-0.938-0.116-1.86-0.245-2.772a28.054 28.054 0 0 0-0.0539-0.32609c-0.416-2.723-1.224-5.311-2.364-7.717a28.054 28.054 0 0 0-0.0817-0.16305c-0.791-1.642-1.717-3.202-2.799-4.647a28.054 28.054 0 0 0-0.84235-1.0326c-0.858-1.039-1.775-2.029-2.772-2.935a28.054 28.054 0 0 0-1.0325-0.86957c-2.425-2-5.172-3.6-8.179-4.701a28.054 28.054 0 0 0-0.29888-0.1087c-0.091-0.032-0.18-0.077-0.272-0.109a28.054 28.054 0 0 0-0.2174-0.0543c-1.563-0.52-3.192-0.902-4.864-1.141a28.054 28.054 0 0 0-0.76088-0.10869c-0.711-0.082-1.42-0.135-2.147-0.163a28.054 28.054 0 0 0-0.6794-0.0271c-0.137-2e-3 -0.271 0-0.408 0z"/>
  <path d="m350.69 322.63c-0.661 0-1.334 9e-3 -1.984 0.054a28.054 28.054 0 0 0-0.24452 0.0271c-0.826 0.064-1.641 0.164-2.446 0.299a28.054 28.054 0 0 0-0.27174 0.0543c-0.824 0.146-1.621 0.327-2.418 0.543a28.054 28.054 0 0 0-0.38052 0.10869c-0.764 0.219-1.519 0.48-2.255 0.761a28.054 28.054 0 0 0-0.29887 0.10869c-0.749 0.296-1.486 0.622-2.201 0.978a28.054 28.054 0 0 0-0.40757 0.19022c-1.599 0.83-3.111 1.825-4.511 2.935a28.054 28.054 0 0 0-0.0539 0.0543c-0.701 0.559-1.367 1.144-2.01 1.766a28.054 28.054 0 0 0-0.16296 0.13587c-0.578 0.567-1.131 1.179-1.658 1.793a28.054 28.054 0 0 0-0.29887 0.35326c-0.518 0.624-1 1.261-1.467 1.929a28.054 28.054 0 0 0-0.1087 0.16305c-1.549 2.269-2.78 4.765-3.614 7.446a28.054 28.054 0 0 0-0.1087 0.38044c-0.442 1.497-0.763 3.057-0.951 4.647a28.054 28.054 0 0 0-0.1087 1.3315c-0.046 0.659-0.109 1.313-0.109 1.984a28.054 28.054 0 0 0 0.0548 1.4674c0.089 1.732 0.344 3.42 0.734 5.05a28.054 28.054 0 0 0 0.0817 0.35327c1.143 4.535 3.364 8.63 6.413 11.984a28.054 28.054 0 0 0 0.51635 0.54348c0.45 0.47 0.904 0.921 1.386 1.359a28.054 28.054 0 0 0 0.19018 0.16304c1.385 1.236 2.9 2.343 4.511 3.288a28.054 28.054 0 0 0 0.027 0.0271c0.781 0.457 1.592 0.869 2.419 1.25a28.054 28.054 0 0 0 0.16304 0.0815c1.572 0.712 3.235 1.27 4.946 1.685a28.054 28.054 0 0 0 0.46201 0.1087c1.987 0.446 4.047 0.707 6.168 0.707 0.67 0 1.325-0.035 1.984-0.082a28.054 28.054 0 0 0 0.35322-0.0543c0.814-0.068 1.626-0.136 2.418-0.272a28.054 28.054 0 0 0 0.0817-0.0271c0.901-0.157 1.794-0.357 2.663-0.598a28.054 28.054 0 0 0 0.0817-0.0271c2.708-0.759 5.244-1.912 7.555-3.397a28.054 28.054 0 0 0 0.0539-0.0271c0.775-0.501 1.508-1.031 2.228-1.603a28.054 28.054 0 0 0 0.0269-0.0271c0.718-0.572 1.434-1.182 2.092-1.821a28.054 28.054 0 0 0 0.29896-0.29891c0.566-0.566 1.087-1.154 1.603-1.766a28.054 28.054 0 0 0 0.19018-0.2174c0.531-0.643 1.049-1.322 1.522-2.01a28.054 28.054 0 0 0 0.10869-0.16305c0.489-0.723 0.938-1.459 1.359-2.228a28.054 28.054 0 0 0 0.027-0.0815c2.159-3.975 3.397-8.528 3.397-13.37a28.054 28.054 0 0 0-0.027-1.1685c-0.038-0.938-0.116-1.86-0.245-2.772a28.054 28.054 0 0 0-0.0539-0.32609c-0.126-0.826-0.293-1.645-0.489-2.446a28.054 28.054 0 0 0-0.0817-0.29892c-0.209-0.813-0.455-1.609-0.734-2.391a28.054 28.054 0 0 0-0.0817-0.24457c-0.293-0.801-0.616-1.572-0.978-2.337a28.054 28.054 0 0 0-0.0817-0.16305c-0.791-1.642-1.717-3.202-2.799-4.647a28.054 28.054 0 0 0-0.84235-1.0326c-0.911-1.103-1.895-2.146-2.962-3.098a28.054 28.054 0 0 0-0.0817-0.0543c-2.755-2.443-5.977-4.358-9.538-5.571a28.054 28.054 0 0 0-0.0817-0.0271c-1.595-0.538-3.264-0.924-4.973-1.168a28.054 28.054 0 0 0-0.76088-0.1087c-0.711-0.082-1.42-0.135-2.147-0.163a28.054 28.054 0 0 0-0.6794-0.0271c-0.136-2e-3 -0.271 0-0.408 0"/>
 </g>
</svg>
