<svg height="512" viewBox="0 0 512 512" width="512" xmlns="http://www.w3.org/2000/svg">
 <g fill="#3a3a3a" fill-rule="evenodd" transform="matrix(1.4625341 0 0 1.4625341 -118.41267 -118.39093)">
  <path d="m161.38 124.63c-16.11 0-29.18 13.08-29.18 29.18 0 15.888 12.754 28.833 28.561 29.18-15.817 20.648-25.418 46.33-25.418 74.38 0 26.864 8.607 51.68 23.23 71.866-14.713 1.496-26.362 13.769-26.362 28.873 0 16.11 13.08 29.18 29.18 29.18 15.576 0 28.04-12.252 28.873-27.617 19.222 12.674 42.37 20.09 67.17 20.09 21.522 0 41.737-5.614 59.31-15.375 2.832 13.146 14.572 22.907 28.561 22.907 16.11 0 29.18-13.08 29.18-29.18 0-12.684-8.145-23.279-19.463-27.306 15.436-20.487 24.795-45.825 24.795-73.44 0-28.592-9.922-54.793-26.362-75.63 12.13-3.545 21.03-14.662 21.03-27.929 0-16.11-13.08-29.18-29.18-29.18-14.843 0-27.03 11.08-28.873 25.418-17.484-9.631-37.63-15.06-59-15.06-24.695 0-47.673 7.502-66.844 20.09.02-.412 0-.834 0-1.255 0-16.11-13.08-29.18-29.18-29.18m0 17.575c6.307 0 11.609 5.313 11.609 11.609 0 6.307-5.313 11.298-11.609 11.298-6.307 0-11.298-4.991-11.298-11.298 0-6.307 4.991-11.609 11.298-11.609m183.91 0c6.307 0 11.609 5.313 11.609 11.609 0 6.307-5.313 11.298-11.609 11.298-6.307 0-11.298-4.991-11.298-11.298 0-6.307 4.991-11.609 11.298-11.609m-87.87 11.931c57.08 0 103.57 46.18 103.57 103.25 0 57.08-46.49 103.25-103.57 103.25-57.08 0-103.25-46.18-103.25-103.25 0-57.08 46.18-103.25 103.25-103.25m-96.04 192.42c6.307 0 11.609 5.313 11.609 11.609 0 6.307-5.313 11.298-11.609 11.298-6.307 0-11.298-4.991-11.298-11.298 0-6.307 4.991-11.609 11.298-11.609m183.91 0c6.307 0 11.609 5.313 11.609 11.609 0 6.307-5.313 11.298-11.609 11.298-6.307 0-11.298-4.991-11.298-11.298 0-6.307 4.991-11.609 11.298-11.609"/>
  <path d="m289.3 257.47c0 17.509-14.194 31.703-31.703 31.703-17.509 0-31.703-14.194-31.703-31.703 0-17.509 14.194-31.703 31.703-31.703 17.509 0 31.703 14.194 31.703 31.703"/>
  <path d="m257.39 171.13c-47.622 0-85.996 38.684-85.996 86.31 0 47.622 38.36 86.31 85.996 86.31 47.622 0 86.31-38.684 86.31-86.31 0-47.622-38.684-86.31-86.31-86.31m0 38.29c26.613 0 48.34 21.401 48.34 48.01 0 26.613-21.722 48.34-48.34 48.34-26.613 0-48.01-21.722-48.01-48.34 0-26.613 21.401-48.01 48.01-48.01"/>
 </g>
</svg>
