<svg viewBox="0 0 512 512" xmlns="http://www.w3.org/2000/svg">
 <path d="m298.01 281.46c3.738-13.967 22.405-19.794 28.2-34.08 20.561-31.843 14.473-77.83-14.03-102.97-24.07-24.521-64.46-28.498-94.41-13.08-31.616 17.05-50.584 55.57-41.957 90.9 4.374 21.333 18.55 39.61 36.09 52.01 5.58 3.594-1.893 15.746 7.602 12.93h78.5v-5.708m-.272 36.12c-1.045-3.707 2.198-11.867-4.084-10.136h-78.67c-.255 6.757-.509 13.515-.764 20.272h83.9c-.127-3.379-.255-6.757-.382-10.136m.272 41.525c-1.127-3.348 2.752-11.703-2.961-10.463h-80.72v20.926h83.68v-10.463m-82.27 29.971h-21.03v-101.77c-34.558-25.758-50.685-74.07-36.2-115.07 13.596-42.04 56.669-73.3 101.2-70.1 52.31-.304 99.54 47.23 98.91 99.59 2.081 31.545-13.611 62.08-37.11 82.43-4.753 2.507-4.04 7.329-3.89 11.915v93h-21.03v21.04h-80.85z" fill="#3a3a3a"/>
</svg>
