<?xml version="1.0" encoding="UTF-8"?>
<svg width="512" height="512" version="1.1" viewBox="0 0 512 512" xmlns="http://www.w3.org/2000/svg">
 <g transform="matrix(1.6596 0 0 1.6596 -136.62 -197.55)" style="fill:#3a3a3a">
  <path d="m256.15 264.27 25.294 26.449 32.152 19.884 5.5391-46.171-5.5391-45.113-32.749 17.443z" fill="#00832d" style="fill:#3a3a3a;stroke-width:11.489"/>
  <g style="fill:#3a3a3a">
   <path d="m175.72 166.61-57.446 57.446 28.777 8.0272 28.669-8.0272 8.2398-27.362z" fill="#e94235" style="fill:#3a3a3a;stroke-width:11.489"/>
   <g style="fill:#3a3a3a">
    <path d="m118.28 304.48v41.17c0 8.9927 7.3238 16.276 16.366 16.276h41.08l8.9514-29.732-8.9514-27.715-28.669-8.0272z" fill="#0066da" style="fill:#3a3a3a;stroke-width:11.489"/>
    <path d="m175.72 224.06h-57.446v80.425h57.446z" fill="#2684fc" style="fill:#3a3a3a;stroke-width:11.489"/>
    <path d="m256.15 264.27v40.212h-80.425v57.446h121.13c8.9927 0 16.738-7.2837 16.738-16.276v-35.049z" style="fill:#3a3a3a;stroke-width:11.489"/>
    <path d="m347.02 191.4-33.428 27.917v91.284l33.581 26.65c5.0269 4.0698 12.376 0.35674 12.376-6.2632v-133.46c0-6.6993-7.5149-10.373-12.529-6.1311z" style="fill:#3a3a3a;stroke-width:11.489"/>
    <path d="m297.23 166.61h-121.51v57.446h80.425v40.212l57.446-44.95v-36.432c0-8.9927-7.3238-16.276-16.366-16.276z" fill="#ffba00" style="fill:#3a3a3a;stroke-width:11.489"/>
   </g>
  </g>
 </g>
</svg>
