<svg viewBox="0 0 512 512" xmlns="http://www.w3.org/2000/svg">
 <path d="m112.87 153.28c-7.672 7.672-7.653 20.02.018 27.69l65.12 65.12c-.785 6.547-.747 13.169.091 19.711.001.005-.019.013-.018.018l-65.21 65.21c-7.672 7.672-7.653 20.02.018 27.689l40.4 40.4c7.672 7.672 20 7.672 27.671 0l64.65-64.65c6.969 1.01 14.05 1.092 21.03.254l64.39 64.39c7.672 7.672 20 7.672 27.671 0l40.4-40.4c7.672-7.672 7.69-20.02.018-27.689l-63.27-63.27c1.199-7.825 1.226-15.795.091-23.628l63.16-63.16c7.672-7.672 7.69-20.02.018-27.689l-40.4-40.4c-7.672-7.672-20.04-7.672-27.708 0l-63.72 63.72c-7.411-.95-14.931-.86-22.322.272l-63.992-63.992c-7.672-7.672-20.04-7.672-27.708 0l-40.4 40.4m83.61 50.646c-.272.319-.55.639-.816.961.267-.323.543-.642.816-.961m-3.989 5.077c-.274.378-.55.76-.816 1.142.268-.385.541-.762.816-1.142m-4.03 6.129c-.169.286-.342.582-.508.87.167-.292.337-.581.508-.87m21.2-6.945c26.2-26.2 68.68-26.2 94.87 0 26.2 26.2 26.2 68.68 0 94.87-26.2 26.2-68.68 26.2-94.87 0-26.2-26.2-26.2-68.68 0-94.87m78.06-26.13c.98.407 1.953.839 2.919 1.287-.968-.449-1.937-.879-2.919-1.287m14.851 8.142c.398.278.784.567 1.179.852-.392-.284-.783-.576-1.179-.852m-110.85 110.99c.256.367.535.724.798 1.088-.265-.366-.54-.719-.798-1.088m104.99 23.573c.288-.165.584-.339.87-.508-.29.171-.579.341-.87.508m5.857-3.717c.382-.266.764-.542 1.142-.816-.381.275-.758.548-1.142.816m5.259-3.989c.322-.266.642-.544.961-.816-.32.273-.638.549-.961.816" fill="#3a3a3a"/>
</svg>
