<svg width="512" height="512" version="1.1" viewBox="0 0 512 512" xmlns="http://www.w3.org/2000/svg">
 <g transform="matrix(8.7464 8.7464 -8.7464 8.7464 263.44 -141.52)" fill="#3a3a3a">
  <path d="m14.663 11.841c-1.206 1.252-1.828 2.142-1.879 3.104-0.026 0.481 0.152 0.947 0.418 1.281s0.596 0.566 0.943 0.775c1.389 0.837 3.03 1.256 3.856 2.964l1.348-0.656c-1.136-2.337-3.343-2.936-4.43-3.591-1.12-0.827 0.112-2.01 0.824-2.836z" fill-rule="evenodd" solid-color="#000000" style="isolation:auto;mix-blend-mode:normal;white-space:normal" isolation="auto" mix-blend-mode="normal"/>
  <circle transform="rotate(-45)" cx="-.679" cy="36.09" r="10" fill-rule="evenodd"/>
  <rect transform="rotate(-45)" x="-3.68" y="24.09" width="6" height="3"/>
  <path transform="matrix(.72205 -.72205 .71842 .71842 -6.6474 26.253)" d="m26.632 7.483c-0.318 0.33-1.627-1.178-2.079-1.088s-1.184 1.876-1.596 1.689 0.774-1.884 0.559-2.281-2.281-0.546-2.204-0.991 2.052 0.144 2.363-0.193-0.252-2.35 0.201-2.425 0.599 1.975 1.016 2.165 2.065-0.884 2.276-0.485-1.697 1.119-1.768 1.574 1.549 1.704 1.23 2.035z"/>
 </g>
</svg>
