<svg height="512" viewBox="0 0 512 512" width="512" xmlns="http://www.w3.org/2000/svg">
 <g fill="#3a3a3a" transform="matrix(1.309589 0 0 1.3672928 23.143506 47.029417)">
  <path d="m146.3 3.533a22.694 21.737 0 0 0 -22.7 21.746 22.694 21.737 0 0 0 22.7 21.721 22.694 21.737 0 0 0 22.68-21.721 22.694 21.737 0 0 0 -22.68-21.746m50.801.212a17.02 16.302 0 0 0 -17.011 16.295 17.02 16.302 0 0 0 17.02 16.3 17.02 16.302 0 0 0 17.01-16.3 17.02 16.302 0 0 0 -17.01-16.295m44.645 2.807a15.13 14.491 0 0 0 -15.145 14.478 15.13 14.491 0 0 0 15.14 14.509 15.13 14.491 0 0 0 15.12-14.509 15.13 14.491 0 0 0 -15.12-14.478m-160.752 10.661a35.3 33.812 0 0 0 -35.312 33.817 35.3 33.812 0 0 0 35.312 33.8 35.3 33.812 0 0 0 35.292-33.8 35.3 33.812 0 0 0 -35.292-33.817m143.732 30.217c-2.543-.053-5.101.014-7.634.165-11.46.685-90.85 28.436-101.36 38.09-15.22 13.983-12.305 39.32-1.65 56.35 11.432 18.268 40.14 19.265 64.862 18.04 21.18-1.047 54.43 23.971 38.32 53.23-17.12 31.08-30.19 51.35-27.432 68.35 2.758 16.998 21.337 30.739 57.2 35.28 54.54 6.911 101.7-49.744 60.16-120.52-11.421-19.46-22.02-29.934-31.05-40.28-27.596-31.655-15.246-71.265-15.556-78.189-1.07-23.916-18.06-30.148-35.86-30.516" opacity=".1"/>
  <ellipse cx="68.38" cy="38.961" rx="35.3" ry="33.812"/>
  <ellipse cx="133.69" cy="13.2" rx="22.694" ry="21.737"/>
  <ellipse cx="184.5" cy="7.98" rx="17.02" ry="16.302"/>
  <ellipse cx="229.13" cy="8.973" rx="15.13" ry="14.491"/>
  <path d="m204.5 35.517c20.26-1.212 42.25 3.02 43.47 30.347.309 6.921-12.04 46.543 15.564 78.19 9.03 10.351 19.65 20.823 31.07 40.28 41.539 70.779-5.62 127.44-60.16 120.52-35.866-4.545-54.46-18.276-57.22-35.27-2.758-16.998 10.317-37.26 27.434-68.34 16.11-29.26-17.13-54.28-38.31-53.23-24.719 1.222-53.42.206-64.853-18.06-10.655-17.03-13.589-42.36 1.631-56.34 10.509-9.655 89.91-37.408 101.37-38.09z"/>
 </g>
</svg>
