<?xml version="1.0" encoding="UTF-8" standalone="no"?>
<svg
   width="512"
   height="512"
   version="1.1"
   viewBox="0 0 512 512"
   id="svg45"
   xmlns="http://www.w3.org/2000/svg"
   xmlns:svg="http://www.w3.org/2000/svg">
  <defs
     id="defs7">
    <clipPath
       id="clipPath-283653061">
      <g
         transform="translate(0 -1004.4)"
         id="g4">
        <path
           transform="matrix(15.333 0 0 11.5 415 878.86)"
           d="m-24 13c0 1.105-0.672 2-1.5 2s-1.5-0.895-1.5-2 0.672-2 1.5-2 1.5 0.895 1.5 2z"
           fill="#1890d0"
           id="path2" />
      </g>
    </clipPath>
  </defs>
  <g
     id="g53"
     transform="matrix(12.604975,0,0,12.604975,-44.478581,-58.406288)"
     style="fill:#3a3a3a;fill-opacity:1">
    <g
       id="g51"
       style="fill:#3a3a3a;fill-opacity:1">
      <!-- color: #3b5d80 -->
      <g
         id="g49"
         style="fill:#3a3a3a;fill-opacity:1">
        <path
           d="m 26,9 h -4 v 15 h 4 M 26,9"
           style="fill:#3a3a3a;fill-opacity:1;fill-rule:nonzero;stroke:none"
           id="path33-3" />
        <path
           d="m 20,9.5 c -6.359,1.766 -11,7.617 -11,14.469 0,8.23 6.715,15.03 15,15.03 8.285,0 15,-6.801 15,-15.03 C 39,17.117 34.359,11.266 28,9.5 v 3.875 c 4.184,1.645 7.25,5.75 7.25,10.594 0,6.313 -5.04,11.375 -11.25,11.375 -6.203,0 -11.25,-5.063 -11.25,-11.375 0,-4.895 3.01,-9.05 7.25,-10.656 M 20,9.5"
           style="fill:#3a3a3a;fill-opacity:1;fill-rule:nonzero;stroke:none"
           id="path35-6" />
        <path
           d="m 23.25,16 v 16 h 1.5 V 16 m -1.5,0"
           style="fill:#3a3a3a;fill-opacity:1;fill-rule:nonzero;stroke:none"
           id="path37-7" />
        <path
           d="m 26.5,28.5 c 0,0.828 -1.117,1.5 -2.5,1.5 -1.383,0 -2.5,-0.672 -2.5,-1.5 0,-0.828 1.117,-1.5 2.5,-1.5 1.383,0 2.5,0.672 2.5,1.5 m 0,0"
           style="fill:#3a3a3a;fill-opacity:1;fill-rule:nonzero;stroke:none"
           id="path39" />
        <path
           d="M 19.25,31 V 17 h -1.5 v 14 m 1.5,0"
           style="fill:#3a3a3a;fill-opacity:1;fill-rule:nonzero;stroke:none"
           id="path41-5" />
        <path
           d="M 21,21.5 C 21,22.328 19.883,23 18.5,23 17.117,23 16,22.328 16,21.5 16,20.672 17.117,20 18.5,20 c 1.383,0 2.5,0.672 2.5,1.5 m 0,0"
           style="fill:#3a3a3a;fill-opacity:1;fill-rule:nonzero;stroke:none"
           id="path43" />
        <path
           d="M 30.25,31 V 17 h -1.5 v 14 m 1.5,0"
           style="fill:#3a3a3a;fill-opacity:1;fill-rule:nonzero;stroke:none"
           id="path45" />
        <path
           d="M 32,21.5 C 32,22.328 30.883,23 29.5,23 28.117,23 27,22.328 27,21.5 27,20.672 28.117,20 29.5,20 c 1.383,0 2.5,0.672 2.5,1.5 m 0,0"
           style="fill:#3a3a3a;fill-opacity:1;fill-rule:nonzero;stroke:none"
           id="path47" />
      </g>
    </g>
  </g>
</svg>
