<svg height="512" viewBox="0 0 512 512" width="512" xmlns="http://www.w3.org/2000/svg">
 <g fill="#3a3a3a" transform="matrix(1.5807643 0 0 1.5807643 -51.077575 -51.818251)">
  <path d="m58.22 278.64l66.24-55.21c9.379 14.422 21.684 26.73 36.09 36.11l-55.19 66.24c-6.137 7.363-16.723 7.859-23.508 1.074l-24.699-24.69c-6.785-6.785-6.289-17.371 1.074-23.508"/>
  <path d="m122.18 157.09c0-57.836 46.891-104.73 104.73-104.73 57.836 0 104.73 46.895 104.73 104.73 0 57.836-46.895 104.73-104.73 104.73-57.836 0-104.73-46.891-104.73-104.73m104.73 78.55c43.31 0 78.55-35.23 78.55-78.55 0-43.31-35.23-78.55-78.55-78.55-43.31 0-78.55 35.23-78.55 78.55 0 43.31 35.23 78.55 78.55 78.55"/>
 </g>
</svg>
