<?xml version="1.0" encoding="UTF-8"?>
<svg width="512" height="512" version="1.1" viewBox="0 0 512 512" xmlns="http://www.w3.org/2000/svg" xmlns:cc="http://creativecommons.org/ns#" xmlns:dc="http://purl.org/dc/elements/1.1/" xmlns:rdf="http://www.w3.org/1999/02/22-rdf-syntax-ns#">
 <style/>
 <metadata>
  <rdf:RDF>
   <cc:Work rdf:about="">
    <dc:format>image/svg+xml</dc:format>
    <dc:type rdf:resource="http://purl.org/dc/dcmitype/StillImage"/>
    <dc:title/>
   </cc:Work>
  </rdf:RDF>
 </metadata>
 <path d="m355.02 80.657c-19.174 17.653 0 41.578 38.305 108.67 76.653 114.96-38.305 258.65-134.13 172.42-15.394-20.535-14.366-19.116-28.732-28.732-19.116-19.174 13.743-35.249 19.174-47.921 6.9513-14.916 15.438-27.95 31.049-22.968 12.165 4.0839 28.283-9.4422 23.939-19.116-3.7363-8.0374-13.077-11.079-24.663-10.977-9.616 0.0543-20.767 2.2737-31.628 5.5466-13.685 4.5328-32.251 37.957-50.238 32.584-20.304-8.9933-45.372 4.3011-45.372-21.549 0-38.638 22.693-28.167 32.251-28.167 11.585-2.2737 17.871-15.785 19.464-20.883 1.6944-5.648-2.7226-15.047-17.089-19.797-1.593-12.339-9.5581-19.174-19.116-23.982 9.5581-19.116 7.1831-23.939 4.7502-31.122-11.933 2.3751-25.966 10.079-27.603 17.885-1.0134 5.0252-5.8941 3.6783-5.8941 3.6783-4.808-2.3895-13.179-2.3895-19.174 1.1876-2.433 1.1875-5.7058 1.4626-4.5184-3.6784 1.6944-7.183-0.29002-11.875-5.0976-21.506-14.366 4.808-19.116 19.174-14.366 38.363-16.176 28.167-28.732 51.252-28.732 86.211 0 106.12 85.472 191.6 191.6 191.6 106.18 0 191.6-85.472 191.6-191.6 0-71.222-38.406-133.12-95.769-166.15z" fill="#3a3a3a"/>
</svg>
