<svg height="1814.17" viewBox="0 0 512 512" width="1814.17" xmlns="http://www.w3.org/2000/svg">
 <path d="m89.851012-24.877339v131.764689h32.346328v-131.764689zm48.409068 0v131.764689h29.11373v-73.978954l13.61621 73.978954h20.04729l13.30197-73.978954v73.978954h27.57672v-131.764689h-43.76497l-7.52939 62.117629-10.85541-62.117629h-41.50213m120.69145 0v131.764689h36.30182c20.63257 0 27.54557-2.27688 33.35024-6.83969 5.73642-4.562822 8.5966-10.973868 8.5966-19.164881v-79.7515248c0-8.8264905-3.07703-15.3770542-9.22403-19.6076022-6.13497-4.274675-11.35133-6.400004-32.8473-6.400004h-36.1713m88.56595 0v131.764722h26.66718c0 0 2.05001-7.835592 4.29778-6.83973 2.26986.97481 13.71957 5.77257 21.61542 5.77257 7.89585 0 11.08329-.51603 14.93334-2.13333 4.7174-3.13425 7.0877-7.385854 7.0877-12.768896v-76.639362c.80815-11.0411381-10.95983-17.7122108-19.95297-18.1308413-9.00418-.4096-18.28242 5.4171921-21.61542 9.1608106v-30.1778993h-33.03504m-55.30602 20.9879861c5.02964-.022766 10.35342.2458738 10.35342 5.8669362v77.2708167c0 6.235368-6.97121 5.396096-12.48675 5.396096v-88.5057328c.6897 0 1.41552-.02656 2.13333-.030355m92.89284 16.8156816c3.00171 0 4.51763 1.618328 4.51763 4.86299v66.389345c-.0114 3.227587-1.52594 5.459309-4.51763 5.459309-3.04591 0-4.58088-2.245761-4.58088-5.490423v-66.539942c0-3.112163 1.51288-4.674259 4.58088-4.674259" fill="#3a3a3a" transform="translate(0 215.00001)"/>
</svg>
