<svg height="1814.17" viewBox="0 0 512 512" width="1814.17" xmlns="http://www.w3.org/2000/svg">
 <path d="m352.01352-157.63511c-95.52314 0-202.98291 107.459767-202.98291 202.982928h23.87426l.0632-.03035c0-83.536319 95.46291-179.069498 179.03939-179.069498v-23.87427m0 47.74855c-71.63985 0-155.22636 83.636674-155.22636 155.236386h23.90638l.0311-.03035c0-59.703214 71.58965-131.292872 131.29287-131.292872v-23.906414m0 47.78065c-47.76057 0-107.44973 59.6931963-107.44973 107.449749h23.87425c0-35.8209337 47.75555-83.576462 83.57648-83.576462v-23.874274m-23.87419 47.749526c-13.19153 0-23.87426 10.6807143-23.87426 23.8742353 0 13.1915487 10.68072 23.9064117 23.87426 23.9064117 13.19153 0 23.87426-10.711866 23.87426-23.9064117 0-13.19151-10.68072-23.8742353-23.87426-23.8742353m-2.69854 71.659929c-11.70171 0-21.17271 9.474983-21.17271 21.172697v100.954355c0 11.66558 9.47501 21.14261 21.17271 21.14261h5.45932c11.66557 0 21.11248-9.47904 21.11248-21.14261v-100.954355c0-11.701698-9.44791-21.172697-21.11248-21.172697z" fill="#3a3a3a" transform="translate(0 215.00001)"/>
</svg>
