<?xml version="1.0" encoding="UTF-8"?>
<svg width="512" height="512" version="1.1" viewBox="0 0 512 512" xmlns="http://www.w3.org/2000/svg">
 <path d="m146.07 86.845 0.0483 0.01672c-11.678 0.47101-21.292 5.4742-27.919 10.493-39.144 29.691-73.319 153.52-73.319 219.04 0 65.456 15.073 62.744 28.131 62.744 13.075 0 29.513-8.9831 43.871-21.636 39.664-34.905 57.92-71.254 97.356-71.254h83.568c39.436 0 57.709 36.333 97.356 71.254 14.358 12.653 30.794 21.636 43.869 21.636 13.075 0 28.131 2.7938 28.131-62.744 0-65.456-34.173-189.37-73.317-219.04-10.59-8.0399-28.813-16.032-51.016-5.4904-14.878 7.0654-28.18 15.74-47.622 15.74h-78.418c-19.442 0-32.809-8.6579-47.622-15.74-8.316-3.9469-16.081-5.2955-23.097-5.0194zm109.98 53.243 81.211 64.968h-32.484v48.726h-97.453v-48.726h-32.484z" fill="#3a3a3a" fill-rule="evenodd" stroke-width="16.242"/>
</svg>
