<svg height="512" viewBox="0 0 512 512" width="512" xmlns="http://www.w3.org/2000/svg">
 <path d="m246.8 111.09l-7.03 21.526v1.901l2.512 18.674-25.803 6.926-7.198-17.451-.917-1.664-16.84-15.11-15.957 9.201 4.651 22.17.985 1.63 11.51 14.939-18.877 18.877-14.939-11.51-1.63-.985-22.17-4.651-9.201 15.957 15.11 16.84 1.664.917 17.451 7.198-6.926 25.803-18.674-2.512h-1.901l-21.525 7.03v18.402l21.525 7.03h1.901l18.674-2.512 6.926 25.803-17.451 7.198-1.664.917-15.11 16.84 9.201 15.957 22.17-4.651 1.63-.985 14.939-11.51 18.877 18.877-11.51 14.939-.985 1.63-4.651 22.17 15.957 9.201 16.84-15.11.917-1.664 7.198-17.451 25.803 6.926-2.512 18.674v1.901l7.03 21.526h18.402l7.03-21.526v-1.901l-2.512-18.674 25.803-6.926 7.198 17.451.917 1.664 16.84 15.11 15.957-9.201-4.651-22.17-.985-1.63-11.51-14.939 18.877-18.877 14.939 11.51 1.63.985 22.17 4.651 9.201-15.957-15.11-16.84-1.664-.917-17.451-7.198 6.926-25.803 18.674 2.512h1.901l21.526-7.03v-18.402l-21.526-7.03h-1.901l-18.674 2.512-6.926-25.803 17.451-7.198 1.664-.917 15.11-16.84-9.201-15.957-22.17 4.651-1.63.985-14.939 11.51-18.877-18.877 11.51-14.939.985-1.63 4.651-22.17-15.957-9.201-16.84 15.11-.917 1.664-7.198 17.451-25.803-6.926 2.512-18.674v-1.901l-7.03-21.526h-18.39zm9.201 93.23c28.544 0 51.675 23.13 51.675 51.675 0 28.544-23.13 51.675-51.675 51.675-28.544 0-51.675-23.13-51.675-51.675 0-28.544 23.13-51.675 51.675-51.675z" fill="#3a3a3a"/>
</svg>
