<svg height="512" viewBox="0 0 512 512" width="512" xmlns="http://www.w3.org/2000/svg">
 <path d="m293.58368 186.33044c-11.47122-8.51472-13.30425-11.58948-12.06252-21.16854 1.47825-13.5999-1.00521-20.16333-9.93384-26.66763-17.56161-12.77208-43.93359-13.54077-61.43607-1.89216-9.69732 6.44517-14.60511 15.61032-13.0086 24.77547 1.00521 6.26778 4.67127 11.58948 12.83121 18.50769l18.21204-12.06252c-7.86429-7.45038-8.21907-13.18599-.82782-18.09378 7.56864-5.02605 18.27117-4.84866 25.48503.41391 4.1391 3.01563 5.79474 7.0956 5.20344 12.35817-2.71998 16.91118.65043 23.94765 17.38422 35.89191zm6.79995 30.27456l18.21204-12.06252-17.08857-12.4173-18.21204 12.06252zm-48.13182 41.27274l.0591 159.59187-138.24591-79.64811.23652-159.59187zm3.78432 161.30664h.17739l-.41391.23652-.47304-.29565zm3.72519-161.18838l138.12768-79.70724-.23652 159.23709-137.89116 79.58898zm-3.60693-6.5043l-137.7729-79.52985 137.7729-79.52985 138.00942 79.41159z" fill="#3a3a3a"/>
</svg>
