<svg viewBox="0 0 512 512" xmlns="http://www.w3.org/2000/svg">
 <path d="m277.61 118.39l-45.767 4.396v188.43l45.3-6.863v-80.31l60.843 89.18 47.772-15.192-62.42-85.75 62.848-80.78-48.659-11.182-60.38 80.85.463-82.78m-103.72 45.96c-.517.053-1.076.188-1.465.578l-18.01 17.929c-.755.758-.825 1.936-.27 2.853l21.05 34.701c-3.732 6.274-6.773 12.992-8.907 20.13l-38.673 8.02c-1.075.222-1.812 1.289-1.812 2.391v25.409c0 1.075.772 1.944 1.812 2.198l37.478 9.099c2 8.26 5.083 16.17 9.177 23.366l-21.669 33.04c-.605.923-.549 2.19.231 2.969l18.01 18.01c.757.755 1.938.788 2.853.231l34.01-20.628c6.672 3.852 13.866 6.967 21.476 9.02l7.943 38.13c.222 1.076 1.175 1.812 2.275 1.812h25.409c1.067 0 2.02-.691 2.275-1.735l9.331-38.33c7.849-2.116 15.249-5.263 22.09-9.292l33.545 22.02c.925.602 2.147.509 2.93-.27l17.929-18.01c.76-.758.942-1.938.386-2.853l-12.261-20.13-4.01 1.311c-.579.178-1.198-.113-1.542-.617 0 0-7.741-11.357-17.813-26.1-12.05 23.572-36.634 39.675-64.93 39.675-40.21 0-72.796-32.588-72.796-72.796 0-29.576 17.664-54.998 42.991-66.4v-18.777c-4.61 1.613-9.07 3.555-13.302 5.861-.018-.002.018-.111 0-.116l-34.24-22.479c-.462-.302-.986-.285-1.504-.231" fill="#3a3a3a"/>
</svg>
