<svg height="512" viewBox="0 0 512 512" width="512" xmlns="http://www.w3.org/2000/svg">
 <path d="m91.03 53.55c-6.137-6.137-16.09-6.137-22.22 0-.788.788-1.463 1.643-2.046 2.54l-49.48-49.48c-1.753-1.753-4.597-1.753-6.35 0l-3.88 3.881c-1.754 1.753-1.753 4.597 0 6.35l4.572 4.572-7.872 7.872c-1.709 1.709-1.709 4.481 0 6.19s4.481 1.709 6.19 0l7.872-7.872 1.74 1.74-7.872 7.872c-1.709 1.709-1.709 4.481 0 6.19s4.481 1.709 6.19 0l7.872-7.872 30.785 30.786c-.897.583-1.752 1.258-2.54 2.046-6.137 6.137-6.137 16.09 0 22.22 5.02 5.02 12.575 5.927 18.521 2.746 5.946 3.181 13.505 2.269 18.521-2.746 5.02-5.02 5.927-12.575 2.746-18.521 3.182-5.946 2.27-13.505-2.745-18.52m-6.742 30.3c-2.825 2.825-7.406 2.825-10.231 0-.617-.616-1.074-1.326-1.421-2.074-3.03 2.815-7.762 2.768-10.712-.182-3.02-3.02-3.02-7.916 0-10.936 1.927-1.926 4.613-2.611 7.093-2.08-.531-2.479.153-5.166 2.08-7.092 3.02-3.02 7.916-3.02 10.936 0 2.95 2.95 2.997 7.68.182 10.712.748.348 1.458.805 2.074 1.421 2.824 2.825 2.824 7.406-.001 10.231" fill="#3a3a3a" transform="matrix(-2.8781 0 0 2.8781 397.15 111.4)"/>
</svg>
