<svg width="512" height="512" version="1.1" viewBox="0 0 512 512" xmlns="http://www.w3.org/2000/svg">
 <g transform="matrix(11.992 0 0 11.995 30.338 30.168)" fill="#3a3a3a" fill-rule="evenodd" stroke="#3a3a3a" stroke-linejoin="round" stroke-width="35.422">
  <path transform="scale(.14844)" d="m30.711 148.18c21.702-0.29813 36.229-28.181 47.331-26.627 8.4855 1.1879 15.184 32.203 20.279 30.63 11.763-3.658 27.15-24.371 27.15-24.371l44 89.84h-138.76z"/>
  <path transform="scale(.14844)" d="m157.29 182.08s-19.763 10.974-25.447 13.737c-7.868 3.816-21.421 14.11-45.16 21.474h-55.632v-43.895c32.13-1 55.29-2 69.68-8.03 14.368-6.03 41.474-20.08 41.474-20.08z"/>
  <path transform="scale(.14844)" d="m132.53 142.18c20.842-20.895 14.789-27.16 35.947-28.974 3.1011-0.26614 20.284-64.925 22.438-62.057 14.072 18.739 34.378 76.137 34.378 76.137v90.32h-55.816z"/>
 </g>
 <path d="m68.538 60.02h379.31c2.6664 0 4.7979 2.1335 4.7979 4.7979v379.31c0 2.6664-2.1335 4.7979-4.7979 4.7979h-379.31c-2.6664 0-4.7979-2.1335-4.7979-4.7979v-379.31c0-2.6664 2.1335-4.7979 4.7979-4.7979z" fill="none" stroke="#3a3a3a" stroke-linecap="round" stroke-width="21.607"/>
</svg>
