<svg width="512" height="512" version="1.1" viewBox="0 0 512 512" xmlns="http://www.w3.org/2000/svg">
 <g transform="matrix(13.965 0 0 13.965 -78.797 -91.814)" fill="#3a3a3a">
  <g fill="#3a3a3a">
   <g fill="#3a3a3a">
    <path d="m23 30.5c0 3.039-2.461 5.5-5.5 5.5s-5.5-2.461-5.5-5.5 2.461-5.5 5.5-5.5 5.5 2.461 5.5 5.5"/>
    <path d="m36 30.5c0 3.039-2.461 5.5-5.5 5.5s-5.5-2.461-5.5-5.5 2.461-5.5 5.5-5.5 5.5 2.461 5.5 5.5"/>
    <path d="m23 17.5c0 3.039-2.461 5.5-5.5 5.5s-5.5-2.461-5.5-5.5 2.461-5.5 5.5-5.5 5.5 2.461 5.5 5.5"/>
    <path d="m36 17.5c0 3.039-2.461 5.5-5.5 5.5s-5.5-2.461-5.5-5.5 2.461-5.5 5.5-5.5 5.5 2.461 5.5 5.5"/>
   </g>
  </g>
 </g>
</svg>
