<svg width="512" height="512" version="1.1" viewBox="0 0 512 512" xmlns="http://www.w3.org/2000/svg">
 <g transform="matrix(14.591 0 0 14.591 -88.324 -111.54)" fill="#3a3a3a">
  <circle cx="24" cy="24" r="8" fill="#3a3a3a" fill-rule="evenodd"/>
  <path d="m21.08 18.875a5.901 14.67 59.6 0 0-9.742 12.524 5.901 14.67 59.6 0 0 15.592-2.273 5.901 14.67 59.6 0 0 9.742-12.524 5.901 14.67 59.6 0 0-15.592 2.273zm1.078 1.888a3.261 9.471 59.63 0 1 9.794-1.943 3.261 9.471 59.63 0 1-6.561 7.607 3.261 9.471 59.63 0 1-9.793 1.945 3.261 9.471 59.63 0 1 6.56-7.609z"/>
  <path d="m30.929 20c-13.928 8 0 0-13.856 8-1.105-1.913-1.329-4.093-0.799-6.071 4.04-3.965 5.819-4.829 9.798-5.657 0.989 0.265 1.927 0.719 2.756 1.345s1.549 1.426 2.101 2.382z" fill-rule="evenodd"/>
 </g>
</svg>
