<svg width="512" height="512" version="1.1" viewBox="0 0 512 512" xmlns="http://www.w3.org/2000/svg">
 <g transform="matrix(15.368 0 0 15.368 -115.14 -119)" fill="#3a3a3a">
  <g fill="#3a3a3a">
   <g fill="#3a3a3a">
    <path d="m11.531 13c-0.297 0.031-0.531 0.297-0.531 0.594v10.816c0 0.316 0.277 0.594 0.594 0.594h5.406v2h-4v2h7.281v-6h-6.84c-0.211 0-0.41-0.195-0.41-0.41v-7.184c-4e-3 -0.188 0.129-0.371 0.313-0.406 0.023-4e-3 0.066-4e-3 0.094 0h11.125c0.207 0 0.406 0.191 0.406 0.406v2.875h2.031v-4.691c0-0.313-0.281-0.594-0.594-0.594"/>
    <path d="m21.535 19c-0.293 0.031-0.539 0.305-0.539 0.598v10.809c0 0.313 0.289 0.598 0.602 0.598h5.398v2.992h4v-2.992h5.402c0.313 0 0.598-0.285 0.598-0.598v-10.809c0-0.316-0.289-0.598-0.598-0.598m-13.05 2c0.023-4e-3 0.047-4e-3 0.074 0h11.145c0.211 0 0.402 0.191 0.402 0.402v7.203c0 0.207-0.191 0.398-0.402 0.398h-11.145c-0.211 0-0.402-0.191-0.402-0.398v-7.203c-4e-3 -0.188 0.145-0.367 0.328-0.402m-0.352 12v2h12v-2"/>
   </g>
  </g>
 </g>
</svg>
