<svg width="512" height="512" version="1.1" viewBox="0 0 512 512" xmlns="http://www.w3.org/2000/svg">
 <g transform="matrix(1.2851 0 0 1.2851 -67.987 -112.62)" fill="#3a3a3a">
  <path d="m96.408 183.63c-4.7551 0-8.5915 2.842-8.5915 6.3721v50.977c0 3.5302 3.8364 6.3721 8.5915 6.3721h281.55c17.135 0 30.917-9.8385 32.013-22.328a12.089 9.5582 0 0 0 11.493-9.5327 12.089 9.5582 0 0 0-11.493-9.5327c-1.0961-12.489-14.878-22.328-32.013-22.328z" fill-rule="evenodd"/>
  <path d="m176.79 232.59v48.357h193.43v-48.357z"/>
  <path d="m273.19 230.07a80.596 80.596 0 0 0-80.596 80.596 80.596 80.596 0 0 0 80.596 80.596 80.596 80.596 0 0 0 80.596-80.596 80.596 80.596 0 0 0-80.596-80.596zm8.0576 16.684a64.477 64.477 0 0 1 31.418 13.04l-31.418 31.416zm-16.118 0.03v44.426l-31.448-31.448a64.477 64.477 0 0 1 31.448-12.977zm58.964 24.373a64.477 64.477 0 0 1 12.975 31.448h-44.426zm-101.78 0.015v0.0176l31.418 31.416h-44.458a64.477 64.477 0 0 1 13.04-31.433zm50.874 29.28a10.214 10.214 0 0 1 10.213 10.213 10.214 10.214 0 0 1-10.213 10.213 10.214 10.214 0 0 1-10.215-10.213 10.214 10.214 0 0 1 10.215-10.213zm-63.882 18.273h44.426l-31.448 31.448a64.477 64.477 0 0 1-12.977-31.448zm83.335 0h44.458a64.477 64.477 0 0 1-13.04 31.416zm-27.514 11.396v44.456a64.477 64.477 0 0 1-31.433-13.04zm16.118 0 31.448 31.448a64.477 64.477 0 0 1-31.448 12.975z"/>
 </g>
</svg>
