<svg height="512" viewBox="0 0 512 512" width="512" xmlns="http://www.w3.org/2000/svg">
 <g fill="#3a3a3a" transform="translate(-5.455 5.829)">
  <path d="m266.77 99.19c-80.67 0-146.57 63.27-150.78 142.89h-34.834l55.26 54.734 52.23-54.734h-41.742c4.165-62.58 56.23-112.07 119.86-112.07 66.36 0 120.16 53.802 120.16 120.16 0 66.36-53.802 120.13-120.16 120.13-31.25 0-59.709-11.932-81.08-31.479l-22.828 20.92c27.07 25.68 63.65 41.41 103.91 41.41 83.39 0 150.98-67.59 150.98-150.98s-67.59-150.98-150.98-150.98"/>
  <path d="m269.44 162.63l-8.906.5a3.3503 3.3503 0 0 0 -3.1875 3.1875l-4.438 95.06a3.3503 3.3503 0 0 0 1.125 2.6875l52.5 46.03a3.3503 3.3503 0 0 0 4.375.0312l6.938-5.938a3.3503 3.3503 0 0 0 .25-4.875l-41.22-43.12-3.906-90.34a3.3503 3.3503 0 0 0 -3.5312-3.2188"/>
 </g>
</svg>
