<svg height="512" viewBox="0 0 135.47 135.47" width="512" xmlns="http://www.w3.org/2000/svg">
 <path d="m61.084353 186.23748v6.64898h-6.357938v14.95425h6.357938v5.1816h-6.357938v4.7625h-5.347229v-11.49085h-14.984413v8.07614h6.908271v6.90827h6.451336v3.31259h-6.58548v21.60322h6.58548v4.62175h-6.451336v6.90827h-6.908271v8.07614h14.984413v-12.87039h5.347229v6.60135h26.214918v-6.60135h5.142177v12.87039h14.98442v-8.07614h-6.908278v-6.90827h-6.246284v-4.62175h6.577542v-21.60322h-6.577542v-3.31259h6.246284v-6.90827h6.908278v-8.07614h-14.98442v11.49085h-5.142177v-4.7625h-6.553994v-5.1816h6.553994v-14.95425h-6.553994v-6.64898h-13.305897" fill="#3a3a3a" transform="translate(0 -161.53334)"/>
</svg>
