<?xml version="1.0" encoding="UTF-8"?>
<svg width="512" height="512" version="1.1" viewBox="0 0 512 512" xmlns="http://www.w3.org/2000/svg" xmlns:cc="http://creativecommons.org/ns#" xmlns:dc="http://purl.org/dc/elements/1.1/" xmlns:rdf="http://www.w3.org/1999/02/22-rdf-syntax-ns#">
 <metadata>
  <rdf:RDF>
   <cc:Work rdf:about="">
    <dc:format>image/svg+xml</dc:format>
    <dc:type rdf:resource="http://purl.org/dc/dcmitype/StillImage"/>
    <dc:title/>
   </cc:Work>
  </rdf:RDF>
 </metadata>
 <path d="m253.04 45.486c-114.64 0-207.57 92.932-207.57 207.57s92.932 207.57 207.57 207.57 207.57-92.932 207.57-207.57-92.932-207.57-207.57-207.57zm0 27.675c99.352 0 179.89 80.541 179.89 179.89-0.0971 83.184-57.223 155.45-138.13 174.76-0.24367-50.217 27.432-77.893 27.432-91.73v-41.515s41.515-69.19 69.19-96.866c0-27.675-13.837-19.297-13.837-19.297v-8.3784l-13.837 13.837s13.837-41.515-13.837-55.352c-27.675 13.837-55.352 41.515-55.352 41.515h-27.675l-41.515 27.675c-27.675 0-55.352 0-69.19 13.837s27.675 41.515 27.675 41.515l-55.352 96.866-19.946 9.973c-22.926-30.908-35.335-68.354-35.406-106.84 0-99.352 80.541-179.89 179.89-179.89zm13.837 110.7h27.675l-27.675 13.837h-13.837z" fill="#3a3a3a" stroke-width="13.837"/>
</svg>
