<svg height="512" viewBox="0 0 512 512" width="512" xmlns="http://www.w3.org/2000/svg">
 <path d="m72.009712 306.81787l5.443755 1.47891-1.478911 16.23593c-.283479 3.11212.566406 5.37761 1.699219 6.75782 1.132812 1.36719 2.968749 2.05078 5.507812 2.05078 2.526042 0 4.355469-.68359 5.488281-2.05078 1.132813-1.38021 1.699219-3.63282 1.699219-6.75782l-.941125-16.23593 4.905969-1.47891v18.20313c0 3.80208-.94401 6.67317-2.832031 8.61328-1.875 1.9401-4.648438 2.91015-8.320313 2.91015-3.684896 0-6.471354-.97005-8.359375-2.91015-1.875-1.94011-2.8125-4.8112-2.8125-8.61328z" fill="#3a3a3a" transform="matrix(13.614314 0 0 13.614314 -879.98681 -4119.467)"/>
</svg>
