<svg width="512" height="512" version="1.1" viewBox="0 0 512 512" xmlns="http://www.w3.org/2000/svg">
 <g transform="matrix(1.4146 0 0 1.4146 -104.81 -102.1)" fill="#3a3a3a" stroke-width="11.177">
  <path d="m121.54 128.94c-6.1921 0-11.178 4.9848-11.178 11.177v212.36c0 6.1921 4.9856 11.177 11.178 11.177h33.531v-101.4h-4.7394c-6.1921 0-11.177-4.9848-11.177-11.177v-122.14z"/>
  <path d="m176.02 128.94v122.14c0 6.1921-4.9856 11.177-11.178 11.177h-6.4375v101.4h44.708v-101.4h-4.7394c-6.1921 0-11.177-4.9848-11.177-11.177v-122.14z"/>
  <path d="m224.07 128.94v122.14c0 6.1921-4.9848 11.177-11.177 11.177h-6.4375v101.4h44.708v-234.72z"/>
  <path d="m254.5 128.94v234.72h44.708v-101.4h-4.7394c-6.1921 0-11.177-4.9848-11.177-11.177v-122.14z"/>
  <path d="m320.16 128.94v122.14c0 6.1921-4.9848 11.177-11.177 11.177h-6.4382v101.4h44.708v-101.4h-4.7394c-6.1921 0-11.177-4.9848-11.177-11.177v-122.14z"/>
  <path d="m368.21 128.94v122.14c0 6.1921-4.9855 11.177-11.178 11.177h-6.4375v101.4h33.531c6.1921 0 11.177-4.9848 11.177-11.177v-212.36c0-6.1921-4.9848-11.177-11.177-11.177z"/>
 </g>
</svg>
