<?xml version="1.0" encoding="UTF-8"?>
<svg width="512" height="512" version="1.1" viewBox="0 0 512 512" xmlns="http://www.w3.org/2000/svg">
 <g transform="matrix(.88805 0 0 .88805 26.675 15.269)">
  <path d="m57.415 373.5 8.2604-4.5417c35 58.927 71.87 105.68 139.62 84.5l1.7812 8.2031c-78.969 21.448-116.44-29.437-149.66-88.161z" fill="#fefefe" fill-rule="evenodd" stroke-width="1.3333"/>
  <g fill="#3a3a3a">
   <path d="m253.04 34.156c-21.677-0.067706-43.271 3.4792-64.979 10.646-65.167 21.51-112.89 74.052-130.82 144.06-6.6302 25.88-6.7865 28.312-6.6667 103.33 0.09896 62.885 0.25 68.292 2.1042 77.401 6.5938 32.417 27.833 57.844 57.995 70.375 3.2656 1.3594 6.625 2.7135 10.094 3.7552 1.3229 0.39584 2.8646 0.63542 4.1927 1.1719 2.9115 1.1875 5.4167 2.8385 6.6302 3.8854 8.6823 7.526 23.396-5.8646 26.365-14.135 0.0885-0.25522 0.18229-3.2865 0.27084-6.7656-0.91146-5.0312-1.4479-10.214-1.4219-15.516l0.65104-130.93c0.0364-6.2656 0.69272-12.365 1.9583-18.245l-1.9896-1.8698c-4.1302-3.875-0.0208-12.156-8.8386-12.193-7.2969-0.0364-9.0677 0.34896-14.75 3.1615-3.5469 1.7604-9.7552 4.151-13.786 5.3177-11 3.1771-24.151 10.224-34.073 18.255-4.875 3.9531-9.1198 7.1823-9.4219 7.1823-0.30729 0-0.4375-10.63-0.28646-23.635l0.27083-23.635 3.0521-0.33333c1.6771-0.18229 2.9948-0.875 3.3646-1.2552 0.36458-0.375 1.7708-5.7083 2.6823-12.141 12.182-85.911 62.698-139.68 142.92-152.1 15.078-2.3333 43.188-2.3333 56.427 0 50.646 8.9323 95.12 42.797 118.97 90.589 10.323 20.693 15.401 38.229 18.089 62.526 0.89063 8.0781 1.5625 10.188 2.5677 11.078 0.39584 0.34896 0.65625 0.76563 1.3386 0.85416 4.7344 0.61459 4.9531 2.2448 4.9323 24.609-5e-3 11.5-0.42708 21.547-0.92708 22.339-0.71876 1.1354-2.2083 0.26563-7.0312-4.099-8.9583-8.1042-21.813-15.37-33.953-19.193-5.7396-1.8073-12.859-4.4323-15.813-5.8437-10.422-4.9792-18.646-7.3386-25-1.4063l-3.1458 2.9375 0.0107 0.47917c1.0677 5.4323 1.6406 11.047 1.6406 16.802v151.88c0 4.7969-0.41147 9.4896-1.1615 14.068 0.17709 4.9844 0.47396 7.599 0.94271 8.5104 0.71876 1.3958 3.5208 3.6354 6.2292 4.9792 3.9948 1.9792-1.3698 3.0885 5.3594 3.0781 9.0104-0.0156 11.922-2.0156 16.641-5.8229 0.72916-0.68229 4.9219-2.3698 7.4271-3.4948 2.2917-1.0312 5.1406-1.4896 7.8802-2.4167 15.198-5.1563 25.26-11.526 37.359-23.661 12.016-12.047 18.458-22.172 23.802-37.365 7.8802-27.057 3.7708-57.036 3.9427-85.115 0.32292-81.917 0.23959-83.547-5.8333-108.42-9.068-37.13-27.198-69.188-54.078-95.641-21.818-21.469-47.922-37.474-76.63-46.979-22.057-7.3073-43.818-10.995-65.495-11.063z" stroke-width="1.3333"/>
   <path d="m429.36 236.44-0.30208 20.438-0.32813 20.198 5.4427 5.5885c6.1458 6.3125 12.802 15.25 15.583 21.62 1.026 2.3594 1.2917 3.9323 2.3958 4.4323 0.0104 5e-3 0.0208 0.0104 0.026 0.0104 5e-3 0 5e-3 0 5e-3 -5e-3 0.26562-0.66146 0.34896-16.37 0.1875-36.141l-0.29688-36.141zm-374.97 0.43229-0.19792 11.938-0.08854 24.229c-0.15625 19.896 0.09375 35.932 0.18229 36.167 0.83854 2.1146 1.3125-1.9948 2.3333-4.4375 2.6771-6.3802 8.9583-15.448 14.995-21.641l5.2188-5.3542-0.29167-20.448-0.29167-20.453zm296.89 10.792c-8.3698 0.20833-16.729 2.7344-19.042 7.0573-0.88541 1.651-0.8802 17.688 0.0312 63.87 0.66667 33.911 1.2969 76.505 1.4062 94.646l0.1875 32.99 2.7136 2.026c1.7448 1.2969 4.2864 2.4219 6.2083 2.9062l0.28646 0.0573c0.48437 0.11979 0.86458 0.17188 1.651 0.26042 2.3698 0.27083 5.8698 0.39062 8.8958 0.26042 8.8542-0.36459 14.792-2.9167 16-6.849 0.0208-0.0729 0.0469-0.15104 0.0625-0.22396 5e-3 -0.0104 5e-3 -0.0156 0.0104-0.0312 0.0104-0.0677 0.026-0.17188 0.0365-0.31771 0.38541-4.4948 0.73958-46.74 0.80208-96.521l0.125-94.057-2.6771-2.1042c-3.6719-2.8906-10.188-4.1302-16.698-3.9688zm-195.97 1.1875c-9.5521-0.11979-19.911 2.3802-21.01 6.1875-1.0104 3.5-1.1354 71.766-0.23437 129.22 1.0625 67.505 0.53125 63.193 7.9844 65.276 1.724 0.47917 6.9583 0.91667 11.625 0.96354 9.2708 0.0937 16.641-1.9375 18.453-5.0885 0.61979-1.0833 1.0625-15.167 1.0781-33.911 5e-3 -17.63 0.51042-59.411 1.125-92.849 1.2552-68.667 1.7552-64.094-7.4375-67.885-3.0625-1.2656-7.2396-1.8594-11.583-1.9167z" fill-opacity=".99608"/>
   <path d="m202.04 446.78 54.411-12.948 7.3386 22.984-54.406 12.948z" fill-rule="evenodd" stroke-width="1.3333"/>
  </g>
 </g>
</svg>
