<svg width="512" height="512" version="1.1" viewBox="0 0 512 512" xmlns="http://www.w3.org/2000/svg">
 <path d="m268.11 68.251a186.42 186.41 0 0 0-191.76 186.41 186.42 186.41 0 0 0 372.84 0 186.42 186.41 0 0 0-181.08-186.41zm-19.419 16.505c-18.148 17.087-15.402 80.405-18.933 123.79-40.434 1.4378-140.32 27.03-135.93 85.195-20.667-84.234 62.871-197.48 154.87-208.98zm28.157 124.27c69.589-0.86203 160.57 15.673 148.8 72.817 3.1326 50.99-60.332 128.11-142.97 139.08-30.784-4.6411-59.126-105.39-49.033-208.98 12.228-1.7856 27.148-2.7137 43.207-2.9127z" fill="#3a3a3a" stroke-width="8.4737"/>
</svg>
