<svg width="512" height="512" version="1.1" viewBox="0 0 512 512" xmlns="http://www.w3.org/2000/svg">
 <g transform="matrix(1.312 0 0 1.312 -79.993 -74.291)" fill="#3a3a3a" stroke-width="12.157">
  <path d="m132.26 200.86a48.63 48.63 0 0 0-48.63 48.63 48.63 48.63 0 0 0 48.63 48.63 48.63 48.63 0 0 0 48.63-48.63 48.63 48.63 0 0 0-48.63-48.63zm0 24.315c13.47 0 24.315 10.844 24.315 24.315s-10.844 24.315-24.315 24.315-24.315-10.844-24.315-24.315 10.844-24.315 24.315-24.315z"/>
  <path d="m375.4 200.86a48.63 48.63 0 0 0-48.63 48.63 48.63 48.63 0 0 0 48.63 48.63 48.63 48.63 0 0 0 48.63-48.63 48.63 48.63 0 0 0-48.63-48.63zm0 24.315a24.315 24.315 0 0 1 24.315 24.315 24.315 24.315 0 0 1-24.315 24.315 24.315 24.315 0 0 1-24.315-24.315 24.315 24.315 0 0 1 24.315-24.315z"/>
  <path d="m253.83 176.55a72.944 72.944 0 0 0-72.944 72.944 72.944 72.944 0 0 0 72.944 72.944 72.944 72.944 0 0 0 72.944-72.944 72.944 72.944 0 0 0-72.944-72.944zm0 24.315a48.63 48.63 0 0 1 48.63 48.63 48.63 48.63 0 0 1-48.63 48.63 48.63 48.63 0 0 1-48.63-48.63 48.63 48.63 0 0 1 48.63-48.63z"/>
 </g>
</svg>
