<svg width="512" height="512" version="1.1" viewBox="0 0 512 512" xmlns="http://www.w3.org/2000/svg">
 <path d="m125.03 63.029c-15.865 0-28.635 12.773-28.635 28.638v0.0096h21.071c4.2195 0 7.616 3.3966 7.616 7.616v13.406c0 4.2195-3.3966 7.616-7.616 7.616h-21.071v28.687h21.071c4.2195 0 7.616 3.3996 7.616 7.6191v13.403c0 4.2195-3.3966 7.616-7.616 7.616h-21.071v28.69h21.071c4.2195 0 7.616 3.3965 7.616 7.616v13.403c0 4.2195-3.3966 7.6191-7.616 7.6191h-21.071v28.687h21.071c4.2195 0 7.616 3.3966 7.616 7.616v13.406c0 4.2195-3.3966 7.616-7.616 7.616h-21.071v28.638h21.071c4.2195 0 7.616 3.3966 7.616 7.6161v13.403c0 4.2195-3.3966 7.6191-7.616 7.6191h-21.071v28.687h21.071c4.2195 0 7.616 3.3966 7.616 7.616v13.406c0 4.2195-3.3966 7.6161-7.616 7.6161h-21.071v0.0893c0 15.865 12.77 28.638 28.635 28.638h258c15.865 0 28.638-12.773 28.638-28.638v-315.32c0-15.865-12.773-28.638-28.638-28.638zm142.28 28.789a71.645 71.645 0 0 1 51.69 21.022 71.645 71.645 0 0 1 9.0874 90.128l21.327 21.324-20.26 20.26-21.377-21.377a71.645 71.645 0 0 1-90.078-9.0381 71.645 71.645 0 0 1 0-101.3 71.645 71.645 0 0 1 49.611-21.022zm1.675 28.638v0.0493a43.007 43.007 0 0 0-31.026 12.595 43.007 43.007 0 0 0 0 60.777 43.007 43.007 0 0 0 48.898 8.378l-18.483-18.483 20.26-20.257 18.483 18.48a43.007 43.007 0 0 0-8.378-48.895 43.007 43.007 0 0 0-29.755-12.644zm-1.675 143.34a71.645 71.645 0 0 1 51.69 20.97 71.645 71.645 0 0 1 9.0874 90.177l21.327 21.275-20.26 20.313-21.377-21.429a71.645 71.645 0 0 1-90.078-9.0381 71.645 71.645 0 0 1 0-101.3 71.645 71.645 0 0 1 49.611-20.97zm1.675 28.687a43.007 43.007 0 0 0-31.026 12.592 43.007 43.007 0 0 0 0 60.78 43.007 43.007 0 0 0 48.898 8.3779l-18.483-18.533 20.26-20.26 18.483 18.533a43.007 43.007 0 0 0-8.378-48.898 43.007 43.007 0 0 0-29.755-12.592z" fill="#3a3a3a"/>
</svg>
