<?xml version="1.0" encoding="UTF-8"?>
<svg version="1.1" viewBox="0 0 512 512" xmlns="http://www.w3.org/2000/svg" xmlns:cc="http://creativecommons.org/ns#" xmlns:dc="http://purl.org/dc/elements/1.1/" xmlns:rdf="http://www.w3.org/1999/02/22-rdf-syntax-ns#">
 <style/>
 <metadata>
  <rdf:RDF>
   <cc:Work rdf:about="">
    <dc:format>image/svg+xml</dc:format>
    <dc:type rdf:resource="http://purl.org/dc/dcmitype/StillImage"/>
    <dc:title/>
   </cc:Work>
  </rdf:RDF>
 </metadata>
 <path d="m239.17 91.676 0.35454 0.35454c-29.978 1.1254-53.282 10.654-71.123 26.181-18.764 16.329-31.581 39.045-40.451 64.94-17.74 51.781-19.857 116.47-22.002 169.7v0.0391c-0.20188 10.735-1.3955 25.285 2.5234 38.364 3.9012 13.022 13.292 24.537 33.006 28.507v0.0391c0.0391 8e-3 0.0795-8e-3 0.1186 0 0.0404 0.0126 0.0782 0.0278 0.1186 0.0391 2.5562 0.76964 5.2071 0.29398 7.6081-0.94629 2.4768-1.2781 4.8235-3.3221 7.1363-5.8354 4.6254-5.0267 9.1878-12.037 13.76-19.163 4.5737-7.1262 9.1247-14.361 13.485-19.714 4.3605-5.3534 8.504-8.4775 11.513-8.4775 6.2531 0 10.277 2.5146 13.603 6.624 3.3259 4.1094 5.7433 9.8578 8.0043 15.851 2.261 5.9919 4.3794 12.223 7.4126 17.27 3.0332 5.0456 7.2347 9.0402 13.328 9.7783h0.27631c7.805 0 14.275 0.46431 19.675 0.47314 5.4001 9e-3 9.806-0.36842 13.367-2.4048l0.15771-0.1186 0.15772-0.1186c10.878-9.454 13.642-22.595 17.349-32.956 1.8535-5.1844 3.9252-9.6761 7.0972-12.854 3.1316-3.1379 7.3583-5.1629 14.155-5.52 8.4749 1.5759 13.16 4.9976 16.44 9.4629 3.317 4.5119 5.1756 10.254 7.4517 16.166 2.2761 5.9111 5.0204 12.008 10.448 16.875 5.4292 4.8677 13.44 8.3185 25.747 9.3051l0.15771 0.0391 0.15772-0.0391c5.6979-0.50594 14.57-2.8464 22.041-11.789 7.4706-8.943 13.473-24.241 14.155-50.429v-0.15897c-3.4634-65.276-18.658-129.35-45.624-177.55-26.96-48.198-65.95-80.648-116.6-81.815h-0.0391l-4.9686-0.1186m-7.6889 48.412c9.7985 0 18.633 5.4027 24.88 13.84 6.2468 8.4371 10.015 19.938 10.015 32.647 0 12.705-3.7687 24.25-10.015 32.686-6.2468 8.4358-15.081 13.801-24.88 13.801s-18.569-5.4014-24.761-13.84c-6.1925-8.4384-9.8969-19.943-9.8969-32.647 0-12.705 3.7031-24.212 9.8969-32.647 6.1925-8.4384 14.963-13.84 24.761-13.84m81.179 0c9.7985 0 18.569 5.4014 24.761 13.84 6.1925 8.4384 9.936 19.943 9.936 32.647 0 12.705-3.7435 24.212-9.936 32.647-6.1925 8.4383-14.963 13.84-24.761 13.84-9.7985 0-18.594-5.3636-24.841-13.801s-10.055-19.977-10.055-32.686c0-12.705 3.8104-24.25 10.055-32.686 6.2468-8.4358 15.041-13.801 24.841-13.801" fill="#3a3a3a" stroke-width="1.2617"/>
</svg>
