<svg viewBox="0 0 512 512" xmlns="http://www.w3.org/2000/svg">
 <g fill="#3a3a3a">
  <path d="m145.47 114.4c-15.19.166-27.375 12.456-27.375 27.688v221.78c0 15.335 12.351 27.688 27.688 27.688h35.906c4.718-19.641 13.431-38.421 18.375-57.938 23.751-27.803 50.762-53.08 76.63-78.906 17.377-16.406 33.485-34.33 50.844-50.688 10.243-9.53 18.99-24.559 34.688-25.19.511-.022 1.021-.031 1.531-.031 4.437 0 8.793.859 12.969 2.281v-39c0-15.239-12.173-27.535-27.375-27.688h-203.87m62.25 22.12c2.953 0 5.547.586 7.75 1.781s4.02 2.945 5.5 5.219c1.477 2.273 2.586 5.03 3.313 8.313.727 3.281 1.094 7.02 1.094 11.188 0 4.148-.344 7.867-1 11.125-.633 3.258-1.664 6.01-3.094 8.281-1.406 2.273-3.219 4.02-5.469 5.219-2.227 1.195-4.93 1.781-8.094 1.781-2.977 0-5.578-.586-7.781-1.781s-4.02-2.945-5.469-5.219c-1.453-2.273-2.555-5.02-3.281-8.281-.703-3.258-1.031-6.977-1.031-11.125s.305-7.844.938-11.125c.656-3.281 1.688-6.07 3.094-8.344 1.406-2.273 3.211-4.02 5.438-5.219 2.227-1.219 4.93-1.812 8.094-1.813m79.31 0c2.953 0 5.547.586 7.75 1.781s4.02 2.945 5.5 5.219c1.477 2.273 2.586 5.03 3.313 8.313.727 3.281 1.094 7.02 1.094 11.188 0 4.148-.344 7.867-1 11.125-.633 3.258-1.664 6.01-3.094 8.281-1.406 2.273-3.219 4.02-5.469 5.219-2.227 1.195-4.93 1.781-8.094 1.781-2.977 0-5.578-.586-7.781-1.781s-4.02-2.945-5.469-5.219c-1.453-2.273-2.555-5.02-3.281-8.281-.703-3.258-1.031-6.977-1.031-11.125s.305-7.844.938-11.125c.656-3.281 1.688-6.07 3.094-8.344 1.406-2.273 3.211-4.02 5.438-5.219 2.227-1.219 4.93-1.812 8.094-1.813m39.656 0c2.953 0 5.547.586 7.75 1.781s4.02 2.945 5.5 5.219c1.477 2.273 2.586 5.03 3.313 8.313.727 3.281 1.094 7.02 1.094 11.188 0 1.634-.051 3.189-.156 4.688-4.439 2.384-8.534 5.47-12.406 8.906.047-.118.112-.22.156-.344 1.078-2.93 1.594-7.344 1.594-13.25 0-5.883-.516-10.297-1.594-13.25-1.055-2.977-2.813-4.469-5.25-4.469-1.242 0-2.289.375-3.156 1.125-.844.75-1.555 1.867-2.094 3.344s-.922 3.336-1.156 5.563c-.234 2.203-.344 4.758-.344 7.688 0 5.859.492 10.266 1.5 13.219 1.01 2.953 2.766 4.438 5.25 4.438.283 0 .548-.023.813-.063-2.538 2.494-4.976 5.066-7.344 7.625-.432-.179-.845-.374-1.25-.594-2.203-1.195-4.02-2.945-5.469-5.219-1.453-2.273-2.555-5.02-3.281-8.281-.703-3.258-1.031-6.977-1.031-11.125s.305-7.844.938-11.125c.656-3.281 1.688-6.07 3.094-8.344 1.406-2.273 3.211-4.02 5.438-5.219 2.227-1.219 4.93-1.812 8.094-1.813m-158.62.813h8.938v51.41h-10.875v-31.938c.023-.867.039-1.742.063-2.656.047-.937.102-1.875.125-2.813.047-.937.07-1.82.094-2.594-.117.141-.313.375-.594.656l-.938.938c-.352.328-.719.68-1.094 1.031-.375.352-.742.656-1.094.938l-5.906 4.75-5.281-6.531 16.563-13.188m79.31 0h8.938v51.41h-10.875v-31.938c.023-.867.039-1.742.063-2.656.047-.937.102-1.875.125-2.813.047-.937.07-1.82.094-2.594-.117.141-.313.375-.594.656l-.938.938c-.352.328-.719.68-1.094 1.031-.375.352-.742.656-1.094.938l-5.906 4.75-5.281-6.531 16.563-13.188m-39.656 7.969c-1.242 0-2.289.375-3.156 1.125-.844.75-1.555 1.867-2.094 3.344s-.922 3.336-1.156 5.563c-.234 2.203-.344 4.758-.344 7.688 0 5.859.492 10.266 1.5 13.219 1.01 2.953 2.766 4.438 5.25 4.438 2.437 0 4.195-1.477 5.25-4.406 1.078-2.93 1.594-7.344 1.594-13.25 0-5.883-.516-10.297-1.594-13.25-1.055-2.977-2.813-4.469-5.25-4.469m79.31 0c-1.242 0-2.289.375-3.156 1.125-.844.75-1.555 1.867-2.094 3.344s-.922 3.336-1.156 5.563c-.234 2.203-.344 4.758-.344 7.688 0 5.859.492 10.266 1.5 13.219 1.01 2.953 2.766 4.438 5.25 4.438 2.437 0 4.195-1.477 5.25-4.406 1.078-2.93 1.594-7.344 1.594-13.25 0-5.883-.516-10.297-1.594-13.25-1.055-2.977-2.813-4.469-5.25-4.469m-118.97 81.22c2.953 0 5.547.586 7.75 1.781s4.02 2.945 5.5 5.219c1.477 2.273 2.586 5.03 3.313 8.313.727 3.281 1.094 7.02 1.094 11.188 0 4.148-.344 7.867-1 11.125-.633 3.258-1.664 6.01-3.094 8.281-1.406 2.273-3.219 4.02-5.469 5.219-2.227 1.195-4.93 1.781-8.094 1.781-2.977 0-5.578-.586-7.781-1.781s-4.02-2.945-5.469-5.219c-1.453-2.273-2.555-5.02-3.281-8.281-.703-3.258-1.031-6.977-1.031-11.125s.305-7.844.938-11.125c.656-3.281 1.688-6.07 3.094-8.344 1.406-2.273 3.211-4.02 5.438-5.219 2.227-1.219 4.93-1.812 8.094-1.813m79.31 0c2.953 0 5.547.586 7.75 1.781s4.02 2.945 5.5 5.219c1.477 2.273 2.586 5.03 3.313 8.313.175.789.304 1.596.438 2.438-3.397 3.309-6.799 6.62-10.188 9.938.005-.393.031-.781.031-1.188 0-5.883-.516-10.297-1.594-13.25-1.055-2.977-2.813-4.469-5.25-4.469-1.242 0-2.289.375-3.156 1.125-.844.75-1.555 1.867-2.094 3.344s-.922 3.336-1.156 5.563c-.234 2.203-.344 4.758-.344 7.688 0 5.801.481 10.173 1.469 13.13-2.431 2.415-4.867 4.819-7.281 7.25-.235-.318-.469-.627-.688-.969-1.453-2.273-2.555-5.02-3.281-8.281-.703-3.258-1.031-6.977-1.031-11.125s.305-7.844.938-11.125c.656-3.281 1.688-6.07 3.094-8.344 1.406-2.273 3.211-4.02 5.438-5.219 2.227-1.219 4.93-1.812 8.094-1.813m-39.656.813h8.938v51.41h-10.875v-31.938c.023-.867.039-1.742.063-2.656.047-.937.102-1.875.125-2.813.047-.937.07-1.82.094-2.594-.117.141-.313.375-.594.656l-.938.938c-.352.328-.719.68-1.094 1.031-.375.352-.742.656-1.094.938l-5.906 4.75-5.281-6.531 16.563-13.188m-39.656 7.969c-1.242 0-2.289.375-3.156 1.125-.844.75-1.555 1.867-2.094 3.344s-.922 3.336-1.156 5.563c-.234 2.203-.344 4.758-.344 7.688 0 5.859.492 10.266 1.5 13.219 1.01 2.953 2.766 4.438 5.25 4.438 2.437 0 4.195-1.477 5.25-4.406 1.078-2.93 1.594-7.344 1.594-13.25 0-5.883-.516-10.297-1.594-13.25-1.055-2.977-2.813-4.469-5.25-4.469m0 82.03h8.938v36.5c-1.544 5.01-3.124 10.01-4.938 14.906h-5.938v-31.938c.023-.867.039-1.742.063-2.656.047-.937.102-1.875.125-2.813.047-.937.07-1.82.094-2.594-.117.141-.313.375-.594.656l-.938.938c-.352.328-.719.68-1.094 1.031-.375.352-.742.656-1.094.938l-5.906 4.75-5.281-6.531 16.563-13.188"/>
  <path d="m363.06 194.78c-2.702.14-5.02 1.01-6.719 2.656l-.094.094-13.156 13.188 56.25 56.22 12.969-13 .219-.188c.03-.03.033-.064.063-.094 6.111-6.295 1.451-20.893-10.531-32.875l-12.75-12.781c-8.277-8.278-17.848-13.06-25.03-13.219-.401-.009-.8-.02-1.188 0h-.031m-27.22 23.22l-13.906 13.938 56.22 56.25 13.906-13.969-56.22-56.22m-22.531 22.531l-84.87 84.91-10.469 10.438-2.656 2.656-21.19 66.38a8.6413 9.6276 0 0 0 2.8125 9.5625 8.6413 9.6276 0 0 0 7.75 1.0625l67.31-21.25 2.188-2.219 10.125-10.125 85.22-85.19-56.22-56.22m-83.156 107.69a2.4116 2.4116 0 0 1 .25 0v .031a2.4116 2.4116 0 0 1 .0312 0 2.4116 2.4116 0 0 1 1.6875.71875l4.938 4.938 18.438-.938a2.4116 2.4116 0 0 1 1.7188.59375 2.4116 2.4116 0 0 1 .8125 1.9375l-.906 20.06 3.656 3.656a2.4116 2.4116 0 0 1 -1.0937 4.0313l-31.75 8.5a2.4116 2.4116 0 0 1 -2.3438-.59375l-6.156-6.156a2.4116 2.4116 0 0 1 -.625-2.375l9.281-32.625a2.4116 2.4116 0 0 1 2.0625-1.7812m51.688 42.719l-.625.625h.625z"/>
  <path d="m376.71 312.15c-26.11 26.07-52.32 52.05-78.34 78.19-.002.403-.031.816-.063 1.219h50.75c15.335 0 27.656-12.352 27.656-27.688v-51.719"/>
 </g>
</svg>
