<svg xmlns="http://www.w3.org/2000/svg" height="512" viewBox="0 0 512 512" width="512">
 <g fill="#3a3a3a">
  <path d="M90.024 200.828v93.354h108.958v-93.354zm233.41 0v93.354h108.96v-93.354z"/>
  <path d="M121.142 247.496a31.124 46.686 0 1 1-62.248 0 31.124 46.686 0 1 1 62.248 0zM463.505 247.496a31.124 46.686 0 1 1-62.248 0 31.124 46.686 0 1 1 62.248 0zM261.18 123.024c-68.76 0-124.507 55.693-124.507 124.508 0 68.76 55.692 124.508 124.508 124.508 68.762 0 124.51-55.692 124.51-124.508 0-68.76-55.693-124.508-124.51-124.508zm0 77.804c25.807 0 46.705 20.9 46.705 46.704 0 25.806-20.898 46.705-46.704 46.705-25.805 0-46.703-20.9-46.703-46.705s20.898-46.704 46.704-46.704z"/>
 </g>
</svg>
