<svg height="512" viewBox="0 0 512 512" width="512" xmlns="http://www.w3.org/2000/svg">
 <path d="m290.75539 68.565177l-220.935295 42.306903v287.22685l220.935295 45.81935v-375.346256m13.95943 79.574506v73.43284l25.93327 16.16002c.68332.19445 2.18689.20815 2.87158 0l111.64531-74.43934c0-8.81057-8.32307-15.14531-13.01319-15.14531h-127.43423m-121.94303 42.46439c14.5825 0 26.37831 5.90201 35.37238 17.717 9.00777 11.81498 13.50206 27.37795 13.50206 46.70945.0123 19.86418-4.65451 35.86398-13.99092 48.02405-9.33642 12.15323-21.51018 18.236-36.53362 18.236-14.63864 0-26.54674-5.88422-35.76813-17.65675-9.20906-11.78623-13.8444-27.11367-13.8444-46.03298 0-19.97647 4.68738-36.1406 14.05118-48.47732 9.36517-12.33809 21.76899-18.51124 37.20598-18.51124m262.38634 2.35259c0 0-113.4255 74.50781-109.41734 72.08812 4.00817-2.41969-4.02597 2.42517-7.36177 0l-23.67379-16.0669v99.7646h120.2587c10.69072 0 20.19146-6.17316 20.19146-20.86383v-134.92473m-263.02995 22.17707c-8.067 0-14.4976 3.75483-19.23975 11.24121-4.74763 7.48639-7.11802 17.38561-7.11802 29.72233 0 12.51885 2.37039 22.4167 7.11802 29.69084 4.74626 7.28919 10.9961 10.90434 18.69474 10.90434 7.93828 0 14.23056-3.52203 18.87823-10.59897 4.6463-7.07694 6.99478-16.91592 6.99478-29.47721 0-13.09673-2.26221-23.29311-6.78116-30.57683-4.51757-7.27413-10.70168-10.90435-18.54136-10.90435" fill="#3a3a3a"/>
</svg>
