<svg height="512" viewBox="0 0 512 512" width="512" xmlns="http://www.w3.org/2000/svg">
 <path d="m244.82078 116.82188c-35.43018 0-64.21459 28.13126-64.21459 62.87066 0 .55236.0269 1.08859.0417 1.63826 12.09139 1.07514 23.39658 4.89058 33.22075 10.83212l2.98219 1.80625c14.38414-8.45201 31.17931-13.31303 49.09531-13.31303 15.11928 0 29.42413 3.47273 42.16599 9.6172.59536-3.44316.92462-6.97368.92462-10.58349 0-34.74208-28.71318-62.87066-64.21459-62.87066m-79.37284 27.50902c-19.37283 0-35.02296 15.3921-35.02296 34.35503 0 4.84086 1.05633 9.43443 2.89752 13.60735 11.67477-7.11211 25.40711-11.25008 40.10842-11.29712-.0134-.38302-.0417-.74454-.0417-1.30228 0-11.41404 2.82092-22.18837 7.76929-31.70881-4.72528-2.31561-10.04861-3.65417-15.70792-3.65417m149.39189 21.37665c.93807 4.52368 1.4286 9.19117 1.4286 13.98499 0 4.04525-.38839 7.98029-1.04961 11.8011l-.42065 2.39355c13.66245 7.97491 25.16923 19.17124 33.34707 32.55012l.63031-.29432c9.17908-4.10035 19.34058-6.48449 30.0289-6.71968-4.5425-30.37967-31.19275-53.71576-63.50096-53.71576-.15455 0-.30776-.001-.46232 0m-48.87894 22.17493c-48.8655 0-88.53176 38.75239-88.53176 86.64354 0 47.89115 39.67433 86.72417 88.53176 86.72417 48.92867 0 88.57343-38.83706 88.57343-86.72417 0-47.88846-39.64745-86.64354-88.57343-86.64354m-92.27462.33599c-38.41371 0-69.46535 30.37429-69.46535 67.95342 0 20.96136 9.68575 39.75362 24.94748 52.2455 6.85407-15.19857 22.38056-25.8291 40.23475-25.8291.34539 0 .78754-.003 1.17594 0-.23116-2.65428-.37765-5.35155-.37765-8.06362 0-31.39971 15.79931-59.14661 39.94043-76.18502-10.59559-6.41192-23.07538-10.12118-36.44754-10.12118m206.84514 38.38683c-10.29186 0-20.03001 2.20943-28.81129 6.13238 6.41057 12.58462 10.03786 26.76582 10.03786 41.78296 0 26.93247-11.62102 51.20395-30.15523 68.33107 12.5537 12.18949 29.82193 19.73973 48.92732 19.73973 38.34517 0 69.42234-30.44418 69.42234-67.95342 0-37.64364-31.07179-68.03675-69.42234-68.03675m-280.46594 8.56759c-34.927542.57117-63.123315 28.49144-63.123315 62.87066 0 34.67219 28.781729 62.91366 64.214595 62.91366 12.16262 0 23.55919-3.31415 33.26241-9.07157-5.63109-7.23844-8.98825-16.27506-8.98825-26.08041 0-3.53052.43947-6.96293 1.26062-10.24751-18.03159-13.78341-29.687543-35.27832-29.687543-59.38852 0-7.28951 1.089932-14.33711 3.065513-20.999m358.53517 51.10988c-.633 0-1.26465.0107-1.88958.0417.30776 2.73625.46232 5.49804.46232 8.31627 0 21.22747-9.01916 40.42559-23.47722 54.09341 6.55303 5.91063 15.29265 9.48819 24.90448 9.48819 20.27999 0 36.74857-16.04659 36.74857-35.90862 0-19.86202-16.47127-36.03494-36.74857-36.03494m-289.20152 3.52783c-20.27999 0-36.74858 16.12722-36.74858 35.99194 0 19.86202 16.47127 35.90862 36.74858 35.90862 13.61272 0 25.48505-7.25054 31.83514-18.01681-15.41628-13.89629-26.18121-32.68182-29.72785-53.83806-.69347-.039-1.39635-.0417-2.10057-.0417" fill="#3a3a3a"/>
</svg>
