<?xml version="1.0" encoding="UTF-8"?>
<svg width="512" height="512" version="1.1" viewBox="0 0 512 512" xmlns="http://www.w3.org/2000/svg">
 <g transform="matrix(1.232 0 0 1.232 -58.482 -57.635)" fill="#3a3a3a" stroke-width="10.596">
  <path d="m252.06 195.43a52.981 52.981 0 0 0-52.981 52.981 52.981 52.981 0 0 0 52.981 52.981 52.981 52.981 0 0 0 52.981-52.981 52.981 52.981 0 0 0-52.981-52.981zm-10.596 21.192h21.192v21.192h21.192v21.192h-21.192v21.192h-21.192v-21.192h-21.192v-21.192h21.192z"/>
  <path d="m177.89 142.45c-16.777 0-34.776 4.0772-49.09 12.666-14.314 8.5885-25.083 22.36-25.083 40.315 0 40.205 34.328 79.392 78.622 109.05s99.155 49.897 143.9 49.897c16.777 0 34.776-4.0772 49.09-12.666 14.314-8.5885 25.083-22.36 25.083-40.315 0-40.205-34.328-79.392-78.622-109.05-44.294-29.653-99.155-49.897-143.9-49.897zm0 10.596c41.486 0 95.239 19.492 137.99 48.117 42.759 28.626 73.925 66.261 73.925 100.23 0 13.834-7.7743 23.903-19.95 31.209-12.176 7.3057-28.615 11.176-43.626 11.176-41.486 0-95.239-19.492-137.99-48.117-42.759-28.626-73.925-66.261-73.925-100.23 0-13.834 7.7743-23.903 19.95-31.209 12.176-7.3057 28.615-11.176 43.627-11.176z"/>
  <path d="m177.89 354.37c-16.777 0-34.776-4.0772-49.09-12.666-14.314-8.5885-25.083-22.36-25.083-40.315 0-40.205 34.328-79.392 78.622-109.05 44.294-29.653 99.155-49.897 143.9-49.897 16.777 0 34.776 4.0772 49.09 12.666 14.314 8.5885 25.083 22.36 25.083 40.315 0 40.205-34.328 79.392-78.622 109.05s-99.155 49.897-143.9 49.897zm0-10.596c41.486 0 95.239-19.492 137.99-48.117 42.759-28.626 73.925-66.261 73.925-100.23 0-13.834-7.7743-23.903-19.95-31.209-12.176-7.3057-28.615-11.176-43.626-11.176-41.486 0-95.239 19.492-137.99 48.117-42.759 28.626-73.925 66.261-73.925 100.23 0 13.834 7.7743 23.903 19.95 31.209 12.176 7.3057 28.615 11.176 43.627 11.176z"/>
  <path d="m252.06 89.464a84.769 158.94 0 0 0-84.769 158.94 84.769 158.94 0 0 0 84.769 158.94 84.769 158.94 0 0 0 84.769-158.94 84.769 158.94 0 0 0-84.769-158.94zm0 10.596a74.173 148.35 0 0 1 74.173 148.35 74.173 148.35 0 0 1-74.173 148.35 74.173 148.35 0 0 1-74.173-148.35 74.173 148.35 0 0 1 74.173-148.35z"/>
 </g>
</svg>
