<svg width="512" height="512" version="1.1" viewBox="0 0 512 512" xmlns="http://www.w3.org/2000/svg">
 <g font-size="15.235px" stroke-width="1.2696">
  <text x="857.33521" y="212.85825"/>
  <text x="1595.3196" y="111.2897"/>
  <text x="234.8343" y="-118.83922"/>
  <text x="1628.926" y="-393.67099"/>
  <text x="2366.9104" y="-495.25226"/>
  <text x="1872.881" y="-1095.0145"/>
  <text x="2610.8525" y="-1196.583"/>
  <text x="283.9173" y="599.55505"/>
  <text x="-459.01849" y="-95.275322"/>
  <text x="487.32101" y="-27.808416"/>
  <text x="1629.472" y="-185.01112"/>
  <text x="522.18439" y="-251.83052"/>
  <text x="1664.3353" y="-409.03323"/>
  <text x="-3299.3066" y="321.87939"/>
  <text x="-851.14923" y="22.975861"/>
  <text x="95.190254" y="90.442764"/>
  <text x="1237.3412" y="-66.747253"/>
  <text x="130.05367" y="-133.57936"/>
  <text x="1272.2174" y="-290.78207"/>
  <text x="-3691.4373" y="440.13055"/>
  <text x="-1758.3722" y="-125.3904"/>
  <text x="-812.03265" y="-57.910793"/>
  <text x="330.11832" y="-215.11351"/>
  <text x="-777.16925" y="-281.94559"/>
  <text x="364.99442" y="-439.13562"/>
  <text x="-4598.6602" y="291.77698"/>
  <text x="857.33521" y="212.85825"/>
  <text x="1595.3196" y="111.2897"/>
  <text x="234.8343" y="-118.83922"/>
  <text x="1628.926" y="-393.67099"/>
  <text x="2366.9104" y="-495.25226"/>
  <text x="1872.881" y="-1095.0145"/>
  <text x="2610.8525" y="-1196.583"/>
  <text x="283.9173" y="599.55505"/>
  <text x="64.237244" y="207.47511"/>
  <text x="802.22156" y="105.89388"/>
  <text x="-558.26367" y="-124.22235"/>
  <text x="835.82806" y="-399.06683"/>
  <text x="1573.8124" y="-500.63538"/>
  <text x="1079.783" y="-1100.3976"/>
  <text x="1817.7673" y="-1201.9662"/>
  <text x="-509.18066" y="594.15924"/>
  <text x="-1252.1165" y="-100.65845"/>
  <text x="-305.77695" y="-33.191547"/>
  <text x="836.37402" y="-190.39426"/>
  <text x="-270.91354" y="-257.22635"/>
  <text x="871.25006" y="-414.41635"/>
  <text x="-4092.4045" y="316.49625"/>
  <text x="-1644.2472" y="17.59272"/>
  <text x="-697.90771" y="85.059624"/>
  <text x="444.24323" y="-72.143082"/>
  <text x="-663.04431" y="-138.96249"/>
  <text x="479.11932" y="-296.16522"/>
  <text x="-4484.5356" y="434.74744"/>
  <text x="-2551.4702" y="-130.77353"/>
  <text x="-1605.1306" y="-63.306622"/>
  <text x="-462.97964" y="-220.49664"/>
  <text x="-1570.2672" y="-287.32874"/>
  <text x="-428.10355" y="-444.53143"/>
  <text x="-5391.7583" y="286.38116"/>
 </g>
 <path d="m256 208.44c-29.582 0-53.558 23.987-53.558 53.558 0 29.582 23.976 53.558 53.558 53.558 29.575 0 53.558-23.976 53.558-53.558 0-29.571-23.983-53.558-53.558-53.558m142.82-53.558h-42.846c-5.8914 0-12.24-4.5703-14.1-10.162l-11.076-33.238c-1.8674-5.5879-8.2086-10.158-14.1-10.158h-121.4c-5.8914 0-12.24 4.5703-14.1 10.162l-11.076 33.238c-1.8674 5.5879-8.2086 10.158-14.1 10.158h-42.846c-19.638 0-35.705 16.067-35.705 35.705v160.67c0 19.638 16.067 35.705 35.705 35.705h285.64c19.638 0 35.705-16.067 35.705-35.705v-160.67c0-19.638-16.067-35.705-35.705-35.705m-142.82 196.38c-49.298 0-89.263-39.965-89.263-89.263 0-49.295 39.965-89.263 89.263-89.263 49.291 0 89.263 39.968 89.263 89.263 0 49.298-39.972 89.263-89.263 89.263m130.32-135.72c-6.8982 0-12.497-5.5914-12.497-12.497 0-6.8982 5.5986-12.497 12.497-12.497 6.9054 0 12.497 5.5986 12.497 12.497 0 6.9054-5.595 12.497-12.497 12.497" fill="#3a3a3a" stroke-width="3.5705"/>
 <g transform="matrix(.39065 0 0 .39065 147.66 530.57)" fill="#3a3a3a">
  <rect x="208.27" y="-349.29" width="86.78" height="253.83" ry="13.5"/>
  <rect transform="rotate(90.219)" x="-267.79" y="-373.38" width="86.78" height="253.83" ry="13.5"/>
 </g>
</svg>
