<svg viewBox="0 0 512 512" xmlns="http://www.w3.org/2000/svg">
 <path d="m202.13 110.19c-11.817.421-21.584 7.26-26.594 16.375-5.323 9.685-5.311 22.363 2.719 32.16.111.135.199.272.313.406 7.802 11.351 20.434 20.16 34.375 24.281 11.59 3.429 24.24 3.491 35.5-1.438.02 69.36.313 146.17.313 214.94a4.566 4.566 0 0 0 3.4062 4.4375c4.513 1.17 9.365-.264 11.75-3.406s2.862-6.705 3.156-10.25c.295-3.545.241-7.188.313-10.344s.402-5.863.75-6.75a4.566 4.566 0 0 0 .25-.75c2.934-14.166 11.593-25.12 22.469-35.5 10.875-10.38 23.832-19.945 34.34-31.469 17.945-19.607 20.337-49.6 4.563-71.37-1.681-2.321-6.173-9.726-9.75-15.688-1.789-2.981-3.397-5.625-4.469-7.344-.536-.859-.76-1.294-1.375-2.063-.154-.192.166-.329-1.375-1.219-.385-.222-.978-.58-2.25-.594s-3.197.982-3.906 2.094c-1.418 2.224-.723 2.845-.656 3.25.269 1.621.397 1.291.563 1.656a4.566 4.566 0 0 0 .0625.125c9 18.272 19.432 37.48 14.656 55.75-6.221 22.35-29.451 37.28-53.656 40.906-.01.002-.021-.002-.031 0-.619.086-.562.051-.906.063-.022-.522-.338-2.507-.625-7.03v-152.44a4.566 4.566 0 0 0 -.34375-1.75c-9.439-22.89-35.696-37.577-60.813-37v-.031c-.085-.004-.165.004-.25 0-.041.001-.084-.001-.125 0-.805-.03-1.587-.028-2.375 0m7.281 15.687c9.148.06 19.352 3.562 26.844 9.281 7.909 6.04 12.614 14.01 11.625 23.19-2.344 7.614-8.582 10.917-16.938 11.688-8.503.784-18.571-1.858-24.781-6a4.566 4.566 0 0 0 -.625-.34375c-6.655-3.045-13.05-10.525-15.188-17.719-1.068-3.597-1.124-7.01-.125-9.875.997-2.863 2.954-5.415 6.969-7.531.008-.004.023.004.031 0 3.03-1.571 6.631-2.439 10.344-2.656h.031c.599-.027 1.203-.035 1.813-.031" fill="#3a3a3a"/>
</svg>
