<?xml version="1.0" encoding="UTF-8"?>
<svg width="512" height="512" version="1.1" viewBox="0 0 512 512" xmlns="http://www.w3.org/2000/svg">
 <g transform="matrix(.69021 0 0 .69021 678.08 253.93)">
  <path d="m-760.99-253.69-142.75 247.24 142.74 247.25h285.49l142.75-247.24-142.75-247.24zm274.43 19.129 59.633 103.28-58.928 34.023-39.99-69.18h-79.943v-68.047zm-144.13 0.0312v68.047h-79.945l-39.988 69.225-58.928-34.023 59.631-103.2zm-0.0352 88.83v58.748h-34.023l-17.029 29.494-50.873-29.373 34.023-58.861zm24.943 8e-3 67.902 8e-3 34.023 58.861-50.871 29.373-17.031-29.494h-34.023zm-216.23 36.061 58.932 33.979-39.957 69.199 39.988 69.266-58.926 34.023-59.631-103.28zm407.54 0 59.602 103.23-59.633 103.28-58.928-34.023 39.988-69.264-39.959-69.201zm-330.61 44.379 50.947 29.361-16.992 29.432 17.029 29.494-50.871 29.373-34.023-58.861zm253.66 0 33.986 58.811-34.023 58.861-50.873-29.373 17.031-29.496-16.994-29.43zm-160.58 0.33984h67.51l33.758 58.463-33.758 58.465h-67.51l-33.76-58.465zm-29.715 109.53 16.986 29.434h34.023v58.748h-67.934l-33.947-58.809zm126.94 0 50.865 29.369-33.947 58.809h-67.934v-58.748h34.023zm-195.86 39.77 39.996 69.199h79.898v68.047h-119.22l-59.598-103.22zm264.7 0 58.973 34.023-59.594 103.22h-119.23v-68.047h79.895z" style="fill:#3a3a3a;stroke-width:3.7804"/>
 </g>
</svg>
