<svg viewBox="0 0 512 512" xmlns="http://www.w3.org/2000/svg">
 <path d="m320.92 132.72c-3.082.159-5.772 1.152-7.748 3.066l-.112.112-14.603 14.659-.307.307.307.307 62.46 62.43.335.307.307-.307 14.412-14.436.195-.195c.072-.072.102-.15.112-.168 3.512-3.663 3.884-9.625 1.756-16.275-2.137-6.676-6.793-14.12-13.484-20.818l-14.157-14.185c-9.251-9.252-19.926-14.618-28.09-14.801-.444-.01-.912-.023-1.365 0m-30.24 25.58l-.307.335-15.44 15.468-.307.307.307.335 62.43 62.39.307.335.335-.335 15.44-15.468.307-.307-.307-.307-62.43-62.43-.335-.335m-24.997 24.997l-.335.307-94.19 94.28-11.645 11.593-2.926 2.955-.083.056-.027.112-23.549 73.72-.028.027c-.847 3.972.45 8.375 3.26 11.04l.028.027c2.606 1.949 6.07 2.436 9.03 1.254h.028l74.72-23.605.083-.027.083-.083 2.425-2.452 11.259-11.231 94.61-94.58.307-.335-.307-.307-62.43-62.43-.307-.307m-92.38 119.77h.055c.089-.003.163-.003.25 0 .01 0 .018-.001.028 0h .027c.818.011 1.599.364 2.174.948l5.378 5.35 20.228-1.056c.008-.001.019 0 .028 0 .8-.036 1.599.252 2.202.78.709.627 1.11 1.562 1.056 2.508l-1 22.1 3.929 3.929c.778.782 1.097 1.945.808 3.01-.289 1.066-1.163 1.919-2.23 2.202l-35.23 9.448h-.027c-1.056.29-2.225-.015-3.01-.78h-.027l-6.827-6.827c-.801-.791-1.116-1.983-.808-3.066l10.311-36.23c.324-1.227 1.415-2.172 2.675-2.313" fill="#3a3a3a"/>
</svg>
