<svg height="512" viewBox="0 0 512 512" width="512" xmlns="http://www.w3.org/2000/svg">
 <path d="m256.00054 49.702712c-64.10381 0-116.03806 51.974958-116.03806 116.078758 0 34.49666 15.03217 65.47406 37.62249 89.32474 22.56182 23.82084 23.51558 54.40344 23.3487 79.86045-.34867 1.34584-.14652 2.82464.54811 4.02802l11.1466 19.31933-11.73269 15.64404c-1.43403 1.93465-1.33092 4.85832.23471 6.68715l8.72083 10.28509-7.74401 10.01241c-1.45031 1.87902-1.43267 4.74843.0393 6.60981l7.97872 10.12908v.11668l-6.92186 9.22959c-1.85595 2.48817-.91848 6.55283 1.83832 7.97872 16.81487 9.47515 35.06648 18.41848 51.03748 26.6726 1.58734.8398 3.60203.80859 5.16222-.0787l45.48453-25.96712c2.74595-1.56291 3.47314-5.78223 1.40825-8.1673l-7.54864-8.76018 11.57667-11.22393c2.16121-2.08117 2.02419-6.0495-.27405-7.97871l-10.44248-8.83887 9.07357-9.81704c1.70537-1.84239 1.84511-4.93294.3134-6.92185l-10.01241-12.94558 9.57827-23.58341c.28083-.69192.41514-1.44352.39072-2.18971-.16009-24.73117-1.43674-56.0993 16.58288-77.94208 27.17458-21.23769 44.66237-54.30847 44.66237-91.48189 0-64.1038-51.93425-116.078751-116.03806-116.078751m0 26.048528c49.72285 0 90.03023 40.306023 90.03023 90.030223 0 29.47825-14.19238 55.67873-36.91565 72.62384-20.84018 20.93786-27.16102 64.95581-26.00783 91.59043-5.4227-.0136-10.86712-.0312-16.30746-.0394l-.0393-104.15341c8.34774-18.87297 12.42732-21.02333 18.38185-28.86231 2.68082-5.90569.45449-11.1059-6.81061-12.55349-4.03209-.54946-8.40065-1.15048-12.94557-1.60361-2.88976-.28762-6.39139-.40701-10.08974-.39073-11.09776.0488-23.91987 1.39332-26.7513 3.55861-1.52221 1.08671-3.00236 2.18292-3.83266 4.65346-.7299 2.25754-.061 4.78099 1.40825 7.43061 8.78867 9.83875 14.63331 15.69424 17.63703 28.11884v103.86851c-5.0252.0448-10.06532.0977-15.09594.19537 1.21696-26.64412-4.98314-70.87371-23.6214-90.34227-.0109-.007.0109-.0326 0-.0393l-13.18029-10.51981c-13.11516-10.53744-25.88572-35.55896-25.88572-63.55163 0-49.72284 40.30603-90.030223 90.03023-90.030223m-28.50415 65.898703c-1.98349.0896-3.86794 1.3567-4.69281 3.16788-5.10117 11.26057-12.59961 19.80503-28.31556 24.55617l3.12854 10.40313c15.7078-4.7525 25.53027-13.99566 31.87417-24.79494 8.91077 6.39138 16.10532 10.3258 24.28618 10.5198 8.34232.19808 16.46891-3.34832 27.41879-9.42495 5.92197 11.96876 15.83127 19.436 26.82863 24.16951l4.30208-9.97306c-11.015-4.74029-19.14296-11.20087-23.3867-23.6214-1.02566-3.01458-5.05233-4.54493-7.82134-2.97252-13.62121 7.84576-21.23498 11.08962-27.06333 10.94852-5.82836-.13838-11.90907-3.49077-22.99597-11.88871-1.00938-.76518-2.29417-1.15997-3.55861-1.09485m80.80471 97.2614c.55895-.3351-.53047.34189-1.64296 1.01617v.0393l1.64296-1.05551m-52.52306 101.76563c13.8627-.0285 27.78509.0502 41.68985.0394l-1.29021 3.16788-72.12187 12.90623c-.0977-.25641-.21571-.50469-.35138-.74347l-8.44813-14.62652c13.46247-.46263 26.96701-.71497 40.51767-.74347m35.58609 15.09594l-1.64296 4.02803c-.6892 1.72707-.39616 3.80959.74347 5.28025l4.57613 5.90569-76.34119 13.76638-6.60981-7.82135 6.02237-8.0167zm8.09539 20.96228l.11668.15602-.0787.0787-.0393-.23471m-4.65346 5.31824l-5.04554 5.48105c-1.96314 2.12051-1.73522 5.87584.46941 7.74401l4.53679 3.83266-74.93022 13.53167-6.64916-8.40879 6.64916-8.68285zm4.30208 20.72758l1.32956 1.13419-.97818.93884zm-5.24091 7.5093l-4.38077 4.26273c-1.93464 1.88716-2.07981 5.30739-.31339 7.35193l3.3239 3.83266-64.1445 9.34762-12.75021-6.64916 3.48127-4.61547zm-13.9224 28.27622l-21.47104 12.27808-13.68904-7.15656z" fill="#3a3a3a"/>
</svg>
