<svg width="512" height="512" version="1.1" viewBox="0 0 512 512" xmlns="http://www.w3.org/2000/svg">
 <path class="ColorScheme-Text" d="m156.13 45.993c-28.164 0-50.995 22.831-50.995 50.995 0 28.164 22.831 50.995 50.995 50.995 28.164 0 50.995-22.831 50.995-50.995 0-28.164-22.831-50.995-50.995-50.995zm56.423 0c12.315 13.599 20.069 31.398 20.069 50.995 0 41.943-34.549 76.492-76.492 76.492-19.597 0-37.397-7.754-50.995-20.069v249.55c0 28.455 22.547 50.995 50.995 50.995 28.448 0 50.995-22.54 50.995-50.995 0 0 3.8406-51.286 0-76.492-1.5532-10.194-1.7547-18.624-9.213-29.531 0 0-0.14985-0.1907-0.20399-0.29832-7.3856-14.684-16.065-26.725-16.085-46.613v-0.0509c0-41.943 34.549-76.492 76.492-76.492h0.0509c24.554 0.0255 47.651 11.891 62.001 31.822l0.4972 0.74707 51.244 76.891c24.146-25.171 39.192-59.173 39.192-96.711 0-77.451-63.744-140.24-140.24-140.24zm45.567 152.98c-28.165 0-50.995 22.83-50.995 50.995 0.0133 12.035 5.5827 22.809 12.051 32.868l98.056 147.76c9.536 14.508 25.539 23.356 42.878 23.356 28.164 0 50.995-22.831 50.995-50.995-0.024-10.509-3.294-20.753-9.3624-29.332l-102.29-153.43c-9.5692-13.302-24.946-21.194-41.334-21.215z" fill="#3a3a3a" stroke-width="25.497"/>
</svg>
