<svg width="512" height="512" version="1.1" viewBox="0 0 512 512" xmlns="http://www.w3.org/2000/svg">
 <path d="m157.69 386.31-89.736-43.309 0.51903-104.52 0.51902-104.52 23.791-10.402c104.03-45.484 156.56-67.234 162.24-67.176 3.6704 0.03423 45.75 16.9 93.511 37.471l86.838 37.402v213.91l-86.838 42.187c-52.804 25.653-89.635 42.202-93.975 42.225-4.4392 0.0256-41.06-16.335-96.873-43.272zm138.12-68.278c20.493-10.462 41.357-21.511 46.362-24.555l9.1015-5.5336-10.408-5.5213-10.408-5.5214-38.011 18.18c-45.496 21.761-34.552 21.714-78.72 0.33721-42.204-20.426-37.107-19.035-50.134-13.68-13.628 5.6028-16.09 3.6081 38.032 30.82 57.919 29.121 48.888 28.596 94.185 5.4733zm14.659-64.833c21.104-11.461 21.696-12.703 8.7428-18.354-6.1171-2.6686-15.94-6.9551-21.828-9.5257l-10.706-4.6737v42.976l5.353-1.658c2.9442-0.91187 11.241-4.8558 18.438-8.764zm-39.3-33.233c19.318-9.5259 19.641-8.3809-5.9027-20.901-25.876-12.683-25.749-11.046-1.7844-23.045l19.628-9.8275-30.598-14.078-34.662 15.24c-48.236 21.207-47.984 18.173-3.3876 40.862 44.374 22.576 37.601 21.172 56.707 11.751zm-65.386-64.48 48.767-22.119 26.175 11.704c14.397 6.4373 35.276 16.018 46.398 21.29 11.122 5.2723 23.434 9.6034 27.36 9.6247 7.9867 0.0427 78.467-33.981 75.56-36.476-3.0517-2.6198-172.3-74.468-175.42-74.468-2.3207 0-92.997 39.024-156.3 67.264-17.376 7.7522-16.25 9.2984 20.363 27.974 40.769 20.795 29.29 21.426 87.097-4.7937z" fill="#3a3a3a" stroke-width="8.5365"/>
</svg>
