<svg width="512" height="512" version="1.1" viewBox="0 0 512 512" xmlns="http://www.w3.org/2000/svg">
 <path d="m259.84 65.584c-23.754 0-59.385 23.754-59.385 71.262 0 83.139 190.03 35.631 190.03 213.78 0 4.9052-0.32067 9.846-0.80763 14.775 30.963-32.959 48.292-76.452 48.315-121.67 0.05931-98.389-79.766-178.15-178.15-178.15zm-129.92 56.582c-30.904 32.947-48.197 76.404-48.232 121.57-0.05932 98.389 79.766 178.15 178.15 178.15 23.754 0 59.385-23.754 59.385-71.262 0-118.77-190.03-59.385-190.03-213.78 0-4.9052 0.27316-9.7985 0.72449-14.68z" fill="#3a3a3a"/>
</svg>
