<?xml version="1.0" encoding="UTF-8"?>
<svg width="512" height="512" version="1.1" viewBox="0 0 512 512" xmlns="http://www.w3.org/2000/svg">
 <g transform="matrix(15.703 0 0 15.703 -119.42 -131.84)" fill="#3a3a3a">
  <g fill="#3a3a3a">
   <g fill="#3a3a3a">
    <path d="m23.355 12.11c-1.918 0.645-0.234 3.625-2.984 5.082-3.133 1.672-4.691-2.543-6.574 0.465-1.879 3.01 2.594 2.543 2.473 6.086-0.125 3.543-4.563 2.789-2.898 5.914 1.668 3.121 3.516-0.98 6.523 0.895 3.01 1.867 0.129 5.332 3.68 5.449 3.543 0.109 0.914-3.523 4.055-5.191 3.129-1.668 4.691 2.543 6.57-0.465 1.883-3.01-2.594-2.543-2.473-6.078 0.129-3.543 4.563-2.789 2.898-5.918-1.664-3.121-3.516 0.977-6.523-0.891-3.01-1.875-0.129-5.336-3.676-5.449-0.445-0.016-0.801 0.012-1.07 0.102m0.031 9.02c1.586-0.348 3.137 0.672 3.477 2.27 0.336 1.586-0.676 3.152-2.254 3.484-1.59 0.34-3.141-0.672-3.477-2.273-0.336-1.59 0.672-3.145 2.254-3.48" fill="#3a3a3a"/>
   </g>
  </g>
 </g>
</svg>
