<?xml version="1.0" encoding="UTF-8" standalone="no"?>
<svg
   height="512"
   viewBox="0 0 512 512"
   width="512"
   version="1.1"
   id="svg7"
   sodipodi:docname="sparky.svg"
   inkscape:version="1.3.2 (091e20ef0f, 2023-11-25, custom)"
   xmlns:inkscape="http://www.inkscape.org/namespaces/inkscape"
   xmlns:sodipodi="http://sodipodi.sourceforge.net/DTD/sodipodi-0.dtd"
   xmlns="http://www.w3.org/2000/svg"
   xmlns:svg="http://www.w3.org/2000/svg">
  <defs
     id="defs7" />
  <sodipodi:namedview
     id="namedview7"
     pagecolor="#ffffff"
     bordercolor="#666666"
     borderopacity="1.0"
     inkscape:showpageshadow="2"
     inkscape:pageopacity="0.0"
     inkscape:pagecheckerboard="0"
     inkscape:deskcolor="#d1d1d1"
     inkscape:zoom="0.77734375"
     inkscape:cx="189.74874"
     inkscape:cy="286.87437"
     inkscape:window-width="1920"
     inkscape:window-height="1025"
     inkscape:window-x="0"
     inkscape:window-y="0"
     inkscape:window-maximized="1"
     inkscape:current-layer="svg7" />
  <path
     d="m 296.54744,65.534628 c -153.2631,91.957852 -91.95786,168.589412 -76.63156,183.915712 -8.81154,-34.66198 2.00453,-83.39658 45.97894,-107.28416 13.46753,-7.31571 30.65262,-61.305249 30.65262,-76.631552 z M 153.0426,86.878046 C 109.69367,260.27991 207.2211,271.11561 228.89557,271.11561 198.15559,252.83745 171.34682,210.73915 185.55124,162.75401 189.9013,148.05791 163.87984,97.707619 153.0426,86.87038 Z m 178.70477,54.091144 c -95.68981,1.51271 -102.85333,69.19829 -102.85333,86.80975 18.27815,-30.73998 60.37646,-57.54875 108.36161,-43.34434 14.69608,4.35007 65.04639,-21.67139 75.88361,-32.50863 -32.5117,-8.128 -59.30821,-11.30515 -81.39036,-10.95586 z m -17.9609,52.92328 c -32.56841,-1.91579 -55.55788,17.2421 -63.22103,24.90525 34.66198,-8.81156 83.39658,2.00453 107.28416,45.97892 7.31571,13.46754 61.30524,30.65262 76.63155,30.65262 C 388.50222,218.79772 346.35487,195.80825 313.78647,193.89247 Z M 66.649728,203.47142 C 158.60758,356.7345 235.23914,295.42926 250.56544,280.10296 215.90346,288.91452 167.16886,278.09843 143.28128,234.12404 135.96557,220.6565 81.976044,203.47142 66.649728,203.47142 Z m 205.587112,24.30599 c 30.73998,18.27815 57.54875,60.37646 43.34434,108.36161 -4.35007,14.69608 21.67139,65.04637 32.50863,75.88361 43.34893,-173.40186 -54.1785,-184.23756 -75.85297,-184.23756 z m 8.9803,21.67293 c 8.81156,34.66198 -2.00453,83.39658 -45.97893,107.28416 -13.46753,7.31571 -30.65262,61.30524 -30.65262,76.63155 153.26309,-91.95785 91.95785,-168.58941 76.63155,-183.91571 z m -8.9803,21.67293 c -18.27815,30.73998 -60.37646,57.54877 -108.36161,43.34434 -14.69608,-4.35007 -65.046388,21.67141 -75.883614,32.50863 173.401864,43.34893 184.237564,-54.1785 184.237564,-75.85297 z"
     style="opacity:1;fill:#3a3a3a;fill-opacity:1;stroke-width:15.3263"
     id="path6" />
</svg>
