<svg viewBox="0 0 512 512" xmlns="http://www.w3.org/2000/svg">
 <path d="m256 1c-140.83 0-255 114.17-255 255 0 140.83 114.17 255 255 255 140.83 0 255-114.17 255-255 0-140.83-114.17-255-255-255m8.827 44.931c120.9 0 218.9 98 218.9 218.9 0 120.9-98 218.9-218.9 218.9-120.9 0-218.93-98-218.93-218.9 0-120.9 98.03-218.9 218.93-218.9" fill-opacity=".067" fill-rule="evenodd"/>
 <path d="m67.218457 44.998302c-11.48811 0-20.72605 9.23795-20.72605 20.72606v160.403028c0 11.48811 9.23794 20.72606 20.72605 20.72606h160.843003c11.48812 0 20.72606-9.23795 20.72606-20.72606v-160.403028c0-11.48811-9.23794-20.72606-20.72606-20.72606zm216.720083 0c-11.48812 0-20.72606 9.23795-20.72606 20.72606v160.403028c0 11.48811 9.23794 20.72606 20.72606 20.72606h160.843c11.48811 0 20.72606-9.23795 20.72606-20.72606v-160.403028c0-11.48811-9.23795-20.72606-20.72606-20.72606zm-136.51857 48.21048c29.15162 0 52.71553 23.563908 52.71553 52.715528 0 29.15161-23.56391 52.71552-52.71553 52.71552-29.15161 0-52.715523-23.56391-52.715523-52.71552 0-29.15162 23.563913-52.715528 52.715523-52.715528m216.72008 0c29.15162 0 52.71552 23.563908 52.71552 52.715528 0 29.15161-23.5639 52.71552-52.71552 52.71552-29.15162 0-52.71552-23.56391-52.71552-52.71552 0-29.15162 23.5639-52.715528 52.71552-52.715528m-296.921593 168.055478c-11.48811 0-20.72605 9.23795-20.72605 20.72606v159.94734c0 11.48811 9.23794 20.72605 20.72605 20.72605h160.843003c11.48812 0 20.72606-9.23794 20.72606-20.72605v-159.94734c0-11.48811-9.23794-20.72606-20.72606-20.72606zm216.720083 0c-11.48812 0-20.72606 9.23795-20.72606 20.72606v159.94734c0 11.48811 9.23794 20.72605 20.72606 20.72605h160.843c11.48811 0 20.72606-9.23794 20.72606-20.72605v-159.94734c0-11.48811-9.23795-20.72606-20.72606-20.72606zm80.20151 47.7595c29.15162 0 52.71552 23.56391 52.71552 52.71553 0 29.15161-23.5639 52.71552-52.71552 52.71552-29.15162 0-52.71552-23.56391-52.71552-52.71552 0-29.15162 23.5639-52.71553 52.71552-52.71553m-258.62788.45098h83.79989c5.99312 0 10.81401 4.81932 10.81401 10.814v83.35992c0 5.99312-4.81932 10.81401-10.81401 10.81401h-83.79989c-5.993113 0-10.814003-4.81932-10.814003-10.81401v-83.35992c0-5.99311 4.81932-10.814 10.814003-10.814" fill="#3a3a3a"/>
</svg>
