<svg height="512" viewBox="0 0 512 512" width="512" xmlns="http://www.w3.org/2000/svg">
 <g fill="#3a3a3a" fill-rule="evenodd" transform="matrix(1.1125 0 0 1.1125 -25.507 -104.2)">
  <path d="m132.98 280.02c-.11 0-.204.089-.204.192v127.9c0 .103.094.192.204.192h240.13c.11 0 .204-.089.204-.192v-127.9c0-.103-.094-.192-.204-.192h-87.7v1.785c0 .248-.011.498-.029.741.004.098 0 .203 0 .302v9.143c0 5.631-4.827 10.187-10.795 10.187h-43.09c-5.967 0-10.766-4.555-10.766-10.187v-9.143c0-.171-.008-.353 0-.522-.004-.072.002-.147 0-.22-.003-.101-.029-.201-.029-.302v-1.785h-87.73"/>
  <path d="m248.81 239.27c-35.463.02-69.51.067-115.83.11-.11 0-.204.022-.204.055v20.538c0 .033.094.055.204.055h87.73v-3.515c0-5.586 4.759-10.1 10.678-10.1h43.35c5.92 0 10.678 4.518 10.678 10.1v3.515h87.7c.11 0 .204-.022.204-.055v-20.538c0-.033-.094-.055-.204-.055-51.974-.124-88.84-.13-124.3-.11"/>
 </g>
</svg>
