<svg height="512" viewBox="0 0 512 512" width="512" xmlns="http://www.w3.org/2000/svg">
 <path d="m204.87705 32.121929v150.348341h-59.79023c-17.51132 0-1.3637 15.21348-1.3637 15.21348l106.1098 128.22907.0423.0423c0 0 8.65134 10.13641 17.72815 1.02278 12.58562-12.57335 102.87782-132.40201 102.87782-132.40201 0 0 15.96215-15.98125-5.28435-15.98125h-55.18773v-146.461782h-105.12793m-84.59058 328.570782c-24.284842 0-43.856719 19.52414-43.856719 43.8158 0 24.28484 19.566423 43.85672 43.856719 43.85672h272.65894c24.28484 0 43.85672-19.56643 43.85672-43.85672 0-24.28484-19.56642-43.80217-43.85672-43.80217h-272.65894m-1.32143 20.24282c.40229-.0204.8714 0 1.27915 0 13.03565 0 23.56617 10.53052 23.56617 23.56617 0 13.03564-10.53052 23.65208-23.56617 23.65208-13.03564 0-23.566164-10.61507-23.566164-23.65208 0-12.62926 9.815944-22.93477 22.288374-23.56617" fill="#3a3a3a"/>
</svg>
