<svg height="512" viewBox="0 0 512 512" width="512" xmlns="http://www.w3.org/2000/svg">
 <g fill="#3a3a3a" transform="matrix(6.7096102 0 0 6.7096102 36.782762 36.703102)">
  <path d="m24.771 4.485c-.349-.224-.763-.354-1.208-.354-1.241 0-2.247 1.007-2.247 2.248 0 .405.107.785.295 1.115z"/>
  <path d="m57.55 38.703c3.037-3.838 3.726-8.354 1.537-10.085-2.038-1.614-5.856-.236-8.825 3.066-2.779-.773-5.248-.584-7.344.6-4.025 2.271-5.548 7.483-6.113 11.456-.09.611-.171 1.232-.254 1.861-.902 6.859-1.758 13.347-9.899 13.347-.131 0-.266-.001-.4-.007-2.31-.057-3.973-.776-5.084-2.196-2.045-2.614-1.69-6.897-1.43-8.681.805-.363 1.381-1.156 1.413-2.101l.12-3.516 4.309-1.283c.934-.276 1.566-1.073 1.688-1.979 3.56-1.94 5.968-4.539 7.189-7.772 3.468-9.178-4.023-19.876-4.345-20.327-.07-.099-.165-.165-.254-.239.214-.487.163-.934-.195-1.165-.565-.365-1.438-1.455-1.948-2.434l-.896-1.721c-.51-.98-1.568-1.151-2.363-.385l-2.24 2.164c-.795.767-.644 1.801.336 2.31l1.568.814c.98.509 2.055 1.433 2.399 2.064.26.475.853.536 1.476.217.636.932 6.801 10.286 3.967 17.769-.976 2.581-2.949 4.688-5.877 6.311-.55-.316-1.22-.418-1.874-.223l-5.256 1.565-5.619-1.78c-.645-.203-1.311-.117-1.862.182-2.681-1.587-4.501-3.608-5.427-6.055-2.969-7.843 3.952-17.75 4.022-17.85.011-.016.012-.034.023-.051 0 0 .163.152.365.339.202.188.645-.172.989-.803.344-.632 1.418-1.556 2.398-2.064l1.568-.813c.981-.509 1.131-1.543.336-2.31l-2.24-2.164c-.795-.767-1.853-.595-2.363.385l-.895 1.719c-.51.98-1.383 2.069-1.948 2.435-.566.365-.821.851-.569 1.085l.456.424c-.105.08-.211.16-.292.274-.321.451-7.812 11.149-4.345 20.327 1.161 3.073 3.402 5.569 6.677 7.476.097.92.722 1.74 1.659 2.037l4.586 1.452-.118 3.422c-.024.714.272 1.357.751 1.813-.319 2.121-.745 7.304 1.953 10.764 1.611 2.064 4.007 3.15 7.123 3.229.168.006.331.009.493.009 10.453 0 11.598-8.675 12.518-15.664.08-.618.16-1.229.248-1.833.683-4.776 2.381-8.154 4.785-9.512 1.211-.683 2.654-.873 4.303-.59-2.071 3.426-2.334 7.004-.441 8.502 2.186 1.732 6.423.024 9.461-3.815zm-3.907-3.171c-1.138 1.438-2.725 2.077-3.543 1.43-.601-.476-.617-1.509-.141-2.594.432.136.869.289 1.324.481.679.286 1.46-.029 1.746-.707.289-.679-.028-1.459-.706-1.747-.202-.086-.396-.149-.597-.226.928-.676 1.904-.88 2.49-.416.822.65.563 2.343-.573 3.779z"/>
  <path d="m16.648 6.001c0-1.241-1.006-2.248-2.247-2.248-.445 0-.859.13-1.208.354l3.16 3.01c.188-.331.295-.711.295-1.116z"/>
  <path d="m61.398 30.048c-.57-.312-.676.272-.567 1.372.162 1.643-.099 4.161-2.231 6.891-2.689 3.441-5.054 4.682-6.617 5.104-1.066.289-1.358.517-.596.959.764.44 2.262.571 3.198-.015 1.197-.746 2.942-2.174 5.115-4.885 2.366-2.955 2.954-5.345 3.005-6.894.036-1.102-.736-2.22-1.307-2.532z"/>
 </g>
</svg>
