<svg height="512" viewBox="0 0 512 512" width="512" xmlns="http://www.w3.org/2000/svg">
 <g fill="#3a3a3a" transform="matrix(1.5452899 0 0 1.5452899 -142.72517 -139.26252)">
  <path d="m144 128c-8.844 0-16 7.164-16 16v43.844h256v-43.844c0-8.836-7.156-16-16-16zm0 13.906h16l16 32h-32zm48 0h32l16 32h-32zm64 0h32l16 32h-32zm64 0h32l16 16v16h-32z"/>
  <path d="m128 205.63v162.38c0 8.844 7.156 16 16 16h224c8.844 0 16-7.156 16-16v-162.37h-256m88.78 40.09c1.711.043 3.563.547 5.531 1.531l83.38 41.688c7.875 3.938 7.875 10.375 0 14.313l-83.37 41.688c-7.875 3.938-14.313-.047-14.313-8.844v-80c0-6.598 3.648-10.503 8.781-10.375"/>
 </g>
</svg>
