<svg viewBox="0 0 512 512" xmlns="http://www.w3.org/2000/svg">
 <path d="m253.54 88.5c-16.821.008-27.869 4.7-39.445 16.441-26.03 26.401-17.955 71.77 15.638 87.93 12.13 5.833 22.761 7.174 35.36 4.503 30.564-6.478 50.5-37.623 42.865-66.951-4.349-16.697-14.807-29.55-30.09-37.07-8.342-4.105-9.529-4.394-20.874-4.782-1.175-.04-2.334-.07-3.456-.07m-74.56 126.05c-38.593.052-76.23.555-77.53 1.501-1.798 1.315-1.907 3.858-1.571 30.997.348 28.1.486 29.843 2.932 35.15 5.941 12.89 16.956 23.19 29.461 27.507 5.502 1.9 11.443 2.026 87.13 2.059 79.18.035 81.25-.023 82.38-2.129 1.474-2.755 1.529-44.08.07-52.988-1.475-9.01-6.683-19.662-12.846-26.25-6.211-6.641-17.744-12.901-26.773-14.556-5.114-.938-44.659-1.344-83.25-1.292m204.34.07c-22.581 0-27.549.329-33.09 2.059-15.12 4.72-26.485 15.894-31.765 31.24-1.858 5.399-2.129 9.577-2.129 33.86 0 25.2.176 27.797 1.955 28.833 2.534 1.476 47.21 1.559 54.873.105 14.678-2.784 27.661-12.794 34.488-26.599l4.189-8.482.349-28.903c.254-21.08-.014-29.346-.977-30.508-1.078-1.299-6.236-1.606-27.89-1.606m-151.22 110.72c-18.11.006-21.969.4-23.702 1.536l-2.653 1.745v91.421l2.478 1.71c2.042 1.43 6.353 1.751 24.295 1.745 11.997-.003 24.763-.49 28.379-1.082 15.536-2.544 29.17-12.482 35.919-26.18 5.165-10.478 6.101-17.07 6.109-43.738 0-17.59-.327-22.872-1.571-24.574-1.516-2.074-3.519-2.175-45.937-2.478-9.655-.069-17.281-.107-23.318-.105" fill="#3a3a3a"/>
</svg>
