<svg width="512" height="512" version="1.1" viewBox="0 0 512 512" xmlns="http://www.w3.org/2000/svg">
 <path d="m99.245 415.72c-4.4376-0.96097-7.5706-3.2756-10.701-7.9057-0.79591-1.1772-1.788-2.9855-2.2046-4.0185l-0.75749-1.8781v-308.3l0.74484-2.063c1.7228-4.7717 5.0519-7.7115 9.864-8.7104 1.5332-0.3183 33.256-0.35152 154.62-0.16202 165.97 0.25915 152.06 1.6118 155.61 2.4894 3.61 0.58767 8.7058 3.424 9.3464 7.2731 0.66254 97.913 0.4193 207.1-1.1453 309.03-0.1735 0.95243-1 3.0975-1.8367 4.7669-2.7509 5.4886-6.2719 8.3942-11.511 9.499-3.3148 0.69902-298.8 0.68155-302.03-0.018zm234.72-80.191c1.946-0.54424 3.2815-1.6548 4.2218-3.5109l0.88408-1.7451v-166.3l-0.88408-1.7451c-0.96507-1.905-2.2955-2.9822-4.3886-3.5534-0.96609-0.26364-23.41-0.29767-84.099-0.12754-89.383 0.25065-83.902 0.13108-85.793 1.8701-0.42357 0.38939-1.0372 1.2867-1.3636 1.9939-0.5721 1.2396-0.59373 4.2888-0.60054 84.64-8e-3 90.745-0.12931 84.539 1.6961 86.494 1.8143 1.9432-1.0443 1.8072 41.697 1.9831 80.156 0.32986 127.44 0.32879 128.63-2e-3z" fill="#3a3a3a" stroke-width=".32148"/>
</svg>
