<?xml version="1.0" encoding="UTF-8" standalone="no"?>
<svg xmlns="http://www.w3.org/2000/svg" viewBox="0 0 512 512" version="1.1">
 <path d="m131.73 133.93c-8.389 0-15.15 6.765-15.15 15.15v185.17c0 8.389 6.765 15.15 15.15 15.15h76.97l25.692 31.686 25.692 31.686 25.71-31.686 25.692-31.686h68.783c8.389 0 15.15-6.765 15.15-15.15v-185.17c0-8.389-6.765-15.15-15.15-15.15zm160.74 30.653c11.192 0 21.309 4.74 28.406 12.302 8.864-1.745 17.196-4.979 24.716-9.441-2.906 9.09-9.07 16.726-17.11 21.541 7.87-0.937 15.363-3.054 22.341-6.15-5.217 7.8-11.82 14.651-19.424 20.14 0.072 1.67 0.114 3.349 0.114 5.04 0 51.42-39.13 110.73-110.71 110.73-21.975 0-42.42-6.468-59.64-17.507 3.044 0.353 6.127 0.543 9.268 0.543 18.232 0 35.03-6.24 48.34-16.677-17.03-0.308-31.407-11.544-36.36-27 2.376 0.471 4.816 0.688 7.323 0.688 3.549 0 6.976-0.444 10.241-1.347-17.801-3.577-31.21-19.309-31.21-38.16 0-0.163-0.004-0.353 0-0.516 5.246 2.914 11.243 4.687 17.621 4.892-10.442-6.976-17.307-18.908-17.307-32.409 0-7.132 1.914-13.821 5.264-19.567 19.19 23.543 47.872 39.05 80.21 40.677-0.664-2.849-1-5.82-1-8.867 0-21.491 17.415-38.934 38.904-38.934z" fill="#3a3a3a"/>
</svg>
