<svg height="512" viewBox="0 0 512 512" width="512" xmlns="http://www.w3.org/2000/svg">
 <path d="m348.56062 84.714746c-18.69812 0-33.86541 15.135768-33.86541 33.833884 0 18.69812 15.16729 33.86542 33.86541 33.86542 18.69813 0 33.86542-15.1673 33.86542-33.86542 0-18.698116-15.16729-33.833884-33.86542-33.833884m-79.1648 35.393174c-21.87369 0-42.52274 5.11558-60.83165 14.18395l24.96195 43.23812c10.9029-5.07921 23.04983-7.93467 35.86485-7.93467 44.11113 0 80.36519 33.58411 84.63201 76.57003h51.14369c-2.17282-34.49835-17.51471-65.45737-41.08228-88.06463-11.62312 4.56025-25.11957 3.97825-36.77544-2.74876-11.53946-6.66275-18.76481-17.90999-20.70967-30.11633-11.82562-3.31864-24.31084-5.12407-37.20831-5.12407m-74.72702 22.11861c-27.64645 18.00821-48.27003 45.71649-56.88977 78.23117 10.11234 7.76734 16.6514 19.97247 16.6514 33.709 0 13.83353-6.60333 26.10778-16.83934 33.86542 8.4997 32.91966 29.27 60.97715 57.20624 79.12843l25.05531-43.39332c-21.48932-15.44011-35.52655-40.62517-35.52655-69.10582 0-28.43216 13.96691-53.59296 35.39318-69.04277l-25.05532-43.39332m-82.72958 78.07354c-18.69812 0-33.865412 15.1673-33.865412 33.86542 0 18.69812 15.167292 33.86541 33.865412 33.86541 18.69812 0 33.86541-15.16729 33.86541-33.86541 0-18.69812-15.16729-33.86542-33.86541-33.86542m242.18683 41.86314c-3.80001 43.46364-40.2796 77.57156-84.72538 77.57156-12.7738 0-24.86859-2.82878-35.73996-7.87283l-24.96195 43.23812c18.27253 9.03078 38.88521 14.1209 60.69827 14.1209 12.60041 0 24.78614-1.70358 36.3644-4.87429 2.00792-12.10571 9.22599-23.25595 20.68543-29.86656 11.73467-6.77551 25.34268-7.28719 37.02037-2.62387 24.15078-22.87886 39.81399-54.48779 41.76977-89.69303h-51.10732m-6.436 95.25481c-18.69813 0-33.86542 15.1673-33.86542 33.86542 0 18.69812 15.16729 33.83389 33.86542 33.83389 18.69812 0 33.86541-15.13577 33.86541-33.83389 0-18.69812-15.16729-33.86542-33.86541-33.86542" fill="#3a3a3a"/>
</svg>
