<?xml version="1.0" encoding="UTF-8" standalone="no"?>
<svg
   xmlns:dc="http://purl.org/dc/elements/1.1/"
   xmlns:cc="http://creativecommons.org/ns#"
   xmlns:rdf="http://www.w3.org/1999/02/22-rdf-syntax-ns#"
   xmlns:svg="http://www.w3.org/2000/svg"
   xmlns="http://www.w3.org/2000/svg"
   xmlns:sodipodi="http://sodipodi.sourceforge.net/DTD/sodipodi-0.dtd"
   xmlns:inkscape="http://www.inkscape.org/namespaces/inkscape"
   height="512"
   viewBox="0 0 512 512"
   width="512"
   id="svg2"
   version="1.1"
   inkscape:version="0.91 r13725"
   sodipodi:docname="uxterm.svg">
  <metadata
     id="metadata26">
    <rdf:RDF>
      <cc:Work
         rdf:about="">
        <dc:format>image/svg+xml</dc:format>
        <dc:type
           rdf:resource="http://purl.org/dc/dcmitype/StillImage" />
        <dc:title></dc:title>
      </cc:Work>
    </rdf:RDF>
  </metadata>
  <defs
     id="defs24" />
  <sodipodi:namedview
     pagecolor="#ffffff"
     bordercolor="#666666"
     borderopacity="1"
     objecttolerance="10"
     gridtolerance="10"
     guidetolerance="10"
     inkscape:pageopacity="0"
     inkscape:pageshadow="2"
     inkscape:window-width="640"
     inkscape:window-height="480"
     id="namedview22"
     showgrid="false"
     inkscape:zoom="0.4609375"
     inkscape:cx="256"
     inkscape:cy="256"
     inkscape:current-layer="svg2" />
  <path
     d="m245.51 125.36a4.5565 4.5565 0 0 0 -4.1665 4.6473v72.834h-40.04a4.5565 4.5565 0 0 0 -3.4187 7.7188l98.09 111.48a4.5565 4.5565 0 0 0 6.8907-.16025l96.36-111.48a4.5565 4.5565 0 0 0 -3.4454-7.5585h-40.2v-72.834a4.5565 4.5565 0 0 0 -4.6474-4.6473h-104.94a4.5565 4.5565 0 0 0 -.48075 0m-133.86 162.33v22.01l44.04 16.987-44.04 16.693v21.287l65.68-27.03.294-21.13-65.97-28.819m65.97 76.974v21.981h65.943v-21.981z"
     fill="#3a3a3a"
     id="path20" />
</svg>
