<svg viewBox="0 0 512 512" xmlns="http://www.w3.org/2000/svg">
 <path d="m360.73 134.08c-23.16 0-34.918 7.998-44.14 19.08-9.225 11.09-14.757 25.871-21.09 38.564-4.256 8.525-13.75 40.21-22.49 70.12-4.37 14.953-8.755 29.814-12.847 42.2s-7.198 21.622-11.927 28.726c-7.803 11.722-20.335 18.311-32.939 18.311-4.442 0-8.857-.829-13.08-2.402 14.958 20.813 49.5 54.596 89.83-1.662 27.97-39.01 37.31-123.05 57.06-154.69 25.1-40.23 37.717-30.711 40.71-27.344.563-3.293.888-6.726.739-10-.276-6.075-1.828-10.69-5.421-14.13-3.594-3.443-10.338-6.778-24.396-6.778m-188.6 35.471c5.962 6.761 10.754 15.318 13.636 25.419 6.441 22.574 7.683 50.629 9.134 75.34.726 12.353 1.456 23.826 2.645 32.839 1.189 9.01 3.482 15.702 4.156 16.716 3.832 5.756 8.739 7.93 13.586 7.93 4.848 0 9.771-2.174 13.603-7.93 1.01-1.513 4.662-9.934 8.296-20.549-6.136-2.576-15.03-16.972-21.899-72.01-3.965-31.769-27.16-49.3-43.16-57.748m-36.685 5.643c-2.963.024-5.43.844-7.409 2.221-2.638 1.836-4.931 4.788-5.963 10.99l-.657-.099c.42 16.933 11.599 28.13 11.599 28.13s-.003-11.647 11.631-17.472c6.275-3.142 14.1 1.966 19.993 7.321-.396-1.689-.819-3.356-1.265-4.919-4.732-16.585-16.03-24.543-24.791-25.929-1.095-.173-2.15-.255-3.138-.247" fill="#3a3a3a"/>
</svg>
