<svg viewBox="0 0 512 512" xmlns="http://www.w3.org/2000/svg">
 <path d="m98.31 194.3c34.53-30.982 65.36-84.977 101.14-73.76 59.31 15.35 33.683 128.8 67.39 181.84 46.16-26.03 76.1-80.79 63.66-109.19-2.782-7.94.604-27.744-37.29-10.44-9.836 4.491-9.434-12.908-7.702-15.266 35.08-38.552 55.35-54.635 79.35-53.649 20.19 3.373 55.693 26.06 49.18 80.46-13.512 80.957-132.38 208.09-172.12 203.41-45.49 10.03-68.61-133.67-102.82-201.17l-31.3 12.11c-12.899 2.033-11.12-6.21-9.491-14.346" fill="#3a3a3a"/>
</svg>
