<svg height="512" viewBox="0 0 512 512" width="512" xmlns="http://www.w3.org/2000/svg">
 <g fill="#3a3a3a" fill-rule="evenodd" transform="matrix(1.1109623 0 0 1.1109623 -32.098338 -14.844787)">
  <path d="m259.32422 57.890625l-159.345704 92.951175 26.603514 46.55664v-1.26563l106.23047 61.90625v124.40821l-.73047-.42579 27.24219 47.67383 27.19726-47.5957-.5957.34766v-124.40821l106.23047-61.90625v1.10547l26.51172-46.39648zm.0449 29.755859l106.62891 62.197266-106.62891 62.22461-106.62891-62.22461z"/>
  <path d="m418.66797 150.8418l-159.34375 92.95117c-17.34202 61.97181-8.60462 123.93053 0 185.90234l159.34375-92.95117zm-26.51172 45.29101v124.35547l-106.23047 61.95899v-124.40821z"/>
  <path d="m99.978516 150.8418v185.84961l159.345704 92.95117v-185.90235zm26.558594 46.29101l106.22851 61.9043v124.4082l-106.22851-61.95898z"/>
 </g>
</svg>
