<svg height="512" viewBox="0 0 512 512" width="512" xmlns="http://www.w3.org/2000/svg">
 <path d="m-531.61-198.19423l-120.72 22.625 26.625 27.13-.063.063-.031.031c-32.04 34.19-38.36 82.599996-27.687 124.469996 10.681 41.858 38.47 77.64 75.62 86.06.01.002.021-.002.031 0l5.188 1.188 1.375.313-.875-1.125-3.313-4.25c-42.19-54.0900002-46.915-124.61-8.469-164.279996l28.28 28.812996 24.03-121.029996m78.875 0l .875 1.125 3.313 4.219c42.19 54.09 46.915 124.609996 8.469 164.279996l-28.28-28.813-24.03 121.06 120.72-22.656-26.625-27.12.063-.063h.031c32.04-34.19 38.36-82.6 27.688-124.469996-10.681-41.858-38.47-77.64-75.62-86.06-.01-.002-.022.002-.031 0l-5.188-1.188-1.375-.313" fill="#3a3a3a"/>
 <path d="m353.077 27.369202c-29.43258 1.641376-58.98963 10.573119-83.45437 27.101921-18.11115 15.414303-23.00912 40.545539-31.20402 61.938677-6.5938 19.42055-11.71316 42.57975-31.69196 52.47536-11.9339 8.01773-26.88689 12.45442-36.77072 23.04884-5.00006 7.85644-2.70203 17.91463 2.68578 24.75796-3.00721 6.39203-7.18728 14.47961-12.84289 18.01912-8.77389-3.21036-18.20312-14.9889-28.07857-7.61784-13.85419 12.91389-22.29756 31.11496-30.22718 48.14864-3.665174 14.49091-21.070604 19.49202-25.392794 33.25479 2.07453 19.6708 22.07982 30.6617 40.042484 32.2293 8.64581.98465 18.05288 3.51166 22.02336 12.11041 12.03081 13.26162 25.28909 25.71888 34.13376 41.65394 15.21811 21.88056 36.38485 40.4556 62.8301 46.79086 29.849 7.09993 58.76928 16.93954 87.34012 28.1429 6.26957 1.54743 15.13032 6.67689 20.59628 1.04927.21583-8.4034-11.60773-8.33542-16.89596-11.76857-6.49948-3.19237-18.88067-5.8935-18.16562-15.08918 1.83552-8.59138 12.69055-5.08936 18.66275-8.16455 24.06649-6.53818 50.78819-9.33851 71.38398-24.16243 4.35058-4.96531-2.90334-10.08669-7.569-6.73885-11.26974 3.03191-22.70444 10.27421-34.52443 8.20382.44871-15.4762-11.3184-27.10913-22.8535-35.79407-16.22171-13.29678-39.58701-14.99615-54.05734-30.52017-2.66976-4.27841 5.87241-5.99255 7.95966-8.49682 30.13428-21.61502 42.10824-58.76247 55.9618-91.60936.91355-3.61202 4.17408-6.23367 6.88535-2.24629 14.46904 14.44035 26.60376 32.80054 32.27814 52.44587-7.63295 6.65224-19.51119 5.49921-29.10404 6.6412-5.79931.9033-16.0466-3.95348-18.36094 3.41825 2.34003 6.41647 12.36068 3.81862 17.97027 5.27389 29.28896 1.16132 58.7561 8.40736 87.84928 1.07431 21.86389-5.74043 44.30127-9.24087 66.16775-14.84501 7.64292-2.10499 3.08386-12.9082-3.76008-11.76858-20.67433 4.53198-40.90666 14.7776-62.65182 12.98938-4.64976-5.69551-.2046-15.55388 3.91634-20.78301 8.17306-12.71117 22.16901-21.50344 28.31296-35.37411 1.41373-9.82382-14.60763-13.48805-18.94692-4.73674-6.50139 9.83832-6.89757 22.58274-15.11896 31.72725-5.54911 8.81457-16.12238 20.9453-27.56046 14.37043-18.69262-12.92521-28.02541-36.82966-32.27154-58.71877-1.99044-12.37899-3.95938-24.77436-7.38028-36.84601 15.22046-21.58389 28.02981-46.08894 27.73996-73.14989-.33118-23.471248 3.00941-49.888039-12.26012-69.635706-7.51362-10.924951-19.50379-20.546859-33.59661-18.800432z" fill="#3a3a3a"/>
</svg>
