<?xml version="1.0" encoding="UTF-8"?>
<svg width="512" height="512" version="1.1" viewBox="0 0 512 512" xmlns="http://www.w3.org/2000/svg" xmlns:cc="http://creativecommons.org/ns#" xmlns:dc="http://purl.org/dc/elements/1.1/" xmlns:rdf="http://www.w3.org/1999/02/22-rdf-syntax-ns#">
 <style/>
 <metadata>
  <rdf:RDF>
   <cc:Work rdf:about="">
    <dc:format>image/svg+xml</dc:format>
    <dc:type rdf:resource="http://purl.org/dc/dcmitype/StillImage"/>
    <dc:title/>
   </cc:Work>
  </rdf:RDF>
 </metadata>
 <g transform="matrix(5.3197 0 0 5.3197 26.065 -19.373)" fill="#3a3a3a">
  <path d="m69.502 78.115-11.656-11.431c-4.389 2.605-9.508 4.106-14.974 4.106-5.465 0-10.586-1.501-14.975-4.108l-11.792 11.565c-1.658 1.627-1.814 4.244-0.363 6.058 1.454 1.812 4.042 2.23 5.991 0.967 2.899-1.88 12.226-6.758 20.457-6.758 11.184 0 21.719 6.694 21.825 6.762 0.756 0.488 1.608 0.724 2.452 0.724 0.041 0 0.08-1e-3 0.123-1e-3 2.445-0.061 4.41-2.062 4.41-4.523 0-1.333-0.578-2.533-1.498-3.361z"/>
  <circle cx="42.872" cy="41.373" r="7.599"/>
  <path d="m42.872 14.985c-14.604 0-26.508 11.015-27.079 26.015h16.203c0.548-6 5.216-9.843 10.876-9.843 5.659 0 10.328 3.843 10.875 9.843h16.205c-0.571-15-12.477-26.015-27.08-26.015zm-1e-3 9.447c-1.469 0-2.66-1.192-2.66-2.662s1.191-2.662 2.66-2.662c1.472 0 2.663 1.192 2.663 2.662s-1.192 2.662-2.663 2.662z"/>
  <path d="m42.872 52.304c-5.66 0-10.328-4.325-10.876-9.843h-16.203c0.08606 2.1761 0.4286 4.2863 0.99824 6.3012 3.2165 11.377 13.674 19.714 26.081 19.714 14.603 0 26.509-11.551 27.08-26.015h-16.206c-0.547 5.518-5.215 9.843-10.874 9.843z"/>
 </g>
</svg>
