<?xml version="1.0" encoding="UTF-8" standalone="no"?>
<svg xmlns="http://www.w3.org/2000/svg" height="512" viewBox="0 0 512 512" width="512" version="1.1">
 id=&quot;defs22&quot; /&gt;
 <path style="fill:#3a3a3a;stroke-width:15.7043314;fill-opacity:1" d="m 266.84745,101.64407 a 141.33898,141.33898 0 0 0 -141.33898,141.33898 141.33898,141.33898 0 0 0 24.68721,79.62096 l -24.68721,61.71802 61.62379,-24.62439 A 141.33898,141.33898 0 0 0 266.84745,384.32203 141.33898,141.33898 0 0 0 408.18643,242.98305 141.33898,141.33898 0 0 0 266.84745,101.64407 m -57.50926,66.22516 c 2.70114,0 5.41799,-0.0157 7.78935,0.12564 2.921,0.14134 6.10898,0.25127 9.13992,7.01983 3.61199,8.04062 11.52698,28.15787 12.54776,30.18373 1.02078,2.02586 1.68036,4.39721 0.32979,7.16117 -1.35057,2.66974 -2.02586,4.3501 -4.06742,6.73716 -2.02586,2.37136 -4.25588,5.29236 -6.07758,7.11406 -2.04156,2.01016 -4.17735,4.20876 -1.806,8.27619 2.37136,4.06742 10.5062,17.38469 22.59854,28.15786 15.53158,13.78841 28.6447,18.1228 32.69641,20.14866 4.06743,2.02586 6.43878,1.71177 8.81013,-1.00508 2.37136,-2.71685 10.17641,-11.88818 12.87756,-15.9556 2.71685,-4.06742 5.38658,-3.37643 9.10851,-2.02586 3.72192,1.35058 23.72924,11.2129 27.79666,13.22305 4.06743,2.02586 6.79998,3.06235 7.78935,4.75841 1.02078,1.69607 1.02078,9.87803 -2.40276,19.28492 -3.36073,9.48542 -19.9602,18.65675 -27.41976,19.33203 -7.45956,0.67529 -14.41658,3.45496 -48.76195,-10.1607 -41.3181,-16.28539 -67.38729,-58.62427 -69.41315,-61.34112 -2.02586,-2.71685 -16.63088,-22.04888 -16.63088,-42.0562 0,-19.99161 10.50619,-29.82252 14.22812,-33.88994 3.72193,-4.06743 8.16625,-5.08821 10.8674,-5.08821"/>
</svg>
