<svg viewBox="0 0 512 512" xmlns="http://www.w3.org/2000/svg">
 <path d="m124.16 256.01c0 52.18 30.32 97.28 74.31 118.65l-62.89-172.31c-7.319 16.397-11.412 34.537-11.412 53.66m220.85-6.652c0-16.301-5.86-27.582-10.869-36.36-6.69-10.859-12.956-20.05-12.956-30.921 0-12.11 9.185-23.395 22.15-23.395.576 0 1.124.072 1.7.101-23.458-21.489-54.697-34.6-89.03-34.6-46.06 0-86.57 23.621-110.16 59.42 3.102.096 6.01.159 8.501.159 13.782 0 35.12-1.686 35.12-1.686 7.104-.413 7.954 10.03.845 10.879 0 0-7.142.831-15.1 1.253l48.02 142.8 28.851-86.54-20.533-56.27c-7.104-.423-13.828-1.253-13.828-1.253-7.113-.428-6.283-11.292.836-10.879 0 0 21.767 1.686 34.72 1.686 13.791 0 35.13-1.686 35.13-1.686 7.108-.413 7.949 10.03.845 10.879 0 0-7.152.831-15.09 1.253l47.645 141.73 13.155-43.937c6.672-17.14 10.03-31.34 10.03-42.63m-86.69 18.17l-39.566 114.95c11.816 3.482 24.307 5.37 37.24 5.37 15.355 0 30.08-2.656 43.784-7.468-.351-.562-.677-1.157-.937-1.825l-40.529-111.04m113.38-74.77c.557 4.202.888 8.703.888 13.559 0 13.381-2.502 28.419-10.03 47.22l-40.27 116.43c39.21-22.857 65.56-65.32 65.56-113.96 0-22.925-5.864-44.47-16.15-63.25m-269.39 63.25c0 84.76 68.946 153.69 153.68 153.69 84.75 0 153.7-68.937 153.7-153.69 0-84.75-68.956-153.69-153.7-153.69-84.74 0-153.68 68.946-153.68 153.69m7.05 0c0-80.86 65.79-146.63 146.64-146.63 80.87 0 146.66 65.772 146.66 146.63 0 80.86-65.79 146.65-146.66 146.65-80.86 0-146.64-65.79-146.64-146.65" fill="#3a3a3a"/>
</svg>
