<svg width="512" height="512" version="1.1" viewBox="0 0 512 512" xmlns="http://www.w3.org/2000/svg">
 <path d="m111.83 65.623a35.901 35.901 0 1 0 0 71.796h200.66s15.536 0.50569 29.193 6.196c13.657 5.6903 20.91 8.0986 20.91 29.572 0 21.473-7.2525 23.88-20.91 29.571-13.657 5.6903-29.193 6.1981-29.193 6.1981h-200.66a35.901 35.901 0 0 0-35.898 35.896v143.33a35.901 35.901 0 1 0 71.796 0v-107.44h164.76s27.465 0.50814 56.806-11.718c29.343-12.226 65.089-45.653 65.089-95.844 0-50.192-35.746-83.618-65.089-95.844-29.343-12.226-56.806-11.72-56.806-11.72z" color="#000000" color-rendering="auto" dominant-baseline="auto" fill="#3a3a3a" image-rendering="auto" shape-rendering="auto" solid-color="#000000" stroke-width="1.2587" style="font-feature-settings:normal;font-variant-alternates:normal;font-variant-caps:normal;font-variant-ligatures:normal;font-variant-numeric:normal;font-variant-position:normal;isolation:auto;mix-blend-mode:normal;shape-padding:0;text-decoration-color:#000000;text-decoration-line:none;text-decoration-style:solid;text-indent:0;text-orientation:mixed;text-transform:none;white-space:normal"/>
</svg>
