<svg width="512" height="512" version="1.1" viewBox="0 0 512 512" xmlns="http://www.w3.org/2000/svg">
 <path d="m251.25 63.853c-13.957 1.0498-30.229-2.0375-41.546 8.2369-13.597 11.323-14.71 30.723-14.923 47.233-0.51524 40.033-1.5948 61.925 1.275 100.21 3.1622 15.195 21.152 23.59 35.082 17.586 11.952-4.1114 19.938-16.869 17.792-29.41 0.44205-34.494-1.0574-54.352 0.80131-88.613 7.2281-4.4247 16.171-1.2798 24.226-2.2088 23.912 0.47252 50.348-4.1438 71.274 10.232 27.428 16.786 40.754 53.57 29.56 84.173-8.1442 26.381-33.064 46.358-60.775 48.422-46.796 2.8808-94.331-4.6738-140.85 1.6912-8.9039 1.2183-18.048 2.8476-26.055 6.9297-16.89 8.6117-34.828 18.671-44.116 35.899-20.396 29.845-14.889 72.633 9.3323 98.636 17.482 20.038 44.52 29.988 70.836 28.302 16.374-1.2603 34.77 2.3211 48.841-8.5159 13.285-8.7663 16.86-25.311 17.111-40.681 0.27791-17.537 2.0711-28.417-7.6805-44.824-8.4319-10.097-24.489-12.148-34.823-3.6901-11.96 8.7576-13.256 15.823-11.161 29.348 0.40734 5.8301 0.99541 16.065-7.5427 15.356-14.707 0.68559-33.004-1.0745-40.187-16.173-9.9424-17.274-1.1482-44.362 19.635-47.981 30.091-3.7708 60.978-0.50593 91.467-0.73145 28.993 0.0767 58.942 2.453 87.057-6.1269 42.689-13.964 77.03-52.221 84.139-96.882 8.7842-45.459-11.356-94.965-48.454-122.39-22.929-16.846-51.862-22.769-80.126-23.804-16.729 0.15807-33.456-0.40135-50.185-0.21535z" fill="#3a3a3a" stroke-width="1.5018"/>
</svg>
