<svg height="512" viewBox="0 0 512 512" width="512" xmlns="http://www.w3.org/2000/svg">
 <path d="m256 65.114297a190.88592 190.88592 0 0 0 -190.885697 190.885703 190.88592 190.88592 0 0 0 190.885697 190.88571 190.88592 190.88592 0 0 0 190.8857-190.88571 190.88592 190.88592 0 0 0 -190.8857-190.885703zm-61.22723 42.003993h28.83486l23.45526 34.50018 23.38967-34.50018h28.97771l-35.72505 52.43297h.014l37.15602 54.66257h-28.77162l-25.02908-36.58692-24.82065 36.58692h-28.91448l37.15836-54.66257-35.72505-52.43297zm-22.12732 158.02025h21.16007v18.13888h-15.28865c-3.90917 0-6.64535.72138-8.18064 2.16636-1.54819 1.39338-2.32094 3.83298-2.32094 7.34221v6.02365h23.62153v19.76659h-23.62153v66.7005h-27.63574v-66.7005h-13.74059v-19.76659h13.74059v-6.02365c0-9.41815 2.61822-16.37175 7.86916-20.84859 5.25094-4.52845 13.37879-6.79886 24.39674-6.79886zm108.58036 10.37277h32.48606c18.13961 0 31.62298 1.3015 40.48636 3.92053 8.90209 2.55451 16.53976 6.92953 22.87443 13.12229 5.59928 5.39286 9.76657 11.59815 12.4759 18.64241 2.72223 7.04426 4.07511 15.01689 4.07511 23.91898 0 9.01819-1.35288 17.06902-4.07511 24.16487-2.72223 7.04426-6.87662 13.24957-12.4759 18.64243-6.39918 6.19275-14.07646 10.59346-23.04306 13.19957-8.96659 2.55452-22.39745 3.84325-40.31773 3.84325h-32.48606v-119.44263-.012zm30.80917 23.27257v72.88108h11.04259c12.59194 0 22.19179-3.12136 28.79738-9.36571 6.67011-6.24437 9.99805-15.3002 9.99805-27.19545 0-11.84365-3.30226-20.85045-9.92076-27.04321-6.61852-6.19274-16.24284-9.27671-28.88638-9.27671z" fill="#3a3a3a" fill-opacity=".987" fill-rule="evenodd"/>
</svg>
