<?xml version="1.0" encoding="UTF-8"?>
<svg width="512" height="512" version="1.1" viewBox="0 0 512 512" xmlns="http://www.w3.org/2000/svg" xmlns:cc="http://creativecommons.org/ns#" xmlns:dc="http://purl.org/dc/elements/1.1/" xmlns:rdf="http://www.w3.org/1999/02/22-rdf-syntax-ns#">
 <metadata>
  <rdf:RDF>
   <cc:Work rdf:about="">
    <dc:format>image/svg+xml</dc:format>
    <dc:type rdf:resource="http://purl.org/dc/dcmitype/StillImage"/>
    <dc:title/>
   </cc:Work>
  </rdf:RDF>
 </metadata>
 <path d="m244.42 41.913c-5.4274 5.5513-15.569 17.744-21.546 26.248-30.56 43.47-48.55 83.756-55.386 123.91-4.3286 25.392-3.9642 46.393 1.2175 72.159 1.3166 6.5489 2.4992 12.565 2.6387 13.357 0.13508 0.79629-3.352 5.2049-7.7262 9.8226-8.9009 9.3934-9.1086 9.9826-12.208 33.168-3.5173 26.352-1.1066 60.466 6.4043 90.303 4.7813 18.981 8.0619 18.636 21.548-2.3323 4.3527-6.7686 9.176-14.282 10.73-16.705 10.453-16.291 16.56-24.99 17.545-24.984 0.628 4e-3 2.6543 3.1722 4.475 7.0521 2.4431 5.2078 4.2382 7.5113 6.9155 8.7417 1.9948 0.9179 14.815 1.7646 28.488 1.8976l24.884 0.26913 4.5777-5.7455c2.5146-3.1623 5.657-7.4236 6.9513-9.44 1.8172-2.8319 2.5061-3.2202 3.2003-1.6911 3.1 6.8279 35.719 56.889 37.625 57.749 1.2836 0.57982 3.1124 0.25567 4.0658-0.68727 0.95335-0.94293 3.7835-11.413 6.2853-23.274 8.0611-38.22 9.0472-64.917 3.4922-94.439-2.32-12.307-2.5049-12.654-10.332-20.625l-7.9828-8.1362 3.7657-16.485c8.7-37.963 4.7898-75.17-12.747-120.89-8.5246-22.236-17.722-39.879-34.39-65.955-6.9581-10.886-27.165-36.219-28.914-36.234-0.43855-0.0024-1.7532 1.0955-3.5624 2.946m-14.867 106.79c7.6902-7.5923 15.23-9.777 24.505-7.1166 14.884 4.2622 21.396 20.05 14.826 35.801-2.263 5.4258-3.6324 7.0699-9.1833 10.814-1.6278 1.0989-7.9373 1.9554-14.002 1.9221-10.56-0.058-11.255-0.28549-16.475-5.5708-6.4252-6.4962-8.329-12.82-6.935-22.765 0.81246-5.7898 1.9094-7.7977 7.2608-13.08m-12.696 251.42c-3.753 3.6388-8.238 15.008-8.2849 23.392-0.0552 10.052 4.4592 18.375 18.222 33.789 15.428 17.277 19.928 18.655 28.323 8.6023 1.8083-2.1653 7.3606-8.4247 12.326-13.859 12.407-13.578 15.401-23.804 11.039-37.658-2.2009-6.9914-11.587-19.203-14.277-18.583-3.267 0.75217-4.7207 7.0297-3.5652 15.261 1.3548 9.655-1.1918 16.576-9.9812 27.057l-6.166 7.3164-6.3403-7.9009c-4.6836-5.799-7.7272-11.706-11.551-22.368-2.8534-7.9704-5.7565-15.026-6.4255-15.703-0.89583-0.90574-2.0731-0.55434-3.3244 0.65887" fill="#3a3a3a" fill-rule="evenodd" stroke-width="1.2404"/>
</svg>
