<svg height="512" viewBox="0 0 512 512" width="512" xmlns="http://www.w3.org/2000/svg">
 <path d="m471.95 253.05c0 120.9-98.01 218.91-218.91 218.91-120.9 0-218.91-98.01-218.91-218.91 0-120.9 98.01-218.91 218.91-218.91 120.9 0 218.91 98.01 218.91 218.91" fill="#e4a146" fill-rule="evenodd"/>
 <text x="729.64" y="231.36">
  
 </text>
 <text x="1310.91" y="151.36">
  
 </text>
 <text x="239.33" y="-29.9">
  
 </text>
 <text x="1337.38" y="-246.37">
  
 </text>
 <text x="1918.65" y="-326.37">
  
 </text>
 <text x="1529.53" y="-798.77">
  
 </text>
 <text x="2110.79" y="-878.78">
  
 </text>
 <text x="277.99" y="535.94">
  
 </text>
 <path d="m256 104.63c-10.1 0-20.2 1.562-24.438 4.656-29.871 29.858-92.47 56.49-114.31 62.56 0 93.78 62.925 235.53 138.75 235.53 75.66 0 138.75-141.75 138.75-235.53-21.844-6.072-84.44-32.704-114.31-62.56-4.237-3.096-14.337-4.657-24.438-4.656m0 72.5c7.079 0 12.865 2.24 17.344 6.719 4.768 5.057 7.156 12.222 7.156 21.469 0 9.391-2.24 20.368-6.719 32.938l-5.438 15.375c-2.601 7.802-4.766 18.482-6.5 32.06h-11.688c-.289-2.023-.586-3.966-.875-5.844-.144-1.878-.367-3.672-.656-5.406-.722-4.334-1.508-8.251-2.375-11.719-.722-3.467-1.582-6.493-2.594-9.09l-5.438-15.375c-4.479-12.569-6.719-23.546-6.719-32.938 0-8.813 2.76-15.979 8.25-21.469 4.479-4.479 9.893-6.719 16.25-6.719m-.438 131.53c6.068 0 11.07 2.048 14.969 6.094 4.045 4.045 6.06 8.94 6.06 14.719s-2.02 10.705-6.06 14.75c-3.901 3.901-8.901 5.844-14.969 5.844-5.779 0-10.673-1.943-14.719-5.844-4.045-4.045-6.094-8.971-6.094-14.75s2.048-10.673 6.094-14.719c4.045-4.045 8.94-6.094 14.719-6.094" fill="#ffffff" fill-rule="evenodd"/>
<circle cx="256" stroke="#fefefe" cy="256" r="181.13" stroke-width="18.771" fill="none" /></svg>
