<?xml version="1.0" encoding="UTF-8" standalone="no"?>
<svg xmlns="http://www.w3.org/2000/svg" xmlns:xlink="http://www.w3.org/1999/xlink" width="64" height="64" version="1.1">
 <defs>
  <linearGradient id="linearGradient4332">
   <stop offset="0" style="stop-color:#222c35;stop-opacity:1"/>
   <stop offset="1" style="stop-color:#555f68;stop-opacity:1"/>
  </linearGradient>
  <linearGradient gradientTransform="matrix(3.0666675,0,0,3.0666675,-798.9146,-1115.583)" xlink:href="#linearGradient4303-1" id="linearGradient4174" x1="409.571" y1="543.798" x2="409.571" y2="503.798" gradientUnits="userSpaceOnUse"/>
  <linearGradient id="linearGradient5002">
   <stop offset="0" style="stop-color:#2e5d89;stop-opacity:1"/>
   <stop offset="1" style="stop-color:#1b92f4;stop-opacity:1"/>
  </linearGradient>
  <linearGradient gradientTransform="matrix(1.1818182,0,0,1.1818182,-74.285714,-95.732083)" xlink:href="#linearGradient5002" id="linearGradient4352" gradientUnits="userSpaceOnUse" x1="400.571" y1="512.798" x2="415.571" y2="527.798"/>
  <linearGradient id="linearGradient4191">
   <stop style="stop-color:#18222a;stop-opacity:1" offset="0"/>
   <stop style="stop-color:#566069;stop-opacity:1" offset="1"/>
  </linearGradient>
  <linearGradient gradientTransform="translate(78.999997,3.6562389)" xlink:href="#linearGradient5002" id="linearGradient4352-6" gradientUnits="userSpaceOnUse" x1="400.571" y1="512.798" x2="415.571" y2="527.798"/>
  <linearGradient y2="527.798" x2="415.571" y1="512.798" x1="400.571" gradientUnits="userSpaceOnUse" id="linearGradient4352-5" xlink:href="#linearGradient5002" gradientTransform="matrix(1.1818182,0,0,1.1818182,6.714285,-89.23598)"/>
  <linearGradient y2="527.798" x2="415.571" y1="512.798" x1="400.571" gradientUnits="userSpaceOnUse" id="linearGradient4352-9" xlink:href="#linearGradient5002" gradientTransform="matrix(1.1818182,0,0,1.1818182,3.714275,-96.23596)"/>
  <linearGradient id="linearGradient4303-1">
   <stop style="stop-color:#bfc1c1;stop-opacity:1" offset="0"/>
   <stop style="stop-color:#f1f2f3;stop-opacity:1" offset="1"/>
  </linearGradient>
  <linearGradient gradientTransform="translate(6.6997715,4.027329)" xlink:href="#linearGradient5322" id="linearGradient4327-2-6" x1="407.38" y1="529.562" x2="407.505" y2="509.977" gradientUnits="userSpaceOnUse"/>
  <linearGradient xlink:href="#linearGradient8311-1" id="linearGradient4510-5-5" x1="408.524" y1="506.485" x2="409.266" y2="533.195" gradientUnits="userSpaceOnUse" gradientTransform="matrix(-1,0,0,-1,823.84266,1043.6233)"/>
  <linearGradient xlink:href="#linearGradient4191" id="linearGradient4510-8-2-3" x1="398.305" y1="509.531" x2="419.771" y2="530.998" gradientUnits="userSpaceOnUse" gradientTransform="matrix(0.78571495,0,0,0.78571495,94.250535,115.4122)"/>
  <linearGradient y2="527.798" x2="415.571" y1="512.798" x1="400.571" gradientUnits="userSpaceOnUse" id="linearGradient4352-2" xlink:href="#linearGradient5002"/>
  <linearGradient id="linearGradient5322">
   <stop offset="0" style="stop-color:#0088ff;stop-opacity:1"/>
   <stop offset="1" style="stop-color:#02c3ff;stop-opacity:1"/>
  </linearGradient>
  <linearGradient xlink:href="#linearGradient5002" id="linearGradient4276" gradientUnits="userSpaceOnUse" gradientTransform="matrix(1.1818182,0,0,1.1818182,-74.285714,-95.732083)" x1="400.571" y1="512.798" x2="415.571" y2="527.798"/>
  <linearGradient xlink:href="#linearGradient5002" id="linearGradient4278" gradientUnits="userSpaceOnUse" gradientTransform="translate(78.999997,3.6562389)" x1="400.571" y1="512.798" x2="415.571" y2="527.798"/>
  <linearGradient xlink:href="#linearGradient5002" id="linearGradient4280" gradientUnits="userSpaceOnUse" gradientTransform="matrix(1.1818182,0,0,1.1818182,6.714285,-89.23598)" x1="400.571" y1="512.798" x2="415.571" y2="527.798"/>
  <linearGradient xlink:href="#linearGradient5002" id="linearGradient4282" gradientUnits="userSpaceOnUse" gradientTransform="matrix(1.1818182,0,0,1.1818182,3.714275,-96.23596)" x1="400.571" y1="512.798" x2="415.571" y2="527.798"/>
  <linearGradient xlink:href="#linearGradient4191" id="linearGradient4290" x1="384.614" y1="523.898" x2="406.768" y2="498.252" gradientUnits="userSpaceOnUse"/>
  <linearGradient xlink:href="#linearGradient4332" id="linearGradient4330" x1="595.577" y1="557.294" x2="594.15" y2="433.769" gradientUnits="userSpaceOnUse" gradientTransform="translate(-142.2969,-3.8596843)"/>
  <linearGradient id="linearGradient8311-1">
   <stop style="stop-color:#222c35;stop-opacity:1" offset="0"/>
   <stop style="stop-color:#545e67;stop-opacity:1" offset="1"/>
  </linearGradient>
  <linearGradient xlink:href="#linearGradient4191" id="linearGradient5106" gradientUnits="userSpaceOnUse" x1="384.614" y1="523.898" x2="406.768" y2="498.252"/>
 </defs>
 <g transform="translate(-368.57144,-499.79797)">
  <g transform="translate(2.8230724e-6,-2.1425376e-7)">
   <g transform="matrix(1.0833333,0,0,1.0833333,-42.09418,-35.974845)" style="stroke:url(#linearGradient4290);stroke-width:2.30769229;">
    <g style="stroke:url(#linearGradient5106);stroke-width:7.07692517;" transform="matrix(0.32608687,0,0,0.32608687,260.51556,363.77696)">
     <g transform="matrix(1.0212766,0,0,1.0212766,-9.6631698,-10.760785)">
      <g transform="matrix(1.1750004,0,0,1.1750004,-79.325021,-85.264894)">
       <rect style="opacity:1;fill:url(#linearGradient4174);fill-opacity:1;" width="122.667" height="122.667" x="392.7" y="429.4" ry="61.333"/>
       <rect style="opacity:1;fill:none;fill-opacity:1;stroke:url(#linearGradient4330);stroke-width:5.89743561;stroke-opacity:1" width="122.667" height="122.667" x="392.7" y="429.91" ry="61.333"/>
      </g>
     </g>
    </g>
   </g>
   <g transform="matrix(0.92857342,0,0,0.92857342,80.654457,39.988409)">
    <path style="opacity:1;fill:url(#linearGradient4276);fill-opacity:1;" r="10" cy="519.798" cx="408.571"/>
    <path style="opacity:1;fill:url(#linearGradient4278);fill-opacity:1;" r="10" cy="519.798" cx="408.571"/>
    <path style="opacity:1;fill:url(#linearGradient4280);fill-opacity:1;" r="10" cy="519.798" cx="408.571"/>
    <path style="opacity:1;fill:url(#linearGradient4282);fill-opacity:1;" r="10" cy="519.798" cx="408.571"/>
    <g transform="matrix(1.9111821,0,0,1.9111821,-359.29648,-477.74796)">
     <g transform="translate(-112.5209,-0.17284439)">
      <path style="opacity:1;fill:url(#linearGradient4352);fill-opacity:1;" r="10" cy="519.798" cx="408.571"/>
      <path style="opacity:1;fill:url(#linearGradient4352-6);fill-opacity:1;" r="10" cy="519.798" cx="408.571"/>
      <path style="opacity:1;fill:url(#linearGradient4352-5);fill-opacity:1;" r="10" cy="519.798" cx="408.571"/>
      <path style="opacity:1;fill:url(#linearGradient4352-9);fill-opacity:1;" r="10" cy="519.798" cx="408.571"/>
      <g transform="matrix(0.87053099,0,0,0.87053099,103.47199,117.2361)">
       <g transform="matrix(1.0600475,0,0,1.0623934,-96.041653,-44.862294)">
        <g transform="matrix(0.65423877,0,0,0.65423877,227.6703,142.8795)">
         <path d="m 401.27124,523.8253 a 13.999973,13.999973 0 0 1 13.99997,-13.99997 13.999973,13.999973 0 0 1 13.99997,13.99997 13.999973,13.999973 0 0 1 -13.99997,13.99998 13.999973,13.999973 0 0 1 -13.99997,-13.99998 z" style="opacity:1;fill:url(#linearGradient4510-5-5);fill-opacity:1.0;"/>
         <circle r="11" cy="523.825" cx="415.271" style="opacity:1;fill:url(#linearGradient4510-8-2-3);fill-opacity:1;"/>
         <circle cx="415.271" cy="523.825" r="10" style="opacity:1;fill:url(#linearGradient4327-2-6);fill-opacity:1;"/>
         <g transform="translate(16.25074,37.425365)" style="opacity:0.72399998">
          <path style="opacity:1;fill:url(#linearGradient4352-2);fill-opacity:1;" r="10" cy="519.798" cx="408.571"/>
         </g>
        </g>
       </g>
      </g>
     </g>
    </g>
   </g>
  </g>
 </g>
</svg>
