<?xml version="1.0" encoding="UTF-8" standalone="no"?>
<svg xmlns="http://www.w3.org/2000/svg" xmlns:xlink="http://www.w3.org/1999/xlink" width="64" height="64" version="1.1">
 <defs>
  <linearGradient id="linearGradient5259">
   <stop offset="0" style="stop-color:#151515;stop-opacity:1"/>
   <stop offset="1" style="stop-color:#272727;stop-opacity:1"/>
  </linearGradient>
  <linearGradient id="linearGradient5239">
   <stop offset="0" style="stop-color:#151515;stop-opacity:1"/>
   <stop offset="1" style="stop-color:#393939;stop-opacity:1"/>
  </linearGradient>
  <linearGradient id="linearGradient4503">
   <stop style="stop-color:#141414;stop-opacity:1" offset="0"/>
   <stop style="stop-color:#2d2d2f;stop-opacity:1" offset="1"/>
  </linearGradient>
  <linearGradient id="linearGradient5002">
   <stop offset="0" style="stop-color:#2e5d89;stop-opacity:1"/>
   <stop offset="1" style="stop-color:#1b92f4;stop-opacity:1"/>
  </linearGradient>
  <linearGradient gradientTransform="matrix(1.1818182,0,0,1.1818182,-74.285712,-95.235993)" xlink:href="#linearGradient5002" id="linearGradient4352" gradientUnits="userSpaceOnUse" x1="400.571" y1="512.798" x2="415.571" y2="527.798"/>
  <linearGradient gradientTransform="translate(57.624957,10.500083)" y2="527.798" x2="415.571" y1="512.798" x1="400.571" gradientUnits="userSpaceOnUse" id="linearGradient4352-8" xlink:href="#linearGradient5002"/>
  <linearGradient gradientUnits="userSpaceOnUse" y2="503.878" x2="408.784" y1="538.93" x1="408.708" id="linearGradient4501" xlink:href="#linearGradient4503"/>
  <linearGradient gradientUnits="userSpaceOnUse" y2="506.051" x2="407.333" y1="534.906" x1="408.331" id="linearGradient4657" xlink:href="#linearGradient5322" gradientTransform="matrix(1.0056788,0,0,1.0511178,-2.3202051,-26.332286)"/>
  <linearGradient id="linearGradient5322">
   <stop style="stop-color:#0088ff;stop-opacity:1" offset="0"/>
   <stop style="stop-color:#02c3ff;stop-opacity:1" offset="1"/>
  </linearGradient>
  <linearGradient xlink:href="#linearGradient5259" id="linearGradient4272" x1="408.571" y1="546.421" x2="408.571" y2="538.459" gradientUnits="userSpaceOnUse" gradientTransform="matrix(1.1666674,0,0,1.0909092,-68.09551,-49.799906)"/>
  <linearGradient xlink:href="#linearGradient5239" id="linearGradient5231" x1="408.456" y1="547.81" x2="408.468" y2="546.591" gradientUnits="userSpaceOnUse"/>
 </defs>
 <g transform="translate(-376.57144,-491.79797)">
  <g>
   <g>
    <g transform="matrix(1.076862,0,0,1.076862,-31.403618,-42.326682)">
     <g transform="translate(-42.164655,4.3486241)">
      <g transform="translate(42.164655,-4.2426405)">
       <path d="m 401.57143,535.79797 0,7.63636 0,2.18182 0,2.18182 14,0 0,-2.18182 0,-2.18182 0,-7.63636 z" style="opacity:1;fill:url(#linearGradient4272);fill-opacity:1;"/>
       <rect ry=".588" y="546.72" x="398.74" height="1.177" width="19.669" style="opacity:1;fill:url(#linearGradient5231);fill-opacity:1;"/>
      </g>
     </g>
     <g transform="translate(62.916364,3.0921157)">
      <g transform="translate(-62.916366,-4.8336717)">
       <path cx="408.571" cy="519.798" r="10" style="opacity:1;fill:url(#linearGradient4352);fill-opacity:1;"/>
       <path cx="408.571" cy="519.798" r="10" style="opacity:1;fill:url(#linearGradient4352-8);fill-opacity:1;"/>
       <g transform="translate(0,1.7056391)">
        <rect style="opacity:1;fill:url(#linearGradient4501);fill-opacity:1;fill-rule:evenodd;stroke:url(#linearGradient5257);stroke-width:0.39150056;stroke-linecap:round;stroke-linejoin:round;stroke-opacity:1" width="52" height="35.136" x="382.57" y="503.66" ry=".958"/>
        <rect style="opacity:1;fill:url(#linearGradient4657);fill-opacity:1;fill-rule:evenodd;" width="48.104" height="31.697" x="384.52" y="505.29" ry=".526"/>
       </g>
      </g>
     </g>
    </g>
    <g transform="translate(0.01849963,-3.1049981)">
     <g style="fill:#f5f5ff;fill-opacity:1" transform="matrix(0.498605,0,0,0.498605,383.12136,14.067291)">
      <g style="fill:#f5f5ff;fill-opacity:1" transform="matrix(0.60167895,0,0,0.59982444,282.37579,1122.3229)">
       <ellipse ry="2.5" rx="2.5" cy="-130.507" cx="-462.608" style="fill:#f5f5ff;fill-opacity:1;"/>
       <ellipse ry="3" rx="3" cy="-123.007" cx="-458.108" style="fill:#f5f5ff;fill-opacity:1;"/>
       <ellipse ry="1.5" rx="1.5" cy="-138.507" cx="-460.608" style="fill:#f5f5ff;fill-opacity:1;"/>
       <path style="fill:#f5f5ff;fill-opacity:1;" d="m -452.10784,-140.00692 -2.84375,2.84374 4.375,4.375 -4.53125,5.15625 3,2.625 7.00002,-8 0,0 -7.00002,-6.99999 z"/>
      </g>
     </g>
    </g>
   </g>
  </g>
 </g>
</svg>
