<?xml version="1.0" encoding="UTF-8" standalone="no"?>
<!-- Created with Inkscape (http://www.inkscape.org/) -->

<svg
   xmlns:dc="http://purl.org/dc/elements/1.1/"
   xmlns:cc="http://creativecommons.org/ns#"
   xmlns:rdf="http://www.w3.org/1999/02/22-rdf-syntax-ns#"
   xmlns:svg="http://www.w3.org/2000/svg"
   xmlns="http://www.w3.org/2000/svg"
   xmlns:sodipodi="http://sodipodi.sourceforge.net/DTD/sodipodi-0.dtd"
   xmlns:inkscape="http://www.inkscape.org/namespaces/inkscape"
   version="1.0"
   width="22"
   height="22"
   id="svg2403"
   inkscape:version="0.91 r13725"
   sodipodi:docname="steam_tray_mono.svg">
  <sodipodi:namedview
     pagecolor="#9c3e3e"
     bordercolor="#666666"
     borderopacity="1"
     objecttolerance="10"
     gridtolerance="10"
     guidetolerance="10"
     inkscape:pageopacity="0.80784314"
     inkscape:pageshadow="2"
     inkscape:window-width="1600"
     inkscape:window-height="849"
     id="namedview12"
     showgrid="false"
     inkscape:zoom="9.95"
     inkscape:cx="-2.1809045"
     inkscape:cy="8.5337955"
     inkscape:window-x="0"
     inkscape:window-y="0"
     inkscape:window-maximized="1"
     inkscape:current-layer="svg2403" />
  <metadata
     id="metadata15">
    <rdf:RDF>
      <cc:Work
         rdf:about="">
        <dc:format>image/svg+xml</dc:format>
        <dc:type
           rdf:resource="http://purl.org/dc/dcmitype/StillImage" />
        <dc:title></dc:title>
      </cc:Work>
    </rdf:RDF>
  </metadata>
  <defs
     id="defs2405" />
  <path
     inkscape:connector-curvature="0"
     id="path3883"
     d="m 16.03833,5.7500002 c -1.504373,0 -2.813933,0.8151604 -3.484863,2.0258789 0,0 -1.085772,2.1409175 -1.911621,2.9970699 -0.374986,0.388745 -1.0333119,0.788885 -1.4523929,1.03711 l 1.5534669,0.905273 c 0.07595,0.044 0.140783,0.09624 0.206543,0.149414 0.01579,0.01277 0.03535,0.01971 0.05054,0.03296 0.479673,0.326481 0.802002,0.873937 0.802002,1.489746 0,0.998551 -0.824871,1.80835 -1.8435057,1.80835 -0.5476291,0 -1.0288994,-0.248109 -1.3666993,-0.619629 L 7.3459472,14.857666 C 7.5742268,16.072709 8.6529839,17 9.9584961,17 10.606557,17 11.186335,16.75746 11.648193,16.380372 l 0.01758,0.01758 0.171386,-0.166992 c 0,0 1.283852,-1.558599 2.151123,-2.043457 0.804949,-0.450016 2.680664,-0.720703 2.680664,-0.720703 0.318939,-0.04981 0.616518,-0.130763 0.905274,-0.250489 l 0.138428,-0.03296 -0.01758,-0.01758 C 19.05542,12.5507 20,11.199679 20,9.6347658 20,7.4897315 18.22651,5.7500002 16.03833,5.7500002 Z m 0,1.2062988 c 1.509089,0 2.731201,1.1991326 2.731201,2.6784668 0,1.4793342 -1.222112,2.6784672 -2.731201,2.6784672 -1.509089,0 -2.733399,-1.199133 -2.733399,-2.6784672 0,-1.4793342 1.22431,-2.6784668 2.733399,-2.6784668 z m 0,0.5009766 A 2.2201138,2.1763393 0 0 0 13.816894,9.6347658 2.2201138,2.1763393 0 0 0 16.03833,11.810059 2.2201138,2.1763393 0 0 0 18.257569,9.6347658 2.2201138,2.1763393 0 0 0 16.03833,7.4572756 Z M 2.5119629,8.1604006 C 2.1878777,9.1458668 2.0087868,10.202392 2,11.291504 l 7.0883789,4.269287 c 0.7535615,0.436492 1.7051861,0.207471 2.1335451,-0.503173 0.428359,-0.710646 0.173483,-1.622347 -0.580078,-2.058838 L 2.8020019,8.2944338 C 2.7078067,8.2398724 2.6109356,8.1947511 2.5119629,8.1604006 Z"
     style="opacity:0.72000002;fill:#ffffff;fill-opacity:1;stroke:none" />
</svg>
