<?xml version="1.0" encoding="UTF-8" standalone="no"?>
<svg
   xmlns:dc="http://purl.org/dc/elements/1.1/"
   xmlns:cc="http://creativecommons.org/ns#"
   xmlns:rdf="http://www.w3.org/1999/02/22-rdf-syntax-ns#"
   xmlns:svg="http://www.w3.org/2000/svg"
   xmlns="http://www.w3.org/2000/svg"
   xmlns:sodipodi="http://sodipodi.sourceforge.net/DTD/sodipodi-0.dtd"
   xmlns:inkscape="http://www.inkscape.org/namespaces/inkscape"
   height="512"
   viewBox="0 0 512 512"
   width="512"
   version="1.1"
   id="svg2"
   inkscape:version="0.91 r13725"
   sodipodi:docname="lash.svg">
  <defs
     id="defs17" />
  <sodipodi:namedview
     pagecolor="#ffffff"
     bordercolor="#666666"
     borderopacity="1"
     objecttolerance="10"
     gridtolerance="10"
     guidetolerance="10"
     inkscape:pageopacity="0"
     inkscape:pageshadow="2"
     inkscape:window-width="1920"
     inkscape:window-height="1022"
     id="namedview15"
     showgrid="false"
     inkscape:zoom="1.8198004"
     inkscape:cx="233.36849"
     inkscape:cy="241.01431"
     inkscape:window-x="0"
     inkscape:window-y="0"
     inkscape:window-maximized="1"
     inkscape:current-layer="svg2" />
  <metadata
     id="metadata28">
    <rdf:RDF>
      <cc:Work
         rdf:about="">
        <dc:format>image/svg+xml</dc:format>
        <dc:type
           rdf:resource="http://purl.org/dc/dcmitype/StillImage" />
        <dc:title></dc:title>
      </cc:Work>
    </rdf:RDF>
  </metadata>
  <path
     style="fill:#d5b454;fill-rule:evenodd;fill-opacity:1"
     inkscape:connector-curvature="0"
     d="m 471.95,253.05 c 0,120.9 -98.01,218.9 -218.9,218.9 -120.9,0 -218.9,-98.01 -218.9,-218.9 0,-120.9 98.01,-218.9 218.9,-218.9 120.9,0 218.9,98.01 218.9,218.9"
     id="path6" />
  <path
     style="fill-opacity:0.06700003;fill-rule:evenodd"
     inkscape:connector-curvature="0"
     d="M 256,1 C 115.17,1 1,115.17 1,256 1,396.83 115.17,511 256,511 396.83,511 511,396.83 511,256 511,115.17 396.83,1 256,1 m 8.827,44.931 c 120.9,0 218.9,98 218.9,218.9 0,120.9 -98,218.9 -218.9,218.9 -120.9,0 -218.93,-98 -218.93,-218.9 0,-120.9 98.03,-218.9 218.93,-218.9"
     id="path8" />
  <g
     style="fill-opacity:0.12900002;fill-rule:evenodd"
     id="g10">
    <path
       inkscape:connector-curvature="0"
       d="m 256,4.433 c -138.94,0 -251.57,112.63 -251.57,251.57 0,138.94 112.63,251.57 251.57,251.57 138.94,0 251.57,-112.63 251.57,-251.57 C 507.57,117.063 394.94,4.433 256,4.433 m 5.885,38.556 c 120.9,0 218.9,98 218.9,218.9 0,120.9 -98,218.9 -218.9,218.9 -120.9,0 -218.93,-98 -218.93,-218.9 0,-120.9 98.03,-218.9 218.93,-218.9"
       id="path12" />
    <path
       inkscape:connector-curvature="0"
       d="m 256,8.356 c -136.77,0 -247.64,110.87 -247.64,247.64 0,136.77 110.87,247.64 247.64,247.64 136.77,0 247.64,-110.87 247.64,-247.64 C 503.64,119.226 392.77,8.356 256,8.356 m 2.942,31.691 c 120.9,0 218.9,98 218.9,218.9 0,120.9 -98,218.9 -218.9,218.9 -120.9,0 -218.93,-98 -218.93,-218.9 0,-120.9 98.03,-218.9 218.93,-218.9"
       id="path14" />
  </g>
  <path
     inkscape:connector-curvature="0"
     style="opacity:0.25"
     id="path4190"
     d="m 303.65847,203.32753 -111.36372,-46.54672 -38.18579,3.54317 -1.70913,16.54726 26.57041,12.6635 -26.56358,17.26378 28.9429,12.49499 -29.05452,17.62266 28.02877,14.18327 -27.83591,15.8064 28.23898,13.68099 -28.23113,16.5134 29.13116,13.22437 -29.35984,16.68722 26.80835,11.6546 -26.66926,18.423 191.85061,94.033 C 448.88329,430.47915 524.43541,279.01933 472.56474,251.61834 420.69407,224.21735 341.96024,186.30887 341.96024,186.30887"
     sodipodi:nodetypes="ccccccccccccccccccc" />
  <path
     style="fill:#ffffff;fill-rule:evenodd;stroke:#000000;stroke-width:4.90399981;stroke-opacity:0.31000001"
     inkscape:connector-curvature="0"
     d="m 253.04,7.859 c -135.42,0 -245.19,109.78 -245.19,245.19 0,135.42 109.78,245.19 245.19,245.19 135.42,0 245.19,-109.78 245.19,-245.19 0,-135.42 -109.78,-245.19 -245.19,-245.19 z m 0,26.297 c 120.9,0 218.9,98 218.9,218.9 0,120.9 -98,218.9 -218.9,218.9 -120.9,0 -218.93,-98 -218.93,-218.9 0,-120.9 98.03,-218.9 218.93,-218.9 z"
     id="path16" />
  <path
     id="path91"
     style="fill:#ffffff;fill-opacity:1;fill-rule:nonzero;stroke:none"
     d="m 202.68377,337.12279 39.61739,0 c 0.12014,0 0.20024,0.0401 0.20024,0.0401 l 0,19.94385 c 0,0 -0.0801,0.0401 -0.20024,0.0401 l -39.61739,0 c -0.12015,0 -0.23028,-0.0401 -0.23028,-0.0401 l 0,-19.94385 c 0,0 0.12014,-0.0401 0.23028,-0.0401 m 0,0"
     inkscape:connector-curvature="0" />
  <path
     id="path93"
     style="fill:#ffffff;fill-opacity:1;fill-rule:nonzero;stroke:none"
     d="m 202.68377,306.92667 39.61739,0 c 0.12014,0 0.20024,0.04 0.20024,0.04 l 0,19.94386 c 0,0 -0.0801,0.0401 -0.20024,0.0401 l -39.61739,0 c -0.12015,0 -0.23028,-0.0401 -0.23028,-0.0401 l 0,-19.94386 c 0,0 0.12014,-0.04 0.23028,-0.04 m 0,0"
     inkscape:connector-curvature="0" />
  <path
     id="path95"
     style="fill:#ffffff;fill-opacity:1;fill-rule:nonzero;stroke:none"
     d="m 202.68377,277.25117 39.61739,0 c 0.12014,0 0.20024,0 0.20024,0.04 l 0,19.67354 c 0,0.0401 -0.0801,0.0401 -0.20024,0.0401 l -39.61739,0 c -0.12015,0 -0.23028,0 -0.23028,-0.0401 l 0,-19.67354 c 0,-0.04 0.12014,-0.04 0.23028,-0.04 m 0,0"
     inkscape:connector-curvature="0" />
  <path
     id="path97"
     style="fill:#ffffff;fill-opacity:1;fill-rule:nonzero;stroke:none"
     d="m 202.68377,247.01499 39.61739,0 c 0.12014,0 0.20024,0.04 0.20024,0.04 l 0,19.55339 c 0,0 -0.0801,0.0401 -0.20024,0.0401 l -39.61739,0 c -0.12015,0 -0.23028,-0.0401 -0.23028,-0.0401 l 0,-19.55339 c 0,0 0.12014,-0.04 0.23028,-0.04 m 0,0"
     inkscape:connector-curvature="0" />
  <path
     id="path99"
     style="fill:#ffffff;fill-opacity:1;fill-rule:nonzero;stroke:none"
     d="m 202.68377,216.97906 39.61739,0 c 0.12014,0 0.20024,0 0.20024,0.0401 l 0,19.43325 c 0,0 -0.0801,0.0401 -0.20024,0.0401 l -39.61739,0 c -0.12015,0 -0.23028,-0.0401 -0.23028,-0.0401 l 0,-19.43325 c 0,-0.0401 0.12014,-0.0401 0.23028,-0.0401 m 0,0"
     inkscape:connector-curvature="0" />
  <path
     id="path101"
     style="fill:#ffffff;fill-opacity:1;fill-rule:nonzero;stroke:none"
     d="m 302.80354,337.22291 39.65744,0 c 0.12014,0 0.20024,0 0.20024,0.0401 l 0,19.79367 c 0,0 -0.0801,0.0401 -0.20024,0.0401 l -39.65744,0 c -0.12015,0 -0.20024,-0.0401 -0.20024,-0.0401 l 0,-19.79367 c 0,-0.0401 0.0801,-0.0401 0.20024,-0.0401 m 0,0"
     inkscape:connector-curvature="0" />
  <path
     id="path103"
     style="fill:#ffffff;fill-opacity:1;fill-rule:nonzero;stroke:none"
     d="m 302.80354,307.2871 39.65744,0 c 0.12014,0 0.20024,0.04 0.20024,0.04 l 0,19.67354 c 0,0.0401 -0.0801,0.0401 -0.20024,0.0401 l -39.65744,0 c -0.12015,0 -0.20024,0 -0.20024,-0.0401 l 0,-19.67354 c 0,0 0.0801,-0.04 0.20024,-0.04 m 0,0"
     inkscape:connector-curvature="0" />
  <path
     id="path105"
     style="fill:#ffffff;fill-opacity:1;fill-rule:nonzero;stroke:none"
     d="m 302.80354,277.55152 39.65744,0 c 0.12014,0 0.20024,0.0401 0.20024,0.0401 l 0,19.59344 c 0,0 -0.0801,0.0401 -0.20024,0.0401 l -39.65744,0 c -0.12015,0 -0.20024,-0.0401 -0.20024,-0.0401 l 0,-19.59344 c 0,0 0.0801,-0.0401 0.20024,-0.0401 m 0,0"
     inkscape:connector-curvature="0" />
  <path
     id="path107"
     style="fill:#ffffff;fill-opacity:1;fill-rule:nonzero;stroke:none"
     d="m 302.80354,247.51559 39.65744,0 c 0.12014,0 0.20024,0 0.20024,0.0401 l 0,19.43325 c 0,0 -0.0801,0.04 -0.20024,0.04 l -39.65744,0 c -0.12015,0 -0.20024,-0.04 -0.20024,-0.04 l 0,-19.43325 c 0,-0.0401 0.0801,-0.0401 0.20024,-0.0401 m 0,0"
     inkscape:connector-curvature="0" />
  <path
     id="path109"
     style="fill:#ffffff;fill-opacity:1;fill-rule:nonzero;stroke:none"
     d="m 302.80354,217.57978 39.65744,0 c 0.12014,0 0.20024,0.0401 0.20024,0.0401 l 0,19.28307 c 0,0.0401 -0.0801,0.0401 -0.20024,0.0401 l -39.65744,0 c -0.12015,0 -0.20024,0 -0.20024,-0.0401 l 0,-19.28307 c 0,0 0.0801,-0.0401 0.20024,-0.0401 m 0,0"
     inkscape:connector-curvature="0" />
  <path
     id="path111"
     style="fill:#ffffff;fill-opacity:1;fill-rule:nonzero;stroke:none"
     d="m 302.80354,186.94313 39.65744,0 c 0.12014,0 0.20024,0.0401 0.20024,0.0401 l 0,19.94386 c 0,0.0401 -0.0801,0.0401 -0.20024,0.0401 l -39.65744,0 c -0.12015,0 -0.20024,0 -0.20024,-0.0401 l 0,-19.94386 c 0,0 0.0801,-0.0401 0.20024,-0.0401 m 0,0"
     inkscape:connector-curvature="0" />
  <path
     id="path113"
     style="fill:#ffffff;fill-opacity:1;fill-rule:nonzero;stroke:none"
     d="m 352.86342,337.12279 39.65744,0 c 0.12015,0 0.20024,0.0401 0.20024,0.0401 l 0,19.94385 c 0,0 -0.0801,0.0401 -0.20024,0.0401 l -39.65744,0 c -0.12014,0 -0.20024,-0.0401 -0.20024,-0.0401 l 0,-19.94385 c 0,0 0.0801,-0.0401 0.20024,-0.0401 m 0,0"
     inkscape:connector-curvature="0" />
  <path
     id="path115"
     style="fill:#ffffff;fill-opacity:1;fill-rule:nonzero;stroke:none"
     d="m 352.86342,307.08686 39.65744,0 c 0.12015,0 0.20024,0 0.20024,0.04 l 0,19.82372 c 0,0 -0.0801,0.0401 -0.20024,0.0401 l -39.65744,0 c -0.12014,0 -0.20024,-0.0401 -0.20024,-0.0401 l 0,-19.82372 c 0,-0.04 0.0801,-0.04 0.20024,-0.04 m 0,0"
     inkscape:connector-curvature="0" />
  <path
     id="path117"
     style="fill:#ffffff;fill-opacity:1;fill-rule:nonzero;stroke:none"
     d="m 352.86342,277.25117 39.65744,0 c 0.12015,0 0.20024,0 0.20024,0.04 l 0,19.67354 c 0,0.0401 -0.0801,0.0401 -0.20024,0.0401 l -39.65744,0 c -0.12014,0 -0.20024,0 -0.20024,-0.0401 l 0,-19.67354 c 0,-0.04 0.0801,-0.04 0.20024,-0.04 m 0,0"
     inkscape:connector-curvature="0" />
  <path
     id="path119"
     style="fill:#ffffff;fill-opacity:1;fill-rule:nonzero;stroke:none"
     d="m 352.86342,247.01499 39.65744,0 c 0.12015,0 0.20024,0.04 0.20024,0.04 l 0,19.55339 c 0,0 -0.0801,0.0401 -0.20024,0.0401 l -39.65744,0 c -0.12014,0 -0.20024,-0.0401 -0.20024,-0.0401 l 0,-19.55339 c 0,0 0.0801,-0.04 0.20024,-0.04 m 0,0"
     inkscape:connector-curvature="0" />
  <path
     id="path121"
     style="fill:#ffffff;fill-opacity:1;fill-rule:nonzero;stroke:none"
     d="m 352.86342,216.97906 39.65744,0 c 0.12015,0 0.20024,0 0.20024,0.0401 l 0,19.43325 c 0,0 -0.0801,0.0401 -0.20024,0.0401 l -39.65744,0 c -0.12014,0 -0.20024,-0.0401 -0.20024,-0.0401 l 0,-19.43325 c 0,-0.0401 0.0801,-0.0401 0.20024,-0.0401 m 0,0"
     inkscape:connector-curvature="0" />
  <path
     id="path123"
     style="fill:#ffffff;fill-opacity:1;fill-rule:nonzero;stroke:none"
     d="m 252.74365,337.12279 39.61739,0 c 0.12015,0 0.20024,0.0401 0.20024,0.0401 l 0,19.94385 c 0,0 -0.0801,0.0401 -0.20024,0.0401 l -39.61739,0 c -0.12014,0 -0.23027,-0.0401 -0.23027,-0.0401 l 0,-19.94385 c 0,0 0.12014,-0.0401 0.23027,-0.0401 m 0,0"
     inkscape:connector-curvature="0" />
  <path
     id="path125"
     style="fill:#ffffff;fill-opacity:1;fill-rule:nonzero;stroke:none"
     d="m 252.74365,307.08686 39.61739,0 c 0.12015,0 0.20024,0 0.20024,0.04 l 0,19.82372 c 0,0 -0.0801,0.0401 -0.20024,0.0401 l -39.61739,0 c -0.12014,0 -0.23027,-0.0401 -0.23027,-0.0401 l 0,-19.82372 c 0,-0.04 0.12014,-0.04 0.23027,-0.04 m 0,0"
     inkscape:connector-curvature="0" />
  <path
     id="path127"
     style="fill:#ffffff;fill-opacity:1;fill-rule:nonzero;stroke:none"
     d="m 252.74365,277.25117 39.61739,0 c 0.12015,0 0.20024,0 0.20024,0.04 l 0,19.67354 c 0,0.0401 -0.0801,0.0401 -0.20024,0.0401 l -39.61739,0 c -0.12014,0 -0.23027,0 -0.23027,-0.0401 l 0,-19.67354 c 0,-0.04 0.12014,-0.04 0.23027,-0.04 m 0,0"
     inkscape:connector-curvature="0" />
  <path
     id="path129"
     style="fill:#ffffff;fill-opacity:1;fill-rule:nonzero;stroke:none"
     d="m 152.62388,337.12279 39.61739,0 c 0.12015,0 0.20024,0.0401 0.20024,0.0401 l 0,19.94385 c 0,0 -0.0801,0.0401 -0.20024,0.0401 l -39.61739,0 c -0.12014,0 -0.23027,-0.0401 -0.23027,-0.0401 l 0,-19.94385 c 0,0 0.12014,-0.0401 0.23027,-0.0401 m 0,0"
     inkscape:connector-curvature="0" />
  <path
     id="path131"
     style="fill:#ffffff;fill-opacity:1;fill-rule:nonzero;stroke:none"
     d="m 152.62388,307.2871 39.61739,0 c 0.12015,0 0.20024,0.04 0.20024,0.04 l 0,19.71359 c 0,0 -0.0801,0 -0.20024,0 l -39.61739,0 c -0.12014,0 -0.23027,0 -0.23027,0 l 0,-19.71359 c 0,0 0.12014,-0.04 0.23027,-0.04 m 0,0"
     inkscape:connector-curvature="0" />
  <path
     id="path133"
     style="fill:#ffffff;fill-opacity:1;fill-rule:nonzero;stroke:none"
     d="m 152.62388,277.45141 39.61739,0 c 0.12015,0 0.20024,0 0.20024,0 l 0,19.59343 c 0,0.04 -0.0801,0.04 -0.20024,0.04 l -39.61739,0 c -0.12014,0 -0.23027,0 -0.23027,-0.04 l 0,-19.59343 c 0,0 0.12014,0 0.23027,0 m 0,0"
     inkscape:connector-curvature="0" />
  <path
     id="path135"
     style="fill:#ffffff;fill-opacity:1;fill-rule:nonzero;stroke:none"
     d="m 152.62388,247.51559 39.61739,0 c 0.12015,0 0.20024,0 0.20024,0.0401 l 0,19.43325 c 0,0 -0.0801,0.04 -0.20024,0.04 l -39.61739,0 c -0.12014,0 -0.23027,-0.04 -0.23027,-0.04 l 0,-19.43325 c 0,-0.0401 0.12014,-0.0401 0.23027,-0.0401 m 0,0"
     inkscape:connector-curvature="0" />
  <path
     id="path137"
     style="fill:#ffffff;fill-opacity:1;fill-rule:nonzero;stroke:none"
     d="m 152.62388,217.57978 39.61739,0 c 0.12015,0 0.20024,0.0401 0.20024,0.0401 l 0,19.32312 c 0,0 -0.0801,0 -0.20024,0 l -39.61739,0 c -0.12014,0 -0.23027,0 -0.23027,0 l 0,-19.32312 c 0,0 0.12014,-0.0401 0.23027,-0.0401 m 0,0"
     inkscape:connector-curvature="0" />
  <path
     id="path139"
     style="fill:#ffffff;fill-opacity:1;fill-rule:nonzero;stroke:none"
     d="m 152.62388,186.94313 39.61739,0 c 0.12015,0 0.20024,0 0.20024,0.0401 l 0,19.90381 c 0,0.0401 -0.0801,0.0401 -0.20024,0.0401 l -39.61739,0 c -0.12014,0 -0.23027,0 -0.23027,-0.0401 l 0,-19.90381 c 0,-0.0401 0.12014,-0.0401 0.23027,-0.0401 m 0,0"
     inkscape:connector-curvature="0" />
  <path
     id="path141"
     style="fill:#ffffff;fill-opacity:1;fill-rule:nonzero;stroke:none"
     d="m 152.62388,156.9072 39.61739,0 c 0.12015,0 0.20024,0.0401 0.20024,0.0401 l 0,19.94386 c 0,0 -0.0801,0.0401 -0.20024,0.0401 l -39.61739,0 c -0.12014,0 -0.23027,-0.0401 -0.23027,-0.0401 l 0,-19.94386 c 0,0 0.12014,-0.0401 0.23027,-0.0401 m 0,0"
     inkscape:connector-curvature="0" />
</svg>
