<svg height="48" viewBox="0 0 512 512" width="48" xmlns="http://www.w3.org/2000/svg">
 <path d="m471.95 253.05c0 120.9-98.01 218.9-218.9 218.9-120.9 0-218.9-98.01-218.9-218.9 0-120.9 98.01-218.9 218.9-218.9 120.9 0 218.9 98.01 218.9 218.9" fill="#8d8d8d" fill-rule="evenodd"/>
 <g transform="translate(155.70731 -47.555928)">
  <path d="m316.32295 299.53239c0 120.9-98.006 218.91-218.91 218.91-120.904 0-218.91-98.006-218.91-218.91 0-120.904 98.006-218.910005 218.91-218.910005 120.904 0 218.91 98.006005 218.91 218.910005" fill="#696969" fill-rule="evenodd"/>
  <path d="m-114.78805 242.39383c-1.088 4.29-2.013 8.65-2.844 13.03h430.09c-.83065-4.3869-1.7555-8.7412-2.8438-13.031h-424.41z" fill="#434343"/>
  <path d="m96.528971 79.542739c-102.2700003 0-188.139999 70.118001-212.190001 164.910001h424.41c-24.04-94.8-109.95-164.910001-212.219999-164.910001z" fill="#656565"/>
 </g>
 <path d="m256 1c-140.83 0-255 114.17-255 255 0 140.83 114.17 255 255 255 140.83 0 255-114.17 255-255 0-140.83-114.17-255-255-255m8.827 44.931c120.9 0 218.9 98 218.9 218.9 0 120.9-98 218.9-218.9 218.9-120.9 0-218.93-98-218.93-218.9 0-120.9 98.03-218.9 218.93-218.9" fill-opacity=".067" fill-rule="evenodd"/>
 <g fill-opacity=".129" fill-rule="evenodd">
  <path d="m256 4.433c-138.94 0-251.57 112.63-251.57 251.57 0 138.94 112.63 251.57 251.57 251.57 138.94 0 251.57-112.63 251.57-251.57 0-138.94-112.63-251.57-251.57-251.57m5.885 38.556c120.9 0 218.9 98 218.9 218.9 0 120.9-98 218.9-218.9 218.9-120.9 0-218.93-98-218.93-218.9 0-120.9 98.03-218.9 218.93-218.9"/>
  <path d="m256 8.356c-136.77 0-247.64 110.87-247.64 247.64 0 136.77 110.87 247.64 247.64 247.64 136.77 0 247.64-110.87 247.64-247.64 0-136.77-110.87-247.64-247.64-247.64m2.942 31.691c120.9 0 218.9 98 218.9 218.9 0 120.9-98 218.9-218.9 218.9-120.9 0-218.93-98-218.93-218.9 0-120.9 98.03-218.9 218.93-218.9"/>
 </g>
 <path d="m384.51401 124.23332c-83.8 1.16-178.03-.24-261.88.09v49.13c12.57 13.06 8.59 9.04 12.56 13.12 5.57 5.71-5.94 15.99-2.28 31.28v169.41c45.61 43.78 69.94 67.28 85.13 82.06 10.62 1.59 21.5 2.44 32.56 2.44 120.9 0 218.91-98.01 218.91-218.91 0-16.48-1.83-32.53-5.28-47.97-19.52-19.71-43.67-44.16-79.72-80.65z" opacity=".25"/>
 <path d="m253.04 7.859c-135.42 0-245.19 109.78-245.19 245.19 0 135.42 109.78 245.19 245.19 245.19 135.42 0 245.19-109.78 245.19-245.19 0-135.42-109.78-245.19-245.19-245.19zm0 26.297c120.9 0 218.9 98 218.9 218.9 0 120.9-98 218.9-218.9 218.9-120.9 0-218.93-98-218.93-218.9 0-120.9 98.03-218.9 218.93-218.9z" fill="#ffffff" fill-rule="evenodd" stroke="#000000" stroke-opacity=".31" stroke-width="4.904"/>
 <path d="m122.63401 124.32332v49.125h261.88v-49.125zm66.19 11.91c6.976 0 12.656 5.6177 12.656 12.594 0 6.976-5.6802 12.656-12.656 12.656-6.976 0-12.656-5.6802-12.656-12.656 0-6.976 5.6802-12.594 12.656-12.594zm129.47 0c6.976 0 12.625 5.6177 12.625 12.594 0 6.976-5.649 12.656-12.625 12.656-6.976 0-12.625-5.6802-12.625-12.656 0-6.976 5.649-12.594 12.625-12.594zm-185.38 50.375v200.66h42.812c29.329-16.363 58.642-32.75 87.969-49.125v-21.406c5.32 2.66 10.56 4.652 15.781 6.0312 2.9912.7548 5.973 1.265 8.9062 1.5938 9.9581-5.5552 19.946-11.079 29.906-16.625-.47249-4.0828-2.5317-7.2443-6.125-9.4688-4.0886-2.6107-10.158-3.9062-18.188-3.9062h-11.375v-18.344h11.969c7.1425.00007 12.471-1.0958 15.969-3.3125 3.4973-2.2658 5.2187-5.6688 5.2188-10.25-.00006-4.2362-1.6324-7.4972-5.0312-9.8125-3.3989-2.3151-8.2309-3.4999-14.438-3.5-4.5812.00011-9.2267.4969-13.906 1.5312-4.6796 1.0345-9.3696 2.5742-14 4.5938v-20.875c5.6155-1.5762 11.202-2.7117 16.719-3.5 5.517-.78803 10.992-1.1874 16.312-1.1875 14.334.0001 25 2.365 32.094 7.0938 7.1425 4.6797 10.75 11.761 10.75 21.219-.00009 6.453-1.6949 11.737-5.0938 15.875-3.399 4.0886-8.4751 6.9502-15.125 8.625 7.4381 1.9212 13.126 5.3156 16.969 10.094 1.9836 2.4106 3.4397 5.1677 4.4062 8.25 7.9139 14.177 15.831 28.357 23.75 42.531l5.0625-1.375v-155.41h-241.31zm65.094 43.094c13.201.0001 23.428 2.875 30.719 8.6875 7.3396 5.8127 11.031 13.95 11.031 24.344-.0001 6.0097-1.5842 11.654-4.6875 16.875-3.1034 5.1723-9.6122 12.062-19.562 20.781l-23.562 20.719h48.562v20.906h-80.156v-20.906l40.25-35.531c3.5959-3.251 6.2446-6.4591 7.9688-9.5625 1.724-3.1033 2.5937-6.2753 2.5938-9.625-.00007-5.1722-1.7527-9.3786-5.25-12.531-3.4482-3.1525-8.0492-4.7186-13.812-4.7188-4.4334.00011-9.2918.95396-14.562 2.875-5.2707 1.872-10.897 4.6939-16.906 8.4375v-24.219c6.4037-2.118 12.744-3.7599 19-4.8438 6.2559-1.1328 12.365-1.6874 18.375-1.6875zm141.66 72.75l-151.97 84.812h17.594l158.1-42.35-23.72-42.46z" fill="#ffffff"/>
</svg>
