<svg viewBox="0 0 512 512" xmlns="http://www.w3.org/2000/svg">
 <path d="m214.49717 80.71836l-153.35225 32.18206 37.65893 34.9205c0 0-6.68178 8.1715-8.89443 10.95374-58.0986 72.77661-50.29954 179.57551 17.81076 242.95381 13.03494 12.13673 27.93202 21.90747 43.1358 29.44363l56.14884-60.92466c-17.0002-3.89953-32.90502-12.6187-46.55337-25.32503-38.25044-35.64345-43.50823-93.61061-12.3339-135.5634 3.89952-5.23589 6.85703-8.89444 6.85703-8.89444l37.65895 34.9205 21.90746-154.66671m34.9205 0v23.28763h26.02608v15.07234 6.156c0 1.35827 1.18299 2.0593 2.73844 2.0593h8.21529c-6.09027 8.4782-9.59547 19.27857-9.59547 32.8612 0 30.73618 50.7377 55.66688 60.24553 86.95074-7.77715 25.63174-60.24554 56.49936-60.24554 87.62986 0 24.90879 11.129 41.0546 28.7645 49.97094h-21.22833c-6.46271 0-11.63286 4.57866-11.63286 10.2746v13.01304h-23.28765v23.28763h211.53852v-23.28763h-26.70522v-13.01304c0-5.69594-5.17016-10.2746-11.63286-10.2746h-29.44364c17.63552-8.91634 29.44364-25.06215 29.44364-49.97094 0-31.1305-52.35885-59.43495-60.92467-87.62986 9.39831-30.91143 60.92467-56.23647 60.92467-86.95074 0-13.58263-3.50519-24.383-9.59546-32.8612h18.48989c1.53352 0 2.73843-.70103 2.73843-2.0593v-21.22834h26.70522v-23.28763h-211.53852" fill="#3a3a3a"/>
</svg>
