<svg viewBox="0 0 512 512" xmlns="http://www.w3.org/2000/svg">
 <path d="m283.15332 50.90589c-76.34476 0-138.25 61.90922-138.25 138.25 0 76.34477 61.90921 138.21876 138.25 138.21876 76.33946 0 138.21876-61.87796 138.21876-138.21876 0-76.33946-61.87797-138.25-138.21876-138.25zm0 41.0625c53.59566 0 97.18752 43.60423 97.18752 97.1875 0 53.59568-43.60425 97.18751-97.18752 97.18751-53.59567 0-97.18749-43.60422-97.18749-97.18751 0-53.59567 43.6042-97.1875 97.18749-97.1875zm-135.25 184.75001l-87.406263 72.875c-9.71881 8.10055-10.39338 22.10663-1.4375 31.0625l32.62501 32.59376c8.955883 8.95588 22.899453 8.28129 31.000003-1.43751l72.875-87.4375c-19.01524-12.38113-35.27643-28.61988-47.65625-47.65624zm92.46875 115.25c-19.08767 0-34.53124 15.47486-34.53124 34.5625 0 19.0824 15.44357 34.56251 34.53124 34.56251 19.08237 0 34.56251-15.48011 34.56251-34.56251 0-19.08236-15.47486-34.5625-34.56251-34.5625zm92.15626 0c-19.08238 0-34.53126 15.47486-34.53126 34.5625 0 19.0824 15.4436 34.56251 34.53126 34.56251 19.08238 0 34.56251-15.48011 34.56251-34.56251 0-19.08236-15.48013-34.5625-34.56251-34.5625zm92.15625 0c-19.08238 0-34.53125 15.47486-34.53125 34.5625 0 19.0824 15.44359 34.56251 34.53125 34.56251 19.08239 0 34.5625-15.48011 34.5625-34.56251 0-19.08236-15.47483-34.5625-34.5625-34.5625z" fill="#3a3a3a" fill-rule="evenodd"/>
</svg>
