<svg viewBox="0 0 512 512" xmlns="http://www.w3.org/2000/svg">
 <path d="m226.09375 67.4373v168.34374h25.1875l5.53125-13.3125h2.28125c8.07857 10.31468 19.22771 15.46875 33.4375 15.46875 14.35388 0 25.67363-5.47365 33.96875-16.4375 8.36702-10.96382 12.53112-26.42604 12.53125-46.40625-.00013-19.40304-4.01525-34.67304-12.09375-45.78125-8.07873-11.18012-19.28074-16.74988-33.5625-16.75-15.14748.00012-26.56333 5.96394-34.28125 17.9375h-1.3125c.86552-10.96373 1.31245-18.92912 1.3125-23.90625v-39.15624zm-114.25 9.53125l-55.84375 158.81249h36.125l11.46875-37.65625h57.6875l11.46875 37.65625h36.125l-56.03125-158.81249zm20.65625 24.53125c.57697 2.59682 1.51407 6.15302 2.8125 10.62499 1.3704 4.47221 7.36548 23.75735 17.96875 57.875h-41.25c11.2523-36.42582 18.08837-59.26716 20.46875-68.49999zm285.84375 11.06249c-19.11464.00012-33.78875 5.42091-44.03125 16.3125-10.24256 10.81969-15.37501 26.53662-15.375 47.09375-.00001 41.33083 18.84782 61.96875 56.5 61.96875 8.29493 0 15.12138-.63915 20.53125-1.9375 5.48183-1.29835 10.91224-3.64111 16.25-7.03125v-28.25c-5.40989 3.60656-10.8403 6.30014-16.25 8.03125-5.40987 1.65903-11.27758 2.46879-17.625 2.46875-17.16712.00004-25.75004-11.80988-25.75-35.46875-.00004-24.38005 8.58288-36.59366 25.75-36.59375 4.47202.00009 8.93407.69212 13.40625 2.0625 4.472 1.29844 9.30651 3.00206 14.5 5.09375l9.75-25.53125c-11.1082-5.48179-23.663-8.21863-37.65625-8.21875zm-135.5625 26.375c6.99659.0001 12.52311 3.01326 16.5625 9 4.03922 5.9148 6.0624 14.81729 6.0625 26.71875-.0001 11.90159-2.02328 20.97469-6.0625 27.25-3.96726 6.20326-9.34481 9.31254-16.125 9.3125-8.36721.00004-14.51126-2.81129-18.40625-8.4375-3.82297-5.62614-5.7188-14.92269-5.71875-27.90625v-3.5625c.14422-11.5408 2.09291-19.80414 5.84375-24.78125 3.75073-5.04903 9.69293-7.59365 17.84375-7.59375zm-168.4375 143.0625v58h-58l-.34375 58.375 58.34375.0625v58.03125l58.84375.46875-.125-58.46875 58.28125.0625-.3125-58.5h-58.09375l-.125-58-58.46875-.0312z" fill="#3a3a3a"/>
</svg>
