<svg viewBox="0 0 512 512" xmlns="http://www.w3.org/2000/svg">
 <path d="m84.21646 112.2797c169.89153 148.23637.36099.68621 171.00737 148.89897 57.81784-51.18917 120.79343-105.14047 171.03905-148.89897zm-17.7057 15.42519v.0316 71.48798c17.66852-10.59169 37.71987-16.97721 59.70529-16.97721 1.01434 0 1.93133-.0237 2.94567 0zm377.42614 0l-62.65096 54.54244c1.50973-.0471 2.87744 0 4.43434 0 21.34849 0 40.91002 6.19959 58.2483 16.24871v-70.75948l-.0317-.0316zm-317.68918 71.48797c-55.27018 0-100.24788 44.97771-100.24788 100.24789 0 55.27019 44.9777 100.27956 100.24788 100.27956 55.27018 0 100.24788-45.00937 100.24788-100.27956 0-55.27018-44.9777-100.24788-100.24788-100.24788zm259.47256 0c-55.27018 0-100.24788 44.9777-100.24788 100.24788 0 55.27019 44.9777 100.27956 100.24788 100.27956 55.27019.00001 100.27956-45.00937 100.27956-100.27955 0-55.27018-45.00937-100.24789-100.27956-100.24789zm-62.65096 44.24844h125.33361c6.9353 0 12.54285 4.84737 12.54285 11.78269 0 6.93532-5.60755 13.27135-12.54285 13.27135h-125.33361c-6.93531 0-12.5112-6.31245-12.5112-13.27135 0-6.93532 5.57589-11.78269 12.5112-11.78269zm-217.47298 3.67416v31.70559c46.84873 0 83.1242 9.86046 103.95373 61.92246-31.23249-26.0428-62.29467-31.05435-103.95373-20.65138v31.70556l-62.65096-52.35695zm163.65902 33.16257l-13.99986 12.5112-12.51118-11.0542c.8964 5.8502 1.457 12.34812 1.457 18.43421 0 39.22933-19.70404 73.63411-49.37961 95.05336h121.62776c-29.25096-21.5136-48.68278-56.22505-48.68278-95.05336 0-6.83024.33718-13.36714 1.48867-19.89121zm53.81396 7.34835h125.33361c6.9353 0 12.54285 4.87906 12.54285 11.81436 0 6.93532-5.60755 13.27137-12.54285 13.27137h-125.33361c-6.93531 0-12.5112-6.31246-12.5112-13.27137 0-6.9353 5.57589-11.81436 12.5112-11.81436zm0 42.79143h125.33361c6.9353 0 12.54285 6.31248 12.54285 13.27137 0 6.93531-5.60755 11.78269-12.54285 11.78269h-125.33361c-6.93531 0-12.5112-4.84738-12.5112-11.78269 0-6.93531 5.57589-13.27137 12.5112-13.27137z" fill="#3a3a3a"/>
</svg>
