<svg viewBox="0 0 512 512" xmlns="http://www.w3.org/2000/svg">
 <path d="m90.78621 97.86785l177.21734 155.75743 177.97552-155.75743zm-19.18536 16.87785v.033 123.48515c18.36309-10.97367 39.30704-17.63603 62.13815-17.63603 22.21739 0 42.60238 6.44427 60.62178 16.87785l7.68074-9.19711zm392.80539 0l-129.64952 113.56282 129.64952 145.76917zm-330.66724 124.2763c-57.51969 0-104.33275 46.81305-104.33275 104.33275 0 57.51968 46.81306 104.33275 104.33275 104.33275 57.5197 0 104.33275-46.81307 104.33275-104.33275 0-57.5197-46.81305-104.33275-104.33275-104.33275zm86.69673 5.37321l-6.1314 6.92256c25.65433 22.53651 42.1946 55.40898 42.1946 92.03698 0 17.50385-4.06895 34.01915-10.74644 49.11715h202.53409l-132.71521-148.04372-47.53485 42.1946zm-111.25531 37.61254v17.63602l-54.45741 45.26031 54.45741 45.29327v17.63603l-77.46666-62.9293zm21.49288 8.40595v.033 33.75568c38.56741 3.48605 68.99362 18.34153 87.45491 64.44567-27.00455-22.51197-54.28841-30.25679-87.45491-26.10791v36.82138l-65.20385-54.45744z" fill="#3a3a3a" fill-rule="evenodd"/>
</svg>
