<svg viewBox="0 0 512 512" xmlns="http://www.w3.org/2000/svg">
 <path d="m112.79721 63.49999v106.91963l-47.52693 35.62926v35.40597c17.17313-10.12868 36.67749-16.07113 56.96851-16.07623 4.76857-.14077 9.54094.007 14.28997.44655v-138.56171h166.28047v71.25849h71.25851v67.27134c1.89874-.16933 3.82601-.31669 5.74152-.38276 17.8987-.75245 35.8578 2.21659 52.34339 8.99503 4.5482 1.69212 8.9403 3.67193 13.17357 5.93288v-34.32147l-47.49502-35.62923v-35.62925l-71.25851-71.2585zm-.0319 136.5841v21.53065l-14.09859-11.13214zm285.06589 0l14.09858 10.39851-14.09858 11.13214zm-272.37077 46.50623c-55.64925 0-100.95486 45.29471-100.95486 100.95482 0 55.66288 45.29472 100.95487 100.95486 100.95487 55.66286 0 100.95485-45.29471 100.95485-100.95487 0-55.64923-45.29471-100.95482-100.95485-100.95482zm261.07912 0c-55.66012 0-100.95483 45.30559-100.95483 100.95482 0 55.66016 45.29197 100.95487 100.95483 100.95487 55.66016 0 100.95487-45.29199 100.95487-100.95487 0-55.66011-45.3056-100.95482-100.95487-100.95482zm-131.22534 15.11929l-24.68848 24.01866c13.10953 22.47992 19.32236 49.05631 16.29951 75.14996-2.67563 32.90402-20.71911 62.66711-46.37865 82.70961h111.03438c-25.84775-20.48902-43.99457-50.90758-46.6976-84.0812-3.36921-25.81106 3.15024-51.44178 16.29951-73.26804zm-150.6508 33.10937v31.92914c47.18414 0 83.71458 9.93131 104.68684 62.35918-31.46108-26.21325-62.74779-31.28587-104.68684-20.79701v31.92914l-63.0928-52.69429zm302.67317 0l63.09279 52.72616-63.09279 52.69429v-31.92914c-41.93904-10.48886-73.1993-5.41624-104.65494 20.79701 20.97225-52.42787 57.47079-62.35918 104.65494-62.35918z" fill="#3a3a3a"/>
</svg>
