<svg viewBox="0 0 512 512" xmlns="http://www.w3.org/2000/svg">
 <path d="m309.491 55.99998c-62.6465 0-115.8212 39.49925-136.858 94.79692 6.4451-.73904 13.1025-1.10776 19.7381-1.10776 28.9357 0 56.2885 7.37394 80.1612 20.14099 9.036-10.15463 22.2395-16.48204 36.9587-16.48204 27.3244 0 49.379 22.05661 49.379 49.41256 0 14.71492-6.2824 27.91694-16.4485 36.95871 12.7656 23.86555 20.1074 51.19616 20.1074 80.12757 0 6.6356-.3351 13.33234-1.0742 19.77173 55.2905-21.03972 94.7634-74.26367 94.7634-136.89158 0-80.96785-65.7765-146.7271-146.7271-146.7271zm-110.0369 112.58812c-79.3194 0-143.6724 64.40238-143.6724 143.70596 0 79.29068 64.3544 143.70594 143.6724 143.70594 79.2906 0 143.7059-64.4167 143.7059-143.70594 0-79.31647-64.4167-143.70596-143.7059-143.70596zm0 95.19974c26.7644 0 48.5397 21.71315 48.5397 48.50622 0 26.77588-21.7739 48.50621-48.5397 48.50621-26.7931 0-48.5063-21.73033-48.5063-48.50621 0-26.79307 21.7132-48.50622 48.5063-48.50622zm0 34.1054c-7.9318 0-14.3673 6.46186-14.3673 14.40082 0 7.93179 6.434 14.36724 14.3673 14.36724 7.9461 0 14.3672-6.43403 14.3672-14.36724 0-7.94611-6.4283-14.40082-14.3672-14.40082z" fill="#3a3a3a"/>
</svg>
