<svg viewBox="0 0 512 512" xmlns="http://www.w3.org/2000/svg">
 <path d="m249.58606 111.75742v.0275c-75.27512.93139-147.90355 44.82271-186.72152 123.98552-.005.0141-.0228.0192-.0275.0275-.15151.29834-.29833.58255-.44045.8809-2.84939 5.04222-5.55167 10.24073-8.03813 15.60829l-3.3584 7.26736 4.12918 6.9095c1.86749 3.11013 3.74804 6.12036 5.67074 9.05666.0188.0235.041.0315.055.0551 46.19396 81.71152 118.98279 124.62674 192.86025 124.67371 73.88449.0459 147.51999-42.68103 195.55795-124.83887.13743-.20201.15607-.23292.0551-.0825.0459-.0693.0689-.12814.11-.1927.12333-.21141.26676-.39889.38539-.60561 2.17522-3.23933 4.33157-6.53263 6.41398-9.93756l4.76232-7.79039-4.62464-7.84545c-2.31733-3.94523-4.72885-7.73944-7.18477-11.47912-.17029-.30774-.37555-.60071-.55056-.90843-47.59987-83.20796-122.27916-124.38861-195.47539-124.81144-1.19332-.005-2.38062-.0141-3.57863 0zm-162.414409 147.13645c83.199969 64.84735 234.959309 70.35099 327.801839 8.47859-90.42023 103.5992-250.96468 98.92153-327.801839-8.47859z" fill="#3a3a3a"/>
</svg>
