<svg viewBox="0 0 512 512" xmlns="http://www.w3.org/2000/svg">
 <path d="m255.94967 56c-86.12344 0-155.37021 15.31569-155.37021 33.84036 0 18.52466 69.27177 33.03463 155.37021 33.03463 86.12343 0 156.47807-14.50997 156.47807-33.03463 0-18.52467-70.37964-33.84036-156.47807-33.84036zm-155.37021 45.38905c-2.774949 3.24994-4.397899 6.42873-4.397899 9.90367v31.38962c0 24.47455 71.528279 44.58332 159.801679 44.58332 88.3484 0 159.80167-20.10877 159.80167-44.58332v-31.38962c0-3.47494-1.67294-6.65373-4.3979-9.90367-3.04994 17.92467-71.24673 32.19533-155.3702 32.19533-84.14847 0-152.29525-14.24566-155.3702-32.19533h-.0671zm.0671 62.74565c-3.049939 3.39994-4.397909 7.05947-4.397909 10.7094v32.19534c0 24.49955 71.494719 43.74403 159.768109 43.74403 88.3484 0 159.80168-19.24448 159.80168-43.74403v-32.19534c0-3.64993-1.37296-7.33446-4.39791-10.7094-17.17469 19.37465-80.22156 33.84036-155.3702 33.84036-74.99864 0-138.22051-14.46571-155.3702-33.84036h-.0336zm110.04829 124.55131v23.76882 21.45237h-49.11551c-14.42474 0-.77215 13.05942-.77215 13.05942l87.45449 105.11325c0 0 4.04875 4.62717 9.19867 3.82718l.0336.0336c1.72496-.27499 3.49651-1.18006 5.37148-3.05503 10.37481-10.34981 84.39946-108.974 84.39946-108.974 0 0 12.87534-13.02585-4.59933-13.02585h-45.28834v-19.20306-22.99667h-86.68234z" fill="#3a3a3a"/>
</svg>
