<?xml version="1.0" encoding="UTF-8"?>
<svg version="1.1" viewBox="0 0 512 512" xmlns="http://www.w3.org/2000/svg" xmlns:cc="http://creativecommons.org/ns#" xmlns:dc="http://purl.org/dc/elements/1.1/" xmlns:rdf="http://www.w3.org/1999/02/22-rdf-syntax-ns#">
 <metadata>
  <rdf:RDF>
   <cc:Work rdf:about="">
    <dc:format>image/svg+xml</dc:format>
    <dc:type rdf:resource="http://purl.org/dc/dcmitype/StillImage"/>
    <dc:title/>
   </cc:Work>
  </rdf:RDF>
 </metadata>
 <path d="m256 56.022c-110.44 0-199.98 89.534-199.98 199.98s89.534 199.98 199.98 199.98 199.98-89.534 199.98-199.98-89.534-199.98-199.98-199.98m0 66.853c73.508 0 133.09 59.612 133.09 133.13 0 73.508-59.584 133.13-133.09 133.13s-133.09-59.612-133.09-133.12 59.584-133.12 133.09-133.12m-53.427 99.784c-18.465 0-33.34 14.875-33.34 33.34s14.875 33.34 33.34 33.34h106.82c18.465 0 33.34-14.875 33.34-33.34s-14.875-33.34-33.34-33.34z" fill="#3a3a3a" fill-rule="evenodd" stroke-width=".93013"/>
</svg>
