<svg viewBox="0 0 512 512" xmlns="http://www.w3.org/2000/svg">
 <path d="m288.1548 54.96551l-33.18966 33.16092 67.35633 67.35633 33.1609 33.16092 33.16094-33.16092 67.35632-67.3276-33.16092-33.18965-67.35634 67.35633zm-183.90806.0287c-26.65035 0-48.24713 21.5738-48.24713 48.21839 0 26.65612 21.60254 48.27586 48.24713 48.27586 26.65036 0 48.24713-21.6255 48.24713-48.27586 0-26.65035-21.60254-48.21839-48.24713-48.21839zm0 152.75863c-26.65035 0-48.24713 21.60252-48.24713 48.24712 0 26.65035 21.60254 48.24712 48.24713 48.24712 26.65036 0 48.24713-21.60253 48.24713-48.24712 0-26.65036-21.60254-48.24712-48.24713-48.24712zm0 152.78735c-26.65035 0-48.24713 21.59679-48.24713 48.24714 0 26.65035 21.60254 48.24712 48.24713 48.24712 26.65036 0 48.24713-21.60253 48.24713-48.24712 0-26.65611-21.60254-48.24714-48.24713-48.24714z" fill="#3a3a3a"/>
</svg>
