<svg viewBox="0 0 512 512" xmlns="http://www.w3.org/2000/svg">
 <path d="m96.9777 85.00466c-25.39377 0-45.97773 20.58302-45.97773 45.97773 0 25.39 20.58302 45.94827 45.97773 45.94827 25.38999 0 45.97773-20.55733 45.97773-45.94827 0-25.39377-20.5868-45.97773-45.97773-45.97773zm86.68319 20.29382v51.36781h277.33909v-51.36781zm-86.68319 104.70904c-25.39377 0-45.97773 20.58303-45.97773 45.97774 0 25.39 20.58302 45.97774 45.97773 45.97774 25.38999 0 45.97773-20.58679 45.97773-45.97774 0-25.39378-20.5868-45.97774-45.97773-45.97774zm86.68319 20.29383v51.39728h277.33909v-51.39728zm-86.68319 104.73851c-25.39377 0-45.97773 20.58303-45.97773 45.97774 0 25.39 20.58302 45.97772 45.97773 45.97772 25.38999 0 45.97773-20.58679 45.97773-45.97772 0-25.39378-20.5868-45.97774-45.97773-45.97774zm86.68319 20.29383v51.39726h277.33909v-51.39726z" fill="#3a3a3a" fill-rule="evenodd"/>
</svg>
