<svg viewBox="0 0 512 512" xmlns="http://www.w3.org/2000/svg">
 <path d="m161.63957 50.96629c-3.56213-.0513-7.17105 1.19716-10.22062 3.88796-5.56116 4.86908-5.52058 4.72017-5.80249 32.5764-.15373 16.14484.0292 26.57907.61854 29.21862 1.10192 5.15097 4.11087 9.10538 8.365 11.10425 7.50862 3.51088 16.98168.34592 20.44125-6.80393 1.69139-3.48524 1.76245-4.25155 1.53163-31.92841l-.26509-28.39389-2.26798-3.00434c-3.30585-4.33091-7.80929-6.57595-12.37079-6.6272l-.0294-.0295z" fill="#3a3a3a"/>
 <path d="m350.44132 50.99574c-4.56156.0513-9.03549 2.29629-12.34133 6.62721l-2.32689 3.00433v29.39535 29.33643l2.12071 3.23997c1.25571 1.89637 3.60125 3.8938 5.62576 4.91886 6.58607 3.25459 15.17812 1.50014 19.3809-4.03523 3.43398-4.5103 3.84586-8.78136 3.56396-36.02256-.28189-27.85624-.24148-27.70732-5.80248-32.5764-3.04959-2.6908-6.65852-3.93921-10.22063-3.88796z" fill="#3a3a3a"/>
 <path d="m110.40587 82.78115c-14.607424 0-20.142404.33306-23.781254 1.28125-15.47861 4.02339-28.14404 15.9302-33.5 31.5625l-1.78125 5.1875-.25 148.03125c-.23045 165.01044-.53347 154.03481 5.4375 166.15625 6.04797 12.24956 18.43461 21.77168 32.09375 24.71875 7.99534 1.717 326.231334 1.74849 334.406254.0312 14.01781-2.92144 26.37522-12.31542 32.5-24.71875 5.97103-12.12144 5.60563-1.14581 5.375-166.15625l-.1875-148.03125-1.78125-5.1875c-5.35598-15.63229-17.99022-27.57036-33.46875-31.59375-3.639-.94819-9.23652-1.21875-23.84375-1.21875h-19.09375v15.40625c0 8.48244-.31434 17.47421-.75 20.0625-2.02451 12.40334-10.46485 22.26163-22.125 25.875-5.20222 1.58886-13.4803 1.51511-18.375-.125-9.81503-3.28021-17.35603-10.75871-20.6875-20.625-1.07632-3.22896-1.28125-7.24712-1.28125-22.1875v-18.3125h-63.34375-63.25v18.3125c0 14.94038-.27299 18.95854-1.375 22.1875-7.79054 23.08968-36.75827 29.65119-53.03125 11.96875-4.12585-4.48468-7.09999-10.67021-8.125-17-.4101-2.56267-.78706-11.61131-.8125-20.09375v-15.40625h-19l .0312-.125zm-28.218754 109.84375h173.781254 173.84375v111.1875c0 78.95593-.23433 112.06298-.875 114.34375-1.1532 4.17715-6.51034 9.5968-10.6875 10.75-2.30641.64067-48.2586.90063-162.65625.875-135.36033-.0256-159.908614-.24493-162.625004-1.21875-4.04914-1.43509-8.84119-6.4766-9.96875-10.5-.58946-2.15265-.8125-37.34421-.8125-114.25z" fill="#3a3a3a"/>
 <path d="m253.6651 199.98076l-.95882 3.33503c-1.08593 3.76499-2.60344 6.64699-6.93409 13.10389-5.28584 7.88102-6.67006 11.47504-6.67006 17.34215 0 7.54833 3.19538 13.31125 9.01848 16.28606 1.03261.52753 2.37621 1.10622 2.98763 1.27843.61142.17222 1.14703.28313 1.19505.25014.0481-.0329-.51806-1.8499-1.26453-4.04372-.9194-2.70216-1.42677-5.22916-1.58414-7.80954-.27787-4.55463.31745-6.26301 3.83529-10.85275 2.72672-3.55757 3.42652-4.83386 3.84918-7.08693.31025-1.65377.36966-1.52287 2.0566 3.79359 3.25357 10.25353 3.07664 14.65642-.91713 22.41419-.88134 1.71198-1.67866 3.26894-1.76479 3.46009-.23879.53012 4.10518-1.21954 6.48942-2.61244 3.47167-2.02821 6.97141-5.69047 8.39315-8.76835 1.75494-3.79914 1.76088-9.15875.0138-14.04882-2.68558-7.51756-8.59941-16.83159-14.4379-22.71989l-3.30722-3.32113zm21.77497 57.0568c-1.36953.0249-3.05594.52107-5.21099 1.52856-6.80702 3.18232-16.03678 5.19397-23.84546 5.19709-5.76587.002-8.51105.53924-12.53416 2.44569-4.05228 1.92027-8.07642 5.80695-9.69938 9.35198-3.30039 7.20901-2.04544 14.40575 2.7514 15.73023.87524.24167 1.87473.32832 2.22336.19454.53907-.20685.63921 1.5588.63921 11.82546 0 10.99108.0773 12.22705.84765 13.72921 1.04862 2.04483 2.46812 3.40385 4.48839 4.27996 1.2815.55573 4.14463.66654 16.35555.6809 16.31759.0192 16.74346-.034 19.56552-2.7653 2.60123-2.51762 2.76529-3.86538 2.76529-22.55314 0-13.4017.13164-17.1842.65311-18.9402.61227-2.06165 1.48186-3.65124 5.1693-9.49093 1.25477-1.98713 1.50643-2.82339 1.48686-4.78021-.0251-2.53374-.79593-4.01227-2.95984-5.62787-.75033-.5602-1.63063-.82536-2.69581-.80597zm-94.36747 73.66249l-2.89036 1.0283c-7.43814 2.67012-13.52566 8.11967-16.18879 14.49349-.98264 2.35174-.8984 3.18521.62532 6.40604 2.81365 5.94753 9.14643 10.37876 17.25878 12.08948 4.96026 1.04601 14.88811 1.15013 20.2881.20845 9.93034-1.73171 15.27128-6.05324 16.89749-13.65974.55512-2.59647 4.59776-3.64382 6.64227-1.7231.59416.55818 1.30768 1.90373 1.58414 3.00153 2.16181 8.58542 12.66115 13.04831 30.71007 13.04831 17.97982 0 28.41535-4.39965 30.68228-12.93714.93879-3.53556 3.16541-4.94792 5.96137-3.7797 1.74644.72972 2.26173 1.52002 2.69581 4.14099.17005 1.02671.90549 2.76854 1.63973 3.87698 2.64894 3.99924 6.98266 6.42926 14.06271 7.8929 5.95841 1.23177 18.14572.97203 23.22015-.50025 7.59468-2.20351 12.62184-5.9359 15.1188-11.21404 1.61153-3.40647 1.65208-4.59872.26402-7.47602-3.16325-6.5571-8.50257-11.2387-15.82749-13.86818l-2.89036-1.0283h-74.92702zm-21.56653 32.58603v22.94223 22.87275h192.9871v-22.59483c0-12.47301-.0905-22.67821-.20844-22.67821-.11799 0-1.15447.88249-2.29284 1.97323-6.32296 6.05848-18.86151 9.11435-33.50315 8.17082-10.62195-.68448-18.00993-3.35871-23.45639-8.50433l-2.32062-2.18166-2.34842 1.98712c-7.11189 6.03196-17.34304 8.82498-32.322 8.81004-15.54702-.0155-25.04394-2.61059-32.40538-8.82393l-2.34842-1.97323-2.18167 2.04271c-5.59742 5.2357-13.01364 7.96049-23.48417 8.64328-14.85026.9684-26.64576-1.92704-33.41979-8.19861z" fill="#3a3a3a"/>
</svg>
