<svg width="512" height="512" version="1.1" viewBox="0 0 512 512" xmlns="http://www.w3.org/2000/svg">
 <g fill-rule="evenodd">
  <path d="m471.95 253.05c0 120.9-98.01 218.9-218.9 218.9-120.9 0-218.9-98.01-218.9-218.9 0-120.9 98.01-218.9 218.9-218.9 120.9 0 218.9 98.01 218.9 218.9" fill="#c93648"/>
  <path d="m381.66 119.63c-6.258 0.105-18.998 1.358-27.25 2.844-42.16 7.591-75.31 20.456-102 39.594-16.876 12.1-28.552 24.359-40.19 42.06-2.958 4.5-5.689 8.624-6.06 9.156-0.378 0.532-4.878 1.084-10 1.25-10.426 0.338-10.892 0.56-25.813 12.09-16.955 13.11-34.921 34.02-47.531 55.38 1.765 5.0834-4.3428 11.789-4.3428 11.789l34.165 40.553s-0.3842 23.142 3.1011 46.698c2.8115 20.127-1.454 38.334-1.454 38.334l51.166 56.657c25.628 23.322 308.1-32.531 266.51-222.96 0-18.16-2.206-35.813-6.375-52.688-0.131-0.034-0.267-0.04-0.438-0.063-0.033-0.38-0.077-0.67-0.156-0.75-0.098-0.097-0.429-0.163-0.844-0.219-0.033-0.395-0.075-0.7-0.156-0.781-0.097-0.096-0.406-0.163-0.813-0.219-0.033-0.396-0.106-0.7-0.188-0.781-0.098-0.097-0.398-0.163-0.813-0.219-0.033-0.396-0.106-0.7-0.188-0.781-0.098-0.098-0.396-0.163-0.813-0.219-0.033-0.396-0.106-0.7-0.188-0.781-0.098-0.098-0.396-0.163-0.813-0.219-0.033-0.384-0.076-0.67-0.156-0.75-0.098-0.098-0.428-0.194-0.844-0.25-0.033-0.38-0.077-0.67-0.156-0.75-0.098-0.097-0.429-0.163-0.844-0.219-0.033-0.396-0.075-0.7-0.156-0.781-0.095-0.095-0.415-0.163-0.813-0.219-0.033-0.396-0.106-0.7-0.188-0.781-0.097-0.096-0.406-0.163-0.813-0.219-0.033-0.396-0.106-0.7-0.188-0.781-0.098-0.098-0.396-0.163-0.813-0.219-0.033-0.396-0.106-0.7-0.188-0.781-0.098-0.098-0.396-0.163-0.813-0.219-0.033-0.384-0.076-0.67-0.156-0.75-0.098-0.098-0.428-0.194-0.844-0.25-0.033-0.38-0.077-0.67-0.156-0.75-0.098-0.097-0.429-0.163-0.844-0.219-0.033-0.396-0.075-0.7-0.156-0.781-0.095-0.095-0.415-0.163-0.813-0.219-0.033-0.396-0.106-0.7-0.188-0.781-0.097-0.096-0.406-0.163-0.813-0.219-0.033-0.396-0.106-0.7-0.188-0.781-0.098-0.098-0.396-0.163-0.813-0.219-0.033-0.396-0.106-0.7-0.188-0.781-0.098-0.098-0.396-0.163-0.813-0.219-0.033-0.384-0.107-0.67-0.188-0.75-0.098-0.098-0.396-0.194-0.813-0.25-0.033-0.38-0.077-0.67-0.156-0.75-0.098-0.097-0.429-0.163-0.844-0.219-0.033-0.396-0.075-0.7-0.156-0.781-0.098-0.097-0.429-0.163-0.844-0.219-0.033-0.395-0.075-0.7-0.156-0.781-0.096-0.096-0.406-0.163-0.813-0.219-0.033-0.396-0.106-0.7-0.188-0.781-0.098-0.097-0.398-0.163-0.813-0.219-0.033-0.396-0.106-0.7-0.188-0.781-0.098-0.098-0.396-0.163-0.813-0.219-0.033-0.384-0.107-0.67-0.188-0.75-0.098-0.098-0.396-0.194-0.813-0.25-0.033-0.38-0.077-0.67-0.156-0.75-0.098-0.098-0.428-0.194-0.844-0.25-0.033-0.38-0.077-0.67-0.156-0.75-0.098-0.097-0.429-0.163-0.844-0.219-0.033-0.396-0.075-0.7-0.156-0.781-0.096-0.096-0.406-0.163-0.813-0.219-0.033-0.396-0.106-0.7-0.188-0.781-0.096-0.096-0.406-0.163-0.813-0.219-0.033-0.396-0.106-0.7-0.188-0.781-0.098-0.098-0.396-0.163-0.813-0.219-0.033-0.396-0.106-0.7-0.188-0.781-0.098-0.098-0.396-0.163-0.813-0.219-0.033-0.384-0.076-0.67-0.156-0.75-0.098-0.098-0.428-0.194-0.844-0.25-0.033-0.38-0.077-0.67-0.156-0.75-0.098-0.098-0.429-0.163-0.844-0.219-0.033-0.396-0.075-0.7-0.156-0.781-0.095-0.095-0.415-0.163-0.813-0.219-0.033-0.396-0.106-0.7-0.188-0.781-0.096-0.096-0.406-0.163-0.813-0.219-0.033-0.396-0.106-0.7-0.188-0.781-0.098-0.098-0.396-0.163-0.813-0.219-0.033-0.396-0.106-0.7-0.188-0.781-0.098-0.098-0.396-0.163-0.813-0.219-0.033-0.384-0.107-0.67-0.188-0.75-0.098-0.098-0.396-0.194-0.813-0.25-0.033-0.38-0.077-0.67-0.156-0.75-0.098-0.098-0.429-0.163-0.844-0.219-0.033-0.396-0.075-0.7-0.156-0.781-0.095-0.095-0.415-0.163-0.813-0.219-0.033-0.396-0.106-0.7-0.188-0.781-0.096-0.096-0.406-0.163-0.813-0.219-0.033-0.396-0.106-0.7-0.188-0.781-0.098-0.098-0.398-0.163-0.813-0.219-0.033-0.396-0.106-0.7-0.188-0.781-0.098-0.098-0.396-0.163-0.813-0.219-0.033-0.384-0.107-0.67-0.188-0.75-0.098-0.098-0.396-0.194-0.813-0.25-0.033-0.38-0.077-0.67-0.156-0.75-0.098-0.098-0.429-0.163-0.844-0.219-0.033-0.396-0.075-0.7-0.156-0.781-0.098-0.098-0.429-0.163-0.844-0.219-0.033-0.395-0.075-0.7-0.156-0.781-0.096-0.096-0.406-0.163-0.813-0.219-0.033-0.396-0.106-0.7-0.188-0.781-0.098-0.098-0.398-0.163-0.813-0.219-0.033-0.396-0.106-0.7-0.188-0.781-0.098-0.098-0.396-0.163-0.813-0.219-0.033-0.384-0.107-0.701-0.188-0.781-0.098-0.098-0.396-0.163-0.813-0.219-0.033-0.38-0.077-0.67-0.156-0.75-0.098-0.098-0.428-0.194-0.844-0.25-0.033-0.38-0.077-0.67-0.156-0.75-0.098-0.098-0.429-0.163-0.844-0.219-0.033-0.396-0.075-0.7-0.156-0.781-0.096-0.096-0.406-0.163-0.813-0.219-0.033-0.396-0.106-0.7-0.188-0.781-0.096-0.096-0.406-0.163-0.813-0.219-0.033-0.396-0.106-0.7-0.188-0.781-0.098-0.098-0.396-0.163-0.813-0.219-0.033-0.396-0.106-0.7-0.188-0.781-0.098-0.098-0.396-0.163-0.813-0.219-0.033-0.384-0.076-0.67-0.156-0.75-0.098-0.098-0.428-0.194-0.844-0.25-0.033-0.38-0.077-0.67-0.156-0.75-0.098-0.098-0.429-0.163-0.844-0.219-0.033-0.396-0.075-0.7-0.156-0.781-0.095-0.095-0.415-0.163-0.813-0.219-0.033-0.396-0.106-0.7-0.188-0.781-0.096-0.096-0.406-0.163-0.813-0.219-0.033-0.396-0.106-0.7-0.188-0.781-0.098-0.098-0.396-0.163-0.813-0.219-0.033-0.396-0.106-0.7-0.188-0.781-0.098-0.098-0.396-0.163-0.813-0.219-0.033-0.384-0.107-0.67-0.188-0.75-0.098-0.098-0.396-0.194-0.813-0.25-0.033-0.38-0.077-0.67-0.156-0.75-0.098-0.098-0.429-0.163-0.844-0.219-0.033-0.396-0.075-0.7-0.156-0.781-0.098-0.098-0.429-0.163-0.844-0.219-0.033-0.395-0.075-0.7-0.156-0.781-0.096-0.096-0.406-0.163-0.813-0.219-0.033-0.396-0.106-0.7-0.188-0.781-0.098-0.098-0.398-0.163-0.813-0.219-0.033-0.396-0.106-0.7-0.188-0.781-0.098-0.098-0.396-0.163-0.813-0.219-0.033-0.384-0.107-0.67-0.188-0.75-0.098-0.098-0.396-0.194-0.813-0.25-0.033-0.38-0.077-0.67-0.156-0.75-0.098-0.098-0.428-0.194-0.844-0.25-0.033-0.38-0.077-0.67-0.156-0.75-0.098-0.098-0.429-0.163-0.844-0.219-0.033-0.396-0.075-0.7-0.156-0.781-0.096-0.096-0.406-0.163-0.813-0.219-0.033-0.396-0.106-0.7-0.188-0.781-0.098-0.098-0.398-0.163-0.813-0.219-0.033-0.396-0.106-0.7-0.188-0.781-0.098-0.098-0.396-0.163-0.813-0.219-0.033-0.396-0.106-0.7-0.188-0.781-0.098-0.098-0.396-0.163-0.813-0.219-0.033-0.384-0.076-0.67-0.156-0.75-0.098-0.098-0.428-0.194-0.844-0.25-0.033-0.38-0.077-0.67-0.156-0.75-0.098-0.098-0.429-0.163-0.844-0.219-0.033-0.396-0.075-0.7-0.156-0.781-0.095-0.095-0.415-0.163-0.813-0.219-0.033-0.396-0.106-0.7-0.188-0.781-0.096-0.096-0.406-0.163-0.813-0.219-0.033-0.396-0.106-0.7-0.188-0.781-0.098-0.098-0.396-0.163-0.813-0.219-0.033-0.396-0.106-0.7-0.188-0.781-0.098-0.098-0.396-0.163-0.813-0.219-0.033-0.384-0.107-0.67-0.188-0.75-0.25-0.25-1.602-0.379-3.688-0.344" fill-opacity=".235"/>
  <path d="m256 1c-140.83 0-255 114.17-255 255s114.17 255 255 255 255-114.17 255-255-114.17-255-255-255m8.827 44.931c120.9 0 218.9 98 218.9 218.9s-98 218.9-218.9 218.9-218.93-98-218.93-218.9 98.03-218.9 218.93-218.9" fill-opacity=".067"/>
  <g fill-opacity=".129">
   <path d="m256 4.433c-138.94 0-251.57 112.63-251.57 251.57s112.63 251.57 251.57 251.57 251.57-112.63 251.57-251.57-112.63-251.57-251.57-251.57m5.885 38.556c120.9 0 218.9 98 218.9 218.9s-98 218.9-218.9 218.9-218.93-98-218.93-218.9 98.03-218.9 218.93-218.9"/>
   <path d="m256 8.356c-136.77 0-247.64 110.87-247.64 247.64s110.87 247.64 247.64 247.64 247.64-110.87 247.64-247.64-110.87-247.64-247.64-247.64m2.942 31.691c120.9 0 218.9 98 218.9 218.9s-98 218.9-218.9 218.9-218.93-98-218.93-218.9 98.03-218.9 218.93-218.9"/>
  </g>
  <path d="m253.04 7.859c-135.42 0-245.19 109.78-245.19 245.19 0 135.42 109.78 245.19 245.19 245.19 135.42 0 245.19-109.78 245.19-245.19 0-135.42-109.78-245.19-245.19-245.19zm0 26.297c120.9 0 218.9 98 218.9 218.9s-98 218.9-218.9 218.9-218.93-98-218.93-218.9 98.03-218.9 218.93-218.9z" fill="#ffffff" stroke="#000000" stroke-opacity=".31" stroke-width="4.904"/>
 </g>
 <path d="m381.65 119.62c-6.258 0.105-18.983 1.344-27.23 2.83-42.16 7.591-75.31 20.483-101.99 39.621-16.876 12.1-28.573 24.344-40.21 42.05-2.958 4.5-5.691 8.619-6.06 9.152-0.374 0.533-4.872 1.083-9.997 1.25-10.427 0.338-10.88 0.558-25.801 12.09-16.955 13.11-34.913 34.03-47.523 55.39-8.02 13.59-5.944 15.252 13.673 10.879 6.332-1.412 13.356-2.984 15.62-3.492 15.227-3.412 23.659-4.936 24.22-4.374 0.358 0.358-0.277 3.323-1.433 6.579-1.552 4.37-1.829 6.708-0.992 8.931 0.623 1.657 7.491 9.41 15.253 17.238l14.11 14.261 5.881-0.698c3.234-0.387 7.451-1.048 9.336-1.47 2.647-0.593 3.262-0.425 2.793 0.845-2.094 5.671-11.778 52.857-11.173 54.43 0.407 1.06 1.639 1.911 2.72 1.911s8.639-4.397 16.797-9.777c26.288-17.337 41.988-32.08 55.54-52.15 5.647-8.369 5.738-8.673 5.77-17.679l0.037-9.189 11.504-7.314c26.508-16.827 45.36-40.37 61.23-76.52 7.72-17.578 12.45-32.904 17.679-57.3 2.183-10.184 4.963-36.16 3.969-37.16-0.25-0.25-1.626-0.366-3.712-0.331m-69.06 52.779c8.712 8e-3 14.272 3.03 18.08 9.813 6.115 10.881 0.897 23.622-11.798 28.925-4.373 1.827-6.09 1.993-11.394 0.992-1.556-0.293-5.658-3.379-9.115-6.836-6.02-6.02-6.289-6.544-6.285-12.533 0-7.366 2.494-12.07 8.931-16.98 3.748-2.858 5.515-3.387 11.577-3.381" fill="#ffffff" fill-rule="evenodd"/>
 <path d="m162.97 307.52 33.315 36.765-42 75.095-0.40604-51.649-36.393 12.033 15.667-34.099-50.989-4.613z" fill="#ffffff"/>
</svg>
