<svg width="512" height="512" version="1.1" viewBox="0 0 512 512" xmlns="http://www.w3.org/2000/svg">
 <g fill-rule="evenodd">
  <path d="m471.95 253.05c0 120.9-98.01 218.9-218.9 218.9-120.9 0-218.9-98.01-218.9-218.9 0-120.9 98.01-218.9 218.9-218.9 120.9 0 218.9 98.01 218.9 218.9" fill="#c93648"/>
  <path d="m256 1c-140.83 0-255 114.17-255 255s114.17 255 255 255 255-114.17 255-255-114.17-255-255-255m8.827 44.931c120.9 0 218.9 98 218.9 218.9s-98 218.9-218.9 218.9-218.93-98-218.93-218.9 98.03-218.9 218.93-218.9" fill-opacity=".067"/>
  <g fill-opacity=".129">
   <path d="m256 4.433c-138.94 0-251.57 112.63-251.57 251.57s112.63 251.57 251.57 251.57 251.57-112.63 251.57-251.57-112.63-251.57-251.57-251.57m5.885 38.556c120.9 0 218.9 98 218.9 218.9s-98 218.9-218.9 218.9-218.93-98-218.93-218.9 98.03-218.9 218.93-218.9"/>
   <path d="m256 8.356c-136.77 0-247.64 110.87-247.64 247.64s110.87 247.64 247.64 247.64 247.64-110.87 247.64-247.64-110.87-247.64-247.64-247.64m2.942 31.691c120.9 0 218.9 98 218.9 218.9s-98 218.9-218.9 218.9-218.93-98-218.93-218.9 98.03-218.9 218.93-218.9"/>
  </g>
 </g>
 <path d="m93.34 172.89-7.6976 60.708 124.4 116.99 132.93 110.7c74.213-40.267 117.99-62.147 131.18-208.71l-3.92-7.6206-80.132-70.161" opacity=".25"/>
 <path d="m253.04 7.859c-135.42 0-245.19 109.78-245.19 245.19 0 135.42 109.78 245.19 245.19 245.19 135.42 0 245.19-109.78 245.19-245.19 0-135.42-109.78-245.19-245.19-245.19zm0 26.297c120.9 0 218.9 98 218.9 218.9s-98 218.9-218.9 218.9-218.93-98-218.93-218.9 98.03-218.9 218.93-218.9z" fill="#ffffff" fill-rule="evenodd" stroke="#000000" stroke-opacity=".31" stroke-width="4.904"/>
 <g transform="translate(-3.0681 -10.738)" fill="#ffffff">
  <path d="m96.408 183.63c-4.7551 0-8.5915 2.842-8.5915 6.3721v50.977c0 3.5302 3.8364 6.3721 8.5915 6.3721h281.55c17.135 0 30.917-9.8385 32.013-22.328a12.089 9.5582 0 0 0 11.493-9.5327 12.089 9.5582 0 0 0-11.493-9.5327c-1.0961-12.489-14.878-22.328-32.013-22.328z" fill-rule="evenodd"/>
  <path d="m176.79 232.59v48.357h193.43v-48.357z"/>
  <path d="m273.19 230.07a80.596 80.596 0 0 0-80.596 80.596 80.596 80.596 0 0 0 80.596 80.596 80.596 80.596 0 0 0 80.596-80.596 80.596 80.596 0 0 0-80.596-80.596zm8.0576 16.684a64.477 64.477 0 0 1 31.418 13.04l-31.418 31.416zm-16.118 0.03v44.426l-31.448-31.448a64.477 64.477 0 0 1 31.448-12.977zm58.964 24.373a64.477 64.477 0 0 1 12.975 31.448h-44.426zm-101.78 0.015v0.0176l31.418 31.416h-44.458a64.477 64.477 0 0 1 13.04-31.433zm50.874 29.28a10.214 10.214 0 0 1 10.213 10.213 10.214 10.214 0 0 1-10.213 10.213 10.214 10.214 0 0 1-10.215-10.213 10.214 10.214 0 0 1 10.215-10.213zm-63.882 18.273h44.426l-31.448 31.448a64.477 64.477 0 0 1-12.977-31.448zm83.335 0h44.458a64.477 64.477 0 0 1-13.04 31.416zm-27.514 11.396v44.456a64.477 64.477 0 0 1-31.433-13.04zm16.118 0 31.448 31.448a64.477 64.477 0 0 1-31.448 12.975z"/>
 </g>
</svg>
