<?xml version="1.0" encoding="UTF-8"?>
<svg width="512" height="512" version="1.1" viewBox="0 0 512 512" xmlns="http://www.w3.org/2000/svg">
 <g stroke-width="0">
  <path transform="matrix(1.1599 0 0 .96736 -264.49 -2.5604)" d="m633.49 263.59a187.66 224.54 0 1 1-375.32 0 187.66 224.54 0 1 1 375.32 0z" fill="#c93648" opacity=".995"/>
  <path d="m421.06 277.3 66.88 30.616c-3.8387 25.712-42.771 45.721-54.42 66.747-16.552 22.066-35.387 38.803-54.428 55.061-28.199 21.833-53.154 27.134-81.642 35.441l-242.81-147.03c86.602-31.009 248.56-27.151 366.42-40.83z" opacity=".2" stroke="#000000"/>
  <path d="m431.07 168.37 26.038 8.5304c9.507 31.021 12.451 63.136 11.853 95.841l-230.42-102.07c62.524-11.022 127.92 5.7371 192.52-2.3011z" opacity=".191" stroke="#000000"/>
 </g>
 <g fill-rule="evenodd">
  <path d="m256 1c-140.83 0-255 114.17-255 255s114.17 255 255 255 255-114.17 255-255-114.17-255-255-255m8.827 44.931c120.9 0 218.9 98 218.9 218.9s-98 218.9-218.9 218.9-218.93-98-218.93-218.9 98.03-218.9 218.93-218.9" fill-opacity=".067"/>
  <g fill-opacity=".129">
   <path d="m256 4.433c-138.94 0-251.57 112.63-251.57 251.57s112.63 251.57 251.57 251.57 251.57-112.63 251.57-251.57-112.63-251.57-251.57-251.57m5.885 38.556c120.9 0 218.9 98 218.9 218.9s-98 218.9-218.9 218.9-218.93-98-218.93-218.9 98.03-218.9 218.93-218.9"/>
   <path d="m256 8.356c-136.77 0-247.64 110.87-247.64 247.64s110.87 247.64 247.64 247.64 247.64-110.87 247.64-247.64-110.87-247.64-247.64-247.64m2.942 31.691c120.9 0 218.9 98 218.9 218.9s-98 218.9-218.9 218.9-218.93-98-218.93-218.9 98.03-218.9 218.93-218.9"/>
  </g>
  <path d="m253.04 7.859c-135.42 0-245.19 109.78-245.19 245.19 0 135.42 109.78 245.19 245.19 245.19 135.42 0 245.19-109.78 245.19-245.19 0-135.42-109.78-245.19-245.19-245.19zm0 26.297c120.9 0 218.9 98 218.9 218.9s-98 218.9-218.9 218.9-218.93-98-218.93-218.9 98.03-218.9 218.93-218.9z" fill="#ffffff" stroke="#000000" stroke-opacity=".31" stroke-width="4.904"/>
 </g>
 <path d="m388.12 275.75 71.334 59.828-46.022 72.101-99.714 60.595-30.681 5.3692-226.27-154.94z" fill="none" stroke="#000000" stroke-width="0"/>
 <g transform="matrix(12.875 0 0 12.875 -67.148 -51.721)">
  <!-- color: #eeeeee -->
  <path d="m36.18 16c-1.582-0.023-3.086 0.391-4.379 1.133-1.012-0.57-2.164-0.941-3.398-1.059-1.699-0.156-3.328 0.191-4.738 0.922-0.016 8e-3 -0.031 0.016-0.043 0.023-0.035 0.027-0.059 0.07-0.059 0.117 0 0.082 0.066 0.141 0.145 0.141h0.027c4e-3 0 8e-3 -4e-3 8e-3 -4e-3 0.762-0.137 1.551-0.176 2.359-0.102 2.258 0.211 4.23 0.906 5.613 2.461 0.07 0.074 0.133 0.066 0.203-4e-3 1.742-1.996 4.406-2.789 7.27-2.52 0.16 0.016 0.32 0.031 0.477 0.059 0.055 8e-3 0.141 0.02 0.191 0.023 0.094 0.012 0.145-0.063 0.145-0.141 0-0.063-0.023-0.105-0.078-0.129-0.055-0.027-0.109-0.063-0.164-0.082-0.887-0.43-1.863-0.699-2.898-0.809-0.227-0.02-0.457-0.039-0.684-0.043" style="fill:#ffffff"/>
  <path d="m32.272 24.446c-3.191 0-6.141 1.012-8.555 2.711-1.844-0.82-3.883-1.277-6.03-1.277-3.055 0-5.887 0.922-8.242 2.5-4e-3 4e-3 -0.016 0.012-0.02 0.016-0.055 0.039-0.082 0.098-0.082 0.168 0 0.121 0.098 0.219 0.215 0.219 0.016 0 0.031-4e-3 0.043-4e-3s0.02-4e-3 0.023-8e-3c1.352-0.406 2.785-0.621 4.27-0.621 3.934 0 7.449 0.926 10.09 3.391 8e-3 4e-3 0.016 0.012 0.023 0.016 0.039 0.035 0.086 0.047 0.145 0.047 0.066 0 0.125-0.02 0.164-0.07 0 0 0.086-0.113 0.129-0.18 2.691-3.641 7.121-5.438 12.04-5.438 0.352 0 0.703 8e-3 1.051 0.035 0.098 4e-3 0.313 0.023 0.316 0.023 0.117 0 0.215-0.098 0.215-0.219 0-0.086-0.051-0.156-0.125-0.188-8e-3 -4e-3 -0.016-8e-3 -0.023-0.012-1.742-0.711-3.641-1.113-5.633-1.113" style="fill:#ffffff"/>
 </g>
</svg>
