<?xml version="1.0" encoding="UTF-8" standalone="no"?>
<svg id="svg2436" xmlns:rdf="http://www.w3.org/1999/02/22-rdf-syntax-ns#" xmlns="http://www.w3.org/2000/svg" height="48" width="48" version="1.1" xmlns:cc="http://creativecommons.org/ns#" xmlns:xlink="http://www.w3.org/1999/xlink" xmlns:dc="http://purl.org/dc/elements/1.1/">
 <defs id="defs2438">
  <clipPath id="clipPath3985" clipPathUnits="userSpaceOnUse">
   <path id="path3987" style="block-progression:tb;text-indent:0;color:#000000;text-transform:none;fill:#3465a4" d="m309 233c-0.53578 0-1 0.46422-1 1l-0.00005 8h-1c-0.3277 0-0.58618 0.18225-0.75 0.375-0.1489 0.17519-0.22283 0.39373-0.21875 0.65625h-0.0312v0.0312c0.00073 0.0115-0.001 0.0195 0 0.0312l1 26.969v0.0312c0.0279 0.29662 0.18255 0.47236 0.34375 0.625s0.34482 0.28259 0.65625 0.28125h40c0.31123 0.001 0.49504-0.12858 0.65625-0.28125s0.31581-0.32853 0.34375-0.625v-0.0312l0.99995-26.969v-0.0312c0.001-0.013-0.00069-0.0186 0-0.0312 0.0177-0.32247-0.12059-0.51812-0.28125-0.6875-0.16696-0.17602-0.38333-0.34519-0.71875-0.34375h-1l0.00005-4c0.00001-0.53578-0.46422-1-1-1h-15c-1.9888 0-3.0024-1.0024-4-2-0.99755-0.99755-2.0133-2-4-2h-15z"/>
  </clipPath>
  <linearGradient id="linearGradient3991" y2="255" gradientUnits="userSpaceOnUse" y1="243" x2="328" x1="328">
   <stop id="stop11344" style="stop-color:#fff" offset="0"/>
   <stop id="stop11346" style="stop-color:#fff;stop-opacity:0" offset="1"/>
  </linearGradient>
  <clipPath id="clipPath3995" clipPathUnits="userSpaceOnUse">
   <path id="path3997" style="block-progression:tb;text-indent:0;color:#000000;text-transform:none;fill:url(#linearGradient3999)" d="m306 242.09 1 27c0.0463 0.49158 0.50624 0.90838 1 0.90625h40c0.49376 0.002 0.95367-0.41467 1-0.90625l1-27c0.0521-0.5539-0.44366-1.0961-1-1.0938h-42c-0.60937 0-1.0514 0.56975-1 1.0938z"/>
  </clipPath>
  <linearGradient id="linearGradient5271" y2="276" gradientUnits="userSpaceOnUse" y1="228" gradientTransform="translate(-304 -228)" x2="352" x1="352">
   <stop id="stop4970" style="stop-color:#f1e6f4" offset="0"/>
   <stop id="stop4972" style="stop-color:#c9bcce" offset="1"/>
  </linearGradient>
  <linearGradient id="linearGradient5274" y2="260" gradientUnits="userSpaceOnUse" y1="240" gradientTransform="translate(-304 -236)" x2="328" x1="328">
   <stop id="stop11361" style="stop-color:#d5cbd7" offset="0"/>
   <stop id="stop11363" style="stop-color:#d9bfdf" offset="1"/>
  </linearGradient>
 </defs>
 <metadata id="metadata2441">
  <rdf:RDF>
   <cc:Work rdf:about="">
    <dc:format>image/svg+xml</dc:format>
    <dc:type rdf:resource="http://purl.org/dc/dcmitype/StillImage"/>
    <dc:title/>
   </cc:Work>
  </rdf:RDF>
 </metadata>
 <g id="layer1">
  <path id="path13868" style="opacity:.2;block-progression:tb;text-indent:0;color:#000000;text-transform:none" d="m3 16.5c-0.29771 0-0.52077 0.31947-0.5 0.53125v0.0312l1 24.969c0.0198 0.21007 0.28895 0.46966 0.5 0.46875h40c0.21122 0.00086 0.4802-0.25864 0.5-0.46875l1-24.969v-0.0312c0.0216-0.22918-0.26981-0.53224-0.5-0.53125h-42z"/>
  <path id="rect11352" style="color:#000000;fill:url(#linearGradient5274)" d="m5 4.5c-0.28565 0-0.5 0.21435-0.5 0.5v18c0 0.28565 0.21435 0.5 0.5 0.5h38c0.28565 0 0.5-0.21435 0.5-0.5v-14c0-0.28565-0.21435-0.5-0.5-0.5h-15c-2.1667 0-3.3438-1.1562-4.3438-2.1562s-1.8229-1.8438-3.6562-1.8438h-15z"/>
  <path id="path10548" style="block-progression:tb;text-indent:0;color:#000000;text-transform:none;fill:url(#linearGradient5271)" d="m3 13.5c-0.29771 0-0.52077 0.31947-0.5 0.53125v0.0312l1 26.969c0.0198 0.21007 0.28895 0.46966 0.5 0.46875h40c0.21122 0.00086 0.4802-0.25864 0.5-0.46875l0.99995-26.969v-0.0312c0.0216-0.22918-0.26981-0.53224-0.5-0.53125z"/>
  <path id="path11392" style="block-progression:tb;text-indent:0;color:#000000;text-transform:none;fill:none" d="m2.9062 15c-0.5244 0.047-0.9576 0.57-0.9062 1.094l1 23.906c0.0463 0.49158 0.50624 0.90838 1 0.90625h40c0.49376 0.002 0.95367-0.41467 1-0.90625l1-23.906c0.0521-0.5539-0.44366-1.0961-1-1.0938h-42c-0.0312-0.001-0.0625-0.001-0.0937 0z"/>
  <path id="path11814" style="opacity:.2;block-progression:tb;text-indent:0;color:#000000;stroke:url(#linearGradient3991);stroke-width:4;text-transform:none;fill:none" clip-path="url(#clipPath3995)" transform="translate(-304 -228)" d="m306 242.09 1 27c0.0463 0.49158 0.50624 0.90838 1 0.90625h40c0.49376 0.002 0.95367-0.41467 1-0.90625l1-27c0.0521-0.5539-0.44366-1.0961-1-1.0938h-42c-0.60937 0-1.0514 0.56975-1 1.0938z"/>
  <path id="path12028" style="opacity:0.41;block-progression:tb;text-indent:0;color:#000000;stroke:#141414;stroke-width:2;text-transform:none;fill:none" transform="translate(-304 -229)" d="m309 233c-0.53578 0-1 0.46422-1 1l-0.00005 8h-1c-0.3277 0-0.58618 0.18225-0.75 0.375-0.1489 0.17519-0.22283 0.39373-0.21875 0.65625h-0.0312v0.0312c0.00073 0.0115-0.001 0.0195 0 0.0312l1 26.969v0.0312c0.0279 0.29662 0.18255 0.47236 0.34375 0.625s0.34482 0.28259 0.65625 0.28125h40c0.31123 0.001 0.49504-0.12858 0.65625-0.28125s0.31581-0.32853 0.34375-0.625v-0.0312l0.99995-26.969v-0.0312c0.001-0.013-0.00069-0.0186 0-0.0312 0.0177-0.32247-0.12059-0.51812-0.28125-0.6875-0.16696-0.17602-0.38333-0.34519-0.71875-0.34375h-1l0.00005-4c0.00001-0.53578-0.46422-1-1-1h-15c-1.9888 0-3.0024-1.0024-4-2-0.99755-0.99755-2.0133-2-4-2h-15z" clip-path="url(#clipPath3985)"/>
  <rect id="rect12034" style="opacity:0.41;color:#000000" height="1" width="38" y="13" x="5"/>
 </g>
 <g id="layer2">
  <path id="path3217" style="opacity:.3;block-progression:tb;text-indent:0;color:#000000;text-transform:none;fill:#fff" d="m16 22c-0.554 0-1 0.446-1 1v12c0 0.554 0.446 1 1 1h12c0.554 0 1-0.446 1-1v-4.5625l3.2812 3.2812c0.231 0.235 0.583 0.344 0.907 0.281h0.812v-0.812c0.004-0.05198 0.004-0.10427 0-0.15625 0.00016-0.01042 0.00016-0.02083 0-0.03125v-8c0.001-0.03123 0.001-0.06252 0-0.09375v-0.906h-0.812-0.188c-0.0416-0.0026-0.0834-0.0026-0.125 0-0.22185 0.02398-0.43465 0.12479-0.59375 0.28125l-3.281 3.281v-4.562c0-0.554-0.446-1-1-1zm0 1h12v12h-12zm17 2v8l-4-4z"/>
  <path id="path5906" style="opacity:.4;block-progression:tb;text-indent:0;color:#000000;text-transform:none" d="m16 21c-0.554 0-1 0.446-1 1v12c0 0.554 0.446 1 1 1h12c0.554 0 1-0.446 1-1v-4.5625l3.2812 3.2812c0.231 0.235 0.583 0.344 0.907 0.281h0.812v-0.812c0.004-0.05198 0.004-0.10427 0-0.15625 0.00016-0.01042 0.00016-0.02083 0-0.03125v-8c0.001-0.03123 0.001-0.06252 0-0.09375v-0.906h-0.812-0.188c-0.0416-0.0026-0.0834-0.0026-0.125 0-0.22185 0.02398-0.43465 0.12479-0.59375 0.28125l-3.281 3.281v-4.562c0-0.554-0.446-1-1-1zm0 1h12v12h-12zm17 2v8l-4-4z"/>
 </g>
</svg>
