<?xml version="1.0" encoding="UTF-8" standalone="no"?>
<svg id="svg2436" xmlns:rdf="http://www.w3.org/1999/02/22-rdf-syntax-ns#" xmlns="http://www.w3.org/2000/svg" height="48" width="48" version="1.1" xmlns:cc="http://creativecommons.org/ns#" xmlns:xlink="http://www.w3.org/1999/xlink" xmlns:dc="http://purl.org/dc/elements/1.1/">
 <defs id="defs2438">
  <linearGradient id="linearGradient3991" y2="255" gradientUnits="userSpaceOnUse" y1="243" x2="328" x1="328">
   <stop id="stop11344" style="stop-color:#fff" offset="0"/>
   <stop id="stop11346" style="stop-color:#fff;stop-opacity:0" offset="1"/>
  </linearGradient>
  <clipPath id="clipPath3995" clipPathUnits="userSpaceOnUse">
   <path id="path3997" style="block-progression:tb;text-indent:0;color:#000000;text-transform:none;fill:url(#linearGradient3999)" d="m306 242.09 1 27c0.0463 0.49158 0.50624 0.90838 1 0.90625h40c0.49376 0.002 0.95367-0.41467 1-0.90625l1-27c0.0521-0.5539-0.44366-1.0961-1-1.0938h-42c-0.60937 0-1.0514 0.56975-1 1.0938z"/>
  </clipPath>
  <linearGradient id="linearGradient5271" y2="276" gradientUnits="userSpaceOnUse" y1="228" gradientTransform="translate(-304 -228)" x2="352" x1="352">
   <stop id="stop4970" style="stop-color:#f1e6f4" offset="0"/>
   <stop id="stop4972" style="stop-color:#c9bcce" offset="1"/>
  </linearGradient>
  <linearGradient id="linearGradient5274" y2="260" gradientUnits="userSpaceOnUse" y1="240" gradientTransform="translate(-304 -236)" x2="328" x1="328">
   <stop id="stop11361" style="stop-color:#d5cbd7" offset="0"/>
   <stop id="stop11363" style="stop-color:#d9bfdf" offset="1"/>
  </linearGradient>
  <linearGradient id="linearGradient3960">
   <stop id="stop3962" style="stop-opacity:0" offset="0"/>
   <stop id="stop3970" offset=".5"/>
   <stop id="stop3964" style="stop-opacity:0" offset="1"/>
  </linearGradient>
  <linearGradient id="linearGradient3952">
   <stop id="stop3954" offset="0"/>
   <stop id="stop3956" style="stop-opacity:0" offset="1"/>
  </linearGradient>
  <linearGradient id="linearGradient3156" y2="42" xlink:href="#linearGradient3960" gradientUnits="userSpaceOnUse" y1="45" gradientTransform="translate(-4 -2.5)" x2="25" x1="25"/>
  <radialGradient id="radialGradient3158" gradientUnits="userSpaceOnUse" xlink:href="#linearGradient3952" cx="40" cy="43.5" r="2" gradientTransform="matrix(1 0 0 .75 3 8.375)"/>
  <radialGradient id="radialGradient3160" gradientUnits="userSpaceOnUse" xlink:href="#linearGradient3952" cx="9" cy="43.5" r="2" gradientTransform="matrix(1 0 0 .75 -4 8.375)"/>
  <linearGradient id="linearGradient3162" y2="42" xlink:href="#linearGradient3960" gradientUnits="userSpaceOnUse" y1="45" gradientTransform="matrix(1.0571 0 0 1.6667 -5.4 -31.5)" x2="25" x1="25"/>
  <radialGradient id="radialGradient3164" gradientUnits="userSpaceOnUse" xlink:href="#linearGradient3952" cx="40" cy="43.5" r="2" gradientTransform="matrix(1.0571 0 0 1.25 1.6 -13.375)"/>
  <radialGradient id="radialGradient3166" gradientUnits="userSpaceOnUse" xlink:href="#linearGradient3952" cx="9" cy="43.5" r="2" gradientTransform="matrix(1.0571 0 0 1.25 -5.4 -13.375)"/>
 </defs>
 <metadata id="metadata2441">
  <rdf:RDF>
   <cc:Work rdf:about="">
    <dc:format>image/svg+xml</dc:format>
    <dc:type rdf:resource="http://purl.org/dc/dcmitype/StillImage"/>
    <dc:title/>
   </cc:Work>
  </rdf:RDF>
 </metadata>
 <g id="g3151" style="opacity:.2" transform="translate(2e-7 .49995)">
  <path id="rect3985" style="fill:url(#linearGradient3162)" d="m4.1143 38.5h39.772v5h-39.772z"/>
  <path id="path3987-6" style="fill:url(#radialGradient3164)" d="m43.886 38.5v5h0.52857c0.87849 0 1.5857-1.115 1.5857-2.5s-0.70723-2.5-1.5857-2.5h-0.52857z"/>
  <path id="path3989" style="fill:url(#radialGradient3166)" d="m3.4866 38.5c-0.82358 0-1.4866 1.0453-1.4866 2.3438v0.3125c0 1.2984 0.66303 2.3438 1.4866 2.3438h0.62768v-5h-0.62768z"/>
 </g>
 <g id="g3146" style="opacity:.2" transform="translate(0 .5)">
  <path id="rect3938" style="fill:url(#linearGradient3156)" d="m5 39.5h38v3h-38z"/>
  <path id="rect3940" style="fill:url(#radialGradient3158)" d="m43 39.5v3h0.5c0.831 0 1.5-0.669 1.5-1.5s-0.669-1.5-1.5-1.5h-0.5z"/>
  <path id="rect3942" style="fill:url(#radialGradient3160)" d="m4.4062 39.5c-0.77906 0-1.4062 0.62719-1.4062 1.4062v0.1875c0 0.77906 0.62719 1.4062 1.4062 1.4062h0.59375v-3h-0.59375z"/>
 </g>
 <path id="rect11352" style="color:#000000;fill:url(#linearGradient5274)" d="m5 4.5c-0.28565 0-0.5 0.21435-0.5 0.5v18c0 0.28565 0.21435 0.5 0.5 0.5h38c0.28565 0 0.5-0.21435 0.5-0.5v-14c0-0.28565-0.21435-0.5-0.5-0.5h-15c-2.1667 0-3.3438-1.1562-4.3438-2.1562s-1.8229-1.8438-3.6562-1.8438h-15z"/>
 <path id="path3787" style="opacity:.41;color:#000000;stroke:#000;fill:none" d="m5 4.5c-0.28565 0-0.5 0.21435-0.5 0.5v18c0 0.28565 0.21435 0.5 0.5 0.5h38c0.28565 0 0.5-0.21435 0.5-0.5v-14c0-0.28565-0.21435-0.5-0.5-0.5h-15c-2.1667 0-3.3438-1.1562-4.3438-2.1562s-1.8229-1.8438-3.6562-1.8438h-15z"/>
 <path id="path10548" style="block-progression:tb;text-indent:0;color:#000000;text-transform:none;fill:url(#linearGradient5271)" d="m3 13.5c-0.29771 0-0.52077 0.31947-0.5 0.53125v0.0312l1 26.969c0.0198 0.21007 0.28895 0.46966 0.5 0.46875h40c0.21122 0.00086 0.4802-0.25864 0.5-0.46875l0.99995-26.969v-0.0312c0.0216-0.22918-0.26981-0.53224-0.5-0.53125z"/>
 <path id="path11392" style="block-progression:tb;text-indent:0;color:#000000;text-transform:none;fill:none" d="m2.9062 15c-0.5244 0.047-0.9576 0.57-0.9062 1.094l1 23.906c0.0463 0.49158 0.50624 0.90838 1 0.90625h40c0.49376 0.002 0.95367-0.41467 1-0.90625l1-23.906c0.0521-0.5539-0.44366-1.0961-1-1.0938h-42c-0.0312-0.001-0.0625-0.001-0.0937 0z"/>
 <path id="path11814" style="opacity:.2;block-progression:tb;text-indent:0;color:#000000;stroke:url(#linearGradient3991);stroke-width:4;text-transform:none;fill:none" clip-path="url(#clipPath3995)" transform="translate(-304 -228)" d="m306 242.09 1 27c0.0463 0.49158 0.50624 0.90838 1 0.90625h40c0.49376 0.002 0.95367-0.41467 1-0.90625l1-27c0.0521-0.5539-0.44366-1.0961-1-1.0938h-42c-0.60937 0-1.0514 0.56975-1 1.0938z"/>
 <path id="path3789" style="opacity:.41;block-progression:tb;text-indent:0;color:#000000;stroke:#000;text-transform:none;fill:none" d="m3 13.5c-0.29771 0-0.52077 0.31947-0.5 0.53125v0.0312l1 26.969c0.0198 0.21007 0.28895 0.46966 0.5 0.46875h40c0.21122 0.00086 0.4802-0.25864 0.5-0.46875l0.99995-26.969v-0.0312c0.0216-0.22918-0.26981-0.53224-0.5-0.53125z"/>
</svg>
