<?xml version="1.0" encoding="UTF-8" standalone="no"?>
<svg xmlns="http://www.w3.org/2000/svg" height="16" version="1.1" width="16">
 <g transform="translate(-441.0002,143)">
  <g style="enable-background:new" transform="matrix(0.85714285,0,0,0.85714285,442.14306,-141.85714)">
   <g transform="matrix(0.87499999,0,0,0.87499999,-286.875,-469.19192)">
    <g transform="matrix(1.3427307,0,0,1.3427307,337.7703,-854.80506)">
     <g transform="translate(-401.01229,510.63371)">
      <g transform="translate(5.05585,-5.251147)">
       <g transform="translate(-11.317,5.8824915)">
        <g transform="translate(1.8733025,-0.28410538)">
         <g transform="translate(-2.0518724,-0.97858527)">
          <g transform="translate(0.22097092,0.44194173)">
           <g transform="translate(1.3573925,-1.2626907)">
            <g transform="translate(-0.41037448,-0.59977801)">
             <g transform="matrix(0.7863692,0,0,0.78394543,92.594038,111.881)">
              <g transform="matrix(1.2716673,0,0,1.275599,-114.25636,-140.42007)">
               <g transform="matrix(0.7863692,0,0,0.78394543,93.325829,112.35451)">
                <g transform="matrix(1.2716673,0,0,1.275599,-124.33958,-145.6548)">
                 <g transform="translate(2.9673242,4.7350927)">
                  <g transform="translate(0.03156729,-1.894036)">
                   <g transform="translate(-1.3573925,-0.63134534)">
                    <g style="fill:#4d4d4d;fill-opacity:1;" transform="matrix(0.7863692,0,0,0.78394543,92.825954,112.35451)">
                     <g transform="matrix(-0.01228611,0,0,0.01232408,428.13296,559.84314)" style="fill:#4d4d4d;fill-opacity:1;">
                      <g transform="matrix(-7.0732846,0,0,7.0017718,2712.2317,-7878.2911)" style="fill:#4d4d4d;fill-opacity:1;">
                       <g transform="matrix(-0.14221664,0,0,0.14366922,646.51536,1157.0261)" style="fill:#4d4d4d;fill-opacity:1;">
                        <g transform="matrix(-7.0732846,0,0,7.0017718,2712.2317,-7878.2911)" style="fill:#4d4d4d;fill-opacity:1;">
                         <g style="fill:#4d4d4d;fill-opacity:1;" transform="matrix(0.11770342,0,0,0.11770342,-131.56937,724.00624)">
                          <g transform="matrix(2.4074013,0,0,2.4319895,-456.62221,197.91631)" style="opacity:0.98999999;fill:#4d4d4d;fill-opacity:1;">
                           <g style="fill:#4d4d4d;fill-opacity:1;">
                            <g style="fill:#4d4d4d;fill-opacity:1;">
                             <path style="fill:#f67d42;fill-opacity:1;" d="m -39.693359,3.7988281 c -0.808153,0 -1.576776,0.1600842 -2.314453,0.4765625 -1.465323,0.6284959 -2.538343,1.6944308 -3.167969,3.1621094 -0.315505,0.7353002 -0.46875,1.5043476 -0.46875,2.3125 0,0.808308 0.153245,1.584856 0.46875,2.320312 0.629626,1.467679 1.702782,2.539318 3.167969,3.167969 0.737813,0.316479 1.50628,0.476563 2.314453,0.476563 0.808172,0 1.581934,-0.16176 2.320312,-0.476563 1.477556,-0.63019 2.545176,-1.702783 3.173828,-3.167969 0.316459,-0.737813 0.476563,-1.512004 0.476563,-2.320312 0,-0.8081524 -0.159948,-1.5747064 -0.476563,-2.3125 -0.628516,-1.4653216 -1.696272,-2.5319383 -3.173828,-3.1621094 -0.738495,-0.3149589 -1.512023,-0.4765625 -2.320312,-0.4765625 z M -40.0625,5.984375 c 0.303946,0 0.552734,0.2487877 0.552734,0.5527344 l 0,3.7851566 L -37.363281,12 c 0.248683,0.184221 0.285783,0.533954 0.101562,0.773438 -0.101326,0.138157 -0.267805,0.210937 -0.433593,0.210937 -0.119726,0 -0.238518,-0.04545 -0.339844,-0.119141 l -2.367188,-1.841796 c -0.128958,-0.101327 -0.21289,-0.258606 -0.21289,-0.433594 l 0,-4.0527346 c 0,-0.3039467 0.248788,-0.5527344 0.552734,-0.5527344 z" transform="matrix(51.336807,0,0,51.336852,1903.6669,-278.31177)"/>
                            </g>
                           </g>
                          </g>
                         </g>
                        </g>
                       </g>
                      </g>
                     </g>
                    </g>
                   </g>
                  </g>
                 </g>
                </g>
               </g>
              </g>
             </g>
            </g>
           </g>
          </g>
         </g>
        </g>
       </g>
      </g>
     </g>
    </g>
   </g>
  </g>
 </g>
</svg>
