<?xml version="1.0" encoding="UTF-8" standalone="no"?>
<svg xmlns="http://www.w3.org/2000/svg" version="1.1" width="24" height="24">
 <g transform="translate(1.137745,0.2)" style="fill:#000000;fill-opacity:1">
  <g transform="matrix(0.15,0,0,0.15,0.7,5.8)" style="fill:#4d4d4d;fill-opacity:1">
   <path d="m 64,48 0,0 -8,0 0,-16 8,0 C 72.836,32 80,24.836 80,16 80,7.164 72.836,0 64,0 55.163,0 48,7.164 48,16 l 0,8 -16,0 0,-8 C 32,7.164 24.836,0 16,0 7.164,0 0,7.164 0,16 0,24.836 7.164,32 16,32 l 8,0 0,16 -8,0 0,0 0,0 C 7.164,48 0,55.164 0,64 c 0,8.836 7.164,16 16,16 8.837,0 16,-7.164 16,-16 l 0,0 0,-8 16,0 0,7.98 c 0,0.008 -10e-4,0.014 -10e-4,0.02 0,8.836 7.164,16 16,16 8.836,0 16,-7.164 16,-16 C 79.999,55.164 72.836,48.002 64,48 Z M 64,8 c 4.418,0 8,3.582 8,8 0,4.418 -3.582,8 -8,8 l -8,0 0,-8 c 0,-4.418 3.582,-8 8,-8 z M 8,16 c 0,-4.418 3.582,-8 8,-8 4.418,0 8,3.582 8,8 l 0,8 -8,0 C 11.582,24 8,20.417 8,16 Z m 8,56 c -4.418,0 -8,-3.582 -8,-8 0,-4.418 3.582,-8 8,-8 l 0,0 8,0 0,8 c 0,4.418 -3.582,8 -8,8 z m 16,-24 0,-16 16,0 0,16 -16,0 z m 32,24 c -4.418,0 -8,-3.582 -8,-8 l 0,0 0,-8 7.999,0 c 4.418,0 8,3.582 8,8 0,4.418 -3.581,8 -7.999,8 z" style="fill:#4d4d4d;fill-opacity:1"/>
  </g>
  <path style="opacity:1;fill:#4d4d4d;fill-opacity:1;fill-rule:evenodd;" d="m 16.160214,6.9659018 0,0.3663868 -0.99655,0 c -0.256987,0 -0.466664,0.2089169 -0.466664,0.4670531 l 0,9.0529943 c 0,0.257747 0.209677,0.466664 0.466664,0.466664 l 5.394182,0 c 0.258136,0 0.466664,-0.208917 0.466664,-0.466664 l 0,-9.0529943 c 0,-0.2581185 -0.208917,-0.4666642 -0.466664,-0.4666642 l -0.957195,0 0,-0.3663691 c 0,-0.2581185 -0.207786,-0.4666641 -0.466665,-0.4666641 l -2.506719,0 c -0.258119,-4.067e-4 -0.467053,0.2081389 -0.467053,0.4662575 z"/>
 </g>
</svg>
