<?xml version="1.0" encoding="UTF-8" standalone="no"?>
<svg xmlns="http://www.w3.org/2000/svg" version="1.1" width="24" height="24">
 <g transform="translate(1.137745,0.2)" style="fill:#000000;fill-opacity:1">
  <g transform="matrix(0.15,0,0,0.15,0.7,5.8)" style="fill:#4d4d4d;fill-opacity:1">
   <path d="m 64,48 0,0 -8,0 0,-16 8,0 C 72.836,32 80,24.836 80,16 80,7.164 72.836,0 64,0 55.163,0 48,7.164 48,16 l 0,8 -16,0 0,-8 C 32,7.164 24.836,0 16,0 7.164,0 0,7.164 0,16 0,24.836 7.164,32 16,32 l 8,0 0,16 -8,0 0,0 0,0 C 7.164,48 0,55.164 0,64 c 0,8.836 7.164,16 16,16 8.837,0 16,-7.164 16,-16 l 0,0 0,-8 16,0 0,7.98 c 0,0.008 -10e-4,0.014 -10e-4,0.02 0,8.836 7.164,16 16,16 8.836,0 16,-7.164 16,-16 C 79.999,55.164 72.836,48.002 64,48 Z M 64,8 c 4.418,0 8,3.582 8,8 0,4.418 -3.582,8 -8,8 l -8,0 0,-8 c 0,-4.418 3.582,-8 8,-8 z M 8,16 c 0,-4.418 3.582,-8 8,-8 4.418,0 8,3.582 8,8 l 0,8 -8,0 C 11.582,24 8,20.417 8,16 Z m 8,56 c -4.418,0 -8,-3.582 -8,-8 0,-4.418 3.582,-8 8,-8 l 0,0 8,0 0,8 c 0,4.418 -3.582,8 -8,8 z m 16,-24 0,-16 16,0 0,16 -16,0 z m 32,24 c -4.418,0 -8,-3.582 -8,-8 l 0,0 0,-8 7.999,0 c 4.418,0 8,3.582 8,8 0,4.418 -3.581,8 -7.999,8 z" style="fill:#4d4d4d;fill-opacity:1"/>
  </g>
  <g transform="matrix(0,-0.01767935,0.01767935,0,13.135858,39.970882)" style="fill:#d33636;fill-opacity:1">
   <g transform="translate(-454.75704,388.75255)" style="fill:#d33636;fill-opacity:1">
    <path style="fill:#d33636;fill-opacity:1" d="m 2321.6232,-217.68542 -20.724,0 0,-56.368 c 0,-14.536 -11.817,-26.396 -26.418,-26.396 l -512.066,0 c -14.579,0 -26.396,11.86 -26.396,26.396 l 0,305.112002 c 0,14.601 11.817,26.396 26.396,26.396 l 512.066,0 c 14.6,0 26.396,-11.817 26.396,-26.396 l 0,-54.142 20.723,0 c 14.6,0 26.396,-11.753 26.396,-26.396 l 0,-141.788002 c 0.023,-14.6 -11.773,-26.418 -26.373,-26.418 z"/>
   </g>
  </g>
 </g>
</svg>
