<?xml version="1.0" encoding="UTF-8" standalone="no"?>
<svg style="enable-background:new" xmlns="http://www.w3.org/2000/svg" height="16" width="16" version="1.1">
 <title>
  Paper Symbolic Icon Theme
 </title>
 <g transform="translate(-425 295)">
  <g style="fill:#bebebe" transform="matrix(-1 0 0 1 482 -572)">
   <path style="fill:#555" transform="translate(-135 61)" d="m180 219c-1.6447 0-3 1.3553-3 3v4c0 1.6447 1.3553 3 3 3h1 0.65625 3.3438 3c1.6447 0 3-1.3553 3-3v-4c0-1.6447-1.3553-3-3-3h-0.25-0.75v0.5 1 0.5h0.75 0.25c0.5713 0 1 0.4287 1 1v4c0 0.5713-0.4287 1-1 1h-3-3.3438-0.65625-1c-0.5713 0-1-0.4287-1-1v-4c0-0.5713 0.4287-1 1-1h3v-2h-3z"/>
  </g>
  <path style="fill:#555" d="m431-291 4-3v6z"/>
 </g>
</svg>
