<?xml version="1.0" encoding="UTF-8" standalone="no"?>
<svg xmlns="http://www.w3.org/2000/svg" height="16" style="enable-background:new" version="1.1" width="16">
 <title>
  Paper Symbolic Icon Theme
 </title>
 <g transform="translate(-364.99759,251)">
  <g transform="matrix(0.67670712,0,0,0.67670712,364.8771,-251.12048)" style="fill:#565656;fill-opacity:0.34901961">
   <g transform="matrix(1.2273584,0,0,1.2273584,-401.61497,-657.18424)" style="fill:#565656;fill-opacity:0.34901961;">
    <g style="fill:#565656;fill-opacity:0.34901961;" transform="matrix(0.11545321,0,0,0.11545321,328.568,537.94962)">
     <path style="fill:#565656;fill-opacity:0.34901961;" d="m 143.721,86.139 c -1.521,-1.521 -3.367,-2.281 -5.541,-2.281 l -7.82,0 0,-15.644 c 0,-2.824 -1.033,-5.269 -3.096,-7.332 -2.064,-2.065 -4.51,-3.097 -7.334,-3.097 l -41.714,0 0,-15.643 7.82,0 c 2.174,0 4.021,-0.76 5.541,-2.281 1.521,-1.52 2.28,-3.367 2.28,-5.54 l 0,-26.071 c 0,-2.173 -0.76,-4.02 -2.28,-5.54 C 90.056,1.189 88.21,0.429 86.036,0.429 l -26.071,0 c -2.173,0 -4.019,0.76 -5.54,2.281 -1.521,1.52 -2.281,3.367 -2.281,5.54 l 0,26.071 c 0,2.173 0.76,4.019 2.281,5.54 1.52,1.521 3.367,2.281 5.54,2.281 l 7.821,0 0,15.643 -41.714,0 c -2.825,0 -5.269,1.033 -7.333,3.097 -2.064,2.063 -3.096,4.508 -3.096,7.332 l 0,15.644 -7.822,0 c -2.172,0 -4.019,0.761 -5.54,2.281 C 0.76,87.659 0,89.506 0,91.679 l 0,26.071 c 0,2.173 0.76,4.02 2.281,5.54 1.521,1.521 3.368,2.281 5.54,2.281 l 26.072,0 c 2.172,0 4.019,-0.761 5.54,-2.281 1.521,-1.52 2.281,-3.367 2.281,-5.54 l 0,-26.071 c 0,-2.173 -0.76,-4.019 -2.281,-5.54 -1.521,-1.521 -3.368,-2.281 -5.54,-2.281 l -7.822,0 0,-15.644 41.714,0 0,15.644 -7.821,0 c -2.173,0 -4.019,0.761 -5.54,2.281 -1.521,1.52 -2.281,3.367 -2.281,5.54 l 0,26.071 c 0,2.173 0.76,4.02 2.281,5.54 1.52,1.521 3.367,2.281 5.54,2.281 l 26.071,0 c 2.174,0 4.02,-0.761 5.541,-2.281 1.52,-1.521 2.281,-3.367 2.281,-5.54 l 0,-26.071 c 0,-2.173 -0.76,-4.019 -2.281,-5.54 -1.521,-1.521 -3.367,-2.281 -5.541,-2.281 l -7.82,0 0,-15.644 41.715,0 0,15.644 -7.822,0 c -2.172,0 -4.02,0.761 -5.541,2.281 -1.52,1.521 -2.28,3.367 -2.28,5.54 l 0,26.071 c 0,2.173 0.76,4.02 2.28,5.54 1.521,1.521 3.369,2.281 5.541,2.281 l 26.072,0 c 2.172,0 4.018,-0.761 5.539,-2.281 1.521,-1.52 2.281,-3.367 2.281,-5.54 l 0,-26.071 c 0,-2.173 -0.76,-4.02 -2.279,-5.54 l 0,0 z"/>
    </g>
   </g>
  </g>
  <g style="fill:#4d4d4d;fill-opacity:1;enable-background:new" transform="matrix(0.5200469,0,0,-0.5200469,369.01954,-236.15696)">
   <g transform="matrix(0.875,0,0,0.875,-478.12498,-651.69189)" style="fill:#4d4d4d;fill-opacity:1">
    <g transform="translate(217.57141,209.57139)" style="fill:#4d4d4d;fill-opacity:1">
     <g transform="matrix(0.66666667,0,0,0.66666667,70.952371,189.83022)" style="fill:#4d4d4d;fill-opacity:1">
      <path style="opacity:1;fill:#e74c3c;fill-opacity:1;fill-rule:evenodd;" d="m 11,3 a 8,8 0 0 0 -8,8 8,8 0 0 0 8,8 8,8 0 0 0 8,-8 8,8 0 0 0 -8,-8 z m -0.199219,3.5 a 1,1 0 0 1 1,1 1,1 0 0 1 -1,1 1,1 0 0 1 -0.9999998,-1 1,1 0 0 1 0.9999998,-1 z m -0.107422,3 0.212891,0 c 0.356143,0 0.644531,0.2864351 0.644531,0.642578 l 0,4.714844 c 0,0.356143 -0.288388,0.642578 -0.644531,0.642578 l -0.212891,0 c -0.356143,0 -0.642578,-0.286435 -0.642578,-0.642578 l 0,-4.714844 C 10.050781,9.7864351 10.337216,9.5 10.693359,9.5 Z" transform="matrix(1.5,0,0,1.5,384.07144,515.29797)"/>
     </g>
    </g>
   </g>
  </g>
 </g>
</svg>
