<svg viewBox="0 0 24 24" xmlns="http://www.w3.org/2000/svg">
 <path d="m6.546 7.07c0 0 0 0 .001 0h1.529c.088 0 .158-.071.158-.157 0-.001-.019-1.296-.019-1.657v-.004c0-.296.063-.554.172-.77l.052-.097c-.006.001-.012.004-.018.01l-2.971 2.913c-.006.005-.009.011-.011.017.061-.03.145-.071.157-.076.259-.115.572-.179.948-.179zm11.897-.317c-.121-.643-.508-.96-.857-1.084-.377-.135-1.142-.274-2.102-.386-.773-.09-1.681-.083-2.23-.066-.066-.446-.382-.853-.736-.994-.943-.375-2.4-.285-2.774-.181-.297.082-.626.251-.81.51-.123.173-.202.395-.203.706 0 .176.005.589.009.957.005.369.009.698.009.7 0 .328-.269.595-.602.596h-1.529c-.326 0-.575.054-.766.14-.191.086-.326.201-.428.338-.204.271-.24.606-.239.947 0 0 .003.279.071.819.057.418.515 3.337.95 4.224.169.345.281.489.613.641.739.313 2.426.661 3.217.76.789.1 1.285.31 1.58-.302.001-.002.059-.152.139-.373.256-.768.292-1.45.292-1.943 0-.05.074-.052.074 0 0 .348-.067 1.58.874 1.911.372.13 1.142.246 1.926.337.708.08 1.222.356 1.222 2.153 0 1.093-.232 1.243-1.446 1.243-.984 0-1.359.025-1.359-.748 0-.625.625-.559 1.088-.559.207 0 .057-.152.057-.538 0-.383.243-.605.013-.611-1.601-.044-2.544-.002-2.544 1.978 0 1.798.696 2.132 2.969 2.132 1.782 0 2.41-.058 3.146-2.315.146-.446.498-1.806.711-4.089.135-1.444-.127-5.801-.335-6.901zm-3.106 4.817c-.22-.008-.432.006-.629.038.056-.444.241-.988.897-.965.726.025.828.704.831 1.163-.306-.135-.686-.221-1.099-.235z" fill="#ececec"/>
</svg>
