<?xml version="1.0" encoding="UTF-8" standalone="no"?>
<svg
   xmlns:dc="http://purl.org/dc/elements/1.1/"
   xmlns:cc="http://creativecommons.org/ns#"
   xmlns:rdf="http://www.w3.org/1999/02/22-rdf-syntax-ns#"
   xmlns:svg="http://www.w3.org/2000/svg"
   xmlns="http://www.w3.org/2000/svg"
   xmlns:sodipodi="http://sodipodi.sourceforge.net/DTD/sodipodi-0.dtd"
   xmlns:inkscape="http://www.inkscape.org/namespaces/inkscape"
   viewBox="0 0 512 512"
   id="svg2"
   version="1.1"
   inkscape:version="0.91 r13725"
   sodipodi:docname="default-network.svg">
  <metadata
     id="metadata37">
    <rdf:RDF>
      <cc:Work
         rdf:about="">
        <dc:format>image/svg+xml</dc:format>
        <dc:type
           rdf:resource="http://purl.org/dc/dcmitype/StillImage" />
      </cc:Work>
    </rdf:RDF>
  </metadata>
  <defs
     id="defs35" />
  <sodipodi:namedview
     pagecolor="#ffffff"
     bordercolor="#666666"
     borderopacity="1"
     objecttolerance="10"
     gridtolerance="10"
     guidetolerance="10"
     inkscape:pageopacity="0"
     inkscape:pageshadow="2"
     inkscape:window-width="808"
     inkscape:window-height="480"
     id="namedview33"
     showgrid="false"
     inkscape:zoom="0.4609375"
     inkscape:cx="256"
     inkscape:cy="256"
     inkscape:window-x="0"
     inkscape:window-y="0"
     inkscape:window-maximized="0"
     inkscape:current-layer="svg2" />
  <linearGradient
     id="a"
     gradientUnits="userSpaceOnUse"
     x2="0"
     y1="33.753"
     y2="471.66">
    <stop
       offset="0"
       stop-color="#6a6a6a"
       id="stop5" />
    <stop
       offset=".47"
       id="stop7" />
    <stop
       offset=".494"
       stop-color="#ffffff"
       id="stop9" />
    <stop
       offset=".901"
       stop-color="#ffffff"
       id="stop11" />
    <stop
       offset=".955"
       id="stop13" />
    <stop
       offset="1"
       id="stop15" />
  </linearGradient>
  <path
     d="m471.95 253.05c0 120.9-98.01 218.91-218.91 218.91-120.9 0-218.91-98.01-218.91-218.91 0-120.9 98.01-218.91 218.91-218.91 120.9 0 218.91 98.01 218.91 218.91"
     fill="#1793d1"
     fill-rule="evenodd"
     id="path17" />
  <path
     d="m256 1c-140.83 0-255 114.17-255 255 0 140.83 114.17 255 255 255 140.83 0 255-114.17 255-255 0-140.83-114.17-255-255-255m8.827 44.931c120.9 0 218.9 98 218.9 218.9 0 120.9-98 218.9-218.9 218.9-120.9 0-218.93-98-218.93-218.9 0-120.9 98.03-218.9 218.93-218.9"
     fill-opacity=".067"
     fill-rule="evenodd"
     id="path21" />
  <path
     d="m256 4.43c-138.94 0-251.57 112.63-251.57 251.57 0 138.94 112.63 251.57 251.57 251.57 138.94 0 251.57-112.63 251.57-251.57 0-138.94-112.63-251.57-251.57-251.57m5.885 38.556c120.9 0 218.9 98 218.9 218.9 0 120.9-98 218.9-218.9 218.9-120.9 0-218.93-98-218.93-218.9 0-120.9 98.03-218.9 218.93-218.9"
     fill-opacity=".129"
     fill-rule="evenodd"
     id="path23" />
  <path
     d="m256 8.36c-136.77 0-247.64 110.87-247.64 247.64 0 136.77 110.87 247.64 247.64 247.64 136.77 0 247.64-110.87 247.64-247.64 0-136.77-110.87-247.64-247.64-247.64m2.942 31.691c120.9 0 218.9 98 218.9 218.9 0 120.9-98 218.9-218.9 218.9-120.9 0-218.93-98-218.93-218.9 0-120.9 98.03-218.9 218.93-218.9"
     fill-opacity=".129"
     fill-rule="evenodd"
     id="path25" />
  <path
     d="m253.04 7.86c-135.42 0-245.19 109.78-245.19 245.19 0 135.42 109.78 245.19 245.19 245.19 135.42 0 245.19-109.78 245.19-245.19 0-135.42-109.78-245.19-245.19-245.19zm0 26.297c120.9 0 218.9 98 218.9 218.9 0 120.9-98 218.9-218.9 218.9-120.9 0-218.93-98-218.93-218.9 0-120.9 98.03-218.9 218.93-218.9z"
     fill="#ffffff"
     fill-rule="evenodd"
     stroke="#000000"
     stroke-opacity=".31"
     stroke-width="4.904"
     id="path27" />
  <path
     d="m204.62 151.75c-5.302 0-9.592 4.262-9.592 9.564v54.5c0 2.651 1.074 5.05 2.809 6.783l32.23 32.23h-111.06v15.09 6.932 19.547l15.09 15.09h-32c-5.302 0-9.564 4.262-9.564 9.564v29.633c0 2.651 1.065 5.04 2.793 6.77l109.07 109.07c15.646 3.551 31.926 5.436 48.646 5.436 102.67 0 188.83-70.69 212.47-166.06l-151.36-151.36c-1.728-1.728-4.12-2.795-6.771-2.795h-102.76"
     fill-rule="evenodd"
     opacity=".25"
     id="path29" />
  <path
     d="m204.62 151.75c-5.302 0-9.591 4.262-9.591 9.565v54.5c0 5.302 4.288 9.591 9.591 9.591h102.76c5.302 0 9.565-4.288 9.565-9.591v-54.5c0-5.302-4.262-9.565-9.565-9.565zm39.484 86.84v16.237h-125.1v15.09 6.932 19.546h23.12v-19.546h102.01v20.954h23.09v-20.954h101.62v21.371h23.12v-21.371-5.082-16.94h-124.73v-16.237h-23.09-.026m-142.01 72.895c-5.302 0-9.565 4.262-9.565 9.565v29.632c0 5.302 4.262 9.565 9.565 9.565h60.985c5.302 0 9.565-4.262 9.565-9.565v-29.632c0-5.302-4.262-9.565-9.565-9.565zm122.26 0c-5.302 0-9.565 4.262-9.565 9.565v29.632c0 5.302 4.262 9.565 9.565 9.565h60.985c5.302 0 9.565-4.262 9.565-9.565v-29.632c0-5.302-4.262-9.565-9.565-9.565zm124.58 0c-5.302 0-9.565 4.262-9.565 9.565v29.632c0 5.302 4.262 9.565 9.565 9.565h60.959c5.302 0 9.591-4.262 9.591-9.565v-29.632c0-5.302-4.288-9.565-9.591-9.565z"
     fill="#ffffff"
     fill-rule="evenodd"
     id="path31" />
</svg>
