<svg viewBox="0 0 512 512" xmlns="http://www.w3.org/2000/svg">
 <path d="m108.6312 57.3885c-7.963 0-15.228 2.293-20.693 6.22-4.545 3.266-7.751 7.872-8.752 13.13h-11.909c-16.447 0-29.883 13.03-29.883 29.2v66.736c0 16.17 13.436 29.19 29.883 29.19h377.47c16.447 0 29.883-13.03 29.883-29.19v-66.736c0-16.17-13.436-29.2-29.883-29.2h-262.91c-1-5.256-4.208-9.862-8.753-13.13-5.465-3.927-12.73-6.22-20.693-6.22h-43.761" fill="#cccccc" fill-rule="evenodd"/>
 <path d="m37.3612 118.4785c-19.928 0-38.06 15.818-36.23 35.853l24.26 265.41c1.733 18.966 16.271 34.947 36.2 34.947h383.41c19.933 0 34.1-16.05 36.2-34.853l29.632-265.41c1.123-10.05-3.137-19.263-9.971-25.663-6.833-6.399-16.258-10.284-26.22-10.284h-437.27" fill="#1793d1" fill-rule="evenodd"/>
 <path d="m108.5512 57.3085c-7.963 0-15.11 2.403-20.572 6.33-4.545 3.266-7.702 7.931-8.703 13.187h-12.13c-17.677 0-29.802 12.771-29.802 30.661v3.956c0-16.17 13.355-29.27 29.802-29.27h14.286c1-5.256 2-9.657 6.549-12.923 5.465-3.927 12.609-6.33 20.572-6.33h43.78c7.963 0 15.371 2.403 20.835 6.33 4.545 3.266 5.766 7.668 6.769 12.923h264.88c16.447 0 29.802 11.455 29.802 27.625v-3.956c0-16.17-13.355-29.01-29.802-29.01h-262.95c-1-5.256-4.159-9.921-8.703-13.187-5.465-3.927-12.872-6.33-20.835-6.33z" fill="#ffffff" fill-rule="evenodd" opacity=".764"/>
 <path d="m37.3512 118.4685c-19.928 0-38.05 15.84-36.22 35.875l.406 4.375c3-15.936 18.732-27.563 35.813-27.563h437.28c9.966 0 19.386 3.882 26.22 10.281 4.736 4.435 8.234 10.208 9.563 16.688l.406-3.688c1.123-10.05-3.134-19.288-9.969-25.688-6.833-6.399-16.252-10.281-26.22-10.281h-437.28" fill="#ffffff" fill-rule="evenodd" opacity=".4"/>
 <path d="m127.3012 161.5985c-25.37 0-46.02 20.39-46.02 45.787 0 25.37 20.646 46.02 46.02 46.02 25.37 0 46.02-20.646 46.02-46.02 0-25.37-20.646-45.787-46.02-45.787m257.13 0c-25.37 0-46.02 20.39-46.02 45.787 0 25.37 20.646 46.02 46.02 46.02 25.37 0 46.02-20.646 46.02-46.02 0-25.37-20.646-45.787-46.02-45.787m-128.6 25.14c-28.11 0-50.986 22.581-50.986 50.719 0 28.11 22.869 51.02 50.986 51.02 28.11 0 51.02-22.899 51.02-51.02 0-28.11-22.899-50.719-51.02-50.719m-164.49 78.17c-.971-.014-1.951.027-2.912.119-23.06 2.218-42.785 34.16-35.863 71.04l5.2 28.464h69.56 34.734c-.187-15.963 3.596-30.682 10.1-42.726 6.445-11.932 15.755-21.533 26.89-26.444-10.157-26.758-35.19-40.593-56.16-21.66-14.892 13.484-16.292 13.484-31.2 0-6.582-5.96-13.559-8.699-20.353-8.795m257.13 0c-.971-.014-1.951.027-2.912.119-13.77 1.31-26.344 13.224-32.773 30.455 6.069 2.707 11.62 6.781 16.401 11.796 12.906 13.537 20.982 34.09 20.71 57.26h34.526 69.56l5.437-28.464c9.234-49.2-29.29-89.55-59.4-62.37-14.892 13.484-16.292 13.484-31.2 0-6.582-5.96-13.559-8.699-20.353-8.795m-132.49 36.31c-1.075-.015-2.144.017-3.209.119-25.551 2.455-47.43 37.84-39.755 78.71l5.764 31.555h77.07 77.04l6.03-31.555c10.231-54.51-32.462-99.2-65.813-69.08-16.499 14.939-18.04 14.939-34.556 0-7.292-6.604-15.05-9.639-22.581-9.746" fill="#ffffff" fill-rule="evenodd"/>
</svg>
