<svg viewBox="0 0 512 512" xmlns="http://www.w3.org/2000/svg">
 <path d="m108.6312 57.3885c-7.963 0-15.228 2.293-20.693 6.22-4.545 3.266-7.751 7.872-8.752 13.13h-11.909c-16.447 0-29.883 13.03-29.883 29.2v66.736c0 16.17 13.436 29.19 29.883 29.19h377.47c16.447 0 29.883-13.03 29.883-29.19v-66.736c0-16.17-13.436-29.2-29.883-29.2h-262.91c-1-5.256-4.208-9.862-8.753-13.13-5.465-3.927-12.73-6.22-20.693-6.22h-43.761" fill="#cccccc" fill-rule="evenodd"/>
 <path d="m37.3612 118.4785c-19.928 0-38.06 15.818-36.23 35.853l24.26 265.41c1.733 18.966 16.271 34.947 36.2 34.947h383.41c19.933 0 34.1-16.05 36.2-34.853l29.632-265.41c1.123-10.05-3.137-19.263-9.971-25.663-6.833-6.399-16.258-10.284-26.22-10.284h-437.27" fill="#1793d1" fill-rule="evenodd"/>
 <path d="m108.5512 57.3085c-7.963 0-15.11 2.403-20.572 6.33-4.545 3.266-7.702 7.931-8.703 13.187h-12.13c-17.677 0-29.802 12.771-29.802 30.661v3.956c0-16.17 13.355-29.27 29.802-29.27h14.286c1-5.256 2-9.657 6.549-12.923 5.465-3.927 12.609-6.33 20.572-6.33h43.78c7.963 0 15.371 2.403 20.835 6.33 4.545 3.266 5.766 7.668 6.769 12.923h264.88c16.447 0 29.802 11.455 29.802 27.625v-3.956c0-16.17-13.355-29.01-29.802-29.01h-262.95c-1-5.256-4.159-9.921-8.703-13.187-5.465-3.927-12.872-6.33-20.835-6.33z" fill="#ffffff" fill-rule="evenodd" opacity=".764"/>
 <path d="m37.3512 118.4685c-19.928 0-38.05 15.84-36.22 35.875l.406 4.375c3-15.936 18.732-27.563 35.813-27.563h437.28c9.966 0 19.386 3.882 26.22 10.281 4.736 4.435 8.234 10.208 9.563 16.688l.406-3.688c1.123-10.05-3.134-19.288-9.969-25.688-6.833-6.399-16.252-10.281-26.22-10.281h-437.28" fill="#ffffff" fill-rule="evenodd" opacity=".4"/>
 <path d="m196.8412 150.7485c0 0 2.316 5.426-11.281 25.25-13.593 19.814-6.438 48.31-6.438 48.31l.219-.094c.159 1.411.358 2.83.656 4.25 5.215 24.846 29.592 40.746 54.44 35.531.987-.207 1.948-.485 2.906-.75l14.5-34.09 18.219-19.19c-.029-.13-.034-.276-.063-.406-1.892-9.01-6.342-16.794-12.375-22.875l.031-.031c-27.417-32.757-60.812-35.906-60.812-35.906m133.13 17.438l-25.656 24.938c5.663 4.29 14.658 9.189 27.375 11.125l-1.719-36.06m-33 32.09l-36.625 35.625c4.512 3.563 11.333 7.342 19.875 6.875l2.469-.125 1.625 1.844c.376.414 9.978 10.75 28.969 10.75h2.5l1.531 1.938c.342.419 6.791 8.362 17.438 10.438l-2.531-53.03c-16.67-2.104-28.24-8.722-35.25-14.313m-42.06 44.28l-38 89.44c2.615 3.708 6.776 8.658 13.09 13.656l42.844-95.19c-7.43-1.218-13.484-4.541-17.938-7.906m27.5 11.5l-43.875 97.44c6.158 3.688 13.678 7.111 22.813 9.813l44.31-98.44c-10.728-1.401-18.473-5.452-23.25-8.813m32.531 12.969l-43.563 96.78c6.808 1.416 14.391 2.427 22.75 2.875l39.38-90.94c-8.07-1.425-14.412-5.329-18.563-8.719m-106.12.219l14.313 26.06 10.313-24.281c-8.494 1.377-16.882.699-24.625-1.781m2.656 78.41l-14.375 33.844c-1.469 3.448.062 7.572 3.438 9.219l63.41 31.06c3.361 1.647 7.293.183 8.781-3.25l16.344-37.813c-37.947-4.598-62.39-19.1-77.59-33.06m96.91.375l-7.875 18.219.156.031-14.719 33.969c6.207 4.131 12.9 5.686 18.25 3.563 9.712-3.857 14.16-19.455 9.938-34.844z" fill="#ffffff"/>
</svg>
