<svg viewBox="0 0 512 512" xmlns="http://www.w3.org/2000/svg">
 <g fill-rule="evenodd" transform="translate(.00121 -.005)">
  <path d="m108.63 57.39c-7.963 0-15.228 2.293-20.693 6.22-4.545 3.266-7.751 7.872-8.752 13.13h-11.909c-16.447 0-29.883 13.03-29.883 29.2v66.736c0 16.17 13.436 29.19 29.883 29.19h377.47c16.447 0 29.883-13.03 29.883-29.19v-66.736c0-16.17-13.436-29.2-29.883-29.2h-262.91c-1-5.256-4.208-9.862-8.753-13.13-5.465-3.927-12.73-6.22-20.693-6.22h-43.761" fill="#cccccc"/>
  <path d="m37.36 118.48c-19.928 0-38.06 15.818-36.23 35.853l24.26 265.41c1.733 18.966 16.271 34.947 36.2 34.947h383.41c19.933 0 34.1-16.05 36.2-34.853l29.632-265.41c1.123-10.05-3.137-19.263-9.971-25.663-6.833-6.399-16.258-10.284-26.22-10.284h-437.27" fill="#1793d1"/>
 </g>
 <g fill="#ffffff" fill-rule="evenodd" transform="translate(.00121 -.005)">
  <path d="m108.55 57.31c-7.963 0-15.11 2.403-20.572 6.33-4.545 3.266-7.702 7.931-8.703 13.187h-12.13c-17.677 0-29.802 12.771-29.802 30.661v3.956c0-16.17 13.355-29.27 29.802-29.27h14.286c1-5.256 2-9.657 6.549-12.923 5.465-3.927 12.609-6.33 20.572-6.33h43.78c7.963 0 15.371 2.403 20.835 6.33 4.545 3.266 5.766 7.668 6.769 12.923h264.88c16.447 0 29.802 11.455 29.802 27.625v-3.956c0-16.17-13.355-29.01-29.802-29.01h-262.95c-1-5.256-4.159-9.921-8.703-13.187-5.465-3.927-12.872-6.33-20.835-6.33z" opacity=".764"/>
  <path d="m37.35 118.47c-19.928 0-38.05 15.84-36.22 35.875l.406 4.375c3-15.936 18.732-27.563 35.813-27.563h437.28c9.966 0 19.386 3.882 26.22 10.281 4.736 4.435 8.234 10.208 9.563 16.688l.406-3.688c1.123-10.05-3.134-19.288-9.969-25.688-6.833-6.399-16.252-10.281-26.22-10.281h-437.28" opacity=".4"/>
 </g>
 <path d="m130.9812 161.595c-9.413 0-17.06 7.616-17.06 17.03v26.07h284.16v-26.07c0-9.416-7.613-17.03-17.03-17.03h-250.03-.033m176.15 11.331c6.265 0 11.396 5.129 11.396 11.396 0 6.268-5.132 11.331-11.396 11.331-6.265 0-11.331-5.063-11.331-11.331 0-6.268 5.065-11.396 11.331-11.396m31.27 0c6.265 0 11.364 5.129 11.364 11.396 0 6.268-5.099 11.331-11.364 11.331-6.26499 0-11.331-5.063-11.331-11.331 0-6.268 5.065-11.396 11.331-11.396m31.24001 0c6.26499 0 11.36399 5.129 11.36399 11.396 0 6.268-5.099 11.331-11.36399 11.331-6.26501 0-11.36401-5.063-11.36401-11.331 0-6.268 5.099-11.396 11.36401-11.396m-255.70001 46.863v174.74c0 9.413 7.649 17.06 17.06 17.06h250c9.416 0 17.03-7.652 17.03-17.06v-174.74zm139.34 29.604h3.93 15.1 6.746l-1.801 6.484-32.29 117.86-1.015 3.799h-3.93-15.1-6.746l1.801-6.484 32.29-117.86zm-41.623 24.594v8.482 13.853 3.209l-2.882 1.408-27.12 13.361 26.919 11.789 3.078 1.343v3.373 13.787 8.02l-7.303-3.373-54.886-25.25-2.98-1.375v-3.275-8.253-3.111l2.751-1.441 54.886-28.622 7.532-3.93m88.65 0l7.532 3.93 54.886 28.622 2.751 1.441v3.111 8.253 3.275l-2.98 1.375-54.886 25.25-7.303 3.373v-8.02-13.787-3.373l3.078-1.343 26.919-11.789-27.12-13.361-2.882-1.408v-3.209-13.853-8.482" fill="#ffffff"/>
</svg>
