<?xml version="1.0" encoding="UTF-8" standalone="no"?>
<svg xmlns="http://www.w3.org/2000/svg" height="512" viewBox="0 0 512 512" width="512" version="1.1">
 <g transform="translate(349.28814 -344.94915)">
  <g fill-rule="evenodd" transform="translate(-349.28814 344.94915)">
   <path d="m471.95 253.05c0 120.9-98.01 218.91-218.91 218.91-120.9 0-218.91-98.01-218.91-218.91 0-120.9 98.01-218.91 218.91-218.91 120.9 0 218.91 98.01 218.91 218.91" fill="#1793d1"/>
   <path d="m256 1c-140.83 0-255 114.17-255 255 0 140.83 114.17 255 255 255 140.83 0 255-114.17 255-255 0-140.83-114.17-255-255-255m8.827 44.931c120.9 0 218.9 98 218.9 218.9 0 120.9-98 218.9-218.9 218.9-120.9 0-218.93-98-218.93-218.9 0-120.9 98.03-218.9 218.93-218.9" fill-opacity=".067"/>
   <g fill-opacity=".129">
    <path d="m256 4.43c-138.94 0-251.57 112.63-251.57 251.57 0 138.94 112.63 251.57 251.57 251.57 138.94 0 251.57-112.63 251.57-251.57 0-138.94-112.63-251.57-251.57-251.57m5.885 38.556c120.9 0 218.9 98 218.9 218.9 0 120.9-98 218.9-218.9 218.9-120.9 0-218.93-98-218.93-218.9 0-120.9 98.03-218.9 218.93-218.9"/>
    <path d="m256 8.36c-136.77 0-247.64 110.87-247.64 247.64 0 136.77 110.87 247.64 247.64 247.64 136.77 0 247.64-110.87 247.64-247.64 0-136.77-110.87-247.64-247.64-247.64m2.942 31.691c120.9 0 218.9 98 218.9 218.9 0 120.9-98 218.9-218.9 218.9-120.9 0-218.93-98-218.93-218.9 0-120.9 98.03-218.9 218.93-218.9"/>
   </g>
   <path d="m253.04 7.86c-135.42 0-245.19 109.78-245.19 245.19 0 135.42 109.78 245.19 245.19 245.19 135.42 0 245.19-109.78 245.19-245.19 0-135.42-109.78-245.19-245.19-245.19zm0 26.297c120.9 0 218.9 98 218.9 218.9 0 120.9-98 218.9-218.9 218.9-120.9 0-218.93-98-218.93-218.9 0-120.9 98.03-218.9 218.93-218.9z" fill="#ffffff" stroke="#000000" stroke-opacity=".31" stroke-width="4.904"/>
  </g>
  <path d="m-93.288136 434.57915c-57.756004 0-104.560004 15.446-104.560004 34.531 0 3.969 2.056 7.763 5.781 11.313.026.028.036.066.063.094.168.159.325.311.5.469.091.092.188.189.281.281.122.136.248.271.375.406.166.157.327.312.5.469.052.052.104.104.156.156.465.524.994 1.018 1.531 1.531.035.038.058.087.094.125.168.159.325.311.5.469.061.062.125.126.188.188.414.465.872.918 1.344 1.375.399.437.863.852 1.313 1.281.035.038.058.087.094.125.168.159.325.311.5.469.061.062.125.126.188.188.438.491.936.955 1.438 1.438.055.06.1.128.156.188.168.159.325.311.5.469.091.092.188.189.281.281.122.136.248.271.375.406.166.157.327.312.5.469.052.052.104.104.156.156.465.524.994 1.018 1.531 1.531.035.038.058.087.094.125.168.159.325.311.5.469.061.062.125.126.188.188.452.507.949 1 1.469 1.5.041.044.084.081.125.125.168.159.325.311.5.469.091.092.188.189.281.281.122.136.248.271.375.406.166.157.327.312.5.469.052.052.104.104.156.156.465.524.994 1.018 1.531 1.531.035.038.058.087.094.125.168.159.325.311.5.469.138.14.263.299.406.438.166.182.356.351.531.531.087.08.161.17.25.25.114.115.226.23.344.344.399.437.863.852 1.313 1.281.035.038.058.087.094.125.168.159.325.311.5.469.087.088.161.194.25.281-.064 0-.124.001-.188 0-.298-.106-.581-.236-.875-.344-.149-.318-.285-.616-.406-.938-.392 0-.779-.014-1.156-.031-.204-.424-.377-.851-.531-1.281-.387 0-.754-.013-1.125-.031-.199-.429-.383-.847-.531-1.281-.406 0-.8-.041-1.188-.063-.183-.415-.333-.829-.469-1.25-.414 0-.826-.039-1.219-.063-.174-.411-.31-.834-.438-1.25-.411 0-.831-.006-1.219-.031-.174-.426-.344-.85-.469-1.281-.421 0-.824-.003-1.219-.031-.168-.428-.319-.848-.438-1.281-.433 0-.848-.03-1.25-.063-.151-.41-.3-.835-.406-1.25-.462 0-.891-.021-1.313-.063-.144-.409-.245-.836-.344-1.25-.471 0-.922-.015-1.344-.063-.138-.412-.22-.834-.313-1.25-.47 0-.932-.04-1.344-.094-.127-.401-.26-.813-.344-1.219-.502 0-.956-.024-1.375-.094-.12-.401-.204-.783-.281-1.188-.525 0-.998-.068-1.406-.156-.106-.382-.183-.77-.25-1.156-.561 0-1.064-.099-1.438-.219-.093-.365-.16-.725-.219-1.094-.8 0-1.441-.212-1.531-.469-.062-.284-.115-.558-.156-.844-.561 0-1.01-.16-1.031-.344-.11.197-.208.396-.313.594-.136-.517-.246-1.039-.313-1.563-.281 0-.49-.064-.5-.156-.227.409-.452.806-.656 1.219-.252-.786-.41-1.574-.5-2.375-1.863 3.352-2.969 6.848-2.969 10.438v32.656c0 6.609 3.34 12.885 9.281 18.563.414.424.87.832 1.313 1.25.361.365.743.734 1.125 1.094.011.011.021.021.031.031.345.324.669.649 1.031.969.33.334.683.67 1.031 1 .047.048.077.108.125.156.333.313.65.628 1 .938.021.02.041.042.063.063.021.021.041.041.063.063.324.303.63.606.969.906.032.03.061.063.094.094.077.077.172.142.25.219.293.271.538.575.844.844.333.313.65.628 1 .938.385.391.808.771 1.219 1.156.016.016.015.046.031.063.312.292.611.587.938.875.391.398.801.795 1.219 1.188.011.011.021.021.031.031.313.293.609.585.938.875.032.03.062.064.094.094.032.032.062.062.094.094.301.282.591.565.906.844.35.358.722.71 1.094 1.063.338.346.704.69 1.063 1.031.384.393.808.769 1.219 1.156.042.043.083.082.125.125.291.272.571.543.875.813.313.321.637.652.969.969.407.421.843.836 1.281 1.25.053.054.103.103.156.156.281.262.55.522.844.781.363.345.709.691 1.094 1.031.064.061.123.127.188.188.153.155.312.315.469.469.17.154.326.316.5.469.043.04.082.085.125.125.032.032.062.062.094.094.27.252.53.501.813.75.059.056.128.1.188.156.047.048.078.109.125.156.261.243.51.479.781.719.404.418.845.808 1.281 1.219.048.049.077.107.125.156.262.244.508.477.781.719.058.06.098.128.156.188-8.576-3.102-15.966-6.777-21.906-10.875-.094-.156-.191-.312-.281-.469-.036.06-.059.127-.094.188-.122-.086-.254-.164-.375-.25-.229-.359-.478-.731-.688-1.094-.067.114-.122.229-.188.344-.326-.492-.65-.97-.938-1.469-.074.125-.147.249-.219.375-.337-.507-.641-1.017-.938-1.531-.067.114-.122.229-.188.344-.328-.495-.679-.998-.969-1.5-.071.12-.119.255-.188.375-.331-.5-.645-.993-.938-1.5-.074.125-.147.249-.219.375-.337-.507-.641-1.017-.938-1.531-.067.114-.122.229-.188.344-.328-.495-.679-.998-.969-1.5-.071.12-.119.255-.188.375-.331-.5-.645-.993-.938-1.5-.067.114-.122.229-.188.344-.328-.495-.679-.998-.969-1.5-.067.114-.122.229-.188.344-.326-.493-.65-.97-.938-1.469-.074.125-.147.249-.219.375-.337-.507-.641-1.017-.938-1.531-2.051 3.489-3.25 7.204-3.25 10.969v32.625c0 6.457 3.169 12.592 8.844 18.16.427.453.884.898 1.344 1.344.303.316.619.625.938.938.425.45.887.901 1.344 1.344.303.316.619.625.938.938.366.388.766.773 1.156 1.156.427.453.884.898 1.344 1.344.303.316.619.625.938.938.366.388.766.773 1.156 1.156.363.385.738.777 1.125 1.156.362.383.771.747 1.156 1.125.425.45.887.901 1.344 1.344.303.316.619.625.938.938.366.388.766.773 1.156 1.156.427.453.884.898 1.344 1.344.303.316.619.625.938.938.366.388.766.773 1.156 1.156.364.386.737.745 1.125 1.125.366.388.766.773 1.156 1.156.427.453.884.898 1.344 1.344.303.316.619.625.938.938.366.388.766.773 1.156 1.156.363.385.738.777 1.125 1.156.362.383.771.747 1.156 1.125.425.45.887.901 1.344 1.344.313.327.639.646.969.969.352.372.719.758 1.094 1.125.03.032.064.062.094.094-8.838-3.146-16.448-6.901-22.531-11.09-.094-.156-.191-.312-.281-.469-.038.065-.087.123-.125.188-.103-.072-.21-.146-.313-.219-.241-.375-.5-.746-.719-1.125-.072.122-.118.252-.188.375-.331-.499-.645-.994-.938-1.5-.074.125-.147.249-.219.375-.337-.507-.641-1.018-.938-1.531-.067.114-.122.229-.188.344-.328-.494-.679-.999-.969-1.5-.067.114-.122.229-.188.344-.326-.492-.65-.97-.938-1.469-.074.125-.147.249-.219.375-.337-.507-.641-1.018-.938-1.531-.067.114-.122.229-.188.344-.328-.494-.679-.999-.969-1.5-.071.12-.119.255-.188.375-.331-.499-.645-.994-.938-1.5-.067.114-.122.229-.188.344-.328-.494-.679-.999-.969-1.5-.067.114-.122.229-.188.344-.326-.492-.65-.97-.938-1.469-.074.125-.147.249-.219.375-.337-.507-.641-1.018-.938-1.531-2.051 3.489-3.25 7.148-3.25 10.938v32.656c0 6.54 3.269 12.753 9.09 18.375.286.298.574.611.875.906.444.471.927.912 1.406 1.375.271.282.56.565.844.844.384.409.776.816 1.188 1.219.441.467.931.916 1.406 1.375.286.298.574.611.875.906.477.505.983 1 1.5 1.5.257.265.545.519.813.781.274.291.556.587.844.875.522.564 1.114 1.103 1.688 1.656.271.282.56.565.844.844.384.409.776.816 1.188 1.219.441.467.931.916 1.406 1.375.286.298.574.611.875.906.444.471.927.912 1.406 1.375.271.282.56.565.844.844.384.409.776.816 1.188 1.219.441.467.931.916 1.406 1.375.286.298.574.611.875.906.409.433.842.855 1.281 1.281.327.343.685.661 1.031 1 .274.291.556.587.844.875.522.564 1.114 1.103 1.688 1.656.271.282.56.565.844.844.384.409.776.816 1.188 1.219.441.467.931.916 1.406 1.375.286.298.574.611.875.906.444.471.927.912 1.406 1.375.271.282.56.565.844.844.384.409.776.816 1.188 1.219.441.467.931.916 1.406 1.375.271.282.56.565.844.844.423.45.857.901 1.313 1.344.327.343.685.661 1.031 1 .362.384.739.778 1.125 1.156.444.471.927.912 1.406 1.375.271.282.56.565.844.844.384.409.776.816 1.188 1.219.441.467.931.916 1.406 1.375.286.298.574.611.875.906.444.471.927.912 1.406 1.375.291.303.601.607.906.906.274.291.556.587.844.875.522.564 1.114 1.103 1.688 1.656.271.282.56.565.844.844.384.409.776.816 1.188 1.219.441.467.931.916 1.406 1.375.286.298.574.611.875.906.444.471.927.912 1.406 1.375.271.282.56.565.844.844.384.409.776.816 1.188 1.219.441.467.931.916 1.406 1.375.286.298.574.611.875.906.444.471.927.912 1.406 1.375.291.303.601.607.906.906.274.291.556.587.844.875.522.564 1.114 1.103 1.688 1.656.271.282.56.565.844.844.384.409.776.816 1.188 1.219.441.467.931.916 1.406 1.375.286.298.574.611.875.906.444.471.927.912 1.406 1.375.271.282.56.565.844.844.384.409.776.816 1.188 1.219.441.467.931.916 1.406 1.375.286.298.574.611.875.906.409.433.842.855 1.281 1.281.342.358.7.709 1.063 1.063.24.254.499.498.75.75h-135.12c1.141 1.156 2.269 2.31 3.438 3.438.005.005.026-.005.031 0 .021.02.041.042.063.063.177.176.353.356.531.531.175.17.325.362.5.531.005.005.026-.005.031 0 .117.113.227.231.344.344.267.265.512.549.781.813.005.005.026-.005.031 0 .385.377.737.782 1.125 1.156.005.005.026-.005.031 0 .021.02.041.042.063.063.177.176.353.356.531.531.173.168.326.364.5.531.005.005.026-.005.031 0 .116.112.227.232.344.344.264.266.516.548.781.813.005.005.026-.005.031 0 .198.197.395.397.594.594.185.18.345.383.531.563.005.005.026-.005.031 0 .106.102.206.21.313.313.267.265.512.549.781.813.005.005.026-.005.031 0 .385.377.737.782 1.125 1.156.005.005.026-.005.031 0 .021.02.041.042.063.063.177.176.353.356.531.531.175.17.325.362.5.531.005.005.026-.005.031 0 .117.113.227.231.344.344.119.12.227.252.344.375 37.594 30.416 85.44 48.656 137.560004 48.656 120.9 0 218.909996-98.01 218.909996-218.91 0-8.253-.454-16.422-1.344-24.438-.107-.104-.205-.211-.313-.313-.242-.257-.521-.495-.781-.75-.464-.515-.966-1.027-1.5-1.531-.359-.381-.759-.781-1.156-1.156-.267-.284-.555-.563-.844-.844-.441-.484-.935-.963-1.438-1.438-.357-.38-.729-.782-1.125-1.156-.357-.38-.761-.751-1.156-1.125-.359-.381-.759-.781-1.156-1.156-.242-.257-.521-.495-.781-.75-.464-.515-.966-1.027-1.5-1.531-.362-.385-.755-.777-1.156-1.156-.356-.378-.731-.753-1.125-1.125-.359-.381-.759-.781-1.156-1.156-.242-.257-.521-.495-.781-.75-.464-.515-.966-1.027-1.5-1.531-.359-.381-.759-.781-1.156-1.156-.267-.284-.555-.563-.844-.844-.441-.484-.935-.963-1.438-1.438-.357-.38-.728996-.782-1.124996-1.156-.357-.38-.761-.751-1.156-1.125-.359-.381-.759-.781-1.156-1.156-.242-.257-.521-.495-.781-.75-.464-.515-.966-1.027-1.5-1.531-.359-.381-.759-.781-1.156-1.156-.356-.378-.731-.753-1.125-1.125-.359-.381-.759-.781-1.156-1.156-.242-.257-.521-.495-.781-.75-.464-.515-.966-1.027-1.5-1.531-.359-.381-.759-.781-1.156-1.156-.267-.284-.555-.563-.844-.844-.441-.484-.935-.963-1.438-1.438-.357-.38-.729-.782-1.125-1.156-.357-.38-.761-.751-1.156-1.125-.359-.381-.759-.781-1.156-1.156-.242-.257-.521-.495-.781-.75-.464-.515-.966-1.027-1.5-1.531-.359-.381-.759-.781-1.156-1.156-.267-.284-.555-.563-.844-.844-.441-.484-.935-.963-1.438-1.438-.242-.257-.521-.495-.781-.75-.464-.515-.966-1.027-1.5-1.531-.359-.381-.759-.781-1.156-1.156-.242-.257-.521-.495-.781-.75-.464-.515-.966-1.027-1.5-1.531-.357-.38-.729-.782-1.125-1.156-.357-.38-.761-.751-1.156-1.125-.359-.381-.759-.781-1.156-1.156-.242-.257-.521-.495-.781-.75-.464-.515-.966-1.027-1.5-1.531-.359-.381-.759-.781-1.156-1.156-.267-.284-.555-.563-.844-.844-.441-.484-.935-.963-1.438-1.438-.357-.38-.729-.782-1.125-1.156-.357-.38-.761-.751-1.156-1.125-.359-.381-.759-.781-1.156-1.156-.242-.257-.521-.495-.781-.75-.464-.515-.966-1.027-1.5-1.531-.357-.38-.729-.782-1.125-1.156-.357-.38-.761-.751-1.156-1.125-.359-.381-.759-.781-1.156-1.156-.242-.257-.521-.495-.781-.75-.464-.515-.966-1.027-1.5-1.531-.359-.381-.759-.781-1.156-1.156-.267-.284-.555-.563-.844-.844-.441-.484-.935-.963-1.438-1.438-.357-.38-.729-.782-1.125-1.156-.357-.38-.761-.751-1.156-1.125-.359-.381-.759-.781-1.156-1.156-.242-.257-.521-.495-.781-.75-.464-.515-.966-1.027-1.5-1.531-.362-.385-.755-.777-1.156-1.156-.356-.378-.731-.753-1.125-1.125-.359-.381-.759-.781-1.156-1.156-.242-.257-.521-.495-.781-.75-.464-.515-.966-1.027-1.5-1.531-.359-.381-.759-.781-1.156-1.156-.267-.284-.555-.563-.844-.844-.441-.484-.935-.963-1.438-1.438-.357-.38-.729-.782-1.125-1.156-.357-.38-.761-.751-1.156-1.125-.359-.381-.759-.781-1.156-1.156-.242-.257-.521-.495-.781-.75-.464-.515-.966-1.027-1.5-1.531-.359-.381-.759-.781-1.156-1.156-.267-.284-.555-.563-.844-.844-.441-.484-.935-.963-1.438-1.438-.242-.257-.521-.495-.781-.75-.464-.515-.966-1.027-1.5-1.531-.359-.381-.759-.781-1.156-1.156-.267-.284-.555-.563-.844-.844-.441-.484-.935-.963-1.438-1.438-.357-.38-.729-.782-1.125-1.156-.357-.38-.761-.751-1.156-1.125-.359-.381-.759-.781-1.156-1.156-.242-.257-.521-.495-.781-.75-.464-.515-.966-1.027-1.5-1.531-.359-.381-.759-.781-1.1559996-1.156-.267-.284-.555-.563-.844-.844-.441-.484-.935-.963-1.438-1.438-.357-.38-.729-.782-1.125-1.156-13.237-14.06-52.9480004-24.25-99.8700004-24.25" fill-opacity=".235"/>
  <path d="m-93.288136 434.55915c-57.756004 0-104.570004 15.471-104.570004 34.556 0 19.09 46.81 34.556 104.570004 34.556 57.756 0 104.57-15.471 104.57-34.556 0-19.09-46.81-34.556-104.57-34.556m-104.320004 46.2c-1.863 3.352-2.966 6.859-2.966 10.448v32.651c0 25.21 48.08 45.712 107.290004 45.712 59.26 0 107.31-20.511 107.31-45.712v-32.651c0-3.589-1.1-7.097-2.939-10.448-2.0509996 18.472-47.945 33.25-104.38 33.25-56.430004 0-102.240004-14.778-104.320004-33.25m.299 65.28c-2.051 3.489-3.265 7.201-3.265 10.965v32.624c0 25.24 48.08 45.657 107.290004 45.657 59.26 0 107.31-20.431 107.31-45.657v-32.624c0-3.765-1.239-7.476-3.265-10.965-11.51899959 19.961-53.647 34.746-104.05 34.746-50.360004 0-92.520004-14.798-104.020004-34.746m0 67.45c-2.051 3.489-3.265 7.121-3.265 10.911v32.679c0 25.21 48.08 45.603 107.290004 45.603 59.26 0 107.31-20.402 107.31-45.603v-32.679c0-3.79-1.239-7.422-3.265-10.911-11.51899959 19.923-53.647 34.692-104.05 34.692-50.360004 0-92.520004-14.769-104.020004-34.692m96.7 97.9v42.42h-147.64c4.667 4.731 9.557 9.233 14.639 13.523h280.640004c5.082-4.29 9.971-8.792 14.639-13.523h-147.61v-42.42h-14.666004" fill="#ffffff"/>
 </g>
</svg>
