<?xml version="1.0" encoding="UTF-8" standalone="no"?>
<svg xmlns="http://www.w3.org/2000/svg" height="512" viewBox="0 0 512 512" width="512" version="1.1">
 <path d="m471.95 253.05c0 120.9-98.01 218.91-218.91 218.91-120.9 0-218.91-98.01-218.91-218.91 0-120.9 98.01-218.91 218.91-218.91 120.9 0 218.91 98.01 218.91 218.91" fill="#1793d1" fill-rule="evenodd"/>
 <path d="m256 1c-140.83 0-255 114.17-255 255 0 140.83 114.17 255 255 255 140.83 0 255-114.17 255-255 0-140.83-114.17-255-255-255m8.827 44.931c120.9 0 218.9 98 218.9 218.9 0 120.9-98 218.9-218.9 218.9-120.9 0-218.93-98-218.93-218.9 0-120.9 98.03-218.9 218.93-218.9" fill-opacity=".067" fill-rule="evenodd"/>
 <path d="m256 4.43c-138.94 0-251.57 112.63-251.57 251.57 0 138.94 112.63 251.57 251.57 251.57 138.94 0 251.57-112.63 251.57-251.57 0-138.94-112.63-251.57-251.57-251.57m5.885 38.556c120.9 0 218.9 98 218.9 218.9 0 120.9-98 218.9-218.9 218.9-120.9 0-218.93-98-218.93-218.9 0-120.9 98.03-218.9 218.93-218.9" fill-opacity=".129" fill-rule="evenodd"/>
 <path d="m256 8.36c-136.77 0-247.64 110.87-247.64 247.64 0 136.77 110.87 247.64 247.64 247.64 136.77 0 247.64-110.87 247.64-247.64 0-136.77-110.87-247.64-247.64-247.64m2.942 31.691c120.9 0 218.9 98 218.9 218.9 0 120.9-98 218.9-218.9 218.9-120.9 0-218.93-98-218.93-218.9 0-120.9 98.03-218.9 218.93-218.9" fill-opacity=".129" fill-rule="evenodd"/>
 <path d="m253.04 7.86c-135.42 0-245.19 109.78-245.19 245.19 0 135.42 109.78 245.19 245.19 245.19 135.42 0 245.19-109.78 245.19-245.19 0-135.42-109.78-245.19-245.19-245.19zm0 26.297c120.9 0 218.9 98 218.9 218.9 0 120.9-98 218.9-218.9 218.9-120.9 0-218.93-98-218.93-218.9 0-120.9 98.03-218.9 218.93-218.9z" fill="#ffffff" fill-rule="evenodd" stroke="#000000" stroke-opacity=".31" stroke-width="4.904"/>
 <path d="m161.06 114.31v128.75h-91.56c-.396 5.695-.594 11.437-.594 17.25 0 2.896.058 5.757.156 8.625h1.125c.012.384.018.772.031 1.156h1.094c.012.377.018.748.031 1.125h1.125c.012.384.018.772.031 1.156h1.094c.012.377.018.748.031 1.125h1.125c.012.384.018.772.031 1.156h1.125c.012.384.018.772.031 1.156h1.094c.012.377.018.748.031 1.125h1.125c.012.384.018.772.031 1.156h1.125c.012.384.018.772.031 1.156h1.094c.011.377.018.748.031 1.125h1.125c.012.384.018.772.031 1.156h1.094c.012.377.018.748.031 1.125h1.125c.012.384.018.772.031 1.156h1.125c.012.384.018.772.031 1.156h1.094c.012.377.018.748.031 1.125h1.125c.012.384.018.772.031 1.156h1.094c.012.377.018.748.031 1.125h1.125c.012.384.018.772.031 1.156h1.125c.012.384.018.772.031 1.156h1.094c.012.377.018.748.031 1.125h1.125c.012.384.018.772.031 1.156h1.125c.012.384.018.772.031 1.156h1.094c.012.377.018.748.031 1.125h1.125c.012.384.018.772.031 1.156h1.094c.012.377.018.748.031 1.125h1.125c.012.384.018.772.031 1.156h1.125c.012.384.018.772.031 1.156h1.094c.011.377.018.748.031 1.125h1.125c.012.384.018.772.031 1.156h1.125c.012.384.018.772.031 1.156h1.094c.011.374.018.751.031 1.125h1.125c.012.384.018.772.031 1.156h1.094c.011.377.018.748.031 1.125h1.125c.012.384.018.772.031 1.156h1.125c.012.384.018.772.031 1.156h1.094c.011.377.018.748.031 1.125h1.125c.012.384.018.772.031 1.156h1.094c.011.377.018.748.031 1.125h1.125c.012.384.018.772.031 1.156h1.125c.012.384.018.772.031 1.156h1.094c.011.377.018.748.031 1.125h1.125c.012.384.018.772.031 1.156h1.125c.012.384.018.772.031 1.156h1.094c.011.374.018.751.031 1.125h1.125c.012.384.018.772.031 1.156h1.094c.011.377.018.748.031 1.125h1.125c.012.384.018.772.031 1.156h1.125c.012.384.018.772.031 1.156h1.094c.011.377.018.748.031 1.125h1.125c.012.384.018.772.031 1.156h1.094c.011.377.018.748.031 1.125h1.125c.012.384.018.772.031 1.156h1.125c.012.384.018.772.031 1.156h1.094c.012.377.018.748.031 1.125h1.125c.012.384.018.772.031 1.156h1.125c.012.384.018.772.031 1.156h1.094c.012.377.018.748.031 1.125h1.125c.012.384.018.772.031 1.156h1.094c.012.377.018.748.031 1.125h1.125c.012.384.018.772.031 1.156h1.125c.012.384.018.772.031 1.156h1.094c.012.377.018.748.031 1.125h1.125c.012.384.018.772.031 1.156h1.094c.012.377.018.748.031 1.125h1.125c.012.384.018.772.031 1.156h1.125c.012.384.018.772.031 1.156h1.094c.012.377.018.748.031 1.125h1.125c.012.384.018.772.031 1.156h1.125c.012.384.018.772.031 1.156h1.094c.012.377.018.748.031 1.125h1.125c.012.384.018.772.031 1.156h1.094c.012.377.018.748.031 1.125h1.125c.012.384.018.772.031 1.156h1.125c.012.384.018.772.031 1.156h1.094c.012.377.018.748.031 1.125h1.125c.012.384.018.772.031 1.156h1.125c.012.384.018.772.031 1.156h1.094c.011.374.018.751.031 1.125h1.125c.012.384.018.772.031 1.156h1.094c.012.377.018.748.031 1.125h.469v37.22h1.156v1.156h1.125v1.125h1.156v1.156h1.125v1.125h1.156v1.156h1.156v1.156h1.125v1.125h1.156v1.156h1.156v1.156h1.125v1.125h1.156v1.156h1.125v1.125h1.156v1.156h1.156v1.156h1.125v1.125h1.156v1.156h1.125v1.125h1.156v1.156h1.156v1.156h1.125v1.125h1.156v1.156h1.156v1.156h1.125v1.125h1.156v1.156h1.125v1.125h1.156v1.156h1.156v1.156h1.125v1.125h1.156v1.156h1.156v1.156h1.125v1.125h1.156v1.156h1.125v1.125h1.156v1.156h1.156v1.156h1.125v1.125h1.156v1.156h1.125v1.125h1.156v1.156h1.156v1.156h1.125v1.125h1.156v1.156h1.156v1.156h1.125v1.125h1.156v1.156h1.125v1.125h1.156v1.156h1.156v1.156h1.125v1.125h1.156v1.156h1.125v1.125h1.156v1.156h1.156v1.156h1.125v1.125h1.156v1.156h1.156v1.156h1.125v1.125h1.156v1.156h1.125v1.125h1.156v1.156h1.156v1.156h1.125v1.125h1.156v1.156h1.125v1.125h1.156v.344c5.804.462 11.671.719 17.594.719 120.9 0 218.91-98.01 218.91-218.91 0-5.879-.233-11.706-.688-17.469h-.156v-1.125h-1.156v-1.156h-1.125v-1.125h-1.156v-1.156h-1.156v-1.156h-1.125v-1.125h-1.156v-1.156h-1.156v-1.156h-1.125v-1.125h-1.156v-1.156h-1.125v-1.125h-1.156v-1.156h-1.156v-1.156h-1.125v-1.125h-1.156v-1.156h-1.125v-1.125h-1.156v-1.156h-1.156v-1.156h-1.125v-1.125h-1.156v-1.156h-1.156v-1.156h-1.125v-1.125h-1.156v-1.156h-1.125v-1.125h-1.156v-1.156h-1.156v-1.156h-1.125v-1.125h-1.156v-1.156h-1.125v-1.125h-.031-1.125v-1.156h-1.156v-1.156h-1.125v-1.125h-1.156v-1.156h-1.156v-1.156h-1.125v-1.125h-1.156v-1.156h-1.125v-1.125h-1.156v-1.156h-1.156v-1.156h-1.125v-1.125h-1.156v-1.156h-1.156v-1.156h-1.125v-1.125h-1.156v-1.156h-1.125v-1.125h-1.156v-1.156h-1.156v-1.156h-1.125v-1.125h-1.156v-1.156h-1.125v-1.125h-1.156v-1.156h-1.156v-1.156h-1.125v-1.125h-1.156v-1.156h-1.156v-1.156h-1.125v-1.125h-1.156v-1.156h-1.125v-1.125h-1.156v-1.156h-1.156v-1.156h-1.125v-1.125h-1.156v-1.156h-1.125v-1.125h-1.156v-1.156h-1.156v-1.156h-1.125v-1.125h-1.156v-1.156h-1.156v-1.156h-1.125v-1.125h-1.156v-1.156h-1.125v-1.125h-1.156v-1.156h-1.156v-1.156h-1.125v-1.125h-1.156v-1.156h-1.125v-1.125h-1.156v-1.156h-1.156v-1.156h-1.125v-1.125h-1.156v-1.156h-1.156v-1.156h-1.125v-1.125h-1.156v-1.156h-1.125v-1.125h-1.156v-1.156h-1.156v-1.156h-1.125v-1.125h-1.156v-1.156h-1.156v-1.156h-1.125v-1.125h-1.156v-1.156h-1.125v-1.125h-1.156v-1.156h-1.156v-1.156h-1.125v-1.125h-1.156v-1.156h-1.125v-1.125h-1.156v-1.156h-1.156v-1.156h-1.125v-1.125h-1.156v-1.156h-1.156v-1.156h-1.125v-1.125h-1.156v-1.156h-1.125v-1.125h-1.156v-1.156h-189.87" display="block" fill-opacity=".235"/>
 <path d="m161.06 114.31v128.75h-91.56c-.396 5.695-.594 11.437-.594 17.25 0 2.896.058 5.757.156 8.625h92v128.75h189.88v-128.75h92c .099-2.868.156-5.729.156-8.625 0-5.813-.198-11.555-.594-17.25h-91.56v-128.75h-189.87" display="block" fill="#ffffff"/>
</svg>
