<svg height="512" viewBox="0 0 512 512" width="512" xmlns="http://www.w3.org/2000/svg">
 <path d="m471.95 253.05c0 120.9-98.01 218.9-218.9 218.9-120.9 0-218.9-98.01-218.9-218.9 0-120.9 98.01-218.9 218.9-218.9 120.9 0 218.9 98.01 218.9 218.9" fill="#ffffff" fill-rule="evenodd"/>
 <path d="m256 31.26c-124.12 0-224.75 100.63-224.75 224.75 0 113.51 84.23 207.33 193.55 222.55l60.46-445.35c-9.56-1.24-19.36-1.942-29.26-1.942" fill="#cd1d31"/>
 <path d="m264.54 31.39c2.071.082 4.157.249 6.214.388-2.059-.133-4.14-.312-6.214-.388m6.214.388c4.71.319 9.367.835 13.982 1.424-4.624-.589-9.274-1.12-13.982-1.424m14.5 1.424l-60.46 445.35c10.218 1.422 20.59 2.201 31.2 2.201 124.12 0 224.75-100.63 224.75-224.75 0-114.22-85.17-208.49-195.49-222.8m-129.98 21.879c-5.367 2.698-10.684 5.569-15.794 8.674 5.138-3.122 10.397-5.963 15.794-8.674m-122.99 221.9c.258 2.777.548 5.539.906 8.286-.357-2.739-.649-5.516-.906-8.286m1.295 11.134c.278 1.941.579 3.901.906 5.826-.327-1.924-.628-3.885-.906-5.826m6.603 30.29c.714 2.474 1.405 4.941 2.201 7.379-.792-2.425-1.49-4.919-2.201-7.379m117.03 139.43c1.628.799 3.269 1.57 4.92 2.33-1.643-.756-3.298-1.536-4.92-2.33m28.09 11.393c3.131 1.038 6.26 2.076 9.451 2.978-3.174-.898-6.336-1.946-9.451-2.978m9.451 2.978c2.543.719 5.059 1.441 7.638 2.071-2.566-.628-5.108-1.356-7.638-2.071m22.268 5.05c2.483.435 4.998.942 7.509 1.295-2.51-.352-5.03-.86-7.509-1.295" fill="#cd1d31"/>
 <text x="729.64" y="231.36">
  
 </text>
 <text x="1310.91" y="151.36">
  
 </text>
 <text x="239.33" y="-29.9">
  
 </text>
 <text x="1337.38" y="-246.37">
  
 </text>
 <text x="1918.65" y="-326.37">
  
 </text>
 <text x="1529.53" y="-798.77">
  
 </text>
 <text x="2110.79" y="-878.78">
  
 </text>
 <text x="277.99" y="535.94">
  
 </text>
 <path d="m266.39 295.27c3.08-24.12 6.929-43.12 11.549-56.975l9.624-27.333c7.956-22.328 11.934-41.833 11.934-58.52 0-16.425-4.235-29.13-12.704-38.11-7.956-7.956-18.222-11.934-30.797-11.934-11.292 0-20.917 3.978-28.873 11.934-9.753 9.753-14.629 22.457-14.629 38.11 0 16.682 3.978 36.19 11.934 58.52l9.624 27.333c1.796 4.62 3.336 10.01 4.62 16.17 1.54 6.16 2.951 13.09 4.235 20.788.513 3.08.898 6.288 1.155 9.624.513 3.337 1.027 6.801 1.54 10.394h20.788m-11.164 40.807c-10.266 0-18.992 3.593-26.18 10.779-7.186 7.186-10.779 15.912-10.779 26.18 0 10.266 3.593 18.992 10.779 26.18 7.186 6.929 15.912 10.394 26.18 10.394 10.779 0 19.633-3.465 26.563-10.394 7.186-7.186 10.779-15.912 10.779-26.18 0-10.266-3.593-18.992-10.779-26.18-6.93-7.186-15.784-10.779-26.563-10.779" fill="#ffffff"/>
<circle cx="256" stroke="#fefefe" cy="256" r="181.13" stroke-width="18.771" fill="none" /></svg>
