<svg viewBox="0 0 512 512" xmlns="http://www.w3.org/2000/svg">
 <g fill="#654641">
  <text transform="scale(1.05082 .95163)" x="681.22" y="221.3">
   
  </text>
  <text transform="scale(1.05082 .95163)" x="949.03" y="197.8">
   
  </text>
  <text x="-25.07" y="290.09">
   
  </text>
 </g>
 <path d="m37.384766 10.5c-4.573418.004479-8.248047 3.12179-8.248047 7v477c0 3.881 3.679812 7 8.257812 7h428.531249c4.578 0 8.25781-3.119 8.25781-7v-477c0-3.881-3.67981-7-8.25781-7h-428.531249zm265.439454 21.240234c0 0 46.22594 45.481351-44.00586 115.417966-72.35004 56.12319-16.47267 88.17187 0 124.73828-42.23537-37.4273-73.21655-70.26778-52.43555-100.93164 30.51122-44.99774 115.11749-66.9735 96.44141-139.224606zm55.60156 89.541016v.00195c0 0-.00584.00195-.00586.00196-97.18163 55.35002-79.01107 71.45732-55.5957 103.76757 25.06314 34.66216-29.51367 62.10743-29.51367 62.10743 0 0 27.04439-21.74694 5.53515-46.0625-72.84651-82.43384 79.50813-119.79606 79.57422-119.8125.00211-.0012.00376-.00271.00586-.00391zm26.87305 147.18945c43.79738-.27895 65.88705 60.51949-33.72461 86.23438-.00125 0 1.19226-1.31367 1.58008-2.33008 83.61904-42.65999 44.90716-83.67527 17.91992-78.15234-6.60029 1.35072-9.48633 2.58789-9.48633 2.58789 0 0 2.4328-3.80806 7.11523-5.43555 5.00541-1.7279 9.8217-2.61058 14.49415-2.8457.70573-.03559 1.40636-.05417 2.10156-.0586zm-178.78711 4.16797c.93929.01149 1.43359.03321 1.43359.03321 0-.00001-81.03225 19.0082-28.71875 25.87695 22.09656 2.90352 65.95892 2.08618 106.99219-1.29492 33.52768-2.76392 67.19531-8.54102 67.19531-8.54102 0 0-11.73919 4.88023-20.29101 10.61133-82.26358 21.24795-241.276718 11.37153-195.52735-10.35156 29.00361-13.77914 54.1657-16.03039 64.82618-16.30469l-.01172.00391c1.77695-.04596 3.16227-.0447 4.10156-.03321zm-17.5332 49.71289l.0039.00391c-.00548.00179-.01014.00407-.01562.00586-.0746.05406-19.08697 13.85527 10.02539 16.81055 37.73375 3.82441 67.53605 4.31295 119.11133-5.4336 0 0 7.24061 6.98767 18.44726 10.86719-105.46604 30.3004-223.01797 2.35667-147.58398-22.24414.00014-.00011.01172-.00977.01172-.00977zm10.54492 47.87305l.00781.00586c0 0-17.02718 9.91412 12.12109 13.19726 35.3121 3.95911 53.58237 3.33985 92.48828-3.88281 0 0 10.21738 6.19141 24.50782 11.64453-87.25276 36.70112-197.6493-2.16241-129.125-20.96484zm-47.13477 31.8125c.98526-.022 1.93755-.015 2.85547.01953h.00781c4.20267.16003 7.79635 1.0613 10.00586 2.58984 0 0-5.76677-.5254-15.54687 1.55274-9.38481 1.98997-39.07854 11.31872-23.18946 18.11523 44.23054 18.89427 203.40848 14.45923 253.76172-.51757 26.47348-7.88884 13.9668-18.11719 13.9668-18.11719 46.13843 20.44339-100.12156 61.43959-278.00391 33.12695-55.290901-8.8144 5.51605-36.08578 36.14258-36.76953zm270.06836 25.89453l.01172.00195c-2.91794 37.2926-126.09444 45.14931-206.33789 40.11133-52.74496-3.33458-62.98633-11.64648-62.98633-11.64648 50.10384 8.12396 134.4108 9.5593 202.91016-3.10547 60.71318-11.21729 66.40234-25.36133 66.40234-25.36133z" fill="#d44e2b"/>
</svg>
