<svg viewBox="0 0 512 512" xmlns="http://www.w3.org/2000/svg">
 <g fill="#654641">
  <text transform="scale(1.05082 .95163)" x="681.22" y="221.3">
   
  </text>
  <text transform="scale(1.05082 .95163)" x="949.03" y="197.8">
   
  </text>
  <text x="-25.07" y="290.09">
   
  </text>
 </g>
 <path d="m48.233083 3.9915241c-4.573417.004-8.248047 3.12179-8.248047 6.9999999v476.999996c0 3.881 3.679813 7 8.257813 7h428.529301c4.578 0 8.25781-3.119 8.25781-7v-476.999996c0-3.8809999-3.67981-6.9999999-8.25781-6.9999999h-428.529301-.0098zm203.964847 77.4999999l.01.008c23.654 0 42.82422 13.27249 42.82422 29.646486-.085 5.026-4.57789 12.66665-6.58789 16.47265-9.883 13.177-9.88311 21.41057-7.41211 26.35157h73.28906c14.6 0 26.35352 11.75351 26.35352 26.35351v79.88281c4.941 2.47 13.17751 2.46989 26.35351-7.41211 2.649-2.038 10.3617-5.89989 16.4707-6.58789 16.374 0 29.64649 19.17127 29.64649 42.82227 0 23.654-13.27249 42.82422-29.64649 42.82422-5.026-.085-12.6647-4.57789-16.4707-6.58789-13.177-9.883-21.41251-9.88311-26.35351-7.41211v73.29101c0 14.6-11.75352 26.35352-26.35352 26.35352h-46.94141c-2.47-4.941-2.46989-13.17752 7.41211-26.35352 2.008-3.806 6.50289-11.4407 6.58789-16.4707 0-16.374-19.17126-29.64844-42.82226-29.64844-23.654 0-42.82422 13.27444-42.82422 29.64844.688 6.109 4.54989 13.8227 6.58789 16.4707 9.883 13.177 9.88311 21.41252 7.41211 26.35352h-106.24023c-14.60001 0-26.35353-11.75352-26.35353-26.35352v-86.4707c4.941-2.47 13.17752-2.46989 26.35353 7.41211 3.80599 2.008 11.4407 6.50289 16.4707 6.58789 16.374 0 29.64648-19.17322 29.64648-42.82422 0-23.654-13.27248-42.82422-29.64648-42.82422-6.109.688-13.82271 4.54989-16.4707 6.58789-13.17701 9.883-21.41253 9.88311-26.35353 7.41211v-66.70898c0-14.6 11.75353-26.35352 26.35353-26.35352h79.88085c2.47-4.941 2.4699-13.17751-7.41211-26.35351-2.038-2.649-5.89989-10.36171-6.58789-16.47071 0-16.373996 19.17322-29.646476 42.82422-29.646476z" fill="#d44e2b"/>
 <g fill="#654641">
  <text transform="scale(1.05082 .95163)" x="119.84" y="185.78">
   
  </text>
  <text transform="scale(1.05082 .95163)" x="387.65" y="162.28">
   
  </text>
  <text x="-614.98" y="256.28">
   
  </text>
 </g>
</svg>
