<svg viewBox="0 0 512 512" xmlns="http://www.w3.org/2000/svg">
 <path d="m70.041016 10.5c-3.881 0-7 3.119-7 7v477c0 3.881 3.119 7 7 7h363.250004c3.881 0 7-3.119 7-7v-344.7207l-139.25-139.2793zm123.832034 192.58203h132.33984v7.875c0 3.025 2.4175 5.5 5.4375 5.5h12.40625c3.025 0 5.46875-2.48 5.46875-5.5v-3c10.253 6.075 17.12109 17.22555 17.12109 30.06055v199.9707c0 12.831-6.87286 24.01285-17.13086 30.08984-.14499-2.89399-2.53874-5.21874-5.46874-5.21874h-12.40626c-3.02499 0-5.4375 2.48-5.4375 5.5v4.5625h-132.33984v-4.5625c0-3.02501-2.4175-5.5-5.4375-5.5h-12.40625c-2.931-.00001-5.32375 2.32474-5.46875 5.21874-10.254-6.06999-17.08984-17.25484-17.08984-30.08984v-21.875c3.048-1.36 6.333-1.9735 10-1.4375 21.98.906 44.60229 7.6835 66.27929.9375 42.364-10.8 73.8253-54.71784 68.2793-98.58984-3.872-40.11-36.72375-75.55455-76.84375-81.31055-5.535-.985-11.15825-1.3235-16.78125-1.1875-18.48-.029-36.1925 6.4655-50.9375 17.1875v-13.6875c0-12.832 6.83184-23.98355 17.08985-30.06055v3c-.00001 3.025 2.44874 5.5 5.46874 5.5h12.40626c3.02499 0 5.4375-2.48 5.4375-5.5v-7.875zm137.77929 38.19141c-3.025 0-5.4375 2.4175-5.4375 5.4375v8.59375c0 3.025 2.4175 5.46875 5.4375 5.46875h12.40625c3.025 0 5.46875-2.44875 5.46875-5.46875v-8.59375c0-3.025-2.44875-5.4375-5.46875-5.4375zm-125.02929 3.125l.0039.01172v.03125c22.655 0 43.03 9.403 57.875 24.25 14.847 14.839 23.96875 34.93384 23.96875 57.58984 0 43.77-34.2907 79.71784-77.4707 82.08984-1.514.079-2.841.03125-4.375.03125-3.04 0-6.10455.29275-9.06055-.03125-21.257-1.863-40.4325-8.76429-54.9375 2.34571l-17.1875 17.21875-.5.5-.03125-.03125c-4.946 4.429-12.495 4.28625-17.25-.46875l-1.53125-1.53125c-4.755-4.754-4.929-12.33525-.5-17.28125l.5-.5 17.21875-17.1875c11.091-13.94 4.60625-33.27941 2.03125-53.19141-.035-.054.034-.2243 0-.2793-.53-3.768-.59375-7.49225-.59375-11.40625 0-45.31 36.52985-82.16015 81.83985-82.16015zm.00195 21.95117c-33.294 0-60.2207 26.6475-60.2207 59.9375 0 33.29 26.9307 60.5 60.2207 60.5 33.294 0 60.2207-26.92875 60.2207-60.21875 0-16.648-6.62225-31.7805-17.53125-42.6875-10.91-10.909-26.0385-17.53125-42.6875-17.53125zm125.0293 19.25c-3.025 0-5.4375 2.44875-5.4375 5.46875v8.56445c0 3.025 2.4175 5.5 5.4375 5.5h12.40625c3.025 0 5.46875-2.48 5.46875-5.5v-8.56445c0-3.025-2.44875-5.46875-5.46875-5.46875zm0 44.33984c-3.025 0-5.4375 2.41946-5.4375 5.43946v8.59375c0 3.025 2.4175 5.4375 5.4375 5.4375h12.40625c3.025 0 5.46875-2.4175 5.46875-5.4375v-8.59375c0-3.025-2.44875-5.43946-5.46875-5.43946zm0 44.28125c-3.025 0-5.4375 2.48-5.4375 5.5v8.5625c0 3.025 2.4175 5.46875 5.4375 5.46875h12.40625c3.025 0 5.46875-2.44875 5.46875-5.46875v-8.5625c0-3.025-2.44875-5.5-5.46875-5.5zm-155.61914 44.33985c-3.025 0-5.46875 2.44875-5.46875 5.46875v8.59375c0 3.025 2.44875 5.4375 5.46875 5.4375h12.40625c3.025 0 5.4375-2.4175 5.4375-5.4375v-8.59375c0-3.025-2.4175-5.46875-5.4375-5.46875zm155.6289 0c-3.025 0-5.4375 2.44875-5.4375 5.46875v8.59375c0 3.025 2.4175 5.4375 5.4375 5.4375h12.40625c3.025 0 5.46875-2.4175 5.46875-5.4375v-8.59375c0-3.025-2.44875-5.46875-5.46875-5.46875z" fill="#d44e2b"/>
</svg>
