<svg viewBox="0 0 512 512" xmlns="http://www.w3.org/2000/svg">
 <path d="m83.058594 10.5c-3.881 0-7 3.119-7 7v477c0 3.881 3.119 7 7 7h363.249996c3.881 0 7-3.119 7-7v-344.7207l-139.25-139.2793zm247.970706 180.76758l-29.69922 19.99609-28.20899-19.27539zm24.2832 1.22851l28.51367 23.25782-61.83789-3.56836zm-101.45508 25.00391c17.05787-.30949 26.40469 10.60742 22.60742 30.56836-5.70044 29.97105-38.84199 68.94351-74.03515 87.11719-35.19316 18.17791-59.07544 8.67862-53.375-21.29102 5.70044-29.96964 38.84199-69.05147 74.03515-87.22656 10.99734-5.67928 20.8572-8.61423 29.0918-9.09961v-.00391c.56612-.03342 1.12553-.05447 1.67578-.06445zm50.23047 5.30078l.00586.00195v.00196l63.60156 49.86133-82.68359 1.24414 19.08203-51.10547zm20.32227 1.32422l61.45117 5.50195-.88477 43.86914-60.56445-49.36523zm56.74218 60.07227l-22.61914 43.36328-59.95703-42.03711zm-100.45898 4.58398h.00586l-.00195.00195 71.8457 46.09961-62.71875 77.13086-8.74024 9.07227c35.64468-28.11277 69.71698-62.37197 100.08594-111.28711-2.07276 46.63779-1.60272 93.7476-9.54101 139.36523-70.45123 6.10258-140.9018 12.33807-209.29297 9.87305-26.98678-5.27855-35.06338-24.75928-36.17383-31.31055l.77344-98.95312c5.70608 15.54076 6.77018 40.03141 19.08398 42.83789 67.45204-5.22628 78.62752-26.10748 134.67774-82.82813z" fill="#d44e2b"/>
</svg>
