<svg height="24" viewBox="0 0 6.77 6.77" width="24" xmlns="http://www.w3.org/2000/svg">
 <g fill="#ececec" transform="matrix(1.0001992 0 0 1 .35204562 .28332468)">
  <path d="m4.498 3c-.553.001-1 .451-.998 1v10.996c-.002.553.445 1 .998 1h13.504c.552-.002.998-.452.996-1v-9.441l-5.629 5.733-3.919 1.258.857-3.519 6.04-6.03" transform="matrix(.28216602 0 0 .28222222 -.0698074 -.00110245)"/>
  <path d="m .918 4.516v.564c.001.155.126.281.282.281h3.811c.155-.001.281-.126.281-.281v-.564c-.001.155-.126.281-.281.281h-.283-3.244-.283c-.155 0-.281-.126-.282-.281"/>
 </g>
 <path d="m5.921.596c-.064.003-.124.03-.168.077l-2.255 2.253-.224.574.574-.224 2.253-2.255c.161-.157.045-.431-.18-.424" fill="#ececec" fill-rule="evenodd"/>
</svg>
