<svg height="16" viewBox="0 0 23.75 23.75" width="16" xmlns="http://www.w3.org/2000/svg">
 <path d="m12.454 3.243c-.465-.014-.559.003-.694.123-.22.192-.208.605.02.781.123.092.217.112.759.142 1.604.092 2.828.516 4.01 1.385 1.421 1.04 2.312 2.489 2.649 4.304.086.463.128.85.157 1.45.017.39.031.477.083.577.163.304.639.348.856.078.114-.139.128-.248.108-.736-.054-1.43-.371-2.729-.928-3.822-.4-.783-.776-1.288-1.456-1.954-.725-.705-1.273-1.093-2.129-1.503-.871-.415-1.664-.647-2.646-.767-.194-.022-.551-.05-.793-.059" fill="#54cdee"/>
 <path d="m6.01 3.538c-.271.056-.611.254-1.347.789-.442.323-1.05.903-1.193 1.137-.331.555-.311 1.026.091 2.11.691 1.859 1.701 3.652 3.03 5.38 2.54 3.309 5.74 5.717 9.747 7.331.511.206.676.24 1.076.22.485-.022.853-.17 1.373-.555.574-.427 1.396-1.424 1.607-1.957.2-.505.148-.962-.148-1.319-.168-.198-1.413-1.19-1.995-1.589-.442-.301-1.127-.716-1.441-.875-.414-.206-.825-.243-1.227-.109-.317.106-.422.198-.885.767-.24.29-.46.552-.488.577-.031.025-.131.081-.225.123-.374.17-.885.067-1.721-.34-.651-.315-1.227-.714-1.881-1.299-.557-.496-1.119-1.143-1.433-1.647-.405-.65-.714-1.494-.716-1.96 0-.201.083-.485.186-.63.04-.059.294-.279.565-.493.676-.532.828-.7.919-1.017.088-.295-.006-.694-.288-1.232-.494-.942-2-2.829-2.546-3.181-.088-.056-.243-.134-.342-.167-.205-.072-.528-.103-.714-.064" fill="#54cdee"/>
 <path d="m12.386 5.484c-.137.203-.12.449.043.63.106.12.26.176.539.198.773.061 1.621.309 2.195.644.668.387 1.216.945 1.593 1.62.331.591.522 1.352.522 2.074 0 .468.066.641.285.75.131.067.368.072.479.017.103-.053.223-.181.26-.276.04-.1.04-.705.003-1.037-.106-.906-.414-1.751-.908-2.47-.879-1.277-2.221-2.063-3.953-2.311-.682-.1-.91-.064-1.059.162z" fill="#54cdee"/>
 <path d="m13.568 7.368c-.24-.014-.285-.008-.394.045-.288.145-.368.538-.16.781.114.131.22.17.571.212.748.089 1.19.362 1.441.889.117.248.186.516.223.898.031.287.074.393.211.493.188.142.499.137.668-.014.18-.162.211-.357.134-.853-.114-.761-.374-1.291-.848-1.728-.368-.337-.799-.546-1.361-.663-.117-.025-.337-.05-.485-.059z" fill="#54cdee"/>
</svg>
