<svg height="16" width="16" xmlns="http://www.w3.org/2000/svg">
  <path d="m4 1c-2.20914 0-4 1.79086-4 4 0 1.4792092.8062088 2.7454151 2 3.4375v.5625h-.5c-.277 0-.5.223-.5.5v1c0 .277.223.5.5.5h.5v3c0 .554.446 1 1 1h9c .554 0 1-.446 1-1v-2.15625l2.5625 1.90625a.26892414.26892414 0 0 0  .0625.03125.26892414.26892414 0 0 0  .15625 0 .26892414.26892414 0 0 0  .21875-.25v-6.0625a.26892414.26892414 0 0 0 0-.0625.26892414.26892414 0 0 0 -.0625-.09375.26892414.26892414 0 0 0 -.0625-.0625.26892414.26892414 0 0 0 -.1875-.0625.26892414.26892414 0 0 0 -.125.0625l-2.5625 1.90625v-1.15625c0-.1031961-.033734-.1877334-.0625-.28125.65902-.7130954 1.0625-1.6711992 1.0625-2.71875 0-2.20914-1.79086-4-4-4-1.193633 0-2.2671044.5146101-3 1.34375-.7328956-.8291399-1.806367-1.34375-3-1.34375zm0 2.4375c.86927 0 1.5625.69323 1.5625 1.5625 0 .86927-.69323 1.5625-1.5625 1.5625-.86927 0-1.5625-.69323-1.5625-1.5625 0-.86927.69323-1.5625 1.5625-1.5625zm6 0c .86927 0 1.5625.69323 1.5625 1.5625 0 .86927-.69323 1.5625-1.5625 1.5625-.86927 0-1.5625-.69323-1.5625-1.5625 0-.86927.69323-1.5625 1.5625-1.5625z" fill="#bebebe" transform=""/>
</svg>
