<svg height="16" width="16" xmlns="http://www.w3.org/2000/svg">
  <path d="m484.5 177c-.277 0-.5.223-.5.5v.5h-.5c-.831 0-1.5.669-1.5 1.5v9c0 .831.669 1.5 1.5 1.5h13c .831 0 1.5-.669 1.5-1.5v-9c0-.831-.669-1.5-1.5-1.5h-9.5v-.5c0-.277-.223-.5-.5-.5zm0 2h2c .277 0 .5.223.5.5v1c0 .277-.223.5-.5.5h-2c-.277 0-.5-.223-.5-.5v-1c0-.277.223-.5.5-.5zm4 0c .27614 0 .5.22386.5.5 0 .27614-.22386.5-.5.5-.27614 0-.5-.22386-.5-.5 0-.27614.22386-.5.5-.5zm4.5 1c2.20914 0 4 1.79086 4 4 0 2.20914-1.79086 4-4 4-2.20914 0-4-1.79086-4-4 0-2.20914 1.79086-4 4-4zm0 2c-1.10457 0-2 .89543-2 2 0 1.10457.89543 2 2 2 1.10457 0 2-.89543 2-2 0-1.10457-.89543-2-2-2z" fill="#bebebe" transform="translate(-482 -176)"/>
</svg>
