<svg height="16" width="16" xmlns="http://www.w3.org/2000/svg">
  <path d="m2 0c-.554 0-1 .446-1 1v1h1 3 10c0-.554-.446-1-1-1h-7c0-.554-.446-1-1-1h-1-2z" fill="#bebebe"/>
  <path d="m1.5 3c-.831 0-1.5.669-1.5 1.5v9c0 .831.669 1.5 1.5 1.5h13c .831 0 1.5-.669 1.5-1.5v-9c0-.831-.669-1.5-1.5-1.5zm6.5 2.53125c2.171469-.0000001 4.344405.8131547 6 2.46875l-1.09375 1.09375c-1.256097-1.2560963-2.9908765-2.0312501-4.90625-2.03125-1.9153735 0-3.6501536.7751537-4.90625 2.03125l-1.09375-1.09375c1.6555952-1.6555955 3.8285309-2.4687499 6-2.46875zm0 3.0625c1.4897349 0 2.835536.616786 3.8125 1.59375l-1.09375 1.09375c-.697832-.697831-1.6546536-1.125-2.71875-1.125-1.0640964 0-2.0209186.427169-2.71875 1.125l-1.09375-1.09375c.9769638-.976964 2.3227651-1.59375 3.8125-1.59375zm0 3.09375c.6384578 0 1.2063012.268801 1.625.6875l-1.625 1.625-1.625-1.625c.4186988-.418699.9865422-.6875 1.625-.6875z" fill="#bebebe"/>
</svg>
