<svg height="16" width="16" xmlns="http://www.w3.org/2000/svg" xmlns:xlink="http://www.w3.org/1999/xlink">
  <linearGradient id="a" gradientTransform="matrix(.08112299 0 0 .07855526 -21.185695 -23.153302)" gradientUnits="userSpaceOnUse" x1="365.51" x2="365.98" y1="408.4" y2="520.17">
    <stop offset="0" stop-color="#384880"/>
    <stop offset="1"/>
  </linearGradient>
  <g transform="translate(0 -6)">
    <path d="m8 0c-4.418278 0-8 3.581722-8 8 0 4.418278 3.581722 8 8 8 2.526054 0 4.783865-1.171486 6.25-3h-11.25v-3h1v2h10.90625c.684275-1.178958 1.09375-2.5387089 1.09375-4 0-4.418278-3.581722-8-8-8zm .15625 3.15625c.6868507 0 1.4788863.2054482 1.71875.40625.0114235-.251003.260136-.34375.5-.34375.282874 0 .5625.2492491.5625.4375v1.46875c0 .213347-.174543.375-.4375.375-.251547 0-.474154-.116921-.53125-.34375-.0489463-.288482-.3918868-1.15625-1.84375-1.15625-1.2907496 0-1.8125.810107-1.8125 1.375 0 .527253.6023977 1.08117 1.6875 1.09375 1.0511328 0 3.2386.241911 3.25 2.25.007066 1.242438-1.246027 2.21875-3.0625 2.21875-.7265864 0-1.378563-.131814-2.03125-.5 0 .466887-.1386589.5-.5625.5-.393569 0-.551099-.354798-.5625-.71875v-1.59375c0-.200801.1829675-.375.46875-.375.2855529 0 .53125.198851.53125.375 0 .502632.6323027 1.46875 1.96875 1.46875 1.1767012 0 2.1875-.420863 2.1875-1.375 0-.979231-1.0763092-1.28125-2.21875-1.28125-1.097059 0-2.78125-.54373-2.78125-2.0625 0-1.5832934 1.7694272-2.21875 2.96875-2.21875z" fill="#bebebe" stroke-width=".8" transform="translate(0 6)"/>
    <path d="m3.020979 16.188811l-.020979.125874h.020979z" fill="url(#a)"/>
  </g>
</svg>
