<svg height="16" width="16" xmlns="http://www.w3.org/2000/svg">
  <path d="m .03125 7.09375v4.0625h1.03125c.5411819-.000387 1.0316391.490068 1.03125 1.03125v1.6875 3c0 2.278887 1.7836138 4.09375 4.0625 4.09375h4.71875 5.09375v-4.09375-5.71875c0-2.278887-1.814864-4.0625-4.09375-4.0625h-2.59375-2.0625-6.15625zm3.96875 1.90625h.96875v7.875.25c0 .536935.4506767.96875 1 .96875h6.0625c.549323 0 .96875-.431815.96875-.96875v-.25-.875-2-1c0-.552285-.447715-1-1-1-.552285 0-1 .447715-1 1v1 2h-1v-2-1c0-.552285-.447715-1-1-1-.552285 0-1 .447715-1 1v3h-1v-3c0-1.104569.895431-2 2-2 .600847 0 1.133385.268051 1.5.6875.366615-.419449.899153-.6875 1.5-.6875 1.104569 0 2 .895431 2 2v1 2 .875.25c0 1.073869-.870103 1.9375-1.96875 1.9375h-6.0625c-1.0986466 0-1.96875-.863631-1.96875-1.9375v-.25z" fill="#bebebe" stroke-width="2" transform="translate(0 -6)"/>
</svg>
