<svg height="16" width="16" xmlns="http://www.w3.org/2000/svg">
  <g transform="translate(0 -6)">
    <path d="m-13.375 32c-.69219.04617-1.48522.350316-2.125.875-.783895.642873-1.420629 2.277217-1.25 3.1875.08798.469342.442147 1.040424.78125 1.21875.631484.332085 1.782432-.218771 2.84375-1.34375 1.146489-1.215261 1.672995-2.554322 1.28125-3.3125-.240753-.465948-.83906-.671173-1.53125-.625zm-5.65625.71875c-.962961.000866-1.472444.677958-1.46875 1.96875.0025.88392.31322 1.679132.71875 1.875.301512.145631.309051.132036.6875 0 .626864-.218707 1.215803-1.678559 1.09375-2.65625-.09989-.800159-.443807-1.188029-1.03125-1.1875zm-3.8125 1.3125c-.180183.02605-.360903.142012-.53125.3125-.343364.343646-.347944.530957-.34375 1.1875.0049.774303.193895 1.196475.71875 1.75.392601.414046.675716.438798 1.03125.0625.385138-.407633.504721-1.047693.375-1.75-.197834-1.071067-.709451-1.64066-1.25-1.5625zm-2.6875 2.34375c-.186951.03041-.35545.136555-.53125.3125-.461346.46173-.138669 1.731398.59375 2.375.874175.768169 1.580077.06483 1.28125-1.28125-.212654-.957908-.782897-1.497481-1.34375-1.40625zm8.03125 1.6875c-.61906-.01065-1.312804.04097-2.03125.1875-1.85076.377471-3.33166 1.075449-4.28125 2.03125-.546889.550465-.859803 1.060056-1.125 1.84375-.641919 1.896963.546896 4.595678 2.8125 6.4375.844088.686203 1.359152.993313 2.21875 1.28125.445736.149308.799163.183992 1.625.15625.946716-.03181 1.139252-.07408 1.75-.375.895036-.440989 1.909553-1.461035 2.34375-2.34375.264885-.5385.307321-.768628.28125-1.21875-.04452-.768578-.342658-.977756-1.3125-.96875-1.38452.01285-1.965756.333932-2.25 1.3125-.21469.739118-.452038 1-.9375 1-.769368 0-1.5625-.611791-1.5625-1.25 0-.443994.715313-1.10577 2.5-2.3125 2.514116-1.69994 3.378489-2.734111 3.25-3.875-.13273-1.178551-1.42407-1.874295-3.28125-1.90625z" fill="#d40000"/>
    <path d="m11.5625 1.96875c-1.171058-.0614164-2.1687733.6026813-3.09375 1.125-.9397032.6093027-1.7677811 1.4463727-2.21875 2.5-.0056697.0132464-.0257007.0179316-.03125.03125-1.0449787 1.2766799-1.2634137 2.996503-1.15625 4.5625-.042458 2.166222.6859027 4.367558 2.09375 6.03125 1.3431662 1.664838 3.350611 2.921993 5.5625 2.90625a.13191028.13191028 0 0 0  .03125 0 .13191028.13191028 0 0 0  .03125 0 .13191028.13191028 0 0 0  .03125-.03125.13191028.13191028 0 0 0  .03125-.03125.13191028.13191028 0 0 0  0-.03125.13191028.13191028 0 0 0  0-.03125.13191028.13191028 0 0 0  0-.03125.13191028.13191028 0 0 0  0-.03125.13191028.13191028 0 0 0 -.03125-.03125.13191028.13191028 0 0 0 -.03125-.03125.13191028.13191028 0 0 0 -.03125 0c-1.016351-.172965-1.914798-.790483-2.78125-1.375-.00546-.0055-.025779.0055-.03125 0-.6305365-.632261-1.3315089-1.152915-1.78125-1.875-.4008214-.652828-.6427078-1.412209-.90625-2.15625a.13191028.13191028 0 0 0 0-.03125.13191028.13191028 0 0 0 -.03125-.03125c-.6488844-.693773-1.0402755-1.589955-1-2.53125-.2031511-1.7182863.2789691-3.5564524 1.40625-4.875.0096978-.0113432.021457-.0199825.03125-.03125.8303172-.5500364 1.5782935-1.2385829 2.46875-1.59375.894728-.5930481 2.025226-.7535536 3.09375-.6875.01037.0006413.02088-.0006801.03125 0 1.924121.2563574 3.625834 1.9702139 3.8125 3.90625a.13191028.13191028 0 0 0 0 .03125.13191028.13191028 0 0 0  0 .03125c.104078.2200286.07408.4883633.03125.78125-.04002.273702-.06866.566361.03125.84375.007.019443-.0086.04323 0 .0625-.236528 1.924635-2.439565 3.437641-4.3125 2.84375-.775813-.277847-1.381163-.964098-1.6875-1.75-.306337-.7859017-.285136-1.6705528.1875-2.375.714274-.9735615 2.236505-1.3073771 3.25-.625a.13191028.13191028 0 0 0  .03125 0 .13191028.13191028 0 0 0  .03125 0 .13191028.13191028 0 0 0  .03125 0 .13191028.13191028 0 0 0  .03125 0 .13191028.13191028 0 0 0  .03125-.03125.13191028.13191028 0 0 0  .03125-.03125.13191028.13191028 0 0 0  0-.03125.13191028.13191028 0 0 0  0-.03125.13191028.13191028 0 0 0  0-.03125.13191028.13191028 0 0 0  0-.03125c-.365772-.5458385-1.13332-.799214-1.78125-.78125-1.056615.00303-2.010084.689985-2.4375 1.625-.7971094 1.427801-.269267 3.389459 1.15625 4.21875.0127.0074.01841.02405.03125.03125.0048.009-.0041.02313 0 .03125-.05355-.0248-.10426-.06399-.15625-.09375-.03595-.02058-.06777-.04726-.09375-.0625-.01299-.0076-.02085.0058-.03125 0-.0104-.0058-.033-.02175-.0625-.03125a.13191028.13191028 0 0 0 -.03125 0c-.0058-.0045-.02512.0047-.03125 0-.04597-.03552-.07385-.08557-.125-.125-.04816-.03713-.08456-.06537-.125-.09375-.02022-.01419-.04424-.0204-.0625-.03125-.01826-.01085-.02023-.02236-.0625-.03125-.0053-.0011-.02397.000603-.03125 0-.0073-.000603-.03065-.000061-.03125 0-.000599.000061-.03078-.000184-.03125 0-.000472.000184-.03091.03094-.03125.03125-.000341.000311-.03104.03081-.03125.03125-.000208.000441.000071.06193 0 .0625-.000071.000574-.000838.02271 0 .03125.01212.04829.01594.07227.03125.09375.03062.04296.08053.103868.15625.1875.574836.548638 1.317097.816085 2.09375.9375.02225.0035.04021.02805.0625.03125.02996.0069.06324-.0061.09375 0 .345736.0689.731659.100643 1 .0625l-.03125-.125-.03125-.125c-.28564.07122-.575917-.010758-.90625-.0625 1.646528.169067 3.400895-.619688 4.25-2.0625.0095-.01089.02202-.02022.03125-.03125.470901-.562465.608624-1.312383.90625-1.875a.13191028.13191028 0 0 0 0-.03125.13191028.13191028 0 0 0  0-.03125c.08644-.8024396.0067-1.6132683-.28125-2.375-.0055-.018601.0039-.014599 0-.03125-.03082-.1332085-.01199-.2304686 0-.25.01349-.021973.01467-.011955.0625 0 .09566.02391.260068.1712934.25.40625a.13191028.13191028 0 0 0 0 .03125c.01765.1204853.02154.1966171.03125.25.0049.026692.02665.044934.03125.0625.0023.00878-.01078.00957 0 .03125.0027.00542-.000211.030975 0 .03125.000105.0001376.03115-.0000882.03125 0 .000099.0000882.03116.031211.03125.03125.000093.0000393.06241.0000093.0625 0 .000086-.0000093.06242.0000574.0625 0 .00008-.0000574.03118-.031145.03125-.03125.000074-.0001051.03118-.031098.03125-.03125.000135-.0003046-.0014-.025276 0-.03125.00095-.00737-.000178-.026638 0-.03125.000357-.00922.000254-.022687 0-.03125-.000507-.017127.0018-.038404 0-.0625-.003595-.0481928-.023534-.1137699-.03125-.1875-.030863-.2949203-.074718-.7183377-.125-.90625-.298565-1.3116051-1.338712-2.2962682-2.4375-2.9375-.841576-.4396954-1.809728-.4953255-2.65625-.75-.349482-.09959-.678369-.087231-1-.09375-.321631-.00652-.617905-.036334-.90625-.15625a.13191028.13191028 0 0 0 -.03125 0 .13191028.13191028 0 0 0 -.03125 0z" fill="#bebebe" transform="matrix(.93233865 0 0 .93233865 -3.1041005 4.1681575)"/>
  </g>
</svg>
