<svg height="16" width="16" xmlns="http://www.w3.org/2000/svg">
  <path d="m8 6c-4.418278 0-8 3.5817218-8 8 0 4.418278 3.581722 8 8 8 4.418278 0 8-3.581722 8-8 0-4.4182782-3.581722-8-8-8zm0 1.7777778c3.436438 0 6.222222 2.7857842 6.222222 6.2222222 0 3.436438-2.785784 6.222222-6.222222 6.222222-1.635166 0-3.1117228-.635206-4.2222222-1.666666.3580818-.05034.9268937-.05594 1.6666666.02778 1.0819976.12245 1.6754223.165045 2.3888889.111111 1.6248137-.122839 2.6980447-.390023 3.8888887-.972222.622357-.304278.75428-.441734.888889-.805555.128345-.346889.176553-.66667.111111-.66667-.02316 0-.228013.07903-.472222.194444-.91637.433033-1.718167.648427-2.416667.611112-.726129-.03884-1.8941641-.460212-3.3055552-1.138889l-.6666667-.305556-.5-1.25.4722222.305556c.8058908.535139 2.1223423 1.165456 2.9166667 1.416666 1.213505.38377 2.161732.331091 3.138889-.166666.344419-.175445 1-.605362 1-.666667 0-.11556-.335437-1.240241-.527778-1.75-.480977-1.274735-.818449-1.705215-1.611111-2.083333-.88002-.419791-1.855713-.704687-3.6388889-1.111111-.8525351-.18102-1.6903159-.3643338-2.5555555-.4722227l-.0277778 1.0555557c-.5658376-.17597-1.1033601-.311341-1.6388889-.444445 1.1248696-1.6084082 2.9994459-2.6666662 5.1111111-2.6666662zm1.472222 4.5000002c.582598-.01235 1.13757.370924 1.305556 1.027778.08462.330913.05789.565591-.111111.916666-.247073.513212-.793843.791735-1.388889.694445-.419621-.0686-.78233-.339195-.972222-.75-.231294-.500351-.123011-1.165041.277777-1.527778.2625-.237586.583712-.354729.888889-.361111zm.305556.694444c-.464926 0-.756997.341457-.5.583334.208457.196185.556395.224873.833333.08333.179349-.09167.240747-.231871.194445-.416667-.03408-.135987-.301552-.25-.527778-.25z" fill="#bebebe" transform="translate(0 -6)"/>
</svg>
